<svg version="1.1" viewBox="0 0 48 48" xmlns="http://www.w3.org/2000/svg">
 <defs>
  <linearGradient id="bg" x1="1" x2="47" gradientTransform="matrix(0 -1 1 0 -1.5e-6 48)" gradientUnits="userSpaceOnUse">
   <stop style="stop-color:#ecc200" offset="0"/>
   <stop style="stop-color:#ffd401" offset="1"/>
  </linearGradient>
 </defs>
 <path d="m36.31 5c5.859 4.062 9.688 10.831 9.688 18.5 0 12.426-10.07 22.5-22.5 22.5-7.669 0-14.438-3.828-18.5-9.688 1.037 1.822 2.306 3.499 3.781 4.969 4.085 3.712 9.514 5.969 15.469 5.969 12.703 0 23-10.298 23-23 0-5.954-2.256-11.384-5.969-15.469-1.469-1.475-3.147-2.744-4.969-3.781zm4.969 3.781c3.854 4.113 6.219 9.637 6.219 15.719 0 12.703-10.297 23-23 23-6.081 0-11.606-2.364-15.719-6.219 4.16 4.144 9.883 6.719 16.219 6.719 12.703 0 23-10.298 23-23 0-6.335-2.575-12.06-6.719-16.219z" style="opacity:.05"/>
 <path d="m41.28 8.781c3.712 4.085 5.969 9.514 5.969 15.469 0 12.703-10.297 23-23 23-5.954 0-11.384-2.256-15.469-5.969 4.113 3.854 9.637 6.219 15.719 6.219 12.703 0 23-10.298 23-23 0-6.081-2.364-11.606-6.219-15.719z" style="opacity:.1"/>
 <path d="m31.25 2.375c8.615 3.154 14.75 11.417 14.75 21.13 0 12.426-10.07 22.5-22.5 22.5-9.708 0-17.971-6.135-21.12-14.75a23 23 0 0 0 44.875-7 23 23 0 0 0-16-21.875z" style="opacity:.2"/>
 <path d="m24 1c12.703 0 23 10.297 23 23s-10.297 23-23 23-23-10.297-23-23 10.297-23 23-23z" style="fill:url(#bg)"/>
 <g transform="translate(1,1)">
  <g style="opacity:.1">
   <path transform="translate(-1,-1)" d="m12 12v26h26v-26h-26z"/>
  </g>
 </g>
 <path d="m11 11v26h26v-26z" style="fill:#b4ab8d"/>
 <path d="m24 11.996-2 14.004 14-2.0039v-12h-12z" style="fill:#e7d9b1"/>
 <path d="m12 11.996v12l6 1.0039 6-1.0039v-12h-12z" style="fill:#eeeed3"/>
 <path d="m12 24v12h12l1-6-1-6h-12z" style="fill:#fcd05f"/>
 <path d="m24 24v12h12v-12h-12z" style="fill:#fcc06e"/>
 <path d="m18 13c-0.875 0-2.1056 0.41028-3 1l1 1.75c0.49338-0.33598 1-0.75 2-0.75 0.5 0 1 0.3 1 1 0 1.1-2 3.0137-4 5v2h6v-2h-3c0.72459-0.82169 3-3 3-5 0-1.5-0.25-3-3-3zm0.5 12-3.5 6v2h4v2h2v-2h1v-2h-1v-6zm11.5 0c-1.6569 0-3 1.3431-3 3 1e-3 0.73841 0.2743 1.4505 0.76758 2-0.49328 0.54948-0.76727 1.2616-0.76758 2-6.93e-4 1.6569 1.3431 3 3 3s3-1.3431 3-3c5e-6 -0.73883-0.27261-1.4517-0.76562-2.002 0.49212-0.54927 0.76533-1.2606 0.76562-1.998 6.54e-4 -1.6569-1.3431-3-3-3zm-11 2.5v3.5h-2zm11-0.5c0.55228 0 1 0.44772 1 1s-0.44772 1-1 1-1-0.44772-1-1 0.44772-1 1-1zm0 4c0.55228 0 1 0.44772 1 1s-0.44772 1-1 1-1-0.44772-1-1 0.44772-1 1-1z" style="fill:#887344"/>
 <path d="m40.03 7.531c3.712 4.084 5.969 9.514 5.969 15.469 0 12.703-10.297 23-23 23-5.954 0-11.384-2.256-15.469-5.969 4.178 4.291 10.01 6.969 16.469 6.969 12.703 0 23-10.298 23-23 0-6.462-2.677-12.291-6.969-16.469z" style="opacity:.1"/>
</svg>
