<svg xmlns="http://www.w3.org/2000/svg" viewBox="0 0 48 48">
 <defs>
  <linearGradient id="linearGradient3764" x1="1" x2="47" gradientUnits="userSpaceOnUse" gradientTransform="matrix(0,-1,1,0,-1.5e-6,47.999998)">
   <stop style="stop-color:#ecc200;stop-opacity:1"/>
   <stop offset="1" style="stop-color:#ffd401;stop-opacity:1"/>
  </linearGradient>
 </defs>
 <g>
  <path d="m 36.31 5 c 5.859 4.062 9.688 10.831 9.688 18.5 c 0 12.426 -10.07 22.5 -22.5 22.5 c -7.669 0 -14.438 -3.828 -18.5 -9.688 c 1.037 1.822 2.306 3.499 3.781 4.969 c 4.085 3.712 9.514 5.969 15.469 5.969 c 12.703 0 23 -10.298 23 -23 c 0 -5.954 -2.256 -11.384 -5.969 -15.469 c -1.469 -1.475 -3.147 -2.744 -4.969 -3.781 z m 4.969 3.781 c 3.854 4.113 6.219 9.637 6.219 15.719 c 0 12.703 -10.297 23 -23 23 c -6.081 0 -11.606 -2.364 -15.719 -6.219 c 4.16 4.144 9.883 6.719 16.219 6.719 c 12.703 0 23 -10.298 23 -23 c 0 -6.335 -2.575 -12.06 -6.719 -16.219 z" style="opacity:0.05"/>
  <path d="m 41.28 8.781 c 3.712 4.085 5.969 9.514 5.969 15.469 c 0 12.703 -10.297 23 -23 23 c -5.954 0 -11.384 -2.256 -15.469 -5.969 c 4.113 3.854 9.637 6.219 15.719 6.219 c 12.703 0 23 -10.298 23 -23 c 0 -6.081 -2.364 -11.606 -6.219 -15.719 z" style="opacity:0.1"/>
  <path d="m 31.25 2.375 c 8.615 3.154 14.75 11.417 14.75 21.13 c 0 12.426 -10.07 22.5 -22.5 22.5 c -9.708 0 -17.971 -6.135 -21.12 -14.75 a 23 23 0 0 0 44.875 -7 a 23 23 0 0 0 -16 -21.875 z" style="opacity:0.2"/>
 </g>
 <g>
  <path d="m 24 1 c 12.703 0 23 10.297 23 23 c 0 12.703 -10.297 23 -23 23 -12.703 0 -23 -10.297 -23 -23 0 -12.703 10.297 -23 23 -23 z" style="fill:url(#linearGradient3764);fill-opacity:1"/>
 </g>
 <g>
  <g>
   <g transform="translate(1,1)">
    <g style="opacity:0.1">
     <!-- color: #ffd401 -->
     <g>
      <path d="m 11 11 0 26 26 0 0 -26" style="fill:#000;fill-opacity:1;stroke:none;fill-rule:nonzero"/>
     </g>
    </g>
   </g>
  </g>
 </g>
 <g>
  <g>
   <!-- color: #ffd401 -->
   <g>
    <path d="m 11 11 0 26 26 0 0 -26 m -25 1 24 0 0 24 -24 0 m 0 -24" style="fill:#b9b095;fill-opacity:1;stroke:none;fill-rule:nonzero"/>
    <path d="m 12 11.996 12 0 0 12 -12 0 m 0 -12" style="fill:#ececd4;fill-opacity:1;stroke:none;fill-rule:nonzero"/>
    <path d="m 24 11.996 12 0 0 12 -12 0 m 0 -12" style="fill:#e5d6ab;fill-opacity:1;stroke:none;fill-rule:nonzero"/>
    <path d="m 12 24 12 0 0 12 -12 0 m 0 -12" style="fill:#ffcf53;fill-opacity:1;stroke:none;fill-rule:nonzero"/>
    <path d="m 24 24 12 0 0 12 -12 0 m 0 -12" style="fill:#ffb95b;fill-opacity:1;stroke:none;fill-rule:nonzero"/>
    <path d="m 22 33 -1 0 0 2 -2 0 0 -2 -4 0 0 -2 3.5 -6 2.5 0 0 6 1 0 0 2 m -3 -2 0 -4 -2 4" style="fill:#957f4c;fill-opacity:1;stroke:none;fill-rule:nonzero"/>
    <path d="m 21,23 -6,0 0,-2 c 3.117,-3.117 4.891,-4.234 3.539,-5.582 C 17.91,14.789 17.203,15.305 16,16 l -1,-2 c 1.77,-1.172 3.695,-1.324 5,0 2.691,2.73 -1.125,5.367 -2.559,7 1.504,0 2.055,0 3.559,0" style="fill:#957f4c;fill-opacity:1;stroke:none;fill-rule:nonzero"/>
    <path d="m 30 25 c -1.656 0 -3 1.344 -3 3 0 0.773 0.52 1.469 1 2 -0.48 0.531 -1 1.227 -1 2 0 1.656 1.344 3 3 3 1.656 0 3 -1.344 3 -3 0 -0.773 -0.52 -1.469 -1 -2 0.48 -0.531 1 -1.227 1 -2 0 -1.656 -1.344 -3 -3 -3 m 0 2 c 0.551 0 1 0.449 1 1 0 0.551 -0.664 1 -1 1 -0.336 0 -1 -0.449 -1 -1 0 -0.551 0.449 -1 1 -1 m 0 4 c 0.367 0 1 0.449 1 1 0 0.551 -0.449 1 -1 1 -0.551 0 -1 -0.449 -1 -1 0 -0.551 0.633 -1 1 -1 m 0 0" style="fill:#957f4c;fill-opacity:1;stroke:none;fill-rule:nonzero"/>
   </g>
  </g>
 </g>
 <g>
  <path d="m 40.03 7.531 c 3.712 4.084 5.969 9.514 5.969 15.469 0 12.703 -10.297 23 -23 23 c -5.954 0 -11.384 -2.256 -15.469 -5.969 4.178 4.291 10.01 6.969 16.469 6.969 c 12.703 0 23 -10.298 23 -23 0 -6.462 -2.677 -12.291 -6.969 -16.469 z" style="opacity:0.1"/>
 </g>
</svg>
