<svg version="1.1" viewBox="0 0 48 48" xmlns="http://www.w3.org/2000/svg">
 <defs>
  <linearGradient id="bg" x2="0" y1="47" y2="1" gradientUnits="userSpaceOnUse">
   <stop style="stop-color:#98bce4" offset="0"/>
   <stop style="stop-color:#a8c6e8" offset="1"/>
  </linearGradient>
 </defs>
 <path d="m36.31 5c5.859 4.062 9.688 10.831 9.688 18.5 0 12.426-10.07 22.5-22.5 22.5-7.669 0-14.438-3.828-18.5-9.688 1.037 1.822 2.306 3.499 3.781 4.969 4.085 3.712 9.514 5.969 15.469 5.969 12.703 0 23-10.298 23-23 0-5.954-2.256-11.384-5.969-15.469-1.469-1.475-3.147-2.744-4.969-3.781zm4.969 3.781c3.854 4.113 6.219 9.637 6.219 15.719 0 12.703-10.297 23-23 23-6.081 0-11.606-2.364-15.719-6.219 4.16 4.144 9.883 6.719 16.219 6.719 12.703 0 23-10.298 23-23 0-6.335-2.575-12.06-6.719-16.219z" style="opacity:.05"/>
 <path d="m41.28 8.781c3.712 4.085 5.969 9.514 5.969 15.469 0 12.703-10.297 23-23 23-5.954 0-11.384-2.256-15.469-5.969 4.113 3.854 9.637 6.219 15.719 6.219 12.703 0 23-10.298 23-23 0-6.081-2.364-11.606-6.219-15.719z" style="opacity:.1"/>
 <path d="m31.25 2.375c8.615 3.154 14.75 11.417 14.75 21.13 0 12.426-10.07 22.5-22.5 22.5-9.708 0-17.971-6.135-21.12-14.75a23 23 0 0 0 44.875-7 23 23 0 0 0-16-21.875z" style="opacity:.2"/>
 <path d="m24 1c-2.27 0-4.462 0.334-6.533 0.947 1.534 1.053-1.25 2.02-3.205 1.215-7.833 3.667-13.262 11.617-13.262 20.838 0 7.505 3.595 14.169 9.156 18.367 5.844 2.633 21.844 2.633 29.684-1.699 2.366-2.249 4.253-4.995 5.494-8.07v-2e-3c0.234-1.595 0.667-3.594 1.23-4.15h2e-3c0.282-1.438 0.434-2.923 0.434-4.443 0-0.118-6e-3 -0.234-8e-3 -0.352h-2e-3c-0.992-0.649-0.556-1.182-0.154-2.348-0.185-1.577-0.527-3.105-1.014-4.568-1.826-0.738-7.823-7.734-11.1-13.08-3.203-1.692-6.85-2.654-10.725-2.654z" style="fill:url(#bg)"/>
 <path d="m17 2.9062-0.83984 0.25-0.96875 0.066406-0.59766 0.43359-0.77734-0.03125 0.0625 0.5 1.125-0.03125 0.40625 1.0938 0.15625 0.59766-0.625 0.34961-0.25 0.46484 0.1875 1.0625 0.75 0.125 0.71875-0.6875 0.625-0.65625 0.96875-0.25 1.2188-0.59375 0.72461-0.875 1.0254-1.2539 0.72461-0.18945-0.03125-0.27539h-1.125l-3.4688-0.095703zm9.9707 0.48047c-0.055 0.02-1.5312 0.019531-1.5312 0.019531l-0.375 0.10156 0.5 0.59766 0.53125-0.5 0.34375 0.21875 0.5-0.25s0.09025-0.2115 0.03125-0.1875zm6 0.46094-0.37891 0.00391-0.46484 0.0625-0.41016 0.25-0.46484 0.34961-0.28125 0.5 0.4375 0.4375 0.375 0.03125 0.15625-0.25391-0.375-0.31445 0.21875-0.1875 0.03125-0.15234 0.46875-0.3125s0.60934 8e-3 0.65234 0c0.047-0.012 0.19141-0.19141 0.19141-0.19141zm3.1055 0.57227-2e-3 0.00391-0.26562 0.17773-6.0488 1.541-0.625-0.31445-0.875-0.3125-0.875-0.15625-0.93945 0.19141-0.96875 0.77734-0.43945 0.43945-0.64844 0.71875-0.25781 0.03125-0.09375 0.34375 0.12109 0.34375s0.13725 0.15625 0.15625 0.15625c0.02 0 0.25391-0.125 0.25391-0.125s0.02325-0.11725 0.15625-0.15625c0.129-0.039 0.25-0.0625 0.25-0.0625l0.1875 0.375 0.22656 0.3125 0.05664 0.15039-0.45703 0.52539h-0.21875c0.0035-0.071224-0.10682-0.095245-0.16016-0.14258 0 0-0.06275 0.18366-0.09375 0.22266s-0.31641 0.125-0.31641 0.125l-0.43354-0.22266s-0.18025-0.037547-0.15625 0.064453c0.023 0.102 0.22461 0.19525 0.22461 0.28125 0 0.082-0.125 0.27344-0.125 0.27344l-0.15234 0.18945-0.25391 0.25391-0.34375 0.08984s-0.24641 0.06975-0.31641 0.09375c-0.063 0.023-0.25 0.06641-0.25 0.06641l-0.25391 0.0293-0.15234 0.22461 0.27734 0.18945 0.1875 0.31055s0.12525 0.22266 0.15625 0.22266 0.09375 0.2207 0.09375 0.2207l-0.1875 0.25h-0.09766l-0.65625 0.125-0.12109-0.28125-0.43945 0.4375-8.2012 12.09-0.8418-0.48438-0.27148-0.65625s-0.47341-0.80859-0.56641-0.80859c-0.09 0-0.65625 0.02734-0.65625 0.02734l-0.52734-0.52734-0.34766-0.65625-1.3438-0.28125-0.43359-0.21875h-0.875l-0.00195 0.0078-0.81445 0.44141-0.09375 0.89844-0.18945 1-0.5625 0.75 0.025391 1.1211 0.47461 1.1562 0.5 1.4062 1.3125 1.3125 0.064453 0.75 0.089844 3.3789 0.46875 1.9062s0.2907 1.1024 0.2207 1.1914c-0.066 0.086 0.37891 0.90039 0.37891 0.90039l0.875 1.375 1.2187 0.53125-0.5-0.59766-0.25391-0.68945 0.25391-0.71875-0.65625-0.3457s0.438-0.285 0.5-0.375c0.066-0.09-0.09375-0.46875-0.09375-0.46875l-0.18945-0.46875 0.5-0.65234 0.78125-0.18945 0.12109-0.59961-0.46484-0.21875 0.1875-0.5 0.75-0.08984 0.65625-1.5977 0.40234-0.94141c0.284 2.152 1.4143 6.4277 5.9043 6.4277h12c6 0 6-7.6367 6-7.6367v-10.91c0-0.37-0.03103-0.71025-0.08203-1.0312l0.04687 0.04297 0.4082 0.56445 0.12109 0.27734h0.28125l0.09375-0.3125 0.0918 0.4668 0.1543 0.8457 0.3457 0.8125 0.1875 0.68945 0.28125 0.65234 0.21875 0.27734 0.31445-0.1875 0.08984-0.31445 0.125-0.77539-0.03125-0.6875 0.25-0.31641s0.26745-0.359 0.31445-0.375c0.051-0.012 0.625-0.64844 0.625-0.64844l0.2793-0.35156 0.31445-0.1875 0.38281-0.21875h0.14453l0.06641 0.34375 0.15625 0.40625 0.5 0.65039v0.25l0.08984 0.28125 0.34375-0.15625-0.03125-0.375 0.31641 0.06641 0.06445 0.34375-0.02734 0.53125 0.09375 0.375 0.27734 0.0625 0.09375-0.3125 0.34375 0.21875 0.06445 0.31641 0.3125 0.46875 0.31445 0.34375 0.21875 0.19141 0.53125-0.4707 0.21875-0.43945-0.08984-0.5-0.09375-0.65625-0.59766-0.5625-0.09375-0.56641 0.25391-0.39648s0.1595-0.32025 0.3125-0.15625c0.152 0.168 0.22334 0.188 0.15234 0.375-0.066 0.184-0.1875 0.59766-0.1875 0.59766l0.375 0.15625 0.15625-0.53125-0.15625-0.37891 0.2793-0.11523c-1.534-5.725-5.2187-10.566-10.139-13.607zm-24.332 0.45312c-0.1348 0.087924-0.4707 0.064453-0.4707 0.064453l-0.05859-0.060547c-0.175 0.117-0.34753 0.23933-0.51953 0.36133l0.14844 0.32617 0.56445-0.0625 0.25 0.46875-0.5 0.53125-0.5625 0.0625 0.5 0.22266 0.53125 0.4668 0.52344 0.125 0.19141-0.7207 0.03125-0.4375 0.625 0.09375s-0.19261 0.31445-0.09961 0.31445c0.102 0 0.47461-0.40625 0.47461-0.40625l-1.0664-1.0996s-0.43018-0.33734-0.55859-0.25zm-1.2168 0.79688-0.4375 0.5-0.2793-0.26953c-0.419 0.329-0.82766 0.66939-1.2227 1.0254 0.361 0.099 0.79695 0.27184 0.87695 0.21484 0.129-0.094 0.625-0.875 0.625-0.875zm9.0996 0.71484-0.125 0.4043c0.449 0.348 0.625 0.3457 0.625 0.3457l0.52734-0.125 0.34766-0.3457-0.22266-0.2793zm7.2344 0.066406 0.25 0.18945v0.125l-0.21875 0.25-0.06641 0.25-0.59961 0.68945c-9.9e-5 -7.314e-4 0.0022-0.00332 2e-3 -0.00391-8e-3 -0.02-0.19141-0.21875-0.19141-0.21875l-0.14844-0.0625 0.0625-0.31641s0.12109-0.05075 0.12109-0.09375c0-0.039 0.19141-0.18945 0.19141-0.18945l0.22266-0.27344 0.15625-0.18945zm-16.109 0.71875s-0.42975 0.2483-0.84375 0.4043-0.3125 0.4707-0.3125 0.4707l-0.03125 0.84375-0.6875 0.5625-0.43945 0.65625s-0.27539-0.1875-0.27539-0.3125-0.064453-0.46875-0.064453-0.46875l-0.7207-0.5625s-0.17766-0.1392-0.34766-0.2832c-2.08 2.274-3.7042 4.9704-4.7402 7.9414l0.5293-0.36914 0.56445-0.19141h0.81055l1.1211-0.25 0.41016 0.53125-0.066406 0.625 0.46875 0.40625 0.066406-0.44141s-0.03075-0.71925-0.09375-0.90625c-0.063-0.188 0.5625-0.625 0.5625-0.625l0.5-0.61328 0.5957-0.72656 0.2793-0.5625 0.94141-0.49609 0.62109-0.69141s0.938-0.14791 1.125-0.25391c0.191-0.09 0.066-0.434-0.125-0.75-0.191-0.313 0.09375-0.625 0.09375-0.625l0.71875-0.43359 0.62109 0.12109 0.06641 0.75391s0.58634 0.56284 0.77734 0.46484c0.191-0.09 0.27734-0.40625 0.27734-0.40625l-0.3125-0.8125 0.1875-0.8125-0.84375 0.12109v-1.375l-0.25 0.25391-0.65625 0.03125-0.09375-0.68945zm11.652 0.99414-0.25 0.2207c-0.063 0.305-0.15234 0.62109-0.15234 0.62109l0.47266 0.22266 0.06445 0.27734-0.25586 0.25391-0.21875 0.375 0.15625 0.1543 0.5625-0.09375 0.5-0.21875-0.27539-0.375-0.09375-0.65625-0.3457-0.375zm-0.76953 1.1855-0.28125 0.46875 0.375 0.15625 0.15625-0.28125zm-15.445 1.0918 0.00391 0.0059 0.65625 0.27734 0.4375 0.56445 0.27539 0.43555s-0.24645 0.844-0.31445 1c-0.066 0.156-0.25781-0.31445-0.25781-0.31445l-0.14648-0.8125-0.53125 0.22461-0.40625 0.9668 0.091797-0.8125 0.125-0.56445-0.6543-0.25 0.5625-0.5293zm26.383 0.75586c0.133-0.043 0.375 0.1543 0.375 0.1543l-0.25391 0.2207 0.0957 0.31445 0.2793 0.75 0.27734 0.46875 0.25977 0.4082c-0.326-0.124-0.62974-0.2112-0.92774-0.2832l-0.11328-0.33984s-0.29945-0.40575-0.43945-0.46875c-0.133-0.066-0.25-0.28125-0.25-0.28125l0.125-0.53125s0.42845-0.35925 0.56445-0.40625zm-2.9844 0.07226h0.65625l-0.21875 0.375 0.4375 0.375 0.375 0.18945 0.21875 0.4375-0.5 0.12109-0.71875-0.15625h-0.625c-0.29 0.21-0.68841 0.2628-1.0664 0.2168 0.043-0.151 0.02541-0.37648 0.06641-0.39648l0.25-0.46875 0.1543-0.69141 0.56445 0.0957 0.09375 0.31445 0.21875 0.15625 0.25-0.22266zm-4.0371 0.28516 0.75 0.75 0.37891 0.43945c0.043 0.594-0.43095 0.02434-0.50195 0.02734l-1.0664-1 0.0957-0.1875zm-0.87891 0.28516c1.138 1.18 0.74709 1.5329-0.0039 0.54492-0.556 0.739-2.3695 1.2538-1.1855-0.20117l0.96875-0.15625zm-22.555 5.0859c-0.267 0.827-0.48911 1.6741-0.66211 2.5391l0.43164 0.23828 0.5-0.06445 0.71875 0.34375 1.0938 0.59961 0.15625 0.72461 0.875 0.83984 0.5-0.375 0.40625 0.31641-0.0625-0.72656-0.78125 0.19141-0.25-0.90625-0.09375-0.41016-0.69141-0.62109v-0.4375l0.53125-0.56641-0.34375-0.39844-0.5625 0.08984-0.84766 0.84375-0.6875-0.08984s-0.313-0.53125-0.375-0.65625c-0.063-0.125 0.1875-0.5625 0.1875-0.5625zm3.3262 0.86133v0.0059l-0.31445 0.1543 0.52734 0.2793 0.60352 0.12109 0.34375 0.46875 0.40625-0.25-0.066406-0.2793-0.6875-0.5zm38.119 3.5859c0.113 0.129 0.81616 2.2207 0.91016 2.2207 0.086 0 0.62109 0.06445 0.62109 0.06445l-0.28125-0.8457zm-3.5898 0.06445-0.31445 0.40625 0.15625 0.59766 0.34375-0.375-0.0625-0.47266zm3.5039 1.1562-0.43945 0.06445 2 3 0.53125 0.59375 1.3125 0.06445 0.0098 0.0039c0.01-0.102 0.01348-0.20464 0.02148-0.30664l-0.09375-0.06641-1.25-0.34961-0.3125-1.1504-0.68945-0.56641-1.0938-1.2812zm3.4961 0.16992-0.375 0.20703c0 0.09-0.71875 0.6875-0.71875 0.6875l0.1875 0.625 0.40625 0.46875 0.28125 0.6875 0.21289-0.13867c0.024-0.433 0.03906-0.86764 0.03906-1.3066 0-0.413-0.0122-0.82347-0.0332-1.2305zm-34.467 14.166 2e-3 0.0039 0.0039-0.0039zm2e-3 0.0039-0.2168 0.14844-0.09375 0.0293 0.5 0.25zm-0.84961 0.17969 2e-3 0.0039 2e-3 -0.0039zm2e-3 0.0039-0.2168 0.49609 0.43359-0.09375zm1.502 4.1211-0.46875 0.71875 1.5957 1.4746 0.03125-0.06445s-0.65625-1.32-0.65625-1.5c0-0.176-0.5-0.62109-0.5-0.62109z" style="opacity:.1"/>
 <path d="m17.467 1.947c-1.176 0.348-2.315 0.782-3.404 1.305l0.348 0.936 0.156 0.598-0.625 0.346-0.25 0.465 0.188 1.063 0.75 0.125 0.719-0.688 0.625-0.656 0.969-0.25 1.219-0.594 0.721-0.875 1.029-1.254 0.721-0.189-0.031-0.275h-1.125l-2.01-0.055zm8.502 0.439c-0.055 0.02-1.531 0.023-1.531 0.023l-0.375 0.098 0.5 0.598 0.531-0.5 0.344 0.219 0.5-0.25s0.09-0.211 0.031-0.188zm6 0.461-0.379 4e-3 -0.465 0.063-0.41 0.25-0.465 0.35-0.281 0.5 0.438 0.438 0.375 0.031 0.156-0.254-0.375-0.314 0.219-0.188 0.031-0.152 0.469-0.313s0.609 8e-3 0.652 0c0.047-0.012 0.191-0.191 0.191-0.191l-0.156-0.223zm2.752 0.807-0.535 0.322-0.531 0.438 0.064 0.189-0.281 0.031v4e-3h-2e-3l-8e-3 -0.178-0.314-0.438-0.654-0.063s0.154 0.664 0.154 0.75c0 0.082-0.434 0.025-0.434 0.025l-0.75 0.035s-1.086 0.25-1.223 0.25c-0.128 0-0.786 0.272-0.842 0.295l-0.01 2e-3 0.018-0.014-1.219 0.656-0.313-0.223-0.152-0.25 0.063-0.254 0.691 0.035 0.313-0.125-0.625-0.314-0.875-0.314-0.875-0.156-0.938 0.191-0.969 0.779-0.439 0.439-0.65 0.719-0.258 0.031-0.092 0.344 0.121 0.344s0.137 0.156 0.156 0.156c0.02 0 0.254-0.125 0.254-0.125s0.023-0.117 0.156-0.156c0.129-0.039 0.25-0.063 0.25-0.063l0.188 0.375 0.225 0.313 0.094 0.25s0.363-0.223 0.375-0.25c0.012-0.031 0.031-0.41 0.031-0.41l0.275-0.188s0.074-0.133 0.066-0.156c-8e-3 -0.02-0.191-0.219-0.191-0.219l-0.15-0.063 0.063-0.316s0.121-0.051 0.121-0.094c0-0.039 0.191-0.189 0.191-0.189l0.223-0.275 0.156-0.189 0.219-0.156 0.25 0.189v0.125l-0.219 0.25-0.066 0.25v0.344l0.191 0.156 0.344-0.031 0.313-0.063 0.277 0.154-0.063 0.221s-0.195 0.188-0.258 0.219c-0.055 0.031-0.406-0.063-0.492-0.031-0.094 0.031-0.316 0.316-0.316 0.316s-0.027 0.249 0 0.313c8e-3 0.022-4e-3 0.068-0.016 0.123l-0.029 0.023-0.375 0.279h-0.031l-0.254-0.094s-0.152 8e-3 -0.219 0.066c-0.063 0.051-0.12 0.102-0.313 0.121-0.191 0.02-0.565 0-0.596 0h-0.219l0.031-0.227 0.156-0.25-0.281-0.223s-0.188 0.23-0.191 0.281c-8e-3 0.055 0.125 0.279 0.125 0.279s-0.063 0.182-0.094 0.221-0.316 0.125-0.316 0.125l-0.434-0.221s-0.18-0.038-0.156 0.064c0.023 0.102 0.225 0.195 0.225 0.281 0 0.082-0.125 0.275-0.125 0.275l-0.152 0.189-0.254 0.254-0.344 0.09s-0.246 0.07-0.316 0.094c-0.063 0.023-0.25 0.066-0.25 0.066l-0.254 0.031-0.152 0.223 0.277 0.191 0.188 0.309s0.125 0.223 0.156 0.223 0.094 0.219 0.094 0.219l-0.188 0.25h-0.098l-0.656 0.125-0.121-0.281-0.439 0.438-0.188 0.721v0.598c0.592 0.479 0.734 0.292 1.348 0.186l0.594-1.064 0.531-0.652 0.969-0.156 0.221-0.188 1.094 1.281 0.125 0.438 0.316-0.156-0.1-0.375h0.191l-0.121-0.254-1.066-1 0.096-0.188 0.344-0.031 0.75 0.75 0.379 0.441v0.688l0.188 0.125c1.027 0.78 0.154-0.088 0.5-0.285l0.094-0.344 0.188-0.219 0.439 0.156 0.154 0.063-0.029-0.5 0.25-0.469 0.154-0.689 0.564 0.096 0.094 0.313 0.219 0.156 0.25-0.219-0.156-0.346h0.656l-0.219 0.375 0.438 0.375 0.375 0.189 0.219 0.438-0.5 0.121-0.719-0.156h-0.625l-0.594 0.316-0.125 0.188-0.434 0.094 0.188 0.469 0.344 0.406 0.621-0.219c0.059 0.516 0.275 0.037 0.438 0.059l0.375 0.063c0.84 2.398 4.452 2.977 6.402 2.928l-0.031 0.035 0.564 0.5 0.408 0.563 0.121 0.277h0.281l0.094-0.311 0.092 0.467 0.154 0.844 0.346 0.813 0.188 0.688 0.281 0.656 0.219 0.277 0.313-0.188 0.09-0.314 0.125-0.775-0.031-0.689 0.25-0.316s0.265-0.359 0.313-0.375c0.051-0.012 0.625-0.65 0.625-0.65l0.281-0.35 0.314-0.188 0.383-0.219h0.145l0.066 0.344 0.156 0.406 0.5 0.652v0.25l0.09 0.281 0.344-0.156-0.031-0.375 0.316 0.066 0.063 0.344-0.027 0.531 0.094 0.375 0.277 0.064 0.094-0.314 0.344 0.219 0.064 0.316 0.313 0.469 0.313 0.344 0.219 0.191 0.531-0.469 0.219-0.441-0.09-0.5-0.094-0.656-0.594-0.563-0.094-0.566 0.254-0.398s0.156-0.32 0.309-0.156c0.152 0.168 0.227 0.188 0.156 0.375-0.066 0.184-0.188 0.598-0.188 0.598l0.375 0.156 0.156-0.531-0.156-0.379 0.379-0.156 0.512-0.256c-1.882-5.658-5.9-10.337-11.1-13.08zm-23 0.898c-0.593 0.375-1.168 0.775-1.723 1.201l0.104 0.047 0.531 0.465 0.527 0.125 0.191-0.719 0.031-0.438 0.625 0.094s-0.193 0.313-0.1 0.313c0.102 0 0.475-0.406 0.475-0.406l-0.662-0.682zm6.906 0.846-0.125 0.406c0.449 0.348 0.625 0.344 0.625 0.344l0.527-0.125 0.348-0.344-0.223-0.281h-1.152zm-8.871 0.773s-0.33 0.183-0.684 0.334c-0.159 0.136-0.318 0.27-0.473 0.41-4e-3 0.062 0 0.131 0 0.131l-0.031 0.844-0.688 0.563-0.439 0.656s-0.275-0.188-0.275-0.313c0-0.108-0.043-0.335-0.057-0.406-0.421 0.455-0.823 0.928-1.207 1.416l0.387 0.498 0.275 0.434s-0.246 0.844-0.313 1c-0.066 0.156-0.258-0.313-0.258-0.313l-0.148-0.814-0.531 0.225-0.406 0.965 0.086-0.76c-0.818 1.197-1.524 2.475-2.107 3.82h0.309l1.121-0.25 0.41 0.531-0.066 0.625 0.469 0.406 0.066-0.441s-0.031-0.719-0.094-0.906c-0.063-0.188 0.563-0.625 0.563-0.625l0.5-0.613 0.594-0.727 0.281-0.563 0.941-0.496 0.621-0.691s0.938-0.148 1.125-0.254c0.191-0.09 0.066-0.434-0.125-0.75-0.191-0.313 0.094-0.625 0.094-0.625l0.719-0.434 0.621 0.121 0.066 0.754s0.586 0.563 0.777 0.465c0.191-0.09 0.279-0.406 0.279-0.406l-0.313-0.813 0.188-0.811-0.844 0.121v-1.375l-0.25 0.254-0.656 0.031-0.094-0.688-0.434-0.531zm11.648 1.01-0.25 0.219c-0.063 0.305-0.152 0.621-0.152 0.621l0.473 0.223 0.064 0.277-0.256 0.254-0.219 0.375 0.156 0.156 0.563-0.094 0.5-0.219-0.275-0.375-0.094-0.656-0.346-0.375-0.164-0.406zm-0.77 1.184-0.281 0.469 0.375 0.156 0.156-0.281-0.25-0.344zm10.938 1.848c0.133-0.043 0.375 0.154 0.375 0.154l-0.254 0.221 0.096 0.313 0.279 0.75 0.277 0.469 0.379 0.594-0.41 0.191-0.531-0.344-0.219-0.656s-0.299-0.406-0.439-0.469c-0.133-0.066-0.25-0.281-0.25-0.281l0.125-0.531s0.428-0.359 0.564-0.406l8e-3 -4e-3zm-7.904 1.188-0.375 0.719 0.275 0.281 0.254-0.223 0.031-0.309-0.186-0.469zm-19.225 5.404v4e-3l-0.313 0.156 0.527 0.279 0.602 0.121 0.344 0.469 0.406-0.25-0.066-0.279-0.688-0.5h-0.813zm-0.998 0.41-0.563 0.09-0.844 0.844-0.277-0.037c-0.056 0.211-0.106 0.424-0.156 0.637l0.5 0.238 1.094 0.598 0.156 0.725 0.875 0.84 0.5-0.375 0.406 0.316-0.063-0.725-0.781 0.191-0.25-0.906-0.094-0.41-0.691-0.621v-0.438l0.531-0.566-0.344-0.4zm2.684 2.68-2e-3 8e-3 -0.813 0.441-0.094 0.9-0.189 1-0.563 0.75 0.027 1.121 0.473 1.156 0.5 1.406 1.313 1.313 0.064 0.75 0.09 3.379 0.469 1.906s0.289 1.102 0.219 1.191c-0.066 0.086 0.379 0.902 0.379 0.902l0.875 1.375 1.219 0.531-0.5-0.598-0.254-0.689 0.254-0.719-0.656-0.344s0.438-0.285 0.5-0.375c0.066-0.09-0.094-0.469-0.094-0.469l-0.188-0.469 0.5-0.652 0.781-0.191 0.121-0.598-0.465-0.219 0.188-0.5 0.75-0.09 0.656-1.598 0.469-1.094c1.462-0.858 3.521-5.873 0.346-5.625l-1.35-0.781-0.275-0.656s-0.473-0.809-0.566-0.809c-0.09 0-0.656 0.029-0.656 0.029l-0.527-0.529-0.348-0.656-1.344-0.281-0.434-0.219h-0.875zm36.434 0.496c0.113 0.129 0.816 2.219 0.91 2.219 0.086 0 0.621 0.066 0.621 0.066l-0.281-0.846-1.25-1.439zm-3.59 0.064-0.314 0.406 0.156 0.598 0.344-0.375-0.064-0.473-0.121-0.156zm7.859 0.848-1.238 0.686c0 0.09-0.719 0.688-0.719 0.688l0.188 0.625 0.406 0.465 0.281 0.691 1.238-0.807c-0.012-0.793-0.066-1.576-0.156-2.348zm-4.359 0.309-0.439 0.064 2 3 0.531 0.594 1.311 0.064 0.813 0.256-0.875-0.625-1.25-0.35-0.313-1.15-0.689-0.566-1.094-1.281 6e-3 -6e-3zm4.088 6.834c-0.107 0.028-0.181 0.056-0.188 0.078-0.02 0.086-0.563 0.375-0.563 0.375-0.113 0-0.469 0.656-0.469 0.656l-0.066 2.063-0.125 0.75 0.18 0.23c0.535-1.327 0.951-2.716 1.232-4.152h-2e-3zm-35.07 7.51 2e-3 4e-3 4e-3 -4e-3h-6e-3zm2e-3 4e-3 -0.217 0.148-0.094 0.031 0.5 0.25-0.189-0.43zm-0.85 0.18 2e-3 4e-3 2e-3 -4e-3h-4e-3zm2e-3 4e-3 -0.217 0.496 0.434-0.094-0.217-0.402zm1.502 4.121-0.469 0.719-0.875 0.406 0.5 0.625-0.754 0.375-0.398-0.02c3.852 2.908 8.646 4.633 13.844 4.633 6.141 0 11.715-2.411 15.84-6.332l-2.627 0.1-3.064 0.621s-1.477 0.793-1.656 0.754c-0.18-0.043 0.625-1.031 0.625-1.031l-1.438 0.094-0.906-0.75-0.906 0.617s-1.213 0.098-1.525 0.098c-0.316 0-0.725 0.563-0.725 0.563l-2.469-0.09-4.25 0.188-1.121 0.967-0.275 0.033-3.225-0.223-2.219 0.223-0.777-0.379 0.031-0.063s-0.656-1.32-0.656-1.5c0-0.176-0.5-0.621-0.5-0.621l-4e-3 -6e-3z" style="fill:#3875ae"/>
 <path d="m35.432 15.93-0.031 0.035 0.564 0.5 0.408 0.563 0.121 0.277h0.281l0.066-0.217c-0.915-4.073-5.842-4.088-5.842-4.088 0.963 2 0.682 3 4.432 2.93z" style="fill-opacity:.098"/>
 <path d="m40.03 7.531c3.712 4.084 5.969 9.514 5.969 15.469 0 12.703-10.297 23-23 23-5.954 0-11.384-2.256-15.469-5.969 4.178 4.291 10.01 6.969 16.469 6.969 12.703 0 23-10.298 23-23 0-6.462-2.677-12.291-6.969-16.469z" style="opacity:.1"/>
 <path d="m12 28.363s0 6.637 6 6.637h12c6 0 6-6.637 6-6.637v-10.91c0-5.453-6-5.453-6-5.453h-12c-6 0-6 5.453-6 5.453" style="fill:#f6f6f6"/>
 <path d="m30 36c6 0 6-7.637 6-7.637s0 5.637-6 5.637h-12c-6 0-6-5.637-6-5.637s0 7.637 6 7.637" style="fill:#dcdcdc"/>
 <path d="m20.072 18-4.0742 10h1.2129l1.2695-2.957h4.1328l1.2852 2.957h1.2422l-4.0547-10h-1.0137zm0.49023 1.5 1.6797 4.5117h-3.3359l1.6562-4.5117zm8.7207 0.87891c-0.457 0-0.91019 0.054969-1.3672 0.16797-0.445 0.113-0.859 0.26584-1.25 0.46484l0.35938 0.85156c0.82-0.375 1.5434-0.5625 2.1914-0.5625 0.57 0 0.98409 0.13706 1.2461 0.41406s0.39453 0.69934 0.39453 1.2773v0.45703l-1.3125 0.042969c-2.496 0.07-3.7461 0.85194-3.7461 2.3359 0 0.695 0.21648 1.2305 0.64648 1.6055 0.438 0.378 1.0406 0.56445 1.8066 0.56445 0.575 0 1.0506-0.080234 1.4336-0.24024 0.386-0.164 0.76925-0.48041 1.1562-0.94141h0.054687l0.23438 1.0508 0.007813 0.001953h0.85938v-5.0293c0-0.863-0.22297-1.488-0.66797-1.875-0.442-0.391-1.1249-0.58594-2.0469-0.58594zm1.5469 3.8652v0.66797c0 0.684-0.207 1.2206-0.625 1.5996-0.414 0.382-0.98484 0.56836-1.7148 0.56836-0.461 0-0.82012-0.10345-1.0781-0.31445-0.254-0.207-0.38281-0.51597-0.38281-0.91797 0-0.516 0.20728-0.89472 0.61328-1.1367 0.418-0.246 1.0855-0.38697 2.0195-0.41797l1.168-0.048828z" style="fill:#868686"/>
</svg>
