<svg xmlns="http://www.w3.org/2000/svg" viewBox="0 0 48 48">
 <defs>
  <linearGradient id="linearGradient3764" x1="1" x2="47" gradientUnits="userSpaceOnUse" gradientTransform="matrix(0,-1,1,0,-1.5e-6,47.999998)">
   <stop style="stop-color:#d62e2e;stop-opacity:1"/>
   <stop offset="1" style="stop-color:#d93f3f;stop-opacity:1"/>
  </linearGradient>
 </defs>
 <g>
  <path d="m 36.31 5 c 5.859 4.062 9.688 10.831 9.688 18.5 c 0 12.426 -10.07 22.5 -22.5 22.5 c -7.669 0 -14.438 -3.828 -18.5 -9.688 c 1.037 1.822 2.306 3.499 3.781 4.969 c 4.085 3.712 9.514 5.969 15.469 5.969 c 12.703 0 23 -10.298 23 -23 c 0 -5.954 -2.256 -11.384 -5.969 -15.469 c -1.469 -1.475 -3.147 -2.744 -4.969 -3.781 z m 4.969 3.781 c 3.854 4.113 6.219 9.637 6.219 15.719 c 0 12.703 -10.297 23 -23 23 c -6.081 0 -11.606 -2.364 -15.719 -6.219 c 4.16 4.144 9.883 6.719 16.219 6.719 c 12.703 0 23 -10.298 23 -23 c 0 -6.335 -2.575 -12.06 -6.719 -16.219 z" style="opacity:0.05"/>
  <path d="m 41.28 8.781 c 3.712 4.085 5.969 9.514 5.969 15.469 c 0 12.703 -10.297 23 -23 23 c -5.954 0 -11.384 -2.256 -15.469 -5.969 c 4.113 3.854 9.637 6.219 15.719 6.219 c 12.703 0 23 -10.298 23 -23 c 0 -6.081 -2.364 -11.606 -6.219 -15.719 z" style="opacity:0.1"/>
  <path d="m 31.25 2.375 c 8.615 3.154 14.75 11.417 14.75 21.13 c 0 12.426 -10.07 22.5 -22.5 22.5 c -9.708 0 -17.971 -6.135 -21.12 -14.75 a 23 23 0 0 0 44.875 -7 a 23 23 0 0 0 -16 -21.875 z" style="opacity:0.2"/>
 </g>
 <g>
  <path d="m 24 1 c 12.703 0 23 10.297 23 23 c 0 12.703 -10.297 23 -23 23 -12.703 0 -23 -10.297 -23 -23 0 -12.703 10.297 -23 23 -23 z" style="fill:url(#linearGradient3764);fill-opacity:1"/>
 </g>
 <g>
  <g>
   <g transform="translate(1,1)">
    <g style="opacity:0.1">
     <!-- color: #d93f3f -->
     <g>
      <path d="m 19 13 c -6 0 -6 5.453 -6 5.453 l 0 10.91 c 0 0 0 7.637 6 7.637 l 12 0 c 6 0 6 -7.637 6 -7.637 l 0 -10.91 c 0 -5.453 -6 -5.453 -6 -5.453 l -12 0 z" transform="translate(-1,-1)" style="fill:#000;fill-opacity:1;stroke:none;fill-rule:nonzero"/>
     </g>
    </g>
   </g>
  </g>
 </g>
 <g>
  <g>
   <!-- color: #d93f3f -->
   <g>
    <path d="m 12,28.363 c 0,0 0,5.653 6,5.653 l 12,0 c 6,0 6,-5.653 6,-5.653 l 0,-10.91 C 36,12 30,12 30,12 l -12,0 c -6,0 -6,5.453 -6,5.453" style="fill:#f9f9f9;fill-opacity:1;stroke:none;fill-rule:nonzero"/>
    <path d="m 30 36 c 6 0 6 -7.637 6 -7.637 0 0 0 5.453 -6 5.453 l -12 0 c -6 0 -6 -5.453 -6 -5.453 0 0 0 7.637 6 7.637 m 12 0" style="fill:#dcdcdc;fill-opacity:1;stroke:none;fill-rule:nonzero"/>
    <path d="m 23.898 27.867 -1.285 -3.125 -4.133 0 -1.27 3.125 -1.211 0 4.074 -9.867 1.012 0 4.055 9.867 -1.242 0 m -1.656 -4.156 -1.199 -3.043 c -0.156 -0.387 -0.316 -0.859 -0.48 -1.418 -0.105 0.43 -0.25 0.902 -0.445 1.418 l -1.211 3.043 3.336 0" style="fill:#868686;fill-opacity:1;stroke:none;fill-rule:nonzero"/>
    <path d="m 31.13 27.867 -0.234 -1.051 -0.055 0 c -0.387 0.461 -0.77 0.777 -1.156 0.941 -0.383 0.16 -0.859 0.242 -1.434 0.242 -0.766 0 -1.367 -0.188 -1.805 -0.566 -0.43 -0.375 -0.648 -0.91 -0.648 -1.605 0 -1.484 1.25 -2.266 3.746 -2.336 l 1.313 -0.043 0 -0.457 c 0 -0.578 -0.133 -1 -0.395 -1.277 -0.262 -0.277 -0.676 -0.414 -1.246 -0.414 -0.648 0 -1.371 0.188 -2.191 0.563 l -0.359 -0.852 c 0.391 -0.199 0.805 -0.352 1.25 -0.465 0.457 -0.113 0.91 -0.168 1.367 -0.168 0.922 0 1.605 0.195 2.047 0.586 0.445 0.387 0.668 1.012 0.668 1.875 l 0 5.03 -0.859 0 m -2.648 -0.789 c 0.73 0 1.301 -0.188 1.715 -0.57 0.418 -0.379 0.625 -0.914 0.625 -1.598 l 0 -0.668 -1.168 0.047 c -0.934 0.031 -1.602 0.172 -2.02 0.418 -0.406 0.242 -0.613 0.621 -0.613 1.137 0 0.402 0.129 0.711 0.383 0.918 0.258 0.211 0.617 0.316 1.078 0.316" style="fill:#868686;fill-opacity:1;stroke:none;fill-rule:nonzero"/>
   </g>
  </g>
 </g>
 <g>
  <path d="m 40.03 7.531 c 3.712 4.084 5.969 9.514 5.969 15.469 0 12.703 -10.297 23 -23 23 c -5.954 0 -11.384 -2.256 -15.469 -5.969 4.178 4.291 10.01 6.969 16.469 6.969 c 12.703 0 23 -10.298 23 -23 0 -6.462 -2.677 -12.291 -6.969 -16.469 z" style="opacity:0.1"/>
 </g>
</svg>
