<svg version="1.1" viewBox="0 0 48 48" xmlns="http://www.w3.org/2000/svg" xmlns:xlink="http://www.w3.org/1999/xlink">
 <defs>
  <linearGradient id="bg" x2="0" y1="1" y2="47" gradientUnits="userSpaceOnUse">
   <stop style="stop-color:#fd8377" offset="0"/>
   <stop style="stop-color:#fd7163" offset="1"/>
  </linearGradient>
  <radialGradient id="radial1" cx="6" cy="17.292" r="1" gradientTransform="translate(18 8.708)" gradientUnits="userSpaceOnUse" xlink:href="#radial0"/>
  <radialGradient id="radial0" cx="6.773" cy="5.927" r=".564" gradientTransform="matrix(3.5433 0 0 3.5433 1.4764e-7 .00037758)" gradientUnits="userSpaceOnUse">
   <stop style="stop-color:#8eb0c7" offset="0"/>
   <stop style="stop-color:#8eb0c7;stop-opacity:0" offset="1"/>
  </radialGradient>
  <radialGradient id="radialGradient3427" cx="6.773" cy="5.927" r=".564" gradientTransform="matrix(3.5433 0 0 3.5433 1e-7 .0003776)" gradientUnits="userSpaceOnUse" xlink:href="#radial0"/>
 </defs>
 <path d="m36.31 5c5.859 4.062 9.688 10.831 9.688 18.5 0 12.426-10.07 22.5-22.5 22.5-7.669 0-14.438-3.828-18.5-9.688 1.037 1.822 2.306 3.499 3.781 4.969 4.085 3.712 9.514 5.969 15.469 5.969 12.703 0 23-10.298 23-23 0-5.954-2.256-11.384-5.969-15.469-1.469-1.475-3.147-2.744-4.969-3.781zm4.969 3.781c3.854 4.113 6.219 9.637 6.219 15.719 0 12.703-10.297 23-23 23-6.081 0-11.606-2.364-15.719-6.219 4.16 4.144 9.883 6.719 16.219 6.719 12.703 0 23-10.298 23-23 0-6.335-2.575-12.06-6.719-16.219z" style="opacity:.05"/>
 <path d="m41.28 8.781c3.712 4.085 5.969 9.514 5.969 15.469 0 12.703-10.297 23-23 23-5.954 0-11.384-2.256-15.469-5.969 4.113 3.854 9.637 6.219 15.719 6.219 12.703 0 23-10.298 23-23 0-6.081-2.364-11.606-6.219-15.719z" style="opacity:.1"/>
 <path d="m31.25 2.375c8.615 3.154 14.75 11.417 14.75 21.13 0 12.426-10.07 22.5-22.5 22.5-9.708 0-17.971-6.135-21.12-14.75a23 23 0 0 0 44.875-7 23 23 0 0 0-16-21.875z" style="opacity:.2"/>
 <circle cx="24" cy="24" r="23" style="fill:url(#bg)"/>
 <path d="m40.03 7.531c3.712 4.084 5.969 9.514 5.969 15.469 0 12.703-10.297 23-23 23-5.954 0-11.384-2.256-15.469-5.969 4.178 4.291 10.01 6.969 16.469 6.969 12.703 0 23-10.298 23-23 0-6.462-2.677-12.291-6.969-16.469z" style="opacity:.1"/>
 <path d="m13 9c-1.105 0-2 0.895-2 2s0.895 2 2 2 2-0.895 2-2-0.895-2-2-2zm12 2c-7.73 0-14 6.27-14 14s6.27 14 14 14 14-6.27 14-14-6.27-14-14-14z" style="opacity:.1"/>
 <path d="m14 10c0 1.105-0.895 2-2 2s-2-0.895-2-2 0.895-2 2-2 2 0.895 2 2" style="fill:#ffec70"/>
 <path d="m38 24c0 7.73-6.27 14-14 14s-14-6.27-14-14 6.27-14 14-14 14 6.27 14 14" style="fill:#f9f9f9"/>
 <path d="m35 24c0 6.074-4.926 11-11 11s-11-4.926-11-11 4.926-11 11-11 11 4.926 11 11" style="fill:#355362"/>
 <path d="m24 16c-4.418 0-8 3.582-8 8s3.582 8 8 8 8-3.582 8-8-3.582-8-8-8zm0 2c3.313 0 6 2.688 6 6 0 3.313-2.688 6-6 6-3.313 0-6-2.688-6-6 0-3.313 2.688-6 6-6z" style="fill:#53697f"/>
 <path d="m26 21c0 1.105-0.895 2-2 2s-2-0.895-2-2 0.895-2 2-2 2 0.895 2 2" style="fill:url(#radialGradient3427)"/>
 <path d="m25 26c0 0.551-0.449 1-1 1s-1-0.449-1-1 0.449-1 1-1 1 0.449 1 1" style="fill:url(#radial1)"/>
</svg>
