<svg version="1.1" viewBox="0 0 48 48" xmlns="http://www.w3.org/2000/svg">
 <defs>
  <linearGradient id="bg" x1="1" x2="47" gradientTransform="matrix(0 -1 1 0 -1.5e-6 48)" gradientUnits="userSpaceOnUse">
   <stop style="stop-color:#93c848" offset="0"/>
   <stop style="stop-color:#9ccd57" offset="1"/>
  </linearGradient>
 </defs>
 <path d="m36.31 5c5.859 4.062 9.688 10.831 9.688 18.5 0 12.426-10.07 22.5-22.5 22.5-7.669 0-14.438-3.828-18.5-9.688 1.037 1.822 2.306 3.499 3.781 4.969 4.085 3.712 9.514 5.969 15.469 5.969 12.703 0 23-10.298 23-23 0-5.954-2.256-11.384-5.969-15.469-1.469-1.475-3.147-2.744-4.969-3.781zm4.969 3.781c3.854 4.113 6.219 9.637 6.219 15.719 0 12.703-10.297 23-23 23-6.081 0-11.606-2.364-15.719-6.219 4.16 4.144 9.883 6.719 16.219 6.719 12.703 0 23-10.298 23-23 0-6.335-2.575-12.06-6.719-16.219z" style="opacity:.05"/>
 <path d="m41.28 8.781c3.712 4.085 5.969 9.514 5.969 15.469 0 12.703-10.297 23-23 23-5.954 0-11.384-2.256-15.469-5.969 4.113 3.854 9.637 6.219 15.719 6.219 12.703 0 23-10.298 23-23 0-6.081-2.364-11.606-6.219-15.719z" style="opacity:.1"/>
 <path d="m31.25 2.375c8.615 3.154 14.75 11.417 14.75 21.13 0 12.426-10.07 22.5-22.5 22.5-9.708 0-17.971-6.135-21.12-14.75a23 23 0 0 0 44.875-7 23 23 0 0 0-16-21.875z" style="opacity:.2"/>
 <path d="m24 1c12.703 0 23 10.297 23 23s-10.297 23-23 23-23-10.297-23-23 10.297-23 23-23z" style="fill:url(#bg)"/>
 <rect x="12" y="14" width="26" height="22" rx="2" style="opacity:.1"/>
 <g transform="translate(1,1)"></g>
 <path d="m40.03 7.531c3.712 4.084 5.969 9.514 5.969 15.469 0 12.703-10.297 23-23 23-5.954 0-11.384-2.256-15.469-5.969 4.178 4.291 10.01 6.969 16.469 6.969 12.703 0 23-10.298 23-23 0-6.462-2.677-12.291-6.969-16.469z" style="opacity:.1"/>
 <path d="m11.801 13.801v20.398h24.398v-20.398z" style="fill:#2c86d5"/>
 <path d="m17 26-5.1992 5v3.1992h11.217v-2.2227l-6.0176-5.9766z" style="fill:#f4f4f4"/>
 <path d="m17.02 25.977 0.98047 4.0234-2 2.5 1.0195 1.6992h5.9805v-2.1992l-5.9805-6.0234z" style="fill:#dedede"/>
 <path d="m30 22-9 12.199h15.199l-0.080078-5.6992-6.1191-6.5z" style="fill:#f4f4f4"/>
 <path d="m30.02 21.977 1.4805 5.0234-1.5 4.5 2 2.6992h4.1992v-5.6992l-6.1797-6.5234z" style="fill:#dedede"/>
 <path d="m11.801 13.801v10.1c0.397 0.063 0.798 0.09967 1.199 0.1 4.418 0.0037 8-3.582 8-8 0-0.744-0.105-1.484-0.311-2.199z" style="fill-opacity:.2;fill:#fff"/>
 <path d="m11.801 13.801v5.758c0.52 0.289 1.105 0.441 1.699 0.441 1.933 0 3.5-1.567 3.5-3.5 0-1.045-0.467-2.035-1.273-2.699z" style="fill:#fbc06e"/>
 <path d="m13 13c-1.108 0-2 0.892-2 2v18c0 1.108 0.892 2 2 2h22c1.108 0 2-0.892 2-2v-18c0-1.108-0.892-2-2-2zm0 1h22c0.554 0 1 0.446 1 1v18c0 0.554-0.446 1-1 1h-22c-0.554 0-1-0.446-1-1v-18c0-0.554 0.446-1 1-1z" style="fill:#f9f9f9"/>
</svg>
