<svg version="1.1" viewBox="0 0 48 48" xmlns="http://www.w3.org/2000/svg">
 <defs>
  <linearGradient id="bg" x1="1" x2="47" gradientTransform="matrix(0 -1 1 0 -1.5e-6 48)" gradientUnits="userSpaceOnUse">
   <stop style="stop-color:#b4b4b4" offset="0"/>
   <stop style="stop-color:#bebebe" offset="1"/>
  </linearGradient>
 </defs>
 <path d="m36.31 5c5.859 4.062 9.688 10.831 9.688 18.5 0 12.426-10.07 22.5-22.5 22.5-7.669 0-14.438-3.828-18.5-9.688 1.037 1.822 2.306 3.499 3.781 4.969 4.085 3.712 9.514 5.969 15.469 5.969 12.703 0 23-10.298 23-23 0-5.954-2.256-11.384-5.969-15.469-1.469-1.475-3.147-2.744-4.969-3.781zm4.969 3.781c3.854 4.113 6.219 9.637 6.219 15.719 0 12.703-10.297 23-23 23-6.081 0-11.606-2.364-15.719-6.219 4.16 4.144 9.883 6.719 16.219 6.719 12.703 0 23-10.298 23-23 0-6.335-2.575-12.06-6.719-16.219z" style="opacity:.05"/>
 <path d="m41.28 8.781c3.712 4.085 5.969 9.514 5.969 15.469 0 12.703-10.297 23-23 23-5.954 0-11.384-2.256-15.469-5.969 4.113 3.854 9.637 6.219 15.719 6.219 12.703 0 23-10.298 23-23 0-6.081-2.364-11.606-6.219-15.719z" style="opacity:.1"/>
 <path d="m31.25 2.375c8.615 3.154 14.75 11.417 14.75 21.13 0 12.426-10.07 22.5-22.5 22.5-9.708 0-17.971-6.135-21.12-14.75a23 23 0 0 0 44.875-7 23 23 0 0 0-16-21.875z" style="opacity:.2"/>
 <path d="m24 1c12.703 0 23 10.297 23 23s-10.297 23-23 23-23-10.297-23-23 10.297-23 23-23z" style="fill:url(#bg)"/>
 <g transform="translate(1,1)">
  <g style="opacity:.1">
   <path transform="translate(-1,-1)" d="m25 13-13 15c0 2.032 1.522 3.693 3.488 3.947 0.175 0.2 0.363 0.387 0.563 0.563-0.02 0.163-0.051 0.322-0.051 0.49 0 2.207 1.789 4 4 4 2.207 0 4-1.793 4-4 0-0.169-0.031-0.329-0.051-0.492 0.4-0.351 0.755-0.751 1.051-1.195 0.296 0.445 0.65 0.846 1.051 1.197-0.02 0.163-0.051 0.322-0.051 0.49 0 2.207 1.789 4 4 4 2.207 0 4-1.793 4-4 0-0.169-0.031-0.329-0.051-0.492 0.199-0.175 0.386-0.361 0.561-0.561 1.964-0.254 3.49-1.915 3.49-3.947 0-2.035-1.525-3.693-3.488-3.947-0.892-1.019-2.121-1.729-3.516-1.963 0-0.03 4e-3 -0.06 4e-3 -0.09 0-1.252-0.386-2.415-1.043-3.377 0.025-0.204 0.043-0.412 0.043-0.623 0-2.762-2.238-5-5-5z"/>
  </g>
 </g>
 <path d="m19 28c-2.211 0-4 1.789-4 4 0 2.207 1.789 4 4 4 2.207 0 4-1.793 4-4 0-2.211-1.793-4-4-4zm10 0c-2.211 0-4 1.789-4 4 0 2.207 1.789 4 4 4 2.207 0 4-1.793 4-4 0-2.211-1.793-4-4-4z" style="fill:#d6d6d6"/>
 <path d="m19 21c-3.316 0-6 2.684-6 6 0 3.312 2.684 6 6 6 2.0861 0 3.9248-1.0665 5-2.6836 1.0745 1.6166 2.9117 2.6836 5 2.6836 3.312 0 6-2.687 6-6 0-3.316-2.687-6-6-6-2.0888 0-3.9256 1.0665-5 2.6836-1.0749-1.6176-2.9127-2.6836-5-2.6836z" style="fill:#424242"/>
 <path d="m15 23c-2.211 0-4 1.789-4 4 0 2.207 1.789 4 4 4 2.207 0 4-1.793 4-4 0-2.211-1.793-4-4-4zm18 0c-2.211 0-4 1.789-4 4 0 2.207 1.789 4 4 4 2.207 0 4-1.793 4-4 0-2.211-1.793-4-4-4z" style="fill:#f2f2f2"/>
 <path d="m30 21c0 3.313-2.688 6-6 6-3.313 0-6-2.688-6-6 0-3.313 2.688-6 6-6 3.313 0 6 2.688 6 6" style="fill:#666"/>
 <path d="m29 17c0 2.762-2.238 5-5 5s-5-2.238-5-5 2.238-5 5-5 5 2.238 5 5" style="fill:#9a14b8"/>
 <path d="m40.03 7.531c3.712 4.084 5.969 9.514 5.969 15.469 0 12.703-10.297 23-23 23-5.954 0-11.384-2.256-15.469-5.969 4.178 4.291 10.01 6.969 16.469 6.969 12.703 0 23-10.298 23-23 0-6.462-2.677-12.291-6.969-16.469z" style="opacity:.1"/>
</svg>
