<svg version="1.1" viewBox="0 0 48 48" xmlns="http://www.w3.org/2000/svg">
 <defs>
  <linearGradient id="bg" x2="0" y1="1" y2="47" gradientUnits="userSpaceOnUse">
   <stop style="stop-color:#f2e8e4" offset="0"/>
   <stop style="stop-color:#ecddd6" offset="1"/>
  </linearGradient>
 </defs>
 <path d="m36.31 5c5.859 4.062 9.688 10.831 9.688 18.5 0 12.426-10.07 22.5-22.5 22.5-7.669 0-14.438-3.828-18.5-9.688 1.037 1.822 2.306 3.499 3.781 4.969 4.085 3.712 9.514 5.969 15.469 5.969 12.703 0 23-10.298 23-23 0-5.954-2.256-11.384-5.969-15.469-1.469-1.475-3.147-2.744-4.969-3.781zm4.969 3.781c3.854 4.113 6.219 9.637 6.219 15.719 0 12.703-10.297 23-23 23-6.081 0-11.606-2.364-15.719-6.219 4.16 4.144 9.883 6.719 16.219 6.719 12.703 0 23-10.298 23-23 0-6.335-2.575-12.06-6.719-16.219z" style="opacity:.05"/>
 <path d="m41.28 8.781c3.712 4.085 5.969 9.514 5.969 15.469 0 12.703-10.297 23-23 23-5.954 0-11.384-2.256-15.469-5.969 4.113 3.854 9.637 6.219 15.719 6.219 12.703 0 23-10.298 23-23 0-6.081-2.364-11.606-6.219-15.719z" style="opacity:.1"/>
 <path d="m31.25 2.375c8.615 3.154 14.75 11.417 14.75 21.13 0 12.426-10.07 22.5-22.5 22.5-9.708 0-17.971-6.135-21.12-14.75a23 23 0 0 0 44.875-7 23 23 0 0 0-16-21.875z" style="opacity:.2"/>
 <circle cx="24" cy="24" r="23" style="fill:url(#bg)"/>
 <path d="m40.03 7.531c3.712 4.084 5.969 9.514 5.969 15.469 0 12.703-10.297 23-23 23-5.954 0-11.384-2.256-15.469-5.969 4.178 4.291 10.01 6.969 16.469 6.969 12.703 0 23-10.298 23-23 0-6.462-2.677-12.291-6.969-16.469z" style="opacity:.1"/>
 <path d="m19.012 12-5.9238 12.617c-0.51112 1.2319 1.3326 1.9994 1.8438 0.76758l1.3828-3.3848h6.0391l0.96875 1.9141c-0.20983 0.32336-0.32174 0.70047-0.32227 1.0859-4.53e-4 0.32004 0.0759 0.63551 0.22266 0.91992l-8.0605 7.2109 2e-3 2e-3c-0.10366 0.0939-0.16376 0.22722-0.16406 0.36719-5.85e-4 0.27614 0.22386 0.49989 0.5 0.5 0.12503 5e-5 0.24558-0.0465 0.33789-0.13086 0.0033-3e-3 0.0059-0.0068 0.0098-0.0098l8.043-7.1973c0.29202 0.1948 0.63017 0.30932 0.98047 0.33203l3.2207 6.4531c0.19466 0.39003 0.54968 0.55272 0.91984 0.55272 0.36965 0 0.75321-0.2409 0.9082-0.64844l2.0918-5.5 2.0293 5.5c0.15948 0.43225 0.58446 0.64844 0.9707 0.64844s0.73694-0.21694 0.89844-0.64844l2.9941-8c0.4889-1.3063-1.3852-2.0102-1.8672-0.70117l-2.0254 5.5-2.0977-5.5c-0.32836-0.86096-1.5644-0.87028-1.8672 0l-2.0352 5.8496-2.3281-4.4258c0.20561-0.32064 0.3162-0.69332 0.31641-1.0742 1.79e-4 -0.3263-0.0811-0.64749-0.23438-0.93555l4.041-4.8125 0.01758-0.01758v-2e-3c0.11352-0.13481 0.17578-0.30594 0.17578-0.48242 7e-6 -0.41421-0.33579-0.75001-0.75-0.75-0.22153 3e-6 -0.43172 0.098-0.57422 0.26758l-4.0586 4.832-0.50391-0.09375-5.2188-10.453c-0.16767-0.3359-0.50789-0.54984-0.88281-0.55273zm0 3.4004 2.3301 4.5996h-4.209z" style="color-rendering:auto;color:#000000;dominant-baseline:auto;font-feature-settings:normal;font-variant-alternates:normal;font-variant-caps:normal;font-variant-ligatures:normal;font-variant-numeric:normal;font-variant-position:normal;image-rendering:auto;isolation:auto;mix-blend-mode:normal;opacity:.1;shape-padding:0;shape-rendering:auto;solid-color:#000000;text-decoration-color:#000000;text-decoration-line:none;text-decoration-style:solid;text-indent:0;text-orientation:mixed;text-transform:none;white-space:normal"/>
 <path d="m18.012 11c-0.4061-0.0031-0.77543 0.2417-0.93164 0.61719l-4.9922 12c-0.51228 1.2314 1.3394 2.0022 1.8437 0.76758l1.3828-3.3848h6.0391l1.7461 3.4473 3.9922 8c0.19466 0.39008 0.54977 0.55273 0.91992 0.55273 0.36965 0 0.75321-0.24091 0.9082-0.64844l2.0918-5.5 2.0293 5.5c0.15948 0.43224 0.58446 0.64844 0.9707 0.64844s0.73694-0.21694 0.89844-0.64844l2.9941-8c0.4889-1.3063-1.3851-2.0102-1.8672-0.70117l-2.0254 5.5-2.0977-5.5c-0.32836-0.86096-1.5644-0.87028-1.8672 0l-2.0352 5.8496-3.127-5.9473-5.9902-12c-0.16768-0.3359-0.50789-0.5499-0.88281-0.55273zm0 3.4004 2.3301 4.5996h-4.209z" style="color-rendering:auto;color:#000000;dominant-baseline:auto;fill:#c24a55;font-feature-settings:normal;font-variant-alternates:normal;font-variant-caps:normal;font-variant-ligatures:normal;font-variant-numeric:normal;font-variant-position:normal;image-rendering:auto;isolation:auto;mix-blend-mode:normal;shape-padding:0;shape-rendering:auto;solid-color:#000000;text-decoration-color:#000000;text-decoration-line:none;text-decoration-style:solid;text-indent:0;text-orientation:mixed;text-transform:none;white-space:normal"/>
 <path d="m24.625 23.033-1.5254 1.4141 1.2129 2.4316c0.2166 0.07901 0.44522 0.11998 0.67578 0.12109 0.5259-5.82e-4 1.0304-0.20828 1.4043-0.57812z" style="opacity:.1;paint-order:normal"/>
 <circle cx="24" cy="24" r="2" style="fill:#303030;paint-order:normal"/>
 <path d="m29.25 17c-0.22153 3e-6 -0.43172 0.098-0.57422 0.26758l-5.25 6.25 0.1875 0.1582-9.4512 8.4551 2e-3 2e-3c-0.10371 0.093853-0.16381 0.22717-0.16411 0.36714-5.85e-4 0.27614 0.22386 0.49989 0.5 0.5 0.12503 5e-5 0.24558-0.0465 0.33789-0.13086 0.0033-3e-3 0.0059-0.0068 0.0098-0.0098l9.4902-8.4902 0.23633 0.11328 5.2324-6.2305 0.01758-0.01758v-2e-3c0.11348-0.13473 0.17574-0.30586 0.17574-0.48234 7e-6 -0.41421-0.33579-0.75001-0.75-0.75z" style="color-rendering:auto;color:#000000;dominant-baseline:auto;fill:#303030;font-feature-settings:normal;font-variant-alternates:normal;font-variant-caps:normal;font-variant-ligatures:normal;font-variant-numeric:normal;font-variant-position:normal;image-rendering:auto;isolation:auto;mix-blend-mode:normal;shape-padding:0;shape-rendering:auto;solid-color:#000000;text-decoration-color:#000000;text-decoration-line:none;text-decoration-style:solid;text-indent:0;text-orientation:mixed;text-transform:none;white-space:normal"/>
</svg>
