<svg version="1.1" viewBox="0 0 48 48" xmlns="http://www.w3.org/2000/svg">
 <defs>
  <linearGradient id="lG3764" x1="1" x2="47" gradientTransform="matrix(0 -1 1 0 0 48)" gradientUnits="userSpaceOnUse">
   <stop style="stop-color:#c8dae4" offset="0"/>
   <stop style="stop-color:#d6e4eb" offset="1"/>
  </linearGradient>
 </defs>
 <g>
  <path d="m36.3 5c5.86 4.06 9.69 10.8 9.69 18.5 0 12.4-10.1 22.5-22.5 22.5-7.67 0-14.4-3.83-18.5-9.69 1.04 1.82 2.31 3.5 3.78 4.97 4.08 3.71 9.51 5.97 15.5 5.97 12.7 0 23-10.3 23-23 0-5.95-2.26-11.4-5.97-15.5-1.47-1.48-3.15-2.74-4.97-3.78zm4.97 3.78c3.85 4.11 6.22 9.64 6.22 15.7 0 12.7-10.3 23-23 23-6.08 0-11.6-2.36-15.7-6.22 4.16 4.14 9.88 6.72 16.2 6.72 12.7 0 23-10.3 23-23 0-6.34-2.58-12.1-6.72-16.2z" style="opacity:.05"/>
  <path d="m41.3 8.78c3.71 4.08 5.97 9.51 5.97 15.5 0 12.7-10.3 23-23 23-5.95 0-11.4-2.26-15.5-5.97 4.11 3.85 9.64 6.22 15.7 6.22 12.7 0 23-10.3 23-23 0-6.08-2.36-11.6-6.22-15.7z" style="opacity:.1"/>
  <path d="m31.2 2.38c8.62 3.15 14.8 11.4 14.8 21.1 0 12.4-10.1 22.5-22.5 22.5-9.71 0-18-6.14-21.1-14.8a23 23 0 0 0 44.9-7 23 23 0 0 0-16-21.9z" style="opacity:.2"/>
 </g>
 <g>
  <path d="m24 1c12.7 0 23 10.3 23 23s-10.3 23-23 23-23-10.3-23-23 10.3-23 23-23z" style="fill:url(#lG3764)"/>
 </g>
 <g>
  <path d="m40 7.53c3.71 4.08 5.97 9.51 5.97 15.5 0 12.7-10.3 23-23 23-5.95 0-11.4-2.26-15.5-5.97 4.18 4.29 10 6.97 16.5 6.97 12.7 0 23-10.3 23-23 0-6.46-2.68-12.3-6.97-16.5z" style="opacity:.1"/>
 </g>
 <g transform="matrix(1.07 0 0 -.935 -6.05e-8 -1)" style="fill-opacity:.483">
  <g>
   <path d="m15.9-13.9-3.74-4.28v-12.8c0-2.27 1.53-4.09 3.47-4.25l-2.54-6.45h4.21l2.38 6.42h7.39l2.38-6.42h4.21l-2.54 6.45c1.94 0.159 3.47 1.98 3.47 4.25v12.8c0 2.37-1.67 4.28-3.74 4.28h-2.8v-4.28h1.87c0.518 0 0.935-0.477 0.935-1.07v-10.7l-1.4-1.07-4.21 10.7h-3.74l-4.21-10.7-1.4 1.07v10.7c0 0.593 0.417 1.07 0.935 1.07h1.87v4.28zm7.48-11.4 2.1-5.67h-4.21l2.1 5.67z" style="opacity:.1"/>
   <path d="m12.2-40.7 2.53 6.43c-1.94 0.161-3.46 2-3.46 4.27v12.8c0 2.37 1.67 4.28 3.74 4.28h2.8v-4.28h-1.87c-0.518 0-0.935-0.477-0.935-1.07v-10.7c0-0.593 0.417-1.07 0.935-1.07h0.467l4.21 10.7h3.74l4.21-10.7h0.467c0.518 0 0.935 0.477 0.935 1.07v10.7c0 0.593-0.417 1.07-0.935 1.07h-1.87v4.28h2.8c2.07 0 3.74-1.91 3.74-4.28v-12.8c0-2.26-1.52-4.11-3.46-4.27l2.53-6.43h-4.21l-2.38 6.42h-7.39l-2.38-6.42zm8.18 10.7h4.21l-2.1 5.67z" style="fill-opacity:1;fill:#209dbe"/>
  </g>
 </g>
</svg>
