<svg version="1.1" viewBox="0 0 48 48" xmlns="http://www.w3.org/2000/svg" xmlns:xlink="http://www.w3.org/1999/xlink">
 <defs>
  <linearGradient id="bg" x1="1" x2="47" gradientTransform="matrix(0 -1 1 0 -1.5e-6 48)" gradientUnits="userSpaceOnUse">
   <stop style="stop-color:#e4e4e4" offset="0"/>
   <stop style="stop-color:#eee" offset="1"/>
  </linearGradient>
  <path id="SVGCleanerId_1" d="m12 14h4v2h-4m0-2"/>
 </defs>
 <path d="m36.31 5c5.859 4.062 9.688 10.831 9.688 18.5 0 12.426-10.07 22.5-22.5 22.5-7.669 0-14.438-3.828-18.5-9.688 1.037 1.822 2.306 3.499 3.781 4.969 4.085 3.712 9.514 5.969 15.469 5.969 12.703 0 23-10.298 23-23 0-5.954-2.256-11.384-5.969-15.469-1.469-1.475-3.147-2.744-4.969-3.781zm4.969 3.781c3.854 4.113 6.219 9.637 6.219 15.719 0 12.703-10.297 23-23 23-6.081 0-11.606-2.364-15.719-6.219 4.16 4.144 9.883 6.719 16.219 6.719 12.703 0 23-10.298 23-23 0-6.335-2.575-12.06-6.719-16.219z" style="opacity:.05"/>
 <path d="m41.28 8.781c3.712 4.085 5.969 9.514 5.969 15.469 0 12.703-10.297 23-23 23-5.954 0-11.384-2.256-15.469-5.969 4.113 3.854 9.637 6.219 15.719 6.219 12.703 0 23-10.298 23-23 0-6.081-2.364-11.606-6.219-15.719z" style="opacity:.1"/>
 <path d="m31.25 2.375c8.615 3.154 14.75 11.417 14.75 21.13 0 12.426-10.07 22.5-22.5 22.5-9.708 0-17.971-6.135-21.12-14.75a23 23 0 0 0 44.875-7 23 23 0 0 0-16-21.875z" style="opacity:.2"/>
 <path d="m24 1c12.703 0 23 10.297 23 23s-10.297 23-23 23-23-10.297-23-23 10.297-23 23-23z" style="fill:url(#bg)"/>
 <g transform="translate(1,1)">
  <g style="opacity:.1">
   <path transform="translate(-1,-1)" d="m15 13v2h-2v2h2v3h-2v2h2v6h-2v2h2v3h-2v2h2v2h22v-24h-22z"/>
  </g>
 </g>
 <path d="m40.03 7.531c3.712 4.084 5.969 9.514 5.969 15.469 0 12.703-10.297 23-23 23-5.954 0-11.384-2.256-15.469-5.969 4.178 4.291 10.01 6.969 16.469 6.969 12.703 0 23-10.298 23-23 0-6.462-2.677-12.291-6.969-16.469z" style="opacity:.1"/>
 <path d="m14 12h22v24h-22m0-24" style="fill:#7f5aab"/>
 <path d="m33.813 23.441c-0.191-0.266-0.398-0.512-0.605-0.754-1.121-1.316-2.41-2.484-3.82-3.336-0.902-0.539-1.863-0.98-2.863-1.188-0.508-0.109-1.012-0.164-1.527-0.164-0.508 0-1.016 0.055-1.52 0.164-1 0.207-1.961 0.648-2.863 1.188-1.41 0.852-2.691 2.02-3.816 3.336-0.207 0.242-0.414 0.488-0.605 0.754-0.25 0.352-0.25 0.766 0 1.117 0.574 0.801 1.258 1.516 1.953 2.168 1.496 1.406 3.207 2.582 5.098 3.055 0.582 0.148 1.172 0.219 1.762 0.219 0.594 0 1.176-0.07 1.762-0.219 1.891-0.473 3.602-1.648 5.102-3.055 0.695-0.652 1.379-1.363 1.953-2.168 0.25-0.352 0.25-0.766 0-1.117" style="fill:#ececeb"/>
 <path d="m29.5 24c0 2.488-2.02 4.5-4.5 4.5-2.484 0-4.5-2.01-4.5-4.5 0-2.484 2.02-4.496 4.5-4.496 2.484 0 4.5 2.01 4.5 4.496" style="fill:#4586f9"/>
 <path d="m27.5 24c0 1.383-1.121 2.5-2.5 2.5s-2.5-1.117-2.5-2.5c0-1.379 1.121-2.5 2.5-2.5s2.5 1.121 2.5 2.5"/>
 <path d="m27 23c0 0.551-0.449 1-1 1s-1-0.449-1-1 0.449-1 1-1 1 0.449 1 1" style="fill:#fff"/>
 <path d="m28.492 18.859-8.125 9.637c0.371 0.238 0.746 0.453 1.137 0.645l8.121-9.637c-0.359-0.254-0.781-0.465-1.133-0.645" style="fill:#e54444"/>
 <use width="48" height="48" style="fill:#e54444" xlink:href="#SVGCleanerId_1"/>
 <use width="48" height="48" style="fill:#ffcc00" xlink:href="#SVGCleanerId_1"/>
 <path d="m12 19h4v2h-4m0-2" style="fill:#fc0"/>
 <path d="m12 27h4v2h-4m0-2" style="fill:#fc0"/>
 <path d="m12 32h4v2h-4m0-2" style="fill:#fc0"/>
</svg>
