<svg version="1.1" viewBox="0 0 48 48" xmlns="http://www.w3.org/2000/svg">
 <defs>
  <linearGradient id="bg" x2="0" y1="1" y2="47" gradientUnits="userSpaceOnUse">
   <stop style="stop-color:#29b4d7" offset="0"/>
   <stop style="stop-color:#25a7c8" offset="1"/>
  </linearGradient>
 </defs>
 <path d="m36.31 5c5.859 4.062 9.688 10.831 9.688 18.5 0 12.426-10.07 22.5-22.5 22.5-7.669 0-14.438-3.828-18.5-9.688 1.037 1.822 2.306 3.499 3.781 4.969 4.085 3.712 9.514 5.969 15.469 5.969 12.703 0 23-10.298 23-23 0-5.954-2.256-11.384-5.969-15.469-1.469-1.475-3.147-2.744-4.969-3.781zm4.969 3.781c3.854 4.113 6.219 9.637 6.219 15.719 0 12.703-10.297 23-23 23-6.081 0-11.606-2.364-15.719-6.219 4.16 4.144 9.883 6.719 16.219 6.719 12.703 0 23-10.298 23-23 0-6.335-2.575-12.06-6.719-16.219z" style="opacity:.05"/>
 <path d="m41.28 8.781c3.712 4.085 5.969 9.514 5.969 15.469 0 12.703-10.297 23-23 23-5.954 0-11.384-2.256-15.469-5.969 4.113 3.854 9.637 6.219 15.719 6.219 12.703 0 23-10.298 23-23 0-6.081-2.364-11.606-6.219-15.719z" style="opacity:.1"/>
 <path d="m31.25 2.375c8.615 3.154 14.75 11.417 14.75 21.13 0 12.426-10.07 22.5-22.5 22.5-9.708 0-17.971-6.135-21.12-14.75a23 23 0 0 0 44.875-7 23 23 0 0 0-16-21.875z" style="opacity:.2"/>
 <circle cx="24" cy="24" r="23" style="fill:url(#bg)"/>
 <path d="m40.03 7.531c3.712 4.084 5.969 9.514 5.969 15.469 0 12.703-10.297 23-23 23-5.954 0-11.384-2.256-15.469-5.969 4.178 4.291 10.01 6.969 16.469 6.969 12.703 0 23-10.298 23-23 0-6.462-2.677-12.291-6.969-16.469z" style="opacity:.1"/>
 <path d="m24 13c-1.0805 0-0.59456 1.4338 0.45703 3.2598-1.6617-1.8013-3.3377-3.006-4.457-2.2598-2.8893 1.9262 7.0049 10.168 7.7539 10.787-0.40688 0.54401-0.65768 1.1683-0.73047 1.8184-1.0776-0.38008-2.3994-0.60547-4.0234-0.60547-3.9436 0-5.7074 3.0014-6.4668 5.0742-0.17358-0.048656-0.35294-0.073622-0.5332-0.074219-1.1046 0-2 0.89543-2 2s0.89543 2 2 2c0.33076-5.16e-4 0.65623-0.08306 0.94727-0.24023 0.83873 1.0745 2.3485 2.2402 5.0527 2.2402h5c0.554 0 1-0.446 1-1 0-0.24345-0.09666-0.4578-0.24023-0.63086 0.36766-0.20061 0.70165-0.4117 1.0234-0.63086l0.2168 0.76172c0 0.831 0.669 1.5 1.5 1.5h1c0.831 0 1.5-0.669 1.5-1.5s-0.669-1.5-1.5-1.5h-0.83398l-0.23438-0.70312c0.35683-0.4514 0.56836-0.89394 0.56836-1.2969 0-0.34798-0.029-0.69576-0.08594-1.0391 0.19415 0.024353 0.38988 0.037402 0.58594 0.039062 2.4853 0 4.5-1.7909 4.5-4 2.3e-5 -2.2024-2.0028-3.9904-4.4805-4-1.116-2.336-4.9557-10-7.5195-10z" style="opacity:.1"/>
 <path d="m23 12c-1.0805 0-0.59456 1.4338 0.45703 3.2598-1.6617-1.8013-3.3377-3.006-4.457-2.2598-2.8893 1.9262 7.0049 10.168 7.7539 10.787-0.40688 0.54401-0.65768 1.1683-0.73047 1.8184-1.0776-0.38008-2.3994-0.60547-4.0234-0.60547-3.9436 0-5.7074 3.0014-6.4668 5.0742-0.17358-0.048656-0.35294-0.073622-0.5332-0.074219-1.1046 0-2 0.89543-2 2s0.89543 2 2 2c0.33076-5.16e-4 0.65623-0.08306 0.94727-0.24023 0.83873 1.0745 2.3485 2.2402 5.0527 2.2402h5c0.554 0 1-0.446 1-1 0-0.24345-0.09666-0.4578-0.24023-0.63086 0.36766-0.20061 0.70165-0.4117 1.0234-0.63086l0.2168 0.76172c0 0.831 0.669 1.5 1.5 1.5h1c0.831 0 1.5-0.669 1.5-1.5s-0.669-1.5-1.5-1.5h-0.83398l-0.23438-0.70312c0.35683-0.4514 0.56836-0.89394 0.56836-1.2969 0-0.34798-0.029-0.69576-0.08594-1.0391 0.19415 0.024353 0.38988 0.037402 0.58594 0.039062 2.4853 0 4.5-1.7909 4.5-4 2.3e-5 -2.2024-2.0028-3.9904-4.4805-4-1.116-2.336-4.9557-10-7.5195-10z" style="fill:#b0e4f0"/>
</svg>
