<svg xmlns="http://www.w3.org/2000/svg" viewBox="0 0 48 48">
 <defs>
  <linearGradient id="linearGradient3764" x1="1" x2="47" gradientUnits="userSpaceOnUse" gradientTransform="matrix(0,-1,1,0,-1.5e-6,47.999998)">
   <stop style="stop-color:#e4e4e4;stop-opacity:1"/>
   <stop offset="1" style="stop-color:#eee;stop-opacity:1"/>
  </linearGradient>
 </defs>
 <g>
  <path d="m 36.31 5 c 5.859 4.062 9.688 10.831 9.688 18.5 c 0 12.426 -10.07 22.5 -22.5 22.5 c -7.669 0 -14.438 -3.828 -18.5 -9.688 c 1.037 1.822 2.306 3.499 3.781 4.969 c 4.085 3.712 9.514 5.969 15.469 5.969 c 12.703 0 23 -10.298 23 -23 c 0 -5.954 -2.256 -11.384 -5.969 -15.469 c -1.469 -1.475 -3.147 -2.744 -4.969 -3.781 z m 4.969 3.781 c 3.854 4.113 6.219 9.637 6.219 15.719 c 0 12.703 -10.297 23 -23 23 c -6.081 0 -11.606 -2.364 -15.719 -6.219 c 4.16 4.144 9.883 6.719 16.219 6.719 c 12.703 0 23 -10.298 23 -23 c 0 -6.335 -2.575 -12.06 -6.719 -16.219 z" style="opacity:0.05"/>
  <path d="m 41.28 8.781 c 3.712 4.085 5.969 9.514 5.969 15.469 c 0 12.703 -10.297 23 -23 23 c -5.954 0 -11.384 -2.256 -15.469 -5.969 c 4.113 3.854 9.637 6.219 15.719 6.219 c 12.703 0 23 -10.298 23 -23 c 0 -6.081 -2.364 -11.606 -6.219 -15.719 z" style="opacity:0.1"/>
  <path d="m 31.25 2.375 c 8.615 3.154 14.75 11.417 14.75 21.13 c 0 12.426 -10.07 22.5 -22.5 22.5 c -9.708 0 -17.971 -6.135 -21.12 -14.75 a 23 23 0 0 0 44.875 -7 a 23 23 0 0 0 -16 -21.875 z" style="opacity:0.2"/>
 </g>
 <g>
  <path d="m 24 1 c 12.703 0 23 10.297 23 23 c 0 12.703 -10.297 23 -23 23 -12.703 0 -23 -10.297 -23 -23 0 -12.703 10.297 -23 23 -23 z" style="fill:url(#linearGradient3764);fill-opacity:1"/>
 </g>
 <g>
  <g>
   <g transform="translate(1,1)">
    <g style="opacity:0.1">
     <!-- color: #eeeeee -->
    </g>
   </g>
  </g>
 </g>
 <g>
  <g>
   <!-- color: #eeeeee -->
   <g>
    <path d="m 37.26 12.01 c -0.165 0.026 -0.329 0.082 -0.488 0.172 -0.884 0.42 -2.32 1.919 -3.871 3.799 c -2.121 -1.857 -4.888 -2.984 -7.898 -2.984 c -6.555 0 -12 5.316 -12 12 0 6.684 5.445 12 12 12 6.555 0 12 -5.316 12 -12 0 -2.576 -0.814 -4.944 -2.182 -6.887 1.365 -1.748 2.709 -3.23 3.869 -4.064 0.886 -0.954 -0.274 -2.216 -1.43 -2.035 z m -12.258 3.01 c 2.581 0 4.91 0.936 6.691 2.461 -2.927 3.788 -5.945 8.475 -6.551 10.354 l -3.348 -4.625 c -1.219 -1.766 -3.641 0.215 -2.492 1.914 l 4.418 5.857 c 1.32 1.344 2.816 1.344 3.32 0 1.29 -3 3.891 -7.549 6.58 -11.289 0.992 1.544 1.568 3.363 1.568 5.305 0 5.449 -4.496 9.973 -10.188 9.973 -5.699 0 -10.191 -4.523 -10.191 -9.973 0 -5.449 4.496 -9.977 10.191 -9.977 z" style="fill:#000;opacity:0.1;fill-opacity:1;stroke:none;fill-rule:nonzero"/>
    <path d="m 24 12 c -6.555 0 -12 5.316 -12 12 0 6.684 5.445 12 12 12 6.555 0 12 -5.316 12 -12 0 -6.688 -5.441 -12 -12 -12 m 0 2.027 c 5.695 0 10.188 4.527 10.188 9.977 0 5.449 -4.496 9.973 -10.188 9.973 -5.699 0 -10.191 -4.523 -10.191 -9.973 0 -5.449 4.496 -9.977 10.191 -9.977 m 0 0" style="fill:#999;fill-opacity:1;stroke:none;fill-rule:nonzero"/>
    <path d="m 18.301,24.13 4.418,5.859 c 1.32,1.344 2.816,1.344 3.32,0 2.137,-4.977 7.863,-14.219 11.648,-16.941 1.012,-1.09 -0.645,-2.582 -1.918,-1.863 C 33.031,12.486 25.16,23.677 24.14,26.841 L 20.792,22.216 C 19.573,20.45 17.151,22.431 18.3,24.13 m 0,0" style="fill:#323232;fill-opacity:1;stroke:none;fill-rule:evenodd"/>
    <path d="M 18.75,13.219 C 14.773,15.16 12,19.229 12,24 c 0,1.469 0.27,2.859 0.75,4.156 l 1.594,-0.969 c -0.348,-1.012 -0.531,-2.074 -0.531,-3.188 0,-3.684 2.066,-6.93 5.156,-8.656 M 18.75,13.218" style="fill:#0095cf;fill-opacity:1;stroke:none;fill-rule:nonzero"/>
   </g>
  </g>
 </g>
 <g>
  <path d="m 40.03 7.531 c 3.712 4.084 5.969 9.514 5.969 15.469 0 12.703 -10.297 23 -23 23 c -5.954 0 -11.384 -2.256 -15.469 -5.969 4.178 4.291 10.01 6.969 16.469 6.969 c 12.703 0 23 -10.298 23 -23 0 -6.462 -2.677 -12.291 -6.969 -16.469 z" style="opacity:0.1"/>
 </g>
</svg>
