<svg version="1.1" viewBox="0 0 48 48" xmlns="http://www.w3.org/2000/svg">
 <defs>
  <linearGradient id="bg" x2="0" y1="1" y2="47" gradientUnits="userSpaceOnUse">
   <stop style="stop-color:#eff4e8" offset="0"/>
   <stop style="stop-color:#e6eeda" offset="1"/>
  </linearGradient>
 </defs>
 <path d="m36.3 5c5.86 4.06 9.69 10.8 9.69 18.5 0 12.4-10.1 22.5-22.5 22.5-7.67 0-14.4-3.83-18.5-9.69 1.04 1.82 2.31 3.5 3.78 4.97 4.08 3.71 9.51 5.97 15.5 5.97 12.7 0 23-10.3 23-23 0-5.95-2.26-11.4-5.97-15.5-1.47-1.48-3.15-2.74-4.97-3.78zm4.97 3.78c3.85 4.11 6.22 9.64 6.22 15.7 0 12.7-10.3 23-23 23-6.08 0-11.6-2.36-15.7-6.22 4.16 4.14 9.88 6.72 16.2 6.72 12.7 0 23-10.3 23-23 0-6.34-2.58-12.1-6.72-16.2z" style="opacity:.05"/>
 <path d="m41.3 8.78c3.71 4.08 5.97 9.51 5.97 15.5 0 12.7-10.3 23-23 23-5.95 0-11.4-2.26-15.5-5.97 4.11 3.85 9.64 6.22 15.7 6.22 12.7 0 23-10.3 23-23 0-6.08-2.36-11.6-6.22-15.7z" style="opacity:.1"/>
 <path d="m31.2 2.38c8.62 3.15 14.8 11.4 14.8 21.1 0 12.4-10.1 22.5-22.5 22.5-9.71 0-18-6.14-21.1-14.8a23 23 0 0 0 44.9-7 23 23 0 0 0-16-21.9z" style="opacity:.2"/>
 <circle cx="24" cy="24" r="23" style="fill:url(#bg)"/>
 <path d="m40 7.53c3.71 4.08 5.97 9.51 5.97 15.5 0 12.7-10.3 23-23 23-5.95 0-11.4-2.26-15.5-5.97 4.18 4.29 10 6.97 16.5 6.97 12.7 0 23-10.3 23-23 0-6.46-2.68-12.3-6.97-16.5z" style="opacity:.1"/>
 <path d="m22.3 13a12.4 8.38 69.1 0 0-1.65 0.336 12.4 8.38 69.1 0 0-3.52 14.5 12.4 8.38 69.1 0 0 2.04 3.92l-3.17 2.22 3.51-1.75a12.4 8.38 69.1 0 0 9.85 4.41 12.4 8.38 69.1 0 0 3.6-14.3l2.05-1.37-2-2-1.18 0.828a12.4 8.38 69.1 0 0-9.52-6.82z" style="opacity:.1"/>
 <ellipse transform="matrix(.94 -.342 .35 .937 0 0)" cx="14.1" cy="30.8" rx="8.38" ry="12.4" style="fill:#4d4d4d"/>
 <path d="m24 16c-1.86 0.0013-3.64 0.74-4.95 2.05l0.707 0.707c1.12-1.13 2.65-1.76 4.24-1.76 1.59 0.0013 3.12 0.634 4.24 1.76l0.707-0.707c-1.31-1.31-3.09-2.05-4.95-2.05zm0 2c-1.33 0.0012-2.6 0.529-3.53 1.47l0.707 0.707c0.749-0.75 1.77-1.17 2.83-1.17 1.06 0.0012 2.08 0.423 2.83 1.17l0.707-0.707c-0.937-0.938-2.21-1.47-3.53-1.47zm0 2c-0.795 0.0012-1.56 0.318-2.12 0.881l0.705 0.705c0.375-0.375 0.884-0.586 1.41-0.586 0.53 8e-5 1.04 0.211 1.41 0.586l0.705-0.705c-0.562-0.563-1.32-0.88-2.12-0.881zm7.44 0.0918-8.44 5.91 3 1-6.99 4.9a12.4 8.38 69.1 0 0 0.369 0.416l12.6-6.31-3-1 3.38-2.26a12.4 8.38 69.1 0 0-0.508-1.61 12.4 8.38 69.1 0 0-0.436-1.04zm-7.44 1.91a1 1 0 0 0-1 1 1 1 0 0 0 1 1 1 1 0 0 0 1-1 1 1 0 0 0-1-1z" style="opacity:.1"/>
 <path d="m15 33 16-8-3-1 6-4-2-2-10 7 3 1z" style="fill:#0391c2"/>
 <path d="m23 15c-1.86 0.0013-3.64 0.74-4.95 2.05l0.707 0.707c1.12-1.13 2.65-1.76 4.24-1.76 1.59 0.0013 3.12 0.634 4.24 1.76l0.707-0.707c-1.31-1.31-3.09-2.05-4.95-2.05zm0 2c-1.33 0.0012-2.6 0.529-3.53 1.47l0.707 0.707c0.749-0.75 1.77-1.17 2.83-1.17 1.06 0.0012 2.08 0.423 2.83 1.17l0.707-0.707c-0.937-0.938-2.21-1.47-3.53-1.47zm0 2c-0.795 0.0012-1.56 0.318-2.12 0.881l0.705 0.705c0.375-0.375 0.884-0.586 1.41-0.586 0.53 8e-5 1.04 0.211 1.41 0.586l0.705-0.705c-0.562-0.563-1.32-0.88-2.12-0.881zm0 2a1 1 0 0 0-1 1 1 1 0 0 0 1 1 1 1 0 0 0 1-1 1 1 0 0 0-1-1z" style="fill:#f9f9f9"/>
</svg>
