<svg version="1.1" viewBox="0 0 48 48" xmlns="http://www.w3.org/2000/svg">
 <defs>
  <linearGradient id="bg" x1="1" x2="47" gradientTransform="matrix(0 -1 1 0 -1.5e-6 48)" gradientUnits="userSpaceOnUse">
   <stop style="stop-color:#e4e4e4" offset="0"/>
   <stop style="stop-color:#eee" offset="1"/>
  </linearGradient>
 </defs>
 <path d="m36.31 5c5.859 4.062 9.688 10.831 9.688 18.5 0 12.426-10.07 22.5-22.5 22.5-7.669 0-14.438-3.828-18.5-9.688 1.037 1.822 2.306 3.499 3.781 4.969 4.085 3.712 9.514 5.969 15.469 5.969 12.703 0 23-10.298 23-23 0-5.954-2.256-11.384-5.969-15.469-1.469-1.475-3.147-2.744-4.969-3.781zm4.969 3.781c3.854 4.113 6.219 9.637 6.219 15.719 0 12.703-10.297 23-23 23-6.081 0-11.606-2.364-15.719-6.219 4.16 4.144 9.883 6.719 16.219 6.719 12.703 0 23-10.298 23-23 0-6.335-2.575-12.06-6.719-16.219z" style="opacity:.05"/>
 <path d="m41.28 8.781c3.712 4.085 5.969 9.514 5.969 15.469 0 12.703-10.297 23-23 23-5.954 0-11.384-2.256-15.469-5.969 4.113 3.854 9.637 6.219 15.719 6.219 12.703 0 23-10.298 23-23 0-6.081-2.364-11.606-6.219-15.719z" style="opacity:.1"/>
 <path d="m31.25 2.375c8.615 3.154 14.75 11.417 14.75 21.13 0 12.426-10.07 22.5-22.5 22.5-9.708 0-17.971-6.135-21.12-14.75a23 23 0 0 0 44.875-7 23 23 0 0 0-16-21.875z" style="opacity:.2"/>
 <path d="m24 1c12.703 0 23 10.297 23 23s-10.297 23-23 23-23-10.297-23-23 10.297-23 23-23z" style="fill:url(#bg)"/>
 <g transform="translate(1,1)">
  <g style="opacity:.1"></g>
 </g>
 <path d="m19 13.004v2h2v-2zm2 2v1h1l-0.0039-1zm7-1v2h2v-2zm0 2h-1v1l1-0.0039zm-1 1h-1v1h-2v-3h-1v1h-1v0.99609l1 0.0039v3h-9v14.996h22v-14.996h-9z" style="opacity:.1"/>
 <path d="m18 12v2h2v-2zm2 2v1h1l-0.0039-1zm7-1v2h2v-2zm0 2h-1v1l1-0.0039zm-1 1h-1v1h-2v-3h-1v1h-1v0.99609l1 0.003906v3h-9v14.996h22v-14.996h-9z" style="fill:#2d2d2d"/>
 <path d="m15 21v11h18v-11zm1 1h3v4h-1v-1h-1v1h-1zm4 0h1v4h-1zm2 0h3v2h-2v1h2v1h-3zm4 0h1v3h1v-3h1v3h-1v1h-1v-1h-1zm4 0h1v1h1v1h-1v2h-1zm-13 1v1h1v-1zm-1 7h4v1h-4zm5 0h3v1h-3zm4.0195 0h3v1h-3zm3.9805 0h3v1h-3z" style="fill:#868686"/>
 <path d="m40.03 7.531c3.712 4.084 5.969 9.514 5.969 15.469 0 12.703-10.297 23-23 23-5.954 0-11.384-2.256-15.469-5.969 4.178 4.291 10.01 6.969 16.469 6.969 12.703 0 23-10.298 23-23 0-6.462-2.677-12.291-6.969-16.469z" style="opacity:.1"/>
</svg>
