<svg version="1.1" viewBox="0 0 48 48" xmlns="http://www.w3.org/2000/svg">
 <defs>
  <linearGradient id="bg" x1="1" x2="47" gradientTransform="matrix(0 -1 1 0 -1.5e-6 48)" gradientUnits="userSpaceOnUse">
   <stop style="stop-color:#439412" offset="0"/>
   <stop style="stop-color:#4aa614" offset="1"/>
  </linearGradient>
 </defs>
 <path d="m36.3 5c5.86 4.06 9.69 10.8 9.69 18.5 0 12.4-10.1 22.5-22.5 22.5-7.67 0-14.4-3.83-18.5-9.69 1.04 1.82 2.31 3.5 3.78 4.97 4.08 3.71 9.51 5.97 15.5 5.97 12.7 0 23-10.3 23-23 0-5.95-2.26-11.4-5.97-15.5-1.47-1.48-3.15-2.74-4.97-3.78zm4.97 3.78c3.85 4.11 6.22 9.64 6.22 15.7 0 12.7-10.3 23-23 23-6.08 0-11.6-2.36-15.7-6.22 4.16 4.14 9.88 6.72 16.2 6.72 12.7 0 23-10.3 23-23 0-6.34-2.58-12.1-6.72-16.2z" style="opacity:.05"/>
 <path d="m41.3 8.78c3.71 4.08 5.97 9.51 5.97 15.5 0 12.7-10.3 23-23 23-5.95 0-11.4-2.26-15.5-5.97 4.11 3.85 9.64 6.22 15.7 6.22 12.7 0 23-10.3 23-23 0-6.08-2.36-11.6-6.22-15.7z" style="opacity:.1"/>
 <path d="m31.2 2.38c8.62 3.15 14.8 11.4 14.8 21.1 0 12.4-10.1 22.5-22.5 22.5-9.71 0-18-6.14-21.1-14.8a23 23 0 0 0 44.9-7 23 23 0 0 0-16-21.9z" style="opacity:.2"/>
 <path d="m24 1c12.7 0 23 10.3 23 23s-10.3 23-23 23-23-10.3-23-23 10.3-23 23-23z" style="fill:url(#bg)"/>
 <path d="m25 12c-6.08 0-11 4.92-11 11 3e-3 1.64 0.451 3.2 1.05 4.68 0.946 2.32 2.95 3.32 2.95 6.32 0 2.22 3.12 4 7 4s7-1.78 7-4c0-3 2-4 2.95-6.32 0.603-1.48 1.05-3.04 1.05-4.68 0-6.08-4.92-11-11-11z" style="opacity:.1"/>
 <path d="m24 11c-6.08 0-11 4.92-11 11 3e-3 1.64 0.451 3.2 1.05 4.68 0.946 2.32 2.95 3.32 2.95 6.32 0 2.22 3.12 4 7 4s7-1.78 7-4c0-3 2-4 2.95-6.32 0.603-1.48 1.05-3.04 1.05-4.68 0-6.08-4.92-11-11-11z" style="fill:#474747"/>
 <path d="m40 7.53c3.71 4.08 5.97 9.51 5.97 15.5 0 12.7-10.3 23-23 23-5.95 0-11.4-2.26-15.5-5.97 4.18 4.29 10 6.97 16.5 6.97 12.7 0 23-10.3 23-23 0-6.46-2.68-12.3-6.97-16.5z" style="opacity:.1"/>
 <path d="m20.9 32c-0.282 0.0069-0.516 0.061-0.66 0.172-0.899 0.678 0.724 1.98 2.26 1.81 0.686-0.0739 1.34-0.366 1.46-0.641 0.259-0.595-1.85-1.38-3.06-1.34zm8.16 0-2e-3 0.0039c-1.21-0.0404-3.32 0.745-3.06 1.34 0.122 0.275 0.779 0.567 1.46 0.641 1.53 0.171 3.15-1.13 2.26-1.81-0.144-0.111-0.378-0.165-0.66-0.172z" style="opacity:.1"/>
 <path d="m19.9 31c-0.282 0.0069-0.516 0.061-0.66 0.172-0.899 0.678 0.724 1.98 2.26 1.81 0.686-0.0739 1.34-0.366 1.46-0.641 0.259-0.595-1.85-1.38-3.06-1.34l-0.00195-0.00391zm8.16 0-0.00195 0.00391c-1.21-0.0404-3.32 0.745-3.06 1.34 0.122 0.275 0.779 0.567 1.46 0.641 1.53 0.171 3.15-1.13 2.26-1.81-0.144-0.111-0.378-0.165-0.66-0.172z" style="fill:#f9f9f9"/>
</svg>
