<svg version="1.1" viewBox="0 0 48 48" xmlns="http://www.w3.org/2000/svg">
 <defs>
  <linearGradient id="bg" x2="0" y1="1" y2="47" gradientUnits="userSpaceOnUse">
   <stop style="stop-color:#f7d39d" offset="0"/>
   <stop style="stop-color:#f6cb8a" offset="1"/>
  </linearGradient>
 </defs>
 <path d="m36.31 5c5.859 4.062 9.688 10.831 9.688 18.5 0 12.426-10.07 22.5-22.5 22.5-7.669 0-14.438-3.828-18.5-9.688 1.037 1.822 2.306 3.499 3.781 4.969 4.085 3.712 9.514 5.969 15.469 5.969 12.703 0 23-10.298 23-23 0-5.954-2.256-11.384-5.969-15.469-1.469-1.475-3.147-2.744-4.969-3.781zm4.969 3.781c3.854 4.113 6.219 9.637 6.219 15.719 0 12.703-10.297 23-23 23-6.081 0-11.606-2.364-15.719-6.219 4.16 4.144 9.883 6.719 16.219 6.719 12.703 0 23-10.298 23-23 0-6.335-2.575-12.06-6.719-16.219z" style="opacity:.05"/>
 <path d="m41.28 8.781c3.712 4.085 5.969 9.514 5.969 15.469 0 12.703-10.297 23-23 23-5.954 0-11.384-2.256-15.469-5.969 4.113 3.854 9.637 6.219 15.719 6.219 12.703 0 23-10.298 23-23 0-6.081-2.364-11.606-6.219-15.719z" style="opacity:.1"/>
 <path d="m31.25 2.375c8.615 3.154 14.75 11.417 14.75 21.13 0 12.426-10.07 22.5-22.5 22.5-9.708 0-17.971-6.135-21.12-14.75a23 23 0 0 0 44.875-7 23 23 0 0 0-16-21.875z" style="opacity:.2"/>
 <circle cx="24" cy="24" r="23" style="fill:url(#bg)"/>
 <path d="m40.03 7.531c3.712 4.084 5.969 9.514 5.969 15.469 0 12.703-10.297 23-23 23-5.954 0-11.384-2.256-15.469-5.969 4.178 4.291 10.01 6.969 16.469 6.969 12.703 0 23-10.298 23-23 0-6.462-2.677-12.291-6.969-16.469z" style="opacity:.1"/>
 <path d="m34 30c0 6-4 9-9 9s-9-3-9-9c0-7 4.8281-19 9-19s9 12 9 19z" style="opacity:.1;paint-order:normal"/>
 <path d="m33 29c0 6-4 9-9 9s-9-3-9-9c0-7 4.8281-19 9-19s9 12 9 19z" style="fill:#c4762f;paint-order:normal"/>
 <path d="m24 10.999c-3.5312 0-8 11-8 18 0 5 3.1719 8 8 8 1.6143 0 3.0373-0.34126 4.2246-0.97461 1.5704-2.3842 2.7754-5.0846 2.7754-8.0254 0.5737 1.3028 0.29843 3.5142-0.30859 5.7988 0.84242-1.271 1.3086-2.8874 1.3086-4.7988 0-7-4.4688-18-8-18zm-1.5 2s-0.5 3.4328-0.5 5c0 2.0276 1 5 1 6 0 1.4843-1.5 4-1.5 4s0.5-1.7656 0.5-4c0-1-1-3.6094-1-6 0-1.6997 1.5-5 1.5-5zm3.5 0s3 4.2847 3 9c0 2-0.35828 3.593-1 5v-5c0-3.625-1-6-2-9zm-7 6v3c0 2-0.29302 3.7766-1 6v-4c0-1.6997 1-5 1-5z" style="fill:#dea844;paint-order:normal"/>
 <path d="m19.5 29.999c-0.82843 0-1.5 0.89543-1.5 2 0.54417-0.99933 1.0847-1 1.5-1s0.92603 6.7e-4 1.5 1c0-1.1046-0.67157-2-1.5-2zm8 0c-0.82843 0-1.5 0.89543-1.5 2 0.54417-0.99933 1.0847-1 1.5-1s0.92603 6.7e-4 1.5 1c0-1.1046-0.67157-2-1.5-2zm-5 3a0.5 0.5 0 0 0-0.5 0.5c0 0.831 0.669 1.5 1.5 1.5s1.5-0.669 1.5-1.5a0.5 0.5 0 0 0-0.5-0.5 0.5 0.5 0 0 0-0.5 0.5c0 0.277-0.223 0.5-0.5 0.5s-0.5-0.223-0.5-0.5a0.5 0.5 0 0 0-0.5-0.5z" style="fill:#403b3c;paint-order:normal"/>
</svg>
