<svg xmlns="http://www.w3.org/2000/svg" viewBox="0 0 48 48">
 <defs>
  <linearGradient id="linearGradient4064" x1="1" x2="47" gradientUnits="userSpaceOnUse">
   <stop style="stop-color:#e52f33;stop-opacity:1"/>
   <stop offset="1" style="stop-color:#e74145;stop-opacity:1"/>
  </linearGradient>
 </defs>
 <g>
  <path d="m 36.31 5 c 5.859 4.062 9.688 10.831 9.688 18.5 c 0 12.426 -10.07 22.5 -22.5 22.5 c -7.669 0 -14.438 -3.828 -18.5 -9.688 c 1.037 1.822 2.306 3.499 3.781 4.969 c 4.085 3.712 9.514 5.969 15.469 5.969 c 12.703 0 23 -10.298 23 -23 c 0 -5.954 -2.256 -11.384 -5.969 -15.469 c -1.469 -1.475 -3.147 -2.744 -4.969 -3.781 z m 4.969 3.781 c 3.854 4.113 6.219 9.637 6.219 15.719 c 0 12.703 -10.297 23 -23 23 c -6.081 0 -11.606 -2.364 -15.719 -6.219 c 4.16 4.144 9.883 6.719 16.219 6.719 c 12.703 0 23 -10.298 23 -23 c 0 -6.335 -2.575 -12.06 -6.719 -16.219 z" style="opacity:0.05"/>
  <path d="m 41.28 8.781 c 3.712 4.085 5.969 9.514 5.969 15.469 c 0 12.703 -10.297 23 -23 23 c -5.954 0 -11.384 -2.256 -15.469 -5.969 c 4.113 3.854 9.637 6.219 15.719 6.219 c 12.703 0 23 -10.298 23 -23 c 0 -6.081 -2.364 -11.606 -6.219 -15.719 z" style="opacity:0.1"/>
  <path d="m 31.25 2.375 c 8.615 3.154 14.75 11.417 14.75 21.13 c 0 12.426 -10.07 22.5 -22.5 22.5 c -9.708 0 -17.971 -6.135 -21.12 -14.75 a 23 23 0 0 0 44.875 -7 a 23 23 0 0 0 -16 -21.875 z" style="opacity:0.2"/>
 </g>
 <g transform="matrix(0,-1,1,0,0,48)" style="fill:url(#linearGradient4064);fill-opacity:1">
  <path d="M 24,1 C 36.703,1 47,11.297 47,24 47,36.703 36.703,47 24,47 11.297,47 1,36.703 1,24 1,11.297 11.297,1 24,1 z"/>
 </g>
 <g>
  <path d="m 40.03 7.531 c 3.712 4.084 5.969 9.514 5.969 15.469 0 12.703 -10.297 23 -23 23 c -5.954 0 -11.384 -2.256 -15.469 -5.969 4.178 4.291 10.01 6.969 16.469 6.969 c 12.703 0 23 -10.298 23 -23 0 -6.462 -2.677 -12.291 -6.969 -16.469 z" style="opacity:0.1"/>
 </g>
 <path d="m 39.75 7.344 -0.063 0.063 -7.75 4.313 -14.938 8.281 0 9 2.344 0.938 1.406 0.563 -0.969 1.031 -1.031 1.094 -3.531 3.719 -5.5 5.844 c 0.401 0.357 0.824 0.703 1.25 1.031 l 8.06 -4.469 13.969 -7.75 0 -9 -2.344 -0.938 -1.406 -0.563 0.969 -1.031 3.781 -4 1.281 -1.344 5.406 -5.719 0.125 -0.094 c -0.347 -0.329 -0.696 -0.662 -1.063 -0.969 z m -14.75 2.656 c -8.284 0 -15 6.716 -15 15 0 4.04 1.595 7.683 4.188 10.375 l 4.188 -4.438 -2.375 -0.938 0 -11 14.375 -7.969 c -1.67 -0.642 -3.479 -1.031 -5.375 -1.031 z m 11.594 0.688 -2.375 2.5 -10.219 10.813 1 1 3.281 -3.469 3.719 1.469 0 7 -14.438 8 -4.156 2.313 2.906 -3.094 9.688 -10.219 -1 -1 -3.281 3.469 -3.719 -1.469 0 -7 18.594 -10.313 z m -0.344 4.438 -4.625 4.938 2.375 0.938 0 11 -13.25 7.375 c 1.346 0.396 2.776 0.625 4.25 0.625 8.284 0 15 -6.716 15 -15 0 -3.791 -1.431 -7.241 -3.75 -9.875 z" style="fill:#000;opacity:0.108;fill-opacity:1;stroke:none;fill-rule:nonzero"/>
 <path d="m 38.75 6.344 l -0.063 0.063 l -7.75 4.313 l -14.938 8.281 l 0 9 l 2.344 0.938 l 1.406 0.563 l -0.969 1.031 l -1.031 1.094 l -3.531 3.719 l -5.5 5.844 c 0.401 0.357 0.824 0.703 1.25 1.031 l 8.06 -4.469 l 13.969 -7.75 l 0 -9 l -2.344 -0.938 l -1.406 -0.563 l 0.969 -1.031 l 3.781 -4 l 1.281 -1.344 l 5.406 -5.719 l 0.125 -0.094 c -0.347 -0.329 -0.696 -0.662 -1.063 -0.969 z m -14.75 2.656 c -8.284 0 -15 6.716 -15 15 c 0 4.04 1.595 7.683 4.188 10.375 l 4.188 -4.438 l -2.375 -0.938 l 0 -11 l 14.375 -7.969 c -1.67 -0.642 -3.479 -1.031 -5.375 -1.031 z m 11.594 0.688 l -2.375 2.5 l -10.219 10.813 l 1 1 l 3.281 -3.469 l 3.719 1.469 l 0 7 l -14.438 8 l -4.156 2.313 l 2.906 -3.094 l 9.688 -10.219 l -1 -1 l -3.281 3.469 l -3.719 -1.469 l 0 -7 l 18.594 -10.313 z m -0.344 4.438 l -4.625 4.938 l 2.375 0.938 l 0 11 l -13.25 7.375 c 1.346 0.396 2.776 0.625 4.25 0.625 c 8.284 0 15 -6.716 15 -15 c 0 -3.791 -1.431 -7.241 -3.75 -9.875 z" style="fill:#f8e10f;opacity:1;fill-opacity:1;stroke:none;fill-rule:nonzero"/>
</svg>
