<svg xmlns="http://www.w3.org/2000/svg" viewBox="0 0 48 48">
 <defs>
  <linearGradient id="linearGradient3764" x1="1" x2="47" gradientUnits="userSpaceOnUse" gradientTransform="matrix(0,-1,1,0,-1.5e-6,47.999998)">
   <stop style="stop-color:#e7e7e7;stop-opacity:1"/>
   <stop offset="1" style="stop-color:#f1f1f1;stop-opacity:1"/>
  </linearGradient>
 </defs>
 <g>
  <path d="m 36.31 5 c 5.859 4.062 9.688 10.831 9.688 18.5 c 0 12.426 -10.07 22.5 -22.5 22.5 c -7.669 0 -14.438 -3.828 -18.5 -9.688 c 1.037 1.822 2.306 3.499 3.781 4.969 c 4.085 3.712 9.514 5.969 15.469 5.969 c 12.703 0 23 -10.298 23 -23 c 0 -5.954 -2.256 -11.384 -5.969 -15.469 c -1.469 -1.475 -3.147 -2.744 -4.969 -3.781 z m 4.969 3.781 c 3.854 4.113 6.219 9.637 6.219 15.719 c 0 12.703 -10.297 23 -23 23 c -6.081 0 -11.606 -2.364 -15.719 -6.219 c 4.16 4.144 9.883 6.719 16.219 6.719 c 12.703 0 23 -10.298 23 -23 c 0 -6.335 -2.575 -12.06 -6.719 -16.219 z" style="opacity:0.05"/>
  <path d="m 41.28 8.781 c 3.712 4.085 5.969 9.514 5.969 15.469 c 0 12.703 -10.297 23 -23 23 c -5.954 0 -11.384 -2.256 -15.469 -5.969 c 4.113 3.854 9.637 6.219 15.719 6.219 c 12.703 0 23 -10.298 23 -23 c 0 -6.081 -2.364 -11.606 -6.219 -15.719 z" style="opacity:0.1"/>
  <path d="m 31.25 2.375 c 8.615 3.154 14.75 11.417 14.75 21.13 c 0 12.426 -10.07 22.5 -22.5 22.5 c -9.708 0 -17.971 -6.135 -21.12 -14.75 a 23 23 0 0 0 44.875 -7 a 23 23 0 0 0 -16 -21.875 z" style="opacity:0.2"/>
 </g>
 <g transform="matrix(0.8936995,0,0,0.8936995,2.5512121,2.5512121)">
  <path d="M 24,1 C 36.703,1 47,11.297 47,24 47,36.703 36.703,47 24,47 11.297,47 1,36.703 1,24 1,11.297 11.297,1 24,1 z" style="fill:url(#linearGradient3764);fill-opacity:1"/>
  <path d="m 24 3.445 c -11.353 0 -20.555 9.202 -20.555 20.555 c 0 11.353 9.202 20.555 20.555 20.555 c 1.907 0 3.752 -0.264 5.504 -0.75 c 0.047 -0.779 0.081 -1.742 0.174 -2.592 c 0.102 -0.898 0.465 -8.432 1.762 -10.428 c 1.297 -1.996 4.992 -4.387 6.289 -4.633 c 1.297 -0.25 1.078 -0.77 1.078 -1.223 c 0 -0.453 -0.227 -1.434 -0.574 -1.582 c -0.352 -0.148 -1.707 0.727 -2.16 0.824 c -0.449 0.102 -2.602 0.285 -2.91 -0.215 c -0.297 -0.5 2.414 -5.586 2.773 -6.18 c 0.352 -0.598 0.504 -1.418 -0.148 -2.266 c -0.645 -0.844 -1.082 -1.689 -1.328 -1.689 c -0.82 0 -2.422 1.891 -3.02 2.191 c -0.598 0.301 -5.336 3.68 -5.785 4.273 c -0.449 0.602 -1.043 0.844 -1.688 0.789 c -0.648 -0.047 -2.723 -0.07 -3.414 0.324 c -0.699 0.398 -3.91 3.66 -4.711 4.063 c -0.805 0.398 -1.846 0.637 -2.346 0.688 c -0.5 0.047 -2.137 1.877 -2.586 2.229 c -0.441 0.352 -3.982 1.889 -4.482 2.193 c -0.5 0.297 3.643 4.502 4.232 4.6 c 0.566 0.094 -0.32 2.125 -1.395 2.336 c -2.738 -3.438 -4.383 -7.775 -4.383 -12.51 c 0 -11.12 9.01 -20.13 20.13 -20.13 l -0.014 0.002 c 7.487 0 14.01 4.1 17.48 10.172 c -3.331 -6.859 -10.343 -11.598 -18.48 -11.598 z m 0.176 19.75 c 0.208 0.017 0.338 0.041 0.338 0.041 c 0.227 0.531 -0.844 2.18 -1.832 2.41 c -0.988 0.227 -3.266 3.598 -3.34 2.836 c -0.078 -0.762 0.906 -3.281 2.047 -4.418 c 0.57 -0.57 1.34 -0.797 1.977 -0.859 l -0.004 -0.004 c 0.319 -0.032 0.606 -0.022 0.814 -0.006 z" transform="matrix(1.1189443,0,0,1.1189443,-2.8546643,-2.8546643)" style="fill:#000;opacity:0.1;fill-opacity:1"/>
 </g>
 <g>
  <g>
   <g transform="translate(1,1)">
    <g style="opacity:0.1">
     <!-- color: #f1f1f1 -->
    </g>
   </g>
  </g>
 </g>
 <g>
  <g>
   <!-- color: #f1f1f1 -->
   <g>
    <path d="m 24 1 c -12.703 0 -23 10.297 -23 23 c 0 12.703 10.297 23 23 23 c 12.703 0 23 -10.297 23 -23 c 0 -12.703 -10.297 -23 -23 -23 m 0 2.871 c 11.11 0 20.13 9.01 20.13 20.13 c 0 9.504 -6.59 17.48 -15.453 19.586 c -0.09 -0.18 -0.199 -0.371 -0.18 -0.648 c 0.051 -0.797 0.082 -1.832 0.18 -2.727 c 0.102 -0.898 0.465 -8.43 1.762 -10.426 c 1.297 -1.996 4.992 -4.387 6.289 -4.633 c 1.297 -0.25 1.078 -0.77 1.078 -1.223 c 0 -0.453 -0.227 -1.434 -0.574 -1.582 c -0.352 -0.148 -1.707 0.727 -2.16 0.824 c -0.449 0.102 -2.602 0.285 -2.91 -0.215 c -0.297 -0.5 2.414 -5.586 2.773 -6.18 c 0.352 -0.598 0.504 -1.418 -0.148 -2.266 c -0.645 -0.844 -1.082 -1.688 -1.328 -1.688 c -0.82 0 -2.422 1.891 -3.02 2.191 c -0.598 0.301 -5.336 3.68 -5.785 4.273 c -0.449 0.602 -1.043 0.844 -1.688 0.789 c -0.648 -0.047 -2.723 -0.07 -3.414 0.324 c -0.699 0.398 -3.91 3.66 -4.711 4.063 c -0.805 0.398 -1.844 0.637 -2.344 0.688 c -0.5 0.047 -2.137 1.875 -2.586 2.227 c -0.441 0.352 -3.984 1.891 -4.484 2.195 c -0.5 0.297 3.645 4.5 4.234 4.598 c 0.566 0.094 -0.32 2.125 -1.395 2.336 c -2.738 -3.438 -4.383 -7.773 -4.383 -12.508 c 0 -11.12 9.01 -20.13 20.13 -20.13 m -1.652 18.332 c 0.637 -0.063 1.152 0.035 1.152 0.035 c 0.227 0.531 -0.844 2.18 -1.832 2.41 c -0.988 0.227 -3.266 3.598 -3.34 2.836 c -0.078 -0.762 0.906 -3.281 2.047 -4.418 c 0.57 -0.57 1.34 -0.797 1.977 -0.859 m -0.004 -0.004" style="fill:#5b7eaf;fill-opacity:1;stroke:none;fill-rule:nonzero"/>
   </g>
  </g>
 </g>
 <g>
  <path d="m 40.03 7.531 c 3.712 4.084 5.969 9.514 5.969 15.469 0 12.703 -10.297 23 -23 23 c -5.954 0 -11.384 -2.256 -15.469 -5.969 4.178 4.291 10.01 6.969 16.469 6.969 c 12.703 0 23 -10.298 23 -23 0 -6.462 -2.677 -12.291 -6.969 -16.469 z" style="opacity:0.1"/>
 </g>
</svg>
