<?xml version="1.0" encoding="UTF-8"?>
<svg version="1.1" viewBox="0 0 48 48" xmlns="http://www.w3.org/2000/svg">
 <defs>
  <linearGradient id="bg" x2="0" y1="1" y2="47" gradientUnits="userSpaceOnUse">
   <stop style="stop-color:#2e5970" offset="0"/>
   <stop style="stop-color:#284d61" offset="1"/>
  </linearGradient>
 </defs>
 <path d="m36.3 5c5.86 4.06 9.69 10.8 9.69 18.5 0 12.4-10.1 22.5-22.5 22.5-7.67 0-14.4-3.83-18.5-9.69 1.04 1.82 2.31 3.5 3.78 4.97 4.08 3.71 9.51 5.97 15.5 5.97 12.7 0 23-10.3 23-23 0-5.95-2.26-11.4-5.97-15.5-1.47-1.48-3.15-2.74-4.97-3.78zm4.97 3.78c3.85 4.11 6.22 9.64 6.22 15.7 0 12.7-10.3 23-23 23-6.08 0-11.6-2.36-15.7-6.22 4.16 4.14 9.88 6.72 16.2 6.72 12.7 0 23-10.3 23-23 0-6.34-2.58-12.1-6.72-16.2z" style="opacity:.05"/>
 <path d="m41.3 8.78c3.71 4.08 5.97 9.51 5.97 15.5 0 12.7-10.3 23-23 23-5.95 0-11.4-2.26-15.5-5.97 4.11 3.85 9.64 6.22 15.7 6.22 12.7 0 23-10.3 23-23 0-6.08-2.36-11.6-6.22-15.7z" style="opacity:.1"/>
 <path d="m31.2 2.38c8.62 3.15 14.8 11.4 14.8 21.1 0 12.4-10.1 22.5-22.5 22.5-9.71 0-18-6.14-21.1-14.8a23 23 0 0 0 44.9-7 23 23 0 0 0-16-21.9z" style="opacity:.2"/>
 <circle cx="24" cy="24" r="23" style="fill:url(#bg)"/>
 <path d="m40 7.53c3.71 4.08 5.97 9.51 5.97 15.5 0 12.7-10.3 23-23 23-5.95 0-11.4-2.26-15.5-5.97 4.18 4.29 10 6.97 16.5 6.97 12.7 0 23-10.3 23-23 0-6.46-2.68-12.3-6.97-16.5z" style="opacity:.1"/>
 <path d="m14 14 2.54 2.54c1.57-1.56 3.54-2.66 5.69-3.17l0.461 1.93c-4.5 1.07-7.68 5.07-7.69 9.7 0.0119 0.967 0.164 1.93 0.451 2.85l-1.92 0.572c-0.342-1.11-0.522-2.26-0.533-3.42 0.0059-1.05 0.149-2.09 0.426-3.1l-2.89-0.775 1.48 11.4s1.3 1.94 2.12 2.78c1.9 2.02 4.32 3.46 7 4.19l0.775-2.89c-2.14-0.585-4.07-1.75-5.58-3.37l1.44-1.36c1.88 2 4.5 3.14 7.24 3.15 2.75-0.0129 5.37-1.16 7.25-3.16l1.44 1.36c-1.52 1.62-3.45 2.79-5.59 3.38l0.775 2.89c4.89-1.33 7.77-4.71 9.1-7 1.06-1.88 2.91-6.16 1.51-11.4l-2.9 0.777c0.272 1.01 0.411 2.06 0.412 3.11-0.0112 1.15-0.188 2.3-0.525 3.4l-1.92-0.572c0.282-0.915 0.432-1.87 0.443-2.82-6.72e-4 -4.63-3.18-8.65-7.68-9.73l0.453-1.91c2.16 0.503 4.14 1.6 5.71 3.15l2.12-2.12c-1.97-1.95-4.44-3.32-7.14-3.96zm12.6 4.19c3.15 0.751 5.38 3.57 5.38 6.81l-1.92 4.79-5.08 2.21c-1.92-0.0066-3.76-0.803-5.07-2.2l1.42-1.35c-0.539-0.578-0.933-1.27-1.15-2.02l-1.87 0.559c-0.204-0.645-0.313-1.32-0.324-1.99 0.0091-3.24 2.23-6.04 5.38-6.79l0.471 1.97c0.446-0.12 0.906-0.182 1.37-0.184 0.318 6.31e-4 0.635 0.0294 0.947 0.0859z" style="opacity:.1"/>
 <path d="m27.4 9.41-6.85 0.0312c-2.69 0.645-5.15 2.02-7.11 3.98l2.12 2.12c2.24-2.25 5.28-3.53 8.46-3.54 3.18 4.79e-4 6.23 1.27 8.48 3.52l2.12-2.12c-1.99-1.98-4.49-3.36-7.23-3.98zm-3.38 4.59c-5.52 1e-6 -10 4.48-10 10s4.48 10 10 10c5.52 0 10-4.48 10-10s-4.48-10-10-10zm0 3c3.87 0 7 3.13 7 7s-3.13 7-7 7-7-3.13-7-7 3.13-7 7-7zm14.5 3.12-2.9 0.777c0.272 1.01 0.411 2.06 0.412 3.11-0.0082 5.43-3.66 10.2-8.9 11.6l0.775 2.89c2.69-0.728 5.12-2.19 7.02-4.22l3.43-6c0.448-1.43 0.666-2.75 0.672-4.25-0.0014-1.31-0.175-2.62-0.516-3.88zm-29 0.00586c-0.346 1.26-0.524 2.57-0.531 3.88 2e-3 1.46 0.216 2.9 0.635 4.3l3.48 5.96c1.9 2.03 4.33 3.48 7.01 4.21l0.775-2.89c-5.24-1.4-8.89-6.15-8.9-11.6 0.0059-1.05 0.149-2.09 0.426-3.1l-2.89-0.775z" style="fill:#2d8ceb"/>
 <path d="m27.4 9.41-3.38 2.59c1.34 0.0062 2.67 0.237 3.93 0.682l0.828-2.85c-0.453-0.161-0.913-0.301-1.38-0.418zm-3.38 4.59v3c0.952 0.0012 1.89 0.197 2.77 0.574l0.703-2.95c-1.11-0.412-2.29-0.623-3.47-0.623zm-6.21 13.2-2.9 0.867c0.649 1.48 1.65 2.78 2.91 3.79l2.21-2.09c-0.937-0.664-1.7-1.55-2.21-2.58zm-4.82 1.44-0.383 4.76c0.367 0.536 0.769 1.05 1.2 1.53 0.126 0.122 0.254 0.242 0.385 0.359l2.18-2.06c-1.48-1.23-2.64-2.81-3.39-4.59z" style="opacity:.1"/>
 <path d="m24 9a15 15 0 0 0-3.47 0.441l2.32 9.74a5.22 5.06 0 0 1 1.37-0.184 5.22 5.06 0 0 1 0.947 0.0859l2.3-9.68a15 15 0 0 0-3.47-0.41zm-4.8 16.4-9.57 2.85a15 15 0 0 0 1.38 3.21 15 15 0 0 0 2.12 2.78l7.22-6.83a5.22 5.06 0 0 1-1.15-2.02zm10 0.0977a5.22 5.06 0 0 1-1.33 2.12l7 6.62a15 15 0 0 0 2.09-2.8 15 15 0 0 0 1.35-3.22z" style="fill:#699cf3"/>
</svg>
