<svg version="1.1" viewBox="0 0 48 48" xmlns="http://www.w3.org/2000/svg">
 <defs>
  <linearGradient id="bg" x2="0" y1="1" y2="47" gradientUnits="userSpaceOnUse">
   <stop style="stop-color:#464181" offset="0"/>
   <stop style="stop-color:#3f3a74" offset="1"/>
  </linearGradient>
 </defs>
 <path d="m36.3 5c5.86 4.06 9.69 10.8 9.69 18.5 0 12.4-10.1 22.5-22.5 22.5-7.67 0-14.4-3.83-18.5-9.69 1.04 1.82 2.31 3.5 3.78 4.97 4.08 3.71 9.51 5.97 15.5 5.97 12.7 0 23-10.3 23-23 0-5.95-2.26-11.4-5.97-15.5-1.47-1.48-3.15-2.74-4.97-3.78zm4.97 3.78c3.85 4.11 6.22 9.64 6.22 15.7 0 12.7-10.3 23-23 23-6.08 0-11.6-2.36-15.7-6.22 4.16 4.14 9.88 6.72 16.2 6.72 12.7 0 23-10.3 23-23 0-6.34-2.58-12.1-6.72-16.2z" style="opacity:.05"/>
 <path d="m41.3 8.78c3.71 4.08 5.97 9.51 5.97 15.5 0 12.7-10.3 23-23 23-5.95 0-11.4-2.26-15.5-5.97 4.11 3.85 9.64 6.22 15.7 6.22 12.7 0 23-10.3 23-23 0-6.08-2.36-11.6-6.22-15.7z" style="opacity:.1"/>
 <path d="m31.2 2.38c8.62 3.15 14.8 11.4 14.8 21.1 0 12.4-10.1 22.5-22.5 22.5-9.71 0-18-6.14-21.1-14.8a23 23 0 0 0 44.9-7 23 23 0 0 0-16-21.9z" style="opacity:.2"/>
 <circle cx="24" cy="24" r="23" style="fill:url(#bg)"/>
 <path d="m40 7.53c3.71 4.08 5.97 9.51 5.97 15.5 0 12.7-10.3 23-23 23-5.95 0-11.4-2.26-15.5-5.97 4.18 4.29 10 6.97 16.5 6.97 12.7 0 23-10.3 23-23 0-6.46-2.68-12.3-6.97-16.5z" style="opacity:.1"/>
 <path d="m19 15s-8 0-8 9c0 2.69 1.07 4.9 4 7 7 5 10 8 10 8s-5-7-8-9c-1.86-1.24-4-3-4-6 0-5 3.5-7 6-7zm6 24s3-3 10-8c2.93-2.1 4-4.31 4-7 0-9-8-9-8-9v2c2.5 0 6 2 6 7 0 3-2.14 4.76-4 6-3 2-8 9-8 9zm-5-24v16.3c0.681 0.702 1.35 1.47 2 2.24v-16.5s2 0 2 3v8h2v-8c0-3 2-3 2-3v16.5c0.648-0.771 1.32-1.53 2-2.24v-16.3c-5 0-5 4-5 4s0-4-5-4zm-1 3c-2.76 0-5 2.46-5 5.5s2.24 5.5 5 5.5v-2c-1.66 0-3-1.57-3-3.5s1.34-3.5 3-3.5zm12 0v2c1.66 0 3 1.57 3 3.5s-1.34 3.5-3 3.5v2c2.76 0 5-2.46 5-5.5s-2.24-5.5-5-5.5z" style="opacity:.1"/>
 <path d="m18 14s-8 0-8 9c0 2.69 1.07 4.9 4 7 7 5 10 8 10 8s-5-7-8-9c-1.86-1.24-4-3-4-6 0-5 3.5-7 6-7zm6 24s3-3 10-8c2.93-2.1 4-4.31 4-7 0-9-8-9-8-9v2c2.5 0 6 2 6 7 0 3-2.14 4.76-4 6-3 2-8 9-8 9z" style="fill:#ce4a7f"/>
 <path d="m19 20v5l1 1 1-1v-5l-1-1zm4 0v5l1 1 1-1v-5l-1-1zm4 0v5l1 1 1-1v-5l-1-1z" style="fill:#f849ed"/>
 <path d="m19 20h2v-4s2 0 2 3v1h2v-1c0-3 2-3 2-3v4h2v-6c-5 0-5 4-5 4s0-4-5-4z" style="fill:#f74aa7"/>
 <path d="m19 25v5.3c0.681 0.702 1.35 1.47 2 2.24v-7.54h-2zm4 0v2h2v-2h-2zm4 0v7.54c0.648-0.771 1.32-1.53 2-2.24v-5.3h-2z" style="fill:#3badf2"/>
 <path d="m18 17a5 5.5 0 0 0-5 5.5 5 5.5 0 0 0 5 5.5v-2a3 3.5 0 0 1-3-3.5 3 3.5 0 0 1 3-3.5z" style="fill:#f8bfea"/>
 <path d="m30 17a5 5.5 0 0 1 5 5.5 5 5.5 0 0 1-5 5.5v-2a3 3.5 0 0 0 3-3.5 3 3.5 0 0 0-3-3.5z" style="fill:#a2d2cf"/>
</svg>
