<svg version="1.1" viewBox="0 0 48 48" xmlns="http://www.w3.org/2000/svg">
 <defs>
  <linearGradient id="bg" x1="1" x2="47" gradientTransform="matrix(0 -1 1 0 -1.5e-6 48)" gradientUnits="userSpaceOnUse">
   <stop style="stop-color:#3d3d3d" offset="0"/>
   <stop style="stop-color:#474747" offset="1"/>
  </linearGradient>
 </defs>
 <path d="m36.31 5c5.859 4.062 9.688 10.831 9.688 18.5 0 12.426-10.07 22.5-22.5 22.5-7.669 0-14.438-3.828-18.5-9.688 1.037 1.822 2.306 3.499 3.781 4.969 4.085 3.712 9.514 5.969 15.469 5.969 12.703 0 23-10.298 23-23 0-5.954-2.256-11.384-5.969-15.469-1.469-1.475-3.147-2.744-4.969-3.781zm4.969 3.781c3.854 4.113 6.219 9.637 6.219 15.719 0 12.703-10.297 23-23 23-6.081 0-11.606-2.364-15.719-6.219 4.16 4.144 9.883 6.719 16.219 6.719 12.703 0 23-10.298 23-23 0-6.335-2.575-12.06-6.719-16.219z" style="opacity:.05"/>
 <path d="m41.28 8.781c3.712 4.085 5.969 9.514 5.969 15.469 0 12.703-10.297 23-23 23-5.954 0-11.384-2.256-15.469-5.969 4.113 3.854 9.637 6.219 15.719 6.219 12.703 0 23-10.298 23-23 0-6.081-2.364-11.606-6.219-15.719z" style="opacity:.1"/>
 <path d="m31.25 2.375c8.615 3.154 14.75 11.417 14.75 21.13 0 12.426-10.07 22.5-22.5 22.5-9.708 0-17.971-6.135-21.12-14.75a23 23 0 0 0 44.875-7 23 23 0 0 0-16-21.875z" style="opacity:.2"/>
 <path d="m24 1c12.703 0 23 10.297 23 23s-10.297 23-23 23-23-10.297-23-23 10.297-23 23-23z" style="fill:url(#bg)"/>
 <path d="m40.03 7.531c3.712 4.084 5.969 9.514 5.969 15.469 0 12.703-10.297 23-23 23-5.954 0-11.384-2.256-15.469-5.969 4.178 4.291 10.01 6.969 16.469 6.969 12.703 0 23-10.298 23-23 0-6.462-2.677-12.291-6.969-16.469z" style="opacity:.1"/>
 <path d="m19.428 16c-2.4278 9e-6 -4.9771 0.37115-7.4277 1.0039v6.3145c-0.85196-0.38009-1.6844-0.79637-2.4961-1.252-0.099147-0.05566-0.18919-0.07433-0.26758-0.06445-0.23517 0.02967-0.34296 0.30445-0.095703 0.51953 0.89605 0.78051 1.8533 1.471 2.8594 2.084v9.3945h5v-7.1543c1.5893 0.4909 3.2603 0.8236 5 1v6.1543h5v-6.1113c1.6756-0.17638 3.3701-0.56446 5-1.125v7.2363h5v-9.6406c0.25147-0.16211 0.49808-0.32764 0.73828-0.49805v-0.0039c0.58621-0.41967 0.08617-1.0382-0.51367-0.79688-0.08354 0.03429-0.17001 0.0656-0.25391 0.09961-0.0351-0.56256-0.10511-1.1042-0.21094-1.623 1.111-0.10427 2.3234-0.11618 2.6211 0.33594 0.45188 0.6774-0.50129 3.4815-0.91992 4.7324-0.12928 0.37855 0.14548 0.53303 0.43359 0.24414 1.8851-1.8614 2.3678-5.7621 1.9824-6.3242-0.17776-0.2635-0.9874-0.51118-2.0117-0.52539-0.74524-0.01035-1.6023 0.10545-2.4023 0.42188-0.89332-2.6454-2.9626-4.4219-6.6621-4.4219-1.8199-3e-6 -3.5686 0.54704-5.1797 1.6387-1.5163-1.045-3.1944-1.6387-5.1934-1.6387zm-0.42773 4c2.2126-1e-6 3.0174 2.4724 3 4.666v1.2051c-1.7272-0.14915-3.3938-0.42897-5-0.83008v-4.625s1-0.41602 2-0.41602zm10 0c2.2126-1e-6 3 2.0006 3 4.666v0.22656c-1.6797 0.47673-3.365 0.83061-5 0.99805v-1.4922c-0.02431-1.0959 0.03796-2.2442-0.31641-3.3984 0 0 1.26-1 2.3164-1z" style="opacity:.1"/>
 <path d="m21 23.665c0.01742-2.1936-0.7874-4.6654-3-4.6654-1 0-2 0.41635-2 0.41635v13.584h-5v-16.996c2.4507-0.63275 5-1.0037 7.4278-1.0037 1.9989-8e-6 3.6762 0.59445 5.1926 1.6394 1.6111-1.0916 3.3597-1.6394 5.1796-1.6394 5.221 1e-5 7.2 3.5355 7.2 8.0632v9.9368h-5v-9.3346c0-2.6654-0.7874-4.6654-3-4.6654-1.0564 0-2.3164 1-2.3164 1 0.35437 1.1542 0.29205 2.3019 0.31636 3.3978v9.6022h-5z" style="fill:#f9f9f9"/>
 <path d="m35.801 20.746c-0.20606 0.12001-0.4071 0.25066-0.59375 0.40625-0.31274 0.25616-0.26004 0.61426 0.085938 0.56445 0.16894-0.024354 0.41097-0.054887 0.63086-0.083985-0.03129-0.30226-0.070238-0.59798-0.12305-0.88672zm-24.801 2.1035v1.1094c1.5379 1.061 3.2127 1.9109 5 2.5527v-1.7363c-1.7401-0.49757-3.4063-1.1438-5-1.9258zm25 0.69336c-1.6335 0.62839-3.3175 1.1925-5 1.6191v1.9238c1.7576-0.5197 3.4572-1.2438 5-2.123v-1.4199zm-15 2.2266v1.957c1.2959 0.1793 2.6296 0.27344 4 0.27344 0.33113 0 0.66507-0.013098 1-0.03125v-2c-0.33583 0.018176-0.67021 0.03125-1 0.03125-1.3688 0-2.7015-0.078663-4-0.23047z" style="opacity:.1"/>
 <path d="m37.865 19c-1.1609-0.01611-2.5953 0.26628-3.6582 1.1523-0.31274 0.25616-0.26003 0.61426 0.085938 0.56445 1.1254-0.16224 3.6409-0.52258 4.0879 0.15625 0.45188 0.6774-0.50129 3.4815-0.91992 4.7324-0.12928 0.37855 0.14548 0.53303 0.43359 0.24414 1.8851-1.8614 2.3678-5.7621 1.9824-6.3242-0.17776-0.2635-0.9874-0.51118-2.0117-0.52539zm-29.629 2.002c-0.23517 0.02967-0.34296 0.30445-0.095703 0.51953 4.2063 3.664 9.6875 5.4785 15.859 5.4785 4.4046 0 9.2086-1.6346 12.738-4.1387v-0.003906c0.58621-0.41967 0.086173-1.0382-0.51367-0.79688-3.951 1.6216-8.3182 2.9395-12.225 2.9395-5.7952 0-10.96-1.3876-15.496-3.9336-0.099147-0.05566-0.18919-0.074333-0.26758-0.064453z" style="fill:#f2960d"/>
</svg>
