<svg version="1.1" viewBox="0 0 48 48" xmlns="http://www.w3.org/2000/svg">
 <defs>
  <linearGradient id="bg" x1="1" x2="47" gradientTransform="matrix(0 -1 1 0 -1.5e-6 48)" gradientUnits="userSpaceOnUse">
   <stop style="stop-color:#424242" offset="0"/>
   <stop style="stop-color:#4d4d4d" offset="1"/>
  </linearGradient>
 </defs>
 <path d="m36.3 5c5.86 4.06 9.69 10.8 9.69 18.5 0 12.4-10.1 22.5-22.5 22.5-7.67 0-14.4-3.83-18.5-9.69 1.04 1.82 2.31 3.5 3.78 4.97 4.08 3.71 9.51 5.97 15.5 5.97 12.7 0 23-10.3 23-23 0-5.95-2.26-11.4-5.97-15.5-1.47-1.48-3.15-2.74-4.97-3.78zm4.97 3.78c3.85 4.11 6.22 9.64 6.22 15.7 0 12.7-10.3 23-23 23-6.08 0-11.6-2.36-15.7-6.22 4.16 4.14 9.88 6.72 16.2 6.72 12.7 0 23-10.3 23-23 0-6.34-2.58-12.1-6.72-16.2z" style="opacity:.05"/>
 <path d="m41.3 8.78c3.71 4.08 5.97 9.51 5.97 15.5 0 12.7-10.3 23-23 23-5.95 0-11.4-2.26-15.5-5.97 4.11 3.85 9.64 6.22 15.7 6.22 12.7 0 23-10.3 23-23 0-6.08-2.36-11.6-6.22-15.7z" style="opacity:.1"/>
 <path d="m31.2 2.38c8.62 3.15 14.8 11.4 14.8 21.1 0 12.4-10.1 22.5-22.5 22.5-9.71 0-18-6.14-21.1-14.8a23 23 0 0 0 44.9-7 23 23 0 0 0-16-21.9z" style="opacity:.2"/>
 <path d="m24 1c12.7 0 23 10.3 23 23s-10.3 23-23 23-23-10.3-23-23 10.3-23 23-23z" style="fill:url(#bg)"/>
 <path d="m40 7.53c3.71 4.08 5.97 9.51 5.97 15.5 0 12.7-10.3 23-23 23-5.95 0-11.4-2.26-15.5-5.97 4.18 4.29 10 6.97 16.5 6.97 12.7 0 23-10.3 23-23 0-6.46-2.68-12.3-6.97-16.5z" style="opacity:.1"/>
 <path d="m19.4 16c-2.43 9e-6 -4.98 0.371-7.43 1v6.31c-0.852-0.38-1.68-0.796-2.5-1.25-0.0991-0.0557-0.189-0.0743-0.268-0.0644-0.235 0.0297-0.343 0.304-0.0957 0.52 0.896 0.781 1.85 1.47 2.86 2.08v9.39h5v-7.15c1.59 0.491 3.26 0.824 5 1v6.15h5v-6.11c1.68-0.176 3.37-0.564 5-1.12v7.24h5v-9.64c0.251-0.162 0.498-0.328 0.738-0.498v-0.0039c0.586-0.42 0.0862-1.04-0.514-0.797-0.0835 0.0343-0.17 0.0656-0.254 0.0996-0.0351-0.563-0.105-1.1-0.211-1.62 1.11-0.104 2.32-0.116 2.62 0.336 0.452 0.677-0.501 3.48-0.92 4.73-0.129 0.379 0.145 0.533 0.434 0.244 1.89-1.86 2.37-5.76 1.98-6.32-0.178-0.264-0.987-0.511-2.01-0.525-0.745-0.0104-1.6 0.105-2.4 0.422-0.893-2.65-2.96-4.42-6.66-4.42-1.82-3e-6 -3.57 0.547-5.18 1.64-1.52-1.04-3.19-1.64-5.19-1.64zm-0.428 4c2.21-1e-6 3.02 2.47 3 4.67v1.21c-1.73-0.149-3.39-0.429-5-0.83v-4.62s1-0.416 2-0.416zm10 0c2.21-1e-6 3 2 3 4.67v0.227c-1.68 0.477-3.36 0.831-5 0.998v-1.49c-0.0243-1.1 0.038-2.24-0.316-3.4 0 0 1.26-1 2.32-1z" style="opacity:.1"/>
 <path d="m21 23.7c0.0174-2.19-0.787-4.67-3-4.67-1 0-2 0.416-2 0.416v13.6h-5v-17c2.45-0.633 5-1 7.43-1 2-8e-6 3.68 0.594 5.19 1.64 1.61-1.09 3.36-1.64 5.18-1.64 5.22 1e-5 7.2 3.54 7.2 8.06v9.94h-5v-9.33c0-2.67-0.787-4.67-3-4.67-1.06 0-2.32 1-2.32 1 0.354 1.15 0.292 2.3 0.316 3.4v9.6h-5z" style="fill:#f9f9f9"/>
 <path d="m35.8 20.7c-0.206 0.12-0.407 0.251-0.594 0.406-0.313 0.256-0.26 0.614 0.0859 0.564 0.169-0.0244 0.411-0.0549 0.631-0.084-0.0313-0.302-0.0702-0.598-0.123-0.887zm-24.8 2.1v1.11c1.54 1.06 3.21 1.91 5 2.55v-1.74c-1.74-0.498-3.41-1.14-5-1.93zm25 0.693c-1.63 0.628-3.32 1.19-5 1.62v1.92c1.76-0.52 3.46-1.24 5-2.12v-1.42zm-15 2.23v1.96c1.3 0.179 2.63 0.273 4 0.273 0.331 0 0.665-0.0131 1-0.0312v-2c-0.336 0.0182-0.67 0.0312-1 0.0312-1.37 0-2.7-0.0787-4-0.23z" style="opacity:.1"/>
 <path d="m37.9 19c-1.16-0.0161-2.6 0.266-3.66 1.15-0.313 0.256-0.26 0.614 0.0859 0.564 1.13-0.162 3.64-0.523 4.09 0.156 0.452 0.677-0.501 3.48-0.92 4.73-0.129 0.379 0.145 0.533 0.434 0.244 1.89-1.86 2.37-5.76 1.98-6.32-0.178-0.264-0.987-0.511-2.01-0.525zm-29.6 2c-0.235 0.0297-0.343 0.304-0.0957 0.52 4.21 3.66 9.69 5.48 15.9 5.48 4.4 0 9.21-1.63 12.7-4.14v-0.00391c0.586-0.42 0.0862-1.04-0.514-0.797-3.95 1.62-8.32 2.94-12.2 2.94-5.8 0-11-1.39-15.5-3.93-0.0991-0.0557-0.189-0.0743-0.268-0.0645z" style="fill:#f2960d"/>
</svg>
