<svg version="1.1" viewBox="0 0 48 48" xmlns="http://www.w3.org/2000/svg">
 <defs>
  <linearGradient id="linearGradient3764" x1="1" x2="47" gradientTransform="matrix(0 -1 1 0 -1.5e-6 48)" gradientUnits="userSpaceOnUse">
   <stop style="stop-color:#397ea3" offset="0"/>
   <stop style="stop-color:#3e89b2" offset="1"/>
  </linearGradient>
 </defs>
 <path d="m36.31 5c5.859 4.062 9.688 10.831 9.688 18.5 0 12.426-10.07 22.5-22.5 22.5-7.669 0-14.438-3.828-18.5-9.688 1.037 1.822 2.306 3.499 3.781 4.969 4.085 3.712 9.514 5.969 15.469 5.969 12.703 0 23-10.298 23-23 0-5.954-2.256-11.384-5.969-15.469-1.469-1.475-3.147-2.744-4.969-3.781zm4.969 3.781c3.854 4.113 6.219 9.637 6.219 15.719 0 12.703-10.297 23-23 23-6.081 0-11.606-2.364-15.719-6.219 4.16 4.144 9.883 6.719 16.219 6.719 12.703 0 23-10.298 23-23 0-6.335-2.575-12.06-6.719-16.219z" style="opacity:.05"/>
 <path d="m41.28 8.781c3.712 4.085 5.969 9.514 5.969 15.469 0 12.703-10.297 23-23 23-5.954 0-11.384-2.256-15.469-5.969 4.113 3.854 9.637 6.219 15.719 6.219 12.703 0 23-10.298 23-23 0-6.081-2.364-11.606-6.219-15.719z" style="opacity:.1"/>
 <path d="m31.25 2.375c8.615 3.154 14.75 11.417 14.75 21.13 0 12.426-10.07 22.5-22.5 22.5-9.708 0-17.971-6.135-21.12-14.75a23 23 0 0 0 44.875-7 23 23 0 0 0-16-21.875z" style="opacity:.2"/>
 <path d="m24 1c12.703 0 23 10.297 23 23s-10.297 23-23 23-23-10.297-23-23 10.297-23 23-23z" style="fill:url(#linearGradient3764)"/>
 <g transform="translate(1,1)"></g>
 <path d="m40.03 7.531c3.712 4.084 5.969 9.514 5.969 15.469 0 12.703-10.297 23-23 23-5.954 0-11.384-2.256-15.469-5.969 4.178 4.291 10.01 6.969 16.469 6.969 12.703 0 23-10.298 23-23 0-6.462-2.677-12.291-6.969-16.469z" style="opacity:.1"/>
 <path d="m20.287 11.998 2e-3 2e-3c-0.229 0.01-0.36409 0.26103-0.24609 0.45703l0.94727 1.6289c-1.873 1.122-2.9893 2.956-2.9903 4.914h14c-4e-3 -1.957-1.1211-3.7902-2.9941-4.9102l0.95117-1.6328c0.119-0.2-0.02286-0.45403-0.25586-0.45703-0.111-2e-3 -0.21258 0.0583-0.26758 0.1543l-0.95898 1.6465c-1.057-0.522-2.2566-0.80173-3.4766-0.80273s-2.4186 0.27783-3.4766 0.79883l-0.95703-1.6445c-0.056-0.1-0.16334-0.1593-0.27734-0.1543zm1.2109 4c0.276 0 0.5 0.224 0.5 0.5s-0.224 0.5-0.5 0.5-0.5-0.224-0.5-0.5 0.224-0.5 0.5-0.5zm7 0c0.276 0 0.5 0.224 0.5 0.5s-0.224 0.5-0.5 0.5-0.5-0.224-0.5-0.5 0.224-0.5 0.5-0.5zm-13 4c-0.831 0-1.5 0.669-1.5 1.5v7c0 0.831 0.669 1.5 1.5 1.5s1.5-0.669 1.5-1.5v-7c0-0.831-0.669-1.5-1.5-1.5zm2.5 0v11c0 1.108 0.892 2 2 2h1v3.5c0 0.831 0.669 1.5 1.5 1.5s1.5-0.669 1.5-1.5v-3.5h2v3.5c0 0.831 0.669 1.5 1.5 1.5s1.5-0.669 1.5-1.5v-3.5h1c1.108 0 2-0.892 2-2v-11zm16.5 0c-0.831 0-1.5 0.669-1.5 1.5v7c0 0.831 0.669 1.5 1.5 1.5s1.5-0.669 1.5-1.5v-7c0-0.831-0.669-1.5-1.5-1.5zm-12.498 2.002h6c1.108 0 2 0.892 2 2v3c0 1.108-0.892 2-2 2v2l-2-2h-4c-1.108 0-2-0.892-2-2v-3c0-1.108 0.892-2 2-2z" style="opacity:.1"/>
 <path d="m19.287 10.998 2e-3 2e-3c-0.229 0.01-0.36409 0.26103-0.24609 0.45703l0.94726 1.6289c-1.873 1.122-2.9892 2.9561-2.9902 4.9141h14c-4e-3 -1.957-1.1211-3.7902-2.9941-4.9102l0.95117-1.6328c0.119-0.2-0.02286-0.45403-0.25586-0.45703-0.111-2e-3 -0.21258 0.0583-0.26758 0.1543l-0.95898 1.6465c-1.057-0.522-2.2566-0.80173-3.4766-0.80273s-2.4186 0.27783-3.4766 0.79883l-0.95703-1.6445c-0.056-0.1-0.16334-0.1593-0.27734-0.1543zm1.2109 4c0.276 0 0.5 0.224 0.5 0.5s-0.224 0.5-0.5 0.5-0.5-0.224-0.5-0.5 0.224-0.5 0.5-0.5zm7 0c0.276 0 0.5 0.224 0.5 0.5s-0.224 0.5-0.5 0.5-0.5-0.224-0.5-0.5 0.224-0.5 0.5-0.5zm-13 4c-0.831 0-1.5 0.669-1.5 1.5v7c0 0.831 0.669 1.5 1.5 1.5s1.5-0.669 1.5-1.5v-7c0-0.831-0.669-1.5-1.5-1.5zm2.5 0v11c0 1.108 0.892 2 2 2h1v3.5c0 0.831 0.669 1.5 1.5 1.5s1.5-0.669 1.5-1.5v-3.5h2v3.5c0 0.831 0.669 1.5 1.5 1.5s1.5-0.669 1.5-1.5v-3.5h1c1.108 0 2-0.892 2-2v-11zm16.5 0c-0.831 0-1.5 0.669-1.5 1.5v7c0 0.831 0.669 1.5 1.5 1.5s1.5-0.669 1.5-1.5v-7c0-0.831-0.669-1.5-1.5-1.5zm-12.498 2.002h6c1.108 0 2 0.892 2 2v3c0 1.108-0.892 2-2 2v2l-2-2h-4c-1.108 0-2-0.892-2-2v-3c0-1.108 0.892-2 2-2z" style="fill:#f9f9f9"/>
</svg>
