<svg xmlns="http://www.w3.org/2000/svg" viewBox="0 0 48 48">
 <defs>
  <linearGradient id="linearGradient4279" x1="1" x2="47" gradientUnits="userSpaceOnUse">
   <stop style="stop-color:#e8a803;stop-opacity:1"/>
   <stop offset="1" style="stop-color:#fcb704;stop-opacity:1"/>
  </linearGradient>
 </defs>
 <g>
  <path d="m 36.31 5 c 5.859 4.062 9.688 10.831 9.688 18.5 c 0 12.426 -10.07 22.5 -22.5 22.5 c -7.669 0 -14.438 -3.828 -18.5 -9.688 c 1.037 1.822 2.306 3.499 3.781 4.969 c 4.085 3.712 9.514 5.969 15.469 5.969 c 12.703 0 23 -10.298 23 -23 c 0 -5.954 -2.256 -11.384 -5.969 -15.469 c -1.469 -1.475 -3.147 -2.744 -4.969 -3.781 z m 4.969 3.781 c 3.854 4.113 6.219 9.637 6.219 15.719 c 0 12.703 -10.297 23 -23 23 c -6.081 0 -11.606 -2.364 -15.719 -6.219 c 4.16 4.144 9.883 6.719 16.219 6.719 c 12.703 0 23 -10.298 23 -23 c 0 -6.335 -2.575 -12.06 -6.719 -16.219 z" style="opacity:0.05"/>
  <path d="m 41.28 8.781 c 3.712 4.085 5.969 9.514 5.969 15.469 c 0 12.703 -10.297 23 -23 23 c -5.954 0 -11.384 -2.256 -15.469 -5.969 c 4.113 3.854 9.637 6.219 15.719 6.219 c 12.703 0 23 -10.298 23 -23 c 0 -6.081 -2.364 -11.606 -6.219 -15.719 z" style="opacity:0.1"/>
  <path d="m 31.25 2.375 c 8.615 3.154 14.75 11.417 14.75 21.13 c 0 12.426 -10.07 22.5 -22.5 22.5 c -9.708 0 -17.971 -6.135 -21.12 -14.75 a 23 23 0 0 0 44.875 -7 a 23 23 0 0 0 -16 -21.875 z" style="opacity:0.2"/>
 </g>
 <g transform="matrix(0,-1,1,0,0,48)" style="fill:url(#linearGradient4279);fill-opacity:1">
  <path d="M 24,1 C 36.703,1 47,11.297 47,24 47,36.703 36.703,47 24,47 11.297,47 1,36.703 1,24 1,11.297 11.297,1 24,1 Z"/>
 </g>
 <path d="m 20.602 12 c -0.058 -0.014 -0.117 -0.004 -0.168 0.031 -0.102 0.066 -0.121 0.211 -0.043 0.32 l 1.293 1.844 c -2.055 0.938 -3.5 2.723 -3.684 4.801 l 14 0 c -0.184 -2.078 -1.625 -3.867 -3.68 -4.801 l 0.004 0 1.293 -1.844 c 0.078 -0.109 0.055 -0.25 -0.043 -0.32 -0.102 -0.07 -0.246 -0.035 -0.324 0.074 l -1.34 1.914 c -0.887 -0.344 -1.871 -0.535 -2.906 -0.535 -1.035 0 -2.02 0.191 -2.906 0.535 l -1.344 -1.914 c -0.039 -0.055 -0.095 -0.092 -0.152 -0.105 z m 1.449 3.576 c 0.43 0 0.771 0.342 0.771 0.76 0 0.418 -0.346 0.762 -0.771 0.762 -0.43 0 -0.777 -0.34 -0.777 -0.762 0 -0.418 0.348 -0.76 0.777 -0.76 z m 6 0 c 0.426 0 0.771 0.342 0.771 0.76 0 0.418 -0.346 0.762 -0.771 0.762 -0.43 0 -0.777 -0.34 -0.777 -0.762 0 -0.418 0.348 -0.76 0.777 -0.76 z m -12.484 4.42 c -0.863 0 -1.566 0.758 -1.566 1.691 l 0 6.617 c 0 0.934 0.703 1.693 1.566 1.693 0.863 0 1.434 -0.76 1.434 -1.693 l 0 -6.617 c 0 -0.934 -0.57 -1.691 -1.434 -1.691 m 2.439 0 0 11.594 c 0 0.688 0.32 1.406 1 1.406 l 2 0 0 3.375 c 0 0.898 0.316 1.625 1.188 1.625 0.867 0 1.814 -0.727 1.814 -1.625 l 0 -3.375 2 0 0 3.375 c 0 0.898 0.941 1.625 1.813 1.625 0.867 0 1.191 -0.727 1.191 -1.625 l 0 -3.375 2 0 c 0.676 0 1 -0.719 1 -1.406 l 0 -11.594 -14.01 0 z m 16.434 0 c -0.863 0 -1.434 0.758 -1.434 1.691 l 0 6.617 c 0 0.934 0.57 1.693 1.434 1.693 0.867 0 1.563 -0.76 1.563 -1.693 l 0 -6.617 c 0 -0.934 -0.699 -1.691 -1.563 -1.691 z m -9.436 1 c 2.228 0 4.094 1.466 4.74 3.479 l 0.021 0 c 0.028 0.087 0.041 0.18 0.064 0.27 0.014 0.056 0.038 0.108 0.051 0.164 l -0.012 0 c 0.006 0.029 0.009 0.059 0.016 0.088 l -3.182 0 c -0.029 -0.047 -0.044 -0.102 -0.076 -0.146 -0.044 -0.062 -0.094 -0.117 -0.145 -0.174 -0.056 -0.062 -0.11 -0.127 -0.174 -0.182 -0.35 -0.306 -0.803 -0.498 -1.305 -0.498 -0.554 0 -1.046 0.231 -1.404 0.596 l -2.127 -2.127 c 0.039 -0.038 0.074 -0.078 0.113 -0.115 0.894 -0.838 2.096 -1.354 3.418 -1.354 z m -3.969 2.031 2.156 2.156 c -0.046 0.103 -0.083 0.209 -0.111 0.32 -0.042 0.159 -0.076 0.32 -0.076 0.492 0 0.942 0.654 1.728 1.531 1.939 l -1.344 2.686 c -1.858 -0.728 -3.188 -2.509 -3.188 -4.625 0 -1.125 0.401 -2.137 1.031 -2.969 z m 3.969 1.969 c 0.552 0 1 0.448 1 1 0 0.552 -0.448 1 -1 1 -0.552 0 -1 -0.448 -1 -1 0 -0.552 0.448 -1 1 -1 z m 2 1 3 0 c 0 2.761 -2.239 5 -5 5 -0.326 0 -0.64 -0.046 -0.947 -0.107 l 1.49 -2.979 c 0.006 -0.002 0.012 -0.004 0.018 -0.006 0.83 -0.242 1.439 -0.999 1.439 -1.908 z" style="fill:#000;opacity:0.1;fill-opacity:1;stroke:none;fill-rule:nonzero"/>
 <path d="m 19.598 11 c -0.058 -0.014 -0.117 -0.004 -0.168 0.031 c -0.102 0.066 -0.121 0.211 -0.043 0.32 l 1.293 1.844 c -2.055 0.938 -3.5 2.723 -3.684 4.801 l 14 0 c -0.184 -2.078 -1.625 -3.867 -3.68 -4.801 l 0.004 0 l 1.293 -1.844 c 0.078 -0.109 0.055 -0.25 -0.043 -0.32 c -0.102 -0.07 -0.246 -0.035 -0.324 0.074 l -1.34 1.914 c -0.887 -0.344 -1.871 -0.535 -2.906 -0.535 c -1.035 0 -2.02 0.191 -2.906 0.535 l -1.344 -1.914 c -0.039 -0.055 -0.095 -0.092 -0.152 -0.105 z m 1.449 3.576 c 0.43 0 0.771 0.342 0.771 0.76 c 0 0.418 -0.346 0.762 -0.771 0.762 c -0.43 0 -0.777 -0.34 -0.777 -0.762 c 0 -0.418 0.348 -0.76 0.777 -0.76 z m 6 0 c 0.426 0 0.771 0.342 0.771 0.76 c 0 0.418 -0.346 0.762 -0.771 0.762 c -0.43 0 -0.777 -0.34 -0.777 -0.762 c 0 -0.418 0.348 -0.76 0.777 -0.76 z m -12.484 4.42 c -0.863 0 -1.566 0.758 -1.566 1.691 l 0 6.617 c 0 0.934 0.703 1.693 1.566 1.693 c 0.863 0 1.434 -0.76 1.434 -1.693 l 0 -6.617 c 0 -0.934 -0.57 -1.691 -1.434 -1.691 z m 2.439 0 l 0 11.594 c 0 0.688 0.32 1.406 1 1.406 l 2 0 l 0 3.375 c 0 0.898 0.316 1.625 1.188 1.625 c 0.867 0 1.814 -0.727 1.814 -1.625 l 0 -3.375 l 2 0 l 0 3.375 c 0 0.898 0.941 1.625 1.813 1.625 c 0.867 0 1.191 -0.727 1.191 -1.625 l 0 -3.375 l 2 0 c 0.676 0 1 -0.719 1 -1.406 l 0 -11.594 l -14.01 0 z m 16.434 0 c -0.863 0 -1.434 0.758 -1.434 1.691 l 0 6.617 c 0 0.934 0.57 1.693 1.434 1.693 c 0.867 0 1.563 -0.76 1.563 -1.693 l 0 -6.617 c 0 -0.934 -0.699 -1.691 -1.563 -1.691 z m -9.436 1 c 2.228 0 4.094 1.466 4.74 3.479 l 0.021 0 c 0.028 0.087 0.041 0.18 0.064 0.27 c 0.014 0.056 0.038 0.108 0.051 0.164 l -0.012 0 c 0.007 0.029 0.009 0.059 0.016 0.088 l -3.182 0 c -0.029 -0.047 -0.044 -0.102 -0.076 -0.146 c -0.044 -0.062 -0.094 -0.117 -0.145 -0.174 c -0.056 -0.062 -0.11 -0.127 -0.174 -0.182 c -0.35 -0.306 -0.803 -0.498 -1.305 -0.498 c -0.554 0 -1.046 0.231 -1.404 0.596 l -2.127 -2.127 c 0.039 -0.038 0.074 -0.078 0.113 -0.115 c 0.894 -0.838 2.096 -1.354 3.418 -1.354 z m -3.969 2.031 l 2.156 2.156 c -0.046 0.103 -0.083 0.209 -0.111 0.32 c -0.042 0.159 -0.076 0.32 -0.076 0.492 c 0 0.942 0.654 1.728 1.531 1.939 l -1.344 2.686 c -1.858 -0.728 -3.188 -2.509 -3.188 -4.625 c 0 -1.125 0.401 -2.137 1.031 -2.969 z m 3.969 1.969 c 0.552 0 1 0.448 1 1 c 0 0.552 -0.448 1 -1 1 c -0.552 0 -1 -0.448 -1 -1 c 0 -0.552 0.448 -1 1 -1 z m 2 1 l 3 0 c 0 2.761 -2.239 5 -5 5 c -0.326 0 -0.64 -0.046 -0.947 -0.107 l 1.49 -2.979 c 0.006 -0.002 0.012 -0.004 0.018 -0.006 c 0.83 -0.242 1.439 -0.999 1.439 -1.908 z" style="fill:#f9f9f9;fill-opacity:1;stroke:none;fill-rule:nonzero"/>
 <g>
  <path d="m 40.03 7.531 c 3.712 4.084 5.969 9.514 5.969 15.469 0 12.703 -10.297 23 -23 23 c -5.954 0 -11.384 -2.256 -15.469 -5.969 4.178 4.291 10.01 6.969 16.469 6.969 c 12.703 0 23 -10.298 23 -23 0 -6.462 -2.677 -12.291 -6.969 -16.469 z" style="opacity:0.1"/>
 </g>
</svg>
