<svg version="1.1" viewBox="0 0 48 48" xmlns="http://www.w3.org/2000/svg">
 <defs>
  <linearGradient id="bg" x1="1" x2="47" gradientTransform="matrix(0 -1 1 0 -1.5e-6 48)" gradientUnits="userSpaceOnUse">
   <stop style="stop-color:#3e9ede" offset="0"/>
   <stop style="stop-color:#51a7e1" offset="1"/>
  </linearGradient>
 </defs>
 <path d="m36.31 5c5.859 4.062 9.688 10.831 9.688 18.5 0 12.426-10.07 22.5-22.5 22.5-7.669 0-14.438-3.828-18.5-9.688 1.037 1.822 2.306 3.499 3.781 4.969 4.085 3.712 9.514 5.969 15.469 5.969 12.703 0 23-10.298 23-23 0-5.954-2.256-11.384-5.969-15.469-1.469-1.475-3.147-2.744-4.969-3.781zm4.969 3.781c3.854 4.113 6.219 9.637 6.219 15.719 0 12.703-10.297 23-23 23-6.081 0-11.606-2.364-15.719-6.219 4.16 4.144 9.883 6.719 16.219 6.719 12.703 0 23-10.298 23-23 0-6.335-2.575-12.06-6.719-16.219z" style="opacity:.05"/>
 <path d="m41.28 8.781c3.712 4.085 5.969 9.514 5.969 15.469 0 12.703-10.297 23-23 23-5.954 0-11.384-2.256-15.469-5.969 4.113 3.854 9.637 6.219 15.719 6.219 12.703 0 23-10.298 23-23 0-6.081-2.364-11.606-6.219-15.719z" style="opacity:.1"/>
 <path d="m31.25 2.375c8.615 3.154 14.75 11.417 14.75 21.13 0 12.426-10.07 22.5-22.5 22.5-9.708 0-17.971-6.135-21.12-14.75a23 23 0 0 0 44.875-7 23 23 0 0 0-16-21.875z" style="opacity:.2"/>
 <path d="m24 1c12.703 0 23 10.297 23 23s-10.297 23-23 23-23-10.297-23-23 10.297-23 23-23z" style="fill:url(#bg)"/>
 <path d="m24 11c-1.108 0-2 0.892-2 2h-1c-1.108 0-3 1-3 2s1.892 2 3 2h0.12305c-2.7328 1.2365-4.8205 3.6215-5.6855 7.1562l-1.4375-2.1562-1 1 1.334 1.334-3.334-1.334v2l3.0762 0.61523-2.0762 1.3848 1 1 2.084-1.666c-0.050078 0.53657-0.083984 1.0876-0.083984 1.666 0 5.799 4.9249 9 11 9s11-4 11-10.5c0-4.4745-2.9343-8.2927-7.0645-9.8047-0.2806-1.2114-1.61-5.6953-5.9355-5.6953z" style="fill-opacity:.99536;opacity:.1"/>
 <path d="m40.03 7.531c3.712 4.084 5.969 9.514 5.969 15.469 0 12.703-10.297 23-23 23-5.954 0-11.384-2.256-15.469-5.969 4.178 4.291 10.01 6.969 16.469 6.969 12.703 0 23-10.298 23-23 0-6.462-2.677-12.291-6.969-16.469z" style="opacity:.1"/>
 <path d="m13 21-1 1 1.334 1.334-3.334-1.334v2l3.0762 0.61523-2.0762 1.3848 1 1 2.5-2 0.5-1z" style="fill:#3d3d3d"/>
 <path d="m23 10c-1.108 0-2 0.892-2 2h-1c-1.108 0-3 1-3 2s1.892 2 3 2h0.12305c-3.6281 1.6416-6.123 5.3067-6.123 11 0 2.8925 1.2268 5.1372 3.209 6.6621l14.664 0.25195h2e-3c2.5137-1.8016 4.125-4.6982 4.125-8.4141 0-4.4745-2.9343-8.2927-7.0645-9.8047-0.2806-1.2114-1.61-5.6953-5.9355-5.6953z" style="fill:#f42f58"/>
 <path d="m24.5 29a7.5 6 0 0 0-7.291 4.6621c1.9917 1.5323 4.7462 2.3379 7.791 2.3379 2.6022 0 4.9915-0.73607 6.875-2.0859a7.5 6 0 0 0-7.375-4.9141z" style="fill:#eab585"/>
 <path d="m26 22-2 2 2.6504 0.81641c-0.40479 0.4442-0.65117 1.0354-0.65039 1.6836 6.48e-4 0.54182 0.18047 1.0682 0.50781 1.5h1.9395c-1.1108 0.66657-1.7807 1.3334-2.4473 2 0 1 1 2 1 2 1.9562 0.97808 2.9493 2.9 2.9922 2.9844 0.0144-0.0064 0.0286-0.0131 0.04297-0.01953l3.2285-3.2285c0.22463 0.08121 0.42852 0.16418 0.62305 0.24609 0.2952-0.37844 0.56396-0.78091 0.80273-1.207-0.44061-1.1312-1.3395-2.0452-2.6094-2.873 0.48917-0.47694 1.0107-0.90234 1.4199-0.90234h0.5c0.03565-0.16434-4.78e-4 -0.33184 0-0.5 0.0014-0.4959-0.23072-1.1455-0.51953-1.584l2.4121-0.87695c-0.01876-0.1285-0.04087-0.25584-0.06445-0.38281l-0.82813-1.6562-4.5 3z" style="opacity:.1"/>
 <path d="m27.5 23c-1.3807 0-2.5017 1.1193-2.5 2.5 6.48e-4 0.54182 0.18047 1.0682 0.50781 1.5h3.0039c0.21582 0.28701 1.1726 0.82885 1.4883 1 0.60426-0.55885 1.7454-2 2.5001-2h0.49986c0.03565-0.16434-4.78e-4 -0.33184 0-0.5 0.0015-0.54092-0.27544-1.2673-0.6-1.7l-3.4 0.7z" style="fill:#f9f9f9"/>
 <path d="m26.949 25c-0.52837 0.013392-0.94922 0.23249-0.94922 0.5 0 0.27614 0.44772 0.5 1 0.5s1-0.22386 1-0.5-0.44772-0.5-1-0.5c-0.01726 0-0.03374-4.32e-4 -0.05078 0zm4.0508 0a1 0.5 0 0 0-1 0.5 1 0.5 0 0 0 1 0.5 1 0.5 0 0 0 1-0.5 1 0.5 0 0 0-1-0.5z" style="fill:#3d3d3d"/>
 <path d="m25 21 4.5 3 4.5-3 1 2-5.5 2-6.5-2z" style="fill:#3d3d3d"/>
 <path d="m25 29h2l2 1-3 1s-1-1-1-2z" style="fill:#f9f9f9"/>
 <path d="m26 31 3-2 4 1-4 4s-1-2-3-3z" style="fill:#f17d28"/>
 <path d="m25 29c1-1 2-2 4.5-3 2.8275 1.4365 4.5 3 4.5 5.5-1-0.5-3-1.5-6-1.5z" style="fill:#f7bf36"/>
</svg>
