<svg xmlns="http://www.w3.org/2000/svg" viewBox="0 0 48 48">
 <defs>
  <linearGradient id="linearGradient3764" x1="1" x2="47" gradientUnits="userSpaceOnUse" gradientTransform="matrix(0,-1,1,0,-1.5e-6,47.999998)">
   <stop style="stop-color:#2d8fdb;stop-opacity:1"/>
   <stop offset="1" style="stop-color:#3e9ade;stop-opacity:1"/>
  </linearGradient>
 </defs>
 <g>
  <path d="m 36.31 5 c 5.859 4.062 9.688 10.831 9.688 18.5 c 0 12.426 -10.07 22.5 -22.5 22.5 c -7.669 0 -14.438 -3.828 -18.5 -9.688 c 1.037 1.822 2.306 3.499 3.781 4.969 c 4.085 3.712 9.514 5.969 15.469 5.969 c 12.703 0 23 -10.298 23 -23 c 0 -5.954 -2.256 -11.384 -5.969 -15.469 c -1.469 -1.475 -3.147 -2.744 -4.969 -3.781 z m 4.969 3.781 c 3.854 4.113 6.219 9.637 6.219 15.719 c 0 12.703 -10.297 23 -23 23 c -6.081 0 -11.606 -2.364 -15.719 -6.219 c 4.16 4.144 9.883 6.719 16.219 6.719 c 12.703 0 23 -10.298 23 -23 c 0 -6.335 -2.575 -12.06 -6.719 -16.219 z" style="opacity:0.05"/>
  <path d="m 41.28 8.781 c 3.712 4.085 5.969 9.514 5.969 15.469 c 0 12.703 -10.297 23 -23 23 c -5.954 0 -11.384 -2.256 -15.469 -5.969 c 4.113 3.854 9.637 6.219 15.719 6.219 c 12.703 0 23 -10.298 23 -23 c 0 -6.081 -2.364 -11.606 -6.219 -15.719 z" style="opacity:0.1"/>
  <path d="m 31.25 2.375 c 8.615 3.154 14.75 11.417 14.75 21.13 c 0 12.426 -10.07 22.5 -22.5 22.5 c -9.708 0 -17.971 -6.135 -21.12 -14.75 a 23 23 0 0 0 44.875 -7 a 23 23 0 0 0 -16 -21.875 z" style="opacity:0.2"/>
 </g>
 <g>
  <path d="m 24 1 c 12.703 0 23 10.297 23 23 c 0 12.703 -10.297 23 -23 23 -12.703 0 -23 -10.297 -23 -23 0 -12.703 10.297 -23 23 -23 z" style="fill:url(#linearGradient3764);fill-opacity:1"/>
 </g>
 <g>
  <g>
   <!-- color: #3e9ade -->
   <g>
    <path d="m 25.352 12.148 0 0.004 c -0.855 0.105 -2.102 0.48 -1.965 1.695 0.016 0.195 0.125 0.371 0.199 0.539 -0.363 -0.066 -0.828 -0.113 -1.324 -0.105 -0.504 0.012 -1.039 0.082 -1.535 0.301 -0.625 0.418 -1.219 0.945 -1.395 1.602 0.031 0.379 0.883 0.973 1.176 1.109 0.398 0.18 0.711 0.207 0.953 0.254 -0.418 0.152 -1.598 1.211 -2.32 2 -1.363 1.496 -2.429 3.358 -3.068 5.205 l -0.932 -1.92 c -0.473 0.371 -0.91 0.719 -1.211 1.113 0.055 0.082 0.047 0.164 0.055 0.242 0.547 0.488 0.965 0.918 1.531 1.395 l -2.828 -1.395 c -0.344 0.559 -0.676 1.273 -0.676 1.914 1.07 0.309 2.143 0.406 3.232 0.535 -0.617 0.195 -1.305 0.313 -1.852 0.594 l 0.617 1.211 1.504 -1.078 0.014 -0.051 c -0.137 1.172 -0.176 2.323 0.102 3.457 0.681 2.538 2.185 3.838 3.672 4.848 l -0.008 0.012 c 4.063 2.555 10.723 2.883 14.602 0.344 l -0.008 -0.014 c 1.318 -0.749 2.357 -1.833 3.039 -3.213 l 0.039 -0.047 0.023 -0.059 c 2.719 -6.336 -0.211 -12.441 -5.754 -15.254 -0.512 -1.543 -1.734 -3.078 -3.09 -4.105 -0.711 -0.543 -1.461 -0.945 -2.219 -1.086 -0.188 -0.039 -0.383 -0.051 -0.574 -0.047 z" style="fill:#000;fill-opacity:0.098;stroke:none;fill-rule:nonzero"/>
    <path d="m 26.996 25.629 c -0.383 0.113 -2.895 3.156 -1.332 5.637 0.777 -0.035 1 -0.141 1.754 -0.105 l 4.109 -3.133 3.926 2.797 c 0.531 -0.395 2.566 -2.258 -0.352 -5.07 -2.75 0.395 -5.383 0.113 -8.105 -0.125 m 0 0" style="fill:#000;fill-opacity:0.102;stroke:none;fill-rule:nonzero"/>
    <path d="m 31.23,27.14 c -1.973,-0.813 -4.344,-1.234 -5.91,-2.438 0.328,-0.707 0.563,-1.512 1.48,-2.125 1.469,1.66 3.367,2.406 4.715,3.266 l 4.328,-2.746 c 0.156,-0.098 0.918,2.055 0.918,2.055 l -0.352,0.285 c -0.219,0.176 -3.504,1.199 -4.828,1.758 M 31.229,27.14" style="fill:#000;fill-opacity:0.102;stroke:none;fill-rule:nonzero"/>
    <path d="m 31.19,28 c -0.316,0.129 -0.602,0.289 -0.941,0.539 -0.996,-0.195 -2.629,0.012 -3.133,0.09 -1.016,-1.465 -0.176,-2.742 0.113,-2.918 1.305,0.469 2.73,0.906 3.961,1.41 0.09,0.074 0.105,0.191 0.125,0.289 M 31.19,28" style="fill:#000;fill-opacity:0.102;stroke:none;fill-rule:nonzero"/>
    <path d="m 29.809 27.43 c 0 0.305 -0.285 0.555 -0.645 0.555 -0.355 0 -0.645 -0.25 -0.645 -0.555 0 -0.305 0.289 -0.551 0.645 -0.551 0.359 0 0.645 0.246 0.645 0.551 m 0 0" style="fill:#000;fill-opacity:0.102;stroke:none;fill-rule:nonzero"/>
    <path d="m 31.566 27.21 c -0.016 0.27 0.066 0.539 0.098 0.805 0.289 0.047 0.453 0.18 0.68 0.289 0.914 -0.617 1.852 -0.617 2.742 -0.641 0.012 -0.387 0.051 -0.996 -0.426 -1.535 -1.031 0.285 -2.09 0.633 -3.094 1.082 m 0 0" style="fill:#000;fill-opacity:0.102;stroke:none;fill-rule:nonzero"/>
    <path d="m 32.766 27.445 c 0 0.25 -0.18 0.457 -0.402 0.457 -0.223 0 -0.402 -0.207 -0.402 -0.457 0 -0.254 0.18 -0.461 0.402 -0.461 0.223 0 0.402 0.207 0.402 0.461 m 0 0" style="fill:#000;fill-opacity:0.102;stroke:none;fill-rule:nonzero"/>
    <path d="m 31.21 27.13 0.098 0.27 -0.133 0.59 c -0.328 0.148 -0.66 0.34 -0.93 0.566 l 0.156 0.23 c 0.313 -0.172 0.652 -0.371 0.996 -0.563 l 0.863 0.41 0.102 -0.328 -0.648 -0.316 -0.148 -0.844 m -0.355 -0.016" style="fill:#000;fill-opacity:0.102;stroke:none;fill-rule:nonzero"/>
    <path d="m 35.711 28.02 -0.27 -0.324 c 0.031 -0.57 -0.078 -1.195 -0.281 -1.785 l -0.559 0.172 c 0.328 0.477 0.543 0.973 0.461 1.578 -0.66 0.051 -1.586 -0.125 -2.695 0.637 l -0.113 0.324 0.172 0.086 0.395 -0.297 c 0.75 -0.563 1.988 -0.402 2.891 -0.391 m 0 0" style="fill:#000;fill-opacity:0.102;stroke:none;fill-rule:nonzero"/>
    <path d="m 26.688 29.22 0.027 -0.383 c -0.617 -1.176 -0.422 -1.922 0 -2.984 l 0.328 -0.27 0.207 0.082 c -1 1.266 -0.578 1.93 -0.133 2.965 1.098 -0.207 2.141 -0.238 3.137 -0.094 l 0.16 0.238 -0.484 0.277 -0.137 -0.348 c -1.363 -0.086 -2.258 0.207 -3.105 0.516 m 0 0" style="fill:#000;fill-opacity:0.102;stroke:none;fill-rule:nonzero"/>
    <path d="m 28.2,32.914 c 0.516,-0.238 1.75,-0.715 1.75,-0.715 l 0.129,0.215 -1.488,0.754 M 28.2,32.914" style="fill:#000;fill-opacity:0.102;stroke:none;fill-rule:nonzero"/>
    <path d="M 31.18,34.738 C 30.192,34.16 29.27,33.547 28.282,32.965 l -0.547,-0.934 2.355,-3.125 -0.277,-0.18 c -0.574,0.332 -1.539,1.168 -2.336,2.207 -0.422,1.074 -0.078,1.965 0.598,2.391 0.523,0.332 0.762,0.555 1.262,0.891 0.5,0.34 1.273,0.719 1.793,1.027 m 0.051,-0.504" style="fill:#000;fill-opacity:0.102;stroke:none;fill-rule:nonzero"/>
    <path d="m 29.898 32.23 c -0.672 -0.25 -1.445 -0.379 -2.168 -0.566 -0.047 1.215 0.211 1.086 0.465 1.258 m 1.703 -0.691" style="fill:#000;fill-opacity:0.102;stroke:none;fill-rule:nonzero"/>
    <path d="m 31.14 34.688 2.93 -1.93 0.281 0.121 c -1.082 0.777 -2.117 1.711 -3.242 2.336 m 0.031 -0.527" style="fill:#000;fill-opacity:0.102;stroke:none;fill-rule:nonzero"/>
    <path d="m 28.543 33.13 c 0.777 -0.473 1.66 -0.922 2.566 -0.828 0.984 0.102 2.035 0.25 2.945 0.52 -1.012 0.691 -1.859 1.254 -2.898 1.914 -1.027 -0.34 -1.938 -0.867 -2.613 -1.602 m 0 0" style="fill:#000;fill-opacity:0.102;stroke:none;fill-rule:nonzero"/>
    <path d="m 24.578 28.785 c 0 1.172 -0.527 2.117 -1.18 2.117 -0.652 0 -1.184 -0.945 -1.184 -2.117 0 -1.168 0.531 -2.117 1.184 -2.117 0.652 0 1.18 0.949 1.18 2.117 m 0 0" style="fill:#000;fill-opacity:0.102;stroke:none;fill-rule:nonzero"/>
    <path d="m 21.625 30.04 c 0 0.691 -0.492 1.25 -1.098 1.25 -0.605 0 -1.094 -0.559 -1.094 -1.25 0 -0.691 0.488 -1.25 1.094 -1.25 0.605 0 1.098 0.559 1.098 1.25 m 0 0" style="fill:#000;fill-opacity:0.102;stroke:none;fill-rule:nonzero"/>
    <path d="m 20.15 19.336 c -1.871 1.781 -3.297 4.367 -3.875 6.727 -0.5 3.262 -0.766 6.06 3.066 8.621 0.613 -0.922 1.422 -1.605 2.313 -2.113 -3.367 -2.547 -2.813 -8.727 -1.504 -13.234 m 0 0" style="fill:#000;fill-opacity:0.102;stroke:none;fill-rule:nonzero"/>
    <path d="m 18.691,34.09 c 2.516,-3.445 6.57,-3.332 7.383,-3.473 l 0.25,0.273 0.52,1.188 1.703,1.133 1.316,1.461 2.391,-1.488 0.383,1.293 C 26.668,37.028 22.75,35.743 18.692,34.09 m 0,0" style="fill:#e5a367;fill-opacity:1;stroke:none;fill-rule:nonzero"/>
    <path d="m 24.352,11.152 c -0.855,0.105 -2.102,0.48 -1.965,1.695 0.016,0.195 0.125,0.371 0.199,0.539 -0.363,-0.066 -0.828,-0.113 -1.324,-0.105 -0.504,0.012 -1.039,0.082 -1.535,0.301 -0.625,0.418 -1.219,0.945 -1.395,1.602 0.031,0.379 0.883,0.973 1.176,1.109 0.398,0.18 0.711,0.207 0.953,0.254 -0.418,0.152 -1.598,1.211 -2.32,2 -1.652,1.813 -2.879,4.164 -3.422,6.375 l -0.004,0.027 -0.004,0.023 c -0.254,1.641 -0.465,3.234 -0.082,4.797 0.691,2.574 2.227,3.879 3.734,4.895 l 0.453,-0.668 c 1.672,-2.52 5.102,-3.129 7.297,-3.324 l 3.496,3.84 0.332,0.363 0.41,-0.277 1.68,-1.145 c 0.129,0.285 0.254,0.563 0.379,0.844 l 0.34,0.75 c 1.387,-0.75 2.469,-1.871 3.176,-3.301 l 0.039,-0.047 0.023,-0.059 C 38.707,25.304 35.777,19.199 30.234,16.386 29.722,14.843 28.5,13.308 27.144,12.281 26.433,11.738 25.683,11.336 24.925,11.195 24.737,11.156 24.542,11.144 24.351,11.148 m 0.031,1.133 c 0.102,0 0.215,0.012 0.336,0.035 0.496,0.094 1.125,0.406 1.738,0.875 1.23,0.934 2.402,2.492 2.754,3.746 l 0.07,0.242 0.223,0.109 c 3.754,1.91 4.953,3.855 6.254,7.469 0.191,2.223 0.473,3.41 -0.793,6.375 -0.516,0.719 -1.125,1.445 -1.816,2.031 -0.125,-0.273 -0.254,-0.555 -0.363,-0.797 l -0.277,-0.621 -0.559,0.383 -1.832,1.246 -3.355,-3.684 -0.188,-0.207 -0.277,0.023 c -2.133,0.168 -5.91,0.645 -8.09,3.383 -1.512,-1.113 -2.188,-2.215 -2.477,-3.398 -0.313,-1.277 -0.148,-2.715 0.098,-4.328 0.496,-1.988 1.648,-4.199 3.148,-5.852 1.383,-1.523 3.035,-2.535 4.711,-2.617 0.16,0 0.32,0.004 0.484,0 l 0.023,-1.141 c -0.012,0 -0.023,0 -0.035,0 -0.004,-0.004 -0.008,0 -0.012,0 -0.168,-0.008 -0.336,-0.008 -0.504,0 -0.957,0 -1.902,-0.023 -2.836,-0.129 -0.328,-0.07 -0.668,-0.113 -0.887,-0.203 -0.16,-0.066 -0.23,-0.086 -0.262,-0.164 0.105,-0.195 0.27,-0.328 0.52,-0.441 0.293,-0.129 0.699,-0.191 1.102,-0.203 0.406,-0.008 0.816,0.035 1.113,0.094 0.152,0.023 0.277,0.059 0.352,0.078 0.016,0.004 0.016,0.004 0.023,0.008 -0.008,-0.004 -0.016,-0.016 -0.027,-0.023 l 0.055,0.027 c 0.004,0.004 0.02,0.008 0.02,0.008 0,0 0,0.004 0,0.004 1.504,0.895 2.422,1.605 4.664,1.91 0.012,0.004 0.023,0.004 0.035,0.008 l 0.188,-1.129 c -0.398,-0.078 -1.539,-0.527 -2.48,-1.094 -0.473,-0.285 -0.91,-0.598 -1.207,-0.895 -0.246,-0.238 -0.371,-0.453 -0.418,-0.586 0.031,-0.066 0.07,-0.164 0.117,-0.293 0.184,-0.18 0.391,-0.262 0.664,-0.258 m 0,0" style="fill:#000;fill-opacity:1;stroke:none;fill-rule:nonzero"/>
    <path d="m 15.14 23.891 -1 -2.059 c -0.473 0.371 -0.91 0.719 -1.211 1.113 0.055 0.082 0.047 0.164 0.055 0.242 0.547 0.488 0.965 0.918 1.531 1.395 l -2.828 -1.395 c -0.344 0.559 -0.676 1.273 -0.676 1.914 1.07 0.309 2.145 0.406 3.234 0.535 -0.617 0.195 -1.305 0.313 -1.852 0.594 l 0.617 1.211 1.504 -1.078 m 0.629 -2.473" style="fill:#000;fill-opacity:1;stroke:none;fill-rule:nonzero"/>
    <path d="m 24.17 16.13 c -4.125 -0.223 -7.863 4.719 -8.898 8.93 -0.5 3.266 -0.762 6.06 3.066 8.621 1.922 -2.891 5.793 -3.43 8 -3.605 l 3.688 4.059 2.238 -1.523 c 0.195 0.441 0.438 0.973 0.66 1.457 1.02 -0.707 1.863 -1.695 2.535 -2.648 2.738 -6.086 -0.008 -10.895 -5.707 -14.633 -0.809 -2.875 -4.898 -6.395 -6.531 -4.559 -0.152 0.445 -0.219 0.508 -0.215 0.574 0.109 1.344 3.484 2.945 4.586 3.172 -2.184 -0.293 -2.949 -0.934 -4.492 -1.852 -0.141 -0.156 -3.398 -0.852 -4.02 0.855 0.063 0.852 1.078 0.898 1.652 1.02 1.145 0.133 2.289 0.145 3.434 0.137 m 0 0" style="fill:#d6032f;fill-opacity:1;stroke:none;fill-rule:nonzero"/>
    <path d="m 25.996 24.629 c -0.383 0.113 -2.895 3.156 -1.328 5.641 0.773 -0.039 0.996 -0.141 1.754 -0.109 l 4.105 -3.133 3.93 2.797 c 0.527 -0.395 2.566 -2.258 -0.355 -5.066 -2.75 0.391 -5.383 0.109 -8.105 -0.129 m 0 0" style="fill:#b10019;fill-opacity:1;stroke:none;fill-rule:nonzero"/>
    <path d="m 30.23,26.14 c -1.973,-0.813 -4.344,-1.234 -5.91,-2.434 0.328,-0.711 0.563,-1.516 1.48,-2.129 1.469,1.664 3.367,2.406 4.715,3.266 l 4.328,-2.746 c 0.156,-0.098 0.918,2.059 0.918,2.059 l -0.352,0.281 c -0.219,0.176 -3.504,1.199 -4.828,1.758 M 30.229,26.14" style="fill:#000;fill-opacity:1;stroke:none;fill-rule:nonzero"/>
    <path d="m 30.19,27 c -0.316,0.129 -0.602,0.289 -0.941,0.543 -0.992,-0.199 -2.629,0.008 -3.133,0.086 -1.016,-1.461 -0.176,-2.742 0.113,-2.918 1.305,0.469 2.73,0.906 3.961,1.41 0.09,0.074 0.105,0.191 0.125,0.289 M 30.19,27" style="fill:#f9f9ff;fill-opacity:1;stroke:none;fill-rule:nonzero"/>
    <path d="m 28.813 26.43 c 0 0.305 -0.289 0.555 -0.648 0.555 -0.355 0 -0.645 -0.25 -0.645 -0.555 0 -0.305 0.289 -0.551 0.645 -0.551 0.359 0 0.648 0.246 0.648 0.551 m 0 0" style="fill:#000;fill-opacity:1;stroke:none;fill-rule:nonzero"/>
    <path d="m 30.566 26.21 c -0.016 0.27 0.066 0.539 0.102 0.805 0.285 0.047 0.449 0.18 0.676 0.289 0.914 -0.613 1.855 -0.613 2.742 -0.641 0.012 -0.383 0.051 -0.996 -0.426 -1.535 -1.031 0.285 -2.086 0.633 -3.094 1.082 m 0 0" style="fill:#f9f9f9;fill-opacity:1;stroke:none;fill-rule:nonzero"/>
    <path d="m 31.766 26.445 c 0 0.254 -0.18 0.457 -0.402 0.457 -0.223 0 -0.402 -0.203 -0.402 -0.457 0 -0.254 0.18 -0.461 0.402 -0.461 0.223 0 0.402 0.207 0.402 0.461 m 0 0" style="fill:#000;fill-opacity:1;stroke:none;fill-rule:nonzero"/>
    <path d="m 30.21 26.13 0.098 0.273 -0.129 0.59 c -0.332 0.145 -0.664 0.336 -0.934 0.555 l 0.156 0.238 c 0.313 -0.172 0.652 -0.371 0.996 -0.563 l 0.863 0.41 0.102 -0.328 -0.648 -0.313 -0.148 -0.848 m -0.355 -0.016" style="fill:#000;fill-opacity:1;stroke:none;fill-rule:nonzero"/>
    <path d="m 34.711 27.02 -0.266 -0.324 c 0.027 -0.57 -0.082 -1.195 -0.285 -1.781 l -0.559 0.168 c 0.328 0.477 0.543 0.973 0.461 1.578 -0.66 0.055 -1.586 -0.125 -2.695 0.637 l -0.113 0.324 0.172 0.086 0.398 -0.297 c 0.75 -0.563 1.984 -0.402 2.887 -0.391 m 0 0" style="fill:#000;fill-opacity:1;stroke:none;fill-rule:nonzero"/>
    <path d="m 25.688 28.22 0.027 -0.383 c -0.617 -1.176 -0.422 -1.922 0 -2.984 l 0.328 -0.27 0.207 0.082 c -1 1.266 -0.578 1.93 -0.133 2.965 1.098 -0.207 2.141 -0.234 3.137 -0.094 l 0.16 0.242 -0.484 0.273 -0.137 -0.348 c -1.363 -0.082 -2.258 0.207 -3.105 0.516 m 0 0" style="fill:#000;fill-opacity:1;stroke:none;fill-rule:nonzero"/>
    <path d="m 28.922 31.24 -2.227 -0.547 0.219 -0.504 c 0.652 0.531 1.273 0.543 1.98 0.668 1.766 0.109 3.625 0.48 4.723 0.805 l 1.27 0.754 -0.375 0.191 -1.234 -0.738 c -1.047 -0.246 -2.063 -0.438 -3.148 -0.563 -0.359 -0.02 -0.75 -0.02 -1.086 0.133 m -0.121 -0.191" style="fill:#000;fill-opacity:1;stroke:none;fill-rule:nonzero"/>
    <path d="m 27.2,31.914 c 0.516,-0.238 1.75,-0.715 1.75,-0.715 l 0.129,0.215 -1.488,0.754 M 27.2,31.914" style="fill:#000;fill-opacity:1;stroke:none;fill-rule:nonzero"/>
    <path d="m 30.18 33.738 c -0.992 -0.578 -1.914 -1.191 -2.902 -1.77 l -0.547 -0.938 2.355 -3.125 -0.277 -0.18 c -0.574 0.336 -1.539 1.168 -2.336 2.211 -0.422 1.07 -0.078 1.961 0.598 2.391 0.523 0.328 0.762 0.551 1.262 0.891 0.5 0.34 1.273 0.715 1.793 1.023 m 0.055 -0.504" style="fill:#000;fill-opacity:1;stroke:none;fill-rule:nonzero"/>
    <path d="m 28.898 31.23 c -0.672 -0.25 -1.445 -0.375 -2.168 -0.566 -0.043 1.215 0.211 1.086 0.465 1.258 m 1.703 -0.691" style="fill:#f9f9f9;fill-opacity:1;stroke:none;fill-rule:nonzero"/>
    <path d="m 30.14 33.688 2.93 -1.93 0.281 0.121 c -1.082 0.781 -2.117 1.711 -3.242 2.34 m 0.031 -0.531" style="fill:#000;fill-opacity:1;stroke:none;fill-rule:nonzero"/>
    <path d="m 27.543 32.13 c 0.777 -0.473 1.66 -0.922 2.57 -0.828 0.98 0.102 2.031 0.254 2.941 0.52 -1.012 0.691 -1.859 1.254 -2.895 1.914 -1.031 -0.336 -1.941 -0.867 -2.617 -1.602 m 0 0" style="fill:#cf5903;fill-opacity:1;stroke:none;fill-rule:nonzero"/>
    <path d="m 31.379,27.727 0.398,-0.316 c 1.164,0.699 1.945,1.402 2.625,2.152 0.422,0.625 0.969,1.594 1.02,2.262 L 34.867,32.473 34.648,30.785 33.16,28.82 m -1.781,-1.094" style="fill:#000;fill-opacity:1;stroke:none;fill-rule:nonzero"/>
    <path d="m 26.91 30.21 c 0.809 -1.805 2.348 -2.285 3.484 -3 3.297 1.473 3.555 2.332 4.309 3.57 0.125 0.543 0.273 1.086 0.164 1.629 -0.477 -0.195 -0.84 -0.605 -1.438 -0.801 -1.496 -0.41 -2.949 -0.586 -4.566 -0.734 -0.77 -0.148 -1.352 -0.203 -1.953 -0.66 m 0 0" style="fill:#fbb91e;fill-opacity:1;stroke:none;fill-rule:nonzero"/>
    <path d="m 23.578 27.785 c 0 1.172 -0.527 2.117 -1.18 2.117 -0.652 0 -1.184 -0.945 -1.184 -2.117 0 -1.168 0.531 -2.117 1.184 -2.117 0.652 0 1.18 0.949 1.18 2.117 m 0 0" style="fill:#b10019;fill-opacity:1;stroke:none;fill-rule:nonzero"/>
    <path d="m 20.625 29.04 c 0 0.691 -0.488 1.25 -1.094 1.25 -0.609 0 -1.098 -0.559 -1.098 -1.25 0 -0.688 0.488 -1.25 1.098 -1.25 0.605 0 1.094 0.563 1.094 1.25 m 0 0" style="fill:#b10019;fill-opacity:1;stroke:none;fill-rule:nonzero"/>
    <path d="m 18.801 33.945 c 3.457 2.105 9.949 2.766 13.719 0.316 l 0.375 0.711 c -3.879 2.539 -10.539 2.211 -14.602 -0.344 m 0.508 -0.684" style="fill:#000;fill-opacity:1;stroke:none;fill-rule:nonzero"/>
    <path d="m 19.15 18.336 c -1.871 1.781 -3.297 4.367 -3.875 6.727 -0.5 3.266 -0.762 6.06 3.066 8.621 0.613 -0.922 1.422 -1.602 2.313 -2.109 -3.363 -2.551 -2.813 -8.73 -1.504 -13.238 m 0 0" style="fill:#b10019;fill-opacity:1;stroke:none;fill-rule:nonzero"/>
   </g>
  </g>
 </g>
 <g>
  <path d="m 40.03 7.531 c 3.712 4.084 5.969 9.514 5.969 15.469 0 12.703 -10.297 23 -23 23 c -5.954 0 -11.384 -2.256 -15.469 -5.969 4.178 4.291 10.01 6.969 16.469 6.969 c 12.703 0 23 -10.298 23 -23 0 -6.462 -2.677 -12.291 -6.969 -16.469 z" style="opacity:0.1"/>
 </g>
</svg>
