<svg xmlns="http://www.w3.org/2000/svg" viewBox="0 0 48 48">
 <defs>
  <linearGradient id="linearGradient3764" x1="1" x2="47" gradientUnits="userSpaceOnUse" gradientTransform="matrix(0,-1,1,0,-1.5e-6,47.999998)">
   <stop style="stop-color:#333;stop-opacity:1"/>
   <stop offset="1" style="stop-color:#3d3d3d;stop-opacity:1"/>
  </linearGradient>
 </defs>
 <g>
  <path d="m 36.31 5 c 5.859 4.062 9.688 10.831 9.688 18.5 c 0 12.426 -10.07 22.5 -22.5 22.5 c -7.669 0 -14.438 -3.828 -18.5 -9.688 c 1.037 1.822 2.306 3.499 3.781 4.969 c 4.085 3.712 9.514 5.969 15.469 5.969 c 12.703 0 23 -10.298 23 -23 c 0 -5.954 -2.256 -11.384 -5.969 -15.469 c -1.469 -1.475 -3.147 -2.744 -4.969 -3.781 z m 4.969 3.781 c 3.854 4.113 6.219 9.637 6.219 15.719 c 0 12.703 -10.297 23 -23 23 c -6.081 0 -11.606 -2.364 -15.719 -6.219 c 4.16 4.144 9.883 6.719 16.219 6.719 c 12.703 0 23 -10.298 23 -23 c 0 -6.335 -2.575 -12.06 -6.719 -16.219 z" style="opacity:0.05"/>
  <path d="m 41.28 8.781 c 3.712 4.085 5.969 9.514 5.969 15.469 c 0 12.703 -10.297 23 -23 23 c -5.954 0 -11.384 -2.256 -15.469 -5.969 c 4.113 3.854 9.637 6.219 15.719 6.219 c 12.703 0 23 -10.298 23 -23 c 0 -6.081 -2.364 -11.606 -6.219 -15.719 z" style="opacity:0.1"/>
  <path d="m 31.25 2.375 c 8.615 3.154 14.75 11.417 14.75 21.13 c 0 12.426 -10.07 22.5 -22.5 22.5 c -9.708 0 -17.971 -6.135 -21.12 -14.75 a 23 23 0 0 0 44.875 -7 a 23 23 0 0 0 -16 -21.875 z" style="opacity:0.2"/>
 </g>
 <g>
  <path d="m 24 1 c 12.703 0 23 10.297 23 23 c 0 12.703 -10.297 23 -23 23 -12.703 0 -23 -10.297 -23 -23 0 -12.703 10.297 -23 23 -23 z" style="fill:url(#linearGradient3764);fill-opacity:1"/>
 </g>
 <g>
  <g>
   <g transform="translate(1,1)">
    <g style="opacity:0.1">
     <!-- color: #3d3d3d -->
     <g>
      <path d="m 32.02 12.02 c -0.652 0.18 -1.746 1.621 -2.301 1.727 c -0.637 0.121 -2.535 -1.133 -2.977 -0.668 c -0.438 0.469 0.953 2.305 0.875 2.941 c -0.082 0.633 -1.898 2.066 -1.586 2.625 c 0.313 0.555 2.508 -0.191 3.09 0.078 c 0.586 0.27 1.391 2.391 2.023 2.27 c 0.633 -0.121 0.59 -2.391 1.031 -2.859 c 0.441 -0.465 2.738 -0.578 2.816 -1.215 c 0.078 -0.633 -2.105 -1.281 -2.422 -1.84 c -0.313 -0.559 0.27 -2.789 -0.316 -3.059 c -0.07 -0.031 -0.145 -0.023 -0.238 0 m 0.004 0" style="fill:#000;fill-opacity:1;stroke:none;fill-rule:nonzero"/>
      <path d="m 21.07 20 c -1.27 0.176 -1.438 4.789 -2.363 5.68 c -0.926 0.891 -5.469 0.852 -5.695 2.121 c -0.227 1.266 4.04 2.863 4.602 4.03 c 0.559 1.16 -0.879 5.496 0.25 6.102 c 1.133 0.609 3.965 -3 5.234 -3.176 c 1.27 -0.176 4.941 2.543 5.863 1.652 c 0.93 -0.891 -1.617 -4.707 -1.391 -5.977 c 0.227 -1.273 3.934 -3.926 3.375 -5.082 c -0.559 -1.16 -4.945 0.098 -6.074 -0.512 c -1.133 -0.609 -2.527 -5.01 -3.801 -4.828 m 0 -0.008" style="fill:#000;fill-opacity:1;stroke:none;fill-rule:nonzero"/>
     </g>
    </g>
   </g>
  </g>
 </g>
 <g>
  <g>
   <!-- color: #3d3d3d -->
   <g>
    <path d="m 32.02 12.02 c -0.652 0.18 -1.746 1.621 -2.301 1.727 c -0.637 0.121 -2.535 -1.133 -2.977 -0.668 c -0.438 0.469 0.953 2.305 0.875 2.941 c -0.082 0.633 -1.898 2.066 -1.586 2.625 c 0.313 0.555 2.508 -0.191 3.09 0.078 c 0.586 0.27 1.391 2.391 2.023 2.27 c 0.633 -0.121 0.59 -2.391 1.031 -2.859 c 0.441 -0.465 2.738 -0.578 2.816 -1.215 c 0.078 -0.633 -2.105 -1.281 -2.422 -1.84 c -0.313 -0.559 0.27 -2.789 -0.316 -3.059 c -0.07 -0.031 -0.145 -0.023 -0.238 0 m 0.004 0" style="fill:#78cfff;fill-opacity:1;stroke:none;fill-rule:nonzero"/>
    <path d="m 21.07 20 c -1.27 0.176 -1.438 4.789 -2.363 5.68 c -0.926 0.891 -5.469 0.852 -5.695 2.121 c -0.227 1.266 4.04 2.863 4.602 4.03 c 0.559 1.16 -0.879 5.496 0.25 6.102 c 1.133 0.609 3.965 -3 5.234 -3.176 c 1.27 -0.176 4.941 2.543 5.863 1.652 c 0.93 -0.891 -1.617 -4.707 -1.391 -5.977 c 0.227 -1.273 3.934 -3.926 3.375 -5.082 c -0.559 -1.16 -4.945 0.098 -6.074 -0.512 c -1.133 -0.609 -2.527 -5.01 -3.801 -4.828 m 0 -0.008" style="fill:#78cfff;fill-opacity:1;stroke:none;fill-rule:nonzero"/>
   </g>
  </g>
 </g>
 <g>
  <path d="m 40.03 7.531 c 3.712 4.084 5.969 9.514 5.969 15.469 0 12.703 -10.297 23 -23 23 c -5.954 0 -11.384 -2.256 -15.469 -5.969 4.178 4.291 10.01 6.969 16.469 6.969 c 12.703 0 23 -10.298 23 -23 0 -6.462 -2.677 -12.291 -6.969 -16.469 z" style="opacity:0.1"/>
 </g>
</svg>
