<svg version="1.1" viewBox="0 0 48 48" xmlns="http://www.w3.org/2000/svg">
 <defs>
  <linearGradient id="bg" x2="0" y1="1" y2="47" gradientUnits="userSpaceOnUse">
   <stop style="stop-color:#c42812" offset="0"/>
   <stop style="stop-color:#b3240f" offset="1"/>
  </linearGradient>
 </defs>
 <path d="m36.31 5c5.859 4.062 9.688 10.831 9.688 18.5 0 12.426-10.07 22.5-22.5 22.5-7.669 0-14.438-3.828-18.5-9.688 1.037 1.822 2.306 3.499 3.781 4.969 4.085 3.712 9.514 5.969 15.469 5.969 12.703 0 23-10.298 23-23 0-5.954-2.256-11.384-5.969-15.469-1.469-1.475-3.147-2.744-4.969-3.781zm4.969 3.781c3.854 4.113 6.219 9.637 6.219 15.719 0 12.703-10.297 23-23 23-6.081 0-11.606-2.364-15.719-6.219 4.16 4.144 9.883 6.719 16.219 6.719 12.703 0 23-10.298 23-23 0-6.335-2.575-12.06-6.719-16.219z" style="opacity:.05"/>
 <path d="m41.28 8.781c3.712 4.085 5.969 9.514 5.969 15.469 0 12.703-10.297 23-23 23-5.954 0-11.384-2.256-15.469-5.969 4.113 3.854 9.637 6.219 15.719 6.219 12.703 0 23-10.298 23-23 0-6.081-2.364-11.606-6.219-15.719z" style="opacity:.1"/>
 <path d="m31.25 2.375c8.615 3.154 14.75 11.417 14.75 21.13 0 12.426-10.07 22.5-22.5 22.5-9.708 0-17.971-6.135-21.12-14.75a23 23 0 0 0 44.875-7 23 23 0 0 0-16-21.875z" style="opacity:.2"/>
 <circle cx="24" cy="24" r="23" style="fill:url(#bg)"/>
 <path d="m40.03 7.531c3.712 4.084 5.969 9.514 5.969 15.469 0 12.703-10.297 23-23 23-5.954 0-11.384-2.256-15.469-5.969 4.178 4.291 10.01 6.969 16.469 6.969 12.703 0 23-10.298 23-23 0-6.462-2.677-12.291-6.969-16.469z" style="opacity:.1"/>
 <path d="m33.5 13c-1.3807 0-2.5 1.1193-2.5 2.5s1.1193 2.5 2.5 2.5 2.5-1.1193 2.5-2.5-1.1193-2.5-2.5-2.5zm-14.516 3a1.0001 1.0001 0 0 0-0.9707 0.83594l-0.94727 5.6836-2.7734 2.7734a1.0001 1.0001 0 0 0 0.15234 1.5391l2.6191 1.7461 0.94336 7.5469a1.0001 1.0001 0 0 0 1.8496 0.38867l2.6191-4.3633 7.2812 1.8203a1.0001 1.0001 0 0 0 1.1113-1.4668l-3.7168-6.5039 3.7168-6.5039a1.0001 1.0001 0 0 0-1.1445-1.457l-6.4336 1.8379-3.584-3.584a1.0001 1.0001 0 0 0-0.72266-0.29297zm0.68164 3.0801 2.627 2.627a1.0001 1.0001 0 0 0 0.98242 0.25391l4.6367-1.3242-2.7812 4.8672a1.0001 1.0001 0 0 0 0 0.99219l2.8379 4.9648-5.7266-1.4316a1.0001 1.0001 0 0 0-1.0996 0.45703l-1.5098 2.5156-0.64062-5.127a1.0001 1.0001 0 0 0-0.4375-0.70703l-1.9844-1.3242 2.1367-2.1367a1.0001 1.0001 0 0 0 0.2793-0.54297z" style="opacity:.1"/>
 <path d="m32.5 12c-1.3807 0-2.5 1.1193-2.5 2.5s1.1193 2.5 2.5 2.5 2.5-1.1193 2.5-2.5-1.1193-2.5-2.5-2.5zm-14.516 3a1.0001 1.0001 0 0 0-0.9707 0.83594l-0.94727 5.6836-2.7734 2.7734a1.0001 1.0001 0 0 0 0.15234 1.5391l2.6191 1.7461 0.94336 7.5469a1.0001 1.0001 0 0 0 1.8496 0.38867l2.6191-4.3633 7.2812 1.8203a1.0001 1.0001 0 0 0 1.1113-1.4668l-3.7168-6.5039 3.7168-6.5039a1.0001 1.0001 0 0 0-1.1445-1.457l-6.4336 1.8379-3.584-3.584a1.0001 1.0001 0 0 0-0.72266-0.29297zm0.68164 3.0801 2.627 2.627a1.0001 1.0001 0 0 0 0.98242 0.25391l4.6367-1.3242-2.7812 4.8672a1.0001 1.0001 0 0 0 0 0.99219l2.8379 4.9648-5.7266-1.4316a1.0001 1.0001 0 0 0-1.0996 0.45703l-1.5098 2.5156-0.64062-5.127a1.0001 1.0001 0 0 0-0.4375-0.70703l-1.9844-1.3242 2.1367-2.1367a1.0001 1.0001 0 0 0 0.2793-0.54297l0.67969-4.084z" style="fill:#f8efef"/>
</svg>
