<svg version="1.1" viewBox="0 0 48 48" xmlns="http://www.w3.org/2000/svg">
 <defs>
  <linearGradient id="bg" x2="0" y1="1" y2="47" gradientUnits="userSpaceOnUse">
   <stop style="stop-color:#0e557f" offset="0"/>
   <stop style="stop-color:#0c486c" offset="1"/>
  </linearGradient>
 </defs>
 <path d="m36.31 5c5.859 4.062 9.688 10.831 9.688 18.5 0 12.426-10.07 22.5-22.5 22.5-7.669 0-14.438-3.828-18.5-9.688 1.037 1.822 2.306 3.499 3.781 4.969 4.085 3.712 9.514 5.969 15.469 5.969 12.703 0 23-10.298 23-23 0-5.954-2.256-11.384-5.969-15.469-1.469-1.475-3.147-2.744-4.969-3.781zm4.969 3.781c3.854 4.113 6.219 9.637 6.219 15.719 0 12.703-10.297 23-23 23-6.081 0-11.606-2.364-15.719-6.219 4.16 4.144 9.883 6.719 16.219 6.719 12.703 0 23-10.298 23-23 0-6.335-2.575-12.06-6.719-16.219z" style="opacity:.05"/>
 <path d="m41.28 8.781c3.712 4.085 5.969 9.514 5.969 15.469 0 12.703-10.297 23-23 23-5.954 0-11.384-2.256-15.469-5.969 4.113 3.854 9.637 6.219 15.719 6.219 12.703 0 23-10.298 23-23 0-6.081-2.364-11.606-6.219-15.719z" style="opacity:.1"/>
 <path d="m31.25 2.375c8.615 3.154 14.75 11.417 14.75 21.13 0 12.426-10.07 22.5-22.5 22.5-9.708 0-17.971-6.135-21.12-14.75a23 23 0 0 0 44.875-7 23 23 0 0 0-16-21.875z" style="opacity:.2"/>
 <circle cx="24" cy="24" r="23" style="fill:url(#bg)"/>
 <path d="m40.03 7.531c3.712 4.084 5.969 9.514 5.969 15.469 0 12.703-10.297 23-23 23-5.954 0-11.384-2.256-15.469-5.969 4.178 4.291 10.01 6.969 16.469 6.969 12.703 0 23-10.298 23-23 0-6.462-2.677-12.291-6.969-16.469z" style="opacity:.1"/>
 <path d="m20.5 13c-0.831 0-1.5 0.669-1.5 1.5s0.669 1.5 1.5 1.5h0.5v5s-5 12-5 14c0 1 1 2 2 2h14c1 0 2-1 2-2 0-2-5-14-5-14v-5h0.5c0.831 0 1.5-0.669 1.5-1.5s-0.669-1.5-1.5-1.5z" style="opacity:.1"/>
 <path d="m19.5 12c-0.831 0-1.5 0.669-1.5 1.5s0.669 1.5 1.5 1.5h0.5v5s-5 12-5 14c0 1 1 2 2 2h14c1 0 2-1 2-2 0-2-5-14-5-14v-5h0.5c0.831 0 1.5-0.669 1.5-1.5s-0.669-1.5-1.5-1.5z" style="fill:#f9f9f9"/>
 <path d="m17 33s0 1 1 1h12c1 0 1-1 1-1l-4-12h-6z" style="fill:#f7d206"/>
 <path d="m21 32c0 0.49477 2 1 3 1 1.0541 0 2.3837-0.14488 3-1 0.38981-0.54083 0-1 0-1s-0.31138 1.2852-1 1c1-1 0-3 0-3s-0.54324 2-1.4661 1.4407c-0.85519-0.51831-0.88438-0.87358-0.5339-1.4407 0.39186-0.63404 2 0 2-1s-2-1.0572-2-2c0-0.4714 1 0 1-1 0-0.74536-2-1-2-1s1 0.5286 1 1c0 0.94281-2 1.0572-2 2 0 0.4714 1 0.5286 1 1 0 0.94281-2 1-2 2 0 0.74536 2 1 2 1s-2 0-2 1z" style="fill:#7abf1c"/>
</svg>
