<svg version="1.1" viewBox="0 0 48 48" xmlns="http://www.w3.org/2000/svg">
 <defs>
  <linearGradient id="bg" x2="0" y1="1" y2="47" gradientUnits="userSpaceOnUse">
   <stop style="stop-color:#6094b5" offset="0"/>
   <stop style="stop-color:#538baf" offset="1"/>
  </linearGradient>
 </defs>
 <path d="m36.31 5c5.859 4.062 9.688 10.831 9.688 18.5 0 12.426-10.07 22.5-22.5 22.5-7.669 0-14.438-3.828-18.5-9.688 1.037 1.822 2.306 3.499 3.781 4.969 4.085 3.712 9.514 5.969 15.469 5.969 12.703 0 23-10.298 23-23 0-5.954-2.256-11.384-5.969-15.469-1.469-1.475-3.147-2.744-4.969-3.781zm4.969 3.781c3.854 4.113 6.219 9.637 6.219 15.719 0 12.703-10.297 23-23 23-6.081 0-11.606-2.364-15.719-6.219 4.16 4.144 9.883 6.719 16.219 6.719 12.703 0 23-10.298 23-23 0-6.335-2.575-12.06-6.719-16.219z" style="opacity:.05"/>
 <path d="m41.28 8.781c3.712 4.085 5.969 9.514 5.969 15.469 0 12.703-10.297 23-23 23-5.954 0-11.384-2.256-15.469-5.969 4.113 3.854 9.637 6.219 15.719 6.219 12.703 0 23-10.298 23-23 0-6.081-2.364-11.606-6.219-15.719z" style="opacity:.1"/>
 <path d="m31.25 2.375c8.615 3.154 14.75 11.417 14.75 21.13 0 12.426-10.07 22.5-22.5 22.5-9.708 0-17.971-6.135-21.12-14.75a23 23 0 0 0 44.875-7 23 23 0 0 0-16-21.875z" style="opacity:.2"/>
 <circle cx="24" cy="24" r="23" style="fill:url(#bg)"/>
 <path d="m40.03 7.531c3.712 4.084 5.969 9.514 5.969 15.469 0 12.703-10.297 23-23 23-5.954 0-11.384-2.256-15.469-5.969 4.178 4.291 10.01 6.969 16.469 6.969 12.703 0 23-10.298 23-23 0-6.462-2.677-12.291-6.969-16.469z" style="opacity:.1"/>
 <path d="m23 10v4h-3l5 4 5-4h-3v-4zm0 10v2.2539l-5.7461 5.7461h-2.2539v4h2.2539c0.18734 0.72411 0.4753 1.4184 0.85547 2.0625l-1.5938 1.5938 2.8281 2.8281 1.5918-1.5918c0.64486 0.37966 1.3398 0.66697 2.0645 0.85352v2.2539h4v-2.2539c0.72411-0.18734 1.4184-0.4753 2.0625-0.85547l1.5938 1.5938 2.8281-2.8281-1.5918-1.5918c0.37966-0.64486 0.66697-1.3398 0.85352-2.0645h2.2539v-4h-2.2539c-0.18734-0.72411-0.4753-1.4184-0.85547-2.0625l1.5938-1.5938-2.8281-2.8281-1.5918 1.5918c-0.64486-0.37966-1.3398-0.66697-2.0645-0.85352v-2.2539zm2 5c2.7614 0 5 2.2386 5 5s-2.2386 5-5 5-5-2.2386-5-5 2.2386-5 5-5z" style="fill-opacity:.99996;opacity:.1;stroke-linecap:round;stroke-linejoin:round;stroke-width:4"/>
 <path d="m22 9v4h-3l5 4 5-4h-3v-4h-4zm0 10v2.2539c-0.72411 0.18734-1.4184 0.4753-2.0625 0.85547l-1.5938-1.5938-2.8281 2.8281 1.5918 1.5918c-0.37966 0.64486-0.66697 1.3398-0.85352 2.0645h-2.2539v4h2.2539c0.18734 0.72411 0.4753 1.4184 0.85547 2.0625l-1.5938 1.5938 2.8281 2.8281 1.5918-1.5918c0.64486 0.37966 1.3398 0.66697 2.0645 0.85352v2.2539h4v-2.2539c0.72411-0.18734 1.4184-0.4753 2.0625-0.85547l1.5938 1.5938 2.8281-2.8281-1.5918-1.5918c0.37966-0.64486 0.66697-1.3398 0.85352-2.0645h2.2539v-4h-2.2539c-0.18734-0.72411-0.4753-1.4184-0.85547-2.0625l1.5938-1.5938-2.8281-2.8281-1.5918 1.5918c-0.64486-0.37966-1.3398-0.66697-2.0645-0.85352v-2.2539h-4zm2 5a5 5 0 0 1 5 5 5 5 0 0 1-5 5 5 5 0 0 1-5-5 5 5 0 0 1 5-5z" style="fill-opacity:.99996;fill:#f9f9f9;stroke-linecap:round;stroke-linejoin:round;stroke-width:4"/>
</svg>
