<svg version="1.1" viewBox="0 0 48 48" xmlns="http://www.w3.org/2000/svg">
 <defs>
  <linearGradient id="bg" x1="1" x2="47" gradientTransform="matrix(0 -1 1 0 -1.5e-6 48)" gradientUnits="userSpaceOnUse">
   <stop style="stop-color:#383838" offset="0"/>
   <stop style="stop-color:#424242" offset="1"/>
  </linearGradient>
 </defs>
 <path d="m36.31 5c5.859 4.062 9.688 10.831 9.688 18.5 0 12.426-10.07 22.5-22.5 22.5-7.669 0-14.438-3.828-18.5-9.688 1.037 1.822 2.306 3.499 3.781 4.969 4.085 3.712 9.514 5.969 15.469 5.969 12.703 0 23-10.298 23-23 0-5.954-2.256-11.384-5.969-15.469-1.469-1.475-3.147-2.744-4.969-3.781zm4.969 3.781c3.854 4.113 6.219 9.637 6.219 15.719 0 12.703-10.297 23-23 23-6.081 0-11.606-2.364-15.719-6.219 4.16 4.144 9.883 6.719 16.219 6.719 12.703 0 23-10.298 23-23 0-6.335-2.575-12.06-6.719-16.219z" style="opacity:.05"/>
 <path d="m41.28 8.781c3.712 4.085 5.969 9.514 5.969 15.469 0 12.703-10.297 23-23 23-5.954 0-11.384-2.256-15.469-5.969 4.113 3.854 9.637 6.219 15.719 6.219 12.703 0 23-10.298 23-23 0-6.081-2.364-11.606-6.219-15.719z" style="opacity:.1"/>
 <path d="m31.25 2.375c8.615 3.154 14.75 11.417 14.75 21.13 0 12.426-10.07 22.5-22.5 22.5-9.708 0-17.971-6.135-21.12-14.75a23 23 0 0 0 44.875-7 23 23 0 0 0-16-21.875z" style="opacity:.2"/>
 <path d="m24 1c12.703 0 23 10.297 23 23s-10.297 23-23 23-23-10.297-23-23 10.297-23 23-23z" style="fill:url(#bg)"/>
 <path d="m40.03 7.531c3.712 4.084 5.969 9.514 5.969 15.469 0 12.703-10.297 23-23 23-5.954 0-11.384-2.256-15.469-5.969 4.178 4.291 10.01 6.969 16.469 6.969 12.703 0 23-10.298 23-23 0-6.462-2.677-12.291-6.969-16.469z" style="opacity:.1"/>
 <path d="m23 12-2.5996 4h-3.4004c2.69e-4 0.35739 0.1955 0.68136 0.50195 0.86523l0.49805 0.29883 1 1.8359-2 3c-4.16e-4 0.55228 0.44772 1.0002 1 1l1.5-0.72852c0.27284-0.16183 0.58317-0.27149 0.90039-0.27148 0.88335 9e-6 1.5996 0.71627 1.5996 1.5996v1.4004c0 0.554 0.446 1 1 1l1-1v-1.4004c0-0.88335 0.71627-1.5996 1.5996-1.5996 0.31722-3e-6 0.62756 0.10966 0.90039 0.27148l0.96484 0.57227c0.16306 0.09672 0.34557 0.15617 0.53516 0.15625 0.55228 2.23e-4 1-1 1-1-2.69e-4 -0.35739-0.19551-0.68137-0.50195-0.86523l-0.49805-0.29883c-0.63278-0.37966-1-1.098-1-1.8359s0.36722-1.4563 1-1.8359l0.49805-0.29883c0.30644-0.18386 0.50168-0.50785 0.50195-0.86523 4.16e-4 -0.55228-0.44772-1.0002-1-1l-2.4004 1c-0.88335-9e-6 -1.5996-0.71627-1.5996-1.5996v-1.4004c0-0.554-0.446-1-1-1zm0 5c1.1046 0 2 0.89543 2 2l-2 2c-1.1046 0-2-0.89543-2-2s0.89543-2 2-2zm8 3-2.5996 4h-3.4004c2.69e-4 0.35739 0.1955 0.68136 0.50195 0.86523l0.49805 0.29883 1 1.8359-2 3c-4.16e-4 0.55228 0.44772 1.0002 1 1 0.18959-7.7e-5 0.37207-0.05952 0.53516-0.15625l0.96484-0.57227c0.27284-0.16183 0.58317-0.27149 0.90039-0.27148 0.88335 9e-6 1.5996 0.71627 1.5996 1.5996v1.4004c0 0.554 0.446 1 1 1s1-0.446 1-1v-1.4004c0-0.88335 0.71627-1.5996 1.5996-1.5996 0.31722-3e-6 0.62756 0.10966 0.90039 0.27148l0.96484 0.57227c0.16306 0.09672 0.34557 0.15617 0.53516 0.15625 0.55228 2.23e-4 1.0004-0.44772 1-1-2.69e-4 -0.35739-0.19551-0.68137-0.50195-0.86523l-0.49805-0.29883c-0.63278-0.37966-1-1.098-1-1.8359s0.36722-1.4563 1-1.8359l0.49805-0.29883c0.30644-0.18386 0.50168-0.50785 0.50195-0.86523 4.16e-4 -0.55228-0.44772-1.0002-1-1l-2.4004 1c-0.88335-9e-6 -1.5996-0.71627-1.5996-1.5996v-1.4004c0-0.554-0.446-1-1-1zm-11 3-2.5996 4h-3.4004c2.69e-4 0.35739 0.1955 0.68136 0.50195 0.86523l0.49805 0.29883 1 1.8359-2 3c-4.16e-4 0.55228 0.44772 1.0002 1 1 0.18959-7.7e-5 0.37207-0.05952 0.53516-0.15625l0.96484-0.57227c0.27284-0.16183 0.58317-0.27149 0.90039-0.27148 0.88335 9e-6 1.5996 0.71627 1.5996 1.5996v1.4004c0 0.554 0.446 1 1 1s1-0.446 1-1v-1.4004c0-0.88335 0.71627-1.5996 1.5996-1.5996 0.31722-3e-6 0.62756 0.10966 0.90039 0.27148l0.96484 0.57227c0.16306 0.09672 0.34557 0.15617 0.53516 0.15625 0.55228 2.23e-4 1.0004-0.44772 1-1-2.69e-4 -0.35739-0.19551-0.68137-0.50195-0.86523l-0.49805-0.29883c-0.63278-0.37966-1-1.098-1-1.8359s0.36722-1.4563 1-1.8359l0.49805-0.29883c0.30644-0.18386 0.50168-0.50785 0.50195-0.86523 4.16e-4 -0.55228-0.44772-1.0002-1-1l-2.4004 1c-0.88335-9e-6 -1.5996-0.71627-1.5996-1.5996v-1.4004c0-0.554-0.446-1-1-1zm11 2c1.1046 0 2 0.89543 2 2l-2 2c-1.1046 0-2-0.89543-2-2s0.89543-2 2-2zm-11 3c1.1046 0 2 0.89543 2 2l-2 2c-1.1046 0-2-0.89543-2-2s0.89543-2 2-2z" style="opacity:.1"/>
 <path d="m22 11c-0.554 0-1 0.446-1 1v1.4004c0 0.88335-0.71626 1.5996-1.5996 1.5996-0.31722 3e-6 -0.62755-0.10966-0.90039-0.27148l-0.96484-0.57227c-0.16308-0.096728-0.34557-0.15617-0.53516-0.15625-0.55228-2.23e-4 -1.0004 0.44772-1 1 2.69e-4 0.35739 0.1955 0.68136 0.50195 0.86523l0.49805 0.29883c0.63278 0.37967 1 1.098 1 1.8359s-0.36722 1.4563-1 1.8359l-0.49805 0.29883c-0.30646 0.18387-0.50168 0.50785-0.50195 0.86523-4.16e-4 0.55228 0.44772 1.0002 1 1 0.18959-7.7e-5 0.37207-0.059522 0.53516-0.15625l0.96484-0.57227c0.27284-0.16183 0.58317-0.27149 0.90039-0.27148 0.88335 9e-6 1.5996 0.71626 1.5996 1.5996v1.4004c0 0.554 0.446 1 1 1s1-0.446 1-1v-1.4004c0-0.88335 0.71626-1.5996 1.5996-1.5996 0.31722-3e-6 0.62756 0.10966 0.90039 0.27148l0.96484 0.57227c0.16306 0.09672 0.34557 0.15617 0.53516 0.15625 0.55228 2.23e-4 1.0004-0.44772 1-1-2.69e-4 -0.35739-0.19551-0.68137-0.50195-0.86523l-0.49805-0.29883c-0.63278-0.37966-1-1.098-1-1.8359s0.36722-1.4563 1-1.8359l0.49805-0.29883c0.30644-0.18386 0.50168-0.50785 0.50195-0.86523 4.16e-4 -0.55228-0.44772-1.0002-1-1-0.18959 7.7e-5 -0.37209 0.05953-0.53516 0.15625l-0.96484 0.57227c-0.27283 0.16182-0.58317 0.27149-0.90039 0.27148-0.88335-9e-6 -1.5996-0.71626-1.5996-1.5996v-1.4004c0-0.554-0.446-1-1-1zm0 5a2 2 0 0 1 2 2 2 2 0 0 1-2 2 2 2 0 0 1-2-2 2 2 0 0 1 2-2z" style="fill:#f96c78"/>
 <path d="m19 22c-0.554 0-1 0.446-1 1v1.4004c0 0.88335-0.71626 1.5996-1.5996 1.5996-0.31722 3e-6 -0.62755-0.10966-0.90039-0.27148l-0.96484-0.57227c-0.16308-0.096728-0.34557-0.15617-0.53516-0.15625-0.55228-2.23e-4 -1.0004 0.44772-1 1 2.69e-4 0.35739 0.1955 0.68136 0.50195 0.86523l0.49805 0.29883c0.63278 0.37967 1 1.098 1 1.8359s-0.36722 1.4563-1 1.8359l-0.49805 0.29883c-0.30646 0.18387-0.50168 0.50785-0.50195 0.86523-4.16e-4 0.55228 0.44772 1.0002 1 1 0.18959-7.7e-5 0.37207-0.05952 0.53516-0.15625l0.96484-0.57227c0.27284-0.16183 0.58317-0.27149 0.90039-0.27148 0.88335 9e-6 1.5996 0.71626 1.5996 1.5996v1.4004c0 0.554 0.446 1 1 1s1-0.446 1-1v-1.4004c0-0.88335 0.71626-1.5996 1.5996-1.5996 0.31722-3e-6 0.62756 0.10966 0.90039 0.27148l0.96484 0.57227c0.16306 0.09672 0.34557 0.15617 0.53516 0.15625 0.55228 2.23e-4 1.0004-0.44772 1-1-2.69e-4 -0.35739-0.19551-0.68137-0.50195-0.86523l-0.49805-0.29883c-0.63278-0.37966-1-1.098-1-1.8359s0.36722-1.4563 1-1.8359l0.49805-0.29883c0.30644-0.18386 0.50168-0.50785 0.50195-0.86523 4.16e-4 -0.55228-0.44772-1.0002-1-1-0.18959 7.7e-5 -0.37209 0.05953-0.53516 0.15625l-0.96484 0.57227c-0.27283 0.16182-0.58317 0.27149-0.90039 0.27148-0.88335-9e-6 -1.5996-0.71626-1.5996-1.5996v-1.4004c0-0.554-0.446-1-1-1zm0 5a2 2 0 0 1 2 2 2 2 0 0 1-2 2 2 2 0 0 1-2-2 2 2 0 0 1 2-2z" style="fill:#2fb1df"/>
 <path d="m30 19c-0.554 0-1 0.446-1 1v1.4004c0 0.88335-0.71626 1.5996-1.5996 1.5996-0.31722 3e-6 -0.62755-0.10966-0.90039-0.27148l-0.96484-0.57227c-0.16308-0.096728-0.34557-0.15617-0.53516-0.15625-0.55228-2.23e-4 -1.0004 0.44772-1 1 2.69e-4 0.35739 0.1955 0.68136 0.50195 0.86523l0.49805 0.29883c0.63278 0.37967 1 1.098 1 1.8359s-0.36722 1.4563-1 1.8359l-0.49805 0.29883c-0.30646 0.18387-0.50168 0.50785-0.50195 0.86523-4.16e-4 0.55228 0.44772 1.0002 1 1 0.18959-7.7e-5 0.37207-0.05952 0.53516-0.15625l0.96484-0.57227c0.27284-0.16183 0.58317-0.27149 0.90039-0.27148 0.88335 9e-6 1.5996 0.71626 1.5996 1.5996v1.4004c0 0.554 0.446 1 1 1s1-0.446 1-1v-1.4004c0-0.88335 0.71626-1.5996 1.5996-1.5996 0.31722-3e-6 0.62756 0.10966 0.90039 0.27148l0.96484 0.57227c0.16306 0.09672 0.34557 0.15617 0.53516 0.15625 0.55228 2.23e-4 1.0004-0.44772 1-1-2.69e-4 -0.35739-0.19551-0.68137-0.50195-0.86523l-0.49805-0.29883c-0.63278-0.37966-1-1.098-1-1.8359s0.36722-1.4563 1-1.8359l0.49805-0.29883c0.30644-0.18386 0.50168-0.50785 0.50195-0.86523 4.16e-4 -0.55228-0.44772-1.0002-1-1-0.18959 7.7e-5 -0.37209 0.05953-0.53516 0.15625l-0.96484 0.57227c-0.27283 0.16182-0.58317 0.27149-0.90039 0.27148-0.88335-9e-6 -1.5996-0.71626-1.5996-1.5996v-1.4004c0-0.554-0.446-1-1-1zm0 5a2 2 0 0 1 2 2 2 2 0 0 1-2 2 2 2 0 0 1-2-2 2 2 0 0 1 2-2z" style="fill:#53df60"/>
</svg>
