<svg xmlns="http://www.w3.org/2000/svg" viewBox="0 0 48 48">
 <defs>
  <linearGradient id="linearGradient3764" x1="1" x2="47" gradientUnits="userSpaceOnUse" gradientTransform="matrix(0,-1,1,0,-1.5e-6,47.999998)">
   <stop style="stop-color:#e38f23;stop-opacity:1"/>
   <stop offset="1" style="stop-color:#e59735;stop-opacity:1"/>
  </linearGradient>
 </defs>
 <g>
  <path d="m 36.31 5 c 5.859 4.062 9.688 10.831 9.688 18.5 c 0 12.426 -10.07 22.5 -22.5 22.5 c -7.669 0 -14.438 -3.828 -18.5 -9.688 c 1.037 1.822 2.306 3.499 3.781 4.969 c 4.085 3.712 9.514 5.969 15.469 5.969 c 12.703 0 23 -10.298 23 -23 c 0 -5.954 -2.256 -11.384 -5.969 -15.469 c -1.469 -1.475 -3.147 -2.744 -4.969 -3.781 z m 4.969 3.781 c 3.854 4.113 6.219 9.637 6.219 15.719 c 0 12.703 -10.297 23 -23 23 c -6.081 0 -11.606 -2.364 -15.719 -6.219 c 4.16 4.144 9.883 6.719 16.219 6.719 c 12.703 0 23 -10.298 23 -23 c 0 -6.335 -2.575 -12.06 -6.719 -16.219 z" style="opacity:0.05"/>
  <path d="m 41.28 8.781 c 3.712 4.085 5.969 9.514 5.969 15.469 c 0 12.703 -10.297 23 -23 23 c -5.954 0 -11.384 -2.256 -15.469 -5.969 c 4.113 3.854 9.637 6.219 15.719 6.219 c 12.703 0 23 -10.298 23 -23 c 0 -6.081 -2.364 -11.606 -6.219 -15.719 z" style="opacity:0.1"/>
  <path d="m 31.25 2.375 c 8.615 3.154 14.75 11.417 14.75 21.13 c 0 12.426 -10.07 22.5 -22.5 22.5 c -9.708 0 -17.971 -6.135 -21.12 -14.75 a 23 23 0 0 0 44.875 -7 a 23 23 0 0 0 -16 -21.875 z" style="opacity:0.2"/>
 </g>
 <g>
  <path d="m 24 1 c 12.703 0 23 10.297 23 23 c 0 12.703 -10.297 23 -23 23 -12.703 0 -23 -10.297 -23 -23 0 -12.703 10.297 -23 23 -23 z" style="fill:url(#linearGradient3764);fill-opacity:1"/>
 </g>
 <g>
  <g>
   <g transform="translate(1,1)">
    <g style="opacity:0.1">
     <!-- color: #e59735 -->
     <g>
      <path d="m 28.418 35.957 c -1.973 -0.324 -4.535 -2.586 -6.875 -6.06 c -0.98 -1.457 -1.984 -3.258 -2.641 -4.734 c -0.129 -0.297 -0.18 -0.367 -0.219 -0.324 c -0.078 0.082 -0.652 1.324 -0.953 2.066 c -0.508 1.25 -0.863 2.438 -1.066 3.582 c -0.133 0.719 -0.141 2.109 -0.02 2.543 c 0.281 1 0.895 1.422 1.852 1.258 c 0.691 -0.117 1.523 -0.492 2.41 -1.094 c 0.391 -0.266 0.496 -0.313 0.648 -0.313 c 0.234 0 0.406 0.125 0.488 0.352 c 0.055 0.152 0.055 0.199 0 0.344 c -0.055 0.145 -0.145 0.227 -0.559 0.504 c -0.574 0.391 -1.559 0.891 -2.055 1.051 c -1.316 0.422 -2.34 0.266 -3.066 -0.461 c -0.664 -0.668 -0.938 -1.746 -0.852 -3.254 c 0.105 -1.957 0.977 -4.633 2.336 -7.258 l 0.34 -0.656 l -0.258 -0.699 c -0.25 -0.668 -0.734 -2.215 -0.734 -2.332 c 0 -0.086 -0.148 -0.066 -0.805 0.094 c -1.5 0.367 -2.613 0.84 -3.41 1.438 c -1.57 1.18 -1.156 2.508 1.195 3.832 c 0.375 0.215 0.461 0.328 0.461 0.609 c 0 0.145 -0.027 0.203 -0.148 0.324 c -0.258 0.258 -0.496 0.203 -1.293 -0.289 c -1.148 -0.715 -1.875 -1.523 -2.133 -2.383 c -0.094 -0.313 -0.094 -0.941 0 -1.258 c 0.133 -0.457 0.363 -0.82 0.777 -1.234 c 0.922 -0.93 2.457 -1.645 4.559 -2.125 c 0.43 -0.098 0.527 -0.133 0.512 -0.188 c -0.012 -0.039 -0.063 -0.281 -0.113 -0.547 c -0.285 -1.531 -0.293 -3.289 -0.02 -4.266 c 0.316 -1.121 0.887 -1.793 1.797 -2.105 c 0.371 -0.125 1.117 -0.105 1.621 0.047 c 0.516 0.152 1.148 0.465 1.715 0.844 c 0.668 0.449 0.867 0.637 0.895 0.855 c 0.063 0.5 -0.449 0.77 -0.871 0.453 c -1.32 -0.98 -2.262 -1.359 -3.02 -1.199 c -0.551 0.117 -0.969 0.68 -1.18 1.586 c -0.086 0.359 -0.098 0.531 -0.098 1.426 c 0 1.02 0.016 1.18 0.199 2.246 l 0.094 0.535 l 0.219 -0.027 c 1.012 -0.121 1.883 -0.207 2.418 -0.238 l 0.637 -0.035 l 0.098 -0.125 c 1.078 -1.383 2.641 -3 3.828 -3.953 c 2.27 -1.82 4.215 -2.453 5.555 -1.805 c 0.758 0.363 1.234 1.113 1.422 2.223 c 0.121 0.723 0.023 2.438 -0.164 2.922 c -0.063 0.164 -0.273 0.285 -0.5 0.285 c -0.141 0 -0.215 -0.027 -0.324 -0.129 c -0.133 -0.113 -0.141 -0.148 -0.141 -0.379 c 0 -0.137 0.035 -0.535 0.082 -0.879 c 0.125 -1 0.035 -1.938 -0.234 -2.473 c -0.137 -0.262 -0.406 -0.539 -0.645 -0.652 c -0.176 -0.09 -0.266 -0.102 -0.68 -0.102 c -0.43 0 -0.516 0.016 -0.945 0.164 c -1.324 0.449 -2.84 1.539 -4.473 3.199 c -0.309 0.32 -0.777 0.82 -1.035 1.121 l -0.473 0.539 l 0.41 0.012 c 5.742 0.137 10.582 1.457 12.863 3.504 c 0.512 0.461 0.957 1.148 1.082 1.684 c 0.063 0.273 0.063 0.801 0.004 1.082 c -0.23 1.039 -1.379 2.066 -3.051 2.727 c -0.273 0.105 -0.316 0.113 -0.461 0.07 c -0.234 -0.07 -0.395 -0.266 -0.395 -0.5 c 0 -0.277 0.129 -0.41 0.609 -0.613 c 1.035 -0.434 1.84 -1.043 2.145 -1.629 c 0.109 -0.199 0.121 -0.277 0.121 -0.602 c 0 -0.332 -0.012 -0.398 -0.145 -0.648 c -0.184 -0.359 -0.797 -0.973 -1.305 -1.309 c -2.492 -1.645 -7.191 -2.719 -11.938 -2.719 l -0.781 0 l -0.293 0.398 c -0.445 0.598 -1.402 2.055 -1.781 2.707 l -0.336 0.574 l 0.23 0.531 c 2.316 5.313 5.91 9.805 8.563 10.703 c 0.578 0.188 1.016 0.191 1.367 0.02 c 0.656 -0.324 1 -1.164 1.059 -2.563 c 0.086 -2.348 -0.758 -5.594 -2.332 -8.949 c -0.164 -0.348 -0.262 -0.613 -0.262 -0.711 c 0 -0.281 0.234 -0.504 0.523 -0.5 c 0.258 0 0.371 0.102 0.57 0.52 c 1.281 2.672 2.129 5.355 2.449 7.695 c 0.105 0.785 0.105 2.391 0 2.965 c -0.172 0.918 -0.477 1.578 -0.938 2.047 c -0.563 0.566 -1.297 0.781 -2.164 0.641 m -9.156 -14.281 c 0.164 -0.27 0.48 -0.746 0.703 -1.07 c 0.223 -0.328 0.402 -0.605 0.402 -0.625 c 0 -0.059 -2.047 0.152 -2.105 0.211 c -0.035 0.039 0.082 0.492 0.355 1.332 c 0.199 0.609 0.254 0.734 0.297 0.688 c 0.031 -0.035 0.188 -0.273 0.348 -0.535 m 4.371 3.887 c -0.652 -0.234 -1.031 -0.777 -1.023 -1.461 c 0 -0.359 0.082 -0.602 0.293 -0.891 c 0.531 -0.723 1.617 -0.805 2.266 -0.172 c 0.754 0.727 0.531 2.027 -0.422 2.457 c -0.324 0.148 -0.801 0.18 -1.117 0.063 m 0.004 0.004" style="fill:#000;fill-opacity:1;stroke:none;fill-rule:nonzero"/>
     </g>
    </g>
   </g>
  </g>
 </g>
 <g>
  <g>
   <!-- color: #e59735 -->
   <g>
    <path d="m 28.418 35.957 c -1.973 -0.324 -4.535 -2.586 -6.875 -6.06 c -0.98 -1.457 -1.984 -3.258 -2.641 -4.734 c -0.129 -0.297 -0.18 -0.367 -0.219 -0.324 c -0.078 0.082 -0.652 1.324 -0.953 2.066 c -0.508 1.25 -0.863 2.438 -1.066 3.582 c -0.133 0.719 -0.141 2.109 -0.02 2.543 c 0.281 1 0.895 1.422 1.852 1.258 c 0.691 -0.117 1.523 -0.492 2.41 -1.094 c 0.391 -0.266 0.496 -0.313 0.648 -0.313 c 0.234 0 0.406 0.125 0.488 0.352 c 0.055 0.152 0.055 0.199 0 0.344 c -0.055 0.145 -0.145 0.227 -0.559 0.504 c -0.574 0.391 -1.559 0.891 -2.055 1.051 c -1.316 0.422 -2.34 0.266 -3.066 -0.461 c -0.664 -0.668 -0.938 -1.746 -0.852 -3.254 c 0.105 -1.957 0.977 -4.633 2.336 -7.258 l 0.34 -0.656 l -0.258 -0.699 c -0.25 -0.668 -0.734 -2.215 -0.734 -2.332 c 0 -0.086 -0.148 -0.066 -0.805 0.094 c -1.5 0.367 -2.613 0.84 -3.41 1.438 c -1.57 1.18 -1.156 2.508 1.195 3.832 c 0.375 0.215 0.461 0.328 0.461 0.609 c 0 0.145 -0.027 0.203 -0.148 0.324 c -0.258 0.258 -0.496 0.203 -1.293 -0.289 c -1.148 -0.715 -1.875 -1.523 -2.133 -2.383 c -0.094 -0.313 -0.094 -0.941 0 -1.258 c 0.133 -0.457 0.363 -0.82 0.777 -1.234 c 0.922 -0.93 2.457 -1.645 4.559 -2.125 c 0.43 -0.098 0.527 -0.133 0.512 -0.188 c -0.012 -0.039 -0.063 -0.281 -0.113 -0.547 c -0.285 -1.531 -0.293 -3.289 -0.02 -4.266 c 0.316 -1.121 0.887 -1.793 1.797 -2.105 c 0.371 -0.125 1.117 -0.105 1.621 0.047 c 0.516 0.152 1.148 0.465 1.715 0.844 c 0.668 0.449 0.867 0.637 0.895 0.855 c 0.063 0.5 -0.449 0.77 -0.871 0.453 c -1.32 -0.98 -2.262 -1.359 -3.02 -1.199 c -0.551 0.117 -0.969 0.68 -1.18 1.586 c -0.086 0.359 -0.098 0.531 -0.098 1.426 c 0 1.02 0.016 1.18 0.199 2.246 l 0.094 0.535 l 0.219 -0.027 c 1.012 -0.121 1.883 -0.207 2.418 -0.238 l 0.637 -0.035 l 0.098 -0.125 c 1.078 -1.383 2.641 -3 3.828 -3.953 c 2.27 -1.82 4.215 -2.453 5.555 -1.805 c 0.758 0.363 1.234 1.113 1.422 2.223 c 0.121 0.723 0.023 2.438 -0.164 2.922 c -0.063 0.164 -0.273 0.285 -0.5 0.285 c -0.141 0 -0.215 -0.027 -0.324 -0.129 c -0.133 -0.113 -0.141 -0.148 -0.141 -0.379 c 0 -0.137 0.035 -0.535 0.082 -0.879 c 0.125 -1 0.035 -1.938 -0.234 -2.473 c -0.137 -0.262 -0.406 -0.539 -0.645 -0.652 c -0.176 -0.09 -0.266 -0.102 -0.68 -0.102 c -0.43 0 -0.516 0.016 -0.945 0.164 c -1.324 0.449 -2.84 1.539 -4.473 3.199 c -0.309 0.32 -0.777 0.82 -1.035 1.121 l -0.473 0.539 l 0.41 0.012 c 5.742 0.137 10.582 1.457 12.863 3.504 c 0.512 0.461 0.957 1.148 1.082 1.684 c 0.063 0.273 0.063 0.801 0.004 1.082 c -0.23 1.039 -1.379 2.066 -3.051 2.727 c -0.273 0.105 -0.316 0.113 -0.461 0.07 c -0.234 -0.07 -0.395 -0.266 -0.395 -0.5 c 0 -0.277 0.129 -0.41 0.609 -0.613 c 1.035 -0.434 1.84 -1.043 2.145 -1.629 c 0.109 -0.199 0.121 -0.277 0.121 -0.602 c 0 -0.332 -0.012 -0.398 -0.145 -0.648 c -0.184 -0.359 -0.797 -0.973 -1.305 -1.309 c -2.492 -1.645 -7.191 -2.719 -11.938 -2.719 l -0.781 0 l -0.293 0.398 c -0.445 0.598 -1.402 2.055 -1.781 2.707 l -0.336 0.574 l 0.23 0.531 c 2.316 5.313 5.91 9.805 8.563 10.703 c 0.578 0.188 1.016 0.191 1.367 0.02 c 0.656 -0.324 1 -1.164 1.059 -2.563 c 0.086 -2.348 -0.758 -5.594 -2.332 -8.949 c -0.164 -0.348 -0.262 -0.613 -0.262 -0.711 c 0 -0.281 0.234 -0.504 0.523 -0.5 c 0.258 0 0.371 0.102 0.57 0.52 c 1.281 2.672 2.129 5.355 2.449 7.695 c 0.105 0.785 0.105 2.391 0 2.965 c -0.172 0.918 -0.477 1.578 -0.938 2.047 c -0.563 0.566 -1.297 0.781 -2.164 0.641 m -9.156 -14.281 c 0.164 -0.27 0.48 -0.746 0.703 -1.07 c 0.223 -0.328 0.402 -0.605 0.402 -0.625 c 0 -0.059 -2.047 0.152 -2.105 0.211 c -0.035 0.039 0.082 0.492 0.355 1.332 c 0.199 0.609 0.254 0.734 0.297 0.688 c 0.031 -0.035 0.188 -0.273 0.348 -0.535 m 4.371 3.887 c -0.652 -0.234 -1.031 -0.777 -1.023 -1.461 c 0 -0.359 0.082 -0.602 0.293 -0.891 c 0.531 -0.723 1.617 -0.805 2.266 -0.172 c 0.754 0.727 0.531 2.027 -0.422 2.457 c -0.324 0.148 -0.801 0.18 -1.117 0.063 m 0.004 0.004" style="fill:#f9f9f9;fill-opacity:1;stroke:none;fill-rule:nonzero"/>
   </g>
  </g>
 </g>
 <g>
  <path d="m 40.03 7.531 c 3.712 4.084 5.969 9.514 5.969 15.469 0 12.703 -10.297 23 -23 23 c -5.954 0 -11.384 -2.256 -15.469 -5.969 4.178 4.291 10.01 6.969 16.469 6.969 c 12.703 0 23 -10.298 23 -23 0 -6.462 -2.677 -12.291 -6.969 -16.469 z" style="opacity:0.1"/>
 </g>
</svg>
