<svg version="1.1" viewBox="0 0 48 48" xmlns="http://www.w3.org/2000/svg" xmlns:xlink="http://www.w3.org/1999/xlink">
 <defs>
  <linearGradient id="linearGradient4720" x1="1" x2="47" y1="24" y2="24" gradientUnits="userSpaceOnUse">
   <stop style="stop-color:#fbe5cd" offset="0"/>
   <stop style="stop-color:#fadbba" offset="1"/>
  </linearGradient>
 </defs>
 <path d="m36.31 5c5.859 4.062 9.688 10.831 9.688 18.5 0 12.426-10.07 22.5-22.5 22.5-7.669 0-14.438-3.828-18.5-9.688 1.037 1.822 2.306 3.499 3.781 4.969 4.085 3.712 9.514 5.969 15.469 5.969 12.703 0 23-10.298 23-23 0-5.954-2.256-11.384-5.969-15.469-1.469-1.475-3.147-2.744-4.969-3.781zm4.969 3.781c3.854 4.113 6.219 9.637 6.219 15.719 0 12.703-10.297 23-23 23-6.081 0-11.606-2.364-15.719-6.219 4.16 4.144 9.883 6.719 16.219 6.719 12.703 0 23-10.298 23-23 0-6.335-2.575-12.06-6.719-16.219z" style="opacity:.05"/>
 <path d="m41.28 8.781c3.712 4.085 5.969 9.514 5.969 15.469 0 12.703-10.297 23-23 23-5.954 0-11.384-2.256-15.469-5.969 4.113 3.854 9.637 6.219 15.719 6.219 12.703 0 23-10.298 23-23 0-6.081-2.364-11.606-6.219-15.719z" style="opacity:.1"/>
 <path d="m31.25 2.375c8.615 3.154 14.75 11.417 14.75 21.13 0 12.426-10.07 22.5-22.5 22.5-9.708 0-17.971-6.135-21.12-14.75a23 23 0 0 0 44.875-7 23 23 0 0 0-16-21.875z" style="opacity:.2"/>
 <g transform="rotate(90,24,24)" style="fill:url(#linearGradient4720)">
  <path d="m24 1c12.703 0 23 10.297 23 23s-10.297 23-23 23-23-10.297-23-23 10.297-23 23-23z" style="fill:url(#linearGradient4720)"/>
 </g>
 <path d="m40.03 7.531c3.712 4.084 5.969 9.514 5.969 15.469 0 12.703-10.297 23-23 23-5.954 0-11.384-2.256-15.469-5.969 4.178 4.291 10.01 6.969 16.469 6.969 12.703 0 23-10.298 23-23 0-6.462-2.677-12.291-6.969-16.469z" style="opacity:.1"/>
 <rect x="12" y="12" width="26" height="26" rx="1.5" style="fill-opacity:.098"/>
 <rect x="11" y="11" width="26" height="26" rx="1.5" style="fill:#cdcdcd"/>
 <rect x="15" y="15" width="18" height="5" rx="1" style="fill:#f0f0f0"/>
 <rect x="15" y="22" width="18" height="5" rx="1" style="fill:#f0f0f0"/>
 <rect x="15" y="29" width="18" height="5" rx="1" style="fill:#403757"/>
 <rect x="27.75" y="22" width=".5" height="5" rx="0" style="fill:#cdcdcd"/>
 <rect x="22.75" y="22" width=".5" height="5" rx="0" style="fill:#cdcdcd"/>
 <g transform="matrix(1.0141 0 0 .98612 0 -1.4112e-6)">
  <path d="m21.306 30.422c-0.965 0-1.583 0.657-1.583 1.515 0 0.845 0.588 1.528 1.553 1.528 0.275 0 0.596-0.064 0.91-0.197l0.077-0.03-0.172-0.425-0.077 0.03c-0.227 0.09-0.455 0.137-0.644 0.137-0.695 0-1.107-0.416-1.107-1.047 0-0.566 0.386-1.043 1.03-1.043 0.137 0 0.348 0 0.674 0.12l0.082 0.03 0.172-0.421-0.077-0.03c-0.313-0.124-0.605-0.167-0.837-0.167z" style="fill:#f0f0f0"/>
  <path d="m23.896 30.92c0.27 0 0.511 0.069 0.751 0.163l0.167-0.481-0.051-0.021c-0.12-0.039-0.412-0.159-0.884-0.159-0.682 0-1.111 0.352-1.111 0.837 0 1.047 1.613 0.772 1.6 1.339 0 0.215-0.262 0.369-0.648 0.369-0.163 0-0.425-0.047-0.811-0.189l-0.082-0.034-0.18 0.485 0.077 0.026c0.287 0.112 0.575 0.21 0.953 0.21 0.918 0 1.236-0.455 1.236-0.867 0-1.026-1.6-0.807-1.6-1.317 0-0.215 0.223-0.36 0.584-0.36z" style="fill:#f0f0f0"/>
  <path d="m26.594 30.92c0.27 0 0.511 0.069 0.751 0.163l0.167-0.481-0.051-0.021c-0.12-0.039-0.412-0.159-0.884-0.159-0.682 0-1.111 0.352-1.111 0.837 0 1.047 1.613 0.772 1.6 1.339 0 0.215-0.262 0.369-0.648 0.369-0.163 0-0.425-0.047-0.811-0.189l-0.082-0.034-0.18 0.485 0.077 0.026c0.287 0.112 0.575 0.21 0.953 0.21 0.918 0 1.236-0.455 1.236-0.867 0-1.026-1.6-0.807-1.6-1.317 0-0.215 0.223-0.36 0.584-0.36z" style="fill:#f0f0f0"/>
 </g>
 <rect x="27.75" y="15" width=".5" height="5" rx="0" style="fill:#cdcdcd"/>
 <g transform="translate(0 -1.4112e-6)" style="fill:#646464">
  <rect x="30.17" y="23.5" width=".667" height="2" rx="0"/>
  <rect x="29.5" y="24.17" width="2" height=".667" rx="0"/>
  <g transform="scale(.99258 1.0075)">
   <path d="m16.27 23.539c0.242-0.104 0.476-0.221 0.768-0.221 0.368 0 0.505 0.146 0.505 0.38 0 0.368-0.455 0.785-0.873 1.224-0.217 0.226-0.393 0.376-0.547 0.522v0.363h2.01v-0.493h-1.184c0.547-0.56 1.107-1.078 1.107-1.65 0-0.472-0.322-0.835-1.019-0.835-0.393 0-0.718 0.159-0.919 0.263z"/>
   <path d="m19.891 23.31c0.305 0 0.752 0.221 0.752 0.986 0 0.806-0.451 1.036-0.752 1.036-0.305 0-0.756-0.23-0.756-1.048 0-0.752 0.455-0.973 0.756-0.973zm0-0.48c-0.535 0-1.27 0.33-1.27 1.453 0 1.174 0.727 1.524 1.27 1.524 0.539 0 1.265-0.342 1.265-1.52 0-1.128-0.727-1.458-1.265-1.458z"/>
  </g>
  <rect x="24.5" y="24.17" width="2" height=".667" rx="0"/>
  <path d="m29.3 17.1 1.2 1.2 1.2-1.2-0.4-0.4-0.8 0.8-0.8-0.8"/>
  <g transform="scale(.93467 1.0699)">
   <path d="m17.435 15.656v0.154h-0.317v0.368h0.317v1.58h0.475v-1.58h0.717v-0.368h-0.717v-0.17c0-0.182 0.162-0.301 0.42-0.301 0.115 0 0.242 0.028 0.297 0.04l0.079 0.02 0.071-0.341-0.067-0.024c-0.234-0.071-0.392-0.079-0.495-0.079-0.689 0-0.78 0.491-0.78 0.701z"/>
   <path d="m19.734 16.14c0.269 0 0.491 0.218 0.491 0.626s-0.218 0.614-0.491 0.614c-0.269 0-0.491-0.21-0.491-0.614s0.226-0.626 0.491-0.626zm0 1.616c0.598 0 0.982-0.4 0.982-0.994 0-0.598-0.376-0.994-0.978-0.994-0.598 0-0.982 0.4-0.982 0.998 0 0.594 0.38 0.99 0.978 0.99z"/>
   <path d="m21.969 16.14c0.269 0 0.491 0.218 0.491 0.626s-0.218 0.614-0.491 0.614c-0.269 0-0.491-0.21-0.491-0.614s0.226-0.626 0.491-0.626zm0 1.616c0.598 0 0.982-0.4 0.982-0.994 0-0.598-0.376-0.994-0.978-0.994-0.598 0-0.982 0.4-0.982 0.998 0 0.594 0.38 0.99 0.978 0.99z"/>
   <path d="m23.326 14.971v2.749h0.341l0.036-0.103c0.131 0.067 0.305 0.143 0.511 0.143 0.622 0 0.974-0.38 0.974-0.994 0-0.733-0.503-0.994-0.931-0.994-0.17 0-0.325 0.032-0.455 0.083v-0.883h-0.475zm0.82 1.176c0.317 0 0.554 0.15 0.554 0.646 0 0.448-0.253 0.602-0.57 0.602-0.135 0-0.242-0.044-0.329-0.095v-1.089c0.127-0.048 0.242-0.063 0.345-0.063z"/>
   <path d="m26.25 15.771c-0.329 0-0.491 0.079-0.63 0.127v0.364c0.174-0.071 0.333-0.131 0.527-0.131 0.392 0 0.483 0.107 0.483 0.432l-0.368 0.02c-0.511 0.032-0.796 0.234-0.796 0.61 0 0.333 0.253 0.566 0.669 0.566 0.23 0 0.412-0.071 0.562-0.166l0.051 0.127h0.38v-1.172c0-0.448-0.178-0.776-0.879-0.776zm0.404 1.525c-0.103 0.063-0.194 0.111-0.396 0.111-0.198 0-0.321-0.095-0.321-0.246 0-0.15 0.119-0.238 0.376-0.253l0.341-0.02z"/>
   <path d="m27.976 15.941-0.063-0.131h-0.333v1.949h0.475v-1.513c0.131-0.04 0.281-0.071 0.436-0.071 0.119 0 0.246 0.02 0.364 0.071h0.032v-0.4c-0.111-0.051-0.23-0.075-0.349-0.075-0.198 0-0.4 0.067-0.562 0.17z"/>
  </g>
 </g>
</svg>
