<svg xmlns="http://www.w3.org/2000/svg" viewBox="0 0 48 48">
 <defs>
  <linearGradient id="linearGradient3764" x1="1" x2="47" gradientUnits="userSpaceOnUse" gradientTransform="matrix(0,-1,1,0,-1.5e-6,47.999998)">
   <stop style="stop-color:#83b5e9;stop-opacity:1"/>
   <stop offset="1" style="stop-color:#93c0ec;stop-opacity:1"/>
  </linearGradient>
 </defs>
 <g>
  <path d="m 36.31 5 c 5.859 4.062 9.688 10.831 9.688 18.5 c 0 12.426 -10.07 22.5 -22.5 22.5 c -7.669 0 -14.438 -3.828 -18.5 -9.688 c 1.037 1.822 2.306 3.499 3.781 4.969 c 4.085 3.712 9.514 5.969 15.469 5.969 c 12.703 0 23 -10.298 23 -23 c 0 -5.954 -2.256 -11.384 -5.969 -15.469 c -1.469 -1.475 -3.147 -2.744 -4.969 -3.781 z m 4.969 3.781 c 3.854 4.113 6.219 9.637 6.219 15.719 c 0 12.703 -10.297 23 -23 23 c -6.081 0 -11.606 -2.364 -15.719 -6.219 c 4.16 4.144 9.883 6.719 16.219 6.719 c 12.703 0 23 -10.298 23 -23 c 0 -6.335 -2.575 -12.06 -6.719 -16.219 z" style="opacity:0.05"/>
  <path d="m 41.28 8.781 c 3.712 4.085 5.969 9.514 5.969 15.469 c 0 12.703 -10.297 23 -23 23 c -5.954 0 -11.384 -2.256 -15.469 -5.969 c 4.113 3.854 9.637 6.219 15.719 6.219 c 12.703 0 23 -10.298 23 -23 c 0 -6.081 -2.364 -11.606 -6.219 -15.719 z" style="opacity:0.1"/>
  <path d="m 31.25 2.375 c 8.615 3.154 14.75 11.417 14.75 21.13 c 0 12.426 -10.07 22.5 -22.5 22.5 c -9.708 0 -17.971 -6.135 -21.12 -14.75 a 23 23 0 0 0 44.875 -7 a 23 23 0 0 0 -16 -21.875 z" style="opacity:0.2"/>
 </g>
 <g>
  <path d="m 24 1 c 12.703 0 23 10.297 23 23 c 0 12.703 -10.297 23 -23 23 -12.703 0 -23 -10.297 -23 -23 0 -12.703 10.297 -23 23 -23 z" style="fill:url(#linearGradient3764);fill-opacity:1"/>
 </g>
 <g>
  <g>
   <g transform="translate(1,1)">
    <g style="opacity:0.1">
     <!-- color: #93c0ec -->
     <g>
      <path d="m 23.348 10.844 c -0.059 0.328 -0.121 0.66 -0.188 0.992 c -5.316 0.336 -10.762 4.512 -11.07 11.293 l -0.113 0 l 0 1.238 c -1.188 0.41 -1.648 2.336 -1.5 3.43 c 0.105 1.41 0.457 2.465 1.91 2.941 c 0.012 -0.145 0.027 -0.301 0.039 -0.449 l 0.02 0.504 c 0.441 0.09 0.75 0.129 0.957 0.059 l 0.016 0.695 c 0.371 0.148 0.578 0.18 0.695 -0.094 c 0.004 0.078 0.016 0.164 0.02 0.246 c 0.461 0.223 1.234 0.277 1.703 0.09 c 0.152 -0.094 0.258 -0.41 0.355 -0.844 c 2.535 3.711 7.492 4.844 11.973 3.09 c 1.375 -0.449 2.758 -1.359 3.727 -2.547 c 0.078 0.23 0.16 0.422 0.262 0.488 c 0.469 0.184 1.238 0.125 1.703 -0.094 c 0.004 -0.078 0.016 -0.164 0.023 -0.246 c 0.113 0.273 0.316 0.242 0.691 0.094 l 0.02 -0.695 c 0.207 0.07 0.516 0.031 0.957 -0.055 l 0.02 -0.508 c 0.008 0.148 0.027 0.305 0.039 0.449 c 1.453 -0.473 1.805 -1.535 1.91 -2.941 c 0.145 -1.094 -0.316 -3.02 -1.5 -3.43 l 0 -1.234 l -0.094 0 c -0.203 -2.539 -1.086 -5.102 -2.695 -7.16 c -1.98 -2.531 -5.066 -4.305 -9.254 -4.348 c -0.074 0 -0.152 0 -0.23 0 c -0.141 -0.32 -0.27 -0.641 -0.391 -0.973 m 0.672 1.578 c 3.992 0.055 6.844 1.73 8.715 4.121 c 1.523 1.941 2.359 4.371 2.566 6.785 l -0.129 0 l 0 1.105 c -0.195 -0.031 -0.379 -0.066 -0.41 -0.066 c -0.023 0.023 -0.039 0.035 -0.063 0.066 l 0.023 -0.891 c 0 0 -0.586 -0.188 -0.641 -0.188 c -0.008 0.004 -0.016 0.027 -0.02 0.039 c -0.016 -0.012 -0.027 -0.035 -0.039 -0.039 l -1.219 0 c -0.395 0.172 -0.613 0.563 -0.77 0.992 c -2.082 -4.156 -5.93 -7.637 -8.02 -11.934 m -1.105 0.059 c 0.035 0 0.074 0 0.113 0 c -0.086 0.379 -0.18 0.75 -0.281 1.121 c -0.816 3.988 -4 6.805 -6.16 10.1 c -0.188 0.273 -0.355 0.578 -0.512 0.883 c -0.16 -0.59 -0.383 -1.18 -0.895 -1.41 l -1.219 0 c -0.02 0.008 -0.023 0.031 -0.039 0.039 c -0.012 -0.008 -0.02 -0.027 -0.02 -0.039 c -0.055 0 -0.641 0.191 -0.641 0.191 l 0.02 0.879 c -0.02 -0.02 -0.035 -0.043 -0.059 -0.055 c -0.031 0 -0.219 0.027 -0.41 0.055 l 0 -1.105 l -0.133 0 c 0.305 -6.344 5.301 -10.219 10.23 -10.664 m 1.316 12.11 c 2.473 0 4.941 0.219 7.566 0.563 c -0.027 0.105 -0.051 0.219 -0.074 0.316 c -0.035 0.16 -0.066 0.359 -0.09 0.566 c -0.246 -0.027 -0.492 -0.047 -0.73 -0.074 c 0.363 0.637 0.301 2.082 -0.094 2.695 c -0.496 0.766 -1.473 1.348 -2.719 1.426 c -0.57 0.023 -1.199 0 -1.777 -0.133 c -0.574 -0.133 -1.09 -0.383 -1.406 -0.824 l 0 -0.02 c -0.359 -0.449 -0.465 -0.957 -0.469 -1.461 c -0.004 -0.508 0.074 -1.73 0.059 -2.152 c -0.313 0 -0.625 0.012 -0.938 0.016 c -0.02 0.418 0.043 1.637 0.039 2.133 c -0.004 0.512 -0.082 1.031 -0.449 1.484 c -0.316 0.449 -0.848 0.691 -1.426 0.824 c -0.574 0.137 -1.207 0.156 -1.777 0.133 c -1.238 -0.078 -2.223 -0.656 -2.719 -1.426 c -0.359 -0.559 -0.453 -1.93 -0.191 -2.527 c -0.215 0.039 -0.422 0.07 -0.637 0.113 c -0.031 -0.344 -0.059 -0.652 -0.113 -0.898 c 2.785 -0.535 5.367 -0.754 7.945 -0.754 m 1.379 0.914 c -0.289 0.039 -0.535 0.09 -0.711 0.152 c 0 0.418 -0.059 0.848 -0.055 1.254 c 0 0.465 0.086 0.883 0.375 1.234 l 0 0.02 c 0.227 0.32 0.656 0.535 1.18 0.656 c 0.523 0.117 1.121 0.156 1.668 0.129 c 1.125 -0.066 1.988 -0.598 2.398 -1.234 c 0.391 -0.609 0.383 -1.262 -0.148 -1.836 c -1.613 -0.184 -3.164 -0.328 -4.703 -0.375 m -3.301 0.02 c -1.547 0.07 -3.129 0.238 -4.758 0.508 c -0.004 0.008 0.004 0.012 0 0.016 c -0.387 0.531 -0.352 1.125 0 1.672 c 0.41 0.645 1.27 1.168 2.398 1.234 c 0.543 0.023 1.145 -0.012 1.668 -0.129 c 0.52 -0.121 0.953 -0.336 1.18 -0.656 l 0 -0.02 c 0.289 -0.355 0.367 -0.77 0.375 -1.234 c 0.004 -0.406 -0.039 -0.836 -0.039 -1.258 c -0.16 -0.055 -0.391 -0.094 -0.656 -0.129 l -0.168 0 m 0 -0.004" style="fill:#000;fill-opacity:1;stroke:none;fill-rule:evenodd"/>
     </g>
    </g>
   </g>
  </g>
 </g>
 <g>
  <g>
   <!-- color: #93c0ec -->
   <g>
    <path d="m 23.348 10.844 c -0.059 0.328 -0.121 0.66 -0.188 0.992 c -5.316 0.336 -10.762 4.512 -11.07 11.293 l -0.113 0 l 0 1.238 c -1.188 0.41 -1.648 2.336 -1.5 3.43 c 0.105 1.41 0.457 2.465 1.91 2.941 c 0.012 -0.145 0.027 -0.301 0.039 -0.449 l 0.02 0.504 c 0.441 0.09 0.75 0.129 0.957 0.059 l 0.016 0.695 c 0.371 0.148 0.578 0.18 0.695 -0.094 c 0.004 0.078 0.016 0.164 0.02 0.246 c 0.461 0.223 1.234 0.277 1.703 0.09 c 0.152 -0.094 0.258 -0.41 0.355 -0.844 c 2.535 3.711 7.492 4.844 11.973 3.09 c 1.375 -0.449 2.758 -1.359 3.727 -2.547 c 0.078 0.23 0.16 0.422 0.262 0.488 c 0.469 0.184 1.238 0.125 1.703 -0.094 c 0.004 -0.078 0.016 -0.164 0.023 -0.246 c 0.113 0.273 0.316 0.242 0.691 0.094 l 0.02 -0.695 c 0.207 0.07 0.516 0.031 0.957 -0.055 l 0.02 -0.508 c 0.008 0.148 0.027 0.305 0.039 0.449 c 1.453 -0.473 1.805 -1.535 1.91 -2.941 c 0.145 -1.094 -0.316 -3.02 -1.5 -3.43 l 0 -1.234 l -0.094 0 c -0.203 -2.539 -1.086 -5.102 -2.695 -7.16 c -1.98 -2.531 -5.066 -4.305 -9.254 -4.348 c -0.074 0 -0.152 0 -0.23 0 c -0.141 -0.32 -0.27 -0.641 -0.391 -0.973 m 0.672 1.578 c 3.992 0.055 6.844 1.73 8.715 4.121 c 1.523 1.941 2.359 4.371 2.566 6.785 l -0.129 0 l 0 1.105 c -0.195 -0.031 -0.379 -0.066 -0.41 -0.066 c -0.023 0.023 -0.039 0.035 -0.063 0.066 l 0.023 -0.891 c 0 0 -0.586 -0.188 -0.641 -0.188 c -0.008 0.004 -0.016 0.027 -0.02 0.039 c -0.016 -0.012 -0.027 -0.035 -0.039 -0.039 l -1.219 0 c -0.395 0.172 -0.613 0.563 -0.77 0.992 c -2.082 -4.156 -5.93 -7.637 -8.02 -11.934 m -1.105 0.059 c 0.035 0 0.074 0 0.113 0 c -0.086 0.379 -0.18 0.75 -0.281 1.121 c -0.816 3.988 -4 6.805 -6.16 10.1 c -0.188 0.273 -0.355 0.578 -0.512 0.883 c -0.16 -0.59 -0.383 -1.18 -0.895 -1.41 l -1.219 0 c -0.02 0.008 -0.023 0.031 -0.039 0.039 c -0.012 -0.008 -0.02 -0.027 -0.02 -0.039 c -0.055 0 -0.641 0.191 -0.641 0.191 l 0.02 0.879 c -0.02 -0.02 -0.035 -0.043 -0.059 -0.055 c -0.031 0 -0.219 0.027 -0.41 0.055 l 0 -1.105 l -0.133 0 c 0.305 -6.344 5.301 -10.219 10.23 -10.664 m 1.316 12.11 c 2.473 0 4.941 0.219 7.566 0.563 c -0.027 0.105 -0.051 0.219 -0.074 0.316 c -0.035 0.16 -0.066 0.359 -0.09 0.566 c -0.246 -0.027 -0.492 -0.047 -0.73 -0.074 c 0.363 0.637 0.301 2.082 -0.094 2.695 c -0.496 0.766 -1.473 1.348 -2.719 1.426 c -0.57 0.023 -1.199 0 -1.777 -0.133 c -0.574 -0.133 -1.09 -0.383 -1.406 -0.824 l 0 -0.02 c -0.359 -0.449 -0.465 -0.957 -0.469 -1.461 c -0.004 -0.508 0.074 -1.73 0.059 -2.152 c -0.313 0 -0.625 0.012 -0.938 0.016 c -0.02 0.418 0.043 1.637 0.039 2.133 c -0.004 0.512 -0.082 1.031 -0.449 1.484 c -0.316 0.449 -0.848 0.691 -1.426 0.824 c -0.574 0.137 -1.207 0.156 -1.777 0.133 c -1.238 -0.078 -2.223 -0.656 -2.719 -1.426 c -0.359 -0.559 -0.453 -1.93 -0.191 -2.527 c -0.215 0.039 -0.422 0.07 -0.637 0.113 c -0.031 -0.344 -0.059 -0.652 -0.113 -0.898 c 2.785 -0.535 5.367 -0.754 7.945 -0.754 m 1.379 0.914 c -0.289 0.039 -0.535 0.09 -0.711 0.152 c 0 0.418 -0.059 0.848 -0.055 1.254 c 0 0.465 0.086 0.883 0.375 1.234 l 0 0.02 c 0.227 0.32 0.656 0.535 1.18 0.656 c 0.523 0.117 1.121 0.156 1.668 0.129 c 1.125 -0.066 1.988 -0.598 2.398 -1.234 c 0.391 -0.609 0.383 -1.262 -0.148 -1.836 c -1.613 -0.184 -3.164 -0.328 -4.703 -0.375 m -3.301 0.02 c -1.547 0.07 -3.129 0.238 -4.758 0.508 c -0.004 0.008 0.004 0.012 0 0.016 c -0.387 0.531 -0.352 1.125 0 1.672 c 0.41 0.645 1.27 1.168 2.398 1.234 c 0.543 0.023 1.145 -0.012 1.668 -0.129 c 0.52 -0.121 0.953 -0.336 1.18 -0.656 l 0 -0.02 c 0.289 -0.355 0.367 -0.77 0.375 -1.234 c 0.004 -0.406 -0.039 -0.836 -0.039 -1.258 c -0.16 -0.055 -0.391 -0.094 -0.656 -0.129 l -0.168 0 m 0 -0.004" style="fill:#fff;fill-opacity:1;stroke:none;fill-rule:evenodd"/>
   </g>
  </g>
 </g>
 <g>
  <path d="m 40.03 7.531 c 3.712 4.084 5.969 9.514 5.969 15.469 0 12.703 -10.297 23 -23 23 c -5.954 0 -11.384 -2.256 -15.469 -5.969 4.178 4.291 10.01 6.969 16.469 6.969 c 12.703 0 23 -10.298 23 -23 0 -6.462 -2.677 -12.291 -6.969 -16.469 z" style="opacity:0.1"/>
 </g>
</svg>
