<?xml version="1.0" encoding="UTF-8"?>
<svg version="1.1" viewBox="0 0 48 48" xmlns="http://www.w3.org/2000/svg">
 <defs>
  <linearGradient id="bg" x2="0" y1="1" y2="47" gradientUnits="userSpaceOnUse">
   <stop style="stop-color:#dde1ee" offset="0"/>
   <stop style="stop-color:#cfd4e7" offset="1"/>
  </linearGradient>
 </defs>
 <path d="m36.3 5c5.86 4.06 9.69 10.8 9.69 18.5 0 12.4-10.1 22.5-22.5 22.5-7.67 0-14.4-3.83-18.5-9.69 1.04 1.82 2.31 3.5 3.78 4.97 4.08 3.71 9.51 5.97 15.5 5.97 12.7 0 23-10.3 23-23 0-5.95-2.26-11.4-5.97-15.5-1.47-1.48-3.15-2.74-4.97-3.78zm4.97 3.78c3.85 4.11 6.22 9.64 6.22 15.7 0 12.7-10.3 23-23 23-6.08 0-11.6-2.36-15.7-6.22 4.16 4.14 9.88 6.72 16.2 6.72 12.7 0 23-10.3 23-23 0-6.34-2.58-12.1-6.72-16.2z" style="opacity:.05"/>
 <path d="m41.3 8.78c3.71 4.08 5.97 9.51 5.97 15.5 0 12.7-10.3 23-23 23-5.95 0-11.4-2.26-15.5-5.97 4.11 3.85 9.64 6.22 15.7 6.22 12.7 0 23-10.3 23-23 0-6.08-2.36-11.6-6.22-15.7z" style="opacity:.1"/>
 <path d="m31.2 2.38c8.62 3.15 14.8 11.4 14.8 21.1 0 12.4-10.1 22.5-22.5 22.5-9.71 0-18-6.14-21.1-14.8a23 23 0 0 0 44.9-7 23 23 0 0 0-16-21.9z" style="opacity:.2"/>
 <path d="m24 1c-12.7 0-23 10.3-23 23 0.0295 11.9 9.09 21.9 21 22.9l2-0.915 2 0.915c11.9-0.983 21-11 21-22.9 0-12.7-10.3-23-23-23z" style="fill:url(#bg)"/>
 <path d="m20 14-5 12c0 4.84 3.44 8.87 8 9.8v11.1a23 23 0 0 0 1 0.0723 23 23 0 0 0 3-0.215v-11c4.56-0.927 8-4.96 8-9.8v-3c0-0.554-0.446-1-1-1h-2v-6c0-1.11-0.892-2-2-2l-2 8h-6v-6c0-1.11-0.892-2-2-2z" style="opacity:.1"/>
 <path d="m19 13c-1.11 0-2 0.892-2 2v8h4v-8c0-1.11-0.892-2-2-2zm10 0c-1.11 0-2 0.892-2 2v8h4v-8c0-1.11-0.892-2-2-2z" style="fill:#95a7b3"/>
 <path d="m22 33v13.9c0.664 0.0766 1.33 0.085 2 0.085s1.34-0.0084 2-0.085v-13.9z" style="fill:#60646c;stroke-width:.816"/>
 <path d="m40 7.53c3.71 4.08 5.97 9.51 5.97 15.5 0 12.7-10.3 23-23 23-5.95 0-11.4-2.26-15.5-5.97 4.18 4.29 10 6.97 16.5 6.97 12.7 0 23-10.3 23-23 0-6.46-2.68-12.3-6.97-16.5z" style="opacity:.1"/>
 <path d="m22 33v2.54c0.947 0.297 1.96 0.457 3 0.457 0.338 0 0.671-0.0161 1-0.0488v-2.95h-4z" style="opacity:.1"/>
 <path d="m15 21c-0.554 0-1 0.446-1 1v3c0 5.52 4.48 10 10 10s10-4.48 10-10v-3c0-0.554-0.446-1-1-1z" style="fill:#7289da"/>
</svg>
