<svg version="1.1" viewBox="0 0 48 48" xmlns="http://www.w3.org/2000/svg">
 <defs>
  <linearGradient id="bg" x2="0" y1="1" y2="47" gradientUnits="userSpaceOnUse">
   <stop style="stop-color:#e26878" offset="0"/>
   <stop style="stop-color:#df5769" offset="1"/>
  </linearGradient>
 </defs>
 <path d="m36.31 5c5.859 4.062 9.688 10.831 9.688 18.5 0 12.426-10.07 22.5-22.5 22.5-7.669 0-14.438-3.828-18.5-9.688 1.037 1.822 2.306 3.499 3.781 4.969 4.085 3.712 9.514 5.969 15.469 5.969 12.703 0 23-10.298 23-23 0-5.954-2.256-11.384-5.969-15.469-1.469-1.475-3.147-2.744-4.969-3.781zm4.969 3.781c3.854 4.113 6.219 9.637 6.219 15.719 0 12.703-10.297 23-23 23-6.081 0-11.606-2.364-15.719-6.219 4.16 4.144 9.883 6.719 16.219 6.719 12.703 0 23-10.298 23-23 0-6.335-2.575-12.06-6.719-16.219z" style="opacity:.05"/>
 <path d="m41.28 8.781c3.712 4.085 5.969 9.514 5.969 15.469 0 12.703-10.297 23-23 23-5.954 0-11.384-2.256-15.469-5.969 4.113 3.854 9.637 6.219 15.719 6.219 12.703 0 23-10.298 23-23 0-6.081-2.364-11.606-6.219-15.719z" style="opacity:.1"/>
 <path d="m31.25 2.375c8.615 3.154 14.75 11.417 14.75 21.13 0 12.426-10.07 22.5-22.5 22.5-9.708 0-17.971-6.135-21.12-14.75a23 23 0 0 0 44.875-7 23 23 0 0 0-16-21.875z" style="opacity:.2"/>
 <circle cx="24" cy="24" r="23" style="fill:url(#bg)"/>
 <path d="m40.03 7.531c3.712 4.084 5.969 9.514 5.969 15.469 0 12.703-10.297 23-23 23-5.954 0-11.384-2.256-15.469-5.969 4.178 4.291 10.01 6.969 16.469 6.969 12.703 0 23-10.298 23-23 0-6.462-2.677-12.291-6.969-16.469z" style="opacity:.1"/>
 <g transform="translate(0 -.004)">
  <g transform="translate(1,1)"></g>
 </g>
 <g transform="matrix(-1 0 0 1 48 -.0040002)">
  <g transform="translate(1,1)"></g>
 </g>
 <g transform="translate(1e-7,-1)">
  <g transform="translate(0 -.004)">
   <g transform="translate(1,1)"></g>
  </g>
 </g>
 <g transform="matrix(1.0833 0 0 .95833 -2.0833 -.46075)">
  <g transform="translate(1,1)">
   <g style="opacity:.1">
    <path transform="matrix(.92308 0 0 1.0435 .92308 -.51922)" d="m12 14v21h11l1 1h2l1-1h11v-21h-26z" style="fill-rule:evenodd"/>
   </g>
  </g>
 </g>
 <path d="m23 33.998-1-1h-11v1h11l1 1h2l1-1h11v-1h-11l-1 1" style="fill-rule:evenodd;fill:#3e263b"/>
 <path d="m11 28.998v1h11l1 1h-12v1h11l1 1h2l1-1h11v-1h-12l1-1h11v-1z" style="fill-rule:evenodd;fill:#969795"/>
 <path d="m37 12.998h-11l-1 1h-2l-1-1h-11v16h11l1 1h2l1-1h11" style="fill-rule:evenodd;fill:#f2f2f2"/>
 <path d="m22 12.998v16l1 1h2l1-1v-16l-1 1h-2" style="fill-opacity:.471;fill-rule:evenodd;fill:#aeb2b7"/>
 <path d="m11 31.998v1h11l1 1h2l1-1h11v-1h-11l-1 1h-2l-1-1z" style="fill-rule:evenodd;fill:#ddd8d8"/>
 <path d="m23 13.998v16h2v-16" style="fill-opacity:.688;fill-rule:evenodd;fill:#9bb5b9"/>
 <path d="m11 29.998v1h11l1 1h2l1-1h11v-1h-11l-1 1h-2l-1-1z" style="fill-rule:evenodd;fill:#ddd8d8"/>
 <rect x="27" y="15.998" width="9" height="1" style="fill:#ccc"/>
 <rect x="27" y="21.998" width="9" height="1" style="fill:#ccc"/>
 <rect x="12" y="12.998" width="6" height="6" style="fill:#c54444"/>
 <path d="m15.745 17.269h-1.47l-0.26958 0.72897h-1.0002l1.4133-4.0001h1.173l1.4133 4.0001h-1.0002m-1.4602-1.5706h0.92008l-0.46004-1.4293" style="fill:#f2f2f2"/>
 <rect x="12" y="19.998" width="9" height="1" style="fill:#ccc"/>
 <rect x="12" y="21.998" width="9" height="1" style="fill:#ccc"/>
 <rect x="12" y="23.998" width="9" height="1" style="fill:#ccc"/>
 <rect x="12" y="25.998" width="9" height="1" style="fill:#ccc"/>
 <rect x="27" y="25.998" width="9" height="1" style="fill:#ccc"/>
 <rect x="27" y="23.998" width="9" height="1" style="fill:#ccc"/>
 <rect x="27" y="19.998" width="9" height="1" style="fill:#ccc"/>
 <rect x="27" y="17.998" width="9" height="1" style="fill:#ccc"/>
 <path d="m29 12.998v11l1-1 1 1v-11" style="fill-opacity:.118;fill-rule:evenodd"/>
 <path d="m28 12.998v10l1-1 1 1v-10" style="fill-rule:evenodd;fill:#c54444"/>
</svg>
