<svg version="1.1" viewBox="0 0 48 48" xmlns="http://www.w3.org/2000/svg">
 <defs>
  <linearGradient id="bg" x1="1" x2="47" gradientTransform="matrix(0 -1 1 0 -1.5e-6 48)" gradientUnits="userSpaceOnUse">
   <stop style="stop-color:#d43c3c" offset="0"/>
   <stop style="stop-color:#d84d4d" offset="1"/>
  </linearGradient>
 </defs>
 <path d="m36.31 5c5.859 4.062 9.688 10.831 9.688 18.5 0 12.426-10.07 22.5-22.5 22.5-7.669 0-14.438-3.828-18.5-9.688 1.037 1.822 2.306 3.499 3.781 4.969 4.085 3.712 9.514 5.969 15.469 5.969 12.703 0 23-10.298 23-23 0-5.954-2.256-11.384-5.969-15.469-1.469-1.475-3.147-2.744-4.969-3.781zm4.969 3.781c3.854 4.113 6.219 9.637 6.219 15.719 0 12.703-10.297 23-23 23-6.081 0-11.606-2.364-15.719-6.219 4.16 4.144 9.883 6.719 16.219 6.719 12.703 0 23-10.298 23-23 0-6.335-2.575-12.06-6.719-16.219z" style="opacity:.05"/>
 <path d="m41.28 8.781c3.712 4.085 5.969 9.514 5.969 15.469 0 12.703-10.297 23-23 23-5.954 0-11.384-2.256-15.469-5.969 4.113 3.854 9.637 6.219 15.719 6.219 12.703 0 23-10.298 23-23 0-6.081-2.364-11.606-6.219-15.719z" style="opacity:.1"/>
 <path d="m31.25 2.375c8.615 3.154 14.75 11.417 14.75 21.13 0 12.426-10.07 22.5-22.5 22.5-9.708 0-17.971-6.135-21.12-14.75a23 23 0 0 0 44.875-7 23 23 0 0 0-16-21.875z" style="opacity:.2"/>
 <path d="m24 1c12.703 0 23 10.297 23 23s-10.297 23-23 23-23-10.297-23-23 10.297-23 23-23z" style="fill:url(#bg)"/>
 <path d="m19.812 14.001c-0.797 0-1.469 1.523 0.094 1.188 0.609-0.199 0.535-1.188-0.094-1.188m9.188 1c-0.465 0-0.906 0.539-0.688 0.844 0.059 0.082 0.367 0.168 0.656 0.188 0.398 0.027 0.5-0.094 0.5-0.5 0-0.375-0.129-0.531-0.469-0.531m-15.438 8.847c-1.293-0.398-2.703 1.184-0.094 1.156 1.648-0.195 1.828 0.191 0.406 0.938-0.965 0.504-1.273 0.707-1.281 1.281-8e-3 0.563 0.254 0.742 0.969 1.031 1.578 0.559 2.246 0.77 2.438 2.75 0 0.598-0.094 1.625 0.469 1.969 0.547 0.336 0.684 0.574 0.594 0.969-0.152 0.695 0.32 0.895 1.25 0.566 1.043-0.371 1.188-0.105 0.375 0.625-0.445 0.395-0.656 0.852-0.656 1.313 0.012 1.027 3.137 1.746 2.625-0.438-0.234-0.992-0.734-1.73 0.348-2 0.715-0.266 1.383 0.809 2 1 1.438 0.441 2.508-0.195 3.375-0.941 0.523-0.453 1.074-0.387 1.402-0.313 1.211 0.25 5.91 0.66 4.125-2.281-0.734-1.07-0.586-1.281 0.906-1.25 1.227 0.023 1.328-0.023 1.406-0.5 0.047-0.285-0.07-0.738-0.25-1.031-0.27-0.438-0.258-0.563 0.031-0.719 0.273-0.148 0.07-0.938-0.25-1.691-0.66-2.129 1.441-5.848-0.656-6.527-1.266-0.457 0.418-2.941-1.5-2.348-0.555 0.16-0.945-0.125-1.594-0.563m5.246 6.41c-0.156 0.035-0.297 0.145-0.469 0.277-0.473 0.367-0.5 0.398-0.094 0.781 0.586 0.559 1.215 0.414 1.313-0.313 0.078-0.57-0.281-0.867-0.75-0.75m-11.438 12.531c-0.168 0.035-0.207 0.223-0.156 0.531 0.047 0.27 0.258 0.5 0.469 0.5 0.227 0 0.391 0.238 0.438 0.594 0.047 0.332 0.199 0.594 0.313 0.594 0.117 0 0.266-0.262 0.348-0.594 0.109-0.473 0.039-0.863-0.5-1.25-0.434-0.309-0.738-0.41-0.906-0.375m2.371 0.313c-0.156-0.02-0.313 0.059-0.313 0.25s0.184 0.344 0.406 0.344c0.219 0 0.367-0.102 0.313-0.25-0.078-0.199-0.25-0.324-0.406-0.344m-3.844 0.375c-0.141 0-0.352 0.203-0.344 0.531 0.016 0.531 0.152 0.637 0.344 0.25 0.297-0.594 0.297-0.781 0-0.781" style="opacity:.1"/>
 <path d="m18.812 13.001c-0.797 0-1.469 1.523 0.094 1.188 0.609-0.199 0.535-1.188-0.094-1.188m9.188 1c-0.465 0-0.906 0.539-0.688 0.844 0.059 0.082 0.367 0.168 0.656 0.188 0.398 0.027 0.5-0.094 0.5-0.5 0-0.375-0.129-0.531-0.469-0.531m-6.844 0.313c-0.93-0.07-1.98 0.746-2.156 1.691-0.113 0.594-0.023 0.949-0.531 0.813-0.313-0.086-1.031-0.754-1.469-0.813-0.688 0.102-1.496 0.895-1 2 0.492 0.574 0.66 0.992 0 1-1.484 0.391-2.031 0.723-1.531 2.402 0.098 0.285 0.063 0.648-0.344 1.066-0.602 0.629-0.645 0.66-1.563 0.375-1.293-0.398-2.703 1.184-0.094 1.156 1.648-0.195 1.828 0.191 0.406 0.938-0.965 0.504-1.273 0.707-1.281 1.281-8e-3 0.563 0.254 0.742 0.969 1.031 1.578 0.559 2.246 0.77 2.438 2.75 0 0.598-0.094 1.625 0.469 1.969 0.547 0.336 0.684 0.574 0.594 0.969-0.152 0.695 0.32 0.895 1.25 0.566 1.043-0.371 1.188-0.105 0.375 0.625-0.445 0.395-0.656 0.852-0.656 1.313 0.012 1.027 3.137 1.746 2.625-0.438-0.234-0.992-0.734-1.73 0.348-2 0.715-0.266 1.383 0.809 2 1 1.438 0.441 2.508-0.195 3.375-0.941 0.523-0.453 1.074-0.387 1.402-0.313 1.211 0.25 5.91 0.66 4.125-2.281-0.734-1.07-0.586-1.281 0.906-1.25 1.227 0.023 1.328-0.023 1.406-0.5 0.047-0.285-0.07-0.738-0.25-1.031-0.27-0.438-0.258-0.563 0.031-0.719 0.273-0.148 0.07-0.938-0.25-1.691-0.66-2.129 1.441-5.848-0.656-6.527-1.266-0.457 0.418-2.941-1.5-2.348-0.555 0.16-0.945-0.125-1.594-0.563-0.93-0.469-1.215-0.488-2.375-0.438-0.988 0.039-1.453-1.266-2.625-0.406-0.984 1.031-0.746 0.523-2-0.281-0.25-0.25-0.531-0.383-0.844-0.406m13.09 7.941c-0.156 0.035-0.297 0.145-0.469 0.277-0.473 0.367-0.5 0.398-0.094 0.781 0.586 0.559 1.215 0.414 1.313-0.313 0.078-0.57-0.281-0.867-0.75-0.75m-11.438 12.531c-0.168 0.035-0.207 0.223-0.156 0.531 0.047 0.27 0.258 0.5 0.469 0.5 0.227 0 0.391 0.238 0.438 0.594 0.047 0.332 0.199 0.594 0.313 0.594 0.117 0 0.266-0.262 0.348-0.594 0.109-0.473 0.039-0.863-0.5-1.25-0.434-0.309-0.738-0.41-0.906-0.375m2.371 0.313c-0.156-0.02-0.313 0.059-0.313 0.25s0.184 0.344 0.406 0.344c0.219 0 0.367-0.102 0.313-0.25-0.078-0.199-0.25-0.324-0.406-0.344m-3.844 0.375c-0.141 0-0.352 0.203-0.344 0.531 0.016 0.531 0.152 0.637 0.344 0.25 0.297-0.594 0.297-0.781 0-0.781" style="fill:#a90a0a"/>
 <path d="m24 16-7 4 7 12 7-12" style="fill:#f9f9f9"/>
 <path d="m24 32v-8l-7-4v8" style="fill:#e5e5e5"/>
 <path d="m31 20-7 4v8l7-4" style="fill:#c1c1c1"/>
 <path d="m40.03 7.531c3.712 4.084 5.969 9.514 5.969 15.469 0 12.703-10.297 23-23 23-5.954 0-11.384-2.256-15.469-5.969 4.178 4.291 10.01 6.969 16.469 6.969 12.703 0 23-10.298 23-23 0-6.462-2.677-12.291-6.969-16.469z" style="opacity:.1"/>
</svg>
