<svg version="1.1" viewBox="0 0 48 48" xmlns="http://www.w3.org/2000/svg">
 <defs>
  <linearGradient id="bg" x2="0" y1="1" y2="47" gradientUnits="userSpaceOnUse">
   <stop style="stop-color:#24dee5" offset="0"/>
   <stop style="stop-color:#1ad4db" offset="1"/>
  </linearGradient>
 </defs>
 <path d="m36.31 5c5.859 4.062 9.688 10.831 9.688 18.5 0 12.426-10.07 22.5-22.5 22.5-7.669 0-14.438-3.828-18.5-9.688 1.037 1.822 2.306 3.499 3.781 4.969 4.085 3.712 9.514 5.969 15.469 5.969 12.703 0 23-10.298 23-23 0-5.954-2.256-11.384-5.969-15.469-1.469-1.475-3.147-2.744-4.969-3.781zm4.969 3.781c3.854 4.113 6.219 9.637 6.219 15.719 0 12.703-10.297 23-23 23-6.081 0-11.606-2.364-15.719-6.219 4.16 4.144 9.883 6.719 16.219 6.719 12.703 0 23-10.298 23-23 0-6.335-2.575-12.06-6.719-16.219z" style="opacity:.05"/>
 <path d="m41.28 8.781c3.712 4.085 5.969 9.514 5.969 15.469 0 12.703-10.297 23-23 23-5.954 0-11.384-2.256-15.469-5.969 4.113 3.854 9.637 6.219 15.719 6.219 12.703 0 23-10.298 23-23 0-6.081-2.364-11.606-6.219-15.719z" style="opacity:.1"/>
 <path d="m31.25 2.375c8.615 3.154 14.75 11.417 14.75 21.13 0 12.426-10.07 22.5-22.5 22.5-9.708 0-17.971-6.135-21.12-14.75a23 23 0 0 0 44.875-7 23 23 0 0 0-16-21.875z" style="opacity:.2"/>
 <circle cx="24" cy="24" r="23" style="fill:url(#bg)"/>
 <path d="m25 10c-1.6344 3.2687-3.2723 5.8622-5.1113 8h-2.8887v2.8477c-1.9964 1.6538-4.268 2.9815-7 4.1523 2.732 1.1708 5.0036 2.4985 7 4.1523v2.8477h2.8887c1.839 2.1378 3.477 4.7313 5.1113 8 1.6344-3.2687 3.2723-5.8622 5.1113-8h2.8887v-2.8477c1.9964-1.6538 4.268-2.9815 7-4.1523-2.732-1.1708-5.0036-2.4985-7-4.1523v-2.8477h-2.8887c-1.839-2.1378-3.477-4.7313-5.1113-8z" style="opacity:.1"/>
 <path d="m40.03 7.531c3.712 4.084 5.969 9.514 5.969 15.469 0 12.703-10.297 23-23 23-5.954 0-11.384-2.256-15.469-5.969 4.178 4.291 10.01 6.969 16.469 6.969 12.703 0 23-10.298 23-23 0-6.462-2.677-12.291-6.969-16.469z" style="opacity:.1"/>
 <path d="m24 9c4 8 8 12 15 15-7 3-11 7-15 15-4-8-8-12-15-15 7-3 11-7 15-15z" style="fill:#2b9a8f"/>
 <path d="m17.98 18c-0.32 0.33394-0.64617 0.65603-0.98047 0.9668v10.066c0.95717 0.88979 1.8524 1.8723 2.707 2.9668h8.5859c1.4232-1.8226 2.9579-3.3342 4.707-4.6309v-6.7383c-1.0656-0.78994-2.0509-1.6608-2.9805-2.6309h-12.039z" style="opacity:.1"/>
 <rect x="16" y="17" width="16" height="14" style="fill:#f9f9f9"/>
 <path d="m19 19 5 5 5-5zm-1 1v9.0007h12v-9.0007l-6 6z" style="fill:#ffc53e"/>
</svg>
