<svg version="1.1" viewBox="0 0 48 48" xmlns="http://www.w3.org/2000/svg">
 <defs>
  <linearGradient id="bg" x2="0" y1="47" y2="1" gradientUnits="userSpaceOnUse">
   <stop style="stop-color:#c7cfc1" offset="0"/>
   <stop style="stop-color:#d1d8cc" offset="1"/>
  </linearGradient>
 </defs>
 <path d="m36.3 5c5.86 4.06 9.69 10.8 9.69 18.5 0 12.4-10.1 22.5-22.5 22.5-7.67 0-14.4-3.83-18.5-9.69 1.04 1.82 2.31 3.5 3.78 4.97 4.08 3.71 9.51 5.97 15.5 5.97 12.7 0 23-10.3 23-23 0-5.95-2.26-11.4-5.97-15.5-1.47-1.48-3.15-2.74-4.97-3.78zm4.97 3.78c3.85 4.11 6.22 9.64 6.22 15.7 0 12.7-10.3 23-23 23-6.08 0-11.6-2.36-15.7-6.22 4.16 4.14 9.88 6.72 16.2 6.72 12.7 0 23-10.3 23-23 0-6.34-2.58-12.1-6.72-16.2z" style="opacity:.05"/>
 <path d="m41.3 8.78c3.71 4.08 5.97 9.51 5.97 15.5 0 12.7-10.3 23-23 23-5.95 0-11.4-2.26-15.5-5.97 4.11 3.85 9.64 6.22 15.7 6.22 12.7 0 23-10.3 23-23 0-6.08-2.36-11.6-6.22-15.7z" style="opacity:.1"/>
 <path d="m31.2 2.38c8.62 3.15 14.8 11.4 14.8 21.1 0 12.4-10.1 22.5-22.5 22.5-9.71 0-18-6.14-21.1-14.8a23 23 0 0 0 44.9-7 23 23 0 0 0-16-21.9z" style="opacity:.2"/>
 <path d="m24 1c12.7 0 23 10.3 23 23s-10.3 23-23 23-23-10.3-23-23 10.3-23 23-23z" style="fill:url(#bg)"/>
 <path d="m40 7.53c3.71 4.08 5.97 9.51 5.97 15.5 0 12.7-10.3 23-23 23-5.95 0-11.4-2.26-15.5-5.97 4.18 4.29 10 6.97 16.5 6.97 12.7 0 23-10.3 23-23 0-6.46-2.68-12.3-6.97-16.5z" style="opacity:.1"/>
 <path d="m31 12c-8 1-13 5-16 7-3.11e-4 0-3 4-3 4-3.11e-4 2 2 5 2 5l5-2v3c0 1.1 0.895 2 2 2h3l-2 5s3 2 5 2 3.09-1.64 4-3c2-3 6-8 7-16 0 0-7.6 11-10.5 11-1.06 0-1.5-0.8-1.5-1.5 0-1 2-4 2-5 0-0.828-0.672-1.5-1.5-1.5l-5 2c-0.7 0-1.5-0.5-1.5-1.5 0-2.93 11-10.5 11-10.5z" style="opacity:.1"/>
 <path d="m30 11c-8 1-13 5-16 7-1.37 0.912-3.03 2.07-3 4 0 2 2 5 2 5l5-2v3c0 1.1 0.895 2 2 2h3l-2 5s3 2 5 2 3.09-1.64 4-3c2-3 6-8 7-16 0 0-7.6 11-10.5 11-1.06 0-1.5-0.8-1.5-1.5 0-1 2-4 2-5 0-0.828-0.672-1.5-1.5-1.5-1 0-4 2-5 2-0.7 0-1.5-0.5-1.5-1.5 0-2.93 11-10.5 11-10.5z" style="fill:#586274"/>
 <path d="m25 25c-0.494 0.988-0.895 2-2 2s-2-0.895-2-2 1.01-1.51 2-2c2-1 2.64-1.36 3-1s0 1-1 3z" style="fill:#b0cdf9"/>
</svg>
