<svg version="1.1" viewBox="0 0 48 48" xmlns="http://www.w3.org/2000/svg">
 <defs>
  <linearGradient id="bg" x1="1" x2="47" y1="48" y2="48" gradientTransform="matrix(0,1,-1,0,48,0)" gradientUnits="userSpaceOnUse">
   <stop style="stop-color:#585950" offset="0"/>
   <stop style="stop-color:#4c4d47" offset="1"/>
  </linearGradient>
 </defs>
 <path d="m36.3 5c5.86 4.06 9.69 10.8 9.69 18.5 0 12.4-10.1 22.5-22.5 22.5-7.67 0-14.4-3.83-18.5-9.69 1.04 1.82 2.31 3.5 3.78 4.97 4.08 3.71 9.51 5.97 15.5 5.97 12.7 0 23-10.3 23-23 0-5.95-2.26-11.4-5.97-15.5-1.47-1.48-3.15-2.74-4.97-3.78zm4.97 3.78c3.85 4.11 6.22 9.64 6.22 15.7 0 12.7-10.3 23-23 23-6.08 0-11.6-2.36-15.7-6.22 4.16 4.14 9.88 6.72 16.2 6.72 12.7 0 23-10.3 23-23 0-6.34-2.58-12.1-6.72-16.2z" style="opacity:.05"/>
 <path d="m41.3 8.78c3.71 4.08 5.97 9.51 5.97 15.5 0 12.7-10.3 23-23 23-5.95 0-11.4-2.26-15.5-5.97 4.11 3.85 9.64 6.22 15.7 6.22 12.7 0 23-10.3 23-23 0-6.08-2.36-11.6-6.22-15.7z" style="opacity:.1"/>
 <path d="m31.2 2.38c8.62 3.15 14.8 11.4 14.8 21.1 0 12.4-10.1 22.5-22.5 22.5-9.71 0-18-6.14-21.1-14.8a23 23 0 0 0 44.9-7 23 23 0 0 0-16-21.9z" style="opacity:.2"/>
 <path d="m47 24c0 12.7-10.3 23-23 23s-23-10.3-23-23 10.3-23 23-23 23 10.3 23 23z" style="fill:url(#bg)"/>
 <path d="m40 7.53c3.71 4.08 5.97 9.51 5.97 15.5 0 12.7-10.3 23-23 23-5.95 0-11.4-2.26-15.5-5.97 4.18 4.29 10 6.97 16.5 6.97 12.7 0 23-10.3 23-23 0-6.46-2.68-12.3-6.97-16.5z" style="opacity:.1"/>
 <path d="m38.6 30.4c0.013-0.238 0.011-0.475-2e-3 -0.711-0.017-0.314-0.044-0.631-0.0939-0.938-0.2-1.22-0.751-2.49-1.56-3.75-0.012-0.019-0.019-0.043-0.031-0.063 0.782-1.25 1.27-2.49 1.47-3.69 0.198-1.22 0.218-2.55-0.469-3.75-0.686-1.2-1.82-1.84-2.97-2.28-1.14-0.435-2.49-0.629-3.97-0.564-0.689-1.33-1.54-2.44-2.5-3.22-0.958-0.784-2.09-1.44-3.47-1.44-1.38 0-2.51 0.654-3.47 1.44-0.958 0.784-1.81 1.89-2.5 3.22h-0.031c-1.5-0.069-2.84 0.125-4 0.564-1.16 0.438-2.31 1.08-3 2.28-0.691 1.2-0.699 2.53-0.5 3.75 0.2 1.22 0.752 2.49 1.56 3.75 0.012 0.019 0.019 0.044 0.031 0.064-0.782 1.25-1.28 2.49-1.47 3.69-0.198 1.22-0.216 2.55 0.471 3.75s1.82 1.84 2.97 2.28c1.14 0.435 2.49 0.627 3.97 0.563 0.689 1.33 1.54 2.44 2.5 3.22s2.08 1.44 3.47 1.44 2.51-0.655 3.47-1.44c0.958-0.784 1.81-1.89 2.5-3.22h0.031c1.5 0.069 2.84-0.123 4-0.563 1.16-0.438 2.31-1.08 3-2.28 0.389-0.674 0.557-1.39 0.596-2.1zm-1.16-0.211h-2e-3c-0.017 0.701-0.242 1.27-0.5 1.72-0.344 0.596-0.895 1.21-1.9 1.6-0.994 0.376-2.08 0.618-3.5 0.563 0.546-1.39 0.949-2.97 1.19-4.69 1.33-1.06 2.47-2.16 3.37-3.31 0.783 1.22 1.11 2.31 1.28 3.38 0.044 0.266 0.067 0.516 0.063 0.75zm-0.0959-10.4v2e-3c6e-3 0.233 0.012 0.483-0.031 0.748-0.167 1.03-0.526 2.08-1.25 3.25-0.906-1.13-2.02-2.22-3.34-3.25-0.239-1.69-0.648-3.25-1.19-4.62 1.39-0.051 2.46 0.19 3.44 0.564 0.999 0.382 1.56 0.998 1.9 1.59 0.256 0.447 0.45 1.02 0.469 1.72zm-2.06 5.12c-0.666 0.868-1.45 1.73-2.37 2.56 0.06-0.815 0.0939-1.65 0.0939-2.5 0-0.876-0.031-1.73-0.0939-2.56 0.914 0.81 1.7 1.65 2.37 2.5zm-3.59 0.064c0 1.28-0.07 2.51-0.219 3.69-0.962 0.743-2.02 1.47-3.15 2.13-1.11 0.647-2.21 1.19-3.31 1.66-1.11-0.464-2.22-1.01-3.34-1.66-1.12-0.65-2.17-1.36-3.12-2.09-0.151-1.19-0.219-2.43-0.219-3.72 0-1.28 0.07-2.51 0.219-3.69 0.962-0.743 2.02-1.47 3.15-2.13 1.11-0.647 2.21-1.19 3.31-1.66 1.11 0.464 2.22 1.01 3.34 1.66 1.12 0.65 2.17 1.36 3.12 2.09 0.151 1.19 0.219 2.43 0.219 3.72zm-0.531-5.6c-0.68-0.463-1.41-0.913-2.15-1.34-0.75-0.433-1.5-0.828-2.25-1.19 1.18-0.395 2.32-0.663 3.4-0.813 0.41 1.01 0.749 2.13 0.999 3.34zm0 11.1c-0.251 1.24-0.583 2.38-0.999 3.41-1.08-0.153-2.22-0.419-3.4-0.813 0.74-0.36 1.47-0.754 2.22-1.19 0.764-0.445 1.49-0.927 2.19-1.41zm-1.53 4.66c-0.663 1.28-1.45 2.07-2.28 2.75-0.835 0.684-1.65 0.875-2.34 0.875s-1.51-0.191-2.34-0.875c-0.826-0.676-1.59-1.48-2.25-2.75 1.46-0.216 3.01-0.666 4.59-1.31 1.6 0.645 3.15 1.1 4.62 1.31zm-0.031-20.4c-1.46 0.216-3.01 0.668-4.59 1.31-1.6-0.645-3.15-1.1-4.62-1.31 0.663-1.28 1.45-2.07 2.28-2.75 0.835-0.684 1.65-0.875 2.34-0.875s1.51 0.191 2.34 0.875c0.826 0.676 1.59 1.48 2.25 2.75zm-0.594 10.2a4 4 0 0 0-4-4 4 4 0 0 0-4 4 4 4 0 0 0 4 4 4 4 0 0 0 4-4zm-5.75 8.13c-1.18 0.395-2.32 0.663-3.4 0.813-0.41-1.01-0.749-2.13-0.999-3.34 0.68 0.463 1.41 0.913 2.15 1.34 0.75 0.433 1.5 0.828 2.25 1.19zm-2e-3 -16.2c-0.739 0.36-1.47 0.754-2.22 1.19-0.764 0.445-1.49 0.927-2.19 1.41 0.251-1.24 0.583-2.38 0.999-3.41 1.08 0.153 2.22 0.418 3.4 0.813zm-4.78-0.939c-0.546 1.39-0.948 2.97-1.19 4.69-1.33 1.06-2.47 2.16-3.37 3.31-0.783-1.22-1.11-2.31-1.28-3.38-0.174-1.07 0.0929-1.87 0.438-2.47 0.344-0.596 0.895-1.21 1.9-1.59 0.994-0.376 2.08-0.62 3.5-0.564zm0 18.1v2e-3c-1.39 0.051-2.46-0.188-3.44-0.563-0.999-0.382-1.56-1-1.9-1.6-0.341-0.596-0.609-1.4-0.438-2.47 0.167-1.03 0.526-2.08 1.25-3.25 0.906 1.13 2.02 2.22 3.34 3.25 0.239 1.69 0.648 3.25 1.19 4.62zm-1.37-11.6c-0.06 0.815-0.0939 1.65-0.0939 2.5 0 0.876 0.031 1.73 0.0939 2.56-0.914-0.81-1.7-1.65-2.37-2.5 0.666-0.868 1.45-1.73 2.37-2.56z" style="fill-opacity:.118"/>
 <path d="m32 24c0-4.03-0.66-7.68-2.04-10.4-0.69-1.33-1.52-2.42-2.48-3.21-0.959-0.784-2.1-1.44-3.48-1.44s-2.52 0.657-3.48 1.44c-0.959 0.784-1.79 1.87-2.48 3.21-1.38 2.67-2.04 6.32-2.04 10.4s0.66 7.68 2.04 10.4c0.69 1.33 1.52 2.42 2.48 3.21 0.959 0.784 2.1 1.44 3.48 1.44s2.52-0.657 3.48-1.44 1.79-1.87 2.48-3.21c1.38-2.67 2.04-6.32 2.04-10.4zm-1.3 0c0 3.98-0.745 7.56-2.08 10.1-0.667 1.29-1.44 2.12-2.28 2.81-0.836 0.684-1.66 0.85-2.34 0.85-0.688 0-1.51-0.166-2.34-0.85s-1.61-1.52-2.28-2.81c-1.33-2.58-2.08-6.16-2.08-10.1s0.745-7.56 2.08-10.1c0.667-1.29 1.44-2.12 2.28-2.81 0.836-0.684 1.66-0.85 2.34-0.85 0.688 0 1.51 0.166 2.34 0.85 0.836 0.684 1.61 1.52 2.28 2.81 1.33 2.58 2.08 6.16 2.08 10.1z" style="fill:#ccf24e"/>
 <path d="m28 30.9c3.49-2.02 6.32-4.41 7.94-6.94 0.81-1.26 1.34-2.53 1.54-3.75 0.199-1.22 0.198-2.54-0.493-3.74-0.691-1.2-1.83-1.86-2.99-2.3-1.16-0.439-2.52-0.612-4.02-0.543-3 0.139-6.49 1.39-9.98 3.41-3.49 2.02-6.32 4.41-7.94 6.94-0.81 1.26-1.34 2.53-1.54 3.75-0.199 1.22-0.198 2.54 0.493 3.74 0.691 1.2 1.83 1.86 2.99 2.3 1.16 0.439 2.52 0.612 4.02 0.543 3-0.139 6.49-1.39 9.98-3.41m-0.65-1.13c-3.44 1.99-6.92 3.14-9.82 3.27-1.45 0.067-2.56-0.187-3.57-0.569s-1.56-1.01-1.91-1.6c-0.344-0.596-0.61-1.39-0.436-2.46s0.509-2.15 1.29-3.38c1.57-2.44 4.3-4.88 7.74-6.87 3.44-1.99 6.92-3.14 9.82-3.27 1.45-0.067 2.56 0.186 3.57 0.569 1.01 0.382 1.56 1.01 1.91 1.6 0.344 0.596 0.61 1.39 0.436 2.46s-0.509 2.15-1.29 3.38c-1.57 2.44-4.3 4.88-7.74 6.87z" style="fill:#ccf24e"/>
 <path d="m20 30.9c3.49 2.01 6.98 3.27 9.98 3.41 1.5 0.069 2.86-0.104 4.02-0.543 1.16-0.439 2.3-1.1 2.99-2.3 0.692-1.2 0.693-2.51 0.493-3.74-0.199-1.22-0.728-2.48-1.54-3.75-1.62-2.53-4.45-4.93-7.94-6.94-3.49-2.02-6.98-3.27-9.98-3.41-1.5-0.069-2.86 0.104-4.02 0.543-1.16 0.439-2.3 1.1-2.99 2.3-0.691 1.2-0.693 2.51-0.493 3.74 0.199 1.22 0.728 2.48 1.54 3.75 1.62 2.53 4.45 4.93 7.94 6.94m0.65-1.13c-3.44-1.99-6.18-4.43-7.74-6.87-0.784-1.22-1.12-2.31-1.29-3.38s0.092-1.86 0.436-2.46 0.898-1.22 1.91-1.6c1.01-0.382 2.12-0.636 3.57-0.569 2.9 0.135 6.38 1.28 9.82 3.27 3.44 1.99 6.18 4.43 7.74 6.87 0.784 1.22 1.12 2.31 1.29 3.38 0.174 1.07-0.092 1.86-0.436 2.46s-0.898 1.22-1.91 1.6-2.12 0.636-3.57 0.569c-2.9-0.135-6.38-1.28-9.82-3.27z" style="fill:#ccf24e"/>
 <circle cx="24" cy="24" r="4" style="fill:#d2ef71"/>
</svg>
