<svg version="1.1" viewBox="0 0 48 48" xmlns="http://www.w3.org/2000/svg">
 <defs>
  <linearGradient id="bg" x2="0" y1="1" y2="47" gradientUnits="userSpaceOnUse">
   <stop style="stop-color:#7a5992" offset="0"/>
   <stop style="stop-color:#6f5185" offset="1"/>
  </linearGradient>
 </defs>
 <path d="m36.3 5c5.86 4.06 9.69 10.8 9.69 18.5 0 12.4-10.1 22.5-22.5 22.5-7.67 0-14.4-3.83-18.5-9.69 1.04 1.82 2.31 3.5 3.78 4.97 4.08 3.71 9.51 5.97 15.5 5.97 12.7 0 23-10.3 23-23 0-5.95-2.26-11.4-5.97-15.5-1.47-1.48-3.15-2.74-4.97-3.78zm4.97 3.78c3.85 4.11 6.22 9.64 6.22 15.7 0 12.7-10.3 23-23 23-6.08 0-11.6-2.36-15.7-6.22 4.16 4.14 9.88 6.72 16.2 6.72 12.7 0 23-10.3 23-23 0-6.34-2.58-12.1-6.72-16.2z" style="opacity:.05"/>
 <path d="m41.3 8.78c3.71 4.08 5.97 9.51 5.97 15.5 0 12.7-10.3 23-23 23-5.95 0-11.4-2.26-15.5-5.97 4.11 3.85 9.64 6.22 15.7 6.22 12.7 0 23-10.3 23-23 0-6.08-2.36-11.6-6.22-15.7z" style="opacity:.1"/>
 <path d="m31.2 2.38c8.62 3.15 14.8 11.4 14.8 21.1 0 12.4-10.1 22.5-22.5 22.5-9.71 0-18-6.14-21.1-14.8a23 23 0 0 0 44.9-7 23 23 0 0 0-16-21.9z" style="opacity:.2"/>
 <circle cx="24" cy="24" r="23" style="fill:url(#bg)"/>
 <path d="m40 7.53c3.71 4.08 5.97 9.51 5.97 15.5 0 12.7-10.3 23-23 23-5.95 0-11.4-2.26-15.5-5.97 4.18 4.29 10 6.97 16.5 6.97 12.7 0 23-10.3 23-23 0-6.46-2.68-12.3-6.97-16.5z" style="opacity:.1"/>
 <path d="m24 8a1 1 0 0 0-1 1 1 1 0 0 0 1 1 1 1 0 0 0 1-1 1 1 0 0 0-1-1zm-4.5 3c-2.5 0-3.5 2-3.5 5 0 0.872 0.0978 1.82 0.248 2.79-4.08 1.09-6.25 3.15-6.25 5.21 0 1.66 1.47 3.15 3.78 4.32 0.196-0.635 0.416-1.27 0.674-1.9-1.11-0.582-2.46-1.58-2.46-2.41 0-1.37 2.54-2.65 4.63-3.23 0.271 1.15 0.625 2.32 1.05 3.5-1.62 3.03-2.68 6.14-2.68 8.73 0 3 1 5 3.5 5 1 0 2.38-0.558 3.9-1.52-0.446-0.496-0.878-1.02-1.3-1.57-1.27 0.741-2.11 1.09-2.61 1.09-1.5 0-1.5-1.73-1.5-3 0-1.67 0.642-3.88 1.69-6.19 2.83 6.41 7.31 12.2 11.8 12.2 6.5 0 2.5-13 0.734-15.8-0.787-0.244-1.66-0.461-2.59-0.641 2.36 3.47 5.36 14.5 1.56 14.5-3.62 0-8.74-8-10.3-12.5 0.98-1.69 1.89-3.11 3.02-4.45 0.0288-7e-5 0.0551-2e-3 0.084-2e-3 9-6.9e-4 15 3.62 15 5.5 0 1.22-1.35 1.78-2.77 2.38 0.181 0.649 0.337 1.3 0.457 1.94 2.79-0.961 4.32-2.45 4.32-4.32 0-3.31-6.25-7.05-15.4-7.46 1.8-1.83 4.55-4.04 6.37-4.04 1.72 1.3e-4 2 0.999 2 2.5 6e-5 0.305-0.0159 0.614-0.041 0.924 0.675 0.209 1.33 0.43 1.94 0.678 0.0601-0.534 0.0995-1.07 0.0996-1.6 8.8e-4 -3-1.33-4.5-4-4.5-2.64 0-6.06 2.52-9.05 6.02-1.35 0.0422-2.6 0.165-3.73 0.354-0.131-0.845-0.217-1.66-0.217-2.38-7.9e-4 -2.23 0.42-3 1.5-3 0.505 1.3e-4 1.67 0.481 2.98 1.55 0.495-0.482 0.996-0.937 1.5-1.36-1.58-1.36-3.14-2.19-4.48-2.19zm-7 2a1.5 1.5 0 0 0-1.5 1.5 1.5 1.5 0 0 0 1.5 1.5 1.5 1.5 0 0 0 1.5-1.5 1.5 1.5 0 0 0-1.5-1.5zm25.5 3a1 1 0 0 0-1 1 1 1 0 0 0 1 1 1 1 0 0 0 1-1 1 1 0 0 0-1-1zm-17.7 4.12c-0.437 0.597-0.855 1.21-1.26 1.83-0.164-0.547-0.31-1.09-0.438-1.62 0.536-0.0884 1.1-0.163 1.69-0.219zm4.7 2.88c-1.09 0-2 0.905-2 2s0.895 2 2 2 2-0.895 2-2-0.895-2-2-2zm-15 7a1 1 0 0 0-1 1 1 1 0 0 0 1 1 1 1 0 0 0 1-1 1 1 0 0 0-1-1zm27.5 1a1.5 1.5 0 0 0-1.5 1.5 1.5 1.5 0 0 0 1.5 1.5 1.5 1.5 0 0 0 1.5-1.5 1.5 1.5 0 0 0-1.5-1.5zm-13.5 8a1 1 0 0 0-1 1 1 1 0 0 0 1 1 1 1 0 0 0 1-1 1 1 0 0 0-1-1z" style="opacity:.1"/>
 <path d="m23 7c-0.552 0-1 0.448-1 1s0.448 1 1 1 1-0.448 1-1-0.448-1-1-1zm-11.5 5c-0.828 0-1.5 0.672-1.5 1.5s0.672 1.5 1.5 1.5 1.5-0.672 1.5-1.5-0.672-1.5-1.5-1.5zm25.5 3c-0.552 0-1 0.448-1 1s0.448 1 1 1 1-0.448 1-1-0.448-1-1-1zm-28 14c-0.552 0-1 0.448-1 1s0.448 1 1 1 1-0.448 1-1-0.448-1-1-1zm27.5 1c-0.828 0-1.5 0.672-1.5 1.5s0.672 1.5 1.5 1.5 1.5-0.672 1.5-1.5-0.672-1.5-1.5-1.5zm-13.5 8c-0.552 0-1 0.448-1 1s0.448 1 1 1 1-0.448 1-1-0.448-1-1-1z" style="fill:#cfcec9"/>
 <path d="m18.5 10c-2.5 0-3.5 2-3.5 5 0 0.872 0.0978 1.82 0.248 2.79-4.08 1.09-6.25 3.15-6.25 5.21 0 1.66 1.47 3.15 3.78 4.32 0.196-0.635 0.416-1.27 0.674-1.9-1.11-0.582-2.46-1.58-2.46-2.41 0-1.37 2.54-2.65 4.63-3.23 0.271 1.15 0.625 2.32 1.05 3.5-1.62 3.03-2.68 6.14-2.68 8.73 0 3 1 5 3.5 5 1 0 2.38-0.558 3.9-1.52-0.446-0.496-0.878-1.02-1.3-1.57-1.27 0.741-2.11 1.09-2.61 1.09-1.5 0-1.5-1.73-1.5-3 0-1.67 0.642-3.88 1.69-6.19 2.83 6.41 7.31 12.2 11.8 12.2 6.5 0 2.5-13 0.734-15.8-0.787-0.244-1.66-0.461-2.59-0.641 2.36 3.47 5.36 14.5 1.56 14.5-3.62 0-8.74-8-10.3-12.5 0.98-1.69 1.89-3.11 3.02-4.45 0.0288-7e-5 0.0551-2e-3 0.084-2e-3 9-6.9e-4 15 3.62 15 5.5 0 1.22-1.35 1.78-2.77 2.38 0.181 0.649 0.337 1.3 0.457 1.94 2.79-0.961 4.32-2.45 4.32-4.32 0-3.31-6.25-7.05-15.4-7.46 1.8-1.83 4.55-4.04 6.37-4.04 1.72 1.3e-4 2 0.999 2 2.5 6e-5 0.305-0.0159 0.614-0.041 0.924 0.675 0.209 1.33 0.43 1.94 0.678 0.0601-0.534 0.0995-1.07 0.0996-1.6 8.8e-4 -3-1.33-4.5-4-4.5-2.64 0-6.06 2.52-9.05 6.02-1.35 0.0422-2.6 0.165-3.73 0.354-0.131-0.845-0.217-1.66-0.217-2.38-7.9e-4 -2.23 0.42-3 1.5-3 0.505 1.3e-4 1.67 0.481 2.98 1.55 0.495-0.482 0.996-0.937 1.5-1.36-1.58-1.36-3.14-2.19-4.48-2.19zm0.801 9.12c-0.437 0.597-0.855 1.21-1.26 1.83-0.164-0.547-0.31-1.09-0.438-1.62 0.536-0.0884 1.1-0.163 1.69-0.219zm4.7 2.88c-1.09 0-2 0.905-2 2s0.895 2 2 2 2-0.895 2-2-0.895-2-2-2z" style="fill:#f1f8f5"/>
</svg>
