<svg xmlns="http://www.w3.org/2000/svg" viewBox="0 0 48 48">
 <defs>
  <linearGradient id="linearGradient3764" x1="1" x2="47" gradientUnits="userSpaceOnUse" gradientTransform="matrix(0,-1,1,0,-1.5e-6,47.999998)">
   <stop style="stop-color:#e4e4e4;stop-opacity:1"/>
   <stop offset="1" style="stop-color:#eee;stop-opacity:1"/>
  </linearGradient>
 </defs>
 <g>
  <path d="m 36.31 5 c 5.859 4.062 9.688 10.831 9.688 18.5 c 0 12.426 -10.07 22.5 -22.5 22.5 c -7.669 0 -14.438 -3.828 -18.5 -9.688 c 1.037 1.822 2.306 3.499 3.781 4.969 c 4.085 3.712 9.514 5.969 15.469 5.969 c 12.703 0 23 -10.298 23 -23 c 0 -5.954 -2.256 -11.384 -5.969 -15.469 c -1.469 -1.475 -3.147 -2.744 -4.969 -3.781 z m 4.969 3.781 c 3.854 4.113 6.219 9.637 6.219 15.719 c 0 12.703 -10.297 23 -23 23 c -6.081 0 -11.606 -2.364 -15.719 -6.219 c 4.16 4.144 9.883 6.719 16.219 6.719 c 12.703 0 23 -10.298 23 -23 c 0 -6.335 -2.575 -12.06 -6.719 -16.219 z" style="opacity:0.05"/>
  <path d="m 41.28 8.781 c 3.712 4.085 5.969 9.514 5.969 15.469 c 0 12.703 -10.297 23 -23 23 c -5.954 0 -11.384 -2.256 -15.469 -5.969 c 4.113 3.854 9.637 6.219 15.719 6.219 c 12.703 0 23 -10.298 23 -23 c 0 -6.081 -2.364 -11.606 -6.219 -15.719 z" style="opacity:0.1"/>
  <path d="m 31.25 2.375 c 8.615 3.154 14.75 11.417 14.75 21.13 c 0 12.426 -10.07 22.5 -22.5 22.5 c -9.708 0 -17.971 -6.135 -21.12 -14.75 a 23 23 0 0 0 44.875 -7 a 23 23 0 0 0 -16 -21.875 z" style="opacity:0.2"/>
 </g>
 <g>
  <path d="m 24 1 c 12.703 0 23 10.297 23 23 c 0 12.703 -10.297 23 -23 23 -12.703 0 -23 -10.297 -23 -23 0 -12.703 10.297 -23 23 -23 z" style="fill:url(#linearGradient3764);fill-opacity:1"/>
 </g>
 <g>
  <g>
   <g transform="translate(1,1)">
    <g style="opacity:0.1">
     <!-- color: #eeeeee -->
     <g>
      <path d="m 28.945 13 c -0.962 0.034 -1.945 0.306 -2.945 0.971 l 0 9.03 l -7 0 -4 2 1.736 0.867 c -2.952 1.778 -4.446 4.919 -3.404 7.584 1.207 3.101 5.383 4.398 9.332 2.906 3.113 -1.176 5.203 -3.73 5.336 -6.281 l 0 -3.076 l 6.438 0 c 0 0 0.564 -0.324 0.564 -1.996 0 -1.613 -0.621 -2 -0.621 -2 c -2.158 -0.002 -6.381 -0.004 -6.381 -0.004 l 0 -5.02 c 0.094 -0.082 1.203 -0.539 4 0 3 0 5 -3 5 -3 -3.1 0.209 -5.604 -1.926 -8.05 -1.973 z" transform="translate(-1,-1)"/>
     </g>
    </g>
   </g>
  </g>
 </g>
 <g transform="translate(3.8962045e-4,0)">
  <g>
   <!-- color: #eeeeee -->
   <g>
    <path d="m 36 13.977 c 0 0 -2 3 -5 3 -2.797 -0.539 -3.906 -0.082 -4 0 l 0 12.1 c -0.133 2.551 -2.223 5.105 -5.336 6.281 -3.949 1.492 -8.125 0.195 -9.332 -2.906 -1.211 -3.098 1 -6.848 4.953 -8.34 3.059 -1.156 5.867 -0.871 7.715 0.863 l 0 -12 c 4 -2.66 7.719 0.961 11 1 m 0 0" style="fill:#2d4c78;fill-opacity:1;stroke:none;fill-rule:nonzero"/>
    <path d="m 17.969 22 13.773 0 0 4 -13.773 0 m 0 -4" style="fill:#ff6f03;fill-opacity:1;stroke:none;fill-rule:nonzero"/>
    <path d="m 31,22 0,4 2.438,0 c 0,0 0.563,-0.324 0.563,-1.996 0,-1.613 -0.621,-2 -0.621,-2 l -2.375,0 M 31.001,22" style="fill:#ff2d5b;fill-opacity:1;stroke:none;fill-rule:nonzero"/>
    <path d="m 18,22 -4,2 4,1.996 0,-4 M 18,22" style="fill:#ffc13d;fill-opacity:1;stroke:none;fill-rule:nonzero"/>
    <path d="M 16,22.98 14.004,24 16,25.016 m 0,-2.035" style="fill:#2d2d2d;fill-opacity:1;stroke:none;fill-rule:nonzero"/>
   </g>
  </g>
 </g>
 <g>
  <path d="m 40.03 7.531 c 3.712 4.084 5.969 9.514 5.969 15.469 0 12.703 -10.297 23 -23 23 c -5.954 0 -11.384 -2.256 -15.469 -5.969 4.178 4.291 10.01 6.969 16.469 6.969 c 12.703 0 23 -10.298 23 -23 0 -6.462 -2.677 -12.291 -6.969 -16.469 z" style="opacity:0.1"/>
 </g>
</svg>
