<svg version="1.1" viewBox="0 0 48 48" xmlns="http://www.w3.org/2000/svg">
 <defs>
  <linearGradient id="bg" x2="0" y1="1" y2="47" gradientUnits="userSpaceOnUse">
   <stop style="stop-color:#4d2a7e" offset="0"/>
   <stop style="stop-color:#44256f" offset="1"/>
  </linearGradient>
 </defs>
 <path d="m36.31 5c5.859 4.062 9.688 10.831 9.688 18.5 0 12.426-10.07 22.5-22.5 22.5-7.669 0-14.438-3.828-18.5-9.688 1.037 1.822 2.306 3.499 3.781 4.969 4.085 3.712 9.514 5.969 15.469 5.969 12.703 0 23-10.298 23-23 0-5.954-2.256-11.384-5.969-15.469-1.469-1.475-3.147-2.744-4.969-3.781zm4.969 3.781c3.854 4.113 6.219 9.637 6.219 15.719 0 12.703-10.297 23-23 23-6.081 0-11.606-2.364-15.719-6.219 4.16 4.144 9.883 6.719 16.219 6.719 12.703 0 23-10.298 23-23 0-6.335-2.575-12.06-6.719-16.219z" style="opacity:.05"/>
 <path d="m41.28 8.781c3.712 4.085 5.969 9.514 5.969 15.469 0 12.703-10.297 23-23 23-5.954 0-11.384-2.256-15.469-5.969 4.113 3.854 9.637 6.219 15.719 6.219 12.703 0 23-10.298 23-23 0-6.081-2.364-11.606-6.219-15.719z" style="opacity:.1"/>
 <path d="m31.25 2.375c8.615 3.154 14.75 11.417 14.75 21.13 0 12.426-10.07 22.5-22.5 22.5-9.708 0-17.971-6.135-21.12-14.75a23 23 0 0 0 44.875-7 23 23 0 0 0-16-21.875z" style="opacity:.2"/>
 <circle cx="24" cy="24" r="23" style="fill:url(#bg)"/>
 <path d="m40.03 7.531c3.712 4.084 5.969 9.514 5.969 15.469 0 12.703-10.297 23-23 23-5.954 0-11.384-2.256-15.469-5.969 4.178 4.291 10.01 6.969 16.469 6.969 12.703 0 23-10.298 23-23 0-6.462-2.677-12.291-6.969-16.469z" style="opacity:.1"/>
 <path d="m25 11a1.0001 1.0001 0 0 0-0.82422 0.43359l-11 16a1.0001 1.0001 0 0 0 0.15234 1.3066l11 10a1.0001 1.0001 0 0 0 1.3438 0l11-10a1.0001 1.0001 0 0 0 0.15234-1.3066l-11-16a1.0001 1.0001 0 0 0-0.82422-0.43359zm-1 4.2207v8.9121c-1.0358 0.26869-1.9207 0.94119-2.457 1.8672h1.2246c0.56828-0.63536 1.38-0.99896 2.2324-1 0.3409 0.0014 0.67908 0.0608 1 0.17578v-9.9551l8.0996 11.779h-5.2324c-0.26869-1.0358-0.94119-1.9207-1.8672-2.457v1.2246c0.63536 0.56828 0.99896 1.38 1 2.2324-0.0014 0.3409-0.0608 0.67908-0.17578 1h5.5898l-7.4141 6.7402v-3.873c1.0358-0.26869 1.9207-0.94119 2.457-1.8672h-1.2246c-0.56828 0.63536-1.38 0.99896-2.2324 1-0.3409-0.0014-0.67908-0.0608-1-0.17578v4.916l-7.4141-6.7402h4.5469c0.26869 1.0358 0.94119 1.9207 1.8672 2.457v-1.2246c-0.63536-0.56828-0.99896-1.38-1-2.2324 0.0014-0.3409 0.0608-0.67908 0.17578-1h-6.2754z" style="opacity:.1"/>
 <path d="m24 10a1.0001 1.0001 0 0 0-0.82422 0.43359l-11 16a1.0001 1.0001 0 0 0 0.15234 1.3066l11 10a1.0001 1.0001 0 0 0 1.3438 0l11-10a1.0001 1.0001 0 0 0 0.15234-1.3066l-11-16a1.0001 1.0001 0 0 0-0.82422-0.43359zm-1 4.2207v8.9121c-1.0358 0.26869-1.9207 0.94119-2.457 1.8672h1.2246c0.56828-0.63536 1.38-0.99896 2.2324-1 0.3409 0.0014 0.67908 0.0608 1 0.17578v-9.9551l8.0996 11.779h-5.2324c-0.26869-1.0358-0.94119-1.9207-1.8672-2.457v1.2246c0.63536 0.56828 0.99896 1.38 1 2.2324-0.0014 0.3409-0.0608 0.67908-0.17578 1h5.5898l-7.4141 6.7402v-3.873c1.0358-0.26869 1.9207-0.94119 2.457-1.8672h-1.2246c-0.56828 0.63536-1.38 0.99896-2.2324 1-0.3409-0.0014-0.67908-0.0608-1-0.17578v4.916l-7.4141-6.7402h4.5469c0.26869 1.0358 0.94119 1.9207 1.8672 2.457v-1.2246c-0.63536-0.56828-0.99896-1.38-1-2.2324 0.0014-0.3409 0.0608-0.67908 0.17578-1h-6.2754l8.0996-11.779z" style="fill:#e8bff8"/>
</svg>
