<svg xmlns="http://www.w3.org/2000/svg" viewBox="0 0 48 48">
 <defs>
  <linearGradient id="linearGradient4259" y2="1.014" gradientUnits="userSpaceOnUse" y1="46.986" x2="0">
   <stop style="stop-color:#6ed660;stop-opacity:1"/>
   <stop offset="1" style="stop-color:#7dda70;stop-opacity:1"/>
  </linearGradient>
 </defs>
 <g>
  <path d="m36.31 5c5.859 4.062 9.688 10.831 9.688 18.5 0 12.426-10.07 22.5-22.5 22.5-7.669 0-14.438-3.828-18.5-9.688 1.037 1.822 2.306 3.499 3.781 4.969 4.085 3.712 9.514 5.969 15.469 5.969 12.703 0 23-10.298 23-23 0-5.954-2.256-11.384-5.969-15.469-1.469-1.475-3.147-2.744-4.969-3.781zm4.969 3.781c3.854 4.113 6.219 9.637 6.219 15.719 0 12.703-10.297 23-23 23-6.081 0-11.606-2.364-15.719-6.219 4.16 4.144 9.883 6.719 16.219 6.719 12.703 0 23-10.298 23-23 0-6.335-2.575-12.06-6.719-16.219z" style="opacity:0.05"/>
  <path d="m41.28 8.781c3.712 4.085 5.969 9.514 5.969 15.469 0 12.703-10.297 23-23 23-5.954 0-11.384-2.256-15.469-5.969 4.113 3.854 9.637 6.219 15.719 6.219 12.703 0 23-10.298 23-23 0-6.081-2.364-11.606-6.219-15.719z" style="opacity:0.1"/>
  <path d="m31.25 2.375c8.615 3.154 14.75 11.417 14.75 21.13 0 12.426-10.07 22.5-22.5 22.5-9.708 0-17.971-6.135-21.12-14.75a23 23 0 0 0 44.875 -7 23 23 0 0 0 -16 -21.875z" style="opacity:0.2"/>
 </g>
 <path d="m24 1c12.703 0 23 10.297 23 23s-10.297 23-23 23-23-10.297-23-23 10.297-23 23-23z" style="fill:url(#linearGradient4259)"/>
 <path d="m 20.12 12 c -0.597 0.04 -1.235 0.571 -1.775 1.777 c -0.58 1.295 -0.795 2.596 -0.24 5.088 l 0.244 1.092 c -1.812 1.558 -4.089 3.551 -4.332 6.393 c -0.306 3.595 3.525 6.266 6.965 5.43 l 0.488 2.193 c 0.241 1.082 0.08 2.57 -0.98 3.254 c -0.52 0.336 -2.345 0.565 -2.822 -0.217 c 0.067 0.01 0.135 0.016 0.203 0.018 c 0.876 0.016 1.6 -0.658 1.617 -1.506 c 0.017 -0.849 -0.68 -1.549 -1.557 -1.564 c -0.876 -0.015 -1.599 0.66 -1.615 1.508 c -0.001 0.069 0.003 0.138 0.012 0.207 c 0.001 0.012 0.003 0.025 0.004 0.037 c 0.01 0.069 0.025 0.136 0.045 0.203 c 0.202 0.889 1.086 2.038 2.592 2.084 c 2.256 0.069 3.697 -1.573 3.03 -4.254 l -0.482 -2.121 c 2.178 -0.857 3.258 -4.054 1.863 -5.732 c -1.092 -1.314 -2.368 -1.654 -3.5 -1.455 l -0.613 -2.693 c 1.247 -1.414 2.303 -2.937 2.709 -4.84 c 0.575 -2.698 -0.537 -4.988 -1.85 -4.9 z m 0.531 1.846 c 0.192 -0.014 0.347 0.039 0.434 0.16 c 0.198 0.278 0.678 1.574 -0.688 3.898 c -0.297 0.506 -0.907 1.064 -1.625 1.686 l -0.146 -0.641 c -0.401 -1.761 -0.101 -2.716 0.113 -3.285 c 0.428 -1.139 1.337 -1.776 1.912 -1.818 z m 10.848 4.152 c -3 0 -4.5 1.525 -4.5 5 l 3 0 c 0 -2 1.5 -2 1.5 -2 c 0 0 1.5 0 1.5 1.5 c 0 2.956 -3 0.5 -3 6.5 l 3 0 c 0.012 -4.5 3 -2.149 3 -7 c 0 -3 -1.5 -4 -4.5 -4 z m -12.65 4.209 l 0.523 2.348 c -2.524 0.84 -3.963 4.401 0.002 5.689 c -0.643 -0.482 -1.082 -0.855 -1.164 -1.311 c -0.298 -1.667 0.503 -2.543 1.521 -2.764 l 1.123 5.04 c -1.265 0.381 -2.905 0.149 -4.02 -0.814 c -1.497 -1.294 -2.163 -3.788 -0.496 -5.578 c 0.821 -0.882 1.695 -1.73 2.51 -2.613 z m 1.408 3.906 c 1.595 -0.009 3.343 1.397 2.281 3.764 c -0.222 0.495 -0.648 0.862 -1.17 1.117 l -1.111 -4.881 z m 9.742 3.885 l 0 3 l 3 0 l 0 -3 l -3 0 z" style="fill:#000;opacity:0.1;fill-opacity:1;stroke:none"/>
 <g>
  <path d="m40.03 7.531c3.712 4.084 5.969 9.514 5.969 15.469 0 12.703-10.297 23-23 23-5.954 0-11.384-2.256-15.469-5.969 4.178 4.291 10.01 6.969 16.469 6.969 12.703 0 23-10.298 23-23 0-6.462-2.677-12.291-6.969-16.469z" style="opacity:0.1"/>
 </g>
 <g transform="matrix(.42501 0 0 .40452 4.4641 8.5278)" style="fill:#333">
  <path d="m 34.485 5.996 c -1.404 0.098 -2.902 1.406 -4.173 4.389 -1.364 3.202 -1.876 6.417 -0.57 12.578 l 0.574 2.704 c -4.262 3.851 -9.621 8.778 -10.193 15.803 -0.719 8.886 8.295 15.488 16.387 13.423 l 1.149 5.422 c 0.567 2.674 0.189 6.353 -2.307 8.04 -1.236 0.838 -5.612 1.411 -6.682 -0.589 l -3.079 -4.09 c -0.392 2.092 1.79 6.439 6.181 6.581 5.308 0.172 8.698 -3.889 7.118 -10.516 l -1.135 -5.248 c 5.124 -2.12 7.665 -10.02 4.384 -14.166 -2.569 -3.249 -5.571 -4.093 -8.235 -3.602 l -1.443 -6.653 c 2.934 -3.495 5.419 -7.26 6.374 -11.964 c 1.354 -6.671 -1.264 -12.329 -4.352 -12.11 m 1.255 4.558 c 0.451 -0.035 0.811 0.095 1.016 0.396 0.467 0.686 1.594 3.895 -1.618 9.642 -0.699 1.25 -2.134 2.629 -3.823 4.167 l -0.345 -1.584 c -0.943 -4.353 -0.237 -6.719 0.267 -8.126 1.01 -2.816 3.152 -4.391 4.504 -4.495 z m -4.246 20.67 1.232 5.804 c -5.938 2.076 -9.324 10.88 0.005 14.06 -1.514 -1.192 -2.546 -2.113 -2.739 -3.24 -0.702 -4.121 1.183 -6.281 3.58 -6.827 l 2.642 12.462 c -2.977 0.942 -6.835 0.373 -9.457 -2.01 -3.523 -3.199 -5.088 -9.364 -1.167 -13.789 1.931 -2.18 3.988 -4.282 5.905 -6.465 z m 3.313 9.657 c 3.754 -0.022 7.866 3.459 5.368 9.309 -0.523 1.225 -1.525 2.13 -2.753 2.762 l -2.615 -12.07 z" style="fill:#25578f;fill-opacity:1"/>
  <ellipse rx="3.733" transform="matrix(-0.99982388,-0.01876731,0.01876731,-0.99982388,0,0)" ry="3.797" cy="-63.51" cx="-30.461" style="fill:#25578f;fill-opacity:1"/>
 </g>
 <path d="m 30.5 17 c -3 0 -4.5 1.525 -4.5 5 l 3 0 c 0 -2 1.5 -2 1.5 -2 c 0 0 1.5 0 1.5 1.5 0 2.956 -3 0.5 -3 6.5 l 3 0 c 0.012 -4.5 3 -2.149 3 -7 0 -3 -1.5 -4 -4.5 -4 z m -1.5 12 0 3 3 0 0 -3 z" style="fill:#25578f;fill-opacity:1;stroke:none"/>
</svg>
