<svg version="1.1" viewBox="0 0 48 48" xmlns="http://www.w3.org/2000/svg">
 <defs>
  <linearGradient id="bg" x1="1" x2="47" gradientTransform="matrix(0 -1 1 0 0 48)">
   <stop style="stop-color:#eec37a" offset="0"/>
   <stop style="stop-color:#f0cb8c" offset="1"/>
  </linearGradient>
 </defs>
 <path d="m36.31 5c5.859 4.062 9.688 10.831 9.688 18.5 0 12.426-10.07 22.5-22.5 22.5-7.669 0-14.438-3.828-18.5-9.688 1.037 1.822 2.306 3.499 3.781 4.969 4.085 3.712 9.514 5.969 15.469 5.969 12.703 0 23-10.298 23-23 0-5.954-2.256-11.384-5.969-15.469-1.469-1.475-3.147-2.744-4.969-3.781zm4.969 3.781c3.854 4.113 6.219 9.637 6.219 15.719 0 12.703-10.297 23-23 23-6.081 0-11.606-2.364-15.719-6.219 4.16 4.144 9.883 6.719 16.219 6.719 12.703 0 23-10.298 23-23 0-6.335-2.575-12.06-6.719-16.219z" style="opacity:.05"/>
 <path d="m41.28 8.781c3.712 4.085 5.969 9.514 5.969 15.469 0 12.703-10.297 23-23 23-5.954 0-11.384-2.256-15.469-5.969 4.113 3.854 9.637 6.219 15.719 6.219 12.703 0 23-10.298 23-23 0-6.081-2.364-11.606-6.219-15.719z" style="opacity:.1"/>
 <path d="m31.25 2.375c8.615 3.154 14.75 11.417 14.75 21.13 0 12.426-10.07 22.5-22.5 22.5-9.708 0-17.971-6.135-21.12-14.75a23 23 0 0 0 44.875-7 23 23 0 0 0-16-21.875z" style="opacity:.2"/>
 <path d="m24 1c12.703 0 23 10.297 23 23s-10.297 23-23 23-23-10.297-23-23 10.297-23 23-23z" style="fill:url(#bg)"/>
 <path d="m40.03 7.531c3.712 4.084 5.969 9.514 5.969 15.469 0 12.703-10.297 23-23 23-5.954 0-11.384-2.256-15.469-5.969 4.178 4.291 10.01 6.969 16.469 6.969 12.703 0 23-10.298 23-23 0-6.462-2.677-12.291-6.969-16.469z" style="opacity:.1"/>
 <path d="m21.999 11-1.365 3.947c-0.59017-1.192-1.8049-1.9464-3.135-1.947l-4.541 2-2.748 1.035c-0.93844 1.624 1.32 4.8941 5.846 8.465-4.5255 3.5708-6.7839 6.8409-5.846 8.465 0.49554 0.8451 1.8345 1.1821 3.85 0.969l-1.061 3.066h5.6l1.471-4.643c1.0409-0.39273 2.1184-0.84781 3.213-1.357h3.434c1.0946 0.50918 2.1721 0.96425 3.213 1.357l1.471 4.643h5.6l-1.061-3.066c2.0154 0.21302 3.3544-0.12398 3.85-0.969 0.9463-1.6222-1.3121-4.8957-5.844-8.471 0.26211-0.20858 0.51758-0.41702 0.766-0.625 0.25427 0.08573 0.52067 0.12996 0.789 0.131 1.3807 0 2.5-1.1193 2.5-2.5-3.83e-4 -0.23067-0.03269-0.46018-0.096-0.682 1.8026-2.0673 2.4703-3.7615 1.885-4.783-0.39593-0.67988-1.3375-1.0345-2.748-1.035-1.7887-8.94e-4 -4.2584 0.56793-7.09 1.633l-1.951-5.633zm13.805 6.066c0.72035-0.01416 1.1859 0.14284 1.373 0.463l-4.839 5.764-1.759-4.844c2.2225-0.87878 4.046-1.3612 5.227-1.383zm-21.756 8e-3c0.28058 1.6877 1.7401 2.9252 3.451 2.926l0.165 3.291c-3.526-2.6307-5.3734-4.8292-4.842-5.762 0.17745-0.29306 0.59247-0.44696 1.227-0.455zm10.949 4.01c0.50373 0.26926 1.0073 0.54712 1.508 0.832l1.494 4.088h-6l1.232-3.936c0.08719-0.05085 0.17453-0.10152 0.262-0.152 0.49918-0.28476 1.0015-0.56262 1.504-0.832zm8.367 5.42c2.8721 2.2919 4.2896 4.1398 3.813 4.971l-1.947 0.414-1.865-5.385zm-16.73 2e-3 -1.865 5.383-1.947-0.414c-0.47377-0.83193 0.94343-2.6788 3.813-4.969z" style="opacity:.1"/>
 <path d="m21.001 10-9 26h5.6l1.9-6h9l1.9 6h5.6l-9-26h-6m3 5.416 3 9.584h-6z" style="fill:#424242"/>
 <path d="m19.694 13.777-2.156 6.225c1.013-0.01 1.972-0.459 2.629-1.23 0.775 0.324 1.595 0.704 2.436 1.109l0.598-1.906-2.199-1.471c0-1.06-0.481-2.062-1.307-2.727m9.686 3.096-4.316 1.939 0.875 2.795c0.189 0.103 0.376 0.199 0.568 0.309 2.27 1.299 4.287 2.641 5.973 3.912l-1.104-3.189-4.224-2.644c1-0.489 1.952-0.91 2.863-1.287zm-6.871 3.307-6.557 4.405-1.258 3.635c1.571-1.533 3.981-3.354 6.918-5.17z" style="opacity:.1"/>
 <path d="m11.96 14a17.04 4.99 29.747 0 0-2.748 1.035 17.04 4.99 29.747 0 0 6.85 9.234l0.439-1.269 0.229-0.66a14.03 2.994 29.767 0 1-4.906-5.813 14.03 2.994 29.767 0 1 13.684 4.383 14.03 2.994 29.767 0 1 10.672 9.559 14.03 2.994 29.767 0 1-1.947 0.414l0.706 2.051a17.04 4.99 29.747 0 0 3.851-0.969 17.04 4.99 29.747 0 0-12.277-12.775 17.04 4.99 29.747 0 0-14.553-5.19m13.758 16a17.04 4.99 29.747 0 0 3.213 1.357l-0.43-1.357h-2.783" style="fill:#d6911a"/>
 <path d="m25.46 18.6c-0.71 0.356-1.42 0.73-2.125 1.121 0.695 0.363 1.392 0.743 2.084 1.137 0.715-0.377 1.426-0.736 2.125-1.07-0.341-0.204-0.685-0.406-1.031-0.604-0.349-0.199-0.7-0.393-1.053-0.584z" style="opacity:.1"/>
 <path d="m36.04 14a4.99 17.04 60.25 0 0-14.552 5.19 4.99 17.04 60.25 0 0-12.277 12.775 4.99 17.04 60.25 0 0 3.849 0.969l0.711-2.049a2.994 14.03 60.23 0 1-1.947-0.414 2.994 14.03 60.23 0 1 10.672-9.559 2.994 14.03 60.23 0 1 13.684-4.383 2.994 14.03 60.23 0 1-4.84 5.766 17.04 4.99 29.747 0 1 1.592 1.209 4.99 17.04 60.25 0 0 5.857-8.464 4.99 17.04 60.25 0 0-2.749-1.04zm-16.54 16-0.43 1.359a4.99 17.04 60.25 0 0 3.213-1.359z" style="fill:#d6911a"/>
 <circle cx="34.501" cy="20.5" r="2.5" style="fill:#d6911a"/>
 <circle cx="16.501" cy="15.5" r="3.5" style="fill:#d6911a"/>
 <path d="m31.836 21.91c-0.1616 0.12745-0.32702 0.25575-0.49609 0.38477 0.29905 0.22153 0.59155 0.44367 0.87695 0.66602l-0.38086-1.0508zm-12.336 8.0898-0.42969 1.3594c0.95152-0.36187 1.933-0.7754 2.9297-1.2344v-0.125h-2.5zm6.2188 0c0.784 0.36219 1.5592 0.69656 2.3184 1h0.78125l-0.31836-1h-2.7812zm8.5137 0.88281 0.70703 2.0508c0.23115 0.01995 0.45329 0.032329 0.66602 0.037109l-0.70898-2.0469c-0.20097 5.26e-4 -0.42264-0.013166-0.66406-0.041016z" style="opacity:.1"/>
</svg>
