<svg version="1.1" viewBox="0 0 48 48" xmlns="http://www.w3.org/2000/svg">
 <defs>
  <linearGradient id="linearGradient3764" x1="1" x2="47" gradientTransform="matrix(0 -1 1 0 -1.5e-6 48)" gradientUnits="userSpaceOnUse">
   <stop style="stop-color:#48a1e0" offset="0"/>
   <stop style="stop-color:#5aa9e3" offset="1"/>
  </linearGradient>
 </defs>
 <path d="m36.3 5c5.86 4.06 9.69 10.8 9.69 18.5 0 12.4-10.1 22.5-22.5 22.5-7.67 0-14.4-3.83-18.5-9.69 1.04 1.82 2.31 3.5 3.78 4.97 4.08 3.71 9.51 5.97 15.5 5.97 12.7 0 23-10.3 23-23 0-5.95-2.26-11.4-5.97-15.5-1.47-1.48-3.15-2.74-4.97-3.78zm4.97 3.78c3.85 4.11 6.22 9.64 6.22 15.7 0 12.7-10.3 23-23 23-6.08 0-11.6-2.36-15.7-6.22 4.16 4.14 9.88 6.72 16.2 6.72 12.7 0 23-10.3 23-23 0-6.34-2.58-12.1-6.72-16.2z" style="opacity:.05"/>
 <path d="m41.3 8.78c3.71 4.08 5.97 9.51 5.97 15.5 0 12.7-10.3 23-23 23-5.95 0-11.4-2.26-15.5-5.97 4.11 3.85 9.64 6.22 15.7 6.22 12.7 0 23-10.3 23-23 0-6.08-2.36-11.6-6.22-15.7z" style="opacity:.1"/>
 <path d="m31.2 2.38c8.62 3.15 14.8 11.4 14.8 21.1 0 12.4-10.1 22.5-22.5 22.5-9.71 0-18-6.14-21.1-14.8a23 23 0 0 0 44.9-7 23 23 0 0 0-16-21.9z" style="opacity:.2"/>
 <path d="m24 1c12.7 0 23 10.3 23 23s-10.3 23-23 23-23-10.3-23-23 10.3-23 23-23z" style="fill:url(#linearGradient3764)"/>
 <path d="m25 9.01c-3.88 0-7 3.12-7 6.99s3.12 6.99 7 6.99c3.88 0 7-3.11 7-6.99s-3.12-6.99-7-6.99zm0 1.52c3.04 0 5.48 2.44 5.48 5.48 0 3.04-2.44 5.48-5.48 5.48-3.04 0-5.48-2.44-5.48-5.48 0-3.03 2.44-5.48 5.48-5.48zm-1.85 3.35c-0.071 0-0.141 0.026-0.193 0.078l-4e-3 4e-3c-0.109 0.11-0.109 0.282 0 0.391l1.22 1.22c-0.062 0.134-0.094 0.28-0.084 0.434 0.015 0.257 0.143 0.478 0.328 0.633l-1.68 3.09c-0.039 0.074-0.015 0.164 0.055 0.207 0.066 0.043 0.152 0.019 0.195-0.055l1.68-3.09c0.104 0.041 0.217 0.063 0.334 0.063 0.373 0 0.691-0.224 0.834-0.545h3.14c0.16 0 0.285-0.129 0.285-0.285v-0.043c0-0.156-0.125-0.281-0.285-0.281h-3.1c-0.062-0.219-0.2-0.411-0.402-0.533-0.282-0.18-0.635-0.181-0.924-1e-3l-1.2-1.2c-0.055-0.053-0.126-0.078-0.197-0.078zm-10.1 16.1h-3l-1 5h32l-1-5h-2.99v-2.67c0-0.734-0.601-1.33-1.33-1.33l-4.67 4h-3.01v-2.67c0-0.734-0.594-1.33-1.33-1.33l-4.67 4h-3v-2.67c0-0.734-0.594-1.33-1.33-1.33z" style="opacity:.1"/>
 <path d="m9 29-1 5h32l-1-5" style="fill:#4d4d4d"/>
 <path d="m24 8.01c-3.88 0-7 3.12-7 6.99s3.12 6.99 7 6.99c3.88 0 7-3.11 7-6.99s-3.12-6.99-7-6.99zm0 1.52c3.04 0 5.48 2.44 5.48 5.47 0 3.04-2.44 5.48-5.48 5.48-3.04 0-5.48-2.44-5.48-5.48 0-3.03 2.45-5.47 5.48-5.47zm-1.88 3.35c0 0.0619-0.12 0.0322-0.166 0.0781l-0.0039 0.0039c-0.109 0.11-0.109 0.282 0 0.391l1.22 1.22c-0.0621 0.134-0.0905 0.284-0.0801 0.438 0.0146 0.257 0.138 0.486 0.324 0.641l-1.68 3.08c-0.039 0.074-0.0153 0.164 0.0547 0.207 0.066 0.043 0.152 0.0193 0.195-0.0547l1.68-3.09c0.104 0.0408 0.217 0.0625 0.334 0.0625 0.374 0 0.696-0.224 0.838-0.545h3.14c0.16 0 0.285-0.129 0.285-0.285v-0.043c0-0.156-0.125-0.281-0.285-0.281h-3.1c-0.0619-0.219-0.205-0.411-0.408-0.533-0.283-0.18-0.636-0.184-0.926-0.0117l-1.2-1.2c-0.0619-0.0591-0.225-0.158-0.225-0.0781zm-8.79 12.1c-0.73 0-1.33 0.594-1.33 1.33v3.34c0 0.734 0.598 1.33 1.33 1.33h3.34c0.734 0 1.33-0.594 1.33-1.33v-3.34c0-0.734-0.594-1.33-1.33-1.33zm9 0c-0.73 0-1.33 0.594-1.33 1.33v3.34c0 0.734 0.598 1.33 1.33 1.33h3.34c0.734 0 1.33-0.594 1.33-1.33v-3.34c0-0.734-0.594-1.33-1.33-1.33zm9 0c-0.722 0-1.32 0.594-1.32 1.33v3.34c0 0.734 0.593 1.33 1.32 1.33h3.35c0.726 0 1.33-0.594 1.33-1.33v-3.34c0-0.734-0.601-1.33-1.33-1.33z" style="fill:#f9f9f9"/>
 <path d="m40 7.53c3.71 4.08 5.97 9.51 5.97 15.5 0 12.7-10.3 23-23 23-5.95 0-11.4-2.26-15.5-5.97 4.18 4.29 10 6.97 16.5 6.97 12.7 0 23-10.3 23-23 0-6.46-2.68-12.3-6.97-16.5z" style="opacity:.1"/>
</svg>
