<svg version="1.1" viewBox="0 0 48 48" xmlns="http://www.w3.org/2000/svg">
 <defs>
  <linearGradient id="bg" x2="0" y1="1" y2="47" gradientUnits="userSpaceOnUse">
   <stop style="stop-color:#bbefb1" offset="0"/>
   <stop style="stop-color:#aceca0" offset="1"/>
  </linearGradient>
 </defs>
 <path d="m36.31 5c5.859 4.062 9.688 10.831 9.688 18.5 0 12.426-10.07 22.5-22.5 22.5-7.669 0-14.438-3.828-18.5-9.688 1.037 1.822 2.306 3.499 3.781 4.969 4.085 3.712 9.514 5.969 15.469 5.969 12.703 0 23-10.298 23-23 0-5.954-2.256-11.384-5.969-15.469-1.469-1.475-3.147-2.744-4.969-3.781zm4.969 3.781c3.854 4.113 6.219 9.637 6.219 15.719 0 12.703-10.297 23-23 23-6.081 0-11.606-2.364-15.719-6.219 4.16 4.144 9.883 6.719 16.219 6.719 12.703 0 23-10.298 23-23 0-6.335-2.575-12.06-6.719-16.219z" style="opacity:.05"/>
 <path d="m41.28 8.781c3.712 4.085 5.969 9.514 5.969 15.469 0 12.703-10.297 23-23 23-5.954 0-11.384-2.256-15.469-5.969 4.113 3.854 9.637 6.219 15.719 6.219 12.703 0 23-10.298 23-23 0-6.081-2.364-11.606-6.219-15.719z" style="opacity:.1"/>
 <path d="m31.25 2.375c8.615 3.154 14.75 11.417 14.75 21.13 0 12.426-10.07 22.5-22.5 22.5-9.708 0-17.971-6.135-21.12-14.75a23 23 0 0 0 44.875-7 23 23 0 0 0-16-21.875z" style="opacity:.2"/>
 <circle cx="24" cy="24" r="23" style="fill:url(#bg)"/>
 <path d="m40.03 7.531c3.712 4.084 5.969 9.514 5.969 15.469 0 12.703-10.297 23-23 23-5.954 0-11.384-2.256-15.469-5.969 4.178 4.291 10.01 6.969 16.469 6.969 12.703 0 23-10.298 23-23 0-6.462-2.677-12.291-6.969-16.469z" style="opacity:.1"/>
 <path d="m29.482 13a0.50005 0.50005 0 0 0-0.08398 0.0098s-0.85342 0.184-2.1816 0.86719c-0.22026 0.1133-0.40235 0.21858-0.58984 0.32422a8 9.5 0 0 0-1.627-0.20121 8 9.5 0 0 0-8 9.5 8 9.5 0 0 0 5.0801 8.834c0.1909 0.85248 1.1337 4.666 2.9199 4.666 1.7801 0 2.7222-3.7851 2.918-4.6562a8 9.5 0 0 0 5.082-8.8438 8 9.5 0 0 0-5.0977-8.8418c1.0843-0.53186 1.6992-0.66797 1.6992-0.66797a0.50005 0.50005 0 0 0-0.11914-0.99023z" style="opacity:.1"/>
 <path d="m21 31s1 5 3 5 3-5 3-5z" style="fill:#d8a844"/>
 <ellipse cx="24" cy="22.5" rx="8" ry="9.5" style="fill:#e0ba6a;paint-order:stroke fill markers"/>
 <path d="m28.482 12a0.50005 0.50005 0 0 0-0.08398 0.0098s-0.85342 0.184-2.1816 0.86719c-1.2769 0.65678-2.0215 1.2266-2.0215 1.2266a0.50005 0.50005 0 1 0 0.60938 0.79297s0.65935-0.50859 1.8691-1.1309c1.2424-0.63902 1.9277-0.77539 1.9277-0.77539a0.50005 0.50005 0 0 0-0.11914-0.99027z" style="fill:#50311c"/>
 <circle cx="28" cy="20" r="2" style="fill:#f9f9f9"/>
 <circle cx="20" cy="20" r="2" style="fill:#f9f9f9"/>
 <circle cx="20" cy="20" r="1" style="fill:#2d2d2d"/>
 <circle cx="28" cy="20" r="1" style="fill:#2d2d2d"/>
 <path d="m24 21s1 3 1 4c0 2-1 2-1 2s-1 0-1-2c0-1 1-4 1-4z" style="fill:#e8cb8f"/>
 <path d="m19 28s2 2 5 2 5-2 5-2-3 1-5 1-5-1-5-1z" style="fill:#a3221a"/>
 <path d="m19 28s3.3242 0.52542 5 0.52542 5-0.52542 5-0.52542-3.2632 1.4661-5 1.4661-5-1.4661-5-1.4661z" style="fill:#d82d23"/>
</svg>
