<svg xmlns="http://www.w3.org/2000/svg" viewBox="0 0 48 48">
 <defs>
  <linearGradient x2="47" x1="1" gradientTransform="matrix(0,-1,1,0,-1.5e-6,47.999998)" gradientUnits="userSpaceOnUse" id="linearGradient3085">
   <stop style="stop-color:#c94943;stop-opacity:1"/>
   <stop offset="1" style="stop-color:#ce5952;stop-opacity:1"/>
  </linearGradient>
 </defs>
 <path d="m 36.31,5 c 5.859,4.062 9.688,10.831 9.688,18.5 0,12.426 -10.07,22.5 -22.5,22.5 -7.669,0 -14.438,-3.828 -18.5,-9.688 1.037,1.822 2.306,3.499 3.781,4.969 4.085,3.712 9.514,5.969 15.469,5.969 12.703,0 23,-10.298 23,-23 0,-5.954 -2.256,-11.384 -5.969,-15.469 C 39.81,7.306 38.132,6.037 36.31,5 Z m 4.969,3.781 c 3.854,4.113 6.219,9.637 6.219,15.719 0,12.703 -10.297,23 -23,23 -6.081,0 -11.606,-2.364 -15.719,-6.219 4.16,4.144 9.883,6.719 16.219,6.719 12.703,0 23,-10.298 23,-23 0,-6.335 -2.575,-12.06 -6.719,-16.219 z" style="opacity:0.05"/>
 <path d="m 41.28 8.781 c 3.712 4.085 5.969 9.514 5.969 15.469 0 12.703 -10.297 23 -23 23 -5.954 0 -11.384 -2.256 -15.469 -5.969 4.113 3.854 9.637 6.219 15.719 6.219 12.703 0 23 -10.298 23 -23 0 -6.081 -2.364 -11.606 -6.219 -15.719 z" style="opacity:0.1"/>
 <path d="M 31.25,2.375 C 39.865,5.529 46,13.792 46,23.505 c 0,12.426 -10.07,22.5 -22.5,22.5 -9.708,0 -17.971,-6.135 -21.12,-14.75 a 23,23 0 0 0 44.875,-7 23,23 0 0 0 -16,-21.875 z" style="opacity:0.2"/>
 <g transform="translate(1,1)">
  <path d="m 11,11 4.215,6.422 c 1.449,-2.273 7.914,6.871 6.883,-3.121 L 19.938,11 m 5.129,4.543 c -16.711,21.637 -8.355,10.82 0,0 m 0,0 c 0.262,0.195 0.523,0.398 0.762,0.637 3.824,7.762 3.344,16.281 -8.203,10.734 l -6.625,10.08 8.934,0 4.066,-6.188 4.063,6.188 8.941,0 -8.531,-13 8.531,-13 -8.941,0 m -13.05,6.129 4.52,6.887 -2,3.063 c 2.102,1.168 7.391,3.32 9.176,1.535 2.156,-2.16 2.336,-9.926 0.176,-12.09 -0.164,-0.168 -1.539,-0.977 -1.723,-1.117 l -1.227,1.859 -1.844,-2.969 c -3.145,-0.195 -8.813,0.254 -7.07,2.832 m 0,-0.004" style="fill:#000;fill-opacity:1;stroke:none;fill-rule:nonzero"/>
  <path d="m 23.992,12.02 c -0.652,0 -0.965,2.051 -1.078,3.02 -0.023,0.293 -0.047,0.559 -0.047,0.828 l 0,2.902 c -0.008,0.168 -0.039,0.211 -0.137,0.297 l -2.355,1.949 c -0.16,0.105 -0.371,0.102 -0.355,-0.262 l 0,-0.258 c 0,-0.145 -0.117,-0.262 -0.27,-0.262 l -0.336,0 c -0.152,0 -0.273,0.117 -0.273,0.262 l 0,1.52 c 0,0.047 -0.008,0.051 -0.043,0.082 l -2.234,1.887 c -0.227,0.152 -0.313,0.004 -0.324,-0.262 l 0,-0.473 c 0,-0.145 -0.117,-0.262 -0.27,-0.262 l -0.336,0 c -0.152,0 -0.273,0.117 -0.273,0.262 l 0,1.574 c 0,0.02 -0.008,0.023 -0.02,0.031 l -2.395,1.969 c -0.152,0.184 -0.242,0.27 -0.234,0.582 L 13,28.293 c -0.02,0.117 0.102,0.168 0.184,0.129 0,0 4.09,-2.402 5.656,-3.063 1.57,-0.656 3.66,-1.109 3.66,-1.109 0.16,-0.035 0.305,-0.043 0.367,0.121 l 0,6.648 c 0.004,0.793 0.316,1.273 0,1.559 l -2.609,2.414 c -0.156,0.16 -0.25,0.297 -0.266,0.555 l 0.004,0.277 c 0.008,0.125 0.059,0.191 0.18,0.176 l 3.336,-0.777 c 0.086,-0.027 0.156,-0.02 0.219,0.063 l 0.34,0.715 0.418,-0.734 c 0.059,-0.078 0.168,-0.113 0.25,-0.086 1.027,0.23 2.055,0.461 3.086,0.695 0.129,0.016 0.238,0.012 0.254,-0.156 l 0,-0.422 C 28.013,35.009 27.837,34.876 27.653,34.7 l -2.617,-2.121 c -0.246,-0.234 -0.004,-0.734 0.082,-1.535 l 0,-6.57 0.004,0 0,-0.008 0.008,0 c 0,-0.012 0.004,-0.02 0.004,-0.027 0.004,-0.012 0.008,-0.02 0.012,-0.027 0,-0.008 0.004,-0.016 0.008,-0.02 0.004,-0.008 0.004,-0.02 0.008,-0.023 0.004,-0.008 0.016,-0.016 0.02,-0.02 0.004,-0.008 0.008,-0.02 0.016,-0.023 0.004,-0.008 0.008,-0.012 0.016,-0.02 0.004,-0.004 0.012,-0.012 0.016,-0.016 0.008,-0.004 0.012,-0.008 0.02,-0.012 0.008,-0.008 0.016,-0.012 0.023,-0.016 0.008,-0.004 0.012,-0.004 0.02,-0.008 0.012,-0.004 0.02,-0.004 0.027,-0.008 0.012,0 0.02,0 0.027,-0.004 0.012,0 0.023,0 0.031,0 0.012,0 0.023,0.004 0.035,0.004 0.012,0 0.023,0 0.035,0.004 0,0 1.898,0.391 3.5,1.035 1.602,0.645 5.871,3.074 5.871,3.074 0.098,0.02 0.18,0.008 0.191,-0.086 l 0,-0.82 c 0.004,-0.219 -0.141,-0.418 -0.234,-0.504 l -2.34,-1.973 c -0.082,-0.094 -0.105,-0.113 -0.105,-0.168 l 0,-1.559 c 0,-0.145 -0.125,-0.262 -0.27,-0.262 l -0.34,0 c -0.148,0 -0.273,0.117 -0.273,0.262 l 0,0.473 c 0.027,0.281 -0.051,0.387 -0.23,0.254 L 28.913,22.097 C 28.862,22.054 28.85,22.054 28.85,22.011 l 0,-1.516 c 0,-0.145 -0.121,-0.262 -0.273,-0.262 l -0.336,0 c -0.145,0 -0.27,0.117 -0.27,0.262 l 0,0.258 c 0.039,0.363 -0.211,0.434 -0.379,0.262 L 25.248,19.058 C 25.143,18.964 25.135,18.91 25.119,18.777 l 0,-2.91 c -0.008,-0.285 -0.02,-0.609 -0.059,-0.871 -0.137,-1.02 -0.551,-3.219 -1.066,-2.973 m 0,0" style="fill:#000;fill-opacity:1;stroke:none;fill-rule:evenodd"/>
 </g>
 <path d="M 24,1 C 36.703,1 47,11.297 47,24 47,36.703 36.703,47 24,47 11.297,47 1,36.703 1,24 1,11.297 11.297,1 24,1 Z" style="fill:url(#linearGradient3085);fill-opacity:1"/>
 <path d="m 40.03,7.531 c 3.712,4.084 5.969,9.514 5.969,15.469 0,12.703 -10.297,23 -23,23 C 17.045,46 11.615,43.744 7.53,40.031 11.708,44.322 17.54,47 23.999,47 c 12.703,0 23,-10.298 23,-23 0,-6.462 -2.677,-12.291 -6.969,-16.469 z" style="opacity:0.1"/>
 <path d="m 12 38 8.667 0 4.333 -6.5 l 4.333 6.5 8.667 0 -8.667 -13 8.667 -13 -8.667 0 -4.333 6.5 -4.333 -6.5 -8.667 0 l 8.667 13 m -8.667 13" style="fill:#000;fill-opacity:0.098;stroke:none;fill-rule:nonzero"/>
 <path d="m 11 37 8.667 0 4.333 -6.5 l 4.333 6.5 8.667 0 -8.667 -13 8.667 -13 -8.667 0 -4.333 6.5 -4.333 -6.5 -8.667 0 l 8.667 13 m -8.667 13" style="fill:#2d2d2d;fill-opacity:1;stroke:none;fill-rule:nonzero"/>
</svg>
