<?xml version="1.0" encoding="UTF-8"?>
<svg version="1.1" viewBox="0 0 48 48" xmlns="http://www.w3.org/2000/svg">
 <defs>
  <linearGradient id="bg" x2="0" y1="1" y2="47" gradientUnits="userSpaceOnUse">
   <stop style="stop-color:#5486ed" offset="0"/>
   <stop style="stop-color:#4279eb" offset="1"/>
  </linearGradient>
 </defs>
 <path d="m36.3 5c5.86 4.06 9.69 10.8 9.69 18.5 0 12.4-10.1 22.5-22.5 22.5-7.67 0-14.4-3.83-18.5-9.69 1.04 1.82 2.31 3.5 3.78 4.97 4.08 3.71 9.51 5.97 15.5 5.97 12.7 0 23-10.3 23-23 0-5.95-2.26-11.4-5.97-15.5-1.47-1.48-3.15-2.74-4.97-3.78zm4.97 3.78c3.85 4.11 6.22 9.64 6.22 15.7 0 12.7-10.3 23-23 23-6.08 0-11.6-2.36-15.7-6.22 4.16 4.14 9.88 6.72 16.2 6.72 12.7 0 23-10.3 23-23 0-6.34-2.58-12.1-6.72-16.2z" style="opacity:.05"/>
 <path d="m41.3 8.78c3.71 4.08 5.97 9.51 5.97 15.5 0 12.7-10.3 23-23 23-5.95 0-11.4-2.26-15.5-5.97 4.11 3.85 9.64 6.22 15.7 6.22 12.7 0 23-10.3 23-23 0-6.08-2.36-11.6-6.22-15.7z" style="opacity:.1"/>
 <path d="m31.2 2.38c8.62 3.15 14.8 11.4 14.8 21.1 0 12.4-10.1 22.5-22.5 22.5-9.71 0-18-6.14-21.1-14.8a23 23 0 0 0 44.9-7 23 23 0 0 0-16-21.9z" style="opacity:.2"/>
 <circle cx="24" cy="24" r="23" style="fill:url(#bg)"/>
 <path d="m26.5 17.4c-0.619 0.55-0.675 1.5-0.125 2.12 0.55 0.619 1.5 0.675 2.12 0.125l2.5-2.22v14.6l-4.5 0.622 4.5 4c0.568 0.505 1.42 0.505 1.99 0l4.5-4c0.619-0.55 0.675-1.5 0.125-2.12-0.55-0.619-1.5-0.675-2.12-0.125l-2.5 2.22v-15.2l2.5 2.22c0.619 0.55 1.57 0.494 2.12-0.125 0.55-0.619 0.494-1.57-0.125-2.12l-4.5-4zm-14.5-1.38v18c0 0.554 0.446 1 1 1h4c3.32 0 6-2.68 6-6 0-1.54-0.575-2.94-1.52-4 0.947-1.06 1.52-2.46 1.52-4 0-3.32-2.68-6-6-6zm4 3h1c1.11 0 2 0.892 2 2l-3 2zm0 8h1c1.11 0 2 0.892 2 2l-3 2z" style="opacity:.1"/>
 <path d="m40 7.53c3.71 4.08 5.97 9.51 5.97 15.5 0 12.7-10.3 23-23 23-5.95 0-11.4-2.26-15.5-5.97 4.18 4.29 10 6.97 16.5 6.97 12.7 0 23-10.3 23-23 0-6.46-2.68-12.3-6.97-16.5z" style="opacity:.1"/>
 <path d="m31 12c-0.367 1.3e-4 -0.722 0.135-0.996 0.379l-4.5 4c-0.619 0.55-0.675 1.5-0.125 2.12 0.55 0.619 1.5 0.675 2.12 0.125l2.5-2.22v15.2l-2.5-2.22c-0.297-0.264-0.687-0.4-1.08-0.377-0.397 0.0236-0.769 0.204-1.03 0.502-0.55 0.619-0.494 1.57 0.125 2.12l4.5 4c0.568 0.505 1.42 0.505 1.99 0l4.5-4c0.619-0.55 0.675-1.5 0.125-2.12-0.55-0.619-1.5-0.675-2.12-0.125l-2.5 2.22v-15.2l2.5 2.22c0.619 0.55 1.57 0.494 2.12-0.125 0.55-0.619 0.494-1.57-0.125-2.12l-4.5-4c-0.274-0.244-0.629-0.379-0.996-0.379zm-19 2c-0.554 0-1 0.446-1 1v18c0 0.554 0.446 1 1 1h4c3.32 0 6-2.68 6-6 0-1.54-0.575-2.94-1.52-4 0.947-1.06 1.52-2.46 1.52-4 0-3.32-2.68-6-6-6zm3 4h1c1.11 0 2 0.892 2 2s-0.892 2-2 2h-1zm0 8h1c1.11 0 2 0.892 2 2s-0.892 2-2 2h-1z" style="fill:#f9f9f9"/>
</svg>
