<svg xmlns="http://www.w3.org/2000/svg" viewBox="0 0 48 48">
 <defs>
  <linearGradient id="linearGradient3764" y1="47" x2="0" y2="1" gradientUnits="userSpaceOnUse">
   <stop style="stop-color:#242c3a;stop-opacity:1"/>
   <stop offset="1" style="stop-color:#2c3546;stop-opacity:1"/>
  </linearGradient>
 </defs>
 <g>
  <path d="m 36.31 5 c 5.859 4.062 9.688 10.831 9.688 18.5 c 0 12.426 -10.07 22.5 -22.5 22.5 c -7.669 0 -14.438 -3.828 -18.5 -9.688 c 1.037 1.822 2.306 3.499 3.781 4.969 c 4.085 3.712 9.514 5.969 15.469 5.969 c 12.703 0 23 -10.298 23 -23 c 0 -5.954 -2.256 -11.384 -5.969 -15.469 c -1.469 -1.475 -3.147 -2.744 -4.969 -3.781 z m 4.969 3.781 c 3.854 4.113 6.219 9.637 6.219 15.719 c 0 12.703 -10.297 23 -23 23 c -6.081 0 -11.606 -2.364 -15.719 -6.219 c 4.16 4.144 9.883 6.719 16.219 6.719 c 12.703 0 23 -10.298 23 -23 c 0 -6.335 -2.575 -12.06 -6.719 -16.219 z" style="opacity:0.05"/>
  <path d="m 41.28 8.781 c 3.712 4.085 5.969 9.514 5.969 15.469 c 0 12.703 -10.297 23 -23 23 c -5.954 0 -11.384 -2.256 -15.469 -5.969 c 4.113 3.854 9.637 6.219 15.719 6.219 c 12.703 0 23 -10.298 23 -23 c 0 -6.081 -2.364 -11.606 -6.219 -15.719 z" style="opacity:0.1"/>
  <path d="m 31.25 2.375 c 8.615 3.154 14.75 11.417 14.75 21.13 c 0 12.426 -10.07 22.5 -22.5 22.5 c -9.708 0 -17.971 -6.135 -21.12 -14.75 a 23 23 0 0 0 44.875 -7 a 23 23 0 0 0 -16 -21.875 z" style="opacity:0.2"/>
 </g>
 <g>
  <path d="m 24 1 c 12.703 0 23 10.297 23 23 c 0 12.703 -10.297 23 -23 23 -12.703 0 -23 -10.297 -23 -23 0 -12.703 10.297 -23 23 -23 z" style="fill:url(#linearGradient3764);fill-opacity:1"/>
 </g>
 <g>
  <path d="m 40.03 7.531 c 3.712 4.084 5.969 9.514 5.969 15.469 0 12.703 -10.297 23 -23 23 c -5.954 0 -11.384 -2.256 -15.469 -5.969 4.178 4.291 10.01 6.969 16.469 6.969 c 12.703 0 23 -10.298 23 -23 0 -6.462 -2.677 -12.291 -6.969 -16.469 z" style="opacity:0.1"/>
 </g>
 <g transform="matrix(0.77543792,0,0,0.77543792,6.3704945,-772.82914)" style="fill:#000;opacity:0.1;fill-opacity:1">
  <path d="m 17.78 1018.78 c -1.583 -3.611 -4.464 -2.87 -4.471 2.595 -0.004 2.804 0.806 5.13 1.618 7.217 2.819 7.243 8.823 8.716 12.371 5.832 -1.58 0.646 -2.803 0.873 -3.819 0.81 -2.01 -0.124 -3.533 -0.989 -4.373 -1.922 -2.598 -2.885 -4.03 -7.01 -4.095 -10.679 -0.061 -3.416 1.399 -5.419 2.788 -2.526 z" style="stroke:none"/>
  <path d="m 20.559 1012.1 c -0.905 0.072 -1.727 0.734 -2.36 2.159 -1.51 3.399 -0.696 11.336 2.687 19.308 l 1.281 -0.603 c -1.52 -4.237 -2.441 -8.507 -2.26 -11.6 0.403 -6.878 3 -7.192 6.302 -1.732 l 1.506 0.151 c -1.947 -4.241 -4.842 -7.868 -7.156 -7.683 z m 2.159 22.346 -1.155 0.552 c 1.479 3.189 3.335 6.342 5.649 9.164 0.657 0.802 1.267 1.325 1.908 1.481 -2.374 -2.615 -4.678 -6.813 -6.403 -11.198 z" style="stroke:none"/>
  <path d="m 34.903 1026.82 c 3.918 0.435 4.718 -2.431 -0.012 -5.169 -2.427 -1.405 -4.846 -1.867 -7.06 -2.207 -7.682 -1.18 -11.96 3.283 -11.236 7.797 0.231 -1.691 0.646 -2.864 1.208 -3.712 1.111 -1.675 2.623 -2.565 3.851 -2.826 3.797 -0.807 8.08 0.014 11.296 1.793 2.989 1.655 3.993 3.922 0.793 3.677 z" style="stroke:none"/>
  <path d="m 19.395 1037.75 c -2.335 3.176 -0.254 5.301 4.483 2.574 2.43 -1.399 4.04 -3.263 5.441 -5.01 4.863 -6.06 3.136 -11.999 -1.135 -13.629 1.349 1.045 2.158 1.991 2.611 2.903 0.895 1.799 0.91 3.554 0.522 4.748 -1.2 3.692 -4.054 6.994 -7.201 8.886 -2.928 1.761 -5.393 1.498 -3.581 -1.151 z" style="stroke:none"/>
  <path d="m 12.219 1038.69 c 0.515 0.748 1.499 1.129 3.05 0.964 3.699 -0.392 10.165 -5.065 15.378 -11.981 l -1.162 -0.808 c -2.909 3.435 -6.146 6.367 -8.916 7.757 -6.158 3.09 -7.729 0.997 -4.651 -4.592 l -0.623 -1.38 c -2.699 3.807 -4.393 8.128 -3.076 10.04 z m 18.273 -13.04 1.056 0.724 c 2.023 -2.875 3.825 -6.06 5.112 -9.474 0.366 -0.97 0.514 -1.759 0.329 -2.393 -1.077 3.364 -3.561 7.457 -6.497 11.144 z" style="stroke:none"/>
  <path d="m 39.3 1032.57 c 0.39 -0.82 0.228 -1.862 -0.69 -3.124 -2.189 -3.01 -9.469 -6.271 -18.06 -7.327 l -0.118 1.41 c 4.429 0.802 8.587 2.139 11.176 3.843 5.755 3.788 4.729 6.195 -1.651 6.324 l -0.884 1.229 c 4.646 0.434 9.235 -0.259 10.232 -2.355 z m -20.432 -9.303 0.099 -1.276 c -3.501 -0.314 -7.159 -0.283 -10.761 0.31 -1.023 0.168 -1.781 0.435 -2.237 0.912 3.451 -0.749 8.239 -0.645 12.899 0.055 z" style="stroke:none"/>
 </g>
 <g transform="matrix(0.77543792,0,0,0.77543792,5.3704945,-773.82914)">
  <path d="m 17.78 1018.78 c -1.583 -3.611 -4.464 -2.87 -4.471 2.595 -0.004 2.804 0.806 5.13 1.618 7.217 2.819 7.243 8.823 8.716 12.371 5.832 -1.58 0.646 -2.803 0.873 -3.819 0.81 -2.01 -0.124 -3.533 -0.989 -4.373 -1.922 -2.598 -2.885 -4.03 -7.01 -4.095 -10.679 -0.061 -3.416 1.399 -5.419 2.788 -2.526 z" style="fill:#50b5f4;fill-opacity:1;stroke:none"/>
  <path d="m 20.559 1012.1 c -0.905 0.072 -1.727 0.734 -2.36 2.159 -1.51 3.399 -0.696 11.336 2.687 19.308 l 1.281 -0.603 c -1.52 -4.237 -2.441 -8.507 -2.26 -11.6 0.403 -6.878 3 -7.192 6.302 -1.732 l 1.506 0.151 c -1.947 -4.241 -4.842 -7.868 -7.156 -7.683 z m 2.159 22.346 -1.155 0.552 c 1.479 3.189 3.335 6.342 5.649 9.164 0.657 0.802 1.267 1.325 1.908 1.481 -2.374 -2.615 -4.678 -6.813 -6.403 -11.198 z" style="fill:#50b5f4;fill-opacity:1;stroke:none"/>
  <path d="m 34.903 1026.82 c 3.918 0.435 4.718 -2.431 -0.012 -5.169 -2.427 -1.405 -4.846 -1.867 -7.06 -2.207 -7.682 -1.18 -11.96 3.283 -11.236 7.797 0.231 -1.691 0.646 -2.864 1.208 -3.712 1.111 -1.675 2.623 -2.565 3.851 -2.826 3.797 -0.807 8.08 0.014 11.296 1.793 2.989 1.655 3.993 3.922 0.793 3.677 z" style="fill:#50b5f4;fill-opacity:1;stroke:none"/>
  <path d="m 19.395 1037.75 c -2.335 3.176 -0.254 5.301 4.483 2.574 2.43 -1.399 4.04 -3.263 5.441 -5.01 4.863 -6.06 3.136 -11.999 -1.135 -13.629 1.349 1.045 2.158 1.991 2.611 2.903 0.895 1.799 0.91 3.554 0.522 4.748 -1.2 3.692 -4.054 6.994 -7.201 8.886 -2.928 1.761 -5.393 1.498 -3.581 -1.151 z" style="fill:#50b5f4;fill-opacity:1;stroke:none"/>
  <path d="m 12.219 1038.69 c 0.515 0.748 1.499 1.129 3.05 0.964 3.699 -0.392 10.165 -5.065 15.378 -11.981 l -1.162 -0.808 c -2.909 3.435 -6.146 6.367 -8.916 7.757 -6.158 3.09 -7.729 0.997 -4.651 -4.592 l -0.623 -1.38 c -2.699 3.807 -4.393 8.128 -3.076 10.04 z m 18.273 -13.04 1.056 0.724 c 2.023 -2.875 3.825 -6.06 5.112 -9.474 0.366 -0.97 0.514 -1.759 0.329 -2.393 -1.077 3.364 -3.561 7.457 -6.497 11.144 z" style="fill:#50b5f4;fill-opacity:1;stroke:none"/>
  <path d="m 39.3 1032.57 c 0.39 -0.82 0.228 -1.862 -0.69 -3.124 -2.189 -3.01 -9.469 -6.271 -18.06 -7.327 l -0.118 1.41 c 4.429 0.802 8.587 2.139 11.176 3.843 5.755 3.788 4.729 6.195 -1.651 6.324 l -0.884 1.229 c 4.646 0.434 9.235 -0.259 10.232 -2.355 z m -20.432 -9.303 0.099 -1.276 c -3.501 -0.314 -7.159 -0.283 -10.761 0.31 -1.023 0.168 -1.781 0.435 -2.237 0.912 3.451 -0.749 8.239 -0.645 12.899 0.055 z" style="fill:#50b5f4;fill-opacity:1;stroke:none"/>
 </g>
</svg>
