<svg version="1.1" viewBox="0 0 48 48" xmlns="http://www.w3.org/2000/svg">
 <defs>
  <linearGradient id="bg" x2="0" y1="47" y2="1" gradientUnits="userSpaceOnUse">
   <stop style="stop-color:#3b4154" offset="0"/>
   <stop style="stop-color:#434a60" offset="1"/>
  </linearGradient>
 </defs>
 <path d="m36.3 5c5.86 4.06 9.69 10.8 9.69 18.5 0 12.4-10.1 22.5-22.5 22.5-7.67 0-14.4-3.83-18.5-9.69 1.04 1.82 2.31 3.5 3.78 4.97 4.08 3.71 9.51 5.97 15.5 5.97 12.7 0 23-10.3 23-23 0-5.95-2.26-11.4-5.97-15.5-1.47-1.48-3.15-2.74-4.97-3.78zm4.97 3.78c3.85 4.11 6.22 9.64 6.22 15.7 0 12.7-10.3 23-23 23-6.08 0-11.6-2.36-15.7-6.22 4.16 4.14 9.88 6.72 16.2 6.72 12.7 0 23-10.3 23-23 0-6.34-2.58-12.1-6.72-16.2z" style="opacity:.05"/>
 <path d="m41.3 8.78c3.71 4.08 5.97 9.51 5.97 15.5 0 12.7-10.3 23-23 23-5.95 0-11.4-2.26-15.5-5.97 4.11 3.85 9.64 6.22 15.7 6.22 12.7 0 23-10.3 23-23 0-6.08-2.36-11.6-6.22-15.7z" style="opacity:.1"/>
 <path d="m31.2 2.38c8.62 3.15 14.8 11.4 14.8 21.1 0 12.4-10.1 22.5-22.5 22.5-9.71 0-18-6.14-21.1-14.8a23 23 0 0 0 44.9-7 23 23 0 0 0-16-21.9z" style="opacity:.2"/>
 <path d="m24 1c12.7 0 23 10.3 23 23s-10.3 23-23 23-23-10.3-23-23 10.3-23 23-23z" style="fill:url(#bg)"/>
 <path d="m40 7.53c3.71 4.08 5.97 9.51 5.97 15.5 0 12.7-10.3 23-23 23-5.95 0-11.4-2.26-15.5-5.97 4.18 4.29 10 6.97 16.5 6.97 12.7 0 23-10.3 23-23 0-6.46-2.68-12.3-6.97-16.5z" style="opacity:.1"/>
 <path d="m22.5 12c-0.0569-0.00122-0.114 0.00138-0.17 0.00586-0.702 0.0558-1.34 0.569-1.83 1.67-0.334 0.753-0.517 1.8-0.553 3.04-1.26-2.26-3.23-1.51-3.24 2.47-1.64e-4 0.116 0.00255 0.23 0.00586 0.344-1.32 0.0406-2.65 0.158-3.96 0.375-0.793 0.13-1.38 0.337-1.73 0.707 1.62-0.351 3.62-0.457 5.74-0.369 0.158 1.71 0.68 3.19 1.21 4.54 0.0382 0.0981 0.0795 0.192 0.119 0.287-1.99 2.89-3.21 6.1-2.22 7.54 0.399 0.58 1.16 0.874 2.37 0.746 0.819-0.0868 1.82-0.452 2.91-1.04-1.32 2.21 0.31 3.55 3.76 1.56 0.111-0.064 0.219-0.129 0.326-0.195 0.683 1.1 1.43 2.16 2.26 3.17 0.509 0.622 0.981 1.03 1.48 1.15-1.1-1.21-2.17-2.86-3.15-4.71 1.39-0.99 2.4-2.17 3.3-3.3 0.0722-0.09 0.139-0.18 0.207-0.27 3.46 0.262 6.79-0.292 7.54-1.86h-0.00391c0.302-0.636 0.177-1.45-0.535-2.42-0.485-0.667-1.3-1.35-2.37-2 2.59 0.0428 2.93-2.04-0.52-4.04-0.0829-0.048-0.165-0.0935-0.248-0.139 0.609-1.14 1.16-2.32 1.62-3.55 0.284-0.752 0.397-1.36 0.254-1.86-0.498 1.55-1.39 3.31-2.51 5.08-1.58-0.74-3.15-1.03-4.6-1.25-0.0779-0.012-0.154-0.0188-0.23-0.0293-1.46-3.06-3.53-5.63-5.24-5.67zm1.09 2.91c0.798-0.0437 1.81 0.869 2.94 2.66-1.89-0.0728-3.46 0.328-4.65 1.03 0.219-2.42 0.833-3.64 1.71-3.68zm-4.48 2.23c0.261-0.0128 0.549 0.186 0.84 0.643 0.0198 0.575 0.0691 1.18 0.145 1.82-0.678-0.0434-1.36-0.0686-2.05-0.0742 0.0828-1.39 0.513-2.36 1.07-2.39zm6.33 1.3c2.26-0.02 4.56 0.581 6.42 1.59-0.362 0.532-0.737 1.06-1.13 1.58-0.552-1-1.42-1.76-2.49-2.17 1.04 0.807 1.67 1.54 2.02 2.24-2.29-0.858-5.01-1.55-7.94-1.91l-0.0918 1.09c3.41 0.617 6.61 1.64 8.62 2.95 0.035 0.585-0.0364 1.12-0.178 1.55-0.911 2.8-3.05 5.31-5.43 6.79-0.28-0.58-0.55-1.17-0.807-1.78 1.14 0.0204 2.23-0.347 3.12-1.07-1.22 0.499-2.17 0.674-2.95 0.627 1.86-1.54 3.8-3.54 5.55-5.86l-0.9-0.627c-2.21 2.61-4.66 4.83-6.77 5.94-0.534-0.264-0.965-0.597-1.28-0.941-1.98-2.2-3.08-5.32-3.17-8.12 0.614 0.0468 1.23 0.107 1.85 0.184-0.586 0.976-0.812 2.1-0.631 3.23 0.179-1.31 0.502-2.22 0.938-2.88 0.0213-0.0321 0.0428-0.0624 0.0645-0.0938 0.398 2.42 1.17 5.15 2.33 7.88l0.994-0.469c-1.17-3.26-1.88-6.54-1.76-8.93 0.465-0.295 0.933-0.484 1.36-0.574 0.736-0.156 1.5-0.233 2.26-0.24zm7.11 2.01c1.67 1.12 2.17 2.41 0.506 2.49-0.489-0.261-1.02-0.514-1.58-0.758 0.373-0.562 0.733-1.14 1.08-1.73zm-1.15 3.76c3.76 2.65 3 4.35-1.38 4.54 0.988-1.6 1.41-3.16 1.38-4.54zm-12.8 1.97c0.903 1.69 2.06 2.85 3.29 3.51-4.29 2.01-5.4 0.475-3.29-3.51zm4.99 4.57c0.303 0.608 0.624 1.21 0.965 1.81-1.85 0.937-3.27 0.743-2.49-0.758 0.496-0.31 1.01-0.662 1.53-1.05z" style="opacity:.1"/>
 <path d="m19.2 16.2c-1.23-2.8-3.46-2.23-3.47 2.01-0.0031 2.17 0.625 3.98 1.25 5.6 2.19 5.62 6.84 6.76 9.59 4.52-1.23 0.501-2.17 0.677-2.96 0.628-1.56-0.0962-2.74-0.767-3.39-1.49-2.01-2.24-3.13-5.44-3.18-8.28-0.0473-2.65 1.08-4.2 2.16-1.96z" style="fill:#50b5f4"/>
 <path d="m21.3 11c-0.702 0.0558-1.34 0.569-1.83 1.67-1.17 2.64-0.54 8.79 2.08 15l0.993-0.468c-1.18-3.29-1.89-6.6-1.75-9 0.313-5.33 2.33-5.58 4.89-1.34l1.17 0.117c-1.51-3.29-3.75-6.1-5.55-5.96zm1.67 17.3-0.896 0.428c1.15 2.47 2.59 4.92 4.38 7.11 0.509 0.622 0.982 1.03 1.48 1.15-1.84-2.03-3.63-5.28-4.97-8.68z" style="fill:#50b5f4"/>
 <path d="m32.4 22.4c3.04 0.337 3.66-1.89-0.0093-4.01-1.88-1.09-3.76-1.45-5.47-1.71-5.96-0.915-9.27 2.55-8.71 6.05 0.179-1.31 0.501-2.22 0.937-2.88 0.862-1.3 2.03-1.99 2.99-2.19 2.94-0.626 6.27 0.0109 8.76 1.39 2.32 1.28 3.1 3.04 0.615 2.85z" style="fill:#50b5f4"/>
 <path d="m20.4 30.9c-1.81 2.46-0.197 4.11 3.48 2 1.88-1.08 3.13-2.53 4.22-3.88 3.77-4.7 2.43-9.3-0.88-10.6 1.05 0.81 1.67 1.54 2.02 2.25 0.694 1.4 0.706 2.76 0.405 3.68-0.931 2.86-3.14 5.42-5.58 6.89-2.27 1.37-4.18 1.16-2.78-0.893z" style="fill:#50b5f4"/>
 <path d="m14.8 31.6c0.399 0.58 1.16 0.875 2.37 0.748 2.87-0.304 7.88-3.93 11.9-9.29l-0.901-0.627c-2.26 2.66-4.77 4.94-6.91 6.02-4.78 2.4-5.99 0.773-3.61-3.56l-0.483-1.07c-2.09 2.95-3.41 6.3-2.39 7.79zm14.2-10.1 0.819 0.561c1.57-2.23 2.97-4.7 3.96-7.35 0.284-0.752 0.399-1.36 0.255-1.86-0.835 2.61-2.76 5.78-5.04 8.64z" style="fill:#50b5f4"/>
 <path d="m35.8 26.9c0.302-0.636 0.177-1.44-0.535-2.42-1.7-2.33-7.34-4.86-14-5.68l-0.0915 1.09c3.43 0.622 6.66 1.66 8.67 2.98 4.46 2.94 3.67 4.8-1.28 4.9l-0.685 0.953c3.6 0.337 7.16-0.201 7.93-1.83zm-15.8-7.21 0.0768-0.989c-2.71-0.243-5.55-0.219-8.34 0.24-0.793 0.13-1.38 0.337-1.73 0.707 2.68-0.581 6.39-0.5 10 0.0426z" style="fill:#50b5f4"/>
</svg>
