<svg version="1.1" viewBox="0 0 48 48" xmlns="http://www.w3.org/2000/svg">
 <defs>
  <linearGradient id="bg" x2="0" y1="1" y2="47" gradientUnits="userSpaceOnUse">
   <stop style="stop-color:#165997" offset="0"/>
   <stop style="stop-color:#145087" offset="1"/>
  </linearGradient>
 </defs>
 <path d="m36.3 5c5.86 4.06 9.69 10.8 9.69 18.5 0 12.4-10.1 22.5-22.5 22.5-7.67 0-14.4-3.83-18.5-9.69 1.04 1.82 2.31 3.5 3.78 4.97 4.08 3.71 9.51 5.97 15.5 5.97 12.7 0 23-10.3 23-23 0-5.95-2.26-11.4-5.97-15.5-1.47-1.48-3.15-2.74-4.97-3.78zm4.97 3.78c3.85 4.11 6.22 9.64 6.22 15.7 0 12.7-10.3 23-23 23-6.08 0-11.6-2.36-15.7-6.22 4.16 4.14 9.88 6.72 16.2 6.72 12.7 0 23-10.3 23-23 0-6.34-2.58-12.1-6.72-16.2z" style="opacity:.05"/>
 <path d="m41.3 8.78c3.71 4.08 5.97 9.51 5.97 15.5 0 12.7-10.3 23-23 23-5.95 0-11.4-2.26-15.5-5.97 4.11 3.85 9.64 6.22 15.7 6.22 12.7 0 23-10.3 23-23 0-6.08-2.36-11.6-6.22-15.7z" style="opacity:.1"/>
 <path d="m31.2 2.38c8.62 3.15 14.8 11.4 14.8 21.1 0 12.4-10.1 22.5-22.5 22.5-9.71 0-18-6.14-21.1-14.8a23 23 0 0044.9-7 23 23 0 00-16-21.9z" style="opacity:.2"/>
 <circle cx="24" cy="24" r="23" style="fill:url(#bg)"/>
 <path d="m40 7.53c3.71 4.08 5.97 9.51 5.97 15.5 0 12.7-10.3 23-23 23-5.95 0-11.4-2.26-15.5-5.97 4.18 4.29 10 6.97 16.5 6.97 12.7 0 23-10.3 23-23 0-6.46-2.68-12.3-6.97-16.5z" style="opacity:.1"/>
 <path d="m29 11c-3.23-.007-7.12 2.35-10.1 7.38-1.44 2.44-1.16 5.28.535 6.27 1.69.997 4.15-.22 5.59-2.66 1.89-3.22 4.04-7.02 5.79-5.99.772.455 1.27 1.86 1.16 3.47.627.164 1.04.459 1.6.863.745-4.11.574-7.08-1.62-8.55-.875-.516-1.88-.783-2.96-.785zm1.82 9c-.508-.008-.993.106-1.42.352-1.72.981-1.9 3.72-.524 6.17 1.82 3.23 3.79 7.26 2.01 8.28-.871.496-2.51-.282-4.29-1.6-.21.207-.436.401-.682.572-.289.201-.602.381-.934.535 3.36 2.93 6.36 4.52 8.86 3.27 3.57-2.03 4.29-8.93 1.16-14.6-1.02-1.85-2.65-2.95-4.17-2.97zm-13.7.176c-4.13 1.39-6.95 3.11-7.1 5.82 0 4 4.41 7.85 12 8 2.76.0548 5-1.57 5-3.5 0-1.93-2.24-3.45-5-3.5-3.64-.0619-8-2e-5-8-2 0-.944 1.19-2.01 3.07-2.84-.0186-.116-.034-.234-.0449-.352-.0489-.529-.0221-1.08.0742-1.63z" style="opacity:.1"/>
 <path d="m28 10c-3.23-.007-7.12 2.35-10.1 7.38-1.44 2.44-1.16 5.28.535 6.27 1.69.997 4.15-.22 5.59-2.66 1.89-3.22 4.04-7.02 5.79-5.99.772.455 1.27 1.86 1.16 3.47.627.164 1.04.459 1.6.863.745-4.11.574-7.08-1.62-8.55-.875-.516-1.88-.783-2.96-.785zm1.82 9c-.508-.008-.993.106-1.42.352-1.72.981-1.9 3.72-.524 6.17 1.82 3.23 3.79 7.26 2.01 8.28-.871.496-2.51-.282-4.29-1.6-.21.207-.436.401-.682.572-.289.201-.602.381-.934.535 3.36 2.93 6.36 4.52 8.86 3.27 3.57-2.03 4.29-8.93 1.16-14.6-1.02-1.85-2.65-2.95-4.17-2.97zm-13.7.176c-4.13 1.39-6.95 3.11-7.1 5.82 0 4 4.41 7.85 12 8 2.76.0548 5-1.57 5-3.5 0-1.93-2.24-3.45-5-3.5-3.64-.0619-8-2e-5-8-2 0-.944 1.19-2.01 3.07-2.84-.0186-.116-.034-.234-.0449-.352-.0489-.529-.0221-1.08.0742-1.63z" style="fill:#99c1e5"/>
</svg>
