<svg xmlns="http://www.w3.org/2000/svg" viewBox="0 0 48 48">
 <defs>
  <linearGradient id="linearGradient3764" x1="1" x2="47" gradientUnits="userSpaceOnUse" gradientTransform="matrix(0,-1,1,0,-1.5e-6,47.999998)">
   <stop style="stop-color:#e4e4e4;stop-opacity:1"/>
   <stop offset="1" style="stop-color:#eee;stop-opacity:1"/>
  </linearGradient>
 </defs>
 <g>
  <path d="m 36.31 5 c 5.859 4.062 9.688 10.831 9.688 18.5 c 0 12.426 -10.07 22.5 -22.5 22.5 c -7.669 0 -14.438 -3.828 -18.5 -9.688 c 1.037 1.822 2.306 3.499 3.781 4.969 c 4.085 3.712 9.514 5.969 15.469 5.969 c 12.703 0 23 -10.298 23 -23 c 0 -5.954 -2.256 -11.384 -5.969 -15.469 c -1.469 -1.475 -3.147 -2.744 -4.969 -3.781 z m 4.969 3.781 c 3.854 4.113 6.219 9.637 6.219 15.719 c 0 12.703 -10.297 23 -23 23 c -6.081 0 -11.606 -2.364 -15.719 -6.219 c 4.16 4.144 9.883 6.719 16.219 6.719 c 12.703 0 23 -10.298 23 -23 c 0 -6.335 -2.575 -12.06 -6.719 -16.219 z" style="opacity:0.05"/>
  <path d="m 41.28 8.781 c 3.712 4.085 5.969 9.514 5.969 15.469 c 0 12.703 -10.297 23 -23 23 c -5.954 0 -11.384 -2.256 -15.469 -5.969 c 4.113 3.854 9.637 6.219 15.719 6.219 c 12.703 0 23 -10.298 23 -23 c 0 -6.081 -2.364 -11.606 -6.219 -15.719 z" style="opacity:0.1"/>
  <path d="m 31.25 2.375 c 8.615 3.154 14.75 11.417 14.75 21.13 c 0 12.426 -10.07 22.5 -22.5 22.5 c -9.708 0 -17.971 -6.135 -21.12 -14.75 a 23 23 0 0 0 44.875 -7 a 23 23 0 0 0 -16 -21.875 z" style="opacity:0.2"/>
 </g>
 <g>
  <path d="m 24 1 c 12.703 0 23 10.297 23 23 c 0 12.703 -10.297 23 -23 23 -12.703 0 -23 -10.297 -23 -23 0 -12.703 10.297 -23 23 -23 z" style="fill:url(#linearGradient3764);fill-opacity:1"/>
 </g>
 <g>
  <path d="m 40.03 7.531 c 3.712 4.084 5.969 9.514 5.969 15.469 0 12.703 -10.297 23 -23 23 c -5.954 0 -11.384 -2.256 -15.469 -5.969 4.178 4.291 10.01 6.969 16.469 6.969 c 12.703 0 23 -10.298 23 -23 0 -6.462 -2.677 -12.291 -6.969 -16.469 z" style="opacity:0.1"/>
 </g>
 <path d="m 21 12 0 9.764 c -0.895 -2.369 -3.464 -5.178 -5.03 -5.178 -8.562 0 -1.591 24.12 5.03 17.352 l 0 2.063 3.998 2 0.002 0 3.998 -2 0 -2.063 c 6.62 6.769 13.592 -17.351 5.03 -17.352 -1.566 0 -4.134 2.809 -5.03 5.178 l 0 -9.764 -3.998 2.066 -0.002 0 l -3.998 -2.066 m -3.76 9.65 c 1.805 -0.039 3.092 3.02 3.191 5.373 0.057 1.344 0.134 2.935 -0.779 3.953 -0.826 0.721 -1.552 -0.138 -2.135 -0.838 -1.258 -1.655 -1.892 -4.12 -1.785 -6.258 0.072 -0.99 0.478 -2.208 1.508 -2.23 z m 15.52 0 c 1.03 0.022 1.434 1.241 1.506 2.23 0.107 2.138 -0.528 4.603 -1.785 6.258 -0.583 0.7 -1.306 1.559 -2.133 0.838 -0.913 -1.018 -0.836 -2.609 -0.779 -3.953 0.1 -2.353 1.387 -5.412 3.191 -5.373 z" style="fill:#000;fill-opacity:0.098;stroke:none"/>
 <path d="m 28 11 -4 2.066 0 23.934 4 -2 0 -2.063 c 6.62 6.769 13.592 -17.351 5.03 -17.352 -1.566 0 -4.135 2.809 -5.03 5.178 m 3.761 -0.113 c 1.03 0.022 1.434 1.241 1.506 2.23 0.107 2.138 -0.527 4.603 -1.785 6.258 -0.583 0.7 -1.307 1.559 -2.134 0.838 -0.913 -1.018 -0.836 -2.609 -0.779 -3.953 0.1 -2.353 1.387 -5.412 3.192 -5.373 z" style="fill:#2a7dda;fill-opacity:1;stroke:none"/>
 <path d="m 20 11 4 2.066 0 23.934 -4 -2 0 -2.063 c -6.62 6.769 -13.592 -17.351 -5.03 -17.352 c 1.566 0 4.135 2.809 5.03 5.178 z m -3.761 9.65 c -1.03 0.022 -1.434 1.241 -1.506 2.23 -0.107 2.138 0.527 4.603 1.785 6.258 0.583 0.7 1.307 1.559 2.134 0.838 0.913 -1.018 0.836 -2.609 0.779 -3.953 -0.1 -2.353 -1.387 -5.412 -3.192 -5.373 z" style="fill:#e63232;fill-opacity:1;stroke:none"/>
</svg>
