<svg version="1.1" viewBox="0 0 48 48" xmlns="http://www.w3.org/2000/svg">
 <defs>
  <linearGradient id="bg" x1="1" x2="47" gradientTransform="matrix(0 -1 1 0 -1.5e-6 48)" gradientUnits="userSpaceOnUse">
   <stop style="stop-color:#e4e4e4" offset="0"/>
   <stop style="stop-color:#eee" offset="1"/>
  </linearGradient>
 </defs>
 <path d="m36.31 5c5.859 4.062 9.688 10.831 9.688 18.5 0 12.426-10.07 22.5-22.5 22.5-7.669 0-14.438-3.828-18.5-9.688 1.037 1.822 2.306 3.499 3.781 4.969 4.085 3.712 9.514 5.969 15.469 5.969 12.703 0 23-10.298 23-23 0-5.954-2.256-11.384-5.969-15.469-1.469-1.475-3.147-2.744-4.969-3.781zm4.969 3.781c3.854 4.113 6.219 9.637 6.219 15.719 0 12.703-10.297 23-23 23-6.081 0-11.606-2.364-15.719-6.219 4.16 4.144 9.883 6.719 16.219 6.719 12.703 0 23-10.298 23-23 0-6.335-2.575-12.06-6.719-16.219z" style="opacity:.05"/>
 <path d="m41.28 8.781c3.712 4.085 5.969 9.514 5.969 15.469 0 12.703-10.297 23-23 23-5.954 0-11.384-2.256-15.469-5.969 4.113 3.854 9.637 6.219 15.719 6.219 12.703 0 23-10.298 23-23 0-6.081-2.364-11.606-6.219-15.719z" style="opacity:.1"/>
 <path d="m31.25 2.375c8.615 3.154 14.75 11.417 14.75 21.13 0 12.426-10.07 22.5-22.5 22.5-9.708 0-17.971-6.135-21.12-14.75a23 23 0 0 0 44.875-7 23 23 0 0 0-16-21.875z" style="opacity:.2"/>
 <path d="m24 1c12.703 0 23 10.297 23 23s-10.297 23-23 23-23-10.297-23-23 10.297-23 23-23z" style="fill:url(#bg)"/>
 <path d="m40.03 7.531c3.712 4.084 5.969 9.514 5.969 15.469 0 12.703-10.297 23-23 23-5.954 0-11.384-2.256-15.469-5.969 4.178 4.291 10.01 6.969 16.469 6.969 12.703 0 23-10.298 23-23 0-6.462-2.677-12.291-6.969-16.469z" style="opacity:.1"/>
 <path d="m21 22c-1-3-3.4246-5-5-5-2.7614 0-4 2-4 6 0 6 3 12 6.5 12 1.007 0 1.8502-0.33078 2.5-1.0488v2.0488l4 2 4-2v-2.0488c0.64982 0.71805 1.493 1.0488 2.5 1.0488 3.5 0 6.5-6 6.5-12 0-4-1.2386-6-4-6-1.5754 0-4 2-5 5v-10l-4 2zm-3.5 0c1.3807 0 3.5 2.5 3.5 6 0 2-1 3-2 3-2 0-3-4-3-6 0-2.4853 0.5-3 1.5-3zm15 0c1 0 1.5 0.51472 1.5 3 0 2-1 6-3 6-1 0-2-1-2-3 0-3.5 2.1193-6 3.5-6z" style="opacity:.1"/>
 <path d="m20 11v10c-1-3-3.4246-5-5-5-2.7614 0-4 2-4 6 0 6 3 12 6.5 12 1.007 0 1.8502-0.33078 2.5-1.0488v2.0488l4 2 1-12-1-12zm-3.5 10c1.3807 0 3.5 2.5 3.5 6 0 2-1 3-2 3-2 0-3-4-3-6 0-2.4853 0.5-3 1.5-3z" style="fill:#e63232"/>
 <path d="m28 11v10c1-3 3.4246-5 5-5 2.7614 0 4 2 4 6 0 6-3 12-6.5 12-1.007 0-1.8502-0.33078-2.5-1.0488v2.0488l-4 2v-24zm3.5 10c-1.3807 0-3.5 2.5-3.5 6 0 2 1 3 2 3 2 0 3-4 3-6 0-2.4853-0.5-3-1.5-3z" style="fill:#2a7dda"/>
</svg>
