<svg xmlns="http://www.w3.org/2000/svg" viewBox="0 0 48 48">
 <defs>
  <linearGradient id="linearGradient3764" x1="1" x2="47" gradientUnits="userSpaceOnUse" gradientTransform="matrix(0,-1,1,0,-1.5e-6,47.999998)">
   <stop style="stop-color:#69c4df;stop-opacity:1"/>
   <stop offset="1" style="stop-color:#79cbe2;stop-opacity:1"/>
  </linearGradient>
  <linearGradient id="linearGradient4230" y1="47" x2="0" y2="1" gradientUnits="userSpaceOnUse">
   <stop style="stop-color:#86c8de;stop-opacity:1"/>
   <stop offset="1" style="stop-color:#96cfe2;stop-opacity:1"/>
  </linearGradient>
 </defs>
 <g>
  <path d="m 36.31 5 c 5.859 4.062 9.688 10.831 9.688 18.5 c 0 12.426 -10.07 22.5 -22.5 22.5 c -7.669 0 -14.438 -3.828 -18.5 -9.688 c 1.037 1.822 2.306 3.499 3.781 4.969 c 4.085 3.712 9.514 5.969 15.469 5.969 c 12.703 0 23 -10.298 23 -23 c 0 -5.954 -2.256 -11.384 -5.969 -15.469 c -1.469 -1.475 -3.147 -2.744 -4.969 -3.781 z m 4.969 3.781 c 3.854 4.113 6.219 9.637 6.219 15.719 c 0 12.703 -10.297 23 -23 23 c -6.081 0 -11.606 -2.364 -15.719 -6.219 c 4.16 4.144 9.883 6.719 16.219 6.719 c 12.703 0 23 -10.298 23 -23 c 0 -6.335 -2.575 -12.06 -6.719 -16.219 z" style="opacity:0.05"/>
  <path d="m 41.28 8.781 c 3.712 4.085 5.969 9.514 5.969 15.469 c 0 12.703 -10.297 23 -23 23 c -5.954 0 -11.384 -2.256 -15.469 -5.969 c 4.113 3.854 9.637 6.219 15.719 6.219 c 12.703 0 23 -10.298 23 -23 c 0 -6.081 -2.364 -11.606 -6.219 -15.719 z" style="opacity:0.1"/>
  <path d="m 31.25 2.375 c 8.615 3.154 14.75 11.417 14.75 21.13 c 0 12.426 -10.07 22.5 -22.5 22.5 c -9.708 0 -17.971 -6.135 -21.12 -14.75 a 23 23 0 0 0 44.875 -7 a 23 23 0 0 0 -16 -21.875 z" style="opacity:0.2"/>
 </g>
 <g>
  <path d="m 24 1 c -12.703 0 -23 10.297 -23 23 0 3.359 0.725 6.547 2.02 9.424 21.98 5.576 21.98 5.576 41.969 -0.018 1.289 -2.872 2.01 -6.05 2.01 -9.406 0 -12.703 -10.297 -23 -23 -23" style="fill:url(#linearGradient3764);fill-opacity:1"/>
  <path d="m 23.531 31.28 c -9.101 0 -15.67 0.854 -20.512 2.145 c 3.6 8 11.637 13.576 20.98 13.576 c 9.351 0 17.392 -5.583 20.988 -13.594 c -5 -1.276 -11.87 -2.127 -21.457 -2.127 z" style="fill:url(#linearGradient4230);fill-opacity:1"/>
 </g>
 <g>
  <g>
   <g transform="translate(1,1)">
    <g style="opacity:0.1">
     <!-- color: #79cbe2 -->
     <g>
      <path d="m 14.93 11.01 c -0.249 0.012 -0.502 0.051 -0.758 0.119 c -2.043 0.543 -3.441 2.719 -3.121 4.859 c 0.32 2.141 2.238 3.438 4.285 2.891 c 2.043 -0.543 3.439 -2.719 3.119 -4.859 c -0.28 -1.873 -1.783 -3.097 -3.525 -3.01 z m 17.648 0 c -1.743 -0.087 -3.247 1.136 -3.527 3.01 c -0.32 2.14 1.078 4.316 3.125 4.859 c 2.043 0.547 3.961 -0.75 4.281 -2.891 c 0.324 -2.14 -1.074 -4.316 -3.121 -4.859 c -0.256 -0.068 -0.509 -0.107 -0.758 -0.119 z m -7.395 8.977 l -0.004 0.002 c -0.093 -0.003 -0.167 0.013 -0.23 0.021 l 0 0.021 c -0.421 -0.032 -1.229 0.058 -2.887 1.627 c -1.949 1.828 -2.066 3.543 -2.066 3.543 l 0.002 0.021 c 0 0 0.371 0.22 0.965 0.467 c 0.178 0.344 0.57 0.877 1.576 1.463 c 1.43 0.832 2.127 0.867 2.471 0.844 l 0.004 0 c 0.043 0.004 0.086 0.008 0.141 0.008 c 0.387 -0.008 1.077 -0.133 2.307 -0.848 c 1.051 -0.613 1.439 -1.172 1.604 -1.512 c 0.575 -0.241 0.934 -0.453 0.934 -0.453 c 0 0 -0.115 -1.699 -2.068 -3.543 c -1.465 -1.387 -2.289 -1.634 -2.75 -1.646 l 0.004 -0.016 z" transform="translate(-1,-1)"/>
     </g>
    </g>
   </g>
  </g>
 </g>
 <g>
  <g>
   <!-- color: #79cbe2 -->
   <g>
    <path d="m 24.02 23.566 0 0.004 c 0.086 0.008 1.148 0.094 2.332 0.285 1.137 0.184 1.848 0.457 1.848 0.457 0 0 -0.102 0.887 -1.738 1.84 -1.23 0.715 -1.918 0.84 -2.305 0.848 -0.055 0 -0.098 -0.004 -0.141 -0.008 0 0 -0.004 0 -0.004 0 -0.344 0.023 -1.039 -0.012 -2.469 -0.844 -1.637 -0.953 -1.734 -1.836 -1.734 -1.836 0 0 0.707 -0.277 1.844 -0.457 1.184 -0.191 2.246 -0.281 2.332 -0.289 l 0 -0.004 c 0 0 0.016 0 0.016 0 0 0 0.016 0 0.016 0 m 0.004 0.004" style="fill:#c17d11;fill-opacity:1;stroke:none;fill-rule:nonzero"/>
    <path d="m 19 24.2 c 0 0 0.117 -1.715 2.066 -3.543 1.949 -1.844 2.758 -1.656 3.098 -1.613 0.34 0.047 -0.082 2.332 -0.082 2.332 l -0.066 4.289 c 0 0 -1.344 -0.176 -2.816 -0.559 -1.352 -0.352 -2.199 -0.887 -2.199 -0.887 m 0 -0.02" style="fill:#fbd61e;fill-opacity:1;stroke:none;fill-rule:nonzero"/>
    <path d="m 24.18 19 c 0.461 0.012 1.285 0.258 2.75 1.645 1.953 1.844 2.07 3.543 2.07 3.543 0 0 -0.848 0.535 -2.203 0.887 -1.469 0.383 -2.816 0.559 -2.816 0.559 l -0.027 -1.789 0 -4.84 c 0.063 -0.008 0.137 -0.023 0.23 -0.02 m -0.004 0.016" style="fill:#eaaa16;fill-opacity:1;stroke:none;fill-rule:nonzero"/>
    <path d="m 10.05 14.984 c 0.32 2.141 2.238 3.438 4.285 2.891 2.043 -0.543 3.441 -2.719 3.121 -4.859 -0.32 -2.141 -2.238 -3.434 -4.285 -2.891 -2.043 0.543 -3.441 2.719 -3.121 4.859 m 0 0" style="fill:#192028;fill-opacity:1;stroke:none;fill-rule:evenodd"/>
    <path d="m 13.805 13.176 c -0.59 0.426 -1.285 0.465 -1.551 0.086 -0.27 -0.379 -0.008 -1.031 0.582 -1.457 0.59 -0.426 1.281 -0.465 1.551 -0.09 0.266 0.379 0.008 1.031 -0.582 1.461 m 0 0" style="fill:#fff;fill-opacity:0.765;stroke:none;fill-rule:evenodd"/>
    <path d="m 11.434 12.84 c -0.324 0.535 -0.477 1.16 -0.387 1.777 0.207 1.359 1.523 2.156 2.941 1.781 1.418 -0.379 2.402 -1.785 2.195 -3.148 -0.082 -0.555 -0.352 -1.02 -0.738 -1.348 0.703 0.379 1.211 1.059 1.344 1.926 0.242 1.637 -0.941 3.332 -2.645 3.781 -1.707 0.453 -3.285 -0.504 -3.531 -2.141 -0.141 -0.938 0.191 -1.898 0.82 -2.629 m 0 0" style="fill:#fff;fill-opacity:0.102;stroke:none;fill-rule:evenodd"/>
    <path d="m 35.457 14.984 c -0.32 2.141 -2.238 3.438 -4.281 2.891 -2.047 -0.543 -3.445 -2.719 -3.125 -4.859 0.32 -2.141 2.238 -3.434 4.285 -2.891 2.047 0.543 3.445 2.719 3.121 4.859 m 0 0" style="fill:#192028;fill-opacity:1;stroke:none;fill-rule:evenodd"/>
    <path d="m 29.973 12.06 c 0.371 -0.625 0.992 -0.938 1.391 -0.699 0.395 0.238 0.414 0.941 0.047 1.57 -0.371 0.625 -0.992 0.938 -1.387 0.699 -0.398 -0.242 -0.418 -0.941 -0.051 -1.57 m 0 0" style="fill:#fff;fill-opacity:0.765;stroke:none;fill-rule:evenodd"/>
    <path d="m 33.656 12.422 c 0.32 0.535 0.477 1.16 0.383 1.773 -0.203 1.363 -1.52 2.16 -2.941 1.781 -1.418 -0.375 -2.398 -1.785 -2.195 -3.145 0.082 -0.559 0.352 -1.023 0.738 -1.348 -0.703 0.375 -1.211 1.055 -1.34 1.926 -0.246 1.637 0.938 3.328 2.645 3.781 1.703 0.453 3.285 -0.504 3.527 -2.141 0.145 -0.941 -0.188 -1.898 -0.816 -2.629 m 0 0" style="fill:#fff;fill-opacity:0.102;stroke:none;fill-rule:evenodd"/>
   </g>
  </g>
 </g>
 <g>
  <path d="m 40.03 7.531 c 3.712 4.084 5.969 9.514 5.969 15.469 0 12.703 -10.297 23 -23 23 c -5.954 0 -11.384 -2.256 -15.469 -5.969 4.178 4.291 10.01 6.969 16.469 6.969 c 12.703 0 23 -10.298 23 -23 0 -6.462 -2.677 -12.291 -6.969 -16.469 z" style="opacity:0.1"/>
 </g>
</svg>
