<svg xmlns="http://www.w3.org/2000/svg" viewBox="0 0 48 48">
 <defs>
  <linearGradient id="linearGradient3764" x1="1" x2="47" gradientUnits="userSpaceOnUse" gradientTransform="matrix(0,-1,1,0,-1.5e-6,47.999998)">
   <stop style="stop-color:#e4e4e4;stop-opacity:1"/>
   <stop offset="1" style="stop-color:#eee;stop-opacity:1"/>
  </linearGradient>
 </defs>
 <g>
  <path d="m 36.31 5 c 5.859 4.062 9.688 10.831 9.688 18.5 c 0 12.426 -10.07 22.5 -22.5 22.5 c -7.669 0 -14.438 -3.828 -18.5 -9.688 c 1.037 1.822 2.306 3.499 3.781 4.969 c 4.085 3.712 9.514 5.969 15.469 5.969 c 12.703 0 23 -10.298 23 -23 c 0 -5.954 -2.256 -11.384 -5.969 -15.469 c -1.469 -1.475 -3.147 -2.744 -4.969 -3.781 z m 4.969 3.781 c 3.854 4.113 6.219 9.637 6.219 15.719 c 0 12.703 -10.297 23 -23 23 c -6.081 0 -11.606 -2.364 -15.719 -6.219 c 4.16 4.144 9.883 6.719 16.219 6.719 c 12.703 0 23 -10.298 23 -23 c 0 -6.335 -2.575 -12.06 -6.719 -16.219 z" style="opacity:0.05"/>
  <path d="m 41.28 8.781 c 3.712 4.085 5.969 9.514 5.969 15.469 c 0 12.703 -10.297 23 -23 23 c -5.954 0 -11.384 -2.256 -15.469 -5.969 c 4.113 3.854 9.637 6.219 15.719 6.219 c 12.703 0 23 -10.298 23 -23 c 0 -6.081 -2.364 -11.606 -6.219 -15.719 z" style="opacity:0.1"/>
  <path d="m 31.25 2.375 c 8.615 3.154 14.75 11.417 14.75 21.13 c 0 12.426 -10.07 22.5 -22.5 22.5 c -9.708 0 -17.971 -6.135 -21.12 -14.75 a 23 23 0 0 0 44.875 -7 a 23 23 0 0 0 -16 -21.875 z" style="opacity:0.2"/>
 </g>
 <g>
  <path d="m 24 1 c 12.703 0 23 10.297 23 23 c 0 12.703 -10.297 23 -23 23 -12.703 0 -23 -10.297 -23 -23 0 -12.703 10.297 -23 23 -23 z" style="fill:url(#linearGradient3764);fill-opacity:1"/>
 </g>
 <g>
  <g>
   <g transform="translate(1,1)">
    <g style="opacity:0.1">
     <!-- color: #eeeeee -->
     <g>
      <path d="m 23.656 9 l -6.656 16.563 l 21.375 2.688 c 0.016 -0.051 0.016 -0.105 0.031 -0.156 l -16.406 -7.594 l 1.719 -11.5 c -0.02 0 -0.043 0 -0.063 0 m 5.063 1.125 c -0.109 0.02 -0.211 0.137 -0.25 0.125 l -4.563 8.938 l 13.512 7.242 c 0.352 -0.016 0.34 -0.227 0.207 -0.43 l -9.219 -8.406 l 0.563 -7.03 c -0.027 -0.367 -0.141 -0.457 -0.25 -0.438 m -10.813 0.188 c -5.246 2.336 -8.906 7.574 -8.906 13.688 c 0 8.285 6.715 15 15 15 c 6.152 0 11.438 -3.699 13.75 -9 l -23.438 0 m 17.188 -18.16 l -1.656 5.094 l 7.449 7.227 c 0.215 0.313 1.395 0.5 1.645 -0.414 c 0 -4.898 -2.277 -8.984 -5.906 -11.719 c -0.848 -0.438 -1.395 -0.543 -1.531 -0.188 m 0 0" style="fill:#000;fill-opacity:1;stroke:none;fill-rule:nonzero"/>
     </g>
    </g>
   </g>
  </g>
 </g>
 <g>
  <g>
   <!-- color: #eeeeee -->
   <g>
    <path d="m 23.656 9 l -6.656 16.563 l 21.375 2.688 c 0.016 -0.051 0.016 -0.105 0.031 -0.156 l -16.406 -7.594 l 1.719 -11.5 c -0.02 0 -0.043 0 -0.063 0 m 5.063 1.125 c -0.109 0.02 -0.211 0.137 -0.25 0.125 l -4.563 8.938 l 13.512 7.242 c 0.352 -0.016 0.34 -0.227 0.207 -0.43 l -9.219 -8.406 l 0.563 -7.03 c -0.027 -0.367 -0.141 -0.457 -0.25 -0.438 m -10.813 0.188 c -5.246 2.336 -8.906 7.574 -8.906 13.688 c 0 8.285 6.715 15 15 15 c 6.152 0 11.438 -3.699 13.75 -9 l -23.438 0 m 17.188 -18.16 l -1.656 5.094 l 7.449 7.227 c 0.215 0.313 1.395 0.5 1.645 -0.414 c 0 -4.898 -2.277 -8.984 -5.906 -11.719 c -0.848 -0.438 -1.395 -0.543 -1.531 -0.188 m 0 0" style="fill:#f85353;fill-opacity:1;stroke:none;fill-rule:nonzero"/>
   </g>
  </g>
 </g>
 <g>
  <path d="m 40.03 7.531 c 3.712 4.084 5.969 9.514 5.969 15.469 0 12.703 -10.297 23 -23 23 c -5.954 0 -11.384 -2.256 -15.469 -5.969 4.178 4.291 10.01 6.969 16.469 6.969 c 12.703 0 23 -10.298 23 -23 0 -6.462 -2.677 -12.291 -6.969 -16.469 z" style="opacity:0.1"/>
 </g>
</svg>
