<svg version="1.1" viewBox="0 0 48 48" xmlns="http://www.w3.org/2000/svg">
 <defs>
  <linearGradient id="bg" x2="0" y1="1" y2="47" gradientUnits="userSpaceOnUse">
   <stop style="stop-color:#47c0ed" offset="0"/>
   <stop style="stop-color:#35baeb" offset="1"/>
  </linearGradient>
 </defs>
 <path d="m36.31 5c5.859 4.062 9.688 10.831 9.688 18.5 0 12.426-10.07 22.5-22.5 22.5-7.669 0-14.438-3.828-18.5-9.688 1.037 1.822 2.306 3.499 3.781 4.969 4.085 3.712 9.514 5.969 15.469 5.969 12.703 0 23-10.298 23-23 0-5.954-2.256-11.384-5.969-15.469-1.469-1.475-3.147-2.744-4.969-3.781zm4.969 3.781c3.854 4.113 6.219 9.637 6.219 15.719 0 12.703-10.297 23-23 23-6.081 0-11.606-2.364-15.719-6.219 4.16 4.144 9.883 6.719 16.219 6.719 12.703 0 23-10.298 23-23 0-6.335-2.575-12.06-6.719-16.219z" style="opacity:.05"/>
 <path d="m41.28 8.781c3.712 4.085 5.969 9.514 5.969 15.469 0 12.703-10.297 23-23 23-5.954 0-11.384-2.256-15.469-5.969 4.113 3.854 9.637 6.219 15.719 6.219 12.703 0 23-10.298 23-23 0-6.081-2.364-11.606-6.219-15.719z" style="opacity:.1"/>
 <path d="m31.25 2.375c8.615 3.154 14.75 11.417 14.75 21.13 0 12.426-10.07 22.5-22.5 22.5-9.708 0-17.971-6.135-21.12-14.75a23 23 0 0 0 44.875-7 23 23 0 0 0-16-21.875z" style="opacity:.2"/>
 <circle cx="24" cy="24" r="23" style="fill:url(#bg)"/>
 <path d="m40.03 7.531c3.712 4.084 5.969 9.514 5.969 15.469 0 12.703-10.297 23-23 23-5.954 0-11.384-2.256-15.469-5.969 4.178 4.291 10.01 6.969 16.469 6.969 12.703 0 23-10.298 23-23 0-6.462-2.677-12.291-6.969-16.469z" style="opacity:.1"/>
 <path d="m25 17-8-7v9l6.9727 6.5586c0.32084-0.18975 0.66664-0.33372 1.0273-0.42773zm2 3.0664v5.0664c0.3606 0.0934 0.70639 0.23671 1.0273 0.42578l3.5898-3.5898c-1.3288-1.057-2.9295-1.7164-4.6172-1.9023zm-10 1.4336 0.06641 6.5h5.0664c0.0934-0.3606 0.23671-0.70639 0.42578-1.0273zm16.025 1.8887-3.584 3.584c0.18975 0.32084 0.33372 0.66664 0.42774 1.0273h5.0703c-0.19036-1.6869-0.85392-3.2855-1.9141-4.6113zm-15.965 6.6113c0.19036 1.6869 0.85392 3.2855 1.9141 4.6113l3.584-3.584c-0.18975-0.32084-0.33372-0.66664-0.42774-1.0273zm12.807 0c-0.0934 0.3606-0.23671 0.70639-0.42578 1.0273l3.5898 3.5898c1.057-1.3288 1.7165-2.9295 1.9023-4.6172zm-5.8945 2.4414-3.5898 3.5898c1.3288 1.057 2.9295 1.7164 4.6172 1.9023v-5.0664c-0.3606-0.0934-0.70639-0.23671-1.0273-0.42578zm4.0547 0c-0.32084 0.18975-0.66664 0.33372-1.0273 0.42773v5.0703c1.6869-0.19036 3.2855-0.85392 4.6113-1.9141z" style="opacity:.1;paint-order:normal"/>
 <path d="m24 16-8-7v9l6.9727 6.5586c0.32084-0.18975 0.66664-0.33372 1.0273-0.42773zm2 3.0664v5.0664c0.3606 0.0934 0.70639 0.23671 1.0273 0.42578l3.5898-3.5898c-1.3288-1.057-2.9295-1.7164-4.6172-1.9023zm-10 1.4336 0.06641 6.5h5.0664c0.0934-0.3606 0.23671-0.70639 0.42578-1.0273zm16.025 1.8887-3.584 3.584c0.18975 0.32084 0.33372 0.66664 0.42774 1.0273h5.0703c-0.19036-1.6869-0.85392-3.2855-1.9141-4.6113zm-15.965 6.6113c0.19036 1.6869 0.85392 3.2855 1.9141 4.6113l3.584-3.584c-0.18975-0.32084-0.33372-0.66664-0.42774-1.0273zm12.807 0c-0.0934 0.3606-0.23671 0.70639-0.42578 1.0273l3.5898 3.5898c1.057-1.3288 1.7165-2.9295 1.9023-4.6172zm-5.8945 2.4414-3.5898 3.5898c1.3288 1.057 2.9295 1.7164 4.6172 1.9023v-5.0664c-0.3606-0.0934-0.70639-0.23671-1.0273-0.42578zm4.0547 0c-0.32084 0.18975-0.66664 0.33372-1.0273 0.42773v5.0703c1.6869-0.19036 3.2855-0.85392 4.6113-1.9141z" style="fill:#f9f9f9;paint-order:normal"/>
</svg>
