<?xml version="1.0" encoding="UTF-8"?>
<svg version="1.1" viewBox="0 0 48 48" xmlns="http://www.w3.org/2000/svg">
 <defs>
  <linearGradient id="linearGradient3764" x1="47" x2="1" gradientTransform="rotate(-90 24 24)" gradientUnits="userSpaceOnUse">
   <stop style="stop-color:#913baf" offset="0"/>
   <stop style="stop-color:#8436a2" offset="1"/>
  </linearGradient>
 </defs>
 <path d="m36.3 5c5.86 4.06 9.69 10.8 9.69 18.5 0 12.4-10.1 22.5-22.5 22.5-7.67 0-14.4-3.83-18.5-9.69 1.04 1.82 2.31 3.5 3.78 4.97 4.08 3.71 9.51 5.97 15.5 5.97 12.7 0 23-10.3 23-23 0-5.95-2.26-11.4-5.97-15.5-1.47-1.48-3.15-2.74-4.97-3.78zm4.97 3.78c3.85 4.11 6.22 9.64 6.22 15.7 0 12.7-10.3 23-23 23-6.08 0-11.6-2.36-15.7-6.22 4.16 4.14 9.88 6.72 16.2 6.72 12.7 0 23-10.3 23-23 0-6.34-2.58-12.1-6.72-16.2z" style="opacity:.05"/>
 <path d="m41.3 8.78c3.71 4.08 5.97 9.51 5.97 15.5 0 12.7-10.3 23-23 23-5.95 0-11.4-2.26-15.5-5.97 4.11 3.85 9.64 6.22 15.7 6.22 12.7 0 23-10.3 23-23 0-6.08-2.36-11.6-6.22-15.7z" style="opacity:.1"/>
 <path d="m31.2 2.38c8.62 3.15 14.8 11.4 14.8 21.1 0 12.4-10.1 22.5-22.5 22.5-9.71 0-18-6.14-21.1-14.8a23 23 0 0 0 44.9-7 23 23 0 0 0-16-21.9z" style="opacity:.2"/>
 <path d="m24 1c-12.7 0-23 10.3-23 23s10.3 23 23 23c6.97 0 13.2-3.1 17.4-8l-0.428-2 2.62-1c0.201-0.328 0.395-0.661 0.58-1l-0.203-2 1.57-1h0.00195c0.122-0.33 0.236-0.663 0.344-1l-0.912-2 1.65-1c0.228-1.3 0.354-2.63 0.354-4 0-12.7-10.3-23-23-23z" style="fill:url(#linearGradient3764)"/>
 <path d="m25 10a15 15 0 0 0-15 15 15 15 0 0 0 15 15h15.5c0.9-0.928 1.72-1.93 2.46-3h-18a12 12 0 0 1-12-12 12 12 0 0 1 12-12v-3zm0 4c-6.08-2.05e-4 -11 4.92-11 11s4.92 11 11 11h18.6c0.586-0.956 1.11-1.96 1.55-3h-20.2c-4.42 0-8-3.58-8-8s3.58-8 8-8c1.4 1.78e-4 2.78 0.371 4 1.07l1.5-2.6c-1.67-0.966-3.57-1.47-5.5-1.47zm0 4c-3.87 7e-5 -7 3.13-7 7s3.13 7 7 7h20.6c0.36-0.97 0.653-1.97 0.881-3h-21.4c-2.21 0-4-1.79-4-4s1.79-4 4-4c1.43 1.7e-4 2.75 0.763 3.46 2l2.6-1.5c-1.25-2.17-3.56-3.5-6.06-3.5z" style="opacity:.1"/>
 <path d="m24 9a15 15 0 0 0-15 15 15 15 0 0 0 15 15h17.4c0.808-0.938 1.55-1.94 2.2-3h-19.6a12 12 0 0 1-12-12 12 12 0 0 1 12-12v-3zm0 4c-6.08-2.05e-4 -11 4.92-11 11s4.92 11 11 11h20.2c0.524-0.961 0.98-1.96 1.37-3h-21.6c-4.42 0-8-3.58-8-8s3.58-8 8-8c1.4 1.78e-4 2.78 0.371 4 1.07l1.5-2.6c-1.67-0.966-3.57-1.47-5.5-1.47zm0 4c-3.87 7e-5 -7 3.13-7 7s3.13 7 7 7h21.9c0.311-0.973 0.555-1.98 0.734-3h-22.6c-2.21 0-4-1.79-4-4s1.79-4 4-4c1.43 1.7e-4 2.75 0.763 3.46 2l2.6-1.5c-1.25-2.17-3.56-3.5-6.06-3.5z" style="fill:#f9f9f9"/>
 <path d="m40 7.53c3.71 4.08 5.97 9.51 5.97 15.5 0 12.7-10.3 23-23 23-5.95 0-11.4-2.26-15.5-5.97 4.18 4.29 10 6.97 16.5 6.97 12.7 0 23-10.3 23-23 0-6.46-2.68-12.3-6.97-16.5z" style="opacity:.1"/>
</svg>
