<svg version="1.1" viewBox="0 0 48 48" xmlns="http://www.w3.org/2000/svg">
 <defs>
  <linearGradient id="linearGradient3764" x1="1" x2="47" gradientTransform="rotate(-90 24 24)" gradientUnits="userSpaceOnUse">
   <stop style="stop-color:#783193" offset="0"/>
   <stop style="stop-color:#8436a2" offset="1"/>
  </linearGradient>
 </defs>
 <path d="m36.31 5c5.859 4.062 9.688 10.831 9.688 18.5 0 12.426-10.07 22.5-22.5 22.5-7.669 0-14.438-3.828-18.5-9.688 1.037 1.822 2.306 3.499 3.781 4.969 4.085 3.712 9.514 5.969 15.469 5.969 12.703 0 23-10.298 23-23 0-5.954-2.256-11.384-5.969-15.469-1.469-1.475-3.147-2.744-4.969-3.781zm4.969 3.781c3.854 4.113 6.219 9.637 6.219 15.719 0 12.703-10.297 23-23 23-6.081 0-11.606-2.364-15.719-6.219 4.16 4.144 9.883 6.719 16.219 6.719 12.703 0 23-10.298 23-23 0-6.335-2.575-12.06-6.719-16.219z" style="opacity:.05"/>
 <path d="m41.28 8.781c3.712 4.085 5.969 9.514 5.969 15.469 0 12.703-10.297 23-23 23-5.954 0-11.384-2.256-15.469-5.969 4.113 3.854 9.637 6.219 15.719 6.219 12.703 0 23-10.298 23-23 0-6.081-2.364-11.606-6.219-15.719z" style="opacity:.1"/>
 <path d="m31.25 2.375c8.615 3.154 14.75 11.417 14.75 21.13 0 12.426-10.07 22.5-22.5 22.5-9.708 0-17.971-6.135-21.12-14.75a23 23 0 0 0 44.875-7 23 23 0 0 0-16-21.875z" style="opacity:.2"/>
 <path d="m24 1c-12.703 0-23 10.297-23 23s10.297 23 23 23c6.9696 0 13.21-3.1039 17.428-8l-0.42773-2 2.623-1c0.2011-0.32815 0.39524-0.66126 0.58008-1l-0.20312-2 1.5664-1h0.001953c0.1223-0.32962 0.23632-0.66344 0.34375-1l-0.91211-2 1.6465-1c0.22813-1.3 0.35352-2.6346 0.35352-4 0-12.703-10.297-23-23-23z" style="fill:url(#linearGradient3764)"/>
 <g transform="translate(1,1)"></g>
 <path d="m25 10a15 15 0 0 0-15 15 15 15 0 0 0 15 15h15.516c0.89958-0.92838 1.723-1.9309 2.457-3h-17.973a12 12 0 0 1-12-12 12 12 0 0 1 12-12v-3zm0 4c-6.0751-2.05e-4 -11 4.9249-11 11s4.9249 11 11 11h18.623c0.58616-0.95645 1.1053-1.9579 1.5488-3h-20.172c-4.4183 0-8-3.5817-8-8s3.5817-8.0006 8-8c1.4045 1.78e-4 2.7841 0.37123 4 1.0742l1.5-2.5996c-1.6721-0.96576-3.569-1.4745-5.5-1.4746zm0 4c-3.866 7e-5 -7 3.134-7 7s3.134 7 7 7h20.568c0.35997-0.97018 0.65311-1.9731 0.88086-3h-21.449c-2.2091 0-4-1.7909-4-4s1.7909-4.0003 4-4c1.4286 1.7e-4 2.7486 0.76277 3.4629 2l2.5996-1.5c-1.2505-2.1659-3.5615-3.5-6.0625-3.5z" style="opacity:.1"/>
 <path d="m24 9a15 15 0 0 0-15 15 15 15 0 0 0 15 15h17.428c0.80807-0.93802 1.5453-1.9393 2.1953-3h-19.623a12 12 0 0 1-12-12 12 12 0 0 1 12-12v-3zm0 4c-6.0751-2.05e-4 -11 4.9249-11 11s4.9249 11 11 11h20.203c0.52417-0.96064 0.98029-1.9625 1.3652-3h-21.568c-4.4183 0-8-3.5817-8-8s3.5817-8.0006 8-8c1.4045 1.78e-4 2.7841 0.37123 4 1.0742l1.5-2.5996c-1.6721-0.96576-3.569-1.4745-5.5-1.4746zm0 4c-3.866 7e-5 -7 3.134-7 7s3.134 7 7 7h21.912c0.31055-0.97293 0.55461-1.9756 0.73438-3h-22.646c-2.2091 0-4-1.7909-4-4s1.7909-4.0003 4-4c1.4286 1.7e-4 2.7486 0.76277 3.4629 2l2.5996-1.5c-1.2505-2.1659-3.5615-3.5-6.0625-3.5z" style="fill:#f9f9f9"/>
 <path d="m40.03 7.531c3.712 4.084 5.969 9.514 5.969 15.469 0 12.703-10.297 23-23 23-5.954 0-11.384-2.256-15.469-5.969 4.178 4.291 10.01 6.969 16.469 6.969 12.703 0 23-10.298 23-23 0-6.462-2.677-12.291-6.969-16.469z" style="opacity:.1"/>
</svg>
