<svg version="1.1" viewBox="0 0 48 48" xmlns="http://www.w3.org/2000/svg">
 <defs>
  <linearGradient id="bg" x1="1" x2="47" gradientTransform="matrix(0,-1,1,0,0,48)" gradientUnits="userSpaceOnUse">
   <stop style="stop-color:#afd9ed" offset="0"/>
   <stop style="stop-color:#bfe1f1" offset="1"/>
  </linearGradient>
 </defs>
 <path d="m36.31 5c5.859 4.062 9.688 10.831 9.688 18.5 0 12.426-10.07 22.5-22.5 22.5-7.669 0-14.438-3.828-18.5-9.688 1.037 1.822 2.306 3.499 3.781 4.969 4.085 3.712 9.514 5.969 15.469 5.969 12.703 0 23-10.298 23-23 0-5.954-2.256-11.384-5.969-15.469-1.469-1.475-3.147-2.744-4.969-3.781zm4.969 3.781c3.854 4.113 6.219 9.637 6.219 15.719 0 12.703-10.297 23-23 23-6.081 0-11.606-2.364-15.719-6.219 4.16 4.144 9.883 6.719 16.219 6.719 12.703 0 23-10.298 23-23 0-6.335-2.575-12.06-6.719-16.219z" style="opacity:.05"/>
 <path d="m41.28 8.781c3.712 4.085 5.969 9.514 5.969 15.469 0 12.703-10.297 23-23 23-5.954 0-11.384-2.256-15.469-5.969 4.113 3.854 9.637 6.219 15.719 6.219 12.703 0 23-10.298 23-23 0-6.081-2.364-11.606-6.219-15.719z" style="opacity:.1"/>
 <path d="m31.25 2.375c8.615 3.154 14.75 11.417 14.75 21.13 0 12.426-10.07 22.5-22.5 22.5-9.708 0-17.971-6.135-21.12-14.75a23 23 0 0 0 44.875-7 23 23 0 0 0-16-21.875z" style="opacity:.2"/>
 <path d="m1 24c0-12.703 10.297-23 23-23s23 10.297 23 23-10.297 23-23 23-23-10.297-23-23z" style="fill:url(#bg)"/>
 <path d="m40.03 7.531c3.712 4.084 5.969 9.514 5.969 15.469 0 12.703-10.297 23-23 23-5.954 0-11.384-2.256-15.469-5.969 4.178 4.291 10.01 6.969 16.469 6.969 12.703 0 23-10.298 23-23 0-6.462-2.677-12.291-6.969-16.469z" style="opacity:.1"/>
 <path d="m17 13v9 6 9h10.5c4.155 0 7.5-3.345 7.5-7.5 0-1.694-0.562-3.247-1.502-4.5 0.94-1.253 1.502-2.806 1.502-4.5 0-4.155-3.345-7.5-7.5-7.5h-10.5m3 3h7.5c2.493 0 4.5 2.01 4.5 4.5 0 0.928-0.278 1.787-0.756 2.502-1.102-0.634-2.377-1-3.744-1h-7.5v-6m11.244 10.998c0.477 0.715 0.756 1.574 0.756 2.502 0 2.493-2.01 4.5-4.5 4.5h-7.5v-6h7.5c1.367 0 2.643-0.368 3.744-1z" style="opacity:.1"/>
 <path d="m16 12v8.996l3 6.004h7.5c4.155 0 7.5-3.345 7.5-7.5s-3.345-7.5-7.5-7.5zm3 3h7.5c2.493 0 4.5 2.007 4.5 4.5s-2.007 4.5-4.5 4.5h-7.5z" style="fill:#1887c0"/>
 <path d="m16 21v15h10.5c4.155 0 7.5-3.345 7.5-7.5 0-1.694-0.562-3.247-1.502-4.5-0.606 0.81-1.375 1.488-2.256 1.996 0.478 0.715 0.758 1.575 0.758 2.504 0 2.493-2.01 4.5-4.5 4.5h-7.5v-9h6 1.5c1.567 0 2.916-0.806 3.715-2.02-1.095-0.624-2.36-0.984-3.715-0.984h-10.5" style="fill:#252592"/>
</svg>
