<svg version="1.1" viewBox="0 0 48 48" xmlns="http://www.w3.org/2000/svg">
 <defs>
  <linearGradient id="bg" x2="0" y1="1" y2="47" gradientUnits="userSpaceOnUse">
   <stop style="stop-color:#5085b4" offset="0"/>
   <stop style="stop-color:#487ba8" offset="1"/>
  </linearGradient>
 </defs>
 <path d="m36.31 5c5.859 4.062 9.688 10.831 9.688 18.5 0 12.426-10.07 22.5-22.5 22.5-7.669 0-14.438-3.828-18.5-9.688 1.037 1.822 2.306 3.499 3.781 4.969 4.085 3.712 9.514 5.969 15.469 5.969 12.703 0 23-10.298 23-23 0-5.954-2.256-11.384-5.969-15.469-1.469-1.475-3.147-2.744-4.969-3.781zm4.969 3.781c3.854 4.113 6.219 9.637 6.219 15.719 0 12.703-10.297 23-23 23-6.081 0-11.606-2.364-15.719-6.219 4.16 4.144 9.883 6.719 16.219 6.719 12.703 0 23-10.298 23-23 0-6.335-2.575-12.06-6.719-16.219z" style="opacity:.05"/>
 <path d="m41.28 8.781c3.712 4.085 5.969 9.514 5.969 15.469 0 12.703-10.297 23-23 23-5.954 0-11.384-2.256-15.469-5.969 4.113 3.854 9.637 6.219 15.719 6.219 12.703 0 23-10.298 23-23 0-6.081-2.364-11.606-6.219-15.719z" style="opacity:.1"/>
 <path d="m31.25 2.375c8.615 3.154 14.75 11.417 14.75 21.13 0 12.426-10.07 22.5-22.5 22.5-9.708 0-17.971-6.135-21.12-14.75a23 23 0 0 0 44.875-7 23 23 0 0 0-16-21.875z" style="opacity:.2"/>
 <circle cx="24" cy="24" r="23" style="fill:url(#bg)"/>
 <path d="m40.03 7.531c3.712 4.084 5.969 9.514 5.969 15.469 0 12.703-10.297 23-23 23-5.954 0-11.384-2.256-15.469-5.969 4.178 4.291 10.01 6.969 16.469 6.969 12.703 0 23-10.298 23-23 0-6.462-2.677-12.291-6.969-16.469z" style="opacity:.1"/>
 <path d="m13 19.5c0 0.831 0.669 1.5 1.5 1.5h5.5l-9.543 9.4375c-0.60918 0.58761-0.60918 1.5335 0 2.1211s1.59 0.5876 2.1992 0l5.3438-5.1641c0.2068 4.7872 4.1618 8.6055 9 8.6055 4.9706 0 9.0006-4.0294 9-9-3.31e-4 -2.5981-1.1246-5.0729-3.082-6.7812z" style="opacity:.1"/>
 <path d="m22.584 11c-0.40474 0-0.80901 0.1476-1.1191 0.44141-0.62026 0.58761-0.62026 1.5335 0 2.1211l3.6289 3.4375h-11.594c-0.831 0-1.5 0.669-1.5 1.5s0.669 1.5 1.5 1.5h5.5l-9.543 9.4375c-0.60918 0.58761-0.60918 1.5335 0 2.1211s1.59 0.5876 2.1992 0l5.3438-5.1641c0.2068 4.7872 4.1618 8.6055 9 8.6055 4.9706 0 9.0006-4.0294 9-9-3.31e-4 -2.5981-1.1246-5.0729-3.082-6.7812l-8.2129-7.7773c-0.31013-0.2938-0.71636-0.44141-1.1211-0.44141z" style="fill:#ef9b67"/>
 <circle cx="26" cy="26" r="6" style="fill:#f9f9f9"/>
 <path d="m26 20c-3.3137-4.5e-4 -6.0029 2.6863-6 6 0.0016 1.8282 0.84211 3.5546 2.2754 4.6895-0.8245-1.0533-1.2748-2.3519-1.2754-3.6895-0.0014-3.3137 2.6863-6.0004 6-6 1.3464 1.54e-4 2.6534 0.45387 3.7109 1.2871-1.1372-1.4436-2.8732-2.2869-4.7109-2.2871zm1 4c-1.6569 0-3 1.3431-3 3s1.3431 3 3 3 3-1.3431 3-3-1.3431-3-3-3z" style="opacity:.1"/>
 <circle cx="26" cy="26" r="3" style="fill:#267ac0"/>
</svg>
