<?xml version="1.0" encoding="UTF-8"?>
<svg version="1.1" viewBox="0 0 48 48" xmlns="http://www.w3.org/2000/svg">
 <path d="m36.3 5c5.86 4.06 9.69 10.8 9.69 18.5 0 12.4-10.1 22.5-22.5 22.5-7.67 0-14.4-3.83-18.5-9.69 1.04 1.82 2.31 3.5 3.78 4.97 4.08 3.71 9.51 5.97 15.5 5.97 12.7 0 23-10.3 23-23 0-5.95-2.26-11.4-5.97-15.5-1.47-1.48-3.15-2.74-4.97-3.78zm4.97 3.78c3.85 4.11 6.22 9.64 6.22 15.7 0 12.7-10.3 23-23 23-6.08 0-11.6-2.36-15.7-6.22 4.16 4.14 9.88 6.72 16.2 6.72 12.7 0 23-10.3 23-23 0-6.34-2.58-12.1-6.72-16.2z" style="opacity:.05"/>
 <path d="m41.3 8.78c3.71 4.08 5.97 9.51 5.97 15.5 0 12.7-10.3 23-23 23-5.95 0-11.4-2.26-15.5-5.97 4.11 3.85 9.64 6.22 15.7 6.22 12.7 0 23-10.3 23-23 0-6.08-2.36-11.6-6.22-15.7z" style="opacity:.1"/>
 <path d="m31.2 2.38c8.62 3.15 14.8 11.4 14.8 21.1 0 12.4-10.1 22.5-22.5 22.5-9.71 0-18-6.14-21.1-14.8a23 23 0 0 0 44.9-7 23 23 0 0 0-16-21.9z" style="opacity:.2"/>
 <path d="m24 1c-12.7 0-23 10.3-23 23h23v-23z" style="fill:#d1eb55"/>
 <path d="m24 1v23h23c0-12.7-10.3-23-23-23z" style="fill:#eb6755"/>
 <path d="m24 24v23c12.7 0 23-10.3 23-23h-23z" style="fill:#83be5a"/>
 <path d="m1 24c0 12.7 10.3 23 23 23v-23h-23z" style="fill:#6593c7"/>
 <path d="m40 7.53c3.71 4.08 5.97 9.51 5.97 15.5 0 12.7-10.3 23-23 23-5.95 0-11.4-2.26-15.5-5.97 4.18 4.29 10 6.97 16.5 6.97 12.7 0 23-10.3 23-23 0-6.46-2.68-12.3-6.97-16.5z" style="opacity:.1"/>
 <circle cx="25" cy="25" r="15" style="fill-opacity:.1"/>
 <circle cx="23.8" cy="24" r="15" style="fill:#525252"/>
 <path d="m25 15-3 0.5v12l3-0.5v-5l4 6 3-1-4-6 4-5-3-1-4 5zm-6.95 3.64-1.41 1.41 1.27 1.78c-0.348 0.558-0.602 1.17-0.752 1.81l-2.16 0.359v2l2.16 0.359c0.149 0.641 0.402 1.25 0.75 1.81l-1.27 1.78 1.41 1.41 1.78-1.27c0.558 0.348 1.17 0.602 1.81 0.752l0.359 2.16h2l0.359-2.16c0.641-0.149 1.25-0.402 1.81-0.75l1.78 1.27 1.41-1.41-0.586-0.82-0.186 0.0606-1.2-1.8c-0.875 1.61-2.56 2.61-4.39 2.61-2.76 0-5-2.24-5-5 2.17e-4 -1.99 1.18-3.79 3-4.58v-1.07c-0.41 0.145-0.803 0.333-1.17 0.562z" style="fill:#f9f9f9"/>
</svg>
