<svg xmlns="http://www.w3.org/2000/svg" viewBox="0 0 48 48">
 <defs>
  <linearGradient id="linearGradient3764" x1="1" x2="47" gradientUnits="userSpaceOnUse" gradientTransform="matrix(0,-1,1,0,-1.5e-6,47.999998)">
   <stop style="stop-color:#7252a2;stop-opacity:1"/>
   <stop offset="1" style="stop-color:#7c5bac;stop-opacity:1"/>
  </linearGradient>
 </defs>
 <g>
  <path d="m 36.31 5 c 5.859 4.062 9.688 10.831 9.688 18.5 c 0 12.426 -10.07 22.5 -22.5 22.5 c -7.669 0 -14.438 -3.828 -18.5 -9.688 c 1.037 1.822 2.306 3.499 3.781 4.969 c 4.085 3.712 9.514 5.969 15.469 5.969 c 12.703 0 23 -10.298 23 -23 c 0 -5.954 -2.256 -11.384 -5.969 -15.469 c -1.469 -1.475 -3.147 -2.744 -4.969 -3.781 z m 4.969 3.781 c 3.854 4.113 6.219 9.637 6.219 15.719 c 0 12.703 -10.297 23 -23 23 c -6.081 0 -11.606 -2.364 -15.719 -6.219 c 4.16 4.144 9.883 6.719 16.219 6.719 c 12.703 0 23 -10.298 23 -23 c 0 -6.335 -2.575 -12.06 -6.719 -16.219 z" style="opacity:0.05"/>
  <path d="m 41.28 8.781 c 3.712 4.085 5.969 9.514 5.969 15.469 c 0 12.703 -10.297 23 -23 23 c -5.954 0 -11.384 -2.256 -15.469 -5.969 c 4.113 3.854 9.637 6.219 15.719 6.219 c 12.703 0 23 -10.298 23 -23 c 0 -6.081 -2.364 -11.606 -6.219 -15.719 z" style="opacity:0.1"/>
  <path d="m 31.25 2.375 c 8.615 3.154 14.75 11.417 14.75 21.13 c 0 12.426 -10.07 22.5 -22.5 22.5 c -9.708 0 -17.971 -6.135 -21.12 -14.75 a 23 23 0 0 0 44.875 -7 a 23 23 0 0 0 -16 -21.875 z" style="opacity:0.2"/>
 </g>
 <g>
  <path d="m 24 1 c 12.703 0 23 10.297 23 23 c 0 12.703 -10.297 23 -23 23 -12.703 0 -23 -10.297 -23 -23 0 -12.703 10.297 -23 23 -23 z" style="fill:url(#linearGradient3764);fill-opacity:1"/>
 </g>
 <g>
  <g>
   <g transform="translate(1,1)">
    <g style="opacity:0.1">
     <!-- color: #7c5bac -->
    </g>
   </g>
  </g>
 </g>
 <g>
  <g>
   <!-- color: #7c5bac -->
   <g>
    <path d="m 32.08 13 c -0.109 -0.011 -0.216 0.001 -0.32 0.041 -1.409 0.542 -0.21 2.061 0.213 3.135 0.55 1.47 0.335 3.099 -0.035 4.594 -0.416 -1.041 0.123 -2.334 -0.707 -3.207 -0.306 -0.322 -0.583 -0.302 -1.408 -0.121 l 0.391 1.605 c -0.547 -0.713 -1.387 -2.244 -2.709 -1.664 l 1.234 4.701 -0.301 2.977 c 0 0 -3.459 -0.001 -4.357 0.793 -1.776 1.416 -2.655 3.03 -3.02 5.184 -0.419 2.492 -0.111 6.01 3.234 5.809 l -0.486 -1.576 c 1.458 2.153 2.386 1.776 2.93 1.545 l -1.02 -1.658 c 1.593 1.303 3.288 1.89 4.656 0.559 l -2.918 -1.236 c 1.827 0.129 4.394 0.649 6.04 -0.451 0.992 -0.471 0.226 -0.653 -0.406 -0.52 -0.568 0.002 -1.137 0.008 -1.705 0.012 0.109 -0.013 0.217 -0.041 0.316 -0.102 1.868 -0.104 3.997 -0.722 4.953 -2.457 -0.031 -1.152 -1.7 0.2 -2.434 0.182 -1.178 0.349 -2.426 0.614 -3.656 0.414 2.24 -1.017 5.02 -0.674 6.969 -2.34 0.595 -0.522 1.051 -1.806 0.975 -2.768 -1.441 1.135 -3.1 1.734 -3.1 1.734 0.654 -0.751 1.629 -1.29 2.266 -2.096 1.148 -1.453 1.726 -3.362 1.031 -5.07 -1.021 1.407 -1.953 2.874 -2.971 4.283 1.442 -3 3.807 -5.233 1.555 -7.748 -1.227 3.513 -2.951 6.291 -4.453 8.746 0.99 -3 3.618 -5.608 3.736 -8.688 0.048 -1.243 -0.284 -3.553 -1.639 -3.641 -1.099 -0.071 -0.32 1.32 -0.402 3.217 -0.084 1.929 -0.64 3.793 -1.293 5.594 0.427 -2.515 1.626 -5.138 0.732 -7.668 -0.284 -0.805 -1.125 -2.034 -1.889 -2.113 z m -6.426 5.465 c -0.828 0.009 -1.68 0.323 -2.029 0.912 -0.184 0.31 -0.085 0.485 -0.006 0.752 l -2.814 0.328 0.281 0.994 c -0.504 -0.387 -1.263 -0.612 -1.705 -0.18 -0.545 0.502 -0.536 1.374 -0.248 2.01 0.488 0.045 0.518 -0.539 1.148 -0.623 0.849 -0.113 1.783 0.142 2.342 0.791 0.277 0.325 0.394 0.87 0.037 1.188 -0.461 0.436 -1.533 0.88 -1.709 1.166 0 0 0.595 -0.03 0.789 -0.053 0.806 -0.096 1.644 -0.294 2.26 -0.893 0.259 -0.252 0.414 -0.793 0.414 -0.793 0.686 0.538 1.333 0.41 1.779 0.145 0.265 -0.158 0.801 -0.617 0.801 -0.617 0.159 0.335 0.41 0.996 0.41 0.996 l 0.906 -0.121 c -0.115 -0.876 -0.836 -1.369 -1.426 -1.582 -0.502 -0.182 -1.043 -0.37 -1.389 -0.801 0.675 -0.204 1.263 -0.704 1.479 -1.383 0.264 -0.672 0.539 -2.148 0.539 -2.148 l -2.531 1.215 1.041 -0.922 c 0.113 -0.393 -0.036 -0.382 -0.369 -0.379 z m -2.9 2.695 c 0.222 0.046 0.403 0.178 0.58 0.324 -0.368 0.297 -1 0.369 -1.404 -0.121 0.338 -0.209 0.602 -0.249 0.824 -0.203 z m -0.391 2.518 c -1.759 0.318 -3.47 0.656 -4.227 1.867 l 4.207 -1.172 0.02 -0.695 z m -7.17 0.385 c -1.292 0 -1.648 0.724 -1.742 1.512 -0.098 0.814 -0.042 1.63 -0.094 2.443 -0.564 -0.545 -0.622 -1.55 -1.424 -1.844 -0.625 -0.229 -1.053 0.604 -0.896 1.148 0.163 0.567 0.977 0.473 0.977 0.473 0.162 0.494 0.59 1.188 0.852 1.633 0.33 0.561 0.488 1.192 0.637 1.818 0.129 0.543 0.419 1.128 0.23 1.67 -0.182 0.522 -0.284 1.163 0.125 1.588 0.23 0.309 0.733 0.889 1.051 0.543 0.342 -0.372 0.245 -0.98 0.158 -1.475 l -0.324 -1.855 2.844 2.391 c 0.446 0.376 1.385 0.377 1.16 -0.398 -0.275 -0.948 -1.126 -1.55 -1.932 -2.039 -0.686 -0.441 -1.462 -0.866 -1.863 -1.604 -0.248 -0.49 -0.124 -1.167 0.396 -1.428 0.629 -0.417 1.554 -0.367 2.02 -1.01 0.319 -0.445 -0.259 -0.944 -0.703 -0.984 l -0.889 -0.08 -1.326 1.238 0.748 -3.74 z m 14.375 9.04 c 0.471 -0.04 1.126 0.41 1.697 0.412 -0.725 0.004 -1.451 0.004 -2.176 -0.021 0.112 -0.269 0.28 -0.374 0.479 -0.391 z" style="fill:#000;opacity:0.1;fill-opacity:1;stroke:none;fill-rule:nonzero"/>
    <path d="m 31.08 12 c -0.109 -0.011 -0.216 0.001 -0.32 0.041 c -1.409 0.542 -0.21 2.061 0.213 3.135 c 0.55 1.47 0.335 3.099 -0.035 4.594 c -0.416 -1.041 0.123 -2.334 -0.707 -3.207 c -0.306 -0.322 -0.583 -0.302 -1.408 -0.121 l 0.391 1.605 c -0.547 -0.713 -1.387 -2.244 -2.709 -1.664 l 1.234 4.701 l -0.301 2.977 c 0 0 -3.459 -0.001 -4.357 0.793 c -1.776 1.416 -2.655 3.03 -3.02 5.184 c -0.419 2.492 -0.111 6.01 3.234 5.809 l -0.486 -1.576 c 1.458 2.153 2.386 1.776 2.93 1.545 l -1.02 -1.658 c 1.593 1.303 3.288 1.89 4.656 0.559 l -2.918 -1.236 c 1.827 0.129 4.394 0.649 6.04 -0.451 c 0.992 -0.471 0.226 -0.653 -0.406 -0.52 c -0.568 0.002 -1.137 0.008 -1.705 0.012 c 0.109 -0.013 0.217 -0.041 0.316 -0.102 c 1.868 -0.104 3.997 -0.722 4.953 -2.457 c -0.031 -1.152 -1.7 0.2 -2.434 0.182 c -1.178 0.349 -2.426 0.614 -3.656 0.414 c 2.24 -1.017 5.02 -0.674 6.969 -2.34 c 0.595 -0.522 1.051 -1.806 0.975 -2.768 c -1.441 1.135 -3.1 1.734 -3.1 1.734 c 0.654 -0.751 1.629 -1.29 2.266 -2.096 c 1.148 -1.453 1.726 -3.362 1.031 -5.07 c -1.021 1.407 -1.953 2.874 -2.971 4.283 c 1.442 -3 3.807 -5.233 1.555 -7.748 c -1.227 3.513 -2.951 6.291 -4.453 8.746 c 0.99 -3 3.618 -5.608 3.736 -8.688 c 0.048 -1.243 -0.284 -3.553 -1.639 -3.641 c -1.099 -0.071 -0.32 1.32 -0.402 3.217 c -0.084 1.929 -0.64 3.793 -1.293 5.594 c 0.427 -2.515 1.626 -5.138 0.732 -7.668 c -0.284 -0.805 -1.125 -2.034 -1.889 -2.113 z m -6.426 5.465 c -0.828 0.009 -1.68 0.323 -2.029 0.912 c -0.184 0.31 -0.085 0.485 -0.006 0.752 l -2.814 0.328 l 0.281 0.994 c -0.504 -0.387 -1.263 -0.612 -1.705 -0.18 c -0.545 0.502 -0.536 1.374 -0.248 2.01 c 0.488 0.045 0.518 -0.539 1.148 -0.623 c 0.849 -0.113 1.783 0.142 2.342 0.791 c 0.277 0.325 0.394 0.87 0.037 1.188 c -0.461 0.436 -1.533 0.88 -1.709 1.166 c 0 0 0.595 -0.03 0.789 -0.053 c 0.806 -0.096 1.644 -0.294 2.26 -0.893 c 0.259 -0.252 0.414 -0.793 0.414 -0.793 c 0.686 0.538 1.333 0.41 1.779 0.145 c 0.265 -0.158 0.801 -0.617 0.801 -0.617 c 0.159 0.335 0.41 0.996 0.41 0.996 l 0.906 -0.121 c -0.115 -0.876 -0.836 -1.369 -1.426 -1.582 c -0.502 -0.182 -1.043 -0.37 -1.389 -0.801 c 0.675 -0.204 1.263 -0.704 1.479 -1.383 c 0.264 -0.672 0.539 -2.148 0.539 -2.148 l -2.531 1.215 l 1.041 -0.922 c 0.113 -0.393 -0.036 -0.382 -0.369 -0.379 z m -2.9 2.695 c 0.222 0.046 0.403 0.178 0.58 0.324 c -0.368 0.297 -1 0.369 -1.404 -0.121 c 0.338 -0.209 0.602 -0.249 0.824 -0.203 z m -0.391 2.518 c -1.759 0.318 -3.47 0.656 -4.227 1.867 l 4.207 -1.172 l 0.02 -0.695 z m -7.17 0.385 c -1.292 0 -1.648 0.724 -1.742 1.512 c -0.098 0.814 -0.042 1.63 -0.094 2.443 c -0.564 -0.545 -0.622 -1.55 -1.424 -1.844 c -0.625 -0.229 -1.053 0.604 -0.896 1.148 c 0.163 0.567 0.977 0.473 0.977 0.473 c 0.162 0.494 0.59 1.188 0.852 1.633 c 0.33 0.561 0.488 1.192 0.637 1.818 c 0.129 0.543 0.419 1.128 0.23 1.67 c -0.182 0.522 -0.284 1.163 0.125 1.588 c 0.23 0.309 0.733 0.889 1.051 0.543 c 0.342 -0.372 0.245 -0.98 0.158 -1.475 l -0.324 -1.855 l 2.844 2.391 c 0.446 0.376 1.385 0.377 1.16 -0.398 c -0.275 -0.948 -1.126 -1.55 -1.932 -2.039 c -0.686 -0.441 -1.462 -0.866 -1.863 -1.604 c -0.248 -0.49 -0.124 -1.167 0.396 -1.428 c 0.629 -0.417 1.554 -0.367 2.02 -1.01 c 0.319 -0.445 -0.259 -0.944 -0.703 -0.984 l -0.889 -0.08 l -1.326 1.238 l 0.748 -3.74 z m 14.375 9.04 c 0.471 -0.04 1.126 0.41 1.697 0.412 c -0.725 0.004 -1.451 0.004 -2.176 -0.021 c 0.112 -0.269 0.28 -0.374 0.479 -0.391 z" style="fill:#f9f9f9;fill-opacity:1;stroke:none;fill-rule:nonzero"/>
   </g>
  </g>
 </g>
 <g>
  <path d="m 40.03 7.531 c 3.712 4.084 5.969 9.514 5.969 15.469 0 12.703 -10.297 23 -23 23 c -5.954 0 -11.384 -2.256 -15.469 -5.969 4.178 4.291 10.01 6.969 16.469 6.969 c 12.703 0 23 -10.298 23 -23 0 -6.462 -2.677 -12.291 -6.969 -16.469 z" style="opacity:0.1"/>
 </g>
</svg>
