<svg version="1.1" viewBox="0 0 48 48" xmlns="http://www.w3.org/2000/svg">
 <defs>
  <linearGradient id="bg" x1="1" x2="47" gradientTransform="matrix(0 -1 1 0 -1.5e-6 48)" gradientUnits="userSpaceOnUse">
   <stop style="stop-color:#7252a2" offset="0"/>
   <stop style="stop-color:#7c5bac" offset="1"/>
  </linearGradient>
 </defs>
 <path d="m36.31 5c5.859 4.062 9.688 10.831 9.688 18.5 0 12.426-10.07 22.5-22.5 22.5-7.669 0-14.438-3.828-18.5-9.688 1.037 1.822 2.306 3.499 3.781 4.969 4.085 3.712 9.514 5.969 15.469 5.969 12.703 0 23-10.298 23-23 0-5.954-2.256-11.384-5.969-15.469-1.469-1.475-3.147-2.744-4.969-3.781zm4.969 3.781c3.854 4.113 6.219 9.637 6.219 15.719 0 12.703-10.297 23-23 23-6.081 0-11.606-2.364-15.719-6.219 4.16 4.144 9.883 6.719 16.219 6.719 12.703 0 23-10.298 23-23 0-6.335-2.575-12.06-6.719-16.219z" style="opacity:.05"/>
 <path d="m41.28 8.781c3.712 4.085 5.969 9.514 5.969 15.469 0 12.703-10.297 23-23 23-5.954 0-11.384-2.256-15.469-5.969 4.113 3.854 9.637 6.219 15.719 6.219 12.703 0 23-10.298 23-23 0-6.081-2.364-11.606-6.219-15.719z" style="opacity:.1"/>
 <path d="m31.25 2.375c8.615 3.154 14.75 11.417 14.75 21.13 0 12.426-10.07 22.5-22.5 22.5-9.708 0-17.971-6.135-21.12-14.75a23 23 0 0 0 44.875-7 23 23 0 0 0-16-21.875z" style="opacity:.2"/>
 <path d="m24 1c12.703 0 23 10.297 23 23s-10.297 23-23 23-23-10.297-23-23 10.297-23 23-23z" style="fill:url(#bg)"/>
 <path d="m32.08 13c-0.109-0.011-0.216 1e-3 -0.32 0.041-1.409 0.542-0.21 2.061 0.213 3.135 0.55 1.47 0.335 3.099-0.035 4.594-0.416-1.041 0.123-2.334-0.707-3.207-0.306-0.322-0.583-0.302-1.408-0.121l0.391 1.605c-0.547-0.713-1.387-2.244-2.709-1.664l1.234 4.701-0.301 2.977-7.377 5.977c-0.419 2.492-0.111 6.01 3.234 5.809l-0.486-1.576c1.458 2.153 2.386 1.776 2.93 1.545l-1.02-1.658c1.593 1.303 3.288 1.89 4.656 0.559l-2.918-1.236c1.827 0.129 4.394 0.649 6.04-0.451 0.992-0.471 0.226-0.653-0.406-0.52-0.568 2e-3 -1.137 8e-3 -1.705 0.012 0.109-0.013 0.217-0.041 0.316-0.102 1.868-0.104 3.997-0.722 4.953-2.457-0.031-1.152-1.7 0.2-2.434 0.182-1.178 0.349-2.426 0.614-3.656 0.414 2.24-1.017 5.02-0.674 6.969-2.34 0.595-0.522 1.051-1.806 0.975-2.768-1.441 1.135-3.1 1.734-3.1 1.734 0.654-0.751 1.629-1.29 2.266-2.096 1.148-1.453 1.726-3.362 1.031-5.07-1.021 1.407-1.953 2.874-2.971 4.283 1.442-3 3.807-5.233 1.555-7.748-1.227 3.513-2.951 6.291-4.453 8.746 0.99-3 3.618-5.608 3.736-8.688 0.048-1.243-0.284-3.553-1.639-3.641-1.099-0.071-0.32 1.32-0.402 3.217-0.084 1.929-0.64 3.793-1.293 5.594 0.427-2.515 1.626-5.138 0.732-7.668-0.284-0.805-1.125-2.034-1.889-2.113zm-11.275 7.457 0.281 0.994c-0.504-0.387-1.263-0.612-1.705-0.18-0.545 0.502-0.536 1.374-0.248 2.01 0.488 0.045 0.518-0.539 1.148-0.623 0.849-0.113 1.783 0.142 2.342 0.791 0.277 0.325 0.394 0.87 0.037 1.188-0.461 0.436-1.533 0.88-1.709 1.166 0 0 0.595-0.03 0.789-0.053 0.806-0.096 1.644-0.294 2.26-0.893 0.259-0.252 0.414-0.793 0.414-0.793 0.686 0.538 1.333 0.41 1.779 0.145 0.265-0.158 0.801-0.617 0.801-0.617 0.159 0.335 0.41 0.996 0.41 0.996l0.906-0.121c-0.115-0.876-0.836-1.369-1.426-1.582-0.502-0.182-1.043-0.37-1.389-0.801 0.675-0.204 1.263-0.704 1.479-1.383 0.264-0.672 0.539-2.148 0.539-2.148l-2.531 1.215 1.041-0.922zm1.558 3.221c-1.759 0.318-3.47 0.656-4.227 1.867l4.207-1.172zm-7.17 0.385c-1.292 0-1.648 0.724-1.742 1.512-0.098 0.814-0.042 1.63-0.094 2.443-0.564-0.545-0.622-1.55-1.424-1.844-0.625-0.229-1.053 0.604-0.896 1.148 0.163 0.567 0.977 0.473 0.977 0.473 1.0062 1.6462 1.5666 3.4656 1.719 5.121-0.182 0.522-0.284 1.163 0.125 1.588 0.23 0.309 0.733 0.889 1.051 0.543 0.342-0.372 0.245-0.98 0.158-1.475l-0.324-1.855 2.844 2.391c0.446 0.376 1.385 0.377 1.16-0.398-0.275-0.948-1.126-1.55-1.932-2.039-0.686-0.441-1.462-0.866-1.863-1.604-0.248-0.49-0.124-1.167 0.396-1.428 0.629-0.417 1.554-0.367 2.02-1.01 0.319-0.445-0.259-0.944-0.703-0.984l-0.889-0.08-1.326 1.238 0.748-3.74z" style="opacity:.1"/>
 <path d="m31.08 12c-0.109-0.011-0.216 1e-3 -0.32 0.041-1.409 0.542-0.21 2.061 0.213 3.135 0.55 1.47 0.335 3.099-0.035 4.594-0.416-1.041 0.123-2.334-0.707-3.207-0.306-0.322-0.583-0.302-1.408-0.121l0.391 1.605c-0.547-0.713-1.387-2.244-2.709-1.664l1.234 4.701-0.301 2.977s-3.459-1e-3 -4.357 0.793c-1.776 1.416-2.655 3.03-3.02 5.184-0.419 2.492-0.111 6.01 3.234 5.809l-0.486-1.576c1.458 2.153 2.386 1.776 2.93 1.545l-1.02-1.658c1.593 1.303 3.288 1.89 4.656 0.559l-2.918-1.236c1.827 0.129 4.394 0.649 6.04-0.451 0.992-0.471 0.23293-0.61423-0.406-0.52-0.45901 0.06769-0.92827-0.03524-1.389-0.09 1.868-0.104 3.997-0.722 4.953-2.457-1.5409-0.65543-4.1843 0.87899-6.09 0.596 2.24-1.017 5.02-0.674 6.969-2.34 0.595-0.522 1.051-1.806 0.975-2.768-1.441 1.135-3.1 1.734-3.1 1.734 0.654-0.751 1.629-1.29 2.266-2.096 1.148-1.453 1.726-3.362 1.031-5.07-1.021 1.407-1.953 2.874-2.971 4.283 1.442-3 3.807-5.233 1.555-7.748-1.227 3.513-2.951 6.291-4.453 8.746 0.99-3 3.618-5.608 3.736-8.688 0.048-1.243-0.284-3.553-1.639-3.641-1.099-0.071-0.32 1.32-0.402 3.217-0.084 1.929-0.64 3.793-1.293 5.594 0.427-2.515 1.626-5.138 0.732-7.668-0.284-0.805-1.125-2.034-1.889-2.113zm-6.426 5.465c-0.828 9e-3 -1.68 0.323-2.029 0.912-0.184 0.31-0.085 0.485-6e-3 0.752l-2.814 0.328 0.281 0.994c-0.504-0.387-1.263-0.612-1.705-0.18-0.545 0.502-0.536 1.374-0.248 2.01 0.488 0.045 0.518-0.539 1.148-0.623 0.849-0.113 1.783 0.142 2.342 0.791 0.277 0.325 0.394 0.87 0.037 1.188-0.461 0.436-1.533 0.88-1.709 1.166 0 0 0.595-0.03 0.789-0.053 0.806-0.096 1.644-0.294 2.26-0.893 0.259-0.252 0.414-0.793 0.414-0.793 0.686 0.538 1.333 0.41 1.779 0.145 0.265-0.158 0.801-0.617 0.801-0.617 0.159 0.335 0.41 0.996 0.41 0.996l0.906-0.121c-0.115-0.876-0.836-1.369-1.426-1.582-0.502-0.182-1.043-0.37-1.389-0.801 0.675-0.204 1.263-0.704 1.479-1.383 0.264-0.672 0.539-2.148 0.539-2.148l-2.531 1.215 1.041-0.922c0.113-0.393-0.036-0.382-0.369-0.379zm-2.9 2.695c0.222 0.046 0.403 0.178 0.58 0.324-0.368 0.297-1 0.369-1.404-0.121 0.338-0.209 0.602-0.249 0.824-0.203zm-0.391 2.518c-1.759 0.318-3.47 0.656-4.227 1.867l4.207-1.172zm-7.17 0.385c-1.292 0-1.648 0.724-1.742 1.512-0.098 0.814-0.042 1.63-0.094 2.443-0.564-0.545-0.622-1.55-1.424-1.844-0.625-0.229-1.053 0.604-0.896 1.148 0.163 0.567 0.977 0.473 0.977 0.473 0.91256 1.6105 1.554 3.3696 1.719 5.121-0.182 0.522-0.284 1.163 0.125 1.588 0.23 0.309 0.733 0.889 1.051 0.543 0.342-0.372 0.245-0.98 0.158-1.475l-0.324-1.855 2.844 2.391c0.446 0.376 1.385 0.377 1.16-0.398-0.275-0.948-1.126-1.55-1.932-2.039-0.686-0.441-1.462-0.866-1.863-1.604-0.248-0.49-0.124-1.167 0.396-1.428 0.629-0.417 1.554-0.367 2.02-1.01 0.319-0.445-0.259-0.944-0.703-0.984l-0.889-0.08-1.326 1.238 0.748-3.74zm14.375 9.04c2.3062 0.45169 1.072 0.4213-0.479 0.391 0.112-0.269 0.28-0.374 0.479-0.391z" style="fill:#f9f9f9"/>
 <path d="m40.03 7.531c3.712 4.084 5.969 9.514 5.969 15.469 0 12.703-10.297 23-23 23-5.954 0-11.384-2.256-15.469-5.969 4.178 4.291 10.01 6.969 16.469 6.969 12.703 0 23-10.298 23-23 0-6.462-2.677-12.291-6.969-16.469z" style="opacity:.1"/>
</svg>
