<svg version="1.1" viewBox="0 0 48 48" xmlns="http://www.w3.org/2000/svg">
 <defs>
  <linearGradient id="bg" x1="1" x2="47" gradientTransform="matrix(0 -1 1 0 -1.5e-6 48)" gradientUnits="userSpaceOnUse">
   <stop style="stop-color:#5796b3" offset="0"/>
   <stop style="stop-color:#659eb9" offset="1"/>
  </linearGradient>
 </defs>
 <path d="m36.31 5c5.859 4.062 9.688 10.831 9.688 18.5 0 12.426-10.07 22.5-22.5 22.5-7.669 0-14.438-3.828-18.5-9.688 1.037 1.822 2.306 3.499 3.781 4.969 4.085 3.712 9.514 5.969 15.469 5.969 12.703 0 23-10.298 23-23 0-5.954-2.256-11.384-5.969-15.469-1.469-1.475-3.147-2.744-4.969-3.781zm4.969 3.781c3.854 4.113 6.219 9.637 6.219 15.719 0 12.703-10.297 23-23 23-6.081 0-11.606-2.364-15.719-6.219 4.16 4.144 9.883 6.719 16.219 6.719 12.703 0 23-10.298 23-23 0-6.335-2.575-12.06-6.719-16.219z" style="opacity:.05"/>
 <path d="m41.28 8.781c3.712 4.085 5.969 9.514 5.969 15.469 0 12.703-10.297 23-23 23-5.954 0-11.384-2.256-15.469-5.969 4.113 3.854 9.637 6.219 15.719 6.219 12.703 0 23-10.298 23-23 0-6.081-2.364-11.606-6.219-15.719z" style="opacity:.1"/>
 <path d="m31.25 2.375c8.615 3.154 14.75 11.417 14.75 21.13 0 12.426-10.07 22.5-22.5 22.5-9.708 0-17.971-6.135-21.12-14.75a23 23 0 0 0 44.875-7 23 23 0 0 0-16-21.875z" style="opacity:.2"/>
 <path d="m24 1c12.703 0 23 10.297 23 23s-10.297 23-23 23-23-10.297-23-23 10.297-23 23-23z" style="fill:url(#bg)"/>
 <g transform="translate(1,1)">
  <g style="opacity:.1"></g>
 </g>
 <path d="m34.19 16-2.4102 2.3574c3.758 3.676 3.7865 9.6091 0.02148 13.289l2.4102 2.3535c5.07-4.953 5.0395-13.05-0.02148-18zm-18.379 0.02344-0.0039 2e-3 2e-3 2e-3c1e-3 -1e-3 9.53e-4 -0.0029 2e-3 -0.0039zm-2e-3 0.0039c-5.067 4.953-5.0835 13.01-0.02149 17.953l2.4102-2.3555c-3.762-3.676-3.7416-9.5681 0.02344-13.244zm8.1915 3.4766v4.25l-2-1.5-0.75 0.75 2.75 2-2.75 2 0.75 0.75 2-1.5v4.25l5-3.5-3-2 3-2zm5.9395 0.57031-1.3203 1.2891c2.059 2.023 2.0757 5.2731 0.01367 7.2891l1.3184 1.2891c2.781-2.715 2.7663-7.1562-0.01172-9.8672zm-9.8789 0.01172c-2.777 2.723-2.7887 7.1406-0.01172 9.8516l1.3184-1.293c-2.059-2.01-2.0494-5.2415 0.01758-7.2695zm4.9395 1.418 2.25 1.5-2.25 1.4004zm0 4 2.25 1.5-2.25 1.5z" style="opacity:.1"/>
 <path d="m33.19 15-2.4102 2.3574c3.758 3.676 3.7865 9.6091 0.02148 13.289l2.4102 2.3535c5.07-4.953 5.0395-13.05-0.02148-18zm-18.379 0.02344-0.0039 2e-3 2e-3 2e-3c1e-3 -1e-3 9.53e-4 -0.0029 2e-3 -0.0039zm-2e-3 0.0039c-5.067 4.953-5.0835 13.01-0.02149 17.953l2.4102-2.3555c-3.762-3.676-3.7416-9.5681 0.02344-13.244zm8.1915 3.4766v4.25l-2-1.5-0.75 0.75 2.75 2-2.75 2 0.75 0.75 2-1.5v4.25l5-3.5-3-2 3-2zm5.9395 0.57031-1.3203 1.2891c2.059 2.023 2.0757 5.2731 0.01367 7.2891l1.3184 1.2891c2.781-2.715 2.7663-7.1562-0.01172-9.8672zm-9.8789 0.01172c-2.777 2.723-2.7887 7.1406-0.01172 9.8516l1.3184-1.293c-2.059-2.01-2.0494-5.2415 0.01758-7.2695zm4.9395 1.418 2.25 1.5-2.25 1.4004zm0 4 2.25 1.5-2.25 1.5z" style="fill:#f9f9f9"/>
 <path d="m40.03 7.531c3.712 4.084 5.969 9.514 5.969 15.469 0 12.703-10.297 23-23 23-5.954 0-11.384-2.256-15.469-5.969 4.178 4.291 10.01 6.969 16.469 6.969 12.703 0 23-10.298 23-23 0-6.462-2.677-12.291-6.969-16.469z" style="opacity:.1"/>
</svg>
