<svg xmlns="http://www.w3.org/2000/svg" viewBox="0 0 48 48">
 <defs>
  <linearGradient id="linearGradient3764" y1="47" x2="0" y2="1" gradientUnits="userSpaceOnUse">
   <stop style="stop-color:#99cbff;stop-opacity:1"/>
   <stop offset="1" style="stop-color:#acd5ff;stop-opacity:1"/>
  </linearGradient>
 </defs>
 <g>
  <path d="m 36.31 5 c 5.859 4.062 9.688 10.831 9.688 18.5 c 0 12.426 -10.07 22.5 -22.5 22.5 c -7.669 0 -14.438 -3.828 -18.5 -9.688 c 1.037 1.822 2.306 3.499 3.781 4.969 c 4.085 3.712 9.514 5.969 15.469 5.969 c 12.703 0 23 -10.298 23 -23 c 0 -5.954 -2.256 -11.384 -5.969 -15.469 c -1.469 -1.475 -3.147 -2.744 -4.969 -3.781 z m 4.969 3.781 c 3.854 4.113 6.219 9.637 6.219 15.719 c 0 12.703 -10.297 23 -23 23 c -6.081 0 -11.606 -2.364 -15.719 -6.219 c 4.16 4.144 9.883 6.719 16.219 6.719 c 12.703 0 23 -10.298 23 -23 c 0 -6.335 -2.575 -12.06 -6.719 -16.219 z" style="opacity:0.05"/>
  <path d="m 41.28 8.781 c 3.712 4.085 5.969 9.514 5.969 15.469 c 0 12.703 -10.297 23 -23 23 c -5.954 0 -11.384 -2.256 -15.469 -5.969 c 4.113 3.854 9.637 6.219 15.719 6.219 c 12.703 0 23 -10.298 23 -23 c 0 -6.081 -2.364 -11.606 -6.219 -15.719 z" style="opacity:0.1"/>
  <path d="m 31.25 2.375 c 8.615 3.154 14.75 11.417 14.75 21.13 c 0 12.426 -10.07 22.5 -22.5 22.5 c -9.708 0 -17.971 -6.135 -21.12 -14.75 a 23 23 0 0 0 44.875 -7 a 23 23 0 0 0 -16 -21.875 z" style="opacity:0.2"/>
 </g>
 <g>
  <path d="m 24 1 c 12.703 0 23 10.297 23 23 c 0 12.703 -10.297 23 -23 23 -12.703 0 -23 -10.297 -23 -23 0 -12.703 10.297 -23 23 -23 z" style="fill:url(#linearGradient3764);fill-opacity:1"/>
 </g>
 <g>
  <g>
   <g transform="translate(1,1)">
    <g style="opacity:0.1">
     <!-- color: #acd5ff -->
     <g>
      <path d="m 31.04 13 c -3.765 0.045 -8.557 1.447 -10.05 1.748 l -0.002 0 c -3.473 1.551 -4.605 3.477 -5.203 6.551 -0.063 0.309 -0.16 0.672 -0.219 0.813 l -0.078 0.186 -0.566 0.521 c -1.584 1.18 -3.03 2.277 -4.596 3.293 -5.605 4.332 3.038 -0.035 8.186 4.125 0.002 0 0.013 -0.03 0.016 -0.033 0.642 2.607 2.284 3.521 0.404 6.568 3.178 -0.023 4.769 0.4 7.939 0.141 l -0.002 0.004 c 0 0 5.625 -1.746 9.988 -2.273 2.777 -0.336 4.383 0.203 4.648 -0.723 -3.125 -7.01 -11.189 -14.32 -7.03 -16.84 0.379 -0.23 1.012 -0.133 1.453 -0.566 0.347 -2.763 -1.96 -3.549 -4.889 -3.514 z" transform="translate(-1,-1)" style="fill:#000"/>
     </g>
    </g>
   </g>
  </g>
 </g>
 <g transform="translate(4.4724862e-4,0)">
  <g>
   <!-- color: #acd5ff -->
   <g>
    <path d="m 17.508 29.16 c 0.355 -0.59 0.68 -2.715 0.559 -3.934 -0.09 -0.926 -0.367 -1.609 -0.813 -2.027 -0.211 -0.195 -0.367 -0.281 -0.879 -0.48 -0.543 -0.211 -1.031 -0.527 -1.516 -0.98 l -0.402 -0.375 0.105 -0.25 c 0.059 -0.141 0.156 -0.504 0.219 -0.813 0.598 -3.074 1.73 -5 5.203 -6.551 0.742 0.145 2.332 -0.336 3.055 -0.488 1.563 -0.336 1.348 0.91 2.848 1.199 0.988 0.191 1.371 0.305 1.848 0.547 0.418 0.207 1.01 0.758 1.227 1.137 0.309 0.539 0.281 1.293 -0.121 3.273 -0.391 1.93 -0.383 2.063 0.262 4.172 0.484 1.59 1.461 2.637 1.496 3.434 -0.848 3.516 -2.707 5.664 -4.719 8.891 -3.18 0.262 -4.77 -0.164 -7.953 -0.141 1.891 -3.066 0.215 -3.969 -0.418 -6.613 m 0 0" style="fill:#fff;fill-opacity:1;stroke:none;fill-rule:nonzero"/>
    <path d="m 14.504 21.281 c 1.379 1.602 2.082 1.395 2.566 1.73 0.457 0.316 1.098 1.012 1.082 2.848 -0.016 1.863 -0.59 3.379 -0.645 3.379 -5.148 -4.16 -13.789 0.207 -8.184 -4.125 1.566 -1.016 3.01 -2.113 4.594 -3.293 m 0.586 -0.539" style="fill:#2d2d2d;fill-opacity:1;stroke:none;fill-rule:nonzero"/>
    <path d="m 19.984,13.75 c 0,0 0.855,0.734 2.371,1.477 2.152,1.059 3.371,4.508 3.25,7.379 -0.109,1.746 2.313,5.5 2.01,7.906 -0.492,3.887 -1.75,5.406 -1.75,5.406 0,0 5.625,-1.746 9.988,-2.273 2.777,-0.336 4.383,0.203 4.648,-0.723 -3.125,-7.01 -11.188,-14.32 -7.03,-16.84 0.379,-0.23 1.012,-0.133 1.453,-0.566 C 35.717,9.2 22.639,13.215 19.986,13.75 m 0,0" style="fill:#2e69b0;fill-opacity:1;stroke:none;fill-rule:nonzero"/>
    <path d="m 33.844 12.844 c -1.867 -0.113 -4.02 1.418 -5.75 2.938 -1.727 1.52 -3 3.063 -3 3.063 l -0.063 0.063 0 0.094 c 0 0 0.086 1.121 0.063 2.469 -0.023 1.348 -0.156 2.93 -0.563 3.75 -0.535 1.078 -1.098 1.961 -1.688 2.5 -0.203 0.184 -0.469 0.422 -0.656 0.625 -0.094 0.102 -0.168 0.199 -0.219 0.313 -0.012 0.027 -0.027 0.043 -0.031 0.094 -0.004 0.051 0.012 0.125 0.063 0.188 0.051 0.063 0.109 0.086 0.156 0.094 0.047 0.008 0.09 0.004 0.125 0 1.027 -0.18 2.094 -0.879 2.938 -1.531 0.844 -0.652 1.438 -1.281 1.438 -1.281 l 0.031 0 5.625 -7.313 0.031 -0.063 0 -0.063 c 0 0 0.035 -0.52 0.156 -1.094 0.059 -0.285 0.145 -0.602 0.25 -0.844 0.105 -0.242 0.25 -0.398 0.375 -0.469 0.41 -0.242 0.918 -0.387 1.281 -0.531 0.109 -0.043 0.195 -0.078 0.281 -0.125 0.086 -0.047 0.164 -0.125 0.219 -0.219 0.184 -0.313 0.086 -0.648 0.063 -0.875 -0.016 -0.156 -0.074 -0.324 -0.125 -0.469 -0.051 -0.145 -0.094 -0.25 -0.094 -0.25 0 0 -0.164 -0.395 -0.344 -0.625 -0.035 -0.047 -0.105 -0.129 -0.188 -0.219 -0.082 -0.09 -0.199 -0.207 -0.375 -0.219 m -12.719 5.563 c -0.234 0.023 -0.488 0.086 -0.719 0.188 -0.457 0.199 -0.82 0.531 -1.031 0.906 -0.211 0.375 -0.262 0.797 -0.094 1.188 0.168 0.391 0.523 0.68 0.938 0.781 0.414 0.102 0.918 0.043 1.375 -0.156 0.457 -0.199 0.82 -0.531 1.031 -0.906 0.211 -0.375 0.262 -0.828 0.094 -1.219 -0.168 -0.391 -0.523 -0.648 -0.938 -0.75 -0.207 -0.051 -0.422 -0.055 -0.656 -0.031 m 0 0" style="fill:#2d2d2d;fill-opacity:1;stroke:none;fill-rule:nonzero"/>
   </g>
  </g>
 </g>
 <g>
  <path d="m 40.03 7.531 c 3.712 4.084 5.969 9.514 5.969 15.469 0 12.703 -10.297 23 -23 23 c -5.954 0 -11.384 -2.256 -15.469 -5.969 4.178 4.291 10.01 6.969 16.469 6.969 c 12.703 0 23 -10.298 23 -23 0 -6.462 -2.677 -12.291 -6.969 -16.469 z" style="opacity:0.1"/>
 </g>
</svg>
