<svg xmlns="http://www.w3.org/2000/svg" viewBox="0 0 48 48">
 <defs>
  <linearGradient id="linearGradient3764" x1="1" x2="47" gradientUnits="userSpaceOnUse" gradientTransform="matrix(0,-1,1,0,-1.5e-6,47.999998)">
   <stop style="stop-color:#a2c7d4;stop-opacity:1"/>
   <stop offset="1" style="stop-color:#b0d0da;stop-opacity:1"/>
  </linearGradient>
 </defs>
 <g>
  <path d="m 36.31 5 c 5.859 4.062 9.688 10.831 9.688 18.5 c 0 12.426 -10.07 22.5 -22.5 22.5 c -7.669 0 -14.438 -3.828 -18.5 -9.688 c 1.037 1.822 2.306 3.499 3.781 4.969 c 4.085 3.712 9.514 5.969 15.469 5.969 c 12.703 0 23 -10.298 23 -23 c 0 -5.954 -2.256 -11.384 -5.969 -15.469 c -1.469 -1.475 -3.147 -2.744 -4.969 -3.781 z m 4.969 3.781 c 3.854 4.113 6.219 9.637 6.219 15.719 c 0 12.703 -10.297 23 -23 23 c -6.081 0 -11.606 -2.364 -15.719 -6.219 c 4.16 4.144 9.883 6.719 16.219 6.719 c 12.703 0 23 -10.298 23 -23 c 0 -6.335 -2.575 -12.06 -6.719 -16.219 z" style="opacity:0.05"/>
  <path d="m 41.28 8.781 c 3.712 4.085 5.969 9.514 5.969 15.469 c 0 12.703 -10.297 23 -23 23 c -5.954 0 -11.384 -2.256 -15.469 -5.969 c 4.113 3.854 9.637 6.219 15.719 6.219 c 12.703 0 23 -10.298 23 -23 c 0 -6.081 -2.364 -11.606 -6.219 -15.719 z" style="opacity:0.1"/>
  <path d="m 31.25 2.375 c 8.615 3.154 14.75 11.417 14.75 21.13 c 0 12.426 -10.07 22.5 -22.5 22.5 c -9.708 0 -17.971 -6.135 -21.12 -14.75 a 23 23 0 0 0 44.875 -7 a 23 23 0 0 0 -16 -21.875 z" style="opacity:0.2"/>
 </g>
 <g>
  <path d="m 24 1 c 12.703 0 23 10.297 23 23 c 0 12.703 -10.297 23 -23 23 -12.703 0 -23 -10.297 -23 -23 0 -12.703 10.297 -23 23 -23 z" style="fill:url(#linearGradient3764);fill-opacity:1"/>
 </g>
 <g>
  <g>
   <g transform="translate(1,1)">
    <g style="opacity:0.1">
     <!-- color: #b0d0da -->
    </g>
   </g>
  </g>
 </g>
 <g>
  <g>
   <!-- color: #b0d0da -->
   <g>
    <path d="m 13.617 11.998 -1.617 1.617 l 7.406 7.43 c 1.242 -1.754 3.281 -2.906 5.594 -2.906 0.895 0 1.742 0.191 2.523 0.5 l 1.715 -1.711 c -1.27 -0.676 -2.699 -1.074 -4.238 -1.074 c -2.109 0 -4.047 0.73 -5.594 1.93 l -5.789 -5.785 z m 22.762 0 0.002 0.002 0.002 -0.002 -0.004 0 z m 0.002 0.002 -7.428 7.377 c 1.762 1.242 2.902 3.305 2.902 5.621 0 0.902 -0.184 1.758 -0.5 2.547 l 1.715 1.715 c 0.68 -1.273 1.074 -2.719 1.074 -4.262 0 -2.109 -0.73 -4.047 -1.93 -5.594 l 5.785 -5.785 -1.619 -1.619 m -11.381 7.998 c -2.76 0 -5 2.24 -5 5 0 2.76 2.24 5 5 5 2.76 0 5 -2.24 5 -5 0 -2.76 -2.24 -5 -5 -5 z m -8.07 0.738 c -0.684 1.273 -1.074 2.715 -1.074 4.262 0 2.109 0.73 4.047 1.93 5.594 l -5.783 5.785 1.615 1.621 7.385 -7.43 c -1.73 -1.246 -2.859 -3.277 -2.859 -5.574 0 -0.898 0.188 -1.758 0.5 -2.547 l -1.713 -1.711 z m 13.666 8.215 c -1.242 1.754 -3.281 2.902 -5.594 2.902 -0.922 0 -1.795 -0.195 -2.596 -0.523 l -1.715 1.717 c 1.285 0.695 2.748 1.094 4.311 1.094 2.109 0 4.047 -0.727 5.594 -1.926 l 5.785 5.785 l 1.621 -1.621 -7.406 -7.428 z" style="fill:#000;opacity:0.1;fill-opacity:1;stroke:none;fill-rule:nonzero"/>
    <path d="m 29 24 c 0 2.76 -2.24 5 -5 5 -2.76 0 -5 -2.24 -5 -5 0 -2.76 2.24 -5 5 -5 2.76 0 5 2.24 5 5 m 0 0" style="fill:#f9ba18;fill-opacity:1;stroke:none;fill-rule:nonzero"/>
    <path d="M 12.617,11 11,12.617 18.406,20.046 C 19.648,18.292 21.687,17.14 24,17.14 c 0.895,0 1.742,0.191 2.523,0.5 l 1.715,-1.711 C 26.968,15.253 25.539,14.855 24,14.855 c -2.109,0 -4.047,0.73 -5.594,1.93 M 35.383,11 27.954,18.379 c 1.762,1.242 2.902,3.305 2.902,5.621 0,0.902 -0.184,1.758 -0.5,2.547 l 1.715,1.715 c 0.68,-1.273 1.074,-2.719 1.074,-4.262 0,-2.109 -0.73,-4.047 -1.93,-5.594 L 37,12.621 35.379,11 M 15.93,19.738 c -0.684,1.273 -1.074,2.715 -1.074,4.262 0,2.109 0.73,4.047 1.93,5.594 l -5.785,5.785 1.617,1.621 7.383,-7.429 c -1.73,-1.246 -2.859,-3.277 -2.859,-5.574 0,-0.898 0.188,-1.758 0.5,-2.547 m 11.953,6.504 c -1.242,1.754 -3.281,2.902 -5.594,2.902 -0.922,0 -1.793,-0.195 -2.594,-0.523 l -1.715,1.715 c 1.285,0.695 2.746,1.094 4.309,1.094 2.109,0 4.047,-0.727 5.594,-1.926 l 5.785,5.785 1.621,-1.621 -7.406,-7.429" style="fill:#174575;fill-opacity:1;stroke:none;fill-rule:nonzero"/>
   </g>
  </g>
 </g>
 <g>
  <path d="m 40.03 7.531 c 3.712 4.084 5.969 9.514 5.969 15.469 0 12.703 -10.297 23 -23 23 c -5.954 0 -11.384 -2.256 -15.469 -5.969 4.178 4.291 10.01 6.969 16.469 6.969 c 12.703 0 23 -10.298 23 -23 0 -6.462 -2.677 -12.291 -6.969 -16.469 z" style="opacity:0.1"/>
 </g>
</svg>
