<svg version="1.1" viewBox="0 0 48 48" xmlns="http://www.w3.org/2000/svg">
 <defs>
  <linearGradient id="bg" x1="1" x2="47" gradientTransform="rotate(-90 24 24)" gradientUnits="userSpaceOnUse">
   <stop style="stop-color:#a2c7d4" offset="0"/>
   <stop style="stop-color:#b0d0da" offset="1"/>
  </linearGradient>
 </defs>
 <path d="m36.3 5c5.86 4.06 9.69 10.8 9.69 18.5 0 12.4-10.1 22.5-22.5 22.5-7.67 0-14.4-3.83-18.5-9.69 1.04 1.82 2.31 3.5 3.78 4.97 4.08 3.71 9.51 5.97 15.5 5.97 12.7 0 23-10.3 23-23 0-5.95-2.26-11.4-5.97-15.5-1.47-1.48-3.15-2.74-4.97-3.78zm4.97 3.78c3.85 4.11 6.22 9.64 6.22 15.7 0 12.7-10.3 23-23 23-6.08 0-11.6-2.36-15.7-6.22 4.16 4.14 9.88 6.72 16.2 6.72 12.7 0 23-10.3 23-23 0-6.34-2.58-12.1-6.72-16.2z" style="opacity:.05"/>
 <path d="m41.3 8.78c3.71 4.08 5.97 9.51 5.97 15.5 0 12.7-10.3 23-23 23-5.95 0-11.4-2.26-15.5-5.97 4.11 3.85 9.64 6.22 15.7 6.22 12.7 0 23-10.3 23-23 0-6.08-2.36-11.6-6.22-15.7z" style="opacity:.1"/>
 <path d="m31.2 2.38c8.62 3.15 14.8 11.4 14.8 21.1 0 12.4-10.1 22.5-22.5 22.5-9.71 0-18-6.14-21.1-14.8a23 23 0 0 0 44.9-7 23 23 0 0 0-16-21.9z" style="opacity:.2"/>
 <path d="m24 1c12.7 0 23 10.3 23 23s-10.3 23-23 23-23-10.3-23-23 10.3-23 23-23z" style="fill:url(#bg)"/>
 <path d="m12 13.6 7.41 7.43c1.24-1.75 3.28-2.91 5.59-2.91 0.895 0 1.74 0.191 2.52 0.5l1.72-1.71c-1.27-0.676-2.7-1.07-4.24-1.07-2.11 0-4.05 0.73-5.59 1.93zm24.4-1.62 2e-3 2e-3 2e-3 -2e-3zm2e-3 2e-3 -7.43 7.38c1.76 1.24 2.9 3.3 2.9 5.62 0 0.902-0.184 1.76-0.5 2.55l1.72 1.72c0.68-1.27 1.07-2.72 1.07-4.26 0-2.11-0.73-4.05-1.93-5.59l5.78-5.78-1.62-1.62m-11.4 8c-2.76 0-5 2.24-5 5s2.24 5 5 5 5-2.24 5-5-2.24-5-5-5zm-8.07 0.738c-0.684 1.27-1.07 2.72-1.07 4.26 0 2.11 0.73 4.05 1.93 5.59l-5.78 5.78 1.62 1.62 7.38-7.43c-1.73-1.25-2.86-3.28-2.86-5.57 0-0.898 0.188-1.76 0.5-2.55l-1.71-1.71zm13.7 8.22c-1.24 1.75-3.28 2.9-5.59 2.9-0.922 0-1.8-0.195-2.6-0.523l-1.72 1.72c1.28 0.695 2.75 1.09 4.31 1.09 2.11 0 4.05-0.727 5.59-1.93l5.78 5.78 1.62-1.62z" style="opacity:.1"/>
 <path d="m29 24c0 2.76-2.24 5-5 5s-5-2.24-5-5 2.24-5 5-5 5 2.24 5 5" style="fill:#f3b71e"/>
 <path d="m12.6 11-1.62 1.62 7.41 7.43c1.24-1.75 3.28-2.91 5.59-2.91 0.895 0 1.74 0.191 2.52 0.5l1.72-1.71c-1.27-0.676-2.7-1.07-4.24-1.07-2.11 0-4.05 0.73-5.59 1.93m17-5.78-7.43 7.38c1.76 1.24 2.9 3.3 2.9 5.62 0 0.902-0.184 1.76-0.5 2.55l1.72 1.72c0.68-1.27 1.07-2.72 1.07-4.26 0-2.11-0.73-4.05-1.93-5.59l5.78-5.78-1.62-1.62m-19.4 8.74c-0.684 1.27-1.07 2.72-1.07 4.26 0 2.11 0.73 4.05 1.93 5.59l-5.78 5.78 1.62 1.62 7.38-7.43c-1.73-1.25-2.86-3.28-2.86-5.57 0-0.898 0.188-1.76 0.5-2.55m12 6.5c-1.24 1.75-3.28 2.9-5.59 2.9-0.922 0-1.79-0.195-2.59-0.523l-1.72 1.72c1.28 0.695 2.75 1.09 4.31 1.09 2.11 0 4.05-0.727 5.59-1.93l5.78 5.78 1.62-1.62-7.41-7.43" style="fill:#225286"/>
 <path d="m40 7.53c3.71 4.08 5.97 9.51 5.97 15.5 0 12.7-10.3 23-23 23-5.95 0-11.4-2.26-15.5-5.97 4.18 4.29 10 6.97 16.5 6.97 12.7 0 23-10.3 23-23 0-6.46-2.68-12.3-6.97-16.5z" style="opacity:.1"/>
</svg>
