<svg version="1.1" viewBox="0 0 48 48" xmlns="http://www.w3.org/2000/svg">
 <defs>
  <linearGradient id="bg" x2="0" y1="1" y2="47" gradientUnits="userSpaceOnUse">
   <stop style="stop-color:#d48f87" offset="0"/>
   <stop style="stop-color:#cf8279" offset="1"/>
  </linearGradient>
 </defs>
 <path d="m36.3 5c5.86 4.06 9.69 10.8 9.69 18.5 0 12.4-10.1 22.5-22.5 22.5-7.67 0-14.4-3.83-18.5-9.69 1.04 1.82 2.31 3.5 3.78 4.97 4.08 3.71 9.51 5.97 15.5 5.97 12.7 0 23-10.3 23-23 0-5.95-2.26-11.4-5.97-15.5-1.47-1.48-3.15-2.74-4.97-3.78zm4.97 3.78c3.85 4.11 6.22 9.64 6.22 15.7 0 12.7-10.3 23-23 23-6.08 0-11.6-2.36-15.7-6.22 4.16 4.14 9.88 6.72 16.2 6.72 12.7 0 23-10.3 23-23 0-6.34-2.58-12.1-6.72-16.2z" style="opacity:.05"/>
 <path d="m41.3 8.78c3.71 4.08 5.97 9.51 5.97 15.5 0 12.7-10.3 23-23 23-5.95 0-11.4-2.26-15.5-5.97 4.11 3.85 9.64 6.22 15.7 6.22 12.7 0 23-10.3 23-23 0-6.08-2.36-11.6-6.22-15.7z" style="opacity:.1"/>
 <path d="m31.2 2.38c8.62 3.15 14.8 11.4 14.8 21.1 0 12.4-10.1 22.5-22.5 22.5-9.71 0-18-6.14-21.1-14.8a23 23 0 0 0 44.9-7 23 23 0 0 0-16-21.9z" style="opacity:.2"/>
 <circle cx="24" cy="24" r="23" style="fill:url(#bg)"/>
 <path d="m40 7.53c3.71 4.08 5.97 9.51 5.97 15.5 0 12.7-10.3 23-23 23-5.95 0-11.4-2.26-15.5-5.97 4.18 4.29 10 6.97 16.5 6.97 12.7 0 23-10.3 23-23 0-6.46-2.68-12.3-6.97-16.5z" style="opacity:.1"/>
 <path d="m25 11-12 20c0 2.77 2.23 5 5 5h14c2.77 0 5-2.23 5-5v-3.07c0-2.68-2.51-3.75-6.01-4.68 0.00696-0.0838 0.00977-0.168 0.00977-0.254v-2.08c0.584-0.205 1-0.76 1-1.42v-1c0-0.277-0.223-0.5-0.5-0.5h-0.5v-1c0-3.32-2.68-6-6-6z" style="opacity:.1"/>
 <path d="m17.5 17c-0.277 0-0.5 0.223-0.5 0.5v1c0 0.831 0.669 1.5 1.5 1.5h11c0.831 0 1.5-0.669 1.5-1.5v-1c0-0.277-0.223-0.5-0.5-0.5z" style="fill:#e2ac74"/>
 <path d="m19 22c-4 1-7 2-7 4.93v3.07c0 2.77 2.23 5 5 5h6l1-1 1 1h6c2.77 0 5-2.23 5-5v-3.07c0-2.93-3-3.93-7-4.93z" style="fill:#504b5d"/>
 <path d="m29 22-11 2 1 2h2.4l-0.0254-0.0644c0.202 0.0424 0.41 0.0644 0.625 0.0644h9l1-2-1-0.5v-0.965c-0.629-0.186-1.3-0.36-2-0.535zm-1 4-3 5v4l5-7z" style="opacity:.1"/>
 <path d="m19 22-2 1 1 2h3zm2 3-2 2 4 6v-3zm8-3-2 3h3l1-2zm-2 3-2 5v3l4-6z" style="fill:#777481"/>
 <path d="m21 25 3-1 3 1-3 4z" style="fill:#e2ac74"/>
 <path d="m21 25 3 2 3-2-2 5v5h-2v-5z" style="fill:#e6e5e5"/>
 <path d="m29 22-2 3h3l1-2zm-2 3-3-1-3 1-0.564 0.564c0.455 0.277 0.991 0.436 1.56 0.436h6zm-6 0-1.38-2.06-0.625 0.0625c0 0.77 0.286 1.47 0.76 2zm1 3c0 1 0.5 2 0.5 2 1.2 0 1.83-0.452 2.23-1.04 0.0871 0.0244 0.177 0.0369 0.268 0.0371 0.0905-2.1e-4 0.18-0.0127 0.268-0.0371 0.345 0.501 0.858 0.904 1.75 1.01l0.934-1.4c1.02e-4 -6.3e-4 -1.02e-4 -1e-3 0-2e-3 0.03-0.186 0.0488-0.379 0.0488-0.572v-1c-0.854 0-1.71 0.161-2.29 0.301z" style="opacity:.1"/>
 <path d="m24 10c-3.32 0-6 2.68-6 6v6c0 1.66 1.34 3 3 3h6c1.66 0 3-1.34 3-3v-6c0-3.32-2.68-6-6-6z" style="fill:#efc08b"/>
 <path d="m18 17v1h3v0.5c0 0.831 0.669 1.5 1.5 1.5h1c0.277 0 0.5-0.223 0.5-0.5v-1.5h2v1.5c0 0.277 0.223 0.5 0.5 0.5h1c0.831 0 1.5-0.669 1.5-1.5v-0.5h1v-1z" style="opacity:.1"/>
 <path d="m18 16v1h2v0.5c0 0.831 0.669 1.5 1.5 1.5h1c0.277 0 0.5-0.223 0.5-0.5v-1.5h2v1.5c0 0.277 0.223 0.5 0.5 0.5h1c0.831 0 1.5-0.669 1.5-1.5v-0.5h2v-1z" style="fill:#4a4851"/>
 <path d="m22.5 21h3c0.277 0 0.5 0.223 0.5 0.5s-0.223 0.5-0.5 0.5h-3c-0.277 0-0.5-0.223-0.5-0.5s0.223-0.5 0.5-0.5z" style="fill:#da674f"/>
 <path d="m21 26v1c0 1 0.5 2 0.5 2 1.2 0 1.83-0.452 2.23-1.04a1 1 0 0 0 0.268 0.0371 1 1 0 0 0 0.268-0.0371c0.403 0.585 1.03 1.04 2.23 1.04 0 0 0.5-1 0.5-2v-1c-0.854 0-1.71 0.161-2.29 0.301a1 1 0 0 0-0.715-0.301 1 1 0 0 0-0.715 0.301c-0.577-0.14-1.43-0.301-2.29-0.301z" style="fill:#444059"/>
</svg>
