<svg xmlns="http://www.w3.org/2000/svg" viewBox="0 0 48 48">
 <defs>
  <linearGradient id="linearGradient3764" x1="1" x2="47" gradientUnits="userSpaceOnUse" gradientTransform="matrix(0,-1,1,0,-1.5e-6,47.999998)">
   <stop style="stop-color:#c3c3c3;stop-opacity:1"/>
   <stop offset="1" style="stop-color:#cdcdcd;stop-opacity:1"/>
  </linearGradient>
 </defs>
 <g>
  <path d="m 36.31 5 c 5.859 4.062 9.688 10.831 9.688 18.5 c 0 12.426 -10.07 22.5 -22.5 22.5 c -7.669 0 -14.438 -3.828 -18.5 -9.688 c 1.037 1.822 2.306 3.499 3.781 4.969 c 4.085 3.712 9.514 5.969 15.469 5.969 c 12.703 0 23 -10.298 23 -23 c 0 -5.954 -2.256 -11.384 -5.969 -15.469 c -1.469 -1.475 -3.147 -2.744 -4.969 -3.781 z m 4.969 3.781 c 3.854 4.113 6.219 9.637 6.219 15.719 c 0 12.703 -10.297 23 -23 23 c -6.081 0 -11.606 -2.364 -15.719 -6.219 c 4.16 4.144 9.883 6.719 16.219 6.719 c 12.703 0 23 -10.298 23 -23 c 0 -6.335 -2.575 -12.06 -6.719 -16.219 z" style="opacity:0.05"/>
  <path d="m 41.28 8.781 c 3.712 4.085 5.969 9.514 5.969 15.469 c 0 12.703 -10.297 23 -23 23 c -5.954 0 -11.384 -2.256 -15.469 -5.969 c 4.113 3.854 9.637 6.219 15.719 6.219 c 12.703 0 23 -10.298 23 -23 c 0 -6.081 -2.364 -11.606 -6.219 -15.719 z" style="opacity:0.1"/>
  <path d="m 31.25 2.375 c 8.615 3.154 14.75 11.417 14.75 21.13 c 0 12.426 -10.07 22.5 -22.5 22.5 c -9.708 0 -17.971 -6.135 -21.12 -14.75 a 23 23 0 0 0 44.875 -7 a 23 23 0 0 0 -16 -21.875 z" style="opacity:0.2"/>
 </g>
 <g>
  <path d="m 24 1 c 12.703 0 23 10.297 23 23 c 0 12.703 -10.297 23 -23 23 -12.703 0 -23 -10.297 -23 -23 0 -12.703 10.297 -23 23 -23 z" style="fill:url(#linearGradient3764);fill-opacity:1"/>
 </g>
 <g>
  <path d="m 40.03 7.531 c 3.712 4.084 5.969 9.514 5.969 15.469 0 12.703 -10.297 23 -23 23 c -5.954 0 -11.384 -2.256 -15.469 -5.969 4.178 4.291 10.01 6.969 16.469 6.969 c 12.703 0 23 -10.298 23 -23 0 -6.462 -2.677 -12.291 -6.969 -16.469 z" style="opacity:0.1"/>
 </g>
 <path d="m 20.02,12 c -2,0 -6,0.25 -6,3.25 L 14.01,28 l 7.01,0 0.006,6.75 c 0,3 4,3.25 6,3.25 2,0 6,-0.25 6,-3.25 l 0,-2.75 -6,0 0,-4 1.99,0 c 1.662,0 3,-1.115 3,-2.5 l 0,-1.5 2,0 c 1.108,0 2,0.669 2,1.5 l 0,2 c 0,0.831 -0.892,1.5 -2,1.5 l -5.99,0 0,2 6.99,0 c 1.662,0 3,-1.115 3,-2.5 l 0,-4 c 0,-1.385 -1.338,-2.5 -3,-2.5 l -3,0 0,-0.5 c 0,-1.385 -1.338,-2.5 -3,-2.5 l -8,0 0,2 7,0 c 0.872,0 1.604,0.418 1.879,1 l -8.879,0 0.004,4 -1,0 0,-8 6,0 0,-2.75 c 0,-3 -4,-3.25 -6,-3.25 z m 3,2 c 0.552,0 1,0.448 1,1 0,0.552 -0.448,1 -1,1 -0.552,0 -1,-0.448 -1,-1 0,-0.552 0.448,-1 1,-1 z m 4.01,10 2.99,0 0,0.5 c 0,0.831 -0.892,1.5 -2,1.5 l -0.99,0 z m 2.99,10 c 0.552,0 1,0.448 1,1 0,0.552 -0.448,1 -1,1 -0.552,0 -1,-0.448 -1,-1 0,-0.552 0.448,-1 1,-1 z" style="fill:#000;opacity:0.1;fill-opacity:1;stroke:none;fill-rule:nonzero"/>
 <path d="m 19.01,11 c -2,0 -6,0.25 -6,3.25 L 13,27 28.01,27 c -0.062,-0.743 -0.255,-2.02 -1,-2 l -8,0 0,-8 6,0 0,-2.75 c 0,-3 -4,-3.25 -6,-3.25 m 3,2 c 0.552,0 1,0.448 1,1 0,0.552 -0.448,1 -1,1 -0.552,0 -1,-0.448 -1,-1 0,-0.552 0.448,-1 1,-1 z" style="fill:#4085b0;fill-opacity:1;stroke:none;fill-rule:nonzero"/>
 <path d="m 20.01 21 0.01 12.75 c 0 3 4 3.25 6 3.25 2 0 6 -0.25 6 -3.25 l 0 -2.75 -6 0 0 -8 6.99 0 c 1.108 0 2 0.669 2 1.5 l 0 2 c 0 0.831 -0.892 1.5 -2 1.5 l -5.99 0 0 2 6.99 0 c 1.662 0 3 -1.115 3 -2.5 l 0 -4 c 0 -1.385 -1.338 -2.5 -3 -2.5 m -5 12 c 0.552 0 1 0.448 1 1 0 0.552 -0.448 1 -1 1 -0.552 0 -1 -0.448 -1 -1 0 -0.552 0.448 -1 1 -1 z" style="fill:#f9f747;fill-opacity:1;stroke:none;fill-rule:nonzero"/>
 <path d="m 27.01 27 1 0 c 1.662 0 3 -1.115 3 -2.5 l 0 -4 c 0 -1.385 -1.338 -2.5 -3 -2.5 l -8 0 0 2 7 0 c 1.108 0 2 0.669 2 1.5 l 0 2 c 0 0.831 -0.892 1.5 -2 1.5 z" style="fill:#4085b0;fill-opacity:1;stroke:none;fill-rule:nonzero"/>
 <path d="m 31.01 21 0 2 1 0 0 -2 z m -5 4 0 2 1 0 0 -2 z" style="fill:#000;opacity:0.1;fill-opacity:1;stroke:none"/>
</svg>
