<svg xmlns="http://www.w3.org/2000/svg" viewBox="0 0 48 48">
 <defs>
  <linearGradient id="linearGradient3764" x1="1" x2="47" gradientUnits="userSpaceOnUse" gradientTransform="matrix(0,-1,1,0,-1.5e-6,47.999998)">
   <stop style="stop-color:#f4eed7;stop-opacity:1"/>
   <stop offset="1" style="stop-color:#f9f5e7;stop-opacity:1"/>
  </linearGradient>
 </defs>
 <g>
  <path d="m 36.31 5 c 5.859 4.062 9.688 10.831 9.688 18.5 c 0 12.426 -10.07 22.5 -22.5 22.5 c -7.669 0 -14.438 -3.828 -18.5 -9.688 c 1.037 1.822 2.306 3.499 3.781 4.969 c 4.085 3.712 9.514 5.969 15.469 5.969 c 12.703 0 23 -10.298 23 -23 c 0 -5.954 -2.256 -11.384 -5.969 -15.469 c -1.469 -1.475 -3.147 -2.744 -4.969 -3.781 z m 4.969 3.781 c 3.854 4.113 6.219 9.637 6.219 15.719 c 0 12.703 -10.297 23 -23 23 c -6.081 0 -11.606 -2.364 -15.719 -6.219 c 4.16 4.144 9.883 6.719 16.219 6.719 c 12.703 0 23 -10.298 23 -23 c 0 -6.335 -2.575 -12.06 -6.719 -16.219 z" style="opacity:0.05"/>
  <path d="m 41.28 8.781 c 3.712 4.085 5.969 9.514 5.969 15.469 c 0 12.703 -10.297 23 -23 23 c -5.954 0 -11.384 -2.256 -15.469 -5.969 c 4.113 3.854 9.637 6.219 15.719 6.219 c 12.703 0 23 -10.298 23 -23 c 0 -6.081 -2.364 -11.606 -6.219 -15.719 z" style="opacity:0.1"/>
  <path d="m 31.25 2.375 c 8.615 3.154 14.75 11.417 14.75 21.13 c 0 12.426 -10.07 22.5 -22.5 22.5 c -9.708 0 -17.971 -6.135 -21.12 -14.75 a 23 23 0 0 0 44.875 -7 a 23 23 0 0 0 -16 -21.875 z" style="opacity:0.2"/>
 </g>
 <g>
  <path d="m 24 1 c 12.703 0 23 10.297 23 23 c 0 12.703 -10.297 23 -23 23 -12.703 0 -23 -10.297 -23 -23 0 -12.703 10.297 -23 23 -23 z" style="fill:url(#linearGradient3764);fill-opacity:1"/>
 </g>
 <g>
  <path d="m 40.03 7.531 c 3.712 4.084 5.969 9.514 5.969 15.469 0 12.703 -10.297 23 -23 23 c -5.954 0 -11.384 -2.256 -15.469 -5.969 4.178 4.291 10.01 6.969 16.469 6.969 c 12.703 0 23 -10.298 23 -23 0 -6.462 -2.677 -12.291 -6.969 -16.469 z" style="opacity:0.1"/>
 </g>
 <path white-space="normal" isolation="auto" mix-blend-mode="normal" d="m 25.43 8.879 c -8.274 0 -14.999 6.725 -14.999 14.999 0 8.274 6.725 14.999 14.999 14.999 4.84 0 9.138 -2.314 11.881 -5.878 l -2.448 0 c -2.385 2.466 -5.722 4 -9.432 4 -7.26 0 -13.12 -5.864 -13.12 -13.12 0 -7.26 5.864 -13.12 13.12 -13.12 3.827 0 7.257 1.641 9.656 4.245 l 2.409 0 c -2.732 -3.703 -7.122 -6.123 -12.06 -6.123" solid-color="#000000" solid-opacity="1" style="visibility:visible;shape-rendering:auto;color-interpolation-filters:linearRGB;fill:#1a1a1a;opacity:0.6;image-rendering:auto;fill-opacity:1;stroke:none;display:inline;color:#000;fill-rule:nonzero;color-rendering:auto;color-interpolation:sRGB"/>
 <g transform="matrix(3.543307,0,0,3.543307,0.9995041,0.0083553)" style="fill:#000;opacity:0.1">
  <g transform="matrix(0.93969262,-0.34202014,0.34202014,0.93969262,-2.1357765,2.5910129)">
   <path transform="matrix(0.26520215,0.09652569,-0.09652569,0.26520215,2.6287723,-1.8030622)" d="M 28.04,13.621 13,19.094 l 6.156,16.914 5.555,-2.02 0.854,1.83 1.881,0.684 2.563,-1.195 1.363,-3.74 2.82,-1.027 -0.363,-1 c 1.363,-0.814 4.01,-2.585 4.684,-4.439 1.419,-3.892 -0.59,-8.197 -4.482,-9.613 -1.771,-0.645 -3.653,-0.583 -5.301,0.039 l -0.693,-1.902 z" style="opacity:1;fill-opacity:1;stroke:none;fill-rule:nonzero"/>
  </g>
 </g>
 <g transform="matrix(3.543307,0,0,3.543307,-4.96e-4,-0.9916446)">
  <g transform="matrix(0.93969262,-0.34202014,0.34202014,0.93969262,-2.1357765,2.5910129)">
   <rect y="4.516" x="4.233" height="5.08" width="4.516" style="fill:#f9f9f9;opacity:1;fill-opacity:1;stroke:none;fill-rule:nonzero"/>
   <rect y="5.08" x="4.798" height="0.282" width="3.387" style="fill:#b3b3b3;opacity:1;fill-opacity:1;stroke:none;fill-rule:nonzero"/>
   <rect width="1.693" height="0.282" x="4.798" y="5.927" style="fill:#b3b3b3;opacity:1;fill-opacity:1;stroke:none;fill-rule:nonzero"/>
   <rect width="2.822" height="0.282" x="4.798" y="6.773" style="fill:#b3b3b3;opacity:1;fill-opacity:1;stroke:none;fill-rule:nonzero"/>
   <rect y="7.62" x="4.798" height="0.282" width="2.258" style="fill:#b3b3b3;opacity:1;fill-opacity:1;stroke:none;fill-rule:nonzero"/>
   <rect y="8.467" x="4.798" height="0.282" width="1.411" style="fill:#b3b3b3;opacity:1;fill-opacity:1;stroke:none;fill-rule:nonzero"/>
  </g>
  <g transform="matrix(0.93969262,0.34202014,-0.34202014,0.93969262,-5.8670107,-1.7611599)">
   <path d="m 15.522 5.08 0 1.129 0.564 0.564 0.564 0 0.564 -0.564 0 -1.129 z" style="fill:#808080;stroke:none;fill-rule:evenodd"/>
   <path transform="scale(0.28222222,0.28222222)" d="M 58,2 C 53.858,2 50.36,5.36 50.5,9.5 50.591,12.191 54,16 54,16 l 1,2 6,0 1,-2 c 0,0 3.498,-3.813 3.5,-6.5 C 65.502,5.358 62.142,2 58,2" style="fill:#ffe680;opacity:1;fill-opacity:1;stroke:none;fill-rule:nonzero"/>
  </g>
 </g>
</svg>
