<svg version="1.1" viewBox="0 0 48 48" xmlns="http://www.w3.org/2000/svg">
 <defs>
  <linearGradient id="bg" x1="1" x2="47" gradientTransform="matrix(0 -1 1 0 -1.5e-6 48)" gradientUnits="userSpaceOnUse">
   <stop style="stop-color:#f4eed7" offset="0"/>
   <stop style="stop-color:#f9f5e7" offset="1"/>
  </linearGradient>
 </defs>
 <path d="m36.31 5c5.859 4.062 9.688 10.831 9.688 18.5 0 12.426-10.07 22.5-22.5 22.5-7.669 0-14.438-3.828-18.5-9.688 1.037 1.822 2.306 3.499 3.781 4.969 4.085 3.712 9.514 5.969 15.469 5.969 12.703 0 23-10.298 23-23 0-5.954-2.256-11.384-5.969-15.469-1.469-1.475-3.147-2.744-4.969-3.781zm4.969 3.781c3.854 4.113 6.219 9.637 6.219 15.719 0 12.703-10.297 23-23 23-6.081 0-11.606-2.364-15.719-6.219 4.16 4.144 9.883 6.719 16.219 6.719 12.703 0 23-10.298 23-23 0-6.335-2.575-12.06-6.719-16.219z" style="opacity:.05"/>
 <path d="m41.28 8.781c3.712 4.085 5.969 9.514 5.969 15.469 0 12.703-10.297 23-23 23-5.954 0-11.384-2.256-15.469-5.969 4.113 3.854 9.637 6.219 15.719 6.219 12.703 0 23-10.298 23-23 0-6.081-2.364-11.606-6.219-15.719z" style="opacity:.1"/>
 <path d="m31.25 2.375c8.615 3.154 14.75 11.417 14.75 21.13 0 12.426-10.07 22.5-22.5 22.5-9.708 0-17.971-6.135-21.12-14.75a23 23 0 0 0 44.875-7 23 23 0 0 0-16-21.875z" style="opacity:.2"/>
 <path d="m24 1c12.703 0 23 10.297 23 23s-10.297 23-23 23-23-10.297-23-23 10.297-23 23-23z" style="fill:url(#bg)"/>
 <path d="m25 9c-8.2843-0.0047-15 6.7157-15 15s6.7157 15.004 15 15c4.7152-2e-3 9.1533-2.2279 11.982-6h-2.6211c-2.4469 2.5505-5.8269 3.9982-9.3613 4-7.1797 0.0036-13-5.8203-13-13s5.8203-13.001 13-13c3.5392 5.24e-4 6.9248 1.4461 9.375 4h2.6016c-2.828-3.77-7.264-5.9973-11.977-6z" style="fill:#1a1a1a;opacity:.6"/>
 <path d="m40.03 7.531c3.712 4.084 5.969 9.514 5.969 15.469 0 12.703-10.297 23-23 23-5.954 0-11.384-2.256-15.469-5.969 4.178 4.291 10.01 6.969 16.469 6.969 12.703 0 23-10.298 23-23 0-6.462-2.677-12.291-6.969-16.469z" style="opacity:.1"/>
 <g transform="matrix(3.5433 0 0 3.5433 .9995 .0083553)" style="opacity:.1">
  <g transform="matrix(.93969 -.34202 .34202 .93969 -2.1358 2.591)">
   <path transform="matrix(.2652 .096526 -.096526 .2652 2.6288 -1.8031)" d="m28.04 13.621-15.04 5.473 6.156 16.914 5.555-2.02 0.854 1.83 1.881 0.684 2.563-1.195 1.363-3.74 2.82-1.027-0.363-1c1.363-0.814 4.01-2.585 4.684-4.439 1.419-3.892-0.59-8.197-4.482-9.613-1.771-0.645-3.653-0.583-5.301 0.039l-0.693-1.902z" style="opacity:1"/>
  </g>
 </g>
 <rect transform="rotate(-20)" x="5.0861" y="21.108" width="16.002" height="18" style="fill:#f9f9f9;stroke-width:3.5433"/>
 <path d="m25.842 15.184-11.277 4.1055 0.33984 0.93945 11.279-4.1055-0.3418-0.93945zm-4.6152 4.873-5.6367 2.0527 0.3418 0.93945 5.6367-2.0527-0.3418-0.93945zm4.7852 1.4492-9.3965 3.4199 0.3418 0.93945 9.3965-3.4199-0.3418-0.93945zm-0.85156 3.5039-7.5176 2.7363 0.3418 0.93945 7.5176-2.7363-0.3418-0.93945zm-1.793 3.8457-4.6992 1.7109 0.3418 0.93945 4.6973-1.7109-0.33984-0.93945z" style="fill:#b3b3b3;stroke-width:3.5433"/>
 <path d="m24.737 28.493-1.3682 3.7591 1.1944 2.5614 1.8779 0.6835 2.5614-1.1944 1.3682-3.7591z" style="fill-rule:evenodd;fill:#808080;stroke-width:3.5433"/>
 <path d="m33.028 14.484c-3.8922-1.4166-8.3283 0.54432-9.6127 4.4825-0.83486 2.5598 1.0658 7.305 1.0658 7.305l0.25565 2.2214 5.6381 2.0521 1.6237-1.5373s4.5911-2.3866 5.512-4.9109c1.4185-3.8915-0.59032-8.1961-4.4825-9.6127" style="fill:#ffe680;stroke-width:.99999"/>
</svg>
