<svg version="1.1" viewBox="0 0 48 48" xmlns="http://www.w3.org/2000/svg" xmlns:xlink="http://www.w3.org/1999/xlink">
 <defs>
  <linearGradient id="linearGradient4246" x1="1" x2="47" gradientUnits="userSpaceOnUse">
   <stop style="stop-color:#7f814a" offset="0"/>
   <stop style="stop-color:#8c8e52" offset="1"/>
  </linearGradient>
  <linearGradient id="linearGradient4544" x1="1" x2="47" y1="24" y2="24" gradientUnits="userSpaceOnUse">
   <stop style="stop-color:#fad716" offset="0"/>
   <stop style="stop-color:#fada2a" offset="1"/>
  </linearGradient>
 </defs>
 <path d="m36.31 5c5.859 4.062 9.688 10.831 9.688 18.5 0 12.426-10.07 22.5-22.5 22.5-7.669 0-14.438-3.828-18.5-9.688 1.037 1.822 2.306 3.499 3.781 4.969 4.085 3.712 9.514 5.969 15.469 5.969 12.703 0 23-10.298 23-23 0-5.954-2.256-11.384-5.969-15.469-1.469-1.475-3.147-2.744-4.969-3.781zm4.969 3.781c3.854 4.113 6.219 9.637 6.219 15.719 0 12.703-10.297 23-23 23-6.081 0-11.606-2.364-15.719-6.219 4.16 4.144 9.883 6.719 16.219 6.719 12.703 0 23-10.298 23-23 0-6.335-2.575-12.06-6.719-16.219z" style="opacity:.05"/>
 <path d="m41.28 8.781c3.712 4.085 5.969 9.514 5.969 15.469 0 12.703-10.297 23-23 23-5.954 0-11.384-2.256-15.469-5.969 4.113 3.854 9.637 6.219 15.719 6.219 12.703 0 23-10.298 23-23 0-6.081-2.364-11.606-6.219-15.719z" style="opacity:.1"/>
 <path d="m31.25 2.375c8.615 3.154 14.75 11.417 14.75 21.13 0 12.426-10.07 22.5-22.5 22.5-9.708 0-17.971-6.135-21.12-14.75a23 23 0 0 0 44.875 -7 23 23 0 0 0 -16 -21.875z" style="opacity:.2"/>
 <g transform="matrix(0,-1,1,0,0,48)" style="fill:url(#linearGradient4246)">
  <path d="m24 1c12.703 0 23 10.297 23 23s-10.297 23-23 23-23-10.297-23-23 10.297-23 23-23z" style="fill:url(#linearGradient4544)"/>
 </g>
 <g transform="matrix(-1 0 0 1 50.021 0)">
  <g transform="translate(1,1)"></g>
 </g>
 <path d="m40.03 7.531c3.712 4.084 5.969 9.514 5.969 15.469 0 12.703-10.297 23-23 23-5.954 0-11.384-2.256-15.469-5.969 4.178 4.291 10.01 6.969 16.469 6.969 12.703 0 23-10.298 23-23 0-6.462-2.677-12.291-6.969-16.469z" style="opacity:.1"/>
 <path d="m38.318 16.001 0.211 1.41-1.355 0.371-0.883-0.133-6.152 1.57 0.859 1.081-1 0.7 4.01 0.576l2.992 1.424v1h1.5c1.381 0 2.5 1.119 2.5 2.5 0 2.5-5 5.5-6.25 5.5h-20c-1.75 0-5.75-3-5.75-5.5 0-1.381 1.119-2.5 2.5-2.5h0.779l0.721-2h6l-0.5-1h-1.5l1-3h2v-1h4l0.5 0.5 4.5 0.4 0.334 0.323 6.871-1.32 0.754-0.605zm-0.82 14h-0.75c-1e-3 0.228-0.041 0.455-0.119 0.67 0.301-0.201 0.583-0.44 0.869-0.67m-4.75 0c-1e-3 0.574-0.248 1.121-0.68 1.5h1.359c-0.431-0.379-0.679-0.926-0.68-1.5zm-4 0c-1e-3 0.574-0.248 1.121-0.68 1.5h1.359c-0.431-0.379-0.679-0.926-0.68-1.5zm-4 0c-1e-3 0.574-0.248 1.121-0.68 1.5h1.359c-0.431-0.379-0.679-0.926-0.68-1.5zm-4 0c-1e-3 0.574-0.248 1.121-0.68 1.5h1.359c-0.431-0.379-0.679-0.926-0.68-1.5zm-4 0c-1e-3 0.574-0.248 1.121-0.68 1.5h1.359c-0.431-0.379-0.679-0.926-0.68-1.5zm-4.068 0h-0.75c0.286 0.23 0.568 0.469 0.869 0.67-0.078-0.215-0.118-0.441-0.119-0.67z" style="opacity:.1"/>
 <path d="m37.32 15 0.211 1.41-1.355 0.371-0.883-0.133-6.152 1.57 0.859 1.081-1 0.7 4.01 0.576 2.992 1.424v1h1.5c1.381 0 2.5 1.119 2.5 2.5 0 2.5-5 5.5-6.25 5.5h-20c-1.75 0-5.75-3-5.75-5.5 0-1.381 1.119-2.5 2.5-2.5h0.779l0.721-2h6l-0.5-1h-1.5l1-3h2v-1h4l0.5 0.5 4.5 0.4 0.334 0.323 6.871-1.32 0.754-0.605zm-0.82 14h-0.75c-1e-3 0.228-0.041 0.455-0.119 0.67 0.301-0.201 0.583-0.44 0.869-0.67m-4.75 0c-1e-3 0.574-0.248 1.121-0.68 1.5h1.359c-0.431-0.379-0.679-0.926-0.68-1.5m-4 0c-1e-3 0.574-0.248 1.121-0.68 1.5h1.359c-0.431-0.379-0.679-0.926-0.68-1.5m-4 0c-1e-3 0.574-0.248 1.121-0.68 1.5h1.359c-0.431-0.379-0.679-0.926-0.68-1.5m-4 0c-1e-3 0.574-0.248 1.121-0.68 1.5h1.359c-0.431-0.379-0.679-0.926-0.68-1.5m-4 0c-1e-3 0.574-0.248 1.121-0.68 1.5h1.359c-0.431-0.379-0.679-0.926-0.68-1.5m-4.068 0h-0.75c0.286 0.23 0.568 0.469 0.869 0.67-0.078-0.215-0.118-0.441-0.119-0.67z" style="fill:#282828"/>
</svg>
