<svg xmlns="http://www.w3.org/2000/svg" viewBox="0 0 48 48">
 <defs>
  <linearGradient id="linearGradient3764" x1="1" x2="47" gradientUnits="userSpaceOnUse" gradientTransform="matrix(0,-1,1,0,-1.5e-6,47.999998)">
   <stop style="stop-color:#64a7a8;stop-opacity:1"/>
   <stop offset="1" style="stop-color:#70afaf;stop-opacity:1"/>
  </linearGradient>
 </defs>
 <g>
  <path d="m 36.31 5 c 5.859 4.062 9.688 10.831 9.688 18.5 c 0 12.426 -10.07 22.5 -22.5 22.5 c -7.669 0 -14.438 -3.828 -18.5 -9.688 c 1.037 1.822 2.306 3.499 3.781 4.969 c 4.085 3.712 9.514 5.969 15.469 5.969 c 12.703 0 23 -10.298 23 -23 c 0 -5.954 -2.256 -11.384 -5.969 -15.469 c -1.469 -1.475 -3.147 -2.744 -4.969 -3.781 z m 4.969 3.781 c 3.854 4.113 6.219 9.637 6.219 15.719 c 0 12.703 -10.297 23 -23 23 c -6.081 0 -11.606 -2.364 -15.719 -6.219 c 4.16 4.144 9.883 6.719 16.219 6.719 c 12.703 0 23 -10.298 23 -23 c 0 -6.335 -2.575 -12.06 -6.719 -16.219 z" style="opacity:0.05"/>
  <path d="m 41.28 8.781 c 3.712 4.085 5.969 9.514 5.969 15.469 c 0 12.703 -10.297 23 -23 23 c -5.954 0 -11.384 -2.256 -15.469 -5.969 c 4.113 3.854 9.637 6.219 15.719 6.219 c 12.703 0 23 -10.298 23 -23 c 0 -6.081 -2.364 -11.606 -6.219 -15.719 z" style="opacity:0.1"/>
  <path d="m 31.25 2.375 c 8.615 3.154 14.75 11.417 14.75 21.13 c 0 12.426 -10.07 22.5 -22.5 22.5 c -9.708 0 -17.971 -6.135 -21.12 -14.75 a 23 23 0 0 0 44.875 -7 a 23 23 0 0 0 -16 -21.875 z" style="opacity:0.2"/>
 </g>
 <g>
  <path d="m 24 1 c 12.703 0 23 10.297 23 23 c 0 12.703 -10.297 23 -23 23 -12.703 0 -23 -10.297 -23 -23 0 -12.703 10.297 -23 23 -23 z" style="fill:url(#linearGradient3764);fill-opacity:1"/>
 </g>
 <g>
  <g>
   <g transform="translate(1,1)">
    <g style="opacity:0.1">
     <!-- color: #70afaf -->
     <g>
      <path d="m 25.18 21.988 c -0.093 -0.004 -0.167 0.001 -0.23 0.018 l 0 0.021 c -0.421 -0.035 -1.228 0.057 -2.887 1.629 c -1.949 1.828 -2.066 3.543 -2.066 3.543 l 0.002 0.016 c 0 0 0.367 0.218 0.959 0.465 c 0.175 0.345 0.569 0.883 1.582 1.473 c 1.43 0.832 2.125 0.864 2.469 0.844 l 0.004 0 c 0.043 0.004 0.086 0.008 0.141 0.008 c 0.387 -0.008 1.077 -0.133 2.307 -0.848 c 1.058 -0.616 1.445 -1.178 1.607 -1.518 c 0.573 -0.241 0.93 -0.451 0.93 -0.451 c 0 0 -0.117 -1.695 -2.07 -3.543 c -1.465 -1.383 -2.289 -1.629 -2.75 -1.645 l 0.004 -0.012 z" transform="translate(-1,-1)"/>
      <path d="m 11.05 14.988 c 0.32 2.141 2.238 3.434 4.285 2.891 c 2.047 -0.543 3.445 -2.719 3.121 -4.863 c -0.32 -2.141 -2.238 -3.434 -4.281 -2.891 c -2.047 0.543 -3.445 2.723 -3.125 4.863 m 0 0" style="fill:#000;fill-opacity:1;stroke:none;fill-rule:evenodd"/>
      <path d="m 36.461 14.988 c -0.32 2.141 -2.242 3.434 -4.285 2.891 c -2.047 -0.543 -3.445 -2.719 -3.125 -4.863 c 0.32 -2.141 2.238 -3.434 4.285 -2.891 c 2.047 0.543 3.445 2.723 3.125 4.863 m 0 0" style="fill:#000;fill-opacity:1;stroke:none;fill-rule:evenodd"/>
     </g>
    </g>
   </g>
  </g>
 </g>
 <g transform="translate(-3.9348121e-4,0)">
  <g>
   <!-- color: #70afaf -->
   <g>
    <path d="m 24.02 25.57 c 0.086 0.008 1.148 0.098 2.332 0.289 1.137 0.18 1.848 0.457 1.848 0.457 0 0 -0.102 0.887 -1.738 1.84 -1.23 0.715 -1.918 0.84 -2.305 0.848 -0.055 0 -0.098 -0.004 -0.141 -0.008 0 0 -0.004 0 -0.004 0 -0.344 0.02 -1.039 -0.012 -2.469 -0.844 -1.637 -0.953 -1.734 -1.84 -1.734 -1.84 0 0 0.707 -0.277 1.844 -0.457 1.184 -0.188 2.246 -0.281 2.332 -0.285 l 0 -0.004 c 0 0 0.016 0 0.016 0 0 0 0.016 0 0.016 0 m 0.004 0.004" style="fill:#c04c25;fill-opacity:1;stroke:none;fill-rule:nonzero"/>
    <path d="m 19 26.2 c 0 0 0.117 -1.715 2.066 -3.543 1.949 -1.848 2.758 -1.66 3.098 -1.613 0.34 0.047 -0.082 2.332 -0.082 2.332 l -0.066 4.289 c 0 0 -1.344 -0.18 -2.816 -0.563 -1.352 -0.352 -2.199 -0.887 -2.199 -0.887 m 0 -0.016" style="fill:#fad5b9;fill-opacity:1;stroke:none;fill-rule:nonzero"/>
    <path d="m 24.18 21 c 0.461 0.016 1.285 0.262 2.75 1.645 1.953 1.848 2.07 3.543 2.07 3.543 0 0 -0.848 0.535 -2.203 0.887 -1.469 0.383 -2.816 0.559 -2.816 0.559 l -0.027 -1.789 0 -4.84 c 0.063 -0.008 0.137 -0.02 0.23 -0.016 m -0.004 0.012" style="fill:#ff7f28;fill-opacity:1;stroke:none;fill-rule:nonzero"/>
    <path d="m 11.05 14.988 c 0.32 2.141 2.238 3.434 4.285 2.891 2.047 -0.543 3.445 -2.719 3.121 -4.863 -0.32 -2.141 -2.238 -3.434 -4.281 -2.891 -2.047 0.543 -3.445 2.723 -3.125 4.863 m 0 0" style="fill:#192028;fill-opacity:1;stroke:none;fill-rule:evenodd"/>
    <path d="m 14.805 13.176 c -0.59 0.426 -1.281 0.465 -1.551 0.09 -0.27 -0.379 -0.008 -1.031 0.582 -1.461 0.59 -0.426 1.285 -0.465 1.551 -0.086 0.27 0.379 0.008 1.031 -0.582 1.457 m 0 0" style="fill:#fff;fill-opacity:0.765;stroke:none;fill-rule:evenodd"/>
    <path d="m 12.434 12.844 c -0.324 0.531 -0.477 1.16 -0.383 1.773 0.203 1.363 1.52 2.16 2.938 1.781 1.422 -0.375 2.402 -1.785 2.199 -3.145 -0.086 -0.559 -0.352 -1.023 -0.738 -1.348 0.699 0.375 1.211 1.055 1.34 1.926 0.246 1.637 -0.938 3.328 -2.645 3.781 -1.703 0.453 -3.285 -0.504 -3.531 -2.141 -0.141 -0.941 0.191 -1.898 0.82 -2.629 m 0 0" style="fill:#fff;fill-opacity:0.102;stroke:none;fill-rule:evenodd"/>
    <path d="m 36.461 14.988 c -0.32 2.141 -2.242 3.434 -4.285 2.891 -2.047 -0.543 -3.445 -2.719 -3.125 -4.863 0.32 -2.141 2.238 -3.434 4.285 -2.891 2.047 0.543 3.445 2.723 3.125 4.863 m 0 0" style="fill:#192028;fill-opacity:1;stroke:none;fill-rule:evenodd"/>
    <path d="m 30.977 12.06 c 0.367 -0.629 0.988 -0.941 1.387 -0.703 0.395 0.242 0.418 0.945 0.047 1.57 -0.371 0.625 -0.992 0.941 -1.387 0.699 -0.398 -0.238 -0.418 -0.941 -0.047 -1.566 m 0 0" style="fill:#fff;fill-opacity:0.765;stroke:none;fill-rule:evenodd"/>
    <path d="m 34.656 12.422 c 0.324 0.535 0.477 1.16 0.383 1.777 -0.203 1.359 -1.52 2.156 -2.938 1.781 -1.422 -0.379 -2.402 -1.785 -2.199 -3.148 0.082 -0.555 0.352 -1.02 0.738 -1.348 -0.703 0.379 -1.211 1.059 -1.34 1.926 -0.246 1.637 0.938 3.328 2.645 3.781 1.703 0.453 3.285 -0.504 3.531 -2.141 0.141 -0.938 -0.191 -1.898 -0.82 -2.629 m 0 0" style="fill:#fff;fill-opacity:0.102;stroke:none;fill-rule:evenodd"/>
   </g>
  </g>
 </g>
 <g>
  <path d="m 40.03 7.531 c 3.712 4.084 5.969 9.514 5.969 15.469 0 12.703 -10.297 23 -23 23 c -5.954 0 -11.384 -2.256 -15.469 -5.969 4.178 4.291 10.01 6.969 16.469 6.969 c 12.703 0 23 -10.298 23 -23 0 -6.462 -2.677 -12.291 -6.969 -16.469 z" style="opacity:0.1"/>
 </g>
</svg>
