<svg version="1.1" viewBox="0 0 48 48" xmlns="http://www.w3.org/2000/svg" xmlns:xlink="http://www.w3.org/1999/xlink">
 <defs>
  <linearGradient id="linearGradient895" x1=".938" x2="46.938" gradientTransform="rotate(-90 23.938 23.953)" gradientUnits="userSpaceOnUse">
   <stop style="stop-color:#5faee1" offset="0"/>
   <stop style="stop-color:#4ea5de" offset="1"/>
  </linearGradient>
 </defs>
 <path d="m36.31 5c5.859 4.062 9.688 10.831 9.688 18.5 0 12.426-10.07 22.5-22.5 22.5-7.669 0-14.438-3.828-18.5-9.688 1.037 1.822 2.306 3.499 3.781 4.969 4.085 3.712 9.514 5.969 15.469 5.969 12.703 0 23-10.298 23-23 0-5.954-2.256-11.384-5.969-15.469-1.469-1.475-3.147-2.744-4.969-3.781zm4.969 3.781c3.854 4.113 6.219 9.637 6.219 15.719 0 12.703-10.297 23-23 23-6.081 0-11.606-2.364-15.719-6.219 4.16 4.144 9.883 6.719 16.219 6.719 12.703 0 23-10.298 23-23 0-6.335-2.575-12.06-6.719-16.219z" style="opacity:.05"/>
 <path d="m41.28 8.781c3.712 4.085 5.969 9.514 5.969 15.469 0 12.703-10.297 23-23 23-5.954 0-11.384-2.256-15.469-5.969 4.113 3.854 9.637 6.219 15.719 6.219 12.703 0 23-10.298 23-23 0-6.081-2.364-11.606-6.219-15.719z" style="opacity:.1"/>
 <path d="m31.25 2.375c8.615 3.154 14.75 11.417 14.75 21.13 0 12.426-10.07 22.5-22.5 22.5-9.708 0-17.971-6.135-21.12-14.75a23 23 0 0 0 44.875-7 23 23 0 0 0-16-21.875z" style="opacity:.2"/>
 <path d="m0.93738 23.953c0-12.703 10.297-23 23-23s23 10.297 23 23-10.297 23-23 23-23-10.297-23-23z" style="fill:url(#linearGradient895)"/>
 <path d="m24.5 13c-1.657 0-3 1.343-3 3 0 0.709 0.245 1.362 0.656 1.875l-2.375 5.188c-1.614 0.261-2.944 1.381-3.5 2.875-0.375-0.031-0.741-0.044-1.063-0.031-0.699 0.028-1.274 0.159-1.75 0.375-0.82 0.372-1.316 1.03-1.375 1.719-9e-3 0.111-0.014 0.233 0 0.344 0.101 0.799 0.812 1.435 1.813 1.594 0.712 0.113 1.588-5e-3 2.594-0.406 0.518 1.019 1.411 1.799 2.5 2.188 0 0-3 2.279-3 2.281h-1v3h11v-3h-1l-3-2v-0.281c1.742-0.621 3-2.264 3-4.219 0-1.153-0.443-2.204-1.156-3l1.625-5.688c0.238-0.083 0.481-0.176 0.688-0.313 0.567 0.701 1.096 1.346 1.563 1.844 0.677 0.723 1.251 1.235 1.906 1.438 0.328 0.101 0.707 0.101 1.031-0.031s0.576-0.375 0.813-0.688c0.391-0.515 0.745-1.252 1.094-2.25 0.141 0.058 0.285 0.094 0.438 0.125v6.06h-2v2h1l-1.876 2.187 1.656 2-0.344-2.031h0.031l1-1.156h0.531v1l0.5 1.469 0.5-1.469v-1h0.531l1 1.156-0.313 2.031 1.625-2-1.844-2.187h1v-2h-0.406c0.233-1.654 0.911-3.679 1.219-4.188 0.094-0.155 0.205-0.317 0.25-0.531s5e-3 -0.467-0.094-0.688c-0.17-0.38-0.779-1.196-1.375-1.75 0.247-0.388 0.406-0.85 0.406-1.344 0-1.381-1.119-2.5-2.5-2.5-1.071 0-1.987 0.679-2.344 1.625l-3.813-0.5c-0.38-1.221-1.498-2.125-2.844-2.125zm3 3.063 3.531 0.156c-0.011 0.094-0.031 0.184-0.031 0.281 0 0.151 0.037 0.294 0.063 0.438l-3.656-0.219c0.053-0.214 0.089-0.427 0.094-0.656zm-0.438 1.469 4.188 0.031c0.113 0.238 0.258 0.467 0.438 0.656-0.359 1.078-0.707 1.863-1 2.25-0.165 0.218-0.301 0.301-0.406 0.344-0.106 0.043-0.19 0.079-0.344 0.031-0.307-0.095-0.833-0.508-1.469-1.188-0.445-0.476-0.974-1.136-1.563-1.844 0.064-0.085 0.101-0.189 0.156-0.281zm7.813 1.063c0.571 0.518 1.143 1.307 1.188 1.406 0.02911 0.09755-0.06781 0.2258-0.094 0.313-0.237 0.391-1.106 2.779-1.375 4.688h-0.594v-6.06c0.312-0.064 0.617-0.176 0.875-0.344zm-19.594 8.313c0.236-9e-3 0.495 0.024 0.781 0.063-0.021 0.177-0.063 0.349-0.063 0.531 0 0.356 0.047 0.699 0.125 1.031-0.885 0.364-1.576 0.483-2.063 0.406-0.684-0.109-0.93-0.448-0.969-0.75-7e-3 -0.057-8e-3 -0.126 0-0.188 0.036-0.268 0.237-0.565 0.781-0.813 0.335-0.152 0.813-0.257 1.406-0.281z" style="color:#000000;opacity:.1"/>
 <path d="m40.03 7.531c3.712 4.084 5.969 9.514 5.969 15.469 0 12.703-10.297 23-23 23-5.954 0-11.384-2.256-15.469-5.969 4.178 4.291 10.01 6.969 16.469 6.969 12.703 0 23-10.298 23-23 0-6.462-2.677-12.291-6.969-16.469z" style="opacity:.1"/>
 <g transform="translate(.00016625)">
  <path d="m25.13 15.906-0.75 0.625c0.925 1.127 1.667 2.089 2.344 2.813 0.677 0.723 1.251 1.235 1.906 1.438 0.328 0.101 0.707 0.101 1.031-0.031s0.576-0.375 0.813-0.688c0.474-0.625 0.887-1.549 1.313-2.906l-0.969-0.313c-0.411 1.312-0.794 2.189-1.125 2.625-0.165 0.218-0.301 0.301-0.406 0.344-0.106 0.043-0.19 0.079-0.344 0.031-0.307-0.095-0.833-0.508-1.469-1.188-0.636-0.679-1.417-1.62-2.344-2.75z" style="fill:#0e334c"/>
  <path d="m17.215 25.475 4.7846-10.475 3 1-3 10.5z" style="fill:#e4ae00"/>
  <rect x="14" y="33" width="11" height="3" style="fill:#0e334c"/>
  <path d="m15 33 3-2v-2h3v2l3 2z" style="fill:#e4ae00"/>
  <path transform="translate(-.00016625)" d="m25.346 14 0.17578 1 5.4785 0.27344v-0.55078l-5.6543-0.72266zm-1.5762 1.5254 0.28125 0.99023 6.9785 0.037109-0.029297-0.55273-7.2305-0.47461z" style="fill:#0e334c"/>
  <path d="m18 26 5-11 1.313 0.68-3.656 11.32" style="fill:#0e334c"/>
  <path d="m14.219 24.906c-0.699 0.028-1.274 0.159-1.75 0.375-0.82 0.372-1.316 1.03-1.375 1.719h1c0.036-0.268 0.237-0.565 0.781-0.813 0.335-0.152 0.813-0.257 1.406-0.281 0.49-0.02 1.106 0.092 1.781 0.219l0.625-0.969c-0.82855-0.19592-1.7098-0.22974-2.468-0.25z" style="color:#000000;fill:#0e334c"/>
  <circle transform="matrix(1.125 0 0 1.125 -2.4233 -5)" cx="19.487" cy="28" r="4" style="fill:#ffcf36"/>
  <circle transform="matrix(.625 0 0 .625 7.3204 9)" cx="19.487" cy="28" r="4" style="fill:#0e334c"/>
  <circle transform="matrix(1.1566 0 0 1.1566 -3.5723 -1.8072)" cx="23.406" cy="14.531" r="2.594" style="fill:#ffcf36"/>
  <circle transform="matrix(.57831 0 0 .57831 9.9639 6.5964)" cx="23.406" cy="14.531" r="2.594" style="fill:#0e334c"/>
  <path d="m32 17h1v8h-1z" style="fill:#0e334c"/>
  <path d="m34.31 16.594-0.625 0.813c0.634 0.484 1.319 1.496 1.368 1.607 0.02911 0.09755-0.06781 0.2258-0.094 0.313-0.281 0.463-1.462 3.719-1.462 5.675h1c0-1.719 0.931-4.557 1.306-5.175 0.094-0.155 0.205-0.317 0.25-0.531s5e-3 -0.467-0.094-0.688c-0.196-0.441-0.973-1.497-1.65-2.01z" style="color:#000000;fill:#0e334c"/>
  <circle transform="matrix(1.25,0,0,1.25,-7.5,-4.5)" cx="32" cy="16" r="2" style="fill:#ffcf36"/>
  <circle transform="matrix(1.5,0,0,1.5,-15.5,-8.5)" cx="32" cy="16" r="1" style="fill:#0e334c"/>
  <path d="m30 24h5v2h-5z" style="fill:#ffcf36"/>
  <path transform="translate(-.00016625)" d="m31 26-1.8594 2.1875 1.6484 2.0098-0.33398-2.0312 1.0039-1.166h0.54102v1l0.49219 1.4688 0.50781-1.4688v-1h0.54102l1.002 1.1641-0.33203 2.0234 1.6484-2.0098-1.8594-2.1777z" style="fill:#0e334c"/>
  <path d="m11.09 27c-9e-3 0.111-0.014 0.233 0 0.344 0.101 0.799 0.812 1.435 1.813 1.594 1 0.159 2.301-0.108 3.875-1.031l-0.75-0.781c-1.304 0.71-2.329 0.914-2.969 0.813-0.684-0.109-0.93-0.448-0.969-0.75-7e-3 -0.057-8e-3 -0.126 0-0.188z" style="fill:#0e334c"/>
 </g>
</svg>
