<svg xmlns="http://www.w3.org/2000/svg" viewBox="0 0 48 48">
 <defs>
  <linearGradient id="linearGradient3775" y1="1" x2="0" y2="47" gradientUnits="userSpaceOnUse">
   <stop style="stop-color:#42d442;stop-opacity:1"/>
   <stop offset="1" style="stop-color:#32d032;stop-opacity:0.992"/>
  </linearGradient>
  <linearGradient id="linearGradient3801" y1="1" x2="0" y2="47" gradientUnits="userSpaceOnUse">
   <stop style="stop-color:#2aa42a;stop-opacity:1"/>
   <stop offset="1" style="stop-color:#269426;stop-opacity:1"/>
  </linearGradient>
 </defs>
 <g>
  <path d="m 36.31 5 c 5.859 4.062 9.688 10.831 9.688 18.5 c 0 12.426 -10.07 22.5 -22.5 22.5 c -7.669 0 -14.438 -3.828 -18.5 -9.688 c 1.037 1.822 2.306 3.499 3.781 4.969 c 4.085 3.712 9.514 5.969 15.469 5.969 c 12.703 0 23 -10.298 23 -23 c 0 -5.954 -2.256 -11.384 -5.969 -15.469 c -1.469 -1.475 -3.147 -2.744 -4.969 -3.781 z m 4.969 3.781 c 3.854 4.113 6.219 9.637 6.219 15.719 c 0 12.703 -10.297 23 -23 23 c -6.081 0 -11.606 -2.364 -15.719 -6.219 c 4.16 4.144 9.883 6.719 16.219 6.719 c 12.703 0 23 -10.298 23 -23 c 0 -6.335 -2.575 -12.06 -6.719 -16.219 z" style="opacity:0.05"/>
  <path d="m 41.28 8.781 c 3.712 4.085 5.969 9.514 5.969 15.469 c 0 12.703 -10.297 23 -23 23 c -5.954 0 -11.384 -2.256 -15.469 -5.969 c 4.113 3.854 9.637 6.219 15.719 6.219 c 12.703 0 23 -10.298 23 -23 c 0 -6.081 -2.364 -11.606 -6.219 -15.719 z" style="opacity:0.1"/>
  <path d="m 31.25 2.375 c 8.615 3.154 14.75 11.417 14.75 21.13 c 0 12.426 -10.07 22.5 -22.5 22.5 c -9.708 0 -17.971 -6.135 -21.12 -14.75 a 23 23 0 0 0 44.875 -7 a 23 23 0 0 0 -16 -21.875 z" style="opacity:0.2"/>
 </g>
 <path d="m 24 1 c -1.721 0 -3.387 0.204 -5 0.563 l 0 44.875 c 1.613 0.358 3.279 0.563 5 0.563 c 1.721 0 3.387 -0.204 5 -0.563 l 0 -44.875 c -1.613 -0.358 -3.279 -0.563 -5 -0.563 z" style="fill:url(#linearGradient3775);fill-opacity:1;stroke:none;fill-rule:nonzero"/>
 <path d="m 9 6.563 c -4.897 4.218 -8 10.467 -8 17.438 c 0 6.971 3.103 13.22 8 17.438 l 0 -34.875 z" style="fill:url(#linearGradient3775);fill-opacity:1;stroke:none;fill-rule:nonzero"/>
 <path d="m 19 1.563 c -3.76 0.835 -7.182 2.573 -10 5 l 0 34.875 c 2.818 2.427 6.24 4.165 10 5 l 0 -44.875 z" style="fill:url(#linearGradient3801);fill-opacity:1;stroke:none;fill-rule:nonzero"/>
 <path d="m 29 1.563 l 0 44.875 c 3.76 -0.835 7.182 -2.573 10 -5 l 0 -34.875 c -2.818 -2.427 -6.24 -4.165 -10 -5 z" style="fill:url(#linearGradient3801);fill-opacity:1;stroke:none;fill-rule:nonzero"/>
 <path d="m 39 6.563 l 0 34.875 c 4.897 -4.218 8 -10.467 8 -17.438 c 0 -6.971 -3.103 -13.22 -8 -17.438 z" style="fill:url(#linearGradient3775);fill-opacity:1;stroke:none;fill-rule:nonzero"/>
 <g>
  <path d="m 40.03 7.531 c 3.712 4.084 5.969 9.514 5.969 15.469 0 12.703 -10.297 23 -23 23 c -5.954 0 -11.384 -2.256 -15.469 -5.969 4.178 4.291 10.01 6.969 16.469 6.969 c 12.703 0 23 -10.298 23 -23 0 -6.462 -2.677 -12.291 -6.969 -16.469 z" style="opacity:0.1"/>
 </g>
 <g>
  <g transform="matrix(0.13611111,0,0,0.12903442,8.7848091,12.374579)" style="fill:#000;fill-opacity:0.284">
   <path d="m 210.97 54.719 -11.191 -40.43 -15.316 -13.316 l -31.978 0 c -23.661 16.427 -36.855 15.92 -61.03 0 l -32.712 0 l -14.214 13.393 -13.557 40.35 l 30 20 2.881 -16.16 7.119 136.16 100 -5 5 -130 5 15 z" style="fill-opacity:0.118;stroke:none;fill-rule:evenodd"/>
  </g>
  <g transform="matrix(1.0315918,0,0,1.0345598,-0.74325354,-0.56800087)">
   <g transform="matrix(0.1319428,0,0,0.12472398,8.2668964,11.543635)" style="fill:#d00;fill-opacity:1">
    <path d="m 210.97 54.719 -11.191 -40.43 -15.316 -13.316 l -30.94 0 c -23.661 16.427 -37.1 15.92 -61.28 0 l -33.506 0 l -14.214 13.393 -13.557 40.35 l 30 20 2.881 -16.16 7.119 136.16 100 -5 5 -130 5 15 z" style="fill:#db1515;stroke:none;fill-rule:evenodd"/>
   </g>
   <path d="m 19.751 28.38 0.058 -1.318 0.87 -0.075 c 0 0 0.182 -3.281 0.338 -5.884 l -1.073 0.339 0.24 -1.901 2.885 -0.87 -0.449 8.169 0.869 -0.076 -0.053 1.331 z" style="fill:#f5f5f5;fill-opacity:1"/>
   <path d="m 24.914 28.38 0.058 -1.318 0.87 -0.075 c 0 0 0.182 -3.281 0.338 -5.884 l -1.073 0.339 0.24 -1.901 2.885 -0.87 -0.449 8.169 0.869 -0.076 -0.053 1.331 z" style="fill:#f5f5f5;fill-opacity:1"/>
  </g>
 </g>
</svg>
