<svg xmlns="http://www.w3.org/2000/svg" viewBox="0 0 48 48">
 <defs>
  <linearGradient id="linearGradient3764" x1="1" x2="47" gradientUnits="userSpaceOnUse" gradientTransform="matrix(0,-1,1,0,-1.5e-6,47.999998)">
   <stop style="stop-color:#d7d7d7;stop-opacity:1"/>
   <stop offset="1" style="stop-color:#e1e1e1;stop-opacity:1"/>
  </linearGradient>
 </defs>
 <g>
  <path d="m 36.31 5 c 5.859 4.062 9.688 10.831 9.688 18.5 c 0 12.426 -10.07 22.5 -22.5 22.5 c -7.669 0 -14.438 -3.828 -18.5 -9.688 c 1.037 1.822 2.306 3.499 3.781 4.969 c 4.085 3.712 9.514 5.969 15.469 5.969 c 12.703 0 23 -10.298 23 -23 c 0 -5.954 -2.256 -11.384 -5.969 -15.469 c -1.469 -1.475 -3.147 -2.744 -4.969 -3.781 z m 4.969 3.781 c 3.854 4.113 6.219 9.637 6.219 15.719 c 0 12.703 -10.297 23 -23 23 c -6.081 0 -11.606 -2.364 -15.719 -6.219 c 4.16 4.144 9.883 6.719 16.219 6.719 c 12.703 0 23 -10.298 23 -23 c 0 -6.335 -2.575 -12.06 -6.719 -16.219 z" style="opacity:0.05"/>
  <path d="m 41.28 8.781 c 3.712 4.085 5.969 9.514 5.969 15.469 c 0 12.703 -10.297 23 -23 23 c -5.954 0 -11.384 -2.256 -15.469 -5.969 c 4.113 3.854 9.637 6.219 15.719 6.219 c 12.703 0 23 -10.298 23 -23 c 0 -6.081 -2.364 -11.606 -6.219 -15.719 z" style="opacity:0.1"/>
  <path d="m 31.25 2.375 c 8.615 3.154 14.75 11.417 14.75 21.13 c 0 12.426 -10.07 22.5 -22.5 22.5 c -9.708 0 -17.971 -6.135 -21.12 -14.75 a 23 23 0 0 0 44.875 -7 a 23 23 0 0 0 -16 -21.875 z" style="opacity:0.2"/>
 </g>
 <g>
  <path d="m 24 1 c 12.703 0 23 10.297 23 23 c 0 12.703 -10.297 23 -23 23 -12.703 0 -23 -10.297 -23 -23 0 -12.703 10.297 -23 23 -23 z" style="fill:url(#linearGradient3764);fill-opacity:1"/>
 </g>
 <g>
  <path d="m 40.03 7.531 c 3.712 4.084 5.969 9.514 5.969 15.469 0 12.703 -10.297 23 -23 23 c -5.954 0 -11.384 -2.256 -15.469 -5.969 4.178 4.291 10.01 6.969 16.469 6.969 c 12.703 0 23 -10.298 23 -23 0 -6.462 -2.677 -12.291 -6.969 -16.469 z" style="opacity:0.1"/>
 </g>
 <g transform="translate(2.6852744e-4,0)">
  <path d="m 25.15 12 c -0.429 0 -0.887 0.328 -1.904 1.25 -1.018 0.922 -2.58 2.473 -5.084 5.01 -3.02 3.059 -4.647 4.743 -5.463 5.807 -0.408 0.532 -0.62 0.912 -0.684 1.258 -0.063 0.346 0.05 0.638 0.217 0.895 0.025 0.038 0.042 0.053 0.07 0.086 0.16 0.179 0.347 0.366 0.488 0.516 0.317 0.327 0.76 0.78 1.299 1.324 1.078 1.088 2.537 2.546 4.115 4.109 2.103 2.083 3.581 3.504 4.596 4.41 0.507 0.453 0.898 0.777 1.199 0.992 c 0.301 0.216 0.489 0.342 0.719 0.342 c 0.088 0 0.141 -0.025 0.203 -0.055 0.062 -0.029 0.126 -0.069 0.199 -0.117 0.147 -0.096 0.326 -0.23 0.537 -0.4 0.423 -0.34 0.973 -0.822 1.607 -1.402 1.27 -1.161 2.879 -2.717 4.461 -4.299 1.581 -1.582 3.136 -3.189 4.297 -4.459 0.581 -0.635 1.062 -1.185 1.402 -1.607 0.17 -0.211 0.304 -0.39 0.4 -0.537 0.048 -0.073 0.088 -0.139 0.117 -0.201 c 0.029 -0.062 0.055 -0.115 0.055 -0.203 0 -0.126 -0.047 -0.217 -0.111 -0.332 -0.064 -0.115 -0.154 -0.246 -0.273 -0.404 -0.238 -0.316 -0.593 -0.732 -1.078 -1.266 -0.97 -1.067 -2.46 -2.602 -4.555 -4.697 -2.426 -2.428 -3.949 -3.917 -4.947 -4.807 -0.998 -0.89 -1.457 -1.213 -1.883 -1.213" style="fill:#000;opacity:1;fill-opacity:0.098;stroke:none;display:inline"/>
  <path d="m 11.225 24.356 12.919 -12.993 c 4.57 3.848 8.748 7.94 12.551 12.267 -3.991 4.448 -8.197 8.831 -13.14 12.993 z" style="fill:#f8e653;fill-opacity:1;stroke:none"/>
  <path d="m 24.15 11 c -0.429 0 -0.887 0.328 -1.904 1.25 -1.018 0.922 -2.58 2.473 -5.084 5.01 -3.02 3.059 -4.647 4.743 -5.463 5.807 -0.408 0.532 -0.62 0.912 -0.684 1.258 -0.063 0.346 0.05 0.638 0.217 0.895 0.025 0.038 0.042 0.053 0.07 0.086 0.16 0.179 0.347 0.366 0.488 0.516 0.317 0.327 0.76 0.78 1.299 1.324 1.078 1.088 2.537 2.546 4.115 4.109 2.103 2.083 3.581 3.504 4.596 4.41 0.507 0.453 0.898 0.777 1.199 0.992 c 0.301 0.216 0.489 0.342 0.719 0.342 c 0.088 0 0.141 -0.025 0.203 -0.055 0.062 -0.029 0.126 -0.069 0.199 -0.117 0.147 -0.096 0.326 -0.23 0.537 -0.4 0.423 -0.34 0.973 -0.822 1.607 -1.402 1.27 -1.161 2.879 -2.717 4.461 -4.299 1.581 -1.582 3.136 -3.189 4.297 -4.459 0.581 -0.635 1.062 -1.185 1.402 -1.607 0.17 -0.211 0.304 -0.39 0.4 -0.537 0.048 -0.073 0.088 -0.139 0.117 -0.201 c 0.029 -0.062 0.055 -0.115 0.055 -0.203 0 -0.126 -0.047 -0.217 -0.111 -0.332 -0.064 -0.115 -0.154 -0.246 -0.273 -0.404 -0.238 -0.316 -0.593 -0.732 -1.078 -1.266 -0.97 -1.067 -2.46 -2.602 -4.555 -4.697 -2.426 -2.428 -3.949 -3.917 -4.947 -4.807 -0.998 -0.89 -1.457 -1.213 -1.883 -1.213 m 0.012 0.693 c 0.028 0.016 0.06 0.036 0.105 0.068 0.11 0.078 0.263 0.199 0.447 0.355 0.369 0.313 0.867 0.769 1.447 1.316 1.161 1.095 2.653 2.565 4.125 4.057 1.472 1.492 2.925 3.01 4.01 4.184 0.541 0.589 0.99 1.094 1.301 1.469 0.155 0.188 0.277 0.345 0.355 0.457 0.039 0.056 0.067 0.102 0.082 0.131 0.002 0.004 0 0.005 0.002 0.008 -0.002 -0.016 -0.008 0.026 -0.057 0.107 -0.055 0.092 -0.146 0.22 -0.268 0.377 -0.244 0.315 -0.617 0.749 -1.119 1.301 -1 1.104 -2.525 2.678 -4.574 4.738 -1.672 1.681 -3.235 3.21 -4.404 4.316 -0.584 0.553 -1.07 1 -1.42 1.311 -0.175 0.154 -0.316 0.273 -0.416 0.35 -0.043 0.033 -0.074 0.053 -0.098 0.068 -0.058 -0.002 -0.105 -0.002 -0.266 -0.113 -0.177 -0.122 -0.455 -0.357 -0.902 -0.777 -0.894 -0.84 -2.47 -2.419 -5.377 -5.348 -2.665 -2.684 -4.067 -4.115 -4.732 -4.947 -0.333 -0.416 -0.473 -0.679 -0.51 -0.846 -0.037 -0.167 0 -0.258 0.098 -0.436 0.014 -0.025 0.087 -0.128 0.195 -0.258 0.109 -0.13 0.256 -0.298 0.436 -0.496 0.359 -0.396 0.847 -0.914 1.42 -1.51 1.146 -1.192 2.63 -2.695 4.113 -4.17 1.483 -1.475 2.964 -2.923 4.1 -4 0.568 -0.539 1.05 -0.985 1.4 -1.295 0.175 -0.155 0.319 -0.274 0.42 -0.354 0.038 -0.03 0.064 -0.048 0.088 -0.064 z m -0.594 3.808 c -0.274 -0.051 -1.057 0.835 -2.098 2.373 -2.301 3.402 -2.297 3.164 -0.828 3.164 l 1.355 0 0 10.529 c 0.608 0.433 2.1 0.399 3 0.432 l 0 -3.691 c 0 0 1.023 0.264 1.635 0.824 0.94 0.86 1.185 0.962 1.57 0.662 1.294 -1.048 -3.466 -5.942 -3.223 -8.37 0.342 -0.73 2.332 -0.1 2.545 -0.551 0.219 -0.462 -3.53 -5.294 -3.957 -5.373 z" style="fill:#3c3c3c;opacity:1;fill-opacity:1;stroke:none;display:inline"/>
 </g>
</svg>
