<svg version="1.1" viewBox="0 0 48 48" xmlns="http://www.w3.org/2000/svg">
 <defs>
  <linearGradient id="bg" x2="0" y1="1" y2="47" gradientUnits="userSpaceOnUse">
   <stop style="stop-color:#82d070" offset="0"/>
   <stop style="stop-color:#75cb61" offset="1"/>
  </linearGradient>
 </defs>
 <path d="m36.3 5c5.86 4.06 9.69 10.8 9.69 18.5 0 12.4-10.1 22.5-22.5 22.5-7.67 0-14.4-3.83-18.5-9.69 1.04 1.82 2.31 3.5 3.78 4.97 4.08 3.71 9.51 5.97 15.5 5.97 12.7 0 23-10.3 23-23 0-5.95-2.26-11.4-5.97-15.5-1.47-1.48-3.15-2.74-4.97-3.78zm4.97 3.78c3.85 4.11 6.22 9.64 6.22 15.7 0 12.7-10.3 23-23 23-6.08 0-11.6-2.36-15.7-6.22 4.16 4.14 9.88 6.72 16.2 6.72 12.7 0 23-10.3 23-23 0-6.34-2.58-12.1-6.72-16.2z" style="opacity:.05"/>
 <path d="m41.3 8.78c3.71 4.08 5.97 9.51 5.97 15.5 0 12.7-10.3 23-23 23-5.95 0-11.4-2.26-15.5-5.97 4.11 3.85 9.64 6.22 15.7 6.22 12.7 0 23-10.3 23-23 0-6.08-2.36-11.6-6.22-15.7z" style="opacity:.1"/>
 <path d="m31.2 2.38c8.62 3.15 14.8 11.4 14.8 21.1 0 12.4-10.1 22.5-22.5 22.5-9.71 0-18-6.14-21.1-14.8a23 23 0 0 0 44.9-7 23 23 0 0 0-16-21.9z" style="opacity:.2"/>
 <path d="m24 1c12.7 0 23 10.3 23 23s-10.3 23-23 23-23-10.3-23-23 10.3-23 23-23z" style="fill:url(#bg)"/>
 <path d="m11 15s3 4 5 4h2.22c-1.36 3.35-3.21 7-3.22 10 0 2.54 1.78 4.35 2.33 4.85 1.53 1.94 4.27 3.15 7.67 3.15 5.16-0.277 10.9-3.51 11-9 0.0336-3.58-2.24-6.28-3.83-9.01h1.83c2 0 5-4 5-4s-3-1.99-5-1.99c-1.35 0-4.9 2.97-4.9 2.97z" style="opacity:.1"/>
 <path d="m33 12c-2 0-6 3.99-6 3.99l2 2h4c2 0 5-4 5-4s-3-1.99-5-1.99zm-18 0c-2 0-5 2-5 2s3 4 5 4h4l2-2s-4-4-6-4z" style="fill:#474747"/>
 <path d="m40 7.53c3.71 4.08 5.97 9.51 5.97 15.5 0 12.7-10.3 23-23 23-5.95 0-11.4-2.26-15.5-5.97 4.18 4.29 10 6.97 16.5 6.97 12.7 0 23-10.3 23-23 0-6.46-2.68-12.3-6.97-16.5z" style="opacity:.1"/>
 <path d="m32.9 14c-2 0-1.99 0.684-3.93 2.01 0.983 0.69 2.58 1.65 3.69 1.52 1.27-0.202 2.31-1.52 3.31-3.02 0 0-1.07-0.5-3.07-0.5zm-17.9 0.00586c-2 0-3 0.5-3 0.5 1 1.5 1.96 2.82 3.23 3.02 1.11 0.132 2.78-0.834 3.77-1.52-1.94-1.32-2-2-4-2z" style="fill:#d7a2a2"/>
 <path d="m24 14-9.16 9.72c-0.616 1.43-0.838 2.28-0.838 4.28 0 3 2.5 5 2.5 5l11.5 2c1.51-0.886 4-1 5.3-3.52l-1.37-12.2c-0.609-1.06-1.29-2.22-1.93-3.31-2-1-3-2-6-2z" style="fill:#e5e1d9"/>
 <path d="m18 16c-0.962 2.54-2.19 5.47-3.16 7.72 0 0 7.83 5.74 10.7 3.36 2.48-2.03-0.731-6.37-1.04-9.55-0.12-1.25-0.527-3.53-0.527-3.53-3 0-4 1-6 2zm13.9 3.31s-1.82 0.0847-2.37 0.693c-1.26 1.39-1.49 3.7-1.07 5.53 0.347 1.53 2.81 3.8 2.81 3.8l2.01 2.15c0.658-0.876 1.7-2.98 1.7-4.48 0-4-2-6-3.07-7.69z" style="fill:#474747"/>
 <path d="m22 16c-2 0-5 2-5 6 0 2 1.5 3 3 3s2.5-1 3.5-2.5c1 2.5 2.77 3.49 4.4 3.5 1.5 0.0092 3.1-1 3.1-4 0-2-2.1-6-5.1-6-1.5 0-1.9 1-1.9 1s-0.5-1-2-1z" style="fill:#f9f9f9"/>
 <path d="m33 29c0 4.07-3.7 7-9 7s-9-2.93-9-7c0-2.03 0.528-3.82 2.43-4.77 1.9-0.952 4.28 0.77 6.57 0.77s4.87-1.72 6.77-0.77c1.9 0.952 2.23 2.74 2.23 4.77z" style="fill:#e09d9d"/>
 <path d="m22.5 18a1.5 1.5 0 0 0-1.5 1.5 1.5 1.5 0 0 0 1.5 1.5 1.5 1.5 0 0 0 1.5-1.5 1.5 1.5 0 0 0-1.5-1.5zm3.5 0a2 2 0 0 0-2 2 2 2 0 0 0 2 2 2 2 0 0 0 2-2 2 2 0 0 0-2-2zm-6 8a2 2 0 0 0-2 2 2 2 0 0 0 2 2 2 2 0 0 0 2-2 2 2 0 0 0-2-2zm8 0a2 2 0 0 0-2 2 2 2 0 0 0 2 2 2 2 0 0 0 2-2 2 2 0 0 0-2-2z" style="fill:#474747"/>
</svg>
