<svg xmlns="http://www.w3.org/2000/svg" viewBox="0 0 48 48">
 <defs>
  <linearGradient id="linearGradient3764" x1="1" x2="47" gradientUnits="userSpaceOnUse" gradientTransform="matrix(0,-1,1,0,-1.5e-6,47.999998)">
   <stop style="stop-color:#c2e7a9;stop-opacity:1"/>
   <stop offset="1" style="stop-color:#cdebb9;stop-opacity:1"/>
  </linearGradient>
 </defs>
 <g>
  <path d="m 36.31 5 c 5.859 4.062 9.688 10.831 9.688 18.5 c 0 12.426 -10.07 22.5 -22.5 22.5 c -7.669 0 -14.438 -3.828 -18.5 -9.688 c 1.037 1.822 2.306 3.499 3.781 4.969 c 4.085 3.712 9.514 5.969 15.469 5.969 c 12.703 0 23 -10.298 23 -23 c 0 -5.954 -2.256 -11.384 -5.969 -15.469 c -1.469 -1.475 -3.147 -2.744 -4.969 -3.781 z m 4.969 3.781 c 3.854 4.113 6.219 9.637 6.219 15.719 c 0 12.703 -10.297 23 -23 23 c -6.081 0 -11.606 -2.364 -15.719 -6.219 c 4.16 4.144 9.883 6.719 16.219 6.719 c 12.703 0 23 -10.298 23 -23 c 0 -6.335 -2.575 -12.06 -6.719 -16.219 z" style="opacity:0.05"/>
  <path d="m 41.28 8.781 c 3.712 4.085 5.969 9.514 5.969 15.469 c 0 12.703 -10.297 23 -23 23 c -5.954 0 -11.384 -2.256 -15.469 -5.969 c 4.113 3.854 9.637 6.219 15.719 6.219 c 12.703 0 23 -10.298 23 -23 c 0 -6.081 -2.364 -11.606 -6.219 -15.719 z" style="opacity:0.1"/>
  <path d="m 31.25 2.375 c 8.615 3.154 14.75 11.417 14.75 21.13 c 0 12.426 -10.07 22.5 -22.5 22.5 c -9.708 0 -17.971 -6.135 -21.12 -14.75 a 23 23 0 0 0 44.875 -7 a 23 23 0 0 0 -16 -21.875 z" style="opacity:0.2"/>
 </g>
 <g>
  <path d="m 24 1 c 12.703 0 23 10.297 23 23 c 0 12.703 -10.297 23 -23 23 -12.703 0 -23 -10.297 -23 -23 0 -12.703 10.297 -23 23 -23 z" style="fill:url(#linearGradient3764);fill-opacity:1"/>
 </g>
 <g>
  <path d="m 40.03 7.531 c 3.712 4.084 5.969 9.514 5.969 15.469 0 12.703 -10.297 23 -23 23 c -5.954 0 -11.384 -2.256 -15.469 -5.969 4.178 4.291 10.01 6.969 16.469 6.969 c 12.703 0 23 -10.298 23 -23 0 -6.462 -2.677 -12.291 -6.969 -16.469 z" style="opacity:0.1"/>
 </g>
 <path d="m 25.43 8.879 c -8.274 0 -14.999 6.725 -14.999 14.999 0 8.274 6.725 14.999 14.999 14.999 4.84 0 9.138 -2.314 11.881 -5.878 l -2.448 0 c -2.385 2.466 -5.722 4 -9.432 4 -7.26 0 -13.12 -5.864 -13.12 -13.12 0 -7.26 5.864 -13.12 13.12 -13.12 3.827 0 7.257 1.641 9.656 4.245 l 2.409 0 c -2.732 -3.703 -7.122 -6.123 -12.06 -6.123" mix-blend-mode="normal" isolation="auto" white-space="normal" solid-color="#000000" solid-opacity="1" style="visibility:visible;shape-rendering:auto;color-interpolation-filters:linearRGB;fill:#1a1a1a;opacity:0.6;image-rendering:auto;fill-opacity:1;stroke:none;display:inline;color:#000;fill-rule:nonzero;color-rendering:auto;color-interpolation:sRGB"/>
 <g transform="matrix(3.543307,0,0,3.543307,-4.96e-4,-1.639e-4)">
  <g transform="translate(0.28222238,0.28222226)" style="fill:#000;opacity:0.1">
   <path d="m 4.798 4.516 0 0.564 0.282 0.282 0 -0.282 2.822 0 0 0.282 0.282 -0.282 0 -0.564 -3.387 0 z m 3.951 0 c -0.156 0 -0.282 0.125 -0.282 0.282 0 0.156 0.126 0.282 0.282 0.282 l 0.565 0 c 0.156 0 0.282 -0.126 0.282 -0.282 0 -0.156 -0.126 -0.282 -0.282 -0.282 l -0.565 0 z m -3.669 1.128 c -0.156 0 -0.282 0.126 -0.282 0.282 0 0.156 0.126 0.282 0.282 0.282 l 0.565 0 c 0.156 0 0.282 -0.125 0.282 -0.282 0 -0.156 -0.125 -0.282 -0.282 -0.282 l -0.565 0 z m 1.698 0 0 0.564 0.282 0.282 0 -0.282 2.258 0 0 0.282 0.282 -0.282 0 -0.564 -2.822 0 z m -1.698 1.128 c -0.156 0 -0.282 0.126 -0.282 0.282 0 0.156 0.126 0.282 0.282 0.282 l 1.694 0 c 0.156 0 0.282 -0.126 0.282 -0.282 0 -0.156 -0.126 -0.282 -0.282 -0.282 l -1.694 0 z m 3.104 0 c -0.156 0 -0.282 0.126 -0.282 0.282 0 0.156 0.126 0.282 0.282 0.282 l 0.565 0 c 0.156 0 0.282 -0.126 0.282 -0.282 0 -0.156 -0.126 -0.282 -0.282 -0.282 l -0.565 0 z m 0 1.129 c -0.156 0 -0.282 0.125 -0.282 0.282 0 0.156 0.126 0.282 0.282 0.282 l 0.283 0 c 0.156 0 0.282 -0.126 0.282 -0.282 0 -0.156 -0.126 -0.282 -0.282 -0.282 l -0.283 0 z m 1.128 0 -0.282 0.282 0.282 0.282 0.282 -0.282 -0.282 -0.282 z m -4.514 0 0 0.564 0.282 0.282 0 -0.282 2.258 0 0 0.282 0.282 -0.282 0 -0.564 -2.822 0 z" style="stroke:none;fill-rule:evenodd"/>
  </g>
  <g>
   <path d="M 5.08,5.362 4.798,5.08 l 0,-0.564 3.387,0 0,0.564 -0.282,0.282 0,-0.282 -2.822,0" style="fill:#5f8dd3;stroke:none;fill-rule:evenodd"/>
   <path d="m 7.06 6.491 -0.282 -0.282 0 -0.564 2.822 0 0 0.564 -0.282 0.282 0 -0.282 -2.258 0 z" style="fill:#5f8dd3;stroke:none;fill-rule:evenodd"/>
   <rect rx="0.282" y="6.773" x="4.798" height="0.564" width="2.258" style="fill:#37c837;opacity:1;fill-opacity:1;stroke:none;fill-rule:nonzero"/>
   <rect width="1.129" height="0.564" x="7.902" y="6.773" rx="0.282" style="fill:#37c837;opacity:1;fill-opacity:1;stroke:none;fill-rule:nonzero"/>
   <path d="m 5.08 8.749 -0.282 -0.282 0 -0.564 2.822 0 0 0.564 -0.282 0.282 0 -0.282 -2.258 0 z" style="fill:#5f8dd3;stroke:none;fill-rule:evenodd"/>
   <path d="M 9.03,8.184 9.312,7.902 9.594,8.184 9.312,8.466" style="fill:#c83737;stroke:none;fill-rule:evenodd"/>
   <rect rx="0.282" y="5.644" x="4.798" height="0.564" width="1.129" style="fill:#37c837;opacity:1;fill-opacity:1;stroke:none;fill-rule:nonzero"/>
   <rect rx="0.282" y="4.516" x="8.467" height="0.564" width="1.129" style="fill:#37c837;opacity:1;fill-opacity:1;stroke:none;fill-rule:nonzero"/>
   <rect rx="0.282" y="7.902" x="7.902" height="0.564" width="0.847" style="fill:#37c837;opacity:1;fill-opacity:1;stroke:none;fill-rule:nonzero"/>
  </g>
 </g>
</svg>
