<?xml version="1.0" encoding="UTF-8" standalone="no"?>
<svg id="svg2" viewBox="0 0 48 48" xmlns:cc="http://creativecommons.org/ns#" version="1.1" xmlns:dc="http://purl.org/dc/elements/1.1/" xmlns="http://www.w3.org/2000/svg" xmlns:rdf="http://www.w3.org/1999/02/22-rdf-syntax-ns#">
 <metadata id="metadata57">
  <rdf:RDF>
   <cc:Work rdf:about="">
    <dc:format>image/svg+xml</dc:format>
    <dc:type rdf:resource="http://purl.org/dc/dcmitype/StillImage"/>
   </cc:Work>
  </rdf:RDF>
 </metadata>
 <defs id="defs4">
  <linearGradient id="linearGradient3764" x1="1" x2="47" gradientTransform="matrix(0 -1 1 0 -.0000015 48)" gradientUnits="userSpaceOnUse">
   <stop id="stop7" style="stop-color:#c2e7a9" offset="0"/>
   <stop id="stop9" style="stop-color:#cdebb9" offset="1"/>
  </linearGradient>
 </defs>
 <g id="g11">
  <path id="path13" style="opacity:.05" d="m36.31 5c5.859 4.062 9.688 10.831 9.688 18.5 0 12.426-10.07 22.5-22.5 22.5-7.669 0-14.438-3.828-18.5-9.688 1.037 1.822 2.306 3.499 3.781 4.969 4.085 3.712 9.514 5.969 15.469 5.969 12.703 0 23-10.298 23-23 0-5.954-2.256-11.384-5.969-15.469-1.469-1.475-3.147-2.744-4.969-3.781zm4.969 3.781c3.854 4.113 6.219 9.637 6.219 15.719 0 12.703-10.297 23-23 23-6.081 0-11.606-2.364-15.719-6.219 4.16 4.144 9.883 6.719 16.219 6.719 12.703 0 23-10.298 23-23 0-6.335-2.575-12.06-6.719-16.219z"/>
  <path id="path15" style="opacity:.1" d="m41.28 8.781c3.712 4.085 5.969 9.514 5.969 15.469 0 12.703-10.297 23-23 23-5.954 0-11.384-2.256-15.469-5.969 4.113 3.854 9.637 6.219 15.719 6.219 12.703 0 23-10.298 23-23 0-6.081-2.364-11.606-6.219-15.719z"/>
  <path id="path17" style="opacity:.2" d="m31.25 2.375c8.615 3.154 14.75 11.417 14.75 21.13 0 12.426-10.07 22.5-22.5 22.5-9.708 0-17.971-6.135-21.12-14.75a23 23 0 0 0 44.875 -7 23 23 0 0 0 -16 -21.875z"/>
 </g>
 <g id="g19">
  <path id="path21" style="fill:url(#linearGradient3764)" d="m24 1c12.703 0 23 10.297 23 23s-10.297 23-23 23-23-10.297-23-23 10.297-23 23-23z"/>
 </g>
 <path id="path4185" style="opacity:.6;fill:#1a1a1a" d="m25 9c-8.2843-0.0047-15 6.7157-15 15s6.7157 15.004 15 15c4.7152-0.002 9.1533-2.2279 11.982-6h-2.6211c-2.4469 2.5505-5.8269 3.9982-9.3613 4-7.1797 0.0036-13-5.8203-13-13s5.8203-13.001 13-13c3.5392 0.000524 6.9248 1.4461 9.375 4h2.6016c-2.828-3.77-7.264-5.9973-11.977-6z"/>
 <g id="g23">
  <path id="path25" style="opacity:.1" d="m40.03 7.531c3.712 4.084 5.969 9.514 5.969 15.469 0 12.703-10.297 23-23 23-5.954 0-11.384-2.256-15.469-5.969 4.178 4.291 10.01 6.969 16.469 6.969 12.703 0 23-10.298 23-23 0-6.462-2.677-12.291-6.969-16.469z"/>
 </g>
 <g id="g29" transform="matrix(3.5433 0 0 3.5433 -.000496 -.0001639)">
  <g id="g31" style="opacity:.1" transform="translate(.28222 .28222)">
   <path id="path33" style="fill-rule:evenodd" d="m4.798 4.516v0.564l0.282 0.282v-0.282h2.822v0.282l0.282-0.282v-0.564h-3.387zm3.951 0c-0.156 0-0.282 0.125-0.282 0.282 0 0.156 0.126 0.282 0.282 0.282h0.565c0.156 0 0.282-0.126 0.282-0.282s-0.126-0.282-0.282-0.282h-0.565zm-3.669 1.128c-0.156 0-0.282 0.126-0.282 0.282s0.126 0.282 0.282 0.282h0.565c0.156 0 0.282-0.125 0.282-0.282 0-0.156-0.125-0.282-0.282-0.282h-0.565zm1.698 0v0.564l0.282 0.282v-0.282h2.258v0.282l0.282-0.282v-0.564h-2.822zm-1.698 1.128c-0.156 0-0.282 0.126-0.282 0.282s0.126 0.282 0.282 0.282h1.694c0.156 0 0.282-0.126 0.282-0.282s-0.126-0.282-0.282-0.282h-1.694zm3.104 0c-0.156 0-0.282 0.126-0.282 0.282s0.126 0.282 0.282 0.282h0.565c0.156 0 0.282-0.126 0.282-0.282s-0.126-0.282-0.282-0.282h-0.565zm0 1.129c-0.156 0-0.282 0.125-0.282 0.282 0 0.156 0.126 0.282 0.282 0.282h0.283c0.156 0 0.282-0.126 0.282-0.282s-0.126-0.282-0.282-0.282h-0.283zm1.128 0-0.282 0.282 0.282 0.282 0.282-0.282-0.282-0.282zm-4.514 0v0.564l0.282 0.282v-0.282h2.258v0.282l0.282-0.282v-0.564h-2.822z"/>
  </g>
  <g id="g35">
   <path id="path37" style="fill:#5f8dd3;fill-rule:evenodd" d="m5.08 5.362-0.282-0.282v-0.564h3.387v0.564l-0.282 0.282v-0.282h-2.822"/>
   <path id="path39" style="fill:#5f8dd3;fill-rule:evenodd" d="m7.06 6.491-0.282-0.282v-0.564h2.822v0.564l-0.282 0.282v-0.282h-2.258z"/>
   <rect id="rect41" x="4.798" width="2.258" height=".564" y="6.773" style="fill:#37c837" rx=".282"/>
   <rect id="rect43" x="7.902" width="1.129" height=".564" y="6.773" style="fill:#37c837" rx=".282"/>
   <path id="path45" style="fill:#5f8dd3;fill-rule:evenodd" d="m5.08 8.749-0.282-0.282v-0.564h2.822v0.564l-0.282 0.282v-0.282h-2.258z"/>
   <path id="path47" style="fill:#c83737;fill-rule:evenodd" d="m9.03 8.184 0.282-0.282 0.282 0.282-0.282 0.282"/>
   <rect id="rect49" x="4.798" width="1.129" height=".564" y="5.644" style="fill:#37c837" rx=".282"/>
   <rect id="rect51" x="8.467" width="1.129" height=".564" y="4.516" style="fill:#37c837" rx=".282"/>
   <rect id="rect53" x="7.902" width=".847" height=".564" y="7.902" style="fill:#37c837" rx=".282"/>
  </g>
 </g>
</svg>
