<svg version="1.1" viewBox="0 0 48 48" xmlns="http://www.w3.org/2000/svg">
 <defs>
  <linearGradient id="bg" x1="1" x2="47" gradientTransform="matrix(0 -1 1 0 -1.5e-6 48)" gradientUnits="userSpaceOnUse">
   <stop style="stop-color:#d1ccd8" offset="0"/>
   <stop style="stop-color:#dbd7e1" offset="1"/>
  </linearGradient>
 </defs>
 <path d="m36.31 5c5.859 4.062 9.688 10.831 9.688 18.5 0 12.426-10.07 22.5-22.5 22.5-7.669 0-14.438-3.828-18.5-9.688 1.037 1.822 2.306 3.499 3.781 4.969 4.085 3.712 9.514 5.969 15.469 5.969 12.703 0 23-10.298 23-23 0-5.954-2.256-11.384-5.969-15.469-1.469-1.475-3.147-2.744-4.969-3.781zm4.969 3.781c3.854 4.113 6.219 9.637 6.219 15.719 0 12.703-10.297 23-23 23-6.081 0-11.606-2.364-15.719-6.219 4.16 4.144 9.883 6.719 16.219 6.719 12.703 0 23-10.298 23-23 0-6.335-2.575-12.06-6.719-16.219z" style="opacity:.05"/>
 <path d="m41.28 8.781c3.712 4.085 5.969 9.514 5.969 15.469 0 12.703-10.297 23-23 23-5.954 0-11.384-2.256-15.469-5.969 4.113 3.854 9.637 6.219 15.719 6.219 12.703 0 23-10.298 23-23 0-6.081-2.364-11.606-6.219-15.719z" style="opacity:.1"/>
 <path d="m31.25 2.375c8.615 3.154 14.75 11.417 14.75 21.13 0 12.426-10.07 22.5-22.5 22.5-9.708 0-17.971-6.135-21.12-14.75a23 23 0 0 0 44.875-7 23 23 0 0 0-16-21.875z" style="opacity:.2"/>
 <path d="m24 1c12.703 0 23 10.297 23 23s-10.297 23-23 23-23-10.297-23-23 10.297-23 23-23z" style="fill:url(#bg)"/>
 <path d="m25 10c-3.9383-0.00223-7.521 1.517-10.197 4h-0.80273v0.80273c-2.4816 2.6767-4 6.2597-4 10.197s1.5184 7.5206 4 10.197v0.80273h0.80273c2.6763 2.4829 6.2589 4.0019 10.197 4 4.7152-2e-3 9.1537-2.2279 11.982-6h-1.9824v-18h1.9766c-2.828-3.77-7.2636-5.9973-11.977-6zm0 2c2.4697 3.66e-4 4.8635 0.70677 6.918 2h-13.846c2.0056-1.2657 4.3809-2.0004 6.9277-2zm-9 4a1 1 0 0 1 1 1 1 1 0 0 1-1 1 1 1 0 0 1-1-1 1 1 0 0 1 0.10938-0.43164c0.10601-0.12425 0.21172-0.249 0.32227-0.36914a1 1 0 0 1 0.56836-0.19922zm-2 2.0742v13.854c-1.2657-2.0061-2-4.3809-2-6.9277 0-2.5467 0.73451-4.9201 2-6.9258zm2 1.9258a1 1 0 0 1 1 1 1 1 0 0 1-1 1 1 1 0 0 1-1-1 1 1 0 0 1 1-1zm0 4a1 1 0 0 1 1 1 1 1 0 0 1-1 1 1 1 0 0 1-1-1 1 1 0 0 1 1-1zm0 4a1 1 0 0 1 1 1 1 1 0 0 1-1 1 1 1 0 0 1-1-1 1 1 0 0 1 1-1zm0 4a1 1 0 0 1 1 1 1 1 0 0 1-1 1 1 1 0 0 1-0.56836-0.19922c-0.11055-0.12016-0.21625-0.24487-0.32227-0.36914a1 1 0 0 1-0.10938-0.43164 1 1 0 0 1 1-1zm2.0723 4h13.832c-2.0508 1.2918-4.439 1.9987-6.9043 2-2.547 0.0013-4.922-0.73415-6.9277-2z" style="opacity:.1"/>
 <path d="m24 9c-8.2843-0.0047-15 6.7157-15 15s6.7157 15.004 15 15c4.7152-2e-3 9.1533-2.2279 11.982-6h-2.6211c-2.4469 2.5505-5.8269 3.9982-9.3613 4-7.1797 0.0036-13-5.8203-13-13s5.8203-13.001 13-13c3.5392 5.24e-4 6.9248 1.4461 9.375 4h2.6016c-2.828-3.77-7.264-5.9973-11.977-6z" style="fill:#6b696d"/>
 <path d="m40.03 7.531c3.712 4.084 5.969 9.514 5.969 15.469 0 12.703-10.297 23-23 23-5.954 0-11.384-2.256-15.469-5.969 4.178 4.291 10.01 6.969 16.469 6.969 12.703 0 23-10.298 23-23 0-6.462-2.677-12.291-6.969-16.469z" style="opacity:.1"/>
 <path d="m32.295 14c0.37612 0.31224 0.73825 0.64371 1.0801 1h1.625v-1zm-18.295 18.307v2.873c0.32079 0.28723 0.65329 0.56121 0.99805 0.82031h3.9902c-1.2559-0.52504-2.4102-1.2435-3.4297-2.1152-0.14179-0.07422-0.26369-0.18139-0.35547-0.3125-0.42874-0.39432-0.83049-0.8174-1.2031-1.2656zm19.361 0.69336c-1.2521 1.3052-2.7502 2.3184-4.3867 3h4.0039c0.72432-0.54326 1.4001-1.1566 2.0215-1.8301v-1.1699z" style="opacity:.1"/>
 <path d="m13 13v22h21v-22zm2 2a1 1 0 0 1 1 1 1 1 0 0 1-1 1 1 1 0 0 1-1-1 1 1 0 0 1 1-1zm0 4a1 1 0 0 1 1 1 1 1 0 0 1-1 1 1 1 0 0 1-1-1 1 1 0 0 1 1-1zm0 4a1 1 0 0 1 1 1 1 1 0 0 1-1 1 1 1 0 0 1-1-1 1 1 0 0 1 1-1zm0 4a1 1 0 0 1 1 1 1 1 0 0 1-1 1 1 1 0 0 1-1-1 1 1 0 0 1 1-1zm0 4a1 1 0 0 1 1 1 1 1 0 0 1-1 1 1 1 0 0 1-1-1 1 1 0 0 1 1-1z" style="fill:#f9f9f9"/>
 <path d="m17.498 19.496v3h5v6.002h5v-9z" style="fill:#87deaa"/>
 <path d="m16.999 16v16h16v-16zm0.99999 0.99999h4v2h-4zm5 0h4v2h-4zm5 0h4v2h-4zm-9.9999 3h4v2h-4zm5 0h4v2h-4zm5 0h4v2h-4zm-9.9999 3h4v2h-4zm5 0h4v2h-4zm5 0h4v2h-4zm-9.9999 3h4v2h-4zm5 0h4v2h-4zm5 0h4v2h-4zm-9.9999 3h4v2h-4zm5 0h4v2h-4zm5 0h4v2h-4z" style="fill-rule:evenodd;fill:#999"/>
</svg>
