<svg version="1.1" viewBox="0 0 48 48" xmlns="http://www.w3.org/2000/svg">
 <defs>
  <linearGradient id="bg" x1="1" x2="47" gradientTransform="matrix(0 -1 1 0 -1.5e-6 48)" gradientUnits="userSpaceOnUse">
   <stop style="stop-color:#f2d5c6" offset="0"/>
   <stop style="stop-color:#f6e1d6" offset="1"/>
  </linearGradient>
 </defs>
 <path d="m36.31 5c5.859 4.062 9.688 10.831 9.688 18.5 0 12.426-10.07 22.5-22.5 22.5-7.669 0-14.438-3.828-18.5-9.688 1.037 1.822 2.306 3.499 3.781 4.969 4.085 3.712 9.514 5.969 15.469 5.969 12.703 0 23-10.298 23-23 0-5.954-2.256-11.384-5.969-15.469-1.469-1.475-3.147-2.744-4.969-3.781zm4.969 3.781c3.854 4.113 6.219 9.637 6.219 15.719 0 12.703-10.297 23-23 23-6.081 0-11.606-2.364-15.719-6.219 4.16 4.144 9.883 6.719 16.219 6.719 12.703 0 23-10.298 23-23 0-6.335-2.575-12.06-6.719-16.219z" style="opacity:.05"/>
 <path d="m41.28 8.781c3.712 4.085 5.969 9.514 5.969 15.469 0 12.703-10.297 23-23 23-5.954 0-11.384-2.256-15.469-5.969 4.113 3.854 9.637 6.219 15.719 6.219 12.703 0 23-10.298 23-23 0-6.081-2.364-11.606-6.219-15.719z" style="opacity:.1"/>
 <path d="m31.25 2.375c8.615 3.154 14.75 11.417 14.75 21.13 0 12.426-10.07 22.5-22.5 22.5-9.708 0-17.971-6.135-21.12-14.75a23 23 0 0 0 44.875-7 23 23 0 0 0-16-21.875z" style="opacity:.2"/>
 <path d="m24 1c12.703 0 23 10.297 23 23s-10.297 23-23 23-23-10.297-23-23 10.297-23 23-23z" style="fill:url(#bg)"/>
 <path d="m25 10c-8.2843-0.0047-15 6.7157-15 15 0 4.4578 1.9461 8.4611 5.0332 11.209l-2.0371 2.793 2.1211-0.19726 1.1504-1.6113c2.4601 1.7654 5.4735 2.8082 8.7324 2.8066 4.7152-2e-3 9.1537-2.2279 11.982-6h-2.6211c-2.4469 2.5505-5.8269 3.9982-9.3613 4-2.8239 0.0014-5.4365-0.90213-7.5684-2.4316l0.59766-0.83789 4.3867 0.02539-2.9707-1.3477 4.4648-0.70117-1.041-0.73633 4.7832-4.3945 5.5918-12.617c0.39431 0.32402 0.77385 0.66889 1.1309 1.041h2.6016c-0.83657-1.1152-1.8168-2.0923-2.9004-2.9199l0.92188-2.0781c-0.71197 0.40629-1.4851 0.79144-2.252 1.1719-2.3077-1.3988-4.9773-2.1722-7.7461-2.1738zm0 2c1.9572 2.9e-4 3.8666 0.4443 5.5977 1.2715-0.22883 0.12471-0.45272 0.2508-0.66406 0.37695-2.9366 1.8068-6.1442 3.4478-8.3711 6.0566-2.1212 2.4852-3.6106 5.571-4.3887 8.7266-0.3395 1.3768-0.31562 3.549-0.24219 5.1719l-0.71484 0.98242c-2.5921-2.3769-4.2168-5.7921-4.2168-9.5859 0-7.1797 5.8203-13.001 13-13z" style="opacity:.1"/>
 <path d="m24 9c-8.2843-0.0047-15 6.7157-15 15s6.7157 15.004 15 15c4.7152-2e-3 9.1533-2.2279 11.982-6h-2.6211c-2.4469 2.5505-5.8269 3.9982-9.3613 4-7.1797 0.0036-13-5.8203-13-13s5.8203-13.001 13-13c3.5392 5.24e-4 6.9248 1.4461 9.375 4h2.6016c-2.828-3.77-7.264-5.9973-11.977-6z" style="fill:#726964"/>
 <path d="m40.03 7.531c3.712 4.084 5.969 9.514 5.969 15.469 0 12.703-10.297 23-23 23-5.954 0-11.384-2.256-15.469-5.969 4.178 4.291 10.01 6.969 16.469 6.969 12.703 0 23-10.298 23-23 0-6.462-2.677-12.291-6.969-16.469z" style="opacity:.1"/>
 <path d="m33.021 12.037c-0.68822 0.34292-1.3753 0.67948-2.0195 1.0176 0.81726 0.52331 1.5791 1.14 2.2695 1.8438l0.85742-1.9355c-0.35512-0.32676-0.7246-0.63618-1.1074-0.92578zm-16.725 22.436-1.1777 1.6152c0.42342 0.31168 0.8646 0.60061 1.3203 0.86719l1.168-1.6348c-0.45425-0.25705-0.89242-0.53958-1.3105-0.84766z" style="opacity:.1"/>
 <path d="m33.998 9.9999-5.06 2.645s-6.1455 3.4497-8.3731 6.0585c-2.121 2.4858-3.6084 5.5726-4.3868 8.7284-0.3725 1.51-0.22076 5.6112-0.22076 5.6112l0.70311 0.68555 4.7578 0.02735-2.9707-1.3496 4.4668-0.70115-1.0449-0.73438 4.7871-4.3964z" style="fill:#3771c8"/>
 <path d="m14.119 37.803-2.1208 0.1967 19.46-26.684 2.5396-1.3162z" style="fill:#214478"/>
</svg>
