<?xml version="1.0" encoding="UTF-8" standalone="no"?>
<svg id="svg2" version="1.1" xmlns:cc="http://creativecommons.org/ns#" viewBox="0 0 48 48" xmlns="http://www.w3.org/2000/svg" xmlns:rdf="http://www.w3.org/1999/02/22-rdf-syntax-ns#" xmlns:dc="http://purl.org/dc/elements/1.1/">
 <metadata id="metadata41">
  <rdf:RDF>
   <cc:Work rdf:about="">
    <dc:format>image/svg+xml</dc:format>
    <dc:type rdf:resource="http://purl.org/dc/dcmitype/StillImage"/>
   </cc:Work>
  </rdf:RDF>
 </metadata>
 <defs id="defs4">
  <linearGradient id="linearGradient3764" gradientTransform="matrix(0 -1 1 0 -.0000015 48)" gradientUnits="userSpaceOnUse" x1="1" x2="47">
   <stop id="stop7" offset="0" style="stop-color:#fd5"/>
   <stop id="stop9" offset="1" style="stop-color:#ffe169"/>
  </linearGradient>
 </defs>
 <g id="g11">
  <path id="path13" d="m36.31 5c5.859 4.062 9.688 10.831 9.688 18.5 0 12.426-10.07 22.5-22.5 22.5-7.669 0-14.438-3.828-18.5-9.688 1.037 1.822 2.306 3.499 3.781 4.969 4.085 3.712 9.514 5.969 15.469 5.969 12.703 0 23-10.298 23-23 0-5.954-2.256-11.384-5.969-15.469-1.469-1.475-3.147-2.744-4.969-3.781zm4.969 3.781c3.854 4.113 6.219 9.637 6.219 15.719 0 12.703-10.297 23-23 23-6.081 0-11.606-2.364-15.719-6.219 4.16 4.144 9.883 6.719 16.219 6.719 12.703 0 23-10.298 23-23 0-6.335-2.575-12.06-6.719-16.219z" style="opacity:.05"/>
  <path id="path15" d="m41.28 8.781c3.712 4.085 5.969 9.514 5.969 15.469 0 12.703-10.297 23-23 23-5.954 0-11.384-2.256-15.469-5.969 4.113 3.854 9.637 6.219 15.719 6.219 12.703 0 23-10.298 23-23 0-6.081-2.364-11.606-6.219-15.719z" style="opacity:.1"/>
  <path id="path17" d="m31.25 2.375c8.615 3.154 14.75 11.417 14.75 21.13 0 12.426-10.07 22.5-22.5 22.5-9.708 0-17.971-6.135-21.12-14.75a23 23 0 0 0 44.875 -7 23 23 0 0 0 -16 -21.875z" style="opacity:.2"/>
 </g>
 <g id="g19">
  <path id="path21" d="m24 1c12.703 0 23 10.297 23 23s-10.297 23-23 23-23-10.297-23-23 10.297-23 23-23z" style="fill:url(#linearGradient3764)"/>
 </g>
 <path id="path4185" d="m25 9c-8.2843-0.0047-15 6.7157-15 15s6.7157 15.004 15 15c4.7152-0.002 9.1533-2.2279 11.982-6h-2.6211c-2.4469 2.5505-5.8269 3.9982-9.3613 4-7.1797 0.0036-13-5.8203-13-13s5.8203-13.001 13-13c3.5392 0.000524 6.9248 1.4461 9.375 4h2.6016c-2.828-3.77-7.264-5.9973-11.977-6z" style="opacity:.6;fill:#1a1a1a"/>
 <g id="g23">
  <path id="path25" d="m40.03 7.531c3.712 4.084 5.969 9.514 5.969 15.469 0 12.703-10.297 23-23 23-5.954 0-11.384-2.256-15.469-5.969 4.178 4.291 10.01 6.969 16.469 6.969 12.703 0 23-10.298 23-23 0-6.462-2.677-12.291-6.969-16.469z" style="opacity:.1"/>
 </g>
 <g id="g29" transform="matrix(3.5433 0 0 3.5433 -.000496 -.0001639)">
  <path id="path31" d="m4.816 3.668-0.018 6.473 4.781 0.018 0.018-6.474-4.78-0.018m0.477 0.564a0.212 0.212 0 0 1 0.212 0.212 0.212 0.212 0 0 1 -0.212 0.212 0.212 0.212 0 0 1 -0.212 -0.212 0.212 0.212 0 0 1 0.212 -0.212m0 1.637a0.212 0.212 0 0 1 0.212 0.212 0.212 0.212 0 0 1 -0.212 0.212 0.212 0.212 0 0 1 -0.212 -0.212 0.212 0.212 0 0 1 0.212 -0.212m0 1.637a0.212 0.212 0 0 1 0.212 0.212 0.212 0.212 0 0 1 -0.212 0.212 0.212 0.212 0 0 1 -0.212 -0.212 0.212 0.212 0 0 1 0.212 -0.212m0 1.665a0.212 0.212 0 0 1 0.212 0.212 0.212 0.212 0 0 1 -0.212 0.212 0.212 0.212 0 0 1 -0.212 -0.212 0.212 0.212 0 0 1 0.212 -0.212" style="fill-opacity:.098"/>
  <path id="path33" style="fill:#f9f9f9" d="m16.06 12-0.064 22.938 16.939 0.064 0.062-22.939-16.938-0.063m1.689 2a0.75 0.75 0 0 1 0.75 0.75 0.75 0.75 0 0 1 -0.75 0.75 0.75 0.75 0 0 1 -0.75 -0.75 0.75 0.75 0 0 1 0.75 -0.75m0 5.801a0.75 0.75 0 0 1 0.75 0.75 0.75 0.75 0 0 1 -0.75 0.75 0.75 0.75 0 0 1 -0.75 -0.75 0.75 0.75 0 0 1 0.75 -0.75zm0 5.799a0.75 0.75 0 0 1 0.75 0.75 0.75 0.75 0 0 1 -0.75 0.75 0.75 0.75 0 0 1 -0.75 -0.75 0.75 0.75 0 0 1 0.75 -0.75zm0 5.9a0.75 0.75 0 0 1 0.75 0.75 0.75 0.75 0 0 1 -0.75 0.75 0.75 0.75 0 0 1 -0.75 -0.75 0.75 0.75 0 0 1 0.75 -0.75" transform="scale(.28222)"/>
  <path id="path35" d="m7.737 4.45s0.502 0.613 0.671 0.978c0.074 0.16 0.128 0.337 0.144 0.516 0.09 0.994-0.272 2.978-0.272 2.978l-1.064-2.939-0.314 0.199-0.609 2.303-0.241-2.256 0.207-0.182-0.377 0.021 0.165 3.245 0.314-0.199 0.688-2.521 0.908 2.599 0.396-0.006s0.372-2.266 0.399-3.414c0.009-0.369-0.077-1.105-0.077-1.105z" style="fill-rule:evenodd;opacity:.1"/>
  <path id="path37" d="m7.502 4.127s0.502 0.613 0.671 0.978c0.074 0.16 0.128 0.337 0.144 0.516 0.09 0.994-0.272 2.978-0.272 2.978l-1.064-2.939-0.314 0.199-0.609 2.303-0.241-2.256 0.207-0.182-0.377 0.021 0.165 3.245 0.314-0.199 0.688-2.521 0.908 2.599 0.396-0.006s0.372-2.266 0.399-3.414c0.009-0.369-0.077-1.105-0.077-1.105z" style="fill-rule:evenodd;fill:#71c837"/>
 </g>
</svg>
