<svg version="1.1" viewBox="0 0 48 48" xmlns="http://www.w3.org/2000/svg">
 <defs>
  <linearGradient id="bg" x1="1" x2="47" gradientTransform="matrix(0 -1 1 0 -1.5e-6 48)" gradientUnits="userSpaceOnUse">
   <stop style="stop-color:#c2e7a9" offset="0"/>
   <stop style="stop-color:#cdebb9" offset="1"/>
  </linearGradient>
 </defs>
 <path d="m36.31 5c5.859 4.062 9.688 10.831 9.688 18.5 0 12.426-10.07 22.5-22.5 22.5-7.669 0-14.438-3.828-18.5-9.688 1.037 1.822 2.306 3.499 3.781 4.969 4.085 3.712 9.514 5.969 15.469 5.969 12.703 0 23-10.298 23-23 0-5.954-2.256-11.384-5.969-15.469-1.469-1.475-3.147-2.744-4.969-3.781zm4.969 3.781c3.854 4.113 6.219 9.637 6.219 15.719 0 12.703-10.297 23-23 23-6.081 0-11.606-2.364-15.719-6.219 4.16 4.144 9.883 6.719 16.219 6.719 12.703 0 23-10.298 23-23 0-6.335-2.575-12.06-6.719-16.219z" style="opacity:.05"/>
 <path d="m41.28 8.781c3.712 4.085 5.969 9.514 5.969 15.469 0 12.703-10.297 23-23 23-5.954 0-11.384-2.256-15.469-5.969 4.113 3.854 9.637 6.219 15.719 6.219 12.703 0 23-10.298 23-23 0-6.081-2.364-11.606-6.219-15.719z" style="opacity:.1"/>
 <path d="m31.25 2.375c8.615 3.154 14.75 11.417 14.75 21.13 0 12.426-10.07 22.5-22.5 22.5-9.708 0-17.971-6.135-21.12-14.75a23 23 0 0 0 44.875-7 23 23 0 0 0-16-21.875z" style="opacity:.2"/>
 <path d="m24 1c12.703 0 23 10.297 23 23s-10.297 23-23 23-23-10.297-23-23 10.297-23 23-23z" style="fill:url(#bg)"/>
 <path d="m25 10c-8.2843-0.0047-15 6.7157-15 15s6.7157 15.004 15 15c4.7152-2e-3 9.1537-2.2279 11.982-6h-2.6211c-2.4469 2.5505-5.8269 3.9982-9.3613 4-7.1797 0.0036-13-5.8203-13-13s5.8203-13.001 13-13c3.5392 5.24e-4 6.9248 1.4461 9.375 4h2.6016c-2.828-3.77-7.2636-5.9973-11.977-6zm-8 8.0019v1.998l1 0.99805v-0.99805h9.998v0.99805l1-0.99805v-1.998zm14 0c-0.55276 0-1 0.44175-1 0.99805 0 0.55275 0.44724 1 1 1h2.002c0.55276 0 1-0.44725 1-1 0-0.55276-0.44724-0.99805-1-0.99805zm-13 3.9961c-0.55276 0-1 0.44724-1 1s0.44724 0.99805 1 0.99805h2.002c0.55275 0 0.99805-0.44175 0.99805-0.99805 0-0.55276-0.44175-1-0.99805-1zm6.0156 0v1.998l1 1v-1h8v1l1-1v-1.998zm-6.0156 3.9961c-0.55276 0-1 0.44725-1 1 0 0.55276 0.44724 1 1 1h6.002c0.55276 0 1-0.44724 1-1 0-0.55275-0.44724-1-1-1zm10.998 0c-0.55275 0-1 0.44725-1 1 0 0.55276 0.44725 1 1 1h2.002c0.55276 0 1-0.44724 1-1 0-0.55275-0.44724-1-1-1zm-11.998 4.002v1.998l1 0.99805v-0.99805h8v0.99805l1-0.99805v-1.998zm11.998 0c-0.55275 0-1 0.44175-1 0.99805 0 0.55276 0.44725 1 1 1h1.002c0.55276 0 1-0.44724 1-1 0-0.55275-0.44724-0.99805-1-0.99805zm3.9961 0-0.99805 0.99805 0.99805 1 1-1z" style="opacity:.1"/>
 <path d="m24 9c-8.2843-0.0047-15 6.7157-15 15s6.7157 15.004 15 15c4.7152-2e-3 9.1533-2.2279 11.982-6h-2.6211c-2.4469 2.5505-5.8269 3.9982-9.3613 4-7.1797 0.0036-13-5.8203-13-13s5.8203-13.001 13-13c3.5392 5.24e-4 6.9248 1.4461 9.375 4h2.6016c-2.828-3.77-7.264-5.9973-11.977-6z" style="fill:#616e59"/>
 <path d="m40.03 7.531c3.712 4.084 5.969 9.514 5.969 15.469 0 12.703-10.297 23-23 23-5.954 0-11.384-2.256-15.469-5.969 4.178 4.291 10.01 6.969 16.469 6.969 12.703 0 23-10.298 23-23 0-6.462-2.677-12.291-6.969-16.469z" style="opacity:.1"/>
 <path d="m16 17.002v1.998l1 0.99805 0.003906-0.99805h9.998v0.99805l1-0.99805v-1.998zm7.0156 4v1.998l1 1v-1h8v1l1-1v-1.998zm-7.0156 8v1.998l1 1v-1h8v1l1-1v-1.998z" style="fill:#5f8dd3"/>
 <rect x="16" y="24.999" width="8.0008" height="1.9984" rx=".99921" style="fill:#37c837"/>
 <rect x="26.999" y="24.999" width="4.0004" height="1.9984" rx=".99921" style="fill:#37c837"/>
 <path d="m30.996 29.998 0.99921-0.99921 0.99921 0.99921-0.99921 0.99921" style="fill:#cd4b4b"/>
 <rect x="16" y="20.998" width="4.0004" height="1.9984" rx=".99921" style="fill:#37c837"/>
 <rect x="29.001" y="17.001" width="4.0004" height="1.9984" rx=".99921" style="fill:#37c837"/>
 <rect x="26.999" y="28.999" width="3.0012" height="1.9984" rx=".99921" style="fill:#37c837"/>
</svg>
