<svg version="1.1" viewBox="0 0 48 48" xmlns="http://www.w3.org/2000/svg">
 <defs>
  <linearGradient id="bg" x2="0" y1="1" y2="47" gradientUnits="userSpaceOnUse">
   <stop style="stop-color:#ea6808" offset="0"/>
   <stop style="stop-color:#d75f07" offset="1"/>
  </linearGradient>
 </defs>
 <path d="m36.31 5c5.859 4.062 9.688 10.831 9.688 18.5 0 12.426-10.07 22.5-22.5 22.5-7.669 0-14.438-3.828-18.5-9.688 1.037 1.822 2.306 3.499 3.781 4.969 4.085 3.712 9.514 5.969 15.469 5.969 12.703 0 23-10.298 23-23 0-5.954-2.256-11.384-5.969-15.469-1.469-1.475-3.147-2.744-4.969-3.781zm4.969 3.781c3.854 4.113 6.219 9.637 6.219 15.719 0 12.703-10.297 23-23 23-6.081 0-11.606-2.364-15.719-6.219 4.16 4.144 9.883 6.719 16.219 6.719 12.703 0 23-10.298 23-23 0-6.335-2.575-12.06-6.719-16.219z" style="opacity:.05"/>
 <path d="m41.28 8.781c3.712 4.085 5.969 9.514 5.969 15.469 0 12.703-10.297 23-23 23-5.954 0-11.384-2.256-15.469-5.969 4.113 3.854 9.637 6.219 15.719 6.219 12.703 0 23-10.298 23-23 0-6.081-2.364-11.606-6.219-15.719z" style="opacity:.1"/>
 <path d="m31.25 2.375c8.615 3.154 14.75 11.417 14.75 21.13 0 12.426-10.07 22.5-22.5 22.5-9.708 0-17.971-6.135-21.12-14.75a23 23 0 0 0 44.875-7 23 23 0 0 0-16-21.875z" style="opacity:.2"/>
 <circle cx="24" cy="24" r="23" style="fill:url(#bg)"/>
 <path d="m25 11c-0.554 0-1 0.446-1 1v3c-3 0-7 3.5-7 10s4 10 7 10v3c0 0.554 0.446 1 1 1s1-0.446 1-1v-3c3.9989-0.01527 6.9932-3.0007 7-7 9.54e-4 -0.56382-0.44236-1.0087-1-1-0.55764 0.0087-1.0012 0.44842-1 1 0.0064 2.9986-2.0023 5.0114-5 5v-16c1.9844 0.01368 3.3429 0.7173 4.1992 2-1.2455 0.1609-2.1985 1.1817-2.1992 2.5-7.11e-4 1.3183 1.1193 2.5 2.5 2.5s2.5-1.1193 2.5-2.5c0-4.5-4-6.5-7-6.5v-3c0-0.554-0.446-1-1-1zm-1 6.5v15c-1-0.5-2-1.7203-2-7.5s1-7 2-7.5z" style="opacity:.1;paint-order:normal"/>
 <path d="m40.03 7.531c3.712 4.084 5.969 9.514 5.969 15.469 0 12.703-10.297 23-23 23-5.954 0-11.384-2.256-15.469-5.969 4.178 4.291 10.01 6.969 16.469 6.969 12.703 0 23-10.298 23-23 0-6.462-2.677-12.291-6.969-16.469z" style="opacity:.1"/>
 <path d="m24 10c-0.554 0-1 0.446-1 1v3c-3 0-7 3.5-7 10s4 10 7 10v3c0 0.554 0.446 1 1 1s1-0.446 1-1v-3c3.9989-0.01527 6.9932-3.0007 7-7 9.54e-4 -0.56382-0.44236-1.0087-1-1-0.55764 0.0087-1.0012 0.44842-1 1 0.0064 2.9986-2.0023 5.0114-5 5v-16c1.9844 0.01368 3.3429 0.7173 4.1992 2-1.2455 0.1609-2.1985 1.1817-2.1992 2.5-7.11e-4 1.3183 1.1193 2.5 2.5 2.5s2.5-1.1193 2.5-2.5c0-4.5-4-6.5-7-6.5v-3c0-0.554-0.446-1-1-1zm-1 6.5v15c-1-0.5-2-1.7203-2-7.5s1-7 2-7.5z" style="fill:#fd6;paint-order:normal"/>
</svg>
