<svg xmlns="http://www.w3.org/2000/svg" version="1.1" viewBox="0 0 48 48">
 <defs>
  <linearGradient id="linearGradient3764" x2="47" gradientUnits="userSpaceOnUse" x1="1" gradientTransform="matrix(0 -1 1 0 -.0000015 48)">
   <stop style="stop-color:#e4e4e4" offset="0"/>
   <stop style="stop-color:#eee" offset="1"/>
  </linearGradient>
 </defs>
 <path style="opacity:.05" d="m36.31 5c5.859 4.062 9.688 10.831 9.688 18.5 0 12.426-10.07 22.5-22.5 22.5-7.669 0-14.438-3.828-18.5-9.688 1.037 1.822 2.306 3.499 3.781 4.969 4.085 3.712 9.514 5.969 15.469 5.969 12.703 0 23-10.298 23-23 0-5.954-2.256-11.384-5.969-15.469-1.469-1.475-3.147-2.744-4.969-3.781zm4.969 3.781c3.854 4.113 6.219 9.637 6.219 15.719 0 12.703-10.297 23-23 23-6.081 0-11.606-2.364-15.719-6.219 4.16 4.144 9.883 6.719 16.219 6.719 12.703 0 23-10.298 23-23 0-6.335-2.575-12.06-6.719-16.219z"/>
 <path style="opacity:.1" d="m41.28 8.781c3.712 4.085 5.969 9.514 5.969 15.469 0 12.703-10.297 23-23 23-5.954 0-11.384-2.256-15.469-5.969 4.113 3.854 9.637 6.219 15.719 6.219 12.703 0 23-10.298 23-23 0-6.081-2.364-11.606-6.219-15.719z"/>
 <path style="opacity:.2" d="m31.25 2.375c8.615 3.154 14.75 11.417 14.75 21.13 0 12.426-10.07 22.5-22.5 22.5-9.708 0-17.971-6.135-21.12-14.75a23 23 0 0 0 44.875 -7 23 23 0 0 0 -16 -21.875z"/>
 <path style="fill:url(#linearGradient3764)" d="m24 1c12.703 0 23 10.297 23 23s-10.297 23-23 23-23-10.297-23-23 10.297-23 23-23z"/>
 <g transform="translate(-1)">
  <g transform="translate(1,1)">
   <g style="opacity:.1">
    <path d="m30.891 12.01c-4.591-0.119-7.859 0.553-11.891 3.16v14.971c-0.322-0.083-0.652-0.143-1-0.143-2.211 0-4 1.789-4 4s1.789 4 4 4c2.207 0 4-1.789 4-4 0-0.029-0.007-0.055-0.008-0.084 0.003 0 0.005 0 0.008-0.002v-12.973c3.77-2.699 6.711-3.348 11-2.332v9.533c-0.322-0.084-0.652-0.143-1-0.143-2.211 0-4 1.793-4 4 0 2.211 1.789 4 4 4 2.168 0 3.927-1.73 3.988-3.887 0.004 0 0.007 0.003 0.012 0.004v-0.117-19.648c-1.901-0.173-3.579-0.3-5.109-0.34z" transform="translate(-1,-1)"/>
   </g>
  </g>
 </g>
 <g transform="translate(-1)">
  <path style="fill:#2d4c78" d="m21 19.941c3.77-2.699 6.711-3.348 11-2.332v10.06c-0.203 0.398-1.066 2.348 3 3.449v-19.766c-7.605-0.691-11.625-0.656-17 2.82v15.824c-1.6918 1.61-5.586 4.84 3 2.918"/>
  <path style="fill:#2d4c78" d="m21 33c0 2.211-1.793 4-4 4-2.211 0-4-1.789-4-4s1.789-4 4-4c2.207 0 4 1.789 4 4"/>
  <path style="fill:#2d4c78" d="m35 31c0 2.211-1.793 4-4 4-2.211 0-4-1.789-4-4 0-2.207 1.789-4 4-4 2.207 0 4 1.793 4 4"/>
 </g>
 <path style="opacity:.1" d="m40.03 7.531c3.712 4.084 5.969 9.514 5.969 15.469 0 12.703-10.297 23-23 23-5.954 0-11.384-2.256-15.469-5.969 4.178 4.291 10.01 6.969 16.469 6.969 12.703 0 23-10.298 23-23 0-6.462-2.677-12.291-6.969-16.469z"/>
</svg>
