<svg xmlns="http://www.w3.org/2000/svg" viewBox="0 0 48 48">
 <defs>
  <linearGradient id="linearGradient3764" x1="1" x2="47" gradientUnits="userSpaceOnUse" gradientTransform="matrix(0,-1,1,0,-1.5e-6,47.999998)">
   <stop style="stop-color:#b42a41;stop-opacity:1"/>
   <stop offset="1" style="stop-color:#c42e46;stop-opacity:1"/>
  </linearGradient>
 </defs>
 <g>
  <path d="m 36.31 5 c 5.859 4.062 9.688 10.831 9.688 18.5 c 0 12.426 -10.07 22.5 -22.5 22.5 c -7.669 0 -14.438 -3.828 -18.5 -9.688 c 1.037 1.822 2.306 3.499 3.781 4.969 c 4.085 3.712 9.514 5.969 15.469 5.969 c 12.703 0 23 -10.298 23 -23 c 0 -5.954 -2.256 -11.384 -5.969 -15.469 c -1.469 -1.475 -3.147 -2.744 -4.969 -3.781 z m 4.969 3.781 c 3.854 4.113 6.219 9.637 6.219 15.719 c 0 12.703 -10.297 23 -23 23 c -6.081 0 -11.606 -2.364 -15.719 -6.219 c 4.16 4.144 9.883 6.719 16.219 6.719 c 12.703 0 23 -10.298 23 -23 c 0 -6.335 -2.575 -12.06 -6.719 -16.219 z" style="opacity:0.05"/>
  <path d="m 41.28 8.781 c 3.712 4.085 5.969 9.514 5.969 15.469 c 0 12.703 -10.297 23 -23 23 c -5.954 0 -11.384 -2.256 -15.469 -5.969 c 4.113 3.854 9.637 6.219 15.719 6.219 c 12.703 0 23 -10.298 23 -23 c 0 -6.081 -2.364 -11.606 -6.219 -15.719 z" style="opacity:0.1"/>
  <path d="m 31.25 2.375 c 8.615 3.154 14.75 11.417 14.75 21.13 c 0 12.426 -10.07 22.5 -22.5 22.5 c -9.708 0 -17.971 -6.135 -21.12 -14.75 a 23 23 0 0 0 44.875 -7 a 23 23 0 0 0 -16 -21.875 z" style="opacity:0.2"/>
 </g>
 <g>
  <path d="m 24 1 c 12.703 0 23 10.297 23 23 c 0 12.703 -10.297 23 -23 23 -12.703 0 -23 -10.297 -23 -23 0 -12.703 10.297 -23 23 -23 z" style="fill:url(#linearGradient3764);fill-opacity:1"/>
 </g>
 <g>
  <g>
   <g transform="translate(1,1)">
    <g style="opacity:0.1">
     <!-- color: #c42e46 -->
     <g>
      <path d="m 31.451 13 c -1.915 0.085 -5.805 2.801 -8.85 6.172 a 6 6 0 0 0 -1.619 0.646 c -0.094 -1.572 -1.387 -2.82 -2.982 -2.82 c -1.657 0 -3 1.343 -3 3 c 0 1.657 1.343 3 3 3 c 0.12 0 0.24 -0.014 0.359 -0.029 a 6 6 0 0 0 -0.309 1.311 a 4.5 4.5 0 0 0 -1.551 -0.281 a 4.5 4.5 0 0 0 -4.5 4.5 a 4.5 4.5 0 0 0 4.5 4.5 a 4.5 4.5 0 0 0 4.227 -2.973 a 6 6 0 0 0 3.273 0.973 a 6 6 0 0 0 0.184 -0.01 c -0.117 0.323 -0.183 0.664 -0.184 1.01 c -0.001 1.657 1.343 3 3 3 c 1.657 0 3 -1.343 3 -3 c -0.001 -1.202 -0.718 -2.264 -1.785 -2.736 a 6 6 0 0 0 1.244 -1.793 c 0.743 1.527 2.301 2.528 4.04 2.529 c 2.485 0 4.5 -2.01 4.5 -4.5 c 0 -2.485 -2.01 -4.5 -4.5 -4.5 c -1.565 0 -2.995 0.815 -3.809 2.113 a 6 6 0 0 0 -2.119 -2.928 l 2.502 -3.035 l -0.914 4.273 c 4.136 -6.244 4.1 -8.502 2.291 -8.422 z m -10.258 7.871 c -0.581 0.765 -1.121 1.539 -1.549 2.316 l 0.016 0 c 1.254 0.492 2.406 1.443 3.289 2.604 l 3.986 -4.834 a 5 5 0 0 1 2.064 4.04 a 5 5 0 0 1 -5 5 a 5 5 0 0 1 -3.03 -1.029 a 4.5 4.5 0 0 0 0.027 -0.471 a 4.5 4.5 0 0 0 -1.988 -3.732 a 5 5 0 0 1 2.182 -3.895 z" transform="translate(-1,-1)" style="fill:#000;fill-opacity:1;stroke:none;fill-rule:nonzero"/>
     </g>
    </g>
   </g>
  </g>
 </g>
 <g>
  <g>
   <!-- color: #c42e46 -->
   <g>
    <path d="m 18.66 22.19 c 1.254 0.492 2.406 1.441 3.289 2.602 l 7.125 -8.641 l -0.914 4.273 c 10.18 -15.371 -4.914 -6.586 -9.516 1.766 m 0.016 0" style="fill:#f9f9f9;fill-opacity:1;stroke:none;fill-rule:nonzero"/>
   </g>
  </g>
 </g>
 <g>
  <path d="m 40.03 7.531 c 3.712 4.084 5.969 9.514 5.969 15.469 0 12.703 -10.297 23 -23 23 c -5.954 0 -11.384 -2.256 -15.469 -5.969 4.178 4.291 10.01 6.969 16.469 6.969 c 12.703 0 23 -10.298 23 -23 0 -6.462 -2.677 -12.291 -6.969 -16.469 z" style="opacity:0.1"/>
 </g>
 <circle cx="15.5" cy="27.5" r="4.5" style="fill:#f9f9f9;opacity:1;fill-opacity:1;stroke:none"/>
 <path d="m 26.678 28.08 c -0.903 0.814 -2.05 1.307 -3.262 1.4 c -0.271 0.46 -0.416 0.984 -0.416 1.518 c -0.001 1.657 1.343 3 3 3 1.657 0 3 -1.343 3 -3 -0.001 -1.394 -0.964 -2.603 -2.322 -2.918 z" style="fill:#f9f9f9;opacity:1;fill-opacity:1;stroke:none"/>
 <path d="m 32.5 20 c -1.812 0 -3.448 1.088 -4.148 2.76 c 0.096 0.406 0.146 0.823 0.148 1.24 -0.002 0.61 -0.106 1.215 -0.307 1.791 0.57 1.903 2.32 3.207 4.307 3.209 2.485 0 4.5 -2.01 4.5 -4.5 0 -2.485 -2.01 -4.5 -4.5 -4.5" style="fill:#f9f9f9;opacity:1;fill-opacity:1;stroke:none"/>
 <path d="m 17 16 c -1.657 0 -3 1.343 -3 3 0 1.657 1.343 3 3 3 0.319 0 0.637 -0.053 0.939 -0.154 0.423 -0.991 1.128 -1.836 2.027 -2.43 c 0.021 -0.138 0.033 -0.277 0.033 -0.416 0.001 -1.657 -1.343 -3 -3 -3" style="fill:#f9f9f9;opacity:1;fill-opacity:1;stroke:none"/>
 <path d="m 23 18 a 6 6 0 0 0 -6 6 6 6 0 0 0 6 6 6 6 0 0 0 6 -6 6 6 0 0 0 -6 -6 z m 0 1 a 5 5 0 0 1 5 5 5 5 0 0 1 -5 5 5 5 0 0 1 -5 -5 5 5 0 0 1 5 -5 z" style="fill:#f9f9f9;opacity:1;fill-opacity:1;stroke:none"/>
</svg>
