<svg version="1.1" viewBox="0 0 48 48" xmlns="http://www.w3.org/2000/svg">
 <defs>
  <linearGradient id="bg" x1="1" x2="47" gradientTransform="matrix(0 -1 1 0 -1.5e-6 48)" gradientUnits="userSpaceOnUse">
   <stop style="stop-color:#e4e4e4" offset="0"/>
   <stop style="stop-color:#eee" offset="1"/>
  </linearGradient>
 </defs>
 <path d="m36.31 5c5.859 4.062 9.688 10.831 9.688 18.5 0 12.426-10.07 22.5-22.5 22.5-7.669 0-14.438-3.828-18.5-9.688 1.037 1.822 2.306 3.499 3.781 4.969 4.085 3.712 9.514 5.969 15.469 5.969 12.703 0 23-10.298 23-23 0-5.954-2.256-11.384-5.969-15.469-1.469-1.475-3.147-2.744-4.969-3.781zm4.969 3.781c3.854 4.113 6.219 9.637 6.219 15.719 0 12.703-10.297 23-23 23-6.081 0-11.606-2.364-15.719-6.219 4.16 4.144 9.883 6.719 16.219 6.719 12.703 0 23-10.298 23-23 0-6.335-2.575-12.06-6.719-16.219z" style="opacity:.05"/>
 <path d="m41.28 8.781c3.712 4.085 5.969 9.514 5.969 15.469 0 12.703-10.297 23-23 23-5.954 0-11.384-2.256-15.469-5.969 4.113 3.854 9.637 6.219 15.719 6.219 12.703 0 23-10.298 23-23 0-6.081-2.364-11.606-6.219-15.719z" style="opacity:.1"/>
 <path d="m31.25 2.375c8.615 3.154 14.75 11.417 14.75 21.13 0 12.426-10.07 22.5-22.5 22.5-9.708 0-17.971-6.135-21.12-14.75a23 23 0 0 0 44.875-7 23 23 0 0 0-16-21.875z" style="opacity:.2"/>
 <path d="m24 1c12.703 0 23 10.297 23 23s-10.297 23-23 23-23-10.297-23-23 10.297-23 23-23z" style="fill:url(#bg)"/>
 <path d="m12 16v18h26v-18h-26zm1 1h11v16h-11v-16zm13 0h11v16h-11v-16zm7.416 1.658c0.334 2.101 1.062 4.168 0.934 6.32-0.086 0.787-0.209 1.586-0.529 2.324-0.436 1.01-1.37-1.872-1.637-2.637-0.224-0.642-1-0.582-1.268 0.033-0.346 0.802-0.483 1.697-0.943 2.441-1.706 2.758-1.86-3.236-1.051-4.623-3e-3 -0.489-1.086-0.371-1.086-0.371-0.076 2.091-0.88 5.873 0.307 7.523 0.645 0.897 2.108-0.171 2.709-1.561 1.105-2.555 1.24 2.183 3.338 1.35 0.909-0.503 1.279-1.711 1.309-2.744 0.058-2.029-0.813-6.01-2.082-8.06zm-14.217 1.344c-0.446-0.025-1.01 0.328-1.322 0.613-1.69 1.118-3.26 2.906-3.371 5.162-0.115 1.978 1.489 3.521 3.115 4.03 1.545 0.533 3.584-0.061 4.879-1.316-1.045 0.528-2.246 0.644-3.371 0.4-1.461-0.299-3.083-1.295-3.324-3.03-8e-3 -1.644 0.972-3.261 2.334-3.955 0.677-0.14 1.886-0.279 1.66-1.346-0.107-0.386-0.332-0.538-0.6-0.553z" style="fill-rule:evenodd;opacity:.1"/>
 <path d="m40.03 7.531c3.712 4.084 5.969 9.514 5.969 15.469 0 12.703-10.297 23-23 23-5.954 0-11.384-2.256-15.469-5.969 4.178 4.291 10.01 6.969 16.469 6.969 12.703 0 23-10.298 23-23 0-6.462-2.677-12.291-6.969-16.469z" style="opacity:.1"/>
 <path d="m11 15v18h26v-18h-26zm1 1h11v16h-11zm13 0h11v16h-11z" style="fill-rule:evenodd;fill:#969696"/>
 <path d="m32.41 17.656c0.334 2.101 1.0645 4.1693 0.93555 6.3223-0.086 0.787-0.2093 1.5862-0.5293 2.3242-0.435 1.005-1.3697-1.8747-1.6367-2.6387-0.224-0.642-1.0016-0.57984-1.2676 0.035157-0.347 0.802-0.48236 1.6945-0.94336 2.4395-1.706 2.758-1.8588-3.2341-1.0488-4.6211-2e-3 -0.489-1.0879-0.37109-1.0879-0.37109-0.076 2.091-0.87741 5.8724 0.30859 7.5234l-0.001953 0.001953c0.645 0.897 2.108-0.17155 2.709-1.5605 1.105-2.555 1.2399 2.1826 3.3379 1.3496 0.908-0.503 1.2776-1.7101 1.3066-2.7441 0.057999-2.03-0.81303-6.0135-2.082-8.0605zm-14.211 1.3418c-0.44569-0.025361-1.006 0.32961-1.3223 0.61523-1.69 1.121-3.2601 2.9042-3.3711 5.1602-0.115 1.981 1.4873 3.5252 3.1133 4.0312l0.001953-0.00586c1.546 0.532 3.5859-0.060406 4.8809-1.3164-1.045 0.528-2.248 0.64339-3.373 0.40039-1.462-0.296-3.0832-1.2932-3.3242-3.0312-0.008001-1.644 0.97298-3.2591 2.334-3.9531 0.677-0.14 1.8871-0.28066 1.6621-1.3477-0.10688-0.3855-0.33415-0.53752-0.60156-0.55273z" style="fill:#474747"/>
</svg>
