<svg version="1.1" viewBox="0 0 48 48" xmlns="http://www.w3.org/2000/svg">
 <defs>
  <linearGradient id="bg" x2="0" y1="1" y2="47" gradientUnits="userSpaceOnUse">
   <stop style="stop-color:#e24652" offset="0"/>
   <stop style="stop-color:#df3643" offset="1"/>
  </linearGradient>
 </defs>
 <path d="m36.3 5c5.86 4.06 9.69 10.8 9.69 18.5 0 12.4-10.1 22.5-22.5 22.5-7.67 0-14.4-3.83-18.5-9.69 1.04 1.82 2.31 3.5 3.78 4.97 4.08 3.71 9.51 5.97 15.5 5.97 12.7 0 23-10.3 23-23 0-5.95-2.26-11.4-5.97-15.5-1.47-1.48-3.15-2.74-4.97-3.78zm4.97 3.78c3.85 4.11 6.22 9.64 6.22 15.7 0 12.7-10.3 23-23 23-6.08 0-11.6-2.36-15.7-6.22 4.16 4.14 9.88 6.72 16.2 6.72 12.7 0 23-10.3 23-23 0-6.34-2.58-12.1-6.72-16.2z" style="opacity:.05"/>
 <path d="m41.3 8.78c3.71 4.08 5.97 9.51 5.97 15.5 0 12.7-10.3 23-23 23-5.95 0-11.4-2.26-15.5-5.97 4.11 3.85 9.64 6.22 15.7 6.22 12.7 0 23-10.3 23-23 0-6.08-2.36-11.6-6.22-15.7z" style="opacity:.1"/>
 <path d="m31.2 2.38c8.62 3.15 14.8 11.4 14.8 21.1 0 12.4-10.1 22.5-22.5 22.5-9.71 0-18-6.14-21.1-14.8a23 23 0 0 0 44.9-7 23 23 0 0 0-16-21.9z" style="opacity:.2"/>
 <circle cx="24" cy="24" r="23" style="fill:url(#bg)"/>
 <path d="m40 7.53c3.71 4.08 5.97 9.51 5.97 15.5 0 12.7-10.3 23-23 23-5.95 0-11.4-2.26-15.5-5.97 4.18 4.29 10 6.97 16.5 6.97 12.7 0 23-10.3 23-23 0-6.46-2.68-12.3-6.97-16.5z" style="opacity:.1"/>
 <path d="m25 12c-4.42 0-8 3.58-8 8s3.58 8 8 8 8-3.58 8-8-3.58-8-8-8zm-1.95 3c0.178 0.0084 0.354 0.0637 0.508 0.166l6 4-6 5.66-1.55-0.832v-8c1.65e-4 -0.368 0.203-0.707 0.527-0.881 0.163-0.0873 0.342-0.126 0.52-0.117zm-10 19c0 0.554 0.446 1 1 1h2.17c0.424 1.2 1.56 2 2.83 2 1.27-0.0018 2.4-0.803 2.82-2h14.2c0.554 0 1-0.446 1-1s-0.446-1-1-1c0 0-23.1 1.04-23 1z" style="opacity:.1"/>
 <path d="m24 11c-4.42 0-8 3.58-8 8s3.58 8 8 8 8-3.58 8-8-3.58-8-8-8zm-1.95 3c0.178 0.00845 0.354 0.0637 0.508 0.166l6 4c0.594 0.396 0.594 1.27 0 1.66l-6 4c-0.665 0.443-1.55-0.0334-1.55-0.832v-8c1.65e-4 -0.368 0.203-0.707 0.527-0.881 0.163-0.0873 0.342-0.126 0.52-0.117zm-9.05 18c-0.554 0-1 0.446-1 1s0.446 1 1 1h22c0.554 0 1-0.446 1-1s-0.446-1-1-1h-22z" style="fill:#f9f9f9"/>
 <path d="m17 32v2h5c-0.0015-0.739-0.276-1.45-0.77-2z" style="opacity:.1"/>
 <circle cx="18" cy="33" r="3" style="fill:#7081c0"/>
</svg>
