<svg version="1.1" viewBox="0 0 48 48" xmlns="http://www.w3.org/2000/svg" xmlns:xlink="http://www.w3.org/1999/xlink">
 <defs>
  <linearGradient id="linearGradient840" x2="0" y1="47" y2="1" gradientUnits="userSpaceOnUse">
   <stop style="stop-color:#e4e4e4" offset="0"/>
   <stop style="stop-color:#eee" offset="1"/>
  </linearGradient>
 </defs>
 <path d="m36.31 5c5.859 4.062 9.688 10.831 9.688 18.5 0 12.426-10.07 22.5-22.5 22.5-7.669 0-14.438-3.828-18.5-9.688 1.037 1.822 2.306 3.499 3.781 4.969 4.085 3.712 9.514 5.969 15.469 5.969 12.703 0 23-10.298 23-23 0-5.954-2.256-11.384-5.969-15.469-1.469-1.475-3.147-2.744-4.969-3.781zm4.969 3.781c3.854 4.113 6.219 9.637 6.219 15.719 0 12.703-10.297 23-23 23-6.081 0-11.606-2.364-15.719-6.219 4.16 4.144 9.883 6.719 16.219 6.719 12.703 0 23-10.298 23-23 0-6.335-2.575-12.06-6.719-16.219z" style="opacity:.05"/>
 <path d="m41.28 8.781c3.712 4.085 5.969 9.514 5.969 15.469 0 12.703-10.297 23-23 23-5.954 0-11.384-2.256-15.469-5.969 4.113 3.854 9.637 6.219 15.719 6.219 12.703 0 23-10.298 23-23 0-6.081-2.364-11.606-6.219-15.719z" style="opacity:.1"/>
 <path d="m31.25 2.375c8.615 3.154 14.75 11.417 14.75 21.13 0 12.426-10.07 22.5-22.5 22.5-9.708 0-17.971-6.135-21.12-14.75a23 23 0 0 0 44.875-7 23 23 0 0 0-16-21.875z" style="opacity:.2"/>
 <circle cx="24" cy="24" r="23" style="fill:url(#linearGradient840)"/>
 <path d="m24 1v6h-7v-4.9121c-0.33656 0.10743-0.67038 0.22145-1 0.34375v4.5703h-7v-0.42969c-0.52706 0.45404-1.0338 0.93028-1.5176 1.4297h0.51758v7h-5.1738c-0.14004 0.32912-0.26961 0.66322-0.39453 1h5.5664v7h-6.9727c-0.014156 0.33126-0.025391 0.6633-0.025391 0.99805v0.001953h6.998v7h-5.9102c0.10752 0.33677 0.22328 0.67018 0.3457 1h5.5645v7h-1.4258c0.295 0.34239 0.59968 0.67563 0.91406 1h0.51367v0.51367c0.32476 0.31468 0.65914 0.61881 1.002 0.91406v-1.4277h6.9961v5.5645c0.33098 0.12285 0.66594 0.23786 1.0039 0.3457v-5.9082h6.9961v6.9961h0.001953c0.33474 0 0.66679-0.011234 0.99805-0.025391v-6.9727h7v5.5664c0.33678-0.12492 0.67088-0.2545 1-0.39453v-5.1699l7-0.003906v0.5l0.001953-0.001953v0.017578c0.49869-0.48322 0.97429-0.98926 1.4277-1.5156h-0.42773l-0.001953-6.9961h4.5684c0.12287-0.33096 0.23783-0.66596 0.3457-1.0039h-4.9141v-6.9961h6.002v-0.003906c0-0.3354-0.011179-0.6681-0.025391-1h-5.9766v-6.9961h4.5703c-0.12541-0.33817-0.25584-0.67345-0.39648-1.0039h-4.1719l0.001953-6.4902c-0.4784-0.52478-0.98125-1.0273-1.5059-1.5059l-6.4961-0.0039062v-4.1719c-0.33045-0.14065-0.66573-0.27107-1.0039-0.39648v4.5703h-6.9961v-5.9766c-0.3319-0.014211-0.6646-0.025391-1-0.025391zm-14.998 7.0039h6.998v6.9961h-6.998v-6.9961zm8 0h6.998v6.9961h-6.998v-6.9961zm8 0h6.998v6.9961h-6.998v-6.9961zm8 0h6.998v6.9961h-6.998v-6.9961zm-24 8h6.998v6.9961h-6.998v-6.9961zm8 0h6.998v6.9961h-6.998v-6.9961zm8 0h6.998v6.9961h-6.998v-6.9961zm8 0h6.998v6.9961h-6.998v-6.9961zm-24 8h6.998v6.9961h-6.998v-6.9961zm8 0h6.998v6.9961h-6.998v-6.9961zm8 0h6.998v6.9961h-6.998v-6.9961zm8 0h6.998v6.9961h-6.998v-6.9961zm-24 8h6.998v6.9961h-6.998v-6.9961zm8 0h6.998v6.9961h-6.998v-6.9961zm8 0h6.998v6.9961h-6.998v-6.9961zm8 0h6.998v6.9961h-6.998v-6.9961z" style="opacity:.1"/>
 <path d="m40.03 7.531c3.712 4.084 5.969 9.514 5.969 15.469 0 12.703-10.297 23-23 23-5.954 0-11.384-2.256-15.469-5.969 4.178 4.291 10.01 6.969 16.469 6.969 12.703 0 23-10.298 23-23 0-6.462-2.677-12.291-6.969-16.469z" style="opacity:.1"/>
 <path d="m25 10c-8.2724 0-15 6.7276-15 15 0 1.8064 0.326 3.5986 0.96289 5.2891a1.0001 1.0001 0 1 0 1.8711-0.70508c-0.55198-1.4651-0.83398-3.0184-0.83398-4.584 0-7.1915 5.8085-13 13-13 3.4961 0 6.7989 1.4504 9.2344 3.9277l-2.5801 4.6387-2.0996-1.3984a1.0001 1.0001 0 0 0-1.3359 0.20703l-3.5645 4.4551-2.3379-0.7793a1.0001 1.0001 0 0 0-1.2363 0.55469l-2.5273 5.8945-1.998-1.332a1.0001 1.0001 0 0 0-1.4902 0.48047l-1.832 4.8691a1.0001 1.0001 0 0 0 0.16211 0.98633c2.8474 3.4786 7.1087 5.4961 11.605 5.4961 8.2724 0 15-6.7276 15-15 0-2.2125-0.48976-4.3973-1.4336-6.3984a1.0001 1.0001 0 1 0-1.8086 0.85352c0.81801 1.7343 1.2422 3.6274 1.2422 5.5449 0 7.1915-5.8085 13-13 13-3.7143 0-7.2084-1.625-9.668-4.3828l1.1602-3.0879 1.9531 1.3027a1.0001 1.0001 0 0 0 1.4746-0.4375l2.6367-6.1543 2.127 0.70898a1.0001 1.0001 0 0 0 1.0977-0.32422l3.4277-4.2852 2.2363 1.4922a1.0001 1.0001 0 0 0 1.4277-0.3457l3.4902-6.2715a1.0001 1.0001 0 0 0-0.12305-1.1484c-2.8451-3.22-6.9404-5.0664-11.24-5.0664zm-1 3v3h2v-3zm-11 11v2h3v-2zm21 0v2h3v-2zm-10 10v3h2v-3z" style="opacity:.1"/>
 <path d="m24 9c-8.2724 0-15 6.7276-15 15 0 1.8064 0.326 3.5986 0.96289 5.2891a1.0001 1.0001 0 1 0 1.8711-0.70508c-0.55198-1.4651-0.83398-3.0184-0.83398-4.584 0-7.1915 5.8085-13 13-13 3.4961 0 6.7989 1.4504 9.2344 3.9277l-2.5801 4.6387-2.0996-1.3984a1.0001 1.0001 0 0 0-1.3359 0.20703l-3.5645 4.4551-2.3379-0.7793a1.0001 1.0001 0 0 0-1.2363 0.55469l-2.5273 5.8945-1.998-1.332a1.0001 1.0001 0 0 0-1.4902 0.48047l-1.832 4.8691a1.0001 1.0001 0 0 0 0.16211 0.98633c2.8474 3.4786 7.1087 5.4961 11.605 5.4961 8.2724 0 15-6.7276 15-15 0-2.2125-0.48976-4.3973-1.4336-6.3984a1.0001 1.0001 0 1 0-1.8086 0.85352c0.81801 1.7343 1.2422 3.6274 1.2422 5.5449 0 7.1915-5.8085 13-13 13-3.7143 0-7.2084-1.625-9.668-4.3828l1.1602-3.0879 1.9531 1.3027a1.0001 1.0001 0 0 0 1.4746-0.4375l2.6367-6.1543 2.127 0.70898a1.0001 1.0001 0 0 0 1.0977-0.32422l3.4277-4.2852 2.2363 1.4922a1.0001 1.0001 0 0 0 1.4277-0.3457l3.4902-6.2715a1.0001 1.0001 0 0 0-0.12305-1.1484c-2.8451-3.22-6.9404-5.0664-11.24-5.0664zm-1 3v3h2v-3h-2zm-11 11v2h3v-2h-3zm21 0v2h3v-2h-3zm-10 10v3h2v-3h-2z" style="fill:#14abff"/>
</svg>
