<svg version="1.1" viewBox="0 0 48 48" xmlns="http://www.w3.org/2000/svg">
 <defs>
  <linearGradient id="bg" x1="1" x2="47" gradientTransform="matrix(0 -1 1 0 -1.5e-6 48)" gradientUnits="userSpaceOnUse">
   <stop style="stop-color:#e4e4e4" offset="0"/>
   <stop style="stop-color:#eee" offset="1"/>
  </linearGradient>
 </defs>
 <path d="m36.31 5c5.859 4.062 9.688 10.831 9.688 18.5 0 12.426-10.07 22.5-22.5 22.5-7.669 0-14.438-3.828-18.5-9.688 1.037 1.822 2.306 3.499 3.781 4.969 4.085 3.712 9.514 5.969 15.469 5.969 12.703 0 23-10.298 23-23 0-5.954-2.256-11.384-5.969-15.469-1.469-1.475-3.147-2.744-4.969-3.781zm4.969 3.781c3.854 4.113 6.219 9.637 6.219 15.719 0 12.703-10.297 23-23 23-6.081 0-11.606-2.364-15.719-6.219 4.16 4.144 9.883 6.719 16.219 6.719 12.703 0 23-10.298 23-23 0-6.335-2.575-12.06-6.719-16.219z" style="opacity:.05"/>
 <path d="m41.28 8.781c3.712 4.085 5.969 9.514 5.969 15.469 0 12.703-10.297 23-23 23-5.954 0-11.384-2.256-15.469-5.969 4.113 3.854 9.637 6.219 15.719 6.219 12.703 0 23-10.298 23-23 0-6.081-2.364-11.606-6.219-15.719z" style="opacity:.1"/>
 <path d="m31.25 2.375c8.615 3.154 14.75 11.417 14.75 21.13 0 12.426-10.07 22.5-22.5 22.5-9.708 0-17.971-6.135-21.12-14.75a23 23 0 0 0 44.875-7 23 23 0 0 0-16-21.875z" style="opacity:.2"/>
 <path d="m24 1c12.703 0 23 10.297 23 23s-10.297 23-23 23-23-10.297-23-23 10.297-23 23-23z" style="fill:url(#bg)"/>
 <path d="m40.03 7.531c3.712 4.084 5.969 9.514 5.969 15.469 0 12.703-10.297 23-23 23-5.954 0-11.384-2.256-15.469-5.969 4.178 4.291 10.01 6.969 16.469 6.969 12.703 0 23-10.298 23-23 0-6.462-2.677-12.291-6.969-16.469z" style="opacity:.1"/>
 <path d="m22.662 12.199v0.003906c-4.097-0.021-7.3461 6.9841-5.6621 11.203 4.653-4.534 9.0896-3.7304 8.1836-9.4434 0.491 0.591 1.1734 1.6054 1.3184 2.9824 0.21489 2.04-0.73916 4.8688-5.8555 8.0898-0.21209-0.022858-0.42801-0.035156-0.64648-0.035156-3.313 0-6 2.688-6 6 0 3.313 2.688 6 6 6 1.715 0 3.2498-0.723 4.3438-1.875-0.852-1.16-1.3438-2.578-1.3438-4.125s0.49175-2.965 1.3438-4.125c-0.64782-0.68216-1.4526-1.209-2.3555-1.5293 4.6212-3.161 5.7545-6.1876 5.5098-8.5117-0.191-1.808-0.93862-2.2887-1.5156-2.9277 1.555 0.236 2.9591 0.58927 3.6191 1.4473 0.839 1.091 1.1416 2.5972 1.1426 4.1582 0 2.1913-0.5857 4.3622-0.94141 5.498-3.22 0.10504-5.8027 2.7438-5.8027 5.9902 0 3.312 2.687 6 6 6 3.312 0 6-2.687 6-6 0-3.029-2.2497-5.5292-5.168-5.9355 0.37952-1.2408 0.91667-3.336 0.91602-5.5547 0-1.689-0.32242-3.4206-1.3574-4.7676-1.851-1.9-3.9135-2.1365-6.2695-2.2285-0.493-0.208-0.98198-0.31145-1.459-0.31445z" style="color-rendering:auto;color:#000000;fill-opacity:.098;image-rendering:auto;isolation:auto;mix-blend-mode:normal;shape-rendering:auto;solid-color:#000000;white-space:normal"/>
 <path d="m21.662 11.203c-4.097-0.021-7.346 6.984-5.662 11.203 4.653-4.534 9.09-3.73 8.184-9.443 0.491 0.591 1.173 1.605 1.318 2.982 0.227 2.155-0.843 5.189-6.754 8.637l0.504 0.865c6.091-3.553 7.519-7.02 7.246-9.613-0.191-1.808-0.939-2.289-1.516-2.928 1.555 0.236 2.959 0.589 3.619 1.447 0.839 1.091 1.142 2.597 1.143 4.158 0 3.122-1.211 6.326-1.211 6.326l0.934 0.359s1.282-3.307 1.281-6.686c0-1.689-0.322-3.421-1.357-4.768-1.851-1.9-3.914-2.137-6.27-2.229-0.493-0.208-0.982-0.31-1.459-0.313z" style="color-rendering:auto;color:#000000;fill:#4d9a0e;image-rendering:auto;isolation:auto;mix-blend-mode:normal;shape-rendering:auto;solid-color:#000000;white-space:normal" isolation="auto" mix-blend-mode="normal"/>
 <path d="m19 24c-3.313 0-6 2.688-6 6 0 3.313 2.688 6 6 6 1.715 0 3.2498-0.723 4.3438-1.875-0.852-1.16-1.3438-2.578-1.3438-4.125s0.49175-2.965 1.3438-4.125c-1.094-1.152-2.6288-1.875-4.3438-1.875zm10 0c-3.312 0-6 2.687-6 6 0 3.312 2.687 6 6 6 3.312 0 6-2.687 6-6 0-3.312-2.687-6-6-6z" style="fill:#9b0505"/>
</svg>
