<svg version="1.1" viewBox="0 0 48 48" xmlns="http://www.w3.org/2000/svg">
 <defs>
  <linearGradient id="bg" x2="0" y1="1" y2="47" gradientUnits="userSpaceOnUse">
   <stop style="stop-color:#575757" offset="0"/>
   <stop style="stop-color:#4d4d4d" offset="1"/>
  </linearGradient>
 </defs>
 <path d="m36.3 5c5.86 4.06 9.69 10.8 9.69 18.5 0 12.4-10.1 22.5-22.5 22.5-7.67 0-14.4-3.83-18.5-9.69 1.04 1.82 2.31 3.5 3.78 4.97 4.08 3.71 9.51 5.97 15.5 5.97 12.7 0 23-10.3 23-23 0-5.95-2.26-11.4-5.97-15.5-1.47-1.48-3.15-2.74-4.97-3.78zm4.97 3.78c3.85 4.11 6.22 9.64 6.22 15.7 0 12.7-10.3 23-23 23-6.08 0-11.6-2.36-15.7-6.22 4.16 4.14 9.88 6.72 16.2 6.72 12.7 0 23-10.3 23-23 0-6.34-2.58-12.1-6.72-16.2z" style="opacity:.05"/>
 <path d="m41.3 8.78c3.71 4.08 5.97 9.51 5.97 15.5 0 12.7-10.3 23-23 23-5.95 0-11.4-2.26-15.5-5.97 4.11 3.85 9.64 6.22 15.7 6.22 12.7 0 23-10.3 23-23 0-6.08-2.36-11.6-6.22-15.7z" style="opacity:.1"/>
 <path d="m31.2 2.38c8.62 3.15 14.8 11.4 14.8 21.1 0 12.4-10.1 22.5-22.5 22.5-9.71 0-18-6.14-21.1-14.8a23 23 0 0 0 44.9-7 23 23 0 0 0-16-21.9z" style="opacity:.2"/>
 <path d="m24 1a23 23 0 0 0-21.9 16l0.0176 14a23 23 0 0 0 21.9 16 23 23 0 0 0 21.9-16l-0.0176-14a23 23 0 0 0-21.9-16z" style="fill:url(#bg)"/>
 <path d="m18 12-3 6-12.9 13c0.117 0.336 0.242 0.67 0.375 1h19.5l3 5 3-5h17.5c0.126-0.331 0.243-0.664 0.354-1l-10.9-13-3-6-3 6h-8z" style="opacity:.1"/>
 <path d="m17 11-3 6h-11.9c-0.727 2.26-1.1 4.62-1.1 7 0.00905 2.38 0.387 4.74 1.12 7h18.9l3 5 3-5h18.9c0.727-2.26 1.1-4.62 1.1-7-0.0091-2.38-0.387-4.74-1.12-7h-11.9l-3-6-3 6h-8z" style="fill:#eb6b70"/>
 <path d="m40 7.53c3.71 4.08 5.97 9.51 5.97 15.5 0 12.7-10.3 23-23 23-5.95 0-11.4-2.26-15.5-5.97 4.18 4.29 10 6.97 16.5 6.97 12.7 0 23-10.3 23-23 0-6.46-2.68-12.3-6.97-16.5z" style="opacity:.1"/>
 <path d="m19 23v4h3v-4zm9 0v4h3v-4z" style="opacity:.1"/>
 <path d="m18 22v4h3v-4zm9 0v4h3v-4z" style="fill:#f9f9f9"/>
</svg>
