<svg xmlns="http://www.w3.org/2000/svg" viewBox="0 0 48 48">
 <defs>
  <linearGradient id="linearGradient3764" x1="1" x2="47" gradientUnits="userSpaceOnUse" gradientTransform="matrix(0,-1,1,0,-1.5e-6,47.999998)">
   <stop style="stop-color:#4d6e81;stop-opacity:1"/>
   <stop offset="1" style="stop-color:#54798e;stop-opacity:1"/>
  </linearGradient>
 </defs>
 <g>
  <path d="m 36.31 5 c 5.859 4.062 9.688 10.831 9.688 18.5 c 0 12.426 -10.07 22.5 -22.5 22.5 c -7.669 0 -14.438 -3.828 -18.5 -9.688 c 1.037 1.822 2.306 3.499 3.781 4.969 c 4.085 3.712 9.514 5.969 15.469 5.969 c 12.703 0 23 -10.298 23 -23 c 0 -5.954 -2.256 -11.384 -5.969 -15.469 c -1.469 -1.475 -3.147 -2.744 -4.969 -3.781 z m 4.969 3.781 c 3.854 4.113 6.219 9.637 6.219 15.719 c 0 12.703 -10.297 23 -23 23 c -6.081 0 -11.606 -2.364 -15.719 -6.219 c 4.16 4.144 9.883 6.719 16.219 6.719 c 12.703 0 23 -10.298 23 -23 c 0 -6.335 -2.575 -12.06 -6.719 -16.219 z" style="opacity:0.05"/>
  <path d="m 41.28 8.781 c 3.712 4.085 5.969 9.514 5.969 15.469 c 0 12.703 -10.297 23 -23 23 c -5.954 0 -11.384 -2.256 -15.469 -5.969 c 4.113 3.854 9.637 6.219 15.719 6.219 c 12.703 0 23 -10.298 23 -23 c 0 -6.081 -2.364 -11.606 -6.219 -15.719 z" style="opacity:0.1"/>
  <path d="m 31.25 2.375 c 8.615 3.154 14.75 11.417 14.75 21.13 c 0 12.426 -10.07 22.5 -22.5 22.5 c -9.708 0 -17.971 -6.135 -21.12 -14.75 a 23 23 0 0 0 44.875 -7 a 23 23 0 0 0 -16 -21.875 z" style="opacity:0.2"/>
 </g>
 <g>
  <path d="m 24 1 c 12.703 0 23 10.297 23 23 c 0 12.703 -10.297 23 -23 23 -12.703 0 -23 -10.297 -23 -23 0 -12.703 10.297 -23 23 -23 z" style="fill:url(#linearGradient3764);fill-opacity:1"/>
 </g>
 <g>
  <g>
   <g transform="translate(1,1)">
    <g style="opacity:0.1">
     <!-- color: #54798e -->
     <g>
      <path d="m 11.09 18.793 c 2.824 -2.613 5.348 -7.168 8.277 -6.223 c 4.855 1.293 2.758 10.867 5.516 15.344 c 3.777 -2.195 6.23 -6.816 5.211 -9.215 c -0.227 -0.668 0.051 -2.34 -3.051 -0.883 c -0.805 0.379 -0.773 -1.086 -0.633 -1.285 c 2.871 -3.254 4.531 -4.609 6.496 -4.527 c 1.652 0.285 4.559 2.199 4.02 6.789 c -1.105 6.832 -10.832 17.559 -14.09 17.16 c -3.723 0.848 -5.617 -11.277 -8.414 -16.977 l -2.563 1.023 c -1.059 0.172 -0.91 -0.523 -0.777 -1.211 m 0 0" style="fill:#000;fill-opacity:1;stroke:none;fill-rule:nonzero"/>
     </g>
    </g>
   </g>
  </g>
 </g>
 <g>
  <g>
   <!-- color: #54798e -->
   <g>
    <path d="m 11.09 18.793 c 2.824 -2.613 5.348 -7.168 8.277 -6.223 c 4.855 1.293 2.758 10.867 5.516 15.344 c 3.777 -2.195 6.23 -6.816 5.211 -9.215 c -0.227 -0.668 0.051 -2.34 -3.051 -0.883 c -0.805 0.379 -0.773 -1.086 -0.633 -1.285 c 2.871 -3.254 4.531 -4.609 6.496 -4.527 c 1.652 0.285 4.559 2.199 4.02 6.789 c -1.105 6.832 -10.832 17.559 -14.09 17.16 c -3.723 0.848 -5.617 -11.277 -8.414 -16.977 l -2.563 1.023 c -1.059 0.172 -0.91 -0.523 -0.777 -1.211 m 0 0" style="fill:#b9d6ec;fill-opacity:1;stroke:none;fill-rule:nonzero"/>
   </g>
  </g>
 </g>
 <g>
  <path d="m 40.03 7.531 c 3.712 4.084 5.969 9.514 5.969 15.469 0 12.703 -10.297 23 -23 23 c -5.954 0 -11.384 -2.256 -15.469 -5.969 4.178 4.291 10.01 6.969 16.469 6.969 c 12.703 0 23 -10.298 23 -23 0 -6.462 -2.677 -12.291 -6.969 -16.469 z" style="opacity:0.1"/>
 </g>
</svg>
