<svg version="1.1" viewBox="0 0 48 48" xmlns="http://www.w3.org/2000/svg">
 <defs>
  <linearGradient id="bg" x1="1" x2="47" gradientTransform="matrix(0 -1 1 0 -1.5e-6 48)" gradientUnits="userSpaceOnUse">
   <stop style="stop-color:#424242" offset="0"/>
   <stop style="stop-color:#4c4c4c" offset="1"/>
  </linearGradient>
 </defs>
 <path d="m36.3 5c5.86 4.06 9.69 10.8 9.69 18.5 0 12.4-10.1 22.5-22.5 22.5-7.67 0-14.4-3.83-18.5-9.69 1.04 1.82 2.31 3.5 3.78 4.97 4.08 3.71 9.51 5.97 15.5 5.97 12.7 0 23-10.3 23-23 0-5.95-2.26-11.4-5.97-15.5-1.47-1.48-3.15-2.74-4.97-3.78zm4.97 3.78c3.85 4.11 6.22 9.64 6.22 15.7 0 12.7-10.3 23-23 23-6.08 0-11.6-2.36-15.7-6.22 4.16 4.14 9.88 6.72 16.2 6.72 12.7 0 23-10.3 23-23 0-6.34-2.58-12.1-6.72-16.2z" style="opacity:.05"/>
 <path d="m41.3 8.78c3.71 4.08 5.97 9.51 5.97 15.5 0 12.7-10.3 23-23 23-5.95 0-11.4-2.26-15.5-5.97 4.11 3.85 9.64 6.22 15.7 6.22 12.7 0 23-10.3 23-23 0-6.08-2.36-11.6-6.22-15.7z" style="opacity:.1"/>
 <path d="m31.2 2.38c8.62 3.15 14.8 11.4 14.8 21.1 0 12.4-10.1 22.5-22.5 22.5-9.71 0-18-6.14-21.1-14.8a23 23 0 0 0 44.9-7 23 23 0 0 0-16-21.9z" style="opacity:.2"/>
 <path d="m24 1c12.7 0 23 10.3 23 23s-10.3 23-23 23-23-10.3-23-23 10.3-23 23-23z" style="fill:url(#bg)"/>
 <path d="m18.3 13c-2.93 0-5.28 1.87-5.28 4.19v13.6c0 2.32 2.35 4.19 5.28 4.19h7.72l9 4-1.59-4.24c2.09-0.559 3.59-2.1 3.59-3.95v-13.6c0-2.32-2.35-4.19-5.28-4.19zm0.719 4h4v1h9c0.609 0 1 0.422 1 1v10c0 0.594-0.391 1-1 1h-14c-0.586 0-1-0.391-1-1v-10c0-0.602 0.324-1 1-1h1zm12 2c-0.551 0-1 0.449-1 1s0.449 1 1 1 1-0.449 1-1-0.449-1-1-1zm-6 1c-2.21 0-4 1.79-4 4s1.79 4 4 4 4-1.79 4-4-1.79-4-4-4z" style="opacity:.1"/>
 <path d="m17.3 12c-2.93 0-5.28 1.87-5.28 4.19v13.6c0 2.32 2.35 4.19 5.28 4.19h7.72l9 4-1.58-4.22c2.09-0.559 3.58-2.12 3.58-3.97v-13.6c0-2.32-2.35-4.19-5.28-4.19h-13.4zm0.719 4h4v1h9c0.609 0 1 0.422 1 1v10c0 0.594-0.391 1-1 1h-14c-0.586 0-1-0.391-1-1v-10c0-0.602 0.324-1 1-1h1v-1zm12 2c-0.551 0-1 0.449-1 1s0.449 1 1 1 1-0.449 1-1-0.449-1-1-1zm-6 1c-2.21 0-4 1.79-4 4s1.79 4 4 4 4-1.79 4-4-1.79-4-4-4z" style="fill:#f9f9f9"/>
 <path d="m40 7.53c3.71 4.08 5.97 9.51 5.97 15.5 0 12.7-10.3 23-23 23-5.95 0-11.4-2.26-15.5-5.97 4.18 4.29 10 6.97 16.5 6.97 12.7 0 23-10.3 23-23 0-6.46-2.68-12.3-6.97-16.5z" style="opacity:.1"/>
</svg>
