<svg xmlns="http://www.w3.org/2000/svg" version="1.1" viewBox="0 0 48 48">
 <defs>
  <linearGradient id="linearGradient3764" x2="47" gradientUnits="userSpaceOnUse" x1="1" gradientTransform="matrix(0 -1 1 0 -.0000015 48)">
   <stop style="stop-color:#dcdcdc" offset="0"/>
   <stop style="stop-color:#e6e6e6" offset="1"/>
  </linearGradient>
 </defs>
 <path style="opacity:.05" d="m36.31 5c5.859 4.062 9.688 10.831 9.688 18.5 0 12.426-10.07 22.5-22.5 22.5-7.669 0-14.438-3.828-18.5-9.688 1.037 1.822 2.306 3.499 3.781 4.969 4.085 3.712 9.514 5.969 15.469 5.969 12.703 0 23-10.298 23-23 0-5.954-2.256-11.384-5.969-15.469-1.469-1.475-3.147-2.744-4.969-3.781zm4.969 3.781c3.854 4.113 6.219 9.637 6.219 15.719 0 12.703-10.297 23-23 23-6.081 0-11.606-2.364-15.719-6.219 4.16 4.144 9.883 6.719 16.219 6.719 12.703 0 23-10.298 23-23 0-6.335-2.575-12.06-6.719-16.219z"/>
 <path style="opacity:.1" d="m41.28 8.781c3.712 4.085 5.969 9.514 5.969 15.469 0 12.703-10.297 23-23 23-5.954 0-11.384-2.256-15.469-5.969 4.113 3.854 9.637 6.219 15.719 6.219 12.703 0 23-10.298 23-23 0-6.081-2.364-11.606-6.219-15.719z"/>
 <path style="opacity:.2" d="m31.25 2.375c8.615 3.154 14.75 11.417 14.75 21.13 0 12.426-10.07 22.5-22.5 22.5-9.708 0-17.971-6.135-21.12-14.75a23 23 0 0 0 44.875 -7 23 23 0 0 0 -16 -21.875z"/>
 <path style="fill:url(#linearGradient3764)" d="m24 1c12.703 0 23 10.297 23 23s-10.297 23-23 23-23-10.297-23-23 10.297-23 23-23z"/>
 <g transform="translate(1,1)">
  <g style="opacity:.1">
   <path d="m30.656 16l4.674 8.773-1.307 2.652v-3.117c0-2.881-2.321-3.488-4.367-3.488h-0.002-0.002c-4.242 0.002-4.652 2.809-4.652 3.18h2.113s0.25-1.84 2.398-1.84c1.395 0 2.477 0.637 2.477 1.867v0.438h-2.477c-2.036 0-3.475 0.372-4.279 1.115-0.624-0.459-1.394-0.732-2.303-0.732-2.391 0-2.93 1.15-2.93 1.15v-5l-2 0.002v1.35c-0.781-0.915-2.069-1.631-4.082-1.631-2.82 0-5.172 1.199-5.172 4.809 0 2.863 1.59 4.475 5.254 4.475 2.058 0 3.274-0.684 4-1.398v5.396h2v-1s0.586 1.32 2.887 1.32c2.235 0 3.826-1.675 4.064-4.131 0.405 0.095 0.839 0.154 1.307 0.154 2.957 0 3.91-1.633 3.91-1.633 0 0.648 0.051 1.289 0.051 1.289h1.879s-0.074-0.793-0.074-1.301v-0.699h1.975l6-12h-2.15l-3.402 6.832-3.414-6.832h-2.375zm-16.809 6.07c1.688 0 2.84 1.035 2.84 2.586h-5.828c0-1.645 1.504-2.586 2.988-2.586zm18.14 3.707v0.586c0 0.758-0.468 2.648-3.229 2.648-0.994 0-1.61-0.331-1.918-0.803-0.061-0.273-0.14-0.534-0.238-0.783 0-0.015-0.004-0.028-0.004-0.043 0-1.594 2.183-1.605 5.389-1.605zm-21.17 0.229h7.188v1h-1.09s-0.793 1.326-2.973 1.326c-1.773 0-3.125-0.646-3.125-2.326zm11.674 0.225h0.002c0.853 0 1.539 0.386 2.01 1.018-0.002 0.047-0.016 0.087-0.016 0.135 0 0.751 0.252 1.363 0.68 1.836 0.008 0.113 0.023 0.223 0.023 0.34 0 2.047-1.25 3.383-2.723 3.383-1.758 0-2.707-1.594-2.707-3.363 0-1.648 0.889-3.348 2.732-3.348z" transform="translate(-1,-1)"/>
  </g>
 </g>
 <path style="fill:#67b117" d="m29.656 15h2.375l3.414 6.832 3.402-6.832h2.152l-6 12h-2.258l1.59-3.227m-4.676-8.773"/>
 <path style="fill:#e4b60c" d="m28.656 19.82c-4.246 0-4.656 2.809-4.656 3.18h2.113s0.25-1.84 2.398-1.84c1.395 0 2.477 0.637 2.477 1.867v0.438h-2.477c-3.289 0-5.03 0.961-5.03 2.914 0 1.922 1.605 2.965 3.777 2.965 2.957 0 3.91-1.633 3.91-1.633 0 0.648 0.051 1.289 0.051 1.289h1.879s-0.074-0.793-0.074-1.301v-4.391c0-2.883-2.324-3.488-4.371-3.488m2.332 4.953v0.586c0 0.758-0.469 2.648-3.23 2.648-1.512 0-2.16-0.754-2.16-1.629 0-1.594 2.184-1.605 5.391-1.605"/>
 <path style="fill:#1263bd" d="m17 20v13h2v-1s0.586 1.32 2.887 1.32c2.426 0 4.113-1.961 4.113-4.766 0-2.609-1.512-4.707-4.07-4.707-2.391 0-2.93 1.152-2.93 1.152v-5m2.488 5.227c1.648 0 2.695 1.422 2.695 3.328 0 2.047-1.25 3.383-2.723 3.383-1.758 0-2.707-1.594-2.707-3.363 0-1.648 0.891-3.348 2.734-3.348"/>
 <path style="fill:#e63239" d="m12.918 19.719c-2.82 0-5.172 1.199-5.172 4.809 0 2.863 1.59 4.473 5.254 4.473 4.313 0 5-3 5-3h-2.09s-0.793 1.328-2.973 1.328c-1.773 0-3.125-0.648-3.125-2.328h8.188v-1.055c0-1.66-1.254-4.227-5.082-4.227m-0.07 1.348c1.688 0 2.84 1.035 2.84 2.586h-5.828c0-1.645 1.504-2.586 2.988-2.586"/>
 <path style="opacity:.1" d="m40.03 7.531c3.712 4.084 5.969 9.514 5.969 15.469 0 12.703-10.297 23-23 23-5.954 0-11.384-2.256-15.469-5.969 4.178 4.291 10.01 6.969 16.469 6.969 12.703 0 23-10.298 23-23 0-6.462-2.677-12.291-6.969-16.469z"/>
</svg>
