<svg xmlns="http://www.w3.org/2000/svg" viewBox="0 0 48 48">
 <defs>
  <linearGradient id="linearGradient3764" x1="1" x2="47" gradientUnits="userSpaceOnUse" gradientTransform="matrix(0,-1,1,0,-1.5e-6,47.999998)">
   <stop style="stop-color:#3d3d3d;stop-opacity:1"/>
   <stop offset="1" style="stop-color:#474747;stop-opacity:1"/>
  </linearGradient>
 </defs>
 <g>
  <path d="m 36.31 5 c 5.859 4.062 9.688 10.831 9.688 18.5 c 0 12.426 -10.07 22.5 -22.5 22.5 c -7.669 0 -14.438 -3.828 -18.5 -9.688 c 1.037 1.822 2.306 3.499 3.781 4.969 c 4.085 3.712 9.514 5.969 15.469 5.969 c 12.703 0 23 -10.298 23 -23 c 0 -5.954 -2.256 -11.384 -5.969 -15.469 c -1.469 -1.475 -3.147 -2.744 -4.969 -3.781 z m 4.969 3.781 c 3.854 4.113 6.219 9.637 6.219 15.719 c 0 12.703 -10.297 23 -23 23 c -6.081 0 -11.606 -2.364 -15.719 -6.219 c 4.16 4.144 9.883 6.719 16.219 6.719 c 12.703 0 23 -10.298 23 -23 c 0 -6.335 -2.575 -12.06 -6.719 -16.219 z" style="opacity:0.05"/>
  <path d="m 41.28 8.781 c 3.712 4.085 5.969 9.514 5.969 15.469 c 0 12.703 -10.297 23 -23 23 c -5.954 0 -11.384 -2.256 -15.469 -5.969 c 4.113 3.854 9.637 6.219 15.719 6.219 c 12.703 0 23 -10.298 23 -23 c 0 -6.081 -2.364 -11.606 -6.219 -15.719 z" style="opacity:0.1"/>
  <path d="m 31.25 2.375 c 8.615 3.154 14.75 11.417 14.75 21.13 c 0 12.426 -10.07 22.5 -22.5 22.5 c -9.708 0 -17.971 -6.135 -21.12 -14.75 a 23 23 0 0 0 44.875 -7 a 23 23 0 0 0 -16 -21.875 z" style="opacity:0.2"/>
 </g>
 <g>
  <path d="m 24 1 c 12.703 0 23 10.297 23 23 c 0 12.703 -10.297 23 -23 23 -12.703 0 -23 -10.297 -23 -23 0 -12.703 10.297 -23 23 -23 z" style="fill:url(#linearGradient3764);fill-opacity:1"/>
 </g>
 <g>
  <path d="m 40.03 7.531 c 3.712 4.084 5.969 9.514 5.969 15.469 0 12.703 -10.297 23 -23 23 c -5.954 0 -11.384 -2.256 -15.469 -5.969 4.178 4.291 10.01 6.969 16.469 6.969 c 12.703 0 23 -10.298 23 -23 0 -6.462 -2.677 -12.291 -6.969 -16.469 z" style="opacity:0.1"/>
 </g>
 <path d="M 16.063,12 C 13.819,12 12,13.819 12,16.063 l 0,17.875 c 0,2.244 1.819,4.063 4.063,4.063 l 17.875,0 c 2.244,0 4.063,-1.819 4.063,-4.063 l 0,-17.875 C 38.001,13.819 36.182,12 33.938,12 l -17.875,0 z m 8.938,29.25 A 1.375,1.375 0 0 0 23.626,42.625 1.375,1.375 0 0 0 25.001,44 1.375,1.375 0 0 0 26.376,42.625 1.375,1.375 0 0 0 25.001,41.25 Z" style="fill:#000;opacity:0.1;fill-opacity:1"/>
 <g>
  <g>
   <g transform="matrix(0.65000002,0,0,0.64999874,11,5.8000397)" style="stroke:none">
    <g transform="translate(1.1505466,-7.1355899e-8)">
     <path d="m 8.849 8 10 0 0 40 -10 0 z" style="stroke-dasharray:none;stroke-opacity:1;fill:#f67152;opacity:1;stroke-miterlimit:4;fill-opacity:1;fill-rule:nonzero;stroke-width:1"/>
     <path d="m 8.849 8 0 40 -3.715 0 c -3.481 0.011 -6.274 -2.782 -6.285 -6.285 l 0 -27.43 c 0.007 -3.506 2.811 -6.292 6.285 -6.285 z" style="stroke-dasharray:none;stroke-opacity:1;fill:#d14e40;opacity:1;stroke-miterlimit:4;fill-opacity:1;fill-rule:nonzero;stroke-width:1"/>
     <path d="m 18.849 8 10 0 0 40 -10 0 z" style="stroke-dasharray:none;stroke-opacity:1;fill:#fca069;opacity:1;stroke-miterlimit:4;fill-opacity:1;fill-rule:nonzero;stroke-width:1"/>
     <path d="m 28.849 8 0 40 3.715 0 c 3.481 0.011 6.274 -2.782 6.285 -6.285 l 0 -27.43 c -0.007 -3.506 -2.811 -6.292 -6.285 -6.285 z" style="stroke-dasharray:none;stroke-opacity:1;fill:#fbc77c;opacity:1;stroke-miterlimit:4;fill-opacity:1;fill-rule:nonzero;stroke-width:1"/>
    </g>
   </g>
   <g transform="matrix(3.6929165,0,0,3.5932358,-0.46445411,1.5068157)" style="fill:#000;opacity:0.1;fill-opacity:1;stroke:none">
    <path d="m 5 48 c -3.064 -0.007 -6.145 -2.536 -6.154 -6.285 l 0 -0.987 c 3.4 0.007 6.17 2.909 6.154 7.273 z" transform="matrix(0.18344445,0,0,0.15522192,3.3155058,2.4271205)" style="stroke-dasharray:none;stroke-opacity:1;opacity:1;stroke-miterlimit:4;fill-rule:nonzero;stroke-width:1"/>
    <g transform="matrix(0.24374774,0,0,0.24374774,0.28197305,1.035413)">
     <path transform="matrix(0,-0.74831793,0.74831793,0,5.8465669,76.42122)" d="m 75.65 7.661 -4 0 c 0 9.94 -8.06 18 -18 18 l 0 4 c 12.15 0 22 -9.85 22 -22 z" style="fill-rule:nonzero"/>
     <path transform="matrix(0,-0.74831793,0.74831793,0,5.8465669,76.42122)" d="m 67.65 7.661 -4 0 c 0 5.52 -4.48 10 -10 10 l 0 4 c 7.73 0 14 -6.27 14 -14 z" style="fill-rule:nonzero"/>
    </g>
   </g>
   <g transform="matrix(3.5433071,0,0,3.5433071,-1.0276391e-7,1.9999997)">
    <path d="m 5 48 c -3.064 -0.007 -6.145 -2.536 -6.154 -6.285 l 0 -0.987 c 3.4 0.007 6.17 2.909 6.154 7.273 z" transform="matrix(0.18344445,0,0,0.15522192,3.3155058,2.4271205)" style="fill:#fff;opacity:1;fill-opacity:1;stroke:none;fill-rule:nonzero"/>
    <g transform="matrix(0.24374774,0,0,0.24374774,0.28197305,1.035413)">
     <path transform="matrix(0,-0.74831793,0.74831793,0,5.8465669,76.42122)" d="m 75.65 7.661 -4 0 c 0 9.94 -8.06 18 -18 18 l 0 4 c 12.15 0 22 -9.85 22 -22 z" style="fill:#fff;fill-opacity:1;stroke:none;fill-rule:nonzero"/>
     <path transform="matrix(0,-0.74831793,0.74831793,0,5.8465669,76.42122)" d="m 67.65 7.661 -4 0 c 0 5.52 -4.48 10 -10 10 l 0 4 c 7.73 0 14 -6.27 14 -14 z" style="fill:#fff;fill-opacity:1;stroke:none;fill-rule:nonzero"/>
    </g>
   </g>
  </g>
  <circle r="1.375" cy="41.625" cx="24" style="fill:#fff;opacity:1;fill-opacity:1;stroke:none;fill-rule:evenodd"/>
 </g>
</svg>
