<svg xmlns="http://www.w3.org/2000/svg" viewBox="0 0 48 48">
 <defs>
  <linearGradient id="linearGradient3764" x1="1" x2="47" gradientUnits="userSpaceOnUse" gradientTransform="matrix(0,-1,1,0,-1.5e-6,47.999998)">
   <stop style="stop-color:#e4e4e4;stop-opacity:1"/>
   <stop offset="1" style="stop-color:#eee;stop-opacity:1"/>
  </linearGradient>
 </defs>
 <g>
  <path d="m 36.31 5 c 5.859 4.062 9.688 10.831 9.688 18.5 c 0 12.426 -10.07 22.5 -22.5 22.5 c -7.669 0 -14.438 -3.828 -18.5 -9.688 c 1.037 1.822 2.306 3.499 3.781 4.969 c 4.085 3.712 9.514 5.969 15.469 5.969 c 12.703 0 23 -10.298 23 -23 c 0 -5.954 -2.256 -11.384 -5.969 -15.469 c -1.469 -1.475 -3.147 -2.744 -4.969 -3.781 z m 4.969 3.781 c 3.854 4.113 6.219 9.637 6.219 15.719 c 0 12.703 -10.297 23 -23 23 c -6.081 0 -11.606 -2.364 -15.719 -6.219 c 4.16 4.144 9.883 6.719 16.219 6.719 c 12.703 0 23 -10.298 23 -23 c 0 -6.335 -2.575 -12.06 -6.719 -16.219 z" style="opacity:0.05"/>
  <path d="m 41.28 8.781 c 3.712 4.085 5.969 9.514 5.969 15.469 c 0 12.703 -10.297 23 -23 23 c -5.954 0 -11.384 -2.256 -15.469 -5.969 c 4.113 3.854 9.637 6.219 15.719 6.219 c 12.703 0 23 -10.298 23 -23 c 0 -6.081 -2.364 -11.606 -6.219 -15.719 z" style="opacity:0.1"/>
  <path d="m 31.25 2.375 c 8.615 3.154 14.75 11.417 14.75 21.13 c 0 12.426 -10.07 22.5 -22.5 22.5 c -9.708 0 -17.971 -6.135 -21.12 -14.75 a 23 23 0 0 0 44.875 -7 a 23 23 0 0 0 -16 -21.875 z" style="opacity:0.2"/>
 </g>
 <g>
  <path d="m 24 1 c 12.703 0 23 10.297 23 23 c 0 12.703 -10.297 23 -23 23 -12.703 0 -23 -10.297 -23 -23 0 -12.703 10.297 -23 23 -23 z" style="fill:url(#linearGradient3764);fill-opacity:1"/>
 </g>
 <g>
  <g>
   <g transform="translate(1,1)">
    <g style="opacity:0.1">
     <!-- color: #eeeeee -->
    </g>
   </g>
  </g>
 </g>
 <g>
  <g>
   <!-- color: #eeeeee -->
   <g>
    <path d="m 25 11 0 7 -7 0 -7 7 7 0 0 7 7 7 0 -7 7 0 7 -7 -7 0 0 -7 z m 0 10 1 3 3 1 -3 1 -1 3 -1 -3 -3 -1 3 -1 z" style="fill:#000;opacity:0.1;fill-opacity:1;stroke:none;fill-rule:nonzero"/>
    <path d="m 10 24 7 -7 c 3.228 1.727 4.881 3.804 6 6 l -3 1" style="fill:#ffc63e;fill-opacity:1;stroke:none;fill-rule:nonzero"/>
    <path d="m 17 17 6 6 1 -3 c 0.406 -1 0.643 -2 0 -3" style="fill:#f29d4c;fill-opacity:1;stroke:none;fill-rule:nonzero"/>
    <path d="m 31 17 c -2.744 1.442 -4.585 3.561 -6 6 l 3 1 c 0.98 0.245 1.912 1.06 3 0" style="fill:#9d62b2;fill-opacity:1;stroke:none;fill-rule:nonzero"/>
    <path d="m 24 10 7 7 -6 6 -1 -3" style="fill:#e3695b;fill-opacity:1;stroke:none;fill-rule:nonzero"/>
    <path d="m 38 24 -7 7 c -2.708 -1.346 -4.822 -3.241 -6 -6 l 3 -1" style="fill:#85a2d6;fill-opacity:1;stroke:none;fill-rule:nonzero"/>
    <path d="m 31 31 -6 -6 -1 3 c -0.517 1 -0.984 1.998 0 3" style="fill:#5a5ba2;fill-opacity:1;stroke:none;fill-rule:nonzero"/>
    <path d="m 24 38 -7 -7 c 1.414 -2.273 2.858 -4.533 6 -6 l 1 3" style="fill:#7fb869;fill-opacity:1;stroke:none;fill-rule:nonzero"/>
    <path d="m 17 31 6 -6 -3 -1 -3 0" style="fill:#2f8e6f;fill-opacity:1;stroke:none;fill-rule:nonzero"/>
   </g>
  </g>
 </g>
 <g>
  <path d="m 40.03 7.531 c 3.712 4.084 5.969 9.514 5.969 15.469 0 12.703 -10.297 23 -23 23 c -5.954 0 -11.384 -2.256 -15.469 -5.969 4.178 4.291 10.01 6.969 16.469 6.969 c 12.703 0 23 -10.298 23 -23 0 -6.462 -2.677 -12.291 -6.969 -16.469 z" style="opacity:0.1"/>
 </g>
</svg>
