<svg xmlns="http://www.w3.org/2000/svg" version="1.1" viewBox="0 0 48 48">
 <defs>
  <linearGradient id="linearGradient3764" x2="47" gradientUnits="userSpaceOnUse" x1="1" gradientTransform="matrix(0 -1 1 0 -.0000015 48)">
   <stop style="stop-color:#333" offset="0"/>
   <stop style="stop-color:#3d3d3d" offset="1"/>
  </linearGradient>
 </defs>
 <path style="opacity:.05" d="m36.31 5c5.859 4.062 9.688 10.831 9.688 18.5 0 12.426-10.07 22.5-22.5 22.5-7.669 0-14.438-3.828-18.5-9.688 1.037 1.822 2.306 3.499 3.781 4.969 4.085 3.712 9.514 5.969 15.469 5.969 12.703 0 23-10.298 23-23 0-5.954-2.256-11.384-5.969-15.469-1.469-1.475-3.147-2.744-4.969-3.781zm4.969 3.781c3.854 4.113 6.219 9.637 6.219 15.719 0 12.703-10.297 23-23 23-6.081 0-11.606-2.364-15.719-6.219 4.16 4.144 9.883 6.719 16.219 6.719 12.703 0 23-10.298 23-23 0-6.335-2.575-12.06-6.719-16.219z"/>
 <path style="opacity:.1" d="m41.28 8.781c3.712 4.085 5.969 9.514 5.969 15.469 0 12.703-10.297 23-23 23-5.954 0-11.384-2.256-15.469-5.969 4.113 3.854 9.637 6.219 15.719 6.219 12.703 0 23-10.298 23-23 0-6.081-2.364-11.606-6.219-15.719z"/>
 <path style="opacity:.2" d="m31.25 2.375c8.615 3.154 14.75 11.417 14.75 21.13 0 12.426-10.07 22.5-22.5 22.5-9.708 0-17.971-6.135-21.12-14.75a23 23 0 0 0 44.875 -7 23 23 0 0 0 -16 -21.875z"/>
 <path style="fill:url(#linearGradient3764)" d="m24 1c12.703 0 23 10.297 23 23s-10.297 23-23 23-23-10.297-23-23 10.297-23 23-23z"/>
 <path style="opacity:.1" d="m40.03 7.531c3.712 4.084 5.969 9.514 5.969 15.469 0 12.703-10.297 23-23 23-5.954 0-11.384-2.256-15.469-5.969 4.178 4.291 10.01 6.969 16.469 6.969 12.703 0 23-10.298 23-23 0-6.462-2.677-12.291-6.969-16.469z"/>
 <path style="opacity:.1" d="m16 13c-1.662 0-3 1.338-3 3v4h7.1035c1.307-1.281 3.065-2.001 4.896-2 1.8282 0.001 3.5828 0.72052 4.8887 2h7.111v-4c0-1.662-1.338-3-3-3zm15 1h3c0.554 0 1 0.446 1 1v3c0 0.554-0.446 1-1 1h-3c-0.554 0-1-0.446-1-1v-3c0-0.554 0.446-1 1-1zm-6 6a5 5 0 0 0 -5 5 5 5 0 0 0 5 5 5 5 0 0 0 5 -5 5 5 0 0 0 -5 -5zm-12 2v12c0 1.662 1.338 3 3 3h18c1.662 0 3-1.338 3-3v-12h-5.6836c0.44754 0.93692 0.68306 1.9617 0.68359 3 0.002 3.866-3.134 7-7 7s-7.0025-3.134-7-7c0.000668-1.0385 0.23733-2.0632 0.68555-3z"/>
 <path style="fill:#d04536" d="m15 12c-1.662 0-3 1.338-3 3v4h7.1035c1.307-1.281 3.065-2.001 4.896-2 1.8282 0.001 3.5828 0.72052 4.8887 2h7.111v-4c0-1.662-1.338-3-3-3zm15 1h3c0.554 0 1 0.446 1 1v3c0 0.554-0.446 1-1 1h-3c-0.554 0-1-0.446-1-1v-3c0-0.554 0.446-1 1-1z"/>
 <circle r="5" style="fill:#f9f9f9" cx="24" cy="24"/>
 <path d="m12 21v12c0 1.662 1.338 3 3 3h18c1.662 0 3-1.338 3-3v-12h-5.6836c0.44754 0.93692 0.68306 1.9617 0.68359 3 0.002 3.866-3.134 7-7 7s-7.0025-3.134-7-7c0.000668-1.0385 0.23733-2.0632 0.68555-3z" style="fill:#dedede"/>
</svg>
