<svg xmlns="http://www.w3.org/2000/svg" viewBox="0 0 48 48">
 <defs>
  <linearGradient id="linearGradient3764" x1="1" x2="47" gradientUnits="userSpaceOnUse" gradientTransform="matrix(0,-1,1,0,-1.5e-6,47.999998)">
   <stop style="stop-color:#94d04e;stop-opacity:1"/>
   <stop offset="1" style="stop-color:#9ed45e;stop-opacity:1"/>
  </linearGradient>
 </defs>
 <g>
  <path d="m 36.31 5 c 5.859 4.062 9.688 10.831 9.688 18.5 c 0 12.426 -10.07 22.5 -22.5 22.5 c -7.669 0 -14.438 -3.828 -18.5 -9.688 c 1.037 1.822 2.306 3.499 3.781 4.969 c 4.085 3.712 9.514 5.969 15.469 5.969 c 12.703 0 23 -10.298 23 -23 c 0 -5.954 -2.256 -11.384 -5.969 -15.469 c -1.469 -1.475 -3.147 -2.744 -4.969 -3.781 z m 4.969 3.781 c 3.854 4.113 6.219 9.637 6.219 15.719 c 0 12.703 -10.297 23 -23 23 c -6.081 0 -11.606 -2.364 -15.719 -6.219 c 4.16 4.144 9.883 6.719 16.219 6.719 c 12.703 0 23 -10.298 23 -23 c 0 -6.335 -2.575 -12.06 -6.719 -16.219 z" style="opacity:0.05"/>
  <path d="m 41.28 8.781 c 3.712 4.085 5.969 9.514 5.969 15.469 c 0 12.703 -10.297 23 -23 23 c -5.954 0 -11.384 -2.256 -15.469 -5.969 c 4.113 3.854 9.637 6.219 15.719 6.219 c 12.703 0 23 -10.298 23 -23 c 0 -6.081 -2.364 -11.606 -6.219 -15.719 z" style="opacity:0.1"/>
  <path d="m 31.25 2.375 c 8.615 3.154 14.75 11.417 14.75 21.13 c 0 12.426 -10.07 22.5 -22.5 22.5 c -9.708 0 -17.971 -6.135 -21.12 -14.75 a 23 23 0 0 0 44.875 -7 a 23 23 0 0 0 -16 -21.875 z" style="opacity:0.2"/>
 </g>
 <g>
  <path d="m 24 1 c 12.703 0 23 10.297 23 23 c 0 12.703 -10.297 23 -23 23 -12.703 0 -23 -10.297 -23 -23 0 -12.703 10.297 -23 23 -23 z" style="fill:url(#linearGradient3764);fill-opacity:1"/>
 </g>
 <g transform="translate(4.29e-4,0)">
  <g>
   <!-- color: #9ed45e -->
   <g>
    <path d="m 18.46 14 -6.544 11 6.544 10.996 13.08 0 6.54 -10.996 -6.54 -11" mix-blend-mode="normal" isolation="auto" white-space="normal" solid-color="#000000" solid-opacity="1" style="visibility:visible;shape-rendering:auto;color-interpolation-filters:linearRGB;fill:#000;opacity:1;image-rendering:auto;fill-opacity:0.098;stroke:none;display:inline;color:#000;fill-rule:nonzero;color-rendering:auto;color-interpolation:sRGB"/>
    <path d="m 30.25,34.5 -12.5,0 -6.25,-10.5 6.25,-10.5 12.5,0 6.246,10.5 M 30.25,34.5" style="fill:#a3cd95;fill-opacity:1;stroke:none;fill-rule:nonzero"/>
    <path d="m 17.527,13.05 -4.914,8.336 c 1.469,0.852 3.359,1.648 5.414,1.648 1.379,0 2.965,-1.277 4.418,-2.988 -0.867,-1.566 -1.43,-3.242 -1.43,-4.977 0,-0.738 0.129,-1.398 0.313,-2.023 l -3.797,0 m 5.848,0.004 c -0.246,0.559 -0.371,1.23 -0.371,2.023 0,1.043 0.352,2.133 0.871,3.234 0.023,-0.043 0.066,-0.055 0.09,-0.094 0.957,-1.629 1.566,-3.441 1.836,-5.16 l -2.426,0 m 4.543,-0.004 c -0.316,2.102 -1.094,4.254 -2.207,6.148 -0.207,0.355 -0.523,0.566 -0.75,0.906 0.566,0.859 1.176,1.73 1.902,2.551 0.227,-0.145 0.375,-0.352 0.621,-0.496 2.379,-1.352 4.113,-3.352 5.195,-5.352 l -2.207,-3.762 -2.551,0 m 5.938,5.719 c -1.258,1.953 -3.051,3.801 -5.383,5.133 -0.094,0.066 -0.156,0.129 -0.246,0.191 0.879,0.891 1.586,1.535 2.426,2.305 0.609,-0.563 1.262,-1.02 1.805,-1.648 1.164,-1.355 2.102,-2.699 2.738,-3.699 l -1.34,-2.273 M 23.66,21.659 c -1.633,1.863 -3.461,3.359 -5.633,3.359 -2.746,0 -4.855,-0.887 -6.438,-1.867 l -0.527,0.871 3.422,5.754 c 0.203,-0.047 0.367,-0.078 0.594,-0.125 2.215,-0.461 4.805,-0.73 7.309,-0.715 0.512,-1.773 1.445,-3.543 2.922,-5.04 -0.617,-0.703 -1.105,-1.477 -1.645,-2.238 m 12.656,1.273 c -0.586,0.875 -1.359,1.938 -2.363,3.113 -0.539,0.625 -1.25,1.121 -1.867,1.711 0.488,0.449 1.203,1.145 1.586,1.523 0.031,0.031 0.059,0.063 0.094,0.094 l 3.168,-5.352 -0.621,-1.09 m -9.641,2.398 c -1.059,1.07 -1.586,2.352 -2.023,3.668 0.156,0.023 0.34,-0.023 0.496,0 1.176,0.195 2.43,-0.191 3.699,-0.992 0.113,-0.074 0.203,-0.207 0.313,-0.281 -0.867,-0.793 -1.551,-1.441 -2.484,-2.395 m 3.918,3.762 c -0.25,0.184 -0.426,0.457 -0.684,0.625 -1.527,0.965 -3.262,1.574 -5.07,1.273 -0.234,-0.039 -0.535,-0.004 -0.777,-0.031 -0.035,0.219 -0.16,0.438 -0.188,0.652 -0.16,1.273 -0.145,2.418 -0.094,3.328 l 6.691,0 2.27,-3.828 c -0.172,-0.125 -0.344,-0.246 -0.496,-0.402 -0.352,-0.355 -1.148,-1.164 -1.645,-1.621 m -8.625,1.84 c -2.164,0.027 -4.43,0.238 -6.438,0.652 l 1.988,3.359 4.266,0 c -0.063,-0.996 -0.078,-2.211 0.09,-3.578 0.02,-0.145 0.07,-0.297 0.094,-0.438 m 0,0.004" style="fill:#535453;fill-opacity:1;stroke:none;fill-rule:nonzero"/>
    <path d="m 17.46 13 -6.544 11 6.544 10.996 13.08 0 6.54 -10.996 -6.54 -11 m -11.911 1.989 10.742 0 5.367 9.02 -5.367 9.02 -10.742 0 -5.371 -9.02 z" mix-blend-mode="normal" isolation="auto" white-space="normal" solid-color="#000000" solid-opacity="1" style="visibility:visible;shape-rendering:auto;color-interpolation-filters:linearRGB;fill:#dedede;opacity:1;image-rendering:auto;fill-opacity:1;stroke:none;display:inline;color:#000;fill-rule:nonzero;color-rendering:auto;color-interpolation:sRGB"/>
   </g>
  </g>
 </g>
 <g>
  <path d="m 40.03 7.531 c 3.712 4.084 5.969 9.514 5.969 15.469 0 12.703 -10.297 23 -23 23 c -5.954 0 -11.384 -2.256 -15.469 -5.969 4.178 4.291 10.01 6.969 16.469 6.969 c 12.703 0 23 -10.298 23 -23 0 -6.462 -2.677 -12.291 -6.969 -16.469 z" style="opacity:0.1"/>
 </g>
</svg>
