<svg xmlns="http://www.w3.org/2000/svg" viewBox="0 0 48 48">
 <defs>
  <linearGradient id="linearGradient3999" gradientUnits="userSpaceOnUse" x1="1" x2="47" gradientTransform="matrix(0,-1,1,0,0,48)">
   <stop style="stop-color:#a63771;stop-opacity:1"/>
   <stop offset="1" style="stop-color:#b43c7b;stop-opacity:1"/>
  </linearGradient>
 </defs>
 <path d="m 36.31,5 c 5.859,4.062 9.688,10.831 9.688,18.5 0,12.426 -10.07,22.5 -22.5,22.5 -7.669,0 -14.438,-3.828 -18.5,-9.688 1.037,1.822 2.306,3.499 3.781,4.969 4.085,3.712 9.514,5.969 15.469,5.969 12.703,0 23,-10.298 23,-23 0,-5.954 -2.256,-11.384 -5.969,-15.469 C 39.81,7.306 38.132,6.037 36.31,5 z m 4.969,3.781 c 3.854,4.113 6.219,9.637 6.219,15.719 0,12.703 -10.297,23 -23,23 -6.081,0 -11.606,-2.364 -15.719,-6.219 4.16,4.144 9.883,6.719 16.219,6.719 12.703,0 23,-10.298 23,-23 0,-6.335 -2.575,-12.06 -6.719,-16.219 z" style="opacity:0.05"/>
 <path d="m 41.28 8.781 c 3.712 4.085 5.969 9.514 5.969 15.469 0 12.703 -10.297 23 -23 23 -5.954 0 -11.384 -2.256 -15.469 -5.969 4.113 3.854 9.637 6.219 15.719 6.219 12.703 0 23 -10.298 23 -23 0 -6.081 -2.364 -11.606 -6.219 -15.719 z" style="opacity:0.1"/>
 <path d="M 31.25,2.375 C 39.865,5.529 46,13.792 46,23.505 c 0,12.426 -10.07,22.5 -22.5,22.5 -9.708,0 -17.971,-6.135 -21.12,-14.75 a 23,23 0 0 0 44.875,-7 23,23 0 0 0 -16,-21.875 z" style="opacity:0.2"/>
 <path d="M 1,24 C 1,11.297 11.297,1 24,1 36.703,1 47,11.297 47,24 47,36.703 36.703,47 24,47 11.297,47 1,36.703 1,24 z" style="fill:url(#linearGradient3999);fill-opacity:1"/>
 <path d="m 40.03,7.531 c 3.712,4.084 5.969,9.514 5.969,15.469 0,12.703 -10.297,23 -23,23 C 17.045,46 11.615,43.744 7.53,40.031 11.708,44.322 17.54,47 23.999,47 c 12.703,0 23,-10.298 23,-23 0,-6.462 -2.677,-12.291 -6.969,-16.469 z" style="opacity:0.1"/>
 <path d="m 13 13 0 4 4 0 0 -4 -4 0 z m 5 0 0 4 4 0 0 -4 -4 0 z m 5 0 0 4 4 0 0 -4 -4 0 z m 5 0 0 4 4 0 0 -4 -4 0 z m 5 0 0 4 4 0 0 -1 2 0 0 1 1 0 0 -4 -1 0 0 1 -2 0 0 -1 -4 0 z m -20 5 0 4 4 0 0 -4 -4 0 z m 0 5 0 4 4 0 0 -4 -4 0 z m 5 0 0 4 4 0 0 -4 -4 0 z m 5 0 0 4 4 0 0 -4 -4 0 z m 5 0 0 4 4 0 0 -4 -4 0 z m 5 0 0 4 4 0 0 -4 -4 0 z m 0 5 0 4 4 0 0 -4 -4 0 z m -20 5 0 4 4 0 0 -4 -4 0 z m 5 0 0 4 4 0 0 -4 -4 0 z m 5 0 0 4 4 0 0 -4 -4 0 z m 5 0 0 4 4 0 0 -4 -4 0 z m 5 0 0 4 4 0 0 -4 -4 0 z" style="fill:#000;opacity:0.1;fill-opacity:1;stroke:none;fill-rule:nonzero"/>
 <rect width="4" height="4" x="12" y="-16" transform="matrix(0,1,-1,0,0,0)" style="fill:#e0d0a0;fill-opacity:1;stroke:none;fill-rule:nonzero"/>
 <rect width="4" height="4" x="12" y="-21" transform="matrix(0,1,-1,0,0,0)" style="fill:#e0d0a0;fill-opacity:1;stroke:none;fill-rule:nonzero"/>
 <rect width="4" height="4" x="12" y="-31" transform="matrix(0,1,-1,0,0,0)" style="fill:#e0d0a0;fill-opacity:1;stroke:none;fill-rule:nonzero"/>
 <rect width="4" height="4" x="12" y="-26" transform="matrix(0,1,-1,0,0,0)" style="fill:#e0d0a0;fill-opacity:1;stroke:none;fill-rule:nonzero"/>
 <rect width="2" height="2" x="-38" y="-15" transform="scale(-1,-1)" style="fill:#fc5454;fill-opacity:1;stroke:none;fill-rule:nonzero"/>
 <rect width="1" height="4" x="-39" y="-16" transform="scale(-1,-1)" style="fill:#fc5454;fill-opacity:1;stroke:none;fill-rule:nonzero"/>
 <rect width="4" height="4" x="12" y="17" style="fill:#e0d0a0;fill-opacity:1;stroke:none;fill-rule:nonzero"/>
 <rect width="4" height="4" x="12" y="22" style="fill:#e0d0a0;fill-opacity:1;stroke:none;fill-rule:nonzero"/>
 <rect width="4" height="4" x="12" y="-36" transform="matrix(0,1,-1,0,0,0)" style="fill:#e0d0a0;fill-opacity:1;stroke:none;fill-rule:nonzero"/>
 <rect width="4" height="4" x="-26" y="17" transform="matrix(0,-1,1,0,0,0)" style="fill:#e0d0a0;fill-opacity:1;stroke:none;fill-rule:nonzero"/>
 <rect width="4" height="4" x="-26" y="22" transform="matrix(0,-1,1,0,0,0)" style="fill:#e0d0a0;fill-opacity:1;stroke:none;fill-rule:nonzero"/>
 <rect width="4" height="4" x="-26" y="27" transform="matrix(0,-1,1,0,0,0)" style="fill:#e0d0a0;fill-opacity:1;stroke:none;fill-rule:nonzero"/>
 <rect width="4" height="4" x="-26" y="32" transform="matrix(0,-1,1,0,0,0)" style="fill:#e0d0a0;fill-opacity:1;stroke:none;fill-rule:nonzero"/>
 <rect width="4" height="4" x="32" y="27" style="fill:#e0d0a0;fill-opacity:1;stroke:none;fill-rule:nonzero"/>
 <rect width="4" height="4" x="32" y="32" style="fill:#e0d0a0;fill-opacity:1;stroke:none;fill-rule:nonzero"/>
 <rect width="4" height="4" x="12" y="32" style="fill:#e0d0a0;fill-opacity:1;stroke:none;fill-rule:nonzero"/>
 <rect width="4" height="4" x="-36" y="17" transform="matrix(0,-1,1,0,0,0)" style="fill:#e0d0a0;fill-opacity:1;stroke:none;fill-rule:nonzero"/>
 <rect width="4" height="4" x="-36" y="22" transform="matrix(0,-1,1,0,0,0)" style="fill:#e0d0a0;fill-opacity:1;stroke:none;fill-rule:nonzero"/>
 <rect width="4" height="4" x="-36" y="27" transform="matrix(0,-1,1,0,0,0)" style="fill:#e0d0a0;fill-opacity:1;stroke:none;fill-rule:nonzero"/>
</svg>
