<svg xmlns="http://www.w3.org/2000/svg" viewBox="0 0 48 48">
 <defs>
  <linearGradient id="linearGradient3764" x1="1" x2="47" gradientUnits="userSpaceOnUse" gradientTransform="matrix(0,-1,1,0,-1.5e-6,47.999998)">
   <stop style="stop-color:#0d96dd;stop-opacity:1"/>
   <stop offset="1" style="stop-color:#0fa3ef;stop-opacity:1"/>
  </linearGradient>
 </defs>
 <g>
  <path d="m 36.31 5 c 5.859 4.062 9.688 10.831 9.688 18.5 c 0 12.426 -10.07 22.5 -22.5 22.5 c -7.669 0 -14.438 -3.828 -18.5 -9.688 c 1.037 1.822 2.306 3.499 3.781 4.969 c 4.085 3.712 9.514 5.969 15.469 5.969 c 12.703 0 23 -10.298 23 -23 c 0 -5.954 -2.256 -11.384 -5.969 -15.469 c -1.469 -1.475 -3.147 -2.744 -4.969 -3.781 z m 4.969 3.781 c 3.854 4.113 6.219 9.637 6.219 15.719 c 0 12.703 -10.297 23 -23 23 c -6.081 0 -11.606 -2.364 -15.719 -6.219 c 4.16 4.144 9.883 6.719 16.219 6.719 c 12.703 0 23 -10.298 23 -23 c 0 -6.335 -2.575 -12.06 -6.719 -16.219 z" style="opacity:0.05"/>
  <path d="m 41.28 8.781 c 3.712 4.085 5.969 9.514 5.969 15.469 c 0 12.703 -10.297 23 -23 23 c -5.954 0 -11.384 -2.256 -15.469 -5.969 c 4.113 3.854 9.637 6.219 15.719 6.219 c 12.703 0 23 -10.298 23 -23 c 0 -6.081 -2.364 -11.606 -6.219 -15.719 z" style="opacity:0.1"/>
  <path d="m 31.25 2.375 c 8.615 3.154 14.75 11.417 14.75 21.13 c 0 12.426 -10.07 22.5 -22.5 22.5 c -9.708 0 -17.971 -6.135 -21.12 -14.75 a 23 23 0 0 0 44.875 -7 a 23 23 0 0 0 -16 -21.875 z" style="opacity:0.2"/>
 </g>
 <g style="fill-rule:nonzero">
  <path d="m 24 1 c 12.703 0 23 10.297 23 23 c 0 12.703 -10.297 23 -23 23 -12.703 0 -23 -10.297 -23 -23 0 -12.703 10.297 -23 23 -23 z" style="fill:url(#linearGradient3764);fill-opacity:1"/>
  <path d="m 11.946 18.801 c 3.664 1.823 7.368 3.605 10.753 5.707 l -5.264 6.02 -3.517 -0.598 -0.939 0.939 c 1.431 0.583 2.858 1.246 4.084 2.034 0.788 1.226 1.452 2.653 2.034 4.084 l 0.939 -0.939 -0.598 -3.517 6.02 -5.264 c 2.101 3.385 3.884 7.09 5.707 10.753 l 1 -1 -2.422 -14.05 4.589 -4.713 c 0.863 -0.886 2.051 -3.337 1.382 -4.01 -0.669 -0.669 -3.12 0.519 -4.01 1.382 l -4.713 4.589 -14.05 -2.422 -1 1 z" style="fill:#000;opacity:0.1;fill-opacity:1;stroke:none"/>
  <path d="m 10.946 17.801 c 3.664 1.823 7.368 3.605 10.753 5.707 l -5.264 6.02 -3.517 -0.598 -0.939 0.939 c 1.431 0.583 2.858 1.246 4.084 2.034 0.788 1.226 1.452 2.653 2.034 4.084 l 0.939 -0.939 -0.598 -3.517 6.02 -5.264 c 2.101 3.385 3.884 7.09 5.707 10.753 l 1 -1 -2.422 -14.05 4.589 -4.713 c 0.863 -0.886 2.051 -3.337 1.382 -4.01 -0.669 -0.669 -3.12 0.519 -4.01 1.382 l -4.713 4.589 -14.05 -2.422 -1 1 z" style="fill:#efefef;fill-opacity:1;stroke:none"/>
 </g>
 <g>
  <path d="m 40.03 7.531 c 3.712 4.084 5.969 9.514 5.969 15.469 0 12.703 -10.297 23 -23 23 c -5.954 0 -11.384 -2.256 -15.469 -5.969 4.178 4.291 10.01 6.969 16.469 6.969 c 12.703 0 23 -10.298 23 -23 0 -6.462 -2.677 -12.291 -6.969 -16.469 z" style="opacity:0.1"/>
 </g>
</svg>
