<svg xmlns="http://www.w3.org/2000/svg" version="1.1" viewBox="0 0 48 48">
 <defs>
  <linearGradient id="linearGradient3764" x2="47" gradientUnits="userSpaceOnUse" x1="1" gradientTransform="matrix(0 -1 1 0 -.0000015 48)">
   <stop style="stop-color:#24a3de" offset="0"/>
   <stop style="stop-color:#35ace1" offset="1"/>
  </linearGradient>
 </defs>
 <path style="opacity:.05" d="m36.31 5c5.859 4.062 9.688 10.831 9.688 18.5 0 12.426-10.07 22.5-22.5 22.5-7.669 0-14.438-3.828-18.5-9.688 1.037 1.822 2.306 3.499 3.781 4.969 4.085 3.712 9.514 5.969 15.469 5.969 12.703 0 23-10.298 23-23 0-5.954-2.256-11.384-5.969-15.469-1.469-1.475-3.147-2.744-4.969-3.781zm4.969 3.781c3.854 4.113 6.219 9.637 6.219 15.719 0 12.703-10.297 23-23 23-6.081 0-11.606-2.364-15.719-6.219 4.16 4.144 9.883 6.719 16.219 6.719 12.703 0 23-10.298 23-23 0-6.335-2.575-12.06-6.719-16.219z"/>
 <path style="opacity:.1" d="m41.28 8.781c3.712 4.085 5.969 9.514 5.969 15.469 0 12.703-10.297 23-23 23-5.954 0-11.384-2.256-15.469-5.969 4.113 3.854 9.637 6.219 15.719 6.219 12.703 0 23-10.298 23-23 0-6.081-2.364-11.606-6.219-15.719z"/>
 <path style="opacity:.2" d="m31.25 2.375c8.615 3.154 14.75 11.417 14.75 21.13 0 12.426-10.07 22.5-22.5 22.5-9.708 0-17.971-6.135-21.12-14.75a23 23 0 0 0 44.875 -7 23 23 0 0 0 -16 -21.875z"/>
 <path style="fill:url(#linearGradient3764)" d="m24 1c12.703 0 23 10.297 23 23s-10.297 23-23 23-23-10.297-23-23 10.297-23 23-23z"/>
 <g transform="translate(1,1)">
  <g style="opacity:.1"></g>
 </g>
 <path d="m31.875 13c-0.63796-0.0173-1.5202 0.25825-3.1562 0.65625-4.27 1.035-5.5935 1.0545-9.1875 0.1875-2.625-0.633-2.7575-0.6255-3.5625 0.0625-1.043 0.891-1.0485 2.398-0.06445 4.75 0.414 0.988 1.141 3.3105 1.625 5.1895 1.1616 4.0895 1.8758 8.2925 6.418 8.1543 1.595 0.05363 2.83-0.86969 3.9902-1.873 1.25-1.238 2.0093-2.5472 3.0293-5.2812 1.422-3.813 1.9795-5.0298 3.4375-7.3438 1.07-1.711 0.68375-3.219-1.0312-4.125-0.541-0.317-1.073-0.365-1.499-0.377zm-3.5957 6c0.785-0.039 1.455 0.462 1.721 1.783 0.359 1.816-0.373 3.217-1.627 3.217-0.566 0-1.3625-0.25964-1.8125-0.68164-1-0.938-1.035-1.6448-0.125-3.0938 0.57-0.906 1.2267-1.1938 1.8438-1.2246zm-7.9688 0.53711c1 0.059 1.9612 1.8014 1.5312 2.9414-0.52 1.363-1.2382 1.4565-2.0312 0.3125-0.824-1.184-0.66375-3.0468 0.28125-3.2188 0.063-0.012 0.14475-0.03525 0.21875-0.03125zm-5.31 6.463v11h18v-9c-3.5 4-6.7559 6.25-9.7559 6s-5.744-3-8.244-8zm9.2754 0c1.379 0 2.4688 1.1308 2.4688 2.5098 0 1.383-1.0898 2.4902-2.4688 2.4902-1.383 0-2.8438-2.0447-2.8438-3.4277 0-1.379 1.4608-1.5723 2.8438-1.5723z" style="opacity:.1"/>
 <path style="fill:#f9f9f9" d="m30.875 12c-0.63796-0.0173-1.5202 0.25825-3.1562 0.65625-4.27 1.035-5.5935 1.0545-9.1875 0.1875-2.625-0.633-2.7575-0.6255-3.5625 0.0625-1.043 0.891-1.0485 2.398-0.06445 4.75 0.414 0.988 1.141 3.3105 1.625 5.1895 1.1616 4.0895 1.8758 8.2925 6.418 8.1543 1.595 0.05363 2.83-0.86969 3.9902-1.873 1.25-1.238 2.0093-2.5472 3.0293-5.2812 1.422-3.813 1.9795-5.0298 3.4375-7.3438 1.07-1.711 0.68375-3.219-1.0312-4.125-0.541-0.317-1.073-0.365-1.499-0.377zm-3.5957 6c0.785-0.039 1.455 0.462 1.721 1.783 0.359 1.816-0.373 3.217-1.627 3.217-0.566 0-1.3625-0.25964-1.8125-0.68164-1-0.938-1.035-1.6448-0.125-3.0938 0.57-0.906 1.2267-1.1938 1.8438-1.2246zm-7.9688 0.53711c1 0.059 1.9612 1.8014 1.5312 2.9414-0.52 1.363-1.2382 1.4565-2.0312 0.3125-0.824-1.184-0.66375-3.0468 0.28125-3.2188 0.063-0.012 0.14475-0.03525 0.21875-0.03125zm-5.31 6.463v11h18v-9c-3.5 4-6.7559 6.25-9.7559 6s-5.744-3-8.244-8zm9.2754 0c1.379 0 2.4688 1.1308 2.4688 2.5098 0 1.383-1.0898 2.4902-2.4688 2.4902-1.383 0-2.8438-2.0447-2.8438-3.4277 0-1.379 1.4608-1.5723 2.8438-1.5723z"/>
 <path style="opacity:.1" d="m40.03 7.531c3.712 4.084 5.969 9.514 5.969 15.469 0 12.703-10.297 23-23 23-5.954 0-11.384-2.256-15.469-5.969 4.178 4.291 10.01 6.969 16.469 6.969 12.703 0 23-10.298 23-23 0-6.462-2.677-12.291-6.969-16.469z"/>
</svg>
