<svg version="1.1" viewBox="0 0 48 48" xmlns="http://www.w3.org/2000/svg">
 <defs>
  <linearGradient id="bg" x1="1" x2="47" gradientTransform="matrix(0 -1 1 0 -1.5e-6 48)" gradientUnits="userSpaceOnUse">
   <stop style="stop-color:#e1e1e1" offset="0"/>
   <stop style="stop-color:#ebebeb" offset="1"/>
  </linearGradient>
 </defs>
 <path d="m36.31 5c5.859 4.062 9.688 10.831 9.688 18.5 0 12.426-10.07 22.5-22.5 22.5-7.669 0-14.438-3.828-18.5-9.688 1.037 1.822 2.306 3.499 3.781 4.969 4.085 3.712 9.514 5.969 15.469 5.969 12.703 0 23-10.298 23-23 0-5.954-2.256-11.384-5.969-15.469-1.469-1.475-3.147-2.744-4.969-3.781zm4.969 3.781c3.854 4.113 6.219 9.637 6.219 15.719 0 12.703-10.297 23-23 23-6.081 0-11.606-2.364-15.719-6.219 4.16 4.144 9.883 6.719 16.219 6.719 12.703 0 23-10.298 23-23 0-6.335-2.575-12.06-6.719-16.219z" style="opacity:.05"/>
 <path d="m41.28 8.781c3.712 4.085 5.969 9.514 5.969 15.469 0 12.703-10.297 23-23 23-5.954 0-11.384-2.256-15.469-5.969 4.113 3.854 9.637 6.219 15.719 6.219 12.703 0 23-10.298 23-23 0-6.081-2.364-11.606-6.219-15.719z" style="opacity:.1"/>
 <path d="m31.25 2.375c8.615 3.154 14.75 11.417 14.75 21.13 0 12.426-10.07 22.5-22.5 22.5-9.708 0-17.971-6.135-21.12-14.75a23 23 0 0 0 44.875-7 23 23 0 0 0-16-21.875z" style="opacity:.2"/>
 <path d="m24 1c12.703 0 23 10.297 23 23s-10.297 23-23 23-23-10.297-23-23 10.297-23 23-23z" style="fill:url(#bg)"/>
 <path d="m40.03 7.531c3.712 4.084 5.969 9.514 5.969 15.469 0 12.703-10.297 23-23 23-5.954 0-11.384-2.256-15.469-5.969 4.178 4.291 10.01 6.969 16.469 6.969 12.703 0 23-10.298 23-23 0-6.462-2.677-12.291-6.969-16.469z" style="opacity:.1"/>
 <path d="m18.505 16c-1.6615 0-3.3226 0.63701-4.5957 1.9102-2.5463 2.5463-2.5463 6.6471 0 9.1934l11.09 10.896 11.09-10.896c2.5463-2.5463 2.5463-6.6471 0-9.1934-1.2731-1.2732-2.9342-1.9102-4.5957-1.9102-1.6615 0-3.3226 0.63701-4.5957 1.9102l-1.8984 1.8984-1.8984-1.8984c-1.2731-1.2732-2.9342-1.9102-4.5957-1.9102zm-0.0039 4c0.63895 0 1.2779 0.2447 1.7676 0.73438l1.9023 1.9023-3.5352 3.5352-1.9023-1.9023c-0.97934-0.97934-0.97934-2.5558 0-3.5352 0.48967-0.48968 1.1286-0.73438 1.7676-0.73438zm12.996 0c0.63895 0 1.2779 0.2447 1.7676 0.73438 0.97934 0.97934 0.97934 2.5558 0 3.5352l-8.2676 8.2636-3.5332-3.5332 8.2656-8.2656c0.48967-0.48968 1.1286-0.73438 1.7676-0.73438z" style="opacity:.1"/>
 <path d="m30.361 25.17-6.3633 6.3633-3.5352-3.5352-2.4625 0.00231-0.36567 2.8258 6.3657 6.1742 9.191-9.0004-0.19097-1.9996z" style="fill:#38b85b"/>
 <path d="m17.505 15c-1.6615 0-3.3226 0.63701-4.5957 1.9102-2.5463 2.5463-2.5463 6.6471 0 9.1934l1.8984 1.8984 2.1918-0.00159 0.63628-2.8285-1.9023-1.9024c-0.97934-0.97934-0.97934-2.5558 0-3.5352 0.97934-0.97936 2.5558-0.97936 3.5352 0l1.9023 1.9023 2.8286-0.63636-4.38e-4 -2.1918-1.8984-1.8984c-1.2731-1.2732-2.9342-1.9102-4.5957-1.9102z" style="fill:#ed6359"/>
 <path d="m21.171 21.636-6.3633 6.3652 2.8281 2.8281 6.3633-6.3652 4.38e-4 -2.4645z" style="fill:#f6cf32"/>
 <path d="m30.494 15c-1.6615 0-3.3226 0.63701-4.5957 1.9102l-4.7266 4.7266 2.8281 2.8281 4.7305-4.7305c0.97934-0.97936 2.5558-0.97936 3.5352 0 0.97934 0.97934 0.97934 2.5558 0 3.5352l-1.9023 1.9024 2.8281 2.8281 1.8984-1.8965c2.5463-2.5463 2.5463-6.6471 0-9.1934-1.2731-1.2732-2.9342-1.9102-4.5957-1.9102z" style="fill:#5c92f0"/>
</svg>
