<svg xmlns="http://www.w3.org/2000/svg" version="1.1" viewBox="0 0 48 48">
 <defs>
  <linearGradient id="linearGradient3764" x2="47" gradientUnits="userSpaceOnUse" x1="1" gradientTransform="matrix(0 -1 1 0 -.0000015 48)">
   <stop style="stop-color:#d0241c" offset="0"/>
   <stop style="stop-color:#e12a20" offset="1"/>
  </linearGradient>
 </defs>
 <path style="opacity:.05" d="m36.31 5c5.859 4.062 9.688 10.831 9.688 18.5 0 12.426-10.07 22.5-22.5 22.5-7.669 0-14.438-3.828-18.5-9.688 1.037 1.822 2.306 3.499 3.781 4.969 4.085 3.712 9.514 5.969 15.469 5.969 12.703 0 23-10.298 23-23 0-5.954-2.256-11.384-5.969-15.469-1.469-1.475-3.147-2.744-4.969-3.781zm4.969 3.781c3.854 4.113 6.219 9.637 6.219 15.719 0 12.703-10.297 23-23 23-6.081 0-11.606-2.364-15.719-6.219 4.16 4.144 9.883 6.719 16.219 6.719 12.703 0 23-10.298 23-23 0-6.335-2.575-12.06-6.719-16.219z"/>
 <path style="opacity:.1" d="m41.28 8.781c3.712 4.085 5.969 9.514 5.969 15.469 0 12.703-10.297 23-23 23-5.954 0-11.384-2.256-15.469-5.969 4.113 3.854 9.637 6.219 15.719 6.219 12.703 0 23-10.298 23-23 0-6.081-2.364-11.606-6.219-15.719z"/>
 <path style="opacity:.2" d="m31.25 2.375c8.615 3.154 14.75 11.417 14.75 21.13 0 12.426-10.07 22.5-22.5 22.5-9.708 0-17.971-6.135-21.12-14.75a23 23 0 0 0 44.875 -7 23 23 0 0 0 -16 -21.875z"/>
 <path style="fill:url(#linearGradient3764)" d="m24 1c12.703 0 23 10.297 23 23s-10.297 23-23 23-23-10.297-23-23 10.297-23 23-23z"/>
 <g transform="translate(1,1)"></g>
 <g transform="translate(1)">
  <path style="opacity:.1" d="m18.586 13-6.586 6.586v10.828l6.586 6.586h10.828l6.586-6.586v-10.828l-6.586-6.586h-10.828m0.828 2h9.172l5.414 5.414v9.172l-5.414 5.414h-9.172l-5.414-5.414v-9.172l5.414-5.414m4.586 1c-0.554 0-1 0.446-1 1v7.02c-0.33705 0.02159-0.6714 0.06338-1 0.125v-6.141c0-0.554-0.446-1-1-1s-1 0.446-1 1v6.787c-0.35837 0.17666-0.69331 0.37997-1 0.607v-5.172c0-0.677-0.446-1.223-1-1.223s-1 0.546-1 1.223v8.555c0 2.9444 3.8635 5.0913 6.5 5.222 3.0549-0.000924 5.6355-1.6564 6.348-3.934 0.05615-0.17951 0.08311-0.41075 0.121-0.598 0.212-1.311 0.831-4.527 2.16-6.967 0-0.566-0.566-0.566-0.566-0.566-0.815 0.17-1.464 0.381-1.902 1.031l-1.646 2.441c-0.02837-2.4513-0.014-4.9426-0.014-7.408 0-0.554-0.446-1-1-1s-1 0.446-1 1v6.387c-0.32416-0.10261-0.65859-0.18488-1-0.246v-7.141c0-0.554-0.446-1-1-1z"/>
 </g>
 <path style="opacity:.1" d="m40.03 7.531c3.712 4.084 5.969 9.514 5.969 15.469 0 12.703-10.297 23-23 23-5.954 0-11.384-2.256-15.469-5.969 4.178 4.291 10.01 6.969 16.469 6.969 12.703 0 23-10.298 23-23 0-6.462-2.677-12.291-6.969-16.469z"/>
 <path style="color-rendering:auto;fill-rule:evenodd;shape-rendering:auto;image-rendering:auto;fill:#f9f9f9" d="m18.586 12-6.586 6.586v10.828l6.586 6.586h10.828l6.586-6.586v-10.828l-6.586-6.586m-10 2h9.172l5.414 5.414v9.172l-5.414 5.414h-9.172l-5.414-5.414v-9.172" isolation="auto" mix-blend-mode="normal" solid-color="#000000" white-space="normal"/>
 <ellipse style="fill:#f9f9f9" rx="6.5" ry="5" cy="28" cx="23.5"/>
 <rect style="fill:#f9f9f9" rx="1" height="11" width="2" y="16" x="26"/>
 <rect style="fill:#f9f9f9" rx="1" height="11" width="2" y="15" x="23"/>
 <rect style="fill:#f9f9f9" rx="1" height="11" width="2" y="16" x="20"/>
 <rect style="fill:#f9f9f9" rx="1" ry="1.222" height="11" width="2" y="18" x="17"/>
 <path style="fill:#f9f9f9" d="m31.652 20.998c-0.053-0.003-0.09 0.002-0.09 0.002-0.815 0.17-1.4633 0.3158-1.9023 0.9668l-1.73 2.566 1.93 4.517s0.57291-4.435 2.2689-7.548c0-0.4245-0.31738-0.49538-0.47656-0.50391z"/>
</svg>
