<svg version="1.1" viewBox="0 0 48 48" xmlns="http://www.w3.org/2000/svg">
 <defs>
  <linearGradient id="bg" x1="1" x2="47" gradientTransform="matrix(0 -1 1 0 -1.5e-6 48)" gradientUnits="userSpaceOnUse">
   <stop style="stop-color:#108586" offset="0"/>
   <stop style="stop-color:#129798" offset="1"/>
  </linearGradient>
 </defs>
 <path d="m36.31 5c5.859 4.062 9.688 10.831 9.688 18.5 0 12.426-10.07 22.5-22.5 22.5-7.669 0-14.438-3.828-18.5-9.688 1.037 1.822 2.306 3.499 3.781 4.969 4.085 3.712 9.514 5.969 15.469 5.969 12.703 0 23-10.298 23-23 0-5.954-2.256-11.384-5.969-15.469-1.469-1.475-3.147-2.744-4.969-3.781zm4.969 3.781c3.854 4.113 6.219 9.637 6.219 15.719 0 12.703-10.297 23-23 23-6.081 0-11.606-2.364-15.719-6.219 4.16 4.144 9.883 6.719 16.219 6.719 12.703 0 23-10.298 23-23 0-6.335-2.575-12.06-6.719-16.219z" style="opacity:.05"/>
 <path d="m41.28 8.781c3.712 4.085 5.969 9.514 5.969 15.469 0 12.703-10.297 23-23 23-5.954 0-11.384-2.256-15.469-5.969 4.113 3.854 9.637 6.219 15.719 6.219 12.703 0 23-10.298 23-23 0-6.081-2.364-11.606-6.219-15.719z" style="opacity:.1"/>
 <path d="m31.25 2.375c8.615 3.154 14.75 11.417 14.75 21.13 0 12.426-10.07 22.5-22.5 22.5-9.708 0-17.971-6.135-21.12-14.75a23 23 0 0 0 44.875-7 23 23 0 0 0-16-21.875z" style="opacity:.2"/>
 <path d="m24 1c12.703 0 23 10.297 23 23s-10.297 23-23 23-23-10.297-23-23 10.297-23 23-23z" style="fill:url(#bg)"/>
 <g transform="translate(1,1)" style="opacity:.1">
  <path d="m24 9.003c-4.144 0-6.855 2.38-8.137 5.174-1.596-0.05-3.192-0.097-4.783-0.174-0.586-0.028-1.135 0.646-1.066 1.098 1.02 6.678 1.067 12.918 0 19.801-0.07 0.454 0.48 1.098 1.066 1.098h25.836c0.598 0 1.148-0.645 1.078-1.098-1.063-6.879-1.082-13.199 0-19.801 0.074-0.454-0.48-1.131-1.078-1.098-1.598 0.089-3.185 0.136-4.773 0.188-1.28-2.8-3.995-5.188-8.143-5.188m0 0.998v2e-3c3.2 0 5.576 1.981 6.875 4.236-4.613 0.123-9.19 0.108-13.74-0.016 1.301-2.249 3.672-4.223 6.865-4.223z"/>
 </g>
 <path d="m11.08 14.003c-0.586-0.027-1.135 0.646-1.066 1.098 1.02 6.678 1.067 12.918 0 19.801-0.07 0.454 0.48 1.098 1.066 1.098h25.836c0.598 0 1.148-0.645 1.078-1.098-1.063-6.879-1.082-13.199 0-19.801 0.074-0.454-0.48-1.13-1.078-1.098-8.738 0.475-17.32 0.399-25.836 0" style="fill:#f8f5f0"/>
 <path d="m15.5 17.003c-0.828 0-1.5 0.672-1.5 1.5s0.672 1.5 1.5 1.5 1.5-0.672 1.5-1.5-0.672-1.5-1.5-1.5zm17 0c-0.828 0-1.5 0.672-1.5 1.5s0.672 1.5 1.5 1.5 1.5-0.672 1.5-1.5-0.672-1.5-1.5-1.5z" style="fill:#a79371"/>
 <path d="m15.5 19.003c-0.5 0-0.5-0.578-0.5-1 0-4.01 3-9 9-9 5.996 0 9 4.988 9 9 0 0.422 0 1-0.5 1s-0.5-0.578-0.5-1c0-3.168-3-8-8-8s-8 4.832-8 8c0 0.422 0 1-0.496 1" style="fill:#e4dbcc"/>
 <path d="m40.03 7.531c3.712 4.084 5.969 9.514 5.969 15.469 0 12.703-10.297 23-23 23-5.954 0-11.384-2.256-15.469-5.969 4.178 4.291 10.01 6.969 16.469 6.969 12.703 0 23-10.298 23-23 0-6.462-2.677-12.291-6.969-16.469z" style="opacity:.1"/>
 <path d="m17.695 21.083c-1.098 1.405-1.694 3.137-1.695 4.92 0 3.594 2.396 6.747 5.859 7.709l2.756-4.775c-0.202 0.043-0.408 0.067-0.615 0.066-1.072-1e-3 -2.059-0.576-2.596-1.504" style="fill:#1bad70"/>
 <circle cx="24" cy="26.003" r="2" style="fill:#5483e2"/>
 <path d="m24 18.003c-2.096 0-4.108 0.828-5.602 2.299l2.752 4.768c0.404-1.232 1.553-2.064 2.85-2.064h7.41c-1.222-3.02-4.152-5-7.41-5z" style="fill:#dd4f4f"/>
 <path d="m26.23 24.003c0.494 0.549 0.769 1.261 0.77 2 0 0.527-0.143 1.043-0.406 1.5l-3.699 6.414c0.366 0.054 0.735 0.086 1.105 0.086 4.418 3e-3 8-3.582 8-8 0-0.675-0.093-1.347-0.266-2z" style="fill:#dfd321"/>
</svg>
