<svg xmlns="http://www.w3.org/2000/svg" version="1.1" viewBox="0 0 48 48">
 <defs>
  <linearGradient id="linearGradient3764" x2="47" gradientUnits="userSpaceOnUse" x1="1" gradientTransform="matrix(0 -1 1 0 -.0000015 48)">
   <stop style="stop-color:#e4e4e4" offset="0"/>
   <stop style="stop-color:#eee" offset="1"/>
  </linearGradient>
 </defs>
 <path style="opacity:.05" d="m36.31 5c5.859 4.062 9.688 10.831 9.688 18.5 0 12.426-10.07 22.5-22.5 22.5-7.669 0-14.438-3.828-18.5-9.688 1.037 1.822 2.306 3.499 3.781 4.969 4.085 3.712 9.514 5.969 15.469 5.969 12.703 0 23-10.298 23-23 0-5.954-2.256-11.384-5.969-15.469-1.469-1.475-3.147-2.744-4.969-3.781zm4.969 3.781c3.854 4.113 6.219 9.637 6.219 15.719 0 12.703-10.297 23-23 23-6.081 0-11.606-2.364-15.719-6.219 4.16 4.144 9.883 6.719 16.219 6.719 12.703 0 23-10.298 23-23 0-6.335-2.575-12.06-6.719-16.219z"/>
 <path style="opacity:.1" d="m41.28 8.781c3.712 4.085 5.969 9.514 5.969 15.469 0 12.703-10.297 23-23 23-5.954 0-11.384-2.256-15.469-5.969 4.113 3.854 9.637 6.219 15.719 6.219 12.703 0 23-10.298 23-23 0-6.081-2.364-11.606-6.219-15.719z"/>
 <path style="opacity:.2" d="m31.25 2.375c8.615 3.154 14.75 11.417 14.75 21.13 0 12.426-10.07 22.5-22.5 22.5-9.708 0-17.971-6.135-21.12-14.75a23 23 0 0 0 44.875 -7 23 23 0 0 0 -16 -21.875z"/>
 <path style="fill:url(#linearGradient3764)" d="m24 1c12.703 0 23 10.297 23 23s-10.297 23-23 23-23-10.297-23-23 10.297-23 23-23z"/>
 <g transform="translate(1,1)">
  <g style="opacity:.1">
   <path d="m13.563 15c-0.855 0-1.563 0.801-1.563 1.781v14.438c0 0.984 0.707 1.785 1.563 1.785h15.441l9-9-9-9h-15.441m13.625 5.992c0.535-0.016 1.512 0.332 1.719 0.813 0.207 0.48 0.08801 0.60172-0.344 0.906-1.7394 1.2251-5.656 5.598-5.656 5.598-0.883 0.84-1.281 0.957-2.156 0.121l-3.25-3.156c-0.602-0.438-0.688-1.418-0.156-1.938 0.531-0.52 1.543-0.457 2 0.125l2.313 2.25 4.625-4.344c0.242-0.234 0.566-0.367 0.906-0.379"/>
  </g>
 </g>
 <path style="fill:#09c" d="m13.563 15c-0.855 0-1.563 0.801-1.563 1.781v14.438c0 0.984 0.707 1.785 1.563 1.785h15.441l9-9-9-9h-15.441m13.625 5.992c0.535-0.016 1.5118 0.33208 1.719 0.813 0.20682 0.48008 0.08801 0.60172-0.344 0.906-1.7394 1.2251-5.1345 5.1019-5.656 5.598-0.883 0.84-1.2878 0.96408-2.156 0.121l-3.25-3.156c-0.602-0.438-0.688-1.418-0.156-1.938 0.531-0.52 1.543-0.457 2 0.125l2.313 2.25 4.625-4.344c0.242-0.234 0.566-0.367 0.906-0.379"/>
 <path style="opacity:.1" d="m40.03 7.531c3.712 4.084 5.969 9.514 5.969 15.469 0 12.703-10.297 23-23 23-5.954 0-11.384-2.256-15.469-5.969 4.178 4.291 10.01 6.969 16.469 6.969 12.703 0 23-10.298 23-23 0-6.462-2.677-12.291-6.969-16.469z"/>
</svg>
