<svg version="1.1" viewBox="0 0 48 48" xmlns="http://www.w3.org/2000/svg">
 <defs>
  <linearGradient id="bg" x2="0" y1="1" y2="47" gradientUnits="userSpaceOnUse">
   <stop style="stop-color:#464646" offset="0"/>
   <stop style="stop-color:#3c3c3c" offset="1"/>
  </linearGradient>
 </defs>
 <path d="m36.31 5c5.859 4.062 9.688 10.831 9.688 18.5 0 12.426-10.07 22.5-22.5 22.5-7.669 0-14.438-3.828-18.5-9.688 1.037 1.822 2.306 3.499 3.781 4.969 4.085 3.712 9.514 5.969 15.469 5.969 12.703 0 23-10.298 23-23 0-5.954-2.256-11.384-5.969-15.469-1.469-1.475-3.147-2.744-4.969-3.781zm4.969 3.781c3.854 4.113 6.219 9.637 6.219 15.719 0 12.703-10.297 23-23 23-6.081 0-11.606-2.364-15.719-6.219 4.16 4.144 9.883 6.719 16.219 6.719 12.703 0 23-10.298 23-23 0-6.335-2.575-12.06-6.719-16.219z" style="opacity:.05"/>
 <path d="m41.28 8.781c3.712 4.085 5.969 9.514 5.969 15.469 0 12.703-10.297 23-23 23-5.954 0-11.384-2.256-15.469-5.969 4.113 3.854 9.637 6.219 15.719 6.219 12.703 0 23-10.298 23-23 0-6.081-2.364-11.606-6.219-15.719z" style="opacity:.1"/>
 <path d="m31.25 2.375c8.615 3.154 14.75 11.417 14.75 21.13 0 12.426-10.07 22.5-22.5 22.5-9.708 0-17.971-6.135-21.12-14.75a23 23 0 0 0 44.875-7 23 23 0 0 0-16-21.875z" style="opacity:.2"/>
 <circle cx="24" cy="24" r="23" style="fill:url(#bg)"/>
 <path d="m40.03 7.531c3.712 4.084 5.969 9.514 5.969 15.469 0 12.703-10.297 23-23 23-5.954 0-11.384-2.256-15.469-5.969 4.178 4.291 10.01 6.969 16.469 6.969 12.703 0 23-10.298 23-23 0-6.462-2.677-12.291-6.969-16.469z" style="opacity:.1"/>
 <path d="m25 10a15 15 0 0 0-15 15 15 15 0 0 0 15 15 15 15 0 0 0 15-15 15 15 0 0 0-15-15zm-3 8h6l4 4v6l-4 4h-6l-4-4v-6z" style="opacity:.1;paint-order:normal"/>
 <path d="m10.744 31c1.8699 3.5398 5.0773 6.1853 8.9082 7.3477l7.3477-2.3477-1e-6 -5-6-1e-6 -7-2z" style="fill:#0de1e1;paint-order:normal"/>
 <path d="m31 27-11.352 11.352c1.4108 0.42885 2.8771 0.64735 4.3516 0.64844 2.4405-0.0033 4.8433-0.60197 7-1.7441l3-4.2559z" style="fill:#5195eb;paint-order:normal"/>
 <path d="m31 21v16.256c3.5398-1.8699 6.1853-5.0773 7.3477-8.9082l-2.3477-7.3477z" style="fill:#ca5ec6;paint-order:normal"/>
 <path d="m27 17 11.352 11.352c0.42885-1.4108 0.64735-2.8771 0.64844-4.3516-0.0033-2.4405-0.60197-4.8433-1.7441-7l-5.2559-3z" style="fill:#e76161;paint-order:normal"/>
 <path d="m28.348 9.6523-7.3477 1.3477-1e-6 6h16.256c-1.8699-3.5398-5.0773-6.1853-8.9082-7.3477z" style="fill:#f9a653;paint-order:normal"/>
 <path d="m24 9c-2.4405 0.0033-4.8433 0.60197-7 1.7441l-4 6.2559 4 4 11.352-11.352c-1.4108-0.42885-2.8771-0.64735-4.3516-0.64844z" style="fill:#f6e23c;paint-order:normal"/>
 <path d="m17 10.744c-3.5398 1.8699-6.1853 5.0773-7.3477 8.9082l3.3477 7.3477h4z" style="fill:#a2d244;paint-order:normal"/>
 <path d="m9.6484 19.648c-0.42885 1.4108-0.64735 2.8771-0.64844 4.3516 0.0033 2.4405 0.60197 4.8433 1.7441 7h10.256z" style="fill:#16c844;paint-order:normal"/>
</svg>
