<svg version="1.1" viewBox="0 0 48 48" xmlns="http://www.w3.org/2000/svg">
 <defs>
  <linearGradient id="bg" x2="0" y1="1" y2="47" gradientUnits="userSpaceOnUse">
   <stop style="stop-color:#eae9f1" offset="0"/>
   <stop style="stop-color:#deddea" offset="1"/>
  </linearGradient>
 </defs>
 <path d="m36.3 5c5.86 4.06 9.69 10.8 9.69 18.5 0 12.4-10.1 22.5-22.5 22.5-7.67 0-14.4-3.83-18.5-9.69 1.04 1.82 2.31 3.5 3.78 4.97 4.08 3.71 9.51 5.97 15.5 5.97 12.7 0 23-10.3 23-23 0-5.95-2.26-11.4-5.97-15.5-1.47-1.48-3.15-2.74-4.97-3.78zm4.97 3.78c3.85 4.11 6.22 9.64 6.22 15.7 0 12.7-10.3 23-23 23-6.08 0-11.6-2.36-15.7-6.22 4.16 4.14 9.88 6.72 16.2 6.72 12.7 0 23-10.3 23-23 0-6.34-2.58-12.1-6.72-16.2z" style="opacity:.05"/>
 <path d="m41.3 8.78c3.71 4.08 5.97 9.51 5.97 15.5 0 12.7-10.3 23-23 23-5.95 0-11.4-2.26-15.5-5.97 4.11 3.85 9.64 6.22 15.7 6.22 12.7 0 23-10.3 23-23 0-6.08-2.36-11.6-6.22-15.7z" style="opacity:.1"/>
 <path d="m31.2 2.38c8.62 3.15 14.8 11.4 14.8 21.1 0 12.4-10.1 22.5-22.5 22.5-9.71 0-18-6.14-21.1-14.8a23 23 0 0 0 44.9-7 23 23 0 0 0-16-21.9z" style="opacity:.2"/>
 <circle cx="24" cy="24" r="23" style="fill:url(#bg)"/>
 <path d="m40 7.53c3.71 4.08 5.97 9.51 5.97 15.5 0 12.7-10.3 23-23 23-5.95 0-11.4-2.26-15.5-5.97 4.18 4.29 10 6.97 16.5 6.97 12.7 0 23-10.3 23-23 0-6.46-2.68-12.3-6.97-16.5z" style="opacity:.1"/>
 <path d="m18.5 11-3.22 23c-2.28 0.0234-3.28-1-3.28-2 0-0.787 0.781-1.77 1.45-2.11 0.494-0.247 0.694-0.848 0.447-1.34-0.247-0.494-0.848-0.694-1.34-0.447 0 0-2.55 2.08-2.55 3.89 0 3 2.7 4 6 4h20l-3.5-25-3.5 5h-7z" style="opacity:.1"/>
 <path d="m17.5 10-1.54 11 0.0391 0.5-0.178 0.5-1.54 11c-2.28 0.0234-3.28-1-3.28-2 0-0.787 0.781-1.77 1.45-2.11 0.494-0.247 0.694-0.848 0.447-1.34-0.247-0.494-0.848-0.694-1.34-0.447-1.33 0.667-2.55 2.08-2.55 3.89 0 3 2.7 4 6 4h20l-1.82-13-0.18-0.5 0.0391-0.5-1.54-11-3.5 5s-1.75-1-3.5-1-3.5 1-3.5 1z" style="fill:#52538e"/>
 <path d="m21.5 19c-1.74-3.69e-4 -3.22 1.28-3.46 3h-2.21l-0.141 1h2.35c0.249 1.72 1.72 3 3.46 3 1.74 3.7e-4 3.22-1.28 3.46-3h1.07c0.249 1.72 1.72 3 3.46 3 1.74 3.7e-4 3.22-1.28 3.46-3h0.355l-0.141-1h-0.215c-0.249-1.72-1.72-3-3.46-3-1.74-3.69e-4 -3.22 1.28-3.46 3h-1.07c-0.249-1.72-1.72-3-3.46-3zm0 1c1.38 0 2.5 1.12 2.5 2.5s-1.12 2.5-2.5 2.5-2.5-1.12-2.5-2.5 1.12-2.5 2.5-2.5zm8 0c1.38 0 2.5 1.12 2.5 2.5s-1.12 2.5-2.5 2.5-2.5-1.12-2.5-2.5 1.12-2.5 2.5-2.5zm-8 1c-0.828 0-1.5 0.672-1.5 1.5s0.672 1.5 1.5 1.5 1.5-0.672 1.5-1.5-0.672-1.5-1.5-1.5zm8 0c-0.828 0-1.5 0.672-1.5 1.5s0.672 1.5 1.5 1.5 1.5-0.672 1.5-1.5-0.672-1.5-1.5-1.5zm-5 5c-0.277 0-0.5 0.223-0.5 0.5s0.223 0.5 0.5 0.5h2c0.277 0 0.5-0.223 0.5-0.5s-0.223-0.5-0.5-0.5h-0.5v-0.5z" style="opacity:.1"/>
 <path d="m20.5 18c-1.74-3.69e-4 -3.22 1.28-3.46 3h-1.07l-0.139 1h1.21c0.249 1.72 1.72 3 3.46 3 1.74 3.7e-4 3.22-1.28 3.46-3h1.07c0.249 1.72 1.72 3 3.46 3 1.74 3.7e-4 3.22-1.28 3.46-3h1.21l-0.141-1h-1.07c-0.249-1.72-1.72-3-3.46-3-1.74-3.69e-4 -3.22 1.28-3.46 3h-1.07c-0.249-1.72-1.72-3-3.46-3zm0 1c1.38 0 2.5 1.12 2.5 2.5s-1.12 2.5-2.5 2.5-2.5-1.12-2.5-2.5 1.12-2.5 2.5-2.5zm8 0c1.38 0 2.5 1.12 2.5 2.5s-1.12 2.5-2.5 2.5-2.5-1.12-2.5-2.5 1.12-2.5 2.5-2.5zm-8 1c-0.828 0-1.5 0.672-1.5 1.5s0.672 1.5 1.5 1.5 1.5-0.672 1.5-1.5-0.672-1.5-1.5-1.5zm8 0c-0.828 0-1.5 0.672-1.5 1.5s0.672 1.5 1.5 1.5 1.5-0.672 1.5-1.5-0.672-1.5-1.5-1.5zm-4 4c-0.276 0-0.5 0.224-0.5 0.5v0.5h-0.5c-0.277 0-0.5 0.223-0.5 0.5s0.223 0.5 0.5 0.5h2c0.277 0 0.5-0.223 0.5-0.5s-0.223-0.5-0.5-0.5h-0.5v-0.5c0-0.276-0.224-0.5-0.5-0.5z" style="fill:#f9f9f9"/>
</svg>
