<svg xmlns="http://www.w3.org/2000/svg" viewBox="0 0 48 48">
 <defs>
  <linearGradient id="linearGradient3764" x1="1" x2="47" gradientUnits="userSpaceOnUse" gradientTransform="matrix(0,-1,1,0,-1.5e-6,47.999998)">
   <stop style="stop-color:#df731b;stop-opacity:1"/>
   <stop offset="1" style="stop-color:#e57e29;stop-opacity:1"/>
  </linearGradient>
 </defs>
 <g>
  <path d="m 36.31 5 c 5.859 4.062 9.688 10.831 9.688 18.5 c 0 12.426 -10.07 22.5 -22.5 22.5 c -7.669 0 -14.438 -3.828 -18.5 -9.688 c 1.037 1.822 2.306 3.499 3.781 4.969 c 4.085 3.712 9.514 5.969 15.469 5.969 c 12.703 0 23 -10.298 23 -23 c 0 -5.954 -2.256 -11.384 -5.969 -15.469 c -1.469 -1.475 -3.147 -2.744 -4.969 -3.781 z m 4.969 3.781 c 3.854 4.113 6.219 9.637 6.219 15.719 c 0 12.703 -10.297 23 -23 23 c -6.081 0 -11.606 -2.364 -15.719 -6.219 c 4.16 4.144 9.883 6.719 16.219 6.719 c 12.703 0 23 -10.298 23 -23 c 0 -6.335 -2.575 -12.06 -6.719 -16.219 z" style="opacity:0.05"/>
  <path d="m 41.28 8.781 c 3.712 4.085 5.969 9.514 5.969 15.469 c 0 12.703 -10.297 23 -23 23 c -5.954 0 -11.384 -2.256 -15.469 -5.969 c 4.113 3.854 9.637 6.219 15.719 6.219 c 12.703 0 23 -10.298 23 -23 c 0 -6.081 -2.364 -11.606 -6.219 -15.719 z" style="opacity:0.1"/>
  <path d="m 31.25 2.375 c 8.615 3.154 14.75 11.417 14.75 21.13 c 0 12.426 -10.07 22.5 -22.5 22.5 c -9.708 0 -17.971 -6.135 -21.12 -14.75 a 23 23 0 0 0 44.875 -7 a 23 23 0 0 0 -16 -21.875 z" style="opacity:0.2"/>
 </g>
 <g>
  <path d="m 24 1 c 12.703 0 23 10.297 23 23 c 0 12.703 -10.297 23 -23 23 -12.703 0 -23 -10.297 -23 -23 0 -12.703 10.297 -23 23 -23 z" style="fill:url(#linearGradient3764);fill-opacity:1"/>
  <path d="m 18.445 8.623 l -0.008 0.002 c -4.723 0 -9.102 1.43 -12.75 3.844 c -0.376 0.261 -1.264 0.782 -2.34 1.404 c -1.162 2.366 -1.931 4.958 -2.219 7.695 c 0.502 -0.567 1.046 -1.176 1.465 -1.662 c 2.094 -2.492 3.926 -4.27 5.781 -5.5 c 3.625 9.879 3.813 9.92 1.125 -0.654 c 2.656 -1.465 5.406 -1.947 8.938 -1.971 c 0.309 -0.004 0.598 0.02 0.906 0.031 c -0.043 5.508 -0.902 16.859 -3.969 21 c -4.434 -11.41 -3.895 -9.379 -0.906 0.344 c -0.211 0.105 -0.41 0.263 -0.625 0.439 l -1.375 -1.031 l 0.688 1.969 c -2.93 0.445 -5.84 -0.289 -8.75 0.781 c -0.128 0.054 -0.214 0.11 -0.334 0.164 c 0.418 0.725 0.873 1.426 1.365 2.098 c 0.08 -0.019 0.136 -0.023 0.219 -0.043 c 2.758 -0.625 4.766 -2.961 7.531 -1.398 c 0.043 0.215 0.156 0.406 0.25 0.594 l -6.438 2.594 c 0.152 0.191 0.281 0.38 0.438 0.564 c 2.176 -1.027 4.403 -1.434 6.439 -2.531 c 0.203 0.18 0.469 0.309 0.75 0.406 l -3.775 5.105 c 0.237 0.166 0.479 0.326 0.723 0.482 c 1.291 -1.696 1.976 -3.604 3.709 -5.465 c 0.238 0.02 0.508 0.059 0.781 0.023 c -0.319 2.606 -0.12 5.284 0.449 7.84 c 0.893 0.307 1.809 0.565 2.748 0.762 c -0.818 -2.92 -2.417 -5.686 -2.256 -8.789 c 0.887 0.34 1.352 0.781 2.344 1.469 c -0.445 -0.668 -0.992 -1.102 -1.375 -1.938 c 0.086 -0.141 0.168 -0.282 0.219 -0.439 c 4.555 1.734 8.816 2.223 13.441 5 l 2.525 1.875 c -0.368 0.538 -0.786 1.038 -1.23 1.516 c 2.388 -1.01 4.569 -2.408 6.465 -4.117 c 1.345 -2.911 2.111 -6.138 2.111 -9.523 c 0 -12.594 -10.282 -22.939 -23.06 -22.939 z m 3.781 3.531 c 7.625 1.5 14.277 7.484 15.719 14.5 l -0.344 0.439 c -0.641 1.109 -6.66 3.03 -8.844 3.719 c -4.168 0.891 -7.152 3.01 -11.156 3.156 c -0.246 -0.324 -0.531 -0.618 -0.875 -0.814 c 2.434 -4.328 1.633 -15.895 5.5 -21 z m 15.13 16.439 l 0.004 0 l 0.906 0.875 c 0 0.699 -0.074 1.387 -0.191 2.094 c -0.594 3.742 -1.344 7.441 -2.902 10.469 l -3.316 -1.094 c -3.777 -1.84 -9.441 -3.036 -13.469 -5.689 c 5.773 -3.316 12.633 -4.65 18.969 -6.654 z m -14.719 16.16 c 0.305 0.887 0.91 1.573 1.521 2.242 c 0.275 -0.002 0.548 -0.008 0.82 -0.02 c -0.819 -0.696 -1.597 -1.395 -2.342 -2.223 z" style="fill:#000;opacity:0.1;fill-opacity:1"/>
 </g>
 <g>
  <g>
   <g transform="translate(1,1)">
    <g style="opacity:0.1">
     <!-- color: #e57e29 -->
    </g>
   </g>
  </g>
 </g>
 <g>
  <g>
   <!-- color: #e57e29 -->
   <g>
    <path d="m 17.438 7.625 c -4.723 0 -9.102 1.43 -12.75 3.844 c -1.453 2.238 -2.488 4.746 -3.094 7.438 c 2.094 -2.492 3.926 -4.27 5.781 -5.5 c 3.625 9.879 3.813 9.918 1.125 -0.656 c 2.656 -1.465 5.406 -1.945 8.938 -1.969 c 0.309 -0.004 0.598 0.02 0.906 0.031 c -0.043 5.508 -0.902 16.859 -3.969 21 c -4.434 -11.41 -3.895 -9.379 -0.906 0.344 c -0.211 0.105 -0.41 0.262 -0.625 0.438 l -1.375 -1.031 l 0.688 1.969 c -2.93 0.445 -5.84 -0.289 -8.75 0.781 c 0.387 0.773 0.785 1.5 1.25 2.219 c 2.758 -0.625 4.766 -2.961 7.531 -1.398 c 0.043 0.215 0.156 0.406 0.25 0.594 l -6.438 2.594 c 0.152 0.191 0.281 0.379 0.438 0.563 c 2.176 -1.027 4.402 -1.434 6.438 -2.531 c 0.203 0.18 0.469 0.309 0.75 0.406 l -3.906 5.281 c 0.223 0.176 0.461 0.363 0.688 0.531 c 1.406 -1.75 2.066 -3.746 3.875 -5.688 c 0.238 0.02 0.508 0.059 0.781 0.023 c -0.348 2.84 -0.102 5.773 0.594 8.531 c 0.902 0.352 1.855 0.641 2.816 0.875 c -0.711 -3.223 -2.645 -6.207 -2.469 -9.594 c 0.887 0.34 1.352 0.781 2.344 1.469 c -0.445 -0.668 -0.992 -1.102 -1.375 -1.938 c 0.086 -0.141 0.168 -0.281 0.219 -0.438 c 4.555 1.734 8.816 2.223 13.441 5 l 2.527 1.875 c -1.031 1.508 -2.352 2.805 -4.03 3.75 c 2.719 -0.617 5.246 -1.707 7.5 -3.188 c 2.434 -3.645 3.875 -8.02 3.875 -12.688 c 0 -12.594 -10.281 -22.938 -23.06 -22.938 m 3.781 3.531 c 7.625 1.5 14.277 7.484 15.719 14.5 l -0.344 0.438 c -0.641 1.109 -6.66 3.03 -8.844 3.719 c -4.168 0.891 -7.152 3.01 -11.156 3.156 c -0.246 -0.324 -0.531 -0.617 -0.875 -0.813 c 2.434 -4.328 1.633 -15.895 5.5 -21 m 15.13 16.438 l 0.906 0.875 c 0 0.699 -0.074 1.387 -0.191 2.094 c -0.594 3.742 -1.344 7.441 -2.902 10.469 l -3.316 -1.094 c -3.777 -1.84 -9.441 -3.035 -13.469 -5.688 c 5.773 -3.316 12.633 -4.652 18.969 -6.656 m -14.719 16.16 c 0.457 1.328 1.582 2.215 2.402 3.25 c 0.375 0 0.758 -0.012 1.125 -0.031 c -1.32 -1.07 -2.43 -2 -3.527 -3.219 m 0 0" style="fill:#f9f9f9;fill-opacity:1;stroke:none;fill-rule:nonzero"/>
   </g>
  </g>
 </g>
 <g>
  <path d="m 40.03 7.531 c 3.712 4.084 5.969 9.514 5.969 15.469 0 12.703 -10.297 23 -23 23 c -5.954 0 -11.384 -2.256 -15.469 -5.969 4.178 4.291 10.01 6.969 16.469 6.969 c 12.703 0 23 -10.298 23 -23 0 -6.462 -2.677 -12.291 -6.969 -16.469 z" style="opacity:0.1"/>
 </g>
</svg>
