<svg xmlns="http://www.w3.org/2000/svg" viewBox="0 0 48 48">
 <defs>
  <linearGradient id="linearGradient4177" y1="47" x2="0" y2="1" gradientUnits="userSpaceOnUse">
   <stop style="stop-color:#25a5c7;stop-opacity:1"/>
   <stop offset="1" style="stop-color:#29b3d7;stop-opacity:1"/>
  </linearGradient>
  <linearGradient id="linearGradient4201" y1="47" x2="0" y2="1" gradientUnits="userSpaceOnUse">
   <stop style="stop-color:#51c9e9;stop-opacity:1"/>
   <stop offset="1" style="stop-color:#63ceeb;stop-opacity:1"/>
  </linearGradient>
 </defs>
 <g>
  <path d="m 36.31 5 c 5.859 4.062 9.688 10.831 9.688 18.5 c 0 12.426 -10.07 22.5 -22.5 22.5 c -7.669 0 -14.438 -3.828 -18.5 -9.688 c 1.037 1.822 2.306 3.499 3.781 4.969 c 4.085 3.712 9.514 5.969 15.469 5.969 c 12.703 0 23 -10.298 23 -23 c 0 -5.954 -2.256 -11.384 -5.969 -15.469 c -1.469 -1.475 -3.147 -2.744 -4.969 -3.781 z m 4.969 3.781 c 3.854 4.113 6.219 9.637 6.219 15.719 c 0 12.703 -10.297 23 -23 23 c -6.081 0 -11.606 -2.364 -15.719 -6.219 c 4.16 4.144 9.883 6.719 16.219 6.719 c 12.703 0 23 -10.298 23 -23 c 0 -6.335 -2.575 -12.06 -6.719 -16.219 z" style="opacity:0.05"/>
  <path d="m 41.28 8.781 c 3.712 4.085 5.969 9.514 5.969 15.469 c 0 12.703 -10.297 23 -23 23 c -5.954 0 -11.384 -2.256 -15.469 -5.969 c 4.113 3.854 9.637 6.219 15.719 6.219 c 12.703 0 23 -10.298 23 -23 c 0 -6.081 -2.364 -11.606 -6.219 -15.719 z" style="opacity:0.1"/>
  <path d="m 31.25 2.375 c 8.615 3.154 14.75 11.417 14.75 21.13 c 0 12.426 -10.07 22.5 -22.5 22.5 c -9.708 0 -17.971 -6.135 -21.12 -14.75 a 23 23 0 0 0 44.875 -7 a 23 23 0 0 0 -16 -21.875 z" style="opacity:0.2"/>
 </g>
 <path d="m 4.791 11.383 c -2.467 3.746 -3.785 8.132 -3.791 12.617 0 12.703 10.297 23 23 23 10.454 -0.014 19.584 -7.08 22.22 -17.191 -9.03 -8.827 -25.479 -17.191 -41.43 -18.426" style="fill:url(#linearGradient4177);opacity:1;fill-opacity:1;stroke:none"/>
 <path d="m 7.661 11.684 c -1.172 0.089 -1.629 -0.36 -2.9 -0.252 l 1.02 0.943 c 10.195 9.618 26.729 16.607 40.23 18.283 0.282 -0.956 0.502 -1.929 0.658 -2.914 c -13.05 -1.467 -28.567 -6.908 -39 -16.06" style="fill:#000;opacity:0.1;fill-opacity:0.98;stroke:none;fill-rule:nonzero"/>
 <path d="m 24 1 c -6.95 0.003 -13.524 3.158 -17.885 8.57 c -0.125 7.437 37.885 20.43 40.682 17.303 c 0.128 -0.953 0.196 -1.912 0.203 -2.873 c 0 -12.703 -10.297 -23.01 -23 -23 z" style="fill:url(#linearGradient4201);opacity:1;fill-opacity:1;stroke:none"/>
 <path d="m 6.125 9.562 c -0.473 0.585 -0.929 1.181 -1.344 1.813 10.508 9.913 27.759 17.05 41.469 18.438 0.25 -0.958 0.435 -1.936 0.563 -2.938 -13.239 -1.2 -29.945 -7.893 -40.688 -17.313" style="fill:#87dfe9;fill-opacity:1;stroke:none;fill-rule:nonzero"/>
 <g>
  <path d="m 40.03 7.531 c 3.712 4.084 5.969 9.514 5.969 15.469 0 12.703 -10.297 23 -23 23 c -5.954 0 -11.384 -2.256 -15.469 -5.969 4.178 4.291 10.01 6.969 16.469 6.969 c 12.703 0 23 -10.298 23 -23 0 -6.462 -2.677 -12.291 -6.969 -16.469 z" style="opacity:0.1"/>
 </g>
</svg>
