<svg version="1.1" viewBox="0 0 48 48" xmlns="http://www.w3.org/2000/svg">
 <defs>
  <linearGradient id="bg" x2="0" y1="1" y2="47" gradientUnits="userSpaceOnUse">
   <stop style="stop-color:#39cbb0" offset="0"/>
   <stop style="stop-color:#32bca3" offset="1"/>
  </linearGradient>
 </defs>
 <path d="m36.3 5c5.86 4.06 9.69 10.8 9.69 18.5 0 12.4-10.1 22.5-22.5 22.5-7.67 0-14.4-3.83-18.5-9.69 1.04 1.82 2.31 3.5 3.78 4.97 4.08 3.71 9.51 5.97 15.5 5.97 12.7 0 23-10.3 23-23 0-5.95-2.26-11.4-5.97-15.5-1.47-1.48-3.15-2.74-4.97-3.78zm4.97 3.78c3.85 4.11 6.22 9.64 6.22 15.7 0 12.7-10.3 23-23 23-6.08 0-11.6-2.36-15.7-6.22 4.16 4.14 9.88 6.72 16.2 6.72 12.7 0 23-10.3 23-23 0-6.34-2.58-12.1-6.72-16.2z" style="opacity:.05"/>
 <path d="m41.3 8.78c3.71 4.08 5.97 9.51 5.97 15.5 0 12.7-10.3 23-23 23-5.95 0-11.4-2.26-15.5-5.97 4.11 3.85 9.64 6.22 15.7 6.22 12.7 0 23-10.3 23-23 0-6.08-2.36-11.6-6.22-15.7z" style="opacity:.1"/>
 <path d="m31.2 2.38c8.62 3.15 14.8 11.4 14.8 21.1 0 12.4-10.1 22.5-22.5 22.5-9.71 0-18-6.14-21.1-14.8a23 23 0 0 0 44.9-7 23 23 0 0 0-16-21.9z" style="opacity:.2"/>
 <circle cx="24" cy="24" r="23" style="fill:url(#bg)"/>
 <path d="m40 7.53c3.71 4.08 5.97 9.51 5.97 15.5 0 12.7-10.3 23-23 23-5.95 0-11.4-2.26-15.5-5.97 4.18 4.29 10 6.97 16.5 6.97 12.7 0 23-10.3 23-23 0-6.46-2.68-12.3-6.97-16.5z" style="opacity:.1"/>
 <path d="m12 32.5c0 0.831 0.669 1.5 1.5 1.5h6.5l-1.67 3.03c-0.0893 0.0322-0.165 0.0888-0.223 0.162-5.74e-4 3.66e-4 -0.0078 0.0059-0.0078 0.0059h0.0039c-0.0637 0.0839-0.104 0.187-0.104 0.301 0 0.277 0.223 0.5 0.5 0.5h13c0.277 0 0.5-0.223 0.5-0.5 0-0.114-0.0398-0.217-0.104-0.301h0.0039s-0.0072-0.0055-0.0078-0.0059c-0.0573-0.0733-0.133-0.13-0.223-0.162-0.5-0.386-1.67-1.45-1.67-3.03h6.5c0.831 0 1.5-0.669 1.5-1.5v-17c0-0.831-0.669-1.5-1.5-1.5z" style="opacity:.1"/>
 <path d="m24 28-5 5c0 2-1.9 3.2-1.9 3.2l6.9 0.3 6.9-0.3s-1.9-1.2-1.9-3.2z" style="fill:#c3cbcb"/>
 <rect x="11" y="13" width="26" height="20" rx="1.5" ry="1.5" style="fill:#5c5c5c"/>
 <path d="m17.5 36h13c0.277 0 0.5 0.223 0.5 0.5s-0.223 0.5-0.5 0.5h-13c-0.277 0-0.5-0.223-0.5-0.5s0.223-0.5 0.5-0.5z" style="fill:#dce5e5"/>
 <path d="m13 15v16h22v-16z" style="fill:#61a2d1"/>
 <path d="m24 16c-0.554 0-1 0.446-1 1v1c0 0.554 0.446 1 1 1s1-0.446 1-1v-1c0-0.554-0.446-1-1-1zm-4.24 1.76c-0.256 0-0.511 0.0991-0.707 0.295-0.392 0.392-0.392 1.02 0 1.41l0.707 0.707c0.392 0.392 1.02 0.392 1.41 0 0.392-0.392 0.392-1.02 0-1.41l-0.707-0.707c-0.196-0.196-0.451-0.295-0.707-0.295zm8.48 0c-0.256 0-0.511 0.0991-0.707 0.295l-0.707 0.707c-0.392 0.392-0.392 1.02 0 1.41 0.392 0.392 1.02 0.392 1.41 0l0.707-0.707c0.392-0.392 0.392-1.02 0-1.41-0.196-0.196-0.451-0.295-0.707-0.295zm-4.24 2.24a3 3 0 0 0-3 3 3 3 0 0 0 3 3 3 3 0 0 0 3-3 3 3 0 0 0-3-3zm-6 2c-0.554 0-1 0.446-1 1s0.446 1 1 1h1c0.554 0 1-0.446 1-1s-0.446-1-1-1zm11 0c-0.554 0-1 0.446-1 1s0.446 1 1 1h1c0.554 0 1-0.446 1-1s-0.446-1-1-1zm-8.54 3.54c-0.256 0-0.511 0.0971-0.707 0.293l-0.707 0.707c-0.392 0.392-0.392 1.02 0 1.41s1.02 0.392 1.41 0l0.707-0.707c0.392-0.392 0.392-1.02 0-1.41-0.196-0.196-0.451-0.293-0.707-0.293zm7.07 0c-0.256 0-0.511 0.0971-0.707 0.293-0.392 0.392-0.392 1.02 0 1.41l0.707 0.707c0.392 0.392 1.02 0.392 1.41 0s0.392-1.02 0-1.41l-0.707-0.707c-0.196-0.196-0.451-0.293-0.707-0.293zm-3.54 1.46c-0.554 0-1 0.446-1 1v1c0 0.554 0.446 1 1 1s1-0.446 1-1v-1c0-0.554-0.446-1-1-1z" style="fill:#f7db65"/>
</svg>
