<svg version="1.1" viewBox="0 0 48 48" xmlns="http://www.w3.org/2000/svg">
 <defs>
  <linearGradient id="bg" x2="0" y1="47" y2="1" gradientUnits="userSpaceOnUse">
   <stop style="stop-color:#ba8b64" offset="0"/>
   <stop style="stop-color:#c09572" offset="1"/>
  </linearGradient>
 </defs>
 <path d="m36.31 5c5.859 4.062 9.688 10.831 9.688 18.5 0 12.426-10.07 22.5-22.5 22.5-7.669 0-14.438-3.828-18.5-9.688 1.037 1.822 2.306 3.499 3.781 4.969 4.085 3.712 9.514 5.969 15.469 5.969 12.703 0 23-10.298 23-23 0-5.954-2.256-11.384-5.969-15.469-1.469-1.475-3.147-2.744-4.969-3.781zm4.969 3.781c3.854 4.113 6.219 9.637 6.219 15.719 0 12.703-10.297 23-23 23-6.081 0-11.606-2.364-15.719-6.219 4.16 4.144 9.883 6.719 16.219 6.719 12.703 0 23-10.298 23-23 0-6.335-2.575-12.06-6.719-16.219z" style="opacity:.05"/>
 <path d="m41.28 8.781c3.712 4.085 5.969 9.514 5.969 15.469 0 12.703-10.297 23-23 23-5.954 0-11.384-2.256-15.469-5.969 4.113 3.854 9.637 6.219 15.719 6.219 12.703 0 23-10.298 23-23 0-6.081-2.364-11.606-6.219-15.719z" style="opacity:.1"/>
 <path d="m31.25 2.375c8.615 3.154 14.75 11.417 14.75 21.13 0 12.426-10.07 22.5-22.5 22.5-9.708 0-17.971-6.135-21.12-14.75a23 23 0 0 0 44.875-7 23 23 0 0 0-16-21.875z" style="opacity:.2"/>
 <path d="m24 1c12.703 0 23 10.297 23 23s-10.297 23-23 23-23-10.297-23-23 10.297-23 23-23z" style="fill:url(#bg)"/>
 <path d="m40.03 7.531c3.712 4.084 5.969 9.514 5.969 15.469 0 12.703-10.297 23-23 23-5.954 0-11.384-2.256-15.469-5.969 4.178 4.291 10.01 6.969 16.469 6.969 12.703 0 23-10.298 23-23 0-6.462-2.677-12.291-6.969-16.469z" style="opacity:.1"/>
 <path d="m38 12h-26v26h26" style="opacity:.1"/>
 <path d="m37 11h-26v26h26" style="fill:#f5efef"/>
 <path d="m12 13v1h24v-1h-24zm0 2v1h24v-1h-24zm0 2v1h24v-1h-24zm0 2v1h24v-1h-24zm0 2v1h24v-1h-24zm0 2v1h24v-1h-24zm0 2v1h24v-1h-24zm0 2v1h24v-1h-24zm0 2v1h24v-1h-24zm0 2v1h24v-1h-24zm0 2v1h24v-1h-24z" style="fill:#c4c4c4"/>
 <path d="m29 12a9 9 0 0 0-9 9 9 9 0 0 0 1.928 5.551l-4.682 4.684-0.313-0.313-4.933 4.933 1.145 1.145h2l3.934-3.934-0.329-0.328 4.674-4.678a9 9 0 0 0 5.576 1.94 9 9 0 0 0 8-4.88v-8.223a9 9 0 0 0-8-4.897m0 2a7 7 0 0 1 7 7 7 7 0 0 1-7 7 7 7 0 0 1-7-7 7 7 0 0 1 7-7z" style="opacity:.1"/>
 <path d="m36.602 19.898c0 4.697-3.805 8.5-8.5 8.5-4.699 0-8.504-3.803-8.5-8.5-4e-3 -4.693 3.801-8.5 8.5-8.5 4.695 0 8.5 3.807 8.5 8.5" style="fill:#f5efef"/>
 <path d="m22.622 26.866-1.504-1.504-4.934 4.934 1.504 1.504" style="fill:#ba6b5e"/>
 <path d="M 18.079,32.066 15.934,29.921 11,34.855 13.145,37" style="fill:#485861"/>
 <path d="m30.801 24-0.801-2h-4l-0.801 2h-2.199l4-10h2l4 10h-2.199m-2.801-7-1.2 3h2.4" style="fill:#606060"/>
 <path d="m28.5 11.5a9 9 0 0 0-8.799 7.154c-0.059 0.406-0.1 0.821-0.099 1.244-4e-3 4.697 3.801 8.5 8.498 8.5s8.502-3.803 8.502-8.5c0-3.968-2.726-7.295-6.402-8.23a9 9 0 0 0-1.7-0.168zm0 2a7 7 0 0 1 7 7 7 7 0 0 1-7 7 7 7 0 0 1-7-7 7 7 0 0 1 7-7z" style="opacity:.1"/>
 <path d="m28 11a9 9 0 0 0-9 9 9 9 0 0 0 9 9 9 9 0 0 0 9-9 9 9 0 0 0-9-9zm0 2a7 7 0 0 1 7 7 7 7 0 0 1-7 7 7 7 0 0 1-7-7 7 7 0 0 1 7-7z" style="fill:#b19b9b"/>
</svg>
