<svg xmlns="http://www.w3.org/2000/svg" viewBox="0 0 48 48">
 <defs>
  <linearGradient id="linearGradient3764" x1="1" x2="47" gradientUnits="userSpaceOnUse" gradientTransform="matrix(0,-1,1,0,-1.5e-6,47.999998)">
   <stop style="stop-color:#e4e4e4;stop-opacity:1"/>
   <stop offset="1" style="stop-color:#eee;stop-opacity:1"/>
  </linearGradient>
 </defs>
 <g>
  <path d="m 36.31 5 c 5.859 4.062 9.688 10.831 9.688 18.5 c 0 12.426 -10.07 22.5 -22.5 22.5 c -7.669 0 -14.438 -3.828 -18.5 -9.688 c 1.037 1.822 2.306 3.499 3.781 4.969 c 4.085 3.712 9.514 5.969 15.469 5.969 c 12.703 0 23 -10.298 23 -23 c 0 -5.954 -2.256 -11.384 -5.969 -15.469 c -1.469 -1.475 -3.147 -2.744 -4.969 -3.781 z m 4.969 3.781 c 3.854 4.113 6.219 9.637 6.219 15.719 c 0 12.703 -10.297 23 -23 23 c -6.081 0 -11.606 -2.364 -15.719 -6.219 c 4.16 4.144 9.883 6.719 16.219 6.719 c 12.703 0 23 -10.298 23 -23 c 0 -6.335 -2.575 -12.06 -6.719 -16.219 z" style="opacity:0.05"/>
  <path d="m 41.28 8.781 c 3.712 4.085 5.969 9.514 5.969 15.469 c 0 12.703 -10.297 23 -23 23 c -5.954 0 -11.384 -2.256 -15.469 -5.969 c 4.113 3.854 9.637 6.219 15.719 6.219 c 12.703 0 23 -10.298 23 -23 c 0 -6.081 -2.364 -11.606 -6.219 -15.719 z" style="opacity:0.1"/>
  <path d="m 31.25 2.375 c 8.615 3.154 14.75 11.417 14.75 21.13 c 0 12.426 -10.07 22.5 -22.5 22.5 c -9.708 0 -17.971 -6.135 -21.12 -14.75 a 23 23 0 0 0 44.875 -7 a 23 23 0 0 0 -16 -21.875 z" style="opacity:0.2"/>
 </g>
 <g>
  <path d="m 24 1 c 12.703 0 23 10.297 23 23 c 0 12.703 -10.297 23 -23 23 -12.703 0 -23 -10.297 -23 -23 0 -12.703 10.297 -23 23 -23 z" style="fill:url(#linearGradient3764);fill-opacity:1"/>
 </g>
 <g>
  <g>
   <g transform="translate(1,1)">
    <g style="opacity:0.1">
     <!-- color: #eeeeee -->
     <g>
      <path d="m 23.926,12.406 c -0.363,0 -0.703,0.027 -1.055,0.063 -0.277,0.027 -0.563,0.063 -0.836,0.109 l 0,0.023 c -0.891,0.156 -1.762,0.395 -2.57,0.742 -1.422,0.605 -2.496,1.215 -3.582,2.293 0.328,0.648 0.961,1.793 1.375,2.34 l -3.176,0 c -0.684,0.996 -1.133,1.789 -1.504,2.969 C 12.207,22.129 12,23.394 12,24.699 c 0,6.078 4.348,11.129 10.04,12.12 l 0,0.023 c 0.266,0.043 0.547,0.063 0.816,0.09 0.355,0.031 0.703,0.063 1.074,0.063 l 0.148,0 c 0.367,0 0.734,-0.031 1.094,-0.063 0.27,-0.027 0.527,-0.047 0.793,-0.09 l 0,-0.023 c 5.695,-0.988 10.04,-6.04 10.04,-12.12 0,-1.305 -0.211,-2.574 -0.578,-3.754 -0.371,-1.184 -0.816,-1.973 -1.504,-2.969 l -3.172,0 c 0.41,-0.547 1.043,-1.688 1.371,-2.34 -1.09,-1.078 -2.164,-1.691 -3.578,-2.293 -0.816,-0.348 -1.684,-0.586 -2.574,-0.742 l 0,-0.023 C 25.689,12.531 25.419,12.5 25.134,12.469 24.79,12.434 24.435,12.406 24.083,12.406 l -0.152,0" style="fill:#000;fill-opacity:1;stroke:none;fill-rule:nonzero"/>
      <path d="m 31.3 17.66 c 1.098 -1.457 1.406 -2.793 3.543 -6.66 c 0.879 0.957 1.102 4.977 -0.969 6.66 m -2.574 0" style="fill:#000;fill-opacity:1;stroke:none;fill-rule:nonzero"/>
      <path d="m 16.551 17.66 c -1.098 -1.457 -1.406 -2.793 -3.543 -6.66 c -0.879 0.957 -1.102 4.977 0.969 6.66 m 2.574 0" style="fill:#000;fill-opacity:1;stroke:none;fill-rule:nonzero"/>
     </g>
    </g>
   </g>
  </g>
 </g>
 <g>
  <g>
   <!-- color: #eeeeee -->
   <g>
    <path d="m 14.645 21.15 18.711 0 0 7.32 -18.711 0 m 0 -7.32" style="fill:#2d2d2d;fill-opacity:1;stroke:none;fill-rule:nonzero"/>
    <path d="m 15.402 29.879 17.195 0 0 2.77 -17.195 0 m 0 -2.77" style="fill:#2d2d2d;fill-opacity:1;stroke:none;fill-rule:nonzero"/>
    <path d="m 15.04 28.523 17.855 0 0 1.367 -17.855 0 m 0 -1.367" style="fill:#f9f9f9;fill-opacity:1;stroke:none;fill-rule:nonzero"/>
    <path d="m 23.926,12.406 c -0.363,0 -0.703,0.027 -1.055,0.063 -0.277,0.027 -0.563,0.063 -0.836,0.109 l 0,0.023 c -0.891,0.156 -1.762,0.395 -2.57,0.742 -1.422,0.605 -2.496,1.215 -3.582,2.293 0.328,0.648 0.961,1.793 1.375,2.34 l -3.176,0 c -0.684,0.996 -1.133,1.789 -1.504,2.969 C 12.207,22.129 12,23.394 12,24.699 c 0,6.078 4.348,11.129 10.04,12.12 l 0,0.023 c 0.266,0.043 0.547,0.063 0.816,0.09 0.355,0.031 0.703,0.063 1.074,0.063 0.047,0 0.098,0 0.148,0 0.367,0 0.734,-0.031 1.094,-0.063 0.27,-0.027 0.527,-0.047 0.793,-0.09 l 0,-0.023 c 5.695,-0.988 10.04,-6.04 10.04,-12.12 0,-1.305 -0.211,-2.574 -0.578,-3.754 -0.371,-1.184 -0.816,-1.973 -1.504,-2.969 l -3.172,0 c 0.41,-0.547 1.043,-1.688 1.371,-2.34 -1.09,-1.078 -2.164,-1.691 -3.578,-2.293 -0.816,-0.348 -1.684,-0.586 -2.574,-0.742 l 0,-0.023 C 25.689,12.531 25.419,12.5 25.134,12.469 24.79,12.434 24.435,12.406 24.083,12.406 c -0.051,0 -0.102,0 -0.152,0 m -6.504,10.965 c 0.973,0 1.758,0.801 1.758,1.793 0,0.988 -0.785,1.793 -1.758,1.793 -0.969,0 -1.758,-0.801 -1.758,-1.793 0,-0.988 0.789,-1.793 1.758,-1.793 m 13.148,0 c 0.973,0 1.758,0.801 1.758,1.793 0,0.988 -0.785,1.793 -1.758,1.793 -0.969,0 -1.758,-0.801 -1.758,-1.793 0,-0.988 0.789,-1.793 1.758,-1.793 m -15.313,6.137 17.48,0 0,0.371 -1.5,0 c -0.027,1.293 -0.898,1.988 -1.695,2.754 -0.809,-0.879 -1.246,-1.828 -0.965,-2.754 l -9.152,0 c 0.281,0.926 -0.156,1.875 -0.965,2.754 -0.801,-0.766 -1.668,-1.461 -1.695,-2.754 l -1.5,0 0,-0.371 m -0.008,0" style="fill:#58a235;fill-opacity:1;stroke:none;fill-rule:nonzero"/>
    <path d="m 31.3 17.66 c 1.098 -1.457 1.406 -2.793 3.543 -6.66 0.879 0.957 1.102 4.977 -0.969 6.66 m -2.574 0" style="fill:#2d2d2d;fill-opacity:1;stroke:none;fill-rule:nonzero"/>
    <path d="M 16.551,17.66 C 15.453,16.203 15.145,14.867 13.008,11 c -0.879,0.957 -1.102,4.977 0.969,6.66 m 2.574,0" style="fill:#2d2d2d;fill-opacity:1;stroke:none;fill-rule:nonzero"/>
   </g>
  </g>
 </g>
 <g>
  <path d="m 40.03 7.531 c 3.712 4.084 5.969 9.514 5.969 15.469 0 12.703 -10.297 23 -23 23 c -5.954 0 -11.384 -2.256 -15.469 -5.969 4.178 4.291 10.01 6.969 16.469 6.969 c 12.703 0 23 -10.298 23 -23 0 -6.462 -2.677 -12.291 -6.969 -16.469 z" style="opacity:0.1"/>
 </g>
</svg>
