<svg version="1.1" viewBox="0 0 48 48" xmlns="http://www.w3.org/2000/svg">
 <defs>
  <linearGradient id="bg" x2="0" y1="1" y2="47" gradientUnits="userSpaceOnUse">
   <stop style="stop-color:#cadaf5" offset="0"/>
   <stop style="stop-color:#bacff2" offset="1"/>
  </linearGradient>
 </defs>
 <path d="m36.31 5c5.859 4.062 9.688 10.831 9.688 18.5 0 12.426-10.07 22.5-22.5 22.5-7.669 0-14.438-3.828-18.5-9.688 1.037 1.822 2.306 3.499 3.781 4.969 4.085 3.712 9.514 5.969 15.469 5.969 12.703 0 23-10.298 23-23 0-5.954-2.256-11.384-5.969-15.469-1.469-1.475-3.147-2.744-4.969-3.781zm4.969 3.781c3.854 4.113 6.219 9.637 6.219 15.719 0 12.703-10.297 23-23 23-6.081 0-11.606-2.364-15.719-6.219 4.16 4.144 9.883 6.719 16.219 6.719 12.703 0 23-10.298 23-23 0-6.335-2.575-12.06-6.719-16.219z" style="opacity:.05"/>
 <path d="m41.28 8.781c3.712 4.085 5.969 9.514 5.969 15.469 0 12.703-10.297 23-23 23-5.954 0-11.384-2.256-15.469-5.969 4.113 3.854 9.637 6.219 15.719 6.219 12.703 0 23-10.298 23-23 0-6.081-2.364-11.606-6.219-15.719z" style="opacity:.1"/>
 <path d="m31.25 2.375c8.615 3.154 14.75 11.417 14.75 21.13 0 12.426-10.07 22.5-22.5 22.5-9.708 0-17.971-6.135-21.12-14.75a23 23 0 0 0 44.875-7 23 23 0 0 0-16-21.875z" style="opacity:.2"/>
 <circle cx="24" cy="24" r="23" style="fill:url(#bg)"/>
 <path d="m40.03 7.531c3.712 4.084 5.969 9.514 5.969 15.469 0 12.703-10.297 23-23 23-5.954 0-11.384-2.256-15.469-5.969 4.178 4.291 10.01 6.969 16.469 6.969 12.703 0 23-10.298 23-23 0-6.462-2.677-12.291-6.969-16.469z" style="opacity:.1"/>
 <path d="m12 27c0 2.77 2.23 5 5 5h7v1.1035c-2.1508 0.44764-3.4328 2.2082-3.5605 2.3359-0.58564 0.58576-0.58564 1.5353 0 2.1211 0.58576 0.58564 1.5353 0.58564 2.1211 0 0.85355-0.85355 1.1895-1.5605 2.4395-1.5605s1.5859 0.707 2.4395 1.5605c0.58576 0.58564 1.5353 0.58564 2.1211 0 0.58564-0.58576 0.58564-1.5353 0-2.1211-0.12775-0.12774-1.4097-1.8883-3.5605-2.3359v-1.1035h7c2.77 0 5-2.23 5-5v-0.5c0-0.82843-0.67157-1.5-1.5-1.5-0.17113 0.0044-0.34024 0.03812-0.5 0.09961v-4.1992c0.15976 0.06149 0.32887 0.09518 0.5 0.09961 0.82843 0 1.5-0.67157 1.5-1.5v-0.5c0-2.77-2.23-5-5-5z" style="opacity:.1"/>
 <rect x="13" y="14.999" width="22" height="14" style="fill:#b19dcb"/>
 <path d="m23 18v11h11v-4h-1v-1h-1v-3h-1v2h-1v4h-1v-3h-1v-4h-1v7h-1v-1h-1v-1h-1v-7zm-7 2v6h-1v-2h-1v5h8v-5h-1v-3h-1v2h-1v4h-1v-3h-1v-4z" style="fill:#897db0"/>
 <path d="m14.002 15c-0.37983 0.2847-0.71725 0.62213-1.002 1.002v12.998h4c-1.108 0-2-0.892-2-2v-8c0-1.108 0.892-2 2-2h16c1.108 0 2 0.892 2 2v-4z" style="opacity:.1"/>
 <path d="m16 13c-2.77 0-5 2.23-5 5v8c0 2.77 2.23 5 5 5h7v1.1035c-2.1508 0.44764-3.4328 2.2082-3.5605 2.3359a1.5 1.5 0 0 0 0 2.1211 1.5 1.5 0 0 0 2.1211 0c0.85355-0.85355 1.1895-1.5606 2.4395-1.5606s1.5859 0.707 2.4395 1.5606a1.5 1.5 0 0 0 2.1211 0 1.5 1.5 0 0 0 0-2.1211c-0.12775-0.12774-1.4097-1.8883-3.5605-2.3359v-1.1035h7c2.77 0 5-2.23 5-5v-0.5a1.5 1.5 0 0 0-1.5-1.5 1.5 1.5 0 0 0-1.5 1.5v0.5c0 1.108-0.892 2-2 2h-16c-1.108 0-2-0.892-2-2v-8c0-1.108 0.892-2 2-2h16c1.108 0 2 0.892 2 2v0.5a1.5 1.5 0 0 0 1.5 1.5 1.5 1.5 0 0 0 1.5-1.5v-0.5c0-2.77-2.23-5-5-5z" style="fill:#583494"/>
</svg>
