<svg xmlns="http://www.w3.org/2000/svg" viewBox="0 0 48 48">
 <defs>
  <linearGradient id="linearGradient3764" x1="1" x2="47" gradientUnits="userSpaceOnUse" gradientTransform="matrix(0,-1,1,0,-1.5e-6,47.999998)">
   <stop style="stop-color:#e4e4e4;stop-opacity:1"/>
   <stop offset="1" style="stop-color:#eee;stop-opacity:1"/>
  </linearGradient>
  <linearGradient id="linearGradient4228" y1="36" x2="0" y2="12" gradientUnits="userSpaceOnUse">
   <stop style="stop-color:#1b991b;stop-opacity:1"/>
   <stop offset="1" style="stop-color:#1eaa1e;stop-opacity:1"/>
  </linearGradient>
 </defs>
 <g>
  <path d="m 36.31 5 c 5.859 4.062 9.688 10.831 9.688 18.5 c 0 12.426 -10.07 22.5 -22.5 22.5 c -7.669 0 -14.438 -3.828 -18.5 -9.688 c 1.037 1.822 2.306 3.499 3.781 4.969 c 4.085 3.712 9.514 5.969 15.469 5.969 c 12.703 0 23 -10.298 23 -23 c 0 -5.954 -2.256 -11.384 -5.969 -15.469 c -1.469 -1.475 -3.147 -2.744 -4.969 -3.781 z m 4.969 3.781 c 3.854 4.113 6.219 9.637 6.219 15.719 c 0 12.703 -10.297 23 -23 23 c -6.081 0 -11.606 -2.364 -15.719 -6.219 c 4.16 4.144 9.883 6.719 16.219 6.719 c 12.703 0 23 -10.298 23 -23 c 0 -6.335 -2.575 -12.06 -6.719 -16.219 z" style="opacity:0.05"/>
  <path d="m 41.28 8.781 c 3.712 4.085 5.969 9.514 5.969 15.469 c 0 12.703 -10.297 23 -23 23 c -5.954 0 -11.384 -2.256 -15.469 -5.969 c 4.113 3.854 9.637 6.219 15.719 6.219 c 12.703 0 23 -10.298 23 -23 c 0 -6.081 -2.364 -11.606 -6.219 -15.719 z" style="opacity:0.1"/>
  <path d="m 31.25 2.375 c 8.615 3.154 14.75 11.417 14.75 21.13 c 0 12.426 -10.07 22.5 -22.5 22.5 c -9.708 0 -17.971 -6.135 -21.12 -14.75 a 23 23 0 0 0 44.875 -7 a 23 23 0 0 0 -16 -21.875 z" style="opacity:0.2"/>
 </g>
 <g>
  <path d="m 24 1 c 12.703 0 23 10.297 23 23 c 0 12.703 -10.297 23 -23 23 -12.703 0 -23 -10.297 -23 -23 0 -12.703 10.297 -23 23 -23 z" style="fill:url(#linearGradient3764);fill-opacity:1"/>
 </g>
 <g>
  <path d="m 40.03 7.531 c 3.712 4.084 5.969 9.514 5.969 15.469 0 12.703 -10.297 23 -23 23 c -5.954 0 -11.384 -2.256 -15.469 -5.969 4.178 4.291 10.01 6.969 16.469 6.969 c 12.703 0 23 -10.298 23 -23 0 -6.462 -2.677 -12.291 -6.969 -16.469 z" style="opacity:0.1"/>
 </g>
 <rect rx="3" y="13" x="13" height="24" width="24" style="fill:#000;fill-opacity:0.098;stroke:none;fill-rule:evenodd"/>
 <g>
  <rect rx="3" y="12" x="12" height="24" width="24" style="fill:url(#linearGradient4228);fill-opacity:1;stroke:none;fill-rule:evenodd"/>
  <path d="m 26.622 17.998 c -0.806 -0.019 -1.587 0.039 -2.24 0.184 -2.441 0.54 -4.324 2.142 -5.071 4.316 -0.392 1.141 -0.419 3.687 -0.053 4.85 1.109 3.522 4.656 5.229 9.312 4.479 0.842 -0.154 1.64 -0.452 2.429 -0.75 l 0 -2.865 -0.734 0.395 c -2.289 1.119 -5.556 1.102 -6.841 -0.957 -1.158 -1.933 -0.752 -5.03 0.823 -6.264 1.372 -1.078 3.959 -1.07 6.01 0.021 l 0.74 0.393 0 -2.798 -0.615 -0.288 c -1.01 -0.433 -2.419 -0.683 -3.763 -0.715 z" style="fill:#000;fill-opacity:0.098"/>
  <path d="m 25.622 16.998 c -0.806 -0.019 -1.587 0.039 -2.24 0.184 -2.441 0.54 -4.324 2.142 -5.071 4.316 -0.392 1.141 -0.419 3.687 -0.053 4.85 1.109 3.522 4.656 5.229 9.312 4.479 0.842 -0.154 1.64 -0.452 2.429 -0.75 l 0 -2.865 -0.734 0.395 c -2.289 1.119 -5.556 1.102 -6.841 -0.957 -1.158 -1.933 -0.752 -5.03 0.823 -6.264 1.372 -1.078 3.959 -1.07 6.01 0.021 l 0.74 0.393 0 -2.798 -0.615 -0.288 c -1.01 -0.433 -2.419 -0.683 -3.763 -0.715 z" style="fill:#ececec;fill-opacity:1"/>
 </g>
</svg>
