<svg version="1.1" viewBox="0 0 48 48" xmlns="http://www.w3.org/2000/svg">
 <defs>
  <linearGradient id="bg" x2="0" y1="1" y2="47" gradientUnits="userSpaceOnUse">
   <stop style="stop-color:#555" offset="0"/>
   <stop style="stop-color:#4a4a4a" offset="1"/>
  </linearGradient>
 </defs>
 <path d="m36.3 5c5.86 4.06 9.69 10.8 9.69 18.5 0 12.4-10.1 22.5-22.5 22.5-7.67 0-14.4-3.83-18.5-9.69 1.04 1.82 2.31 3.5 3.78 4.97 4.08 3.71 9.51 5.97 15.5 5.97 12.7 0 23-10.3 23-23 0-5.95-2.26-11.4-5.97-15.5-1.47-1.48-3.15-2.74-4.97-3.78zm4.97 3.78c3.85 4.11 6.22 9.64 6.22 15.7 0 12.7-10.3 23-23 23-6.08 0-11.6-2.36-15.7-6.22 4.16 4.14 9.88 6.72 16.2 6.72 12.7 0 23-10.3 23-23 0-6.34-2.58-12.1-6.72-16.2z" style="opacity:.05"/>
 <path d="m41.3 8.78c3.71 4.08 5.97 9.51 5.97 15.5 0 12.7-10.3 23-23 23-5.95 0-11.4-2.26-15.5-5.97 4.11 3.85 9.64 6.22 15.7 6.22 12.7 0 23-10.3 23-23 0-6.08-2.36-11.6-6.22-15.7z" style="opacity:.1"/>
 <path d="m31.2 2.38c8.62 3.15 14.8 11.4 14.8 21.1 0 12.4-10.1 22.5-22.5 22.5-9.71 0-18-6.14-21.1-14.8a23 23 0 0 0 44.9-7 23 23 0 0 0-16-21.9z" style="opacity:.2"/>
 <circle cx="24" cy="24" r="23" style="fill:url(#bg)"/>
 <path d="m40 7.53c3.71 4.08 5.97 9.51 5.97 15.5 0 12.7-10.3 23-23 23-5.95 0-11.4-2.26-15.5-5.97 4.18 4.29 10 6.97 16.5 6.97 12.7 0 23-10.3 23-23 0-6.46-2.68-12.3-6.97-16.5z" style="opacity:.1"/>
 <path d="m25 13c-6.63 0-12 5.37-12 12 0 0.552 0.448 1 1 1s1-0.448 1-1c0.0028-2.62 1.03-5.13 2.87-7h14.3l2.03 3-17.2 1c-0.553 0.0322 0.446 1 1 1h16.8l-1.81 8-16 1c0 0.554 0.446 1 1 1h13l-6.98 3c0 0.552 0.448 1 1 1 3.41-0.0053 6.65-1.46 8.93-4h1.07c0.554 0 1-0.446 1-1 0-0.438-0.28-0.805-0.67-0.941 1.08-1.84 1.66-3.93 1.67-6.06 8.1e-5 -0.793-0.0784-1.58-0.234-2.36 0.145-0.173 0.234-0.394 0.234-0.639 0-0.437-0.279-0.803-0.668-0.939-0.379-1.09-0.914-2.12-1.59-3.06h2.26c0.554 0 1-0.446 1-1s-0.446-1-1-1h-4.07zm-8 14c0 0.554 0.446 1 1 1h14c0.554 0 1-0.446 1-1s-0.446-1-1-1z" style="opacity:.1"/>
 <path d="m17 15-1 2h20c0.554 0 1-0.446 1-1s-0.446-1-1-1zm0 15c-0.554 0-1 0.446-1 1s0.446 1 1 1h17c0.554 0 1-0.446 1-1s-0.446-1-1-1z" style="fill:#f17a74"/>
 <path d="m18.4 15-2.31 2h2.94c1.73-1.29 3.82-2 5.98-2zm6.62 0c2.16 8.45e-4 4.27 0.703 6 2h2.95c-0.681-0.762-1.46-1.43-2.31-2zm7.13 17h1.87c0.554 0 1-0.446 1-1s-0.446-1-1-1z" style="opacity:.1"/>
 <path d="m24 12a12 12 0 0 0-12 12 1 1 0 0 0 1 1 1 1 0 0 0 1-1 10 10 0 0 1 10-10 10 10 0 0 1 10 10 10 10 0 0 1-10 10 1 1 0 0 0-1 1 1 1 0 0 0 1 1 12 12 0 0 0 12-12 12 12 0 0 0-12-12z" style="fill:#42b1dc"/>
 <path d="m33.5 21a10 10 0 0 1 0.412 2h2.01a12 12 0 0 0-0.338-2h-2.08z" style="opacity:.1"/>
 <path d="m17 20c-0.554 0-1 0.446-1 1s0.446 1 1 1h18c0.554 0 1-0.446 1-1s-0.446-1-1-1zm0 5c-0.554 0-1 0.446-1 1s0.446 1 1 1h14c0.554 0 1-0.446 1-1s-0.446-1-1-1z" style="fill:#f17a74"/>
</svg>
