<svg version="1.1" viewBox="0 0 48 48" xmlns="http://www.w3.org/2000/svg">
 <defs>
  <linearGradient id="bg" x2="0" y1="1" y2="47" gradientUnits="userSpaceOnUse">
   <stop style="stop-color:#f5b87a" offset="0"/>
   <stop style="stop-color:#f3ad67" offset="1"/>
  </linearGradient>
 </defs>
 <path d="m36.3 5c5.86 4.06 9.69 10.8 9.69 18.5 0 12.4-10.1 22.5-22.5 22.5-7.67 0-14.4-3.83-18.5-9.69 1.04 1.82 2.31 3.5 3.78 4.97 4.08 3.71 9.51 5.97 15.5 5.97 12.7 0 23-10.3 23-23 0-5.95-2.26-11.4-5.97-15.5-1.47-1.48-3.15-2.74-4.97-3.78zm4.97 3.78c3.85 4.11 6.22 9.64 6.22 15.7 0 12.7-10.3 23-23 23-6.08 0-11.6-2.36-15.7-6.22 4.16 4.14 9.88 6.72 16.2 6.72 12.7 0 23-10.3 23-23 0-6.34-2.58-12.1-6.72-16.2z" style="opacity:.05"/>
 <path d="m41.3 8.78c3.71 4.08 5.97 9.51 5.97 15.5 0 12.7-10.3 23-23 23-5.95 0-11.4-2.26-15.5-5.97 4.11 3.85 9.64 6.22 15.7 6.22 12.7 0 23-10.3 23-23 0-6.08-2.36-11.6-6.22-15.7z" style="opacity:.1"/>
 <path d="m31.2 2.38c8.62 3.15 14.8 11.4 14.8 21.1 0 12.4-10.1 22.5-22.5 22.5-9.71 0-18-6.14-21.1-14.8a23 23 0 0 0 44.9-7 23 23 0 0 0-16-21.9z" style="opacity:.2"/>
 <circle cx="24" cy="24" r="23" style="fill:url(#bg)"/>
 <path d="m13 23-5 3c0 0.554 0.446 1 1 1h1c-0.0618-0.247 0.223-0.5 0.5-0.5s0.433 0.231 0.5 0.5h1l2 8c0 0.554 0.446 1 1 1h1c0.554 0 1-0.446 1-1v-20c0-0.554-0.446-1-1-1zm20 12c0 0.554 0.446 1 1 1h1c0.554 0 1-0.446 1-1v-1.64l0.957-2.15c0.0284-0.064 0.043-0.133 0.043-0.203v-4h1c-0.0672-0.269 0.223-0.5 0.5-0.5s0.433 0.231 0.5 0.5h1c-0.0672-0.269 0.223-0.5 0.5-0.5s0.433 0.231 0.5 0.5c0.554 0 1-0.446 1-1v-2c0-0.554-0.446-1-1-1h-4v-4c4.6e-5 -0.07-0.0146-0.139-0.043-0.203l-0.957-2.15v-1.64c0-0.554-0.446-1-1-1zm-14-2c0 0.554 0.446 1 1 1h10c0.554 0 1-0.446 1-1v-16c0-0.554-0.446-1-1-1h-11z" style="opacity:.1"/>
 <path d="m40 7.53c3.71 4.08 5.97 9.51 5.97 15.5 0 12.7-10.3 23-23 23-5.95 0-11.4-2.26-15.5-5.97 4.18 4.29 10 6.97 16.5 6.97 12.7 0 23-10.3 23-23 0-6.46-2.68-12.3-6.97-16.5z" style="opacity:.1"/>
 <path d="m8 22c-0.554 0-1 0.446-1 1v2c0 0.554 0.446 1 1 1h1c-0.0618-0.247 0.223-0.5 0.5-0.5s0.433 0.231 0.5 0.5h1c-0.0618-0.247 0.223-0.5 0.5-0.5s0.433 0.231 0.5 0.5h2v-4h-3c0.0672 0.269-0.223 0.5-0.5 0.5s-0.433-0.231-0.5-0.5h-1c0.0672 0.269-0.223 0.5-0.5 0.5s-0.433-0.231-0.5-0.5zm26 0v4h3c-0.0672-0.269 0.223-0.5 0.5-0.5s0.433 0.231 0.5 0.5h1c-0.0672-0.269 0.223-0.5 0.5-0.5s0.433 0.231 0.5 0.5c0.554 0 1-0.446 1-1v-2c0-0.554-0.446-1-1-1h-1c0.0618 0.247-0.223 0.5-0.5 0.5s-0.433-0.231-0.5-0.5h-1c0.0618 0.247-0.223 0.5-0.5 0.5s-0.433-0.231-0.5-0.5h-2z" style="fill:#808080"/>
 <path d="m8 22 1 4c-0.0618-0.247 0.223-0.5 0.5-0.5s0.433 0.231 0.5 0.5l-1-4c0.0672 0.269-0.223 0.5-0.5 0.5s-0.433-0.231-0.5-0.5zm2 0 1 4c-0.0618-0.247 0.223-0.5 0.5-0.5 0.277 0 0.433 0.231 0.5 0.5l-1-4c0.0672 0.269-0.223 0.5-0.5 0.5-0.277 0-0.433-0.231-0.5-0.5zm26 0 1 4c-0.0672-0.269 0.223-0.5 0.5-0.5 0.277 0 0.433 0.231 0.5 0.5l-1-4c0.0618 0.247-0.223 0.5-0.5 0.5-0.277 0-0.433-0.231-0.5-0.5zm2 0 1 4c-0.0672-0.269 0.223-0.5 0.5-0.5s0.433 0.231 0.5 0.5l-1-4c0.0618 0.247-0.223 0.5-0.5 0.5s-0.433-0.231-0.5-0.5z" style="opacity:.1"/>
 <path d="m19 15c-0.554 0-1 0.446-1 1v16c0 0.554 0.446 1 1 1h2l3-1 3 1h2c0.554 0 1-0.446 1-1v-16c0-0.554-0.446-1-1-1h-2l-3 1-3-1zm0.5 2c0.277 0 0.5 0.223 0.5 0.5v1c0 0.277-0.223 0.5-0.5 0.5s-0.5-0.223-0.5-0.5v-1c0-0.277 0.223-0.5 0.5-0.5zm9 0c0.277 0 0.5 0.223 0.5 0.5v1c0 0.277-0.223 0.5-0.5 0.5s-0.5-0.223-0.5-0.5v-1c0-0.277 0.223-0.5 0.5-0.5zm-9 4c0.277 0 0.5 0.223 0.5 0.5v1c0 0.277-0.223 0.5-0.5 0.5s-0.5-0.223-0.5-0.5v-1c0-0.277 0.223-0.5 0.5-0.5zm9 0c0.277 0 0.5 0.223 0.5 0.5v1c0 0.277-0.223 0.5-0.5 0.5s-0.5-0.223-0.5-0.5v-1c0-0.277 0.223-0.5 0.5-0.5zm-9 4c0.277 0 0.5 0.223 0.5 0.5v1c0 0.277-0.223 0.5-0.5 0.5s-0.5-0.223-0.5-0.5v-1c0-0.277 0.223-0.5 0.5-0.5zm9 0c0.277 0 0.5 0.223 0.5 0.5v1c0 0.277-0.223 0.5-0.5 0.5s-0.5-0.223-0.5-0.5v-1c0-0.277 0.223-0.5 0.5-0.5zm-9 4c0.277 0 0.5 0.223 0.5 0.5v1c0 0.277-0.223 0.5-0.5 0.5s-0.5-0.223-0.5-0.5v-1c0-0.277 0.223-0.5 0.5-0.5zm9 0c0.277 0 0.5 0.223 0.5 0.5v1c0 0.277-0.223 0.5-0.5 0.5s-0.5-0.223-0.5-0.5v-1c0-0.277 0.223-0.5 0.5-0.5z" style="fill:#5c5c5c;paint-order:stroke fill markers;stroke-dashoffset:2;stroke-linecap:round;stroke-linejoin:round;stroke-opacity:.65;stroke-width:.816"/>
 <path d="m21 15v7.5c0 0.277 0.223 0.5 0.5 0.5h5c0.277 0 0.5-0.223 0.5-0.5v-7.5zm0.5 10c-0.277 0-0.5 0.223-0.5 0.5v7.5h6v-7.5c0-0.277-0.223-0.5-0.5-0.5z" style="fill:#7392d3"/>
 <path d="m14 13c-0.554 0-1 0.446-1 1v1.64l-0.957 2.15c-0.0284 0.064-0.043 0.133-0.043 0.203v12c-4.5e-5 0.07 0.0146 0.139 0.043 0.203l0.957 2.15v1.64c0 0.554 0.446 1 1 1h1c0.554 0 1-0.446 1-1v-20c0-0.554-0.446-1-1-1h-1zm19 0c-0.554 0-1 0.446-1 1v20c0 0.554 0.446 1 1 1h1c0.554 0 1-0.446 1-1v-1.64l0.957-2.15c0.0284-0.064 0.043-0.133 0.043-0.203v-12c4.6e-5 -0.07-0.0146-0.139-0.043-0.203l-0.957-2.15v-1.64c0-0.554-0.446-1-1-1h-1z" style="fill:#666"/>
</svg>
