<?xml version="1.0" encoding="UTF-8"?>
<svg version="1.1" viewBox="0 0 48 48" xmlns="http://www.w3.org/2000/svg">
 <defs>
  <linearGradient id="bg" x2="0" y1="1" y2="47" gradientUnits="userSpaceOnUse">
   <stop style="stop-color:#e7dde9" offset="0"/>
   <stop style="stop-color:#e0d2e2" offset="1"/>
  </linearGradient>
 </defs>
 <path d="m36.3 5c5.86 4.06 9.69 10.8 9.69 18.5 0 12.4-10.1 22.5-22.5 22.5-7.67 0-14.4-3.83-18.5-9.69 1.04 1.82 2.31 3.5 3.78 4.97 4.08 3.71 9.51 5.97 15.5 5.97 12.7 0 23-10.3 23-23 0-5.95-2.26-11.4-5.97-15.5-1.47-1.48-3.15-2.74-4.97-3.78zm4.97 3.78c3.85 4.11 6.22 9.64 6.22 15.7 0 12.7-10.3 23-23 23-6.08 0-11.6-2.36-15.7-6.22 4.16 4.14 9.88 6.72 16.2 6.72 12.7 0 23-10.3 23-23 0-6.34-2.58-12.1-6.72-16.2z" style="opacity:.05"/>
 <path d="m41.3 8.78c3.71 4.08 5.97 9.51 5.97 15.5 0 12.7-10.3 23-23 23-5.95 0-11.4-2.26-15.5-5.97 4.11 3.85 9.64 6.22 15.7 6.22 12.7 0 23-10.3 23-23 0-6.08-2.36-11.6-6.22-15.7z" style="opacity:.1"/>
 <path d="m31.2 2.38c8.62 3.15 14.8 11.4 14.8 21.1 0 12.4-10.1 22.5-22.5 22.5-9.71 0-18-6.14-21.1-14.8a23 23 0 0 0 44.9-7 23 23 0 0 0-16-21.9z" style="opacity:.2"/>
 <circle cx="24" cy="24" r="23" style="fill:url(#bg)"/>
 <path d="m40 7.53c3.71 4.08 5.97 9.51 5.97 15.5 0 12.7-10.3 23-23 23-5.95 0-11.4-2.26-15.5-5.97 4.18 4.29 10 6.97 16.5 6.97 12.7 0 23-10.3 23-23 0-6.46-2.68-12.3-6.97-16.5z" style="opacity:.1"/>
 <path d="m19 12c-0.157-2.99e-4 -0.306 0.0735-0.4 0.199l-7.5 10c-0.087 0.115-0.12 0.263-0.0898 0.404l2.5 11.9c0.0328 0.154 0.136 0.284 0.279 0.35l11 5.1c0.134 0.0622 0.288 0.0622 0.422 0l11-5.1c0.143-0.0661 0.246-0.196 0.279-0.35l2.5-11.9c0.0299-0.141-0.0029-0.289-0.0898-0.404l-7.5-10c-0.0947-0.126-0.243-0.2-0.4-0.199zm0.25 1h11.5l7.21 9.62-2.4 11.4-10.6 4.9-10.6-4.9-2.4-11.4zm9.75 5v3l-5-2.1e-4 -9.05e-4 8c0 1.66 1.34 3 3 3h5v-14zm-12 3 1e-3 8c2.18e-4 1.66 1.34 3 3 3h3v-2h-2l-1-1v-5c0-0.554 0.446-1 1-1h2v-2zm11 2h1v7l-2-1v-5c0-0.554 0.446-1 1-1z" style="opacity:.1"/>
 <path d="m18 11c-0.157-2.99e-4 -0.306 0.0735-0.4 0.199l-7.5 10c-0.087 0.115-0.12 0.263-0.0898 0.404l2.5 11.9c0.0328 0.154 0.136 0.284 0.279 0.35l11 5.1c0.134 0.0622 0.288 0.0622 0.422 0l11-5.1c0.143-0.0661 0.246-0.196 0.279-0.35l2.5-11.9c0.0299-0.141-0.0029-0.289-0.0898-0.404l-7.5-10c-0.0947-0.126-0.243-0.2-0.4-0.199zm0.25 1h11.5l7.21 9.62-2.4 11.4-10.6 4.9-10.6-4.9-2.4-11.4zm0.75 8c-1.66 1.17e-4 -3 1.34-3 3v5c0 1.66 1.34 3 3 3l3-2.12e-4v-2l-2 2.12e-4c-0.554 5.9e-5 -1-0.446-1-1v-5c0-0.554 0.446-1 1-1l2-2.12e-4v-2z" style="fill:#b04abf"/>
 <path d="m28 17v3h-2c-1.66 0-3 1.34-3 3v5c0 1.66 1.34 3 3 3h5v-14zm-1 5h1v7h-1c-0.554 0-1-0.446-1-1v-5c0-0.554 0.446-1 1-1z" style="fill:#888"/>
</svg>
