<svg version="1.1" viewBox="0 0 48 48" xmlns="http://www.w3.org/2000/svg">
 <defs>
  <linearGradient id="bg" x1="1" x2="47" gradientTransform="matrix(0 -1 1 0 -1.5e-6 48)" gradientUnits="userSpaceOnUse">
   <stop style="stop-color:#49b7d3" offset="0"/>
   <stop style="stop-color:#59bed7" offset="1"/>
  </linearGradient>
 </defs>
 <path d="m36.31 5c5.859 4.062 9.688 10.831 9.688 18.5 0 12.426-10.07 22.5-22.5 22.5-7.669 0-14.438-3.828-18.5-9.688 1.037 1.822 2.306 3.499 3.781 4.969 4.085 3.712 9.514 5.969 15.469 5.969 12.703 0 23-10.298 23-23 0-5.954-2.256-11.384-5.969-15.469-1.469-1.475-3.147-2.744-4.969-3.781zm4.969 3.781c3.854 4.113 6.219 9.637 6.219 15.719 0 12.703-10.297 23-23 23-6.081 0-11.606-2.364-15.719-6.219 4.16 4.144 9.883 6.719 16.219 6.719 12.703 0 23-10.298 23-23 0-6.335-2.575-12.06-6.719-16.219z" style="opacity:.05"/>
 <path d="m41.28 8.781c3.712 4.085 5.969 9.514 5.969 15.469 0 12.703-10.297 23-23 23-5.954 0-11.384-2.256-15.469-5.969 4.113 3.854 9.637 6.219 15.719 6.219 12.703 0 23-10.298 23-23 0-6.081-2.364-11.606-6.219-15.719z" style="opacity:.1"/>
 <path d="m31.25 2.375c8.615 3.154 14.75 11.417 14.75 21.13 0 12.426-10.07 22.5-22.5 22.5-9.708 0-17.971-6.135-21.12-14.75a23 23 0 0 0 44.875-7 23 23 0 0 0-16-21.875z" style="opacity:.2"/>
 <path d="m24 1c12.703 0 23 10.297 23 23s-10.297 23-23 23-23-10.297-23-23 10.297-23 23-23z" style="fill:url(#bg)"/>
 <path d="m30.596 14c-2.105 0-3.99 1.011-5.158 2.563 0.828 1.141 1.314 2.552 1.314 4.064 0 0.809-0.148 1.561-0.406 2.279 1.504 1.16 2.828 2.65 4.156 4.096 3.414-0.141 6.5-3.203 6.5-6.625 0-3.512-2.863-6.377-6.406-6.377zm-11.182 0.09c-3.543 0-6.414 2.848-6.414 6.359 0 3.516 2.871 6.363 6.414 6.363 1.311 0 2.528-0.391 3.543-1.061l7.41 12.246c0.992-0.433 2.524-6.498 0.672-8.908-1.877-2.969-3.761-4.506-5.645-6.357 0.275-0.71 0.434-1.477 0.434-2.283 0-3.512-2.871-6.359-6.414-6.359zm11.369 3.787c1.375 0 2.477 1.098 2.477 2.469 0 1.375-1.102 2.5-2.477 2.5-1.371 0-2.5-1.125-2.5-2.5 0-1.371 1.129-2.469 2.5-2.469zm-11.24 0.135c1.383 0 2.496 1.105 2.496 2.477 0 1.371-1.113 2.479-2.496 2.479s-2.516-1.107-2.516-2.479c0-1.371 1.133-2.477 2.516-2.477zm2.66 9c-4.914 2.746-2.965 9.04-1.75 10.988l4.082-6.941z" style="opacity:.1"/>
 <path d="m29.596 13.002c-2.105 0-3.9902 1.0105-5.1582 2.5625 0.828 1.141 1.3145 2.5525 1.3145 4.0645 0 0.809-0.14825 1.5613-0.40625 2.2793 1.504 1.16 2.8282 2.6497 4.1562 4.0957 3.414-0.141 6.5-3.203 6.5-6.625 0-3.512-2.8632-6.377-6.4062-6.377zm-11.182 0.089844c-3.543 0-6.4141 2.8484-6.4141 6.3594 0 3.516 2.8711 6.3633 6.4141 6.3633s6.4141-2.8483 6.4141-6.3633c0-3.512-2.8711-6.3594-6.4141-6.3594zm11.369 3.7871c1.375 0 2.4785 1.0978 2.4785 2.4688 0 1.375-1.1035 2.5-2.4785 2.5-1.371 0-2.5-1.125-2.5-2.5 0-1.371 1.129-2.4688 2.5-2.4688zm-11.24 0.13477c1.383 0 2.4961 1.1046 2.4961 2.4766 0 1.371-1.1131 2.4805-2.4961 2.4805s-2.5156-1.1085-2.5156-2.4805c0-1.371 1.1326-2.4766 2.5156-2.4766z" style="fill:#424242"/>
 <path d="m22.953 20.232-2.332 2.3125 8.7461 14.457c0.992-0.433 2.5239-6.5002 0.67187-8.9102-2.356-3.726-4.7229-5.1874-7.0859-7.8594zm-1.75 5.7832c-4.914 2.746-2.965 9.0393-1.75 10.988l4.082-6.9414-2.332-4.0469z" style="fill:#424242"/>
 <path d="m40.03 7.531c3.712 4.084 5.969 9.514 5.969 15.469 0 12.703-10.297 23-23 23-5.954 0-11.384-2.256-15.469-5.969 4.178 4.291 10.01 6.969 16.469 6.969 12.703 0 23-10.298 23-23 0-6.462-2.677-12.291-6.969-16.469z" style="opacity:.1"/>
</svg>
