<svg version="1.1" viewBox="0 0 48 48" xmlns="http://www.w3.org/2000/svg">
 <defs>
  <linearGradient id="bg" x2="0" y1="1" y2="47" gradientUnits="userSpaceOnUse">
   <stop style="stop-color:#f2e9ca" offset="0"/>
   <stop style="stop-color:#eee3ba" offset="1"/>
  </linearGradient>
 </defs>
 <path d="m36.31 5c5.859 4.062 9.688 10.831 9.688 18.5 0 12.426-10.07 22.5-22.5 22.5-7.669 0-14.438-3.828-18.5-9.688 1.037 1.822 2.306 3.499 3.781 4.969 4.085 3.712 9.514 5.969 15.469 5.969 12.703 0 23-10.298 23-23 0-5.954-2.256-11.384-5.969-15.469-1.469-1.475-3.147-2.744-4.969-3.781zm4.969 3.781c3.854 4.113 6.219 9.637 6.219 15.719 0 12.703-10.297 23-23 23-6.081 0-11.606-2.364-15.719-6.219 4.16 4.144 9.883 6.719 16.219 6.719 12.703 0 23-10.298 23-23 0-6.335-2.575-12.06-6.719-16.219z" style="opacity:.05"/>
 <path d="m41.28 8.781c3.712 4.085 5.969 9.514 5.969 15.469 0 12.703-10.297 23-23 23-5.954 0-11.384-2.256-15.469-5.969 4.113 3.854 9.637 6.219 15.719 6.219 12.703 0 23-10.298 23-23 0-6.081-2.364-11.606-6.219-15.719z" style="opacity:.1"/>
 <path d="m31.25 2.375c8.615 3.154 14.75 11.417 14.75 21.13 0 12.426-10.07 22.5-22.5 22.5-9.708 0-17.971-6.135-21.12-14.75a23 23 0 0 0 44.875-7 23 23 0 0 0-16-21.875z" style="opacity:.2"/>
 <circle cx="24" cy="24" r="23" style="fill:url(#bg)"/>
 <path d="m19 13c-2.773 0-6 1-7 7 1.9525-1.3016 3.484-2.1724 5.1406-2.627-2.0182 1.0173-3.697 2.7397-5.1406 5.627 1.4995 0 3.1725-1.184 5.4961-2.2656-1.223 1.1261-2.2402 2.7539-3.4961 5.2656 2.0078 0 6.3785-2.6433 9-4.082v3.082c0 0.554 0.446 1 1 1v7l-1 6h4l-1-6v-7c0.554 0 1-0.446 1-1v-3.082c2.6215 1.4387 6.9922 4.082 9 4.082-1.2559-2.5117-2.2731-4.1395-3.4961-5.2656 2.3236 1.0816 3.9966 2.2656 5.4961 2.2656-1.4436-2.8873-3.1224-4.6096-5.1406-5.627 1.6567 0.4545 3.1882 1.3253 5.1406 2.627-1-6-4.227-7-7-7-3 0-5 1-6 3-1-2-3-3-6-3z" style="opacity:.1;paint-order:normal"/>
 <path d="m40.03 7.531c3.712 4.084 5.969 9.514 5.969 15.469 0 12.703-10.297 23-23 23-5.954 0-11.384-2.256-15.469-5.969 4.178 4.291 10.01 6.969 16.469 6.969 12.703 0 23-10.298 23-23 0-6.462-2.677-12.291-6.969-16.469z" style="opacity:.1"/>
 <path d="m23 19c-0.554 0-1 0.446-1 1v4c0 0.554 0.446 1 1 1v7l-1 6h4l-1-6v-7c0.554 0 1-0.446 1-1v-4c0-0.554-0.446-1-1-1z" style="fill:#86382a;paint-order:normal"/>
 <path d="m24 17c-6.3775 1-8 2-11 8 2.75 0 10-5 11-5s8.25 5 11 5c-3-6-4.6225-7-11-8z" style="fill:#179524;paint-order:normal"/>
 <path d="m24 15c-6 0-10 1-13 7 2.75 0 6-4 13-4s10.25 4 13 4c-3-6-7-7-13-7z" style="fill:#17a925;paint-order:normal"/>
 <path d="m18 12c-2.773 0-6 1-7 7 3-2 5-3 8-3 1.5372 0 2.9168 0.91797 4 2h2c1.0832-1.082 2.4628-2 4-2 3 0 5 1 8 3-1-6-4.227-7-7-7-3 0-5 1-6 3-1-2-3-3-6-3z" style="fill:#45b810;paint-order:normal"/>
</svg>
