<svg xmlns="http://www.w3.org/2000/svg" version="1.1" viewBox="0 0 48 48">
 <defs>
  <linearGradient id="linearGradient3764" x2="47" gradientUnits="userSpaceOnUse" x1="1" gradientTransform="matrix(0 -1 1 0 -1.5e-6 48)">
   <stop style="stop-color:#de2f3c" offset="0"/>
   <stop style="stop-color:#e13f4b" offset="1"/>
  </linearGradient>
 </defs>
 <circle cy="25" cx="24" r="15" style="fill-opacity:.452;fill:#ff0"/>
 <path style="opacity:.05" d="m36.31 5c5.859 4.062 9.688 10.831 9.688 18.5 0 12.426-10.07 22.5-22.5 22.5-7.669 0-14.438-3.828-18.5-9.688 1.037 1.822 2.306 3.499 3.781 4.969 4.085 3.712 9.514 5.969 15.469 5.969 12.703 0 23-10.298 23-23 0-5.954-2.256-11.384-5.969-15.469-1.469-1.475-3.147-2.744-4.969-3.781zm4.969 3.781c3.854 4.113 6.219 9.637 6.219 15.719 0 12.703-10.297 23-23 23-6.081 0-11.606-2.364-15.719-6.219 4.16 4.144 9.883 6.719 16.219 6.719 12.703 0 23-10.298 23-23 0-6.335-2.575-12.06-6.719-16.219z"/>
 <path style="opacity:.1" d="m41.28 8.781c3.712 4.085 5.969 9.514 5.969 15.469 0 12.703-10.297 23-23 23-5.954 0-11.384-2.256-15.469-5.969 4.113 3.854 9.637 6.219 15.719 6.219 12.703 0 23-10.298 23-23 0-6.081-2.364-11.606-6.219-15.719z"/>
 <path style="opacity:.2" d="m31.25 2.375c8.615 3.154 14.75 11.417 14.75 21.13 0 12.426-10.07 22.5-22.5 22.5-9.708 0-17.971-6.135-21.12-14.75a23 23 0 0 0 44.875 -7 23 23 0 0 0 -16 -21.875z"/>
 <path style="fill:url(#linearGradient3764)" d="m24 1c12.703 0 23 10.297 23 23s-10.297 23-23 23-23-10.297-23-23 10.297-23 23-23z"/>
 <path style="opacity:.1" d="m25 11c-7.1797 0-13 7.1634-13 16v2c0 3.3137 2.6863 6 6 6v-12c-0.84616 0.0028-1.6822 0.18448-2.4531 0.5332 1.367-5.684 5.169-9.533 9.453-9.533 4.2844-0.00002 8.0862 3.8485 9.4531 9.5332-0.771-0.349-1.607-0.533-2.453-0.533v12c3.3137 0 6-2.6863 6-6v-2c0-8.837-5.82-16-13-16zm-5 9v2h10v-2zm0 4v2h10v-2zm0 4v2h10v-2zm0 4v2h10v-2zm0 4v2h10v-2z"/>
 <path style="opacity:.1" d="m40.03 7.531c3.712 4.084 5.969 9.514 5.969 15.469 0 12.703-10.297 23-23 23-5.954 0-11.384-2.256-15.469-5.969 4.178 4.291 10.01 6.969 16.469 6.969 12.703 0 23-10.298 23-23 0-6.462-2.677-12.291-6.969-16.469z"/>
 <path style="fill:#f9f9f9" d="m24 10c-7.1797 0-13 7.1634-13 16v2c0 3.3137 2.6863 6 6 6v-12c-0.84616 0.0028-1.6822 0.18448-2.4531 0.5332 1.367-5.684 5.169-9.533 9.453-9.533 4.2844-0.00002 8.0862 3.8485 9.4531 9.5332-0.771-0.349-1.607-0.533-2.453-0.533v12c3.3137 0 6-2.6863 6-6v-2c0-8.837-5.82-16-13-16zm-5 9v2h10v-2zm0 4v2h10v-2zm0 4v2h10v-2zm0 4v2h10v-2zm0 4v2h10v-2z"/>
</svg>
