<svg version="1.1" viewBox="0 0 48 48" xmlns="http://www.w3.org/2000/svg" xmlns:xlink="http://www.w3.org/1999/xlink">
 <defs>
  <linearGradient id="linearGradient876" x2="0" y1="47" y2="1" gradientUnits="userSpaceOnUse">
   <stop style="stop-color:#9291db" offset="0"/>
   <stop style="stop-color:#a1a0e0" offset="1"/>
  </linearGradient>
 </defs>
 <path d="m36.31 5c5.859 4.062 9.688 10.831 9.688 18.5 0 12.426-10.07 22.5-22.5 22.5-7.669 0-14.438-3.828-18.5-9.688 1.037 1.822 2.306 3.499 3.781 4.969 4.085 3.712 9.514 5.969 15.469 5.969 12.703 0 23-10.298 23-23 0-5.954-2.256-11.384-5.969-15.469-1.469-1.475-3.147-2.744-4.969-3.781zm4.969 3.781c3.854 4.113 6.219 9.637 6.219 15.719 0 12.703-10.297 23-23 23-6.081 0-11.606-2.364-15.719-6.219 4.16 4.144 9.883 6.719 16.219 6.719 12.703 0 23-10.298 23-23 0-6.335-2.575-12.06-6.719-16.219z" style="opacity:.05"/>
 <path d="m41.28 8.781c3.712 4.085 5.969 9.514 5.969 15.469 0 12.703-10.297 23-23 23-5.954 0-11.384-2.256-15.469-5.969 4.113 3.854 9.637 6.219 15.719 6.219 12.703 0 23-10.298 23-23 0-6.081-2.364-11.606-6.219-15.719z" style="opacity:.1"/>
 <path d="m31.25 2.375c8.615 3.154 14.75 11.417 14.75 21.13 0 12.426-10.07 22.5-22.5 22.5-9.708 0-17.971-6.135-21.12-14.75a23 23 0 0 0 44.875-7 23 23 0 0 0-16-21.875z" style="opacity:.2"/>
 <path d="m24 1c12.703 0 23 10.297 23 23s-10.297 23-23 23-23-10.297-23-23 10.297-23 23-23z" style="fill:url(#linearGradient876)"/>
 <path d="m40.03 7.531c3.712 4.084 5.969 9.514 5.969 15.469 0 12.703-10.297 23-23 23-5.954 0-11.384-2.256-15.469-5.969 4.178 4.291 10.01 6.969 16.469 6.969 12.703 0 23-10.298 23-23 0-6.462-2.677-12.291-6.969-16.469z" style="opacity:.1"/>
 <path d="m14 12 0.0039 2e-3c-8e-3 1.827 0.3811 3.865 1.2461 5.998h5.2559c-4.13e-4 8.26e-4 -0.0015 0.0011-2e-3 2e-3 0 0.354-1.9164 1-4.7754 1 0.458 0.96 1.0118 2.016 1.6738 2.998h6.6035l-2e-3 2e-3c0 0.594-2.6661 1-5.8691 1 0.711 0.945 1.6494 2.043 2.5664 3h6.6016c0 0.386-2.2998 1-5.9668 1 2.4069 2.7559 5.0526 4.378 9.1309 4.9961 1.0223 0.15484 3.1693 0.62586 5.0333 6.0019h0.49609c-1.336-6-4.4369-11-7.9863-16-1.093-1.442-2.2466-2.786-3.4316-4-3.508-3.598-7.2981-6-10.578-6z" style="opacity:.1"/>
 <path d="m27.014 21c3.5494 5 6.6503 10 7.9863 16h-0.49609c-1.864-5.376-4.011-5.847-5.0332-6.002-4.0782-0.61812-6.724-2.2402-9.1309-4.9961 3.667 0 5.9668-0.614 5.9668-1h-6.6016c-0.917-0.957-1.8554-2.055-2.5664-3 3.203 0 5.8691-0.406 5.8691-1 1.2872-1.1155 2.7872-0.33685 4.0059-2e-3z" style="fill:#ece5c4"/>
 <path d="m13.586 15c0.18149 0.65632 0.39248 1.3207 0.66797 2h5.2559l-2e-3 2e-3c0 0.354-1.9164 1-4.7754 1 0.458 0.96 1.0118 2.016 1.6738 2.998h10.607c-1.5684-1.9254-3.4776-4.1354-5.5918-6-2.625-0.54574-5.2515-1.1558-7.8359 0z" style="fill:#423c54"/>
 <path d="m13.004 11 0.003906 0.001953c-0.005452 1.2451 0.18976 2.5936 0.57813 3.998h7.8359c-2.5602-2.2579-5.426-4-8.418-4z" style="fill:#7f4b2d"/>
</svg>
