<svg version="1.1" viewBox="0 0 48 48" xmlns="http://www.w3.org/2000/svg">
 <defs>
  <linearGradient id="bg" x1="1" x2="47" gradientTransform="matrix(0 -1 1 0 -1.5e-6 48)" gradientUnits="userSpaceOnUse">
   <stop style="stop-color:#3b94d3" offset="0"/>
   <stop style="stop-color:#4b9ed7" offset="1"/>
  </linearGradient>
 </defs>
 <path d="m36.31 5c5.859 4.062 9.688 10.831 9.688 18.5 0 12.426-10.07 22.5-22.5 22.5-7.669 0-14.438-3.828-18.5-9.688 1.037 1.822 2.306 3.499 3.781 4.969 4.085 3.712 9.514 5.969 15.469 5.969 12.703 0 23-10.298 23-23 0-5.954-2.256-11.384-5.969-15.469-1.469-1.475-3.147-2.744-4.969-3.781zm4.969 3.781c3.854 4.113 6.219 9.637 6.219 15.719 0 12.703-10.297 23-23 23-6.081 0-11.606-2.364-15.719-6.219 4.16 4.144 9.883 6.719 16.219 6.719 12.703 0 23-10.298 23-23 0-6.335-2.575-12.06-6.719-16.219z" style="opacity:.05"/>
 <path d="m41.28 8.781c3.712 4.085 5.969 9.514 5.969 15.469 0 12.703-10.297 23-23 23-5.954 0-11.384-2.256-15.469-5.969 4.113 3.854 9.637 6.219 15.719 6.219 12.703 0 23-10.298 23-23 0-6.081-2.364-11.606-6.219-15.719z" style="opacity:.1"/>
 <path d="m31.25 2.375c8.615 3.154 14.75 11.417 14.75 21.13 0 12.426-10.07 22.5-22.5 22.5-9.708 0-17.971-6.135-21.12-14.75a23 23 0 0 0 44.875-7 23 23 0 0 0-16-21.875z" style="opacity:.2"/>
 <path d="m24 1c12.703 0 23 10.297 23 23s-10.297 23-23 23-23-10.297-23-23 10.297-23 23-23z" style="fill:url(#bg)"/>
 <path d="m25.134 11.004-8.7733 24.342c0.06309 0.23197 0.2824 0.79089 0.76707 1.1668 0.49669 0.38395 1.0995 0.43594 1.3489 0.42794 0.25636-2e-3 0.49269-0.04699 0.68396-0.09699 2.2281-0.83088 4.1168-1.9787 5.9453-2.9826 2.173 1.1188 4.5343 2.4437 6.6162 3.0726 1.1406 0.25896 2.0476-0.23633 2.116-1.5388 0.13266-2.5272-0.58081-5.2513-0.94232-7.6959 1.6353-1.9427 5.0901-4.7243 5.1041-6.907l-7e-3 -0.021c-0.12518-0.79088-0.65993-1.2348-1.425-1.4708-2.2552-0.57692-4.4382-0.91487-6.5131-1.2568-1.1616-2.1477-1.9808-4.8363-3.6301-6.5861" style="opacity:.1"/>
 <path d="m24.135 10.004c-1.2748 0.11998-1.9027 1.0159-2.4614 1.9667-0.9283 1.6958-1.6463 3.4015-2.5095 5.0743-2.166 0.46993-4.5954 0.64591-6.471 1.2428-1.2998 0.55092-2.131 1.6318-1.446 2.8506 1.2948 2.3037 3.2145 3.9984 4.8608 5.6742-0.32045 2.4677-1.1065 5.2803-0.74604 7.5329 0.06309 0.23197 0.2824 0.79089 0.76707 1.1668 0.49669 0.38395 1.0995 0.43594 1.3489 0.42794 0.25636-2e-3 0.49269-0.04699 0.68396-0.09699 2.2281-0.83088 4.1168-1.9787 5.9453-2.9826 2.173 1.1188 4.5343 2.4437 6.6162 3.0726 1.1406 0.25896 2.0476-0.23633 2.116-1.5388 0.13266-2.5272-0.58081-5.2513-0.94232-7.6959 1.6353-1.9427 5.0901-4.7243 5.1041-6.907l-7e-3 -0.021c-0.12518-0.79088-0.65993-1.2348-1.425-1.4708-2.2552-0.57692-4.4382-0.91487-6.5131-1.2568-1.1616-2.1477-1.9808-4.8363-3.6301-6.5861-0.35049-0.37195-0.91928-0.47793-1.2928-0.45594z" style="fill:#424242"/>
 <path d="m24.129 12.237c-0.20491-0.02675-0.41576 0.18632-0.72069 0.71872l-0.0059 0.0078v0.0059c-1.0264 1.9356-1.797 3.9187-2.9746 5.8064-2.0629 0.51091-4.6947 0.53399-7.078 1.2538-0.26537 0.08799-0.55315 0.24046-0.18164 0.77536 1.1136 1.6037 2.8793 3.2979 4.83 5.2205 0.10415 0.14997 0.15519 0.32499 0.11914 0.62692-0.20128 2.1146-0.90073 4.49-0.88671 6.8825-1e-3 0.19396 0.03779 0.51501 0.44335 0.37304 1.8857-0.5569 3.8697-1.8301 5.8925-2.9999 0.41558-0.13198 0.7741-0.17362 1.1406 0.02734 1.9417 0.94382 3.7629 2.2084 5.8417 2.9823 0.15722 0.06299 0.39333 0.10276 0.40234-0.15819 0.03805-2.4056-0.56886-4.957-0.86327-7.5466l0.15234-0.23241c1.2067-1.5247 2.854-2.9259 4.2108-4.5096v-0.0059c0.37652-0.49291 0.91158-1.1168 0.30273-1.3417-1.9187-0.70887-4.4419-1.0211-6.9354-1.3319l-0.21289-0.29101c-1.1146-1.8426-1.7466-3.6773-2.7871-5.535l2e-3 -2e-3c-0.28641-0.43236-0.48649-0.69972-0.6914-0.72647z" style="fill:#fbdf31"/>
 <path d="m40.03 7.531c3.712 4.084 5.969 9.514 5.969 15.469 0 12.703-10.297 23-23 23-5.954 0-11.384-2.256-15.469-5.969 4.178 4.291 10.01 6.969 16.469 6.969 12.703 0 23-10.298 23-23 0-6.462-2.677-12.291-6.969-16.469z" style="opacity:.1"/>
</svg>
