<svg version="1.1" viewBox="0 0 48 48" xmlns="http://www.w3.org/2000/svg">
 <defs>
  <linearGradient id="lG3764" x1="1" x2="47" gradientTransform="rotate(-90,24,24)" gradientUnits="userSpaceOnUse">
   <stop style="stop-color:#1e8a1e" offset="0"/>
   <stop style="stop-color:#229a22" offset="1"/>
  </linearGradient>
 </defs>
 <path d="m36.3 5c5.86 4.06 9.69 10.8 9.69 18.5 0 12.4-10.1 22.5-22.5 22.5-7.67 0-14.4-3.83-18.5-9.69 1.04 1.82 2.31 3.5 3.78 4.97 4.08 3.71 9.51 5.97 15.5 5.97 12.7 0 23-10.3 23-23 0-5.95-2.26-11.4-5.97-15.5-1.47-1.48-3.15-2.74-4.97-3.78zm4.97 3.78c3.85 4.11 6.22 9.64 6.22 15.7 0 12.7-10.3 23-23 23-6.08 0-11.6-2.36-15.7-6.22 4.16 4.14 9.88 6.72 16.2 6.72 12.7 0 23-10.3 23-23 0-6.34-2.58-12.1-6.72-16.2z" style="opacity:.05"/>
 <path d="m41.3 8.78c3.71 4.08 5.97 9.51 5.97 15.5 0 12.7-10.3 23-23 23-5.95 0-11.4-2.26-15.5-5.97 4.11 3.85 9.64 6.22 15.7 6.22 12.7 0 23-10.3 23-23 0-6.08-2.36-11.6-6.22-15.7z" style="opacity:.1"/>
 <path d="m31.2 2.38c8.62 3.15 14.8 11.4 14.8 21.1 0 12.4-10.1 22.5-22.5 22.5-9.71 0-18-6.14-21.1-14.8a23 23 0 0 0 44.9-7 23 23 0 0 0-16-21.9z" style="opacity:.2"/>
 <path d="m24 1c12.7 0 23 10.3 23 23s-10.3 23-23 23-23-10.3-23-23 10.3-23 23-23z" style="fill:url(#lG3764)"/>
 <path d="m28.4 13c-0.643-0.03-1.2 0.081-1.61 0.34 0.027 0.02 0.053 0.031 0.076 0.047l8.15 5.3c0.208-1.27-0.984-3.08-2.98-4.38h-2e-3c-1.25-0.813-2.56-1.26-3.63-1.31zm-1.38 1.2c-0.464-0.087-0.951 0.098-1.22 0.508l-7.09 10.7c-0.359 0.543-0.201 1.28 0.361 1.65l0.521 0.336c0.559 0.363 1.31 0.219 1.67-0.328l7.09-10.7c0.359-0.547 0.199-1.28-0.363-1.65l-0.52-0.34c-0.14-0.091-0.293-0.151-0.447-0.18zm2.91 1.89c-0.464-0.088-0.951 0.1-1.22 0.51l-7.09 10.7c-0.359 0.547-0.199 1.28 0.363 1.65l0.521 0.342c0.559 0.363 1.31 0.219 1.67-0.328l7.09-10.7c0.359-0.543 0.199-1.28-0.363-1.65l-0.52-0.336c-0.14-0.092-0.293-0.152-0.447-0.182zm2.45 1.9c-0.302 0.059-0.58 0.232-0.76 0.504l-7.09 10.7c-0.359 0.547-0.199 1.28 0.363 1.65l0.52 0.336c0.559 0.367 1.31 0.219 1.67-0.324l7.09-10.7c0.359-0.547 0.199-1.28-0.363-1.65l-0.52-0.336c-0.279-0.184-0.606-0.239-0.908-0.18zm-14.6 8.92-0.738 10.1 9.04-4.69-8.3-5.4z" style="opacity:.1"/>
 <path d="m27.4 12c-0.643-0.0305-1.2 0.0807-1.61 0.34 0.027 0.02 0.0532 0.0309 0.0762 0.0469l8.15 5.3c0.208-1.27-0.984-3.08-2.98-4.38h-0.00195c-1.25-0.813-2.56-1.26-3.63-1.31zm-1.61 1.18c-0.388 0.00164-0.764 0.185-0.988 0.527l-7.09 10.7c-0.359 0.543-0.201 1.28 0.361 1.65l0.521 0.336c0.559 0.363 1.31 0.219 1.67-0.328l7.09-10.7c0.359-0.547 0.199-1.29-0.363-1.65l-0.52-0.34c-0.21-0.136-0.447-0.2-0.68-0.199zm2.91 1.89c-0.388 0.00184-0.764 0.189-0.988 0.531l-7.09 10.7c-0.359 0.547-0.199 1.28 0.363 1.65l0.521 0.342c0.559 0.363 1.31 0.219 1.67-0.328l7.09-10.7c0.359-0.543 0.199-1.28-0.363-1.65l-0.52-0.336c-0.21-0.138-0.447-0.204-0.68-0.203zm2.91 1.9c-0.388 0.00148-0.764 0.186-0.988 0.525l-7.09 10.7c-0.359 0.547-0.199 1.29 0.363 1.65l0.52 0.336c0.559 0.367 1.31 0.219 1.67-0.324l7.09-10.7c0.359-0.547 0.199-1.29-0.363-1.65l-0.52-0.336c-0.21-0.138-0.447-0.202-0.68-0.201zm-14.8 8.95-0.738 10.1 9.04-4.69-8.3-5.4z" style="fill:#f9f9f9"/>
 <path d="m40 7.53c3.71 4.08 5.97 9.51 5.97 15.5 0 12.7-10.3 23-23 23-5.95 0-11.4-2.26-15.5-5.97 4.18 4.29 10 6.97 16.5 6.97 12.7 0 23-10.3 23-23 0-6.46-2.68-12.3-6.97-16.5z" style="opacity:.1"/>
</svg>
