<svg xmlns="http://www.w3.org/2000/svg" viewBox="0 0 48 48">
 <defs>
  <linearGradient id="linearGradient3764" x1="1" x2="47" gradientUnits="userSpaceOnUse" gradientTransform="matrix(0,-1,1,0,-1.5e-6,47.999998)">
   <stop style="stop-color:#1e8a1e;stop-opacity:1"/>
   <stop offset="1" style="stop-color:#229a22;stop-opacity:1"/>
  </linearGradient>
 </defs>
 <g>
  <path d="m 36.31 5 c 5.859 4.062 9.688 10.831 9.688 18.5 c 0 12.426 -10.07 22.5 -22.5 22.5 c -7.669 0 -14.438 -3.828 -18.5 -9.688 c 1.037 1.822 2.306 3.499 3.781 4.969 c 4.085 3.712 9.514 5.969 15.469 5.969 c 12.703 0 23 -10.298 23 -23 c 0 -5.954 -2.256 -11.384 -5.969 -15.469 c -1.469 -1.475 -3.147 -2.744 -4.969 -3.781 z m 4.969 3.781 c 3.854 4.113 6.219 9.637 6.219 15.719 c 0 12.703 -10.297 23 -23 23 c -6.081 0 -11.606 -2.364 -15.719 -6.219 c 4.16 4.144 9.883 6.719 16.219 6.719 c 12.703 0 23 -10.298 23 -23 c 0 -6.335 -2.575 -12.06 -6.719 -16.219 z" style="opacity:0.05"/>
  <path d="m 41.28 8.781 c 3.712 4.085 5.969 9.514 5.969 15.469 c 0 12.703 -10.297 23 -23 23 c -5.954 0 -11.384 -2.256 -15.469 -5.969 c 4.113 3.854 9.637 6.219 15.719 6.219 c 12.703 0 23 -10.298 23 -23 c 0 -6.081 -2.364 -11.606 -6.219 -15.719 z" style="opacity:0.1"/>
  <path d="m 31.25 2.375 c 8.615 3.154 14.75 11.417 14.75 21.13 c 0 12.426 -10.07 22.5 -22.5 22.5 c -9.708 0 -17.971 -6.135 -21.12 -14.75 a 23 23 0 0 0 44.875 -7 a 23 23 0 0 0 -16 -21.875 z" style="opacity:0.2"/>
 </g>
 <g>
  <path d="m 24 1 c 12.703 0 23 10.297 23 23 c 0 12.703 -10.297 23 -23 23 -12.703 0 -23 -10.297 -23 -23 0 -12.703 10.297 -23 23 -23 z" style="fill:url(#linearGradient3764);fill-opacity:1"/>
 </g>
 <g>
  <g>
   <g transform="translate(1,1)">
    <g style="opacity:0.1">
     <!-- color: #229a22 -->
     <g>
      <path d="m 28.363 13 c -0.643 -0.03 -1.201 0.081 -1.609 0.34 c 0.027 0.02 0.053 0.031 0.076 0.047 l 8.146 5.301 c 0.208 -1.266 -0.984 -3.082 -2.98 -4.379 l -0.002 0 c -1.25 -0.813 -2.558 -1.258 -3.631 -1.309 z m -1.381 1.195 c -0.464 -0.087 -0.951 0.098 -1.221 0.508 l -7.09 10.711 c -0.359 0.543 -0.201 1.281 0.361 1.648 l 0.521 0.336 c 0.559 0.363 1.309 0.219 1.668 -0.328 l 7.09 -10.707 c 0.359 -0.547 0.199 -1.285 -0.363 -1.648 l -0.52 -0.34 c -0.14 -0.091 -0.293 -0.151 -0.447 -0.18 z m 2.91 1.893 c -0.464 -0.088 -0.951 0.1 -1.221 0.51 l -7.092 10.707 c -0.359 0.547 -0.199 1.283 0.363 1.646 l 0.521 0.342 c 0.559 0.363 1.309 0.219 1.668 -0.328 l 7.09 -10.711 c 0.359 -0.543 0.199 -1.281 -0.363 -1.648 l -0.52 -0.336 c -0.14 -0.092 -0.293 -0.152 -0.447 -0.182 z m 2.449 1.896 c -0.302 0.059 -0.58 0.232 -0.76 0.504 l -7.09 10.711 c -0.359 0.547 -0.199 1.285 0.363 1.648 l 0.52 0.336 c 0.559 0.367 1.309 0.219 1.668 -0.324 l 7.09 -10.711 c 0.359 -0.547 0.199 -1.285 -0.363 -1.648 l -0.52 -0.336 c -0.279 -0.184 -0.606 -0.239 -0.908 -0.18 z m -14.582 8.924 l -0.738 10.09 l 9.04 -4.688 l -8.301 -5.402 z" transform="translate(-1,-1)" style="fill:#000;fill-opacity:1;stroke:none;fill-rule:evenodd"/>
     </g>
    </g>
   </g>
  </g>
 </g>
 <g>
  <g>
   <!-- color: #229a22 -->
   <g>
    <path d="m 30.996 13.309 c 1.996 1.297 3.188 3.113 2.98 4.379 l -8.145 -5.301 c -0.023 -0.016 -0.051 -0.027 -0.078 -0.047 c 1.09 -0.691 3.242 -0.332 5.242 0.969 m 0 0" style="fill:#f9f9f9;fill-opacity:1;stroke:none;fill-rule:evenodd"/>
    <path d="m 32.77 17.5 l -0.52 -0.336 c -0.559 -0.367 -1.309 -0.219 -1.668 0.324 l -7.09 10.711 c -0.359 0.547 -0.199 1.285 0.363 1.648 l 0.52 0.336 c 0.559 0.367 1.309 0.219 1.668 -0.324 l 7.09 -10.711 c 0.359 -0.547 0.199 -1.285 -0.363 -1.648 m 0 0" style="fill:#f9f9f9;fill-opacity:1;stroke:none;fill-rule:evenodd"/>
    <path d="m 29.859 15.605 l -0.52 -0.336 c -0.559 -0.367 -1.309 -0.219 -1.668 0.328 l -7.09 10.707 c -0.359 0.547 -0.199 1.285 0.363 1.648 l 0.52 0.34 c 0.559 0.363 1.309 0.219 1.668 -0.328 l 7.09 -10.711 c 0.359 -0.543 0.199 -1.281 -0.363 -1.648 m 0 0" style="fill:#f9f9f9;fill-opacity:1;stroke:none;fill-rule:evenodd"/>
    <path d="m 26.949 13.715 l -0.52 -0.34 c -0.559 -0.363 -1.309 -0.219 -1.668 0.328 l -7.09 10.711 c -0.359 0.543 -0.199 1.281 0.363 1.648 l 0.52 0.336 c 0.559 0.363 1.309 0.219 1.668 -0.328 l 7.09 -10.707 c 0.359 -0.547 0.199 -1.285 -0.363 -1.648 m 0 0" style="fill:#f9f9f9;fill-opacity:1;stroke:none;fill-rule:evenodd"/>
    <path d="m 25.06 31.31 -8.301 -5.402 -0.738 10.09 9.04 -4.688" style="fill:#f9f9f9;fill-opacity:1;stroke:none;fill-rule:evenodd"/>
   </g>
  </g>
 </g>
 <g>
  <path d="m 40.03 7.531 c 3.712 4.084 5.969 9.514 5.969 15.469 0 12.703 -10.297 23 -23 23 c -5.954 0 -11.384 -2.256 -15.469 -5.969 4.178 4.291 10.01 6.969 16.469 6.969 c 12.703 0 23 -10.298 23 -23 0 -6.462 -2.677 -12.291 -6.969 -16.469 z" style="opacity:0.1"/>
 </g>
</svg>
