<svg version="1.1" viewBox="0 0 48 48" xmlns="http://www.w3.org/2000/svg">
 <defs>
  <linearGradient id="bg" x1="1" x2="47" gradientTransform="matrix(0 -1 1 0 -1.5e-6 48)" gradientUnits="userSpaceOnUse">
   <stop style="stop-color:#a66bdd" offset="0"/>
   <stop style="stop-color:#b07ce1" offset="1"/>
  </linearGradient>
 </defs>
 <path d="m36.31 5c5.859 4.062 9.688 10.831 9.688 18.5 0 12.426-10.07 22.5-22.5 22.5-7.669 0-14.438-3.828-18.5-9.688 1.037 1.822 2.306 3.499 3.781 4.969 4.085 3.712 9.514 5.969 15.469 5.969 12.703 0 23-10.298 23-23 0-5.954-2.256-11.384-5.969-15.469-1.469-1.475-3.147-2.744-4.969-3.781zm4.969 3.781c3.854 4.113 6.219 9.637 6.219 15.719 0 12.703-10.297 23-23 23-6.081 0-11.606-2.364-15.719-6.219 4.16 4.144 9.883 6.719 16.219 6.719 12.703 0 23-10.298 23-23 0-6.335-2.575-12.06-6.719-16.219z" style="opacity:.05"/>
 <path d="m41.28 8.781c3.712 4.085 5.969 9.514 5.969 15.469 0 12.703-10.297 23-23 23-5.954 0-11.384-2.256-15.469-5.969 4.113 3.854 9.637 6.219 15.719 6.219 12.703 0 23-10.298 23-23 0-6.081-2.364-11.606-6.219-15.719z" style="opacity:.1"/>
 <path d="m31.25 2.375c8.615 3.154 14.75 11.417 14.75 21.13 0 12.426-10.07 22.5-22.5 22.5-9.708 0-17.971-6.135-21.12-14.75a23 23 0 0 0 44.875-7 23 23 0 0 0-16-21.875z" style="opacity:.2"/>
 <path d="m24 1c-12.703 0-23 10.297-23 23 0 2.779 0.503 5.44 1.406 7.906l43.566-1.094c0.666-2.152 1.031-4.441 1.031-6.813 0-12.703-10.297-23-23-23z" style="fill:url(#bg)"/>
 <path d="m39.594 17.438c0.267 0.313 0.515 0.65 0.75 1 8e-3 0.012 0.023 0.019 0.031 0.031 0.021 0.031 0.042 0.062 0.063 0.094 0.231 0.355 0.429 0.735 0.625 1.125 0.191 0.381 0.377 0.775 0.531 1.188 0.023 0.061 0.04 0.125 0.063 0.188 0.066 0.185 0.129 0.371 0.188 0.563 0.041 0.132 0.057 0.271 0.094 0.406 0.073 0.268 0.16 0.534 0.219 0.813 0.011 0.054 0.021 0.102 0.031 0.156 0.024 0.122 0.041 0.251 0.063 0.375 0.056 0.327 0.091 0.659 0.125 1 4e-3 0.043 0.027 0.082 0.031 0.125 0.019 0.205 0.02 0.415 0.031 0.625 0.016 0.317 0.034 0.641 0.031 0.969-1e-3 0.154-0.026 0.312-0.031 0.469-0.013 0.393-0.021 0.781-0.063 1.188-0.057 0.565-0.136 1.129-0.25 1.719 0.079 0.017 0.806 0.277 1.094 0.375 0.87-5.451-0.761-9.857-3.625-12.406z" style="fill-opacity:.902;opacity:.1"/>
 <path d="m31.625 14.03c-1.883 0.125-3.859 0.801-5.781 2.094-2.711-1.293-12.267-2.438-13.12 8.469-1.941-0.363-6.973 1.547-7.281 6.313l-3.03 1c3.224 8.807 11.67 15.09 21.594 15.09 10.332 0 19.07-6.81 21.969-16.188-1.776-0.636-3.567-1.282-3.844-1.344 1.816-9.43-3.773-15.887-10.5-15.438z" style="fill:#f5f5f5"/>
 <path d="m40.03 7.531c3.712 4.084 5.969 9.514 5.969 15.469 0 12.703-10.297 23-23 23-5.954 0-11.384-2.256-15.469-5.969 4.178 4.291 10.01 6.969 16.469 6.969 12.703 0 23-10.298 23-23 0-6.462-2.677-12.291-6.969-16.469z" style="opacity:.1"/>
</svg>
