<svg xmlns="http://www.w3.org/2000/svg" version="1.1" viewBox="0 0 48 48">
	<defs>
		<linearGradient id="bg" gradientUnits="userSpaceOnUse" x1="0" x2="0" y1="1" y2="47">
			<stop offset="0" stop-color="#79b01a"/>
			<stop offset="1" stop-color="#6d9f17"/>
		</linearGradient>
	</defs>
	<path opacity=".05" d="m 36.31 5 c 5.859 4.062 9.688 10.831 9.688 18.5 c 0 12.426 -10.07 22.5 -22.5 22.5 c -7.669 0 -14.438 -3.828 -18.5 -9.688 c 1.037 1.822 2.306 3.499 3.781 4.969 c 4.085 3.712 9.514 5.969 15.469 5.969 c 12.703 0 23 -10.298 23 -23 c 0 -5.954 -2.256 -11.384 -5.969 -15.469 c -1.469 -1.475 -3.147 -2.744 -4.969 -3.781 z m 4.969 3.781 c 3.854 4.113 6.219 9.637 6.219 15.719 c 0 12.703 -10.297 23 -23 23 c -6.081 0 -11.606 -2.364 -15.719 -6.219 c 4.16 4.144 9.883 6.719 16.219 6.719 c 12.703 0 23 -10.298 23 -23 c 0 -6.335 -2.575 -12.06 -6.719 -16.219 z"/>
	<path opacity=".1" d="m 41.28 8.781 c 3.712 4.085 5.969 9.514 5.969 15.469 c 0 12.703 -10.297 23 -23 23 c -5.954 0 -11.384 -2.256 -15.469 -5.969 c 4.113 3.854 9.637 6.219 15.719 6.219 c 12.703 0 23 -10.298 23 -23 c 0 -6.081 -2.364 -11.606 -6.219 -15.719 z"/>
	<path opacity=".2" d="m 31.25 2.375 c 8.615 3.154 14.75 11.417 14.75 21.13 c 0 12.426 -10.07 22.5 -22.5 22.5 c -9.708 0 -17.971 -6.135 -21.12 -14.75 a 23 23 0 0 0 44.875 -7 a 23 23 0 0 0 -16 -21.875 z"/>
	<circle fill="url(#bg)" cx="24" cy="24" r="23"/>
	<path opacity=".1" d="m 40.03 7.531 c 3.712 4.084 5.969 9.514 5.969 15.469 0 12.703 -10.297 23 -23 23 c -5.954 0 -11.384 -2.256 -15.469 -5.969 4.178 4.291 10.01 6.969 16.469 6.969 c 12.703 0 23 -10.298 23 -23 0 -6.462 -2.677 -12.291 -6.969 -16.469 z"/>
	<path opacity=".1" d="M 16,18 a 8,8,0,0,1,16,0 3,3,0,0,1,3,3 v 9 A 3,3,0,0,1,30.777147854361168,32.7394584555905 12,12,0,0,1,24,38 12,12,0,0,1,17.222852145638832,32.73945845559054 3,3,0,0,1,13,30 v -9 a 3,3,0,0,1,3,-3 z M 29,16 a 2,2,0,0,0,-4,0 z M 23,16 a 2,2,0,0,0,-4,0 z" transform="translate(1 1)"/>
	<path fill="#333" d="M 13,21 a 3,3,0,0,1,6,0 v 9 a 3,3,0,0,1,-6,0 z M 29,21 a 3,3,0,0,1,6,0 v 9 a 3,3,0,0,1,-6,0 z M 16,18 a 8,8,0,0,1,16,0 l -8,2 z M 29,16 a 2,2,0,0,0,-4,0 z M 23,16 a 2,2,0,0,0,-4,0 z"/>
	<path fill="#bbb" d="M 16,18 H 32 V 30 A 12,12,0,0,1,24,38 12,12,0,0,1,16,30 z"/>
	<path fill="#333" d="M 24,22 a 2,2,0,0,1,0,4 2,2,0,0,1,0,-4 z M 23.5,24 l 1,0 1.5,6 -4,0 z"/>
</svg>
