<svg xmlns="http://www.w3.org/2000/svg" viewBox="0 0 48 48">
 <defs>
  <linearGradient id="linearGradient3764" x1="1" x2="47" gradientUnits="userSpaceOnUse" gradientTransform="matrix(0,-1,1,0,-1.5e-6,47.999998)">
   <stop style="stop-color:#2883c4;stop-opacity:1"/>
   <stop offset="1" style="stop-color:#2c8ed4;stop-opacity:1"/>
  </linearGradient>
 </defs>
 <g>
  <path d="m 36.31 5 c 5.859 4.062 9.688 10.831 9.688 18.5 c 0 12.426 -10.07 22.5 -22.5 22.5 c -7.669 0 -14.438 -3.828 -18.5 -9.688 c 1.037 1.822 2.306 3.499 3.781 4.969 c 4.085 3.712 9.514 5.969 15.469 5.969 c 12.703 0 23 -10.298 23 -23 c 0 -5.954 -2.256 -11.384 -5.969 -15.469 c -1.469 -1.475 -3.147 -2.744 -4.969 -3.781 z m 4.969 3.781 c 3.854 4.113 6.219 9.637 6.219 15.719 c 0 12.703 -10.297 23 -23 23 c -6.081 0 -11.606 -2.364 -15.719 -6.219 c 4.16 4.144 9.883 6.719 16.219 6.719 c 12.703 0 23 -10.298 23 -23 c 0 -6.335 -2.575 -12.06 -6.719 -16.219 z" style="opacity:0.05"/>
  <path d="m 41.28 8.781 c 3.712 4.085 5.969 9.514 5.969 15.469 c 0 12.703 -10.297 23 -23 23 c -5.954 0 -11.384 -2.256 -15.469 -5.969 c 4.113 3.854 9.637 6.219 15.719 6.219 c 12.703 0 23 -10.298 23 -23 c 0 -6.081 -2.364 -11.606 -6.219 -15.719 z" style="opacity:0.1"/>
  <path d="m 31.25 2.375 c 8.615 3.154 14.75 11.417 14.75 21.13 c 0 12.426 -10.07 22.5 -22.5 22.5 c -9.708 0 -17.971 -6.135 -21.12 -14.75 a 23 23 0 0 0 44.875 -7 a 23 23 0 0 0 -16 -21.875 z" style="opacity:0.2"/>
 </g>
 <g>
  <path d="m 24 1 c 12.703 0 23 10.297 23 23 c 0 12.703 -10.297 23 -23 23 -12.703 0 -23 -10.297 -23 -23 0 -12.703 10.297 -23 23 -23 z" style="fill:url(#linearGradient3764);fill-opacity:1"/>
 </g>
 <g>
  <path d="m 40.03 7.531 c 3.712 4.084 5.969 9.514 5.969 15.469 0 12.703 -10.297 23 -23 23 c -5.954 0 -11.384 -2.256 -15.469 -5.969 4.178 4.291 10.01 6.969 16.469 6.969 c 12.703 0 23 -10.298 23 -23 0 -6.462 -2.677 -12.291 -6.969 -16.469 z" style="opacity:0.1"/>
 </g>
 <path d="m 14 11 0 6 2 0 0 2 -2 0 0 2 -2 0 0 2 2 0 0 2 2 0 0 2 2 0 0 2 2 0 0 2 -2 0 0 4 -2 0 0 2 c 6.667 0 13.333 0 20 0 0 -3.333 0 -6.667 0 -10 l -2 0 0 -2 2 0 c 0 -4.667 0 -9.333 0 -14 l -4 0 0 2 -14 0 0 -2 z m 0 14 -2 0 0 2 2 0 z m 0 -6 0 -2 -2 0 0 2 z" style="fill:#000;opacity:0.1;fill-opacity:1;stroke:none"/>
 <path d="m 15 12 0 14 4 0 c 0.394 1.446 0.463 2.799 0 4 -0.836 2.501 -0.345 4.207 0 6 l 16 0 0 -10 -2 0 0 -2 2 -6 0 -2 -2 -4 -2 0 c -4 1 -10 1 -14 0 z" style="fill:#f55b4b;opacity:1;fill-opacity:1;stroke:none"/>
 <path d="m 15 12 0 5 1 0 0 -4 2 0 0 -0.793 c -0.338 -0.066 -0.685 -0.128 -1 -0.207 m 1 1 0 2 0 2 -2 0 0 2 -1 0 0 6 1 0 0 -2 2 0 0 2 4 0 0 -2 2 0 0 -4 -2 0 0 -2 -2 0 0 -2 2 0 0 2 2 0 0 -2 2 0 0 2 2 0 0 -2 2 0 0 2 -2 0 0 2 -2 0 0 4 2 0 0 2 4 0 0 -2 1.334 0 l 0.666 -4 l 0 -2 -2 0 c 0 -1.333 0 -2.667 0 -4 z m 13 0 2.5 0 -0.5 -1 -2 0 z m 3 4 1 0 0 -2 -1 -1 z m -2 8 0 2 2 0 0 -1 -1 0 0 -1 z m 0 2 -6 0 0 -2 -2 0 0 2 -4.783 0 l -0.217 3 l 0 6 1 0 0 -5 2 0 0 -2 10 0 z m -14 -2 -2 0 0 1 2 0 z m 16 6 0 2 -2 0 0 3 2 0 0 -1 1 0 0 -4 z m -10 2 0 3 2 0 0 -3 z" style="fill:#000;opacity:0.1;fill-opacity:1;stroke:none"/>
 <path d="m 16 17 1 5 4 0 0 -4 z m 11 1 0 4 4 0 1 -5 z" style="fill:#546585;opacity:1;fill-opacity:1;stroke:none"/>
 <path d="m 13 10 c 0 2 0 4 0 6 l 2 0 0 -4 2 0 0 -2 z m 4 2 0 2 14 0 0 -2 z m 14 0 2 0 0 4 2 0 0 -6 -4 0 z m 2 4 -6 0 0 2 4 0 0 4 2 0 0 2 2 0 0 -6 -2 0 z m 0 8 -2 0 0 2 2 0 z m -2 2 -6 0 0 -2 -2 0 0 2 -6 0 0 2 2 0 0 2 2 0 0 -2 10 0 z m -12 4 -2 0 0 4 -2 0 0 2 4 0 z m -2 -4 0 -2 -2 0 0 2 z m -2 -2 0 -2 2 0 0 -4 4 0 0 -2 -6 0 0 2 -2 0 0 2 -2 0 0 2 2 0 0 2 z m -2 0 -2 0 0 2 2 0 z m 0 -6 0 -2 -2 0 0 2 z m 8 0 0 4 2 0 0 -4 z m 0 4 -4 0 0 2 4 0 z m 10 2 0 -2 -4 0 0 2 z m -4 -2 0 -4 -2 0 0 4 z m 6 8 0 2 -2 0 0 4 2 0 0 -2 2 0 0 -4 z m -10 2 0 4 2 0 0 -4 z" style="fill:#383f4d;opacity:1;fill-opacity:1;stroke:none"/>
 <path d="m 17 18 0 2 2 0 0 -2 -2 0 z m 10 0 0 2 2 0 0 -2 -2 0 z" style="fill:#f9f9f9;opacity:1;fill-opacity:1;stroke:none"/>
 <path d="m 17 14 0 2 2 0 0 -2 -2 0 z m 4 0 0 2 2 0 0 -2 -2 0 z m 4 0 0 2 2 0 0 -2 -2 0 z m 4 0 0 2 2 0 0 -2 -2 0 z" style="fill:#98357c;opacity:1;fill-opacity:1;stroke:none"/>
</svg>
