<svg version="1.1" viewBox="0 0 48 48" xmlns="http://www.w3.org/2000/svg">
 <defs>
  <linearGradient id="bg" x1="1" x2="47" gradientTransform="rotate(-90 24 24)" gradientUnits="userSpaceOnUse">
   <stop style="stop-color:#2883c4" offset="0"/>
   <stop style="stop-color:#2c8ed4" offset="1"/>
  </linearGradient>
 </defs>
 <path d="m36.3 5c5.86 4.06 9.69 10.8 9.69 18.5 0 12.4-10.1 22.5-22.5 22.5-7.67 0-14.4-3.83-18.5-9.69 1.04 1.82 2.31 3.5 3.78 4.97 4.08 3.71 9.51 5.97 15.5 5.97 12.7 0 23-10.3 23-23 0-5.95-2.26-11.4-5.97-15.5-1.47-1.48-3.15-2.74-4.97-3.78zm4.97 3.78c3.85 4.11 6.22 9.64 6.22 15.7 0 12.7-10.3 23-23 23-6.08 0-11.6-2.36-15.7-6.22 4.16 4.14 9.88 6.72 16.2 6.72 12.7 0 23-10.3 23-23 0-6.34-2.58-12.1-6.72-16.2z" style="opacity:.05"/>
 <path d="m41.3 8.78c3.71 4.08 5.97 9.51 5.97 15.5 0 12.7-10.3 23-23 23-5.95 0-11.4-2.26-15.5-5.97 4.11 3.85 9.64 6.22 15.7 6.22 12.7 0 23-10.3 23-23 0-6.08-2.36-11.6-6.22-15.7z" style="opacity:.1"/>
 <path d="m31.2 2.38c8.62 3.15 14.8 11.4 14.8 21.1 0 12.4-10.1 22.5-22.5 22.5-9.71 0-18-6.14-21.1-14.8a23 23 0 0 0 44.9-7 23 23 0 0 0-16-21.9z" style="opacity:.2"/>
 <path d="m24 1c12.7 0 23 10.3 23 23s-10.3 23-23 23-23-10.3-23-23 10.3-23 23-23z" style="fill:url(#bg)"/>
 <path d="m40 7.53c3.71 4.08 5.97 9.51 5.97 15.5 0 12.7-10.3 23-23 23-5.95 0-11.4-2.26-15.5-5.97 4.18 4.29 10 6.97 16.5 6.97 12.7 0 23-10.3 23-23 0-6.46-2.68-12.3-6.97-16.5z" style="opacity:.1"/>
 <path d="m14 11v6h2v2h-2v2h-2v2h2v2h2v2h2v2h2v2h-2v4h-2v2h20v-10h-2v-2h2v-14h-4v2h-14v-2zm0 14h-2v2h2zm0-6v-2h-2v2z" style="opacity:.1"/>
 <path d="m15 12v14h4c0.394 1.45 0.463 2.8 0 4-0.836 2.5-0.345 4.21 0 6h16v-10h-2v-2l2-6v-2l-2-4h-2c-4 1-10 1-14 0z" style="fill:#f57161"/>
 <path d="m15 12v14h3v-1h-2v-2h2v2h4v-2h2v-4h-2v-2h-2v-2h2v2h2v-2h2v2h2v-2h2v2h-2v2h-2v4h2v2h4v-2h2v-6h-2v-4h1v-1h-2zm19 5h1v-2h-1zm-2 8v2h2v-1h-1zm0 2h-6v-2h-2v2h-5v9h1v-5h2v-2h10zm-16-14h2v4h-2zm8 20v3h2v-3zm8 0v3h2v-1h1v-2z" style="opacity:.1"/>
 <path d="m16 17 1 5h4v-4zm11 1v4h4l1-5z" style="fill:#546585"/>
 <path d="m13 10v6h2v-4h2v-2zm4 2v2h14v-2zm14 0h2v4h2v-6h-4zm2 4h-6v2h4v4h2v2h2v-6h-2zm0 8h-2v2h2zm-2 2h-6v-2h-2v2h-6v2h2v2h2v-2h10zm-12 4h-2v4h-2v2h4zm-2-4v-2h-2v2zm-2-2v-2h2v-4h4v-2h-6v2h-2v2h-2v2h2v2zm-2 0h-2v2h2zm0-6v-2h-2v2zm8 0v4h2v-4zm0 4h-4v2h4zm10 2v-2h-4v2zm-4-2v-4h-2v4zm6 8v2h-2v4h2v-2h2v-4zm-10 2v4h2v-4z" style="fill:#444b5f"/>
 <path d="m17 18v2h2v-2h-2zm10 0v2h2v-2h-2z" style="fill:#f9f9f9"/>
 <path d="m17 14v2h2v-2h-2zm4 0v2h2v-2h-2zm4 0v2h2v-2h-2zm4 0v2h2v-2h-2z" style="fill:#a23f82"/>
</svg>
