<svg version="1.1" viewBox="0 0 48 48" xmlns="http://www.w3.org/2000/svg">
 <defs>
  <linearGradient id="linearGradient891" x1="1" x2="47" y1="24" y2="24" gradientTransform="rotate(-90,24,24)" gradientUnits="userSpaceOnUse">
   <stop style="stop-color:#cb514a" offset="0"/>
   <stop style="stop-color:#cf5f59" offset="1"/>
  </linearGradient>
 </defs>
 <path d="m36.31 5c5.859 4.062 9.688 10.831 9.688 18.5 0 12.426-10.07 22.5-22.5 22.5-7.669 0-14.438-3.828-18.5-9.688 1.037 1.822 2.306 3.499 3.781 4.969 4.085 3.712 9.514 5.969 15.469 5.969 12.703 0 23-10.298 23-23 0-5.954-2.256-11.384-5.969-15.469-1.469-1.475-3.147-2.744-4.969-3.781zm4.969 3.781c3.854 4.113 6.219 9.637 6.219 15.719 0 12.703-10.297 23-23 23-6.081 0-11.606-2.364-15.719-6.219 4.16 4.144 9.883 6.719 16.219 6.719 12.703 0 23-10.298 23-23 0-6.335-2.575-12.06-6.719-16.219z" style="opacity:.05"/>
 <path d="m41.28 8.781c3.712 4.085 5.969 9.514 5.969 15.469 0 12.703-10.297 23-23 23-5.954 0-11.384-2.256-15.469-5.969 4.113 3.854 9.637 6.219 15.719 6.219 12.703 0 23-10.298 23-23 0-6.081-2.364-11.606-6.219-15.719z" style="opacity:.1"/>
 <path d="m31.25 2.375c8.615 3.154 14.75 11.417 14.75 21.13 0 12.426-10.07 22.5-22.5 22.5-9.708 0-17.971-6.135-21.12-14.75a23 23 0 0 0 44.875-7 23 23 0 0 0-16-21.875z" style="opacity:.2"/>
 <path d="m1 24c0-12.703 10.297-23 23-23s23 10.297 23 23-10.297 23-23 23-23-10.297-23-23z" style="fill:url(#linearGradient891)"/>
 <path d="m40.03 7.531c3.712 4.084 5.969 9.514 5.969 15.469 0 12.703-10.297 23-23 23-5.954 0-11.384-2.256-15.469-5.969 4.178 4.291 10.01 6.969 16.469 6.969 12.703 0 23-10.298 23-23 0-6.462-2.677-12.291-6.969-16.469z" style="opacity:.1"/>
 <path d="m28 12a9 9 0 0 0-9 9 9 9 0 0 0 1.9258 5.5586l-4.8789 4.8789-0.3125-0.3125-4.7344 4.7344 2.1445 2.1445 4.7344-4.7344-0.32812-0.32812 4.8828-4.8828a9 9 0 0 0 1.5664 0.99219v6.7832c0 0.64652 0.52145 1.166 1.168 1.166h11.664c0.64652 0 1.168-0.5195 1.168-1.166v-7.666c0-0.64652-0.52145-1.168-1.168-1.168h-0.83203a5 5 0 0 0-0.22461-1.4844 9 9 0 0 0 1.2246-4.5156 9 9 0 0 0-9-9z" style="opacity:.1"/>
 <path d="m22.422 26.07-1.504-1.504-6.734 6.734 1.504 1.504" style="fill:#d2cb37"/>
 <path d="m16.879 32.27-2.145-2.145-4.734 4.734 2.145 2.145m4.734-4.734" style="fill:#3f525b"/>
 <path d="m36 20a9 9 0 0 1-9 9 9 9 0 0 1-9-9 9 9 0 0 1 9-9 9 9 0 0 1 9 9z" style="fill:#e6e6e6"/>
 <path d="m34 20a7 7 0 0 1-7 7 7 7 0 0 1-7-7 7 7 0 0 1 7-7 7 7 0 0 1 7 7z" style="fill:#82c3ec;stroke-width:.77778"/>
 <path d="m32 22c0 1.656-1.344 3-3 3s-3-1.344-3-3 1.344-3 3-3 3 1.344 3 3" style="fill:#b9def8"/>
 <path d="m30 17c0 0.551-0.449 1-1 1s-1-0.449-1-1 0.449-1 1-1 1 0.449 1 1" style="fill:#b9def8"/>
 <path d="m31 22a5 5 0 0 0-5 5 5 5 0 0 0 0.40625 1.9707 9 9 0 0 0 0.59375 0.029297 9 9 0 0 0 1.4375-0.11914 3.5 3.5 0 0 1-0.9375-2.3809 3.5 3.5 0 0 1 3.5-3.5 3.5 3.5 0 0 1 3.2773 2.2793 9 9 0 0 0 0.75-1.2324 5 5 0 0 0-4.0273-2.0469z" style="opacity:.1"/>
 <path d="m30 21a5 5 0 0 0-5 5 5 5 0 0 0 5 5 5 5 0 0 0 5-5 5 5 0 0 0-5-5zm0 1a3.5 3.5 0 0 1 3.5 3.5 3.5 3.5 0 0 1-3.5 3.5 3.5 3.5 0 0 1-3.5-3.5 3.5 3.5 0 0 1 3.5-3.5" style="fill:#b3b3b3"/>
 <rect x="23" y="26" width="14" height="10" rx="1.167" style="fill:#b3b3b3"/>
 <circle cx="30" cy="31" r="4" style="fill:#808080"/>
 <rect x="29" y="31" width="2" height="3" style="fill:#333"/>
 <circle cx="30" cy="30" r="2" style="fill:#333"/>
</svg>
