<svg version="1.1" viewBox="0 0 48 48" xmlns="http://www.w3.org/2000/svg">
 <defs>
  <linearGradient id="bg" x2="0" y1="1" y2="47" gradientUnits="userSpaceOnUse">
   <stop style="stop-color:#5b5bc8" offset="0"/>
   <stop style="stop-color:#4a4ac3" offset="1"/>
  </linearGradient>
 </defs>
 <path d="m36.3 5c5.86 4.06 9.69 10.8 9.69 18.5 0 12.4-10.1 22.5-22.5 22.5-7.67 0-14.4-3.83-18.5-9.69 1.04 1.82 2.31 3.5 3.78 4.97 4.08 3.71 9.51 5.97 15.5 5.97 12.7 0 23-10.3 23-23 0-5.95-2.26-11.4-5.97-15.5-1.47-1.48-3.15-2.74-4.97-3.78zm4.97 3.78c3.85 4.11 6.22 9.64 6.22 15.7 0 12.7-10.3 23-23 23-6.08 0-11.6-2.36-15.7-6.22 4.16 4.14 9.88 6.72 16.2 6.72 12.7 0 23-10.3 23-23 0-6.34-2.58-12.1-6.72-16.2z" style="opacity:.05"/>
 <path d="m41.3 8.78c3.71 4.08 5.97 9.51 5.97 15.5 0 12.7-10.3 23-23 23-5.95 0-11.4-2.26-15.5-5.97 4.11 3.85 9.64 6.22 15.7 6.22 12.7 0 23-10.3 23-23 0-6.08-2.36-11.6-6.22-15.7z" style="opacity:.1"/>
 <path d="m31.2 2.38c8.62 3.15 14.8 11.4 14.8 21.1 0 12.4-10.1 22.5-22.5 22.5-9.71 0-18-6.14-21.1-14.8a23 23 0 0 0 44.9-7 23 23 0 0 0-16-21.9z" style="opacity:.2"/>
 <circle cx="24" cy="24" r="23" style="fill:url(#bg)"/>
 <path d="m40 7.53c3.71 4.08 5.97 9.51 5.97 15.5 0 12.7-10.3 23-23 23-5.95 0-11.4-2.26-15.5-5.97 4.18 4.29 10 6.97 16.5 6.97 12.7 0 23-10.3 23-23 0-6.46-2.68-12.3-6.97-16.5z" style="opacity:.1"/>
 <path d="m19 18c-3.87 0-7 3.13-7 7s3.13 7 7 7 7-3.13 7-7-3.13-7-7-7zm16.9 1-7.51 5.18c-0.56 0.399-0.56 1.23 0 1.63l7 5c0.662 0.474 1.58-1.42e-4 1.58-0.814v-10c-3.15e-4 -0.375-0.21-0.717-0.543-0.889-0.166-0.0859-0.349-0.122-0.529-0.109zm-17.6 0.998h1.4l0.484 0.371 0.236 0.889c0.401 0.153 0.775 0.369 1.11 0.641l0.889-0.24 2.08 2.34-4.5 6-2.18-0.371-0.236-0.889c-0.401-0.153-0.775-0.369-1.11-0.641l-1.45 0.0059-0.699-1.21c-0.114-0.196-0.0806-0.445 0.0801-0.605l0.65-0.648c-0.0341-0.212-0.0511-0.426-0.0508-0.641-2.82e-4 -0.215 0.0167-0.429 0.0508-0.641l-0.65-0.648c-0.161-0.16-0.194-0.409-0.0801-0.605l0.699-1.21c0.113-0.197 0.345-0.293 0.564-0.234l0.889 0.24c0.332-0.272 0.706-0.488 1.11-0.641l0.236-0.889c0.0585-0.219 0.257-0.372 0.484-0.371zm0.699 3c-1.1 0-2 0.895-2 2s0.895 2 2 2 2-0.895 2-2-0.895-2-2-2z" style="opacity:.1"/>
 <path d="m18 17a7 7 0 0 0-7 7 7 7 0 0 0 7 7 7 7 0 0 0 7-7 7 7 0 0 0-7-7zm-0.699 2h1.4c0.227-5.6e-4 0.426 0.152 0.484 0.371l0.236 0.889a4 4 0 0 1 1.11 0.641l0.889-0.24c0.219-0.059 0.451 0.0375 0.564 0.234l0.699 1.21c0.114 0.196 0.0806 0.445-0.0801 0.605l-0.65 0.648a4 4 0 0 1 0.0508 0.641 4 4 0 0 1-0.0508 0.641l0.65 0.648c0.161 0.16 0.194 0.409 0.0801 0.605l-0.699 1.21c-0.113 0.197-0.345 0.293-0.564 0.234l-0.889-0.24a4 4 0 0 1-1.11 0.641l-0.236 0.889c-0.0585 0.219-0.257 0.372-0.484 0.371h-1.4c-0.227 5.6e-4 -0.426-0.152-0.484-0.371l-0.236-0.889a4 4 0 0 1-1.11-0.641l-0.889 0.24c-0.219 0.059-0.451-0.0375-0.564-0.234l-0.699-1.21c-0.114-0.196-0.0806-0.445 0.0801-0.605l0.65-0.648a4 4 0 0 1-0.0508-0.641 4 4 0 0 1 0.0508-0.641l-0.65-0.648c-0.161-0.16-0.194-0.409-0.0801-0.605l0.699-1.21c0.113-0.197 0.345-0.293 0.564-0.234l0.889 0.24a4 4 0 0 1 1.11-0.641l0.236-0.889c0.0585-0.219 0.257-0.372 0.484-0.371zm0.699 3a2 2 0 0 0-2 2 2 2 0 0 0 2 2 2 2 0 0 0 2-2 2 2 0 0 0-2-2z" style="fill:#d2d2f9"/>
 <path d="m35.5 18.1c-0.333-0.172-0.734-0.143-1.04 0.0742l-7 5c-0.56 0.399-0.56 1.23 0 1.63l7 5c0.662 0.474 1.58-1.43e-4 1.58-0.814v-10c-3.15e-4 -0.375-0.21-0.717-0.543-0.889z" style="fill:#9695ea"/>
</svg>
