<svg version="1.1" viewBox="0 0 48 48" xmlns="http://www.w3.org/2000/svg">
 <defs>
  <linearGradient id="bg" x1=".28222" x2="13.264" y1="-9.8999e-8" y2="-9.8999e-8" gradientTransform="matrix(0 -3.5433 3.5433 0 3.5078e-7 48)" gradientUnits="userSpaceOnUse">
   <stop style="stop-color:#fb8e45" offset="0"/>
   <stop style="stop-color:#20b8e5" offset="1"/>
  </linearGradient>
 </defs>
 <path d="m36.31 5c5.859 4.062 9.688 10.831 9.688 18.5 0 12.426-10.07 22.5-22.5 22.5-7.669 0-14.438-3.828-18.5-9.688 1.037 1.822 2.306 3.499 3.781 4.969 4.085 3.712 9.514 5.969 15.469 5.969 12.703 0 23-10.298 23-23 0-5.954-2.256-11.384-5.969-15.469-1.469-1.475-3.147-2.744-4.969-3.781zm4.969 3.781c3.854 4.113 6.219 9.637 6.219 15.719 0 12.703-10.297 23-23 23-6.081 0-11.606-2.364-15.719-6.219 4.16 4.144 9.883 6.719 16.219 6.719 12.703 0 23-10.298 23-23 0-6.335-2.575-12.06-6.719-16.219z" style="opacity:.05"/>
 <path d="m41.28 8.781c3.712 4.085 5.969 9.514 5.969 15.469 0 12.703-10.297 23-23 23-5.954 0-11.384-2.256-15.469-5.969 4.113 3.854 9.637 6.219 15.719 6.219 12.703 0 23-10.298 23-23 0-6.081-2.364-11.606-6.219-15.719z" style="opacity:.1"/>
 <path d="m31.25 2.375c8.615 3.154 14.75 11.417 14.75 21.13 0 12.426-10.07 22.5-22.5 22.5-9.708 0-17.971-6.135-21.12-14.75a23 23 0 0 0 44.875-7 23 23 0 0 0-16-21.875z" style="opacity:.2"/>
 <path d="m24 1c-12.703 0-23 10.297-23 23s10.297 23 23 23 23-10.297 23-23-10.297-23-23-23z" style="fill:url(#bg)"/>
 <path d="m23.248 27.629c-2.191-2.746-2.859-5.352-1.992-8.172 0.242-0.781 0.473-1.699 0.516-2.043 0.074-0.609 0.066-0.645-0.301-1.012-0.207-0.211-0.645-0.539-0.969-0.73l-0.594-0.344-1.113 0.137c-2.926 0.352-4.668 1.285-6.352 3.391-0.441 0.551-0.57 0.492-0.309-0.133 1.52-2.477 4.512-3.598 6.648-3.887 1.285-0.25 1.578-0.344 1.715-0.563 0.383-0.594 1.012-1.16 1.371-1.234 0.547-0.113 1.52 0.141 1.859 0.48 0.469 0.465 0.57 1 0.496 2.613-0.035 0.789-0.137 1.688-0.23 1.996-0.172 0.641-0.199 1.246-0.23 1.906 4.625 1.672 9.137 4.254 12.227 7.453-0.672-0.402-1.73-0.875-2.262-1.031 2.426 1.309 1.934 3.363-0.195 1.563 0.078-0.027 0.316 0.035 0.531 0.145 0.215 0.105 0.441 0.18 0.508 0.156-1.703-2.039-5.359-0.805-6.52 0.215-0.813 2.719-0.277 6.098-0.926 8.367-0.203 0.148-0.43 0.086-0.523 0.027 0.375-2.68 0.387-5.586 0.313-7.961l-0.746-0.055c-0.41-0.031-0.824-0.078-0.914-0.102 0.277 2.492 0.457 5.328 0.457 8.04-0.133 0.18-0.324 0.191-0.543 8e-3 -0.176-3.688 0.34-6.211-1.926-9.215" style="opacity:.1"/>
 <path d="m22.248 26.629c-2.191-2.746-2.859-5.352-1.992-8.172 0.242-0.781 0.473-1.699 0.516-2.043 0.074-0.609 0.066-0.645-0.301-1.012-0.207-0.211-0.645-0.539-0.969-0.73l-0.594-0.344-1.113 0.137c-2.926 0.352-4.668 1.285-6.352 3.391-0.441 0.551-0.57 0.492-0.309-0.133 1.52-2.477 4.512-3.598 6.648-3.887 1.285-0.25 1.578-0.344 1.715-0.563 0.383-0.594 1.012-1.16 1.371-1.234 0.547-0.113 1.52 0.141 1.859 0.48 0.469 0.465 0.57 1 0.496 2.613-0.035 0.789-0.137 1.688-0.23 1.996-0.172 0.641-0.199 1.246-0.23 1.906 4.625 1.672 9.137 4.254 12.227 7.453-0.672-0.402-1.73-0.875-2.262-1.031 2.426 1.309 1.934 3.363-0.195 1.563 0.078-0.027 0.316 0.035 0.531 0.145 0.215 0.105 0.441 0.18 0.508 0.156-1.703-2.039-5.359-0.805-6.52 0.215-0.813 2.719-0.277 6.098-0.926 8.367-0.203 0.148-0.43 0.086-0.523 0.027 0.375-2.68 0.387-5.586 0.313-7.961l-0.746-0.055c-0.41-0.031-0.824-0.078-0.914-0.102 0.277 2.492 0.457 5.328 0.457 8.04-0.133 0.18-0.324 0.191-0.543 8e-3 -0.176-3.688 0.34-6.211-1.926-9.215" style="fill:#1d3653"/>
 <path d="m40.03 7.531c3.712 4.084 5.969 9.514 5.969 15.469 0 12.703-10.297 23-23 23-5.954 0-11.384-2.256-15.469-5.969 4.178 4.291 10.01 6.969 16.469 6.969 12.703 0 23-10.298 23-23 0-6.462-2.677-12.291-6.969-16.469z" style="opacity:.1"/>
</svg>
