<svg version="1.1" viewBox="0 0 48 48" xmlns="http://www.w3.org/2000/svg">
 <defs>
  <linearGradient id="bg" x1=".282" x2="13.3" y1="-9.92e-8" y2="-9.92e-8" gradientTransform="matrix(0 -3.54 3.54 0 3.51e-7 48)" gradientUnits="userSpaceOnUse">
   <stop style="stop-color:#8aa498" offset="0"/>
   <stop style="stop-color:#95aca2" offset="1"/>
  </linearGradient>
 </defs>
 <path d="m36.3 5c5.86 4.06 9.69 10.8 9.69 18.5 0 12.4-10.1 22.5-22.5 22.5-7.67 0-14.4-3.83-18.5-9.69 1.04 1.82 2.31 3.5 3.78 4.97 4.08 3.71 9.51 5.97 15.5 5.97 12.7 0 23-10.3 23-23 0-5.95-2.26-11.4-5.97-15.5-1.47-1.48-3.15-2.74-4.97-3.78zm4.97 3.78c3.85 4.11 6.22 9.64 6.22 15.7 0 12.7-10.3 23-23 23-6.08 0-11.6-2.36-15.7-6.22 4.16 4.14 9.88 6.72 16.2 6.72 12.7 0 23-10.3 23-23 0-6.34-2.58-12.1-6.72-16.2z" style="opacity:.05"/>
 <path d="m41.3 8.78c3.71 4.08 5.97 9.51 5.97 15.5 0 12.7-10.3 23-23 23-5.95 0-11.4-2.26-15.5-5.97 4.11 3.85 9.64 6.22 15.7 6.22 12.7 0 23-10.3 23-23 0-6.08-2.36-11.6-6.22-15.7z" style="opacity:.1"/>
 <path d="m31.2 2.38c8.62 3.15 14.8 11.4 14.8 21.1 0 12.4-10.1 22.5-22.5 22.5-9.71 0-18-6.14-21.1-14.8a23 23 0 0 0 44.9-7 23 23 0 0 0-16-21.9z" style="opacity:.2"/>
 <path d="m24 1c-12.7 0-23 10.3-23 23s10.3 23 23 23 23-10.3 23-23-10.3-23-23-23z" style="fill:url(#bg)"/>
 <path d="m23.2 27.6c-2.19-2.75-2.86-5.35-1.99-8.17 0.242-0.781 0.473-1.7 0.516-2.04 0.074-0.609 0.066-0.645-0.301-1.01-0.207-0.211-0.645-0.539-0.969-0.73l-0.594-0.344-1.11 0.137c-2.93 0.352-4.67 1.28-6.35 3.39-0.441 0.551-0.57 0.492-0.309-0.133 1.52-2.48 4.51-3.6 6.65-3.89 1.28-0.25 1.58-0.344 1.72-0.563 0.383-0.594 1.01-1.16 1.37-1.23 0.547-0.113 1.52 0.141 1.86 0.48 0.469 0.465 0.57 1 0.496 2.61-0.035 0.789-0.137 1.69-0.23 2-0.172 0.641-0.199 1.25-0.23 1.91 4.62 1.67 9.14 4.25 12.2 7.45-0.672-0.402-1.73-0.875-2.26-1.03 2.43 1.31 1.93 3.36-0.195 1.56 0.078-0.027 0.316 0.035 0.531 0.145 0.215 0.105 0.441 0.18 0.508 0.156-1.7-2.04-5.36-0.805-6.52 0.215-0.813 2.72-0.277 6.1-0.926 8.37-0.203 0.148-0.43 0.086-0.523 0.027 0.375-2.68 0.387-5.59 0.313-7.96l-0.746-0.055c-0.41-0.031-0.824-0.078-0.914-0.102 0.277 2.49 0.457 5.33 0.457 8.04-0.133 0.18-0.324 0.191-0.543 8e-3 -0.176-3.69 0.34-6.21-1.93-9.22" style="opacity:.1"/>
 <path d="m22.2 26.6c-2.19-2.75-2.86-5.35-1.99-8.17 0.242-0.781 0.473-1.7 0.516-2.04 0.074-0.609 0.066-0.645-0.301-1.01-0.207-0.211-0.645-0.539-0.969-0.73l-0.594-0.344-1.11 0.137c-2.93 0.352-4.67 1.28-6.35 3.39-0.441 0.551-0.57 0.492-0.309-0.133 1.52-2.48 4.51-3.6 6.65-3.89 1.28-0.25 1.58-0.344 1.72-0.563 0.383-0.594 1.01-1.16 1.37-1.23 0.547-0.113 1.52 0.141 1.86 0.48 0.469 0.465 0.57 1 0.496 2.61-0.035 0.789-0.137 1.69-0.23 2-0.172 0.641-0.199 1.25-0.23 1.91 4.62 1.67 9.14 4.25 12.2 7.45-0.672-0.402-1.73-0.875-2.26-1.03 2.43 1.31 1.93 3.36-0.195 1.56 0.078-0.027 0.316 0.035 0.531 0.145 0.215 0.105 0.441 0.18 0.508 0.156-1.7-2.04-5.36-0.805-6.52 0.215-0.813 2.72-0.277 6.1-0.926 8.37-0.203 0.148-0.43 0.086-0.523 0.027 0.375-2.68 0.387-5.59 0.313-7.96l-0.746-0.055c-0.41-0.031-0.824-0.078-0.914-0.102 0.277 2.49 0.457 5.33 0.457 8.04-0.133 0.18-0.324 0.191-0.543 8e-3 -0.176-3.69 0.34-6.21-1.93-9.22" style="fill:#30455d"/>
 <path d="m40 7.53c3.71 4.08 5.97 9.51 5.97 15.5 0 12.7-10.3 23-23 23-5.95 0-11.4-2.26-15.5-5.97 4.18 4.29 10 6.97 16.5 6.97 12.7 0 23-10.3 23-23 0-6.46-2.68-12.3-6.97-16.5z" style="opacity:.1"/>
</svg>
