<?xml version="1.0" encoding="UTF-8" standalone="no"?>
<svg id="svg2" xmlns:rdf="http://www.w3.org/1999/02/22-rdf-syntax-ns#" xmlns:xlink="http://www.w3.org/1999/xlink" xmlns:dc="http://purl.org/dc/elements/1.1/" viewBox="0 0 48 48" xmlns:cc="http://creativecommons.org/ns#" version="1.1" xmlns="http://www.w3.org/2000/svg" width="100%" height="100%">
 <metadata id="metadata67">
  <rdf:RDF>
   <cc:Work rdf:about="">
    <dc:format>image/svg+xml</dc:format>
    <dc:type rdf:resource="http://purl.org/dc/dcmitype/StillImage"/>
    <dc:title/>
   </cc:Work>
  </rdf:RDF>
 </metadata>
 <defs id="defs4">
  <linearGradient id="linearGradient3009" x1="1" y1="47" y2="1" gradientUnits="userSpaceOnUse">
   <stop id="stop3781" style="stop-color:#ffeb97" offset="0"/>
   <stop id="stop3783" style="stop-color:#ffeeab" offset="1"/>
  </linearGradient>
 </defs>
 <g id="g21">
  <path id="path23" d="m36.31 5c5.859 4.062 9.688 10.831 9.688 18.5 0 12.426-10.07 22.5-22.5 22.5-7.669 0-14.438-3.828-18.5-9.688 1.037 1.822 2.306 3.499 3.781 4.969 4.085 3.712 9.514 5.969 15.469 5.969 12.703 0 23-10.298 23-23 0-5.954-2.256-11.384-5.969-15.469-1.469-1.475-3.147-2.744-4.969-3.781zm4.969 3.781c3.854 4.113 6.219 9.637 6.219 15.719 0 12.703-10.297 23-23 23-6.081 0-11.606-2.364-15.719-6.219 4.16 4.144 9.883 6.719 16.219 6.719 12.703 0 23-10.298 23-23 0-6.335-2.575-12.06-6.719-16.219z" style="opacity:.05"/>
  <path id="path25" d="m41.28 8.781c3.712 4.085 5.969 9.514 5.969 15.469 0 12.703-10.297 23-23 23-5.954 0-11.384-2.256-15.469-5.969 4.113 3.854 9.637 6.219 15.719 6.219 12.703 0 23-10.298 23-23 0-6.081-2.364-11.606-6.219-15.719z" style="opacity:.1"/>
  <path id="path27" d="m31.25 2.375c8.615 3.154 14.75 11.417 14.75 21.13 0 12.426-10.07 22.5-22.5 22.5-9.708 0-17.971-6.135-21.12-14.75a23 23 0 0 0 44.875 -7 23 23 0 0 0 -16 -21.875z" style="opacity:.2"/>
 </g>
 <path id="path31" d="m24 1c12.703 0 23 10.297 23 23s-10.297 23-23 23-23-10.297-23-23 10.297-23 23-23z" style="fill:url(#linearGradient3009)"/>
 <g id="g61">
  <path id="path63" d="m40.03 7.531c3.712 4.084 5.969 9.514 5.969 15.469 0 12.703-10.297 23-23 23-5.954 0-11.384-2.256-15.469-5.969 4.178 4.291 10.01 6.969 16.469 6.969 12.703 0 23-10.298 23-23 0-6.462-2.677-12.291-6.969-16.469z" style="opacity:.1"/>
 </g>
 <g id="g4178" transform="translate(.99960 1)" style="opacity:.1;fill:#1a1a1a">
  <g id="g4180" transform="matrix(.87536 0 0 .87536 1.2084 3.9885)" style="fill:#1a1a1a">
   <g id="g4182" transform="translate(2.0706 -1.1424)" style="fill:#1a1a1a">
    <path id="path4184" style="fill:#1a1a1a;fill-rule:evenodd" d="m12.923 17.18c-2.3775-0.02234-2.4703 2.4372-2.1394 3.45l2.4062 7.3636c0.42605 1.3038 1.1029 3.007 3.7969 3.0165h13.969c2.8407 0 3.3708-1.7127 3.7969-3.0165l2.4062-7.3636c0.348-1.065-0.367-3.425-2.796-3.248l-10.695-0.101z"/>
    <path id="path4186" d="m13.377 16.006c-1.3981 0-2.4839 0.46735-3.0996 1.2453-0.6157 0.77797-0.67229 1.7385-0.44531 2.5409l2.4062 8.5062c0.19412 0.68622 0.53444 1.5874 1.2715 2.3649 0.73705 0.77757 1.9151 1.3307 3.4746 1.3362h13.971c1.6233 0 2.8184-0.54985 3.5449-1.3439 0.72654-0.79409 1.0183-1.7037 1.2031-2.3572l2.4062-8.5062c0.22609-0.79925 0.20507-1.7757-0.41602-2.5603-0.62108-0.78452-1.667-1.226-3.1289-1.226h-10.594zm0 2.2848h10.594 10.594c1.207 0 1.8549-0.07637 1.6426 0.89041l-2.4062 8.5062c-0.18851 0.66639-0.428 1.2496-0.7832 1.6379-0.3552 0.38823-0.84542 0.36302-2.0625 0.38957h-13.965-0.0039c-1.1309-0.0049-1.6387-0.0033-2.0195-0.40504-0.38139-0.40236-0.64693-0.98876-0.82617-1.6224l-2.4062-8.5062c-0.25008-1.0277 0.90344-0.88862 1.6426-0.89041z" style="isolation:auto;text-decoration-color:#000000;text-decoration-line:none;block-progression:tb;opacity:1;color:#000000;text-decoration-style:solid;fill:#1a1a1a;text-indent:0;white-space:normal;shape-rendering:auto;image-rendering:auto;text-transform:none;color-rendering:auto;solid-color:#000000;mix-blend-mode:normal;fill-rule:evenodd"/>
    <g id="g4189" transform="translate(76.932 -24.288)" style="fill:#1a1a1a">
     <circle id="circle4191" cy="46.006" style="fill:#1a1a1a;opacity:1" r="1.1424" cx="-62.105"/>
     <circle id="circle4193" cy="46.006" style="fill:#1a1a1a;opacity:1" r="1.1424" cx="-57.535"/>
     <circle id="circle4195" cy="46.006" style="fill:#1a1a1a;opacity:1" r="1.1424" cx="-52.965"/>
     <circle id="circle4197" cy="46.006" style="fill:#1a1a1a;opacity:1" r="1.1424" cx="-48.396"/>
     <circle id="circle4199" cy="46.006" style="fill:#1a1a1a;opacity:1" r="1.1424" cx="-43.739"/>
     <circle id="circle4201" cy="50.576" style="fill:#1a1a1a;opacity:1" r="1.1424" cx="-59.82"/>
     <circle id="circle4203" cy="50.576" style="fill:#1a1a1a;opacity:1" r="1.1424" cx="-55.25"/>
     <circle id="circle4205" cy="50.576" style="fill:#1a1a1a;opacity:1" r="1.1424" cx="-50.681"/>
     <circle id="circle4207" cy="50.576" style="fill:#1a1a1a;opacity:1" r="1.1424" cx="-46.111"/>
    </g>
   </g>
  </g>
 </g>
 <g id="g4341">
  <g id="g4174" transform="matrix(.87536 0 0 .87536 1.2084 3.9885)">
   <g id="g4188" transform="translate(2.0706 -1.1424)">
    <path id="path4337" d="m12.923 17.18c-2.3775-0.02234-2.4703 2.4372-2.1394 3.45l2.4062 7.3636c0.42605 1.3038 1.1029 3.007 3.7969 3.0165h13.969c2.8407 0 3.3708-1.7127 3.7969-3.0165l2.4062-7.3636c0.348-1.065-0.367-3.425-2.796-3.248l-10.695-0.101z" style="fill:#999;fill-rule:evenodd"/>
    <path id="path4170" style="isolation:auto;text-decoration-color:#000000;text-decoration-line:none;block-progression:tb;color:#000000;text-decoration-style:solid;fill:#808080;text-indent:0;white-space:normal;shape-rendering:auto;image-rendering:auto;text-transform:none;color-rendering:auto;solid-color:#000000;mix-blend-mode:normal;fill-rule:evenodd" d="m13.377 16.006c-1.3981 0-2.4839 0.46735-3.0996 1.2453-0.6157 0.77797-0.67229 1.7385-0.44531 2.5409l2.4062 8.5062c0.19412 0.68622 0.53444 1.5874 1.2715 2.3649 0.73705 0.77757 1.9151 1.3307 3.4746 1.3362h13.971c1.6233 0 2.8184-0.54985 3.5449-1.3439 0.72654-0.79409 1.0183-1.7037 1.2031-2.3572l2.4062-8.5062c0.22609-0.79925 0.20507-1.7757-0.41602-2.5603-0.62108-0.78452-1.667-1.226-3.1289-1.226h-10.594zm0 2.2848h10.594 10.594c1.207 0 1.8549-0.07637 1.6426 0.89041l-2.4062 8.5062c-0.18851 0.66639-0.428 1.2496-0.7832 1.6379-0.3552 0.38823-0.84542 0.36302-2.0625 0.38957h-13.965-0.0039c-1.1309-0.0049-1.6387-0.0033-2.0195-0.40504-0.38139-0.40236-0.64693-0.98876-0.82617-1.6224l-2.4062-8.5062c-0.25008-1.0277 0.90344-0.88862 1.6426-0.89041z"/>
    <g id="g4269" transform="translate(76.932 -24.288)" style="fill:#333">
     <circle id="circle4271" cy="46.006" style="fill:#333" r="1.1424" cx="-62.105"/>
     <circle id="circle4273" cy="46.006" style="fill:#333" r="1.1424" cx="-57.535"/>
     <circle id="circle4275" cy="46.006" style="fill:#333" r="1.1424" cx="-52.965"/>
     <circle id="circle4277" cy="46.006" style="fill:#333" r="1.1424" cx="-48.396"/>
     <circle id="circle4279" cy="46.006" style="fill:#333" r="1.1424" cx="-43.739"/>
     <circle id="circle4281" cy="50.576" style="fill:#333" r="1.1424" cx="-59.82"/>
     <circle id="circle4283" cy="50.576" style="fill:#333" r="1.1424" cx="-55.25"/>
     <circle id="circle4285" cy="50.576" style="fill:#333" r="1.1424" cx="-50.681"/>
     <circle id="circle4287" cy="50.576" style="fill:#333" r="1.1424" cx="-46.111"/>
    </g>
   </g>
  </g>
 </g>
</svg>
