<svg xmlns="http://www.w3.org/2000/svg" viewBox="0 0 48 48">
 <defs>
  <linearGradient id="linearGradient3764" x1="1" x2="47" gradientUnits="userSpaceOnUse" gradientTransform="matrix(0,-1,1,0,-1.5e-6,47.999998)">
   <stop style="stop-color:#005088;stop-opacity:1"/>
   <stop offset="1" style="stop-color:#005e9d;stop-opacity:1"/>
  </linearGradient>
 </defs>
 <g>
  <path d="m 36.31 5 c 5.859 4.062 9.688 10.831 9.688 18.5 c 0 12.426 -10.07 22.5 -22.5 22.5 c -7.669 0 -14.438 -3.828 -18.5 -9.688 c 1.037 1.822 2.306 3.499 3.781 4.969 c 4.085 3.712 9.514 5.969 15.469 5.969 c 12.703 0 23 -10.298 23 -23 c 0 -5.954 -2.256 -11.384 -5.969 -15.469 c -1.469 -1.475 -3.147 -2.744 -4.969 -3.781 z m 4.969 3.781 c 3.854 4.113 6.219 9.637 6.219 15.719 c 0 12.703 -10.297 23 -23 23 c -6.081 0 -11.606 -2.364 -15.719 -6.219 c 4.16 4.144 9.883 6.719 16.219 6.719 c 12.703 0 23 -10.298 23 -23 c 0 -6.335 -2.575 -12.06 -6.719 -16.219 z" style="opacity:0.05"/>
  <path d="m 41.28 8.781 c 3.712 4.085 5.969 9.514 5.969 15.469 c 0 12.703 -10.297 23 -23 23 c -5.954 0 -11.384 -2.256 -15.469 -5.969 c 4.113 3.854 9.637 6.219 15.719 6.219 c 12.703 0 23 -10.298 23 -23 c 0 -6.081 -2.364 -11.606 -6.219 -15.719 z" style="opacity:0.1"/>
  <path d="m 31.25 2.375 c 8.615 3.154 14.75 11.417 14.75 21.13 c 0 12.426 -10.07 22.5 -22.5 22.5 c -9.708 0 -17.971 -6.135 -21.12 -14.75 a 23 23 0 0 0 44.875 -7 a 23 23 0 0 0 -16 -21.875 z" style="opacity:0.2"/>
 </g>
 <g>
  <path d="m 24 1 c 12.703 0 23 10.297 23 23 c 0 12.703 -10.297 23 -23 23 -12.703 0 -23 -10.297 -23 -23 0 -12.703 10.297 -23 23 -23 z" style="fill:url(#linearGradient3764);fill-opacity:1"/>
 </g>
 <g>
  <g>
   <g transform="translate(1,1)">
    <g style="opacity:0.1">
     <!-- color: #005e9d -->
     <g>
      <path d="m 26.438 8.508 c 0.643 1.209 1.206 2.371 1.703 3.496 l -7.141 0 0 1.996 l -4 0 0 1.736 c -5.384 2.455 -5.366 8.02 -0.02 16.68 0.002 0.528 -0.003 1.118 -0.006 1.584 -1.692 0.251 -3.532 0.418 -5.537 0.488 1.997 0.332 3.864 0.588 5.627 0.785 c 0.164 0.583 0.623 0.727 1.916 0.727 l 0.377 0 c 1.229 1.733 2.608 3.561 4.207 5.502 c -1.035 -1.943 -1.882 -3.774 -2.545 -5.502 l 9.941 0 c 1.826 0 2.01 -0.311 2.01 -1.74 c 5.536 -2.504 5.441 -8.257 -0.277 -17.26 l 0.309 0 0 -1.01 c 1.698 -0.254 3.546 -0.422 5.561 -0.492 -1.98 -0.329 -3.808 -0.569 -5.561 -0.766 l 0 -0.734 -2.33 0 c -1.235 -1.729 -2.64 -3.556 -4.232 -5.492 m 2.037 8.492 l 1.475 0 c 0.091 0.339 0.168 0.671 0.242 1 l -4.33 0 c 0.795 -0.377 1.673 -0.707 2.613 -1 z" transform="translate(-1,-1)"/>
     </g>
    </g>
   </g>
  </g>
 </g>
 <g>
  <g>
   <!-- color: #005e9d -->
   <g>
    <path d="m 25.438 7.508 c 18.09 21.992 13.09 30.652 -15 25.98 18.859 -0.66 23.859 -9.32 15 -25.98 m 0 0" style="fill:#ffb911;fill-opacity:1;stroke:none;fill-rule:nonzero"/>
    <path d="M 24.19,13.281 C 10.835,13.508 8.424,20.027 16.874,32.844 17.675,32.703 18.437,32.559 19.155,32.375 15.928,21.016 22.061,15.043 37.561,14.5 32.295,13.625 27.831,13.219 24.186,13.281 m -6.215,21.19 c 1.313,1.883 2.836,3.895 4.594,6.03 -1.109,-2.082 -2.01,-4.04 -2.691,-5.875 -0.613,-0.035 -1.254,-0.098 -1.902,-0.156 m 0,0.004" style="fill:#0ad;fill-opacity:0.941;stroke:none;fill-rule:nonzero"/>
    <path d="m 31.961 17 0 15 c 0 2.602 0.285 3 -2 3 l -11.98 0 c -2.285 0 -2 -0.398 -2 -3 l 0 -15 c 4.563 0 12.555 0 15.977 0 m 0.004 0" style="fill:#f9f9f9;fill-opacity:1;stroke:none;fill-rule:nonzero"/>
    <path d="m 17.996 20 0 12 2 0 0 -12 m -2 0" style="fill:#ccc;fill-opacity:1;stroke:none;fill-rule:nonzero"/>
    <path d="m 22.988 20 0 12 2.01 0 0 -12 m -2.01 0" style="fill:#ccc;fill-opacity:1;stroke:none;fill-rule:nonzero"/>
    <path d="m 27.984 20 0 12 1.996 0 0 -12 m -1.996 0" style="fill:#ccc;fill-opacity:1;stroke:none;fill-rule:nonzero"/>
    <path d="m 16 16 16 0 0 -3 -4 0 0 -1.996 -8 0 0 1.996 -4 0 m 0 3" style="fill:#f9f9f9;fill-opacity:1;stroke:none;fill-rule:nonzero"/>
   </g>
  </g>
 </g>
 <g>
  <path d="m 40.03 7.531 c 3.712 4.084 5.969 9.514 5.969 15.469 0 12.703 -10.297 23 -23 23 c -5.954 0 -11.384 -2.256 -15.469 -5.969 4.178 4.291 10.01 6.969 16.469 6.969 c 12.703 0 23 -10.298 23 -23 0 -6.462 -2.677 -12.291 -6.969 -16.469 z" style="opacity:0.1"/>
 </g>
</svg>
