<svg version="1.1" viewBox="0 0 48 48" xmlns="http://www.w3.org/2000/svg">
 <defs>
  <linearGradient id="bg" x1="1" x2="47" gradientTransform="rotate(-90 24 24)" gradientUnits="userSpaceOnUse">
   <stop style="stop-color:#005088" offset="0"/>
   <stop style="stop-color:#005e9d" offset="1"/>
  </linearGradient>
 </defs>
 <path d="m36.3 5c5.86 4.06 9.69 10.8 9.69 18.5 0 12.4-10.1 22.5-22.5 22.5-7.67 0-14.4-3.83-18.5-9.69 1.04 1.82 2.31 3.5 3.78 4.97 4.08 3.71 9.51 5.97 15.5 5.97 12.7 0 23-10.3 23-23 0-5.95-2.26-11.4-5.97-15.5-1.47-1.48-3.15-2.74-4.97-3.78zm4.97 3.78c3.85 4.11 6.22 9.64 6.22 15.7 0 12.7-10.3 23-23 23-6.08 0-11.6-2.36-15.7-6.22 4.16 4.14 9.88 6.72 16.2 6.72 12.7 0 23-10.3 23-23 0-6.34-2.58-12.1-6.72-16.2z" style="opacity:.05"/>
 <path d="m41.3 8.78c3.71 4.08 5.97 9.51 5.97 15.5 0 12.7-10.3 23-23 23-5.95 0-11.4-2.26-15.5-5.97 4.11 3.85 9.64 6.22 15.7 6.22 12.7 0 23-10.3 23-23 0-6.08-2.36-11.6-6.22-15.7z" style="opacity:.1"/>
 <path d="m31.2 2.38c8.62 3.15 14.8 11.4 14.8 21.1 0 12.4-10.1 22.5-22.5 22.5-9.71 0-18-6.14-21.1-14.8a23 23 0 0 0 44.9-7 23 23 0 0 0-16-21.9z" style="opacity:.2"/>
 <path d="m24 1c12.7 0 23 10.3 23 23s-10.3 23-23 23-23-10.3-23-23 10.3-23 23-23z" style="fill:url(#bg)"/>
 <rect x="13" y="13" width="24" height="24" rx="4" ry="4" style="opacity:.1"/>
 <rect x="12" y="12" width="24" height="24" rx="4" ry="4" style="fill:#474747"/>
 <path d="m17 29c-0.551 0-1 0.449-1 1v3c0 0.551 0.449 1 1 1h14c0.551 0 1-0.449 1-1v-3c0-0.551-0.449-1-1-1z" style="fill:#f9f9f9"/>
 <path d="m18.5 30c-0.828 0-1.5 0.672-1.5 1.5s0.672 1.5 1.5 1.5 1.5-0.672 1.5-1.5-0.672-1.5-1.5-1.5zm4 0c-0.828 0-1.5 0.672-1.5 1.5s0.672 1.5 1.5 1.5 1.5-0.672 1.5-1.5-0.672-1.5-1.5-1.5zm4 0c-0.828 0-1.5 0.672-1.5 1.5s0.672 1.5 1.5 1.5 1.5-0.672 1.5-1.5-0.672-1.5-1.5-1.5z" style="fill:#474747"/>
 <path d="m40 7.53c3.71 4.08 5.97 9.51 5.97 15.5 0 12.7-10.3 23-23 23-5.95 0-11.4-2.26-15.5-5.97 4.18 4.29 10 6.97 16.5 6.97 12.7 0 23-10.3 23-23 0-6.46-2.68-12.3-6.97-16.5z" style="opacity:.1"/>
 <path d="m25.8 14.2c0.474 0.89 0.853 1.73 1.14 2.51-0.59-0.0352-1.16-0.0575-1.67-0.0488-4.11 0.0694-5.8 1.54-5.07 4.41h2e-3c0.282 1.1 0.965 2.43 1.96 3.95-0.829 0.145-1.75 0.236-2.77 0.271 1.18 0.196 2.23 0.322 3.22 0.408 0.567 0.811 1.2 1.66 1.95 2.58-0.473-0.89-0.841-1.72-1.13-2.5 7.13 0.425 8.73-2.35 4.8-8.31 0.824-0.143 1.72-0.242 2.74-0.277-1.17-0.195-2.24-0.332-3.23-0.418-0.566-0.807-1.2-1.65-1.95-2.57zm1.45 3.48c1.07 3.79-0.3 6.17-4.12 7.13-0.411-1.45-0.476-2.7-0.172-3.74 0.491-1.67 1.94-2.8 4.29-3.4z" style="opacity:.1"/>
 <path d="m19.2 20c0.469 1.83 1.92 4.23 4.37 7.2-1.6-3.02-2.14-5.42-1.62-7.2l-1.43-0.259z" style="fill:#0ad"/>
 <path d="m24.8 13.2c7.72 9.39 5.59 13.1-6.4 11.1 8.05-0.282 10.2-3.98 6.4-11.1" style="fill:#ffb911"/>
 <path d="m24.3 15.6c-4.11 0.0694-5.8 1.54-5.07 4.41h2.75c0.712-2.43 3.38-3.73 8.02-3.89-2.25-0.374-4.15-0.548-5.71-0.522z" style="fill:#0ad"/>
</svg>
