<svg version="1.1" viewBox="0 0 48 48" xmlns="http://www.w3.org/2000/svg">
 <defs>
  <linearGradient id="bg" x2="0" y1="47" y2="1" gradientUnits="userSpaceOnUse">
   <stop style="stop-color:#e8f24e" offset="0"/>
   <stop style="stop-color:#eaf361" offset="1"/>
  </linearGradient>
 </defs>
 <path d="m36.31 5c5.859 4.062 9.688 10.831 9.688 18.5 0 12.426-10.07 22.5-22.5 22.5-7.669 0-14.438-3.828-18.5-9.688 1.037 1.822 2.306 3.499 3.781 4.969 4.085 3.712 9.514 5.969 15.469 5.969 12.703 0 23-10.298 23-23 0-5.954-2.256-11.384-5.969-15.469-1.469-1.475-3.147-2.744-4.969-3.781zm4.969 3.781c3.854 4.113 6.219 9.637 6.219 15.719 0 12.703-10.297 23-23 23-6.081 0-11.606-2.364-15.719-6.219 4.16 4.144 9.883 6.719 16.219 6.719 12.703 0 23-10.298 23-23 0-6.335-2.575-12.06-6.719-16.219z" style="opacity:.05"/>
 <path d="m41.28 8.781c3.712 4.085 5.969 9.514 5.969 15.469 0 12.703-10.297 23-23 23-5.954 0-11.384-2.256-15.469-5.969 4.113 3.854 9.637 6.219 15.719 6.219 12.703 0 23-10.298 23-23 0-6.081-2.364-11.606-6.219-15.719z" style="opacity:.1"/>
 <path d="m31.25 2.375c8.615 3.154 14.75 11.417 14.75 21.13 0 12.426-10.07 22.5-22.5 22.5-9.708 0-17.971-6.135-21.12-14.75a23 23 0 0 0 44.875-7 23 23 0 0 0-16-21.875z" style="opacity:.2"/>
 <path d="m24 1c12.703 0 23 10.297 23 23s-10.297 23-23 23-23-10.297-23-23 10.297-23 23-23z" style="fill:url(#bg)"/>
 <path d="m40.03 7.531c3.712 4.084 5.969 9.514 5.969 15.469 0 12.703-10.297 23-23 23-5.954 0-11.384-2.256-15.469-5.969 4.178 4.291 10.01 6.969 16.469 6.969 12.703 0 23-10.298 23-23 0-6.462-2.677-12.291-6.969-16.469z" style="opacity:.1"/>
 <path d="m28 14 2 2c0 1.1046 0.89543 2 2 2s2-0.89543 2-2-0.89543-2-2-2zm-8 2c-0.554 0-1 0.446-1 1v1.6992c0 0.30322 0.15629 0.59756 0.42383 0.78711l4.9375 3.498-1.3262 4.957c-0.14318 0.53518 0.17191 1.0812 0.70703 1.2246 0.53512 0.14338 1.0814-0.17187 1.2246-0.70703l1.6289-6.0859c0.14018-0.52375-0.05846-0.9112-0.42383-1.1699l-3.1113-2.2031h3.9395v2c0 0.554 0.446 1 1 1h4c0.554 0 1-0.446 1-1s-0.446-1-1-1h-3v-3c0-0.554-0.446-1-1-1zm-3.5 7c-3.0376 0-5.5 2.4624-5.5 5.5s2.4624 5.5 5.5 5.5 5.5-2.4624 5.5-5.5-2.4624-5.5-5.5-5.5zm15 0c-3.0376 0-5.5 2.4624-5.5 5.5s2.4624 5.5 5.5 5.5 5.5-2.4624 5.5-5.5-2.4624-5.5-5.5-5.5zm-15 2c1.933 0 3.5 1.567 3.5 3.5s-1.567 3.5-3.5 3.5-3.5-1.567-3.5-3.5 1.567-3.5 3.5-3.5zm15 0c1.933 0 3.5 1.567 3.5 3.5s-1.567 3.5-3.5 3.5-3.5-1.567-3.5-3.5 1.567-3.5 3.5-3.5z" style="opacity:.1"/>
 <path d="m27 13 2 2a2 2 0 0 0 2 2 2 2 0 0 0 2-2 2 2 0 0 0-2-2zm-8 2c-0.554 0-1 0.446-1 1v1c0 0.554 0.446 1 1 1h7v2c0 0.554 0.446 1 1 1h4c0.554 0 1-0.446 1-1s-0.446-1-1-1h-3v-3c0-0.554-0.446-1-1-1z" style="fill:#333"/>
 <rect transform="matrix(.81609 .57793 -.57779 .81619 0 0)" x="24.718" y="1.9399" width="8.499" height="2.5" rx="1" style="fill:#333"/>
 <rect transform="rotate(15)" x="28.256" y="13.02" width="2" height="8.3" rx="1" style="fill:#333"/>
 <rect x="18" y="16.2" width="1" height="1.5" rx="0" style="fill:#333"/>
 <path d="m15.5 22a5.5 5.5 0 0 0-5.5 5.5 5.5 5.5 0 0 0 5.5 5.5 5.5 5.5 0 0 0 5.5-5.5 5.5 5.5 0 0 0-5.5-5.5zm15 0a5.5 5.5 0 0 0-5.5 5.5 5.5 5.5 0 0 0 5.5 5.5 5.5 5.5 0 0 0 5.5-5.5 5.5 5.5 0 0 0-5.5-5.5zm-15 2a3.5 3.5 0 0 1 3.5 3.5 3.5 3.5 0 0 1-3.5 3.5 3.5 3.5 0 0 1-3.5-3.5 3.5 3.5 0 0 1 3.5-3.5zm15 0a3.5 3.5 0 0 1 3.5 3.5 3.5 3.5 0 0 1-3.5 3.5 3.5 3.5 0 0 1-3.5-3.5 3.5 3.5 0 0 1 3.5-3.5z" style="fill:#333"/>
</svg>
