<svg version="1.1" viewBox="0 0 48 48" xmlns="http://www.w3.org/2000/svg">
 <defs>
  <linearGradient id="lG3764" x1="1" x2="47" gradientTransform="rotate(-90,24,24)" gradientUnits="userSpaceOnUse">
   <stop style="stop-color:#708290" offset="0"/>
   <stop style="stop-color:#7b8c99" offset="1"/>
  </linearGradient>
 </defs>
 <path d="m36.3 5c5.86 4.06 9.69 10.8 9.69 18.5 0 12.4-10.1 22.5-22.5 22.5-7.67 0-14.4-3.83-18.5-9.69 1.04 1.82 2.31 3.5 3.78 4.97 4.08 3.71 9.51 5.97 15.5 5.97 12.7 0 23-10.3 23-23 0-5.95-2.26-11.4-5.97-15.5-1.47-1.48-3.15-2.74-4.97-3.78zm4.97 3.78c3.85 4.11 6.22 9.64 6.22 15.7 0 12.7-10.3 23-23 23-6.08 0-11.6-2.36-15.7-6.22 4.16 4.14 9.88 6.72 16.2 6.72 12.7 0 23-10.3 23-23 0-6.34-2.58-12.1-6.72-16.2z" style="opacity:.05"/>
 <path d="m41.3 8.78c3.71 4.08 5.97 9.51 5.97 15.5 0 12.7-10.3 23-23 23-5.95 0-11.4-2.26-15.5-5.97 4.11 3.85 9.64 6.22 15.7 6.22 12.7 0 23-10.3 23-23 0-6.08-2.36-11.6-6.22-15.7z" style="opacity:.1"/>
 <path d="m31.2 2.38c8.62 3.15 14.8 11.4 14.8 21.1 0 12.4-10.1 22.5-22.5 22.5-9.71 0-18-6.14-21.1-14.8a23 23 0 0 0 44.9-7 23 23 0 0 0-16-21.9z" style="opacity:.2"/>
 <path d="m24 1c12.7 0 23 10.3 23 23s-10.3 23-23 23-23-10.3-23-23 10.3-23 23-23z" style="fill:url(#lG3764)"/>
 <path d="m31.3 13c-0.153 0.0021-0.306 0.012-0.457 0.0273-2.42 0.25-4.06 4.45-4.28 8.89-0.227 4.44-0.234 6.02-0.234 6.02l6.15 1.05s4.27-4.94 3.92-9.88c-0.326-4.63-2.8-6.14-5.1-6.11zm-16.9 6.52c-1.96 4.55 0.434 10.6 0.434 10.6l6.15 1.04s0.516-1.49 1.77-5.76c1.25-4.27 1.09-8.78-1.1-9.81zm11.9 9.54s-1.55 2.9-0.602 4.31c0.941 1.41 4.29 1.92 5.56 0.23 1.28-1.7 0.939-3.53 0.939-3.53l-2e-3 -0.0117zm-11.5 2.19s-0.931 1.62-0.283 3.64c0.644 2.02 3.96 2.65 5.32 1.63s0.855-4.27 0.855-4.27l-5.89-1z" style="opacity:.1"/>
 <path d="m30.3 12c-0.153 0.0021-0.306 0.012-0.457 0.0273-2.42 0.25-4.06 4.45-4.28 8.89-0.227 4.44-0.234 6.02-0.234 6.02l6.15 1.05s4.27-4.94 3.92-9.88c-0.326-4.63-2.8-6.14-5.1-6.11zm-11.9 2.15c-1.76 0.0863-3.64 1.25-4.99 4.37-1.96 4.55 0.434 10.6 0.434 10.6l6.15 1.04s0.516-1.49 1.77-5.76c1.25-4.27 1.09-8.78-1.1-9.81-0.689-0.322-1.47-0.506-2.27-0.467zm6.91 13.9s-1.55 2.9-0.602 4.31c0.941 1.41 4.29 1.92 5.56 0.23 1.28-1.7 0.939-3.53 0.939-3.53l-0.00195-0.0117-5.9-1zm-11.5 2.19s-0.931 1.62-0.283 3.64c0.644 2.02 3.96 2.65 5.32 1.63s0.855-4.27 0.855-4.27l-5.89-1h-0.00391z" style="fill:#f9f9f9"/>
 <path d="m40 7.53c3.71 4.08 5.97 9.51 5.97 15.5 0 12.7-10.3 23-23 23-5.95 0-11.4-2.26-15.5-5.97 4.18 4.29 10 6.97 16.5 6.97 12.7 0 23-10.3 23-23 0-6.46-2.68-12.3-6.97-16.5z" style="opacity:.1"/>
</svg>
