<svg version="1.1" viewBox="0 0 48 48" xmlns="http://www.w3.org/2000/svg">
 <defs>
  <linearGradient id="bg" x2="0" y1="1" y2="47" gradientUnits="userSpaceOnUse">
   <stop style="stop-color:#4b5158" offset="0"/>
   <stop style="stop-color:#43474c" offset="1"/>
  </linearGradient>
 </defs>
 <path d="m36.3 5c5.86 4.06 9.69 10.8 9.69 18.5 0 12.4-10.1 22.5-22.5 22.5-7.67 0-14.4-3.83-18.5-9.69 1.04 1.82 2.31 3.5 3.78 4.97 4.08 3.71 9.51 5.97 15.5 5.97 12.7 0 23-10.3 23-23 0-5.95-2.26-11.4-5.97-15.5-1.47-1.48-3.15-2.74-4.97-3.78zm4.97 3.78c3.85 4.11 6.22 9.64 6.22 15.7 0 12.7-10.3 23-23 23-6.08 0-11.6-2.36-15.7-6.22 4.16 4.14 9.88 6.72 16.2 6.72 12.7 0 23-10.3 23-23 0-6.34-2.58-12.1-6.72-16.2z" style="opacity:.05"/>
 <path d="m41.3 8.78c3.71 4.08 5.97 9.51 5.97 15.5 0 12.7-10.3 23-23 23-5.95 0-11.4-2.26-15.5-5.97 4.11 3.85 9.64 6.22 15.7 6.22 12.7 0 23-10.3 23-23 0-6.08-2.36-11.6-6.22-15.7z" style="opacity:.1"/>
 <path d="m31.2 2.38c8.62 3.15 14.8 11.4 14.8 21.1 0 12.4-10.1 22.5-22.5 22.5-9.71 0-18-6.14-21.1-14.8a23 23 0 0 0 44.9-7 23 23 0 0 0-16-21.9z" style="opacity:.2"/>
 <circle cx="24" cy="24" r="23" style="fill:url(#bg)"/>
 <path d="m40 7.53c3.71 4.08 5.97 9.51 5.97 15.5 0 12.7-10.3 23-23 23-5.95 0-11.4-2.26-15.5-5.97 4.18 4.29 10 6.97 16.5 6.97 12.7 0 23-10.3 23-23 0-6.46-2.68-12.3-6.97-16.5z" style="opacity:.1"/>
 <path d="m12 22c0 0.554 0.446 1 1 1h3v6h-2v8h22v-8h-2v-6h3c0.554 0 1-0.446 1-1s-0.446-1-1-1h-1l-5-9c-0.268-0.483-0.448-1-1-1z" style="opacity:.1"/>
 <path d="m13 28h22v1l-11 5.5-11-5.5z" style="fill:#725136"/>
 <path d="m15 21h18v3l-1 0.5 1 0.5v10h-18v-10l1-0.5-1-0.5z" style="fill:#e4bc71"/>
 <path d="m19 10c-0.552 0-0.732 0.517-1 1l-5 9 11 1 11-1-5-9c-0.268-0.483-0.448-1-1-1-0.276 0-0.526 0.112-0.707 0.293l-3.59 3.41c-0.181 0.181-0.431 0.293-0.707 0.293s-0.526-0.112-0.707-0.293l-3.59-3.41c-0.181-0.181-0.431-0.293-0.707-0.293z" style="fill:#a6744a"/>
 <rect x="11" y="20" width="26" height="2" ry="1" style="fill:#bb8e67"/>
 <path d="m15 22v1h18v-1zm0 3v1h3c0 1.66 1.34 3 3 3s3-1.34 3-3h2c0 1.66 1.34 3 3 3s3-1.34 3-3h1v-1z" style="opacity:.1"/>
 <path d="m15 24v1h2a3 3 0 0 0 3 3 3 3 0 0 0 3-3h2a3 3 0 0 0 3 3 3 3 0 0 0 3-3h2v-1z" style="fill:#464450"/>
 <path d="m35 29-10 3-1 2v1l1 1h10z" style="fill:#ac784e"/>
 <path d="m13 29 10 3 2 4h-12z" style="fill:#bb8d68"/>
</svg>
