<svg version="1.1" viewBox="0 0 48 48" xmlns="http://www.w3.org/2000/svg">
 <defs>
  <linearGradient id="bg" x2="0" y1="1" y2="47" gradientUnits="userSpaceOnUse">
   <stop style="stop-color:#f6ee6a" offset="0"/>
   <stop style="stop-color:#f5ec57" offset="1"/>
  </linearGradient>
 </defs>
 <path d="m36.31 5c5.859 4.062 9.688 10.831 9.688 18.5 0 12.426-10.07 22.5-22.5 22.5-7.669 0-14.438-3.828-18.5-9.688 1.037 1.822 2.306 3.499 3.781 4.969 4.085 3.712 9.514 5.969 15.469 5.969 12.703 0 23-10.298 23-23 0-5.954-2.256-11.384-5.969-15.469-1.469-1.475-3.147-2.744-4.969-3.781zm4.969 3.781c3.854 4.113 6.219 9.637 6.219 15.719 0 12.703-10.297 23-23 23-6.081 0-11.606-2.364-15.719-6.219 4.16 4.144 9.883 6.719 16.219 6.719 12.703 0 23-10.298 23-23 0-6.335-2.575-12.06-6.719-16.219z" style="opacity:.05"/>
 <path d="m41.28 8.781c3.712 4.085 5.969 9.514 5.969 15.469 0 12.703-10.297 23-23 23-5.954 0-11.384-2.256-15.469-5.969 4.113 3.854 9.637 6.219 15.719 6.219 12.703 0 23-10.298 23-23 0-6.081-2.364-11.606-6.219-15.719z" style="opacity:.1"/>
 <path d="m31.25 2.375c8.615 3.154 14.75 11.417 14.75 21.13 0 12.426-10.07 22.5-22.5 22.5-9.708 0-17.971-6.135-21.12-14.75a23 23 0 0 0 44.875-7 23 23 0 0 0-16-21.875z" style="opacity:.2"/>
 <circle cx="24" cy="24" r="23" style="fill:url(#bg)"/>
 <path d="m40.03 7.531c3.712 4.084 5.969 9.514 5.969 15.469 0 12.703-10.297 23-23 23-5.954 0-11.384-2.256-15.469-5.969 4.178 4.291 10.01 6.969 16.469 6.969 12.703 0 23-10.298 23-23 0-6.462-2.677-12.291-6.969-16.469z" style="opacity:.1"/>
 <path d="m21 16c-4.986 0-9 4.014-9 9s4.014 9 9 9h15c1.108 0 2-0.892 2-2v-14c0-1.108-0.892-2-2-2z" style="fill:#1a1a1a;opacity:.1;paint-order:normal"/>
 <path d="m20 15c-4.986 0-9 4.014-9 9s4.014 9 9 9h15c1.108 0 2-0.892 2-2v-14c0-1.108-0.892-2-2-2z" style="fill:#e3900b;paint-order:normal"/>
 <circle cx="21.5" cy="19.5" r=".5" style="fill:#b54e09;paint-order:normal"/>
 <circle cx="22.5" cy="21.5" r=".5" style="fill:#b54e09;paint-order:normal"/>
 <circle cx="20.5" cy="21.5" r=".5" style="fill:#b54e09;paint-order:normal"/>
 <circle cx="18.5" cy="21.5" r=".5" style="fill:#b54e09;paint-order:normal"/>
 <circle cx="16.5" cy="21.5" r=".5" style="fill:#b54e09;paint-order:normal"/>
 <circle cx="17.5" cy="19.5" r=".5" style="fill:#b54e09;paint-order:normal"/>
 <circle cx="19.5" cy="19.5" r=".5" style="fill:#b54e09;paint-order:normal"/>
 <circle cx="15.5" cy="23.5" r=".5" style="fill:#b54e09;paint-order:normal"/>
 <circle cx="17.5" cy="23.5" r=".5" style="fill:#b54e09;paint-order:normal"/>
 <circle cx="19.5" cy="23.5" r=".5" style="fill:#b54e09;paint-order:normal"/>
 <circle cx="21.5" cy="23.5" r=".5" style="fill:#b54e09;paint-order:normal"/>
 <circle cx="23.5" cy="23.5" r=".5" style="fill:#b54e09;paint-order:normal"/>
 <circle cx="22.5" cy="25.5" r=".5" style="fill:#b54e09;paint-order:normal"/>
 <circle cx="20.5" cy="25.5" r=".5" style="fill:#b54e09;paint-order:normal"/>
 <circle cx="18.5" cy="25.5" r=".5" style="fill:#b54e09;paint-order:normal"/>
 <circle cx="16.5" cy="25.5" r=".5" style="fill:#b54e09;paint-order:normal"/>
 <circle cx="21.5" cy="27.5" r=".5" style="fill:#b54e09;paint-order:normal"/>
 <circle cx="17.5" cy="27.5" r=".5" style="fill:#b54e09;paint-order:normal"/>
 <circle cx="19.5" cy="27.5" r=".5" style="fill:#b54e09;paint-order:normal"/>
 <circle cx="31.5" cy="21.5" r="2.5" style="opacity:.1;paint-order:normal"/>
 <circle cx="30.5" cy="20.5" r="2.5" style="fill:#f1c40f;paint-order:normal"/>
 <circle cx="31.5" cy="28.5" r="2.5" style="opacity:.1;paint-order:normal"/>
 <circle cx="30.5" cy="27.5" r="2.5" style="fill:#f1c40f;paint-order:normal"/>
 <path d="m17.5 19a0.5 0.5 0 0 0-0.5 0.5 0.5 0.5 0 0 0 0.5 0.5 0.5 0.5 0 0 1 0.5-0.5 0.5 0.5 0 0 0-0.5-0.5zm2 0a0.5 0.5 0 0 0-0.5 0.5 0.5 0.5 0 0 0 0.5 0.5 0.5 0.5 0 0 1 0.5-0.5 0.5 0.5 0 0 0-0.5-0.5zm2 0a0.5 0.5 0 0 0-0.5 0.5 0.5 0.5 0 0 0 0.5 0.5 0.5 0.5 0 0 1 0.5-0.5 0.5 0.5 0 0 0-0.5-0.5zm-5 2a0.5 0.5 0 0 0-0.5 0.5 0.5 0.5 0 0 0 0.5 0.5 0.5 0.5 0 0 1 0.5-0.5 0.5 0.5 0 0 0-0.5-0.5zm2 0a0.5 0.5 0 0 0-0.5 0.5 0.5 0.5 0 0 0 0.5 0.5 0.5 0.5 0 0 1 0.5-0.5 0.5 0.5 0 0 0-0.5-0.5zm2 0a0.5 0.5 0 0 0-0.5 0.5 0.5 0.5 0 0 0 0.5 0.5 0.5 0.5 0 0 1 0.5-0.5 0.5 0.5 0 0 0-0.5-0.5zm2 0a0.5 0.5 0 0 0-0.5 0.5 0.5 0.5 0 0 0 0.5 0.5 0.5 0.5 0 0 1 0.5-0.5 0.5 0.5 0 0 0-0.5-0.5zm-7 2a0.5 0.5 0 0 0-0.5 0.5 0.5 0.5 0 0 0 0.5 0.5 0.5 0.5 0 0 1 0.5-0.5 0.5 0.5 0 0 0-0.5-0.5zm2 0a0.5 0.5 0 0 0-0.5 0.5 0.5 0.5 0 0 0 0.5 0.5 0.5 0.5 0 0 1 0.5-0.5 0.5 0.5 0 0 0-0.5-0.5zm2 0a0.5 0.5 0 0 0-0.5 0.5 0.5 0.5 0 0 0 0.5 0.5 0.5 0.5 0 0 1 0.5-0.5 0.5 0.5 0 0 0-0.5-0.5zm2 0a0.5 0.5 0 0 0-0.5 0.5 0.5 0.5 0 0 0 0.5 0.5 0.5 0.5 0 0 1 0.5-0.5 0.5 0.5 0 0 0-0.5-0.5zm2 0a0.5 0.5 0 0 0-0.5 0.5 0.5 0.5 0 0 0 0.5 0.5 0.5 0.5 0 0 1 0.5-0.5 0.5 0.5 0 0 0-0.5-0.5zm-7 2a0.5 0.5 0 0 0-0.5 0.5 0.5 0.5 0 0 0 0.5 0.5 0.5 0.5 0 0 1 0.5-0.5 0.5 0.5 0 0 0-0.5-0.5zm2 0a0.5 0.5 0 0 0-0.5 0.5 0.5 0.5 0 0 0 0.5 0.5 0.5 0.5 0 0 1 0.5-0.5 0.5 0.5 0 0 0-0.5-0.5zm2 0a0.5 0.5 0 0 0-0.5 0.5 0.5 0.5 0 0 0 0.5 0.5 0.5 0.5 0 0 1 0.5-0.5 0.5 0.5 0 0 0-0.5-0.5zm2 0a0.5 0.5 0 0 0-0.5 0.5 0.5 0.5 0 0 0 0.5 0.5 0.5 0.5 0 0 1 0.5-0.5 0.5 0.5 0 0 0-0.5-0.5zm-5 2a0.5 0.5 0 0 0-0.5 0.5 0.5 0.5 0 0 0 0.5 0.5 0.5 0.5 0 0 1 0.5-0.5 0.5 0.5 0 0 0-0.5-0.5zm2 0a0.5 0.5 0 0 0-0.5 0.5 0.5 0.5 0 0 0 0.5 0.5 0.5 0.5 0 0 1 0.5-0.5 0.5 0.5 0 0 0-0.5-0.5zm2 0a0.5 0.5 0 0 0-0.5 0.5 0.5 0.5 0 0 0 0.5 0.5 0.5 0.5 0 0 1 0.5-0.5 0.5 0.5 0 0 0-0.5-0.5z" style="opacity:.1;paint-order:normal"/>
</svg>
