<svg version="1.1" viewBox="0 0 48 48" xmlns="http://www.w3.org/2000/svg">
 <defs>
  <linearGradient id="bg" x1="1" x2="47" gradientTransform="matrix(0 -1 1 0 -1.5e-6 48)" gradientUnits="userSpaceOnUse">
   <stop style="stop-color:#393939" offset="0"/>
   <stop style="stop-color:#424242" offset="1"/>
  </linearGradient>
 </defs>
 <path d="m36.31 5c5.859 4.062 9.688 10.831 9.688 18.5 0 12.426-10.07 22.5-22.5 22.5-7.669 0-14.438-3.828-18.5-9.688 1.037 1.822 2.306 3.499 3.781 4.969 4.085 3.712 9.514 5.969 15.469 5.969 12.703 0 23-10.298 23-23 0-5.954-2.256-11.384-5.969-15.469-1.469-1.475-3.147-2.744-4.969-3.781zm4.969 3.781c3.854 4.113 6.219 9.637 6.219 15.719 0 12.703-10.297 23-23 23-6.081 0-11.606-2.364-15.719-6.219 4.16 4.144 9.883 6.719 16.219 6.719 12.703 0 23-10.298 23-23 0-6.335-2.575-12.06-6.719-16.219z" style="opacity:.05"/>
 <path d="m41.28 8.781c3.712 4.085 5.969 9.514 5.969 15.469 0 12.703-10.297 23-23 23-5.954 0-11.384-2.256-15.469-5.969 4.113 3.854 9.637 6.219 15.719 6.219 12.703 0 23-10.298 23-23 0-6.081-2.364-11.606-6.219-15.719z" style="opacity:.1"/>
 <path d="m31.25 2.375c8.615 3.154 14.75 11.417 14.75 21.13 0 12.426-10.07 22.5-22.5 22.5-9.708 0-17.971-6.135-21.12-14.75a23 23 0 0 0 44.875-7 23 23 0 0 0-16-21.875z" style="opacity:.2"/>
 <path d="m24 1c12.703 0 23 10.297 23 23s-10.297 23-23 23-23-10.297-23-23 10.297-23 23-23z" style="fill:url(#bg)"/>
 <path d="m25.242 10.013c-4.2684 0.05559-8.4263 1.8896-11.297 5.1934h-0.01953l7.1211 8.1641 5.0508-13.344c-0.28519-0.01219-0.57091-0.01738-0.85547-0.01367zm2.8379 0.62695-3.6094 10.152 14.234-2.3633c-2.102-3.992-5.984-6.9301-10.625-7.7891zm-15.693 5.9512c-2.4522 3.7998-3.0904 8.583-1.5293 12.965l10.729-1.9863zm-1.5293 12.965-0.0059 2e-3 0.0078 2e-3c-4.86e-4 -0.0014-0.0015-0.0025-2e-3 -0.0039zm28.281-9.1094c4.86e-4 0.0014 0.0015 0.0025 2e-3 0.0039l0.0098-2e-3zm2e-3 0.0039-10.729 1.9863 9.1992 10.98c2.4562-3.7958 3.0904-8.5849 1.5293-12.967zm-14.139 2.5488c-1.1034 0-2.002 0.89558-2.002 2s0.8985 2 2.002 2c1.1034 0 1.998-0.89558 1.998-2s-0.8946-2-1.998-2zm3.9473 3.6445-5.0508 13.344c4.566 0.195 9.0902-1.6557 12.156-5.1797h0.01562zm-3.4102 2.5625-14.242 2.3633c2.109 3.996 5.996 6.9341 10.625 7.7891z" style="opacity:.1"/>
 <path d="m27.08 9.641-3.609 10.152 14.234-2.363c-2.102-3.992-5.984-6.93-10.625-7.789" style="fill:#e3771c"/>
 <path d="m38.15 19.449-10.738 1.988 9.199 10.98c2.457-3.797 3.09-8.586 1.527-12.969" style="fill:#f1e527"/>
 <path d="m35.07 33.809-7.121-8.164-5.05 13.344c4.566 0.195 9.09-1.656 12.156-5.18" style="fill:#28ae37"/>
 <path d="m20.922 38.36 3.617-10.152-14.242 2.363c2.109 3.996 5.996 6.934 10.625 7.789" style="fill:#287dd7"/>
 <path d="m9.852 28.559 10.734-1.988-9.199-10.98c-2.453 3.801-3.09 8.586-1.527 12.969" style="fill:#c924d1"/>
 <path d="m12.926 14.207 7.121 8.164 5.05-13.344c-4.563-0.195-9.09 1.656-12.152 5.18" style="fill:#da1b31"/>
 <path d="m26 24c0 1.1044-0.89464 2-1.9981 2-1.1034 0-2.0019-0.89558-2.0019-2s0.89847-2 2.0019-2c1.1034 0 1.9981 0.89558 1.9981 2" style="fill:#f9f9f9"/>
 <path d="m40.03 7.531c3.712 4.084 5.969 9.514 5.969 15.469 0 12.703-10.297 23-23 23-5.954 0-11.384-2.256-15.469-5.969 4.178 4.291 10.01 6.969 16.469 6.969 12.703 0 23-10.298 23-23 0-6.462-2.677-12.291-6.969-16.469z" style="opacity:.1"/>
</svg>
