<svg version="1.1" viewBox="0 0 48 48" xmlns="http://www.w3.org/2000/svg">
 <defs>
  <linearGradient id="bg" x1="1" x2="47" gradientTransform="matrix(0 -1 1 0 -1.5e-6 48)" gradientUnits="userSpaceOnUse">
   <stop style="stop-color:#685b9f" offset="0"/>
   <stop style="stop-color:#7366a8" offset="1"/>
  </linearGradient>
 </defs>
 <path d="m36.31 5c5.859 4.062 9.688 10.831 9.688 18.5 0 12.426-10.07 22.5-22.5 22.5-7.669 0-14.438-3.828-18.5-9.688 1.037 1.822 2.306 3.499 3.781 4.969 4.085 3.712 9.514 5.969 15.469 5.969 12.703 0 23-10.298 23-23 0-5.954-2.256-11.384-5.969-15.469-1.469-1.475-3.147-2.744-4.969-3.781zm4.969 3.781c3.854 4.113 6.219 9.637 6.219 15.719 0 12.703-10.297 23-23 23-6.081 0-11.606-2.364-15.719-6.219 4.16 4.144 9.883 6.719 16.219 6.719 12.703 0 23-10.298 23-23 0-6.335-2.575-12.06-6.719-16.219z" style="opacity:.05"/>
 <path d="m41.28 8.781c3.712 4.085 5.969 9.514 5.969 15.469 0 12.703-10.297 23-23 23-5.954 0-11.384-2.256-15.469-5.969 4.113 3.854 9.637 6.219 15.719 6.219 12.703 0 23-10.298 23-23 0-6.081-2.364-11.606-6.219-15.719z" style="opacity:.1"/>
 <path d="m31.25 2.375c8.615 3.154 14.75 11.417 14.75 21.13 0 12.426-10.07 22.5-22.5 22.5-9.708 0-17.971-6.135-21.12-14.75a23 23 0 0 0 44.875-7 23 23 0 0 0-16-21.875z" style="opacity:.2"/>
 <path d="m24 1c12.703 0 23 10.297 23 23s-10.297 23-23 23-23-10.297-23-23 10.297-23 23-23z" style="fill:url(#bg)"/>
 <g transform="translate(1,1)">
  <g style="opacity:.1"></g>
 </g>
 <path d="m15 13v24c3.5865-0.0056 7-2 9-5.5v-13c-2-3.5-5.4158-5.4975-9-5.5zm10 0v24h12zm-8 3c3.3137 0 6 4.0294 6 9s-2.6863 9-6 9v-8c-0.55228 0-1-0.44772-1-1s0.44772-1 1-1zm11.426 13.695h4e-3c0.23702 3.17e-4 0.4973 0.03144 0.75 0.07422 0.254 0.043 0.50434 0.10912 0.77734 0.20312v1.1465c-0.242-0.133-0.46541-0.22978-0.69141-0.30078-0.227-0.066-0.44544-0.09766-0.64844-0.09766-0.266 0-0.47256 0.035-0.60156 0.125s-0.19531 0.22678-0.19531 0.42578c0 0.145 0.04681 0.26966 0.13281 0.34766 0.086 0.078 0.24761 0.14112 0.47461 0.20312l0.47266 0.12109c0.488 0.125 0.82816 0.30478 1.0352 0.55078 0.203 0.246 0.32031 0.59973 0.32031 1.0527 0 0.594-0.14264 1.0333-0.43164 1.3223-0.285 0.289-0.7265 0.42773-1.3125 0.42773-0.277 0-0.56284-0.01222-0.83984-0.07422-0.281-0.066-0.56275-0.17578-0.84375-0.30078v-1.1777c0.281 0.184 0.56331 0.32983 0.82031 0.42383 0.262 0.094 0.51191 0.125 0.75391 0.125 0.246 0 0.4295-0.04744 0.5625-0.14844 0.129-0.102 0.19141-0.23778 0.19141-0.42578 0-0.172-0.03891-0.30944-0.12891-0.39844-0.09-0.094-0.27306-0.18-0.53906-0.25l-0.42969-0.125c-0.438-0.117-0.74622-0.29678-0.94922-0.55078-0.199-0.25-0.30078-0.59434-0.30078-1.0273 0-0.535 0.13306-0.93366 0.41406-1.2227 0.27628-0.28825 0.67418-0.44839 1.2031-0.44922z" style="opacity:.1"/>
 <path d="m14 12v24c3.5865-0.0056 7-2 9-5.5v-13c-2-3.5-5.4158-5.4975-9-5.5zm10 0v24h12zm-8 3c3.3137 0 6 4.0294 6 9s-2.6863 9-6 9v-8c-0.55228 0-1-0.44772-1-1s0.44772-1 1-1zm11.426 13.695h4e-3c0.23702 3.17e-4 0.4973 0.03144 0.75 0.07422 0.254 0.043 0.50434 0.10912 0.77734 0.20312v1.1465c-0.242-0.133-0.46541-0.22978-0.69141-0.30078-0.227-0.066-0.44544-0.09766-0.64844-0.09766-0.266 0-0.47256 0.035-0.60156 0.125s-0.19531 0.22678-0.19531 0.42578c0 0.145 0.04681 0.26966 0.13281 0.34766 0.086 0.078 0.24761 0.14112 0.47461 0.20312l0.47266 0.12109c0.488 0.125 0.82816 0.30478 1.0352 0.55078 0.203 0.246 0.32031 0.59973 0.32031 1.0527 0 0.594-0.14264 1.0333-0.43164 1.3223-0.285 0.289-0.7265 0.42773-1.3125 0.42773-0.277 0-0.56284-0.01222-0.83984-0.07422-0.281-0.066-0.56275-0.17578-0.84375-0.30078v-1.1777c0.281 0.184 0.56331 0.32983 0.82031 0.42383 0.262 0.094 0.51191 0.125 0.75391 0.125 0.246 0 0.4295-0.04744 0.5625-0.14844 0.129-0.102 0.19141-0.23778 0.19141-0.42578 0-0.172-0.03891-0.30944-0.12891-0.39844-0.09-0.094-0.27306-0.18-0.53906-0.25l-0.42969-0.125c-0.438-0.117-0.74622-0.29678-0.94922-0.55078-0.199-0.25-0.30078-0.59434-0.30078-1.0273 0-0.535 0.13306-0.93366 0.41406-1.2227 0.27628-0.28825 0.67418-0.44839 1.2031-0.44922z" style="fill:#f9f9f9"/>
 <path d="m40.03 7.531c3.712 4.084 5.969 9.514 5.969 15.469 0 12.703-10.297 23-23 23-5.954 0-11.384-2.256-15.469-5.969 4.178 4.291 10.01 6.969 16.469 6.969 12.703 0 23-10.298 23-23 0-6.462-2.677-12.291-6.969-16.469z" style="opacity:.1"/>
</svg>
