<svg xmlns="http://www.w3.org/2000/svg" viewBox="0 0 48 48">
 <defs>
  <linearGradient id="linearGradient3764" x1="1" x2="47" gradientUnits="userSpaceOnUse" gradientTransform="matrix(0,-1,1,0,-1.5e-6,47.999998)">
   <stop style="stop-color:#685b9f;stop-opacity:1"/>
   <stop offset="1" style="stop-color:#7366a8;stop-opacity:1"/>
  </linearGradient>
 </defs>
 <g>
  <path d="m 36.31 5 c 5.859 4.062 9.688 10.831 9.688 18.5 c 0 12.426 -10.07 22.5 -22.5 22.5 c -7.669 0 -14.438 -3.828 -18.5 -9.688 c 1.037 1.822 2.306 3.499 3.781 4.969 c 4.085 3.712 9.514 5.969 15.469 5.969 c 12.703 0 23 -10.298 23 -23 c 0 -5.954 -2.256 -11.384 -5.969 -15.469 c -1.469 -1.475 -3.147 -2.744 -4.969 -3.781 z m 4.969 3.781 c 3.854 4.113 6.219 9.637 6.219 15.719 c 0 12.703 -10.297 23 -23 23 c -6.081 0 -11.606 -2.364 -15.719 -6.219 c 4.16 4.144 9.883 6.719 16.219 6.719 c 12.703 0 23 -10.298 23 -23 c 0 -6.335 -2.575 -12.06 -6.719 -16.219 z" style="opacity:0.05"/>
  <path d="m 41.28 8.781 c 3.712 4.085 5.969 9.514 5.969 15.469 c 0 12.703 -10.297 23 -23 23 c -5.954 0 -11.384 -2.256 -15.469 -5.969 c 4.113 3.854 9.637 6.219 15.719 6.219 c 12.703 0 23 -10.298 23 -23 c 0 -6.081 -2.364 -11.606 -6.219 -15.719 z" style="opacity:0.1"/>
  <path d="m 31.25 2.375 c 8.615 3.154 14.75 11.417 14.75 21.13 c 0 12.426 -10.07 22.5 -22.5 22.5 c -9.708 0 -17.971 -6.135 -21.12 -14.75 a 23 23 0 0 0 44.875 -7 a 23 23 0 0 0 -16 -21.875 z" style="opacity:0.2"/>
 </g>
 <g>
  <path d="m 24 1 c 12.703 0 23 10.297 23 23 c 0 12.703 -10.297 23 -23 23 -12.703 0 -23 -10.297 -23 -23 0 -12.703 10.297 -23 23 -23 z" style="fill:url(#linearGradient3764);fill-opacity:1"/>
 </g>
 <g>
  <g>
   <g transform="translate(1,1)">
    <g style="opacity:0.1">
     <!-- color: #7366a8 -->
     <g>
      <path d="m 14 12 l 0 24 c 0.246 0 0.484 -0.004 0.734 -0.023 c 3.563 -0.297 6.57 -2.637 8.234 -5.977 l 0 -11.973 c -1.805 -3.633 -5.176 -6.03 -8.969 -6.03 m 2.07 3.25 c 3.277 0.414 5.941 3.789 6.184 8.125 c 0.27 4.762 -2.488 8.902 -6.184 9.375 l 0 -7.375 c -0.383 -0.254 -0.656 -0.699 -0.691 -1.25 c -0.039 -0.629 0.25 -1.203 0.691 -1.5 m 0 -7.375" style="fill:#000;fill-opacity:1;stroke:none;fill-rule:nonzero"/>
      <path d="m 24,12 0,24 11.996,0 m -8.57,-7.305 c 0.238,0 0.5,0.031 0.754,0.074 0.254,0.043 0.504,0.109 0.777,0.203 l 0,1.148 c -0.242,-0.133 -0.465,-0.23 -0.691,-0.301 -0.227,-0.066 -0.445,-0.098 -0.648,-0.098 -0.266,0 -0.473,0.035 -0.602,0.125 -0.129,0.09 -0.195,0.227 -0.195,0.426 0,0.145 0.047,0.27 0.133,0.348 0.086,0.078 0.246,0.141 0.473,0.203 l 0.473,0.121 c 0.488,0.125 0.828,0.305 1.035,0.551 0.203,0.246 0.32,0.598 0.32,1.051 0,0.594 -0.141,1.035 -0.43,1.324 -0.285,0.289 -0.727,0.426 -1.313,0.426 -0.277,0 -0.563,-0.012 -0.84,-0.074 -0.281,-0.066 -0.563,-0.176 -0.844,-0.301 l 0,-1.176 c 0.281,0.184 0.563,0.328 0.82,0.422 0.262,0.094 0.512,0.125 0.754,0.125 0.246,0 0.43,-0.047 0.563,-0.148 0.129,-0.102 0.191,-0.238 0.191,-0.426 0,-0.172 -0.039,-0.309 -0.129,-0.398 -0.09,-0.094 -0.273,-0.18 -0.539,-0.25 l -0.43,-0.125 C 26.62,31.828 26.312,31.648 26.109,31.394 25.91,31.144 25.808,30.8 25.808,30.367 c 0,-0.535 0.133,-0.934 0.414,-1.223 0.277,-0.289 0.676,-0.449 1.207,-0.449" style="fill:#000;fill-opacity:1;stroke:none;fill-rule:nonzero"/>
     </g>
    </g>
   </g>
  </g>
 </g>
 <g>
  <g>
   <!-- color: #7366a8 -->
   <g>
    <path d="m 14 12 l 0 24 c 0.246 0 0.484 -0.004 0.734 -0.023 c 3.563 -0.297 6.57 -2.637 8.234 -5.977 l 0 -11.973 c -1.805 -3.633 -5.176 -6.03 -8.969 -6.03 m 2.07 3.25 c 3.277 0.414 5.941 3.789 6.184 8.125 c 0.27 4.762 -2.488 8.902 -6.184 9.375 l 0 -7.375 c -0.383 -0.254 -0.656 -0.699 -0.691 -1.25 c -0.039 -0.629 0.25 -1.203 0.691 -1.5 m 0 -7.375" style="fill:#f9f9f9;fill-opacity:1;stroke:none;fill-rule:nonzero"/>
    <path d="m 24,12 0,24 11.996,0 m -8.57,-7.305 c 0.238,0 0.5,0.031 0.754,0.074 0.254,0.043 0.504,0.109 0.777,0.203 l 0,1.148 c -0.242,-0.133 -0.465,-0.23 -0.691,-0.301 -0.227,-0.066 -0.445,-0.098 -0.648,-0.098 -0.266,0 -0.473,0.035 -0.602,0.125 -0.129,0.09 -0.195,0.227 -0.195,0.426 0,0.145 0.047,0.27 0.133,0.348 0.086,0.078 0.246,0.141 0.473,0.203 l 0.473,0.121 c 0.488,0.125 0.828,0.305 1.035,0.551 0.203,0.246 0.32,0.598 0.32,1.051 0,0.594 -0.141,1.035 -0.43,1.324 -0.285,0.289 -0.727,0.426 -1.313,0.426 -0.277,0 -0.563,-0.012 -0.84,-0.074 -0.281,-0.066 -0.563,-0.176 -0.844,-0.301 l 0,-1.176 c 0.281,0.184 0.563,0.328 0.82,0.422 0.262,0.094 0.512,0.125 0.754,0.125 0.246,0 0.43,-0.047 0.563,-0.148 0.129,-0.102 0.191,-0.238 0.191,-0.426 0,-0.172 -0.039,-0.309 -0.129,-0.398 -0.09,-0.094 -0.273,-0.18 -0.539,-0.25 l -0.43,-0.125 C 26.62,31.828 26.312,31.648 26.109,31.394 25.91,31.144 25.808,30.8 25.808,30.367 c 0,-0.535 0.133,-0.934 0.414,-1.223 0.277,-0.289 0.676,-0.449 1.207,-0.449" style="fill:#f9f9f9;fill-opacity:1;stroke:none;fill-rule:nonzero"/>
   </g>
  </g>
 </g>
 <g>
  <path d="m 40.03 7.531 c 3.712 4.084 5.969 9.514 5.969 15.469 0 12.703 -10.297 23 -23 23 c -5.954 0 -11.384 -2.256 -15.469 -5.969 4.178 4.291 10.01 6.969 16.469 6.969 c 12.703 0 23 -10.298 23 -23 0 -6.462 -2.677 -12.291 -6.969 -16.469 z" style="opacity:0.1"/>
 </g>
</svg>
