<svg xmlns="http://www.w3.org/2000/svg" viewBox="0 0 48 48">
 <defs>
  <linearGradient id="linearGradient3764" x1="1" x2="47" gradientUnits="userSpaceOnUse" gradientTransform="matrix(0,-1,1,0,-1.5e-6,47.999998)">
   <stop style="stop-color:#d19a89;stop-opacity:1"/>
   <stop offset="1" style="stop-color:#d7a697;stop-opacity:1"/>
  </linearGradient>
 </defs>
 <g>
  <path d="m 36.31 5 c 5.859 4.062 9.688 10.831 9.688 18.5 c 0 12.426 -10.07 22.5 -22.5 22.5 c -7.669 0 -14.438 -3.828 -18.5 -9.688 c 1.037 1.822 2.306 3.499 3.781 4.969 c 4.085 3.712 9.514 5.969 15.469 5.969 c 12.703 0 23 -10.298 23 -23 c 0 -5.954 -2.256 -11.384 -5.969 -15.469 c -1.469 -1.475 -3.147 -2.744 -4.969 -3.781 z m 4.969 3.781 c 3.854 4.113 6.219 9.637 6.219 15.719 c 0 12.703 -10.297 23 -23 23 c -6.081 0 -11.606 -2.364 -15.719 -6.219 c 4.16 4.144 9.883 6.719 16.219 6.719 c 12.703 0 23 -10.298 23 -23 c 0 -6.335 -2.575 -12.06 -6.719 -16.219 z" style="opacity:0.05"/>
  <path d="m 41.28 8.781 c 3.712 4.085 5.969 9.514 5.969 15.469 c 0 12.703 -10.297 23 -23 23 c -5.954 0 -11.384 -2.256 -15.469 -5.969 c 4.113 3.854 9.637 6.219 15.719 6.219 c 12.703 0 23 -10.298 23 -23 c 0 -6.081 -2.364 -11.606 -6.219 -15.719 z" style="opacity:0.1"/>
  <path d="m 31.25 2.375 c 8.615 3.154 14.75 11.417 14.75 21.13 c 0 12.426 -10.07 22.5 -22.5 22.5 c -9.708 0 -17.971 -6.135 -21.12 -14.75 a 23 23 0 0 0 44.875 -7 a 23 23 0 0 0 -16 -21.875 z" style="opacity:0.2"/>
 </g>
 <g>
  <path d="m 24 1 c 12.703 0 23 10.297 23 23 c 0 12.703 -10.297 23 -23 23 -12.703 0 -23 -10.297 -23 -23 0 -12.703 10.297 -23 23 -23 z" style="fill:url(#linearGradient3764);fill-opacity:1"/>
 </g>
 <g>
  <g>
   <g transform="translate(1,1)">
    <g style="opacity:0.1">
     <!-- color: #d7a697 -->
    </g>
   </g>
  </g>
 </g>
 <g transform="translate(3.0596946e-4,0)">
  <g>
   <!-- color: #d7a697 -->
   <g>
    <path d="m 23.659 13 c -1.065 -0.011 -2.136 0.195 -3.357 0.422 -2.988 0.554 -5.848 3.01 -7.172 5.461 -1.121 2.074 -1.461 4.646 -0.777 7.861 0 0.035 0.004 0.1 0 0.139 -0.047 1.469 0.359 3.535 1.602 5.461 1.273 1.973 3.465 3.783 6.852 4.482 1.41 0.289 2.785 0.25 3.836 -0.371 1.051 -0.621 1.549 -1.65 1.355 -3.451 -0.138 -1.285 -0.671 -2.797 -1.859 -4.04 0.68 -0.52 1.152 -1.203 1.461 -1.898 0.391 -0.875 0.727 -1.66 1.508 -2.219 0.883 -0.438 1.676 -0.68 2.375 -0.695 0.707 -0.016 1.249 0.193 1.871 0.695 0.454 0.366 0.971 0.684 1.418 0.832 1.03 0.341 1.734 0.417 2.242 -0.279 0.634 -0.87 0.118 -1.785 -0.218 -2.359 0.202 0.14 0.667 0.291 0.991 0.277 0.797 -0.033 1.722 -0.605 1.965 -1.711 0.276 -1.258 0.355 -2.539 0.094 -3.699 -0.262 -1.164 -0.808 -2.348 -1.965 -3.055 -1.014 -0.62 -2.24 -0.815 -3.242 -0.85 -1.063 -0.036 -2.148 0.208 -3.152 0.943 -1.914 -1.137 -3.391 -1.737 -4.75 -1.895 -0.365 -0.042 -0.745 -0.049 -1.076 -0.053 z" style="fill:#000;opacity:0.1;fill-opacity:1;stroke:none;fill-rule:evenodd"/>
    <path d="m 22.662 11.996 c -1.065 -0.011 -2.136 0.195 -3.357 0.422 -2.988 0.554 -5.848 3.01 -7.172 5.461 -1.121 2.074 -1.461 4.646 -0.777 7.861 0 0.035 0.004 0.1 0 0.139 -0.047 1.469 0.359 3.535 1.602 5.461 1.273 1.973 3.465 3.783 6.852 4.482 1.41 0.289 2.785 0.25 3.836 -0.371 1.051 -0.621 1.549 -1.65 1.355 -3.451 -0.138 -1.285 -0.671 -2.797 -1.859 -4.04 0.68 -0.52 1.152 -1.203 1.461 -1.898 0.391 -0.875 0.727 -1.66 1.508 -2.219 0.883 -0.438 1.676 -0.68 2.375 -0.695 0.707 -0.016 1.249 0.193 1.871 0.695 0.454 0.366 0.971 0.684 1.418 0.832 1.03 0.341 1.734 0.417 2.242 -0.279 0.634 -0.87 0.118 -1.785 -0.218 -2.359 0.202 0.14 0.667 0.291 0.991 0.277 0.797 -0.033 1.722 -0.605 1.965 -1.711 0.276 -1.258 0.355 -2.539 0.094 -3.699 c -0.262 -1.164 -0.808 -2.348 -1.965 -3.055 -1.014 -0.62 -2.24 -0.815 -3.242 -0.85 c -1.063 -0.036 -2.148 0.208 -3.152 0.943 -1.914 -1.137 -3.391 -1.737 -4.75 -1.895 -0.365 -0.042 -0.745 -0.049 -1.076 -0.053 z" transform="translate(-3.0596946e-4,0)" style="fill:#2d2d2d;fill-opacity:1;stroke:none;fill-rule:evenodd"/>
    <path d="m 22.648 12.975 c -0.954 0.002 -1.936 0.185 -3.16 0.412 -2.563 0.475 -5.279 2.856 -6.438 4.996 -1.022 1.888 -1.376 4.207 -0.688 7.309 0.008 0.047 0.008 0.094 0 0.141 -0.062 1.23 0.273 3.175 1.418 4.945 1.145 1.776 3.07 3.379 6.211 4.03 1.277 0.261 2.439 0.229 3.15 -0.189 c 0.707 -0.418 1.024 -1.064 0.857 -2.619 c -0.131 -1.222 -0.521 -2.479 -1.865 -3.717 -2.01 -1.47 1.788 -4.635 3.473 -5.32 0.98 -0.492 1.906 -0.812 2.832 -0.832 0.914 -0.019 1.767 0.343 2.561 0.969 0.331 0.261 0.8 0.478 1.141 0.645 0.315 0.154 0.745 0.248 0.914 0 0.313 -0.46 0.176 -1.012 0 -1.293 -0.191 -0.307 -0.5 -0.695 -0.938 -1 -1.617 -1.127 -3.252 -1.883 -4.752 -2.127 0.867 -0.629 2.206 -0.486 3.293 -0.066 0.636 0.245 1.072 0.597 1.846 1.244 0.65 0.544 1.547 0.701 2.242 0.793 0.295 0.039 0.863 -0.309 1 -0.93 0.258 -1.164 0.356 -2.273 0.141 -3.234 -0.219 -0.957 -0.652 -1.827 -1.602 -2.453 c -0.763 -0.503 -1.754 -0.649 -2.695 -0.678 c -0.953 -0.029 -1.859 0.138 -2.738 0.865 -0.168 0.149 -0.41 0.164 -0.594 0.047 -2.01 -1.231 -3.383 -1.753 -4.66 -1.895 -0.321 -0.036 -0.653 -0.044 -0.949 -0.043 z" transform="translate(-3.0596946e-4,0)" style="fill:#a33334;fill-opacity:1;stroke:none;fill-rule:evenodd"/>
    <path d="m 23.678 21.04 c 0 0.001 0 0.003 0 0.004 0.001 -0.001 0.001 -0.003 0.002 -0.004 z m 0 0.004 c -0.322 0.687 -0.359 1.393 -0.105 1.938 -1.227 2.672 -4.02 2.848 -5.66 2.383 -1.355 -0.383 -2.883 -1.186 -3.879 -2.443 0.802 3.772 4.87 3.4 8.23 5.492 -0.045 -0.043 -0.082 -0.086 -0.129 -0.129 -0.195 -0.183 -0.215 -0.486 -0.043 -0.693 0.047 -0.059 0.11 -0.108 0.18 -0.139 0.727 -0.313 0.996 -0.964 1.418 -1.805 0.592 -1.178 1.036 -2.119 1.918 -2.684 0.455 -0.291 0.951 -0.442 1.414 -0.586 -2.445 0.653 -3.136 0.1 -3.344 -1.334 z" transform="translate(-3.0596946e-4,0)" style="fill:#f9f9f9;fill-opacity:1;stroke:none;fill-rule:evenodd"/>
    <path d="m 14.301 26.805 c 0.391 2.508 5.605 3.164 6.215 5.68 -2.508 -1.914 -6.813 -2.32 -6.215 -5.68 m 0 0" style="fill:#f9f9f9;fill-opacity:1;stroke:none;fill-rule:evenodd"/>
    <path d="m 34.25 16.4 c -0.413 0 -0.752 0.334 -0.752 0.748 0 0.414 0.338 0.752 0.752 0.752 0.414 0 0.748 -0.338 0.748 -0.752 0 -0.414 -0.334 -0.748 -0.748 -0.748 z" style="fill:#f9f9f9;fill-opacity:1;stroke:none;fill-rule:nonzero"/>
    <path d="m 21.934 13.922 c -0.96 -0.003 -1.846 0.451 -2.527 1.047 c 1.438 -0.328 2.813 -0.652 4.309 -0.48 c -0.602 -0.399 -1.205 -0.565 -1.781 -0.566 z m 3.326 1.178 c -0.751 -0.012 -1.488 0.236 -2.111 0.598 c 1.477 -0.047 2.879 -0.094 4.316 0.363 c -0.688 -0.676 -1.454 -0.949 -2.205 -0.961 z m -6.826 0.445 c -1.205 0.009 -2.191 0.735 -2.848 1.6 c 1.34 -0.613 2.621 -1.211 4.121 -1.348 c -0.446 -0.178 -0.872 -0.255 -1.273 -0.252 z m 3.441 0.455 c -0.96 -0.022 -1.853 0.416 -2.541 1 c 1.446 -0.305 2.82 -0.596 4.314 -0.395 c -0.596 -0.412 -1.197 -0.592 -1.773 -0.605 z m -3.02 1.846 c -1.51 0.107 -2.473 1.217 -2.959 2.393 c 1.137 -0.941 2.227 -1.852 3.641 -2.375 c -0.238 -0.028 -0.466 -0.033 -0.682 -0.018 z m -3.236 0.139 c -1.758 0.781 -2.152 2.473 -1.961 3.914 c 0.512 -1.398 1 -2.738 1.961 -3.914 z m 6.555 5.539 c -1.117 0.969 -2.184 1.906 -3.586 2.465 c 1.91 0.18 3.066 -1.109 3.586 -2.465 z m -1.746 0.523 c -1.348 0.598 -2.637 1.176 -4.141 1.293 c 1.777 0.738 3.25 -0.152 4.141 -1.293 z" transform="translate(-3.0596946e-4,0)" style="fill:#f9f9f9;fill-opacity:1;stroke:none;fill-rule:evenodd"/>
   </g>
  </g>
 </g>
 <g>
  <path d="m 40.03 7.531 c 3.712 4.084 5.969 9.514 5.969 15.469 0 12.703 -10.297 23 -23 23 c -5.954 0 -11.384 -2.256 -15.469 -5.969 4.178 4.291 10.01 6.969 16.469 6.969 c 12.703 0 23 -10.298 23 -23 0 -6.462 -2.677 -12.291 -6.969 -16.469 z" style="opacity:0.1"/>
 </g>
</svg>
