<svg version="1.1" viewBox="0 0 48 48" xmlns="http://www.w3.org/2000/svg">
 <defs>
  <linearGradient id="bg" x1="1" x2="47" gradientTransform="rotate(-90 24 24)" gradientUnits="userSpaceOnUse">
   <stop style="stop-color:#285da4" offset="0"/>
   <stop style="stop-color:#2c65b5" offset="1"/>
  </linearGradient>
 </defs>
 <path d="m36.31 5c5.859 4.062 9.688 10.831 9.688 18.5 0 12.426-10.07 22.5-22.5 22.5-7.669 0-14.438-3.828-18.5-9.688 1.037 1.822 2.306 3.499 3.781 4.969 4.085 3.712 9.514 5.969 15.469 5.969 12.703 0 23-10.298 23-23 0-5.954-2.256-11.384-5.969-15.469-1.469-1.475-3.147-2.744-4.969-3.781zm4.969 3.781c3.854 4.113 6.219 9.637 6.219 15.719 0 12.703-10.297 23-23 23-6.081 0-11.606-2.364-15.719-6.219 4.16 4.144 9.883 6.719 16.219 6.719 12.703 0 23-10.298 23-23 0-6.335-2.575-12.06-6.719-16.219z" style="opacity:.05"/>
 <path d="m41.28 8.781c3.712 4.085 5.969 9.514 5.969 15.469 0 12.703-10.297 23-23 23-5.954 0-11.384-2.256-15.469-5.969 4.113 3.854 9.637 6.219 15.719 6.219 12.703 0 23-10.298 23-23 0-6.081-2.364-11.606-6.219-15.719z" style="opacity:.1"/>
 <path d="m31.25 2.375c8.615 3.154 14.75 11.417 14.75 21.13 0 12.426-10.07 22.5-22.5 22.5-9.708 0-17.971-6.135-21.12-14.75a23 23 0 0 0 44.875-7 23 23 0 0 0-16-21.875z" style="opacity:.2"/>
 <path d="m24 1c12.703 0 23 10.297 23 23s-10.297 23-23 23-23-10.297-23-23 10.297-23 23-23z" style="fill:url(#bg)"/>
 <path d="m7.281 15.5c-0.074 0.145-0.148 0.289-0.219 0.434 1.125 0.625 4.367 2.254 5.906 3.219 1.945 1.191 4.574 3.621 4.781 4.03-2.023 3.523-1.105 6.641-1.344 6.973-0.172 0.277-1.762 2.023-1.25 2.281 0.508 0.254 1.316-0.145 1.438-0.223 0.254-0.156 0.516-0.383 0.406 0.066-0.215 0.918-1.191 3.125 0.156 2.656 0.164-0.094 2.332-2.484 2.594-2.566 4.313 1.125 9.137 0.609 10.03 0.191 0.465 0.031 1.781 0.859 2.531 1.254 0.75 0.391 2.793 1.371 2.188-0.41-0.188-0.563-1.531-2-1.313-2.094 0.48-0.191 1.668 0.496 2.125 0.625 1.367 0.383 1.551-0.148 0.688-1.316-0.852-1.168-0.98-0.988-1.25-1.527-0.211-0.434 0-0.914 0.156-1.031 0.277-0.211 4.359-2.477 5.316-3.344 1.418-1.289 0-2.898-0.348-3.125-2.941-2.117-5.961-1.664-6-2-0.02-0.383-0.012-1.488-0.063-1.871-0.293-2.594-1.492-1.941-1.656-1.941-1.199 0.188-0.758 2.023-0.25 3.75 0.039 0.441-0.418 0.246-0.688-0.219-0.922-2.473-1.309-2.43-1.563-2.504-0.246-0.055-1.113 0.473-1.098 1.473 4e-3 0.285 0.344 1.645 0.344 2.063-0.566 0.496-0.594 1.621-1.188 2.031-1.73 0.359-5.887-0.855-6.406-0.91-1.797-0.336-2.582 1.012-2.871 0.688-2.332-2.672-5.895-4.656-7.438-5-0.598-0.129-2.617-1.02-3.344-1.469-0.117-0.07-0.25-0.121-0.379-0.188m32.07 2.344c-0.563 0.605-0.465 2.867-0.348 2.848 0.574-0.117 0.52-3.03 0.348-2.848m1.629 0.344c-0.066-0.184-1.547 1.895-1.285 2.66 0.117 0.332 1.484-2.078 1.285-2.66m-7.691 3.535c0.02-0.02 0.043 8e-3 0.066 0.031 0.172 0.57 0.363 1.113 1.496 1.25 0.133 0.016-0.629 0.461-1.152 0.188-0.477-0.289-0.52-1.34-0.41-1.469m2.938 2.871c0.105-0.016 0.18-0.012 0.254 0 0.277 0.07-2.01 1.262-2.188 1.098-0.109-0.105 1.219-0.965 1.938-1.098m0.594 0.754c0.238 0.02-1.324 1.637-1.5 1.469-0.129-0.117 1.012-1.508 1.5-1.469" style="opacity:.1"/>
 <path d="m6.281 14.5c-0.074 0.145-0.148 0.289-0.219 0.434 1.125 0.625 4.367 2.254 5.906 3.219 1.945 1.191 4.574 3.621 4.781 4.03-2.023 3.523-1.105 6.641-1.344 6.973-0.172 0.277-1.762 2.023-1.25 2.281 0.508 0.254 1.316-0.145 1.438-0.223 0.254-0.156 0.516-0.383 0.406 0.066-0.215 0.918-1.191 3.125 0.156 2.656 0.164-0.094 2.332-2.484 2.594-2.566 4.313 1.125 9.137 0.609 10.03 0.191 0.465 0.031 1.781 0.859 2.531 1.254 0.75 0.391 2.793 1.371 2.188-0.41-0.188-0.563-1.531-2-1.313-2.094 0.48-0.191 1.668 0.496 2.125 0.625 1.367 0.383 1.551-0.148 0.688-1.316-0.852-1.168-0.98-0.988-1.25-1.527-0.211-0.434 0-0.914 0.156-1.031 0.277-0.211 4.359-2.477 5.316-3.344 1.418-1.289 0-2.898-0.348-3.125-2.941-2.117-5.961-1.664-6-2-0.02-0.383-0.012-1.488-0.063-1.871-0.293-2.594-1.492-1.941-1.656-1.941-1.199 0.188-0.758 2.023-0.25 3.75 0.039 0.441-0.418 0.246-0.688-0.219-0.922-2.473-1.309-2.43-1.563-2.504-0.246-0.055-1.113 0.473-1.098 1.473 4e-3 0.285 0.344 1.645 0.344 2.063-0.566 0.496-0.594 1.621-1.188 2.031-1.73 0.359-5.887-0.855-6.406-0.91-1.797-0.336-2.582 1.012-2.871 0.688-2.332-2.672-5.895-4.656-7.438-5-0.598-0.129-2.617-1.02-3.344-1.469-0.117-0.07-0.25-0.121-0.379-0.188m32.07 2.344c-0.563 0.605-0.465 2.867-0.348 2.848 0.574-0.117 0.52-3.03 0.348-2.848m1.629 0.344c-0.066-0.184-1.547 1.895-1.285 2.66 0.117 0.332 1.484-2.078 1.285-2.66m-7.691 3.535c0.02-0.02 0.043 8e-3 0.066 0.031 0.172 0.57 0.363 1.113 1.496 1.25 0.133 0.016-0.629 0.461-1.152 0.188-0.477-0.289-0.52-1.34-0.41-1.469m2.938 2.871c0.105-0.016 0.18-0.012 0.254 0 0.277 0.07-2.01 1.262-2.188 1.098-0.109-0.105 1.219-0.965 1.938-1.098m0.594 0.754c0.238 0.02-1.324 1.637-1.5 1.469-0.129-0.117 1.012-1.508 1.5-1.469" style="fill:#f9f9f9"/>
 <path d="m40.03 7.531c3.712 4.084 5.969 9.514 5.969 15.469 0 12.703-10.297 23-23 23-5.954 0-11.384-2.256-15.469-5.969 4.178 4.291 10.01 6.969 16.469 6.969 12.703 0 23-10.298 23-23 0-6.462-2.677-12.291-6.969-16.469z" style="opacity:.1"/>
</svg>
