<svg version="1.1" viewBox="0 0 48 48" xmlns="http://www.w3.org/2000/svg">
 <defs>
  <linearGradient id="bg" x2="0" y1="1" y2="47" gradientUnits="userSpaceOnUse">
   <stop style="stop-color:#f5d6e4" offset="0"/>
   <stop style="stop-color:#f1c6d9" offset="1"/>
  </linearGradient>
 </defs>
 <path d="m36.31 5c5.859 4.062 9.688 10.831 9.688 18.5 0 12.426-10.07 22.5-22.5 22.5-7.669 0-14.438-3.828-18.5-9.688 1.037 1.822 2.306 3.499 3.781 4.969 4.085 3.712 9.514 5.969 15.469 5.969 12.703 0 23-10.298 23-23 0-5.954-2.256-11.384-5.969-15.469-1.469-1.475-3.147-2.744-4.969-3.781zm4.969 3.781c3.854 4.113 6.219 9.637 6.219 15.719 0 12.703-10.297 23-23 23-6.081 0-11.606-2.364-15.719-6.219 4.16 4.144 9.883 6.719 16.219 6.719 12.703 0 23-10.298 23-23 0-6.335-2.575-12.06-6.719-16.219z" style="opacity:.05"/>
 <path d="m41.28 8.781c3.712 4.085 5.969 9.514 5.969 15.469 0 12.703-10.297 23-23 23-5.954 0-11.384-2.256-15.469-5.969 4.113 3.854 9.637 6.219 15.719 6.219 12.703 0 23-10.298 23-23 0-6.081-2.364-11.606-6.219-15.719z" style="opacity:.1"/>
 <path d="m31.25 2.375c8.615 3.154 14.75 11.417 14.75 21.13 0 12.426-10.07 22.5-22.5 22.5-9.708 0-17.971-6.135-21.12-14.75a23 23 0 0 0 44.875-7 23 23 0 0 0-16-21.875z" style="opacity:.2"/>
 <circle cx="24" cy="24" r="23" style="fill:url(#bg)"/>
 <path d="m40.03 7.531c3.712 4.084 5.969 9.514 5.969 15.469 0 12.703-10.297 23-23 23-5.954 0-11.384-2.256-15.469-5.969 4.178 4.291 10.01 6.969 16.469 6.969 12.703 0 23-10.298 23-23 0-6.462-2.677-12.291-6.969-16.469z" style="opacity:.1"/>
 <path d="m25.001 11a5 5 0 0 0-5 5 5 5 0 0 0 5 5 5 5 0 0 0 5-5 5 5 0 0 0-5-5zm-6.3359 8.0176a3 3 0 0 0-1.7852 0.85938 3 3 0 0 0 0 4.2441l3.8789 3.8789-3.8789 3.877a3 3 0 0 0 0 4.2441 3 3 0 0 0 4.2422 0l3.8789-3.8789 3.8789 3.8789a3 3 0 0 0 4.2422 0 3 3 0 0 0 0-4.2441l-3.8789-3.877 3.8789-3.8789a3 3 0 0 0 0-4.2441 3 3 0 0 0-4.2422 0l-3.8789 3.8789-3.8789-3.8789a3 3 0 0 0-2.457-0.85938z" style="opacity:.1"/>
 <path d="m24.001 10a5 5 0 0 0-5 5 5 5 0 0 0 5 5 5 5 0 0 0 5-5 5 5 0 0 0-5-5zm-6.3359 8.0176a3 3 0 0 0-1.7852 0.85938 3 3 0 0 0 0 4.2441l3.8789 3.8789-3.8789 3.877a3 3 0 0 0 0 4.2441 3 3 0 0 0 4.2422 0l3.8789-3.8789 3.8789 3.8789a3 3 0 0 0 4.2422 0 3 3 0 0 0 0-4.2441l-3.8789-3.877 3.8789-3.8789a3 3 0 0 0 0-4.2441 3 3 0 0 0-4.2422 0l-3.8789 3.8789-3.8789-3.8789a3 3 0 0 0-2.457-0.85938z" style="fill:#0da6f2"/>
 <path d="m24.001 12c-1.6569 0-3 1.3431-3 3s1.3431 3 3 3 3-1.3431 3-3-1.3431-3-3-3zm-6 7.9997c-0.2652 0-0.51953 0.10378-0.70703 0.29133-0.39042 0.39051-0.39042 1.0236 0 1.4141l5.293 5.293-5.293 5.293c-0.39042 0.39051-0.39042 1.0236 0 1.4141 0.39051 0.39042 1.0236 0.39042 1.4141 0l5.293-5.293 5.293 5.293c0.39051 0.39042 1.0236 0.39042 1.4141 0 0.39042-0.39051 0.39042-1.0236 0-1.4141l-5.293-5.293 5.293-5.293c0.39042-0.39051 0.39042-1.0236 0-1.4141-0.1875-0.18755-0.44183-0.29133-0.70703-0.29133s-0.51953 0.10378-0.70703 0.29133l-5.293 5.293-5.293-5.293c-0.1875-0.18755-0.44183-0.29133-0.70703-0.29133z" style="fill:#f45d62"/>
</svg>
