<svg version="1.1" viewBox="0 0 48 48" xmlns="http://www.w3.org/2000/svg">
 <defs>
  <linearGradient id="bg" x1="1" x2="47" gradientTransform="matrix(0 -1 1 0 -1.5e-6 48)" gradientUnits="userSpaceOnUse">
   <stop style="stop-color:#5dbacb" offset="0"/>
   <stop style="stop-color:#6cc0d0" offset="1"/>
  </linearGradient>
 </defs>
 <path d="m36.31 5c5.859 4.062 9.688 10.831 9.688 18.5 0 12.426-10.07 22.5-22.5 22.5-7.669 0-14.438-3.828-18.5-9.688 1.037 1.822 2.306 3.499 3.781 4.969 4.085 3.712 9.514 5.969 15.469 5.969 12.703 0 23-10.298 23-23 0-5.954-2.256-11.384-5.969-15.469-1.469-1.475-3.147-2.744-4.969-3.781zm4.969 3.781c3.854 4.113 6.219 9.637 6.219 15.719 0 12.703-10.297 23-23 23-6.081 0-11.606-2.364-15.719-6.219 4.16 4.144 9.883 6.719 16.219 6.719 12.703 0 23-10.298 23-23 0-6.335-2.575-12.06-6.719-16.219z" style="opacity:.05"/>
 <path d="m41.28 8.781c3.712 4.085 5.969 9.514 5.969 15.469 0 12.703-10.297 23-23 23-5.954 0-11.384-2.256-15.469-5.969 4.113 3.854 9.637 6.219 15.719 6.219 12.703 0 23-10.298 23-23 0-6.081-2.364-11.606-6.219-15.719z" style="opacity:.1"/>
 <path d="m31.25 2.375c8.615 3.154 14.75 11.417 14.75 21.13 0 12.426-10.07 22.5-22.5 22.5-9.708 0-17.971-6.135-21.12-14.75a23 23 0 0 0 44.875-7 23 23 0 0 0-16-21.875z" style="opacity:.2"/>
 <path d="m24 1c12.703 0 23 10.297 23 23s-10.297 23-23 23-23-10.297-23-23 10.297-23 23-23z" style="fill:url(#bg)"/>
 <path d="m31.859 14c-5.1857 0-6.1499 7-3.2305 7 2.9154 0 8.4172-7 3.2305-7zm-7.6953 1.5c-0.08356-3.58e-4 -0.17101 0.0051-0.26367 0.01563-2.957 0.34029-1.9613 4.899-0.38477 4.9824 1.5273 0.08444 3.2387-4.987 0.64844-4.998zm-5.0275 1.4998c-0.02923 8.09e-4 -0.05958 0.0026-0.08984 0.0059-0.13184 0.01723-0.30205 0.07554-0.44922 0.13477-2.367 1.0057-0.3636 5.1235 0.96094 4.8457 1.2264-0.25655 1.4197-5.0373-0.42188-4.9864zm-3.7557 3.0002c-0.21569-0.0079-0.41934 0.09395-0.66797 0.24805-1.9678 1.2347 0.6398 4.1624 1.7969 3.7031 1.0126-0.40499 0.3703-3.9087-1.1289-3.9512zm10.619 2c-4 0-10 2.625-10 6.5 0 5 3.832 9.5 9 9.5 2.543 0 6-1.4326 6-4.5-4e-6 -2.5-5-1.5-5 0s-1.1626 2.1761-2.6 1c-5.5-4.5 6.6-5 6.6-9.5 0-1.5-1-3-4-3z" style="opacity:.1"/>
 <path d="m40.03 7.531c3.712 4.084 5.969 9.514 5.969 15.469 0 12.703-10.297 23-23 23-5.954 0-11.384-2.256-15.469-5.969 4.178 4.291 10.01 6.969 16.469 6.969 12.703 0 23-10.298 23-23 0-6.462-2.677-12.291-6.969-16.469z" style="opacity:.1"/>
 <path d="m30.859 13c-5.1857 0-6.1499 7-3.2305 7 2.9154 0 8.4172-7 3.2305-7zm-7.6953 1.5c-0.08356-3.58e-4 -0.17101 0.0051-0.26367 0.01563-2.957 0.34029-1.9613 4.899-0.38477 4.9824 1.5273 0.08444 3.2387-4.987 0.64844-4.998zm-5.0275 1.4998c-0.02923 8.09e-4 -0.05958 0.0026-0.08984 0.0059-0.13184 0.01723-0.30205 0.07554-0.44922 0.13477-2.367 1.0057-0.3636 5.1235 0.96094 4.8457 1.2264-0.25655 1.4197-5.0373-0.42188-4.9864zm-3.7557 3.0002c-0.21569-0.0079-0.41934 0.09395-0.66797 0.24805-1.9678 1.2347 0.6398 4.1624 1.7969 3.7031 1.0126-0.40499 0.3703-3.9087-1.1289-3.9512zm10.619 2c-4 0-10 2.625-10 6.5 0 5 3.832 9.5 9 9.5 2.543 0 6-1.4326 6-4.5-4e-6 -2.5-5-1.5-5 0s-1.1626 2.1761-2.6 1c-5.5-4.5 6.6-5 6.6-9.5 0-1.5-1-3-4-3z" style="fill:#f9f9f9"/>
</svg>
