<svg xmlns="http://www.w3.org/2000/svg" viewBox="0 0 48 48">
 <defs>
  <linearGradient id="linearGradient3764" x1="1" x2="47" gradientUnits="userSpaceOnUse" gradientTransform="matrix(0,-1,1,0,-1.5e-6,47.999998)">
   <stop style="stop-color:#204b86;stop-opacity:1"/>
   <stop offset="1" style="stop-color:#245395;stop-opacity:1"/>
  </linearGradient>
 </defs>
 <g>
  <path d="m 36.31 5 c 5.859 4.062 9.688 10.831 9.688 18.5 c 0 12.426 -10.07 22.5 -22.5 22.5 c -7.669 0 -14.438 -3.828 -18.5 -9.688 c 1.037 1.822 2.306 3.499 3.781 4.969 c 4.085 3.712 9.514 5.969 15.469 5.969 c 12.703 0 23 -10.298 23 -23 c 0 -5.954 -2.256 -11.384 -5.969 -15.469 c -1.469 -1.475 -3.147 -2.744 -4.969 -3.781 z m 4.969 3.781 c 3.854 4.113 6.219 9.637 6.219 15.719 c 0 12.703 -10.297 23 -23 23 c -6.081 0 -11.606 -2.364 -15.719 -6.219 c 4.16 4.144 9.883 6.719 16.219 6.719 c 12.703 0 23 -10.298 23 -23 c 0 -6.335 -2.575 -12.06 -6.719 -16.219 z" style="opacity:0.05"/>
  <path d="m 41.28 8.781 c 3.712 4.085 5.969 9.514 5.969 15.469 c 0 12.703 -10.297 23 -23 23 c -5.954 0 -11.384 -2.256 -15.469 -5.969 c 4.113 3.854 9.637 6.219 15.719 6.219 c 12.703 0 23 -10.298 23 -23 c 0 -6.081 -2.364 -11.606 -6.219 -15.719 z" style="opacity:0.1"/>
  <path d="m 31.25 2.375 c 8.615 3.154 14.75 11.417 14.75 21.13 c 0 12.426 -10.07 22.5 -22.5 22.5 c -9.708 0 -17.971 -6.135 -21.12 -14.75 a 23 23 0 0 0 44.875 -7 a 23 23 0 0 0 -16 -21.875 z" style="opacity:0.2"/>
 </g>
 <g>
  <path d="m 24 1 c 12.703 0 23 10.297 23 23 c 0 12.703 -10.297 23 -23 23 -12.703 0 -23 -10.297 -23 -23 0 -12.703 10.297 -23 23 -23 z" style="fill:url(#linearGradient3764);fill-opacity:1"/>
 </g>
 <g>
  <g>
   <g transform="translate(1,1)">
    <g style="opacity:0.1">
     <!-- color: #245395 -->
     <g>
      <path d="m 29.984 21.262 c -1.473 -1.711 -2.797 -2.816 -4.758 0.063 c -1.172 1.711 -8.176 11.527 -9.461 13.09 c -0.375 0.453 -0.594 0.766 -0.879 0.953 c 0 -0.621 4.84 -8.512 6.191 -10.797 c 1.629 -2.746 1.578 -2.586 1.383 -2.586 c -0.277 0 -0.836 0.418 -1.691 1.355 c -1.555 1.707 -6.164 8.07 -6.484 7.973 c 0.109 -0.461 3.719 -6.156 5.355 -8.512 c 1.41 -2.031 0.871 -2.188 0.063 -1.988 c -3.445 0.848 -7.57 2.891 -7.703 2.816 c 0.051 -0.105 13.887 -10.117 15.738 -10.309 c 0.215 -0.023 0.668 -0.418 1.477 -0.75 c 0.879 -0.355 1.469 -0.648 1.617 -0.555 c -0.645 0.926 -0.98 1.113 -0.988 1.41 c -0.008 0.488 -0.176 1.277 -0.363 1.531 c 3.578 2.453 4.973 10.809 5.992 17.535 c 0.242 1.594 0.469 2.797 0.527 3.508 c -0.301 -0.801 -3.16 -11.422 -6.02 -14.738 m 0 0" style="fill:#000;fill-opacity:1;stroke:none;fill-rule:nonzero"/>
     </g>
    </g>
   </g>
  </g>
 </g>
 <g>
  <g>
   <!-- color: #245395 -->
   <g>
    <path d="m 29.984 21.262 c -1.473 -1.711 -2.797 -2.816 -4.758 0.063 c -1.172 1.711 -8.176 11.527 -9.461 13.09 c -0.375 0.453 -0.594 0.766 -0.879 0.953 c 0 -0.621 4.84 -8.512 6.191 -10.797 c 1.629 -2.746 1.578 -2.586 1.383 -2.586 c -0.277 0 -0.836 0.418 -1.691 1.355 c -1.555 1.707 -6.164 8.07 -6.484 7.973 c 0.109 -0.461 3.719 -6.156 5.355 -8.512 c 1.41 -2.031 0.871 -2.188 0.063 -1.988 c -3.445 0.848 -7.57 2.891 -7.703 2.816 c 0.051 -0.105 13.887 -10.117 15.738 -10.309 c 0.215 -0.023 0.668 -0.418 1.477 -0.75 c 0.879 -0.355 1.469 -0.648 1.617 -0.555 c -0.645 0.926 -0.98 1.113 -0.988 1.41 c -0.008 0.488 -0.176 1.277 -0.363 1.531 c 3.578 2.453 4.973 10.809 5.992 17.535 c 0.242 1.594 0.469 2.797 0.527 3.508 c -0.301 -0.801 -3.16 -11.422 -6.02 -14.738 m 0 0" style="fill:#fff;fill-opacity:1;stroke:none;fill-rule:nonzero"/>
   </g>
  </g>
 </g>
 <g>
  <path d="m 40.03 7.531 c 3.712 4.084 5.969 9.514 5.969 15.469 0 12.703 -10.297 23 -23 23 c -5.954 0 -11.384 -2.256 -15.469 -5.969 4.178 4.291 10.01 6.969 16.469 6.969 c 12.703 0 23 -10.298 23 -23 0 -6.462 -2.677 -12.291 -6.969 -16.469 z" style="opacity:0.1"/>
 </g>
</svg>
