<svg version="1.1" viewBox="0 0 48 48" xmlns="http://www.w3.org/2000/svg">
 <defs>
  <linearGradient id="bg" x2="0" y1="1" y2="47" gradientUnits="userSpaceOnUse">
   <stop style="stop-color:#2d4b58" offset="0"/>
   <stop style="stop-color:#263f4a" offset="1"/>
  </linearGradient>
 </defs>
 <path d="m36.3 5c5.86 4.06 9.69 10.8 9.69 18.5 0 12.4-10.1 22.5-22.5 22.5-7.67 0-14.4-3.83-18.5-9.69 1.04 1.82 2.31 3.5 3.78 4.97 4.08 3.71 9.51 5.97 15.5 5.97 12.7 0 23-10.3 23-23 0-5.95-2.26-11.4-5.97-15.5-1.47-1.48-3.15-2.74-4.97-3.78zm4.97 3.78c3.85 4.11 6.22 9.64 6.22 15.7 0 12.7-10.3 23-23 23-6.08 0-11.6-2.36-15.7-6.22 4.16 4.14 9.88 6.72 16.2 6.72 12.7 0 23-10.3 23-23 0-6.34-2.58-12.1-6.72-16.2z" style="opacity:.05"/>
 <path d="m41.3 8.78c3.71 4.08 5.97 9.51 5.97 15.5 0 12.7-10.3 23-23 23-5.95 0-11.4-2.26-15.5-5.97 4.11 3.85 9.64 6.22 15.7 6.22 12.7 0 23-10.3 23-23 0-6.08-2.36-11.6-6.22-15.7z" style="opacity:.1"/>
 <path d="m31.2 2.38c8.62 3.15 14.8 11.4 14.8 21.1 0 12.4-10.1 22.5-22.5 22.5-9.71 0-18-6.14-21.1-14.8a23 23 0 0 0 44.9-7 23 23 0 0 0-16-21.9z" style="opacity:.2"/>
 <circle cx="24" cy="24" r="23" style="fill:url(#bg)"/>
 <path d="m40 7.53c3.71 4.08 5.97 9.51 5.97 15.5 0 12.7-10.3 23-23 23-5.95 0-11.4-2.26-15.5-5.97 4.18 4.29 10 6.97 16.5 6.97 12.7 0 23-10.3 23-23 0-6.46-2.68-12.3-6.97-16.5z" style="opacity:.1"/>
 <path d="m27.5 13c-2.49 0-4.5 2.01-4.5 4.5 0 0.847 0.307 1.69 1 2.5 0 0 0.0012-0.693 0-1 0-2.49 1.57-4 3.5-4 1.21 0 2.5 0.729 2.91 2h8.59v-0.5l-7.78-1.47c-0.8-1.21-2.15-2.03-3.72-2.03zm-13.5 2c-0.64 0.912-1 2-1 3 0 3 1 4 2.5 5h-1.5c0 4 3 6 6 6h1v-0.5c-3.27-0.5-4-2.5-4-3.5l7 1v-1s-6.02-0.978-7-2c-0.624-0.652-1-1.33-1-2v-3l9 6v-1zm15 4v3c1 1 2 2 2 6 0 2.76-2.24 5-5 5h-5v6l2-4h3c3.87 0 7-3.13 7-7 0-4-2-5.35-3-6.5v-1.5z" style="opacity:.1;paint-order:normal"/>
 <path d="m26.5 12c-2.49 0-4.5 2.01-4.5 4.5 0 0.847 0.307 1.69 1 2.5 0 0 0.0012-0.693 0-1 0-2.49 1.57-4 3.5-4 1.21 0 2.5 0.729 2.91 2h8.59v-0.5l-7.78-1.47c-0.8-1.21-2.15-2.03-3.72-2.03z" style="fill:#f9f9f9;paint-order:normal"/>
 <path d="m13 14c-0.64 0.912-1 2-1 3 0 3 1 4 2.5 5h-1.5c0 4 3 6 6 6h1v-0.5c-3.27-0.5-4-2.5-4-3.5l7 1v-1s-6.02-0.978-7-2c-0.624-0.652-1-1.33-1-2v-3l9 6v-1zm15 4v3c1 1 2 2 2 6 0 2.76-2.24 5-5 5h-5v6l2-4h3c3.87 0 7-3.13 7-7 0-4-2-5.35-3-6.5v-1.5z" style="fill:#0e9ada;paint-order:normal"/>
</svg>
