<svg xmlns="http://www.w3.org/2000/svg" viewBox="0 0 48 48">
 <defs>
  <linearGradient id="linearGradient3764" x1="1" x2="47" gradientUnits="userSpaceOnUse" gradientTransform="matrix(0,-1,1,0,-1.5e-6,47.999998)">
   <stop style="stop-color:#dd524b;stop-opacity:1"/>
   <stop offset="1" style="stop-color:#e0625c;stop-opacity:1"/>
  </linearGradient>
 </defs>
 <g>
  <path d="m 36.31 5 c 5.859 4.062 9.688 10.831 9.688 18.5 c 0 12.426 -10.07 22.5 -22.5 22.5 c -7.669 0 -14.438 -3.828 -18.5 -9.688 c 1.037 1.822 2.306 3.499 3.781 4.969 c 4.085 3.712 9.514 5.969 15.469 5.969 c 12.703 0 23 -10.298 23 -23 c 0 -5.954 -2.256 -11.384 -5.969 -15.469 c -1.469 -1.475 -3.147 -2.744 -4.969 -3.781 z m 4.969 3.781 c 3.854 4.113 6.219 9.637 6.219 15.719 c 0 12.703 -10.297 23 -23 23 c -6.081 0 -11.606 -2.364 -15.719 -6.219 c 4.16 4.144 9.883 6.719 16.219 6.719 c 12.703 0 23 -10.298 23 -23 c 0 -6.335 -2.575 -12.06 -6.719 -16.219 z" style="opacity:0.05"/>
  <path d="m 41.28 8.781 c 3.712 4.085 5.969 9.514 5.969 15.469 c 0 12.703 -10.297 23 -23 23 c -5.954 0 -11.384 -2.256 -15.469 -5.969 c 4.113 3.854 9.637 6.219 15.719 6.219 c 12.703 0 23 -10.298 23 -23 c 0 -6.081 -2.364 -11.606 -6.219 -15.719 z" style="opacity:0.1"/>
  <path d="m 31.25 2.375 c 8.615 3.154 14.75 11.417 14.75 21.13 c 0 12.426 -10.07 22.5 -22.5 22.5 c -9.708 0 -17.971 -6.135 -21.12 -14.75 a 23 23 0 0 0 44.875 -7 a 23 23 0 0 0 -16 -21.875 z" style="opacity:0.2"/>
 </g>
 <g>
  <path d="m 24 1 c 12.703 0 23 10.297 23 23 c 0 12.703 -10.297 23 -23 23 -12.703 0 -23 -10.297 -23 -23 0 -12.703 10.297 -23 23 -23 z" style="fill:url(#linearGradient3764);fill-opacity:1"/>
 </g>
 <g>
  <g>
   <g transform="translate(1,1)">
    <g style="opacity:0.1">
     <!-- color: #eeeeee -->
    </g>
   </g>
  </g>
 </g>
 <g>
  <path d="m 40.03 7.531 c 3.712 4.084 5.969 9.514 5.969 15.469 0 12.703 -10.297 23 -23 23 c -5.954 0 -11.384 -2.256 -15.469 -5.969 4.178 4.291 10.01 6.969 16.469 6.969 c 12.703 0 23 -10.298 23 -23 0 -6.462 -2.677 -12.291 -6.969 -16.469 z" style="opacity:0.1"/>
 </g>
 <path d="m 25.18 13 c -2.921 -0.055 -6.03 1.127 -6.973 3.455 -0.547 1.295 -0.039 3.613 1.801 3.613 1.074 0 1.568 -0.734 1.646 -1.402 0.063 -0.509 -0.133 -0.962 -0.25 -1.381 -0.133 -0.481 0.422 -1.432 1.053 -1.783 1.892 -1.054 4.611 -0.146 5.609 1.393 0.278 0.456 0.339 0.999 0.254 1.592 l -0.596 0.529 c -0.506 0.45 -0.657 1.136 -0.438 1.729 -0.126 0.12 -0.181 0.374 -0.211 0.672 -0.107 0.175 -0.196 0.349 -0.311 0.523 -0.583 0.891 -1.178 1.844 -1.648 2.838 -0.422 0.061 -0.857 0.097 -1.277 0.08 -1.802 0.078 -3.574 0.457 -4.867 1.613 -0.717 0.641 -6.358 9.778 -5.953 10.504 0.23 0.413 11.844 -4.877 15.572 -7.05 0.569 -0.532 0.623 -0.906 0.516 -1.766 -0.072 -0.585 -0.309 -1.165 -0.506 -1.674 -0.47 -0.695 -0.596 -1.569 -0.521 -2.432 0.025 -0.02 0.044 -0.043 0.07 -0.063 1.114 -0.918 2.194 -1.966 2.928 -3.125 l 5.385 -4.787 c 0.665 -0.591 0.718 -1.595 0.119 -2.252 l -0.27 -0.297 c -0.3 -0.328 -0.704 -0.505 -1.117 -0.527 l 0 -0.002 c -0.413 -0.021 -0.833 0.112 -1.166 0.408 l -2.674 2.377 c -0.954 -1.456 -2.885 -2.491 -4.941 -2.688 -0.403 -0.059 -0.817 -0.092 -1.234 -0.1 z m -0.227 19.715 c -1.773 -0.098 -2.934 1.972 -1.939 3.375 1.023 1.443 3.555 1.104 4.074 -0.566 0.415 -1.335 -0.668 -2.828 -2.137 -2.805 l 0.002 -0.004 z" style="fill:#000;opacity:0.1;fill-opacity:1;stroke:none;fill-rule:evenodd"/>
 <g>
  <path d="m 34.2 12 c -0.413 -0.021 -0.833 0.113 -1.166 0.409 l -6.305 5.605 c -0.506 0.45 -0.655 1.136 -0.436 1.729 -0.443 0.422 -0.119 2.327 -0.231 2.985 -0.139 0.814 -1.823 1.184 -3.217 1.128 -1.802 0.078 -3.575 0.458 -4.868 1.614 -0.717 0.641 -6.358 9.778 -5.953 10.504 0.23 0.413 11.844 -4.878 15.572 -7.05 0.569 -0.532 0.624 -0.906 0.517 -1.766 -0.072 -0.585 -0.31 -1.164 -0.507 -1.673 -0.866 -1.279 -0.583 -3.171 0.016 -4.464 0.521 0.154 1.105 0.05 1.541 -0.337 l 6.305 -5.605 c 0.665 -0.591 0.719 -1.596 0.12 -2.253 l -0.27 -0.296 c -0.3 -0.328 -0.704 -0.506 -1.117 -0.528" style="fill:#5f4645;fill-opacity:1;stroke:none;fill-rule:evenodd"/>
  <path d="m 30.418 14.736 c -1.948 1.569 -6.143 11.866 -6.174 13.439 0 0.856 -0.07 1.15 -0.02 1.494 0.043 0.277 1.419 0.421 1.574 0.113 -0.048 -1.8 0.276 -3.55 1.484 -4.951 -0.438 -1.214 -0.168 -2.721 0.336 -3.809 0.521 0.154 1.105 0.051 1.541 -0.336 l 2.813 -2.502 c 0.006 -0.169 0.026 -0.335 0.012 -0.508 -0.022 -1.137 -0.636 -2.151 -1.566 -2.941 z" style="fill:#000;opacity:0.1;fill-opacity:1;stroke:none;fill-rule:evenodd"/>
  <path d="m 24.798 28.785 c -0.059 -2.179 0.406 -4.294 2.355 -5.792 2.059 -1.697 4.04 -3.817 3.832 -6.316 -0.047 -2.413 -2.703 -4.302 -5.57 -4.575 -3.223 -0.47 -7.125 0.696 -8.207 3.356 -0.547 1.295 -0.039 3.613 1.801 3.613 1.074 0 1.57 -0.735 1.648 -1.404 0.063 -0.509 -0.133 -0.962 -0.25 -1.381 -0.133 -0.481 0.42 -1.432 1.051 -1.783 1.892 -1.054 4.611 -0.146 5.61 1.393 0.77 1.263 -0.078 3.184 -1.301 5.05 -1.219 1.865 -2.527 3.982 -2.523 6.234 0 0.856 -0.07 1.149 -0.02 1.494 0.043 0.277 1.418 0.42 1.574 0.113 m -0.844 2.933 c -1.773 -0.098 -2.933 1.972 -1.938 3.375 1.023 1.443 3.554 1.104 4.074 -0.567 0.415 -1.335 -0.668 -2.827 -2.137 -2.804" style="fill:#f9f9f9;fill-opacity:1;stroke:none;fill-rule:nonzero"/>
 </g>
</svg>
