<svg xmlns="http://www.w3.org/2000/svg" xmlns:xlink="http://www.w3.org/1999/xlink" viewBox="0 0 48 48">
 <defs>
  <linearGradient id="linearGradient3046" y1="1" x2="0" y2="47" gradientUnits="userSpaceOnUse">
   <stop style="stop-color:#ff8275;stop-opacity:1"/>
   <stop offset="1" style="stop-color:#ff7061;stop-opacity:1"/>
  </linearGradient>
  <radialGradient r="5.712" cy="33.31" cx="24.476" gradientTransform="matrix(0.61274648,0,0,0.34322181,8.9947566,19.592214)" gradientUnits="userSpaceOnUse" id="radialGradient4040">
   <stop style="stop-color:#2a4376;stop-opacity:0.784"/>
   <stop offset="1" style="stop-color:#375691;stop-opacity:0.129"/>
  </radialGradient>
  <radialGradient id="radial0-2" gradientUnits="userSpaceOnUse" cx="6.773" cy="5.927" r="0.564" gradientTransform="matrix(3.543307,0,0,3.543307,1.47638e-7,3.77575e-4)">
   <stop style="stop-color:#6b98b5;stop-opacity:1"/>
   <stop offset="1" style="stop-color:#6a97b6;stop-opacity:0.085"/>
  </radialGradient>
  <linearGradient id="linearGradient4180" y1="36.935" x2="0" y2="29.49" gradientUnits="userSpaceOnUse" gradientTransform="matrix(0.46685441,0,0,0.34385152,12.573498,8.3279325)">
   <stop style="stop-color:#225d6c;stop-opacity:1"/>
   <stop offset="1" style="stop-color:#2b7a8f;stop-opacity:0"/>
  </linearGradient>
  <radialGradient xlink:href="#radial0-2" id="radialGradient4037" gradientUnits="userSpaceOnUse" gradientTransform="matrix(2.2145672,0,0,2.2145672,9.2499978,10.125234)" cx="6.773" cy="5.927" r="0.564"/>
  <radialGradient xlink:href="#radial0-2" id="radialGradient4039" gradientUnits="userSpaceOnUse" gradientTransform="matrix(0.75000009,0,0,0.75000009,19.250001,13.280977)" cx="6" cy="17.292" r="1"/>
 </defs>
 <g>
  <path d="m 36.31 5 c 5.859 4.062 9.688 10.831 9.688 18.5 c 0 12.426 -10.07 22.5 -22.5 22.5 c -7.669 0 -14.438 -3.828 -18.5 -9.688 c 1.037 1.822 2.306 3.499 3.781 4.969 c 4.085 3.712 9.514 5.969 15.469 5.969 c 12.703 0 23 -10.298 23 -23 c 0 -5.954 -2.256 -11.384 -5.969 -15.469 c -1.469 -1.475 -3.147 -2.744 -4.969 -3.781 z m 4.969 3.781 c 3.854 4.113 6.219 9.637 6.219 15.719 c 0 12.703 -10.297 23 -23 23 c -6.081 0 -11.606 -2.364 -15.719 -6.219 c 4.16 4.144 9.883 6.719 16.219 6.719 c 12.703 0 23 -10.298 23 -23 c 0 -6.335 -2.575 -12.06 -6.719 -16.219 z" style="opacity:0.05"/>
  <path d="m 41.28 8.781 c 3.712 4.085 5.969 9.514 5.969 15.469 c 0 12.703 -10.297 23 -23 23 c -5.954 0 -11.384 -2.256 -15.469 -5.969 c 4.113 3.854 9.637 6.219 15.719 6.219 c 12.703 0 23 -10.298 23 -23 c 0 -6.081 -2.364 -11.606 -6.219 -15.719 z" style="opacity:0.1"/>
  <path d="m 31.25 2.375 c 8.615 3.154 14.75 11.417 14.75 21.13 c 0 12.426 -10.07 22.5 -22.5 22.5 c -9.708 0 -17.971 -6.135 -21.12 -14.75 a 23 23 0 0 0 44.875 -7 a 23 23 0 0 0 -16 -21.875 z" style="opacity:0.2"/>
 </g>
 <g style="fill:#fea">
  <path d="m 24 1 c 12.703 0 23 10.297 23 23 c 0 12.703 -10.297 23 -23 23 -12.703 0 -23 -10.297 -23 -23 0 -12.703 10.297 -23 23 -23 z" style="fill:url(#linearGradient3046);fill-opacity:1"/>
 </g>
 <g>
  <path d="m 40.03 7.531 c 3.712 4.084 5.969 9.514 5.969 15.469 0 12.703 -10.297 23 -23 23 c -5.954 0 -11.384 -2.256 -15.469 -5.969 4.178 4.291 10.01 6.969 16.469 6.969 c 12.703 0 23 -10.298 23 -23 0 -6.462 -2.677 -12.291 -6.969 -16.469 z" style="opacity:0.1"/>
 </g>
 <g>
  <g>
   <g transform="matrix(0.42306065,0,0,0.42309478,19.346756,10.768588)">
    <g>
     <!-- color: #7ec1ee -->
    </g>
   </g>
  </g>
 </g>
 <path d="m 21.531 13 c -0.48 0 -0.949 0.156 -1.406 0.469 -0.457 0.313 -0.762 0.699 -0.938 1.125 l -0.688 2.406 -3.03 0 c -0.957 0 -1.761 0.34 -2.438 1 c -0.68 0.664 -1.031 1.473 -1.031 2.406 l 0 11.219 c 0 0.934 0.352 1.715 1.031 2.375 0.676 0.66 1.479 1 2.438 1 l 19.06 0 c 0.957 0 1.793 -0.344 2.469 -1 0.676 -0.664 1 -1.445 1 -2.375 l 0 -11.219 c 0 -0.934 -0.324 -1.742 -1 -2.406 -0.676 -0.664 -1.512 -1 -2.469 -1 l -3.03 0 -0.688 -2.406 c -0.168 -0.43 -0.48 -0.809 -0.938 -1.125 c -0.457 -0.313 -0.93 -0.469 -1.406 -0.469" style="fill:#000;fill-opacity:0.118;stroke:none;fill-rule:nonzero"/>
 <g transform="translate(0,-1)">
  <path d="m 20.531 13 c -0.48 0 -0.949 0.156 -1.406 0.469 -0.457 0.313 -0.762 0.699 -0.938 1.125 l -0.688 2.406 -3.03 0 c -0.957 0 -1.761 0.34 -2.438 1 c -0.68 0.664 -1.031 1.473 -1.031 2.406 l 0 11.219 c 0 0.934 0.352 1.715 1.031 2.375 0.676 0.66 1.479 1 2.438 1 l 19.06 0 c 0.957 0 1.793 -0.344 2.469 -1 0.676 -0.664 1 -1.445 1 -2.375 l 0 -11.219 c 0 -0.934 -0.324 -1.742 -1 -2.406 -0.676 -0.664 -1.512 -1 -2.469 -1 l -3.03 0 -0.688 -2.406 c -0.168 -0.43 -0.48 -0.809 -0.938 -1.125 c -0.457 -0.313 -0.93 -0.469 -1.406 -0.469" style="fill:#484848;fill-opacity:1;stroke:none;fill-rule:nonzero"/>
  <path d="m 33 26 c 0 4.417 -3.583 8 -8 8 -4.417 0 -8 -3.583 -8 -8 0 -4.417 3.583 -8 8 -8 4.417 0 8 3.583 8 8 m 0 0" style="fill:#000;fill-opacity:0.1;stroke:none;fill-rule:nonzero"/>
  <path d="m 32 25 c 0 4.417 -3.583 8 -8 8 -4.417 0 -8 -3.583 -8 -8 0 -4.417 3.583 -8 8 -8 c 4.417 0 8 3.583 8 8 m 0 0" style="fill:#2f4f61;fill-opacity:1;stroke:none;fill-rule:nonzero"/>
  <path d="m 24 20 c -2.761 0 -5 2.239 -5 5 0 2.761 2.239 5 5 5 2.761 0 5 -2.239 5 -5 0 -2.761 -2.239 -5 -5 -5 z m 0 1 c 2.209 0 4 1.792 4 4 0 2.209 -1.792 4 -4 4 -2.209 0 -4 -1.792 -4 -4 0 -2.209 1.792 -4 4 -4 z" style="fill:#53687d;fill-opacity:1;stroke:none;fill-rule:nonzero"/>
  <path d="m 24 29.07 c -1.933 0 -3.5 0.87 -3.5 1.953 0 0.516 0.353 0.99 0.935 1.34 0.84 0.282 1.744 0.44 2.685 0.44 0.719 0 1.425 -0.1 2.088 -0.268 c 0.778 -0.36 1.293 -0.903 1.293 -1.512 0 -1.083 -1.567 -1.953 -3.5 -1.953" style="fill:url(#radialGradient4040);fill-opacity:1;stroke:none;fill-rule:nonzero"/>
  <path d="m 25.5 23.25 c 0 0.691 -0.559 1.25 -1.25 1.25 -0.691 0 -1.25 -0.559 -1.25 -1.25 0 -0.691 0.559 -1.25 1.25 -1.25 0.691 0 1.25 0.559 1.25 1.25 m 0 0" style="fill:url(#radialGradient4037);stroke:none;fill-rule:nonzero"/>
  <path d="m 24.5 26.25 c 0 0.413 -0.337 0.75 -0.75 0.75 -0.413 0 -0.75 -0.337 -0.75 -0.75 0 -0.413 0.337 -0.75 0.75 -0.75 0.413 0 0.75 0.337 0.75 0.75 m 0 0" style="fill:url(#radialGradient4039);stroke:none;fill-rule:nonzero"/>
  <ellipse ry="1" rx="2.133" cy="21.34" cx="24" style="fill:#3d7569;fill-opacity:0.586;stroke:none;fill-rule:nonzero"/>
  <ellipse ry="1.12" rx="2.667" cy="19.78" cx="24" style="fill:url(#linearGradient4180);fill-opacity:1;stroke:none;fill-rule:nonzero"/>
 </g>
</svg>
