<svg xmlns="http://www.w3.org/2000/svg" viewBox="0 0 48 48">
 <defs>
  <linearGradient id="linearGradient3764" x1="1" x2="47" gradientUnits="userSpaceOnUse" gradientTransform="matrix(0,-1,1,0,-1.5e-6,47.999998)">
   <stop style="stop-color:#e4e4e4;stop-opacity:1"/>
   <stop offset="1" style="stop-color:#eee;stop-opacity:1"/>
  </linearGradient>
 </defs>
 <g>
  <path d="m 36.31 5 c 5.859 4.062 9.688 10.831 9.688 18.5 c 0 12.426 -10.07 22.5 -22.5 22.5 c -7.669 0 -14.438 -3.828 -18.5 -9.688 c 1.037 1.822 2.306 3.499 3.781 4.969 c 4.085 3.712 9.514 5.969 15.469 5.969 c 12.703 0 23 -10.298 23 -23 c 0 -5.954 -2.256 -11.384 -5.969 -15.469 c -1.469 -1.475 -3.147 -2.744 -4.969 -3.781 z m 4.969 3.781 c 3.854 4.113 6.219 9.637 6.219 15.719 c 0 12.703 -10.297 23 -23 23 c -6.081 0 -11.606 -2.364 -15.719 -6.219 c 4.16 4.144 9.883 6.719 16.219 6.719 c 12.703 0 23 -10.298 23 -23 c 0 -6.335 -2.575 -12.06 -6.719 -16.219 z" style="opacity:0.05"/>
  <path d="m 41.28 8.781 c 3.712 4.085 5.969 9.514 5.969 15.469 c 0 12.703 -10.297 23 -23 23 c -5.954 0 -11.384 -2.256 -15.469 -5.969 c 4.113 3.854 9.637 6.219 15.719 6.219 c 12.703 0 23 -10.298 23 -23 c 0 -6.081 -2.364 -11.606 -6.219 -15.719 z" style="opacity:0.1"/>
  <path d="m 31.25 2.375 c 8.615 3.154 14.75 11.417 14.75 21.13 c 0 12.426 -10.07 22.5 -22.5 22.5 c -9.708 0 -17.971 -6.135 -21.12 -14.75 a 23 23 0 0 0 44.875 -7 a 23 23 0 0 0 -16 -21.875 z" style="opacity:0.2"/>
 </g>
 <g>
  <path d="m 24 1 c 12.703 0 23 10.297 23 23 c 0 12.703 -10.297 23 -23 23 -12.703 0 -23 -10.297 -23 -23 0 -12.703 10.297 -23 23 -23 z" style="fill:url(#linearGradient3764);fill-opacity:1"/>
 </g>
 <g>
  <g>
   <g transform="translate(1,1)">
    <g style="opacity:0.1">
     <!-- color: #eeeeee -->
     <g>
      <path d="m 36 32.32 c 0 1.328 -0.453 2.441 -1.355 3.336 c -0.902 0.895 -2.02 1.344 -3.355 1.344 c -1.543 0 -2.887 -0.566 -4.03 -1.703 l -13.32 -13.203 c -1.289 -1.305 -1.938 -2.84 -1.938 -4.609 c 0 -1.805 0.629 -3.34 1.887 -4.598 c 1.258 -1.258 2.793 -1.887 4.602 -1.887 c 1.813 0 3.363 0.641 4.688 1.922 l 10.371 10.313 c 0.105 0.113 0.172 0.238 0.172 0.375 c 0 0.18 -0.176 0.445 -0.523 0.789 c -0.352 0.344 -0.617 0.52 -0.801 0.52 c -0.148 0 -0.277 -0.059 -0.391 -0.172 l -10.398 -10.328 c -0.895 -0.875 -1.938 -1.313 -3.102 -1.313 c -1.215 0 -2.234 0.426 -3.07 1.277 c -0.832 0.852 -1.25 1.875 -1.25 3.078 c 0 1.191 0.441 2.219 1.305 3.078 l 13.309 13.223 c 0.719 0.715 1.551 1.074 2.48 1.074 c 0.73 0 1.336 -0.242 1.816 -0.719 c 0.48 -0.477 0.719 -1.078 0.719 -1.801 c 0 -0.934 -0.352 -1.754 -1.082 -2.469 l -9.957 -9.883 c -0.301 -0.273 -0.641 -0.41 -1.02 -0.41 c -0.332 0 -0.605 0.109 -0.824 0.324 c -0.215 0.215 -0.324 0.488 -0.324 0.816 c 0 0.363 0.141 0.699 0.426 1 l 7.03 6.977 c 0.113 0.113 0.172 0.238 0.172 0.375 c 0 0.184 -0.18 0.449 -0.531 0.801 c -0.352 0.352 -0.625 0.527 -0.805 0.527 c -0.137 0 -0.262 -0.055 -0.375 -0.168 l -7.03 -6.977 c -0.723 -0.691 -1.082 -1.539 -1.082 -2.539 c 0 -0.93 0.328 -1.719 0.98 -2.367 c 0.645 -0.645 1.445 -0.969 2.379 -0.969 c 1.01 0 1.859 0.355 2.555 1.074 l 9.961 9.883 c 1.145 1.113 1.715 2.449 1.715 4 m 0 0" style="fill:#000;fill-opacity:0.941;stroke:none;fill-rule:nonzero"/>
     </g>
    </g>
   </g>
  </g>
 </g>
 <g>
  <g>
   <!-- color: #eeeeee -->
   <g>
    <path d="m 36 32.32 c 0 1.328 -0.453 2.441 -1.355 3.336 c -0.902 0.895 -2.02 1.344 -3.355 1.344 c -1.543 0 -2.887 -0.566 -4.03 -1.703 l -13.32 -13.203 c -1.289 -1.305 -1.938 -2.84 -1.938 -4.609 c 0 -1.805 0.629 -3.34 1.887 -4.598 c 1.258 -1.258 2.793 -1.887 4.602 -1.887 c 1.813 0 3.363 0.641 4.688 1.922 l 10.371 10.313 c 0.105 0.113 0.172 0.238 0.172 0.375 c 0 0.18 -0.176 0.445 -0.523 0.789 c -0.352 0.344 -0.617 0.52 -0.801 0.52 c -0.148 0 -0.277 -0.059 -0.391 -0.172 l -10.398 -10.328 c -0.895 -0.875 -1.938 -1.313 -3.102 -1.313 c -1.215 0 -2.234 0.426 -3.07 1.277 c -0.832 0.852 -1.25 1.875 -1.25 3.078 c 0 1.191 0.441 2.219 1.305 3.078 l 13.309 13.223 c 0.719 0.715 1.551 1.074 2.48 1.074 c 0.73 0 1.336 -0.242 1.816 -0.719 c 0.48 -0.477 0.719 -1.078 0.719 -1.801 c 0 -0.934 -0.352 -1.754 -1.082 -2.469 l -9.957 -9.883 c -0.301 -0.273 -0.641 -0.41 -1.02 -0.41 c -0.332 0 -0.605 0.109 -0.824 0.324 c -0.215 0.215 -0.324 0.488 -0.324 0.816 c 0 0.363 0.141 0.699 0.426 1 l 7.03 6.977 c 0.113 0.113 0.172 0.238 0.172 0.375 c 0 0.184 -0.18 0.449 -0.531 0.801 c -0.352 0.352 -0.625 0.527 -0.805 0.527 c -0.137 0 -0.262 -0.055 -0.375 -0.168 l -7.03 -6.977 c -0.723 -0.691 -1.082 -1.539 -1.082 -2.539 c 0 -0.93 0.328 -1.719 0.98 -2.367 c 0.645 -0.645 1.445 -0.969 2.379 -0.969 c 1.01 0 1.859 0.355 2.555 1.074 l 9.961 9.883 c 1.145 1.113 1.715 2.449 1.715 4 m 0 0" style="fill:#53535f;fill-opacity:0.941;stroke:none;fill-rule:nonzero"/>
   </g>
  </g>
 </g>
 <g>
  <path d="m 40.03 7.531 c 3.712 4.084 5.969 9.514 5.969 15.469 0 12.703 -10.297 23 -23 23 c -5.954 0 -11.384 -2.256 -15.469 -5.969 4.178 4.291 10.01 6.969 16.469 6.969 c 12.703 0 23 -10.298 23 -23 0 -6.462 -2.677 -12.291 -6.969 -16.469 z" style="opacity:0.1"/>
 </g>
</svg>
