<svg xmlns="http://www.w3.org/2000/svg" viewBox="0 0 48 48">
 <defs>
  <linearGradient id="linearGradient3764" x1="1" x2="47" gradientUnits="userSpaceOnUse" gradientTransform="matrix(0,-1,1,0,-1.5e-6,47.999998)">
   <stop style="stop-color:#3c4e6c;stop-opacity:1"/>
   <stop offset="1" style="stop-color:#43587a;stop-opacity:1"/>
  </linearGradient>
 </defs>
 <g>
  <path d="m 36.31 5 c 5.859 4.062 9.688 10.831 9.688 18.5 c 0 12.426 -10.07 22.5 -22.5 22.5 c -7.669 0 -14.438 -3.828 -18.5 -9.688 c 1.037 1.822 2.306 3.499 3.781 4.969 c 4.085 3.712 9.514 5.969 15.469 5.969 c 12.703 0 23 -10.298 23 -23 c 0 -5.954 -2.256 -11.384 -5.969 -15.469 c -1.469 -1.475 -3.147 -2.744 -4.969 -3.781 z m 4.969 3.781 c 3.854 4.113 6.219 9.637 6.219 15.719 c 0 12.703 -10.297 23 -23 23 c -6.081 0 -11.606 -2.364 -15.719 -6.219 c 4.16 4.144 9.883 6.719 16.219 6.719 c 12.703 0 23 -10.298 23 -23 c 0 -6.335 -2.575 -12.06 -6.719 -16.219 z" style="opacity:0.05"/>
  <path d="m 41.28 8.781 c 3.712 4.085 5.969 9.514 5.969 15.469 c 0 12.703 -10.297 23 -23 23 c -5.954 0 -11.384 -2.256 -15.469 -5.969 c 4.113 3.854 9.637 6.219 15.719 6.219 c 12.703 0 23 -10.298 23 -23 c 0 -6.081 -2.364 -11.606 -6.219 -15.719 z" style="opacity:0.1"/>
  <path d="m 31.25 2.375 c 8.615 3.154 14.75 11.417 14.75 21.13 c 0 12.426 -10.07 22.5 -22.5 22.5 c -9.708 0 -17.971 -6.135 -21.12 -14.75 a 23 23 0 0 0 44.875 -7 a 23 23 0 0 0 -16 -21.875 z" style="opacity:0.2"/>
 </g>
 <g>
  <path d="m 24 1 c 12.703 0 23 10.297 23 23 c 0 12.703 -10.297 23 -23 23 -12.703 0 -23 -10.297 -23 -23 0 -12.703 10.297 -23 23 -23 z" style="fill:url(#linearGradient3764);fill-opacity:1"/>
 </g>
 <g>
  <g>
   <g transform="translate(1,1)">
    <g style="opacity:0.1">
     <!-- color: #43587a -->
    </g>
   </g>
  </g>
 </g>
 <g>
  <g>
   <!-- color: #43587a -->
  </g>
 </g>
 <g>
  <path d="m 40.03 7.531 c 3.712 4.084 5.969 9.514 5.969 15.469 0 12.703 -10.297 23 -23 23 c -5.954 0 -11.384 -2.256 -15.469 -5.969 4.178 4.291 10.01 6.969 16.469 6.969 c 12.703 0 23 -10.298 23 -23 0 -6.462 -2.677 -12.291 -6.969 -16.469 z" style="opacity:0.1"/>
 </g>
 <g transform="matrix(1.125,0,0,1.0832882,-3,-1.9983752)" style="fill:#ff0;fill-opacity:0.63">
  <g style="fill:#ff0;fill-opacity:0.63">
   <!-- color: #43587a -->
   <g style="fill:#ff0;fill-opacity:0.63">
    <path d="m 24 11.999 c -0.489 0 -0.889 0.413 -0.889 0.925 0 0.506 0.4 0.921 0.889 0.921 0.492 0 0.889 -0.413 0.889 -0.925 c 0 -0.509 -0.4 -0.921 -0.889 -0.921 m 2.755 1.846 c -0.489 0 -0.889 0.413 -0.889 0.925 0 0.506 0.4 0.921 0.889 0.921 0.492 0 0.889 -0.413 0.889 -0.925 0 -0.509 -0.4 -0.921 -0.889 -0.921 z m -2.311 0.923 c -0.734 0 -1.333 0.621 -1.333 1.388 0 0.76 0.6 1.381 1.333 1.381 0.737 0 1.333 -0.621 1.333 -1.388 0 -0.763 -0.6 -1.381 -1.333 -1.381 z m 2.667 2.769 c -0.734 0 -1.333 0.621 -1.333 1.388 0 0.76 0.6 1.381 1.333 1.381 0.737 0 1.333 -0.621 1.333 -1.388 0 -0.763 -0.6 -1.381 -1.333 -1.381 z m -4.444 0.923 c -0.734 0 -1.333 0.621 -1.333 1.388 0 0.76 0.6 1.381 1.333 1.381 c 0.737 0 1.333 -0.621 1.333 -1.388 0 -0.763 -0.6 -1.381 -1.333 -1.381 m -2.061 3.189 c -0.265 0 -0.53 0.092 -0.745 0.276 -1.887 1.61 -2.972 4 -2.972 6.559 0 4.653 3.59 8.438 8 8.438 4.41 0 8 -3.786 8 -8.438 0 -2.559 -1.081 -4.95 -2.972 -6.559 -0.429 -0.367 -1.06 -0.367 -1.49 0 -1.016 0.867 -2.237 1.323 -3.538 1.323 -1.297 0 -2.519 -0.456 -3.535 -1.323 -0.217 -0.183 -0.483 -0.276 -0.748 -0.276 z m 0.512 3.054 c 1.083 0.738 2.407 1.141 3.771 1.141 1.364 0 2.69 -0.403 3.773 -1.141 0.998 1.038 1.56 2.444 1.561 3.911 0 3.059 -2.388 5.539 -5.333 5.539 -2.946 0 -5.333 -2.48 -5.333 -5.539 0.002 -1.467 0.564 -2.873 1.562 -3.911 z" style="fill:#000;opacity:0.1;fill-opacity:1;stroke:none;fill-rule:nonzero"/>
    <path d="m 19.18 20.455 c -0.298 0 -0.596 0.1 -0.838 0.299 c -2.123 1.744 -3.344 4.338 -3.344 7.105 0 5.04 4.04 9.141 9 9.141 c 4.961 0 9 -4.101 9 -9.141 0 -2.772 -1.216 -5.362 -3.344 -7.105 -0.483 -0.398 -1.192 -0.398 -1.676 0 c -1.143 0.939 -2.517 1.434 -3.98 1.434 c -1.459 0 -2.834 -0.494 -3.977 -1.434 -0.244 -0.199 -0.544 -0.299 -0.842 -0.299 z m 0.576 3.309 c 1.218 0.799 2.708 1.236 4.242 1.236 c 1.535 0 3.03 -0.437 4.244 -1.236 c 1.123 1.124 1.755 2.647 1.756 4.236 c 0 3.314 -2.686 6 -6 6 -3.314 0 -6 -2.686 -6 -6 0.002 -1.589 0.634 -3.113 1.758 -4.236 z" transform="matrix(0.88888889,0,0,0.92311538,2.6666667,1.8447309)" style="fill:#f9f9f9;fill-opacity:1;stroke:none;fill-rule:nonzero"/>
    <path d="m 23.11 11.08 c -0.489 0 -0.889 0.413 -0.889 0.925 0 0.506 0.4 0.921 0.889 0.921 0.492 0 0.889 -0.413 0.889 -0.925 0 -0.509 -0.4 -0.921 -0.889 -0.921 z m 2.755 1.846 c -0.489 0 -0.889 0.413 -0.889 0.925 0 0.506 0.4 0.921 0.889 0.921 0.492 0 0.889 -0.413 0.889 -0.925 0 -0.509 -0.4 -0.921 -0.889 -0.921 z m -2.311 0.923 c -0.734 0 -1.333 0.621 -1.333 1.388 0 0.76 0.6 1.381 1.333 1.381 0.737 0 1.333 -0.621 1.333 -1.388 0 -0.763 -0.6 -1.381 -1.333 -1.381 z m 2.667 2.769 c -0.734 0 -1.333 0.621 -1.333 1.388 0 0.76 0.6 1.381 1.333 1.381 0.737 0 1.333 -0.621 1.333 -1.388 0 -0.763 -0.6 -1.381 -1.333 -1.381 z m -4.444 0.923 c -0.734 0 -1.333 0.621 -1.333 1.388 0 0.76 0.6 1.381 1.333 1.381 0.737 0 1.333 -0.621 1.333 -1.388 0 -0.763 -0.6 -1.381 -1.333 -1.381 z" style="fill:#f9f9f9;fill-opacity:1;stroke:none;fill-rule:nonzero"/>
   </g>
  </g>
 </g>
</svg>
