<svg xmlns="http://www.w3.org/2000/svg" viewBox="0 0 48 48">
 <defs>
  <linearGradient id="linearGradient3764" x1="1" x2="47" gradientUnits="userSpaceOnUse" gradientTransform="matrix(0,-1,1,0,-1.5e-6,47.999998)">
   <stop style="stop-color:#357ebd;stop-opacity:1"/>
   <stop offset="1" style="stop-color:#428bca;stop-opacity:1"/>
  </linearGradient>
 </defs>
 <g>
  <path d="m 36.31 5 c 5.859 4.062 9.688 10.831 9.688 18.5 c 0 12.426 -10.07 22.5 -22.5 22.5 c -7.669 0 -14.438 -3.828 -18.5 -9.688 c 1.037 1.822 2.306 3.499 3.781 4.969 c 4.085 3.712 9.514 5.969 15.469 5.969 c 12.703 0 23 -10.298 23 -23 c 0 -5.954 -2.256 -11.384 -5.969 -15.469 c -1.469 -1.475 -3.147 -2.744 -4.969 -3.781 z m 4.969 3.781 c 3.854 4.113 6.219 9.637 6.219 15.719 c 0 12.703 -10.297 23 -23 23 c -6.081 0 -11.606 -2.364 -15.719 -6.219 c 4.16 4.144 9.883 6.719 16.219 6.719 c 12.703 0 23 -10.298 23 -23 c 0 -6.335 -2.575 -12.06 -6.719 -16.219 z" style="opacity:0.05"/>
  <path d="m 41.28 8.781 c 3.712 4.085 5.969 9.514 5.969 15.469 c 0 12.703 -10.297 23 -23 23 c -5.954 0 -11.384 -2.256 -15.469 -5.969 c 4.113 3.854 9.637 6.219 15.719 6.219 c 12.703 0 23 -10.298 23 -23 c 0 -6.081 -2.364 -11.606 -6.219 -15.719 z" style="opacity:0.1"/>
  <path d="m 31.25 2.375 c 8.615 3.154 14.75 11.417 14.75 21.13 c 0 12.426 -10.07 22.5 -22.5 22.5 c -9.708 0 -17.971 -6.135 -21.12 -14.75 a 23 23 0 0 0 44.875 -7 a 23 23 0 0 0 -16 -21.875 z" style="opacity:0.2"/>
 </g>
 <g>
  <path d="m 24 1 c 12.703 0 23 10.297 23 23 c 0 12.703 -10.297 23 -23 23 -12.703 0 -23 -10.297 -23 -23 0 -12.703 10.297 -23 23 -23 z" style="fill:url(#linearGradient3764);fill-opacity:1"/>
 </g>
 <g>
  <path d="m 40.03 7.531 c 3.712 4.084 5.969 9.514 5.969 15.469 0 12.703 -10.297 23 -23 23 c -5.954 0 -11.384 -2.256 -15.469 -5.969 4.178 4.291 10.01 6.969 16.469 6.969 c 12.703 0 23 -10.298 23 -23 0 -6.462 -2.677 -12.291 -6.969 -16.469 z" style="opacity:0.1"/>
 </g>
 <path d="m 28.5 13 a 8.5 8.5 0 0 0 -8.5 8.5 8.5 8.5 0 0 0 7.318 8.408 C 27.428 29.455 27.5 28.987 27.5 28.5 c 0 -0.201 -0.026 -0.396 -0.045 -0.592 A 6.5 6.5 0 0 1 22 21.5 6.5 6.5 0 0 1 28.5 15 l 6.5 0 0 6.5 a 6.5 6.5 0 0 1 -4.537 6.189 C 30.487 27.957 30.5 28.23 30.5 28.5 c 0 0.434 -0.036 0.858 -0.096 1.275 A 8.5 8.5 0 0 0 37 21.5 l 0 -8.5 -8.5 0 z m -5.83 7.09 C 22.561 20.542 22.5 21.01 22.5 21.5 c 0 0.2 0.017 0.397 0.037 0.592 A 6.5 6.5 0 0 1 28 28.5 6.5 6.5 0 0 1 21.5 35 l -6.5 0 0 -6.5 a 6.5 6.5 0 0 1 4.541 -6.191 C 19.517 22.04 19.5 21.773 19.5 21.5 c 0 -0.433 0.032 -0.858 0.092 -1.275 A 8.5 8.5 0 0 0 13 28.5 l 0 8.5 8.5 0 A 8.5 8.5 0 0 0 30 28.5 8.5 8.5 0 0 0 22.67 20.09" style="fill:#000;opacity:0.1;fill-opacity:1;stroke:none"/>
 <path d="m 21.67 19.09 c -0.109 0.452 -0.17 0.923 -0.17 1.41 c 0 0.2 0.017 0.397 0.037 0.592 a 6.5 6.5 0 0 1 5.463 6.408 6.5 6.5 0 0 1 -6.5 6.5 l -6.5 0 0 -6.5 a 6.5 6.5 0 0 1 4.541 -6.191 c -0.024 -0.267 -0.041 -0.536 -0.041 -0.809 c 0 -0.433 0.032 -0.858 0.092 -1.275 a 8.5 8.5 0 0 0 -6.592 8.275 l 0 8.5 8.5 0 a 8.5 8.5 0 0 0 8.5 -8.5 8.5 8.5 0 0 0 -7.33 -8.41" style="fill:#f9f9f9;opacity:1;fill-opacity:1;stroke:none"/>
 <path d="m 27.5 12 a 8.5 8.5 0 0 0 -8.5 8.5 8.5 8.5 0 0 0 7.318 8.408 C 26.428 28.455 26.5 27.987 26.5 27.5 c 0 -0.201 -0.026 -0.396 -0.045 -0.592 A 6.5 6.5 0 0 1 21 20.5 6.5 6.5 0 0 1 27.5 14 l 6.5 0 0 6.5 a 6.5 6.5 0 0 1 -4.537 6.189 C 29.487 26.957 29.5 27.23 29.5 27.5 c 0 0.434 -0.036 0.858 -0.096 1.275 A 8.5 8.5 0 0 0 36 20.5 l 0 -8.5 -8.5 0 z" style="fill:#f9f9f9;opacity:1;fill-opacity:1;stroke:none"/>
</svg>
