<svg version="1.1" viewBox="0 0 48 48" xmlns="http://www.w3.org/2000/svg">
 <defs>
  <linearGradient id="bg" x1="1" x2="47" gradientTransform="matrix(0 -1 1 0 -1.5e-6 48)" gradientUnits="userSpaceOnUse">
   <stop style="stop-color:#e1e1e1" offset="0"/>
   <stop style="stop-color:#ebebeb" offset="1"/>
  </linearGradient>
 </defs>
 <path d="m36.31 5c5.859 4.062 9.688 10.831 9.688 18.5 0 12.426-10.07 22.5-22.5 22.5-7.669 0-14.438-3.828-18.5-9.688 1.037 1.822 2.306 3.499 3.781 4.969 4.085 3.712 9.514 5.969 15.469 5.969 12.703 0 23-10.298 23-23 0-5.954-2.256-11.384-5.969-15.469-1.469-1.475-3.147-2.744-4.969-3.781zm4.969 3.781c3.854 4.113 6.219 9.637 6.219 15.719 0 12.703-10.297 23-23 23-6.081 0-11.606-2.364-15.719-6.219 4.16 4.144 9.883 6.719 16.219 6.719 12.703 0 23-10.298 23-23 0-6.335-2.575-12.06-6.719-16.219z" style="opacity:.05"/>
 <path d="m41.28 8.781c3.712 4.085 5.969 9.514 5.969 15.469 0 12.703-10.297 23-23 23-5.954 0-11.384-2.256-15.469-5.969 4.113 3.854 9.637 6.219 15.719 6.219 12.703 0 23-10.298 23-23 0-6.081-2.364-11.606-6.219-15.719z" style="opacity:.1"/>
 <path d="m31.25 2.375c8.615 3.154 14.75 11.417 14.75 21.13 0 12.426-10.07 22.5-22.5 22.5-9.708 0-17.971-6.135-21.12-14.75a23 23 0 0 0 44.875-7 23 23 0 0 0-16-21.875z" style="opacity:.2"/>
 <path d="m24 1c12.703 0 23 10.297 23 23s-10.297 23-23 23-23-10.297-23-23 10.297-23 23-23z" style="fill:url(#bg)"/>
 <path d="m40.03 7.531c3.712 4.084 5.969 9.514 5.969 15.469 0 12.703-10.297 23-23 23-5.954 0-11.384-2.256-15.469-5.969 4.178 4.291 10.01 6.969 16.469 6.969 12.703 0 23-10.298 23-23 0-6.462-2.677-12.291-6.969-16.469z" style="opacity:.1"/>
 <g transform="matrix(.05 0 0 .05 5 -7.6181)" style="opacity:.1">
  <path transform="translate(0 252.36)" d="m400 100c-165.69 0-300 134.31-300 300s134.31 300 300 300 300-134.31 300-300-134.31-300-300-300zm0 25c125.97 0 232.15 84.7 264.72 200.25-28.05 57.852-67.959 109.94-116.56 152.03-23.349 20.22-48.841 38.25-77 50.938-28.16 12.692-59.13 19.893-89.97 18.13-23.17-1.329-46.05-7.782-66.34-19.03 53.77-29.14 102.29-67.983 142-114.5 26.07-30.533 48.875-65.23 57.656-104.41 4.391-19.587 5.135-40.1 1.031-59.75-4.104-19.649-13.189-38.37-26.938-53-13.432-14.288-31.06-24.41-49.969-29.625-18.904-5.215-39.02-5.619-58.31-2.094-38.582 7.05-73.03 29.474-100.66 57.31-48.698 49.07-78.8 118.31-73.28 187.22 2.761 34.456 14.308 68.31 34.09 96.66 4.417 6.327 9.272 12.353 14.469 18.06-28.824 10.09-58.669 17.268-88.94 21.313-25.988-41.993-41-91.49-41-144.5 0-151.88 123.12-275 275-275zm1.75 55.56c19.331 0.026 38.794 5.879 54.22 17.531 13.897 10.499 24.19 25.434 30.03 41.844 5.837 16.409 7.335 34.23 5.344 51.53-3.983 34.605-21.44 66.34-42.531 94.06-37.34 49.09-86.982 88.37-142.19 115.88-5.651 2.815-11.391 5.491-17.16 8.06-12.01-10.512-22.308-22.98-30.16-36.875-16.399-29.03-21.807-63.53-18.625-96.72s14.573-65.19 29.875-94.81c17.742-34.35 41.926-66.89 75.78-85.56 16.927-9.336 36.07-14.964 55.41-14.938zm270.78 182.63c1.611 12.04 2.469 24.329 2.469 36.813 0 151.88-123.12 275-275 275-85.3 0-161.53-38.83-211.97-99.78 31.13-7.07 61.56-17.228 90.75-30.16 12.764 9.72 26.86 17.693 41.844 23.438 43.15 16.543 92.14 14.15 135.81-0.969 43.671-15.12 82.4-42.25 116.16-73.813 40.22-37.595 74.12-81.907 99.94-130.53z"/>
 </g>
 <g transform="matrix(.05 0 0 .05 4 -8.6181)" style="fill:#3d3d3d">
  <path transform="translate(0 252.36)" d="m400 100c-165.69 0-300 134.31-300 300s134.31 300 300 300 300-134.31 300-300-134.31-300-300-300zm0 25c125.97 0 232.15 84.7 264.72 200.25-28.05 57.852-67.959 109.94-116.56 152.03-23.349 20.22-48.841 38.25-77 50.938-28.16 12.692-59.13 19.893-89.97 18.13-23.17-1.329-46.05-7.782-66.34-19.03 53.77-29.14 102.29-67.983 142-114.5 26.07-30.533 48.875-65.23 57.656-104.41 4.391-19.587 5.135-40.1 1.031-59.75-4.104-19.649-13.189-38.37-26.938-53-13.432-14.288-31.06-24.41-49.969-29.625-18.904-5.215-39.02-5.619-58.31-2.094-38.582 7.05-73.03 29.474-100.66 57.31-48.698 49.07-78.8 118.31-73.28 187.22 2.761 34.456 14.308 68.31 34.09 96.66 4.417 6.327 9.272 12.353 14.469 18.06-28.824 10.09-58.669 17.268-88.94 21.313-25.988-41.993-41-91.49-41-144.5 0-151.88 123.12-275 275-275zm1.75 55.56c19.331 0.026 38.794 5.879 54.22 17.531 13.897 10.499 24.19 25.434 30.03 41.844 5.837 16.409 7.335 34.23 5.344 51.53-3.983 34.605-21.44 66.34-42.531 94.06-37.34 49.09-86.982 88.37-142.19 115.88-5.651 2.815-11.391 5.491-17.16 8.06-12.01-10.512-22.308-22.98-30.16-36.875-16.399-29.03-21.807-63.53-18.625-96.72s14.573-65.19 29.875-94.81c17.742-34.35 41.926-66.89 75.78-85.56 16.927-9.336 36.07-14.964 55.41-14.938zm270.78 182.63c1.611 12.04 2.469 24.329 2.469 36.813 0 151.88-123.12 275-275 275-85.3 0-161.53-38.83-211.97-99.78 31.13-7.07 61.56-17.228 90.75-30.16 12.764 9.72 26.86 17.693 41.844 23.438 43.15 16.543 92.14 14.15 135.81-0.969 43.671-15.12 82.4-42.25 116.16-73.813 40.22-37.595 74.12-81.907 99.94-130.53z" style="fill:#3d3d3d"/>
 </g>
</svg>
