<svg version="1.1" viewBox="0 0 48 48" xmlns="http://www.w3.org/2000/svg">
 <defs>
  <linearGradient id="linearGradient840" x1="1" x2="47" gradientUnits="userSpaceOnUse">
   <stop style="stop-color:#e1e1e1" offset="0"/>
   <stop style="stop-color:#ebebeb" offset="1"/>
  </linearGradient>
 </defs>
 <path d="m36.31 5c5.859 4.062 9.688 10.831 9.688 18.5 0 12.426-10.07 22.5-22.5 22.5-7.669 0-14.438-3.828-18.5-9.688 1.037 1.822 2.306 3.499 3.781 4.969 4.085 3.712 9.514 5.969 15.469 5.969 12.703 0 23-10.298 23-23 0-5.954-2.256-11.384-5.969-15.469-1.469-1.475-3.147-2.744-4.969-3.781zm4.969 3.781c3.854 4.113 6.219 9.637 6.219 15.719 0 12.703-10.297 23-23 23-6.081 0-11.606-2.364-15.719-6.219 4.16 4.144 9.883 6.719 16.219 6.719 12.703 0 23-10.298 23-23 0-6.335-2.575-12.06-6.719-16.219z" style="opacity:.05"/>
 <path d="m41.28 8.781c3.712 4.085 5.969 9.514 5.969 15.469 0 12.703-10.297 23-23 23-5.954 0-11.384-2.256-15.469-5.969 4.113 3.854 9.637 6.219 15.719 6.219 12.703 0 23-10.298 23-23 0-6.081-2.364-11.606-6.219-15.719z" style="opacity:.1"/>
 <path d="m31.25 2.375c8.615 3.154 14.75 11.417 14.75 21.13 0 12.426-10.07 22.5-22.5 22.5-9.708 0-17.971-6.135-21.12-14.75a23 23 0 0 0 44.875-7 23 23 0 0 0-16-21.875z" style="opacity:.2"/>
 <g transform="matrix(0,-1,1,0,0,48)" style="fill:#501616">
  <path d="m24 1c12.703 0 23 10.297 23 23s-10.297 23-23 23-23-10.297-23-23 10.297-23 23-23z" style="fill:url(#linearGradient840)"/>
 </g>
 <path d="m30.5 16a1 1 0 0 0-1 1 1 1 0 0 0 1 1 1 1 0 0 0 1-1 1 1 0 0 0-1-1zm-7.5 3a5 5 0 0 0-5 5 5 5 0 0 0 5 5 5 5 0 0 0 5-5 5 5 0 0 0-5-5zm7 0v10h1v-10zm-7 1a4 4 0 0 1 4 4 4 4 0 0 1-4 4 4 4 0 0 1-4-4 4 4 0 0 1 4-4zm12.256 1.6191c-0.01186 0.12789 0.3879 0.21906 1.2148 0.39258 0.63976 0.13424 2.2816 0.42778 3.1797 1.3398 0.27698 0.27862 0.47572 0.68098 0.41992 1.0898-0.04446 0.44897-0.32748 0.88392-0.71094 1.332-1.1094 1.27-2.6369 2.1299-4.7598 3.1602-2.2143 1.0593-4.7506 1.9989-7.7578 2.8203-3.0078 0.81931-5.6678 1.298-8.1133 1.5098-2.3519 0.19034-4.1064 0.22607-5.707-0.30469-0.55788-0.19134-1.0208-0.4229-1.2871-0.78711-0.25568-0.3239-0.2905-0.77362-0.19336-1.1543 0.31057-1.2418 1.5776-2.3251 2.0605-2.7656 0.6243-0.56939 0.92086-0.85288 0.8457-0.95703-1.414 0.83319-2.9901 1.9213-3.5977 3.5684-0.195 0.56548-0.14889 1.1865 0.18359 1.7109 0.40359 0.5707 1.0102 0.92389 1.6113 1.1309 1.946 0.7037 4.0965 0.65935 6.1035 0.50391 2.8272-0.20153 5.6286-0.74484 8.3574-1.4902 2.7294-0.74349 5.4191-1.699 7.957-2.9609 1.8079-0.88518 3.6828-1.9388 5.002-3.5332 0.41274-0.48353 0.7546-1.0944 0.8125-1.791 0.02013-0.62063-0.25386-1.1802-0.70898-1.5684-1.3597-1.1104-3.2709-1.2463-4.9121-1.2461z" style="opacity:.1;paint-order:stroke fill markers"/>
 <path d="m40.03 7.531c3.712 4.084 5.969 9.514 5.969 15.469 0 12.703-10.297 23-23 23-5.954 0-11.384-2.256-15.469-5.969 4.178 4.291 10.01 6.969 16.469 6.969 12.703 0 23-10.298 23-23 0-6.462-2.677-12.291-6.969-16.469z" style="opacity:.1"/>
 <path d="m22 18a5 5 0 0 0-5 5 5 5 0 0 0 5 5 5 5 0 0 0 5-5 5 5 0 0 0-5-5zm0 1a4 4 0 0 1 4 4 4 4 0 0 1-4 4 4 4 0 0 1-4-4 4 4 0 0 1 4-4z" style="fill:#4467aa;paint-order:stroke fill markers"/>
 <path d="m29 18v10h1v-10z" style="fill:#595a5b"/>
 <circle cx="29.5" cy="16" r="1" style="fill:#595a5b;paint-order:stroke fill markers"/>
 <path transform="matrix(.96475 -.26316 .23394 .85764 -4.4326 10.965)" d="m13.216 21.931c0.04509 0.13528-0.31654 0.35296-1.0687 0.78608-0.58188 0.33507-2.0886 1.1376-2.715 2.3933-0.19389 0.38437-0.27891 0.88106-0.11748 1.3083 0.16104 0.47408 0.54801 0.86303 1.0359 1.2358 1e-6 0 1e-6 1e-6 1e-6 1e-6 1.4045 1.0498 3.1048 1.5297 5.4239 2.0194l2e-6 1e-6c2.415 0.49415 5.1084 0.76257 8.2258 0.76382h5e-6c3.1174-0.0013 5.8108-0.26967 8.2258-0.76382 2.3191-0.48968 4.0194-0.96954 5.4239-2.0194 0.48787-0.3728 0.87484-0.76175 1.0359-1.2358 0.16143-0.4272 0.07642-0.9239-0.11748-1.3083-0.6264-1.2557-2.1331-2.0582-2.715-2.3933-0.75214-0.43311-1.1138-0.6508-1.0687-0.78608 1.5834 0.48564 3.3907 1.1979 4.4103 2.8054 0.33694 0.55596 0.45515 1.2456 0.2724 1.9131-1e-6 1e-6 -1e-6 1e-6 -1e-6 2e-6 -0.23917 0.73883-0.73091 1.2996-1.2563 1.7021h-1e-6c-1.6922 1.3398-3.7778 1.9293-5.755 2.3547h-1e-6c-2.7806 0.61823-5.627 0.85721-8.4558 0.8561-2.8288 0.0011-5.6753-0.23788-8.4558-0.8561l-3e-6 -1e-6c-1.9771-0.42544-4.0628-1.015-5.755-2.3547-7e-7 -1e-6 -1.3e-6 -1e-6 -2e-6 -2e-6 -0.52544-0.40256-1.0172-0.9633-1.2563-1.7021-3e-7 -1e-6 -6e-7 -2e-6 -9e-7 -3e-6 -0.18275-0.66758-0.064543-1.3572 0.2724-1.9131 1.0196-1.6076 2.8269-2.3198 4.4103-2.8055z" style="fill:#656668;paint-order:stroke fill markers"/>
</svg>
