<svg version="1.1" viewBox="0 0 48 48" xmlns="http://www.w3.org/2000/svg">
 <defs>
  <linearGradient id="bg" x2="0" y1="1" y2="47" gradientUnits="userSpaceOnUse">
   <stop style="stop-color:#2b484f" offset="0"/>
   <stop style="stop-color:#243c42" offset="1"/>
  </linearGradient>
 </defs>
 <path d="m36.31 5c5.859 4.062 9.688 10.831 9.688 18.5 0 12.426-10.07 22.5-22.5 22.5-7.669 0-14.438-3.828-18.5-9.688 1.037 1.822 2.306 3.499 3.781 4.969 4.085 3.712 9.514 5.969 15.469 5.969 12.703 0 23-10.298 23-23 0-5.954-2.256-11.384-5.969-15.469-1.469-1.475-3.147-2.744-4.969-3.781zm4.969 3.781c3.854 4.113 6.219 9.637 6.219 15.719 0 12.703-10.297 23-23 23-6.081 0-11.606-2.364-15.719-6.219 4.16 4.144 9.883 6.719 16.219 6.719 12.703 0 23-10.298 23-23 0-6.335-2.575-12.06-6.719-16.219z" style="opacity:.05"/>
 <path d="m41.28 8.781c3.712 4.085 5.969 9.514 5.969 15.469 0 12.703-10.297 23-23 23-5.954 0-11.384-2.256-15.469-5.969 4.113 3.854 9.637 6.219 15.719 6.219 12.703 0 23-10.298 23-23 0-6.081-2.364-11.606-6.219-15.719z" style="opacity:.1"/>
 <path d="m31.25 2.375c8.615 3.154 14.75 11.417 14.75 21.13 0 12.426-10.07 22.5-22.5 22.5-9.708 0-17.971-6.135-21.12-14.75a23 23 0 0 0 44.875-7 23 23 0 0 0-16-21.875z" style="opacity:.2"/>
 <circle cx="24" cy="24" r="23" style="fill:url(#bg)"/>
 <path d="m40.03 7.531c3.712 4.084 5.969 9.514 5.969 15.469 0 12.703-10.297 23-23 23-5.954 0-11.384-2.256-15.469-5.969 4.178 4.291 10.01 6.969 16.469 6.969 12.703 0 23-10.298 23-23 0-6.462-2.677-12.291-6.969-16.469z" style="opacity:.1"/>
 <path d="m17.273 12-3.123 5.5801 3.2402 1.8711 2.1094-3.4512h4.5v-4zm8.7266 0v4h4.5l2.1094 3.4512 3.2402-1.8711-3.123-5.5801zm-5.5 6-1.5215 2.3672 2.877 1.6621 0.64453-1.0293h1.5v-3zm5.5 0v3h1.5l0.64453 1.0293 2.877-1.6621-1.5215-2.3672zm-12.826 1.3262-3.1738 5.6738 3.1738 5.6719 3.1719-1.832-2.3457-3.8398 2.3477-3.8418zm23.652 0-3.1738 1.832 2.3477 3.8418-2.3477 3.8398 3.1738 1.832 3.1738-5.6719zm-18.932 2.7246-1.8945 2.9492 1.8945 2.9473 2.9004-1.6758-0.79492-1.2715 0.79688-1.2734zm14.211 2e-3 -2.9004 1.6738 0.79492 1.2734-0.79492 1.2734 2.9004 1.6738 1.8945-2.9473zm-8.8555 0.94722-1.25 2 1.25 2h3.5l1.25-2-1.25-2zm-1.3945 4.9688-2.8789 1.6621 1.5234 2.3691h3.5v-3h-1.5zm6.2891 0-0.64453 1.0312h-1.5v3h3.5l1.5234-2.3691zm-10.754 2.5781-3.2402 1.8711 3.123 5.582h6.7266v-4h-4.5zm15.219 0-2.1094 3.4531h-4.5v4h6.7266l3.123-5.582z" style="opacity:.1"/>
 <path d="m16.273 11-3.123 5.5801 3.2402 1.8711 2.1094-3.4512h4.5v-4zm8.7266 0v4h4.5l2.1094 3.4512 3.2402-1.8711-3.123-5.5801zm-12.826 7.3262-3.1738 5.6738 3.1738 5.6719 3.1719-1.832-2.3457-3.8398 2.3477-3.8418zm23.652 0-3.1738 1.832 2.3477 3.8418-2.3477 3.8398 3.1738 1.832 3.1738-5.6719zm-19.436 11.221-3.2402 1.8711 3.123 5.582h6.7266v-4h-4.5zm15.219 0-2.1094 3.4531h-4.5v4h6.7266l3.123-5.582z" style="fill:#077d9c"/>
 <path d="m19.5 17-1.5215 2.3672 2.877 1.6621 0.64453-1.0293h1.5v-3zm5.5 0v3h1.5l0.64453 1.0293 2.877-1.6621-1.5215-2.3672zm-8.1055 4.0508-1.8945 2.9492 1.8945 2.9473 2.9004-1.6758-0.79492-1.2715 0.79688-1.2734zm14.211 2e-3 -2.9004 1.6738 0.79492 1.2734-0.79492 1.2734 2.9004 1.6738 1.8945-2.9473zm-10.25 5.916-2.8789 1.6621 1.5234 2.3691h3.5v-3h-1.5zm6.2891 0-0.64453 1.0312h-1.5v3h3.5l1.5234-2.3691z" style="fill:#0a9dc2"/>
 <path d="m22.25 21.999h3.5l1.25 2-1.25 2h-3.5l-1.25-2z" style="fill:#0dc4f2"/>
</svg>
