<svg version="1.1" viewBox="0 0 48 48" xmlns="http://www.w3.org/2000/svg">
 <defs>
  <linearGradient id="linearGradient840" x1="1" x2="47" gradientUnits="userSpaceOnUse">
   <stop style="stop-color:#3c3c3c" offset="0"/>
   <stop style="stop-color:#464646" offset="1"/>
  </linearGradient>
 </defs>
 <path d="m36.31 5c5.859 4.062 9.688 10.831 9.688 18.5 0 12.426-10.07 22.5-22.5 22.5-7.669 0-14.438-3.828-18.5-9.688 1.037 1.822 2.306 3.499 3.781 4.969 4.085 3.712 9.514 5.969 15.469 5.969 12.703 0 23-10.298 23-23 0-5.954-2.256-11.384-5.969-15.469-1.469-1.475-3.147-2.744-4.969-3.781zm4.969 3.781c3.854 4.113 6.219 9.637 6.219 15.719 0 12.703-10.297 23-23 23-6.081 0-11.606-2.364-15.719-6.219 4.16 4.144 9.883 6.719 16.219 6.719 12.703 0 23-10.298 23-23 0-6.335-2.575-12.06-6.719-16.219z" style="opacity:.05"/>
 <path d="m41.28 8.781c3.712 4.085 5.969 9.514 5.969 15.469 0 12.703-10.297 23-23 23-5.954 0-11.384-2.256-15.469-5.969 4.113 3.854 9.637 6.219 15.719 6.219 12.703 0 23-10.298 23-23 0-6.081-2.364-11.606-6.219-15.719z" style="opacity:.1"/>
 <path d="m31.25 2.375c8.615 3.154 14.75 11.417 14.75 21.13 0 12.426-10.07 22.5-22.5 22.5-9.708 0-17.971-6.135-21.12-14.75a23 23 0 0 0 44.875-7 23 23 0 0 0-16-21.875z" style="opacity:.2"/>
 <g transform="matrix(0,-1,1,0,0,48)" style="fill:#501616">
  <path d="m24 1c12.703 0 23 10.297 23 23s-10.297 23-23 23-23-10.297-23-23 10.297-23 23-23z" style="fill:url(#linearGradient840)"/>
 </g>
 <path d="m21.123 13.259c-0.09516-0.01215-0.19038-0.01144-0.28516 2e-3 -2.3138 0.32706-0.25529 2.6658 1.1113 4.8887-0.07091 0.13896-0.19546 0.18801-0.32812 0.26172-1.4075-0.65778-3.2591-3.4406-5.0859-2.6484-0.62898 0.27274-0.84063 0.95933-0.70703 1.3535 0.71856 2.1202 2.3704 2.8236 3.8164 3.8262-1.3783 2.869 1.5899 5.8169 1.0273 8.5312-0.20528 0.99056-0.25366 1.9256-0.10938 2.7773-0.02768 0.01681-0.058 0.02446-0.08398 0.04687-0.64044 0.5526-0.72592 0.16953-0.91602 0.9082-0.02428 0.09434-0.42906 0.33626-0.13086 0.82617-0.20349 0.27998-0.24397 0.71947 0.06641 0.83398 0.26477 0.09769 0.51236 0.33916 0.73438 0.4082 0.35479 0.11034 0.70649 0.098 0.9043 0.07422 0.55526-0.06675 1.0636-0.08169 1.5156-0.01563 0.86197 0.54217 2.0034 0.95165 3.5 1.1816 0.60458 0.09291 1.2992 0.34171 1.8848 0.19531 0.74973 0.27948 1.978 0.48282 2.3008-0.43945 1.3111-0.16826 1.2281-1.0315 0.82031-2 1.6696-2.0578 1.0468-3.6021 1.2598-5.3516 0.24004-1.972 0.74356-3.7503 0.61328-5.2031-0.38154-4.2547-4.3467-6.6119-7.9766-6.2773-1.0474-1.093-2.5042-3.9975-3.9316-4.1797z" style="opacity:.1"/>
 <path d="m40.03 7.531c3.712 4.084 5.969 9.514 5.969 15.469 0 12.703-10.297 23-23 23-5.954 0-11.384-2.256-15.469-5.969 4.178 4.291 10.01 6.969 16.469 6.969 12.703 0 23-10.298 23-23 0-6.462-2.677-12.291-6.969-16.469z" style="opacity:.1"/>
 <path d="m20.426 30.989c-0.29465 0.18007-0.67333 0.07343-0.94823 0.31063-0.64044 0.5526-0.72544 0.16869-0.91553 0.90736-0.02428 0.09434-0.429 0.3357-0.13079 0.82561-0.20349 0.27998-0.24497 0.71927 0.0654 0.83379 0.26477 0.09769 0.51368 0.33968 0.73569 0.40872 0.35479 0.11034 0.70546 0.09735 0.90327 0.07357 0.86681-0.1042 1.638-0.10324 2.2193 0.17983-0.56438-1.1544-1.3028-2.5146-1.9292-3.5395z" style="fill:#e6e6e6"/>
 <path d="m19.838 12.262c-2.3138 0.32706-0.2549 2.6655 1.1117 4.8883-0.07091 0.13896-0.1962 0.1878-0.32887 0.26151-1.4075-0.65778-3.2597-3.4395-5.0866-2.6473-0.62898 0.27274-0.83878 0.95837-0.70518 1.3526 0.71856 2.1202 2.3689 2.8239 3.8149 3.8265-1.3783 2.869 1.5914 5.8171 1.0289 8.5315-0.71487 3.4495 0.37068 6.2551 5.4796 7.0402 0.60458 0.09291 1.2988 0.34292 1.8843 0.19653 0.74973 0.27948 1.9777 0.48298 2.3005-0.43929 1.3111-0.16826 1.2286-1.0315 0.82078-1.9999 1.6696-2.0578 1.0471-3.6029 1.2601-5.3524 0.24004-1.972 0.74298-3.7493 0.6127-5.2022-0.38154-4.2547-4.3467-6.6118-7.9766-6.2773-1.1173-1.1658-2.6998-4.3931-4.2163-4.1787z" style="fill:#fff"/>
 <path d="m20.034 18.196c-4.1509-4.3429-5.8888-2.1678-0.76839 1.03 0.3107-0.31458 0.51925-0.67702 0.76839-1.03z" style="fill:#b3b3b3"/>
 <path d="m21.947 16.839c-3.1646-3.8311-2.2736-5.6935 1.406-0.32698-0.34986 0.0159-0.98558 0.11312-1.406 0.32698z" style="fill:#b3b3b3"/>
 <ellipse cx="26.807" cy="23.681" rx=".4782" ry=".58038" style="fill:#b3b3b3;paint-order:stroke fill markers"/>
 <ellipse cx="30.779" cy="22.982" rx=".45368" ry=".5436" style="fill:#b3b3b3;paint-order:stroke fill markers"/>
 <path d="m28.541 26.792c0.22396 0.25863 0.5103 0.57525 0.83969 0.69053 0.10355-0.23333 0.17788-0.48696 0.22097-0.73473-0.09143-0.36571-0.82054-0.25935-1.0607 0.04419z" style="fill:#808080"/>
 <path d="m29.141 26.515-0.01734 1.237 0.17918-0.01156c0.35628-0.34783 0.66475-1.1271 0.20231-1.5028-0.09371 0.08785-0.23586 0.19274-0.36415 0.27745z" style="fill:#999"/>
 <path d="m29.279 26.584c0.05607 0.37506 0.02312 0.78766 0.02312 1.156 0.21982 0.01274 0.44018 0.01647 0.66472 0.0058 0.11307-0.48825 0.10893-0.99778 0.13294-1.526-0.29955 0.05266-0.66408 0.21789-0.82078 0.36415z" style="fill:#ccc"/>
 <path d="m28.805 25.078a0.9564 0.94414 0 0 0-0.95508 0.94531 0.9564 0.94414 0 0 0 0.95508 0.94336 0.9564 0.94414 0 0 0 0.82226-0.46289 0.76431 0.797 0 0 0 0.49024 0.18555 0.76431 0.797 0 0 0 0.76367-0.79688 0.76431 0.797 0 0 0-0.76367-0.79688 0.76431 0.797 0 0 0-0.59766 0.30078 0.9564 0.94414 0 0 0-0.71484-0.31836z" style="fill:#999;paint-order:stroke fill markers"/>
 <ellipse cx="29.545" cy="25.259" rx=".8624" ry=".62943" style="fill:#ccc;paint-order:stroke fill markers"/>
</svg>
