<svg xmlns="http://www.w3.org/2000/svg" viewBox="0 0 48 48">
 <defs>
  <linearGradient id="linearGradient3764" x1="1" x2="47" gradientUnits="userSpaceOnUse" gradientTransform="matrix(0,-1,1,0,-1.5e-6,47.999998)">
   <stop style="stop-color:#0f3f87;stop-opacity:1"/>
   <stop offset="1" style="stop-color:#114799;stop-opacity:1"/>
  </linearGradient>
  <radialGradient id="radialGradient4185" cx="24" cy="24.02" r="15" gradientTransform="matrix(1,0,0,0.99837252,0,0.03909934)" gradientUnits="userSpaceOnUse">
   <stop style="stop-color:#839cc1;stop-opacity:1"/>
   <stop offset="1" style="stop-color:#7692bb;stop-opacity:1"/>
  </radialGradient>
 </defs>
 <g>
  <path d="m 36.31 5 c 5.859 4.062 9.688 10.831 9.688 18.5 c 0 12.426 -10.07 22.5 -22.5 22.5 c -7.669 0 -14.438 -3.828 -18.5 -9.688 c 1.037 1.822 2.306 3.499 3.781 4.969 c 4.085 3.712 9.514 5.969 15.469 5.969 c 12.703 0 23 -10.298 23 -23 c 0 -5.954 -2.256 -11.384 -5.969 -15.469 c -1.469 -1.475 -3.147 -2.744 -4.969 -3.781 z m 4.969 3.781 c 3.854 4.113 6.219 9.637 6.219 15.719 c 0 12.703 -10.297 23 -23 23 c -6.081 0 -11.606 -2.364 -15.719 -6.219 c 4.16 4.144 9.883 6.719 16.219 6.719 c 12.703 0 23 -10.298 23 -23 c 0 -6.335 -2.575 -12.06 -6.719 -16.219 z" style="opacity:0.05"/>
  <path d="m 41.28 8.781 c 3.712 4.085 5.969 9.514 5.969 15.469 c 0 12.703 -10.297 23 -23 23 c -5.954 0 -11.384 -2.256 -15.469 -5.969 c 4.113 3.854 9.637 6.219 15.719 6.219 c 12.703 0 23 -10.298 23 -23 c 0 -6.081 -2.364 -11.606 -6.219 -15.719 z" style="opacity:0.1"/>
  <path d="m 31.25 2.375 c 8.615 3.154 14.75 11.417 14.75 21.13 c 0 12.426 -10.07 22.5 -22.5 22.5 c -9.708 0 -17.971 -6.135 -21.12 -14.75 a 23 23 0 0 0 44.875 -7 a 23 23 0 0 0 -16 -21.875 z" style="opacity:0.2"/>
 </g>
 <g>
  <path d="m 24 1 c 12.703 0 23 10.297 23 23 c 0 12.703 -10.297 23 -23 23 -12.703 0 -23 -10.297 -23 -23 0 -12.703 10.297 -23 23 -23 z" style="fill:url(#linearGradient3764);fill-opacity:1"/>
 </g>
 <g>
  <g>
   <g transform="translate(1,1)">
    <g style="opacity:0.1">
     <!-- color: #abd240 -->
    </g>
   </g>
  </g>
 </g>
 <g>
  <g>
   <!-- color: #abd240 -->
  </g>
 </g>
 <g>
  <path d="m 40.03 7.531 c 3.712 4.084 5.969 9.514 5.969 15.469 0 12.703 -10.297 23 -23 23 c -5.954 0 -11.384 -2.256 -15.469 -5.969 4.178 4.291 10.01 6.969 16.469 6.969 c 12.703 0 23 -10.298 23 -23 0 -6.462 -2.677 -12.291 -6.969 -16.469 z" style="opacity:0.1"/>
 </g>
 <path d="m 25.975 10.05 c -3.548 2.658 -9.43 6.375 -14.197 7.883 a 15 15 0 0 0 -1.777 7.07 15 15 0 0 0 0.439 3.535 c 12.57 -7.737 15.538 -17.05 15.559 -18.486 a 15 15 0 0 0 -0.023 0 z m 3.02 0.51 c -1.368 7.799 -5.341 18.573 -12.467 26.822 a 15 15 0 0 0 8.469 2.619 15 15 0 0 0 2.393 -0.199 c 4.284 -8.903 5.592 -19.362 1.611 -29.24 a 15 15 0 0 0 -0.006 -0.002 z m 3.781 1.637 c 4.03 9.438 4.212 13.815 4.219 21.777 a 15 15 0 0 0 3 -8.973 15 15 0 0 0 -7.221 -12.805" style="fill:#000;opacity:0.1;fill-opacity:1;stroke:none"/>
 <path d="m 24.975 9.05 c -3.548 2.658 -9.43 6.375 -14.197 7.883 a 15 15 0 0 0 -1.777 7.07 15 15 0 0 0 0.439 3.535 c 12.57 -7.737 15.538 -17.05 15.559 -18.486 a 15 15 0 0 0 -0.023 0 z m 3.02 0.51 c -1.368 7.799 -5.341 18.573 -12.467 26.822 a 15 15 0 0 0 8.469 2.619 15 15 0 0 0 2.393 -0.199 c 4.284 -8.903 5.592 -19.362 1.611 -29.24 a 15 15 0 0 0 -0.006 -0.002 z m 3.781 1.637 c 4.03 9.438 4.212 13.815 4.219 21.777 a 15 15 0 0 0 3 -8.973 15 15 0 0 0 -7.221 -12.805" style="fill:url(#radialGradient4185);opacity:1;fill-opacity:1;stroke:none"/>
</svg>
