<svg xmlns="http://www.w3.org/2000/svg" viewBox="0 0 48 48">
 <defs>
  <linearGradient id="linearGradient3764" x1="1" x2="47" gradientUnits="userSpaceOnUse" gradientTransform="matrix(0,-1,1,0,-1.5e-6,47.999998)">
   <stop style="stop-color:#e89544;stop-opacity:1"/>
   <stop offset="1" style="stop-color:#ea9f56;stop-opacity:1"/>
  </linearGradient>
  <radialGradient id="radialGradient4197" cx="22" cy="26.08" r="13.5" gradientTransform="matrix(1,0,0,0.96296296,0,0.88888885)" gradientUnits="userSpaceOnUse">
   <stop style="stop-color:#e9504d;stop-opacity:1"/>
   <stop offset="1" style="stop-color:#e82a27;stop-opacity:1"/>
  </radialGradient>
  <radialGradient id="radialGradient4205" cx="23" cy="25" r="12" gradientUnits="userSpaceOnUse">
   <stop style="stop-color:#c8cacc;stop-opacity:1"/>
   <stop offset="1" style="stop-color:#b1b4b7;stop-opacity:1"/>
  </radialGradient>
 </defs>
 <g>
  <path d="m 36.31 5 c 5.859 4.062 9.688 10.831 9.688 18.5 c 0 12.426 -10.07 22.5 -22.5 22.5 c -7.669 0 -14.438 -3.828 -18.5 -9.688 c 1.037 1.822 2.306 3.499 3.781 4.969 c 4.085 3.712 9.514 5.969 15.469 5.969 c 12.703 0 23 -10.298 23 -23 c 0 -5.954 -2.256 -11.384 -5.969 -15.469 c -1.469 -1.475 -3.147 -2.744 -4.969 -3.781 z m 4.969 3.781 c 3.854 4.113 6.219 9.637 6.219 15.719 c 0 12.703 -10.297 23 -23 23 c -6.081 0 -11.606 -2.364 -15.719 -6.219 c 4.16 4.144 9.883 6.719 16.219 6.719 c 12.703 0 23 -10.298 23 -23 c 0 -6.335 -2.575 -12.06 -6.719 -16.219 z" style="opacity:0.05"/>
  <path d="m 41.28 8.781 c 3.712 4.085 5.969 9.514 5.969 15.469 c 0 12.703 -10.297 23 -23 23 c -5.954 0 -11.384 -2.256 -15.469 -5.969 c 4.113 3.854 9.637 6.219 15.719 6.219 c 12.703 0 23 -10.298 23 -23 c 0 -6.081 -2.364 -11.606 -6.219 -15.719 z" style="opacity:0.1"/>
  <path d="m 31.25 2.375 c 8.615 3.154 14.75 11.417 14.75 21.13 c 0 12.426 -10.07 22.5 -22.5 22.5 c -9.708 0 -17.971 -6.135 -21.12 -14.75 a 23 23 0 0 0 44.875 -7 a 23 23 0 0 0 -16 -21.875 z" style="opacity:0.2"/>
 </g>
 <g>
  <path d="m 24 1 c 12.703 0 23 10.297 23 23 c 0 12.703 -10.297 23 -23 23 -12.703 0 -23 -10.297 -23 -23 0 -12.703 10.297 -23 23 -23 z" style="fill:url(#linearGradient3764);fill-opacity:1"/>
 </g>
 <g>
  <path d="m 40.03 7.531 c 3.712 4.084 5.969 9.514 5.969 15.469 0 12.703 -10.297 23 -23 23 c -5.954 0 -11.384 -2.256 -15.469 -5.969 4.178 4.291 10.01 6.969 16.469 6.969 c 12.703 0 23 -10.298 23 -23 0 -6.462 -2.677 -12.291 -6.969 -16.469 z" style="opacity:0.1"/>
 </g>
 <path d="m 27 12 c -0.452 0.81 -1.293 1.454 -2.336 2.033 c -0.221 -0.017 -0.442 -0.028 -0.664 -0.033 c -4.813 0 -9.16 2.876 -11.04 7.305 c -0.004 0.008 -0.01 0.015 -0.014 0.023 c -0.702 1.392 -0.943 3.02 -0.943 4.672 a 12 12 0 0 0 12 12 a 12 12 0 0 0 12 -12 c 0 -1.672 1.562 -3.207 3 -4.4 c -1.503 -0.068 -2.486 0.222 -3.471 1.088 c -0.434 -1.515 -1.162 -2.929 -2.143 -4.162 c 0.077 -0.711 0.113 -1.396 0.113 -2.025 c 0 -2.02 -0.438 -3.926 -1 -4.5 c -0.378 1.335 -1.114 2.604 -2.229 3.787 c -1.141 -0.703 -2.391 -1.21 -3.699 -1.5 c 0.268 -0.67 0.428 -1.426 0.428 -2.287 z" style="fill:#000;opacity:0.1;fill-opacity:1;stroke:none"/>
 <path d="m 35 25 c 0 6.627 -5.373 11 -12 11 -6.627 0 -12 -4.373 -12 -11 0 -6.627 5.373 -12 12 -12 6.627 0 12 5.373 12 12 z" style="fill:url(#radialGradient4205);opacity:1;fill-opacity:1;stroke:none"/>
 <path d="m 25.758 13.334 c -3.256 2.457 -10.503 3.409 -12.814 7.994 -2.823 15.843 20.807 17.17 22.06 3.672 c -0.004 -0.554 -0.046 -1.108 -0.127 -1.656 -0.694 0.782 -1.442 1.855 -2.416 3.328 c -2.201 3.328 -8.457 5.713 -8.457 4.03 c 0 -1.242 4 -1.699 6.563 -4.838 1.698 -2.08 2.473 -4.633 2.773 -6.93 -0.75 -1.279 -1.731 -2.407 -2.893 -3.328 -1.395 1.55 -3.44 2.953 -6.332 4.125 -1.933 0.784 -3.98 2.898 -4.412 2.271 -0.694 -1 1.204 -2.79 2.701 -3.613 1.654 -0.91 3.734 -2.307 4.389 -4.764 -0.339 -0.112 -0.683 -0.208 -1.031 -0.289 z" style="fill:#000;opacity:0.1;fill-opacity:1;stroke:none"/>
 <path d="m 35 25 c 0 6.627 -5.373 12 -12 12 -6.627 0 -12 -5.373 -12 -12 0 -1.657 0.241 -3.279 0.943 -4.671 c 2.687 -5.329 12.06 -5.747 14.06 -9.329 c 0 3.5 -2.611 5.293 -4.6 6.387 -1.497 0.823 -3.394 2.608 -2.7 3.613 0.433 0.626 2.478 -1.488 4.411 -2.272 5 -2.028 7.539 -4.728 8.389 -7.728 0.563 0.574 1 2.479 1 4.5 0 2.75 -0.605 6.504 -2.938 9.361 c -2.562 3.139 -6.562 3.597 -6.562 4.839 c 0 1.686 6.256 -0.7 8.457 -4.03 2.705 -4.09 3.678 -5.202 6.543 -5.072 -1.438 1.194 -3 2.728 -3 4.4 z" style="fill:url(#radialGradient4197);opacity:1;fill-opacity:1;stroke:none"/>
</svg>
