<svg xmlns="http://www.w3.org/2000/svg" viewBox="0 0 48 48">
 <defs>
  <linearGradient id="linearGradient3764" x1="1" x2="47" gradientUnits="userSpaceOnUse" gradientTransform="matrix(0,-1,1,0,-1.5e-6,47.999998)">
   <stop style="stop-color:#31446f;stop-opacity:1"/>
   <stop offset="1" style="stop-color:#374d7e;stop-opacity:1"/>
  </linearGradient>
 </defs>
 <g>
  <path d="m 36.31 5 c 5.859 4.062 9.688 10.831 9.688 18.5 c 0 12.426 -10.07 22.5 -22.5 22.5 c -7.669 0 -14.438 -3.828 -18.5 -9.688 c 1.037 1.822 2.306 3.499 3.781 4.969 c 4.085 3.712 9.514 5.969 15.469 5.969 c 12.703 0 23 -10.298 23 -23 c 0 -5.954 -2.256 -11.384 -5.969 -15.469 c -1.469 -1.475 -3.147 -2.744 -4.969 -3.781 z m 4.969 3.781 c 3.854 4.113 6.219 9.637 6.219 15.719 c 0 12.703 -10.297 23 -23 23 c -6.081 0 -11.606 -2.364 -15.719 -6.219 c 4.16 4.144 9.883 6.719 16.219 6.719 c 12.703 0 23 -10.298 23 -23 c 0 -6.335 -2.575 -12.06 -6.719 -16.219 z" style="opacity:0.05"/>
  <path d="m 41.28 8.781 c 3.712 4.085 5.969 9.514 5.969 15.469 c 0 12.703 -10.297 23 -23 23 c -5.954 0 -11.384 -2.256 -15.469 -5.969 c 4.113 3.854 9.637 6.219 15.719 6.219 c 12.703 0 23 -10.298 23 -23 c 0 -6.081 -2.364 -11.606 -6.219 -15.719 z" style="opacity:0.1"/>
  <path d="m 31.25 2.375 c 8.615 3.154 14.75 11.417 14.75 21.13 c 0 12.426 -10.07 22.5 -22.5 22.5 c -9.708 0 -17.971 -6.135 -21.12 -14.75 a 23 23 0 0 0 44.875 -7 a 23 23 0 0 0 -16 -21.875 z" style="opacity:0.2"/>
 </g>
 <g>
  <path d="m 24 1 c 12.703 0 23 10.297 23 23 c 0 12.703 -10.297 23 -23 23 -12.703 0 -23 -10.297 -23 -23 0 -12.703 10.297 -23 23 -23 z" style="fill:url(#linearGradient3764);fill-opacity:1"/>
 </g>
 <g>
  <g>
   <g transform="translate(1,1)">
    <g style="opacity:0.1">
     <!-- color: #374d7e -->
     <g>
      <path d="m 31.598 21.715 c -0.828 0.781 -1.117 1.895 -0.863 2.91 c 0.129 0.52 0.402 1.012 0.816 1.422 c 1.227 1.211 3.238 1.234 4.492 0.055 c 1.258 -1.184 1.277 -3.121 0.051 -4.332 c -0.414 -0.41 -0.918 -0.684 -1.453 -0.82 c -1.047 -0.27 -2.211 -0.02 -3.043 0.766 m 0 0" style="fill:#000;fill-opacity:1;stroke:none;fill-rule:evenodd"/>
      <path d="m 21.98 31.617 c -0.691 0.652 -0.934 1.582 -0.723 2.426 c 0.109 0.434 0.336 0.844 0.68 1.188 c 1.023 1.012 2.703 1.027 3.75 0.043 c 1.047 -0.984 1.066 -2.602 0.043 -3.613 c -0.348 -0.34 -0.77 -0.57 -1.215 -0.684 c -0.871 -0.227 -1.844 -0.012 -2.535 0.641 m 0 0" style="fill:#000;fill-opacity:1;stroke:none;fill-rule:evenodd"/>
      <path d="m 26.988 16.73 c -0.742 0.699 -1 1.699 -0.773 2.613 c 0.113 0.465 0.359 0.906 0.73 1.273 c 1.102 1.086 2.906 1.105 4.03 0.047 c 1.125 -1.059 1.145 -2.797 0.043 -3.887 c -0.371 -0.367 -0.824 -0.609 -1.305 -0.734 c -0.941 -0.242 -1.98 -0.016 -2.73 0.688 m 0 0" style="fill:#000;fill-opacity:1;stroke:none;fill-rule:evenodd"/>
      <path d="m 16.832 27.16 c -0.633 0.594 -0.852 1.441 -0.66 2.211 c 0.102 0.395 0.305 0.77 0.621 1.082 c 0.934 0.922 2.465 0.938 3.418 0.039 c 0.953 -0.895 0.969 -2.371 0.039 -3.293 c -0.316 -0.309 -0.699 -0.52 -1.105 -0.621 c -0.797 -0.207 -1.684 -0.016 -2.313 0.582 m 0 0" style="fill:#000;fill-opacity:1;stroke:none;fill-rule:evenodd"/>
      <path d="m 21.852 12.727 c -0.695 0.652 -0.934 1.582 -0.723 2.43 c 0.109 0.43 0.336 0.84 0.68 1.184 c 1.023 1.012 2.703 1.031 3.75 0.043 c 1.047 -0.984 1.066 -2.602 0.039 -3.613 c -0.344 -0.34 -0.766 -0.566 -1.211 -0.684 c -0.871 -0.223 -1.844 -0.012 -2.535 0.641 m 0 0" style="fill:#000;fill-opacity:1;stroke:none;fill-rule:evenodd"/>
      <path d="m 12.699 22.24 c -0.609 0.57 -0.82 1.398 -0.633 2.133 c 0.094 0.387 0.293 0.742 0.598 1.039 c 0.898 0.898 2.375 0.906 3.293 0.043 c 0.918 -0.859 0.934 -2.289 0.035 -3.176 c -0.305 -0.301 -0.672 -0.5 -1.063 -0.602 c -0.77 -0.195 -1.621 -0.012 -2.23 0.563 m 0 0" style="fill:#000;fill-opacity:1;stroke:none;fill-rule:evenodd"/>
      <path d="m 26.875 27.18 c -0.738 0.695 -0.996 1.684 -0.77 2.586 c 0.117 0.457 0.355 0.895 0.723 1.258 c 1.09 1.078 2.879 1.098 3.992 0.051 c 1.113 -1.051 1.133 -2.773 0.043 -3.848 c -0.367 -0.363 -0.816 -0.605 -1.289 -0.727 c -0.93 -0.242 -1.965 -0.016 -2.699 0.68 m 0 0" style="fill:#000;fill-opacity:1;stroke:none;fill-rule:evenodd"/>
      <path d="m 21.895 22.04 c -0.723 0.68 -0.977 1.648 -0.754 2.531 c 0.113 0.453 0.348 0.879 0.711 1.238 c 1.066 1.051 2.816 1.074 3.91 0.047 c 1.09 -1.027 1.109 -2.715 0.043 -3.77 c -0.363 -0.355 -0.801 -0.594 -1.266 -0.715 c -0.91 -0.234 -1.922 -0.012 -2.645 0.668 m 0 0" style="fill:#000;fill-opacity:1;stroke:none;fill-rule:evenodd"/>
      <path d="m 16.891 17.207 c -0.641 0.602 -0.863 1.461 -0.668 2.246 c 0.102 0.398 0.313 0.777 0.633 1.094 c 0.945 0.934 2.496 0.953 3.465 0.043 c 0.969 -0.914 0.984 -2.406 0.039 -3.344 c -0.32 -0.313 -0.711 -0.523 -1.121 -0.633 c -0.809 -0.207 -1.707 -0.012 -2.348 0.594 m 0 0" style="fill:#000;fill-opacity:1;stroke:none;fill-rule:evenodd"/>
     </g>
    </g>
   </g>
  </g>
 </g>
 <g>
  <g>
   <!-- color: #374d7e -->
   <g>
    <path d="m 31.598 21.715 c -0.828 0.781 -1.117 1.895 -0.863 2.91 c 0.129 0.52 0.402 1.012 0.816 1.422 c 1.227 1.211 3.238 1.234 4.492 0.055 c 1.258 -1.184 1.277 -3.121 0.051 -4.332 c -0.414 -0.41 -0.918 -0.684 -1.453 -0.82 c -1.047 -0.27 -2.211 -0.02 -3.043 0.766 m 0 0" style="fill:#fff8eb;fill-opacity:1;stroke:none;fill-rule:evenodd"/>
    <path d="m 21.98 31.617 c -0.691 0.652 -0.934 1.582 -0.723 2.426 c 0.109 0.434 0.336 0.844 0.68 1.188 c 1.023 1.012 2.703 1.027 3.75 0.043 c 1.047 -0.984 1.066 -2.602 0.043 -3.613 c -0.348 -0.34 -0.77 -0.57 -1.215 -0.684 c -0.871 -0.227 -1.844 -0.012 -2.535 0.641 m 0 0" style="fill:#fff8eb;fill-opacity:1;stroke:none;fill-rule:evenodd"/>
    <path d="m 26.988 16.73 c -0.742 0.699 -1 1.699 -0.773 2.613 c 0.113 0.465 0.359 0.906 0.73 1.273 c 1.102 1.086 2.906 1.105 4.03 0.047 c 1.125 -1.059 1.145 -2.797 0.043 -3.887 c -0.371 -0.367 -0.824 -0.609 -1.305 -0.734 c -0.941 -0.242 -1.98 -0.016 -2.73 0.688 m 0 0" style="fill:#fff8eb;fill-opacity:1;stroke:none;fill-rule:evenodd"/>
    <path d="m 16.832 27.16 c -0.633 0.594 -0.852 1.441 -0.66 2.211 c 0.102 0.395 0.305 0.77 0.621 1.082 c 0.934 0.922 2.465 0.938 3.418 0.039 c 0.953 -0.895 0.969 -2.371 0.039 -3.293 c -0.316 -0.309 -0.699 -0.52 -1.105 -0.621 c -0.797 -0.207 -1.684 -0.016 -2.313 0.582 m 0 0" style="fill:#fff8eb;fill-opacity:1;stroke:none;fill-rule:evenodd"/>
    <path d="m 21.852 12.727 c -0.695 0.652 -0.934 1.582 -0.723 2.43 c 0.109 0.43 0.336 0.84 0.68 1.184 c 1.023 1.012 2.703 1.031 3.75 0.043 c 1.047 -0.984 1.066 -2.602 0.039 -3.613 c -0.344 -0.34 -0.766 -0.566 -1.211 -0.684 c -0.871 -0.223 -1.844 -0.012 -2.535 0.641 m 0 0" style="fill:#fff8eb;fill-opacity:1;stroke:none;fill-rule:evenodd"/>
    <path d="m 12.699 22.24 c -0.609 0.57 -0.82 1.398 -0.633 2.133 c 0.094 0.387 0.293 0.742 0.598 1.039 c 0.898 0.898 2.375 0.906 3.293 0.043 c 0.918 -0.859 0.934 -2.289 0.035 -3.176 c -0.305 -0.301 -0.672 -0.5 -1.063 -0.602 c -0.77 -0.195 -1.621 -0.012 -2.23 0.563 m 0 0" style="fill:#fff8eb;fill-opacity:1;stroke:none;fill-rule:evenodd"/>
    <path d="m 26.875 27.18 c -0.738 0.695 -0.996 1.684 -0.77 2.586 c 0.117 0.457 0.355 0.895 0.723 1.258 c 1.09 1.078 2.879 1.098 3.992 0.051 c 1.113 -1.051 1.133 -2.773 0.043 -3.848 c -0.367 -0.363 -0.816 -0.605 -1.289 -0.727 c -0.93 -0.242 -1.965 -0.016 -2.699 0.68 m 0 0" style="fill:#fff8eb;fill-opacity:1;stroke:none;fill-rule:evenodd"/>
    <path d="m 21.895 22.04 c -0.723 0.68 -0.977 1.648 -0.754 2.531 c 0.113 0.453 0.348 0.879 0.711 1.238 c 1.066 1.051 2.816 1.074 3.91 0.047 c 1.09 -1.027 1.109 -2.715 0.043 -3.77 c -0.363 -0.355 -0.801 -0.594 -1.266 -0.715 c -0.91 -0.234 -1.922 -0.012 -2.645 0.668 m 0 0" style="fill:#fff8eb;fill-opacity:1;stroke:none;fill-rule:evenodd"/>
    <path d="m 16.891 17.207 c -0.641 0.602 -0.863 1.461 -0.668 2.246 c 0.102 0.398 0.313 0.777 0.633 1.094 c 0.945 0.934 2.496 0.953 3.465 0.043 c 0.969 -0.914 0.984 -2.406 0.039 -3.344 c -0.32 -0.313 -0.711 -0.523 -1.121 -0.633 c -0.809 -0.207 -1.707 -0.012 -2.348 0.594 m 0 0" style="fill:#fff8eb;fill-opacity:1;stroke:none;fill-rule:evenodd"/>
   </g>
  </g>
 </g>
 <g>
  <path d="m 40.03 7.531 c 3.712 4.084 5.969 9.514 5.969 15.469 0 12.703 -10.297 23 -23 23 c -5.954 0 -11.384 -2.256 -15.469 -5.969 4.178 4.291 10.01 6.969 16.469 6.969 c 12.703 0 23 -10.298 23 -23 0 -6.462 -2.677 -12.291 -6.969 -16.469 z" style="opacity:0.1"/>
 </g>
</svg>
