<svg version="1.1" viewBox="0 0 48 48" xmlns="http://www.w3.org/2000/svg">
 <defs>
  <linearGradient id="bg" x1="1" x2="47" gradientUnits="userSpaceOnUse">
   <stop style="stop-color:#3c3c3c" offset="0"/>
   <stop style="stop-color:#464646" offset="1"/>
  </linearGradient>
 </defs>
 <path d="m36.31 5c5.859 4.062 9.688 10.831 9.688 18.5 0 12.426-10.07 22.5-22.5 22.5-7.669 0-14.438-3.828-18.5-9.688 1.037 1.822 2.306 3.499 3.781 4.969 4.085 3.712 9.514 5.969 15.469 5.969 12.703 0 23-10.298 23-23 0-5.954-2.256-11.384-5.969-15.469-1.469-1.475-3.147-2.744-4.969-3.781zm4.969 3.781c3.854 4.113 6.219 9.637 6.219 15.719 0 12.703-10.297 23-23 23-6.081 0-11.606-2.364-15.719-6.219 4.16 4.144 9.883 6.719 16.219 6.719 12.703 0 23-10.298 23-23 0-6.335-2.575-12.06-6.719-16.219z" style="opacity:.05"/>
 <path d="m41.28 8.781c3.712 4.085 5.969 9.514 5.969 15.469 0 12.703-10.297 23-23 23-5.954 0-11.384-2.256-15.469-5.969 4.113 3.854 9.637 6.219 15.719 6.219 12.703 0 23-10.298 23-23 0-6.081-2.364-11.606-6.219-15.719z" style="opacity:.1"/>
 <path d="m31.25 2.375c8.615 3.154 14.75 11.417 14.75 21.13 0 12.426-10.07 22.5-22.5 22.5-9.708 0-17.971-6.135-21.12-14.75a23 23 0 0 0 44.875-7 23 23 0 0 0-16-21.875z" style="opacity:.2"/>
 <g transform="matrix(0,-1,1,0,0,48)" style="fill:#501616">
  <path d="m24 1c12.703 0 23 10.297 23 23s-10.297 23-23 23-23-10.297-23-23 10.297-23 23-23z" style="fill:url(#bg)"/>
 </g>
 <path d="m40.03 7.531c3.712 4.084 5.969 9.514 5.969 15.469 0 12.703-10.297 23-23 23-5.954 0-11.384-2.256-15.469-5.969 4.178 4.291 10.01 6.969 16.469 6.969 12.703 0 23-10.298 23-23 0-6.462-2.677-12.291-6.969-16.469z" style="opacity:.1"/>
 <path d="m37.999 14.992c-1.1976 1.4853-3.8709 0.47748-4.3027 1.7754-0.82524 0.4281-0.84979 1.0621 0.04102 1.957 1.262 1.2678 0.76171 2.2676-3.2383 2.2676-2.5 0-4.3058-2-8.5-2-2.539 0-4.6214 3.1495-5.8184 5.9121-0.37894-0.38843-0.80367-0.82243-1.0039-1.0527-0.29758-0.30809-0.34437-0.40275-0.36133-0.625-0.0139-0.18217-0.06898-0.24411-0.12695-0.23438-0.05797 0.0097-0.11722 0.0909-0.14062 0.19727-0.04603 0.20922 1e-3 0.47003 0.125 0.69141 0.31772 0.56739 0.77058 1.0766 1.2832 1.5801-0.24754 0.62153-0.46393 1.2206-0.60742 1.7305-0.05327 0.3484-0.14428 0.69654-0.15039 1.0449-0.02574 0.02582-0.05682 0.03481-0.08008 0.06641l-0.72852 0.75976c-0.30647 0.3719-0.57217 0.54665-1.0508 0.38477-0.82894-0.34028-1.6298-0.59653-2.4277-0.66406-0.28562-0.02417-0.57255 0.04954-0.76758 0.19922-0.19714 0.15131-0.23412 0.38644 0.16211 0.26562 0.2269-0.11353 0.35423-0.08539 0.80859 0.08008 0.44488 0.13542 1.4009 0.45366 2.0879 0.74414 0.64145 0.27124 1.1918 0.2314 1.6738-0.21094l0.64648-0.70312c0.11206 0.1335 0.24503 0.26884 0.43555 0.40234 0.46368 0.31439 1.0304 0.41306 1.8027 0.60742-0.05593 0.09173-0.10667 0.19528-0.14062 0.32031-0.69538 0.02287-1.1876 0.26897-1.5039 0.96094-0.05094 0.15551-0.11678 0.54296 0.49024 0.54296h1.2129c0.34348 0 0.54204-0.18284 0.69922-0.62695 0.27845-0.69909 0.1066-0.35936 0.37305-0.85547 0.09939 0.03456 0.17782 0.05196 0.2832 0.0918 0.31782 0.12016 1.6568 0.05017 2.3242-0.41992v0.50781c-0.598 0.30354-0.88544 0.64497-0.75195 1.1172 0.01795 0.05625 0.06986 0.18554 0.25195 0.18554h1.3027c0.504 0 0.69727-0.06877 0.69727-0.30078v-1.6992c0-0.58953 2e-6 -1.2453 0.63086-1.6367 0.71463-0.36629 2.1015-0.94463 3.6934-1.2148 0.25581 0.85555-0.22625 1.6149-0.5918 2.5-0.69538 0.01818-1.2013 0.29544-1.4551 0.91992-0.05965 0.16665-0.17087 0.43164 0.36328 0.43164h1.2148c0.30442 0 0.54008-0.17632 0.69726-0.5293 0.6387-1.3527 1.9985-2.2426 2.8418-3.2988 1.4087 0.37005 2.4367 1.3749 4.082 3.2051 0.32156 0.36899 0.11283 0.55392-0.07031 0.82422-0.23334 0.34437-0.26241 0.79393 0.50586 0.79883l1.2637 0.0078c0.30316 0.0019 0.5671-0.14247 0.40625-0.43359-1.2021-2.1758-2.003-4.0229-2.8848-6.541-0.56592-1.6162 0.31665-2.3088 1.3398-3.9941 0.47594-1.0753 0.04239-1.7461-0.16211-1.9863-0.48747-0.61596-1.3524-1.3507-0.56836-1.5645 1.6175-0.05936 1.7691-0.84882 2.8418-1.043 0.20893-0.02767 0.64295-0.96767 0.85156-1.4453z" style="fill-rule:evenodd;opacity:.1;stroke-width:1.1602"/>
 <path d="m29.697 25.75-3.5195 0.04102c0.53938 1.0072-0.02974 1.8513-0.44531 2.8574-0.69538 0.01818-1.2013 0.29544-1.4551 0.91992-0.05965 0.16664-0.17087 0.43164 0.36328 0.43164h1.2148c0.30442 0 0.54008-0.17632 0.69726-0.5293 0.72199-1.5291 2.3681-2.4652 3.1445-3.7207zm-12.592 3.1621c-0.16237-0.03189-0.38573 0.22071-0.48438 0.58398-0.69538 0.02287-1.1876 0.26897-1.5039 0.96094-0.050941 0.15552-0.11678 0.54297 0.49023 0.54297h1.2129c0.34348 0 0.54204-0.18284 0.69922-0.62695 0.28853-0.72439 0.07523-0.3012 0.38672-0.88281-0.2149-0.11705-0.53017-0.52497-0.80078-0.57812z" style="fill-rule:evenodd;fill:#0297a8;stroke-width:1.1602"/>
 <path d="m13.689 22c-0.05797 0.0097-0.11722 0.0909-0.14062 0.19727-0.04603 0.20922 1e-3 0.47003 0.125 0.69141 0.34687 0.61945 0.84288 1.1721 1.416 1.7207 0.30368 0.32889 0.26421 0.60657 0.08398 0.98438l-0.33008 0.85352c-0.29275 0.5352 0.3226 1.1037 0.74414 0.2168l0.39453-0.96094c0.1711-0.54406 0.01504-1.0167-0.44922-1.4219-0.46649-0.4675-1.0851-1.1109-1.3555-1.4219-0.29758-0.30809-0.34437-0.40275-0.36133-0.625-0.013896-0.18217-0.068979-0.24411-0.12695-0.23438zm0.98242 5.0469c-0.17593-0.02886-0.39638 0.05131-0.55273 0.26367l-0.72852 0.75976c-0.30647 0.3719-0.57217 0.54665-1.0508 0.38477-0.82894-0.34028-1.6298-0.59653-2.4277-0.66406-0.28562-0.02417-0.57255 0.04954-0.76758 0.19922-0.19715 0.15131-0.23412 0.38644 0.16211 0.26562 0.2269-0.11353 0.35423-0.08539 0.80859 0.08008 0.44488 0.13542 1.4009 0.45366 2.0879 0.74414 0.64145 0.27124 1.1918 0.2314 1.6738-0.21094l0.80859-0.87891c0.45008-0.54464 0.27954-0.89526-0.01367-0.94336z" style="fill-rule:evenodd;fill:#0297a6;stroke-width:1.1602"/>
 <path d="m29.697 25.75-3.5195 0.04102c0.30019 0.56053 0.24512 1.0723 0.07617 1.5879 0.72909-0.19148 1.5303-0.33317 2.3574-0.36914 0.41519-0.40654 0.80994-0.81348 1.0859-1.2598zm-12.592 3.1621c-0.16237-0.03189-0.38573 0.22071-0.48438 0.58398-0.2151 0.0071-0.405 0.04518-0.58203 0.10156 0.41596 0.25636 0.9187 0.37132 1.5723 0.53125 0.07772-0.21737 0.06039-0.20076 0.29492-0.63867-0.2149-0.11705-0.53017-0.52497-0.80078-0.57812z" style="fill-rule:evenodd;opacity:.1;stroke-width:1.1602"/>
 <path d="m14.35 26.2c0.80764-2.87 3.3502-8.2 6.6497-8.2 4.1942 0 6 2 8.5 2 4 0 4.5-1 3.238-2.2678-0.89081-0.89488-0.86604-1.5283-0.0408-1.9564 0.43181-1.2979 3.1052-0.29052 4.3028-1.7758-0.20861 0.47763-0.64341 1.417-0.85234 1.4446-1.0727 0.19415-1.2239 0.98405-2.8414 1.0434-0.78408 0.21372 0.0808 0.94912 0.56827 1.5651 0.20449 0.24025 0.6383 0.91134 0.16236 1.9866-1.0232 1.6853-1.9054 2.3768-1.3395 3.9929 0.88174 2.5181 1.6821 4.3661 2.8843 6.5419 0.16085 0.29112-0.10274 0.43544-0.40591 0.43351l-1.2636-0.008045c-0.76826-0.0049-0.73926-0.45526-0.50593-0.79963 0.18314-0.27029 0.39291-0.45413 0.07135-0.82312-2.139-2.3793-3.2289-3.3772-5.4775-3.3772s-4.4116 0.87269-5.3691 1.3635c-0.63086 0.39142-0.63086 1.047-0.63086 1.6365v1.7c0 0.23201-0.19248 0.3-0.69648 0.3h-1.3035c-0.1821 0-0.23318-0.12892-0.25113-0.18517-0.13348-0.47222 0.15313-0.81483 0.75113-1.1184v-0.50646c-0.66747 0.47009-2.0068 0.54016-2.3247 0.42-1.6135-0.61-2.5077-0.56212-3.2162-1.0425-1.1263-0.78925-0.72955-1.5785-0.60886-2.3678z" style="fill-rule:evenodd;fill:#02a7b8;stroke-width:1.1602"/>
</svg>
