<svg version="1.1" viewBox="0 0 48 48" xmlns="http://www.w3.org/2000/svg">
 <defs>
  <linearGradient id="bg" x2="0" y1="1" y2="47" gradientUnits="userSpaceOnUse">
   <stop style="stop-color:#940ee7" offset="0"/>
   <stop style="stop-color:#870dd3" offset="1"/>
  </linearGradient>
 </defs>
 <path d="m36.3 5c5.86 4.06 9.69 10.8 9.69 18.5 0 12.4-10.1 22.5-22.5 22.5-7.67 0-14.4-3.83-18.5-9.69 1.04 1.82 2.31 3.5 3.78 4.97 4.08 3.71 9.51 5.97 15.5 5.97 12.7 0 23-10.3 23-23 0-5.95-2.26-11.4-5.97-15.5-1.47-1.48-3.15-2.74-4.97-3.78zm4.97 3.78c3.85 4.11 6.22 9.64 6.22 15.7 0 12.7-10.3 23-23 23-6.08 0-11.6-2.36-15.7-6.22 4.16 4.14 9.88 6.72 16.2 6.72 12.7 0 23-10.3 23-23 0-6.34-2.58-12.1-6.72-16.2z" style="opacity:.05"/>
 <path d="m41.3 8.78c3.71 4.08 5.97 9.51 5.97 15.5 0 12.7-10.3 23-23 23-5.95 0-11.4-2.26-15.5-5.97 4.11 3.85 9.64 6.22 15.7 6.22 12.7 0 23-10.3 23-23 0-6.08-2.36-11.6-6.22-15.7z" style="opacity:.1"/>
 <path d="m31.2 2.38c8.62 3.15 14.8 11.4 14.8 21.1 0 12.4-10.1 22.5-22.5 22.5-9.71 0-18-6.14-21.1-14.8a23 23 0 0044.9-7 23 23 0 00-16-21.9z" style="opacity:.2"/>
 <circle cx="24" cy="24" r="23" style="fill:url(#bg)"/>
 <path d="m40 7.53c3.71 4.08 5.97 9.51 5.97 15.5 0 12.7-10.3 23-23 23-5.95 0-11.4-2.26-15.5-5.97 4.18 4.29 10 6.97 16.5 6.97 12.7 0 23-10.3 23-23 0-6.46-2.68-12.3-6.97-16.5z" style="opacity:.1"/>
 <path d="m25 10a15 15 0 00-6.61 1.56l.971 1.68-1.73 1-.975-1.69a15 15 0 00-5.76 7.45h4.34a11 11 0 019.76-6 11 11 0 01.443.0137l-.0078-.0137c.728-1.25 1.46-2.5 2.18-3.74a15 15 0 00-2.62-.256zm4.5 1-1.75 3 1.75 3h3.5l1.75-3-1.75-3zm6.84 4.24-2.16 3.7a11 11 0 011.82 6.06 11 11 0 01-1.84 6.02l2.17 3.71a15 15 0 003.6-8.74h-1.93v-2h1.96a15 15 0 00-3.62-8.76zm-25.6 6.76-1.75 3 1.75 3h3.5l1.75-3-1.75-3zm.154 8a15 15 0 005.76 7.45l.975-1.69 1.73 1-.971 1.68a15 15 0 006.61 1.56 15 15 0 002.62-.26l-2.18-3.74c.0079-.0136.0155-.0274.0234-.041a11 11 0 01-.459.041 11 11 0 01-9.76-6zm18.6 3-1.75 3 1.75 3h3.5l1.75-3-1.75-3z" style="opacity:.1"/>
 <path d="m24 9a15 15 0 00-6.61 1.56l.971 1.68-1.73 1-.975-1.69a15 15 0 00-5.76 7.45h4.34a11 11 0 019.76-6 11 11 0 01.443.0137l-.0078-.0137c.728-1.25 1.46-2.5 2.18-3.74a15 15 0 00-2.62-.256zm4.5 1-1.75 3 1.75 3h3.5l1.75-3-1.75-3zm6.84 4.24-2.16 3.7a11 11 0 011.82 6.06 11 11 0 01-1.84 6.02l2.17 3.71a15 15 0 003.6-8.74h-1.93v-2h1.96a15 15 0 00-3.62-8.76zm-25.6 6.76-1.75 3 1.75 3h3.5l1.75-3-1.75-3zm.154 8a15 15 0 005.76 7.45l.975-1.69 1.73 1-.971 1.68a15 15 0 006.61 1.56 15 15 0 002.62-.26l-2.18-3.74c.0079-.0136.0155-.0274.0234-.041a11 11 0 01-.459.041 11 11 0 01-9.76-6zm18.6 3-1.75 3 1.75 3h3.5l1.75-3-1.75-3z" style="fill:#fafafa"/>
</svg>
