<svg version="1.1" viewBox="0 0 48 48" xmlns="http://www.w3.org/2000/svg" xmlns:xlink="http://www.w3.org/1999/xlink">
 <defs>
  <linearGradient id="lG3764" x1="1" x2="47" gradientTransform="rotate(-90 24.1 24)" gradientUnits="userSpaceOnUse">
   <stop style="stop-color:#424242" offset="0"/>
   <stop style="stop-color:#4c4c4c" offset="1"/>
  </linearGradient>
  <linearGradient id="lG4239" x1="16.9" x2="10" gradientUnits="userSpaceOnUse">
   <stop style="stop-color:#f57c35" offset="0"/>
   <stop style="stop-color:#f7e113" offset="1"/>
  </linearGradient>
  <linearGradient id="lG4264" x2="0" y1="34" y2="15" gradientUnits="userSpaceOnUse">
   <stop style="stop-color:#f37015" offset="0"/>
   <stop style="stop-color:#f7f411" offset="1"/>
  </linearGradient>
  <linearGradient id="lG4200" x1="16.9" x2="10" gradientTransform="matrix(-1,0,0,1,48,0)" gradientUnits="userSpaceOnUse" xlink:href="#lG4239"/>
  <linearGradient id="lG1156" x1="16.9" x2="10" gradientUnits="userSpaceOnUse" xlink:href="#lG4239"/>
 </defs>
 <path d="m36.3 5c5.86 4.06 9.69 10.8 9.69 18.5 0 12.4-10.1 22.5-22.5 22.5-7.67 0-14.4-3.83-18.5-9.69 1.04 1.82 2.31 3.5 3.78 4.97 4.08 3.71 9.51 5.97 15.5 5.97 12.7 0 23-10.3 23-23 0-5.95-2.26-11.4-5.97-15.5-1.47-1.48-3.15-2.74-4.97-3.78zm4.97 3.78c3.85 4.11 6.22 9.64 6.22 15.7 0 12.7-10.3 23-23 23-6.08 0-11.6-2.36-15.7-6.22 4.16 4.14 9.88 6.72 16.2 6.72 12.7 0 23-10.3 23-23 0-6.34-2.58-12.1-6.72-16.2z" style="opacity:.05"/>
 <path d="m41.3 8.78c3.71 4.08 5.97 9.51 5.97 15.5 0 12.7-10.3 23-23 23-5.95 0-11.4-2.26-15.5-5.97 4.11 3.85 9.64 6.22 15.7 6.22 12.7 0 23-10.3 23-23 0-6.08-2.36-11.6-6.22-15.7z" style="opacity:.1"/>
 <path d="m31.2 2.38c8.62 3.15 14.8 11.4 14.8 21.1 0 12.4-10.1 22.5-22.5 22.5-9.71 0-18-6.14-21.1-14.8a23 23 0 0 0 44.9-7 23 23 0 0 0-16-21.9z" style="opacity:.2"/>
 <path d="m24 1.09c12.7 0 23 10.3 23 23s-10.3 23-23 23-23-10.3-23-23 10.3-23 23-23z" style="fill:url(#lG3764)"/>
 <path d="m40 7.53c3.71 4.08 5.97 9.51 5.97 15.5 0 12.7-10.3 23-23 23-5.95 0-11.4-2.26-15.5-5.97 4.18 4.29 10 6.97 16.5 6.97 12.7 0 23-10.3 23-23 0-6.46-2.68-12.3-6.97-16.5z" style="opacity:.1"/>
 <path d="m12 16.5-1.04 0.5c1 2 2 5 6 5h1c1.61 0 3.39 8.66 5.09 13h2e-3c-2e-3 0 3.91 4e-3 3.91 4e-3 1.7-4.33 3.48-13 5.09-13h1c4 0 5-3 6-5l-1.04-0.5c-0.963 1.25-1.96 3-3.96 3l-3-0.5-6.04 10.8-3.04-7.8c-0.504-1.31-1-3-3-3l-3 0.5c-2 0-3-1.75-3.96-3z" style="opacity:.1"/>
 <path d="m18 18c-1 0-1.26 0.5-3 0.5-0.248 0-0.48-0.029-0.699-0.078 0.699 1.38 2.38 1.29 3.41 3.09h-2e-3c1.42 1.9 2.84 8.78 4.3 12.5h4l-5-13c-0.504-1.31-1-3-3-3z" style="fill:url(#lG4264)"/>
 <path d="m30 18c1 0 1.26 0.5 3 0.5 0.248 0 0.48-0.029 0.699-0.078-0.699 1.38-2.38 1.29-3.41 3.09h2e-3c-1.42 1.9-2.84 8.78-4.3 12.5h-4l5-13c0.504-1.31 1-3 3-3z" style="fill:#f8cf28"/>
 <path d="m11 15.5-1.04 0.5c1 2 2 5 6 5h1c0.231 0 0.467 0.196 0.705 0.516-1.25-2.25-2.4-2.85-3.46-3.11-1.51-0.375-2.37-1.82-3.2-2.9z" style="fill:url(#lG1156)"/>
 <path d="m37 15.5 1.04 0.5c-1 2-2 5-6 5h-1c-0.231 0-0.467 0.196-0.705 0.516 1.25-2.25 2.4-2.85 3.46-3.11 1.51-0.375 2.37-1.82 3.2-2.9z" style="fill:url(#lG4200)"/>
 <path d="m24 28.8-2 5.2h4z" style="fill:#f4b433"/>
</svg>
