<svg version="1.1" viewBox="0 0 48 48" xmlns="http://www.w3.org/2000/svg">
 <defs>
  <linearGradient id="bg" x2="0" y1="1" y2="47" gradientUnits="userSpaceOnUse">
   <stop style="stop-color:#287ddc" offset="0"/>
   <stop style="stop-color:#2273ce" offset="1"/>
  </linearGradient>
 </defs>
 <path d="m36.31 5c5.859 4.062 9.688 10.831 9.688 18.5 0 12.426-10.07 22.5-22.5 22.5-7.669 0-14.438-3.828-18.5-9.688 1.037 1.822 2.306 3.499 3.781 4.969 4.085 3.712 9.514 5.969 15.469 5.969 12.703 0 23-10.298 23-23 0-5.954-2.256-11.384-5.969-15.469-1.469-1.475-3.147-2.744-4.969-3.781zm4.969 3.781c3.854 4.113 6.219 9.637 6.219 15.719 0 12.703-10.297 23-23 23-6.081 0-11.606-2.364-15.719-6.219 4.16 4.144 9.883 6.719 16.219 6.719 12.703 0 23-10.298 23-23 0-6.335-2.575-12.06-6.719-16.219z" style="opacity:.05"/>
 <path d="m41.28 8.781c3.712 4.085 5.969 9.514 5.969 15.469 0 12.703-10.297 23-23 23-5.954 0-11.384-2.256-15.469-5.969 4.113 3.854 9.637 6.219 15.719 6.219 12.703 0 23-10.298 23-23 0-6.081-2.364-11.606-6.219-15.719z" style="opacity:.1"/>
 <path d="m31.25 2.375c8.615 3.154 14.75 11.417 14.75 21.13 0 12.426-10.07 22.5-22.5 22.5-9.708 0-17.971-6.135-21.12-14.75a23 23 0 0 0 44.875-7 23 23 0 0 0-16-21.875z" style="opacity:.2"/>
 <circle cx="24" cy="24" r="23" style="fill:url(#bg)"/>
 <path d="m40.03 7.531c3.712 4.084 5.969 9.514 5.969 15.469 0 12.703-10.297 23-23 23-5.954 0-11.384-2.256-15.469-5.969 4.178 4.291 10.01 6.969 16.469 6.969 12.703 0 23-10.298 23-23 0-6.462-2.677-12.291-6.969-16.469z" style="opacity:.1"/>
 <path d="m30.635 13.02c-1.0904 0.23921-2.1102 0.76027-3.1078 1.2037-0.063 7e-3 -0.14199-0.03999-0.20099-0.02799-0.7714 0.20824-1.5408 0.64989-2.1529 0.96177-1.2859 0.68583-2.9778 1.6746-4.7967 2.7823-3.6378 2.2135-7.7905 4.8888-10.215 6.4844-0.35398 0.24294-0.071 0.79081 0.33198 0.64384 1.4439-0.55586 3.7658-1.4347 5.7856-2.0965 1.0099-0.33092 1.9459-0.60985 2.6438-0.76082 0.34898-0.07598 0.64396-0.11797 0.83795-0.12497 0.13799-5e-3 0.11999-8e-3 0.11799-0.02099-0.07599 0.28093-0.26898 0.56186-0.38098 0.77481-0.36998 0.59886-0.97594 1.4207-1.7169 2.4224-1.4679 1.9845-3.4698 4.6809-5.3087 7.7921-0.019 0.022-0.036 0.04999-0.049 0.06898-0.19899 0.37091 0.28498 0.72882 0.58096 0.4289 0.014-0.015 0.034-0.04699 0.048-0.06198 3.0198-3.1712 5.1307-6.3954 8.2085-9.2587 0.21699-0.19995 0.37198-0.29593 0.54696-0.4289-0.08299 0.14097-0.13699 0.23594-0.24198 0.4079-2.5198 3.907-4.9207 8.4419-6.7416 12.248-0.20299 0.37691 0.29598 0.73482 0.58796 0.4219 9e-3 -0.011 0.032-0.04499 0.042-0.05499v-7e-3c1.7089-1.9425 5.7116-7.6881 7.3775-10.078 1.2656-1.8855 2.2933-3.6253 3.8068-5.1557 0.37011-0.37425 0.74694-0.52243 0.97594-0.52587 0.50196-0.0076 1.0879 0.25594 1.7439 0.8168 0.65596 0.56086 1.3669 1.4137 2.1039 2.5124 2.5028 3.976 4.1707 7.8951 5.4466 11.535 0.022 0.06198 0.06 0.11697 0.11099 0.15896 0.064 0.05199 0.15099 0.09998 0.25598 0.11797 0.10499 0.017 0.22299 0 0.30498-0.05499 0.28898-0.17296 0.39397-0.47288 0.41497-0.77581 0.06-0.86179-0.46097-2.4124-1.1629-4.9478-1.5049-5.4527-3.1078-11.373-6.9216-14.311l0.21499-1.3637c0.26498-0.33292 0.64496-0.77681 0.89994-1.1697 0.08799-0.13497 0.03882-0.28866-0.028-0.43589-0.08295-0.18278-0.25298-0.1461-0.36298-0.12197z" style="color-rendering:auto;color:#000000;fill-rule:evenodd;image-rendering:auto;isolation:auto;mix-blend-mode:normal;opacity:.1;shape-rendering:auto;solid-color:#000000;white-space:normal" isolation="auto" mix-blend-mode="normal"/>
 <path d="m29.635 12.02c-1.0904 0.23921-2.1102 0.76027-3.1078 1.2037-0.063 7e-3 -0.14199-0.03999-0.20099-0.02799-0.7714 0.20824-1.5408 0.64989-2.1529 0.96177-1.2859 0.68583-2.9778 1.6746-4.7967 2.7823-3.6378 2.2135-7.7905 4.8888-10.215 6.4844-0.35398 0.24294-0.071 0.79081 0.33198 0.64384 1.4439-0.55586 3.7658-1.4347 5.7856-2.0965 1.0099-0.33092 1.9459-0.60985 2.6438-0.76082 0.34898-0.07598 0.64396-0.11797 0.83795-0.12497 0.13799-5e-3 0.11999-8e-3 0.11799-0.02099-0.07599 0.28093-0.26898 0.56186-0.38098 0.77481-0.36998 0.59886-0.97594 1.4207-1.7169 2.4224-1.4679 1.9845-3.4698 4.6809-5.3087 7.7921-0.019 0.022-0.036 0.04999-0.049 0.06898-0.19899 0.37091 0.28498 0.72882 0.58096 0.4289 0.014-0.015 0.034-0.04699 0.048-0.06198 3.0198-3.1712 5.1307-6.3954 8.2085-9.2587 0.21699-0.19995 0.37198-0.29593 0.54696-0.4289-0.08299 0.14097-0.13699 0.23594-0.24198 0.4079-2.5198 3.907-4.9207 8.4419-6.7416 12.248-0.20299 0.37691 0.29598 0.73482 0.58796 0.4219 9e-3 -0.011 0.032-0.04499 0.042-0.05499v-7e-3c1.7089-1.9425 5.7116-7.6881 7.3775-10.078 1.2656-1.8855 2.2933-3.6253 3.8068-5.1557 0.37011-0.37425 0.74694-0.52243 0.97594-0.52587 0.50196-0.0076 1.0879 0.25594 1.7439 0.8168 0.65596 0.56086 1.3669 1.4137 2.1039 2.5124 2.5028 3.976 4.1707 7.8951 5.4466 11.535 0.022 0.06198 0.06 0.11697 0.11099 0.15896 0.064 0.05199 0.15099 0.09998 0.25598 0.11797 0.10499 0.017 0.22299 0 0.30498-0.05499 0.28898-0.17296 0.39397-0.47288 0.41497-0.77581 0.06-0.86179-0.46097-2.4124-1.1629-4.9478-1.5049-5.4527-3.1078-11.373-6.9216-14.311l0.21499-1.3637c0.26498-0.33292 0.64496-0.77681 0.89994-1.1697 0.08799-0.13497 0.03882-0.28866-0.028-0.43589-0.08295-0.18278-0.25298-0.1461-0.36298-0.12197z" style="color-rendering:auto;color:#000000;fill-rule:evenodd;fill:#f9f9f9;image-rendering:auto;isolation:auto;mix-blend-mode:normal;shape-rendering:auto;solid-color:#000000;white-space:normal" isolation="auto" mix-blend-mode="normal"/>
</svg>
