<svg version="1.1" viewBox="0 0 48 48" xmlns="http://www.w3.org/2000/svg">
 <defs>
  <linearGradient id="linearGradient3066" x2="13.547" gradientTransform="matrix(0 -3.5433 3.5433 0 0 48)" gradientUnits="userSpaceOnUse">
   <stop style="stop-color:#0594fa" offset="0"/>
   <stop style="stop-color:#199dfa" offset="1"/>
  </linearGradient>
 </defs>
 <path d="m36.31 5c5.859 4.062 9.688 10.831 9.688 18.5 0 12.426-10.07 22.5-22.5 22.5-7.669 0-14.438-3.828-18.5-9.688 1.037 1.822 2.306 3.499 3.781 4.969 4.085 3.712 9.514 5.969 15.469 5.969 12.703 0 23-10.298 23-23 0-5.954-2.256-11.384-5.969-15.469-1.469-1.475-3.147-2.744-4.969-3.781zm4.969 3.781c3.854 4.113 6.219 9.637 6.219 15.719 0 12.703-10.297 23-23 23-6.081 0-11.606-2.364-15.719-6.219 4.16 4.144 9.883 6.719 16.219 6.719 12.703 0 23-10.298 23-23 0-6.335-2.575-12.06-6.719-16.219z" style="opacity:.05"/>
 <path d="m41.28 8.781c3.712 4.085 5.969 9.514 5.969 15.469 0 12.703-10.297 23-23 23-5.954 0-11.384-2.256-15.469-5.969 4.113 3.854 9.637 6.219 15.719 6.219 12.703 0 23-10.298 23-23 0-6.081-2.364-11.606-6.219-15.719z" style="opacity:.1"/>
 <path d="m31.25 2.375c8.615 3.154 14.75 11.417 14.75 21.13 0 12.426-10.07 22.5-22.5 22.5-9.708 0-17.971-6.135-21.12-14.75a23 23 0 0 0 44.875-7 23 23 0 0 0-16-21.875z" style="opacity:.2"/>
 <path d="m24 1c-12.703 0-23 10.297-23 23s10.297 23 23 23 23-10.297 23-23-10.297-23-23-23z" style="fill:url(#linearGradient3066)"/>
 <path d="m24.133 13c-1.3801 0-1.363 0.297-1.98 1.555-0.996 2.023-1.695 4.957-1.551 6.691 0.152 1.852 0.648 3.059 1.609 3.961 1.152 1.094 2.559 0.953 3.746-0.32 1.066-1.145 1.461-2.332 1.555-4.926 0.055-1.641 0.09-1.836 0.211-1.555 0.473 1.09 0.598 3.656 0.27 4.926-0.273 1.051-0.953 2.336-1.5 2.84-0.723 0.664-1.5 0.965-2.57 1.016-0.719 0.035-1 0.023-1.555-0.16-1.418-0.473-3.172-1.828-4.176-3.16-1.43-1.887-2.852-5.727-3.215-8.781-0.07-0.59-0.168-1.125-0.211-1.176-0.254-0.293-1.242 0.934-1.551 1.93-0.203 0.637-0.215 0.941-0.215 6.586v5.945l0.27 0.16c0.379 0.246 2.031 0.742 3.379 1.016 1.023 0.211 1.434 0.27 3.855 0.27 2.422-4e-3 2.875-0.063 3.805-0.27 1.516-0.332 2.648-0.875 3.59-1.82 1.324-1.328 1.816-2.676 1.82-4.766 4e-3 -1.387-0.195-2.496-0.754-3.59-0.199-0.398-0.395-0.727-0.375-0.75 0.125-0.125 1.508 1.527 1.824 2.195 1.984 4.195 1.035 7.617-3.055 11.03-1.813 1.512-4.953 3.59-6.75 4.496-0.629 0.316-0.616 0.657-0.616 0.657h14c1.2981 0 2.4198-1.7684 2.788-2.907 0.207-0.664 0.215-0.965 0.215-9.102 0-8.551-0.016-9.289-0.375-9.426-0.082-0.031-0.891 0.059-1.77 0.211-0.973 0.172-2.348 0.313-3.535 0.379-2.074 0.105-3.117 0.305-4.34 0.801-1.133 0.465-1.793 0.836-2.41 1.34-0.555 0.453-0.629 0.512-0.805 1.234-0.246 0.996-0.398 1.438-0.805 1.98-0.305 0.395-0.602 0.59-0.598 0.375 0.016-0.383 0.363-1.582 0.699-2.25 0.996-1.98 2.293-3.395 4.824-5.301 0.777-0.594 1.445-1.255 1.445-1.334m-3.113 5.03c0.164 0 0.168 0.164-0.051 1.77-0.234 1.691-0.84 3.043-1.609 3.855-0.543 0.574-1.129 0.727-1.551 0.426-0.238-0.164-0.535-0.738-0.535-1.016 0-0.137 0.051-0.141 0.211-0.051 0.328 0.172 0.461 0.133 0.859-0.215 0.664-0.586 1.359-2.266 1.715-4.176 0.039-0.223 0.652-0.598 0.961-0.598" style="opacity:.1"/>
 <path d="m23.141 12c-1.3801 0-1.3635 0.29669-1.9805 1.5547-0.996 2.023-1.6948 4.9574-1.5508 6.6914 0.152 1.852 0.64838 3.0589 1.6094 3.9609 1.152 1.094 2.5591 0.95269 3.7461-0.32031 1.066-1.145 1.4607-2.3318 1.5547-4.9258 0.055-1.641 0.08994-1.8357 0.21094-1.5547 0.473 1.09 0.59753 3.6558 0.26953 4.9258-0.273 1.051-0.953 2.3358-1.5 2.8398-0.723 0.664-1.5003 0.96462-2.5703 1.0156-0.719 0.035-0.99969 0.02284-1.5547-0.16016-1.418-0.473-3.1718-1.8282-4.1758-3.1602-1.43-1.887-2.8518-5.7253-3.2148-8.7793-0.07-0.59-0.16794-1.1267-0.21094-1.1777-0.254-0.293-1.2418 0.93564-1.5508 1.9316-0.203 0.637-0.21484 0.94094-0.21484 6.5859v5.9434l0.26953 0.16016c0.379 0.246 2.0309 0.74358 3.3789 1.0176 1.023 0.211 1.4345 0.45117 3.8555 0.45117 2.422-4e-3 2.8747-0.24417 3.8047-0.45117 1.516-0.332 2.6478-0.87531 3.5898-1.8203 1.324-1.328 1.8163-2.6756 1.8203-4.7656 4e-3 -1.387-0.19491-2.4978-0.75391-3.5918-0.199-0.398-0.395-0.727-0.375-0.75 0.125-0.125 1.5082 1.5273 1.8242 2.1953 1.984 4.195 1.0334 7.6182-3.0566 11.031-1.813 1.512-4.953 3.5901-6.75 4.4961-0.629 0.316-0.61523 0.65625-0.61523 0.65625h14c1.2981 0 2.4189-1.7676 2.7871-2.9062 0.207-0.664 0.2168-0.96652 0.2168-9.1035 0-8.551-0.016-9.2888-0.375-9.4258-0.082-0.031-0.89248 0.05894-1.7715 0.21094-0.973 0.172-2.3482 0.31291-3.5352 0.37891-2.074 0.105-3.1168 0.30478-4.3398 0.80078-1.133 0.465-1.7932 0.8378-2.4102 1.3418-0.555 0.453-0.62869 0.51042-0.80469 1.2324-0.246 0.996-0.39769 1.4385-0.80469 1.9805-0.305 0.395-0.60166 0.59-0.59766 0.375 0.016-0.383 0.36322-1.582 0.69922-2.25 0.996-1.98 2.2932-3.3948 4.8242-5.3008 0.777-0.594 1.4434-1.255 1.4434-1.334zm2.0801 5.0254v0.0039c0.164 0 0.16822 0.16548-0.05078 1.7715-0.234 1.691-0.84038 3.0415-1.6094 3.8535-0.543 0.574-1.1288 0.72678-1.5508 0.42578-0.238-0.164-0.53516-0.73762-0.53516-1.0156 0-0.137 0.05094-0.14078 0.21094-0.05078 0.328 0.172 0.46138 0.13316 0.85938-0.21484 0.664-0.586 1.3588-2.2658 1.7148-4.1758 0.039-0.223 0.65194-0.59766 0.96094-0.59766z" style="fill:#f2f2f2"/>
 <path d="m40.03 7.531c3.712 4.084 5.969 9.514 5.969 15.469 0 12.703-10.297 23-23 23-5.954 0-11.384-2.256-15.469-5.969 4.178 4.291 10.01 6.969 16.469 6.969 12.703 0 23-10.298 23-23 0-6.462-2.677-12.291-6.969-16.469z" style="opacity:.1"/>
</svg>
