<svg version="1.1" viewBox="0 0 48 48" xmlns="http://www.w3.org/2000/svg">
 <defs>
  <linearGradient id="bg" x2="0" y1="1" y2="47" gradientUnits="userSpaceOnUse">
   <stop style="stop-color:#3d3d3d" offset="0"/>
   <stop style="stop-color:#382e2e" offset="1"/>
  </linearGradient>
 </defs>
 <path d="m36.31 5c5.859 4.062 9.688 10.831 9.688 18.5 0 12.426-10.07 22.5-22.5 22.5-7.669 0-14.438-3.828-18.5-9.688 1.037 1.822 2.306 3.499 3.781 4.969 4.085 3.712 9.514 5.969 15.469 5.969 12.703 0 23-10.298 23-23 0-5.954-2.256-11.384-5.969-15.469-1.469-1.475-3.147-2.744-4.969-3.781zm4.969 3.781c3.854 4.113 6.219 9.637 6.219 15.719 0 12.703-10.297 23-23 23-6.081 0-11.606-2.364-15.719-6.219 4.16 4.144 9.883 6.719 16.219 6.719 12.703 0 23-10.298 23-23 0-6.335-2.575-12.06-6.719-16.219z" style="opacity:.05"/>
 <path d="m41.28 8.781c3.712 4.085 5.969 9.514 5.969 15.469 0 12.703-10.297 23-23 23-5.954 0-11.384-2.256-15.469-5.969 4.113 3.854 9.637 6.219 15.719 6.219 12.703 0 23-10.298 23-23 0-6.081-2.364-11.606-6.219-15.719z" style="opacity:.1"/>
 <path d="m31.25 2.375c8.615 3.154 14.75 11.417 14.75 21.13 0 12.426-10.07 22.5-22.5 22.5-9.708 0-17.971-6.135-21.12-14.75a23 23 0 0 0 44.875-7 23 23 0 0 0-16-21.875z" style="opacity:.2"/>
 <path d="m24 1a23 23 0 0 0-22.9 21v0.013672l0.0019531 3.9824v0.003906a23 23 0 0 0 22.898 21 23 23 0 0 0 23-23 23 23 0 0 0-23-23z" style="fill:url(#bg)"/>
 <path d="m40.03 7.531c3.712 4.084 5.969 9.514 5.969 15.469 0 12.703-10.297 23-23 23-5.954 0-11.384-2.256-15.469-5.969 4.178 4.291 10.01 6.969 16.469 6.969 12.703 0 23-10.298 23-23 0-6.462-2.677-12.291-6.969-16.469z" style="opacity:.1"/>
 <g transform="matrix(0 .097458 -.097458 0 43.902 -6.0236)" style="opacity:.1"></g>
 <path d="m13 14 4 9h-15.9l0.00195 2.9961v0.0039a23 23 0 0 0 0.13867 1h15.76l-4 9 14-4-1 2 8-4-16 2 3-5 12-1-1 1.5 8-2.5-8-2.5 1 1.5-12-1-3-5 16 2-8-4 1 2z" style="opacity:.1"/>
 <g transform="matrix(0 .097458 -.097458 0 42.902 -7.0236)" style="fill:#4682e6">
  <path transform="matrix(0 -10.261 10.261 0 72.068 440.21)" d="m12 13 4 9h-14.9c-0.062223 0.6649-0.095457 1.3322-0.099609 2 0.0048 0.66782 0.038688 1.3351 0.10156 2h14.898l-4 9 14-4-1 2 8-4-16 2 3-5 12-1-1 1.5 8-2.5-8-2.5 1 1.5-12-1-3-5 16 2-8-4 1 2z" style="fill:#4682e6"/>
 </g>
 <g transform="matrix(0 .097458 -.097458 0 43.902 -6.0236)" style="fill:#246be2"></g>
</svg>
