<svg version="1.1" viewBox="0 0 48 48" xmlns="http://www.w3.org/2000/svg">
 <defs>
  <linearGradient id="linearGradient840" x1="1" x2="47" gradientUnits="userSpaceOnUse">
   <stop style="stop-color:#323232" offset="0"/>
   <stop style="stop-color:#3c3c3c" offset="1"/>
  </linearGradient>
 </defs>
 <path d="m36.31 5c5.859 4.062 9.688 10.831 9.688 18.5 0 12.426-10.07 22.5-22.5 22.5-7.669 0-14.438-3.828-18.5-9.688 1.037 1.822 2.306 3.499 3.781 4.969 4.085 3.712 9.514 5.969 15.469 5.969 12.703 0 23-10.298 23-23 0-5.954-2.256-11.384-5.969-15.469-1.469-1.475-3.147-2.744-4.969-3.781zm4.969 3.781c3.854 4.113 6.219 9.637 6.219 15.719 0 12.703-10.297 23-23 23-6.081 0-11.606-2.364-15.719-6.219 4.16 4.144 9.883 6.719 16.219 6.719 12.703 0 23-10.298 23-23 0-6.335-2.575-12.06-6.719-16.219z" style="opacity:.05"/>
 <path d="m41.28 8.781c3.712 4.085 5.969 9.514 5.969 15.469 0 12.703-10.297 23-23 23-5.954 0-11.384-2.256-15.469-5.969 4.113 3.854 9.637 6.219 15.719 6.219 12.703 0 23-10.298 23-23 0-6.081-2.364-11.606-6.219-15.719z" style="opacity:.1"/>
 <path d="m31.25 2.375c8.615 3.154 14.75 11.417 14.75 21.13 0 12.426-10.07 22.5-22.5 22.5-9.708 0-17.971-6.135-21.12-14.75a23 23 0 0 0 44.875-7 23 23 0 0 0-16-21.875z" style="opacity:.2"/>
 <g transform="matrix(0,-1,1,0,0,48)" style="fill:#501616">
  <path d="m24 1c12.703 0 23 10.297 23 23s-10.297 23-23 23-23-10.297-23-23 10.297-23 23-23z" style="fill:url(#linearGradient840)"/>
 </g>
 <path d="m40.03 7.531c3.712 4.084 5.969 9.514 5.969 15.469 0 12.703-10.297 23-23 23-5.954 0-11.384-2.256-15.469-5.969 4.178 4.291 10.01 6.969 16.469 6.969 12.703 0 23-10.298 23-23 0-6.462-2.677-12.291-6.969-16.469z" style="opacity:.1"/>
 <path d="m13 15v20h4c1.6506 0 2.9446-0.35398 3.9844-0.91211 1.2263 0.65781 2.6191 0.91211 4.0156 0.91211 1.1642 0 2.325-0.17776 3.3906-0.61523 0.10543 0.0511 0.20328 0.11296 0.3125 0.1582 2.242 0.92868 4.8231 0.4152 6.5391-1.3008s2.2295-4.297 1.3008-6.5391c-0.67266-1.6239-2.0091-2.8287-3.6152-3.375-0.12976-1.6196-0.44725-2.9472-0.91211-4.0254 0.59611 0.35756 0.98438 0.98797 0.98438 1.6973h4c0-2.4268-1.4611-4.6143-3.7031-5.543-1.6126-0.66795-3.3969-0.57868-4.9121 0.15625-1.064-0.43574-2.2226-0.61328-3.3848-0.61328-1.3962 0-2.7895 0.25267-4.0156 0.91016-1.0396-0.55785-2.3343-0.91016-3.9844-0.91016zm4 4c0.39329 0 0.73688 0.04946 1.0566 0.12109-0.66372 1.4522-1.0566 3.3694-1.0566 5.8789 0 2.5104 0.39248 4.4285 1.0566 5.8809-0.31965 0.071581-0.66351 0.11914-1.0566 0.11914v-6zm8 0c0.11256 0 0.22374 0.01657 0.33594 0.02344 5.37e-4 1.99e-4 0.0014-2e-4 2e-3 0-0.47526 1.3632-0.45643 2.8839 0.11914 4.2734 0.6501 1.5695 1.9228 2.7415 3.457 3.3125-0.1091 0.99834-0.32155 1.7825-0.61138 2.3906h-3.3027c0 0.68661 0.12905 1.3494 0.34766 1.9746-0.11612 0.007381-0.23114 0.025391-0.34766 0.025391-0.35871 0-0.71338-0.049215-1.0605-0.13086 1.0548-2.2807 1.0605-4.8512 1.0605-5.8691 0-1.0176-0.0049-3.5871-1.0586-5.8672v-2e-3c0.34659-0.081277 0.70052-0.13081 1.0586-0.13081zm7.7539 9.0801c0.02832 0.05384 0.07016 0.09734 0.09375 0.1543 0.30956 0.74734 0.13839 1.6077-0.43359 2.1797-0.12182 0.12182-0.26216 0.2161-0.40625 0.30078 0.32556-0.75077 0.57668-1.6273 0.74609-2.6348z" style="opacity:.1"/>
 <path d="m24 28c0 2.4268 1.4618 4.6146 3.7039 5.5432 2.242 0.92868 4.8227 0.41535 6.5387-1.3006 1.716-1.716 2.2293-4.2967 1.3006-6.5387-0.92868-2.242-3.1165-3.7039-5.5432-3.7039-0.80892 0-1.5382-0.48728-1.8477-1.2346-0.30956-0.74734-0.13844-1.6076 0.43354-2.1796 0.57199-0.57199 1.4322-0.7431 2.1796-0.43354 0.74734 0.30956 1.2346 1.0388 1.2346 1.8477h4c0-2.4268-1.4618-4.6146-3.7039-5.5432-2.242-0.92868-4.8227-0.41535-6.5387 1.3006-1.716 1.716-2.2293 4.2967-1.3006 6.5387 0.92868 2.242 3.1165 3.7039 5.5432 3.7039 0.80892 0 1.5382 0.48728 1.8477 1.2346 0.30956 0.74734 0.13844 1.6076-0.43354 2.1796-0.57199 0.57199-1.4322 0.7431-2.1796 0.43354-0.74734-0.30956-1.2346-1.0388-1.2346-1.8477z" style="fill:#f6c043"/>
 <path d="m28.332 21.064c0.41353 0.90077 0.66797 2.1632 0.66797 3.9355 0 0.33158-0.02988 0.60116-0.04687 0.89844 0.34271 0.06085 0.69062 0.10156 1.0469 0.10156 0.80892 0 1.5381 0.48703 1.8477 1.2344 0.30956 0.74734 0.13839 1.6077-0.43359 2.1797-0.143 0.143-0.30379 0.26187-0.35502 0.29011s1.4452-0.72229 1.7906-2.3429c0.088146-0.72857 0.15039-1.498 0.15039-2.3613 0-0.81775-0.051542-1.5573-0.13086-2.2539-0.86418-0.4721-1.842-0.74609-2.8691-0.74609-0.68985 0-1.3049-0.3677-1.668-0.93555z" style="opacity:.1"/>
 <path d="m24 14c-4 0-7.9999 2-7.9999 9.9999s4 9.9999 7.9999 9.9999c4 0 7.9999-2 7.9999-9.9999s-4-9.9999-7.9999-9.9999zm0 4c2 0 4 0.99999 4 6s-2 6-4 6-4-0.99999-4-6 2-6 4-6z" style="fill:#b143d7"/>
 <path d="m26.627 29c-0.45558 0.47616-0.99408 0.73283-1.5625 0.86719 0.20806 1.4257 0.92757 2.7132 1.9961 3.6465 1.2887-0.45553 2.4487-1.2801 3.3223-2.6289-0.04899-0.01598-0.10028-0.01716-0.14844-0.03711-0.74734-0.30956-1.2344-1.0387-1.2344-1.8477z" style="opacity:.1"/>
 <path d="m28.824 15.424c-0.1486 0.05874-0.29706 0.11939-0.44141 0.18945 0.01051 0.0043 0.02076 0.0093 0.03125 0.01367-0.02299 4.91e-4 -0.03921-0.0026-0.0625-2e-3 -0.57942 0.28526-1.1206 0.65966-1.5938 1.1328-0.46492 0.46492-0.83582 0.99491-1.1191 1.5625 0.58816 0.25555 1.1211 0.69048 1.5293 1.4199h0.8418l2.4668-0.66992v0.01563c0.26743-0.07307 0.54759-0.08841 0.82422-0.05078-0.5628-1.6717-1.4331-2.8287-2.4766-3.6113z" style="opacity:.1"/>
 <path d="m20.713 28.035c-0.35489 1.4026-1.161 2.6808-3.0469 2.9219 1.0221 1.5367 2.4228 2.3761 3.957 2.7617 6.1e-4 1.53e-4 0.0013-1.53e-4 2e-3 0 1.3798-0.95817 2.1916-2.3395 2.6738-3.7402-0.099935 0.00539-0.19874 0.021484-0.29888 0.021484-1.2654 0-2.5283-0.40439-3.2871-1.9648z" style="opacity:.1"/>
 <path d="m12 14v20h4c7.9999 0 7.9999-7.9999 7.9999-9.9999s0-9.9999-7.9999-9.9999zm4 4c4 0 4 4 4 6s0 6-4 6z" style="fill:#d41329"/>
 <path d="m21.234 15.781c-1.1617 0.56052-2.1818 1.4748-2.9316 2.8691 1.6965 1.2159 1.6973 3.847 1.6973 5.3496 0 0.9076-0.016037 2.2184-0.39258 3.3867l0.02539-0.009766 1.7637-5.5938c0.005218-0.017083 0.010316-0.033897 0.015625-0.050781l0.001953-0.00586c0.42702-1.3531 1.146-2.0693 1.9746-2.4199-0.39749-1.2721-1.0608-2.542-2.1543-3.5254z" style="opacity:.1"/>
 <path d="m20.004 14.922c-1.1946 0.63744-2.2368 1.6412-2.9531 3.2187 2.9209 0.66326 2.9492 4.0583 2.9492 5.8593 0-4.1046 1.3522-5.4942 2.9414-5.8671-0.05072-1.555-0.04858-3.2152-2.9375-3.2109z" style="fill:#b143d7"/>
 <path d="m27.351 14.625c-0.57942 0.28526-1.1206 0.65965-1.5937 1.1328-0.6526 0.6526-1.1303 1.4291-1.4219 2.2656 1.3796 0.51201 2.369 2.2819 3.664 5.9765l0.0102-4.2598c0.0102-0.2598 0.1939-0.7723 0.57585-1.1543 0.57199-0.57199 1.4323-0.74315 2.1797-0.43359 0.09172 0.038 0.16652 0.09842 0.25 0.14844-0.08276-2.2615-0.4669-3.7664-3.664-3.6758z" style="fill:#f6c043"/>
 <path d="m27.297 28c-1.7715 0.35359-2.0998 1.5969-2.9492 1.9726 0.51274 1.4663 1.5808 2.6948 3.0117 3.3984 2.0361 0.0044 3.8099-0.58166 3.6484-3.6562-0.53233 0.3125-1.1856 0.37632-1.7734 0.13282-0.74734-0.30957-1.2344-1.0387-1.2344-1.8476z" style="fill:#ffc92a"/>
</svg>
