<svg version="1.1" viewBox="0 0 48 48" xmlns="http://www.w3.org/2000/svg">
 <defs>
  <linearGradient id="bg" x1="1" x2="47" gradientTransform="matrix(0 -1 1 0 -1.5e-6 48)" gradientUnits="userSpaceOnUse">
   <stop style="stop-color:#d0dae1" offset="0"/>
   <stop style="stop-color:#dde4e9" offset="1"/>
  </linearGradient>
 </defs>
 <path d="m36.3 5c5.86 4.06 9.69 10.8 9.69 18.5 0 12.4-10.1 22.5-22.5 22.5-7.67 0-14.4-3.83-18.5-9.69 1.04 1.82 2.31 3.5 3.78 4.97 4.08 3.71 9.51 5.97 15.5 5.97 12.7 0 23-10.3 23-23 0-5.95-2.26-11.4-5.97-15.5-1.47-1.48-3.15-2.74-4.97-3.78zm4.97 3.78c3.85 4.11 6.22 9.64 6.22 15.7 0 12.7-10.3 23-23 23-6.08 0-11.6-2.36-15.7-6.22 4.16 4.14 9.88 6.72 16.2 6.72 12.7 0 23-10.3 23-23 0-6.34-2.58-12.1-6.72-16.2z" style="opacity:.05"/>
 <path d="m41.3 8.78c3.71 4.08 5.97 9.51 5.97 15.5 0 12.7-10.3 23-23 23-5.95 0-11.4-2.26-15.5-5.97 4.11 3.85 9.64 6.22 15.7 6.22 12.7 0 23-10.3 23-23 0-6.08-2.36-11.6-6.22-15.7z" style="opacity:.1"/>
 <path d="m31.2 2.38c8.62 3.15 14.8 11.4 14.8 21.1 0 12.4-10.1 22.5-22.5 22.5-9.71 0-18-6.14-21.1-14.8a23 23 0 0 0 44.9-7 23 23 0 0 0-16-21.9z" style="opacity:.2"/>
 <path d="m24 1c12.7 0 23 10.3 23 23s-10.3 23-23 23-23-10.3-23-23 10.3-23 23-23z" style="fill:url(#bg)"/>
 <path d="m14.4 33.3c-0.07 0.301-0.113 0.512 0.0234 0.727 0.246 0.379 0.633 0.477 2.87 0.914 1.2 0.234 2.33 0.836 3.08 0.898 0.758 0.051 0.922-0.188 1.38-0.57 0.124-0.105 0.221-0.172 0.303-0.232 0.715-0.298 0.608-0.217 2.07-0.299 1.63-0.086 2.08-0.157 3.65 0.234 0.0142 0.0035 0.0232 0.0025 0.0371 0.0059 0.0873 0.253 0.209 0.439 0.328 0.537 0.215 0.183 0.539 0.492 1.25 0.492 0.711 0 1.15-0.317 1.62-0.758 0.301-0.282 0.621-0.547 1.54-1.14 0.735-0.468 1.84-0.984 2.06-1.19 0.109-0.101 0.304-0.199 0.32-0.574 0.012-0.324-0.266-0.43-0.461-0.543-0.273-0.148-0.981-0.684-1.34-1.21-0.215-0.32 0.09-0.848-0.207-1.25v0.0059c-0.105-0.145-0.242-0.163-0.359-0.156 0.142-0.313 0.261-0.605 0.322-0.84 0.363-1.38-0.78-3.77-1.88-5.21-1.09-1.44-1.99-2.35-2.43-4.17-0.449-1.83 0.111-1.3-0.283-2.9-0.193-0.797-0.536-1.43-0.914-1.84-0.378-0.426-0.891-0.674-1.14-0.799z" style="opacity:.1"/>
 <path d="m40 7.53c3.71 4.08 5.97 9.51 5.97 15.5 0 12.7-10.3 23-23 23-5.95 0-11.4-2.26-15.5-5.97 4.18 4.29 10 6.97 16.5 6.97 12.7 0 23-10.3 23-23 0-6.46-2.68-12.3-6.97-16.5z" style="opacity:.1"/>
 <path d="m32.9 27.3c-0.319 1.22-2.76 3.54-3.62 4.66-0.855 1.12 0.0871 2.36-1.49 1.96-1.58-0.391-2.02-0.32-3.65-0.234-1.61 0.09-1.27-0.043-2.28 0.383-1.01 0.422-4.4-5.16-4.67-6.2-0.268-1.04-0.398-0.914 0.307-2.04 0.696-1.12 0.803-2.24 1.73-3.6 0.925-1.37 1.65-2.31 1.75-3.28 0-4-0.0808-5.78 1.47-6.53 1.88-0.91 3.73-0.476 4.95 0.742 1.53 1.52 0.991 3.87 1.2 4.75 0.441 1.83 1.34 2.73 2.43 4.17 1.1 1.44 2.24 3.83 1.88 5.21" style="fill:#3d3d3d"/>
 <path d="m22.7 17.9c0.195-0.0363 0.295-0.219 0.368-0.389 0.129-0.302 0.33-0.581 0.343-0.923 0.0116-0.322-0.101-0.628-0.297-0.884-0.165-0.215-0.4-0.358-0.672-0.367-0.303-0.0104-0.519 0.241-0.614 0.497-0.155 0.421-0.117 0.894-0.0019 1.32 0.0871 0.323 0.276 0.68 0.631 0.759 0.08 0.0178 0.165 0.0135 0.242-0.0134" style="fill:#f9f9f9"/>
 <path d="m25.7 17.9c0.335-0.0275 0.712-0.112 0.917-0.399 0.345-0.482 0.321-1.16 0.0386-1.67-0.145-0.261-0.321-0.55-0.619-0.647-0.385-0.126-0.857-0.0838-1.16 0.204-0.281 0.264-0.455 0.648-0.434 1.04 0.0128 0.24 0.0615 0.486 0.22 0.675 0.182 0.217 0.331 0.475 0.586 0.617 0.143 0.0791 0.293 0.144 0.451 0.183" style="fill:#f9f9f9"/>
 <path d="m22 18.5s4.6e-5 0.824 3e-5 1.06c-3e-5 0.441 0.0093 0.715-0.266 1.06-1.22 1.54-1.79 3.27-2.43 4.97-0.272 0.725-0.596 1.73 0.0291 2.33 0.815 0.775 1.78 1.37 2.65 2.09 0.476 0.511 0.126 1.27-0.586 1.16-0.68-0.0359 0.286 0.551 0.394 0.807 0.425 0.619 1.21 0.768 1.92 0.732 1.2-0.0135 2.4-0.363 3.34-1.12 0.487-0.419 1.13-0.8 1.29-1.48 0.281-1.25 1.01-2.38 1.06-3.56 0.0494-1.21-0.333-2.4-0.893-3.49-0.741-1.45-1.25-2.82-1.87-4.19" style="fill:#f9f9f9"/>
 <path d="m25.6 16c-0.285-0.0098-0.57 0.157-0.61 0.449-0.0418 0.31-0.124 0.801 0.18 0.966 0.366 0.199 0.955-7.9e-5 1.06-0.449 0.0902-0.4-0.156-0.951-0.626-0.967zm-3.16 0.0156c-0.397-0.0079-0.519 0.486-0.426 0.801 0.0848 0.289 0.312 0.746 0.678 0.634 0.365-0.111 0.331-0.588 0.301-0.889-0.0282-0.282-0.257-0.54-0.552-0.546z" style="fill:#3d3d3d"/>
 <path d="m23.7 17c-0.367 0.0279-0.642 0.339-0.932 0.549-0.223 0.199-0.518 0.338-0.668 0.604-0.144 0.304 0.0283 0.646 0.262 0.857 0.299 0.272 0.63 0.512 0.967 0.737 0.332 0.23 0.761 0.234 1.14 0.18 0.811-0.115 1.47-0.558 2.14-0.863 0.35-0.158 0.424-0.584 0.434-0.931-0.0102-0.284-0.313-0.418-0.553-0.499-0.451-0.157-1.75-0.714-2.24-0.677z" style="fill:#ecc855"/>
 <path d="m32.9 28.4c0.316 0.397-0.0619 0.967 0.278 1.35 0.423 0.534 1 0.91 1.59 1.25 0.335 0.237 0.185 0.77-0.131 0.954-0.58 0.408-1.24 0.685-1.84 1.06-0.701 0.431-1.39 0.896-1.98 1.47-0.557 0.528-1.42 0.724-2.13 0.42-0.452-0.201-0.827-0.598-0.909-1.1-0.172-0.888 0.188-1.76 0.278-2.63 0.139-0.896 0.0191-1.81 0.119-2.7 0.0559-0.378 0.53-0.409 0.837-0.391 0.438-0.0932 0.585 0.304 0.456 0.651 0.0196 0.388 0.443 0.638 0.786 0.727 0.558 0.125 1.14-0.0688 1.56-0.442 0.331-0.166 0.42-0.601 0.716-0.768 0.145-0.0303 0.292 0.0422 0.373 0.163" style="fill:#ecc855"/>
 <path d="m16.3 29c-0.426 0.289-1.52 0.266-1.79 0.605-0.27 0.34 0.012 0.832 4e-3 1.75 0 0.391-0.07 0.684-0.117 0.922-0.07 0.301-0.113 0.512 0.023 0.727 0.246 0.379 0.633 0.477 2.87 0.914 1.2 0.234 2.33 0.836 3.08 0.898 0.758 0.051 0.922-0.188 1.38-0.57 0.457-0.387 0.605-0.27 0.59-1.11-0.016-0.844-0.59-1.09-1.24-2.07-0.652-0.973-0.758-1.15-1.19-1.8-0.434-0.637-1.29-1.79-1.78-1.8-0.391-8e-3 -0.609 0.188-0.855 0.422s-0.543 0.828-0.973 1.12" style="fill:#ecc855"/>
</svg>
