<svg xmlns="http://www.w3.org/2000/svg" viewBox="0 0 48 48">
 <defs>
  <linearGradient id="linearGradient3764" x1="1" x2="47" gradientUnits="userSpaceOnUse" gradientTransform="matrix(0,-1,1,0,-1.5e-6,47.999998)">
   <stop style="stop-color:#e4e4e4;stop-opacity:1"/>
   <stop offset="1" style="stop-color:#eee;stop-opacity:1"/>
  </linearGradient>
 </defs>
 <g>
  <path d="m 36.31 5 c 5.859 4.062 9.688 10.831 9.688 18.5 c 0 12.426 -10.07 22.5 -22.5 22.5 c -7.669 0 -14.438 -3.828 -18.5 -9.688 c 1.037 1.822 2.306 3.499 3.781 4.969 c 4.085 3.712 9.514 5.969 15.469 5.969 c 12.703 0 23 -10.298 23 -23 c 0 -5.954 -2.256 -11.384 -5.969 -15.469 c -1.469 -1.475 -3.147 -2.744 -4.969 -3.781 z m 4.969 3.781 c 3.854 4.113 6.219 9.637 6.219 15.719 c 0 12.703 -10.297 23 -23 23 c -6.081 0 -11.606 -2.364 -15.719 -6.219 c 4.16 4.144 9.883 6.719 16.219 6.719 c 12.703 0 23 -10.298 23 -23 c 0 -6.335 -2.575 -12.06 -6.719 -16.219 z" style="opacity:0.05"/>
  <path d="m 41.28 8.781 c 3.712 4.085 5.969 9.514 5.969 15.469 c 0 12.703 -10.297 23 -23 23 c -5.954 0 -11.384 -2.256 -15.469 -5.969 c 4.113 3.854 9.637 6.219 15.719 6.219 c 12.703 0 23 -10.298 23 -23 c 0 -6.081 -2.364 -11.606 -6.219 -15.719 z" style="opacity:0.1"/>
  <path d="m 31.25 2.375 c 8.615 3.154 14.75 11.417 14.75 21.13 c 0 12.426 -10.07 22.5 -22.5 22.5 c -9.708 0 -17.971 -6.135 -21.12 -14.75 a 23 23 0 0 0 44.875 -7 a 23 23 0 0 0 -16 -21.875 z" style="opacity:0.2"/>
 </g>
 <g>
  <path d="m 24 1 c 12.703 0 23 10.297 23 23 c 0 12.703 -10.297 23 -23 23 -12.703 0 -23 -10.297 -23 -23 0 -12.703 10.297 -23 23 -23 z" style="fill:url(#linearGradient3764);fill-opacity:1"/>
 </g>
 <g>
  <path d="m 40.03 7.531 c 3.712 4.084 5.969 9.514 5.969 15.469 0 12.703 -10.297 23 -23 23 c -5.954 0 -11.384 -2.256 -15.469 -5.969 4.178 4.291 10.01 6.969 16.469 6.969 c 12.703 0 23 -10.298 23 -23 0 -6.462 -2.677 -12.291 -6.969 -16.469 z" style="opacity:0.1"/>
 </g>
 <path d="m 26.583 10 c -0.87 0.022 -1.733 0.176 -2.57 0.484 -1.103 0.407 3.462 0.7 5.088 1.125 2.294 0.6 3.899 1.911 5.35 3.662 1.381 1.668 1.686 3.589 1.529 5.67 -0.164 2.167 -0.024 4.378 -0.727 6.471 -0.882 2.625 -2.624 5.02 -5.244 6.242 -2.539 1.189 -5.562 1.198 -8.05 -0.221 -1.083 -0.617 -2.812 -3.295 -2.832 -2.629 -0.081 2.744 3.155 4.301 5.656 5.342 1.938 0.807 3.918 -0.002 5.818 -0.156 1.854 -0.151 3.407 -1.106 4.734 -2.328 1.922 -1.77 3.432 -3.894 4.195 -6.41 1.277 -4.208 -0.164 -8.694 -2.877 -12.01 -2.412 -2.951 -6.3 -5.332 -10.07 -5.238 z m -1.152 3.623 c -1.4 0.024 -2.802 0.409 -4.158 0.541 -2.812 0.273 -4.535 2.632 -6.354 4.457 -1.945 1.952 -2.14 4.701 -2.717 7.189 -0.348 1.502 -3.671 2.831 -1.434 4.133 1.264 0.736 3.836 1.622 2.713 3.414 -1.608 2.565 1.384 1.579 2.854 2.213 1.697 0.732 0.977 3.499 2.564 3.244 1.95 -0.313 3.604 0.778 5.463 0.92 1.484 0.113 3.172 0.601 4.449 -0.137 0.487 -0.281 -2.644 -0.112 -3.643 -0.58 -1.834 -0.859 -4.287 -0.615 -5.643 -2.285 -1.468 -1.809 -3.729 -3.676 -3.275 -6.223 0.376 -2.11 -0.078 -4.238 0.404 -6.334 0.811 -3.524 3.888 -6.209 7.426 -7.02 1.598 -0.368 3.343 -1.14 4.951 -0.207 1.723 1 3.304 2.202 4.254 3.947 1.114 2.046 0.044 -1.49 -0.203 -2.248 c -0.731 -2.237 -2.98 -3.549 -5.145 -4.541 -0.828 -0.379 -1.668 -0.495 -2.508 -0.48 m 1.291 5.191 c -1.821 0 -4.107 0.625 -5.04 1.67 -1.246 1.393 -2.01 1.871 -2.146 3.459 -0.132 1.588 0.134 3.644 0.934 5.293 0.8 1.649 2.591 2.704 4.25 3.152 1.659 0.448 3.192 0.369 4.637 -0.232 1.445 -0.602 2.097 -2.16 2.914 -3.193 0.817 -1.034 0.552 -1.881 0.514 -3.234 -0.039 -1.353 -0.497 -3.341 -1.246 -4.635 -0.749 -1.294 -1.468 -1.475 -3.215 -2.063 -0.437 -0.147 -0.993 -0.217 -1.6 -0.217 z m -0.543 3.137 c 1.216 0.087 2.471 0.751 3.088 1.857 0.988 1.77 -0.692 4.72 -1.965 5.297 -1.273 0.577 -1.015 0.219 -1.992 0.088 -0.977 -0.131 -2.094 -1.102 -2.451 -2.453 -0.357 -1.351 -0.16 -3.245 1.32 -4.293 0.555 -0.393 1.271 -0.548 2 -0.496 z" style="fill:#000;opacity:0.1;fill-opacity:1"/>
 <path d="m 23.719 31.391 c -1.659 -0.448 -3.451 -1.504 -4.251 -3.153 -0.8 -1.649 -1.065 -3.705 -0.934 -5.293 0.132 -1.588 0.901 -2.067 2.146 -3.46 1.246 -1.393 4.894 -2.041 6.64 -1.453 1.746 0.588 2.467 0.768 3.216 2.062 0.749 1.294 1.208 3.283 1.247 4.636 0.039 1.353 0.303 2.2 -0.514 3.233 -0.817 1.034 -1.47 2.593 -2.915 3.195 -1.445 0.602 -2.976 0.68 -4.636 0.232 z m 2.583 -3.283 c 1.273 -0.577 2.952 -3.526 1.965 -5.296 -0.988 -1.77 -3.607 -2.41 -5.087 -1.362 -1.48 1.048 -1.678 2.943 -1.321 4.294 0.357 1.351 1.475 2.321 2.452 2.453 0.977 0.131 0.718 0.489 1.991 -0.088 z" style="fill:#6f6f6f;fill-opacity:1"/>
 <path d="m 23.781 35.15 c -2.501 -1.041 -5.736 -2.598 -5.655 -5.342 0.02 -0.666 1.749 2.01 2.832 2.629 2.491 1.418 5.512 1.409 8.05 0.221 2.62 -1.227 4.364 -3.618 5.246 -6.243 0.703 -2.092 0.562 -4.302 0.726 -6.469 0.157 -2.081 -0.148 -4 -1.529 -5.671 -1.45 -1.751 -3.056 -3.061 -5.35 -3.662 -1.625 -0.425 -6.19 -0.718 -5.087 -1.125 4.466 -1.647 9.669 1.123 12.638 4.755 2.713 3.319 4.155 7.804 2.877 12.01 -0.764 2.516 -2.273 4.641 -4.196 6.41 -1.328 1.222 -2.879 2.177 -4.734 2.328 -1.901 0.155 -3.881 0.964 -5.819 0.157 z" style="fill:#065072;fill-opacity:1"/>
 <path d="m 23.363 38.737 c -1.859 -0.142 -3.512 -1.233 -5.462 -0.92 -1.588 0.255 -0.867 -2.512 -2.564 -3.244 -1.469 -0.634 -4.462 0.352 -2.854 -2.213 1.123 -1.792 -1.449 -2.679 -2.713 -3.415 -2.238 -1.302 1.087 -2.631 1.434 -4.133 0.576 -2.489 0.771 -5.237 2.717 -7.19 1.819 -1.825 3.542 -4.184 6.354 -4.457 2.169 -0.211 4.458 -1.072 6.665 -0.06 2.164 0.992 4.414 2.305 5.145 4.542 0.248 0.758 1.317 4.292 0.203 2.246 -0.95 -1.745 -2.53 -2.946 -4.253 -3.946 -1.608 -0.933 -3.354 -0.161 -4.952 0.207 -3.538 0.815 -6.615 3.499 -7.426 7.02 -0.482 2.096 -0.028 4.225 -0.404 6.335 -0.454 2.546 1.808 4.414 3.276 6.223 1.356 1.67 3.808 1.424 5.642 2.284 0.999 0.468 4.129 0.3 3.642 0.581 -1.277 0.738 -2.966 0.251 -4.449 0.137 z" style="fill:#078907;fill-opacity:1"/>
</svg>
