<svg version="1.1" viewBox="0 0 48 48" xmlns="http://www.w3.org/2000/svg">
 <defs>
  <linearGradient id="bg" x1="1" x2="47" gradientTransform="rotate(-90,24,24)" gradientUnits="userSpaceOnUse">
   <stop style="stop-color:#3d3d3d" offset="0"/>
   <stop style="stop-color:#474747" offset="1"/>
  </linearGradient>
 </defs>
 <path d="m36.3 5c5.86 4.06 9.69 10.8 9.69 18.5 0 12.4-10.1 22.5-22.5 22.5-7.67 0-14.4-3.83-18.5-9.69 1.04 1.82 2.31 3.5 3.78 4.97 4.08 3.71 9.51 5.97 15.5 5.97 12.7 0 23-10.3 23-23 0-5.95-2.26-11.4-5.97-15.5-1.47-1.48-3.15-2.74-4.97-3.78zm4.97 3.78c3.85 4.11 6.22 9.64 6.22 15.7 0 12.7-10.3 23-23 23-6.08 0-11.6-2.36-15.7-6.22 4.16 4.14 9.88 6.72 16.2 6.72 12.7 0 23-10.3 23-23 0-6.34-2.58-12.1-6.72-16.2z" style="opacity:.05"/>
 <path d="m41.3 8.78c3.71 4.08 5.97 9.51 5.97 15.5 0 12.7-10.3 23-23 23-5.95 0-11.4-2.26-15.5-5.97 4.11 3.85 9.64 6.22 15.7 6.22 12.7 0 23-10.3 23-23 0-6.08-2.36-11.6-6.22-15.7z" style="opacity:.1"/>
 <path d="m31.2 2.38c8.62 3.15 14.8 11.4 14.8 21.1 0 12.4-10.1 22.5-22.5 22.5-9.71 0-18-6.14-21.1-14.8a23 23 0 0 0 44.9-7 23 23 0 0 0-16-21.9z" style="opacity:.2"/>
 <path d="m1 24c0-12.7 10.3-23 23-23s23 10.3 23 23-10.3 23-23 23-23-10.3-23-23z" style="fill:url(#bg)"/>
 <path d="m40 7.53c3.71 4.08 5.97 9.51 5.97 15.5 0 12.7-10.3 23-23 23-5.95 0-11.4-2.26-15.5-5.97 4.18 4.29 10 6.97 16.5 6.97 12.7 0 23-10.3 23-23 0-6.46-2.68-12.3-6.97-16.5z" style="opacity:.1"/>
 <path d="m13 15v20h4c1.65 0 2.94-0.354 3.98-0.912 1.23 0.658 2.62 0.912 4.02 0.912 1.16 0 2.32-0.178 3.39-0.615 0.105 0.0511 0.203 0.113 0.312 0.158 2.24 0.929 4.82 0.415 6.54-1.3s2.23-4.3 1.3-6.54c-0.673-1.62-2.01-2.83-3.62-3.38-0.13-1.62-0.447-2.95-0.912-4.03 0.596 0.358 0.984 0.988 0.984 1.7h4c0-2.43-1.46-4.61-3.7-5.54-1.61-0.668-3.4-0.579-4.91 0.156-1.06-0.436-2.22-0.613-3.38-0.613-1.4 0-2.79 0.253-4.02 0.91-1.04-0.558-2.33-0.91-3.98-0.91zm4 4c0.393 0 0.737 0.0495 1.06 0.121-0.664 1.45-1.06 3.37-1.06 5.88 0 2.51 0.392 4.43 1.06 5.88-0.32 0.0716-0.664 0.119-1.06 0.119v-6zm8 0c0.113 0 0.224 0.0166 0.336 0.0234 5.37e-4 1.99e-4 0.0014-2e-4 2e-3 0-0.475 1.36-0.456 2.88 0.119 4.27 0.65 1.57 1.92 2.74 3.46 3.31-0.109 0.998-0.322 1.78-0.611 2.39h-3.3c0 0.687 0.129 1.35 0.348 1.97-0.116 0.00738-0.231 0.0254-0.348 0.0254-0.359 0-0.713-0.0492-1.06-0.131 1.05-2.28 1.06-4.85 1.06-5.87 0-1.02-0.0049-3.59-1.06-5.87v-2e-3c0.347-0.0813 0.701-0.131 1.06-0.131zm7.75 9.08c0.0283 0.0538 0.0702 0.0973 0.0938 0.154 0.31 0.747 0.138 1.61-0.434 2.18-0.122 0.122-0.262 0.216-0.406 0.301 0.326-0.751 0.577-1.63 0.746-2.63z" style="opacity:.1"/>
 <path d="m24 28c0 2.43 1.46 4.61 3.7 5.54 2.24 0.929 4.82 0.415 6.54-1.3 1.72-1.72 2.23-4.3 1.3-6.54-0.929-2.24-3.12-3.7-5.54-3.7-0.809 0-1.54-0.487-1.85-1.23-0.31-0.747-0.138-1.61 0.434-2.18 0.572-0.572 1.43-0.743 2.18-0.434 0.747 0.31 1.23 1.04 1.23 1.85h4c0-2.43-1.46-4.61-3.7-5.54-2.24-0.929-4.82-0.415-6.54 1.3-1.72 1.72-2.23 4.3-1.3 6.54 0.929 2.24 3.12 3.7 5.54 3.7 0.809 0 1.54 0.487 1.85 1.23 0.31 0.747 0.138 1.61-0.434 2.18-0.572 0.572-1.43 0.743-2.18 0.434-0.747-0.31-1.23-1.04-1.23-1.85z" style="fill:#f8cc68"/>
 <path d="m28.3 21.1c0.414 0.901 0.668 2.16 0.668 3.94 0 0.332-0.0299 0.601-0.0469 0.898 0.343 0.0608 0.691 0.102 1.05 0.102 0.809 0 1.54 0.487 1.85 1.23 0.31 0.747 0.138 1.61-0.434 2.18-0.143 0.143-0.304 0.262-0.355 0.29s1.45-0.722 1.79-2.34c0.0881-0.729 0.15-1.5 0.15-2.36 0-0.818-0.0515-1.56-0.131-2.25-0.864-0.472-1.84-0.746-2.87-0.746-0.69 0-1.3-0.368-1.67-0.936z" style="opacity:.1"/>
 <path d="m24 14c-4 0-8 2-8 10s4 10 8 10c4 0 8-2 8-10s-4-10-8-10zm0 4c2 0 4 1 4 6s-2 6-4 6-4-1-4-6 2-6 4-6z" style="fill:#c26ce0"/>
 <path d="m26.6 29c-0.456 0.476-0.994 0.733-1.56 0.867 0.208 1.43 0.928 2.71 2 3.65 1.29-0.456 2.45-1.28 3.32-2.63-0.049-0.016-0.1-0.0172-0.148-0.0371-0.747-0.31-1.23-1.04-1.23-1.85z" style="opacity:.1"/>
 <path d="m28.8 15.4c-0.149 0.0587-0.297 0.119-0.441 0.189 0.0105 0.0043 0.0208 0.0093 0.0312 0.0137-0.023 4.91e-4 -0.0392-0.0026-0.0625-2e-3 -0.579 0.285-1.12 0.66-1.59 1.13-0.465 0.465-0.836 0.995-1.12 1.56 0.588 0.256 1.12 0.69 1.53 1.42h0.842l2.47-0.67v0.0156c0.267-0.0731 0.548-0.0884 0.824-0.0508-0.563-1.67-1.43-2.83-2.48-3.61z" style="opacity:.1"/>
 <path d="m20.7 28c-0.355 1.4-1.16 2.68-3.05 2.92 1.02 1.54 2.42 2.38 3.96 2.76 6.1e-4 1.53e-4 0.0013-1.53e-4 2e-3 0 1.38-0.958 2.19-2.34 2.67-3.74-0.0999 0.00539-0.199 0.0215-0.299 0.0215-1.27 0-2.53-0.404-3.29-1.96z" style="opacity:.1"/>
 <path d="m12 14v20h4c8 0 8-8 8-10s0-10-8-10zm4 4c4 0 4 4 4 6s0 6-4 6z" style="fill:#ec2c42"/>
 <path d="m21.2 15.8c-1.16 0.561-2.18 1.47-2.93 2.87 1.7 1.22 1.7 3.85 1.7 5.35 0 0.908-0.016 2.22-0.393 3.39l0.0254-0.00977 1.76-5.59c0.00522-0.0171 0.0103-0.0339 0.0156-0.0508l0.00195-0.00586c0.427-1.35 1.15-2.07 1.97-2.42-0.397-1.27-1.06-2.54-2.15-3.53z" style="opacity:.1"/>
 <path d="m20 14.9c-1.19 0.637-2.24 1.64-2.95 3.22 2.92 0.663 2.95 4.06 2.95 5.86 0-4.1 1.35-5.49 2.94-5.87-0.0507-1.56-0.0486-3.22-2.94-3.21z" style="fill:#c26ce0"/>
 <path d="m27.4 14.6c-0.579 0.285-1.12 0.66-1.59 1.13-0.653 0.653-1.13 1.43-1.42 2.27 1.38 0.512 2.37 2.28 3.66 5.98l0.0102-4.26c0.0102-0.26 0.194-0.772 0.576-1.15 0.572-0.572 1.43-0.743 2.18-0.434 0.0917 0.038 0.167 0.0984 0.25 0.148-0.0828-2.26-0.467-3.77-3.66-3.68z" style="fill:#f8cc68"/>
 <path d="m27.3 28c-1.77 0.354-2.1 1.6-2.95 1.97 0.513 1.47 1.58 2.69 3.01 3.4 2.04 0.0044 3.81-0.582 3.65-3.66-0.532 0.312-1.19 0.376-1.77 0.133-0.747-0.31-1.23-1.04-1.23-1.85z" style="fill:#f8cc68"/>
</svg>
