<svg version="1.1" viewBox="0 0 48 48" xmlns="http://www.w3.org/2000/svg">
 <defs>
  <linearGradient id="linearGradient1115" x1="1" x2="47" gradientUnits="userSpaceOnUse">
   <stop style="stop-color:#d5c9db" offset="0"/>
   <stop style="stop-color:#ded5e3" offset="1"/>
  </linearGradient>
 </defs>
 <path d="m36.31 5c5.859 4.062 9.688 10.831 9.688 18.5 0 12.426-10.07 22.5-22.5 22.5-7.669 0-14.438-3.828-18.5-9.688 1.037 1.822 2.306 3.499 3.781 4.969 4.085 3.712 9.514 5.969 15.469 5.969 12.703 0 23-10.298 23-23 0-5.954-2.256-11.384-5.969-15.469-1.469-1.475-3.147-2.744-4.969-3.781zm4.969 3.781c3.854 4.113 6.219 9.637 6.219 15.719 0 12.703-10.297 23-23 23-6.081 0-11.606-2.364-15.719-6.219 4.16 4.144 9.883 6.719 16.219 6.719 12.703 0 23-10.298 23-23 0-6.335-2.575-12.06-6.719-16.219z" style="opacity:.05"/>
 <path d="m41.28 8.781c3.712 4.085 5.969 9.514 5.969 15.469 0 12.703-10.297 23-23 23-5.954 0-11.384-2.256-15.469-5.969 4.113 3.854 9.637 6.219 15.719 6.219 12.703 0 23-10.298 23-23 0-6.081-2.364-11.606-6.219-15.719z" style="opacity:.1"/>
 <path d="m31.25 2.375c8.615 3.154 14.75 11.417 14.75 21.13 0 12.426-10.07 22.5-22.5 22.5-9.708 0-17.971-6.135-21.12-14.75a23 23 0 0 0 44.875-7 23 23 0 0 0-16-21.875z" style="opacity:.2"/>
 <g transform="matrix(0,-1,1,0,0,48)" style="fill:#501616">
  <path d="m24 1c12.703 0 23 10.297 23 23s-10.297 23-23 23-23-10.297-23-23 10.297-23 23-23z" style="fill:url(#linearGradient1115)"/>
 </g>
 <path d="m16.454 12.145c0.01999 0.60161 0.32728 1.5163 0.83594 2.4395-0.4544-0.38544-0.92894-0.84744-1.3984-1.418 0.36671 1.1222 1.115 2.1508 1.9824 2.9121-0.49229-0.28572-1.0076-0.71177-1.5371-1.3477 0.75232 1.6925 1.9647 2.6336 3.4043 3.0879-0.78002 0.02453-1.387-0.38567-2.3281-1.1133 0.67183 1.1948 1.6718 1.9756 2.6797 2.4551-0.63699-0.11832-1.2886-0.35797-1.8613-0.83203 0.68772 1.1943 2.1787 1.9115 3.5254 2.3047-0.7255 0.11639-1.5933-0.0026-2.1621-0.53906 0.50883 1.1605 1.8153 1.8471 3.0918 2.0664-0.77649 0.23845-1.4519 0.09965-1.8613-0.1582 0.2966 0.56248 1.4335 1.1516 2.9336 1.3223-0.89095 0.30245-1.7839 0.41605-2.5703 0.22656 0.99159 0.6477 2.3949 0.7472 3.6055 0.60742-0.58133 0.5518-1.2664 0.70648-1.9199 0.68555 0.3687 0.32423 1.4937 0.42893 2.6113 0.33789-0.52645 0.56453-1.1483 0.82117-1.7246 0.82422 0.20113 0.17454 1.2557 0.24463 2.3145 0.13477-0.55627 0.5351-1.1978 0.9516-1.8906 1.1309 0.34135 0.10043 1.6281-0.13778 2.6719-0.57812-0.42854 0.66368-0.90943 0.94051-1.7559 1.0996 0.16254 0.14363 0.80592 0.17959 1.5176 0.05664-1.0691 3.4866-4.1741 4.1504-6.6172 4.1504 0 0 2 1 4 0 0 0-1 1-4 2 0 0 3 0 4-1 0 0-1 2-2 3 7-5 8-10 8-13 0 0 0-1 1-1s1-1 3-1c-1-1-5-1-6 2-3-2-9-7-9-9 0 0.23052 0.02514 0.46585 0.06641 0.70508-1.3554-0.74082-2.0703-1.2431-2.6133-2.5605z" style="opacity:.1"/>
 <path d="m40.03 7.531c3.712 4.084 5.969 9.514 5.969 15.469 0 12.703-10.297 23-23 23-5.954 0-11.384-2.256-15.469-5.969 4.178 4.291 10.01 6.969 16.469 6.969 12.703 0 23-10.298 23-23 0-6.462-2.677-12.291-6.969-16.469z" style="opacity:.1"/>
 <path d="m19.556 16.71-1.4598-2.9882c-1.377-0.75084-2.0961-1.2489-2.6435-2.5771 0.04854 1.4608 1.7334 4.7643 4.1034 5.5653" style="fill:#ffc70f"/>
 <path d="m18.688 15 0.7875 1.3652c-1.6812-0.14261-3.8656-1.998-4.5849-4.1994 1.5865 1.9279 3.274 2.7404 3.7974 2.8342z" style="fill:#ffbb0f"/>
 <path d="m15.335 13.731c1.3759 1.6522 2.665 1.9022 3.665 1.8944l1.2812 1.5c-2.1016-0.20312-3.9375-1.125-4.9463-3.3944z" style="fill:#ffaf0f"/>
 <path d="m21.648 18.781c-1.4453 0.01563-3.9453-0.78125-5.236-3.0767 1.3219 1.022 1.9782 1.4361 3.3922 0.86574l1.8438 2.2109" style="fill:#ffa30f"/>
 <path d="m22.562 20c-1.4375-0.14062-4.2969-0.875-5.3315-2.6717 1.4721 1.2186 3.4721 0.91391 4.3784 0.87485z" style="fill:#ff970f"/>
 <path d="m21.906 19.109c-0.53125 0.625-2.3516 0.89062-3.3123-0.01548 0.83577 1.9061 3.8201 2.5545 5.2967 1.9061z" style="fill:#ff8b0f"/>
 <path d="m23 20.406 0.73438 0.47656 0.89062 1.4297c-2.375 0.3125-4.3906-0.53125-4.8016-1.3106 0.62972 0.39656 1.8875 0.52937 3.1766-0.59563z" style="fill:#ff7f0f"/>
 <path d="m25.865 22.594c-1.0551 0.59376-3.9775 1.0662-5.6764-0.04355 1.373 0.33081 3.069-0.23819 4.5163-1.1828l1.1601 1.2264" style="fill:#ff730f"/>
 <path d="m26.627 23.665c-1.2043 0.66548-4.1156 0.74025-4.7544 0.17849 0.98133 0.03143 2.042-0.31089 2.6994-1.844z" style="fill:#ff670f"/>
 <path d="m27.168 24.494c-0.9557 0.82312-4.0493 0.82312-4.4091 0.51089 0.94536-5e-3 2.0171-0.67662 2.5805-2.3063z" style="fill:#ff5b0f"/>
 <path d="m23.184 26.272c0.49298 0.14504 2.9681-0.40656 3.8159-1.2715m-3.8159 1.2715c1.3824-0.35766 2.5591-1.6587 3.2662-2.9651l0.54979 1.6936" style="fill:#ff4f0f"/>
 <path d="m26.18 25.118 0.38117 1.475c-1.0109 0.41432-2.2263 0.40666-2.4604 0.19977 1.0628-0.19977 1.5489-0.55639 2.0792-1.6747z" style="fill:#ff430f"/>
 <path d="m27 22c1-3 5-3 6-2-2 0-2 1-3 1s-1 1-1 1c0 3-1 8-8 13 1-1 2-3 2-3-1 1-4 1-4 1 3-1 4-2 4-2-2 1-4 0-4 0 3 0 7-1 7-7-2-2-8-7.1689-8-11 0 2 6 7 9 9z" style="fill:#ff430f"/>
</svg>
