<svg xmlns="http://www.w3.org/2000/svg" version="1.1" viewBox="0 0 48 48">
 <defs>
  <linearGradient id="linearGradient3764" x2="47" gradientUnits="userSpaceOnUse" x1="1" gradientTransform="matrix(0 -1 1 0 -.0000015 48)">
   <stop style="stop-color:#752521" offset="0"/>
   <stop style="stop-color:#852a25" offset="1"/>
  </linearGradient>
 </defs>
 <path style="opacity:.05" d="m36.31 5c5.859 4.062 9.688 10.831 9.688 18.5 0 12.426-10.07 22.5-22.5 22.5-7.669 0-14.438-3.828-18.5-9.688 1.037 1.822 2.306 3.499 3.781 4.969 4.085 3.712 9.514 5.969 15.469 5.969 12.703 0 23-10.298 23-23 0-5.954-2.256-11.384-5.969-15.469-1.469-1.475-3.147-2.744-4.969-3.781zm4.969 3.781c3.854 4.113 6.219 9.637 6.219 15.719 0 12.703-10.297 23-23 23-6.081 0-11.606-2.364-15.719-6.219 4.16 4.144 9.883 6.719 16.219 6.719 12.703 0 23-10.298 23-23 0-6.335-2.575-12.06-6.719-16.219z"/>
 <path style="opacity:.1" d="m41.28 8.781c3.712 4.085 5.969 9.514 5.969 15.469 0 12.703-10.297 23-23 23-5.954 0-11.384-2.256-15.469-5.969 4.113 3.854 9.637 6.219 15.719 6.219 12.703 0 23-10.298 23-23 0-6.081-2.364-11.606-6.219-15.719z"/>
 <path style="opacity:.2" d="m31.25 2.375c8.615 3.154 14.75 11.417 14.75 21.13 0 12.426-10.07 22.5-22.5 22.5-9.708 0-17.971-6.135-21.12-14.75a23 23 0 0 0 44.875 -7 23 23 0 0 0 -16 -21.875z"/>
 <path style="fill:url(#linearGradient3764)" d="m24 1c12.703 0 23 10.297 23 23s-10.297 23-23 23-23-10.297-23-23 10.297-23 23-23z"/>
 <path style="opacity:.1" d="m40.03 7.531c3.712 4.084 5.969 9.514 5.969 15.469 0 12.703-10.297 23-23 23-5.954 0-11.384-2.256-15.469-5.969 4.178 4.291 10.01 6.969 16.469 6.969 12.703 0 23-10.298 23-23 0-6.462-2.677-12.291-6.969-16.469z"/>
 <path d="m25 12c-3.87 0-6.0922 2.3479-7.3652 5.4434-4.604 1.283-6.635 5.092-6.635 7.557 0 7 7 12 12 13-4-2-9-6-9-13 0-1.6997 0.96495-3.397 2.709-4.5508-0.57 2.594-0.709 5.343-0.709 7.551 0-1.658 0.921-5.451 2.754-8.516 0.958-0.306 2.042-0.483 3.246-0.484 0.09012-0.000068 0.21145 0.0019 0.30664 0.002-0.483 0.302-0.936 0.627-1.307 0.998 0.97928-0.58053 2.4997-0.89772 4-1 1.5003 0.10228 3.0207 0.41947 4 1-0.37064-0.37064-0.82409-0.6961-1.3066-0.99805 0.09519-0.000036 0.21652-0.002 0.30664-0.002 1.2036 0.000877 2.2882 0.17838 3.2461 0.48438 1.833 3.065 2.754 6.858 2.754 8.516 0-2.208-0.139-4.957-0.709-7.551 1.744 1.154 2.709 2.851 2.709 4.551 0 7-5 11-9 13 5-1 12-6 12-13 0-2.4646-2.031-6.2736-6.6348-7.5566-1.273-3.095-3.495-5.443-7.365-5.443zm0 3c1.6902 0 3.1336 0.80851 4.3477 2.0156-0.11782-0.0029-0.22748-0.01563-0.34766-0.01563-1 0-2.5 0.25-4 0.75-1.5-0.5-3-0.75-4-0.75-0.12018 0-0.22983 0.01271-0.34766 0.01563 1.2141-1.2071 2.6574-2.0156 4.3477-2.0156zm0 5a8 8 0 0 0 -8 8 8 8 0 0 0 8 8 8 8 0 0 0 8 -8 8 8 0 0 0 -8 -8z" style="opacity:.1"/>
 <path style="fill:#ea5259" d="m24 11c-3.87 0-6.0922 2.3479-7.3652 5.4434-4.604 1.283-6.635 5.092-6.635 7.557 0 7 7 12 12 13-4-2-9-6-9-13 0-1.6997 0.96495-3.397 2.709-4.5508-0.57 2.594-0.709 5.343-0.709 7.551 0-1.658 0.921-5.451 2.754-8.516 0.958-0.306 2.042-0.483 3.246-0.484 0.09012-0.000068 0.21145 0.0019 0.30664 0.002-0.483 0.302-0.936 0.627-1.307 0.998 0.97928-0.58053 2.4997-0.89772 4-1 1.5003 0.10228 3.0207 0.41947 4 1-0.37064-0.37064-0.82409-0.6961-1.3066-0.99805 0.09519-0.000036 0.21652-0.002 0.30664-0.002 1.2036 0.000877 2.2882 0.17838 3.2461 0.48438 1.833 3.065 2.754 6.858 2.754 8.516 0-2.208-0.139-4.957-0.709-7.551 1.744 1.154 2.709 2.851 2.709 4.551 0 7-5 11-9 13 5-1 12-6 12-13 0-2.4646-2.031-6.2736-6.6348-7.5566-1.273-3.095-3.495-5.443-7.365-5.443zm0 3c1.6902 0 3.1336 0.80851 4.3477 2.0156-0.11782-0.0029-0.22748-0.01563-0.34766-0.01563-1 0-2.5 0.25-4 0.75-1.5-0.5-3-0.75-4-0.75-0.12018 0-0.22983 0.01271-0.34766 0.01563 1.2141-1.2071 2.6574-2.0156 4.3477-2.0156zm0 5a8 8 0 0 0 -8 8 8 8 0 0 0 8 8 8 8 0 0 0 8 -8 8 8 0 0 0 -8 -8z"/>
</svg>
