<svg version="1.1" viewBox="0 0 48 48" xmlns="http://www.w3.org/2000/svg">
 <defs>
  <linearGradient id="linearGradient3764" x1="1" x2="47" gradientTransform="matrix(0 -1 1 0 -1.5e-6 48)" gradientUnits="userSpaceOnUse">
   <stop style="stop-color:#fedbb8" offset="0"/>
   <stop style="stop-color:#fee5cc" offset="1"/>
  </linearGradient>
 </defs>
 <path d="m36.3 5c5.86 4.06 9.69 10.8 9.69 18.5 0 12.4-10.1 22.5-22.5 22.5-7.67 0-14.4-3.83-18.5-9.69 1.04 1.82 2.31 3.5 3.78 4.97 4.08 3.71 9.51 5.97 15.5 5.97 12.7 0 23-10.3 23-23 0-5.95-2.26-11.4-5.97-15.5-1.47-1.48-3.15-2.74-4.97-3.78zm4.97 3.78c3.85 4.11 6.22 9.64 6.22 15.7 0 12.7-10.3 23-23 23-6.08 0-11.6-2.36-15.7-6.22 4.16 4.14 9.88 6.72 16.2 6.72 12.7 0 23-10.3 23-23 0-6.34-2.58-12.1-6.72-16.2z" style="opacity:.05"/>
 <path d="m41.3 8.78c3.71 4.08 5.97 9.51 5.97 15.5 0 12.7-10.3 23-23 23-5.95 0-11.4-2.26-15.5-5.97 4.11 3.85 9.64 6.22 15.7 6.22 12.7 0 23-10.3 23-23 0-6.08-2.36-11.6-6.22-15.7z" style="opacity:.1"/>
 <path d="m31.2 2.38c8.62 3.15 14.8 11.4 14.8 21.1 0 12.4-10.1 22.5-22.5 22.5-9.71 0-18-6.14-21.1-14.8a23 23 0 0 0 44.9-7 23 23 0 0 0-16-21.9z" style="opacity:.2"/>
 <path d="m24 1c12.7 0 23 10.3 23 23s-10.3 23-23 23-23-10.3-23-23 10.3-23 23-23z" style="fill:url(#linearGradient3764)"/>
 <path d="m40 7.53c3.71 4.08 5.97 9.51 5.97 15.5 0 12.7-10.3 23-23 23-5.95 0-11.4-2.26-15.5-5.97 4.18 4.29 10 6.97 16.5 6.97 12.7 0 23-10.3 23-23 0-6.46-2.68-12.3-6.97-16.5z" style="opacity:.1"/>
 <path d="m25 12c-2.07-5e-3 -4.11 0.495-5.95 1.44-0.66-0.274-1.36-0.441-2.05-0.441-3 0-5 1-5 4 0 1.6 0.0415 3.84 0.67 3.91-0.44 1.32-0.669 2.7-0.67 4.09-3e-3 7.18 5.82 13 13 13s13-5.82 13-13c-0.0012-2.21-0.574-4.38-1.65-6.31 0.637-0.433 0.652-1.32 0.652-2.69 0-2 0-4-6-4-1 0-2 0.0094-3 0.359-0.801-0.165-2.16-0.357-3-0.359z" style="opacity:.1"/>
 <circle cx="24" cy="24" r="13" style="fill:#f0693a"/>
 <path d="m31.5 18a2.5 2.5 0 0 0-2.5 2.5 2.5 2.5 0 0 0 2.5 2.5 2.5 2.5 0 0 0 2.5-2.5 2.5 2.5 0 0 0-2.5-2.5zm-14 2a4.5 4.5 0 0 0-4.5 4.5 4.5 4.5 0 0 0 4.5 4.5 4.5 4.5 0 0 0 4.5-4.5 4.5 4.5 0 0 0-4.5-4.5zm1.5 2a2 2 0 0 1 2 2 2 2 0 0 1-2 2 2 2 0 0 1-2-2 2 2 0 0 1 2-2zm9.55 2.02c-2.03 0.147-5.55 1.23-5.55 1.98 0 0.552 2.58 2.15 3.85 2.75-0.522 0.848-0.982 1.59-1.46 1.86-0.289 0.163-0.589 0.223-1.08 0.0977-0.49-0.125-1.15-0.463-2.01-1.11a0.501 0.501 0 1 0-0.602 0.801c0.92 0.693 1.68 1.1 2.37 1.28 0.687 0.175 1.32 0.0867 1.82-0.195 0.861-0.485 1.35-1.39 1.88-2.29 0.793 0.579 1.75 1.05 2.79 0.975 0.623-0.045 1.25-0.296 1.77-0.801 0.514-0.504 0.91-1.24 1.16-2.25a0.5 0.5 0 0 0-0.518-0.627 0.5 0.5 0 0 0-0.451 0.385c-0.22 0.876-0.544 1.43-0.893 1.78-0.348 0.342-0.722 0.485-1.14 0.516-0.752 0.0543-1.65-0.346-2.32-0.869 1.24-1.43 2.25-3.4 1.73-4.07-0.159-0.208-0.669-0.262-1.35-0.213z" style="fill:#474747"/>
 <path d="m30 11c-1 0-2 0.01-3 0.36 5 1.65 4.5 6.64 7 6.64 2 0 2-1 2-3s0-4-6-4zm-14 1c-3 0-5 1-5 4 0 1.63 0.0422 3.92 0.7 3.92 0.36-1.37 1.3-1.92 3.3-1.92 3 0 3 1 5 1 1 0 2 0 2-2s-3-5-6-5z" style="fill:#fd9a6d"/>
</svg>
