<svg xmlns="http://www.w3.org/2000/svg" viewBox="0 0 48 48">
 <defs>
  <linearGradient id="linearGradient3764" x1="1" x2="47" gradientUnits="userSpaceOnUse" gradientTransform="matrix(0,-1,1,0,-1.5e-6,47.999998)">
   <stop style="stop-color:#46b0a9;stop-opacity:1"/>
   <stop offset="1" style="stop-color:#51b9b4;stop-opacity:1"/>
  </linearGradient>
 </defs>
 <g>
  <path d="m 36.31 5 c 5.859 4.062 9.688 10.831 9.688 18.5 c 0 12.426 -10.07 22.5 -22.5 22.5 c -7.669 0 -14.438 -3.828 -18.5 -9.688 c 1.037 1.822 2.306 3.499 3.781 4.969 c 4.085 3.712 9.514 5.969 15.469 5.969 c 12.703 0 23 -10.298 23 -23 c 0 -5.954 -2.256 -11.384 -5.969 -15.469 c -1.469 -1.475 -3.147 -2.744 -4.969 -3.781 z m 4.969 3.781 c 3.854 4.113 6.219 9.637 6.219 15.719 c 0 12.703 -10.297 23 -23 23 c -6.081 0 -11.606 -2.364 -15.719 -6.219 c 4.16 4.144 9.883 6.719 16.219 6.719 c 12.703 0 23 -10.298 23 -23 c 0 -6.335 -2.575 -12.06 -6.719 -16.219 z" style="opacity:0.05"/>
  <path d="m 41.28 8.781 c 3.712 4.085 5.969 9.514 5.969 15.469 c 0 12.703 -10.297 23 -23 23 c -5.954 0 -11.384 -2.256 -15.469 -5.969 c 4.113 3.854 9.637 6.219 15.719 6.219 c 12.703 0 23 -10.298 23 -23 c 0 -6.081 -2.364 -11.606 -6.219 -15.719 z" style="opacity:0.1"/>
  <path d="m 31.25 2.375 c 8.615 3.154 14.75 11.417 14.75 21.13 c 0 12.426 -10.07 22.5 -22.5 22.5 c -9.708 0 -17.971 -6.135 -21.12 -14.75 a 23 23 0 0 0 44.875 -7 a 23 23 0 0 0 -16 -21.875 z" style="opacity:0.2"/>
 </g>
 <g>
  <path d="m 24 1 c 12.703 0 23 10.297 23 23 c 0 12.703 -10.297 23 -23 23 -12.703 0 -23 -10.297 -23 -23 0 -12.703 10.297 -23 23 -23 z" style="fill:url(#linearGradient3764);fill-opacity:1"/>
 </g>
 <g>
  <path d="m 40.03 7.531 c 3.712 4.084 5.969 9.514 5.969 15.469 0 12.703 -10.297 23 -23 23 c -5.954 0 -11.384 -2.256 -15.469 -5.969 4.178 4.291 10.01 6.969 16.469 6.969 c 12.703 0 23 -10.298 23 -23 0 -6.462 -2.677 -12.291 -6.969 -16.469 z" style="opacity:0.1"/>
 </g>
 <path d="m 13 18 0 12 6.156 0 a 6.353 6.353 0 0 0 5.197 2.705 6.353 6.353 0 0 0 3.945 -1.381 l 3.186 3.184 -0.229 0.229 l 3.266 3.264 1.479 -1.479 -3.264 -3.264 -0.215 0.213 -3.182 -3.18 a 6.353 6.353 0 0 0 0.207 -0.291 l 7.453 0 l 0 -1 -1 0 0 -1 1 0 0 -8 -1 0 0 -1 1 0 0 -1 -24 0 z m 1 1 1 0 0 1 -1 0 0 -1 z m 2 0 1 0 0 1 -1 0 0 -1 z m 2 0 1 0 0 1 -1 0 0 -1 z m 2 0 1 0 0 1 -1 0 0 -1 z m 2 0 1 0 0 1 -1 0 0 -1 z m 2 0 1 0 0 1 -0.646 0 l -0.354 0 0 -1 m 2 0 1 0 0 1 -1 0 0 -1 z m 2 0 1 0 0 1 -1 0 0 -1 z m 2 0 1 0 0 1 -1 0 0 -1 z m 2 0 1 0 0 1 -1 0 0 -1 z m 2 0 1 0 0 1 -1 0 0 -1 z m -20 9 1 0 0 1 -1 0 0 -1 z m 2 0 1 0 0 1 -1 0 0 -1 z m 2 0 0.225 0 a 6.353 6.353 0 0 0 0.361 1 l -0.586 0 0 -1 m 2 0 1 0 0 1 -1 0 0 -1 z m 2 0 1 0 0 1 -1 0 0 -1 z m 2 0 1 0 0 1 -1 0 0 -1 z m 2 0 1 0 0 1 -1 0 0 -1 z m 2 0 1 0 0 0.887 a 5.294 5.294 0 0 1 -0.068 0.113 l -0.932 0 0 -1 z m 2.486 0 0.514 0 l 0 1 -0.881 0 a 6.353 6.353 0 0 0 0.367 -1 z m 1.514 0 l 1 0 0 1 -1 0 0 -1 z m 2 0 1 0 0 1 -1 0 0 -1 z m -13.48 2 7.66 0 a 5.294 5.294 0 0 1 -3.826 1.646 5.294 5.294 0 0 1 -3.834 -1.646" style="fill:#000;opacity:1;fill-opacity:0.098;stroke:none"/>
 <g>
  <g transform="translate(0,-1)">
   <g>
    <path d="m 12 18 0 12 24 0 0 -1 -1 0 0 -1 1 0 0 -8 -1 0 0 -1 1 0 0 -1 -24 0 z m 1 1 1 0 0 1 -1 0 0 -1 z m 2 0 1 0 0 1 -1 0 0 -1 z m 2 0 1 0 0 1 -1 0 0 -1 z m 2 0 1 0 0 1 -1 0 0 -1 z m 2 0 1 0 0 1 -1 0 0 -1 z m 2 0 1 0 0 1 -1 0 0 -1 z m 2 0 1 0 0 1 -1 0 0 -1 z m 2 0 1 0 0 1 -1 0 0 -1 z m 2 0 1 0 0 1 -1 0 0 -1 z m 2 0 1 0 0 1 -1 0 0 -1 z m 2 0 1 0 0 1 -1 0 0 -1 z m -20 9 1 0 0 1 -1 0 0 -1 z m 2 0 1 0 0 1 -1 0 0 -1 z m 2 0 1 0 0 1 -1 0 0 -1 z m 2 0 1 0 0 1 -1 0 0 -1 z m 2 0 1 0 0 1 -1 0 0 -1 z m 2 0 1 0 0 1 -1 0 0 -1 z m 2 0 1 0 0 1 -1 0 0 -1 z m 2 0 1 0 0 1 -1 0 0 -1 z m 2 0 1 0 0 1 -1 0 0 -1 z m 2 0 1 0 0 1 -1 0 0 -1 z m 2 0 1 0 0 1 -1 0 0 -1 z" style="fill:#373737;opacity:1;fill-opacity:1;stroke:none"/>
    <path d="m 12 21 0 6 2 0 0 -6 -2 0 z m 3 0 0 6 7 0 0 -6 -7 0 z m 8 0 0 6 7 0 0 -6 -7 0 z m 8 0 0 6 5 0 0 -6 -5 0 z" style="fill:#3b669d;opacity:1;fill-opacity:1;stroke:none"/>
   </g>
  </g>
 </g>
 <g>
  <path d="m 18 28 0 1.092 c 0.166 0.321 0.36 0.624 0.578 0.908 l 9.422 0 0 -2 -10 0" transform="translate(0,-1)" style="fill:#d1d1d1;opacity:1;fill-opacity:1;stroke:none"/>
  <path d="m 23.406 20.21 c -0.485 0 -0.954 0.063 -1.406 0.17 l 0 5.623 -4.666 0 c -0.005 0.099 -0.016 0.197 -0.016 0.297 0 1.01 0.248 1.958 0.682 2.795 l 0 -1.092 l 2 0 0 2 -1.422 0 c 0.691 0.9 1.625 1.598 2.707 2 l 4.242 0 c 2.317 -0.861 3.969 -3.085 3.967 -5.703 c 0 -0.1 -0.011 -0.198 -0.016 -0.297 l -5.479 0 0 -5.764 c -0.195 -0.019 -0.393 -0.029 -0.594 -0.029 z m -1.406 7.793 l 2 0 0 2 -2 0 0 -2 z m 4 0 2 0 0 2 -2 0 0 -2 z" transform="translate(0,-1)" style="fill:#2f2f2f;opacity:1;fill-opacity:1;stroke:none"/>
  <path d="M 24.354 20 A 6.353 6.353 0 0 0 18 26.354 6.353 6.353 0 0 0 18.04 27 l 1.066 0 a 5.294 5.294 0 0 1 -0.043 -0.646 5.294 5.294 0 0 1 5.295 -5.295 5.294 5.294 0 0 1 5.293 5.295 A 5.294 5.294 0 0 1 29.602 27 L 30 27 l 0 1 -0.619 0 a 5.294 5.294 0 0 1 -0.449 1 l 1.188 0 A 6.353 6.353 0 0 0 30.705 26.354 6.353 6.353 0 0 0 24.354 20" style="fill:#000;opacity:1;fill-opacity:0.098;stroke:none"/>
  <g transform="translate(-34,-0.99999954)">
   <path d="m 64.26 34.736 1.479 -1.479 3.264 3.264 -1.479 1.479 m -3.264 -3.264" style="fill:#3f525b"/>
   <path d="m 61.23 31.25 1.037 -1.037 3.264 3.264 -1.037 1.037 m -3.264 -3.264" style="fill:#d24c37"/>
   <path d="m 51.32 26.297 c 0 3.365 2.725 6.09 6.088 6.09 3.366 0 6.091 -2.725 6.088 -6.09 0.003 -3.363 -2.722 -6.09 -6.088 -6.09 -3.363 0 -6.088 2.728 -6.088 6.09" style="fill:#69b7e8;opacity:0.4;fill-opacity:0.902"/>
   <path d="M 57.35 20 A 6.353 6.353 0 0 0 51 26.353 a 6.353 6.353 0 0 0 6.353 6.353 6.353 6.353 0 0 0 6.353 -6.353 6.353 6.353 0 0 0 -6.353 -6.353 z m 0 1.059 a 5.294 5.294 0 0 1 5.294 5.294 5.294 5.294 0 0 1 -5.294 5.294 5.294 5.294 0 0 1 -5.294 -5.294 5.294 5.294 0 0 1 5.294 -5.294 z" style="fill:#999;opacity:1;fill-opacity:1;stroke:none"/>
  </g>
 </g>
</svg>
