<svg version="1.1" viewBox="0 0 48 48" xmlns="http://www.w3.org/2000/svg">
 <defs>
  <linearGradient id="bg" x1="1" x2="47" gradientTransform="matrix(0 -1 1 0 -1.5e-6 48)" gradientUnits="userSpaceOnUse">
   <stop style="stop-color:#dfdf79" offset="0"/>
   <stop style="stop-color:#e2e288" offset="1"/>
  </linearGradient>
 </defs>
 <path d="m36.31 5c5.859 4.062 9.688 10.831 9.688 18.5 0 12.426-10.07 22.5-22.5 22.5-7.669 0-14.438-3.828-18.5-9.688 1.037 1.822 2.306 3.499 3.781 4.969 4.085 3.712 9.514 5.969 15.469 5.969 12.703 0 23-10.298 23-23 0-5.954-2.256-11.384-5.969-15.469-1.469-1.475-3.147-2.744-4.969-3.781zm4.969 3.781c3.854 4.113 6.219 9.637 6.219 15.719 0 12.703-10.297 23-23 23-6.081 0-11.606-2.364-15.719-6.219 4.16 4.144 9.883 6.719 16.219 6.719 12.703 0 23-10.298 23-23 0-6.335-2.575-12.06-6.719-16.219z" style="opacity:.05"/>
 <path d="m41.28 8.781c3.712 4.085 5.969 9.514 5.969 15.469 0 12.703-10.297 23-23 23-5.954 0-11.384-2.256-15.469-5.969 4.113 3.854 9.637 6.219 15.719 6.219 12.703 0 23-10.298 23-23 0-6.081-2.364-11.606-6.219-15.719z" style="opacity:.1"/>
 <path d="m31.25 2.375c8.615 3.154 14.75 11.417 14.75 21.13 0 12.426-10.07 22.5-22.5 22.5-9.708 0-17.971-6.135-21.12-14.75a23 23 0 0 0 44.875-7 23 23 0 0 0-16-21.875z" style="opacity:.2"/>
 <path d="m24 1c12.703 0 23 10.297 23 23s-10.297 23-23 23-23-10.297-23-23 10.297-23 23-23z" style="fill:url(#bg)"/>
 <path d="m40.03 7.531c3.712 4.084 5.969 9.514 5.969 15.469 0 12.703-10.297 23-23 23-5.954 0-11.384-2.256-15.469-5.969 4.178 4.291 10.01 6.969 16.469 6.969 12.703 0 23-10.298 23-23 0-6.462-2.677-12.291-6.969-16.469z" style="opacity:.1"/>
 <circle cx="25" cy="25" r="15" style="opacity:.1"/>
 <circle cx="24" cy="24" r="15" style="fill:#f0b029"/>
 <path d="m18 15a6 6 0 0 0-6 6 6 6 0 0 0 6 6 6 6 0 0 0 6-6 6 6 0 0 0-0.57227-2.5566c0.45665-0.28043 0.9949-0.44336 1.5723-0.44336 0.57893 0 1.1187 0.16348 1.5762 0.44531a6 6 0 0 0-0.57617 2.5547 6 6 0 0 0 6 6 6 6 0 0 0 6-6 6 6 0 0 0-6-6 6 6 0 0 0-4.916 2.582c-0.60604-0.36895-1.3197-0.58203-2.084-0.58203-0.7602 0-1.4703 0.21086-2.0742 0.57617a6 6 0 0 0-4.9258-2.5762zm-1 14s4 4 7.5 4 7.5-4 7.5-4-4 2-7.5 2-7.5-2-7.5-2z" style="opacity:.1"/>
 <path d="m17 14a6 6 0 0 0-6 6 6 6 0 0 0 6 6 6 6 0 0 0 6-6 6 6 0 0 0-0.57227-2.5566c0.45665-0.28043 0.9949-0.44336 1.5723-0.44336 0.57893 0 1.1187 0.16348 1.5762 0.44531a6 6 0 0 0-0.57617 2.5547 6 6 0 0 0 6 6 6 6 0 0 0 6-6 6 6 0 0 0-6-6 6 6 0 0 0-4.916 2.582c-0.60604-0.36895-1.3197-0.58203-2.084-0.58203-0.7602 0-1.4703 0.21086-2.0742 0.57617a6 6 0 0 0-4.9258-2.5762z" style="fill:#4d4d4d"/>
 <path d="m17 15a5 5 0 0 0-5 5 5 5 0 0 0 5 5 5 5 0 0 0 5-5 5 5 0 0 0-5-5zm14 0a5 5 0 0 0-5 5 5 5 0 0 0 5 5 5 5 0 0 0 5-5 5 5 0 0 0-5-5z" style="fill:#c5ba99"/>
 <path d="m17.588 15.037a6 6 0 0 0-5.541 5.4355 5 5 0 0 0 1.9668 3.5137 5 5 0 0 1-1.0137-2.9863 5 5 0 0 1 5-5 5 5 0 0 1 3.002 1.0039 5 5 0 0 0-3.4141-1.9668zm14.021 0.001953a6 6 0 0 0-4.5254 2.543c-0.10882-0.066247-0.22246-0.12578-0.33789-0.18164a5 5 0 0 0-0.43164 0.90625c0.088987 0.04338 0.17799 0.087086 0.26172 0.13867a6 6 0 0 0-0.5332 1.9902 5 5 0 0 0 1.9707 3.5508 5 5 0 0 1-1.0137-2.9863 5 5 0 0 1 5-5 5 5 0 0 1 3.002 1.0039 5 5 0 0 0-3.3926-1.9648zm-12.109 5.9609a1.5 1.5 0 0 0-1.5 1.5 1.5 1.5 0 0 0 1.5 1.5 1.5 1.5 0 0 0 0.67773-0.17188 5 5 0 0 0 0.65039-0.65039 1.5 1.5 0 0 0 0.17188-0.67773 1.5 1.5 0 0 0-1.5-1.5zm11 0a1.5 1.5 0 0 0-1.5 1.5 1.5 1.5 0 0 0 1.5 1.5 1.5 1.5 0 0 0 1.5-1.5 1.5 1.5 0 0 0-1.5-1.5z" style="opacity:.08"/>
 <path d="m18.5 20a1.5 1.5 0 0 0-1.5 1.5 1.5 1.5 0 0 0 1.5 1.5 1.5 1.5 0 0 0 1.5-1.5 1.5 1.5 0 0 0-1.5-1.5zm11 0a1.5 1.5 0 0 0-1.5 1.5 1.5 1.5 0 0 0 1.5 1.5 1.5 1.5 0 0 0 1.5-1.5 1.5 1.5 0 0 0-1.5-1.5z" style="fill:#526b7f"/>
 <path d="m16 28s4 2 7.5 2 7.5-2 7.5-2-4 4-7.5 4-7.5-4-7.5-4z" style="fill:#b07930"/>
</svg>
