<svg version="1.1" viewBox="0 0 48 48" xmlns="http://www.w3.org/2000/svg">
 <defs>
  <linearGradient id="bg" x2="0" y1="1" y2="47" gradientUnits="userSpaceOnUse">
   <stop style="stop-color:#f1efbb" offset="0"/>
   <stop style="stop-color:#eeebaa" offset="1"/>
  </linearGradient>
 </defs>
 <path d="m36.3 5c5.86 4.06 9.69 10.8 9.69 18.5 0 12.4-10.1 22.5-22.5 22.5-7.67 0-14.4-3.83-18.5-9.69 1.04 1.82 2.31 3.5 3.78 4.97 4.08 3.71 9.51 5.97 15.5 5.97 12.7 0 23-10.3 23-23 0-5.95-2.26-11.4-5.97-15.5-1.47-1.48-3.15-2.74-4.97-3.78zm4.97 3.78c3.85 4.11 6.22 9.64 6.22 15.7 0 12.7-10.3 23-23 23-6.08 0-11.6-2.36-15.7-6.22 4.16 4.14 9.88 6.72 16.2 6.72 12.7 0 23-10.3 23-23 0-6.34-2.58-12.1-6.72-16.2z" style="opacity:.05"/>
 <path d="m41.3 8.78c3.71 4.08 5.97 9.51 5.97 15.5 0 12.7-10.3 23-23 23-5.95 0-11.4-2.26-15.5-5.97 4.11 3.85 9.64 6.22 15.7 6.22 12.7 0 23-10.3 23-23 0-6.08-2.36-11.6-6.22-15.7z" style="opacity:.1"/>
 <path d="m31.2 2.38c8.62 3.15 14.8 11.4 14.8 21.1 0 12.4-10.1 22.5-22.5 22.5-9.71 0-18-6.14-21.1-14.8a23 23 0 0 0 44.9-7 23 23 0 0 0-16-21.9z" style="opacity:.2"/>
 <circle cx="24" cy="24" r="23" style="fill:url(#bg)"/>
 <path d="m40 7.53c3.71 4.08 5.97 9.51 5.97 15.5 0 12.7-10.3 23-23 23-5.95 0-11.4-2.26-15.5-5.97 4.18 4.29 10 6.97 16.5 6.97 12.7 0 23-10.3 23-23 0-6.46-2.68-12.3-6.97-16.5z" style="opacity:.1"/>
 <path d="m25 13a10 10 0 0 0-10 10 10 10 0 0 0 3.64 7.71l-0.643 1.29-2 1v2s2 2 9 2c8 0 9-2 9-2v-2l-2-1-0.645-1.29a10 10 0 0 0 3.64-7.71 10 10 0 0 0-10-10z" style="opacity:.1"/>
 <path d="m17 31-2 1v2s2 2 9 2c8 0 9-2 9-2v-2l-2-1z" style="fill:#474747"/>
 <path d="m15 32s3 2 9 2 9-2 9-2l-2-1h-14z" style="fill:#575757"/>
 <path d="m18 29-1 2s1 2 7 2 7-2 7-2l-1-2z" style="fill:#474747"/>
 <circle cx="24" cy="22" r="10" style="fill:#6de6d8;paint-order:stroke fill markers"/>
 <path d="m24 12a10 10 0 0 0-9.96 9.15c0.212 0.736 1.75 4.85 9.96 4.85 8.21 0 9.75-4.12 9.96-4.85a10 10 0 0 0-9.96-9.15z" style="fill:#49ade0"/>
 <path d="m24 13a9 9 0 0 0-5.97 2.28l1.88 2.34a6 6 0 0 1 4.1-1.62 6 6 0 0 1 4.1 1.63l1.88-2.34a9 9 0 0 0-5.97-2.28z" style="fill:#f9f9f9;paint-order:stroke fill markers"/>
 <path d="m21 29c-1-3-1-3-4-4 3-1 3-1 4-4 1 3 1 3 4 4-3 1-3 1-4 4z" style="fill:#cbecee"/>
 <path d="m28 25c-1-2-1-2-3-3 2-1 2-1 3-3 1 2 1 2 3 3-2 1-2 1-3 3z" style="fill:#cbecee"/>
</svg>
