<svg version="1.1" viewBox="0 0 48 48" xmlns="http://www.w3.org/2000/svg">
 <defs>
  <linearGradient id="bg" x2="0" y1="1" y2="47" gradientUnits="userSpaceOnUse">
   <stop style="stop-color:#307445" offset="0"/>
   <stop style="stop-color:#2a663c" offset="1"/>
  </linearGradient>
 </defs>
 <path d="m36.31 5c5.859 4.062 9.688 10.831 9.688 18.5 0 12.426-10.07 22.5-22.5 22.5-7.669 0-14.438-3.828-18.5-9.688 1.037 1.822 2.306 3.499 3.781 4.969 4.085 3.712 9.514 5.969 15.469 5.969 12.703 0 23-10.298 23-23 0-5.954-2.256-11.384-5.969-15.469-1.469-1.475-3.147-2.744-4.969-3.781zm4.969 3.781c3.854 4.113 6.219 9.637 6.219 15.719 0 12.703-10.297 23-23 23-6.081 0-11.606-2.364-15.719-6.219 4.16 4.144 9.883 6.719 16.219 6.719 12.703 0 23-10.298 23-23 0-6.335-2.575-12.06-6.719-16.219z" style="opacity:.05"/>
 <path d="m41.28 8.781c3.712 4.085 5.969 9.514 5.969 15.469 0 12.703-10.297 23-23 23-5.954 0-11.384-2.256-15.469-5.969 4.113 3.854 9.637 6.219 15.719 6.219 12.703 0 23-10.298 23-23 0-6.081-2.364-11.606-6.219-15.719z" style="opacity:.1"/>
 <path d="m31.25 2.375c8.615 3.154 14.75 11.417 14.75 21.13 0 12.426-10.07 22.5-22.5 22.5-9.708 0-17.971-6.135-21.12-14.75a23 23 0 0 0 44.875-7 23 23 0 0 0-16-21.875z" style="opacity:.2"/>
 <circle cx="24" cy="24" r="23" style="fill:url(#bg)"/>
 <path d="m35 13c-1.3593 0-2.9767 1.5224-4.5 3.5-1.5857-0.9436-3.4493-1.5-5.5-1.5-3.2711 0-6.0019 1.2463-8 3-1.2597-1.144-2-2-3.5-2-0.98945 0-1.5 0.7646-1.5 2 0 0.8512 0.92653 2.8003 2 4.5-1.265 2.3868-2 4.5583-2 6.5 0 3.6896 3.7449 8 10 8 7.1797 0 16-3 16-9 0-2-1.2756-4.6128-3.5-7.5 0.79806-1.9857 1.5-3.7343 1.5-5.5 0-1.2354-0.26055-2-1-2z" style="opacity:.1;paint-order:normal"/>
 <path d="m40.03 7.531c3.712 4.084 5.969 9.514 5.969 15.469 0 12.703-10.297 23-23 23-5.954 0-11.384-2.256-15.469-5.969 4.178 4.291 10.01 6.969 16.469 6.969 12.703 0 23-10.298 23-23 0-6.462-2.677-12.291-6.969-16.469z" style="opacity:.1"/>
 <path d="m34 12c-1.3593 0-2.9767 1.5224-4.5 3.5-1.5857-0.9436-3.4493-1.5-5.5-1.5-3.2711 0-6.0019 1.2463-8 3-1.2597-1.144-2-2-3.5-2-0.98945 0-1.5 0.7646-1.5 2 0 0.8512 0.92653 2.8003 2 4.5-1.265 2.3868-2 4.5583-2 6.5 0 3.6896 3.7449 8 10 8 7.1797 0 16-3 16-9 0-2-1.2756-4.6128-3.5-7.5 0.79806-1.9857 1.5-3.7343 1.5-5.5 0-1.2354-0.26055-2-1-2z" style="fill:#d0b464;paint-order:normal"/>
 <path d="m33 24c-4.4446 0-6 3-10 3s-6-1-9-1c-1.4655 0-2 0.7574-2 2 0 2 2.3726 7 9 7 10.799 0 15-5.3709 15-8 0-1.2426-0.14848-3-3-3z" style="fill:#f5e2cc;paint-order:normal"/>
 <path d="m22 26c-0.554 0-1 0.446-1 1 0 1 0.706 2 1.5 2s1.5-1 1.5-2c0-0.554-0.446-1-1-1z" style="fill:#a55c3e;paint-order:normal"/>
 <path d="m29.609 27.988c-0.60938 0.0117-2.1097 1.2617-4.6094 1.7949-1.7913 1.0715-2.1909 1.2168-4 0.098-2.0126-0.262-2.2092-0.8812-3-0.8812-0.58938 0-1 0.2804-1 1 0 1 2.5108 3 6 3 3 0 7-2.82 7-4 0-0.5675 0-1-0.39062-1.0117z" style="fill:#3d3227;paint-order:normal"/>
 <path d="m25 29.783c-0.60699 0.1295-1.2673 0.2168-2 0.2168-0.83688 0-1.4675-0.05-2-0.1191v0.1191l1 2h2l1-2z" style="fill:#f6f5f1;paint-order:normal"/>
 <path d="m30 22.5c0 1-2 1.5-4 1.5l-2-2c0-1.4586 1.2464-3 3-3 1.5 0 3 1.5 3 3.5z" style="fill:#f9f9f9;paint-order:normal"/>
 <path d="m26 20c-1.1046 0-2 0.8954-2 2 0 0.7062 1.3251 1.9999 2 2 1.3089 2e-4 2-0.8954 2-2s-0.89543-2-2-2zm-0.5 1a0.5 0.5 0 0 1 0.5 0.5 0.5 0.5 0 0 1-0.5 0.5 0.5 0.5 0 0 1-0.5-0.5 0.5 0.5 0 0 1 0.5-0.5z" style="fill:#2c2c2c;paint-order:normal"/>
 <path d="m15 23c0 1 2 1 4 1l2-2c0-1.2708-1.2875-3-3-3-1.4365 0-3 1.5224-3 4z" style="fill:#f9f9f9;paint-order:normal"/>
 <path d="m19 20c-1.1046 0-2 0.89543-2 2s0.89543 2 2 2c0.72957 0 2-1.0923 2-2 0-1.1046-0.89543-2-2-2zm-0.5 1a0.5 0.5 0 0 1 0.5 0.5 0.5 0.5 0 0 1-0.5 0.5 0.5 0.5 0 0 1-0.5-0.5 0.5 0.5 0 0 1 0.5-0.5z" style="fill:#2c2c2c;paint-order:normal"/>
</svg>
