<svg version="1.1" viewBox="0 0 48 48" xmlns="http://www.w3.org/2000/svg">
 <defs>
  <linearGradient id="bg" x2="0" y1="1" y2="47" gradientUnits="userSpaceOnUse">
   <stop style="stop-color:#fddbee" offset="0"/>
   <stop style="stop-color:#fcc8e5" offset="1"/>
  </linearGradient>
 </defs>
 <path d="m36.31 5c5.859 4.062 9.688 10.831 9.688 18.5 0 12.426-10.07 22.5-22.5 22.5-7.669 0-14.438-3.828-18.5-9.688 1.037 1.822 2.306 3.499 3.781 4.969 4.085 3.712 9.514 5.969 15.469 5.969 12.703 0 23-10.298 23-23 0-5.954-2.256-11.384-5.969-15.469-1.469-1.475-3.147-2.744-4.969-3.781zm4.969 3.781c3.854 4.113 6.219 9.637 6.219 15.719 0 12.703-10.297 23-23 23-6.081 0-11.606-2.364-15.719-6.219 4.16 4.144 9.883 6.719 16.219 6.719 12.703 0 23-10.298 23-23 0-6.335-2.575-12.06-6.719-16.219z" style="opacity:.05"/>
 <path d="m41.28 8.781c3.712 4.085 5.969 9.514 5.969 15.469 0 12.703-10.297 23-23 23-5.954 0-11.384-2.256-15.469-5.969 4.113 3.854 9.637 6.219 15.719 6.219 12.703 0 23-10.298 23-23 0-6.081-2.364-11.606-6.219-15.719z" style="opacity:.1"/>
 <path d="m31.25 2.375c8.615 3.154 14.75 11.417 14.75 21.13 0 12.426-10.07 22.5-22.5 22.5-9.708 0-17.971-6.135-21.12-14.75a23 23 0 0 0 44.875-7 23 23 0 0 0-16-21.875z" style="opacity:.2"/>
 <circle cx="24" cy="24" r="23" style="fill:url(#bg)"/>
 <path d="m25 37s14-7 14-14c0-3.5-3.5-7-7-7-3.5 0-7 3.5-7 3.5s-3.5-3.5-7-3.5c-3.5 0-7 3.5-7 7 0 7 14 14 14 14z" style="opacity:.1;stroke-width:1.1667"/>
 <path d="m40.03 7.531c3.712 4.084 5.969 9.514 5.969 15.469 0 12.703-10.297 23-23 23-5.954 0-11.384-2.256-15.469-5.969 4.178 4.291 10.01 6.969 16.469 6.969 12.703 0 23-10.298 23-23 0-6.462-2.677-12.291-6.969-16.469z" style="opacity:.1"/>
 <path d="m24 36s14-7 14-14c0-3.5-3.5-7-7-7-3.5 0-7 3.5-7 3.5s-3.5-3.5-7-3.5c-3.5 0-7 3.5-7 7 0 7 14 14 14 14z" style="fill:#4fc2f1;stroke-width:1.1667"/>
 <path d="m29.984 16.299 0.2347 1.1416c0.69992-0.2143 1.2736-0.20318 1.9414 0.17308l0.43294-1.0846c-0.93522-0.42676-1.5927-0.42959-2.609-0.23004zm-15.698 0.75885 0.61752 0.98894c0.55092-0.44787 1.2054-0.615 1.8844-0.70181l-0.05925-1.1644c-0.90287 0.01211-1.7375 0.26351-2.4428 0.87726zm3.4931 0.41001 0.03646 0.0069c0.74537 0.26459 1.344 0.52128 1.996 0.83627l0.50586-1.0505c-0.79562-0.43764-1.445-0.68891-2.2764-0.92977zm8.8389 0.30312 0.58333 1.0117c0.68012-0.42573 1.337-0.7097 1.9824-1.0003l-0.38281-1.1006c-0.7708 0.26528-1.4793 0.68458-2.1829 1.0892zm6.4736 0.33945c0.63974 0.38129 1.1403 1.004 1.57 1.4674l0.88184-0.76335c-0.5922-0.68986-1.1367-1.1986-1.832-1.6907zm-21.325 1.6998 1.0003 0.59928c0.31834-0.74286 0.73373-1.2516 1.2988-1.7022l-0.77246-0.875c-0.70258 0.54348-1.1335 1.164-1.5267 1.9779zm9.0348-0.95705c0.67078 0.37086 1.2981 0.81515 1.9414 1.2306l0.63347-0.9821c-0.63596-0.47081-1.3298-0.84916-2.0007-1.2624zm2.8642 0.92055 0.69955 0.93197c0.59845-0.48279 1.2469-0.89368 1.8845-1.3216l-0.64941-0.96843c-0.67861 0.40817-1.305 0.88183-1.9346 1.3581zm11.55 0.63805c0.45117 0.58135 0.45117 1.2242 0.42611 1.9688l1.1644 0.07519c0.12105-0.95741-0.06306-1.8128-0.5697-2.5954-0.37221 0.22003-0.67716 0.37403-1.0208 0.55144zm-23.735 3.2722 1.0983-0.39193c-0.24614-0.68043-0.24614-1.292-0.15499-1.9778l-1.1439-0.23242c-0.11394 0.9183-0.11394 1.662 0.20056 2.6022zm22.927 1.5791 0.94108 0.68815c0.42304-0.73359 0.78289-1.4528 1.1507-2.2102l-1.1006-0.38964c-0.26036 0.66967-0.61426 1.3007-0.99121 1.9118zm-22.434-0.42155c0.34614 0.75468 0.92293 1.4524 1.374 2.0326l0.875-0.77246c-0.54033-0.59646-0.86053-1.0941-1.2305-1.8252zm20.184 2.9668 0.81576 0.83398c0.60242-0.52397 1.11-1.1239 1.636-1.7204l-0.875-0.77246c-0.47493 0.60331-1.0298 1.1238-1.5769 1.6589zm-18.038-0.05929c0.56032 0.61794 1.2178 1.1789 1.75 1.6543l0.76563-0.87956c-0.63286-0.48427-1.1664-1.0666-1.6406-1.5472zm15.422 2.2422 0.67676 0.95019c0.7384-0.50392 1.2054-0.94396 1.864-1.4971l-0.7679-0.87956c-0.56803 0.52119-1.2364 1.018-1.7729 1.4264zm-12.759 0.17773c0.59896 0.5144 1.2516 0.95523 1.8936 1.4127l0.67904-0.94792c-0.64791-0.41883-1.2447-0.89826-1.8457-1.3786zm9.903 1.7933 0.6289 0.98438c0.68207-0.39896 1.3128-0.87023 1.9551-1.3284l-0.67904-0.94792c-0.61231 0.46504-1.2573 0.87932-1.9049 1.292zm-7.0593 0.2985c0.64424 0.45343 1.3229 0.8571 1.9871 1.2805l0.62663-0.98437c-0.65269-0.40411-1.2946-0.82719-1.9369-1.2465zm4.3704 1.3148-0.77246-0.44434-0.58333 1.0117 1.3558 0.77246c0.78065-0.44186 1.56-0.88843 2.3333-1.3421l-0.62663-0.98438c-0.55841 0.34534-1.1371 0.65969-1.7067 0.98665z" style="fill:#1284e8;stroke-width:1.1667"/>
</svg>
