<svg version="1.1" viewBox="0 0 48 48" xmlns="http://www.w3.org/2000/svg">
 <defs>
  <linearGradient id="bg" x2="0" y1="47" y2="1" gradientUnits="userSpaceOnUse">
   <stop style="stop-color:#782305" offset="0"/>
   <stop style="stop-color:#8a2806" offset="1"/>
  </linearGradient>
 </defs>
 <path d="m36.31 5c5.859 4.062 9.688 10.831 9.688 18.5 0 12.426-10.07 22.5-22.5 22.5-7.669 0-14.438-3.828-18.5-9.688 1.037 1.822 2.306 3.499 3.781 4.969 4.085 3.712 9.514 5.969 15.469 5.969 12.703 0 23-10.298 23-23 0-5.954-2.256-11.384-5.969-15.469-1.469-1.475-3.147-2.744-4.969-3.781zm4.969 3.781c3.854 4.113 6.219 9.637 6.219 15.719 0 12.703-10.297 23-23 23-6.081 0-11.606-2.364-15.719-6.219 4.16 4.144 9.883 6.719 16.219 6.719 12.703 0 23-10.298 23-23 0-6.335-2.575-12.06-6.719-16.219z" style="opacity:.05"/>
 <path d="m41.28 8.781c3.712 4.085 5.969 9.514 5.969 15.469 0 12.703-10.297 23-23 23-5.954 0-11.384-2.256-15.469-5.969 4.113 3.854 9.637 6.219 15.719 6.219 12.703 0 23-10.298 23-23 0-6.081-2.364-11.606-6.219-15.719z" style="opacity:.1"/>
 <path d="m31.25 2.375c8.615 3.154 14.75 11.417 14.75 21.13 0 12.426-10.07 22.5-22.5 22.5-9.708 0-17.971-6.135-21.12-14.75a23 23 0 0 0 44.875-7 23 23 0 0 0-16-21.875z" style="opacity:.2"/>
 <g style="fill:#782305">
  <path d="m24 1c12.703 0 23 10.297 23 23s-10.297 23-23 23-23-10.297-23-23 10.297-23 23-23z" style="fill:url(#bg)"/>
 </g>
 <path d="m40.03 7.531c3.712 4.084 5.969 9.514 5.969 15.469 0 12.703-10.297 23-23 23-5.954 0-11.384-2.256-15.469-5.969 4.178 4.291 10.01 6.969 16.469 6.969 12.703 0 23-10.298 23-23 0-6.462-2.677-12.291-6.969-16.469z" style="opacity:.1"/>
 <path d="m25 10c-8.284 0-15 6.716-15 15s6.716 15 15 15 15-6.716 15-15-6.716-15-15-15zm0 2c2.308 0 4.4648 0.60225 6.3438 1.6562l-6.3438 4.4062-6.3438-4.4062c1.879-1.055 4.0398-1.6562 6.3438-1.6562zm-7.125 3.5 5.4062 3.75-3.375 2.3438-2.0312-6.0938zm14.25 0-2.0312 6.0938-3.375-2.3438 5.4062-3.75zm-16.25 0.25195 2.3438 7.0273-6.0605 4.2188c-0.1-0.65-0.1543-1.322-0.1543-2 0-3.62 1.4834-6.8894 3.8711-9.2461zm18.254 0.001953c2.3877 2.3567 3.8711 5.6261 3.8711 9.2461 0 0.678-0.05625 1.35-0.15625 2l-6.0605-4.2188 2.3457-7.0273zm-9.1289 4.7148 4.4375 3.0938-1.4688 4.4395h-5.9375l-1.4688-4.4395 4.4375-3.0938zm-6.125 4.25 1.0938 3.2812h-5.8125l4.7188-3.2812zm12.25 0 4.7188 3.2812h-5.8125l1.0938-3.2812zm-18.125 5.2832h7.625l2.625 7.875c-4.648-0.623-8.506-3.689-10.25-7.875zm9.7207 0h4.5605l-2.2793 6.875-2.2812-6.875zm6.6543 0h7.625c-1.744 4.186-5.602 7.252-10.25 7.875l2.625-7.875z" style="opacity:.1"/>
 <path d="m24 9c-8.284 0-15 6.716-15 15s6.716 15 15 15 15-6.716 15-15-6.716-15-15-15zm0 2c2.308 0 4.4648 0.60225 6.3438 1.6562l-6.3438 4.4062-6.3438-4.4062c1.879-1.055 4.0398-1.6562 6.3438-1.6562zm-7.125 3.5 5.4062 3.75-3.375 2.3438-2.0312-6.0938zm14.25 0-2.0312 6.0938-3.375-2.3438 5.4062-3.75zm-16.25 0.25195 2.3438 7.0273-6.0605 4.2188c-0.1-0.65-0.1543-1.322-0.1543-2 0-3.62 1.4834-6.8894 3.8711-9.2461zm18.254 0.001953c2.3877 2.3567 3.8711 5.6261 3.8711 9.2461 0 0.678-0.05625 1.35-0.15625 2l-6.0605-4.2188 2.3457-7.0273zm-9.1289 4.7148 4.4375 3.0938-1.4688 4.4395h-5.9375l-1.4688-4.4395 4.4375-3.0938zm-6.125 4.25 1.0938 3.2812h-5.8125l4.7188-3.2812zm12.25 0 4.7188 3.2812h-5.8125l1.0938-3.2812zm-18.125 5.2832h7.625l2.625 7.875c-4.648-0.623-8.506-3.689-10.25-7.875zm9.7207 0h4.5605l-2.2793 6.875-2.2812-6.875zm6.6543 0h7.625c-1.744 4.186-5.602 7.252-10.25 7.875l2.625-7.875z" style="fill:#dc7d41"/>
</svg>
