<svg version="1.1" viewBox="0 0 48 48" xmlns="http://www.w3.org/2000/svg" xmlns:xlink="http://www.w3.org/1999/xlink">
 <defs>
  <linearGradient id="linearGradient851" x2="0" y1="47" y2="1" gradientUnits="userSpaceOnUse">
   <stop style="stop-color:#782305" offset="0"/>
   <stop style="stop-color:#8a2806" offset="1"/>
  </linearGradient>
 </defs>
 <path d="m36.31 5c5.859 4.062 9.688 10.831 9.688 18.5 0 12.426-10.07 22.5-22.5 22.5-7.669 0-14.438-3.828-18.5-9.688 1.037 1.822 2.306 3.499 3.781 4.969 4.085 3.712 9.514 5.969 15.469 5.969 12.703 0 23-10.298 23-23 0-5.954-2.256-11.384-5.969-15.469-1.469-1.475-3.147-2.744-4.969-3.781zm4.969 3.781c3.854 4.113 6.219 9.637 6.219 15.719 0 12.703-10.297 23-23 23-6.081 0-11.606-2.364-15.719-6.219 4.16 4.144 9.883 6.719 16.219 6.719 12.703 0 23-10.298 23-23 0-6.335-2.575-12.06-6.719-16.219z" style="opacity:.05"/>
 <path d="m41.28 8.781c3.712 4.085 5.969 9.514 5.969 15.469 0 12.703-10.297 23-23 23-5.954 0-11.384-2.256-15.469-5.969 4.113 3.854 9.637 6.219 15.719 6.219 12.703 0 23-10.298 23-23 0-6.081-2.364-11.606-6.219-15.719z" style="opacity:.1"/>
 <path d="m31.25 2.375c8.615 3.154 14.75 11.417 14.75 21.13 0 12.426-10.07 22.5-22.5 22.5-9.708 0-17.971-6.135-21.12-14.75a23 23 0 0 0 44.875 -7 23 23 0 0 0 -16 -21.875z" style="opacity:.2"/>
 <g style="fill:#782305">
  <path d="m24 1c12.703 0 23 10.297 23 23s-10.297 23-23 23-23-10.297-23-23 10.297-23 23-23z" style="fill:url(#linearGradient851)"/>
 </g>
 <path d="m40.03 7.531c3.712 4.084 5.969 9.514 5.969 15.469 0 12.703-10.297 23-23 23-5.954 0-11.384-2.256-15.469-5.969 4.178 4.291 10.01 6.969 16.469 6.969 12.703 0 23-10.298 23-23 0-6.462-2.677-12.291-6.969-16.469z" style="opacity:.1"/>
 <path d="m25 10c-8.284 0-15 6.716-15 15s6.716 15 15 15 15-6.716 15-15-6.716-15-15-15zm0 2c2.308 0 4.465 0.602 6.344 1.656l-6.344 4.406-6.344-4.406c1.879-1.055 4.04-1.656 6.344-1.656zm-7.094 2.125c-0.244 0.159-0.486 0.325-0.719 0.5 0.233-0.175 0.474-0.34 0.719-0.5zm14.188 0c0.244 0.16 0.486 0.325 0.719 0.5-0.233-0.175-0.475-0.341-0.719-0.5zm-14.219 1.375l5.406 3.75-3.375 2.344-2.031-6.094zm14.25 0-2.031 6.094l-3.375-2.344 5.406-3.75zm-16.25 0.25 2.344 7.03l-6.06 4.219c-0.1-0.65-0.156-1.322-0.156-2 0-3.622 1.485-6.893 3.875-9.25zm18.25 0c2.39 2.357 3.875 5.628 3.875 9.25 0 0.678-0.056 1.35-0.156 2l-6.06-4.219 2.344-7.03zm-9.125 4.719 4.438 3.094-1.469 4.438h-5.938l-1.469-4.438 4.438-3.094zm-6.125 4.25l1.094 3.281h-5.813l4.719-3.281zm12.25 0l4.719 3.281h-5.813l1.094-3.281zm-18.969 2.313c0.08 0.513 0.205 1.01 0.344 1.5 0.114 0.405 0.255 0.8 0.406 1.188-0.152-0.389-0.292-0.782-0.406-1.188-0.138-0.49-0.264-0.989-0.344-1.5zm25.688 0c-0.08 0.511-0.206 1.01-0.344 1.5-0.114 0.406-0.255 0.799-0.406 1.188 0.151-0.388 0.292-0.783 0.406-1.188 0.139-0.491 0.264-0.987 0.344-1.5zm-24.844 2.969h7.625l2.625 7.875c0.234 0.031 0.48 0.042 0.719 0.063-0.242-0.019-0.481-0.031-0.719-0.063-4.648-0.623-8.506-3.689-10.25-7.875zm9.719 0h4.563l-2.281 6.875-2.281-6.875zm6.656 0h7.625c-1.744 4.186-5.602 7.252-10.25 7.875-0.238 0.032-0.477 0.044-0.719 0.063 0.239-0.021 0.485-0.031 0.719-0.063l2.625-7.875z" style="opacity:.1"/>
 <path d="m24 9c-8.284 0-15 6.716-15 15s6.716 15 15 15 15-6.716 15-15-6.716-15-15-15zm0 2c2.308 0 4.465 0.602 6.344 1.656l-6.344 4.406-6.344-4.406c1.879-1.055 4.04-1.656 6.344-1.656zm-7.094 2.125c-0.244 0.159-0.486 0.325-0.719 0.5 0.233-0.175 0.474-0.34 0.719-0.5zm14.188 0c0.244 0.16 0.486 0.325 0.719 0.5-0.233-0.175-0.475-0.341-0.719-0.5zm-14.219 1.375l5.406 3.75-3.375 2.344-2.031-6.094zm14.25 0l-2.031 6.094-3.375-2.344 5.406-3.75zm-16.25 0.25l2.344 7.03-6.06 4.219c-0.1-0.65-0.156-1.322-0.156-2 0-3.622 1.485-6.893 3.875-9.25zm18.25 0c2.39 2.357 3.875 5.628 3.875 9.25 0 0.678-0.056 1.35-0.156 2l-6.06-4.219 2.344-7.03zm-9.125 4.719l4.438 3.094-1.469 4.438h-5.938l-1.469-4.438 4.438-3.094zm-6.125 4.25l1.094 3.281h-5.813l4.719-3.281zm12.25 0l4.719 3.281h-5.813l1.094-3.281zm-18.969 2.313c0.08 0.513 0.205 1.01 0.344 1.5 0.114 0.405 0.255 0.8 0.406 1.188-0.152-0.389-0.292-0.782-0.406-1.188-0.138-0.49-0.264-0.989-0.344-1.5zm25.688 0c-0.08 0.511-0.206 1.01-0.344 1.5-0.114 0.406-0.255 0.799-0.406 1.188 0.151-0.388 0.292-0.783 0.406-1.188 0.139-0.491 0.264-0.987 0.344-1.5zm-24.844 2.969h7.625l2.625 7.875c0.234 0.031 0.48 0.042 0.719 0.063-0.242-0.019-0.481-0.031-0.719-0.063-4.648-0.623-8.506-3.689-10.25-7.875zm9.719 0h4.563l-2.281 6.875-2.281-6.875zm6.656 0h7.625c-1.744 4.186-5.602 7.252-10.25 7.875-0.238 0.032-0.477 0.044-0.719 0.063 0.239-0.021 0.485-0.031 0.719-0.063l2.625-7.875z" style="fill:#dc7d41"/>
</svg>
