<svg xmlns="http://www.w3.org/2000/svg" viewBox="0 0 48 48">
 <defs>
  <linearGradient id="linearGradient3764" x1="1" x2="47" gradientUnits="userSpaceOnUse" gradientTransform="matrix(0,-1,1,0,-1.5e-6,47.999998)">
   <stop style="stop-color:#b64b32;stop-opacity:1"/>
   <stop offset="1" style="stop-color:#c55036;stop-opacity:1"/>
  </linearGradient>
 </defs>
 <g>
  <path d="m 36.31 5 c 5.859 4.062 9.688 10.831 9.688 18.5 c 0 12.426 -10.07 22.5 -22.5 22.5 c -7.669 0 -14.438 -3.828 -18.5 -9.688 c 1.037 1.822 2.306 3.499 3.781 4.969 c 4.085 3.712 9.514 5.969 15.469 5.969 c 12.703 0 23 -10.298 23 -23 c 0 -5.954 -2.256 -11.384 -5.969 -15.469 c -1.469 -1.475 -3.147 -2.744 -4.969 -3.781 z m 4.969 3.781 c 3.854 4.113 6.219 9.637 6.219 15.719 c 0 12.703 -10.297 23 -23 23 c -6.081 0 -11.606 -2.364 -15.719 -6.219 c 4.16 4.144 9.883 6.719 16.219 6.719 c 12.703 0 23 -10.298 23 -23 c 0 -6.335 -2.575 -12.06 -6.719 -16.219 z" style="opacity:0.05"/>
  <path d="m 41.28 8.781 c 3.712 4.085 5.969 9.514 5.969 15.469 c 0 12.703 -10.297 23 -23 23 c -5.954 0 -11.384 -2.256 -15.469 -5.969 c 4.113 3.854 9.637 6.219 15.719 6.219 c 12.703 0 23 -10.298 23 -23 c 0 -6.081 -2.364 -11.606 -6.219 -15.719 z" style="opacity:0.1"/>
  <path d="m 31.25 2.375 c 8.615 3.154 14.75 11.417 14.75 21.13 c 0 12.426 -10.07 22.5 -22.5 22.5 c -9.708 0 -17.971 -6.135 -21.12 -14.75 a 23 23 0 0 0 44.875 -7 a 23 23 0 0 0 -16 -21.875 z" style="opacity:0.2"/>
 </g>
 <g>
  <path d="m 24 1 c -9.16 0 -17.07 5.356 -20.768 13.11 c 0.803 -0.033 -2.233 4.895 -2.229 9.83 c -0.004 6.06 3.996 9.06 2.229 9.959 c 3.699 7.75 11.607 13.11 20.768 13.11 c 9.16 0 17.07 -5.356 20.768 -13.11 c -1.768 0.105 2.232 -3.895 2.232 -9.895 c 0 -6 -4 -10 -2.232 -9.895 c -3.699 -7.75 -11.607 -13.11 -20.768 -13.11 z" style="fill:url(#linearGradient3764);fill-opacity:1"/>
  <path d="m 11 13 c -3.548 0 -6.715 1.545 -8.908 3.988 c -0.707 2.211 -1.092 4.566 -1.092 7.01 c 0 3.695 0.876 7.182 2.424 10.275 c 2.065 1.693 4.691 2.725 7.576 2.725 c 6.629 0 12 -5.371 12 -12 c 0 -6.629 -5.371 -12 -12 -12 z m 28 0 c -6.629 0 -12 5.371 -12 12 c 0 6.629 5.371 12 12 12 c 1.619 0 3.156 -0.327 4.563 -0.906 c 1.049 -1.694 1.885 -3.533 2.469 -5.482 c -1.649 2.064 -4.184 3.389 -7.03 3.389 c -4.973 0 -9 -4.03 -9 -9 c 0 -4.973 4.03 -9 9 -9 c 3.281 0 6.14 1.76 7.713 4.381 c -0.319 -2.02 -0.902 -3.95 -1.711 -5.758 c -1.765 -1.025 -3.809 -1.623 -6 -1.623 z m -27.938 2.906 c 5 0 9.03 4.03 9.03 9.03 c 0 4.996 -4.03 9.06 -9.03 9.06 c -5 0 -9.06 -4.064 -9.06 -9.06 c 0 -5 4.062 -9.03 9.06 -9.03 z" style="fill:#000;opacity:0.1;fill-opacity:1"/>
  <path d="m 38 12 c -6.629 0 -12 5.371 -12 12 c 0 6.629 5.371 12 12 12 c 2.518 0 4.842 -0.784 6.768 -2.105 c 1.431 -2.997 2.232 -6.352 2.232 -9.895 c 0 4.973 -4.03 9 -9 9 c -4.973 0 -9 -4.03 -9 -9 c 0 -4.973 4.03 -9 9 -9 c 4.973 0 9 4.03 9 9 c 0 -3.543 -0.802 -6.897 -2.232 -9.895 c -1.925 -1.322 -4.25 -2.105 -6.768 -2.105 z" style="fill:#ecedf1;fill-opacity:1"/>
  <path d="m 10 12 c -2.518 0 -4.842 0.784 -6.768 2.105 c -1.431 2.997 -2.232 6.352 -2.232 9.895 c 0 3.543 0.802 6.897 2.232 9.895 c 1.925 1.322 4.25 2.105 6.768 2.105 c 6.629 0 12 -5.371 12 -12 c 0 -6.629 -5.371 -12 -12 -12 z m 0.063 2.906 c 5 0 9.03 4.03 9.03 9.03 c 0 4.996 -4.03 9.06 -9.03 9.06 c -5 0 -9.06 -4.064 -9.06 -9.06 c 0 -5 4.062 -9.03 9.06 -9.03 z" style="fill:#ecedf1;fill-opacity:1"/>
 </g>
 <g>
  <g>
   <g transform="translate(1,1)">
    <g style="opacity:0.1">
     <!-- color: #c55036 -->
    </g>
   </g>
  </g>
 </g>
 <g>
  <g>
   <!-- color: #c55036 -->
  </g>
 </g>
 <g>
  <path d="m 40.03 7.531 c 3.712 4.084 5.969 9.514 5.969 15.469 0 12.703 -10.297 23 -23 23 c -5.954 0 -11.384 -2.256 -15.469 -5.969 4.178 4.291 10.01 6.969 16.469 6.969 c 12.703 0 23 -10.298 23 -23 0 -6.462 -2.677 -12.291 -6.969 -16.469 z" style="opacity:0.1"/>
 </g>
</svg>
