<svg version="1.1" viewBox="0 0 48 48" xmlns="http://www.w3.org/2000/svg">
 <defs>
  <linearGradient id="bg" x2="0" y1="1" y2="47" gradientUnits="userSpaceOnUse">
   <stop style="stop-color:#f4de85" offset="0"/>
   <stop style="stop-color:#f2d973" offset="1"/>
  </linearGradient>
 </defs>
 <path d="m36.31 5c5.859 4.062 9.688 10.831 9.688 18.5 0 12.426-10.07 22.5-22.5 22.5-7.669 0-14.438-3.828-18.5-9.688 1.037 1.822 2.306 3.499 3.781 4.969 4.085 3.712 9.514 5.969 15.469 5.969 12.703 0 23-10.298 23-23 0-5.954-2.256-11.384-5.969-15.469-1.469-1.475-3.147-2.744-4.969-3.781zm4.969 3.781c3.854 4.113 6.219 9.637 6.219 15.719 0 12.703-10.297 23-23 23-6.081 0-11.606-2.364-15.719-6.219 4.16 4.144 9.883 6.719 16.219 6.719 12.703 0 23-10.298 23-23 0-6.335-2.575-12.06-6.719-16.219z" style="opacity:.05"/>
 <path d="m41.28 8.781c3.712 4.085 5.969 9.514 5.969 15.469 0 12.703-10.297 23-23 23-5.954 0-11.384-2.256-15.469-5.969 4.113 3.854 9.637 6.219 15.719 6.219 12.703 0 23-10.298 23-23 0-6.081-2.364-11.606-6.219-15.719z" style="opacity:.1"/>
 <path d="m31.25 2.375c8.615 3.154 14.75 11.417 14.75 21.13 0 12.426-10.07 22.5-22.5 22.5-9.708 0-17.971-6.135-21.12-14.75a23 23 0 0 0 44.875-7 23 23 0 0 0-16-21.875z" style="opacity:.2"/>
 <circle cx="24" cy="24" r="23" style="fill:url(#bg)"/>
 <path d="m40.03 7.531c3.712 4.084 5.969 9.514 5.969 15.469 0 12.703-10.297 23-23 23-5.954 0-11.384-2.256-15.469-5.969 4.178 4.291 10.01 6.969 16.469 6.969 12.703 0 23-10.298 23-23 0-6.462-2.677-12.291-6.969-16.469z" style="opacity:.1"/>
 <path d="m31 14v3c0 1.3658-0.15366 2.6161-0.44336 3.7461-0.3788-0.42207-0.75398-0.79985-1.1094-1.1074-0.0059-0.0051-0.01163-0.01049-0.01758-0.01563-1e-6 0-0.0019 1e-6 -2e-3 0-2.1656-2.0679-4.6406-3.623-7.4277-3.623-5.5 0-9 3.8056-9 8.5 0 6.5 5 8.5 8 8.5 3.0833 0 5.5699-1.1905 7.4648-2.9375 0.22456 0.63874 0.40526 1.288 0.53516 1.9375l-3 3h11v-12l-2.5 3.5c-0.45287-0.90574-1.1691-2.0801-1.9785-3.2383 0.31786-1.1479 0.47852-2.2651 0.47852-3.2617 0-2.6541-0.93712-4.7422-2-6zm-11 8c2.4454-0.0048 4.8885 1.8664 6.6484 4.4629-1.5557 1.0074-3.4692 1.5371-5.6484 1.5371-2 0-4-1-4-3.5 0.1764-1.7575 1.648-2.4973 3-2.5z" style="opacity:.1"/>
 <path d="m30 13v3c0 7-4 11-10 11-2 0-4-1-4-3.5 0-8 12.43-4.877 12.43-4.877-2.1659-2.0684-4.6422-3.623-7.4297-3.623-5.5 0-9 3.8056-9 8.5 0 6.5 5 8.5 8 8.5 8 0 12-8 12-13 0-2.6541-0.93712-4.7422-2-6z" style="fill:#4ca95f"/>
 <path d="m29.559 19.74c-0.63567 2.4845-1.9343 4.3827-3.7402 5.6133 0.80633 0.97382 1.514 2.0989 2.0723 3.2988 1.8777-1.9038 3.1131-4.3588 3.7031-6.6582-0.68125-0.8768-1.3857-1.6722-2.0352-2.2539z" style="opacity:.1"/>
 <path d="m22.5 16c-2.5 0-6.5 2-6.5 7.5 0.1764-1.7575 1.648-2.4973 3-2.5 4-0.0078 8 5 9 10l-3 3h11v-12l-2.5 3.5c-1-2-3.2608-5.3105-5.0527-6.8613-1.8462-1.5977-3.9473-2.6387-5.9473-2.6387z" style="fill:#e38745"/>
</svg>
