<svg xmlns="http://www.w3.org/2000/svg" viewBox="0 0 48 48">
 <defs>
  <linearGradient gradientTransform="matrix(0,-1,1,0,-1.5e-6,47.999998)" gradientUnits="userSpaceOnUse" x2="47" x1="1" id="linearGradient3764">
   <stop style="stop-color:#8ad14f;stop-opacity:1"/>
   <stop offset="1" style="stop-color:#90d15b;stop-opacity:1"/>
  </linearGradient>
 </defs>
 <g>
  <path d="m 36.31 5 c 5.859 4.062 9.688 10.831 9.688 18.5 c 0 12.426 -10.07 22.5 -22.5 22.5 c -7.669 0 -14.438 -3.828 -18.5 -9.688 c 1.037 1.822 2.306 3.499 3.781 4.969 c 4.085 3.712 9.514 5.969 15.469 5.969 c 12.703 0 23 -10.298 23 -23 c 0 -5.954 -2.256 -11.384 -5.969 -15.469 c -1.469 -1.475 -3.147 -2.744 -4.969 -3.781 z m 4.969 3.781 c 3.854 4.113 6.219 9.637 6.219 15.719 c 0 12.703 -10.297 23 -23 23 c -6.081 0 -11.606 -2.364 -15.719 -6.219 c 4.16 4.144 9.883 6.719 16.219 6.719 c 12.703 0 23 -10.298 23 -23 c 0 -6.335 -2.575 -12.06 -6.719 -16.219 z" style="opacity:0.05"/>
  <path d="m 41.28 8.781 c 3.712 4.085 5.969 9.514 5.969 15.469 c 0 12.703 -10.297 23 -23 23 c -5.954 0 -11.384 -2.256 -15.469 -5.969 c 4.113 3.854 9.637 6.219 15.719 6.219 c 12.703 0 23 -10.298 23 -23 c 0 -6.081 -2.364 -11.606 -6.219 -15.719 z" style="opacity:0.1"/>
  <path d="m 31.25 2.375 c 8.615 3.154 14.75 11.417 14.75 21.13 c 0 12.426 -10.07 22.5 -22.5 22.5 c -9.708 0 -17.971 -6.135 -21.12 -14.75 a 23 23 0 0 0 44.875 -7 a 23 23 0 0 0 -16 -21.875 z" style="opacity:0.2"/>
 </g>
 <g>
  <path d="m 24 1 c 12.703 0 23 10.297 23 23 c 0 12.703 -10.297 23 -23 23 -12.703 0 -23 -10.297 -23 -23 0 -12.703 10.297 -23 23 -23 z" style="fill:url(#linearGradient3764);fill-opacity:1"/>
 </g>
 <g>
  <path d="m 40.03 7.531 c 3.712 4.084 5.969 9.514 5.969 15.469 0 12.703 -10.297 23 -23 23 c -5.954 0 -11.384 -2.256 -15.469 -5.969 4.178 4.291 10.01 6.969 16.469 6.969 c 12.703 0 23 -10.298 23 -23 0 -6.462 -2.677 -12.291 -6.969 -16.469 z" style="opacity:0.1"/>
 </g>
 <path d="m 16.391 18.11 c -2.378 0.04 -4.339 0.923 -4.971 2.936 -1.796 5.724 10.459 10.09 15.771 6.52 l 5.725 1.795 c 1.965 3.76 6.38 3.049 4.266 -0.234 3.611 -1.488 0.393 -4.592 -3.367 -2.627 l -5.725 -1.797 c -1.015 -2.611 -3.989 -4.733 -7.164 -5.814 -1.531 -0.522 -3.108 -0.801 -4.535 -0.777" style="fill:#000;opacity:0.1;fill-opacity:1;stroke:none;fill-rule:evenodd"/>
 <path d="m 26.19 26.563 5.725 1.796 c 1.965 3.76 6.38 3.049 4.266 -0.234 3.611 -1.488 0.393 -4.593 -3.368 -2.628 l -5.725 -1.796 z" style="fill:#f9f9f9;fill-opacity:1;stroke:none;fill-rule:evenodd"/>
 <path d="m 19.925 17.885 c -4.082 -1.391 -8.495 -1.062 -9.505 2.158 -1.796 5.724 10.459 10.09 15.772 6.519 0.299 -0.954 0.599 -1.908 0.898 -2.862 -1.015 -2.611 -3.989 -4.733 -7.164 -5.815 z" style="fill:#dd6a77;fill-opacity:1;stroke:none;fill-rule:evenodd"/>
</svg>
