<svg id="svg33" version="1.1" viewBox="0 0 48 48" xmlns="http://www.w3.org/2000/svg">
 <defs id="defs7">
  <linearGradient id="bg" x2="0" y1="1" y2="47" gradientUnits="userSpaceOnUse">
   <stop id="stop2" style="stop-color:#7b848e" offset="0"/>
   <stop id="stop4" style="stop-color:#717a84" offset="1"/>
  </linearGradient>
 </defs>
 <path id="path9" d="m36.3 5c5.86 4.06 9.69 10.8 9.69 18.5 0 12.4-10.1 22.5-22.5 22.5-7.67 0-14.4-3.83-18.5-9.69 1.04 1.82 2.31 3.5 3.78 4.97 4.08 3.71 9.51 5.97 15.5 5.97 12.7 0 23-10.3 23-23 0-5.95-2.26-11.4-5.97-15.5-1.47-1.48-3.15-2.74-4.97-3.78zm4.97 3.78c3.85 4.11 6.22 9.64 6.22 15.7 0 12.7-10.3 23-23 23-6.08 0-11.6-2.36-15.7-6.22 4.16 4.14 9.88 6.72 16.2 6.72 12.7 0 23-10.3 23-23 0-6.34-2.58-12.1-6.72-16.2z" style="opacity:.05"/>
 <path id="path11" d="m41.3 8.78c3.71 4.08 5.97 9.51 5.97 15.5 0 12.7-10.3 23-23 23-5.95 0-11.4-2.26-15.5-5.97 4.11 3.85 9.64 6.22 15.7 6.22 12.7 0 23-10.3 23-23 0-6.08-2.36-11.6-6.22-15.7z" style="opacity:.1"/>
 <path id="path13" d="m31.2 2.38c8.62 3.15 14.8 11.4 14.8 21.1 0 12.4-10.1 22.5-22.5 22.5-9.71 0-18-6.14-21.1-14.8a23 23 0 0 0 44.9-7 23 23 0 0 0-16-21.9z" style="opacity:.2"/>
 <circle id="circle15" cx="24" cy="24" r="23" style="fill:url(#bg)"/>
 <path id="path17" d="m40 7.53c3.71 4.08 5.97 9.51 5.97 15.5 0 12.7-10.3 23-23 23-5.95 0-11.4-2.26-15.5-5.97 4.18 4.29 10 6.97 16.5 6.97 12.7 0 23-10.3 23-23 0-6.46-2.68-12.3-6.97-16.5z" style="opacity:.1"/>
 <path id="rect13494" d="m17 11-4 11c0 0.554 0.446 1 1 1h2l-3 9c0 0.554 0.446 1 1 1h2l-2 3c0 0.554 0.446 1 1 1h4c0.554 0 1-0.446 1-1s-0.446-1-1-1h-1v-2h14l-2 3c0 0.554 0.446 1 1 1h4c0.554 0 1-0.446 1-1s-0.446-1-1-1h-1v-2h2c0.554 0 1-0.446 1-1v-4c0-0.554-0.446-1-1-1h-2v-4h2c0.554 0 1-0.446 1-1v-4c0-0.554-0.446-1-1-1h-2v-2.26758c0.618917-0.357332 1.00013-1.01776 1-1.73242 0-1.10457-0.895431-2-2-2l-1 6h-14v-2.26758c0.618917-0.357332 1.00013-1.01776 1-1.73242 0-1.10457-0.895431-2-2-2zm1 12h14v4h-14z" style="opacity:.1"/>
 <path id="rect1007" d="m15 11v23h-1c-0.554 0-1 0.446-1 1s0.446 1 1 1h4c0.554 0 1-0.446 1-1s-0.446-1-1-1h-1v-23zm16 0v23h-1c-0.554 0-1 0.446-1 1s0.446 1 1 1h4c0.554 0 1-0.446 1-1s-0.446-1-1-1h-1v-23z" style="fill:#4d4d4d"/>
 <path id="rect5874" d="m15 13c0 1.10457 0.895431 2 2 2v-2h-2zm16 0c0 1.10457 0.895431 2 2 2v-2h-2zm-16 8v2h2v-2h-2zm16 0v2h2v-2h-2zm-16 10v2h2v-2h-2zm16 0v2h2v-2h-2z" style="opacity:.1"/>
 <path id="path1204" d="m16 16-2.88086 2.82031-0.88086 2.82227c0.183155 0.217132 0.454121 0.357422 0.761719 0.357422h3l3-3 1-3h-4zm8 0-3 3-1 3h4l3-3 1-3h-4zm8 0-3 3-1 3h4l2.88086-2.82031 0.88086-2.82227c-0.183155-0.217132-0.454122-0.357422-0.761719-0.357422h-3zm-16 10-2.88086 2.82031-0.88086 2.82227c0.183155 0.217132 0.454121 0.357422 0.761719 0.357422h3l3-3 1-3h-4zm8 0-3 3-1 3h4l3-3 1-3h-4zm8 0-3 3-1 3h4l2.88086-2.82031 0.88086-2.82227c-0.183155-0.217132-0.454122-0.357422-0.761719-0.357422h-3z" style="fill:#ea6c57"/>
 <path id="rect980" d="m13 16c-0.554 0-1 0.446-1 1v4c0 0.246403 0.09156 0.468643 0.238281 0.642578l3.76172-5.64258h-3zm7 0-4 6h4l4-6h-4zm8 0-4 6h4l4-6h-4zm7.76172 0.357422s-3.76144 5.64258-3.76172 5.64258h3c0.554 0 1-0.446 1-1v-4c0-0.246403-0.09156-0.468643-0.238281-0.642578zm-22.7617 9.64258c-0.554 0-1 0.446-1 1v4c0 0.246403 0.09156 0.468643 0.238281 0.642578l3.76172-5.64258h-3zm7 0-4 6h4l4-6h-4zm8 0-4 6h4l4-6h-4zm7.76172 0.357422s-3.76144 5.64258-3.76172 5.64258h3c0.554 0 1-0.446 1-1v-4c0-0.246403-0.09156-0.468643-0.238281-0.642578z" style="fill:#f9f9f9"/>
 <path id="path10823" d="m16 10a2 2 0 0 0-2 2 2 2 0 0 0 2 2 2 2 0 0 0 2-2 2 2 0 0 0-2-2zm16 0a2 2 0 0 0-2 2 2 2 0 0 0 2 2 2 2 0 0 0 2-2 2 2 0 0 0-2-2z" style="fill:#ecec68"/>
</svg>
