<svg version="1.1" viewBox="0 0 48 48" xmlns="http://www.w3.org/2000/svg">
 <defs>
  <linearGradient id="bg" x2="0" y1="1" y2="47" gradientUnits="userSpaceOnUse">
   <stop style="stop-color:#69779b" offset="0"/>
   <stop style="stop-color:#606d90" offset="1"/>
  </linearGradient>
 </defs>
 <path d="m36.3 5c5.86 4.06 9.69 10.8 9.69 18.5 0 12.4-10.1 22.5-22.5 22.5-7.67 0-14.4-3.83-18.5-9.69 1.04 1.82 2.31 3.5 3.78 4.97 4.08 3.71 9.51 5.97 15.5 5.97 12.7 0 23-10.3 23-23 0-5.95-2.26-11.4-5.97-15.5-1.47-1.48-3.15-2.74-4.97-3.78zm4.97 3.78c3.85 4.11 6.22 9.64 6.22 15.7 0 12.7-10.3 23-23 23-6.08 0-11.6-2.36-15.7-6.22 4.16 4.14 9.88 6.72 16.2 6.72 12.7 0 23-10.3 23-23 0-6.34-2.58-12.1-6.72-16.2z" style="opacity:.05"/>
 <path d="m41.3 8.78c3.71 4.08 5.97 9.51 5.97 15.5 0 12.7-10.3 23-23 23-5.95 0-11.4-2.26-15.5-5.97 4.11 3.85 9.64 6.22 15.7 6.22 12.7 0 23-10.3 23-23 0-6.08-2.36-11.6-6.22-15.7z" style="opacity:.1"/>
 <path d="m31.2 2.38c8.62 3.15 14.8 11.4 14.8 21.1 0 12.4-10.1 22.5-22.5 22.5-9.71 0-18-6.14-21.1-14.8a23 23 0 0 0 44.9-7 23 23 0 0 0-16-21.9z" style="opacity:.2"/>
 <circle cx="24" cy="24" r="23" style="fill:url(#bg)"/>
 <path d="m13 14-1 17c0 0.554 0.446 1 1 1h8c0 3.5 0 3.5-2.5 5h-0.5v1h14v-1h-0.5c-2.5-1.5-2.5-1.5-2.5-5h8c0.554 0 1-0.446 1-1v-16c0-0.554-0.446-1-1-1z" style="opacity:.1"/>
 <path d="m40 7.53c3.71 4.08 5.97 9.51 5.97 15.5 0 12.7-10.3 23-23 23-5.95 0-11.4-2.26-15.5-5.97 4.18 4.29 10 6.97 16.5 6.97 12.7 0 23-10.3 23-23 0-6.46-2.68-12.3-6.97-16.5z" style="opacity:.1"/>
 <path d="m24 28-4 3c0 3.5 0 3.5-2.5 5l6.5 0.5 6.5-0.5c-2.5-1.5-2.5-1.5-2.5-5z" style="fill:#cfd6d6"/>
 <path d="m17 36v1h14v-1z" style="fill:#e5ecec"/>
 <rect x="11" y="13" width="26" height="18" ry="1" style="fill:#474747;paint-order:normal"/>
 <path d="m13 15h11l2.39 7-2.39 7h-11z" style="fill:#7885a4;paint-order:normal;stroke-width:.714"/>
 <rect x="24" y="15" width="11" height="14" style="fill:#b4c4dc;paint-order:normal;stroke-width:.714"/>
 <path d="m18 21a3 3 0 0 0-3 3 3 3 0 0 0 3 3 3 3 0 0 0 2.23-1h-1.23c-1.11 0-2-0.892-2-2s0.892-2 2-2h1.23a3 3 0 0 0-2.23-1z" style="fill:#f9f9f9;paint-order:normal"/>
 <path transform="matrix(.748 .18 -.18 .748 10.3 -.364)" d="m33 23.3-1.22-0.65-0.809 1.12-0.735-1.17-1.26 0.57-0.0493-1.38-1.38-0.138 0.65-1.22-1.12-0.809 1.17-0.735-0.57-1.26 1.38-0.0493 0.138-1.38 1.22 0.65 0.809-1.12 0.735 1.17 1.26-0.57 0.0493 1.38 1.38 0.138-0.65 1.22 1.12 0.809-1.17 0.735 0.57 1.26-1.38 0.0493z" style="fill:#f9f9f9;paint-order:normal"/>
</svg>
