<svg version="1.1" viewBox="0 0 48 48" xmlns="http://www.w3.org/2000/svg">
 <defs>
  <linearGradient id="linearGradient841" x1="1" x2="1" y1="1" y2="47" gradientUnits="userSpaceOnUse">
   <stop style="stop-color:#f8eee8" offset="0"/>
   <stop style="stop-color:#f4e3d8" offset="1"/>
  </linearGradient>
 </defs>
 <path d="m36.31 5c5.859 4.062 9.688 10.831 9.688 18.5 0 12.426-10.07 22.5-22.5 22.5-7.669 0-14.438-3.828-18.5-9.688 1.037 1.822 2.306 3.499 3.781 4.969 4.085 3.712 9.514 5.969 15.469 5.969 12.703 0 23-10.298 23-23 0-5.954-2.256-11.384-5.969-15.469-1.469-1.475-3.147-2.744-4.969-3.781zm4.969 3.781c3.854 4.113 6.219 9.637 6.219 15.719 0 12.703-10.297 23-23 23-6.081 0-11.606-2.364-15.719-6.219 4.16 4.144 9.883 6.719 16.219 6.719 12.703 0 23-10.298 23-23 0-6.335-2.575-12.06-6.719-16.219z" style="opacity:.05"/>
 <path d="m41.28 8.781c3.712 4.085 5.969 9.514 5.969 15.469 0 12.703-10.297 23-23 23-5.954 0-11.384-2.256-15.469-5.969 4.113 3.854 9.637 6.219 15.719 6.219 12.703 0 23-10.298 23-23 0-6.081-2.364-11.606-6.219-15.719z" style="opacity:.1"/>
 <path d="m31.25 2.375c8.615 3.154 14.75 11.417 14.75 21.13 0 12.426-10.07 22.5-22.5 22.5-9.708 0-17.971-6.135-21.12-14.75a23 23 0 0 0 44.875 -7 23 23 0 0 0 -16 -21.875z" style="opacity:.2"/>
 <g style="fill:#f4e3d8">
  <path d="m24 1c12.703 0 23 10.297 23 23s-10.297 23-23 23-23-10.297-23-23 10.297-23 23-23z" style="fill:url(#linearGradient841)"/>
 </g>
 <path d="m40.03 7.531c3.712 4.084 5.969 9.514 5.969 15.469 0 12.703-10.297 23-23 23-5.954 0-11.384-2.256-15.469-5.969 4.178 4.291 10.01 6.969 16.469 6.969 12.703 0 23-10.298 23-23 0-6.462-2.677-12.291-6.969-16.469z" style="opacity:.1"/>
 <path d="m25 13c-2.1573 2.9e-5 -4.0562 1.1702-5.3046 2.897-1.1323 1.5661-1.6783 3.6279-1.6152 5.8115-1.9727 1.0321-3.5348 2.5217-4.3672 4.2663-0.91498 1.9178-1.0121 4.1295 0.07813 5.9658 1.0902 1.8363 3.0826 2.843 5.2304 3.0298 1.9597 0.17045 4.0679-0.39977 5.9785-1.553 1.9104 1.1532 4.0168 1.7234 5.9765 1.553 2.1478-0.1868 4.1419-1.1935 5.2324-3.0298 1.0905-1.8363 0.99318-4.048 0.07813-5.9658-0.83297-1.7458-2.3964-3.2362-4.3711-4.2683 0.05339-2.117-0.49129-4.1596-1.6133-5.7373-1.2401-1.7438-3.1289-2.9693-5.3027-2.9692zm0 2.0003c1.425-2e-5 2.7237 0.79603 3.6718 2.1292 0.71946 1.0117 1.0836 2.3434 1.1973 3.7291-3.1736-1.0448-6.5706-1.0441-9.7441 2e-3 0.10402-1.4406 0.46846-2.7917 1.1914-3.7916 0.94394-1.3056 2.242-2.0687 3.6836-2.0687zm0 6.9914c1.6425 1e-5 3.269 0.35288 4.8242 0.94351-0.51084 3.3221-2.1971 6.0752-4.8203 8.0892-2.6108-2.0213-4.318-4.8949-4.8242-8.0892 1.5543-0.58978 3.179-0.94352 4.8203-0.94351zm-6.6484 1.9085c0.65733 3.1852 2.3443 6.0375 4.8379 8.1849-1.3416 0.63226-2.736 1.0021-3.9941 0.89272-1.6489-0.14341-2.9744-0.86437-3.6836-2.0589-0.7092-1.1946-0.68337-2.638 0.0059-4.0827 0.53361-1.1184 1.5744-2.1192 2.834-2.936zm13.301 2e-3c1.2577 0.81656 2.2969 1.8167 2.8301 2.9341 0.68928 1.4446 0.71525 2.8881 0.0059 4.0827-0.70943 1.1946-2.0347 1.9155-3.6836 2.0589-1.2556 0.1092-2.6472-0.25935-3.9863-0.88881 2.4854-2.1228 4.1734-4.9211 4.834-8.1869z" style="opacity:.1"/>
 <path d="m24 12c-2.1573 2.9e-5 -4.0562 1.1702-5.3046 2.897-1.1323 1.5661-1.6783 3.6279-1.6152 5.8115-1.9727 1.0321-3.5348 2.5217-4.3672 4.2663-0.91498 1.9178-1.0121 4.1295 0.07813 5.9658 1.0902 1.8363 3.0826 2.843 5.2304 3.0298 1.9597 0.17045 4.0679-0.39977 5.9785-1.553 1.9104 1.1532 4.0168 1.7234 5.9765 1.553 2.1478-0.1868 4.1419-1.1935 5.2324-3.0298 1.0905-1.8363 0.99318-4.048 0.07813-5.9658-0.83297-1.7458-2.3964-3.2362-4.3711-4.2683 0.05339-2.117-0.49129-4.1596-1.6133-5.7373-1.2401-1.7438-3.1289-2.9693-5.3027-2.9692zm0 2.0003c1.425-2e-5 2.7237 0.79603 3.6718 2.1292 0.71946 1.0117 1.0836 2.3434 1.1973 3.7291-3.1736-1.0448-6.5706-1.0441-9.7441 2e-3 0.10402-1.4406 0.46846-2.7917 1.1914-3.7916 0.94394-1.3056 2.242-2.0687 3.6836-2.0687zm0 6.9914c1.6425 1e-5 3.269 0.35288 4.8242 0.94351-0.51084 3.3221-2.1971 6.0752-4.8203 8.0892-2.6108-2.0213-4.318-4.8949-4.8242-8.0892 1.5543-0.58978 3.179-0.94352 4.8203-0.94351zm-6.6484 1.9085c0.65733 3.1852 2.3443 6.0375 4.8379 8.1849-1.3416 0.63226-2.736 1.0021-3.9941 0.89272-1.6489-0.14341-2.9744-0.86437-3.6836-2.0589-0.7092-1.1946-0.68337-2.638 0.0059-4.0827 0.53361-1.1184 1.5744-2.1192 2.834-2.936zm13.301 2e-3c1.2577 0.81656 2.2969 1.8167 2.8301 2.9341 0.68928 1.4446 0.71525 2.8881 0.0059 4.0827-0.70943 1.1946-2.0347 1.9155-3.6836 2.0589-1.2556 0.1092-2.6472-0.25935-3.9863-0.88881 2.4854-2.1228 4.1734-4.9211 4.834-8.1869z" style="fill:#007d7f"/>
</svg>
