<svg version="1.1" viewBox="0 0 48 48" xmlns="http://www.w3.org/2000/svg" xmlns:xlink="http://www.w3.org/1999/xlink">
 <defs>
  <linearGradient id="bg" x1="1" x2="47" gradientUnits="userSpaceOnUse">
   <stop style="stop-color:#ffcf7f" offset="0"/>
   <stop style="stop-color:#ffd793" offset="1"/>
  </linearGradient>
  <radialGradient id="radialGradient4267" cx="24" cy="24" r="7" gradientUnits="userSpaceOnUse">
   <stop style="stop-color:#646464" offset="0"/>
   <stop style="stop-color:#5a5a5a" offset="1"/>
  </radialGradient>
  <radialGradient id="radialGradient4275" cx="24" cy="24" r="11" gradientUnits="userSpaceOnUse">
   <stop style="stop-color:#b96d3b" offset="0"/>
   <stop style="stop-color:#a86336" offset="1"/>
  </radialGradient>
  <linearGradient id="linearGradient1519" x1="1" x2="47" gradientUnits="userSpaceOnUse" xlink:href="#bg"/>
 </defs>
 <path d="m36.31 5c5.859 4.062 9.688 10.831 9.688 18.5 0 12.426-10.07 22.5-22.5 22.5-7.669 0-14.438-3.828-18.5-9.688 1.037 1.822 2.306 3.499 3.781 4.969 4.085 3.712 9.514 5.969 15.469 5.969 12.703 0 23-10.298 23-23 0-5.954-2.256-11.384-5.969-15.469-1.469-1.475-3.147-2.744-4.969-3.781zm4.969 3.781c3.854 4.113 6.219 9.637 6.219 15.719 0 12.703-10.297 23-23 23-6.081 0-11.606-2.364-15.719-6.219 4.16 4.144 9.883 6.719 16.219 6.719 12.703 0 23-10.298 23-23 0-6.335-2.575-12.06-6.719-16.219z" style="opacity:.05"/>
 <path d="m41.28 8.781c3.712 4.085 5.969 9.514 5.969 15.469 0 12.703-10.297 23-23 23-5.954 0-11.384-2.256-15.469-5.969 4.113 3.854 9.637 6.219 15.719 6.219 12.703 0 23-10.298 23-23 0-6.081-2.364-11.606-6.219-15.719z" style="opacity:.1"/>
 <path d="m31.25 2.375c8.615 3.154 14.75 11.417 14.75 21.13 0 12.426-10.07 22.5-22.5 22.5-9.708 0-17.971-6.135-21.12-14.75a23 23 0 0 0 44.875-7 23 23 0 0 0-16-21.875z" style="opacity:.2"/>
 <g transform="matrix(0,-1,1,0,0,48)" style="fill:url(#bg)">
  <path d="m24 1c12.703 0 23 10.297 23 23s-10.297 23-23 23-23-10.297-23-23 10.297-23 23-23z" style="fill:url(#linearGradient1519)"/>
 </g>
 <path d="m38 12.02-3.061 0.693-3.785 3.143-1.35-0.766c-1.2701-0.61617-2.6467-0.98281-4.055-1.08l-0.771 1.396-0.783-1.402c-1.4045 0.10536-2.7759 0.47875-4.04 1.1l-3.477 5.12-1.592-0.023c-0.61617 1.2701-0.98281 2.6467-1.08 4.055l1.396 0.771-1.402 0.783c0.10536 1.4045 0.47875 2.7759 1.1 4.04l1.6-0.029-0.615 2.918-3.873 3.873c-0.28 0.28-0.282 0.731-2e-3 1.012l0.172 0.17c0.28 0.281 0.731 0.28 1.012 0l3.873-3.871 2.168 2.172 0.67-0.633-1.257-1.308 1.373-0.826-0.023 1.592c1.2701 0.61617 2.6467 0.98281 4.055 1.08l0.771-1.396 0.783 1.402c1.4045-0.10536 2.7759-0.47875 4.04-1.1l-0.029-1.6 1.371 0.818c1.1674-0.79005 2.1725-1.7965 2.961-2.965l-0.826-1.373 1.592 0.023c0.61617-1.2701 0.98281-2.6467 1.08-4.055l-1.396-0.771 1.402-0.783c-0.10536-1.4045-0.47875-2.7759-1.1-4.04l-1.6 0.029 0.818-1.371c-0.07744-0.10675-0.15678-0.2121-0.238-0.316l3.422-3.42 0.697-3.061z" style="fill-opacity:.098"/>
 <path d="m40.03 7.531c3.712 4.084 5.969 9.514 5.969 15.469 0 12.703-10.297 23-23 23-5.954 0-11.384-2.256-15.469-5.969 4.178 4.291 10.01 6.969 16.469 6.969 12.703 0 23-10.298 23-23 0-6.462-2.677-12.291-6.969-16.469z" style="opacity:.1"/>
 <path d="m23.19 13a11.03 11.03 0 0 0-4.04 1.099l0.029 1.6-1.371-0.819a11.03 11.03 0 0 0-2.962 2.965l0.827 1.373-1.592-0.024a11.03 11.03 0 0 0-1.079 4.054l1.4 0.772-1.402 0.785a11.03 11.03 0 0 0 1.099 4.04l1.6-0.029-0.819 1.371a11.03 11.03 0 0 0 2.965 2.962l1.373-0.827-0.024 1.592a11.03 11.03 0 0 0 4.054 1.079l0.772-1.395 0.785 1.402a11.03 11.03 0 0 0 4.04-1.099l-0.029-1.6 1.371 0.819a11.03 11.03 0 0 0 2.962-2.965l-0.827-1.373 1.592 0.024a11.03 11.03 0 0 0 1.079-4.054l-1.395-0.774 1.402-0.788a11.03 11.03 0 0 0-1.099-4.04l-1.6 0.029 0.819-1.371a11.03 11.03 0 0 0-2.965-2.962l-1.373 0.827 0.024-1.592a11.03 11.03 0 0 0-4.054-1.079l-0.772 1.397-0.783-1.402z" style="fill-rule:evenodd;fill:url(#radialGradient4275)"/>
 <circle cx="24" cy="24" r="7" style="fill:url(#radialGradient4267)"/>
 <path d="m31.611 16.04-15.467 15.457-1.148-1.15c0.77097 1.1016 1.7369 2.0529 2.85 2.807l1.373-0.826-0.012 0.84 14-13.996-0.908 0.018 0.818-1.371c-0.46172-0.67464-1.0339-1.2765-1.506-1.779z" style="fill-opacity:.098"/>
 <path d="m37 11.015-0.69784 3.0607-19.171 19.16-2.3629-2.3675 19.171-19.16 3.0607-0.69525-20.693 20.681" style="fill:#909090"/>
 <path d="m16.232 31.693 20.718-20.696-2.9983 0.68917-18.897 18.889" style="fill:#b8b8b8"/>
 <rect transform="matrix(.70651 .70771 -.70736 .70685 0 0)" x="33.111" y="10.852" width="1.6721" height="7.0849" rx=".71544" style="fill:#784421"/>
 <path d="m13.566 28.906-0.66872 0.63343 5.537 5.5468 0.66872-0.63343z" style="color-rendering:auto;color:#000000;fill:#5e351a;image-rendering:auto;isolation:auto;mix-blend-mode:normal;shape-rendering:auto;solid-color:#000000;white-space:normal" isolation="auto" mix-blend-mode="normal"/>
</svg>
