<svg xmlns="http://www.w3.org/2000/svg" viewBox="0 0 48 48">
 <defs>
  <linearGradient id="linearGradient4190" x1="1" x2="47" gradientUnits="userSpaceOnUse">
   <stop style="stop-color:#ffcf7f;stop-opacity:1"/>
   <stop offset="1" style="stop-color:#ffd793;stop-opacity:1"/>
  </linearGradient>
  <radialGradient id="radialGradient4267" cx="24" cy="24" r="7" gradientUnits="userSpaceOnUse">
   <stop style="stop-color:#646464;stop-opacity:1"/>
   <stop offset="1" style="stop-color:#5a5a5a;stop-opacity:1"/>
  </radialGradient>
  <radialGradient id="radialGradient4275" cx="24" cy="24" r="11" gradientUnits="userSpaceOnUse">
   <stop style="stop-color:#b96d3b;stop-opacity:1"/>
   <stop offset="1" style="stop-color:#a86336;stop-opacity:1"/>
  </radialGradient>
 </defs>
 <g>
  <path d="m 36.31 5 c 5.859 4.062 9.688 10.831 9.688 18.5 c 0 12.426 -10.07 22.5 -22.5 22.5 c -7.669 0 -14.438 -3.828 -18.5 -9.688 c 1.037 1.822 2.306 3.499 3.781 4.969 c 4.085 3.712 9.514 5.969 15.469 5.969 c 12.703 0 23 -10.298 23 -23 c 0 -5.954 -2.256 -11.384 -5.969 -15.469 c -1.469 -1.475 -3.147 -2.744 -4.969 -3.781 z m 4.969 3.781 c 3.854 4.113 6.219 9.637 6.219 15.719 c 0 12.703 -10.297 23 -23 23 c -6.081 0 -11.606 -2.364 -15.719 -6.219 c 4.16 4.144 9.883 6.719 16.219 6.719 c 12.703 0 23 -10.298 23 -23 c 0 -6.335 -2.575 -12.06 -6.719 -16.219 z" style="opacity:0.05"/>
  <path d="m 41.28 8.781 c 3.712 4.085 5.969 9.514 5.969 15.469 c 0 12.703 -10.297 23 -23 23 c -5.954 0 -11.384 -2.256 -15.469 -5.969 c 4.113 3.854 9.637 6.219 15.719 6.219 c 12.703 0 23 -10.298 23 -23 c 0 -6.081 -2.364 -11.606 -6.219 -15.719 z" style="opacity:0.1"/>
  <path d="m 31.25 2.375 c 8.615 3.154 14.75 11.417 14.75 21.13 c 0 12.426 -10.07 22.5 -22.5 22.5 c -9.708 0 -17.971 -6.135 -21.12 -14.75 a 23 23 0 0 0 44.875 -7 a 23 23 0 0 0 -16 -21.875 z" style="opacity:0.2"/>
 </g>
 <g transform="matrix(0,-1,1,0,0,48)" style="fill:url(#linearGradient4190);fill-opacity:1">
  <path d="M 24,1 C 36.703,1 47,11.297 47,24 47,36.703 36.703,47 24,47 11.297,47 1,36.703 1,24 1,11.297 11.297,1 24,1 Z"/>
 </g>
 <path d="m 38 12.02 -3.061 0.693 -3.416 3.414 a 11.03 11.03 0 0 0 -0.369 -0.271 l -1.373 0.826 0.023 -1.592 a 11.03 11.03 0 0 0 -4.055 -1.08 l -0.771 1.396 -0.783 -1.402 a 11.03 11.03 0 0 0 -4.04 1.1 l 0.029 1.6 -1.371 -0.818 a 11.03 11.03 0 0 0 -2.961 2.965 l 0.826 1.373 -1.592 -0.023 a 11.03 11.03 0 0 0 -1.08 4.055 l 1.396 0.771 -1.402 0.783 a 11.03 11.03 0 0 0 1.1 4.04 l 1.6 -0.029 -0.818 1.371 a 11.03 11.03 0 0 0 0.121 0.16 l -1.436 -1.437 -0.67 0.635 2.188 2.189 -3.873 3.873 c -0.28 0.28 -0.282 0.731 -0.002 1.012 l 0.172 0.17 c 0.28 0.281 0.731 0.28 1.012 0 l 3.873 -3.871 2.168 2.172 0.67 -0.633 -1.439 -1.443 a 11.03 11.03 0 0 0 0.182 0.135 l 1.373 -0.826 -0.023 1.592 a 11.03 11.03 0 0 0 4.055 1.08 l 0.771 -1.396 0.783 1.402 a 11.03 11.03 0 0 0 4.04 -1.1 l -0.029 -1.6 1.371 0.818 a 11.03 11.03 0 0 0 2.961 -2.965 l -0.826 -1.373 1.592 0.023 a 11.03 11.03 0 0 0 1.08 -4.055 l -1.396 -0.771 1.402 -0.783 a 11.03 11.03 0 0 0 -1.1 -4.04 l -1.6 0.029 0.818 -1.371 a 11.03 11.03 0 0 0 -0.238 -0.316 l 3.422 -3.42 0.697 -3.061 z" style="fill:#000;fill-opacity:0.098;stroke:none"/>
 <g>
  <path d="m 40.03 7.531 c 3.712 4.084 5.969 9.514 5.969 15.469 0 12.703 -10.297 23 -23 23 c -5.954 0 -11.384 -2.256 -15.469 -5.969 4.178 4.291 10.01 6.969 16.469 6.969 c 12.703 0 23 -10.298 23 -23 0 -6.462 -2.677 -12.291 -6.969 -16.469 z" style="opacity:0.1"/>
 </g>
 <g>
  <path d="m 23.19 13 a 11.03 11.03 0 0 0 -4.04 1.099 l 0.029 1.6 -1.371 -0.819 a 11.03 11.03 0 0 0 -2.962 2.965 l 0.827 1.373 -1.592 -0.024 a 11.03 11.03 0 0 0 -1.079 4.054 L 14.402 24.02 13 24.805 a 11.03 11.03 0 0 0 1.099 4.04 l 1.6 -0.029 -0.819 1.371 a 11.03 11.03 0 0 0 2.965 2.962 l 1.373 -0.827 -0.024 1.592 a 11.03 11.03 0 0 0 4.054 1.079 L 24.02 33.598 24.805 35 a 11.03 11.03 0 0 0 4.04 -1.099 l -0.029 -1.6 1.371 0.819 a 11.03 11.03 0 0 0 2.962 -2.965 l -0.827 -1.373 1.592 0.024 a 11.03 11.03 0 0 0 1.079 -4.054 L 33.598 23.978 35 23.19 A 11.03 11.03 0 0 0 33.901 19.15 l -1.6 0.029 0.819 -1.371 a 11.03 11.03 0 0 0 -2.965 -2.962 l -1.373 0.827 0.024 -1.592 a 11.03 11.03 0 0 0 -4.054 -1.079 l -0.772 1.397 -0.783 -1.402 z" style="fill:url(#radialGradient4275);fill-opacity:1;stroke:none;fill-rule:evenodd"/>
  <circle r="7" cy="24" cx="24" style="fill:url(#radialGradient4267);fill-opacity:1;stroke:none"/>
  <g transform="matrix(1.0399999,0,0,1.0134828,0.07187756,-0.78901944)">
   <g>
    <path transform="matrix(0.96153855,0,0,0.98669657,-0.06911305,0.77852277)" d="m 31.611 16.04 l -15.467 15.457 l -1.148 -1.15 a 11.03 11.03 0 0 0 2.85 2.807 l 1.373 -0.826 l -0.012 0.84 l 14 -13.996 l -0.908 0.018 l 0.818 -1.371 a 11.03 11.03 0 0 0 -1.508 -1.777 z" style="fill:#000;fill-opacity:0.098;stroke:none"/>
    <path d="m 35.508 11.647 -0.671 3.02 -18.434 18.905 -2.272 -2.336 18.434 -18.905 2.943 -0.686 -19.897 20.406" style="fill:#909090;fill-opacity:1;stroke:none"/>
    <path d="m 15.539 32.05 19.921 -20.421 -2.883 0.68 -18.17 18.638" style="fill:#b8b8b8;fill-opacity:1;stroke:none"/>
   </g>
   <rect transform="matrix(0.6973088,0.71677084,-0.69817875,0.71592349,0,0)" y="11.165" x="32.752" height="6.902" width="1.629" rx="0.697" style="fill:#784421;stroke:none"/>
   <path d="m 12.975 29.3 -0.643 0.625 5.324 5.473 0.643 -0.625 z" mix-blend-mode="normal" isolation="auto" white-space="normal" solid-opacity="1" solid-color="#000000" style="visibility:visible;shape-rendering:auto;color-interpolation-filters:linearRGB;fill:#5e351a;opacity:1;image-rendering:auto;fill-opacity:1;stroke:none;display:inline;color:#000;fill-rule:nonzero;color-rendering:auto;color-interpolation:sRGB"/>
  </g>
 </g>
</svg>
