<svg version="1.1" viewBox="0 0 48 48" xmlns="http://www.w3.org/2000/svg" xmlns:xlink="http://www.w3.org/1999/xlink">
 <defs>
  <linearGradient id="bg" x1="1" x2="47" gradientTransform="matrix(0 -1 1 0 -1.5e-6 48)" gradientUnits="userSpaceOnUse">
   <stop style="stop-color:#71d2db" offset="0"/>
   <stop style="stop-color:#81d8df" offset="1"/>
  </linearGradient>
 </defs>
 <path d="m36.31 5c5.859 4.062 9.688 10.831 9.688 18.5 0 12.426-10.07 22.5-22.5 22.5-7.669 0-14.438-3.828-18.5-9.688 1.037 1.822 2.306 3.499 3.781 4.969 4.085 3.712 9.514 5.969 15.469 5.969 12.703 0 23-10.298 23-23 0-5.954-2.256-11.384-5.969-15.469-1.469-1.475-3.147-2.744-4.969-3.781zm4.969 3.781c3.854 4.113 6.219 9.637 6.219 15.719 0 12.703-10.297 23-23 23-6.081 0-11.606-2.364-15.719-6.219 4.16 4.144 9.883 6.719 16.219 6.719 12.703 0 23-10.298 23-23 0-6.335-2.575-12.06-6.719-16.219z" style="opacity:.05"/>
 <path d="m41.28 8.781c3.712 4.085 5.969 9.514 5.969 15.469 0 12.703-10.297 23-23 23-5.954 0-11.384-2.256-15.469-5.969 4.113 3.854 9.637 6.219 15.719 6.219 12.703 0 23-10.298 23-23 0-6.081-2.364-11.606-6.219-15.719z" style="opacity:.1"/>
 <path d="m31.25 2.375c8.615 3.154 14.75 11.417 14.75 21.13 0 12.426-10.07 22.5-22.5 22.5-9.708 0-17.971-6.135-21.12-14.75a23 23 0 0 0 44.875-7 23 23 0 0 0-16-21.875z" style="opacity:.2"/>
 <path d="m24 1c12.703 0 23 10.297 23 23s-10.297 23-23 23-23-10.297-23-23 10.297-23 23-23z" style="fill:url(#bg)"/>
 <path d="m40.03 7.531c3.712 4.084 5.969 9.514 5.969 15.469 0 12.703-10.297 23-23 23-5.954 0-11.384-2.256-15.469-5.969 4.178 4.291 10.01 6.969 16.469 6.969 12.703 0 23-10.298 23-23 0-6.462-2.677-12.291-6.969-16.469z" style="opacity:.1"/>
 <g transform="translate(1,1)">
  <g style="opacity:.1">
   <path transform="translate(-1,-1)" d="m17.875 12c-0.492 0-0.875 0.383-0.875 0.875v5.125h-3.2266c-0.98 0-1.7734 0.79344-1.7734 1.7734v12.453c0 0.98 0.79344 1.7715 1.7734 1.7715h3.2246v3.1152c0 0.492 0.39667 0.88672 0.88867 0.88672h14.227c0.492 0 0.88672-0.39472 0.88672-0.88672v-3.1152h3.2266c0.98 0 1.7715-0.79148 1.7715-1.7715v-12.453c0-0.98-0.79148-1.7734-1.7715-1.7734h-3.2266v-3l-3-3h-12.125z"/>
   <use width="48" height="48" xlink:href="#SVGCleanerId_0"/>
  </g>
 </g>
 <path d="m12.773 17h22.453c0.98 0 1.773 0.793 1.773 1.773v12.453c0 0.98-0.793 1.773-1.773 1.773h-22.453c-0.98 0-1.773-0.793-1.773-1.773v-12.453c0-0.98 0.793-1.773 1.773-1.773" style="fill:#515462"/>
 <path d="m11 25v6.219c0 0.98 0.801 1.781 1.781 1.781h22.438c0.98 0 1.781-0.801 1.781-1.781v-6.219" style="fill:#212c3c"/>
 <path d="m15 20h18v2h-18" style="fill:#212c3c"/>
 <path d="m16.875 11c-0.492 0-0.875 0.383-0.875 0.875v9.125h16v-7l-3-3" style="fill:#ececde"/>
 <path d="m15 28h18v2h-18" style="fill:#515462"/>
 <path d="m32 29v7.113c0 0.492-0.395 0.887-0.887 0.887h-14.227c-0.492 0-0.887-0.395-0.887-0.887v-7.113" style="fill:#ececde"/>
 <path d="m29 11v3h3" style="fill:#fff"/>
 <path id="SVGCleanerId_0" d="m29 14h3v3" style="fill-opacity:.2"/>
 <path d="m19 13h9v1h-9" style="fill-opacity:.702;fill:#696e78"/>
 <path d="m19 15h9v1h-9" style="fill-opacity:.702;fill:#696e78"/>
 <path d="m19 17h9v1h-9" style="fill-opacity:.702;fill:#696e78"/>
 <path d="m19 19h6v1h-6" style="fill-opacity:.702;fill:#696e78"/>
 <path d="m16.2 25.933c1.244 2.489 3.378 4.533 5.867 5.867l1.956-1.956c0.267-0.267 0.622-0.356 0.889-0.178 0.978 0.356 2.044 0.533 3.2 0.533 0.533 0 0.889 0.356 0.889 0.889v3.02c0 0.533-0.356 0.889-0.889 0.889-8.356 0-15.11-6.756-15.11-15.11 0-0.533 0.356-0.889 0.889-0.889h3.111c0.533 0 0.889 0.356 0.889 0.889 0 1.067 0.178 2.133 0.533 3.2 0.089 0.267 0 0.622-0.178 0.889l-2.044 1.956z" style="opacity:.1"/>
 <path d="m15.2 24.933c1.244 2.489 3.378 4.533 5.867 5.867l1.956-1.956c0.267-0.267 0.622-0.356 0.889-0.178 0.978 0.356 2.044 0.533 3.2 0.533 0.533 0 0.889 0.356 0.889 0.889v3.02c0 0.533-0.356 0.889-0.889 0.889-8.356 0-15.11-6.756-15.11-15.11 0-0.533 0.356-0.889 0.889-0.889h3.111c0.533 0 0.889 0.356 0.889 0.889 0 1.067 0.178 2.133 0.533 3.2 0.089 0.267 0 0.622-0.178 0.889l-2.044 1.956z" style="fill:#e37a5d"/>
</svg>
