<svg version="1.1" viewBox="0 0 48 48" xmlns="http://www.w3.org/2000/svg">
 <defs>
  <linearGradient id="bg" x1="1" x2="47" gradientTransform="matrix(0 -1 1 0 -1.5e-6 48)" gradientUnits="userSpaceOnUse">
   <stop style="stop-color:#eac146" offset="0"/>
   <stop style="stop-color:#ecc758" offset="1"/>
  </linearGradient>
 </defs>
 <path d="m36.31 5c5.859 4.062 9.688 10.831 9.688 18.5 0 12.426-10.07 22.5-22.5 22.5-7.669 0-14.438-3.828-18.5-9.688 1.037 1.822 2.306 3.499 3.781 4.969 4.085 3.712 9.514 5.969 15.469 5.969 12.703 0 23-10.298 23-23 0-5.954-2.256-11.384-5.969-15.469-1.469-1.475-3.147-2.744-4.969-3.781zm4.969 3.781c3.854 4.113 6.219 9.637 6.219 15.719 0 12.703-10.297 23-23 23-6.081 0-11.606-2.364-15.719-6.219 4.16 4.144 9.883 6.719 16.219 6.719 12.703 0 23-10.298 23-23 0-6.335-2.575-12.06-6.719-16.219z" style="opacity:.05"/>
 <path d="m41.28 8.781c3.712 4.085 5.969 9.514 5.969 15.469 0 12.703-10.297 23-23 23-5.954 0-11.384-2.256-15.469-5.969 4.113 3.854 9.637 6.219 15.719 6.219 12.703 0 23-10.298 23-23 0-6.081-2.364-11.606-6.219-15.719z" style="opacity:.1"/>
 <path d="m31.25 2.375c8.615 3.154 14.75 11.417 14.75 21.13 0 12.426-10.07 22.5-22.5 22.5-9.708 0-17.971-6.135-21.12-14.75a23 23 0 0 0 44.875-7 23 23 0 0 0-16-21.875z" style="opacity:.2"/>
 <path d="m24 1c12.703 0 23 10.297 23 23s-10.297 23-23 23-23-10.297-23-23 10.297-23 23-23z" style="fill:url(#bg)"/>
 <path d="m40.03 7.531c3.712 4.084 5.969 9.514 5.969 15.469 0 12.703-10.297 23-23 23-5.954 0-11.384-2.256-15.469-5.969 4.178 4.291 10.01 6.969 16.469 6.969 12.703 0 23-10.298 23-23 0-6.462-2.677-12.291-6.969-16.469z" style="opacity:.1"/>
 <path d="m34.85 9.0059a2 2 0 0 0-1.8496 1.9941 2 2 0 0 0 4 0 2 2 0 0 0-2.1504-1.9941zm-10.746 5.0273a12 12 0 0 0-11.104 11.967 12 12 0 0 0 24 0 12 12 0 0 0-12.896-11.967z" style="opacity:.1"/>
 <path d="m36 24a12 12 0 1 1-24 0 12 12 0 1 1 24 0z" style="fill:#e0e8eb"/>
 <path d="m33 24a9 9 0 1 1-18 0 9 9 0 1 1 18 0z" style="fill:#503f6a"/>
 <path d="m31 24a7 7 0 1 1-14 0 7 7 0 1 1 14 0z" style="fill:#4ba8db"/>
 <path d="m21.85 20.006a2 2 0 0 0-1.8496 1.9941 2 2 0 0 0 4 0 2 2 0 0 0-2.1504-1.9941zm4.0762 4.9961a1 1 0 0 0-0.92578 0.99805 1 1 0 0 0 2 0 1 1 0 0 0-1.0742-0.99805z" style="fill:#0cf"/>
 <path d="m23.999 17c-3.8657 0-7.0016 3.1323-7.0016 7.0016 0 2.1756 1.0063 4.1209 2.5618 5.4071l9.4075-10.343c-1.2685-1.2933-3.0118-2.0657-4.9677-2.0657z" style="opacity:.15"/>
 <path d="m36 10a2 2 0 1 1-4 0 2 2 0 1 1 4 0" style="fill:#eb5523"/>
</svg>
