<svg xmlns="http://www.w3.org/2000/svg" viewBox="0 0 48 48">
 <defs>
  <linearGradient id="linearGradient3764" x1="1" x2="47" gradientUnits="userSpaceOnUse" gradientTransform="matrix(0,-1,1,0,-1.5e-6,47.999998)">
   <stop style="stop-color:#eac146;stop-opacity:1"/>
   <stop offset="1" style="stop-color:#ecc758;stop-opacity:1"/>
  </linearGradient>
 </defs>
 <g>
  <path d="m 36.31 5 c 5.859 4.062 9.688 10.831 9.688 18.5 c 0 12.426 -10.07 22.5 -22.5 22.5 c -7.669 0 -14.438 -3.828 -18.5 -9.688 c 1.037 1.822 2.306 3.499 3.781 4.969 c 4.085 3.712 9.514 5.969 15.469 5.969 c 12.703 0 23 -10.298 23 -23 c 0 -5.954 -2.256 -11.384 -5.969 -15.469 c -1.469 -1.475 -3.147 -2.744 -4.969 -3.781 z m 4.969 3.781 c 3.854 4.113 6.219 9.637 6.219 15.719 c 0 12.703 -10.297 23 -23 23 c -6.081 0 -11.606 -2.364 -15.719 -6.219 c 4.16 4.144 9.883 6.719 16.219 6.719 c 12.703 0 23 -10.298 23 -23 c 0 -6.335 -2.575 -12.06 -6.719 -16.219 z" style="opacity:0.05"/>
  <path d="m 41.28 8.781 c 3.712 4.085 5.969 9.514 5.969 15.469 c 0 12.703 -10.297 23 -23 23 c -5.954 0 -11.384 -2.256 -15.469 -5.969 c 4.113 3.854 9.637 6.219 15.719 6.219 c 12.703 0 23 -10.298 23 -23 c 0 -6.081 -2.364 -11.606 -6.219 -15.719 z" style="opacity:0.1"/>
  <path d="m 31.25 2.375 c 8.615 3.154 14.75 11.417 14.75 21.13 c 0 12.426 -10.07 22.5 -22.5 22.5 c -9.708 0 -17.971 -6.135 -21.12 -14.75 a 23 23 0 0 0 44.875 -7 a 23 23 0 0 0 -16 -21.875 z" style="opacity:0.2"/>
 </g>
 <g>
  <path d="m 24 1 c 12.703 0 23 10.297 23 23 c 0 12.703 -10.297 23 -23 23 -12.703 0 -23 -10.297 -23 -23 0 -12.703 10.297 -23 23 -23 z" style="fill:url(#linearGradient3764);fill-opacity:1"/>
 </g>
 <g>
  <path d="m 40.03 7.531 c 3.712 4.084 5.969 9.514 5.969 15.469 0 12.703 -10.297 23 -23 23 c -5.954 0 -11.384 -2.256 -15.469 -5.969 4.178 4.291 10.01 6.969 16.469 6.969 c 12.703 0 23 -10.298 23 -23 0 -6.462 -2.677 -12.291 -6.969 -16.469 z" style="opacity:0.1"/>
 </g>
 <g transform="scale(3.543307,3.543307)">
  <path transform="matrix(0.28222223,0,0,0.29449277,-1.0833333e-8,0.11043445)" d="m 37 25.5 a 12 11.5 0 1 1 -24 0 12 11.5 0 1 1 24 0 z" style="fill:#000;opacity:0.1;fill-opacity:1;stroke:none"/>
  <path d="m 37 25.5 a 12 11.5 0 1 1 -24 0 12 11.5 0 1 1 24 0 z" transform="matrix(0.28222223,0,0,0.29449277,-0.28222224,-0.45401003)" style="fill:#d2dde1;fill-opacity:1;stroke:none"/>
  <path d="m 37 25.5 a 12 11.5 0 1 1 -24 0 12 11.5 0 1 1 24 0 z" transform="matrix(0.21166667,0,0,0.22086958,1.4816667,1.4233809)" style="fill:#493762;fill-opacity:1;stroke:none"/>
  <path d="m 37 25.5 a 12 11.5 0 1 1 -24 0 12 11.5 0 1 1 24 0 z" transform="matrix(0.16462963,0,0,0.17178744,2.6575927,2.6749757)" style="fill:#4ba8db;fill-opacity:1;stroke:none"/>
  <path d="m 22 24.5 a 1 1.5 0 1 1 -2 0 1 1.5 0 1 1 2 0 z" transform="matrix(0.42333334,0,0,0.28222223,-2.6811112,-0.28222223)" style="fill:#0cf;fill-opacity:1;stroke:none"/>
  <path d="m 22 24.5 a 1 1.5 0 1 1 -2 0 1 1.5 0 1 1 2 0 z" transform="matrix(0.28222223,0,0,0.18814815,1.4111111,3.0103706)" style="fill:#0cf;fill-opacity:1;stroke:none"/>
  <path d="m 6.773,5.08 c -1.091,0 -1.976,0.884 -1.976,1.976 0,0.614 0.284,1.163 0.723,1.526 L 8.175,5.663 C 7.817,5.298 7.325,5.08 6.773,5.08 Z" style="fill:#000;opacity:0.15;fill-opacity:1;stroke:none"/>
  <path transform="matrix(0.28222223,0,0,0.28222223,7.337778,0.56444446)" d="M 11 9 A 2 2 0 1 1 7 9 2 2 0 1 1 11 9" style="fill:#000;opacity:0.1;fill-opacity:1;stroke:none"/>
  <path d="M 11 9 A 2 2 0 1 1 7 9 2 2 0 1 1 11 9" transform="matrix(0.28222223,0,0,0.28222223,7.0556113,0.28222226)" style="fill:#eb5523;fill-opacity:1;stroke:none"/>
  <path d="m 9.596,2.258 c -0.312,0 -0.565,0.253 -0.565,0.564 0,0.049 10e-4,0.096 0.018,0.141 C 9.112,2.72 9.333,2.54 9.596,2.54 c 0.263,0 0.484,0.18 0.547,0.423 0.012,-0.045 0.018,-0.092 0.018,-0.141 0,-0.312 -0.253,-0.564 -0.564,-0.564 z" style="fill:#000;opacity:0.15;fill-opacity:1;stroke:none"/>
 </g>
</svg>
