<svg version="1.1" viewBox="0 0 48 48" xmlns="http://www.w3.org/2000/svg">
 <defs>
  <linearGradient id="bg" x2="0" y1="47" y2="1" gradientUnits="userSpaceOnUse">
   <stop style="stop-color:#4450b0" offset="0"/>
   <stop style="stop-color:#4e5aba" offset="1"/>
  </linearGradient>
 </defs>
 <path d="m36.31 5c5.859 4.062 9.688 10.831 9.688 18.5 0 12.426-10.07 22.5-22.5 22.5-7.669 0-14.438-3.828-18.5-9.688 1.037 1.822 2.306 3.499 3.781 4.969 4.085 3.712 9.514 5.969 15.469 5.969 12.703 0 23-10.298 23-23 0-5.954-2.256-11.384-5.969-15.469-1.469-1.475-3.147-2.744-4.969-3.781zm4.969 3.781c3.854 4.113 6.219 9.637 6.219 15.719 0 12.703-10.297 23-23 23-6.081 0-11.606-2.364-15.719-6.219 4.16 4.144 9.883 6.719 16.219 6.719 12.703 0 23-10.298 23-23 0-6.335-2.575-12.06-6.719-16.219z" style="opacity:.05"/>
 <path d="m41.28 8.781c3.712 4.085 5.969 9.514 5.969 15.469 0 12.703-10.297 23-23 23-5.954 0-11.384-2.256-15.469-5.969 4.113 3.854 9.637 6.219 15.719 6.219 12.703 0 23-10.298 23-23 0-6.081-2.364-11.606-6.219-15.719z" style="opacity:.1"/>
 <path d="m31.25 2.375c8.615 3.154 14.75 11.417 14.75 21.13 0 12.426-10.07 22.5-22.5 22.5-9.708 0-17.971-6.135-21.12-14.75a23 23 0 0 0 44.875-7 23 23 0 0 0-16-21.875z" style="opacity:.2"/>
 <g style="fill-opacity:.953;fill:#4450b0">
  <path d="m24 1c-2.27 0-4.462 0.334-6.533 0.947 1.534 1.053-1.25 2.02-3.205 1.215-7.833 3.667-13.262 11.617-13.262 20.838 0 7.505 3.595 14.169 9.156 18.367 5.844 2.633 21.844 2.633 29.684-1.699 2.366-2.249 4.253-4.995 5.494-8.07v-2e-3c0.234-1.595 0.667-3.594 1.23-4.15h2e-3c0.282-1.438 0.434-2.923 0.434-4.443 0-0.118-6e-3 -0.234-8e-3 -0.352h-2e-3c-0.992-0.649-0.556-1.182-0.154-2.348-0.185-1.577-0.527-3.105-1.014-4.568-1.826-0.738-7.823-7.734-11.1-13.08-3.203-1.692-6.85-2.654-10.725-2.654z" style="fill-opacity:1;fill:url(#bg)"/>
  <path d="m17 2.906-0.84 0.25-0.969 0.066-0.598 0.434-0.777-0.031 0.063 0.5 1.125-0.031 0.406 1.094 0.156 0.598-0.625 0.346-0.25 0.465 0.188 1.063 0.75 0.125 0.719-0.688 0.625-0.656 0.969-0.25 1.219-0.594 0.721-0.875 1.029-1.254 0.721-0.189-0.031-0.275h-1.125l-3.469-0.096zm9.969 0.48c-0.055 0.02-1.531 0.023-1.531 0.023l-0.375 0.098 0.5 0.598 0.531-0.5 0.344 0.219 0.5-0.25s0.09-0.211 0.031-0.188zm6 0.461-0.379 4e-3 -0.465 0.063-0.41 0.25-0.465 0.35-0.281 0.5 0.438 0.438 0.375 0.031 0.156-0.254-0.375-0.314 0.219-0.188 0.031-0.152 0.469-0.313h0.652l0.191-0.191zm3.102 0.578-0.264 0.176-5.451 1.717-5.37 3.062h-0.219l0.031-0.227 0.156-0.25-0.281-0.223s-0.188 0.23-0.191 0.281c-8e-3 0.055 0.125 0.279 0.125 0.279l-0.094 0.221-0.316 0.125-0.434-0.221-0.156 0.064 0.225 0.281-1.382 1.722 0.156 0.223 0.094 0.219-0.188 0.25h-0.098l-0.656 0.125-0.121-0.281-0.439 0.438-0.188 0.721v0.598l0.75 0.406 0.598-0.221 0.594-1.064 0.531-0.652 0.969-0.156 0.221-0.188 1.094 1.281 0.125 0.438 0.316-0.156-0.1-0.375h0.191l-0.121-0.254-1.066-1 0.096-0.188 0.344-0.031 0.75 0.75 0.379 0.441v0.688l0.188 0.125 0.375 0.375 0.277-0.094-0.152-0.566 0.094-0.344 0.188-0.219 0.439 0.156 0.154 0.063-0.029-0.5 0.25-0.469 0.154-0.689 0.564 0.096 0.094 0.313 0.219 0.156 0.25-0.219-0.156-0.346h0.656l-0.219 0.375 0.438 0.375 0.375 0.189 0.219 0.438-0.5 0.121-0.719-0.156h-0.625l-0.594 0.316-0.125 0.188-0.434 0.094 0.188 0.469 0.344 0.406 0.621-0.219 0.156 0.277 0.281-0.219 0.375 0.063 0.031 0.41-0.125 0.777-0.344-0.031-0.406-0.063-0.189 0.465-1.375-0.25-0.25-0.316-0.313 0.281-0.344 0.469-0.875-0.5-0.875-0.527v-0.941l-0.566 0.031-4.469 2.843-0.119 0.16-1.811-1.811-7 7h4v3.406l-0.184-0.111-0.465-0.566-0.844 0.066-1.35-0.781-0.275-0.656s-0.473-0.809-0.566-0.809c-0.09 0-0.656 0.029-0.656 0.029l-0.527-0.529-0.348-0.656-1.344-0.281-0.434-0.219h-0.875l-2e-3 8e-3 -0.813 0.441-0.094 0.9-0.189 1-0.563 0.75 0.027 1.121 0.473 1.156 0.5 1.406 1.313 1.313 0.842 7.226 0.379 0.902 0.875 1.375 1.219 0.531-0.5-0.598-0.254-0.689 0.254-0.719-0.656-0.344s0.438-0.285 0.5-0.375c0.066-0.09-0.094-0.469-0.094-0.469l-0.188-0.469 0.5-0.652 0.781-0.191 0.121-0.598-0.465-0.219 0.188-0.5 0.75-0.09 0.656-1.598 0.469-1.094 0.965-0.471s0.313-0.928 0.313-1.064c0-0.129 0.094-1.531 0.094-1.531l0.467-0.639v5.285h6v-9.184l0.242 0.053 0.096-0.375h1.563l0.406-0.188 0.5 0.063 0.156 0.313 0.529 0.031 0.346 0.25 1.662 9.253 0.066 0.594 0.09 0.688 0.344-0.344 0.875-0.09h0.189l3.938 3.937 7-7h-4v-10h-1.963l0.035-0.033 0.605-0.156 0.434-0.531 0.594-0.344 0.344-0.594 0.035-0.5-0.281-0.316-0.375-0.438-0.254 0.154-0.152 0.254-0.41-0.188-0.125-0.313-0.275-0.41-0.439-0.406v-0.813l0.281 0.531 0.344 0.535 0.594 0.344 0.41-0.094 0.25 0.281 1.781-0.035-0.031 0.035 0.564 0.5 0.408 0.563 0.121 0.277h0.281l0.094-0.311 0.092 0.467 0.154 0.844 0.346 0.813 0.188 0.688 0.281 0.656 0.219 0.277 0.313-0.188 0.09-0.314 0.125-0.775-0.031-0.689 0.25-0.316s0.266-0.359 0.313-0.375c0.051-0.012 0.625-0.65 0.625-0.65l0.281-0.35 0.314-0.188 0.383-0.219h0.145l0.066 0.344 0.156 0.406 0.5 0.652v0.25l0.09 0.281 0.344-0.156-0.031-0.375 0.316 0.066 0.063 0.344-0.027 0.531 0.094 0.375 0.277 0.064 0.094-0.314 0.344 0.219 0.064 0.316 0.313 0.469 0.313 0.344 0.219 0.191 0.531-0.469 0.219-0.441-0.09-0.5-0.094-0.656-0.594-0.563-0.094-0.566 0.254-0.398s0.156-0.32 0.309-0.156c0.152 0.168 0.227 0.188 0.156 0.375-0.066 0.184-0.188 0.598-0.188 0.598l0.375 0.156 0.156-0.531-0.156-0.379 0.281-0.115c-1.534-5.726-10.141-13.609-10.141-13.609m-5.719 1.893-1.197 0.643-0.313-0.223-0.152-0.25 0.063-0.254 0.691 0.035 0.313-0.125-0.625-0.314-0.875-0.314-0.875-0.156-0.938 0.191-0.969 0.779-0.439 0.439-0.65 0.719-0.258 0.031-0.092 0.344 0.121 0.344s0.137 0.156 0.156 0.156c0.02 0 0.254-0.125 0.254-0.125s0.023-0.117 0.156-0.156c0.129-0.039 0.25-0.063 0.25-0.063l1.188 0.09 0.066-0.156-0.191-0.219-0.15-0.063 0.063-0.316 0.121-0.094 0.191-0.189 0.223-0.275 0.156-0.189 0.219-0.156 0.25 0.189v0.125l-0.219 0.25-0.066 0.25v0.344l0.191 0.156 0.344-0.031 0.313-0.063 0.277 0.154-0.063 0.221-0.258 0.219-0.492-0.031zm0 0h4e-3l0.016-0.012zm0.02-0.012-4e-3 6e-3 3.093-1.352-1.03 0.81-1.223 0.25-0.809 0.281zm-19.16-1.426c-0.174 0.117-0.345 0.238-0.516 0.359l0.154 0.34 0.566-0.064 0.25 0.469-0.5 0.531-0.564 0.063 0.5 0.223 0.531 0.465 0.527 0.125 0.191-0.719 0.031-0.438 0.625 0.094s-0.193 0.313-0.1 0.313c0.102 0 0.475-0.406 0.475-0.406l-1.066-1.098s-0.438-0.344-0.563-0.25c-0.133 0.09-0.475 0.063-0.475 0.063zm-0.678 0.791-0.438 0.5-0.283-0.271c-0.42 0.33-0.831 0.67-1.227 1.027 0.363 0.099 0.805 0.275 0.885 0.217 0.129-0.094 0.625-0.875 0.625-0.875zm9.09 0.727-0.125 0.406c0.449 0.348 0.625 0.344 0.625 0.344l0.527-0.125 0.348-0.344-0.223-0.281zm-8.871 0.773s-0.43 0.25-0.844 0.406-0.313 0.469-0.313 0.469l-0.031 0.844-0.688 0.563-0.439 0.656s-0.275-0.188-0.275-0.313-0.066-0.469-0.066-0.469l-0.719-0.563s-0.185-0.141-0.355-0.287c-2.083 2.276-3.711 4.974-4.748 7.949l0.541-0.375 0.564-0.191h0.813l1.121-0.25 0.41 0.531-0.066 0.625 0.469 0.406 0.066-0.441s-0.031-0.719-0.094-0.906c-0.063-0.188 0.562-0.625 0.563-0.625l0.5-0.613 0.594-0.727 0.281-0.563 0.941-0.496 0.621-0.691s0.938-0.148 1.125-0.254c0.191-0.09 0.066-0.434-0.125-0.75-0.191-0.313 0.094-0.625 0.094-0.625l0.719-0.434 0.621 0.121 0.066 0.754s0.586 0.563 0.777 0.465c0.191-0.09 0.279-0.406 0.279-0.406l-0.313-0.813 0.188-0.811-0.844 0.121v-1.375l-0.25 0.254-0.656 0.031-0.094-0.688zm11.648 1.01-0.25 0.219c-0.063 0.305-0.152 0.621-0.152 0.621l0.473 0.223 0.064 0.277-0.256 0.254-0.219 0.375 0.156 0.156 0.788-0.688-0.094-0.656-0.346-0.375zm-0.77 1.184-0.281 0.469 0.375 0.156 0.156-0.281zm-15.445 1.092 4e-3 6e-3 0.656 0.277 0.439 0.566 0.275 0.434s-0.245 0.844-0.313 1c-0.066 0.156-0.258-0.313-0.258-0.313l-0.148-0.814-0.531 0.225-0.406 0.965 0.092-0.811 0.125-0.564-0.656-0.25 0.564-0.531zm26.383 0.756c0.133-0.043 0.375 0.154 0.375 0.154l-0.254 0.221 0.096 0.313 0.279 0.75 0.277 0.469 0.379 0.594-0.41 0.191-0.531-0.344-0.219-0.656s-0.299-0.406-0.439-0.469c-0.133-0.066-0.25-0.281-0.25-0.281l0.125-0.531s0.428-0.359 0.564-0.406zm-7.904 1.188-0.375 0.719 0.275 0.281 0.254-0.223 0.031-0.309zm-1.254 0.75v0.188l0.154-0.031zm2.154 0.469-0.188 0.064 0.313 0.531 0.281-0.221zm4.402 2.621 1.535 2.907 0.438 0.723 0.131 0.133h-0.57l-0.066-0.131-0.656-0.5-0.154-0.813-0.281-0.475-0.311-0.594-0.408-0.719-0.092-0.469zm-27.854 0.664c-0.27 0.834-0.497 1.688-0.672 2.561l0.441 0.244 0.5-0.066 0.719 0.344 1.094 0.598 0.156 0.725 0.875 0.84 0.5-0.375 0.406 0.316-0.063-0.725-0.781 0.191-0.25-0.906-0.094-0.41-0.691-0.621v-0.438l0.531-0.566-0.344-0.4-0.563 0.09-0.844 0.844-0.689-0.09s-0.313-0.531-0.375-0.656c-0.063-0.125 0.189-0.563 0.189-0.563zm3.326 0.9v4e-3l-0.313 0.156 0.527 0.279 0.602 0.121 0.344 0.469 0.406-0.25-0.066-0.279-0.688-0.5zm38.12 3.586c0.113 0.129 0.816 2.219 0.91 2.219 0.086 0 0.621 0.066 0.621 0.066l-0.281-0.846zm-3.59 0.064-0.314 0.406 0.156 0.598 0.344-0.375-0.064-0.473zm3.5 1.156-0.439 0.064 2 3 0.531 0.594 1.311 0.064 4e-3 2e-3c0.01-0.102 0.015-0.205 0.023-0.307l-0.09-0.064-1.25-0.35-0.313-1.15-0.689-0.566-1.094-1.281zm3.492 0.172-0.371 0.205c0 0.09-0.719 0.688-0.719 0.688l0.188 0.625 0.406 0.465 0.281 0.691 0.207-0.135c0.025-0.437 0.039-0.877 0.039-1.32 0-0.409-0.01-0.815-0.031-1.219zm-34.473 14.172 2e-3 4e-3 4e-3 -4e-3zm2e-3 4e-3 -0.217 0.148-0.094 0.031 0.5 0.25zm-0.85 0.18 2e-3 4e-3 2e-3 -4e-3zm2e-3 4e-3 -0.217 0.496 0.434-0.094zm1.502 4.121-0.469 0.719-0.875 0.406 0.5 0.625-0.711 0.354c3.579 2.297 7.833 3.635 12.402 3.635 5.555 0 10.65-1.97 14.625-5.248l-0.412 0.016-3.064 0.621s-1.477 0.793-1.656 0.754c-0.18-0.043 0.625-1.031 0.625-1.031l-1.438 0.094-0.906-0.75-0.906 0.617s-1.213 0.098-1.525 0.098c-0.316 0-0.725 0.563-0.725 0.563l-2.469-0.09-4.25 0.188-1.121 0.967-0.275 0.033-3.225-0.223-2.219 0.223-0.777-0.379 0.031-0.063s-0.656-1.32-0.656-1.5c0-0.176-0.5-0.621-0.5-0.621z" style="fill-opacity:1;fill:#000;opacity:.1"/>
  <path d="m17.467 1.947c-1.176 0.348-2.315 0.782-3.404 1.305l0.348 0.936 0.156 0.598-0.625 0.346-0.25 0.465 0.188 1.063 0.75 0.125 0.719-0.688 0.625-0.656 0.969-0.25 1.219-0.594 0.721-0.875 1.029-1.254 0.721-0.189-0.031-0.275h-1.125l-2.01-0.055zm8.502 0.439c-0.055 0.02-1.531 0.023-1.531 0.023l-0.375 0.098 0.5 0.598 0.531-0.5 0.344 0.219 0.5-0.25s0.09-0.211 0.031-0.188zm6 0.461-0.379 4e-3 -0.465 0.063-0.41 0.25-0.465 0.35-0.281 0.5 0.438 0.438 0.375 0.031 0.156-0.254-0.375-0.314 0.219-0.188 0.031-0.152 0.469-0.313s0.609 8e-3 0.652 0c0.047-0.012 0.191-0.191 0.191-0.191l-0.156-0.223zm2.752 0.807-0.535 0.322-0.531 0.438 0.064 0.189-0.281 0.031v4e-3l-4.082 0.68 0.016-0.012-1.217 0.654-0.313-0.223-0.152-0.25 0.063-0.254 0.691 0.035 0.313-0.125-0.625-0.314-0.875-0.314-0.875-0.156-0.938 0.191-0.969 0.779-0.439 0.439-0.65 0.719-0.258 0.031-0.092 0.344 0.121 0.344s0.137 0.156 0.156 0.156c0.02 0 0.254-0.125 0.254-0.125s0.023-0.117 0.156-0.156c0.129-0.039 0.25-0.063 0.25-0.063l0.188 0.375 0.225 0.313 0.094 0.25s0.363-0.223 0.375-0.25c0.012-0.031 0.031-0.41 0.031-0.41l0.275-0.188s0.074-0.133 0.066-0.156c-8e-3 -0.02-0.191-0.219-0.191-0.219l-0.15-0.063 0.063-0.316s0.121-0.051 0.121-0.094c0-0.039 0.191-0.189 0.191-0.189l0.223-0.275 0.156-0.189 0.219-0.156 0.25 0.189v0.125l-0.219 0.25-0.066 0.25v0.344l0.191 0.156 0.344-0.031 0.313-0.063 0.277 0.154-0.063 0.221s-0.195 0.188-0.258 0.219c-0.055 0.031-0.406-0.063-0.492-0.031-0.094 0.031-0.316 0.316-0.316 0.316s-0.027 0.249 0 0.313c8e-3 0.022-4e-3 0.068-0.016 0.123l-0.029 0.023-0.375 0.279h-0.031l-0.254-0.094s-0.152 8e-3 -0.219 0.066c-0.063 0.051-0.12 0.102-0.313 0.121-0.191 0.02-0.565 0-0.596 0h-0.219l0.031-0.227 0.156-0.25-0.281-0.223s-0.188 0.23-0.191 0.281c-8e-3 0.055 0.125 0.279 0.125 0.279s-0.063 0.182-0.094 0.221-0.316 0.125-0.316 0.125l-0.434-0.221s-0.18-0.038-0.156 0.064c0.023 0.102 0.225 0.195 0.225 0.281 0 0.082-0.125 0.275-0.125 0.275l-0.152 0.189-0.254 0.254-0.344 0.09s-0.246 0.07-0.316 0.094c-0.063 0.023-0.25 0.066-0.25 0.066l-0.254 0.031-0.152 0.223 0.277 0.191 0.188 0.309s0.125 0.223 0.156 0.223 0.094 0.219 0.094 0.219l-0.188 0.25h-0.098l-0.656 0.125-0.121-0.281-0.439 0.438-0.188 0.721v0.598l0.75 0.406 0.598-0.221 0.594-1.064 0.531-0.652 0.969-0.156 0.221-0.188 1.094 1.281 0.125 0.438 0.316-0.156-0.1-0.375h0.191l-0.121-0.254-1.066-1 0.096-0.188 0.344-0.031 0.75 0.75 0.379 0.441v0.688l0.188 0.125 0.375 0.375 0.277-0.094-0.152-0.566 0.094-0.344 0.188-0.219 0.439 0.156 0.154 0.063-0.029-0.5 0.25-0.469 0.154-0.689 0.564 0.096 0.094 0.313 0.219 0.156 0.25-0.219-0.156-0.346h0.656l-0.219 0.375 0.438 0.375 0.375 0.189 0.219 0.438-0.5 0.121-0.719-0.156h-0.625l-0.594 0.316-0.125 0.188-0.434 0.094 0.188 0.469 0.344 0.406 0.621-0.219 0.156 0.277 0.281-0.219 0.375 0.063 0.031 0.41-0.125 0.777-0.344-0.031-0.406-0.063-0.189 0.465-1.375-0.25-0.25-0.316-0.313 0.281-0.344 0.469-0.875-0.5-0.875-0.527v-0.941l-0.566 0.031-0.031 0.313-1.375-0.063-0.434 0.402-0.844 0.031-0.566 0.5-0.344 0.969-0.875 0.691-0.625 0.844 1.504 5.281 0.434 0.094 0.096-0.375h1.563l0.406-0.188 0.5 0.063 0.156 0.313 0.529 0.031 0.346 0.25v0.531l-0.125 0.438-0.121 0.344 0.309 0.566 0.41 0.469 0.188 1.188 0.031 0.777-0.281 0.656-0.031 0.625 0.219 1.156 0.188 0.188 0.281 1.094 0.031 0.471 0.563 0.75 0.066 0.594 0.09 0.688 0.344-0.344 0.875-0.09h0.535l3.313-12.631-0.281-0.563-0.656-0.5-0.154-0.813-0.281-0.475-0.311-0.594-0.408-0.719-0.092-0.469 0.436-0.063 0.254 0.531 0.5 0.938 0.375 0.688 0.406 0.75 0.438 0.723 0.594 0.6 0.531-0.5 0.605-0.156 0.434-0.531 0.594-0.344 0.344-0.594 0.035-0.5-0.281-0.316-0.375-0.438-0.254 0.154-0.152 0.254-0.41-0.188-0.125-0.313-0.275-0.41-0.439-0.406v-0.813l0.281 0.531 0.344 0.535 0.594 0.344 0.41-0.094 0.25 0.281 1.781-0.035-0.031 0.035 0.564 0.5 0.408 0.563 0.121 0.277h0.281l0.094-0.311 0.092 0.467 0.154 0.844 0.346 0.813 0.188 0.688 0.281 0.656 0.219 0.277 0.313-0.188 0.09-0.314 0.125-0.775-0.031-0.689 0.25-0.316s0.265-0.359 0.313-0.375c0.051-0.012 0.625-0.65 0.625-0.65l0.281-0.35 0.314-0.188 0.383-0.219h0.145l0.066 0.344 0.156 0.406 0.5 0.652v0.25l0.09 0.281 0.344-0.156-0.031-0.375 0.316 0.066 0.063 0.344-0.027 0.531 0.094 0.375 0.277 0.064 0.094-0.314 0.344 0.219 0.064 0.316 0.313 0.469 0.313 0.344 0.219 0.191 0.531-0.469 0.219-0.441-0.09-0.5-0.094-0.656-0.594-0.563-0.094-0.566 0.254-0.398s0.156-0.32 0.309-0.156c0.152 0.168 0.227 0.188 0.156 0.375-0.066 0.184-0.188 0.598-0.188 0.598l0.375 0.156 0.156-0.531-0.156-0.379 0.379-0.156 0.512-0.256c-1.882-5.658-5.9-10.337-11.1-13.08zm-5.35 1.652-4e-3 6e-3 4.092-0.695-0.031-0.156-0.314-0.438-0.654-0.063s0.154 0.664 0.154 0.75c0 0.082-0.434 0.025-0.434 0.025l-0.75 0.035s-1.086 0.25-1.223 0.25c-0.129 0-0.762 0.262-0.809 0.281l-0.027 4e-3zm-17.65-0.754c-0.593 0.375-1.168 0.775-1.723 1.201l0.104 0.047 0.531 0.465 0.527 0.125 0.191-0.719 0.031-0.438 0.625 0.094s-0.193 0.313-0.1 0.313c0.102 0 0.475-0.406 0.475-0.406l-0.662-0.682zm6.906 0.846-0.125 0.406c0.449 0.348 0.625 0.344 0.625 0.344l0.527-0.125 0.348-0.344-0.223-0.281zm-8.871 0.773s-0.33 0.183-0.684 0.334c-0.159 0.136-0.318 0.27-0.473 0.41-4e-3 0.062 0 0.131 0 0.131l-0.031 0.844-0.688 0.563-0.439 0.656s-0.275-0.188-0.275-0.313c0-0.108-0.043-0.335-0.057-0.406-0.421 0.455-0.823 0.928-1.207 1.416l0.387 0.498 0.275 0.434s-0.246 0.844-0.313 1c-0.066 0.156-0.258-0.313-0.258-0.313l-0.148-0.814-0.531 0.225-0.406 0.965 0.086-0.76c-0.818 1.197-1.524 2.475-2.107 3.82h0.309l1.121-0.25 0.41 0.531-0.066 0.625 0.469 0.406 0.066-0.441s-0.031-0.719-0.094-0.906c-0.063-0.188 0.563-0.625 0.563-0.625l0.5-0.613 0.594-0.727 0.281-0.563 0.941-0.496 0.621-0.691s0.938-0.148 1.125-0.254c0.191-0.09 0.066-0.434-0.125-0.75-0.191-0.313 0.094-0.625 0.094-0.625l0.719-0.434 0.621 0.121 0.066 0.754s0.586 0.563 0.777 0.465c0.191-0.09 0.279-0.406 0.279-0.406l-0.313-0.813 0.188-0.811-0.844 0.121v-1.375l-0.25 0.254-0.656 0.031-0.094-0.688-0.434-0.531zm11.648 1.01-0.25 0.219c-0.063 0.305-0.152 0.621-0.152 0.621l0.473 0.223 0.064 0.277-0.256 0.254-0.219 0.375 0.156 0.156 0.563-0.094 0.5-0.219-0.275-0.375-0.094-0.656-0.346-0.375zm-0.77 1.184-0.281 0.469 0.375 0.156 0.156-0.281zm10.938 1.848c0.133-0.043 0.375 0.154 0.375 0.154l-0.254 0.221 0.096 0.313 0.279 0.75 0.277 0.469 0.379 0.594-0.41 0.191-0.531-0.344-0.219-0.656s-0.299-0.406-0.439-0.469c-0.133-0.066-0.25-0.281-0.25-0.281l0.125-0.531s0.428-0.359 0.564-0.406l8e-3 -4e-3zm-7.904 1.188-0.375 0.719 0.275 0.281 0.254-0.223 0.031-0.309-0.186-0.469zm-1.254 0.75v0.188l0.154-0.031-0.154-0.156zm2.154 0.469-0.188 0.064 0.313 0.531 0.281-0.221-0.406-0.375zm-20.13 4.186v4e-3l-0.313 0.156 0.527 0.279 0.602 0.121 0.344 0.469 0.406-0.25-0.066-0.279-0.688-0.5h-0.813zm-0.998 0.41-0.563 0.09-0.844 0.844-0.277-0.037c-0.056 0.211-0.106 0.424-0.156 0.637l0.5 0.238 1.094 0.598 0.156 0.725 0.875 0.84 0.5-0.375 0.406 0.316-0.063-0.725-0.781 0.191-0.25-0.906-0.094-0.41-0.691-0.621v-0.438l0.531-0.566-0.344-0.4zm2.684 2.68-2e-3 8e-3 -0.813 0.441-0.094 0.9-0.189 1-0.563 0.75 0.027 1.121 0.473 1.156 0.5 1.406 1.313 1.313 0.064 0.75 0.09 3.379 0.469 1.906s0.289 1.102 0.219 1.191c-0.066 0.086 0.379 0.902 0.379 0.902l0.875 1.375 1.219 0.531-0.5-0.598-0.254-0.689 0.254-0.719-0.656-0.344s0.438-0.285 0.5-0.375c0.066-0.09-0.094-0.469-0.094-0.469l-0.188-0.469 0.5-0.652 0.781-0.191 0.121-0.598-0.465-0.219 0.188-0.5 0.75-0.09 0.656-1.598 0.469-1.094 0.965-0.471s0.313-0.928 0.313-1.064c0-0.129 0.094-1.531 0.094-1.531l0.75-1.027 0.1-0.688-0.566-0.344-0.465-0.566-0.844 0.066-1.35-0.781-0.275-0.656s-0.473-0.809-0.566-0.809c-0.09 0-0.656 0.029-0.656 0.029l-0.527-0.529-0.348-0.656-1.344-0.281-0.434-0.219h-0.875zm36.434 0.496c0.113 0.129 0.816 2.219 0.91 2.219 0.086 0 0.621 0.066 0.621 0.066l-0.281-0.846zm-3.59 0.064-0.314 0.406 0.156 0.598 0.344-0.375-0.064-0.473-0.121-0.156zm7.859 0.848-1.238 0.686c0 0.09-0.719 0.688-0.719 0.688l0.188 0.625 0.406 0.465 0.281 0.691 1.238-0.807c-0.012-0.793-0.066-1.576-0.156-2.348zm-4.359 0.309-0.439 0.064 2 3 0.531 0.594 1.311 0.064 0.813 0.256-0.875-0.625-1.25-0.35-0.313-1.15-0.689-0.566-1.094-1.281 6e-3 -6e-3zm4.088 6.834c-0.107 0.028-0.181 0.056-0.188 0.078-0.02 0.086-0.563 0.375-0.563 0.375-0.113 0-0.469 0.656-0.469 0.656l-0.066 2.063-0.125 0.75 0.18 0.23c0.535-1.327 0.951-2.716 1.232-4.152h-2e-3zm-35.07 7.51 2e-3 4e-3 4e-3 -4e-3zm2e-3 4e-3 -0.217 0.148-0.094 0.031 0.5 0.25-0.189-0.43zm-0.85 0.18 2e-3 4e-3 2e-3 -4e-3zm2e-3 4e-3 -0.217 0.496 0.434-0.094zm1.502 4.121-0.469 0.719-0.875 0.406 0.5 0.625-0.754 0.375-0.398-0.02c3.852 2.908 8.646 4.633 13.844 4.633 6.141 0 11.715-2.411 15.84-6.332l-2.627 0.1-3.064 0.621s-1.477 0.793-1.656 0.754c-0.18-0.043 0.625-1.031 0.625-1.031l-1.438 0.094-0.906-0.75-0.906 0.617s-1.213 0.098-1.525 0.098c-0.316 0-0.725 0.563-0.725 0.563l-2.469-0.09-4.25 0.188-1.121 0.967-0.275 0.033-3.225-0.223-2.219 0.223-0.777-0.379 0.031-0.063s-0.656-1.32-0.656-1.5c0-0.176-0.5-0.621-0.5-0.621l-4e-3 -6e-3z" style="fill-opacity:1;fill:#498dd6"/>
 </g>
 <g transform="translate(1,1)"></g>
 <g style="fill-opacity:.992;fill:#4a8dd6">
  <path d="m18.811 15.811 0.998 5.965 0.434 0.094 0.096-0.375h1.563l0.406-0.188 0.5 0.063 0.156 0.313 0.529 0.031 0.346 0.25v0.037h1.162" style="fill-opacity:1;fill:#000;opacity:.1"/>
 </g>
 <path d="m40.03 7.531c3.712 4.084 5.969 9.514 5.969 15.469 0 12.703-10.297 23-23 23-5.954 0-11.384-2.256-15.469-5.969 4.178 4.291 10.01 6.969 16.469 6.969 12.703 0 23-10.298 23-23 0-6.462-2.677-12.291-6.969-16.469z" style="opacity:.1"/>
 <path d="m24 21-7-7-7 7h4v10h6v-10z" style="fill-opacity:.984;fill-rule:evenodd;fill:#eb85bc"/>
 <path d="m24 29 7 7 7-7h-4v-10h-6v10z" style="fill-opacity:.984;fill-rule:evenodd;fill:#eb85bc"/>
</svg>
