<svg xmlns="http://www.w3.org/2000/svg" viewBox="0 0 48 48">
 <defs>
  <linearGradient id="linearGradient3764" x1="1" x2="47" gradientUnits="userSpaceOnUse" gradientTransform="matrix(0,-1,1,0,-1.5e-6,47.999998)">
   <stop style="stop-color:#ec6f1c;stop-opacity:1"/>
   <stop offset="1" style="stop-color:#ed7a2e;stop-opacity:1"/>
  </linearGradient>
 </defs>
 <g>
  <path d="m 36.31 5 c 5.859 4.062 9.688 10.831 9.688 18.5 c 0 12.426 -10.07 22.5 -22.5 22.5 c -7.669 0 -14.438 -3.828 -18.5 -9.688 c 1.037 1.822 2.306 3.499 3.781 4.969 c 4.085 3.712 9.514 5.969 15.469 5.969 c 12.703 0 23 -10.298 23 -23 c 0 -5.954 -2.256 -11.384 -5.969 -15.469 c -1.469 -1.475 -3.147 -2.744 -4.969 -3.781 z m 4.969 3.781 c 3.854 4.113 6.219 9.637 6.219 15.719 c 0 12.703 -10.297 23 -23 23 c -6.081 0 -11.606 -2.364 -15.719 -6.219 c 4.16 4.144 9.883 6.719 16.219 6.719 c 12.703 0 23 -10.298 23 -23 c 0 -6.335 -2.575 -12.06 -6.719 -16.219 z" style="opacity:0.05"/>
  <path d="m 41.28 8.781 c 3.712 4.085 5.969 9.514 5.969 15.469 c 0 12.703 -10.297 23 -23 23 c -5.954 0 -11.384 -2.256 -15.469 -5.969 c 4.113 3.854 9.637 6.219 15.719 6.219 c 12.703 0 23 -10.298 23 -23 c 0 -6.081 -2.364 -11.606 -6.219 -15.719 z" style="opacity:0.1"/>
  <path d="m 31.25 2.375 c 8.615 3.154 14.75 11.417 14.75 21.13 c 0 12.426 -10.07 22.5 -22.5 22.5 c -9.708 0 -17.971 -6.135 -21.12 -14.75 a 23 23 0 0 0 44.875 -7 a 23 23 0 0 0 -16 -21.875 z" style="opacity:0.2"/>
 </g>
 <g>
  <path d="m 24 1 c 12.703 0 23 10.297 23 23 c 0 12.703 -10.297 23 -23 23 -12.703 0 -23 -10.297 -23 -23 0 -12.703 10.297 -23 23 -23 z" style="fill:url(#linearGradient3764);fill-opacity:1"/>
  <path d="m 24 13 c -2.215 0 -4 1.781 -4 4 l 0 6.996 l -3.01 0 a 0.5 0.5 0 0 0 -0.463 0.318 l -1.24 3.102 l -0.803 -7.967 a 0.5 0.5 0 0 0 -0.512 -0.449 a 0.5 0.5 0 0 0 -0.449 0.313 l -1.861 4.684 l -10.658 0 l 0 0.004 c 0 0.335 0.011 0.668 0.025 1 l 10.971 0 a 0.5 0.5 0 0 0 0.465 -0.318 l 1.23 -3.094 l 0.797 7.959 a 0.5 0.5 0 0 0 0.961 0.139 l 1.877 -4.686 l 2.674 0 l 0 8 c 0 2.215 1.785 4 4 4 l 2 0 l 0 -8 l -1 0 c -0.555 0 -1 -0.449 -1 -1 l 0 -3 l 22.975 0 c 0.014 -0.332 0.025 -0.665 0.025 -1 l 0 -0.004 l -23 0 l 0 -1.996 c 0 -0.555 0.445 -1 1 -1 l 1 0 l 0 -8 l -2 0 z m 3 0 l 0 8 l 3 0 c 0.555 0 1 -0.449 1 -1 l 0 -6 c 0 -0.555 -0.445 -1 -1 -1 l -3 0 z m 0.004 16 l 0 7.996 l 2.996 0 c 0.555 0 1 -0.445 1 -1 l 0 -6 c 0 -0.551 -0.445 -0.996 -1 -0.996 l -2.996 0 z" style="fill:#000;opacity:0.1;fill-opacity:1"/>
  <path d="M 12.969 18 A 0.5 0.5 0 0 0 12.52 18.313 L 10.658 22.996 L 1.025 22.996 C 1.01 23.329 1 23.663 1 24 L 10.996 24 A 0.5 0.5 0 0 0 11.461 23.682 L 12.691 20.588 L 13.488 28.547 A 0.5 0.5 0 0 0 14.449 28.686 L 16.326 24 L 47 24 C 47 23.663 46.989 23.329 46.975 22.996 L 15.986 22.996 A 0.5 0.5 0 0 0 15.523 23.314 L 14.283 26.416 L 13.48 18.449 A 0.5 0.5 0 0 0 12.969 18 z" style="fill:#f9f9f9;fill-opacity:1"/>
 </g>
 <g>
  <g>
   <g transform="translate(1,1)">
    <g style="opacity:0.1">
     <!-- color: #ed7a2e -->
    </g>
   </g>
  </g>
 </g>
 <g>
  <g>
   <!-- color: #ed7a2e -->
   <g>
    <path d="m 23 12 c -2.215 0 -4 1.781 -4 4 l 0 16 c 0 2.215 1.785 4 4 4 l 2 0 l 0 -8 l -1 0 c -0.555 0 -1 -0.449 -1 -1 l 0 -6 c 0 -0.555 0.445 -1 1 -1 l 1 0 l 0 -8 l -2 0 z m 3 0 l 0 8 l 3 0 c 0.555 0 1 -0.449 1 -1 l 0 -6 c 0 -0.555 -0.445 -1 -1 -1 l -3 0 z m 0.004 16 l 0 7.996 l 2.996 0 c 0.555 0 1 -0.445 1 -1 l 0 -6 c 0 -0.551 -0.445 -0.996 -1 -0.996 l -2.996 0 z" style="fill:#f9f9f9;fill-opacity:1;stroke:none;fill-rule:nonzero"/>
   </g>
  </g>
 </g>
 <g>
  <path d="m 40.03 7.531 c 3.712 4.084 5.969 9.514 5.969 15.469 0 12.703 -10.297 23 -23 23 c -5.954 0 -11.384 -2.256 -15.469 -5.969 4.178 4.291 10.01 6.969 16.469 6.969 c 12.703 0 23 -10.298 23 -23 0 -6.462 -2.677 -12.291 -6.969 -16.469 z" style="opacity:0.1"/>
 </g>
</svg>
