<svg version="1.1" viewBox="0 0 48 48" xmlns="http://www.w3.org/2000/svg">
 <defs>
  <linearGradient id="linearGradient870" x1="1" x2="1" y1="47" y2="1" gradientUnits="userSpaceOnUse">
   <stop style="stop-color:#73c3f4" offset="0"/>
   <stop style="stop-color:#73c3f4" offset="1"/>
  </linearGradient>
 </defs>
 <path d="m36.3 5c5.86 4.06 9.69 10.8 9.69 18.5 0 12.4-10.1 22.5-22.5 22.5-7.67 0-14.4-3.83-18.5-9.69 1.04 1.82 2.31 3.5 3.78 4.97 4.08 3.71 9.51 5.97 15.5 5.97 12.7 0 23-10.3 23-23 0-5.95-2.26-11.4-5.97-15.5-1.47-1.48-3.15-2.74-4.97-3.78zm4.97 3.78c3.85 4.11 6.22 9.64 6.22 15.7 0 12.7-10.3 23-23 23-6.08 0-11.6-2.36-15.7-6.22 4.16 4.14 9.88 6.72 16.2 6.72 12.7 0 23-10.3 23-23 0-6.34-2.58-12.1-6.72-16.2z" style="opacity:.05"/>
 <path d="m41.3 8.78c3.71 4.08 5.97 9.51 5.97 15.5 0 12.7-10.3 23-23 23-5.95 0-11.4-2.26-15.5-5.97 4.11 3.85 9.64 6.22 15.7 6.22 12.7 0 23-10.3 23-23 0-6.08-2.36-11.6-6.22-15.7z" style="opacity:.1"/>
 <path d="m31.2 2.38c8.62 3.15 14.8 11.4 14.8 21.1 0 12.4-10.1 22.5-22.5 22.5-9.71 0-18-6.14-21.1-14.8a23 23 0 0 0 44.9-7 23 23 0 0 0-16-21.9z" style="opacity:.2"/>
 <path d="m47 24c0 12.7-10.3 23-23 23s-23-10.3-23-23 10.3-23 23-23 23 10.3 23 23z" style="fill:url(#linearGradient870)"/>
 <path d="m40 7.53c3.71 4.08 5.97 9.51 5.97 15.5 0 12.7-10.3 23-23 23-5.95 0-11.4-2.26-15.5-5.97 4.18 4.29 10 6.97 16.5 6.97 12.7 0 23-10.3 23-23 0-6.46-2.68-12.3-6.97-16.5z" style="opacity:.1"/>
 <path d="m29.7 11.4c-0.314 0.0172-0.626 0.0555-0.932 0.105-1.22 0.2-2.48 0.727-3.75 1.54-0.0273 0.0175-0.0547 0.0388-0.082 0.0566l-3.7-1.5c-1.22-0.199-2.54-0.199-3.74 0.488-1.2 0.687-1.86 1.82-2.29 2.97-0.435 1.14-0.609 2.48-0.543 3.96-0.0043 0.0022-0.0094 0.0036-0.0137 0.0059-1.33 0.69-2.42 1.52-3.21 2.48-0.784 0.959-1.44 2.1-1.44 3.48 0 1.38 0.657 2.52 1.44 3.48s1.87 1.79 3.21 2.48c0.0043 0.0022 0.0094 0.0036 0.0137 0.0059-3.06e-4 0.0064-0.0017 0.0131-2e-3 0.0195-0.069 1.5 0.105 2.86 0.543 4.02 0.438 1.16 1.1 2.3 2.29 2.99 1.2 0.692 2.51 0.694 3.74 0.494s2.48-0.729 3.75-1.54c0.0281-0.018 0.056-0.0403 0.084-0.0586 1.25 0.786 2.49 1.3 3.7 1.5 1.22 0.199 2.54 0.197 3.74-0.49 1.2-0.687 1.86-1.82 2.29-2.97 0.436-1.14 0.609-2.48 0.543-3.96 0.0043-0.0022 0.0094-0.0036 0.0137-0.0059 1.33-0.69 2.42-1.52 3.21-2.48 0.784-0.959 1.44-2.1 1.44-3.48 0-1.38-0.657-2.52-1.44-3.48s-1.87-1.79-3.21-2.48c-0.0056-0.0029-0.012-0.0049-0.0176-0.0078 2.13e-4 -0.0045 0.0017-0.0092 2e-3 -0.0137 0.069-1.5-0.105-2.86-0.543-4.02-0.438-1.16-1.1-2.3-2.29-2.99zm0.5 1.15c0.701 0.0175 1.26 0.232 1.71 0.49 0.596 0.344 1.22 0.898 1.61 1.91 0.377 0.996 0.623 2.09 0.566 3.51-1.39-0.546-2.96-0.94-4.68-1.18-1.06-1.33-2.18-2.47-3.33-3.38 0.0027-0.0017 0.0051-0.0042 0.0078-0.0059 1.22-0.783 2.31-1.12 3.38-1.29 0.266-0.0435 0.516-0.0605 0.75-0.0547zm-10.4 0.0918c0.234-0.0058 0.484 0.0114 0.75 0.0547 1.03 0.168 2.09 0.492 3.27 1.22-1.13 0.91-2.23 2.05-3.27 3.37-1.7 0.24-3.25 0.631-4.62 1.17-0.0493-1.39 0.194-2.47 0.566-3.44 0.382-1 1.01-1.55 1.61-1.89 0.447-0.257 1-0.469 1.71-0.486zm5.15 2.06c0.865 0.664 1.72 1.46 2.55 2.38l-5.06 0.0039c0.816-0.921 1.66-1.72 2.51-2.39zm5.57 4.12c1.24 0.251 2.38 0.591 3.41 1.01-0.153 1.09-0.427 2.25-0.824 3.44-0.361-0.744-0.753-1.49-1.19-2.24-0.448-0.771-0.917-1.5-1.4-2.2zm-11.1 0.0059-2.56 4.44c-0.399-1.19-0.674-2.34-0.824-3.43 1.02-0.415 2.16-0.753 3.38-1zm2.56 1.17h5.5c2.43 0 3.28 2.41 2.92 4l-0.672 3-4.25 3h-5l0.5-2h4c1.91 0 2.63-1.14 2.9-2.5l0.203-1c0.401-2-0.602-2.5-2.1-2.5h-4.5zm13.2 0.406c1.26 0.661 2.08 1.42 2.76 2.25 0.684 0.836 0.852 1.66 0.852 2.34s-0.168 1.51-0.852 2.35c-0.674 0.823-1.5 1.58-2.75 2.24-0.215-1.46-0.659-3-1.3-4.59 0.64-1.59 1.08-3.14 1.3-4.59zm-20.4 2e-3c0.215 1.46 0.657 3 1.3 4.59-0.64 1.59-1.08 3.14-1.3 4.59-1.26-0.661-2.08-1.42-2.76-2.25-0.684-0.836-0.852-1.66-0.852-2.35s0.168-1.51 0.852-2.34c0.674-0.823 1.5-1.59 2.75-2.25zm4.7 3.59h5.5l-0.5 2h-5.5zm-2.62 2.73 2.59 4.45-3.42-1.01c0.153-1.09 0.427-2.24 0.824-3.43zm16.2 0.0039c0.399 1.19 0.671 2.34 0.822 3.43l-3.38 1.01c0.469-0.688 0.925-1.41 1.36-2.16 0.44-0.76 0.836-1.52 1.2-2.27zm-17.2 4.8c1.39 0.547 2.96 0.94 4.68 1.18 1.06 1.33 2.18 2.48 3.33 3.38-0.0027 0.0017-0.0051 0.0041-0.0078 0.0059-1.22 0.783-2.31 1.12-3.38 1.29-1.07 0.174-1.86-0.0935-2.46-0.438-0.596-0.344-1.22-0.898-1.61-1.91-0.377-0.997-0.624-2.09-0.566-3.51zm18.1 0c0.0499 1.39-0.194 2.47-0.566 3.44-0.382 1-1.01 1.55-1.61 1.89-0.596 0.342-1.39 0.605-2.46 0.432-1.03-0.167-2.09-0.494-3.27-1.22 1.13-0.911 2.23-2.05 3.27-3.38 1.69-0.24 3.25-0.63 4.62-1.17zm-6.52 1.37c-0.816 0.921-1.66 1.72-2.51 2.39-0.865-0.665-1.72-1.47-2.55-2.39 0.816 0.0601 1.65 0.0977 2.51 0.0977 0.873 0 1.72-0.037 2.56-0.0996z" style="opacity:.1"/>
 <path d="m29.4 10.4c-0.237-0.0131-0.474-0.011-0.709 2e-3 -0.314 0.0172-0.626 0.0555-0.932 0.105-1.22 0.2-2.48 0.727-3.75 1.54-0.0273 0.0175-0.0547 0.0388-0.082 0.0566-1.25-0.785-2.49-1.3-3.7-1.5-1.22-0.199-2.54-0.199-3.74 0.488-1.2 0.687-1.86 1.82-2.29 2.97-0.435 1.14-0.609 2.48-0.543 3.96-0.0043 0.0022-0.0094 0.0036-0.0137 0.0059-1.33 0.69-2.42 1.52-3.21 2.48-0.784 0.959-1.44 2.1-1.44 3.48s0.657 2.52 1.44 3.48 1.87 1.79 3.21 2.48c0.0043 0.0022 0.0094 0.0036 0.0137 0.0059-3.06e-4 0.0064-0.0017 0.0131-2e-3 0.0195-0.069 1.5 0.105 2.86 0.543 4.02 0.438 1.16 1.1 2.3 2.29 2.99 1.2 0.692 2.51 0.694 3.74 0.494s2.48-0.729 3.75-1.54c0.0281-0.018 0.056-0.0403 0.084-0.0586 1.25 0.786 2.49 1.3 3.7 1.5 1.22 0.199 2.54 0.197 3.74-0.49 1.2-0.687 1.86-1.82 2.29-2.97 0.436-1.14 0.609-2.48 0.543-3.96 0.0043-0.0022 0.0094-0.0036 0.0137-0.0059 1.33-0.69 2.42-1.52 3.21-2.48 0.784-0.959 1.44-2.1 1.44-3.48s-0.657-2.52-1.44-3.48c-0.784-0.959-1.87-1.79-3.21-2.48-0.0056-0.0029-0.012-0.0049-0.0176-0.0078 2.13e-4 -0.0045 0.0017-0.0092 2e-3 -0.0137 0.069-1.5-0.105-2.86-0.543-4.02-0.438-1.16-1.1-2.3-2.29-2.99-0.674-0.389-1.39-0.56-2.1-0.6zm-0.209 1.15c0.701 0.0175 1.26 0.232 1.71 0.49 0.596 0.344 1.22 0.898 1.61 1.91 0.377 0.996 0.624 2.09 0.566 3.51-1.39-0.546-2.96-0.94-4.68-1.18-1.06-1.33-2.18-2.47-3.33-3.38 0.0027-0.0017 0.0051-0.0042 0.0078-0.0059 1.22-0.783 2.31-1.12 3.38-1.29 0.266-0.0435 0.516-0.0605 0.75-0.0547zm-10.4 0.0918c0.234-0.0058 0.484 0.0114 0.75 0.0547 1.03 0.168 2.09 0.492 3.27 1.22-1.13 0.91-2.23 2.05-3.27 3.37-1.7 0.24-3.25 0.631-4.62 1.17-0.0493-1.39 0.194-2.47 0.566-3.44 0.382-1 1.01-1.55 1.61-1.89 0.447-0.257 1-0.469 1.71-0.486zm5.15 2.06c0.865 0.664 1.72 1.46 2.55 2.38-0.815-0.0599-1.65-0.0957-2.5-0.0957-0.875 0-1.73 0.0368-2.56 0.0996 0.816-0.921 1.66-1.72 2.51-2.39zm5.57 4.12c1.24 0.251 2.38 0.591 3.41 1.01-0.153 1.09-0.427 2.25-0.824 3.44-0.361-0.744-0.753-1.49-1.19-2.24-0.448-0.771-0.917-1.5-1.4-2.2zm-11.1 0.0059c-0.471 0.69-0.928 1.41-1.37 2.17-0.439 0.758-0.833 1.52-1.2 2.27-0.399-1.19-0.674-2.34-0.824-3.43 1.02-0.415 2.16-0.753 3.38-1zm2.56 1.17h5.5c2.43 0 3.28 2.41 2.92 4l-0.672 3c-0.447 2-2.25 3-4.25 3h-5l0.5-2h4c1.91 0 2.63-1.14 2.9-2.5l0.203-1c0.401-2-0.602-2.5-2.1-2.5h-4.5zm13.2 0.406c1.26 0.661 2.08 1.42 2.76 2.25 0.684 0.836 0.852 1.66 0.852 2.34s-0.168 1.51-0.852 2.35c-0.674 0.823-1.5 1.58-2.75 2.24-0.215-1.46-0.659-3-1.3-4.59 0.64-1.59 1.08-3.14 1.3-4.59zm-20.4 2e-3c0.215 1.46 0.657 3 1.3 4.59-0.64 1.59-1.08 3.14-1.3 4.59-1.26-0.661-2.08-1.42-2.76-2.25-0.684-0.836-0.852-1.66-0.852-2.35s0.168-1.51 0.852-2.34c0.674-0.823 1.5-1.59 2.75-2.25zm4.7 3.59h5.5l-0.5 2h-5.5zm-2.62 2.73c0.362 0.746 0.756 1.5 1.19 2.25 0.448 0.77 0.916 1.5 1.4 2.2-1.24-0.251-2.38-0.594-3.42-1.01 0.153-1.09 0.427-2.24 0.824-3.43zm16.2 0.0039c0.399 1.19 0.671 2.34 0.822 3.43-1.02 0.414-2.16 0.755-3.38 1.01 0.469-0.688 0.925-1.41 1.36-2.16 0.44-0.76 0.836-1.52 1.2-2.27zm-17.2 4.8c1.39 0.547 2.96 0.94 4.68 1.18 1.06 1.33 2.18 2.48 3.33 3.38-0.0027 0.0017-0.0051 0.0041-0.0078 0.0059-1.22 0.783-2.31 1.12-3.38 1.29-1.07 0.174-1.86-0.0935-2.46-0.438s-1.22-0.898-1.61-1.91c-0.377-0.997-0.624-2.09-0.566-3.51zm18.1 0c0.0499 1.39-0.194 2.47-0.566 3.44-0.382 1-1.01 1.55-1.61 1.89-0.596 0.342-1.39 0.605-2.46 0.432-1.03-0.167-2.09-0.494-3.27-1.22 1.13-0.911 2.23-2.05 3.27-3.38 1.69-0.24 3.25-0.63 4.62-1.17zm-6.52 1.37c-0.816 0.921-1.66 1.72-2.51 2.39-0.865-0.665-1.72-1.47-2.55-2.39 0.816 0.0601 1.65 0.0977 2.51 0.0977 0.873 0 1.72-0.037 2.56-0.0996z" style="fill:#1f52e0"/>
</svg>
