<svg version="1.1" viewBox="0 0 48 48" xmlns="http://www.w3.org/2000/svg">
 <defs>
  <linearGradient id="bg" x2="0" y1="1" y2="47" gradientUnits="userSpaceOnUse">
   <stop style="stop-color:#e89a40" offset="0"/>
   <stop style="stop-color:#e6902d" offset="1"/>
  </linearGradient>
 </defs>
 <path d="m36.3 5c5.86 4.06 9.69 10.8 9.69 18.5 0 12.4-10.1 22.5-22.5 22.5-7.67 0-14.4-3.83-18.5-9.69 1.04 1.82 2.31 3.5 3.78 4.97 4.08 3.71 9.51 5.97 15.5 5.97 12.7 0 23-10.3 23-23 0-5.95-2.26-11.4-5.97-15.5-1.47-1.48-3.15-2.74-4.97-3.78zm4.97 3.78c3.85 4.11 6.22 9.64 6.22 15.7 0 12.7-10.3 23-23 23-6.08 0-11.6-2.36-15.7-6.22 4.16 4.14 9.88 6.72 16.2 6.72 12.7 0 23-10.3 23-23 0-6.34-2.58-12.1-6.72-16.2z" style="opacity:.05"/>
 <path d="m41.3 8.78c3.71 4.08 5.97 9.51 5.97 15.5 0 12.7-10.3 23-23 23-5.95 0-11.4-2.26-15.5-5.97 4.11 3.85 9.64 6.22 15.7 6.22 12.7 0 23-10.3 23-23 0-6.08-2.36-11.6-6.22-15.7z" style="opacity:.1"/>
 <path d="m31.2 2.38c8.62 3.15 14.8 11.4 14.8 21.1 0 12.4-10.1 22.5-22.5 22.5-9.71 0-18-6.14-21.1-14.8a23 23 0 0 0 44.9-7 23 23 0 0 0-16-21.9z" style="opacity:.2"/>
 <circle cx="24" cy="24" r="23" style="fill:url(#bg)"/>
 <path d="m40 7.53c3.71 4.08 5.97 9.51 5.97 15.5 0 12.7-10.3 23-23 23-5.95 0-11.4-2.26-15.5-5.97 4.18 4.29 10 6.97 16.5 6.97 12.7 0 23-10.3 23-23 0-6.46-2.68-12.3-6.97-16.5z" style="opacity:.1"/>
 <path d="m20 13v15.1c-2.33 0.475-4 2.52-4 4.9 0 2.76 2.24 5 5 5s5-2.24 5-5c-2.57e-4 -2.38-1.67-4.42-4-4.9v-5.1h5c0.552 0 1-0.448 1-1s-0.448-1-1-1h-5v-7h11c0.552 0 1-0.448 1-1s-0.448-1-1-1z" style="opacity:.1"/>
 <path d="m20 11a1 1 0 0 0-1 1v15.1a5 5 0 0 0-4 4.9 5 5 0 0 0 5 5 5 5 0 0 0 5-5 5 5 0 0 0-4-4.9v-5.1h5a1 1 0 0 0 1-1 1 1 0 0 0-1-1h-5v-7h11a1 1 0 0 0 1-1 1 1 0 0 0-1-1z" style="fill:#f9f9f9"/>
 <path d="m23 32a3 3 0 0 1-3 3 3 3 0 0 1-3-3 3 3 0 0 1 3-3 3 3 0 0 1 3 3z" style="fill:#ee660c"/>
 <path d="m20 29a3 3 0 0 0-3 3 3 3 0 0 0 1.44 2.56 3 3 0 0 1-0.438-1.56 3 3 0 0 1 3-3 3 3 0 0 1 1.56 0.438 3 3 0 0 0-2.56-1.44z" style="opacity:.1"/>
</svg>
