<svg version="1.1" viewBox="0 0 48 48" xmlns="http://www.w3.org/2000/svg" xmlns:xlink="http://www.w3.org/1999/xlink">
 <defs>
  <linearGradient id="linearGradient3887">
   <stop style="stop-color:#049afd" offset="0"/>
   <stop style="stop-color:#1d4ed7" offset="1"/>
  </linearGradient>
  <linearGradient id="linearGradient3844" x1="1" x2="47" gradientTransform="matrix(0,1,-1,0,48,0)" gradientUnits="userSpaceOnUse">
   <stop style="stop-color:#3a3a3a" offset="0"/>
   <stop style="stop-color:#303030" offset="1"/>
  </linearGradient>
  <radialGradient id="radialGradient3030" cx="23" cy="25.5" r="13.323" gradientTransform="matrix(-.6755 0 -5.0834e-8 -1.1258 39.537 52.709)" gradientUnits="userSpaceOnUse" xlink:href="#linearGradient3887"/>
  <radialGradient id="radialGradient3032" cx="23" cy="25.5" r="13.323" gradientTransform="matrix(-.33775 .585 -.975 -.56292 56.631 24.899)" gradientUnits="userSpaceOnUse" xlink:href="#linearGradient3887"/>
  <radialGradient id="radialGradient3034" cx="23" cy="25.5" r="13.323" gradientTransform="matrix(.33775 .58077 .975 -.55885 -8.6309 24.893)" gradientUnits="userSpaceOnUse" xlink:href="#linearGradient3887"/>
 </defs>
 <path d="m36.31 5c5.859 4.062 9.688 10.831 9.688 18.5 0 12.426-10.07 22.5-22.5 22.5-7.669 0-14.438-3.828-18.5-9.688 1.037 1.822 2.306 3.499 3.781 4.969 4.085 3.712 9.514 5.969 15.469 5.969 12.703 0 23-10.298 23-23 0-5.954-2.256-11.384-5.969-15.469-1.469-1.475-3.147-2.744-4.969-3.781zm4.969 3.781c3.854 4.113 6.219 9.637 6.219 15.719 0 12.703-10.297 23-23 23-6.081 0-11.606-2.364-15.719-6.219 4.16 4.144 9.883 6.719 16.219 6.719 12.703 0 23-10.298 23-23 0-6.335-2.575-12.06-6.719-16.219z" style="opacity:.05"/>
 <path d="m41.28 8.781c3.712 4.085 5.969 9.514 5.969 15.469 0 12.703-10.297 23-23 23-5.954 0-11.384-2.256-15.469-5.969 4.113 3.854 9.637 6.219 15.719 6.219 12.703 0 23-10.298 23-23 0-6.081-2.364-11.606-6.219-15.719z" style="opacity:.1"/>
 <path d="m31.25 2.375c8.615 3.154 14.75 11.417 14.75 21.13 0 12.426-10.07 22.5-22.5 22.5-9.708 0-17.971-6.135-21.12-14.75a23 23 0 0 0 44.875 -7 23 23 0 0 0 -16 -21.875z" style="opacity:.2"/>
 <path d="m47 24c0 12.703-10.297 23-23 23s-23-10.297-23-23 10.297-23 23-23 23 10.297 23 23z" style="fill:url(#linearGradient3844)"/>
 <path d="m40.03 7.531c3.712 4.084 5.969 9.514 5.969 15.469 0 12.703-10.297 23-23 23-5.954 0-11.384-2.256-15.469-5.969 4.178 4.291 10.01 6.969 16.469 6.969 12.703 0 23-10.298 23-23 0-6.462-2.677-12.291-6.969-16.469z" style="opacity:.1"/>
 <g transform="matrix(1 0 0 1.0001 1 .99694)" style="opacity:.1">
  <g>
   <g>
    <path transform="matrix(1 0 0 .99987 -1 -.99681)" d="m29.688 11.406c-0.314 0.017-0.632 0.044-0.938 0.094-1.222 0.2-2.485 0.752-3.75 1.563-0.019 0.012-0.043 0.019-0.063 0.031-1.245-0.783-2.485-1.274-3.688-1.469-1.222-0.198-2.552-0.218-3.75 0.469s-1.843 1.819-2.281 2.969c-0.435 1.142-0.628 2.492-0.563 3.969-1.334 0.69-2.435 1.541-3.219 2.5s-1.438 2.085-1.438 3.469 0.654 2.51 1.438 3.469 1.885 1.81 3.219 2.5v0.031c-0.069 1.501 0.124 2.842 0.563 4 0.438 1.158 1.083 2.308 2.281 3s2.528 0.7 3.75 0.5 2.485-0.752 3.75-1.563c0.019-0.012 0.043-0.019 0.063-0.031 1.245 0.783 2.485 1.274 3.688 1.469 1.222 0.198 2.552 0.218 3.75-0.469s1.843-1.819 2.281-2.969c0.435-1.142 0.628-2.492 0.563-3.969 1.334-0.69 2.435-1.541 3.219-2.5s1.438-2.085 1.438-3.469-0.654-2.51-1.438-3.469-1.885-1.81-3.219-2.5v-0.031c0.069-1.501-0.124-2.842-0.563-4-0.438-1.158-1.083-2.308-2.281-3-0.898-0.519-1.871-0.645-2.813-0.594zm0.5 1.156c0.701 0.017 1.272 0.242 1.719 0.5 0.596 0.344 1.212 0.896 1.594 1.906 0.376 0.995 0.619 2.081 0.563 3.5-1.387-0.546-2.97-0.949-4.688-1.188-1.059-1.333-2.156-2.473-3.313-3.375 1.223-0.784 2.309-1.107 3.375-1.281 0.266-0.044 0.516-0.068 0.75-0.063zm-10.375 0.094c0.234-6e-3 0.484-0.012 0.75 0.031 1.03 0.167 2.077 0.526 3.25 1.25-1.129 0.907-2.216 2.023-3.25 3.344-1.694 0.239-3.254 0.649-4.625 1.188-0.051-1.391 0.189-2.458 0.563-3.438 0.382-1 0.998-1.565 1.594-1.906 0.447-0.256 1.018-0.451 1.719-0.469zm5.125 2.063c0.868 0.667 1.732 1.45 2.563 2.375-0.815-0.06-1.646-0.094-2.5-0.094-0.876 0-1.728 0.031-2.563 0.094 0.81-0.915 1.652-1.706 2.5-2.375zm0.063 3.594c1.277 0 2.511 0.07 3.688 0.219 0.743 0.963 1.465 2.02 2.125 3.156 0.647 1.112 1.193 2.214 1.656 3.313-0.464 1.11-1.01 2.22-1.656 3.344-0.65 1.125-1.364 2.168-2.094 3.125-1.185 0.151-2.43 0.219-3.719 0.219-1.277 0-2.512-0.07-3.688-0.219-0.743-0.963-1.465-2.02-2.125-3.156-0.647-1.112-1.193-2.214-1.656-3.313 0.464-1.11 1.01-2.22 1.656-3.344 0.65-1.125 1.364-2.168 2.094-3.125 1.185-0.151 2.43-0.219 3.719-0.219zm-5.594 0.531c-0.463 0.681-0.913 1.41-1.344 2.156-0.433 0.751-0.828 1.504-1.188 2.25-0.395-1.182-0.663-2.321-0.813-3.406 1.012-0.41 2.129-0.75 3.344-1zm11.125 0c1.237 0.251 2.378 0.583 3.406 1-0.153 1.085-0.419 2.226-0.813 3.406-0.36-0.741-0.754-1.473-1.188-2.219-0.445-0.765-0.927-1.492-1.406-2.188zm4.656 1.531c1.275 0.664 2.071 1.451 2.75 2.281 0.684 0.836 0.875 1.656 0.875 2.344s-0.191 1.508-0.875 2.344c-0.676 0.827-1.483 1.588-2.75 2.25-0.216-1.457-0.667-3.01-1.313-4.594 0.645-1.601 1.097-3.157 1.313-4.625zm-20.375 0.031c0.216 1.457 0.667 3.01 1.313 4.594-0.645 1.601-1.097 3.157-1.313 4.625-1.275-0.664-2.071-1.451-2.75-2.281-0.684-0.836-0.875-1.656-0.875-2.344s0.191-1.508 0.875-2.344c0.676-0.827 1.483-1.588 2.75-2.25zm2.063 6.344c0.36 0.741 0.754 1.473 1.188 2.219 0.445 0.765 0.927 1.492 1.406 2.188-1.237-0.251-2.378-0.583-3.406-1 0.153-1.085 0.419-2.226 0.813-3.406zm16.25 0c0.395 1.182 0.663 2.321 0.813 3.406-1.012 0.41-2.129 0.75-3.344 1 0.463-0.681 0.913-1.41 1.344-2.156 0.433-0.751 0.828-1.504 1.188-2.25zm-17.188 4.781c1.387 0.546 2.97 0.949 4.688 1.188 1.059 1.333 2.156 2.473 3.313 3.375-1.223 0.784-2.309 1.107-3.375 1.281s-1.873-0.094-2.469-0.438-1.212-0.896-1.594-1.906c-0.376-0.995-0.619-2.081-0.563-3.5zm18.13 0c0.051 1.391-0.189 2.458-0.563 3.438-0.382 1-0.998 1.565-1.594 1.906s-1.403 0.61-2.469 0.438c-1.03-0.167-2.077-0.526-3.25-1.25 1.129-0.907 2.216-2.023 3.25-3.344 1.694-0.239 3.254-0.649 4.625-1.188zm-11.563 1.375c0.815 0.06 1.646 0.094 2.5 0.094 0.876 0 1.728-0.031 2.563-0.094-0.81 0.915-1.652 1.706-2.5 2.375-0.868-0.667-1.732-1.45-2.563-2.375z"/>
    <path d="m26.55 23.5c0.48-0.32 0.959-0.5 0.95-1.5-7e-3 -1.387-1.5-2-2.5-2v-2h-1v2h-1v-2h-1v2h-2v1c0.811 0 1 0.21 1 1v4.46c0 0.396-0.196 0.539-0.556 0.539l-0.444 1h2v2h1v-2h1v2h1v-2c1 0 3-0.419 3-2.166 0-1.426-0.66-2.055-1.45-2.334m-3.55-2.5c1.406 0 2.6 0 2.6 1s-1.319 1-2.6 1m0 1c1 0 3 0 3 1.5s-1.5 1.5-3 1.5"/>
   </g>
  </g>
 </g>
 <g transform="matrix(1 0 0 1.0001 0 -.0030628)">
  <path d="m24 16c-4.03 0-7.684 0.66-10.352 2.04-1.334 0.69-2.423 1.519-3.207 2.478s-1.441 2.099-1.441 3.482 0.657 2.523 1.441 3.482 1.873 1.788 3.207 2.478c2.668 1.38 6.322 2.04 10.352 2.04s7.684-0.66 10.352-2.04c1.334-0.69 2.423-1.519 3.207-2.478s1.441-2.099 1.441-3.482-0.657-2.523-1.441-3.482-1.873-1.788-3.207-2.478c-2.668-1.38-6.322-2.04-10.352-2.04zm0 1.3c3.978 0 7.564 0.745 10.143 2.079 1.29 0.667 2.123 1.441 2.807 2.277s0.85 1.656 0.85 2.344-0.166 1.508-0.85 2.344-1.517 1.61-2.807 2.277c-2.58 1.334-6.165 2.079-10.143 2.079s-7.563-0.745-10.143-2.079c-1.29-0.667-2.124-1.441-2.807-2.277-0.684-0.836-0.85-1.656-0.85-2.344s0.166-1.508 0.85-2.344 1.517-1.61 2.807-2.277c2.58-1.334 6.165-2.079 10.143-2.079z" style="fill:url(#radialGradient3030)"/>
  <path d="m17.07 20c-2.02 3.49-3.27 6.984-3.409 9.985-0.069 1.501 0.104 2.858 0.542 4.02 0.438 1.158 1.097 2.297 2.295 2.989s2.514 0.693 3.736 0.493 2.484-0.728 3.749-1.538c2.53-1.621 4.928-4.455 6.943-7.945 2.02-3.49 3.27-6.984 3.409-9.985 0.069-1.501-0.104-2.858-0.542-4.02-0.438-1.158-1.097-2.297-2.295-2.989s-2.514-0.693-3.736-0.493-2.484 0.728-3.749 1.538c-2.53 1.621-4.928 4.455-6.943 7.945zm1.126 0.65c1.989-3.445 4.427-6.178 6.872-7.744 1.223-0.783 2.31-1.119 3.375-1.293 1.066-0.174 1.859 0.092 2.455 0.436s1.223 0.898 1.605 1.908 0.635 2.119 0.568 3.569c-0.134 2.901-1.282 6.379-3.271 9.824s-4.427 6.177-6.872 7.744c-1.223 0.783-2.31 1.119-3.375 1.293-1.066 0.174-1.859-0.092-2.455-0.436s-1.223-0.898-1.605-1.908-0.635-2.119-0.568-3.569c0.134-2.901 1.282-6.379 3.271-9.824z" style="fill:url(#radialGradient3032)"/>
  <path d="m30.928 20.03c2.02 3.465 3.27 6.934 3.409 9.913 0.069 1.49-0.104 2.837-0.542 3.987s-1.097 2.281-2.295 2.968-2.514 0.688-3.736 0.489c-1.222-0.198-2.484-0.723-3.749-1.527-2.53-1.609-4.928-4.423-6.943-7.888-2.02-3.465-3.27-6.934-3.409-9.913-0.069-1.49 0.104-2.837 0.542-3.987s1.097-2.281 2.295-2.968 2.514-0.688 3.736-0.489c1.222 0.198 2.484 0.723 3.749 1.527 2.53 1.609 4.928 4.423 6.943 7.888zm-1.126 0.645c-1.989-3.42-4.427-6.133-6.872-7.688-1.223-0.778-2.31-1.11-3.375-1.283-1.066-0.173-1.859 0.091-2.455 0.433-0.596 0.341-1.223 0.892-1.605 1.894-0.382 1-0.635 2.103-0.568 3.544 0.134 2.88 1.282 6.333 3.271 9.753s4.427 6.133 6.872 7.688c1.223 0.778 2.31 1.111 3.375 1.283 1.066 0.173 1.859-0.091 2.455-0.433 0.596-0.341 1.223-0.892 1.605-1.894 0.382-1 0.635-2.103 0.568-3.544-0.134-2.88-1.282-6.333-3.271-9.753z" style="fill:url(#radialGradient3034)"/>
  <path d="m26.55 23.5c0.48-0.32 0.959-0.5 0.95-1.5-7e-3 -1.387-1.5-2-2.5-2v-2h-1v2h-1v-2h-1v2h-2v1c0.811 0 1 0.21 1 1v4.46c0 0.396-0.196 0.539-0.556 0.539l-0.444 1h2v2h1v-2h1v2h1v-2c1 0 3-0.419 3-2.166 0-1.426-0.66-2.055-1.45-2.334m-3.55-2.5c1.406 0 2.6 0 2.6 1s-1.319 1-2.6 1m0 1c1 0 3 0 3 1.5s-1.5 1.5-3 1.5" style="fill:#0092f0"/>
 </g>
</svg>
