<svg xmlns="http://www.w3.org/2000/svg" viewBox="0 0 48 48">
 <defs>
  <linearGradient id="linearGradient3764" x1="1" x2="47" gradientUnits="userSpaceOnUse" gradientTransform="matrix(0,-1,1,0,-1.5e-6,47.999998)">
   <stop style="stop-color:#716dbf;stop-opacity:1"/>
   <stop offset="1" style="stop-color:#7f7bc5;stop-opacity:1"/>
  </linearGradient>
 </defs>
 <g>
  <path d="m 36.31 5 c 5.859 4.062 9.688 10.831 9.688 18.5 c 0 12.426 -10.07 22.5 -22.5 22.5 c -7.669 0 -14.438 -3.828 -18.5 -9.688 c 1.037 1.822 2.306 3.499 3.781 4.969 c 4.085 3.712 9.514 5.969 15.469 5.969 c 12.703 0 23 -10.298 23 -23 c 0 -5.954 -2.256 -11.384 -5.969 -15.469 c -1.469 -1.475 -3.147 -2.744 -4.969 -3.781 z m 4.969 3.781 c 3.854 4.113 6.219 9.637 6.219 15.719 c 0 12.703 -10.297 23 -23 23 c -6.081 0 -11.606 -2.364 -15.719 -6.219 c 4.16 4.144 9.883 6.719 16.219 6.719 c 12.703 0 23 -10.298 23 -23 c 0 -6.335 -2.575 -12.06 -6.719 -16.219 z" style="opacity:0.05"/>
  <path d="m 41.28 8.781 c 3.712 4.085 5.969 9.514 5.969 15.469 c 0 12.703 -10.297 23 -23 23 c -5.954 0 -11.384 -2.256 -15.469 -5.969 c 4.113 3.854 9.637 6.219 15.719 6.219 c 12.703 0 23 -10.298 23 -23 c 0 -6.081 -2.364 -11.606 -6.219 -15.719 z" style="opacity:0.1"/>
  <path d="m 31.25 2.375 c 8.615 3.154 14.75 11.417 14.75 21.13 c 0 12.426 -10.07 22.5 -22.5 22.5 c -9.708 0 -17.971 -6.135 -21.12 -14.75 a 23 23 0 0 0 44.875 -7 a 23 23 0 0 0 -16 -21.875 z" style="opacity:0.2"/>
 </g>
 <g>
  <path d="m 24 1 c 12.703 0 23 10.297 23 23 c 0 12.703 -10.297 23 -23 23 -12.703 0 -23 -10.297 -23 -23 0 -12.703 10.297 -23 23 -23 z" style="fill:url(#linearGradient3764);fill-opacity:1"/>
 </g>
 <g>
  <g>
   <g transform="translate(1,1)">
    <g style="opacity:0.1">
     <!-- color: #7f7bc5 -->
     <g>
      <path d="m 16.07 35.832 c 0 0 1.559 0.453 3.629 0.711 c 0.84 0.102 4.04 0.469 6.484 0.457 c 0 0 2.984 0.004 4.629 -0.23 c 1.723 -0.246 2.699 -0.555 3.242 -1.176 c 0.016 -0.148 0.262 -0.633 -0.406 -1.098 c -1.715 -1.184 -3.926 -1.512 -8.227 -2.527 c -4.754 -1.191 -6.176 -2.328 -6.883 -3.156 c -0.676 -0.824 0.125 -2.539 3.957 -3.383 c 1.938 -0.469 9.164 -0.555 9.164 -0.555 c -2.074 -1.637 -5.965 -4.57 -6.758 -5.191 c -0.699 -0.547 -1.82 -1.387 -1.941 -2.137 c -0.164 -0.73 0.992 -1.082 1.602 -1.125 c 1.969 -0.133 4.66 0.098 7.05 0.566 c 1.203 0.238 1.414 0.203 1.414 0.203 c 1.711 0.082 3.043 -0.813 2.973 -2.688 c -0.016 -1.906 -1.926 -3.434 -4.047 -3.5 c -1.996 -0.066 -6.914 0.281 -6.914 0.281 c 5.734 1.176 6.672 1.477 6.969 2.16 c 0.176 0.406 -0.297 0.809 -1.875 0.73 c -1.719 -0.086 -5.246 -0.5 -5.246 -0.5 c -3.355 -0.52 -5.688 -0.996 -6.711 0.328 c -0.664 0.855 0.098 1.918 0.395 2.531 c 1.332 2.316 3.633 3.898 5.094 5.02 c 0.547 0.422 2.227 1.348 2.227 1.348 c -5.215 -1.418 -9.371 -0.617 -12.01 0.758 c -3.03 1.789 -2.52 4.797 2.297 7.613 c 2.836 1.66 4.25 2.461 8.895 3.03 c 2.723 0.434 3.125 0.609 3.105 0.836 c -0.027 0.316 -3.215 0.434 -4.094 0.496 c -2.23 0.152 -7.988 0.191 -8.02 0.191 m 0.004 0.004" style="fill:#000;fill-opacity:1;stroke:none;fill-rule:evenodd"/>
     </g>
    </g>
   </g>
  </g>
 </g>
 <g>
  <g>
   <!-- color: #7f7bc5 -->
   <g>
    <path d="m 16.07 35.832 c 0 0 1.559 0.453 3.629 0.711 c 0.84 0.102 4.04 0.469 6.484 0.457 c 0 0 2.984 0.004 4.629 -0.23 c 1.723 -0.246 2.699 -0.555 3.242 -1.176 c 0.016 -0.148 0.262 -0.633 -0.406 -1.098 c -1.715 -1.184 -3.926 -1.512 -8.227 -2.527 c -4.754 -1.191 -6.176 -2.328 -6.883 -3.156 c -0.676 -0.824 0.125 -2.539 3.957 -3.383 c 1.938 -0.469 9.164 -0.555 9.164 -0.555 c -2.074 -1.637 -5.965 -4.57 -6.758 -5.191 c -0.699 -0.547 -1.82 -1.387 -1.941 -2.137 c -0.164 -0.73 0.992 -1.082 1.602 -1.125 c 1.969 -0.133 4.66 0.098 7.05 0.566 c 1.203 0.238 1.414 0.203 1.414 0.203 c 1.711 0.082 3.043 -0.813 2.973 -2.688 c -0.016 -1.906 -1.926 -3.434 -4.047 -3.5 c -1.996 -0.066 -6.914 0.281 -6.914 0.281 c 5.734 1.176 6.672 1.477 6.969 2.16 c 0.176 0.406 -0.297 0.809 -1.875 0.73 c -1.719 -0.086 -5.246 -0.5 -5.246 -0.5 c -3.355 -0.52 -5.688 -0.996 -6.711 0.328 c -0.664 0.855 0.098 1.918 0.395 2.531 c 1.332 2.316 3.633 3.898 5.094 5.02 c 0.547 0.422 2.227 1.348 2.227 1.348 c -5.215 -1.418 -9.371 -0.617 -12.01 0.758 c -3.03 1.789 -2.52 4.797 2.297 7.613 c 2.836 1.66 4.25 2.461 8.895 3.03 c 2.723 0.434 3.125 0.609 3.105 0.836 c -0.027 0.316 -3.215 0.434 -4.094 0.496 c -2.23 0.152 -7.988 0.191 -8.02 0.191 m 0.004 0.004" style="fill:#f9f9f9;fill-opacity:1;stroke:none;fill-rule:evenodd"/>
   </g>
  </g>
 </g>
 <g>
  <path d="m 40.03 7.531 c 3.712 4.084 5.969 9.514 5.969 15.469 0 12.703 -10.297 23 -23 23 c -5.954 0 -11.384 -2.256 -15.469 -5.969 4.178 4.291 10.01 6.969 16.469 6.969 c 12.703 0 23 -10.298 23 -23 0 -6.462 -2.677 -12.291 -6.969 -16.469 z" style="opacity:0.1"/>
 </g>
</svg>
