<svg xmlns="http://www.w3.org/2000/svg" viewBox="0 0 48 48">
 <defs>
  <linearGradient id="linearGradient3764" x1="1" x2="47" gradientUnits="userSpaceOnUse" gradientTransform="matrix(0,-1,1,0,-1.5e-6,47.999998)">
   <stop style="stop-color:#e4e4e4;stop-opacity:1"/>
   <stop offset="1" style="stop-color:#eee;stop-opacity:1"/>
  </linearGradient>
  <linearGradient y2="3.621" x2="23.668" y1="36.865" x1="23.295" gradientTransform="scale(0.28222223,0.28222223)" gradientUnits="userSpaceOnUse" id="linearGradient3901">
   <stop style="stop-color:#5bcc01;stop-opacity:1"/>
   <stop offset="1" style="stop-color:#b7fb3b;stop-opacity:0"/>
  </linearGradient>
 </defs>
 <g>
  <path d="m 36.31 5 c 5.859 4.062 9.688 10.831 9.688 18.5 c 0 12.426 -10.07 22.5 -22.5 22.5 c -7.669 0 -14.438 -3.828 -18.5 -9.688 c 1.037 1.822 2.306 3.499 3.781 4.969 c 4.085 3.712 9.514 5.969 15.469 5.969 c 12.703 0 23 -10.298 23 -23 c 0 -5.954 -2.256 -11.384 -5.969 -15.469 c -1.469 -1.475 -3.147 -2.744 -4.969 -3.781 z m 4.969 3.781 c 3.854 4.113 6.219 9.637 6.219 15.719 c 0 12.703 -10.297 23 -23 23 c -6.081 0 -11.606 -2.364 -15.719 -6.219 c 4.16 4.144 9.883 6.719 16.219 6.719 c 12.703 0 23 -10.298 23 -23 c 0 -6.335 -2.575 -12.06 -6.719 -16.219 z" style="opacity:0.05"/>
  <path d="m 41.28 8.781 c 3.712 4.085 5.969 9.514 5.969 15.469 c 0 12.703 -10.297 23 -23 23 c -5.954 0 -11.384 -2.256 -15.469 -5.969 c 4.113 3.854 9.637 6.219 15.719 6.219 c 12.703 0 23 -10.298 23 -23 c 0 -6.081 -2.364 -11.606 -6.219 -15.719 z" style="opacity:0.1"/>
  <path d="m 31.25 2.375 c 8.615 3.154 14.75 11.417 14.75 21.13 c 0 12.426 -10.07 22.5 -22.5 22.5 c -9.708 0 -17.971 -6.135 -21.12 -14.75 a 23 23 0 0 0 44.875 -7 a 23 23 0 0 0 -16 -21.875 z" style="opacity:0.2"/>
 </g>
 <g>
  <path d="m 24 1 c 12.703 0 23 10.297 23 23 c 0 12.703 -10.297 23 -23 23 -12.703 0 -23 -10.297 -23 -23 0 -12.703 10.297 -23 23 -23 z" style="fill:url(#linearGradient3764);fill-opacity:1"/>
 </g>
 <g>
  <path d="m 40.03 7.531 c 3.712 4.084 5.969 9.514 5.969 15.469 0 12.703 -10.297 23 -23 23 c -5.954 0 -11.384 -2.256 -15.469 -5.969 4.178 4.291 10.01 6.969 16.469 6.969 c 12.703 0 23 -10.298 23 -23 0 -6.462 -2.677 -12.291 -6.969 -16.469 z" style="opacity:0.1"/>
 </g>
 <g transform="matrix(3.543307,0,0,3.543307,-1.65075e-4,8.725e-6)">
  <g>
   <path d="M 3.228,9.543 Z M 8.132,4.075 9.843,6.112 10.046,8.22 9.252,9.181 3.634,9.516 3.511,9.825 9.531,9.463 10.325,8.502 10.122,6.394 8.208,4.119 Z" style="visibility:visible;fill:#000;fill-opacity:0.098;stroke:none;display:inline;color:#000"/>
   <path d="M 3.295,9.476 5.51,4.001 6.717,3.227 7.869,3.857 9.761,6.107 9.958,8.161 9.202,9.115 m -5.907,0.36" style="fill:url(#linearGradient3901);stroke:none;fill-rule:nonzero"/>
   <path d="M 6.731,3.184 5.47,3.987 3.225,9.547 9.255,9.179 10.049,8.22 9.846,6.112 7.932,3.837 Z M 6.74,3.343 7.719,3.881 5.682,4.022 Z M 7.895,4.013 9.668,6.112 9.43,7.356 8.222,6.933 7.314,5.398 7.411,4.049 Z M 7.26,4.057 7.172,5.327 5.584,6.337 5.602,4.167 Z M 5.461,4.401 5.443,6.315 3.547,9.128 Z M 7.198,5.486 8.071,6.968 7.163,8.379 5.655,6.456 Z M 9.738,6.447 9.906,8.184 9.262,8.987 Z M 5.496,6.482 6.995,8.396 3.6,9.304 Z M 8.186,7.064 9.403,7.496 9.112,9.048 8.124,9.11 7.269,8.466 Z M 7.101,8.51 7.895,9.119 3.9,9.366 Z" style="visibility:visible;fill:#5fb10b;fill-opacity:1;stroke:none;display:inline;color:#000"/>
  </g>
 </g>
</svg>
