<svg version="1.1" viewBox="0 0 48 48" xmlns="http://www.w3.org/2000/svg">
 <defs>
  <linearGradient id="bg" x2="0" y1="1" y2="47" gradientUnits="userSpaceOnUse">
   <stop style="stop-color:#435260" offset="0"/>
   <stop style="stop-color:#3a4854" offset="1"/>
  </linearGradient>
 </defs>
 <path d="m36.3 5c5.86 4.06 9.69 10.8 9.69 18.5 0 12.4-10.1 22.5-22.5 22.5-7.67 0-14.4-3.83-18.5-9.69 1.04 1.82 2.31 3.5 3.78 4.97 4.08 3.71 9.51 5.97 15.5 5.97 12.7 0 23-10.3 23-23 0-5.95-2.26-11.4-5.97-15.5-1.47-1.48-3.15-2.74-4.97-3.78zm4.97 3.78c3.85 4.11 6.22 9.64 6.22 15.7 0 12.7-10.3 23-23 23-6.08 0-11.6-2.36-15.7-6.22 4.16 4.14 9.88 6.72 16.2 6.72 12.7 0 23-10.3 23-23 0-6.34-2.58-12.1-6.72-16.2z" style="opacity:.05"/>
 <path d="m41.3 8.78c3.71 4.08 5.97 9.51 5.97 15.5 0 12.7-10.3 23-23 23-5.95 0-11.4-2.26-15.5-5.97 4.11 3.85 9.64 6.22 15.7 6.22 12.7 0 23-10.3 23-23 0-6.08-2.36-11.6-6.22-15.7z" style="opacity:.1"/>
 <path d="m31.2 2.38c8.62 3.15 14.8 11.4 14.8 21.1 0 12.4-10.1 22.5-22.5 22.5-9.71 0-18-6.14-21.1-14.8a23 23 0 0 0 44.9-7 23 23 0 0 0-16-21.9z" style="opacity:.2"/>
 <circle cx="24" cy="24" r="23" style="fill:url(#bg);stroke-width:2"/>
 <path d="m40 7.53c3.71 4.08 5.97 9.51 5.97 15.5 0 12.7-10.3 23-23 23-5.95 0-11.4-2.26-15.5-5.97 4.18 4.29 10 6.97 16.5 6.97 12.7 0 23-10.3 23-23 0-6.46-2.68-12.3-6.97-16.5z" style="opacity:.1"/>
 <path d="m24 13a2 2 0 0 0-2 2 2 2 0 0 0 2 2 2 2 0 0 0 2-2 2 2 0 0 0-2-2zm0 1a1 1 0 0 1 1 1 1 1 0 0 1-1 1 1 1 0 0 1-1-1 1 1 0 0 1 1-1zm2.97 0.637c0.0158 0.12 0.0243 0.242 0.0254 0.363-7.02e-4 0.562-0.159 1.11-0.457 1.59l3.48 0.775c-0.0158-0.12-0.0243-0.242-0.0254-0.363 9.22e-4 -0.562 0.16-1.11 0.459-1.59zm6.03 0.363a2 2 0 0 0-2 2 2 2 0 0 0 2 2 2 2 0 0 0 2-2 2 2 0 0 0-2-2zm-12 0.496-4.06 2.26c0.515 0.454 0.858 1.07 0.973 1.75l4.06-2.26c-0.514-0.455-0.857-1.07-0.971-1.75zm12 0.504a1 1 0 0 1 1 1 1 1 0 0 1-1 1 1 1 0 0 1-1-1 1 1 0 0 1 1-1zm-18 2a2 2 0 0 0-2 2 2 2 0 0 0 2 2 2 2 0 0 0 2-2 2 2 0 0 0-2-2zm15.2 0.107-3.75 3.28c0.599 0.336 1.06 0.867 1.32 1.5l3.75-3.28c-0.598-0.336-1.06-0.867-1.32-1.5zm-15.2 0.893a1 1 0 0 1 1 1 1 1 0 0 1-1 1 1 1 0 0 1-1-1 1 1 0 0 1 1-1zm3 1.12c-0.0291 0.685-0.292 1.34-0.744 1.85l4.75 1.9c0.0291-0.685 0.292-1.34 0.744-1.85zm7 1.88a2 2 0 0 0-2 2 2 2 0 0 0 2 2 2 2 0 0 0 2-2 2 2 0 0 0-2-2zm-9 0.824c-0.321 0.115-0.659 0.174-1 0.176-0.341-7.24e-4 -0.679-0.0595-1-0.174v4.35c0.321-0.115 0.659-0.174 1-0.176 0.341 7.24e-4 0.679 0.0595 1 0.174zm9 0.176a1 1 0 0 1 1 1 1 1 0 0 1-1 1 1 1 0 0 1-1-1 1 1 0 0 1 1-1zm10 0a2 2 0 0 0-2 2 2 2 0 0 0 2 2 2 2 0 0 0 2-2 2 2 0 0 0-2-2zm-7.09 0.287c0.0584 0.233 0.0886 0.473 0.0898 0.713-7.84e-4 0.441-0.0988 0.877-0.287 1.28l4.38 0.439c-0.0592-0.234-0.09-0.474-0.0918-0.715 7.84e-4 -0.441 0.0988-0.877 0.287-1.28zm7.09 0.713a1 1 0 0 1 1 1 1 1 0 0 1-1 1 1 1 0 0 1-1-1 1 1 0 0 1 1-1zm-12.9 0.6-5.15 3.09c0.529 0.437 0.892 1.04 1.03 1.71l5.15-3.09c-0.528-0.436-0.892-1.04-1.03-1.71zm4.19 2.12c-0.392 0.182-0.82 0.276-1.25 0.277-0.25-9.62e-4 -0.498-0.0331-0.74-0.0957l0.49 5.4c0.426-0.202 0.894-0.307 1.37-0.309 0.208 9.34e-4 0.415 0.0219 0.619 0.0625zm7.47 0.99-0.438 4.38c0.233-0.0584 0.473-0.0886 0.713-0.0898 0.441 7.84e-4 0.877 0.0988 1.28 0.287l0.438-4.38c-0.233 0.0584-0.473 0.0886-0.713 0.0898-0.441-7.84e-4 -0.877-0.0988-1.28-0.287zm-18.7 0.287a2 2 0 0 0-2 2 2 2 0 0 0 2 2 2 2 0 0 0 2-2 2 2 0 0 0-2-2zm0 1a1 1 0 0 1 1 1 1 1 0 0 1-1 1 1 1 0 0 1-1-1 1 1 0 0 1 1-1zm2.99 1.26c-0.0592 0.683-0.351 1.33-0.826 1.82l5.85 2.66c0.0611-0.678 0.36-1.32 0.848-1.81zm8.01 2.74a2 2 0 0 0-2 2 2 2 0 0 0 2 2 2 2 0 0 0 2-2 2 2 0 0 0-2-2zm8 0a2 2 0 0 0-2 2 2 2 0 0 0 2 2 2 2 0 0 0 2-2 2 2 0 0 0-2-2zm-8 1a1 1 0 0 1 1 1 1 1 0 0 1-1 1 1 1 0 0 1-1-1 1 1 0 0 1 1-1zm8 0a1 1 0 0 1 1 1 1 1 0 0 1-1 1 1 1 0 0 1-1-1 1 1 0 0 1 1-1z" style="opacity:.1"/>
 <path d="m14 16a2 2 0 0 0-2 2 2 2 0 0 0 2 2 2 2 0 0 0 2-2 2 2 0 0 0-2-2zm0 1a1 1 0 0 1 1 1 1 1 0 0 1-1 1 1 1 0 0 1-1-1 1 1 0 0 1 1-1z" style="fill:#ebe89c"/>
 <path d="m14 26a2 2 0 0 0-2 2 2 2 0 0 0 2 2 2 2 0 0 0 2-2 2 2 0 0 0-2-2zm0 1a1 1 0 0 1 1 1 1 1 0 0 1-1 1 1 1 0 0 1-1-1 1 1 0 0 1 1-1z" style="fill:#ea9fd6"/>
 <path d="m25 31a2 2 0 0 0-2 2 2 2 0 0 0 2 2 2 2 0 0 0 2-2 2 2 0 0 0-2-2zm0 1a1 1 0 0 1 1 1 1 1 0 0 1-1 1 1 1 0 0 1-1-1 1 1 0 0 1 1-1z" style="fill:#9beab5"/>
 <path d="m23 11a2 2 0 0 0-2 2 2 2 0 0 0 2 2 2 2 0 0 0 2-2 2 2 0 0 0-2-2zm0 1a1 1 0 0 1 1 1 1 1 0 0 1-1 1 1 1 0 0 1-1-1 1 1 0 0 1 1-1z" style="fill:#ada4ec"/>
 <path d="m34 21a2 2 0 0 0-2 2 2 2 0 0 0 2 2 2 2 0 0 0 2-2 2 2 0 0 0-2-2zm0 1a1 1 0 0 1 1 1 1 1 0 0 1-1 1 1 1 0 0 1-1-1 1 1 0 0 1 1-1z" style="fill:#9ac6f1"/>
 <path d="m24 20a2 2 0 0 0-2 2 2 2 0 0 0 2 2 2 2 0 0 0 2-2 2 2 0 0 0-2-2zm0 1a1 1 0 0 1 1 1 1 1 0 0 1-1 1 1 1 0 0 1-1-1 1 1 0 0 1 1-1z" style="fill:#f1afaf"/>
 <path d="m32 13a2 2 0 0 0-2 2 2 2 0 0 0 2 2 2 2 0 0 0 2-2 2 2 0 0 0-2-2zm0 1a1 1 0 0 1 1 1 1 1 0 0 1-1 1 1 1 0 0 1-1-1 1 1 0 0 1 1-1z" style="fill:#f1d2af"/>
 <path d="m26 12.6c0.0158 0.12 0.0243 0.242 0.0254 0.363-7.02e-4 0.562-0.159 1.11-0.457 1.59l3.48 0.775c-0.0158-0.12-0.0243-0.242-0.0254-0.363 9.22e-4 -0.562 0.16-1.11 0.459-1.59zm-5.93 0.859-4.06 2.26c0.515 0.454 0.858 1.07 0.973 1.75l4.06-2.26c-0.514-0.455-0.857-1.07-0.971-1.75zm9.17 2.61-3.75 3.28c0.599 0.336 1.06 0.867 1.32 1.5l3.75-3.28c-0.598-0.336-1.06-0.867-1.32-1.5zm-12.2 2.02c-0.0291 0.685-0.292 1.34-0.744 1.85l4.75 1.9c0.0291-0.685 0.292-1.34 0.744-1.85zm-2 2.7c-0.321 0.115-0.659 0.174-1 0.176-0.341-7.24e-4 -0.679-0.0595-1-0.174v4.35c0.321-0.115 0.659-0.174 1-0.176 0.341 7.24e-4 0.679 0.0595 1 0.174zm11.9 0.463c0.0584 0.233 0.0886 0.473 0.0898 0.713-7.84e-4 0.441-0.0988 0.877-0.287 1.28l4.38 0.439c-0.0592-0.234-0.09-0.474-0.0918-0.715 7.84e-4 -0.441 0.0988-0.877 0.287-1.28zm-5.85 1.31-5.15 3.09c0.529 0.437 0.892 1.04 1.03 1.71l5.15-3.09c-0.528-0.436-0.892-1.04-1.03-1.71zm4.19 2.12c-0.392 0.182-0.82 0.276-1.25 0.277-0.25-9.62e-4 -0.498-0.0331-0.74-0.0957l0.49 5.4c0.426-0.202 0.894-0.307 1.37-0.309 0.208 9.34e-4 0.415 0.0219 0.619 0.0625zm7.47 0.99-0.438 4.38c0.233-0.0584 0.473-0.0886 0.713-0.0898 0.441 7.84e-4 0.877 0.0988 1.28 0.287l0.438-4.38c-0.233 0.0584-0.473 0.0886-0.713 0.0898-0.441-7.84e-4 -0.877-0.0988-1.28-0.287zm-15.7 2.55c-0.0592 0.683-0.351 1.33-0.826 1.82l5.85 2.66c0.0611-0.678 0.36-1.32 0.848-1.81z" style="fill:#7c8892"/>
 <path d="m33 31a2 2 0 0 0-2 2 2 2 0 0 0 2 2 2 2 0 0 0 2-2 2 2 0 0 0-2-2zm0 1a1 1 0 0 1 1 1 1 1 0 0 1-1 1 1 1 0 0 1-1-1 1 1 0 0 1 1-1z" style="fill:#9be2ea"/>
</svg>
