<?xml version="1.0" encoding="UTF-8"?>
<svg version="1.1" viewBox="0 0 48 48" xmlns="http://www.w3.org/2000/svg" xmlns:xlink="http://www.w3.org/1999/xlink">
 <defs>
  <linearGradient id="bg" x2="0" y1="1" y2="47" gradientUnits="userSpaceOnUse">
   <stop style="stop-color:#aaacc8" offset="0"/>
   <stop style="stop-color:#9ea0c0" offset="1"/>
  </linearGradient>
 </defs>
 <path d="m36.3 5c5.86 4.06 9.69 10.8 9.69 18.5 0 12.4-10.1 22.5-22.5 22.5-7.67 0-14.4-3.83-18.5-9.69 1.04 1.82 2.31 3.5 3.78 4.97 4.08 3.71 9.51 5.97 15.5 5.97 12.7 0 23-10.3 23-23 0-5.95-2.26-11.4-5.97-15.5-1.47-1.48-3.15-2.74-4.97-3.78zm4.97 3.78c3.85 4.11 6.22 9.64 6.22 15.7 0 12.7-10.3 23-23 23-6.08 0-11.6-2.36-15.7-6.22 4.16 4.14 9.88 6.72 16.2 6.72 12.7 0 23-10.3 23-23 0-6.34-2.58-12.1-6.72-16.2z" style="opacity:.05"/>
 <path d="m41.3 8.78c3.71 4.08 5.97 9.51 5.97 15.5 0 12.7-10.3 23-23 23-5.95 0-11.4-2.26-15.5-5.97 4.11 3.85 9.64 6.22 15.7 6.22 12.7 0 23-10.3 23-23 0-6.08-2.36-11.6-6.22-15.7z" style="opacity:.1"/>
 <path d="m31.2 2.38c8.62 3.15 14.8 11.4 14.8 21.1 0 12.4-10.1 22.5-22.5 22.5-9.71 0-18-6.14-21.1-14.8a23 23 0 0 0 44.9-7 23 23 0 0 0-16-21.9z" style="opacity:.2"/>
 <path d="m24 1c12.7 0 23 10.3 23 23s-10.3 23-23 23-23-10.3-23-23 10.3-23 23-23z" style="fill:url(#bg)"/>
 <path d="m40 7.53c3.71 4.08 5.97 9.51 5.97 15.5 0 12.7-10.3 23-23 23-5.95 0-11.4-2.26-15.5-5.97 4.18 4.29 10 6.97 16.5 6.97 12.7 0 23-10.3 23-23 0-6.46-2.68-12.3-6.97-16.5z" style="opacity:.1"/>
 <path d="m25 9.99c-8.28 0-15 6.72-15 15 0 8.28 6.72 15 15 15 8.28 0 15-6.72 15-15 0-8.28-6.72-15-15-15z" style="opacity:.1"/>
 <path d="m24 9c-8.28 0-15 6.72-15 15s6.72 15 15 15 15-6.72 15-15c0-8.28-6.72-15-15-15z" style="fill:#555"/>
 <path d="m24 12c-6.62 0-12 5.37-12 12 0 6.62 5.37 12 12 12 6.62 0 12-5.37 12-12 0-6.62-5.37-12-12-12z" style="fill:#57869e"/>
 <path d="m24 16c-4.42 0-8 3.58-8 8 0 4.42 3.58 8 8 8 4.42 0 8-3.58 8-8 0-4.42-3.58-8-8-8z" style="fill:#8baec6"/>
 <path d="m24 18c-3.31 0-6 2.69-6 6 0 3.31 2.69 6 6 6 3.31 0 6-2.69 6-6 0-3.31-2.69-6-6-6z" style="fill:#395a6a"/>
 <path d="m24 19c-1.1 0-2 0.895-2 2s0.895 2 2 2 2-0.895 2-2-0.895-2-2-2zm0 6c-0.551 0-1 0.449-1 1s0.449 1 1 1 1-0.449 1-1-0.449-1-1-1z" style="fill:#aac3d5;opacity:.6"/>
 <path d="m24 30c-3.04 0-5.5 1.16-5.5 2.62 0 0.691 0.508 1.43 1.47 1.8 1.28 0.486 2.74 0.59 4.22 0.59 1.13 0 2.26-0.0412 3.28-0.359 1.25-0.392 2.03-1.21 2.03-2.03 0-1.45-2.46-2.62-5.5-2.62z" style="fill:#6883ba;opacity:.6"/>
 <path d="m28 18a4 2 0 1 1-8 0 4 2 0 1 1 8 0z" style="fill:#508b7f;opacity:.6"/>
 <path d="m29 15a5 2 0 1 1-10 0 5 2 0 1 1 10 0z" style="fill:#44aac5;opacity:.6"/>
</svg>
