<svg version="1.1" viewBox="0 0 48 48" xmlns="http://www.w3.org/2000/svg">
 <defs>
  <linearGradient id="bg" x2="0" y1="1" y2="47" gradientUnits="userSpaceOnUse">
   <stop style="stop-color:#9ccc58" offset="0"/>
   <stop style="stop-color:#93c849" offset="1"/>
  </linearGradient>
 </defs>
 <path d="m36.31 5c5.859 4.062 9.688 10.831 9.688 18.5 0 12.426-10.07 22.5-22.5 22.5-7.669 0-14.438-3.828-18.5-9.688 1.037 1.822 2.306 3.499 3.781 4.969 4.085 3.712 9.514 5.969 15.469 5.969 12.703 0 23-10.298 23-23 0-5.954-2.256-11.384-5.969-15.469-1.469-1.475-3.147-2.744-4.969-3.781zm4.969 3.781c3.854 4.113 6.219 9.637 6.219 15.719 0 12.703-10.297 23-23 23-6.081 0-11.606-2.364-15.719-6.219 4.16 4.144 9.883 6.719 16.219 6.719 12.703 0 23-10.298 23-23 0-6.335-2.575-12.06-6.719-16.219z" style="opacity:.05"/>
 <path d="m41.28 8.781c3.712 4.085 5.969 9.514 5.969 15.469 0 12.703-10.297 23-23 23-5.954 0-11.384-2.256-15.469-5.969 4.113 3.854 9.637 6.219 15.719 6.219 12.703 0 23-10.298 23-23 0-6.081-2.364-11.606-6.219-15.719z" style="opacity:.1"/>
 <path d="m31.25 2.375c8.615 3.154 14.75 11.417 14.75 21.13 0 12.426-10.07 22.5-22.5 22.5-9.708 0-17.971-6.135-21.12-14.75a23 23 0 0 0 44.875-7 23 23 0 0 0-16-21.875z" style="opacity:.2"/>
 <circle cx="24" cy="24" r="23" style="fill:url(#bg)"/>
 <path d="m14 14c-1.108 0-2 0.892-2 2v18c0 1.108 0.892 2 2 2h22c1.108 0 2-0.892 2-2v-18c0-1.108-0.892-2-2-2z" style="opacity:.1;stroke-width:3.5433"/>
 <path d="m40.03 7.531c3.712 4.084 5.969 9.514 5.969 15.469 0 12.703-10.297 23-23 23-5.954 0-11.384-2.256-15.469-5.969 4.178 4.291 10.01 6.969 16.469 6.969 12.703 0 23-10.298 23-23 0-6.462-2.677-12.291-6.969-16.469z" style="opacity:.1"/>
 <g transform="translate(1,1)">
  <g style="opacity:.1"></g>
 </g>
 <path d="m11.8 13.8v20.4h24.4l1e-6 -20.4z" style="fill:#2c87d5;stroke-width:3.5433"/>
 <path d="m20.592 13.323-8.5323 0.65551-0.8752 9.7795c0.59882 0.14173 1.1744 0.24212 1.8157 0.24212 4.4185 0 8-3.578 8-8 0-0.93189-0.11772-1.848-0.40827-2.6807z" style="fill:#fff;opacity:.2;stroke-width:3.5433"/>
 <path d="m11.9 13.9-3.94e-4 5.7329c0.45354 0.2126 1.0652 0.36687 1.6002 0.36687 1.9346 0 3.5-1.5654 3.5-3.5 0-0.9815-0.34803-1.9624-1-2.6002z" style="fill:#fbc06e;stroke-width:3.5433"/>
 <path d="m17.059 25.98-5.0591 5.0205-0.2 3 11.2 0.2z" style="fill:#f7f7f7;stroke-width:3.5433"/>
 <path d="m17.059 25.98 0.94094 4.0205-2 2 1 2.2 9-0.2z" style="fill:#dfdfdf;stroke-width:3.5433"/>
 <path d="m30 22-9 12.2h15z" style="fill:#f7f7f7;stroke-width:3.5433"/>
 <path d="m30 22 1.5583 4.9787-1.5583 4.0213 2 3.2h4l0.14999-5.6z" style="fill:#dfdfdf;stroke-width:3.5433"/>
 <path d="m13 13c-1.108 0-2 0.892-2 2v18c0 1.108 0.892 2 2 2h22c1.108 0 2-0.892 2-2v-18c0-1.108-0.892-2-2-2zm0.05859 0.97852h21.941c0.554 0 1 0.446 1 1v18.021c0 0.554-0.446 1-1 1h-21.941c-0.554 0-1-0.446-1-1v-18.021c0-0.554 0.446-1 1-1z" style="fill:#f9f9f9;paint-order:normal"/>
</svg>
