<svg xmlns="http://www.w3.org/2000/svg" viewBox="0 0 48 48">
 <defs>
  <linearGradient id="linearGradient3764" x1="1" x2="47" gradientUnits="userSpaceOnUse" gradientTransform="matrix(0,-1,1,0,-1.5e-6,47.999998)">
   <stop style="stop-color:#c1e0a6;stop-opacity:1"/>
   <stop offset="1" style="stop-color:#cae5b3;stop-opacity:1"/>
  </linearGradient>
 </defs>
 <g>
  <path d="m 36.31 5 c 5.859 4.062 9.688 10.831 9.688 18.5 c 0 12.426 -10.07 22.5 -22.5 22.5 c -7.669 0 -14.438 -3.828 -18.5 -9.688 c 1.037 1.822 2.306 3.499 3.781 4.969 c 4.085 3.712 9.514 5.969 15.469 5.969 c 12.703 0 23 -10.298 23 -23 c 0 -5.954 -2.256 -11.384 -5.969 -15.469 c -1.469 -1.475 -3.147 -2.744 -4.969 -3.781 z m 4.969 3.781 c 3.854 4.113 6.219 9.637 6.219 15.719 c 0 12.703 -10.297 23 -23 23 c -6.081 0 -11.606 -2.364 -15.719 -6.219 c 4.16 4.144 9.883 6.719 16.219 6.719 c 12.703 0 23 -10.298 23 -23 c 0 -6.335 -2.575 -12.06 -6.719 -16.219 z" style="opacity:0.05"/>
  <path d="m 41.28 8.781 c 3.712 4.085 5.969 9.514 5.969 15.469 c 0 12.703 -10.297 23 -23 23 c -5.954 0 -11.384 -2.256 -15.469 -5.969 c 4.113 3.854 9.637 6.219 15.719 6.219 c 12.703 0 23 -10.298 23 -23 c 0 -6.081 -2.364 -11.606 -6.219 -15.719 z" style="opacity:0.1"/>
  <path d="m 31.25 2.375 c 8.615 3.154 14.75 11.417 14.75 21.13 c 0 12.426 -10.07 22.5 -22.5 22.5 c -9.708 0 -17.971 -6.135 -21.12 -14.75 a 23 23 0 0 0 44.875 -7 a 23 23 0 0 0 -16 -21.875 z" style="opacity:0.2"/>
 </g>
 <g>
  <path d="m 24 1 c 12.703 0 23 10.297 23 23 c 0 12.703 -10.297 23 -23 23 -12.703 0 -23 -10.297 -23 -23 0 -12.703 10.297 -23 23 -23 z" style="fill:url(#linearGradient3764);fill-opacity:1"/>
 </g>
 <g>
  <g>
   <g transform="translate(1,1)">
    <g style="opacity:0.1">
     <!-- color: #b6b6b6 -->
    </g>
   </g>
  </g>
 </g>
 <g transform="translate(-1.8259104e-4,0)">
  <g>
   <!-- color: #b6b6b6 -->
  </g>
 </g>
 <g>
  <path d="m 40.03 7.531 c 3.712 4.084 5.969 9.514 5.969 15.469 0 12.703 -10.297 23 -23 23 c -5.954 0 -11.384 -2.256 -15.469 -5.969 4.178 4.291 10.01 6.969 16.469 6.969 c 12.703 0 23 -10.298 23 -23 0 -6.462 -2.677 -12.291 -6.969 -16.469 z" style="opacity:0.1"/>
 </g>
 <path d="m 25 13 c -4 0 -6 1 -6 2.75 l 0 2.25 l 6 0 l 0 1 l -8.25 0 c -1.939 0 -3.75 2 -3.75 6 c 0 4 1.811 6 3.75 6 l 1.25 0 l 0 -3.5 c 0 -1.662 1.338 -3 3 -3 l 7 0 c 1.662 0 3 -1.338 3 -3 l 0 -5.75 c 0 -1.75 -2 -2.75 -6 -2.75 z m 6.996 6 l 0 3.5 c 0 1.662 -1.338 3 -3 3 l -7 0 c -1.662 0 -3 1.338 -3 3 l 0 5.75 c 0 1.75 2 2.75 6 2.75 c 4 0 6 -1 6 -2.75 l 0 -2.25 l -6 0 l 0 -1 l 8.25 0 c 1.939 0 3.754 -2 3.754 -6 c 0 -4 -1.815 -6 -3.754 -6 l -1.25 0 z" style="fill:#000;opacity:0.1;fill-opacity:1;stroke:none"/>
 <path d="m 24,12 c -4,0 -6,1 -6,2.75 l 0,2.25 6,0 0,1 -8.25,0 C 13.811,18 12,20 12,24 c 0,4 1.811,6 3.75,6 l 1.25,0 0,-3.5 c 0,-1.662 1.338,-3 3,-3 l 7,0 c 1.662,0 3,-1.338 3,-3 l 0,-5.75 C 30,13 28,12 24,12 Z" style="fill:#7bb54b;opacity:1;fill-opacity:1;stroke:none"/>
 <path d="m 23.997,36 c 4,0 6,-1 6,-2.75 l 0,-2.25 -6,0 0,-1 8.25,0 C 34.186,30 36,28 36,24 36,20 34.186,18 32.247,18 l -1.25,0 0,3.5 c 0,1.662 -1.338,3 -3,3 l -7,0 c -1.662,0 -3,1.338 -3,3 l 0,5.75 c 0,1.75 2,2.75 6,2.75 z" style="fill:#7bb54b;opacity:1;fill-opacity:1;stroke:none"/>
 <circle cx="21" cy="15" r="1" style="fill:#4f5838;opacity:1;fill-opacity:1;stroke:none"/>
 <circle cx="27" cy="33" r="1" style="fill:#4f5838;opacity:1;fill-opacity:1;stroke:none"/>
 <path d="m 19.297 23 -4.297 2 2.055 0.955 c 0.255 -1.4 1.47 -2.457 2.945 -2.457 m 10.582 -0.5 c -0.518 0.894 -1.474 1.5 -2.586 1.5 l -7 0 c -1.303 0 -2.396 0.827 -2.813 1.982 l 1.113 0.518 15.14 0 c 0 0 0.563 -0.324 0.563 -1.998 0 -1.615 -0.633 -2 -0.633 -2" style="fill:#000;opacity:0.1;fill-opacity:1;stroke:none;fill-rule:nonzero"/>
 <path d="m 18.297 22 -4.297 2 4.297 1.998 15.14 0 c 0 0 0.562 -0.324 0.562 -1.998 c 0 -1.615 -0.633 -2 -0.633 -2 l -15.07 0 z" style="fill:#e56767;fill-opacity:1;stroke:none;fill-rule:nonzero"/>
</svg>
