<svg version="1.1" viewBox="0 0 48 48" xmlns="http://www.w3.org/2000/svg">
 <defs>
  <linearGradient id="bg" x2="0" y1="1" y2="47" gradientUnits="userSpaceOnUse">
   <stop style="stop-color:#485b54" offset="0"/>
   <stop style="stop-color:#3f4f49" offset="1"/>
  </linearGradient>
 </defs>
 <path d="m36.3 5c5.86 4.06 9.69 10.8 9.69 18.5 0 12.4-10.1 22.5-22.5 22.5-7.67 0-14.4-3.83-18.5-9.69 1.04 1.82 2.31 3.5 3.78 4.97 4.08 3.71 9.51 5.97 15.5 5.97 12.7 0 23-10.3 23-23 0-5.95-2.26-11.4-5.97-15.5-1.47-1.48-3.15-2.74-4.97-3.78zm4.97 3.78c3.85 4.11 6.22 9.64 6.22 15.7 0 12.7-10.3 23-23 23-6.08 0-11.6-2.36-15.7-6.22 4.16 4.14 9.88 6.72 16.2 6.72 12.7 0 23-10.3 23-23 0-6.34-2.58-12.1-6.72-16.2z" style="opacity:.05"/>
 <path d="m41.3 8.78c3.71 4.08 5.97 9.51 5.97 15.5 0 12.7-10.3 23-23 23-5.95 0-11.4-2.26-15.5-5.97 4.11 3.85 9.64 6.22 15.7 6.22 12.7 0 23-10.3 23-23 0-6.08-2.36-11.6-6.22-15.7z" style="opacity:.1"/>
 <path d="m31.2 2.38c8.62 3.15 14.8 11.4 14.8 21.1 0 12.4-10.1 22.5-22.5 22.5-9.71 0-18-6.14-21.1-14.8a23 23 0 0 0 44.9-7 23 23 0 0 0-16-21.9z" style="opacity:.2"/>
 <circle cx="24" cy="24" r="23" style="fill:url(#bg)"/>
 <path d="m40 7.53c3.71 4.08 5.97 9.51 5.97 15.5 0 12.7-10.3 23-23 23-5.95 0-11.4-2.26-15.5-5.97 4.18 4.29 10 6.97 16.5 6.97 12.7 0 23-10.3 23-23 0-6.46-2.68-12.3-6.97-16.5z" style="opacity:.1"/>
 <path d="m24.5 12c-0.0528-0.0013-0.106 0.0054-0.158 0.0215l-0.354 4.98-11 6c0 0.552 0.448 1 1 1h17c0.799-1.7e-4 1.28-0.893 0.832-1.55l-6.92-10.2c-0.0925-0.136-0.244-0.215-0.402-0.219zm-6.34 15.6 6.92 10.2c0.0925 0.136 0.244 0.215 0.402 0.219 0.0528 1e-3 0.106-5e-3 0.158-0.0215 0.21-0.0644 0.354-0.259 0.354-0.479v-4.5h10c0.552 0 1-0.448 1-1v-5c0-0.552-0.448-1-1-1 0-2e-5 -17.8 1.55-17.8 1.55z" style="opacity:.1"/>
 <path d="m23.5 11c-0.0528-0.0013-0.106 0.0054-0.158 0.0215-0.21 0.0644-0.354 0.259-0.354 0.479v4.5h-10c-0.552 0-1 0.448-1 1v5c0 0.552 0.448 1 1 1h17c0.799-1.7e-4 1.28-0.893 0.832-1.55l-6.92-10.2c-0.0925-0.136-0.244-0.215-0.402-0.219z" style="fill:#649ee2"/>
 <path d="m24.5 37c0.0528 1e-3 0.106-5e-3 0.158-0.0215 0.21-0.0644 0.354-0.259 0.354-0.479v-4.5h10c0.552 0 1-0.448 1-1v-5c0-0.552-0.448-1-1-1h-17c-0.799 1.7e-4 -1.28 0.893-0.832 1.55l6.92 10.2c0.0925 0.136 0.244 0.215 0.402 0.219z" style="fill:#f58266"/>
</svg>
