<svg version="1.1" viewBox="0 0 48 48" xmlns="http://www.w3.org/2000/svg">
 <defs>
  <linearGradient id="bg" x1="1" x2="47" gradientTransform="matrix(0 -1 1 0 -1.5e-6 48)" gradientUnits="userSpaceOnUse">
   <stop style="stop-color:#969696" offset="0"/>
   <stop style="stop-color:#a0a0a0" offset="1"/>
  </linearGradient>
 </defs>
 <path d="m36.3 5c5.86 4.06 9.69 10.8 9.69 18.5 0 12.4-10.1 22.5-22.5 22.5-7.67 0-14.4-3.83-18.5-9.69 1.04 1.82 2.31 3.5 3.78 4.97 4.08 3.71 9.51 5.97 15.5 5.97 12.7 0 23-10.3 23-23 0-5.95-2.26-11.4-5.97-15.5-1.47-1.48-3.15-2.74-4.97-3.78zm4.97 3.78c3.85 4.11 6.22 9.64 6.22 15.7 0 12.7-10.3 23-23 23-6.08 0-11.6-2.36-15.7-6.22 4.16 4.14 9.88 6.72 16.2 6.72 12.7 0 23-10.3 23-23 0-6.34-2.58-12.1-6.72-16.2z" style="opacity:.05"/>
 <path d="m41.3 8.78c3.71 4.08 5.97 9.51 5.97 15.5 0 12.7-10.3 23-23 23-5.95 0-11.4-2.26-15.5-5.97 4.11 3.85 9.64 6.22 15.7 6.22 12.7 0 23-10.3 23-23 0-6.08-2.36-11.6-6.22-15.7z" style="opacity:.1"/>
 <path d="m31.2 2.38c8.62 3.15 14.8 11.4 14.8 21.1 0 12.4-10.1 22.5-22.5 22.5-9.71 0-18-6.14-21.1-14.8a23 23 0 0 0 44.9-7 23 23 0 0 0-16-21.9z" style="opacity:.2"/>
 <path d="m24 1c12.7 0 23 10.3 23 23s-10.3 23-23 23-23-10.3-23-23 10.3-23 23-23z" style="fill:url(#bg)"/>
 <path d="m28.3 12c-3.08 0.0488-2.97 1.02-3.34 1.55v0.0391l-14 0.41 5 7h5v7h-3v11h6l1.85-4h-1.85v-3h2v7l4-2v-5h0.996l3-4h-7l2-2v-5h5l5-7h-10v-2c-0.234-0.0054-0.453-0.0072-0.658-0.0039zm-2.34 3.01v3h-2v-3z" style="opacity:.1"/>
 <path d="m10 13 5 7h5v7h-3v11h6l1.85-4h-1.85v-3h2v7l4-2v-5h0.996l3-4h-7l2-2v-5h5l5-7h-10v-2c-3.75-0.086-3.6 0.984-4 1.55v1.45h1v3h-2v-3h1v-1.41c-0.93-1.65-2-1.59-4-1.59v2" style="fill:#dcdcdc"/>
 <path d="m26 36 2-1v-5h1l2-2h-13v9h4l1-2h-3v-2h2v-1h-2v-2h6" style="fill:#474747"/>
 <path d="m21.3 12c-0.0887 9.2e-5 -0.182 0.00294-0.281 0.00781v4h-3l1-2h-7l1 1h4l-0.5 1h-3.5l0.703 1h8.3v-3c-0.023-0.691 0.402-0.93 1-1-0.223-0.49-0.389-1.01-1.72-1.01zm5.72 0.00781c-1.5 0.047-2.03 0.426-2 1 0.547 0.086 1.02 0.254 1 1v3h7.6l0.762-1h-3.86l-0.5-0.996h5.22l0.781-1h-8l1 2h-2v-4zm-12.7 6 0.707 1h6v7.75l1-0.75v-1.5l1-0.5v3.5l2-1.5v-1.5l1-0.5v1.75l1-0.75v-6h5.48l0.953-1h-7.44v5l-1 0.5v-5.5h-2v5l-1 0.5v-5.5h-7.71z" style="fill:#d64936"/>
 <path d="m40 7.53c3.71 4.08 5.97 9.51 5.97 15.5 0 12.7-10.3 23-23 23-5.95 0-11.4-2.26-15.5-5.97 4.18 4.29 10 6.97 16.5 6.97 12.7 0 23-10.3 23-23 0-6.46-2.68-12.3-6.97-16.5z" style="opacity:.1"/>
</svg>
