<svg version="1.1" viewBox="0 0 48 48" xmlns="http://www.w3.org/2000/svg">
 <defs>
  <linearGradient id="bg" x1="1" x2="47" gradientTransform="matrix(0 -1 1 0 -1.5e-6 48)" gradientUnits="userSpaceOnUse">
   <stop style="stop-color:#333" offset="0"/>
   <stop style="stop-color:#3d3d3d" offset="1"/>
  </linearGradient>
 </defs>
 <path d="m36.31 5c5.859 4.062 9.688 10.831 9.688 18.5 0 12.426-10.07 22.5-22.5 22.5-7.669 0-14.438-3.828-18.5-9.688 1.037 1.822 2.306 3.499 3.781 4.969 4.085 3.712 9.514 5.969 15.469 5.969 12.703 0 23-10.298 23-23 0-5.954-2.256-11.384-5.969-15.469-1.469-1.475-3.147-2.744-4.969-3.781zm4.969 3.781c3.854 4.113 6.219 9.637 6.219 15.719 0 12.703-10.297 23-23 23-6.081 0-11.606-2.364-15.719-6.219 4.16 4.144 9.883 6.719 16.219 6.719 12.703 0 23-10.298 23-23 0-6.335-2.575-12.06-6.719-16.219z" style="opacity:.05"/>
 <path d="m41.28 8.781c3.712 4.085 5.969 9.514 5.969 15.469 0 12.703-10.297 23-23 23-5.954 0-11.384-2.256-15.469-5.969 4.113 3.854 9.637 6.219 15.719 6.219 12.703 0 23-10.298 23-23 0-6.081-2.364-11.606-6.219-15.719z" style="opacity:.1"/>
 <path d="m31.25 2.375c8.615 3.154 14.75 11.417 14.75 21.13 0 12.426-10.07 22.5-22.5 22.5-9.708 0-17.971-6.135-21.12-14.75a23 23 0 0 0 44.875-7 23 23 0 0 0-16-21.875z" style="opacity:.2"/>
 <path d="m24 1c12.703 0 23 10.297 23 23s-10.297 23-23 23-23-10.297-23-23 10.297-23 23-23z" style="fill:url(#bg)"/>
 <g transform="translate(1,1)">
  <g style="opacity:.1">
   <path transform="translate(-1,-1)" d="m25 10c-3.637 0-6.9734 1.2702-9.5664 3.4062 0.914-0.383 1.9838-0.582 3.0938-0.625 1.938-0.078 3.9734 0.34025 5.4414 1.2812 0.855 0.551 1.3198 1.5119 2.0938 2.1289 1.375 1.094 3.129 1.867 4.75 2.5 0.926 0.363 1.8632 0.55475 2.7812 0.96875 0.469 0.211 0.8315 0.62459 1.3125 0.80859 0.59 0.227 1.2747 0.227 1.8457 0.5 0.723 0.344 1.445 1.3668 1.75 2.0938 0.172 0.418 0.027 0.85516 0 1.2852-0.03996 0.57132-0.13829 1.1135-0.25391 1.6504h-1.3965c0.051491-0.3547 0.087273-0.71362 0.070313-1.0879-0.043-1.012-0.34034-2.246-1.2773-2.75h-0.005859c0.21989 1.128 0.40224 2.6284 0.099609 3.8379h-6.8574l-1.3984-5.1309c-0.13187-0.48431-0.81534-0.49403-0.96094-0.013672l-1.8711 6.1465c-0.03311-0.0033-0.06945-0.001159-0.10156-0.005859-0.11299-0.014772-0.34133-0.081219-0.54883-0.13672v-9.3594c1.38e-4 -0.28236-0.2334-0.50882-0.51562-0.5-0.21931 0.0067-0.40862 0.15563-0.4668 0.36719l-2.3984 8.6328h-3.3008c0.28302-0.64067 0.48648-1.2987 0.44922-1.959-0.035-0.617-0.5195-1.1992-0.6875-1.7812-0.793 0.559-2.582 1.504-3.5 0.75-0.402-0.328-0.578-1.379-0.625-1.875-0.059-0.586 0.3945-0.98775 0.3125-1.5938-0.074-0.523-0.262-1.152-0.5-1.625-0.141-0.277-0.44875-0.51975-0.46875-0.84375l-0.015625-0.005859c-1.434 2.301-2.2715 5.0215-2.2715 7.9395 0 0.41768 0.027387 0.82749 0.060547 1.2363-0.11508 0.19049-0.090402 0.43411 0.060546 0.59766 0.9009 7.4352 7.1898 13.16 14.879 13.16 4.148 0 7.902-1.664 10.625-4.375-0.594 0.516-1.3054 0.996-1.9414 1.25-0.672 0.266-0.81575-0.29259-0.71875-0.80859-0.422-0.023-2.3594-0.50825-1.4414-1.1562 0.734-0.52 2.137-0.13155 2.875 0.18945-0.324-0.621-1.2418-0.56975-1.8438-0.71875-0.781-0.191-2.0593-1.0552-2.4023-1.7812h-0.15234c-0.148 0.766-0.35466 1.5818-0.47266 2.3398-0.062999 0.41 0.06566 0.84025-0.27734 1.1562-0.816 0.738-2.3322 0.3613-3.2812 0.5293-0.406 0.07-0.72734 0.51345-1.1523 0.18945-0.547-0.406-0.74991-2.0605 0.12109-2.1895 0.762-0.113 1.5982 0.375 2.4062 0.375-0.047-0.895-0.80109-1.5075-1.1211-2.3125-0.941-2.305-0.81845-4.9454 1.6855-6.1914v-0.0625c-0.62279 0.12843-1.4379 0.37064-2.2012 0.49805l1.2559-4.127 1.043 3.8262c0.05907 0.21782 0.25673 0.36907 0.48242 0.36914h6.8281c-0.76022 1.3287-2.0116 2.312-1.8418 4.0059 0.117 1.23 1.6478 1.637 2.4688 2.375 0.281 0.254 0.78134 0.59825 0.77734 1.0312 0.359-0.441 0.66375-0.92225 0.96875-1.4062-0.102 0.055-0.215 0.086-0.375 0-0.602-0.324-0.832-1.402-1-2-0.41129-1.4523 0.01022-2.7088 0.32422-4.0059h1.3652c-0.09932 0.39457-0.1986 0.784-0.29492 1.1934-0.375 1.59-0.1095 2.715 0.1875 4.25 0.023 0.063 8e-3 0.12645 0 0.18945 1.0305-1.7441 1.7258-3.7157 1.9844-5.8223l0.001953-0.001953c0.11759-0.15085 0.13882-0.35557 0.054688-0.52734 0.03633-0.4207 0.060547-0.84317 0.060547-1.2734-5.4e-5 -8.3129-6.7048-15.006-15.01-15.006zm-2 11.17v5.7676c-0.0086 0.03648-0.0088 0.0787 0 0.12891v1.7129c-0.26183 0.38969-0.60566 0.75745-0.79688 1.1895-0.551 1.246-0.6313 3.1274-1.5293 4.1504-0.352 0.41-0.7787 0.49776-1.2207 0.75976-0.391 0.227-0.48409 0.73224-0.99609 0.61524-0.211 0.32-0.41775 0.17761-0.46875-0.15039-1.195 0.305-0.781-0.79709 0-1.1211v-0.09375c-0.145 0.031-0.816 0.18375-0.75-0.15625 0.098-0.539 1.383-0.18375 1.625-0.71875 0.766-1.719 0.46875-3.9572 0.46875-5.7812h-0.064453c-0.297 0.617-0.81634 1.145-1.1523 1.75-0.262 0.461-0.37925 1.0472-0.78125 1.4062-0.398 0.355-0.82425 0.39066-1.2812 0.59766-0.375 0.164-0.49175 0.49225-0.96875 0.40625-0.484-0.094-0.16425-0.39825 0.09375-0.53125-0.625-0.273-1.3094-0.32825-1.9414-0.53125-0.223-0.074-0.2185-0.238-0.0625-0.375-0.105-0.457 0.234-0.50375 0.625-0.46875 0.543 0.051 1.4022 0.6165 1.7812 0.0625 0.301-0.441 0.398-1.1017 0.625-1.5938 0.17381-0.3745 0.39894-0.79307 0.61523-1.1973h4.1797c0.22458 4.16e-4 0.42189-0.14896 0.48242-0.36524l1.5176-5.4629z" style="fill-rule:evenodd"/>
  </g>
 </g>
 <path d="m24 9c-3.637 0-6.9734 1.2702-9.5664 3.4062 0.914-0.383 1.9838-0.582 3.0938-0.625 1.938-0.078 3.9734 0.34025 5.4414 1.2812 0.855 0.551 1.3198 1.5119 2.0938 2.1289 1.375 1.094 3.129 1.867 4.75 2.5 0.926 0.363 1.8632 0.55475 2.7812 0.96875 0.469 0.211 0.8315 0.62459 1.3125 0.80859 0.59 0.227 1.2747 0.227 1.8457 0.5 0.723 0.344 1.445 1.3668 1.75 2.0938 0.172 0.418 0.027 0.85516 0 1.2852-0.094 1.344-0.47325 2.5348-0.78125 3.8438-0.375 1.59-0.1095 2.715 0.1875 4.25 0.023 0.063 8e-3 0.12645 0 0.18945 1.32-2.234 2.1016-4.836 2.1016-7.625 0-8.313-6.7048-15.006-15.01-15.006zm-12.717 7.0645c-1.434 2.301-2.2715 5.0215-2.2715 7.9395 0 8.309 6.688 14.994 15 14.994 4.148 0 7.902-1.664 10.625-4.375-0.594 0.516-1.3054 0.996-1.9414 1.25-0.672 0.266-0.81575-0.29259-0.71875-0.80859-0.422-0.023-2.3594-0.50825-1.4414-1.1562 0.734-0.52 2.137-0.13155 2.875 0.18945-0.324-0.621-1.2418-0.56975-1.8438-0.71875-0.781-0.191-2.0593-1.0552-2.4023-1.7812h-0.15234c-0.148 0.766-0.35466 1.5818-0.47266 2.3398-0.062999 0.41 0.065657 0.84025-0.27734 1.1562-0.816 0.738-2.3322 0.3613-3.2812 0.5293-0.406 0.07-0.72734 0.51345-1.1523 0.18945-0.547-0.406-0.74991-2.0605 0.12109-2.1895 0.762-0.113 1.5982 0.375 2.4062 0.375-0.047-0.895-0.80109-1.5075-1.1211-2.3125-0.941-2.305-0.81845-4.9454 1.6855-6.1914v-0.0625c-0.965 0.199-2.4021 0.7025-3.3711 0.5625-0.328-0.043-1.2852-0.44324-1.5312-0.11524-0.164 0.215 0.406 0.97139 0.25 1.4004-0.215 0.598-0.79445 1.0795-1.0645 1.6895-0.551 1.246-0.6313 3.1274-1.5293 4.1504-0.352 0.41-0.7787 0.49776-1.2207 0.75976-0.391 0.227-0.48409 0.73224-0.99609 0.61524-0.211 0.32-0.41775 0.17761-0.46875-0.15039-1.195 0.305-0.781-0.79709 0-1.1211v-0.09375c-0.145 0.031-0.816 0.18375-0.75-0.15625 0.098-0.539 1.383-0.18375 1.625-0.71875 0.766-1.719 0.46875-3.9572 0.46875-5.7812h-0.064453c-0.297 0.617-0.81634 1.145-1.1523 1.75-0.262 0.461-0.37925 1.0472-0.78125 1.4062-0.398 0.355-0.82425 0.39066-1.2812 0.59766-0.375 0.164-0.49175 0.49225-0.96875 0.40625-0.484-0.094-0.16425-0.39825 0.09375-0.53125-0.625-0.273-1.3094-0.32825-1.9414-0.53125-0.223-0.074-0.2185-0.238-0.0625-0.375-0.105-0.457 0.234-0.50375 0.625-0.46875 0.543 0.051 1.4022 0.6165 1.7812 0.0625 0.301-0.441 0.398-1.1017 0.625-1.5938 0.582-1.254 1.6445-2.7032 1.5625-4.1562-0.035-0.617-0.5195-1.1992-0.6875-1.7812-0.793 0.559-2.582 1.504-3.5 0.75-0.402-0.328-0.578-1.379-0.625-1.875-0.059-0.586 0.3945-0.98775 0.3125-1.5938-0.074-0.523-0.262-1.152-0.5-1.625-0.141-0.277-0.44875-0.51975-0.46875-0.84375l-0.015625-0.005859zm23.355 5.0957c0.262 1.344 0.48 3.223-0.125 4.5-0.719 1.512-2.2113 2.5078-2.0273 4.3438 0.117 1.23 1.6478 1.637 2.4688 2.375 0.281 0.254 0.78134 0.59825 0.77734 1.0312 0.359-0.441 0.66375-0.92225 0.96875-1.4062-0.102 0.055-0.215 0.086-0.375 0-0.602-0.324-0.832-1.402-1-2-0.625-2.207 0.6927-3.9528 0.5957-6.0938-0.043-1.012-0.34034-2.246-1.2773-2.75h-0.005859z" style="fill-rule:evenodd;fill:#376d78"/>
 <path d="m26.115 25.627c-0.37467 0.09576-0.72824 0.17704-1.123 0.25586l-0.99219 3.2578v-3.125c-0.15795 4e-3 -0.31015-0.0011-0.45117-0.02148-0.11299-0.014817-0.34133-0.081223-0.54883-0.13672v6.6406a0.5 0.5 0 0 0 0.97852 0.14648l0.79297-2.6074c-0.22954-1.4596 0.06305-2.8909 1.1855-3.8926zm-15.615 0.37109a0.5 0.5 0 0 0 0 1h4.8066c0.15599-0.31744 0.33302-0.66243 0.51367-1zm23.828 0c-0.20027 0.35004-0.42612 0.67905-0.66016 1h1.7441c0.07976-0.33193 0.15751-0.66636 0.23828-1zm2.6875 0c-0.08324 0.3307-0.16567 0.65985-0.24805 1h1.9355c0.06797-0.32922 0.12418-0.66317 0.16992-1zm-18.748 0.47461c-0.08765 0.18209-0.19659 0.35454-0.3125 0.52539h0.39062c-4e-3 -0.17384-0.01367-0.35781-0.01367-0.52539z" style="fill-rule:evenodd;opacity:.1"/>
 <path d="m40.03 7.531c3.712 4.084 5.969 9.514 5.969 15.469 0 12.703-10.297 23-23 23-5.954 0-11.384-2.256-15.469-5.969 4.178 4.291 10.01 6.969 16.469 6.969 12.703 0 23-10.298 23-23 0-6.462-2.677-12.291-6.969-16.469z" style="opacity:.1"/>
 <path d="m22.484 16a0.5 0.5 0 0 0-0.467 0.367l-2.398 8.633h-10.119a0.5 0.5 0 1 0 0 1h10.5a0.5 0.5 0 0 0 0.482-0.365l1.518-5.465v11.33a0.5 0.5 0 0 0 0.979 0.146l2.996-9.842 1.043 3.826a0.5 0.5 0 0 0 0.482 0.37h11a0.5 0.5 0 0 0 0-1h-10.619l-1.398-5.131a0.5 0.5 0 0 0-0.961-0.014l-2.522 8.285v-11.64a0.5 0.5 0 0 0-0.516-0.5" solid-color="#000000" style="color-rendering:auto;fill-rule:evenodd;fill:#2db9d6;image-rendering:auto;shape-rendering:auto" isolation="auto" mix-blend-mode="normal" white-space="normal"/>
</svg>
