<svg xmlns="http://www.w3.org/2000/svg" viewBox="0 0 48 48">
 <defs>
  <linearGradient id="linearGradient3764" x1="1" x2="47" gradientUnits="userSpaceOnUse" gradientTransform="matrix(0,-1,1,0,-1.5e-6,47.999998)">
   <stop style="stop-color:#333;stop-opacity:1"/>
   <stop offset="1" style="stop-color:#3d3d3d;stop-opacity:1"/>
  </linearGradient>
 </defs>
 <g>
  <path d="m 36.31 5 c 5.859 4.062 9.688 10.831 9.688 18.5 c 0 12.426 -10.07 22.5 -22.5 22.5 c -7.669 0 -14.438 -3.828 -18.5 -9.688 c 1.037 1.822 2.306 3.499 3.781 4.969 c 4.085 3.712 9.514 5.969 15.469 5.969 c 12.703 0 23 -10.298 23 -23 c 0 -5.954 -2.256 -11.384 -5.969 -15.469 c -1.469 -1.475 -3.147 -2.744 -4.969 -3.781 z m 4.969 3.781 c 3.854 4.113 6.219 9.637 6.219 15.719 c 0 12.703 -10.297 23 -23 23 c -6.081 0 -11.606 -2.364 -15.719 -6.219 c 4.16 4.144 9.883 6.719 16.219 6.719 c 12.703 0 23 -10.298 23 -23 c 0 -6.335 -2.575 -12.06 -6.719 -16.219 z" style="opacity:0.05"/>
  <path d="m 41.28 8.781 c 3.712 4.085 5.969 9.514 5.969 15.469 c 0 12.703 -10.297 23 -23 23 c -5.954 0 -11.384 -2.256 -15.469 -5.969 c 4.113 3.854 9.637 6.219 15.719 6.219 c 12.703 0 23 -10.298 23 -23 c 0 -6.081 -2.364 -11.606 -6.219 -15.719 z" style="opacity:0.1"/>
  <path d="m 31.25 2.375 c 8.615 3.154 14.75 11.417 14.75 21.13 c 0 12.426 -10.07 22.5 -22.5 22.5 c -9.708 0 -17.971 -6.135 -21.12 -14.75 a 23 23 0 0 0 44.875 -7 a 23 23 0 0 0 -16 -21.875 z" style="opacity:0.2"/>
 </g>
 <g>
  <path d="m 24 1 c 12.703 0 23 10.297 23 23 c 0 12.703 -10.297 23 -23 23 -12.703 0 -23 -10.297 -23 -23 0 -12.703 10.297 -23 23 -23 z" style="fill:url(#linearGradient3764);fill-opacity:1"/>
 </g>
 <g>
  <g>
   <g transform="translate(1,1)">
    <g style="opacity:0.1">
     <!-- color: #3d3d3d -->
     <g>
      <path d="m 24 9 c -3.637 0 -6.973 1.27 -9.566 3.406 c 0.914 -0.383 1.984 -0.582 3.094 -0.625 c 1.938 -0.078 3.973 0.34 5.441 1.281 c 0.855 0.551 1.32 1.512 2.094 2.129 c 1.375 1.094 3.129 1.867 4.75 2.5 c 0.926 0.363 1.863 0.555 2.781 0.969 c 0.469 0.211 0.832 0.625 1.313 0.809 c 0.59 0.227 1.273 0.227 1.844 0.5 c 0.723 0.344 1.445 1.367 1.75 2.094 c 0.172 0.418 0.027 0.855 0 1.285 c -0.094 1.344 -0.473 2.535 -0.781 3.844 c -0.375 1.59 -0.109 2.715 0.188 4.25 c 0.023 0.063 0.008 0.125 0 0.188 c 1.32 -2.234 2.102 -4.836 2.102 -7.625 c 0 -8.313 -6.691 -15 -14.996 -15 m -12.73 7.06 c -1.434 2.301 -2.273 5.02 -2.273 7.938 c 0 8.309 6.688 14.996 15 14.996 c 4.148 0 7.902 -1.664 10.625 -4.375 c -0.594 0.516 -1.305 0.996 -1.941 1.25 c -0.672 0.266 -0.816 -0.293 -0.719 -0.809 c -0.422 -0.023 -2.359 -0.508 -1.441 -1.156 c 0.734 -0.52 2.137 -0.133 2.875 0.188 c -0.324 -0.621 -1.242 -0.57 -1.844 -0.719 c -0.781 -0.191 -2.059 -1.055 -2.402 -1.781 l -0.152 0 c -0.148 0.766 -0.355 1.582 -0.473 2.34 c -0.063 0.41 0.066 0.84 -0.277 1.156 c -0.816 0.738 -2.332 0.363 -3.281 0.531 c -0.406 0.07 -0.727 0.512 -1.152 0.188 c -0.547 -0.406 -0.75 -2.059 0.121 -2.188 c 0.762 -0.113 1.598 0.375 2.406 0.375 c -0.047 -0.895 -0.801 -1.508 -1.121 -2.313 c -0.941 -2.305 -0.82 -4.945 1.684 -6.191 l 0 -0.063 c -0.965 0.199 -2.402 0.703 -3.371 0.563 c -0.328 -0.043 -1.285 -0.445 -1.531 -0.117 c -0.164 0.215 0.406 0.973 0.25 1.402 c -0.215 0.598 -0.793 1.078 -1.063 1.688 c -0.551 1.246 -0.633 3.129 -1.531 4.152 c -0.352 0.41 -0.777 0.496 -1.219 0.758 c -0.391 0.227 -0.484 0.734 -0.996 0.617 c -0.211 0.32 -0.418 0.176 -0.469 -0.152 c -1.195 0.305 -0.781 -0.797 0 -1.121 l 0 -0.094 c -0.145 0.031 -0.816 0.184 -0.75 -0.156 c 0.098 -0.539 1.383 -0.184 1.625 -0.719 c 0.766 -1.719 0.469 -3.957 0.469 -5.781 l -0.066 0 c -0.297 0.617 -0.816 1.145 -1.152 1.75 c -0.262 0.461 -0.379 1.047 -0.781 1.406 c -0.398 0.355 -0.824 0.391 -1.281 0.598 c -0.375 0.164 -0.492 0.492 -0.969 0.406 c -0.484 -0.094 -0.164 -0.398 0.094 -0.531 c -0.625 -0.273 -1.309 -0.328 -1.941 -0.531 c -0.223 -0.074 -0.219 -0.238 -0.063 -0.375 c -0.105 -0.457 0.234 -0.504 0.625 -0.469 c 0.543 0.051 1.402 0.617 1.781 0.063 c 0.301 -0.441 0.398 -1.102 0.625 -1.594 c 0.582 -1.254 1.645 -2.703 1.563 -4.156 c -0.035 -0.617 -0.52 -1.199 -0.688 -1.781 c -0.793 0.559 -2.582 1.504 -3.5 0.75 c -0.402 -0.328 -0.578 -1.379 -0.625 -1.875 c -0.059 -0.586 0.395 -0.988 0.313 -1.594 c -0.074 -0.523 -0.262 -1.152 -0.5 -1.625 c -0.141 -0.277 -0.449 -0.52 -0.469 -0.844 m 23.34 5.09 c 0.262 1.344 0.48 3.223 -0.125 4.5 c -0.719 1.512 -2.211 2.508 -2.027 4.344 c 0.117 1.23 1.648 1.637 2.469 2.375 c 0.281 0.254 0.781 0.598 0.777 1.031 c 0.359 -0.441 0.664 -0.922 0.969 -1.406 c -0.102 0.055 -0.215 0.086 -0.375 0 c -0.602 -0.324 -0.832 -1.402 -1 -2 c -0.625 -2.207 0.691 -3.953 0.594 -6.094 c -0.043 -1.012 -0.34 -2.246 -1.277 -2.75 m 0 0" style="fill:#000;fill-opacity:0.392;stroke:none;fill-rule:evenodd"/>
     </g>
    </g>
   </g>
  </g>
 </g>
 <g>
  <g>
   <!-- color: #3d3d3d -->
   <g>
    <path d="m 24 9 c -3.637 0 -6.973 1.27 -9.566 3.406 c 0.914 -0.383 1.984 -0.582 3.094 -0.625 c 1.938 -0.078 3.973 0.34 5.441 1.281 c 0.855 0.551 1.32 1.512 2.094 2.129 c 1.375 1.094 3.129 1.867 4.75 2.5 c 0.926 0.363 1.863 0.555 2.781 0.969 c 0.469 0.211 0.832 0.625 1.313 0.809 c 0.59 0.227 1.273 0.227 1.844 0.5 c 0.723 0.344 1.445 1.367 1.75 2.094 c 0.172 0.418 0.027 0.855 0 1.285 c -0.094 1.344 -0.473 2.535 -0.781 3.844 c -0.375 1.59 -0.109 2.715 0.188 4.25 c 0.023 0.063 0.008 0.125 0 0.188 c 1.32 -2.234 2.102 -4.836 2.102 -7.625 c 0 -8.313 -6.691 -15 -14.996 -15 m -12.73 7.06 c -1.434 2.301 -2.273 5.02 -2.273 7.938 c 0 8.309 6.688 14.996 15 14.996 c 4.148 0 7.902 -1.664 10.625 -4.375 c -0.594 0.516 -1.305 0.996 -1.941 1.25 c -0.672 0.266 -0.816 -0.293 -0.719 -0.809 c -0.422 -0.023 -2.359 -0.508 -1.441 -1.156 c 0.734 -0.52 2.137 -0.133 2.875 0.188 c -0.324 -0.621 -1.242 -0.57 -1.844 -0.719 c -0.781 -0.191 -2.059 -1.055 -2.402 -1.781 l -0.152 0 c -0.148 0.766 -0.355 1.582 -0.473 2.34 c -0.063 0.41 0.066 0.84 -0.277 1.156 c -0.816 0.738 -2.332 0.363 -3.281 0.531 c -0.406 0.07 -0.727 0.512 -1.152 0.188 c -0.547 -0.406 -0.75 -2.059 0.121 -2.188 c 0.762 -0.113 1.598 0.375 2.406 0.375 c -0.047 -0.895 -0.801 -1.508 -1.121 -2.313 c -0.941 -2.305 -0.82 -4.945 1.684 -6.191 l 0 -0.063 c -0.965 0.199 -2.402 0.703 -3.371 0.563 c -0.328 -0.043 -1.285 -0.445 -1.531 -0.117 c -0.164 0.215 0.406 0.973 0.25 1.402 c -0.215 0.598 -0.793 1.078 -1.063 1.688 c -0.551 1.246 -0.633 3.129 -1.531 4.152 c -0.352 0.41 -0.777 0.496 -1.219 0.758 c -0.391 0.227 -0.484 0.734 -0.996 0.617 c -0.211 0.32 -0.418 0.176 -0.469 -0.152 c -1.195 0.305 -0.781 -0.797 0 -1.121 l 0 -0.094 c -0.145 0.031 -0.816 0.184 -0.75 -0.156 c 0.098 -0.539 1.383 -0.184 1.625 -0.719 c 0.766 -1.719 0.469 -3.957 0.469 -5.781 l -0.066 0 c -0.297 0.617 -0.816 1.145 -1.152 1.75 c -0.262 0.461 -0.379 1.047 -0.781 1.406 c -0.398 0.355 -0.824 0.391 -1.281 0.598 c -0.375 0.164 -0.492 0.492 -0.969 0.406 c -0.484 -0.094 -0.164 -0.398 0.094 -0.531 c -0.625 -0.273 -1.309 -0.328 -1.941 -0.531 c -0.223 -0.074 -0.219 -0.238 -0.063 -0.375 c -0.105 -0.457 0.234 -0.504 0.625 -0.469 c 0.543 0.051 1.402 0.617 1.781 0.063 c 0.301 -0.441 0.398 -1.102 0.625 -1.594 c 0.582 -1.254 1.645 -2.703 1.563 -4.156 c -0.035 -0.617 -0.52 -1.199 -0.688 -1.781 c -0.793 0.559 -2.582 1.504 -3.5 0.75 c -0.402 -0.328 -0.578 -1.379 -0.625 -1.875 c -0.059 -0.586 0.395 -0.988 0.313 -1.594 c -0.074 -0.523 -0.262 -1.152 -0.5 -1.625 c -0.141 -0.277 -0.449 -0.52 -0.469 -0.844 m 23.34 5.09 c 0.262 1.344 0.48 3.223 -0.125 4.5 c -0.719 1.512 -2.211 2.508 -2.027 4.344 c 0.117 1.23 1.648 1.637 2.469 2.375 c 0.281 0.254 0.781 0.598 0.777 1.031 c 0.359 -0.441 0.664 -0.922 0.969 -1.406 c -0.102 0.055 -0.215 0.086 -0.375 0 c -0.602 -0.324 -0.832 -1.402 -1 -2 c -0.625 -2.207 0.691 -3.953 0.594 -6.094 c -0.043 -1.012 -0.34 -2.246 -1.277 -2.75 m 0 0" style="fill:#36c1dd;fill-opacity:0.392;stroke:none;fill-rule:evenodd"/>
   </g>
  </g>
 </g>
 <g>
  <path d="m 40.03 7.531 c 3.712 4.084 5.969 9.514 5.969 15.469 0 12.703 -10.297 23 -23 23 c -5.954 0 -11.384 -2.256 -15.469 -5.969 4.178 4.291 10.01 6.969 16.469 6.969 c 12.703 0 23 -10.298 23 -23 0 -6.462 -2.677 -12.291 -6.969 -16.469 z" style="opacity:0.1"/>
 </g>
 <path d="m 23.484 16.998 a 0.5 0.5 0 0 0 -0.467 0.367 l -2.398 8.633 -10.119 0 a 0.5 0.5 0 1 0 0 1 l 10.5 0 a 0.5 0.5 0 0 0 0.482 -0.365 L 23 21.17 23 32.498 a 0.5 0.5 0 0 0 0.979 0.146 l 2.996 -9.842 1.043 3.826 A 0.5 0.5 0 0 0 28.5 26.998 l 11 0 a 0.5 0.5 0 0 0 0 -1 l -10.619 0 -1.398 -5.131 a 0.5 0.5 0 0 0 -0.961 -0.014 L 24 29.14 24 17.498 a 0.5 0.5 0 0 0 -0.516 -0.5 z" mix-blend-mode="normal" isolation="auto" white-space="normal" solid-opacity="1" solid-color="#000000" style="visibility:visible;shape-rendering:auto;color-interpolation-filters:linearRGB;fill:#000;opacity:1;image-rendering:auto;fill-opacity:0.098;stroke:none;display:inline;color:#000;fill-rule:evenodd;color-rendering:auto;color-interpolation:sRGB"/>
 <path d="m 22.484 16 a 0.5 0.5 0 0 0 -0.467 0.367 L 19.619 25 9.5 25 a 0.5 0.5 0 1 0 0 1 L 20 26 a 0.5 0.5 0 0 0 0.482 -0.365 L 22 20.17 22 31.5 a 0.5 0.5 0 0 0 0.979 0.146 l 2.996 -9.842 1.043 3.826 A 0.5 0.5 0 0 0 27.5 26 l 11 0 a 0.5 0.5 0 0 0 0 -1 l -10.619 0 -1.398 -5.131 a 0.5 0.5 0 0 0 -0.961 -0.014 L 23 28.14 23 16.5 A 0.5 0.5 0 0 0 22.484 16" mix-blend-mode="normal" isolation="auto" white-space="normal" solid-opacity="1" solid-color="#000000" style="visibility:visible;shape-rendering:auto;color-interpolation-filters:linearRGB;fill:#2db9d6;opacity:1;image-rendering:auto;fill-opacity:1;stroke:none;display:inline;color:#000;fill-rule:evenodd;color-rendering:auto;color-interpolation:sRGB"/>
</svg>
