<svg version="1.1" viewBox="0 0 48 48" xmlns="http://www.w3.org/2000/svg">
 <defs>
  <linearGradient id="bg" x1="1" x2="47" gradientTransform="matrix(0 -1 1 0 -1.5e-6 48)" gradientUnits="userSpaceOnUse">
   <stop style="stop-color:#295266" offset="0"/>
   <stop style="stop-color:#2e5d75" offset="1"/>
  </linearGradient>
 </defs>
 <path d="m36.3 5c5.86 4.06 9.69 10.8 9.69 18.5 0 12.4-10.1 22.5-22.5 22.5-7.67 0-14.4-3.83-18.5-9.69 1.04 1.82 2.31 3.5 3.78 4.97 4.08 3.71 9.51 5.97 15.5 5.97 12.7 0 23-10.3 23-23 0-5.95-2.26-11.4-5.97-15.5-1.47-1.48-3.15-2.74-4.97-3.78zm4.97 3.78c3.85 4.11 6.22 9.64 6.22 15.7 0 12.7-10.3 23-23 23-6.08 0-11.6-2.36-15.7-6.22 4.16 4.14 9.88 6.72 16.2 6.72 12.7 0 23-10.3 23-23 0-6.34-2.58-12.1-6.72-16.2z" style="opacity:.05"/>
 <path d="m41.3 8.78c3.71 4.08 5.97 9.51 5.97 15.5 0 12.7-10.3 23-23 23-5.95 0-11.4-2.26-15.5-5.97 4.11 3.85 9.64 6.22 15.7 6.22 12.7 0 23-10.3 23-23 0-6.08-2.36-11.6-6.22-15.7z" style="opacity:.1"/>
 <path d="m31.2 2.38c8.62 3.15 14.8 11.4 14.8 21.1 0 12.4-10.1 22.5-22.5 22.5-9.71 0-18-6.14-21.1-14.8a23 23 0 0 0 44.9-7 23 23 0 0 0-16-21.9z" style="opacity:.2"/>
 <path d="m24 1c12.7 0 23 10.3 23 23s-10.3 23-23 23-23-10.3-23-23 10.3-23 23-23z" style="fill:url(#bg)"/>
 <path d="m40 7.53c3.71 4.08 5.97 9.51 5.97 15.5 0 12.7-10.3 23-23 23-5.95 0-11.4-2.26-15.5-5.97 4.18 4.29 10 6.97 16.5 6.97 12.7 0 23-10.3 23-23 0-6.46-2.68-12.3-6.97-16.5z" style="opacity:.1"/>
 <path d="m12 12c3 4 1.95 8.04 4.32 10.7 0.768 0.858 1.94 1.32 3.18 1.32 3.5 0 3.5 1 3.5 1s-6 2-6.68 2.32c-2.37 2.64-1.32 6.68-4.32 10.7 4-3 8.04-1.95 10.7-4.32 0.858-0.768 1.32-1.94 1.32-3.18 0-3.5 1-3.5 1-3.5s1 0 1 3.5c0 1.24 0.461 2.41 1.32 3.18 2.64 2.37 6.68 1.32 10.7 4.32-3-4-1.95-8.04-4.32-10.7-0.768-0.858-1.94-1.32-3.18-1.32-3.5 0-3.5-1-3.5-1s0-1 3.5-1c1.24 0 2.41-0.461 3.18-1.32 2.37-2.64 1.32-6.68 4.32-10.7-4 3-8.04 1.95-10.7 4.32-0.319 1.68-2.32 6.68-2.32 6.68s-1 0-1-3.5c0-1.24-0.461-2.41-1.32-3.18-2.64-2.37-6.68-1.32-10.7-4.32z" style="opacity:.1"/>
 <path d="m11 11c3 4 1.95 8.04 4.32 10.7 0.768 0.858 1.94 1.32 3.18 1.32 3.5 0 3.5 1 3.5 1s0 1-3.5 1c-1.24 0-2.41 0.461-3.18 1.32-2.37 2.64-1.32 6.68-4.32 10.7 4-3 8.04-1.95 10.7-4.32 0.858-0.768 1.32-1.94 1.32-3.18 0-3.5 1-3.5 1-3.5s1 0 1 3.5c0 1.24 0.461 2.41 1.32 3.18 2.64 2.37 6.68 1.32 10.7 4.32-3-4-1.95-8.04-4.32-10.7-0.768-0.858-1.94-1.32-3.18-1.32-3.5 0-3.5-1-3.5-1s0-1 3.5-1c1.24 0 2.41-0.461 3.18-1.32 2.37-2.64 1.32-6.68 4.32-10.7-4 3-8.04 1.95-10.7 4.32-0.858 0.768-1.32 1.94-1.32 3.18 0 3.5-1 3.5-1 3.5s-1 0-1-3.5c0-1.24-0.461-2.41-1.32-3.18-2.64-2.37-6.68-1.32-10.7-4.32z" style="fill:#f9f9f9"/>
</svg>
