<svg xmlns="http://www.w3.org/2000/svg" viewBox="0 0 48 48">
 <defs>
  <linearGradient id="linearGradient3764" x1="1" x2="47" gradientUnits="userSpaceOnUse" gradientTransform="matrix(0,-1,1,0,-1.5e-6,47.999998)">
   <stop style="stop-color:#aed2ce;stop-opacity:1"/>
   <stop offset="1" style="stop-color:#bbd9d6;stop-opacity:1"/>
  </linearGradient>
 </defs>
 <g>
  <path d="m 36.31 5 c 5.859 4.062 9.688 10.831 9.688 18.5 c 0 12.426 -10.07 22.5 -22.5 22.5 c -7.669 0 -14.438 -3.828 -18.5 -9.688 c 1.037 1.822 2.306 3.499 3.781 4.969 c 4.085 3.712 9.514 5.969 15.469 5.969 c 12.703 0 23 -10.298 23 -23 c 0 -5.954 -2.256 -11.384 -5.969 -15.469 c -1.469 -1.475 -3.147 -2.744 -4.969 -3.781 z m 4.969 3.781 c 3.854 4.113 6.219 9.637 6.219 15.719 c 0 12.703 -10.297 23 -23 23 c -6.081 0 -11.606 -2.364 -15.719 -6.219 c 4.16 4.144 9.883 6.719 16.219 6.719 c 12.703 0 23 -10.298 23 -23 c 0 -6.335 -2.575 -12.06 -6.719 -16.219 z" style="opacity:0.05"/>
  <path d="m 41.28 8.781 c 3.712 4.085 5.969 9.514 5.969 15.469 c 0 12.703 -10.297 23 -23 23 c -5.954 0 -11.384 -2.256 -15.469 -5.969 c 4.113 3.854 9.637 6.219 15.719 6.219 c 12.703 0 23 -10.298 23 -23 c 0 -6.081 -2.364 -11.606 -6.219 -15.719 z" style="opacity:0.1"/>
  <path d="m 31.25 2.375 c 8.615 3.154 14.75 11.417 14.75 21.13 c 0 12.426 -10.07 22.5 -22.5 22.5 c -9.708 0 -17.971 -6.135 -21.12 -14.75 a 23 23 0 0 0 44.875 -7 a 23 23 0 0 0 -16 -21.875 z" style="opacity:0.2"/>
 </g>
 <g>
  <path d="m 24 1 c 12.703 0 23 10.297 23 23 c 0 12.703 -10.297 23 -23 23 -12.703 0 -23 -10.297 -23 -23 0 -12.703 10.297 -23 23 -23 z" style="fill:url(#linearGradient3764);fill-opacity:1"/>
 </g>
 <g>
  <g>
   <g transform="translate(1,1)">
    <g style="opacity:0.1">
     <!-- color: #bbd9d6 -->
     <g>
      <path d="m 23.539 12 c -1.375 0 -2.553 0.791 -3.141 1.936 -0.353 -0.112 -0.691 -0.188 -1.057 -0.188 l 0.002 0.002 c -0.906 0 -1.805 0.336 -2.5 1.031 l -2.063 2.063 c -0.937 0.937 -1.226 2.254 -0.896 3.439 -1.111 0.497 -1.885 1.604 -1.885 2.904 l 0 3.625 c 0 1.252 0.722 2.32 1.768 2.842 -0.368 1.109 -0.123 2.377 0.76 3.26 l 2.562 2.559 c 0.881 0.884 2.151 1.128 3.262 0.758 c 0.524 1.045 1.595 1.77 2.844 1.77 l 3.621 0 0 -0.002 c 1.249 0 2.317 -0.724 2.84 -1.77 1.11 0.367 2.379 0.123 3.262 -0.76 l 2.559 -2.559 c 0.885 -0.885 1.129 -2.157 0.758 -3.268 1.042 -0.525 1.766 -1.593 1.766 -2.838 l -0.004 -3.625 c 0 -1.246 -0.722 -2.316 -1.766 -2.84 0.364 -1.108 0.119 -2.373 -0.762 -3.254 l -2.559 -2.559 c -0.916 -0.916 -2.251 -1.154 -3.389 -0.723 -0.61 -1.072 -1.751 -1.805 -3.072 -1.805 m -0.625 10.996 1.176 1.176 0 1.66 -1.168 1.168 l -1.662 0.002 -1.168 -1.166 0 -1.652 l 1.184 -1.184" transform="translate(-1,-1)"/>
     </g>
    </g>
   </g>
  </g>
 </g>
 <g>
  <g>
   <!-- color: #bbd9d6 -->
   <g>
    <path d="m 22.539,11 2.91,0 c 1.957,0 3.547,1.586 3.547,3.543 l 0,3.91 c 0,1.957 -1.586,3.543 -3.543,3.543 l -2.91,0 C 20.586,22 18.996,20.414 18.996,18.457 l 0,-3.914 C 18.996,12.586 20.582,11 22.539,11 m 0,0" style="fill:#36535a;fill-opacity:1;stroke:none;fill-rule:nonzero"/>
    <path d="m 31.91 13.527 2.559 2.559 c 1.246 1.246 1.246 3.266 0.004 4.512 l -3.27 3.266 c -1.242 1.246 -3.262 1.246 -4.508 0.004 l -2.563 -2.563 c -1.246 -1.246 -1.246 -3.262 0 -4.508 l 3.266 -3.27 c 1.246 -1.246 3.266 -1.246 4.512 0 m 0 0" style="fill:#86a4ba;fill-opacity:1;stroke:none;fill-rule:nonzero"/>
    <path d="M 36.996,22.18 37,25.805 c 0,1.758 -1.43,3.188 -3.188,3.188 l -4.621,0 C 27.429,28.997 26,27.567 26,25.805 l 0,-3.621 c 0,-1.762 1.426,-3.188 3.188,-3.188 l 4.621,-0.004 c 1.762,0 3.188,1.43 3.188,3.188 m 0,0" style="fill:#36535a;fill-opacity:1;stroke:none;fill-rule:nonzero"/>
    <path d="m 34.477 31.91 -2.559 2.559 c -1.246 1.246 -3.266 1.246 -4.512 0.004 l -3.266 -3.27 c -1.246 -1.242 -1.25 -3.262 -0.004 -4.508 l 2.563 -2.563 c 1.242 -1.246 3.262 -1.246 4.508 0 l 3.27 3.266 c 1.246 1.246 1.246 3.266 0 4.512 m 0 0" style="fill:#86a4ba;fill-opacity:1;stroke:none;fill-rule:nonzero"/>
    <path d="m 25.816 37 -3.621 0 c -1.762 0 -3.191 -1.426 -3.191 -3.188 l 0 -4.621 c 0 -1.762 1.426 -3.188 3.188 -3.188 l 3.621 -0.004 c 1.762 0 3.191 1.43 3.191 3.188 l 0 4.621 c 0 1.762 -1.426 3.191 -3.188 3.191 m 0 0" style="fill:#36535a;fill-opacity:1;stroke:none;fill-rule:nonzero"/>
    <path d="m 16.09 34.473 -2.563 -2.559 c -1.246 -1.246 -1.246 -3.266 0 -4.512 l 3.266 -3.266 c 1.242 -1.246 3.262 -1.246 4.508 0 l 2.563 2.559 c 1.246 1.246 1.246 3.262 0 4.508 l -3.266 3.27 c -1.246 1.246 -3.266 1.246 -4.508 0 m 0 0" style="fill:#86a4ba;fill-opacity:1;stroke:none;fill-rule:nonzero"/>
    <path d="M 14.188,19 C 12.422,19 11,20.422 11,22.188 l 0,3.625 c 0,1.766 1.422,3.188 3.188,3.188 l 4.625,0 c 1.766,0 3.188,-1.422 3.188,-3.188 l 0,-3.625 c 0,-0.082 -0.023,-0.168 -0.031,-0.25 C 20.462,21.7 19.306,20.54 19.064,19.032 18.982,19.028 18.9,19.001 18.814,19.001 m -4.625,0" style="fill:#36535a;fill-opacity:1;stroke:none;fill-rule:nonzero"/>
    <path d="m 18.344,12.75 c -0.906,0 -1.805,0.336 -2.5,1.031 l -2.063,2.063 c -1.387,1.387 -1.387,3.613 0,5 l 2.75,2.781 c 1.387,1.387 3.645,1.387 5.03,0 L 23.186,22 22.53,22 c -1.965,0 -3.531,-1.566 -3.531,-3.531 l 0,-3.938 c 0,-0.582 0.156,-1.109 0.406,-1.594 -0.355,-0.113 -0.695,-0.188 -1.063,-0.188 m 0,0" style="fill:#86a4ba;fill-opacity:1;stroke:none;fill-rule:nonzero"/>
   </g>
  </g>
 </g>
 <g>
  <path d="m 40.03 7.531 c 3.712 4.084 5.969 9.514 5.969 15.469 0 12.703 -10.297 23 -23 23 c -5.954 0 -11.384 -2.256 -15.469 -5.969 4.178 4.291 10.01 6.969 16.469 6.969 c 12.703 0 23 -10.298 23 -23 0 -6.462 -2.677 -12.291 -6.969 -16.469 z" style="opacity:0.1"/>
 </g>
</svg>
