<svg version="1.1" viewBox="0 0 48 48" xmlns="http://www.w3.org/2000/svg">
 <defs>
  <linearGradient id="bg" x1="1" x2="47" gradientTransform="matrix(0 -1 1 0 -1.5e-6 48)" gradientUnits="userSpaceOnUse">
   <stop style="stop-color:#bbd9d6" offset="0"/>
   <stop style="stop-color:#c8e0de" offset="1"/>
  </linearGradient>
 </defs>
 <path d="m36.31 5c5.859 4.062 9.688 10.831 9.688 18.5 0 12.426-10.07 22.5-22.5 22.5-7.669 0-14.438-3.828-18.5-9.688 1.037 1.822 2.306 3.499 3.781 4.969 4.085 3.712 9.514 5.969 15.469 5.969 12.703 0 23-10.298 23-23 0-5.954-2.256-11.384-5.969-15.469-1.469-1.475-3.147-2.744-4.969-3.781zm4.969 3.781c3.854 4.113 6.219 9.637 6.219 15.719 0 12.703-10.297 23-23 23-6.081 0-11.606-2.364-15.719-6.219 4.16 4.144 9.883 6.719 16.219 6.719 12.703 0 23-10.298 23-23 0-6.335-2.575-12.06-6.719-16.219z" style="opacity:.05"/>
 <path d="m41.28 8.781c3.712 4.085 5.969 9.514 5.969 15.469 0 12.703-10.297 23-23 23-5.954 0-11.384-2.256-15.469-5.969 4.113 3.854 9.637 6.219 15.719 6.219 12.703 0 23-10.298 23-23 0-6.081-2.364-11.606-6.219-15.719z" style="opacity:.1"/>
 <path d="m31.25 2.375c8.615 3.154 14.75 11.417 14.75 21.13 0 12.426-10.07 22.5-22.5 22.5-9.708 0-17.971-6.135-21.12-14.75a23 23 0 0 0 44.875-7 23 23 0 0 0-16-21.875z" style="opacity:.2"/>
 <path d="m24 1c12.703 0 23 10.297 23 23s-10.297 23-23 23-23-10.297-23-23 10.297-23 23-23z" style="fill:url(#bg)"/>
 <path d="m40.03 7.531c3.712 4.084 5.969 9.514 5.969 15.469 0 12.703-10.297 23-23 23-5.954 0-11.384-2.256-15.469-5.969 4.178 4.291 10.01 6.969 16.469 6.969 12.703 0 23-10.298 23-23 0-6.462-2.677-12.291-6.969-16.469z" style="opacity:.1"/>
 <path d="m32.279 13.893-18.593 15.794s-0.13297 2.2498 0.70703 3.0898l2.8301 2.8301c0.84 0.84 2.0408 1.067 3.0898 0.70703 0.487 0.997 1.5015 1.6875 2.6895 1.6875h4c1.188 0 2.2005-0.6905 2.6875-1.6875 1.049 0.36 2.2498 0.13297 3.0898-0.70703l2.8301-2.8301c0.84-0.84 1.067-2.0408 0.70703-3.0898 0.997-0.487 1.6855-1.4995 1.6855-2.6875v-4c0-1.188-0.68855-2.2005-1.6855-2.6875 0.36-1.049 0.13297-2.2498-0.70703-3.0898zm-8.1052 9.105h1.6562l1.1719 1.1738-2.8281 2.8262-1.1719-1.1719v-1.6543z" style="opacity:.1"/>
 <rect transform="rotate(-90)" x="-29" y="26" width="10" height="11" rx="3" style="fill:#36535a"/>
 <rect transform="matrix(.70711 -.70711 .70711 .70711 0 0)" x="-5" y="35.941" width="10" height="11" rx="3" style="fill:#86a4ba"/>
 <rect x="19" y="26" width="10" height="11" rx="3" style="fill:#36535a"/>
 <rect transform="matrix(-.70711 -.70711 .70711 -.70711 0 0)" x="-38.941" y="-13" width="10" height="11" rx="3" style="fill:#86a4ba"/>
 <rect transform="rotate(-90)" x="-29" y="11" width="10" height="11" rx="3" style="fill:#36535a"/>
 <rect transform="matrix(.70711 -.70711 .70711 .70711 0 0)" x="-5" y="20.941" width="10" height="11" rx="3" style="fill:#86a4ba"/>
 <rect x="19" y="11" width="10" height="11" rx="3" style="fill:#36535a"/>
 <path d="m29.656 12.512c-0.767 0-1.533 0.293-2.121 0.881l-3.535 3.537c-1.175 1.175-1.175 3.067 0 4.242l2 2v-1.172c0-1.662 1.338-3 3-3h5c0.474 0 0.916 0.118 1.314 0.313 0.36-1.049 0.133-2.25-0.707-3.09l-2.83-2.83c-0.588-0.588-1.354-0.881-2.121-0.881" style="fill:#86a4ba"/>
</svg>
