<svg xmlns="http://www.w3.org/2000/svg" viewBox="0 0 48 48">
 <defs>
  <linearGradient id="linearGradient3764" x1="1" x2="47" gradientUnits="userSpaceOnUse" gradientTransform="matrix(0,-1,1,0,-1.5e-6,47.999998)">
   <stop style="stop-color:#70af2d;stop-opacity:1"/>
   <stop offset="1" style="stop-color:#79bf31;stop-opacity:1"/>
  </linearGradient>
 </defs>
 <g>
  <path d="m 36.31 5 c 5.859 4.062 9.688 10.831 9.688 18.5 c 0 12.426 -10.07 22.5 -22.5 22.5 c -7.669 0 -14.438 -3.828 -18.5 -9.688 c 1.037 1.822 2.306 3.499 3.781 4.969 c 4.085 3.712 9.514 5.969 15.469 5.969 c 12.703 0 23 -10.298 23 -23 c 0 -5.954 -2.256 -11.384 -5.969 -15.469 c -1.469 -1.475 -3.147 -2.744 -4.969 -3.781 z m 4.969 3.781 c 3.854 4.113 6.219 9.637 6.219 15.719 c 0 12.703 -10.297 23 -23 23 c -6.081 0 -11.606 -2.364 -15.719 -6.219 c 4.16 4.144 9.883 6.719 16.219 6.719 c 12.703 0 23 -10.298 23 -23 c 0 -6.335 -2.575 -12.06 -6.719 -16.219 z" style="opacity:0.05"/>
  <path d="m 41.28 8.781 c 3.712 4.085 5.969 9.514 5.969 15.469 c 0 12.703 -10.297 23 -23 23 c -5.954 0 -11.384 -2.256 -15.469 -5.969 c 4.113 3.854 9.637 6.219 15.719 6.219 c 12.703 0 23 -10.298 23 -23 c 0 -6.081 -2.364 -11.606 -6.219 -15.719 z" style="opacity:0.1"/>
  <path d="m 31.25 2.375 c 8.615 3.154 14.75 11.417 14.75 21.13 c 0 12.426 -10.07 22.5 -22.5 22.5 c -9.708 0 -17.971 -6.135 -21.12 -14.75 a 23 23 0 0 0 44.875 -7 a 23 23 0 0 0 -16 -21.875 z" style="opacity:0.2"/>
 </g>
 <g>
  <path d="m 24 1 c 12.703 0 23 10.297 23 23 c 0 12.703 -10.297 23 -23 23 -12.703 0 -23 -10.297 -23 -23 0 -12.703 10.297 -23 23 -23 z" style="fill:url(#linearGradient3764);fill-opacity:1"/>
 </g>
 <g>
  <g>
   <g transform="translate(1,1)">
    <g style="opacity:0.1">
     <!-- color: #79bf31 -->
     <g>
      <path d="m 26.398 12 c -0.324 0.012 -0.652 0.145 -0.895 0.402 l -11.148 11.758 c -0.484 0.516 -0.473 1.316 0.039 1.801 l 0.969 0.918 l 2.945 -0.117 l 10.59 -11.16 c 0.484 -0.516 0.438 -1.316 -0.074 -1.801 l -1.531 -1.441 c -0.254 -0.242 -0.566 -0.367 -0.895 -0.359 m 0.746 8.922 c -0.328 0.008 -0.648 0.141 -0.895 0.398 l -7.086 7.398 c -0.488 0.512 -0.473 1.316 0.039 1.801 l 0.969 0.879 l 2.945 -0.078 l 6.527 -6.801 c 0.488 -0.512 0.473 -1.313 -0.039 -1.801 l -1.566 -1.438 c -0.254 -0.242 -0.566 -0.371 -0.895 -0.359 m -0.707 10.277 c -0.316 -0.004 -0.648 0.145 -0.898 0.402 l -1.488 1.52 c -0.492 0.508 -0.48 1.359 0 1.879 l 0.852 0.961 l 2.91 0.039 l 0.898 -0.961 c 0.488 -0.512 0.516 -1.32 0.035 -1.84 l -1.457 -1.598 c -0.234 -0.262 -0.535 -0.359 -0.852 -0.363 m 0 -0.039" style="fill:#000;fill-opacity:1;stroke:none;fill-rule:nonzero"/>
     </g>
    </g>
   </g>
  </g>
 </g>
 <g>
  <g>
   <!-- color: #79bf31 -->
   <g>
    <path d="m 26.398 12 c -0.324 0.012 -0.652 0.145 -0.895 0.402 l -11.148 11.758 c -0.484 0.516 -0.473 1.316 0.039 1.801 l 0.969 0.918 l 2.945 -0.117 l 10.59 -11.16 c 0.484 -0.516 0.438 -1.316 -0.074 -1.801 l -1.531 -1.441 c -0.254 -0.242 -0.566 -0.367 -0.895 -0.359 m 0.746 8.922 c -0.328 0.008 -0.648 0.141 -0.895 0.398 l -7.086 7.398 c -0.488 0.512 -0.473 1.316 0.039 1.801 l 0.969 0.879 l 2.945 -0.078 l 6.527 -6.801 c 0.488 -0.512 0.473 -1.313 -0.039 -1.801 l -1.566 -1.438 c -0.254 -0.242 -0.566 -0.371 -0.895 -0.359 m -0.707 10.277 c -0.316 -0.004 -0.648 0.145 -0.898 0.402 l -1.488 1.52 c -0.492 0.508 -0.48 1.359 0 1.879 l 0.852 0.961 l 2.91 0.039 l 0.898 -0.961 c 0.488 -0.512 0.516 -1.32 0.035 -1.84 l -1.457 -1.598 c -0.234 -0.262 -0.535 -0.359 -0.852 -0.363 m 0 -0.039" style="fill:#f9f9f9;fill-opacity:1;stroke:none;fill-rule:nonzero"/>
   </g>
  </g>
 </g>
 <g>
  <path d="m 40.03 7.531 c 3.712 4.084 5.969 9.514 5.969 15.469 0 12.703 -10.297 23 -23 23 c -5.954 0 -11.384 -2.256 -15.469 -5.969 4.178 4.291 10.01 6.969 16.469 6.969 c 12.703 0 23 -10.298 23 -23 0 -6.462 -2.677 -12.291 -6.969 -16.469 z" style="opacity:0.1"/>
 </g>
</svg>
