<svg version="1.1" viewBox="0 0 48 48" xmlns="http://www.w3.org/2000/svg">
 <defs>
  <linearGradient id="linearGradient840" x1="1" x2="47" gradientUnits="userSpaceOnUse">
   <stop style="stop-color:#767676" offset="0"/>
   <stop style="stop-color:#808080" offset="1"/>
  </linearGradient>
 </defs>
 <path d="m36.31 5c5.859 4.062 9.688 10.831 9.688 18.5 0 12.426-10.07 22.5-22.5 22.5-7.669 0-14.438-3.828-18.5-9.688 1.037 1.822 2.306 3.499 3.781 4.969 4.085 3.712 9.514 5.969 15.469 5.969 12.703 0 23-10.298 23-23 0-5.954-2.256-11.384-5.969-15.469-1.469-1.475-3.147-2.744-4.969-3.781zm4.969 3.781c3.854 4.113 6.219 9.637 6.219 15.719 0 12.703-10.297 23-23 23-6.081 0-11.606-2.364-15.719-6.219 4.16 4.144 9.883 6.719 16.219 6.719 12.703 0 23-10.298 23-23 0-6.335-2.575-12.06-6.719-16.219z" style="opacity:.05"/>
 <path d="m41.28 8.781c3.712 4.085 5.969 9.514 5.969 15.469 0 12.703-10.297 23-23 23-5.954 0-11.384-2.256-15.469-5.969 4.113 3.854 9.637 6.219 15.719 6.219 12.703 0 23-10.298 23-23 0-6.081-2.364-11.606-6.219-15.719z" style="opacity:.1"/>
 <path d="m31.25 2.375c8.615 3.154 14.75 11.417 14.75 21.13 0 12.426-10.07 22.5-22.5 22.5-9.708 0-17.971-6.135-21.12-14.75a23 23 0 0 0 44.875 -7 23 23 0 0 0 -16 -21.875z" style="opacity:.2"/>
 <g transform="matrix(0,-1,1,0,0,48)" style="fill:#501616">
  <path d="m24 1c12.703 0 23 10.297 23 23s-10.297 23-23 23-23-10.297-23-23 10.297-23 23-23z" style="fill:url(#linearGradient840)"/>
 </g>
 <path d="m40.03 7.531c3.712 4.084 5.969 9.514 5.969 15.469 0 12.703-10.297 23-23 23-5.954 0-11.384-2.256-15.469-5.969 4.178 4.291 10.01 6.969 16.469 6.969 12.703 0 23-10.298 23-23 0-6.462-2.677-12.291-6.969-16.469z" style="opacity:.1"/>
 <path d="m25 13c-2.25 0-4.4559 0.8285-6.1406 2.2324s-2.8594 3.4342-2.8594 5.7676a1.0001 1.0001 0 1 0 2 0c0-1.6667 0.82533-3.1363 2.1406-4.2324s3.1094-1.7676 4.8594-1.7676c1.8352 0 3.6304 0.47157 4.9023 1.4258 1.2719 0.95421 2.0977 2.3407 2.0977 4.5742 0 1 0.05727 2.4713 1.293 3.707a1.0001 1.0001 0 1 0 1.4141 -1.4141c-0.7643-0.7643-0.70703-1.293-0.70703-2.293 0-2.7664-1.1712-4.88-2.8984-6.1758-1.7272-1.2958-3.9333-1.8242-6.1016-1.8242zm0 4c-3.0333 0-5 2.5-5 5 0 0.66667-0.26803 1.0602-0.80469 1.418-0.53665 0.35777-1.362 0.58203-2.1953 0.58203a1.0001 1.0001 0 1 0 0 2c1.1667 0 2.3413-0.27574 3.3047-0.91797 0.96335-0.64223 1.6953-1.7487 1.6953-3.082 0-1.5 1.0333-3 3-3s3 1.5 3 3c0 2.1667 0.54117 3.8863 1.4512 5.0996 0.91 1.2133 2.2155 1.9004 3.5488 1.9004a1.0001 1.0001 0 1 0 0 -2c-0.66667 0-1.3592-0.31294-1.9492-1.0996-0.59-0.78667-1.0508-2.0671-1.0508-3.9004 0-2.5-1.9667-5-5-5zm-0.042969 4.0156a1.0001 1.0001 0 0 0 -0.95703 0.98438c0 2.2333-0.84227 3.6479-2.0078 4.6016-1.1655 0.95363-2.7144 1.3984-3.9922 1.3984a1.0001 1.0001 0 1 0 0 2c1.7222 0 3.6734-0.55519 5.2578-1.8516 0.58677-0.48008 1.0226-1.178 1.4551-1.8691 0.55398 1.6407 1.3631 3.0055 2.3027 4.0234 1.6589 1.7972 3.4844 2.6973 4.9844 2.6973a1.0001 1.0001 0 1 0 0 -2c-0.5 0-2.1745-0.59989-3.5156-2.0527-1.3411-1.4528-2.4844-3.6854-2.4844-6.9473a1.0001 1.0001 0 0 0 -1.043 -0.98438zm-0.9707 8.9844a1.0001 1.0001 0 0 0 -0.69336 0.29297c-0.7643 0.7643-2.6263 1.707-4.293 1.707a1.0001 1.0001 0 1 0 0 2c1.9041 0 3.5488-0.77065 4.8086-1.7012 0.81628 1.0033 2.051 2.7091 4.875 3.6504a1.0006 1.0006 0 1 0 0.63281 -1.8984c-2.6838-0.89459-3.3737-2.5221-4.6094-3.7578a1.0001 1.0001 0 0 0 -0.7207 -0.29297zm-1.5703 4.5996c-0.61086 0.04003-1.244 0.19623-1.8633 0.50586a1.0001 1.0001 0 1 0 0.89453 1.7891c0.76149-0.38074 1.4709-0.3783 2.1523-0.18359 0.68149 0.19471 1.3112 0.61394 1.6934 0.99609a1.0001 1.0001 0 1 0 1.4141 -1.4141c-0.61785-0.61785-1.4881-1.1986-2.5566-1.5039-0.53426-0.15264-1.1235-0.22948-1.7344-0.18945z" style="opacity:.1"/>
 <path d="m24 12c-2.25 0-4.4559 0.8285-6.1406 2.2324s-2.8594 3.4342-2.8594 5.7676a1.0001 1.0001 0 1 0 2 0c0-1.6667 0.82533-3.1363 2.1406-4.2324s3.1094-1.7676 4.8594-1.7676c1.8352 0 3.6285 0.47157 4.9004 1.4258 1.2719 0.95421 2.0996 2.3407 2.0996 4.5742 0 1 0.05727 2.4713 1.293 3.707a1.0001 1.0001 0 1 0 1.4141 -1.4141c-0.7643-0.7643-0.70703-1.293-0.70703-2.293 0-2.7664-1.1712-4.88-2.8984-6.1758-1.7272-1.2958-3.9333-1.8242-6.1016-1.8242zm0 4c-3.0333 0-5 2.5-5 5 0 0.66667-0.26803 1.0602-0.80469 1.418-0.53665 0.35777-1.362 0.58203-2.1953 0.58203a1.0001 1.0001 0 1 0 0 2c1.1667 0 2.3413-0.27574 3.3047-0.91797 0.96335-0.64223 1.6953-1.7487 1.6953-3.082 0-1.5 1.0333-3 3-3s3 1.5 3 3c0 2.1667 0.53922 3.8863 1.4492 5.0996 0.91 1.2133 2.2174 1.9004 3.5508 1.9004a1.0001 1.0001 0 1 0 0 -2c-0.66667 0-1.3592-0.31294-1.9492-1.0996-0.59-0.78667-1.0508-2.0671-1.0508-3.9004 0-2.5-1.9667-5-5-5zm-0.042969 4.0156a1.0001 1.0001 0 0 0 -0.95703 0.98438c0 2.2333-0.84227 3.6479-2.0078 4.6016-1.1655 0.95363-2.7144 1.3984-3.9922 1.3984a1.0001 1.0001 0 1 0 0 2c1.7222 0 3.6734-0.55519 5.2578-1.8516 0.58677-0.48008 1.0226-1.178 1.4551-1.8691 0.55398 1.6407 1.3631 3.0055 2.3027 4.0234 1.6589 1.7972 3.4844 2.6973 4.9844 2.6973a1.0001 1.0001 0 1 0 0 -2c-0.5 0-2.1745-0.59989-3.5156-2.0527-1.3411-1.4528-2.4844-3.6854-2.4844-6.9473a1.0001 1.0001 0 0 0 -1.043 -0.98438zm-0.97266 8.9844a1.0001 1.0001 0 0 0 -0.69141 0.29297c-0.7643 0.7643-2.6263 1.707-4.293 1.707a1.0001 1.0001 0 1 0 0 2c1.9041 0 3.5488-0.77065 4.8086-1.7012 0.81628 1.0033 2.051 2.7091 4.875 3.6504a1.0006 1.0006 0 1 0 0.63281 -1.8984c-2.6838-0.89459-3.3737-2.5221-4.6094-3.7578a1.0001 1.0001 0 0 0 -0.72266 -0.29297zm-1.5703 4.5996c-0.61086 0.04003-1.2421 0.19623-1.8613 0.50586a1.0001 1.0001 0 1 0 0.89453 1.7891c0.76149-0.38074 1.4709-0.3783 2.1523-0.18359 0.68149 0.19471 1.3112 0.61394 1.6934 0.99609a1.0001 1.0001 0 1 0 1.4141 -1.4141c-0.61785-0.61785-1.4881-1.1986-2.5566-1.5039-0.53426-0.15264-1.1255-0.22948-1.7363-0.18945z" style="fill:#fff"/>
</svg>
