<svg version="1.1" viewBox="0 0 48 48" xmlns="http://www.w3.org/2000/svg" xmlns:xlink="http://www.w3.org/1999/xlink">
 <defs>
  <linearGradient id="bg" x1="1" x2="47" gradientTransform="matrix(0 -1 1 0 -1.5e-6 48)" gradientUnits="userSpaceOnUse">
   <stop style="stop-color:#814949" offset="0"/>
   <stop style="stop-color:#8e5050" offset="1"/>
  </linearGradient>
  <linearGradient id="linearGradient3193" x1="11" x2="11" y1="35" y2="9" gradientTransform="matrix(.035539 0 0 .031358 10.316 8.5308)" gradientUnits="userSpaceOnUse">
   <stop style="stop-color:#ff6900" offset="0"/>
   <stop style="stop-color:#ffec00" offset="1"/>
  </linearGradient>
 </defs>
 <path d="m36.31 5c5.859 4.062 9.688 10.831 9.688 18.5 0 12.426-10.07 22.5-22.5 22.5-7.669 0-14.438-3.828-18.5-9.688 1.037 1.822 2.306 3.499 3.781 4.969 4.085 3.712 9.514 5.969 15.469 5.969 12.703 0 23-10.298 23-23 0-5.954-2.256-11.384-5.969-15.469-1.469-1.475-3.147-2.744-4.969-3.781zm4.969 3.781c3.854 4.113 6.219 9.637 6.219 15.719 0 12.703-10.297 23-23 23-6.081 0-11.606-2.364-15.719-6.219 4.16 4.144 9.883 6.719 16.219 6.719 12.703 0 23-10.298 23-23 0-6.335-2.575-12.06-6.719-16.219z" style="opacity:.05"/>
 <path d="m41.28 8.781c3.712 4.085 5.969 9.514 5.969 15.469 0 12.703-10.297 23-23 23-5.954 0-11.384-2.256-15.469-5.969 4.113 3.854 9.637 6.219 15.719 6.219 12.703 0 23-10.298 23-23 0-6.081-2.364-11.606-6.219-15.719z" style="opacity:.1"/>
 <path d="m31.25 2.375c8.615 3.154 14.75 11.417 14.75 21.13 0 12.426-10.07 22.5-22.5 22.5-9.708 0-17.971-6.135-21.12-14.75a23 23 0 0 0 44.875-7 23 23 0 0 0-16-21.875z" style="opacity:.2"/>
 <path d="m24 1c12.703 0 23 10.297 23 23s-10.297 23-23 23-23-10.297-23-23 10.297-23 23-23z" style="fill:url(#bg)"/>
 <path d="m40.03 7.531c3.712 4.084 5.969 9.514 5.969 15.469 0 12.703-10.297 23-23 23-5.954 0-11.384-2.256-15.469-5.969 4.178 4.291 10.01 6.969 16.469 6.969 12.703 0 23-10.298 23-23 0-6.462-2.677-12.291-6.969-16.469z" style="opacity:.1"/>
 <path d="m21 11c-0.574 0.77-1 1.5-1 2.5 0 2.5 4 2.5 4 8.5 0 4-3.7 7-1 11-3.3205-2.7345-3-7-3-11 0-3 0-5-2-6 2 5-5 8.148-5 13 0 5.148 4 8 9 8-3.422-1.391-5.176-5.6-5-7.998 2.406 5.453 6 7.998 12 7.998-2.313-3.02-3-3.673-3-5.5996 0-2.4004 4-4.9004 4-8.9004 0-9-9.001-7.501-9-11.5zm10.5 8c1.1746 1.5323 1.5 3 1.5 4 0 4-4 5-4 8 0 2 0.578 3.379 2 6-2e-3 -5.002 6-4 6-10 0-4-3.891-6.773-5.5-8z" style="opacity:.1"/>
 <path d="m20 9c-0.574 0.77-1 1.5-1 2.5 0 2.5 4 2.5 4 8.5 0 4-3.7 7-1 11-3.3205-2.7345-3-7-3-11 0-3 0-5-2-6 2 5-5 8.148-5 13 0 5.148 4 8 9 8-3.422-1.391-5.176-5.6-5-7.998 2.406 5.453 6 7.998 12 7.998-2.313-3.02-3-3.673-3-5.5996 0-2.4004 4-4.9004 4-8.9004 0-9-9.001-7.501-9-11.5zm10.5 8c1.1746 1.5323 1.5 3 1.5 4 0 4-4 5-4 8 0 2 0.578 3.379 2 6-2e-3 -5.002 6-4 6-10 0-4-3.891-6.773-5.5-8z" style="fill:url(#linearGradient3193)"/>
</svg>
