<svg version="1.1" viewBox="0 0 48 48" xmlns="http://www.w3.org/2000/svg">
 <defs>
  <linearGradient id="bg" x2="0" y1="1" y2="47" gradientUnits="userSpaceOnUse">
   <stop style="stop-color:#554875" offset="0"/>
   <stop style="stop-color:#4c4068" offset="1"/>
  </linearGradient>
 </defs>
 <path d="m36.3 5c5.86 4.06 9.69 10.8 9.69 18.5 0 12.4-10.1 22.5-22.5 22.5-7.67 0-14.4-3.83-18.5-9.69 1.04 1.82 2.31 3.5 3.78 4.97 4.08 3.71 9.51 5.97 15.5 5.97 12.7 0 23-10.3 23-23 0-5.95-2.26-11.4-5.97-15.5-1.47-1.48-3.15-2.74-4.97-3.78zm4.97 3.78c3.85 4.11 6.22 9.64 6.22 15.7 0 12.7-10.3 23-23 23-6.08 0-11.6-2.36-15.7-6.22 4.16 4.14 9.88 6.72 16.2 6.72 12.7 0 23-10.3 23-23 0-6.34-2.58-12.1-6.72-16.2z" style="opacity:.05"/>
 <path d="m41.3 8.78c3.71 4.08 5.97 9.51 5.97 15.5 0 12.7-10.3 23-23 23-5.95 0-11.4-2.26-15.5-5.97 4.11 3.85 9.64 6.22 15.7 6.22 12.7 0 23-10.3 23-23 0-6.08-2.36-11.6-6.22-15.7z" style="opacity:.1"/>
 <path d="m31.2 2.38c8.62 3.15 14.8 11.4 14.8 21.1 0 12.4-10.1 22.5-22.5 22.5-9.71 0-18-6.14-21.1-14.8a23 23 0 0 0 44.9-7 23 23 0 0 0-16-21.9z" style="opacity:.2"/>
 <circle cx="24" cy="24" r="23" style="fill:url(#bg)"/>
 <path d="m40 7.53c3.71 4.08 5.97 9.51 5.97 15.5 0 12.7-10.3 23-23 23-5.95 0-11.4-2.26-15.5-5.97 4.18 4.29 10 6.97 16.5 6.97 12.7 0 23-10.3 23-23 0-6.46-2.68-12.3-6.97-16.5z" style="opacity:.1"/>
 <path d="m30 9c-2.6 0.866-5.19 3.98-5.84 8.04l-4.16 1.71v-3.76s-2.52 1-3.5 3c-0.59-1.36-0.5-4-0.5-4-3.45 2-6 6.28-6 11-1.27e-4 8.28 6.72 15 15 15s15-6.72 15-15c-1.31e-4 -4.87-2.02-9.19-6-12 2.11 2.11 3.22 5.22 3.7 8.26 0 0-6.82-7.89-7.7-12.3z" style="opacity:.1"/>
 <path d="m25 13 4-5c1 5 8 7 8 15v5l-14 4z" style="fill:#f0dc51"/>
 <path d="m23 18c0-5 3-9 6-10-1.32 2-2 3.48-2 5 0 2 0.33 3 2 4.8z" style="fill:#efca49"/>
 <path d="m32 24a8 8 0 0 1-8 8 8 8 0 0 1-8-8 8 8 0 0 1 8-8 8 8 0 0 1 8 8z" style="fill:#7778c5"/>
 <path d="m20 17.1c-2.48 1.43-4 4.07-4 6.93 3.77e-4 7 6.13 7.46 6.13 7.46-2.43-0.94-4.13-3.03-4.13-5.46 1.2-1.55 2.5-2 4.5-2 1 0 2.04-1 2.5-2-0.183-0.111-0.463-0.231-0.811-0.379-1.04-0.443-2.69-1.14-4.19-2.62z" style="opacity:.1"/>
 <path d="m19 14s-2.52 1-3.5 3l1.5 1h2z" style="fill:#f7a166"/>
 <path d="m27 19c1.86 1.2 3 3.29 3 5.5 4.86e-4 3.38-2.63 6.22-6 6.5l3 1 3.5-2c1.5-1 2.5-2.91 2.5-5 0-3.31-2.69-6-6-6z" style="fill:#eec750"/>
 <path d="m15 13c-3.45 2-6 6.28-6 11 0 6 5 14 15 14 6.4 0 12-10 12-12 0 0-5 5-12 5-2.27 0-4.41-0.986-5.76-2.36-1.12-1.15-2.13-2.73-1.94-4.64l0.699-3-3-2z" style="fill:#f37052"/>
 <path d="m37 19c0 6.63-5.82 12-13 12 8.53 0 11-3.5 11-3.5 0 2-4.6 9.5-11 9.5v1c8.28 0 14-9 14-14z" style="fill:#f59b51"/>
 <path d="m15 13c-3 2-3.9 5-2 8h11c-0.732-0.445-3-1.02-5-3-1-0.996-2-1-3.5-1-0.59-1.36-0.5-4-0.5-4z" style="fill:#f3974c"/>
 <path d="m37.5 24c0 7-6 13-13.5 13-8.5 0-15-8-15-13 0 8.28 6.72 15 15 15s15-6.72 15-15z" style="fill:#e33e5f"/>
 <path d="m16 20c-2 0-3 1-3 1s1.23 2 3 2v1c0 3.65 3.2 6.64 7.27 6.97-3.52-0.313-6.27-2.86-6.27-5.97 1.2-1.55 2.5-2 4.5-2 1 0 2.04-1 2.5-2-7 0-6-1-8-1z" style="fill:#f2b64e"/>
 <path d="m33 12c3 3 4 8 4 12 0 7-6 13-13.5 13 8.28 0 15.5-4.72 15.5-13-3.53e-4 -4.87-2.02-9.19-6-12z" style="fill:#f3b150"/>
</svg>
