<svg xmlns="http://www.w3.org/2000/svg" viewBox="0 0 48 48">
 <defs>
  <linearGradient id="linearGradient3764" x1="1" x2="47" gradientUnits="userSpaceOnUse" gradientTransform="matrix(0,-1,1,0,-1.5e-6,47.999998)">
   <stop style="stop-color:#69b5cd;stop-opacity:1"/>
   <stop offset="1" style="stop-color:#78bcd2;stop-opacity:1"/>
  </linearGradient>
  <linearGradient gradientTransform="translate(0.012,0.0069995)" id="linearGradient4225" y1="47" x2="-0.016" y2="0.993" gradientUnits="userSpaceOnUse">
   <stop style="stop-color:#157abc;stop-opacity:1"/>
   <stop offset="1" style="stop-color:#1785cd;stop-opacity:1"/>
  </linearGradient>
 </defs>
 <g>
  <path d="m 36.31 5 c 5.859 4.062 9.688 10.831 9.688 18.5 c 0 12.426 -10.07 22.5 -22.5 22.5 c -7.669 0 -14.438 -3.828 -18.5 -9.688 c 1.037 1.822 2.306 3.499 3.781 4.969 c 4.085 3.712 9.514 5.969 15.469 5.969 c 12.703 0 23 -10.298 23 -23 c 0 -5.954 -2.256 -11.384 -5.969 -15.469 c -1.469 -1.475 -3.147 -2.744 -4.969 -3.781 z m 4.969 3.781 c 3.854 4.113 6.219 9.637 6.219 15.719 c 0 12.703 -10.297 23 -23 23 c -6.081 0 -11.606 -2.364 -15.719 -6.219 c 4.16 4.144 9.883 6.719 16.219 6.719 c 12.703 0 23 -10.298 23 -23 c 0 -6.335 -2.575 -12.06 -6.719 -16.219 z" style="opacity:0.05"/>
  <path d="m 41.28 8.781 c 3.712 4.085 5.969 9.514 5.969 15.469 c 0 12.703 -10.297 23 -23 23 c -5.954 0 -11.384 -2.256 -15.469 -5.969 c 4.113 3.854 9.637 6.219 15.719 6.219 c 12.703 0 23 -10.298 23 -23 c 0 -6.081 -2.364 -11.606 -6.219 -15.719 z" style="opacity:0.1"/>
  <path d="m 31.25 2.375 c 8.615 3.154 14.75 11.417 14.75 21.13 c 0 12.426 -10.07 22.5 -22.5 22.5 c -9.708 0 -17.971 -6.135 -21.12 -14.75 a 23 23 0 0 0 44.875 -7 a 23 23 0 0 0 -16 -21.875 z" style="opacity:0.2"/>
 </g>
 <g>
  <path d="m 23.996 0.996 0.004 0.004 c -2.27 0 -4.462 0.334 -6.533 0.947 1.534 1.053 -1.25 2.02 -3.205 1.215 c -2.782 1.303 -5.251 3.153 -7.291 5.4 l -3.971 15.438 24 22 c 0 0 15.18 -12 18 -29.27 0 0 -10.254 -13.04 -10.277 -13.08 -3.203 -1.692 -6.852 -2.654 -10.727 -2.654 z" style="fill:url(#linearGradient3764);fill-opacity:1"/>
  <path d="m 17.727,2.926 c -0.43,0.422 -1.571,0.659 -2.674,0.461 l -0.367,0.27 -0.781,-0.031 0.066,0.5 1.121,-0.031 -0.317,2.505 0.189,1.063 0.754,0.125 0.719,-0.688 0.625,-0.656 0.965,-0.25 1.229,-0.594 0.719,-0.875 1.031,-1.254 0.719,-0.189 -0.031,-0.275 -1.121,0 z m 9.33,0.461 C 27.002,3.407 25.53,3.408 25.53,3.408 l -0.379,0.1 0.5,0.598 0.531,-0.5 0.344,0.219 0.5,-0.25 c 0,0 0.09,-0.212 0.031,-0.187 z m 6,0.461 -0.375,0.004 -0.469,0.063 -0.406,0.25 -0.469,0.35 -0.277,0.5 0.59,-0.099 0.219,-0.188 0.031,-0.152 0.469,-0.313 c 0,0 0.609,0.008 0.656,0 0.051,-0.012 0.189,-0.191 0.189,-0.191 z M 29.221,5.829 28.346,5.515 27.467,5.359 26.526,5.55 l -0.969,0.779 -0.436,0.439 -0.654,0.719 -0.25,0.031 -0.096,0.344 0.125,0.344 c 0,0 0.133,0.156 0.156,0.156 0.02,0 0.25,-0.125 0.25,-0.125 0,0 0.027,-0.117 0.156,-0.156 0.133,-0.039 0.25,-0.063 0.25,-0.063 l 0.188,0.375 0.636,-0.225 0.083,-0.498 0.063,-0.316 c 0,0 0.125,-0.051 0.125,-0.094 0,-0.039 0.191,-0.189 0.191,-0.189 l 0.219,-0.275 0.156,-0.189 0.219,-0.156 0.254,0.189 0,0.125 -0.223,0.25 -0.066,0.25 -3.201,2.166 -1.623,1.504 0.281,0.189 0.189,0.311 c 0,0 0.117,0.223 0.152,0.223 0.031,0 0.094,0.219 0.094,0.219 l -0.189,0.25 -0.094,0 -0.656,0.125 -0.125,-0.281 -0.434,0.438 -0.191,0.723 0,0.598 0.754,0.406 0.594,-0.223 0.6,-1.063 0.529,-0.652 0.967,-0.156 0.219,-0.188 1.098,1.281 0.121,0.438 0.314,-0.156 -0.09,-0.375 0.188,0 -0.125,-0.254 -1.063,-1 0.094,-0.188 0.344,-0.031 0.75,0.75 0.375,0.441 0,0.688 0.191,0.125 0.375,0.375 0.275,-0.094 -0.15,-0.566 0.094,-0.344 0.188,-0.219 0.439,0.156 0.156,0.063 -0.031,-0.5 0.25,-0.469 0.156,-0.689 0.563,0.096 0.094,0.313 0.219,0.156 0.254,-0.219 -0.156,-0.346 0.656,0 -0.223,0.375 -0.808,0.967 -0.598,0.316 -0.125,0.188 -0.434,0.094 0.188,0.469 0.344,0.406 0.625,-0.219 0.156,0.277 -0.192,0.937 -0.188,0.465 -1.375,-0.25 -0.25,-0.316 -2.41,-0.277 0,-0.941 -0.564,0.031 -0.029,0.313 -4.613,2.76 -2.283,-1.975 0.031,-0.156 c 0.145,-0.988 0.633,-1.773 1.031,-2.527 0.434,-0.691 1.269,-1.454 2.5,-2.25 -2.281,0.273 -4.353,1.27 -6.189,2.969 l -4.121,-1.081 c 0.191,-0.09 0.066,-0.434 -0.125,-0.75 -0.191,-0.313 0.094,-0.625 0.094,-0.625 l 0.719,-0.434 0.625,0.121 0.066,0.754 c 0,0 0.59,0.563 0.781,0.465 0.188,-0.09 0.27,-0.406 0.27,-0.406 l -0.313,-0.813 0.191,-0.813 -0.844,0.121 0,-1.375 -0.254,0.254 -0.656,0.031 -0.09,-0.688 -0.434,-0.529 c 0,0 -0.432,0.25 -0.85,0.406 L 8.19,9.33 7.471,8.767 C 6.802,10.763 6.272,12.69 5.854,14.554 5.854,14.554 5,24 5,24.003 c 12,17 23,17 23,17 9,0 16.822,-24.266 16.822,-24.266 z m -18.283,-0.248 0.563,-0.064 0.25,0.469 -0.5,0.531 -0.563,0.063 0.5,0.225 0.531,0.465 0.523,0.125 0.191,-0.719 0.035,-0.439 0.621,0.094 c 0,0 -0.191,0.314 -0.094,0.314 0.098,0 0.469,-0.406 0.469,-0.406 L 12.398,5.141 c 0,0 -0.434,-0.344 -0.563,-0.25 z M 10.184,6.172 9.87,5.869 C 9.728,5.98 9.59,6.096 9.45,6.211 9.218,6.399 8.986,6.587 8.762,6.785 8.714,6.827 8.669,6.873 8.621,6.916 8.991,7.01 9.472,7.205 9.559,7.145 9.688,7.051 10.184,6.27 10.184,6.27 c 0.02,-0.026 0,-0.065 0,-0.098 z m 9.533,0.227 -0.121,0.406 c 0.449,0.348 0.621,0.344 0.621,0.344 L 20.742,7.024 21.092,6.68 20.867,6.399 Z m 2.775,1.783 -0.25,0.219 c -0.066,0.305 -0.148,0.621 -0.148,0.621 l 0.469,0.223 0.063,0.277 0.469,0.098 -0.098,-0.656 -0.344,-0.375 z m -0.773,1.184 -0.281,0.469 0.375,0.156 0.156,-0.281 z m 10.938,1.85 0.496,1.438 -0.504,0.254 c 0,0 -0.303,-0.406 -0.436,-0.469 -0.137,-0.066 -0.256,-0.281 -0.256,-0.281 l 0.125,-0.531 0.564,-0.406 z m -7.906,1.188 -0.375,0.719 0.281,0.281 0.25,-0.223 0.031,-0.311 z m 0.904,1.219 -0.188,0.064 0.309,0.531 0.281,-0.223 z m 7.223,1.744 0.277,0.531 0.344,0.535 0.598,0.344 0.406,-0.094 0.25,0.281 1.785,-0.035 c -0.007,0.157 0.379,0.401 0.531,0.535 l 1.492,2.652 0.188,0.689 0.277,0.654 0.219,0.277 0.314,-0.188 0.199,5.617 c -0.543,-1.594 -1.063,-2.508 -1.5,-2.844 0.613,4.918 -0.211,8.539 -2.5,10.906 0.441,-1.445 0.598,-2.629 0.5,-3.564 -2.691,3.891 -5.754,5.904 -9.189,6.03 -1.352,-0.016 -2.641,-0.216 -3.844,-0.594 -1.77,-0.57 -3.359,-1.551 -4.781,-2.939 2.219,0.176 4.245,-0.191 6.03,-1.063 l 1.889,-1.186 0.23,0.305 0.063,0.594 0.094,0.688 0.346,-0.344 0.875,-0.09 0.529,0 0.971,-1.5 0.063,-0.594 0.656,-0.656 0.031,-0.75 0.344,-0.754 0.814,-0.777 0,-0.875 -0.191,-0.813 -0.121,-1.125 0.594,-0.939 1.064,-1.313 0.41,-0.406 0.148,-0.531 0.254,-0.469 0.064,-0.691 -0.594,0 -0.281,0.281 -0.564,-0.156 -0.344,-0.563 -0.281,-0.564 -0.652,-0.5 -0.152,-0.813 -0.281,-0.475 -0.313,-0.594 -0.406,-0.719 -0.094,-0.469 0.438,-0.064 1.535,2.908 0.434,0.723 0.602,0.6 0.535,-0.5 0.594,-0.156 0.436,-0.531 0.6,-0.344 0.344,-0.594 0.031,-0.5 -0.281,-0.316 -0.375,-0.438 -0.25,0.154 -0.156,0.254 -0.406,-0.188 -0.125,-0.314 -0.281,-0.41 -0.434,-0.404 z m -13.24,5.928 0.07,0.201 0.754,0.906 0.434,0.375 0.441,0.094 0.09,-0.375 1.563,0 0.41,-0.188 0.5,0.063 0.152,0.313 1.264,5.781 -6.652,0.76 c -0.934,-0.617 -1.819,-1.461 -2.688,-2.5 -0.118,-0.152 -0.216,-0.345 -0.314,-0.5 0.043,-1.027 0.437,-1.564 1.281,-1.689 0.957,0.082 2.051,0.281 3.281,0.625 0.207,-1.141 -0.064,-2.334 -0.814,-3.563 l 0.031,-0.125 c 0.032,-0.028 0.115,-0.103 0.197,-0.178 z m 13.414,6.195 0,0.439 c -0.02,0.066 -0.406,0.375 -0.406,0.375 l -0.469,0.219 -0.346,0.281 0.256,0.344 0.154,0.156 -0.41,0.344 0,0.563 0.156,0.596 0.344,0.094 0.41,-0.625 0.25,-0.406 -0.063,-0.5 0.375,-0.594 0.125,-0.281 0,-0.563 -0.096,-0.439 z" style="fill:#000;opacity:0.1;fill-opacity:1"/>
  <path d="m 17.475,1.943 c -1.152,0.34 -2.267,0.767 -3.336,1.275 l 0.363,0.969 0.15,0.598 -0.621,0.346 -0.254,0.465 0.189,1.063 0.754,0.125 0.719,-0.688 0.625,-0.656 0.965,-0.25 1.227,-0.594 0.719,-0.875 1.031,-1.254 0.719,-0.189 -0.031,-0.271 -1.121,0 -2.098,-0.062 z m 8.582,0.443 c -0.055,0.02 -1.527,0.02 -1.527,0.02 l -0.379,0.102 0.5,0.598 0.531,-0.5 0.344,0.219 0.5,-0.25 c 0,0 0.09,-0.212 0.031,-0.188 z m 6,0.461 -0.375,0.004 -0.469,0.063 -0.406,0.25 -0.469,0.35 -0.277,0.5 0.434,0.438 L 30.87,4.483 31.026,4.229 30.651,3.915 30.87,3.727 30.901,3.575 31.37,3.262 c 0,0 0.609,0.008 0.656,0 0.051,-0.012 0.189,-0.191 0.189,-0.191 l -0.156,-0.223 -0.002,0 z m 2.725,0.814 0,0.01 -0.008,0.006 -0.498,0.299 -0.531,0.438 C 33.71,4.482 33.597,4.445 33.522,4.461 L 33.206,4.023 32.554,3.96 c 0,0 0.152,0.664 0.152,0.75 0,0.082 -0.438,0.021 -0.438,0.021 l -0.75,0.035 c 0,0 -1.086,0.25 -1.219,0.25 -0.739,0.177 -1.445,0.613 -2.055,0.941 L 27.931,5.732 27.775,5.482 27.839,5.228 28.527,5.263 28.843,5.138 28.222,4.824 27.347,4.511 26.468,4.355 25.527,4.546 24.558,5.321 24.12,5.76 23.468,6.479 23.218,6.51 23.12,6.854 23.245,7.198 c 0,0 0.133,0.156 0.156,0.156 0.02,0 0.25,-0.125 0.25,-0.125 0,0 0.027,-0.117 0.156,-0.156 0.133,-0.039 0.25,-0.063 0.25,-0.063 l 0.188,0.375 0.227,0.313 0.09,0.25 c 0,0 0.363,-0.223 0.379,-0.25 0.008,-0.031 0.031,-0.406 0.031,-0.406 l 0.27,-0.189 c 0,0 0.074,-0.133 0.066,-0.156 C 25.296,6.927 25.12,6.728 25.12,6.728 L 24.964,6.665 25.027,6.349 c 0,0 0.125,-0.051 0.125,-0.094 0,-0.039 0.191,-0.189 0.191,-0.189 l 0.219,-0.273 0.156,-0.189 0.219,-0.156 0.254,0.189 0,0.125 -0.223,0.25 -0.066,0.25 0,0.344 0.191,0.156 0.344,-0.031 0.314,-0.063 0.279,0.152 -0.064,0.223 c 0,0 -0.195,0.188 -0.25,0.219 -0.059,0.031 -0.41,-0.063 -0.5,-0.031 -0.09,0.031 -0.314,0.316 -0.314,0.316 0,0 -0.023,0.248 0,0.313 0.012,0.023 -0.004,0.071 -0.012,0.129 l -0.025,0.02 -0.379,0.277 -0.021,0 -0.25,-0.094 c 0,0 -0.162,0.008 -0.229,0.066 -0.063,0.051 -0.119,0.102 -0.313,0.121 -0.191,0.02 -0.563,0 -0.598,0 l -0.219,0 L 23.887,8.15 24.043,7.9 23.766,7.677 c 0,0 -0.184,0.23 -0.191,0.281 -0.004,0.055 0.125,0.277 0.125,0.277 0,0 -0.059,0.184 -0.09,0.223 -0.035,0.039 -0.313,0.125 -0.313,0.125 L 22.858,8.36 c 0,0 -0.18,-0.038 -0.156,0.064 0.027,0.102 0.225,0.195 0.225,0.281 0,0.082 -0.125,0.273 -0.125,0.273 l -0.156,0.189 -0.25,0.254 -0.344,0.09 c 0,0 -0.251,0.07 -0.314,0.094 -0.066,0.023 -0.254,0.066 -0.254,0.066 l -0.25,0.029 -0.156,0.225 0.281,0.189 0.189,0.311 c 0,0 0.119,0.223 0.154,0.223 0.031,0 0.092,0.221 0.092,0.221 l -0.189,0.25 -0.094,0 -0.656,0.125 -0.125,-0.281 -0.434,0.438 -0.191,0.723 0,0.598 0.754,0.406 0.594,-0.223 0.604,-1.063 0.525,-0.652 0.971,-0.156 0.219,-0.188 1.098,1.281 0.121,0.438 0.313,-0.156 -0.09,-0.375 0.188,0 -0.125,-0.254 -1.063,-1 0.094,-0.188 0.344,-0.031 0.75,0.75 0.375,0.441 0,0.688 0.191,0.125 0.375,0.375 0.277,-0.094 -0.152,-0.566 0.094,-0.344 0.188,-0.219 0.439,0.156 0.156,0.063 -0.031,-0.5 0.25,-0.469 0.156,-0.689 0.563,0.098 0.096,0.313 0.221,0.156 0.254,-0.219 -0.156,-0.348 0.656,0 -0.225,0.375 0.438,0.375 0.375,0.189 0.219,0.438 -0.5,0.121 -0.719,-0.154 -0.621,0 -0.598,0.314 -0.125,0.189 -0.436,0.094 0.189,0.469 0.344,0.406 0.625,-0.219 0.156,0.273 0.273,-0.219 0.375,0.064 0.035,0.408 -0.125,0.777 -0.344,-0.031 -0.41,-0.063 -0.188,0.465 -1.375,-0.25 -0.25,-0.316 -0.316,0.281 -0.344,0.469 -0.875,-0.5 -0.875,-0.525 0,-0.941 -0.564,0.031 -0.025,0.313 -1.375,-0.063 -0.439,0.4 -0.844,0.031 -0.566,0.5 -0.344,0.969 -0.875,0.691 -0.625,0.844 -0.031,1.625 -0.188,0.5 -0.043,0.396 c 0.326,0.313 0.609,0.652 0.771,1.033 -0.043,0.037 -0.158,0.14 -0.27,0.242 l 0.068,0.201 0.758,0.906 0.434,0.375 0.441,0.094 0.09,-0.375 1.563,0 0.41,-0.188 0.5,0.063 0.152,0.314 0.523,0.031 0.352,0.25 0,0.529 -0.121,0.439 -0.125,0.344 0.313,0.566 0.406,0.469 0.189,1.188 0.025,0.777 -0.271,0.656 -0.027,0.527 1.047,3.452 0.23,0.305 0.063,0.594 0.096,0.688 0.346,-0.344 0.875,-0.09 0.529,0 0.971,-1.5 0.063,-0.594 0.656,-0.656 0.031,-0.75 0.344,-0.754 0.814,-0.777 0,-0.875 -0.191,-0.813 -0.121,-1.125 0.594,-0.939 1.064,-1.313 0.41,-0.406 0.148,-0.531 0.256,-0.469 0.063,-0.691 -0.594,0 -0.281,0.281 -0.563,-0.156 -0.346,-0.563 -0.279,-0.564 -0.654,-0.5 -0.152,-0.813 -0.281,-0.477 -0.313,-0.594 -0.406,-0.719 -0.094,-0.471 0.438,-0.063 0.25,0.531 0.5,0.938 0.375,0.689 0.41,0.75 0.436,0.723 0.602,0.602 0.535,-0.5 0.594,-0.156 0.436,-0.531 0.6,-0.344 0.344,-0.594 0.031,-0.5 -0.281,-0.316 -0.375,-0.438 -0.25,0.152 -0.156,0.254 -0.404,-0.188 -0.125,-0.314 -0.281,-0.41 -0.434,-0.404 0,-0.814 0.275,0.531 0.344,0.535 0.6,0.344 0.406,-0.094 0.25,0.281 1.783,-0.035 -0.033,0.035 0.564,0.5 0.406,0.563 0.125,0.277 0.275,0 0.096,-0.313 0.094,0.467 0.156,0.846 0.34,0.813 0.189,0.689 0.275,0.654 0.221,0.277 0.313,-0.188 0.094,-0.314 0.125,-0.775 -0.035,-0.688 0.098,-0.119 0.805,-0.922 c 0.137,-0.148 0.287,-0.299 0.287,-0.299 l 0.281,-0.354 0.063,-0.037 2.912,-2.32 C 43.377,13.847 43.427,12.28 42.827,10.757 40.749,7.805 37.996,5.36 34.787,3.653 Z m -23.06,0.902 c -0.598,0.378 -1.16,0.758 -1.719,1.188 l 0.094,0.031 0.531,0.469 0.531,0.125 0.188,-0.719 0.031,-0.438 0.625,0.094 c 0,0 -0.188,0.313 -0.094,0.313 0.094,0 0.469,-0.406 0.469,-0.406 L 11.722,4.564 Z m 6.994,0.826 -0.121,0.406 c 0.449,0.348 0.621,0.344 0.621,0.344 L 19.737,6.014 20.091,5.67 19.862,5.389 Z M 9.849,6.16 c 0,0 -0.436,0.248 -0.854,0.404 C 8.993,6.566 8.991,6.566 8.989,6.568 8.898,6.647 8.809,6.724 8.719,6.804 8.666,6.924 8.69,7.034 8.69,7.034 L 8.655,7.878 7.967,8.441 7.529,9.097 c 0,0 -0.281,-0.188 -0.281,-0.313 0,-0.125 -0.063,-0.471 -0.063,-0.471 L 7.177,8.307 6.972,8.549 c -0.071,2.241 0.088,3.02 0.951,3.316 l 0.146,-0.076 0.625,-0.691 c 0,0 0.934,-0.148 1.121,-0.254 C 10.006,10.754 9.881,10.41 9.69,10.094 9.499,9.781 9.784,9.469 9.784,9.469 l 0.719,-0.436 0.625,0.121 0.066,0.754 c 0,0 0.59,0.565 0.781,0.467 0.188,-0.09 0.27,-0.406 0.27,-0.406 l -0.313,-0.814 0.189,-0.813 -0.844,0.121 0,-1.375 -0.254,0.254 -0.656,0.031 -0.09,-0.688 -0.432,-0.527 z m 11.643,1.012 -0.25,0.219 c -0.066,0.305 -0.15,0.621 -0.15,0.621 l 0.469,0.223 0.063,0.277 -0.25,0.254 -0.219,0.375 0.152,0.156 L 21.87,9.201 22.37,8.98 22.097,8.605 21.995,7.951 21.651,7.576 21.493,7.172 Z M 20.717,8.356 20.436,8.825 20.811,8.981 20.967,8.7 Z m 10.938,1.848 c 0.137,-0.043 0.375,0.154 0.375,0.154 l -0.25,0.221 0.09,0.313 0.281,0.75 0.281,0.469 0.375,0.596 -0.406,0.189 -0.531,-0.344 -0.223,-0.656 c 0,0 -0.303,-0.406 -0.436,-0.469 -0.137,-0.066 -0.254,-0.281 -0.254,-0.281 l 0.125,-0.531 c 0,0 0.431,-0.355 0.564,-0.402 l 0.008,-0.006 0,-0.002 z m -7.906,1.188 -0.375,0.719 0.281,0.281 0.25,-0.223 0.031,-0.309 -0.188,-0.469 z m -1.252,0.752 0,0.188 0.156,-0.029 -0.156,-0.158 z m 2.156,0.467 -0.188,0.064 0.309,0.531 0.281,-0.221 -0.402,-0.375 z m 14.408,7.838 -0.316,0.406 0.156,0.6 0.316,-0.346 C 39.201,20.934 39.181,20.755 39.16,20.576 l -0.1,-0.127 z m -7.01,6.03 0,0.439 c -0.02,0.066 -0.406,0.375 -0.406,0.375 l -0.469,0.219 -0.346,0.281 0.254,0.344 0.156,0.156 -0.41,0.344 0,0.563 0.156,0.596 0.344,0.094 0.41,-0.625 0.25,-0.406 -0.063,-0.5 0.375,-0.594 0.125,-0.281 0,-0.563 -0.098,-0.439 -0.279,-0.002 z" style="fill:#18407a;fill-opacity:1"/>
  <path d="m 30.06 7.813 0.004 0.002 0.008 0.006 c 1.137 0.219 2.094 0.471 2.875 0.814 1.203 0.516 1.977 1.215 2.344 2 -1.117 -0.199 -2.109 -0.149 -3 0.188 4.488 1.712 7.313 3.659 8.475 5.826 l 2.42 -1.93 c 0.058 -0.279 0.091 -0.652 0.104 -1.057 -1.303 -2.266 -3.544 -4.076 -6.51 -4.943 -1.883 -0.545 -4.134 -0.831 -6.719 -0.906 m -22.09 1.75 c -0.325 0.358 -0.624 0.739 -0.926 1.117 0.12 0.683 0.378 1.028 0.877 1.201 l 0.146 -0.078 0.234 -0.26 c -0.109 -0.511 -0.201 -1.116 -0.332 -1.98 m 10.666 10.729 0.07 0.201 0.756 0.906 0.027 0.023 c 0.045 -0.04 0.098 -0.087 0.168 -0.15 0.88 -0.643 1.953 -1.437 2.857 -1.992 l -0.002 -0.002 c 0.242 -0.16 0.534 -0.294 0.65 -0.852 0.023 -0.039 0.055 -0.063 0.109 -0.07 0.207 -0.41 -0.18 -0.785 -0.254 -0.746 -0.726 0.012 -2.217 -0.135 -2.217 -0.135 0 0 -2.228 0.332 -2.166 2.816 z m 6.727 10.619 0.23 0.305 0.063 0.594 0.07 0.502 1.686 -1.059 c 0.215 -0.156 0.517 -0.136 0.732 -0.185 l 0.328 -0.506 0.063 -0.594 0.287 -0.287 c -0.383 -0.327 -0.892 -0.658 -1.666 -0.926" style="fill:#000;opacity:0.1;fill-opacity:1"/>
 </g>
 <path d="m 29.07 6.814 0.008 0.006 c 1.137 0.219 2.094 0.471 2.875 0.814 1.203 0.516 1.977 1.215 2.344 2 -1.117 -0.199 -2.109 -0.149 -3 0.188 6.383 2.434 9.416 5.343 9.06 8.688 -0.465 -0.699 -1.093 -1.175 -1.875 -1.406 0.977 3.668 1.06 6.676 0.279 9.06 -0.543 -1.594 -1.063 -2.508 -1.5 -2.844 0.613 4.918 -0.211 8.539 -2.5 10.906 0.441 -1.445 0.598 -2.629 0.5 -3.564 -2.691 3.891 -5.753 5.905 -9.188 6.03 -1.352 -0.016 -2.641 -0.216 -3.844 -0.594 -1.77 -0.57 -3.359 -1.551 -4.781 -2.939 2.219 0.176 4.244 -0.191 6.03 -1.063 1.03 -0.65 2.106 -1.304 3.131 -1.926 0.136 -0.796 0.087 -1.613 -0.451 -2.409 -1.316 -0.516 -2.615 -0.363 -4.086 0.553 -1.469 0.915 -2.985 0.785 -4.406 -0.094 -0.934 -0.617 -1.819 -1.461 -2.688 -2.5 -0.118 -0.152 -0.215 -0.345 -0.313 -0.5 0.043 -1.027 0.437 -1.564 1.281 -1.689 0.957 0.082 2.051 0.281 3.281 0.625 0.207 -1.141 -0.064 -2.334 -0.814 -3.563 l 0.031 -0.125 c 0.075 -0.067 0.395 -0.358 0.469 -0.422 l -1.998 -5.704 c 0 0 -0.194 -0.237 -0.345 -0.439 l 0.031 -0.156 c 0.145 -0.988 0.633 -1.775 1.031 -2.529 0.434 -0.691 1.269 -1.454 2.5 -2.25 -2.281 0.273 -4.352 1.27 -6.188 2.969 c -1.52 -0.535 -3.332 -0.422 -5.406 0.344 -1.223 -0.556 -1.204 -1.355 -1.563 -3.719 -3.703 4.082 -5.971 9.491 -5.971 15.438 0 12.703 10.297 23 23 23 12.703 0 23 -10.297 23 -23 c 0 -4.93 -1.547 -9.506 -4.188 -13.25 0.321 1.531 0.362 3.11 0.375 3.969 -0.949 -3.211 -3.586 -5.883 -7.406 -7 c -1.883 -0.545 -4.134 -0.831 -6.719 -0.906" style="fill:url(#linearGradient4225);fill-opacity:1;stroke:none;fill-rule:nonzero"/>
 <g>
  <g>
   <g transform="translate(1,1)">
    <g style="opacity:0.1">
     <!-- color: #5fad38 -->
    </g>
   </g>
  </g>
 </g>
 <g>
  <g>
   <!-- color: #5fad38 -->
  </g>
 </g>
 <g>
  <path d="m 40.03 7.531 c 3.712 4.084 5.969 9.514 5.969 15.469 0 12.703 -10.297 23 -23 23 c -5.954 0 -11.384 -2.256 -15.469 -5.969 4.178 4.291 10.01 6.969 16.469 6.969 c 12.703 0 23 -10.298 23 -23 0 -6.462 -2.677 -12.291 -6.969 -16.469 z" style="opacity:0.1"/>
 </g>
 <path d="m 26.614 30.17 c 0.328 -0.184 0.746 -0.082 1.059 0 0.309 -0.027 0.91 -0.195 0.672 -0.973 -0.398 -0.469 -1 -1.027 -2.188 -1.438 m 0.457 2.41" style="fill:#fbf4ce;fill-opacity:1;stroke:none;fill-rule:nonzero"/>
 <path d="m 19.789 16.472 1.723 1.805 c 0.242 -0.16 0.535 -0.293 0.652 -0.852 0.023 -0.039 0.055 -0.063 0.109 -0.07 0.207 -0.41 -0.18 -0.785 -0.254 -0.746 -0.73 0.012 -1.258 -0.023 -2.23 -0.137" style="fill:#2d2d2d;fill-opacity:1;stroke:none;fill-rule:nonzero"/>
 <path d="M 18.676,20.304 C 18.461,19.8 18.114,19.175 17.637,18.796 l 2.969,-1.477 0.91,0.961 c -1.047,0.637 -1.988,1.261 -2.844,2.01" style="fill:#fbf4ce;fill-opacity:1;stroke:none;fill-rule:nonzero"/>
 <path d="m 16.899,14.327 c -0.531,1.66 -0.062,3.094 0.731,4.469 l 2.977,-1.477 C 20.212,16.893 19.802,16.475 19.802,16.475 19.497,16.393 19.107,16.143 18.63,15.702 l -1.328,-1.01" style="fill:#0061c8;fill-opacity:1;stroke:none;fill-rule:nonzero"/>
</svg>
