<svg xmlns="http://www.w3.org/2000/svg" viewBox="0 0 48 48">
 <defs>
  <linearGradient id="linearGradient3764" x1="1" x2="47" gradientUnits="userSpaceOnUse" gradientTransform="matrix(0,-1,1,0,-1.5e-6,47.999998)">
   <stop style="stop-color:#814949;stop-opacity:1"/>
   <stop offset="1" style="stop-color:#8e5050;stop-opacity:1"/>
  </linearGradient>
  <linearGradient id="linear0" gradientUnits="userSpaceOnUse" y1="844.09" x2="0" y2="-176.38" gradientTransform="matrix(0.0355394,0,0,0.0313583,10.315665,8.53083)">
   <stop style="stop-color:#ff6900;stop-opacity:1"/>
   <stop offset="1" style="stop-color:#ffec00;stop-opacity:1"/>
  </linearGradient>
 </defs>
 <g>
  <path d="m 36.31 5 c 5.859 4.062 9.688 10.831 9.688 18.5 c 0 12.426 -10.07 22.5 -22.5 22.5 c -7.669 0 -14.438 -3.828 -18.5 -9.688 c 1.037 1.822 2.306 3.499 3.781 4.969 c 4.085 3.712 9.514 5.969 15.469 5.969 c 12.703 0 23 -10.298 23 -23 c 0 -5.954 -2.256 -11.384 -5.969 -15.469 c -1.469 -1.475 -3.147 -2.744 -4.969 -3.781 z m 4.969 3.781 c 3.854 4.113 6.219 9.637 6.219 15.719 c 0 12.703 -10.297 23 -23 23 c -6.081 0 -11.606 -2.364 -15.719 -6.219 c 4.16 4.144 9.883 6.719 16.219 6.719 c 12.703 0 23 -10.298 23 -23 c 0 -6.335 -2.575 -12.06 -6.719 -16.219 z" style="opacity:0.05"/>
  <path d="m 41.28 8.781 c 3.712 4.085 5.969 9.514 5.969 15.469 c 0 12.703 -10.297 23 -23 23 c -5.954 0 -11.384 -2.256 -15.469 -5.969 c 4.113 3.854 9.637 6.219 15.719 6.219 c 12.703 0 23 -10.298 23 -23 c 0 -6.081 -2.364 -11.606 -6.219 -15.719 z" style="opacity:0.1"/>
  <path d="m 31.25 2.375 c 8.615 3.154 14.75 11.417 14.75 21.13 c 0 12.426 -10.07 22.5 -22.5 22.5 c -9.708 0 -17.971 -6.135 -21.12 -14.75 a 23 23 0 0 0 44.875 -7 a 23 23 0 0 0 -16 -21.875 z" style="opacity:0.2"/>
 </g>
 <g>
  <path d="m 24 1 c 12.703 0 23 10.297 23 23 c 0 12.703 -10.297 23 -23 23 -12.703 0 -23 -10.297 -23 -23 0 -12.703 10.297 -23 23 -23 z" style="fill:url(#linearGradient3764);fill-opacity:1"/>
 </g>
 <g>
  <g>
   <g transform="translate(1,1)">
    <g style="opacity:0.1">
     <!-- color: #8e5050 -->
     <g>
      <path d="m 20 9 c -0.574 0.77 -1.039 3.41 0.621 4.715 c 1.961 1.563 2.379 3.441 2.379 6.285 c 0 4 -3.379 7.203 -1 11 c -6.641 -5.469 0.051 -13.676 -5 -17 c 2 5 -5 8 -4.984 12.852 c -0.016 5.148 3.984 8.148 8.785 8.137 c -3.422 -1.391 -4.977 -5.59 -4.801 -7.988 c 2.406 5.453 6 8 12 8 c -2.313 -3.02 -2.691 -3.402 -2.824 -5.324 c 0.012 -1.773 0.727 -2.168 1.977 -4.387 c 3.145 -4.934 1.707 -9.914 -2.574 -12.238 c -0.871 -0.434 -1.105 -0.555 -2.691 -1.176 c -0.914 -0.426 -1.824 -1.352 -1.887 -2.875 m 10.727 8.355 c 3.172 4.059 -0.441 7.355 -2.098 9.84 c -1.359 1.953 -0.051 5.184 1.371 7.805 c 0.125 -2.215 1.602 -3.738 2.797 -4.531 c 3.66 -2.754 3.777 -6.355 1.836 -9.559 c -1.219 -1.758 -2.297 -2.328 -3.906 -3.555 m 0 0" style="fill:#000;stroke:none;fill-rule:nonzero"/>
     </g>
    </g>
   </g>
  </g>
 </g>
 <g>
  <g>
   <!-- color: #8e5050 -->
   <g>
    <path d="m 20 9 c -0.574 0.77 -1.039 3.41 0.621 4.715 c 1.961 1.563 2.379 3.441 2.379 6.285 c 0 4 -3.379 7.203 -1 11 c -6.641 -5.469 0.051 -13.676 -5 -17 c 2 5 -5 8 -4.984 12.852 c -0.016 5.148 3.984 8.148 8.785 8.137 c -3.422 -1.391 -4.977 -5.59 -4.801 -7.988 c 2.406 5.453 6 8 12 8 c -2.313 -3.02 -2.691 -3.402 -2.824 -5.324 c 0.012 -1.773 0.727 -2.168 1.977 -4.387 c 3.145 -4.934 1.707 -9.914 -2.574 -12.238 c -0.871 -0.434 -1.105 -0.555 -2.691 -1.176 c -0.914 -0.426 -1.824 -1.352 -1.887 -2.875 m 10.727 8.355 c 3.172 4.059 -0.441 7.355 -2.098 9.84 c -1.359 1.953 -0.051 5.184 1.371 7.805 c 0.125 -2.215 1.602 -3.738 2.797 -4.531 c 3.66 -2.754 3.777 -6.355 1.836 -9.559 c -1.219 -1.758 -2.297 -2.328 -3.906 -3.555 m 0 0" style="fill:url(#linear0);stroke:none;fill-rule:nonzero"/>
   </g>
  </g>
 </g>
 <g>
  <path d="m 40.03 7.531 c 3.712 4.084 5.969 9.514 5.969 15.469 0 12.703 -10.297 23 -23 23 c -5.954 0 -11.384 -2.256 -15.469 -5.969 4.178 4.291 10.01 6.969 16.469 6.969 c 12.703 0 23 -10.298 23 -23 0 -6.462 -2.677 -12.291 -6.969 -16.469 z" style="opacity:0.1"/>
 </g>
</svg>
