<svg version="1.1" viewBox="0 0 48 48" xmlns="http://www.w3.org/2000/svg">
 <defs>
  <linearGradient id="bg" x2="0" y1="1" y2="47" gradientUnits="userSpaceOnUse">
   <stop style="stop-color:#575757" offset="0"/>
   <stop style="stop-color:#4d4d4d" offset="1"/>
  </linearGradient>
 </defs>
 <path d="m36.3 5c5.86 4.06 9.69 10.8 9.69 18.5 0 12.4-10.1 22.5-22.5 22.5-7.67 0-14.4-3.83-18.5-9.69 1.04 1.82 2.31 3.5 3.78 4.97 4.08 3.71 9.51 5.97 15.5 5.97 12.7 0 23-10.3 23-23 0-5.95-2.26-11.4-5.97-15.5-1.47-1.48-3.15-2.74-4.97-3.78zm4.97 3.78c3.85 4.11 6.22 9.64 6.22 15.7 0 12.7-10.3 23-23 23-6.08 0-11.6-2.36-15.7-6.22 4.16 4.14 9.88 6.72 16.2 6.72 12.7 0 23-10.3 23-23 0-6.34-2.58-12.1-6.72-16.2z" style="opacity:.05"/>
 <path d="m41.3 8.78c3.71 4.08 5.97 9.51 5.97 15.5 0 12.7-10.3 23-23 23-5.95 0-11.4-2.26-15.5-5.97 4.11 3.85 9.64 6.22 15.7 6.22 12.7 0 23-10.3 23-23 0-6.08-2.36-11.6-6.22-15.7z" style="opacity:.1"/>
 <path d="m31.2 2.38c8.62 3.15 14.8 11.4 14.8 21.1 0 12.4-10.1 22.5-22.5 22.5-9.71 0-18-6.14-21.1-14.8a23 23 0 0 0 44.9-7 23 23 0 0 0-16-21.9z" style="opacity:.2"/>
 <circle cx="24" cy="24" r="23" style="fill:url(#bg)"/>
 <path d="m40 7.53c3.71 4.08 5.97 9.51 5.97 15.5 0 12.7-10.3 23-23 23-5.95 0-11.4-2.26-15.5-5.97 4.18 4.29 10 6.97 16.5 6.97 12.7 0 23-10.3 23-23 0-6.46-2.68-12.3-6.97-16.5z" style="opacity:.1"/>
 <path d="m25.8 12.2-12.8 5.8 0.0449 12.5c-8.7e-5 0.538 0.288 1.04 0.756 1.3l10.5 6c0.461 0.263 1.03 0.263 1.49 0l7.64-4.37 2.57 2.57 2-2-2.02-2.02 0.311-0.178c0.467-0.267 0.711-0.765 0.711-1.3v-3.5l1-1-1-1v-5.5c8.7e-5 -0.538-0.243-1.04-0.711-1.3zm-0.789 3.05 9 5.08-9 14.7-9-5v-9.65l9 4.65z" style="opacity:.1"/>
 <path d="m23.7 11c-0.171 0.03-0.336 0.0895-0.486 0.176l-10.5 6c-0.467 0.267-0.714 0.764-0.714 1.3v11c-8.7e-5 0.538 0.246 1.04 0.714 1.3l10.5 6c0.461 0.263 1.03 0.263 1.49 0l10.5-6c0.467-0.267 0.796-0.764 0.796-1.3v-11c8.7e-5 -0.538-0.328-1.04-0.796-1.3l-10.5-6c-0.303-0.173-0.658-0.236-1-0.176zm0.258 3.23 8.92 5.08-8.88 4.67v9.77l-9-5.14v-9.28l9 4.65z" style="fill:#f58a8a"/>
 <path d="m36 24-10 10 1.29 1.29 3.29-1.88 5.41-5.41z" style="opacity:.1"/>
 <path d="m27 23-2 2 4 4-4 4 2 2 4-4 4 4 2-2-4-4 4-4-2-2-4 4-4-4z" style="fill:#f9f9f9"/>
</svg>
