<svg xmlns="http://www.w3.org/2000/svg" viewBox="0 0 48 48">
 <defs>
  <linearGradient id="linearGradient3764" x1="1" x2="47" gradientUnits="userSpaceOnUse" gradientTransform="matrix(0,-1,1,0,-1.5e-6,47.999998)">
   <stop style="stop-color:#4d85c1;stop-opacity:1"/>
   <stop offset="1" style="stop-color:#5f91c7;stop-opacity:1"/>
  </linearGradient>
 </defs>
 <g>
  <path d="m 36.31 5 c 5.859 4.062 9.688 10.831 9.688 18.5 c 0 12.426 -10.07 22.5 -22.5 22.5 c -7.669 0 -14.438 -3.828 -18.5 -9.688 c 1.037 1.822 2.306 3.499 3.781 4.969 c 4.085 3.712 9.514 5.969 15.469 5.969 c 12.703 0 23 -10.298 23 -23 c 0 -5.954 -2.256 -11.384 -5.969 -15.469 c -1.469 -1.475 -3.147 -2.744 -4.969 -3.781 z m 4.969 3.781 c 3.854 4.113 6.219 9.637 6.219 15.719 c 0 12.703 -10.297 23 -23 23 c -6.081 0 -11.606 -2.364 -15.719 -6.219 c 4.16 4.144 9.883 6.719 16.219 6.719 c 12.703 0 23 -10.298 23 -23 c 0 -6.335 -2.575 -12.06 -6.719 -16.219 z" style="opacity:0.05"/>
  <path d="m 41.28 8.781 c 3.712 4.085 5.969 9.514 5.969 15.469 c 0 12.703 -10.297 23 -23 23 c -5.954 0 -11.384 -2.256 -15.469 -5.969 c 4.113 3.854 9.637 6.219 15.719 6.219 c 12.703 0 23 -10.298 23 -23 c 0 -6.081 -2.364 -11.606 -6.219 -15.719 z" style="opacity:0.1"/>
  <path d="m 31.25 2.375 c 8.615 3.154 14.75 11.417 14.75 21.13 c 0 12.426 -10.07 22.5 -22.5 22.5 c -9.708 0 -17.971 -6.135 -21.12 -14.75 a 23 23 0 0 0 44.875 -7 a 23 23 0 0 0 -16 -21.875 z" style="opacity:0.2"/>
 </g>
 <g>
  <path d="m 24 1 c 12.703 0 23 10.297 23 23 c 0 12.703 -10.297 23 -23 23 -12.703 0 -23 -10.297 -23 -23 0 -12.703 10.297 -23 23 -23 z" style="fill:url(#linearGradient3764);fill-opacity:1"/>
 </g>
 <g>
  <path d="m 40.03 7.531 c 3.712 4.084 5.969 9.514 5.969 15.469 0 12.703 -10.297 23 -23 23 c -5.954 0 -11.384 -2.256 -15.469 -5.969 4.178 4.291 10.01 6.969 16.469 6.969 c 12.703 0 23 -10.298 23 -23 0 -6.462 -2.677 -12.291 -6.969 -16.469 z" style="opacity:0.1"/>
 </g>
 <g transform="matrix(3.543307,0,0,3.543307,0.00118217,-1.1894137e-7)">
  <g transform="matrix(0.28222223,0,0,0.28222223,0.28222222,0.2822222)" style="opacity:0.1">
   <path d="m 16 13 c 0 8 0 16 0 24 l 4 0 0 -12 14 0 0 -4 -14 0 0 -4 14 0 0 -4 -14 0 z" transform="translate(-0.99999996,-0.99999989)" style="fill:#000;fill-opacity:1;stroke:none"/>
  </g>
  <rect width="1.129" height="6.773" x="4.233" y="3.387" style="fill:#353535;fill-opacity:1;stroke:none"/>
  <rect y="-9.313" x="3.387" height="5.08" width="1.129" transform="matrix(0,1,-1,0,0,0)" style="fill:#353535;fill-opacity:1;stroke:none"/>
  <rect transform="matrix(0,1,-1,0,0,0)" width="1.129" height="5.08" x="5.644" y="-9.313" style="fill:#353535;fill-opacity:1;stroke:none"/>
  <rect width="0.564" height="0.564" x="4.233" y="3.387" style="fill:#fff754;fill-opacity:1;stroke:none"/>
  <rect y="4.516" x="4.233" height="0.564" width="0.564" style="fill:#fff754;fill-opacity:1;stroke:none"/>
  <rect width="0.564" height="0.564" x="5.362" y="3.387" style="fill:#fff754;fill-opacity:1;stroke:none"/>
  <rect y="3.387" x="6.491" height="0.564" width="0.564" style="fill:#fff754;fill-opacity:1;stroke:none"/>
  <rect width="0.564" height="0.564" x="7.62" y="3.387" style="fill:#fff754;fill-opacity:1;stroke:none"/>
  <rect y="3.387" x="8.749" height="0.564" width="0.564" style="fill:#fff754;fill-opacity:1;stroke:none"/>
  <rect width="0.564" height="0.564" x="8.184" y="3.951" style="fill:#fff754;fill-opacity:1;stroke:none"/>
  <rect y="3.951" x="7.06" height="0.564" width="0.564" style="fill:#fff754;fill-opacity:1;stroke:none"/>
  <rect width="0.564" height="0.564" x="5.927" y="3.951" style="fill:#fff754;fill-opacity:1;stroke:none"/>
  <rect y="3.951" x="4.798" height="0.564" width="0.564" style="fill:#fff754;fill-opacity:1;stroke:none"/>
  <rect width="0.564" height="0.564" x="4.798" y="5.08" style="fill:#fff754;fill-opacity:1;stroke:none"/>
  <rect y="5.644" x="4.233" height="0.564" width="0.564" style="fill:#fff754;fill-opacity:1;stroke:none"/>
  <rect width="0.564" height="0.564" x="4.798" y="6.209" style="fill:#fff754;fill-opacity:1;stroke:none"/>
  <rect y="5.644" x="5.362" height="0.564" width="0.564" style="fill:#fff754;fill-opacity:1;stroke:none"/>
  <rect width="0.564" height="0.564" x="6.491" y="5.644" style="fill:#fff754;fill-opacity:1;stroke:none"/>
  <rect y="5.644" x="7.62" height="0.564" width="0.564" style="fill:#fff754;fill-opacity:1;stroke:none"/>
  <rect width="0.564" height="0.564" x="8.749" y="5.644" style="fill:#fff754;fill-opacity:1;stroke:none"/>
  <rect y="6.209" x="8.184" height="0.564" width="0.564" style="fill:#fff754;fill-opacity:1;stroke:none"/>
  <rect width="0.564" height="0.564" x="7.06" y="6.209" style="fill:#fff754;fill-opacity:1;stroke:none"/>
  <rect y="6.209" x="5.927" height="0.564" width="0.564" style="fill:#fff754;fill-opacity:1;stroke:none"/>
  <rect width="0.564" height="0.564" x="4.233" y="6.773" style="fill:#fff754;fill-opacity:1;stroke:none"/>
  <rect y="7.902" x="4.233" height="0.564" width="0.564" style="fill:#fff754;fill-opacity:1;stroke:none"/>
  <rect width="0.564" height="0.564" x="4.798" y="7.338" style="fill:#fff754;fill-opacity:1;stroke:none"/>
  <rect y="8.467" x="4.798" height="0.564" width="0.564" style="fill:#fff754;fill-opacity:1;stroke:none"/>
  <rect width="0.564" height="0.564" x="4.233" y="9.03" style="fill:#fff754;fill-opacity:1;stroke:none"/>
  <rect y="9.596" x="4.798" height="0.564" width="0.564" style="fill:#fff754;fill-opacity:1;stroke:none"/>
 </g>
</svg>
