<svg version="1.1" viewBox="0 0 48 48" xmlns="http://www.w3.org/2000/svg">
 <defs>
  <linearGradient id="bg" x2="0" y1="1" y2="47" gradientUnits="userSpaceOnUse">
   <stop style="stop-color:#403a3a" offset="0"/>
   <stop style="stop-color:#333" offset="1"/>
  </linearGradient>
 </defs>
 <path d="m36.31 5c5.859 4.062 9.688 10.831 9.688 18.5 0 12.426-10.07 22.5-22.5 22.5-7.669 0-14.438-3.828-18.5-9.688 1.037 1.822 2.306 3.499 3.781 4.969 4.085 3.712 9.514 5.969 15.469 5.969 12.703 0 23-10.298 23-23 0-5.954-2.256-11.384-5.969-15.469-1.469-1.475-3.147-2.744-4.969-3.781zm4.969 3.781c3.854 4.113 6.219 9.637 6.219 15.719 0 12.703-10.297 23-23 23-6.081 0-11.606-2.364-15.719-6.219 4.16 4.144 9.883 6.719 16.219 6.719 12.703 0 23-10.298 23-23 0-6.335-2.575-12.06-6.719-16.219z" style="opacity:.05"/>
 <path d="m41.28 8.781c3.712 4.085 5.969 9.514 5.969 15.469 0 12.703-10.297 23-23 23-5.954 0-11.384-2.256-15.469-5.969 4.113 3.854 9.637 6.219 15.719 6.219 12.703 0 23-10.298 23-23 0-6.081-2.364-11.606-6.219-15.719z" style="opacity:.1"/>
 <path d="m31.25 2.375c8.615 3.154 14.75 11.417 14.75 21.13 0 12.426-10.07 22.5-22.5 22.5-9.708 0-17.971-6.135-21.12-14.75a23 23 0 0 0 44.875-7 23 23 0 0 0-16-21.875z" style="opacity:.2"/>
 <circle cx="24" cy="24" r="23" style="fill:url(#bg)"/>
 <path d="m40.03 7.531c3.712 4.084 5.969 9.514 5.969 15.469 0 12.703-10.297 23-23 23-5.954 0-11.384-2.256-15.469-5.969 4.178 4.291 10.01 6.969 16.469 6.969 12.703 0 23-10.298 23-23 0-6.462-2.677-12.291-6.969-16.469z" style="opacity:.1"/>
 <path d="m26 11-6 8c-3 4-4 5.6141-4 9 0 6 4 9 9 9 4 0 7-3.0004 7-8 0-8-5-8.21-5-15v-2.5c0-0.277-0.223-0.5-0.5-0.5zm-1 5v1c0 1.9577 0.95906 3.4377 1.9375 5.0234-0.14546-0.01362-0.2914-0.02335-0.4375-0.02344-3.0376-0.0019-5.5 2.4624-5.5 5.5 0 1.3807 1.1193 2.5 2.5 2.5s2.4999-1.1193 2.5-2.5c1.16e-4 -1.1867-0.83377-2.21-1.9961-2.4492 0.65732-0.67102 1.5568-1.0509 2.4961-1.0508 0.62092 9e-5 1.2303 0.16785 1.7656 0.48242 0.43252 1.0185 0.73438 2.1544 0.73438 3.5176 0 2-0.58172 6-5 6-3.3159 0-6-2.6535-6-6 0-2.604 1-4 2.5-6z" style="opacity:.1;paint-order:normal"/>
 <path d="m25 10-6 8c-3 4-4 5.6141-4 9 0 6 4 9 9 9 4 0 7-3.0004 7-8 0-8-5-8.21-5-15v-2.5c0-0.277-0.223-0.5-0.5-0.5zm-1 5v1c0 1.9577 0.95906 3.4377 1.9375 5.0234-0.14546-0.01362-0.2914-0.02335-0.4375-0.02344-3.0376-0.0019-5.5 2.4624-5.5 5.5 0 1.3807 1.1193 2.5 2.5 2.5s2.4999-1.1193 2.5-2.5c1.16e-4 -1.1867-0.83377-2.21-1.9961-2.4492 0.65732-0.67102 1.5568-1.0509 2.4961-1.0508 0.62092 9e-5 1.2303 0.16785 1.7656 0.48242 0.43252 1.0185 0.73438 2.1544 0.73438 3.5176 0 2-0.58172 6-5 6-3.3159 0-6-2.6535-6-6 0-2.604 1-4 2.5-6z" style="fill:#f9f9f9;paint-order:normal"/>
</svg>
