<svg version="1.1" viewBox="0 0 48 48" xmlns="http://www.w3.org/2000/svg">
 <defs>
  <linearGradient id="bg" x1="1" x2="47" gradientTransform="matrix(0 -1 1 0 -1.5e-6 48)" gradientUnits="userSpaceOnUse">
   <stop style="stop-color:#ffc867" offset="0"/>
   <stop style="stop-color:#ffce7b" offset="1"/>
  </linearGradient>
 </defs>
 <path d="m36.31 5c5.859 4.062 9.688 10.831 9.688 18.5 0 12.426-10.07 22.5-22.5 22.5-7.669 0-14.438-3.828-18.5-9.688 1.037 1.822 2.306 3.499 3.781 4.969 4.085 3.712 9.514 5.969 15.469 5.969 12.703 0 23-10.298 23-23 0-5.954-2.256-11.384-5.969-15.469-1.469-1.475-3.147-2.744-4.969-3.781zm4.969 3.781c3.854 4.113 6.219 9.637 6.219 15.719 0 12.703-10.297 23-23 23-6.081 0-11.606-2.364-15.719-6.219 4.16 4.144 9.883 6.719 16.219 6.719 12.703 0 23-10.298 23-23 0-6.335-2.575-12.06-6.719-16.219z" style="opacity:.05"/>
 <path d="m41.28 8.781c3.712 4.085 5.969 9.514 5.969 15.469 0 12.703-10.297 23-23 23-5.954 0-11.384-2.256-15.469-5.969 4.113 3.854 9.637 6.219 15.719 6.219 12.703 0 23-10.298 23-23 0-6.081-2.364-11.606-6.219-15.719z" style="opacity:.1"/>
 <path d="m31.25 2.375c8.615 3.154 14.75 11.417 14.75 21.13 0 12.426-10.07 22.5-22.5 22.5-9.708 0-17.971-6.135-21.12-14.75a23 23 0 0 0 44.875-7 23 23 0 0 0-16-21.875z" style="opacity:.2"/>
 <path d="m24 1c-12.703 0-23 10.297-23 23 0 1.346 0.122 2.655 0.344 3.938l43.75 5.219c1.222-2.809 1.906-5.897 1.906-9.156 0-12.703-10.297-23-23-23z" style="fill:url(#bg)"/>
 <path d="m39.996 25c0 3.313-2.684 6-6 6-3.313 0-6-2.688-6-6 0-3.313 2.688-6 6-6 3.316 0 6 2.688 6 6" style="opacity:.1"/>
 <path d="m38.996 24c0 3.313-2.684 6-6 6-3.313 0-6-2.688-6-6 0-3.313 2.688-6 6-6 3.316 0 6 2.688 6 6" style="fill:#ff9c2f"/>
 <path d="m17.813 16.781c-6.155 0.07-12.24 5.05-16.469 11.156 1.872 10.822 11.299 19.06 22.656 19.06 9.444 0 17.552-5.704 21.09-13.844-8.528-7.916-21.18-16.445-27.28-16.375z" style="fill:#869cc8"/>
 <path d="m40.03 7.531c3.712 4.084 5.969 9.514 5.969 15.469 0 12.703-10.297 23-23 23-5.954 0-11.384-2.256-15.469-5.969 4.178 4.291 10.01 6.969 16.469 6.969 12.703 0 23-10.298 23-23 0-6.462-2.677-12.291-6.969-16.469z" style="opacity:.1"/>
</svg>
