<?xml version="1.0" encoding="UTF-8"?>
<svg version="1.1" viewBox="0 0 48 48" xmlns="http://www.w3.org/2000/svg">
 <defs>
  <linearGradient id="bg" x2="0" y1="1" y2="47" gradientUnits="userSpaceOnUse">
   <stop style="stop-color:#a8cfeb" offset="0"/>
   <stop style="stop-color:#96c5e7" offset="1"/>
  </linearGradient>
 </defs>
 <path d="m36.3 5c5.86 4.06 9.69 10.8 9.69 18.5 0 12.4-10.1 22.5-22.5 22.5-7.67 0-14.4-3.83-18.5-9.69 1.04 1.82 2.31 3.5 3.78 4.97 4.08 3.71 9.51 5.97 15.5 5.97 12.7 0 23-10.3 23-23 0-5.95-2.26-11.4-5.97-15.5-1.47-1.48-3.15-2.74-4.97-3.78zm4.97 3.78c3.85 4.11 6.22 9.64 6.22 15.7 0 12.7-10.3 23-23 23-6.08 0-11.6-2.36-15.7-6.22 4.16 4.14 9.88 6.72 16.2 6.72 12.7 0 23-10.3 23-23 0-6.34-2.58-12.1-6.72-16.2z" style="opacity:.05"/>
 <path d="m41.3 8.78c3.71 4.08 5.97 9.51 5.97 15.5 0 12.7-10.3 23-23 23-5.95 0-11.4-2.26-15.5-5.97 4.11 3.85 9.64 6.22 15.7 6.22 12.7 0 23-10.3 23-23 0-6.08-2.36-11.6-6.22-15.7z" style="opacity:.1"/>
 <path d="m31.2 2.38c8.62 3.15 14.8 11.4 14.8 21.1 0 12.4-10.1 22.5-22.5 22.5-9.71 0-18-6.14-21.1-14.8a23 23 0 0 0 44.9-7 23 23 0 0 0-16-21.9z" style="opacity:.2"/>
 <circle cx="24" cy="24" r="23" style="fill:url(#bg)"/>
 <path d="m40 7.53c3.71 4.08 5.97 9.51 5.97 15.5 0 12.7-10.3 23-23 23-5.95 0-11.4-2.26-15.5-5.97 4.18 4.29 10 6.97 16.5 6.97 12.7 0 23-10.3 23-23 0-6.46-2.68-12.3-6.97-16.5z" style="opacity:.1"/>
 <path d="m30 14c-2 9-18 6-18 14l10 8c1-7 16-8 16-10v-6z" style="opacity:.1"/>
 <path d="m11 27c0-8 16-5 18-14l8 6c0 1.53-0.658 1.36-1 2 0.335 1.33 1 1 1 4 0 2-15 3-16 10z" style="fill:#aea286"/>
 <path d="m29.7 16c-0.882 1.45-1.98 2.69-3.31 3.52-2.08 1.29-4.4 2.03-6.54 2.72-2.13 0.689-4.07 1.35-5.25 2.11-0.869 0.559-1.24 1.09-1.42 1.81l7.02 5.62c0.761-1.11 1.77-2.06 2.89-2.82 1.98-1.35 4.33-2.33 6.59-3.14 2.26-0.814 4.45-1.46 5.97-1.99 0.544-0.189 0.928-0.349 1.23-0.486l-0.789-2.54z" style="opacity:.2"/>
 <path d="m34 21c1.25-0.615 3-0.804 3-2v6c0-2-2-3-3-4z" style="fill:#927162"/>
</svg>
