<svg version="1.1" viewBox="0 0 48 48" xmlns="http://www.w3.org/2000/svg">
 <defs>
  <linearGradient id="bg" x2="0" y1="47" y2="1" gradientUnits="userSpaceOnUse">
   <stop style="stop-color:#e4e4e4" offset="0"/>
   <stop style="stop-color:#eee" offset="1"/>
  </linearGradient>
 </defs>
 <path d="m36.31 5c5.859 4.062 9.688 10.831 9.688 18.5 0 12.426-10.07 22.5-22.5 22.5-7.669 0-14.438-3.828-18.5-9.688 1.037 1.822 2.306 3.499 3.781 4.969 4.085 3.712 9.514 5.969 15.469 5.969 12.703 0 23-10.298 23-23 0-5.954-2.256-11.384-5.969-15.469-1.469-1.475-3.147-2.744-4.969-3.781zm4.969 3.781c3.854 4.113 6.219 9.637 6.219 15.719 0 12.703-10.297 23-23 23-6.081 0-11.606-2.364-15.719-6.219 4.16 4.144 9.883 6.719 16.219 6.719 12.703 0 23-10.298 23-23 0-6.335-2.575-12.06-6.719-16.219z" style="opacity:.05"/>
 <path d="m41.28 8.781c3.712 4.085 5.969 9.514 5.969 15.469 0 12.703-10.297 23-23 23-5.954 0-11.384-2.256-15.469-5.969 4.113 3.854 9.637 6.219 15.719 6.219 12.703 0 23-10.298 23-23 0-6.081-2.364-11.606-6.219-15.719z" style="opacity:.1"/>
 <path d="m31.25 2.375c8.615 3.154 14.75 11.417 14.75 21.13 0 12.426-10.07 22.5-22.5 22.5-9.708 0-17.971-6.135-21.12-14.75a23 23 0 0 0 44.875-7 23 23 0 0 0-16-21.875z" style="opacity:.2"/>
 <path d="m24 1c12.703 0 23 10.297 23 23s-10.297 23-23 23-23-10.297-23-23 10.297-23 23-23z" style="fill:url(#bg)"/>
 <g transform="translate(1,1)">
  <g style="opacity:.1"></g>
 </g>
 <path d="m26 11c-1 0-2.1898 0.14841-3.2168 0.44141-1.015 0.293-1.9242 0.69875-2.7832 1.2188l0.7793 2.2383c1.836-0.984 3.4844-1.4805 4.9414-1.4805 1.293 0 2.2225 0.36375 2.8125 1.0938 0.589 0.715 0.4668 1.9723 0.4668 3.4883v1h-3c-5 0-8 2.098-8 6 0 1.824 0.49461 3.5336 1.4746 4.5176 0.976 0.988 2.2984 1.4828 4.0254 1.4824 2.459-5.87e-4 4.5007-1.0005 6.0137-3.1055l0.48633 3.1055h2v-13.547c0-2.258-0.49386-3.8949-1.5059-4.9219-1-1.019-2.4941-1.5312-4.4941-1.5312zm1 10h2v1.875c0 3.4706-1.4889 5.625-5 5.625-1.5658 0-3-0.5-3-3.5 0-3.1429 2.796-4 6-4zm-8 13-4 2 4 2h15.199c0.3 0 0.80078-0.57527 0.80078-2s-0.50078-2-0.80078-2z" style="opacity:.1"/>
 <path d="m25 10c-1 0-2.1898 0.14841-3.2168 0.44141-1.015 0.293-1.9242 0.69875-2.7832 1.2188l0.7793 2.2383c1.836-0.984 3.4844-1.4805 4.9414-1.4805 1.293 0 2.2225 0.36375 2.8125 1.0938 0.589 0.715 0.4668 1.9723 0.4668 3.4883v1h-3c-5 0-8 2.098-8 6 0 1.824 0.49461 3.5336 1.4746 4.5176 0.976 0.988 2.2984 1.4828 4.0254 1.4824 2.459-5.87e-4 4.5007-1.0005 6.0137-3.1055l0.48633 3.1055h2v-13.547c0-2.258-0.49386-3.8949-1.5059-4.9219-1-1.019-2.4941-1.5312-4.4941-1.5312zm1 10h2v1.875c0 3.4706-1.4889 5.625-5 5.625-1.5658 0-3-0.5-3-3.5 0-3.1429 2.796-4 6-4z" style="fill:#5b5b5b"/>
 <path d="m31 37 1-2-1-2h-13l-1 2 1 2" style="fill:#ff6f03"/>
 <path d="m18 33-2 1-0.5 0.9695 0.5 1.0305 2 1" style="fill:#f5c96e"/>
 <path d="m16 34-2 1 2 1" style="fill:#2d2d2d"/>
 <path d="m31 33v4h2.2c0.3 0 0.8-0.57527 0.8-2s-0.5-2-0.8-2" style="fill:#ff2d5b"/>
 <path d="m40.03 7.531c3.712 4.084 5.969 9.514 5.969 15.469 0 12.703-10.297 23-23 23-5.954 0-11.384-2.256-15.469-5.969 4.178 4.291 10.01 6.969 16.469 6.969 12.703 0 23-10.298 23-23 0-6.462-2.677-12.291-6.969-16.469z" style="opacity:.1"/>
</svg>
