<svg version="1.1" viewBox="0 0 48 48" xmlns="http://www.w3.org/2000/svg">
 <defs>
  <linearGradient id="bg" x1="1" x2="47" gradientTransform="matrix(0 -1 1 0 -1.5e-6 48)" gradientUnits="userSpaceOnUse">
   <stop style="stop-color:#a74bbd" offset="0"/>
   <stop style="stop-color:#af5bc3" offset="1"/>
  </linearGradient>
 </defs>
 <path d="m36.3 5c5.86 4.06 9.69 10.8 9.69 18.5 0 12.4-10.1 22.5-22.5 22.5-7.67 0-14.4-3.83-18.5-9.69 1.04 1.82 2.31 3.5 3.78 4.97 4.08 3.71 9.51 5.97 15.5 5.97 12.7 0 23-10.3 23-23 0-5.95-2.26-11.4-5.97-15.5-1.47-1.48-3.15-2.74-4.97-3.78zm4.97 3.78c3.85 4.11 6.22 9.64 6.22 15.7 0 12.7-10.3 23-23 23-6.08 0-11.6-2.36-15.7-6.22 4.16 4.14 9.88 6.72 16.2 6.72 12.7 0 23-10.3 23-23 0-6.34-2.58-12.1-6.72-16.2z" style="opacity:.05"/>
 <path d="m41.3 8.78c3.71 4.08 5.97 9.51 5.97 15.5 0 12.7-10.3 23-23 23-5.95 0-11.4-2.26-15.5-5.97 4.11 3.85 9.64 6.22 15.7 6.22 12.7 0 23-10.3 23-23 0-6.08-2.36-11.6-6.22-15.7z" style="opacity:.1"/>
 <path d="m31.2 2.38c8.62 3.15 14.8 11.4 14.8 21.1 0 12.4-10.1 22.5-22.5 22.5-9.71 0-18-6.14-21.1-14.8a23 23 0 0 0 44.9-7 23 23 0 0 0-16-21.9z" style="opacity:.2"/>
 <path d="m24 1c12.7 0 23 10.3 23 23s-10.3 23-23 23-23-10.3-23-23 10.3-23 23-23z" style="fill:url(#bg)"/>
 <path d="m40 7.53c3.71 4.08 5.97 9.51 5.97 15.5 0 12.7-10.3 23-23 23-5.95 0-11.4-2.26-15.5-5.97 4.18 4.29 10 6.97 16.5 6.97 12.7 0 23-10.3 23-23 0-6.46-2.68-12.3-6.97-16.5z" style="opacity:.1"/>
 <path d="m17.5 13c-2 0-3.5 1-3.5 2 0 0.552 0.448 1 1 1s1-0.448 1-1c0-1 0.647-1.5 1.5-1.5 1.04 0 1.5 0.628 1.5 1.78v1.72c-2.32 0.646-5 1-5 4 0 1.34 0.899 2 2.2 2 0.938 0 2-0.4 2.8-1.4 0 1 0.784 1.4 1.66 1.4 0.725 0 1.6-0.191 2.34-1v-1c-0.362 0.298-1 1-1.4 1-0.49 0-0.6-0.511-0.6-1.45v-4.15c0-2.4-1.06-3.4-3.5-3.4zm15.5 0c-1.66 0-3 1.34-3 3h2c0-0.554 0.446-1 1-1v2h-1c-1.66 0-3 1.36-3 3 0 1.66 1.34 3 3 3h3c0.552 0 1-0.448 1-1v-6c0-1.66-1.34-3-3-3zm-14 4.48v2.02c0 1.5-0.799 2.5-1.7 2.5-0.746 0-1.3-0.2-1.3-1.5 0-0.8 0.464-2.13 3-3.02zm13 1.52h2v2l-3-1c0-0.552 0.448-1 1-1zm-12.2 8c-2.5 0-5.8 4-5.8 7.5 0 1.3 0.599 2.5 1.7 2.5 1.78 0 2.96-1.03 3.9-2.44-0.281 1.44 0.398 2.44 1.4 2.44 1.41 0 2.66-1.69 3.85-3.15 0.081-0.0991 0.146-0.215 0.146-0.354 0-0.276-0.224-0.5-0.5-0.5-0.138 0-0.263 0.056-0.354 0.146-0.876 0.958-2.05 2.35-2.55 2.35s-0.674-0.411-0.57-1l0.936-5.3c0.0157-0.0896-0.07-0.163-0.156-0.135l-0.961 0.32c-0.191 0.0636-0.234-0.0063-0.137-0.182 0.137-0.247 0.289-0.648 0.289-1.2 0-0.6-0.5-1-1.2-1zm13.2 0c-1.31 0-2.32 0.587-3 1l0.389 1c0.772-0.55 1.68-1 2.41-1 1 0 1.2 1.18 1.2 2.5v0.5h-1c-2.5 0-4 1.05-4 3 0 1.09 0.25 3 2.5 3 1.23-2.92e-4 2.49-0.448 3.25-1.5l0.25 1.5h1v-6.75c0-1.54-0.424-3.25-3-3.25zm-13.5 1c0.3 0 0.5 0.201 0.5 0.6l-2e-3 1.07c2e-3 2.83-1.34 5.33-3 5.33-0.7 0-1-0.4-1-1.5 0-2.45 2.4-5.5 3.5-5.5zm13.5 4h1v0.938c0 2.06-1.5 3.06-2.5 3.06-0.9 0-1.5-0.5-1.5-2 0-1.57 1.5-2 3-2z" style="opacity:.1"/>
 <path d="m16.5 12c-2 0-3.5 1-3.5 2 0 0.552 0.448 1 1 1s1-0.448 1-1c0-1 0.647-1.5 1.5-1.5 1.04 0 1.5 0.628 1.5 1.78v1.72c-2.32 0.646-5 1-5 4 0 1.34 0.899 2 2.2 2 0.938 0 2-0.4 2.8-1.4 0 1 0.784 1.4 1.66 1.4 0.725 0 1.6-0.191 2.34-1v-1c-0.362 0.298-1 1-1.4 1-0.49 0-0.6-0.511-0.6-1.45v-4.15c0-2.4-1.06-3.4-3.5-3.4zm15.5 0c-1.66 0-3 1.34-3 3h2c0-0.554 0.446-1 1-1s1 0.446 1 1v1h-2c-1.66 0-3 1.36-3 3 0 1.66 1.34 3 3 3h3c0.552 0 1-0.448 1-1v-6c0-1.66-1.34-3-3-3zm-14 4.48v2.02c0 1.5-0.799 2.5-1.7 2.5-0.746 0-1.3-0.2-1.3-1.5 0-0.8 0.464-2.13 3-3.02zm13 1.52h2v2h-2c-0.552 0-1-0.448-1-1s0.448-1 1-1zm-12.2 8c-2.5 0-5.8 4-5.8 7.5 0 1.3 0.599 2.5 1.7 2.5 1.78 0 2.96-1.03 3.9-2.44-0.281 1.44 0.398 2.44 1.4 2.44 1.41 0 2.66-1.69 3.85-3.15 0.081-0.0991 0.146-0.215 0.146-0.354 0-0.276-0.224-0.5-0.5-0.5-0.138 0-0.263 0.056-0.354 0.146-0.876 0.958-2.05 2.35-2.55 2.35s-0.674-0.411-0.57-1l0.936-5.3c0.0157-0.0896-0.07-0.163-0.156-0.135l-0.961 0.32c-0.191 0.0636-0.234-0.0063-0.137-0.182 0.137-0.247 0.289-0.648 0.289-1.2 0-0.6-0.5-1-1.2-1zm13.2 0c-1.31 0-2.32 0.587-3 1l0.389 1c0.772-0.55 1.68-1 2.41-1 1 0 1.2 1.18 1.2 2.5v0.5h-1c-2.5 0-4 1.05-4 3 0 1.09 0.25 3 2.5 3 1.23-2.92e-4 2.49-0.448 3.25-1.5l0.25 1.5h1v-6.75c0-1.54-0.424-3.25-3-3.25zm-13.5 1c0.3 0 0.5 0.201 0.5 0.6 0 0.401-0.38 0.831-0.672 1.11-0.175 0.167-0.142 0.229 0.0879 0.152l0.582-0.193c0.00196 2.83-1.34 5.33-3 5.33-0.7 0-1-0.4-1-1.5 0-2.45 2.4-5.5 3.5-5.5zm13.5 4h1v0.938c0 2.06-1.5 3.06-2.5 3.06-0.9 0-1.5-0.5-1.5-2 0-1.57 1.5-2 3-2z" style="fill:#f9f9f9"/>
</svg>
