<?xml version="1.0" encoding="UTF-8"?>
<svg version="1.1" viewBox="0 0 48 48" xmlns="http://www.w3.org/2000/svg">
 <defs>
  <linearGradient id="bg" x2="0" y1="1" y2="47" gradientUnits="userSpaceOnUse">
   <stop style="stop-color:#848484" offset="0"/>
   <stop style="stop-color:#7a7a7a" offset="1"/>
  </linearGradient>
 </defs>
 <path d="m36.3 5c5.86 4.06 9.69 10.8 9.69 18.5 0 12.4-10.1 22.5-22.5 22.5-7.67 0-14.4-3.83-18.5-9.69 1.04 1.82 2.31 3.5 3.78 4.97 4.08 3.71 9.51 5.97 15.5 5.97 12.7 0 23-10.3 23-23 0-5.95-2.26-11.4-5.97-15.5-1.47-1.48-3.15-2.74-4.97-3.78zm4.97 3.78c3.85 4.11 6.22 9.64 6.22 15.7 0 12.7-10.3 23-23 23-6.08 0-11.6-2.36-15.7-6.22 4.16 4.14 9.88 6.72 16.2 6.72 12.7 0 23-10.3 23-23 0-6.34-2.58-12.1-6.72-16.2z" style="opacity:.05"/>
 <path d="m41.3 8.78c3.71 4.08 5.97 9.51 5.97 15.5 0 12.7-10.3 23-23 23-5.95 0-11.4-2.26-15.5-5.97 4.11 3.85 9.64 6.22 15.7 6.22 12.7 0 23-10.3 23-23 0-6.08-2.36-11.6-6.22-15.7z" style="opacity:.1"/>
 <path d="m31.2 2.38c8.62 3.15 14.8 11.4 14.8 21.1 0 12.4-10.1 22.5-22.5 22.5-9.71 0-18-6.14-21.1-14.8a23 23 0 0 0 44.9-7 23 23 0 0 0-16-21.9z" style="opacity:.2"/>
 <circle cx="24" cy="24" r="23" style="fill:url(#bg)"/>
 <path d="m40 7.53c3.71 4.08 5.97 9.51 5.97 15.5 0 12.7-10.3 23-23 23-5.95 0-11.4-2.26-15.5-5.97 4.18 4.29 10 6.97 16.5 6.97 12.7 0 23-10.3 23-23 0-6.46-2.68-12.3-6.97-16.5z" style="opacity:.1"/>
 <path d="m25 12c-1.25 0-2 8-2.75 8-0.997-0.0164-1.25-2-1.25-5-1 0-4 5-5 5l-1 5.5c0 1.5 5 3 5 7l-1 1.5c0 1 1.42 1.99 3 2 0 1 0.5 2 1 2 1 0 1-1 2-1s1 1 2 1c0.5 0 1-1 1-2 1.58-0.0064 3-1 3-2 0-1-1-1-1-1.5 0-4 5-5.5 5-7 0-0.5-0.5-0.5-1-0.5 1-3 4-4.75 4-5.75 0-0.15-0.1-0.25-0.25-0.25-1 0-1.75 1-3.75 1-1 0-4-5-5-5 0 3-0.253 4.98-1.25 5-0.75 0-1.5-8-2.75-8z" style="opacity:.1"/>
 <path d="m24 11c-1.25 0-2 8-2.75 8-0.997-0.0164-1.25-2-1.25-5-1 0-4 5-5 5-2 0-2.75-1-3.75-1-0.15 0-0.25 0.1-0.25 0.25 0 1 3 2.75 4 5.75-0.5 0-1 0-1 0.5 0 1.5 5 3 5 7 0 0.5-1 0.5-1 1.5 0 1 1.42 1.99 3 2 0 1 0.5 2 1 2 1 0 1-1 2-1s1 1 2 1c0.5 0 1-1 1-2 1.58-0.0064 3-1 3-2 0-1-1-1-1-1.5 0-4 5-5.5 5-7 0-0.5-0.5-0.5-1-0.5 1-3 4-4.75 4-5.75 0-0.15-0.1-0.25-0.25-0.25-1 0-1.75 1-3.75 1-1 0-4-5-5-5 0 3-0.253 4.98-1.25 5-0.75 0-1.5-8-2.75-8z" style="fill:#f5f5f5"/>
 <path d="m19.5 24-0.5 1.5c0 1 2 1.5 4 2.5-1-2-2.5-4-3.5-4zm11 0c-1 0-2.5 2-3.5 4 2-1 4-1.5 4-2.5s0-1.5-0.5-1.5zm-5.5 7c-1.47 0-1.93 1.66-2.72 2.05-0.247 0.123-0.347 0.423-0.225 0.67 0.123 0.247 0.423 0.347 0.67 0.225 1.19-0.595 1.36-1.95 2.28-1.95 0.666 0 1.16 1.39 2.28 1.95 0.247 0.123 0.547 0.0222 0.67-0.225 0.123-0.247 0.0222-0.547-0.225-0.67-0.869-0.434-1.41-2.05-2.72-2.05z" style="opacity:.1"/>
 <path d="m18.5 23c-0.5 0-0.5 0.5-0.5 1.5s2 1.5 4 2.5c-1-2-2.5-4-3.5-4zm11 0c-1 0-2.5 2-3.5 4 2-1 4-1.5 4-2.5s0-1.5-0.5-1.5zm-5.5 7c-1.47 0-1.93 1.66-2.72 2.05-0.247 0.123-0.347 0.423-0.225 0.67 0.123 0.247 0.423 0.347 0.67 0.225 1.19-0.595 1.36-1.95 2.28-1.95 0.666 0 1.16 1.39 2.28 1.95 0.247 0.123 0.547 0.0222 0.67-0.225 0.123-0.247 0.0222-0.547-0.225-0.67-0.869-0.434-1.41-2.05-2.72-2.05z" style="fill:#5c5c5c"/>
</svg>
