<svg xmlns="http://www.w3.org/2000/svg" viewBox="0 0 48 48">
 <defs>
  <linearGradient id="linearGradient3764" x1="1" x2="47" gradientUnits="userSpaceOnUse" gradientTransform="matrix(0,-1,1,0,-1.5e-6,47.999998)">
   <stop style="stop-color:#f6b22e;stop-opacity:1"/>
   <stop offset="1" style="stop-color:#f7b941;stop-opacity:1"/>
  </linearGradient>
  <radialGradient id="radialGradient6420" gradientUnits="userSpaceOnUse" gradientTransform="matrix(1,0,0,0.92253912,-0.09956464,2.9465604)" cx="16.653" cy="30.08" r="1.209">
   <stop style="stop-color:#7d683e;stop-opacity:1"/>
   <stop offset="1" style="stop-color:#7a6841;stop-opacity:1"/>
  </radialGradient>
  <radialGradient id="radialGradient6422" gradientUnits="userSpaceOnUse" gradientTransform="translate(-0.4999999,-0.50000275)" cx="17" cy="17" r="3.5">
   <stop style="stop-color:#cc5f50;stop-opacity:1"/>
   <stop offset="1" style="stop-color:#d57a6e;stop-opacity:1"/>
  </radialGradient>
 </defs>
 <g>
  <path d="m 36.31 5 c 5.859 4.062 9.688 10.831 9.688 18.5 c 0 12.426 -10.07 22.5 -22.5 22.5 c -7.669 0 -14.438 -3.828 -18.5 -9.688 c 1.037 1.822 2.306 3.499 3.781 4.969 c 4.085 3.712 9.514 5.969 15.469 5.969 c 12.703 0 23 -10.298 23 -23 c 0 -5.954 -2.256 -11.384 -5.969 -15.469 c -1.469 -1.475 -3.147 -2.744 -4.969 -3.781 z m 4.969 3.781 c 3.854 4.113 6.219 9.637 6.219 15.719 c 0 12.703 -10.297 23 -23 23 c -6.081 0 -11.606 -2.364 -15.719 -6.219 c 4.16 4.144 9.883 6.719 16.219 6.719 c 12.703 0 23 -10.298 23 -23 c 0 -6.335 -2.575 -12.06 -6.719 -16.219 z" style="opacity:0.05"/>
  <path d="m 41.28 8.781 c 3.712 4.085 5.969 9.514 5.969 15.469 c 0 12.703 -10.297 23 -23 23 c -5.954 0 -11.384 -2.256 -15.469 -5.969 c 4.113 3.854 9.637 6.219 15.719 6.219 c 12.703 0 23 -10.298 23 -23 c 0 -6.081 -2.364 -11.606 -6.219 -15.719 z" style="opacity:0.1"/>
  <path d="m 31.25 2.375 c 8.615 3.154 14.75 11.417 14.75 21.13 c 0 12.426 -10.07 22.5 -22.5 22.5 c -9.708 0 -17.971 -6.135 -21.12 -14.75 a 23 23 0 0 0 44.875 -7 a 23 23 0 0 0 -16 -21.875 z" style="opacity:0.2"/>
 </g>
 <g>
  <path d="m 24 1 c 12.703 0 23 10.297 23 23 c 0 12.703 -10.297 23 -23 23 -12.703 0 -23 -10.297 -23 -23 0 -12.703 10.297 -23 23 -23 z" style="fill:url(#linearGradient3764);fill-opacity:1"/>
 </g>
 <g>
  <path d="m 40.03 7.531 c 3.712 4.084 5.969 9.514 5.969 15.469 0 12.703 -10.297 23 -23 23 c -5.954 0 -11.384 -2.256 -15.469 -5.969 4.178 4.291 10.01 6.969 16.469 6.969 c 12.703 0 23 -10.298 23 -23 0 -6.462 -2.677 -12.291 -6.969 -16.469 z" style="opacity:0.1"/>
 </g>
 <g transform="translate(0,-1)">
  <g>
   <path d="m 13,12 c -0.554,0 -1,0.446 -1,1 l 0,9 c 0,0.554 0.446,1 1,1 l 9,0 c 0.554,0 1,-0.446 1,-1 l 0,-9 c 0,-0.554 -0.446,-1 -1,-1 l -9,0 z m 12,0 c -0.554,0 -1,0.446 -1,1 l 0,9 c 0,0.554 0.446,1 1,1 l 12,0 c 0.554,0 1,-0.446 1,-1 l 0,-9 c 0,-0.554 -0.446,-1 -1,-1 L 25,12 z M 13,24 c -0.554,0 -1,0.446 -1,1 l 0,12 c 0,0.554 0.446,1 1,1 l 10,0 c 0.554,0 1,-0.446 1,-1 l 0,-12 c 0,-0.554 -0.446,-1 -1,-1 l -10,0 z m 13,0 c -0.554,0 -1,0.446 -1,1 l 0,12 c 0,0.554 0.446,1 1,1 l 11,0 c 0.554,0 1,-0.446 1,-1 l 0,-12 c 0,-0.554 -0.446,-1 -1,-1 l -11,0 z" style="fill:#000;fill-opacity:0.1;stroke:none;fill-rule:nonzero"/>
  </g>
  <g>
   <g>
    <g>
     <rect width="12" height="14" x="11" y="23" rx="1" style="fill:#546971;fill-opacity:1;stroke:none;fill-rule:nonzero"/>
     <path d="m 12 24 0 12 10 0 0 -12" style="fill:#79a8b7;fill-opacity:1;stroke:none;fill-rule:nonzero"/>
     <path d="m 22 24 0 3 c -0.579 0.335 -1.743 0.692 -2.524 0.692 -1.567 0 -2.895 -0.799 -3.318 -1.9 -0.379 0.231 -0.852 0.38 -1.373 0.38 -0.979 0 -2.488 -0.693 -2.785 -1.368 c 0 -0.473 0 -0.805 0 -0.805" style="fill:#f8ddeb;fill-opacity:1;stroke:none;fill-rule:nonzero"/>
     <path d="m 15.02 33.19 c -0.829 0.765 -0.813 2.281 -0.813 2.281 0 0 1.136 0.005 2 -0.438 0.25 0.478 0.563 0.844 0.563 0.844 0 0 0.781 -0.638 1.094 -1.406 c 0.136 0.718 0.156 1.531 0.156 1.531 l 0.906 0 c 0 0 -0.001 -0.985 -0.188 -1.781 0.815 0.225 1.75 0.094 1.75 0.094 0 0 -0.161 -0.96 -0.719 -1.594 0.126 -0.037 0.261 -0.064 0.375 -0.125 0.907 -0.484 1.281 -1.813 1.281 -1.813 0 0 -1.434 -0.359 -2.344 0.125 -0.58 0.246 -3.438 1.911 -4.063 2.281 z" style="fill:#3d903d;fill-opacity:1;stroke:none;fill-rule:nonzero"/>
     <path d="m 16.402 27.383 c -0.821 0 -1.483 0.644 -1.483 1.438 0 0.013 0 0.034 0 0.045 -0.014 -0.005 -0.019 -0.012 -0.038 -0.012 -0.795 -0.205 -1.619 0.252 -1.829 1.02 -0.214 0.768 0.259 1.562 1.055 1.767 0.014 0.002 0.021 -0.002 0.033 0 -0.007 0.012 -0.012 0.016 -0.012 0.032 -0.413 0.689 -0.156 1.58 0.558 1.979 0.714 0.398 1.624 0.149 2.034 -0.541 0.005 -0.013 0.001 -0.02 0.014 -0.029 0.012 0.009 0.019 0.016 0.033 0.029 0.581 0.563 1.514 0.563 2.097 0 0.581 -0.565 0.581 -1.479 0 -2.037 -0.012 -0.009 -0.021 -0.02 -0.033 -0.029 0.012 -0.013 0.033 -0.012 0.047 -0.016 0.711 -0.398 0.954 -1.274 0.543 -1.963 -0.334 -0.554 -0.984 -0.802 -1.603 -0.673 -0.191 -0.576 -0.749 -1 -1.411 -1" style="fill:#e4da3b;fill-opacity:1;stroke:none;fill-rule:nonzero"/>
     <path d="m 16.865 29.616 c 0.646 0.16 1.029 0.772 0.856 1.366 -0.173 0.594 -0.837 0.948 -1.48 0.788 -0.646 -0.157 -1.027 -0.77 -0.856 -1.366 0.173 -0.594 0.837 -0.948 1.48 -0.788 m 0 0" style="fill:url(#radialGradient6420);fill-opacity:1;stroke:none;fill-rule:nonzero"/>
    </g>
    <g transform="translate(1,0)">
     <rect rx="1" y="23" x="23" height="14" width="13" style="fill:#546971;fill-opacity:1;stroke:none;fill-rule:nonzero"/>
     <rect y="24" x="24" height="12" width="11" style="fill:#98cdf1;fill-opacity:1;stroke:none;fill-rule:nonzero"/>
     <path d="m 29.02 32.528 -2.094 -2.517 c 2.071 -0.011 3.071 -0.011 4.913 -0.196 l -2.462 2.766" style="fill:#c47378;fill-opacity:0.941;stroke:none;fill-rule:nonzero"/>
     <path d="m 24 36 11 0 0 -0.846 c -0.288 -1.269 -1.763 -2.73 -3.603 -3.484 l -1.201 1.169 -0.38 -0.253 -1.054 -0.023 -0.337 0.39 -1.278 -1.268 c -1.406 0.62 -2.857 1.977 -3.147 3.469 m 0 0.846" style="fill:#1f5d8e;fill-opacity:1;stroke:none;fill-rule:nonzero"/>
     <path d="m 29.27 25.986 c 1.223 0 2.213 1.03 2.213 2.299 l 0 1.038 c 0 1.269 -0.99 2.297 -2.213 2.297 -1.221 0 -2.213 -1.028 -2.213 -2.297 l 0 -1.038 c 0 -1.269 0.992 -2.299 2.213 -2.299 m 0 0" style="fill:#dfa470;fill-opacity:1;stroke:none;fill-rule:nonzero"/>
     <path d="m 30.807 30.982 c 0.238 -0.233 0.846 -0.722 0.914 -1.045 l -0.023 -1.849 -3.523 -1.309 -0.573 0.486 -0.95 1.236 0.233 1.395 0.124 0.357 0.717 0.727 m 3.082 0.002" style="fill:#dfa470;fill-opacity:1;stroke:none;fill-rule:nonzero"/>
     <path d="m 27.03 30.26 0 -1.722 c 0.175 -0.752 0.904 -1.312 1.267 -1.302 0.62 0.078 1.053 0.426 1.423 0.958 0.577 0.552 1.631 0.421 1.935 0 0 0.643 0 1.284 0 1.927 0.345 -0.134 0.637 -0.513 0.649 -1.091 -0.088 -5.34 -5.866 -5.241 -6.03 -0.492 0.051 0.598 0.408 1.441 0.755 1.722" style="fill:#9a2f29;fill-opacity:1;stroke:none;fill-rule:nonzero"/>
     <path d="m 27.73 30.978 1.539 1.595 -0.768 0.797 -1.539 -1.593 m 0.768 -0.798" style="fill:#e6e6e6;fill-opacity:1;stroke:none;fill-rule:nonzero"/>
    </g>
    <g transform="translate(1,0)">
     <rect width="14" height="11" x="22" y="11" rx="1" style="fill:#546971;fill-opacity:1;stroke:none;fill-rule:nonzero"/>
     <path transform="matrix(0.68178719,0,0,0.69230773,8.0467251,13.153845)" d="m 21.932 -1.667 17.601 0 0 13 -17.601 0" style="fill:#4db0d8;fill-opacity:1;stroke:none;fill-rule:nonzero"/>
     <path d="m 31.5 15.5 -5.86 5.5 9.36 0 0 -1 z" style="fill:#43a63b;fill-opacity:1"/>
     <path d="m 28 14.5 c 0 0.916 -0.834 1.75 -1.75 1.75 -0.916 0 -1.75 -0.834 -1.75 -1.75 0 -0.916 0.834 -1.75 1.75 -1.75 0.916 0 1.75 0.834 1.75 1.75 z" style="fill:#f1cf0f;fill-opacity:1"/>
     <path d="m 31.5 15.5 -0.5 2.5 l -3 3 7 0 0 -1 z" style="fill:#4ab842;fill-opacity:1"/>
     <path d="m 27 15 -4 4.594 0 1.406 8.5 0 z" style="fill:#269542;fill-opacity:1"/>
     <path d="m 27 15 -1 3 1 3 4.5 0 z" style="fill:#2cad4d;fill-opacity:1"/>
    </g>
    <g>
     <rect width="11" height="11" x="11" y="11" rx="1" style="fill:#546971;fill-opacity:1;stroke:none;fill-rule:nonzero"/>
     <rect y="12" x="12" height="9" width="9" style="fill:#94cadf;fill-opacity:1;stroke:none;fill-rule:nonzero"/>
     <path d="m 15.242 18.02 c 0 0 -0.909 -0.723 -1.56 -1.771 -0.652 -1.046 -0.833 -1.708 -0.561 -1.907 0.272 -0.201 1.348 0.23 2.165 0.753 0.818 0.523 0.675 0.456 0.675 0.456 0 0 0.002 -0.371 0.197 -0.447 0.228 -0.089 0.41 0.308 0.41 0.308 0 0 0.262 -0.563 0.989 -1.286 0.727 -0.723 1.526 -1.22 1.859 -1.113 0.334 0.108 0.566 0.995 0.582 2.072 0.015 1.077 -0.706 2.165 -0.706 2.165 0 0 0.46 0.751 0.37 1.259 -0.112 0.623 -0.35 1.033 -0.819 1.08 -0.469 0.046 -1.317 -0.785 -1.317 -0.785 0 0 0.031 1.093 -0.363 1.184 -0.393 0.092 -1.045 -0.415 -1.423 -0.938 -0.378 -0.523 -0.499 -1.031 -0.499 -1.031 m 0 0.005" style="fill:url(#radialGradient6422);fill-opacity:1;stroke:none;fill-rule:nonzero"/>
     <path d="m 16.573 15.414 c 0.261 0.546 1.38 3.327 0.997 3.486 -0.349 0.145 -1.524 -2.422 -1.61 -3.347 -0.013 -0.144 -0.058 -0.492 0.131 -0.553 0.158 -0.051 0.35 0.14 0.481 0.414 z" style="fill:#4d4d4d;fill-opacity:1;stroke:none;fill-rule:nonzero"/>
    </g>
   </g>
   <path d="m 30.27 32.574 1.539 -1.595 0.77 0.797 -1.539 1.595 m -0.77 -0.797" style="fill:#e6e6e6;fill-opacity:1;stroke:none;fill-rule:nonzero"/>
  </g>
 </g>
</svg>
