<svg xmlns="http://www.w3.org/2000/svg" viewBox="0 0 48 48">
 <defs>
  <linearGradient id="linearGradient3764" x1="1" x2="47" gradientUnits="userSpaceOnUse" gradientTransform="matrix(0,-1,1,0,-1.5e-6,47.999998)">
   <stop style="stop-color:#e4e4e4;stop-opacity:1"/>
   <stop offset="1" style="stop-color:#eee;stop-opacity:1"/>
  </linearGradient>
 </defs>
 <g>
  <path d="m 36.31 5 c 5.859 4.062 9.688 10.831 9.688 18.5 c 0 12.426 -10.07 22.5 -22.5 22.5 c -7.669 0 -14.438 -3.828 -18.5 -9.688 c 1.037 1.822 2.306 3.499 3.781 4.969 c 4.085 3.712 9.514 5.969 15.469 5.969 c 12.703 0 23 -10.298 23 -23 c 0 -5.954 -2.256 -11.384 -5.969 -15.469 c -1.469 -1.475 -3.147 -2.744 -4.969 -3.781 z m 4.969 3.781 c 3.854 4.113 6.219 9.637 6.219 15.719 c 0 12.703 -10.297 23 -23 23 c -6.081 0 -11.606 -2.364 -15.719 -6.219 c 4.16 4.144 9.883 6.719 16.219 6.719 c 12.703 0 23 -10.298 23 -23 c 0 -6.335 -2.575 -12.06 -6.719 -16.219 z" style="opacity:0.05"/>
  <path d="m 41.28 8.781 c 3.712 4.085 5.969 9.514 5.969 15.469 c 0 12.703 -10.297 23 -23 23 c -5.954 0 -11.384 -2.256 -15.469 -5.969 c 4.113 3.854 9.637 6.219 15.719 6.219 c 12.703 0 23 -10.298 23 -23 c 0 -6.081 -2.364 -11.606 -6.219 -15.719 z" style="opacity:0.1"/>
  <path d="m 31.25 2.375 c 8.615 3.154 14.75 11.417 14.75 21.13 c 0 12.426 -10.07 22.5 -22.5 22.5 c -9.708 0 -17.971 -6.135 -21.12 -14.75 a 23 23 0 0 0 44.875 -7 a 23 23 0 0 0 -16 -21.875 z" style="opacity:0.2"/>
 </g>
 <g>
  <path d="m 24 1 c 12.703 0 23 10.297 23 23 c 0 12.703 -10.297 23 -23 23 -12.703 0 -23 -10.297 -23 -23 0 -12.703 10.297 -23 23 -23 z" style="fill:url(#linearGradient3764);fill-opacity:1"/>
 </g>
 <g>
  <path d="m 40.03 7.531 c 3.712 4.084 5.969 9.514 5.969 15.469 0 12.703 -10.297 23 -23 23 c -5.954 0 -11.384 -2.256 -15.469 -5.969 4.178 4.291 10.01 6.969 16.469 6.969 c 12.703 0 23 -10.298 23 -23 0 -6.462 -2.677 -12.291 -6.969 -16.469 z" style="opacity:0.1"/>
 </g>
 <path d="m 14 12 c -1.108 0 -2 0.892 -2 2 l 0 8 c 0 1.108 0.892 2 2 2 l 8 0 c 1.108 0 2 -0.892 2 -2 l 0 -8 c 0 -1.108 -0.892 -2 -2 -2 l -8 0 z m 14 0 c -1.108 0 -2 0.892 -2 2 l 0 8 c 0 1.108 0.892 2 2 2 l 8 0 c 1.108 0 2 -0.892 2 -2 l 0 -8 c 0 -1.108 -0.892 -2 -2 -2 l -8 0 z m -10.07 2 4.57 3 -1.5 0 l 0 5 -2 0 0 -5 -2 0 0 5 -2 0 0 -5 -1.5 0 4.43 -3 z m 12.07 0 l 2 5 2 -3 2 3.5 0 2.5 -8 0 0 -4 2 -4 z m -16 12 c -1.108 0 -2 0.892 -2 2 l 0 8 c 0 1.108 0.892 2 2 2 l 8 0 c 1.108 0 2 -0.892 2 -2 l 0 -8 c 0 -1.108 -0.892 -2 -2 -2 l -8 0 z m 14 0 c -1.108 0 -2 0.892 -2 2 l 0 8 c 0 1.108 0.892 2 2 2 l 8 0 c 1.108 0 2 -0.892 2 -2 l 0 -8 c 0 -1.108 -0.892 -2 -2 -2 l -8 0 z m -11 2 c 0.351 0 0.696 0.093 1 0.27 c 0.304 -0.176 0.649 -0.269 1 -0.27 c 1.105 0 2 0.895 2 2 -0.001 0.048 -0.003 0.096 -0.008 0.145 0.759 0.303 1.258 1.038 1.258 1.855 0 0.817 -0.498 1.552 -1.256 1.855 0.004 0.048 0.006 0.096 0.006 0.145 0 1.105 -0.895 2 -2 2 -0.351 0 -0.696 -0.093 -1 -0.27 c -0.304 0.176 -0.649 0.269 -1 0.27 c -1.105 0 -2 -0.895 -2 -2 0.001 -0.048 0.004 -0.096 0.008 -0.145 c -0.759 -0.303 -1.258 -1.038 -1.258 -1.855 0 -0.817 0.498 -1.552 1.256 -1.855 -0.004 -0.048 -0.006 -0.096 -0.006 -0.145 c 0 -1.105 0.895 -2 2 -2 z m 15 0 c 1.105 0 2 1.119 2 2.5 -0.001 0.891 -0.383 1.714 -1 2.16 0 1.84 3 0.346 3 3.34 l -8 0 c 0 -2.994 3 -1.5 3 -3.34 c -0.617 -0.446 -0.999 -1.269 -1 -2.16 0 -1.381 0.895 -2.5 2 -2.5 m -14 2 c -1.105 0 -2 0.895 -2 2 0 1.105 0.895 2 2 2 1.105 0 2 -0.895 2 -2 0 -1.105 -0.895 -2 -2 -2 z" style="fill:#000;opacity:0.1;fill-opacity:1;stroke:none"/>
 <path d="m 13 11 c -1.108 0 -2 0.892 -2 2 l 0 8 c 0 1.108 0.892 2 2 2 l 8 0 c 1.108 0 2 -0.892 2 -2 l 0 -8 c 0 -1.108 -0.892 -2 -2 -2 l -8 0 z m 3.93 2 l 4.57 3 l -1.5 0 l 0 5 l -2 0 l 0 -5 l -2 0 l 0 5 l -2 0 l 0 -5 l -1.5 0 l 4.43 -3 z" style="fill:#16a1b2;opacity:1;fill-opacity:1;stroke:none"/>
 <path d="m 27 11 c -1.108 0 -2 0.892 -2 2 l 0 8 c 0 1.108 0.892 2 2 2 l 8 0 c 1.108 0 2 -0.892 2 -2 l 0 -8 c 0 -1.108 -0.892 -2 -2 -2 l -8 0 z m 2 2 l 2 5 l 2 -3 l 2 3.5 l 0 2.5 l -8 0 l 0 -4 l 2 -4 z" style="fill:#e2e236;opacity:1;fill-opacity:1;stroke:none"/>
 <path d="m 27 25 c -1.108 0 -2 0.892 -2 2 l 0 8 c 0 1.108 0.892 2 2 2 l 8 0 c 1.108 0 2 -0.892 2 -2 l 0 -8 c 0 -1.108 -0.892 -2 -2 -2 l -8 0 z m 4 2 c 1.105 0 2 1.119 2 2.5 c -0.001 0.891 -0.383 1.714 -1 2.16 c 0 1.84 3 0.346 3 3.34 l -8 0 c 0 -2.994 3 -1.5 3 -3.34 c -0.617 -0.446 -0.999 -1.269 -1 -2.16 c 0 -1.381 0.895 -2.5 2 -2.5 z" style="fill:#505050;opacity:1;fill-opacity:1;stroke:none"/>
 <path d="m 13 25 c -1.108 0 -2 0.892 -2 2 l 0 8 c 0 1.108 0.892 2 2 2 l 8 0 c 1.108 0 2 -0.892 2 -2 l 0 -8 c 0 -1.108 -0.892 -2 -2 -2 l -8 0 z m 3 2 c 0.351 0 0.696 0.093 1 0.27 c 0.304 -0.176 0.649 -0.269 1 -0.27 c 1.105 0 2 0.895 2 2 c -0.001 0.048 -0.004 0.096 -0.008 0.145 c 0.759 0.303 1.258 1.038 1.258 1.855 c 0 0.817 -0.498 1.552 -1.256 1.855 c 0.004 0.048 0.006 0.096 0.006 0.145 c 0 1.105 -0.895 2 -2 2 c -0.351 0 -0.696 -0.093 -1 -0.27 c -0.304 0.176 -0.649 0.269 -1 0.27 c -1.105 0 -2 -0.895 -2 -2 c 0.001 -0.048 0.004 -0.096 0.008 -0.145 c -0.759 -0.303 -1.258 -1.038 -1.258 -1.855 c 0 -0.817 0.498 -1.552 1.256 -1.855 c -0.004 -0.048 -0.006 -0.096 -0.006 -0.145 c 0 -1.105 0.895 -2 2 -2 z m 1 2 c -1.105 0 -2 0.895 -2 2 c 0 1.105 0.895 2 2 2 c 1.105 0 2 -0.895 2 -2 c 0 -1.105 -0.895 -2 -2 -2 z" style="fill:#e04cb4;opacity:1;fill-opacity:1;stroke:none"/>
</svg>
