<svg xmlns="http://www.w3.org/2000/svg" viewBox="0 0 48.000001 48.000001">
 <defs>
  <linearGradient id="linearGradient3764-4" x1="1" x2="47" gradientUnits="userSpaceOnUse" gradientTransform="matrix(0,-1,1,0,-1e-6,1052.3622)">
   <stop style="stop-color:#cde9f5;stop-opacity:1"/>
   <stop offset="1" style="stop-color:#def0f8;stop-opacity:1"/>
  </linearGradient>
 </defs>
 <g transform="translate(0,-1004.3622)">
  <g transform="translate(0,1004.3622)">
   <path d="m 36.31,5 c 5.859,4.062 9.688,10.831 9.688,18.5 0,12.426 -10.07,22.5 -22.5,22.5 -7.669,0 -14.438,-3.828 -18.5,-9.688 1.037,1.822 2.306,3.499 3.781,4.969 4.085,3.712 9.514,5.969 15.469,5.969 12.703,0 23,-10.298 23,-23 0,-5.954 -2.256,-11.384 -5.969,-15.469 C 39.81,7.306 38.132,6.037 36.31,5 Z m 4.969,3.781 c 3.854,4.113 6.219,9.637 6.219,15.719 0,12.703 -10.297,23 -23,23 -6.081,0 -11.606,-2.364 -15.719,-6.219 4.16,4.144 9.883,6.719 16.219,6.719 12.703,0 23,-10.298 23,-23 0,-6.335 -2.575,-12.06 -6.719,-16.219 z" style="opacity:0.05"/>
   <path d="m 41.28 8.781 c 3.712 4.085 5.969 9.514 5.969 15.469 0 12.703 -10.297 23 -23 23 -5.954 0 -11.384 -2.256 -15.469 -5.969 4.113 3.854 9.637 6.219 15.719 6.219 12.703 0 23 -10.298 23 -23 0 -6.081 -2.364 -11.606 -6.219 -15.719 z" style="opacity:0.1"/>
   <path d="M 31.25,2.375 C 39.865,5.529 46,13.792 46,23.505 c 0,12.426 -10.07,22.5 -22.5,22.5 -9.708,0 -17.971,-6.135 -21.12,-14.75 a 23,23 0 0 0 44.875,-7 23,23 0 0 0 -16,-21.875 z" style="opacity:0.2"/>
  </g>
  <path d="m 24 1005.36 c 12.703 0 23 10.297 23 23 0 12.703 -10.297 23 -23 23 -12.703 0 -23 -10.297 -23 -23 0 -12.703 10.297 -23 23 -23 z" style="fill:url(#linearGradient3764-4);fill-opacity:1"/>
  <g transform="translate(0,1004.3622)">
   <path d="m 40.03,7.531 c 3.712,4.084 5.969,9.514 5.969,15.469 0,12.703 -10.297,23 -23,23 C 17.045,46 11.615,43.744 7.53,40.031 11.708,44.322 17.54,47 23.999,47 c 12.703,0 23,-10.298 23,-23 0,-6.462 -2.677,-12.291 -6.969,-16.469 z" style="opacity:0.1"/>
  </g>
  <g transform="matrix(0.76470588,0,0,0.82608696,6.6470588,178.93255)" style="fill:#000;opacity:0.1;fill-opacity:1">
   <path d="m 15 15 c 0 0 -1.142 5.403 -1.52 10.139 0.197 -0.03 0.409 -0.076 0.652 -0.164 0.982 -0.353 2.077 -1.407 3.248 -2.492 0.061 -0.056 0.126 -0.112 0.188 -0.168 c -0.22 -0.326 -0.526 -0.697 -0.953 -1.105 -1.565 -1.497 -0.615 -5.709 -0.615 -5.709 m 19 -0.5 -1 0.5 c 0 0 0.95 4.212 -0.615 5.709 -0.427 0.409 -0.734 0.779 -0.953 1.105 0.061 0.056 0.127 0.112 0.188 0.168 1.171 1.085 2.267 2.139 3.248 2.492 0.243 0.088 0.455 0.134 0.652 0.164 c -0.378 -4.736 -1.52 -10.139 -1.52 -10.139 m -12.961 5.756 c -0.173 -0.008 -0.336 0 -0.48 0.027 -2.822 0.531 -4.97 4.131 -7.264 4.957 c -1.451 0.523 -2.295 -0.24 -2.295 -0.24 c 0 0 0.766 1.889 2.295 2.715 2.065 1.115 4.626 1.358 6.881 0.826 c 1.452 -0.342 3.824 -2.061 3.824 -2.061 c 0 0 2.372 1.697 3.824 2.039 2.255 0.532 4.816 0.31 6.881 -0.805 c 1.529 -0.826 2.295 -2.715 2.295 -2.715 c 0 0 -0.844 0.763 -2.295 0.24 c -2.294 -0.826 -4.442 -4.427 -7.264 -4.957 -1.158 -0.218 -3.441 0.867 -3.441 0.867 c 0 0 -1.748 -0.84 -2.961 -0.894 z m -8.65 7.658 c 0.023 0.724 0.085 1.395 0.205 1.982 0.368 1.806 1.148 2.477 2.283 2.934 c 0.959 0.386 3.123 0.67 3.123 0.67 -0.982 -1.408 -0.585 -2.593 0 -4 -1.755 0.056 -3.379 -0.298 -4.932 -1.137 -0.247 -0.133 -0.47 -0.288 -0.68 -0.449 m 23.22 0 c -0.21 0.161 -0.433 0.316 -0.68 0.449 c -1.553 0.839 -3.179 1.193 -4.934 1.137 c 0.585 1.407 0.982 2.591 0 4 0 0 2.166 -0.284 3.125 -0.67 1.135 -0.457 1.914 -1.128 2.281 -2.934 0.12 -0.587 0.184 -1.258 0.207 -1.982 z" transform="matrix(1.3076923,0,0,1.2105263,-8.6923077,999.20431)" style="fill:#000;stroke:none;fill-rule:evenodd"/>
  </g>
  <g transform="matrix(0.76470588,0,0,0.82608696,5.6470588,177.93256)">
   <path d="m 35.769 13.605 c 0 0 1.242 5.099 -0.804 6.911 -0.559 0.495 -0.959 0.943 -1.246 1.338 0.08 0.068 0.165 0.135 0.244 0.203 1.531 1.314 2.965 2.59 4.248 3.02 0.318 0.106 0.596 0.161 0.854 0.197 c -0.494 -5.733 -1.988 -12.272 -1.988 -12.272 m 2.109 16.238 c -0.274 0.195 -0.566 0.382 -0.889 0.543 -2.031 1.015 -4.156 1.445 -6.451 1.377 0.765 1.703 1.285 3.137 0 4.842 0 0 2.832 -0.344 4.085 -0.811 1.484 -0.553 2.504 -1.365 2.984 -3.551 0.156 -0.711 0.24 -1.524 0.27 -2.4 z" transform="translate(0,1004.3622)" style="fill:#3383c1;fill-opacity:1;stroke:none;fill-rule:evenodd"/>
   <path d="m 19.5 1024.36 c -3.774 0.621 -6.5 5 -9.5 6 -1.897 0.632 -3 -0.29 -3 -0.29 0 0 1 2.286 3 3.286 2.7 1.35 6.05 1.644 9 1 1.899 -0.414 5 -2.495 5 -2.495 0 0 3.101 2.056 5 2.47 2.949 0.644 6.3 0.374 9 -0.976 2 -1 3 -3.286 3 -3.286 0 0 -1.103 0.922 -3 0.29 -3 -1 -5.726 -5.379 -9.5 -6 -1.523 -0.251 -4.5 1.05 -4.5 1.05 0 0 -2.977 -1.3 -4.5 -1.05 z" style="fill:#3383c1;fill-opacity:1;stroke:none;fill-rule:evenodd"/>
   <path d="m 12.231 1017.97 c 0 0 -1.242 5.098 0.804 6.911 0.559 0.495 0.959 0.943 1.246 1.338 -0.08 0.068 -0.165 0.135 -0.244 0.203 -1.531 1.314 -2.965 2.59 -4.248 3.02 -0.318 0.106 -0.596 0.161 -0.854 0.197 0.494 -5.733 1.988 -12.272 1.988 -12.272 z m -3.416 15.633 c 0.274 0.195 0.566 0.382 0.889 0.543 2.031 1.015 4.156 1.445 6.451 1.377 -0.765 1.703 -1.285 3.137 0 4.842 0 0 -2.832 -0.344 -4.085 -0.811 -1.484 -0.553 -2.504 -1.365 -2.984 -3.551 -0.156 -0.711 -0.24 -1.524 -0.27 -2.4 z" style="fill:#3383c1;fill-opacity:1;stroke:none;fill-rule:evenodd"/>
  </g>
 </g>
</svg>
