<svg version="1.1" viewBox="0 0 48 48" xmlns="http://www.w3.org/2000/svg">
 <defs>
  <linearGradient id="bg" x2="0" y1="1" y2="47" gradientUnits="userSpaceOnUse">
   <stop style="stop-color:#2558a2" offset="0"/>
   <stop style="stop-color:#214e90" offset="1"/>
  </linearGradient>
 </defs>
 <path d="m36.3 5c5.86 4.06 9.69 10.8 9.69 18.5 0 12.4-10.1 22.5-22.5 22.5-7.67 0-14.4-3.83-18.5-9.69 1.04 1.82 2.31 3.5 3.78 4.97 4.08 3.71 9.51 5.97 15.5 5.97 12.7 0 23-10.3 23-23 0-5.95-2.26-11.4-5.97-15.5-1.47-1.48-3.15-2.74-4.97-3.78zm4.97 3.78c3.85 4.11 6.22 9.64 6.22 15.7 0 12.7-10.3 23-23 23-6.08 0-11.6-2.36-15.7-6.22 4.16 4.14 9.88 6.72 16.2 6.72 12.7 0 23-10.3 23-23 0-6.34-2.58-12.1-6.72-16.2z" style="opacity:.05"/>
 <path d="m41.3 8.78c3.71 4.08 5.97 9.51 5.97 15.5 0 12.7-10.3 23-23 23-5.95 0-11.4-2.26-15.5-5.97 4.11 3.85 9.64 6.22 15.7 6.22 12.7 0 23-10.3 23-23 0-6.08-2.36-11.6-6.22-15.7z" style="opacity:.1"/>
 <path d="m31.2 2.38c8.62 3.15 14.8 11.4 14.8 21.1 0 12.4-10.1 22.5-22.5 22.5-9.71 0-18-6.14-21.1-14.8a23 23 0 0 0 44.9-7 23 23 0 0 0-16-21.9z" style="opacity:.2"/>
 <circle cx="24" cy="24" r="23" style="fill:url(#bg)"/>
 <path d="m25 10a15 15 0 0 0-15 15 15 15 0 0 0 15 15 15 15 0 0 0 15-15 15 15 0 0 0-15-15zm0 13a2 2 0 0 1 2 2 2 2 0 0 1-2 2 2 2 0 0 1-2-2 2 2 0 0 1 2-2z" style="opacity:.1"/>
 <path d="m40 7.53c3.71 4.08 5.97 9.51 5.97 15.5 0 12.7-10.3 23-23 23-5.95 0-11.4-2.26-15.5-5.97 4.18 4.29 10 6.97 16.5 6.97 12.7 0 23-10.3 23-23 0-6.46-2.68-12.3-6.97-16.5z" style="opacity:.1"/>
 <path d="m24 9a15 15 0 0 0-15 15 15 15 0 0 0 15 15 15 15 0 0 0 15-15 15 15 0 0 0-15-15zm0 12a3 3 0 0 1 3 3 3 3 0 0 1-3 3 3 3 0 0 1-3-3 3 3 0 0 1 3-3z" style="fill:#e1e1e1"/>
 <path d="m24 9v12l0.775 0.105 3.11-11.6c-1.28-0.345-2.59-0.481-3.88-0.518zm-0.775 17.9-3.11 11.6c1.28 0.345 2.59 0.481 3.88 0.518v-12z" style="fill:#ecc1ec"/>
 <path d="m34.6 13.4-8.48 8.48 0.598 0.852 10.9-5.06c-0.72-1.62-1.79-3.01-2.98-4.27zm-13.3 11.9-10.9 5.06c0.722 1.62 1.79 3.01 2.98 4.27l8.48-8.48z" style="fill:#eaeaea"/>
 <path d="m9.52 20.1c-0.0513 0.208-0.0982 0.417-0.141 0.627-0.0629 0.259-0.119 0.519-0.168 0.781-0.0298 0.21-0.0552 0.42-0.0762 0.631-0.0417 0.29-0.0749 0.581-0.0996 0.873-0.0215 0.322-0.0326 0.646-0.0332 0.969h12l0.105-0.775zm17.5 3.88-0.105 0.775 11.6 3.11c0.0514-0.208 0.0982-0.417 0.141-0.627 0.0629-0.259 0.119-0.519 0.168-0.781 0.0298-0.21 0.0552-0.42 0.0762-0.631 0.0417-0.29 0.0749-0.581 0.0996-0.873 0.0215-0.322 0.0326-0.646 0.0332-0.969z" style="fill:#c2c2c2"/>
 <path d="m13.4 13.4c-0.0301 0.0279-0.06 0.0559-0.0898 0.084-1.84 1.82-2.96 4.09-3.76 6.48-0.00393 0.0143-0.00783 0.0286-0.0117 0.043-0.0086 0.0371-0.0171 0.0742-0.0254 0.111l11.6 3.11 0.775-1.34zm13.5 11.4-0.775 1.34 8.48 8.48c0.0301-0.0272 0.06-0.0546 0.0898-0.082 1.83-1.83 2.97-4.08 3.76-6.48l0.0078-0.0234 0.0039-0.0195c0.0086-0.0371 0.0171-0.0742 0.0254-0.111z" style="fill:#efefef"/>
 <path d="m24 20a4 4 0 0 0-4 4 4 4 0 0 0 4 4 4 4 0 0 0 4-4 4 4 0 0 0-4-4zm0 2a2 2 0 0 1 2 2 2 2 0 0 1-2 2 2 2 0 0 1-2-2 2 2 0 0 1 2-2z" style="fill:#bababa"/>
 <path d="m28 23v9.04c-0.165-0.0264-0.332-0.0391-0.5-0.0391-1.38 3.95e-4 -2.5 0.895-2.5 2s1.12 2 2.5 2 2.5-0.895 2.5-2v-8h5v5.04c-0.165-0.0264-0.332-0.0391-0.5-0.0391-1.38 3.95e-4 -2.5 0.895-2.5 2 0 1.02 0.961 1.85 2.2 1.97a15 15 0 0 0 2.8-3.53v-8.45h-9z" style="fill:#1a1a1a;opacity:.1"/>
 <path d="m27 22v9.04c-0.165-0.0264-0.332-0.0391-0.5-0.0391-1.38 3.95e-4 -2.5 0.895-2.5 2s1.12 2 2.5 2 2.5-0.895 2.5-2v-8h5v5.04c-0.165-0.0264-0.332-0.0391-0.5-0.0391-1.38 3.95e-4 -2.5 0.895-2.5 2s1.12 2 2.5 2 2.5-0.895 2.5-2v-10z" style="fill:#134690"/>
</svg>
