<svg xmlns="http://www.w3.org/2000/svg" viewBox="0 0 48 48">
 <defs>
  <linearGradient id="linearGradient3764" x1="1" x2="47" gradientUnits="userSpaceOnUse" gradientTransform="matrix(0,-1,1,0,-1.5e-6,47.999998)">
   <stop style="stop-color:#3d3d3d;stop-opacity:1"/>
   <stop offset="1" style="stop-color:#474747;stop-opacity:1"/>
  </linearGradient>
 </defs>
 <g>
  <path d="m 36.31 5 c 5.859 4.062 9.688 10.831 9.688 18.5 c 0 12.426 -10.07 22.5 -22.5 22.5 c -7.669 0 -14.438 -3.828 -18.5 -9.688 c 1.037 1.822 2.306 3.499 3.781 4.969 c 4.085 3.712 9.514 5.969 15.469 5.969 c 12.703 0 23 -10.298 23 -23 c 0 -5.954 -2.256 -11.384 -5.969 -15.469 c -1.469 -1.475 -3.147 -2.744 -4.969 -3.781 z m 4.969 3.781 c 3.854 4.113 6.219 9.637 6.219 15.719 c 0 12.703 -10.297 23 -23 23 c -6.081 0 -11.606 -2.364 -15.719 -6.219 c 4.16 4.144 9.883 6.719 16.219 6.719 c 12.703 0 23 -10.298 23 -23 c 0 -6.335 -2.575 -12.06 -6.719 -16.219 z" style="opacity:0.05"/>
  <path d="m 41.28 8.781 c 3.712 4.085 5.969 9.514 5.969 15.469 c 0 12.703 -10.297 23 -23 23 c -5.954 0 -11.384 -2.256 -15.469 -5.969 c 4.113 3.854 9.637 6.219 15.719 6.219 c 12.703 0 23 -10.298 23 -23 c 0 -6.081 -2.364 -11.606 -6.219 -15.719 z" style="opacity:0.1"/>
  <path d="m 31.25 2.375 c 8.615 3.154 14.75 11.417 14.75 21.13 c 0 12.426 -10.07 22.5 -22.5 22.5 c -9.708 0 -17.971 -6.135 -21.12 -14.75 a 23 23 0 0 0 44.875 -7 a 23 23 0 0 0 -16 -21.875 z" style="opacity:0.2"/>
 </g>
 <g>
  <path d="m 24 1 c 12.703 0 23 10.297 23 23 c 0 12.703 -10.297 23 -23 23 -12.703 0 -23 -10.297 -23 -23 0 -12.703 10.297 -23 23 -23 z" style="fill:url(#linearGradient3764);fill-opacity:1"/>
 </g>
 <g>
  <g>
   <g transform="translate(1,1)">
    <g style="opacity:0.1">
     <!-- color: #474747 -->
     <g>
      <path d="m 14.434 17.01 c -2.9 0.117 -1.202 5.081 3.324 10.04 c -3.185 6.984 4.832 7.822 6.811 2.521 c 0.126 0.854 0.28 1.452 0.436 1.439 c 0.152 -0.013 0.303 -0.598 0.428 -1.43 c 1.985 5.291 9.991 4.449 6.809 -2.531 c 7.156 -7.848 7.215 -15.661 -6.758 -4.355 c -0.035 -0.155 -0.074 -0.296 -0.119 -0.418 c 0.941 -0.688 1.064 -1.371 0.148 -1.545 c 0.551 -2.43 3.143 -3.148 3.143 -3.148 a 0.076 0.076 0 0 0 -0.027 -0.148 a 0.076 0.076 0 0 0 -0.012 0.002 c 0 0 -2.69 0.746 -3.254 3.275 c -0.111 -0.013 -0.222 -0.025 -0.357 -0.025 c -0.139 0 -0.253 0.013 -0.365 0.027 c -0.563 -2.531 -3.254 -3.277 -3.254 -3.277 a 0.076 0.076 0 0 0 -0.031 -0.002 a 0.076 0.076 0 0 0 -0.01 0.148 c 0 0 2.595 0.719 3.145 3.15 c -0.906 0.177 -0.782 0.857 0.152 1.543 c -0.045 0.123 -0.086 0.265 -0.121 0.422 c -5.137 -4.157 -8.401 -5.761 -10.09 -5.693 z" transform="translate(-1,-1)" style="fill:#000;fill-opacity:1;stroke:none;fill-rule:evenodd"/>
     </g>
    </g>
   </g>
  </g>
 </g>
 <g>
  <g>
   <!-- color: #474747 -->
   <g>
    <path d="m 31.24 26.05 c 3.621 7.941 -7.242 7.941 -7.242 0 c 0 0 0 0 0 -3.973 c 14.484 -11.91 14.484 -3.969 7.242 3.973 m 0 0" style="fill:#f9b928;fill-opacity:1;stroke:none;fill-rule:evenodd"/>
    <path d="m 24.363 21.277 c 0.727 1.984 0.176 8.688 -0.359 8.734 c -0.535 0.043 -1.086 -6.75 -0.363 -8.734 c -1.086 -0.797 -1.086 -1.59 0.363 -1.59 c 1.449 0 1.449 0.793 0.359 1.59 m 0 0" style="fill:#f9b928;fill-opacity:1;stroke:none;fill-rule:evenodd"/>
    <path d="m 16.758 26.05 c -3.621 7.941 7.242 7.941 7.242 0 c 0 0 0 0 0 -3.973 c -14.484 -11.91 -14.484 -3.969 -7.242 3.973 m 0 0" style="fill:#f9b928;fill-opacity:1;stroke:none;fill-rule:evenodd"/>
    <path d="m -43.37 149.81 c 0.363 -2.777 3.27 -3.574 3.27 -3.574" transform="matrix(1,0,0,1,67.734998,-129.724261)" style="stroke-opacity:1;fill:none;stroke-miterlimit:4;stroke:#f9b928;stroke-linecap:round;stroke-linejoin:miter;stroke-width:0.152"/>
    <path d="m -44.1 149.81 c -0.363 -2.777 -3.27 -3.574 -3.27 -3.574" transform="matrix(1,0,0,1,67.734998,-129.724261)" style="stroke-opacity:1;fill:none;stroke-miterlimit:4;stroke:#f9b928;stroke-linecap:round;stroke-linejoin:miter;stroke-width:0.152"/>
   </g>
  </g>
 </g>
 <g>
  <path d="m 40.03 7.531 c 3.712 4.084 5.969 9.514 5.969 15.469 0 12.703 -10.297 23 -23 23 c -5.954 0 -11.384 -2.256 -15.469 -5.969 4.178 4.291 10.01 6.969 16.469 6.969 c 12.703 0 23 -10.298 23 -23 0 -6.462 -2.677 -12.291 -6.969 -16.469 z" style="opacity:0.1"/>
 </g>
</svg>
