<svg xmlns="http://www.w3.org/2000/svg" viewBox="0 0 48 48">
 <defs>
  <linearGradient id="linearGradient4190" x1="1" x2="47" gradientUnits="userSpaceOnUse">
   <stop style="stop-color:#ffcf7f;stop-opacity:1"/>
   <stop offset="1" style="stop-color:#ffd793;stop-opacity:1"/>
  </linearGradient>
 </defs>
 <g>
  <path d="m 36.31 5 c 5.859 4.062 9.688 10.831 9.688 18.5 c 0 12.426 -10.07 22.5 -22.5 22.5 c -7.669 0 -14.438 -3.828 -18.5 -9.688 c 1.037 1.822 2.306 3.499 3.781 4.969 c 4.085 3.712 9.514 5.969 15.469 5.969 c 12.703 0 23 -10.298 23 -23 c 0 -5.954 -2.256 -11.384 -5.969 -15.469 c -1.469 -1.475 -3.147 -2.744 -4.969 -3.781 z m 4.969 3.781 c 3.854 4.113 6.219 9.637 6.219 15.719 c 0 12.703 -10.297 23 -23 23 c -6.081 0 -11.606 -2.364 -15.719 -6.219 c 4.16 4.144 9.883 6.719 16.219 6.719 c 12.703 0 23 -10.298 23 -23 c 0 -6.335 -2.575 -12.06 -6.719 -16.219 z" style="opacity:0.05"/>
  <path d="m 41.28 8.781 c 3.712 4.085 5.969 9.514 5.969 15.469 c 0 12.703 -10.297 23 -23 23 c -5.954 0 -11.384 -2.256 -15.469 -5.969 c 4.113 3.854 9.637 6.219 15.719 6.219 c 12.703 0 23 -10.298 23 -23 c 0 -6.081 -2.364 -11.606 -6.219 -15.719 z" style="opacity:0.1"/>
  <path d="m 31.25 2.375 c 8.615 3.154 14.75 11.417 14.75 21.13 c 0 12.426 -10.07 22.5 -22.5 22.5 c -9.708 0 -17.971 -6.135 -21.12 -14.75 a 23 23 0 0 0 44.875 -7 a 23 23 0 0 0 -16 -21.875 z" style="opacity:0.2"/>
 </g>
 <g transform="matrix(0,-1,1,0,0,48)" style="fill:url(#linearGradient4190);fill-opacity:1">
  <path d="M 24,1 C 36.703,1 47,11.297 47,24 47,36.703 36.703,47 24,47 11.297,47 1,36.703 1,24 1,11.297 11.297,1 24,1 Z"/>
 </g>
 <path d="m 25 12 -0.506 2.02 a 12 10 0 0 0 -3.66 0.613 c -0.061 -0.403 -0.143 -0.681 -0.258 -0.668 -0.125 0.014 -0.221 0.373 -0.301 0.842 a 12 10 0 0 0 -2.805 1.416 l -0.723 -0.824 -0.076 1.416 a 12 10 0 0 0 -3.672 7.184 a 12 3 0 0 0 1.33 1.365 c -0.017 0.692 -0.059 2.191 -0.059 2.191 l -0.006 0.191 1.424 1.668 c -0.283 1.984 -0.551 3.947 -0.551 3.947 l -0.061 0.445 5.531 1.375 0.076 0.088 0.119 -0.041 1.057 0.264 0.305 -0.723 1.285 -0.436 -0.32 -0.947 -0.447 0.152 1.068 -2.539 -0.922 -0.389 -1.412 3.355 -0.41 0.139 -0.182 -0.213 c 0.058 0.031 0.117 0.078 0.174 0.105 -0.621 -1.962 -1.069 -4.843 0.293 -7.15 a 12 3 0 0 0 3.707 0.15 12 3 0 0 0 4.654 -0.234 c 1.349 2.199 1.012 4.928 0.438 6.9 l -0.25 0.191 -3.973 -0.088 -0.426 -4.412 -0.996 0.096 0.512 5.295 3.609 0.08 -3.494 2.664 0.605 0.795 4.49 -3.424 3.924 0.088 -0.898 -8.766 a 12 3 0 0 0 3.805 -2.186 12 10 0 0 0 -4.705 -7.932 c -0.086 -1.019 -0.21 -1.962 -0.48 -2.611 -0.216 0.323 -0.388 1.113 -0.545 2.027 a 12 10 0 0 0 -2.01 -0.828 l 0.012 -0.982 -0.66 0.803 a 12 10 0 0 0 -3.107 -0.461 l -0.504 -2.02 m -9.682 13.768 a 12 3 0 0 0 0.877 0.266 c -0.019 0.118 -0.034 0.196 -0.055 0.328 -0.076 0.486 -0.169 1.136 -0.258 1.742 l -0.607 -0.711 c 0.006 -0.189 0.025 -0.958 0.043 -1.625 z m 1.852 0.5 a 12 3 0 0 0 1.412 0.266 c -0.465 2.127 -0.283 3.769 0.211 4.98 l -2.049 -2.4 c 0.135 -0.934 0.273 -1.878 0.385 -2.598 0.016 -0.101 0.026 -0.155 0.041 -0.248 z m -0.613 4.166 2.938 3.441 -3.303 -0.818 c 0.036 -0.266 0.208 -1.504 0.365 -2.623 z m 15.402 1.611 0.016 0.186 -0.229 0.174 c 0.074 -0.114 0.145 -0.234 0.213 -0.359 z m 0.908 0.762 0.115 1.121 -1.541 -0.033 1.426 -1.088 z" style="fill:#000;opacity:0.1;fill-opacity:1;stroke:none;fill-rule:evenodd"/>
 <g>
  <path d="m 40.03 7.531 c 3.712 4.084 5.969 9.514 5.969 15.469 0 12.703 -10.297 23 -23 23 c -5.954 0 -11.384 -2.256 -15.469 -5.969 4.178 4.291 10.01 6.969 16.469 6.969 c 12.703 0 23 -10.298 23 -23 0 -6.462 -2.677 -12.291 -6.969 -16.469 z" style="opacity:0.1"/>
 </g>
 <path d="m 26.962 14.263 1.309 -1.589 -0.025 2.225 -1.258 -0.559 z" style="fill:#777;fill-opacity:1;stroke:none;fill-rule:evenodd"/>
 <path d="m 15.604 17.1 1.942 -0.647 -1.798 -2.049 z" style="fill:#777;fill-opacity:1;stroke:none;fill-rule:evenodd"/>
 <path d="m 20 33 c -0.803 -2.539 -1.33 -6.62 2 -9 l -4 0 c -1.797 5.403 0.264 8.178 2 9 z" style="fill:#777;opacity:1;fill-opacity:1;stroke:none;fill-rule:evenodd"/>
 <path d="m 13.342 23.91 c 0 0.204 -0.07 2.646 -0.07 2.646 l -0.006 0.191 6.42 7.523 2.766 -0.936 -0.32 -0.947 -2.123 0.719 -5.732 -6.715 c 0.009 -0.289 0.066 -2.138 0.066 -2.482 l -1 0 z" mix-blend-mode="normal" isolation="auto" white-space="normal" solid-opacity="1" solid-color="#000000" style="visibility:visible;shape-rendering:auto;color-interpolation-filters:linearRGB;fill:#ae4848;opacity:1;image-rendering:auto;fill-opacity:1;stroke:none;display:inline;color:#000;fill-rule:evenodd;color-rendering:auto;color-interpolation:sRGB"/>
 <path d="m 15.457 23.77 c -0.059 0.104 -0.052 0.125 -0.063 0.162 -0.001 0.037 -0.02 0.073 -0.029 0.115 -0.018 0.085 -0.038 0.189 -0.061 0.316 -0.045 0.254 -0.101 0.596 -0.164 0.998 -0.125 0.804 -0.279 1.85 -0.428 2.887 -0.297 2.074 -0.574 4.115 -0.574 4.115 l -0.061 0.445 6.783 1.686 1.891 -4.492 -0.922 -0.389 -1.559 3.703 -5.08 -1.26 c 0.051 -0.372 0.247 -1.82 0.512 -3.666 0.148 -1.035 0.302 -2.078 0.426 -2.875 0.062 -0.398 0.117 -0.734 0.16 -0.975 0.021 -0.12 0.039 -0.217 0.053 -0.279 0.007 -0.031 0.013 -0.056 0.016 -0.064 0.002 -0.008 0.019 -0.02 -0.031 0.068 l -0.869 -0.496 z" mix-blend-mode="normal" isolation="auto" white-space="normal" solid-opacity="1" solid-color="#000000" style="visibility:visible;shape-rendering:auto;color-interpolation-filters:linearRGB;fill:#bd5959;opacity:1;image-rendering:auto;fill-opacity:1;stroke:none;display:inline;color:#000;fill-rule:evenodd;color-rendering:auto;color-interpolation:sRGB"/>
 <path d="m 29 33 c 0.803 -2.539 1.33 -6.62 -2 -9 l 4 0 c 1.797 5.403 -0.264 8.178 -2 9 z" style="fill:#777;opacity:1;fill-opacity:1;stroke:none;fill-rule:evenodd"/>
 <path d="m 32.07 23.932 -0.996 0.102 0.912 8.895 -7.113 -0.158 -0.426 -4.412 -0.996 0.096 0.512 5.295 9.135 0.203 -1.027 -10.02 z" mix-blend-mode="normal" isolation="auto" white-space="normal" solid-opacity="1" solid-color="#000000" style="visibility:visible;shape-rendering:auto;color-interpolation-filters:linearRGB;fill:#bd5959;opacity:1;image-rendering:auto;fill-opacity:1;stroke:none;display:inline;color:#000;fill-rule:evenodd;color-rendering:auto;color-interpolation:sRGB"/>
 <path d="m 31.348 24.12 -0.996 0.09 0.623 7.02 -6.9 5.262 0.605 0.795 7.34 -5.596 -0.672 -7.574 z" mix-blend-mode="normal" isolation="auto" white-space="normal" solid-opacity="1" solid-color="#000000" style="visibility:visible;shape-rendering:auto;color-interpolation-filters:linearRGB;fill:#ae4848;opacity:1;image-rendering:auto;fill-opacity:1;stroke:none;display:inline;color:#000;fill-rule:evenodd;color-rendering:auto;color-interpolation:sRGB"/>
 <path d="M 24 13 A 12 10 0 0 0 12 23 A 12 3 0 0 0 24 26 A 12 3 0 0 0 36 23 A 12 10 0 0 0 24 13 z" style="fill:#9b653c;opacity:1;fill-opacity:1;stroke:none;fill-rule:nonzero"/>
 <path d="m 29.695 18.05 c 0.366 -1.93 0.632 -4.866 1.119 -5.593 0.604 1.452 0.521 4.279 0.763 6.458 z" style="fill:#777;fill-opacity:1;stroke:none;fill-rule:evenodd"/>
 <path d="m 19 17 1 0 c 0 0 0.015 -4.084 -0.424 -4.03 c -0.439 0.05 -0.576 4.03 -0.576 4.03" style="fill:#777;fill-opacity:1;stroke:none;fill-rule:evenodd"/>
 <path d="m 23 15 1 -4 1 4 z" style="fill:#777;fill-opacity:1;stroke:none;fill-rule:evenodd"/>
 <circle cx="24" cy="22" r="3" style="fill:#591407;opacity:1;fill-opacity:1;stroke:none;fill-rule:nonzero"/>
 <circle cx="24" cy="22" r="2" style="fill:#ffff1c;opacity:1;fill-opacity:1;stroke:none;fill-rule:nonzero"/>
 <circle cx="24" cy="22" r="1" style="fill:#353535;opacity:1;fill-opacity:1;stroke:none;fill-rule:nonzero"/>
 <path d="m 16.02 22.762 c 5.205 -2.536 10.394 -3.673 15.532 0.025 -2.616 -2.381 -6.706 -3.824 -7.365 -7.45 -1.468 4.715 -5.249 5.299 -8.167 7.425 z" style="fill:#6e4a2a;opacity:1;fill-opacity:1;stroke:none;fill-rule:evenodd"/>
</svg>
