<svg xmlns="http://www.w3.org/2000/svg" viewBox="0 0 48 48">
 <defs>
  <linearGradient id="linearGradient3764" x1="1" x2="47" gradientUnits="userSpaceOnUse" gradientTransform="matrix(0,-1,1,0,-1.5e-6,47.999998)">
   <stop style="stop-color:#e4e4e4;stop-opacity:1"/>
   <stop offset="1" style="stop-color:#eee;stop-opacity:1"/>
  </linearGradient>
 </defs>
 <g>
  <path d="m 36.31 5 c 5.859 4.062 9.688 10.831 9.688 18.5 c 0 12.426 -10.07 22.5 -22.5 22.5 c -7.669 0 -14.438 -3.828 -18.5 -9.688 c 1.037 1.822 2.306 3.499 3.781 4.969 c 4.085 3.712 9.514 5.969 15.469 5.969 c 12.703 0 23 -10.298 23 -23 c 0 -5.954 -2.256 -11.384 -5.969 -15.469 c -1.469 -1.475 -3.147 -2.744 -4.969 -3.781 z m 4.969 3.781 c 3.854 4.113 6.219 9.637 6.219 15.719 c 0 12.703 -10.297 23 -23 23 c -6.081 0 -11.606 -2.364 -15.719 -6.219 c 4.16 4.144 9.883 6.719 16.219 6.719 c 12.703 0 23 -10.298 23 -23 c 0 -6.335 -2.575 -12.06 -6.719 -16.219 z" style="opacity:0.05"/>
  <path d="m 41.28 8.781 c 3.712 4.085 5.969 9.514 5.969 15.469 c 0 12.703 -10.297 23 -23 23 c -5.954 0 -11.384 -2.256 -15.469 -5.969 c 4.113 3.854 9.637 6.219 15.719 6.219 c 12.703 0 23 -10.298 23 -23 c 0 -6.081 -2.364 -11.606 -6.219 -15.719 z" style="opacity:0.1"/>
  <path d="m 31.25 2.375 c 8.615 3.154 14.75 11.417 14.75 21.13 c 0 12.426 -10.07 22.5 -22.5 22.5 c -9.708 0 -17.971 -6.135 -21.12 -14.75 a 23 23 0 0 0 44.875 -7 a 23 23 0 0 0 -16 -21.875 z" style="opacity:0.2"/>
 </g>
 <g>
  <path d="m 24 1 c 12.703 0 23 10.297 23 23 c 0 12.703 -10.297 23 -23 23 -12.703 0 -23 -10.297 -23 -23 0 -12.703 10.297 -23 23 -23 z" style="fill:url(#linearGradient3764);fill-opacity:1"/>
 </g>
 <g>
  <path d="m 40.03 7.531 c 3.712 4.084 5.969 9.514 5.969 15.469 0 12.703 -10.297 23 -23 23 c -5.954 0 -11.384 -2.256 -15.469 -5.969 4.178 4.291 10.01 6.969 16.469 6.969 c 12.703 0 23 -10.298 23 -23 0 -6.462 -2.677 -12.291 -6.969 -16.469 z" style="opacity:0.1"/>
 </g>
 <path d="m 25.462 9.994 c -2.917 0 -5.769 1.254 -8.223 3.121 1.86 -0.721 4.312 -1.074 7.533 -1.074 5.682 0 10.229 3.636 10.229 11.59 0 6.365 -5.683 11.592 -12.273 11.592 -6.136 0 -10.908 -4.092 -10.908 -10.91 0 -2.449 0.195 -4.508 0.732 -6.203 c -1.591 2.366 -2.551 4.862 -2.551 6.891 c 0 8.284 6.817 15 14.771 15 8.41 0 15.229 -6.716 15.229 -15 0 -8.284 -5.683 -15 -14.547 -15 l 0.008 -0.006 z m -1.961 4 -2.101 7.375 -5.899 2.125 5.899 2.125 2.101 7.375 2.125 -7.375 5.875 -2.125 -5.875 -2.125 z" style="fill:#000;opacity:0.1;fill-opacity:1;stroke:none"/>
 <path d="m 22.501 12.996 -2.101 7.375 -5.899 2.125 5.899 2.125 2.101 7.375 2.125 -7.375 5.875 -2.125 -5.875 -2.125 z" style="fill:#c2565a;opacity:1;fill-opacity:1;stroke:none"/>
 <path d="m 24.462 8.995 c -2.917 0 -5.77 1.255 -8.223 3.121 1.86 -0.721 4.313 -1.076 7.534 -1.076 5.682 0 10.226 3.637 10.227 11.591 0.001 6.365 -5.682 11.591 -12.273 11.591 -6.136 0 -10.909 -4.091 -10.909 -10.909 0 -2.449 0.195 -4.508 0.732 -6.203 -1.591 2.366 -2.55 4.857 -2.55 6.886 0 8.284 6.818 15 14.772 15 8.41 0 15.228 -6.716 15.228 -15 0 -8.284 -5.682 -15 -14.546 -15" style="fill:#3c6d8c;opacity:1;fill-opacity:1;stroke:none"/>
</svg>
