<svg version="1.1" viewBox="0 0 48 48" xmlns="http://www.w3.org/2000/svg">
 <defs>
  <linearGradient id="bg" x1="1" x2="47" gradientTransform="matrix(0 -1 1 0 -1.5e-6 48)" gradientUnits="userSpaceOnUse">
   <stop style="stop-color:#0cbe82" offset="0"/>
   <stop style="stop-color:#0dd18f" offset="1"/>
  </linearGradient>
 </defs>
 <path d="m36.31 5c5.859 4.062 9.688 10.831 9.688 18.5 0 12.426-10.07 22.5-22.5 22.5-7.669 0-14.438-3.828-18.5-9.688 1.037 1.822 2.306 3.499 3.781 4.969 4.085 3.712 9.514 5.969 15.469 5.969 12.703 0 23-10.298 23-23 0-5.954-2.256-11.384-5.969-15.469-1.469-1.475-3.147-2.744-4.969-3.781zm4.969 3.781c3.854 4.113 6.219 9.637 6.219 15.719 0 12.703-10.297 23-23 23-6.081 0-11.606-2.364-15.719-6.219 4.16 4.144 9.883 6.719 16.219 6.719 12.703 0 23-10.298 23-23 0-6.335-2.575-12.06-6.719-16.219z" style="opacity:.05"/>
 <path d="m41.28 8.781c3.712 4.085 5.969 9.514 5.969 15.469 0 12.703-10.297 23-23 23-5.954 0-11.384-2.256-15.469-5.969 4.113 3.854 9.637 6.219 15.719 6.219 12.703 0 23-10.298 23-23 0-6.081-2.364-11.606-6.219-15.719z" style="opacity:.1"/>
 <path d="m31.25 2.375c8.615 3.154 14.75 11.417 14.75 21.13 0 12.426-10.07 22.5-22.5 22.5-9.708 0-17.971-6.135-21.12-14.75a23 23 0 0 0 44.875-7 23 23 0 0 0-16-21.875z" style="opacity:.2"/>
 <path d="m24 1c12.703 0 23 10.297 23 23s-10.297 23-23 23-23-10.297-23-23 10.297-23 23-23z" style="fill:url(#bg)"/>
 <path d="m40.03 7.531c3.712 4.084 5.969 9.514 5.969 15.469 0 12.703-10.297 23-23 23-5.954 0-11.384-2.256-15.469-5.969 4.178 4.291 10.01 6.969 16.469 6.969 12.703 0 23-10.298 23-23 0-6.462-2.677-12.291-6.969-16.469z" style="opacity:.1"/>
 <path d="m25.002 9.998-2.0977 4.8965-8.0078 7.9922-4.8965 2.0605 4.9141 2.1406-3.9082 3.9082 4.8711 2e-3 -1.877 5 5.0039-1.875 0.0039 4.873 3.8945-3.8945 2.0996 4.8984 2.1016-4.9023 3.8965 3.9004v-4.877l5.0039 1.877-1.875-5 4.877-2e-3 -3.8887-3.8887 4.8867-2.0566-4.9121-2.1406 3.9141-3.9121h-4.877l1.875-5-5.002 1.877 2e-3 -4.877-3.9004 3.9004z" style="opacity:.1"/>
 <path d="m30 38-5.9941-6.0004-5.9988 5.9988-0.007086-7.9984-7.9937-0.002363 5.9988-5.9988-5.9988-5.9988 7.9937 1e-6 0.007086-8.0008 5.9988 5.9988 5.9988-5.9988-0.004724 8.0008 8.0055-1e-6 -5.9988 5.9988 5.9988 5.9988-8.0055 0.002363z" style="fill:#fe2164"/>
 <path d="m26.504 13.5-12.982 12.982 3.4805 1.5156-0.75 2.002h1.748l0.0039 4.498 3.998-1.5 0.30078 0.70508 1.7031-1.7031 3.0977 3.0996 0.90039-2.1016 1.9961 0.74805v-3.7461h3.7539l-0.75-2.002 2.1133-0.88867-3.1113-3.1113 1.6953-1.6953-0.69727-0.30273 1.5-4h-4.5039v-1.748l-1.9961 0.74805z" style="opacity:.1"/>
 <path d="m35.004 35.001-8.0008-3.0012-3.0012 7.0016-3.0012-7.0016-8.0008 3.0012 3.0012-8.0008-7.0016-3.0508 7.0016-2.948-3.0012-8.0008 8.0008 3.0012 3.0012-7.0016 3.0012 7.0016 8.0008-3.0012-3.0012 8.0008 7.0016 3.0508-7.0016 2.948z" style="fill:#f37aa7"/>
 <path d="m24.402 17.021-7.4023 7.9785c0.0058 5.0794 4.6824 8.8675 9.6523 7.8184l0.35156-0.81836 1.0371 0.38867c1.9731-0.81809 3.5372-2.3913 4.3438-4.3691l-0.38281-1.0195 0.80078-0.33789c0.12369-0.54562 0.18981-1.1027 0.19727-1.6621 5.07e-4 -4.6541-3.9624-8.3967-8.5977-7.9785z" style="opacity:.1"/>
 <path d="m32 24a8 8 0 0 1-16 0 8 8 0 1 1 16 0z" style="fill:#ffe029"/>
 <path d="m23 20c-1.662 0-3 1.338-3 3s1.338 3 3 3h0.5c0.277 0 0.5-0.223 0.5-0.5s-0.223-0.5-0.5-0.5h-0.5c-1.108 0-2-0.892-2-2s0.892-2 2-2c1.8764 0 3 1 4 1v4h-1.5c-0.277 0-0.5 0.223-0.5 0.5s0.223 0.5 0.5 0.5h1.5v1c0 1.108-0.892 2-2 2s-2-0.669-2-1.5c0-0.27614-0.22386-0.5-0.5-0.5-0.0086 0-0.01687-4.32e-4 -0.02539 0-0.26418 0.013392-0.47461 0.23249-0.47461 0.5 0 1.385 1.338 2.5 3 2.5s3-1.338 3-3v-1h1.5c0.277 0 0.5-0.223 0.5-0.5s-0.223-0.5-0.5-0.5h-1.5v-4c0.55228 0 1-0.44772 1-1s-0.44772-1-1-1-1 0.44772-1 1c-1 0-2-1-4-1z" style="opacity:.1"/>
 <path d="m22 19c-1.662 0-3 1.338-3 3s1.338 3 3 3h0.5c0.277 0 0.5-0.223 0.5-0.5s-0.223-0.5-0.5-0.5h-0.5c-1.108 0-2-0.892-2-2s0.892-2 2-2c1.8764 0 3 1 4 1v4h-1.5c-0.277 0-0.5 0.223-0.5 0.5s0.223 0.5 0.5 0.5h1.5v1c0 1.108-0.892 2-2 2s-2-0.669-2-1.5c0-0.27614-0.22386-0.5-0.5-0.5-0.0086 0-0.01687-4.32e-4 -0.02539 0-0.26418 0.013392-0.47461 0.23249-0.47461 0.5 0 1.385 1.338 2.5 3 2.5s3-1.338 3-3v-1h1.5c0.277 0 0.5-0.223 0.5-0.5s-0.223-0.5-0.5-0.5h-1.5v-4c0.55228 0 1-0.44772 1-1s-0.44772-1-1-1-1 0.44772-1 1c-1 0-2-1-4-1z" style="fill:#424242"/>
</svg>
