<svg version="1.1" viewBox="0 0 48 48" xmlns="http://www.w3.org/2000/svg">
 <defs>
  <linearGradient id="linearGradient3958" x2="0" y1="47" y2="1" gradientUnits="userSpaceOnUse">
   <stop style="stop-color:#cdd4db" offset="0"/>
   <stop style="stop-color:#dadee2" offset="1"/>
  </linearGradient>
  <radialGradient id="radialGradient4193" cx="23" cy="26.05" r="8" gradientTransform="translate(1 -.051086)" gradientUnits="userSpaceOnUse">
   <stop style="stop-color:#7eaabc" offset="0"/>
   <stop style="stop-color:#75a4b7" offset="1"/>
  </radialGradient>
 </defs>
 <path d="m36.31 5c5.859 4.062 9.688 10.831 9.688 18.5 0 12.426-10.07 22.5-22.5 22.5-7.669 0-14.438-3.828-18.5-9.688 1.037 1.822 2.306 3.499 3.781 4.969 4.085 3.712 9.514 5.969 15.469 5.969 12.703 0 23-10.298 23-23 0-5.954-2.256-11.384-5.969-15.469-1.469-1.475-3.147-2.744-4.969-3.781zm4.969 3.781c3.854 4.113 6.219 9.637 6.219 15.719 0 12.703-10.297 23-23 23-6.081 0-11.606-2.364-15.719-6.219 4.16 4.144 9.883 6.719 16.219 6.719 12.703 0 23-10.298 23-23 0-6.335-2.575-12.06-6.719-16.219z" style="opacity:.05"/>
 <path d="m41.28 8.781c3.712 4.085 5.969 9.514 5.969 15.469 0 12.703-10.297 23-23 23-5.954 0-11.384-2.256-15.469-5.969 4.113 3.854 9.637 6.219 15.719 6.219 12.703 0 23-10.298 23-23 0-6.081-2.364-11.606-6.219-15.719z" style="opacity:.1"/>
 <path d="m31.25 2.375c8.615 3.154 14.75 11.417 14.75 21.13 0 12.426-10.07 22.5-22.5 22.5-9.708 0-17.971-6.135-21.12-14.75a23 23 0 0 0 44.875 -7 23 23 0 0 0 -16 -21.875z" style="opacity:.2"/>
 <path d="m24 1c12.703 0 23 10.297 23 23s-10.297 23-23 23-23-10.297-23-23 10.297-23 23-23z" style="fill:url(#linearGradient3958)"/>
 <path d="m40.03 7.531c3.712 4.084 5.969 9.514 5.969 15.469 0 12.703-10.297 23-23 23-5.954 0-11.384-2.256-15.469-5.969 4.178 4.291 10.01 6.969 16.469 6.969 12.703 0 23-10.298 23-23 0-6.462-2.677-12.291-6.969-16.469z" style="opacity:.1"/>
 <path d="m25 9c-0.8 0-3 3.2-3 5 0 0.554 0.446 1 1 1h1v4.068c-3.945 0.493-7 3.853-7 7.932 0 1.073 0.224 2.114 0.625 3.074-0.367 0.148-0.625 0.505-0.625 0.926v5c0 1.108 0.892 2 2 2h12c1.108 0 2-0.892 2-2v-5c0-0.421-0.258-0.778-0.625-0.926 0.401-0.961 0.625-2 0.625-3.074 0-4.079-3.055-7.439-7-7.932v-4.068h1c0.554 0 1-0.446 1-1 0-1.8-2.2-5-3-5z" style="opacity:.1"/>
 <path d="m17 29c-0.554 0-1 0.446-1 1v0.096c0 2.904 0.565 4.904 0.402 6.1 0.364 0.486 0.941 0.805 1.598 0.805h2c2-1 3-1 4 0h4c1.338-2.33 4-5 4-7 0-0.554-0.446-1-1-1z" style="fill:#424242"/>
 <path d="m16 30.1v4.904c0 0.451 0.152 0.861 0.402 1.195l1.703-3.406c-0.875-0.76-1.585-1.678-2.105-2.693m16 2e-3c-0.439 0.859-1.017 1.647-1.713 2.33l-2.287 4.572h2c1.108 0 2-0.892 2-2zm-8 1.902c-0.57 0-1.125 0.116-1.652 0.303l-2.348 4.697h4l2.225-4.451c-0.688-0.344-1.442-0.549-2.225-0.549" style="fill:#e5e567"/>
 <path d="m24 8c-0.8 0-3 3.2-3 5 0 0.554 0.446 1 1 1h1v5h2v-5h1c0.554 0 1-0.446 1-1 0-1.8-2.2-5-3-5z" style="fill:#c44c4c"/>
 <path d="m24 18c-4.418 0-8 3.582-8 8 1e-3 2.752 1.42 5.308 3.752 6.77 1.125-1.131 2.653-1.769 4.248-1.77 1.597-1e-3 3.128 0.638 4.254 1.771 2.33-1.463 3.746-4.02 3.746-6.771 1e-3 -4.418-3.582-8-8-8z" style="fill:url(#radialGradient4193)"/>
</svg>
