<svg version="1.1" viewBox="0 0 48 48" xmlns="http://www.w3.org/2000/svg">
 <defs>
  <linearGradient id="bg" x2="0" y1="47" y2="1" gradientUnits="userSpaceOnUse">
   <stop style="stop-color:#575757" offset="0"/>
   <stop style="stop-color:#616161" offset="1"/>
  </linearGradient>
 </defs>
 <path d="m36.31 5c5.859 4.062 9.688 10.831 9.688 18.5 0 12.426-10.07 22.5-22.5 22.5-7.669 0-14.438-3.828-18.5-9.688 1.037 1.822 2.306 3.499 3.781 4.969 4.085 3.712 9.514 5.969 15.469 5.969 12.703 0 23-10.298 23-23 0-5.954-2.256-11.384-5.969-15.469-1.469-1.475-3.147-2.744-4.969-3.781zm4.969 3.781c3.854 4.113 6.219 9.637 6.219 15.719 0 12.703-10.297 23-23 23-6.081 0-11.606-2.364-15.719-6.219 4.16 4.144 9.883 6.719 16.219 6.719 12.703 0 23-10.298 23-23 0-6.335-2.575-12.06-6.719-16.219z" style="opacity:.05"/>
 <path d="m41.28 8.781c3.712 4.085 5.969 9.514 5.969 15.469 0 12.703-10.297 23-23 23-5.954 0-11.384-2.256-15.469-5.969 4.113 3.854 9.637 6.219 15.719 6.219 12.703 0 23-10.298 23-23 0-6.081-2.364-11.606-6.219-15.719z" style="opacity:.1"/>
 <path d="m31.25 2.375c8.615 3.154 14.75 11.417 14.75 21.13 0 12.426-10.07 22.5-22.5 22.5-9.708 0-17.971-6.135-21.12-14.75a23 23 0 0 0 44.875-7 23 23 0 0 0-16-21.875z" style="opacity:.2"/>
 <path d="m24 1c12.703 0 23 10.297 23 23s-10.297 23-23 23-23-10.297-23-23 10.297-23 23-23z" style="fill:url(#bg)"/>
 <path d="m40.03 7.531c3.712 4.084 5.969 9.514 5.969 15.469 0 12.703-10.297 23-23 23-5.954 0-11.384-2.256-15.469-5.969 4.178 4.291 10.01 6.969 16.469 6.969 12.703 0 23-10.298 23-23 0-6.462-2.677-12.291-6.969-16.469z" style="opacity:.1"/>
 <path d="m21.578 19.402-3.5781 4.5977-3 1v11.5c0 0.13494 0.05431 0.26362 0.15039 0.38086l-0.0332 0.0078 0.1875 0.14453-0.27734 0.13281 0.35547 0.10938-0.08594 0.15234 0.46484 0.05469 0.11719 0.15234 0.48828-0.01367 0.30078 0.125 0.43359-0.07227 0.43359 0.07227 0.29688-0.125 0.48828 0.01367 0.11719-0.15625 0.46094-0.05078-0.08984-0.15625 0.35547-0.10938-0.27734-0.13281 0.18359-0.14453-0.19922-0.03906c0.07939-0.10797 0.1289-0.22362 0.1289-0.3457v-0.5h1.1426l0.85742 2 1.5 1h1l1-1h1l1 1h1l1.5-1 0.85742-2h1.1426v0.5c0 0.12208 0.04951 0.23773 0.12891 0.3457l-0.19922 0.03906 0.18359 0.14453-0.27734 0.13281 0.35547 0.10938-0.08984 0.15625 0.46094 0.05078 0.11719 0.15625 0.48828-0.01367 0.29688 0.125 0.43359-0.07227 0.43359 0.07227 0.30078-0.125 0.48828 0.01367 0.11719-0.15234 0.46484-0.05469-0.08594-0.15234 0.35547-0.10938-0.27734-0.13281 0.1875-0.14453-0.0332-0.0078c0.09607-0.11725 0.15039-0.24592 0.15039-0.38086v-11.5c0-0.554-0.892-1-2-1h-1v-1l-0.5-1-3.0781-2.5977-0.94531-9.0312-1.4766-1.3711z" style="opacity:.1;paint-order:normal"/>
 <path d="m16 23c-1.108 0-2 0.446-2 1v11.5c0 0.554 0.892 1 2 1s2-0.446 2-1v-0.5h12v0.5c0 0.554 0.892 1 2 1s2-0.446 2-1v-11.5c0-0.554-0.892-1-2-1z" style="fill:#999;paint-order:normal"/>
 <path d="m23 8-1.4766 1.3711-0.94531 9.0312-3.0781 2.5977-0.5 1v8l3 7 1.5 1h1l1-1h1l1 1h1l1.5-1 3-7v-8l-0.5-1-3.0781-2.5977-0.94531-9.0312-1.4766-1.3711h-2z" style="fill:#b2b2b2"/>
 <path d="m16.09 35.424-0.375 0.10156-0.46875-0.04297-0.21484 0.14062-0.48438 0.02344-0.01563 0.15625-0.41406 0.08594 0.1875 0.14453-0.27734 0.13281 0.35547 0.10938-0.08594 0.15234 0.46484 0.05469 0.11719 0.15234 0.48828-0.01367 0.30078 0.125 0.43359-0.07227 0.43359 0.07227 0.29688-0.125 0.48828 0.01367 0.11719-0.15625 0.46094-0.05078-0.08984-0.15625 0.35547-0.10938-0.27734-0.13281 0.18359-0.14453-0.41797-0.08203-0.01563-0.16016-0.48828-0.02148-0.21094-0.14453-0.47266 0.04883zm15.82 0-0.375 0.10156-0.47266-0.04883-0.21094 0.14453-0.48828 0.02148-0.01563 0.16016-0.41797 0.08203 0.18359 0.14453-0.27734 0.13281 0.35547 0.10938-0.08984 0.15625 0.46094 0.05078 0.11719 0.15625 0.48828-0.01367 0.29688 0.125 0.43359-0.07227 0.43359 0.07227 0.30078-0.125 0.48828 0.01367 0.11719-0.15234 0.46484-0.05469-0.08594-0.15234 0.35547-0.10938-0.27734-0.13281 0.1875-0.14453-0.41406-0.08594-0.01563-0.15625-0.48438-0.02344-0.21484-0.14062-0.46875 0.04297z" style="fill:#f60"/>
</svg>
