<svg xmlns="http://www.w3.org/2000/svg" viewBox="0 0 48 48">
 <defs>
  <linearGradient id="linearGradient3764" y1="47" x2="0" y2="1" gradientUnits="userSpaceOnUse">
   <stop style="stop-color:#575757;stop-opacity:1"/>
   <stop offset="1" style="stop-color:#616161;stop-opacity:1"/>
  </linearGradient>
 </defs>
 <g>
  <path d="m 36.31 5 c 5.859 4.062 9.688 10.831 9.688 18.5 c 0 12.426 -10.07 22.5 -22.5 22.5 c -7.669 0 -14.438 -3.828 -18.5 -9.688 c 1.037 1.822 2.306 3.499 3.781 4.969 c 4.085 3.712 9.514 5.969 15.469 5.969 c 12.703 0 23 -10.298 23 -23 c 0 -5.954 -2.256 -11.384 -5.969 -15.469 c -1.469 -1.475 -3.147 -2.744 -4.969 -3.781 z m 4.969 3.781 c 3.854 4.113 6.219 9.637 6.219 15.719 c 0 12.703 -10.297 23 -23 23 c -6.081 0 -11.606 -2.364 -15.719 -6.219 c 4.16 4.144 9.883 6.719 16.219 6.719 c 12.703 0 23 -10.298 23 -23 c 0 -6.335 -2.575 -12.06 -6.719 -16.219 z" style="opacity:0.05"/>
  <path d="m 41.28 8.781 c 3.712 4.085 5.969 9.514 5.969 15.469 c 0 12.703 -10.297 23 -23 23 c -5.954 0 -11.384 -2.256 -15.469 -5.969 c 4.113 3.854 9.637 6.219 15.719 6.219 c 12.703 0 23 -10.298 23 -23 c 0 -6.081 -2.364 -11.606 -6.219 -15.719 z" style="opacity:0.1"/>
  <path d="m 31.25 2.375 c 8.615 3.154 14.75 11.417 14.75 21.13 c 0 12.426 -10.07 22.5 -22.5 22.5 c -9.708 0 -17.971 -6.135 -21.12 -14.75 a 23 23 0 0 0 44.875 -7 a 23 23 0 0 0 -16 -21.875 z" style="opacity:0.2"/>
 </g>
 <g>
  <path d="m 24 1 c 12.703 0 23 10.297 23 23 c 0 12.703 -10.297 23 -23 23 -12.703 0 -23 -10.297 -23 -23 0 -12.703 10.297 -23 23 -23 z" style="fill:url(#linearGradient3764);fill-opacity:1"/>
 </g>
 <g>
  <g>
   <g transform="translate(1,1)">
    <g style="opacity:0.1">
     <!-- color: #616161 -->
     <g>
      <path d="m 24.785 8.998 l 0 0.004 l -0.004 0 l 0 0.008 l -0.84 0.014 l -1.418 1.344 l 0 0.004 l -0.379 3.613 l -0.566 5.418 l -2.496 3.336 l -0.766 0 l -0.691 0.637 l 0 0.002 l -0.006 1.068 c -1.18 -0.137 -2.619 0.157 -2.619 0.908 l 0 11.06 l 0 0.063 c 0 0.153 0.06 0.286 0.156 0.404 l -0.039 0.008 l 0.188 0.145 l -0.277 0.133 l 0.355 0.109 l -0.086 0.152 l 0.465 0.055 l 0.117 0.152 l 0.488 -0.014 l 0.301 0.125 l 0.434 -0.072 l 0.434 0.072 l 0.297 -0.125 l 0.488 0.014 l 0.117 -0.156 l 0.461 -0.051 l -0.09 -0.156 l 0.355 -0.109 l -0.277 -0.133 l 0.184 -0.145 l -0.09 -0.018 c 0.09 -0.115 0.148 -0.243 0.148 -0.391 l 1.078 0 l 0.65 1.256 l 0.041 0.084 l 1.609 1.16 l 0.891 0.02 l 1.074 -1.102 l 0.309 0.002 l 0.016 0 l 0.383 0.002 l 0 -0.002 l 0 -0.002 l 0.305 -0.002 l 1.078 1.104 l 0.891 -0.02 l 0.002 -0.002 l 0.002 0 l 1.609 -1.16 c 0 0 0.096 -0.193 0.102 -0.205 l 0.586 -1.133 l 1.078 0 c 0 0.157 0.062 0.292 0.162 0.412 l -0.043 0.001 l 0.189 0.146 l -0.277 0.133 l 0.355 0.104 l -0.086 0.156 l 0.465 0.055 l 0.117 0.152 l 0.486 -0.012 l 0.303 0.125 l 0.434 -0.074 l 0.434 0.074 l 0.297 -0.125 l 0.492 0.012 l 0.113 -0.156 l 0.461 -0.051 l -0.09 -0.156 l 0.354 -0.107 l -0.275 -0.135 l 0.184 -0.145 l -0.098 -0.02 c 0.093 -0.117 0.152 -0.248 0.152 -0.398 l 0 -0.063 l 0 -11.06 c 0 -0.75 -1.436 -1.045 -2.615 -0.908 l -0.006 -1.07 l -0.691 -0.637 l -0.766 0 l -2.496 -3.332 l -0.945 -9.04 l -1.418 -1.344 l -0.844 -0.016 l 0 -0.004 l -0.092 0.002 l -0.001 0 l -0.293 -0.006 z" transform="translate(-1,-1)"/>
      <path d="m 23.434 36.891 l 0 -28.883 l 1.047 0 l 0 28.883 m -1.047 0" style="fill:#000;fill-opacity:1;stroke:none;fill-rule:nonzero"/>
      <path d="m 23.434 36.879 l 0 -28.879 l 1.051 0 l 0 28.879 m -1.051 0" style="fill:#000;fill-opacity:1;stroke:none;fill-rule:nonzero"/>
     </g>
    </g>
   </g>
  </g>
 </g>
 <g>
  <g>
   <!-- color: #616161 -->
   <g>
    <path d="m 14 35.414 0 -11.06 c 0 -1.27 4.129 -1.27 4.129 0 l -1.512 0 0.008 -1.977 0.691 -0.637 0.766 0 2.496 -3.332 0.945 -9.04 1.418 -1.344 1.238 -0.023 0 28.895 -0.707 -0.004 -1.074 1.105 -0.891 -0.02 -1.609 -1.164 -0.691 -1.336 -1.078 0 c 0 1.336 -4.129 1.336 -4.129 0 m 0 -0.066" style="fill:#999;fill-opacity:1;stroke:none;fill-rule:nonzero"/>
    <path d="m 33.961 35.414 0 -11.06 c 0 -1.27 -4.129 -1.27 -4.129 0 l 1.512 0 -0.008 -1.977 -0.691 -0.637 -0.766 0 -2.496 -3.332 -0.945 -9.04 -1.422 -1.344 -1.234 -0.023 0 28.895 0.703 -0.004 1.078 1.105 0.891 -0.02 1.609 -1.164 0.691 -1.336 1.078 0 c 0 1.336 4.129 1.336 4.129 0 m 0 -0.066" style="fill:#999;fill-opacity:1;stroke:none;fill-rule:nonzero"/>
    <path d="m 23.434 36.891 0 -28.883 1.047 0 0 28.883 m -1.047 0" style="fill:#999;fill-opacity:1;stroke:none;fill-rule:nonzero"/>
    <path d="m 32.773 35.488 0.211 0.145 0.488 0.02 0.016 0.156 0.418 0.086 -0.184 0.145 0.277 0.133 -0.355 0.109 0.09 0.156 -0.461 0.051 -0.113 0.156 -0.492 -0.012 -0.297 0.125 -0.434 -0.074 -0.434 0.074 -0.301 -0.125 -0.488 0.012 -0.117 -0.152 -0.465 -0.055 0.086 -0.156 -0.355 -0.105 0.277 -0.133 -0.188 -0.145 0.418 -0.086 0.012 -0.156 0.484 -0.023 0.215 -0.141 0.469 0.043 0.375 -0.102 0.375 0.102 m 0.473 -0.047" style="fill:#f60;fill-opacity:1;stroke:none;fill-rule:nonzero"/>
    <path d="m 16.938 35.477 0.211 0.145 0.488 0.02 0.016 0.16 0.418 0.082 -0.184 0.145 0.277 0.133 -0.355 0.109 0.09 0.156 -0.461 0.051 -0.117 0.156 -0.488 -0.012 -0.297 0.125 -0.434 -0.074 -0.434 0.074 -0.301 -0.125 -0.488 0.012 -0.117 -0.152 -0.465 -0.055 0.086 -0.152 -0.355 -0.109 0.277 -0.133 -0.188 -0.145 0.414 -0.086 0.016 -0.156 0.484 -0.023 0.215 -0.141 0.469 0.043 0.375 -0.102 0.375 0.102 m 0.473 -0.047" style="fill:#f60;fill-opacity:1;stroke:none;fill-rule:nonzero"/>
    <path d="m 31.34 22.375 -0.691 -0.637 -0.766 0 -2.496 -3.332 -0.945 -9.04 -1.418 -1.344 -1.238 -0.023 0 28.895 0.707 -0.004 1.074 1.105 0.891 -0.02 1.609 -1.16 c 0 0 3.313 -6.707 3.313 -6.715 m -0.039 -7.73" style="fill:#b2b2b2;fill-opacity:1;stroke:none;fill-rule:nonzero"/>
    <path d="m 16.625 22.375 0.691 -0.637 0.766 0 2.496 -3.336 0.945 -9.03 1.418 -1.348 1.238 -0.023 0 28.898 -0.707 -0.004 -1.074 1.102 -0.891 -0.02 -1.609 -1.16 c 0 0 -3.313 -6.707 -3.313 -6.715 m 0.039 -7.727" style="fill:#b2b2b2;fill-opacity:1;stroke:none;fill-rule:nonzero"/>
    <path d="m 23.434 36.879 0 -28.879 1.051 0 0 28.879 m -1.051 0" style="fill:#b2b2b2;fill-opacity:1;stroke:none;fill-rule:nonzero"/>
   </g>
  </g>
 </g>
 <g>
  <path d="m 40.03 7.531 c 3.712 4.084 5.969 9.514 5.969 15.469 0 12.703 -10.297 23 -23 23 c -5.954 0 -11.384 -2.256 -15.469 -5.969 4.178 4.291 10.01 6.969 16.469 6.969 c 12.703 0 23 -10.298 23 -23 0 -6.462 -2.677 -12.291 -6.969 -16.469 z" style="opacity:0.1"/>
 </g>
</svg>
