<?xml version="1.0" encoding="UTF-8"?>
<svg version="1.1" viewBox="0 0 48 48" xmlns="http://www.w3.org/2000/svg">
 <defs>
  <linearGradient id="bg" x1="1" x2="47" gradientTransform="matrix(0 -1 1 0 -1.5e-6 48)" gradientUnits="userSpaceOnUse">
   <stop style="stop-color:#739fcf" offset="0"/>
   <stop style="stop-color:#82a9d4" offset="1"/>
  </linearGradient>
 </defs>
 <path d="m36.3 5c5.86 4.06 9.69 10.8 9.69 18.5 0 12.4-10.1 22.5-22.5 22.5-7.67 0-14.4-3.83-18.5-9.69 1.04 1.82 2.31 3.5 3.78 4.97 4.08 3.71 9.51 5.97 15.5 5.97 12.7 0 23-10.3 23-23 0-5.95-2.26-11.4-5.97-15.5-1.47-1.48-3.15-2.74-4.97-3.78zm4.97 3.78c3.85 4.11 6.22 9.64 6.22 15.7 0 12.7-10.3 23-23 23-6.08 0-11.6-2.36-15.7-6.22 4.16 4.14 9.88 6.72 16.2 6.72 12.7 0 23-10.3 23-23 0-6.34-2.58-12.1-6.72-16.2z" style="opacity:.05"/>
 <path d="m41.3 8.78c3.71 4.08 5.97 9.51 5.97 15.5 0 12.7-10.3 23-23 23-5.95 0-11.4-2.26-15.5-5.97 4.11 3.85 9.64 6.22 15.7 6.22 12.7 0 23-10.3 23-23 0-6.08-2.36-11.6-6.22-15.7z" style="opacity:.1"/>
 <path d="m31.2 2.38c8.62 3.15 14.8 11.4 14.8 21.1 0 12.4-10.1 22.5-22.5 22.5-9.71 0-18-6.14-21.1-14.8a23 23 0 0 0 44.9-7 23 23 0 0 0-16-21.9z" style="opacity:.2"/>
 <path d="m24 1c12.7 0 23 10.3 23 23s-10.3 23-23 23-23-10.3-23-23 10.3-23 23-23z" style="fill:url(#bg)"/>
 <path d="m27 13-12 23s1e-6 1 1 1h18s0.996-1e-6 0.996-1v-2.62c1.32-0.202 2.46-0.377 3.5-0.377 0.277 0 0.5-0.223 0.5-0.5s-0.223-0.5-0.5-0.5c-1.04 0-2.18-0.174-3.5-0.377v-10.6l-8-8z" style="opacity:.1"/>
 <path d="m15 12s-1 0-1 1v22s0 1 1 1h18s0.996 0 0.996-1l4e-3 -17-6-6" style="fill:#f9f9f9"/>
 <path d="m17 16v1h8v-1zm0 2v1h8v-1zm0 2v1h8v-1zm0 3v1h14v-1zm0 2v1h14v-1zm0 2v1h14v-1z" style="fill:#aaa"/>
 <path d="m40 7.53c3.71 4.08 5.97 9.51 5.97 15.5 0 12.7-10.3 23-23 23-5.95 0-11.4-2.26-15.5-5.97 4.18 4.29 10 6.97 16.5 6.97 12.7 0 23-10.3 23-23 0-6.46-2.68-12.3-6.97-16.5z" style="opacity:.1"/>
 <path d="m20 31c-1 0-2.35 0.564-3 1v1c0.653 0.436 2 1 3 1 0.871 0 1.61-0.417 1.89-1h0.199c0.205 0.583 0.759 1 1.41 1h4.5c2.41 0 4.35-0.232 6-0.473l0.00391-1.53z" style="opacity:.1"/>
 <path d="m19 30c-1 0-2.35 0.564-3 1v1c0.653 0.436 2 1 3 1 0.871 0 1.61-0.417 1.89-1h2.11v-1h-2.11c-0.275-0.583-1.02-1-1.89-1zm-0.5 1a0.5 0.5 0 0 1 0.5 0.5 0.5 0.5 0 0 1-0.5 0.5 0.5 0.5 0 0 1-0.5-0.5 0.5 0.5 0 0 1 0.5-0.5z" style="fill:#999"/>
 <path d="m22.5 30c-0.831 0-1.5 0.669-1.5 1.5s0.669 1.5 1.5 1.5h4.5c5 0 8-1 10.5-1 0.277 0 0.5-0.223 0.5-0.5s-0.223-0.5-0.5-0.5c-2.5 0-5.5-1-10.5-1z" style="fill:#d35f9e"/>
 <path d="m28 12v5c0 0.554 0.446 1 1 1h5z" style="opacity:.1"/>
</svg>
