<svg version="1.1" viewBox="0 0 48 48" xmlns="http://www.w3.org/2000/svg">
 <defs>
  <linearGradient id="bg" x1="1" x2="47" gradientTransform="matrix(0 -1 1 0 -1.5e-6 48)" gradientUnits="userSpaceOnUse">
   <stop style="stop-color:#3081ce" offset="0"/>
   <stop style="stop-color:#418cd3" offset="1"/>
  </linearGradient>
 </defs>
 <path d="m36.31 5c5.859 4.062 9.688 10.831 9.688 18.5 0 12.426-10.07 22.5-22.5 22.5-7.669 0-14.438-3.828-18.5-9.688 1.037 1.822 2.306 3.499 3.781 4.969 4.085 3.712 9.514 5.969 15.469 5.969 12.703 0 23-10.298 23-23 0-5.954-2.256-11.384-5.969-15.469-1.469-1.475-3.147-2.744-4.969-3.781zm4.969 3.781c3.854 4.113 6.219 9.637 6.219 15.719 0 12.703-10.297 23-23 23-6.081 0-11.606-2.364-15.719-6.219 4.16 4.144 9.883 6.719 16.219 6.719 12.703 0 23-10.298 23-23 0-6.335-2.575-12.06-6.719-16.219z" style="opacity:.05"/>
 <path d="m41.28 8.781c3.712 4.085 5.969 9.514 5.969 15.469 0 12.703-10.297 23-23 23-5.954 0-11.384-2.256-15.469-5.969 4.113 3.854 9.637 6.219 15.719 6.219 12.703 0 23-10.298 23-23 0-6.081-2.364-11.606-6.219-15.719z" style="opacity:.1"/>
 <path d="m31.25 2.375c8.615 3.154 14.75 11.417 14.75 21.13 0 12.426-10.07 22.5-22.5 22.5-9.708 0-17.971-6.135-21.12-14.75a23 23 0 0 0 44.875-7 23 23 0 0 0-16-21.875z" style="opacity:.2"/>
 <path d="m24 1c12.703 0 23 10.297 23 23s-10.297 23-23 23-23-10.297-23-23 10.297-23 23-23z" style="fill:url(#bg)"/>
 <path d="m40.03 7.531c3.712 4.084 5.969 9.514 5.969 15.469 0 12.703-10.297 23-23 23-5.954 0-11.384-2.256-15.469-5.969 4.178 4.291 10.01 6.969 16.469 6.969 12.703 0 23-10.298 23-23 0-6.462-2.677-12.291-6.969-16.469z" style="opacity:.1"/>
 <path d="m19.367 14.016c-5.2982 1.4512-8.4432 7.0336-7.0284 12.432 0.6945 2.6515 2.3681 4.78 4.5176 6.0892l-0.85641 5.4624 8.5251-4.3676 6.1066-1.6732c5.2978-1.4511 8.4465-7.0305 7.0284-12.432-1.0603-4.0489-4.4023-6.8802-8.2417-7.4298z" style="opacity:.1"/>
 <path d="m26.96 11.001c-0.81982 0.0075-1.6524 0.11916-2.4801 0.34625l-6.1104 1.6713-2e-3 -2e-3c-5.2982 1.4512-8.4432 7.0336-7.0284 12.432 0.6945 2.6515 2.3681 4.78 4.5176 6.0892l-0.85641 5.4624 8.5251-4.3676 6.1066-1.6732c5.2978-1.4511 8.4465-7.0305 7.0284-12.432-1.0603-4.0489-4.4023-6.8802-8.2417-7.4298-0.47993-0.0687-0.9667-0.10124-1.4586-0.09672z" style="fill:#f9f9f9"/>
 <path d="m26.576 11.762c-0.606 0.037-1.215 0.137-1.824 0.303l-2.197 0.596c0.073 0.112 0.066 0.227-0.121 0.342-0.797 0.656 0.383 2.242 1.051 0.742 1.221-0.318 2.386-1.128 3.092-1.982zm4.088 1.048v6e-3c-0.82 0.105-2.191 0.996-2 1.742 0.773 0.121 0.73 0.516 0.18 0.414-0.086 0.984-1.906 1.063-1.602 1.91-1.789 0.488 0.125 2.328 0.668 0.648 0.594-1.258 2.316 0.346 1.805 0.521 1.293-0.203-1.105-1.766 0.266-0.922 0.441 0.762 1.152 1.535 1.023 0.414 0.77 0.051 0.563-1.477 1.563-0.648 0.272 0.012 0.571 0.138 0.852 0.258-0.54-0.011-0.953 0.542-1.951 0.334-0.875 1.195 2 0.184 0.918 1.715 0.734 0.789 1.256 4.129 2.939 2.383 1.313-0.316 0.61-2.035-0.354-1.371-1.085-1.325 0.163-0.424 1.227-0.088-0.048-0.507-0.127-1.015-0.262-1.523-0.271-1.027-0.712-1.96-1.27-2.793-0.084 0.018-0.15 0.053-0.195 0.105 0.04-0.072 0.083-0.147 0.119-0.215-0.784-1.134-1.796-2.071-2.961-2.742-0.33-0.033-0.656-0.078-0.965-0.148zm-9.648 0.266-0.918 0.25c3e-3 4e-3 7e-3 6e-3 0.01 0.01-1.184 0.371-0.293 0.57 0.391 0.902-0.494-0.726 1.184-0.5 0.518-1.162zm4.445 0.405c-0.43 0.996 1.977-0.277 0.23 0.082l-0.125-0.016zm5.229 0.117c-1.278 0.981 1.462 0.797-0.17 1.059 0.656 0.598-2.242 1.059-0.535 0.102-0.051-0.495 0.105-1.155 0.705-1.16zm-11.239 0.502c-0.861-0.19-1.459 2.79-2.094 0.979-0.505-0.412-0.467-0.648-0.221-0.814-2.443 1.116-4.22 3.238-4.973 5.734 0.333 0.749 0.84 1.944 1.725 1.768 0.93 0.105 2.75 2.336 1.629 0.582 0.371-0.809-1.242-0.563-0.367-1.539-1.508 1.402-1.973-1.328-0.27-1.422 0.781-0.496 0.996 0.191 1.426 0.676 0.262-1.477 1.633-2.859 3.102-3.129 0.766-0.133 0.289-0.374-0.018-0.58-0.053 0.051-0.052-0.011-0.033-0.025-0.234-0.163-0.324-0.299 0.496-0.332 1.227-0.746-0.141 1.105 1.125 0.379-0.285-0.617-0.234-2.041-1.141-1.979-0.135-0.18-0.264-0.27-0.387-0.297zm8.06 0.458c-0.392 0.105-0.386 0.46-0.305 0.801 0.066 0.278 0.183 0.555 0.176 0.613 1.09-0.078 0.164-0.895 0.129-1.414zm-0.305 0.801c-0.012-0.07-0.103-0.139-0.32-0.191-1.047 0.834 0.373 0.496 0.32 0.191zm-11.445 0.074c0.105 0.699-0.398-0.035 0 0zm18.645 0.592c-0.281 0.76 1.283 3.057-0.17 1.555-0.117-0.112-0.219-0.185-0.318-0.25 0.285 0.049 0.426-0.099 0.215-0.84 0.107-0.168 0.186-0.314 0.273-0.465zm-17.676 0.209c0.113 0.637-1.508 0.102 0 0zm15.805 0.299c0.056-9e-3 0.127-0.01 0.219 0-0.215 0.493-0.612 0.063-0.219 0zm-15.811 0.146c-0.512 1.203-1.063 0.324 0 0zm0.324 0.063c0.398 0.488-0.863 0.086 0 0zm0.668 0.27c-0.52 0.328-0.57-0.094 0 0zm11.271 0.156c-0.375 0.602 0.223 1 0 0zm-11.711 0.035c-0.73 0.344-0.617 0.063 0 0zm13.254 0.714c-0.026 0.026 0.051 0.184 0.066 0.035-0.038-0.037-0.058-0.044-0.066-0.035zm-1.582 0.219-4e-3 4e-3c-1.965-0.148-3.637 1.402-3.711 3.41-0.332 2.02 2.113 2.082 3.418 1.988 1.012 1.473 0.754 3.335 1.012 5.04 0.036 0.525 0.226 0.895 0.48 1.143 0.887-0.315 1.701-0.755 2.424-1.301 0.518-1.121 1.114-2.116 0.92-3.568 0.73-0.609 2.523-2.742 0.496-2.367-1.164-1.066-1.477-4.555-3.621-3.203-0.867-0.277-1.078-0.676-1.414-1.145zm1.985 0.241c0.152 0.336 0.68-0.082 0 0zm1.447 0.025c-0.75 0 0.191 0.281 0 0zm-16.487 2.074c-0.225 0.032-0.124 0.117 0.07 0.207 0.026-3e-3 0.058 6e-3 0.061 0.021 0.525 0.222 1.601 0.436 0.314-0.15l-0.254-0.078zm1.263 0.54c-0.457 0.75 1.5-8e-3 0 0zm-0.4 0.234c-0.038-0.012-0.107-9e-3 -0.217 0.027 0.167 0.178 0.331 8e-3 0.217-0.027zm0.447 1.033c-1.383 0.363-0.629 1.424-1.352 2.357 0.145 1.965 2.543 3.191 1.844 5.504 0.185 0.567 0.321 0.96 0.461 1.367 0.419 0.134 0.849 0.239 1.287 0.311 0.101-0.489 0.237-1 0.479-1.414-0.25-0.277 1.035-0.891 0.918-1.703 1.617-0.82 2.371-4.219-0.195-4.195-0.905-1.176-2.207-1.904-3.442-2.227zm15.171 2.085c0.054-0.012 0.127-0.01 0.223 0.012-0.052 0.83-0.598 0.073-0.223-0.012zm-0.438 0.754c0.418 0.84-0.031 0.652 0 0zm0.687 0.883c0.227 0.625-0.059 1.043 0 0z" style="fill:#34a325"/>
</svg>
