<svg xmlns="http://www.w3.org/2000/svg" viewBox="0 0 48 48">
 <defs>
  <linearGradient id="linearGradient3106" y1="1" x2="0" y2="47" gradientUnits="userSpaceOnUse">
   <stop style="stop-color:#8ad25a;stop-opacity:1"/>
   <stop offset="1" style="stop-color:#7ecd4b;stop-opacity:1"/>
  </linearGradient>
 </defs>
 <g>
  <path d="m 36.31 5 c 5.859 4.062 9.688 10.831 9.688 18.5 c 0 12.426 -10.07 22.5 -22.5 22.5 c -7.669 0 -14.438 -3.828 -18.5 -9.688 c 1.037 1.822 2.306 3.499 3.781 4.969 c 4.085 3.712 9.514 5.969 15.469 5.969 c 12.703 0 23 -10.298 23 -23 c 0 -5.954 -2.256 -11.384 -5.969 -15.469 c -1.469 -1.475 -3.147 -2.744 -4.969 -3.781 z m 4.969 3.781 c 3.854 4.113 6.219 9.637 6.219 15.719 c 0 12.703 -10.297 23 -23 23 c -6.081 0 -11.606 -2.364 -15.719 -6.219 c 4.16 4.144 9.883 6.719 16.219 6.719 c 12.703 0 23 -10.298 23 -23 c 0 -6.335 -2.575 -12.06 -6.719 -16.219 z" style="opacity:0.05"/>
  <path d="m 41.28 8.781 c 3.712 4.085 5.969 9.514 5.969 15.469 c 0 12.703 -10.297 23 -23 23 c -5.954 0 -11.384 -2.256 -15.469 -5.969 c 4.113 3.854 9.637 6.219 15.719 6.219 c 12.703 0 23 -10.298 23 -23 c 0 -6.081 -2.364 -11.606 -6.219 -15.719 z" style="opacity:0.1"/>
  <path d="m 31.25 2.375 c 8.615 3.154 14.75 11.417 14.75 21.13 c 0 12.426 -10.07 22.5 -22.5 22.5 c -9.708 0 -17.971 -6.135 -21.12 -14.75 a 23 23 0 0 0 44.875 -7 a 23 23 0 0 0 -16 -21.875 z" style="opacity:0.2"/>
 </g>
 <g style="fill:url(#linearGradient3106);fill-opacity:1">
  <path d="m 24 1 c 12.703 0 23 10.297 23 23 c 0 12.703 -10.297 23 -23 23 -12.703 0 -23 -10.297 -23 -23 0 -12.703 10.297 -23 23 -23 z"/>
 </g>
 <g>
  <path d="m 40.03 7.531 c 3.712 4.084 5.969 9.514 5.969 15.469 0 12.703 -10.297 23 -23 23 c -5.954 0 -11.384 -2.256 -15.469 -5.969 4.178 4.291 10.01 6.969 16.469 6.969 c 12.703 0 23 -10.298 23 -23 0 -6.462 -2.677 -12.291 -6.969 -16.469 z" style="opacity:0.1"/>
 </g>
 <g transform="translate(1,1)" style="fill:#000;opacity:0.1">
  <rect width="24" height="26" x="12" y="10" style="fill-opacity:1;stroke:none;fill-rule:nonzero"/>
 </g>
 <g>
  <rect y="10" x="12" height="26" width="24" style="fill:#666;fill-opacity:1;stroke:none;fill-rule:nonzero"/>
  <rect width="22" height="24" x="13" y="11" style="fill:#f6ffd5;fill-opacity:1;stroke:none;fill-rule:nonzero"/>
  <g style="fill:#666;fill-opacity:1;stroke:none">
   <path d="m 23.999 18.825 0 1.238 c -0.395 -0.368 -0.817 -0.643 -1.267 -0.825 -0.445 -0.182 -0.921 -0.273 -1.425 -0.273 -0.992 0 -1.752 0.304 -2.279 0.912 -0.527 0.604 -0.791 1.48 -0.791 2.626 0 1.142 0.264 2.02 0.791 2.626 0.527 0.604 1.287 0.906 2.279 0.906 0.504 0 0.978 -0.091 1.425 -0.273 0.449 -0.182 0.872 -0.457 1.267 -0.825 l 0 1.226 c -0.411 0.279 -0.847 0.488 -1.308 0.628 c -0.457 0.14 -0.941 0.209 -1.453 0.209 -1.313 0 -2.348 -0.401 -3.104 -1.203 -0.756 -0.805 -1.134 -1.904 -1.134 -3.294 0 -1.394 0.378 -2.493 1.134 -3.294 0.756 -0.805 1.791 -1.209 3.104 -1.209 c 0.519 0 1.01 0.069 1.465 0.209 0.461 0.136 0.893 0.341 1.297 0.616"/>
   <path d="m 28.983 23.576 c -0.817 0 -1.384 0.102 -1.699 0.304 -0.315 0.202 -0.473 0.448 -0.473 0.936 0 0.389 0.117 0.699 0.352 0.928 0.238 0.227 0.561 0.339 0.967 0.339 0.561 0 1.01 -0.214 1.347 -0.643 0.341 -0.433 0.511 -0.91 0.511 -1.619 l 0 -0.244 m 1.01 -0.552 0 3.976 -1.01 0 0 -1.184 c -0.231 0.404 -0.519 0.704 -0.863 0.899 -0.344 0.191 -0.766 0.285 -1.265 0.285 -0.63 0 -1.132 -0.191 -1.506 -0.572 -0.371 -0.385 -0.555 -0.899 -0.555 -1.542 0 -0.75 0.231 -1.215 0.692 -1.596 0.465 -0.381 1.158 -0.571 2.078 -0.572 l 1.418 0 0 -0.107 c 0 -0.504 -0.154 -0.994 -0.462 -1.267 -0.304 -0.277 -0.733 -0.416 -1.286 -0.416 -0.352 0 -0.694 0.046 -1.028 0.137 -0.333 0.091 -0.654 0.229 -0.962 0.41 l 0 -1.012 c 0.371 -0.154 0.729 -0.27 1.077 -0.345 0.348 -0.079 0.687 -0.119 1.017 -0.119 0.89 0 1.555 0.25 1.995 0.75 0.44 0.5 0.659 1.258 0.659 2.273"/>
  </g>
  <g style="fill:#666;fill-opacity:1;stroke:none">
   <path d="m 29.768 14.668 1.377 0 0 0.332 -1.852 0 0 -0.332 c 0.15 -0.155 0.354 -0.363 0.611 -0.623 0.259 -0.262 0.422 -0.43 0.488 -0.506 0.126 -0.142 0.214 -0.262 0.264 -0.359 0.051 -0.099 0.076 -0.196 0.076 -0.291 0 -0.155 -0.055 -0.281 -0.164 -0.379 -0.108 -0.098 -0.249 -0.146 -0.424 -0.146 -0.124 0 -0.255 0.021 -0.393 0.064 -0.137 0.043 -0.283 0.108 -0.439 0.195 l 0 -0.398 c 0.159 -0.064 0.307 -0.112 0.445 -0.145 0.138 -0.033 0.264 -0.049 0.379 -0.049 0.302 0 0.543 0.076 0.723 0.227 0.18 0.151 0.27 0.353 0.27 0.605 0 0.12 -0.023 0.234 -0.068 0.342 -0.044 0.107 -0.126 0.233 -0.244 0.379 -0.033 0.038 -0.136 0.147 -0.311 0.328 -0.174 0.18 -0.421 0.432 -0.738 0.756"/>
   <path d="m 32.818 12.344 c -0.203 0 -0.356 0.1 -0.459 0.301 -0.102 0.199 -0.152 0.499 -0.152 0.9 0 0.4 0.051 0.7 0.152 0.9 0.103 0.199 0.256 0.299 0.459 0.299 0.204 0 0.357 -0.1 0.459 -0.299 0.103 -0.201 0.154 -0.501 0.154 -0.9 0 -0.401 -0.051 -0.701 -0.154 -0.9 -0.102 -0.201 -0.255 -0.301 -0.459 -0.301 m 0 -0.313 c 0.327 0 0.576 0.13 0.748 0.389 0.173 0.258 0.26 0.633 0.26 1.125 0 0.491 -0.087 0.866 -0.26 1.125 -0.172 0.258 -0.421 0.387 -0.748 0.387 -0.327 0 -0.577 -0.129 -0.75 -0.387 -0.172 -0.259 -0.258 -0.634 -0.258 -1.125 0 -0.492 0.086 -0.867 0.258 -1.125 0.173 -0.259 0.423 -0.389 0.75 -0.389"/>
  </g>
  <g style="fill:#666;fill-opacity:1;stroke:none">
   <path d="m 15.976 30.896 0 0.336 c -0.102 -0.056 -0.204 -0.098 -0.307 -0.125 -0.102 -0.029 -0.204 -0.043 -0.309 -0.043 -0.233 0 -0.414 0.074 -0.543 0.223 -0.129 0.147 -0.193 0.354 -0.193 0.621 0 0.267 0.064 0.475 0.193 0.623 0.129 0.147 0.31 0.221 0.543 0.221 0.104 0 0.207 -0.014 0.309 -0.041 0.103 -0.029 0.205 -0.071 0.307 -0.127 l 0 0.332 c -0.1 0.047 -0.204 0.082 -0.313 0.105 -0.107 0.023 -0.221 0.035 -0.342 0.035 -0.329 0 -0.591 -0.104 -0.785 -0.311 -0.194 -0.207 -0.291 -0.486 -0.291 -0.838 0 -0.357 0.098 -0.637 0.293 -0.842 0.197 -0.204 0.465 -0.307 0.807 -0.307 0.111 0 0.219 0.012 0.324 0.035 0.105 0.022 0.208 0.056 0.307 0.102"/>
   <path d="m 17.599 31.9 c -0.29 0 -0.492 0.033 -0.604 0.1 -0.112 0.066 -0.168 0.18 -0.168 0.34 0 0.128 0.042 0.229 0.125 0.305 0.085 0.074 0.199 0.111 0.344 0.111 0.199 0 0.359 -0.07 0.479 -0.211 0.121 -0.142 0.182 -0.33 0.182 -0.564 l 0 -0.08 -0.357 0 m 0.717 -0.148 0 1.248 -0.359 0 0 -0.332 c -0.082 0.133 -0.184 0.231 -0.307 0.295 -0.122 0.063 -0.272 0.094 -0.449 0.094 -0.224 0 -0.402 -0.063 -0.535 -0.188 -0.132 -0.126 -0.197 -0.295 -0.197 -0.506 0 -0.246 0.082 -0.432 0.246 -0.557 0.165 -0.125 0.411 -0.187 0.738 -0.188 l 0.504 0 0 -0.035 c 0 -0.165 -0.055 -0.293 -0.164 -0.383 -0.108 -0.091 -0.26 -0.137 -0.457 -0.137 -0.125 0 -0.247 0.015 -0.365 0.045 -0.118 0.03 -0.232 0.075 -0.342 0.135 l 0 -0.332 c 0.132 -0.051 0.259 -0.089 0.383 -0.113 0.124 -0.026 0.244 -0.039 0.361 -0.039 0.316 0 0.553 0.082 0.709 0.246 0.156 0.164 0.234 0.413 0.234 0.746"/>
   <path d="m 19.06 29.961 0.359 0 0 3.039 -0.359 0 0 -3.039"/>
   <path d="m 21.741 30.896 0 0.336 c -0.102 -0.056 -0.204 -0.098 -0.307 -0.125 -0.102 -0.029 -0.204 -0.043 -0.309 -0.043 -0.233 0 -0.414 0.074 -0.543 0.223 -0.129 0.147 -0.193 0.354 -0.193 0.621 0 0.267 0.064 0.475 0.193 0.623 0.129 0.147 0.31 0.221 0.543 0.221 0.104 0 0.207 -0.014 0.309 -0.041 0.103 -0.029 0.205 -0.071 0.307 -0.127 l 0 0.332 c -0.1 0.047 -0.204 0.082 -0.313 0.105 -0.107 0.023 -0.221 0.035 -0.342 0.035 -0.329 0 -0.591 -0.104 -0.785 -0.311 -0.194 -0.207 -0.291 -0.486 -0.291 -0.838 0 -0.357 0.098 -0.637 0.293 -0.842 0.197 -0.204 0.465 -0.307 0.807 -0.307 0.111 0 0.219 0.012 0.324 0.035 0.105 0.022 0.208 0.056 0.307 0.102"/>
   <path d="m 22.333 32.14 0 -1.324 0.359 0 0 1.311 c 0 0.207 0.04 0.363 0.121 0.467 0.081 0.103 0.202 0.154 0.363 0.154 0.194 0 0.347 -0.062 0.459 -0.186 0.113 -0.124 0.17 -0.292 0.17 -0.506 l 0 -1.24 0.359 0 0 2.188 -0.359 0 0 -0.336 c -0.087 0.133 -0.189 0.232 -0.305 0.297 -0.115 0.064 -0.248 0.096 -0.4 0.096 -0.251 0 -0.442 -0.078 -0.572 -0.234 -0.13 -0.156 -0.195 -0.385 -0.195 -0.686 m 0.904 -1.377 0 0"/>
   <path d="m 24.909 29.961 0.359 0 0 3.039 -0.359 0 0 -3.039"/>
   <path d="m 27.01 31.9 c -0.29 0 -0.492 0.033 -0.604 0.1 -0.112 0.066 -0.168 0.18 -0.168 0.34 0 0.128 0.042 0.229 0.125 0.305 0.085 0.074 0.199 0.111 0.344 0.111 0.199 0 0.359 -0.07 0.479 -0.211 0.121 -0.142 0.182 -0.33 0.182 -0.564 l 0 -0.08 -0.357 0 m 0.717 -0.148 0 1.248 -0.359 0 0 -0.332 c -0.082 0.133 -0.184 0.231 -0.307 0.295 -0.122 0.063 -0.272 0.094 -0.449 0.094 -0.224 0 -0.402 -0.063 -0.535 -0.188 -0.132 -0.126 -0.197 -0.295 -0.197 -0.506 0 -0.246 0.082 -0.432 0.246 -0.557 0.165 -0.125 0.411 -0.187 0.738 -0.188 l 0.504 0 0 -0.035 c 0 -0.165 -0.055 -0.293 -0.164 -0.383 -0.108 -0.091 -0.26 -0.137 -0.457 -0.137 -0.125 0 -0.247 0.015 -0.365 0.045 -0.118 0.03 -0.232 0.075 -0.342 0.135 l 0 -0.332 c 0.132 -0.051 0.259 -0.089 0.383 -0.113 0.124 -0.026 0.244 -0.039 0.361 -0.039 0.316 0 0.553 0.082 0.709 0.246 0.156 0.164 0.234 0.413 0.234 0.746"/>
   <path d="m 28.827 30.19 0 0.621 0.74 0 0 0.279 -0.74 0 0 1.188 c 0 0.178 0.024 0.293 0.072 0.344 0.049 0.051 0.149 0.076 0.299 0.076 l 0.369 0 0 0.301 -0.369 0 c -0.277 0 -0.469 -0.051 -0.574 -0.154 -0.105 -0.104 -0.158 -0.293 -0.158 -0.566 l 0 -1.188 -0.264 0 0 -0.279 0.264 0 0 -0.621 0.361 0"/>
   <path d="m 30.89 31.06 c -0.193 0 -0.345 0.076 -0.457 0.227 -0.112 0.15 -0.168 0.355 -0.168 0.617 0 0.262 0.055 0.468 0.166 0.619 0.112 0.15 0.265 0.225 0.459 0.225 0.191 0 0.343 -0.076 0.455 -0.227 0.112 -0.151 0.168 -0.357 0.168 -0.617 0 -0.259 -0.056 -0.464 -0.168 -0.615 -0.112 -0.152 -0.264 -0.229 -0.455 -0.229 m 0 -0.305 c 0.312 0 0.558 0.102 0.736 0.305 0.178 0.203 0.268 0.484 0.268 0.844 0 0.358 -0.089 0.639 -0.268 0.844 -0.178 0.203 -0.424 0.305 -0.736 0.305 -0.314 0 -0.56 -0.102 -0.738 -0.305 -0.177 -0.204 -0.266 -0.486 -0.266 -0.844 0 -0.359 0.089 -0.641 0.266 -0.844 0.178 -0.203 0.424 -0.305 0.738 -0.305"/>
   <path d="m 33.755 31.15 c -0.04 -0.023 -0.085 -0.04 -0.133 -0.051 -0.047 -0.012 -0.099 -0.018 -0.156 -0.018 -0.203 0 -0.359 0.066 -0.469 0.199 -0.108 0.132 -0.162 0.321 -0.162 0.568 l 0 1.152 -0.361 0 0 -2.188 0.361 0 0 0.34 c 0.076 -0.133 0.174 -0.231 0.295 -0.295 0.121 -0.065 0.268 -0.098 0.441 -0.098 0.025 0 0.052 0.002 0.082 0.006 0.03 0.003 0.063 0.007 0.1 0.014 l 0.002 0.369"/>
  </g>
 </g>
</svg>
