<svg version="1.1" viewBox="0 0 48 48" xmlns="http://www.w3.org/2000/svg">
 <defs>
  <linearGradient id="bg" x2="0" y1="1" y2="47" gradientUnits="userSpaceOnUse">
   <stop style="stop-color:#ce89df" offset="0"/>
   <stop style="stop-color:#c77ada" offset="1"/>
  </linearGradient>
 </defs>
 <path d="m36.31 5c5.859 4.062 9.688 10.831 9.688 18.5 0 12.426-10.07 22.5-22.5 22.5-7.669 0-14.438-3.828-18.5-9.688 1.037 1.822 2.306 3.499 3.781 4.969 4.085 3.712 9.514 5.969 15.469 5.969 12.703 0 23-10.298 23-23 0-5.954-2.256-11.384-5.969-15.469-1.469-1.475-3.147-2.744-4.969-3.781zm4.969 3.781c3.854 4.113 6.219 9.637 6.219 15.719 0 12.703-10.297 23-23 23-6.081 0-11.606-2.364-15.719-6.219 4.16 4.144 9.883 6.719 16.219 6.719 12.703 0 23-10.298 23-23 0-6.335-2.575-12.06-6.719-16.219z" style="opacity:.05"/>
 <path d="m41.28 8.781c3.712 4.085 5.969 9.514 5.969 15.469 0 12.703-10.297 23-23 23-5.954 0-11.384-2.256-15.469-5.969 4.113 3.854 9.637 6.219 15.719 6.219 12.703 0 23-10.298 23-23 0-6.081-2.364-11.606-6.219-15.719z" style="opacity:.1"/>
 <path d="m31.25 2.375c8.615 3.154 14.75 11.417 14.75 21.13 0 12.426-10.07 22.5-22.5 22.5-9.708 0-17.971-6.135-21.12-14.75a23 23 0 0 0 44.875-7 23 23 0 0 0-16-21.875z" style="opacity:.2"/>
 <g style="fill:#cd87de">
  <path d="m24 1c12.703 0 23 10.297 23 23s-10.297 23-23 23-23-10.297-23-23 10.297-23 23-23z" style="fill:url(#bg)"/>
 </g>
 <path d="m40.03 7.531c3.712 4.084 5.969 9.514 5.969 15.469 0 12.703-10.297 23-23 23-5.954 0-11.384-2.256-15.469-5.969 4.178 4.291 10.01 6.969 16.469 6.969 12.703 0 23-10.298 23-23 0-6.462-2.677-12.291-6.969-16.469z" style="opacity:.1"/>
 <g transform="translate(1,1)" style="opacity:.1">
  <rect x="12" y="10" width="24" height="26"/>
 </g>
 <rect x="12" y="10" width="24" height="26" style="fill:#666"/>
 <rect x="13" y="11" width="22" height="24" style="fill:#f6ffd5"/>
 <path d="m32.85 12.006c-0.289 0-0.51659 0.068125-0.68359 0.20312-0.165 0.136-0.24805 0.31974-0.24805 0.55274 0 0.167 0.046625 0.30783 0.14062 0.42383 0.094646 0.11557 0.22644 0.19422 0.39453 0.23633-0.19 0.045-0.33636 0.13077-0.44336 0.25977s-0.16016 0.28666-0.16016 0.47266c0 0.282 0.085813 0.49939 0.25781 0.65039 0.173 0.151 0.42019 0.22656 0.74219 0.22656 0.321 0 0.56824-0.075563 0.74024-0.22656 0.173-0.151 0.25976-0.36739 0.25976-0.65039 0-0.187-0.053156-0.34366-0.16016-0.47266-0.105-0.129-0.25336-0.21577-0.44336-0.25977 0.168-0.041 0.29858-0.12033 0.39258-0.23633 0.095-0.116 0.14258-0.25683 0.14258-0.42383 0-0.233-0.083047-0.41774-0.24805-0.55274-0.166-0.135-0.39359-0.20312-0.68359-0.20312zm-2.6367 0.001953c-0.116 0-0.23909 0.01025-0.37109 0.03125-0.13 0.021001-0.26992 0.051751-0.41992 0.09375v0.35156c0.148-0.049 0.28225-0.084422 0.40625-0.10742s0.24161-0.035156 0.34961-0.035156c0.198 0 0.35008 0.040094 0.45508 0.12109 0.107 0.08 0.16016 0.19375 0.16016 0.34375 0 0.146-0.051297 0.25794-0.1543 0.33594-0.103 0.077-0.25131 0.11523-0.44531 0.11523h-0.35547v0.32227h0.33984c0.215 0 0.38195 0.048484 0.50195 0.14648 0.121 0.096001 0.18164 0.23034 0.18164 0.40234 0 0.186-0.063359 0.32778-0.19336 0.42578-0.128 0.097-0.31745 0.14648-0.56445 0.14648-0.142 0-0.2782-0.015828-0.4082-0.048828s-0.25037-0.080531-0.35937-0.14453v0.38086c0.138 0.048 0.27139 0.082469 0.40039 0.10547 0.13 0.025 0.25691 0.037109 0.37891 0.037109 0.365 0 0.64575-0.076375 0.84375-0.23438s0.29688-0.37997 0.29688-0.66797c0-0.188-0.053156-0.34661-0.16016-0.47461-0.105-0.128-0.25241-0.21195-0.44141-0.25195 0.1688-0.042243 0.30139-0.1185 0.39258-0.22852 0.093-0.112 0.13867-0.24916 0.13867-0.41016 0-0.232-0.087719-0.41578-0.26172-0.55078-0.175-0.137-0.41194-0.20508-0.71094-0.20508zm2.6348 0.31055c0.169 0 0.30148 0.041953 0.39648 0.12695 0.097 0.085001 0.14453 0.20252 0.14453 0.35352 0 0.152-0.048531 0.26852-0.14453 0.35352-0.095 0.085-0.22748 0.12695-0.39648 0.12695-0.17 0-0.30344-0.041953-0.39844-0.12695-0.094-0.085-0.14062-0.20252-0.14062-0.35352 0-0.152 0.046625-0.26852 0.14062-0.35352 0.095-0.084999 0.22744-0.12695 0.39844-0.12695zm0.001953 1.2715c0.188 0 0.33636 0.05039 0.44336 0.15039 0.108 0.1 0.16211 0.23806 0.16211 0.41406 0 0.174-0.054109 0.31206-0.16211 0.41406-0.108 0.1-0.25636 0.15039-0.44336 0.15039s-0.33536-0.050391-0.44336-0.15039c-0.107-0.1-0.16016-0.23806-0.16016-0.41406s0.053156-0.31406 0.16016-0.41406c0.108-0.1 0.25536-0.15039 0.44336-0.15039z" style="fill:#4d4d4d"/>
 <path d="m21.99 18.002c-0.932 0-1.6643 0.21916-2.1973 0.66016-0.529 0.441-0.79297 1.0465-0.79297 1.8125 0 0.662 0.19117 1.1788 0.57617 1.5508s1.0072 0.64436 1.8672 0.81836l0.70312 0.14062c0.587 0.12 1.0067 0.29906 1.2617 0.53906 0.258 0.241 0.38867 0.574 0.38867 1 0 0.488-0.17911 0.86295-0.53711 1.127-0.358 0.263-0.86444 0.39648-1.5234 0.39648-0.433 0-0.87522-0.06713-1.3242-0.20312-0.449-0.135-0.90895-0.33747-1.377-0.60547v1.209c0.487 0.182 0.95716 0.31911 1.4102 0.41211 0.457 0.093 0.88802 0.13867 1.291 0.13867 1.07 0 1.8806-0.21444 2.4316-0.64844 0.555-0.434 0.83398-1.0711 0.83398-1.9121 0-0.705-0.20619-1.2656-0.61719-1.6836-0.407-0.422-1.0423-0.71581-1.9023-0.88281l-0.69727-0.14453c-0.631-0.12-1.0611-0.2777-1.2891-0.4707-0.225-0.197-0.33789-0.48709-0.33789-0.87109 0-0.457 0.17077-0.81059 0.50977-1.0586 0.342-0.248 0.82708-0.37109 1.4551-0.37109 0.361 0 0.73505 0.05225 1.123 0.15625 0.387 0.104 0.80128 0.26356 1.2383 0.47656v-1.1445l2e-3 -2e-3c-0.434-0.147-0.85844-0.25708-1.2734-0.33008s-0.82366-0.10938-1.2227-0.10938zm8.3027 2.2773c-0.519 0-0.96122 0.09797-1.3242 0.29297-0.364 0.192-0.74175 0.48676-0.96875 0.88476v-1.457h-1v7h1v-3.457c0-0.742 0.24631-1.2476 0.57031-1.6426 0.328-0.399 0.79725-0.66016 1.4062-0.66016 0.172 0 0.32775 0.01773 0.46875 0.05273 0.144 0.031 0.27744 0.08234 0.39844 0.15234l-0.0059-1.1074c-0.11-0.02-0.20883-0.03302-0.29883-0.04102-0.09-0.012-0.17209-0.01758-0.24609-0.01758z" style="fill:#4d4d4d"/>
 <path d="m16.255 29.475v0.64984h-0.26567v0.29222h0.26567v1.2425c0 0.28564 0.0536 0.48381 0.1594 0.59262 0.1058 0.10777 0.29947 0.16144 0.57857 0.16144h0.37194v-0.3147h-0.37194c-0.15114 0-0.25172-0.02634-0.30109-0.0797-0.04836-0.05336-0.07282-0.17342-0.07282-0.35966v-1.2425h0.74584v-0.29222h-0.74584v-0.64984zm8.0213 0v0.64984h-0.26567v0.29222h0.26567v1.2425c0 0.28564 0.0536 0.48381 0.1594 0.59262 0.1058 0.10777 0.29947 0.16144 0.57857 0.16144h0.37194v-0.3147h-0.37194c-0.15114 0-0.25172-0.02634-0.30109-0.0797-0.04836-0.05336-0.07282-0.17342-0.07282-0.35966v-1.2425h0.74584v-0.29222h-0.74584v-0.64984zm-9.4145 0.59058c-0.27003 0-0.47869 0.05856-0.6258 0.17574s-0.22041 0.28308-0.22041 0.49862c0 0.17682 0.04981 0.31639 0.14956 0.41892 0.09975 0.10149 0.26139 0.17561 0.48608 0.22479l0.12595 0.03066c0.22469 0.05022 0.36942 0.10294 0.43491 0.15735 0.06751 0.05441 0.10036 0.13247 0.10036 0.23501 0 0.10986-0.04607 0.19575-0.13775 0.25748-0.0927 0.05964-0.2233 0.08992-0.39358 0.08992-0.12696 0-0.25574-0.01756-0.38571-0.05313-0.12998-0.03662-0.26154-0.09129-0.39555-0.16348v0.38827c0.14106 0.04813 0.2745 0.08324 0.40146 0.10626 0.12796 0.02407 0.25208 0.03679 0.36997 0.03679 0.28313 0 0.50591-0.06249 0.66712-0.18596 0.16222-0.12346 0.24402-0.29236 0.24402-0.50475 0-0.18624-0.05452-0.33169-0.16334-0.43527-0.10781-0.10463-0.29015-0.18563-0.54708-0.24318l-0.12398-0.02656c-0.19446-0.04499-0.3232-0.09387-0.38768-0.14305-0.06448-0.05022-0.09642-0.11751-0.09642-0.20435 0-0.11404 0.04414-0.19994 0.13382-0.25748 0.08967-0.05755 0.22604-0.08583 0.40539-0.08583 0.11789 0 0.23259 0.01366 0.34242 0.04087 0.10983 0.0272 0.21603 0.06821 0.3188 0.12261v-0.35762c-0.09929-0.04046-0.20748-0.07115-0.32471-0.09196-0.11789-0.0293-0.24383-0.03066-0.37784-0.03066zm8.1511 0c-0.34459 0-0.61426 0.10739-0.81275 0.32083-0.19648 0.21449-0.29519 0.50724-0.29519 0.88076 0 0.36829 0.09775 0.66009 0.29322 0.87667 0.19547 0.21658 0.45961 0.32696 0.7911 0.32696 0.12192 0 0.23658-0.01272 0.34439-0.03679 0.10983-0.02406 0.21411-0.06118 0.31487-0.11035v-0.3474c-0.10277 0.05859-0.20518 0.10248-0.30896 0.13283-0.10277 0.02825-0.20614 0.04292-0.31093 0.04292-0.23476 0-0.4171-0.07711-0.54708-0.23092-0.12998-0.15485-0.19482-0.37253-0.19482-0.65188s0.06485-0.49604 0.19482-0.64984c0.12998-0.1559 0.31232-0.23296 0.54708-0.23296 0.1058 0 0.20816 0.01462 0.31093 0.04496 0.10378 0.02825 0.20619 0.07219 0.30896 0.13079v-0.35359c-0.09975-0.04813-0.20317-0.08324-0.30896-0.10626-0.1058-0.02407-0.21483-0.03679-0.32668-0.03679zm10.168 0c-0.27003 0-0.47869 0.05856-0.6258 0.17574s-0.22238 0.28308-0.22238 0.49862c1e-6 0.17682 0.04981 0.31639 0.14956 0.41892 0.09975 0.10149 0.26139 0.17561 0.48608 0.22479l0.12595 0.03066c0.22469 0.05022 0.36942 0.10294 0.43491 0.15735 0.06751 0.05441 0.10036 0.13247 0.10036 0.23501 0 0.10986-0.04607 0.19575-0.13776 0.25748-0.0927 0.05964-0.2233 0.08992-0.39358 0.08992-0.12696 0-0.25574-0.01756-0.38571-0.05313-0.12998-0.03662-0.26154-0.09129-0.39555-0.16348v0.38827c0.14106 0.04813 0.27647 0.08324 0.40342 0.10626 0.12796 0.02407 0.25012 0.03679 0.368 0.03679 0.28313 0 0.50591-0.06249 0.66713-0.18596 0.16222-0.12346 0.24402-0.29236 0.24402-0.50475 0-0.18624-0.05452-0.33169-0.16334-0.43527-0.10781-0.10463-0.29015-0.18563-0.54708-0.24318l-0.12398-0.02656c-0.19446-0.04499-0.3232-0.09387-0.38768-0.14305-0.06448-0.05022-0.09642-0.11751-0.09642-0.20435 0-0.11404 0.04414-0.19994 0.13382-0.25748 0.08967-0.05755 0.22604-0.08583 0.40539-0.08583 0.11789 0 0.23259 0.01366 0.34242 0.04087 0.10983 0.0272 0.21603 0.06821 0.3188 0.12261v-0.35762c-0.09929-0.04046-0.20552-0.07115-0.32274-0.09196-0.11789-0.0293-0.24383-0.03066-0.37784-0.03066zm-14.246 0.0021c-0.17431 0-0.32283 0.03417-0.44475 0.10218-0.12192 0.06696-0.22058 0.16942-0.29716 0.30857v-0.35557h-0.36407v2.2888h0.36407v-1.2057c0-0.25843 0.05452-0.45656 0.16334-0.59467 0.11083-0.13916 0.26776-0.20844 0.4723-0.20844 0.05743 0 0.11008 0.0078 0.15743 0.02043 0.04836 0.01151 0.09351 0.02907 0.13382 0.05313v-0.0021l-2e-3 -0.38623c-0.03728-0.0073-0.07014-0.01116-0.10036-0.0143-0.03023-0.0042-0.05746-0.0062-0.08265-0.0062zm10.58 0c-0.17431 0-0.32283 0.03417-0.44475 0.10218-0.12192 0.06696-0.22058 0.16942-0.29716 0.30857v-0.35557h-0.36407v2.2888h0.36407v-1.2057c0-0.25843 0.05452-0.45656 0.16334-0.59467 0.11083-0.13916 0.26776-0.20844 0.4723-0.20844 0.05743 0 0.11008 0.0078 0.15743 0.02043 0.04836 0.01151 0.09351 0.02907 0.13382 0.05313v-0.0021l-2e-3 -0.38623c-0.03728-0.0073-0.07014-0.01116-0.10036-0.0143-0.03023-0.0042-0.05746-0.0062-0.08265-0.0062zm1.4071 0c-0.33048 0-0.59367 0.10824-0.78914 0.32901-0.19446 0.21972-0.29125 0.51845-0.29125 0.89302 0 0.36202 0.10246 0.64793 0.307 0.86032 0.20555 0.2124 0.48472 0.32084 0.83637 0.32084 0.14005 0 0.27921-0.01462 0.41523-0.04496s0.26951-0.07324 0.39949-0.13079v-0.35557c-0.12897 0.0701-0.26063 0.12178-0.39162 0.15735-0.12998 0.03557-0.26241 0.05313-0.40146 0.05313-0.24081 0-0.42978-0.0653-0.56479-0.20026-0.13401-0.13602-0.20822-0.33419-0.22434-0.59262h1.6649v-0.18392l2e-3 -0.0021c0-0.34004-0.08646-0.60945-0.25977-0.8072-0.17129-0.1988-0.40632-0.29631-0.70255-0.29631zm-11.455 0.05722v1.3876c0 0.31493 0.06581 0.55406 0.19679 0.71728 0.13098 0.16322 0.3237 0.24522 0.5766 0.24522 0.15315 0 0.28755-0.03317 0.40342-0.10013 0.11688-0.06801 0.21934-0.1735 0.307-0.31266v0.35353h0.3621v-2.2908h-0.3621v1.2976c0 0.2239-0.05735 0.39953-0.17121 0.52927-0.11285 0.12974-0.26699 0.19414-0.46246 0.19414-0.16222 0-0.28442-0.05162-0.36603-0.1594-0.08161-0.10881-0.12201-0.27386-0.12201-0.49045v-1.3712zm6.3603 0v1.3876c0 0.31493 0.0658 0.55406 0.19679 0.71728 0.13098 0.16322 0.3237 0.24522 0.5766 0.24522 0.15315 0 0.28558-0.03317 0.40146-0.10013 0.11688-0.06801 0.2213-0.1735 0.30896-0.31266v0.35353h0.36013v-2.2908h-0.36013v1.2976c0 0.2239-0.05735 0.39953-0.17121 0.52927-0.11285 0.12974-0.26699 0.19414-0.46246 0.19414-0.16222 0-0.28442-0.05162-0.36603-0.1594-0.08161-0.10881-0.12201-0.27386-0.12201-0.49045v-1.3712zm5.0989 0.25953c0.17834 1e-6 0.3212 0.0615 0.42901 0.18392 0.10882 0.12242 0.16425 0.28637 0.16727 0.49249l-1.291 0.0041c0.01814-0.21554 0.08769-0.38448 0.2086-0.50271 0.12192-0.11823 0.28356-0.17779 0.48608-0.17779z" style="fill:#4d4d4d"/>
</svg>
