<svg xmlns="http://www.w3.org/2000/svg" viewBox="0 0 48 48">
 <defs>
  <linearGradient id="linearGradient3088" y1="1" x2="0" y2="47" gradientUnits="userSpaceOnUse">
   <stop style="stop-color:#ce89df;stop-opacity:1"/>
   <stop offset="1" style="stop-color:#c77ada;stop-opacity:1"/>
  </linearGradient>
 </defs>
 <g>
  <path d="m 36.31 5 c 5.859 4.062 9.688 10.831 9.688 18.5 c 0 12.426 -10.07 22.5 -22.5 22.5 c -7.669 0 -14.438 -3.828 -18.5 -9.688 c 1.037 1.822 2.306 3.499 3.781 4.969 c 4.085 3.712 9.514 5.969 15.469 5.969 c 12.703 0 23 -10.298 23 -23 c 0 -5.954 -2.256 -11.384 -5.969 -15.469 c -1.469 -1.475 -3.147 -2.744 -4.969 -3.781 z m 4.969 3.781 c 3.854 4.113 6.219 9.637 6.219 15.719 c 0 12.703 -10.297 23 -23 23 c -6.081 0 -11.606 -2.364 -15.719 -6.219 c 4.16 4.144 9.883 6.719 16.219 6.719 c 12.703 0 23 -10.298 23 -23 c 0 -6.335 -2.575 -12.06 -6.719 -16.219 z" style="opacity:0.05"/>
  <path d="m 41.28 8.781 c 3.712 4.085 5.969 9.514 5.969 15.469 c 0 12.703 -10.297 23 -23 23 c -5.954 0 -11.384 -2.256 -15.469 -5.969 c 4.113 3.854 9.637 6.219 15.719 6.219 c 12.703 0 23 -10.298 23 -23 c 0 -6.081 -2.364 -11.606 -6.219 -15.719 z" style="opacity:0.1"/>
  <path d="m 31.25 2.375 c 8.615 3.154 14.75 11.417 14.75 21.13 c 0 12.426 -10.07 22.5 -22.5 22.5 c -9.708 0 -17.971 -6.135 -21.12 -14.75 a 23 23 0 0 0 44.875 -7 a 23 23 0 0 0 -16 -21.875 z" style="opacity:0.2"/>
 </g>
 <g style="fill:#cd87de;fill-opacity:1">
  <path d="m 24 1 c 12.703 0 23 10.297 23 23 c 0 12.703 -10.297 23 -23 23 -12.703 0 -23 -10.297 -23 -23 0 -12.703 10.297 -23 23 -23 z" style="fill:url(#linearGradient3088)"/>
 </g>
 <g>
  <path d="m 40.03 7.531 c 3.712 4.084 5.969 9.514 5.969 15.469 0 12.703 -10.297 23 -23 23 c -5.954 0 -11.384 -2.256 -15.469 -5.969 4.178 4.291 10.01 6.969 16.469 6.969 c 12.703 0 23 -10.298 23 -23 0 -6.462 -2.677 -12.291 -6.969 -16.469 z" style="opacity:0.1"/>
 </g>
 <g transform="translate(1,1)" style="fill:#000;opacity:0.1">
  <rect width="24" height="26" x="12" y="10" style="fill-opacity:1;stroke:none;fill-rule:nonzero"/>
 </g>
 <g>
  <g>
   <rect width="24" height="26" x="12" y="10" style="fill:#666;fill-opacity:1;stroke:none;fill-rule:nonzero"/>
   <rect y="11" x="13" height="24" width="22" style="fill:#f6ffd5;fill-opacity:1;stroke:none;fill-rule:nonzero"/>
  </g>
  <g style="fill:#4d4d4d;fill-opacity:1;stroke:none">
   <path d="m 30.655 13.403 c 0.189 0.04 0.336 0.124 0.441 0.252 0.107 0.128 0.16 0.285 0.16 0.473 0 0.288 -0.099 0.51 -0.297 0.668 -0.198 0.158 -0.479 0.236 -0.844 0.236 -0.122 0 -0.249 -0.012 -0.379 -0.037 -0.129 -0.023 -0.262 -0.059 -0.4 -0.107 l 0 -0.381 c 0.109 0.064 0.229 0.112 0.359 0.145 0.13 0.033 0.266 0.049 0.408 0.049 0.247 0 0.436 -0.049 0.564 -0.146 0.13 -0.098 0.195 -0.24 0.195 -0.426 0 -0.172 -0.061 -0.306 -0.182 -0.402 -0.12 -0.098 -0.287 -0.146 -0.502 -0.146 l -0.34 0 0 -0.324 0.355 0 c 0.194 0 0.342 -0.038 0.445 -0.115 0.103 -0.078 0.154 -0.19 0.154 -0.336 0 -0.15 -0.053 -0.264 -0.16 -0.344 -0.105 -0.081 -0.257 -0.121 -0.455 -0.121 -0.108 0 -0.224 0.012 -0.348 0.035 -0.124 0.023 -0.26 0.06 -0.408 0.109 l 0 -0.352 c 0.15 -0.042 0.29 -0.073 0.42 -0.094 0.132 -0.021 0.255 -0.031 0.371 -0.031 0.299 0 0.536 0.068 0.711 0.205 0.174 0.135 0.262 0.319 0.262 0.551 0 0.161 -0.046 0.298 -0.139 0.41 -0.092 0.111 -0.224 0.188 -0.395 0.23"/>
   <path d="m 32.85 13.59 c -0.188 0 -0.335 0.05 -0.443 0.15 -0.107 0.1 -0.16 0.238 -0.16 0.414 0 0.176 0.053 0.314 0.16 0.414 0.108 0.1 0.256 0.15 0.443 0.15 0.187 0 0.335 -0.05 0.443 -0.15 0.108 -0.102 0.162 -0.24 0.162 -0.414 0 -0.176 -0.054 -0.314 -0.162 -0.414 -0.107 -0.1 -0.255 -0.15 -0.443 -0.15 m -0.395 -0.168 c -0.169 -0.042 -0.301 -0.12 -0.396 -0.236 -0.094 -0.116 -0.141 -0.257 -0.141 -0.424 0 -0.233 0.083 -0.417 0.248 -0.553 0.167 -0.135 0.395 -0.203 0.684 -0.203 0.29 0 0.518 0.068 0.684 0.203 0.165 0.135 0.248 0.32 0.248 0.553 0 0.167 -0.048 0.308 -0.143 0.424 -0.094 0.116 -0.225 0.195 -0.393 0.236 0.19 0.044 0.338 0.131 0.443 0.26 0.107 0.129 0.16 0.286 0.16 0.473 0 0.283 -0.087 0.499 -0.26 0.65 -0.172 0.151 -0.419 0.227 -0.74 0.227 -0.322 0 -0.569 -0.076 -0.742 -0.227 -0.172 -0.151 -0.258 -0.368 -0.258 -0.65 0 -0.186 0.053 -0.344 0.16 -0.473 0.107 -0.129 0.255 -0.215 0.445 -0.26 m -0.145 -0.623 c 0 0.151 0.047 0.269 0.141 0.354 0.095 0.085 0.228 0.127 0.398 0.127 0.169 0 0.301 -0.042 0.396 -0.127 0.096 -0.085 0.145 -0.202 0.145 -0.354 0 -0.151 -0.048 -0.269 -0.145 -0.354 -0.095 -0.085 -0.227 -0.127 -0.396 -0.127 -0.171 0 -0.303 0.042 -0.398 0.127 -0.094 0.085 -0.141 0.202 -0.141 0.354"/>
  </g>
  <g style="fill:#4d4d4d;fill-opacity:1;stroke:none">
   <path d="m 24.485 18.444 0 1.144 c -0.437 -0.213 -0.851 -0.372 -1.238 -0.476 -0.388 -0.104 -0.763 -0.157 -1.124 -0.157 -0.628 0 -1.114 0.124 -1.456 0.372 -0.339 0.248 -0.508 0.6 -0.508 1.057 0 0.384 0.112 0.674 0.337 0.871 0.228 0.193 0.659 0.351 1.29 0.471 l 0.697 0.145 c 0.86 0.167 1.494 0.461 1.901 0.883 c 0.411 0.418 0.617 0.979 0.617 1.684 0 0.841 -0.278 1.477 -0.833 1.911 -0.551 0.434 -1.362 0.65 -2.432 0.65 c -0.403 0 -0.833 -0.047 -1.29 -0.14 -0.453 -0.093 -0.923 -0.23 -1.41 -0.412 l 0 -1.208 c 0.468 0.268 0.927 0.469 1.376 0.604 0.449 0.136 0.891 0.203 1.324 0.203 0.659 0 1.166 -0.132 1.524 -0.395 0.358 -0.264 0.537 -0.639 0.537 -1.127 0 -0.426 -0.13 -0.759 -0.388 -1 -0.255 -0.24 -0.675 -0.42 -1.262 -0.54 l -0.703 -0.14 c -0.86 -0.174 -1.482 -0.447 -1.867 -0.819 -0.385 -0.372 -0.577 -0.888 -0.577 -1.55 0 -0.766 0.264 -1.371 0.793 -1.812 0.533 -0.441 1.266 -0.662 2.198 -0.662 c 0.399 0 0.807 0.037 1.222 0.11 0.415 0.073 0.839 0.184 1.273 0.331"/>
   <path d="m 30.843,21.445 c -0.121,-0.07 -0.254,-0.121 -0.398,-0.152 -0.141,-0.035 -0.297,-0.053 -0.469,-0.053 -0.609,0 -1.078,0.261 -1.406,0.66 C 28.246,22.295 28,22.801 28,23.543 l 0,3.457 -1,0 0,-6.563 1,0 0,1.02 c 0.227,-0.398 0.605,-0.693 0.969,-0.885 0.363,-0.195 0.805,-0.293 1.324,-0.293 0.074,0 0.156,0.006 0.246,0.018 0.09,0.008 0.189,0.021 0.299,0.041"/>
  </g>
  <g style="fill:#4d4d4d;fill-opacity:1;stroke:none">
   <path d="m 15.771 30.29 0 0.34 c -0.102 -0.052 -0.207 -0.091 -0.316 -0.117 -0.109 -0.026 -0.223 -0.039 -0.34 -0.039 -0.178 0 -0.313 0.027 -0.402 0.082 -0.089 0.055 -0.133 0.137 -0.133 0.246 0 0.083 0.032 0.149 0.096 0.197 0.064 0.047 0.192 0.092 0.385 0.135 l 0.123 0.027 c 0.255 0.055 0.436 0.132 0.543 0.232 0.108 0.099 0.162 0.238 0.162 0.416 0 0.203 -0.081 0.364 -0.242 0.482 -0.16 0.118 -0.381 0.178 -0.662 0.178 -0.117 0 -0.24 -0.012 -0.367 -0.035 -0.126 -0.022 -0.26 -0.056 -0.4 -0.102 l 0 -0.371 c 0.133 0.069 0.264 0.121 0.393 0.156 0.129 0.034 0.257 0.051 0.383 0.051 0.169 0 0.299 -0.029 0.391 -0.086 0.091 -0.059 0.137 -0.141 0.137 -0.246 0 -0.098 -0.033 -0.173 -0.1 -0.225 -0.065 -0.052 -0.209 -0.102 -0.432 -0.15 l -0.125 -0.029 c -0.223 -0.047 -0.383 -0.118 -0.482 -0.215 -0.099 -0.098 -0.148 -0.231 -0.148 -0.4 0 -0.206 0.073 -0.365 0.219 -0.477 0.146 -0.112 0.353 -0.168 0.621 -0.168 0.133 0 0.258 0.001 0.375 0.029 0.117 0.02 0.225 0.049 0.324 0.088"/>
   <path d="m 16.818 29.607 0 0.621 0.74 0 0 0.279 -0.74 0 0 1.188 c 0 0.178 0.024 0.293 0.072 0.344 0.049 0.051 0.149 0.076 0.299 0.076 l 0.369 0 0 0.301 -0.369 0 c -0.277 0 -0.469 -0.051 -0.574 -0.154 -0.105 -0.104 -0.158 -0.293 -0.158 -0.566 l 0 -1.188 -0.264 0 0 -0.279 0.264 0 0 -0.621 0.361 0"/>
   <path d="m 19.301 30.564 c -0.04 -0.023 -0.085 -0.04 -0.133 -0.051 -0.047 -0.012 -0.099 -0.018 -0.156 -0.018 -0.203 0 -0.359 0.066 -0.469 0.199 -0.108 0.132 -0.162 0.321 -0.162 0.568 l 0 1.152 -0.361 0 0 -2.188 0.361 0 0 0.34 c 0.076 -0.133 0.174 -0.231 0.295 -0.295 0.121 -0.065 0.268 -0.098 0.441 -0.098 0.025 0 0.052 0.002 0.082 0.006 0.03 0.003 0.063 0.007 0.1 0.014 l 0.002 0.369"/>
   <path d="m 19.645 31.553 0 -1.324 0.359 0 0 1.311 c 0 0.207 0.04 0.363 0.121 0.467 0.081 0.103 0.202 0.154 0.363 0.154 0.194 0 0.347 -0.062 0.459 -0.186 0.113 -0.124 0.17 -0.292 0.17 -0.506 l 0 -1.24 0.359 0 0 2.188 -0.359 0 0 -0.336 c -0.087 0.133 -0.189 0.232 -0.305 0.297 -0.115 0.064 -0.248 0.096 -0.4 0.096 -0.251 0 -0.442 -0.078 -0.572 -0.234 -0.13 -0.156 -0.195 -0.385 -0.195 -0.686 m 0.904 -1.377 0 0"/>
   <path d="m 23.795 30.31 0 0.336 c -0.102 -0.056 -0.204 -0.098 -0.307 -0.125 -0.102 -0.029 -0.204 -0.043 -0.309 -0.043 -0.233 0 -0.414 0.074 -0.543 0.223 -0.129 0.147 -0.193 0.354 -0.193 0.621 0 0.267 0.064 0.475 0.193 0.623 0.129 0.147 0.31 0.221 0.543 0.221 0.104 0 0.207 -0.014 0.309 -0.041 0.103 -0.029 0.205 -0.071 0.307 -0.127 l 0 0.332 c -0.1 0.047 -0.204 0.082 -0.313 0.105 -0.107 0.023 -0.221 0.035 -0.342 0.035 -0.329 0 -0.591 -0.104 -0.785 -0.311 -0.194 -0.207 -0.291 -0.486 -0.291 -0.838 0 -0.357 0.098 -0.637 0.293 -0.842 0.197 -0.204 0.465 -0.307 0.807 -0.307 0.111 0 0.219 0.012 0.324 0.035 0.105 0.022 0.208 0.056 0.307 0.102"/>
   <path d="m 24.779 29.607 0 0.621 0.74 0 0 0.279 -0.74 0 0 1.188 c 0 0.178 0.024 0.293 0.072 0.344 0.049 0.051 0.149 0.076 0.299 0.076 l 0.369 0 0 0.301 -0.369 0 c -0.277 0 -0.469 -0.051 -0.574 -0.154 -0.105 -0.104 -0.158 -0.293 -0.158 -0.566 l 0 -1.188 -0.264 0 0 -0.279 0.264 0 0 -0.621 0.361 0"/>
   <path d="m 25.957 31.553 0 -1.324 0.359 0 0 1.311 c 0 0.207 0.04 0.363 0.121 0.467 0.081 0.103 0.202 0.154 0.363 0.154 0.194 0 0.347 -0.062 0.459 -0.186 0.113 -0.124 0.17 -0.292 0.17 -0.506 l 0 -1.24 0.359 0 0 2.188 -0.359 0 0 -0.336 c -0.087 0.133 -0.189 0.232 -0.305 0.297 -0.115 0.064 -0.248 0.096 -0.4 0.096 -0.251 0 -0.442 -0.078 -0.572 -0.234 -0.13 -0.156 -0.195 -0.385 -0.195 -0.686 m 0.904 -1.377 0 0"/>
   <path d="m 29.801 30.564 c -0.04 -0.023 -0.085 -0.04 -0.133 -0.051 -0.047 -0.012 -0.099 -0.018 -0.156 -0.018 -0.203 0 -0.359 0.066 -0.469 0.199 -0.108 0.132 -0.162 0.321 -0.162 0.568 l 0 1.152 -0.361 0 0 -2.188 0.361 0 0 0.34 c 0.076 -0.133 0.174 -0.231 0.295 -0.295 0.121 -0.065 0.268 -0.098 0.441 -0.098 0.025 0 0.052 0.002 0.082 0.006 0.03 0.003 0.063 0.007 0.1 0.014 l 0.002 0.369"/>
   <path d="m 31.967 31.23 0 0.176 -1.652 0 c 0.016 0.247 0.09 0.436 0.223 0.566 0.134 0.129 0.32 0.193 0.559 0.193 0.138 0 0.271 -0.017 0.4 -0.051 0.13 -0.034 0.259 -0.085 0.387 -0.152 l 0 0.34 c -0.129 0.055 -0.261 0.096 -0.396 0.125 -0.135 0.029 -0.273 0.043 -0.412 0.043 -0.349 0 -0.626 -0.102 -0.83 -0.305 -0.203 -0.203 -0.305 -0.478 -0.305 -0.824 0 -0.358 0.096 -0.642 0.289 -0.852 0.194 -0.211 0.455 -0.316 0.783 -0.316 0.294 0 0.527 0.095 0.697 0.285 0.172 0.189 0.258 0.446 0.258 0.771 m -0.359 -0.105 c -0.003 -0.197 -0.058 -0.354 -0.166 -0.471 -0.107 -0.117 -0.249 -0.176 -0.426 -0.176 -0.201 0 -0.361 0.057 -0.482 0.17 -0.12 0.113 -0.189 0.273 -0.207 0.479 l 1.281 -0.002"/>
   <path d="m 33.951 30.29 0 0.34 c -0.102 -0.052 -0.207 -0.091 -0.316 -0.117 -0.109 -0.026 -0.223 -0.039 -0.34 -0.039 -0.178 0 -0.313 0.027 -0.402 0.082 -0.089 0.055 -0.133 0.137 -0.133 0.246 0 0.083 0.032 0.149 0.096 0.197 0.064 0.047 0.192 0.092 0.385 0.135 l 0.123 0.027 c 0.255 0.055 0.436 0.132 0.543 0.232 0.108 0.099 0.162 0.238 0.162 0.416 0 0.203 -0.081 0.364 -0.242 0.482 -0.16 0.118 -0.381 0.178 -0.662 0.178 -0.117 0 -0.24 -0.012 -0.367 -0.035 -0.126 -0.022 -0.26 -0.056 -0.4 -0.102 l 0 -0.371 c 0.133 0.069 0.264 0.121 0.393 0.156 0.129 0.034 0.257 0.051 0.383 0.051 0.169 0 0.299 -0.029 0.391 -0.086 0.091 -0.059 0.137 -0.141 0.137 -0.246 0 -0.098 -0.033 -0.173 -0.1 -0.225 -0.065 -0.052 -0.209 -0.102 -0.432 -0.15 l -0.125 -0.029 c -0.223 -0.047 -0.383 -0.118 -0.482 -0.215 -0.099 -0.098 -0.148 -0.231 -0.148 -0.4 0 -0.206 0.073 -0.365 0.219 -0.477 0.146 -0.112 0.353 -0.168 0.621 -0.168 0.133 0 0.258 0.001 0.375 0.029 0.117 0.02 0.225 0.049 0.324 0.088"/>
  </g>
 </g>
</svg>
