<svg xmlns="http://www.w3.org/2000/svg" viewBox="0 0 48 48">
 <defs>
  <linearGradient id="linearGradient3043" y1="1" x2="0" y2="47" gradientUnits="userSpaceOnUse">
   <stop style="stop-color:#d66a6a;stop-opacity:1"/>
   <stop offset="1" style="stop-color:#d25a5a;stop-opacity:1"/>
  </linearGradient>
 </defs>
 <g>
  <path d="m 36.31 5 c 5.859 4.062 9.688 10.831 9.688 18.5 c 0 12.426 -10.07 22.5 -22.5 22.5 c -7.669 0 -14.438 -3.828 -18.5 -9.688 c 1.037 1.822 2.306 3.499 3.781 4.969 c 4.085 3.712 9.514 5.969 15.469 5.969 c 12.703 0 23 -10.298 23 -23 c 0 -5.954 -2.256 -11.384 -5.969 -15.469 c -1.469 -1.475 -3.147 -2.744 -4.969 -3.781 z m 4.969 3.781 c 3.854 4.113 6.219 9.637 6.219 15.719 c 0 12.703 -10.297 23 -23 23 c -6.081 0 -11.606 -2.364 -15.719 -6.219 c 4.16 4.144 9.883 6.719 16.219 6.719 c 12.703 0 23 -10.298 23 -23 c 0 -6.335 -2.575 -12.06 -6.719 -16.219 z" style="opacity:0.05"/>
  <path d="m 41.28 8.781 c 3.712 4.085 5.969 9.514 5.969 15.469 c 0 12.703 -10.297 23 -23 23 c -5.954 0 -11.384 -2.256 -15.469 -5.969 c 4.113 3.854 9.637 6.219 15.719 6.219 c 12.703 0 23 -10.298 23 -23 c 0 -6.081 -2.364 -11.606 -6.219 -15.719 z" style="opacity:0.1"/>
  <path d="m 31.25 2.375 c 8.615 3.154 14.75 11.417 14.75 21.13 c 0 12.426 -10.07 22.5 -22.5 22.5 c -9.708 0 -17.971 -6.135 -21.12 -14.75 a 23 23 0 0 0 44.875 -7 a 23 23 0 0 0 -16 -21.875 z" style="opacity:0.2"/>
 </g>
 <g style="fill:#d35f5f;fill-opacity:1">
  <path d="m 24 1 c 12.703 0 23 10.297 23 23 c 0 12.703 -10.297 23 -23 23 -12.703 0 -23 -10.297 -23 -23 0 -12.703 10.297 -23 23 -23 z" style="fill:url(#linearGradient3043)"/>
 </g>
 <g>
  <path d="m 40.03 7.531 c 3.712 4.084 5.969 9.514 5.969 15.469 0 12.703 -10.297 23 -23 23 c -5.954 0 -11.384 -2.256 -15.469 -5.969 4.178 4.291 10.01 6.969 16.469 6.969 c 12.703 0 23 -10.298 23 -23 0 -6.462 -2.677 -12.291 -6.969 -16.469 z" style="opacity:0.1"/>
 </g>
 <g transform="translate(1,1)" style="fill:#000;opacity:0.1">
  <rect width="24" height="26" x="12" y="10" style="fill-opacity:1;stroke:none;fill-rule:nonzero"/>
 </g>
 <g>
  <g>
   <rect width="24" height="26" x="12" y="10" style="fill:#666;fill-opacity:1;stroke:none;fill-rule:nonzero"/>
   <rect y="11" x="13" height="24" width="22" style="fill:#f6ffd5;fill-opacity:1;stroke:none;fill-rule:nonzero"/>
  </g>
  <g style="fill:#4d4d4d;fill-opacity:1;stroke:none">
   <path d="m 19.05 19.06 0 3.282 1.449 0 c 0.536 0 0.951 -0.105 1.243 -0.398 0.293 -0.293 0.439 -0.711 0.439 -1.254 0 -0.538 -0.146 -0.955 -0.439 -1.248 -0.293 -0.293 -0.708 -0.383 -1.243 -0.383 l -1.449 0 m -1.153 -1.058 l 2.602 0 c 0.954 0 1.676 0.229 2.162 0.687 0.491 0.454 0.736 1.121 0.736 2 0 0.888 -0.245 1.56 -0.736 2.01 -0.487 0.454 -1.209 0.534 -2.162 0.592 l -1.449 0 0 3.706 -1.153 0 0 -9"/>
  </g>
  <g style="fill:#4d4d4d;fill-opacity:1;stroke:none">
   <path d="m 19.808 31.672 0 1.16 -0.361 0 0 -3.02 0.361 0 0 0.332 c 0.076 -0.13 0.171 -0.227 0.285 -0.289 0.116 -0.064 0.254 -0.096 0.414 -0.096 0.266 0 0.481 0.105 0.646 0.316 0.167 0.211 0.25 0.488 0.25 0.832 0 0.344 -0.083 0.621 -0.25 0.832 -0.165 0.211 -0.381 0.316 -0.646 0.316 -0.16 0 -0.298 -0.031 -0.414 -0.094 -0.115 -0.064 -0.21 -0.161 -0.285 -0.291 m 1.223 -0.764 c 0 -0.264 -0.055 -0.471 -0.164 -0.621 -0.108 -0.151 -0.257 -0.227 -0.447 -0.227 -0.19 0 -0.34 0.076 -0.449 0.227 -0.108 0.15 -0.162 0.357 -0.162 0.621 0 0.264 0.054 0.472 0.162 0.623 0.109 0.15 0.259 0.225 0.449 0.225 0.19 0 0.339 -0.075 0.447 -0.225 0.109 -0.151 0.164 -0.359 0.164 -0.623"/>
   <path d="m 22.993 30.9 c -0.29 0 -0.492 0.033 -0.604 0.1 -0.112 0.066 -0.168 0.18 -0.168 0.34 0 0.128 0.042 0.229 0.125 0.305 0.085 0.074 0.199 0.111 0.344 0.111 0.199 0 0.359 -0.07 0.479 -0.211 0.121 -0.142 0.182 -0.33 0.182 -0.564 l 0 -0.08 -0.357 0 m 0.717 -0.148 0 1.248 -0.359 0 0 -0.332 c -0.082 0.133 -0.184 0.231 -0.307 0.295 -0.122 0.063 -0.272 0.094 -0.449 0.094 -0.224 0 -0.402 -0.063 -0.535 -0.188 -0.132 -0.126 -0.197 -0.295 -0.197 -0.506 0 -0.246 0.082 -0.432 0.246 -0.557 0.165 -0.125 0.411 -0.187 0.738 -0.188 l 0.504 0 0 -0.035 c 0 -0.165 -0.055 -0.293 -0.164 -0.383 -0.108 -0.091 -0.26 -0.137 -0.457 -0.137 -0.125 0 -0.247 0.015 -0.365 0.045 -0.118 0.03 -0.232 0.075 -0.342 0.135 l 0 -0.332 c 0.132 -0.051 0.259 -0.089 0.383 -0.113 0.124 -0.026 0.244 -0.039 0.361 -0.039 0.316 0 0.553 0.082 0.709 0.246 0.156 0.164 0.234 0.413 0.234 0.746"/>
   <path d="m 24.452 29.813 0.359 0 0 2.188 -0.359 0 0 -2.188 m 0 -0.852 0.359 0 0 0.455 -0.359 0 0 -0.455"/>
   <path d="m 27.38 30.68 0 1.32 -0.359 0 0 -1.309 c 0 -0.207 -0.04 -0.362 -0.121 -0.465 -0.081 -0.103 -0.202 -0.154 -0.363 -0.154 -0.194 0 -0.347 0.062 -0.459 0.186 -0.112 0.124 -0.168 0.292 -0.168 0.506 l 0 1.236 -0.361 0 0 -2.188 0.361 0 0 0.34 c 0.086 -0.132 0.187 -0.23 0.303 -0.295 0.117 -0.065 0.252 -0.098 0.404 -0.098 0.251 0 0.441 0.078 0.57 0.234 0.129 0.155 0.193 0.383 0.193 0.686"/>
   <path d="m 28.456 29.19 0 0.621 0.74 0 0 0.279 -0.74 0 0 1.188 c 0 0.178 0.024 0.293 0.072 0.344 0.049 0.051 0.149 0.076 0.299 0.076 l 0.369 0 0 0.301 -0.369 0 c -0.277 0 -0.469 -0.051 -0.574 -0.154 -0.105 -0.104 -0.158 -0.293 -0.158 -0.566 l 0 -1.188 -0.264 0 0 -0.279 0.264 0 0 -0.621 0.361 0"/>
  </g>
  <g style="fill:#4d4d4d;fill-opacity:1;stroke:none">
   <path d="m 29.439 14.939 0 -0.359 c 0.099 0.047 0.199 0.083 0.301 0.107 0.102 0.025 0.201 0.037 0.299 0.037 0.26 0 0.459 -0.087 0.596 -0.262 0.138 -0.176 0.217 -0.442 0.236 -0.799 -0.076 0.112 -0.171 0.198 -0.287 0.258 -0.116 0.06 -0.244 0.09 -0.385 0.09 -0.292 0 -0.523 -0.088 -0.693 -0.264 -0.169 -0.177 -0.254 -0.419 -0.254 -0.725 0 -0.299 0.089 -0.54 0.266 -0.721 0.177 -0.181 0.413 -0.271 0.707 -0.271 0.337 0 0.594 0.13 0.771 0.389 0.178 0.258 0.268 0.633 0.268 1.125 0 0.46 -0.109 0.827 -0.328 1.102 -0.217 0.273 -0.51 0.41 -0.879 0.41 -0.099 0 -0.199 -0.001 -0.301 -0.029 -0.102 -0.02 -0.207 -0.049 -0.316 -0.088 m 0.785 -1.236 c 0.177 0 0.317 -0.061 0.42 -0.182 0.104 -0.121 0.156 -0.287 0.156 -0.498 0 -0.21 -0.052 -0.375 -0.156 -0.496 -0.103 -0.122 -0.243 -0.184 -0.42 -0.184 -0.177 0 -0.318 0.061 -0.422 0.184 -0.103 0.121 -0.154 0.286 -0.154 0.496 0 0.211 0.051 0.377 0.154 0.498 0.104 0.121 0.245 0.182 0.422 0.182"/>
   <path d="m 32.04 14.668 0.645 0 0 -2.225 -0.701 0.141 0 -0.359 0.697 -0.141 0.395 0 0 2.584 0.645 0 0 0.332 -1.68 0 0 -0.332"/>
  </g>
 </g>
 <path d="m 27.985,23.5755 c -0.817,0 -1.384,0.102 -1.699,0.304 -0.315,0.202 -0.473,0.548 -0.473,1.036 0,0.389 0.117,0.5995 0.352,0.8285 0.238,0.227 0.561,0.339 0.967,0.339 0.561,0 1.01,-0.214 1.347,-0.643 0.341,-0.433 0.511,-0.9105 0.511,-1.6205 l 0,-0.244 -1.01,0 M 30,23.024 30,27 l -1.011,0 0,-1.184 C 28.758,26.22 28.47,26.52 28.126,26.715 27.782,26.906 27.36,27 26.861,27 26.231,27 25.729,26.809 25.355,26.428 24.984,26.043 24.8,25.6285 24.8,24.9855 c 0,-0.75 0.231,-1.315 0.692,-1.696 0.465,-0.381 1.158,-0.571 2.078,-0.572 l 1.418,0 0,-0.107 c 0,-0.504 -0.154,-0.9925 -0.462,-1.2655 -0.304,-0.277 -0.733,-0.416 -1.286,-0.416 -0.352,0 -0.694,0.046 -1.028,0.137 -0.333,0.091 -0.654,0.229 -0.962,0.41 l 0,-1.012 c 0.371,-0.154 0.729,-0.27 1.077,-0.345 C 26.675,20.04 27.014,20 27.344,20 c 0.89,0 1.555,0.25 1.995,0.75 0.44,0.5 0.659,1.258 0.659,2.273" style="fill:#4d4d4d;fill-opacity:1;stroke:none"/>
</svg>
