<svg version="1.1" viewBox="0 0 48 48" xmlns="http://www.w3.org/2000/svg">
 <defs>
  <linearGradient id="bg" x2="0" y1="1" y2="47" gradientUnits="userSpaceOnUse">
   <stop style="stop-color:#99e3d5" offset="0"/>
   <stop style="stop-color:#89dfce" offset="1"/>
  </linearGradient>
 </defs>
 <path d="m36.3 5c5.86 4.06 9.69 10.8 9.69 18.5 0 12.4-10.1 22.5-22.5 22.5-7.67 0-14.4-3.83-18.5-9.69 1.04 1.82 2.31 3.5 3.78 4.97 4.08 3.71 9.51 5.97 15.5 5.97 12.7 0 23-10.3 23-23 0-5.95-2.26-11.4-5.97-15.5-1.47-1.48-3.15-2.74-4.97-3.78zm4.97 3.78c3.85 4.11 6.22 9.64 6.22 15.7 0 12.7-10.3 23-23 23-6.08 0-11.6-2.36-15.7-6.22 4.16 4.14 9.88 6.72 16.2 6.72 12.7 0 23-10.3 23-23 0-6.34-2.58-12.1-6.72-16.2z" style="opacity:.05"/>
 <path d="m41.3 8.78c3.71 4.08 5.97 9.51 5.97 15.5 0 12.7-10.3 23-23 23-5.95 0-11.4-2.26-15.5-5.97 4.11 3.85 9.64 6.22 15.7 6.22 12.7 0 23-10.3 23-23 0-6.08-2.36-11.6-6.22-15.7z" style="opacity:.1"/>
 <path d="m31.2 2.38c8.62 3.15 14.8 11.4 14.8 21.1 0 12.4-10.1 22.5-22.5 22.5-9.71 0-18-6.14-21.1-14.8a23 23 0 0 0 44.9-7 23 23 0 0 0-16-21.9z" style="opacity:.2"/>
 <path d="m24 1c12.7 0 23 10.3 23 23s-10.3 23-23 23-23-10.3-23-23 10.3-23 23-23z" style="fill:url(#bg)"/>
 <path d="m40 7.53c3.71 4.08 5.97 9.51 5.97 15.5 0 12.7-10.3 23-23 23-5.95 0-11.4-2.26-15.5-5.97 4.18 4.29 10 6.97 16.5 6.97 12.7 0 23-10.3 23-23 0-6.46-2.68-12.3-6.97-16.5z" style="opacity:.1"/>
 <rect x="13" y="11" width="24" height="26" style="opacity:.1"/>
 <rect x="12" y="10" width="24" height="26" style="fill:#666"/>
 <rect x="13" y="11" width="22" height="24" style="fill:#f6ffd5"/>
 <path d="m30.1 12c-0.115 0-0.241 0.0158-0.379 0.0488s-0.286 0.0805-0.445 0.145v0.398c0.156-0.087 0.302-0.152 0.439-0.195 0.138-0.043 0.269-0.0645 0.393-0.0645 0.175 0 0.316 0.0485 0.424 0.146 0.109 0.098 0.164 0.224 0.164 0.379 0 0.095-0.0252 0.192-0.0762 0.291-0.05 0.097-0.138 0.217-0.264 0.359-0.066 0.076-0.229 0.244-0.488 0.506-0.257 0.26-0.461 0.468-0.611 0.623v0.332h1.85v-0.332h-1.38c0.317-0.324 0.564-0.576 0.738-0.756 0.175-0.181 0.278-0.29 0.311-0.328 0.118-0.146 0.2-0.272 0.244-0.379 0.045-0.108 0.0684-0.222 0.0684-0.342 0-0.252-0.0895-0.454-0.27-0.605-0.18-0.151-0.421-0.227-0.723-0.227zm2.82 0.0527-1.21 1.85v0.381h1.32v0.688h0.393v-0.688h0.416v-0.328h-0.416v-1.9h-0.496zm0.105 0.344v1.56h-0.996l0.996-1.56z" style="fill:#4d4d4d"/>
 <path d="m30.1 30v3.04h0.364v-3.04zm-4.07 0.23v0.621h-0.269v0.279h0.269v1.19c0 0.273 0.0538 0.462 0.16 0.566 0.106 0.103 0.299 0.152 0.579 0.152h0.374v-0.301h-0.374c-0.152 0-0.253-0.0252-0.302-0.0762-0.0486-0.051-0.0732-0.166-0.0732-0.344v-1.19h0.749v-0.279h-0.749v-0.619zm-7.45 0.566c-0.346 0-0.617 0.103-0.816 0.307-0.197 0.205-0.297 0.485-0.297 0.842 0 0.352 0.0982 0.631 0.295 0.838s0.462 0.312 0.795 0.312c0.122 0 0.238-0.0122 0.346-0.0352 0.11-0.023 0.215-0.0585 0.316-0.105v-0.332c-0.103 0.056-0.206 0.098-0.31 0.127-0.103 0.027-0.207 0.041-0.312 0.041-0.236 0-0.419-0.0737-0.55-0.221-0.131-0.148-0.196-0.356-0.196-0.623s0.0651-0.474 0.196-0.621c0.131-0.149 0.314-0.223 0.55-0.223 0.106 0 0.209 0.014 0.312 0.043 0.104 0.027 0.207 0.069 0.31 0.125v-0.338c-0.1-0.046-0.204-0.0796-0.31-0.102-0.106-0.023-0.216-0.0352-0.328-0.0352zm2.37 2e-3c-0.175 0-0.324 0.0327-0.447 0.0977-0.122 0.064-0.222 0.162-0.299 0.295v-0.34h-0.366v2.19h0.366v-1.15c0-0.247 0.0548-0.436 0.164-0.568 0.111-0.133 0.269-0.199 0.474-0.199 0.0577 0 0.111 0.0075 0.158 0.0195 0.0486 0.011 0.0939 0.0278 0.134 0.0508v-2e-3l-2e-3 -0.369c-0.0374-7e-3 -0.0705-0.0107-0.101-0.0137-0.0304-4e-3 -0.0577-0.0059-0.083-0.0059zm3.68 0c-0.271 0-0.481 0.056-0.629 0.168s-0.223 0.271-0.223 0.477c0 0.169 0.05 0.302 0.15 0.4 0.1 0.097 0.263 0.168 0.488 0.215l0.127 0.0293c0.226 0.048 0.371 0.0964 0.437 0.148 0.0678 0.052 0.101 0.129 0.101 0.227 0 0.105-0.0463 0.187-0.138 0.246-0.0931 0.057-0.224 0.0859-0.395 0.0859-0.128 0-0.257-0.0187-0.387-0.0527-0.131-0.035-0.263-0.0853-0.397-0.154v0.371c0.142 0.046 0.278 0.0796 0.405 0.102 0.129 0.023 0.251 0.0352 0.37 0.0352 0.284 0 0.508-0.0597 0.67-0.178 0.163-0.118 0.245-0.279 0.245-0.482 0-0.178-0.0548-0.317-0.164-0.416-0.108-0.1-0.291-0.177-0.55-0.232l-0.125-0.0273c-0.195-0.043-0.325-0.0878-0.389-0.135-0.0648-0.048-0.0969-0.114-0.0969-0.197 0-0.109 0.0443-0.191 0.134-0.246 0.0901-0.055 0.227-0.082 0.407-0.082 0.118 0 0.234 0.0131 0.344 0.0391s0.217 0.0652 0.32 0.117v-0.34c-0.0997-0.0387-0.206-0.07-0.324-0.0898-0.118-0.028-0.245-0.0273-0.38-0.0273zm3.78 0c-0.118 0-0.24 0.0131-0.366 0.0391-0.126 0.024-0.254 0.0623-0.387 0.113v0.332c0.111-0.06 0.227-0.105 0.346-0.135s0.243-0.0449 0.37-0.0449c0.199 0 0.353 0.0457 0.463 0.137 0.11 0.09 0.166 0.218 0.166 0.383v0.0352h-0.51c-0.331 1e-3 -0.58 0.0625-0.747 0.188-0.166 0.125-0.249 0.311-0.249 0.557 0 0.211 0.0661 0.38 0.2 0.506 0.135 0.125 0.315 0.189 0.542 0.189 0.179 0 0.331-0.0308 0.455-0.0938 0.124-0.064 0.227-0.162 0.31-0.295v0.332h0.364v-1.25c0-0.333-0.0793-0.582-0.237-0.746s-0.398-0.246-0.718-0.246zm-7.14 0.0508 0.896 2.15-0.0633 0.164c-0.0678 0.174-0.13 0.283-0.186 0.33-0.0547 0.047-0.131 0.0703-0.231 0.0703h-0.214v0.301h0.289c0.164 0 0.296-0.0382 0.393-0.117 0.0969-0.0798 0.198-0.251 0.3-0.51v-2e-3l0.973-2.39h-0.385l-0.694 1.71-0.692-1.71zm7.37 1.09h0.362v0.0801c0 0.234-0.0614 0.422-0.184 0.564-0.121 0.141-0.283 0.211-0.484 0.211-0.147 0-0.262-0.0373-0.348-0.111-0.084-0.076-0.127-0.177-0.127-0.305 0-0.16 0.0566-0.274 0.17-0.34 0.113-0.067 0.317-0.0996 0.611-0.0996z" style="fill:#4d4d4d"/>
 <path d="m22.2 17.9c-1.31 0-2.35 0.413-3.1 1.24-0.756 0.819-1.13 1.94-1.13 3.37 0 1.42 0.379 2.54 1.13 3.37 0.756 0.82 1.79 1.23 3.1 1.23 0.512 0 0.996-0.0699 1.45-0.213 0.461-0.143 0.896-0.358 1.31-0.643v-1.25c-0.395 0.376-0.817 0.658-1.27 0.844-0.447 0.186-0.922 0.279-1.43 0.279-0.992 0-1.75-0.309-2.28-0.926-0.527-0.619-0.791-1.52-0.791-2.68 0-1.17 0.264-2.07 0.791-2.69 0.527-0.621 1.29-0.932 2.28-0.932 0.504 0 0.981 0.0933 1.43 0.279 0.45 0.186 0.871 0.468 1.27 0.844v-1.27c-0.403-0.28-0.835-0.49-1.29-0.629-0.455-0.143-0.946-0.213-1.46-0.213zm8.19 1.98c-0.54 0-0.999 0.098-1.38 0.293-0.378 0.192-0.813 0.487-1.05 0.885v-1.02h-1v6.56h1v-3.4c0-0.742 0.296-1.3 0.633-1.7 0.341-0.399 0.829-0.66 1.46-0.66 0.179 0 0.341 0.0177 0.488 0.0527 0.15 0.031 0.288 0.0823 0.414 0.152l-0.00586-1.11c-0.114-0.02-0.217-0.033-0.311-0.041-0.094-0.012-0.179-0.0176-0.256-0.0176z" style="fill:#4d4d4d"/>
</svg>
