<svg xmlns="http://www.w3.org/2000/svg" viewBox="0 0 48 48">
 <defs>
  <linearGradient id="linearGradient3764" x1="1" x2="47" gradientUnits="userSpaceOnUse" gradientTransform="matrix(0,-1,1,0,-1.5e-6,47.999998)">
   <stop style="stop-color:#508dbc;stop-opacity:1"/>
   <stop offset="1" style="stop-color:#5e96c1;stop-opacity:1"/>
  </linearGradient>
 </defs>
 <g>
  <path d="m 36.31 5 c 5.859 4.062 9.688 10.831 9.688 18.5 c 0 12.426 -10.07 22.5 -22.5 22.5 c -7.669 0 -14.438 -3.828 -18.5 -9.688 c 1.037 1.822 2.306 3.499 3.781 4.969 c 4.085 3.712 9.514 5.969 15.469 5.969 c 12.703 0 23 -10.298 23 -23 c 0 -5.954 -2.256 -11.384 -5.969 -15.469 c -1.469 -1.475 -3.147 -2.744 -4.969 -3.781 z m 4.969 3.781 c 3.854 4.113 6.219 9.637 6.219 15.719 c 0 12.703 -10.297 23 -23 23 c -6.081 0 -11.606 -2.364 -15.719 -6.219 c 4.16 4.144 9.883 6.719 16.219 6.719 c 12.703 0 23 -10.298 23 -23 c 0 -6.335 -2.575 -12.06 -6.719 -16.219 z" style="opacity:0.05"/>
  <path d="m 41.28 8.781 c 3.712 4.085 5.969 9.514 5.969 15.469 c 0 12.703 -10.297 23 -23 23 c -5.954 0 -11.384 -2.256 -15.469 -5.969 c 4.113 3.854 9.637 6.219 15.719 6.219 c 12.703 0 23 -10.298 23 -23 c 0 -6.081 -2.364 -11.606 -6.219 -15.719 z" style="opacity:0.1"/>
  <path d="m 31.25 2.375 c 8.615 3.154 14.75 11.417 14.75 21.13 c 0 12.426 -10.07 22.5 -22.5 22.5 c -9.708 0 -17.971 -6.135 -21.12 -14.75 a 23 23 0 0 0 44.875 -7 a 23 23 0 0 0 -16 -21.875 z" style="opacity:0.2"/>
 </g>
 <g>
  <path d="m 24 1 c 12.703 0 23 10.297 23 23 c 0 12.703 -10.297 23 -23 23 -12.703 0 -23 -10.297 -23 -23 0 -12.703 10.297 -23 23 -23 z" style="fill:url(#linearGradient3764);fill-opacity:1"/>
 </g>
 <g>
  <g>
   <g transform="translate(1,1)">
    <g style="opacity:0.1">
     <!-- color: #5e96c1 -->
     <g>
      <path d="m 24.311 12 l -4.23 1.262 l 1.236 4.332 l 4.229 -1.266 l -1.234 -4.328 z m 7.313 1.754 l -1.145 0.902 l -1.379 -0.453 l 0.48 1.395 l -0.848 1.203 l 1.445 -0.043 l 0.854 1.191 l 0.406 -1.418 l 1.375 -0.461 l -1.184 -0.836 l -0.006 -1.48 z m -5.705 4.27 l -1.348 1.754 l 0.813 2.066 l 2.156 0.316 l 1.348 -1.754 l -0.813 -2.068 l -2.156 -0.314 z m -7.777 0.117 l -0.863 2.789 l 2.723 0.883 l 0.863 -2.789 l -2.723 -0.883 z m -2.141 5.859 l -4 3.426 l 0.748 0.98 l 3.252 -2.807 l 0 10.4 l 18 0 l 0 -10.4 l 3.252 2.807 l 0.748 -0.98 l -4 -3.426 l -18 0 z" transform="translate(-1,-1)" style="fill:#000;fill-opacity:1;stroke:none;fill-rule:nonzero"/>
     </g>
    </g>
   </g>
  </g>
 </g>
 <g>
  <g>
   <!-- color: #5e96c1 -->
   <g>
    <path d="m 15 23 l -4 3.426 l 0.748 0.98 l 3.252 -2.807 l 0 10.4 l 18 0 l 0 -10.4 l 3.252 2.807 l 0.748 -0.98 l -4 -3.426 l -18 0 z" style="fill:#d7deff;fill-opacity:1;stroke:none;fill-rule:nonzero"/>
    <path d="m 17.14 17.14 l -0.863 2.789 l 2.723 0.883 l 0.863 -2.789 l -2.723 -0.883 z" style="fill:#d7deff;fill-opacity:1;stroke:none;fill-rule:nonzero"/>
    <path d="m 23.311 11 l -4.23 1.262 l 1.236 4.332 l 4.229 -1.266 l -1.234 -4.328 z" style="fill:#d7deff;fill-opacity:1;stroke:none;fill-rule:nonzero"/>
    <path d="m 24.918 17.02 l -1.348 1.754 l 0.813 2.066 l 2.156 0.316 l 1.348 -1.754 l -0.813 -2.068 l -2.156 -0.314 z" style="fill:#d7deff;fill-opacity:1;stroke:none;fill-rule:nonzero"/>
    <path d="m 30.623 12.754 l -1.145 0.902 l -1.379 -0.453 l 0.48 1.395 l -0.848 1.203 l 1.445 -0.043 l 0.854 1.191 l 0.406 -1.418 l 1.375 -0.461 l -1.184 -0.836 l -0.006 -1.48 z" style="fill:#d7deff;fill-opacity:1;stroke:none;fill-rule:nonzero"/>
   </g>
  </g>
 </g>
 <g>
  <path d="m 40.03 7.531 c 3.712 4.084 5.969 9.514 5.969 15.469 0 12.703 -10.297 23 -23 23 c -5.954 0 -11.384 -2.256 -15.469 -5.969 4.178 4.291 10.01 6.969 16.469 6.969 c 12.703 0 23 -10.298 23 -23 0 -6.462 -2.677 -12.291 -6.969 -16.469 z" style="opacity:0.1"/>
 </g>
</svg>
