<svg xmlns="http://www.w3.org/2000/svg" viewBox="0 0 48 48">
 <defs>
  <linearGradient id="linearGradient3764" x1="1" x2="47" gradientUnits="userSpaceOnUse" gradientTransform="matrix(0,-1,1,0,-1.5e-6,47.999998)">
   <stop style="stop-color:#d1bdaf;stop-opacity:1"/>
   <stop offset="1" style="stop-color:#d8c8bc;stop-opacity:1"/>
  </linearGradient>
 </defs>
 <g>
  <path d="m 36.31 5 c 5.859 4.062 9.688 10.831 9.688 18.5 c 0 12.426 -10.07 22.5 -22.5 22.5 c -7.669 0 -14.438 -3.828 -18.5 -9.688 c 1.037 1.822 2.306 3.499 3.781 4.969 c 4.085 3.712 9.514 5.969 15.469 5.969 c 12.703 0 23 -10.298 23 -23 c 0 -5.954 -2.256 -11.384 -5.969 -15.469 c -1.469 -1.475 -3.147 -2.744 -4.969 -3.781 z m 4.969 3.781 c 3.854 4.113 6.219 9.637 6.219 15.719 c 0 12.703 -10.297 23 -23 23 c -6.081 0 -11.606 -2.364 -15.719 -6.219 c 4.16 4.144 9.883 6.719 16.219 6.719 c 12.703 0 23 -10.298 23 -23 c 0 -6.335 -2.575 -12.06 -6.719 -16.219 z" style="opacity:0.05"/>
  <path d="m 41.28 8.781 c 3.712 4.085 5.969 9.514 5.969 15.469 c 0 12.703 -10.297 23 -23 23 c -5.954 0 -11.384 -2.256 -15.469 -5.969 c 4.113 3.854 9.637 6.219 15.719 6.219 c 12.703 0 23 -10.298 23 -23 c 0 -6.081 -2.364 -11.606 -6.219 -15.719 z" style="opacity:0.1"/>
  <path d="m 31.25 2.375 c 8.615 3.154 14.75 11.417 14.75 21.13 c 0 12.426 -10.07 22.5 -22.5 22.5 c -9.708 0 -17.971 -6.135 -21.12 -14.75 a 23 23 0 0 0 44.875 -7 a 23 23 0 0 0 -16 -21.875 z" style="opacity:0.2"/>
 </g>
 <g>
  <path d="m 24 1 c 12.703 0 23 10.297 23 23 c 0 12.703 -10.297 23 -23 23 -12.703 0 -23 -10.297 -23 -23 0 -12.703 10.297 -23 23 -23 z" style="fill:url(#linearGradient3764);fill-opacity:1"/>
 </g>
 <g>
  <path d="m 40.03 7.531 c 3.712 4.084 5.969 9.514 5.969 15.469 0 12.703 -10.297 23 -23 23 c -5.954 0 -11.384 -2.256 -15.469 -5.969 4.178 4.291 10.01 6.969 16.469 6.969 c 12.703 0 23 -10.298 23 -23 0 -6.462 -2.677 -12.291 -6.969 -16.469 z" style="opacity:0.1"/>
 </g>
 <g>
  <rect width="24" height="20" x="13" y="12" rx="1" style="fill:#000;fill-opacity:0.098;stroke:none;fill-rule:evenodd"/>
  <path d="m 34.437 37.997 c 0 0 0.563 -0.243 0.563 -1.496 0 -1.209 -0.633 -1.499 -0.633 -1.499 l -15.363 0 l -4 1.496 4 1.501" style="fill:#000;fill-opacity:0.118;stroke:none;fill-rule:nonzero"/>
 </g>
 <g>
  <g transform="translate(0,-1)">
   <rect width="24" height="20" x="12" y="12" rx="1" style="fill:#f9f9f9;fill-opacity:1;stroke:none;fill-rule:evenodd"/>
   <g transform="translate(0,-2)">
    <path d="m 14 16 0 16 20 0 0 -16 z m 1 1 18 0 0 14 -18 0 z" style="fill:#8c8c8c;fill-opacity:1;stroke:none;fill-rule:evenodd"/>
    <path d="m 19 20 9 0 0 2 -9 0 z" style="fill:#87deaa;opacity:1;fill-opacity:1;stroke:none;fill-rule:nonzero"/>
    <path d="m 24 16.8 0 14.4 -1 0 0 -14.4 z" style="fill:#8c8c8c;fill-opacity:1;stroke:none;fill-rule:evenodd"/>
    <path d="m 29 16.8 0 14.4 l -1 0 0 -14.4" style="fill:#8c8c8c;fill-opacity:1;stroke:none;fill-rule:evenodd"/>
    <path d="m 24 23 4 0 0 2 -4 0 z" style="fill:#87deaa;opacity:1;fill-opacity:1;stroke:none;fill-rule:nonzero"/>
    <path d="m 29 26 4 0 0 2 -4 0 z" style="fill:#87deaa;opacity:1;fill-opacity:1;stroke:none;fill-rule:nonzero"/>
    <path d="m 19 16.8 0 14.4 -1 0 0 -14.4 z" style="fill:#8c8c8c;fill-opacity:1;stroke:none;fill-rule:evenodd"/>
    <path d="m 15 17 3 0 0 11 -3 0 z" style="fill:#87deaa;opacity:1;fill-opacity:1;stroke:none;fill-rule:nonzero"/>
    <path d="m 14.8 19 18.4 0 0 1 -18.4 0 z" style="fill:#8c8c8c;fill-opacity:1;stroke:none;fill-rule:evenodd"/>
    <path d="m 14.8 22 18.4 0 0 1 -18.4 0 z" style="fill:#8c8c8c;fill-opacity:1;stroke:none;fill-rule:evenodd"/>
    <path d="m 14.8 25 18.4 0 0 1 -18.4 0 z" style="fill:#8c8c8c;fill-opacity:1;stroke:none;fill-rule:evenodd"/>
    <path d="m 14.8 28 18.4 0 0 1 -18.4 0 z" style="fill:#8c8c8c;fill-opacity:1;stroke:none;fill-rule:evenodd"/>
   </g>
  </g>
  <g>
   <path d="m 33.437 36.997 c 0 0 0.563 -0.243 0.563 -1.496 0 -1.209 -0.633 -1.499 -0.633 -1.499 l -15.363 0 l -4 1.496 4 1.501" style="fill:#356193;fill-opacity:1;stroke:none;fill-rule:nonzero"/>
   <path d="m 18 34 -4 1.499 4 1.499" style="fill:#e1cb91;fill-opacity:1;stroke:none;fill-rule:nonzero"/>
   <path d="m 16 34.752 -2 0.745 2 0.754" style="fill:#373737;fill-opacity:1;stroke:none;fill-rule:nonzero"/>
  </g>
 </g>
</svg>
