<svg xmlns="http://www.w3.org/2000/svg" viewBox="0 0 48 48">
 <defs>
  <linearGradient id="linearGradient3764" x1="1" x2="47" gradientUnits="userSpaceOnUse" gradientTransform="matrix(0,-1,1,0,-1.5e-6,47.999998)">
   <stop style="stop-color:#327bd6;stop-opacity:1"/>
   <stop offset="1" style="stop-color:#4488d9;stop-opacity:1"/>
  </linearGradient>
 </defs>
 <g>
  <path d="m 36.31 5 c 5.859 4.062 9.688 10.831 9.688 18.5 c 0 12.426 -10.07 22.5 -22.5 22.5 c -7.669 0 -14.438 -3.828 -18.5 -9.688 c 1.037 1.822 2.306 3.499 3.781 4.969 c 4.085 3.712 9.514 5.969 15.469 5.969 c 12.703 0 23 -10.298 23 -23 c 0 -5.954 -2.256 -11.384 -5.969 -15.469 c -1.469 -1.475 -3.147 -2.744 -4.969 -3.781 z m 4.969 3.781 c 3.854 4.113 6.219 9.637 6.219 15.719 c 0 12.703 -10.297 23 -23 23 c -6.081 0 -11.606 -2.364 -15.719 -6.219 c 4.16 4.144 9.883 6.719 16.219 6.719 c 12.703 0 23 -10.298 23 -23 c 0 -6.335 -2.575 -12.06 -6.719 -16.219 z" style="opacity:0.05"/>
  <path d="m 41.28 8.781 c 3.712 4.085 5.969 9.514 5.969 15.469 c 0 12.703 -10.297 23 -23 23 c -5.954 0 -11.384 -2.256 -15.469 -5.969 c 4.113 3.854 9.637 6.219 15.719 6.219 c 12.703 0 23 -10.298 23 -23 c 0 -6.081 -2.364 -11.606 -6.219 -15.719 z" style="opacity:0.1"/>
  <path d="m 31.25 2.375 c 8.615 3.154 14.75 11.417 14.75 21.13 c 0 12.426 -10.07 22.5 -22.5 22.5 c -9.708 0 -17.971 -6.135 -21.12 -14.75 a 23 23 0 0 0 44.875 -7 a 23 23 0 0 0 -16 -21.875 z" style="opacity:0.2"/>
 </g>
 <g>
  <path d="m 24 1 c 12.703 0 23 10.297 23 23 c 0 12.703 -10.297 23 -23 23 -12.703 0 -23 -10.297 -23 -23 0 -12.703 10.297 -23 23 -23 z" style="fill:url(#linearGradient3764);fill-opacity:1"/>
 </g>
 <g>
  <g>
   <g transform="translate(1,1)">
    <g style="opacity:0.1">
     <!-- color: #4488d9 -->
     <g>
      <path d="m 34.438 18 c -1.156 0 -2.133 0.703 -2.531 1.688 l -1 3.063 l 0 -4.594 l -4.875 0 c -0.879 0 -1.668 0.348 -2.25 0.938 l 0 -0.938 l -5 0 c -0.93 0 -1.785 0.418 -2.375 1.063 l 0 -1.063 l -4.688 0 c -2.031 0 -3.715 1.641 -3.719 3.813 c 0 1.012 0.438 1.918 1.063 2.594 l -1.063 0 l 0 4.441 l 4.75 0 c 1.332 -0.004 2.637 -0.848 3.094 -1.848 l 0.031 -0.027 c 0.531 1.105 1.625 1.875 2.906 1.875 l 5 0 l 0 -0.973 c 0.586 0.594 1.367 0.973 2.25 0.973 l 13.969 0 l -3 -9.316 c -0.41 -0.988 -1.402 -1.688 -2.563 -1.688 m -0.313 0.781 c 0.109 -0.016 0.199 0 0.313 0 c 0.902 0 1.676 0.555 1.906 1.344 l 2.625 8.094 l -5.063 0 l 0 -1.281 l 3.344 0 l -2.156 -6.594 c -0.105 -0.258 -0.367 -0.438 -0.656 -0.438 c -0.289 0 -0.52 0.207 -0.625 0.469 l -2.594 7.844 l -5.188 0 c -1.387 0 -2.5 -1.16 -2.5 -2.594 l 0 -4.125 c 0 -1.434 1.113 -2.594 2.5 -2.594 l 4.156 0 l 0 1.313 l -4.156 0 c -0.691 0 -1.25 0.563 -1.25 1.281 l 0 4.125 c 0 0.719 0.59 1.313 1.281 1.313 l 2.844 0 l 0 -3.531 l -2.281 0 l 0 -1.273 l 3.563 0 l 0 5.148 l 2.375 -7.148 c 0.203 -0.691 0.809 -1.23 1.563 -1.352 m -22.438 0.125 l 4 0 l 0 1.316 l -4 0 c -0.934 0 -1.688 0.785 -1.688 1.75 c 0 0.969 0.75 1.75 1.688 1.75 l 1.031 0 c 0.773 0 1.406 0.672 1.406 1.469 c 0 0.801 -0.633 1.441 -1.406 1.441 l -4 0 l 0 -1.281 l 4 0 c 0.078 0 0.156 -0.074 0.156 -0.156 c 0 -0.082 -0.078 -0.156 -0.156 -0.156 l -1.031 0 c -1.633 0 -2.969 -1.371 -2.969 -3.063 c 0 -1.691 1.336 -3.066 2.969 -3.066 m 7.094 0 l 4.281 0 l 0 1.316 l -4.281 0 c -0.695 0 -1.25 0.578 -1.25 1.281 l 0 4.125 c 0 0.727 0.555 1.313 1.25 1.313 l 4.25 0 l 0 1.281 l -4.25 0 c -1.391 0 -2.5 -1.16 -2.5 -2.594 l 0 -4.125 c 0 -1.438 1.109 -2.598 2.5 -2.598 m 15.656 1.316 c 0.18 0 0.352 0.117 0.406 0.281 l 2 6.125 l -2.938 0 l 0 -1.156 l -0.906 2.75 l -1.469 0 l 2.531 -7.719 c 0.055 -0.164 0.195 -0.281 0.375 -0.281 m -22.75 0.313 l 4 0 l 0 1.281 l -4 0 c -0.082 0 -0.156 0.07 -0.156 0.156 c 0 0.086 0.074 0.156 0.156 0.156 l 1.031 0 c 1.637 0 2.969 1.371 2.969 3.063 c 0 1.688 -1.332 3.063 -2.969 3.063 l -4 0 l 0 -1.313 l 4 0 c 0.938 0 1.719 -0.785 1.719 -1.75 c 0 -0.965 -0.781 -1.75 -1.719 -1.75 l -1.031 -0.031 c -0.773 0 -1.406 -0.637 -1.406 -1.438 c 0 -0.797 0.633 -1.441 1.406 -1.441 m 7.094 0 l 4.281 0 l 0 1.281 l -3.691 0 c -0.297 0 -0.277 0.316 -0.277 0.316 l 3.063 0 l 0 1.277 l -4.313 0 l 0 -1.902 c 0 -0.547 0.402 -0.973 0.938 -0.973 m 7.25 0 l 4.156 0 l 0 1.281 l -3.566 0 c -0.297 0.008 -0.277 0.316 -0.277 0.316 l 0 2.902 c 0 0.168 0.121 0.316 0.277 0.316 l 0.75 0 l 0 -0.316 l -0.75 0 l 0 -1.313 l 2 0 l 0 2.906 l -2.594 0 c -0.531 0 -0.938 -0.449 -0.938 -1 l 0 -4.125 c 0 -0.551 0.406 -0.973 0.938 -0.973 m -8.188 3.191 l 4.313 0 l 0 1.313 l -3.063 0 c 0.004 0.309 0.281 0.316 0.281 0.316 l 3.656 0 l 0 1.281 l -4.25 0 c -0.527 0 -0.938 -0.453 -0.938 -1 m 16.594 -1.785 l -0.441 1.344 l 0.875 0 m -0.438 -1.344" style="fill:#000;fill-opacity:1;stroke:none;fill-rule:nonzero"/>
      <path d="m 38.03 19.949 c 0.234 0 0.457 -0.098 0.625 -0.27 c 0.168 -0.172 0.258 -0.402 0.258 -0.645 c 0 -0.242 -0.09 -0.473 -0.258 -0.645 c -0.168 -0.172 -0.391 -0.273 -0.625 -0.273 c -0.488 0 -0.883 0.406 -0.883 0.91 c 0 0.242 0.09 0.48 0.258 0.648 c 0.168 0.172 0.391 0.27 0.625 0.27 m -0.758 -0.914 c 0 -0.211 0.074 -0.402 0.219 -0.555 c 0.145 -0.148 0.336 -0.23 0.539 -0.23 c 0.203 0 0.395 0.082 0.539 0.23 c 0.141 0.148 0.223 0.344 0.223 0.555 c 0 0.438 -0.344 0.785 -0.762 0.785 c -0.203 0 -0.395 -0.082 -0.539 -0.227 c -0.145 -0.148 -0.223 -0.348 -0.223 -0.559 m 0.004 0" style="fill:#000;fill-opacity:1;stroke:none;fill-rule:nonzero"/>
      <path d="m 37.801 19.11 l 0 0.43 l -0.129 0 l 0 -1.012 l 0.363 0 c 0.137 0 0.219 0 0.293 0.059 c 0.074 0.059 0.105 0.141 0.105 0.234 c 0 0.238 -0.188 0.27 -0.234 0.277 l 0.277 0.441 l -0.156 0 l -0.266 -0.43 l -0.254 0 m 0 -0.113 l 0.258 0 c 0.043 0 0.082 0 0.121 -0.012 c 0.09 -0.02 0.121 -0.09 0.121 -0.16 c 0 -0.027 0 -0.098 -0.059 -0.145 c -0.051 -0.043 -0.113 -0.043 -0.188 -0.043 l -0.254 0 m 0 0.359" style="fill:#000;fill-opacity:1;stroke:none;fill-rule:nonzero"/>
     </g>
    </g>
   </g>
  </g>
 </g>
 <g>
  <g>
   <!-- color: #4488d9 -->
   <g>
    <path d="m 34.438 18 c -1.156 0 -2.133 0.703 -2.531 1.688 l -1 3.063 l 0 -4.594 l -4.875 0 c -0.879 0 -1.668 0.348 -2.25 0.938 l 0 -0.938 l -5 0 c -0.93 0 -1.785 0.418 -2.375 1.063 l 0 -1.063 l -4.688 0 c -2.031 0 -3.715 1.641 -3.719 3.813 c 0 1.012 0.438 1.918 1.063 2.594 l -1.063 0 l 0 4.441 l 4.75 0 c 1.332 -0.004 2.637 -0.848 3.094 -1.848 l 0.031 -0.027 c 0.531 1.105 1.625 1.875 2.906 1.875 l 5 0 l 0 -0.973 c 0.586 0.594 1.367 0.973 2.25 0.973 l 13.969 0 l -3 -9.316 c -0.41 -0.988 -1.402 -1.688 -2.563 -1.688 m -0.313 0.781 c 0.109 -0.016 0.199 0 0.313 0 c 0.902 0 1.676 0.555 1.906 1.344 l 2.625 8.094 l -5.063 0 l 0 -1.281 l 3.344 0 l -2.156 -6.594 c -0.105 -0.258 -0.367 -0.438 -0.656 -0.438 c -0.289 0 -0.52 0.207 -0.625 0.469 l -2.594 7.844 l -5.188 0 c -1.387 0 -2.5 -1.16 -2.5 -2.594 l 0 -4.125 c 0 -1.434 1.113 -2.594 2.5 -2.594 l 4.156 0 l 0 1.313 l -4.156 0 c -0.691 0 -1.25 0.563 -1.25 1.281 l 0 4.125 c 0 0.719 0.59 1.313 1.281 1.313 l 2.844 0 l 0 -3.531 l -2.281 0 l 0 -1.273 l 3.563 0 l 0 5.148 l 2.375 -7.148 c 0.203 -0.691 0.809 -1.23 1.563 -1.352 m -22.438 0.125 l 4 0 l 0 1.316 l -4 0 c -0.934 0 -1.688 0.785 -1.688 1.75 c 0 0.969 0.75 1.75 1.688 1.75 l 1.031 0 c 0.773 0 1.406 0.672 1.406 1.469 c 0 0.801 -0.633 1.441 -1.406 1.441 l -4 0 l 0 -1.281 l 4 0 c 0.078 0 0.156 -0.074 0.156 -0.156 c 0 -0.082 -0.078 -0.156 -0.156 -0.156 l -1.031 0 c -1.633 0 -2.969 -1.371 -2.969 -3.063 c 0 -1.691 1.336 -3.066 2.969 -3.066 m 7.094 0 l 4.281 0 l 0 1.316 l -4.281 0 c -0.695 0 -1.25 0.578 -1.25 1.281 l 0 4.125 c 0 0.727 0.555 1.313 1.25 1.313 l 4.25 0 l 0 1.281 l -4.25 0 c -1.391 0 -2.5 -1.16 -2.5 -2.594 l 0 -4.125 c 0 -1.438 1.109 -2.598 2.5 -2.598 m 15.656 1.316 c 0.18 0 0.352 0.117 0.406 0.281 l 2 6.125 l -2.938 0 l 0 -1.156 l -0.906 2.75 l -1.469 0 l 2.531 -7.719 c 0.055 -0.164 0.195 -0.281 0.375 -0.281 m -22.75 0.313 l 4 0 l 0 1.281 l -4 0 c -0.082 0 -0.156 0.07 -0.156 0.156 c 0 0.086 0.074 0.156 0.156 0.156 l 1.031 0 c 1.637 0 2.969 1.371 2.969 3.063 c 0 1.688 -1.332 3.063 -2.969 3.063 l -4 0 l 0 -1.313 l 4 0 c 0.938 0 1.719 -0.785 1.719 -1.75 c 0 -0.965 -0.781 -1.75 -1.719 -1.75 l -1.031 -0.031 c -0.773 0 -1.406 -0.637 -1.406 -1.438 c 0 -0.797 0.633 -1.441 1.406 -1.441 m 7.094 0 l 4.281 0 l 0 1.281 l -3.691 0 c -0.297 0 -0.277 0.316 -0.277 0.316 l 3.063 0 l 0 1.277 l -4.313 0 l 0 -1.902 c 0 -0.547 0.402 -0.973 0.938 -0.973 m 7.25 0 l 4.156 0 l 0 1.281 l -3.566 0 c -0.297 0.008 -0.277 0.316 -0.277 0.316 l 0 2.902 c 0 0.168 0.121 0.316 0.277 0.316 l 0.75 0 l 0 -0.316 l -0.75 0 l 0 -1.313 l 2 0 l 0 2.906 l -2.594 0 c -0.531 0 -0.938 -0.449 -0.938 -1 l 0 -4.125 c 0 -0.551 0.406 -0.973 0.938 -0.973 m -8.188 3.191 l 4.313 0 l 0 1.313 l -3.063 0 c 0.004 0.309 0.281 0.316 0.281 0.316 l 3.656 0 l 0 1.281 l -4.25 0 c -0.527 0 -0.938 -0.453 -0.938 -1 m 16.594 -1.785 l -0.441 1.344 l 0.875 0 m -0.438 -1.344" style="fill:#fff;fill-opacity:1;stroke:none;fill-rule:nonzero"/>
    <path d="m 38.03 19.949 c 0.234 0 0.457 -0.098 0.625 -0.27 c 0.168 -0.172 0.258 -0.402 0.258 -0.645 c 0 -0.242 -0.09 -0.473 -0.258 -0.645 c -0.168 -0.172 -0.391 -0.273 -0.625 -0.273 c -0.488 0 -0.883 0.406 -0.883 0.91 c 0 0.242 0.09 0.48 0.258 0.648 c 0.168 0.172 0.391 0.27 0.625 0.27 m -0.758 -0.914 c 0 -0.211 0.074 -0.402 0.219 -0.555 c 0.145 -0.148 0.336 -0.23 0.539 -0.23 c 0.203 0 0.395 0.082 0.539 0.23 c 0.141 0.148 0.223 0.344 0.223 0.555 c 0 0.438 -0.344 0.785 -0.762 0.785 c -0.203 0 -0.395 -0.082 -0.539 -0.227 c -0.145 -0.148 -0.223 -0.348 -0.223 -0.559 m 0.004 0" style="fill:#3d70b3;fill-opacity:1;stroke:none;fill-rule:nonzero"/>
    <path d="m 37.801 19.11 l 0 0.43 l -0.129 0 l 0 -1.012 l 0.363 0 c 0.137 0 0.219 0 0.293 0.059 c 0.074 0.059 0.105 0.141 0.105 0.234 c 0 0.238 -0.188 0.27 -0.234 0.277 l 0.277 0.441 l -0.156 0 l -0.266 -0.43 l -0.254 0 m 0 -0.113 l 0.258 0 c 0.043 0 0.082 0 0.121 -0.012 c 0.09 -0.02 0.121 -0.09 0.121 -0.16 c 0 -0.027 0 -0.098 -0.059 -0.145 c -0.051 -0.043 -0.113 -0.043 -0.188 -0.043 l -0.254 0 m 0 0.359" style="fill:#3d70b3;fill-opacity:1;stroke:none;fill-rule:nonzero"/>
   </g>
  </g>
 </g>
 <g>
  <path d="m 40.03 7.531 c 3.712 4.084 5.969 9.514 5.969 15.469 0 12.703 -10.297 23 -23 23 c -5.954 0 -11.384 -2.256 -15.469 -5.969 4.178 4.291 10.01 6.969 16.469 6.969 c 12.703 0 23 -10.298 23 -23 0 -6.462 -2.677 -12.291 -6.969 -16.469 z" style="opacity:0.1"/>
 </g>
</svg>
