<svg version="1.1" viewBox="0 0 48 48" xmlns="http://www.w3.org/2000/svg">
 <defs>
  <linearGradient id="bg" x2="0" y1="1" y2="47" gradientUnits="userSpaceOnUse">
   <stop style="stop-color:#4a7dbf" offset="0"/>
   <stop style="stop-color:#4073b5" offset="1"/>
  </linearGradient>
 </defs>
 <path d="m36.3 5c5.86 4.06 9.69 10.8 9.69 18.5 0 12.4-10.1 22.5-22.5 22.5-7.67 0-14.4-3.83-18.5-9.69 1.04 1.82 2.31 3.5 3.78 4.97 4.08 3.71 9.51 5.97 15.5 5.97 12.7 0 23-10.3 23-23 0-5.95-2.26-11.4-5.97-15.5-1.47-1.48-3.15-2.74-4.97-3.78zm4.97 3.78c3.85 4.11 6.22 9.64 6.22 15.7 0 12.7-10.3 23-23 23-6.08 0-11.6-2.36-15.7-6.22 4.16 4.14 9.88 6.72 16.2 6.72 12.7 0 23-10.3 23-23 0-6.34-2.58-12.1-6.72-16.2z" style="opacity:.05"/>
 <path d="m41.3 8.78c3.71 4.08 5.97 9.51 5.97 15.5 0 12.7-10.3 23-23 23-5.95 0-11.4-2.26-15.5-5.97 4.11 3.85 9.64 6.22 15.7 6.22 12.7 0 23-10.3 23-23 0-6.08-2.36-11.6-6.22-15.7z" style="opacity:.1"/>
 <path d="m31.2 2.38c8.62 3.15 14.8 11.4 14.8 21.1 0 12.4-10.1 22.5-22.5 22.5-9.71 0-18-6.14-21.1-14.8a23 23 0 0044.9-7 23 23 0 00-16-21.9z" style="opacity:.2"/>
 <circle cx="24" cy="24" r="23" style="fill:url(#bg)"/>
 <path d="m40 7.53c3.71 4.08 5.97 9.51 5.97 15.5 0 12.7-10.3 23-23 23-5.95 0-11.4-2.26-15.5-5.97 4.18 4.29 10 6.97 16.5 6.97 12.7 0 23-10.3 23-23 0-6.46-2.68-12.3-6.97-16.5z" style="opacity:.1"/>
 <path d="m19.5 9-1.5 1.5c0 .828.672 1.5 1.5 1.5 0 0 .655.869.836.838-5.58 1.97-9.32 7.24-9.34 13.2.0147 7.52 5.96 13.7 13.5 14 .171.0242.345.038.523.0371.178.000883.352-.0129.523-.0371 7.51-.281 13.5-6.45 13.5-14-.0153-5.92-3.75-11.2-9.34-13.2l-.189-.311.525-.525h.5c.828 0 1.5-.672 1.5-1.5 0-.828-.672-1.5-1.5-1.5l-1.5 1.5h-8c0-.828-.672-1.5-1.5-1.5zm11.2 6.44c1.1.597 2.11 1.36 2.97 2.27l-2.67.287c.000446-.853-.104-1.72-.303-2.56zm-11.4.0234-.582 3.48c-.921-.36-1.7-.784-2.37-1.23.862-.899 1.86-1.66 2.95-2.25zm15.6 3.81c1.15 1.7 1.84 3.68 2 5.72h-4.93c-.0095-1.31-.0566-2.65-.287-4.1 1.27-.465 2.33-1.03 3.21-1.63zm-19.8.0059c.886.59 1.94 1.16 3.21 1.62l-.287 4.1h-4.93c.17-2.05.863-4.01 2.01-5.72zm-2.01 7.72h4.94l.443 4.03s-3.35 1.67-3.38 1.69c-1.15-1.7-1.84-3.67-2.01-5.72zm18.9 0h4.94l-2.01 5.72-3.38-1.69c.256-1.38.397-2.76.443-4.03zm-13.1 5.98c-.0944-.0864 1.88 4.22 1.88 4.22-.025.0483-3.2-1.63-4.44-2.92.721-.473 1.56-.924 2.56-1.3zm12.2 0c1.01.375 1.84.826 2.56 1.3l-4.44 2.92c.524-.779.955-1.63 1.28-2.45.227-.569.424-1.16.594-1.77z" style="opacity:.1"/>
 <path d="m28 11.6v2.1a12 12 0 018 11.3 12 12 0 01-12 12 12 12 0 01-12-12 12 12 0 018-11.3v-2.12a14 14 0 00-10 13.4 14 14 0 0014 14 14 14 0 0014-14 14 14 0 00-10-13.4z" style="fill:#b8b9b6"/>
 <ellipse cx="24" cy="24" rx="6" ry="14" style="fill:#474747"/>
 <path d="m28 11.6v2.1c.914.335 1.78.781 2.59 1.33-.254-.901-.624-1.75-1.12-2.49l.277-.277c-.569-.26-1.15-.481-1.75-.662zm6.88 5.42c-.174.0211-.34.0878-.48.193-.261.196-.547.39-.846.582.404.53.764 1.09 1.07 1.68.345-.219.673-.441.971-.664.311-.235.457-.629.375-1.01-.0944-.163-.192-.325-.293-.484-.208-.215-.502-.326-.801-.301zm-22.9 7.99c-.554 0-1 .446-1 1s.446 1 1 1h.178c-.115-.661-.174-1.33-.178-2zm24 0c-.0033.67-.0627 1.34-.178 2h2.03c.0959-.662.144-1.33.145-2zm-2.26 7.01c-.402.556-.851 1.08-1.34 1.55.656.331 1.23.687 1.74 1.05.46-.485.885-1 1.27-1.55-.496-.361-1.04-.721-1.67-1.06zm-18.8.812c-.185.127-.375.253-.545.381-.442.331-.533.958-.201 1.4.331.442.958.533 1.4.201.25-.187.521-.373.805-.557-.526-.433-1.01-.91-1.46-1.43zm15.4 2.34c-1.89 1.19-4.08 1.83-6.32 1.84-1.26.000119-2.51-.198-3.71-.586.524.929 1.17 1.8 1.94 2.46.586.0796 1.18.122 1.77.127 1.49-.0091 2.98-.257 4.39-.734.811-.893 1.45-2.02 1.93-3.11z" style="opacity:.1"/>
 <path d="m24 9c-4 0-6 4.17-6 8-.107.32-.2.635-.285.945-1.28-.499-2.28-1.12-3.12-1.75a1 1 0 00-.74-.189 1 1 0 00-.66.391 1 1 0 00.201 1.4c1.01.758 2.28 1.51 3.89 2.1-.231 1.44-.278 2.79-.287 4.1h-6.01c-.554 0-1 .446-1 1s.446 1 1 1h6.02c.046 1.27.188 2.66.443 4.03-1.69.597-3.02 1.38-4.06 2.17a1 1 0 00-.201 1.4 1 1 0 001.4.201c.873-.655 1.94-1.31 3.31-1.82.17.606.366 1.2.594 1.77.98 2.45 2.88 5.26 5.5 5.25 2.62.013 4.52-2.8 5.5-5.25.227-.569.424-1.16.594-1.77 1.37.511 2.43 1.16 3.31 1.82a1 1 0 001.4-.201 1 1 0 00-.201-1.4c-1.05-.784-2.37-1.57-4.06-2.17.256-1.38.397-2.76.443-4.03h6.02c.554 0 1-.446 1-1s-.446-1-1-1h-6.01c-.00951-1.31-.0566-2.65-.287-4.1 1.61-.589 2.88-1.35 3.89-2.1a1 1 0 00.201-1.4 1 1 0 00-1.4-.201c-.833.624-1.84 1.25-3.12 1.75-.0852-.311-.178-.625-.285-.945.002-3.83-2-8-6-8zm0 2c2 0 2.93 1.45 3.5 3-1.05-.628-2.28-.994-3.5-1-1.22.0057-2.45.372-3.5 1 .565-1.55 1.5-3 3.5-3zm-1 4v3.98c-1.28-.0548-2.39-.214-3.38-.445.108-.366.233-.713.381-1.03.756-1.62 1.62-2.32 3-2.5zm2 0c1.38.179 2.24.876 3 2.5.148.318.273.666.381 1.03-.987.232-2.1.391-3.38.445v-3.98zm-5.77 5.48c1.12.262 2.37.444 3.77.502v3.02h-3.99c.0148-1.16.0685-2.37.221-3.52zm9.54 0c.152 1.15.206 2.37.221 3.52h-3.99v-3.02c1.4-.0578 2.65-.24 3.77-.502zm-9.74 5.52h3.97v3.02c-1.32.0542-2.5.218-3.56.453-.222-1.19-.36-2.38-.412-3.47zm5.97 0h3.97c-.052 1.09-.19 2.28-.412 3.47-1.07-.236-2.24-.399-3.56-.453v-3.02zm-2 5.02v5.75c-1.35-.628-2.09-2.46-2.6-3.78-.194-.506-.361-1.04-.514-1.59.92-.199 1.95-.335 3.11-.385zm2 0c1.16.0499 2.19.186 3.11.385-.153.549-.319 1.09-.514 1.59-.507 1.32-1.25 3.15-2.6 3.78v-5.75z" style="fill:#f9f9f9"/>
 <path d="m18.5 8a1.5 1.5 0 00-1.5 1.5 1.5 1.5 0 001.5 1.5h.5l1 1 1-1-1-1v-.5a1.5 1.5 0 00-1.5-1.5zm11 0a1.5 1.5 0 00-1.5 1.5v.5l-1 1 1 1 1-1h.5a1.5 1.5 0 001.5-1.5 1.5 1.5 0 00-1.5-1.5z" style="fill:#f9f9f9"/>
</svg>
