<svg xmlns="http://www.w3.org/2000/svg" viewBox="0 0 48 48">
 <defs>
  <linearGradient id="linearGradient3764" x1="1" x2="47" gradientUnits="userSpaceOnUse" gradientTransform="matrix(0,-1,1,0,-1.5e-6,47.999998)">
   <stop style="stop-color:#e4e4e4;stop-opacity:1"/>
   <stop offset="1" style="stop-color:#eee;stop-opacity:1"/>
  </linearGradient>
 </defs>
 <g>
  <path d="m 36.31 5 c 5.859 4.062 9.688 10.831 9.688 18.5 c 0 12.426 -10.07 22.5 -22.5 22.5 c -7.669 0 -14.438 -3.828 -18.5 -9.688 c 1.037 1.822 2.306 3.499 3.781 4.969 c 4.085 3.712 9.514 5.969 15.469 5.969 c 12.703 0 23 -10.298 23 -23 c 0 -5.954 -2.256 -11.384 -5.969 -15.469 c -1.469 -1.475 -3.147 -2.744 -4.969 -3.781 z m 4.969 3.781 c 3.854 4.113 6.219 9.637 6.219 15.719 c 0 12.703 -10.297 23 -23 23 c -6.081 0 -11.606 -2.364 -15.719 -6.219 c 4.16 4.144 9.883 6.719 16.219 6.719 c 12.703 0 23 -10.298 23 -23 c 0 -6.335 -2.575 -12.06 -6.719 -16.219 z" style="opacity:0.05"/>
  <path d="m 41.28 8.781 c 3.712 4.085 5.969 9.514 5.969 15.469 c 0 12.703 -10.297 23 -23 23 c -5.954 0 -11.384 -2.256 -15.469 -5.969 c 4.113 3.854 9.637 6.219 15.719 6.219 c 12.703 0 23 -10.298 23 -23 c 0 -6.081 -2.364 -11.606 -6.219 -15.719 z" style="opacity:0.1"/>
  <path d="m 31.25 2.375 c 8.615 3.154 14.75 11.417 14.75 21.13 c 0 12.426 -10.07 22.5 -22.5 22.5 c -9.708 0 -17.971 -6.135 -21.12 -14.75 a 23 23 0 0 0 44.875 -7 a 23 23 0 0 0 -16 -21.875 z" style="opacity:0.2"/>
 </g>
 <g>
  <path d="m 24 1 c 12.703 0 23 10.297 23 23 c 0 12.703 -10.297 23 -23 23 -12.703 0 -23 -10.297 -23 -23 0 -12.703 10.297 -23 23 -23 z" style="fill:url(#linearGradient3764);fill-opacity:1"/>
 </g>
 <g>
  <g>
   <g transform="translate(1,1)">
    <g style="opacity:0.1">
     <!-- color: #eeeeee -->
     <g>
      <path d="m 24.5 13 c -1.276 0 -2.32 0.963 -2.471 2.199 c -0.077 0.027 -0.155 0.046 -0.232 0.074 l 0.004 0.008 c -3.599 1.309 -6.292 3.839 -7.613 6.75 c -1.23 0.156 -2.188 1.197 -2.188 2.469 c 0 0.948 0.536 1.764 1.314 2.188 c 0.06 0.878 0.235 1.752 0.568 2.604 c 0.793 2.025 2.278 3.635 4.166 4.73 c -0.03 0.155 -0.049 0.315 -0.049 0.479 c 0 1.379 1.121 2.5 2.5 2.5 c 1 0 1.861 -0.596 2.26 -1.449 c 2.136 0.259 4.43 0.035 6.666 -0.779 c 1.289 -0.469 2.458 -1.101 3.494 -1.846 c 0.187 0.045 0.38 0.074 0.58 0.074 c 1.379 0 2.5 -1.121 2.5 -2.5 c 0 -0.196 -0.027 -0.385 -0.07 -0.568 c 1.901 -2.668 2.553 -5.892 1.51 -8.873 c 0.345 -0.429 0.561 -0.966 0.561 -1.559 c 0 -1.379 -1.121 -2.5 -2.5 -2.5 c -0.27 0 -0.526 0.053 -0.77 0.133 c -2.074 -1.777 -4.938 -2.765 -8.01 -2.748 c -0.411 -0.817 -1.248 -1.385 -2.225 -1.385 z m 2.324 3.4 c 2.436 0.046 4.692 0.868 6.313 2.318 c -0.082 0.247 -0.137 0.507 -0.137 0.781 c 0 1.298 0.997 2.356 2.264 2.477 c 0.673 2.085 0.347 4.297 -0.766 6.234 c -0.306 -0.134 -0.643 -0.211 -0.998 -0.211 c -1.379 0 -2.5 1.121 -2.5 2.5 c 0 0.4 0.104 0.774 0.271 1.109 c -0.773 0.519 -1.631 0.963 -2.568 1.305 c -2 0.728 -4.05 0.892 -5.92 0.578 c -0.389 -0.877 -1.263 -1.492 -2.283 -1.492 c -0.4 0 -0.774 0.104 -1.109 0.271 c -1.489 -0.887 -2.659 -2.177 -3.291 -3.795 c -0.228 -0.583 -0.369 -1.177 -0.439 -1.775 c 0.793 -0.42 1.34 -1.243 1.34 -2.201 c 0 -0.687 -0.279 -1.309 -0.729 -1.762 c 1.043 -2.418 3.258 -4.528 6.252 -5.617 c 0 0 0.002 0 0.002 0 c 0.023 -0.008 0.046 -0.013 0.068 -0.021 c 0.459 0.546 1.139 0.9 1.906 0.9 c 1.061 0 1.962 -0.666 2.324 -1.6 z" transform="translate(-1,-1)" style="fill:#000;fill-opacity:1;stroke:none;fill-rule:nonzero"/>
     </g>
    </g>
   </g>
  </g>
 </g>
 <g>
  <g>
   <!-- color: #eeeeee -->
   <g>
    <path d="m 20.801 14.281 c -6.465 2.352 -10.02 8.637 -7.918 14.01 c 2.105 5.375 9.08 7.832 15.543 5.48 c 6.461 -2.352 10.02 -8.641 7.914 -14.02 c -2.105 -5.375 -9.08 -7.828 -15.543 -5.477 m 0.727 1.848 c 5.266 -1.918 10.891 0.063 12.602 4.434 c 1.711 4.367 -1.152 9.441 -6.422 11.359 c -5.27 1.918 -10.898 -0.066 -12.605 -4.438 c -1.711 -4.367 1.156 -9.438 6.426 -11.355 m 0 0" style="fill:#666;fill-opacity:1;stroke:none;fill-rule:nonzero"/>
    <path d="m 26 14.5 c 0 1.379 -1.121 2.5 -2.5 2.5 c -1.379 0 -2.5 -1.121 -2.5 -2.5 c 0 -1.379 1.121 -2.5 2.5 -2.5 c 1.379 0 2.5 1.121 2.5 2.5 m 0 0" style="fill:#99f;fill-opacity:1;stroke:none;fill-rule:nonzero"/>
    <path d="m 37 18.5 c 0 1.379 -1.121 2.5 -2.5 2.5 c -1.379 0 -2.5 -1.121 -2.5 -2.5 c 0 -1.379 1.121 -2.5 2.5 -2.5 c 1.379 0 2.5 1.121 2.5 2.5 m 0 0" style="fill:#99f;fill-opacity:1;stroke:none;fill-rule:nonzero"/>
    <path d="m 35 29.5 c 0 1.379 -1.121 2.5 -2.5 2.5 c -1.379 0 -2.5 -1.121 -2.5 -2.5 c 0 -1.379 1.121 -2.5 2.5 -2.5 c 1.379 0 2.5 1.121 2.5 2.5 m 0 0" style="fill:#99f;fill-opacity:1;stroke:none;fill-rule:nonzero"/>
    <path d="m 22 33.5 c 0 1.379 -1.121 2.5 -2.5 2.5 c -1.379 0 -2.5 -1.121 -2.5 -2.5 c 0 -1.379 1.121 -2.5 2.5 -2.5 c 1.379 0 2.5 1.121 2.5 2.5 m 0 0" style="fill:#99f;fill-opacity:1;stroke:none;fill-rule:nonzero"/>
    <path d="m 16 23.5 c 0 1.379 -1.121 2.5 -2.5 2.5 c -1.379 0 -2.5 -1.121 -2.5 -2.5 c 0 -1.379 1.121 -2.5 2.5 -2.5 c 1.379 0 2.5 1.121 2.5 2.5 m 0 0" style="fill:#99f;fill-opacity:1;stroke:none;fill-rule:nonzero"/>
   </g>
  </g>
 </g>
 <g>
  <path d="m 40.03 7.531 c 3.712 4.084 5.969 9.514 5.969 15.469 0 12.703 -10.297 23 -23 23 c -5.954 0 -11.384 -2.256 -15.469 -5.969 4.178 4.291 10.01 6.969 16.469 6.969 c 12.703 0 23 -10.298 23 -23 0 -6.462 -2.677 -12.291 -6.969 -16.469 z" style="opacity:0.1"/>
 </g>
</svg>
