<svg version="1.1" viewBox="0 0 48 48" xmlns="http://www.w3.org/2000/svg">
 <defs>
  <linearGradient id="bg" x2="0" y1="1" y2="47" gradientUnits="userSpaceOnUse">
   <stop style="stop-color:#858585" offset="0"/>
   <stop style="stop-color:#7a7a7a" offset="1"/>
  </linearGradient>
 </defs>
 <path d="m36.3 5c5.86 4.06 9.69 10.8 9.69 18.5 0 12.4-10.1 22.5-22.5 22.5-7.67 0-14.4-3.83-18.5-9.69 1.04 1.82 2.31 3.5 3.78 4.97 4.08 3.71 9.51 5.97 15.5 5.97 12.7 0 23-10.3 23-23 0-5.95-2.26-11.4-5.97-15.5-1.47-1.48-3.15-2.74-4.97-3.78zm4.97 3.78c3.85 4.11 6.22 9.64 6.22 15.7 0 12.7-10.3 23-23 23-6.08 0-11.6-2.36-15.7-6.22 4.16 4.14 9.88 6.72 16.2 6.72 12.7 0 23-10.3 23-23 0-6.34-2.58-12.1-6.72-16.2z" style="opacity:.05"/>
 <path d="m41.3 8.78c3.71 4.08 5.97 9.51 5.97 15.5 0 12.7-10.3 23-23 23-5.95 0-11.4-2.26-15.5-5.97 4.11 3.85 9.64 6.22 15.7 6.22 12.7 0 23-10.3 23-23 0-6.08-2.36-11.6-6.22-15.7z" style="opacity:.1"/>
 <path d="m31.2 2.38c8.62 3.15 14.8 11.4 14.8 21.1 0 12.4-10.1 22.5-22.5 22.5-9.71 0-18-6.14-21.1-14.8a23 23 0 0044.9-7 23 23 0 00-16-21.9z" style="opacity:.2"/>
 <circle cx="24" cy="24" r="23" style="fill:url(#bg)"/>
 <path d="m40 7.53c3.71 4.08 5.97 9.51 5.97 15.5 0 12.7-10.3 23-23 23-5.95 0-11.4-2.26-15.5-5.97 4.18 4.29 10 6.97 16.5 6.97 12.7 0 23-10.3 23-23 0-6.46-2.68-12.3-6.97-16.5z" style="opacity:.1"/>
 <path d="m20 12c-3.32 0-6 2.23-6 5v5c0 2.77 2.68 5 6 5 1.54 0 2.94-.48 4-1.27v5.27c0 1.66-1.78 3-4 3s-4-1.34-4-3c0-.552.448-1 1-1s1 .448 1 1 .448 1 1 1 1-.448 1-1c0-1.66-1.34-3-3-3s-3 1.34-3 3c0 2.77 2.68 5 6 5s6-2.23 6-5c0 0 .0019-1.5.0039-2.52 1.06.945 2.46 1.52 4 1.52v5c0 .552.448 1 1 1s1-.448 1-1v-5c3.32 0 6-2.68 6-6 0-3.32-2.23-6-5-6-1.66 0-3 1.34-3 3v7c-2.16 0-3.9-1.69-3.99-3.82-4e-5-.134 9.9e-5-.305 0-.43.0974-2.1 1.39-3.75 2.99-3.75.552 0 1-.448 1-1s-.448-1-1-1c-2.08 0-3.85 1.51-4.61 3.66-.0338.0961-.066.194-.0957.293-.468 1.32-1.65 3.05-4.3 3.05-2.22 0-4-1.34-4-3v-5c0-1.66 1.78-3 4-3s4 1.34 4 3c0 .552-.448 1-1 1s-1-.448-1-1-.448-1-1-1-1 .448-1 1c0 1.66 1.34 3 3 3s3-1.34 3-3c0-2.77-2.68-5-6-5zm13 8c1.66 0 3 1.78 3 4 0 2.22-1.78 4-4 4v-7c0-.552.448-1 1-1z" style="opacity:.1"/>
 <path d="m28 17c-2.77 0-5 2.68-5 6s2.68 6 6 6v5c0 0.552 0.448 1 1 1s1-0.448 1-1v-5c3.32 0 6-2.68 6-6s-2.23-6-5-6c-1.66 0-3 1.34-3 3v7c-2.22 0-4-1.78-4-4s1.34-4 3-4c0.552 0 1-0.448 1-1s-0.448-1-1-1zm4 2c1.66 0 3 1.78 3 4s-1.78 4-4 4v-7c0-0.552 0.448-1 1-1z" style="fill:#f9f9f9"/>
 <path d="m19 11c-3.32 0-6 2.23-6 5v5c0 2.77 2.68 5 6 5 1.54 0 2.94-.48 4-1.27v5.27c0 1.66-1.78 3-4 3s-4-1.34-4-3c0-.552.448-1 1-1s1 .448 1 1 .448 1 1 1 1-.448 1-1c0-1.66-1.34-3-3-3s-3 1.34-3 3c0 2.77 2.68 5 6 5s6-2.23 6-5c0 0 .0219-8.87 0-9l-1.61-.34c-.392 1.34-1.54 3.34-4.39 3.34-2.22 0-4-1.34-4-3v-5c0-1.66 1.78-3 4-3s4 1.34 4 3c0 .552-.448 1-1 1s-1-.448-1-1-.448-1-1-1-1 .448-1 1c0 1.66 1.34 3 3 3s3-1.34 3-3c0-2.77-2.68-5-6-5z" style="fill:#fafafa"/>
</svg>
