<svg xmlns="http://www.w3.org/2000/svg" viewBox="0 0 48 48">
 <defs>
  <linearGradient id="linearGradient3764" x1="1" x2="47" gradientUnits="userSpaceOnUse" gradientTransform="matrix(0,-1,1,0,-1.5e-6,47.999998)">
   <stop style="stop-color:#e4e4e4;stop-opacity:1"/>
   <stop offset="1" style="stop-color:#eee;stop-opacity:1"/>
  </linearGradient>
 </defs>
 <g>
  <path d="m 36.31 5 c 5.859 4.062 9.688 10.831 9.688 18.5 c 0 12.426 -10.07 22.5 -22.5 22.5 c -7.669 0 -14.438 -3.828 -18.5 -9.688 c 1.037 1.822 2.306 3.499 3.781 4.969 c 4.085 3.712 9.514 5.969 15.469 5.969 c 12.703 0 23 -10.298 23 -23 c 0 -5.954 -2.256 -11.384 -5.969 -15.469 c -1.469 -1.475 -3.147 -2.744 -4.969 -3.781 z m 4.969 3.781 c 3.854 4.113 6.219 9.637 6.219 15.719 c 0 12.703 -10.297 23 -23 23 c -6.081 0 -11.606 -2.364 -15.719 -6.219 c 4.16 4.144 9.883 6.719 16.219 6.719 c 12.703 0 23 -10.298 23 -23 c 0 -6.335 -2.575 -12.06 -6.719 -16.219 z" style="opacity:0.05"/>
  <path d="m 41.28 8.781 c 3.712 4.085 5.969 9.514 5.969 15.469 c 0 12.703 -10.297 23 -23 23 c -5.954 0 -11.384 -2.256 -15.469 -5.969 c 4.113 3.854 9.637 6.219 15.719 6.219 c 12.703 0 23 -10.298 23 -23 c 0 -6.081 -2.364 -11.606 -6.219 -15.719 z" style="opacity:0.1"/>
  <path d="m 31.25 2.375 c 8.615 3.154 14.75 11.417 14.75 21.13 c 0 12.426 -10.07 22.5 -22.5 22.5 c -9.708 0 -17.971 -6.135 -21.12 -14.75 a 23 23 0 0 0 44.875 -7 a 23 23 0 0 0 -16 -21.875 z" style="opacity:0.2"/>
 </g>
 <g>
  <path d="m 24 1 c 12.703 0 23 10.297 23 23 c 0 12.703 -10.297 23 -23 23 -12.703 0 -23 -10.297 -23 -23 0 -12.703 10.297 -23 23 -23 z" style="fill:url(#linearGradient3764);fill-opacity:1"/>
 </g>
 <g>
  <g>
   <!-- color: #eeeeee -->
  </g>
 </g>
 <g>
  <path d="m 40.03 7.531 c 3.712 4.084 5.969 9.514 5.969 15.469 0 12.703 -10.297 23 -23 23 c -5.954 0 -11.384 -2.256 -15.469 -5.969 4.178 4.291 10.01 6.969 16.469 6.969 c 12.703 0 23 -10.298 23 -23 0 -6.462 -2.677 -12.291 -6.969 -16.469 z" style="opacity:0.1"/>
 </g>
 <g transform="translate(-0.003629,0.00511065)">
  <g>
   <path d="m 19 14.995 c -2 0 -3.44 1.21 -4.834 2.693 -0.765 0.936 -1.363 1.935 -1.51 2.941 -0.048 0.333 0.077 0.86 0.52 1.031 l 3.523 1.361 0.836 2.852 c 0.053 0.185 0.21 0.321 0.4 0.346 l 2.527 0.299 c 0.117 0.014 0.235 -0.017 0.332 -0.084 l 1.895 -1.557 c 0.077 -0.063 0.172 0.028 0.25 0.063 0.195 0.087 0.574 0.38 1.113 0.367 0.538 -0.013 0.896 -0.349 1.039 -0.484 l 1.293 1.129 c 0.084 0.073 0.18 0.131 0.291 0.145 l 1.986 0.234 c 1.09 0.129 1.338 -0.914 1.338 -1.904 l 0 -4.432 c 0 -2.742 -2 -5 -5 -5 l -6 0 z m 14.705 4.705 c -0.802 0 -1.022 1.087 -0.283 1.398 2.01 0.848 3.11 3.107 3.129 5.557 0.019 2.45 -1.059 4.973 -3.219 6.264 -0.831 0.497 -0.085 1.743 0.746 1.246 2.686 -1.606 3.948 -4.639 3.926 -7.523 -0.023 -2.883 -1.347 -5.743 -4.01 -6.879 -0.09 -0.038 -0.185 -0.063 -0.283 -0.063 l -0.004 0 z m -1.965 3.506 c -0.773 0.068 -0.91 1.125 -0.186 1.404 0.921 0.355 1.335 1.29 1.307 2.338 -0.028 1.048 -0.56 2.06 -1.342 2.424 -0.878 0.409 -0.263 1.723 0.615 1.314 1.428 -0.664 2.14 -2.202 2.18 -3.697 0.04 -1.494 -0.654 -3.098 -2.221 -3.729 -0.112 -0.045 -0.233 -0.065 -0.354 -0.055 z m -18.768 0.922 c -0.703 0.064 -0.973 0.744 -0.973 1.293 l 0 5.074 c 0 2.06 2.442 2.501 3.895 3.258 2.194 1.191 4.105 1.242 5.105 1.242 l 6 0 c 1.435 0 3 -1 3 -2 l 0 -4 c 0 -0.502 -0.451 -1 -1 -1 l -2 0 c -0.737 0 -1.127 0.482 -1.615 0.865 -0.348 0.335 -0.65 0.693 -1.406 0.789 -0.563 0.071 -0.934 -0.189 -1.404 -0.504 -0.454 -0.306 -1.18 -1.15 -1.938 -1.15 l -4.07 0 -1.113 -2.934 c -0.051 -0.133 -0.157 -0.235 -0.291 -0.283 l -1.861 -0.639 c -0.119 -0.018 -0.228 -0.021 -0.328 -0.012" mix-blend-mode="normal" solid-color="#000000" white-space="normal" isolation="auto" solid-opacity="1" style="visibility:visible;shape-rendering:auto;color-interpolation-filters:linearRGB;fill:#000;opacity:0.1;image-rendering:auto;fill-opacity:1;stroke:none;display:inline;color:#000;fill-rule:nonzero;color-rendering:auto;color-interpolation:sRGB"/>
   <path transform="translate(0.003629,-0.00511065)" d="m 32.706 18.706 c -0.802 0 -1.023 1.087 -0.284 1.398 2.01 0.848 3.109 3.107 3.128 5.557 0.019 2.45 -1.059 4.972 -3.218 6.263 -0.831 0.497 -0.084 1.743 0.747 1.246 2.686 -1.606 3.947 -4.639 3.924 -7.523 -0.023 -2.883 -1.346 -5.743 -4.01 -6.879 -0.09 -0.038 -0.186 -0.062 -0.284 -0.062 z" mix-blend-mode="normal" isolation="auto" white-space="normal" solid-color="#000000" solid-opacity="1" style="visibility:visible;shape-rendering:auto;color-interpolation-filters:linearRGB;fill:#709ccf;opacity:1;image-rendering:auto;fill-opacity:1;stroke:none;display:inline;color:#000;fill-rule:nonzero;color-rendering:auto;color-interpolation:sRGB"/>
   <path transform="translate(0.003629,-0.00511065)" d="m 30.741 22.21 c -0.773 0.068 -0.911 1.126 -0.187 1.405 0.921 0.355 1.336 1.291 1.308 2.339 -0.028 1.048 -0.561 2.058 -1.343 2.422 -0.878 0.409 -0.262 1.723 0.616 1.315 1.428 -0.664 2.14 -2.201 2.18 -3.696 0.04 -1.494 -0.654 -3.1 -2.221 -3.73 -0.112 -0.045 -0.233 -0.066 -0.353 -0.055 z" mix-blend-mode="normal" isolation="auto" white-space="normal" solid-color="#000000" solid-opacity="1" style="visibility:visible;shape-rendering:auto;color-interpolation-filters:linearRGB;fill:#709ccf;opacity:1;image-rendering:auto;fill-opacity:1;stroke:none;display:inline;color:#000;fill-rule:nonzero;color-rendering:auto;color-interpolation:sRGB"/>
   <path d="m 18 14 c -2 0 -3.44 1.21 -4.834 2.693 -0.765 0.936 -1.363 1.935 -1.51 2.941 -0.048 0.333 0.077 0.86 0.52 1.031 l 3.523 1.361 0.836 2.852 c 0.053 0.185 0.21 0.321 0.4 0.346 l 2.527 0.299 c 0.117 0.014 0.235 -0.017 0.332 -0.084 l 1.895 -1.557 c 0.077 -0.063 0.172 0.028 0.25 0.063 0.195 0.087 0.574 0.38 1.113 0.367 0.538 -0.013 0.896 -0.349 1.039 -0.484 l 1.293 1.129 c 0.084 0.073 0.18 0.131 0.291 0.145 l 1.986 0.234 c 1.09 0.129 1.338 -0.914 1.338 -1.904 l 0 -4.432 c 0 -2.742 -2 -5 -5 -5 z" transform="translate(0.003629,-0.00511065)" mix-blend-mode="normal" solid-color="#000000" white-space="normal" isolation="auto" solid-opacity="1" style="visibility:visible;shape-rendering:auto;color-interpolation-filters:linearRGB;fill:#535453;opacity:1;image-rendering:auto;fill-opacity:1;stroke:none;display:inline;color:#000;fill-rule:nonzero;color-rendering:auto;color-interpolation:sRGB"/>
   <path d="m 18.16 15 c -2.16 0 -4.561 2.283 -5.523 4.672 c -0.031 0.078 0.023 0.165 0.063 0.18 l 3.564 1.363 c 0.142 0.054 0.248 0.171 0.291 0.316 l 0.816 2.77 1.994 0.234 1.543 -1.301 c 0.218 -0.184 0.488 -0.311 0.754 -0.318 0.266 -0.007 0.491 0.071 0.699 0.158 0.208 0.084 0.376 0.253 0.67 0.271 0.154 -0.007 0.264 -0.105 0.389 -0.223 l -0.043 0.049 c 0.158 -0.197 0.441 -0.372 0.707 -0.355 0.266 0.017 0.429 0.092 0.547 0.195 l 1.301 1.148 1.455 0.191 c 0.472 0.062 0.613 -0.581 0.613 -1.01 l 0 -3.844 c 0 -2.5 -1.51 -4.5 -4 -4.5 m -5.498 2 c 0.828 0 1.5 0.672 1.5 1.5 0 0.828 -0.672 1.5 -1.5 1.5 -0.828 0 -1.5 -0.672 -1.5 -1.5 0 -0.828 0.672 -1.5 1.5 -1.5 m 6 0 c 0.828 0 1.5 0.672 1.5 1.5 0 0.828 -0.672 1.5 -1.5 1.5 -0.828 0 -1.5 -0.672 -1.5 -1.5 0 -0.828 0.672 -1.5 1.5 -1.5" transform="translate(0.003629,-0.00511065)" style="fill:#c3c8cd;fill-opacity:1;stroke:none"/>
   <path d="m 12.305 23.14 c -0.949 -0.145 -1.301 0.654 -1.301 1.281 l 0 5.074 c 0 2.06 2.443 2.501 3.895 3.258 2.194 1.191 4.105 1.242 5.105 1.242 l 6 0 c 1.435 0 3 -1 3 -2 l 0 -4 c 0 -0.502 -0.451 -1 -1 -1 l -2 0 c -0.737 0 -1.128 0.483 -1.616 0.866 -0.348 0.335 -0.648 0.693 -1.405 0.789 -0.563 0.071 -0.935 -0.19 -1.405 -0.505 -0.454 -0.306 -1.181 -1.15 -1.938 -1.15 l -4.069 0 l -1.114 -2.933 c -0.051 -0.133 -0.157 -0.236 -0.291 -0.284" mix-blend-mode="normal" isolation="auto" white-space="normal" solid-color="#000000" solid-opacity="1" style="visibility:visible;shape-rendering:auto;color-interpolation-filters:linearRGB;fill:#535453;opacity:1;image-rendering:auto;fill-opacity:1;stroke:none;display:inline;color:#000;fill-rule:nonzero;color-rendering:auto;color-interpolation:sRGB"/>
   <path d="m 12.262 24.13 c -0.275 -0.038 -0.262 0.422 -0.262 0.422 l 0 4.748 c 0 1.39 2.074 1.941 3.348 2.608 c 1.782 0.932 3.02 1.092 4.652 1.092 l 6 0 c 0.741 0 2 -0.594 2 -1.5 l 0 -2.5 c 0 -0.709 0 -1 -0.7 -1 l -1.3 0 c -0.395 0 -0.561 0.185 -0.928 0.552 l -0.008 0.008 c -0.525 0.54 -1.226 1.028 -2.035 1.08 -0.84 0.054 -1.462 -0.33 -1.992 -0.686 c -0.543 -0.366 -1.037 -0.954 -1.564 -0.954 l -4.242 0 c -0.2 0 -0.378 -0.153 -0.449 -0.341 l -1.156 -3.037 c -0.461 -0.165 -0.915 -0.337 -1.363 -0.49 l 0.002 -0.002 z" transform="translate(0.003629,-0.00511065)" style="fill:#c3c8cd;fill-opacity:1;stroke:none"/>
  </g>
 </g>
</svg>
