<svg version="1.1" viewBox="0 0 48 48" xmlns="http://www.w3.org/2000/svg">
 <defs>
  <linearGradient id="bg" x1="1" x2="47" gradientTransform="matrix(0 -1 1 0 -1.5e-6 48)" gradientUnits="userSpaceOnUse">
   <stop style="stop-color:#e4e4e4" offset="0"/>
   <stop style="stop-color:#eee" offset="1"/>
  </linearGradient>
 </defs>
 <path d="m36.31 5c5.859 4.062 9.688 10.831 9.688 18.5 0 12.426-10.07 22.5-22.5 22.5-7.669 0-14.438-3.828-18.5-9.688 1.037 1.822 2.306 3.499 3.781 4.969 4.085 3.712 9.514 5.969 15.469 5.969 12.703 0 23-10.298 23-23 0-5.954-2.256-11.384-5.969-15.469-1.469-1.475-3.147-2.744-4.969-3.781zm4.969 3.781c3.854 4.113 6.219 9.637 6.219 15.719 0 12.703-10.297 23-23 23-6.081 0-11.606-2.364-15.719-6.219 4.16 4.144 9.883 6.719 16.219 6.719 12.703 0 23-10.298 23-23 0-6.335-2.575-12.06-6.719-16.219z" style="opacity:.05"/>
 <path d="m41.28 8.781c3.712 4.085 5.969 9.514 5.969 15.469 0 12.703-10.297 23-23 23-5.954 0-11.384-2.256-15.469-5.969 4.113 3.854 9.637 6.219 15.719 6.219 12.703 0 23-10.298 23-23 0-6.081-2.364-11.606-6.219-15.719z" style="opacity:.1"/>
 <path d="m31.25 2.375c8.615 3.154 14.75 11.417 14.75 21.13 0 12.426-10.07 22.5-22.5 22.5-9.708 0-17.971-6.135-21.12-14.75a23 23 0 0 0 44.875-7 23 23 0 0 0-16-21.875z" style="opacity:.2"/>
 <path d="m24 1c12.703 0 23 10.297 23 23s-10.297 23-23 23-23-10.297-23-23 10.297-23 23-23z" style="fill:url(#bg)"/>
 <path d="m40.03 7.531c3.712 4.084 5.969 9.514 5.969 15.469 0 12.703-10.297 23-23 23-5.954 0-11.384-2.256-15.469-5.969 4.178 4.291 10.01 6.969 16.469 6.969 12.703 0 23-10.298 23-23 0-6.462-2.677-12.291-6.969-16.469z" style="opacity:.1"/>
 <path d="m18.996 15c-2 0-3.44 1.21-4.834 2.693-0.765 0.936-1.363 1.935-1.51 2.941-0.048 0.333 0.077 0.86 0.52 1.031l3.523 1.361 0.836 2.852c0.053 0.185 0.21 0.321 0.4 0.346l2.527 0.299c0.117 0.014 0.235-0.017 0.332-0.084l1.895-1.557c0.077-0.063 0.172 0.028 0.25 0.063 0.195 0.087 0.574 0.38 1.113 0.367 0.538-0.013 0.896-0.349 1.039-0.484l1.293 1.129c0.084 0.073 0.18 0.131 0.291 0.145l1.986 0.234c1.09 0.129 1.338-0.914 1.338-1.904v-4.432c0-2.742-2-5-5-5h-6zm14.705 4.705c-0.802 0-1.022 1.087-0.283 1.398 2.01 0.848 3.11 3.107 3.129 5.557s-1.059 4.973-3.219 6.264c-0.831 0.497-0.085 1.743 0.746 1.246 2.686-1.606 3.948-4.639 3.926-7.523-0.023-2.883-1.347-5.743-4.01-6.879-0.09-0.038-0.185-0.063-0.283-0.063h-4e-3zm-1.965 3.506c-0.773 0.068-0.91 1.125-0.186 1.404 0.921 0.355 1.335 1.29 1.307 2.338s-0.56 2.06-1.342 2.424c-0.878 0.409-0.263 1.723 0.615 1.314 1.428-0.664 2.14-2.202 2.18-3.697 0.04-1.494-0.654-3.098-2.221-3.729-0.112-0.045-0.233-0.065-0.354-0.055zm-18.768 0.922c-0.703 0.064-0.973 0.744-0.973 1.293v5.074c0 2.06 2.442 2.501 3.895 3.258 2.194 1.191 4.105 1.242 5.105 1.242h6c1.435 0 3-1 3-2v-4c0-0.502-0.451-1-1-1h-2c-0.737 0-1.127 0.482-1.615 0.865-0.348 0.335-0.65 0.693-1.406 0.789-0.563 0.071-0.934-0.189-1.404-0.504-0.454-0.306-1.18-1.15-1.938-1.15h-4.07l-1.113-2.934c-0.051-0.133-0.157-0.235-0.291-0.283l-1.861-0.639c-0.119-0.018-0.228-0.021-0.328-0.012" style="color:#000000;opacity:.1"/>
 <path d="m32.705 18.705c-0.802 0-1.0222 1.0874-0.2832 1.3984 2.01 0.848 3.1099 3.1066 3.1289 5.5566s-1.0598 4.9727-3.2188 6.2637c-0.831 0.497-0.084906 1.7431 0.74609 1.2461 2.686-1.606 3.9488-4.6394 3.9258-7.5234-0.023-2.883-1.3477-5.7429-4.0117-6.8789-0.090001-0.038-0.1852-0.0625-0.2832-0.0625h-0.003906zm-1.9648 3.5059c-0.773 0.068-0.90955 1.1253-0.18555 1.4043 0.921 0.355 1.3346 1.2899 1.3066 2.3379s-0.5598 2.0598-1.3418 2.4238c-0.878 0.409-0.26276 1.7225 0.61524 1.3145 1.428-0.664 2.1397-2.2023 2.1797-3.6973 0.04-1.494-0.6537-3.0985-2.2207-3.7285-0.112-0.045-0.23352-0.065687-0.35352-0.054687z" style="fill:#709ccf"/>
 <path d="m18 14c-2 0-3.44 1.2104-4.834 2.6934-0.765 0.936-1.3628 1.9354-1.5098 2.9414-0.048 0.333 0.076531 0.8583 0.51953 1.0293l3.5234 1.3613 0.83594 2.8535c0.053 0.185 0.21039 0.3207 0.40039 0.3457l2.5273 0.29883c0.117 0.013999 0.23503-0.016985 0.33203-0.083985l1.8945-1.5566c0.077-0.062999 0.172 0.0275 0.25 0.0625 0.195 0.087 0.57428 0.38019 1.1133 0.36719 0.538-0.013 0.89606-0.34938 1.0391-0.48438l1.293 1.1289c0.084 0.073 0.18002 0.13053 0.29102 0.14453l1.9844 0.23438c1.09 0.129 1.3379-0.9143 1.3379-1.9043v-4.4316c0-2.742-2-5-5-5h-5.998zm-6.0273 9.1328c-0.70313 0.064368-0.97266 0.74434-0.97266 1.293v5.0742c0 2.06 2.4425 2.5008 3.8945 3.2578 2.194 1.191 4.1055 1.2422 5.1055 1.2422h6c1.435 0 3-1 3-2v-4c0-0.502-0.451-1-1-1h-2c-0.737 0-1.1272 0.48223-1.6152 0.86523-0.348 0.335-0.64925 0.69306-1.4062 0.78906-0.563 0.071-0.9343-0.18891-1.4043-0.50391-0.454-0.306-1.1805-1.1504-1.9375-1.1504h-4.0703l-1.1133-2.9336c-0.051-0.133-0.15702-0.2352-0.29102-0.2832l-1.8613-0.63867c-0.11862-0.018125-0.22768-0.020914-0.32812-0.011719z" style="fill:#535453"/>
 <path d="m24 14.996-5.8398 0.003906c-2.16 0-4.5614 2.2829-5.5234 4.6719-0.031 0.078 0.0225 0.16469 0.0625 0.17969l3.5645 1.3633c0.142 0.054 0.24802 0.17141 0.29102 0.31641l0.81641 2.7695 1.9941 0.23438 1.543-1.3008c0.218-0.184 0.48791-0.31136 0.75391-0.31836s0.49122 0.071203 0.69922 0.1582c0.208 0.084 0.37592 0.25348 0.66992 0.27148 0.154-7e-3 0.26367-0.10661 0.38867-0.22461l-0.042969 0.050781c0.158-0.197 0.44103-0.37247 0.70703-0.35547s0.42888 0.092313 0.54688 0.19531l1.3008 1.1465 1.4551 0.19141c0.472 0.062 0.61328-0.58076 0.61328-1.0098v-3.8438c0-2.5-1.51-4.5-4-4.5zm-5.498 2c0.828 0 1.5 0.672 1.5 1.5s-0.672 1.5-1.5 1.5-1.5-0.672-1.5-1.5 0.672-1.5 1.5-1.5zm6 0c0.828 0 1.5 0.672 1.5 1.5s-0.672 1.5-1.5 1.5-1.5-0.672-1.5-1.5 0.672-1.5 1.5-1.5zm-12.24 7.1348c-0.275-0.038-0.26172 0.42188-0.26172 0.42188v4.748c0 1.39 2.0737 1.9404 3.3477 2.6074 1.782 0.932 3.0203 1.0918 4.6523 1.0918h6c0.741 0 2-0.594 2-1.5v-2.5c0-0.709 7.81e-4 -1-0.69922-1h-1.3008c-0.395 0-0.56073 0.18573-0.92773 0.55273l-0.007813 0.007813c-0.525 0.54-1.2262 1.0281-2.0352 1.0801-0.84 0.054-1.4622-0.3315-1.9922-0.6875-0.543-0.366-1.0375-0.95312-1.5645-0.95312h-4.2422c-0.2 0-0.37822-0.1538-0.44922-0.3418l-1.1543-3.0371c-0.461-0.165-0.91528-0.33528-1.3633-0.48828l0.001953-0.001953h-0.003906z" style="fill:#c3c8cd"/>
</svg>
