<svg xmlns="http://www.w3.org/2000/svg" viewBox="0 0 48 48">
 <defs>
  <linearGradient id="linearGradient3764" x1="1" x2="47" gradientUnits="userSpaceOnUse" gradientTransform="matrix(0,-1,1,0,-1.5e-6,47.999998)">
   <stop style="stop-color:#e4e4e4;stop-opacity:1"/>
   <stop offset="1" style="stop-color:#eee;stop-opacity:1"/>
  </linearGradient>
 </defs>
 <g>
  <path d="m 36.31 5 c 5.859 4.062 9.688 10.831 9.688 18.5 c 0 12.426 -10.07 22.5 -22.5 22.5 c -7.669 0 -14.438 -3.828 -18.5 -9.688 c 1.037 1.822 2.306 3.499 3.781 4.969 c 4.085 3.712 9.514 5.969 15.469 5.969 c 12.703 0 23 -10.298 23 -23 c 0 -5.954 -2.256 -11.384 -5.969 -15.469 c -1.469 -1.475 -3.147 -2.744 -4.969 -3.781 z m 4.969 3.781 c 3.854 4.113 6.219 9.637 6.219 15.719 c 0 12.703 -10.297 23 -23 23 c -6.081 0 -11.606 -2.364 -15.719 -6.219 c 4.16 4.144 9.883 6.719 16.219 6.719 c 12.703 0 23 -10.298 23 -23 c 0 -6.335 -2.575 -12.06 -6.719 -16.219 z" style="opacity:0.05"/>
  <path d="m 41.28 8.781 c 3.712 4.085 5.969 9.514 5.969 15.469 c 0 12.703 -10.297 23 -23 23 c -5.954 0 -11.384 -2.256 -15.469 -5.969 c 4.113 3.854 9.637 6.219 15.719 6.219 c 12.703 0 23 -10.298 23 -23 c 0 -6.081 -2.364 -11.606 -6.219 -15.719 z" style="opacity:0.1"/>
  <path d="m 31.25 2.375 c 8.615 3.154 14.75 11.417 14.75 21.13 c 0 12.426 -10.07 22.5 -22.5 22.5 c -9.708 0 -17.971 -6.135 -21.12 -14.75 a 23 23 0 0 0 44.875 -7 a 23 23 0 0 0 -16 -21.875 z" style="opacity:0.2"/>
 </g>
 <g>
  <path d="m 24 1 c 12.703 0 23 10.297 23 23 c 0 12.703 -10.297 23 -23 23 -12.703 0 -23 -10.297 -23 -23 0 -12.703 10.297 -23 23 -23 z" style="fill:url(#linearGradient3764);fill-opacity:1"/>
 </g>
 <g>
  <g>
   <!-- color: #eeeeee -->
   <g>
    <path d="m 19.11 15.01 c -1.944 0.106 -3.548 1.196 -4.941 2.68 -0.765 0.936 -1.309 1.943 -1.508 2.939 0.005 0.336 0.121 0.769 0.518 1.031 1.152 0.476 2.351 0.914 3.523 1.363 l 0.838 2.852 c 0.053 0.185 0.21 0.32 0.4 0.346 l 2.525 0.299 c 0.117 0.014 0.237 -0.017 0.334 -0.084 0.616 -0.453 1.185 -0.975 1.75 -1.48 0.097 -0.085 0.11 -0.075 0.145 -0.076 0.084 0.017 0.167 0.042 0.25 0.063 0.188 0.101 0.568 0.377 1.107 0.367 l 0.006 0 c 0.538 -0.016 0.896 -0.349 1.039 -0.484 0.485 0.269 0.956 0.794 1.295 1.127 0.077 0.081 0.178 0.133 0.289 0.146 0.659 0.083 1.332 0.161 1.986 0.234 0.292 0 0.563 -0.059 0.783 -0.201 0.22 -0.142 0.362 -0.359 0.441 -0.561 0.148 -0.377 0.155 -0.786 0.195 -1.141 l 0.207 -3.654 0 -0.014 c 0.038 -1.949 -0.771 -3.352 -1.73 -4.16 -1.047 -0.891 -2.31 -1.529 -3.529 -1.57 -2.025 0 -4.101 -0.007 -5.924 -0.021 z m 14.596 4.699 c -0.8 -0.008 -1.024 1.095 -0.283 1.398 2.01 0.856 3.108 3.106 3.127 5.557 0.019 2.45 -1.058 4.973 -3.219 6.264 -0.831 0.499 -0.083 1.745 0.748 1.246 2.687 -1.605 3.946 -4.64 3.924 -7.523 -0.023 -2.883 -1.345 -5.743 -4.01 -6.879 -0.089 -0.04 -0.186 -0.061 -0.283 -0.063 z m -1.896 3.506 c -0.023 0 -0.046 0.002 -0.068 0.004 -0.77 0.07 -0.912 1.135 -0.188 1.404 0.916 0.367 1.337 1.292 1.309 2.34 -0.028 1.048 -0.561 2.059 -1.344 2.422 -0.938 0.387 -0.283 1.787 0.615 1.314 1.429 -0.662 2.142 -2.201 2.182 -3.695 0.04 -1.494 -0.655 -3.102 -2.223 -3.73 -0.09 -0.038 -0.186 -0.058 -0.283 -0.059 z m -18.506 0.93 c -0.419 -0.003 -0.795 0.202 -0.996 0.471 -0.201 0.269 -0.268 0.567 -0.305 0.811 0.068 1.58 0.154 3.181 0.234 4.768 l 0 0.008 c 0.066 1.189 0.579 1.976 1.295 2.43 0.702 0.45 1.496 0.666 2.367 1.127 2.109 1.106 5.148 1.232 5.148 1.232 1.937 0.002 3.913 0.011 5.578 0.006 0.782 -0.114 1.388 -0.629 1.848 -0.92 l 0.014 -0.008 c 0.539 -0.368 0.986 -0.918 1.072 -1.611 0.003 -0.014 0.006 -0.027 0.008 -0.041 0.033 -1.187 0.193 -2.705 0.063 -3.883 -0.026 -0.236 -0.22 -0.418 -0.457 -0.43 -0.577 -0.024 -1.434 -0.082 -2.063 -0.104 -0.736 0.034 -1.234 0.482 -1.723 0.865 -0.348 0.335 -0.663 0.617 -1.406 0.789 -0.567 -0.006 -0.935 -0.191 -1.404 -0.506 -0.454 -0.306 -1.056 -0.862 -1.938 -1.023 -1.369 -0.033 -2.773 -0.1 -4.068 -0.117 l -1.115 -2.941 c -0.051 -0.133 -0.157 -0.238 -0.291 -0.285 -0.658 -0.25 -1.281 -0.451 -1.861 -0.637 z" mix-blend-mode="normal" isolation="auto" white-space="normal" solid-opacity="1" solid-color="#000000" style="visibility:visible;shape-rendering:auto;color-interpolation-filters:linearRGB;fill:#000;opacity:1;image-rendering:auto;fill-opacity:0.098;stroke:none;display:inline;color:#000;fill-rule:nonzero;color-rendering:auto;color-interpolation:sRGB"/>
   </g>
  </g>
 </g>
 <g>
  <path d="m 40.03 7.531 c 3.712 4.084 5.969 9.514 5.969 15.469 0 12.703 -10.297 23 -23 23 c -5.954 0 -11.384 -2.256 -15.469 -5.969 4.178 4.291 10.01 6.969 16.469 6.969 c 12.703 0 23 -10.298 23 -23 0 -6.462 -2.677 -12.291 -6.969 -16.469 z" style="opacity:0.1"/>
 </g>
 <g transform="translate(-0.003629,0.00511065)">
  <g>
   <path transform="translate(0.003629,-0.00511065)" d="m 32.706 18.706 a 0.726 0.726 0 0 0 -0.284 1.398 c 2.01 0.856 3.109 3.107 3.128 5.557 0.019 2.45 -1.058 4.973 -3.218 6.263 a 0.726 0.726 0 1 0 0.747 1.246 c 2.687 -1.605 3.946 -4.639 3.924 -7.523 -0.023 -2.883 -1.345 -5.744 -4.01 -6.879 a 0.726 0.726 0 0 0 -0.284 -0.062 z" mix-blend-mode="normal" isolation="auto" white-space="normal" solid-opacity="1" solid-color="#000000" style="visibility:visible;shape-rendering:auto;color-interpolation-filters:linearRGB;fill:#709ccf;opacity:1;image-rendering:auto;fill-opacity:1;stroke:none;display:inline;color:#000;fill-rule:nonzero;color-rendering:auto;color-interpolation:sRGB"/>
   <path transform="translate(0.003629,-0.00511065)" d="m 30.741 22.21 a 0.726 0.726 0 0 0 -0.187 1.405 c 0.916 0.367 1.336 1.291 1.308 2.339 -0.028 1.048 -0.56 2.06 -1.343 2.422 a 0.726 0.726 0 1 0 0.616 1.315 c 1.429 -0.662 2.14 -2.201 2.18 -3.696 0.04 -1.494 -0.653 -3.102 -2.221 -3.73 a 0.726 0.726 0 0 0 -0.353 -0.055 z" mix-blend-mode="normal" isolation="auto" white-space="normal" solid-opacity="1" solid-color="#000000" style="visibility:visible;shape-rendering:auto;color-interpolation-filters:linearRGB;fill:#709ccf;opacity:1;image-rendering:auto;fill-opacity:1;stroke:none;display:inline;color:#000;fill-rule:nonzero;color-rendering:auto;color-interpolation:sRGB"/>
   <path d="m 18.11 14.01 c -1.944 0.106 -3.547 1.195 -4.941 2.678 -0.765 0.936 -1.31 1.944 -1.509 2.941 0.005 0.336 0.123 0.769 0.519 1.031 1.152 0.476 2.35 0.914 3.523 1.363 l 0.837 2.851 c 0.053 0.185 0.211 0.321 0.401 0.346 l 2.526 0.298 c 0.117 0.014 0.235 -0.016 0.332 -0.083 0.616 -0.453 1.186 -0.976 1.751 -1.481 0.097 -0.085 0.111 -0.075 0.145 -0.076 0.084 0.017 0.166 0.042 0.249 0.062 0.188 0.101 0.568 0.377 1.107 0.367 l 0.007 0 c 0.538 -0.016 0.895 -0.349 1.038 -0.484 0.485 0.269 0.955 0.795 1.294 1.128 0.077 0.081 0.18 0.132 0.291 0.145 0.659 0.083 1.332 0.162 1.986 0.235 0.292 0 0.562 -0.059 0.782 -0.201 0.22 -0.142 0.363 -0.359 0.443 -0.561 0.148 -0.377 0.154 -0.788 0.194 -1.142 l 0.208 -3.654 0 -0.014 c 0.038 -1.949 -0.771 -3.351 -1.73 -4.159 -1.047 -0.891 -2.311 -1.53 -3.529 -1.571 -2.025 0 -4.101 -0.006 -5.924 -0.021" mix-blend-mode="normal" isolation="auto" white-space="normal" solid-color="#000000" solid-opacity="1" style="visibility:visible;shape-rendering:auto;color-interpolation-filters:linearRGB;fill:#535453;opacity:1;image-rendering:auto;fill-opacity:1;stroke:none;display:inline;color:#000;fill-rule:nonzero;color-rendering:auto;color-interpolation:sRGB"/>
   <path d="m 18.16 14.977 0 0.002 c -2.833 0.61 -4.666 2.238 -5.523 4.693 0.011 0.083 0.03 0.154 0.063 0.18 l 3.564 1.363 c 0.142 0.054 0.249 0.17 0.291 0.316 l 0.816 2.77 1.994 0.234 c 0.397 -0.301 1.089 -0.916 1.543 -1.301 0.215 -0.188 0.488 -0.311 0.754 -0.318 0.266 -0.007 0.491 0.071 0.699 0.158 0.208 0.084 0.376 0.253 0.67 0.271 0.154 -0.007 0.264 -0.103 0.389 -0.221 l -0.043 0.047 c 0.158 -0.197 0.441 -0.37 0.707 -0.354 0.266 0.017 0.409 0.121 0.547 0.195 0.395 0.321 0.882 0.673 1.301 1.148 l 1.736 0.207 c 0.163 0 0.225 -0.025 0.25 -0.041 0.025 -0.017 0.04 -0.033 0.068 -0.104 0.055 -0.141 0.079 -0.481 0.131 -0.879 l 0.201 -3.6 c 0.033 -1.679 -0.636 -2.767 -1.385 -3.398 -0.924 -0.786 -2.043 -1.312 -2.934 -1.342 -1.94 -0.004 -3.894 -0.012 -5.84 -0.029 z" transform="translate(0.003629,-0.00511065)" style="fill:#c3c8cd;fill-opacity:1;stroke:none"/>
   <path d="m 12.305 23.14 c -0.419 -0.003 -0.796 0.201 -0.997 0.471 -0.201 0.269 -0.268 0.566 -0.305 0.81 0.068 1.58 0.155 3.181 0.235 4.768 l 0 0.007 c 0.066 1.189 0.578 1.976 1.294 2.429 0.702 0.45 1.496 0.667 2.367 1.128 2.109 1.106 5.149 1.232 5.149 1.232 1.937 0.002 3.913 0.012 5.578 0.007 0.782 -0.114 1.388 -0.629 1.848 -0.92 l 0.014 -0.007 c 0.539 -0.368 0.987 -0.919 1.073 -1.612 0.003 -0.014 0.005 -0.028 0.007 -0.042 0.033 -1.187 0.193 -2.705 0.062 -3.882 -0.026 -0.236 -0.22 -0.417 -0.457 -0.429 -0.577 -0.024 -1.434 -0.083 -2.062 -0.104 -0.736 0.034 -1.235 0.482 -1.723 0.865 -0.348 0.335 -0.662 0.617 -1.405 0.789 -0.567 -0.006 -0.935 -0.19 -1.405 -0.505 -0.454 -0.306 -1.056 -0.863 -1.938 -1.024 -1.369 -0.033 -2.774 -0.1 -4.069 -0.118 l -1.114 -2.941 c -0.051 -0.133 -0.157 -0.236 -0.291 -0.284 -0.658 -0.25 -1.281 -0.451 -1.862 -0.637" mix-blend-mode="normal" isolation="auto" white-space="normal" solid-color="#000000" solid-opacity="1" style="visibility:visible;shape-rendering:auto;color-interpolation-filters:linearRGB;fill:#535453;opacity:1;image-rendering:auto;fill-opacity:1;stroke:none;display:inline;color:#000;fill-rule:nonzero;color-rendering:auto;color-interpolation:sRGB"/>
   <path d="m 12.262 24.13 c -0.097 0.006 -0.141 0.016 -0.18 0.068 c -0.045 0.06 -0.085 0.199 -0.111 0.354 l 0.234 4.594 c 0.054 0.973 0.341 1.349 0.844 1.668 c 0.524 0.337 1.334 0.584 2.299 1.094 c 1.781 0.934 4.754 1.121 4.754 1.121 l 5.391 0.008 c 0.383 -0.061 0.929 -0.44 1.445 -0.768 c 0.372 -0.253 0.613 -0.588 0.658 -0.92 c 0.032 -1.101 0.114 -2.338 0.063 -3.301 c -0.527 -0.028 -1.106 -0.068 -1.564 -0.084 c -0.395 0 -0.656 0.221 -1.023 0.588 l -0.008 0.008 c -0.525 0.54 -1.23 0.982 -2.035 1.08 c -0.842 0.008 -1.462 -0.33 -1.992 -0.686 c -0.543 -0.366 -1.018 -0.768 -1.564 -0.871 c -1.184 -0.027 -3.124 -0.108 -4.242 -0.111 c -0.2 0 -0.378 -0.125 -0.449 -0.313 l -1.156 -3.037 c -0.461 -0.165 -0.915 -0.337 -1.363 -0.49 l 0.002 -0.002 z" transform="translate(0.003629,-0.00511065)" style="fill:#c3c8cd;fill-opacity:1;stroke:none"/>
   <path d="m 24 18.918 c 0.008 0.449 0.266 0.855 0.672 1.063 0.41 0.211 0.902 0.191 1.293 -0.051 0.387 -0.242 0.609 -0.668 0.578 -1.113 -0.008 -0.445 -0.266 -0.852 -0.672 -1.063 -0.41 -0.211 -0.902 -0.191 -1.293 0.051 -0.387 0.242 -0.609 0.668 -0.578 1.113 m 0 0" style="fill:#535453;fill-opacity:1;stroke:none;fill-rule:nonzero"/>
   <path d="m 17.949 19.02 c 0.008 0.445 0.27 0.852 0.676 1.063 0.406 0.211 0.902 0.188 1.289 -0.051 0.391 -0.242 0.613 -0.668 0.582 -1.113 -0.008 -0.449 -0.266 -0.855 -0.676 -1.066 -0.406 -0.207 -0.902 -0.188 -1.289 0.055 -0.387 0.242 -0.609 0.668 -0.582 1.113 m 0 0" style="fill:#535453;fill-opacity:1;stroke:none;fill-rule:nonzero"/>
  </g>
 </g>
</svg>
