<svg version="1.1" viewBox="0 0 48 48" xmlns="http://www.w3.org/2000/svg">
 <defs>
  <linearGradient id="bg" x1="1" x2="47" gradientTransform="matrix(0 -1 1 0 -1.5e-6 48)" gradientUnits="userSpaceOnUse">
   <stop style="stop-color:#c60606" offset="0"/>
   <stop style="stop-color:#d90606" offset="1"/>
  </linearGradient>
 </defs>
 <path d="m36.31 5c5.859 4.062 9.688 10.831 9.688 18.5 0 12.426-10.07 22.5-22.5 22.5-7.669 0-14.438-3.828-18.5-9.688 1.037 1.822 2.306 3.499 3.781 4.969 4.085 3.712 9.514 5.969 15.469 5.969 12.703 0 23-10.298 23-23 0-5.954-2.256-11.384-5.969-15.469-1.469-1.475-3.147-2.744-4.969-3.781zm4.969 3.781c3.854 4.113 6.219 9.637 6.219 15.719 0 12.703-10.297 23-23 23-6.081 0-11.606-2.364-15.719-6.219 4.16 4.144 9.883 6.719 16.219 6.719 12.703 0 23-10.298 23-23 0-6.335-2.575-12.06-6.719-16.219z" style="opacity:.05"/>
 <path d="m41.28 8.781c3.712 4.085 5.969 9.514 5.969 15.469 0 12.703-10.297 23-23 23-5.954 0-11.384-2.256-15.469-5.969 4.113 3.854 9.637 6.219 15.719 6.219 12.703 0 23-10.298 23-23 0-6.081-2.364-11.606-6.219-15.719z" style="opacity:.1"/>
 <path d="m31.25 2.375c8.615 3.154 14.75 11.417 14.75 21.13 0 12.426-10.07 22.5-22.5 22.5-9.708 0-17.971-6.135-21.12-14.75a23 23 0 0 0 44.875-7 23 23 0 0 0-16-21.875z" style="opacity:.2"/>
 <path d="m24 1c12.703 0 23 10.297 23 23s-10.297 23-23 23-23-10.297-23-23 10.297-23 23-23z" style="fill:url(#bg)"/>
 <g transform="translate(1,1)" style="opacity:.1"></g>
 <path d="m22.662 12.203c-4.0972-0.021054-7.3462 6.9844-5.6621 11.203 4.6527-4.5341 9.0924-3.7298 8.1836-9.4434 0.4906 0.59062 1.1732 1.6048 1.3184 2.9824 0.21502 2.0406-0.73967 4.8682-5.8574 8.0898-0.21147-0.022721-0.42672-0.035156-0.64453-0.035156-3.313 0-6 2.688-6 6 0 3.313 2.688 6 6 6 1.715 0 3.2498-0.723 4.3438-1.875-0.852-1.16-1.3438-2.125-1.3438-4.125s0.49175-2.965 1.3438-4.125c-0.64782-0.68216-1.4526-1.209-2.3555-1.5293 4.622-3.1612 5.7548-6.186 5.5098-8.5117-0.19055-1.8084-0.93905-2.2886-1.5156-2.9277 1.5552 0.23602 2.9593 0.58917 3.6191 1.4473 0.83916 1.0912 1.1424 2.5972 1.1426 4.1582 2.99e-4 2.1906-0.58553 4.362-0.94141 5.498-3.22 0.10504-5.8027 2.7438-5.8027 5.9902 0 3.312 2.687 6 6 6 3.312 0 6-2.687 6-6 0-3.029-2.2497-5.5292-5.168-5.9355 0.37918-1.2409 0.91632-3.3352 0.91602-5.5527-2.3e-4 -1.6891-0.32206-3.4212-1.3574-4.7676-0.97035-1.2618-2.7087-1.9625-5.0508-2.0898-0.33658-0.0183-0.62052-0.02119-0.98828-0.0293-0.5717-0.28082-1.1385-0.41904-1.6895-0.42188z" style="color-rendering:auto;color:#000000;dominant-baseline:auto;font-feature-settings:normal;font-variant-alternates:normal;font-variant-caps:normal;font-variant-ligatures:normal;font-variant-numeric:normal;font-variant-position:normal;image-rendering:auto;isolation:auto;mix-blend-mode:normal;opacity:.1;shape-padding:0;shape-rendering:auto;solid-color:#000000;text-decoration-color:#000000;text-decoration-line:none;text-decoration-style:solid;text-indent:0;text-orientation:mixed;text-transform:none;white-space:normal"/>
 <path d="m22.687 11.606 0.98828 0.78902s1.5999 1.395 1.827 3.5502c0.2271 2.1552-0.84401 5.1886-6.7544 8.6368l0.5052 0.86506c6.0908-3.5534 7.5192-7.018 7.2458-9.6126-0.19055-1.8084-0.93902-2.2882-1.5156-2.9274 1.5552 0.23602 2.9595 0.58829 3.6194 1.4464 0.83916 1.0912 1.1417 2.5982 1.1419 4.1592 4.26e-4 3.1221-1.2111 6.3254-1.2111 6.3254l0.93427 0.35987s1.2808-3.3071 1.2803-6.6852c-2.3e-4 -1.6891-0.32106-3.4219-1.3564-4.7682-0.97035-1.2618-2.7099-1.9627-5.052-2.09-0.56273-0.03059-1.6527-0.04852-1.6527-0.04852z" style="color-rendering:auto;color:#000000;dominant-baseline:auto;fill:#fff;font-feature-settings:normal;font-variant-alternates:normal;font-variant-caps:normal;font-variant-ligatures:normal;font-variant-numeric:normal;font-variant-position:normal;image-rendering:auto;isolation:auto;mix-blend-mode:normal;shape-padding:0;shape-rendering:auto;solid-color:#000000;text-decoration-color:#000000;text-decoration-line:none;text-decoration-style:solid;text-indent:0;text-orientation:mixed;text-transform:none;white-space:normal"/>
 <path d="m19 24c-3.313 0-6 2.688-6 6 0 3.313 2.688 6 6 6 1.715 0 3.25-0.723 4.344-1.875-0.852-1.16-1.344-2.125-1.344-4.125s0.492-2.965 1.344-4.125c-1.094-1.152-2.629-1.875-4.344-1.875" style="fill:#fff"/>
 <path d="m24 12c1.578 6.793-3.098 5.629-8 10.406-1.996-5 2.938-13.914 8-10.406" style="fill:#fff"/>
 <path d="m35 30c0 3.313-2.688 6-6 6-3.313 0-6-2.688-6-6 0-3.313 2.688-6 6-6 3.313 0 6 2.688 6 6" style="fill:#fff"/>
 <path d="m40.03 7.531c3.712 4.084 5.969 9.514 5.969 15.469 0 12.703-10.297 23-23 23-5.954 0-11.384-2.256-15.469-5.969 4.178 4.291 10.01 6.969 16.469 6.969 12.703 0 23-10.298 23-23 0-6.462-2.677-12.291-6.969-16.469z" style="opacity:.1"/>
</svg>
