<svg version="1.1" viewBox="0 0 48 48" xmlns="http://www.w3.org/2000/svg">
 <defs>
  <linearGradient id="bg" x2="0" y1="47" y2="1" gradientUnits="userSpaceOnUse">
   <stop style="stop-color:#f59147" offset="0"/>
   <stop style="stop-color:#f69a59" offset="1"/>
  </linearGradient>
 </defs>
 <path d="m36.31 5c5.859 4.062 9.688 10.831 9.688 18.5 0 12.426-10.07 22.5-22.5 22.5-7.669 0-14.438-3.828-18.5-9.688 1.037 1.822 2.306 3.499 3.781 4.969 4.085 3.712 9.514 5.969 15.469 5.969 12.703 0 23-10.298 23-23 0-5.954-2.256-11.384-5.969-15.469-1.469-1.475-3.147-2.744-4.969-3.781zm4.969 3.781c3.854 4.113 6.219 9.637 6.219 15.719 0 12.703-10.297 23-23 23-6.081 0-11.606-2.364-15.719-6.219 4.16 4.144 9.883 6.719 16.219 6.719 12.703 0 23-10.298 23-23 0-6.335-2.575-12.06-6.719-16.219z" style="opacity:.05"/>
 <path d="m41.28 8.781c3.712 4.085 5.969 9.514 5.969 15.469 0 12.703-10.297 23-23 23-5.954 0-11.384-2.256-15.469-5.969 4.113 3.854 9.637 6.219 15.719 6.219 12.703 0 23-10.298 23-23 0-6.081-2.364-11.606-6.219-15.719z" style="opacity:.1"/>
 <path d="m31.25 2.375c8.615 3.154 14.75 11.417 14.75 21.13 0 12.426-10.07 22.5-22.5 22.5-9.708 0-17.971-6.135-21.12-14.75a23 23 0 0 0 44.875-7 23 23 0 0 0-16-21.875z" style="opacity:.2"/>
 <path d="m24 1c12.703 0 23 10.297 23 23s-10.297 23-23 23-23-10.297-23-23 10.297-23 23-23z" style="fill:url(#bg)"/>
 <g transform="translate(1,1)">
  <g style="opacity:.1">
   <path transform="translate(-1,-1)" d="m35.22 16c-2.27 7.04-12.695 8.483-18.875 0.691 0.062 2.687-0.133 4.697 1.078 6.902l-6.145 5.039c0.469 1.351 1.436 2.287 2.408 2.35 3.736 2.632 11.687 4.594 15.635 1.238l0.768 0.17 2e-3 4e-3h0.012l3.318-0.016c0.378 0.635 2.104 1.751 5.576-0.613-1.695-0.266-4.094-1.234-4.816-1.066-0.255 0.053-0.432 0.218-0.572 0.414l-3-0.4c0.952-1.375 1.537-2.603 1.596-4.834 2.707-2.781 5.03-4.879 3.02-9.879zm-18.875 0.691v-4e-3h-4e-3s3e-3 2e-3 4e-3 4e-3z"/>
   <path d="m11.5 24.883c-0.273 0-0.5 0.262-0.5 0.566 0 0.305 0.227 0.551 0.5 0.551s0.5-0.246 0.5-0.551-0.227-0.566-0.5-0.566"/>
  </g>
 </g>
 <path d="m15.34 15.688c6.18 7.797 16.609 6.355 18.879-0.688 2.01 5-0.313 7.098-3.02 9.879-0.066 2.488-0.758 3.719-1.918 5.309-4.285 5.895-17.309 1.246-18.535-2.359l1.363-3.223c2.328-0.07 3.125-0.098 5.496-0.305-2.547-2.953-2.184-5.25-2.262-8.613" style="fill:#a67240"/>
 <path d="m14.574 25.793c0.82 1.594 0.457 3.289-1.102 4.047-1.195 0.582-2.598-0.488-3.195-2.207-0.602-1.719-0.207-3.5 1.02-4.02 1.223-0.516 2.543 0.754 3.277 2.176" style="fill:#333"/>
 <path d="m19 24.5c0 1.105-0.895 2-2 2s-2-0.895-2-2 0.895-2 2-2 2 0.895 2 2" style="fill:#e5e5e5"/>
 <path d="m24 25.5c0 1.379-1.121 2.5-2.5 2.5s-2.5-1.121-2.5-2.5 1.121-2.5 2.5-2.5 2.5 1.121 2.5 2.5" style="fill:#e5e5e5"/>
 <path d="m18.492 25.06c0 0.551-0.391 1-0.875 1s-0.875-0.449-0.875-1 0.391-1 0.875-1 0.875 0.449 0.875 1" style="fill:#333"/>
 <path d="m23 25.75c0 0.691-0.449 1.25-1 1.25s-1-0.559-1-1.25 0.449-1.25 1-1.25 1 0.559 1 1.25" style="fill:#333"/>
 <path d="m14.832 31.18c5.41 1.121 7.773-0.273 10.664-3.488 0.02 2.734-1.234 4.418-2.645 4.648-2.484 0.41-5.137-0.039-8.02-1.16" style="fill-opacity:.8;fill:#333"/>
 <path d="m23.668 29.539 5.824 0.242-0.391 1.613-6.094-1.359c0.223-0.16 0.43-0.336 0.66-0.496" style="fill:#6b4b28"/>
 <path d="m32.656 30.12-3.164-0.422s-0.688 0.145-0.781 0.719c-0.09 0.578 0.379 0.977 0.379 0.977l3.473-0.016m0.094-1.258" style="fill:#aaa"/>
 <path d="m33.18 29.699c-0.664 0.137-0.926 0.945-0.848 1.477 0.07 0.52 1.781 2.234 5.664-0.41-1.695-0.266-4.094-1.234-4.816-1.066" style="fill:#ba2121"/>
 <path d="m11.5 24.883c-0.273 0-0.5 0.262-0.5 0.566 0 0.305 0.227 0.551 0.5 0.551s0.5-0.246 0.5-0.551-0.227-0.566-0.5-0.566" style="fill:#f9f9f9"/>
 <path d="m17.04 25.11c-0.137 0-0.25 0.113-0.25 0.254 0 0.137 0.113 0.246 0.25 0.246s0.25-0.109 0.25-0.246c0-0.141-0.113-0.254-0.25-0.254" style="fill:#fff"/>
 <path d="m21.75 26c-0.137 0-0.25 0.117-0.25 0.254s0.113 0.246 0.25 0.246 0.25-0.109 0.25-0.246-0.113-0.254-0.25-0.254" style="fill:#fff"/>
 <path d="m33.637 30.27c-0.207-0.039-0.379-0.027-0.387 0.027-8e-3 0.055 0.156 0.133 0.363 0.172 0.207 0.043 0.379 0.035 0.387-0.02 8e-3 -0.059-0.156-0.137-0.363-0.18" style="fill-opacity:.765;fill:#fff"/>
 <path d="m33.762 30.01c-0.137-0.023-0.254-0.012-0.262 0.023-4e-3 0.031 0.102 0.078 0.238 0.102 0.137 0.023 0.254 0.016 0.262-0.02 4e-3 -0.035-0.102-0.082-0.238-0.105" style="fill-opacity:.765;fill:#fff"/>
 <path d="m33.512 30.629c-0.137-0.031-0.254-0.039-0.262-0.016-8e-3 0.027 0.102 0.074 0.238 0.105 0.137 0.035 0.254 0.043 0.262 0.016 8e-3 -0.023-0.098-0.07-0.238-0.105" style="fill-opacity:.765;fill:#fff"/>
 <path d="m30.16 30.08c-0.359-0.047-0.656 4e-3 -0.66 0.113s0.281 0.238 0.641 0.285c0.355 0.051 0.652 0 0.656-0.109 4e-3 -0.105-0.281-0.238-0.637-0.289" style="fill-opacity:.733;fill:#fff"/>
 <path d="m29.367 29.676s-0.691 0.145-0.781 0.719c-0.09 0.578 0.367 0.984 0.367 0.984h0.113c-0.109-0.207-0.219-0.5-0.172-0.855 0.066-0.512 0.465-0.742 0.664-0.824m-0.191-0.023" style="fill:#46403d"/>
 <path d="m40.03 7.531c3.712 4.084 5.969 9.514 5.969 15.469 0 12.703-10.297 23-23 23-5.954 0-11.384-2.256-15.469-5.969 4.178 4.291 10.01 6.969 16.469 6.969 12.703 0 23-10.298 23-23 0-6.462-2.677-12.291-6.969-16.469z" style="opacity:.1"/>
</svg>
