<svg version="1.1" viewBox="0 0 48 48" xmlns="http://www.w3.org/2000/svg">
 <defs>
  <linearGradient id="bg" x2="0" y1="1" y2="47" gradientUnits="userSpaceOnUse">
   <stop style="stop-color:#f4c32a" offset="0"/>
   <stop style="stop-color:#f3bd16" offset="1"/>
  </linearGradient>
 </defs>
 <path d="m36.31 5c5.859 4.062 9.688 10.831 9.688 18.5 0 12.426-10.07 22.5-22.5 22.5-7.669 0-14.438-3.828-18.5-9.688 1.037 1.822 2.306 3.499 3.781 4.969 4.085 3.712 9.514 5.969 15.469 5.969 12.703 0 23-10.298 23-23 0-5.954-2.256-11.384-5.969-15.469-1.469-1.475-3.147-2.744-4.969-3.781zm4.969 3.781c3.854 4.113 6.219 9.637 6.219 15.719 0 12.703-10.297 23-23 23-6.081 0-11.606-2.364-15.719-6.219 4.16 4.144 9.883 6.719 16.219 6.719 12.703 0 23-10.298 23-23 0-6.335-2.575-12.06-6.719-16.219z" style="opacity:.05"/>
 <path d="m41.28 8.781c3.712 4.085 5.969 9.514 5.969 15.469 0 12.703-10.297 23-23 23-5.954 0-11.384-2.256-15.469-5.969 4.113 3.854 9.637 6.219 15.719 6.219 12.703 0 23-10.298 23-23 0-6.081-2.364-11.606-6.219-15.719z" style="opacity:.1"/>
 <path d="m31.25 2.375c8.615 3.154 14.75 11.417 14.75 21.13 0 12.426-10.07 22.5-22.5 22.5-9.708 0-17.971-6.135-21.12-14.75a23 23 0 0 0 44.875-7 23 23 0 0 0-16-21.875z" style="opacity:.2"/>
 <circle cx="24" cy="24" r="23" style="fill:url(#bg)"/>
 <path d="m40.03 7.531c3.712 4.084 5.969 9.514 5.969 15.469 0 12.703-10.297 23-23 23-5.954 0-11.384-2.256-15.469-5.969 4.178 4.291 10.01 6.969 16.469 6.969 12.703 0 23-10.298 23-23 0-6.462-2.677-12.291-6.969-16.469z" style="opacity:.1"/>
 <circle cx="25" cy="25" r="15" style="opacity:.1"/>
 <circle cx="24" cy="24" r="15" style="fill:#f3e830"/>
 <path d="m24.98 15c-5.5152 0.01077-9.9805 4.4848-9.9805 10 0 5.5228 4.4772 10 10 10s10-4.4772 10-10h-12v3h8.3242c-1.1587 2.4428-3.6206 3.9999-6.3242 4-3.866 0-7-3.134-7-7-3.43e-4 -3.8297 3.0769-6.9487 6.9062-7 0.03125-2.09e-4 0.0625-2.09e-4 0.09375 0 1.8309 6.53e-4 3.5887 0.71863 4.8965 2h3.7617c-1.786-3.0934-5.0863-4.9993-8.6582-5z" style="opacity:.1"/>
 <path d="m23.98 14.001c-5.5152 0.01077-9.9805 4.4848-9.9805 10 0 5.5228 4.4772 10 10 10s10-4.4772 10-10h-12v3h8.3242c-1.1587 2.4428-3.6206 3.9999-6.3242 4-3.866 0-7-3.134-7-7-3.43e-4 -3.8297 3.0769-6.9487 6.9062-7 0.03125-2.09e-4 0.0625-2.09e-4 0.09375 0 1.8309 6.53e-4 3.5887 0.71863 4.8965 2h3.7617c-1.786-3.0934-5.0863-4.9993-8.6582-5z" style="fill:#333"/>
</svg>
