<svg version="1.1" viewBox="0 0 48 48" xmlns="http://www.w3.org/2000/svg">
 <defs>
  <linearGradient id="bg" x2="0" y1="1" y2="47" gradientUnits="userSpaceOnUse">
   <stop style="stop-color:#767141" offset="0"/>
   <stop style="stop-color:#69643a" offset="1"/>
  </linearGradient>
 </defs>
 <path d="m36.31 5c5.859 4.062 9.688 10.831 9.688 18.5 0 12.426-10.07 22.5-22.5 22.5-7.669 0-14.438-3.828-18.5-9.688 1.037 1.822 2.306 3.499 3.781 4.969 4.085 3.712 9.514 5.969 15.469 5.969 12.703 0 23-10.298 23-23 0-5.954-2.256-11.384-5.969-15.469-1.469-1.475-3.147-2.744-4.969-3.781zm4.969 3.781c3.854 4.113 6.219 9.637 6.219 15.719 0 12.703-10.297 23-23 23-6.081 0-11.606-2.364-15.719-6.219 4.16 4.144 9.883 6.719 16.219 6.719 12.703 0 23-10.298 23-23 0-6.335-2.575-12.06-6.719-16.219z" style="opacity:.05"/>
 <path d="m41.28 8.781c3.712 4.085 5.969 9.514 5.969 15.469 0 12.703-10.297 23-23 23-5.954 0-11.384-2.256-15.469-5.969 4.113 3.854 9.637 6.219 15.719 6.219 12.703 0 23-10.298 23-23 0-6.081-2.364-11.606-6.219-15.719z" style="opacity:.1"/>
 <path d="m31.25 2.375c8.615 3.154 14.75 11.417 14.75 21.13 0 12.426-10.07 22.5-22.5 22.5-9.708 0-17.971-6.135-21.12-14.75a23 23 0 0 0 44.875-7 23 23 0 0 0-16-21.875z" style="opacity:.2"/>
 <circle cx="24" cy="24" r="23" style="fill:url(#bg)"/>
 <path d="m40.03 7.531c3.712 4.084 5.969 9.514 5.969 15.469 0 12.703-10.297 23-23 23-5.954 0-11.384-2.256-15.469-5.969 4.178 4.291 10.01 6.969 16.469 6.969 12.703 0 23-10.298 23-23 0-6.462-2.677-12.291-6.969-16.469z" style="opacity:.1"/>
 <path d="m12 31c0 3 8.7836 4 13 4s13-2 13-4c0-8-1-16-8-16-17 0-18 11-18 16z" style="opacity:.1"/>
 <path d="m11 30c0 3 8.7836 4 13 4s13-2 13-4c0-8-1-16-8-16-17 0-18 11-18 16z" style="fill:#3d3d3d"/>
 <path d="m22.404 19.705c-1.479 0.002474-2.4043 1.2949-2.4043 1.2949l6 2s0-1-1-2c-0.91109-0.91109-1.7406-1.2519-2.4512-1.291-0.04885-0.0027-0.09682-4e-3 -0.14453-0.0039zm10.523 1.0156c-0.24756 0.009523-0.55277 0.091805-0.92773 0.2793-2 1-3 2-3 2l5-1s0-1.125-0.84375-1.2656c-0.07031-0.01172-0.146-0.01685-0.22852-0.01367zm-16.928 2.2793s1 1 3 2l2 3 2-2h7l1 2 3-3h-10c-3 0-8-2-8-2zm7 6-2 2h-2s4 1 6 1c3 0 5-1 5-1l-1-2-1 2h-5z" style="opacity:.1"/>
 <path d="m15 22s1 1 3 2l2 3 2-2h7l1 2 3-3h-10c-3 0-8-2-8-2zm7 6-2 2h-2s4 1 6 1c3 0 5-1 5-1l-1-2-1 2h-5z" style="fill:#f9f9f9"/>
 <path d="m21.549 18.709c-1.5632-0.086126-2.5488 1.291-2.5488 1.291l6 2s0-1-1-2c-0.91109-0.91109-1.7406-1.2519-2.4512-1.291zm10.607 1.0254c-0.28125-0.04687-0.65625 0.01563-1.1562 0.26562-2 1-3 2-3 2l5-1s0-1.125-0.84375-1.2656z" style="fill:#e4e41b"/>
</svg>
