<svg version="1.1" viewBox="0 0 48 48" xmlns="http://www.w3.org/2000/svg">
 <defs>
  <linearGradient id="bg" x1="1" x2="47" gradientTransform="matrix(0 -1 1 0 -1.5e-6 48)" gradientUnits="userSpaceOnUse">
   <stop style="stop-color:#eeb2b2" offset="0"/>
   <stop style="stop-color:#f2c5c5" offset="1"/>
  </linearGradient>
 </defs>
 <path d="m36.31 5c5.859 4.062 9.688 10.831 9.688 18.5 0 12.426-10.07 22.5-22.5 22.5-7.669 0-14.438-3.828-18.5-9.688 1.037 1.822 2.306 3.499 3.781 4.969 4.085 3.712 9.514 5.969 15.469 5.969 12.703 0 23-10.298 23-23 0-5.954-2.256-11.384-5.969-15.469-1.469-1.475-3.147-2.744-4.969-3.781zm4.969 3.781c3.854 4.113 6.219 9.637 6.219 15.719 0 12.703-10.297 23-23 23-6.081 0-11.606-2.364-15.719-6.219 4.16 4.144 9.883 6.719 16.219 6.719 12.703 0 23-10.298 23-23 0-6.335-2.575-12.06-6.719-16.219z" style="opacity:.05"/>
 <path d="m41.28 8.781c3.712 4.085 5.969 9.514 5.969 15.469 0 12.703-10.297 23-23 23-5.954 0-11.384-2.256-15.469-5.969 4.113 3.854 9.637 6.219 15.719 6.219 12.703 0 23-10.298 23-23 0-6.081-2.364-11.606-6.219-15.719z" style="opacity:.1"/>
 <path d="m31.25 2.375c8.615 3.154 14.75 11.417 14.75 21.13 0 12.426-10.07 22.5-22.5 22.5-9.708 0-17.971-6.135-21.12-14.75a23 23 0 0 0 44.875-7 23 23 0 0 0-16-21.875z" style="opacity:.2"/>
 <path d="m24 1c12.703 0 23 10.297 23 23s-10.297 23-23 23-23-10.297-23-23 10.297-23 23-23z" style="fill:url(#bg)"/>
 <path d="m40.03 7.531c3.712 4.084 5.969 9.514 5.969 15.469 0 12.703-10.297 23-23 23-5.954 0-11.384-2.256-15.469-5.969 4.178 4.291 10.01 6.969 16.469 6.969 12.703 0 23-10.298 23-23 0-6.462-2.677-12.291-6.969-16.469z" style="opacity:.1"/>
 <g transform="translate(1,1)" style="opacity:.1">
  <path transform="translate(-1,-1)" d="m19 12-1 24 2 2h11l2-2v-21c0-1-1-2-1-2v-1z"/>
 </g>
 <path d="m18 11v1l6 1 7-1v-1h-13zm6 24-6 1 1 1h11l1-1-7-1z" style="fill:#808080"/>
 <path d="m18 12h13s1 1 1 2l-1 0.5 1 0.5v19l-1 0.5 1 0.5-1 1h-13l-1-1 1-0.5-1-0.5v-19l1-0.5-1-0.5c0-1 1-2 1-2z" style="fill:#f32525"/>
 <path d="m17 14v1h15v-1zm7.5 3-1.4004 1.4004 1.5312 1.5312c0.44-0.117 0.92453-2e-3 1.2695 0.33398 0.345 0.345 0.45098 0.82953 0.33398 1.2695l1.1973 1.1953c0.44-0.117 0.92258-6.3e-5 1.2676 0.33594 0.515 0.515 0.515 1.3512 0 1.8672-0.515 0.515-1.3512 0.515-1.8672 0-0.345-0.345-0.45098-0.82953-0.33398-1.2695l-1.0645-1.0645-0.4668 4.1992c0.515 0.515 0.515 1.3512 0 1.8672-0.515 0.515-1.3512 0.515-1.8672 0-0.515-0.515-0.515-1.3512 0-1.8672 0.159-0.159 0.35174-0.25931 0.55274-0.32031l0.4668-4.2891c-0.027-0.023-0.06094-0.03164-0.08594-0.05664-0.345-0.345-0.45294-0.82953-0.33594-1.2695l-1.5293-1.5313-4.668 4.668 7 7 7-7zm-7.5 17v1h15v-1z" style="fill:#f9f9f9"/>
</svg>
