<svg version="1.1" viewBox="0 0 48 48" xmlns="http://www.w3.org/2000/svg">
 <defs>
  <linearGradient id="bg" x1="1" x2="47" gradientTransform="matrix(0 -1 1 0 -1.5e-6 48)" gradientUnits="userSpaceOnUse">
   <stop style="stop-color:#e7e7e7" offset="0"/>
   <stop style="stop-color:#f1f1f1" offset="1"/>
  </linearGradient>
 </defs>
 <path d="m36.31 5c5.859 4.062 9.688 10.831 9.688 18.5 0 12.426-10.07 22.5-22.5 22.5-7.669 0-14.438-3.828-18.5-9.688 1.037 1.822 2.306 3.499 3.781 4.969 4.085 3.712 9.514 5.969 15.469 5.969 12.703 0 23-10.298 23-23 0-5.954-2.256-11.384-5.969-15.469-1.469-1.475-3.147-2.744-4.969-3.781zm4.969 3.781c3.854 4.113 6.219 9.637 6.219 15.719 0 12.703-10.297 23-23 23-6.081 0-11.606-2.364-15.719-6.219 4.16 4.144 9.883 6.719 16.219 6.719 12.703 0 23-10.298 23-23 0-6.335-2.575-12.06-6.719-16.219z" style="opacity:.05"/>
 <path d="m41.28 8.781c3.712 4.085 5.969 9.514 5.969 15.469 0 12.703-10.297 23-23 23-5.954 0-11.384-2.256-15.469-5.969 4.113 3.854 9.637 6.219 15.719 6.219 12.703 0 23-10.298 23-23 0-6.081-2.364-11.606-6.219-15.719z" style="opacity:.1"/>
 <path d="m31.25 2.375c8.615 3.154 14.75 11.417 14.75 21.13 0 12.426-10.07 22.5-22.5 22.5-9.708 0-17.971-6.135-21.12-14.75a23 23 0 0 0 44.875-7 23 23 0 0 0-16-21.875z" style="opacity:.2"/>
 <path d="m24 1c12.703 0 23 10.297 23 23s-10.297 23-23 23-23-10.297-23-23 10.297-23 23-23z" style="fill:url(#bg)"/>
 <path d="m40.03 7.531c3.712 4.084 5.969 9.514 5.969 15.469 0 12.703-10.297 23-23 23-5.954 0-11.384-2.256-15.469-5.969 4.178 4.291 10.01 6.969 16.469 6.969 12.703 0 23-10.298 23-23 0-6.462-2.677-12.291-6.969-16.469z" style="opacity:.1"/>
 <path d="m25 10c-8.284 0-15 6.716-15 15 3e-3 6.364 4.03 12.03 10.04 14.14 0.536-0.021 0.963-0.451 0.963-0.992v-2.145h-1c-1.48 0-3.244-0.393-3.791-2-0.729-2.143-2.81-2.667-2.209-3 0.126-0.07 0.256-0.113 0.389-0.133 0.116-0.018 0.235-0.017 0.354-2e-3 0.832 0.104 1.707 0.94 2.258 1.635 0.984 1.242 1.53 1.5 2.594 1.5 1.01 0 1.406-0.25 1.406-0.25 0-0.955 0.436-1.688 1.111-2.16-3.833-0.6-6.611-2.55-6.611-6.59 0-1.937 0.536-3.496 1.449-4.711-0.41-1.41-0.365-2.841 0.051-4.289 1.403 0 2.977 0.763 3.979 1.582 1.223-0.387 2.582-0.582 4.02-0.582 1.435 0 2.797 0.194 4.03 0.578 1-0.817 2.572-1.578 3.973-1.578 0.409 1.423 0.454 2.83 0.066 4.217 0.963 1.225 1.533 2.807 1.533 4.783 0 4.04-2.846 5.993-6.709 6.592 0.674 0.472 1.109 1.204 1.109 2.158v4.395c0 0.541 0.427 0.971 0.963 0.992 6.01-2.106 10.03-7.772 10.04-14.14 4e-3 -8.284-6.716-15-15-15z" style="opacity:.1"/>
 <path d="m24 9c-8.284 0-15 6.716-15 15 3e-3 6.364 4.03 12.03 10.04 14.14 0.536-0.021 0.963-0.451 0.963-0.992v-2.145h-1c-1.48 0-3.244-0.393-3.791-2-0.729-2.143-2.81-2.667-2.209-3 0.126-0.07 0.256-0.113 0.389-0.133 0.116-0.018 0.235-0.017 0.354-2e-3 0.832 0.104 1.707 0.94 2.258 1.635 0.984 1.242 1.53 1.5 2.594 1.5 1.01 0 1.406-0.25 1.406-0.25 0-0.955 0.436-1.688 1.111-2.16-3.833-0.6-6.611-2.55-6.611-6.59 0-1.937 0.536-3.496 1.449-4.711-0.41-1.41-0.365-2.841 0.051-4.289 1.403 0 2.977 0.763 3.979 1.582 1.223-0.387 2.582-0.582 4.02-0.582 1.435 0 2.797 0.194 4.03 0.578 1-0.817 2.572-1.578 3.973-1.578 0.409 1.423 0.454 2.83 0.066 4.217 0.963 1.225 1.533 2.807 1.533 4.783 0 4.04-2.846 5.993-6.709 6.592 0.674 0.472 1.109 1.204 1.109 2.158v4.395c0 0.541 0.427 0.971 0.963 0.992 6.01-2.106 10.03-7.772 10.04-14.14 4e-3 -8.284-6.716-15-15-15z" style="fill:#474747"/>
</svg>
