<svg version="1.1" viewBox="0 0 48 48" xmlns="http://www.w3.org/2000/svg">
 <defs>
  <linearGradient id="bg" x2="0" y1="1" y2="47" gradientUnits="userSpaceOnUse">
   <stop style="stop-color:#454d59" offset="0"/>
   <stop style="stop-color:#3c424e" offset="1"/>
  </linearGradient>
 </defs>
 <path d="m36.3 5c5.86 4.06 9.69 10.8 9.69 18.5 0 12.4-10.1 22.5-22.5 22.5-7.67 0-14.4-3.83-18.5-9.69 1.04 1.82 2.31 3.5 3.78 4.97 4.08 3.71 9.51 5.97 15.5 5.97 12.7 0 23-10.3 23-23 0-5.95-2.26-11.4-5.97-15.5-1.47-1.48-3.15-2.74-4.97-3.78zm4.97 3.78c3.85 4.11 6.22 9.64 6.22 15.7 0 12.7-10.3 23-23 23-6.08 0-11.6-2.36-15.7-6.22 4.16 4.14 9.88 6.72 16.2 6.72 12.7 0 23-10.3 23-23 0-6.34-2.58-12.1-6.72-16.2z" style="opacity:.05"/>
 <path d="m41.3 8.78c3.71 4.08 5.97 9.51 5.97 15.5 0 12.7-10.3 23-23 23-5.95 0-11.4-2.26-15.5-5.97 4.11 3.85 9.64 6.22 15.7 6.22 12.7 0 23-10.3 23-23 0-6.08-2.36-11.6-6.22-15.7z" style="opacity:.1"/>
 <path d="m31.2 2.38c8.62 3.15 14.8 11.4 14.8 21.1 0 12.4-10.1 22.5-22.5 22.5-9.71 0-18-6.14-21.1-14.8a23 23 0 0 0 44.9-7 23 23 0 0 0-16-21.9z" style="opacity:.2"/>
 <circle cx="24" cy="24" r="23" style="fill:url(#bg)"/>
 <path d="m40 7.53c3.71 4.08 5.97 9.51 5.97 15.5 0 12.7-10.3 23-23 23-5.95 0-11.4-2.26-15.5-5.97 4.18 4.29 10 6.97 16.5 6.97 12.7 0 23-10.3 23-23 0-6.46-2.68-12.3-6.97-16.5z" style="opacity:.1"/>
 <path d="m16.2 12c-0.216 0-0.431 0.123-0.512 0.371l-4.71 14.5c-0.144 0.443 0.013 0.929 0.391 1.2l13.6 9.93 13.8-9.93c0.377-0.274 0.535-0.76 0.391-1.2l-4.71-14.5c-0.161-0.496-0.862-0.496-1.02 0l-3.13 9.63h-10.4l-3.13-9.63c-0.081-0.248-0.296-0.371-0.512-0.371" style="opacity:.1"/>
 <path d="m24 37c2.15-5.2 6.46-9.71 5.2-16h-10.4c-0.847 6.04 3.01 10.8 5.2 16" style="fill:#e55a43"/>
 <path d="m15.2 11c-0.216 0-0.431 0.123-0.512 0.371l-3.13 9.63c2.33 0.994 4.65 2.11 7.28 0l-3.13-9.63c-0.0806-0.248-0.296-0.371-0.512-0.371zm17.7 0c-0.216 0-0.431 0.123-0.512 0.371l-3.13 9.63c2.16 1.03 4.38 1.81 7.28 0l-3.13-9.63c-0.0804-0.248-0.296-0.371-0.512-0.371z" style="fill:#e55a43"/>
 <path d="m11.5 21c1.85 6.98 7.62 11.2 12.5 16l-5.2-16h-7.28-0.0195zm12.5 16c5.05-4.56 10.8-8.53 12.5-16h-7.28l-5.22 16z" style="fill:#f6844b"/>
 <path d="m11.5 21-1.58 4.86c-0.144 0.443 0.0138 0.929 0.391 1.2l13.7 9.94-12.5-16z" style="fill:#f6af4b"/>
 <path d="m36.5 21 1.58 4.86c0.144 0.443-0.0138 0.929-0.391 1.2l-13.7 9.94 12.5-16z" style="fill:#f6af4b"/>
</svg>
