<svg version="1.1" viewBox="0 0 48 48" xmlns="http://www.w3.org/2000/svg">
 <defs>
  <linearGradient id="bg" x2="0" y1="1" y2="47" gradientUnits="userSpaceOnUse">
   <stop style="stop-color:#cfedfc" offset="0"/>
   <stop style="stop-color:#bbe6fb" offset="1"/>
  </linearGradient>
 </defs>
 <path d="m36.3 5c5.86 4.06 9.69 10.8 9.69 18.5 0 12.4-10.1 22.5-22.5 22.5-7.67 0-14.4-3.83-18.5-9.69 1.04 1.82 2.31 3.5 3.78 4.97 4.08 3.71 9.51 5.97 15.5 5.97 12.7 0 23-10.3 23-23 0-5.95-2.26-11.4-5.97-15.5-1.47-1.48-3.15-2.74-4.97-3.78zm4.97 3.78c3.85 4.11 6.22 9.64 6.22 15.7 0 12.7-10.3 23-23 23-6.08 0-11.6-2.36-15.7-6.22 4.16 4.14 9.88 6.72 16.2 6.72 12.7 0 23-10.3 23-23 0-6.34-2.58-12.1-6.72-16.2z" style="opacity:.05"/>
 <path d="m41.3 8.78c3.71 4.08 5.97 9.51 5.97 15.5 0 12.7-10.3 23-23 23-5.95 0-11.4-2.26-15.5-5.97 4.11 3.85 9.64 6.22 15.7 6.22 12.7 0 23-10.3 23-23 0-6.08-2.36-11.6-6.22-15.7z" style="opacity:.1"/>
 <path d="m31.2 2.38c8.62 3.15 14.8 11.4 14.8 21.1 0 12.4-10.1 22.5-22.5 22.5-9.71 0-18-6.14-21.1-14.8a23 23 0 0044.9-7 23 23 0 00-16-21.9z" style="opacity:.2"/>
 <circle cx="24" cy="24" r="23" style="fill:url(#bg)"/>
 <path d="m40 7.53c3.71 4.08 5.97 9.51 5.97 15.5 0 12.7-10.3 23-23 23-5.95 0-11.4-2.26-15.5-5.97 4.18 4.29 10 6.97 16.5 6.97 12.7 0 23-10.3 23-23 0-6.46-2.68-12.3-6.97-16.5z" style="opacity:.1"/>
 <path d="m13 14v8c0 3.32 2.68 6 6 6h.0918c.428 2.51 2.4 4.48 4.91 4.91v7.09h2v-7.09c2.51-.428 4.48-2.4 4.91-4.91h.0918c3.32 0 6-2.68 6-6v-8h-2v8l-4.09 4c-.426-2.52-2.4-4.49-4.91-4.91v-7.09h-2v7.09l-5 4.91c-2.22 0-4-1.78-4-4v-8z" style="opacity:.1"/>
 <rect x="23" y="13" width="2" height="26" style="fill:#348bf4"/>
 <path d="m12 13v8c0 3.32 2.68 6 6 6h12c3.32 0 6-2.68 6-6v-8h-2v8c0 2.22-1.78 4-4 4h-12c-2.22 0-4-1.78-4-4v-8z" style="fill:#f86d6d"/>
 <path d="m23 27v5.64c.641.233 1.32.354 2 .359v-6h5c.341 0 .673-.0338.998-.0879-.0102-.671-.133-1.34-.363-1.97-.207.0328-.418.0547-.635.0547h-5z" style="opacity:.1"/>
 <circle cx="24" cy="26" r="6" style="fill:#246cc1"/>
 <circle cx="24" cy="26" r="4" style="fill:#fafafa"/>
 <path d="m24 22a4 4 0 00-4 4 4 4 0 001.74 3.29 4 4 0 01-.74-2.29 4 4 0 014-4 4 4 0 012.29.719 4 4 0 00-3.29-1.72z" style="opacity:.1"/>
</svg>
