<svg version="1.1" viewBox="0 0 48 48" xmlns="http://www.w3.org/2000/svg">
 <defs>
  <linearGradient id="bg" x1="1" x2="47" gradientTransform="matrix(0 -1 1 0 -1.5e-6 48)" gradientUnits="userSpaceOnUse">
   <stop style="stop-color:#706789" offset="0"/>
   <stop style="stop-color:#7a7094" offset="1"/>
  </linearGradient>
 </defs>
 <path d="m36.31 5c5.859 4.062 9.688 10.831 9.688 18.5 0 12.426-10.07 22.5-22.5 22.5-7.669 0-14.438-3.828-18.5-9.688 1.037 1.822 2.306 3.499 3.781 4.969 4.085 3.712 9.514 5.969 15.469 5.969 12.703 0 23-10.298 23-23 0-5.954-2.256-11.384-5.969-15.469-1.469-1.475-3.147-2.744-4.969-3.781zm4.969 3.781c3.854 4.113 6.219 9.637 6.219 15.719 0 12.703-10.297 23-23 23-6.081 0-11.606-2.364-15.719-6.219 4.16 4.144 9.883 6.719 16.219 6.719 12.703 0 23-10.298 23-23 0-6.335-2.575-12.06-6.719-16.219z" style="opacity:.05"/>
 <path d="m41.28 8.781c3.712 4.085 5.969 9.514 5.969 15.469 0 12.703-10.297 23-23 23-5.954 0-11.384-2.256-15.469-5.969 4.113 3.854 9.637 6.219 15.719 6.219 12.703 0 23-10.298 23-23 0-6.081-2.364-11.606-6.219-15.719z" style="opacity:.1"/>
 <path d="m31.25 2.375c8.615 3.154 14.75 11.417 14.75 21.13 0 12.426-10.07 22.5-22.5 22.5-9.708 0-17.971-6.135-21.12-14.75a23 23 0 0 0 44.875-7 23 23 0 0 0-16-21.875z" style="opacity:.2"/>
 <path d="m24 1c12.703 0 23 10.297 23 23s-10.297 23-23 23-23-10.297-23-23 10.297-23 23-23z" style="fill:url(#bg)"/>
 <path d="m40.03 7.531c3.712 4.084 5.969 9.514 5.969 15.469 0 12.703-10.297 23-23 23-5.954 0-11.384-2.256-15.469-5.969 4.178 4.291 10.01 6.969 16.469 6.969 12.703 0 23-10.298 23-23 0-6.462-2.677-12.291-6.969-16.469z" style="opacity:.1"/>
 <path d="m33.746 12.99a0.742 0.742 0 0 0-0.074 4e-3 0.742 0.742 0 0 0-0.52 1.203c1.472 1.874 2.359 4.242 2.359 6.824 0 2.568-0.867 4.916-2.324 6.781a0.745 0.745 0 0 0 1.173 0.915c1.66-2.118 2.64-4.793 2.64-7.697 0-2.92-1.01-5.615-2.68-7.738a0.742 0.742 0 0 0-0.576-0.293zm-17.453 2e-3a0.742 0.742 0 0 0-0.068 2e-3 0.742 0.742 0 0 0-0.553 0.289c-1.672 2.124-2.672 4.817-2.672 7.737 0 2.903 0.991 5.578 2.645 7.695a0.742 0.742 0 1 0 1.168-0.912c-1.457-1.866-2.332-4.214-2.332-6.781 0-2.584 0.89-4.951 2.361-6.824a0.742 0.742 0 0 0-0.549-1.206m1.907 1.946a0.742 0.742 0 0 0-0.618 0.312c-1.191 1.613-1.875 3.613-1.875 5.771 0 2.136 0.685 4.119 1.848 5.723a0.742 0.742 0 1 0 1.197-0.871c-0.985-1.358-1.564-3.03-1.564-4.853 0-1.845 0.578-3.53 1.584-4.893a0.742 0.742 0 0 0-0.572-1.189m13.578 0a0.742 0.742 0 0 0-0.553 1.191c1 1.364 1.576 3.047 1.576 4.893 0 1.818-0.578 3.493-1.563 4.852a0.743 0.743 0 1 0 1.203 0.871c1.162-1.604 1.848-3.587 1.848-5.723 0-2.159-0.684-4.159-1.867-5.771a0.742 0.742 0 0 0-0.645-0.313zm-11.564 2.104a0.742 0.742 0 0 0-0.596 0.361c-0.651 1.044-1.037 2.289-1.037 3.619 0 1.307 0.385 2.535 1.023 3.57a0.742 0.742 0 1 0 1.26-0.781c-0.502-0.814-0.795-1.772-0.795-2.789 0-1.044 0.297-2.01 0.809-2.83a0.742 0.742 0 0 0-0.664-1.15zm9.543 0a0.742 0.742 0 0 0-0.643 1.15c0.514 0.819 0.816 1.786 0.816 2.83 0 1.02-0.288 1.977-0.789 2.789a0.742 0.742 0 1 0 1.26 0.781c0.64-1.038 1.018-2.266 1.018-3.57 0-1.33-0.389-2.574-1.045-3.619a0.742 0.742 0 0 0-0.62-0.363m-4.754 1.96c-1.105 0-2 0.895-2 2 0 0.739 0.404 1.376 1 1.723v15.211c0 0.589 0.445 1.066 1 1.066 0.551 0 0.996-0.476 0.996-1.066v-15.209c0.598-0.346 1.004-0.984 1.004-1.725 0-1.105-0.89-2-2-2" style="opacity:.1"/>
 <path d="m32.746 11.99a0.742 0.742 0 0 0-0.074219 0.003907 0.742 0.742 0 0 0-0.52148 1.2031c1.474 1.873 2.3613 4.2413 2.3613 6.8223 0 2.57-0.86827 4.9182-2.3223 6.7832a0.745 0.745 0 0 0 1.1699 0.91406c1.66-2.118 2.6406-4.7933 2.6406-7.6973 0-2.92-1.0097-5.6133-2.6797-7.7363a0.742 0.742 0 0 0-0.57422-0.29297zm-17.453 0.001954a0.742 0.742 0 0 0-0.06836 0.001953 0.742 0.742 0 0 0-0.55273 0.28906c-1.672 2.124-2.6719 4.8163-2.6719 7.7363 0 2.905 0.99053 5.5803 2.6445 7.6973a0.742 0.742 0 1 0 1.168-0.91406c-1.458-1.866-2.332-4.2142-2.332-6.7832 0-2.582 0.89033-4.9493 2.3613-6.8223a0.742 0.742 0 0 0-0.54883-1.2051zm1.9043 1.9453a0.742 0.742 0 0 0-0.61524 0.3125c-1.191 1.613-1.875 3.6125-1.875 5.7695 0 2.14 0.68466 4.1206 1.8477 5.7246a0.742 0.742 0 1 0 1.1973-0.87109c-0.985-1.358-1.5645-3.0305-1.5645-4.8535 0-1.84 0.57798-3.5267 1.584-4.8887a0.742 0.742 0 0 0-0.57422-1.1934zm13.578 0a0.742 0.742 0 0 0-0.55469 1.1934c1 1.363 1.5781 3.0487 1.5781 4.8887 0 1.82-0.57859 3.4955-1.5586 4.8535a0.743 0.743 0 1 0 1.1992 0.87109c1.163-1.604 1.8496-3.5846 1.8496-5.7246 0-2.157-0.68614-4.1565-1.8691-5.7695a0.742 0.742 0 0 0-0.64453-0.3125zm-11.564 2.1016a0.742 0.742 0 0 0-0.5957 0.36328c-0.651 1.044-1.0371 2.2882-1.0371 3.6172 0 1.309 0.38444 2.5363 1.0234 3.5723a0.742 0.742 0 1 0 1.2598-0.78125c-0.502-0.815-0.79102-1.771-0.79102-2.791 0-1.042 0.29369-2.0091 0.80469-2.8281a0.742 0.742 0 0 0-0.66406-1.1523zm9.543 0a0.742 0.742 0 0 0-0.64453 1.1523c0.515 0.819 0.81836 1.7861 0.81836 2.8281 0 1.02-0.28811 1.979-0.78711 2.791a0.742 0.742 0 1 0 1.2578 0.78125c0.642-1.038 1.0176-2.2663 1.0176-3.5723 0-1.329-0.38592-2.5722-1.0449-3.6172a0.742 0.742 0 0 0-0.61719-0.36328zm-4.7539 1.9609c-1.105 0-2 0.895-2 2 0 0.74055 0.40222 1.3867 1 1.7324v15.201c0 0.589 0.445 1.0664 1 1.0664 0.551 0 0.99609-0.47641 0.99609-1.0664v-15.199c0.59987-0.34518 1.0039-0.99226 1.0039-1.7344 0-1.105-0.895-2-2-2z" style="fill:#f9f9f9"/>
</svg>
