<svg version="1.1" viewBox="0 0 48 48" xmlns="http://www.w3.org/2000/svg">
 <defs>
  <linearGradient id="bg" x1="1" x2="47" gradientTransform="matrix(0 -1 1 0 -1.5e-6 48)" gradientUnits="userSpaceOnUse">
   <stop style="stop-color:#cfcfcf" offset="0"/>
   <stop style="stop-color:#d9d9d9" offset="1"/>
  </linearGradient>
 </defs>
 <path d="m36.31 5c5.859 4.062 9.688 10.831 9.688 18.5 0 12.426-10.07 22.5-22.5 22.5-7.669 0-14.438-3.828-18.5-9.688 1.037 1.822 2.306 3.499 3.781 4.969 4.085 3.712 9.514 5.969 15.469 5.969 12.703 0 23-10.298 23-23 0-5.954-2.256-11.384-5.969-15.469-1.469-1.475-3.147-2.744-4.969-3.781zm4.969 3.781c3.854 4.113 6.219 9.637 6.219 15.719 0 12.703-10.297 23-23 23-6.081 0-11.606-2.364-15.719-6.219 4.16 4.144 9.883 6.719 16.219 6.719 12.703 0 23-10.298 23-23 0-6.335-2.575-12.06-6.719-16.219z" style="opacity:.05"/>
 <path d="m41.28 8.781c3.712 4.085 5.969 9.514 5.969 15.469 0 12.703-10.297 23-23 23-5.954 0-11.384-2.256-15.469-5.969 4.113 3.854 9.637 6.219 15.719 6.219 12.703 0 23-10.298 23-23 0-6.081-2.364-11.606-6.219-15.719z" style="opacity:.1"/>
 <path d="m31.25 2.375c8.615 3.154 14.75 11.417 14.75 21.13 0 12.426-10.07 22.5-22.5 22.5-9.708 0-17.971-6.135-21.12-14.75a23 23 0 0 0 44.875-7 23 23 0 0 0-16-21.875z" style="opacity:.2"/>
 <path d="m24 1c12.703 0 23 10.297 23 23s-10.297 23-23 23-23-10.297-23-23 10.297-23 23-23z" style="fill:url(#bg)"/>
 <g transform="translate(1,1)">
  <g style="opacity:.1">
   <path d="m11.984 15h24.03c0.543 0 0.977 0.441 0.977 0.984v16.03c0 0.543-0.438 0.977-0.977 0.977h-24.03c-0.547 0-0.984-0.438-0.984-0.977v-16.03c0-0.543 0.438-0.984 0.984-0.984"/>
  </g>
 </g>
 <path d="m13 15c-0.87256 6.0602-0.49482 12.034 0 18h22c1.074-5.7115 0.32348-11.908 5e-6 -17.99z" style="fill:#f9f9f9"/>
 <path d="m37 17c-4.9429 2.0472-9.2068 5.028-13 8.656l11 7.344h1c0.547 0 1-0.453 1-1" style="fill:#ccc"/>
 <path d="m35 17v16h1c0.547 0 1-0.453 1-1v-15" style="fill:#0552a7"/>
 <path d="m13.004 14.994-1.0039 0.005859c-0.54299 0.0032-0.99609 0.45309-0.99609 0.99609v16c0 0.547 0.45309 1 0.99609 1h1v-14.67l10.998 7.3242h0.003953l12.998-8.6543v-1c0-0.543-0.45301-0.9929-1-0.99609l-1.0039-0.005859-10.996 7.3438z" style="fill:#0782e9"/>
 <path d="m40.03 7.531c3.712 4.084 5.969 9.514 5.969 15.469 0 12.703-10.297 23-23 23-5.954 0-11.384-2.256-15.469-5.969 4.178 4.291 10.01 6.969 16.469 6.969 12.703 0 23-10.298 23-23 0-6.462-2.677-12.291-6.969-16.469z" style="opacity:.1"/>
</svg>
