<svg version="1.1" viewBox="0 0 48 48" xmlns="http://www.w3.org/2000/svg">
 <defs>
  <linearGradient id="bg" x2="0" y1="1" y2="47" gradientUnits="userSpaceOnUse">
   <stop style="stop-color:#e2dfec" offset="0"/>
   <stop style="stop-color:#d7d3e4" offset="1"/>
  </linearGradient>
 </defs>
 <path d="m36.3 5c5.86 4.06 9.69 10.8 9.69 18.5 0 12.4-10.1 22.5-22.5 22.5-7.67 0-14.4-3.83-18.5-9.69 1.04 1.82 2.31 3.5 3.78 4.97 4.08 3.71 9.51 5.97 15.5 5.97 12.7 0 23-10.3 23-23 0-5.95-2.26-11.4-5.97-15.5-1.47-1.48-3.15-2.74-4.97-3.78zm4.97 3.78c3.85 4.11 6.22 9.64 6.22 15.7 0 12.7-10.3 23-23 23-6.08 0-11.6-2.36-15.7-6.22 4.16 4.14 9.88 6.72 16.2 6.72 12.7 0 23-10.3 23-23 0-6.34-2.58-12.1-6.72-16.2z" style="opacity:.05"/>
 <path d="m41.3 8.78c3.71 4.08 5.97 9.51 5.97 15.5 0 12.7-10.3 23-23 23-5.95 0-11.4-2.26-15.5-5.97 4.11 3.85 9.64 6.22 15.7 6.22 12.7 0 23-10.3 23-23 0-6.08-2.36-11.6-6.22-15.7z" style="opacity:.1"/>
 <path d="m31.2 2.38c8.62 3.15 14.8 11.4 14.8 21.1 0 12.4-10.1 22.5-22.5 22.5-9.71 0-18-6.14-21.1-14.8a23 23 0 0 0 44.9-7 23 23 0 0 0-16-21.9z" style="opacity:.2"/>
 <circle cx="24" cy="24" r="23" style="fill:url(#bg)"/>
 <path d="m25 16-13 7c0 2.48 2.39 4.66 6 5.9v4.1c0 1.66 3.13 3 7 3s7-1.34 7-3v-4.1c3.61-1.24 6-3.42 6-5.9 0-3.87-5.82-7-13-7z" style="opacity:.1"/>
 <path d="m40 7.53c3.71 4.08 5.97 9.51 5.97 15.5 0 12.7-10.3 23-23 23-5.95 0-11.4-2.26-15.5-5.97 4.18 4.29 10 6.97 16.5 6.97 12.7 0 23-10.3 23-23 0-6.46-2.68-12.3-6.97-16.5z" style="opacity:.1"/>
 <path d="m16 18 1 8v6c0 1.66 3.13 3 7 3s7-1.34 7-3v-6l1-8z" style="fill:#463191"/>
 <path d="m16 18 1 8v2.52c2.21 0.929 4.98 1.48 8 1.48 2.16 0 4.2-0.285 6-0.789v-3.21l-4-0.125v-1.88h3l-2-2 1.35-1.35c0.955 0.325 1.71 0.754 2.16 1.25l0.486-3.9zm4.65 2.65 1.35 1.35-2 2h3v1.88c-2.89-0.369-5-1.52-5-2.88 0-0.952 1.04-1.8 2.65-2.35z" style="opacity:.1"/>
 <path d="m37 22c0-3.87-5.82-7-13-7s-13 3.13-13 7l3 1 3-1c0-1.66 3.13-3 7-3s7 1.34 7 3l3 1z" style="fill:#7059b5"/>
 <path d="m27 19.3v-2.29l-2 2s1.09 0.104 2 0.289zm2.22 0.711c0.181 0.0869 0.353 0.178 0.51 0.273l0.273-0.273z" style="opacity:.1"/>
 <path d="m22 16v3h-3l2 2-2 2h3v3l2-2 2 2v-3h3l-2-2 2-2h-3v-3l-2 2z" style="fill:#f0ee7f"/>
 <path d="m11 22c0 3.87 5.82 7 13 7s13-3.13 13-7h-6c0 1.66-3.13 3-7 3s-7-1.34-7-3z" style="fill:#7059b5"/>
</svg>
