<svg version="1.1" viewBox="0 0 48 48" xmlns="http://www.w3.org/2000/svg">
 <defs>
  <linearGradient id="bg" x2="0" y1="47" y2="1" gradientUnits="userSpaceOnUse">
   <stop style="stop-color:#a8363a" offset="0"/>
   <stop style="stop-color:#b73b3f" offset="1"/>
  </linearGradient>
 </defs>
 <path d="m36.31 5c5.859 4.062 9.688 10.831 9.688 18.5 0 12.426-10.07 22.5-22.5 22.5-7.669 0-14.438-3.828-18.5-9.688 1.037 1.822 2.306 3.499 3.781 4.969 4.085 3.712 9.514 5.969 15.469 5.969 12.703 0 23-10.298 23-23 0-5.954-2.256-11.384-5.969-15.469-1.469-1.475-3.147-2.744-4.969-3.781zm4.969 3.781c3.854 4.113 6.219 9.637 6.219 15.719 0 12.703-10.297 23-23 23-6.081 0-11.606-2.364-15.719-6.219 4.16 4.144 9.883 6.719 16.219 6.719 12.703 0 23-10.298 23-23 0-6.335-2.575-12.06-6.719-16.219z" style="opacity:.05"/>
 <path d="m41.28 8.781c3.712 4.085 5.969 9.514 5.969 15.469 0 12.703-10.297 23-23 23-5.954 0-11.384-2.256-15.469-5.969 4.113 3.854 9.637 6.219 15.719 6.219 12.703 0 23-10.298 23-23 0-6.081-2.364-11.606-6.219-15.719z" style="opacity:.1"/>
 <path d="m31.25 2.375c8.615 3.154 14.75 11.417 14.75 21.13 0 12.426-10.07 22.5-22.5 22.5-9.708 0-17.971-6.135-21.12-14.75a23 23 0 0 0 44.875-7 23 23 0 0 0-16-21.875z" style="opacity:.2"/>
 <path d="m24 1c12.703 0 23 10.297 23 23s-10.297 23-23 23-23-10.297-23-23 10.297-23 23-23z" style="fill:url(#bg)"/>
 <path d="m40.03 7.531c3.712 4.084 5.969 9.514 5.969 15.469 0 12.703-10.297 23-23 23-5.954 0-11.384-2.256-15.469-5.969 4.178 4.291 10.01 6.969 16.469 6.969 12.703 0 23-10.298 23-23 0-6.462-2.677-12.291-6.969-16.469z" style="opacity:.1"/>
 <path d="m25 10a1.25 1.1 0 0 0-1.25 1.0996 1.25 1.1 0 0 0 0.62109 0.94922 4 3.75 0 0 0-3.3711 3.7012 4 3.75 0 0 0 2.3301 3.4023c-2.3638 0.41044-4.5919 1.6609-6.1523 3.4219a0.75006 0.75001 0 0 0-0.72852-0.57422 0.75006 0.75001 0 0 0-0.75 0.75 0.75006 0.75001 0 0 0 0.75 0.75c-0.86613 1.2635-1.397 2.7218-1.4453 4.2852a1.6 1.5 0 0 0-1.4043-0.78516 1.6 1.5 0 0 0-1.5996 1.5 1.6 1.5 0 0 0 1.5996 1.5 1.6 1.5 0 0 0 1.4297-0.83008c0.13454 2.179 0.65409 3.8112 1.5371 4.9297a1 1 0 0 0-0.56641 0.90039 1 1 0 0 0 1 1 1 1 0 0 0 0.95508-0.70898c0.84544 0.47539 1.8622 0.70898 3.0449 0.70898 3 0 4-2.5 4-2.5s1 2.5 4 2.5c1.1822 0 2.1993-0.2331 3.0449-0.70898a1 1 0 0 0 0.95508 0.70898 1 1 0 0 0 1-1 1 1 0 0 0-0.56836-0.90039c0.88317-1.1182 1.4041-2.7498 1.5391-4.9277a1.6 1.5 0 0 0 1.4297 0.82812 1.6 1.5 0 0 0 1.5996-1.5 1.6 1.5 0 0 0-1.5996-1.5 1.6 1.5 0 0 0-1.4043 0.78125c-0.047947-1.5623-0.57954-3.0185-1.4453-4.2812a0.75006 0.75001 0 0 0 0.75-0.75 0.75006 0.75001 0 0 0-0.75-0.75 0.75006 0.75001 0 0 0-0.72852 0.57227c-1.5606-1.7599-3.7891-3.0096-6.1523-3.4199a4 3.75 0 0 0 2.3301-3.4023 4 3.75 0 0 0-3.375-3.6992 1.25 1.1 0 0 0 0.625-0.95117 1.25 1.1 0 0 0-1.25-1.0996z" style="opacity:.1"/>
 <path d="m24 18c-5 0-10 4-10.01 9 0 5.504 2.118 8 6.01 8 3 0 4-2.5 4-2.5s1 2.5 4 2.5c3.888 0 6.01-2.496 6.01-8-6e-3 -5-5.01-9-10.01-9" style="fill:#2c2c2c"/>
 <ellipse cx="24" cy="10.1" rx="1.25" ry="1.1" style="fill:#2c2c2c;stroke-width:.038668"/>
 <ellipse cx="15.45" cy="21.75" rx=".75006" ry=".75001" style="fill:#2c2c2c;stroke-width:.038668"/>
 <ellipse cx="32.55" cy="21.75" rx=".75006" ry=".75001" style="fill:#2c2c2c;stroke-width:.038668"/>
 <ellipse cx="12.6" cy="27.5" rx="1.6" ry="1.5" style="fill:#2c2c2c"/>
 <ellipse cx="35.4" cy="27.5" rx="1.6" ry="1.5" style="fill:#2c2c2c"/>
 <circle cx="16" cy="34" r="1" style="fill:#2c2c2c"/>
 <circle cx="32" cy="34" r="1" style="fill:#2c2c2c"/>
 <ellipse cx="24" cy="14.75" rx="4" ry="3.75" style="fill:#2c2c2c"/>
</svg>
