<svg xmlns="http://www.w3.org/2000/svg" viewBox="0 0 48 48">
 <defs>
  <linearGradient id="linearGradient3826" x1="-24.814" x2="11.492" gradientUnits="userSpaceOnUse">
   <stop style="stop-color:#9cb6d3;stop-opacity:1"/>
   <stop offset="1" style="stop-color:#abc1d9;stop-opacity:1"/>
  </linearGradient>
 </defs>
 <g>
  <path d="m 36.31 5 c 5.859 4.062 9.688 10.831 9.688 18.5 c 0 12.426 -10.07 22.5 -22.5 22.5 c -7.669 0 -14.438 -3.828 -18.5 -9.688 c 1.037 1.822 2.306 3.499 3.781 4.969 c 4.085 3.712 9.514 5.969 15.469 5.969 c 12.703 0 23 -10.298 23 -23 c 0 -5.954 -2.256 -11.384 -5.969 -15.469 c -1.469 -1.475 -3.147 -2.744 -4.969 -3.781 z m 4.969 3.781 c 3.854 4.113 6.219 9.637 6.219 15.719 c 0 12.703 -10.297 23 -23 23 c -6.081 0 -11.606 -2.364 -15.719 -6.219 c 4.16 4.144 9.883 6.719 16.219 6.719 c 12.703 0 23 -10.298 23 -23 c 0 -6.335 -2.575 -12.06 -6.719 -16.219 z" style="opacity:0.05"/>
  <path d="m 41.28 8.781 c 3.712 4.085 5.969 9.514 5.969 15.469 c 0 12.703 -10.297 23 -23 23 c -5.954 0 -11.384 -2.256 -15.469 -5.969 c 4.113 3.854 9.637 6.219 15.719 6.219 c 12.703 0 23 -10.298 23 -23 c 0 -6.081 -2.364 -11.606 -6.219 -15.719 z" style="opacity:0.1"/>
  <path d="m 31.25 2.375 c 8.615 3.154 14.75 11.417 14.75 21.13 c 0 12.426 -10.07 22.5 -22.5 22.5 c -9.708 0 -17.971 -6.135 -21.12 -14.75 a 23 23 0 0 0 44.875 -7 a 23 23 0 0 0 -16 -21.875 z" style="opacity:0.2"/>
 </g>
 <path d="m 11.492 34.983 a 18.15 15.356 0 1 1 -36.31 0 18.15 15.356 0 1 1 36.31 0 z" transform="matrix(0,-1.2670402,1.4977925,0,-28.397352,15.560224)" style="fill:url(#linearGradient3826);fill-opacity:1;stroke:none;fill-rule:nonzero"/>
 <g>
  <path d="m 40.03 7.531 c 3.712 4.084 5.969 9.514 5.969 15.469 0 12.703 -10.297 23 -23 23 c -5.954 0 -11.384 -2.256 -15.469 -5.969 4.178 4.291 10.01 6.969 16.469 6.969 c 12.703 0 23 -10.298 23 -23 0 -6.462 -2.677 -12.291 -6.969 -16.469 z" style="opacity:0.1"/>
 </g>
 <g transform="translate(4.8845858e-4,4.2158599e-4)">
  <g>
   <g transform="translate(1,1)">
    <g style="opacity:0.1">
     <!-- color: #f7b754 -->
     <g>
      <path d="m 25 11 c -4.144 0 -6.855 2.382 -8.137 5.176 c -1.596 -0.05 -3.192 -0.102 -4.783 -0.176 c -0.586 -0.031 -1.145 0.648 -1.066 1.098 c 1.01 6.68 1.063 12.92 0 19.803 c -0.074 0.453 0.48 1.121 1.066 1.098 l 25.836 0 c 0.598 0.023 1.148 -0.645 1.078 -1.098 c -1.063 -6.879 -1.078 -13.201 0 -19.803 c 0.078 -0.453 -0.48 -1.133 -1.078 -1.098 c -1.598 0.087 -3.185 0.136 -4.773 0.188 c -1.28 -2.8 -3.995 -5.188 -8.143 -5.188 z m 0 1 c 3.2 0 5.576 1.981 6.875 4.236 c -4.614 0.123 -9.191 0.108 -13.742 -0.016 c 1.301 -2.25 3.674 -4.221 6.867 -4.221 z" transform="translate(-1.0004885,-1.0004216)" style="fill:#000;fill-opacity:1;stroke:none;fill-rule:nonzero"/>
     </g>
    </g>
   </g>
  </g>
 </g>
 <g>
  <path d="m 11.08 15 c -0.586 -0.031 -1.145 0.648 -1.066 1.098 1.01 6.68 1.063 12.918 0 19.801 -0.074 0.453 0.48 1.121 1.066 1.098 8.617 0 17.227 0 25.836 0 0.598 0.023 1.148 -0.645 1.078 -1.098 -1.063 -6.879 -1.078 -13.199 0 -19.801 0.078 -0.453 -0.48 -1.133 -1.078 -1.098 -8.738 0.473 -17.32 0.395 -25.836 0 m 0 0" style="fill:#f8ecde;fill-opacity:1;stroke:none;fill-rule:nonzero"/>
  <path d="m 17 19.5 c 0 0.828 -0.672 1.5 -1.5 1.5 -0.828 0 -1.5 -0.672 -1.5 -1.5 0 -0.828 0.672 -1.5 1.5 -1.5 0.828 0 1.5 0.672 1.5 1.5 m 0 0" style="fill:#a9946f;fill-opacity:1;stroke:none;fill-rule:nonzero"/>
  <path d="m 34 19.5 c 0 0.828 -0.672 1.5 -1.5 1.5 -0.828 0 -1.5 -0.672 -1.5 -1.5 0 -0.828 0.672 -1.5 1.5 -1.5 0.828 0 1.5 0.672 1.5 1.5 m 0 0" style="fill:#a9946f;fill-opacity:1;stroke:none;fill-rule:nonzero"/>
  <path d="m 15.5 20 c -0.5 0 -0.5 -0.578 -0.5 -1 0 -4.01 3 -9 9 -9 5.996 0 9 4.988 9 9 0 0.422 0 1 -0.5 1 -0.5 0 -0.5 -0.578 -0.5 -1 0 -3.168 -3 -8 -8 -8 -5 0 -8 4.832 -8 8 0 0.422 0 1 -0.496 1 m 0 0" style="fill:#e5d6be;fill-opacity:1;stroke:none;fill-rule:nonzero"/>
  <path d="m 28.838 20.388 c -3.143 0 -3.729 4.167 -1.958 4.167 1.771 0 5.101 -4.167 1.958 -4.167 m -4.995 0.514 c -1.771 0.216 -1.171 3.088 -0.23 3.14 0.941 0.052 1.999 -3.355 0.23 -3.14 m -2.955 1.133 c -0.079 0.007 -0.181 0.041 -0.271 0.075 -1.424 0.544 -0.223 2.78 0.575 2.63 0.747 -0.144 0.856 -2.818 -0.309 -2.701 m -2.226 1.75 c -0.124 -0.003 -0.239 0.055 -0.384 0.144 -1.137 0.729 0.366 2.468 1.038 2.195 0.586 -0.239 0.212 -2.311 -0.654 -2.339 m 6.492 1.349 c -2.438 -0.038 -5.633 1.116 -6.18 3.4 -0.593 2.468 2.434 5.879 5.608 5.879 1.561 0 3.348 -1.301 3.684 -2.958 0.26 -1.263 -2.996 -0.763 -2.879 0.075 0.144 1 -0.812 1.486 -1.726 0.839 -2.91 -2.058 4.81 -3.068 4.3 -5.879 c -0.158 -0.877 -1.338 -1.332 -2.804 -1.352 m 0 -0.003" style="fill:#527fb2;fill-opacity:1;stroke:none;fill-rule:nonzero"/>
 </g>
</svg>
