<svg version="1.1" viewBox="0 0 48 48" xmlns="http://www.w3.org/2000/svg">
 <defs>
  <linearGradient id="bg" x2="0" y1="1" y2="47" gradientUnits="userSpaceOnUse">
   <stop style="stop-color:#fab766" offset="0"/>
   <stop style="stop-color:#f9ad52" offset="1"/>
  </linearGradient>
 </defs>
 <path d="m36.31 5c5.859 4.062 9.688 10.831 9.688 18.5 0 12.426-10.07 22.5-22.5 22.5-7.669 0-14.438-3.828-18.5-9.688 1.037 1.822 2.306 3.499 3.781 4.969 4.085 3.712 9.514 5.969 15.469 5.969 12.703 0 23-10.298 23-23 0-5.954-2.256-11.384-5.969-15.469-1.469-1.475-3.147-2.744-4.969-3.781zm4.969 3.781c3.854 4.113 6.219 9.637 6.219 15.719 0 12.703-10.297 23-23 23-6.081 0-11.606-2.364-15.719-6.219 4.16 4.144 9.883 6.719 16.219 6.719 12.703 0 23-10.298 23-23 0-6.335-2.575-12.06-6.719-16.219z" style="opacity:.05"/>
 <path d="m41.28 8.781c3.712 4.085 5.969 9.514 5.969 15.469 0 12.703-10.297 23-23 23-5.954 0-11.384-2.256-15.469-5.969 4.113 3.854 9.637 6.219 15.719 6.219 12.703 0 23-10.298 23-23 0-6.081-2.364-11.606-6.219-15.719z" style="opacity:.1"/>
 <path d="m31.25 2.375c8.615 3.154 14.75 11.417 14.75 21.13 0 12.426-10.07 22.5-22.5 22.5-9.708 0-17.971-6.135-21.12-14.75a23 23 0 0 0 44.875-7 23 23 0 0 0-16-21.875z" style="opacity:.2"/>
 <g style="fill:#fea">
  <path d="m24 1c12.703 0 23 10.297 23 23s-10.297 23-23 23-23-10.297-23-23 10.297-23 23-23z" style="fill:url(#bg)"/>
 </g>
 <path d="m40.03 7.531c3.712 4.084 5.969 9.514 5.969 15.469 0 12.703-10.297 23-23 23-5.954 0-11.384-2.256-15.469-5.969 4.178 4.291 10.01 6.969 16.469 6.969 12.703 0 23-10.298 23-23 0-6.462-2.677-12.291-6.969-16.469z" style="opacity:.1"/>
 <rect x="12" y="12" width="26" height="26" rx="3" style="opacity:.1"/>
 <rect x="11" y="11" width="26" height="26" rx="3" style="fill:#3d4d52"/>
 <path d="m30 13c2.7615 0 5 2.2385 5 5s-2.2385 5-5 5-5-2.2385-5-5 2.2385-5 5-5z" style="fill:#616161"/>
 <g transform="matrix(.21739 0 0 .21739 24.783 12.783)">
  <path transform="matrix(4.6 0 0 4.6 -114 -58.802)" d="m28.186 15.4-0.68555 0.72656 1.4434 1.2734-1.4434 1.2734 0.68555 0.72656 2.2148-2-2.2148-2zm1.8145 3.5996v1h3v-1h-3z" style="fill:#e3e3e3"/>
  <path d="m40.03 7.531c3.712 4.084 5.969 9.514 5.969 15.469 0 12.703-10.297 23-23 23-5.954 0-11.384-2.256-15.469-5.969 4.178 4.291 10.01 6.969 16.469 6.969 12.703 0 23-10.298 23-23 0-6.462-2.677-12.291-6.969-16.469z" style="opacity:.1"/>
 </g>
 <path d="m18 13c2.7615 0 5 2.2385 5 5s-2.2385 5-5 5-5-2.2385-5-5 2.2385-5 5-5z" style="fill:#dd5938"/>
 <g transform="matrix(.21739 0 0 .21739 12.783 12.783)">
  <path d="m40.03 7.531c3.712 4.084 5.969 9.514 5.969 15.469 0 12.703-10.297 23-23 23-5.954 0-11.384-2.256-15.469-5.969 4.178 4.291 10.01 6.969 16.469 6.969 12.703 0 23-10.298 23-23 0-6.462-2.677-12.291-6.969-16.469z" style="opacity:.1"/>
 </g>
 <path d="m15 16.218v0.7821l3 2-0.17383-2.5002-0.21722-0.49991h-2.391c-0.10861 0-0.21722 0.10861-0.21722 0.21722z" style="fill:#ff8f00"/>
 <rect x="15.4" y="16.6" width="2.5003" height=".99983" style="fill:#fffdf0"/>
 <path d="m17.826 16.501-0.217 0.499h-2.609v3h6v-3.267c0-0.116-0.108-0.232-0.217-0.232z" style="fill:#ffca28"/>
 <path d="m18 25c-2.7614 0-5 2.2386-5 5 0.0049 1.5949 0.77039 3.0917 2.0605 4.0293l2.4395 0.4707 3.832-0.7793c1.0594-0.94689 1.6659-2.2998 1.668-3.7207-6.49e-4 -0.52197-0.083027-1.0406-0.24414-1.5371l-2.4414-2.8945c-0.7144-0.37323-1.5084-0.56822-2.3145-0.56836z" style="fill:#1f9ad1"/>
 <path d="m17.031 25.107a5 5 0 0 0-1.1543 0.36914c-0.059877 0.098201-0.090681 0.21131-0.076172 0.33398-0.24794 0.36362 0.30029 0.42084 0.41797 0.13281 0.34181-0.1874 0.8646-0.49688 0.94922-0.82226-0.045723-0.008815-0.090583-0.0117-0.13672-0.013672zm1.3359 0.076172c-0.2071-0.0113-0.39544 0.17802-0.052735 0.09375 0.047-0.01696 0.1288-0.007009 0.14062-0.074219-0.028932-0.011174-0.058305-0.017917-0.08789-0.019531zm1.2949 0.10156c-0.22383 0.045522-0.35254 0.50866-0.16797 0.25195 0.004031-0.16598 0.29454-0.071929 0.29492-0.20312a5 5 0 0 0-0.12695-0.048828zm0.65234 0.2832c-0.16328 0.10055-0.44018-0.04298-0.50781 0.14258-0.25876-0.069521-0.89893 0.43146-0.88281 0.12695-0.03992-0.31725-0.79312-0.21028-0.92383 0.13281-0.329 0.2466-0.012639 0.29088 0.14062 0.42578 0.11338-0.12156 0.24362-0.75908 0.32031-0.28125 0.40273 0.14189-0.3098 0.54977-0.52539 0.3418-0.16356 0.24532-0.66223 0.31022-0.46875 0.60156-0.32896 0.0037-0.51265 0.57001-0.078125 0.45898 0.21362-0.25949 0.60318-0.65265 0.79297-0.14453 0.28715 0.08579-0.29558-0.4932 0.064453-0.26758 0.09595 0.14188 0.32613 0.64679 0.3457 0.1875 0.23232 0.0766 0.17737-0.5454 0.42578-0.24414 0.10426-0.25978 0.49792 0.33402 0.15039 0.18359-0.32445-0.02041-0.63403 0.37457-0.11328 0.35938 0.2259 0.3023-0.48047 0.32058-0.60547 0.2832-0.36292 0.12691-0.47921-0.61262-0.91016-0.28125-0.45866 0.18243-0.875 0.68064-0.8125 1.1953-0.04128 0.56281 0.47202 0.7587 0.92774 0.63477 0.48778 0.0803 0.26492 0.63916 0.44531 0.9668-0.01219 0.47584 0.05144 1.2064 0.42383 1.4434 0.56992-0.13105 0.55962-0.87468 0.8418-1.2578-0.12297-0.57982 0.33086-0.93744 0.52539-1.3906-0.36551-0.14641-0.67261-0.57473-0.80273-1.0176 0.21035-0.22402 0.31948 1.0873 0.81836 0.67773 0.37456-0.09255 0.41491-0.6662-0.017578-0.61523-0.20042-0.24384-0.10926-0.38777 0.08789-0.12109 0.40406 0.10712 0.95719 0.16062 1 0.69531 0.017801 0.27153 0.29272 0.6231 0.29688 0.125 0.03347-0.41778 0.65058-0.70791 0.71875-0.18555 0.18992-0.04513 0.35456 0.67154 0.62109 0.36719 0.09163-0.19183-0.28218-0.73578-0.023437-0.58008 0.052392 0.10449 0.11977 0.042427 0.16602-0.068359a5 5 0 0 0-2.4414-2.8945zm-4.9297 0.17578a5 5 0 0 0-0.13477 0.083984c0.045642 0.087259 0.24886 0.035281 0.13477-0.083984zm1.6309 0.10938c-0.031254-0.002099-0.074057 0.002264-0.13477 0.015625l-0.029297-0.001953h-0.02539c-0.01582 0.32544 0.40823 0.001018 0.18945-0.013672zm-1.8613 0.046875a5 5 0 0 0-0.16406 0.12305c0.02889 0.044176 0.093864 0.068834 0.19141 0.013671l0.019531-0.044921 0.009766-0.064454c-0.020509-0.011669-0.038919-0.02032-0.056641-0.027343zm-0.25391 0.18945a5 5 0 0 0-0.375 0.33203c-7.28e-4 0.001234-0.001224 0.002677-0.001953 0.003906-0.056311 0.09493-0.11703 0.17639-0.20508 0.20312a5 5 0 0 0-0.24414 0.29297c0.026924 0.1892 0.080082 0.36692-0.027344 0.23438-0.041349-0.025778-0.082329-0.03652-0.12109-0.037109a5 5 0 0 0-0.46875 0.79492c0.12728 0.04631 0.3737 0.066246 0.33203 0.31055 0.10925-0.53765 0.57257-0.93157 1.0273-1.1875-0.05316-0.38965 0.27823-0.42194 0.47266-0.12305 0.26208-0.20275-0.18394-0.5585-0.23047-0.62695-0.12734 0.020333-0.11471-0.11281-0.1582-0.19726zm2.541 0.17383c-0.14573 0.16493 0.038227 0.72084 0.15625 0.31445-0.02914-0.11477-0.095247-0.21469-0.15625-0.31445zm-0.17188 0.26172c-0.21165 0.16585 0.20454 0.1796 0 0zm2.4258 0.41016c0.15553 0.15566 0.31374 0.84085-0.029296 0.39258-0.08065-0.11516-0.16398-0.33316 0.029296-0.39258zm-1.7539 0.26367c-0.23395 0.17453 0.17376 0.31532 0 0zm0.20117 0.26953c-0.11928 0.17216 0.23226 0.08273 0 0zm-4.3633 0.92969c-0.31312 0.02637 0.46468 0.36336 0.13672 0.021484l-0.058594-0.021484c-0.031218-0.001291-0.05725-0.001759-0.078125 0zm-0.31836 0.089843c-0.12168 0.013332-0.20978 0.063175-0.26367 0.12695a5 5 0 0 0-0.050782 0.23633c0.027542 0.086122 0.10543 0.16275 0.23633 0.19727 0.10512 0.35728 0.57989 0.17542 0.35352 0.58398-0.18759 0.59401 0.31868 0.97185 0.47266 1.459 0.0069 0.64009 0.026908 1.3514 0.46289 1.8652 0.42922 0.17743-0.24106-0.72745 0.27344-0.87305 0.1601-0.38328 0.46385-0.76869 0.68945-1.1426 0.09266-0.44837 0.41642-1.0196-0.28711-1.082-0.40858-0.2656-0.67557-0.83692-1.2812-0.77539-0.34046 0.28933-0.66145-0.12604-0.58594-0.43359 0.06218-0.04168 0.058699-0.14296-0.019531-0.16211zm8.6758 0.70508c-0.03565 0.22309 0.46484 0.73387 0.21484 0.24219-0.067699-0.08381-0.14913-0.15667-0.21484-0.24219zm-0.79688 0.013672c-0.24464 0.17034 0.19588 0.2795 0 0zm1.625 0.20508c-0.34929 0.08066-0.31066 0.78045 0.035156 0.57422a5 5 0 0 0-0.035156-0.57422zm-0.85156 0.054688c-1.77e-4 0.39773 0.49605 0.95462 0.84766 0.80664-0.43636-0.10435-0.53278-0.55414-0.84766-0.80664zm-2.3281 1.0781c-0.24093 0.11712-0.3879 0.95967-0.050781 0.57422 0.07303-0.16446 0.21645-0.42444 0.050781-0.57422zm3.0938 0.48438c-0.14316 0.11172-0.17926 0.4168-0.1582 0.58398a5 5 0 0 0 0.1582-0.58398zm-7.4902 2.5742c-0.13933 0.090779-0.2777 0.27553-0.32812 0.42578a5 5 0 0 0 2.9395 0.9707 5 5 0 0 0 3.332-1.2793c-0.14518-0.096753-0.7672 0.049802-0.92969 0.12305-0.26369 0.0735-0.48685 0.18649-0.46484-0.044922-0.44739-0.21979-0.77195 0.10516-1.2324 0.12891-0.57773 0.05025-1.1931-0.090128-1.7266 0.20508-0.44295 0.075471-1.0145 0.16132-1.3926-0.14062-0.11788-0.11271-0.069243-0.28898-0.19727-0.38867z" style="fill:#abd6ec"/>
 <g transform="matrix(.21739 0 0 .21739 12.783 24.782)">
  <path d="m40.03 7.531c3.712 4.084 5.969 9.514 5.969 15.469 0 12.703-10.297 23-23 23-5.954 0-11.384-2.256-15.469-5.969 4.178 4.291 10.01 6.969 16.469 6.969 12.703 0 23-10.298 23-23 0-6.462-2.677-12.291-6.969-16.469z" style="opacity:.1"/>
 </g>
 <path d="m30.334 25.014c-0.117 2.728 1.9716 4.2935 4.5996 5.8145 0.045-0.27 0.068359-0.54512 0.068359-0.82812 0-2.649-2.062-4.8153-4.668-4.9863zm-4.4766 2.1934c-0.537 0.797-0.85547 1.758-0.85547 2.791 0 2.761 2.237 5 4.998 5 0.412 0 0.81131-0.048578 1.1953-0.14258-1.6357-1.9257-3.5312-5.1216-5.3379-7.6484z" style="fill:#ffb910"/>
 <path d="m30 25c-1.726 0-3.245 0.872-4.143 2.201 1e-3 2e-3 -1e-3 5e-3 0 7e-3 0.926 3.188 3.191 6.106 5.339 7.649 1.921-0.471 3.406-2.055 3.736-4.03-1.942-1.741-3.435-3.502-4.599-5.815-0.11-7e-3 -0.221-0.014-0.333-0.014z" style="fill:#f9f9f9"/>
 <path d="m29 28v4l3-2" style="fill:#4d4d4d"/>
 <g transform="matrix(.21737 0 0 .21737 24.783 24.784)">
  <path d="m40.03 7.531c3.712 4.084 5.969 9.514 5.969 15.469 0 12.703-10.297 23-23 23-5.954 0-11.384-2.256-15.469-5.969 4.178 4.291 10.01 6.969 16.469 6.969 12.703 0 23-10.298 23-23 0-6.462-2.677-12.291-6.969-16.469z" style="opacity:.1"/>
 </g>
</svg>
