<svg version="1.1" viewBox="0 0 48 48" xmlns="http://www.w3.org/2000/svg" xmlns:xlink="http://www.w3.org/1999/xlink">
 <defs>
  <linearGradient id="linearGradient845" x2="0" y1="47" y2="1" gradientUnits="userSpaceOnUse">
   <stop style="stop-color:#5c5c64" offset="0"/>
   <stop style="stop-color:#66666e" offset="1"/>
  </linearGradient>
  <linearGradient id="linearGradient853" x2="0" y1="47" y2="1" gradientUnits="userSpaceOnUse">
   <stop style="stop-color:#dedcd9" offset="0"/>
   <stop style="stop-color:#e8e6e4" offset="1"/>
  </linearGradient>
 </defs>
 <path d="m36.31 5c5.859 4.062 9.688 10.831 9.688 18.5 0 12.426-10.07 22.5-22.5 22.5-7.669 0-14.438-3.828-18.5-9.688 1.037 1.822 2.306 3.499 3.781 4.969 4.085 3.712 9.514 5.969 15.469 5.969 12.703 0 23-10.298 23-23 0-5.954-2.256-11.384-5.969-15.469-1.469-1.475-3.147-2.744-4.969-3.781zm4.969 3.781c3.854 4.113 6.219 9.637 6.219 15.719 0 12.703-10.297 23-23 23-6.081 0-11.606-2.364-15.719-6.219 4.16 4.144 9.883 6.719 16.219 6.719 12.703 0 23-10.298 23-23 0-6.335-2.575-12.06-6.719-16.219z" style="opacity:.05"/>
 <path d="m41.28 8.781c3.712 4.085 5.969 9.514 5.969 15.469 0 12.703-10.297 23-23 23-5.954 0-11.384-2.256-15.469-5.969 4.113 3.854 9.637 6.219 15.719 6.219 12.703 0 23-10.298 23-23 0-6.081-2.364-11.606-6.219-15.719z" style="opacity:.1"/>
 <path d="m31.25 2.375c8.615 3.154 14.75 11.417 14.75 21.13 0 12.426-10.07 22.5-22.5 22.5-9.708 0-17.971-6.135-21.12-14.75a23 23 0 0 0 44.875-7 23 23 0 0 0-16-21.875z" style="opacity:.2"/>
 <path d="m24 1c-12.703 0-23 10.297-23 23l12 1 11-1 1-11zm0 23-1 11 1 12c12.703 0 23-10.297 23-23l-12-1z" style="fill-rule:evenodd;fill:url(#linearGradient845)"/>
 <path d="m24 1v23h23c0-12.703-10.297-23-23-23zm0 23h-23c0 12.703 10.297 23 23 23v-23z" style="fill-rule:evenodd;fill:url(#linearGradient853)"/>
 <path d="m40.03 7.531c3.712 4.084 5.969 9.514 5.969 15.469 0 12.703-10.297 23-23 23-5.954 0-11.384-2.256-15.469-5.969 4.178 4.291 10.01 6.969 16.469 6.969 12.703 0 23-10.298 23-23 0-6.462-2.677-12.291-6.969-16.469z" style="opacity:.1"/>
 <path d="m13.5 11c-1.3807 0-2.5 1.1193-2.5 2.5 0 0.69036 0.28001 1.3152 0.73242 1.7676l4.2676 4.7324 4.2676-4.7324c0.45241-0.45241 0.73242-1.0772 0.73242-1.7676 0-1.3807-1.1193-2.5-2.5-2.5s-2.5 1.1193-2.5 2.5c0-1.3807-1.1193-2.5-2.5-2.5zm20.5 0c-2.7614 0-5 2.2386-5 5s2.2386 5 5 5 5-2.2386 5-5-2.2386-5-5-5zm0 3c1.1046 0 2 0.89543 2 2s-0.89543 2-2 2-2-0.89543-2-2 0.89543-2 2-2zm-21 15c-1.1046 0-2 0.89543-2 2s0.89543 2 2 2 2-0.89543 2-2-0.89543-2-2-2zm6 0c-1.1046 0-2 0.89543-2 2s0.89543 2 2 2 2-0.89543 2-2-0.89543-2-2-2zm15 0v3h-5v4h5v3l6-5zm-21 6c-1.1046 0-2 0.89543-2 2s0.89543 2 2 2 2-0.89543 2-2-0.89543-2-2-2zm6 0c-1.1046 0-2 0.89543-2 2s0.89543 2 2 2 2-0.89543 2-2-0.89543-2-2-2z" style="opacity:.1;paint-order:normal"/>
 <path d="m33 10c-2.7614 0-5 2.2386-5 5s2.2386 5 5 5 5-2.2386 5-5-2.2386-5-5-5zm0 3c1.1046 0 2 0.89543 2 2s-0.89543 2-2 2-2-0.89543-2-2 0.89543-2 2-2z" style="fill:#66666e;paint-order:normal"/>
 <path d="m12 28c-1.1046 0-2 0.89543-2 2s0.89543 2 2 2 2-0.89543 2-2-0.89543-2-2-2zm6 0c-1.1046 0-2 0.89543-2 2s0.89543 2 2 2 2-0.89543 2-2-0.89543-2-2-2zm-6 6c-1.1046 0-2 0.89543-2 2s0.89543 2 2 2 2-0.89543 2-2-0.89543-2-2-2zm6 0c-1.1046 0-2 0.89543-2 2s0.89543 2 2 2 2-0.89543 2-2-0.89543-2-2-2z" style="fill:#66666e;paint-order:normal"/>
 <path d="m33 28v3h-5v4h5v3l6-5z" style="fill:#e7e5e2;paint-order:normal"/>
 <path d="m12.5 10c-1.3807 0-2.5 1.1193-2.5 2.5 0 0.69036 0.27982 1.3154 0.73223 1.7678l4.2678 4.7322 4.2678-4.7322c0.45241-0.45241 0.73223-1.0774 0.73223-1.7678 0-1.3807-1.1193-2.5-2.5-2.5s-2.5 1.1193-2.5 2.5c0-1.3807-1.1193-2.5-2.5-2.5z" style="fill:#e7e5e2;paint-order:normal"/>
</svg>
