<svg version="1.1" viewBox="0 0 48 48" xmlns="http://www.w3.org/2000/svg">
 <defs>
  <linearGradient id="bg" x1="1" x2="47" gradientTransform="rotate(-90 24 24)" gradientUnits="userSpaceOnUse">
   <stop style="stop-color:#f0e9c8" offset="0"/>
   <stop style="stop-color:#f4efd8" offset="1"/>
  </linearGradient>
 </defs>
 <path d="m36.3 5c5.86 4.06 9.69 10.8 9.69 18.5 0 12.4-10.1 22.5-22.5 22.5-7.67 0-14.4-3.83-18.5-9.69 1.04 1.82 2.31 3.5 3.78 4.97 4.08 3.71 9.51 5.97 15.5 5.97 12.7 0 23-10.3 23-23 0-5.95-2.26-11.4-5.97-15.5-1.47-1.48-3.15-2.74-4.97-3.78zm4.97 3.78c3.85 4.11 6.22 9.64 6.22 15.7 0 12.7-10.3 23-23 23-6.08 0-11.6-2.36-15.7-6.22 4.16 4.14 9.88 6.72 16.2 6.72 12.7 0 23-10.3 23-23 0-6.34-2.58-12.1-6.72-16.2z" style="opacity:.05"/>
 <path d="m41.3 8.78c3.71 4.08 5.97 9.51 5.97 15.5 0 12.7-10.3 23-23 23-5.95 0-11.4-2.26-15.5-5.97 4.11 3.85 9.64 6.22 15.7 6.22 12.7 0 23-10.3 23-23 0-6.08-2.36-11.6-6.22-15.7z" style="opacity:.1"/>
 <path d="m31.2 2.38c8.62 3.15 14.8 11.4 14.8 21.1 0 12.4-10.1 22.5-22.5 22.5-9.71 0-18-6.14-21.1-14.8a23 23 0 0 0 44.9-7 23 23 0 0 0-16-21.9z" style="opacity:.2"/>
 <path d="m24 1c12.7 0 23 10.3 23 23s-10.3 23-23 23-23-10.3-23-23 10.3-23 23-23z" style="fill:url(#bg)"/>
 <path d="m16.3 15.2c0.473 0.48 0.953 0.988 1.44 1.52 0.285 0.32 0.598 0.465 0.938 0.449 0.246-0.023 0.418-0.18 0.512-0.48 0.113-0.316 0.078-0.824-0.113-1.52-0.113-0.379-0.465-0.719-1.05-1.02-1.48-0.594-2.34-0.805-2.59-0.625-0.113 0.082-0.148 0.27-0.113 0.566 0.078 0.258 0.398 0.625 0.969 1.1m-2.78 5.67c0.91 1.1 1.73 1.85 2.48 2.27 0.301 0.059 0.566-0.059 0.773-0.355 0.133-0.258 0.18-0.59 0.145-0.984-0.227-0.957-1.2-1.68-2.9-2.18-0.016-0.023-0.035-0.031-0.055-0.031-0.359-0.082-0.633-0.09-0.82-0.031-0.133 0.023-0.184 0.172-0.145 0.449 0.02 0.258 0.199 0.551 0.539 0.863m0.051 11.6c-0.246 0.078-0.328 0.297-0.258 0.656 0.418 1.57 0.949 2.5 1.59 2.78 0.133 0.137 0.301 0.18 0.512 0.117 0.133-0.059 0.207-0.352 0.227-0.863 0.02-0.777 0.816-3.8 2.39-9.07 0.113-0.32 0.16-0.547 0.145-0.688-0.02-0.199-0.125-0.227-0.313-0.086-0.23 0.18-1.31 2.12-3.24 5.85-0.188 0.438-0.539 0.875-1.05 1.31m13-1.07c0.016 0.023 0.047 0.047 0.082 0.086 2.44 3.28 4.02 5.04 4.72 5.25 0.969 0.355 2.62 0.297 4.98-0.18 0.359-0.023 0.559-0.09 0.594-0.211 0.02-0.137-0.102-0.266-0.371-0.387-3.41-1.16-5.7-2.17-6.88-3.04-0.852-0.563-1.56-1.1-2.13-1.64 1.61-0.199 3.58-0.32 5.91-0.355 1.15 0.059 1.81-0.031 1.96-0.27 0.078-0.199-0.035-0.438-0.34-0.719-0.969-0.715-1.79-0.996-2.47-0.832-1.44 0.355-3.4 0.746-5.88 1.16 0.113-0.617 0.211-1.24 0.281-1.88 1.22-0.238 2.36-0.438 3.44-0.594 0.477-0.082 0.625-0.258 0.457-0.539-0.191-0.316-0.547-0.523-1.08-0.625-0.684-0.078-1.59 0.082-2.73 0.48 0.02-0.566 0.047-1.1 0.086-1.61 1.36-0.242 2.97-0.449 4.83-0.625 0.191-0.023 0.301-0.113 0.344-0.27 0-0.148-0.238-0.387-0.711-0.727 0.398-0.832 0.836-1.38 1.31-1.64 0.344-0.32 0.379-0.66 0.113-1.02-0.281-0.258-0.891-0.656-1.82-1.2-0.301-0.141-0.66-0.148-1.08-0.027-0.93 0.379-1.85 0.695-2.76 0.953 0.02-0.137 0.066-0.297 0.145-0.477 0.074-0.238 0.035-0.418-0.117-0.535-0.281-0.242-0.641-0.449-1.08-0.625 0.641-0.141 1.63-0.27 2.95-0.391 0.191-0.023 0.297-0.117 0.313-0.297 0.02-0.141-0.246-0.391-0.793-0.746-0.02-0.023-0.055-0.031-0.113-0.031 0.168-0.793 0.348-1.56 0.539-2.3 1.16-0.199 2.25-0.355 3.27-0.477 0.191 0.02 0.371-0.09 0.539-0.328 0.02-0.199-0.18-0.41-0.594-0.625-0.57-0.438-1.54-0.418-2.93 0.059 0.016-0.082 0.047-0.168 0.082-0.27 0-0.078 0.164-0.516 0.484-1.31 0.074-0.18-0.039-0.426-0.344-0.746-0.57-0.418-1.05-0.691-1.45-0.832-0.246-0.082-0.453-0.059-0.625 0.059-0.133 0.117-0.148 0.32-0.055 0.594 0.191 0.379 0.285 0.707 0.285 0.984-0.02 0.621-0.051 1.27-0.086 1.97-0.168 0-1.2 0.219-3.07 0.656 0-1.31-0.035-2.01-0.113-2.09-0.02-0.023-0.035-0.031-0.055-0.031-0.246-0.199-0.605-0.367-1.08-0.508-0.359-0.078-0.699-0.027-1.02 0.148-0.172 0.141-0.133 0.328 0.113 0.566 0.301 0.477 0.57 1.17 0.793 2.09-0.906 0.059-1.87 0.184-2.87 0.359-0.512 0.059-0.57 0.258-0.168 0.594 0.527 0.477 1.18 0.625 1.93 0.449 0.398-0.117 0.84-0.211 1.34-0.27 0.301 2.03 0.527 3.2 0.684 3.49 0.129 0.18 0.254 0.199 0.371 0.059 0.055-0.078 0.113-0.219 0.168-0.418 0.512 0.535 0.805 1.09 0.883 1.64-1.16 0.199-2.33 0.387-3.53 0.566-0.074-0.18-0.547-0.309-1.42-0.391-0.227-0.059-0.359-0.031-0.398 0.086-0.113 0.121-0.082 0.32 0.086 0.598 0.477 0.836 0.891 1.95 1.25 3.34 0.078 0.422 0.246 0.758 0.512 1.02 0.34 0.379 0.547 0.426 0.625 0.148 0.02-0.141 0.035-0.32 0.055-0.539 0.113 0.023 0.273 8e-3 0.457-0.027 0.648-0.18 1.44-0.34 2.41-0.48-0.02 0.598-0.047 1.18-0.086 1.73-1.21 0.258-2.37 0.535-3.46 0.832-0.344 0.082-0.301 0.281 0.113 0.598 0.227 0.18 1.32 0.098 3.27-0.238-0.02 0.137-0.039 0.309-0.059 0.504-0.016 0.48-0.094 0.934-0.227 1.37-2.07 0.32-4.27 0.648-6.62 0.988-0.395 0.059-0.441 0.25-0.141 0.563 0.246 0.258 0.539 0.438 0.883 0.539 0.395 0.082 0.738 0.082 1.02 0 1.38-0.418 2.86-0.727 4.43-0.926-0.906 1.49-2.12 2.63-3.64 3.43-0.641 0.32-1.44 0.688-2.38 1.1-0.23 0.082-0.379 0.152-0.457 0.211-0.078 0.078 0.02 0.156 0.281 0.238 1.76 0.117 3.77-0.625 6.03-2.24 0.281-0.238 0.539-0.496 0.766-0.777 0.457-0.617 0.789-1.36 0.996-2.24m-0.68-6.58c-1.08 0.188-2.08 0.355-3.01 0.516-0.23-1.1-0.371-1.9-0.426-2.43 0.129-0.02 0.301-0.063 0.508-0.145 0.93-0.199 1.89-0.398 2.87-0.598 0.02 0.918 0.039 1.8 0.055 2.66m1.37-1.7c0-0.418 0.031-0.84 0.086-1.26 0.684-0.141 1.36-0.281 2.05-0.445 0.531-0.141 0.922-0.086 1.17 0.145 0.113 0.117 0.141 0.316 0.082 0.566-0.133 0.617-0.281 1.18-0.453 1.7-1.04 0.238-2.02 0.465-2.93 0.688v-1.41m-2.27-4.5c-0.02-0.297-0.035-0.566-0.055-0.832-0.02-0.496-0.039-0.965-0.055-1.4 0.871-0.199 1.87-0.398 2.98-0.566-0.078 0.676-0.152 1.38-0.23 2.12-0.984 0.301-1.87 0.527-2.64 0.688" style="opacity:.1"/>
 <path d="m15.3 14.2c0.473 0.48 0.953 0.988 1.44 1.52 0.285 0.32 0.598 0.465 0.938 0.449 0.246-0.023 0.418-0.18 0.512-0.48 0.113-0.316 0.078-0.824-0.113-1.52-0.113-0.379-0.465-0.719-1.05-1.02-1.48-0.594-2.34-0.805-2.59-0.625-0.113 0.082-0.148 0.27-0.113 0.566 0.078 0.258 0.398 0.625 0.969 1.1m-2.78 5.67c0.91 1.1 1.73 1.85 2.48 2.27 0.301 0.059 0.566-0.059 0.773-0.355 0.133-0.258 0.18-0.59 0.145-0.984-0.227-0.957-1.2-1.68-2.9-2.18-0.016-0.023-0.035-0.031-0.055-0.031-0.359-0.082-0.633-0.09-0.82-0.031-0.133 0.023-0.184 0.172-0.145 0.449 0.02 0.258 0.199 0.551 0.539 0.863m0.051 11.6c-0.246 0.078-0.328 0.297-0.258 0.656 0.418 1.57 0.949 2.5 1.59 2.78 0.133 0.137 0.301 0.18 0.512 0.117 0.133-0.059 0.207-0.352 0.227-0.863 0.02-0.777 0.816-3.8 2.39-9.07 0.113-0.32 0.16-0.547 0.145-0.688-0.02-0.199-0.125-0.227-0.313-0.086-0.23 0.18-1.31 2.12-3.24 5.85-0.188 0.438-0.539 0.875-1.05 1.31m13-1.07c0.016 0.023 0.047 0.047 0.082 0.086 2.44 3.28 4.02 5.04 4.72 5.25 0.969 0.355 2.62 0.297 4.98-0.18 0.359-0.023 0.559-0.09 0.594-0.211 0.02-0.137-0.102-0.266-0.371-0.387-3.41-1.16-5.7-2.17-6.88-3.04-0.852-0.563-1.56-1.1-2.13-1.64 1.61-0.199 3.58-0.32 5.91-0.355 1.15 0.059 1.81-0.031 1.96-0.27 0.078-0.199-0.035-0.438-0.34-0.719-0.969-0.715-1.79-0.996-2.47-0.832-1.44 0.355-3.4 0.746-5.88 1.16 0.113-0.617 0.211-1.24 0.281-1.88 1.22-0.238 2.36-0.438 3.44-0.594 0.477-0.082 0.625-0.258 0.457-0.539-0.191-0.316-0.547-0.523-1.08-0.625-0.684-0.078-1.59 0.082-2.73 0.48 0.02-0.566 0.047-1.1 0.086-1.61 1.36-0.242 2.97-0.449 4.83-0.625 0.191-0.023 0.301-0.113 0.344-0.27 0-0.148-0.238-0.387-0.711-0.727 0.398-0.832 0.836-1.38 1.31-1.64 0.344-0.32 0.379-0.66 0.113-1.02-0.281-0.258-0.891-0.656-1.82-1.2-0.301-0.141-0.66-0.148-1.08-0.027-0.93 0.379-1.85 0.695-2.76 0.953 0.02-0.137 0.066-0.297 0.145-0.477 0.074-0.238 0.035-0.418-0.117-0.535-0.281-0.242-0.641-0.449-1.08-0.625 0.641-0.141 1.63-0.27 2.95-0.391 0.191-0.023 0.297-0.117 0.313-0.297 0.02-0.141-0.246-0.391-0.793-0.746-0.02-0.023-0.055-0.031-0.113-0.031 0.168-0.793 0.348-1.56 0.539-2.3 1.16-0.199 2.25-0.355 3.27-0.477 0.191 0.02 0.371-0.09 0.539-0.328 0.02-0.199-0.18-0.41-0.594-0.625-0.57-0.438-1.54-0.418-2.93 0.059 0.016-0.082 0.047-0.168 0.082-0.27 0-0.078 0.164-0.516 0.484-1.31 0.074-0.18-0.039-0.426-0.344-0.746-0.57-0.418-1.05-0.691-1.45-0.832-0.246-0.082-0.453-0.059-0.625 0.059-0.133 0.117-0.148 0.32-0.055 0.594 0.191 0.379 0.285 0.707 0.285 0.984-0.02 0.621-0.051 1.27-0.086 1.97-0.168 0-1.2 0.219-3.07 0.656 0-1.31-0.035-2.01-0.113-2.09-0.02-0.023-0.035-0.031-0.055-0.031-0.246-0.199-0.605-0.367-1.08-0.508-0.359-0.078-0.699-0.027-1.02 0.148-0.172 0.141-0.133 0.328 0.113 0.566 0.301 0.477 0.57 1.17 0.793 2.09-0.906 0.059-1.87 0.184-2.87 0.359-0.512 0.059-0.57 0.258-0.168 0.594 0.527 0.477 1.18 0.625 1.93 0.449 0.398-0.117 0.84-0.211 1.34-0.27 0.301 2.03 0.527 3.2 0.684 3.49 0.129 0.18 0.254 0.199 0.371 0.059 0.055-0.078 0.113-0.219 0.168-0.418 0.512 0.535 0.805 1.09 0.883 1.64-1.16 0.199-2.33 0.387-3.53 0.566-0.074-0.18-0.547-0.309-1.42-0.391-0.227-0.059-0.359-0.031-0.398 0.086-0.113 0.121-0.082 0.32 0.086 0.598 0.477 0.836 0.891 1.95 1.25 3.34 0.078 0.422 0.246 0.758 0.512 1.02 0.34 0.379 0.547 0.426 0.625 0.148 0.02-0.141 0.035-0.32 0.055-0.539 0.113 0.023 0.273 8e-3 0.457-0.027 0.648-0.18 1.44-0.34 2.41-0.48-0.02 0.598-0.047 1.18-0.086 1.73-1.21 0.258-2.37 0.535-3.46 0.832-0.344 0.082-0.301 0.281 0.113 0.598 0.227 0.18 1.32 0.098 3.27-0.238-0.02 0.137-0.039 0.309-0.059 0.504-0.016 0.48-0.094 0.934-0.227 1.37-2.07 0.32-4.27 0.648-6.62 0.988-0.395 0.059-0.441 0.25-0.141 0.563 0.246 0.258 0.539 0.438 0.883 0.539 0.395 0.082 0.738 0.082 1.02 0 1.38-0.418 2.86-0.727 4.43-0.926-0.906 1.49-2.12 2.63-3.64 3.43-0.641 0.32-1.44 0.688-2.38 1.1-0.23 0.082-0.379 0.152-0.457 0.211-0.078 0.078 0.02 0.156 0.281 0.238 1.76 0.117 3.77-0.625 6.03-2.24 0.281-0.238 0.539-0.496 0.766-0.777 0.457-0.617 0.789-1.36 0.996-2.24m-0.68-6.58c-1.08 0.188-2.08 0.355-3.01 0.516-0.23-1.1-0.371-1.9-0.426-2.43 0.129-0.02 0.301-0.063 0.508-0.145 0.93-0.199 1.89-0.398 2.87-0.598 0.02 0.918 0.039 1.8 0.055 2.66m1.37-1.7c0-0.418 0.031-0.84 0.086-1.26 0.684-0.141 1.36-0.281 2.05-0.445 0.531-0.141 0.922-0.086 1.17 0.145 0.113 0.117 0.141 0.316 0.082 0.566-0.133 0.617-0.281 1.18-0.453 1.7-1.04 0.238-2.02 0.465-2.93 0.688v-1.41m-2.27-4.5c-0.02-0.297-0.035-0.566-0.055-0.832-0.02-0.496-0.039-0.965-0.055-1.4 0.871-0.199 1.87-0.398 2.98-0.566-0.078 0.676-0.152 1.38-0.23 2.12-0.984 0.301-1.87 0.527-2.64 0.688" style="fill:#cf3f3f"/>
 <path d="m40 7.53c3.71 4.08 5.97 9.51 5.97 15.5 0 12.7-10.3 23-23 23-5.95 0-11.4-2.26-15.5-5.97 4.18 4.29 10 6.97 16.5 6.97 12.7 0 23-10.3 23-23 0-6.46-2.68-12.3-6.97-16.5z" style="opacity:.1"/>
</svg>
