<svg version="1.1" viewBox="0 0 48 48" xmlns="http://www.w3.org/2000/svg">
 <defs>
  <linearGradient id="bg" x1="1" x2="47" gradientTransform="matrix(0 -1 1 0 -1.5e-6 48)" gradientUnits="userSpaceOnUse">
   <stop style="stop-color:#ef2945" offset="0"/>
   <stop style="stop-color:#f13b50" offset="1"/>
  </linearGradient>
 </defs>
 <path d="m36.3 5c5.86 4.06 9.69 10.8 9.69 18.5 0 12.4-10.1 22.5-22.5 22.5-7.67 0-14.4-3.83-18.5-9.69 1.04 1.82 2.31 3.5 3.78 4.97 4.08 3.71 9.51 5.97 15.5 5.97 12.7 0 23-10.3 23-23 0-5.95-2.26-11.4-5.97-15.5-1.47-1.48-3.15-2.74-4.97-3.78zm4.97 3.78c3.85 4.11 6.22 9.64 6.22 15.7 0 12.7-10.3 23-23 23-6.08 0-11.6-2.36-15.7-6.22 4.16 4.14 9.88 6.72 16.2 6.72 12.7 0 23-10.3 23-23 0-6.34-2.58-12.1-6.72-16.2z" style="opacity:.05"/>
 <path d="m41.3 8.78c3.71 4.08 5.97 9.51 5.97 15.5 0 12.7-10.3 23-23 23-5.95 0-11.4-2.26-15.5-5.97 4.11 3.85 9.64 6.22 15.7 6.22 12.7 0 23-10.3 23-23 0-6.08-2.36-11.6-6.22-15.7z" style="opacity:.1"/>
 <path d="m31.2 2.38c8.62 3.15 14.8 11.4 14.8 21.1 0 12.4-10.1 22.5-22.5 22.5-9.71 0-18-6.14-21.1-14.8a23 23 0 0 0 44.9-7 23 23 0 0 0-16-21.9z" style="opacity:.2"/>
 <path d="m24 1c12.7 0 23 10.3 23 23s-10.3 23-23 23-23-10.3-23-23 10.3-23 23-23z" style="fill:url(#bg)"/>
 <path d="m40 7.53c3.71 4.08 5.97 9.51 5.97 15.5 0 12.7-10.3 23-23 23-5.95 0-11.4-2.26-15.5-5.97 4.18 4.29 10 6.97 16.5 6.97 12.7 0 23-10.3 23-23 0-6.46-2.68-12.3-6.97-16.5z" style="opacity:.1"/>
 <path d="m25 10c-2.76 0-5 2.24-5 5v4.36c-3.09 1.78-4.99 5.08-5 8.64 0 5.52 4.48 10 10 10s10-4.48 10-10c-0.0037-3.57-1.91-6.87-5-8.65v-4.35c0-2.76-2.24-5-5-5zm0 2c1.66 0 3 1.34 3 3v3.46l-6 7e-3v-3.47c0-1.66 1.34-3 3-3z" style="opacity:.1"/>
 <path d="m24 9a5 5 0 0 0-5 5v8h2v-8a3 3 0 0 1 3-3 3 3 0 0 1 3 3v8h2v-8a5 5 0 0 0-5-5z" style="fill:#acacac"/>
 <circle cx="24" cy="27" r="10" style="fill:#c8c8c8"/>
 <circle cx="24" cy="27" r="9" style="fill:#b4b4b4"/>
 <path d="m23 19.1c-1.42 0.178-2.77 0.735-3.91 1.61l-1.41 1.41v2e-3c-0.878 1.13-1.44 2.48-1.62 3.9l2e-3 2c0.178 1.42 0.736 2.77 1.61 3.91v-6e-3c0 6e-3 1.42 1.41 1.42 1.41 1.13 0.878 2.48 1.44 3.9 1.62l2-2e-3c1.42-0.177 2.77-0.734 3.91-1.61-2e-3 -1e-3 -4e-3 -1e-3 -6e-3 -2e-3l1.41-1.42c0.878-1.13 1.44-2.48 1.62-3.9l-2e-3 -2c-0.178-1.42-0.735-2.77-1.61-3.9l-2e-3 4e-3 -1.41-1.41c-1.13-0.879-2.48-1.44-3.9-1.62z" style="fill:#474747"/>
 <path d="m24 19c-0.335 3e-3 -0.669 0.027-1 0.072v1.93h2v-1.93c-0.332-0.044-0.666-0.068-1-0.07m-4.9 1.69c-0.266 0.203-0.518 0.423-0.756 0.658-0.234 0.239-0.454 0.492-0.656 0.758l1.36 1.36 1.41-1.41zm9.8 2e-3 -1.36 1.36 1.41 1.41 1.36-1.36c-0.203-0.266-0.423-0.518-0.658-0.756-0.239-0.234-0.492-0.454-0.758-0.656zm-12.8 5.31c-0.044 0.332-0.068 0.666-0.07 1 3e-3 0.335 0.027 0.669 0.072 1h1.93v-2zm13.9 0v2h1.93c0.044-0.332 0.068-0.666 0.07-1-3e-3 -0.335-0.027-0.669-0.072-1h-1.93m-10.9 4.54-1.36 1.36c0.203 0.266 0.423 0.518 0.658 0.756 0.239 0.234 0.492 0.454 0.758 0.656l1.36-1.36zm9.9 0-1.41 1.41 1.36 1.36c0.266-0.203 0.518-0.423 0.756-0.658 0.234-0.239 0.454-0.492 0.656-0.758zm-5.95 2.46v1.93c0.332 0.044 0.666 0.068 1 0.07 0.335-3e-3 0.669-0.027 1-0.072v-1.93z" style="fill:#f2f2f2"/>
 <path d="m24.5 20.5-2.31 5.09a3 3 0 0 0-0.686 1.91 3 3 0 0 0 3 3 3 3 0 0 0 3-3 3 3 0 0 0-0.684-1.9l-2.32-5.1" style="opacity:.1"/>
 <path d="m24 20 2.5 5.5h-5z" style="fill:#f6515b"/>
 <circle cx="24" cy="27" r="3" style="fill:#b4b4b4"/>
 <path d="m24 19a8 8 0 0 0-8 8 8 8 0 0 0 2.6 5.89 8 8 0 0 1-2.1-5.39 8 8 0 0 1 8-8 8 8 0 0 1 5.4 2.11 8 8 0 0 0-5.9-2.61z" style="opacity:.1"/>
</svg>
