<svg version="1.1" viewBox="0 0 48 48" xmlns="http://www.w3.org/2000/svg">
 <defs>
  <linearGradient id="linearGradient852" x2="0" y1="1" y2="47" gradientUnits="userSpaceOnUse">
   <stop style="stop-color:#e2caa7" offset="0"/>
   <stop style="stop-color:#ddc198" offset="1"/>
  </linearGradient>
 </defs>
 <path d="m36.31 5c5.859 4.062 9.688 10.831 9.688 18.5 0 12.426-10.07 22.5-22.5 22.5-7.669 0-14.438-3.828-18.5-9.688 1.037 1.822 2.306 3.499 3.781 4.969 4.085 3.712 9.514 5.969 15.469 5.969 12.703 0 23-10.298 23-23 0-5.954-2.256-11.384-5.969-15.469-1.469-1.475-3.147-2.744-4.969-3.781zm4.969 3.781c3.854 4.113 6.219 9.637 6.219 15.719 0 12.703-10.297 23-23 23-6.081 0-11.606-2.364-15.719-6.219 4.16 4.144 9.883 6.719 16.219 6.719 12.703 0 23-10.298 23-23 0-6.335-2.575-12.06-6.719-16.219z" style="opacity:.05"/>
 <path d="m41.28 8.781c3.712 4.085 5.969 9.514 5.969 15.469 0 12.703-10.297 23-23 23-5.954 0-11.384-2.256-15.469-5.969 4.113 3.854 9.637 6.219 15.719 6.219 12.703 0 23-10.298 23-23 0-6.081-2.364-11.606-6.219-15.719z" style="opacity:.1"/>
 <path d="m31.25 2.375c8.615 3.154 14.75 11.417 14.75 21.13 0 12.426-10.07 22.5-22.5 22.5-9.708 0-17.971-6.135-21.12-14.75a23 23 0 0 0 44.875-7 23 23 0 0 0-16-21.875z" style="opacity:.2"/>
 <circle cx="24" cy="24" r="23" style="fill:url(#linearGradient852)"/>
 <path d="m40.03 7.531c3.712 4.084 5.969 9.514 5.969 15.469 0 12.703-10.297 23-23 23-5.954 0-11.384-2.256-15.469-5.969 4.178 4.291 10.01 6.969 16.469 6.969 12.703 0 23-10.298 23-23 0-6.462-2.677-12.291-6.969-16.469z" style="opacity:.1"/>
 <path d="m36 11c-3 2-5 6-5 18h2v7c0 0.554 1 1 1 1h1s1-0.446 1-1zm-23 2v13l17-13zm7 12-1 1h-2l1.1738 1.1738c-3.0528 0.58928-5.1734 2.5674-5.1738 4.8262 0 2.7614 3.134 5 7 5s7-2.2386 7-5c1.6e-5 -2.1133-1.8601-3.9984-4.6465-4.709l0.64648-1.291-1-1v1l-1 1v-1z" style="opacity:.1;stroke-linecap:round;stroke-linejoin:round;stroke-width:4"/>
 <path d="m35 29v6c0 0.554-0.446 1-1 1h-1c-0.554 0-1-0.446-1-1v-6l1-1z" style="fill:#555f62;stroke-linecap:round;stroke-linejoin:round;stroke-width:4"/>
 <path d="m32 28 1-1 2 1v1h-3z" style="fill:#ededed;stroke-linecap:round;stroke-linejoin:round;stroke-width:4"/>
 <path d="m35 10v18h-5c0-12 2-16 5-18z" style="fill:#e2e4e2;stroke-linecap:round;stroke-linejoin:round;stroke-width:4"/>
 <path d="m12 12v8l0.5 1-0.5 1v3l3.1797-2.4316 0.82031-1.0684 0.76367-0.14258 2.4727-1.8906 0.76367-1.4668 0.96875 0.14062 4.2207-3.2266-0.18945-0.91406 2.3496-0.73828 1.6504-1.2617h-6l-1 0.5-1-0.5h-2l-1 1-1-1h-5z" style="fill:#fde081;stroke-linecap:round;stroke-linejoin:round;stroke-width:4"/>
 <ellipse cx="19" cy="31" rx="7" ry="5" style="fill:#ef502b;stroke-linecap:round;stroke-linejoin:round;stroke-width:3.8139"/>
 <path d="m16 25h2l1-1 1 1v1l1-1v-1l1 1-1 2h-3z" style="fill:#299450;stroke-linecap:round;stroke-linejoin:round;stroke-width:4"/>
 <path d="m17 12v0.5c7e-6 0.82843 0.44772 1.5 1 1.5s1-0.67157 1-1.5v-0.5zm4 0c0 0.55228 0.44772 1 1 1s1-0.44772 1-1zm-7 1c-0.55228 0-1 0.44772-1 1s0.44772 1 1 1 1-0.44772 1-1-0.44772-1-1-1zm12 0c-1.0795 5.3e-5 -2.0004 0.46006-2 1 2.82e-4 0.39548 0.46636 0.75378 1.1895 0.91406l2.1602-1.6523c-0.36873-0.16844-0.85016-0.26174-1.3496-0.26172zm-5 1c-0.55228 0-1 0.44772-1 1s0.44772 1 1 1 1-0.44772 1-1-0.44772-1-1-1zm-3.5 1c-0.27161 0.0032-0.50004 0.22837-0.5 0.5 3.8e-5 0.27614 0.22386 0.5 0.5 0.5s0.5-0.22386 0.5-0.5-0.22388-0.50324-0.5-0.5zm-2.0098 2c-0.82461 0.0036-1.4903 0.45025-1.4902 1 0 0.55228 0.67157 1 1.5 1s1.5-0.44772 1.5-1-0.67157-1-1.5-1c-0.0033-7e-6 -0.0065-7e-6 -0.0098 0zm4.5098 0c-0.55001 0.0018-1.0002 0.67499-1 1.5 7.9e-5 0.354 0.08396 0.69646 0.23633 0.9668l1.7324-1.3262c-0.11002-0.66875-0.50954-1.1421-0.96875-1.1406zm-8 3v2c0.55228 0 1-0.44772 1-1s-0.44772-1-1-1zm4 1c-0.55228-4.9e-4 -1.0005 0.44772-1 1 1.95e-4 0.20332 0.06341 0.40158 0.17969 0.56836l1.584-1.2109c-0.18943-0.22588-0.46887-0.35716-0.76367-0.35742z" style="fill:#c6a767;stroke-linecap:round;stroke-linejoin:round;stroke-width:4"/>
</svg>
