<svg version="1.1" viewBox="0 0 48 48" xmlns="http://www.w3.org/2000/svg">
 <defs>
  <linearGradient id="bg" x2="0" y1="1" y2="47" gradientUnits="userSpaceOnUse">
   <stop style="stop-color:#e86492" offset="0"/>
   <stop style="stop-color:#e55285" offset="1"/>
  </linearGradient>
 </defs>
 <path d="m36.31 5c5.859 4.062 9.688 10.831 9.688 18.5 0 12.426-10.07 22.5-22.5 22.5-7.669 0-14.438-3.828-18.5-9.688 1.037 1.822 2.306 3.499 3.781 4.969 4.085 3.712 9.514 5.969 15.469 5.969 12.703 0 23-10.298 23-23 0-5.954-2.256-11.384-5.969-15.469-1.469-1.475-3.147-2.744-4.969-3.781zm4.969 3.781c3.854 4.113 6.219 9.637 6.219 15.719 0 12.703-10.297 23-23 23-6.081 0-11.606-2.364-15.719-6.219 4.16 4.144 9.883 6.719 16.219 6.719 12.703 0 23-10.298 23-23 0-6.335-2.575-12.06-6.719-16.219z" style="opacity:.05"/>
 <path d="m41.28 8.781c3.712 4.085 5.969 9.514 5.969 15.469 0 12.703-10.297 23-23 23-5.954 0-11.384-2.256-15.469-5.969 4.113 3.854 9.637 6.219 15.719 6.219 12.703 0 23-10.298 23-23 0-6.081-2.364-11.606-6.219-15.719z" style="opacity:.1"/>
 <path d="m31.25 2.375c8.615 3.154 14.75 11.417 14.75 21.13 0 12.426-10.07 22.5-22.5 22.5-9.708 0-17.971-6.135-21.12-14.75a23 23 0 0 0 44.875-7 23 23 0 0 0-16-21.875z" style="opacity:.2"/>
 <circle cx="24" cy="24" r="23" style="fill:url(#bg)"/>
 <path d="m40.03 7.531c3.712 4.084 5.969 9.514 5.969 15.469 0 12.703-10.297 23-23 23-5.954 0-11.384-2.256-15.469-5.969 4.178 4.291 10.01 6.969 16.469 6.969 12.703 0 23-10.298 23-23 0-6.462-2.677-12.291-6.969-16.469z" style="opacity:.1"/>
 <path d="m25 10a14 14 0 0 0-14 14 14 14 0 0 0 7 12.123v1.877c0 0.554 0.446 1 1 1h12c0.554 0 1-0.446 1-1v-1.877a14 14 0 0 0 7-12.123 14 14 0 0 0-14-14z" style="opacity:.1"/>
 <rect x="17" y="33" width="14" height="5" ry="1" style="fill:#3e3b43"/>
 <circle cx="24" cy="23" r="14" style="fill:#e1e0de"/>
 <circle cx="24" cy="23" r="12" style="fill:#3d3748"/>
 <circle cx="24" cy="23" r="7" style="fill:#312c3f"/>
 <path d="m25 13c-0.554 0-1 0.446-1 1v1c0 0.554 0.446 1 1 1s1-0.446 1-1v-1c0-0.554-0.446-1-1-1zm-10 10c-0.554 0-1 0.446-1 1s0.446 1 1 1h1c0.554 0 1-0.446 1-1s-0.446-1-1-1h-1zm19 0c-0.554 0-1 0.446-1 1s0.446 1 1 1h1c0.41295 0 0.76502-0.24789 0.91797-0.60352a12 12 0 0 0 0.052734-0.54688c-0.074698-0.47913-0.46997-0.84961-0.9707-0.84961h-1zm-9 9c-0.554 0-1 0.446-1 1v1c0 0.50073 0.37048 0.896 0.84961 0.9707a12 12 0 0 0 0.54688-0.052734c0.35563-0.15295 0.60352-0.50502 0.60352-0.91797v-1c0-0.554-0.446-1-1-1z" style="opacity:.1"/>
 <rect x="23" y="12" width="2" height="3" ry="1" style="fill:#f66151"/>
 <path d="m14 22c-0.554 0-1 0.446-1 1s0.446 1 1 1h1c0.554 0 1-0.446 1-1s-0.446-1-1-1zm19 0c-0.554 0-1 0.446-1 1s0.446 1 1 1h1c0.554 0 1-0.446 1-1s-0.446-1-1-1zm-9 9c-0.554 0-1 0.446-1 1v1c0 0.554 0.446 1 1 1s1-0.446 1-1v-1c0-0.554-0.446-1-1-1z" style="fill:#e1e0de"/>
 <path d="m31.5 17c-0.13807 0-0.26303 0.056-0.35352 0.14648l-6.8535 6.1465c-0.18096 0.18097-0.29297 0.43089-0.29297 0.70703 0 0.55228 0.44772 1 1 1 0.27614 0 0.52607-0.11201 0.70703-0.29297l6.1465-6.8535c0.09049-0.0905 0.14648-0.21545 0.14648-0.35352 0-0.27614-0.22386-0.5-0.5-0.5z" style="opacity:.1"/>
 <path d="m23.906 16a7 7 0 0 0-6.9062 7 7 7 0 0 0 2.5742 5.4219 7 7 0 0 1-1.5742-4.4219 7 7 0 0 1 6.9062-7 7 7 0 0 1 0.09375 0 7 7 0 0 1 4.4258 1.5781 7 7 0 0 0-5.4258-2.5781 7 7 0 0 0-0.09375 0z" style="opacity:.1"/>
 <path d="m30.5 16c-0.13807 0-0.26303 0.056-0.35352 0.14648l-6.8535 6.1465c-0.18096 0.18097-0.29297 0.43089-0.29297 0.70703 0 0.55228 0.44772 1 1 1 0.27614 0 0.52607-0.11201 0.70703-0.29297l6.1465-6.8535c0.09049-0.0905 0.14648-0.21545 0.14648-0.35352 0-0.27614-0.22386-0.5-0.5-0.5z" style="fill:#e1e0de"/>
 <path d="m24 11a12 12 0 0 0-12 12 12 12 0 0 0 4.0352 8.9746 12 12 0 0 1-3.0352-7.9746 12 12 0 0 1 12-12 12 12 0 0 1 7.9648 3.0254 12 12 0 0 0-8.9648-4.0254z" style="opacity:.1"/>
</svg>
