<svg xmlns="http://www.w3.org/2000/svg" version="1.1" viewBox="0 0 48 48">
 <defs>
  <linearGradient id="linearGradient3126" gradientUnits="userSpaceOnUse" x2="47" x1="1" gradientTransform="matrix(0 -1 1 0 -.0000015 48)">
   <stop style="stop-color:#5ab133" offset="0"/>
   <stop style="stop-color:#63c038" offset="1"/>
  </linearGradient>
 </defs>
 <path style="opacity:.05" d="m36.31 5c5.859 4.062 9.688 10.831 9.688 18.5 0 12.426-10.07 22.5-22.5 22.5-7.669 0-14.438-3.828-18.5-9.688 1.037 1.822 2.306 3.499 3.781 4.969 4.085 3.712 9.514 5.969 15.469 5.969 12.703 0 23-10.298 23-23 0-5.954-2.256-11.384-5.969-15.469-1.469-1.475-3.147-2.744-4.969-3.781zm4.969 3.781c3.854 4.113 6.219 9.637 6.219 15.719 0 12.703-10.297 23-23 23-6.081 0-11.606-2.364-15.719-6.219 4.16 4.144 9.883 6.719 16.219 6.719 12.703 0 23-10.298 23-23 0-6.335-2.575-12.06-6.719-16.219z"/>
 <path style="opacity:.1" d="m41.28 8.781c3.712 4.085 5.969 9.514 5.969 15.469 0 12.703-10.297 23-23 23-5.954 0-11.384-2.256-15.469-5.969 4.113 3.854 9.637 6.219 15.719 6.219 12.703 0 23-10.298 23-23 0-6.081-2.364-11.606-6.219-15.719z"/>
 <path style="opacity:.2" d="m31.25 2.375c8.615 3.154 14.75 11.417 14.75 21.13 0 12.426-10.07 22.5-22.5 22.5-9.708 0-17.971-6.135-21.12-14.75a23 23 0 0 0 44.875 -7 23 23 0 0 0 -16 -21.875z"/>
 <path style="fill:url(#linearGradient3126)" d="m24 1c-12.703 0-23 10.297-23 23 0 7.114 3.24 13.469 8.313 17.688l27.685 1.281c6.04-4.144 10-11.09 10-18.969 0-12.703-10.297-23-23-23z"/>
 <g style="opacity:.1" transform="translate(1,1)">
  <path transform="translate(-1,-1)" d="m43.77 12.25-18.396 16.875 11.625 13.844 1.385-1.037-9.758-12.275 16.883-13.803"/>
 </g>
 <path style="fill:#868bec" d="m25.375 29.13l-16.06 12.563c3.985 3.315 9.1 5.313 14.688 5.313 4.821 0 9.303-1.496 13-4.03l-11.625-13.844z"/>
 <path style="fill:#ffe68e" d="m43 11.06l-35.563 28.875c0.952 0.989 1.979 1.912 3.094 2.719l14.313-11.719 10.719 12.938c0.949-0.553 1.831-1.165 2.688-1.844l-10.625-13.375 17.313-14.156c-0.546-1.2-1.202-2.357-1.938-3.438z"/>
 <path style="opacity:.1" d="m40.03 7.531c3.712 4.084 5.969 9.514 5.969 15.469 0 12.703-10.297 23-23 23-5.954 0-11.384-2.256-15.469-5.969 4.178 4.291 10.01 6.969 16.469 6.969 12.703 0 23-10.298 23-23 0-6.462-2.677-12.291-6.969-16.469z"/>
 <g style="opacity:.1" transform="translate(1 1)">
  <path style="fill-rule:evenodd" d="m18.516 21.293c0 1.508-1.223 2.73-2.734 2.73-1.512 0-2.738-1.223-2.738-2.73 0-1.508 1.227-2.73 2.738-2.73 1.512 0 2.734 1.223 2.734 2.73"/>
 </g>
 <path d="m23 22c0 4-5 12-6 14-1-2-6-10-6-14 0-3.3137 2.6863-6 6-6s6 2.6863 6 6z" style="opacity:.1"/>
 <path style="fill:#f3533d" d="m22 21c0 4-5 12-6 14-1-2-6-10-6-14 0-3.3137 2.6863-6 6-6s6 2.6863 6 6z"/>
 <circle r="3" style="fill:#c12f20" cx="16" cy="21"/>
</svg>
