<svg version="1.1" viewBox="0 0 48 48" xmlns="http://www.w3.org/2000/svg" xmlns:xlink="http://www.w3.org/1999/xlink">
 <defs>
  <linearGradient id="bg" x1="1" x2="47" gradientTransform="matrix(0 -1 1 0 -1.5e-6 48)" gradientUnits="userSpaceOnUse">
   <stop style="stop-color:#6a5d53" offset="0"/>
   <stop style="stop-color:#75675c" offset="1"/>
  </linearGradient>
 </defs>
 <path d="m36.3 5c5.86 4.06 9.69 10.8 9.69 18.5 0 12.4-10.1 22.5-22.5 22.5-7.67 0-14.4-3.83-18.5-9.69 1.04 1.82 2.31 3.5 3.78 4.97 4.08 3.71 9.51 5.97 15.5 5.97 12.7 0 23-10.3 23-23 0-5.95-2.26-11.4-5.97-15.5-1.47-1.48-3.15-2.74-4.97-3.78zm4.97 3.78c3.85 4.11 6.22 9.64 6.22 15.7 0 12.7-10.3 23-23 23-6.08 0-11.6-2.36-15.7-6.22 4.16 4.14 9.88 6.72 16.2 6.72 12.7 0 23-10.3 23-23 0-6.34-2.58-12.1-6.72-16.2z" style="opacity:.05"/>
 <path d="m41.3 8.78c3.71 4.08 5.97 9.51 5.97 15.5 0 12.7-10.3 23-23 23-5.95 0-11.4-2.26-15.5-5.97 4.11 3.85 9.64 6.22 15.7 6.22 12.7 0 23-10.3 23-23 0-6.08-2.36-11.6-6.22-15.7z" style="opacity:.1"/>
 <path d="m31.2 2.38c8.62 3.15 14.8 11.4 14.8 21.1 0 12.4-10.1 22.5-22.5 22.5-9.71 0-18-6.14-21.1-14.8a23 23 0 0 0 44.9-7 23 23 0 0 0-16-21.9z" style="opacity:.2"/>
 <path d="m24 1c12.7 0 23 10.3 23 23s-10.3 23-23 23-23-10.3-23-23 10.3-23 23-23z" style="fill:url(#bg)"/>
 <path d="m40 7.53c3.71 4.08 5.97 9.51 5.97 15.5 0 12.7-10.3 23-23 23-5.95 0-11.4-2.26-15.5-5.97 4.18 4.29 10 6.97 16.5 6.97 12.7 0 23-10.3 23-23 0-6.46-2.68-12.3-6.97-16.5z" style="opacity:.1"/>
 <path d="m32 12c1.11 0 2 0.892 2 2v22c0 1.11-0.892 2-2 2h-14c-1.11 0-2-0.892-2-2z" style="opacity:.1"/>
 <rect x="15" y="11" width="18" height="26" ry="2" style="fill:#f9f9f9"/>
 <path d="m24 18c-0.28 0-0.509 0.0948-0.707 0.293-0.5 0.5-1.53 1.53-2.46 2.72-0.898 1.15-1.84 2.39-1.84 3.99 0 1.1 0.895 2 2 2 0.713-2e-3 1.37-0.383 1.73-1h2e-3l-0.717 3.4c-0.0657 0.311 0.171 0.603 0.488 0.604h3c0.317-6.01e-4 0.554-0.293 0.488-0.604l-0.717-3.4h2e-3c0.356 0.617 1.01 0.998 1.73 1 1.1 0 2-0.895 2-2 0-1.6-0.938-2.83-1.84-3.99-0.925-1.19-1.96-2.22-2.46-2.72-0.198-0.198-0.427-0.293-0.707-0.293z" style="fill:#474747"/>
 <path id="A" d="m18.5 13c-0.831 0-1.5 0.669-1.5 1.5v2c0 0.277 0.223 0.5 0.5 0.5s0.5-0.223 0.5-0.5v-0.5h1v0.5c0 0.277 0.223 0.5 0.5 0.5s0.5-0.223 0.5-0.5v-2c0-0.831-0.669-1.5-1.5-1.5zm0 1c0.277 0 0.5 0.223 0.5 0.5v0.5h-1v-0.5c0-0.277 0.223-0.5 0.5-0.5z" style="fill:#474747"/>
 <use transform="rotate(180,24,24)" xlink:href="#A"/>
</svg>
