<svg version="1.1" viewBox="0 0 48 48" xmlns="http://www.w3.org/2000/svg">
 <defs>
  <linearGradient id="bg" x2="0" y1="1" y2="47" gradientUnits="userSpaceOnUse">
   <stop style="stop-color:#814b5c" offset="0"/>
   <stop style="stop-color:#744453" offset="1"/>
  </linearGradient>
 </defs>
 <path d="m36.3 5c5.86 4.06 9.69 10.8 9.69 18.5 0 12.4-10.1 22.5-22.5 22.5-7.67 0-14.4-3.83-18.5-9.69 1.04 1.82 2.31 3.5 3.78 4.97 4.08 3.71 9.51 5.97 15.5 5.97 12.7 0 23-10.3 23-23 0-5.95-2.26-11.4-5.97-15.5-1.47-1.48-3.15-2.74-4.97-3.78zm4.97 3.78c3.85 4.11 6.22 9.64 6.22 15.7 0 12.7-10.3 23-23 23-6.08 0-11.6-2.36-15.7-6.22 4.16 4.14 9.88 6.72 16.2 6.72 12.7 0 23-10.3 23-23 0-6.34-2.58-12.1-6.72-16.2z" style="opacity:.05"/>
 <path d="m41.3 8.78c3.71 4.08 5.97 9.51 5.97 15.5 0 12.7-10.3 23-23 23-5.95 0-11.4-2.26-15.5-5.97 4.11 3.85 9.64 6.22 15.7 6.22 12.7 0 23-10.3 23-23 0-6.08-2.36-11.6-6.22-15.7z" style="opacity:.1"/>
 <path d="m31.2 2.38c8.62 3.15 14.8 11.4 14.8 21.1 0 12.4-10.1 22.5-22.5 22.5-9.71 0-18-6.14-21.1-14.8a23 23 0 0 0 44.9-7 23 23 0 0 0-16-21.9z" style="opacity:.2"/>
 <circle cx="24" cy="24" r="23" style="fill:url(#bg)"/>
 <path d="m40 7.53c3.71 4.08 5.97 9.51 5.97 15.5 0 12.7-10.3 23-23 23-5.95 0-11.4-2.26-15.5-5.97 4.18 4.29 10 6.97 16.5 6.97 12.7 0 23-10.3 23-23 0-6.46-2.68-12.3-6.97-16.5z" style="opacity:.1"/>
 <rect x="12" y="16" width="26" height="18" ry="2" style="opacity:.1"/>
 <rect x="11" y="15" width="26" height="18" ry="2" style="fill:#f7a75f"/>
 <path d="m15 17h18l2 2v1l-1 3 1 3v3h-22v-3l1-3-1-3v-1z" style="fill:#f6f5f4"/>
 <path d="m13 20v7h22v-7zm5.5 2c0.828 0 1.5 0.672 1.5 1.5s-0.672 1.5-1.5 1.5-1.5-0.672-1.5-1.5 0.672-1.5 1.5-1.5zm11 0c0.828 0 1.5 0.672 1.5 1.5s-0.672 1.5-1.5 1.5-1.5-0.672-1.5-1.5 0.672-1.5 1.5-1.5z" style="fill:#504d56"/>
 <path d="m18 29h12l1 3v1h-14v-1z" style="fill:#9f9d99"/>
 <path d="m11 30v1c0 1.11 0.892 2 2 2h22c1.11 0 2-0.892 2-2v-1c0 1.11-0.892 2-2 2h-22c-1.11 0-2-0.892-2-2z" style="opacity:.1"/>
 <path d="m24.8 22-0.0039 3h2.21v-3z" style="fill:#a8a7a4"/>
 <path d="m21 22v3h3.79c0.14-0.488 0.214-0.993 0.215-1.5s-0.0718-1.01-0.211-1.5z" style="fill:#7f7c80"/>
</svg>
