<svg xmlns="http://www.w3.org/2000/svg" version="1.1" xmlns:xlink="http://www.w3.org/1999/xlink" viewBox="0 0 48 48">
 <defs>
  <linearGradient id="linearGradient878" y2="18.959" gradientUnits="userSpaceOnUse" x2="11.492" y1="18.959" x1="-24.814">
   <stop style="stop-color:#9cb6d3" offset="0"/>
   <stop style="stop-color:#abc1d9" offset="1"/>
  </linearGradient>
 </defs>
 <path style="opacity:.05" d="m36.31 5c5.859 4.062 9.688 10.831 9.688 18.5 0 12.426-10.07 22.5-22.5 22.5-7.669 0-14.438-3.828-18.5-9.688 1.037 1.822 2.306 3.499 3.781 4.969 4.085 3.712 9.514 5.969 15.469 5.969 12.703 0 23-10.298 23-23 0-5.954-2.256-11.384-5.969-15.469-1.469-1.475-3.147-2.744-4.969-3.781zm4.969 3.781c3.854 4.113 6.219 9.637 6.219 15.719 0 12.703-10.297 23-23 23-6.081 0-11.606-2.364-15.719-6.219 4.16 4.144 9.883 6.719 16.219 6.719 12.703 0 23-10.298 23-23 0-6.335-2.575-12.06-6.719-16.219z"/>
 <path style="opacity:.1" d="m41.28 8.781c3.712 4.085 5.969 9.514 5.969 15.469 0 12.703-10.297 23-23 23-5.954 0-11.384-2.256-15.469-5.969 4.113 3.854 9.637 6.219 15.719 6.219 12.703 0 23-10.298 23-23 0-6.081-2.364-11.606-6.219-15.719z"/>
 <path style="opacity:.2" d="m31.25 2.375c8.615 3.154 14.75 11.417 14.75 21.13 0 12.426-10.07 22.5-22.5 22.5-9.708 0-17.971-6.135-21.12-14.75a23 23 0 0 0 44.875 -7 23 23 0 0 0 -16 -21.875z"/>
 <path style="fill:url(#linearGradient878)" d="m11.492 34.983a18.15 15.356 0 1 1 -36.31 0 18.15 15.356 0 1 1 36.31 0z" transform="matrix(0 -1.267 1.4978 0 -28.397 15.56)"/>
 <path style="opacity:.1" d="m40.03 7.531c3.712 4.084 5.969 9.514 5.969 15.469 0 12.703-10.297 23-23 23-5.954 0-11.384-2.256-15.469-5.969 4.178 4.291 10.01 6.969 16.469 6.969 12.703 0 23-10.298 23-23 0-6.462-2.677-12.291-6.969-16.469z"/>
 <g transform="translate(.00048846 .00042159)">
  <g transform="translate(1,1)">
   <g style="opacity:.1">
    <path d="m25 11c-4.144 0-6.855 2.382-8.137 5.176-1.596-0.05-3.192-0.102-4.783-0.176-0.586-0.031-1.145 0.648-1.066 1.098 1.01 6.68 1.063 12.92 0 19.803-0.074 0.453 0.48 1.121 1.066 1.098h25.836c0.598 0.023 1.148-0.645 1.078-1.098-1.063-6.879-1.078-13.201 0-19.803 0.078-0.453-0.48-1.133-1.078-1.098-1.598 0.087-3.185 0.136-4.773 0.188-1.28-2.8-3.995-5.188-8.143-5.188zm0 1c3.2 0 5.576 1.981 6.875 4.236-4.614 0.123-9.191 0.108-13.742-0.016 1.301-2.25 3.674-4.221 6.867-4.221z" transform="translate(-1.0005 -1.0004)"/>
   </g>
  </g>
 </g>
 <path style="fill:#f8ecde" d="m11.08 15c-0.586-0.031-1.145 0.648-1.066 1.098 1.01 6.68 1.063 12.918 0 19.801-0.074 0.453 0.48 1.121 1.066 1.098h25.836c0.598 0.023 1.148-0.645 1.078-1.098-1.063-6.879-1.078-13.199 0-19.801 0.078-0.453-0.48-1.133-1.078-1.098-8.738 0.473-17.32 0.395-25.836 0"/>
 <path style="fill:#a9946f" d="m17 19.5c0 0.828-0.672 1.5-1.5 1.5s-1.5-0.672-1.5-1.5 0.672-1.5 1.5-1.5 1.5 0.672 1.5 1.5"/>
 <path style="fill:#a9946f" d="m34 19.5c0 0.828-0.672 1.5-1.5 1.5s-1.5-0.672-1.5-1.5 0.672-1.5 1.5-1.5 1.5 0.672 1.5 1.5"/>
 <path style="fill:#e5d6be" d="m15.5 20c-0.5 0-0.5-0.578-0.5-1 0-4.01 3-9 9-9 5.996 0 9 4.988 9 9 0 0.422 0 1-0.5 1s-0.5-0.578-0.5-1c0-3.168-3-8-8-8s-8 4.832-8 8c0 0.422 0 1-0.496 1"/>
 <path style="fill:#527fb2" d="m28.838 20.388c-3.143 0-3.729 4.167-1.958 4.167s5.101-4.167 1.958-4.167m-4.995 0.514c-1.771 0.216-1.171 3.088-0.23 3.14s1.999-3.355 0.23-3.14m-2.955 1.133c-0.079 0.007-0.181 0.041-0.271 0.075-1.424 0.544-0.223 2.78 0.575 2.63 0.747-0.144 0.856-2.818-0.309-2.701m-2.226 1.75c-0.124-0.003-0.239 0.055-0.384 0.144-1.137 0.729 0.366 2.468 1.038 2.195 0.586-0.239 0.212-2.311-0.654-2.339m6.492 1.349c-2.438-0.038-5.633 1.116-6.18 3.4-0.593 2.468 2.434 5.879 5.608 5.879 1.561 0 3.348-1.301 3.684-2.958 0.26-1.263-2.996-0.763-2.879 0.075 0.144 1-0.812 1.486-1.726 0.839-2.91-2.058 4.81-3.068 4.3-5.879-0.158-0.877-1.338-1.332-2.804-1.352m0-0.003"/>
</svg>
