<svg version="1.1" viewBox="0 0 48 48" xmlns="http://www.w3.org/2000/svg">
 <defs>
  <linearGradient id="bg" x2="0" y1="1" y2="47" gradientUnits="userSpaceOnUse">
   <stop style="stop-color:#9acae8" offset="0"/>
   <stop style="stop-color:#8ac1e4" offset="1"/>
  </linearGradient>
 </defs>
 <path d="m36.31 5c5.859 4.062 9.688 10.831 9.688 18.5 0 12.426-10.07 22.5-22.5 22.5-7.669 0-14.438-3.828-18.5-9.688 1.037 1.822 2.306 3.499 3.781 4.969 4.085 3.712 9.514 5.969 15.469 5.969 12.703 0 23-10.298 23-23 0-5.954-2.256-11.384-5.969-15.469-1.469-1.475-3.147-2.744-4.969-3.781zm4.969 3.781c3.854 4.113 6.219 9.637 6.219 15.719 0 12.703-10.297 23-23 23-6.081 0-11.606-2.364-15.719-6.219 4.16 4.144 9.883 6.719 16.219 6.719 12.703 0 23-10.298 23-23 0-6.335-2.575-12.06-6.719-16.219z" style="opacity:.05"/>
 <path d="m41.28 8.781c3.712 4.085 5.969 9.514 5.969 15.469 0 12.703-10.297 23-23 23-5.954 0-11.384-2.256-15.469-5.969 4.113 3.854 9.637 6.219 15.719 6.219 12.703 0 23-10.298 23-23 0-6.081-2.364-11.606-6.219-15.719z" style="opacity:.1"/>
 <path d="m31.25 2.375c8.615 3.154 14.75 11.417 14.75 21.13 0 12.426-10.07 22.5-22.5 22.5-9.708 0-17.971-6.135-21.12-14.75a23 23 0 0 0 44.875-7 23 23 0 0 0-16-21.875z" style="opacity:.2"/>
 <circle cx="24" cy="24" r="23" style="fill:url(#bg)"/>
 <path d="m40.03 7.531c3.712 4.084 5.969 9.514 5.969 15.469 0 12.703-10.297 23-23 23-5.954 0-11.384-2.256-15.469-5.969 4.178 4.291 10.01 6.969 16.469 6.969 12.703 0 23-10.298 23-23 0-6.462-2.677-12.291-6.969-16.469z" style="opacity:.1"/>
 <path d="m25 10.001c-1.442 0-2.646 1.02-2.934 2.377-1.131 0.285-2.198 0.726-3.176 1.307l-0.574-0.996c-0.207-0.36-0.606-0.516-0.895-0.352l-4.422 11.663c0 4.241 2.203 7.96 5.523 10.09l-2.336 3.336c-0.321 0.453-0.207 1.075 0.242 1.391 0.454 0.321 1.079 0.207 1.395-0.242l2.475-3.535c1.444 0.615 3.03 0.957 4.701 0.957 1.505 0 2.939-0.29 4.266-0.795l2.359 3.373c0.316 0.449 0.938 0.563 1.391 0.242 0.453-0.316 0.563-0.938 0.246-1.391l-2.172-3.102c3.534-2.088 5.91-5.925 5.91-10.328 0-2.132-0.561-4.13-1.535-5.865l1.414-2.449c0.207-0.359 0.141-0.785-0.145-0.949l-4.156-2.4c-0.289-0.164-0.688-8e-3 -0.895 0.352l-0.574 0.996c-0.978-0.58-2.045-1.022-3.176-1.307-0.288-1.357-1.492-2.377-2.934-2.377z" style="opacity:.1"/>
 <path d="m31.346 11.271c-0.24384-0.0084-0.50686 0.14797-0.66211 0.41797l-2.25 3.8945 5.1953 2.998 2.25-3.8945c0.207-0.359 0.14147-0.78522-0.14453-0.94922l-4.1562-2.4004c-0.07225-0.041-0.15114-0.06359-0.23242-0.06641zm-14.691 2e-3c-0.08128 0.0028-0.16017 0.02345-0.23242 0.06445l-4.1562 2.4023c-0.286 0.164-0.35153 0.59022-0.14453 0.94922l2.25 3.8945 5.1953-3-2.25-3.8945c-0.15525-0.27-0.41826-0.42445-0.66211-0.41602zm1.9746 20.244-3.4414 4.9141c-0.321 0.453-0.20681 1.0746 0.24219 1.3906 0.454 0.321 1.0785 0.20681 1.3945-0.24219l3.4414-4.918zm10.191 0-1.6367 1.1445 3.4414 4.918c0.316 0.449 0.93762 0.56319 1.3906 0.24219 0.453-0.316 0.56309-0.93762 0.24609-1.3906z" style="fill:#edd937"/>
 <path d="m27 12.001h-6c0-1.656 1.344-3 3-3s3 1.344 3 3" style="fill:#f45984"/>
 <path d="m24 11.001c-6.629 0-12 5.371-12 12s5.371 12 12 12 12-5.371 12-12-5.371-12-12-12z" style="fill:#3c515b"/>
 <path d="m34 23.001c0 5.523-4.477 10-10 10s-10-4.477-10-10 4.477-10 10-10 10 4.477 10 10" style="fill:#f2f2dd"/>
 <path d="m24 15.001c-0.551 0-1 0.449-1 1v6h2v-6c0-0.551-0.449-1-1-1zm1.0078 8.2578-1.4141 1.4141 3.7344 4.0352c0.37564 0.40578 1.0231 0.391 1.4141 0 0.391-0.391 0.37564-1.0083 0-1.4141z" style="fill:#20c87c"/>
 <path d="m26 23.001c0 1.105-0.895 2-2 2s-2-0.895-2-2 0.895-2 2-2 2 0.895 2 2" style="fill:#566792"/>
</svg>
