<svg version="1.1" viewBox="0 0 48 48" xmlns="http://www.w3.org/2000/svg">
 <defs>
  <linearGradient id="bg" x1="1" x2="47" gradientTransform="rotate(-90 24 24)" gradientUnits="userSpaceOnUse">
   <stop style="stop-color:#4a4a4a" offset="0"/>
   <stop style="stop-color:#545454" offset="1"/>
  </linearGradient>
 </defs>
 <path d="m36.3 5c5.86 4.06 9.69 10.8 9.69 18.5 0 12.4-10.1 22.5-22.5 22.5-7.67 0-14.4-3.83-18.5-9.69 1.04 1.82 2.31 3.5 3.78 4.97 4.08 3.71 9.51 5.97 15.5 5.97 12.7 0 23-10.3 23-23 0-5.95-2.26-11.4-5.97-15.5-1.47-1.48-3.15-2.74-4.97-3.78zm4.97 3.78c3.85 4.11 6.22 9.64 6.22 15.7 0 12.7-10.3 23-23 23-6.08 0-11.6-2.36-15.7-6.22 4.16 4.14 9.88 6.72 16.2 6.72 12.7 0 23-10.3 23-23 0-6.34-2.58-12.1-6.72-16.2z" style="opacity:.05"/>
 <path d="m41.3 8.78c3.71 4.08 5.97 9.51 5.97 15.5 0 12.7-10.3 23-23 23-5.95 0-11.4-2.26-15.5-5.97 4.11 3.85 9.64 6.22 15.7 6.22 12.7 0 23-10.3 23-23 0-6.08-2.36-11.6-6.22-15.7z" style="opacity:.1"/>
 <path d="m31.2 2.38c8.62 3.15 14.8 11.4 14.8 21.1 0 12.4-10.1 22.5-22.5 22.5-9.71 0-18-6.14-21.1-14.8a23 23 0 0 0 44.9-7 23 23 0 0 0-16-21.9z" style="opacity:.2"/>
 <path d="m24 1c12.7 0 23 10.3 23 23s-10.3 23-23 23-23-10.3-23-23 10.3-23 23-23z" style="fill:url(#bg)"/>
 <path d="m33.7 12.3-1.41 1.41c2.02 2.02 3.46 4.55 4.18 7.31h-2.08c-0.664-2.23-1.87-4.26-3.52-5.9l-1.42 1.42c0.458 0.46 0.878 0.956 1.26 1.48l-2.74 1-2.34 0.343c1.5 1.5 2.34 5.66 2.34 5.66l-1 2h-4l2-2-2-2v-10l-5 5-5-4e-4v3h-5v8l5 4e-4 5.1e-4 3h4v-1l0.999 1 5.1e-4 3h3l2 2v-2h4v-2h-4v-1h4l0.0703 0.0703c0.335-0.34 0.646-0.704 0.93-1.09-5.1e-4 0.018 4e-5 4.02 4e-5 4.02h4v-1.34c0.414-0.526 0.79-1.08 1.12-1.66l-0.125 3-0.707 1.29 1.44 1.44c0.834-0.834 1.58-1.75 2.24-2.73h1.03v-1.75c0.388-0.752 0.722-1.53 1-2.33v1.08h4v-2h-3.71c0.0961-0.331 0.183-0.664 0.26-1h3.45v-2h-3.11c0.0373-0.332 0.0653-0.666 0.084-1h3.03v-2h-3.03c-0.0187-0.334-0.0467-0.668-0.084-1h3.11v-2h-3.45c-0.077-0.336-0.164-0.669-0.26-1h3.71v-2h-4v1.08c-0.892-2.56-2.35-4.89-4.27-6.81zm-20.7 2.73v2h4v-2zm25 0v2h4v-2zm-35 3v2h4v-2zm25.6 2h3.25c0.73 1.57 1.11 3.27 1.12 5-3.8e-4 4.9e-4 -1 2-1 2h-2.23l0.15-1h2.08v-2h-2.08l-0.15-1h2.23v-2h-2.87zm-25.6 1v2h4v-2zm40 0v2h3.97c-0.029-0.675-0.0898-1.34-0.176-2h-3.8zm-40 3v2h4v-2zm40 0v2h3.91c0.057-0.66 0.0918-1.33 0.0918-2zm-40 3v2h4v-2zm40 0v2h3.45c0.146-0.657 0.261-1.32 0.35-2h-3.8zm-40 3v2h4v-2zm5 0v2h4v-2zm35 0v2h2.57c0.239-0.645 0.447-1.3 0.629-1.97l-3.2-0.0254zm-40 3v0.381c0.246 0.551 0.509 1.09 0.797 1.62h3.2v-2h-4zm5 0v2h4v-2zm5 0v2h4v-2zm25 0v2h4v-2zm5 0v2h1.2c0.354-0.649 0.677-1.32 0.969-2h-2.17z" style="opacity:.1"/>
 <path d="m17 20v2h4v-2h-4zm25 0v2h4v-2h-4zm-25 3v2h4v-2h-4zm25 0v2h4v-2h-4zm-25 3v2h4v-2h-4zm25 0v2h4v-2h-4zm-25 3v2h4v-2h-4zm25 0v2h3.91c0.029-0.092 0.0599-0.184 0.0879-0.277v-1.72h-4zm-25 3v2h4v-2h-4zm25 0v2h2.72c0.315-0.65 0.598-1.32 0.852-2h-3.57z" style="fill:#e6cd42"/>
 <path d="m2.09 17c-0.029 0.092-0.0599 0.184-0.0879 0.277v1.72h4v-2h-3.91zm24.9 0v2h4v-2h-4zm-25 3v2h4v-2h-4zm25 0v2h4v-2h-4zm-25 3v2h4v-2h-4zm25 0v2h4v-2h-4zm-25 3v2h4v-2h-4zm25 0v2h4v-2h-4zm-25 3v1.72c0.028 0.093 0.0579 0.185 0.0879 0.277h3.91v-2h-4zm25 0v2h4v-2h-4zm-24.6 3c0.253 0.683 0.537 1.35 0.852 2h2.72v-2h-3.57zm24.6 0v2h4v-2h-4z" style="fill:#61a1f0"/>
 <path d="m7 20v2h4v-2h-4zm25 0v2h4v-2h-4zm-25 3v2h4v-2h-4zm25 0v2h4v-2h-4zm-25 3v2h4v-2h-4zm25 0v2h4v-2h-4zm-25 3v2h4v-2h-4zm25 0v2h4v-2h-4zm-25 3v2h4v-2h-4zm25 0v2h4v-2h-4z" style="fill:#e26fe2"/>
 <path d="m12 14v2h4v-2h-4zm25 0v2h4v-2h-4zm-25 3v2h4v-2h-4zm25 0v2h4v-2h-4zm-25 3v2h4v-2h-4zm25 0v2h4v-2h-4zm-25 3v2h4v-2h-4zm25 0v2h4v-2h-4zm-25 3v2h4v-2h-4zm25 0v2h4v-2h-4zm-25 3v2h4v-2h-4zm25 0v2h4v-2h-4zm-25 3v2h4v-2h-4zm25 0v2h4v-2h-4z" style="fill:#d65252"/>
 <path d="m22 26v2h4v-2h-4zm0 3v2h4v-2h-4zm0 3v2h4v-2h-4z" style="fill:#84d161"/>
 <path d="m40 7.53c3.71 4.08 5.97 9.51 5.97 15.5 0 12.7-10.3 23-23 23-5.95 0-11.4-2.26-15.5-5.97 4.18 4.29 10 6.97 16.5 6.97 12.7 0 23-10.3 23-23 0-6.46-2.68-12.3-6.97-16.5z" style="opacity:.1"/>
 <path d="m37 17v2h0.971c-0.242-0.683-0.525-1.35-0.848-2zm-9.93 0.93-0.0703 0.0703v1h0.984c-0.279-0.378-0.585-0.735-0.914-1.07zm-0.0703 2.07 0.389 2h2.14c-0.227-0.698-0.53-1.37-0.904-2zm5 0 0.582 2h2.09c-0.15-0.681-0.35-1.35-0.6-2zm5 0v2h1.75c-0.114-0.675-0.267-1.34-0.457-2zm-9.28 3 0.279 2h2c-0.0087-0.673-0.0853-1.34-0.229-2zm5.1 0 0.178 2h2c-3.1e-4 -0.669-0.0486-1.34-0.145-2zm4.18 0v2h2c4.3e-5 -0.668-0.0371-1.34-0.111-2zm-15 3v2h1v-1l1-1zm5.92 0-0.531 2h2.14c0.198-0.652 0.329-1.32 0.391-2zm5 0-0.344 2h2.1c0.144-0.659 0.24-1.33 0.287-2zm4.08 0v2h1.75c0.112-0.662 0.187-1.33 0.225-2zm-15 3v2h1v-2zm5 0v2h0.984c0.459-0.62 0.844-1.29 1.15-2zm5.28 0-0.281 2h1.65c0.306-0.646 0.562-1.31 0.766-2zm4.72 0v2h0.971c0.232-0.655 0.425-1.32 0.58-2zm-15 3v2h1v-2zm5 0 0.0703 0.0703c0.0203-0.0233 0.0405-0.0468 0.0606-0.0703zm2.47 1.47 0.531 0.531h1v-2zm2.53-1.47v1.66c0.414-0.526 0.79-1.08 1.12-1.66zm2.16 2h1.84v-2zm2.84-2v1.25c0.21-0.408 0.405-0.823 0.584-1.25z" style="opacity:.1"/>
 <path d="m32.7 11.3-1.41 1.41a16 16 0 0 1 4.69 11.3 16 16 0 0 1-4.71 11.3l1.44 1.44a18 18 0 0 0 5.27-12.7 18 18 0 0 0-5.27-12.7zm-10.7 0.729-8 8h-3c-0.554 0-1 0.446-1 1v6c0 0.554 0.446 1 1 1h3l8 8v-10l2-2-2-2v-10zm7.9 2.1-1.42 1.42a12 12 0 0 1 3.52 8.48 12 12 0 0 1-3.53 8.47l1.43 1.43a14 14 0 0 0 4.1-9.9 14 14 0 0 0-4.1-9.9zm-3.83 2.83-1.41 1.41a8 8 0 0 1 2.34 5.66 8 8 0 0 1-2.34 5.66l1.41 1.41a10 10 0 0 0 2.93-7.07 10 10 0 0 0-2.93-7.07z" style="fill:#f9f9f9"/>
</svg>
