<svg version="1.1" viewBox="0 0 48 48" xmlns="http://www.w3.org/2000/svg" xmlns:xlink="http://www.w3.org/1999/xlink">
 <defs>
  <linearGradient id="linearGradient3890" x2="0" y2="48" gradientUnits="userSpaceOnUse">
   <stop style="stop-color:#8889a3" offset="0"/>
   <stop style="stop-color:#7d7e9b" offset="1"/>
  </linearGradient>
  <linearGradient id="linearGradient870" x2="0" y1="1" y2="47" gradientUnits="userSpaceOnUse" xlink:href="#linearGradient3890"/>
 </defs>
 <path d="m36.31 5c5.859 4.062 9.688 10.831 9.688 18.5 0 12.426-10.07 22.5-22.5 22.5-7.669 0-14.438-3.828-18.5-9.688 1.037 1.822 2.306 3.499 3.781 4.969 4.085 3.712 9.514 5.969 15.469 5.969 12.703 0 23-10.298 23-23 0-5.954-2.256-11.384-5.969-15.469-1.469-1.475-3.147-2.744-4.969-3.781zm4.969 3.781c3.854 4.113 6.219 9.637 6.219 15.719 0 12.703-10.297 23-23 23-6.081 0-11.606-2.364-15.719-6.219 4.16 4.144 9.883 6.719 16.219 6.719 12.703 0 23-10.298 23-23 0-6.335-2.575-12.06-6.719-16.219z" style="opacity:.05"/>
 <path d="m41.28 8.781c3.712 4.085 5.969 9.514 5.969 15.469 0 12.703-10.297 23-23 23-5.954 0-11.384-2.256-15.469-5.969 4.113 3.854 9.637 6.219 15.719 6.219 12.703 0 23-10.298 23-23 0-6.081-2.364-11.606-6.219-15.719z" style="opacity:.1"/>
 <path d="m31.25 2.375c8.615 3.154 14.75 11.417 14.75 21.13 0 12.426-10.07 22.5-22.5 22.5-9.708 0-17.971-6.135-21.12-14.75a23 23 0 0 0 44.875 -7 23 23 0 0 0 -16 -21.875z" style="opacity:.2"/>
 <g style="fill:url(#linearGradient3890)">
  <path d="m24 1c12.703 0 23 10.297 23 23s-10.297 23-23 23-23-10.297-23-23 10.297-23 23-23z" style="fill:url(#linearGradient870)"/>
 </g>
 <path d="m40.03 7.531c3.712 4.084 5.969 9.514 5.969 15.469 0 12.703-10.297 23-23 23-5.954 0-11.384-2.256-15.469-5.969 4.178 4.291 10.01 6.969 16.469 6.969 12.703 0 23-10.298 23-23 0-6.462-2.677-12.291-6.969-16.469z" style="opacity:.1"/>
 <g transform="matrix(.99945 0 0 1 .003608 -.00055801)">
  <path d="m24.538 12c-3.553 0-6.441 2.885-6.441 6.437 0.042 1.509 0.589 2.799 1.438 3.812-0.721-0.658-1.937-1.609-3.127-2.312-0.641-0.379-1.252-0.691-1.813-0.812-0.281-0.061-0.557-0.068-0.813 0s-0.494 0.248-0.625 0.5c-0.218 0.419-0.181 0.921-0.031 1.437 0.15 0.517 0.427 1.062 0.782 1.625 0.71 1.126 1.728 2.282 2.752 3.125 1.267 1.043 2.355 1.795 3.346 2.187-0.262 0.093-0.531 0.19-0.782 0.344-1 0.613-1.856 1.745-2.658 3.75-0.652 1.63-1.162 2.848-1.438 3.75-0.138 0.451-0.198 0.812-0.219 1.125s-5e-3 0.636 0.219 0.844 0.538 0.212 0.844 0.156 0.666-0.182 1.094-0.375c0.856-0.386 2.01-1.031 3.564-1.906 1.567-0.884 4.174-2.197 6.566-2.219 2.346-0.021 3.901 0.758 5.065 2 0.852 0.909 1.557 1.532 2.157 1.906 0.3 0.187 0.578 0.292 0.844 0.344 0.267 0.051 0.533 0.025 0.75-0.125s0.367-0.387 0.438-0.656 0.081-0.57 0.063-0.937c-0.037-0.735-0.217-1.685-0.563-2.875-0.548-1.887-1.018-3.247-2.032-4.156-0.689-0.617-1.604-0.973-2.908-1.156 0.795-0.402 1.513-0.99 2.064-1.5 1.226-1.149 2.494-2.973 3.252-4.656 0.379-0.841 0.638-1.652 0.688-2.344 0.084-0.794-0.166-1.433-0.75-1.656-0.336-0.11-0.645 0.036-0.938 0.156-0.308 0.157-0.635 0.364-1 0.656-0.731 0.584-1.617 1.395-2.626 2.219-0.686 0.56-1.428 1.122-2.22 1.625 0.722-0.964 1.258-2.241 1.501-3.875 0-3.553-2.888-6.437-6.441-6.437z" style="fill-opacity:.137"/>
  <path d="m27.865 26.994h-6.389c-2.277 0-4.03 0.284-5.607 4.219-2.606 6.516-2.6 6.678 3.599 3.18 1.579-0.891 4.194-2.244 6.704-2.267 2.423-0.022 4.094 0.797 5.315 2.1 3.363 3.587 4.478 2.684 3.114-2.02-1.091-3.76-1.75-5.17-6.736-5.215z" style="fill:#0fcd0f"/>
  <path d="m29.967 17.432c0 3.553-2.513 6.43-6.433 6.432-4.124 2e-3 -6.432-2.88-6.432-6.432 0-3.553 2.88-6.432 6.432-6.432 3.553 0 6.433 2.88 6.433 6.432z" style="fill:#191919"/>
  <path d="m28.01 14c-4.416 0-4.964 0-5.987 1.108-1.618 1.752-3.745 4.212-3.745 4.212 0.372 2.023 1.829 3.71 5.177 3.68 3.321-0.03 5.657-2.265 5.656-5.5 0-1.285-0.292-2.326-1.101-3.5z" style="fill:#fed59f"/>
  <path d="m35.13 16.979c-1.402-0.536-5.954 6.35-11.755 6.421-1.373 0.027-3.373-0.279-4.898-1.738-1.321-1.263-5.297-4.283-6.02-2.889-0.631 1.211 1.441 4.147 3.425 5.78 1.943 1.6 3.435 2.436 4.672 2.436h7.545c1.303 0 2.808-1.052 3.747-1.923 2.357-2.21 4.972-7.228 3.287-8.09z" style="fill:#e61e1e"/>
  <path transform="matrix(1.5785 0 0 1.5632 -12.451 -10.575)" d="m25 17.64c0 0.353-0.284 0.64-0.634 0.64s-0.634-0.286-0.634-0.64c0-0.353 0.284-0.64 0.634-0.64s0.634 0.286 0.634 0.64z" style="fill:#191919"/>
  <path d="m34.31 16.812c-0.308 0.157-0.635 0.364-1 0.656-0.731 0.584-1.615 1.395-2.625 2.219-2.02 1.648-4.544 3.341-7.313 3.375-1.317 0.026-3.22-0.283-4.656-1.656-0.686-0.656-2.03-1.711-3.313-2.469-0.641-0.379-1.251-0.691-1.813-0.813-0.281-0.061-0.556-0.068-0.813 0-0.256 0.068-0.494 0.248-0.625 0.5-0.218 0.419-0.181 0.921-0.031 1.438s0.426 1.062 0.781 1.625c0.71 1.126 1.726 2.282 2.75 3.125 1.267 1.043 2.353 1.795 3.344 2.188-0.262 0.093-0.531 0.19-0.781 0.344-1 0.613-1.855 1.745-2.656 3.75-0.652 1.63-1.161 2.849-1.438 3.75-0.138 0.451-0.198 0.812-0.219 1.125s-5e-3 0.636 0.219 0.844 0.537 0.212 0.844 0.156c0.306-0.056 0.666-0.182 1.094-0.375 0.856-0.386 2.01-1.031 3.563-1.906 1.567-0.884 4.171-2.197 6.563-2.219 2.346-0.021 3.898 0.758 5.063 2 0.852 0.909 1.556 1.532 2.156 1.906 0.3 0.187 0.577 0.292 0.844 0.344 0.267 0.051 0.533 0.025 0.75-0.125s0.367-0.387 0.438-0.656 0.081-0.57 0.063-0.938c-0.037-0.735-0.217-1.685-0.563-2.875-0.548-1.887-1.017-3.247-2.031-4.156-0.689-0.617-1.603-0.973-2.906-1.156 0.795-0.402 1.512-0.99 2.063-1.5 1.226-1.149 2.492-2.974 3.25-4.656 0.379-0.841 0.638-1.652 0.688-2.344 0.084-0.794-0.165-1.433-0.75-1.656-0.336-0.11-0.644 0.036-0.938 0.156zm1.022 1.507c-0.04 0.559-0.288 1.258-0.647 2.055-0.718 1.594-1.931 3.377-3.063 4.438-0.907 0.841-2.409 1.844-3.531 1.844h-7.531c-1.086 0-2.546-0.792-4.469-2.375-0.96-0.79-1.961-1.916-2.625-2.969-0.332-0.526-0.595-1.012-0.719-1.438-0.123-0.426-0.097-0.751 0-0.938 0.185-0.268 0.473-0.255 0.688-0.217 0.43 0.093 1.017 0.42 1.625 0.78 1.217 0.719 2.652 1.799 3.287 2.406 1.614 1.544 3.596 1.872 5.03 1.844 3.03-0.037 5.693-1.852 7.75-3.531 1.029-0.839 1.895-1.66 2.594-2.219 0.349-0.279 0.675-0.476 0.906-0.594 0.843-0.36 0.717 0.34 0.71 0.914zm-13.866 9.02h6.406c2.461 0.022 3.76 0.378 4.594 1.125s1.269 1.97 1.813 3.844c0.337 1.161 0.499 2.074 0.531 2.719 0.016 0.322 0.013 0.581-0.031 0.75-0.045 0.169-0.109 0.249-0.156 0.281s-0.105 0.028-0.25 0-0.369-0.091-0.625-0.25c-0.512-0.319-1.202-0.928-2.031-1.813-1.278-1.363-3.063-2.241-5.563-2.219-2.629 0.024-5.254 1.415-6.844 2.313-1.549 0.874-2.725 1.511-3.531 1.875-0.403 0.182-0.729 0.306-0.938 0.344-0.208 0.038-0.249 0-0.25 0 0 0-0.046-0.062-0.031-0.281s0.088-0.543 0.219-0.969c0.261-0.852 0.755-2.09 1.406-3.719 0.772-1.93 1.568-2.925 2.406-3.438 0.838-0.512 1.75-0.563 2.875-0.563z" style="fill:#191919"/>
 </g>
</svg>
