<svg version="1.1" viewBox="0 0 48 48" xmlns="http://www.w3.org/2000/svg" xmlns:xlink="http://www.w3.org/1999/xlink">
 <defs>
  <linearGradient id="linearGradient850">
   <stop style="stop-color:#cfcff5" offset="0"/>
   <stop style="stop-color:#e0e0f8" offset="1"/>
  </linearGradient>
  <linearGradient id="linearGradient852" x1="1" x2="47" y1="24" y2="24" gradientUnits="userSpaceOnUse" xlink:href="#linearGradient850"/>
 </defs>
 <path d="m36.31 5c5.859 4.062 9.688 10.831 9.688 18.5 0 12.426-10.07 22.5-22.5 22.5-7.669 0-14.438-3.828-18.5-9.688 1.037 1.822 2.306 3.499 3.781 4.969 4.085 3.712 9.514 5.969 15.469 5.969 12.703 0 23-10.298 23-23 0-5.954-2.256-11.384-5.969-15.469-1.469-1.475-3.147-2.744-4.969-3.781zm4.969 3.781c3.854 4.113 6.219 9.637 6.219 15.719 0 12.703-10.297 23-23 23-6.081 0-11.606-2.364-15.719-6.219 4.16 4.144 9.883 6.719 16.219 6.719 12.703 0 23-10.298 23-23 0-6.335-2.575-12.06-6.719-16.219z" style="opacity:.05"/>
 <path d="m41.28 8.781c3.712 4.085 5.969 9.514 5.969 15.469 0 12.703-10.297 23-23 23-5.954 0-11.384-2.256-15.469-5.969 4.113 3.854 9.637 6.219 15.719 6.219 12.703 0 23-10.298 23-23 0-6.081-2.364-11.606-6.219-15.719z" style="opacity:.1"/>
 <path d="m31.25 2.375c8.615 3.154 14.75 11.417 14.75 21.13 0 12.426-10.07 22.5-22.5 22.5-9.708 0-17.971-6.135-21.12-14.75a23 23 0 0 0 44.875-7 23 23 0 0 0-16-21.875z" style="opacity:.2"/>
 <g transform="rotate(-90,24,24)" style="fill:url(#linearGradient852)">
  <path d="m24 1c12.703 0 23 10.297 23 23s-10.297 23-23 23-23-10.297-23-23 10.297-23 23-23z" style="fill:url(#linearGradient852)"/>
 </g>
 <path d="m40.03 7.531c3.712 4.084 5.969 9.514 5.969 15.469 0 12.703-10.297 23-23 23-5.954 0-11.384-2.256-15.469-5.969 4.178 4.291 10.01 6.969 16.469 6.969 12.703 0 23-10.298 23-23 0-6.462-2.677-12.291-6.969-16.469z" style="opacity:.1"/>
 <path d="m25.004 14c-3.866 0-7 3.134-7 7h-0.003906v2c-1.108 0-2 0.892-2 2v9c0 1.108 0.892 2 2 2h14c1.108 0 2-0.892 2-2v-9c0-1.1073-0.89097-1.9989-1.998-2l2e-3 -2c0-3.866-3.134-7-7-7zm-0.003906 3c2.209 0 3.9999 1.7908 4 4v2h-8v-2c1.29e-4 -2.2092 1.791-4 4-4z" style="opacity:.1"/>
 <path d="m24.004 13c-3.866 0-7 3.134-7 7h-0.003906v3h3v-3c1.29e-4 -2.2092 1.791-4 4-4s3.9999 1.7908 4 4v3h3l0.0039-3c0-3.866-3.134-7-7-7z" style="fill:#7b8588;stroke-width:1.1667"/>
 <path d="m17 22h14c1.108 0 2 0.892 2 2v9c0 1.108-0.892 2-2 2h-14c-1.108 0-2-0.892-2-2v-9c0-1.108 0.892-2 2-2z" style="fill:#0093dd"/>
 <path d="m19 33v-2c0-2.2728 1.5362-3.8678 3-4 1.4638-0.13224 8 0.67188 10-2-1.5584 2.5511-2.522 3.4342-7 4 2.3407 0.28412 4.1429 8.2e-5 6-1-1.2571 1.6426-2.8057 3.1523-8 3 3.2129 0.55155 4.9816 0.18842 6.4446-0.36831-2.4446 2.3683-7.4446 2.3683-10.445 2.3683z" style="opacity:.1"/>
 <path d="m18 32v-2c0-2.2728 1.5362-3.8678 3-4 1.4638-0.13224 8 0.67188 10-2-1.5584 2.5511-2.522 3.4342-7 4 2.3407 0.28412 4.1429 8.2e-5 6-1-1.2571 1.6426-2.8057 3.1523-8 3 3.2129 0.55155 4.9816 0.18842 6.4446-0.36831-2.4446 2.3683-7.4446 2.3683-10.445 2.3683z" style="fill:#f9f9f9"/>
</svg>
