<svg xmlns="http://www.w3.org/2000/svg" viewBox="0 0 48 48">
 <defs>
  <linearGradient id="linearGradient4004" y1="48" x2="0" y2="0" gradientUnits="userSpaceOnUse">
   <stop style="stop-color:#555;stop-opacity:1"/>
   <stop offset="1" style="stop-color:#5f5f5f;stop-opacity:1"/>
  </linearGradient>
 </defs>
 <g>
  <path d="m 36.31 5 c 5.859 4.062 9.688 10.831 9.688 18.5 c 0 12.426 -10.07 22.5 -22.5 22.5 c -7.669 0 -14.438 -3.828 -18.5 -9.688 c 1.037 1.822 2.306 3.499 3.781 4.969 c 4.085 3.712 9.514 5.969 15.469 5.969 c 12.703 0 23 -10.298 23 -23 c 0 -5.954 -2.256 -11.384 -5.969 -15.469 c -1.469 -1.475 -3.147 -2.744 -4.969 -3.781 z m 4.969 3.781 c 3.854 4.113 6.219 9.637 6.219 15.719 c 0 12.703 -10.297 23 -23 23 c -6.081 0 -11.606 -2.364 -15.719 -6.219 c 4.16 4.144 9.883 6.719 16.219 6.719 c 12.703 0 23 -10.298 23 -23 c 0 -6.335 -2.575 -12.06 -6.719 -16.219 z" style="opacity:0.05"/>
  <path d="m 41.28 8.781 c 3.712 4.085 5.969 9.514 5.969 15.469 c 0 12.703 -10.297 23 -23 23 c -5.954 0 -11.384 -2.256 -15.469 -5.969 c 4.113 3.854 9.637 6.219 15.719 6.219 c 12.703 0 23 -10.298 23 -23 c 0 -6.081 -2.364 -11.606 -6.219 -15.719 z" style="opacity:0.1"/>
  <path d="m 31.25 2.375 c 8.615 3.154 14.75 11.417 14.75 21.13 c 0 12.426 -10.07 22.5 -22.5 22.5 c -9.708 0 -17.971 -6.135 -21.12 -14.75 a 23 23 0 0 0 44.875 -7 a 23 23 0 0 0 -16 -21.875 z" style="opacity:0.2"/>
 </g>
 <g>
  <path d="m 24 1 c 12.703 0 23 10.297 23 23 c 0 12.703 -10.297 23 -23 23 -12.703 0 -23 -10.297 -23 -23 0 -12.703 10.297 -23 23 -23 z" style="fill:url(#linearGradient4004);fill-opacity:1"/>
 </g>
 <g transform="translate(0,1)">
  <g>
   <g transform="translate(1,1)">
    <g style="opacity:0.1">
     <!-- color: #9ac9e8 -->
     <g>
      <path d="m 25 12 c -7.181 0 -13 5.819 -13 13 c 0 7.181 5.819 13 13 13 c 2.785 0 5.359 -0.883 7.475 -2.373 l 1.525 1.373 c 0.245 0.22 0.671 0.151 0.949 -0.158 l 3.01 -3.342 c 0.277 -0.308 0.301 -0.738 0.055 -0.957 l -1.555 -1.402 c 0.982 -1.829 1.541 -3.919 1.541 -6.141 c 0 -3.01 -1.03 -5.796 -2.75 -8 l 2.75 -2.688 l -2 -2.031 l -2.656 2.75 c -2.257 -1.888 -5.17 -3.03 -8.344 -3.03 l 0 -0.002 z" transform="translate(-1,-2)" style="fill:#000;fill-opacity:1;stroke:none;fill-rule:nonzero"/>
     </g>
    </g>
   </g>
  </g>
 </g>
 <g>
  <path d="m 40.03 7.531 c 3.712 4.084 5.969 9.514 5.969 15.469 0 12.703 -10.297 23 -23 23 c -5.954 0 -11.384 -2.256 -15.469 -5.969 4.178 4.291 10.01 6.969 16.469 6.969 c 12.703 0 23 -10.298 23 -23 0 -6.462 -2.677 -12.291 -6.969 -16.469 z" style="opacity:0.1"/>
 </g>
 <g>
  <g transform="translate(0,1)">
   <g>
    <!-- color: #9ac9e8 -->
    <g>
     <path d="M 29.433,31.79 33,35 c 0.245,0.22 0.671,0.151 0.949,-0.158 l 3.01,-3.342 c 0.277,-0.308 0.301,-0.739 0.055,-0.958 l -3.566,-3.214 c -0.249,-0.221 -0.671,-0.151 -0.949,0.158 l -3.01,3.342 c -0.277,0.308 -0.305,0.738 -0.056,0.962 m 0,0" style="fill:#949698;fill-opacity:1;stroke:none;fill-rule:nonzero"/>
     <path d="m 37 23 c 0 7.181 -5.819 13 -13 13 -7.181 0 -13 -5.819 -13 -13 0 -7.181 5.819 -13 13 -13 7.181 0 13 5.819 13 13 m 0 0" style="fill:#949698;fill-opacity:1;stroke:none;fill-rule:nonzero"/>
     <path d="m 35 23 c 0 6.075 -4.925 11 -11 11 -6.075 0 -11 -4.925 -11 -11 0 -6.075 4.925 -11 11 -11 6.075 0 11 4.925 11 11 m 0 0" style="fill:#ebebeb;fill-opacity:1;stroke:none;fill-rule:nonzero"/>
    </g>
   </g>
  </g>
  <rect rx="0.3" y="23" x="14" height="2" width="4" style="fill:#b6b6b6;fill-opacity:1;stroke:none;fill-rule:nonzero"/>
  <rect width="4" height="2" x="30" y="23" rx="0.3" style="fill:#b6b6b6;fill-opacity:1;stroke:none;fill-rule:nonzero"/>
  <rect transform="matrix(0,1,-1,0,0,0)" rx="0.3" y="-25" x="14" height="2" width="4" style="fill:#b6b6b6;fill-opacity:1;stroke:none;fill-rule:nonzero"/>
  <rect width="4" height="2" x="30" y="-25" rx="0.3" transform="matrix(0,1,-1,0,0,0)" style="fill:#b6b6b6;fill-opacity:1;stroke:none;fill-rule:nonzero"/>
  <path d="m 33.375,15 -7.656,7.937 C 25.489,22.856 25.258,22.812 25,22.812 c -0.258,0 -0.489,0.044 -0.719,0.125 l -4.781,-4.875 -1.75,1.75 5.063,5.03 c -0.004,0.053 0,0.102 0,0.156 0,1.215 0.972,2.188 2.188,2.188 1.215,0 2.188,-0.972 2.188,-2.188 0,-0.043 0.003,-0.082 0,-0.125 l 7.875,-7.688 c -0.486,-0.788 -1.05,-1.523 -1.688,-2.187 z" style="fill:#000;fill-opacity:0.098;stroke:none;fill-rule:nonzero"/>
  <path d="M 35,11.278125 24,22.65 18.5,17.05 16.75,18.8 24,26 37,13.3 z" style="fill:#5fd35f;fill-opacity:1;stroke:none;fill-rule:nonzero"/>
  <path transform="matrix(1.6761905,0,0,1.2243478,-16.752382,-5.1356515)" d="m 25.625 23.797 a 1.313 1.797 0 1 1 -2.625 0 1.313 1.797 0 1 1 2.625 0 z" style="fill:#949698;fill-opacity:1;stroke:none;fill-rule:nonzero"/>
 </g>
</svg>
