<svg version="1.1" viewBox="0 0 48 48" xmlns="http://www.w3.org/2000/svg">
 <defs>
  <linearGradient id="bg" x1="1" x2="47" gradientTransform="matrix(0 -1 1 0 -1.5e-6 48)" gradientUnits="userSpaceOnUse">
   <stop style="stop-color:#bebebe" offset="0"/>
   <stop style="stop-color:#c8c8c8" offset="1"/>
  </linearGradient>
 </defs>
 <path d="m36.3 5c5.86 4.06 9.69 10.8 9.69 18.5 0 12.4-10.1 22.5-22.5 22.5-7.67 0-14.4-3.83-18.5-9.69 1.04 1.82 2.31 3.5 3.78 4.97 4.08 3.71 9.51 5.97 15.5 5.97 12.7 0 23-10.3 23-23 0-5.95-2.26-11.4-5.97-15.5-1.47-1.48-3.15-2.74-4.97-3.78zm4.97 3.78c3.85 4.11 6.22 9.64 6.22 15.7 0 12.7-10.3 23-23 23-6.08 0-11.6-2.36-15.7-6.22 4.16 4.14 9.88 6.72 16.2 6.72 12.7 0 23-10.3 23-23 0-6.34-2.58-12.1-6.72-16.2z" style="opacity:.05"/>
 <path d="m41.3 8.78c3.71 4.08 5.97 9.51 5.97 15.5 0 12.7-10.3 23-23 23-5.95 0-11.4-2.26-15.5-5.97 4.11 3.85 9.64 6.22 15.7 6.22 12.7 0 23-10.3 23-23 0-6.08-2.36-11.6-6.22-15.7z" style="opacity:.1"/>
 <path d="m31.2 2.38c8.62 3.15 14.8 11.4 14.8 21.1 0 12.4-10.1 22.5-22.5 22.5-9.71 0-18-6.14-21.1-14.8a23 23 0 0 0 44.9-7 23 23 0 0 0-16-21.9z" style="opacity:.2"/>
 <path d="m24 1c12.7 0 23 10.3 23 23s-10.3 23-23 23-23-10.3-23-23 10.3-23 23-23z" style="fill:url(#bg)"/>
 <path d="m40 7.53c3.71 4.08 5.97 9.51 5.97 15.5 0 12.7-10.3 23-23 23-5.95 0-11.4-2.26-15.5-5.97 4.18 4.29 10 6.97 16.5 6.97 12.7 0 23-10.3 23-23 0-6.46-2.68-12.3-6.97-16.5z" style="opacity:.1"/>
 <path d="m22.5 11c2e-3 1e-3 -2.81 9.59-2.81 9.59-1.19 2.41-4.69 1.41-4.69 5.41h9.44c-1.36 1.89-4.44 1.25-4.44 5h15c0-4-3.5-3-4.69-5.41-0.384-0.78 0.225-1.44 0.602-2.09 2.29-3.98 0.588-7.49-3.41-7.49-0.229 0-0.449 0.021-0.662 0.051 0.526-2.87-1.19-5.05-4.34-5.05zm-3.5 23-4 1.5 4 1.5 15.4-2e-3s0.564-0.241 0.564-1.49c0-1.21-0.635-1.5-0.635-1.5h-15.4z" style="opacity:.1"/>
 <path d="m31 36c0.965 3e-3 0.965-3-0.07-2.99h-13c-1 0.997-1 2 0 3" style="fill:#d05c48"/>
 <path d="m18 33-2 0.752-1 0.748 1 0.748 2 0.75z" style="fill:#e1d09b"/>
 <path d="m16 33.8-2 0.745 2 0.754" style="fill:#4d4d4d"/>
 <path d="m31 33v2.99h2.44s0.563-0.241 0.563-1.49c0-1.21-0.633-1.5-0.633-1.5h-2.37z" style="fill:#e36767"/>
 <path d="m18.1 17.5c0.477 0.586 0.986 1.31 0.602 2.09-1.19 2.41-4.69 1.41-4.69 5.41h15c0-4-3.5-3-4.69-5.41-0.384-0.78 0.225-1.44 0.602-2.09 2.29-3.98 0.587-7.5-3.41-7.5s-5.64 4.76-3.41 7.5z" style="fill:#474747"/>
 <path d="m23.1 22.5c0.477 0.586 0.986 1.31 0.602 2.09-1.19 2.41-4.69 1.41-4.69 5.41h15c0-4-3.5-3-4.69-5.41-0.384-0.78 0.225-1.44 0.602-2.09 2.29-3.98 0.587-7.5-3.41-7.5s-5.64 4.76-3.41 7.5z" style="fill:#f2f2f2"/>
</svg>
