<svg version="1.1" viewBox="0 0 48 48" xmlns="http://www.w3.org/2000/svg">
 <defs>
  <linearGradient id="linearGradient840" x1="1" x2="47" gradientUnits="userSpaceOnUse">
   <stop style="stop-color:#457d9c" offset="0"/>
   <stop style="stop-color:#4b88a9" offset="1"/>
  </linearGradient>
 </defs>
 <path d="m36.31 5c5.859 4.062 9.688 10.831 9.688 18.5 0 12.426-10.07 22.5-22.5 22.5-7.669 0-14.438-3.828-18.5-9.688 1.037 1.822 2.306 3.499 3.781 4.969 4.085 3.712 9.514 5.969 15.469 5.969 12.703 0 23-10.298 23-23 0-5.954-2.256-11.384-5.969-15.469-1.469-1.475-3.147-2.744-4.969-3.781zm4.969 3.781c3.854 4.113 6.219 9.637 6.219 15.719 0 12.703-10.297 23-23 23-6.081 0-11.606-2.364-15.719-6.219 4.16 4.144 9.883 6.719 16.219 6.719 12.703 0 23-10.298 23-23 0-6.335-2.575-12.06-6.719-16.219z" style="opacity:.05"/>
 <path d="m41.28 8.781c3.712 4.085 5.969 9.514 5.969 15.469 0 12.703-10.297 23-23 23-5.954 0-11.384-2.256-15.469-5.969 4.113 3.854 9.637 6.219 15.719 6.219 12.703 0 23-10.298 23-23 0-6.081-2.364-11.606-6.219-15.719z" style="opacity:.1"/>
 <path d="m31.25 2.375c8.615 3.154 14.75 11.417 14.75 21.13 0 12.426-10.07 22.5-22.5 22.5-9.708 0-17.971-6.135-21.12-14.75a23 23 0 0 0 44.875 -7 23 23 0 0 0 -16 -21.875z" style="opacity:.2"/>
 <g transform="matrix(0,-1,1,0,0,48)" style="fill:#501616">
  <path d="m24 1c12.703 0 23 10.297 23 23s-10.297 23-23 23-23-10.297-23-23 10.297-23 23-23z" style="fill:url(#linearGradient840)"/>
 </g>
 <path d="m40.03 7.531c3.712 4.084 5.969 9.514 5.969 15.469 0 12.703-10.297 23-23 23-5.954 0-11.384-2.256-15.469-5.969 4.178 4.291 10.01 6.969 16.469 6.969 12.703 0 23-10.298 23-23 0-6.462-2.677-12.291-6.969-16.469z" style="opacity:.1"/>
 <path d="m22 13v1.5h-1.5v1.5h-1.5v1.5h-1.5v1.5h-1.5v3h-1.5v1.5h1.5v1.5h-1.5v1.5h-1.5v4.5h1.5v1.5h1.5v1.5h1.5v1.5h-1.5v1.5h13.5v-1.5h3v-1.5h1.5v-3h1.5v-3h1.5v-3h-1.5v-1.5h1.5v-3h-1.5v-1.5h-6v1.5h-1.5v-1.5h-1.5v-3h1.5v-3z" style="opacity:.1"/>
 <path d="m21 12v1.5h4.5v1.5h1.5v-3zm4.5 3h-3v1.5h1.5v1.5h1.5v-1.5zm0 3v4.5h1.5v-1.5h1.5v-1.5h-1.5v-1.5zm3 1.5h6v-1.5h-6zm6 0v3h1.5v-3zm0 3h-1.5v1.5h1.5zm0 1.5v3h1.5v-3zm0 3h-1.5v3h1.5zm-1.5 3h-1.5v3h1.5zm-1.5 3h-3v1.5h3zm-3 1.5h-1.5v1.5h1.5zm-1.5 0v-1.5h-3v1.5zm-3-16.5h-1.5v4.5h1.5zm-3-4.5h-1.5v1.5h1.5zm-1.5 1.5h-1.5v1.5h1.5zm-1.5 1.5h-1.5v1.5h1.5zm0 1.5v3h1.5v-3zm-1.5 0h-1.5v3h1.5zm-1.5 3h-1.5v1.5h1.5zm0 1.5v1.5h1.5v-1.5zm0 1.5h-1.5v1.5h1.5zm-1.5 1.5h-1.5v4.5h1.5zm0 4.5v1.5h1.5v-1.5zm1.5 1.5v1.5h1.5v-1.5zm1.5 1.5v1.5h3v-1.5zm0 1.5h-1.5v1.5h1.5zm9-9v1.5h1.5v-1.5zm1.5 1.5v1.5h3v-1.5zm3 0h1.5v-1.5h-1.5zm-9 7.5v1.5h1.5v-1.5z" style="fill:#6b3710"/>
 <path d="m16.5 22.5v1.5h1.5v-1.5zm15 6v1.5h1.5v-1.5zm-16.5 1.5v1.5h1.5v-1.5zm1.5 1.5v1.5h1.5v-1.5zm13.5 0v1.5h1.5v-1.5zm-10.5 1.5v1.5h4.5v-1.5zm7.5 0v1.5h1.5v-1.5z" style="fill:#994f16"/>
 <path d="m18 16.5v1.5h1.5v-1.5zm0 1.5h-1.5v3h1.5zm3-1.5v1.5h3v-1.5zm3 1.5v3h1.5v-3zm4.5 1.5v1.5h1.5v-1.5zm0 1.5h-1.5v1.5h1.5zm-1.5 1.5h-1.5v1.5h1.5zm-1.5 1.5h-3v1.5h1.5v1.5h1.5v-1.5zm0 3v1.5h1.5v-1.5zm-6-6v1.5h1.5v-1.5zm0 1.5h-1.5v1.5h1.5zm-1.5 1.5h-3v1.5h-1.5v4.5h3v-1.5h1.5v-1.5h-1.5v-1.5h1.5zm0 4.5v1.5h1.5v-1.5zm1.5 0h1.5v-1.5h-1.5zm1.5 0v1.5h1.5v-1.5zm-3 1.5h-1.5v1.5h1.5zm0 1.5v1.5h1.5v-1.5zm13.5-10.5v1.5h3v-1.5zm-1.5 3v1.5h1.5v-1.5zm0 1.5h-1.5v1.5h1.5zm0 1.5v1.5h1.5v-1.5zm3-3v3h1.5v-3zm-3 6v1.5h1.5v-1.5zm0 1.5h-3v1.5h3zm-9 0v1.5h1.5v-1.5zm3 0v1.5h1.5v-1.5z" style="fill:#dda059"/>
 <path d="m19.5 34.5v1.5h1.5v-1.5zm3 0v1.5h1.5v-1.5z" style="fill:#e2943b"/>
 <path d="m15 21v1.5h4.5v-1.5zm1.5 13.5v1.5h3v-1.5zm7.5 0v1.5h3v-1.5z" style="fill:#ffd921"/>
 <path d="m21 13.5v3h1.5v-1.5h1.5v-1.5h-1.5z" style="fill:#ff4e23"/>
 <path d="m24 13.5v1.5h1.5v-1.5zm-4.5 1.5v1.5h1.5v-1.5z" style="fill:#c22323"/>
 <path d="m19.5 16.5v4.5h1.5v1.5h-1.5v1.5h-1.5v1.5h-1.5v1.5h1.5v1.5h1.5v-1.5h1.5v1.5h1.5v1.5h-1.5v-1.5h-1.5v1.5h-1.5v1.5h1.5v1.5h1.5v-1.5h1.5v1.5h1.5v-1.5h1.5v1.5h1.5v-1.5h3v-1.5h1.5v-1.5h-6v-1.5h-1.5v-1.5h-1.5v-1.5h3v-3h-1.5v1.5h-1.5v-4.5h-1.5v-1.5zm6 7.5v1.5h1.5v1.5h1.5v-1.5h1.5v-1.5h1.5v4.5h1.5v-6h-1.5v-1.5h3v-1.5h-4.5v1.5h-1.5v1.5h-1.5v1.5zm-7.5 6v-1.5h-1.5v1.5z" style="fill:#ffe1ae"/>
</svg>
