<svg version="1.1" viewBox="0 0 48 48" xmlns="http://www.w3.org/2000/svg">
 <defs>
  <linearGradient id="bg" x1="1" x2="47" gradientTransform="matrix(0 -1 1 0 -1.5e-6 48)" gradientUnits="userSpaceOnUse">
   <stop style="stop-color:#93849e" offset="0"/>
   <stop style="stop-color:#9d8fa7" offset="1"/>
  </linearGradient>
 </defs>
 <path d="m36.31 5c5.859 4.062 9.688 10.831 9.688 18.5 0 12.426-10.07 22.5-22.5 22.5-7.669 0-14.438-3.828-18.5-9.688 1.037 1.822 2.306 3.499 3.781 4.969 4.085 3.712 9.514 5.969 15.469 5.969 12.703 0 23-10.298 23-23 0-5.954-2.256-11.384-5.969-15.469-1.469-1.475-3.147-2.744-4.969-3.781zm4.969 3.781c3.854 4.113 6.219 9.637 6.219 15.719 0 12.703-10.297 23-23 23-6.081 0-11.606-2.364-15.719-6.219 4.16 4.144 9.883 6.719 16.219 6.719 12.703 0 23-10.298 23-23 0-6.335-2.575-12.06-6.719-16.219z" style="opacity:.05"/>
 <path d="m41.28 8.781c3.712 4.085 5.969 9.514 5.969 15.469 0 12.703-10.297 23-23 23-5.954 0-11.384-2.256-15.469-5.969 4.113 3.854 9.637 6.219 15.719 6.219 12.703 0 23-10.298 23-23 0-6.081-2.364-11.606-6.219-15.719z" style="opacity:.1"/>
 <path d="m31.25 2.375c8.615 3.154 14.75 11.417 14.75 21.13 0 12.426-10.07 22.5-22.5 22.5-9.708 0-17.971-6.135-21.12-14.75a23 23 0 0 0 44.875-7 23 23 0 0 0-16-21.875z" style="opacity:.2"/>
 <path d="m24 1c12.703 0 23 10.297 23 23s-10.297 23-23 23-23-10.297-23-23 10.297-23 23-23z" style="fill:url(#bg)"/>
 <g transform="translate(1,1)">
  <g style="opacity:.1"></g>
 </g>
 <path d="m14 13c-0.554 0-1 0.446-1 1v13c0 0.554 0.446 1 1 1h2v3l3 3h3v2c0 0.554 0.446 1 1 1h13c0.554 0 1-0.446 1-1v-13c0-0.554-0.446-1-1-1h-8v-8c0-0.554-0.446-1-1-1zm5 15h3v3h-3z" style="opacity:.1;paint-order:normal"/>
 <rect x="12" y="12" width="15" height="15" ry="1" style="fill:#f1ece5;paint-order:normal"/>
 <path d="m15 23c-4e-3 -0.023 0.08-0.035 0.314-0.137 0.918-0.375 1.824-0.91 2.891-1.703 0.25-0.188 0.457-0.363 0.457-0.398 0-0.031-0.063-0.113-0.141-0.188-0.27-0.25-0.957-1.098-1.238-1.535-0.277-0.426-0.711-1.318-0.711-1.439h1.418l0.188 0.392c0.227 0.5 0.688 1.207 1.074 1.648 0.156 0.176 0.301 0.328 0.324 0.336 1.2455-0.976 1.424-2.1875 1.424-3.453v-0.523h-6v-1h4v-1h1v1h4v1h-2v0.601c0 1.0118-0.186 2.621-1.393 3.875l-0.238 0.246 0.23 0.188c0.129 0.102 0.367 0.277 0.539 0.387 0.168 0.113 0.309 0.227 0.309 0.227l-0.461 1.09c-0.02 0-0.309-0.211-0.648-0.469-0.34-0.258-0.82686-0.59693-0.82686-0.59693l-0.81414 0.59693c-0.34 0.258-0.891 0.637-1.223 0.844-0.594 0.367-1.707 1.011-1.805 1.011" style="fill:#535352"/>
 <path d="m22 21c-0.554 0-1 0.446-1 1v8h-3v-3h1l-2.5-2.5-2.5 2.5h1v3l3 3h3v2c0 0.554 0.446 1 1 1h13c0.554 0 1-0.446 1-1v-13c0-0.554-0.446-1-1-1h-13z" style="fill:#367ff3"/>
 <path d="m40.03 7.531c3.712 4.084 5.969 9.514 5.969 15.469 0 12.703-10.297 23-23 23-5.954 0-11.384-2.256-15.469-5.969 4.178 4.291 10.01 6.969 16.469 6.969 12.703 0 23-10.298 23-23 0-6.462-2.677-12.291-6.969-16.469z" style="opacity:.1"/>
 <path d="m28 24c-1.045 2.783-2.1044 5.6112-3 8h1l0.74023-2h3.5195l0.74023 2h1l-3-8zm0.5 1.25 1.3887 3.75h-2.7773z" style="fill:#f9f9f9;paint-order:normal"/>
</svg>
