<svg version="1.1" viewBox="0 0 48 48" xmlns="http://www.w3.org/2000/svg">
 <defs>
  <linearGradient id="linearGradient3764" x1="1" x2="47" gradientTransform="matrix(0 -1 1 0 -1.5e-6 48)" gradientUnits="userSpaceOnUse">
   <stop style="stop-color:#457083" offset="0"/>
   <stop style="stop-color:#4c7b90" offset="1"/>
  </linearGradient>
 </defs>
 <path d="m36.31 5c5.859 4.062 9.688 10.831 9.688 18.5 0 12.426-10.07 22.5-22.5 22.5-7.669 0-14.438-3.828-18.5-9.688 1.037 1.822 2.306 3.499 3.781 4.969 4.085 3.712 9.514 5.969 15.469 5.969 12.703 0 23-10.298 23-23 0-5.954-2.256-11.384-5.969-15.469-1.469-1.475-3.147-2.744-4.969-3.781zm4.969 3.781c3.854 4.113 6.219 9.637 6.219 15.719 0 12.703-10.297 23-23 23-6.081 0-11.606-2.364-15.719-6.219 4.16 4.144 9.883 6.719 16.219 6.719 12.703 0 23-10.298 23-23 0-6.335-2.575-12.06-6.719-16.219z" style="opacity:.05"/>
 <path d="m41.28 8.781c3.712 4.085 5.969 9.514 5.969 15.469 0 12.703-10.297 23-23 23-5.954 0-11.384-2.256-15.469-5.969 4.113 3.854 9.637 6.219 15.719 6.219 12.703 0 23-10.298 23-23 0-6.081-2.364-11.606-6.219-15.719z" style="opacity:.1"/>
 <path d="m31.25 2.375c8.615 3.154 14.75 11.417 14.75 21.13 0 12.426-10.07 22.5-22.5 22.5-9.708 0-17.971-6.135-21.12-14.75a23 23 0 0 0 44.875-7 23 23 0 0 0-16-21.875z" style="opacity:.2"/>
 <path d="m24 1c-2.27 0-4.462 0.334-6.533 0.947 1.534 1.053-1.25 2.02-3.205 1.215-7.833 3.667-13.262 11.617-13.262 20.838 0 7.505 3.595 14.169 9.156 18.367 5.844 2.633 21.844 2.633 29.684-1.699 2.366-2.249 4.253-4.995 5.494-8.07v-2e-3c0.234-1.595 0.667-3.594 1.23-4.15h2e-3c0.282-1.438 0.434-2.923 0.434-4.443 0-0.118-6e-3 -0.234-8e-3 -0.352h-2e-3c-0.992-0.649-0.556-1.182-0.154-2.348-0.185-1.577-0.527-3.105-1.014-4.568-1.826-0.738-7.823-7.734-11.1-13.08-3.203-1.692-6.85-2.654-10.725-2.654z" style="fill:url(#linearGradient3764)"/>
 <path d="m17 2.906c-1.41 0.386-2.112 0.875-1.59 2.281l0.156 0.598-0.625 0.346-0.25 0.465 0.188 1.063 0.75 0.125 0.719-0.688 0.625-0.656 0.969-0.25 1.219-0.594 0.723-0.875 1.027-1.254 0.723-0.189-0.031-0.273h-1.125l-3.469-0.098h-6e-3zm9.969 0.48c-0.055 0.02-1.531 0.021-1.531 0.021l-0.375 0.1 0.5 0.598 0.531-0.5 0.344 0.219 0.5-0.25s0.09-0.211 0.031-0.188zm6 0.461-0.379 4e-3 -0.465 0.063-0.41 0.25-0.465 0.35-0.281 0.5 0.438 0.438 0.375 0.031 0.156-0.254-0.375-0.314 0.219-0.188 0.031-0.152 0.469-0.313s0.609 8e-3 0.652 0c0.047-0.012 0.191-0.191 0.191-0.191zm3.104 0.576-0.266 0.178-0.621 0.375-0.531 0.438 0.064 0.189-0.281 0.031v4e-3l-4.082 0.68 0.016-0.012-1.217 0.654-0.313-0.223-0.152-0.25 0.064-0.254 0.689 0.035 0.314-0.125-0.625-0.314-0.875-0.314-0.875-0.156-0.939 0.191-0.969 0.779-0.439 0.439-0.648 0.719-0.258 0.031-0.094 0.344 0.121 0.344 0.156 0.156 0.254-0.125 0.156-0.156 0.25-0.063 0.188 0.375 0.727-0.097 0.273-0.188 0.066-0.156-0.191-0.219-0.148-0.063 0.063-0.316 0.121-0.094 0.191-0.189 0.223-0.275 0.156-0.189 0.219-0.156 0.25 0.189v0.125l-0.219 0.25-0.066 0.25v0.344l0.191 0.156 0.344-0.031 0.313-0.063 0.277 0.154-0.063 0.221-0.258 0.219-0.492-0.031-0.316 0.316-2.338 0.41-0.285 0.625-0.434-0.221s-0.18-0.038-0.156 0.064c0.023 0.102 0.225 0.195 0.225 0.281 0 0.082-0.125 0.273-0.125 0.273l-0.15 0.189-0.254 0.254-0.346 0.09s-0.244 0.07-0.314 0.094c-0.063 0.023-0.25 0.066-0.25 0.066l-0.254 0.031-0.152 0.223 0.277 0.191 0.188 0.309s0.125 0.223 0.156 0.223 0.094 0.221 0.094 0.221l-0.188 0.25h-0.1l-0.654 0.125-0.121-0.281-0.439 0.438-0.188 0.721v0.598l0.75 0.406 0.598-0.221 0.594-1.064 0.531-0.652 0.969-0.156 0.221-0.188 1.094 1.281 0.125 0.438 0.316-0.156-0.1-0.375h0.191l-0.121-0.254-1.066-1 0.096-0.188 0.344-0.031 0.75 0.75 0.379 0.441v0.688l0.188 0.125 0.375 0.375 0.277-0.094-0.152-0.566 0.096-0.344 0.188-0.219 0.439 0.156 0.152 0.063-0.027-0.5 0.25-0.469 0.152-0.689 0.564 0.098 0.094 0.313 0.219 0.156 0.25-0.219-0.154-0.348h0.654l-0.219 0.375 0.439 0.375-0.625 0.594h-0.625l-0.596 0.314-0.125 0.189-0.434 0.094 0.189 0.469 0.344 0.406 0.621-0.219 0.154 0.275 0.281-0.219 0.375 0.064 0.031 0.408-0.125 0.777-0.344-0.031-0.406-0.063-0.189 0.465-1.375-0.25-0.25-0.316-0.313 0.281-0.344 0.469-0.875-0.5-0.875-0.525v-0.941l-0.566 0.031-0.031 0.313-1.375-0.063-0.434 0.4-0.844 0.031-0.566 0.5-1.873 4.018-5.276 5.75-0.492 0.039-1.35-0.781-0.275-0.656s-0.473-0.809-0.566-0.809c-0.09 0-0.656 0.027-0.656 0.027l-0.525-0.527-0.35-0.656-1.344-0.281-0.434-0.219h-0.875l-2e-3 8e-3 -0.813 0.441-0.094 0.898 0.248 5.433 1.313 1.313 0.064 0.75 0.09 3.379 0.469 1.906s0.289 1.102 0.219 1.191c-0.066 0.086 0.379 0.902 0.379 0.902l0.875 1.375 1.219 0.531-0.5-0.598-0.254-0.689 0.254-0.719-0.656-0.344s0.438-0.285 0.5-0.375c0.066-0.09-0.094-0.471-0.094-0.471l-0.188-0.469 0.5-0.652 0.781-0.189 0.121-0.598-0.465-0.221 0.188-0.5 0.75-0.09 0.656-1.598 0.469-1.094 0.838-0.408v1.23c0 0.764 0.298 1.403 0.873 1.943 0.572 0.54 1.252 0.813 2.063 0.813h16.13c0.81 0 1.518-0.276 2.09-0.813 0.572-0.543 0.846-1.182 0.846-1.943v-9.449c0-0.764-0.274-1.425-0.846-1.969-0.282-0.267-0.939-0.605-0.939-0.605l0.49-0.283 0.344-0.594 0.035-0.5-0.281-0.316-0.375-0.438-0.254 0.154-0.152 0.254-0.41-0.188-0.125-0.314-0.273-0.41-0.439-0.404v-0.813l0.281 0.531 0.344 0.535 0.594 0.344 0.41-0.094 0.25 0.281 1.781-0.035-0.031 0.035 0.564 0.5 0.406 0.563 0.121 0.277h0.281l0.094-0.313 0.094 0.467 0.152 0.846 0.348 0.813 0.188 0.688 0.281 0.656 0.219 0.277 0.313-0.188 0.09-0.314 0.125-0.775-0.031-0.689 0.25-0.316s0.266-0.359 0.314-0.375c0.051-0.012 0.625-0.648 0.625-0.648l0.279-0.352 0.314-0.188 0.383-0.219h0.145l0.066 0.344 0.156 0.406 0.5 0.652v0.25l0.09 0.281 0.344-0.156-0.031-0.375 0.316 0.066 0.064 0.344-0.027 0.531 0.094 0.375 0.277 0.063 0.094-0.313 0.344 0.219 0.064 0.316 0.313 0.469 0.313 0.344 0.219 0.191 0.531-0.471 0.219-0.439-0.09-0.5-0.094-0.656-0.594-0.563-0.094-0.566 0.254-0.398s0.156-0.32 0.309-0.156c0.152 0.168 0.227 0.188 0.156 0.375-0.066 0.184-0.188 0.598-0.188 0.598l0.375 0.156 0.156-0.531-0.156-0.379 0.275-0.113c-1.534-5.725-5.22-10.568-10.141-13.609m-5.701 1.883-4e-3 6e-3 4.094-0.695-0.031-0.156-0.314-0.438-0.654-0.063s0.154 0.664 0.154 0.75c0 0.082-0.434 0.023-0.434 0.023l-0.75 0.035s-1.088 0.25-1.225 0.25c-0.129 0-0.762 0.262-0.809 0.281l-0.027 4e-3zm-18.615-1.42c-0.133 0.09-0.477 0.063-0.477 0.063l-0.545 0.268c-0.012 9e-3 -0.025 0.017-0.037 0.025l0.152 0.338 0.566-0.063 0.25 0.469-0.5 0.531-0.564 0.063 0.5 0.223 0.531 0.465 0.527 0.125 0.191-0.719 0.031-0.438 0.625 0.094s-0.195 0.313-0.102 0.313c0.102 0 0.477-0.406 0.477-0.406l-1.066-1.098s-0.438-0.344-0.563-0.25zm-1.869 0.959c-0.445 0.347-0.88 0.706-1.299 1.084 0.363 0.099 0.803 0.274 0.883 0.217 1.043-1.493 1.053-0.975 0.416-1.301m9.742 0.553-0.125 0.406c0.449 0.348 0.625 0.344 0.625 0.344l0.525-0.125 0.35-0.344-0.225-0.281zm-8.873 0.775s-0.43 0.25-0.844 0.406-0.313 0.469-0.313 0.469l-0.031 0.844-0.688 0.563-0.439 0.656s-0.275-0.187-0.275-0.312-0.066-0.469-0.066-0.469l-0.719-0.563s-0.183-0.141-0.354-0.287c-2.083 2.277-3.709 4.975-4.746 7.951l0.539-0.375 0.564-0.191h0.812l1.121-0.25 0.41 0.531-0.066 0.625 0.469 0.406 0.066-0.441s-0.031-0.719-0.094-0.906c-0.063-0.188 0.561-0.625 0.563-0.625l0.5-0.613 0.594-0.727 0.281-0.563 0.941-0.496 0.621-0.691s0.938-0.148 1.125-0.254c0.191-0.09 0.066-0.434-0.125-0.75-0.191-0.313 0.094-0.625 0.094-0.625l0.719-0.434 0.621 0.121 0.066 0.754s0.586 0.563 0.777 0.465c0.191-0.09 0.277-0.406 0.277-0.406l-0.313-0.813 0.188-0.812-0.844 0.121v-1.375l-0.25 0.254-0.656 0.031-0.094-0.688zm11.648 1.01-0.25 0.219c-0.063 0.305-0.15 0.621-0.15 0.621l0.473 0.223 0.063 0.277-0.256 0.254-0.219 0.375 0.156 0.156 0.563-0.094 0.5-0.219-0.273-0.375-0.096-0.656-0.346-0.375zm-0.77 1.184-0.281 0.469 0.375 0.156 0.156-0.281zm-15.445 1.094 4e-3 6e-3 0.656 0.275 0.439 0.566 0.275 0.434s-0.245 0.844-0.313 1c-0.066 0.156-0.26-0.313-0.26-0.313l-0.146-0.814-0.531 0.227-0.406 0.965 0.092-0.813 0.125-0.563-0.656-0.25 0.564-0.531zm26.383 0.756 0.375 0.152-0.254 0.223 0.096 0.313 0.279 0.75 0.277 0.469-0.781-0.215-0.438-0.469-0.25-0.281 0.125-0.531 0.563-0.406zm-7.902 1.189-0.375 0.717 0.273 0.281 0.254-0.223 0.031-0.311zm-1.256 0.748v0.188l0.154-0.031zm2.154 0.467v2e-3l-0.188 0.064 0.313 0.531 0.281-0.223zm5.863 5.391h-0.719l-0.086-0.449-0.281-0.475-0.311-0.594-0.408-0.719-0.092-0.469zm-29.313-2.1c-0.27 0.833-0.496 1.685-0.67 2.557l0.439 0.244 0.5-0.066 0.719 0.344 1.094 0.6 0.156 0.725 0.875 0.84 0.5-0.375 0.406 0.316-0.063-0.727-0.781 0.191-0.25-0.906-0.094-0.41-0.691-0.621v-0.438l0.531-0.566-0.344-0.398-0.563 0.09-0.844 0.844-0.689-0.09s-0.313-0.531-0.375-0.656c-0.063-0.125 0.189-0.563 0.189-0.563zm3.324 0.896v4e-3l-0.313 0.156 0.527 0.277 0.602 0.121 0.344 0.469 0.406-0.25-0.066-0.277-0.688-0.5zm38.12 3.586c0.113 0.129 0.816 2.219 0.91 2.219 0.086 0 0.621 0.066 0.621 0.066l-0.281-0.848zm-3.59 0.063-0.314 0.406 0.156 0.598 0.344-0.375-0.064-0.473zm-16.666 0.855 0.5 0.063 0.156 0.313 0.527 0.031 0.348 0.25v0.053c-1.58 0.086-2.838 1.383-2.838 2.984 0 1.657 1.343 3 3 3 0.101 0 0.197-0.02 0.295-0.029l0.141 0.742 0.188 0.188 0.262 1.02c-0.288 0.051-0.582 0.082-0.885 0.082-2.761 0-5-2.239-5-5 0-1.202 0.442-2.288 1.148-3.15l0.094 0.02 0.049-0.195c0.052-0.058 0.096-0.124 0.15-0.18h1.459l0.406-0.188zm20.17 0.303-0.439 0.064 2 3 0.531 0.594 1.311 0.063h2e-3c0.01-0.101 0.015-0.203 0.023-0.305l-0.088-0.063-1.25-0.352-0.313-1.148-0.689-0.566-1.094-1.281zm3.49 0.174-0.369 0.203c0 0.09-0.719 0.688-0.719 0.688l0.188 0.625 0.406 0.465 0.281 0.691 0.203-0.133c0.025-0.439 0.041-0.879 0.041-1.324 0-0.408-0.01-0.812-0.031-1.215m-34.471 14.17 2e-3 2e-3 4e-3 -2e-3zm2e-3 4e-3 -0.217 0.148-0.094 0.031 0.5 0.25zm-0.85 0.18 2e-3 4e-3 2e-3 -4e-3zm2e-3 4e-3 -0.217 0.496 0.434-0.094zm1.5 4.123-0.467 0.717-0.875 0.406 2.502 1s-0.656-1.32-0.656-1.5c0-0.176-0.5-0.621-0.5-0.621z" style="opacity:.1"/>
 <path d="m34.725 3.654-0.535 0.322-0.531 0.438 0.064 0.189-0.281 0.031v4e-3l-4.082 0.68 0.016-0.012-1.217 0.654-0.313-0.223-0.152-0.25 0.063-0.254 0.691 0.035 0.313-0.125-0.625-0.314-0.875-0.314-0.875-0.156-0.938 0.191-0.969 0.779-0.439 0.439-0.65 0.719-0.258 0.031-0.092 0.344 0.121 0.344s0.137 0.156 0.156 0.156c0.02 0 0.254-0.125 0.254-0.125s0.023-0.117 0.156-0.156c0.129-0.039 0.25-0.063 0.25-0.063l0.188 0.375 0.225 0.313 0.094 0.25s0.363-0.223 0.375-0.25c0.012-0.031 0.031-0.41 0.031-0.41l0.275-0.188s0.074-0.133 0.066-0.156c-8e-3 -0.02-0.191-0.219-0.191-0.219l-0.15-0.063 0.063-0.316s0.121-0.051 0.121-0.094c0-0.039 0.191-0.189 0.191-0.189l0.223-0.275 0.156-0.189 0.219-0.156 0.25 0.189v0.125l-0.219 0.25-0.066 0.25v0.344l0.191 0.156 0.344-0.031 0.313-0.063 0.277 0.154-0.063 0.221s-0.195 0.188-0.258 0.219c-0.055 0.031-0.406-0.063-0.492-0.031-0.094 0.031-0.316 0.316-0.316 0.316s-0.027 0.25 0 0.313c8e-3 0.022-4e-3 0.068-0.016 0.123l-0.029 0.023-0.375 0.279h-0.031l-0.254-0.094s-0.152 8e-3 -0.219 0.066c-0.063 0.051-0.12 0.102-0.313 0.121-0.191 0.02-0.565 0-0.596 0h-0.219l0.031-0.227 0.156-0.25-0.281-0.223s-0.188 0.23-0.191 0.281c-8e-3 0.055 0.125 0.279 0.125 0.279s-0.063 0.182-0.094 0.221-0.316 0.125-0.316 0.125l-0.434-0.221s-0.18-0.038-0.156 0.064c0.023 0.102 0.225 0.195 0.225 0.281 0 0.082-0.125 0.275-0.125 0.275l-0.152 0.189-0.254 0.254-0.344 0.09s-0.246 0.07-0.316 0.094c-0.063 0.023-0.25 0.066-0.25 0.066l-0.254 0.031-0.152 0.223 0.277 0.191 0.188 0.309s0.125 0.223 0.156 0.223 0.094 0.219 0.094 0.219l-0.188 0.25h-0.098l-0.656 0.125-0.121-0.281-0.439 0.438-0.188 0.721v0.598l0.75 0.406 0.598-0.221 0.594-1.064 0.531-0.652 0.969-0.156 0.221-0.188 1.094 1.281 0.125 0.438 0.316-0.156-0.1-0.375h0.191l-0.121-0.254-1.066-1 0.096-0.188 0.344-0.031 0.75 0.75 0.379 0.441v0.688l0.188 0.125 0.375 0.375 0.277-0.094-0.152-0.566 0.094-0.344 0.188-0.219 0.439 0.156 0.154 0.063-0.029-0.5 0.25-0.469 0.154-0.689 0.564 0.096 0.094 0.313 0.219 0.156 0.25-0.219-0.156-0.346h0.656l-0.219 0.375 0.438 0.375 0.375 0.189 0.219 0.438-0.5 0.121-0.719-0.156h-0.625l-0.594 0.316-0.125 0.188-0.434 0.094 0.188 0.469 0.344 0.406 0.621-0.219 0.156 0.277 0.281-0.219 0.375 0.063 0.031 0.41-0.125 0.777-0.344-0.031-0.406-0.063-0.189 0.465-1.375-0.25-0.25-0.316-0.313 0.281-0.344 0.469-0.875-0.5-0.875-0.527v-0.941l-0.566 0.031-0.031 0.313-1.375-0.063-0.434 0.402-0.844 0.031-0.566 0.5-0.344 0.969-0.875 0.691-0.625 0.844-0.031 1.625-0.188 0.5 1.723 3.156 0.434 0.094 0.096-0.375h1.563l0.406-0.188 0.5 0.063 0.156 0.313 0.529 0.031 0.346 0.25v0.531l0.379 5.063 0.219 1.156 0.188 0.188 0.281 1.094 0.031 0.471c8.06 0.535 7.371-8.01 5.506-11.596l-0.656-0.5-0.154-0.813-0.281-0.475-0.311-0.594-0.408-0.719-0.092-0.469 0.436-0.063 0.254 0.531 0.5 0.938 0.375 0.688 0.406 0.75 0.438 0.723 0.594 0.6 0.531-0.5 0.605-0.156 0.434-0.531 0.594-0.344 0.344-0.594 0.035-0.5-0.281-0.316-0.375-0.438-0.254 0.154-0.152 0.254-0.41-0.188-0.125-0.313-0.275-0.41-0.439-0.406v-0.813l0.281 0.531 0.344 0.535 0.594 0.344 0.41-0.094 0.25 0.281 1.781-0.035-0.031 0.035 0.564 0.5 0.408 0.563 0.121 0.277h0.281l0.094-0.311 0.092 0.467 0.154 0.844 0.346 0.813 0.188 0.688 0.281 0.656 0.219 0.277 0.313-0.188 0.09-0.314 0.125-0.775-0.031-0.689 0.25-0.316s0.266-0.359 0.313-0.375c0.051-0.012 0.625-0.65 0.625-0.65l0.281-0.35 0.314-0.188 0.383-0.219h0.145l0.066 0.344 0.156 0.406 0.5 0.652v0.25l0.09 0.281 0.344-0.156-0.031-0.375 0.316 0.066 0.063 0.344-0.027 0.531 0.094 0.375 0.277 0.064 0.094-0.314 0.344 0.219 0.064 0.316 0.313 0.469 0.313 0.344 0.219 0.191 0.531-0.469 0.219-0.441-0.09-0.5-0.094-0.656-0.594-0.563-0.094-0.566 0.254-0.398s0.156-0.32 0.309-0.156c0.152 0.168 0.227 0.188 0.156 0.375-0.066 0.184-0.188 0.598-0.188 0.598l0.375 0.156 0.156-0.531-0.156-0.379 0.379-0.156 0.512-0.256c-1.882-5.658-5.9-10.337-11.1-13.08m-5.35 1.652-4e-3 6e-3 4.092-0.695-0.031-0.156-0.314-0.438-0.654-0.063s0.154 0.664 0.154 0.75c0 0.082-0.434 0.025-0.434 0.025l-0.75 0.035s-1.086 0.25-1.223 0.25c-0.129 0-0.762 0.262-0.809 0.281zm-19.615 0.865s-0.33 0.183-0.684 0.334c-0.159 0.136-0.318 0.27-0.473 0.41-4e-3 0.062 0 0.131 0 0.131l-0.031 0.844-0.688 0.562-0.439 0.656s-0.275-0.188-0.275-0.313c0-0.108-0.043-0.335-0.057-0.406-0.421 0.455-0.823 0.928-1.207 1.416l0.387 0.498 0.275 0.434s-0.245 0.844-0.313 1c-0.066 0.156-0.258-0.313-0.258-0.313l-0.148-0.814-0.531 0.225-0.406 0.965 0.086-0.76c-0.818 1.197-1.524 2.475-2.107 3.82h0.309l1.121-0.25 0.41 0.531-0.066 0.625 0.469 0.406 0.066-0.441s-0.031-0.719-0.094-0.906c-0.063-0.188 0.563-0.625 0.563-0.625l0.5-0.613 0.594-0.727 0.281-0.563 0.941-0.496 0.621-0.691s0.938-0.148 1.125-0.254c0.191-0.09 0.066-0.434-0.125-0.75-0.191-0.313 0.094-0.625 0.094-0.625l0.719-0.434 0.621 0.121 0.066 0.754s0.586 0.563 0.777 0.465c0.191-0.09 0.279-0.406 0.279-0.406l-0.313-0.813 0.188-0.811-0.844 0.121v-1.375l-0.25 0.254-0.656 0.031-0.094-0.688zm11.648 1.01-0.25 0.219c-0.063 0.305-0.152 0.621-0.152 0.621l0.473 0.223 0.064 0.277-0.256 0.254-0.219 0.375 0.156 0.156 0.563-0.094 0.5-0.219-0.275-0.375-0.094-0.656-0.346-0.375zm-0.77 1.184-0.281 0.469 0.375 0.156 0.156-0.281zm10.938 1.848c0.133-0.043 0.375 0.154 0.375 0.154l-0.254 0.221 0.096 0.313 0.279 0.75 0.277 0.469 0.379 0.594-0.41 0.191-0.531-0.344-0.219-0.656s-0.299-0.406-0.439-0.469c-0.133-0.066-0.25-0.281-0.25-0.281l0.125-0.531s0.428-0.359 0.564-0.406zm-7.904 1.188-0.375 0.719 0.275 0.281 0.254-0.223 0.031-0.309zm-1.254 0.75v0.188l0.154-0.031zm2.154 0.469-0.188 0.064 0.313 0.531 0.281-0.221zm-20.13 4.186v4e-3l-0.313 0.156 0.527 0.279 0.602 0.121 0.344 0.469 0.406-0.25-0.066-0.279-0.688-0.5zm-0.998 0.41-0.563 0.09-0.844 0.844-0.277-0.037c-0.056 0.211-0.106 0.424-0.156 0.637l0.5 0.238 1.094 0.598 0.156 0.725 0.875 0.84 0.5-0.375 0.406 0.316-0.063-0.725-0.781 0.191-0.25-0.906-0.094-0.41-0.691-0.621v-0.438l0.531-0.566zm2.684 2.68-2e-3 8e-3 -0.813 0.441-0.094 0.9-0.189 1-0.563 0.75 0.027 1.121 0.473 1.156 0.5 1.406 1.313 1.313 0.064 0.75 0.09 3.379 0.469 1.906s0.289 1.102 0.219 1.191c-0.066 0.086 0.379 0.902 0.379 0.902l0.875 1.375 1.219 0.531-0.5-0.598-0.254-0.689 0.254-0.719-0.656-0.344s0.438-0.285 0.5-0.375c0.066-0.09-0.094-0.469-0.094-0.469l-0.188-0.469 0.5-0.652 0.781-0.191 0.121-0.598-0.465-0.219 0.188-0.5 0.75-0.09 0.656-1.598 0.469-1.094 0.965-0.471 0.225-5.221-0.844 0.066-1.35-0.781-0.275-0.656s-0.473-0.809-0.566-0.809c-0.09 0-0.656 0.029-0.656 0.029l-0.527-0.529-0.348-0.656-1.344-0.281-0.434-0.219zm36.434 0.496c0.113 0.129 0.816 2.219 0.91 2.219 0.086 0 0.621 0.066 0.621 0.066l-0.281-0.846zm-3.59 0.064-0.314 0.406 0.156 0.598 0.344-0.375-0.064-0.473zm7.859 0.848-1.238 0.686c0 0.09-0.719 0.688-0.719 0.688l0.188 0.625 0.406 0.465 0.281 0.691 1.238-0.807c-0.012-0.793-0.066-1.576-0.156-2.348zm-4.359 0.309-0.439 0.064 2 3 0.531 0.594 1.311 0.064 0.813 0.256-0.875-0.625-1.25-0.35-0.313-1.15-0.689-0.566-1.094-1.281zm4.088 6.834c-0.107 0.028-0.181 0.056-0.188 0.078-0.02 0.086-0.563 0.375-0.563 0.375-0.113 0-0.469 0.656-0.469 0.656l-0.066 2.063-0.125 0.75 0.18 0.23c0.535-1.327 0.951-2.716 1.232-4.152h-2e-3zm-35.07 7.51 2e-3 4e-3 4e-3 -4e-3zm2e-3 4e-3 -0.217 0.148-0.094 0.031 0.5 0.25zm-0.85 0.18 2e-3 4e-3 2e-3 -4e-3zm2e-3 4e-3 -0.217 0.496 0.434-0.094z" style="fill:#7bc57b"/>
 <path d="m17.467 1.947c-1.104 0.326-2.172 0.732-3.199 1.213-0.048 0.278-0.013 0.608 0.143 1.027l0.156 0.598-0.625 0.346-0.25 0.465 0.188 1.063 0.75 0.125 0.719-0.688 0.625-0.656 0.969-0.25 1.219-0.594 0.721-0.875 1.029-1.254 0.721-0.189-0.031-0.275h-1.125l-2.01-0.055zm8.502 0.439c-0.055 0.02-1.531 0.023-1.531 0.023l-0.375 0.098 0.5 0.598 0.531-0.5 0.344 0.219 0.5-0.25s0.09-0.211 0.031-0.188zm6 0.461-0.379 4e-3 -0.465 0.063-0.41 0.25-0.465 0.35-0.281 0.5 0.438 0.438 0.375 0.031 0.156-0.254-0.375-0.314 0.219-0.188 0.031-0.152 0.469-0.313s0.609 8e-3 0.652 0c0.047-0.012 0.191-0.191 0.191-0.191l-0.156-0.223zm0.49 1.113s0.154 0.664 0.154 0.75l0.814-0.25-0.314-0.438-0.654-0.063zm-6.078 0.398-0.938 0.191 2.688 0.279-0.875-0.314-0.875-0.156zm-14.66 0.193c-0.593 0.375-1.168 0.775-1.723 1.201l0.104 0.047 0.531 0.465 0.527 0.125 0.191-0.719 0.031-0.438 0.625 0.094s-0.193 0.313-0.1 0.313c0.102 0 0.475-0.406 0.475-0.406l-0.662-0.682zm6.906 0.846-0.125 0.406c0.449 0.348 0.625 0.344 0.625 0.344l0.527-0.125 0.348-0.344-0.223-0.281h-1.152zm-6.479 34.863-0.469 0.719-0.875 0.406 0.5 0.625-0.754 0.375-0.398-0.02c3.852 2.908 8.646 4.633 13.844 4.633 6.141 0 11.715-2.411 15.84-6.332l-2.627 0.1-3.064 0.621s-1.477 0.793-1.656 0.754c-0.18-0.043 0.625-1.031 0.625-1.031l-1.438 0.094-0.906-0.75-0.906 0.617s-1.213 0.098-1.525 0.098c-0.316 0-0.725 0.563-0.725 0.563l-2.469-0.09-4.25 0.188-1.121 0.967-0.275 0.033-3.225-0.223-2.219 0.223-0.777-0.379 0.031-0.063s-0.656-1.32-0.656-1.5c0-0.176-0.5-0.621-0.5-0.621l-4e-3 -6e-3z" style="fill:#e6e6e6"/>
 <g transform="translate(1,1)"></g>
 <path d="m19.809 21.775 0.434 0.094 0.096-0.375h1.563l0.406-0.188 0.5 0.063 0.063 0.125c0.649-0.308 1.365-0.494 2.131-0.494 2.761 0 5 2.239 5 5 0 0 2.139-5.767 0-6.994l-0.582-1.701c-0.142-0.352-0.405-0.661-0.793-0.92-2.9-0.872-6.485 3.625-8.816 5.391m5.191 1.225-0.783 4.557 0.219 1.156 0.188 0.188 0.016 0.064c0.12 0.015 0.238 0.035 0.361 0.035 1.657 0 3-1.343 3-3s-1.343-3-3-3z" style="opacity:.1"/>
 <path d="m40.03 7.531c3.712 4.084 5.969 9.514 5.969 15.469 0 12.703-10.297 23-23 23-5.954 0-11.384-2.256-15.469-5.969 4.178 4.291 10.01 6.969 16.469 6.969 12.703 0 23-10.298 23-23 0-6.462-2.677-12.291-6.969-16.469z" style="opacity:.1"/>
 <path d="m26.436 15-4.868 4e-3c-0.406 0-0.803 0.127-1.189 0.383-0.387 0.256-0.649 0.569-0.797 0.918l-0.582 1.701h-3.064c-0.81 0-1.49 0.278-2.063 0.818-0.575 0.543-0.873 1.205-0.873 1.969v9.449c0 0.764 0.298 1.403 0.873 1.943 0.572 0.54 1.252 0.814 2.063 0.814h16.13c0.81 0 1.518-0.278 2.09-0.814 0.572-0.543 0.846-1.182 0.846-1.943v-9.449c0-0.764-0.274-1.425-0.846-1.969-0.572-0.543-1.28-0.818-2.09-0.818h-3.064l-0.582-1.701c-0.142-0.352-0.405-0.661-0.793-0.92-0.387-0.256-0.787-0.385-1.189-0.385m-2.436 5c2.761 0 5 2.239 5 5s-2.239 5-5 5-5-2.239-5-5 2.239-5 5-5zm0 2c-1.657 0-3 1.343-3 3s1.343 3 3 3 3-1.343 3-3-1.343-3-3-3z" style="fill:#3d3d3d"/>
</svg>
