<svg xmlns="http://www.w3.org/2000/svg" xmlns:xlink="http://www.w3.org/1999/xlink" viewBox="0 0 48 48">
 <defs>
  <linearGradient id="linearGradient3764" x1="1" x2="47" gradientUnits="userSpaceOnUse" gradientTransform="matrix(0,-1,1,0,-1.5e-6,47.999998)">
   <stop style="stop-color:#324162;stop-opacity:1"/>
   <stop offset="1" style="stop-color:#394a6f;stop-opacity:1"/>
  </linearGradient>
  <linearGradient id="linear0" gradientUnits="userSpaceOnUse" x1="13" y1="28" x2="15" y2="29">
   <stop style="stop-color:#35587c;stop-opacity:1"/>
   <stop offset="1" style="stop-color:#335276;stop-opacity:1"/>
  </linearGradient>
  <linearGradient id="linear1" gradientUnits="userSpaceOnUse" x1="12.906" y1="27.547" x2="24" y2="28">
   <stop style="stop-color:#3d6084;stop-opacity:1"/>
   <stop offset="1" style="stop-color:#2f5175;stop-opacity:1"/>
  </linearGradient>
  <linearGradient id="linear2" gradientUnits="userSpaceOnUse" x1="27" y1="35" x2="35" y2="24">
   <stop style="stop-color:#375b80;stop-opacity:1"/>
   <stop offset="1" style="stop-color:#3d6185;stop-opacity:1"/>
  </linearGradient>
 </defs>
 <g>
  <path d="m 36.31 5 c 5.859 4.062 9.688 10.831 9.688 18.5 c 0 12.426 -10.07 22.5 -22.5 22.5 c -7.669 0 -14.438 -3.828 -18.5 -9.688 c 1.037 1.822 2.306 3.499 3.781 4.969 c 4.085 3.712 9.514 5.969 15.469 5.969 c 12.703 0 23 -10.298 23 -23 c 0 -5.954 -2.256 -11.384 -5.969 -15.469 c -1.469 -1.475 -3.147 -2.744 -4.969 -3.781 z m 4.969 3.781 c 3.854 4.113 6.219 9.637 6.219 15.719 c 0 12.703 -10.297 23 -23 23 c -6.081 0 -11.606 -2.364 -15.719 -6.219 c 4.16 4.144 9.883 6.719 16.219 6.719 c 12.703 0 23 -10.298 23 -23 c 0 -6.335 -2.575 -12.06 -6.719 -16.219 z" style="opacity:0.05"/>
  <path d="m 41.28 8.781 c 3.712 4.085 5.969 9.514 5.969 15.469 c 0 12.703 -10.297 23 -23 23 c -5.954 0 -11.384 -2.256 -15.469 -5.969 c 4.113 3.854 9.637 6.219 15.719 6.219 c 12.703 0 23 -10.298 23 -23 c 0 -6.081 -2.364 -11.606 -6.219 -15.719 z" style="opacity:0.1"/>
  <path d="m 31.25 2.375 c 8.615 3.154 14.75 11.417 14.75 21.13 c 0 12.426 -10.07 22.5 -22.5 22.5 c -9.708 0 -17.971 -6.135 -21.12 -14.75 a 23 23 0 0 0 44.875 -7 a 23 23 0 0 0 -16 -21.875 z" style="opacity:0.2"/>
 </g>
 <g>
  <path d="m 24 1 c 12.703 0 23 10.297 23 23 c 0 12.703 -10.297 23 -23 23 -12.703 0 -23 -10.297 -23 -23 0 -12.703 10.297 -23 23 -23 z" style="fill:url(#linearGradient3764);fill-opacity:1"/>
 </g>
 <g>
  <g>
   <g transform="translate(1,1)">
    <g style="opacity:0.1">
     <!-- color: #394a6f -->
     <g>
      <use xlink:href="#SVGCleanerId_0"/>
      <path d="m 14.12 12 c -1.227 0 -2.132 1.146 -2.132 2.443 l 0 19.11 c 0 1.3 0.906 2.443 2.132 2.443 l 19.744 0 c 1.221 0 2.132 -1.143 2.132 -2.443 l 0 -19.11 c 0 -1.297 -0.909 -2.443 -2.132 -2.443 z" mix-blend-mode="normal" isolation="auto" white-space="normal" solid-opacity="1" solid-color="#000000" style="visibility:visible;shape-rendering:auto;color-interpolation-filters:linearRGB;fill:#000;opacity:1;image-rendering:auto;fill-opacity:1;stroke:none;display:inline;color:#000;fill-rule:nonzero;color-rendering:auto;color-interpolation:sRGB"/>
     </g>
    </g>
   </g>
  </g>
 </g>
 <g transform="translate(4.4912129e-4,0)">
  <g>
   <!-- color: #394a6f -->
   <g>
    <path d="m 13 13 22 0 l 0.09 22.1 -22.09 -0.098" style="fill:#9cbef4;fill-opacity:1;stroke:none;fill-rule:nonzero"/>
    <path d="m 21 20 c -1.105 0 -2 0.895 -2 2 c 0 1.105 0.895 2 2 2 c 1.105 0 2 -0.895 2 -2 c 0 -1.105 -0.895 -2 -2 -2 z" transform="translate(-4.4912129e-4,0)" style="fill:#f9f9f9;fill-opacity:1;stroke:none;fill-rule:nonzero"/>
    <path d="m 13 24 0 11 15 0" style="fill:url(#linear0);stroke:none;fill-rule:nonzero"/>
    <path d="m 24 20 -11 11 c 0 0 0 2.667 0 4 l 22 0 0 -3" style="fill:url(#linear1);stroke:none;fill-rule:nonzero"/>
    <path d="m 35 21 -11 14 11 0" style="fill:url(#linear2);stroke:none;fill-rule:nonzero"/>
    <path d="m 14.25 13 c -0.688 0 -1.25 0.563 -1.25 1.25 l 0 1 c 0 -0.688 0.563 -1.25 1.25 -1.25 l 19.5 0 c 0.688 0 1.25 0.563 1.25 1.25 l 0 -1 c 0 -0.688 -0.563 -1.25 -1.25 -1.25 l -19.5 0 z" transform="translate(-4.4912129e-4,0)" id="SVGCleanerId_0" style="fill:#000;fill-opacity:0.102;stroke:none;fill-rule:nonzero"/>
    <path d="m 14.13 12.5 c -0.907 0 -1.637 0.873 -1.637 1.943 l 0 19.12 c 0 1.074 0.73 1.941 1.637 1.941 l 19.744 0 c 0.9 0 1.629 -0.868 1.629 -1.941 l 0 -19.12 c 0 -1.07 -0.729 -1.943 -1.629 -1.943 l -19.744 0 z" transform="translate(-4.4912129e-4,0)" style="stroke-dasharray:none;stroke-opacity:1;fill:none;stroke-miterlimit:4;stroke:#eaeaea;stroke-linecap:butt;stroke-linejoin:miter;stroke-width:1"/>
   </g>
  </g>
 </g>
 <g>
  <path d="m 40.03 7.531 c 3.712 4.084 5.969 9.514 5.969 15.469 0 12.703 -10.297 23 -23 23 c -5.954 0 -11.384 -2.256 -15.469 -5.969 4.178 4.291 10.01 6.969 16.469 6.969 c 12.703 0 23 -10.298 23 -23 0 -6.462 -2.677 -12.291 -6.969 -16.469 z" style="opacity:0.1"/>
 </g>
</svg>
