<svg xmlns="http://www.w3.org/2000/svg" viewBox="0 0 48 48">
 <defs>
  <linearGradient id="linearGradient3871" x1="1" x2="47" gradientUnits="userSpaceOnUse">
   <stop style="stop-color:#407cc0;stop-opacity:1"/>
   <stop offset="1" style="stop-color:#4f86c5;stop-opacity:1"/>
  </linearGradient>
 </defs>
 <g>
  <path d="m 36.31 5 c 5.859 4.062 9.688 10.831 9.688 18.5 c 0 12.426 -10.07 22.5 -22.5 22.5 c -7.669 0 -14.438 -3.828 -18.5 -9.688 c 1.037 1.822 2.306 3.499 3.781 4.969 c 4.085 3.712 9.514 5.969 15.469 5.969 c 12.703 0 23 -10.298 23 -23 c 0 -5.954 -2.256 -11.384 -5.969 -15.469 c -1.469 -1.475 -3.147 -2.744 -4.969 -3.781 z m 4.969 3.781 c 3.854 4.113 6.219 9.637 6.219 15.719 c 0 12.703 -10.297 23 -23 23 c -6.081 0 -11.606 -2.364 -15.719 -6.219 c 4.16 4.144 9.883 6.719 16.219 6.719 c 12.703 0 23 -10.298 23 -23 c 0 -6.335 -2.575 -12.06 -6.719 -16.219 z" style="opacity:0.05"/>
  <path d="m 41.28 8.781 c 3.712 4.085 5.969 9.514 5.969 15.469 c 0 12.703 -10.297 23 -23 23 c -5.954 0 -11.384 -2.256 -15.469 -5.969 c 4.113 3.854 9.637 6.219 15.719 6.219 c 12.703 0 23 -10.298 23 -23 c 0 -6.081 -2.364 -11.606 -6.219 -15.719 z" style="opacity:0.1"/>
  <path d="m 31.25 2.375 c 8.615 3.154 14.75 11.417 14.75 21.13 c 0 12.426 -10.07 22.5 -22.5 22.5 c -9.708 0 -17.971 -6.135 -21.12 -14.75 a 23 23 0 0 0 44.875 -7 a 23 23 0 0 0 -16 -21.875 z" style="opacity:0.2"/>
 </g>
 <g transform="matrix(0,-1,1,0,0,48)" style="fill:url(#linearGradient3871);fill-opacity:1">
  <path d="M 24,1 C 36.703,1 47,11.297 47,24 47,36.703 36.703,47 24,47 11.297,47 1,36.703 1,24 1,11.297 11.297,1 24,1 z"/>
 </g>
 <g>
  <path d="m 40.03 7.531 c 3.712 4.084 5.969 9.514 5.969 15.469 0 12.703 -10.297 23 -23 23 c -5.954 0 -11.384 -2.256 -15.469 -5.969 4.178 4.291 10.01 6.969 16.469 6.969 c 12.703 0 23 -10.298 23 -23 0 -6.462 -2.677 -12.291 -6.969 -16.469 z" style="opacity:0.1"/>
 </g>
 <path d="m 13 13 0 8 4 4 -4 4 0 8 8 0 4 -4 4 4 8 0 0 -8 -4 -4 4 -4 0 -8 -8 0 -4 4 -4 -4 -8 0 z" style="fill:#000;opacity:0.1;fill-opacity:1;stroke:none"/>
 <path d="m 12 12 l 0 8 l 4 4 l -4 4 l 0 8 l 8 0 l 4 -4 l 4 4 l 8 0 l 0 -8 l -4 -4 l 4 -4 l 0 -8 l -8 0 l -4 4 l -4 -4 l -8 0 z" style="fill:#373765;opacity:1;fill-opacity:1;stroke:none"/>
 <path d="m 13 13 l 0 7 l 4 4 l -4 4 l 0 7 l 7 0 l 4 -4 l 4 4 l 7 0 l 0 -7 l -4 -4 l 4 -4 l 0 -7 l -7 0 l -4 4 l -4 -4 l -7 0 z" style="fill:#6c6caf;fill-opacity:1;stroke:none"/>
 <path d="m 14 14 0 6 4 4 -4 4 0 6 6 0 4 -4 4 4 6 0 0 -6 -4 -4 4 -4 0 -6 -6 0 -4 4 -4 -4 z" style="fill:#9898c7;fill-opacity:1;stroke:none"/>
</svg>
