<svg version="1.1" viewBox="0 0 48 48" xmlns="http://www.w3.org/2000/svg">
 <defs>
  <linearGradient id="bg" x1="1" x2="47" gradientTransform="matrix(0 -1 1 0 -1.5e-6 48)" gradientUnits="userSpaceOnUse">
   <stop style="stop-color:#f49950" offset="0"/>
   <stop style="stop-color:#f5a562" offset="1"/>
  </linearGradient>
  <radialGradient id="radialGradient4279" cx="24.25" cy="5.145" r="2.938" gradientTransform="matrix(1.0211 0 0 1.0211 1.4147 5.7466)" gradientUnits="userSpaceOnUse">
   <stop style="stop-color:#eff5ba" offset="0"/>
   <stop style="stop-color:#e2ed85" offset="1"/>
  </radialGradient>
 </defs>
 <path d="m36.31 5c5.859 4.062 9.688 10.831 9.688 18.5 0 12.426-10.07 22.5-22.5 22.5-7.669 0-14.438-3.828-18.5-9.688 1.037 1.822 2.306 3.499 3.781 4.969 4.085 3.712 9.514 5.969 15.469 5.969 12.703 0 23-10.298 23-23 0-5.954-2.256-11.384-5.969-15.469-1.469-1.475-3.147-2.744-4.969-3.781zm4.969 3.781c3.854 4.113 6.219 9.637 6.219 15.719 0 12.703-10.297 23-23 23-6.081 0-11.606-2.364-15.719-6.219 4.16 4.144 9.883 6.719 16.219 6.719 12.703 0 23-10.298 23-23 0-6.335-2.575-12.06-6.719-16.219z" style="opacity:.05"/>
 <path d="m41.28 8.781c3.712 4.085 5.969 9.514 5.969 15.469 0 12.703-10.297 23-23 23-5.954 0-11.384-2.256-15.469-5.969 4.113 3.854 9.637 6.219 15.719 6.219 12.703 0 23-10.298 23-23 0-6.081-2.364-11.606-6.219-15.719z" style="opacity:.1"/>
 <path d="m31.25 2.375c8.615 3.154 14.75 11.417 14.75 21.13 0 12.426-10.07 22.5-22.5 22.5-9.708 0-17.971-6.135-21.12-14.75a23 23 0 0 0 44.875-7 23 23 0 0 0-16-21.875z" style="opacity:.2"/>
 <path d="m24 1c12.703 0 23 10.297 23 23s-10.297 23-23 23-23-10.297-23-23 10.297-23 23-23z" style="fill:url(#bg)"/>
 <path d="m40.03 7.531c3.712 4.084 5.969 9.514 5.969 15.469 0 12.703-10.297 23-23 23-5.954 0-11.384-2.256-15.469-5.969 4.178 4.291 10.01 6.969 16.469 6.969 12.703 0 23-10.298 23-23 0-6.462-2.677-12.291-6.969-16.469z" style="opacity:.1"/>
 <path d="m26.797 9c-0.463 0.076 0.111 2.12-0.207 2.463s-2.333-0.255-2.412 0.197c-0.031 0.175 0.295 0.301 0.684 0.418-0.266 0.116-0.506 0.253-0.709 0.436-0.358 0.322-0.563 0.778-0.611 1.203s0.022 0.821 0.119 1.215c0.173 0.698 0.429 1.375 0.617 2.066h-2.277v2.473a10 10 0 0 0-7 9.527 10 10 0 0 0 10 10 10 10 0 0 0 10-10 10 10 0 0 0-7-9.537v-2.463h-2.148c-0.215-0.978-0.581-1.802-0.736-2.428-0.128-0.851 0.476-1.162 1.213-1.295-0.248 0.661-0.771 1.573-0.471 1.709 0.42 0.19 1.168-1.625 1.629-1.717s1.798 1.441 2.123 1.105-1.328-1.605-1.256-2.066c0.072-0.462 2.02-1.194 1.805-1.6s-1.898 0.686-2.324 0.492c-0.426-0.193-0.575-2.275-1.037-2.199z" style="fill-opacity:.098"/>
 <path d="m26.674 10.651c-1.7381 0.03253-2.8072 0.22203-3.5235 0.86621-0.3585 0.32173-0.56215 0.77711-0.61023 1.2014-0.04808 0.42426 0.02121 0.82166 0.11879 1.2148 0.39032 1.574 1.2544 3.0307 0.63074 4.8225l1.417 0.48932c0.84924-2.4558-0.28779-4.4399-0.59326-5.6717-0.20718-1.3767 1.5005-1.3421 2.588-1.4227z" style="fill:#524c30"/>
 <circle cx="24" cy="27.999" r="10" style="fill:#3d3d3d"/>
 <rect x="21" y="15.999" width="6" height="3" style="fill:#3d3d3d"/>
 <path d="m28.61 13.376c-0.32472 0.33528-1.6614-1.1968-2.1229-1.1054-0.46155 0.09144-1.209 1.906-1.6297 1.716-0.42071-0.18999 0.79036-1.9141 0.57081-2.3175-0.21954-0.40335-2.3292-0.55474-2.2506-1.0069 0.07863-0.45212 2.0954 0.1463 2.4129-0.19609 0.31757-0.34239-0.25733-2.3876 0.20525-2.4638 0.46257-0.0762 0.61166 2.0066 1.0375 2.1996 0.42581 0.19304 2.1086-0.89815 2.3241-0.49276 0.21546 0.40538-1.7329 1.1369-1.8054 1.5992s1.5817 1.7313 1.256 2.0676z" style="fill:url(#radialGradient4279)"/>
</svg>
