<svg version="1.1" viewBox="0 0 48 48" xmlns="http://www.w3.org/2000/svg">
 <defs>
  <linearGradient id="linearGradient3764" x1="1" x2="47" gradientTransform="matrix(0 -1 1 0 -1.5e-6 48)" gradientUnits="userSpaceOnUse">
   <stop style="stop-color:#d60980;stop-opacity:.96078" offset="0"/>
   <stop style="stop-color:#ea0a8c;stop-opacity:.96078" offset="1"/>
  </linearGradient>
 </defs>
 <path d="m36.31 5c5.859 4.062 9.688 10.831 9.688 18.5 0 12.426-10.07 22.5-22.5 22.5-7.669 0-14.438-3.828-18.5-9.688 1.037 1.822 2.306 3.499 3.781 4.969 4.085 3.712 9.514 5.969 15.469 5.969 12.703 0 23-10.298 23-23 0-5.954-2.256-11.384-5.969-15.469-1.469-1.475-3.147-2.744-4.969-3.781zm4.969 3.781c3.854 4.113 6.219 9.637 6.219 15.719 0 12.703-10.297 23-23 23-6.081 0-11.606-2.364-15.719-6.219 4.16 4.144 9.883 6.719 16.219 6.719 12.703 0 23-10.298 23-23 0-6.335-2.575-12.06-6.719-16.219z" style="opacity:.05"/>
 <path d="m41.28 8.781c3.712 4.085 5.969 9.514 5.969 15.469 0 12.703-10.297 23-23 23-5.954 0-11.384-2.256-15.469-5.969 4.113 3.854 9.637 6.219 15.719 6.219 12.703 0 23-10.298 23-23 0-6.081-2.364-11.606-6.219-15.719z" style="opacity:.1"/>
 <path d="m31.25 2.375c8.615 3.154 14.75 11.417 14.75 21.13 0 12.426-10.07 22.5-22.5 22.5-9.708 0-17.971-6.135-21.12-14.75a23 23 0 0 0 44.875-7 23 23 0 0 0-16-21.875z" style="opacity:.2"/>
 <path d="m24 1c12.703 0 23 10.297 23 23s-10.297 23-23 23-23-10.297-23-23 10.297-23 23-23z" style="fill:url(#linearGradient3764)"/>
 <path d="m40.03 7.531c3.712 4.084 5.969 9.514 5.969 15.469 0 12.703-10.297 23-23 23-5.954 0-11.384-2.256-15.469-5.969 4.178 4.291 10.01 6.969 16.469 6.969 12.703 0 23-10.298 23-23 0-6.462-2.677-12.291-6.969-16.469z" style="opacity:.1"/>
 <path d="m25 11a3 3 0 0 0-3 3 3 3 0 0 0 0.0098 0.22852l-5.7734 2.7773a3 3 0 0 0-2.2364-1.0059 3 3 0 0 0-3 3 3 3 0 0 0 2 2.8242v6.3496a3 3 0 0 0-2 2.8262 3 3 0 0 0 3 3 3 3 0 0 0 2.1055-0.86328l5.8945 2.8711a3 3 0 0 0 3 2.9922 3 3 0 0 0 3-2.9922l5.8965-2.8711a3 3 0 0 0 2.1035 0.86328 3 3 0 0 0 3-3 3 3 0 0 0-2-2.8242v-6.3496a3 3 0 0 0 2-2.8262 3 3 0 0 0-3-3 3 3 0 0 0-2.2383 1.0059l-5.7734-2.7793a3 3 0 0 0 0.011719-0.22656 3 3 0 0 0-3-3zm-2.7461 5.4043-7.2539 11.406v-5.9844a3 3 0 0 0 2-2.8262 3 3 0 0 0-0.0039-0.11328zm5.4922 0 5.2598 2.4824a3 3 0 0 0-0.005859 0.11328 3 3 0 0 0 2 2.8242v5.9863zm-3.4746 0.50195a3 3 0 0 0 0.72852 0.09375 3 3 0 0 0 0.72852-0.0918l7.8164 12.371a3 3 0 0 0-0.36914 0.72071h-16.35a3 3 0 0 0-0.37305-0.71875zm-6.0137 15.094h13.484l-4.3379 2.2109a3 3 0 0 0-2.4043-1.2109 3 3 0 0 0-2.4043 1.2109z" style="color-rendering:auto;color:#000000;dominant-baseline:auto;font-feature-settings:normal;font-variant-alternates:normal;font-variant-caps:normal;font-variant-ligatures:normal;font-variant-numeric:normal;font-variant-position:normal;image-rendering:auto;isolation:auto;mix-blend-mode:normal;opacity:.1;shape-padding:0;shape-rendering:auto;solid-color:#000000;text-decoration-color:#000000;text-decoration-line:none;text-decoration-style:solid;text-indent:0;text-orientation:mixed;text-transform:none;white-space:normal"/>
 <path d="m23.572 11.994-11 5.2949-0.57227 0.9043v11.807l0.57031 0.90234 11 5.3574c0.28648-0.01472 0.57289-0.0011 0.85938 0l11-5.3574 0.57031-0.90234v-11.807l-0.57227-0.9043-11-5.2949c-0.28516 0.01135-0.5703 4.73e-4 -0.85547 0zm0.42773 2.7598 9 14.246h-18zm-2.7461 0.65039-7.2539 11.406v-7.9824zm5.4922 0 7.2539 3.4238v7.9824zm-9.4883 15.596h13.484l-6.7422 3.4355z" style="color-rendering:auto;color:#000000;dominant-baseline:auto;fill:#f9f9f9;font-feature-settings:normal;font-variant-alternates:normal;font-variant-caps:normal;font-variant-ligatures:normal;font-variant-numeric:normal;font-variant-position:normal;image-rendering:auto;isolation:auto;mix-blend-mode:normal;shape-padding:0;shape-rendering:auto;solid-color:#000000;text-decoration-color:#000000;text-decoration-line:none;text-decoration-style:solid;text-indent:0;text-orientation:mixed;text-transform:none;white-space:normal"/>
 <circle cx="24" cy="13" r="3" style="fill:#f9f9f9"/>
 <circle cx="24" cy="35" r="3" style="fill:#f9f9f9"/>
 <circle cx="13" cy="30" r="3" style="fill:#f9f9f9"/>
 <circle cx="13" cy="18" r="3" style="fill:#f9f9f9"/>
 <circle cx="35" cy="30" r="3" style="fill:#f9f9f9"/>
 <circle cx="35" cy="18" r="3" style="fill:#f9f9f9"/>
</svg>
