<svg version="1.1" viewBox="0 0 48 48" xmlns="http://www.w3.org/2000/svg">
 <defs>
  <linearGradient id="bg" x2="0" y1="1" y2="47" gradientUnits="userSpaceOnUse">
   <stop style="stop-color:#8c6f5c" offset="0"/>
   <stop style="stop-color:#806554" offset="1"/>
  </linearGradient>
 </defs>
 <path d="m36.31 5c5.859 4.062 9.688 10.831 9.688 18.5 0 12.426-10.07 22.5-22.5 22.5-7.669 0-14.438-3.828-18.5-9.688 1.037 1.822 2.306 3.499 3.781 4.969 4.085 3.712 9.514 5.969 15.469 5.969 12.703 0 23-10.298 23-23 0-5.954-2.256-11.384-5.969-15.469-1.469-1.475-3.147-2.744-4.969-3.781zm4.969 3.781c3.854 4.113 6.219 9.637 6.219 15.719 0 12.703-10.297 23-23 23-6.081 0-11.606-2.364-15.719-6.219 4.16 4.144 9.883 6.719 16.219 6.719 12.703 0 23-10.298 23-23 0-6.335-2.575-12.06-6.719-16.219z" style="opacity:.05"/>
 <path d="m41.28 8.781c3.712 4.085 5.969 9.514 5.969 15.469 0 12.703-10.297 23-23 23-5.954 0-11.384-2.256-15.469-5.969 4.113 3.854 9.637 6.219 15.719 6.219 12.703 0 23-10.298 23-23 0-6.081-2.364-11.606-6.219-15.719z" style="opacity:.1"/>
 <path d="m31.25 2.375c8.615 3.154 14.75 11.417 14.75 21.13 0 12.426-10.07 22.5-22.5 22.5-9.708 0-17.971-6.135-21.12-14.75a23 23 0 0 0 44.875-7 23 23 0 0 0-16-21.875z" style="opacity:.2"/>
 <circle cx="24" cy="24" r="23" style="fill:url(#bg)"/>
 <path d="m40.03 7.531c3.712 4.084 5.969 9.514 5.969 15.469 0 12.703-10.297 23-23 23-5.954 0-11.384-2.256-15.469-5.969 4.178 4.291 10.01 6.969 16.469 6.969 12.703 0 23-10.298 23-23 0-6.462-2.677-12.291-6.969-16.469z" style="opacity:.1"/>
 <path d="m25 11a5 5 0 0 0-4.8984 4c-1.3672 6e-6 -2.7344-1.2e-5 -4.1016 0-0.55226 5e-6 -1 0.44774-1 1v15h-2c-0.554 0-1 0.446-1 1v4c0 0.554 0.446 1 1 1h8c0.554 0 1-0.446 1-1v-4c0-0.554-0.446-1-1-1h-0.5l2.0469-2h4.9062l2.0469 2h-0.5c-0.554 0-1 0.446-1 1v4c0 0.554 0.446 1 1 1h8c0.554 0 1-0.446 1-1v-4c0-0.554-0.446-1-1-1h-2v-15c0-0.55226-0.44774-1-1-1-1.3685-1.2e-5 -2.737 6e-6 -4.1055 0a5 5 0 0 0-4.8945-4zm-8 6h3.1055a5 5 0 0 0 3.8945 3.8984v2.1016h-4c-0.554 0-1 0.446-1 1v4c0 0.46118 0.31513 0.83075 0.73828 0.94727l-2.0996 2.0527h-0.63867zm12.898 0h3.1016v14h-0.63867l-2.0996-2.0527c0.42315-0.11651 0.73828-0.48609 0.73828-0.94727v-4c0-0.554-0.446-1-1-1h-4v-2.1055a5 5 0 0 0 3.8984-3.8945z" style="opacity:.1"/>
 <rect x="11" y="30" width="10" height="6" ry="1" style="fill:#f9f9f9"/>
 <rect x="27" y="30" width="10" height="6" ry="1" style="fill:#f9f9f9"/>
 <rect x="18" y="22" width="12" height="6" ry="1" style="fill:#f9f9f9"/>
 <circle cx="24" cy="15" r="5" style="fill:#f9f9f9"/>
 <path d="m15 14c-0.55226 5e-6 -1 0.44774-1 1v18l1.6992 0.71484 8.3008-8.1133 8.3008 8.1133 1.6992-0.71484v-18c0-0.55226-0.44774-1-1-1-6-5.1e-5 -12-5.1e-5 -18 0zm1 2h7v7.7812l-7 6.8438zm9 0h7v14.625l-7-6.8438z" style="color-rendering:auto;color:#000000;dominant-baseline:auto;fill:#f9f9f9;font-feature-settings:normal;font-variant-alternates:normal;font-variant-caps:normal;font-variant-ligatures:normal;font-variant-numeric:normal;font-variant-position:normal;image-rendering:auto;isolation:auto;mix-blend-mode:normal;shape-padding:0;shape-rendering:auto;solid-color:#000000;text-decoration-color:#000000;text-decoration-line:none;text-decoration-style:solid;text-indent:0;text-orientation:mixed;text-transform:none;white-space:normal"/>
</svg>
