<?xml version="1.0" encoding="UTF-8"?>
<svg id="svg37" version="1.1" viewBox="0 0 48 48" xmlns="http://www.w3.org/2000/svg" xmlns:cc="http://creativecommons.org/ns#" xmlns:dc="http://purl.org/dc/elements/1.1/" xmlns:rdf="http://www.w3.org/1999/02/22-rdf-syntax-ns#">
 <metadata id="metadata41">
  <rdf:RDF>
   <cc:Work rdf:about="">
    <dc:format>image/svg+xml</dc:format>
    <dc:type rdf:resource="http://purl.org/dc/dcmitype/StillImage"/>
    <dc:title/>
   </cc:Work>
  </rdf:RDF>
 </metadata>
 <defs id="defs7">
  <linearGradient id="linearGradient3764" x1="1" x2="47" gradientTransform="matrix(0 -1 1 0 -1.5e-6 48)" gradientUnits="userSpaceOnUse">
   <stop id="stop2" style="stop-color:#3bb96e;stop-opacity:.96471" offset="0"/>
   <stop id="stop4" style="stop-color:#44c377;stop-opacity:.96471" offset="1"/>
  </linearGradient>
 </defs>
 <g id="g15">
  <path id="path9" d="m36.31 5c5.859 4.062 9.688 10.831 9.688 18.5 0 12.426-10.07 22.5-22.5 22.5-7.669 0-14.438-3.828-18.5-9.688 1.037 1.822 2.306 3.499 3.781 4.969 4.085 3.712 9.514 5.969 15.469 5.969 12.703 0 23-10.298 23-23 0-5.954-2.256-11.384-5.969-15.469-1.469-1.475-3.147-2.744-4.969-3.781zm4.969 3.781c3.854 4.113 6.219 9.637 6.219 15.719 0 12.703-10.297 23-23 23-6.081 0-11.606-2.364-15.719-6.219 4.16 4.144 9.883 6.719 16.219 6.719 12.703 0 23-10.298 23-23 0-6.335-2.575-12.06-6.719-16.219z" style="opacity:.05"/>
  <path id="path11" d="m41.28 8.781c3.712 4.085 5.969 9.514 5.969 15.469 0 12.703-10.297 23-23 23-5.954 0-11.384-2.256-15.469-5.969 4.113 3.854 9.637 6.219 15.719 6.219 12.703 0 23-10.298 23-23 0-6.081-2.364-11.606-6.219-15.719z" style="opacity:.1"/>
  <path id="path13" d="m31.25 2.375c8.615 3.154 14.75 11.417 14.75 21.13 0 12.426-10.07 22.5-22.5 22.5-9.708 0-17.971-6.135-21.12-14.75a23 23 0 0 0 44.875 -7 23 23 0 0 0 -16 -21.875z" style="opacity:.2"/>
 </g>
 <g id="g19">
  <path id="path17" d="m24 1c12.703 0 23 10.297 23 23s-10.297 23-23 23-23-10.297-23-23 10.297-23 23-23z" style="fill:url(#linearGradient3764)"/>
 </g>
 <g id="g27">
  <g id="g25">
   <g id="g23" transform="translate(1,1)"></g>
  </g>
 </g>
 <g id="g31">
  <path id="path29" d="m40.03 7.531c3.712 4.084 5.969 9.514 5.969 15.469 0 12.703-10.297 23-23 23-5.954 0-11.384-2.256-15.469-5.969 4.178 4.291 10.01 6.969 16.469 6.969 12.703 0 23-10.298 23-23 0-6.462-2.677-12.291-6.969-16.469z" style="opacity:.1"/>
 </g>
 <path id="path33" d="m28 13c2.761 0 5 2.239 5 5-1e-3 1.576-0.747 3.058-2.01 4h0.01c0.554 0 1 0.446 1 1v1.5l7-2.5v13l-7-2.5v1.5c0 0.554-0.446 1-1 1h-16c-0.554 0-1-0.446-1-1v-11c0-0.554 0.446-1 1-1h0.01c-1.263-0.942-2.01-2.424-2.01-4-2e-3 -2.761 2.239-5 5-5s5 2.239 5 5c-1e-3 1.576-0.747 3.058-2.01 4h4.02c-1.263-0.942-2.01-2.424-2.01-4-2e-3 -2.761 2.239-5 5-5zm0 4c-0.552 0-1 0.448-1 1s0.448 1 1 1 1-0.448 1-1-0.448-1-1-1zm-10 0c-0.552 0-1 0.448-1 1s0.448 1 1 1 1-0.448 1-1-0.448-1-1-1z" style="fill-rule:evenodd;opacity:.1"/>
 <path id="path35" d="m27 12c2.761 0 5 2.239 5 5-1e-3 1.576-0.747 3.058-2.01 4h0.01c0.554 0 1 0.446 1 1v1.5l7-2.5v13l-7-2.5v1.5c0 0.554-0.446 1-1 1h-16c-0.554 0-1-0.446-1-1v-11c0-0.554 0.446-1 1-1h0.01c-1.263-0.942-2.01-2.424-2.01-4-2e-3 -2.761 2.239-5 5-5s5 2.239 5 5c-1e-3 1.576-0.747 3.058-2.01 4h4.02c-1.263-0.942-2.01-2.424-2.01-4-2e-3 -2.761 2.239-5 5-5zm0 4c-0.552 0-1 0.448-1 1s0.448 1 1 1 1-0.448 1-1-0.448-1-1-1zm-10 0c-0.552 0-1 0.448-1 1s0.448 1 1 1 1-0.448 1-1-0.448-1-1-1z" style="fill-rule:evenodd;fill:#fbfaf5"/>
</svg>
