<svg version="1.1" viewBox="0 0 48 48" xmlns="http://www.w3.org/2000/svg">
 <defs>
  <linearGradient id="linearGradient3764" x1="1" x2="47" gradientTransform="matrix(0 -1 1 0 -1.5e-6 48)" gradientUnits="userSpaceOnUse">
   <stop style="stop-color:#b1b1b1" offset="0"/>
   <stop style="stop-color:#bbb" offset="1"/>
  </linearGradient>
 </defs>
 <path d="m36.31 5c5.859 4.062 9.688 10.831 9.688 18.5 0 12.426-10.07 22.5-22.5 22.5-7.669 0-14.438-3.828-18.5-9.688 1.037 1.822 2.306 3.499 3.781 4.969 4.085 3.712 9.514 5.969 15.469 5.969 12.703 0 23-10.298 23-23 0-5.954-2.256-11.384-5.969-15.469-1.469-1.475-3.147-2.744-4.969-3.781zm4.969 3.781c3.854 4.113 6.219 9.637 6.219 15.719 0 12.703-10.297 23-23 23-6.081 0-11.606-2.364-15.719-6.219 4.16 4.144 9.883 6.719 16.219 6.719 12.703 0 23-10.298 23-23 0-6.335-2.575-12.06-6.719-16.219z" style="opacity:.05"/>
 <path d="m41.28 8.781c3.712 4.085 5.969 9.514 5.969 15.469 0 12.703-10.297 23-23 23-5.954 0-11.384-2.256-15.469-5.969 4.113 3.854 9.637 6.219 15.719 6.219 12.703 0 23-10.298 23-23 0-6.081-2.364-11.606-6.219-15.719z" style="opacity:.1"/>
 <path d="m31.25 2.375c8.615 3.154 14.75 11.417 14.75 21.13 0 12.426-10.07 22.5-22.5 22.5-9.708 0-17.971-6.135-21.12-14.75a23 23 0 0 0 44.875-7 23 23 0 0 0-16-21.875z" style="opacity:.2"/>
 <path d="m24 1c12.703 0 23 10.297 23 23s-10.297 23-23 23-23-10.297-23-23 10.297-23 23-23z" style="fill:url(#linearGradient3764)"/>
 <g transform="translate(1,1)">
  <g style="opacity:.1">
   <path d="m24.24 9c7.188 0 14.758 5.805 14.758 14.941 0 9.06-7.352 15.06-14.723 15.06-8.746 0-15.02-6.473-15.277-14.516 0-8.254 5.82-15.484 15.242-15.484m11.527 15.07c0.285-7.508-5.891-11.941-11.258-11.941-5.078 0-10.148 2.047-12.172 9.609-0.375 1.402-0.23 3.816 0.531 4.41 1.012 0.801 3.105-0.043 4.422-1.793 1.719-2.566 1.82-5.883 1.305-8.863-0.09-0.352-0.066-0.367 0.438-0.258 4.422 1.168 7.477 4.742 10.211 8.184 2 2.996 6.188 6.539 6.523 0.652"/>
  </g>
 </g>
 <path d="m24.24 9c7.188 0 14.758 5.805 14.758 14.941 0 9.06-7.352 15.06-14.723 15.06-8.746 0-15.02-6.473-15.277-14.516 0-8.254 5.82-15.484 15.242-15.484m11.527 15.07c0.285-7.508-5.891-11.941-11.258-11.941-5.078 0-10.148 2.047-12.172 9.609-0.375 1.402-0.23 3.816 0.531 4.41 1.012 0.801 3.105-0.043 4.422-1.793 1.719-2.566 1.82-5.883 1.305-8.863-0.09-0.352-0.066-0.367 0.438-0.258 4.422 1.168 7.477 4.742 10.211 8.184 2 2.996 6.188 6.539 6.523 0.652" style="fill:#383838"/>
 <path d="m40.03 7.531c3.712 4.084 5.969 9.514 5.969 15.469 0 12.703-10.297 23-23 23-5.954 0-11.384-2.256-15.469-5.969 4.178 4.291 10.01 6.969 16.469 6.969 12.703 0 23-10.298 23-23 0-6.462-2.677-12.291-6.969-16.469z" style="opacity:.1"/>
</svg>
