<svg xmlns="http://www.w3.org/2000/svg" viewBox="0 0 48 48">
 <defs>
  <linearGradient id="linearGradient3764" x1="1" x2="47" gradientUnits="userSpaceOnUse" gradientTransform="matrix(0,-1,1,0,-1.5e-6,47.999998)">
   <stop style="stop-color:#355473;stop-opacity:1"/>
   <stop offset="1" style="stop-color:#3b5d80;stop-opacity:1"/>
  </linearGradient>
 </defs>
 <g>
  <path d="m 36.31 5 c 5.859 4.062 9.688 10.831 9.688 18.5 c 0 12.426 -10.07 22.5 -22.5 22.5 c -7.669 0 -14.438 -3.828 -18.5 -9.688 c 1.037 1.822 2.306 3.499 3.781 4.969 c 4.085 3.712 9.514 5.969 15.469 5.969 c 12.703 0 23 -10.298 23 -23 c 0 -5.954 -2.256 -11.384 -5.969 -15.469 c -1.469 -1.475 -3.147 -2.744 -4.969 -3.781 z m 4.969 3.781 c 3.854 4.113 6.219 9.637 6.219 15.719 c 0 12.703 -10.297 23 -23 23 c -6.081 0 -11.606 -2.364 -15.719 -6.219 c 4.16 4.144 9.883 6.719 16.219 6.719 c 12.703 0 23 -10.298 23 -23 c 0 -6.335 -2.575 -12.06 -6.719 -16.219 z" style="opacity:0.05"/>
  <path d="m 41.28 8.781 c 3.712 4.085 5.969 9.514 5.969 15.469 c 0 12.703 -10.297 23 -23 23 c -5.954 0 -11.384 -2.256 -15.469 -5.969 c 4.113 3.854 9.637 6.219 15.719 6.219 c 12.703 0 23 -10.298 23 -23 c 0 -6.081 -2.364 -11.606 -6.219 -15.719 z" style="opacity:0.1"/>
  <path d="m 31.25 2.375 c 8.615 3.154 14.75 11.417 14.75 21.13 c 0 12.426 -10.07 22.5 -22.5 22.5 c -9.708 0 -17.971 -6.135 -21.12 -14.75 a 23 23 0 0 0 44.875 -7 a 23 23 0 0 0 -16 -21.875 z" style="opacity:0.2"/>
 </g>
 <g>
  <path d="m 24 1 c 12.703 0 23 10.297 23 23 c 0 12.703 -10.297 23 -23 23 -12.703 0 -23 -10.297 -23 -23 0 -12.703 10.297 -23 23 -23 z" style="fill:url(#linearGradient3764);fill-opacity:1"/>
 </g>
 <g>
  <g>
   <g transform="translate(1,1)">
    <g style="opacity:0.1">
     <!-- color: #3b5d80 -->
     <g>
      <path d="m 23 10 l 0 15 l 1.25 0 l 0 3.076 c -1.013 0.192 -1.75 0.753 -1.75 1.424 c 0 0.67 0.737 1.232 1.75 1.424 l 0 2.076 l 1.5 0 l 0 -2.076 c 1.013 -0.192 1.75 -0.753 1.75 -1.424 c 0 -0.67 -0.737 -1.232 -1.75 -1.424 l 0 -3.076 l 1.25 0 l 0 -15 l -4 0 z m -2 0.5 c -6.359 1.766 -11 7.617 -11 14.469 c 0 8.23 6.715 15.03 15 15.03 c 8.285 0 15 -6.8 15 -15.03 c 0 -6.852 -4.641 -12.703 -11 -14.469 l 0 3.875 c 4.184 1.645 7.25 5.75 7.25 10.594 c 0 6.313 -5.04 11.375 -11.25 11.375 c -6.203 0 -11.25 -5.063 -11.25 -11.375 c 0 -4.895 3.01 -9.05 7.25 -10.656 l 0 -3.813 z m -2.25 7.5 l 0 3.076 c -1.013 0.192 -1.75 0.753 -1.75 1.424 c 0 0.67 0.737 1.232 1.75 1.424 l 0 8.08 l 1.5 0 l 0 -8.08 c 1.013 -0.192 1.75 -0.753 1.75 -1.424 c 0 -0.67 -0.737 -1.232 -1.75 -1.424 l 0 -3.076 l -1.5 0 z m 11 0 l 0 3.076 c -1.013 0.192 -1.75 0.753 -1.75 1.424 c 0 0.67 0.737 1.232 1.75 1.424 l 0 8.08 l 1.5 0 l 0 -8.08 c 1.013 -0.192 1.75 -0.753 1.75 -1.424 c 0 -0.67 -0.737 -1.232 -1.75 -1.424 l 0 -3.076 l -1.5 0 z" transform="translate(-1,-1)"/>
     </g>
    </g>
   </g>
  </g>
 </g>
 <g>
  <g>
   <!-- color: #3b5d80 -->
   <g>
    <path d="m 26,9 -4,0 0,15 4,0 M 26,9" style="fill:#fa5a5a;fill-opacity:1;stroke:none;fill-rule:nonzero"/>
    <path d="m 20,9.5 c -6.359,1.766 -11,7.617 -11,14.469 0,8.23 6.715,15.03 15,15.03 8.285,0 15,-6.801 15,-15.03 C 39,17.117 34.359,11.266 28,9.5 l 0,3.875 c 4.184,1.645 7.25,5.75 7.25,10.594 0,6.313 -5.04,11.375 -11.25,11.375 -6.203,0 -11.25,-5.063 -11.25,-11.375 0,-4.895 3.01,-9.05 7.25,-10.656 M 20,9.5" style="fill:#fa5a5a;fill-opacity:1;stroke:none;fill-rule:nonzero"/>
    <path d="m 23.25 16 0 16 1.5 0 0 -16 m -1.5 0" style="fill:#f9f9f9;fill-opacity:1;stroke:none;fill-rule:nonzero"/>
    <path d="m 26.5 28.5 c 0 0.828 -1.117 1.5 -2.5 1.5 -1.383 0 -2.5 -0.672 -2.5 -1.5 0 -0.828 1.117 -1.5 2.5 -1.5 1.383 0 2.5 0.672 2.5 1.5 m 0 0" style="fill:#f9f9f9;fill-opacity:1;stroke:none;fill-rule:nonzero"/>
    <path d="m 19.25 31 0 -14 -1.5 0 0 14 m 1.5 0" style="fill:#f9f9f9;fill-opacity:1;stroke:none;fill-rule:nonzero"/>
    <path d="M 21,21.5 C 21,22.328 19.883,23 18.5,23 17.117,23 16,22.328 16,21.5 16,20.672 17.117,20 18.5,20 c 1.383,0 2.5,0.672 2.5,1.5 m 0,0" style="fill:#f9f9f9;fill-opacity:1;stroke:none;fill-rule:nonzero"/>
    <path d="m 30.25 31 0 -14 -1.5 0 0 14 m 1.5 0" style="fill:#f9f9f9;fill-opacity:1;stroke:none;fill-rule:nonzero"/>
    <path d="M 32,21.5 C 32,22.328 30.883,23 29.5,23 28.117,23 27,22.328 27,21.5 27,20.672 28.117,20 29.5,20 c 1.383,0 2.5,0.672 2.5,1.5 m 0,0" style="fill:#f9f9f9;fill-opacity:1;stroke:none;fill-rule:nonzero"/>
   </g>
  </g>
 </g>
 <g>
  <path d="m 40.03 7.531 c 3.712 4.084 5.969 9.514 5.969 15.469 0 12.703 -10.297 23 -23 23 c -5.954 0 -11.384 -2.256 -15.469 -5.969 4.178 4.291 10.01 6.969 16.469 6.969 c 12.703 0 23 -10.298 23 -23 0 -6.462 -2.677 -12.291 -6.969 -16.469 z" style="opacity:0.1"/>
 </g>
</svg>
