<svg version="1.1" viewBox="0 0 48 48" xmlns="http://www.w3.org/2000/svg">
 <defs>
  <linearGradient id="bg" x2="0" y1="1" y2="47" gradientUnits="userSpaceOnUse">
   <stop style="stop-color:#de4040" offset="0"/>
   <stop style="stop-color:#db2e2e" offset="1"/>
  </linearGradient>
 </defs>
 <path d="m36.3 5c5.86 4.06 9.69 10.8 9.69 18.5 0 12.4-10.1 22.5-22.5 22.5-7.67 0-14.4-3.83-18.5-9.69 1.04 1.82 2.31 3.5 3.78 4.97 4.08 3.71 9.51 5.97 15.5 5.97 12.7 0 23-10.3 23-23 0-5.95-2.26-11.4-5.97-15.5-1.47-1.48-3.15-2.74-4.97-3.78zm4.97 3.78c3.85 4.11 6.22 9.64 6.22 15.7 0 12.7-10.3 23-23 23-6.08 0-11.6-2.36-15.7-6.22 4.16 4.14 9.88 6.72 16.2 6.72 12.7 0 23-10.3 23-23 0-6.34-2.58-12.1-6.72-16.2z" style="opacity:.05"/>
 <path d="m41.3 8.78c3.71 4.08 5.97 9.51 5.97 15.5 0 12.7-10.3 23-23 23-5.95 0-11.4-2.26-15.5-5.97 4.11 3.85 9.64 6.22 15.7 6.22 12.7 0 23-10.3 23-23 0-6.08-2.36-11.6-6.22-15.7z" style="opacity:.1"/>
 <path d="m31.2 2.38c8.62 3.15 14.8 11.4 14.8 21.1 0 12.4-10.1 22.5-22.5 22.5-9.71 0-18-6.14-21.1-14.8a23 23 0 0 0 44.9-7 23 23 0 0 0-16-21.9z" style="opacity:.2"/>
 <circle cx="24" cy="24" r="23" style="fill:url(#bg)"/>
 <path d="m16 35c0 0.484 0.516 1 1 1h16c0.484 0 1-0.516 1-1v-16l-7-7s-11 23.2-11 23z" style="opacity:.1"/>
 <path d="m40 7.53c3.71 4.08 5.97 9.51 5.97 15.5 0 12.7-10.3 23-23 23-5.95 0-11.4-2.26-15.5-5.97 4.18 4.29 10 6.97 16.5 6.97 12.7 0 23-10.3 23-23 0-6.46-2.68-12.3-6.97-16.5z" style="opacity:.1"/>
 <path d="m16 11c-0.516 0-1 0.484-1 1v22c0 0.484 0.516 1 1 1h16c0.484 0 1-0.516 1-1v-16l-7-7zm7.19 8c0.094-0.016 0.184 0.023 0.281 0.125 0.141 0.137 0.191 0.379 0.219 0.531-0.027-0.09-0.066-0.203-0.125-0.25-0.074-0.145-0.594-0.458-0.5 0.688 0.039 0.469 0.0938 1.14 0.219 1.84 0.289-1.1 0.469-1.94 0.469-1.94s0.105 1.11-0.281 2.84c0.219 0.754 0.566 1.52 1.12 2.19 0.488 0.582 1.13 1.07 1.78 1.44 0.371-0.035 0.699-0.0698 1.38-0.0938 1.82-0.055 2.04 0.168 2.19 0.438 0.168 0.258-0.0938 0.5-0.0938 0.5s0.0165-0.18-0.188-0.344c-0.18-0.145-0.898-0.31-2.69-0.189 0.922 0.441 1.79 0.661 2.12 0.689 0.645 0.055 0.688-0.0938 0.688-0.0938s-0.281 0.533-1.53 0.279c-0.633-0.129-1.4-0.434-2.09-0.812-2.23 0.246-4.5 0.969-4.5 0.969s0.828-0.691 2.5-1c0.715-0.133 1.1-0.219 1.5-0.281-0.465-0.297-0.882-0.613-1.19-0.969-0.441-0.512-0.824-1.32-1.12-2.12-0.305 1.14-0.825 2.48-1.69 3.97-2.44 4.2-3.15 3.65-3.41 3.5-0.258-0.145-0.586-0.616 0.5-1.56 1.08-0.949 1.5-0.938 1.5-0.938s-0.988 0.604-1.38 1.19c-0.383 0.582-0.684 0.93-0.594 1.09 0.094 0.164 1.2-0.668 1.66-1.38 0.727-1.13 2.1-3.22 2.75-5.22 0.148-0.469 0.281-0.957 0.406-1.41-0.148-0.453-0.273-0.867-0.316-1.16-0.164-0.93-0.074-1.9 0.125-2.25 0.105-0.172 0.188-0.26 0.281-0.279z" style="fill:#f9f9f9"/>
 <path d="m27 18 6 6v-6h-6z" style="opacity:.1"/>
 <path d="m26 11v6c0 0.554 0.446 1 1 1h6l-7-7z" style="opacity:.2"/>
</svg>
