<svg version="1.1" viewBox="0 0 48 48" xmlns="http://www.w3.org/2000/svg">
 <defs>
  <linearGradient id="linearGradient3764" x1="1" x2="47" gradientTransform="rotate(-90 24 24)" gradientUnits="userSpaceOnUse">
   <stop style="stop-color:#e4e4e4" offset="0"/>
   <stop style="stop-color:#eee" offset="1"/>
  </linearGradient>
 </defs>
 <path d="m36.3 5c5.86 4.06 9.69 10.8 9.69 18.5 0 12.4-10.1 22.5-22.5 22.5-7.67 0-14.4-3.83-18.5-9.69 1.04 1.82 2.31 3.5 3.78 4.97 4.08 3.71 9.51 5.97 15.5 5.97 12.7 0 23-10.3 23-23 0-5.95-2.26-11.4-5.97-15.5-1.47-1.48-3.15-2.74-4.97-3.78zm4.97 3.78c3.85 4.11 6.22 9.64 6.22 15.7 0 12.7-10.3 23-23 23-6.08 0-11.6-2.36-15.7-6.22 4.16 4.14 9.88 6.72 16.2 6.72 12.7 0 23-10.3 23-23 0-6.34-2.58-12.1-6.72-16.2z" style="opacity:.05"/>
 <path d="m41.3 8.78c3.71 4.08 5.97 9.51 5.97 15.5 0 12.7-10.3 23-23 23-5.95 0-11.4-2.26-15.5-5.97 4.11 3.85 9.64 6.22 15.7 6.22 12.7 0 23-10.3 23-23 0-6.08-2.36-11.6-6.22-15.7z" style="opacity:.1"/>
 <path d="m31.2 2.38c8.62 3.15 14.8 11.4 14.8 21.1 0 12.4-10.1 22.5-22.5 22.5-9.71 0-18-6.14-21.1-14.8a23 23 0 0 0 44.9-7 23 23 0 0 0-16-21.9z" style="opacity:.2"/>
 <path d="m24 1c12.7 0 23 10.3 23 23s-10.3 23-23 23-23-10.3-23-23 10.3-23 23-23z" style="fill:url(#linearGradient3764)"/>
 <path d="m40 7.53c3.71 4.08 5.97 9.51 5.97 15.5 0 12.7-10.3 23-23 23-5.95 0-11.4-2.26-15.5-5.97 4.18 4.29 10 6.97 16.5 6.97 12.7 0 23-10.3 23-23 0-6.46-2.68-12.3-6.97-16.5z" style="opacity:.1"/>
 <path d="m14 12v24c0 1.11 0.892 2 2 2h18c1.11 0 2-0.892 2-2v-22c0-1.11-0.892-2-2-2h-20zm3 2h16l1 22-18-1v-20c0-0.554 0.446-1 1-1zm8 1c-4.42 0-8 3.58-8 8s3.58 8 8 8c1.07-0.00436 2.12-0.222 3.1-0.639l2.9 4.64h2v-2l-3.76-3.22c2.34-1.46 3.76-4.02 3.76-6.78 0-4.42-3.58-8-8-8zm0 6c1.1 0 2 0.895 2 2s-0.895 2-2 2-2-0.895-2-2 0.895-2 2-2z" style="opacity:.1"/>
 <path d="m15 11c-1.11 0-2 0.892-2 2v22c0 1.11 0.892 2 2 2h18c1.11 0 2-0.892 2-2v-22c0-1.11-0.892-2-2-2h-18zm1 2h16c0.554 0 1 0.446 1 1v20c0 0.554-0.446 1-1 1h-16c-0.554 0-1-0.446-1-1v-20c0-0.554 0.446-1 1-1zm8 1a8 8 0 0 0-8 8 8 8 0 0 0 8 8 8 8 0 0 0 3.1-0.639l2.9 4.64h2v-2l-3.76-3.22a8 8 0 0 0 3.76-6.78 8 8 0 0 0-8-8zm0 6a2 2 0 0 1 2 2 2 2 0 0 1-2 2 2 2 0 0 1-2-2 2 2 0 0 1 2-2z" style="fill:#4d4d4d"/>
</svg>
