<svg xmlns="http://www.w3.org/2000/svg" viewBox="0 0 48 48">
 <defs>
  <linearGradient id="linearGradient4506" x1="1" x2="47" gradientUnits="userSpaceOnUse" gradientTransform="matrix(0,-1,1,0,0,48)">
   <stop style="stop-color:#b6cdeb;stop-opacity:1"/>
   <stop offset="1" style="stop-color:#c6d8f0;stop-opacity:1"/>
  </linearGradient>
 </defs>
 <g>
  <path d="m 36.31 5 c 5.859 4.062 9.688 10.831 9.688 18.5 c 0 12.426 -10.07 22.5 -22.5 22.5 c -7.669 0 -14.438 -3.828 -18.5 -9.688 c 1.037 1.822 2.306 3.499 3.781 4.969 c 4.085 3.712 9.514 5.969 15.469 5.969 c 12.703 0 23 -10.298 23 -23 c 0 -5.954 -2.256 -11.384 -5.969 -15.469 c -1.469 -1.475 -3.147 -2.744 -4.969 -3.781 z m 4.969 3.781 c 3.854 4.113 6.219 9.637 6.219 15.719 c 0 12.703 -10.297 23 -23 23 c -6.081 0 -11.606 -2.364 -15.719 -6.219 c 4.16 4.144 9.883 6.719 16.219 6.719 c 12.703 0 23 -10.298 23 -23 c 0 -6.335 -2.575 -12.06 -6.719 -16.219 z" style="opacity:0.05"/>
  <path d="m 41.28 8.781 c 3.712 4.085 5.969 9.514 5.969 15.469 c 0 12.703 -10.297 23 -23 23 c -5.954 0 -11.384 -2.256 -15.469 -5.969 c 4.113 3.854 9.637 6.219 15.719 6.219 c 12.703 0 23 -10.298 23 -23 c 0 -6.081 -2.364 -11.606 -6.219 -15.719 z" style="opacity:0.1"/>
  <path d="m 31.25 2.375 c 8.615 3.154 14.75 11.417 14.75 21.13 c 0 12.426 -10.07 22.5 -22.5 22.5 c -9.708 0 -17.971 -6.135 -21.12 -14.75 a 23 23 0 0 0 44.875 -7 a 23 23 0 0 0 -16 -21.875 z" style="opacity:0.2"/>
 </g>
 <path d="M 24,47 C 11.297,47 1,36.703 1,24 1,11.297 11.297,1 24,1 36.703,1 47,11.297 47,24 47,36.703 36.703,47 24,47 Z" style="fill:url(#linearGradient4506);fill-opacity:1"/>
 <g>
  <g>
   <g transform="translate(1,1)">
    <g style="opacity:0.1">
     <!-- color: #ce5952 -->
     <g>
      <path d="m 14.887 17 l 18.227 0 c 0.488 0 0.887 0.398 0.887 0.887 l 0 16.227 c 0 0.488 -0.398 0.887 -0.887 0.887 l -18.227 0 c -0.488 0 -0.887 -0.398 -0.887 -0.887 l 0 -16.227 c 0 -0.488 0.398 -0.887 0.887 -0.887 m 0 0" style="fill:#000;fill-opacity:1;stroke:none;fill-rule:nonzero"/>
      <path d="m 17 18 c 0 -4 2 -8 7 -8 c 5 0 7 4 7 8 c 0 1 -1 1 -1 0 c 0 -3 -2 -7 -6 -7 c -4 0 -6 4 -6 7 c 0 1 -1 1 -1 0 m 0 0" style="fill:#000;fill-opacity:1;stroke:none;fill-rule:nonzero"/>
     </g>
    </g>
   </g>
  </g>
 </g>
 <path d="m 14.887,17 18.227,0 c 0.488,0 0.887,0.398 0.887,0.887 l 0,16.227 c 0,0.488 -0.398,0.887 -0.887,0.887 l -18.227,0 C 14.399,35.001 14,34.603 14,34.114 L 14,17.887 C 14,17.399 14.398,17 14.887,17 m 0,0" style="fill:#4a8fee;fill-opacity:1;stroke:none;fill-rule:nonzero"/>
 <path d="m 14.887,19 18.227,0 c 0.488,0 0.887,0.398 0.887,0.887 l 0,0.227 c 0,0.488 -0.398,0.887 -0.887,0.887 l -18.227,0 C 14.399,21.001 14,20.603 14,20.114 l 0,-0.227 C 14,19.399 14.398,19 14.887,19 m 0,0" style="fill:#70abfb;fill-opacity:1;stroke:none;fill-rule:nonzero"/>
 <path d="m 14.887,17 18.227,0 c 0.488,0 0.887,0.398 0.887,0.887 l 0,1.227 c 0,0.488 -0.398,0.887 -0.887,0.887 l -18.227,0 C 14.399,20.001 14,19.603 14,19.114 l 0,-1.227 C 14,17.399 14.398,17 14.887,17 m 0,0" style="fill:#4280d4;fill-opacity:1;stroke:none;fill-rule:nonzero"/>
 <path d="m 26 26 c 0 1.105 -0.895 2 -2 2 -1.105 0 -2 -0.895 -2 -2 0 -1.105 0.895 -2 2 -2 1.105 0 2 0.895 2 2 m 0 0" style="fill:#224370;fill-opacity:1;stroke:none;fill-rule:nonzero"/>
 <path d="m 23 27 -2 5 6 0 -2 -5 m -2 0" style="fill:#224370;fill-opacity:1;stroke:none;fill-rule:nonzero"/>
 <path d="M 21.406,31 21,32 l 6,0 -0.406,-1 m -5.188,0" style="fill:#599fff;fill-opacity:1;stroke:none;fill-rule:nonzero"/>
 <path d="m 17 18 c 0 -4 2 -8 7 -8 5 0 7 4 7 8 0 1 -1 1 -1 0 0 -3 -2 -7 -6 -7 -4 0 -6 4 -6 7 0 1 -1 1 -1 0 m 0 0" style="fill:#f9f9f9;fill-opacity:1;stroke:none;fill-rule:nonzero"/>
 <path d="M 19,18.5 C 19,18.777 18.328,19 17.5,19 16.672,19 16,18.777 16,18.5 16,18.223 16.672,18 17.5,18 c 0.828,0 1.5,0.223 1.5,0.5 m 0,0" style="fill:#4a4a4a;fill-opacity:1;stroke:none;fill-rule:nonzero"/>
 <path d="M 32,18.5 C 32,18.777 31.328,19 30.5,19 29.672,19 29,18.777 29,18.5 29,18.223 29.672,18 30.5,18 c 0.828,0 1.5,0.223 1.5,0.5 m 0,0" style="fill:#4a4a4a;fill-opacity:1;stroke:none;fill-rule:nonzero"/>
 <g>
  <path d="m 40.03 7.531 c 3.712 4.084 5.969 9.514 5.969 15.469 0 12.703 -10.297 23 -23 23 c -5.954 0 -11.384 -2.256 -15.469 -5.969 4.178 4.291 10.01 6.969 16.469 6.969 c 12.703 0 23 -10.298 23 -23 0 -6.462 -2.677 -12.291 -6.969 -16.469 z" style="opacity:0.1"/>
 </g>
</svg>
