<svg version="1.1" viewBox="0 0 48 48" xmlns="http://www.w3.org/2000/svg">
 <defs>
  <linearGradient id="bg" x2="0" y1="47" y2="1" gradientUnits="userSpaceOnUse">
   <stop style="stop-color:#6471a0" offset="0"/>
   <stop style="stop-color:#717da8" offset="1"/>
  </linearGradient>
 </defs>
 <path d="m36.3 5c5.86 4.06 9.69 10.8 9.69 18.5 0 12.4-10.1 22.5-22.5 22.5-7.67 0-14.4-3.83-18.5-9.69 1.04 1.82 2.31 3.5 3.78 4.97 4.08 3.71 9.51 5.97 15.5 5.97 12.7 0 23-10.3 23-23 0-5.95-2.26-11.4-5.97-15.5-1.47-1.48-3.15-2.74-4.97-3.78zm4.97 3.78c3.85 4.11 6.22 9.64 6.22 15.7 0 12.7-10.3 23-23 23-6.08 0-11.6-2.36-15.7-6.22 4.16 4.14 9.88 6.72 16.2 6.72 12.7 0 23-10.3 23-23 0-6.34-2.58-12.1-6.72-16.2z" style="opacity:.05"/>
 <path d="m41.3 8.78c3.71 4.08 5.97 9.51 5.97 15.5 0 12.7-10.3 23-23 23-5.95 0-11.4-2.26-15.5-5.97 4.11 3.85 9.64 6.22 15.7 6.22 12.7 0 23-10.3 23-23 0-6.08-2.36-11.6-6.22-15.7z" style="opacity:.1"/>
 <path d="m31.2 2.38c8.62 3.15 14.8 11.4 14.8 21.1 0 12.4-10.1 22.5-22.5 22.5-9.71 0-18-6.14-21.1-14.8a23 23 0 0 0 44.9-7 23 23 0 0 0-16-21.9z" style="opacity:.2"/>
 <path d="m24 1c12.7 0 23 10.3 23 23s-10.3 23-23 23-23-10.3-23-23 10.3-23 23-23z" style="fill:url(#bg)"/>
 <path d="m40 7.53c3.71 4.08 5.97 9.51 5.97 15.5 0 12.7-10.3 23-23 23-5.95 0-11.4-2.26-15.5-5.97 4.18 4.29 10 6.97 16.5 6.97 12.7 0 23-10.3 23-23 0-6.46-2.68-12.3-6.97-16.5z" style="opacity:.1"/>
 <path d="m25 18c-4 0-8 2-9.5 5.5-0.567 1.32-2.5 2.41-2.5 3 0 0.641 1.58 0.894 2.56 1.31 1.44 3.19 6.19 5.19 9.84 5.19 3.7 0 8.6-2 9.6-6 0 0 2 0 2-0.5s-1.19-0.3-1.66-1.5c-2.34-6-9.02-6.98-10.3-7zm3.43 1.65c0.558 0.268 5.57 3.35 5.61 6.45-0.0277 2.51-4.03 5.9-8.62 5.9-2.02 0-4.5-0.58-6.44-1.84s-2.95-2.91-2.97-4.34c-0.027-1.91 0.832-3.52 2.62-4.83 0.597-0.438 1.26-1.01 1.95-1.32-1.01 1.02-1.57 2.4-1.58 3.84 0 3.04 2.46 5.5 5.5 5.5s5.5-2.46 5.5-5.5c-6.38e-4 -1.44-0.566-2.82-1.57-3.85z" style="opacity:.1"/>
 <path d="m24 17c-4 0-8 2-9.5 5.5-0.567 1.32-2.5 2.41-2.5 3 0 0.641 1.58 0.894 2.56 1.31 1.44 3.19 6.19 5.19 9.84 5.19 3.7 0 8.6-2 9.6-6 0 0 2 0 2-0.5s-1.19-0.3-1.66-1.5c-2.34-6-9.02-6.98-10.3-7zm3.43 1.65c0.558 0.268 5.57 3.35 5.61 6.45-0.0277 2.51-4.03 5.9-8.62 5.9-2.02 0-4.5-0.58-6.44-1.84s-2.95-2.91-2.97-4.34c-0.027-1.91 0.832-3.52 2.62-4.83 0.597-0.438 1.26-1.01 1.95-1.32-1.01 1.02-1.57 2.4-1.58 3.84 0 3.04 2.46 5.5 5.5 5.5s5.5-2.46 5.5-5.5c-6.38e-4 -1.44-0.566-2.82-1.57-3.85z" style="fill:#4d4d4d"/>
 <path d="m24 20.5a1.5 1.5 0 0 1-1.5 1.5 1.5 1.5 0 0 1-1.5-1.5 1.5 1.5 0 0 1 1.5-1.5 1.5 1.5 0 0 1 1.5 1.5z" style="fill:#f9f9f9"/>
</svg>
