<svg version="1.1" viewBox="0 0 48 48" xmlns="http://www.w3.org/2000/svg">
 <defs>
  <linearGradient id="bg" x2="0" y1="1" y2="47" gradientUnits="userSpaceOnUse">
   <stop style="stop-color:#eee" offset="0"/>
   <stop style="stop-color:#e4e4e4" offset="1"/>
  </linearGradient>
 </defs>
 <path d="m36.31 5c5.859 4.062 9.688 10.831 9.688 18.5 0 12.426-10.07 22.5-22.5 22.5-7.669 0-14.438-3.828-18.5-9.688 1.037 1.822 2.306 3.499 3.781 4.969 4.085 3.712 9.514 5.969 15.469 5.969 12.703 0 23-10.298 23-23 0-5.954-2.256-11.384-5.969-15.469-1.469-1.475-3.147-2.744-4.969-3.781zm4.969 3.781c3.854 4.113 6.219 9.637 6.219 15.719 0 12.703-10.297 23-23 23-6.081 0-11.606-2.364-15.719-6.219 4.16 4.144 9.883 6.719 16.219 6.719 12.703 0 23-10.298 23-23 0-6.335-2.575-12.06-6.719-16.219z" style="opacity:.05"/>
 <path d="m41.28 8.781c3.712 4.085 5.969 9.514 5.969 15.469 0 12.703-10.297 23-23 23-5.954 0-11.384-2.256-15.469-5.969 4.113 3.854 9.637 6.219 15.719 6.219 12.703 0 23-10.298 23-23 0-6.081-2.364-11.606-6.219-15.719z" style="opacity:.1"/>
 <path d="m31.25 2.375c8.615 3.154 14.75 11.417 14.75 21.13 0 12.426-10.07 22.5-22.5 22.5-9.708 0-17.971-6.135-21.12-14.75a23 23 0 0 0 44.875-7 23 23 0 0 0-16-21.875z" style="opacity:.2"/>
 <circle cx="24" cy="24" r="23" style="fill:url(#bg)"/>
 <path d="m22.996 13v1h-5.9707c-0.523 0-1.0254 0.461-1.0254 1v20c0 0.539 0.45161 1 0.97461 1h16.055c0.523 0 0.9707-0.461 0.9707-1v-20c0-0.539-0.5063-1-1.0293-1h-5.9746v-1z" style="opacity:.1"/>
 <path d="m40.03 7.531c3.712 4.084 5.969 9.514 5.969 15.469 0 12.703-10.297 23-23 23-5.954 0-11.384-2.256-15.469-5.969 4.178 4.291 10.01 6.969 16.469 6.969 12.703 0 23-10.298 23-23 0-6.462-2.677-12.291-6.969-16.469z" style="opacity:.1"/>
 <path d="m16.025 13.001c-0.523 0-1.0254 0.46028-1.0254 0.99928v20c0 0.539 0.45161 1 0.97461 1h16.055c0.523 0 0.9707-0.461 0.9707-1v-20c0-0.539-0.5063-0.99928-1.0293-0.99928z" style="fill:#a88445"/>
 <path d="m17 15h14l-0.0039 13.001-5 5-8.9961-7.19e-4" style="fill:#ececec"/>
 <path d="m21.996 12.001v1h-2.9961v2.9993h10v-2.9993h-3.0039v-1z" style="fill:#535453"/>
 <path d="m26 28v5l4.9961-4.9993" style="fill:#a3a3a3"/>
 <path d="m19.146 24.311 2.211 3.1524c0.53963 0.76939 1.3828 0.66054 1.66 0 1.043-2.4854 3.934-7.0851 5.824-8.4406 0.504-0.54516-0.324-1.2887-0.961-0.92688-1.367 0.64582-5.305 6.221-5.813 7.7977l-1.672-2.5374c-0.613-0.88402-1.82 0.10465-1.25 0.9498" style="fill-rule:evenodd;fill:#535353"/>
</svg>
