<svg xmlns="http://www.w3.org/2000/svg" viewBox="0 0 48 48">
 <defs>
  <linearGradient id="linearGradient3764" x1="1" x2="47" gradientUnits="userSpaceOnUse" gradientTransform="matrix(0,-1,1,0,-1.5e-6,47.999998)">
   <stop style="stop-color:#e3db4f;stop-opacity:1"/>
   <stop offset="1" style="stop-color:#e6dd60;stop-opacity:1"/>
  </linearGradient>
 </defs>
 <g>
  <path d="m 36.31 5 c 5.859 4.062 9.688 10.831 9.688 18.5 c 0 12.426 -10.07 22.5 -22.5 22.5 c -7.669 0 -14.438 -3.828 -18.5 -9.688 c 1.037 1.822 2.306 3.499 3.781 4.969 c 4.085 3.712 9.514 5.969 15.469 5.969 c 12.703 0 23 -10.298 23 -23 c 0 -5.954 -2.256 -11.384 -5.969 -15.469 c -1.469 -1.475 -3.147 -2.744 -4.969 -3.781 z m 4.969 3.781 c 3.854 4.113 6.219 9.637 6.219 15.719 c 0 12.703 -10.297 23 -23 23 c -6.081 0 -11.606 -2.364 -15.719 -6.219 c 4.16 4.144 9.883 6.719 16.219 6.719 c 12.703 0 23 -10.298 23 -23 c 0 -6.335 -2.575 -12.06 -6.719 -16.219 z" style="opacity:0.05"/>
  <path d="m 41.28 8.781 c 3.712 4.085 5.969 9.514 5.969 15.469 c 0 12.703 -10.297 23 -23 23 c -5.954 0 -11.384 -2.256 -15.469 -5.969 c 4.113 3.854 9.637 6.219 15.719 6.219 c 12.703 0 23 -10.298 23 -23 c 0 -6.081 -2.364 -11.606 -6.219 -15.719 z" style="opacity:0.1"/>
  <path d="m 31.25 2.375 c 8.615 3.154 14.75 11.417 14.75 21.13 c 0 12.426 -10.07 22.5 -22.5 22.5 c -9.708 0 -17.971 -6.135 -21.12 -14.75 a 23 23 0 0 0 44.875 -7 a 23 23 0 0 0 -16 -21.875 z" style="opacity:0.2"/>
 </g>
 <g>
  <path d="m 24 1 c 12.703 0 23 10.297 23 23 c 0 12.703 -10.297 23 -23 23 -12.703 0 -23 -10.297 -23 -23 0 -12.703 10.297 -23 23 -23 z" style="fill:url(#linearGradient3764);fill-opacity:1"/>
 </g>
 <path d="m 20,15 14.5,0 c 1.385,0 2.5,1.115 2.5,2.5 l 0,15 c 0,1.385 -1.115,2.5 -2.5,2.5 l -19,0 C 14.115,35 13,33.885 13,32.5 L 13,22 Z" style="fill:#000;opacity:0.1;fill-opacity:1;stroke:none"/>
 <g>
  <g>
   <g transform="translate(1,1)">
    <g style="opacity:0.1">
     <!-- color: #e6dd60 -->
    </g>
   </g>
  </g>
 </g>
 <g>
  <path d="m 40.03 7.531 c 3.712 4.084 5.969 9.514 5.969 15.469 0 12.703 -10.297 23 -23 23 c -5.954 0 -11.384 -2.256 -15.469 -5.969 4.178 4.291 10.01 6.969 16.469 6.969 c 12.703 0 23 -10.298 23 -23 0 -6.462 -2.677 -12.291 -6.969 -16.469 z" style="opacity:0.1"/>
 </g>
 <g>
  <path d="m 19,14 14.5,0 c 1.385,0 2.5,1.115 2.5,2.5 l 0,15 c 0,1.385 -1.115,2.5 -2.5,2.5 l -19,0 C 13.115,34 12,32.885 12,31.5 L 12,21 Z" style="fill:#e9e3cb;opacity:1;fill-opacity:1;stroke:none"/>
  <path d="M 34,18.615234 C 27,17 17,23 14,25.210938 L 14,30 c 0,1.108 0.892,2 2,2 l 16,0 c 1.108,0 2,-0.892 2,-2 z" style="fill:#74aabc;opacity:1;fill-opacity:1;stroke:none"/>
  <path d="m 18.05 16 -4.055 4 0 5.211 c 1.026 0.497 2.176 0.789 3.41 0.789 c 3.457 0 6.387 -2.191 7.32 -5.211 0.836 0.633 1.878 1.043 3.03 1.043 2.16 0 3.977 -1.344 4.633 -3.195 0.258 0.055 0.539 0.066 0.816 0.066 0.272 0 0.534 -0.036 0.791 -0.088 l 0 -0.615 c 0 -1.108 -0.892 -2 -2 -2 z" style="fill:#fae6f0;opacity:1;fill-opacity:1;stroke:none"/>
  <g>
   <g>
    <!-- color: #e6dd60 -->
    <g>
     <path d="m 26.438 23.75 -0.875 0.5 c 1.477 2.465 2.23 4.418 2.594 5.75 0.359 1.328 0.344 2 0.344 2 l 0.996 0 c 0 0 -0.016 -0.828 -0.406 -2.25 -0.387 -1.422 -1.133 -3.461 -2.656 -6 m 0.004 0" style="fill:#45a345;fill-opacity:1;stroke:none;fill-rule:nonzero"/>
     <path d="m 22.23 32.41 c 0 0 0 -2.652 1.328 -3.98 1.328 -1.332 3.984 -1.332 3.984 -1.332 0 0 0 2.656 -1.328 3.984 -1.332 1.328 -3.984 1.328 -3.984 1.328 m 0 0" style="fill:#45a345;fill-opacity:1;stroke:none;fill-rule:nonzero"/>
     <path d="m 27.98 27.609 c 0 0 0.617 -2.297 2.07 -3.137 1.457 -0.84 3.75 -0.227 3.75 -0.227 0 0 -0.617 2.297 -2.07 3.137 -1.457 0.84 -3.75 0.227 -3.75 0.227 m 0 0" style="fill:#45a345;fill-opacity:1;stroke:none;fill-rule:nonzero"/>
     <path d="m 25.08 18.08 c -1.375 0 -2.484 1.117 -2.484 2.496 l 0 0.078 c -0.023 -0.008 -0.031 -0.02 -0.063 -0.02 -1.332 -0.355 -2.711 0.438 -3.063 1.77 -0.359 1.332 0.434 2.711 1.766 3.066 0.023 0.004 0.035 -0.004 0.055 0 -0.012 0.02 -0.02 0.027 -0.02 0.055 -0.691 1.195 -0.262 2.742 0.934 3.434 1.195 0.691 2.719 0.258 3.406 -0.938 0.008 -0.023 0.016 -0.035 0.023 -0.051 0.02 0.016 0.031 0.027 0.055 0.051 0.973 0.977 2.535 0.977 3.512 0 0.973 -0.98 0.973 -2.566 0 -3.535 -0.02 -0.016 -0.035 -0.035 -0.055 -0.051 0.02 -0.023 0.055 -0.02 0.078 -0.027 1.191 -0.691 1.598 -2.211 0.91 -3.406 -0.559 -0.961 -1.648 -1.391 -2.684 -1.168 -0.32 -1 -1.254 -1.742 -2.363 -1.742" style="fill:#e5dd60;fill-opacity:1;stroke:none;fill-rule:nonzero"/>
    </g>
   </g>
  </g>
  <path d="m 19 14 l -7 7 l 4.5 0 c 1.385 0 2.5 -1.115 2.5 -2.5 l 0 -4.5 z" style="fill:#809495;opacity:1;fill-opacity:1;stroke:none"/>
  <circle r="2" cy="24" cx="25" style="fill:#b27804;opacity:1;fill-opacity:1;stroke:none"/>
 </g>
</svg>
