<svg xmlns="http://www.w3.org/2000/svg" viewBox="0 0 48 48">
 <defs>
  <linearGradient id="linearGradient3764" x1="1" x2="47" gradientUnits="userSpaceOnUse" gradientTransform="matrix(0,-1,1,0,-1.5e-6,47.999998)">
   <stop style="stop-color:#e4e4e4;stop-opacity:1"/>
   <stop offset="1" style="stop-color:#eee;stop-opacity:1"/>
  </linearGradient>
  <linearGradient id="linearGradient4179" y1="37" x2="0" y2="11" gradientUnits="userSpaceOnUse">
   <stop style="stop-color:#b4b4b4;stop-opacity:1"/>
   <stop offset="1" style="stop-color:#bebebe;stop-opacity:1"/>
  </linearGradient>
 </defs>
 <g>
  <path d="m 36.31 5 c 5.859 4.062 9.688 10.831 9.688 18.5 c 0 12.426 -10.07 22.5 -22.5 22.5 c -7.669 0 -14.438 -3.828 -18.5 -9.688 c 1.037 1.822 2.306 3.499 3.781 4.969 c 4.085 3.712 9.514 5.969 15.469 5.969 c 12.703 0 23 -10.298 23 -23 c 0 -5.954 -2.256 -11.384 -5.969 -15.469 c -1.469 -1.475 -3.147 -2.744 -4.969 -3.781 z m 4.969 3.781 c 3.854 4.113 6.219 9.637 6.219 15.719 c 0 12.703 -10.297 23 -23 23 c -6.081 0 -11.606 -2.364 -15.719 -6.219 c 4.16 4.144 9.883 6.719 16.219 6.719 c 12.703 0 23 -10.298 23 -23 c 0 -6.335 -2.575 -12.06 -6.719 -16.219 z" style="opacity:0.05"/>
  <path d="m 41.28 8.781 c 3.712 4.085 5.969 9.514 5.969 15.469 c 0 12.703 -10.297 23 -23 23 c -5.954 0 -11.384 -2.256 -15.469 -5.969 c 4.113 3.854 9.637 6.219 15.719 6.219 c 12.703 0 23 -10.298 23 -23 c 0 -6.081 -2.364 -11.606 -6.219 -15.719 z" style="opacity:0.1"/>
  <path d="m 31.25 2.375 c 8.615 3.154 14.75 11.417 14.75 21.13 c 0 12.426 -10.07 22.5 -22.5 22.5 c -9.708 0 -17.971 -6.135 -21.12 -14.75 a 23 23 0 0 0 44.875 -7 a 23 23 0 0 0 -16 -21.875 z" style="opacity:0.2"/>
 </g>
 <g>
  <path d="m 24 1 c 12.703 0 23 10.297 23 23 c 0 12.703 -10.297 23 -23 23 -12.703 0 -23 -10.297 -23 -23 0 -12.703 10.297 -23 23 -23 z" style="fill:url(#linearGradient3764);fill-opacity:1"/>
 </g>
 <g>
  <path d="m 40.03 7.531 c 3.712 4.084 5.969 9.514 5.969 15.469 0 12.703 -10.297 23 -23 23 c -5.954 0 -11.384 -2.256 -15.469 -5.969 4.178 4.291 10.01 6.969 16.469 6.969 c 12.703 0 23 -10.298 23 -23 0 -6.462 -2.677 -12.291 -6.969 -16.469 z" style="opacity:0.1"/>
 </g>
 <rect rx="1.5" y="12" x="12" height="26" width="26" style="fill:#000;fill-opacity:0.098"/>
 <g transform="translate(0,-1.4111914e-6)">
  <rect rx="1.5" y="11" x="11" height="26" width="26" style="fill:url(#linearGradient4179);fill-opacity:1"/>
  <g>
   <rect width="18" height="5" x="15" y="15" rx="1" style="fill:#f0f0f0;fill-opacity:1"/>
   <rect rx="1" y="22" x="15" height="5" width="18" style="fill:#f0f0f0;fill-opacity:1"/>
   <rect width="18" height="5" x="15" y="29" rx="1" style="fill:#649eda;fill-opacity:1"/>
   <rect width="0.5" height="5" x="27.75" y="22" rx="0" style="fill:#7d7d7d;fill-opacity:0.392"/>
   <rect width="0.5" height="5" x="22.75" y="22" rx="0" style="fill:#7d7d7d;fill-opacity:0.392"/>
   <g transform="scale(1.0140751,0.98612025)" style="fill:#000;fill-opacity:1;stroke:none">
    <path d="m 21.306 30.422 c -0.965 0 -1.583 0.657 -1.583 1.515 0 0.845 0.588 1.528 1.553 1.528 0.275 0 0.596 -0.064 0.91 -0.197 l 0.077 -0.03 -0.172 -0.425 -0.077 0.03 c -0.227 0.09 -0.455 0.137 -0.644 0.137 -0.695 0 -1.107 -0.416 -1.107 -1.047 0 -0.566 0.386 -1.043 1.03 -1.043 0.137 0 0.348 0 0.674 0.12 l 0.082 0.03 0.172 -0.421 -0.077 -0.03 c -0.313 -0.124 -0.605 -0.167 -0.837 -0.167 z" style="fill:#f0f0f0"/>
    <path d="m 23.896 30.92 c 0.27 0 0.511 0.069 0.751 0.163 l 0.167 -0.481 -0.051 -0.021 c -0.12 -0.039 -0.412 -0.159 -0.884 -0.159 -0.682 0 -1.111 0.352 -1.111 0.837 0 1.047 1.613 0.772 1.6 1.339 0 0.215 -0.262 0.369 -0.648 0.369 -0.163 0 -0.425 -0.047 -0.811 -0.189 l -0.082 -0.034 -0.18 0.485 0.077 0.026 c 0.287 0.112 0.575 0.21 0.953 0.21 0.918 0 1.236 -0.455 1.236 -0.867 0 -1.026 -1.6 -0.807 -1.6 -1.317 0 -0.215 0.223 -0.36 0.584 -0.36 z" style="fill:#f0f0f0"/>
    <path d="m 26.594 30.92 c 0.27 0 0.511 0.069 0.751 0.163 l 0.167 -0.481 -0.051 -0.021 c -0.12 -0.039 -0.412 -0.159 -0.884 -0.159 -0.682 0 -1.111 0.352 -1.111 0.837 0 1.047 1.613 0.772 1.6 1.339 0 0.215 -0.262 0.369 -0.648 0.369 -0.163 0 -0.425 -0.047 -0.811 -0.189 l -0.082 -0.034 -0.18 0.485 0.077 0.026 c 0.287 0.112 0.575 0.21 0.953 0.21 0.918 0 1.236 -0.455 1.236 -0.867 0 -1.026 -1.6 -0.807 -1.6 -1.317 0 -0.215 0.223 -0.36 0.584 -0.36 z" style="fill:#f0f0f0"/>
   </g>
   <rect rx="0" y="15" x="27.75" height="5" width="0.5" style="fill:#7d7d7d;fill-opacity:0.392"/>
   <g style="fill:#646464;fill-opacity:1">
    <rect rx="0" y="23.5" x="30.17" height="2" width="0.667"/>
    <rect rx="0" y="24.17" x="29.5" height="0.667" width="2"/>
    <g transform="scale(0.99258419,1.0074712)" style="stroke:none">
     <path d="m 16.27 23.539 c 0.242 -0.104 0.476 -0.221 0.768 -0.221 0.368 0 0.505 0.146 0.505 0.38 0 0.368 -0.455 0.785 -0.873 1.224 -0.217 0.226 -0.393 0.376 -0.547 0.522 l 0 0.363 2.01 0 0 -0.493 -1.184 0 c 0.547 -0.56 1.107 -1.078 1.107 -1.65 0 -0.472 -0.322 -0.835 -1.019 -0.835 -0.393 0 -0.718 0.159 -0.919 0.263 z"/>
     <path d="m 19.891 23.31 c 0.305 0 0.752 0.221 0.752 0.986 0 0.806 -0.451 1.036 -0.752 1.036 -0.305 0 -0.756 -0.23 -0.756 -1.048 0 -0.752 0.455 -0.973 0.756 -0.973 z m 0 -0.48 c -0.535 0 -1.27 0.33 -1.27 1.453 0 1.174 0.727 1.524 1.27 1.524 0.539 0 1.265 -0.342 1.265 -1.52 0 -1.128 -0.727 -1.458 -1.265 -1.458 z"/>
    </g>
    <rect width="2" height="0.667" x="24.5" y="24.17" rx="0"/>
    <path d="m 29.3 17.1 c 0.4 0.4 0.8 0.8 1.2 1.2 0.4 -0.4 0.8 -0.8 1.2 -1.2 l -0.4 -0.4 -0.8 0.8 -0.8 -0.8"/>
    <g transform="scale(0.93467351,1.0698923)" style="stroke:none">
     <path d="m 17.435 15.656 0 0.154 -0.317 0 0 0.368 0.317 0 0 1.58 0.475 0 0 -1.58 0.717 0 0 -0.368 -0.717 0 0 -0.17 c 0 -0.182 0.162 -0.301 0.42 -0.301 0.115 0 0.242 0.028 0.297 0.04 l 0.079 0.02 0.071 -0.341 -0.067 -0.024 c -0.234 -0.071 -0.392 -0.079 -0.495 -0.079 -0.689 0 -0.78 0.491 -0.78 0.701 z"/>
     <path d="m 19.734 16.14 c 0.269 0 0.491 0.218 0.491 0.626 0 0.408 -0.218 0.614 -0.491 0.614 -0.269 0 -0.491 -0.21 -0.491 -0.614 0 -0.404 0.226 -0.626 0.491 -0.626 z m 0 1.616 c 0.598 0 0.982 -0.4 0.982 -0.994 0 -0.598 -0.376 -0.994 -0.978 -0.994 -0.598 0 -0.982 0.4 -0.982 0.998 0 0.594 0.38 0.99 0.978 0.99 z"/>
     <path d="m 21.969 16.14 c 0.269 0 0.491 0.218 0.491 0.626 0 0.408 -0.218 0.614 -0.491 0.614 -0.269 0 -0.491 -0.21 -0.491 -0.614 0 -0.404 0.226 -0.626 0.491 -0.626 z m 0 1.616 c 0.598 0 0.982 -0.4 0.982 -0.994 0 -0.598 -0.376 -0.994 -0.978 -0.994 -0.598 0 -0.982 0.4 -0.982 0.998 0 0.594 0.38 0.99 0.978 0.99 z"/>
     <path d="m 23.326 14.971 0 2.749 0.341 0 0.036 -0.103 c 0.131 0.067 0.305 0.143 0.511 0.143 0.622 0 0.974 -0.38 0.974 -0.994 0 -0.733 -0.503 -0.994 -0.931 -0.994 -0.17 0 -0.325 0.032 -0.455 0.083 l 0 -0.883 -0.475 0 z m 0.82 1.176 c 0.317 0 0.554 0.15 0.554 0.646 0 0.448 -0.253 0.602 -0.57 0.602 -0.135 0 -0.242 -0.044 -0.329 -0.095 l 0 -1.089 c 0.127 -0.048 0.242 -0.063 0.345 -0.063 z"/>
     <path d="m 26.25 15.771 c -0.329 0 -0.491 0.079 -0.63 0.127 l 0 0.364 c 0.174 -0.071 0.333 -0.131 0.527 -0.131 0.392 0 0.483 0.107 0.483 0.432 l -0.368 0.02 c -0.511 0.032 -0.796 0.234 -0.796 0.61 0 0.333 0.253 0.566 0.669 0.566 0.23 0 0.412 -0.071 0.562 -0.166 l 0.051 0.127 0.38 0 0 -1.172 c 0 -0.448 -0.178 -0.776 -0.879 -0.776 z m 0.404 1.525 c -0.103 0.063 -0.194 0.111 -0.396 0.111 -0.198 0 -0.321 -0.095 -0.321 -0.246 0 -0.15 0.119 -0.238 0.376 -0.253 l 0.341 -0.02 0 0.408 z"/>
     <path d="m 27.976 15.941 -0.063 -0.131 -0.333 0 0 1.949 0.475 0 0 -1.513 c 0.131 -0.04 0.281 -0.071 0.436 -0.071 0.119 0 0.246 0.02 0.364 0.071 l 0.032 0 0 -0.4 c -0.111 -0.051 -0.23 -0.075 -0.349 -0.075 -0.198 0 -0.4 0.067 -0.562 0.17 z"/>
    </g>
   </g>
  </g>
 </g>
</svg>
