<svg version="1.1" viewBox="0 0 48 48" xmlns="http://www.w3.org/2000/svg">
 <defs>
  <linearGradient id="bg" x2="0" y1="1" y2="47" gradientUnits="userSpaceOnUse">
   <stop style="stop-color:#4d4d4d" offset="0"/>
   <stop style="stop-color:#424242" offset="1"/>
  </linearGradient>
 </defs>
 <path d="m36.31 5c5.859 4.062 9.688 10.831 9.688 18.5 0 12.426-10.07 22.5-22.5 22.5-7.669 0-14.438-3.828-18.5-9.688 1.037 1.822 2.306 3.499 3.781 4.969 4.085 3.712 9.514 5.969 15.469 5.969 12.703 0 23-10.298 23-23 0-5.954-2.256-11.384-5.969-15.469-1.469-1.475-3.147-2.744-4.969-3.781zm4.969 3.781c3.854 4.113 6.219 9.637 6.219 15.719 0 12.703-10.297 23-23 23-6.081 0-11.606-2.364-15.719-6.219 4.16 4.144 9.883 6.719 16.219 6.719 12.703 0 23-10.298 23-23 0-6.335-2.575-12.06-6.719-16.219z" style="opacity:.05"/>
 <path d="m41.28 8.781c3.712 4.085 5.969 9.514 5.969 15.469 0 12.703-10.297 23-23 23-5.954 0-11.384-2.256-15.469-5.969 4.113 3.854 9.637 6.219 15.719 6.219 12.703 0 23-10.298 23-23 0-6.081-2.364-11.606-6.219-15.719z" style="opacity:.1"/>
 <path d="m31.25 2.375c8.615 3.154 14.75 11.417 14.75 21.13 0 12.426-10.07 22.5-22.5 22.5-9.708 0-17.971-6.135-21.12-14.75a23 23 0 0 0 44.875-7 23 23 0 0 0-16-21.875z" style="opacity:.2"/>
 <circle cx="24" cy="24" r="23" style="fill:url(#bg)"/>
 <path d="m40.03 7.531c3.712 4.084 5.969 9.514 5.969 15.469 0 12.703-10.297 23-23 23-5.954 0-11.384-2.256-15.469-5.969 4.178 4.291 10.01 6.969 16.469 6.969 12.703 0 23-10.298 23-23 0-6.462-2.677-12.291-6.969-16.469z" style="opacity:.1"/>
 <path d="m13 16 14-4 10 6v14l-15 6-9-8z" style="opacity:.1"/>
 <path d="m12 15 14-4 10 6v14l-15 6-9-8z" style="fill:#f9f9f9"/>
 <path d="m35 17.844-13 4.1562v13.523l12.299-4.9199-8.8633-5.0645 0.83789-0.67383 8.7266 4.9883z" style="fill:#3aae32"/>
 <path d="m13 16.295v11.889l5-1.4824v1.041l-4.4316 1.3145 7.4316 6.6055v-5.6621l0.5-4-0.5-4.1992z" style="fill:#ce1d1d"/>
 <path d="m26 12.166v3.834h-1v-3.6758l-11.32 3.2363 7.9199 5.4395h0.40039l4.6387-1 2.3613-1.3633 5.1465-1.582z" style="fill:#28079d"/>
 <path d="m25 16v3.9023l-3 0.94726v-3.8496h-1v4.166l-3 0.94922v1.1523l3-0.94922v3.4414l-3 0.88867v1.1465l3-0.88867v3.0938h1v-3.3906l3-0.88672v3.2773h1v-3.5742l3-0.88867v-1.1484l-3 0.88867v-3.5391l3-0.94922v-1.1523l-3 0.94922v-3.5859h-1zm0 5.0547v3.5195l-3 0.88867v-3.4609l3-0.94726z" style="fill:#e4ba21"/>
 <path d="m12 29 27-8" style="fill:#ff0"/>
 <path d="m25 16-1 1h-3v4.4336l-3 0.94922v7.752l3-0.88867v2.7539h3v-2h1v1.0001h3v-3.8281l3-0.88867v-3.2344l-3 0.88867v-1.4668l3-0.94922v-3.25l-3 0.94922v-3.2207z" style="opacity:.1"/>
 <path d="m24 15v4.1699l-1 0.31641v-3.4863h-3v4.4336l-3 0.94922v3.25l3-0.94922v1.3301l-3 0.88867v3.2324l3-0.88867v2.7539h3v-3.6426l1-0.29688v2.9395h3v-3.8281l3-0.88867v-3.2344l-3 0.88867v-1.4668l3-0.94922v-3.25l-3 0.94922v-3.2207h-3zm0 7.418v1.4102l-1 0.29688v-1.3906l1-0.31641z" style="fill:#f9f9f9"/>
</svg>
