<svg version="1.1" viewBox="0 0 48 48" xmlns="http://www.w3.org/2000/svg">
 <defs>
  <linearGradient id="bg" x2="0" y1="1" y2="47" gradientUnits="userSpaceOnUse">
   <stop style="stop-color:#474747" offset="0"/>
   <stop style="stop-color:#3d3d3d" offset="1"/>
  </linearGradient>
 </defs>
 <path d="m36.31 5c5.859 4.062 9.688 10.831 9.688 18.5 0 12.426-10.07 22.5-22.5 22.5-7.669 0-14.438-3.828-18.5-9.688 1.037 1.822 2.306 3.499 3.781 4.969 4.085 3.712 9.514 5.969 15.469 5.969 12.703 0 23-10.298 23-23 0-5.954-2.256-11.384-5.969-15.469-1.469-1.475-3.147-2.744-4.969-3.781zm4.969 3.781c3.854 4.113 6.219 9.637 6.219 15.719 0 12.703-10.297 23-23 23-6.081 0-11.606-2.364-15.719-6.219 4.16 4.144 9.883 6.719 16.219 6.719 12.703 0 23-10.298 23-23 0-6.335-2.575-12.06-6.719-16.219z" style="opacity:.05"/>
 <path d="m41.28 8.781c3.712 4.085 5.969 9.514 5.969 15.469 0 12.703-10.297 23-23 23-5.954 0-11.384-2.256-15.469-5.969 4.113 3.854 9.637 6.219 15.719 6.219 12.703 0 23-10.298 23-23 0-6.081-2.364-11.606-6.219-15.719z" style="opacity:.1"/>
 <path d="m31.25 2.375c8.615 3.154 14.75 11.417 14.75 21.13 0 12.426-10.07 22.5-22.5 22.5-9.708 0-17.971-6.135-21.12-14.75a23 23 0 0 0 44.875-7 23 23 0 0 0-16-21.875z" style="opacity:.2"/>
 <circle cx="24" cy="24" r="23" style="fill:url(#bg)"/>
 <path d="m40.03 7.531c3.712 4.084 5.969 9.514 5.969 15.469 0 12.703-10.297 23-23 23-5.954 0-11.384-2.256-15.469-5.969 4.178 4.291 10.01 6.969 16.469 6.969 12.703 0 23-10.298 23-23 0-6.462-2.677-12.291-6.969-16.469z" style="opacity:.1"/>
 <path d="m20 12.001v6h-0.785l-3.473-3-2.742 2.91 4.492 3.703c-0.306 0.249-0.492 0.554-0.492 0.887 0 0.547 0.493 1.021 1.223 1.283l-1.475 1.217h-1.748l0.658 0.9-2.658 2.193 2.742 2.906 2.232-1.928 0.775 1.059v1.869h1.365l4.385 6 2.422-3h10.08v-4h-5.75v-1.359l3.746-4.641h-3.746v-1.076c1.013-0.192 1.75-0.753 1.75-1.424 0-0.67-0.737-1.232-1.75-1.424v-3.076h-1.5v3.076c-0.274 0.052-0.526 0.129-0.75 0.23v-9.307h-9z" style="opacity:.1"/>
 <path d="m14 24.001h5v-13h9v13h5.996l-10.496 13" style="fill:#7d7d7d"/>
 <path d="m14.742 14.001-2.7422 2.9102 6.1719 5.0898-6.1719 5.0938 2.7422 2.9062 9.2617-8zm9.2578 16v4h12v-4z" style="fill:#f9f9f9"/>
 <path d="m23 16v11.076c-1.0128 0.192-1.5 0.75444-1.5 1.4248s0.48721 1.2308 1.5 1.4228v2.0762h2v-2.0762c1.0128-0.192 1.5-0.75244 1.5-1.4228s-0.48721-1.2328-1.5-1.4248v-11.076zm-5 1v3.0762c-1.0128 0.192-2 0.75444-2 1.4248s0.98721 1.2308 2 1.4228v8.0762h1v-8.0762c1.0128-0.192 2-0.75244 2-1.4228s-0.98721-1.2328-2-1.4248v-3.0762zm11 0v3.0762c-1.0128 0.192-2 0.75444-2 1.4248s0.98721 1.2308 2 1.4228v8.0762h1v-8.0762c1.0128-0.192 2-0.75244 2-1.4228s-0.98721-1.2328-2-1.4248v-3.0762z" style="fill:#19c700"/>
</svg>
