<svg version="1.1" viewBox="0 0 48 48" xmlns="http://www.w3.org/2000/svg">
 <defs>
  <linearGradient id="bg-5" x1="1" x2="47" gradientTransform="rotate(-90 24 24)" gradientUnits="userSpaceOnUse">
   <stop style="stop-color:#e4e4e4" offset="0"/>
   <stop style="stop-color:#eee" offset="1"/>
  </linearGradient>
 </defs>
 <path d="m36.3 5c5.86 4.06 9.69 10.8 9.69 18.5 0 12.4-10.1 22.5-22.5 22.5-7.67 0-14.4-3.83-18.5-9.69 1.04 1.82 2.31 3.5 3.78 4.97 4.08 3.71 9.51 5.97 15.5 5.97 12.7 0 23-10.3 23-23 0-5.95-2.26-11.4-5.97-15.5-1.47-1.48-3.15-2.74-4.97-3.78zm4.97 3.78c3.85 4.11 6.22 9.64 6.22 15.7 0 12.7-10.3 23-23 23-6.08 0-11.6-2.36-15.7-6.22 4.16 4.14 9.88 6.72 16.2 6.72 12.7 0 23-10.3 23-23 0-6.34-2.58-12.1-6.72-16.2z" style="opacity:.05"/>
 <path d="m41.3 8.78c3.71 4.08 5.97 9.51 5.97 15.5 0 12.7-10.3 23-23 23-5.95 0-11.4-2.26-15.5-5.97 4.11 3.85 9.64 6.22 15.7 6.22 12.7 0 23-10.3 23-23 0-6.08-2.36-11.6-6.22-15.7z" style="opacity:.1"/>
 <path d="m31.2 2.38c8.62 3.15 14.8 11.4 14.8 21.1 0 12.4-10.1 22.5-22.5 22.5-9.71 0-18-6.14-21.1-14.8a23 23 0 0 0 44.9-7 23 23 0 0 0-16-21.9z" style="opacity:.2"/>
 <path d="m24 1c12.7 0 23 10.3 23 23s-10.3 23-23 23-23-10.3-23-23 10.3-23 23-23z" style="fill:url(#bg-5)"/>
 <path d="m40 7.53c3.71 4.08 5.97 9.51 5.97 15.5 0 12.7-10.3 23-23 23-5.95 0-11.4-2.26-15.5-5.97 4.18 4.29 10 6.97 16.5 6.97 12.7 0 23-10.3 23-23 0-6.46-2.68-12.3-6.97-16.5z" style="opacity:.1"/>
 <path d="m25 14c-2 0-7 0-9 2-4 4-2 9 0 13s6 9 9 9 7-5 9-9 4-9 0-13c-2-2-7-2-9-2z" style="opacity:.1"/>
 <path d="m24 13c-2 0-7 0-9 2-4 4-2 9 0 13s6 9 9 9 7-5 9-9 4-9 0-13c-2-2-7-2-9-2z" style="fill:#474747"/>
 <path d="m26.4 17c-2.46 0.032-4.31 0.721-5.56 2.07-1.24 1.34-1.86 3.28-1.86 5.82v0.672c0 1.6 0.472 2.91 1.41 3.92 0.941 1.01 2.17 1.52 3.68 1.52 1.49 0 2.68-0.426 3.57-1.28 0.891-0.853 1.34-1.99 1.34-3.41 0-1.34-0.412-2.43-1.24-3.28-0.819-0.847-1.92-1.27-3.29-1.27-1.44 0-2.64 0.416-3.47 1.25 0.145-1.42 0.737-2.52 1.66-3.31 0.927-0.783 2.17-1.19 3.74-1.21h0.598v-1.49m-2.87 6.22c0.87 0 1.56 0.293 2.09 0.881 0.529 0.581 0.783 1.35 0.783 2.29 0 0.942-0.25 1.7-0.771 2.28-0.514 0.581-1.22 0.871-2.13 0.871-0.877 0-1.61-0.348-2.2-1.04-0.587-0.695-0.902-1.61-0.902-2.75v-0.643c0.224-0.543 0.649-0.995 1.23-1.36s1.21-0.541 1.9-0.541z" style="fill-opacity:.941;fill:#e27c6f"/>
</svg>
