<svg version="1.1" viewBox="0 0 48 48" xmlns="http://www.w3.org/2000/svg">
 <defs>
  <linearGradient id="bg" x2="0" y1="1" y2="47" gradientUnits="userSpaceOnUse">
   <stop style="stop-color:#474747" offset="0"/>
   <stop style="stop-color:#3d3d3d" offset="1"/>
  </linearGradient>
 </defs>
 <path d="m36.31 5c5.859 4.062 9.688 10.831 9.688 18.5 0 12.426-10.07 22.5-22.5 22.5-7.669 0-14.438-3.828-18.5-9.688 1.037 1.822 2.306 3.499 3.781 4.969 4.085 3.712 9.514 5.969 15.469 5.969 12.703 0 23-10.298 23-23 0-5.954-2.256-11.384-5.969-15.469-1.469-1.475-3.147-2.744-4.969-3.781zm4.969 3.781c3.854 4.113 6.219 9.637 6.219 15.719 0 12.703-10.297 23-23 23-6.081 0-11.606-2.364-15.719-6.219 4.16 4.144 9.883 6.719 16.219 6.719 12.703 0 23-10.298 23-23 0-6.335-2.575-12.06-6.719-16.219z" style="opacity:.05"/>
 <path d="m41.28 8.781c3.712 4.085 5.969 9.514 5.969 15.469 0 12.703-10.297 23-23 23-5.954 0-11.384-2.256-15.469-5.969 4.113 3.854 9.637 6.219 15.719 6.219 12.703 0 23-10.298 23-23 0-6.081-2.364-11.606-6.219-15.719z" style="opacity:.1"/>
 <path d="m31.25 2.375c8.615 3.154 14.75 11.417 14.75 21.13 0 12.426-10.07 22.5-22.5 22.5-9.708 0-17.971-6.135-21.12-14.75a23 23 0 0 0 44.875-7 23 23 0 0 0-16-21.875z" style="opacity:.2"/>
 <circle cx="24" cy="24" r="23" style="fill:url(#bg)"/>
 <path d="m40.03 7.531c3.712 4.084 5.969 9.514 5.969 15.469 0 12.703-10.297 23-23 23-5.954 0-11.384-2.256-15.469-5.969 4.178 4.291 10.01 6.969 16.469 6.969 12.703 0 23-10.298 23-23 0-6.462-2.677-12.291-6.969-16.469z" style="opacity:.1"/>
 <path d="m14.442 33.826c0.68439 1.3347 2.0587 2.1738 3.5586 2.1738h14c1.4999 0 2.8742-0.83914 3.5586-2.1738l2-3.9004c0.62024-1.2096 0.58493-2.6515-0.0957-3.8281l-7-12.102c-0.71491-1.2359-2.0351-1.9961-3.4629-1.9961zm10.559-13.297 4.3203 7.4707h-8.6406z" style="opacity:.1"/>
 <path d="m22 11c-0.90048 0-1.7572 0.30452-2.4473 0.83789l0.44727 6.1621 4 1.5293 5-1.5293-0.55273-6.1621c-0.69003-0.53338-1.5468-0.83789-2.4473-0.83789z" style="fill:#0d8c37"/>
 <path d="m19.553 11.838c-0.40408 0.31234-0.75159 0.70175-1.0156 1.1582l-7 12.102c-0.34032 0.58834-0.51878 1.2436-0.53516 1.9023l3.998 2 4.6797-2 4.3203-7.4707z" style="fill:#34a753"/>
 <path d="m11.002 27c-0.01638 0.65875 0.12933 1.321 0.43945 1.9258l2 3.9004c0.4076 0.79489 1.0601 1.4124 1.8379 1.7832l4.7207-2.6094-0.32031-5z" style="fill:#1271de"/>
 <path d="m19.68 27-4.4004 7.6094c0.5282 0.25179 1.1141 0.39062 1.7207 0.39062h14c0.60724 0 1.1921-0.14031 1.7207-0.39258l0.2793-4.6074-4.6797-3z" style="fill:#4c88f0"/>
 <path d="m28.321 27 4.4004 7.6074c0.7771-0.37086 1.4306-0.9869 1.8379-1.7812l2-3.9004c0.31012-0.6048 0.45583-1.267 0.43945-1.9258l-4.998-3z" style="fill:#ed6459"/>
 <path d="m28.448 11.838-4.4473 7.6914 4.3203 7.4707h8.6777c-0.01638-0.65875-0.19484-1.314-0.53516-1.9023l-7-12.102c-0.26403-0.45646-0.61155-0.84586-1.0156-1.1582z" style="fill:#f3c716"/>
</svg>
