<svg version="1.1" viewBox="0 0 48 48" xmlns="http://www.w3.org/2000/svg">
 <defs>
  <linearGradient id="bg" x2="0" y1="1" y2="47" gradientUnits="userSpaceOnUse">
   <stop style="stop-color:#4c4c4c" offset="0"/>
   <stop style="stop-color:#424242" offset="1"/>
  </linearGradient>
 </defs>
 <path d="m36.3 5c5.86 4.06 9.69 10.8 9.69 18.5 0 12.4-10.1 22.5-22.5 22.5-7.67 0-14.4-3.83-18.5-9.69 1.04 1.82 2.31 3.5 3.78 4.97 4.08 3.71 9.51 5.97 15.5 5.97 12.7 0 23-10.3 23-23 0-5.95-2.26-11.4-5.97-15.5-1.47-1.48-3.15-2.74-4.97-3.78zm4.97 3.78c3.85 4.11 6.22 9.64 6.22 15.7 0 12.7-10.3 23-23 23-6.08 0-11.6-2.36-15.7-6.22 4.16 4.14 9.88 6.72 16.2 6.72 12.7 0 23-10.3 23-23 0-6.34-2.58-12.1-6.72-16.2z" style="opacity:.05"/>
 <path d="m41.3 8.78c3.71 4.08 5.97 9.51 5.97 15.5 0 12.7-10.3 23-23 23-5.95 0-11.4-2.26-15.5-5.97 4.11 3.85 9.64 6.22 15.7 6.22 12.7 0 23-10.3 23-23 0-6.08-2.36-11.6-6.22-15.7z" style="opacity:.1"/>
 <path d="m31.2 2.38c8.62 3.15 14.8 11.4 14.8 21.1 0 12.4-10.1 22.5-22.5 22.5-9.71 0-18-6.14-21.1-14.8a23 23 0 0 0 44.9-7 23 23 0 0 0-16-21.9z" style="opacity:.2"/>
 <circle cx="24" cy="24" r="23" style="fill:url(#bg)"/>
 <path d="m40 7.53c3.71 4.08 5.97 9.51 5.97 15.5 0 12.7-10.3 23-23 23-5.95 0-11.4-2.26-15.5-5.97 4.18 4.29 10 6.97 16.5 6.97 12.7 0 23-10.3 23-23 0-6.46-2.68-12.3-6.97-16.5z" style="opacity:.1"/>
 <path d="m25 12-11 3v4h6l-2.26-2.26c1.94-1.7 4.47-2.74 7.26-2.74s5.32 1.04 7.26 2.74l-2.26 2.26h6v-6l-2.32 2.32zm2e-3 6-3 3h2l-2e-3 3h-3v-2l-3 3 3 3v-2h3v3h-2l3 3 3-3h-2v-3h3v2l3-3-3-3v2h-3v-3l2-2e-3zm-11 13v6l2.32-2.32c2.3 2.06 5.34 3.32 8.68 3.32 3.34 0 6.37-1.26 8.67-3.33l2.33 2.33v-6h-1l-10 5-8-2 3-3z" style="opacity:.1"/>
 <path d="m24 11c-3.34 0-6.37 1.26-8.67 3.33l-2.33-2.33v6h6l-2.26-2.26c1.94-1.7 4.47-2.74 7.26-2.74s5.32 1.04 7.26 2.74l-2.26 2.26h6v-6l-2.32 2.32c-2.3-2.06-5.34-3.32-8.68-3.32zm2e-3 6-3 3h2l-2e-3 3h-3v-2l-3 3 3 3v-2h3v3h-2l3 3 3-3h-2v-3h3v2l3-3-3-3v2h-3v-3l2-2e-3zm-11 13v6l2.32-2.32c2.3 2.06 5.34 3.32 8.68 3.32 3.34 0 6.37-1.26 8.67-3.33l2.33 2.33v-6h-6l2.26 2.26c-1.94 1.7-4.47 2.74-7.26 2.74s-5.32-1.04-7.26-2.74l2.26-2.26z" style="fill:#e1eff4"/>
</svg>
