<svg xmlns="http://www.w3.org/2000/svg" version="1.1" xmlns:xlink="http://www.w3.org/1999/xlink" viewBox="0 0 48 48">
 <defs>
  <linearGradient id="linearGradient904" y2="24" gradientUnits="userSpaceOnUse" x2="47" gradientTransform="rotate(-90,24,24)" y1="24" x1="1">
   <stop style="stop-color:#1e3a81" offset="0"/>
   <stop style="stop-color:#224292" offset="1"/>
  </linearGradient>
 </defs>
 <path style="opacity:.05" d="m36.31 5c5.859 4.062 9.688 10.831 9.688 18.5 0 12.426-10.07 22.5-22.5 22.5-7.669 0-14.438-3.828-18.5-9.688 1.037 1.822 2.306 3.499 3.781 4.969 4.085 3.712 9.514 5.969 15.469 5.969 12.703 0 23-10.298 23-23 0-5.954-2.256-11.384-5.969-15.469-1.469-1.475-3.147-2.744-4.969-3.781zm4.969 3.781c3.854 4.113 6.219 9.637 6.219 15.719 0 12.703-10.297 23-23 23-6.081 0-11.606-2.364-15.719-6.219 4.16 4.144 9.883 6.719 16.219 6.719 12.703 0 23-10.298 23-23 0-6.335-2.575-12.06-6.719-16.219z"/>
 <path style="opacity:.1" d="m41.28 8.781c3.712 4.085 5.969 9.514 5.969 15.469 0 12.703-10.297 23-23 23-5.954 0-11.384-2.256-15.469-5.969 4.113 3.854 9.637 6.219 15.719 6.219 12.703 0 23-10.298 23-23 0-6.081-2.364-11.606-6.219-15.719z"/>
 <path style="opacity:.2" d="m31.25 2.375c8.615 3.154 14.75 11.417 14.75 21.13 0 12.426-10.07 22.5-22.5 22.5-9.708 0-17.971-6.135-21.12-14.75a23 23 0 0 0 44.875 -7 23 23 0 0 0 -16 -21.875z"/>
 <path style="fill:url(#linearGradient904)" d="m1 24c0-12.703 10.297-23 23-23s23 10.297 23 23-10.297 23-23 23-23-10.297-23-23z"/>
 <path style="opacity:.1" d="m40.03 7.531c3.712 4.084 5.969 9.514 5.969 15.469 0 12.703-10.297 23-23 23-5.954 0-11.384-2.256-15.469-5.969 4.178 4.291 10.01 6.969 16.469 6.969 12.703 0 23-10.298 23-23 0-6.462-2.677-12.291-6.969-16.469z"/>
 <path style="opacity:.1;fill-rule:evenodd" d="m16 16c-9 0-9 18 0 18h23v-5h-8.5l8.5-7v-6zm-0.5 5h15.5l-6 5v-2h-5v5h-4.5c-1.5 0-1.5-8 0-8z"/>
 <path style="fill:#9c9c9c;fill-rule:evenodd" d="m15 15c-9 0-9 18 0 18h23v-5h-8.5l8.5-7v-6h-23zm-0.5 5h15.5l-6 5v-2h-5v5h-4.5c-1.5 0-1.5-8 0-8z"/>
 <path style="fill:#dadada;fill-rule:evenodd" d="m15 16c-8 0-8 16 0 16h22v-3h-10.5l10.5-8.5v-4.5zm-0.5 3h18l-9.5 8v-3h-3v5h-5.5c-2.5 0-2.5-10 0-10z"/>
</svg>
