<svg xmlns="http://www.w3.org/2000/svg" viewBox="0 0 48 48">
 <defs>
  <linearGradient id="linearGradient3764" x1="1" x2="47" gradientUnits="userSpaceOnUse" gradientTransform="matrix(0,-1,1,0,-1.5e-6,47.999998)">
   <stop style="stop-color:#e1cd27;stop-opacity:1"/>
   <stop offset="1" style="stop-color:#e3d238;stop-opacity:1"/>
  </linearGradient>
 </defs>
 <g>
  <path d="m 36.31 5 c 5.859 4.062 9.688 10.831 9.688 18.5 c 0 12.426 -10.07 22.5 -22.5 22.5 c -7.669 0 -14.438 -3.828 -18.5 -9.688 c 1.037 1.822 2.306 3.499 3.781 4.969 c 4.085 3.712 9.514 5.969 15.469 5.969 c 12.703 0 23 -10.298 23 -23 c 0 -5.954 -2.256 -11.384 -5.969 -15.469 c -1.469 -1.475 -3.147 -2.744 -4.969 -3.781 z m 4.969 3.781 c 3.854 4.113 6.219 9.637 6.219 15.719 c 0 12.703 -10.297 23 -23 23 c -6.081 0 -11.606 -2.364 -15.719 -6.219 c 4.16 4.144 9.883 6.719 16.219 6.719 c 12.703 0 23 -10.298 23 -23 c 0 -6.335 -2.575 -12.06 -6.719 -16.219 z" style="opacity:0.05"/>
  <path d="m 41.28 8.781 c 3.712 4.085 5.969 9.514 5.969 15.469 c 0 12.703 -10.297 23 -23 23 c -5.954 0 -11.384 -2.256 -15.469 -5.969 c 4.113 3.854 9.637 6.219 15.719 6.219 c 12.703 0 23 -10.298 23 -23 c 0 -6.081 -2.364 -11.606 -6.219 -15.719 z" style="opacity:0.1"/>
  <path d="m 31.25 2.375 c 8.615 3.154 14.75 11.417 14.75 21.13 c 0 12.426 -10.07 22.5 -22.5 22.5 c -9.708 0 -17.971 -6.135 -21.12 -14.75 a 23 23 0 0 0 44.875 -7 a 23 23 0 0 0 -16 -21.875 z" style="opacity:0.2"/>
 </g>
 <g>
  <path d="m 24 1 c 12.703 0 23 10.297 23 23 c 0 12.703 -10.297 23 -23 23 -12.703 0 -23 -10.297 -23 -23 0 -12.703 10.297 -23 23 -23 z" style="fill:url(#linearGradient3764);fill-opacity:1"/>
 </g>
 <g>
  <g>
   <g transform="translate(1,1)">
    <g style="opacity:0.1">
     <!-- color: #e3d238 -->
     <g>
      <path d="m 28 12 c -2.211 0 -4 1.789 -4 4 c 0 0.516 0.107 1.01 0.285 1.459 l -4.424 4.02 c -0.558 -0.296 -1.186 -0.48 -1.861 -0.48 c -2.211 0 -4 1.789 -4 4 c 0 2.207 1.789 4 4 4 c 1 0 1.911 -0.381 2.613 -0.992 l 3.869 4.125 c -0.298 0.56 -0.482 1.189 -0.482 1.867 c 0 2.207 1.789 4 4 4 c 2.207 0 4 -1.789 4 -4 c 0 -2.207 -1.793 -4 -4 -4 c -0.839 0 -1.615 0.261 -2.258 0.701 l -3.982 -4.383 c 0.145 -0.415 0.24 -0.854 0.24 -1.318 c 0 -0.805 -0.244 -1.553 -0.654 -2.182 l 4.055 -3.801 c 0.7 0.604 1.601 0.982 2.6 0.982 c 2.207 0 4 -1.789 4 -4 c 0 -2.207 -1.793 -4 -4 -4 z" transform="translate(-1,-1)" style="fill:#000;fill-opacity:1;stroke:none;fill-rule:nonzero"/>
     </g>
    </g>
   </g>
  </g>
 </g>
 <g>
  <g>
   <!-- color: #e3d238 -->
   <g>
    <path d="m 27 11 c -2.211 0 -4 1.789 -4 4 c 0 2.207 1.789 4 4 4 c 2.207 0 4 -1.789 4 -4 c 0 -2.207 -1.793 -4 -4 -4 z m -10 9 c -2.211 0 -4 1.789 -4 4 c 0 2.207 1.789 4 4 4 c 2.207 0 4 -1.789 4 -4 c 0 -2.207 -1.793 -4 -4 -4 z m 10 9 c -2.211 0 -4 1.789 -4 4 c 0 2.207 1.789 4 4 4 c 2.207 0 4 -1.789 4 -4 c 0 -2.207 -1.793 -4 -4 -4 z" style="fill:#ec5b3c;fill-opacity:1;stroke:none;fill-rule:nonzero"/>
    <path d="m 17.898 21.355 l 6.711 -6.102 l 1.219 1.426 l -6.508 6.102 m -1.422 -1.426" style="fill:#ec5b3c;fill-opacity:1;stroke:none;fill-rule:nonzero"/>
    <path d="m 19.93 24.406 6.102 6.711 -1.422 1.219 -6.102 -6.508 m 1.422 -1.422" style="fill:#ec5b3c;fill-opacity:1;stroke:none;fill-rule:nonzero"/>
   </g>
  </g>
 </g>
 <g>
  <path d="m 40.03 7.531 c 3.712 4.084 5.969 9.514 5.969 15.469 0 12.703 -10.297 23 -23 23 c -5.954 0 -11.384 -2.256 -15.469 -5.969 4.178 4.291 10.01 6.969 16.469 6.969 c 12.703 0 23 -10.298 23 -23 0 -6.462 -2.677 -12.291 -6.969 -16.469 z" style="opacity:0.1"/>
 </g>
</svg>
