<svg xmlns="http://www.w3.org/2000/svg" viewBox="0 0 48 48">
 <defs>
  <linearGradient id="linearGradient3764" x1="1" x2="47" gradientUnits="userSpaceOnUse" gradientTransform="matrix(0,-1,1,0,-1.5e-6,47.999998)">
   <stop style="stop-color:#e4e4e4;stop-opacity:1"/>
   <stop offset="1" style="stop-color:#eee;stop-opacity:1"/>
  </linearGradient>
 </defs>
 <g>
  <path d="m 36.31 5 c 5.859 4.062 9.688 10.831 9.688 18.5 c 0 12.426 -10.07 22.5 -22.5 22.5 c -7.669 0 -14.438 -3.828 -18.5 -9.688 c 1.037 1.822 2.306 3.499 3.781 4.969 c 4.085 3.712 9.514 5.969 15.469 5.969 c 12.703 0 23 -10.298 23 -23 c 0 -5.954 -2.256 -11.384 -5.969 -15.469 c -1.469 -1.475 -3.147 -2.744 -4.969 -3.781 z m 4.969 3.781 c 3.854 4.113 6.219 9.637 6.219 15.719 c 0 12.703 -10.297 23 -23 23 c -6.081 0 -11.606 -2.364 -15.719 -6.219 c 4.16 4.144 9.883 6.719 16.219 6.719 c 12.703 0 23 -10.298 23 -23 c 0 -6.335 -2.575 -12.06 -6.719 -16.219 z" style="opacity:0.05"/>
  <path d="m 41.28 8.781 c 3.712 4.085 5.969 9.514 5.969 15.469 c 0 12.703 -10.297 23 -23 23 c -5.954 0 -11.384 -2.256 -15.469 -5.969 c 4.113 3.854 9.637 6.219 15.719 6.219 c 12.703 0 23 -10.298 23 -23 c 0 -6.081 -2.364 -11.606 -6.219 -15.719 z" style="opacity:0.1"/>
  <path d="m 31.25 2.375 c 8.615 3.154 14.75 11.417 14.75 21.13 c 0 12.426 -10.07 22.5 -22.5 22.5 c -9.708 0 -17.971 -6.135 -21.12 -14.75 a 23 23 0 0 0 44.875 -7 a 23 23 0 0 0 -16 -21.875 z" style="opacity:0.2"/>
 </g>
 <g>
  <path d="m 24 1 c 12.703 0 23 10.297 23 23 c 0 12.703 -10.297 23 -23 23 -12.703 0 -23 -10.297 -23 -23 0 -12.703 10.297 -23 23 -23 z" style="fill:url(#linearGradient3764);fill-opacity:1"/>
 </g>
 <g>
  <g>
   <g transform="translate(1,1)">
    <g style="opacity:0.1">
     <!-- color: #eeeeee -->
    </g>
   </g>
  </g>
 </g>
 <g>
  <g>
   <!-- color: #eeeeee -->
   <g>
    <path d="m 25 10 c -8.285 0 -15 6.715 -15 15 0 8.285 6.715 15 15 15 8.285 0 15 -6.715 15 -15 0 -8.285 -6.715 -15 -15 -15 z m 0 4 c 2.359 0 4.54 0.75 6.332 2.02 l -15.523 15.02 c -1.141 -1.733 -1.809 -3.806 -1.809 -6.04 0 -6.074 4.926 -11 11 -11 m 8.484 1.1 1.414 1.414 -0.707 0.703 -1.41 -1.41 z m -16.971 0.002 0.703 0.707 -1.41 1.41 -0.707 -0.703 z m 17.621 3.77 c 1.178 1.751 1.865 3.86 1.865 6.129 0 6.074 -4.926 11 -11 11 -2.398 0 -4.61 -0.777 -6.418 -2.08 l 15.553 -15.05 m -9.135 5.129 c 0.551 0 1 0.449 1 1 0 0.555 -0.449 1 -1 1 -0.551 0 -1 -0.445 -1 -1 0 -0.551 0.449 -1 1 -1 z m -9.191 8.781 1.41 1.41 -0.703 0.707 -1.414 -1.414 z" style="fill:#000;opacity:0.1;fill-opacity:1;stroke:none;fill-rule:nonzero"/>
    <path d="m 24 9 c -8.285 0 -15 6.715 -15 15 c 0 8.285 6.715 15 15 15 c 8.285 0 15 -6.715 15 -15 c 0 -8.285 -6.715 -15 -15 -15 z m 0.1 1.5 a 13.5 13.5 0 0 1 13.5 13.5 a 13.5 13.5 0 0 1 -13.5 13.5 a 13.5 13.5 0 0 1 -13.5 -13.5 a 13.5 13.5 0 0 1 13.5 -13.5 z" style="fill:#3d9ade;fill-opacity:1;stroke:none;fill-rule:nonzero"/>
    <path d="m 24 10 c -7.73 0 -14 6.27 -14 14 c 0 7.73 6.27 14 14 14 c 7.73 0 14 -6.27 14 -14 c 0 -7.73 -6.27 -14 -14 -14 z m -1 1 l 1.996 0 l 0 0.996 l -1.996 0 l 0 -0.996 z m 1 2 c 2.359 0 4.54 0.75 6.332 2.02 l -15.523 15.02 c -1.141 -1.733 -1.809 -3.806 -1.809 -6.04 c 0 -6.074 4.926 -11 11 -11 z m 8.484 1.1 l 1.414 1.414 l -0.707 0.703 l -1.41 -1.41 l 0.703 -0.707 z m -16.971 0.002 l 0.703 0.707 l -1.41 1.41 l -0.707 -0.703 l 1.414 -1.414 z m 17.621 3.77 c 1.178 1.751 1.865 3.86 1.865 6.129 c 0 6.074 -4.926 11 -11 11 c -2.398 0 -4.61 -0.777 -6.418 -2.08 l 15.553 -15.05 z m -22.13 5.129 l 0.996 0 l 0 1.996 l -0.996 0 l 0 -1.996 z m 12.996 0 c 0.551 0 1 0.449 1 1 c 0 0.555 -0.449 1 -1 1 c -0.551 0 -1 -0.445 -1 -1 c 0 -0.551 0.449 -1 1 -1 z m 12 0 l 1 0 l 0 1.996 l -1 0 l 0 -1.996 z m -2.809 8.779 l 0.707 0.703 l -1.414 1.414 l -0.703 -0.707 l 1.41 -1.41 z m -18.383 0.002 l 1.41 1.41 l -0.703 0.707 l -1.414 -1.414 l 0.707 -0.703 z m 8.191 4.219 l 1.996 0 l 0 1 l -1.996 0 l 0 -1 z" style="fill:#06c;fill-opacity:1;stroke:none;fill-rule:nonzero"/>
   </g>
  </g>
 </g>
 <g>
  <path d="m 40.03 7.531 c 3.712 4.084 5.969 9.514 5.969 15.469 0 12.703 -10.297 23 -23 23 c -5.954 0 -11.384 -2.256 -15.469 -5.969 4.178 4.291 10.01 6.969 16.469 6.969 c 12.703 0 23 -10.298 23 -23 0 -6.462 -2.677 -12.291 -6.969 -16.469 z" style="opacity:0.1"/>
 </g>
</svg>
