<svg version="1.1" viewBox="0 0 48 48" xmlns="http://www.w3.org/2000/svg">
 <defs>
  <linearGradient id="bg" x1="1" x2="47" gradientTransform="matrix(0 -1 1 0 -1.5e-6 48)" gradientUnits="userSpaceOnUse">
   <stop style="stop-color:#424242" offset="0"/>
   <stop style="stop-color:#4c4c4c" offset="1"/>
  </linearGradient>
 </defs>
 <path d="m36.31 5c5.859 4.062 9.688 10.831 9.688 18.5 0 12.426-10.07 22.5-22.5 22.5-7.669 0-14.438-3.828-18.5-9.688 1.037 1.822 2.306 3.499 3.781 4.969 4.085 3.712 9.514 5.969 15.469 5.969 12.703 0 23-10.298 23-23 0-5.954-2.256-11.384-5.969-15.469-1.469-1.475-3.147-2.744-4.969-3.781zm4.969 3.781c3.854 4.113 6.219 9.637 6.219 15.719 0 12.703-10.297 23-23 23-6.081 0-11.606-2.364-15.719-6.219 4.16 4.144 9.883 6.719 16.219 6.719 12.703 0 23-10.298 23-23 0-6.335-2.575-12.06-6.719-16.219z" style="opacity:.05"/>
 <path d="m41.28 8.781c3.712 4.085 5.969 9.514 5.969 15.469 0 12.703-10.297 23-23 23-5.954 0-11.384-2.256-15.469-5.969 4.113 3.854 9.637 6.219 15.719 6.219 12.703 0 23-10.298 23-23 0-6.081-2.364-11.606-6.219-15.719z" style="opacity:.1"/>
 <path d="m31.25 2.375c8.615 3.154 14.75 11.417 14.75 21.13 0 12.426-10.07 22.5-22.5 22.5-9.708 0-17.971-6.135-21.12-14.75a23 23 0 0 0 44.875-7 23 23 0 0 0-16-21.875z" style="opacity:.2"/>
 <path d="m24 1c12.703 0 23 10.297 23 23s-10.297 23-23 23-23-10.297-23-23 10.297-23 23-23z" style="fill:url(#bg)"/>
 <path d="m40.03 7.531c3.712 4.084 5.969 9.514 5.969 15.469 0 12.703-10.297 23-23 23-5.954 0-11.384-2.256-15.469-5.969 4.178 4.291 10.01 6.969 16.469 6.969 12.703 0 23-10.298 23-23 0-6.462-2.677-12.291-6.969-16.469z" style="opacity:.1"/>
 <path d="m13 15v2h4v-2zm0 3v2h4v-2zm11 0v2.1016a5 5 0 0 0-1.7539 0.73047l-1.4883-1.4883-1.4141 1.4141 1.4883 1.4883a5 5 0 0 0-0.72656 1.7539h-2.1055v2h2.1016a5 5 0 0 0 0.73047 1.7539l-1.4883 1.4883 1.4141 1.4141 1.4883-1.4883a5 5 0 0 0 1.7539 0.72656v2.1055h2v-2.1016a5 5 0 0 0 1.7539-0.73047l1.4883 1.4883 1.4141-1.4141-1.4883-1.4883a5 5 0 0 0 0.72656-1.7539h2.1055v-2h-2.1016a5 5 0 0 0-0.73047-1.7539l1.4883-1.4883-1.4141-1.4141-1.4883 1.4883a5 5 0 0 0-1.7539-0.72656v-2.1055zm4 0v1.1719l1.1719-1.1719zm1.3125 0 2 2h0.6875v-2zm-16.312 3v2h4v-2zm5 0v2h1.457c0.06235-0.17246 0.13111-0.33984 0.20898-0.50586l-1.4941-1.4941zm13.828 0-1.4941 1.4941c0.078251 0.16606 0.14823 0.33333 0.21094 0.50586h1.4551v-2zm1.1719 0v2h4v-2zm-8 1a3 3 0 0 1 3 3 3 3 0 0 1-3 3 3 3 0 0 1-3-3 3 3 0 0 1 3-3zm-12 2v2h4v-2zm20 0v2h4v-2zm-20 3v2h4v-2zm5 0v2h0.17188l1.4941-1.4941c-0.078251-0.16606-0.14823-0.33333-0.21094-0.50586zm12.543 0c-0.06235 0.17246-0.13111 0.33984-0.20898 0.50586l1.4941 1.4941h0.17188v-2zm2.457 0v2h4v-2zm-20 3v2h4v-2zm5 0v2h2.6875l-2-2zm13.312 0-2 2h2.6875v-2zm1.6875 0v2h4v-2zm-11 0.82812-1.1719 1.1719h1.1719zm6 0v1.1719h1.1719zm-15 2.1719v2h4v-2zm5 0v2h4v-2zm5 0v2h4v-2zm5 0v2h4v-2zm5 0v2h4v-2z" style="opacity:.1"/>
 <path d="m12 14v2h4v-2zm0 3v2h4v-2zm15 0v1.1719l1.1719-1.1719zm1.3125 0 2 2h0.6875v-2zm-16.312 3v2h4v-2zm5 0v2h1.457c0.06235-0.17246 0.13111-0.33984 0.20898-0.50586l-1.4941-1.4941zm13.828 0-1.4941 1.4941c0.078251 0.16606 0.14823 0.33333 0.21094 0.50586h1.4551v-2zm1.1719 0v2h4v-2zm-20 3v2h4v-2zm20 0v2h4v-2zm-20 3v2h4v-2zm5 0v2h0.17188l1.4941-1.4941c-0.078251-0.16606-0.14823-0.33333-0.21094-0.50586zm12.543 0c-0.06235 0.17246-0.13111 0.33984-0.20898 0.50586l1.4941 1.4941h0.17188v-2zm2.457 0v2h4v-2zm-20 3v2h4v-2zm5 0v2h2.6875l-2-2zm13.312 0-2 2h2.6875v-2zm1.6875 0v2h4v-2zm-11 0.82812-1.1719 1.1719h1.1719zm6 0v1.1719h1.1719z" style="fill:#3cbf23"/>
 <path d="m23 17v2.1016a5 5 0 0 0-1.7539 0.73047l-1.4883-1.4883-1.4141 1.4141 1.4883 1.4883a5 5 0 0 0-0.72656 1.7539h-2.1055v2h2.1016a5 5 0 0 0 0.73047 1.7539l-1.4883 1.4883 1.4141 1.4141 1.4883-1.4883a5 5 0 0 0 1.7539 0.72656v2.1055h2v-2.1016a5 5 0 0 0 1.7539-0.73047l1.4883 1.4883 1.4141-1.4141-1.4883-1.4883a5 5 0 0 0 0.72656-1.7539h2.1055v-2h-2.1016a5 5 0 0 0-0.73047-1.7539l1.4883-1.4883-1.4141-1.4141-1.4883 1.4883a5 5 0 0 0-1.7539-0.72656v-2.1055zm1 4a3 3 0 0 1 3 3 3 3 0 0 1-3 3 3 3 0 0 1-3-3 3 3 0 0 1 3-3zm-12 11v2h4v-2zm5 0v2h4v-2zm5 0v2h4v-2zm5 0v2h4v-2zm5 0v2h4v-2z" style="fill:#f2f2f2"/>
</svg>
