<svg xmlns="http://www.w3.org/2000/svg" viewBox="0 0 48 48">
 <defs>
  <linearGradient id="linearGradient3799" x1="24.716" y1="46.866" x2="24.472" y2="1.081" gradientUnits="userSpaceOnUse">
   <stop style="stop-color:#366fc4;stop-opacity:1"/>
   <stop offset="1" style="stop-color:#5a8ad2;stop-opacity:1"/>
  </linearGradient>
 </defs>
 <g>
  <path d="m 36.31 5 c 5.859 4.062 9.688 10.831 9.688 18.5 c 0 12.426 -10.07 22.5 -22.5 22.5 c -7.669 0 -14.438 -3.828 -18.5 -9.688 c 1.037 1.822 2.306 3.499 3.781 4.969 c 4.085 3.712 9.514 5.969 15.469 5.969 c 12.703 0 23 -10.298 23 -23 c 0 -5.954 -2.256 -11.384 -5.969 -15.469 c -1.469 -1.475 -3.147 -2.744 -4.969 -3.781 z m 4.969 3.781 c 3.854 4.113 6.219 9.637 6.219 15.719 c 0 12.703 -10.297 23 -23 23 c -6.081 0 -11.606 -2.364 -15.719 -6.219 c 4.16 4.144 9.883 6.719 16.219 6.719 c 12.703 0 23 -10.298 23 -23 c 0 -6.335 -2.575 -12.06 -6.719 -16.219 z" style="opacity:0.05"/>
  <path d="m 41.28 8.781 c 3.712 4.085 5.969 9.514 5.969 15.469 c 0 12.703 -10.297 23 -23 23 c -5.954 0 -11.384 -2.256 -15.469 -5.969 c 4.113 3.854 9.637 6.219 15.719 6.219 c 12.703 0 23 -10.298 23 -23 c 0 -6.081 -2.364 -11.606 -6.219 -15.719 z" style="opacity:0.1"/>
  <path d="m 31.25 2.375 c 8.615 3.154 14.75 11.417 14.75 21.13 c 0 12.426 -10.07 22.5 -22.5 22.5 c -9.708 0 -17.971 -6.135 -21.12 -14.75 a 23 23 0 0 0 44.875 -7 a 23 23 0 0 0 -16 -21.875 z" style="opacity:0.2"/>
 </g>
 <g style="fill:url(#linearGradient3799);fill-opacity:1">
  <path d="m 24 1 c 12.703 0 23 10.297 23 23 c 0 12.703 -10.297 23 -23 23 -12.703 0 -23 -10.297 -23 -23 0 -12.703 10.297 -23 23 -23 z"/>
 </g>
 <g>
  <path d="m 40.03 7.531 c 3.712 4.084 5.969 9.514 5.969 15.469 0 12.703 -10.297 23 -23 23 c -5.954 0 -11.384 -2.256 -15.469 -5.969 4.178 4.291 10.01 6.969 16.469 6.969 c 12.703 0 23 -10.298 23 -23 0 -6.462 -2.677 -12.291 -6.969 -16.469 z" style="opacity:0.1"/>
 </g>
 <g transform="translate(1,1)" style="fill:#000;opacity:0.1">
  <path d="m 16.375 8 3 7.313 c -0.025 0.018 -0.038 0.044 -0.063 0.063 l -9.188 0.469 5.03 4.906 -7.156 2.563 l 6.469 2.75 -5.531 3.03 6.531 0.813 c 0.089 0.202 0.181 0.429 0.281 0.625 -0.949 0.563 -1.594 1.578 -1.594 2.75 0 1.778 1.479 3.219 3.281 3.219 1.055 0 1.997 -0.515 2.594 -1.281 0.139 0.089 0.263 0.166 0.406 0.25 -0.103 0.332 -0.156 0.696 -0.156 1.063 0 1.916 1.498 3.469 3.375 3.469 c 1.196 0 2.238 -0.64 2.844 -1.594 0.605 0.958 1.644 1.594 2.844 1.594 1.877 0 3.406 -1.553 3.406 -3.469 c 0 -0.358 -0.058 -0.706 -0.156 -1.031 2.161 -1.254 3.888 -3.157 4.938 -5.438 0.112 0.02 0.226 0.063 0.344 0.063 1.171 0 2.125 -1.04 2.125 -2.313 0 -0.979 -0.582 -1.823 -1.375 -2.156 0.001 -0.206 0.031 -0.417 0.031 -0.625 0 -5.694 -3.962 -10.441 -9.281 -11.719 z" style="stroke:none"/>
 </g>
 <g>
  <path d="m 16.375 8 3 7.313 c -0.025 0.018 -0.038 0.044 -0.063 0.063 l -9.188 0.469 5.03 4.906 -7.156 2.563 l 6.469 2.75 -5.531 3.03 6.531 0.813 c 0.089 0.202 0.181 0.429 0.281 0.625 -0.949 0.563 -1.594 1.578 -1.594 2.75 0 1.778 1.479 3.219 3.281 3.219 1.055 0 1.997 -0.515 2.594 -1.281 0.139 0.089 0.263 0.166 0.406 0.25 -0.103 0.332 -0.156 0.696 -0.156 1.063 0 1.916 1.498 3.469 3.375 3.469 c 1.196 0 2.238 -0.64 2.844 -1.594 0.605 0.958 1.644 1.594 2.844 1.594 1.877 0 3.406 -1.553 3.406 -3.469 c 0 -0.358 -0.058 -0.706 -0.156 -1.031 2.161 -1.254 3.888 -3.157 4.938 -5.438 0.112 0.02 0.226 0.063 0.344 0.063 1.171 0 2.125 -1.04 2.125 -2.313 0 -0.979 -0.582 -1.823 -1.375 -2.156 0.001 -0.206 0.031 -0.417 0.031 -0.625 0 -5.694 -3.962 -10.441 -9.281 -11.719 l -13 -5.313 m 13.844 11.938 c 0.933 0 1.771 0.379 2.375 1.031 0.365 -0.205 0.774 -0.344 1.219 -0.344 1.422 0 2.594 1.186 2.594 2.656 0 1.471 -1.172 2.688 -2.594 2.688 -0.395 0 -0.759 -0.117 -1.094 -0.281 -0.61 0.749 -1.489 1.25 -2.5 1.25 -1.837 0 -3.313 -1.566 -3.313 -3.5 0 -1.934 1.476 -3.5 3.313 -3.5 z" style="fill:#ff80e5;stroke:none"/>
  <path d="m 29.764 26.842 c -1 -0.132 -1.98 -0.886 -2.456 -1.897 -0.965 -2.049 0.282 -4.56 2.436 -4.907 0.894 -0.144 1.954 0.164 2.566 0.747 l 0.251 0.239 0.438 -0.173 c 0.863 -0.342 1.884 -0.112 2.576 0.58 1.285 1.285 0.88 3.499 -0.781 4.263 -0.522 0.24 -1.285 0.272 -1.753 0.074 l -0.315 -0.134 -0.396 0.37 c -0.72 0.673 -1.608 0.964 -2.566 0.838 z" style="fill:#f9f9f9;fill-opacity:1;stroke:none"/>
  <ellipse transform="translate(7.351724,0.24310344)" cx="23.5" cy="22.96" rx="0.972" ry="1.053" style="fill:#4d4d4d;fill-opacity:1;stroke:none"/>
  <ellipse transform="matrix(0.77127661,0,0,0.80687394,16.015374,4.7445861)" cx="23.5" cy="22.96" rx="0.972" ry="1.053" style="fill:#4d4d4d;fill-opacity:1;stroke:none"/>
 </g>
</svg>
