<svg xmlns="http://www.w3.org/2000/svg" xmlns:xlink="http://www.w3.org/1999/xlink" viewBox="0 0 48 48">
 <defs>
  <linearGradient id="linearGradient3764" x1="1" x2="47" gradientUnits="userSpaceOnUse" gradientTransform="matrix(0,-1,1,0,-1.5e-6,47.999998)">
   <stop style="stop-color:#30a0d4;stop-opacity:1"/>
   <stop offset="1" style="stop-color:#41a8d8;stop-opacity:1"/>
  </linearGradient>
 </defs>
 <g>
  <path d="m 36.31 5 c 5.859 4.062 9.688 10.831 9.688 18.5 c 0 12.426 -10.07 22.5 -22.5 22.5 c -7.669 0 -14.438 -3.828 -18.5 -9.688 c 1.037 1.822 2.306 3.499 3.781 4.969 c 4.085 3.712 9.514 5.969 15.469 5.969 c 12.703 0 23 -10.298 23 -23 c 0 -5.954 -2.256 -11.384 -5.969 -15.469 c -1.469 -1.475 -3.147 -2.744 -4.969 -3.781 z m 4.969 3.781 c 3.854 4.113 6.219 9.637 6.219 15.719 c 0 12.703 -10.297 23 -23 23 c -6.081 0 -11.606 -2.364 -15.719 -6.219 c 4.16 4.144 9.883 6.719 16.219 6.719 c 12.703 0 23 -10.298 23 -23 c 0 -6.335 -2.575 -12.06 -6.719 -16.219 z" style="opacity:0.05"/>
  <path d="m 41.28 8.781 c 3.712 4.085 5.969 9.514 5.969 15.469 c 0 12.703 -10.297 23 -23 23 c -5.954 0 -11.384 -2.256 -15.469 -5.969 c 4.113 3.854 9.637 6.219 15.719 6.219 c 12.703 0 23 -10.298 23 -23 c 0 -6.081 -2.364 -11.606 -6.219 -15.719 z" style="opacity:0.1"/>
  <path d="m 31.25 2.375 c 8.615 3.154 14.75 11.417 14.75 21.13 c 0 12.426 -10.07 22.5 -22.5 22.5 c -9.708 0 -17.971 -6.135 -21.12 -14.75 a 23 23 0 0 0 44.875 -7 a 23 23 0 0 0 -16 -21.875 z" style="opacity:0.2"/>
 </g>
 <g>
  <path d="m 24 1 c 12.703 0 23 10.297 23 23 c 0 12.703 -10.297 23 -23 23 -12.703 0 -23 -10.297 -23 -23 0 -12.703 10.297 -23 23 -23 z" style="fill:url(#linearGradient3764);fill-opacity:1"/>
 </g>
 <g>
  <g>
   <g transform="translate(1,1)">
    <g style="opacity:0.1">
     <!-- color: #41a8d8 -->
     <g>
      <path d="m 24 9 c -8.285 0 -15 6.715 -15 15 c 0 8.285 6.715 15 15 15 c 8.285 0 15 -6.715 15 -15 c 0 -8.285 -6.715 -15 -15 -15 m 0 6 c 4.969 0 9 4.03 9 9 c 0 4.969 -4.03 9 -9 9 c -4.969 0 -9 -4.03 -9 -9 c 0 -4.969 4.03 -9 9 -9 m 0 0" style="fill:#000;fill-opacity:1;stroke:none;fill-rule:nonzero"/>
      <use xlink:href="#SVGCleanerId_0"/>
      <use xlink:href="#SVGCleanerId_1"/>
     </g>
    </g>
   </g>
  </g>
 </g>
 <g>
  <g>
   <!-- color: #41a8d8 -->
   <g>
    <path d="m 24 9 c -8.285 0 -15 6.715 -15 15 c 0 8.285 6.715 15 15 15 c 8.285 0 15 -6.715 15 -15 c 0 -8.285 -6.715 -15 -15 -15 m 0 6 c 4.969 0 9 4.03 9 9 c 0 4.969 -4.03 9 -9 9 c -4.969 0 -9 -4.03 -9 -9 c 0 -4.969 4.03 -9 9 -9 m 0 0" style="fill:#ea5c53;fill-opacity:1;stroke:none;fill-rule:nonzero"/>
    <path d="m 10.375 17.781 c -0.867 1.895 -1.375 4 -1.375 6.219 c 0 2.219 0.508 4.324 1.375 6.219 l 5.25 -3 c -0.383 -1 -0.625 -2.082 -0.625 -3.219 c 0 -1.137 0.242 -2.219 0.625 -3.219 m -5.25 -3" style="fill:#eeece0;fill-opacity:1;stroke:none;fill-rule:nonzero"/>
    <path d="m 37.625 17.781 l -5.25 3 c 0.383 1 0.625 2.082 0.625 3.219 c 0 1.137 -0.242 2.219 -0.625 3.219 l 5.25 3 c 0.867 -1.895 1.375 -4 1.375 -6.219 c 0 -2.219 -0.508 -4.324 -1.375 -6.219 m 0 0" style="fill:#eeece0;fill-opacity:1;stroke:none;fill-rule:nonzero"/>
    <path d="m 20.781 32.375 l -3 5.25 c 1.895 0.867 4 1.375 6.219 1.375 c 2.219 0 4.324 -0.508 6.219 -1.375 l -3 -5.25 c -1 0.383 -2.082 0.625 -3.219 0.625 c -1.137 0 -2.219 -0.242 -3.219 -0.625 m 0 0" style="fill:#eeece0;fill-opacity:1;stroke:none;fill-rule:nonzero"/>
    <path d="m 24 9 c -2.219 0 -4.324 0.508 -6.219 1.375 l 3 5.25 c 1 -0.383 2.082 -0.625 3.219 -0.625 c 1.137 0 2.219 0.242 3.219 0.625 l 3 -5.25 c -1.895 -0.867 -4 -1.375 -6.219 -1.375 m 0 0" style="fill:#eeece0;fill-opacity:1;stroke:none;fill-rule:nonzero"/>
    <path d="m 24 9 c -8.285 0 -15 6.715 -15 15 c 0 4.398 1.922 8.32 4.938 11.06 c -2.426 -2.664 -3.938 -6.176 -3.938 -10.06 c 0 -8.285 6.715 -15 15 -15 c 3.887 0 7.398 1.512 10.06 3.938 c -2.742 -3.02 -6.664 -4.938 -11.06 -4.938 m 0 0" id="SVGCleanerId_0" style="fill:#000;fill-opacity:0.149;stroke:none;fill-rule:nonzero"/>
    <path d="m 30.844 18.16 c 1.344 1.574 2.156 3.613 2.156 5.844 c 0 4.969 -4.03 9 -9 9 c -2.23 0 -4.27 -0.813 -5.844 -2.156 c 1.652 1.93 4.105 3.156 6.844 3.156 c 4.969 0 9 -4.03 9 -9 c 0 -2.738 -1.227 -5.191 -3.156 -6.844 m 0 0" id="SVGCleanerId_1" style="fill:#000;fill-opacity:0.149;stroke:none;fill-rule:nonzero"/>
   </g>
  </g>
 </g>
 <g>
  <path d="m 40.03 7.531 c 3.712 4.084 5.969 9.514 5.969 15.469 0 12.703 -10.297 23 -23 23 c -5.954 0 -11.384 -2.256 -15.469 -5.969 4.178 4.291 10.01 6.969 16.469 6.969 c 12.703 0 23 -10.298 23 -23 0 -6.462 -2.677 -12.291 -6.969 -16.469 z" style="opacity:0.1"/>
 </g>
</svg>
