<svg version="1.1" viewBox="0 0 48 48" xmlns="http://www.w3.org/2000/svg">
 <defs>
  <linearGradient id="bg" x1="1" x2="47" gradientTransform="matrix(0 -1 1 0 -1.5e-6 48)" gradientUnits="userSpaceOnUse">
   <stop style="stop-color:#f9c117" offset="0"/>
   <stop style="stop-color:#fac82a" offset="1"/>
  </linearGradient>
 </defs>
 <path d="m36.31 5c5.859 4.062 9.688 10.831 9.688 18.5 0 12.426-10.07 22.5-22.5 22.5-7.669 0-14.438-3.828-18.5-9.688 1.037 1.822 2.306 3.499 3.781 4.969 4.085 3.712 9.514 5.969 15.469 5.969 12.703 0 23-10.298 23-23 0-5.954-2.256-11.384-5.969-15.469-1.469-1.475-3.147-2.744-4.969-3.781zm4.969 3.781c3.854 4.113 6.219 9.637 6.219 15.719 0 12.703-10.297 23-23 23-6.081 0-11.606-2.364-15.719-6.219 4.16 4.144 9.883 6.719 16.219 6.719 12.703 0 23-10.298 23-23 0-6.335-2.575-12.06-6.719-16.219z" style="opacity:.05"/>
 <path d="m41.28 8.781c3.712 4.085 5.969 9.514 5.969 15.469 0 12.703-10.297 23-23 23-5.954 0-11.384-2.256-15.469-5.969 4.113 3.854 9.637 6.219 15.719 6.219 12.703 0 23-10.298 23-23 0-6.081-2.364-11.606-6.219-15.719z" style="opacity:.1"/>
 <path d="m31.25 2.375c8.615 3.154 14.75 11.417 14.75 21.13 0 12.426-10.07 22.5-22.5 22.5-9.708 0-17.971-6.135-21.12-14.75a23 23 0 0 0 44.875-7 23 23 0 0 0-16-21.875z" style="opacity:.2"/>
 <path d="m24 1c12.703 0 23 10.297 23 23s-10.297 23-23 23-23-10.297-23-23 10.297-23 23-23z" style="fill:url(#bg)"/>
 <path d="m40.03 7.531c3.712 4.084 5.969 9.514 5.969 15.469 0 12.703-10.297 23-23 23-5.954 0-11.384-2.256-15.469-5.969 4.178 4.291 10.01 6.969 16.469 6.969 12.703 0 23-10.298 23-23 0-6.462-2.677-12.291-6.969-16.469z" style="opacity:.1"/>
 <path d="m25.242 10.002c-4.2711 0.055606-8.4322 1.8885-11.305 5.1934h-0.017578l7.125 8.168 5.0527-13.35c-0.28537-0.012192-0.57073-0.015426-0.85547-0.011719zm2.8398 0.62695-3.6113 10.154 14.244-2.3633c-2.1033-3.9933-5.9888-6.9317-10.633-7.791zm-15.703 5.9512c-2.4542 3.8018-3.0906 8.5867-1.5273 12.971l10.732-1.9863-9.2051-10.984zm-1.5273 12.971-0.007812 0.001953h0.007812v-0.001953zm28.297-9.1133c4.84e-4 0.001357 0.001469 0.002549 0.001953 0.003906l0.009765-0.001953-0.011718-0.001953zm0.001953 0.003906-10.736 1.9863 9.2051 10.984c2.4578-3.7971 3.0934-8.5873 1.5312-12.971zm-10.199 6.1953-5.0527 13.35c4.5689 0.19506 9.0961-1.6565 12.164-5.1816h0.015625l-7.127-8.168zm-3.4121 2.5645-14.25 2.3633c2.1103 3.9973 5.9989 6.9377 10.631 7.793l3.6191-10.156z" style="opacity:.1"/>
 <path d="m24.242 9.002c-4.2711 0.055606-8.4322 1.8885-11.305 5.1934h-0.017578l7.125 8.168 5.0527-13.35c-0.28537-0.012192-0.57073-0.015426-0.85547-0.011719zm2.8398 0.62695-3.6113 10.154 14.244-2.3633c-2.1033-3.9933-5.9888-6.9317-10.633-7.791zm-15.703 5.9512c-2.4542 3.8018-3.0906 8.5867-1.5273 12.971l10.732-1.9863-9.2051-10.984zm-1.5273 12.971-0.0078125 0.001953h0.0078125v-0.001953zm28.297-9.1133c4.84e-4 0.001357 0.001469 0.002549 0.001953 0.003906l0.009765-0.001953-0.011718-0.001953zm0.001953 0.003906-10.736 1.9863 9.2051 10.984c2.4578-3.7971 3.0934-8.5873 1.5312-12.971zm-10.199 6.1953-5.0527 13.35c4.5689 0.19506 9.0961-1.6565 12.164-5.1816h0.015625l-7.127-8.168zm-3.4121 2.5645-14.25 2.3633c2.1103 3.9973 5.9989 6.9377 10.631 7.793l3.6191-10.156z" style="fill:#3d3d3d"/>
</svg>
