<svg xmlns="http://www.w3.org/2000/svg" viewBox="0 0 48 48">
 <defs>
  <linearGradient id="linearGradient3764" x1="1" x2="47" gradientUnits="userSpaceOnUse" gradientTransform="matrix(0,-1,1,0,-1.5e-6,47.999998)">
   <stop style="stop-color:#015093;stop-opacity:1"/>
   <stop offset="1" style="stop-color:#015ca7;stop-opacity:1"/>
  </linearGradient>
 </defs>
 <g>
  <path d="m 36.31 5 c 5.859 4.062 9.688 10.831 9.688 18.5 c 0 12.426 -10.07 22.5 -22.5 22.5 c -7.669 0 -14.438 -3.828 -18.5 -9.688 c 1.037 1.822 2.306 3.499 3.781 4.969 c 4.085 3.712 9.514 5.969 15.469 5.969 c 12.703 0 23 -10.298 23 -23 c 0 -5.954 -2.256 -11.384 -5.969 -15.469 c -1.469 -1.475 -3.147 -2.744 -4.969 -3.781 z m 4.969 3.781 c 3.854 4.113 6.219 9.637 6.219 15.719 c 0 12.703 -10.297 23 -23 23 c -6.081 0 -11.606 -2.364 -15.719 -6.219 c 4.16 4.144 9.883 6.719 16.219 6.719 c 12.703 0 23 -10.298 23 -23 c 0 -6.335 -2.575 -12.06 -6.719 -16.219 z" style="opacity:0.05"/>
  <path d="m 41.28 8.781 c 3.712 4.085 5.969 9.514 5.969 15.469 c 0 12.703 -10.297 23 -23 23 c -5.954 0 -11.384 -2.256 -15.469 -5.969 c 4.113 3.854 9.637 6.219 15.719 6.219 c 12.703 0 23 -10.298 23 -23 c 0 -6.081 -2.364 -11.606 -6.219 -15.719 z" style="opacity:0.1"/>
  <path d="m 31.25 2.375 c 8.615 3.154 14.75 11.417 14.75 21.13 c 0 12.426 -10.07 22.5 -22.5 22.5 c -9.708 0 -17.971 -6.135 -21.12 -14.75 a 23 23 0 0 0 44.875 -7 a 23 23 0 0 0 -16 -21.875 z" style="opacity:0.2"/>
 </g>
 <g>
  <path d="m 24 1 c 12.703 0 23 10.297 23 23 c 0 12.703 -10.297 23 -23 23 -12.703 0 -23 -10.297 -23 -23 0 -12.703 10.297 -23 23 -23 z" style="fill:url(#linearGradient3764);fill-opacity:1"/>
  <path d="m 24 1 c -1.279 0 -2.53 0.11 -3.752 0.311 l -11.248 32.689 l 4.273 0 5.457 -16 2.96 0 -5.381 16 4.296 0 5.084 -14.898 c 0.74 -2.142 -0.425 -4.102 -2.588 -4.102 l -3.328 0 4.893 -13.984 c -0.222 -0.006 -0.443 -0.016 -0.666 -0.016 m 6.287 14 -10.834 31.549 c 1.355 0.272 2.752 0.419 4.182 0.441 l 4.486 -12.99 l 5.674 0 c 1.01 0 2.112 -0.813 2.457 -1.811 l 4.525 -13.09 c 0.74 -2.142 -0.426 -4.102 -2.592 -4.102 m -4.672 3 3.221 0 -4.469 13 -3.221 0 z" style="fill:#000;opacity:0.1;fill-opacity:1"/>
  <path d="m 23.314 1.018 c -1.547 0.045 -3.054 0.242 -4.51 0.578 l -10.805 31.404 l 4.273 0 5.457 -16 2.96 0 -5.381 16 4.296 0 5.084 -14.898 c 0.74 -2.142 -0.425 -4.102 -2.588 -4.102 l -3.328 0 z m 5.973 12.982 -11.08 32.26 c 1.325 0.344 2.697 0.566 4.104 0.668 l 4.811 -13.932 l 5.674 0 c 1.01 0 2.112 -0.813 2.457 -1.811 l 4.525 -13.09 c 0.74 -2.142 -0.426 -4.102 -2.592 -4.102 m -4.672 3 3.221 0 -4.469 13 -3.221 0 z" style="fill:#f8f8f8;fill-opacity:1"/>
 </g>
 <g>
  <g>
   <g transform="translate(1,1)">
    <g style="opacity:0.1">
     <!-- color: #015ca7 -->
    </g>
   </g>
  </g>
 </g>
 <g>
  <g>
   <!-- color: #015ca7 -->
  </g>
 </g>
 <g>
  <path d="m 40.03 7.531 c 3.712 4.084 5.969 9.514 5.969 15.469 0 12.703 -10.297 23 -23 23 c -5.954 0 -11.384 -2.256 -15.469 -5.969 4.178 4.291 10.01 6.969 16.469 6.969 c 12.703 0 23 -10.298 23 -23 0 -6.462 -2.677 -12.291 -6.969 -16.469 z" style="opacity:0.1"/>
 </g>
</svg>
