<svg xmlns="http://www.w3.org/2000/svg" viewBox="0 0 48 48">
 <defs>
  <linearGradient id="linearGradient3845" y1="47" x2="0" y2="1" gradientUnits="userSpaceOnUse">
   <stop style="stop-color:#99c;stop-opacity:1"/>
   <stop offset="1" style="stop-color:#a7a7d3;stop-opacity:1"/>
  </linearGradient>
 </defs>
 <g>
  <path d="m 36.31 5 c 5.859 4.062 9.688 10.831 9.688 18.5 c 0 12.426 -10.07 22.5 -22.5 22.5 c -7.669 0 -14.438 -3.828 -18.5 -9.688 c 1.037 1.822 2.306 3.499 3.781 4.969 c 4.085 3.712 9.514 5.969 15.469 5.969 c 12.703 0 23 -10.298 23 -23 c 0 -5.954 -2.256 -11.384 -5.969 -15.469 c -1.469 -1.475 -3.147 -2.744 -4.969 -3.781 z m 4.969 3.781 c 3.854 4.113 6.219 9.637 6.219 15.719 c 0 12.703 -10.297 23 -23 23 c -6.081 0 -11.606 -2.364 -15.719 -6.219 c 4.16 4.144 9.883 6.719 16.219 6.719 c 12.703 0 23 -10.298 23 -23 c 0 -6.335 -2.575 -12.06 -6.719 -16.219 z" style="opacity:0.05"/>
  <path d="m 41.28 8.781 c 3.712 4.085 5.969 9.514 5.969 15.469 c 0 12.703 -10.297 23 -23 23 c -5.954 0 -11.384 -2.256 -15.469 -5.969 c 4.113 3.854 9.637 6.219 15.719 6.219 c 12.703 0 23 -10.298 23 -23 c 0 -6.081 -2.364 -11.606 -6.219 -15.719 z" style="opacity:0.1"/>
  <path d="m 31.25 2.375 c 8.615 3.154 14.75 11.417 14.75 21.13 c 0 12.426 -10.07 22.5 -22.5 22.5 c -9.708 0 -17.971 -6.135 -21.12 -14.75 a 23 23 0 0 0 44.875 -7 a 23 23 0 0 0 -16 -21.875 z" style="opacity:0.2"/>
 </g>
 <g>
  <path d="m 24 1 c 12.703 0 23 10.297 23 23 c 0 12.703 -10.297 23 -23 23 -12.703 0 -23 -10.297 -23 -23 0 -12.703 10.297 -23 23 -23 z" style="fill:url(#linearGradient3845);fill-opacity:1"/>
 </g>
 <g>
  <path d="m 40.03 7.531 c 3.712 4.084 5.969 9.514 5.969 15.469 0 12.703 -10.297 23 -23 23 c -5.954 0 -11.384 -2.256 -15.469 -5.969 4.178 4.291 10.01 6.969 16.469 6.969 c 12.703 0 23 -10.298 23 -23 0 -6.462 -2.677 -12.291 -6.969 -16.469 z" style="opacity:0.1"/>
 </g>
 <path d="m 25 13 c -1.105 0 -2 0.895 -2 2 0 0.74 0.403 1.373 1 1.719 l 0 5.281 -3.625 0 c -0.199 0 -0.375 0.235 -0.375 0.438 l 0 1.094 c 0 0.207 0.168 0.516 0.375 0.469 l 3.625 0 0 8.656 c 0 0.375 -0.762 0.367 -1.125 0.406 -0.535 0 -0.867 -0.117 -1.375 -0.25 -1.156 -0.328 -2.255 -0.766 -3.313 -1.313 -0.449 -0.238 -0.883 -0.473 -1.281 -0.781 -0.168 -0.145 -0.359 -0.364 -0.344 -0.594 0.023 -0.18 0.113 -0.343 0.313 -0.375 0.18 -0.027 0.34 0.066 0.5 0.125 0.137 0.055 0.21 -0.109 0.188 -0.219 -0.02 -0.289 -0.094 -0.563 -0.25 -0.813 -0.328 -0.52 -0.855 -0.891 -1.375 -1.219 -0.555 -0.34 -1.144 -0.73 -1.5 -1.281 -0.07 -0.098 -0.155 -0.274 -0.313 -0.219 -0.219 0.066 -0.332 0.293 -0.438 0.469 -0.301 0.547 -0.457 1.145 -0.594 1.75 -0.109 0.48 -0.101 0.98 -0.063 1.469 0.039 0.488 0.047 0.977 0.25 1.438 0.133 0.301 0.367 0.543 0.594 0.781 0.145 -0.148 0.29 -0.297 0.438 -0.438 0.191 -0.188 0.434 -0.32 0.719 -0.281 0.383 0.047 0.73 0.289 1.031 0.5 0.426 0.313 0.847 0.621 1.281 0.938 0.684 0.504 1.41 0.894 2.188 1.25 0.645 0.289 1.329 0.574 2 0.813 0.121 0.051 0.25 0.02 0.375 0.063 1.207 0.477 2.227 1.054 3.063 2.063 l 0 0.063 c 0.008 -0.012 0.019 -0.023 0.031 -0.031 c 0.008 0.012 0.019 0.023 0.031 0.031 0.008 -0.031 -0.008 -0.066 0 -0.094 0.832 -0.996 1.863 -1.55 3.063 -2.031 0.125 -0.043 0.254 -0.011 0.375 -0.063 0.668 -0.234 1.325 -0.523 1.969 -0.813 0.773 -0.355 1.535 -0.75 2.219 -1.25 0.43 -0.316 0.824 -0.624 1.25 -0.938 0.301 -0.211 0.648 -0.457 1.031 -0.5 0.281 -0.035 0.524 0.097 0.719 0.281 0.148 0.145 0.325 0.294 0.469 0.438 0.227 -0.234 0.434 -0.48 0.563 -0.781 0.207 -0.457 0.242 -0.945 0.281 -1.438 0.039 -0.488 0.016 -0.992 -0.094 -1.469 -0.133 -0.605 -0.266 -1.199 -0.563 -1.75 -0.105 -0.176 -0.254 -0.403 -0.469 -0.469 -0.156 -0.055 -0.21 0.117 -0.281 0.219 -0.355 0.547 -0.972 0.937 -1.531 1.281 -0.523 0.328 -1.012 0.7 -1.344 1.219 -0.156 0.25 -0.258 0.523 -0.281 0.813 -0.02 0.109 0.07 0.273 0.219 0.219 0.148 -0.059 0.313 -0.152 0.5 -0.125 0.203 0.031 0.297 0.23 0.313 0.406 0.023 0.23 -0.172 0.422 -0.344 0.563 -0.398 0.305 -0.836 0.543 -1.281 0.781 -1.059 0.547 -2.16 0.989 -3.313 1.313 -0.52 0.137 -0.848 0.281 -1.375 0.281 c -0.461 0.078 -1.125 -0.179 -1.125 -0.438 l 0 -8.656 3.625 0 c 0.184 0 0.375 -0.25 0.375 -0.469 l 0 -1.063 c 0 -0.211 -0.18 -0.426 -0.375 -0.469 l -3.625 0 0 -5.281 c 0.597 -0.346 1 -0.979 1 -1.719 0 -1.105 -0.895 -2 -2 -2 z m 0 1 c 0.552 0 1 0.444 1 1 0 0.556 -0.448 1 -1 1 -0.552 0 -1 -0.444 -1 -1 0 -0.556 0.448 -1 1 -1 z" style="fill:#000;fill-opacity:0.118;stroke:none;fill-rule:nonzero"/>
 <path d="m 24 12 c -1.105 0 -2 0.895 -2 2 0 0.74 0.403 1.373 1 1.719 l 0 5.281 -3.625 0 c -0.199 0 -0.375 0.235 -0.375 0.438 l 0 1.094 c 0 0.207 0.168 0.516 0.375 0.469 l 3.625 0 0 8.656 c 0 0.375 -0.762 0.367 -1.125 0.406 -0.535 0 -0.867 -0.117 -1.375 -0.25 -1.156 -0.328 -2.255 -0.765 -3.313 -1.313 -0.449 -0.238 -0.883 -0.473 -1.281 -0.781 -0.168 -0.145 -0.359 -0.364 -0.344 -0.594 0.023 -0.18 0.114 -0.343 0.313 -0.375 0.18 -0.027 0.34 0.066 0.5 0.125 0.137 0.055 0.21 -0.109 0.188 -0.219 -0.02 -0.289 -0.094 -0.563 -0.25 -0.813 -0.328 -0.52 -0.855 -0.891 -1.375 -1.219 -0.555 -0.34 -1.144 -0.73 -1.5 -1.281 -0.07 -0.098 -0.155 -0.274 -0.313 -0.219 -0.219 0.066 -0.332 0.293 -0.438 0.469 -0.301 0.547 -0.457 1.145 -0.594 1.75 -0.109 0.48 -0.101 0.98 -0.063 1.469 0.039 0.488 0.047 0.977 0.25 1.438 0.133 0.301 0.367 0.543 0.594 0.781 0.145 -0.148 0.29 -0.297 0.438 -0.438 0.191 -0.188 0.434 -0.32 0.719 -0.281 0.383 0.047 0.73 0.289 1.031 0.5 0.426 0.313 0.847 0.622 1.281 0.938 0.684 0.504 1.41 0.894 2.188 1.25 0.645 0.289 1.329 0.574 2 0.813 0.121 0.051 0.25 0.02 0.375 0.063 1.207 0.477 2.227 1.054 3.063 2.063 l 0 0.063 c 0.008 -0.012 0.019 -0.023 0.031 -0.031 c 0.008 0.012 0.019 0.023 0.031 0.031 0.008 -0.031 -0.008 -0.066 0 -0.094 0.832 -0.996 1.863 -1.55 3.063 -2.031 0.125 -0.043 0.254 -0.011 0.375 -0.063 0.668 -0.234 1.325 -0.523 1.969 -0.813 0.773 -0.355 1.535 -0.75 2.219 -1.25 0.43 -0.316 0.824 -0.625 1.25 -0.938 0.301 -0.211 0.648 -0.457 1.031 -0.5 0.281 -0.035 0.524 0.097 0.719 0.281 0.148 0.145 0.325 0.294 0.469 0.438 0.227 -0.234 0.434 -0.48 0.563 -0.781 0.207 -0.457 0.242 -0.945 0.281 -1.438 0.039 -0.488 0.016 -0.992 -0.094 -1.469 -0.133 -0.605 -0.266 -1.199 -0.563 -1.75 -0.105 -0.176 -0.254 -0.403 -0.469 -0.469 -0.156 -0.055 -0.21 0.117 -0.281 0.219 -0.355 0.547 -0.972 0.937 -1.531 1.281 -0.523 0.328 -1.012 0.7 -1.344 1.219 -0.156 0.25 -0.258 0.523 -0.281 0.813 -0.02 0.109 0.07 0.273 0.219 0.219 0.148 -0.059 0.313 -0.152 0.5 -0.125 0.203 0.031 0.297 0.23 0.313 0.406 0.023 0.23 -0.172 0.422 -0.344 0.563 -0.398 0.305 -0.836 0.543 -1.281 0.781 -1.059 0.547 -2.16 0.988 -3.313 1.313 -0.52 0.137 -0.848 0.281 -1.375 0.281 c -0.461 0.078 -1.125 -0.18 -1.125 -0.438 l 0 -8.656 3.625 0 c 0.184 0 0.375 -0.25 0.375 -0.469 l 0 -1.063 c 0 -0.211 -0.18 -0.426 -0.375 -0.469 l -3.625 0 0 -5.281 c 0.597 -0.346 1 -0.979 1 -1.719 0 -1.105 -0.895 -2 -2 -2 z m 0 1 c 0.552 0 1 0.444 1 1 0 0.556 -0.448 1 -1 1 -0.552 0 -1 -0.444 -1 -1 0 -0.556 0.448 -1 1 -1 z" style="fill:#4c6775;fill-opacity:1;stroke:none;fill-rule:nonzero"/>
 <path d="m 13 13 0 8 2 0 0 -3 2 0 0 3 2 0 0 -8 -2 0 0 3 -2 0 0 -3 z" style="fill:#000;fill-opacity:0.118;stroke:none;fill-rule:nonzero"/>
 <path d="m 12 12 0 8 2 0 0 -3 2 0 0 3 2 0 0 -8 -2 0 0 3 -2 0 0 -3 z" style="fill:#373777;fill-opacity:1;stroke:none;fill-rule:nonzero"/>
 <path d="m 31 13 0 2 2 0 0 6 2 0 0 -6 2 0 0 -2 -6 0 z" style="fill:#000;fill-opacity:0.118;stroke:none;fill-rule:nonzero"/>
 <path d="m 30 12 0 2 2 0 0 6 2 0 0 -6 2 0 0 -2 -6 0 z" style="fill:#373777;fill-opacity:1;stroke:none;fill-rule:nonzero"/>
 <path d="m 19.375 21 c -0.199 0 -0.375 0.235 -0.375 0.438 l 0 1.094 c 0 0.207 0.168 0.516 0.375 0.469 l 3.625 0 0 6.6 c 0 0.205 0.218 0.4 0.5 0.4 l 1 0 c 0.259 0 0.5 -0.202 0.5 -0.4 l 0 -6.6 3.625 0 c 0.184 0 0.375 -0.25 0.375 -0.469 l 0 -1.063 c 0 -0.211 -0.18 -0.426 -0.375 -0.469 l -3.625 0 -2 0 z" style="fill:#373777;fill-opacity:1;stroke:none;fill-rule:nonzero"/>
</svg>
