<svg version="1.1" viewBox="0 0 48 48" xmlns="http://www.w3.org/2000/svg">
 <defs>
  <linearGradient id="bg" x2="0" y1="47" y2="1" gradientUnits="userSpaceOnUse">
   <stop style="stop-color:#99c" offset="0"/>
   <stop style="stop-color:#a7a7d3" offset="1"/>
  </linearGradient>
 </defs>
 <path d="m36.3 5c5.86 4.06 9.69 10.8 9.69 18.5 0 12.4-10.1 22.5-22.5 22.5-7.67 0-14.4-3.83-18.5-9.69 1.04 1.82 2.31 3.5 3.78 4.97 4.08 3.71 9.51 5.97 15.5 5.97 12.7 0 23-10.3 23-23 0-5.95-2.26-11.4-5.97-15.5-1.47-1.48-3.15-2.74-4.97-3.78zm4.97 3.78c3.85 4.11 6.22 9.64 6.22 15.7 0 12.7-10.3 23-23 23-6.08 0-11.6-2.36-15.7-6.22 4.16 4.14 9.88 6.72 16.2 6.72 12.7 0 23-10.3 23-23 0-6.34-2.58-12.1-6.72-16.2z" style="opacity:.05"/>
 <path d="m41.3 8.78c3.71 4.08 5.97 9.51 5.97 15.5 0 12.7-10.3 23-23 23-5.95 0-11.4-2.26-15.5-5.97 4.11 3.85 9.64 6.22 15.7 6.22 12.7 0 23-10.3 23-23 0-6.08-2.36-11.6-6.22-15.7z" style="opacity:.1"/>
 <path d="m31.2 2.38c8.62 3.15 14.8 11.4 14.8 21.1 0 12.4-10.1 22.5-22.5 22.5-9.71 0-18-6.14-21.1-14.8a23 23 0 0 0 44.9-7 23 23 0 0 0-16-21.9z" style="opacity:.2"/>
 <path d="m24 1c12.7 0 23 10.3 23 23s-10.3 23-23 23-23-10.3-23-23 10.3-23 23-23z" style="fill:url(#bg)"/>
 <path d="m13 13v8h2v-3h2v3h2v-8h-2v3h-2v-3zm12 0c-1.1 0-2 0.895-2 2 0 0.74 1 1.72 1 1.72v5.28l-4 0.438v1.09c0 0.207 0.168 0.518 0.375 0.471h3.62v8l-1.5 1s-2.98-0.86-4.34-1.54c-1.68-0.842-1.69-1.26-1.57-1.46 0.339-0.599 0.914-0.1 0.914-0.1s0.203-0.9-1-1.9c-0.402-0.334-1.24-0.756-1.5-1-0.523-0.484-0.515-1-0.801-1-0.372 0-1.2 1.83-1.2 3 0 1.17 0 2.47 1 3 0-0.455 0.401-1 1-0.699 0.278 0.14 1.62 1.03 3.08 1.95 2.17 1.36 5.46 1.78 6.92 3.75 1.46-1.97 4.75-2.38 6.92-3.75 1.47-0.922 2.82-1.79 3.08-1.95 0.488-0.301 1-0.301 1 0.699 1-0.529 1-1.83 1-3 0-1.17-0.929-3-1.3-3-0.27 0-0.176 0.516-0.699 1l-3.16 4.46-4.34 1.54-1.5-1 2e-3 -8h3.62c0.184 0 0.375-0.252 0.375-0.471v-1.06c0-0.211-0.18-0.426-0.375-0.469h-3.62v-5.28c0.597-0.346 1-0.979 1-1.72 0-1.1-0.895-2-2-2zm6 0v2h2v6h2v-6h2v-2zm-6 1c0.552 0 1 0.444 1 1s-0.448 1-1 1-1-0.444-1-1 0.448-1 1-1z" style="opacity:.1"/>
 <path d="m40 7.53c3.71 4.08 5.97 9.51 5.97 15.5 0 12.7-10.3 23-23 23-5.95 0-11.4-2.26-15.5-5.97 4.18 4.29 10 6.97 16.5 6.97 12.7 0 23-10.3 23-23 0-6.46-2.68-12.3-6.97-16.5z" style="opacity:.1"/>
 <path d="m24 12c-1.1 0-2 0.895-2 2 0 0.74 0.403 1.37 1 1.72v15.3c0 0.552-0.448 1-1 1h-0.5c-0.75 0-2.98-0.86-4.34-1.54-1.68-0.842-1.69-1.26-1.57-1.46 0.339-0.599 0.914-0.1 0.914-0.1s0.203-0.9-1-1.9c-0.402-0.334-1.24-0.756-1.5-1-0.523-0.484-0.515-1-0.801-1-0.372 0-1.2 1.83-1.2 3 0 1.17 0 2.47 1 3 0-0.455 0.401-1 1-0.699 0.278 0.14 1.62 1.03 3.08 1.95 2.17 1.36 5.46 1.78 6.92 3.75 1.46-1.97 4.75-2.38 6.92-3.75 1.47-0.922 2.82-1.79 3.08-1.95 0.488-0.301 1-0.301 1 0.699 1-0.529 1-1.83 1-3 0-1.17-0.929-3-1.3-3-0.27 0-0.176 0.516-0.699 1-0.263 0.244-1.1 0.666-1.5 1-1.2 1-1 1.9-1 1.9s0.575-0.499 0.914 0.1c0.111 0.197 0.11 0.617-1.57 1.46-1.36 0.681-3.59 1.54-4.34 1.54h-0.5c-0.552 0-1-0.448-1-1l2e-3 -15.3c0.597-0.346 1-0.979 1-1.72 0-1.1-0.895-2-2-2zm0 1c0.552 0 1 0.444 1 1s-0.448 1-1 1-1-0.444-1-1 0.448-1 1-1z" style="fill:#4c6775"/>
 <path d="m12 12v8h2v-3h2v3h2v-8h-2v3h-2v-3h-2zm18 0v2h2v6h2v-6h2v-2h-6zm-10.6 9c-0.199 0-0.375 0.234-0.375 0.438v1.09c0 0.207 0.168 0.518 0.375 0.471h3.62v6.6c0 0.205 0.218 0.4 0.5 0.4h1c0.259 0 0.5-0.202 0.5-0.4v-6.6h3.62c0.184 0 0.375-0.252 0.375-0.471v-1.06c0-0.211-0.18-0.426-0.375-0.469h-9.25z" style="fill:#4c4c95"/>
</svg>
