<svg version="1.1" viewBox="0 0 48 48" xmlns="http://www.w3.org/2000/svg">
 <defs>
  <linearGradient id="bg" x2="0" y1="1" y2="47" gradientUnits="userSpaceOnUse">
   <stop style="stop-color:#71a337" offset="0"/>
   <stop style="stop-color:#679432" offset="1"/>
  </linearGradient>
 </defs>
 <path d="m36.31 5c5.859 4.062 9.688 10.831 9.688 18.5 0 12.426-10.07 22.5-22.5 22.5-7.669 0-14.438-3.828-18.5-9.688 1.037 1.822 2.306 3.499 3.781 4.969 4.085 3.712 9.514 5.969 15.469 5.969 12.703 0 23-10.298 23-23 0-5.954-2.256-11.384-5.969-15.469-1.469-1.475-3.147-2.744-4.969-3.781zm4.969 3.781c3.854 4.113 6.219 9.637 6.219 15.719 0 12.703-10.297 23-23 23-6.081 0-11.606-2.364-15.719-6.219 4.16 4.144 9.883 6.719 16.219 6.719 12.703 0 23-10.298 23-23 0-6.335-2.575-12.06-6.719-16.219z" style="opacity:.05"/>
 <path d="m41.28 8.781c3.712 4.085 5.969 9.514 5.969 15.469 0 12.703-10.297 23-23 23-5.954 0-11.384-2.256-15.469-5.969 4.113 3.854 9.637 6.219 15.719 6.219 12.703 0 23-10.298 23-23 0-6.081-2.364-11.606-6.219-15.719z" style="opacity:.1"/>
 <path d="m31.25 2.375c8.615 3.154 14.75 11.417 14.75 21.13 0 12.426-10.07 22.5-22.5 22.5-9.708 0-17.971-6.135-21.12-14.75a23 23 0 0 0 44.875-7 23 23 0 0 0-16-21.875z" style="opacity:.2"/>
 <circle cx="24" cy="24" r="23" style="fill:url(#bg)"/>
 <path d="m40.03 7.531c3.712 4.084 5.969 9.514 5.969 15.469 0 12.703-10.297 23-23 23-5.954 0-11.384-2.256-15.469-5.969 4.178 4.291 10.01 6.969 16.469 6.969 12.703 0 23-10.298 23-23 0-6.462-2.677-12.291-6.969-16.469z" style="opacity:.1"/>
 <g transform="translate(0 -.004)">
  <g transform="translate(1,1)"></g>
 </g>
 <g transform="matrix(-1 0 0 1 48 -.0040002)">
  <g transform="translate(1,1)"></g>
 </g>
 <path d="m33.996 13v0.99609c-7.2378-0.01646-14.834 0.01909-20.996 0v20.996c6.6806 0 14.386 0.0094 20.996 0v2.0078h3v-2h-1v-22zm-19.996 1.9961h19.996v19h-19.996zm3.457 2.0039c-0.805 0-1.457 0.67581-1.457 1.5078v6.9883c0 0.832 0.65203 1.5039 1.457 1.5039h7.082c0.805 0 1.4609-0.67191 1.4609-1.5039v-6.9883c0-0.832-0.65594-1.5078-1.4609-1.5078zm9.543 0v4h2v-4zm3 0v4h2v-4zm-3 5v2h5v-2zm0 3v2h5v-2zm-11 3v2h16v-2zm0 3v1h2.9961v-1zm4 0v1h3v-1zm4 0v1h2v-1zm3 0v1h2v-1zm3 0v1h2v-1z" style="opacity:.1"/>
 <path d="m32.996 12v0.99609c-7.2378-0.01646-14.834 0.01909-20.996 0v20.996c6.6806 0 14.386 0.0094 20.996 0v2.0078h3v-2h-1v-22zm-19.996 1.9961h19.996v19h-19.996zm3.457 2.0039c-0.805 0-1.457 0.67581-1.457 1.5078v6.9883c0 0.832 0.65203 1.5039 1.457 1.5039h7.082c0.805 0 1.4609-0.67191 1.4609-1.5039v-6.9883c0-0.832-0.65594-1.5078-1.4609-1.5078zm9.543 0v4h2v-4zm3 0v4h2v-4zm-3 5v2h5v-2zm0 3v2h5v-2zm-11 3v2h16v-2zm0 3v1h2.9961v-1zm4 0v1h3v-1zm4 0v1h2v-1zm3 0v1h2v-1zm3 0v1h2v-1z" style="fill:#fff"/>
</svg>
