<svg version="1.1" viewBox="0 0 48 48" xmlns="http://www.w3.org/2000/svg">
 <defs>
  <linearGradient id="bg" x2="0" y1="1" y2="47" gradientUnits="userSpaceOnUse">
   <stop style="stop-color:#8b7d7d" offset="0"/>
   <stop style="stop-color:#817373" offset="1"/>
  </linearGradient>
 </defs>
 <path d="m36.31 5c5.859 4.062 9.688 10.831 9.688 18.5 0 12.426-10.07 22.5-22.5 22.5-7.669 0-14.438-3.828-18.5-9.688 1.037 1.822 2.306 3.499 3.781 4.969 4.085 3.712 9.514 5.969 15.469 5.969 12.703 0 23-10.298 23-23 0-5.954-2.256-11.384-5.969-15.469-1.469-1.475-3.147-2.744-4.969-3.781zm4.969 3.781c3.854 4.113 6.219 9.637 6.219 15.719 0 12.703-10.297 23-23 23-6.081 0-11.606-2.364-15.719-6.219 4.16 4.144 9.883 6.719 16.219 6.719 12.703 0 23-10.298 23-23 0-6.335-2.575-12.06-6.719-16.219z" style="opacity:.05"/>
 <path d="m41.28 8.781c3.712 4.085 5.969 9.514 5.969 15.469 0 12.703-10.297 23-23 23-5.954 0-11.384-2.256-15.469-5.969 4.113 3.854 9.637 6.219 15.719 6.219 12.703 0 23-10.298 23-23 0-6.081-2.364-11.606-6.219-15.719z" style="opacity:.1"/>
 <path d="m31.25 2.375c8.615 3.154 14.75 11.417 14.75 21.13 0 12.426-10.07 22.5-22.5 22.5-9.708 0-17.971-6.135-21.12-14.75a23 23 0 0 0 44.875-7 23 23 0 0 0-16-21.875z" style="opacity:.2"/>
 <circle cx="24" cy="24" r="23" style="fill:url(#bg)"/>
 <path d="m16 12c-0.554 0-1 0.446-1 1v12h-1c-0.554 0-1 0.446-1 1v4c0 0.554 0.446 1 1 1h1v6c0 0.554 0.446 1 1 1s1-0.446 1-1v-6h1c0.554 0 1-0.446 1-1v-4c0-0.554-0.446-1-1-1h-1v-12c0-0.554-0.446-1-1-1zm9 0c-0.554 0-1 0.446-1 1v4h-1c-0.554 0-1 0.446-1 1v4c0 0.554 0.446 1 1 1h1v14c0 0.554 0.446 1 1 1s1-0.446 1-1v-14h1c0.554 0 1-0.446 1-1v-4c0-0.554-0.446-1-1-1h-1v-4c0-0.554-0.446-1-1-1zm9 0c-0.554 0-1 0.446-1 1v9h-1c-0.554 0-1 0.446-1 1v4c0 0.554 0.446 1 1 1h1v9c0 0.554 0.446 1 1 1s1-0.446 1-1v-9h1c0.554 0 1-0.446 1-1v-4c0-0.554-0.446-1-1-1h-1v-9c0-0.554-0.446-1-1-1z" style="opacity:.1;paint-order:normal"/>
 <path d="m40.03 7.531c3.712 4.084 5.969 9.514 5.969 15.469 0 12.703-10.297 23-23 23-5.954 0-11.384-2.256-15.469-5.969 4.178 4.291 10.01 6.969 16.469 6.969 12.703 0 23-10.298 23-23 0-6.462-2.677-12.291-6.969-16.469z" style="opacity:.1"/>
 <rect x="14" y="11" width="2" height="26" ry="1" style="fill:#333;paint-order:normal"/>
 <rect x="12" y="24" width="6" height="6" ry="1" style="fill:#f59191;paint-order:normal"/>
 <rect x="23" y="11" width="2" height="26" ry="1" style="fill:#333;paint-order:normal"/>
 <rect x="21" y="16" width="6" height="6" ry="1" style="fill:#76f276;paint-order:normal"/>
 <rect x="32" y="11" width="2" height="26" ry="1" style="fill:#333;paint-order:normal"/>
 <rect x="30" y="21" width="6" height="6" ry="1" style="fill:#b0b0f4;paint-order:normal"/>
 <path d="m23 22v1h2v-1h-2zm9 5v1h2v-1h-2zm-18 3v1h2v-1h-2z" style="opacity:.1;paint-order:normal"/>
 <path d="m26.41 16.09c0.056297 0.1253 0.089844 0.26342 0.089844 0.41016v4c0 0.554-0.446 1-1 1h-4c-0.14674 0-0.28485-0.033547-0.41016-0.089844 0.15625 0.34778 0.50289 0.58984 0.91016 0.58984h4c0.554 0 1-0.446 1-1v-4c0-0.40726-0.24207-0.7539-0.58984-0.91016zm9 5c0.056297 0.1253 0.089844 0.26342 0.089844 0.41016v4c0 0.554-0.446 1-1 1h-4c-0.14674 0-0.28485-0.033547-0.41016-0.089844 0.15625 0.34778 0.50289 0.58984 0.91016 0.58984h4c0.554 0 1-0.446 1-1v-4c0-0.40726-0.24207-0.7539-0.58984-0.91016zm-18 3c0.056297 0.1253 0.089844 0.26342 0.089844 0.41016v4c0 0.554-0.446 1-1 1h-4c-0.14674 0-0.28485-0.033547-0.41016-0.089844 0.15625 0.34778 0.50289 0.58984 0.91016 0.58984h4c0.554 0 1-0.446 1-1v-4c0-0.40726-0.24207-0.7539-0.58984-0.91016z" style="opacity:.1;paint-order:normal"/>
</svg>
