<?xml version="1.0" encoding="UTF-8"?>
<svg id="svg29" version="1.1" viewBox="0 0 48 48" xmlns="http://www.w3.org/2000/svg" xmlns:cc="http://creativecommons.org/ns#" xmlns:dc="http://purl.org/dc/elements/1.1/" xmlns:rdf="http://www.w3.org/1999/02/22-rdf-syntax-ns#">
 <metadata id="metadata33">
  <rdf:RDF>
   <cc:Work rdf:about="">
    <dc:format>image/svg+xml</dc:format>
    <dc:type rdf:resource="http://purl.org/dc/dcmitype/StillImage"/>
    <dc:title/>
   </cc:Work>
  </rdf:RDF>
 </metadata>
 <defs id="defs7">
  <linearGradient id="linearGradient3021" x2="0" y1="46.835" y2="1" gradientUnits="userSpaceOnUse">
   <stop id="stop2" style="stop-color:#a0b1b8" offset="0"/>
   <stop id="stop4" style="stop-color:#abbac1" offset="1"/>
  </linearGradient>
 </defs>
 <g id="g15">
  <path id="path9" d="m36.31 5c5.859 4.062 9.688 10.831 9.688 18.5 0 12.426-10.07 22.5-22.5 22.5-7.669 0-14.438-3.828-18.5-9.688 1.037 1.822 2.306 3.499 3.781 4.969 4.085 3.712 9.514 5.969 15.469 5.969 12.703 0 23-10.298 23-23 0-5.954-2.256-11.384-5.969-15.469-1.469-1.475-3.147-2.744-4.969-3.781zm4.969 3.781c3.854 4.113 6.219 9.637 6.219 15.719 0 12.703-10.297 23-23 23-6.081 0-11.606-2.364-15.719-6.219 4.16 4.144 9.883 6.719 16.219 6.719 12.703 0 23-10.298 23-23 0-6.335-2.575-12.06-6.719-16.219z" style="opacity:.05"/>
  <path id="path11" d="m41.28 8.781c3.712 4.085 5.969 9.514 5.969 15.469 0 12.703-10.297 23-23 23-5.954 0-11.384-2.256-15.469-5.969 4.113 3.854 9.637 6.219 15.719 6.219 12.703 0 23-10.298 23-23 0-6.081-2.364-11.606-6.219-15.719z" style="opacity:.1"/>
  <path id="path13" d="m31.25 2.375c8.615 3.154 14.75 11.417 14.75 21.13 0 12.426-10.07 22.5-22.5 22.5-9.708 0-17.971-6.135-21.12-14.75a23 23 0 0 0 44.875 -7 23 23 0 0 0 -16 -21.875z" style="opacity:.2"/>
 </g>
 <g id="g23">
  <path id="path17" d="m24 1c12.703 0 23 10.297 23 23s-10.297 23-23 23-23-10.297-23-23 10.297-23 23-23z" style="fill:url(#linearGradient3021)"/>
 </g>
 <path id="path21-3" d="m24 1v7h-7v-5.906c-0.337 0.108-0.67 0.221-1 0.344v5.563h-7v-1.438c-0.346 0.298-0.673 0.62-1 0.938v0.5h-0.5c-0.318 0.327-0.64 0.654-0.938 1h1.438v7h-5.563c-0.123 0.33-0.236 0.663-0.344 1h5.906v7h-7c0 0.334 0.017 0.669 0.031 1h6.969v7h-5.563c0.127 0.342 0.264 0.666 0.406 1h5.156v7h-0.5c0.481 0.496 0.976 0.986 1.5 1.438v-0.438h7v4.563c0.33 0.123 0.663 0.236 1 0.344v-4.906h7v6c0.334 0 0.669-0.017 1-0.031v-5.969h7v4.563c0.342-0.127 0.666-0.264 1-0.406v-4.156h6.5c0.522-0.476 1.024-0.978 1.5-1.5v-6.5h4.156c0.142-0.334 0.279-0.658 0.406-1h-4.563v-7h5.969c0.014-0.331 0.031-0.666 0.031-1h-6v-7h4.906c-0.108-0.337-0.221-0.67-0.344-1h-4.563v-7h0.438c-0.451-0.524-0.941-1.019-1.438-1.5v0.5h-7v-5.156c-0.334-0.142-0.658-0.279-1-0.406v5.563h-7v-6.969c-0.331-0.014-0.666-0.031-1-0.031zm-15 8h7v7h-7zm8 0h7v7h-7zm8 0h7v7h-7zm8 0h7v7h-7zm-24 8h7v7h-7zm8 0h7v7h-7zm8 0h7v7h-7zm8 0h7v7h-7zm-24 8h7v7h-7zm8 0h7v7h-7zm8 0h7v7h-7zm8 0h7v7h-7zm-24 8h7v7h-7zm8 0h7v7h-7zm8 0h7v7h-7zm8 0h7v7h-7z" style="fill-opacity:.94;opacity:.1"/>
 <g id="g27">
  <path id="path25" d="m40.03 7.531c3.712 4.084 5.969 9.514 5.969 15.469 0 12.703-10.297 23-23 23-5.954 0-11.384-2.256-15.469-5.969 4.178 4.291 10.01 6.969 16.469 6.969 12.703 0 23-10.298 23-23 0-6.462-2.677-12.291-6.969-16.469z" style="opacity:.1"/>
 </g>
 <path id="path19" d="m25 16s-0.925 3.775-1.736 5.295c-0.355 0.665-0.706 0.79-1.354 0.707-0.333 0.667-0.667 1.333-1 2-0.333-1.333-0.577-2.667-0.91-4-0.333 1.333-0.757 2.667-1.09 4l-1.359-1.361c-0.551-0.641-1.11 0.308-1.641 0.361l-1.91-2-2.09 2-0.91-2-3 2.998h-6.998c0 0.674 0.035 1.34 0.092 2h6.906l3 2.998 0.91-2 2.09 2 1.91-2c0.531 0.053 1.09 1 1.641 0.361l1.359-1.361c0.333 1.333 0.757 2.667 1.09 4 0.333-1.333 0.577-2.667 0.91-4 0.333 0.667 0.667 1.333 1 2 0.648-0.083 0.999 0.042 1.354 0.707 0.811 1.52 1.736 5.295 1.736 5.295s1.172-3.598 1.91-5c0.66 0.088 0.996 0.012 1.25-0.75l0.75-2.25 2 1.5 2-1.5 2.09 4.803 1.91-3.803 2 2 1-3 2 2 2.1-2h2.898c0.057-0.658 0.092-1.323 0.092-1.996h-2.99l-2.1-2-2 2-1-3-2 2-1.91-3.803-2.09 4.803-2-1.5-2 1.5-0.75-2.25c-0.254-0.762-0.59-0.838-1.25-0.75-0.738-1.404-1.91-5-1.91-5z" style="opacity:.1"/>
 <path id="path21" d="m24 15s-0.925 3.775-1.736 5.295c-0.355 0.665-0.706 0.79-1.354 0.707-0.333 0.667-0.667 1.333-1 2-0.333-1.333-0.577-2.667-0.91-4-0.333 1.333-0.757 2.667-1.09 4l-1.359-1.361c-0.551-0.641-1.11 0.308-1.641 0.361l-1.91-2-2.09 2-0.91-2-3 2.998h-5.973c-0.014 0.332-0.025 0.665-0.025 1s0.011 0.668 0.025 1h5.973l3 2.998 0.91-2 2.09 2 1.91-2c0.531 0.053 1.09 1 1.641 0.361l1.359-1.361c0.333 1.333 0.757 2.667 1.09 4 0.333-1.333 0.577-2.667 0.91-4 0.333 0.667 0.667 1.333 1 2 0.648-0.083 0.999 0.042 1.354 0.707 0.811 1.52 1.736 5.295 1.736 5.295s1.172-3.598 1.91-5c0.66 0.088 0.996 0.012 1.25-0.75l0.75-2.25 2 1.5 2-1.5 2.09 4.803 1.91-3.803 2 2 1-3 2 2 2.1-2h3.965c0.014-0.331 0.025-0.663 0.025-0.998s-0.011-0.667-0.025-0.998h-3.965l-2.1-2-2 2-1-3-2 2-1.91-3.803-2.09 4.803-2-1.5-2 1.5-0.75-2.25c-0.254-0.762-0.59-0.838-1.25-0.75-0.738-1.404-1.91-5-1.91-5z" style="fill:#404040"/>
</svg>
