<svg version="1.1" viewBox="0 0 48 48" xmlns="http://www.w3.org/2000/svg">
 <defs>
  <linearGradient id="bg" x1="1" x2="47" gradientTransform="matrix(0 -1 1 0 -1.5e-6 48)" gradientUnits="userSpaceOnUse">
   <stop style="stop-color:#e4e4e4" offset="0"/>
   <stop style="stop-color:#eee" offset="1"/>
  </linearGradient>
 </defs>
 <path d="m36.31 5c5.859 4.062 9.688 10.831 9.688 18.5 0 12.426-10.07 22.5-22.5 22.5-7.669 0-14.438-3.828-18.5-9.688 1.037 1.822 2.306 3.499 3.781 4.969 4.085 3.712 9.514 5.969 15.469 5.969 12.703 0 23-10.298 23-23 0-5.954-2.256-11.384-5.969-15.469-1.469-1.475-3.147-2.744-4.969-3.781zm4.969 3.781c3.854 4.113 6.219 9.637 6.219 15.719 0 12.703-10.297 23-23 23-6.081 0-11.606-2.364-15.719-6.219 4.16 4.144 9.883 6.719 16.219 6.719 12.703 0 23-10.298 23-23 0-6.335-2.575-12.06-6.719-16.219z" style="opacity:.05"/>
 <path d="m41.28 8.781c3.712 4.085 5.969 9.514 5.969 15.469 0 12.703-10.297 23-23 23-5.954 0-11.384-2.256-15.469-5.969 4.113 3.854 9.637 6.219 15.719 6.219 12.703 0 23-10.298 23-23 0-6.081-2.364-11.606-6.219-15.719z" style="opacity:.1"/>
 <path d="m31.25 2.375c8.615 3.154 14.75 11.417 14.75 21.13 0 12.426-10.07 22.5-22.5 22.5-9.708 0-17.971-6.135-21.12-14.75a23 23 0 0 0 44.875-7 23 23 0 0 0-16-21.875z" style="opacity:.2"/>
 <path d="m24 1c12.703 0 23 10.297 23 23s-10.297 23-23 23-23-10.297-23-23 10.297-23 23-23z" style="fill:url(#bg)"/>
 <path d="m40.03 7.531c3.712 4.084 5.969 9.514 5.969 15.469 0 12.703-10.297 23-23 23-5.954 0-11.384-2.256-15.469-5.969 4.178 4.291 10.01 6.969 16.469 6.969 12.703 0 23-10.298 23-23 0-6.462-2.677-12.291-6.969-16.469z" style="opacity:.1"/>
 <path d="m15.059 13a1.9984 1.9984 0 0 0-2.0587 1.9984 1.9984 1.9984 0 0 0 2.0587 2.002 1.9984 1.9984 0 0 0 1.9417-2.002 1.9984 1.9984 0 0 0-1.9417-1.9984m1.9417 1.9984a2.0002 2.0002 0 0 0 4.0004 0 2.0002 2.0002 0 1 0-4.0004 0zm4.0004 0a2.0002 2.0002 0 0 0 4.0004 0 2.0002 2.0002 0 1 0-4.0004 0zm4.0004 0a2.0002 2.0002 0 0 0 4.0004 0 2.0002 2.0002 0 1 0-4.0004 0zm4.0004 0a2.0002 2.0002 0 0 0 4.0004 0 2.0002 2.0002 0 1 0-4.0004 0zm4.0004 0a2.0002 2.0002 0 0 0 4.0004 0 2.0002 2.0002 0 1 0-4.0004 0zm-17.943 2.002a1.9984 1.9984 0 0 0-2.0587 1.9984 1.9984 1.9984 0 0 0 2.0587 2.002 1.9984 1.9984 0 0 0 1.9417-2.002 1.9984 1.9984 0 0 0-1.9417-1.9984m1.9417 1.9984a2.0002 2.0002 0 0 0 4.0004 0 2.0002 2.0002 0 1 0-4.0004 0zm4.0004 0a2.0002 2.0002 0 0 0 4.0004 0 2.0002 2.0002 0 1 0-4.0004 0zm4.0004 0a2.0002 2.0002 0 0 0 4.0004 0 2.0002 2.0002 0 1 0-4.0004 0zm4.0004 0a2.0002 2.0002 0 0 0 4.0004 0 2.0002 2.0002 0 1 0-4.0004 0zm4.0004 0a2.0002 2.0002 0 0 0 4.0004 0 2.0002 2.0002 0 1 0-4.0004 0zm-17.943 2.002a1.9984 1.9984 0 0 0-2.0587 1.9984 1.9984 1.9984 0 0 0 2.0587 2.0161 1.9984 1.9984 0 0 0 1.9417-2.0161 1.9984 1.9984 0 0 0-1.9417-1.9984m1.9417 1.9984a2.0002 2.0002 0 0 0 4.0004 0 2.0002 2.0002 0 1 0-4.0004 0zm4.0004 0a2.0002 2.0002 0 0 0 4.0004 0 2.0002 2.0002 0 1 0-4.0004 0zm4.0004 0a2.0002 2.0002 0 0 0 4.0004 0 2.0002 2.0002 0 1 0-4.0004 0zm4.0004 0a1.9984 1.9984 0 0 0 2.0587 1.9984 1.9984 1.9984 0 0 0 1.9417-1.9984 2.0002 2.0002 0 1 0-4.0004 0zm4.0004 0a1.9984 1.9984 0 0 0 2.0587 1.9984 1.9984 1.9984 0 0 0 1.9417-1.9984 2.0002 2.0002 0 1 0-4.0004 0zm2.0587 1.9984a1.9984 1.9984 0 0 0-2.0622 1.9984 1.9984 1.9984 0 0 0-1.9417-1.9807 1.9984 1.9984 0 0 0-2.0587 1.9843 1.9984 1.9984 0 0 0 1.9417 1.9984 1.9984 1.9984 0 0 0 2.0587-1.9984 2.0002 2.0002 0 0 0 4.0004 0 1.9984 1.9984 0 0 0-1.9417-1.9843m-4.1173 4.0004a1.9984 1.9984 0 0 0-1.9417 1.9984 2.0002 2.0002 0 0 0 4.0004 0 1.9984 1.9984 0 0 0-2.0587-1.9984zm2.0587 1.9984a2.0002 2.0002 0 0 0 4.0004 0 2.0002 2.0002 0 1 0-4.0004 0zm-4.0004 0a2.0002 2.0002 0 1 0-4.0004 0 2.0002 2.0002 0 0 0 4.0004 0zm-4.0004 0a2.0002 2.0002 0 1 0-4.0004 0 2.0002 2.0002 0 0 0 4.0004 0zm-4.0004 0a2.0002 2.0002 0 1 0-4.0004 0 2.0002 2.0002 0 0 0 4.0004 0zm-4.0004 0a1.9984 1.9984 0 0 0-1.9382-2.0161 1.9984 1.9984 0 0 0-2.0587 2.002 1.9984 1.9984 0 0 0 2.0587 1.9984 1.9984 1.9984 0 0 0 1.9417-1.9984m-1.9417 1.9984a1.9984 1.9984 0 0 0-2.0587 1.9984 2.0002 2.0002 0 0 0 4.0004 0 1.9984 1.9984 0 0 0-1.9417-1.9984m1.9417 1.9984a2.0002 2.0002 0 0 0 4.0004 0 2.0002 2.0002 0 1 0-4.0004 0zm4.0004 0a2.0002 2.0002 0 0 0 4.0004 0 2.0002 2.0002 0 1 0-4.0004 0zm4.0004 0a2.0002 2.0002 0 0 0 4.0004 0 2.0002 2.0002 0 1 0-4.0004 0zm4.0004 0a2.0002 2.0002 0 0 0 4.0004 0 2.0002 2.0002 0 1 0-4.0004 0zm4.0004 0a2.0002 2.0002 0 0 0 4.0004 0 2.0002 2.0002 0 1 0-4.0004 0zm-17.943-5.9988a1.9984 1.9984 0 0 0 1.9417-1.9984 1.9984 1.9984 0 0 0-1.9417-1.9843 1.9984 1.9984 0 0 0-2.0587 1.9843 1.9984 1.9984 0 0 0 2.0587 1.9984m1.9417-1.9984a2.0002 2.0002 0 0 0 4.0004 0 2.0002 2.0002 0 1 0-4.0004 0zm4.0004 0a2.0002 2.0002 0 0 0 4.0004 0 2.0002 2.0002 0 1 0-4.0004 0zm4.0004 0a2.0002 2.0002 0 0 0 4.0004 0 2.0002 2.0002 0 1 0-4.0004 0z" style="opacity:.1"/>
 <path d="m16 14a2 2 0 1 1-4 0 2 2 0 1 1 4 0z" style="fill:#e76a6a"/>
 <path d="m16 18a2 2 0 1 1-4 0 2 2 0 1 1 4 0z" style="fill:#e76a6a"/>
 <path d="m16 26a2 2 0 1 1-4 0 2 2 0 1 1 4 0z" style="fill:#e76a6a"/>
 <path d="m16 22a2 2 0 1 1-4 0 2 2 0 1 1 4 0z" style="fill:#e76a6a"/>
 <path d="m16 30a2 2 0 1 1-4 0 2 2 0 1 1 4 0z" style="fill:#e76a6a"/>
 <path d="m16 34a2 2 0 1 1-4 0 2 2 0 1 1 4 0z" style="fill:#e76a6a"/>
 <path d="m20 14a2 2 0 1 1-4 0 2 2 0 1 1 4 0z" style="fill:#e76a6a"/>
 <path d="m20 18a2 2 0 1 1-4 0 2 2 0 1 1 4 0z" style="fill:#e76a6a"/>
 <path d="m20 26a2 2 0 1 1-4 0 2 2 0 1 1 4 0z" style="fill:#e76a6a"/>
 <path d="m20 22a2 2 0 1 1-4 0 2 2 0 1 1 4 0z" style="fill:#e76a6a"/>
 <path d="m20 30a2 2 0 1 1-4 0 2 2 0 1 1 4 0z" style="fill:#e76a6a"/>
 <path d="m20 34a2 2 0 1 1-4 0 2 2 0 1 1 4 0z" style="fill:#e76a6a"/>
 <path d="m24 14a2 2 0 1 1-4 0 2 2 0 1 1 4 0z" style="fill:#e3c72e"/>
 <path d="m24 18a2 2 0 1 1-4 0 2 2 0 1 1 4 0z" style="fill:#e3c72e"/>
 <path d="m24 26a2 2 0 1 1-4 0 2 2 0 1 1 4 0z" style="fill:#e3c72e"/>
 <path d="m24 22a2 2 0 1 1-4 0 2 2 0 1 1 4 0z" style="fill:#e3c72e"/>
 <path d="m24 30a2 2 0 1 1-4 0 2 2 0 1 1 4 0z" style="fill:#e3c72e"/>
 <path d="m24 34a2 2 0 1 1-4 0 2 2 0 1 1 4 0z" style="fill:#e3c72e"/>
 <path d="m28 14a2 2 0 1 1-4 0 2 2 0 1 1 4 0z" style="fill:#e3c72e"/>
 <path d="m28 18a2 2 0 1 1-4 0 2 2 0 1 1 4 0z" style="fill:#e3c72e"/>
 <path d="m28 26a2 2 0 1 1-4 0 2 2 0 1 1 4 0z" style="fill:#e3c72e"/>
 <path d="m28 22a2 2 0 1 1-4 0 2 2 0 1 1 4 0z" style="fill:#e3c72e"/>
 <path d="m28 30a2 2 0 1 1-4 0 2 2 0 1 1 4 0z" style="fill:#e3c72e"/>
 <path d="m28 34a2 2 0 1 1-4 0 2 2 0 1 1 4 0z" style="fill:#e3c72e"/>
 <path d="m32 14a2 2 0 1 1-4 0 2 2 0 1 1 4 0z" style="fill:#5bc548"/>
 <path d="m32 18a2 2 0 1 1-4 0 2 2 0 1 1 4 0z" style="fill:#5bc548"/>
 <path d="m32 26a2 2 0 1 1-4 0 2 2 0 1 1 4 0z" style="fill:#5bc548"/>
 <path d="m32 22a2 2 0 1 1-4 0 2 2 0 1 1 4 0z" style="fill:#5bc548"/>
 <path d="m32 30a2 2 0 1 1-4 0 2 2 0 1 1 4 0z" style="fill:#5bc548"/>
 <path d="m32 34a2 2 0 1 1-4 0 2 2 0 1 1 4 0z" style="fill:#5bc548"/>
 <path d="m36 14a2 2 0 1 1-4 0 2 2 0 1 1 4 0z" style="fill:#5bc548"/>
 <path d="m36 18a2 2 0 1 1-4 0 2 2 0 1 1 4 0z" style="fill:#5bc548"/>
 <path d="m36 26a2 2 0 1 1-4 0 2 2 0 1 1 4 0z" style="fill:#5bc548"/>
 <path d="m36 22a2 2 0 1 1-4 0 2 2 0 1 1 4 0z" style="fill:#5bc548"/>
 <path d="m36 30a2 2 0 1 1-4 0 2 2 0 1 1 4 0z" style="fill:#5bc548"/>
 <path d="m36 34a2 2 0 1 1-4 0 2 2 0 1 1 4 0z" style="fill:#5bc548"/>
</svg>
