<svg version="1.1" viewBox="0 0 48 48" xmlns="http://www.w3.org/2000/svg" xmlns:xlink="http://www.w3.org/1999/xlink">
 <defs>
  <linearGradient id="linearGradient5571">
   <stop style="stop-color:#729fcf" offset="0"/>
   <stop style="stop-color:#f9f9f9" offset="1"/>
  </linearGradient>
  <linearGradient id="linearGradient3964" x1="70.08" x2="30.15" y1="104.15" y2="72.58" gradientTransform="matrix(.32592 5.3634e-5 -5.5474e-5 .31511 3.1736 2.06)" gradientUnits="userSpaceOnUse" xlink:href="#linearGradient5571"/>
  <radialGradient id="radialGradient3966" cx="78.84" cy="65.43" r="36.617" gradientTransform="matrix(.25576 -.11182 .047612 .1018 5.8745 25.15)" gradientUnits="userSpaceOnUse" xlink:href="#linearGradient5571"/>
  <linearGradient id="bg" x1="1" x2="47" gradientTransform="rotate(-90,24,24)" gradientUnits="userSpaceOnUse">
   <stop style="stop-color:#99d55f" offset="0"/>
   <stop style="stop-color:#a3d96f" offset="1"/>
  </linearGradient>
 </defs>
 <path d="m36.31 5c5.859 4.062 9.688 10.831 9.688 18.5 0 12.426-10.07 22.5-22.5 22.5-7.669 0-14.438-3.828-18.5-9.688 1.037 1.822 2.306 3.499 3.781 4.969 4.085 3.712 9.514 5.969 15.469 5.969 12.703 0 23-10.298 23-23 0-5.954-2.256-11.384-5.969-15.469-1.469-1.475-3.147-2.744-4.969-3.781zm4.969 3.781c3.854 4.113 6.219 9.637 6.219 15.719 0 12.703-10.297 23-23 23-6.081 0-11.606-2.364-15.719-6.219 4.16 4.144 9.883 6.719 16.219 6.719 12.703 0 23-10.298 23-23 0-6.335-2.575-12.06-6.719-16.219z" style="opacity:.05"/>
 <path d="m41.28 8.781c3.712 4.085 5.969 9.514 5.969 15.469 0 12.703-10.297 23-23 23-5.954 0-11.384-2.256-15.469-5.969 4.113 3.854 9.637 6.219 15.719 6.219 12.703 0 23-10.298 23-23 0-6.081-2.364-11.606-6.219-15.719z" style="opacity:.1"/>
 <path d="m31.25 2.375c8.615 3.154 14.75 11.417 14.75 21.13 0 12.426-10.07 22.5-22.5 22.5-9.708 0-17.971-6.135-21.12-14.75a23 23 0 0 0 44.875-7 23 23 0 0 0-16-21.875z" style="opacity:.2"/>
 <path d="m1 24c0-12.703 10.297-23 23-23s23 10.297 23 23-10.297 23-23 23-23-10.297-23-23z" style="fill:url(#bg)"/>
 <path d="m28.754 11c-0.097-8e-3 -0.163 8e-3 -0.203 0.045-0.43 0.403 2.237 3.326 2.047 7.703-0.217 4.981-7.701 5.205-6.885 10.313-0.781-0.258-1.205-1.121-1.018-3.03 0.314-3.186-2.92-3.954-4.203-3.238-1.541 0.86-2.187 2.423-2.189 4.285-0.747-0.3-1.419-0.758-1.93-1.537-2.424-3.694-1.028-7.529-2.277-6.18s-0.734 3.836-0.734 3.836-0.441-2.557-0.955-1.137 0.809 3.621 0.809 3.621-1.469-2.415-1.176-0.924c0.294 1.492 1.762 3.055 1.762 3.055s-1.248-1.349-1.102-0.213c0.147 1.136 2.424 2.061 2.424 2.061s-1.911 0.355-0.662 1.35 3.82 0.143 3.82 0.143-1.983 1.561 0.074 2.059c0.602 0.146 1.189 0.145 1.73 0.08 0.182 0.351 0.356 0.704 0.561 1.047 3.964 6.641 15.02 3.806 15.762-5.05 1.9 0.236 5.25-1.315 5.559-2.43 0.291-1.049-1.465-0.418-1.961-0.17 0.46-0.248 2.375-1.194 1.686-2.496-0.473-0.892-1.422-0.143-2.115 0.611-0.403 0.584-0.83 1.033-0.83 1.033s0.355-0.517 0.83-1.033c0.6-0.868 1.138-2.044 0.082-2.502-0.674-0.292-1.179 0.123-1.547 0.738-0.151 1.082-0.775 2.127-0.775 2.127s0.179-1.129 0.775-2.127c0.097-0.7-0.039-1.3-0.709-1.127-0.261 0.068-0.562 0.126-0.873 0.191 0.304-0.407 1.594-2.233 1.107-3.348-0.546-1.253-0.998 0.852-0.998 0.852s0.549-2.444-0.064-4.146-0.643 1.621-0.643 1.621 0.01-3.02-1.391-4.182c-1.4-1.165-0.281 1.715-0.281 1.715s-1.01-2.854-3.117-3.525c-0.165-0.052-0.292-0.082-0.389-0.09z" style="opacity:.1"/>
 <path d="m40.03 7.531c3.712 4.084 5.969 9.514 5.969 15.469 0 12.703-10.297 23-23 23-5.954 0-11.384-2.256-15.469-5.969 4.178 4.291 10.01 6.969 16.469 6.969 12.703 0 23-10.298 23-23 0-6.462-2.677-12.291-6.969-16.469z" style="opacity:.1"/>
 <path d="m23.07 29.804c-1.344-4.852-7.272-1.564-9.696-5.257-2.424-3.694-1.027-7.529-2.276-6.179-1.249 1.349-0.735 3.835-0.735 3.835s-0.44-2.557-0.955-1.137c-0.514 1.42 0.807 3.622 0.807 3.622s-1.469-2.415-1.175-0.923 1.762 3.054 1.762 3.054-1.249-1.35-1.102-0.213c0.147 1.136 2.424 2.06 2.424 2.06s-1.91 0.355-0.661 1.349c1.249 0.995 3.82 0.143 3.82 0.143s-1.984 1.562 0.073 2.06c2.057 0.497 4.04-0.639 4.04-0.639s-0.808 1.846 1.249 1.705c2.057-0.142 2.921-1.69 2.425-3.48z" style="fill:url(#linearGradient3964)"/>
 <path d="m27.552 10.05c-0.43 0.403 2.237 3.326 2.047 7.704-0.217 4.981-7.702 5.204-6.886 10.312-0.781-0.258-1.205-1.121-1.018-3.02 0.314-3.186-2.919-3.953-4.202-3.238-3.373 1.882-2.496 7.107 0.153 11.545 3.964 6.641 15.02 3.806 15.763-5.05 1.9 0.236 5.25-1.316 5.559-2.43 0.291-1.049-1.466-0.417-1.962-0.169 0.46-0.248 2.376-1.195 1.686-2.497-0.473-0.892-1.422-0.142-2.116 0.612-0.403 0.584-0.83 1.032-0.83 1.032s0.356-0.516 0.83-1.032c0.6-0.868 1.139-2.043 0.082-2.502-0.674-0.292-1.179 0.123-1.547 0.738-0.151 1.082-0.776 2.127-0.776 2.127s0.18-1.13 0.776-2.127c0.097-0.7-0.039-1.302-0.709-1.128-0.261 0.068-0.563 0.127-0.873 0.192 0.304-0.407 1.593-2.232 1.107-3.346-0.546-1.253-0.997 0.852-0.997 0.852s0.548-2.446-0.065-4.148-0.643 1.621-0.643 1.621 0.01-3.02-1.39-4.181c-1.4-1.165-0.282 1.715-0.282 1.715s-1-2.855-3.116-3.526c-0.33-0.105-0.512-0.12-0.591-0.045z" style="fill:url(#radialGradient3966)"/>
 <path d="m18.267 24.753c-0.211 0.018-0.442 0.055-0.717 0.132 0.401 0.125 0.703 0.462 0.859 0.766 0.374-0.346 0.339-0.562 0.906-0.68-0.207-0.124-0.423-0.207-0.679-0.23-0.17-0.215-0.183-0.036-0.369 0.012z" style="fill:#555753"/>
 <path d="m22.855 28.718c-1.595-5.76 6.518-5.779 6.744-10.967s-3.563-8.33-1.451-7.659 3.109 3.522 3.109 3.522-1.116-2.882 0.284-1.716c1.4 1.165 1.392 4.188 1.392 4.188s0.029-3.326 0.642-1.624 0.062 4.151 0.062 4.151 0.456-2.104 1-0.851c0.546 1.253-1.228 3.508-1.228 3.508s2.182-0.731 1.508 1.01c-0.674 1.739-3.84 2.337-3.84 2.337s2.998 0.469 1.189 2.16c-1.81 1.691-4.546 1.661-4.546 1.661" style="fill:#f9f9f9"/>
 <path d="m18.549 24.609c-0.038-0.017-0.079-0.011-0.109 4e-3 -0.059 0.029-0.099 0.078-0.176 0.1-2e-3 1e-3 -3e-3 1e-3 -6e-3 2e-3 -0.212 0.018-0.443 0.054-0.719 0.131l-0.131 0.037 0.129 0.041c0.387 0.121 0.684 0.45 0.836 0.746l0.023 0.047 0.039-0.037c0.191-0.176 0.278-0.318 0.383-0.426 0.104-0.107 0.226-0.186 0.504-0.244l0.1-0.02-0.088-0.053c-0.205-0.123-0.423-0.204-0.676-0.23-0.039-0.048-0.074-0.082-0.109-0.098zm-0.033 0.074c0.018 8e-3 0.047 0.033 0.088 0.084l0.012 0.012 0.018 2e-3c0.218 0.02 0.399 0.1 0.578 0.197-0.199 0.058-0.356 0.123-0.449 0.219-0.106 0.109-0.196 0.243-0.357 0.398-0.152-0.274-0.424-0.544-0.771-0.686 0.237-0.061 0.449-0.101 0.637-0.117h8e-3l0.029-2e-3v-0.014c0.078-0.03 0.138-0.077 0.168-0.092 0.017-9e-3 0.023-0.01 0.041-2e-3z" style="fill:#b9cee5"/>
 <path d="m16.768 22.729s1.41 0.337 0.845 1.649c-1.287-0.518 0.466-1.122-0.845-1.649z" style="fill:#b9cee5"/>
 <path d="m17.591 23.814a0.548 0.53 0 0 1-1.012-0.407 0.548 0.53 0 1 1 1.012 0.407z" style="fill:#3d3d3d"/>
 <path d="m17.482 23.546a0.339 0.186 21.327 0 1-0.63-0.253 0.339 0.186 21.327 1 1 0.63 0.253z" style="fill:#c7d9ec"/>
 <path d="m20.835 23.254s-1.452-0.032-1.263 1.378c1.383-0.174-0.146-1.201 1.263-1.378z" style="fill:#b9cee5"/>
 <path d="m19.746 24.09a0.548 0.53 0 1 0 1.087-0.136 0.548 0.53 0 1 0-1.087 0.136z" style="fill:#3d3d3d"/>
 <path d="m19.924 23.861a0.186 0.341 83.05 1 0 0.676-0.085 0.186 0.341 83.05 1 0-0.676 0.085z" style="fill:#c7d9ec"/>
 <path d="m18.347 24.893a0.074 0.063 83.929 0 1-0.125 0.011 0.074 0.063 83.929 1 1 0.125-0.011z" style="fill:#2d2d2d"/>
 <path d="m18.752 24.928a0.067 0.079 11.207 0 1-0.131-0.021 0.067 0.079 11.207 1 1 0.131 0.021z" style="fill:#2d2d2d"/>
</svg>
