<svg version="1.1" viewBox="0 0 48 48" xmlns="http://www.w3.org/2000/svg">
 <defs>
  <linearGradient id="bg" x2="0" y1="1" y2="47" gradientUnits="userSpaceOnUse">
   <stop style="stop-color:#6b9eb3" offset="0"/>
   <stop style="stop-color:#5e96ac" offset="1"/>
  </linearGradient>
 </defs>
 <path d="m36.31 5c5.859 4.062 9.688 10.831 9.688 18.5 0 12.426-10.07 22.5-22.5 22.5-7.669 0-14.438-3.828-18.5-9.688 1.037 1.822 2.306 3.499 3.781 4.969 4.085 3.712 9.514 5.969 15.469 5.969 12.703 0 23-10.298 23-23 0-5.954-2.256-11.384-5.969-15.469-1.469-1.475-3.147-2.744-4.969-3.781zm4.969 3.781c3.854 4.113 6.219 9.637 6.219 15.719 0 12.703-10.297 23-23 23-6.081 0-11.606-2.364-15.719-6.219 4.16 4.144 9.883 6.719 16.219 6.719 12.703 0 23-10.298 23-23 0-6.335-2.575-12.06-6.719-16.219z" style="opacity:.05"/>
 <path d="m41.28 8.781c3.712 4.085 5.969 9.514 5.969 15.469 0 12.703-10.297 23-23 23-5.954 0-11.384-2.256-15.469-5.969 4.113 3.854 9.637 6.219 15.719 6.219 12.703 0 23-10.298 23-23 0-6.081-2.364-11.606-6.219-15.719z" style="opacity:.1"/>
 <path d="m31.25 2.375c8.615 3.154 14.75 11.417 14.75 21.13 0 12.426-10.07 22.5-22.5 22.5-9.708 0-17.971-6.135-21.12-14.75a23 23 0 0 0 44.875-7 23 23 0 0 0-16-21.875z" style="opacity:.2"/>
 <circle cx="24" cy="24" r="23" style="fill:url(#bg)"/>
 <path d="m40.03 7.531c3.712 4.084 5.969 9.514 5.969 15.469 0 12.703-10.297 23-23 23-5.954 0-11.384-2.256-15.469-5.969 4.178 4.291 10.01 6.969 16.469 6.969 12.703 0 23-10.298 23-23 0-6.462-2.677-12.291-6.969-16.469z" style="opacity:.1"/>
 <circle cx="25" cy="25" r="15" style="opacity:.1"/>
 <path d="m28.943 9.8398c-8.9839 1.1874-18.943 7.1785-19.918 15.035 0.46342 7.9309 7.0302 14.125 14.975 14.125 7.8574-2.11e-4 14.383-6.0641 14.959-13.9l-1.4258-7.5723c-1.725-3.6043-4.8169-6.3714-8.5898-7.6875z" style="fill:#496ab6"/>
 <path d="m35 21c-2.4669-2.773-7.2885-5-11-5-3.7115-1e-5 -8.5331 2.227-11 5 2.6086-2.1548 7.3772-3.9996 11-4 3.6228 4.41e-4 8.3914 1.8452 11 4zm0 6c-2.6086 2.1548-7.3772 3.9996-11 4-3.6228-4.41e-4 -8.3914-1.8452-11-4 2.4669 2.773 7.2885 5 11 5 3.7115 1e-5 8.5331-2.227 11-5z" style="fill:#fff;opacity:.4"/>
 <path d="m21 13c-2.773 2.4669-5 7.2885-5 11-1e-5 3.7115 2.227 8.5331 5 11-2.1548-2.6086-3.9996-7.3772-4-11 4.41e-4 -3.6228 1.8452-8.3914 4-11zm6 0c2.1548 2.6086 3.9996 7.3772 4 11-4.41e-4 3.6228-1.8452 8.3914-4 11 2.773-2.4669 5-7.2885 5-11 1e-5 -3.7115-2.227-8.5331-5-11z" style="fill:#fff;opacity:.4"/>
 <path d="m24 23c-0.34298 0.3234-0.6766 0.65702-1 1-2.7536 2.9204-3 3-8 9 6-5 6.0796-5.2464 9-8 0.34298-0.3234 0.6766-0.65702 1-1 2.7536-2.9204 3-3 8-9-6 5-6.0796 5.2464-9 8z" style="fill:#fff;opacity:.4"/>
 <path d="m24 23c0.34298 0.3234 0.6766 0.65702 1 1 2.7536 2.9204 3 3 8 9-6-5-6.0796-5.2464-9-8-0.34298-0.3234-0.6766-0.65702-1-1-2.7536-2.9204-3-3-8-9 6 5 6.0796 5.2464 9 8z" style="fill:#fffff9;opacity:.4"/>
 <path d="m28.943 9.8398c-8.9839 1.1874-18.943 7.1787-19.918 15.035 0.039857 0.6821 0.14043 1.3445 0.26758 1.998 1.3738-2.438 5.7445-6.873 6.707-6.873 1 0 1.3478 3.0381 2.9492 4.7949 0.16645 0.18256 0.34695 0.36533 0.52148 0.54883-0.0075-0.0065-0.01595-0.01304-0.02344-0.01953 1.1246 1.1847 2.394 2.3578 3.6016 3.0977 0.29847 0.1365 0.77592 0.33947 1.0137 0.0098-0.01829-0.29846 0.28713-0.42101 0.28125-0.69531-0.05813-0.28083 0.32389-0.43737 0.22266-0.6875-0.25567-0.43812-0.53767-0.93607-0.83398-1.2598-0.28893-0.31559-0.78548-0.34084-1.0957-0.64453-0.2585-0.19611-0.48588-0.41127-0.69922-0.63672-0.25431-0.29998-0.51192-0.60072-0.72266-0.89062-0.18124-0.2622-0.35564-0.53262-0.52148-0.82031-0.81702-1.4185-0.69336-3.7969-0.69336-4.7969 0-0.49897 0.43641-1 1-1 3.0008 0 2.1299 2.6455 4.498 3.7129 0.15334 0.06912 0.31951 0.13277 0.50195 0.1875 0 0 0.42722 0.09961 0.69922 0.09961s0.86335-0.10129 1.0508-1c0.23773-0.71449 0.4167-1.4164 0.75-3 0.91434-0.22466 1.7954-0.78718 1.8008-1.5 0.0054-0.71282-0.30481-1.0716-1.3008-1.5 0.40113-0.62754 0.47198-1.3149 0-2 0.35856-0.23559 1.1857-0.86527 1.4062-1.5566-0.47547-0.22455-0.96179-0.42872-1.4629-0.60352zm-4.6484 24.311c-0.27822 0.57603-0.39971 0.93441-0.20117 1.3066 0.23446 0.32786 0.76009 0.48695 1.4805 0.49609 4.2781-0.08669 9.491-3.06 12.514-6.8164 0.46334-1.2721 0.76728-2.6248 0.87109-4.0371z" style="opacity:.1"/>
 <path d="m24 9c-8.24-5.67e-4 -15 6.7598-15 15 6.3e-6 0.29185 0.00842 0.58364 0.025391 0.875 1.1442-2.2089 4.9746-5.875 5.9746-5.875s1.3478 3.0381 2.9492 4.7949c0.16645 0.18256 0.34695 0.36533 0.52148 0.54883 1.7637 1.6562 3.7162 3.0618 4.123 2.6562 0.22205-0.2214 0.66122-1.1059-0.29688-2-0.75856-0.76583-1.5166-1.605-2.082-2.3828-0.18124-0.2622-0.35563-0.53262-0.52148-0.82031-0.81702-1.4185-0.69336-3.7969-0.69336-4.7969 0-0.49897 0.43641-1 1-1 3 0 3.2437 2.2075 4.498 3.7129 0.15334 0.06912 0.31951 0.13277 0.50195 0.1875 0.81506-0.02221 1.5123-0.18588 1.75-0.90039 0.23773-0.71449 0.4167-1.4164 0.75-3 0.91434-0.22466 1.7954-0.78718 1.8008-1.5s-0.30483-1.0716-1.3008-1.5c0.40113-0.62754 0.47198-1.3149 0-2 0.40251-0.26447 0.86586-0.71749 1-1.1699-1.5257-0.54398-3.341-0.82996-5-0.83008z" style="fill:#eef1f2"/>
 <path d="m26.75 19c-1.1869 0-1.4824 0.40668-1.75 0.9 0 0 0.428 0.1 0.7 0.1s0.86257-0.10129 1.05-1z" style="fill:#404040"/>
 <path d="m20 16c3.0008 0 2.1299 2.6455 4.498 3.7129-1.0689-1.716-0.36823-3.7129-4.498-3.7129zm0.25781 6.6777c0.37392 0.56015 1.3196 1.7465 1.9199 2.4082 0.95809 0.89409 0.42322 1.4348 0.20117 1.6562-0.40884 0.40753-2.3962-1.0876-3.9316-2.418 1.1246 1.1847 2.394 2.3578 3.6016 3.0977 0.29847 0.1365 0.77595 0.33954 1.0137 0.0098-0.01829-0.29846 0.28713-0.42101 0.28125-0.69531-0.05813-0.28083 0.32389-0.43737 0.22266-0.6875-0.25567-0.43812-0.53767-0.93611-0.83398-1.2598-0.28893-0.31559-0.78548-0.34084-1.0957-0.64453-0.55709-0.42255-0.99231-0.9175-1.3789-1.4668z" style="fill:#d3d8dd"/>
 <path d="m37.53 17.527c0.42517 3.3373-1.2801 6.1361-2.6902 7.7695-1.9593 2.423-9.9042 5.068-11.545 7.8535-0.27822 0.57603-0.39971 0.93437-0.20117 1.3066 0.23446 0.32786 0.76012 0.48695 1.4805 0.49609 5.3828-0.10907 12.262-4.7836 14.376-9.8438 0.03266-0.37618 0.04543-0.7325 0.05-1.1094-0.0052-2.2342-0.50471-4.4572-1.47-6.4727z" style="fill:#d3d8dd"/>
 <path d="m37.869 19.848c-0.2436 1.0528-0.70665 2.0096-1.3062 2.8841-0.51138 1.0214-1.141 1.8914-1.7209 2.5628-1.3271 1.6412-5.3921 3.4484-8.4218 5.2104 1.3833-0.3272 1.613-0.4199 3.3195-1.0834l-2.6875 2.0194 3.4986-1.5994-2.7678 2.2656 3.383-1.5883-2.8292 1.9325 2.935-1.0521-2.4681 1.5433 2.9363-1.0665s0.47415 0.20377-2.5575 1.5407l3.553-1.449c2.3185-1.4714 4.263-3.3976 5.5203-5.5032 0.14303-0.59824 0.1685-1.0241 0.09209-1.0854-0.35202 0.674-0.87711 1.2951-1.2004 1.7412 0 0 0.92413-1.5524 1.1508-3.1701-0.12801 1.1397-1.6504 2.2179-1.6504 2.2179s0.90911-0.56362 1.4558-2.8521c-0.49309 1.0378-1.3382 1.8202-1.3382 1.8202s1.0534-1.1997 1.4577-3.2563c-0.41276 2.0004-1.5054 2.3916-1.5054 2.3916s0.83858-1.1063 1.3689-3.5078c-0.58844 2.4034-1.6034 3.2785-1.6034 3.2785s1.0116-2.3636 1.3904-4.1929z" style="fill:#eef1f2"/>
</svg>
