<svg version="1.1" viewBox="0 0 48 48" xmlns="http://www.w3.org/2000/svg">
 <defs>
  <linearGradient id="linearGradient840" x1="1" x2="47" gradientUnits="userSpaceOnUse">
   <stop style="stop-color:#695339" offset="0"/>
   <stop style="stop-color:#765d40" offset="1"/>
  </linearGradient>
 </defs>
 <path d="m36.31 5c5.859 4.062 9.688 10.831 9.688 18.5 0 12.426-10.07 22.5-22.5 22.5-7.669 0-14.438-3.828-18.5-9.688 1.037 1.822 2.306 3.499 3.781 4.969 4.085 3.712 9.514 5.969 15.469 5.969 12.703 0 23-10.298 23-23 0-5.954-2.256-11.384-5.969-15.469-1.469-1.475-3.147-2.744-4.969-3.781zm4.969 3.781c3.854 4.113 6.219 9.637 6.219 15.719 0 12.703-10.297 23-23 23-6.081 0-11.606-2.364-15.719-6.219 4.16 4.144 9.883 6.719 16.219 6.719 12.703 0 23-10.298 23-23 0-6.335-2.575-12.06-6.719-16.219z" style="opacity:.05"/>
 <path d="m41.28 8.781c3.712 4.085 5.969 9.514 5.969 15.469 0 12.703-10.297 23-23 23-5.954 0-11.384-2.256-15.469-5.969 4.113 3.854 9.637 6.219 15.719 6.219 12.703 0 23-10.298 23-23 0-6.081-2.364-11.606-6.219-15.719z" style="opacity:.1"/>
 <path d="m31.25 2.375c8.615 3.154 14.75 11.417 14.75 21.13 0 12.426-10.07 22.5-22.5 22.5-9.708 0-17.971-6.135-21.12-14.75a23 23 0 0 0 44.875-7 23 23 0 0 0-16-21.875z" style="opacity:.2"/>
 <g transform="matrix(0,-1,1,0,0,48)" style="fill:#501616">
  <path d="m24 1c12.703 0 23 10.297 23 23s-10.297 23-23 23-23-10.297-23-23 10.297-23 23-23z" style="fill:url(#linearGradient840)"/>
 </g>
 <path d="m40.03 7.531c3.712 4.084 5.969 9.514 5.969 15.469 0 12.703-10.297 23-23 23-5.954 0-11.384-2.256-15.469-5.969 4.178 4.291 10.01 6.969 16.469 6.969 12.703 0 23-10.298 23-23 0-6.462-2.677-12.291-6.969-16.469z" style="opacity:.1"/>
 <rect x="12" y="14" width="26" height="22" ry="3" style="opacity:.1;paint-order:normal"/>
 <rect x="11" y="19" width="26" height="16" ry="3" style="fill:#9a9686;paint-order:normal"/>
 <path d="m12 30c0 1.662 1.338 3 3 3h20c0.76172 0 1.4466-0.29138 1.9746-0.75586 0.006674-0.082026 0.025391-0.16034 0.025391-0.24414v-10z" style="opacity:.1;paint-order:normal"/>
 <rect x="11" y="16" width="26" height="16" ry="3" style="fill:#bcb7a3;paint-order:normal"/>
 <path d="m12 27c0 1.662 1.338 3 3 3h20c0.76172 0 1.4466-0.29138 1.9746-0.75586 0.006674-0.082026 0.025391-0.16034 0.025391-0.24414v-10z" style="opacity:.1;paint-order:normal"/>
 <rect x="11" y="13" width="26" height="16" ry="3" style="fill:#f3f0e4;paint-order:normal"/>
 <path d="m15 17c-2 2-2 3.5-2 4 0 3 1 4 4 4 1.5154 0 2.4201-1 4-1 0.89246 0 2-0.18708 2-1 0-1 0-2-2-2-2 0-1.653 2-5 2-1 0-2-0.70663-2-2 0-1.6675 0.5-2.5 1-4zm18 0c0.5 1.5 1 2.3325 1 4 0 1.2934-1 2-2 2-3.347 0-3-2-5-2s-2 1-2 2c0 0.81292 1.1075 1 2 1 1.58 0 2.4846 1 4 1 3 0 4-1 4-4 0-0.5 0-2-2-4z" style="fill:#943f36;paint-order:normal"/>
</svg>
