<svg version="1.1" viewBox="0 0 48 48" xmlns="http://www.w3.org/2000/svg">
 <defs>
  <linearGradient id="bg" x2="0" y1="1" y2="47" gradientUnits="userSpaceOnUse">
   <stop style="stop-color:#455872" offset="0"/>
   <stop style="stop-color:#3e4f66" offset="1"/>
  </linearGradient>
 </defs>
 <path d="m36.31 5c5.859 4.062 9.688 10.831 9.688 18.5 0 12.426-10.07 22.5-22.5 22.5-7.669 0-14.438-3.828-18.5-9.688 1.037 1.822 2.306 3.499 3.781 4.969 4.085 3.712 9.514 5.969 15.469 5.969 12.703 0 23-10.298 23-23 0-5.954-2.256-11.384-5.969-15.469-1.469-1.475-3.147-2.744-4.969-3.781zm4.969 3.781c3.854 4.113 6.219 9.637 6.219 15.719 0 12.703-10.297 23-23 23-6.081 0-11.606-2.364-15.719-6.219 4.16 4.144 9.883 6.719 16.219 6.719 12.703 0 23-10.298 23-23 0-6.335-2.575-12.06-6.719-16.219z" style="opacity:.05"/>
 <path d="m41.28 8.781c3.712 4.085 5.969 9.514 5.969 15.469 0 12.703-10.297 23-23 23-5.954 0-11.384-2.256-15.469-5.969 4.113 3.854 9.637 6.219 15.719 6.219 12.703 0 23-10.298 23-23 0-6.081-2.364-11.606-6.219-15.719z" style="opacity:.1"/>
 <path d="m31.25 2.375c8.615 3.154 14.75 11.417 14.75 21.13 0 12.426-10.07 22.5-22.5 22.5-9.708 0-17.971-6.135-21.12-14.75a23 23 0 0 0 44.875-7 23 23 0 0 0-16-21.875z" style="opacity:.2"/>
 <circle cx="24" cy="24" r="23" style="fill:url(#bg)"/>
 <path d="m22 19h-4.1738c-0.42351-1.1979-1.5557-1.9991-2.8262-2-1.6569 0-3 1.3431-3 3s1.3431 3 3 3c1.2698-0.0018 2.4009-0.80282 2.8242-2h2.8652c-1.6782 1.1102-2.6881 2.9878-2.6895 5 0.0019 1.1008 0.30667 2.1799 0.88086 3.1191l-2.3809 2.3809-0.5-0.5-4 4 3 3 4-4-0.5-0.5 2.3828-2.3828c0.93846 0.57454 2.0168 0.87994 3.1172 0.88281 3.3137 0 6-2.6863 6-6h6c1.108 0 2-0.892 2-2v-8c0-1.108-0.892-2-2-2z" style="opacity:.1"/>
 <path d="m40.03 7.531c3.712 4.084 5.969 9.514 5.969 15.469 0 12.703-10.297 23-23 23-5.954 0-11.384-2.256-15.469-5.969 4.178 4.291 10.01 6.969 16.469 6.969 12.703 0 23-10.298 23-23 0-6.462-2.677-12.291-6.969-16.469z" style="opacity:.1"/>
 <path d="m23 13c-1.108 0-2 0.892-2 2v3h-4.1738a3 3 0 0 0-2.8262-2 3 3 0 0 0-3 3 3 3 0 0 0 3 3 3 3 0 0 0 2.8242-2h4.1758v3c0 1.108 0.892 2 2 2h12c1.108 0 2-0.892 2-2v-8c0-1.108-0.892-2-2-2z" style="fill:#8d9bae"/>
 <path d="m14 32 2 2 6-6-2-2z" style="fill:#ffbb9d"/>
 <path d="m14 37-3-3 4-4 3 3z" style="fill:#437b91"/>
 <path d="m24 20a6 6 0 0 0-3 0.81055v2.1895c0 1.108 0.892 2 2 2h6.9102a6 6 0 0 0-5.9102-5z" style="opacity:.1"/>
 <circle cx="23" cy="25" r="6" style="fill:#f5f5f5"/>
 <circle cx="23" cy="25" r="4" style="fill:#70caef"/>
 <path d="m23 22v2a1 1 0 0 1 1 1h2a3 3 0 0 0-3-3z" style="fill:#9fd8f5"/>
</svg>
