<svg xmlns="http://www.w3.org/2000/svg" viewBox="0 0 48 48">
 <defs>
  <linearGradient id="linearGradient3764" x1="1" x2="47" gradientUnits="userSpaceOnUse" gradientTransform="matrix(0,-1,1,0,-1.5e-6,47.999998)">
   <stop style="stop-color:#63a424;stop-opacity:1"/>
   <stop offset="1" style="stop-color:#6cb427;stop-opacity:1"/>
  </linearGradient>
 </defs>
 <g>
  <path d="m 36.31 5 c 5.859 4.062 9.688 10.831 9.688 18.5 c 0 12.426 -10.07 22.5 -22.5 22.5 c -7.669 0 -14.438 -3.828 -18.5 -9.688 c 1.037 1.822 2.306 3.499 3.781 4.969 c 4.085 3.712 9.514 5.969 15.469 5.969 c 12.703 0 23 -10.298 23 -23 c 0 -5.954 -2.256 -11.384 -5.969 -15.469 c -1.469 -1.475 -3.147 -2.744 -4.969 -3.781 z m 4.969 3.781 c 3.854 4.113 6.219 9.637 6.219 15.719 c 0 12.703 -10.297 23 -23 23 c -6.081 0 -11.606 -2.364 -15.719 -6.219 c 4.16 4.144 9.883 6.719 16.219 6.719 c 12.703 0 23 -10.298 23 -23 c 0 -6.335 -2.575 -12.06 -6.719 -16.219 z" style="opacity:0.05"/>
  <path d="m 41.28 8.781 c 3.712 4.085 5.969 9.514 5.969 15.469 c 0 12.703 -10.297 23 -23 23 c -5.954 0 -11.384 -2.256 -15.469 -5.969 c 4.113 3.854 9.637 6.219 15.719 6.219 c 12.703 0 23 -10.298 23 -23 c 0 -6.081 -2.364 -11.606 -6.219 -15.719 z" style="opacity:0.1"/>
  <path d="m 31.25 2.375 c 8.615 3.154 14.75 11.417 14.75 21.13 c 0 12.426 -10.07 22.5 -22.5 22.5 c -9.708 0 -17.971 -6.135 -21.12 -14.75 a 23 23 0 0 0 44.875 -7 a 23 23 0 0 0 -16 -21.875 z" style="opacity:0.2"/>
 </g>
 <g>
  <path d="m 24 1 c 12.703 0 23 10.297 23 23 c 0 12.703 -10.297 23 -23 23 -12.703 0 -23 -10.297 -23 -23 0 -12.703 10.297 -23 23 -23 z" style="fill:url(#linearGradient3764);fill-opacity:1"/>
 </g>
 <g>
  <g>
   <g transform="translate(1,1)">
    <g style="opacity:0.1">
     <!-- color: #6cb427 -->
     <g>
      <path d="m 19.813 12 c -1.01 0 -1.816 0.652 -1.816 1.469 l 0 19.813 c 0 0.82 0.996 1.715 2 1.715 l 0.004 0 l 0 3.01 l 10 0 l 0 -3.01 c 0.999 -0.002 1.992 -0.899 1.992 -1.715 l 0 -19.813 c 0 -0.816 -0.809 -1.469 -1.813 -1.469 l -10.367 0 z m 1.188 23 l 1.996 0 l 0 2 l -1.996 0 l 0 -2 z m 5.996 0 l 2 0 l 0 2 l -2 0 l 0 -2 z" transform="translate(-1,-1)"/>
     </g>
    </g>
   </g>
  </g>
 </g>
 <g>
  <g>
   <!-- color: #6cb427 -->
   <g>
    <path d="m 18.813,11 c -1.01,0 -1.816,0.652 -1.816,1.469 l 0,19.813 c 0,0.82 0.996,1.715 2,1.715 l 10,0 c 1,0 1.996,-0.898 1.996,-1.715 l 0,-19.813 C 30.993,11.653 30.184,11 29.18,11 m -10.367,0" style="fill:#f9f9f9;fill-opacity:1;stroke:none;fill-rule:nonzero"/>
    <path d="m 19 32.938 0 4.066 10 0 0 -4.066 m -9 1.066 1.996 0 0 2 -1.996 0 m 5.996 -2 2 0 0 2 -2 0 m 0 -2" style="fill:#f9f9f9;fill-opacity:1;stroke:none;fill-rule:nonzero"/>
    <path d="m 25.285 15.703 c 0.016 0.367 0.324 0.648 0.691 0.637 0.176 -0.004 0.34 -0.078 0.465 -0.207 0.121 -0.129 0.184 -0.297 0.176 -0.473 -0.016 -0.363 -0.324 -0.648 -0.688 -0.637 -0.176 0.008 -0.34 0.082 -0.465 0.211 -0.121 0.125 -0.184 0.297 -0.176 0.473 m 0.598 -0.156 c 0 -0.164 0.09 -0.293 0.199 -0.293 0.109 0 0.195 0.129 0.195 0.293 0 0.164 -0.09 0.293 -0.195 0.293 -0.109 0 -0.199 -0.129 -0.199 -0.293" style="fill:#6eb927;fill-opacity:1;stroke:none;fill-rule:nonzero"/>
    <path d="m 21.367 23.22 0.004 -0.023 0.027 -0.004 c 0.02 0.008 0.043 0.023 0.32 0.043 0.242 0.023 0.914 0.055 1.25 -0.281 0.129 -0.133 0.242 -0.32 0.281 -0.477 0.16 -0.648 0.051 -1.398 -0.781 -2.109 -0.43 -0.367 -0.625 -0.551 -0.711 -0.637 l -0.031 -0.031 -0.027 -0.039 c -0.02 -0.031 -0.57 -1.227 -0.57 -1.227 l 0.008 -0.027 0.023 0 c 0.012 0.008 0.984 0.762 1.789 0.625 0.641 -0.105 0.586 -0.613 0.504 -1.313 -0.023 -0.23 -0.059 -0.488 -0.063 -0.766 -0.004 -0.75 0.133 -1.563 0.352 -2.063 0.145 -0.32 0.238 -0.527 0.355 -0.656 0.123 -0.12 0.308 -0.123 0.449 -0.18 0.031 -0.004 0.059 -0.004 0.074 0.012 l -0.012 0.07 c -0.133 0.219 -0.387 0.766 -0.395 1.281 -0.023 0.633 0.645 1.914 0.715 2.051 l 0.016 0.012 c 0.078 0.035 0.535 0.23 0.629 0.273 -0.613 -0.926 -0.949 -1.691 -1 -2.273 -0.059 -0.652 0.301 -1.16 0.453 -1.379 0.027 -0.043 0.051 -0.074 0.055 -0.086 l 0.023 -0.02 c 0.23 0.035 1.344 0.375 1.613 0.637 0.066 0.066 0.145 0.129 0.215 0.246 0.543 0.93 0.879 3.141 0.891 3.242 l -0.004 0.02 -0.012 0.008 c 0 0 -0.461 0.012 -0.523 0.012 0.074 0.23 0.609 1.867 0.664 3.406 0.055 1.301 0.223 3.203 -1.344 5.719 l -0.047 0.078 c -0.742 1.184 -1.66 2 -2.727 2.434 -0.34 0.133 -1.098 0.313 -1.813 0.137 -0.309 -0.078 -0.621 -0.219 -0.902 -0.414 -0.633 -0.441 -1.051 -1.168 -1.117 -1.961 -0.105 -1.117 0.398 -1.961 1.348 -2.262 0.652 -0.207 1.613 0 2.102 0.793 0.398 0.645 0.313 1.336 0.039 1.734 -0.23 0.355 -0.594 0.547 -0.992 0.543 -0.707 -0.008 -1.082 -0.609 -1.082 -1.043 0 -0.129 0.023 -0.254 0.07 -0.395 0.012 -0.051 0.035 -0.102 0.066 -0.152 l 0.012 -0.02 0.004 -0.012 -0.004 0.008 c 0.07 -0.105 0.18 -0.16 0.301 -0.16 0.031 0 0.066 0.004 0.102 0.012 0.176 0.051 0.289 0.227 0.254 0.41 l -0.004 0.02 -0.016 0.031 -0.02 0.051 c -0.023 0.102 -0.027 0.172 -0.027 0.191 0.004 0.051 0.078 0.301 0.355 0.301 l 0.004 0 c 0.098 0 0.172 -0.039 0.211 -0.063 0.125 -0.078 0.246 -0.293 0.215 -0.578 -0.031 -0.375 -0.227 -0.648 -0.594 -0.828 -0.34 -0.168 -0.762 -0.125 -1.07 0.113 -0.305 0.227 -0.438 0.648 -0.375 1.199 0.066 0.563 0.387 1.031 0.891 1.301 0.496 0.258 1.082 0.27 1.531 0.031 1.078 -0.563 1.066 -1.637 0.965 -2.223 c -0.148 -0.867 -0.961 -1.852 -1.891 -2.207 -0.148 -0.055 -0.266 -0.086 -0.375 -0.109 l -0.16 -0.035 -0.48 -0.98 -0.012 -0.016 m 5.262 -6.887 c -0.18 0.188 -0.41 0.289 -0.668 0.301 -0.523 0.016 -0.969 -0.395 -0.988 -0.91 -0.008 -0.254 0.082 -0.492 0.254 -0.684 0.176 -0.184 0.414 -0.293 0.664 -0.301 0.52 -0.02 0.969 0.387 0.988 0.914 0.008 0.25 -0.082 0.492 -0.258 0.676" style="fill:#6eb927;fill-opacity:1;stroke:none;fill-rule:evenodd"/>
   </g>
  </g>
 </g>
 <g>
  <path d="m 40.03 7.531 c 3.712 4.084 5.969 9.514 5.969 15.469 0 12.703 -10.297 23 -23 23 c -5.954 0 -11.384 -2.256 -15.469 -5.969 4.178 4.291 10.01 6.969 16.469 6.969 c 12.703 0 23 -10.298 23 -23 0 -6.462 -2.677 -12.291 -6.969 -16.469 z" style="opacity:0.1"/>
 </g>
</svg>
