<svg version="1.1" viewBox="0 0 48 48" xmlns="http://www.w3.org/2000/svg">
 <defs>
  <linearGradient id="bg" x2="0" y1="1" y2="47" gradientUnits="userSpaceOnUse">
   <stop style="stop-color:#ededed" offset="0"/>
   <stop style="stop-color:#e3e3e3" offset="1"/>
  </linearGradient>
 </defs>
 <path d="m36.3 5c5.86 4.06 9.69 10.8 9.69 18.5 0 12.4-10.1 22.5-22.5 22.5-7.67 0-14.4-3.83-18.5-9.69 1.04 1.82 2.31 3.5 3.78 4.97 4.08 3.71 9.51 5.97 15.5 5.97 12.7 0 23-10.3 23-23 0-5.95-2.26-11.4-5.97-15.5-1.47-1.48-3.15-2.74-4.97-3.78zm4.97 3.78c3.85 4.11 6.22 9.64 6.22 15.7 0 12.7-10.3 23-23 23-6.08 0-11.6-2.36-15.7-6.22 4.16 4.14 9.88 6.72 16.2 6.72 12.7 0 23-10.3 23-23 0-6.34-2.58-12.1-6.72-16.2z" style="opacity:.05"/>
 <path d="m41.3 8.78c3.71 4.08 5.97 9.51 5.97 15.5 0 12.7-10.3 23-23 23-5.95 0-11.4-2.26-15.5-5.97 4.11 3.85 9.64 6.22 15.7 6.22 12.7 0 23-10.3 23-23 0-6.08-2.36-11.6-6.22-15.7z" style="opacity:.1"/>
 <path d="m31.2 2.38c8.62 3.15 14.8 11.4 14.8 21.1 0 12.4-10.1 22.5-22.5 22.5-9.71 0-18-6.14-21.1-14.8a23 23 0 0 0 44.9-7 23 23 0 0 0-16-21.9z" style="opacity:.2"/>
 <circle cx="24" cy="24" r="23" style="fill:url(#bg)"/>
 <path d="m40 7.53c3.71 4.08 5.97 9.51 5.97 15.5 0 12.7-10.3 23-23 23-5.95 0-11.4-2.26-15.5-5.97 4.18 4.29 10 6.97 16.5 6.97 12.7 0 23-10.3 23-23 0-6.46-2.68-12.3-6.97-16.5z" style="opacity:.1"/>
 <path d="m13 13v23c0 0.277 0.112 0.526 0.293 0.707l23.4-23.4c-0.181-0.181-0.43-0.293-0.707-0.293zm24.6 6-12.1 10c-4 0-5 5.5-7.5 6 2 2 4 2 5.5 2 2.7 0 5.5-2 5.5-4.5 0-0.475-0.0742-0.908-0.207-1.29l9.8-9.79c0.553-0.553 0.553-1.45 0-2-0.276-0.277-0.64-0.416-1-0.416zm-0.586 10-8 8h7c0.554 0 1-0.446 1-1z" style="opacity:.1"/>
 <path d="m12 20v8l4 2 4-2-3-5zm8 8 8-8-10-3z" style="fill:#f0ed6b"/>
 <path d="m20 12-1 4 1 4h8l-3-5zm-8 16v7c0 0.277 0.112 0.526 0.293 0.707l7.71-7.71z" style="fill:#b763c0"/>
 <path d="m13 12c-0.554 0-1 0.446-1 1v7l5-3 3-5zm23 16-8 8h7c0.554 0 1-0.446 1-1z" style="fill:#3ca3e2"/>
 <path d="m35.6 18.4-7 7 2 2 7-7c0.553-0.553 0.553-1.45 0-2-0.553-0.553-1.45-0.553-2 1e-6z" style="fill:#a68459"/>
 <path d="m20 12-8 8 4 2 4-2zm8 0-2 4 2 4 7.71-7.71c-0.181-0.181-0.43-0.293-0.707-0.293z" style="fill:#26cf80"/>
 <path d="m28 20v-8h-8z" style="fill:#ed5754"/>
 <path d="m20 28v-8h-8z" style="fill:#eda354"/>
 <path d="m28.6 25.4-4.59 4.59 2 2 4.59-4.59c0.553-0.553 0.553-1.45 0-2-0.553-0.553-1.45-0.553-2 0z" style="fill:#909497"/>
 <path d="m28 31.5c0 2.5-2.8 4.5-5.5 4.5-1.5 0-3.5 0-5.5-2 2.5-0.5 3.5-6 7.5-6 1.93 0 3.5 1.29 3.5 3.5z" style="fill:#825d40"/>
</svg>
