<svg version="1.1" viewBox="0 0 48 48" xmlns="http://www.w3.org/2000/svg">
 <defs>
  <linearGradient id="bg" x2="0" y1="1" y2="47" gradientUnits="userSpaceOnUse">
   <stop style="stop-color:#f2614e" offset="0"/>
   <stop style="stop-color:#f1513c" offset="1"/>
  </linearGradient>
 </defs>
 <path d="m36.3 5c5.86 4.06 9.69 10.8 9.69 18.5 0 12.4-10.1 22.5-22.5 22.5-7.67 0-14.4-3.83-18.5-9.69 1.04 1.82 2.31 3.5 3.78 4.97 4.08 3.71 9.51 5.97 15.5 5.97 12.7 0 23-10.3 23-23 0-5.95-2.26-11.4-5.97-15.5-1.47-1.48-3.15-2.74-4.97-3.78zm4.97 3.78c3.85 4.11 6.22 9.64 6.22 15.7 0 12.7-10.3 23-23 23-6.08 0-11.6-2.36-15.7-6.22 4.16 4.14 9.88 6.72 16.2 6.72 12.7 0 23-10.3 23-23 0-6.34-2.58-12.1-6.72-16.2z" style="opacity:.05"/>
 <path d="m41.3 8.78c3.71 4.08 5.97 9.51 5.97 15.5 0 12.7-10.3 23-23 23-5.95 0-11.4-2.26-15.5-5.97 4.11 3.85 9.64 6.22 15.7 6.22 12.7 0 23-10.3 23-23 0-6.08-2.36-11.6-6.22-15.7z" style="opacity:.1"/>
 <path d="m31.2 2.38c8.62 3.15 14.8 11.4 14.8 21.1 0 12.4-10.1 22.5-22.5 22.5-9.71 0-18-6.14-21.1-14.8a23 23 0 0 0 44.9-7 23 23 0 0 0-16-21.9z" style="opacity:.2"/>
 <circle cx="24" cy="24" r="23" style="fill:url(#bg)"/>
 <path d="m40 7.53c3.71 4.08 5.97 9.51 5.97 15.5 0 12.7-10.3 23-23 23-5.95 0-11.4-2.26-15.5-5.97 4.18 4.29 10 6.97 16.5 6.97 12.7 0 23-10.3 23-23 0-6.46-2.68-12.3-6.97-16.5z" style="opacity:.1"/>
 <path d="m12 34c0 1.11 0.892 2 2 2h19.8l0.516 0.516c0.398 0.398 0.968 0.575 1.51 0.438 0.545-0.138 0.97-0.566 1.11-1.11 8e-3 -0.032 5e-3 -0.065 0.012-0.098 0.616-0.34 1.04-0.988 1.04-1.74v-18c0-1.11-0.892-2-2-2z" style="opacity:.1"/>
 <rect x="11" y="13" width="26" height="22" rx="2" style="fill:#f9f9f9"/>
 <rect x="13" y="15" width="22" height="18" style="fill:#e99186"/>
 <path d="m30 22-12 11h17v-6z" style="fill:#cc6557"/>
 <path d="m23 20a3.5 3.5 0 0 1-7 0 3.5 3.5 0 1 1 7 0z" style="fill:#f7ebea"/>
 <path d="m21 21-8 9v3h17z" style="fill:#c75242"/>
 <path d="m26.8 23 1.41 4.1s-1.51 1.21-2.62 0.675l-2.33-2.33c-0.541 1.38-0.255 3.03 0.863 4.15 1.12 1.12 2.76 1.4 4.15 0.863l4.54 4.54h2.19c0.182-0.075 0.377-0.059 0.547-0.086 0.375-0.106 0.702-0.315 0.951-0.6l-6.03-6.03c0.541-1.38 0.255-3.03-0.863-4.15-0.769-0.768-2.8-1.14-2.8-1.14" style="opacity:.1"/>
 <path d="m25.8 22c-0.459 7e-3 -0.918 0.094-1.35 0.262l2.33 2.33c0.397 0.397 0.576 0.963 0.436 1.51s-0.566 0.971-1.11 1.11c-0.545 0.141-1.11-0.037-1.51-0.436l-2.33-2.33c-0.541 1.38-0.255 3.03 0.863 4.15 1.12 1.12 2.76 1.4 4.15 0.863l6.05 6.05c0.398 0.398 0.968 0.575 1.51 0.438 0.545-0.138 0.97-0.566 1.11-1.11s-0.038-1.11-0.436-1.51l-6.05-6.05c0.541-1.38 0.255-3.03-0.863-4.15-0.769-0.768-1.79-1.15-2.8-1.14m8.7 12c0.289 0 0.523 0.235 0.523 0.523 0 0.291-0.234 0.525-0.523 0.525s-0.525-0.234-0.525-0.525c0-0.289 0.234-0.523 0.525-0.523z" style="fill:#474747"/>
</svg>
