<svg version="1.1" viewBox="0 0 48 48" xmlns="http://www.w3.org/2000/svg">
 <defs>
  <linearGradient id="bg" x2="0" y1="89" y2="43" gradientTransform="translate(0,-42)" gradientUnits="userSpaceOnUse">
   <stop style="stop-color:#d09448" offset="0"/>
   <stop style="stop-color:#d49d58" offset="1"/>
  </linearGradient>
 </defs>
 <path d="m36.3 5c5.86 4.06 9.69 10.8 9.69 18.5 0 12.4-10.1 22.5-22.5 22.5-7.67 0-14.4-3.83-18.5-9.69 1.04 1.82 2.31 3.5 3.78 4.97 4.08 3.71 9.51 5.97 15.5 5.97 12.7 0 23-10.3 23-23 0-5.95-2.26-11.4-5.97-15.5-1.47-1.48-3.15-2.74-4.97-3.78zm4.97 3.78c3.85 4.11 6.22 9.64 6.22 15.7 0 12.7-10.3 23-23 23-6.08 0-11.6-2.36-15.7-6.22 4.16 4.14 9.88 6.72 16.2 6.72 12.7 0 23-10.3 23-23 0-6.34-2.58-12.1-6.72-16.2z" style="opacity:.05"/>
 <path d="m41.3 8.78c3.71 4.08 5.97 9.51 5.97 15.5 0 12.7-10.3 23-23 23-5.95 0-11.4-2.26-15.5-5.97 4.11 3.85 9.64 6.22 15.7 6.22 12.7 0 23-10.3 23-23 0-6.08-2.36-11.6-6.22-15.7z" style="opacity:.1"/>
 <path d="m31.2 2.38c8.62 3.15 14.8 11.4 14.8 21.1 0 12.4-10.1 22.5-22.5 22.5-9.71 0-18-6.14-21.1-14.8a23 23 0 0 0 44.9-7 23 23 0 0 0-16-21.9z" style="opacity:.2"/>
 <path d="m14.7 3a23 23 0 0 0-13.7 21 23 23 0 0 0 23 23 23 23 0 0 0 23-23 23 23 0 0 0-13.7-21h-18.7z" style="fill:url(#bg)"/>
 <path d="m15 2.86v16.1c0 0.554 0.446 1 1 1h1v12h-4v2h4v11.9c0.331 0.1 0.665 0.192 1 0.277v-11.4c0.304 0.176 0.649 0.269 1 0.27 0.351-1e-3 0.696-0.095 1-0.271v11.9c0.332 0.058 0.666 0.109 1 0.152v-12.8h2v12.9c0.333 0.024 0.666 0.041 1 0.051v-13h2v12.9c0.334-0.033 0.668-0.073 1-0.121v-12.8h2v12.4c0.335-0.067 0.668-0.142 1-0.225v-11.5c0.304 0.176 0.649 0.269 1 0.27 0.351-1e-3 0.696-0.095 1-0.271v10.8c0.337-0.129 0.67-0.266 1-0.41v-11.1h4v-2h-4v-12h1c0.554 0 1-0.446 1-1v-4c0-0.554-0.446-1-1-1h-1v-1h2v-9.2c-1.89-1.02-3.91-1.77-6-2.23m-11 18.4h2v11h-2zm3 0h2v11h-2zm3 0h2v11h-2zm3 0h2v11h-2zm3 0h2v11h-2z" style="opacity:.1"/>
 <path d="m24 1a23 23 0 0 0-9.5 2.08v8.52h19v-8.52a23 23 0 0 0-9.5-2.08z" style="fill:#484646"/>
 <path d="m15 4v1h18v-1h-18zm0 4v1h18v-1h-18z" style="fill:#cac796"/>
 <path d="m33 2.84v8.16h-18v-8.14a23 23 0 0 0-1 0.447v8.69h20v-8.68a23 23 0 0 0-1-0.482z" style="fill:#f6f6f6"/>
 <rect x="14" y="13" width="20" height="6" rx="1" style="fill:#dbdd8b"/>
 <path d="m40 7.53c3.71 4.08 5.97 9.51 5.97 15.5 0 12.7-10.3 23-23 23-5.95 0-11.4-2.26-15.5-5.97 4.18 4.29 10 6.97 16.5 6.97 12.7 0 23-10.3 23-23 0-6.46-2.68-12.3-6.97-16.5z" style="opacity:.1"/>
 <path d="m18 30a2 2 0 0 0-2 2 2 2 0 0 0 2 2 2 2 0 0 0 2-2 2 2 0 0 0-2-2zm12 0a2 2 0 0 0-2 2 2 2 0 0 0 2 2 2 2 0 0 0 2-2 2 2 0 0 0-2-2z" style="fill:#50483f"/>
 <rect x="12" y="31" width="24" height="2" style="fill:#604f43"/>
 <path d="m16.5 14a1.5 1 0 0 0-1.5 1 1.5 1 0 0 0 1.5 1 1.5 1 0 0 0 1.5-1 1.5 1 0 0 0-1.5-1zm1.5 1a1.5 1 0 0 0 1.5 1 1.5 1 0 0 0 1.5-1 1.5 1 0 0 0-1.5-1 1.5 1 0 0 0-1.5 1zm3 0a1.5 1 0 0 0 1.5 1 1.5 1 0 0 0 1.5-1 1.5 1 0 0 0-1.5-1 1.5 1 0 0 0-1.5 1zm3 0a1.5 1 0 0 0 1.5 1 1.5 1 0 0 0 1.5-1 1.5 1 0 0 0-1.5-1 1.5 1 0 0 0-1.5 1zm3 0a1.5 1 0 0 0 1.5 1 1.5 1 0 0 0 1.5-1 1.5 1 0 0 0-1.5-1 1.5 1 0 0 0-1.5 1zm3 0a1.5 1 0 0 0 1.5 1 1.5 1 0 0 0 1.5-1 1.5 1 0 0 0-1.5-1 1.5 1 0 0 0-1.5 1z" style="fill:#c6c969"/>
 <path d="m23 1.04a23 23 0 0 0-1 0.067v45.8a23 23 0 0 0 1 0.049v-45.9zm2 0.016v45.9a23 23 0 0 0 1-0.067v-45.8a23 23 0 0 0-1-0.049zm-5 0.303a23 23 0 0 0-1 0.224v44.9a23 23 0 0 0 1 0.197v-45.3zm-3 0.765a23 23 0 0 0-1 0.332v43.1a23 23 0 0 0 1 0.365v-43.8z" style="fill:#c9c9c9"/>
 <path d="m28 1.37v45.3a23 23 0 0 0 1-0.225v-44.9a23 23 0 0 0-1-0.195zm3 0.729v43.8a23 23 0 0 0 1-0.332v-43.1a23 23 0 0 0-1-0.365z" style="fill:#dbdbdb"/>
 <path d="m9.42 19c-0.613 0-2.03-0.108-3.45 5.02-0.631 2.29-0.835 5.22-2.03 6.18 1.21 1.06 1.18 3.92 0.803 6.36a23 23 0 0 0 1.22 1.7c0.151-0.549 0.304-1.08 0.449-1.69 0.358-1.49 0.316-3.26 1.62-4.57-2.02-3-0.696-7.8 0.275-10.4 0.287 0.28 0.682 0.453 1.12 0.453 0.875 0 1.58-0.692 1.58-1.54s-0.709-1.55-1.58-1.55zm29.2 0c-0.875 0-1.58 0.697-1.58 1.55s0.709 1.54 1.58 1.54c0.437 0 0.833-0.174 1.12-0.453 0.971 2.56 2.3 7.36 0.275 10.4 1.3 1.31 1.26 3.08 1.62 4.57 0.143 0.594 0.293 1.12 0.441 1.66a23 23 0 0 0 1.22-1.69c-0.377-2.44-0.399-5.29 0.807-6.34-1.2-0.965-1.4-3.9-2.03-6.18-1.41-5.12-2.84-5.02-3.45-5.02z" style="fill:#5c4433"/>
 <path d="m9.42 19c-0.613 0-2.03-0.108-3.45 5.02-0.631 2.29-0.835 5.22-2.03 6.18 1.21 1.06 1.18 3.92 0.803 6.36a23 23 0 0 0 0.955 1.33c0.43-2.5 0.506-5.59-0.758-6.69 1.2-0.965 1.4-3.9 2.03-6.18 1.41-5.12 2.84-5.02 3.45-5.02 0.177 0 0.345 0.035 0.504 0.088-0.202-0.628-0.795-1.09-1.5-1.09zm29.2 0c-0.709 0-1.3 0.46-1.5 1.09 0.159-0.053 0.327-0.088 0.504-0.088 0.613 0 2.03-0.108 3.45 5.02 0.631 2.29 0.835 5.22 2.03 6.18-1.26 1.1-1.19 4.18-0.758 6.68a23 23 0 0 0 0.951-1.34c-0.377-2.44-0.399-5.29 0.807-6.34-1.2-0.965-1.4-3.9-2.03-6.18-1.41-5.12-2.84-5.02-3.45-5.02z" style="opacity:.1"/>
 <path d="m17 13v6h1v-6h-1zm3 0v6h1v-6h-1zm3 0v6h1v-6h-1zm3 0v6h1v-6h-1zm3 0v6h1v-6h-1zm3 0v6h1v-6h-1z" style="opacity:.1"/>
</svg>
