<svg xmlns="http://www.w3.org/2000/svg" viewBox="0 0 48 48">
 <defs>
  <linearGradient id="linearGradient3764" y1="47" x2="0" y2="1" gradientUnits="userSpaceOnUse">
   <stop style="stop-color:#547141;stop-opacity:1"/>
   <stop offset="1" style="stop-color:#5e7e48;stop-opacity:1"/>
  </linearGradient>
 </defs>
 <g>
  <path d="m 36.31 5 c 5.859 4.062 9.688 10.831 9.688 18.5 c 0 12.426 -10.07 22.5 -22.5 22.5 c -7.669 0 -14.438 -3.828 -18.5 -9.688 c 1.037 1.822 2.306 3.499 3.781 4.969 c 4.085 3.712 9.514 5.969 15.469 5.969 c 12.703 0 23 -10.298 23 -23 c 0 -5.954 -2.256 -11.384 -5.969 -15.469 c -1.469 -1.475 -3.147 -2.744 -4.969 -3.781 z m 4.969 3.781 c 3.854 4.113 6.219 9.637 6.219 15.719 c 0 12.703 -10.297 23 -23 23 c -6.081 0 -11.606 -2.364 -15.719 -6.219 c 4.16 4.144 9.883 6.719 16.219 6.719 c 12.703 0 23 -10.298 23 -23 c 0 -6.335 -2.575 -12.06 -6.719 -16.219 z" style="opacity:0.05"/>
  <path d="m 41.28 8.781 c 3.712 4.085 5.969 9.514 5.969 15.469 c 0 12.703 -10.297 23 -23 23 c -5.954 0 -11.384 -2.256 -15.469 -5.969 c 4.113 3.854 9.637 6.219 15.719 6.219 c 12.703 0 23 -10.298 23 -23 c 0 -6.081 -2.364 -11.606 -6.219 -15.719 z" style="opacity:0.1"/>
  <path d="m 31.25 2.375 c 8.615 3.154 14.75 11.417 14.75 21.13 c 0 12.426 -10.07 22.5 -22.5 22.5 c -9.708 0 -17.971 -6.135 -21.12 -14.75 a 23 23 0 0 0 44.875 -7 a 23 23 0 0 0 -16 -21.875 z" style="opacity:0.2"/>
 </g>
 <g>
  <path d="m 24 1 c 12.703 0 23 10.297 23 23 c 0 12.703 -10.297 23 -23 23 -12.703 0 -23 -10.297 -23 -23 0 -12.703 10.297 -23 23 -23 z" style="fill:url(#linearGradient3764);fill-opacity:1"/>
 </g>
 <g>
  <g>
   <g transform="translate(1,1)">
    <g style="opacity:0.1">
     <!-- color: #5e7e48 -->
     <g>
      <path d="m 23.906 16.969 c -2.32 -0.039 -4.801 0.84 -6.719 2.25 c -1.199 0.879 -2.191 1.977 -2.75 3.219 c -1.016 1.02 -2.375 2.406 -2.375 3 c 0 0.641 1.516 0.957 2.5 1.375 c 0.648 1.094 1.742 2.102 3.03 2.938 c 2.047 1.332 4.598 2.25 6.813 2.25 c 1.953 0 4.281 -0.832 6.156 -2.094 c 1.746 -1.176 3.117 -2.738 3.313 -4.438 c 0.355 0.434 0.926 0.801 1.781 0.781 c 0.156 -0.008 0.289 -0.109 0.332 -0.262 c 0.043 -0.148 -0.016 -0.309 -0.145 -0.395 c -0.063 -0.043 -0.141 -0.066 -0.219 -0.063 c -0.719 0.016 -1.023 -0.238 -1.281 -0.594 c -0.246 -0.336 -0.383 -0.781 -0.656 -1.156 c -0.016 -0.02 -0.016 -0.043 -0.031 -0.063 c -0.496 -1.445 -1.715 -2.855 -3.219 -4.03 c -1.977 -1.547 -4.449 -2.684 -6.531 -2.719 m -2.656 1.094 c -1.656 0.871 -2.781 2.59 -2.781 4.594 c 0 2.879 2.313 5.219 5.188 5.219 c 2.875 0 5.188 -2.34 5.188 -5.219 c 0 -1.93 -1.039 -3.598 -2.594 -4.5 c 1.281 0.453 2.602 1.195 3.75 2.094 c 1.434 1.121 2.563 2.473 3 3.719 c 0 0.02 0 0.043 0 0.063 c 0.008 0.023 0.023 0.043 0.031 0.063 c 0.109 0.344 0.16 0.684 0.156 1 c -0.016 1.449 -1.266 3.03 -3.03 4.219 c -1.766 1.188 -4.01 1.969 -5.75 1.969 c -2.02 0 -4.496 -0.863 -6.438 -2.125 c -1.941 -1.262 -3.293 -2.91 -3.313 -4.344 c -0.027 -1.906 1.176 -3.715 2.969 -5.03 c 1.063 -0.781 2.332 -1.363 3.625 -1.719 m 0 0" style="fill:#000;fill-opacity:1;stroke:none;fill-rule:nonzero"/>
     </g>
    </g>
   </g>
  </g>
 </g>
 <g>
  <g>
   <!-- color: #5e7e48 -->
   <g>
    <path d="m 23.906,16.969 c -2.32,-0.039 -4.801,0.84 -6.719,2.25 -1.199,0.879 -2.191,1.977 -2.75,3.219 -1.016,1.02 -2.375,2.406 -2.375,3 0,0.641 1.516,0.957 2.5,1.375 0.648,1.094 1.742,2.102 3.03,2.938 2.047,1.332 4.598,2.25 6.813,2.25 1.953,0 4.281,-0.832 6.156,-2.094 1.746,-1.176 3.117,-2.738 3.313,-4.438 0.355,0.434 0.926,0.801 1.781,0.781 0.156,-0.008 0.289,-0.109 0.332,-0.262 C 36.03,25.84 35.971,25.679 35.842,25.593 35.779,25.55 35.701,25.527 35.623,25.53 34.904,25.546 34.6,25.292 34.342,24.936 34.096,24.6 33.959,24.155 33.686,23.78 33.67,23.76 33.67,23.737 33.655,23.717 33.159,22.272 31.94,20.862 30.436,19.687 28.459,18.14 25.987,17.003 23.905,16.968 m -2.656,1.094 c -1.656,0.871 -2.781,2.59 -2.781,4.594 0,2.879 2.313,5.219 5.188,5.219 2.875,0 5.188,-2.34 5.188,-5.219 0,-1.93 -1.039,-3.598 -2.594,-4.5 1.281,0.453 2.602,1.195 3.75,2.094 1.434,1.121 2.563,2.473 3,3.719 0,0.02 0,0.043 0,0.063 0.008,0.023 0.023,0.043 0.031,0.063 0.109,0.344 0.16,0.684 0.156,1 -0.016,1.449 -1.266,3.03 -3.03,4.219 -1.766,1.188 -4.01,1.969 -5.75,1.969 -2.02,0 -4.496,-0.863 -6.438,-2.125 -1.941,-1.262 -3.293,-2.91 -3.313,-4.344 -0.027,-1.906 1.176,-3.715 2.969,-5.03 1.063,-0.781 2.332,-1.363 3.625,-1.719 m 0,0" style="fill:#2d2d2d;fill-opacity:1;stroke:none;fill-rule:nonzero"/>
    <path d="m 23.945 20.32 c 0 0.855 -0.691 1.551 -1.547 1.551 -0.852 0 -1.543 -0.695 -1.543 -1.551 0 -0.855 0.691 -1.551 1.543 -1.551 0.855 0 1.547 0.695 1.547 1.551 m 0 0" style="fill:#f9f9f9;fill-opacity:1;stroke:none;fill-rule:nonzero"/>
   </g>
  </g>
 </g>
 <g>
  <path d="m 40.03 7.531 c 3.712 4.084 5.969 9.514 5.969 15.469 0 12.703 -10.297 23 -23 23 c -5.954 0 -11.384 -2.256 -15.469 -5.969 4.178 4.291 10.01 6.969 16.469 6.969 c 12.703 0 23 -10.298 23 -23 0 -6.462 -2.677 -12.291 -6.969 -16.469 z" style="opacity:0.1"/>
 </g>
</svg>
