<svg xmlns="http://www.w3.org/2000/svg" viewBox="0 0 48 48">
 <defs>
  <linearGradient id="linearGradient3764" x1="1" x2="47" gradientUnits="userSpaceOnUse" gradientTransform="matrix(0,-1,1,0,-1.5e-6,47.999998)">
   <stop style="stop-color:#446c94;stop-opacity:1"/>
   <stop offset="1" style="stop-color:#4a75a2;stop-opacity:1"/>
  </linearGradient>
 </defs>
 <g>
  <path d="m 36.31 5 c 5.859 4.062 9.688 10.831 9.688 18.5 c 0 12.426 -10.07 22.5 -22.5 22.5 c -7.669 0 -14.438 -3.828 -18.5 -9.688 c 1.037 1.822 2.306 3.499 3.781 4.969 c 4.085 3.712 9.514 5.969 15.469 5.969 c 12.703 0 23 -10.298 23 -23 c 0 -5.954 -2.256 -11.384 -5.969 -15.469 c -1.469 -1.475 -3.147 -2.744 -4.969 -3.781 z m 4.969 3.781 c 3.854 4.113 6.219 9.637 6.219 15.719 c 0 12.703 -10.297 23 -23 23 c -6.081 0 -11.606 -2.364 -15.719 -6.219 c 4.16 4.144 9.883 6.719 16.219 6.719 c 12.703 0 23 -10.298 23 -23 c 0 -6.335 -2.575 -12.06 -6.719 -16.219 z" style="opacity:0.05"/>
  <path d="m 41.28 8.781 c 3.712 4.085 5.969 9.514 5.969 15.469 c 0 12.703 -10.297 23 -23 23 c -5.954 0 -11.384 -2.256 -15.469 -5.969 c 4.113 3.854 9.637 6.219 15.719 6.219 c 12.703 0 23 -10.298 23 -23 c 0 -6.081 -2.364 -11.606 -6.219 -15.719 z" style="opacity:0.1"/>
  <path d="m 31.25 2.375 c 8.615 3.154 14.75 11.417 14.75 21.13 c 0 12.426 -10.07 22.5 -22.5 22.5 c -9.708 0 -17.971 -6.135 -21.12 -14.75 a 23 23 0 0 0 44.875 -7 a 23 23 0 0 0 -16 -21.875 z" style="opacity:0.2"/>
 </g>
 <g>
  <path d="m 24 1 c 12.703 0 23 10.297 23 23 c 0 12.703 -10.297 23 -23 23 -12.703 0 -23 -10.297 -23 -23 0 -12.703 10.297 -23 23 -23 z" style="fill:url(#linearGradient3764);fill-opacity:1"/>
 </g>
 <g>
  <g>
   <g transform="translate(1,1)">
    <g style="opacity:0.1">
     <!-- color: #4a75a2 -->
     <g>
      <path d="m 34 24 c 0 5.52 -4.477 9.996 -9.996 9.996 c -5.523 0 -10 -4.477 -10 -9.996 c 0 -5.523 4.477 -10 10 -10 c 5.52 0 9.996 4.477 9.996 10 m 0 0" style="fill:#000;fill-opacity:0.392;stroke:none;fill-rule:nonzero"/>
      <path d="m 18.914 18 c -0.234 0 -0.467 0.09 -0.645 0.27 c -0.359 0.355 -0.359 0.934 0 1.293 l 4.834 4.834 c -0.061 0.192 -0.104 0.392 -0.104 0.604 c 0 0.501 0.192 0.955 0.498 1.307 l -5.943 10.943 l 0.004 0.004 c -0.129 0.239 -0.051 0.543 0.172 0.68 c 0.227 0.14 0.516 0.058 0.645 -0.18 l 5.914 -10.891 c 0.221 0.085 0.46 0.137 0.711 0.137 c 0.74 0 1.379 -0.407 1.725 -1 l 11.34 0 c 0.515 0 0.941 -0.418 0.941 -0.934 l 0 -0.129 c 0 -0.516 -0.425 -0.934 -0.941 -0.934 l -11.342 0 c -0.346 -0.596 -0.984 -1 -1.723 -1 c -0.212 0 -0.412 0.042 -0.604 0.104 l -4.834 -4.834 c -0.18 -0.18 -0.414 -0.27 -0.648 -0.27 z" transform="translate(-1,-1)"/>
     </g>
    </g>
   </g>
  </g>
 </g>
 <g>
  <g>
   <!-- color: #4a75a2 -->
   <g>
    <path d="m 34 24 c 0 5.52 -4.477 9.996 -9.996 9.996 -5.523 0 -10 -4.477 -10 -9.996 0 -5.523 4.477 -10 10 -10 5.52 0 9.996 4.477 9.996 10 m 0 0" style="fill:#f9f9f9;fill-opacity:0.133;stroke:none;fill-rule:nonzero"/>
    <path d="M 22.438,23.73 17.27,18.562 c -0.359,-0.359 -0.359,-0.938 0,-1.293 0.355,-0.359 0.934,-0.359 1.293,0 l 5.168,5.168 c 0.359,0.359 0.359,0.938 0,1.293 -0.355,0.359 -0.934,0.359 -1.293,0 m 0,0" style="fill:#f9f9f9;fill-opacity:1;stroke:none;fill-rule:nonzero"/>
    <path d="m 23.934,23 13.13,0 c 0.516,0 0.941,0.418 0.941,0.934 l 0,0.129 c 0,0.516 -0.426,0.934 -0.941,0.934 l -13.13,0 C 23.418,24.997 23,24.579 23,24.063 l 0,-0.129 C 23,23.418 23.418,23 23.934,23 m 0,0" style="fill:#f9f9f9;fill-opacity:1;stroke:none;fill-rule:nonzero"/>
    <path d="m 16.555 36.25 7.06 -13 c 0.133 -0.238 0.418 -0.32 0.648 -0.18 0.227 0.137 0.301 0.441 0.172 0.684 l -7.06 13 c -0.129 0.238 -0.418 0.32 -0.645 0.18 -0.223 -0.137 -0.301 -0.441 -0.172 -0.68 m 0 0" style="fill:#e57878;fill-opacity:1;stroke:none;fill-rule:nonzero"/>
    <path d="m 26 24 c 0 1.102 -0.895 2 -2 2 -1.105 0 -2 -0.898 -2 -2 0 -1.105 0.895 -2 2 -2 1.105 0 2 0.895 2 2 m 0 0" style="fill:#dedede;fill-opacity:1;stroke:none;fill-rule:nonzero"/>
   </g>
  </g>
 </g>
 <g>
  <path d="m 40.03 7.531 c 3.712 4.084 5.969 9.514 5.969 15.469 0 12.703 -10.297 23 -23 23 c -5.954 0 -11.384 -2.256 -15.469 -5.969 4.178 4.291 10.01 6.969 16.469 6.969 c 12.703 0 23 -10.298 23 -23 0 -6.462 -2.677 -12.291 -6.969 -16.469 z" style="opacity:0.1"/>
 </g>
</svg>
