<svg version="1.1" viewBox="0 0 48 48" xmlns="http://www.w3.org/2000/svg">
 <defs>
  <linearGradient id="bg" x1="1" x2="47" gradientTransform="matrix(0 -1 1 0 -1.5e-6 48)" gradientUnits="userSpaceOnUse">
   <stop style="stop-color:#446c94" offset="0"/>
   <stop style="stop-color:#4a75a2" offset="1"/>
  </linearGradient>
 </defs>
 <path d="m36.31 5c5.859 4.062 9.688 10.831 9.688 18.5 0 12.426-10.07 22.5-22.5 22.5-7.669 0-14.438-3.828-18.5-9.688 1.037 1.822 2.306 3.499 3.781 4.969 4.085 3.712 9.514 5.969 15.469 5.969 12.703 0 23-10.298 23-23 0-5.954-2.256-11.384-5.969-15.469-1.469-1.475-3.147-2.744-4.969-3.781zm4.969 3.781c3.854 4.113 6.219 9.637 6.219 15.719 0 12.703-10.297 23-23 23-6.081 0-11.606-2.364-15.719-6.219 4.16 4.144 9.883 6.719 16.219 6.719 12.703 0 23-10.298 23-23 0-6.335-2.575-12.06-6.719-16.219z" style="opacity:.05"/>
 <path d="m41.28 8.781c3.712 4.085 5.969 9.514 5.969 15.469 0 12.703-10.297 23-23 23-5.954 0-11.384-2.256-15.469-5.969 4.113 3.854 9.637 6.219 15.719 6.219 12.703 0 23-10.298 23-23 0-6.081-2.364-11.606-6.219-15.719z" style="opacity:.1"/>
 <path d="m31.25 2.375c8.615 3.154 14.75 11.417 14.75 21.13 0 12.426-10.07 22.5-22.5 22.5-9.708 0-17.971-6.135-21.12-14.75a23 23 0 0 0 44.875-7 23 23 0 0 0-16-21.875z" style="opacity:.2"/>
 <path d="m24 1c12.703 0 23 10.297 23 23s-10.297 23-23 23-23-10.297-23-23 10.297-23 23-23z" style="fill:url(#bg)"/>
 <g transform="translate(1,1)">
  <g style="opacity:.1">
   <path d="m34 24c0 5.52-4.477 9.996-9.996 9.996-5.523 0-10-4.477-10-9.996 0-5.523 4.477-10 10-10 5.52 0 9.996 4.477 9.996 10" style="fill-opacity:.392"/>
   <path transform="translate(-1,-1)" d="m18.914 18c-0.234 0-0.467 0.09-0.645 0.27-0.359 0.355-0.359 0.934 0 1.293l4.834 4.834c-0.061 0.192-0.104 0.392-0.104 0.604 0 0.501 0.192 0.955 0.498 1.307l-5.943 10.943 4e-3 4e-3c-0.129 0.239-0.051 0.543 0.172 0.68 0.227 0.14 0.516 0.058 0.645-0.18l5.914-10.891c0.221 0.085 0.46 0.137 0.711 0.137 0.74 0 1.379-0.407 1.725-1h11.34c0.515 0 0.941-0.418 0.941-0.934v-0.129c0-0.516-0.425-0.934-0.941-0.934h-11.342c-0.346-0.596-0.984-1-1.723-1-0.212 0-0.412 0.042-0.604 0.104l-4.834-4.834c-0.18-0.18-0.414-0.27-0.648-0.27z"/>
  </g>
 </g>
 <path d="m34 24c0 5.52-4.477 9.996-9.996 9.996-5.523 0-10-4.477-10-9.996 0-5.523 4.477-10 10-10 5.52 0 9.996 4.477 9.996 10" style="fill-opacity:.133;fill:#f9f9f9"/>
 <path d="m22.438 23.73-5.168-5.168c-0.359-0.359-0.359-0.938 0-1.293 0.355-0.359 0.934-0.359 1.293 0l5.168 5.168c0.359 0.359 0.359 0.938 0 1.293-0.355 0.359-0.934 0.359-1.293 0" style="fill:#f9f9f9"/>
 <path d="m23.934 23h13.13c0.516 0 0.941 0.418 0.941 0.934v0.129c0 0.516-0.426 0.934-0.941 0.934h-13.13c-0.516 0-0.934-0.418-0.934-0.934v-0.129c0-0.516 0.418-0.934 0.934-0.934" style="fill:#f9f9f9"/>
 <path d="m16.555 36.25 7.06-13c0.133-0.238 0.418-0.32 0.648-0.18 0.227 0.137 0.301 0.441 0.172 0.684l-7.06 13c-0.129 0.238-0.418 0.32-0.645 0.18-0.223-0.137-0.301-0.441-0.172-0.68" style="fill:#e57878"/>
 <path d="m26 24c0 1.102-0.895 2-2 2s-2-0.898-2-2c0-1.105 0.895-2 2-2s2 0.895 2 2" style="fill:#dedede"/>
 <path d="m40.03 7.531c3.712 4.084 5.969 9.514 5.969 15.469 0 12.703-10.297 23-23 23-5.954 0-11.384-2.256-15.469-5.969 4.178 4.291 10.01 6.969 16.469 6.969 12.703 0 23-10.298 23-23 0-6.462-2.677-12.291-6.969-16.469z" style="opacity:.1"/>
</svg>
