<?xml version="1.0" encoding="UTF-8"?>
<svg version="1.1" viewBox="0 0 48 48" xmlns="http://www.w3.org/2000/svg">
 <defs>
  <linearGradient id="linearGradient3764" x1="1" x2="47" gradientTransform="matrix(0 -1 1 0 -1.5e-6 48)" gradientUnits="userSpaceOnUse">
   <stop style="stop-color:#e4e4e4" offset="0"/>
   <stop style="stop-color:#eee" offset="1"/>
  </linearGradient>
 </defs>
 <path d="m36.3 5c5.86 4.06 9.69 10.8 9.69 18.5 0 12.4-10.1 22.5-22.5 22.5-7.67 0-14.4-3.83-18.5-9.69 1.04 1.82 2.31 3.5 3.78 4.97 4.08 3.71 9.51 5.97 15.5 5.97 12.7 0 23-10.3 23-23 0-5.95-2.26-11.4-5.97-15.5-1.47-1.48-3.15-2.74-4.97-3.78zm4.97 3.78c3.85 4.11 6.22 9.64 6.22 15.7 0 12.7-10.3 23-23 23-6.08 0-11.6-2.36-15.7-6.22 4.16 4.14 9.88 6.72 16.2 6.72 12.7 0 23-10.3 23-23 0-6.34-2.58-12.1-6.72-16.2z" style="opacity:.05"/>
 <path d="m41.3 8.78c3.71 4.08 5.97 9.51 5.97 15.5 0 12.7-10.3 23-23 23-5.95 0-11.4-2.26-15.5-5.97 4.11 3.85 9.64 6.22 15.7 6.22 12.7 0 23-10.3 23-23 0-6.08-2.36-11.6-6.22-15.7z" style="opacity:.1"/>
 <path d="m31.2 2.38c8.62 3.15 14.8 11.4 14.8 21.1 0 12.4-10.1 22.5-22.5 22.5-9.71 0-18-6.14-21.1-14.8a23 23 0 0 0 44.9-7 23 23 0 0 0-16-21.9z" style="opacity:.2"/>
 <path d="m24 1c12.7 0 23 10.3 23 23s-10.3 23-23 23-23-10.3-23-23 10.3-23 23-23z" style="fill:url(#linearGradient3764)"/>
 <path d="m40 7.53c3.71 4.08 5.97 9.51 5.97 15.5 0 12.7-10.3 23-23 23-5.95 0-11.4-2.26-15.5-5.97 4.18 4.29 10 6.97 16.5 6.97 12.7 0 23-10.3 23-23 0-6.46-2.68-12.3-6.97-16.5z" style="opacity:.1"/>
 <path d="m25 13-0.00391 0.00586c-4 0-6 1-6 2.75l-7 0.25v1l4 1-3 7c0 3.47 1.37 5.44 3 5.89v1.11l-4 1v1h7v0.25c0 1.75 2 2.75 6 2.75s6-1 6-2.75v-2.25h-2v-1h4.25c1.94 0 3.75-2 3.75-6 0-0.105-0.0151-0.193-0.0176-0.295 0.641-0.835 1.02-1.9 1.02-3.21 0-3.72-2.13-5.5-6.37-5.5l-0.629-0.25c0-1.75-2-2.75-6-2.75zm-3 2.01c0.552 0 1 0.448 1 1h-2c0-0.552 0.448-1 1-1zm-3 2.75v0.25h-1zm12.4 0.25c2.17 0 3.54 0.616 4.05 2.06-0.642-0.691-1.42-1.06-2.22-1.06z" style="opacity:.1"/>
 <path d="m24 12c-4 0-6 1-6 2.75v2.25h6v1h-8.25c-1.94 0-3.75 2-3.75 6s1.81 6 3.75 6h1.25v-4c0-1.66 1.34-3 3-3h7c1.66 0 3-1.34 3-3v-5.25c0-1.75-2-2.75-6-2.75m-3 2c0.552 0 1 0.448 1 1s-0.448 1-1 1-1-0.448-1-1 0.448-1 1-1z" style="fill:#3ab5d6"/>
 <path d="m31 18v3.1c0 1.66-1.34 2.88-3 2.9h-7c-1.66 0.0237-3 1.44-3 3.1v6.15c0 1.75 2 2.75 6 2.75s6-1 6-2.75v-2.25h-6v-1h8.25c1.94 0 3.75-2 3.75-6s-1.82-6-3.75-6m-5.25 14c0.552 0 1 0.448 1 1s-0.448 1-1 1-1-0.448-1-1 0.448-1 1-1z" style="fill:#f99b47"/>
 <path d="m18 16v1h4v-1h-1zm9 0v7c0.773 0 1.47-0.298 2-0.775v-4.22h1v-2zm-11 2 1 8c0-0.889 0.39-1.68 1-2.22v-5.78zm20 5-6.99 2v-1.18c-0.315 0.106-0.65 0.175-1 0.18l-0.996 0.0137v5.99h2v-3h2.29c1.76 0 3.36-0.406 4.55-1.23 0.0888-0.545 0.152-1.12 0.152-1.77zm-18 10.2c0 0.268 0.0524 0.518 0.146 0.75h3.86v-1l-4-1-0.0039 1.25zm10-2.21v1.96c0 0.552-0.448 1-1 1h2v-3z" style="opacity:.1"/>
 <path d="m11 15v1l4 1v14l-4 1v1h10v-1l-4-1v-14l4-1v-1zm15 0v18h2v-7h2.29c3.71 0 6.71-1.78 6.71-5.5s-2.12-5.5-6.37-5.5zm2 2h2.42c2.79 0 4.58 1 4.58 3.5s-2.55 3.5-5 3.5h-2z" style="fill:#525252"/>
</svg>
