<svg xmlns="http://www.w3.org/2000/svg" viewBox="0 0 48 48">
 <defs>
  <linearGradient id="linearGradient3764" x1="1" x2="47" gradientUnits="userSpaceOnUse" gradientTransform="matrix(0,-1,1,0,-1.5e-6,47.999998)">
   <stop style="stop-color:#e1e1e1;stop-opacity:1"/>
   <stop offset="1" style="stop-color:#ebebeb;stop-opacity:1"/>
  </linearGradient>
  <radialGradient id="radialGradient4191" cx="22.706" cy="17.865" r="15" gradientTransform="matrix(0.89100652,-0.4539905,0.4539905,0.89100652,-8.3418365,13.390114)" gradientUnits="userSpaceOnUse">
   <stop style="stop-color:#a9bee1;stop-opacity:1"/>
   <stop offset="1" style="stop-color:#93add9;stop-opacity:1"/>
  </radialGradient>
  <radialGradient id="radialGradient4201" cx="22.706" cy="18.07" r="15" gradientTransform="matrix(0.89100652,-0.4539905,0.4539905,0.89100652,-8.4344118,13.208425)" gradientUnits="userSpaceOnUse">
   <stop style="stop-color:#9b9b9b;stop-opacity:1"/>
   <stop offset="1" style="stop-color:#8c8c8c;stop-opacity:1"/>
  </radialGradient>
 </defs>
 <g>
  <path d="m 36.31 5 c 5.859 4.062 9.688 10.831 9.688 18.5 c 0 12.426 -10.07 22.5 -22.5 22.5 c -7.669 0 -14.438 -3.828 -18.5 -9.688 c 1.037 1.822 2.306 3.499 3.781 4.969 c 4.085 3.712 9.514 5.969 15.469 5.969 c 12.703 0 23 -10.298 23 -23 c 0 -5.954 -2.256 -11.384 -5.969 -15.469 c -1.469 -1.475 -3.147 -2.744 -4.969 -3.781 z m 4.969 3.781 c 3.854 4.113 6.219 9.637 6.219 15.719 c 0 12.703 -10.297 23 -23 23 c -6.081 0 -11.606 -2.364 -15.719 -6.219 c 4.16 4.144 9.883 6.719 16.219 6.719 c 12.703 0 23 -10.298 23 -23 c 0 -6.335 -2.575 -12.06 -6.719 -16.219 z" style="opacity:0.05"/>
  <path d="m 41.28 8.781 c 3.712 4.085 5.969 9.514 5.969 15.469 c 0 12.703 -10.297 23 -23 23 c -5.954 0 -11.384 -2.256 -15.469 -5.969 c 4.113 3.854 9.637 6.219 15.719 6.219 c 12.703 0 23 -10.298 23 -23 c 0 -6.081 -2.364 -11.606 -6.219 -15.719 z" style="opacity:0.1"/>
  <path d="m 31.25 2.375 c 8.615 3.154 14.75 11.417 14.75 21.13 c 0 12.426 -10.07 22.5 -22.5 22.5 c -9.708 0 -17.971 -6.135 -21.12 -14.75 a 23 23 0 0 0 44.875 -7 a 23 23 0 0 0 -16 -21.875 z" style="opacity:0.2"/>
 </g>
 <g>
  <path d="m 24 1 c 12.703 0 23 10.297 23 23 c 0 12.703 -10.297 23 -23 23 -12.703 0 -23 -10.297 -23 -23 0 -12.703 10.297 -23 23 -23 z" style="fill:url(#linearGradient3764);fill-opacity:1"/>
 </g>
 <g>
  <path d="m 40.03 7.531 c 3.712 4.084 5.969 9.514 5.969 15.469 0 12.703 -10.297 23 -23 23 c -5.954 0 -11.384 -2.256 -15.469 -5.969 4.178 4.291 10.01 6.969 16.469 6.969 c 12.703 0 23 -10.298 23 -23 0 -6.462 -2.677 -12.291 -6.969 -16.469 z" style="opacity:0.1"/>
 </g>
 <circle r="15" cy="25" cx="25" style="fill:#000;opacity:0.1;fill-opacity:1;stroke:none"/>
 <path d="m 10.556 17.382 c -0.627 1.276 -1.069 2.635 -1.313 4.04 7.746 -2.428 14.89 -6 21.348 -10.877 -1.28 -0.625 -2.642 -1.065 -4.046 -1.306 -5.955 1.277 -11.322 3.908 -15.989 8.147 m -1.522 7.51 c 0.061 1.051 0.232 2.092 0.511 3.107 9.346 -3.388 18.11 -7.759 26.17 -13.336 -0.656 -0.823 -1.397 -1.574 -2.21 -2.242 -9.108 2.892 -17.302 7 -24.478 12.471 m 1.601 5.918 c 0.463 0.896 1.014 1.743 1.647 2.528 c 9.586 -3.434 18.761 -7.352 26.18 -13.338 -0.267 -0.971 -0.631 -1.912 -1.086 -2.81 -9.712 3.616 -18.696 8.07 -26.735 13.62 m 3.857 4.769 c 0.897 0.737 1.876 1.368 2.918 1.88 8.321 -2.188 16.323 -4.758 21.347 -10.877 0.204 -1.146 0.274 -2.312 0.209 -3.474 -9.989 2.253 -17.691 6.884 -24.474 12.471 m 6.963 3.186 c 3.188 0.555 6.469 0.063 9.355 -1.4 2.881 -1.474 5.209 -3.841 6.634 -6.747 -7.01 1.655 -11.333 5.01 -15.989 8.147 z" style="fill:url(#radialGradient4191);opacity:1;fill-opacity:1;stroke:none"/>
 <path d="m 17.19 10.635 a 15 15 0 0 0 -6.634 6.747 L 26.545 9.235 A 15 15 0 0 0 17.19 10.635 M 9.243 21.418 A 15 15 0 0 0 9.03 24.892 L 33.508 12.421 a 15 15 0 0 0 -2.918 -1.88 L 9.243 21.418 m 0.302 6.58 a 15 15 0 0 0 1.09 2.811 L 37.37 17.19 a 15 15 0 0 0 -1.647 -2.528 L 9.544 27.999 m 2.738 5.339 a 15 15 0 0 0 2.209 2.241 L 38.967 23.11 A 15 15 0 0 0 38.456 20 L 12.282 33.34 m 5.127 4.122 a 15 15 0 0 0 4.045 1.306 l 15.989 -8.147 a 15 15 0 0 0 1.313 -4.04 L 17.41 37.459" style="fill:url(#radialGradient4201);opacity:1;fill-opacity:1;stroke:none"/>
</svg>
