<svg version="1.1" viewBox="0 0 48 48" xmlns="http://www.w3.org/2000/svg">
 <defs>
  <linearGradient id="linearGradient1157" x1="1" x2="47" y1="24" y2="24" gradientTransform="rotate(-90,24,24)" gradientUnits="userSpaceOnUse">
   <stop style="stop-color:#c1cbd7" offset="0"/>
   <stop style="stop-color:#cdd5df" offset="1"/>
  </linearGradient>
 </defs>
 <path d="m36.31 5c5.859 4.062 9.688 10.831 9.688 18.5 0 12.426-10.07 22.5-22.5 22.5-7.669 0-14.438-3.828-18.5-9.688 1.037 1.822 2.306 3.499 3.781 4.969 4.085 3.712 9.514 5.969 15.469 5.969 12.703 0 23-10.298 23-23 0-5.954-2.256-11.384-5.969-15.469-1.469-1.475-3.147-2.744-4.969-3.781zm4.969 3.781c3.854 4.113 6.219 9.637 6.219 15.719 0 12.703-10.297 23-23 23-6.081 0-11.606-2.364-15.719-6.219 4.16 4.144 9.883 6.719 16.219 6.719 12.703 0 23-10.298 23-23 0-6.335-2.575-12.06-6.719-16.219z" style="opacity:.05"/>
 <path d="m41.28 8.781c3.712 4.085 5.969 9.514 5.969 15.469 0 12.703-10.297 23-23 23-5.954 0-11.384-2.256-15.469-5.969 4.113 3.854 9.637 6.219 15.719 6.219 12.703 0 23-10.298 23-23 0-6.081-2.364-11.606-6.219-15.719z" style="opacity:.1"/>
 <path d="m31.25 2.375c8.615 3.154 14.75 11.417 14.75 21.13 0 12.426-10.07 22.5-22.5 22.5-9.708 0-17.971-6.135-21.12-14.75a23 23 0 0 0 44.875-7 23 23 0 0 0-16-21.875z" style="opacity:.2"/>
 <path d="m24 47c-12.703 0-23-10.297-23-23s10.297-23 23-23 23 10.297 23 23-10.297 23-23 23z" style="fill:url(#linearGradient1157)"/>
 <path d="m25 11c-7.732 0-14 6.268-14 14s6.268 14 14 14c6.1869-0.0054 11.637-4.071 13.404-10h-23.65l-0.32617-7h24.236c-1.4083-6.4193-7.0921-10.995-13.664-11zm0 3c3.7194 0.0016 7.1861 1.8826 9.2148 5h-18.422c2.0272-3.1151 5.4904-4.9958 9.207-5zm12.5 9a2.5 2.5 0 0 0-2.5 2.5 2.5 2.5 0 0 0 2.5 2.5 2.5 2.5 0 0 0 2.5-2.5 2.5 2.5 0 0 0-2.5-2.5zm-15.5 1v3h12v-3zm-5.4746 8h16.953c-2.0881 2.5312-5.1972 3.998-8.4785 4-3.2799-0.0032-6.3874-1.4699-8.4746-4z" style="opacity:.1;stroke-width:1.029"/>
 <path d="m40.03 7.531c3.712 4.084 5.969 9.514 5.969 15.469 0 12.703-10.297 23-23 23-5.954 0-11.384-2.256-15.469-5.969 4.178 4.291 10.01 6.969 16.469 6.969 12.703 0 23-10.298 23-23 0-6.462-2.677-12.291-6.969-16.469z" style="opacity:.1"/>
 <path d="m24 10c-7.732 0-14 6.268-14 14s6.268 14 14 14c6.1869-0.0054 11.637-4.071 13.404-10h-23.65l-0.32617-7h24.236c-1.4083-6.4193-7.0921-10.995-13.664-11zm0 3c3.7194 0.0016 7.1861 1.8826 9.2148 5h-18.422c2.0272-3.1151 5.4904-4.9958 9.207-5zm-8.4746 18h16.953c-2.0881 2.5312-5.1972 3.998-8.4785 4-3.2799-0.0032-6.3874-1.4699-8.4746-4z" style="fill:#484c4c;stroke-width:1.029"/>
 <circle cx="36.5" cy="24.5" r="2.5" style="fill:#3a98d3"/>
 <rect x="21" y="23" width="12" height="3" style="fill:#3a98d3"/>
 <path d="m22.377 14.326c-0.80761 0.19951-1.5814 0.49864-2.3184 0.87109a3 3 0 0 1 1.9414 2.8027h2a5 5 0 0 0-1.623-3.6738zm-7.9492 7.6738 0.2793 6h11.293v-1h-4v-1h-1v-3h5v-1h-11.572zm-3.4277 7.1777v2.8223c0 0.554 0.446 1 1 1h1.2832c-0.9534-1.1342-1.7255-2.4236-2.2832-3.8223zm5.5254 2.8223c0.05992 0.07264 0.12787 0.13616 0.18945 0.20703 0.32126 0.28084 0.65219 0.5497 1 0.79297h7.2852c0.554 0 1-0.446 1-1h-9.4746z" style="opacity:.1"/>
 <path d="m18 13a5 5 0 0 0-5 5h-1c-0.4155 0-0.77047 0.25022-0.92188 0.60938-0.05047 0.11972-0.07813 0.25212-0.07813 0.39062v10.178c0.5577 1.3987 1.3298 2.6881 2.2832 3.8223h4.4316c-0.80617-0.56386-1.5503-1.2252-2.1895-2h10.475v-3h-12.246l-0.32617-7h12.572v-2c0-0.554-0.446-1-1-1h-10.207c0.06827-0.1049 0.15117-0.19675 0.22266-0.29883a3 3 0 0 1 2.6465-2.6777c1.0157-0.71833 2.1519-1.2508 3.3535-1.5918a5 5 0 0 0-2.0156-0.43164h-1zm3 10v3h5v-3z" style="opacity:.1"/>
 <path d="m17 12a5 5 0 0 0-5 5 5 5 0 0 0 5 5v-2a3 3 0 0 1-3-3 3 3 0 0 1 3-3h1a3 3 0 0 1 3 3 3 3 0 0 1-3 3v2a5 5 0 0 0 5-5 5 5 0 0 0-5-5z" style="fill:#939393"/>
 <path d="m16 27 0.5-4h1l0.5 4z" style="fill:#484c4c"/>
 <path d="m11 17h9v15h-9c-0.554 0-1-0.446-1-1v-13c0-0.554 0.446-1 1-1z" style="fill:#73acdd"/>
 <path d="m19.889 17-9.8887 6.3574v3.2148l9.5 5.4277h4.5c0.554 0 1-0.446 1-1v-13c0-0.554-0.446-1-1-1h-4.1113z" style="fill:#3a98d3"/>
 <circle cx="17.5" cy="23.5" r="1.5" style="fill:#2d2d2d"/>
 <path d="m16.5 27 0.5-3h1l0.5 3z" style="fill:#2d2d2d"/>
 <path d="m18.5 23a1.5 1.5 0 0 0-1.5 1.5 1.5 1.5 0 0 0 0.85742 1.3535l-0.19141 1.1465h0.83398l-0.35742-2.1465a1.5 1.5 0 0 0 0.85742-1.3535 1.5 1.5 0 0 0-0.06445-0.43359 1.5 1.5 0 0 0-0.43555-0.06641z" style="fill:#373737"/>
</svg>
