<svg version="1.1" viewBox="0 0 48 48" xmlns="http://www.w3.org/2000/svg" xmlns:xlink="http://www.w3.org/1999/xlink">
 <defs>
  <linearGradient id="linearGradient4205" x1="1" x2="47" gradientUnits="userSpaceOnUse">
   <stop style="stop-color:#a6e1e5" offset="0"/>
   <stop style="stop-color:#b6e6ea" offset="1"/>
  </linearGradient>
 </defs>
 <path d="m36.31 5c5.859 4.062 9.688 10.831 9.688 18.5 0 12.426-10.07 22.5-22.5 22.5-7.669 0-14.438-3.828-18.5-9.688 1.037 1.822 2.306 3.499 3.781 4.969 4.085 3.712 9.514 5.969 15.469 5.969 12.703 0 23-10.298 23-23 0-5.954-2.256-11.384-5.969-15.469-1.469-1.475-3.147-2.744-4.969-3.781zm4.969 3.781c3.854 4.113 6.219 9.637 6.219 15.719 0 12.703-10.297 23-23 23-6.081 0-11.606-2.364-15.719-6.219 4.16 4.144 9.883 6.719 16.219 6.719 12.703 0 23-10.298 23-23 0-6.335-2.575-12.06-6.719-16.219z" style="opacity:.05"/>
 <path d="m41.28 8.781c3.712 4.085 5.969 9.514 5.969 15.469 0 12.703-10.297 23-23 23-5.954 0-11.384-2.256-15.469-5.969 4.113 3.854 9.637 6.219 15.719 6.219 12.703 0 23-10.298 23-23 0-6.081-2.364-11.606-6.219-15.719z" style="opacity:.1"/>
 <path d="m31.25 2.375c8.615 3.154 14.75 11.417 14.75 21.13 0 12.426-10.07 22.5-22.5 22.5-9.708 0-17.971-6.135-21.12-14.75a23 23 0 0 0 44.875-7 23 23 0 0 0-16-21.875z" style="opacity:.2"/>
 <g transform="matrix(0,-1,1,0,0,48)" style="fill:url(#linearGradient4205)">
  <path d="m24 1c12.703 0 23 10.297 23 23s-10.297 23-23 23-23-10.297-23-23 10.297-23 23-23z"/>
 </g>
 <path d="m18.232 16.723c-0.719 0.029-1.311 0.337-1.719 0.646-2.41 1.828-4.514 9.452-4.514 13.486 0 4.03 0.928 3.863 1.732 3.863 0.805 0 1.817-0.553 2.701-1.332 2.442-2.149 3.566-4.387 5.994-4.387h5.145c2.428 0 3.553 2.237 5.994 4.387 0.884 0.779 1.896 1.332 2.701 1.332s1.732 0.172 1.732-3.863c0-4.03-2.104-11.659-4.514-13.486-0.652-0.495-1.774-0.987-3.141-0.338-0.916 0.435-1.735 0.969-2.932 0.969h-4.828c-1.197 0-2.02-0.533-2.932-0.969-0.512-0.243-0.99-0.326-1.422-0.309z" style="opacity:.1"/>
 <path d="m40.03 7.531c3.712 4.084 5.969 9.514 5.969 15.469 0 12.703-10.297 23-23 23-5.954 0-11.384-2.256-15.469-5.969 4.178 4.291 10.01 6.969 16.469 6.969 12.703 0 23-10.298 23-23 0-6.462-2.677-12.291-6.969-16.469z" style="opacity:.1"/>
 <path d="m17.232 15.723c-0.719 0.029-1.311 0.337-1.719 0.646-2.41 1.828-4.514 9.452-4.514 13.486 0 4.03 0.928 3.863 1.732 3.863 0.805 0 1.817-0.553 2.701-1.332 2.442-2.149 3.566-4.387 5.994-4.387h5.145c2.428 0 3.553 2.237 5.994 4.387 0.884 0.779 1.896 1.332 2.701 1.332s1.732 0.172 1.732-3.863c0-4.03-2.104-11.659-4.514-13.486-0.652-0.495-1.774-0.987-3.141-0.338-0.916 0.435-1.735 0.969-2.932 0.969h-4.828c-1.197 0-2.02-0.533-2.932-0.969-0.512-0.243-0.99-0.326-1.422-0.309z" style="fill:#3d3d3d"/>
 <path d="m25 27h-3v-3h-2l5-4 5 4h-2v3z" style="opacity:.1"/>
 <path d="m24 26h-3v-3h-2l5-4 5 4h-2v3z" style="fill:#fe5c5a"/>
</svg>
