<svg version="1.1" viewBox="0 0 48 48" xmlns="http://www.w3.org/2000/svg">
 <defs>
  <linearGradient id="bg" x1="1" x2="47" gradientTransform="matrix(0 -1 1 0 -1.5e-6 48)" gradientUnits="userSpaceOnUse">
   <stop style="stop-color:#666" offset="0"/>
   <stop style="stop-color:#707070" offset="1"/>
  </linearGradient>
  <linearGradient id="linear0" x2="0" y1="279.1" y2="268.33" gradientTransform="matrix(2.7972 0 0 2.7972 -332.97 -741.65)" gradientUnits="userSpaceOnUse">
   <stop style="stop-color:#c8c8c8" offset="0"/>
   <stop style="stop-color:#eaeaea" offset="1"/>
  </linearGradient>
 </defs>
 <path d="m36.31 5c5.859 4.062 9.688 10.831 9.688 18.5 0 12.426-10.07 22.5-22.5 22.5-7.669 0-14.438-3.828-18.5-9.688 1.037 1.822 2.306 3.499 3.781 4.969 4.085 3.712 9.514 5.969 15.469 5.969 12.703 0 23-10.298 23-23 0-5.954-2.256-11.384-5.969-15.469-1.469-1.475-3.147-2.744-4.969-3.781zm4.969 3.781c3.854 4.113 6.219 9.637 6.219 15.719 0 12.703-10.297 23-23 23-6.081 0-11.606-2.364-15.719-6.219 4.16 4.144 9.883 6.719 16.219 6.719 12.703 0 23-10.298 23-23 0-6.335-2.575-12.06-6.719-16.219z" style="opacity:.05"/>
 <path d="m41.28 8.781c3.712 4.085 5.969 9.514 5.969 15.469 0 12.703-10.297 23-23 23-5.954 0-11.384-2.256-15.469-5.969 4.113 3.854 9.637 6.219 15.719 6.219 12.703 0 23-10.298 23-23 0-6.081-2.364-11.606-6.219-15.719z" style="opacity:.1"/>
 <path d="m31.25 2.375c8.615 3.154 14.75 11.417 14.75 21.13 0 12.426-10.07 22.5-22.5 22.5-9.708 0-17.971-6.135-21.12-14.75a23 23 0 0 0 44.875-7 23 23 0 0 0-16-21.875z" style="opacity:.2"/>
 <path d="m24 1c12.703 0 23 10.297 23 23s-10.297 23-23 23-23-10.297-23-23 10.297-23 23-23z" style="fill:url(#bg)"/>
 <g transform="translate(1,1)">
  <g style="opacity:.1">
   <path d="m24 9c8.281 0 14.996 6.715 14.996 15 0 8.281-6.715 14.996-14.996 14.996-8.285 0-15-6.715-15-14.996 0-8.285 6.715-15 15-15" style="fill-rule:evenodd"/>
  </g>
 </g>
 <path d="m24 9c8.281 0 14.996 6.715 14.996 15 0 8.281-6.715 14.996-14.996 14.996-8.285 0-15-6.715-15-14.996 0-8.285 6.715-15 15-15" style="fill-rule:evenodd;fill:url(#linear0)"/>
 <path d="m34.527 34.746c0.691-0.691 1.313-1.457 1.863-2.27 0.547-0.809 1.023-1.688 1.41-2.602s0.68-1.871 0.883-2.867c0.199-0.996 0.309-2.027 0.309-3.078h-10.699c0 0.633-0.129 1.242-0.359 1.789-0.227 0.547-0.563 1.039-0.977 1.453l7.574 7.574m-4e-3 0" style="fill-opacity:.498;fill:#fff"/>
 <path d="m13.496 13.289c-0.688 0.688-1.309 1.449-1.855 2.262-0.547 0.813-1.02 1.684-1.402 2.594-0.387 0.91-0.68 1.863-0.879 2.852-0.203 0.992-0.309 2.02-0.309 3.07h10.664c0-0.633 0.125-1.238 0.359-1.781 0.23-0.547 0.563-1.039 0.973-1.449l-7.539-7.543m-0.012-4e-3" style="fill-opacity:.498;fill:#fff"/>
 <path d="m28.29 24c0 2.367-1.918 4.285-4.285 4.285s-4.285-1.918-4.285-4.285 1.918-4.285 4.285-4.285 4.285 1.918 4.285 4.285" style="fill-opacity:.498;fill:#999"/>
 <path d="m20.12 25.762-9.777 4.445c0.75 1.652 1.793 3.133 3.059 4.398l7.563-7.566c-0.359-0.363-0.633-0.801-0.844-1.273m0-4e-3" style="fill-opacity:.498;fill:#fff"/>
 <path d="m34.602 13.398-7.566 7.562c0.363 0.363 0.633 0.801 0.848 1.273l9.777-4.445c-0.754-1.648-1.793-3.129-3.059-4.395m0 4e-3" style="fill-opacity:.498;fill:#fff"/>
 <path d="m39 24c0 1.344-0.18 2.68-0.535 3.973l-14.465-3.973m15 0" style="fill-opacity:.498;fill:#999"/>
 <path d="m9 24c0-1.344 0.18-2.68 0.535-3.973l14.465 3.973m-15 0" style="fill-opacity:.498;fill:#999"/>
 <path d="m 24,9 c 1.344,0 2.68,0.18 3.973,0.535 L 24,24 M 24,9" style="fill:#b7c8e4"/>
 <path d="m24 39c-1.344 0-2.68-0.18-3.973-0.535l3.973-14.465m0 15" style="fill:#b7c8e4"/>
 <path d="m24 21.859c0.59 0 1.129 0.238 1.516 0.621 0.387 0.387 0.625 0.926 0.625 1.52 0 0.59-0.238 1.129-0.625 1.516s-0.926 0.625-1.516 0.625c-0.594 0-1.133-0.238-1.52-0.625-0.383-0.387-0.621-0.926-0.621-1.516 0-0.594 0.238-1.133 0.621-1.52 0.387-0.383 0.926-0.621 1.52-0.621" style="fill-opacity:.498;fill:#fff"/>
 <path d="m27 26.473c1.887-1.352 3.355-1.672 5.5-1.168v5.03c-0.105 0.199-0.531 1.176 1.496 1.723v-9.883c-3.805-0.344-5.813-0.328-8.5 1.41v7.914c0.684-1.023-2.789 2.422 1.5 1.457m4e-3 -6.484" style="fill:#2d4c78"/>
 <path d="m27 33c0 1.105-0.895 2-2 2s-2-0.895-2-2 0.895-2 2-2 2 0.895 2 2" style="fill:#2d4c78"/>
 <path d="m34 32c0 1.105-0.895 2-2 2-1.102 0-2-0.895-2-2s0.898-2 2-2c1.105 0 2 0.895 2 2" style="fill:#2d4c78"/>
 <path d="m40.03 7.531c3.712 4.084 5.969 9.514 5.969 15.469 0 12.703-10.297 23-23 23-5.954 0-11.384-2.256-15.469-5.969 4.178 4.291 10.01 6.969 16.469 6.969 12.703 0 23-10.298 23-23 0-6.462-2.677-12.291-6.969-16.469z" style="opacity:.1"/>
</svg>
