<svg xmlns="http://www.w3.org/2000/svg" viewBox="0 0 48 48">
 <defs>
  <linearGradient id="linearGradient4276" y1="1" x2="0" y2="47" gradientUnits="userSpaceOnUse">
   <stop style="stop-color:#d7e6ff;stop-opacity:1"/>
   <stop offset="1" style="stop-color:#c3daff;stop-opacity:1"/>
  </linearGradient>
 </defs>
 <g>
  <path d="m 36.31 5 c 5.859 4.062 9.688 10.831 9.688 18.5 c 0 12.426 -10.07 22.5 -22.5 22.5 c -7.669 0 -14.438 -3.828 -18.5 -9.688 c 1.037 1.822 2.306 3.499 3.781 4.969 c 4.085 3.712 9.514 5.969 15.469 5.969 c 12.703 0 23 -10.298 23 -23 c 0 -5.954 -2.256 -11.384 -5.969 -15.469 c -1.469 -1.475 -3.147 -2.744 -4.969 -3.781 z m 4.969 3.781 c 3.854 4.113 6.219 9.637 6.219 15.719 c 0 12.703 -10.297 23 -23 23 c -6.081 0 -11.606 -2.364 -15.719 -6.219 c 4.16 4.144 9.883 6.719 16.219 6.719 c 12.703 0 23 -10.298 23 -23 c 0 -6.335 -2.575 -12.06 -6.719 -16.219 z" style="opacity:0.05"/>
  <path d="m 41.28 8.781 c 3.712 4.085 5.969 9.514 5.969 15.469 c 0 12.703 -10.297 23 -23 23 c -5.954 0 -11.384 -2.256 -15.469 -5.969 c 4.113 3.854 9.637 6.219 15.719 6.219 c 12.703 0 23 -10.298 23 -23 c 0 -6.081 -2.364 -11.606 -6.219 -15.719 z" style="opacity:0.1"/>
  <path d="m 31.25 2.375 c 8.615 3.154 14.75 11.417 14.75 21.13 c 0 12.426 -10.07 22.5 -22.5 22.5 c -9.708 0 -17.971 -6.135 -21.12 -14.75 a 23 23 0 0 0 44.875 -7 a 23 23 0 0 0 -16 -21.875 z" style="opacity:0.2"/>
 </g>
 <g style="fill:url(#linearGradient4276);fill-opacity:1">
  <path d="m 24 1 c 12.703 0 23 10.297 23 23 c 0 12.703 -10.297 23 -23 23 -12.703 0 -23 -10.297 -23 -23 0 -12.703 10.297 -23 23 -23 z"/>
 </g>
 <g>
  <path d="m 40.03 7.531 c 3.712 4.084 5.969 9.514 5.969 15.469 0 12.703 -10.297 23 -23 23 c -5.954 0 -11.384 -2.256 -15.469 -5.969 4.178 4.291 10.01 6.969 16.469 6.969 c 12.703 0 23 -10.298 23 -23 0 -6.462 -2.677 -12.291 -6.969 -16.469 z" style="opacity:0.1"/>
 </g>
 <g transform="matrix(1,0,0,0.9847953,-0.220338,0.38916732)">
  <path d="m 25.22 13.821 c -7.18 0 -13 4.365 -13 9.75 0 2.692 1.456 5.129 3.809 6.894 0.588 0.441 1.176 0.602 1.924 1.192 1.322 1.042 -2.23 4.504 -2.23 4.504 0 0 4.901 -1.805 7.424 -2.56 0.294 -0.088 0.558 -0.197 0.832 -0.296 1.127 0.526 2.489 0.825 4.066 0.825 0.621 0 0.995 0.112 1.484 0.258 1.747 0.523 5.176 1.773 5.176 1.773 0 0 -2.557 -2.487 -1.58 -3.12 1.994 -1.29 4.098 -2.568 4.098 -5.512 0 -0.073 -0.008 -0.141 -0.01 -0.212 0.65 -1.14 1.01 -2.404 1.01 -3.748 0 -5.385 -5.822 -9.748 -13 -9.748 z" style="fill:#000;opacity:0.1;fill-opacity:1;stroke:none;fill-rule:nonzero"/>
  <path d="m 23.998 13 c -7.18 0 -13 4.298 -13 9.602 0 2.651 1.456 5.05 3.809 6.789 0.588 0.435 1.176 0.593 1.924 1.174 c 1.322 1.026 -2.23 4.436 -2.23 4.436 c 0 0 4.901 -1.778 7.424 -2.521 0.707 -0.208 1.248 -0.543 2.145 -0.543 c 7.18 0 12.932 -4.03 12.932 -9.336 0 -5.303 -5.822 -9.6 -13 -9.6" transform="matrix(1,0,0,1.0154395,0.220338,-0.39517585)" style="fill:#5f8dd3;opacity:1;fill-opacity:1;stroke:none;fill-rule:nonzero"/>
  <path d="m 19.22 26.429 c 0 3.728 2.852 6.685 7.823 6.685 0.621 0 0.995 0.111 1.484 0.258 1.747 0.523 5.175 1.773 5.175 1.773 0 0 -2.557 -2.487 -1.58 -3.119 1.994 -1.29 4.098 -2.569 4.098 -5.512 0 -4.154 -3 -6.6 -9 -6.6 -4.971 0 -8 2.785 -8 6.515 z" style="fill:#f9f9f9;opacity:1;fill-opacity:1;stroke:none;fill-rule:nonzero"/>
  <ellipse cy="26.514" cx="23.72" rx="1.5" ry="1.523" style="fill:#666;opacity:1;fill-opacity:1;stroke:none;fill-rule:nonzero"/>
  <ellipse cx="27.72" cy="26.514" rx="1.5" ry="1.523" style="fill:#666;opacity:1;fill-opacity:1;stroke:none;fill-rule:nonzero"/>
  <ellipse cy="26.514" cx="31.72" rx="1.5" ry="1.523" style="fill:#666;opacity:1;fill-opacity:1;stroke:none;fill-rule:nonzero"/>
 </g>
</svg>
