<svg xmlns="http://www.w3.org/2000/svg" viewBox="0 0 48 48">
 <defs>
  <linearGradient id="linearGradient3764" x1="1" x2="47" gradientUnits="userSpaceOnUse" gradientTransform="matrix(0,-1,1,0,-1.5e-6,47.999998)">
   <stop style="stop-color:#ca251c;stop-opacity:1"/>
   <stop offset="1" style="stop-color:#db281f;stop-opacity:1"/>
  </linearGradient>
 </defs>
 <g>
  <path d="m 36.31 5 c 5.859 4.062 9.688 10.831 9.688 18.5 c 0 12.426 -10.07 22.5 -22.5 22.5 c -7.669 0 -14.438 -3.828 -18.5 -9.688 c 1.037 1.822 2.306 3.499 3.781 4.969 c 4.085 3.712 9.514 5.969 15.469 5.969 c 12.703 0 23 -10.298 23 -23 c 0 -5.954 -2.256 -11.384 -5.969 -15.469 c -1.469 -1.475 -3.147 -2.744 -4.969 -3.781 z m 4.969 3.781 c 3.854 4.113 6.219 9.637 6.219 15.719 c 0 12.703 -10.297 23 -23 23 c -6.081 0 -11.606 -2.364 -15.719 -6.219 c 4.16 4.144 9.883 6.719 16.219 6.719 c 12.703 0 23 -10.298 23 -23 c 0 -6.335 -2.575 -12.06 -6.719 -16.219 z" style="opacity:0.05"/>
  <path d="m 41.28 8.781 c 3.712 4.085 5.969 9.514 5.969 15.469 c 0 12.703 -10.297 23 -23 23 c -5.954 0 -11.384 -2.256 -15.469 -5.969 c 4.113 3.854 9.637 6.219 15.719 6.219 c 12.703 0 23 -10.298 23 -23 c 0 -6.081 -2.364 -11.606 -6.219 -15.719 z" style="opacity:0.1"/>
  <path d="m 31.25 2.375 c 8.615 3.154 14.75 11.417 14.75 21.13 c 0 12.426 -10.07 22.5 -22.5 22.5 c -9.708 0 -17.971 -6.135 -21.12 -14.75 a 23 23 0 0 0 44.875 -7 a 23 23 0 0 0 -16 -21.875 z" style="opacity:0.2"/>
 </g>
 <g>
  <path d="m 24 1 c 12.703 0 23 10.297 23 23 c 0 12.703 -10.297 23 -23 23 -12.703 0 -23 -10.297 -23 -23 0 -12.703 10.297 -23 23 -23 z" style="fill:url(#linearGradient3764);fill-opacity:1"/>
 </g>
 <g>
  <g>
   <g transform="translate(1,1)">
    <g style="opacity:0.1">
     <!-- color: #db281f -->
     <g>
      <path d="m 23.805 23.574 c 0 -0.352 -0.063 -0.734 -0.27 -1.027 c -0.406 -0.59 -1.281 -0.773 -1.891 -0.406 c -0.305 0.188 -0.48 0.516 -0.574 0.852 c -0.191 0.668 -0.105 1.43 0.031 2.098 c 0.043 0.219 0.086 0.434 0.145 0.641 c 0.023 0.074 0.031 0.191 0.082 0.25 c 0.086 0.113 0.297 0.141 0.426 0.121 c 0.387 -0.066 0.293 -0.703 0.277 -0.977 c -0.031 -0.629 -0.219 -1.246 -0.035 -1.879 c 0.074 -0.266 0.227 -0.566 0.496 -0.684 c 0.242 -0.105 0.488 0.023 0.582 0.262 c 0.156 0.387 0.121 0.828 0.219 1.23 c 0.031 0.133 0.066 0.27 0.129 0.398 c 0.016 0.035 0.043 0.109 0.094 0.109 c 0.125 -0.012 0.305 -0.223 0.398 -0.301 c 0.301 -0.25 0.613 -0.52 0.965 -0.707 c 0.164 -0.086 0.434 -0.227 0.602 -0.078 c 0.047 0.039 0.078 0.082 0.109 0.129 c 0.199 0.313 0 0.555 -0.125 0.844 c -0.168 0.383 -0.34 0.758 -0.578 1.098 c -0.207 0.293 -0.492 0.551 -0.656 0.871 c -0.105 0.207 -0.168 0.43 -0.121 0.664 c 0.035 0.188 0.18 0.301 0.371 0.258 c 0.145 -0.035 0.242 -0.156 0.324 -0.273 c 0.145 -0.199 0.281 -0.41 0.426 -0.613 c 0.277 -0.391 0.609 -0.762 0.848 -1.184 c 0.281 -0.508 0.418 -1.086 0.418 -1.664 c 0 -0.473 -0.172 -1.199 -0.727 -1.297 c -0.102 -0.02 -0.223 -0.008 -0.324 0.008 c -0.125 0.023 -0.258 0.066 -0.375 0.125 c -0.313 0.148 -0.586 0.375 -0.816 0.633 c -0.145 0.16 -0.273 0.363 -0.449 0.496" style="fill:#000;fill-opacity:1;stroke:none;fill-rule:nonzero"/>
      <path d="m 23.285 11.848 c -0.434 0.059 -0.875 0.055 -1.313 0.121 c -0.84 0.129 -1.641 0.391 -2.426 0.703 c -0.285 0.117 -0.57 0.242 -0.848 0.379 c -0.102 0.051 -0.258 0.09 -0.34 0.168 c -0.043 0.043 -0.039 0.141 -0.047 0.195 c -0.012 0.16 -0.031 0.313 -0.047 0.473 c -0.066 0.602 -0.105 1.23 -0.023 1.832 c 0.031 0.195 0.102 0.547 0.332 0.586 c 0.371 0.059 0.656 -0.395 0.836 -0.648 c 0.434 -0.582 0.906 -1.129 1.605 -1.391 c 0.816 -0.313 1.754 -0.383 2.617 -0.441 c 2.43 -0.168 5.078 0.277 6.867 2.063 c 0.254 0.254 0.488 0.527 0.695 0.82 c 0.805 1.16 1.227 2.477 1.43 3.859 c 0.098 0.652 0.16 1.309 0.016 1.957 c -0.258 1.121 -0.93 2.098 -1.707 2.93 c -0.531 0.57 -1.129 1.082 -1.75 1.551 c -0.344 0.262 -0.734 0.484 -1.059 0.77 c -0.383 0.328 -0.691 0.742 -0.934 1.18 c -0.637 1.191 -0.809 2.605 -0.621 3.918 c 0.039 0.273 0.074 0.543 0.141 0.816 c 0.02 0.078 0.02 0.215 0.066 0.281 c 0.102 0.121 0.359 0.188 0.508 0.191 c 0.156 0.012 0.262 -0.105 0.301 -0.25 c 0.063 -0.23 0.02 -0.496 -0.02 -0.73 c -0.074 -0.488 -0.145 -0.98 -0.125 -1.477 c 0.043 -0.914 0.398 -1.762 1.027 -2.426 c 0.641 -0.672 1.512 -1.059 2.242 -1.621 c 1.477 -1.137 2.797 -2.672 3.305 -4.492 c 0.18 -0.652 0.238 -1.344 0.156 -2.02 c -0.105 -0.852 -0.414 -1.699 -0.707 -2.5 c -0.891 -2.438 -2.422 -4.754 -4.852 -5.867 c -0.965 -0.441 -1.973 -0.645 -3.02 -0.793 c -0.492 -0.063 -0.98 -0.105 -1.473 -0.129 c -0.273 -0.012 -0.574 -0.043 -0.844 -0.008" style="fill:#000;fill-opacity:1;stroke:none;fill-rule:nonzero"/>
      <path d="m 19.484 27.629 c -0.473 0.07 -0.609 0.449 -0.523 0.879 c 0.113 0.547 0.547 0.965 0.969 1.293 c 1.098 0.844 2.508 1.297 3.887 1.238 c 0.539 -0.02 1.125 -0.113 1.617 -0.34 c 0.266 -0.121 0.543 -0.563 0.18 -0.75 c -0.047 -0.027 -0.113 -0.043 -0.168 -0.051 c -0.156 -0.027 -0.332 0.043 -0.48 0.086 c -0.266 0.074 -0.527 0.152 -0.801 0.195 c -0.805 0.129 -1.68 -0.059 -2.352 -0.535 c -0.539 -0.387 -0.98 -0.898 -1.391 -1.414 c -0.254 -0.316 -0.484 -0.664 -0.938 -0.602" style="fill:#000;fill-opacity:1;stroke:none;fill-rule:nonzero"/>
      <path d="m 18.871 30.31 c -0.121 0.016 -0.262 0.008 -0.363 0.086 c -0.215 0.16 0.023 0.477 0.137 0.617 c 0.328 0.418 0.758 0.766 1.191 1.07 c 1.203 0.852 2.566 1.34 4.03 1.441 c 0.418 0.031 0.848 0 1.266 -0.07 c 0.152 -0.023 0.34 -0.035 0.484 -0.102 c 0.398 -0.184 0.281 -0.938 -0.074 -1.105 c -0.152 -0.074 -0.402 0.023 -0.566 0.043 c -0.387 0.055 -0.773 0.063 -1.16 0.051 c -1.016 -0.023 -2.094 -0.336 -2.98 -0.828 c -0.348 -0.195 -0.664 -0.43 -0.965 -0.695 c -0.18 -0.16 -0.367 -0.422 -0.602 -0.5 c -0.109 -0.039 -0.285 -0.02 -0.398 -0.008" style="fill:#000;fill-opacity:1;stroke:none;fill-rule:nonzero"/>
      <path d="m 19.11 32.566 c -0.168 0.02 -0.301 0.109 -0.41 0.234 c -0.078 0.09 -0.152 0.168 -0.199 0.281 c -0.246 0.605 0.41 1.18 0.867 1.469 c 0.5 0.32 1.055 0.559 1.613 0.758 c 1.266 0.449 2.754 0.738 4.066 0.336 c 0.391 -0.121 0.777 -0.34 1.059 -0.633 c 0.16 -0.168 0.273 -0.422 -0.02 -0.527 c -0.176 -0.063 -0.387 0.098 -0.543 0.16 c -0.375 0.152 -0.762 0.266 -1.16 0.313 c -0.527 0.063 -1 -0.051 -1.508 -0.18 c -0.434 -0.105 -0.871 -0.215 -1.293 -0.371 c -0.359 -0.133 -0.711 -0.293 -1.027 -0.512 c -0.094 -0.07 -0.203 -0.125 -0.281 -0.215 c -0.254 -0.281 -0.441 -0.609 -0.707 -0.879 c -0.117 -0.117 -0.281 -0.254 -0.461 -0.234" style="fill:#000;fill-opacity:1;stroke:none;fill-rule:nonzero"/>
     </g>
    </g>
   </g>
  </g>
 </g>
 <g>
  <g>
   <!-- color: #db281f -->
   <g>
    <path d="m 23.805 23.574 c 0 -0.352 -0.063 -0.734 -0.27 -1.027 c -0.406 -0.59 -1.281 -0.773 -1.891 -0.406 c -0.305 0.188 -0.48 0.516 -0.574 0.852 c -0.191 0.668 -0.105 1.43 0.031 2.098 c 0.043 0.219 0.086 0.434 0.145 0.641 c 0.023 0.074 0.031 0.191 0.082 0.25 c 0.086 0.113 0.297 0.141 0.426 0.121 c 0.387 -0.066 0.293 -0.703 0.277 -0.977 c -0.031 -0.629 -0.219 -1.246 -0.035 -1.879 c 0.074 -0.266 0.227 -0.566 0.496 -0.684 c 0.242 -0.105 0.488 0.023 0.582 0.262 c 0.156 0.387 0.121 0.828 0.219 1.23 c 0.031 0.133 0.066 0.27 0.129 0.398 c 0.016 0.035 0.043 0.109 0.094 0.109 c 0.125 -0.012 0.305 -0.223 0.398 -0.301 c 0.301 -0.25 0.613 -0.52 0.965 -0.707 c 0.164 -0.086 0.434 -0.227 0.602 -0.078 c 0.047 0.039 0.078 0.082 0.109 0.129 c 0.199 0.313 0 0.555 -0.125 0.844 c -0.168 0.383 -0.34 0.758 -0.578 1.098 c -0.207 0.293 -0.492 0.551 -0.656 0.871 c -0.105 0.207 -0.168 0.43 -0.121 0.664 c 0.035 0.188 0.18 0.301 0.371 0.258 c 0.145 -0.035 0.242 -0.156 0.324 -0.273 c 0.145 -0.199 0.281 -0.41 0.426 -0.613 c 0.277 -0.391 0.609 -0.762 0.848 -1.184 c 0.281 -0.508 0.418 -1.086 0.418 -1.664 c 0 -0.473 -0.172 -1.199 -0.727 -1.297 c -0.102 -0.02 -0.223 -0.008 -0.324 0.008 c -0.125 0.023 -0.258 0.066 -0.375 0.125 c -0.313 0.148 -0.586 0.375 -0.816 0.633 c -0.145 0.16 -0.273 0.363 -0.449 0.496" style="fill:#fc0;fill-opacity:1;stroke:none;fill-rule:nonzero"/>
    <path d="m 23.285 11.848 c -0.434 0.059 -0.875 0.055 -1.313 0.121 c -0.84 0.129 -1.641 0.391 -2.426 0.703 c -0.285 0.117 -0.57 0.242 -0.848 0.379 c -0.102 0.051 -0.258 0.09 -0.34 0.168 c -0.043 0.043 -0.039 0.141 -0.047 0.195 c -0.012 0.16 -0.031 0.313 -0.047 0.473 c -0.066 0.602 -0.105 1.23 -0.023 1.832 c 0.031 0.195 0.102 0.547 0.332 0.586 c 0.371 0.059 0.656 -0.395 0.836 -0.648 c 0.434 -0.582 0.906 -1.129 1.605 -1.391 c 0.816 -0.313 1.754 -0.383 2.617 -0.441 c 2.43 -0.168 5.078 0.277 6.867 2.063 c 0.254 0.254 0.488 0.527 0.695 0.82 c 0.805 1.16 1.227 2.477 1.43 3.859 c 0.098 0.652 0.16 1.309 0.016 1.957 c -0.258 1.121 -0.93 2.098 -1.707 2.93 c -0.531 0.57 -1.129 1.082 -1.75 1.551 c -0.344 0.262 -0.734 0.484 -1.059 0.77 c -0.383 0.328 -0.691 0.742 -0.934 1.18 c -0.637 1.191 -0.809 2.605 -0.621 3.918 c 0.039 0.273 0.074 0.543 0.141 0.816 c 0.02 0.078 0.02 0.215 0.066 0.281 c 0.102 0.121 0.359 0.188 0.508 0.191 c 0.156 0.012 0.262 -0.105 0.301 -0.25 c 0.063 -0.23 0.02 -0.496 -0.02 -0.73 c -0.074 -0.488 -0.145 -0.98 -0.125 -1.477 c 0.043 -0.914 0.398 -1.762 1.027 -2.426 c 0.641 -0.672 1.512 -1.059 2.242 -1.621 c 1.477 -1.137 2.797 -2.672 3.305 -4.492 c 0.18 -0.652 0.238 -1.344 0.156 -2.02 c -0.105 -0.852 -0.414 -1.699 -0.707 -2.5 c -0.891 -2.438 -2.422 -4.754 -4.852 -5.867 c -0.965 -0.441 -1.973 -0.645 -3.02 -0.793 c -0.492 -0.063 -0.98 -0.105 -1.473 -0.129 c -0.273 -0.012 -0.574 -0.043 -0.844 -0.008" style="fill:#fc0;fill-opacity:1;stroke:none;fill-rule:nonzero"/>
    <path d="m 19.484 27.629 c -0.473 0.07 -0.609 0.449 -0.523 0.879 c 0.113 0.547 0.547 0.965 0.969 1.293 c 1.098 0.844 2.508 1.297 3.887 1.238 c 0.539 -0.02 1.125 -0.113 1.617 -0.34 c 0.266 -0.121 0.543 -0.563 0.18 -0.75 c -0.047 -0.027 -0.113 -0.043 -0.168 -0.051 c -0.156 -0.027 -0.332 0.043 -0.48 0.086 c -0.266 0.074 -0.527 0.152 -0.801 0.195 c -0.805 0.129 -1.68 -0.059 -2.352 -0.535 c -0.539 -0.387 -0.98 -0.898 -1.391 -1.414 c -0.254 -0.316 -0.484 -0.664 -0.938 -0.602" style="fill:#fc0;fill-opacity:1;stroke:none;fill-rule:nonzero"/>
    <path d="m 18.871 30.31 c -0.121 0.016 -0.262 0.008 -0.363 0.086 c -0.215 0.16 0.023 0.477 0.137 0.617 c 0.328 0.418 0.758 0.766 1.191 1.07 c 1.203 0.852 2.566 1.34 4.03 1.441 c 0.418 0.031 0.848 0 1.266 -0.07 c 0.152 -0.023 0.34 -0.035 0.484 -0.102 c 0.398 -0.184 0.281 -0.938 -0.074 -1.105 c -0.152 -0.074 -0.402 0.023 -0.566 0.043 c -0.387 0.055 -0.773 0.063 -1.16 0.051 c -1.016 -0.023 -2.094 -0.336 -2.98 -0.828 c -0.348 -0.195 -0.664 -0.43 -0.965 -0.695 c -0.18 -0.16 -0.367 -0.422 -0.602 -0.5 c -0.109 -0.039 -0.285 -0.02 -0.398 -0.008" style="fill:#fc0;fill-opacity:1;stroke:none;fill-rule:nonzero"/>
    <path d="m 19.11 32.566 c -0.168 0.02 -0.301 0.109 -0.41 0.234 c -0.078 0.09 -0.152 0.168 -0.199 0.281 c -0.246 0.605 0.41 1.18 0.867 1.469 c 0.5 0.32 1.055 0.559 1.613 0.758 c 1.266 0.449 2.754 0.738 4.066 0.336 c 0.391 -0.121 0.777 -0.34 1.059 -0.633 c 0.16 -0.168 0.273 -0.422 -0.02 -0.527 c -0.176 -0.063 -0.387 0.098 -0.543 0.16 c -0.375 0.152 -0.762 0.266 -1.16 0.313 c -0.527 0.063 -1 -0.051 -1.508 -0.18 c -0.434 -0.105 -0.871 -0.215 -1.293 -0.371 c -0.359 -0.133 -0.711 -0.293 -1.027 -0.512 c -0.094 -0.07 -0.203 -0.125 -0.281 -0.215 c -0.254 -0.281 -0.441 -0.609 -0.707 -0.879 c -0.117 -0.117 -0.281 -0.254 -0.461 -0.234" style="fill:#fc0;fill-opacity:1;stroke:none;fill-rule:nonzero"/>
   </g>
  </g>
 </g>
 <g>
  <path d="m 40.03 7.531 c 3.712 4.084 5.969 9.514 5.969 15.469 0 12.703 -10.297 23 -23 23 c -5.954 0 -11.384 -2.256 -15.469 -5.969 4.178 4.291 10.01 6.969 16.469 6.969 c 12.703 0 23 -10.298 23 -23 0 -6.462 -2.677 -12.291 -6.969 -16.469 z" style="opacity:0.1"/>
 </g>
</svg>
