<svg version="1.1" viewBox="0 0 48 48" xmlns="http://www.w3.org/2000/svg">
 <defs>
  <linearGradient id="linearGradient4186" x1="1" x2="47" gradientTransform="matrix(0,-1,1,0,0,48)" gradientUnits="userSpaceOnUse">
   <stop style="stop-color:#b7261a" offset="0"/>
   <stop style="stop-color:#c8291c" offset="1"/>
  </linearGradient>
 </defs>
 <path d="m36.31 5c5.859 4.062 9.688 10.831 9.688 18.5 0 12.426-10.07 22.5-22.5 22.5-7.669 0-14.438-3.828-18.5-9.688 1.037 1.822 2.306 3.499 3.781 4.969 4.085 3.712 9.514 5.969 15.469 5.969 12.703 0 23-10.298 23-23 0-5.954-2.256-11.384-5.969-15.469-1.469-1.475-3.147-2.744-4.969-3.781zm4.969 3.781c3.854 4.113 6.219 9.637 6.219 15.719 0 12.703-10.297 23-23 23-6.081 0-11.606-2.364-15.719-6.219 4.16 4.144 9.883 6.719 16.219 6.719 12.703 0 23-10.298 23-23 0-6.335-2.575-12.06-6.719-16.219z" style="opacity:.05"/>
 <path d="m41.28 8.781c3.712 4.085 5.969 9.514 5.969 15.469 0 12.703-10.297 23-23 23-5.954 0-11.384-2.256-15.469-5.969 4.113 3.854 9.637 6.219 15.719 6.219 12.703 0 23-10.298 23-23 0-6.081-2.364-11.606-6.219-15.719z" style="opacity:.1"/>
 <path d="m31.25 2.375c8.615 3.154 14.75 11.417 14.75 21.13 0 12.426-10.07 22.5-22.5 22.5-9.708 0-17.971-6.135-21.12-14.75a23 23 0 0 0 44.875 -7 23 23 0 0 0 -16 -21.875z" style="opacity:.2"/>
 <path d="m1 24c0-12.703 10.297-23 23-23s23 10.297 23 23-10.297 23-23 23-23-10.297-23-23z" style="fill:url(#linearGradient4186)"/>
 <path d="m24 1c-0.25483 0-0.50694 0.011308-0.75977 0.019531a18 18 0 0 1 0.8125 1.125 22 22 0 0 0 -11.457 8.8184 4 4 0 0 0 -2.5957 -0.96289 4 4 0 0 0 -4 4 4 4 0 0 0 0.61914 2.127 19 19 0 0 0 -5.0312 2.7129c-0.2279 0.9937-0.39178 2.0106-0.48633 3.0488a17 17 0 0 1 7.2676 -4.2422 4 4 0 0 0 1.2383 0.33008 22 22 0 0 0 -0.60742 5.0234 22 22 0 0 0 0.57422 4.9004 7 7 0 0 0 -2.248 2.0156 18 18 0 0 1 -5.9238 -1.6406c0.15418 0.81973 0.34922 1.6256 0.58789 2.4121a20 20 0 0 0 4.373 1.1133 7 7 0 0 0 -0.36328 2.1992 7 7 0 0 0 7 7 7 7 0 0 0 3.8672 -1.1699 22 22 0 0 0 9.4941 4.6484 17 17 0 0 1 -1.2617 1.4219c1.0394-0.094138 2.0579-0.25854 3.0527-0.48633a19 19 0 0 0 0.42578 -0.57422 22 22 0 0 0 1.3496 0.095703c1.8431-0.58169 3.5852-1.3916 5.1953-2.3926a20 20 0 0 1 -4.123 0.45703 20 20 0 0 1 -1.25 -0.0625 19 19 0 0 0 2.1289 -6.9805 13 13 0 0 0 9.0781 -4.6191 13 13 0 0 0 3.2324 0.61719c0.27009-0.63839 0.51011-1.2927 0.72266-1.959a11 11 0 0 1 -2.7383 -0.37891 13 13 0 0 0 1.7949 -5.7305 5 5 0 0 0 1.0312 0.11328 5 5 0 0 0 0.97656 -0.097656c0.011582-0.2998 0.021485-0.59971 0.021485-0.90234 0-0.044564-0.003654-0.088307-0.003906-0.13281a4 4 0 0 1 -0.99414 0.13281 4 4 0 0 1 -1.0059 -0.13281 13 13 0 0 0 -1.8984 -6.6094 4 4 0 0 1 2.4688 -1.2324c-0.11854-0.32105-0.24468-0.63706-0.37695-0.95117a5 5 0 0 0 -2.6543 1.3301 13 13 0 0 0 -4.5352 -3.9316 11 11 0 0 1 4.0508 -2.7148c-0.3299-0.41772-0.6619-0.83309-1.0195-1.2266 0.38983 0.37947 0.76262 0.77764 1.125 1.1836a11 11 0 0 1 0.019531 -0.0078126c-0.47905-0.53759-0.9828-1.0525-1.5098-1.543a13 13 0 0 0 -4.6211 3.498 13 13 0 0 0 -4.043 -0.66211 13 13 0 0 0 -2.0898 0.18555 20 20 0 0 0 -1.873 -6.7676 20 20 0 0 1 3.9629 -0.41797 20 20 0 0 1 2.9141 0.24219c-1.9456-0.93098-4.0428-1.5941-6.2441-1.9473a22 22 0 0 0 -1.625 0.29297 20 20 0 0 0 -0.35352 -0.51953c-0.55918-0.04069-1.1218-0.068359-1.6914-0.068359zm1.0781 2.918a18 18 0 0 1 1.8691 6.7402 13 13 0 0 0 -7.0664 5.6309 19 19 0 0 0 -6.0176 -1.2598 4 4 0 0 0 0.13672 -1.0293 4 4 0 0 0 -0.18164 -1.1914 20 20 0 0 1 11.26 -8.8906zm-15.078 7.082a3 3 0 0 1 2.0742 0.83594 22 22 0 0 0 -1.6348 3.3594 19 19 0 0 0 -2.8398 0.59766 3 3 0 0 1 -0.59961 -1.793 3 3 0 0 1 3 -3zm21 1a11 11 0 0 1 2.8262 0.38281 13 13 0 0 0 -1.7949 5.7305 5 5 0 0 0 -1.0312 -0.11328 5 5 0 0 0 -3.4023 1.3457 20 20 0 0 0 1.3945 -7.1543 11 11 0 0 1 2.0078 -0.19141zm-4.0391 0.77148a18 18 0 0 1 -1.6484 6.7871 19 19 0 0 0 -3.5957 -2.4355 11 11 0 0 1 5.2441 -4.3516zm8.7773 0.31641a11 11 0 0 1 4.5977 4.1094 5 5 0 0 0 -0.33594 1.8027 5 5 0 0 0 2 3.9922 11 11 0 0 1 0 0.007812 11 11 0 0 1 -1.7383 5.9121 11 11 0 0 1 -4.5977 -4.1094 5 5 0 0 0 0.33594 -1.8027 5 5 0 0 0 -2 -3.9922 11 11 0 0 1 0 -0.007812 11 11 0 0 1 1.7383 -5.9121zm8.9863 0.92578a5 5 0 0 0 -0.013671 0.001953c0.15828 0.32657 0.30813 0.65723 0.45117 0.99219a4 4 0 0 1 0.013672 0c-0.14279-0.33584-0.2931-0.66671-0.45117-0.99414zm-31.756 0.39258a3 3 0 0 1 -0.14844 0.60352 19 19 0 0 0 -0.14844 0.005859 20 20 0 0 1 0.29688 -0.60938zm0.03125 2.5938a17 17 0 0 1 5.9668 1.1035 13 13 0 0 0 -0.9668 4.8965 13 13 0 0 0 0.69727 4.1621 18 18 0 0 1 -1.8281 1.0117 7 7 0 0 0 -3.8691 -1.1738 7 7 0 0 0 -1.5352 0.17578 20 20 0 0 1 -0.46484 -4.1758 20 20 0 0 1 0.76758 -5.418 4 4 0 0 0 0.85742 -0.56836 17 17 0 0 1 0.375 -0.013672zm28.031 1.5215a11 11 0 0 1 0.85352 2.9863 4 4 0 0 1 -0.88477 -2.5078 4 4 0 0 1 0.03125 -0.47852zm-20.232 0.39062a17 17 0 0 1 3.5469 2.4531 18 18 0 0 1 -3.9512 4.5547 11 11 0 0 1 -0.39453 -2.9199 11 11 0 0 1 0.79883 -4.0879zm10.201 0.087891a4 4 0 0 1 1.0059 0.13281 13 13 0 0 0 1.8984 6.6094 4 4 0 0 1 -2.9043 1.2578 4 4 0 0 1 -0.36133 -0.017578 19 19 0 0 0 -3.3457 -5.4785 4 4 0 0 1 3.707 -2.5039zm3.1152 1.4922a4 4 0 0 1 0.88477 2.5078 4 4 0 0 1 -0.03125 0.47852 11 11 0 0 1 -0.85352 -2.9863zm-8.3145 2.3555a17 17 0 0 1 0.20312 0.23047 5 5 0 0 0 2.6465 4.3301 17 17 0 0 1 1.3477 6.541 11 11 0 0 1 -8.8574 -6.0859 20 20 0 0 0 4.6602 -5.0156zm21.184 0.60156c0.001097 0.046288 0.003084 0.092315 0.003906 0.13867a5 5 0 0 0 0.001953 -0.001953c-8.12e-4 -0.045848-0.004786-0.090938-0.005859-0.13672zm-12.518 3.1465a13 13 0 0 0 4.5352 3.9316 11 11 0 0 1 -7.0039 3.418 19 19 0 0 0 -0.98633 -5.9453 5 5 0 0 0 3.4551 -1.4043zm-21.494 2.4043a5 5 0 0 1 0.027344 0 5 5 0 0 1 1.3086 0.17969 18 18 0 0 1 -2.127 0.53125 20 20 0 0 1 -0.20117 -0.60156 5 5 0 0 1 0.99219 -0.10938zm6.5078 0.003906a13 13 0 0 0 10.398 6.9395 17 17 0 0 1 -2.2891 6.7441 20 20 0 0 1 -9.2246 -4.2012 7 7 0 0 0 1.6348 -4.4863 7 7 0 0 0 -1.5488 -4.3828 20 20 0 0 0 1.0293 -0.61328zm-9.3477 0.9082a22 22 0 0 0 0.017579 0.046875 18 18 0 0 1 -0.087891 0.003907 5 5 0 0 1 0.070312 -0.050782zm6.4375 0.58984a5 5 0 0 1 1.4297 3.498 5 5 0 0 1 -1.1191 3.1465 20 20 0 0 1 -3.916 -5.543 20 20 0 0 0 3.6055 -1.1016zm-5.6699 1.4023a22 22 0 0 0 4.4336 6.5137 5 5 0 0 1 -2.334 0.58203 5 5 0 0 1 -5 -5 5 5 0 0 1 0.42969 -2.0195 20 20 0 0 0 0.57031 0.019531 20 20 0 0 0 1.9004 -0.095703zm27.219 10.244c-0.049037 0.038208-0.097132 0.077415-0.14648 0.11523 0.049342-0.037821 0.097459-0.077024 0.14648-0.11523zm-2.709 1.8184c-0.056688 0.032468-0.11293 0.065658-0.16992 0.097656 0.057019-0.032024 0.11321-0.06516 0.16992-0.097656zm-9.8301 2.9727c-0.037165 0.002527-0.074114 0.007416-0.11133 0.009766 0.037256-0.002475 0.074121-0.007114 0.11133-0.009766z" style="fill-rule:evenodd;opacity:.1;paint-order:normal"/>
 <path d="m24 1c-0.34653 0-0.69042 0.010226-1.0332 0.025391a18 18 0 0 1 0.085937 0.11914 22 22 0 0 0 -11.457 8.8184 4 4 0 0 0 -2.5957 -0.96289 4 4 0 0 0 -4 4 4 4 0 0 0 0.61914 2.127 19 19 0 0 0 -3.4531 1.6445c-0.31825 0.96175-0.57557 1.9515-0.76562 2.9648a17 17 0 0 1 5.9688 -3.0898 4 4 0 0 0 1.2383 0.33008 22 22 0 0 0 -0.60742 5.0234 22 22 0 0 0 0.57422 4.9004 7 7 0 0 0 -2.248 2.0156 18 18 0 0 1 -5.0293 -1.2363c0.12484 0.77605 0.2898 1.5391 0.49023 2.2871a20 20 0 0 0 3.5762 0.83398 7 7 0 0 0 -0.36328 2.1992 7 7 0 0 0 7 7 7 7 0 0 0 3.8672 -1.1699 22 22 0 0 0 9.4941 4.6484 17 17 0 0 1 -3.5957 3.4121c0.73548 0.070922 1.4803 0.10938 2.2344 0.10938 0.27054 0 0.53836-0.010267 0.80664-0.019531a19 19 0 0 0 2.7715 -3.1406 22 22 0 0 0 2.4219 0.16016 22 22 0 0 0 7.4258 -1.3301c2.0181-1.4538 3.7903-3.226 5.2441-5.2441a20 20 0 0 1 -12.67 4.5742 20 20 0 0 1 -1.25 -0.0625 19 19 0 0 0 2.1289 -6.9805 13 13 0 0 0 9.0781 -4.6191 13 13 0 0 0 4.043 0.66211 13 13 0 0 0 1.9707 -0.17188c0.21689-0.69869 0.39852-1.4132 0.54883-2.1387a11 11 0 0 1 -2.5195 0.31055 11 11 0 0 1 -2.8262 -0.38281 13 13 0 0 0 1.7949 -5.7305 5 5 0 0 0 1.0312 0.11328 5 5 0 0 0 2.9121 -0.94141c-0.033327-0.39838-0.077485-0.7932-0.13086-1.1855a4 4 0 0 1 -2.7812 1.127 4 4 0 0 1 -1.0059 -0.13281 13 13 0 0 0 -1.8984 -6.6094 4 4 0 0 1 2.9043 -1.2578 4 4 0 0 1 0.75195 0.074219c-0.1728-0.36059-0.35418-0.71652-0.54492-1.0664a5 5 0 0 0 -0.20703 -0.007812 5 5 0 0 0 -3.4668 1.4043 13 13 0 0 0 -4.5352 -3.9316 11 11 0 0 1 4.2188 -2.7812c-0.52408-0.52115-1.0724-1.0173-1.6445-1.4863a13 13 0 0 0 -4.5293 3.457 13 13 0 0 0 -4.043 -0.66211 13 13 0 0 0 -2.0898 0.18555 20 20 0 0 0 -1.873 -6.7676 20 20 0 0 1 3.9629 -0.41797 20 20 0 0 1 0.87305 0.044922c-2.1704-0.67873-4.4788-1.0449-6.873-1.0449zm0.078125 1.918a18 18 0 0 1 1.8691 6.7402 13 13 0 0 0 -7.0664 5.6309 19 19 0 0 0 -6.0176 -1.2598 4 4 0 0 0 0.13672 -1.0293 4 4 0 0 0 -0.18164 -1.1914 20 20 0 0 1 11.26 -8.8906zm-15.078 7.082a3 3 0 0 1 2.0742 0.83594 22 22 0 0 0 -1.6348 3.3594 19 19 0 0 0 -2.8398 0.59766 3 3 0 0 1 -0.59961 -1.793 3 3 0 0 1 3 -3zm21 1a11 11 0 0 1 2.8262 0.38281 13 13 0 0 0 -1.7949 5.7305 5 5 0 0 0 -1.0312 -0.11328 5 5 0 0 0 -3.4023 1.3457 20 20 0 0 0 1.3945 -7.1543 11 11 0 0 1 2.0078 -0.19141zm-4.0391 0.77148a18 18 0 0 1 -1.6484 6.7871 19 19 0 0 0 -3.5957 -2.4355 11 11 0 0 1 5.2441 -4.3516zm8.7773 0.31641a11 11 0 0 1 4.5977 4.1094 5 5 0 0 0 -0.33594 1.8027 5 5 0 0 0 2 3.9922 11 11 0 0 1 0 0.007812 11 11 0 0 1 -1.7383 5.9121 11 11 0 0 1 -4.5977 -4.1094 5 5 0 0 0 0.33594 -1.8027 5 5 0 0 0 -2 -3.9922 11 11 0 0 1 0 -0.007812 11 11 0 0 1 1.7383 -5.9121zm-22.77 1.3184a3 3 0 0 1 -0.14844 0.60352 19 19 0 0 0 -0.14844 0.005859 20 20 0 0 1 0.29688 -0.60938zm0.03125 2.5938a17 17 0 0 1 5.9668 1.1035 13 13 0 0 0 -0.9668 4.8965 13 13 0 0 0 0.69727 4.1621 18 18 0 0 1 -1.8281 1.0117 7 7 0 0 0 -3.8691 -1.1738 7 7 0 0 0 -1.5352 0.17578 20 20 0 0 1 -0.46484 -4.1758 20 20 0 0 1 0.76758 -5.418 4 4 0 0 0 0.85742 -0.56836 17 17 0 0 1 0.375 -0.013672zm28.031 1.5215a11 11 0 0 1 0.85352 2.9863 4 4 0 0 1 -0.88477 -2.5078 4 4 0 0 1 0.03125 -0.47852zm-20.232 0.39062a17 17 0 0 1 3.5469 2.4531 18 18 0 0 1 -3.9512 4.5547 11 11 0 0 1 -0.39453 -2.9199 11 11 0 0 1 0.79883 -4.0879zm10.201 0.087891a4 4 0 0 1 1.0059 0.13281 13 13 0 0 0 1.8984 6.6094 4 4 0 0 1 -2.9043 1.2578 4 4 0 0 1 -0.36133 -0.017578 19 19 0 0 0 -3.3457 -5.4785 4 4 0 0 1 3.707 -2.5039zm3.1152 1.4922a4 4 0 0 1 0.88477 2.5078 4 4 0 0 1 -0.03125 0.47852 11 11 0 0 1 -0.85352 -2.9863zm-8.3145 2.3555a17 17 0 0 1 0.20312 0.23047 5 5 0 0 0 2.6465 4.3301 17 17 0 0 1 1.3477 6.541 11 11 0 0 1 -8.8574 -6.0859 20 20 0 0 0 4.6602 -5.0156zm8.666 3.748a13 13 0 0 0 4.5352 3.9316 11 11 0 0 1 -7.0039 3.418 19 19 0 0 0 -0.98633 -5.9453 5 5 0 0 0 3.4551 -1.4043zm-21.494 2.4043a5 5 0 0 1 0.027344 0 5 5 0 0 1 1.3086 0.17969 18 18 0 0 1 -2.127 0.53125 20 20 0 0 1 -0.20117 -0.60156 5 5 0 0 1 0.99219 -0.10938zm6.5078 0.003906a13 13 0 0 0 10.398 6.9395 17 17 0 0 1 -2.2891 6.7441 20 20 0 0 1 -9.2246 -4.2012 7 7 0 0 0 1.6348 -4.4863 7 7 0 0 0 -1.5488 -4.3828 20 20 0 0 0 1.0293 -0.61328zm-9.3477 0.9082a22 22 0 0 0 0.017578 0.046875 18 18 0 0 1 -0.087891 0.003907 5 5 0 0 1 0.070312 -0.050782zm6.4375 0.58984a5 5 0 0 1 1.4297 3.498 5 5 0 0 1 -1.1191 3.1465 20 20 0 0 1 -3.916 -5.543 20 20 0 0 0 3.6055 -1.1016zm-5.6699 1.4023a22 22 0 0 0 4.4336 6.5137 5 5 0 0 1 -2.334 0.58203 5 5 0 0 1 -5 -5 5 5 0 0 1 0.42969 -2.0195 20 20 0 0 0 0.57031 0.019531 20 20 0 0 0 1.9004 -0.095703z" style="fill-rule:evenodd;fill:#f9f9f9;paint-order:normal"/>
 <path d="m40.03 7.531c3.712 4.084 5.969 9.514 5.969 15.469 0 12.703-10.297 23-23 23-5.954 0-11.384-2.256-15.469-5.969 4.178 4.291 10.01 6.969 16.469 6.969 12.703 0 23-10.298 23-23 0-6.462-2.677-12.291-6.969-16.469z" style="opacity:.1"/>
</svg>
