<svg version="1.1" viewBox="0 0 48 48" xmlns="http://www.w3.org/2000/svg">
 <defs>
  <linearGradient id="bg" x2="0" y1="47" y2="1" gradientUnits="userSpaceOnUse">
   <stop style="stop-color:#fdd06b" offset="0"/>
   <stop style="stop-color:#fdd67f" offset="1"/>
  </linearGradient>
 </defs>
 <path d="m36.31 5c5.859 4.062 9.688 10.831 9.688 18.5 0 12.426-10.07 22.5-22.5 22.5-7.669 0-14.438-3.828-18.5-9.688 1.037 1.822 2.306 3.499 3.781 4.969 4.085 3.712 9.514 5.969 15.469 5.969 12.703 0 23-10.298 23-23 0-5.954-2.256-11.384-5.969-15.469-1.469-1.475-3.147-2.744-4.969-3.781zm4.969 3.781c3.854 4.113 6.219 9.637 6.219 15.719 0 12.703-10.297 23-23 23-6.081 0-11.606-2.364-15.719-6.219 4.16 4.144 9.883 6.719 16.219 6.719 12.703 0 23-10.298 23-23 0-6.335-2.575-12.06-6.719-16.219z" style="opacity:.05"/>
 <path d="m41.28 8.781c3.712 4.085 5.969 9.514 5.969 15.469 0 12.703-10.297 23-23 23-5.954 0-11.384-2.256-15.469-5.969 4.113 3.854 9.637 6.219 15.719 6.219 12.703 0 23-10.298 23-23 0-6.081-2.364-11.606-6.219-15.719z" style="opacity:.1"/>
 <path d="m31.25 2.375c8.615 3.154 14.75 11.417 14.75 21.13 0 12.426-10.07 22.5-22.5 22.5-9.708 0-17.971-6.135-21.12-14.75a23 23 0 0 0 44.875-7 23 23 0 0 0-16-21.875z" style="opacity:.2"/>
 <g style="fill:#fdd06b">
  <path d="m24 1c12.703 0 23 10.297 23 23s-10.297 23-23 23-23-10.297-23-23 10.297-23 23-23z" style="fill:url(#bg)"/>
 </g>
 <path d="m40.03 7.531c3.712 4.084 5.969 9.514 5.969 15.469 0 12.703-10.297 23-23 23-5.954 0-11.384-2.256-15.469-5.969 4.178 4.291 10.01 6.969 16.469 6.969 12.703 0 23-10.298 23-23 0-6.462-2.677-12.291-6.969-16.469z" style="opacity:.1"/>
 <path d="m26 11.006c4 3-5.0068 3.5-5 6 0.0013 0.49161 0.08088 0.88585 0.20508 1.2031-3.615 0.53704-6.2051 1.9866-6.2051 2.791v12c0 1 5 3 9 3h1c4 0 9-2 9-3v-2c6 0 6-9 0-9v-1c0-1-4-3-9-3h-0.02148c0.003906-1.9754 4.0215-2.8591 4.0215-4.4941 0-1.3056-0.90105-2.4256-3-2.5z" style="opacity:.1"/>
 <path d="m23 16.995c-5 0-9 2-9 3v12c0 1 5 3 9 3h1c4 0 9-2 9-3v-2c6 0 6-9 0-9v-1c0-1-4-3-9-3z" style="fill:#855320"/>
 <path d="m22 18.5s-1.9931 0.0057-1.9999-2.5c-0.006756-2.5 8.9999-3 4.9999-6 2.099 0.07436 3 1.1944 3 2.5 0 2-6.0128 2.8756-3.3359 6.0003z" style="fill:#a79c84"/>
 <path d="m23 17.995c-5 0-8 1.767-8 2.656v10.688c0 0.889 4.421 2.656 8 2.656h1c3.579 0 8-1.767 8-2.656v-2.344c6 0 6-7 0-7v-1.344c0-0.889-3-2.656-8-2.656zm11 7.5c0 0.969-0.432 1.5-2 1.5v-3c1.559 0 2 0.461 2 1.5z" style="fill:#ffffe1"/>
 <ellipse cx="23.5" cy="20.495" rx="6.5" ry="1.5" style="fill:#db430d"/>
</svg>
