<svg version="1.1" viewBox="0 0 48 48" xmlns="http://www.w3.org/2000/svg">
 <defs>
  <linearGradient id="bg" x1="1" x2="47" gradientTransform="matrix(0 -1 1 0 -1.5e-6 48)" gradientUnits="userSpaceOnUse">
   <stop style="stop-color:#cfbcad" offset="0"/>
   <stop style="stop-color:#d6c6b9" offset="1"/>
  </linearGradient>
 </defs>
 <path d="m36.31 5c5.859 4.062 9.688 10.831 9.688 18.5 0 12.426-10.07 22.5-22.5 22.5-7.669 0-14.438-3.828-18.5-9.688 1.037 1.822 2.306 3.499 3.781 4.969 4.085 3.712 9.514 5.969 15.469 5.969 12.703 0 23-10.298 23-23 0-5.954-2.256-11.384-5.969-15.469-1.469-1.475-3.147-2.744-4.969-3.781zm4.969 3.781c3.854 4.113 6.219 9.637 6.219 15.719 0 12.703-10.297 23-23 23-6.081 0-11.606-2.364-15.719-6.219 4.16 4.144 9.883 6.719 16.219 6.719 12.703 0 23-10.298 23-23 0-6.335-2.575-12.06-6.719-16.219z" style="opacity:.05"/>
 <path d="m41.28 8.781c3.712 4.085 5.969 9.514 5.969 15.469 0 12.703-10.297 23-23 23-5.954 0-11.384-2.256-15.469-5.969 4.113 3.854 9.637 6.219 15.719 6.219 12.703 0 23-10.298 23-23 0-6.081-2.364-11.606-6.219-15.719z" style="opacity:.1"/>
 <path d="m31.25 2.375c8.615 3.154 14.75 11.417 14.75 21.13 0 12.426-10.07 22.5-22.5 22.5-9.708 0-17.971-6.135-21.12-14.75a23 23 0 0 0 44.875-7 23 23 0 0 0-16-21.875z" style="opacity:.2"/>
 <path d="m24 1c12.703 0 23 10.297 23 23s-10.297 23-23 23-23-10.297-23-23 10.297-23 23-23z" style="fill:url(#bg)"/>
 <path d="m40.03 7.531c3.712 4.084 5.969 9.514 5.969 15.469 0 12.703-10.297 23-23 23-5.954 0-11.384-2.256-15.469-5.969 4.178 4.291 10.01 6.969 16.469 6.969 12.703 0 23-10.298 23-23 0-6.462-2.677-12.291-6.969-16.469z" style="opacity:.1"/>
 <path d="m13.792 28.832c-0.01379-0.0059-0.09206-0.03345-0.09206-0.03345l-1.0004 5.5393 0.89987 0.22062c1.1536 0.28201 2.4847 0.43956 3.5644 0.43971 3.9896 2.2e-4 6.9297-1.0275 8.8855-2.6498-0.02968 0.21459-0.04534 0.43148-0.0471 0.64842-4.81e-4 2.7612 2.2387 4.9995 4.9998 5 2.7612 4.81e-4 4.9995-2.2387 5-4.9998-1.62e-4 -2.3763-1.6727-4.4232-4-4.8982l-3.7e-4 -5.2086c2.3221-0.47808 3.9897-2.5217 3.9925-4.8928 4.81e-4 -2.7612-2.2387-4.9995-4.9998-5 0 0-17.294 15.801-17.202 15.835z" style="opacity:.1"/>
 <path d="m28 16.12-11.816 5.822 3.328 1.5542-0.01393-0.0081 8.4926-3.9044z" style="fill:#3d3d3d"/>
 <circle cx="16" cy="24" r="5" style="fill:#5a5a5a"/>
 <circle cx="29.993" cy="17" r="5" style="fill:#6269ba"/>
 <path d="m30.746 19.701-0.75358 2.2988c0.69162-0.0021 1.375-0.14839 2.0101-0.42844" style="opacity:.1"/>
 <ellipse cx="29" cy="15.5" rx="2" ry="1.5" style="fill:#e5e5e5;opacity:.6"/>
 <path d="m21 11v12.17c0 2.389-0.32 5.175-5.325 5.175-0.735 0-1.681-0.113-2.275-0.295-0.247-0.076-0.7-0.25-0.7-0.25l-1 5.54 0.9 0.22c1.154 0.282 2.485 0.44 3.565 0.44 8.05 0 11.835-4.17 11.835-9v-14z" style="fill:#efedfd"/>
 <path d="m20.756 25.41c-0.256 0.961-0.788 1.822-1.922 2.357l6.234 3.568c0.823-0.687 1.462-1.483 1.936-2.352l-6.248-3.574z" style="opacity:.1"/>
 <path d="m18.13 23.678a1.5 1.5 0 0 0-0.777 2.813l11.906 6.813a1.5 1.5 0 1 0 1.488-2.605l-11.906-6.813a1.5 1.5 0 0 0-0.711-0.207" style="fill:#3d3d3d"/>
 <ellipse cx="15" cy="22.5" rx="2" ry="1.5" style="fill:#e5e5e5;opacity:.6"/>
 <path d="m29.477 19.1c-0.852 0-1.477 0.55-1.477 1.55v11.35c-0.029 2.028 3.03 2.028 3 0v-11.35c0-1.065-0.671-1.55-1.523-1.55" style="fill:#3d3d3d"/>
 <path d="m28.998 12.03a5 5 0 0 0-0.998 0.314v17.576c0.665-1.216 1-2.574 1-3.992v-13.9a5 5 0 0 0-2e-3 0z" style="opacity:.1"/>
 <circle cx="30" cy="32" r="5" style="fill:#e25656"/>
 <ellipse cx="29" cy="30.5" rx="2" ry="1.5" style="fill:#e5e5e5;opacity:.6"/>
</svg>
