<svg version="1.1" viewBox="0 0 48 48" xmlns="http://www.w3.org/2000/svg">
 <defs>
  <linearGradient id="bg" x2="0" y1="1" y2="47" gradientUnits="userSpaceOnUse">
   <stop style="stop-color:#a8ceef" offset="0"/>
   <stop style="stop-color:#98c5ec" offset="1"/>
  </linearGradient>
 </defs>
 <path d="m36.31 5c5.859 4.062 9.688 10.831 9.688 18.5 0 12.426-10.07 22.5-22.5 22.5-7.669 0-14.438-3.828-18.5-9.688 1.037 1.822 2.306 3.499 3.781 4.969 4.085 3.712 9.514 5.969 15.469 5.969 12.703 0 23-10.298 23-23 0-5.954-2.256-11.384-5.969-15.469-1.469-1.475-3.147-2.744-4.969-3.781zm4.969 3.781c3.854 4.113 6.219 9.637 6.219 15.719 0 12.703-10.297 23-23 23-6.081 0-11.606-2.364-15.719-6.219 4.16 4.144 9.883 6.719 16.219 6.719 12.703 0 23-10.298 23-23 0-6.335-2.575-12.06-6.719-16.219z" style="opacity:.05"/>
 <path d="m41.28 8.781c3.712 4.085 5.969 9.514 5.969 15.469 0 12.703-10.297 23-23 23-5.954 0-11.384-2.256-15.469-5.969 4.113 3.854 9.637 6.219 15.719 6.219 12.703 0 23-10.298 23-23 0-6.081-2.364-11.606-6.219-15.719z" style="opacity:.1"/>
 <path d="m31.25 2.375c8.615 3.154 14.75 11.417 14.75 21.13 0 12.426-10.07 22.5-22.5 22.5-9.708 0-17.971-6.135-21.12-14.75a23 23 0 0 0 44.875-7 23 23 0 0 0-16-21.875z" style="opacity:.2"/>
 <circle cx="24" cy="24" r="23" style="fill:url(#bg)"/>
 <path d="m40.03 7.531c3.712 4.084 5.969 9.514 5.969 15.469 0 12.703-10.297 23-23 23-5.954 0-11.384-2.256-15.469-5.969 4.178 4.291 10.01 6.969 16.469 6.969 12.703 0 23-10.298 23-23 0-6.462-2.677-12.291-6.969-16.469z" style="opacity:.1"/>
 <path d="m19 12c-3 0-4 2-3 3 0.71523 0.71523 3.4651-0.59994 4.248 0.7793 0.07426 0.1308 0.12782 0.28846 0.16406 0.4707 3e-3 0.01576 7e-3 0.03069 0.0098 0.04687 0.02826 0.162 0.03332 0.35507 0.02734 0.5625-0.0018 0.05216 0.0022 0.09909-2e-3 0.1543-0.01375 0.19796-0.0533 0.42743-0.09961 0.66797-0.01511 0.07731-0.02237 0.14271-0.04102 0.22461-0.07367 0.32713-0.17081 0.68633-0.30662 1.0938-3 1-3 4-3 4-1 0-2 1-2 2 0 0.16411 0.02319 0.31964 0.05664 0.4707 0.0073 0.03172 0.0167 0.0626 0.02539 0.09375 0.40672 1.5013 2.4417 2.3352 4.9258 2.6035 0.0052 0.35962 0.02343 0.67566 0.05469 0.94922-2.0544 1.5324-2.0625 4.1834-2.0625 4.8828 0 2 2 2 2 2h12s2 0 2-2c0-0.94582-0.0074-5.4637-5.084-5.9512 0.22835-0.20271 0.43721-0.41896 0.63476-0.64258 0.03188-0.0362 0.06276-0.07269 0.09375-0.10938 0.19567-0.23076 0.37718-0.46938 0.53516-0.7168 0.0032-5e-3 0.0046-0.01061 0.0078-0.01563 0.16489-0.25986 0.30616-0.52761 0.42383-0.80078 8.23e-4 -0.0019 0.0011-0.0039 2e-3 -0.0059 0.18025-0.41978 0.30402-0.85109 0.35547-1.2871 0.0204-0.15658 0.03121-0.31343 0.03121-0.47066 0-1-0.1017-3.1864-3-5-0.05961-0.23842-0.10274-0.4494-0.13477-0.64062-0.03093-0.18977-0.04852-0.35678-0.05469-0.50586-0.02308-0.55782 0.13318-0.83555 0.41602-0.97266 0.55002-0.26663 1.5939-0.0032 2.8047-0.16211 0.12633-0.01633 0.2532-0.03565 0.38281-0.0625 0.08871-0.01853 0.17759-0.04208 0.26758-0.06641 0.14694-0.03945 0.29392-0.08909 0.44336-0.14648 0.06604-0.02545 0.13087-0.04874 0.19727-0.07813 0.22468-0.09913 0.45134-0.2143 0.67774-0.36522 0.19012-0.12675 0.35014-0.25462 0.48633-0.38086 0.04225-0.03934 0.0682-0.07797 0.10547-0.11719 0.08692-0.09096 0.17281-0.18141 0.23438-0.27148 0.01341-0.01978 0.01901-0.03887 0.03125-0.05859 0.06794-0.10852 0.12394-0.21578 0.1582-0.32227 0.0033-0.01054 0.0028-0.02073 0.0059-0.03125 0.03358-0.1147 0.05241-0.23037 0.05078-0.3418-0.02256-1.3803-2.5921-2.4766-4.0723-2.4766-2 0-5 3-5 7h-2c0.05944-0.23775 0.10592-0.47098 0.14453-0.70117 0.01255-0.07468 0.01888-0.14687 0.0293-0.2207 0.01998-0.14189 0.03852-0.28328 0.05078-0.42188 0.03254-0.36622 0.0362-0.71784 0.01758-1.0586-0.0032-0.05709-0.0052-0.11361-0.0098-0.16992-0.02714-0.34041-0.0792-0.66678-0.1543-0.97656-0.0076-0.03107-0.01542-0.06106-0.02344-0.0918-0.08444-0.32478-0.19087-0.63448-0.32422-0.91992-0.70613-1.5102-2.063-2.4394-3.7304-2.4394z" style="opacity:.1"/>
 <path d="m18 11c-3 0-4 2-3 3s6-2 4 4c-3 1-3 4-3 4-1 0-2 1-2 2 0 2.0414 2.6758 3.0669 5.832 3.2441 0.06557 0.10318 0.15476 0.19846 0.23047 0.29883-3.0525 1.3178-3.0625 4.6587-3.0625 5.457 0 2 2 2 2 2h12s2 0 2-2c0-0.94582-0.0074-5.4637-5.084-5.9512 1.2576-1.1164 2.084-2.5812 2.084-4.0488 0-1-0.1017-3.1864-3-5-1-4 2-1 5-3s-1-4-3-4-5 3-5 7h-2c1-4-1-7-4-7z" style="fill:#939393"/>
 <path d="m21.73 13.439-2.4824 1.3398c0.31174 0.54914 0.32149 1.5121-0.24805 3.2207h3c0.44418-1.7767 0.2948-3.3537-0.26953-4.5605zm11.342 0.03711c-0.0638 1.0195-4.5339 1.5281-5.8457 2.4043 0.83466-0.40461 2.7997 0.43494 4.7734-0.88086 0.77962-0.51975 1.0802-1.0388 1.0723-1.5234zm-6.2656 3.373c-1.6074 0.22669-1.0801 0.75703-1.8786 1.1725 3.8076 0.5121 4.8971 3.7702 4.9606 5.89 0.06798-0.30198 0.11133-0.60676 0.11133-0.91211 0-1-0.1017-3.1864-3-5-0.11916-0.47664-0.17712-0.84833-0.18945-1.1465zm3.082 7.0625c-1.1423-0.81039-2.3445-1.5366-3.4434-1.5586-1.0988-0.02197-2.9125 0.48361-2.7578 0.79297 4.1925-1.3705 6.6126 1.6071 3.6309 3.8223 0 0-0.09905 0.50843 0.59766 0.08008 0.99596-0.88414 1.7139-1.9872 1.9727-3.1367zm-13.889-1.9121c-1 0-2 1-2 2 0 0.35986 0.08791 0.68673 0.24219 0.98438-0.29748-1.4975 1.0408-3.1112 3.834-2.1035 0.0614-0.03684-0.03389-0.63381-2.0762-0.88086z" style="opacity:.1"/>
 <path d="m23 28c0 3-1 3-1 3h-1s-1 0-1-3z" style="opacity:.1"/>
 <path d="m22 27c0 3-1 3-1 3h-1s-1 0-1-3z" style="fill:#fcfcfc"/>
 <ellipse cx="19.5" cy="21" rx=".5" ry="2" style="fill:#232323"/>
 <ellipse cx="22.5" cy="21" rx=".5" ry="2" style="fill:#232323"/>
 <path d="m21 25c0-1-1-1-1-1s-1 0-1 1z" style="fill:#e77599"/>
</svg>
