<svg version="1.1" viewBox="0 0 48 48" xmlns="http://www.w3.org/2000/svg">
 <defs>
  <linearGradient id="bg" x1="1" x2="47" gradientTransform="matrix(0 -1 1 0 -1.5e-6 48)" gradientUnits="userSpaceOnUse">
   <stop style="stop-color:#01a2d7" offset="0"/>
   <stop style="stop-color:#01b0ec" offset="1"/>
  </linearGradient>
 </defs>
 <path d="m36.31 5c5.859 4.062 9.688 10.831 9.688 18.5 0 12.426-10.07 22.5-22.5 22.5-7.669 0-14.438-3.828-18.5-9.688 1.037 1.822 2.306 3.499 3.781 4.969 4.085 3.712 9.514 5.969 15.469 5.969 12.703 0 23-10.298 23-23 0-5.954-2.256-11.384-5.969-15.469-1.469-1.475-3.147-2.744-4.969-3.781zm4.969 3.781c3.854 4.113 6.219 9.637 6.219 15.719 0 12.703-10.297 23-23 23-6.081 0-11.606-2.364-15.719-6.219 4.16 4.144 9.883 6.719 16.219 6.719 12.703 0 23-10.298 23-23 0-6.335-2.575-12.06-6.719-16.219z" style="opacity:.05"/>
 <path d="m41.28 8.781c3.712 4.085 5.969 9.514 5.969 15.469 0 12.703-10.297 23-23 23-5.954 0-11.384-2.256-15.469-5.969 4.113 3.854 9.637 6.219 15.719 6.219 12.703 0 23-10.298 23-23 0-6.081-2.364-11.606-6.219-15.719z" style="opacity:.1"/>
 <path d="m31.25 2.375c8.615 3.154 14.75 11.417 14.75 21.13 0 12.426-10.07 22.5-22.5 22.5-9.708 0-17.971-6.135-21.12-14.75a23 23 0 0 0 44.875-7 23 23 0 0 0-16-21.875z" style="opacity:.2"/>
 <path d="m24 1c12.703 0 23 10.297 23 23s-10.297 23-23 23-23-10.297-23-23 10.297-23 23-23z" style="fill:url(#bg)"/>
 <path d="m22.06 9.9997c-0.44904 3.7154-2.5903 4.5865-5.5206 2.2732-1.1968 4.2024-3.3747 9.2659-6.5277 9.704 3.2543 1.8362 3.2463 4.1414-0.012001 5.9656 3.7154 0.44904 4.5865 2.5903 2.2732 5.5206 3.6024-1.0121 5.2235 0.63706 4.2074 4.2304 2.9413-2.3092 5.0595-1.4101 5.4966 2.2972 1.8362-3.2583 4.1414-3.2463 5.9656 8e-3 0.44504-3.7114 2.5903-4.5825 5.5206-2.2732-1.0101-3.6024 0.63706-5.2235 4.2304-4.2074-2.3092-2.9413-1.4101-5.0595 2.2972-5.4966-3.2583-1.8322-3.2463-4.1414 8e-3 -5.9616-3.7114-0.44504-4.5825-2.5903-2.2732-5.5206-3.6024 1.0001-5.2235-0.64106-4.2074-4.2304-2.9413 2.3052-5.0595 1.4101-5.4966-2.2972-1.8322 3.2543-4.1414 3.2463-5.9616-0.012002" style="opacity:.1;stroke-width:1.0001"/>
 <path d="m21.061 9c-0.44906 3.7155-2.5903 4.5866-5.5207 2.2733 1.0001 3.6025-0.64108 5.2237-4.2306 4.2076 2.3053 2.9414 1.4102 5.0597-2.2973 5.4967 3.2544 1.8362 3.2464 4.1416-0.012002 5.9658 3.7155 0.44906 4.5866 2.5903 2.2733 5.5207 3.6025-1.0121 5.2237 0.63708 4.2076 4.2306 2.9414-2.3093 5.0597-1.4102 5.4967 2.2973 1.8362-3.2584 4.1416-3.2464 5.9658 8e-3 0.44506-3.7115 2.5903-4.5826 5.5207-2.2733-1.0101-3.6025 0.63708-5.2237 4.2306-4.2076-2.3093-2.9414-1.4102-5.0597 2.2973-5.4967-3.2584-1.8322-3.2464-4.1416 8e-3 -5.9618-3.7115-0.44506-4.5826-2.5903-2.2733-5.5207-3.6025 1.0001-5.2237-0.64108-4.2076-4.2306-2.9414 2.3053-5.0597 1.4102-5.4967-2.2973-1.8322 3.2544-4.1416 3.2464-5.9618-0.012002" style="fill:#fcca55"/>
 <path d="m20 16a3 5 0 0 0-3 5 3 5 0 0 0 3 5 3 5 0 0 0 3-5 3 5 0 0 0-3-5zm10 0a3 5 0 0 0-3 5 3 5 0 0 0 3 5 3 5 0 0 0 3-5 3 5 0 0 0-3-5zm-11 13c1.004 6.6667 11.004 6.6667 12 0-3 1.4-9 1.4-12 0z" style="opacity:.1"/>
 <path d="m18 28c3 1.4 9 1.4 12 0-0.996 6.6667-10.996 6.6667-12 0" style="fill:#f4491f"/>
 <path d="m40.03 7.531c3.712 4.084 5.969 9.514 5.969 15.469 0 12.703-10.297 23-23 23-5.954 0-11.384-2.256-15.469-5.969 4.178 4.291 10.01 6.969 16.469 6.969 12.703 0 23-10.298 23-23 0-6.462-2.677-12.291-6.969-16.469z" style="opacity:.1"/>
 <path d="m19 15a3 5 0 0 0-3 5 3 5 0 0 0 3 5 3 5 0 0 0 3-5 3 5 0 0 0-3-5zm10 0a3 5 0 0 0-3 5 3 5 0 0 0 3 5 3 5 0 0 0 3-5 3 5 0 0 0-3-5z" style="fill:#f9f9f9"/>
 <path d="m19 20a2 2 0 0 0-2 2 2 2 0 0 0 2 2 2 2 0 0 0 2-2 2 2 0 0 0-2-2zm10 0a2 2 0 0 0-2 2 2 2 0 0 0 2 2 2 2 0 0 0 2-2 2 2 0 0 0-2-2z" style="fill:#424242"/>
</svg>
