<svg version="1.1" viewBox="0 0 48 48" xmlns="http://www.w3.org/2000/svg">
 <defs>
  <linearGradient id="bg" x1="1" x2="47" gradientTransform="matrix(0 -1 1 0 -1.5e-6 48)" gradientUnits="userSpaceOnUse">
   <stop style="stop-color:#01a2d7" offset="0"/>
   <stop style="stop-color:#01b0ec" offset="1"/>
  </linearGradient>
 </defs>
 <path d="m36.3 5c5.86 4.06 9.69 10.8 9.69 18.5 0 12.4-10.1 22.5-22.5 22.5-7.67 0-14.4-3.83-18.5-9.69 1.04 1.82 2.31 3.5 3.78 4.97 4.08 3.71 9.51 5.97 15.5 5.97 12.7 0 23-10.3 23-23 0-5.95-2.26-11.4-5.97-15.5-1.47-1.48-3.15-2.74-4.97-3.78zm4.97 3.78c3.85 4.11 6.22 9.64 6.22 15.7 0 12.7-10.3 23-23 23-6.08 0-11.6-2.36-15.7-6.22 4.16 4.14 9.88 6.72 16.2 6.72 12.7 0 23-10.3 23-23 0-6.34-2.58-12.1-6.72-16.2z" style="opacity:.05"/>
 <path d="m41.3 8.78c3.71 4.08 5.97 9.51 5.97 15.5 0 12.7-10.3 23-23 23-5.95 0-11.4-2.26-15.5-5.97 4.11 3.85 9.64 6.22 15.7 6.22 12.7 0 23-10.3 23-23 0-6.08-2.36-11.6-6.22-15.7z" style="opacity:.1"/>
 <path d="m31.2 2.38c8.62 3.15 14.8 11.4 14.8 21.1 0 12.4-10.1 22.5-22.5 22.5-9.71 0-18-6.14-21.1-14.8a23 23 0 0 0 44.9-7 23 23 0 0 0-16-21.9z" style="opacity:.2"/>
 <path d="m24 1c12.7 0 23 10.3 23 23s-10.3 23-23 23-23-10.3-23-23 10.3-23 23-23z" style="fill:url(#bg)"/>
 <path d="m22.1 10c-0.449 3.72-2.59 4.59-5.52 2.27-1.2 4.2-3.37 9.27-6.53 9.7 3.25 1.84 3.25 4.14-0.012 5.97 3.72 0.449 4.59 2.59 2.27 5.52 3.6-1.01 5.22 0.637 4.21 4.23 2.94-2.31 5.06-1.41 5.5 2.3 1.84-3.26 4.14-3.25 5.97 8e-3 0.445-3.71 2.59-4.58 5.52-2.27-1.01-3.6 0.637-5.22 4.23-4.21-2.31-2.94-1.41-5.06 2.3-5.5-3.26-1.83-3.25-4.14 8e-3 -5.96-3.71-0.445-4.58-2.59-2.27-5.52-3.6 1-5.22-0.641-4.21-4.23-2.94 2.31-5.06 1.41-5.5-2.3-1.83 3.25-4.14 3.25-5.96-0.012" style="opacity:.1"/>
 <path d="m21.1 9c-0.449 3.72-2.59 4.59-5.52 2.27 1 3.6-0.641 5.22-4.23 4.21 2.31 2.94 1.41 5.06-2.3 5.5 3.25 1.84 3.25 4.14-0.012 5.97 3.72 0.449 4.59 2.59 2.27 5.52 3.6-1.01 5.22 0.637 4.21 4.23 2.94-2.31 5.06-1.41 5.5 2.3 1.84-3.26 4.14-3.25 5.97 8e-3 0.445-3.71 2.59-4.58 5.52-2.27-1.01-3.6 0.637-5.22 4.23-4.21-2.31-2.94-1.41-5.06 2.3-5.5-3.26-1.83-3.25-4.14 8e-3 -5.96-3.71-0.445-4.58-2.59-2.27-5.52-3.6 1-5.22-0.641-4.21-4.23-2.94 2.31-5.06 1.41-5.5-2.3-1.83 3.25-4.14 3.25-5.96-0.012" style="fill:#fcca55"/>
 <path d="m20 16a3 5 0 0 0-3 5 3 5 0 0 0 3 5 3 5 0 0 0 3-5 3 5 0 0 0-3-5zm10 0a3 5 0 0 0-3 5 3 5 0 0 0 3 5 3 5 0 0 0 3-5 3 5 0 0 0-3-5zm-11 13c1 6.67 11 6.67 12 0-3 1.4-9 1.4-12 0z" style="opacity:.1"/>
 <path d="m18 28c3 1.4 9 1.4 12 0-0.996 6.67-11 6.67-12 0" style="fill:#f4491f"/>
 <path d="m40 7.53c3.71 4.08 5.97 9.51 5.97 15.5 0 12.7-10.3 23-23 23-5.95 0-11.4-2.26-15.5-5.97 4.18 4.29 10 6.97 16.5 6.97 12.7 0 23-10.3 23-23 0-6.46-2.68-12.3-6.97-16.5z" style="opacity:.1"/>
 <path d="m19 15a3 5 0 0 0-3 5 3 5 0 0 0 3 5 3 5 0 0 0 3-5 3 5 0 0 0-3-5zm10 0a3 5 0 0 0-3 5 3 5 0 0 0 3 5 3 5 0 0 0 3-5 3 5 0 0 0-3-5z" style="fill:#f9f9f9"/>
 <path d="m19 20a2 2 0 0 0-2 2 2 2 0 0 0 2 2 2 2 0 0 0 2-2 2 2 0 0 0-2-2zm10 0a2 2 0 0 0-2 2 2 2 0 0 0 2 2 2 2 0 0 0 2-2 2 2 0 0 0-2-2z" style="fill:#474747"/>
</svg>
