<svg version="1.1" viewBox="0 0 48 48" xmlns="http://www.w3.org/2000/svg">
 <defs>
  <linearGradient id="bg" x2="0" y1="1" y2="47" gradientUnits="userSpaceOnUse">
   <stop style="stop-color:#575d75" offset="0"/>
   <stop style="stop-color:#4e526a" offset="1"/>
  </linearGradient>
 </defs>
 <path d="m36.3 5c5.86 4.06 9.69 10.8 9.69 18.5 0 12.4-10.1 22.5-22.5 22.5-7.67 0-14.4-3.83-18.5-9.69 1.04 1.82 2.31 3.5 3.78 4.97 4.08 3.71 9.51 5.97 15.5 5.97 12.7 0 23-10.3 23-23 0-5.95-2.26-11.4-5.97-15.5-1.47-1.48-3.15-2.74-4.97-3.78zm4.97 3.78c3.85 4.11 6.22 9.64 6.22 15.7 0 12.7-10.3 23-23 23-6.08 0-11.6-2.36-15.7-6.22 4.16 4.14 9.88 6.72 16.2 6.72 12.7 0 23-10.3 23-23 0-6.34-2.58-12.1-6.72-16.2z" style="opacity:.05"/>
 <path d="m41.3 8.78c3.71 4.08 5.97 9.51 5.97 15.5 0 12.7-10.3 23-23 23-5.95 0-11.4-2.26-15.5-5.97 4.11 3.85 9.64 6.22 15.7 6.22 12.7 0 23-10.3 23-23 0-6.08-2.36-11.6-6.22-15.7z" style="opacity:.1"/>
 <path d="m31.2 2.38c8.62 3.15 14.8 11.4 14.8 21.1 0 12.4-10.1 22.5-22.5 22.5-9.71 0-18-6.14-21.1-14.8a23 23 0 0 0 44.9-7 23 23 0 0 0-16-21.9z" style="opacity:.2"/>
 <circle cx="24" cy="24" r="23" style="fill:url(#bg)"/>
 <path d="m17.6 12-3.6 22.5c0 1.94 1.56 3.5 3.5 3.5s3.5-1.56 3.5-3.5v-19c0-1.94-1.46-3.5-3.4-3.5zm5.4 7v10l11.8-10.9c1.43-1.3 1.55-3.51 0.252-4.94-0.622-0.689-1.49-1.1-2.42-1.15-0.678-0.0038-9.68 7-9.68 7zm5 8-5 5 5.07 5.02c1.39 1.34 3.61 1.31 4.95-0.082 1.34-1.39 1.31-3.61-0.082-4.95z" style="opacity:.1"/>
 <path d="m40 7.53c3.71 4.08 5.97 9.51 5.97 15.5 0 12.7-10.3 23-23 23-5.95 0-11.4-2.26-15.5-5.97 4.18 4.29 10 6.97 16.5 6.97 12.7 0 23-10.3 23-23 0-6.46-2.68-12.3-6.97-16.5z" style="opacity:.1"/>
 <path d="m16.5 11c-1.94 0-3.5 1.56-3.5 3.5v19c0 1.94 1.56 3.5 3.5 3.5s3.5-1.56 3.5-3.5v-19c0-1.94-1.56-3.5-3.5-3.5z" style="fill:#f8af7d"/>
 <path d="m27 26-5 5 5.07 5.02c1.39 1.34 3.61 1.31 4.95-0.082 1.34-1.39 1.31-3.61-0.082-4.95z" style="fill:#faa2af"/>
 <path d="m31.3 11c-0.804 0.0389-1.58 0.354-2.18 0.898l-7.15 6.6v9.5l11.8-10.9c1.43-1.3 1.55-3.51 0.252-4.94-0.622-0.689-1.49-1.1-2.42-1.15-0.116-6e-3 -0.231-6e-3 -0.346 0z" style="fill:#f9a995"/>
</svg>
