<svg version="1.1" viewBox="0 0 48 48" xmlns="http://www.w3.org/2000/svg">
 <defs>
  <linearGradient id="bg" x2="0" y1="47" y2="1" gradientUnits="userSpaceOnUse">
   <stop style="stop-color:#258f4a" offset="0"/>
   <stop style="stop-color:#299f52" offset="1"/>
  </linearGradient>
 </defs>
 <path d="m36.31 5c5.859 4.062 9.688 10.831 9.688 18.5 0 12.426-10.07 22.5-22.5 22.5-7.669 0-14.438-3.828-18.5-9.688 1.037 1.822 2.306 3.499 3.781 4.969 4.085 3.712 9.514 5.969 15.469 5.969 12.703 0 23-10.298 23-23 0-5.954-2.256-11.384-5.969-15.469-1.469-1.475-3.147-2.744-4.969-3.781zm4.969 3.781c3.854 4.113 6.219 9.637 6.219 15.719 0 12.703-10.297 23-23 23-6.081 0-11.606-2.364-15.719-6.219 4.16 4.144 9.883 6.719 16.219 6.719 12.703 0 23-10.298 23-23 0-6.335-2.575-12.06-6.719-16.219z" style="opacity:.05"/>
 <path d="m41.28 8.781c3.712 4.085 5.969 9.514 5.969 15.469 0 12.703-10.297 23-23 23-5.954 0-11.384-2.256-15.469-5.969 4.113 3.854 9.637 6.219 15.719 6.219 12.703 0 23-10.298 23-23 0-6.081-2.364-11.606-6.219-15.719z" style="opacity:.1"/>
 <path d="m31.25 2.375c8.615 3.154 14.75 11.417 14.75 21.13 0 12.426-10.07 22.5-22.5 22.5-9.708 0-17.971-6.135-21.12-14.75a23 23 0 0 0 44.875-7 23 23 0 0 0-16-21.875z" style="opacity:.2"/>
 <path d="m24 1c12.703 0 23 10.297 23 23s-10.297 23-23 23-23-10.297-23-23 10.297-23 23-23z" style="fill:url(#bg)"/>
 <path d="m40.03 7.531c3.712 4.084 5.969 9.514 5.969 15.469 0 12.703-10.297 23-23 23-5.954 0-11.384-2.256-15.469-5.969 4.178 4.291 10.01 6.969 16.469 6.969 12.703 0 23-10.298 23-23 0-6.462-2.677-12.291-6.969-16.469z" style="opacity:.1"/>
 <rect x="12" y="15" width="26" height="20" rx="1" style="fill-opacity:.098"/>
 <rect x="11" y="14" width="26" height="20" rx="1" style="fill:#7d5d3a"/>
 <rect x="13" y="16" width="22" height="16" style="fill:#404040"/>
 <path d="m22.512 17c-0.094 0-0.179 9e-3 -0.254 0.027-0.232 0.049-0.348 0.295-0.348 0.738 0.072 1.436 0.108 2.819 0.197 4.186v0.803c0 0.036 0.045 0.069 0.133 0.1 0.038 0.012 0.072 0.021 0.104 0.027 0.031 6e-3 0.118 0.013 0.262 0.02 0.967 0.062 1.894 0.14 2.869-0.146 0.502-0.195 0.821-0.431 0.959-0.711 0.291-0.778 0.25-1.359-0.217-1.869-0.119-0.103-0.366-0.244-0.742-0.42 0.376-0.328 0.564-0.683 0.564-1.066-0.064-0.988-0.454-1.306-1.326-1.496-0.712-0.129-1.461-0.156-2.201-0.191zm9.635 0.037c-0.395 0-0.749 0.069-1.063 0.209-0.614 0.286-1.096 0.727-1.447 1.322-0.295 0.511-0.443 0.946-0.443 1.305 0 0.176 0.026 0.318 0.076 0.428l0.404 1.012c0.619 1.293 1.637 1.591 2.934 1.605 0.306 0.022 0.694 0.083 1.045 0.045 0.113 0 0.22 0.013 0.32 0.037 0.019-0.024 0.027-0.101 0.027-0.229-0.041-0.308-0.095-0.653-0.104-0.967v-0.199c0-0.049 3e-3 -0.098 1e-3 -0.146-0.013-0.03-0.035-0.045-0.066-0.045-0.025 0-0.072 0.015-0.141 0.045-0.652 0.263-1.302 0.23-1.984 0.283-0.138 0-0.311-0.04-0.518-0.119-0.1-0.043-0.188-0.088-0.264-0.137-0.063-0.091-0.151-0.207-0.225-0.328-0.092-0.246-0.221-0.487-0.264-0.766 0-0.091 0.024-0.282 0.074-0.574 0.056-0.292 0.16-0.612 0.311-0.959 0.65-0.74 1.417-0.775 2.324-0.811 0.15 0.012 0.289 0.054 0.414 0.127 0.08 0.108 0.207 0.183 0.301 0.266 0.075 0 0.111-0.04 0.111-0.119-0.066-0.309-0.029-0.595-0.037-0.902-0.05-0.237-0.327-0.355-0.828-0.355l-0.969-0.027zm-16.02 0.031c-0.111-5e-3 -0.196 0.03-0.182 0.232-0.461 1.287-0.915 2.542-1.336 3.84-0.143 0.445-0.328 0.956-0.564 1.439-0.031 0.073-0.047 0.131-0.047 0.174s0.012 0.075 0.037 0.1c0.025 0.018 0.055 0.027 0.086 0.027 0.364 0 0.657 0.035 0.883 0.102 0.274-0.271 0.486-0.56 0.555-0.949 0.019-0.091 0.05-0.168 0.094-0.229 0.088-0.122 0.292-0.182 0.611-0.182l1.082 0.072c0.082 0.182 0.17 0.346 0.264 0.492s0.191 0.317 0.291 0.512c0.031 0.061 0.088 0.097 0.17 0.109 0.088 0.012 0.214 0.018 0.377 0.018 0.169 0 0.34-2e-3 0.516-8e-3 0.176-0.012 0.279-0.047 0.311-0.102-0.668-1.559-1.48-3.673-2.031-5.525-0.031-0.061-0.29-0.097-0.779-0.109-0.088 0.037-0.225-8e-3 -0.336-0.014zm8.01 1.217c0.37 0.158 0.555 0.271 0.555 0.338 0 0.134-0.047 0.238-0.141 0.311-0.355 0.132-0.92 0.309-1.297 0.063-0.031-0.018-0.047-0.046-0.047-0.082s0.012-0.146 0.037-0.328 0.053-0.273 0.084-0.273c0.296-0.026 0.53-0.038 0.809-0.027zm-7.57 0.795c0.143 0.336 0.319 0.863 0.441 1.248h-1.01c0.261-0.47 0.382-0.76 0.568-1.248zm7.637 1.402c0.282 0 0.513 0.046 0.695 0.137 0.188 0.091 0.333 0.275 0.434 0.549 0 0.298-0.111 0.526-0.33 0.684-0.52 0.323-1 0.152-1.533 0.027-0.094-0.036-0.16-0.177-0.197-0.42-8e-3 -0.195-0.047-0.434-0.027-0.648 0-0.109 3e-3 -0.175 1e-3 -0.199 0.013-0.03 0.04-0.047 0.084-0.047 0.164 0 0.22-0.045 0.357-0.072l0.508-1e-3zm-2.143 4.545c-0.23 0.049-0.346 0.295-0.346 0.738 2e-3 1.157 0.178 2.733 0.195 4.186v0.803c0 0.036 0.044 0.069 0.131 0.1 1.04 0.088 2.046 0.183 3.203-0.1 0.496-0.195 0.813-0.431 0.949-0.711 0.141-0.356 0.209-0.752 0.158-1.168 0-0.255-0.125-0.488-0.373-0.701-0.118-0.103-0.362-0.244-0.734-0.42 0.372-0.328 0.557-0.683 0.557-1.066 0.023-0.348-0.074-0.709-0.334-1.014-0.161-0.255-0.465-0.482-0.955-0.549-0.773-0.058-1.647-0.156-2.451-0.098zm-5.207 0.02c-0.322 0.015-0.637 0.065-0.984 0.199-0.608 0.286-1.086 0.727-1.434 1.322-0.292 0.511-0.438 0.946-0.438 1.305 0.027 0.774 0.365 1.349 0.744 1.941 0.374 0.386 0.692 0.748 1.266 0.867 0.798 0.146 1.816 0.292 2.719 0.318 0.019-0.024 0.027-0.101 0.027-0.229-0.056-0.429-0.131-0.874-0.092-1.313-0.012-0.03-0.035-0.045-0.066-0.045-0.025 0-0.07 0.015-0.139 0.045-1.271 0.264-2.836 0.611-3.221-1.066 0.012-0.795 0.183-1.727 1.145-2.125 0.647-0.187 1.269-0.362 1.945-0.092 0.11 0.097 0.182 0.205 0.299 0.266 0.074 0 0.111-0.04 0.111-0.119-0.017-0.304-0.081-0.592-0.037-0.902-0.05-0.237-0.324-0.355-0.82-0.355-0.374-0.011-0.703-0.032-1.025-0.018zm14.361 0.035c-0.176 0.075-0.47-0.113-0.512 0.219-0.031 0.079-0.144 0.396-0.336 0.949-0.528 1.438-1.04 3.035-1.592 4.504 0 0.043 0.012 0.075 0.037 0.1 0.025 0.018 0.053 0.027 0.084 0.027 0.36 0 0.652 0.035 0.875 0.102 0.043 0 0.112-0.077 0.205-0.229 0.147-0.287 0.325-0.617 0.438-0.949 0.087-0.122 0.289-0.182 0.605-0.182l1.07 0.072c0.169 0.31 0.354 0.666 0.549 1 0.031 0.061 0.087 0.097 0.168 0.109 0.303 5e-3 0.574 0.035 0.885 1e-3 0.174-0.012 0.276-0.047 0.307-0.102-0.043-0.152-0.128-0.356-0.252-0.611-0.63-1.538-1.331-3.183-1.758-4.914-0.031-0.061-0.289-0.097-0.773-0.109zm-8.094 1.23c0.534-0.018 1.217-0.063 1.35 0.311 0.042 0.499-0.823 0.669-1.424 0.373-0.031-0.018-0.047-0.046-0.047-0.082 0.047-0.232 2e-3 -0.416 0.121-0.602zm8.195 0.768c0.127 0.417 0.264 0.842 0.438 1.248h-0.855c0.117-0.425 0.217-0.85 0.418-1.248zm-7.428 1.402c0.261-1e-3 0.528 0.015 0.787 0.137 0.186 0.091 0.328 0.275 0.428 0.549 0 0.298-0.109 0.526-0.326 0.684-0.413 0.129-0.714 0.218-1.182 0.145-0.125-0.044-0.223-0.062-0.336-0.117-0.093-0.036-0.158-0.177-0.195-0.42-1e-3 -0.269-0.053-0.585-0.018-0.848 0.012-0.03 0.041-0.047 0.084-0.047 0.241-0.026 0.497-0.072 0.758-0.082z" style="fill:#ededed"/>
</svg>
