<svg version="1.1" viewBox="0 0 48 48" xmlns="http://www.w3.org/2000/svg">
 <defs>
  <linearGradient id="bg" x2="0" y1="1" y2="47" gradientUnits="userSpaceOnUse">
   <stop style="stop-color:#706cc1" offset="0"/>
   <stop style="stop-color:#645fbc" offset="1"/>
  </linearGradient>
 </defs>
 <path d="m36.3 5c5.86 4.06 9.69 10.8 9.69 18.5 0 12.4-10.1 22.5-22.5 22.5-7.67 0-14.4-3.83-18.5-9.69 1.04 1.82 2.31 3.5 3.78 4.97 4.08 3.71 9.51 5.97 15.5 5.97 12.7 0 23-10.3 23-23 0-5.95-2.26-11.4-5.97-15.5-1.47-1.48-3.15-2.74-4.97-3.78zm4.97 3.78c3.85 4.11 6.22 9.64 6.22 15.7 0 12.7-10.3 23-23 23-6.08 0-11.6-2.36-15.7-6.22 4.16 4.14 9.88 6.72 16.2 6.72 12.7 0 23-10.3 23-23 0-6.34-2.58-12.1-6.72-16.2z" style="opacity:.05"/>
 <path d="m41.3 8.78c3.71 4.08 5.97 9.51 5.97 15.5 0 12.7-10.3 23-23 23-5.95 0-11.4-2.26-15.5-5.97 4.11 3.85 9.64 6.22 15.7 6.22 12.7 0 23-10.3 23-23 0-6.08-2.36-11.6-6.22-15.7z" style="opacity:.1"/>
 <path d="m31.2 2.38c8.62 3.15 14.8 11.4 14.8 21.1 0 12.4-10.1 22.5-22.5 22.5-9.71 0-18-6.14-21.1-14.8a23 23 0 0044.9-7 23 23 0 00-16-21.9z" style="opacity:.2"/>
 <circle cx="24" cy="24" r="23" style="fill:url(#bg)"/>
 <path d="m25 10c-8.28 0-15 6.72-15 15 .0021 5.81 3.35 11.1 8.54 13.5l.248-.992c-4.74-2.35-7.79-7.19-7.79-12.5 0-7.73 6.27-14 14-14s14 6.27 14 14c-.0038 5.35-3.05 10.2-7.79 12.5l.246.988c5.19-2.47 8.54-7.72 8.54-13.5 0-8.28-6.72-15-15-15zm0 4c-6.08 0-11 4.92-11 11 .0052 3.96 2.14 7.58 5.54 9.53l.252-1.01c-2.95-1.8-4.78-5.01-4.79-8.51 0-5.52 4.48-10 10-10s10 4.48 10 10c-.0036 3.5-1.84 6.72-4.79 8.52l.252 1.01c3.4-1.94 5.53-5.56 5.54-9.53 0-6.08-4.92-11-11-11zm0 4c-3.87 0-7 3.13-7 7 0 2.18 1 4.11 2.56 5.39l.271-1.09c-1.13-1.09-1.84-2.61-1.84-4.3 0-3.31 2.69-6 6-6s6 2.69 6 6c0 1.69-.708 3.21-1.84 4.3l.271 1.09c1.56-1.28 2.56-3.22 2.56-5.39 0-3.87-3.13-7-7-7zm0 5c-1.1 0-2 .895-2 2 .001.542.222 1.06.611 1.44l-4.96 19.9c1.75.427 3.54.647 5.34.656 2.45-.0096 4.89-.411 7.21-1.19l-4.82-19.4c.391-.377.611-.897.611-1.44 0-1.1-.895-2-2-2zm0 6 1.25 5h-2.5l1.25-5zm-.932 6h1.86l-.932 1.12-.932-1.12zm-.738.678 1.02 1.22-1.89 2.27.873-3.49zm3.34 0 .873 3.49-1.89-2.27 1.02-1.22zm-1.67 2 1.93 2.32h-3.86l1.93-2.32zm-1.5 3.32h3l-1.5 1.12-1.5-1.12zm-1.53.105 2.19 1.64-3.21 2.4 1.01-4.05zm6.05 0 1.01 4.05-3.21-2.4 2.19-1.64zm-3.03 2.27 3.5 2.62h-7l3.5-2.62z" style="opacity:.1"/>
 <path d="m24 22a2 2 0 00-2 2 2 2 0 00.611 1.44l-5.13 20.6a23 23 0 001.89.482l.0625-.25.764.381a23 23 0 002.82.295l-1.9-.951h5.77l-1.94.967a23 23 0 002.8-.281l.822-.41.0566.23a23 23 0 001.89-.465l-5.13-20.6a2 2 0 00.611-1.44 2 2 0 00-2-2zm0 6 1.25 5h-2.5l1.25-5zm-.932 6h1.86l-.932 1.12-.932-1.12zm-.738.678 1.02 1.22-1.89 2.27.873-3.49zm3.34 0 .873 3.49-1.89-2.27 1.02-1.22zm-1.67 2 1.93 2.32h-3.86l1.93-2.32zm-1.5 3.32h3l-1.5 1.12-1.5-1.12zm-1.53.105 2.19 1.64-3.21 2.4 1.01-4.05zm6.05 0 1.01 4.05-3.21-2.4 2.19-1.64zm-3.03 2.27 3.5 2.62h-7l3.5-2.62z" style="fill:#c1caea"/>
 <path d="m40 7.53c3.71 4.08 5.97 9.51 5.97 15.5 0 12.7-10.3 23-23 23-5.95 0-11.4-2.26-15.5-5.97 4.18 4.29 10 6.97 16.5 6.97 12.7 0 23-10.3 23-23 0-6.46-2.68-12.3-6.97-16.5z" style="opacity:.1"/>
 <path d="m24 9c-8.28 0-15 6.72-15 15 .00208 5.81 3.35 11.1 8.54 13.5l.248-.992c-4.74-2.35-7.79-7.19-7.79-12.5 0-7.73 6.27-14 14-14s14 6.27 14 14c-.00376 5.35-3.05 10.2-7.79 12.5l.246.988c5.19-2.47 8.54-7.72 8.54-13.5 0-8.28-6.72-15-15-15zm0 4c-6.08 0-11 4.92-11 11 .00524 3.96 2.14 7.58 5.54 9.53l.252-1.01c-2.95-1.8-4.78-5.01-4.79-8.51 0-5.52 4.48-10 10-10s10 4.48 10 10c-.00364 3.5-1.84 6.72-4.79 8.52l.252 1.01c3.4-1.94 5.53-5.56 5.54-9.53 0-6.08-4.92-11-11-11zm0 4c-3.87 0-7 3.13-7 7 0 2.18 1 4.11 2.56 5.39l.271-1.09c-1.13-1.09-1.84-2.61-1.84-4.3 0-3.31 2.69-6 6-6s6 2.69 6 6c0 1.69-.708 3.21-1.84 4.3l.271 1.09c1.56-1.28 2.56-3.22 2.56-5.39 0-3.87-3.13-7-7-7z" style="fill:#f9f9f9"/>
</svg>
