<svg version="1.1" viewBox="0 0 48 48" xmlns="http://www.w3.org/2000/svg">
 <defs>
  <linearGradient id="bg" x2="0" y1="47" y2="1" gradientUnits="userSpaceOnUse">
   <stop style="stop-color:#424242" offset="0"/>
   <stop style="stop-color:#4c4c4c" offset="1"/>
  </linearGradient>
 </defs>
 <path d="m36.3 5c5.86 4.06 9.69 10.8 9.69 18.5 0 12.4-10.1 22.5-22.5 22.5-7.67 0-14.4-3.83-18.5-9.69 1.04 1.82 2.31 3.5 3.78 4.97 4.08 3.71 9.51 5.97 15.5 5.97 12.7 0 23-10.3 23-23 0-5.95-2.26-11.4-5.97-15.5-1.47-1.48-3.15-2.74-4.97-3.78zm4.97 3.78c3.85 4.11 6.22 9.64 6.22 15.7 0 12.7-10.3 23-23 23-6.08 0-11.6-2.36-15.7-6.22 4.16 4.14 9.88 6.72 16.2 6.72 12.7 0 23-10.3 23-23 0-6.34-2.58-12.1-6.72-16.2z" style="opacity:.05"/>
 <path d="m41.3 8.78c3.71 4.08 5.97 9.51 5.97 15.5 0 12.7-10.3 23-23 23-5.95 0-11.4-2.26-15.5-5.97 4.11 3.85 9.64 6.22 15.7 6.22 12.7 0 23-10.3 23-23 0-6.08-2.36-11.6-6.22-15.7z" style="opacity:.1"/>
 <path d="m31.2 2.38c8.62 3.15 14.8 11.4 14.8 21.1 0 12.4-10.1 22.5-22.5 22.5-9.71 0-18-6.14-21.1-14.8a23 23 0 0 0 44.9-7 23 23 0 0 0-16-21.9z" style="opacity:.2"/>
 <path d="m24 1c12.7 0 23 10.3 23 23s-10.3 23-23 23-23-10.3-23-23 10.3-23 23-23z" style="fill:url(#bg)"/>
 <path d="m13 14.3v3.73h6v-3.73c0-0.703-0.607-1.27-1.37-1.27zm12.9 1.83s-0.764 0.894-2.55 0.262l0.527 3.05c-0.145-0.243-0.414-0.414-0.733-0.414h-2.3c-0.47 0-0.85 0.358-0.85 0.797v16.4c0 0.442 0.38 0.797 0.85 0.797h2.3c0.47 0 0.85-0.354 0.85-0.797v-16.1l2.91 16.9s0.862-0.887 2.65-0.256l-3.65-20.6m-12.9 2.9v12h6v-12zm18.2 1.23c-0.817 0.0279-2.64 0.233-4.17 1.44l5.15 15.3c2.69 0.152 4.86-1.44 4.86-1.44l-5.41-15.3s-0.161-0.0096-0.433 0zm-18.1 11.8-0.0072 3.73c-0.0014 0.703 0.607 1.27 1.37 1.27h3.27c0.759 0 1.37-0.562 1.37-1.27v-3.74z" style="opacity:.1"/>
 <path d="m13.4 12c-0.759 0-1.37 0.562-1.37 1.27v3.73h6v-3.73c0-0.703-0.607-1.27-1.37-1.27zm-1.37 6v12h6v-12zm-8.54e-4 13 8.54e-4 3.74c0 0.703 0.607 1.27 1.37 1.27h3.27c0.759 0 1.37-0.562 1.37-1.27l-8.53e-4 -3.74z" style="fill:#faff59"/>
 <path d="m22.2 18c0.47 0 0.85 0.358 0.85 0.797v16.4c0 0.442-0.38 0.797-0.85 0.797h-2.3c-0.47 0-0.85-0.354-0.85-0.797v-16.4c0-0.439 0.38-0.797 0.85-0.797" style="fill:#ff7153"/>
 <path d="m22.4 15.4c1.78 0.632 2.55-0.261 2.55-0.261l3.65 20.6c-1.79-0.632-2.65 0.257-2.65 0.257" style="fill:#61b4ff"/>
 <path d="m26 20.7c2.03-1.61 4.6-1.44 4.6-1.44l5.42 15.3s-2.17 1.59-4.86 1.44" style="fill:#f9994c"/>
 <path d="m40 7.53c3.71 4.08 5.97 9.51 5.97 15.5 0 12.7-10.3 23-23 23-5.95 0-11.4-2.26-15.5-5.97 4.18 4.29 10 6.97 16.5 6.97 12.7 0 23-10.3 23-23 0-6.46-2.68-12.3-6.97-16.5z" style="opacity:.1"/>
</svg>
