<svg version="1.1" viewBox="0 0 48 48" xmlns="http://www.w3.org/2000/svg">
 <defs>
  <linearGradient id="bg" x1="1" x2="47" gradientTransform="matrix(0 -1 1 0 -1.5e-6 48)" gradientUnits="userSpaceOnUse">
   <stop style="stop-color:#e4e4e4" offset="0"/>
   <stop style="stop-color:#eee" offset="1"/>
  </linearGradient>
  <linearGradient id="linearGradient3948" x1="20" x2="37" y1="20" y2="37" gradientTransform="matrix(-1 0 0 1 51.008 .0024089)" gradientUnits="userSpaceOnUse">
   <stop style="stop-opacity:.118" offset="0"/>
   <stop style="stop-opacity:.039" offset="1"/>
  </linearGradient>
  <linearGradient id="linearGradient3902" x2="0" y1="18" y2="40" gradientTransform="matrix(-.70692 -.70724 -.70692 .70724 55.865 21.418)" gradientUnits="userSpaceOnUse">
   <stop style="stop-color:#939393" offset="0"/>
   <stop style="stop-color:#9b9b9b;stop-opacity:.235" offset="1"/>
  </linearGradient>
  <radialGradient id="radialGradient3910" cx="21.781" cy="17.703" r="7" gradientTransform="matrix(1.1428 0 0 1.1428 -59.802 -29.232)" gradientUnits="userSpaceOnUse">
   <stop style="stop-color:#97cef9" offset="0"/>
   <stop style="stop-color:#6f8ee9" offset="1"/>
  </radialGradient>
 </defs>
 <path d="m36.31 5c5.859 4.062 9.688 10.831 9.688 18.5 0 12.426-10.07 22.5-22.5 22.5-7.669 0-14.438-3.828-18.5-9.688 1.037 1.822 2.306 3.499 3.781 4.969 4.085 3.712 9.514 5.969 15.469 5.969 12.703 0 23-10.298 23-23 0-5.954-2.256-11.384-5.969-15.469-1.469-1.475-3.147-2.744-4.969-3.781zm4.969 3.781c3.854 4.113 6.219 9.637 6.219 15.719 0 12.703-10.297 23-23 23-6.081 0-11.606-2.364-15.719-6.219 4.16 4.144 9.883 6.719 16.219 6.719 12.703 0 23-10.298 23-23 0-6.335-2.575-12.06-6.719-16.219z" style="opacity:.05"/>
 <path d="m41.28 8.781c3.712 4.085 5.969 9.514 5.969 15.469 0 12.703-10.297 23-23 23-5.954 0-11.384-2.256-15.469-5.969 4.113 3.854 9.637 6.219 15.719 6.219 12.703 0 23-10.298 23-23 0-6.081-2.364-11.606-6.219-15.719z" style="opacity:.1"/>
 <path d="m31.25 2.375c8.615 3.154 14.75 11.417 14.75 21.13 0 12.426-10.07 22.5-22.5 22.5-9.708 0-17.971-6.135-21.12-14.75a23 23 0 0 0 44.875-7 23 23 0 0 0-16-21.875z" style="opacity:.2"/>
 <path d="m24 1c12.703 0 23 10.297 23 23s-10.297 23-23 23-23-10.297-23-23 10.297-23 23-23z" style="fill:url(#bg)"/>
 <path d="m40.03 7.531c3.712 4.084 5.969 9.514 5.969 15.469 0 12.703-10.297 23-23 23-5.954 0-11.384-2.256-15.469-5.969 4.178 4.291 10.01 6.969 16.469 6.969 12.703 0 23-10.298 23-23 0-6.462-2.677-12.291-6.969-16.469z" style="opacity:.1"/>
 <path d="m30.008 13.002c2.047 0 4.095 0.781 5.656 2.344 3.123 3.125 3.123 8.188 0 11.313 0 0-18.4 12.744-21.25 9.938-2.85-2.807 9.938-21.25 9.938-21.25 1.562-1.562 3.609-2.344 5.656-2.344" style="fill:url(#linearGradient3948)"/>
 <path d="m13.414 35.598c2.85 2.807 21.243-9.946 21.243-9.946l-11.307-11.306s-12.785 18.446-9.936 21.253z" style="fill:url(#linearGradient3902)"/>
 <circle transform="matrix(-.70695 -.70726 -.70695 .70726 0 0)" cx="-34.66" cy="-6.3761" r="7.9997" style="fill:url(#radialGradient3910)"/>
</svg>
