<svg version="1.1" viewBox="0 0 48 48" xmlns="http://www.w3.org/2000/svg">
 <defs>
  <linearGradient id="bg" x1="1" x2="47" gradientTransform="matrix(0 -1 1 0 -1.5e-6 48)" gradientUnits="userSpaceOnUse">
   <stop style="stop-color:#e4e4e4" offset="0"/>
   <stop style="stop-color:#eee" offset="1"/>
  </linearGradient>
 </defs>
 <path d="m36.3 5c5.86 4.06 9.69 10.8 9.69 18.5 0 12.4-10.1 22.5-22.5 22.5-7.67 0-14.4-3.83-18.5-9.69 1.04 1.82 2.31 3.5 3.78 4.97 4.08 3.71 9.51 5.97 15.5 5.97 12.7 0 23-10.3 23-23 0-5.95-2.26-11.4-5.97-15.5-1.47-1.48-3.15-2.74-4.97-3.78zm4.97 3.78c3.85 4.11 6.22 9.64 6.22 15.7 0 12.7-10.3 23-23 23-6.08 0-11.6-2.36-15.7-6.22 4.16 4.14 9.88 6.72 16.2 6.72 12.7 0 23-10.3 23-23 0-6.34-2.58-12.1-6.72-16.2z" style="opacity:.05"/>
 <path d="m41.3 8.78c3.71 4.08 5.97 9.51 5.97 15.5 0 12.7-10.3 23-23 23-5.95 0-11.4-2.26-15.5-5.97 4.11 3.85 9.64 6.22 15.7 6.22 12.7 0 23-10.3 23-23 0-6.08-2.36-11.6-6.22-15.7z" style="opacity:.1"/>
 <path d="m31.2 2.38c8.62 3.15 14.8 11.4 14.8 21.1 0 12.4-10.1 22.5-22.5 22.5-9.71 0-18-6.14-21.1-14.8a23 23 0 0 0 44.9-7 23 23 0 0 0-16-21.9z" style="opacity:.2"/>
 <path d="m24 1c12.7 0 23 10.3 23 23s-10.3 23-23 23-23-10.3-23-23 10.3-23 23-23z" style="fill:url(#bg)"/>
 <path d="m40 7.53c3.71 4.08 5.97 9.51 5.97 15.5 0 12.7-10.3 23-23 23-5.95 0-11.4-2.26-15.5-5.97 4.18 4.29 10 6.97 16.5 6.97 12.7 0 23-10.3 23-23 0-6.46-2.68-12.3-6.97-16.5z" style="opacity:.1"/>
 <path d="m24.7 12-2.7 4.76-5.02-2.76-3 5.5 4.86 2.68-5.85 10.2 10.2 5.62 5.77-10.3 5.19 2.86 2.88-5.59-4.85-2.67 2.86-4.99zm7.79 5.77c0.414 0 0.75 0.336 0.75 0.75s-0.336 0.75-0.75 0.75-0.75-0.336-0.75-0.75 0.336-0.75 0.75-0.75zm-6.07 10.9c0.414 0 0.75 0.336 0.75 0.75s-0.336 0.75-0.75 0.75-0.75-0.336-0.75-0.75 0.336-0.75 0.75-0.75zm-1.79 3.34v0.00195c0.414 0 0.75 0.336 0.75 0.75s-0.336 0.75-0.75 0.75c-0.36-3.55e-4 -0.67-0.257-0.736-0.611 0-5e-3 4.7e-5 -0.0087-2e-3 -0.0137-0.0074-0.0413-0.0113-0.0831-0.0117-0.125 3.64e-4 -0.0459 0.0049-0.0917 0.0137-0.137 0-4e-3 0.0019-0.0077 0.0039-0.0117 0.0696-0.35 0.376-0.602 0.732-0.604zm-2 3.37c0.414 0 0.75 0.336 0.75 0.75s-0.336 0.75-0.75 0.75-0.75-0.336-0.75-0.75 0.336-0.75 0.75-0.75z" style="opacity:.1"/>
 <path d="m26.2 12.3c-2.6 2.5-3.18 4.31-3.78 6.56l5.06 2.69c1.63-1.83 3.16-3.75 3.75-6.62l-5.04-2.62zm-4.57 7.92c-0.509 0.012-7.44 12-7.22 12.5l5.44 3.01c0.485-0.088 7.13-12.4 6.8-12.8l-5.03-2.75z" style="fill:#476d9e"/>
 <path d="m23.7 11-3.72 6.56 2.41 1.28 3.78-6.56-2.47-1.28zm0.182 1.57a0.75 0.75 0 0 1 0.75 0.75 0.75 0.75 0 0 1-0.75 0.75 0.75 0.75 0 0 1-0.75-0.75 0.75 0.75 0 0 1 0.75-0.75zm7.32 2.34c-0.738 1.29-1.98 3.5-3.75 6.62l2.72 1.47 3.82-6.66-2.78-1.44h-0.00391zm-9.13 0.924a0.75 0.75 0 0 1 0.75 0.75 0.75 0.75 0 0 1-0.75 0.75 0.75 0.75 0 0 1-0.75-0.75 0.75 0.75 0 0 1 0.75-0.75zm9.42 0.939a0.75 0.75 0 0 1 0.75 0.75 0.75 0.75 0 0 1-0.75 0.75 0.75 0.75 0 0 1-0.75-0.75 0.75 0.75 0 0 1 0.75-0.75zm-12.3 2.07 0.00391 0.00195v-0.00195h-0.00391zm0.00391 0.00195-7.19 12.5 2.39 1.34 7.23-12.5-2.44-1.34zm10.5 1.23a0.75 0.75 0 0 1 0.75 0.75 0.75 0.75 0 0 1-0.75 0.75 0.75 0.75 0 0 1-0.75-0.75 0.75 0.75 0 0 1 0.75-0.75zm-10.2 0.18a0.75 0.75 0 0 1 0.75 0.75 0.75 0.75 0 0 1-0.75 0.75 0.75 0.75 0 0 1-0.75-0.75 0.75 0.75 0 0 1 0.75-0.75zm7.18 2.68-6.81 12.8 2.31 1.28 7.09-12.6-2.59-1.44zm-8.98 0.443a0.75 0.75 0 0 1 0.75 0.75 0.75 0.75 0 0 1-0.75 0.75 0.75 0.75 0 0 1-0.75-0.75 0.75 0.75 0 0 1 0.75-0.75zm9.49 0.92a0.75 0.75 0 0 1 0.75 0.75 0.75 0.75 0 0 1-0.75 0.75 0.75 0.75 0 0 1-0.75-0.75 0.75 0.75 0 0 1 0.75-0.75zm-11.3 2.35a0.75 0.75 0 0 1 0.75 0.75 0.75 0.75 0 0 1-0.75 0.75 0.75 0.75 0 0 1-0.75-0.75 0.75 0.75 0 0 1 0.75-0.75zm9.59 1.01a0.75 0.75 0 0 1 0.75 0.75 0.75 0.75 0 0 1-0.75 0.75 0.75 0.75 0 0 1-0.75-0.75 0.75 0.75 0 0 1 0.75-0.75zm-11.6 2.39a0.75 0.75 0 0 1 0.75 0.75 0.75 0.75 0 0 1-0.75 0.75 0.75 0.75 0 0 1-0.75-0.75 0.75 0.75 0 0 1 0.75-0.75zm9.8 0.947v0.00195a0.75 0.75 0 0 1 0.75 0.75 0.75 0.75 0 0 1-0.75 0.75 0.75 0.75 0 0 1-0.736-0.611c0-5e-3 4.7e-5 -0.00867-0.00195-0.0137a0.75 0.75 0 0 1-0.0117-0.125 0.75 0.75 0 0 1 0.0137-0.137c0-4e-3 0.00191-0.00772 0.00391-0.0117a0.75 0.75 0 0 1 0.732-0.604zm-2 3.37a0.75 0.75 0 0 1 0.75 0.75 0.75 0.75 0 0 1-0.75 0.75 0.75 0.75 0 0 1-0.75-0.75 0.75 0.75 0 0 1 0.75-0.75z" style="fill:#474747"/>
 <path transform="matrix(.877 .481 -.479 .878 0 0)" d="m20.3 3.7 22.8 0.0185 0.152 6.29-23-0.0411z" style="fill-opacity:.7;fill:#7c1d26"/>
</svg>
