<svg xmlns="http://www.w3.org/2000/svg" viewBox="0 0 48 48">
 <defs>
  <linearGradient id="linearGradient3764" x1="1" x2="47" gradientUnits="userSpaceOnUse" gradientTransform="matrix(0,-1,1,0,-1.5e-6,47.999998)">
   <stop style="stop-color:#97b2d3;stop-opacity:1"/>
   <stop offset="1" style="stop-color:#a5bcd9;stop-opacity:1"/>
  </linearGradient>
 </defs>
 <g>
  <path d="m 36.31 5 c 5.859 4.062 9.688 10.831 9.688 18.5 c 0 12.426 -10.07 22.5 -22.5 22.5 c -7.669 0 -14.438 -3.828 -18.5 -9.688 c 1.037 1.822 2.306 3.499 3.781 4.969 c 4.085 3.712 9.514 5.969 15.469 5.969 c 12.703 0 23 -10.298 23 -23 c 0 -5.954 -2.256 -11.384 -5.969 -15.469 c -1.469 -1.475 -3.147 -2.744 -4.969 -3.781 z m 4.969 3.781 c 3.854 4.113 6.219 9.637 6.219 15.719 c 0 12.703 -10.297 23 -23 23 c -6.081 0 -11.606 -2.364 -15.719 -6.219 c 4.16 4.144 9.883 6.719 16.219 6.719 c 12.703 0 23 -10.298 23 -23 c 0 -6.335 -2.575 -12.06 -6.719 -16.219 z" style="opacity:0.05"/>
  <path d="m 41.28 8.781 c 3.712 4.085 5.969 9.514 5.969 15.469 c 0 12.703 -10.297 23 -23 23 c -5.954 0 -11.384 -2.256 -15.469 -5.969 c 4.113 3.854 9.637 6.219 15.719 6.219 c 12.703 0 23 -10.298 23 -23 c 0 -6.081 -2.364 -11.606 -6.219 -15.719 z" style="opacity:0.1"/>
  <path d="m 31.25 2.375 c 8.615 3.154 14.75 11.417 14.75 21.13 c 0 12.426 -10.07 22.5 -22.5 22.5 c -9.708 0 -17.971 -6.135 -21.12 -14.75 a 23 23 0 0 0 44.875 -7 a 23 23 0 0 0 -16 -21.875 z" style="opacity:0.2"/>
 </g>
 <g>
  <path d="m 24 1 c 12.703 0 23 10.297 23 23 c 0 12.703 -10.297 23 -23 23 -12.703 0 -23 -10.297 -23 -23 0 -12.703 10.297 -23 23 -23 z" style="fill:url(#linearGradient3764);fill-opacity:1"/>
 </g>
 <g>
  <path d="m 40.03 7.531 c 3.712 4.084 5.969 9.514 5.969 15.469 0 12.703 -10.297 23 -23 23 c -5.954 0 -11.384 -2.256 -15.469 -5.969 4.178 4.291 10.01 6.969 16.469 6.969 c 12.703 0 23 -10.298 23 -23 0 -6.462 -2.677 -12.291 -6.969 -16.469 z" style="opacity:0.1"/>
 </g>
 <path d="m 21 12 a 3 3 0 0 0 -3 3 3 3 0 0 0 0.689 1.908 l -3.092 5.152 a 3 3 0 0 1 -0.002 0 A 3 3 0 0 0 15 22 a 3 3 0 0 0 -3 3 3 3 0 0 0 3 3 3 3 0 0 0 0.596 -0.063 L 18.688 33.09 A 3 3 0 0 0 18 35 a 3 3 0 0 0 3 3 3 3 0 0 0 2.824 -2 l 8.35 0 A 3 3 0 0 0 35 38 a 3 3 0 0 0 3 -3 3 3 0 0 0 -3 -3 3 3 0 0 0 -2.824 2 l -8.35 0 A 3 3 0 0 0 21 32 3 3 0 0 0 20.404 32.06 L 17.313 26.91 A 3 3 0 0 0 17.824 26 l 8.35 0 A 3 3 0 0 0 29 28 a 3 3 0 0 0 3 -3 3 3 0 0 0 -3 -3 3 3 0 0 0 -2.824 2 l -8.35 0 a 3 3 0 0 0 -0.516 -0.908 l 3.092 -5.152 A 3 3 0 0 0 21 18 3 3 0 0 0 24 15 3 3 0 0 0 21 12" style="fill:#000;fill-opacity:0.098;stroke:none;fill-rule:evenodd"/>
 <g>
  <circle r="3" cy="24" cx="14" style="fill:#f0f0f0;fill-opacity:1;stroke:none;fill-rule:evenodd"/>
  <circle cx="28" cy="24" r="3" style="fill:#f0f0f0;fill-opacity:1;stroke:none;fill-rule:evenodd"/>
  <circle r="3" cy="14" cx="20" style="fill:#f0f0f0;fill-opacity:1;stroke:none;fill-rule:evenodd"/>
  <circle cx="20" cy="34" r="3" style="fill:#f0f0f0;fill-opacity:1;stroke:none;fill-rule:evenodd"/>
  <circle r="3" cy="34" cx="34" style="fill:#f0f0f0;fill-opacity:1;stroke:none;fill-rule:evenodd"/>
  <path d="m 19.14 13.486 l -6.309 10.514 l 6.6 11 l 14.566 0 l 0 -2 l -13.434 0 l -4.801 -8 l 12.234 0 l 0 -2 l -12.234 0 l 5.092 -8.486 l -1.715 -1.027 z" mix-blend-mode="normal" isolation="auto" white-space="normal" solid-opacity="1" solid-color="#000000" style="visibility:visible;shape-rendering:auto;color-interpolation-filters:linearRGB;fill:#f0f0f0;opacity:1;image-rendering:auto;fill-opacity:1;stroke:none;display:inline;color:#000;fill-rule:evenodd;color-rendering:auto;color-interpolation:sRGB"/>
 </g>
</svg>
