<svg xmlns="http://www.w3.org/2000/svg" viewBox="0 0 48 48">
 <defs>
  <linearGradient id="linearGradient3764" x1="1" x2="47" gradientUnits="userSpaceOnUse" gradientTransform="matrix(0,-1,1,0,-1.5e-6,47.999998)">
   <stop style="stop-color:#3d3d3d;stop-opacity:1"/>
   <stop offset="1" style="stop-color:#474747;stop-opacity:1"/>
  </linearGradient>
  <radialGradient id="radialGradient4218" cx="25" cy="23" r="8" gradientUnits="userSpaceOnUse">
   <stop style="stop-color:#3ea614;stop-opacity:1"/>
   <stop offset="1" style="stop-color:#82cd19;stop-opacity:1"/>
  </radialGradient>
 </defs>
 <g>
  <path d="m 36.31 5 c 5.859 4.062 9.688 10.831 9.688 18.5 c 0 12.426 -10.07 22.5 -22.5 22.5 c -7.669 0 -14.438 -3.828 -18.5 -9.688 c 1.037 1.822 2.306 3.499 3.781 4.969 c 4.085 3.712 9.514 5.969 15.469 5.969 c 12.703 0 23 -10.298 23 -23 c 0 -5.954 -2.256 -11.384 -5.969 -15.469 c -1.469 -1.475 -3.147 -2.744 -4.969 -3.781 z m 4.969 3.781 c 3.854 4.113 6.219 9.637 6.219 15.719 c 0 12.703 -10.297 23 -23 23 c -6.081 0 -11.606 -2.364 -15.719 -6.219 c 4.16 4.144 9.883 6.719 16.219 6.719 c 12.703 0 23 -10.298 23 -23 c 0 -6.335 -2.575 -12.06 -6.719 -16.219 z" style="opacity:0.05"/>
  <path d="m 41.28 8.781 c 3.712 4.085 5.969 9.514 5.969 15.469 c 0 12.703 -10.297 23 -23 23 c -5.954 0 -11.384 -2.256 -15.469 -5.969 c 4.113 3.854 9.637 6.219 15.719 6.219 c 12.703 0 23 -10.298 23 -23 c 0 -6.081 -2.364 -11.606 -6.219 -15.719 z" style="opacity:0.1"/>
  <path d="m 31.25 2.375 c 8.615 3.154 14.75 11.417 14.75 21.13 c 0 12.426 -10.07 22.5 -22.5 22.5 c -9.708 0 -17.971 -6.135 -21.12 -14.75 a 23 23 0 0 0 44.875 -7 a 23 23 0 0 0 -16 -21.875 z" style="opacity:0.2"/>
 </g>
 <g>
  <path d="m 24 1 c 12.703 0 23 10.297 23 23 c 0 12.703 -10.297 23 -23 23 -12.703 0 -23 -10.297 -23 -23 0 -12.703 10.297 -23 23 -23 z" style="fill:url(#linearGradient3764);fill-opacity:1"/>
 </g>
 <g>
  <path d="m 40.03 7.531 c 3.712 4.084 5.969 9.514 5.969 15.469 0 12.703 -10.297 23 -23 23 c -5.954 0 -11.384 -2.256 -15.469 -5.969 4.178 4.291 10.01 6.969 16.469 6.969 c 12.703 0 23 -10.298 23 -23 0 -6.462 -2.677 -12.291 -6.969 -16.469 z" style="opacity:0.1"/>
 </g>
 <g transform="translate(0.001,0)">
  <path d="m 16 12.986 c -0.031 0 -0.07 0.008 -0.094 0.031 l -0.875 0.875 c -0.047 0.047 -0.047 0.14 0 0.188 l 1.219 1.219 -0.344 0.344 c -0.078 0.078 -0.09 0.188 -0.031 0.281 l 2.156 3.564 c -0.363 0.621 -0.637 1.277 -0.844 1.969 l -4 0.844 c -0.109 0.023 -0.189 0.109 -0.189 0.219 l 0 2.605 c 0 0.102 0.083 0.188 0.189 0.219 l 3.875 0.938 c 0.199 0.805 0.508 1.574 0.906 2.281 l -2.25 3.406 c -0.063 0.09 -0.049 0.227 0.029 0.313 l 1.814 1.813 c 0.078 0.078 0.218 0.086 0.313 0.031 l 3.5 -2.125 c 0.66 0.383 1.371 0.695 2.125 0.906 l 0.813 3.906 c 0.023 0.109 0.109 0.188 0.219 0.188 l 2.596 0 c 0.109 0 0.195 -0.081 0.219 -0.188 l 0.969 -3.875 c 0.801 -0.211 1.543 -0.5 2.25 -0.906 l 3.406 2.188 c 0.094 0.059 0.203 0.047 0.281 -0.031 l 0.469 -0.469 1.188 1.189 c 0.047 0.047 0.148 0.047 0.191 0 l 0.875 -0.875 c 0.043 -0.047 0.043 -0.109 0 -0.156 l -1.191 -1.189 0.281 -0.313 c 0.078 -0.078 0.121 -0.191 0.066 -0.281 l -2.156 -3.5 c 0.234 -0.422 0.453 -0.883 0.625 -1.344 0.008 -0.031 0.012 -0.066 0 -0.094 -0.016 -0.031 -0.063 -0.055 -0.094 -0.063 l -1.037 -0.266 a 8 8 0 0 0 0.531 -2.842 8 8 0 0 0 -8 -8 8 8 0 0 0 -2.793 0.508 l -0.201 -0.932 c -0.008 -0.035 -0.035 -0.046 -0.066 -0.063 -0.027 -0.023 -0.059 -0.02 -0.094 0 -0.457 0.164 -0.892 0.352 -1.314 0.594 -0.004 -0.004 0.008 -0.031 0 -0.031 l -3.5 -2.281 c -0.094 -0.063 -0.23 -0.051 -0.313 0.031 l -0.406 0.438 -1.25 -1.219 c -0.023 -0.023 -0.03 -0.031 -0.063 -0.031 l 0 -0.014 z" style="fill:#000;fill-opacity:0.098;stroke:none;fill-rule:nonzero"/>
  <path d="m 15,12 c -0.031,0 -0.07,0.008 -0.094,0.031 l -0.875,0.875 c -0.047,0.047 -0.047,0.141 0,0.188 l 1.219,1.219 -0.344,0.344 c -0.078,0.078 -0.09,0.188 -0.031,0.281 l 2.156,3.563 c -0.363,0.621 -0.637,1.277 -0.844,1.969 l -4,0.844 c -0.109,0.023 -0.188,0.109 -0.188,0.219 l 0,2.605 c 0,0.102 0.082,0.188 0.188,0.219 l 3.875,0.938 c 0.199,0.805 0.508,1.574 0.906,2.281 l -2.25,3.406 c -0.063,0.09 -0.047,0.227 0.031,0.313 l 1.813,1.813 c 0.078,0.078 0.219,0.086 0.313,0.031 l 3.5,-2.125 c 0.66,0.383 1.371,0.695 2.125,0.906 l 0.813,3.906 c 0.023,0.109 0.109,0.188 0.219,0.188 l 2.594,0 c 0.109,0 0.195,-0.082 0.219,-0.188 l 0.969,-3.875 c 0.801,-0.211 1.543,-0.5 2.25,-0.906 l 3.406,2.188 c 0.094,0.059 0.203,0.047 0.281,-0.031 l 0.469,-0.469 1.188,1.188 c 0.047,0.047 0.148,0.047 0.191,0 l 0.875,-0.875 c 0.043,-0.047 0.043,-0.109 0,-0.156 l -1.191,-1.188 0.281,-0.313 c 0.078,-0.078 0.121,-0.191 0.066,-0.281 l -2.156,-3.5 c 0.234,-0.422 0.453,-0.883 0.625,-1.344 0.008,-0.031 0.012,-0.066 0,-0.094 -0.016,-0.031 -0.063,-0.055 -0.094,-0.063 l -1.098,-0.281 c -0.004,-0.004 -0.023,0 -0.027,0 0.309,-0.848 0.5,-1.766 0.5,-2.719 0,-4.316 -3.516,-7.844 -7.848,-7.844 -0.969,0 -1.918,0.172 -2.777,0.5 0.004,-0.023 0.004,-0.023 0,-0.031 l -0.25,-1.156 c -0.008,-0.035 -0.035,-0.047 -0.066,-0.063 -0.027,-0.023 -0.059,-0.02 -0.094,0 -0.457,0.164 -0.891,0.352 -1.313,0.594 -0.004,-0.004 0.008,-0.031 0,-0.031 l -3.5,-2.281 c -0.094,-0.063 -0.23,-0.051 -0.313,0.031 l -0.406,0.438 -1.25,-1.219 C 15.04,12.022 15.032,12.014 15,12.014" style="fill:#e6e6e6;fill-opacity:1;stroke:none;fill-rule:nonzero"/>
  <circle r="8" cy="23" cx="25" style="fill:url(#radialGradient4218);opacity:1;fill-opacity:1;stroke:none;fill-rule:nonzero"/>
  <circle transform="matrix(-2.1213203e-8,-1,1,2.1213203e-8,0,0)" r="5" cy="24.999" cx="-23" style="fill:#e6e6e6;opacity:1;fill-opacity:1;stroke:none;fill-rule:nonzero"/>
  <path d="m 26.293 27.83 -6.124 -6.124 8.365 -2.242" style="fill:#4d4d4d;opacity:1;fill-opacity:1;stroke:none;fill-rule:nonzero"/>
 </g>
</svg>
