<svg version="1.1" viewBox="0 0 48 48" xmlns="http://www.w3.org/2000/svg">
 <defs>
  <linearGradient id="bg" x2="0" y1="1" y2="47" gradientUnits="userSpaceOnUse">
   <stop style="stop-color:#c2ad47" offset="0"/>
   <stop style="stop-color:#b8a33d" offset="1"/>
  </linearGradient>
 </defs>
 <path d="m36.3 5c5.86 4.06 9.69 10.8 9.69 18.5 0 12.4-10.1 22.5-22.5 22.5-7.67 0-14.4-3.83-18.5-9.69 1.04 1.82 2.31 3.5 3.78 4.97 4.08 3.71 9.51 5.97 15.5 5.97 12.7 0 23-10.3 23-23 0-5.95-2.26-11.4-5.97-15.5-1.47-1.48-3.15-2.74-4.97-3.78zm4.97 3.78c3.85 4.11 6.22 9.64 6.22 15.7 0 12.7-10.3 23-23 23-6.08 0-11.6-2.36-15.7-6.22 4.16 4.14 9.88 6.72 16.2 6.72 12.7 0 23-10.3 23-23 0-6.34-2.58-12.1-6.72-16.2z" style="opacity:.05"/>
 <path d="m41.3 8.78c3.71 4.08 5.97 9.51 5.97 15.5 0 12.7-10.3 23-23 23-5.95 0-11.4-2.26-15.5-5.97 4.11 3.85 9.64 6.22 15.7 6.22 12.7 0 23-10.3 23-23 0-6.08-2.36-11.6-6.22-15.7z" style="opacity:.1"/>
 <path d="m31.2 2.38c8.62 3.15 14.8 11.4 14.8 21.1 0 12.4-10.1 22.5-22.5 22.5-9.71 0-18-6.14-21.1-14.8a23 23 0 0044.9-7 23 23 0 00-16-21.9z" style="opacity:.2"/>
 <circle cx="24" cy="24" r="23" style="fill:url(#bg)"/>
 <path d="m40 7.53c3.71 4.08 5.97 9.51 5.97 15.5 0 12.7-10.3 23-23 23-5.95 0-11.4-2.26-15.5-5.97 4.18 4.29 10 6.97 16.5 6.97 12.7 0 23-10.3 23-23 0-6.46-2.68-12.3-6.97-16.5z" style="opacity:.1"/>
 <path d="m12 31.5c0 .831.669 1.5 1.5 1.5h2.5v4h1l1-1-.5-.5.5-.5v-1l-.5-1h6.5v2.5l.5.5h.5l1-1-.5-.5.5-.5-.5-.5.5-.5h6v4l1 1 1-1-.5-.5.5-.5-1-1h1l-.5-1 .5-1h2.5c.831 0 1.5-.669 1.5-1.5v-14c0-.831-.669-1.5-1.5-1.5 0 0-24.7 15.4-24.5 15.5z" style="opacity:.1"/>
 <rect x="11" y="15" width="26" height="17" ry="1.5" style="fill:#b48464"/>
 <path d="m13 16a1 1 0 00-1 1 1 1 0 001 1 1 1 0 001-1 1 1 0 00-1-1zm22 0a1 1 0 00-1 1 1 1 0 001 1 1 1 0 001-1 1 1 0 00-1-1z" style="fill:#6c5947"/>
 <path d="m17 24c-1.66 0-3 1.34-3 3 .0034 1.27.804 2.4 2 2.82v2.18h2l-.5-1 .5-1v-.18c1.2-.423 2-1.55 2-2.82 0-1.66-1.34-3-3-3zm8 0c-1.66 0-3 1.34-3 3 .0034 1.27.804 2.4 2 2.82v2.18h1l1-1h-.5l.5-1v-.18c1.2-.423 2-1.55 2-2.82 0-1.66-1.34-3-3-3zm8 0c-1.66 0-3 1.34-3 3 .0034 1.27.804 2.4 2 2.82v2.18h2l-1-1h1v-1.18c1.2-.423 2-1.55 2-2.82 0-1.66-1.34-3-3-3z" style="opacity:.1"/>
 <path d="m14.5 23.5v1.5h3v-1.5zm8 0v1.5h3v-1.5zm8 0v1.5h3v-1.5z" style="fill:#908e9a"/>
 <path d="m15 28v8h1l1-1-.5-.5.5-.5v-1l-.5-1 .5-1-.5-1 .5-1v-1zm8 0v6.5l.5.5h.5l1-1-.5-.5.5-.5-.5-.5.5-.5-1-1 1-1h-.5l.5-1v-1zm8 0v8l1 1 1-1-.5-.5.5-.5-1-1h1l-.5-1 .5-1-.5-.5.5-.5-1-1h1v-2z" style="fill:#d5d8d8"/>
 <path d="m16 23a3 3 0 00-3 3 3 3 0 003 3 3 3 0 003-3 3 3 0 00-3-3zm0 1a1 1 0 011 1 1 1 0 01-1 1 1 1 0 01-1-1 1 1 0 011-1z" style="fill:#58a5e9"/>
 <path d="m24 23a3 3 0 00-3 3 3 3 0 003 3 3 3 0 003-3 3 3 0 00-3-3zm0 1a1 1 0 011 1 1 1 0 01-1 1 1 1 0 01-1-1 1 1 0 011-1z" style="fill:#e64c4c"/>
 <path d="m32 23a3 3 0 00-3 3 3 3 0 003 3 3 3 0 003-3 3 3 0 00-3-3zm0 1a1 1 0 011 1 1 1 0 01-1 1 1 1 0 01-1-1 1 1 0 011-1z" style="fill:#b662c0"/>
 <path d="m13.5 20c-.277 0-.5.223-.5.5v1c0 .277.223.5.5.5h5c.277 0 .5-.223.5-.5v-1c0-.277-.223-.5-.5-.5zm8 0c-.277 0-.5.223-.5.5v1c0 .277.223.5.5.5h5c.277 0 .5-.223.5-.5v-1c0-.277-.223-.5-.5-.5zm8 0c-.277 0-.5.223-.5.5v1c0 .277.223.5.5.5h5c.277 0 .5-.223.5-.5v-1c0-.277-.223-.5-.5-.5z" style="fill:#ebebeb"/>
</svg>
