<svg xmlns="http://www.w3.org/2000/svg" viewBox="0 0 48 48">
 <defs>
  <linearGradient id="linearGradient3764" x1="1" x2="47" gradientUnits="userSpaceOnUse" gradientTransform="matrix(0,-1,1,0,-1.5e-6,47.999998)">
   <stop style="stop-color:#e4e4e4;stop-opacity:1"/>
   <stop offset="1" style="stop-color:#eee;stop-opacity:1"/>
  </linearGradient>
 </defs>
 <g>
  <path d="m 36.31 5 c 5.859 4.062 9.688 10.831 9.688 18.5 c 0 12.426 -10.07 22.5 -22.5 22.5 c -7.669 0 -14.438 -3.828 -18.5 -9.688 c 1.037 1.822 2.306 3.499 3.781 4.969 c 4.085 3.712 9.514 5.969 15.469 5.969 c 12.703 0 23 -10.298 23 -23 c 0 -5.954 -2.256 -11.384 -5.969 -15.469 c -1.469 -1.475 -3.147 -2.744 -4.969 -3.781 z m 4.969 3.781 c 3.854 4.113 6.219 9.637 6.219 15.719 c 0 12.703 -10.297 23 -23 23 c -6.081 0 -11.606 -2.364 -15.719 -6.219 c 4.16 4.144 9.883 6.719 16.219 6.719 c 12.703 0 23 -10.298 23 -23 c 0 -6.335 -2.575 -12.06 -6.719 -16.219 z" style="opacity:0.05"/>
  <path d="m 41.28 8.781 c 3.712 4.085 5.969 9.514 5.969 15.469 c 0 12.703 -10.297 23 -23 23 c -5.954 0 -11.384 -2.256 -15.469 -5.969 c 4.113 3.854 9.637 6.219 15.719 6.219 c 12.703 0 23 -10.298 23 -23 c 0 -6.081 -2.364 -11.606 -6.219 -15.719 z" style="opacity:0.1"/>
  <path d="m 31.25 2.375 c 8.615 3.154 14.75 11.417 14.75 21.13 c 0 12.426 -10.07 22.5 -22.5 22.5 c -9.708 0 -17.971 -6.135 -21.12 -14.75 a 23 23 0 0 0 44.875 -7 a 23 23 0 0 0 -16 -21.875 z" style="opacity:0.2"/>
 </g>
 <g>
  <path d="m 24 1 c 12.703 0 23 10.297 23 23 c 0 12.703 -10.297 23 -23 23 -12.703 0 -23 -10.297 -23 -23 0 -12.703 10.297 -23 23 -23 z" style="fill:url(#linearGradient3764);fill-opacity:1"/>
 </g>
 <g>
  <g>
   <g transform="translate(1,1)">
    <g style="opacity:0.1">
     <!-- color: #eeeeee -->
     <g>
      <path d="M 25 10 A 15 15 0 0 0 10 25 A 15 15 0 0 0 25 40 A 15 15 0 0 0 40 25 A 15 15 0 0 0 25 10 z M 25 12 A 13 13 0 0 1 38 25 A 13 13 0 0 1 25 38 A 13 13 0 0 1 12.359 27.961 L 16.996 21 L 12.639 21 A 13 13 0 0 1 25 12 z M 29.18 15.998 L 29.18 16 C 26.52 16 24.359 18.16 24.359 20.82 C 24.359 21.652 24.571 22.437 24.938 23.12 L 24.938 23.13 L 16 32.07 L 16 34 L 17.926 34 L 18.566 33.36 L 18.566 32.07 L 19.855 32.07 L 20.496 31.43 L 21.781 31.43 L 22.424 30.789 L 22.424 29.504 L 23.06 28.859 L 24.354 28.859 L 24.354 27.574 L 26.865 25.06 L 26.885 25.06 C 27.569 25.434 28.35 25.645 29.18 25.645 C 31.842 25.645 33.998 23.484 33.998 20.82 L 33.998 20.801 C 33.986 18.14 31.842 15.998 29.18 15.998 z M 30.15 18.568 C 30.861 18.568 31.435 19.15 31.439 19.857 C 31.439 20.564 30.865 21.14 30.15 21.14 C 29.443 21.14 28.869 20.568 28.869 19.857 C 28.869 19.15 29.439 18.568 30.15 18.568 z" transform="translate(-1,-1)" style="fill:#000;fill-opacity:1;stroke:none;fill-rule:nonzero"/>
     </g>
    </g>
   </g>
  </g>
 </g>
 <g>
  <g>
   <!-- color: #eeeeee -->
  </g>
 </g>
 <g>
  <path d="m 40.03 7.531 c 3.712 4.084 5.969 9.514 5.969 15.469 0 12.703 -10.297 23 -23 23 c -5.954 0 -11.384 -2.256 -15.469 -5.969 4.178 4.291 10.01 6.969 16.469 6.969 c 12.703 0 23 -10.298 23 -23 0 -6.462 -2.677 -12.291 -6.969 -16.469 z" style="opacity:0.1"/>
 </g>
 <g>
  <path d="m 9 24 c 0 8.284 6.716 15 15 15 0.5 -0.625 0.5 -1.292 0 -2 -7.18 0 -13 -5.82 -13 -13 z" style="fill:#8fc684;opacity:1;fill-opacity:1;stroke:none"/>
  <path d="m 28.18 15 c -2.66 0 -4.82 2.156 -4.82 4.82 c 0 0.832 0.211 1.617 0.578 2.301 c 0 0.004 0 0.008 0 0.012 l -8.938 8.938 l 0 1.93 l 1.926 0 l 0.641 -0.641 l 0 -1.289 l 1.289 0 l 0.641 -0.641 l 1.285 0 l 0.641 -0.641 l 0 -1.285 l 0.641 -0.645 l 1.289 0 l 0 -1.285 l 2.512 -2.512 c 0.004 0 0.008 0 0.02 0 c 0.684 0.371 1.465 0.582 2.297 0.582 c 2.66 0 4.816 -2.16 4.816 -4.824 l 0 -0.02 c -0.012 -2.66 -2.156 -4.801 -4.816 -4.801 m 0.973 2.57 c 0.707 0 1.281 0.578 1.285 1.289 c 0 0.707 -0.574 1.285 -1.285 1.285 c -0.711 0 -1.285 -0.574 -1.285 -1.285 c 0 -0.711 0.57 -1.289 1.285 -1.289 m 0 0" style="fill:#2d2d2d;fill-opacity:1;stroke:none;fill-rule:nonzero"/>
  <path d="M 24 9 A 15 15 0 0 0 9 24 l 2 0 A 13 13 0 0 1 24 11 13 13 0 0 1 37 24 13 13 0 0 1 24 37 l 0 2 A 15 15 0 0 0 39 24 15 15 0 0 0 24 9" style="fill:#36a321;opacity:1;fill-opacity:1;stroke:none"/>
  <path d="M 9.559 20 A 15 15 0 0 0 9 24 15 15 0 0 0 9.916 29.13 L 16 20 9.559 20" style="fill:#36a321;opacity:1;fill-opacity:1;stroke:none"/>
 </g>
</svg>
