<svg version="1.1" viewBox="0 0 48 48" xmlns="http://www.w3.org/2000/svg">
 <defs>
  <linearGradient id="bg" x2="0" y1="47" y2="1" gradientUnits="userSpaceOnUse">
   <stop style="stop-color:#8fb87a" offset="0"/>
   <stop style="stop-color:#9abf87" offset="1"/>
  </linearGradient>
 </defs>
 <path d="m36.31 5c5.859 4.062 9.688 10.831 9.688 18.5 0 12.426-10.07 22.5-22.5 22.5-7.669 0-14.438-3.828-18.5-9.688 1.037 1.822 2.306 3.499 3.781 4.969 4.085 3.712 9.514 5.969 15.469 5.969 12.703 0 23-10.298 23-23 0-5.954-2.256-11.384-5.969-15.469-1.469-1.475-3.147-2.744-4.969-3.781zm4.969 3.781c3.854 4.113 6.219 9.637 6.219 15.719 0 12.703-10.297 23-23 23-6.081 0-11.606-2.364-15.719-6.219 4.16 4.144 9.883 6.719 16.219 6.719 12.703 0 23-10.298 23-23 0-6.335-2.575-12.06-6.719-16.219z" style="opacity:.05"/>
 <path d="m41.28 8.781c3.712 4.085 5.969 9.514 5.969 15.469 0 12.703-10.297 23-23 23-5.954 0-11.384-2.256-15.469-5.969 4.113 3.854 9.637 6.219 15.719 6.219 12.703 0 23-10.298 23-23 0-6.081-2.364-11.606-6.219-15.719z" style="opacity:.1"/>
 <path d="m31.25 2.375c8.615 3.154 14.75 11.417 14.75 21.13 0 12.426-10.07 22.5-22.5 22.5-9.708 0-17.971-6.135-21.12-14.75a23 23 0 0 0 44.875-7 23 23 0 0 0-16-21.875z" style="opacity:.2"/>
 <path d="m24 1c12.703 0 23 10.297 23 23s-10.297 23-23 23-23-10.297-23-23 10.297-23 23-23z" style="fill:url(#bg)"/>
 <path d="m40.03 7.531c3.712 4.084 5.969 9.514 5.969 15.469 0 12.703-10.297 23-23 23-5.954 0-11.384-2.256-15.469-5.969 4.178 4.291 10.01 6.969 16.469 6.969 12.703 0 23-10.298 23-23 0-6.462-2.677-12.291-6.969-16.469z" style="opacity:.1"/>
 <path d="m13 15v19.5c0 0.277 0.223 0.5 0.5 0.5h1.8418c0.82384 2.3301 3.046 4 5.6582 4s4.8344-1.6699 5.6582-4h9.8418c0.277 0 0.5-0.223 0.5-0.5v-19c0-0.277-0.223-0.5-0.5-0.5z" style="opacity:.1"/>
 <rect x="12" y="14" width="24" height="20" ry=".5" style="fill:#f9f9f9"/>
 <path d="m13 15v8l22 6v-14z" style="fill:#c6c8f1"/>
 <path d="m27 17c-2 0-5 1-5 1.5s1 0.5 1 0.5h4c2 0 3-1.04 3-1.5 0-0.5-1-0.5-1-0.5zm3 3c-0.552 0-2 0.54-2 1s2.448 2 3 2 2-1.54 2-2-2.448-1-3-1zm-10 1c-3 0-6.421 1.665-7 2v10l22 2e-3v-4.002c-0.297-0.675-4-3-7-3s-1-2-3-4c-1-1-2-1-5-1z" style="fill:#6bb847"/>
 <path d="m21 27-5.916 7h11.832c0.054603-0.32533 0.083984-0.65915 0.083984-1 0-3.3137-2.6863-6-6-6z" style="opacity:.1"/>
 <path d="m26 32c0 3.3137-2.6863 6-6 6s-6-2.6863-6-6 2.6863-6 6-6 6 2.6863 6 6z" style="fill:#666"/>
 <path d="m25 32c0 2.7614-2.2386 5-5 5s-5-2.2386-5-5 2.2386-5 5-5 5 2.2386 5 5z" style="fill:#fafafa"/>
 <path d="m20 27c-2.7614 0-5 2.2386-5 5 0 1.6361 0.78523 3.0878 2 4-0.62743-0.83556-1-1.8747-1-3 0-2.7614 2.2386-5 5-5 1.1253 0 2.1644 0.37257 3 1-0.91218-1.2148-2.3639-2-4-2zm4 3-3.3262 2.0586-0.62118 0.62308-2.0527 3.3183 3.2969-2.041 2e-3 -2e-3c0.30804-0.09661 0.55269-0.33767 0.65234-0.64453z" style="opacity:.1"/>
 <path d="m23 29-2.292 3.707-1.414-1.414z" style="fill:#f76e6e"/>
 <path d="m17 35 2.292-3.707 1.414 1.414z" style="fill:#8c8cca"/>
 <path d="m21 32c0 0.55264-0.448 0.99997-1 0.99997s-1-0.44732-1-0.99997 0.448-0.99997 1-0.99997 1 0.44732 1 0.99997z" style="fill:#666"/>
</svg>
