<svg xmlns="http://www.w3.org/2000/svg" viewBox="0 0 48 48">
 <defs>
  <linearGradient id="linearGradient3764" x1="1" x2="47" gradientUnits="userSpaceOnUse" gradientTransform="matrix(0,-1,1,0,-1.5e-6,47.999998)">
   <stop style="stop-color:#facb50;stop-opacity:1"/>
   <stop offset="1" style="stop-color:#fbd163;stop-opacity:1"/>
  </linearGradient>
 </defs>
 <g>
  <path d="m 36.31 5 c 5.859 4.062 9.688 10.831 9.688 18.5 c 0 12.426 -10.07 22.5 -22.5 22.5 c -7.669 0 -14.438 -3.828 -18.5 -9.688 c 1.037 1.822 2.306 3.499 3.781 4.969 c 4.085 3.712 9.514 5.969 15.469 5.969 c 12.703 0 23 -10.298 23 -23 c 0 -5.954 -2.256 -11.384 -5.969 -15.469 c -1.469 -1.475 -3.147 -2.744 -4.969 -3.781 z m 4.969 3.781 c 3.854 4.113 6.219 9.637 6.219 15.719 c 0 12.703 -10.297 23 -23 23 c -6.081 0 -11.606 -2.364 -15.719 -6.219 c 4.16 4.144 9.883 6.719 16.219 6.719 c 12.703 0 23 -10.298 23 -23 c 0 -6.335 -2.575 -12.06 -6.719 -16.219 z" style="opacity:0.05"/>
  <path d="m 41.28 8.781 c 3.712 4.085 5.969 9.514 5.969 15.469 c 0 12.703 -10.297 23 -23 23 c -5.954 0 -11.384 -2.256 -15.469 -5.969 c 4.113 3.854 9.637 6.219 15.719 6.219 c 12.703 0 23 -10.298 23 -23 c 0 -6.081 -2.364 -11.606 -6.219 -15.719 z" style="opacity:0.1"/>
  <path d="m 31.25 2.375 c 8.615 3.154 14.75 11.417 14.75 21.13 c 0 12.426 -10.07 22.5 -22.5 22.5 c -9.708 0 -17.971 -6.135 -21.12 -14.75 a 23 23 0 0 0 44.875 -7 a 23 23 0 0 0 -16 -21.875 z" style="opacity:0.2"/>
 </g>
 <g>
  <path d="m 24 1 c 12.703 0 23 10.297 23 23 c 0 12.703 -10.297 23 -23 23 -12.703 0 -23 -10.297 -23 -23 0 -12.703 10.297 -23 23 -23 z" style="fill:url(#linearGradient3764);fill-opacity:1"/>
 </g>
 <g>
  <path d="m 40.03 7.531 c 3.712 4.084 5.969 9.514 5.969 15.469 0 12.703 -10.297 23 -23 23 c -5.954 0 -11.384 -2.256 -15.469 -5.969 4.178 4.291 10.01 6.969 16.469 6.969 c 12.703 0 23 -10.298 23 -23 0 -6.462 -2.677 -12.291 -6.969 -16.469 z" style="opacity:0.1"/>
 </g>
 <path d="m 33.865 13.761 c -0.921 -0.85 -2.339 -0.776 -3.171 0.17 -0.829 0.946 -0.755 2.402 0.167 3.253 0.921 0.85 2.342 0.772 3.171 -0.17 0.829 -0.946 0.755 -2.399 -0.167 -3.249 m 3.77 5.34 c -0.553 -0.51 -1.534 -0.315 -2.2 0.443 l -1.804 2.052 -2.062 -1.906 c 0.213 -0.524 0.099 -1.148 -0.34 -1.552 l -1.998 -1.846 c -0.436 -0.404 -1.056 -0.457 -1.541 -0.184 l -3.061 -2.828 c -0.553 -0.514 -1.538 -0.312 -2.204 0.446 l -2.402 2.735 c -0.666 0.758 -0.758 1.782 -0.202 2.293 0.553 0.51 1.538 0.315 2.204 -0.443 l 1.8 -2.052 2 1.846 -8.575 9.78 -2.686 -2.466 c -0.783 -0.719 -1.814 -0.85 -2.307 -0.291 -0.493 0.56 -0.262 1.591 0.524 2.31 1.222 1.123 2.275 2.091 3.487 3.203 0.677 0.624 1.747 0.51 2.413 -0.252 l 3.178 -3.635 c 1.75 1.633 2.728 2.509 4.482 4.117 l 0.446 4.33 c 0.11 1.07 0.794 1.867 1.538 1.789 0.741 -0.078 1.251 -1.01 1.141 -2.076 l -0.45 -4.348 c -0.053 -0.712 -0.376 -1.265 -0.85 -1.719 l -2.505 -2.3 4.167 -4.748 3 2.771 c 0.553 0.51 1.534 0.315 2.2 -0.443 l 2.402 -2.739 c 0.666 -0.758 0.755 -1.779 0.202 -2.293 z" style="fill:#000;fill-opacity:0.098"/>
 <path d="m 32.866 12.762 c -0.921 -0.85 -2.339 -0.776 -3.171 0.17 -0.829 0.946 -0.755 2.402 0.167 3.253 0.921 0.85 2.342 0.772 3.171 -0.17 0.829 -0.946 0.755 -2.399 -0.167 -3.249 m 3.77 5.34 c -0.553 -0.51 -1.534 -0.315 -2.2 0.443 l -1.804 2.052 -2.062 -1.906 c 0.213 -0.524 0.099 -1.148 -0.34 -1.552 l -1.998 -1.846 c -0.436 -0.404 -1.056 -0.457 -1.541 -0.184 l -3.061 -2.828 c -0.553 -0.514 -1.538 -0.312 -2.204 0.446 l -2.402 2.735 c -0.666 0.758 -0.758 1.782 -0.202 2.293 0.553 0.51 1.538 0.315 2.204 -0.443 l 1.8 -2.052 2 1.846 -8.575 9.78 -2.686 -2.466 c -0.783 -0.719 -1.814 -0.85 -2.307 -0.291 -0.493 0.56 -0.262 1.591 0.524 2.31 1.222 1.123 2.275 2.091 3.487 3.203 0.677 0.624 1.747 0.51 2.413 -0.252 l 3.178 -3.635 c 1.75 1.633 2.728 2.509 4.482 4.117 l 0.446 4.33 c 0.11 1.07 0.794 1.867 1.538 1.789 0.741 -0.078 1.251 -1.01 1.141 -2.076 l -0.45 -4.348 c -0.053 -0.712 -0.376 -1.265 -0.85 -1.719 l -2.505 -2.3 4.167 -4.748 3 2.771 c 0.553 0.51 1.534 0.315 2.2 -0.443 l 2.402 -2.739 c 0.666 -0.758 0.755 -1.779 0.202 -2.293 z" style="fill:#373737;fill-opacity:1"/>
</svg>
