<svg version="1.1" viewBox="0 0 48 48" xmlns="http://www.w3.org/2000/svg">
 <defs>
  <linearGradient id="bg" x2="0" y1="1" y2="47" gradientUnits="userSpaceOnUse">
   <stop style="stop-color:#61b735" offset="0"/>
   <stop style="stop-color:#58a730" offset="1"/>
  </linearGradient>
 </defs>
 <path d="m36.31 5c5.859 4.062 9.688 10.831 9.688 18.5 0 12.426-10.07 22.5-22.5 22.5-7.669 0-14.438-3.828-18.5-9.688 1.037 1.822 2.306 3.499 3.781 4.969 4.085 3.712 9.514 5.969 15.469 5.969 12.703 0 23-10.298 23-23 0-5.954-2.256-11.384-5.969-15.469-1.469-1.475-3.147-2.744-4.969-3.781zm4.969 3.781c3.854 4.113 6.219 9.637 6.219 15.719 0 12.703-10.297 23-23 23-6.081 0-11.606-2.364-15.719-6.219 4.16 4.144 9.883 6.719 16.219 6.719 12.703 0 23-10.298 23-23 0-6.335-2.575-12.06-6.719-16.219z" style="opacity:.05"/>
 <path d="m41.28 8.781c3.712 4.085 5.969 9.514 5.969 15.469 0 12.703-10.297 23-23 23-5.954 0-11.384-2.256-15.469-5.969 4.113 3.854 9.637 6.219 15.719 6.219 12.703 0 23-10.298 23-23 0-6.081-2.364-11.606-6.219-15.719z" style="opacity:.1"/>
 <path d="m31.25 2.375c8.615 3.154 14.75 11.417 14.75 21.13 0 12.426-10.07 22.5-22.5 22.5-9.708 0-17.971-6.135-21.12-14.75a23 23 0 0 0 44.875-7 23 23 0 0 0-16-21.875z" style="opacity:.2"/>
 <circle cx="24" cy="24" r="23" style="fill:url(#bg)"/>
 <path d="m14.947 24h-1.4473c-0.277 0-0.5 0.223-0.5 0.5s0.223 0.5 0.5 0.5h1.4746l-0.61523 1.541c-0.26302 0.06678-0.41563 0.33263-0.3418 0.59375 0.07384 0.26112 0.34636 0.41639 0.60938 0.34961l3.3731 6.9648v3.5508h4c0.46637 0.29903 0.946 1 1.5 1h2.9004c0.554 0 1.2011-0.61518 1.5996-1h4v-3.877c1.848-1.9644 2.8984-3.7705 2.9844-6.7383l0.39062 0.09961c0.26302 0.06678 0.53358-0.09044 0.60742-0.35156s-0.07878-0.52502-0.3418-0.5918l-0.62891-0.16016c0.0047-0.50052 0.01306-0.96563 0.02734-1.3809h1.4629c0.277 0 0.5-0.223 0.5-0.5s-0.223-0.5-0.5-0.5h-1.416c0.03249-0.53379 0.0678-1.0351 0.11523-1.4297l0.43945-0.11133c0.26302-0.06678 0.41563-0.33068 0.3418-0.5918-0.07384-0.26112-0.34441-0.41834-0.60742-0.35156l-0.0098 2e-3c0.07481-0.38382 0.15299-0.71645 0.23438-1.0176 0.59853-2.2146 1.4004-4.5 1.4004-6.5 0-0.55226-0.44774-1-1-1z" style="opacity:.1"/>
 <path d="m40.03 7.531c3.712 4.084 5.969 9.514 5.969 15.469 0 12.703-10.297 23-23 23-5.954 0-11.384-2.256-15.469-5.969 4.178 4.291 10.01 6.969 16.469 6.969 12.703 0 23-10.298 23-23 0-6.462-2.677-12.291-6.969-16.469z" style="opacity:.1"/>
 <path d="m13 12c-0.55226 0-1 0.44774-1 1 0 2 0.80573 4.3684 1.4 6.5 0.31168 1.118 0.6 2.4999 0.6 5.498 0 6.002 3.6784 9.8722 7 12.002 0.46637 0.29903 0.946 1 1.5 1h2.9004c0.554 0 1.2011-0.61518 1.5996-1 4.4269-4.2745 7-6 7-11 0-4 0.29681-5.3782 0.6-6.5 0.59853-2.2146 1.4-4.5 1.4-6.5 0-0.55226-0.44774-1-1-1-2.5341 0-4.7404 0.92393-7.2 1.7-1.2232-0.41348-2.5048-0.6986-3.8-0.7s-2.5725 0.28664-3.8 0.7c-2.4332-0.61413-4.5922-1.7-7.2-1.7z" style="fill:#87512b"/>
 <path d="m13 13c0 2 0.93731 4.4836 1.5 6.5 1.2655-2.2274 3.1046-3.8417 5.5-4.75-2.4924-0.65938-5.0001-1.75-7-1.75zm22 0c-1.9999 0-4.5076 1.0906-7 1.75 2.3954 0.9083 4.2345 2.5226 5.5 4.75 0.56269-2.0164 1.5-4.5 1.5-6.5zm-16 12c-0.6349 8.95e-4 -1.2005 0.40141-1.4121 1h-0.58789c-0.554 0-1 0.446-1 1v1c0 3 5.446 9 6 9h4c0.554 0 6-6 6-9v-1c0-0.554-0.446-1-1-1h-0.58789c-0.21163-0.59859-0.77721-0.9991-1.4121-1-0.6349 8.95e-4 -1.2005 0.40141-1.4121 1h-7.1758c-0.21163-0.59859-0.77721-0.9991-1.4121-1z" style="opacity:.1"/>
 <rect x="17" y="26" width="14" height="10" style="fill:#3d3d3d"/>
 <path d="m18.572 17.328c-0.3072 0.2432-0.51317 0.60158-0.55664 1.0137 0.1283 1.47 1.0554 2.7499 2.4121 3.3301 0.3072-0.2432 0.51317-0.60158 0.55664-1.0137-0.1283-1.47-1.0554-2.7499-2.4121-3.3301zm10.855 0c-1.3567 0.58016-2.2838 1.8601-2.4121 3.3301 0.04347 0.41209 0.24944 0.77047 0.55664 1.0137 1.3567-0.58016 2.2838-1.8601 2.4121-3.3301-0.04347-0.41209-0.24944-0.77047-0.55664-1.0137zm-15.949 3.1719c-0.21032 0.01037-0.40095 0.15308-0.46094 0.36523-0.07384 0.26112 0.07878 0.52502 0.3418 0.5918l6.0156 1.5273c0.03288 0.0083 0.06492 0.01402 0.09766 0.01563h-6.9727c-0.277 0-0.5 0.223-0.5 0.5s0.223 0.5 0.5 0.5h6.9727c-0.03273 0.0016-0.06478 0.0053-0.09766 0.01367l-6.0156 1.5273c-0.26302 0.06678-0.41563 0.33068-0.3418 0.5918 0.07384 0.26112 0.34636 0.41834 0.60938 0.35156l6.0137-1.5273c0.26302-0.066782 0.41564-0.33068 0.3418-0.5918-0.059992-0.21216-0.25062-0.35486-0.46094-0.36523 0.2668-0.01135 0.47852-0.23031 0.47852-0.5s-0.21172-0.48865-0.47852-0.5c0.21032-0.01037 0.40095-0.15503 0.46094-0.36719 0.07384-0.26112-0.07878-0.52502-0.3418-0.5918l-6.0137-1.5254c-0.04931-0.01252-0.0999-0.01802-0.14844-0.01563zm20.994 0c-0.03273 0.0016-0.06478 0.0073-0.09766 0.01563l-6.0156 1.5273c-0.26302 0.06678-0.41563 0.33068-0.3418 0.5918 0.05999 0.21216 0.25062 0.35486 0.46094 0.36523-0.26628 0.0119-0.47656 0.23068-0.47656 0.5s0.21029 0.4881 0.47656 0.5c-0.21032 0.01037-0.39899 0.15308-0.45898 0.36523-0.07384 0.26112 0.07683 0.52502 0.33984 0.5918l6.0156 1.5273c0.26302 0.06678 0.53358-0.09044 0.60742-0.35156 0.07384-0.26112-0.07878-0.52502-0.3418-0.5918l-6.0137-1.5273c-0.03288-0.0083-0.06688-0.01207-0.09961-0.01367h6.9746c0.277 0 0.5-0.223 0.5-0.5s-0.223-0.5-0.5-0.5h-6.9746c0.03273-0.0016 0.06673-0.0073 0.09961-0.01563l6.0137-1.5273c0.26302-0.06678 0.41563-0.33068 0.3418-0.5918-0.06461-0.22848-0.28065-0.37645-0.50977-0.36523zm-11.473 1.5c-0.554 0-1 0.09433-1 0.69922 0 1 1.5 2.3008 2 2.3008s2-1.3008 2-2.3008c0-0.49551-0.446-0.69922-1-0.69922z" style="fill:#ebebeb"/>
 <ellipse cx="28.5" cy="19.5" rx=".5" ry="1" style="fill:#c0c81f"/>
 <ellipse cx="19.5" cy="19.5" rx=".5" ry="1" style="fill:#c0c81f"/>
 <path d="m18.652 27c-0.08861 0.14926-0.15234 0.31383-0.15234 0.5 0 2 1 4 1 4s1-2 1-4c0-0.18617-0.06374-0.35074-0.15234-0.5zm10 0c-0.08861 0.14926-0.15234 0.31383-0.15234 0.5 0 2 1 4 1 4s1-2 1-4c0-0.18617-0.06374-0.35074-0.15234-0.5zm-5.6523 8.5s-0.33007 0.69423-0.44727 1.5h0.89453c-0.11719-0.80577-0.44727-1.5-0.44727-1.5zm3 0s-0.33007 0.69423-0.44727 1.5h0.89453c-0.11719-0.80577-0.44727-1.5-0.44727-1.5z" style="opacity:.1"/>
 <path d="m19 26c-0.55228 0-1 0.44772-1 1 0 2 1 4 1 4s1-2 1-4c0-0.55228-0.44772-1-1-1zm10 0c-0.55228 0-1 0.44772-1 1 0 2 1 4 1 4s1-2 1-4c0-0.55228-0.44772-1-1-1zm-6.5 9s-0.5 1-0.5 2h1c0-1-0.5-2-0.5-2zm3 0s-0.5 1-0.5 2h1c0-1-0.5-2-0.5-2z" style="fill:#ebebeb"/>
 <path d="m21.75 29-0.75 0.66602 1.5 1.334-1.5 1.334 0.75 0.66602c0.75-0.6667 1.5-1.3333 2.25-2-0.75-0.6667-1.5-1.3333-2.25-2zm2.25 4v1h4v-1z" style="fill:#f9f9f9"/>
</svg>
