<svg version="1.1" viewBox="0 0 48 48" xmlns="http://www.w3.org/2000/svg">
 <defs>
  <linearGradient id="bg" x2="0" y1="1" y2="47" gradientUnits="userSpaceOnUse">
   <stop style="stop-color:#61b735" offset="0"/>
   <stop style="stop-color:#58a730" offset="1"/>
  </linearGradient>
 </defs>
 <path d="m36.3 5c5.86 4.06 9.69 10.8 9.69 18.5 0 12.4-10.1 22.5-22.5 22.5-7.67 0-14.4-3.83-18.5-9.69 1.04 1.82 2.31 3.5 3.78 4.97 4.08 3.71 9.51 5.97 15.5 5.97 12.7 0 23-10.3 23-23 0-5.95-2.26-11.4-5.97-15.5-1.47-1.48-3.15-2.74-4.97-3.78zm4.97 3.78c3.85 4.11 6.22 9.64 6.22 15.7 0 12.7-10.3 23-23 23-6.08 0-11.6-2.36-15.7-6.22 4.16 4.14 9.88 6.72 16.2 6.72 12.7 0 23-10.3 23-23 0-6.34-2.58-12.1-6.72-16.2z" style="opacity:.05"/>
 <path d="m41.3 8.78c3.71 4.08 5.97 9.51 5.97 15.5 0 12.7-10.3 23-23 23-5.95 0-11.4-2.26-15.5-5.97 4.11 3.85 9.64 6.22 15.7 6.22 12.7 0 23-10.3 23-23 0-6.08-2.36-11.6-6.22-15.7z" style="opacity:.1"/>
 <path d="m31.2 2.38c8.62 3.15 14.8 11.4 14.8 21.1 0 12.4-10.1 22.5-22.5 22.5-9.71 0-18-6.14-21.1-14.8a23 23 0 0 0 44.9-7 23 23 0 0 0-16-21.9z" style="opacity:.2"/>
 <circle cx="24" cy="24" r="23" style="fill:url(#bg)"/>
 <path d="m14.9 24h-1.45c-0.277 0-0.5 0.223-0.5 0.5s0.223 0.5 0.5 0.5h1.47l-0.615 1.54c-0.263 0.0668-0.416 0.333-0.342 0.594 0.0738 0.261 0.346 0.416 0.609 0.35l3.37 6.96v3.55h4c0.466 0.299 0.946 1 1.5 1h2.9c0.554 0 1.2-0.615 1.6-1h4v-3.88c1.85-1.96 2.9-3.77 2.98-6.74l0.391 0.0996c0.263 0.0668 0.534-0.0904 0.607-0.352s-0.0788-0.525-0.342-0.592l-0.629-0.16c0.0047-0.501 0.0131-0.966 0.0273-1.38h1.46c0.277 0 0.5-0.223 0.5-0.5s-0.223-0.5-0.5-0.5h-1.42c0.0325-0.534 0.0678-1.04 0.115-1.43l0.439-0.111c0.263-0.0668 0.416-0.331 0.342-0.592-0.0738-0.261-0.344-0.418-0.607-0.352l-0.0098 2e-3c0.0748-0.384 0.153-0.716 0.234-1.02 0.599-2.21 1.4-4.5 1.4-6.5 0-0.552-0.448-1-1-1z" style="opacity:.1"/>
 <path d="m40 7.53c3.71 4.08 5.97 9.51 5.97 15.5 0 12.7-10.3 23-23 23-5.95 0-11.4-2.26-15.5-5.97 4.18 4.29 10 6.97 16.5 6.97 12.7 0 23-10.3 23-23 0-6.46-2.68-12.3-6.97-16.5z" style="opacity:.1"/>
 <path d="m13 12c-0.552 0-1 0.448-1 1 0 2 0.806 4.37 1.4 6.5 0.312 1.12 0.6 2.5 0.6 5.5 0 6 3.68 9.87 7 12 0.466 0.299 0.946 1 1.5 1h2.9c0.554 0 1.2-0.615 1.6-1 4.43-4.27 7-6 7-11 0-4 0.297-5.38 0.6-6.5 0.599-2.21 1.4-4.5 1.4-6.5 0-0.552-0.448-1-1-1-2.53 0-4.74 0.924-7.2 1.7-1.22-0.413-2.5-0.699-3.8-0.7s-2.57 0.287-3.8 0.7c-2.43-0.614-4.59-1.7-7.2-1.7z" style="fill:#87512b"/>
 <path d="m13 13c0 2 0.937 4.48 1.5 6.5 1.27-2.23 3.1-3.84 5.5-4.75-2.49-0.659-5-1.75-7-1.75zm22 0c-2 0-4.51 1.09-7 1.75 2.4 0.908 4.23 2.52 5.5 4.75 0.563-2.02 1.5-4.5 1.5-6.5zm-16 12c-0.635 8.95e-4 -1.2 0.401-1.41 1h-0.588c-0.554 0-1 0.446-1 1v1c0 3 5.45 9 6 9h4c0.554 0 6-6 6-9v-1c0-0.554-0.446-1-1-1h-0.588c-0.212-0.599-0.777-0.999-1.41-1-0.635 8.95e-4 -1.2 0.401-1.41 1h-7.18c-0.212-0.599-0.777-0.999-1.41-1z" style="opacity:.1"/>
 <path d="m17 26h14v10h-14z" style="fill:#474747"/>
 <path d="m18.6 17.3c-0.307 0.243-0.513 0.602-0.557 1.01 0.128 1.47 1.06 2.75 2.41 3.33 0.307-0.243 0.513-0.602 0.557-1.01-0.128-1.47-1.06-2.75-2.41-3.33zm10.9 0c-1.36 0.58-2.28 1.86-2.41 3.33 0.0435 0.412 0.249 0.77 0.557 1.01 1.36-0.58 2.28-1.86 2.41-3.33-0.0435-0.412-0.249-0.77-0.557-1.01zm-15.9 3.17c-0.21 0.0104-0.401 0.153-0.461 0.365-0.0738 0.261 0.0788 0.525 0.342 0.592l6.02 1.53c0.0329 0.0083 0.0649 0.014 0.0977 0.0156h-6.97c-0.277 0-0.5 0.223-0.5 0.5s0.223 0.5 0.5 0.5h6.97c-0.0327 0.0016-0.0648 0.0053-0.0977 0.0137l-6.02 1.53c-0.263 0.0668-0.416 0.331-0.342 0.592 0.0738 0.261 0.346 0.418 0.609 0.352l6.01-1.53c0.263-0.0668 0.416-0.331 0.342-0.592-0.06-0.212-0.251-0.355-0.461-0.365 0.267-0.0114 0.479-0.23 0.479-0.5s-0.212-0.489-0.479-0.5c0.21-0.0104 0.401-0.155 0.461-0.367 0.0738-0.261-0.0788-0.525-0.342-0.592l-6.01-1.53c-0.0493-0.0125-0.0999-0.018-0.148-0.0156zm21 0c-0.0327 0.0016-0.0648 0.0073-0.0977 0.0156l-6.02 1.53c-0.263 0.0668-0.416 0.331-0.342 0.592 0.06 0.212 0.251 0.355 0.461 0.365-0.266 0.0119-0.477 0.231-0.477 0.5s0.21 0.488 0.477 0.5c-0.21 0.0104-0.399 0.153-0.459 0.365-0.0738 0.261 0.0768 0.525 0.34 0.592l6.02 1.53c0.263 0.0668 0.534-0.0904 0.607-0.352s-0.0788-0.525-0.342-0.592l-6.01-1.53c-0.0329-0.0083-0.0669-0.0121-0.0996-0.0137h6.97c0.277 0 0.5-0.223 0.5-0.5s-0.223-0.5-0.5-0.5h-6.97c0.0327-0.0016 0.0667-0.0073 0.0996-0.0156l6.01-1.53c0.263-0.0668 0.416-0.331 0.342-0.592-0.0646-0.228-0.281-0.376-0.51-0.365zm-11.5 1.5c-0.554 0-1 0.0943-1 0.699 0 1 1.5 2.3 2 2.3s2-1.3 2-2.3c0-0.496-0.446-0.699-1-0.699z" style="fill:#ebebeb"/>
 <path d="m19.5 18.5a0.5 1 0 0 0-0.5 1 0.5 1 0 0 0 0.5 1 0.5 1 0 0 0 0.5-1 0.5 1 0 0 0-0.5-1zm9 0a0.5 1 0 0 0-0.5 1 0.5 1 0 0 0 0.5 1 0.5 1 0 0 0 0.5-1 0.5 1 0 0 0-0.5-1z" style="fill:#c0c81f"/>
 <path d="m18.7 27c-0.0886 0.149-0.152 0.314-0.152 0.5 0 2 1 4 1 4s1-2 1-4c0-0.186-0.0637-0.351-0.152-0.5zm10 0c-0.0886 0.149-0.152 0.314-0.152 0.5 0 2 1 4 1 4s1-2 1-4c0-0.186-0.0637-0.351-0.152-0.5zm-5.65 8.5s-0.33 0.694-0.447 1.5h0.895c-0.117-0.806-0.447-1.5-0.447-1.5zm3 0s-0.33 0.694-0.447 1.5h0.895c-0.117-0.806-0.447-1.5-0.447-1.5z" style="opacity:.1"/>
 <path d="m19 26c-0.552 0-1 0.448-1 1 0 2 1 4 1 4s1-2 1-4c0-0.552-0.448-1-1-1zm10 0c-0.552 0-1 0.448-1 1 0 2 1 4 1 4s1-2 1-4c0-0.552-0.448-1-1-1zm-6.5 9s-0.5 1-0.5 2h1c0-1-0.5-2-0.5-2zm3 0s-0.5 1-0.5 2h1c0-1-0.5-2-0.5-2z" style="fill:#ebebeb"/>
 <path d="m21.8 29-0.75 0.666 1.5 1.33-1.5 1.33 0.75 0.666c0.75-0.667 1.5-1.33 2.25-2-0.75-0.667-1.5-1.33-2.25-2zm2.25 4v1h4v-1z" style="fill:#f9f9f9"/>
</svg>
