<svg version="1.1" viewBox="0 0 48 48" xmlns="http://www.w3.org/2000/svg">
 <defs>
  <linearGradient id="bg" x1="1" x2="47" gradientTransform="matrix(0 -1 1 0 -1.5e-6 48)" gradientUnits="userSpaceOnUse">
   <stop style="stop-color:#e14f4f" offset="0"/>
   <stop style="stop-color:#e46060" offset="1"/>
  </linearGradient>
 </defs>
 <path d="m36.31 5c5.859 4.062 9.688 10.831 9.688 18.5 0 12.426-10.07 22.5-22.5 22.5-7.669 0-14.438-3.828-18.5-9.688 1.037 1.822 2.306 3.499 3.781 4.969 4.085 3.712 9.514 5.969 15.469 5.969 12.703 0 23-10.298 23-23 0-5.954-2.256-11.384-5.969-15.469-1.469-1.475-3.147-2.744-4.969-3.781zm4.969 3.781c3.854 4.113 6.219 9.637 6.219 15.719 0 12.703-10.297 23-23 23-6.081 0-11.606-2.364-15.719-6.219 4.16 4.144 9.883 6.719 16.219 6.719 12.703 0 23-10.298 23-23 0-6.335-2.575-12.06-6.719-16.219z" style="opacity:.05"/>
 <path d="m41.28 8.781c3.712 4.085 5.969 9.514 5.969 15.469 0 12.703-10.297 23-23 23-5.954 0-11.384-2.256-15.469-5.969 4.113 3.854 9.637 6.219 15.719 6.219 12.703 0 23-10.298 23-23 0-6.081-2.364-11.606-6.219-15.719z" style="opacity:.1"/>
 <path d="m31.25 2.375c8.615 3.154 14.75 11.417 14.75 21.13 0 12.426-10.07 22.5-22.5 22.5-9.708 0-17.971-6.135-21.12-14.75a23 23 0 0 0 44.875-7 23 23 0 0 0-16-21.875z" style="opacity:.2"/>
 <path d="m24 1c12.703 0 23 10.297 23 23s-10.297 23-23 23-23-10.297-23-23 10.297-23 23-23z" style="fill:url(#bg)"/>
 <g transform="translate(1,1)">
  <g style="opacity:.1">
   <path transform="translate(-1,-1)" d="m15 14v22s0 1 1 1h18s0.99609 0 0.99609-1v-3h1.4414s0.56445-0.328 0.56445-2c0-1.609-0.625-1.9961-0.625-1.9961h-1.3809v-8l-8-8z"/>
  </g>
 </g>
 <path d="m15 12s-1 0-1 1v22s0 1 1 1h18s0.996 0 0.996-1v-14.996l-8-8c-3.711-4e-3 -8.742-4e-3 -10.996-4e-3" style="fill:#f9f9f9"/>
 <path d="m19 21v1h10v-1h-10zm0 2v1h10v-1h-10zm0 2v1h10v-1h-10z" style="fill:#aaa"/>
 <path d="m34 20-8-8c-4e-3 4 0 6 0 7s0 1 1 1 4.098 8e-3 7 0" style="fill:#dedede"/>
 <path d="m19.965 28h13.773v4h-13.773" style="fill:#dd8a4c"/>
 <path d="m33 28v4h2.438s0.563-0.328 0.563-2c0-1.609-0.625-1.996-0.625-1.996h-2.371" style="fill:#e22852"/>
 <path d="m20 28-4 1.996 4 2v-4" style="fill:#e5c789"/>
 <path d="m18 28.984-2 1.016 2 1.02" style="fill:#2d2d2d"/>
 <path d="m40.03 7.531c3.712 4.084 5.969 9.514 5.969 15.469 0 12.703-10.297 23-23 23-5.954 0-11.384-2.256-15.469-5.969 4.178 4.291 10.01 6.969 16.469 6.969 12.703 0 23-10.298 23-23 0-6.462-2.677-12.291-6.969-16.469z" style="opacity:.1"/>
</svg>
