<svg xmlns="http://www.w3.org/2000/svg" viewBox="0 0 48 48">
 <defs>
  <linearGradient id="linearGradient3764" x1="1" x2="47" gradientUnits="userSpaceOnUse" gradientTransform="matrix(0,-1,1,0,-1.5e-6,47.999998)">
   <stop style="stop-color:#e14f4f;stop-opacity:1"/>
   <stop offset="1" style="stop-color:#e46060;stop-opacity:1"/>
  </linearGradient>
 </defs>
 <g>
  <path d="m 36.31 5 c 5.859 4.062 9.688 10.831 9.688 18.5 c 0 12.426 -10.07 22.5 -22.5 22.5 c -7.669 0 -14.438 -3.828 -18.5 -9.688 c 1.037 1.822 2.306 3.499 3.781 4.969 c 4.085 3.712 9.514 5.969 15.469 5.969 c 12.703 0 23 -10.298 23 -23 c 0 -5.954 -2.256 -11.384 -5.969 -15.469 c -1.469 -1.475 -3.147 -2.744 -4.969 -3.781 z m 4.969 3.781 c 3.854 4.113 6.219 9.637 6.219 15.719 c 0 12.703 -10.297 23 -23 23 c -6.081 0 -11.606 -2.364 -15.719 -6.219 c 4.16 4.144 9.883 6.719 16.219 6.719 c 12.703 0 23 -10.298 23 -23 c 0 -6.335 -2.575 -12.06 -6.719 -16.219 z" style="opacity:0.05"/>
  <path d="m 41.28 8.781 c 3.712 4.085 5.969 9.514 5.969 15.469 c 0 12.703 -10.297 23 -23 23 c -5.954 0 -11.384 -2.256 -15.469 -5.969 c 4.113 3.854 9.637 6.219 15.719 6.219 c 12.703 0 23 -10.298 23 -23 c 0 -6.081 -2.364 -11.606 -6.219 -15.719 z" style="opacity:0.1"/>
  <path d="m 31.25 2.375 c 8.615 3.154 14.75 11.417 14.75 21.13 c 0 12.426 -10.07 22.5 -22.5 22.5 c -9.708 0 -17.971 -6.135 -21.12 -14.75 a 23 23 0 0 0 44.875 -7 a 23 23 0 0 0 -16 -21.875 z" style="opacity:0.2"/>
 </g>
 <g>
  <path d="m 24 1 c 12.703 0 23 10.297 23 23 c 0 12.703 -10.297 23 -23 23 -12.703 0 -23 -10.297 -23 -23 0 -12.703 10.297 -23 23 -23 z" style="fill:url(#linearGradient3764);fill-opacity:1"/>
 </g>
 <g>
  <g>
   <g transform="translate(1,1)">
    <g style="opacity:0.1">
     <!-- color: #c8c8c8 -->
     <g>
      <path d="m 15 12 c 0 0 -1 0 -1 1 l 0 22 c 0 0 0 1 1 1 l 18 0 c 0 0 0.996 0 0.996 -1 l 0 -14.996 l -8 -8 c -3.711 -0.004 -8.742 -0.004 -10.996 -0.004 m 0 0.004" style="fill:#000;fill-opacity:1;stroke:none;fill-rule:nonzero"/>
      <path d="m 33 28 l 0 4 l 2.438 0 c 0 0 0.563 -0.328 0.563 -2 c 0 -1.609 -0.625 -1.996 -0.625 -1.996 l -2.371 0 m -0.004 -0.004" style="fill:#000;fill-opacity:1;stroke:none;fill-rule:nonzero"/>
     </g>
    </g>
   </g>
  </g>
 </g>
 <g>
  <g>
   <!-- color: #c8c8c8 -->
   <g>
    <g>
     <path d="m 15,12 c 0,0 -1,0 -1,1 l 0,22 c 0,0 0,1 1,1 l 18,0 c 0,0 0.996,0 0.996,-1 l 0,-14.996 -8,-8 C 22.285,12 17.254,12 15,12 m 0,0.004" style="fill:#f9f9f9;fill-opacity:1;stroke:none;fill-rule:nonzero"/>
     <path d="m 19 21 0 1 10 0 0 -1 m -10 0" style="fill:#aaa;fill-opacity:1;stroke:none;fill-rule:nonzero"/>
     <path d="m 19 23 0 1 10 0 0 -1 m -10 0" style="fill:#aaa;fill-opacity:1;stroke:none;fill-rule:nonzero"/>
     <path d="m 19 25 0 1 10 0 0 -1 m -10 0" style="fill:#aaa;fill-opacity:1;stroke:none;fill-rule:nonzero"/>
     <path d="m 34 20 -8 -8 c -0.004 4 0 6 0 7 0 1 0 1 1 1 1 0 4.098 0.008 7 0 m 0 0" style="fill:#dedede;fill-opacity:1;stroke:none;fill-rule:nonzero"/>
     <path d="m 19.965 28 13.773 0 0 4 -13.773 0 m 0 -4" style="fill:#dd8a4c;fill-opacity:1;stroke:none;fill-rule:nonzero"/>
     <path d="m 33,28 0,4 2.438,0 c 0,0 0.563,-0.328 0.563,-2 0,-1.609 -0.625,-1.996 -0.625,-1.996 l -2.371,0 M 33.001,28" style="fill:#e22852;fill-opacity:1;stroke:none;fill-rule:nonzero"/>
     <path d="m 20,28 -4,1.996 4,2 0,-4 M 20,28" style="fill:#e5c789;fill-opacity:1;stroke:none;fill-rule:nonzero"/>
     <path d="M 18,28.984 16,30 l 2,1.02 m 0,-2.035" style="fill:#2d2d2d;fill-opacity:1;stroke:none;fill-rule:nonzero"/>
    </g>
   </g>
  </g>
 </g>
 <g>
  <path d="m 40.03 7.531 c 3.712 4.084 5.969 9.514 5.969 15.469 0 12.703 -10.297 23 -23 23 c -5.954 0 -11.384 -2.256 -15.469 -5.969 4.178 4.291 10.01 6.969 16.469 6.969 c 12.703 0 23 -10.298 23 -23 0 -6.462 -2.677 -12.291 -6.969 -16.469 z" style="opacity:0.1"/>
 </g>
</svg>
