<svg version="1.1" viewBox="0 0 48 48" xmlns="http://www.w3.org/2000/svg">
 <defs>
  <linearGradient id="linearGradient3797" x2="0" y1="47" y2="1" gradientUnits="userSpaceOnUse">
   <stop style="stop-color:#3f99de" offset="0"/>
   <stop style="stop-color:#4fa1e1" offset="1"/>
  </linearGradient>
 </defs>
 <path d="m36.31 5c5.859 4.062 9.688 10.831 9.688 18.5 0 12.426-10.07 22.5-22.5 22.5-7.669 0-14.438-3.828-18.5-9.688 1.037 1.822 2.306 3.499 3.781 4.969 4.085 3.712 9.514 5.969 15.469 5.969 12.703 0 23-10.298 23-23 0-5.954-2.256-11.384-5.969-15.469-1.469-1.475-3.147-2.744-4.969-3.781zm4.969 3.781c3.854 4.113 6.219 9.637 6.219 15.719 0 12.703-10.297 23-23 23-6.081 0-11.606-2.364-15.719-6.219 4.16 4.144 9.883 6.719 16.219 6.719 12.703 0 23-10.298 23-23 0-6.335-2.575-12.06-6.719-16.219z" style="opacity:.05"/>
 <path d="m41.28 8.781c3.712 4.085 5.969 9.514 5.969 15.469 0 12.703-10.297 23-23 23-5.954 0-11.384-2.256-15.469-5.969 4.113 3.854 9.637 6.219 15.719 6.219 12.703 0 23-10.298 23-23 0-6.081-2.364-11.606-6.219-15.719z" style="opacity:.1"/>
 <path d="m31.25 2.375c8.615 3.154 14.75 11.417 14.75 21.13 0 12.426-10.07 22.5-22.5 22.5-9.708 0-17.971-6.135-21.12-14.75a23 23 0 0 0 44.875 -7 23 23 0 0 0 -16 -21.875z" style="opacity:.2"/>
 <path d="m24 1c12.703 0 23 10.297 23 23s-10.297 23-23 23-23-10.297-23-23 10.297-23 23-23z" style="fill:url(#linearGradient3797)"/>
 <path d="m40.03 7.531c3.712 4.084 5.969 9.514 5.969 15.469 0 12.703-10.297 23-23 23-5.954 0-11.384-2.256-15.469-5.969 4.178 4.291 10.01 6.969 16.469 6.969 12.703 0 23-10.298 23-23 0-6.462-2.677-12.291-6.969-16.469z" style="opacity:.1"/>
 <path d="m25 28a2 2 0 0 0 -1.73 1h3.459a2 2 0 0 0 -1.729 -1z" style="fill-opacity:.098"/>
 <path d="m25 11c-2.5 0-7 7.345-7 11.5v4.779c-1.316 1.399-2 2.721-2 2.721h2v2c0 4.155 2.845 5 7 5s7-0.845 7-5v-2h2s-0.684-1.322-2-2.721v-4.779c0-4.155-4.5-11.5-7-11.5" style="fill-opacity:.098"/>
 <path d="m24 10c2.5 0 7 7.345 7 11.5v9.5c0 4.155-2.845 5-7 5s-7-0.845-7-5v-9.5c0-4.155 4.5-11.5 7-11.5z" style="fill:#d4aa00"/>
 <path d="m24 11c2.143 0 6 6.565 6 10.4v9.4c0 3.835-2.439 4.2-6 4.2s-6-0.365-6-4.2v-9.4c0-3.835 3.857-10.4 6-10.4" style="fill:#a3653b"/>
 <path d="m25 28a2 2 0 0 0 -1.73 1h-6.27v1h6a2 2 0 0 0 2 2 2 2 0 0 0 2 -2h4v-1h-4.271a2 2 0 0 0 -1.729 -1z" style="fill-opacity:.098"/>
 <path d="m17 25h14s-2-5-7-5-7 5-7 5z" style="fill:#d3d3d3"/>
 <rect x="29" y="25" width="2" height="1" style="fill-opacity:.098"/>
 <path d="m33 29h-18s3-6 9-6 9 6 9 6z" style="fill:#ececec"/>
 <circle cx="24" cy="29" r="2" style="fill:#cc7c45"/>
</svg>
