<svg xmlns="http://www.w3.org/2000/svg" xmlns:xlink="http://www.w3.org/1999/xlink" viewBox="0 0 48 48">
 <defs>
  <linearGradient id="linearGradient4165">
   <stop style="stop-color:#b9b9b9;stop-opacity:1"/>
   <stop offset="0.5" style="stop-color:#dcdcdc;stop-opacity:1"/>
   <stop offset="1" style="stop-color:#b9b9b9;stop-opacity:1"/>
  </linearGradient>
  <linearGradient xlink:href="#linearGradient4165" id="linearGradient4262" gradientUnits="userSpaceOnUse" gradientTransform="matrix(0,-1,1,0,2e-6,47.999995)" x2="0" y1="26" y2="22"/>
  <linearGradient xlink:href="#linearGradient4165" id="linearGradient4257" gradientUnits="userSpaceOnUse" gradientTransform="matrix(0,-1,1,0,2e-6,47.999995)" x1="22" x2="26"/>
  <radialGradient id="radialGradient4211" cx="24" cy="24" r="6" gradientUnits="userSpaceOnUse" gradientTransform="matrix(1.6666667,0,0,1.6666667,-15.999999,-15.999999)">
   <stop style="stop-color:#20cbe4;stop-opacity:1"/>
   <stop offset="1" style="stop-color:#19b6cd;stop-opacity:1"/>
  </radialGradient>
  <radialGradient id="radialGradient4215" cx="24.17" cy="24.06" r="9.769" gradientTransform="matrix(1,0,0,1.0173923,0,-0.41848637)" gradientUnits="userSpaceOnUse">
   <stop style="stop-color:#b5dbef;stop-opacity:1"/>
   <stop offset="1" style="stop-color:#9bcee9;stop-opacity:1"/>
  </radialGradient>
  <linearGradient id="linearGradient4242" y1="47" x2="0" y2="1" gradientUnits="userSpaceOnUse">
   <stop style="stop-color:#303a5c;stop-opacity:1"/>
   <stop offset="1" style="stop-color:#374269;stop-opacity:1"/>
  </linearGradient>
 </defs>
 <g>
  <path d="m 36.31 5 c 5.859 4.062 9.688 10.831 9.688 18.5 c 0 12.426 -10.07 22.5 -22.5 22.5 c -7.669 0 -14.438 -3.828 -18.5 -9.688 c 1.037 1.822 2.306 3.499 3.781 4.969 c 4.085 3.712 9.514 5.969 15.469 5.969 c 12.703 0 23 -10.298 23 -23 c 0 -5.954 -2.256 -11.384 -5.969 -15.469 c -1.469 -1.475 -3.147 -2.744 -4.969 -3.781 z m 4.969 3.781 c 3.854 4.113 6.219 9.637 6.219 15.719 c 0 12.703 -10.297 23 -23 23 c -6.081 0 -11.606 -2.364 -15.719 -6.219 c 4.16 4.144 9.883 6.719 16.219 6.719 c 12.703 0 23 -10.298 23 -23 c 0 -6.335 -2.575 -12.06 -6.719 -16.219 z" style="opacity:0.05"/>
  <path d="m 41.28 8.781 c 3.712 4.085 5.969 9.514 5.969 15.469 c 0 12.703 -10.297 23 -23 23 c -5.954 0 -11.384 -2.256 -15.469 -5.969 c 4.113 3.854 9.637 6.219 15.719 6.219 c 12.703 0 23 -10.298 23 -23 c 0 -6.081 -2.364 -11.606 -6.219 -15.719 z" style="opacity:0.1"/>
  <path d="m 31.25 2.375 c 8.615 3.154 14.75 11.417 14.75 21.13 c 0 12.426 -10.07 22.5 -22.5 22.5 c -9.708 0 -17.971 -6.135 -21.12 -14.75 a 23 23 0 0 0 44.875 -7 a 23 23 0 0 0 -16 -21.875 z" style="opacity:0.2"/>
 </g>
 <g>
  <path d="m 22 1.092 c -11.11 0.957 -19.951 9.802 -20.908 20.908 0.908 2 0.908 2 22.908 2 -1 -22 -1 -22 -2 -22.908 m 4 0 c -1 0.908 -1 0.908 -2 22.908 22 -1 22 -1 22.908 -2 -0.957 -11.11 -9.802 -19.951 -20.908 -20.908 m -24.908 24.908 c 0.957 11.11 9.802 19.951 20.908 20.908 1 -0.908 1 -0.908 2 -22.908 -22 1 -22 1 -22.908 2 m 22.908 -2 c 1 22 1 22 2 22.908 c 11.11 -0.957 19.951 -9.802 20.908 -20.908 -0.908 -1 -0.908 -1 -22.908 -2" style="fill:url(#linearGradient4242);fill-opacity:1"/>
 </g>
 <path d="m 24 1 c -0.335 0 -0.668 0.011 -1 0.025 l 0 14.188 a 10 10 0 0 0 -7.797 7.787 l -14.178 0 c -0.014 0.332 -0.025 0.665 -0.025 1 c 0 1.018 0.073 2.02 0.201 3 l 14.01 0 a 10 10 0 0 0 7.787 7.797 l 0 12.178 c 0.332 0.014 0.665 0.025 1 0.025 c 1.018 0 2.02 -0.073 3 -0.201 l 0 -12.01 a 10 10 0 0 0 7.797 -7.787 l 12 0 c 0.128 -0.983 0.201 -1.982 0.201 -3 c 0 -0.335 -0.011 -0.668 -0.025 -1 l -12.188 0 a 10 10 0 0 0 -7.787 -7.797 l 0 -14 c -0.983 -0.128 -1.982 -0.201 -3 -0.201 z" style="fill:#000;fill-opacity:0.098"/>
 <path d="m 1.092 22 c -0.057 0.66 -0.092 1.326 -0.092 2 c 0 0.674 0.035 1.34 0.092 2 l 45.816 0 c 0.057 -0.66 0.092 -1.326 0.092 -2 0 -0.674 -0.035 -1.34 -0.092 -2 l -45.816 0 z" style="fill:url(#linearGradient4257);fill-opacity:1"/>
 <path d="m 24 1 c -0.674 0 -1.34 0.035 -2 0.092 l 0 45.816 c 0.66 0.057 1.326 0.092 2 0.092 0.674 0 1.34 -0.035 2 -0.092 l 0 -45.816 c -0.66 -0.057 -1.326 -0.092 -2 -0.092 z" style="fill:url(#linearGradient4262);fill-opacity:1"/>
 <g>
  <path d="m 40.03 7.531 c 3.712 4.084 5.969 9.514 5.969 15.469 0 12.703 -10.297 23 -23 23 c -5.954 0 -11.384 -2.256 -15.469 -5.969 4.178 4.291 10.01 6.969 16.469 6.969 c 12.703 0 23 -10.298 23 -23 0 -6.462 -2.677 -12.291 -6.969 -16.469 z" style="opacity:0.1"/>
 </g>
 <path d="m 24 14 c -5.523 0 -10 4.477 -10 10 0.003 2.882 1.25 5.623 3.42 7.52 0 0 0.002 0 0.002 0 3.611 2.191 8.66 1.934 13.855 -0.68 c 1.744 -1.851 2.718 -4.297 2.723 -6.84 -0.002 -1.297 -0.257 -2.581 -0.75 -3.781 -2.942 -1.253 -4.359 -2.839 -5.072 -5.293 -1.309 -0.606 -2.735 -0.922 -4.178 -0.926" style="fill:url(#radialGradient4211);fill-opacity:1;stroke:none;fill-rule:evenodd"/>
 <path d="m 22.484 14.12 c -0.86 0.134 -1.698 0.38 -2.494 0.73 0.11 0.494 -0.762 1.179 0.125 1.211 0.605 -0.712 1.657 -0.786 2.092 -1.709 0.198 -0.107 0.279 -0.181 0.277 -0.232 z m 2.113 0.027 c -0.459 -0.053 -0.681 0.417 -0.029 0.213 0.113 0.057 0.232 -0.033 0.238 -0.154 -0.074 -0.032 -0.143 -0.051 -0.209 -0.059 z m 2.281 0.277 c -0.382 0.167 -0.354 0.966 -0.07 0.469 -0.125 -0.344 0.331 -0.253 0.484 -0.326 -0.137 -0.051 -0.275 -0.098 -0.414 -0.143 z m 1.305 0.5 c -0.104 0.058 -0.211 0.107 -0.316 0.164 -0.316 -0.443 -0.465 0.44 -1.023 0.199 -0.211 0.045 -0.415 0.111 -0.617 0.186 l -0.002 0.002 0.334 -0.059 1.01 -0.178 c -0.304 0.134 -0.623 0.229 -1.01 0.178 -0.173 0.033 -0.329 0.105 -0.479 0.189 0.052 -0.032 0.101 -0.077 0.146 -0.135 l -0.197 0.156 c 0.017 -0.008 0.033 -0.011 0.049 -0.021 -0.025 0.014 -0.052 0.026 -0.076 0.041 l 0.027 -0.02 c -0.35 0.166 -0.726 -0.147 -0.145 -0.234 -0.797 -0.774 -1.981 0.043 -2.254 0.832 0.458 0.033 0.765 0.687 0.783 -0.102 -0.084 -0.505 0.665 -0.789 0.34 -0.096 0.73 0.217 0.343 -0.059 0.004 0.582 -0.11 0.066 -0.222 0.125 -0.344 0.164 -0.525 0.288 -0.549 -0.583 -0.682 0.049 -0.439 -0.084 -0.199 0.565 -0.828 0.549 -0.053 0.229 0.196 0.844 -0.4 0.641 -0.658 0.653 0.512 1.23 0.631 0.301 0.44 -0.765 1.01 -0.102 1.355 0.246 0.102 -0.32 -0.832 -1.01 -0.088 -0.639 0.233 0.367 0.575 1.299 0.684 0.402 0.481 0.084 0.274 -1.13 0.775 -0.443 0.192 -0.709 1.035 0.797 0.143 0.336 -0.895 -0.092 -0.763 0.885 0.049 0.639 0.216 0.744 -0.852 0.582 -1.152 0.498 -0.609 0.518 -0.831 -0.498 -1.154 -0.625 -0.615 0.189 -1.446 0.277 -1.705 1.109 -0.682 0.617 -0.675 1.873 -0.051 2.553 0.437 0.462 2.172 -0.456 1.869 0.793 0.604 0.832 0.006 1.856 0.441 2.752 0.11 0.736 0.451 1.754 1.248 0.945 0.426 -0.7 0.581 -1.477 1.07 -2.119 -0.562 -1.16 0.621 -1.832 0.916 -2.814 -0.783 0.021 -1.118 -0.914 -1.447 -1.615 -0.43 -0.497 0.081 -0.697 0.211 -0.066 0.311 0.606 0.682 1.818 1.408 0.951 0.737 -0.378 0.436 -1.063 -0.229 -1.1 -0.31 -0.356 -0.322 -0.968 0.033 -0.232 0.859 0.204 1.929 0.304 1.998 1.383 0.023 0.497 0.589 1.293 0.584 0.35 0.056 -0.938 1.108 -1.54 1.371 -0.455 0.361 -0.182 0.123 0.556 0.588 0.5 0.326 1.079 1.025 -0.357 0.307 -0.711 -0.075 -0.689 0.402 -0.106 0.346 -0.023 0.074 -0.272 0.324 -0.511 0.523 -0.758 -0.963 -2.32 -2.764 -4.192 -5.04 -5.244 z m -9.164 0.416 c -0.254 0.146 -0.502 0.303 -0.742 0.471 0.246 0.172 0.431 -0.028 0.566 -0.352 0.239 0.059 0.243 -0.013 0.176 -0.119 z m 3.078 0.168 c -0.081 -0.011 -0.195 -0.012 -0.348 0.004 -0.081 0.684 0.916 0.076 0.348 -0.004 z m -4.01 0.434 c -0.165 0.12 -0.327 0.245 -0.484 0.375 -0.199 0.382 -0.402 0.83 -0.652 0.59 -0.17 0.17 -0.335 0.346 -0.492 0.527 0.344 0.365 0.232 1.202 -0.133 0.389 -0.275 0.244 -0.27 0.323 -0.238 0.074 -0.402 0.52 -0.751 1.079 -1.043 1.668 0.072 0 0.148 0.007 0.232 0.039 0.544 -0.287 0.655 0.175 0.809 0.52 0.055 -0.907 0.874 -1.674 1.633 -2.15 0.538 -0.067 0.226 -1.343 0.908 -0.654 0.248 0.991 0.681 -0.764 0.107 -0.459 -0.096 -0.461 -0.098 -0.498 -0.463 -0.598 -0.064 -0.167 -0.125 -0.263 -0.184 -0.32 z m 4.814 0.344 c -0.253 0.242 0.092 0.777 -0.025 0.896 0.546 0.084 0.312 -0.52 0.096 -0.721 z m -0.32 0.514 c -0.218 0.101 0.004 0.449 0.105 0.148 z m 4.557 0.803 c -0.006 0.313 0.815 1.441 0.072 0.986 -0.051 -0.345 -0.7 -0.76 -0.074 -0.984 z m -3.293 0.516 c -0.279 0.144 -0.005 0.702 0.078 0.203 z m -0.521 0.324 c -0.042 0.037 0.017 0.14 0.064 0.068 z m 0.896 0.205 c -0.188 0.027 0.125 0.401 0.17 0.162 z m -8.205 1.801 c -0.06 -0.009 -0.12 -0.008 -0.178 0.016 -0.09 0.393 1.154 0.466 0.354 0.031 -0.055 -0.018 -0.116 -0.037 -0.176 -0.047 z m -0.672 0.211 c -0.055 -0.005 -0.151 0.05 -0.316 0.195 -0.249 0.174 -0.414 0.129 -0.512 -0.012 -0.042 0.126 -0.082 0.252 -0.119 0.379 0.546 0.208 1.358 0.875 1.672 1.404 0.888 0.069 -0.553 -0.784 -0.557 -1.172 -0.207 -0.231 -0.003 -0.781 -0.168 -0.795 z m 1.195 1.145 0 0.004 c -0.504 0.485 -0.864 1.547 -0.514 2.264 0.293 0.872 1.11 1.448 0.832 2.479 0.112 1.038 0.16 2.326 1.047 3 0.488 0.126 -0.379 -0.896 0.006 -1.178 -0.314 -0.582 0.724 -0.635 0.4 -1.229 0.65 -0.14 0.449 -1.257 1.154 -1.484 -0.09 -0.789 1.102 -1.907 -0.145 -2.191 -0.927 -0.165 -1.218 -1.45 -2.168 -1.559 -0.198 -0.112 -0.391 -0.123 -0.613 -0.109 z m 15.178 0.217 c -0.068 0.244 0.803 1.65 0.521 0.625 z m -1.496 0.027 c -0.363 0.277 0.184 0.616 0.051 0.068 z m 3.369 0.313 c -0.777 0.055 -1.19 1.251 -0.34 1.324 0.695 -0.272 0.528 -0.777 0.34 -1.324 z m -1.91 0.189 -0.002 0.002 c 0 0.002 0.003 0.002 0.004 0.004 0 0 -0.002 -0.004 -0.002 -0.006 z m 0.002 0.006 c -0.045 0.416 0.6 1.659 1.311 1.609 0.995 0.091 -0.787 -0.195 -0.566 -0.756 -0.241 -0.293 -0.523 -0.541 -0.744 -0.854 z m -4.377 2.109 c -0.238 0.462 -0.751 0.85 -0.373 1.445 0.37 -0.229 0.551 -1.01 0.492 -1.443 z m 6.629 0.412 c -0.348 0.571 -1.368 0.652 -1.084 1.59 -0.227 0.646 0.2 0.727 0.604 0.549 0.238 -0.693 0.399 -1.41 0.48 -2.139 z m -15.16 3.699 c -0.351 0.116 0.343 0.27 0 0 z m -0.352 0.08 c -0.316 0.31 0.276 0.266 0 0 z m 0.625 1.789 c -0.134 0.366 -0.663 0.408 -0.457 0.832 -0.431 0.202 -0.899 0.083 -1.303 -0.08 c 1.836 1.669 4.228 2.595 6.709 2.6 c 2.784 -0.005 5.439 -1.17 7.328 -3.215 -0.208 0.012 -0.415 0.026 -0.621 0.037 -1.073 -0.02 -2.162 0.158 -3.141 0.584 0.545 -0.675 -0.47 -0.098 -0.723 -0.643 -1.036 0.545 -2.162 0.508 -3.311 0.525 -0.925 -0.107 -1.48 0.775 -2.449 0.4 -0.833 0.069 -1.782 0.202 -1.904 -0.904 l -0.127 -0.133 z" style="fill:url(#radialGradient4215);fill-opacity:1;stroke:none;fill-rule:nonzero"/>
</svg>
