<svg xmlns="http://www.w3.org/2000/svg" viewBox="0 0 48 48">
 <defs>
  <linearGradient id="linearGradient3764" x1="1" x2="47" gradientUnits="userSpaceOnUse" gradientTransform="matrix(0,-1,1,0,-1.5e-6,47.999998)">
   <stop style="stop-color:#e4e4e4;stop-opacity:1"/>
   <stop offset="1" style="stop-color:#eee;stop-opacity:1"/>
  </linearGradient>
 </defs>
 <g>
  <path d="m 36.31 5 c 5.859 4.062 9.688 10.831 9.688 18.5 c 0 12.426 -10.07 22.5 -22.5 22.5 c -7.669 0 -14.438 -3.828 -18.5 -9.688 c 1.037 1.822 2.306 3.499 3.781 4.969 c 4.085 3.712 9.514 5.969 15.469 5.969 c 12.703 0 23 -10.298 23 -23 c 0 -5.954 -2.256 -11.384 -5.969 -15.469 c -1.469 -1.475 -3.147 -2.744 -4.969 -3.781 z m 4.969 3.781 c 3.854 4.113 6.219 9.637 6.219 15.719 c 0 12.703 -10.297 23 -23 23 c -6.081 0 -11.606 -2.364 -15.719 -6.219 c 4.16 4.144 9.883 6.719 16.219 6.719 c 12.703 0 23 -10.298 23 -23 c 0 -6.335 -2.575 -12.06 -6.719 -16.219 z" style="opacity:0.05"/>
  <path d="m 41.28 8.781 c 3.712 4.085 5.969 9.514 5.969 15.469 c 0 12.703 -10.297 23 -23 23 c -5.954 0 -11.384 -2.256 -15.469 -5.969 c 4.113 3.854 9.637 6.219 15.719 6.219 c 12.703 0 23 -10.298 23 -23 c 0 -6.081 -2.364 -11.606 -6.219 -15.719 z" style="opacity:0.1"/>
  <path d="m 31.25 2.375 c 8.615 3.154 14.75 11.417 14.75 21.13 c 0 12.426 -10.07 22.5 -22.5 22.5 c -9.708 0 -17.971 -6.135 -21.12 -14.75 a 23 23 0 0 0 44.875 -7 a 23 23 0 0 0 -16 -21.875 z" style="opacity:0.2"/>
 </g>
 <g>
  <path d="m 24 1 c 12.703 0 23 10.297 23 23 c 0 12.703 -10.297 23 -23 23 -12.703 0 -23 -10.297 -23 -23 0 -12.703 10.297 -23 23 -23 z" style="fill:url(#linearGradient3764);fill-opacity:1"/>
 </g>
 <g>
  <path d="m 40.03 7.531 c 3.712 4.084 5.969 9.514 5.969 15.469 0 12.703 -10.297 23 -23 23 c -5.954 0 -11.384 -2.256 -15.469 -5.969 4.178 4.291 10.01 6.969 16.469 6.969 c 12.703 0 23 -10.298 23 -23 0 -6.462 -2.677 -12.291 -6.969 -16.469 z" style="opacity:0.1"/>
 </g>
 <path d="m 23.22 11 c -0.333 0 -0.822 0.532 -1.465 1.596 -0.963 -0.576 -2.442 -1.127 -3.725 -1.121 0.111 0.905 0.166 1.517 0.166 1.834 0 0.385 -0.011 0.679 -0.033 0.883 -1.121 4.03 -3.414 6.269 -4.158 10.289 -0.068 0.367 0.301 0.611 0.434 0.814 0.399 0.611 1.074 1.042 2.027 1.291 0.444 0.113 0.666 0.17 0.666 0.17 0.288 0 0.544 -0.147 0.766 -0.441 0 0.702 0.278 1.053 0.832 1.053 0.222 0 0.387 -0.09 0.498 -0.271 1.14 -1.786 2.12 -3.437 4.391 -4.381 c -0.573 2.887 -3.483 4.697 -3.611 8.285 l -1.51 0 c -0.277 0 -0.5 0.223 -0.5 0.5 l 0 0.5 -2 5 22 0 -2 -5 0 -0.5 c 0 -0.277 -0.223 -0.5 -0.5 -0.5 l -1.49 0 c 0 -8 -1.999 -16 -8.891 -17.25 c -0.335 -1.038 -0.679 -2.092 -1.896 -2.75 m 1.529 4.244 c 5.04 0.235 7.553 7.089 7.617 12.12 l 0 1.256 c -0.044 0.589 -0.243 0.883 -0.598 0.883 -0.421 0 -0.633 -0.498 -0.633 -1.494 -0.022 -5.138 -1.417 -10.341 -6.324 -11.834 -0.464 -0.099 -0.494 -0.47 -0.494 -0.561 0 -0.249 0.143 -0.373 0.432 -0.373 z m -4.689 1.359 c 0.532 0 0.799 0.147 0.799 0.441 0 0.249 -0.167 0.543 -0.5 0.883 -0.621 0.656 -1.209 0.984 -1.764 0.984 -0.288 0 -0.432 -0.204 -0.432 -0.611 0.007 -0.713 0.742 -1.606 1.896 -1.697 z m -4.03 6.791 -0.006 0.001 c 0.172 0.537 -0.279 1.264 -1.025 1.381 -0.155 -0.611 0.068 -1.2 1.031 -1.391 z" style="fill:#000;fill-opacity:0.098;stroke:none;display:inline"/>
 <path d="m 22.22 10 c -0.333 0 -0.822 0.532 -1.465 1.596 -0.963 -0.576 -2.442 -1.127 -3.725 -1.121 0.111 0.905 0.166 1.517 0.166 1.834 0 0.385 -0.011 0.679 -0.033 0.883 -1.121 4.03 -3.414 6.269 -4.158 10.289 -0.068 0.367 0.301 0.611 0.434 0.814 0.399 0.611 1.074 1.042 2.027 1.291 0.444 0.113 0.666 0.17 0.666 0.17 0.288 0 0.544 -0.147 0.766 -0.441 0 0.702 0.278 1.053 0.832 1.053 0.222 0 0.387 -0.09 0.498 -0.271 1.14 -1.786 2.12 -3.437 4.391 -4.381 c -0.573 2.887 -3.483 4.697 -3.611 8.285 l -1.51 0 c -0.277 0 -0.5 0.223 -0.5 0.5 l 0 0.5 -2 5 22 0 -2 -5 0 -0.5 c 0 -0.277 -0.223 -0.5 -0.5 -0.5 l -1.49 0 c 0 -8 -1.999 -16 -8.891 -17.25 c -0.335 -1.038 -0.679 -2.092 -1.896 -2.75 m 1.529 4.244 c 5.04 0.235 7.553 7.089 7.617 12.12 l 0 1.256 c -0.044 0.589 -0.243 0.883 -0.598 0.883 -0.421 0 -0.633 -0.498 -0.633 -1.494 -0.022 -5.138 -1.417 -10.341 -6.324 -11.834 -0.464 -0.099 -0.494 -0.47 -0.494 -0.561 0 -0.249 0.143 -0.373 0.432 -0.373 z m -4.689 1.359 c 0.532 0 0.799 0.147 0.799 0.441 0 0.249 -0.167 0.543 -0.5 0.883 -0.621 0.656 -1.209 0.984 -1.764 0.984 -0.288 0 -0.432 -0.204 -0.432 -0.611 0.007 -0.713 0.742 -1.606 1.896 -1.697 z m -4.03 6.791 -0.006 0.001 c 0.172 0.537 -0.279 1.264 -1.025 1.381 -0.155 -0.611 0.068 -1.2 1.031 -1.391 z" style="fill:#292929;fill-opacity:1;stroke:none;display:inline"/>
</svg>
