<?xml version="1.0" encoding="UTF-8" standalone="no"?>
<svg id="svg2" xmlns:rdf="http://www.w3.org/1999/02/22-rdf-syntax-ns#" xmlns="http://www.w3.org/2000/svg" viewBox="0 0 48 48" version="1.1" xmlns:cc="http://creativecommons.org/ns#" xmlns:dc="http://purl.org/dc/elements/1.1/">
 <metadata id="metadata73">
  <rdf:RDF>
   <cc:Work rdf:about="">
    <dc:format>image/svg+xml</dc:format>
    <dc:type rdf:resource="http://purl.org/dc/dcmitype/StillImage"/>
   </cc:Work>
  </rdf:RDF>
 </metadata>
 <defs id="defs4">
  <linearGradient id="linearGradient3764" x2="47" gradientUnits="userSpaceOnUse" x1="1" gradientTransform="matrix(0 -1 1 0 -.0000015 48)">
   <stop id="stop7" stop-color="#b1e085" offset="0"/>
   <stop id="stop9" stop-color="#bce496" offset="1"/>
  </linearGradient>
 </defs>
 <g id="g11">
  <path id="path13" opacity=".05" d="m36.31 5c5.859 4.062 9.688 10.831 9.688 18.5 0 12.426-10.07 22.5-22.5 22.5-7.669 0-14.438-3.828-18.5-9.688 1.037 1.822 2.306 3.499 3.781 4.969 4.085 3.712 9.514 5.969 15.469 5.969 12.703 0 23-10.298 23-23 0-5.954-2.256-11.384-5.969-15.469-1.469-1.475-3.147-2.744-4.969-3.781zm4.969 3.781c3.854 4.113 6.219 9.637 6.219 15.719 0 12.703-10.297 23-23 23-6.081 0-11.606-2.364-15.719-6.219 4.16 4.144 9.883 6.719 16.219 6.719 12.703 0 23-10.298 23-23 0-6.335-2.575-12.06-6.719-16.219z"/>
  <path id="path15" opacity=".1" d="m41.28 8.781c3.712 4.085 5.969 9.514 5.969 15.469 0 12.703-10.297 23-23 23-5.954 0-11.384-2.256-15.469-5.969 4.113 3.854 9.637 6.219 15.719 6.219 12.703 0 23-10.298 23-23 0-6.081-2.364-11.606-6.219-15.719z"/>
  <path id="path17" opacity=".2" d="m31.25 2.375c8.615 3.154 14.75 11.417 14.75 21.13 0 12.426-10.07 22.5-22.5 22.5-9.708 0-17.971-6.135-21.12-14.75a23 23 0 0 0 44.875 -7 23 23 0 0 0 -16 -21.875z"/>
 </g>
 <g id="g19">
  <path id="path21" d="m24 1c12.703 0 23 10.297 23 23s-10.297 23-23 23-23-10.297-23-23 10.297-23 23-23z" fill="url(#linearGradient3764)"/>
 </g>
 <path id="path23" opacity=".1" d="m16 18c-3.314 0-6 2.686-6 6 0 0.207 0.011 0.423 0.031 0.625 0.003 0.031-0.004 0.063 0 0.094 0.02 0.17 0.06 0.335 0.094 0.5 0.039 0.189 0.101 0.38 0.156 0.563 0.055 0.18 0.117 0.359 0.188 0.531 0.061 0.146 0.116 0.298 0.188 0.438 0.783 1.525 2.203 2.644 3.906 3.063 1.084 3.072 3.699 4.188 7.438 4.188h6c3.738 0 6.353-1.116 7.438-4.188 2.921-1.156 4.439-2.934 4.563-5.813 0-3.314-2.686-6-6-6-0.244 0-0.482 0.003-0.719 0.031-0.908 0.099-1.729 0.486-2.469 0.906-0.039 0.025-0.086 0.037-0.125 0.063-0.012 0.008-0.019 0.023-0.031 0.031-0.069 0.046-0.121 0.107-0.188 0.156-0.06 0.044-0.129 0.079-0.188 0.125-1.408-0.481-3.065-0.773-4.938-0.813-0.114-0.033-0.219-0.055-0.344-0.063-0.135 0.008-0.252 0.025-0.375 0.063-1.862 0.033-3.505 0.334-4.906 0.813-0.133-0.106-0.265-0.218-0.406-0.313-1.013-0.686-2.154-0.908-3.313-1"/>
 <g id="g25">
  <path id="path27" opacity=".1" d="m40.03 7.531c3.712 4.084 5.969 9.514 5.969 15.469 0 12.703-10.297 23-23 23-5.954 0-11.384-2.256-15.469-5.969 4.178 4.291 10.01 6.969 16.469 6.969 12.703 0 23-10.298 23-23 0-6.462-2.677-12.291-6.969-16.469z"/>
 </g>
 <circle id="circle33" cy="23" cx="15" r="6" fill="#6f6f6f"/>
 <path id="path37" fill-opacity=".988" fill="#c0c3c9" d="m9.966 22.08-0.199 1.834 0.906-0.265-0.663 1.016 1.149-0.177-0.464 0.862 0.928-0.199-0.177 0.862 0.84-0.287-0.044 0.994 1.481-0.994 4.066-6.408-1.392-1.348-5.944 2.099z"/>
 <path id="path39" fill="#434343" d="m15 17c-3.314 0-6 2.686-6 6 0 0.986 0.235 1.929 0.656 2.75-0.043-5.795 3.361-7.892 10.125-6.375-1.096-1.442-2.83-2.375-4.781-2.375"/>
 <circle id="circle43" transform="scale(-1,1)" cy="23" cx="-33" r="6" fill="#6f6f6f"/>
 <path id="path45" d="m38.03 22.08 0.199 1.834-0.906-0.265 0.663 1.016-1.149-0.177 0.464 0.862-0.928-0.199 0.177 0.862-0.84-0.287 0.044 0.994-1.481-0.994-4.066-6.408 1.392-1.348 5.944 2.099z" fill="#c0c3c9" fill-opacity=".988"/>
 <path id="path47" fill="#434343" d="m33 17c3.314 0 6 2.686 6 6 0 0.986-0.235 1.929-0.656 2.75 0.043-5.795-3.361-7.892-10.125-6.375 1.096-1.442 2.83-2.375 4.781-2.375"/>
 <path id="path49" fill-opacity=".984" fill="#a0a3a4" d="m21 33h6c5 0 8-2 8-8 0-4-4-7.469-11-7.5-7-0.005-11 3.5-11 7.5 0 6 3 8 8 8z"/>
 <ellipse id="circle51" rx="2.9997" ry="2.9997" cy="26" cx="18" fill="#aedcea"/>
 <ellipse id="circle53" rx="1.4998" ry="1.4998" cy="25.5" cx="17.5" fill="#353535"/>
 <ellipse id="circle55" rx=".49995" ry=".49995" cy="24.804" cx="18.141" fill="#f9f9f9"/>
 <ellipse id="circle57" rx="2.9997" ry="2.9997" cy="26" cx="30" fill="#aedcea"/>
 <ellipse id="circle59" rx="1.4998" ry="1.4998" cy="25.5" cx="29.5" fill="#353535"/>
 <ellipse id="circle61" rx=".49995" ry=".49995" cy="24.804" cx="30.141" fill="#f9f9f9"/>
 <path id="path63" style="fill:#6f6f6f" fill="#434343" d="m21.375 25.001c0.016 5 1.625 5 2.625 5s2.609 0 2.625-5c0.003-4-1.687-5.001-2.625-5.001-0.93829 0-2.628 1.001-2.625 5.001z"/>
 <path id="path65" style="color-rendering:auto;color:#000000;isolation:auto;mix-blend-mode:normal;shape-rendering:auto;solid-color:#000000;image-rendering:auto;white-space:normal" d="m23.986 30.29-0.135 0.102c-0.683 0.508-1.133 0.645-1.48 0.648s-0.626-0.135-0.98-0.27c-0.05933 0.15633-0.11867 0.31267-0.178 0.469 0.323 0.122 0.683 0.305 1.162 0.301 0.434-0.004 0.971-0.239 1.607-0.676 0.372 0.23 0.753 0.48 1.172 0.604 0.46 0.136 0.984 0.102 1.451-0.266l-0.311-0.395c-0.349 0.275-0.641 0.287-0.998 0.182-0.357-0.106-0.754-0.356-1.166-0.609l-0.145-0.09z" isolation="auto" mix-blend-mode="normal" white-space="normal" fill="#141414"/>
 <path id="path67" fill="#353535" d="m22.625 27.969c-0.286 0-0.512 0.409-0.594 0.969 0.333 0.617 0.747 0.898 1.156 1 0.042-0.183 0.094-0.376 0.094-0.594 0-0.764-0.302-1.375-0.656-1.375z"/>
 <path id="path69" fill="#353535" d="m25.22 28c-0.292 0.129-0.5 0.707-0.5 1.375 0 0.204 0.026 0.388 0.063 0.563 0.41-0.095 0.818-0.366 1.156-0.969-0.082-0.558-0.277-0.969-0.563-0.969-0.044 0-0.115-0.018-0.156 0z"/>
</svg>
