<svg version="1.1" viewBox="0 0 48 48" xmlns="http://www.w3.org/2000/svg">
 <defs>
  <linearGradient id="bg" x2="0" y1="1" y2="47" gradientUnits="userSpaceOnUse">
   <stop style="stop-color:#e4eceb" offset="0"/>
   <stop style="stop-color:#d9e3e2" offset="1"/>
  </linearGradient>
 </defs>
 <path d="m36.31 5c5.859 4.062 9.688 10.831 9.688 18.5 0 12.426-10.07 22.5-22.5 22.5-7.669 0-14.438-3.828-18.5-9.688 1.037 1.822 2.306 3.499 3.781 4.969 4.085 3.712 9.514 5.969 15.469 5.969 12.703 0 23-10.298 23-23 0-5.954-2.256-11.384-5.969-15.469-1.469-1.475-3.147-2.744-4.969-3.781zm4.969 3.781c3.854 4.113 6.219 9.637 6.219 15.719 0 12.703-10.297 23-23 23-6.081 0-11.606-2.364-15.719-6.219 4.16 4.144 9.883 6.719 16.219 6.719 12.703 0 23-10.298 23-23 0-6.335-2.575-12.06-6.719-16.219z" style="opacity:.05"/>
 <path d="m41.28 8.781c3.712 4.085 5.969 9.514 5.969 15.469 0 12.703-10.297 23-23 23-5.954 0-11.384-2.256-15.469-5.969 4.113 3.854 9.637 6.219 15.719 6.219 12.703 0 23-10.298 23-23 0-6.081-2.364-11.606-6.219-15.719z" style="opacity:.1"/>
 <path d="m31.25 2.375c8.615 3.154 14.75 11.417 14.75 21.13 0 12.426-10.07 22.5-22.5 22.5-9.708 0-17.971-6.135-21.12-14.75a23 23 0 0 0 44.875-7 23 23 0 0 0-16-21.875z" style="opacity:.2"/>
 <circle cx="24" cy="24" r="23" style="fill:url(#bg)"/>
 <path d="m40.03 7.531c3.712 4.084 5.969 9.514 5.969 15.469 0 12.703-10.297 23-23 23-5.954 0-11.384-2.256-15.469-5.969 4.178 4.291 10.01 6.969 16.469 6.969 12.703 0 23-10.298 23-23 0-6.462-2.677-12.291-6.969-16.469z" style="opacity:.1"/>
 <path d="m32 12-6 3h-1l-1.5 1.5-1.5 4.5v6l2 4-2 4.5 2 1.5h2l2-1.5-2-4.5 2-4v-6l-1-3v-2zm-18.867 7.1992c-1.3857 1.7394-2.1331 3.7467-2.1328 5.8008s0.75126 4.0691 2.1426 5.8105l1.4434-0.76758c-1.0335-1.5574-1.5851-3.2886-1.5859-5.043-8.18e-4 -1.7544 0.54674-3.4779 1.5742-5.0332zm23.734 0-1.4414 0.76758c1.0275 1.5553 1.575 3.2789 1.5742 5.0332s-0.55246 3.4856-1.5859 5.043l1.4434 0.76758c1.3913-1.7414 2.1423-3.7564 2.1426-5.8105s-0.74716-4.0614-2.1328-5.8008zm-21.191 1.3535c-2.2279 2.8053-2.2243 6.1009 0.0098 8.9043l1.5371-0.81836c-0.79778-1.1254-1.2228-2.3725-1.2227-3.6387 6.5e-5 -1.2618 0.42229-2.5046 1.2148-3.627zm18.648 0-1.5391 0.82031c0.79256 1.1224 1.2148 2.3652 1.2148 3.627 6.5e-5 1.2662-0.42491 2.5132-1.2227 3.6387l1.5371 0.81836c2.234-2.8034 2.2376-6.099 0.0098-8.9043zm-15.914 1.4473c-1.879 1.7762-1.879 4.2238 0 6l1.1973-0.64258c-0.3947-0.7237-0.60741-1.5336-0.60742-2.3574s0.21272-1.6337 0.60742-2.3574c-0.39902-0.21433-0.79816-0.42841-1.1973-0.64258zm13.18 0c-0.3991 0.21417-0.79825 0.42825-1.1973 0.64258 0.3947 0.7237 0.60743 1.5336 0.60742 2.3574s-0.21272 1.6337-0.60742 2.3574l1.1973 0.64258c1.879-1.7762 1.879-4.2238 0-6z" style="opacity:.1"/>
 <path d="m21 34.5 2-4.5 1-1 1 1 2 4.5-2 1.5h-2z" style="fill:#a599c7"/>
 <path d="m21 26 3-1 3 1-2 4h-2z" style="fill:#8895aa"/>
 <path d="m21 20h6v6h-6z" style="fill:#8cbfca"/>
 <path d="m22 17h4l1 3-3 1-3-1z" style="fill:#71a8a2"/>
 <path d="m22.5 15.5 1.5-1.5h2v3l-1.5 1-2.5-1z" style="fill:#b4d0c8"/>
 <path d="m25 14 6-3-5 4z" style="fill:#9ead8f"/>
 <path d="m25 14 1 1v2l1 3v6l-2 4 2 4.5-2 1.5h-1v-15l0.5-3z" style="opacity:.1"/>
 <path d="m17.41 21.001c-1.879 1.7762-1.879 4.2238 0 6l1.1973-0.64257c-0.3947-0.7237-0.60741-1.5336-0.60742-2.3574s0.21272-1.6337 0.60742-2.3574c-0.39902-0.21433-0.79816-0.42841-1.1973-0.64258zm13.18 0c-0.3991 0.21417-0.79825 0.42825-1.1973 0.64258 0.3947 0.7237 0.60743 1.5336 0.60742 2.3574s-0.21272 1.6337-0.60742 2.3574l1.1973 0.64257c1.879-1.7762 1.879-4.2238 0-6z" style="fill:#b2b6d2"/>
 <path d="m14.676 19.553c-2.2279 2.8053-2.2243 6.1009 0.0098 8.9043l1.5371-0.81836c-0.79775-1.1254-1.2227-2.3725-1.2227-3.6387 6.5e-5 -1.2618 0.42229-2.5046 1.2148-3.627zm18.648 0-1.5391 0.82031c0.79256 1.1224 1.2148 2.3652 1.2148 3.627 6.5e-5 1.2662-0.42491 2.5132-1.2227 3.6387l1.5371 0.81836c2.234-2.8034 2.2377-6.099 0.0098-8.9043z" style="fill:#93afdc"/>
 <path d="m12.133 18.2c-1.3857 1.7394-2.1331 3.7467-2.1328 5.8008 3.03e-4 2.0541 0.75126 4.0691 2.1426 5.8106l1.4434-0.76758c-1.0335-1.5574-1.5851-3.2886-1.5859-5.043-8.18e-4 -1.7544 0.54674-3.4779 1.5742-5.0332zm23.734 0-1.4414 0.76758c1.0275 1.5553 1.575 3.2788 1.5742 5.0332s-0.55246 3.4856-1.5859 5.043l1.4434 0.76758c1.3913-1.7414 2.1423-3.7564 2.1426-5.8106s-0.74716-4.0614-2.1328-5.8008z" style="fill:#958ac2"/>
</svg>
