<svg xmlns="http://www.w3.org/2000/svg" viewBox="0 0 48 48">
 <defs>
  <linearGradient id="linearGradient3764" x1="1" x2="47" gradientUnits="userSpaceOnUse" gradientTransform="matrix(0,-1,1,0,-1.5e-6,47.999998)">
   <stop style="stop-color:#2c313c;stop-opacity:1"/>
   <stop offset="1" style="stop-color:#353b47;stop-opacity:1"/>
  </linearGradient>
 </defs>
 <g>
  <path d="m 36.31 5 c 5.859 4.062 9.688 10.831 9.688 18.5 c 0 12.426 -10.07 22.5 -22.5 22.5 c -7.669 0 -14.438 -3.828 -18.5 -9.688 c 1.037 1.822 2.306 3.499 3.781 4.969 c 4.085 3.712 9.514 5.969 15.469 5.969 c 12.703 0 23 -10.298 23 -23 c 0 -5.954 -2.256 -11.384 -5.969 -15.469 c -1.469 -1.475 -3.147 -2.744 -4.969 -3.781 z m 4.969 3.781 c 3.854 4.113 6.219 9.637 6.219 15.719 c 0 12.703 -10.297 23 -23 23 c -6.081 0 -11.606 -2.364 -15.719 -6.219 c 4.16 4.144 9.883 6.719 16.219 6.719 c 12.703 0 23 -10.298 23 -23 c 0 -6.335 -2.575 -12.06 -6.719 -16.219 z" style="opacity:0.05"/>
  <path d="m 41.28 8.781 c 3.712 4.085 5.969 9.514 5.969 15.469 c 0 12.703 -10.297 23 -23 23 c -5.954 0 -11.384 -2.256 -15.469 -5.969 c 4.113 3.854 9.637 6.219 15.719 6.219 c 12.703 0 23 -10.298 23 -23 c 0 -6.081 -2.364 -11.606 -6.219 -15.719 z" style="opacity:0.1"/>
  <path d="m 31.25 2.375 c 8.615 3.154 14.75 11.417 14.75 21.13 c 0 12.426 -10.07 22.5 -22.5 22.5 c -9.708 0 -17.971 -6.135 -21.12 -14.75 a 23 23 0 0 0 44.875 -7 a 23 23 0 0 0 -16 -21.875 z" style="opacity:0.2"/>
 </g>
 <g>
  <path d="m 24 1 c 12.703 0 23 10.297 23 23 c 0 12.703 -10.297 23 -23 23 -12.703 0 -23 -10.297 -23 -23 0 -12.703 10.297 -23 23 -23 z" style="fill:url(#linearGradient3764);fill-opacity:1"/>
 </g>
 <g>
  <path d="m 40.03 7.531 c 3.712 4.084 5.969 9.514 5.969 15.469 0 12.703 -10.297 23 -23 23 c -5.954 0 -11.384 -2.256 -15.469 -5.969 4.178 4.291 10.01 6.969 16.469 6.969 c 12.703 0 23 -10.298 23 -23 0 -6.462 -2.677 -12.291 -6.969 -16.469 z" style="opacity:0.1"/>
 </g>
 <path d="m 33.799 16.01 a 5.901 14.67 59.6 0 0 -6.434 1.359 8 8 0 0 0 -2.367 -0.359 8 8 0 0 0 -7.82 6.33 5.901 14.67 59.6 0 0 -4.848 9.07 5.901 14.67 59.6 0 0 10.301 0.244 8 8 0 0 0 2.367 0.357 8 8 0 0 0 7.818 -6.328 5.901 14.67 59.6 0 0 4.848 -9.07 5.901 14.67 59.6 0 0 -3.865 -1.602 z m -3.03 3.047 a 3.261 9.471 59.63 0 1 2.17 0.773 3.261 9.471 59.63 0 1 -0.467 2.35 8 8 0 0 0 -2.113 -3.092 3.261 9.471 59.63 0 1 0.41 -0.031 z m -13.563 7.742 a 8 8 0 0 0 1.662 3.346 3.261 9.471 59.63 0 1 -2.283 -0.762 3.261 9.471 59.63 0 1 0.621 -2.584 z" style="fill:#000;fill-opacity:0.098;stroke:none;fill-rule:evenodd"/>
 <g>
  <ellipse ry="8" rx="8" cy="24" cx="24" style="fill:#adcedd;fill-opacity:1;stroke:none;fill-rule:evenodd"/>
 </g>
 <path d="m 21.08 18.875 a 5.901 14.67 59.6 0 0 -9.742 12.524 5.901 14.67 59.6 0 0 15.592 -2.273 5.901 14.67 59.6 0 0 9.742 -12.524 5.901 14.67 59.6 0 0 -15.592 2.273 z m 1.078 1.888 a 3.261 9.471 59.63 0 1 9.794 -1.943 3.261 9.471 59.63 0 1 -6.561 7.607 3.261 9.471 59.63 0 1 -9.793 1.945 3.261 9.471 59.63 0 1 6.56 -7.609 z" style="fill:#868d91;fill-opacity:1;stroke:none"/>
 <path d="m 30.929 20 c -13.928 8 0 0 -13.856 8 -1.105 -1.913 -1.329 -4.093 -0.799 -6.071 4.04 -3.965 5.819 -4.829 9.798 -5.657 0.989 0.265 1.927 0.719 2.756 1.345 0.829 0.626 1.549 1.426 2.101 2.382 z" style="fill:#adcedd;fill-opacity:1;stroke:none;fill-rule:evenodd"/>
</svg>
