<svg version="1.1" viewBox="0 0 48 48" xmlns="http://www.w3.org/2000/svg">
 <defs>
  <linearGradient id="bg" x1="1" x2="47" gradientTransform="matrix(0 -1 1 0 -1.5e-6 48)" gradientUnits="userSpaceOnUse">
   <stop style="stop-color:#b24432" offset="0"/>
   <stop style="stop-color:#c24936" offset="1"/>
  </linearGradient>
 </defs>
 <path d="m36.31 5c5.859 4.062 9.688 10.831 9.688 18.5 0 12.426-10.07 22.5-22.5 22.5-7.669 0-14.438-3.828-18.5-9.688 1.037 1.822 2.306 3.499 3.781 4.969 4.085 3.712 9.514 5.969 15.469 5.969 12.703 0 23-10.298 23-23 0-5.954-2.256-11.384-5.969-15.469-1.469-1.475-3.147-2.744-4.969-3.781zm4.969 3.781c3.854 4.113 6.219 9.637 6.219 15.719 0 12.703-10.297 23-23 23-6.081 0-11.606-2.364-15.719-6.219 4.16 4.144 9.883 6.719 16.219 6.719 12.703 0 23-10.298 23-23 0-6.335-2.575-12.06-6.719-16.219z" style="opacity:.05"/>
 <path d="m41.28 8.781c3.712 4.085 5.969 9.514 5.969 15.469 0 12.703-10.297 23-23 23-5.954 0-11.384-2.256-15.469-5.969 4.113 3.854 9.637 6.219 15.719 6.219 12.703 0 23-10.298 23-23 0-6.081-2.364-11.606-6.219-15.719z" style="opacity:.1"/>
 <path d="m31.25 2.375c8.615 3.154 14.75 11.417 14.75 21.13 0 12.426-10.07 22.5-22.5 22.5-9.708 0-17.971-6.135-21.12-14.75a23 23 0 0 0 44.875-7 23 23 0 0 0-16-21.875z" style="opacity:.2"/>
 <path d="m24 1c12.703 0 23 10.297 23 23s-10.297 23-23 23-23-10.297-23-23 10.297-23 23-23z" style="fill:url(#bg)"/>
 <path d="m40.03 7.531c3.712 4.084 5.969 9.514 5.969 15.469 0 12.703-10.297 23-23 23-5.954 0-11.384-2.256-15.469-5.969 4.178 4.291 10.01 6.969 16.469 6.969 12.703 0 23-10.298 23-23 0-6.462-2.677-12.291-6.969-16.469z" style="opacity:.1"/>
 <g transform="matrix(3.5433 0 0 3.5433 1 2)" style="opacity:.1">
  <path transform="matrix(.28222 0 0 .28222 -.28222 -.56444)" d="m14 16c-0.5 0-1 0.498-1 0.998h-2e-3v17.01h23.998v-14.932c0-0.531-0.5-1.066-1-1.066h-0.996c-2.987-0.016-6-8e-3 -9-8e-3l-1-1.998z"/>
 </g>
 <path d="m12 16v3l14 1-1-3-1-2h-11c-0.5 0-1 0.5-1 1z" style="fill:#ff8f00"/>
 <rect x="14" y="18" width="11" height="4" style="fill:#fffdf0"/>
 <path d="m36 18.07v14.933h-24v-14h12l1-2h10c0.5 0 1 0.533 1 1.067z" style="fill:#ffca28"/>
 <path d="m23.48 27.797c-0.737 0.55-1.864 2.34-2.216 1.64-0.176-0.1-0.456-8.13-0.072-8.44 0.335-0.27 7.649 4.23 7.303 4.7-0.043 0.48-1.708 0.63-2.561 0.95l1.841 3.07-2.288 1.28" style="fill:#403018;opacity:.4"/>
</svg>
