<svg version="1.1" viewBox="0 0 48 48" xmlns="http://www.w3.org/2000/svg">
 <defs>
  <linearGradient id="bg" x1="1" x2="47" gradientTransform="matrix(0 -1 1 0 -1.5e-6 48)" gradientUnits="userSpaceOnUse">
   <stop style="stop-color:#e1ddb1" offset="0"/>
   <stop style="stop-color:#e7e4c0" offset="1"/>
  </linearGradient>
  <linearGradient id="linearGradient4736" x2="0" y1="24" y2="19" gradientUnits="userSpaceOnUse">
   <stop style="stop-color:#484848" offset="0"/>
   <stop style="stop-color:#505050" offset=".494"/>
   <stop style="stop-color:#484848" offset="1"/>
  </linearGradient>
 </defs>
 <path d="m36.31 5c5.859 4.062 9.688 10.831 9.688 18.5 0 12.426-10.07 22.5-22.5 22.5-7.669 0-14.438-3.828-18.5-9.688 1.037 1.822 2.306 3.499 3.781 4.969 4.085 3.712 9.514 5.969 15.469 5.969 12.703 0 23-10.298 23-23 0-5.954-2.256-11.384-5.969-15.469-1.469-1.475-3.147-2.744-4.969-3.781zm4.969 3.781c3.854 4.113 6.219 9.637 6.219 15.719 0 12.703-10.297 23-23 23-6.081 0-11.606-2.364-15.719-6.219 4.16 4.144 9.883 6.719 16.219 6.719 12.703 0 23-10.298 23-23 0-6.335-2.575-12.06-6.719-16.219z" style="opacity:.05"/>
 <path d="m41.28 8.781c3.712 4.085 5.969 9.514 5.969 15.469 0 12.703-10.297 23-23 23-5.954 0-11.384-2.256-15.469-5.969 4.113 3.854 9.637 6.219 15.719 6.219 12.703 0 23-10.298 23-23 0-6.081-2.364-11.606-6.219-15.719z" style="opacity:.1"/>
 <path d="m31.25 2.375c8.615 3.154 14.75 11.417 14.75 21.13 0 12.426-10.07 22.5-22.5 22.5-9.708 0-17.971-6.135-21.12-14.75a23 23 0 0 0 44.875-7 23 23 0 0 0-16-21.875z" style="opacity:.2"/>
 <path d="m24 1c12.703 0 23 10.297 23 23s-10.297 23-23 23-23-10.297-23-23 10.297-23 23-23z" style="fill:url(#bg)"/>
 <path d="m40.03 7.531c3.712 4.084 5.969 9.514 5.969 15.469 0 12.703-10.297 23-23 23-5.954 0-11.384-2.256-15.469-5.969 4.178 4.291 10.01 6.969 16.469 6.969 12.703 0 23-10.298 23-23 0-6.462-2.677-12.291-6.969-16.469z" style="opacity:.1"/>
 <path d="m13.533 20c-0.295 0-0.533 0.223-0.533 0.5v4c0 0.277 0.238 0.5 0.533 0.5h6.645a5 5 0 0 0-0.678 2.5 5 5 0 0 0 5 5 5 5 0 0 0 4.971-4.5h3.529l6 4.5v-2l-6-5.5h-2c1.063 0 1.918-0.772 1.986-1.752a0.75 0.75 0 0 0 0.713-0.748 0.75 0.75 0 0 0-0.713-0.748c-0.068-0.98-0.923-1.752-1.986-1.752h-17.467m7.467 5.582v1.418h-0.465a4 4 0 0 1 0.465-1.418m-0.463 2.418h2.756l-1.951 1.951a4 4 0 0 1-0.805-1.951m5.17 0h2.758a4 4 0 0 1-0.809 1.949l-1.949-1.949m-1.707 0.707v2.758a4 4 0 0 1-1.949-0.809l1.949-1.949m1 0 1.951 1.951a4 4 0 0 1-1.951 0.805z" style="fill-opacity:.098"/>
 <path d="m12.533 19c-0.295 0-0.533 0.223-0.533 0.5v4c0 0.277 0.238 0.5 0.533 0.5h17.467c1.063 0 1.918-0.772 1.986-1.752a0.75 0.75 0 0 0 0.713-0.748 0.75 0.75 0 0 0-0.713-0.748c-0.068-0.98-0.923-1.752-1.986-1.752z" style="fill:url(#linearGradient4736)"/>
 <path d="m20 24v3h12l6 4.5v-2l-6-5.5z" style="fill:#8d6a3e"/>
 <path d="m24.5 22.5a5 5 0 0 0-4.5 2.832v1.668h0.535a4 4 0 0 1 0.809-1.95l1.949 1.95h2.414l1.951-1.95a4 4 0 0 1 0.805 1.95h1.012a5 5 0 0 0-4.975-4.5zm0.5 1.035a4 4 0 0 1 1.949 0.809l-1.949 1.949zm-1 2e-3v2.756l-1.95-1.951a4 4 0 0 1 1.95-0.805z" style="fill-opacity:.098"/>
 <path d="m23.5 21.5a5 5 0 0 0-5 5 5 5 0 0 0 5 5 5 5 0 0 0 5-5 5 5 0 0 0-5-5zm0.5 1.035a4 4 0 0 1 1.949 0.809l-1.949 1.949v-2.758m-1 2e-3v2.756l-1.951-1.951a4 4 0 0 1 1.951-0.805m3.658 1.512a4 4 0 0 1 0.805 1.951h-2.756zm-6.314 2e-3 1.949 1.949h-2.758a4 4 0 0 1 0.809-1.95m-0.807 2.95h2.756l-1.951 1.951a4 4 0 0 1-0.805-1.951m5.17 0h2.758a4 4 0 0 1-0.809 1.949l-1.949-1.949m-1.707 0.707v2.758a4 4 0 0 1-1.95-0.809l1.95-1.949m1 0 1.951 1.951a4 4 0 0 1-1.951 0.805z" style="fill:#b58a55"/>
 <circle cx="23.5" cy="26.5" r="1" style="fill:#8d6a3e"/>
</svg>
