<svg version="1.1" viewBox="0 0 48 48" xmlns="http://www.w3.org/2000/svg">
 <defs>
  <linearGradient id="bg" x1="1" x2="47" gradientTransform="matrix(0 -1 1 0 -1.5e-6 48)" gradientUnits="userSpaceOnUse">
   <stop style="stop-color:#e1ddb1" offset="0"/>
   <stop style="stop-color:#e7e4c0" offset="1"/>
  </linearGradient>
 </defs>
 <path d="m36.31 5c5.859 4.062 9.688 10.831 9.688 18.5 0 12.426-10.07 22.5-22.5 22.5-7.669 0-14.438-3.828-18.5-9.688 1.037 1.822 2.306 3.499 3.781 4.969 4.085 3.712 9.514 5.969 15.469 5.969 12.703 0 23-10.298 23-23 0-5.954-2.256-11.384-5.969-15.469-1.469-1.475-3.147-2.744-4.969-3.781zm4.969 3.781c3.854 4.113 6.219 9.637 6.219 15.719 0 12.703-10.297 23-23 23-6.081 0-11.606-2.364-15.719-6.219 4.16 4.144 9.883 6.719 16.219 6.719 12.703 0 23-10.298 23-23 0-6.335-2.575-12.06-6.719-16.219z" style="opacity:.05"/>
 <path d="m41.28 8.781c3.712 4.085 5.969 9.514 5.969 15.469 0 12.703-10.297 23-23 23-5.954 0-11.384-2.256-15.469-5.969 4.113 3.854 9.637 6.219 15.719 6.219 12.703 0 23-10.298 23-23 0-6.081-2.364-11.606-6.219-15.719z" style="opacity:.1"/>
 <path d="m31.25 2.375c8.615 3.154 14.75 11.417 14.75 21.13 0 12.426-10.07 22.5-22.5 22.5-9.708 0-17.971-6.135-21.12-14.75a23 23 0 0 0 44.875-7 23 23 0 0 0-16-21.875z" style="opacity:.2"/>
 <path d="m24 1c12.703 0 23 10.297 23 23s-10.297 23-23 23-23-10.297-23-23 10.297-23 23-23z" style="fill:url(#bg)"/>
 <path d="m40.03 7.531c3.712 4.084 5.969 9.514 5.969 15.469 0 12.703-10.297 23-23 23-5.954 0-11.384-2.256-15.469-5.969 4.178 4.291 10.01 6.969 16.469 6.969 12.703 0 23-10.298 23-23 0-6.462-2.677-12.291-6.969-16.469z" style="opacity:.1"/>
 <path d="m11 20.5v4c0 0.277 0.22333 0.4865 0.5 0.5l6.1562 0.30078c-0.42688 0.83601-0.65166 1.7605-0.65625 2.6992 0 3.3137 2.6863 6 6 6 2.9248-0.0038 5.4207-2.1161 5.9082-5h1.0918l9 4v-2l-7-5c1.1067 0.05399 2-0.892 2-2 0.554 0 1-0.446 1-1s-0.446-1-1-1c0-1.108-0.892-2-2-2zm7.7812 4.8555 2.2188 0.10938v1.166l-2.3984-0.99414c0.05675-0.09572 0.11668-0.18953 0.17969-0.28125zm-0.5625 1.2051 2.7812 1.1523v0.28711c0 0.09501 0.0087 0.18782 0.02148 0.2793l-2.8027 1.1602c-0.14276-0.46659-0.21646-0.95156-0.21875-1.4395 0.0023-0.48794 0.07598-0.97291 0.21875-1.4395zm8.502 2.4395h1.1602c-0.02658 0.14791-0.05982 0.29454-0.09961 0.43945zm-2.127 0.19922 2.8047 1.1641c-0.46426 0.86321-1.172 1.5709-2.0352 2.0352l-1.1621-2.8047c0.14714-0.11148 0.27988-0.2442 0.39258-0.39453zm-3.1895 2e-3c0.11267 0.14947 0.24506 0.28186 0.39453 0.39453l-1.1621 2.8027c-0.86321-0.46426-1.5709-1.172-2.0352-2.0352zm1.3164 0.77734c0.09148 0.01276 0.18429 0.02144 0.2793 0.02144 0.09456-2.65e-4 0.18725-0.0082 0.2793-0.02148l1.1602 2.8027c-0.46659 0.14276-0.95156 0.21646-1.4395 0.21875-0.48794-0.0023-0.97291-0.07599-1.4395-0.21875z" style="opacity:.1"/>
 <path d="m20 23v4c0 1.1046 0.89543 2 2 2 0.71257-2e-3 1.3703-0.38289 1.7266-1h5.2734l9 4v-2l-7-5z" style="fill:#876a45"/>
 <path d="m10.5 19c-0.277 0-0.5 0.223-0.5 0.5v4c0 0.277 0.22333 0.4865 0.5 0.5l20.5 1c1.1067 0.05399 2-0.892 2-2 0.554 0 1-0.446 1-1s-0.446-1-1-1c0-1.108-0.892-2-2-2z" style="fill:#595959"/>
 <path d="m23 22a6 6 0 0 0-4.7539 2.3633l1.2637 0.06836a5 5 0 0 1 1.127-0.83008l1.4395 3.4766-2.0762-0.86133v0.7832c0 0.10522 0.0097 0.20776 0.02539 0.30859l1.668 0.69141-1.0742 0.44531c0.33749 0.32256 0.78728 0.52724 1.2852 0.55078l0.17188-0.07227-0.03125 0.07227c0.69497-0.017709 1.333-0.39215 1.6816-0.99609h0.58008l3.4805-1.4414a5 5 0 0 1 0.21289 1.4414h1a6 6 0 0 0-6-6zm0 1a5 5 0 0 1 1.4414 0.21289l-1.4414 3.4805-1.4395-3.4746a5 5 0 0 1 1.4395-0.21875zm2.3652 0.5957a5 5 0 0 1 2.0391 2.0391l-3.4805 1.4414z" style="opacity:.1"/>
 <path d="m22 21a6 6 0 0 0-6 6 6 6 0 0 0 6 6 6 6 0 0 0 6-6 6 6 0 0 0-6-6zm0 1a5 5 0 0 1 1.4414 0.21289l-1.4414 3.4805-1.4395-3.4746a5 5 0 0 1 1.4395-0.21875zm2.3652 0.5957a5 5 0 0 1 2.0391 2.0391l-3.4805 1.4414zm-4.7285 0.0059 1.4395 3.4766-3.4746-1.4414a5 5 0 0 1 2.0352-2.0352zm7.1504 2.957a5 5 0 0 1 0.21289 1.4414 5 5 0 0 1-0.21875 1.4395l-3.4746-1.4395zm-9.5684 2e-3 3.4746 1.4394-3.4746 1.4395a5 5 0 0 1-0.21875-1.4395 5 5 0 0 1 0.21875-1.4395zm5.7051 2.3613 3.4746 1.4414a5 5 0 0 1-2.0352 2.0352zm-1.8477 2e-3 -1.4395 3.4746a5 5 0 0 1-2.0352-2.0352zm0.92383 0.38268 1.4395 3.4746a5 5 0 0 1-1.4395 0.21875 5 5 0 0 1-1.4395-0.21875z" style="fill:#b18a59"/>
 <circle cx="22" cy="27" r="1" style="fill:#816441"/>
</svg>
