<svg xmlns="http://www.w3.org/2000/svg" viewBox="0 0 48 48">
 <defs>
  <linearGradient id="linearGradient3764" x1="1" x2="47" gradientUnits="userSpaceOnUse" gradientTransform="matrix(0,-1,1,0,-1.5e-6,47.999998)">
   <stop style="stop-color:#575757;stop-opacity:1"/>
   <stop offset="1" style="stop-color:#616161;stop-opacity:1"/>
  </linearGradient>
 </defs>
 <g>
  <path d="m 36.31 5 c 5.859 4.062 9.688 10.831 9.688 18.5 c 0 12.426 -10.07 22.5 -22.5 22.5 c -7.669 0 -14.438 -3.828 -18.5 -9.688 c 1.037 1.822 2.306 3.499 3.781 4.969 c 4.085 3.712 9.514 5.969 15.469 5.969 c 12.703 0 23 -10.298 23 -23 c 0 -5.954 -2.256 -11.384 -5.969 -15.469 c -1.469 -1.475 -3.147 -2.744 -4.969 -3.781 z m 4.969 3.781 c 3.854 4.113 6.219 9.637 6.219 15.719 c 0 12.703 -10.297 23 -23 23 c -6.081 0 -11.606 -2.364 -15.719 -6.219 c 4.16 4.144 9.883 6.719 16.219 6.719 c 12.703 0 23 -10.298 23 -23 c 0 -6.335 -2.575 -12.06 -6.719 -16.219 z" style="opacity:0.05"/>
  <path d="m 41.28 8.781 c 3.712 4.085 5.969 9.514 5.969 15.469 c 0 12.703 -10.297 23 -23 23 c -5.954 0 -11.384 -2.256 -15.469 -5.969 c 4.113 3.854 9.637 6.219 15.719 6.219 c 12.703 0 23 -10.298 23 -23 c 0 -6.081 -2.364 -11.606 -6.219 -15.719 z" style="opacity:0.1"/>
  <path d="m 31.25 2.375 c 8.615 3.154 14.75 11.417 14.75 21.13 c 0 12.426 -10.07 22.5 -22.5 22.5 c -9.708 0 -17.971 -6.135 -21.12 -14.75 a 23 23 0 0 0 44.875 -7 a 23 23 0 0 0 -16 -21.875 z" style="opacity:0.2"/>
 </g>
 <g>
  <path d="m 24 1 c 12.703 0 23 10.297 23 23 c 0 12.703 -10.297 23 -23 23 -12.703 0 -23 -10.297 -23 -23 0 -12.703 10.297 -23 23 -23 z" style="fill:url(#linearGradient3764);fill-opacity:1"/>
 </g>
 <g>
  <g>
   <g transform="translate(1,1)">
    <g style="opacity:0.1">
     <!-- color: #616161 -->
     <g>
      <path d="m 25.5 19.5 c 0 0.828 -0.672 1.5 -1.5 1.5 c -0.828 0 -1.5 -0.672 -1.5 -1.5 c 0 -0.828 0.672 -1.5 1.5 -1.5 c 0.828 0 1.5 0.672 1.5 1.5 m 0 0" style="fill:#000;fill-opacity:1;stroke:none;fill-rule:nonzero"/>
     </g>
    </g>
   </g>
  </g>
 </g>
 <g>
  <g>
   <!-- color: #616161 -->
   <g>
    <g>
     <path d="m 25 12 c -1.152 0.697 -1.982 1.817 -2.736 2.906 l -0.004 0.001 c -1.676 2.553 -2.73 5.59 -2.578 8.67 c -0.008 0.128 0.063 0.298 -0.078 0.371 c -0.508 0.396 -1.012 0.802 -1.508 1.217 c -0.855 0.744 -1.265 1.963 -1.035 3.063 c 0.285 1.309 0.59 2.622 0.883 3.924 c 0.129 0.604 0.86 0.969 1.426 0.725 l 2.832 -2.076 c 0.807 0.748 1.629 1.191 2.801 1.191 c 1.172 0 2.086 -0.546 2.773 -1.209 l 2.715 2.01 c 0.554 0.442 1.488 0.123 1.648 -0.563 c 0.286 -1.349 0.543 -2.684 0.809 -4.03 c 0.196 -1.062 -0.18 -2.213 -0.98 -2.945 c -0.558 -0.477 -1.14 -0.934 -1.703 -1.41 c 0.215 -3.191 -0.854 -6.364 -2.604 -9.01 c -0.746 -1.065 -1.523 -2.169 -2.66 -2.848 z m 2.467 20.701 c -0.087 0 -0.176 0.02 -0.254 0.068 c -1.363 0.855 -3.078 0.844 -4.473 0.023 c -0.328 -0.211 -0.75 0.039 -0.742 0.43 l 0 2.773 c -0.004 0.402 0.464 0.547 0.777 0.293 c 0.238 -0.211 0.455 -0.418 0.678 -0.641 c 0.371 0.707 0.709 1.404 1.072 2.107 c 0.175 0.328 0.726 0.326 0.898 -0.001 c 0.367 -0.703 0.707 -1.395 1.066 -2.102 c 0.231 0.219 0.446 0.43 0.684 0.641 c 0.308 0.25 0.832 0.117 0.824 -0.289 c 0.004 -0.824 0.004 -1.979 0 -2.807 c -0.009 -0.284 -0.269 -0.487 -0.531 -0.488 z" style="fill:#000;fill-opacity:0.11;stroke:none;fill-rule:nonzero"/>
     <path d="m 21.261 13.906 c 0.754 -1.089 1.586 -2.209 2.737 -2.906 1.137 0.678 1.914 1.782 2.659 2.848 1.75 2.642 2.819 5.815 2.604 9.01 0.563 0.476 1.145 0.933 1.703 1.41 0.801 0.732 1.176 1.883 0.98 2.945 -0.266 1.341 -0.523 2.677 -0.809 4.03 -0.16 0.685 -1.094 1 -1.648 0.561 l -2.714 -2.01 c -0.688 0.663 -1.602 1.209 -2.774 1.209 -1.172 0 -1.994 -0.443 -2.801 -1.191 l -2.831 2.075 c -0.566 0.244 -1.297 -0.12 -1.426 -0.724 -0.293 -1.302 -0.598 -2.616 -0.883 -3.925 -0.23 -1.1 0.18 -2.317 1.035 -3.061 0.496 -0.415 1 -0.821 1.508 -1.217 0.141 -0.073 0.07 -0.244 0.078 -0.372 -0.152 -3.08 0.902 -6.118 2.577 -8.671" style="fill:#a7bfcb;fill-opacity:1;stroke:none;fill-rule:nonzero"/>
     <path d="m 21 32.23 c -0.008 -0.391 0.414 -0.641 0.742 -0.43 1.395 0.82 3.11 0.832 4.473 -0.023 0.313 -0.195 0.773 0.039 0.785 0.418 0.004 0.828 0.004 1.984 0 2.809 0.008 0.406 -0.516 0.539 -0.824 0.289 -0.238 -0.211 -0.453 -0.422 -0.684 -0.641 -0.359 0.707 -0.699 1.399 -1.066 2.102 -0.172 0.336 -0.723 0.336 -0.898 0.008 -0.363 -0.703 -0.703 -1.399 -1.074 -2.106 -0.223 0.223 -0.438 0.43 -0.676 0.641 c -0.313 0.254 -0.782 0.109 -0.778 -0.293" style="fill:#e7cc59;fill-opacity:1;stroke:none;fill-rule:nonzero"/>
     <path d="m 24 16 c 1 0 2.513 3 2.5 6 c -0.598 2.026 -4.306 2.161 -5 0 0.002 -3 1.5 -6 2.5 -6" style="fill:#b3eaf1;fill-opacity:1;stroke:none;fill-rule:nonzero"/>
    </g>
   </g>
  </g>
 </g>
 <g>
  <path d="m 40.03 7.531 c 3.712 4.084 5.969 9.514 5.969 15.469 0 12.703 -10.297 23 -23 23 c -5.954 0 -11.384 -2.256 -15.469 -5.969 4.178 4.291 10.01 6.969 16.469 6.969 c 12.703 0 23 -10.298 23 -23 0 -6.462 -2.677 -12.291 -6.969 -16.469 z" style="opacity:0.1"/>
 </g>
</svg>
