<svg xmlns="http://www.w3.org/2000/svg" version="1.1" xmlns:xlink="http://www.w3.org/1999/xlink" viewBox="0 0 48 48">
 <defs>
  <linearGradient id="linearGradient851" gradientUnits="userSpaceOnUse" gradientTransform="rotate(-90 24 24)" x2="47" x1="1">
   <stop style="stop-color:#b20a1b" offset="0"/>
   <stop style="stop-color:#c60b1e" offset="1"/>
  </linearGradient>
 </defs>
 <path style="opacity:.05" d="m36.31 5c5.859 4.062 9.688 10.831 9.688 18.5 0 12.426-10.07 22.5-22.5 22.5-7.669 0-14.438-3.828-18.5-9.688 1.037 1.822 2.306 3.499 3.781 4.969 4.085 3.712 9.514 5.969 15.469 5.969 12.703 0 23-10.298 23-23 0-5.954-2.256-11.384-5.969-15.469-1.469-1.475-3.147-2.744-4.969-3.781zm4.969 3.781c3.854 4.113 6.219 9.637 6.219 15.719 0 12.703-10.297 23-23 23-6.081 0-11.606-2.364-15.719-6.219 4.16 4.144 9.883 6.719 16.219 6.719 12.703 0 23-10.298 23-23 0-6.335-2.575-12.06-6.719-16.219z"/>
 <path style="opacity:.1" d="m41.28 8.781c3.712 4.085 5.969 9.514 5.969 15.469 0 12.703-10.297 23-23 23-5.954 0-11.384-2.256-15.469-5.969 4.113 3.854 9.637 6.219 15.719 6.219 12.703 0 23-10.298 23-23 0-6.081-2.364-11.606-6.219-15.719z"/>
 <path style="opacity:.2" d="m31.25 2.375c8.615 3.154 14.75 11.417 14.75 21.13 0 12.426-10.07 22.5-22.5 22.5-9.708 0-17.971-6.135-21.12-14.75a23 23 0 0 0 44.875 -7 23 23 0 0 0 -16 -21.875z"/>
 <path style="fill:url(#linearGradient851)" d="m24 1c-8.305 0-15.58 4.4027-19.623 11v0.002 23.996 0.002c4.0431 6.597 11.318 11 19.623 11s15.58-4.403 19.623-11v-0.002-23.996-0.002c-4.043-6.5973-11.318-11-19.623-11z"/>
 <path style="fill:#f7c313" d="m4.377 12c-2.1412 3.494-3.377 7.602-3.377 12s1.2358 8.506 3.377 12h39.246c2.141-3.494 3.377-7.602 3.377-12s-1.236-8.506-3.377-12h-39.246z"/>
 <path style="opacity:.1" d="m4.377 12c-0.2001 0.326-0.3844 0.663-0.5684 1h40.382c-0.184-0.337-0.368-0.674-0.568-1h-39.246z"/>
 <path style="opacity:.1" d="m40.03 7.531c3.712 4.084 5.969 9.514 5.969 15.469 0 12.703-10.297 23-23 23-5.954 0-11.384-2.256-15.469-5.969 4.178 4.291 10.01 6.969 16.469 6.969 12.703 0 23-10.298 23-23 0-6.462-2.677-12.291-6.969-16.469z"/>
</svg>
