<svg xmlns="http://www.w3.org/2000/svg" viewBox="0 0 48 48">
 <defs>
  <linearGradient id="linearGradient4555" x1="1" x2="47" gradientUnits="userSpaceOnUse">
   <stop style="stop-color:#ffd42a;stop-opacity:1"/>
   <stop offset="1" style="stop-color:#ffd42a;stop-opacity:0"/>
  </linearGradient>
  <linearGradient id="linearGradient4557" gradientUnits="userSpaceOnUse" y1="1" x2="0" y2="47">
   <stop style="stop-color:#fad750;stop-opacity:1"/>
   <stop offset="1" style="stop-color:#f9d33d;stop-opacity:1"/>
  </linearGradient>
 </defs>
 <g>
  <path d="m 36.31 5 c 5.859 4.062 9.688 10.831 9.688 18.5 c 0 12.426 -10.07 22.5 -22.5 22.5 c -7.669 0 -14.438 -3.828 -18.5 -9.688 c 1.037 1.822 2.306 3.499 3.781 4.969 c 4.085 3.712 9.514 5.969 15.469 5.969 c 12.703 0 23 -10.298 23 -23 c 0 -5.954 -2.256 -11.384 -5.969 -15.469 c -1.469 -1.475 -3.147 -2.744 -4.969 -3.781 z m 4.969 3.781 c 3.854 4.113 6.219 9.637 6.219 15.719 c 0 12.703 -10.297 23 -23 23 c -6.081 0 -11.606 -2.364 -15.719 -6.219 c 4.16 4.144 9.883 6.719 16.219 6.719 c 12.703 0 23 -10.298 23 -23 c 0 -6.335 -2.575 -12.06 -6.719 -16.219 z" style="opacity:0.05"/>
  <path d="m 41.28 8.781 c 3.712 4.085 5.969 9.514 5.969 15.469 c 0 12.703 -10.297 23 -23 23 c -5.954 0 -11.384 -2.256 -15.469 -5.969 c 4.113 3.854 9.637 6.219 15.719 6.219 c 12.703 0 23 -10.298 23 -23 c 0 -6.081 -2.364 -11.606 -6.219 -15.719 z" style="opacity:0.1"/>
  <path d="m 31.25 2.375 c 8.615 3.154 14.75 11.417 14.75 21.13 c 0 12.426 -10.07 22.5 -22.5 22.5 c -9.708 0 -17.971 -6.135 -21.12 -14.75 a 23 23 0 0 0 44.875 -7 a 23 23 0 0 0 -16 -21.875 z" style="opacity:0.2"/>
 </g>
 <g style="fill:url(#linearGradient4555)">
  <path d="m 24 1 c 12.703 0 23 10.297 23 23 c 0 12.703 -10.297 23 -23 23 -12.703 0 -23 -10.297 -23 -23 0 -12.703 10.297 -23 23 -23 z" style="fill:url(#linearGradient4557);fill-opacity:1"/>
 </g>
 <g>
  <path d="m 40.03 7.531 c 3.712 4.084 5.969 9.514 5.969 15.469 0 12.703 -10.297 23 -23 23 c -5.954 0 -11.384 -2.256 -15.469 -5.969 4.178 4.291 10.01 6.969 16.469 6.969 c 12.703 0 23 -10.298 23 -23 0 -6.462 -2.677 -12.291 -6.969 -16.469 z" style="opacity:0.1"/>
 </g>
 <g transform="translate(1,1)" style="fill:#000;opacity:0.1">
  <path d="m 23 11 l -0.965 2.895 a 11.5 11.5 0 0 0 -2.781 1.16 l -2.738 -1.369 l -2.83 2.83 l 1.367 2.734 a 11.5 11.5 0 0 0 -1.148 2.781 l -2.902 0.969 l 0 4 l 2.895 0.965 a 11.5 11.5 0 0 0 1.16 2.781 l -1.369 2.738 l 2.83 2.83 l 2.734 -1.367 a 11.5 11.5 0 0 0 2.779 1.148 l 0.971 2.902 l 4 0 l 0.965 -2.895 a 11.5 11.5 0 0 0 2.779 -1.16 l 2.738 1.369 l 2.83 -2.83 l -1.367 -2.734 a 11.5 11.5 0 0 0 1.148 -2.779 l 2.904 -0.971 l 0 -4 l -2.895 -0.965 a 11.5 11.5 0 0 0 -1.16 -2.779 l 1.369 -2.738 l -2.83 -2.83 l -2.734 1.367 a 11.5 11.5 0 0 0 -2.781 -1.148 l -0.969 -2.904 l -4 0 z m 2 6 a 8 8 0 0 1 4.107 1.145 l -4.107 9.855 l -4.107 -9.855 a 8 8 0 0 1 4.107 -1.145 z m -7.395 4.955 l 4.395 10.04 l 6 0 l 4.393 -10.04 a 8 8 0 0 1 0.607 3.041 a 8 8 0 0 1 -8 8 a 8 8 0 0 1 -8 -8 a 8 8 0 0 1 0.605 -3.045 z" transform="translate(-1,-1)" style="opacity:1;fill-opacity:1;stroke:none"/>
 </g>
 <g>
  <path d="m 22 10 l -0.965 2.895 a 11.5 11.5 0 0 0 -2.781 1.16 l -2.738 -1.369 l -2.83 2.83 l 1.367 2.734 a 11.5 11.5 0 0 0 -1.148 2.781 l -2.904 0.969 l 0 4 l 2.895 0.965 a 11.5 11.5 0 0 0 1.16 2.781 l -1.369 2.738 l 2.83 2.83 l 2.734 -1.367 a 11.5 11.5 0 0 0 2.781 1.148 l 0.969 2.904 l 4 0 l 0.965 -2.895 a 11.5 11.5 0 0 0 2.781 -1.16 l 2.738 1.369 l 2.83 -2.83 l -1.367 -2.734 a 11.5 11.5 0 0 0 1.148 -2.781 l 2.904 -0.969 l 0 -4 l -2.895 -0.965 a 11.5 11.5 0 0 0 -1.16 -2.781 l 1.369 -2.738 l -2.83 -2.83 l -2.734 1.367 a 11.5 11.5 0 0 0 -2.781 -1.148 l -0.969 -2.904 l -4 0 z m 2 6 a 8 8 0 0 1 8 8 a 8 8 0 0 1 -8 8 a 8 8 0 0 1 -8 -8 a 8 8 0 0 1 8 -8 z" style="fill:#b545ab;opacity:1;fill-opacity:1;stroke:none"/>
  <path d="m 14 15 5 0 5 12 5 -12 5 0 -7 16 -6 0 z" style="fill:#e44040;fill-opacity:1;stroke:none;fill-rule:evenodd"/>
 </g>
</svg>
