<svg version="1.1" viewBox="0 0 48 48" xmlns="http://www.w3.org/2000/svg">
 <defs>
  <linearGradient id="bg" x2="0" y1="1" y2="47" gradientUnits="userSpaceOnUse">
   <stop style="stop-color:#8a3838" offset="0"/>
   <stop style="stop-color:#7c3232" offset="1"/>
  </linearGradient>
 </defs>
 <path d="m36.31 5c5.859 4.062 9.688 10.831 9.688 18.5 0 12.426-10.07 22.5-22.5 22.5-7.669 0-14.438-3.828-18.5-9.688 1.037 1.822 2.306 3.499 3.781 4.969 4.085 3.712 9.514 5.969 15.469 5.969 12.703 0 23-10.298 23-23 0-5.954-2.256-11.384-5.969-15.469-1.469-1.475-3.147-2.744-4.969-3.781zm4.969 3.781c3.854 4.113 6.219 9.637 6.219 15.719 0 12.703-10.297 23-23 23-6.081 0-11.606-2.364-15.719-6.219 4.16 4.144 9.883 6.719 16.219 6.719 12.703 0 23-10.298 23-23 0-6.335-2.575-12.06-6.719-16.219z" style="opacity:.05"/>
 <path d="m41.28 8.781c3.712 4.085 5.969 9.514 5.969 15.469 0 12.703-10.297 23-23 23-5.954 0-11.384-2.256-15.469-5.969 4.113 3.854 9.637 6.219 15.719 6.219 12.703 0 23-10.298 23-23 0-6.081-2.364-11.606-6.219-15.719z" style="opacity:.1"/>
 <path d="m31.25 2.375c8.615 3.154 14.75 11.417 14.75 21.13 0 12.426-10.07 22.5-22.5 22.5-9.708 0-17.971-6.135-21.12-14.75a23 23 0 0 0 44.875-7 23 23 0 0 0-16-21.875z" style="opacity:.2"/>
 <circle cx="24" cy="24" r="23" style="fill:url(#bg)"/>
 <path d="m40.03 7.531c3.712 4.084 5.969 9.514 5.969 15.469 0 12.703-10.297 23-23 23-5.954 0-11.384-2.256-15.469-5.969 4.178 4.291 10.01 6.969 16.469 6.969 12.703 0 23-10.298 23-23 0-6.462-2.677-12.291-6.969-16.469z" style="opacity:.1"/>
 <path d="m23 11c2.4248 3.8172 5 7 5 13 1.2447-1.3087 2-4 2-6 1 1 3 5 3 11 0 3-2 7-4 8h-7c-2.4354-2.4065-5-5-5-9 0-6 6-8 6-17z" style="opacity:.1;paint-order:normal"/>
 <path d="m22 10c2.4248 3.8172 5 7 5 13 1.2447-1.3087 2-4 2-6 1 1 3 5 3 11 0 3-2 7-4 8h-7c-2.4354-2.4065-5-5-5-9 0-6 6-8 6-17z" style="fill:#f16843;paint-order:normal"/>
 <path d="m28 32.5c0 1-1 2.5-3.5 2.5s-3.5-1-3.5-2c0-4 2-7 4-9 0.75455 3 3 6.2909 3 8.5z" style="opacity:.1;paint-order:normal"/>
 <path d="m27 31.5c0 1-1 2.5-3.5 2.5s-3.5-1-3.5-2c0-4 2-7 4-9 0.75455 3 3 6.2909 3 8.5z" style="fill:#f6a04c;paint-order:normal"/>
 <path d="m25 26.5c-1.3519 0.85399-3 3.4996-3 5.8633 0 0.72559 0.56682 1.4486 1.9395 1.6035 1.961-0.15436 2.8739-1.2776 3.0273-2.1875-0.17429-1.1398-1.9668-2.8844-1.9668-5.2793z" style="opacity:.1;paint-order:normal"/>
 <path d="m26 30.955c0 0.81818-0.71429 2.0455-2.5 2.0455s-2.5-0.81818-2.5-1.6364c0-2.3636 1.6481-5.0096 3-5.8636 0 2.5159 2 4.3221 2 5.4545z" style="fill:#fbd45c;paint-order:normal"/>
</svg>
