<svg version="1.1" viewBox="0 0 48 48" xmlns="http://www.w3.org/2000/svg">
 <defs>
  <linearGradient id="bg" x2="0" y1="1" y2="47" gradientUnits="userSpaceOnUse">
   <stop style="stop-color:#9c3f3f" offset="0"/>
   <stop style="stop-color:#8e3939" offset="1"/>
  </linearGradient>
 </defs>
 <path d="m36.3 5c5.86 4.06 9.69 10.8 9.69 18.5 0 12.4-10.1 22.5-22.5 22.5-7.67 0-14.4-3.83-18.5-9.69 1.04 1.82 2.31 3.5 3.78 4.97 4.08 3.71 9.51 5.97 15.5 5.97 12.7 0 23-10.3 23-23 0-5.95-2.26-11.4-5.97-15.5-1.47-1.48-3.15-2.74-4.97-3.78zm4.97 3.78c3.85 4.11 6.22 9.64 6.22 15.7 0 12.7-10.3 23-23 23-6.08 0-11.6-2.36-15.7-6.22 4.16 4.14 9.88 6.72 16.2 6.72 12.7 0 23-10.3 23-23 0-6.34-2.58-12.1-6.72-16.2z" style="opacity:.05"/>
 <path d="m41.3 8.78c3.71 4.08 5.97 9.51 5.97 15.5 0 12.7-10.3 23-23 23-5.95 0-11.4-2.26-15.5-5.97 4.11 3.85 9.64 6.22 15.7 6.22 12.7 0 23-10.3 23-23 0-6.08-2.36-11.6-6.22-15.7z" style="opacity:.1"/>
 <path d="m31.2 2.38c8.62 3.15 14.8 11.4 14.8 21.1 0 12.4-10.1 22.5-22.5 22.5-9.71 0-18-6.14-21.1-14.8a23 23 0 0 0 44.9-7 23 23 0 0 0-16-21.9z" style="opacity:.2"/>
 <circle cx="24" cy="24" r="23" style="fill:url(#bg)"/>
 <path d="m40 7.53c3.71 4.08 5.97 9.51 5.97 15.5 0 12.7-10.3 23-23 23-5.95 0-11.4-2.26-15.5-5.97 4.18 4.29 10 6.97 16.5 6.97 12.7 0 23-10.3 23-23 0-6.46-2.68-12.3-6.97-16.5z" style="opacity:.1"/>
 <path d="m23 11c2.42 3.82 5 7 5 13 1.24-1.31 2-4 2-6 1 1 3 5 3 11 0 3-2 7-4 8h-7c-2.44-2.41-5-5-5-9 0-6 6-8 6-17z" style="opacity:.1;paint-order:normal"/>
 <path d="m22 10c2.42 3.82 5 7 5 13 1.24-1.31 2-4 2-6 1 1 3 5 3 11 0 3-2 7-4 8h-7c-2.44-2.41-5-5-5-9 0-6 6-8 6-17z" style="fill:#f37a59;paint-order:normal"/>
 <path d="m28 32.5c0 1-1 2.5-3.5 2.5s-3.5-1-3.5-2c0-4 2-7 4-9 0.755 3 3 6.29 3 8.5z" style="opacity:.1;paint-order:normal"/>
 <path d="m27 31.5c0 1-1 2.5-3.5 2.5s-3.5-1-3.5-2c0-4 2-7 4-9 0.755 3 3 6.29 3 8.5z" style="fill:#f7ad64;paint-order:normal"/>
 <path d="m25 26.5c-1.35 0.854-3 3.5-3 5.86 0 0.726 0.567 1.45 1.94 1.6 1.96-0.154 2.87-1.28 3.03-2.19-0.174-1.14-1.97-2.88-1.97-5.28z" style="opacity:.1;paint-order:normal"/>
 <path d="m26 31c0 0.818-0.714 2.05-2.5 2.05s-2.5-0.818-2.5-1.64c0-2.36 1.65-5.01 3-5.86 0 2.52 2 4.32 2 5.45z" style="fill:#fcda73;paint-order:normal"/>
</svg>
