<svg xmlns="http://www.w3.org/2000/svg" viewBox="0 0 48 48">
 <defs>
  <linearGradient id="linearGradient3764" x1="1" x2="47" gradientUnits="userSpaceOnUse" gradientTransform="matrix(0,-1,1,0,-1.5e-6,47.999998)">
   <stop style="stop-color:#6398c9;stop-opacity:1"/>
   <stop offset="1" style="stop-color:#72a2cf;stop-opacity:1"/>
  </linearGradient>
 </defs>
 <g>
  <path d="m 36.31 5 c 5.859 4.062 9.688 10.831 9.688 18.5 c 0 12.426 -10.07 22.5 -22.5 22.5 c -7.669 0 -14.438 -3.828 -18.5 -9.688 c 1.037 1.822 2.306 3.499 3.781 4.969 c 4.085 3.712 9.514 5.969 15.469 5.969 c 12.703 0 23 -10.298 23 -23 c 0 -5.954 -2.256 -11.384 -5.969 -15.469 c -1.469 -1.475 -3.147 -2.744 -4.969 -3.781 z m 4.969 3.781 c 3.854 4.113 6.219 9.637 6.219 15.719 c 0 12.703 -10.297 23 -23 23 c -6.081 0 -11.606 -2.364 -15.719 -6.219 c 4.16 4.144 9.883 6.719 16.219 6.719 c 12.703 0 23 -10.298 23 -23 c 0 -6.335 -2.575 -12.06 -6.719 -16.219 z" style="opacity:0.05"/>
  <path d="m 41.28 8.781 c 3.712 4.085 5.969 9.514 5.969 15.469 c 0 12.703 -10.297 23 -23 23 c -5.954 0 -11.384 -2.256 -15.469 -5.969 c 4.113 3.854 9.637 6.219 15.719 6.219 c 12.703 0 23 -10.298 23 -23 c 0 -6.081 -2.364 -11.606 -6.219 -15.719 z" style="opacity:0.1"/>
  <path d="m 31.25 2.375 c 8.615 3.154 14.75 11.417 14.75 21.13 c 0 12.426 -10.07 22.5 -22.5 22.5 c -9.708 0 -17.971 -6.135 -21.12 -14.75 a 23 23 0 0 0 44.875 -7 a 23 23 0 0 0 -16 -21.875 z" style="opacity:0.2"/>
 </g>
 <g>
  <path d="m 24 1 c 12.703 0 23 10.297 23 23 c 0 12.703 -10.297 23 -23 23 -12.703 0 -23 -10.297 -23 -23 0 -12.703 10.297 -23 23 -23 z" style="fill:url(#linearGradient3764);fill-opacity:1"/>
 </g>
 <g>
  <g>
   <g transform="translate(1,1)">
    <g style="opacity:0.1">
     <!-- color: #72a2cf -->
     <g>
      <path d="m 16 13 c -1 0 -1 0.461 -1.25 1 l -1.75 7 l -0.004 0 l 0 15.11 c 0 0.492 0.395 0.887 0.887 0.887 l 22.23 0 c 0.492 0 0.887 -0.395 0.887 -0.887 l 0 -15.11 l -1.75 -7 c -0.25 -0.48 -0.25 -1 -1.25 -1 l -18 0 z" transform="translate(-1,-1)" style="fill:#000;fill-opacity:1;stroke:none;fill-rule:nonzero"/>
      <path d="m 21.5 12 l 5.102 0 l 0.398 13 l -3 -3 l -3 3 m 0.5 -13" style="fill:#000;fill-opacity:0.8;stroke:none;fill-rule:nonzero"/>
      <path d="m 21.19 20 -0.188 5 3 -3 3 3 -0.156 -5 m -5.656 0" style="fill:#000;fill-opacity:0.051;stroke:none;fill-rule:nonzero"/>
     </g>
    </g>
   </g>
  </g>
 </g>
 <path d="M 15 12 C 14 12 14 12.461 13.75 13 L 12 20 L 24 23 L 36 20 L 34.25 13 C 34 12.52 34 12 33 12 L 15 12 z " style="fill:#dab78b;fill-opacity:1;stroke:none;fill-rule:nonzero"/>
 <path d="m 36 20 0 15.11 c 0 0.492 -0.395 0.887 -0.887 0.887 l -22.23 0 c -0.492 0 -0.887 -0.395 -0.887 -0.887 0 -4.371 0 9.18 0 -15.11 m 24 0" style="fill:#b99a75;fill-opacity:1;stroke:none;fill-rule:nonzero"/>
 <g>
  <path d="m 40.03 7.531 c 3.712 4.084 5.969 9.514 5.969 15.469 0 12.703 -10.297 23 -23 23 c -5.954 0 -11.384 -2.256 -15.469 -5.969 4.178 4.291 10.01 6.969 16.469 6.969 c 12.703 0 23 -10.298 23 -23 0 -6.462 -2.677 -12.291 -6.969 -16.469 z" style="opacity:0.1"/>
 </g>
 <path d="m 21.301 21 a 0.281 0.281 0 0 0 -0.275 0.24 l -1.187 8.01 -0.75 -4.4 a 0.281 0.281 0 0 0 -0.551 -0.01 l -0.695 3.356 -0.451 -1.782 a 0.281 0.281 0 0 0 -0.531 -0.041 l -0.836 1.987 a 0.281 0.281 0 1 0 0.517 0.219 l 0.512 -1.215 0.545 2.153 a 0.281 0.281 0 0 0 0.549 -0.012 l 0.638 -3.093 0.793 4.667 a 0.281 0.281 0 0 0 0.555 -0.006 l 1.088 -7.326 0.886 11 a 0.281 0.281 0 0 0 0.558 0.008 l 1.015 -9.219 0.894 6.558 a 0.281 0.281 0 0 0 0.555 0.014 l 0.957 -5.238 0.625 3.431 a 0.281 0.281 0 0 0 0.549 0.018 l 0.711 -2.843 0.201 1.645 a 0.281 0.281 0 0 0 0.541 0.064 l 0.633 -1.67 0.275 1.311 a 0.281 0.281 0 0 0 0.531 0.059 l 0.541 -1.188 0.373 0.797 a 0.281 0.281 0 0 0 0.474 0.057 l 0.531 -0.668 0.402 0.662 a 0.281 0.281 0 1 0 0.48 -0.291 L 32.34 27.25 a 0.281 0.281 0 0 0 -0.461 -0.029 l -0.498 0.625 -0.439 -0.94 a 0.281 0.281 0 0 0 -0.51 0.002 l -0.441 0.969 -0.297 -1.414 a 0.281 0.281 0 0 0 -0.537 -0.041 l -0.568 1.502 -0.246 -2.02 a 0.281 0.281 0 0 0 -0.553 -0.033 l -0.762 3.054 -0.668 -3.665 a 0.281 0.281 0 0 0 -0.553 0 l -0.918 5.02 -0.965 -7.08 a 0.281 0.281 0 0 0 -0.556 0.008 l -0.941 8.555 -0.847 -10.501 a 0.281 0.281 0 0 0 -0.283 -0.258 z" mix-blend-mode="normal" isolation="auto" white-space="normal" solid-opacity="1" solid-color="#000000" style="visibility:visible;shape-rendering:auto;color-interpolation-filters:linearRGB;fill:#3c1e1e;opacity:1;image-rendering:auto;fill-opacity:1;stroke:none;display:inline;color:#000;fill-rule:evenodd;color-rendering:auto;color-interpolation:sRGB"/>
 <path d="m 13.25 15 l -0.5 2 l 22.5 0 l -0.5 -2 l -21.5 0 z" style="fill:#3c1e1e;opacity:1;fill-opacity:1;stroke:none"/>
 <rect width="24" height="1" x="12" y="28" style="fill:#3c1e1e;opacity:1;fill-opacity:1;stroke:none"/>
</svg>
