<svg version="1.1" viewBox="0 0 48 48" xmlns="http://www.w3.org/2000/svg">
 <defs>
  <linearGradient id="bg" x1="1" x2="47" gradientTransform="matrix(0 -1 1 0 -1.5e-6 48)" gradientUnits="userSpaceOnUse">
   <stop style="stop-color:#6398c9" offset="0"/>
   <stop style="stop-color:#72a2cf" offset="1"/>
  </linearGradient>
 </defs>
 <path d="m36.31 5c5.859 4.062 9.688 10.831 9.688 18.5 0 12.426-10.07 22.5-22.5 22.5-7.669 0-14.438-3.828-18.5-9.688 1.037 1.822 2.306 3.499 3.781 4.969 4.085 3.712 9.514 5.969 15.469 5.969 12.703 0 23-10.298 23-23 0-5.954-2.256-11.384-5.969-15.469-1.469-1.475-3.147-2.744-4.969-3.781zm4.969 3.781c3.854 4.113 6.219 9.637 6.219 15.719 0 12.703-10.297 23-23 23-6.081 0-11.606-2.364-15.719-6.219 4.16 4.144 9.883 6.719 16.219 6.719 12.703 0 23-10.298 23-23 0-6.335-2.575-12.06-6.719-16.219z" style="opacity:.05"/>
 <path d="m41.28 8.781c3.712 4.085 5.969 9.514 5.969 15.469 0 12.703-10.297 23-23 23-5.954 0-11.384-2.256-15.469-5.969 4.113 3.854 9.637 6.219 15.719 6.219 12.703 0 23-10.298 23-23 0-6.081-2.364-11.606-6.219-15.719z" style="opacity:.1"/>
 <path d="m31.25 2.375c8.615 3.154 14.75 11.417 14.75 21.13 0 12.426-10.07 22.5-22.5 22.5-9.708 0-17.971-6.135-21.12-14.75a23 23 0 0 0 44.875-7 23 23 0 0 0-16-21.875z" style="opacity:.2"/>
 <path d="m24 1c12.703 0 23 10.297 23 23s-10.297 23-23 23-23-10.297-23-23 10.297-23 23-23z" style="fill:url(#bg)"/>
 <g transform="translate(1,1)">
  <g style="opacity:.1">
   <path transform="translate(-1,-1)" d="m13 21-4e-3 15.11c0 0.492 0.395 0.887 0.887 0.887h22.23c0.492 0 0.887-0.395 0.887-0.887v-15.11l-1.75-7c-0.25-0.48-0.25-1-1.25-1z"/>
  </g>
 </g>
 <path d="m15 12c-1 0-1 0.461-1.25 1l-1.75 7 12 3 12-3-1.75-7c-0.25-0.48-0.25-1-1.25-1h-18z" style="fill:#dab78b"/>
 <path d="m36.004 20v15.11c0 0.492-0.395 0.887-0.887 0.887h-22.23c-0.492 0-0.887-0.395-0.887-0.887v-15.11m24 0" style="fill:#b99a75"/>
 <path d="m40.03 7.531c3.712 4.084 5.969 9.514 5.969 15.469 0 12.703-10.297 23-23 23-5.954 0-11.384-2.256-15.469-5.969 4.178 4.291 10.01 6.969 16.469 6.969 12.703 0 23-10.298 23-23 0-6.462-2.677-12.291-6.969-16.469z" style="opacity:.1"/>
 <path d="m21.301 21a0.281 0.281 0 0 0-0.275 0.24l-1.187 8.01-0.75-4.4a0.281 0.281 0 0 0-0.551-0.01l-0.695 3.356-0.451-1.782a0.281 0.281 0 0 0-0.531-0.041l-0.836 1.987a0.281 0.281 0 1 0 0.517 0.219l0.512-1.215 0.545 2.153a0.281 0.281 0 0 0 0.549-0.012l0.638-3.093 0.793 4.667a0.281 0.281 0 0 0 0.555-6e-3l1.088-7.326 0.886 11a0.281 0.281 0 0 0 0.558 8e-3l1.015-9.219 0.894 6.558a0.281 0.281 0 0 0 0.555 0.014l0.957-5.238 0.625 3.431a0.281 0.281 0 0 0 0.549 0.018l0.711-2.843 0.201 1.645a0.281 0.281 0 0 0 0.541 0.064l0.633-1.67 0.275 1.311a0.281 0.281 0 0 0 0.531 0.059l0.541-1.188 0.373 0.797a0.281 0.281 0 0 0 0.474 0.057l0.531-0.668 0.402 0.662a0.281 0.281 0 1 0 0.48-0.291l-0.614-1.004a0.281 0.281 0 0 0-0.461-0.029l-0.498 0.625-0.439-0.94a0.281 0.281 0 0 0-0.51 2e-3l-0.441 0.969-0.297-1.414a0.281 0.281 0 0 0-0.537-0.041l-0.568 1.502-0.246-2.02a0.281 0.281 0 0 0-0.553-0.033l-0.762 3.054-0.668-3.665a0.281 0.281 0 0 0-0.553 0l-0.918 5.02-0.965-7.08a0.281 0.281 0 0 0-0.556 8e-3l-0.941 8.555-0.847-10.501a0.281 0.281 0 0 0-0.283-0.258z" solid-color="#000000" style="color-rendering:auto;fill-rule:evenodd;fill:#3c1e1e;image-rendering:auto;shape-rendering:auto" isolation="auto" mix-blend-mode="normal" white-space="normal"/>
 <path d="m13.25 15-0.5 2h22.5l-0.5-2h-21.5z" style="fill:#3c1e1e"/>
 <rect x="12" y="28" width="24" height="1" style="fill:#3c1e1e"/>
</svg>
