<svg version="1.1" viewBox="0 0 48 48" xmlns="http://www.w3.org/2000/svg">
 <defs>
  <linearGradient id="bg" x1="1" x2="47" gradientTransform="matrix(0 -1 1 0 -1.5e-6 48)" gradientUnits="userSpaceOnUse">
   <stop style="stop-color:#e4e4e4" offset="0"/>
   <stop style="stop-color:#eee" offset="1"/>
  </linearGradient>
 </defs>
 <path d="m36.31 5c5.859 4.062 9.688 10.831 9.688 18.5 0 12.426-10.07 22.5-22.5 22.5-7.669 0-14.438-3.828-18.5-9.688 1.037 1.822 2.306 3.499 3.781 4.969 4.085 3.712 9.514 5.969 15.469 5.969 12.703 0 23-10.298 23-23 0-5.954-2.256-11.384-5.969-15.469-1.469-1.475-3.147-2.744-4.969-3.781zm4.969 3.781c3.854 4.113 6.219 9.637 6.219 15.719 0 12.703-10.297 23-23 23-6.081 0-11.606-2.364-15.719-6.219 4.16 4.144 9.883 6.719 16.219 6.719 12.703 0 23-10.298 23-23 0-6.335-2.575-12.06-6.719-16.219z" style="opacity:.05"/>
 <path d="m41.28 8.781c3.712 4.085 5.969 9.514 5.969 15.469 0 12.703-10.297 23-23 23-5.954 0-11.384-2.256-15.469-5.969 4.113 3.854 9.637 6.219 15.719 6.219 12.703 0 23-10.298 23-23 0-6.081-2.364-11.606-6.219-15.719z" style="opacity:.1"/>
 <path d="m31.25 2.375c8.615 3.154 14.75 11.417 14.75 21.13 0 12.426-10.07 22.5-22.5 22.5-9.708 0-17.971-6.135-21.12-14.75a23 23 0 0 0 44.875-7 23 23 0 0 0-16-21.875z" style="opacity:.2"/>
 <path d="m24 1c12.703 0 23 10.297 23 23s-10.297 23-23 23-23-10.297-23-23 10.297-23 23-23z" style="fill:url(#bg)"/>
 <path d="m24 1v7h-7v-5.906c-0.337 0.108-0.67 0.221-1 0.344v5.563h-7v-1.438c-0.346 0.298-0.673 0.62-1 0.938v0.5h-0.5c-0.318 0.327-0.64 0.654-0.938 1h1.438v7h-5.563c-0.123 0.33-0.236 0.663-0.344 1h5.906v7h-7c0 0.334 0.017 0.669 0.031 1h6.969v7h-5.563c0.127 0.342 0.264 0.666 0.406 1h5.156v7h-0.5c0.481 0.496 0.976 0.986 1.5 1.438v-0.438h7v4.563c0.33 0.123 0.663 0.236 1 0.344v-4.906h7v6c0.334 0 0.669-0.017 1-0.031v-5.969h7v4.563c0.342-0.127 0.666-0.264 1-0.406v-4.156h6.5c0.522-0.476 1.024-0.978 1.5-1.5v-6.5h4.156c0.142-0.334 0.279-0.658 0.406-1h-4.563v-7h5.969c0.014-0.331 0.031-0.666 0.031-1h-6v-7h4.906c-0.108-0.337-0.221-0.67-0.344-1h-4.563v-7h0.438c-0.451-0.524-0.941-1.019-1.438-1.5v0.5h-7v-5.156c-0.334-0.142-0.658-0.279-1-0.406v5.563h-7v-6.969c-0.331-0.014-0.666-0.031-1-0.031zm-15 8h7v7h-7v-7zm8 0h7v7h-7v-7zm8 0h7v7h-7v-7zm8 0h7v7h-7v-7zm-24 8h7v7h-7v-7zm8 0h7v7h-7v-7zm8 0h7v7h-7v-7zm8 0h7v7h-7v-7zm-24 8h7v7h-7v-7zm8 0h7v7h-7v-7zm8 0h7v7h-7v-7zm8 0h7v7h-7v-7zm-24 8h7v7h-7v-7zm8 0h7v7h-7v-7zm8 0h7v7h-7v-7zm8 0h7v7h-7v-7z" style="fill:#a0dad0"/>
 <path d="m40.03 7.531c3.712 4.084 5.969 9.514 5.969 15.469 0 12.703-10.297 23-23 23-5.954 0-11.384-2.256-15.469-5.969 4.178 4.291 10.01 6.969 16.469 6.969 12.703 0 23-10.298 23-23 0-6.462-2.677-12.291-6.969-16.469z" style="opacity:.1"/>
 <path d="m17 14v13l4.02-2e-3c0.075 1.291 0.438 2.576 1.117 3.752 0.32232 0.61616 1.238 0.08684 0.865-0.5-0.589-1.02-0.898-2.134-0.973-3.252l7.969-2e-3v-7.963c1.117 0.075 2.231 0.382 3.25 0.971 2.942 1.698 4.373 5.156 3.494 8.438-0.879 3.281-3.847 5.559-7.244 5.559-0.17045-0.0022-0.33026 0.08263-0.424 0.225l-4.08-1.221-12.029 2e-3s-0.968 0.243-0.968 1.496c0 1.209 1.038 1.498 1.038 1.498h11.958l4.08-1.223c0.09421 0.14161 0.25394 0.22562 0.424 0.223 3.845 0 7.214-2.587 8.209-6.301 0.249-0.928 0.334-1.869 0.27-2.789-0.194-2.761-1.731-5.33-4.229-6.771-1.174-0.678-2.46-1.042-3.75-1.117v-4.02zm1 1h11v3.02c-2.026 0.12-4 0.961-5.512 2.473-1.51 1.51-2.35 3.481-2.471 5.506h-3.02zm11 4.04v6.957h-6.961c0.119-1.764 0.837-3.48 2.156-4.799 1.321-1.321 3.038-2.04 4.805-2.158z" style="fill-opacity:.098"/>
 <path d="m16 13v13l4.0156-0.001953c0.074935 1.2915 0.44397 2.5778 1.123 3.7539a0.5 0.5 0 0 0 0.68164 0.18359 0.5 0.5 0 0 0 0.18359-0.68359c-0.58958-1.0211-0.91026-2.1347-0.98438-3.2539l7.9805-0.001953v-7.9707c1.1172 0.074875 2.2288 0.39389 3.248 0.98242 2.9418 1.6986 4.3735 5.1544 3.4941 8.4355-0.87932 3.2809-3.8474 5.5585-7.2441 5.5586a0.5 0.5 0 0 0-0.5 0.5 0.5 0.5 0 0 0 0.5 0.5c3.8444-1.38e-4 7.2157-2.5854 8.2109-6.2988 0.9953-3.7137-0.63136-7.64-3.9609-9.5625-1.1747-0.67828-2.4585-1.0459-3.748-1.1211v-4.0195h-13zm1 1h11v3.0195c-0.20367 0.01208-0.40716 0.030026-0.60938 0.056641-1.8091 0.2381-3.543 1.0567-4.9023 2.416-1.5098 1.5099-2.3497 3.48-2.4707 5.5039h-3.0176v-10.996zm11 4.0234v6.9727h-6.9805c0.11962-1.7637 0.85684-3.4779 2.1758-4.7969 1.321-1.3209 3.0383-2.0578 4.8047-2.1758z" style="fill:#4d4d4d"/>
 <path d="m11.965 32.01s-0.965 0.243-0.965 1.496c0 1.209 1.035 1.499 1.035 1.499h11.961c0.548-1 0.481-2 0-2.997" style="fill:#334899"/>
 <path d="m24 35 2.5-0.749c0.252-0.487 0.254-0.82 0-1.499l-2.5-0.749" style="fill:#ead095"/>
 <path d="m26.5 34.25 2.5-0.751-2.5-0.748" style="fill:#4d4d4d"/>
</svg>
