<svg xmlns="http://www.w3.org/2000/svg" viewBox="0 0 48 48">
 <defs>
  <linearGradient id="linearGradient3904" gradientUnits="userSpaceOnUse" y1="1" x2="0" y2="47">
   <stop style="stop-color:#00e66d;stop-opacity:1"/>
   <stop offset="1" style="stop-color:#00d263;stop-opacity:1"/>
  </linearGradient>
 </defs>
 <g>
  <path d="m 36.31 5 c 5.859 4.062 9.688 10.831 9.688 18.5 c 0 12.426 -10.07 22.5 -22.5 22.5 c -7.669 0 -14.438 -3.828 -18.5 -9.688 c 1.037 1.822 2.306 3.499 3.781 4.969 c 4.085 3.712 9.514 5.969 15.469 5.969 c 12.703 0 23 -10.298 23 -23 c 0 -5.954 -2.256 -11.384 -5.969 -15.469 c -1.469 -1.475 -3.147 -2.744 -4.969 -3.781 z m 4.969 3.781 c 3.854 4.113 6.219 9.637 6.219 15.719 c 0 12.703 -10.297 23 -23 23 c -6.081 0 -11.606 -2.364 -15.719 -6.219 c 4.16 4.144 9.883 6.719 16.219 6.719 c 12.703 0 23 -10.298 23 -23 c 0 -6.335 -2.575 -12.06 -6.719 -16.219 z" style="opacity:0.05"/>
  <path d="m 41.28 8.781 c 3.712 4.085 5.969 9.514 5.969 15.469 c 0 12.703 -10.297 23 -23 23 c -5.954 0 -11.384 -2.256 -15.469 -5.969 c 4.113 3.854 9.637 6.219 15.719 6.219 c 12.703 0 23 -10.298 23 -23 c 0 -6.081 -2.364 -11.606 -6.219 -15.719 z" style="opacity:0.1"/>
  <path d="m 31.25 2.375 c 8.615 3.154 14.75 11.417 14.75 21.13 c 0 12.426 -10.07 22.5 -22.5 22.5 c -9.708 0 -17.971 -6.135 -21.12 -14.75 a 23 23 0 0 0 44.875 -7 a 23 23 0 0 0 -16 -21.875 z" style="opacity:0.2"/>
 </g>
 <path d="M 24,1 C 36.703,1 47,11.297 47,24 47,36.703 36.703,47 24,47 11.297,47 1,36.703 1,24 1,11.297 11.297,1 24,1 z" style="fill:url(#linearGradient3904);fill-opacity:1"/>
 <g style="opacity:0.1">
  <path d="m 20 13 l 0 12.201 l -4.293 -4.1 c -4.391 4.385 -4.992 10.838 -1.24 14.488 c 3.211 3.124 8.517 3.132 12.801 0.41 l 6.732 0 l 0 -23 l -14 0 z" style="fill:#000;fill-opacity:1;stroke:none"/>
 </g>
 <g>
  <path d="m 40.03 7.531 c 3.712 4.084 5.969 9.514 5.969 15.469 0 12.703 -10.297 23 -23 23 c -5.954 0 -11.384 -2.256 -15.469 -5.969 4.178 4.291 10.01 6.969 16.469 6.969 c 12.703 0 23 -10.298 23 -23 0 -6.462 -2.677 -12.291 -6.969 -16.469 z" style="opacity:0.1"/>
 </g>
 <rect width="14" height="23" x="19" y="12" rx="0" style="fill:#d7f4ee;fill-opacity:1;stroke:none"/>
 <rect width="12" height="17" x="20" y="16" style="fill:#ffd92a;fill-opacity:1;stroke:none"/>
 <path d="m 31.5 13 0 10 -1 -10 z" style="fill:#f0fbf8;fill-opacity:1;stroke:none"/>
 <g transform="matrix(0.87969453,0,0,0.8559836,3.0785473,3.6120973)">
  <path transform="matrix(0.72737904,0.72737904,-0.72737904,0.72737904,29.633709,-5.9246054)" d="m 26.989 28.399 c 0 6.863 -4.608 12.427 -10.292 12.427 -5.621 0 -10.203 -5.446 -10.291 -12.233" style="stroke-dasharray:none;stroke-opacity:1;fill:#df5;stroke-miterlimit:4;fill-opacity:1;stroke:#8a0;stroke-width:0.75"/>
  <path d="m 18.327 25.635 -6.523 2.796 0.932 -4.287 z" style="fill:#f6ffd5;stroke:none"/>
  <path d="m 19.445 27.25 -7.393 2.92 0.994 3.355 z" style="fill:#f6ffd5;stroke:none"/>
  <path d="m 20.936 28.741 -6.461 5.964 3.417 1.056 z" style="fill:#f6ffd5;stroke:none"/>
  <path d="m 22.308 29.616 -2.796 6.523 4.307 -0.875 z" style="fill:#f6ffd5;stroke:none"/>
 </g>
</svg>
