<svg xmlns="http://www.w3.org/2000/svg" viewBox="0 0 48 48">
 <defs>
  <linearGradient id="linearGradient3764" x1="1" x2="47" gradientUnits="userSpaceOnUse" gradientTransform="matrix(0,-1,1,0,-1.5e-6,47.999998)">
   <stop style="stop-color:#003c80;stop-opacity:1"/>
   <stop offset="1" style="stop-color:#004694;stop-opacity:1"/>
  </linearGradient>
 </defs>
 <g>
  <path d="m 36.31 5 c 5.859 4.062 9.688 10.831 9.688 18.5 c 0 12.426 -10.07 22.5 -22.5 22.5 c -7.669 0 -14.438 -3.828 -18.5 -9.688 c 1.037 1.822 2.306 3.499 3.781 4.969 c 4.085 3.712 9.514 5.969 15.469 5.969 c 12.703 0 23 -10.298 23 -23 c 0 -5.954 -2.256 -11.384 -5.969 -15.469 c -1.469 -1.475 -3.147 -2.744 -4.969 -3.781 z m 4.969 3.781 c 3.854 4.113 6.219 9.637 6.219 15.719 c 0 12.703 -10.297 23 -23 23 c -6.081 0 -11.606 -2.364 -15.719 -6.219 c 4.16 4.144 9.883 6.719 16.219 6.719 c 12.703 0 23 -10.298 23 -23 c 0 -6.335 -2.575 -12.06 -6.719 -16.219 z" style="opacity:0.05"/>
  <path d="m 41.28 8.781 c 3.712 4.085 5.969 9.514 5.969 15.469 c 0 12.703 -10.297 23 -23 23 c -5.954 0 -11.384 -2.256 -15.469 -5.969 c 4.113 3.854 9.637 6.219 15.719 6.219 c 12.703 0 23 -10.298 23 -23 c 0 -6.081 -2.364 -11.606 -6.219 -15.719 z" style="opacity:0.1"/>
  <path d="m 31.25 2.375 c 8.615 3.154 14.75 11.417 14.75 21.13 c 0 12.426 -10.07 22.5 -22.5 22.5 c -9.708 0 -17.971 -6.135 -21.12 -14.75 a 23 23 0 0 0 44.875 -7 a 23 23 0 0 0 -16 -21.875 z" style="opacity:0.2"/>
 </g>
 <g>
  <path d="m 24 1 c 12.703 0 23 10.297 23 23 c 0 12.703 -10.297 23 -23 23 -12.703 0 -23 -10.297 -23 -23 0 -12.703 10.297 -23 23 -23 z" style="fill:url(#linearGradient3764);fill-opacity:1"/>
 </g>
 <g>
  <g>
   <g transform="translate(1,1)">
    <g style="opacity:0.1">
     <!-- color: #004694 -->
     <g>
      <path d="m 22.488 35.918 c -1.141 -0.234 -2.051 -0.98 -2.555 -2.094 -0.238 -0.52 -0.27 -0.688 -0.234 -1.172 0.035 -0.523 0.07 -0.594 0.395 -0.875 1.027 -0.902 1.25 -1.141 1.441 -1.57 0.191 -0.422 0.207 -0.551 0.156 -1.395 -0.051 -0.836 -0.035 -0.984 0.148 -1.418 0.418 -1.012 1.34 -1.59 3.285 -2.078 1.379 -0.348 2.391 -0.352 3.121 -0.016 0.586 0.27 1.215 0.895 1.52 1.527 0.418 0.855 1.438 1.469 2.445 1.473 1.293 0.008 2.02 1.01 1.941 2.684 -0.043 0.875 -0.289 1.426 -0.91 2.023 -1.184 1.145 -5.324 2.5 -8.926 2.918 -0.926 0.105 -1.281 0.105 -1.82 -0.004 m -7.129 -6.04 c -1.305 -0.41 -2.453 -1.898 -2.695 -3.48 -0.055 -0.352 -0.156 -0.727 -0.227 -0.836 -0.289 -0.449 -0.57 -2.348 -0.379 -2.543 0.102 -0.105 0.602 0.441 0.605 0.656 0 0.102 0.086 0.332 0.184 0.508 l 0.184 0.316 0.293 -0.305 c 0.379 -0.375 0.836 -0.512 1.293 -0.387 0.355 0.105 0.492 0.191 1.785 1.066 0.864 0.541 1.723 1.096 2.489 1.75 0.543 0.695 0.398 1.566 -0.41 2.441 -0.391 0.422 -0.563 0.535 -1.078 0.695 -0.625 0.199 -1.594 0.25 -2.039 0.109 m 16.684 -4.555 c -1.277 -0.477 -1.809 -1.164 -1.617 -2.078 0.409 -1.07 0.842 -1.902 1.305 -2.981 0.004 -0.297 0.457 -1.094 0.758 -1.332 0.254 -0.199 0.43 -0.262 0.797 -0.266 l 0.469 -0.012 0.027 -0.348 c 0.016 -0.191 -0.039 -0.492 -0.121 -0.672 -0.176 -0.387 -0.105 -0.914 0.113 -0.871 0.211 0.043 0.898 1.352 1.063 2.02 0.082 0.328 0.281 0.789 0.441 1.027 0.52 0.758 0.711 1.422 0.719 2.477 0.004 0.816 -0.027 0.992 -0.227 1.441 -0.387 0.848 -1.023 1.367 -2.02 1.641 -0.609 0.168 -1.172 0.152 -1.711 -0.051 m -13.04 -3.03 c -0.984 -0.25 -1.629 -0.773 -2.02 -1.637 -0.438 -0.973 -0.348 -2.691 0.195 -3.629 0.164 -0.285 0.184 -0.457 0.172 -1.305 -0.02 -0.898 0.125 -1.855 0.305 -2.035 0.137 -0.145 0.402 0.395 0.402 0.813 0 0.238 0.082 0.613 0.18 0.84 0.164 0.371 0.199 0.398 0.426 0.344 0.137 -0.035 0.5 -0.086 0.813 -0.113 0.555 -0.051 0.57 -0.047 0.859 0.273 0.32 0.352 0.508 0.875 0.508 1.41 0 0.438 0.242 0.918 0.758 1.516 1.277 1.465 0.969 2.77 -0.805 3.438 -0.648 0.238 -1.109 0.266 -1.793 0.086 m 5.629 -1.656 c -0.449 -0.156 -0.879 -0.648 -1.035 -1.188 -0.098 -0.348 -0.121 -0.715 -0.082 -1.438 c 0.055 -0.965 0.051 -0.977 -0.219 -1.422 -0.77 -1.266 -0.539 -2.102 0.656 -2.355 l 0.5 -0.105 -0.063 -0.297 c -0.078 -0.379 -0.348 -0.922 -0.527 -1.078 -0.164 -0.141 -0.195 -0.754 -0.039 -0.754 0.176 0 1.656 1.609 1.816 1.977 0.117 0.262 0.281 0.418 0.625 0.598 0.652 0.348 1.594 1.348 1.953 2.078 0.375 0.77 0.461 1.648 0.227 2.281 -0.199 0.543 -0.914 1.301 -1.465 1.559 -0.504 0.234 -1.855 0.316 -2.352 0.145" style="fill:#000;fill-opacity:1;stroke:none;fill-rule:nonzero"/>
     </g>
    </g>
   </g>
  </g>
 </g>
 <g>
  <g>
   <!-- color: #004694 -->
   <g>
    <path d="m 22.488 35.918 c -1.141 -0.234 -2.051 -0.98 -2.555 -2.094 -0.238 -0.52 -0.27 -0.688 -0.234 -1.172 0.035 -0.523 0.07 -0.594 0.395 -0.875 1.027 -0.902 1.25 -1.141 1.441 -1.57 0.191 -0.422 0.207 -0.551 0.156 -1.395 -0.051 -0.836 -0.035 -0.984 0.148 -1.418 0.418 -1.012 1.34 -1.59 3.285 -2.078 1.379 -0.348 2.391 -0.352 3.121 -0.016 0.586 0.27 1.215 0.895 1.52 1.527 0.418 0.855 1.438 1.469 2.445 1.473 1.293 0.008 2.02 1.01 1.941 2.684 -0.043 0.875 -0.289 1.426 -0.91 2.023 -1.184 1.145 -5.324 2.5 -8.926 2.918 -0.926 0.105 -1.281 0.105 -1.82 -0.004 m -7.129 -6.04 c -1.305 -0.41 -2.453 -1.898 -2.695 -3.48 -0.055 -0.352 -0.156 -0.727 -0.227 -0.836 -0.289 -0.449 -0.57 -2.348 -0.379 -2.543 0.102 -0.105 0.602 0.441 0.605 0.656 0 0.102 0.086 0.332 0.184 0.508 l 0.184 0.316 0.293 -0.305 c 0.379 -0.375 0.836 -0.512 1.293 -0.387 0.355 0.105 0.492 0.191 1.785 1.066 0.864 0.541 1.723 1.096 2.489 1.75 0.543 0.695 0.398 1.566 -0.41 2.441 -0.391 0.422 -0.563 0.535 -1.078 0.695 -0.625 0.199 -1.594 0.25 -2.039 0.109 m 16.684 -4.555 c -1.277 -0.477 -1.809 -1.164 -1.617 -2.078 0.409 -1.07 0.842 -1.902 1.305 -2.981 0.004 -0.297 0.457 -1.094 0.758 -1.332 0.254 -0.199 0.43 -0.262 0.797 -0.266 l 0.469 -0.012 0.027 -0.348 c 0.016 -0.191 -0.039 -0.492 -0.121 -0.672 -0.176 -0.387 -0.105 -0.914 0.113 -0.871 0.211 0.043 0.898 1.352 1.063 2.02 0.082 0.328 0.281 0.789 0.441 1.027 0.52 0.758 0.711 1.422 0.719 2.477 0.004 0.816 -0.027 0.992 -0.227 1.441 -0.387 0.848 -1.023 1.367 -2.02 1.641 -0.609 0.168 -1.172 0.152 -1.711 -0.051 m -13.04 -3.03 c -0.984 -0.25 -1.629 -0.773 -2.02 -1.637 -0.438 -0.973 -0.348 -2.691 0.195 -3.629 0.164 -0.285 0.184 -0.457 0.172 -1.305 -0.02 -0.898 0.125 -1.855 0.305 -2.035 0.137 -0.145 0.402 0.395 0.402 0.813 0 0.238 0.082 0.613 0.18 0.84 0.164 0.371 0.199 0.398 0.426 0.344 0.137 -0.035 0.5 -0.086 0.813 -0.113 0.555 -0.051 0.57 -0.047 0.859 0.273 0.32 0.352 0.508 0.875 0.508 1.41 0 0.438 0.242 0.918 0.758 1.516 1.277 1.465 0.969 2.77 -0.805 3.438 -0.648 0.238 -1.109 0.266 -1.793 0.086 m 5.629 -1.656 c -0.449 -0.156 -0.879 -0.648 -1.035 -1.188 -0.098 -0.348 -0.121 -0.715 -0.082 -1.438 c 0.055 -0.965 0.051 -0.977 -0.219 -1.422 -0.77 -1.266 -0.539 -2.102 0.656 -2.355 l 0.5 -0.105 -0.063 -0.297 c -0.078 -0.379 -0.348 -0.922 -0.527 -1.078 -0.164 -0.141 -0.195 -0.754 -0.039 -0.754 0.176 0 1.656 1.609 1.816 1.977 0.117 0.262 0.281 0.418 0.625 0.598 0.652 0.348 1.594 1.348 1.953 2.078 0.375 0.77 0.461 1.648 0.227 2.281 -0.199 0.543 -0.914 1.301 -1.465 1.559 -0.504 0.234 -1.855 0.316 -2.352 0.145" style="fill:#f9f9f9;fill-opacity:1;stroke:none;fill-rule:nonzero"/>
   </g>
  </g>
 </g>
 <g>
  <path d="m 40.03 7.531 c 3.712 4.084 5.969 9.514 5.969 15.469 0 12.703 -10.297 23 -23 23 c -5.954 0 -11.384 -2.256 -15.469 -5.969 4.178 4.291 10.01 6.969 16.469 6.969 c 12.703 0 23 -10.298 23 -23 0 -6.462 -2.677 -12.291 -6.969 -16.469 z" style="opacity:0.1"/>
 </g>
</svg>
