<svg xmlns="http://www.w3.org/2000/svg" viewBox="0 0 48 48">
 <defs>
  <linearGradient id="linearGradient3790" y1="1" x2="0" y2="47" gradientUnits="userSpaceOnUse">
   <stop style="stop-color:#3432e6;stop-opacity:1"/>
   <stop offset="1" style="stop-color:#150f7d;stop-opacity:1"/>
  </linearGradient>
 </defs>
 <g>
  <path d="m 36.31 5 c 5.859 4.062 9.688 10.831 9.688 18.5 c 0 12.426 -10.07 22.5 -22.5 22.5 c -7.669 0 -14.438 -3.828 -18.5 -9.688 c 1.037 1.822 2.306 3.499 3.781 4.969 c 4.085 3.712 9.514 5.969 15.469 5.969 c 12.703 0 23 -10.298 23 -23 c 0 -5.954 -2.256 -11.384 -5.969 -15.469 c -1.469 -1.475 -3.147 -2.744 -4.969 -3.781 z m 4.969 3.781 c 3.854 4.113 6.219 9.637 6.219 15.719 c 0 12.703 -10.297 23 -23 23 c -6.081 0 -11.606 -2.364 -15.719 -6.219 c 4.16 4.144 9.883 6.719 16.219 6.719 c 12.703 0 23 -10.298 23 -23 c 0 -6.335 -2.575 -12.06 -6.719 -16.219 z" style="opacity:0.05"/>
  <path d="m 41.28 8.781 c 3.712 4.085 5.969 9.514 5.969 15.469 c 0 12.703 -10.297 23 -23 23 c -5.954 0 -11.384 -2.256 -15.469 -5.969 c 4.113 3.854 9.637 6.219 15.719 6.219 c 12.703 0 23 -10.298 23 -23 c 0 -6.081 -2.364 -11.606 -6.219 -15.719 z" style="opacity:0.1"/>
  <path d="m 31.25 2.375 c 8.615 3.154 14.75 11.417 14.75 21.13 c 0 12.426 -10.07 22.5 -22.5 22.5 c -9.708 0 -17.971 -6.135 -21.12 -14.75 a 23 23 0 0 0 44.875 -7 a 23 23 0 0 0 -16 -21.875 z" style="opacity:0.2"/>
 </g>
 <g transform="matrix(0.97826087,0,0,0.97826087,0.52173913,0.52173911)" style="fill:#5fbcd3">
  <path d="M 24,1 C 36.703,1 47,11.297 47,24 47,36.703 36.703,47 24,47 11.297,47 1,36.703 1,24 1,11.297 11.297,1 24,1 z" style="fill:url(#linearGradient3790);fill-opacity:1"/>
 </g>
 <g transform="translate(-55.857653,0.85409255)" style="fill:#fc0">
  <path d="m 79.86 0.146 c -12.703 0 -23 10.297 -23 23 0 12.703 10.297 23 23 23 12.703 0 23 -10.297 23 -23 0 -12.703 -10.297 -23 -23 -23 z m 0 3 c 11.05 0 20 8.954 20 20 0 11.05 -8.954 20 -20 20 -11.05 0 -20 -8.954 -20 -20 0 -11.05 8.954 -20 20 -20 z" style="fill-opacity:1"/>
 </g>
 <g>
  <path d="m 40.03 7.531 c 3.712 4.084 5.969 9.514 5.969 15.469 0 12.703 -10.297 23 -23 23 c -5.954 0 -11.384 -2.256 -15.469 -5.969 4.178 4.291 10.01 6.969 16.469 6.969 c 12.703 0 23 -10.298 23 -23 0 -6.462 -2.677 -12.291 -6.969 -16.469 z" style="opacity:0.1"/>
 </g>
 <g transform="translate(1,1)" style="fill:#000;opacity:0.1">
  <path d="m 19 13 0 19 -3 3 18 0 2 -8 -6 4 -4 0 -2 -2 0 -16 z m -3 -3 11 0 -3 3 -5 0 z" style="stroke:none"/>
 </g>
 <g>
  <path d="m 19 13 0 19 -3 3 18 0 2 -8 -6 4 -4 0 -2 -2 0 -16 z m -3 -3 11 0 -3 3 -5 0 z" style="fill:#fc0;stroke:none"/>
  <path d="m 16 10 6 2 -3 1 z" style="fill:#d4aa00;stroke:none"/>
  <path d="m 27,10 -5,2 0,21 4,-2 L 24,28.8854 24,13 Z" style="fill:#d4aa00;stroke:none"/>
  <path d="m 16 35 6 -2 10 0 4 -6 -2 8 z" style="fill:#d4aa00;stroke:none"/>
 </g>
</svg>
