<svg version="1.1" viewBox="0 0 48 48" xmlns="http://www.w3.org/2000/svg">
 <defs>
  <linearGradient id="bg" x2="0" y1="1" y2="47" gradientUnits="userSpaceOnUse">
   <stop style="stop-color:#85ad8a" offset="0"/>
   <stop style="stop-color:#78a57e" offset="1"/>
  </linearGradient>
 </defs>
 <path d="m36.3 5c5.86 4.06 9.69 10.8 9.69 18.5 0 12.4-10.1 22.5-22.5 22.5-7.67 0-14.4-3.83-18.5-9.69 1.04 1.82 2.31 3.5 3.78 4.97 4.08 3.71 9.51 5.97 15.5 5.97 12.7 0 23-10.3 23-23 0-5.95-2.26-11.4-5.97-15.5-1.47-1.48-3.15-2.74-4.97-3.78zm4.97 3.78c3.85 4.11 6.22 9.64 6.22 15.7 0 12.7-10.3 23-23 23-6.08 0-11.6-2.36-15.7-6.22 4.16 4.14 9.88 6.72 16.2 6.72 12.7 0 23-10.3 23-23 0-6.34-2.58-12.1-6.72-16.2z" style="opacity:.05"/>
 <path d="m41.3 8.78c3.71 4.08 5.97 9.51 5.97 15.5 0 12.7-10.3 23-23 23-5.95 0-11.4-2.26-15.5-5.97 4.11 3.85 9.64 6.22 15.7 6.22 12.7 0 23-10.3 23-23 0-6.08-2.36-11.6-6.22-15.7z" style="opacity:.1"/>
 <path d="m31.2 2.38c8.62 3.15 14.8 11.4 14.8 21.1 0 12.4-10.1 22.5-22.5 22.5-9.71 0-18-6.14-21.1-14.8a23 23 0 0 0 44.9-7 23 23 0 0 0-16-21.9z" style="opacity:.2"/>
 <circle cx="24" cy="24" r="23" style="fill:url(#bg)"/>
 <path d="m40 7.53c3.71 4.08 5.97 9.51 5.97 15.5 0 12.7-10.3 23-23 23-5.95 0-11.4-2.26-15.5-5.97 4.18 4.29 10 6.97 16.5 6.97 12.7 0 23-10.3 23-23 0-6.46-2.68-12.3-6.97-16.5z" style="opacity:.1"/>
 <path d="m11 20.5c0 2.23 2.36 4.13 5 4.5v0.5c0 1.52 0.653 3.12 1.71 4.51l-2.41 1.03c-0.253 0.109-0.37 0.403-0.262 0.656 0.109 0.253 0.403 0.37 0.656 0.262l2.68-1.15c0.265 0.286 0.547 0.558 0.844 0.816l-1.13 1.58c-0.161 0.224-0.109 0.536 0.115 0.697 0.224 0.161 0.536 0.109 0.697-0.115l1.1-1.54c0.694 0.499 1.44 0.912 2.23 1.21 0.464 0.931 1.55 1.54 2.76 1.54 1.21-0.0023 2.3-0.61 2.76-1.54 0.782-0.3 1.53-0.714 2.23-1.21l1.1 1.54c0.161 0.224 0.473 0.276 0.697 0.115 0.224-0.161 0.276-0.473 0.115-0.697l-1.13-1.58c0.297-0.258 0.579-0.531 0.844-0.816l2.68 1.15c0.253 0.109 0.547-8e-3 0.656-0.262 0.109-0.254-0.0084-0.547-0.262-0.656l-2.41-1.03c1.06-1.39 1.71-2.99 1.71-4.51v-0.5c2.64-0.374 5-2.27 5-4.5 0-2.5-1.5-3.5-3.5-3.5l-5.5 3z" style="opacity:.1"/>
 <path d="m13.5 16c-2 0-3.5 1-3.5 3.5s3 4.5 6 4.5h4c0-4.5-3-8-6.5-8zm21 0c-3.5 0-6.5 3.5-6.5 8h4c3 0 6-2 6-4.5s-1.5-3.5-3.5-3.5z" style="fill:#c7c7c7"/>
 <path d="m17.8 28.5-3.5 1.5c-0.253 0.109-0.37 0.403-0.262 0.656 0.109 0.253 0.403 0.37 0.656 0.262l3.5-1.5zm12.4 0-0.395 0.918 3.5 1.5c0.253 0.109 0.547-8e-3 0.656-0.262 0.109-0.254-0.0084-0.547-0.262-0.656zm-10.6 0.168-2.5 3.5c-0.161 0.224-0.109 0.536 0.115 0.697 0.224 0.161 0.536 0.109 0.697-0.115l2.5-3.5zm8.81 0-0.812 0.582 2.5 3.5c0.161 0.224 0.473 0.276 0.697 0.115 0.224-0.161 0.276-0.473 0.115-0.697z" style="fill:#7c5a55"/>
 <path d="m29.6 18.8 2.41 5.23c0.62 0 1.24-0.0904 1.83-0.248-0.46-2.29-1.87-4.04-4.24-4.98z" style="opacity:.1"/>
 <path d="m30.2 28.5-0.395 0.918 2.18 0.936c0.222-0.266 0.43-0.541 0.621-0.822zm-10.6 0.168-1.38 1.92c0.224 0.252 0.462 0.494 0.711 0.727l1.48-2.07zm8.81 0-0.812 0.582 2.21 3.09c0.275-0.189 0.541-0.392 0.797-0.605z" style="opacity:.1"/>
 <path d="m33 24.5c0 4-4.5 8.5-9 8.5s-9-4.5-9-8.5c0-4.5 3-7.5 9-7.5s9 3 9 7.5z" style="fill:#f5f5f5"/>
 <path d="m19.5 25c-0.828 0-1.5 0.672-1.5 1.5s0.672 1.5 1.5 1.5 1.5-0.672 1.5-1.5-0.672-1.5-1.5-1.5zm9 0c-0.828 0-1.5 0.672-1.5 1.5s0.672 1.5 1.5 1.5 1.5-0.672 1.5-1.5-0.672-1.5-1.5-1.5z" style="fill:#5c5c5c"/>
 <path d="m27 31.5a3 2.5 0 0 1-3 2.5 3 2.5 0 0 1-3-2.5 3 2.5 0 0 1 3-2.5 3 2.5 0 0 1 3 2.5z" style="fill:#7c5a55"/>
</svg>
