<svg version="1.1" viewBox="0 0 48 48" xmlns="http://www.w3.org/2000/svg">
 <defs>
  <linearGradient id="bg" x1="1" x2="47" gradientTransform="matrix(0,1,-1,0,48,0)" gradientUnits="userSpaceOnUse">
   <stop style="stop-color:#424242" offset="0"/>
   <stop style="stop-color:#383838" offset="1"/>
  </linearGradient>
 </defs>
 <path d="m36.31 5c5.859 4.062 9.688 10.831 9.688 18.5 0 12.426-10.07 22.5-22.5 22.5-7.669 0-14.438-3.828-18.5-9.688 1.037 1.822 2.306 3.499 3.781 4.969 4.085 3.712 9.514 5.969 15.469 5.969 12.703 0 23-10.298 23-23 0-5.954-2.256-11.384-5.969-15.469-1.469-1.475-3.147-2.744-4.969-3.781zm4.969 3.781c3.854 4.113 6.219 9.637 6.219 15.719 0 12.703-10.297 23-23 23-6.081 0-11.606-2.364-15.719-6.219 4.16 4.144 9.883 6.719 16.219 6.719 12.703 0 23-10.298 23-23 0-6.335-2.575-12.06-6.719-16.219z" style="opacity:.05"/>
 <path d="m41.28 8.781c3.712 4.085 5.969 9.514 5.969 15.469 0 12.703-10.297 23-23 23-5.954 0-11.384-2.256-15.469-5.969 4.113 3.854 9.637 6.219 15.719 6.219 12.703 0 23-10.298 23-23 0-6.081-2.364-11.606-6.219-15.719z" style="opacity:.1"/>
 <path d="m31.25 2.375c8.615 3.154 14.75 11.417 14.75 21.13 0 12.426-10.07 22.5-22.5 22.5-9.708 0-17.971-6.135-21.12-14.75a23 23 0 0 0 44.875-7 23 23 0 0 0-16-21.875z" style="opacity:.2"/>
 <path d="m47 24c0 12.703-10.297 23-23 23s-23-10.297-23-23 10.297-23 23-23 23 10.297 23 23z" style="fill:url(#bg)"/>
 <path d="m40.03 7.531c3.712 4.084 5.969 9.514 5.969 15.469 0 12.703-10.297 23-23 23-5.954 0-11.384-2.256-15.469-5.969 4.178 4.291 10.01 6.969 16.469 6.969 12.703 0 23-10.298 23-23 0-6.462-2.677-12.291-6.969-16.469z" style="opacity:.1"/>
 <g transform="matrix(.99923 0 0 1.0001 1.0195 .99694)" style="fill-opacity:.118">
  <path d="m37.601 29.396c0.013-0.238 0.011-0.475-2e-3 -0.711-0.017-0.314-0.044-0.631-0.094-0.938-0.2-1.222-0.752-2.485-1.563-3.75-0.012-0.019-0.019-0.043-0.031-0.063 0.783-1.245 1.274-2.486 1.469-3.689 0.198-1.222 0.218-2.552-0.469-3.75s-1.819-1.841-2.969-2.279c-1.142-0.435-2.492-0.629-3.969-0.564-0.69-1.334-1.541-2.435-2.5-3.219s-2.087-1.438-3.471-1.438-2.51 0.654-3.469 1.438-1.81 1.885-2.5 3.219h-0.031c-1.501-0.069-2.842 0.125-4 0.564-1.158 0.438-2.308 1.081-3 2.279s-0.7 2.528-0.5 3.75 0.753 2.485 1.564 3.75c0.012 0.019 0.019 0.044 0.031 0.064-0.783 1.245-1.276 2.485-1.471 3.688-0.198 1.222-0.216 2.552 0.471 3.75s1.819 1.843 2.969 2.281c1.142 0.435 2.492 0.627 3.969 0.563 0.69 1.334 1.541 2.435 2.5 3.219s2.085 1.439 3.469 1.439 2.51-0.655 3.469-1.439 1.81-1.885 2.5-3.219h0.031c1.501 0.069 2.842-0.123 4-0.563 1.158-0.438 2.308-1.083 3-2.281 0.389-0.674 0.557-1.388 0.596-2.102zm-1.156-0.211h-2e-3c-0.017 0.701-0.242 1.272-0.5 1.719-0.344 0.596-0.896 1.214-1.906 1.596-0.995 0.376-2.081 0.618-3.5 0.563 0.546-1.387 0.95-2.97 1.189-4.687 1.333-1.059 2.473-2.157 3.375-3.314 0.784 1.223 1.107 2.309 1.281 3.375 0.044 0.266 0.067 0.516 0.063 0.75zm-0.096-10.374v2e-3c6e-3 0.233 0.012 0.483-0.031 0.748-0.167 1.03-0.526 2.077-1.25 3.25-0.907-1.129-2.023-2.216-3.344-3.25-0.239-1.694-0.648-3.254-1.188-4.624 1.391-0.051 2.457 0.19 3.438 0.564 1 0.382 1.565 0.998 1.906 1.594 0.256 0.447 0.45 1.017 0.469 1.717zm-2.063 5.124c-0.667 0.868-1.45 1.733-2.375 2.564 0.06-0.815 0.094-1.646 0.094-2.5 0-0.876-0.031-1.729-0.094-2.564 0.915 0.81 1.706 1.652 2.375 2.5zm-3.594 0.064c0 1.277-0.07 2.511-0.219 3.688-0.963 0.743-2.02 1.465-3.156 2.125-1.112 0.647-2.215 1.193-3.314 1.656-1.11-0.464-2.22-1.01-3.344-1.656-1.125-0.65-2.168-1.364-3.125-2.094-0.151-1.185-0.219-2.43-0.219-3.719 0-1.277 0.07-2.513 0.219-3.689 0.963-0.743 2.02-1.465 3.156-2.125 1.112-0.647 2.214-1.193 3.313-1.656 1.11 0.464 2.222 1.01 3.346 1.656 1.125 0.65 2.168 1.364 3.125 2.094 0.151 1.185 0.219 2.432 0.219 3.721zm-0.531-5.595c-0.681-0.463-1.41-0.913-2.156-1.344-0.751-0.433-1.504-0.828-2.25-1.188 1.182-0.395 2.321-0.663 3.406-0.813 0.41 1.012 0.75 2.129 1 3.344zm0 11.124c-0.251 1.237-0.583 2.378-1 3.406-1.085-0.153-2.226-0.419-3.406-0.813 0.741-0.36 1.473-0.754 2.219-1.188 0.765-0.445 1.491-0.927 2.188-1.406zm-1.531 4.655c-0.664 1.275-1.451 2.071-2.281 2.75-0.836 0.684-1.656 0.875-2.344 0.875s-1.508-0.191-2.344-0.875c-0.827-0.676-1.588-1.483-2.25-2.75 1.457-0.216 3.01-0.666 4.594-1.313 1.601 0.645 3.157 1.096 4.625 1.313zm-0.031-20.372c-1.457 0.216-3.01 0.668-4.594 1.314-1.601-0.645-3.157-1.098-4.625-1.314 0.664-1.275 1.451-2.071 2.281-2.75 0.836-0.684 1.656-0.875 2.344-0.875s1.508 0.191 2.344 0.875c0.827 0.676 1.588 1.483 2.25 2.75zm-0.594 10.187a4 3.999 0 0 0-4-3.999 4 3.999 0 0 0-4 3.999 4 3.999 0 0 0 4 3.999 4 3.999 0 0 0 4-3.999zm-5.75 8.126c-1.182 0.395-2.321 0.663-3.406 0.813-0.41-1.012-0.75-2.129-1-3.344 0.681 0.463 1.41 0.913 2.156 1.344 0.751 0.433 1.504 0.828 2.25 1.188zm-2e-3 -16.248c-0.74 0.36-1.471 0.754-2.217 1.188-0.765 0.445-1.491 0.927-2.188 1.406 0.251-1.237 0.583-2.378 1-3.406 1.085 0.153 2.224 0.418 3.404 0.813zm-4.779-0.939c-0.546 1.387-0.949 2.971-1.188 4.688-1.333 1.059-2.473 2.156-3.375 3.313-0.784-1.223-1.107-2.309-1.281-3.375s0.093-1.873 0.438-2.469c0.344-0.596 0.896-1.212 1.906-1.594 0.995-0.376 2.081-0.62 3.5-0.564zm0 18.13v2e-3c-1.391 0.051-2.458-0.188-3.438-0.563-1-0.382-1.565-1-1.906-1.596s-0.609-1.403-0.438-2.469c0.167-1.03 0.526-2.077 1.25-3.25 0.907 1.129 2.023 2.216 3.344 3.25 0.239 1.694 0.648 3.254 1.188 4.624zm-1.375-11.56c-0.06 0.815-0.094 1.646-0.094 2.5 0 0.876 0.031 1.727 0.094 2.563-0.915-0.81-1.706-1.652-2.375-2.5 0.667-0.868 1.45-1.732 2.375-2.563z"/>
 </g>
 <path d="m24 9c-1.3829 0-2.5235 0.65741-3.4824 1.4414-0.95894 0.784-1.7885 1.873-2.4785 3.207-0.002616 0.005059-0.0052 0.010558-0.007812 0.015624-0.003854-1.82e-4 -0.007866-0.001774-0.011719-0.001953-1.4999-0.069-2.8575 0.10397-4.0195 0.54297-1.1579 0.439-2.2964 1.0979-2.9883 2.2949-0.69096 1.198-0.69218 2.5143-0.49219 3.7363 0.19899 1.223 0.72717 2.485 1.5371 3.75 0.002474 0.003864 0.005332 0.007856 0.007812 0.011719-0.003445 0.005361-0.008284 0.010263-0.011719 0.015625-0.80995 1.265-1.3401 2.527-1.5391 3.75-0.19899 1.223-0.19682 2.5393 0.49414 3.7363 0.69096 1.198 1.8294 1.8569 2.9883 2.2949 1.1579 0.439 2.5156 0.61197 4.0195 0.54297 0.005126-2.38e-4 0.010496-0.001709 0.015625-0.001953 0.002612 0.005066 0.005196 0.010565 0.007812 0.015624 0.68996 1.334 1.5195 2.423 2.4785 3.207 0.95894 0.784 2.0995 1.4414 3.4824 1.4414s2.5216-0.65741 3.4805-1.4414 1.7885-1.873 2.4785-3.207c0.002615-0.005056 0.005203-0.010561 0.007813-0.015624 0.005754 2.74e-4 0.011828 0.001686 0.017578 0.001953 1.4999 0.069 2.8575-0.10397 4.0195-0.54297 1.1579-0.439 2.2964-1.0979 2.9883-2.2949 0.69196-1.198 0.69218-2.5143 0.49219-3.7363-0.19899-1.223-0.72717-2.485-1.5371-3.75-0.003432-0.005357-0.008277-0.010269-0.011719-0.015625 0.00248-0.003863 0.005338-0.007855 0.007812-0.011719 0.80995-1.265 1.3381-2.527 1.5371-3.75 0.19899-1.223 0.19877-2.5393-0.49219-3.7363-0.69096-1.198-1.8313-1.8569-2.9902-2.2949-1.1579-0.439-2.5156-0.61197-4.0195-0.54297-0.003859 1.79e-4 -0.007858 0.001771-0.011719 0.001953-0.00261-0.005063-0.005197-0.010568-0.007813-0.015624-0.68996-1.334-1.5195-2.423-2.4785-3.207-0.95894-0.784-2.0976-1.4414-3.4805-1.4414zm0 1.1992c0.68796 0 1.5078 0.16756 2.3438 0.85156 0.82403 0.67425 1.5876 1.497 2.248 2.7559-1.4568 0.21658-3.0021 0.65767-4.5898 1.2969-1.5897-0.64023-3.1352-1.0806-4.5938-1.2969 0.66045-1.2588 1.424-2.0826 2.248-2.7559 0.83595-0.684 1.6558-0.85156 2.3438-0.85156zm-6.5293 4.7266c-0.54081 1.3709-0.93181 2.9295-1.1719 4.625-1.3491 1.0556-2.5045 2.1727-3.4219 3.3262-0.75848-1.2002-1.0904-2.2726-1.2617-3.3223-0.174-1.066 0.091567-1.8591 0.43555-2.4551s0.89825-1.2235 1.9082-1.6055c0.99598-0.37674 2.091-0.62575 3.5117-0.56836zm13.059 0c1.4207-0.057088 2.5152 0.19082 3.5098 0.56836 1.0099 0.382 1.5642 1.0105 1.9082 1.6055 0.34398 0.596 0.60953 1.3891 0.43555 2.4551-0.17143 1.0504-0.50315 2.1231-1.2617 3.3242-0.91753-1.1544-2.0724-2.2739-3.4219-3.3301-0.24007-1.6947-0.62934-3.2527-1.1699-4.623zm-11.693 0.12891c1.0906 0.15222 2.2388 0.42629 3.4258 0.82226-0.75265 0.36207-1.5083 0.75606-2.2656 1.1934-0.75539 0.43724-1.4739 0.89537-2.1621 1.3652 0.25066-1.2269 0.5882-2.3596 1.002-3.3809zm10.326 0.001953c0.41344 1.0209 0.75338 2.1526 1.0039 3.3789-0.68881-0.47002-1.406-0.92868-2.1621-1.3652-0.75658-0.43793-1.5137-0.83128-2.2656-1.1934 1.1855-0.39541 2.3345-0.6681 3.4238-0.82031zm-5.1621 1.4824c1.1067 0.46306 2.229 1.011 3.3496 1.6582 1.1209 0.64718 2.1571 1.3452 3.1113 2.0723 0.15234 1.1899 0.23828 2.4362 0.23828 3.7305 0 1.2935-0.086107 2.539-0.23828 3.7285-0.95478 0.72763-1.9899 1.4265-3.1113 2.0742-1.1206 0.64705-2.2432 1.1951-3.3496 1.6582-1.1069-0.46312-2.2287-1.0108-3.3496-1.6582-1.1209-0.64718-2.157-1.3452-3.1113-2.0723-0.15235-1.19-0.24023-2.4362-0.24023-3.7305s0.087887-2.5405 0.24023-3.7305c0.9542-0.72703 1.9908-1.4251 3.1113-2.0723 1.1212-0.64737 2.2427-1.1951 3.3496-1.6582zm0 3.4609a4 4 0 0 0-4 4 4 4 0 0 0 4 4 4 4 0 0 0 4-4 4 4 0 0 0-4-4zm-7.9004 1.4414c-0.062685 0.83234-0.099609 1.6847-0.099609 2.5586s0.036927 1.7263 0.099609 2.5586c-0.93725-0.8307-1.7484-1.6895-2.4258-2.5586 0.6776-0.86908 1.4885-1.7279 2.4258-2.5586zm15.801 0c0.93722 0.83075 1.7482 1.6895 2.4258 2.5586-0.67714 0.86851-1.4893 1.7264-2.4258 2.5566 0.062587-0.83173 0.097656-1.6834 0.097656-2.5566 0-0.87392-0.034974-1.7263-0.097656-2.5586zm-19.021 3.6758c0.91658 1.154 2.0716 2.2722 3.4199 3.3281 0.24001 1.697 0.63065 3.257 1.1719 4.6289-1.4216 0.057386-2.5157-0.19162-3.5117-0.56836-1.0099-0.382-1.5642-1.0105-1.9082-1.6055-0.34398-0.596-0.60954-1.3891-0.43555-2.4551 0.17162-1.0515 0.50336-2.1254 1.2637-3.3281zm22.242 0.001953c0.76023 1.2018 1.0931 2.2754 1.2637 3.3262 0.17399 1.066-0.09352 1.8591-0.4375 2.4551s-0.8963 1.2235-1.9062 1.6055c-0.99555 0.37655-2.092 0.62542-3.5117 0.56836 0.54119-1.3719 0.92991-2.9319 1.1699-4.6289 1.3489-1.0559 2.5049-2.1724 3.4219-3.3262zm-4.9551 4.4414c-0.25061 1.2278-0.59005 2.3611-1.0039 3.3828-1.0907-0.15239-2.2407-0.42614-3.4277-0.82226 0.75188-0.36178 1.5071-0.75456 2.2637-1.1914 0.7575-0.43846 1.478-0.89788 2.168-1.3691zm-12.332 0.001953c0.68958 0.47064 1.409 0.93009 2.166 1.3672 0.75854 0.43689 1.5157 0.83114 2.2695 1.1934-1.1889 0.39713-2.3416 0.66788-3.4336 0.82031-0.41364-1.0214-0.75138-2.1539-1.002-3.3809zm6.1719 3.3301c1.5869 0.63922 3.1298 1.0814 4.5859 1.2988-0.66064 1.2597-1.4236 2.0833-2.248 2.7578-0.83595 0.684-1.6558 0.85156-2.3438 0.85156-0.68796 0-1.5078-0.16756-2.3438-0.85156-0.82442-0.67453-1.5874-1.4981-2.248-2.7578 1.4592-0.21752 3.0074-0.65762 4.5977-1.2988z" style="color:#000000;fill:#d7d7d7"/>
</svg>
