<?xml version="1.0" encoding="UTF-8"?>
<svg version="1.1" viewBox="0 0 48 48" xmlns="http://www.w3.org/2000/svg">
 <defs>
  <linearGradient id="bg" x2="0" y1="1" y2="47" gradientUnits="userSpaceOnUse">
   <stop style="stop-color:#db6757" offset="0"/>
   <stop style="stop-color:#d75847" offset="1"/>
  </linearGradient>
 </defs>
 <path d="m36.3 5c5.86 4.06 9.69 10.8 9.69 18.5 0 12.4-10.1 22.5-22.5 22.5-7.67 0-14.4-3.83-18.5-9.69 1.04 1.82 2.31 3.5 3.78 4.97 4.08 3.71 9.51 5.97 15.5 5.97 12.7 0 23-10.3 23-23 0-5.95-2.26-11.4-5.97-15.5-1.47-1.48-3.15-2.74-4.97-3.78zm4.97 3.78c3.85 4.11 6.22 9.64 6.22 15.7 0 12.7-10.3 23-23 23-6.08 0-11.6-2.36-15.7-6.22 4.16 4.14 9.88 6.72 16.2 6.72 12.7 0 23-10.3 23-23 0-6.34-2.58-12.1-6.72-16.2z" style="opacity:.05"/>
 <path d="m41.3 8.78c3.71 4.08 5.97 9.51 5.97 15.5 0 12.7-10.3 23-23 23-5.95 0-11.4-2.26-15.5-5.97 4.11 3.85 9.64 6.22 15.7 6.22 12.7 0 23-10.3 23-23 0-6.08-2.36-11.6-6.22-15.7z" style="opacity:.1"/>
 <path d="m31.2 2.38c8.62 3.15 14.8 11.4 14.8 21.1 0 12.4-10.1 22.5-22.5 22.5-9.71 0-18-6.14-21.1-14.8a23 23 0 0 0 44.9-7 23 23 0 0 0-16-21.9z" style="opacity:.2"/>
 <circle cx="24" cy="24" r="23" style="fill:url(#bg)"/>
 <path d="m40 7.53c3.71 4.08 5.97 9.51 5.97 15.5 0 12.7-10.3 23-23 23-5.95 0-11.4-2.26-15.5-5.97 4.18 4.29 10 6.97 16.5 6.97 12.7 0 23-10.3 23-23 0-6.46-2.68-12.3-6.97-16.5z" style="opacity:.1"/>
 <path d="m25 11-10 18c0 5.52 4.48 10 10 10s10-4.48 10-10c0-7-6.2-14.3-7.2-15.5-1.05-1.26-1.9-2.5-2.8-2.5z" style="opacity:.1"/>
 <path d="m24 10c-0.9 0-1.75 1.24-2.8 2.5-1 1.2-7.2 8.5-7.2 15.5 0 1.36 0.271 2.65 0.76 3.83l0.996 1.83c1.8 2.62 4.82 4.34 8.24 4.34 5.52 0 10-4.48 10-10 0-7-6.2-14.3-7.2-15.5-1.05-1.26-1.9-2.5-2.8-2.5z" style="fill:#f9f9f9"/>
 <path d="m27 24c-0.554 0-1 0.446-1 1s0.446 1 1 1h1.59l-3.59 3.59-3.71-2.29-5.86 5.86c0.349 0.579 0.757 1.12 1.21 1.62l5.36-5.36 2.29 2.29c0.391 0.39 1.02 0.39 1.41 0l4.29-4.29v1.59c0 0.554 0.446 1 1 1s1-0.446 1-1v-4c0-0.554-0.446-1-1-1z" style="opacity:.1"/>
 <path d="m26 23c-0.554 0-1 0.446-1 1s0.446 1 1 1h1.59l-3.59 3.59-2.29-2.29c-0.391-0.39-1.02-0.39-1.41 0l-5.53 5.53c0.269 0.648 0.604 1.26 0.996 1.83l5.24-5.24 2.29 2.29c0.391 0.39 1.02 0.39 1.41 0l4.29-4.29v1.59c0 0.554 0.446 1 1 1s1-0.446 1-1v-4c0-0.554-0.446-1-1-1h-4z" style="fill:#db4a53"/>
</svg>
