<svg version="1.1" viewBox="0 0 48 48" xmlns="http://www.w3.org/2000/svg">
 <defs>
  <linearGradient id="bg" x2="0" y1="1" y2="47" gradientUnits="userSpaceOnUse">
   <stop style="stop-color:#2ea9e5" offset="0"/>
   <stop style="stop-color:#1da2e3" offset="1"/>
  </linearGradient>
 </defs>
 <path d="m36.31 5c5.859 4.062 9.688 10.831 9.688 18.5 0 12.426-10.07 22.5-22.5 22.5-7.669 0-14.438-3.828-18.5-9.688 1.037 1.822 2.306 3.499 3.781 4.969 4.085 3.712 9.514 5.969 15.469 5.969 12.703 0 23-10.298 23-23 0-5.954-2.256-11.384-5.969-15.469-1.469-1.475-3.147-2.744-4.969-3.781zm4.969 3.781c3.854 4.113 6.219 9.637 6.219 15.719 0 12.703-10.297 23-23 23-6.081 0-11.606-2.364-15.719-6.219 4.16 4.144 9.883 6.719 16.219 6.719 12.703 0 23-10.298 23-23 0-6.335-2.575-12.06-6.719-16.219z" style="opacity:.05"/>
 <path d="m41.28 8.781c3.712 4.085 5.969 9.514 5.969 15.469 0 12.703-10.297 23-23 23-5.954 0-11.384-2.256-15.469-5.969 4.113 3.854 9.637 6.219 15.719 6.219 12.703 0 23-10.298 23-23 0-6.081-2.364-11.606-6.219-15.719z" style="opacity:.1"/>
 <path d="m31.25 2.375c8.615 3.154 14.75 11.417 14.75 21.13 0 12.426-10.07 22.5-22.5 22.5-9.708 0-17.971-6.135-21.12-14.75a23 23 0 0 0 44.875-7 23 23 0 0 0-16-21.875z" style="opacity:.2"/>
 <circle cx="24" cy="24" r="23" style="fill:url(#bg)"/>
 <path d="m40.03 7.531c3.712 4.084 5.969 9.514 5.969 15.469 0 12.703-10.297 23-23 23-5.954 0-11.384-2.256-15.469-5.969 4.178 4.291 10.01 6.969 16.469 6.969 12.703 0 23-10.298 23-23 0-6.462-2.677-12.291-6.969-16.469z" style="opacity:.1"/>
 <path d="m25 10c-8.2843 0-15 6.7157-15 15s6.7157 15 15 15 15-6.7157 15-15-6.7157-15-15-15zm0 2c7.1797 0 13 5.8203 13 13-0.0074 6.0113-4.1353 11.234-9.9824 12.629-0.017578-3.6289 1.9824-5.6289 1.9824-6.6289v-3s3-5 5-7c0-2-1-1.3945-1-1.3945v-0.60547l-1 1s1-3-1-4c-2 1-4 3-4 3h-2l-3 2c-2 0-4 0-5 1s2 3 2 3l-4 7-1.4414 0.7207c-1.6567-2.2336-2.5535-4.9397-2.5586-7.7207 0-7.1797 5.8203-13 13-13zm1 8h2l-2 1h-1z" style="opacity:.1"/>
 <path d="m24 9c-8.2843 0-15 6.7157-15 15s6.7157 15 15 15 15-6.7157 15-15-6.7157-15-15-15zm0 2c7.1797 0 13 5.8203 13 13-0.0074 6.0113-4.1353 11.234-9.9824 12.629-0.017578-3.6289 1.9824-5.6289 1.9824-6.6289v-3s3-5 5-7c0-2-1-1.3945-1-1.3945v-0.60547l-1 1s1-3-1-4c-2 1-4 3-4 3h-2l-3 2c-2 0-4 0-5 1s2 3 2 3l-4 7-1.4414 0.7207c-1.6567-2.2336-2.5535-4.9397-2.5586-7.7207 0-7.1797 5.8203-13 13-13zm1 8h2l-2 1h-1z" style="fill:#d8eff6"/>
</svg>
