<svg version="1.1" viewBox="0 0 48 48" xmlns="http://www.w3.org/2000/svg">
 <defs>
  <linearGradient id="bg" x2="0" y1="1" y2="47" gradientUnits="userSpaceOnUse">
   <stop style="stop-color:#384276" offset="0"/>
   <stop style="stop-color:#313a68" offset="1"/>
  </linearGradient>
 </defs>
 <path d="m36.3 5c5.86 4.06 9.69 10.8 9.69 18.5 0 12.4-10.1 22.5-22.5 22.5-7.67 0-14.4-3.83-18.5-9.69 1.04 1.82 2.31 3.5 3.78 4.97 4.08 3.71 9.51 5.97 15.5 5.97 12.7 0 23-10.3 23-23 0-5.95-2.26-11.4-5.97-15.5-1.47-1.48-3.15-2.74-4.97-3.78zm4.97 3.78c3.85 4.11 6.22 9.64 6.22 15.7 0 12.7-10.3 23-23 23-6.08 0-11.6-2.36-15.7-6.22 4.16 4.14 9.88 6.72 16.2 6.72 12.7 0 23-10.3 23-23 0-6.34-2.58-12.1-6.72-16.2z" style="opacity:.05"/>
 <path d="m41.3 8.78c3.71 4.08 5.97 9.51 5.97 15.5 0 12.7-10.3 23-23 23-5.95 0-11.4-2.26-15.5-5.97 4.11 3.85 9.64 6.22 15.7 6.22 12.7 0 23-10.3 23-23 0-6.08-2.36-11.6-6.22-15.7z" style="opacity:.1"/>
 <path d="m31.2 2.38c8.62 3.15 14.8 11.4 14.8 21.1 0 12.4-10.1 22.5-22.5 22.5-9.71 0-18-6.14-21.1-14.8a23 23 0 0 0 44.9-7 23 23 0 0 0-16-21.9z" style="opacity:.2"/>
 <circle cx="24" cy="24" r="23" style="fill:url(#bg)"/>
 <path d="m16 14c-0.417 0-0.787 0.239-1.02 0.539-0.231 0.3-0.375 0.663-0.494 1.07-0.436 1.88-0.551 3.64-0.938 5.5-0.0998 0.342-0.221 0.605-0.326 0.742s-0.141 0.148-0.225 0.148c-0.153 0-0.275-0.0834-0.467-0.391s-0.377-0.785-0.564-1.29-0.378-1.02-0.654-1.46-0.717-0.859-1.31-0.859h-8.18c-0.0928 0.331-0.178 0.665-0.256 1h8.43l1.03 1.68c0.188 0.5 0.378 1.02 0.654 1.46s0.717 0.859 1.31 0.859c0.417 0 0.787-0.239 1.02-0.539 0.231-0.3 0.375-0.663 0.494-1.07 0.436-1.88 0.551-3.64 0.938-5.5 0.0998-0.342 0.221-0.605 0.326-0.742l2.58 6.29c0.168 0.404 0.356 0.762 0.611 1.05 0.256 0.287 0.62 0.51 1.04 0.51s0.787-0.239 1.02-0.539c0.231-0.3 0.375-0.663 0.494-1.07 0.436-1.88 0.551-3.64 0.938-5.5 0.0998-0.342 0.221-0.605 0.326-0.742s0.141-0.148 0.225-0.148 0.156 0.0268 0.291 0.178c0.135 0.151 0.291 0.418 0.436 0.764 0.667 1.86 0.988 3.71 1.62 5.5 0.168 0.404 0.356 0.762 0.611 1.05 0.256 0.287 0.62 0.51 1.04 0.51s0.787-0.239 1.02-0.539c0.231-0.3 0.375-0.663 0.494-1.07 0.436-1.88 0.551-3.64 0.938-5.5 0.0998-0.342 0.221-0.605 0.326-0.742l0.516 0.0293 2.06 6.26c0.168 0.404 0.356 0.762 0.611 1.05 0.256 0.287 0.62 0.51 1.04 0.51s0.787-0.239 1.02-0.539c0.231-0.3 0.375-0.663 0.494-1.07 0.436-1.88 0.551-3.64 0.938-5.5 0.0998-0.342 0.221-0.605 0.326-0.742s0.141-0.148 0.225-0.148l1.09 1.69c0.2 0.5 0.403 1.02 0.689 1.46s0.727 0.852 1.32 0.852h6.32c-0.0674-0.335-0.142-0.668-0.225-1h-6.1c-0.153 0-0.285-0.0889-0.486-0.398s-0.4-0.787-0.6-1.29-0.401-1.02-0.688-1.46c-0.286-0.44-0.729-0.852-1.33-0.852-0.417 0-0.787 0.239-1.02 0.539-0.231 0.3-0.375 0.663-0.494 1.07-0.436 1.88-0.551 3.64-0.938 5.5-0.0998 0.342-0.221 0.605-0.326 0.742s-0.141 0.148-0.225 0.148-0.156-0.0268-0.291-0.178c-0.135-0.151-0.291-0.418-0.436-0.764-0.667-1.86-0.988-3.71-1.62-5.5-0.168-0.404-0.356-0.762-0.611-1.05-0.256-0.287-0.62-0.51-1.04-0.51s-0.787 0.239-1.02 0.539c-0.231 0.3-0.375 0.663-0.494 1.07-0.436 1.88-0.551 3.64-0.938 5.5-0.0998 0.342-0.221 0.605-0.326 0.742s-0.141 0.148-0.225 0.148-0.156-0.0268-0.291-0.178c-0.135-0.151-0.291-0.418-0.436-0.764-0.667-1.86-0.988-3.71-1.62-5.5-0.168-0.404-0.356-0.762-0.611-1.05-0.256-0.287-0.62-0.51-1.04-0.51s-0.787 0.239-1.02 0.539c-0.231 0.3-0.375 0.663-0.494 1.07-0.436 1.88-0.551 3.64-0.938 5.5-0.0998 0.342-0.221 0.605-0.326 0.742s-0.141 0.148-0.225 0.148-0.156-0.0268-0.291-0.178c-0.135-0.151-0.291-0.418-0.436-0.764-0.667-1.86-0.988-3.71-1.62-5.5-0.168-0.404-0.356-0.762-0.611-1.05-0.256-0.287-0.62-0.51-1.04-0.51zm0 13c-0.417 0-0.787 0.239-1.02 0.539-0.231 0.3-0.375 0.663-0.494 1.07-0.436 1.88-0.551 3.64-0.938 5.5-0.0998 0.342-0.221 0.605-0.326 0.742s-0.141 0.148-0.225 0.148c-0.153 0-0.275-0.0834-0.467-0.391s-0.377-0.785-0.564-1.29-0.378-1.02-0.654-1.46-0.717-0.859-1.31-0.859h-7.88c0.103 0.336 0.214 0.669 0.332 1h7.55l1.03 1.68c0.188 0.5 0.378 1.02 0.654 1.46s0.717 0.859 1.31 0.859c0.417 0 0.787-0.239 1.02-0.539 0.231-0.3 0.375-0.663 0.494-1.07 0.436-1.88 0.551-3.64 0.938-5.5 0.0998-0.342 0.221-0.605 0.326-0.742l2.58 6.29c0.168 0.404 0.356 0.762 0.611 1.05 0.256 0.287 0.62 0.51 1.04 0.51s0.787-0.239 1.02-0.539c0.231-0.3 0.375-0.663 0.494-1.07 0.436-1.88 0.551-3.64 0.938-5.5 0.0998-0.342 0.221-0.605 0.326-0.742s0.141-0.148 0.225-0.148 0.156 0.0268 0.291 0.178c0.135 0.151 0.291 0.418 0.436 0.764 0.667 1.86 0.988 3.71 1.62 5.5 0.168 0.404 0.356 0.762 0.611 1.05 0.256 0.287 0.62 0.51 1.04 0.51s0.787-0.239 1.02-0.539c0.231-0.3 0.375-0.663 0.494-1.07 0.436-1.88 0.551-3.64 0.938-5.5 0.0998-0.342 0.221-0.605 0.326-0.742l0.516 0.0293 2.06 6.26c0.168 0.404 0.356 0.762 0.611 1.05 0.256 0.287 0.62 0.51 1.04 0.51s0.787-0.239 1.02-0.539c0.231-0.3 0.375-0.663 0.494-1.07 0.436-1.88 0.551-3.64 0.938-5.5 0.0998-0.342 0.221-0.605 0.326-0.742s0.141-0.148 0.225-0.148l1.09 1.69c0.2 0.5 0.403 1.02 0.689 1.46s0.727 0.852 1.32 0.852h5.43c0.129-0.33 0.251-0.664 0.365-1h-5.8c-0.153 0-0.285-0.0889-0.486-0.398s-0.4-0.787-0.6-1.29-0.401-1.02-0.688-1.46c-0.286-0.44-0.729-0.852-1.33-0.852-0.417 0-0.787 0.239-1.02 0.539-0.231 0.3-0.375 0.663-0.494 1.07-0.436 1.88-0.551 3.64-0.938 5.5-0.0998 0.342-0.221 0.605-0.326 0.742s-0.141 0.148-0.225 0.148-0.156-0.0268-0.291-0.178c-0.135-0.151-0.291-0.418-0.436-0.764-0.667-1.86-0.988-3.71-1.62-5.5-0.168-0.404-0.356-0.762-0.611-1.05-0.256-0.287-0.62-0.51-1.04-0.51s-0.787 0.239-1.02 0.539c-0.231 0.3-0.375 0.663-0.494 1.07-0.436 1.88-0.551 3.64-0.938 5.5-0.0998 0.342-0.221 0.605-0.326 0.742s-0.141 0.148-0.225 0.148-0.156-0.0268-0.291-0.178c-0.135-0.151-0.291-0.418-0.436-0.764-0.667-1.86-0.988-3.71-1.62-5.5-0.168-0.404-0.356-0.762-0.611-1.05-0.256-0.287-0.62-0.51-1.04-0.51s-0.787 0.239-1.02 0.539c-0.231 0.3-0.375 0.663-0.494 1.07-0.436 1.88-0.551 3.64-0.938 5.5-0.0998 0.342-0.221 0.605-0.326 0.742s-0.141 0.148-0.225 0.148-0.156-0.0268-0.291-0.178c-0.135-0.151-0.291-0.418-0.436-0.764-0.667-1.86-0.988-3.71-1.62-5.5-0.168-0.404-0.356-0.762-0.611-1.05-0.256-0.287-0.62-0.51-1.04-0.51z" style="color:#000000;opacity:.1"/>
 <path d="m15 13 0.00391 0.00781c-0.417 0-0.787 0.239-1.02 0.539-0.231 0.3-0.375 0.663-0.494 1.07-0.436 1.88-0.55 3.64-0.938 5.5-0.0998 0.342-0.221 0.605-0.326 0.742-0.105 0.137-0.143 0.146-0.227 0.146-0.153 0-0.275-0.083-0.467-0.391-0.192-0.308-0.376-0.784-0.562-1.29-0.187-0.505-0.378-1.02-0.654-1.46-0.276-0.44-0.718-0.859-1.31-0.859h-6.9c-0.1 0.331-0.192 0.665-0.277 1h7.18c0.153 0 0.275 0.085 0.467 0.393 0.192 0.308 0.376 0.784 0.562 1.29 0.187 0.505 0.378 1.02 0.654 1.46s0.718 0.857 1.31 0.857c0.417 0 0.787-0.237 1.02-0.537 0.231-0.3 0.375-0.663 0.494-1.07 0.436-1.88 0.55-3.64 0.938-5.5 0.0998-0.342 0.221-0.605 0.326-0.742 0.105-0.137 0.143-0.148 0.227-0.148s0.156 0.0265 0.291 0.178c0.135 0.151 0.291 0.418 0.436 0.764 0.667 1.86 0.987 3.71 1.62 5.5 0.168 0.404 0.356 0.763 0.611 1.05 0.256 0.287 0.621 0.51 1.04 0.51 0.42 0 0.787-0.239 1.02-0.539 0.231-0.3 0.375-0.663 0.494-1.07 0.436-1.88 0.55-3.64 0.938-5.5 0.0998-0.342 0.221-0.605 0.326-0.742 0.105-0.137 0.141-0.146 0.225-0.146s0.156 0.0265 0.291 0.178c0.135 0.151 0.291 0.418 0.436 0.764 0.681 1.9 1.05 3.89 1.62 5.5 0.168 0.404 0.356 0.761 0.611 1.05 0.256 0.287 0.621 0.512 1.04 0.512 0.42 0 0.787-0.239 1.02-0.539 0.231-0.3 0.375-0.663 0.494-1.07 0.436-1.88 0.551-3.64 0.938-5.5 0.0998-0.342 0.221-0.605 0.326-0.742s0.141-0.148 0.225-0.148c0.084 0 0.156 0.0265 0.291 0.178 0.135 0.151 0.291 0.418 0.436 0.764 0.667 1.86 0.989 3.71 1.62 5.5 0.168 0.404 0.356 0.763 0.611 1.05 0.256 0.287 0.619 0.51 1.04 0.51 0.42 0 0.787-0.239 1.02-0.539 0.231-0.3 0.375-0.663 0.494-1.07 0.436-1.88 0.551-3.64 0.938-5.5 0.0998-0.342 0.221-0.605 0.326-0.742s0.143-0.146 0.227-0.146c0.153 0 0.283 0.0874 0.484 0.396 0.201 0.309 0.402 0.788 0.602 1.29 0.2 0.5 0.402 1.02 0.688 1.46 0.286 0.44 0.727 0.854 1.32 0.854h7.1c-0.0978-0.336-0.201-0.669-0.314-1h-6.78c-0.153 0-0.285-0.0893-0.486-0.398-0.201-0.309-0.4-0.788-0.6-1.29-0.2-0.503-0.4-1.02-0.688-1.46-0.286-0.44-0.729-0.852-1.33-0.852-0.417 0-0.787 0.239-1.02 0.539-0.231 0.3-0.375 0.661-0.494 1.07-0.436 1.88-0.55 3.64-0.938 5.5-0.0998 0.342-0.221 0.605-0.326 0.742s-0.143 0.148-0.227 0.148-0.156-0.0265-0.291-0.178c-0.135-0.151-0.291-0.418-0.436-0.764-0.667-1.86-0.987-3.71-1.62-5.5-0.168-0.404-0.356-0.763-0.611-1.05-0.256-0.287-0.619-0.51-1.04-0.51l-0.00195-0.00781c-0.417 0-0.787 0.239-1.02 0.539-0.231 0.3-0.375 0.663-0.494 1.07-0.436 1.88-0.55 3.64-0.938 5.5-0.0998 0.342-0.221 0.605-0.326 0.742-0.105 0.137-0.143 0.146-0.227 0.146s-0.156-0.0265-0.291-0.178c-0.135-0.151-0.291-0.418-0.436-0.764-0.673-1.88-1.04-3.87-1.62-5.5-0.168-0.404-0.356-0.761-0.611-1.05-0.256-0.287-0.619-0.512-1.04-0.512-0.42 0-0.787 0.239-1.02 0.539-0.231 0.3-0.375 0.663-0.494 1.07-0.436 1.88-0.55 3.64-0.938 5.5-0.0998 0.342-0.221 0.605-0.326 0.742s-0.143 0.148-0.227 0.148-0.156-0.0265-0.291-0.178c-0.135-0.151-0.291-0.418-0.436-0.764-0.667-1.86-0.987-3.71-1.62-5.5-0.168-0.404-0.356-0.763-0.611-1.05-0.256-0.287-0.621-0.51-1.04-0.51zm-0.00586 13 0.00977 0.00781c-0.417 0-0.787 0.239-1.02 0.539-0.231 0.3-0.375 0.663-0.494 1.07-0.436 1.88-0.55 3.64-0.938 5.5-0.0998 0.342-0.221 0.605-0.326 0.742-0.105 0.137-0.143 0.146-0.227 0.146-0.153 0-0.275-0.083-0.467-0.391-0.192-0.308-0.376-0.784-0.562-1.29-0.187-0.505-0.378-1.02-0.654-1.46-0.276-0.44-0.718-0.859-1.31-0.859h-7.2c0.0979 0.336 0.201 0.669 0.314 1h6.88c0.153 0 0.275 0.085 0.467 0.393 0.192 0.308 0.377 0.784 0.564 1.29 0.187 0.505 0.378 1.02 0.654 1.46 0.276 0.44 0.716 0.857 1.31 0.857 0.417 0 0.788-0.237 1.02-0.537 0.231-0.3 0.375-0.663 0.494-1.07 0.436-1.88 0.551-3.64 0.938-5.5 0.0998-0.342 0.221-0.605 0.326-0.742 0.105-0.137 0.141-0.148 0.225-0.148s0.156 0.0265 0.291 0.178c0.135 0.151 0.291 0.418 0.436 0.764 0.667 1.86 0.989 3.71 1.62 5.5 0.168 0.404 0.354 0.763 0.609 1.05 0.256 0.287 0.621 0.51 1.04 0.51 0.42 0 0.787-0.239 1.02-0.539 0.231-0.3 0.375-0.663 0.494-1.07 0.436-1.88 0.551-3.64 0.938-5.5 0.0998-0.342 0.221-0.605 0.326-0.742 0.105-0.137 0.141-0.146 0.225-0.146s0.156 0.0265 0.291 0.178c0.135 0.151 0.293 0.418 0.438 0.764 0.685 1.91 0.99 3.7 1.63 5.5 0.168 0.404 0.356 0.761 0.611 1.05 0.256 0.287 0.621 0.512 1.04 0.512 0.42 0 0.787-0.239 1.02-0.539 0.231-0.3 0.375-0.663 0.494-1.07 0.436-1.88 0.551-3.64 0.938-5.5 0.0998-0.342 0.221-0.605 0.326-0.742s0.141-0.148 0.225-0.148c0.084 0 0.156 0.0265 0.291 0.178 0.135 0.151 0.291 0.418 0.436 0.764 0.667 1.86 0.989 3.71 1.62 5.5 0.168 0.404 0.356 0.763 0.611 1.05 0.256 0.287 0.619 0.51 1.04 0.51 0.42 0 0.787-0.239 1.02-0.539 0.231-0.3 0.375-0.663 0.494-1.07 0.436-1.88 0.551-3.64 0.938-5.5 0.0998-0.342 0.221-0.605 0.326-0.742s0.143-0.146 0.227-0.146c0.153 0 0.283 0.0874 0.484 0.396 0.201 0.309 0.402 0.788 0.602 1.29 0.2 0.5 0.402 1.02 0.688 1.46 0.286 0.44 0.727 0.854 1.32 0.854h6.8c0.1-0.331 0.192-0.665 0.277-1h-7.08c-0.153 0-0.285-0.0893-0.486-0.398s-0.4-0.788-0.6-1.29c-0.2-0.503-0.402-1.02-0.689-1.46-0.286-0.44-0.729-0.852-1.33-0.852-0.417 0-0.787 0.239-1.02 0.539-0.231 0.3-0.375 0.661-0.494 1.07-0.436 1.88-0.551 3.64-0.938 5.5-0.0998 0.342-0.221 0.605-0.326 0.742s-0.141 0.148-0.225 0.148c-0.084 0-0.156-0.0265-0.291-0.178-0.135-0.151-0.291-0.418-0.436-0.764-0.667-1.86-0.989-3.71-1.62-5.5-0.168-0.404-0.356-0.763-0.611-1.05-0.256-0.287-0.619-0.51-1.04-0.51l0.00586-0.00781c-0.417 0-0.787 0.239-1.02 0.539-0.231 0.3-0.375 0.663-0.494 1.07-0.436 1.88-0.55 3.64-0.938 5.5-0.0998 0.342-0.221 0.605-0.326 0.742-0.105 0.137-0.143 0.146-0.227 0.146s-0.156-0.0265-0.291-0.178c-0.135-0.151-0.291-0.418-0.436-0.764-0.665-1.86-1.06-3.91-1.63-5.5-0.168-0.404-0.356-0.761-0.611-1.05-0.256-0.287-0.621-0.512-1.04-0.512-0.42 0-0.787 0.239-1.02 0.539-0.231 0.3-0.375 0.663-0.494 1.07-0.436 1.88-0.55 3.64-0.938 5.5-0.0998 0.342-0.221 0.605-0.326 0.742s-0.141 0.148-0.225 0.148-0.156-0.0265-0.291-0.178c-0.135-0.151-0.291-0.418-0.436-0.764-0.667-1.86-0.989-3.71-1.62-5.5-0.168-0.404-0.356-0.763-0.611-1.05-0.256-0.287-0.619-0.51-1.04-0.51z" style="fill:#8cc6f2"/>
 <path d="m40 7.53c3.71 4.08 5.97 9.51 5.97 15.5 0 12.7-10.3 23-23 23-5.95 0-11.4-2.26-15.5-5.97 4.18 4.29 10 6.97 16.5 6.97 12.7 0 23-10.3 23-23 0-6.46-2.68-12.3-6.97-16.5z" style="opacity:.1"/>
</svg>
