<svg version="1.1" viewBox="0 0 48 48" xmlns="http://www.w3.org/2000/svg">
 <defs>
  <linearGradient id="bg" x1="1" x2="47" gradientTransform="rotate(-90 24 24)" gradientUnits="userSpaceOnUse">
   <stop style="stop-color:#ace739" offset="0"/>
   <stop style="stop-color:#b3e94b" offset="1"/>
  </linearGradient>
 </defs>
 <path d="m36.3 5c5.86 4.06 9.69 10.8 9.69 18.5 0 12.4-10.1 22.5-22.5 22.5-7.67 0-14.4-3.83-18.5-9.69 1.04 1.82 2.31 3.5 3.78 4.97 4.08 3.71 9.51 5.97 15.5 5.97 12.7 0 23-10.3 23-23 0-5.95-2.26-11.4-5.97-15.5-1.47-1.48-3.15-2.74-4.97-3.78zm4.97 3.78c3.85 4.11 6.22 9.64 6.22 15.7 0 12.7-10.3 23-23 23-6.08 0-11.6-2.36-15.7-6.22 4.16 4.14 9.88 6.72 16.2 6.72 12.7 0 23-10.3 23-23 0-6.34-2.58-12.1-6.72-16.2z" style="opacity:.05"/>
 <path d="m41.3 8.78c3.71 4.08 5.97 9.51 5.97 15.5 0 12.7-10.3 23-23 23-5.95 0-11.4-2.26-15.5-5.97 4.11 3.85 9.64 6.22 15.7 6.22 12.7 0 23-10.3 23-23 0-6.08-2.36-11.6-6.22-15.7z" style="opacity:.1"/>
 <path d="m31.2 2.38c8.62 3.15 14.8 11.4 14.8 21.1 0 12.4-10.1 22.5-22.5 22.5-9.71 0-18-6.14-21.1-14.8a23 23 0 0 0 44.9-7 23 23 0 0 0-16-21.9z" style="opacity:.2"/>
 <path d="m24 1c12.7 0 23 10.3 23 23s-10.3 23-23 23-23-10.3-23-23 10.3-23 23-23z" style="fill:url(#bg)"/>
 <path d="m18.4 8.62c-4.72 0-9.1 1.43-12.8 3.84-0.376 0.261-1.26 0.782-2.34 1.4-1.16 2.37-1.93 4.96-2.22 7.7 0.502-0.567 1.05-1.18 1.46-1.66 2.09-2.49 3.92-4.27 5.78-5.5 3.62 9.88 3.81 9.92 1.12-0.654 2.66-1.46 5.41-1.95 8.94-1.97 0.309-4e-3 0.598 0.02 0.906 0.031-0.043 5.51-0.904 16.9-3.97 21-4.43-11.4-3.89-9.38-0.904 0.344-0.211 0.105-0.41 0.263-0.625 0.439l-1.38-1.03 0.688 1.97c-2.93 0.445-5.84-0.289-8.75 0.781-0.128 0.054-0.214 0.11-0.334 0.164 0.418 0.725 0.873 1.43 1.36 2.1 0.08-0.019 0.136-0.023 0.219-0.043 2.76-0.625 4.77-2.96 7.53-1.4 0.043 0.215 0.156 0.406 0.25 0.594l-6.44 2.59c0.152 0.191 0.282 0.38 0.439 0.564 2.18-1.03 4.4-1.43 6.44-2.53 0.203 0.18 0.469 0.309 0.75 0.406l-3.78 5.1c0.237 0.166 0.479 0.326 0.723 0.482 1.29-1.7 1.98-3.6 3.71-5.46 0.238 0.02 0.508 0.057 0.781 0.021-0.319 2.61-0.12 5.28 0.449 7.84 0.893 0.307 1.81 0.567 2.75 0.764-0.818-2.92-2.42-5.69-2.26-8.79 0.887 0.34 1.35 0.781 2.34 1.47-0.445-0.668-0.992-1.1-1.38-1.94 0.086-0.141 0.168-0.282 0.219-0.439 4.56 1.73 8.82 2.22 13.4 5l2.52 1.88c-0.368 0.538-0.785 1.04-1.23 1.52 2.39-1.01 4.57-2.41 6.46-4.12 1.34-2.91 2.11-6.14 2.11-9.52 0-12.6-10.3-22.9-23.1-22.9m3.79 3.53c7.62 1.5 14.3 7.48 15.7 14.5l-0.344 0.439c-0.641 1.11-6.62 2.76-8.84 3.32-4.14 1.03-7.15 3.41-11.2 3.56-0.246-0.324-0.531-0.618-0.875-0.814 2.43-4.33 1.63-15.9 5.5-21zm15.1 16.4h4e-3l0.906 0.875c0 0.699-0.074 1.39-0.191 2.09-0.594 3.74-1.34 7.44-2.9 10.5l-3.32-1.09c-3.78-1.84-9.44-3.04-13.5-5.69 5.77-3.32 12.6-4.65 19-6.65zm-14.7 16.2c0.305 0.887 0.91 1.57 1.52 2.24 0.275-2e-3 0.548-8e-3 0.82-0.02-0.819-0.696-1.6-1.39-2.34-2.22z" style="opacity:.1"/>
 <path d="m17.4 7.62c-4.72 0-9.1 1.43-12.8 3.84-1.45 2.24-2.49 4.75-3.09 7.44 2.09-2.49 3.93-4.27 5.78-5.5 3.62 9.88 3.81 9.92 1.12-0.654 2.66-1.46 5.41-1.95 8.94-1.97 0.309-4e-3 0.598 0.02 0.906 0.031-0.043 5.51-0.902 16.9-3.97 21-4.43-11.4-3.9-9.38-0.906 0.344-0.211 0.105-0.41 0.263-0.625 0.439l-1.38-1.03 0.688 1.97c-2.93 0.445-5.84-0.289-8.75 0.781 0.387 0.773 0.785 1.5 1.25 2.22 2.76-0.625 4.77-2.96 7.53-1.4 0.043 0.215 0.156 0.406 0.25 0.594l-6.44 2.59c0.152 0.191 0.281 0.38 0.438 0.564 2.18-1.03 4.4-1.43 6.44-2.53 0.203 0.18 0.469 0.309 0.75 0.406l-3.91 5.28c0.223 0.176 0.46 0.361 0.687 0.529 1.41-1.75 2.07-3.75 3.88-5.69 0.238 0.02 0.508 0.059 0.781 0.023-0.348 2.84-0.102 5.77 0.594 8.53 0.902 0.352 1.86 0.641 2.82 0.875-0.711-3.22-2.64-6.21-2.47-9.59 0.887 0.34 1.35 0.781 2.34 1.47-0.445-0.668-0.992-1.1-1.38-1.94 0.086-0.141 0.168-0.282 0.219-0.439 4.56 1.73 8.82 2.22 13.4 5l2.52 1.88c-1.03 1.51-2.35 2.8-4.03 3.75 2.72-0.617 5.25-1.71 7.5-3.19 2.43-3.64 3.88-8.02 3.88-12.7 0-12.6-10.3-22.9-23.1-22.9m3.79 3.53c7.62 1.5 14.3 7.48 15.7 14.5l-0.344 0.439c-0.641 1.11-6.62 2.76-8.84 3.32-4.14 1.03-7.15 3.41-11.2 3.56-0.246-0.324-0.531-0.618-0.875-0.814 2.43-4.33 1.63-15.9 5.5-21zm15.1 16.4 0.91 0.875c0 0.699-0.074 1.39-0.191 2.09-0.594 3.74-1.34 7.44-2.9 10.5l-3.32-1.09c-3.78-1.84-9.44-3.04-13.5-5.69 5.77-3.32 12.6-4.65 19-6.65zm-14.7 16.2c0.457 1.33 1.58 2.22 2.4 3.25 0.375 0 0.758-0.012 1.12-0.031-1.32-1.07-2.43-2-3.53-3.22z" style="fill:#f3f9eb"/>
 <path d="m40 7.53c3.71 4.08 5.97 9.51 5.97 15.5 0 12.7-10.3 23-23 23-5.95 0-11.4-2.26-15.5-5.97 4.18 4.29 10 6.97 16.5 6.97 12.7 0 23-10.3 23-23 0-6.46-2.68-12.3-6.97-16.5z" style="opacity:.1"/>
</svg>
