<svg xmlns="http://www.w3.org/2000/svg" viewBox="0 0 48 48">
 <defs>
  <linearGradient id="linearGradient3904" gradientUnits="userSpaceOnUse" y1="1" x2="0" y2="47">
   <stop style="stop-color:#fad25a;stop-opacity:1"/>
   <stop offset="1" style="stop-color:#f9cd47;stop-opacity:1"/>
  </linearGradient>
 </defs>
 <g>
  <path d="m 36.31 5 c 5.859 4.062 9.688 10.831 9.688 18.5 c 0 12.426 -10.07 22.5 -22.5 22.5 c -7.669 0 -14.438 -3.828 -18.5 -9.688 c 1.037 1.822 2.306 3.499 3.781 4.969 c 4.085 3.712 9.514 5.969 15.469 5.969 c 12.703 0 23 -10.298 23 -23 c 0 -5.954 -2.256 -11.384 -5.969 -15.469 c -1.469 -1.475 -3.147 -2.744 -4.969 -3.781 z m 4.969 3.781 c 3.854 4.113 6.219 9.637 6.219 15.719 c 0 12.703 -10.297 23 -23 23 c -6.081 0 -11.606 -2.364 -15.719 -6.219 c 4.16 4.144 9.883 6.719 16.219 6.719 c 12.703 0 23 -10.298 23 -23 c 0 -6.335 -2.575 -12.06 -6.719 -16.219 z" style="opacity:0.05"/>
  <path d="m 41.28 8.781 c 3.712 4.085 5.969 9.514 5.969 15.469 c 0 12.703 -10.297 23 -23 23 c -5.954 0 -11.384 -2.256 -15.469 -5.969 c 4.113 3.854 9.637 6.219 15.719 6.219 c 12.703 0 23 -10.298 23 -23 c 0 -6.081 -2.364 -11.606 -6.219 -15.719 z" style="opacity:0.1"/>
  <path d="m 31.25 2.375 c 8.615 3.154 14.75 11.417 14.75 21.13 c 0 12.426 -10.07 22.5 -22.5 22.5 c -9.708 0 -17.971 -6.135 -21.12 -14.75 a 23 23 0 0 0 44.875 -7 a 23 23 0 0 0 -16 -21.875 z" style="opacity:0.2"/>
 </g>
 <path d="M 24,1 C 36.703,1 47,11.297 47,24 47,36.703 36.703,47 24,47 11.297,47 1,36.703 1,24 1,11.297 11.297,1 24,1 z" style="fill:url(#linearGradient3904);fill-opacity:1"/>
 <g>
  <path d="m 40.03 7.531 c 3.712 4.084 5.969 9.514 5.969 15.469 0 12.703 -10.297 23 -23 23 c -5.954 0 -11.384 -2.256 -15.469 -5.969 4.178 4.291 10.01 6.969 16.469 6.969 c 12.703 0 23 -10.298 23 -23 0 -6.462 -2.677 -12.291 -6.969 -16.469 z" style="opacity:0.1"/>
 </g>
 <path d="m 25 11.5 c -8.284 0 -15 6.716 -15 15 0.002 0.249 0.011 0.498 0.025 0.746 l 8.975 3.262 a 6 6 0 0 0 6 5.992 a 6 6 0 0 0 6 -6 l 8.965 -3.301 c 0.017 -0.233 0.029 -0.466 0.035 -0.699 c 0 -8.284 -6.716 -15 -15 -15 z" style="fill:#000;fill-opacity:0.098"/>
 <g>
  <path d="m 24 10.5 c -8.284 0 -15 6.716 -15 15 c 0.002 0.249 0.011 0.498 0.025 0.746 l 8.975 3.262 a 6 6 0 0 0 6 5.992 a 6 6 0 0 0 6 -6 l 8.965 -3.301 c 0.017 -0.233 0.029 -0.466 0.035 -0.699 c 0 -8.284 -6.716 -15 -15 -15 z" style="fill:#f7e8b1;fill-opacity:1"/>
  <path d="m 26.807 28.499 c -0.33 -0.438 -0.773 -0.796 -1.297 -1.057 -1.667 -0.822 -3.56 -0.234 -4.256 1.344 -0.696 1.578 0.081 3.528 1.748 4.35 1.654 0.818 3.551 0.208 4.256 -1.344 1.721 -3.915 3.452 -7.835 5.178 -11.751 1.667 4.523 1.066 5.266 -2.539 8.325 c 6.506 -2.244 6.187 -5.485 2.417 -12.366 -1.878 4.265 -3.819 8.666 -5.507 12.499" style="fill:#000;fill-opacity:0.098;stroke:none;fill-rule:evenodd"/>
  <path d="m 26.307 27.999 c -0.33 -0.438 -0.773 -0.796 -1.297 -1.057 -1.667 -0.822 -3.56 -0.234 -4.256 1.344 -0.696 1.578 0.081 3.528 1.748 4.35 1.654 0.818 3.551 0.208 4.256 -1.344 1.721 -3.915 3.452 -7.835 5.178 -11.751 1.667 4.523 1.066 5.266 -2.539 8.325 c 6.506 -2.244 6.187 -5.485 2.417 -12.366 -1.878 4.265 -3.819 8.666 -5.507 12.499" style="fill:#659862;fill-opacity:1;stroke:none;fill-rule:evenodd"/>
 </g>
</svg>
