<svg version="1.1" viewBox="0 0 48 48" xmlns="http://www.w3.org/2000/svg">
 <defs>
  <linearGradient id="linearGradient3904" x2="0" y1="1" y2="47" gradientUnits="userSpaceOnUse">
   <stop style="stop-color:#fad25a" offset="0"/>
   <stop style="stop-color:#f9cd47" offset="1"/>
  </linearGradient>
 </defs>
 <path d="m36.31 5c5.859 4.062 9.688 10.831 9.688 18.5 0 12.426-10.07 22.5-22.5 22.5-7.669 0-14.438-3.828-18.5-9.688 1.037 1.822 2.306 3.499 3.781 4.969 4.085 3.712 9.514 5.969 15.469 5.969 12.703 0 23-10.298 23-23 0-5.954-2.256-11.384-5.969-15.469-1.469-1.475-3.147-2.744-4.969-3.781zm4.969 3.781c3.854 4.113 6.219 9.637 6.219 15.719 0 12.703-10.297 23-23 23-6.081 0-11.606-2.364-15.719-6.219 4.16 4.144 9.883 6.719 16.219 6.719 12.703 0 23-10.298 23-23 0-6.335-2.575-12.06-6.719-16.219z" style="opacity:.05"/>
 <path d="m41.28 8.781c3.712 4.085 5.969 9.514 5.969 15.469 0 12.703-10.297 23-23 23-5.954 0-11.384-2.256-15.469-5.969 4.113 3.854 9.637 6.219 15.719 6.219 12.703 0 23-10.298 23-23 0-6.081-2.364-11.606-6.219-15.719z" style="opacity:.1"/>
 <path d="m31.25 2.375c8.615 3.154 14.75 11.417 14.75 21.13 0 12.426-10.07 22.5-22.5 22.5-9.708 0-17.971-6.135-21.12-14.75a23 23 0 0 0 44.875 -7 23 23 0 0 0 -16 -21.875z" style="opacity:.2"/>
 <path d="m24 1c12.703 0 23 10.297 23 23s-10.297 23-23 23-23-10.297-23-23 10.297-23 23-23z" style="fill:url(#linearGradient3904)"/>
 <path d="m40.03 7.531c3.712 4.084 5.969 9.514 5.969 15.469 0 12.703-10.297 23-23 23-5.954 0-11.384-2.256-15.469-5.969 4.178 4.291 10.01 6.969 16.469 6.969 12.703 0 23-10.298 23-23 0-6.462-2.677-12.291-6.969-16.469z" style="opacity:.1"/>
 <path d="m25 11.5c-8.284 0-15 6.716-15 15 2e-3 0.249 0.011 0.498 0.025 0.746l8.975 3.262a6 6 0 0 0 6 5.992 6 6 0 0 0 6 -6l8.965-3.301c0.017-0.233 0.029-0.466 0.035-0.699 0-8.284-6.716-15-15-15z" style="opacity:.1"/>
 <path d="m24 10.5c-8.284 0-15 6.716-15 15 2e-3 0.249 0.011 0.498 0.025 0.746l8.975 3.262a6 6 0 0 0 6 5.992 6 6 0 0 0 6 -6l8.965-3.301c0.017-0.233 0.029-0.466 0.035-0.699 0-8.284-6.716-15-15-15z" style="fill:#f7e8b1"/>
 <path d="m26.807 28.499c-0.33-0.438-0.773-0.796-1.297-1.057-1.667-0.822-3.56-0.234-4.256 1.344s0.081 3.528 1.748 4.35c1.654 0.818 3.551 0.208 4.256-1.344 1.721-3.915 3.452-7.835 5.178-11.751 1.667 4.523 1.066 5.266-2.539 8.325 6.506-2.244 6.187-5.485 2.417-12.366-1.878 4.265-3.819 8.666-5.507 12.499" style="fill-opacity:.098;fill-rule:evenodd"/>
 <path d="m26.307 27.999c-0.33-0.438-0.773-0.796-1.297-1.057-1.667-0.822-3.56-0.234-4.256 1.344s0.081 3.528 1.748 4.35c1.654 0.818 3.551 0.208 4.256-1.344 1.721-3.915 3.452-7.835 5.178-11.751 1.667 4.523 1.066 5.266-2.539 8.325 6.506-2.244 6.187-5.485 2.417-12.366-1.878 4.265-3.819 8.666-5.507 12.499" style="fill-rule:evenodd;fill:#659862"/>
</svg>
