<svg version="1.1" viewBox="0 0 48 48" xmlns="http://www.w3.org/2000/svg">
 <defs>
  <linearGradient id="linearGradient3764" x2="0" y1="47" y2="1" gradientUnits="userSpaceOnUse">
   <stop style="stop-color:#e4e4e4" offset="0"/>
   <stop style="stop-color:#eee" offset="1"/>
  </linearGradient>
 </defs>
 <path d="m36.3 5c5.86 4.06 9.69 10.8 9.69 18.5 0 12.4-10.1 22.5-22.5 22.5-7.67 0-14.4-3.83-18.5-9.69 1.04 1.82 2.31 3.5 3.78 4.97 4.08 3.71 9.51 5.97 15.5 5.97 12.7 0 23-10.3 23-23 0-5.95-2.26-11.4-5.97-15.5-1.47-1.48-3.15-2.74-4.97-3.78zm4.97 3.78c3.85 4.11 6.22 9.64 6.22 15.7 0 12.7-10.3 23-23 23-6.08 0-11.6-2.36-15.7-6.22 4.16 4.14 9.88 6.72 16.2 6.72 12.7 0 23-10.3 23-23 0-6.34-2.58-12.1-6.72-16.2z" style="opacity:.05"/>
 <path d="m41.3 8.78c3.71 4.08 5.97 9.51 5.97 15.5 0 12.7-10.3 23-23 23-5.95 0-11.4-2.26-15.5-5.97 4.11 3.85 9.64 6.22 15.7 6.22 12.7 0 23-10.3 23-23 0-6.08-2.36-11.6-6.22-15.7z" style="opacity:.1"/>
 <path d="m31.2 2.38c8.62 3.15 14.8 11.4 14.8 21.1 0 12.4-10.1 22.5-22.5 22.5-9.71 0-18-6.14-21.1-14.8a23 23 0 0 0 44.9-7 23 23 0 0 0-16-21.9z" style="opacity:.2"/>
 <path d="m24 1c-0.336 0-0.669 0.011-1 0.025l-22 22c-0.014 0.332-0.025 0.665-0.025 1 0 0.336 0.011 0.669 0.025 1l22 22c0.332 0.014 0.665 0.025 1 0.025 12.7 0 23-10.3 23-23 0-0.335-0.011-0.668-0.025-1v-2e-3l-22-22c-0.333-0.014-0.666-0.025-1-0.025z" style="fill:url(#linearGradient3764)"/>
 <path d="m24 1c-12.7 0-23 10.3-23 23h15l-2e-3 2h-14.9c1.01 11.8 10.9 21 22.9 21l-4e-3 -10h9v-5h-9l4e-3 -6h-2v-2h2v-23zm2 0.092v22.9h21c0-12-9.23-21.9-21-22.9z" style="opacity:.1"/>
 <path d="m23 1.02c-11.9 0.51-21.5 10.1-22 22h22v-22z" style="fill:#ec8e68"/>
 <path d="m25 1.02v22h22c-0.51-11.9-10.1-21.5-22-22z" style="fill:#94db96"/>
 <path d="m1.02 25c0.51 11.9 10.1 21.5 22 22v-22h-22z" style="fill:#9ab9dd"/>
 <path d="m17 13v10h5v-10zm0 12v12h6v-5h-1v-7" style="fill-opacity:.098"/>
 <path d="m40 7.53c3.71 4.08 5.97 9.51 5.97 15.5 0 12.7-10.3 23-23 23-5.95 0-11.4-2.26-15.5-5.97 4.18 4.29 10 6.97 16.5 6.97 12.7 0 23-10.3 23-23 0-6.46-2.68-12.3-6.97-16.5z" style="opacity:.1"/>
 <path d="m16 12h5v19h11v5h-16" style="fill:#474747"/>
</svg>
