<svg version="1.1" viewBox="0 0 48 48" xmlns="http://www.w3.org/2000/svg">
 <defs>
  <linearGradient id="linearGradient3764" x2="0" y1="47" y2="1" gradientUnits="userSpaceOnUse">
   <stop style="stop-color:#e4e4e4" offset="0"/>
   <stop style="stop-color:#eee" offset="1"/>
  </linearGradient>
 </defs>
 <path d="m36.31 5c5.859 4.062 9.688 10.831 9.688 18.5 0 12.426-10.07 22.5-22.5 22.5-7.669 0-14.438-3.828-18.5-9.688 1.037 1.822 2.306 3.499 3.781 4.969 4.085 3.712 9.514 5.969 15.469 5.969 12.703 0 23-10.298 23-23 0-5.954-2.256-11.384-5.969-15.469-1.469-1.475-3.147-2.744-4.969-3.781zm4.969 3.781c3.854 4.113 6.219 9.637 6.219 15.719 0 12.703-10.297 23-23 23-6.081 0-11.606-2.364-15.719-6.219 4.16 4.144 9.883 6.719 16.219 6.719 12.703 0 23-10.298 23-23 0-6.335-2.575-12.06-6.719-16.219z" style="opacity:.05"/>
 <path d="m41.28 8.781c3.712 4.085 5.969 9.514 5.969 15.469 0 12.703-10.297 23-23 23-5.954 0-11.384-2.256-15.469-5.969 4.113 3.854 9.637 6.219 15.719 6.219 12.703 0 23-10.298 23-23 0-6.081-2.364-11.606-6.219-15.719z" style="opacity:.1"/>
 <path d="m31.25 2.375c8.615 3.154 14.75 11.417 14.75 21.13 0 12.426-10.07 22.5-22.5 22.5-9.708 0-17.971-6.135-21.12-14.75a23 23 0 0 0 44.875-7 23 23 0 0 0-16-21.875z" style="opacity:.2"/>
 <path d="m24 1c-0.336 0-0.669 0.011-1 0.025l-21.973 21.975c-0.014 0.332-0.025 0.665-0.025 1 0 0.336 0.011 0.669 0.025 1l21.975 21.973c0.332 0.014 0.665 0.025 1 0.025 12.703 0 23-10.297 23-23 0-0.335-0.011-0.668-0.025-1v-2e-3l-21.973-21.973c-0.333-0.014-0.666-0.025-1-0.025z" style="fill:url(#linearGradient3764)"/>
 <path d="m24 1c-12.703 0-23 10.297-23 23h15.01l-2e-3 2h-14.912c1.014 11.766 10.88 21 22.908 21l-4e-3 -10h9v-5h-9l4e-3 -6h-2.004v-2h2.004v-23zm2 0.092v22.908h21c0-12.03-9.234-21.894-21-22.908z" style="opacity:.1"/>
 <path d="m23 1.025c-11.907 0.51-21.465 10.07-21.975 21.975h21.975v-21.975z" style="fill:#ec8e68"/>
 <path d="m25 1.025v21.975h21.975c-0.51-11.907-10.07-21.465-21.975-21.975z" style="fill:#94db96"/>
 <path d="m1.025 25c0.51 11.907 10.07 21.465 21.975 21.975v-21.975h-21.975z" style="fill:#9ab9dd"/>
 <g transform="translate(1,1)"></g>
 <path d="m17 13v10h5v-10zm0 12v12h6v-5h-1v-7" style="fill-opacity:.098"/>
 <path d="m40.03 7.531c3.712 4.084 5.969 9.514 5.969 15.469 0 12.703-10.297 23-23 23-5.954 0-11.384-2.256-15.469-5.969 4.178 4.291 10.01 6.969 16.469 6.969 12.703 0 23-10.298 23-23 0-6.462-2.677-12.291-6.969-16.469z" style="opacity:.1"/>
 <path d="m16 12h5v19h11v5h-16" style="fill:#3d3d3d"/>
</svg>
