<svg xmlns="http://www.w3.org/2000/svg" viewBox="0 0 48 48">
 <defs>
  <linearGradient id="linearGradient4241" y1="1" x2="0" y2="47" gradientUnits="userSpaceOnUse">
   <stop style="stop-color:#5a5a5a;stop-opacity:1"/>
   <stop offset="1" style="stop-color:#505050;stop-opacity:1"/>
  </linearGradient>
 </defs>
 <g>
  <path d="m 36.31 5 c 5.859 4.062 9.688 10.831 9.688 18.5 c 0 12.426 -10.07 22.5 -22.5 22.5 c -7.669 0 -14.438 -3.828 -18.5 -9.688 c 1.037 1.822 2.306 3.499 3.781 4.969 c 4.085 3.712 9.514 5.969 15.469 5.969 c 12.703 0 23 -10.298 23 -23 c 0 -5.954 -2.256 -11.384 -5.969 -15.469 c -1.469 -1.475 -3.147 -2.744 -4.969 -3.781 z m 4.969 3.781 c 3.854 4.113 6.219 9.637 6.219 15.719 c 0 12.703 -10.297 23 -23 23 c -6.081 0 -11.606 -2.364 -15.719 -6.219 c 4.16 4.144 9.883 6.719 16.219 6.719 c 12.703 0 23 -10.298 23 -23 c 0 -6.335 -2.575 -12.06 -6.719 -16.219 z" style="opacity:0.05"/>
  <path d="m 41.28 8.781 c 3.712 4.085 5.969 9.514 5.969 15.469 c 0 12.703 -10.297 23 -23 23 c -5.954 0 -11.384 -2.256 -15.469 -5.969 c 4.113 3.854 9.637 6.219 15.719 6.219 c 12.703 0 23 -10.298 23 -23 c 0 -6.081 -2.364 -11.606 -6.219 -15.719 z" style="opacity:0.1"/>
  <path d="m 31.25 2.375 c 8.615 3.154 14.75 11.417 14.75 21.13 c 0 12.426 -10.07 22.5 -22.5 22.5 c -9.708 0 -17.971 -6.135 -21.12 -14.75 a 23 23 0 0 0 44.875 -7 a 23 23 0 0 0 -16 -21.875 z" style="opacity:0.2"/>
 </g>
 <g style="fill:#4d4d4d">
  <path d="m 24 1 c 12.703 0 23 10.297 23 23 c 0 12.703 -10.297 23 -23 23 -12.703 0 -23 -10.297 -23 -23 0 -12.703 10.297 -23 23 -23 z" style="fill:url(#linearGradient4241);fill-opacity:1"/>
 </g>
 <g>
  <path d="m 40.03 7.531 c 3.712 4.084 5.969 9.514 5.969 15.469 0 12.703 -10.297 23 -23 23 c -5.954 0 -11.384 -2.256 -15.469 -5.969 4.178 4.291 10.01 6.969 16.469 6.969 c 12.703 0 23 -10.298 23 -23 0 -6.462 -2.677 -12.291 -6.969 -16.469 z" style="opacity:0.1"/>
 </g>
 <path d="m 21.5 14 l -1.188 6 l -2.813 0 l -2.813 11 l -3.188 0 l 0 1 l 4 0 l 3.406 0 l 5.594 0 l 1.344 -3.594 l 0.656 3.594 l 9 0 l 2 0 l 0 -1 l -1.188 0 l -1.813 -8 l -3.813 0 l -1.375 -9 l -7.813 0 z m 0.813 1 l 6.188 0 l 1.219 8 l -3.03 0 l -0.563 1.5 l -0.813 -4.5 l -4 0 l 1 -5 z m -4 6 l 1.781 0 l -2 10 l -2.344 0 l 2.563 -10 z m 2.813 0 l 3.375 0 l 0.969 5.281 l -1.781 4.719 l -4.594 0 l 2.031 -10 z m 6.375 3 l 2.375 0 l 1.063 7 l -3.625 0 l -0.781 -4.375 l 0.969 -2.625 z m 3.344 0 l 2.844 0 l 1.594 7 l -3.375 0 l -1.063 -7 z" style="visibility:visible;fill:#000;opacity:0.1;fill-opacity:1;stroke:none;display:inline;color:#000;fill-rule:evenodd"/>
 <path d="m 33.5 22 1.828 8 -1.044 0 -1.612 -7 -6.172 0 -3 8 -5.586 0 0.196 -1 4.562 0 3 -8 z" style="visibility:visible;fill:#5fd38d;fill-opacity:1;stroke:none;display:inline;color:#000;fill-rule:evenodd"/>
 <path d="m 16.5 19 -2.828 11 1.049 0 2.607 -10 6.172 0 2 11 4.586 0 -0.156 -1 -3.602 0 -2 -11 z" style="visibility:visible;fill:#59f;fill-opacity:1;stroke:none;display:inline;color:#000;fill-rule:evenodd"/>
 <path d="m 20.5 13 -3.414 17 -6.586 0 l 0 1 7.414 0 l 3.414 -17 6.172 0 2.586 17 6.414 0 l 0 -1 -5.586 0 -2.586 -17 z" style="visibility:visible;fill:#f55;fill-opacity:1;stroke:none;display:inline;color:#000;fill-rule:evenodd"/>
</svg>
