<svg version="1.1" viewBox="0 0 48 48" xmlns="http://www.w3.org/2000/svg">
 <defs>
  <linearGradient id="bg" x2="0" y1="1" y2="47" gradientUnits="userSpaceOnUse">
   <stop style="stop-color:#efe6b5" offset="0"/>
   <stop style="stop-color:#ebe1a5" offset="1"/>
  </linearGradient>
 </defs>
 <path d="m36.31 5c5.859 4.062 9.688 10.831 9.688 18.5 0 12.426-10.07 22.5-22.5 22.5-7.669 0-14.438-3.828-18.5-9.688 1.037 1.822 2.306 3.499 3.781 4.969 4.085 3.712 9.514 5.969 15.469 5.969 12.703 0 23-10.298 23-23 0-5.954-2.256-11.384-5.969-15.469-1.469-1.475-3.147-2.744-4.969-3.781zm4.969 3.781c3.854 4.113 6.219 9.637 6.219 15.719 0 12.703-10.297 23-23 23-6.081 0-11.606-2.364-15.719-6.219 4.16 4.144 9.883 6.719 16.219 6.719 12.703 0 23-10.298 23-23 0-6.335-2.575-12.06-6.719-16.219z" style="opacity:.05"/>
 <path d="m41.28 8.781c3.712 4.085 5.969 9.514 5.969 15.469 0 12.703-10.297 23-23 23-5.954 0-11.384-2.256-15.469-5.969 4.113 3.854 9.637 6.219 15.719 6.219 12.703 0 23-10.298 23-23 0-6.081-2.364-11.606-6.219-15.719z" style="opacity:.1"/>
 <path d="m31.25 2.375c8.615 3.154 14.75 11.417 14.75 21.13 0 12.426-10.07 22.5-22.5 22.5-9.708 0-17.971-6.135-21.12-14.75a23 23 0 0 0 44.875-7 23 23 0 0 0-16-21.875z" style="opacity:.2"/>
 <circle cx="24" cy="24" r="23" style="fill:url(#bg)"/>
 <path d="m40.03 7.531c3.712 4.084 5.969 9.514 5.969 15.469 0 12.703-10.297 23-23 23-5.954 0-11.384-2.256-15.469-5.969 4.178 4.291 10.01 6.969 16.469 6.969 12.703 0 23-10.298 23-23 0-6.462-2.677-12.291-6.969-16.469z" style="opacity:.1"/>
 <g transform="translate(0 -.004)">
  <g transform="translate(1,1)"></g>
 </g>
 <path d="m12 12h26v26h-26" style="fill-rule:evenodd;opacity:.1"/>
 <path d="m11 11h26v26h-26" style="fill-rule:evenodd;fill:#f5efef"/>
 <g transform="matrix(-1 0 0 1 48 -.0040002)">
  <g transform="translate(1,1)"></g>
 </g>
 <path d="m12 13v1h24v-1h-24zm0 2v1h24v-1h-24zm0 2v1h24v-1h-24zm0 2v1h24v-1h-24zm0 2v1h24v-1h-24zm0 2v1h24v-1h-24zm0 2v1h24v-1h-24zm0 2v1h24v-1h-24zm0 2v1h24v-1h-24zm0 2v1h24v-1h-24zm0 2v1h24v-1h-24z" style="fill-opacity:.853;fill:#bfbfbf"/>
 <path d="m21 12a9 9 0 0 0-9 9 9 9 0 0 0 9 9 9 9 0 0 0 5.57-1.943l4.68 4.681-0.328 0.332 3.933 3.93h2l0.145-0.145v-2l-3.934-3.934-0.313 0.313-4.676-4.678a9 9 0 0 0 1.923-5.556 9 9 0 0 0-9-9m0 2a7 7 0 0 1 7 7 7 7 0 0 1-7 7 7 7 0 0 1-7-7 7 7 0 0 1 7-7z" style="fill-rule:evenodd;opacity:.1"/>
 <path d="m11.398 19.898c0 4.697 3.805 8.5 8.5 8.5 4.699 0 8.504-3.803 8.5-8.5 4e-3 -4.693-3.801-8.5-8.5-8.5-4.695 0-8.5 3.807-8.5 8.5" style="fill:#a1d4ed"/>
 <path d="m25.378 26.866 1.504-1.504 4.934 4.934-1.504 1.504" style="fill:#d24c37"/>
 <path d="m29.921 32.07 2.145-2.145 4.934 4.934-2.145 2.145" style="fill:#222b30"/>
 <path d="m20.5 11.5a9 9 0 0 0-9 9 9 9 0 0 0 0.088 1.178c0.818 3.84 4.226 6.72 8.31 6.72 4.699 0 8.504-3.803 8.5-8.5 4e-3 -4.079-2.871-7.486-6.709-8.308a9 9 0 0 0-1.189-0.09zm0 2a7 7 0 0 1 7 7 7 7 0 0 1-7 7 7 7 0 0 1-7-7 7 7 0 0 1 7-7z" style="opacity:.1"/>
 <path d="m20 11a9 9 0 0 0-9 9 9 9 0 0 0 9 9 9 9 0 0 0 9-9 9 9 0 0 0-9-9zm0 2a7 7 0 0 1 7 7 7 7 0 0 1-7 7 7 7 0 0 1-7-7 7 7 0 0 1 7-7z" style="fill:#b19b9b"/>
</svg>
