<svg version="1.1" viewBox="0 0 48 48" xmlns="http://www.w3.org/2000/svg">
 <defs>
  <linearGradient id="bg" x1="1" x2="47" gradientTransform="matrix(0 -1 1 0 -1.5e-6 48)" gradientUnits="userSpaceOnUse">
   <stop style="stop-color:#3d3d3d" offset="0"/>
   <stop style="stop-color:#474747" offset="1"/>
  </linearGradient>
 </defs>
 <path d="m36.31 5c5.859 4.062 9.688 10.831 9.688 18.5 0 12.426-10.07 22.5-22.5 22.5-7.669 0-14.438-3.828-18.5-9.688 1.037 1.822 2.306 3.499 3.781 4.969 4.085 3.712 9.514 5.969 15.469 5.969 12.703 0 23-10.298 23-23 0-5.954-2.256-11.384-5.969-15.469-1.469-1.475-3.147-2.744-4.969-3.781zm4.969 3.781c3.854 4.113 6.219 9.637 6.219 15.719 0 12.703-10.297 23-23 23-6.081 0-11.606-2.364-15.719-6.219 4.16 4.144 9.883 6.719 16.219 6.719 12.703 0 23-10.298 23-23 0-6.335-2.575-12.06-6.719-16.219z" style="opacity:.05"/>
 <path d="m41.28 8.781c3.712 4.085 5.969 9.514 5.969 15.469 0 12.703-10.297 23-23 23-5.954 0-11.384-2.256-15.469-5.969 4.113 3.854 9.637 6.219 15.719 6.219 12.703 0 23-10.298 23-23 0-6.081-2.364-11.606-6.219-15.719z" style="opacity:.1"/>
 <path d="m31.25 2.375c8.615 3.154 14.75 11.417 14.75 21.13 0 12.426-10.07 22.5-22.5 22.5-9.708 0-17.971-6.135-21.12-14.75a23 23 0 0 0 44.875-7 23 23 0 0 0-16-21.875z" style="opacity:.2"/>
 <path d="m24 1c12.703 0 23 10.297 23 23s-10.297 23-23 23-23-10.297-23-23 10.297-23 23-23z" style="fill:url(#bg)"/>
 <path d="m22.248 13c-2.0737 0-0.46602 1.9856-2.248 3-1.7799 1.0132-2.8073-1.2521-3.7891 0.43945-0.98177 1.6955 1.7891 1.2845 1.7891 3.2031 0 1.9186-2.6473 1.6693-1.5352 3.2988s2.0344-0.65227 3.8926 0.25c1.854 0.90327 0.28598 2.8047 2.3945 2.8086 2.1118 0.0039 0.46774-1.9866 2.248-3 1.7816-1.0142 2.8073 1.2579 3.7891-0.43359 0.98177-1.6955-1.7891-1.2872-1.7891-3.2031 0-1.9695 2.6473-1.6693 1.5352-3.2988-1.1122-1.6295-2.0386 0.65227-3.8926-0.25-1.6213-0.79324-0.62645-2.4058-1.7637-2.7539h-2e-3c-0.16267-0.05102-0.36373-0.06055-0.62886-0.06055zm0.25195 5.002c0.82947 0 1.502 0.67132 1.502 1.5 0 0.82868-0.67248 1.5-1.502 1.5-0.82947 0-1.502-0.67132-1.502-1.5 0-0.82868 0.67248-1.5 1.502-1.5zm8.748 2.998c-2.0737 0-0.46602 1.9856-2.248 3-1.7799 1.0132-2.8073-1.2521-3.7891 0.43945-0.98177 1.6955 1.7891 1.2845 1.7891 3.2031 0 1.9186-2.6473 1.6693-1.5352 3.2988s2.0325-0.65227 3.8906 0.25c1.854 0.90327 0.28794 2.8047 2.3965 2.8086 2.1118 0.0039 0.46774-1.9866 2.248-3 1.7816-1.0142 2.8073 1.2579 3.7891-0.43359 0.98177-1.6955-1.7891-1.2872-1.7891-3.2031 0-1.9695 2.6473-1.6693 1.5352-3.2988-1.1122-1.6295-2.0386 0.65227-3.8926-0.25-1.6213-0.79324-0.62645-2.4058-1.7637-2.7539h-2e-3c-0.16267-0.05101-0.36373-0.06055-0.62886-0.06055zm-12 3c-2.0737 0-0.46602 1.9856-2.248 3-1.7799 1.0132-2.8073-1.2521-3.7891 0.43945-0.98177 1.6955 1.7891 1.2845 1.7891 3.2031 0 1.9186-2.6473 1.6693-1.5352 3.2988s2.0325-0.65227 3.8906 0.25c1.854 0.90327 0.28794 2.8047 2.3965 2.8086 2.1118 0.0039 0.46774-1.9866 2.248-3 1.7816-1.0142 2.8073 1.2579 3.7891-0.43359 0.98177-1.6955-1.7891-1.2872-1.7891-3.2031 0-1.9695 2.6473-1.6693 1.5352-3.2988-1.1122-1.6295-2.0386 0.65227-3.8926-0.25-1.6213-0.79324-0.62645-2.4058-1.7637-2.7539h-2e-3c-0.16267-0.05101-0.36373-0.06055-0.62886-0.06055zm12.252 2.002c0.82947 0 1.502 0.67132 1.502 1.5 0 0.82868-0.67248 1.5-1.502 1.5-0.82947 0-1.502-0.67132-1.502-1.5 0-0.82868 0.67248-1.5 1.502-1.5zm-12 3c0.82947 0 1.502 0.67132 1.502 1.5 0 0.82868-0.67248 1.5-1.502 1.5-0.82947 0-1.502-0.67132-1.502-1.5 0-0.82868 0.67248-1.5 1.502-1.5z" style="opacity:.1"/>
 <path d="m21.248 12c-2.0737 0-0.4657 1.9856-2.2477 3-1.7799 1.0132-2.8074-1.253-3.7891 0.43853-0.98177 1.6955 1.7891 1.2855 1.7891 3.2041 0 1.9186-2.6471 1.6684-1.5349 3.2979s2.0334-0.6522 3.8916 0.25008c1.854 0.90327 0.28704 2.8055 2.3956 2.8094 2.1118 0.0039 0.46742-1.9866 2.2477-3 1.7816-1.0142 2.8074 1.2588 3.7891-0.43268 0.98177-1.6955-1.7891-1.2881-1.7891-3.2041 0-1.9695 2.6471-1.6684 1.5349-3.2979-1.1122-1.6295-2.0376 0.6522-3.8916-0.25008-1.6213-0.79324-0.62671-2.4066-1.7639-2.7547h-2e-3c-0.16272-0.051015-0.36453-0.060565-0.62965-0.060565zm0.25227 5.0015c0.82947 0 1.5019 0.67178 1.5019 1.5004 0 0.82868-0.67242 1.5005-1.5019 1.5005-0.82947 0-1.5019-0.67178-1.5019-1.5005 0-0.82868 0.67242-1.5004 1.5019-1.5004z" style="fill:#fb5969"/>
 <path d="m40.03 7.531c3.712 4.084 5.969 9.514 5.969 15.469 0 12.703-10.297 23-23 23-5.954 0-11.384-2.256-15.469-5.969 4.178 4.291 10.01 6.969 16.469 6.969 12.703 0 23-10.298 23-23 0-6.462-2.677-12.291-6.969-16.469z" style="opacity:.1"/>
 <path d="m18.247 23c-2.0737 0-0.4657 1.9856-2.2477 3-1.7799 1.0132-2.8074-1.253-3.7891 0.43853-0.98177 1.6955 1.7891 1.2855 1.7891 3.2041 0 1.9186-2.6471 1.6684-1.5349 3.2979s2.0334-0.6522 3.8916 0.25008c1.854 0.90327 0.28704 2.8055 2.3956 2.8094 2.1118 0.0039 0.46742-1.9866 2.2477-3 1.7816-1.0142 2.8074 1.2588 3.7891-0.43268 0.98177-1.6955-1.7891-1.2881-1.7891-3.2041 0-1.9695 2.6471-1.6684 1.5349-3.2979-1.1122-1.6295-2.0376 0.6522-3.8916-0.25008-1.6213-0.79324-0.62671-2.4066-1.7639-2.7547h-2e-3c-0.16272-0.051015-0.36453-0.060565-0.62965-0.060565zm0.25227 5.0015c0.82947 0 1.5019 0.67178 1.5019 1.5004 0 0.82868-0.67242 1.5005-1.5019 1.5005-0.82947 0-1.5019-0.67178-1.5019-1.5005 0-0.82868 0.67242-1.5004 1.5019-1.5004z" style="fill:#2cb0de"/>
 <path d="m30.247 20c-2.0737 0-0.4657 1.9856-2.2477 3-1.7799 1.0132-2.8074-1.253-3.7891 0.43853-0.98177 1.6955 1.7891 1.2855 1.7891 3.2041 0 1.9186-2.6471 1.6684-1.5349 3.2979s2.0334-0.6522 3.8916 0.25008c1.854 0.90327 0.28704 2.8055 2.3956 2.8094 2.1118 0.0039 0.46742-1.9866 2.2477-3 1.7816-1.0142 2.8074 1.2588 3.7891-0.43268 0.98177-1.6955-1.7891-1.2881-1.7891-3.2041 0-1.9695 2.6471-1.6684 1.5349-3.2979-1.1122-1.6295-2.0376 0.6522-3.8916-0.25008-1.6213-0.79324-0.62671-2.4066-1.7639-2.7547h-2e-3c-0.16272-0.051015-0.36453-0.060565-0.62965-0.060565zm0.25227 5.0015c0.82947 0 1.5019 0.67178 1.5019 1.5004 0 0.82868-0.67242 1.5005-1.5019 1.5005-0.82947 0-1.5019-0.67178-1.5019-1.5005 0-0.82868 0.67242-1.5004 1.5019-1.5004z" style="fill:#4dde5b"/>
</svg>
