<svg version="1.1" viewBox="0 0 48 48" xmlns="http://www.w3.org/2000/svg">
 <defs>
  <linearGradient id="bg" x1="1" x2="47" gradientTransform="matrix(0 -1 1 0 -1.5e-6 48)" gradientUnits="userSpaceOnUse">
   <stop style="stop-color:#e4e4e4" offset="0"/>
   <stop style="stop-color:#eee" offset="1"/>
  </linearGradient>
  <radialGradient id="radialGradient4205" cx="23.8" cy="23.8" r="12.5" gradientUnits="userSpaceOnUse">
   <stop offset="0"/>
   <stop style="stop-opacity:0" offset="1"/>
  </radialGradient>
  <linearGradient id="linearGradient4194" x2="0" y1="47" y2="1" gradientUnits="userSpaceOnUse">
   <stop style="stop-color:#ed4964" offset="0"/>
   <stop style="stop-color:#ef5b74" offset="1"/>
  </linearGradient>
 </defs>
 <path d="m36.3 5c5.86 4.06 9.69 10.8 9.69 18.5 0 12.4-10.1 22.5-22.5 22.5-7.67 0-14.4-3.83-18.5-9.69 1.04 1.82 2.31 3.5 3.78 4.97 4.08 3.71 9.51 5.97 15.5 5.97 12.7 0 23-10.3 23-23 0-5.95-2.26-11.4-5.97-15.5-1.47-1.48-3.15-2.74-4.97-3.78zm4.97 3.78c3.85 4.11 6.22 9.64 6.22 15.7 0 12.7-10.3 23-23 23-6.08 0-11.6-2.36-15.7-6.22 4.16 4.14 9.88 6.72 16.2 6.72 12.7 0 23-10.3 23-23 0-6.34-2.58-12.1-6.72-16.2z" style="opacity:.05"/>
 <path d="m41.3 8.78c3.71 4.08 5.97 9.51 5.97 15.5 0 12.7-10.3 23-23 23-5.95 0-11.4-2.26-15.5-5.97 4.11 3.85 9.64 6.22 15.7 6.22 12.7 0 23-10.3 23-23 0-6.08-2.36-11.6-6.22-15.7z" style="opacity:.1"/>
 <path d="m31.2 2.38c8.62 3.15 14.8 11.4 14.8 21.1 0 12.4-10.1 22.5-22.5 22.5-9.71 0-18-6.14-21.1-14.8a23 23 0 0 0 44.9-7 23 23 0 0 0-16-21.9z" style="opacity:.2"/>
 <path d="m28.4 1.43c0 1e-3 2e-3 2e-3 2e-3 4e-3l-10.9 0.512c-4.15 1.22-7.82 3.59-10.6 6.73l-5.4 10.7c-0.3 1.48-0.459 3.02-0.459 4.59 0 2.52 0.412 4.95 1.16 7.23l6.33 9.76c3.05 2.79 6.86 4.76 11.1 5.59-1e-3 -1e-3 -3e-3 -2e-3 -4e-3 -4e-3l11.3-0.604c0 1e-3 -2e-3 1e-3 -2e-3 2e-3 4.05-1.26 7.61-3.61 10.4-6.7-1e-3 -1e-3 -2e-3 -1e-3 -4e-3 -2e-3l5.3-10.5 6e-3 6e-3c0.327-1.54 0.502-3.15 0.502-4.79 0-2.54-0.416-4.97-1.17-7.25-4e-3 3e-3 -6e-3 7e-3 -0.01 0.01l-6.7-10.1h2e-3c3e-3 -1e-3 5e-3 -1e-3 8e-3 -2e-3 -2.99-2.62-6.66-4.47-10.7-5.26z" style="fill:url(#bg)"/>
 <path d="m24 1-5.88 14.2-3.44 3.72c-3.13-2.27-7.12-7.51-7.07-11-0.407 0.414-0.799 0.843-1.17 1.29l-4.82 9.59c0.734 3.04 6.27 6.46 10.1 7.43 0.457 0.114 0.916 0.204 1.38 0.297l1.46 4.43c-3.2 1.43-8.86 2.27-12.1 1.06 1.47 3.98 4.01 7.44 7.28 10 3.49-0.351 7.94-3.02 9.7-4.9 0.322-0.344 0.628-0.703 0.936-1.06 1.46 0.617 3.03 0.939 4.61 0.947l-0.939 10c2.95 0 5.76-0.561 8.36-1.57 1.19-3.42 0.586-6.86-0.127-9.52-0.1-0.374-0.221-0.738-0.334-1.1 1.42-1 2.61-2.3 3.49-3.8 2.25 1.63 4.94 4.78 6.27 7.74 2.4-2.87 4.11-6.32 4.89-10.1-2.28-2.39-6.01-4.38-8.2-4.89-0.477-0.111-0.958-0.201-1.44-0.291-0.205-1.55-0.711-3.05-1.49-4.4 2.76-1.23 7.36-2.02 10.7-1.44-1.1-3.8-3.15-7.2-5.89-9.92l-10.6 6.25-4.51-0.914c0.34-3.56 2.39-9.04 4.99-11.2-1.93-0.527-3.97-0.814-6.07-0.814" style="fill-opacity:.098"/>
 <path d="m24 1c-2.26 0-4.45 0.333-6.52 0.943-2.22 3.45-1.43 8.6-0.701 11.1 0.709 2.49 1.71 4.88 2.74 7.25-1.77-0.426-3.46-1.02-5.02-1.9-2.73-1.58-6.6-6.1-7.64-9.78-2.68 2.99-4.59 6.68-5.41 10.8 1.86 2.52 6.12 4.96 9.27 5.74 2.54 0.634 5.1 0.907 7.65 1.13-1.18 1.22-2.46 2.3-3.92 3.17-2.73 1.58-8.6 2.67-12.3 1.72 1.25 3.81 3.47 7.19 6.37 9.83 3.51-0.278 8.08-3 9.87-4.91 1.79-1.92 3.34-4.06 4.85-6.21 0.456 1.69 0.749 3.38 0.764 5.1 0 3.17-1.89 8.86-4.42 11.6 1.43 0.279 2.91 0.43 4.42 0.43 2.39 0 4.69-0.361 6.85-1.04 1.66-3.96 1.23-7.88 0.379-11-0.691-2.58-1.7-5-2.75-7.37 1.78 0.417 3.48 1.01 5.07 1.91 2.74 1.58 6.62 6.13 7.65 9.81 2.6-2.92 4.46-6.51 5.3-10.5-2.01-2.89-6.62-5.46-9.17-6.06-2.54-0.59-5.14-0.862-7.74-1.09 1.19-1.22 2.47-2.31 3.92-3.16 2.73-1.58 8.61-2.67 12.3-1.72-1.3-3.94-3.64-7.4-6.7-10.1h-2e-3c-3.11 0.37-7.31 2.83-9.55 5.15-1.83 1.9-3.37 4-4.84 6.12-0.431-1.62-0.708-3.26-0.725-4.95-3e-3 -3.17 1.89-8.86 4.42-11.6-1.43-0.279-2.91-0.43-4.42-0.43v-4e-3z" style="fill:url(#linearGradient4194)"/>
 <path d="m40 7.53c3.71 4.08 5.97 9.51 5.97 15.5 0 12.7-10.3 23-23 23-5.95 0-11.4-2.26-15.5-5.97 4.18 4.29 10 6.97 16.5 6.97 12.7 0 23-10.3 23-23 0-6.46-2.68-12.3-6.97-16.5z" style="opacity:.1"/>
 <path d="m14 29.7c1.02 2.39 2.78 4.38 5.03 5.68 3.46-3.98 4.87-8.3 4.99-0.396 0 0.568-0.075 1.23-0.189 1.93 2.62 0.262 5.25-0.343 7.49-1.72-0.024-0.098-0.045-0.202-0.07-0.297-1.33-5.26-5.55-9.83 2.33-5.46 0.594 0.342 1.24 0.833 1.91 1.42 1.01-1.79 1.54-3.81 1.54-5.87-4e-3 -0.803-0.089-1.6-0.254-2.39-4.94-1.09-10.2 0.022-3.23-4.14 0.339-0.196 0.738-0.381 1.16-0.559-1.61-2.19-6.54-4.48-6.54-4.48z" style="fill-opacity:.098"/>
 <path d="m36.3 23.8a12.5 12.5 0 0 1-25 0 12.5 12.5 0 1 1 25 0z" style="fill:url(#radialGradient4205)"/>
 <path d="m36 24a12 12 0 0 1-24 0 12 12 0 1 1 24 0z" style="fill:#eee"/>
 <path d="m31.7 25.5-9.96 6.43c-0.391 0.25-0.712 0.035-0.712-0.591v-12.6l0.712-0.591 9.96 6.43c0.444 0.287 0.425 0.643 0 0.919z" style="opacity:.1"/>
 <path d="m30.7 24.5-9.96 6.43c-0.391 0.25-0.712 0.035-0.712-0.591v-12.6c0-0.716 0.312-0.837 0.712-0.591l9.96 6.43c0.444 0.287 0.425 0.643 0 0.919z" style="fill:#ee526c"/>
</svg>
