<svg version="1.1" viewBox="0 0 48 48" xmlns="http://www.w3.org/2000/svg">
 <defs>
  <linearGradient id="bg" x2="0" y1="1" y2="47" gradientUnits="userSpaceOnUse">
   <stop style="stop-color:#f03a42" offset="0"/>
   <stop style="stop-color:#ef2730" offset="1"/>
  </linearGradient>
 </defs>
 <path d="m36.31 5c5.859 4.062 9.688 10.831 9.688 18.5 0 12.426-10.07 22.5-22.5 22.5-7.669 0-14.438-3.828-18.5-9.688 1.037 1.822 2.306 3.499 3.781 4.969 4.085 3.712 9.514 5.969 15.469 5.969 12.703 0 23-10.298 23-23 0-5.954-2.256-11.384-5.969-15.469-1.469-1.475-3.147-2.744-4.969-3.781zm4.969 3.781c3.854 4.113 6.219 9.637 6.219 15.719 0 12.703-10.297 23-23 23-6.081 0-11.606-2.364-15.719-6.219 4.16 4.144 9.883 6.719 16.219 6.719 12.703 0 23-10.298 23-23 0-6.335-2.575-12.06-6.719-16.219z" style="opacity:.05"/>
 <path d="m41.28 8.781c3.712 4.085 5.969 9.514 5.969 15.469 0 12.703-10.297 23-23 23-5.954 0-11.384-2.256-15.469-5.969 4.113 3.854 9.637 6.219 15.719 6.219 12.703 0 23-10.298 23-23 0-6.081-2.364-11.606-6.219-15.719z" style="opacity:.1"/>
 <path d="m31.25 2.375c8.615 3.154 14.75 11.417 14.75 21.13 0 12.426-10.07 22.5-22.5 22.5-9.708 0-17.971-6.135-21.12-14.75a23 23 0 0 0 44.875-7 23 23 0 0 0-16-21.875z" style="opacity:.2"/>
 <circle cx="24" cy="24" r="23" style="fill:url(#bg)"/>
 <path d="m40.03 7.531c3.712 4.084 5.969 9.514 5.969 15.469 0 12.703-10.297 23-23 23-5.954 0-11.384-2.256-15.469-5.969 4.178 4.291 10.01 6.969 16.469 6.969 12.703 0 23-10.298 23-23 0-6.462-2.677-12.291-6.969-16.469z" style="opacity:.1"/>
 <path d="m25 13c-1.1046 0-2.0002 0.89543-2 2 1.01e-4 0.57936 0.25181 1.1301 0.68945 1.5098-1.6895 3.4902-2.8316 6.4902-5.2891 6.4902-1.4826 0-3.1813-2.1928-3.9629-3.3301 0.35527-0.28445 0.56239-0.71481 0.5625-1.1699 1.99e-4 -0.82843-0.67157-1.5-1.5-1.5s-1.5001 0.67157-1.5 1.5c8.2e-5 0.71909 0.51064 1.3369 1.2168 1.4727l1.7832 8.0273c0.12014 0.54082 0.446 1 1 1h18c0.554 0 0.87986-0.45918 1-1l1.7832-8.0273c0.70616-0.13576 1.2167-0.75357 1.2168-1.4727 9.4e-5 -0.82843-0.67157-1.5-1.5-1.5s-1.5002 0.67157-1.5 1.5c1.09e-4 0.45511 0.20723 0.88548 0.5625 1.1699-0.78157 1.1373-2.4802 3.3301-3.9629 3.3301-2.4575 0-3.5996-3-5.2891-6.4902 0.43764-0.37964 0.68935-0.9304 0.68945-1.5098 1.93e-4 -1.1046-0.89543-2-2-2zm-9 18c-0.554 0-1 0.446-1 1v2c0 0.554 0.446 1 1 1h18c0.554 0 1-0.446 1-1v-2c0-0.554-0.446-1-1-1z" style="opacity:.1;paint-order:normal"/>
 <path d="m24 12c-1.1046 0-2.0002 0.89543-2 2 1.01e-4 0.57936 0.25181 1.1301 0.68945 1.5098-1.6895 3.4902-2.8316 6.4902-5.2891 6.4902-1.4826 0-3.1813-2.1928-3.9629-3.3301 0.35527-0.28445 0.56239-0.71481 0.5625-1.1699 1.99e-4 -0.82843-0.67157-1.5-1.5-1.5s-1.5001 0.67157-1.5 1.5c8.2e-5 0.71909 0.51064 1.3369 1.2168 1.4727l1.7832 8.0273c0.12014 0.54082 0.446 1 1 1h18c0.554 0 0.87986-0.45918 1-1l1.7832-8.0273c0.70616-0.13576 1.2167-0.75357 1.2168-1.4727 9.4e-5 -0.82843-0.67157-1.5-1.5-1.5s-1.5002 0.67157-1.5 1.5c1.09e-4 0.45511 0.20723 0.88548 0.5625 1.1699-0.78157 1.1373-2.4802 3.3301-3.9629 3.3301-2.4575 0-3.5996-3-5.2891-6.4902 0.43764-0.37964 0.68935-0.9304 0.68945-1.5098 1.93e-4 -1.1046-0.89543-2-2-2zm-9 18c-0.554 0-1 0.446-1 1v2c0 0.554 0.446 1 1 1h18c0.554 0 1-0.446 1-1v-2c0-0.554-0.446-1-1-1z" style="fill:#f9f9f9;paint-order:normal"/>
</svg>
