<svg version="1.1" viewBox="0 0 48 48" xmlns="http://www.w3.org/2000/svg">
 <path d="m36.31 5c5.859 4.062 9.688 10.831 9.688 18.5 0 12.426-10.07 22.5-22.5 22.5-7.669 0-14.438-3.828-18.5-9.688 1.037 1.822 2.306 3.499 3.781 4.969 4.085 3.712 9.514 5.969 15.469 5.969 12.703 0 23-10.298 23-23 0-5.954-2.256-11.384-5.969-15.469-1.469-1.475-3.147-2.744-4.969-3.781zm4.969 3.781c3.854 4.113 6.219 9.637 6.219 15.719 0 12.703-10.297 23-23 23-6.081 0-11.606-2.364-15.719-6.219 4.16 4.144 9.883 6.719 16.219 6.719 12.703 0 23-10.298 23-23 0-6.335-2.575-12.06-6.719-16.219z" style="opacity:.05"/>
 <path d="m41.28 8.781c3.712 4.085 5.969 9.514 5.969 15.469 0 12.703-10.297 23-23 23-5.954 0-11.384-2.256-15.469-5.969 4.113 3.854 9.637 6.219 15.719 6.219 12.703 0 23-10.298 23-23 0-6.081-2.364-11.606-6.219-15.719z" style="opacity:.1"/>
 <path d="m31.25 2.375c8.615 3.154 14.75 11.417 14.75 21.13 0 12.426-10.07 22.5-22.5 22.5-9.708 0-17.971-6.135-21.12-14.75a23 23 0 0 0 44.875-7 23 23 0 0 0-16-21.875z" style="opacity:.2"/>
 <path d="m5.03 37c4.144 6.04 11.09 10 18.969 10 7.882 0 14.824-3.957 18.969-10l-18.969-2z" style="fill:#b869c8"/>
 <path d="m1.563 29c0.646 2.906 1.839 5.623 3.469 8h37.938c1.63-2.377 2.823-5.094 3.469-8l-22.438-2-22.438 2h-5e-4z" style="fill:#e5dd45"/>
 <path d="m1.344 20c-0.229 1.302-0.344 2.633-0.344 4 0 1.721 0.204 3.387 0.563 5h44.875c0.358-1.613 0.563-3.279 0.563-5 0-1.367-0.115-2.698-0.344-4l-22.655-2-22.655 2h-0.0015z" style="fill:#de70ce"/>
 <path d="m4.375 12c-1.471 2.404-2.525 5.121-3.03 8h45.31c-0.506-2.879-1.561-5.596-3.03-8l-19.625-2z" style="fill:#53b9ec"/>
 <path d="m24 1c-8.311 0-15.584 4.394-19.625 11h39.25c-4.04-6.606-11.314-11-19.625-11z" style="fill:#6ece78"/>
 <path d="m40.03 7.531c3.712 4.084 5.969 9.514 5.969 15.469 0 12.703-10.297 23-23 23-5.954 0-11.384-2.256-15.469-5.969 4.178 4.291 10.01 6.969 16.469 6.969 12.703 0 23-10.298 23-23 0-6.462-2.677-12.291-6.969-16.469z" style="opacity:.1"/>
</svg>
