<svg version="1.1" viewBox="0 0 48 48" xmlns="http://www.w3.org/2000/svg">
 <defs>
  <linearGradient id="linearGradient3764" x1="1" x2="47" gradientTransform="matrix(0 -1 1 0 -1.5e-6 48)" gradientUnits="userSpaceOnUse">
   <stop style="stop-color:#b3201d" offset="0"/>
   <stop style="stop-color:#c62320" offset="1"/>
  </linearGradient>
 </defs>
 <path d="m36.31 5c5.859 4.062 9.688 10.831 9.688 18.5 0 12.426-10.07 22.5-22.5 22.5-7.669 0-14.438-3.828-18.5-9.688 1.037 1.822 2.306 3.499 3.781 4.969 4.085 3.712 9.514 5.969 15.469 5.969 12.703 0 23-10.298 23-23 0-5.954-2.256-11.384-5.969-15.469-1.469-1.475-3.147-2.744-4.969-3.781zm4.969 3.781c3.854 4.113 6.219 9.637 6.219 15.719 0 12.703-10.297 23-23 23-6.081 0-11.606-2.364-15.719-6.219 4.16 4.144 9.883 6.719 16.219 6.719 12.703 0 23-10.298 23-23 0-6.335-2.575-12.06-6.719-16.219z" style="opacity:.05"/>
 <path d="m41.28 8.781c3.712 4.085 5.969 9.514 5.969 15.469 0 12.703-10.297 23-23 23-5.954 0-11.384-2.256-15.469-5.969 4.113 3.854 9.637 6.219 15.719 6.219 12.703 0 23-10.298 23-23 0-6.081-2.364-11.606-6.219-15.719z" style="opacity:.1"/>
 <path d="m31.25 2.375c8.615 3.154 14.75 11.417 14.75 21.13 0 12.426-10.07 22.5-22.5 22.5-9.708 0-17.971-6.135-21.12-14.75a23 23 0 0 0 44.875-7 23 23 0 0 0-16-21.875z" style="opacity:.2"/>
 <path d="m24 1c12.703 0 23 10.297 23 23s-10.297 23-23 23-23-10.297-23-23 10.297-23 23-23z" style="fill:url(#linearGradient3764)"/>
 <g transform="translate(1,1)">
  <g style="opacity:.1"></g>
 </g>
 <path d="m16 13v1h-3v1h6v-1h-2v-1zm4 0v1h1.9238l-0.21875 1h-1.7051v1h1.4883l-0.43359 2h-1.0547v1h7v-1h-1v-3h-3.2715l0.2168-1h4.0547v-1zm-6 3v1h4v-1zm8.5117 0h2.4883v2h-2.9238zm-8.5117 2v1h4v-1zm15 1-2 1.5 2 1.5v-1h2c0.554 0 1 0.446 1 1v1h1v-1c0-1.108-0.892-2-2-2h-2zm-15 1v5h1v-1h2v1h1v-5zm6 0v5h1v-1h4v1h1v-5zm-5 1h2v2h-2zm6 0h4v2h-4zm10 3-5 13h2.5l1.5-4h4l1.5 4h2.5l-5-13zm-9.5312 2c-2.2213 1.916-2.2221 1.9153 2.0938 6.127l-0.55469 0.48828 2.9922 1.373-1.3223-2.8223-0.55859 0.47656c-3.4572-3.3624-3.4577-3.3623-1.791-4.8008zm10.531 1 1.5 4h-3z" style="opacity:.1"/>
 <path d="m15 12v1h-3v1h6v-1h-2v-1h-1zm4 0v1h1.9238l-0.21875 1h-1.7051v1h1.4883l-0.43359 2h-1.0547v1h7v-1h-1v-3h-1-2.2715l0.2168-1h4.0547v-1h-7zm-6 3v1h4v-1h-4zm8.5117 0h2.4883v2h-2.9238l0.43555-2zm-8.5117 2v1h4v-1h-4zm15 1-2 1.5 2 1.5v-1h2c0.554 0 1 0.446 1 1v1h1v-1c0-1.108-0.892-2-2-2h-2v-1zm-15 1v5h1v-1h2v1h1v-5h-4zm6 0v5h1v-1h4v1h1v-5h-6zm-5 1h2v2h-2v-2zm6 0h4v2h-4v-2zm10 3-5 13h2.5l1.5-4h4l1.5 4h2.5l-5-13h-2zm-9.5312 2c-2.2213 1.916-2.2221 1.9153 2.0938 6.127l-0.55469 0.48828 2.9922 1.373-1.3223-2.8223-0.55859 0.47656c-3.4572-3.3624-3.4577-3.3623-1.791-4.8008l-0.85938-0.8418zm10.531 1 1.5 4h-3l1.5-4z" style="fill:#fff"/>
 <path d="m40.03 7.531c3.712 4.084 5.969 9.514 5.969 15.469 0 12.703-10.297 23-23 23-5.954 0-11.384-2.256-15.469-5.969 4.178 4.291 10.01 6.969 16.469 6.969 12.703 0 23-10.298 23-23 0-6.462-2.677-12.291-6.969-16.469z" style="opacity:.1"/>
</svg>
