<svg xmlns="http://www.w3.org/2000/svg" viewBox="0 0 48 48">
 <defs>
  <linearGradient id="linearGradient3764" x1="1" x2="47" gradientUnits="userSpaceOnUse" gradientTransform="matrix(0,-1,1,0,-1.5e-6,47.999998)">
   <stop style="stop-color:#951613;stop-opacity:1"/>
   <stop offset="1" style="stop-color:#a71816;stop-opacity:1"/>
  </linearGradient>
 </defs>
 <g>
  <path d="m 36.31 5 c 5.859 4.062 9.688 10.831 9.688 18.5 c 0 12.426 -10.07 22.5 -22.5 22.5 c -7.669 0 -14.438 -3.828 -18.5 -9.688 c 1.037 1.822 2.306 3.499 3.781 4.969 c 4.085 3.712 9.514 5.969 15.469 5.969 c 12.703 0 23 -10.298 23 -23 c 0 -5.954 -2.256 -11.384 -5.969 -15.469 c -1.469 -1.475 -3.147 -2.744 -4.969 -3.781 z m 4.969 3.781 c 3.854 4.113 6.219 9.637 6.219 15.719 c 0 12.703 -10.297 23 -23 23 c -6.081 0 -11.606 -2.364 -15.719 -6.219 c 4.16 4.144 9.883 6.719 16.219 6.719 c 12.703 0 23 -10.298 23 -23 c 0 -6.335 -2.575 -12.06 -6.719 -16.219 z" style="opacity:0.05"/>
  <path d="m 41.28 8.781 c 3.712 4.085 5.969 9.514 5.969 15.469 c 0 12.703 -10.297 23 -23 23 c -5.954 0 -11.384 -2.256 -15.469 -5.969 c 4.113 3.854 9.637 6.219 15.719 6.219 c 12.703 0 23 -10.298 23 -23 c 0 -6.081 -2.364 -11.606 -6.219 -15.719 z" style="opacity:0.1"/>
  <path d="m 31.25 2.375 c 8.615 3.154 14.75 11.417 14.75 21.13 c 0 12.426 -10.07 22.5 -22.5 22.5 c -9.708 0 -17.971 -6.135 -21.12 -14.75 a 23 23 0 0 0 44.875 -7 a 23 23 0 0 0 -16 -21.875 z" style="opacity:0.2"/>
 </g>
 <g>
  <path d="m 24 1 c 12.703 0 23 10.297 23 23 c 0 12.703 -10.297 23 -23 23 -12.703 0 -23 -10.297 -23 -23 0 -12.703 10.297 -23 23 -23 z" style="fill:url(#linearGradient3764);fill-opacity:1"/>
 </g>
 <g>
  <g>
   <g transform="translate(1,1)">
    <g style="opacity:0.1">
     <!-- color: #a71816 -->
     <g>
      <path d="m 34.508 35.887 l -1.359 -3.613 l -4.305 0 l -1.359 3.613 l -2.324 0 l 4.758 -12.871 l 2.16 0 l 4.758 12.871 l -2.328 0 m -3.48 -9.297 l -1.422 3.609 l 2.762 0 l -1.34 -3.609" style="fill:#000;fill-opacity:1;stroke:none;fill-rule:nonzero"/>
      <path d="m 12.848 12.398 l 2.145 0 c -0.156 -0.465 -0.328 -0.891 -0.52 -1.277 l 1.156 -0.402 c 0.27 0.543 0.484 1.102 0.637 1.68 l 2.145 0 l 0 1.102 l -5.559 0 l 0 -1.102 m 0.578 2.262 l 4.461 0 l 0 1.039 l -4.461 0 l 0 -1.039 m 0 2.199 l 4.461 0 l 0 1.043 l -4.461 0 l 0 -1.043 m 4.516 2.199 l 0 4.984 l -1.102 0 l 0 -0.758 l -2.199 0 l 0 0.758 l -1.16 0 l 0 -4.984 l 4.461 0 m -3.301 3.129 l 2.199 0 l 0 -2.086 l -2.199 0 l 0 2.086 m 4.344 -10.949 l 6.719 0 l 0 1.043 l -3.418 0 l -0.293 1.504 l 3.188 0 l 0 3.07 l 1.039 0 l 0 1.043 l -7.527 0 l 0 -1.043 l 1.504 0 l 0.406 -2.027 l -1.332 0 l 0 -1.043 l 1.566 0 l 0.289 -1.504 l -2.148 0 l 0 -1.043 m 2.375 5.621 l 2.723 0 l 0 -2.027 l -2.313 0 l -0.402 2.027 m 4.227 2.145 l 0 5.04 l -1.156 0 l 0 -0.816 l -3.941 0 l 0 0.816 l -1.16 0 l 0 -5.04 l 6.258 0 m -5.098 3.184 l 3.941 0 l 0 -2.145 l -3.941 0 l 0 2.145" style="fill:#000;fill-opacity:1;stroke:none;fill-rule:nonzero"/>
      <path d="m 25.11 34.13 l -1.305 -3.234 l -0.551 0.547 c -3.41 -3.852 -3.41 -3.852 -1.766 -5.5 l -0.848 -0.965 c -2.191 2.195 -2.191 2.195 2.066 7.02 l -0.547 0.559 m 2.949 1.586" style="fill:#000;fill-opacity:1;stroke:none;fill-rule:nonzero"/>
      <path d="m 25.527 19.301 l 1.949 1.273 l -0.016 -0.879 c 3.078 -0.082 3.078 -0.082 3.133 2.57 l 0.77 -0.02 c -0.074 -3.539 -0.074 -3.539 -3.922 -3.434 l -0.016 -0.883 m -1.898 1.371" style="fill:#000;fill-opacity:1;stroke:none;fill-rule:nonzero"/>
     </g>
    </g>
   </g>
  </g>
 </g>
 <g>
  <g>
   <!-- color: #a71816 -->
   <g>
    <path d="m 34.508 35.887 l -1.359 -3.613 l -4.305 0 l -1.359 3.613 l -2.324 0 l 4.758 -12.871 l 2.16 0 l 4.758 12.871 l -2.328 0 m -3.48 -9.297 l -1.422 3.609 l 2.762 0 l -1.34 -3.609" style="fill:#fff;fill-opacity:1;stroke:none;fill-rule:nonzero"/>
    <path d="m 12.848 12.398 l 2.145 0 c -0.156 -0.465 -0.328 -0.891 -0.52 -1.277 l 1.156 -0.402 c 0.27 0.543 0.484 1.102 0.637 1.68 l 2.145 0 l 0 1.102 l -5.559 0 l 0 -1.102 m 0.578 2.262 l 4.461 0 l 0 1.039 l -4.461 0 l 0 -1.039 m 0 2.199 l 4.461 0 l 0 1.043 l -4.461 0 l 0 -1.043 m 4.516 2.199 l 0 4.984 l -1.102 0 l 0 -0.758 l -2.199 0 l 0 0.758 l -1.16 0 l 0 -4.984 l 4.461 0 m -3.301 3.129 l 2.199 0 l 0 -2.086 l -2.199 0 l 0 2.086 m 4.344 -10.949 l 6.719 0 l 0 1.043 l -3.418 0 l -0.293 1.504 l 3.188 0 l 0 3.07 l 1.039 0 l 0 1.043 l -7.527 0 l 0 -1.043 l 1.504 0 l 0.406 -2.027 l -1.332 0 l 0 -1.043 l 1.566 0 l 0.289 -1.504 l -2.148 0 l 0 -1.043 m 2.375 5.621 l 2.723 0 l 0 -2.027 l -2.313 0 l -0.402 2.027 m 4.227 2.145 l 0 5.04 l -1.156 0 l 0 -0.816 l -3.941 0 l 0 0.816 l -1.16 0 l 0 -5.04 l 6.258 0 m -5.098 3.184 l 3.941 0 l 0 -2.145 l -3.941 0 l 0 2.145" style="fill:#fff;fill-opacity:1;stroke:none;fill-rule:nonzero"/>
    <path d="m 25.11 34.13 l -1.305 -3.234 l -0.551 0.547 c -3.41 -3.852 -3.41 -3.852 -1.766 -5.5 l -0.848 -0.965 c -2.191 2.195 -2.191 2.195 2.066 7.02 l -0.547 0.559 m 2.949 1.586" style="fill:#fff;fill-opacity:1;stroke:none;fill-rule:nonzero"/>
    <path d="m 25.527 19.301 l 1.949 1.273 l -0.016 -0.879 c 3.078 -0.082 3.078 -0.082 3.133 2.57 l 0.77 -0.02 c -0.074 -3.539 -0.074 -3.539 -3.922 -3.434 l -0.016 -0.883 m -1.898 1.371" style="fill:#fff;fill-opacity:1;stroke:none;fill-rule:nonzero"/>
   </g>
  </g>
 </g>
 <g>
  <path d="m 40.03 7.531 c 3.712 4.084 5.969 9.514 5.969 15.469 0 12.703 -10.297 23 -23 23 c -5.954 0 -11.384 -2.256 -15.469 -5.969 4.178 4.291 10.01 6.969 16.469 6.969 c 12.703 0 23 -10.298 23 -23 0 -6.462 -2.677 -12.291 -6.969 -16.469 z" style="opacity:0.1"/>
 </g>
</svg>
