<svg version="1.1" viewBox="0 0 48 48" xmlns="http://www.w3.org/2000/svg">
 <defs>
  <linearGradient id="bg" x2="0" y1="1" y2="47" gradientUnits="userSpaceOnUse">
   <stop stop-color="#edb715" offset="0"/>
   <stop stop-color="#da1" offset="1"/>
  </linearGradient>
 </defs>
 <path d="m36.3 5c5.86 4.06 9.69 10.8 9.69 18.5 0 12.4-10.1 22.5-22.5 22.5-7.67 0-14.4-3.83-18.5-9.69 1.04 1.82 2.31 3.5 3.78 4.97 4.08 3.71 9.51 5.97 15.5 5.97 12.7 0 23-10.3 23-23 0-5.95-2.26-11.4-5.97-15.5-1.47-1.48-3.15-2.74-4.97-3.78zm4.97 3.78c3.85 4.11 6.22 9.64 6.22 15.7 0 12.7-10.3 23-23 23-6.08 0-11.6-2.36-15.7-6.22 4.16 4.14 9.88 6.72 16.2 6.72 12.7 0 23-10.3 23-23 0-6.34-2.58-12.1-6.72-16.2z" opacity=".05"/>
 <path d="m41.3 8.78c3.71 4.08 5.97 9.51 5.97 15.5 0 12.7-10.3 23-23 23-5.95 0-11.4-2.26-15.5-5.97 4.11 3.85 9.64 6.22 15.7 6.22 12.7 0 23-10.3 23-23 0-6.08-2.36-11.6-6.22-15.7z" opacity=".1"/>
 <path d="m31.2 2.38c8.62 3.15 14.8 11.4 14.8 21.1 0 12.4-10.1 22.5-22.5 22.5-9.71 0-18-6.14-21.1-14.8a23 23 0 0 0 44.9-7 23 23 0 0 0-16-21.9z" opacity=".2"/>
 <circle cx="24" cy="24" r="23" fill="url(#bg)"/>
 <path d="m40 7.53c3.71 4.08 5.97 9.51 5.97 15.5 0 12.7-10.3 23-23 23-5.95 0-11.4-2.26-15.5-5.97 4.18 4.29 10 6.97 16.5 6.97 12.7 0 23-10.3 23-23 0-6.46-2.68-12.3-6.97-16.5z" opacity=".1"/>
 <path d="m10 26c0 1.1 0.895 2 2 2h1.39l1.28 3.08-0.986 3.82 1.41 1.41c0.781 0.782 2.05 0.782 2.83 0l0.986-0.986c0.963 0.567 2 0.997 3.08 1.28v1.39c0 1.1 0.895 2 2 2h2c1.1 0 2-0.895 2-2v-1.39c1.08-0.28 2.12-0.711 3.09-1.28l0.98 0.98c0.781 0.782 2.05 0.782 2.83 0l1.41-1.41c0.782-0.781 0.782-2.05 0-2.83l-0.977-0.977c0.565-0.967 0.993-2.01 1.27-3.09h1.39c1.1 0 2-0.895 2-2v-2c0-1.1-0.895-2-2-2h-1.39c-0.281-1.08-0.712-2.12-1.28-3.08l0.986-0.986c0.782-0.781 0.782-2.05 0-2.83l-1.41-1.41-3.82 0.986-3.08-1.28v-1.39c0-1.1-0.895-2-2-2l-9 7zm15-10c4.97 0 9 4.03 9 9s-4.03 9-9 9-9-4.03-9-9 4.03-9 9-9zm0 4c-1.33 0-1.33 2 0 2s1.33-2 0-2zm-2 3h3v6h1v1h-4v-1h1v-5h-1z" style="opacity:.1"/>
 <path d="m23 9a2 2 0 0 0-2 2v1.39a12 12 0 0 0-3.09 1.28l-0.98-0.98a2 2 0 0 0-2.83 0l-1.41 1.41a2 2 0 0 0 0 2.83l0.977 0.977a12 12 0 0 0-1.27 3.09h-1.39a2 2 0 0 0-2 2v2a2 2 0 0 0 2 2h1.39a12 12 0 0 0 1.28 3.08l-0.986 0.986a2 2 0 0 0 0 2.83l1.41 1.41a2 2 0 0 0 2.83 0l0.986-0.986a12 12 0 0 0 3.08 1.28v1.39a2 2 0 0 0 2 2h2a2 2 0 0 0 2-2v-1.39a12 12 0 0 0 3.09-1.28l0.98 0.98a2 2 0 0 0 2.83 0l1.41-1.41a2 2 0 0 0 0-2.83l-0.977-0.977a12 12 0 0 0 1.27-3.09h1.39a2 2 0 0 0 2-2v-2a2 2 0 0 0-2-2h-1.39a12 12 0 0 0-1.28-3.08l0.986-0.986a2 2 0 0 0 0-2.83l-1.41-1.41a2 2 0 0 0-2.83 0l-0.986 0.986a12 12 0 0 0-3.08-1.28v-1.39a2 2 0 0 0-2-2h-2zm1 6a9 9 0 0 1 0 18 9 9 0 0 1 0-18zm0 4a1 1 0 0 0-1 1 1 1 0 0 0 1 1 1 1 0 0 0 1-1 1 1 0 0 0-1-1zm-2 3v1h1v5h-1v1h4v-1h-1v-6h-3z" style="fill:#424242"/>
</svg>
