<svg version="1.1" viewBox="0 0 48 48" xmlns="http://www.w3.org/2000/svg">
 <defs>
  <linearGradient id="bg" x1="1" x2="47" gradientTransform="matrix(0 -1 1 0 -1.5e-6 48)" gradientUnits="userSpaceOnUse">
   <stop style="stop-color:#151581" offset="0"/>
   <stop style="stop-color:#181892" offset="1"/>
  </linearGradient>
 </defs>
 <path d="m36.31 5c5.859 4.062 9.688 10.831 9.688 18.5 0 12.426-10.07 22.5-22.5 22.5-7.669 0-14.438-3.828-18.5-9.688 1.037 1.822 2.306 3.499 3.781 4.969 4.085 3.712 9.514 5.969 15.469 5.969 12.703 0 23-10.298 23-23 0-5.954-2.256-11.384-5.969-15.469-1.469-1.475-3.147-2.744-4.969-3.781zm4.969 3.781c3.854 4.113 6.219 9.637 6.219 15.719 0 12.703-10.297 23-23 23-6.081 0-11.606-2.364-15.719-6.219 4.16 4.144 9.883 6.719 16.219 6.719 12.703 0 23-10.298 23-23 0-6.335-2.575-12.06-6.719-16.219z" style="opacity:.05"/>
 <path d="m41.28 8.781c3.712 4.085 5.969 9.514 5.969 15.469 0 12.703-10.297 23-23 23-5.954 0-11.384-2.256-15.469-5.969 4.113 3.854 9.637 6.219 15.719 6.219 12.703 0 23-10.298 23-23 0-6.081-2.364-11.606-6.219-15.719z" style="opacity:.1"/>
 <path d="m31.25 2.375c8.615 3.154 14.75 11.417 14.75 21.13 0 12.426-10.07 22.5-22.5 22.5-9.708 0-17.971-6.135-21.12-14.75a23 23 0 0 0 44.875-7 23 23 0 0 0-16-21.875z" style="opacity:.2"/>
 <path d="m24 1c-2.27 0-4.462 0.334-6.533 0.947 1.534 1.053-1.25 2.02-3.205 1.215-7.833 3.667-13.262 11.617-13.262 20.838 0 7.505 3.595 14.169 9.156 18.367 5.844 2.633 21.844 2.633 29.684-1.699 2.366-2.249 4.253-4.995 5.494-8.07v-2e-3c0.234-1.595 0.667-3.594 1.23-4.15h2e-3c0.282-1.438 0.434-2.923 0.434-4.443 0-0.118-6e-3 -0.234-8e-3 -0.352h-2e-3c-0.992-0.649-0.556-1.182-0.154-2.348-0.185-1.577-0.527-3.105-1.014-4.568-1.826-0.738-7.823-7.734-11.1-13.08-3.203-1.692-6.85-2.654-10.725-2.654z" style="fill:url(#bg)"/>
 <path d="m17.1 2.9062-0.84375 0.25-0.97656 0.066406-0.59375 0.43359-0.78125-0.03125 0.06641 0.5 1.1211-0.03125 0.41016 1.0938 0.14844 0.59766-0.62109 0.34766-0.25391 0.46484 0.18945 1.0625 0.75391 0.125 0.71875-0.6875 0.625-0.65625 0.96484-0.25 1.2285-0.59375 0.71875-0.875 1.0312-1.2539 0.71875-0.18945-0.03125-0.27539h-1.1211l-3.4688-0.095703zm9.957 0.48047c-0.055 0.02-1.5273 0.021484-1.5273 0.021484l-0.37891 0.099609 0.5 0.59766 0.53125-0.5 0.34375 0.21875 0.5-0.25s0.09025-0.2115 0.03125-0.1875zm6 0.46094-0.375 0.00391-0.46875 0.0625-0.40625 0.25-0.46875 0.34961-0.27734 0.5 0.43359 0.4375 0.375 0.03125 0.15625-0.25391-0.375-0.31445 0.21875-0.1875 0.03125-0.15234 0.46875-0.3125s0.60925 8e-3 0.65625 0c0.051-0.012 0.18945-0.19141 0.18945-0.19141zm3.0645 0.60547-0.2207 0.14648-4.5977 1.4199-2.5293 0.4668 0.06445-0.25391 0.38281-0.4043-0.875-0.31445-0.87891-0.15625-0.94141 0.19141-0.96875 0.7793-0.43555 0.43945-0.6543 0.71875-0.25 0.03125-0.0957 0.34375 0.125 0.34375s0.13325 0.15625 0.15625 0.15625c0.02 0 0.25-0.125 0.25-0.125s0.02725-0.11725 0.15625-0.15625c0.133-0.039 0.25-0.0625 0.25-0.0625l0.1875 0.375 0.36328-0.048828-1.9082 1.0859 0.10156 0.55664-0.15625 0.18945-0.25 0.25391-0.34375 0.08984s-0.25145 0.06975-0.31445 0.09375c-0.066 0.023-0.25391 0.06641-0.25391 0.06641l-0.18945 0.02344c0.15676-0.16054 0.3123-0.32201 0.47656-0.47656l0.09961-0.01562 0.5-0.21875-0.27734-0.375-0.09766-0.65625-0.34375-0.375-0.16016-0.40625-0.25 0.21875c-0.066 0.305-0.14844 0.62109-0.14844 0.62109l0.46875 0.22266 0.0625 0.27734-0.25 0.25391-0.21875 0.375 0.13281 0.13672c-5.5633 2.3079-9.2862 7.6432-9.2891 13.715-8.3e-5 0.15962 0.01857 0.31424 0.02344 0.47266l-0.78516-0.45703-0.26953-0.65625s-0.48041-0.8125-0.56641-0.8125-0.65039 0.03516-0.65039 0.03516l-0.53125-0.53125-0.34375-0.65625-1.3457-0.28125-2.4805 5.1602 0.5 1.4062 1.3125 1.3125 0.064453 0.75 0.09375 3.3867 0.46875 1.8984s0.28466 1.1035 0.22266 1.1895c-0.066 0.09 0.375 0.91016 0.375 0.91016l0.875 1.375 1.2207 0.52539-0.5-0.59766-0.25-0.68945 0.25-0.71875-0.65625-0.34375s0.434-0.285 0.5-0.375-0.08984-0.46875-0.08984-0.46875l-0.19141-0.4668 0.49609-0.6543 0.78125-0.18945 0.125-0.59766-0.46875-0.21875 0.1875-0.5 0.75-0.09375 0.65625-1.5977 0.46875-1.0938 0.97852-0.47266 0.0039-0.01172c2.3 5.3315 7.6007 9.0659 13.775 9.0625 3.7191 0 7.2465-1.5 10-4-1.6216 0.58664-3.2756 0.99907-5 1-8.2843 0.0071-15.004-6.7157-15-15 0.0019-3.8133 1.5188-7.3707 4.1133-10.115l-0.03516 0.04883 0.28125 0.18945 0.18945 0.31055s0.11734 0.22266 0.15234 0.22266c0.031 0 0.09375 0.21875 0.09375 0.21875l-0.18945 0.25h-0.09375l-0.65625 0.125-0.125-0.28125-0.43359 0.4375-0.19141 0.72266v0.59766l0.75391 0.40625 0.59375-0.22266 0.59961-1.0625 0.5293-0.65234 0.9668-0.15625 0.21875-0.1875 1.0977 1.2812 0.12109 0.4375 0.31445-0.15625-0.08984-0.375h0.1875l-0.125-0.25391-1.0625-1 0.09375-0.1875 0.34375-0.03125 0.75 0.75 0.375 0.44141v0.6875l0.19141 0.125 0.375 0.375 0.27539-0.09375-0.15039-0.56641 0.09375-0.34375 0.1875-0.21875 0.43945 0.15625 0.15625 0.0625-0.03125-0.5 0.25-0.46875 0.15625-0.68945 0.5625 0.0957 0.09375 0.3125 0.21875 0.15625 0.25391-0.21875-0.15625-0.3457h0.65625l-0.22266 0.375 0.4375 0.375 0.375 0.18945 0.21875 0.4375-0.5 0.12109-0.71875-0.15625h-0.62109l-0.59766 0.31641-0.125 0.1875-0.43359 0.09375 0.1875 0.46875 0.34375 0.40625 0.625-0.21875 0.15625 0.27734 0.27734-0.21875 0.375 0.0625 0.03516 0.41016-0.125 0.77734-0.34375-0.03125-0.41016-0.0625-0.1875 0.46484-1.375-0.25-0.25-0.31641-0.31641 0.28125-0.34375 0.46875-0.875-0.5-0.875-0.52734v-0.94141l-0.56445 0.03125-0.0293 0.3125-1.375-0.0625-3.3809 7.4375 0.75391 0.90625 0.43359 0.375 0.44141 0.09375 0.08984-0.375h1.5625l0.41016-0.1875 0.5 0.0625 0.15234 0.3125 0.52734 0.03125 0.34766 0.25 1.1016 8.5039 0.56641 0.75 0.0625 0.59375 0.09375 0.6875 0.3457-0.34375 0.875-0.08984h0.5293l0.9707-1.5 0.0625-0.59375 0.65625-0.65625 0.03125-0.75 0.34375-0.75391 0.81445-0.77734v-0.875l-0.19141-0.8125-0.12109-1.125 0.59375-0.93945 1.0645-1.3125 0.41016-0.40625 0.14844-0.53125 0.25391-0.46875 0.06445-0.69141h-0.59375l-0.28125 0.28125-0.56445-0.15625-0.34375-0.5625-0.28125-0.56445-0.65234-0.5-0.15234-0.8125-0.28125-0.47461-0.3125-0.59375-0.40625-0.71875-0.09375-0.46875 0.4375-0.06445 0.25 0.53125 0.5 0.9375 0.375 0.68945 0.41016 0.75 0.43359 0.72266 0.60156 0.59961 0.53516-0.5 0.59375-0.15625 0.43555-0.53125 0.59961-0.34375 0.34375-0.59375 0.03125-0.5-0.28125-0.31641-0.375-0.4375-0.25 0.1543-0.15625 0.25391-0.40625-0.1875-0.125-0.31445-0.28125-0.41016-0.43359-0.4043v-0.81445l0.27734 0.53125 0.34375 0.53516 0.59766 0.34375 0.40625-0.09375 0.25 0.28125 1.7852-0.03516-0.03516 0.03516 0.56641 0.5 0.40625 0.5625 0.125 0.27734h0.27344l0.09766-0.31055 0.09375 0.4668 0.15625 0.84375 0.33984 0.8125 0.1875 0.68945 0.27734 0.6543 0.21875 0.27734 0.31445-0.1875 0.09375-0.31445 0.125-0.77539-0.03516-0.6875 0.25391-0.31641s0.26645-0.359 0.31445-0.375c0.043-0.012 0.62109-0.65039 0.62109-0.65039l0.28125-0.34961 0.3125-0.1875 0.375-0.21875h0.15625l0.0625 0.34375 0.15625 0.40625 0.5 0.65039v0.25l0.09375 0.28125 0.34375-0.15625-0.0332-0.375 0.3125 0.06641 0.06641 0.34375-0.03516 0.53125 0.09375 0.375 0.28125 0.06445 0.08984-0.31445 0.34375 0.21875 0.06641 0.31641 0.30859 0.46875 0.31641 0.34375 0.21875 0.19141 0.53516-0.46875 0.21875-0.44141-0.09375-0.5-0.08984-0.65625-0.60352-0.5625-0.08984-0.56641 0.25-0.39648s0.16041-0.32025 0.31641-0.15625c0.148 0.168 0.22334 0.188 0.15234 0.375-0.063 0.184-0.18946 0.59766-0.18945 0.59766l0.375 0.15625 0.15625-0.53125-0.15625-0.37891 0.20312-0.08398c-1.524-5.721-5.1956-10.563-10.1-13.611zm-24.854 0.39258c-0.154 0.103-0.30503 0.21041-0.45703 0.31641l-0.0293 0.072266 0.15625 0.34375 0.5625-0.064453 0.25 0.46875-0.5 0.53125-0.5625 0.0625 0.5 0.22461 0.53125 0.46484 0.52344 0.125 0.19141-0.71875 0.03516-0.43945 0.62109 0.09375s-0.19075 0.31445-0.09375 0.31445c0.098 0 0.46875-0.40625 0.46875-0.40625l-1.0664-1.0977s-0.4335-0.344-0.5625-0.25c-0.129 0.09-0.46875 0.0625-0.46875 0.0625zm-0.65039 0.82422-0.43359 0.5-0.32031-0.30664c-0.43 0.335-0.84991 0.68188-1.2539 1.0469 0.371 0.093 0.86222 0.29342 0.94922 0.23242 0.129-0.094 0.625-0.875 0.625-0.875zm9.0996 0.72656-0.12109 0.40625c0.449 0.348 0.62109 0.34375 0.62109 0.34375l0.52539-0.125 0.34961-0.34375-0.22461-0.28125zm7.2207 0.052734 0.25391 0.18945v0.125l-0.22266 0.25-0.06641 0.25v0.34375l-0.59765 0.33984c-0.017831-0.026162-0.18555-0.21484-0.18555-0.21484l-0.1543-0.0625 0.0625-0.31641s0.125-0.05075 0.125-0.09375c0-0.039 0.19141-0.18945 0.19141-0.18945l0.21875-0.27539 0.15625-0.18945zm-16.088 0.7207s-0.43161 0.25025-0.84961 0.40625c-0.414 0.156-0.30859 0.46875-0.30859 0.46875l-0.035156 0.84375-0.6875 0.5625-0.43555 0.65625s-0.2793-0.1875-0.2793-0.3125c0-0.125-0.064453-0.46875-0.064453-0.46875l-0.71875-0.5625s-0.22044-0.17012-0.39844-0.32812c-2.12 2.305-3.7695 5.0503-4.8125 8.0703l0.65234-0.45508 0.56641-0.19141h0.80859l1.125-0.25 0.40625 0.53125-0.0625 0.625 0.46875 0.40625 0.0625-0.44141s-0.02275-0.71925-0.09375-0.90625c-0.063-0.188 0.56641-0.625 0.56641-0.625l0.49609-0.61328 0.59766-0.72656 0.28125-0.5625 0.9375-0.49609 0.625-0.69141s0.93409-0.14791 1.1211-0.25391c0.191-0.09 0.066-0.434-0.125-0.75-0.191-0.313 0.09375-0.625 0.09375-0.625l0.71875-0.43359 0.625 0.12109 0.06641 0.75391s0.59025 0.56284 0.78125 0.46484c0.188-0.09 0.26953-0.40625 0.26953-0.40625l-0.3125-0.8125 0.19141-0.8125-0.84375 0.12109v-1.375l-0.25391 0.25391-0.65625 0.03125-0.08984-0.6875zm10.869 2.1934-0.28125 0.46875 0.375 0.15625 0.15625-0.28125zm-15.445 1.0918 0.00586 0.0078 0.65625 0.27539 0.43359 0.56641 0.28125 0.43359s-0.2495 0.844-0.3125 1-0.25-0.3125-0.25-0.3125l-0.15625-0.81445-0.53125 0.22656-0.41016 0.96484 0.09375-0.8125 0.125-0.5625-0.6543-0.25 0.5625-0.53125zm26.383 0.75781c0.137-0.043 0.375 0.15234 0.375 0.15234l-0.25 0.22266 0.08984 0.3125 0.28125 0.75 0.28125 0.46875 0.375 0.59375-0.40625 0.19141-0.53125-0.34375-0.22266-0.65625s-0.30255-0.40575-0.43555-0.46875c-0.137-0.066-0.25586-0.28125-0.25586-0.28125l0.125-0.53125s0.43145-0.35925 0.56445-0.40625zm-7.9062 1.1875-0.375 0.71875 0.28125 0.28125 0.25-0.22266 0.03125-0.31055zm0.9043 1.2188-0.1875 0.06445 0.30859 0.53125 0.28125-0.22266zm-23.451 3.0645c-0.299 0.89-0.54928 1.8033-0.73828 2.7383l0.52344 0.28516 0.5-0.06445 0.71875 0.34375 1.0938 0.59766 0.15625 0.72461 0.875 0.83984 0.5-0.375-0.43359-0.2168-0.25391-0.90625-0.089844-0.41016-0.6875-0.62109v-0.4375l0.53125-0.56641-0.34766-0.40039-0.56445 0.08984-0.84766 0.84375-0.68945-0.08984s-0.31291-0.53125-0.37891-0.65625c-0.063-0.125 0.19141-0.5625 0.19141-0.5625zm3.3223 1.1211v0.0039l-0.30859 0.15625 0.5293 0.27734 0.5957 0.12109 0.34375 0.46875 0.40625-0.25-0.064453-0.27734-0.6875-0.5zm38.131 3.5859c0.113 0.129 0.81325 2.2188 0.90625 2.2188 0.09 0 0.625 0.06641 0.625 0.06641l-0.28125-0.8457zm-3.5938 0.06445-0.31641 0.40625 0.15625 0.59961 0.34375-0.375-0.0625-0.47461zm3.4902 1.1562-0.4375 0.06641 1.9961 3 0.53125 0.59375 1.2461 0.06055c0.012-0.116 0.01734-0.23261 0.02734-0.34961l-0.02539-0.01758-1.25-0.3457-0.31445-1.1543-0.6875-0.56445-1.0938-1.2812zm3.4238 0.21289-0.29687 0.16211c0 0.094-0.72656 0.69141-0.72656 0.69141l0.19141 0.625 0.41016 0.46484 0.27344 0.6875 0.13477-0.08789c0.027-0.453 0.04297-0.90624 0.04297-1.3652 0-0.39435-0.01036-0.78837-0.0293-1.1777zm-13.926 4.6621v0.43945c-0.02 0.066-0.40625 0.375-0.40625 0.375l-0.46875 0.21875-0.3457 0.28125 0.25586 0.34375 0.1543 0.15625-0.41016 0.34375v0.5625l0.15625 0.5957 0.34375 0.09375 0.41016-0.625 0.25-0.40625-0.0625-0.5 0.375-0.59375 0.125-0.28125v-0.5625l-0.0957-0.43945zm-20.477 9.4746-0.21484 0.15039-0.09375 0.03125 0.5 0.25zm-0.84766 0.18359 2e-3 0.0039 2e-3 -0.0039zm2e-3 0.0039-0.2168 0.49609 0.4375-0.09375zm1.502 4.1211-0.46875 0.71875-0.875 0.40625 0.5 0.625 1.998 0.37305s-0.65234-1.32-0.65234-1.5c0-0.176-0.5-0.62109-0.5-0.62109z" style="opacity:.1"/>
 <path d="m17.475 1.9434c-1.152 0.34-2.2669 0.76739-3.3359 1.2754l0.36328 0.96875 0.15039 0.59766-0.62109 0.3457-0.25391 0.46484 0.18945 1.0625 0.75391 0.125 0.71875-0.6875 0.625-0.65625 0.96484-0.25 1.2266-0.59375 0.71875-0.875 1.0312-1.2539 0.71875-0.18945-0.03125-0.27344h-1.1211l-2.0977-0.060547zm8.582 0.44336c-0.055 0.02-1.5273 0.021484-1.5273 0.021484l-0.37891 0.099609 0.5 0.59766 0.53125-0.5 0.34375 0.21875 0.5-0.25s0.09025-0.2105 0.03125-0.1875zm6 0.46094-0.375 0.0039063-0.46875 0.0625-0.40625 0.25-0.46875 0.34961-0.27734 0.5 0.43359 0.4375 0.375 0.03125 0.15625-0.25391-0.375-0.31445 0.21875-0.1875 0.03125-0.15234 0.46875-0.3125s0.60925 0.0079999 0.65625 0c0.051-0.012 0.18945-0.19141 0.18945-0.19141l-0.15625-0.22266h-0.001953zm2.7246 0.82422-0.007812 0.0058594-0.49805 0.29883-0.53125 0.4375 0.064453 0.18945-0.27734 0.03125v0.0039063l-0.041016 0.0058593c0.01852-0.009826 0.038124-0.017512 0.056641-0.027344l-0.027344-0.15625-0.31641-0.4375-0.65234-0.0625s0.15234 0.664 0.15234 0.75c0 0.082-0.4375 0.023438-0.4375 0.023438l-0.75 0.035156s-1.0858 0.25-1.2188 0.25-0.7615 0.26225-0.8125 0.28125l-0.023437 0.0039063v0.0019531l-0.001954 0.0019532-1.2148 0.65234-0.3125-0.22461-0.15625-0.25 0.064453-0.25391 0.6875 0.035156 0.31641-0.125-0.62109-0.31445-0.875-0.3125-0.87891-0.15625-0.94141 0.19141-0.96875 0.77734-0.4375 0.43945-0.65234 0.71875-0.25 0.03125-0.097656 0.34375 0.125 0.34375s0.13325 0.15625 0.15625 0.15625c0.02 0 0.25-0.125 0.25-0.125s0.02725-0.11725 0.15625-0.15625c0.133-0.039 0.25-0.0625 0.25-0.0625l0.1875 0.375 0.22656 0.3125 0.089844 0.25s0.36291-0.223 0.37891-0.25c8e-3 -0.031 0.03125-0.4082 0.03125-0.4082l0.26953-0.18945s0.074406-0.13325 0.066406-0.15625c-0.012-0.02-0.1875-0.21875-0.1875-0.21875l-0.15625-0.0625 0.0625-0.31641s0.125-0.05075 0.125-0.09375c0-0.039 0.19141-0.18945 0.19141-0.18945l0.21875-0.27344 0.15625-0.18945 0.21875-0.15625 0.25391 0.18945v0.125l-0.22266 0.25-0.066406 0.25v0.34375l0.19141 0.15625 0.34375-0.03125 0.31445-0.0625 0.2793 0.15234-0.064453 0.22266s-0.195 0.18775-0.25 0.21875c-0.059 0.031-0.41-0.06325-0.5-0.03125-0.09 0.031-0.31445 0.31641-0.31445 0.31641 0 0-0.023 0.2485 0 0.3125 0.012 0.023-0.003699 0.070906-0.011719 0.12891l-0.025391 0.017578-0.37891 0.2793h-0.023437l-0.25-0.09375s-0.15956 0.0084102-0.22656 0.066406c-0.063 0.051-0.1195 0.10209-0.3125 0.12109-0.191 0.02-0.56266 0-0.59766 0h-0.21875l0.03125-0.22852 0.15625-0.25-0.27734-0.22266s-0.18441 0.23025-0.19141 0.28125c-4e-3 0.055 0.125 0.2793 0.125 0.2793s-0.058844 0.1817-0.089844 0.2207c-0.035 0.039-0.3125 0.125-0.3125 0.125l-0.43945-0.2207s-0.18025-0.037547-0.15625 0.064453c0.027 0.102 0.22461 0.19525 0.22461 0.28125 0 0.082-0.125 0.27344-0.125 0.27344l-0.15625 0.18945-0.25 0.25391-0.34375 0.089844s-0.25145 0.06975-0.31445 0.09375c-0.066 0.023-0.25391 0.066406-0.25391 0.066406l-0.25 0.03125-0.15625 0.22266 0.28125 0.19141 0.18945 0.30859s0.1193 0.22266 0.1543 0.22266c0.031 0 0.091797 0.2207 0.091797 0.2207l-0.18945 0.25h-0.09375l-0.65625 0.125-0.125-0.28125-0.43359 0.4375-0.19141 0.7207v0.59766l0.75391 0.40625 0.59375-0.2207 0.60156-1.0645 0.52734-0.65234 0.96875-0.15625 0.21875-0.1875 1.0977 1.2812 0.12109 0.4375 0.3125-0.15625-0.089843-0.375h0.1875l-0.125-0.25391-1.0625-1 0.09375-0.1875 0.34375-0.03125 0.75 0.75 0.375 0.44141v0.6875l0.19141 0.125 0.375 0.375 0.27734-0.09375-0.15234-0.56641 0.09375-0.34375 0.1875-0.21875 0.43945 0.15625 0.15625 0.0625-0.03125-0.5 0.25-0.46875 0.15625-0.68945 0.5625 0.097656 0.09375 0.3125 0.2207 0.15625 0.25391-0.21875-0.15625-0.34766h0.65625l-0.22461 0.375 0.43945 0.375 0.375 0.18945 0.21875 0.4375-0.5 0.12109-0.71875-0.1543h-0.62109l-0.59766 0.31445-0.125 0.18945-0.43555 0.09375 0.18945 0.46875 0.34375 0.40625 0.625-0.21875 0.15625 0.27539 0.27539-0.21875 0.375 0.064453 0.035156 0.4082-0.125 0.77734-0.34375-0.03125-0.41016-0.0625-0.1875 0.46484-1.375-0.25-0.25-0.31641-0.31641 0.28125-0.34375 0.46875-0.875-0.5-0.875-0.52539v-0.94141l-0.56445 0.03125-0.027344 0.3125-1.375-0.0625-0.43945 0.40039-0.84375 0.03125-0.56641 0.5-0.34375 0.96875-0.875 0.69141-0.625 0.84375-0.03125 1.625-0.1875 0.5-0.064453 0.59961 0.375 0.65039 0.21875 0.625 0.75586 0.90625 0.43359 0.375 0.44141 0.09375 0.089843-0.375h1.5625l0.41016-0.1875 0.5 0.0625 0.15234 0.31445 0.52539 0.03125 0.34961 0.25v0.5293l-0.12109 0.43945-0.125 0.34375 0.3125 0.56641 0.40625 0.46875 0.18945 1.1875 0.027344 0.77734-0.27344 0.65625-0.03125 0.625 0.21875 1.1562 0.19141 0.1875 0.26953 1.0938 0.035156 0.4707 0.56641 0.75 0.0625 0.59375 0.095703 0.6875 0.3457-0.34375 0.875-0.089844h0.5293l0.9707-1.5 0.0625-0.59375 0.65625-0.65625 0.03125-0.75 0.34375-0.75391 0.8125-0.77734v-0.875l-0.19141-0.8125-0.12109-1.125 0.59375-0.93945 1.0645-1.3125 0.41016-0.40625 0.15039-0.53125 0.25391-0.46875 0.064454-0.69141h-0.59375l-0.28125 0.28125-0.56445-0.15625-0.34375-0.5625-0.28125-0.5625-0.6543-0.5-0.15234-0.8125-0.28125-0.47656-0.3125-0.59375-0.40625-0.71875-0.09375-0.46875 0.4375-0.0625 0.25 0.53125 0.5 0.9375 0.375 0.6875 0.41016 0.75 0.43555 0.72266 0.60156 0.60156 0.53516-0.5 0.59375-0.15625 0.43359-0.53125 0.59961-0.34375 0.34375-0.59375 0.03125-0.5-0.28125-0.31641-0.375-0.4375-0.25 0.15234-0.15625 0.25391-0.4043-0.1875-0.125-0.3125-0.28125-0.41016-0.43359-0.40625v-0.8125l0.27539 0.53125 0.34375 0.53516 0.59961 0.34375 0.40625-0.09375 0.25 0.28125 1.7832-0.035157-0.033203 0.035157 0.56445 0.5 0.40625 0.5625 0.125 0.27734h0.27539l0.095703-0.3125 0.09375 0.4668 0.15625 0.8457 0.33984 0.8125 0.18945 0.6875 0.27734 0.65625 0.21875 0.27734 0.31445-0.1875 0.09375-0.31445 0.125-0.77539-0.035156-0.68945 0.25391-0.31641s0.2645-0.359 0.3125-0.375c0.043-0.012 0.62109-0.64844 0.62109-0.64844l0.28125-0.35156 0.3125-0.1875 0.375-0.21875h0.15625l0.0625 0.34375 0.15625 0.40625 0.5 0.65234v0.25l0.09375 0.28125 0.3457-0.15625-0.033203-0.375 0.3125 0.066406 0.066406 0.34375-0.035156 0.53125 0.09375 0.375 0.28125 0.0625 0.089843-0.3125 0.34375 0.21875 0.066407 0.31641 0.30859 0.46875 0.31641 0.34375 0.21875 0.19141 0.53516-0.46875 0.21875-0.44141-0.09375-0.5-0.089844-0.65625-0.60352-0.5625-0.091797-0.56641 0.25-0.39844s0.16041-0.32025 0.31641-0.15625c0.148 0.168 0.22334 0.188 0.15234 0.375-0.063 0.184-0.1875 0.59766-0.1875 0.59766l0.375 0.15625 0.15625-0.53125-0.15625-0.37891 0.375-0.15625 0.44141-0.2207c-1.871-5.656-5.8755-10.34-11.061-13.1zm-23.01 0.85156-0.30469 0.70898 0.62109 0.09375s-0.19075 0.31445-0.09375 0.31445c0.098 0 0.46875-0.40625 0.46875-0.40625l-0.69141-0.71094zm17.686 0.78906c0.003361 0.0010406 0.006409 9.21e-4 0.009766 0.0019531l-0.019531 0.0039063 0.009765-0.0058594zm-10.746 0.085938-0.12109 0.40625c0.449 0.348 0.62109 0.34375 0.62109 0.34375l0.52344-0.125 0.35156-0.34375-0.22656-0.28125h-1.1484zm-7.2793 0.27344-1.4004 0.060547 0.1543 0.068359 0.53125 0.46484 0.52344 0.125 0.19141-0.71875zm-1.5879 0.5s-0.43356 0.2483-0.85156 0.4043c-2e-3 2e-3 -0.0038594 0.0019062-0.0058594 0.0039062-0.091 0.079-0.18148 0.15633-0.27148 0.23633-0.053 0.12-0.029297 0.23047-0.029297 0.23047l-0.035156 0.84375-0.6875 0.5625-0.43555 0.65625s-0.28125-0.1875-0.28125-0.3125-0.0625-0.4707-0.0625-0.4707l-0.0078126-0.0058594c-0.43 0.462-0.84142 0.94345-1.2324 1.4395l0.41602 0.54492 0.28125 0.43359s-0.2485 0.844-0.3125 1c-0.063 0.156-0.25-0.3125-0.25-0.3125l-0.15625-0.81445-0.53125 0.22461-0.41016 0.96484 0.09375-0.81055 0.021484-0.085937c-0.858 1.237-1.6001 2.56-2.2051 3.957h0.39258l1.125-0.25 0.40625 0.53125-0.0625 0.625 0.46875 0.40625 0.0625-0.44141s-0.02275-0.71925-0.09375-0.90625c-0.063-0.188 0.56641-0.625 0.56641-0.625l0.49609-0.61328 0.59766-0.72656 0.28125-0.5625 0.9375-0.49609 0.625-0.69141s0.93409-0.14791 1.1211-0.25391c0.191-0.09 0.066-0.434-0.125-0.75-0.191-0.313 0.09375-0.625 0.09375-0.625l0.71875-0.43359 0.625 0.12109 0.066406 0.75391s0.59025 0.56284 0.78125 0.46484c0.188-0.09 0.26953-0.40625 0.26953-0.40625l-0.3125-0.8125 0.19141-0.8125-0.84375 0.12109v-1.375l-0.25391 0.25391-0.65625 0.03125-0.089844-0.6875-0.43555-0.5293zm11.643 1.0098-0.25 0.21875c-0.066 0.305-0.15039 0.62109-0.15039 0.62109l0.46875 0.22266 0.0625 0.27734-0.25 0.25391-0.21875 0.375 0.15234 0.15625 0.5625-0.09375 0.5-0.2207-0.27539-0.375-0.09961-0.6543-0.34375-0.375-0.1582-0.40625zm-0.77539 1.1836-0.28125 0.46875 0.375 0.15625 0.15625-0.28125-0.25-0.34375zm10.938 1.8477c0.137-0.043 0.375 0.1543 0.375 0.1543l-0.25 0.2207 0.089843 0.3125 0.28125 0.75 0.28125 0.46875 0.375 0.5957-0.40625 0.18945-0.53125-0.34375-0.22266-0.65625s-0.30255-0.40575-0.43555-0.46875c-0.137-0.066-0.25391-0.28125-0.25391-0.28125l0.125-0.53125s0.43145-0.3573 0.56445-0.4043l0.007813-0.003906v-0.001953zm-7.9062 1.1875-0.375 0.71875 0.28125 0.28125 0.25-0.22266 0.03125-0.30859-0.1875-0.46875zm-1.252 0.75195v0.1875l0.15625-0.03125-0.15625-0.15625zm2.1562 0.4668-0.1875 0.064453 0.30859 0.53125 0.28125-0.2207-0.40234-0.375zm-20.129 4.1875v0.003906l-0.31055 0.15625 0.53125 0.27734 0.59375 0.12109 0.3457 0.4707 0.4043-0.25-0.0625-0.2793-0.68945-0.5h-0.8125zm-0.97461 0.41016-0.56445 0.089844-0.84766 0.84375-0.36328-0.046875c-0.053 0.201-0.10144 0.40442-0.14844 0.60742l0.58008 0.27539 1.0938 0.59961 0.15625 0.72461 0.875 0.83984 0.5-0.375 0.49219 0.28516-0.017578 0.18359-0.18945 1-0.5625 0.75 0.029297 1.125 0.4668 1.1562 0.5 1.4062 1.3125 1.3125 0.064453 0.75 0.09375 3.3867 0.46875 1.8984s0.28466 1.1035 0.22266 1.1895c-0.066 0.09 0.375 0.91016 0.375 0.91016l0.875 1.375 1.2207 0.52539-0.5-0.59766-0.25-0.68945 0.25-0.71875-0.65625-0.34375s0.434-0.285 0.5-0.375c0.066-0.090001-0.089844-0.46875-0.089844-0.46875l-0.19141-0.4668 0.49609-0.6543 0.78125-0.18945 0.125-0.59766-0.46875-0.21875 0.1875-0.5 0.75-0.09375 0.65625-1.5977 0.46875-1.0938 0.97852-0.47266s0.30859-0.9265 0.30859-1.0625c0-0.129 0.09375-1.5312 0.09375-1.5312l-1.041-2.5586-1.3438-0.78125-0.26953-0.65625s-0.48041-0.8125-0.56641-0.8125-0.65234 0.035156-0.65234 0.035156l-0.5293-0.53125-0.3457-0.65625-1.3438-0.28125-0.4375-0.21875h-0.875v0.003907l-0.0078125 0.003906-0.81445 0.44141-0.99805 0.21094-0.25391-0.90625-0.089844-0.41016-0.6875-0.62109v-0.4375l0.53125-0.56641-0.34766-0.39844zm39.105 3.1758c0.113 0.129 0.81325 2.2188 0.90625 2.2188 0.09 0 0.625 0.066406 0.625 0.066406l-0.28125-0.8457-1.25-1.4395zm-3.5938 0.064453-0.31641 0.40625 0.15625 0.59961 0.34375-0.375-0.0625-0.47461-0.12109-0.15625zm7.7852 0.88867-1.168 0.64258c0 0.094-0.72656 0.69141-0.72656 0.69141l0.19141 0.625 0.41016 0.46484 0.27344 0.6875 1.1699-0.75976c-0.01-0.79534-0.06153-1.5782-0.15039-2.3516zm-4.3027 0.27539-0.42969 0.058594 1.9961 3 0.53125 0.59375 1.3125 0.064453 0.81445 0.25391-0.87891-0.625-1.25-0.3457-0.31445-1.1543-0.6875-0.56445-1.0938-1.2812zm-10.494 4.8672v0.43945c-0.02 0.066-0.40625 0.375-0.40625 0.375l-0.46875 0.21875-0.3457 0.28125 0.25391 0.34375 0.15625 0.15625-0.41016 0.34375v0.56445l0.15625 0.59375 0.34375 0.09375 0.41016-0.625 0.25-0.40625-0.0625-0.5 0.375-0.59375 0.125-0.28125v-0.5625l-0.095703-0.43945-0.28125-0.001953zm14.52 1.9863c-0.05 0.017-0.11514 0.035782-0.11914 0.050782-0.02 0.086-0.5625 0.375-0.5625 0.375-0.113 0-0.4668 0.65625-0.4668 0.65625l-0.064453 2.0625-0.12109 0.75 0.12891 0.16797c0.52-1.3 0.92808-2.6575 1.2051-4.0625zm-34.994 7.4863-0.21484 0.15234-0.09375 0.03125 0.5 0.25-0.19141-0.43359zm-0.84766 0.18359 0.001953 0.003907 0.001953-0.003907h-0.003906zm0.001953 0.003907-0.2168 0.49609 0.4375-0.09375-0.2207-0.40234zm1.502 4.123-0.46875 0.7168-0.875 0.40625 0.5 0.625-0.75 0.375-0.47461-0.023437c3.851 2.907 8.6448 4.6328 13.842 4.6328 6.137 0 11.708-2.4082 15.832-6.3242l-2.5488 0.095703-3.0625 0.62109s-1.4772 0.79291-1.6562 0.75391c-0.18-0.043 0.625-1.0312 0.625-1.0312l-1.4395 0.089843-0.9043-0.75-0.91016 0.62109s-1.2153 0.095703-1.5273 0.095703c-0.316 0-0.72266 0.5625-0.72266 0.5625l-2.4688-0.089843-4.25 0.18945-1.1211 0.96484-0.28125 0.035157-3.2148-0.22461-2.2188 0.22461-0.78125-0.38086 0.03125-0.0625s-0.65234-1.32-0.65234-1.5c0-0.176-0.5-0.62109-0.5-0.62109l-0.001953-0.001954z" style="fill:#8b83d7"/>
 <path d="m23 10c-0.46604 0.16687-0.91588 0.36108-1.3574 0.56836 0.02745 0.04195 0.04676 0.08789 0.06055 0.08789 0.031 0 0.0918 0.2207 0.0918 0.2207l-0.18945 0.25h-0.09375l-0.65625 0.125-0.10352-0.23438c-0.0565 0.03114-0.11 0.06585-0.16602 0.09766l-0.28906 0.29297-0.19141 0.7207v0.59766l0.38281 0.20703c0.70903-1.0635 1.5399-2.0555 2.5117-2.9336zm-3.9297 5.6094-0.04883 0.03906-0.625 0.84375-0.02539 1.2871c0.17152-0.74429 0.41443-1.4655 0.69922-2.1699zm-0.81641 2.8047-0.07617 0.20313-0.06445 0.59961 0.0059 0.0098c0.03413-0.27369 0.08523-0.54269 0.13476-0.8125z" style="opacity:.1"/>
 <g transform="translate(1,1)"></g>
 <path d="m40.03 7.531c3.712 4.084 5.969 9.514 5.969 15.469 0 12.703-10.297 23-23 23-5.954 0-11.384-2.256-15.469-5.969 4.178 4.291 10.01 6.969 16.469 6.969 12.703 0 23-10.298 23-23 0-6.462-2.677-12.291-6.969-16.469z" style="opacity:.1"/>
 <path d="m22 9c-5.9582 2.1334-9.997 7.6714-10 14-0.0043 8.2843 6.7157 15.005 15 15 3.7191 0 7.2465-1.5 10-4-1.6216 0.58664-3.2756 0.99907-5 1-8.2843 0.0071-15.004-6.7157-15-15 0.0021-4.2336 1.8589-8.1616 5-11z" style="fill:#f9f9f9;paint-order:normal"/>
</svg>
