<svg version="1.1" viewBox="0 0 48 48" xmlns="http://www.w3.org/2000/svg">
 <defs>
  <linearGradient id="bg" x1="1" x2="47" gradientTransform="matrix(0 -1 1 0 -1.5e-6 48)" gradientUnits="userSpaceOnUse">
   <stop style="stop-color:#43437f" offset="0"/>
   <stop style="stop-color:#4a4a8c" offset="1"/>
  </linearGradient>
 </defs>
 <path d="m36.3 5c5.86 4.06 9.69 10.8 9.69 18.5 0 12.4-10.1 22.5-22.5 22.5-7.67 0-14.4-3.83-18.5-9.69 1.04 1.82 2.31 3.5 3.78 4.97 4.08 3.71 9.51 5.97 15.5 5.97 12.7 0 23-10.3 23-23 0-5.95-2.26-11.4-5.97-15.5-1.47-1.48-3.15-2.74-4.97-3.78zm4.97 3.78c3.85 4.11 6.22 9.64 6.22 15.7 0 12.7-10.3 23-23 23-6.08 0-11.6-2.36-15.7-6.22 4.16 4.14 9.88 6.72 16.2 6.72 12.7 0 23-10.3 23-23 0-6.34-2.58-12.1-6.72-16.2z" style="opacity:.05"/>
 <path d="m41.3 8.78c3.71 4.08 5.97 9.51 5.97 15.5 0 12.7-10.3 23-23 23-5.95 0-11.4-2.26-15.5-5.97 4.11 3.85 9.64 6.22 15.7 6.22 12.7 0 23-10.3 23-23 0-6.08-2.36-11.6-6.22-15.7z" style="opacity:.1"/>
 <path d="m31.2 2.38c8.62 3.15 14.8 11.4 14.8 21.1 0 12.4-10.1 22.5-22.5 22.5-9.71 0-18-6.14-21.1-14.8a23 23 0 0 0 44.9-7 23 23 0 0 0-16-21.9z" style="opacity:.2"/>
 <path d="m24 1c-2.27 0-4.46 0.334-6.53 0.947 1.53 1.05-1.25 2.02-3.2 1.22-7.83 3.67-13.3 11.6-13.3 20.8 0 7.5 3.6 14.2 9.16 18.4 5.84 2.63 21.8 2.63 29.7-1.7 2.37-2.25 4.25-5 5.49-8.07v-2e-3c0.234-1.6 0.667-3.59 1.23-4.15h2e-3c0.282-1.44 0.434-2.92 0.434-4.44 0-0.118-6e-3 -0.234-8e-3 -0.352h-2e-3c-0.992-0.649-0.556-1.18-0.154-2.35-0.185-1.58-0.527-3.1-1.01-4.57-1.83-0.738-7.82-7.73-11.1-13.1-3.2-1.69-6.85-2.65-10.7-2.65z" style="fill:url(#bg)"/>
 <path d="m17.1 2.91-0.844 0.25-0.977 0.0664-0.594 0.434-0.781-0.0312 0.0664 0.5 1.12-0.0312 0.41 1.09 0.148 0.598-0.621 0.348-0.254 0.465 0.189 1.06 0.754 0.125 0.719-0.688 0.625-0.656 0.965-0.25 1.23-0.594 0.719-0.875 1.03-1.25 0.719-0.189-0.0312-0.275h-1.12l-3.47-0.0957zm9.96 0.48c-0.055 0.02-1.53 0.0215-1.53 0.0215l-0.379 0.0996 0.5 0.598 0.531-0.5 0.344 0.219 0.5-0.25s0.0902-0.212 0.0312-0.188zm6 0.461-0.375 0.00391-0.469 0.0625-0.406 0.25-0.469 0.35-0.277 0.5 0.434 0.438 0.375 0.0312 0.156-0.254-0.375-0.314 0.219-0.188 0.0312-0.152 0.469-0.312s0.609 8e-3 0.656 0c0.051-0.012 0.189-0.191 0.189-0.191zm3.06 0.605-0.221 0.146-4.6 1.42-2.53 0.467 0.0644-0.254 0.383-0.404-0.875-0.314-0.879-0.156-0.941 0.191-0.969 0.779-0.436 0.439-0.654 0.719-0.25 0.0312-0.0957 0.344 0.125 0.344s0.133 0.156 0.156 0.156c0.02 0 0.25-0.125 0.25-0.125s0.0272-0.117 0.156-0.156c0.133-0.039 0.25-0.0625 0.25-0.0625l0.188 0.375 0.363-0.0488-1.91 1.09 0.102 0.557-0.156 0.189-0.25 0.254-0.344 0.0898s-0.251 0.0698-0.314 0.0938c-0.066 0.023-0.254 0.0664-0.254 0.0664l-0.189 0.0234c0.157-0.161 0.312-0.322 0.477-0.477l0.0996-0.0156 0.5-0.219-0.277-0.375-0.0977-0.656-0.344-0.375-0.16-0.406-0.25 0.219c-0.066 0.305-0.148 0.621-0.148 0.621l0.469 0.223 0.0625 0.277-0.25 0.254-0.219 0.375 0.133 0.137c-5.56 2.31-9.29 7.64-9.29 13.7-8.3e-5 0.16 0.0186 0.314 0.0234 0.473l-0.785-0.457-0.27-0.656s-0.48-0.812-0.566-0.812-0.65 0.0352-0.65 0.0352l-0.531-0.531-0.344-0.656-1.35-0.281-2.48 5.16 0.5 1.41 1.31 1.31 0.0645 0.75 0.0938 3.39 0.469 1.9s0.285 1.1 0.223 1.19c-0.066 0.09 0.375 0.91 0.375 0.91l0.875 1.38 1.22 0.525-0.5-0.598-0.25-0.689 0.25-0.719-0.656-0.344s0.434-0.285 0.5-0.375-0.0898-0.469-0.0898-0.469l-0.191-0.467 0.496-0.654 0.781-0.189 0.125-0.598-0.469-0.219 0.188-0.5 0.75-0.0938 0.656-1.6 0.469-1.09 0.979-0.473 0.0039-0.0117c2.3 5.33 7.6 9.07 13.8 9.06 3.72 0 7.25-1.5 10-4-1.62 0.587-3.28 0.999-5 1-8.28 0.0071-15-6.72-15-15 0.0019-3.81 1.52-7.37 4.11-10.1l-0.0352 0.0488 0.281 0.189 0.189 0.311s0.117 0.223 0.152 0.223c0.031 0 0.0938 0.219 0.0938 0.219l-0.189 0.25h-0.0938l-0.656 0.125-0.125-0.281-0.434 0.438-0.191 0.723v0.598l0.754 0.406s0.844-0.666 1.19-1.29l0.529-0.652 0.967-0.156 0.219-0.188 1.1 1.28 0.121 0.438 0.314-0.156-0.0898-0.375h0.188l-0.125-0.254-1.06-1 0.0938-0.188 0.344-0.0312 0.75 0.75 0.375 0.441v0.688l0.191 0.125 0.375 0.375 0.275-0.0938-0.15-0.566 0.0938-0.344 0.188-0.219 0.439 0.156 0.156 0.0625-0.0312-0.5 0.25-0.469 0.156-0.689 0.562 0.0957 0.0938 0.312 0.219 0.156 0.254-0.219-0.156-0.346h0.656l-0.223 0.375 0.438 0.375 0.375 0.189 0.219 0.438-0.5 0.121-0.719-0.156h-0.621l-0.598 0.316-0.125 0.188-0.434 0.0938 0.188 0.469 0.344 0.406 0.625-0.219 0.156 0.277 0.277-0.219c0.738 0.123 0.508 1.27-0.0586 1.22l-0.41-0.0625-0.188 0.465-1.38-0.25-0.91 0.434-1.75-1.97-0.564 0.0312-4.79 7.69 0.754 0.906 0.434 0.375 0.441 0.0938 0.0898-0.375h1.56l0.41-0.188 0.5 0.0625 0.152 0.312 0.527 0.0312 0.348 0.25 1.1 8.5 0.566 0.75 0.0625 0.594 0.0938 0.688 0.346-0.344 0.875-0.0898h0.529l0.971-1.5 0.0625-0.594 0.656-0.656 0.0312-0.75 0.344-0.754 0.814-0.777v-0.875l-0.191-0.812-0.121-1.12 0.594-0.939 1.06-1.31 0.41-0.406 0.148-0.531 0.254-0.469 0.0644-0.691h-0.594l-0.281 0.281-0.564-0.156-0.344-0.562-0.281-0.564-0.652-0.5-0.152-0.812-0.281-0.475-0.312-0.594-0.406-0.719-0.0938-0.469c0.935 0.237 1.43 1.86 1.97 2.84l0.434 0.723 0.602 0.6 0.535-0.5 0.594-0.156 0.436-0.531 0.6-0.344 0.344-0.594 0.0312-0.5-0.281-0.316-0.375-0.438-0.25 0.154-0.156 0.254-0.406-0.188-0.125-0.314-0.281-0.41-0.434-0.404v-0.814l0.277 0.531 0.344 0.535 0.598 0.344 0.406-0.0938 0.25 0.281 1.79-0.0352-0.0352 0.0352 0.566 0.5 0.406 0.562 0.125 0.277h0.273l0.0977-0.311 0.0938 0.467 0.156 0.844 0.34 0.812 0.188 0.689 0.277 0.654 0.219 0.277 0.314-0.188 0.0938-0.314 0.125-0.775-0.0352-0.688 0.254-0.316s0.266-0.359 0.314-0.375c0.043-0.012 0.621-0.65 0.621-0.65l0.281-0.35 0.312-0.188 0.375-0.219h0.156l0.0625 0.344 0.156 0.406 0.5 0.65v0.25l0.0938 0.281 0.344-0.156-0.0332-0.375 0.312 0.0664 0.0664 0.344-0.0352 0.531 0.0938 0.375 0.281 0.0644 0.0898-0.314 0.344 0.219 0.0664 0.316 0.309 0.469 0.316 0.344 0.219 0.191 0.535-0.469 0.219-0.441-0.0938-0.5-0.0898-0.656-0.604-0.562-0.0898-0.566 0.25-0.396s0.16-0.32 0.316-0.156c0.148 0.168 0.223 0.188 0.152 0.375-0.063 0.184-0.189 0.598-0.189 0.598l0.375 0.156 0.156-0.531-0.156-0.379 0.203-0.084c-1.52-5.72-5.2-10.6-10.1-13.6zm-24.9 0.393c-0.154 0.103-0.305 0.21-0.457 0.316l-0.0293 0.0723 0.156 0.344 0.562-0.0645 0.25 0.469-0.5 0.531-0.562 0.0625 0.5 0.225 0.531 0.465 0.523 0.125 0.191-0.719 0.0352-0.439 0.621 0.0938s-0.191 0.314-0.0938 0.314c0.098 0 0.469-0.406 0.469-0.406l-1.07-1.1s-0.434-0.344-0.562-0.25c-0.129 0.09-0.469 0.0625-0.469 0.0625zm-0.65 0.824-0.434 0.5-0.32-0.307c-0.43 0.335-0.85 0.682-1.25 1.05 0.371 0.093 0.862 0.293 0.949 0.232 0.129-0.094 0.625-0.875 0.625-0.875zm9.1 0.727-0.121 0.406c0.449 0.348 0.621 0.344 0.621 0.344l0.525-0.125 0.35-0.344-0.225-0.281zm7.22 0.0527 0.254 0.189v0.125l-0.223 0.25-0.0664 0.25v0.344l-0.598 0.34c-0.0178-0.0262-0.186-0.215-0.186-0.215l-0.154-0.0625 0.0625-0.316s0.125-0.0508 0.125-0.0938c0-0.039 0.191-0.189 0.191-0.189l0.219-0.275 0.156-0.189zm-16.1 0.721s-0.432 0.25-0.85 0.406c-0.414 0.156-0.309 0.469-0.309 0.469l-0.0352 0.844-0.688 0.562-0.436 0.656s-0.279-0.188-0.279-0.312-0.0645-0.469-0.0645-0.469l-0.719-0.562s-0.22-0.17-0.398-0.328c-2.12 2.3-3.77 5.05-4.81 8.07l0.652-0.455 0.566-0.191h0.809l1.12-0.25 0.406 0.531-0.0625 0.625 0.469 0.406 0.0625-0.441s-0.0228-0.719-0.0938-0.906c-0.063-0.188 0.566-0.625 0.566-0.625l0.496-0.613 0.598-0.727 0.281-0.562 0.938-0.496 0.625-0.691s0.934-0.148 1.12-0.254c0.191-0.09 0.066-0.434-0.125-0.75-0.191-0.313 0.0938-0.625 0.0938-0.625l0.719-0.434 0.625 0.121 0.0664 0.754s0.59 0.563 0.781 0.465c0.188-0.09 0.27-0.406 0.27-0.406l-0.312-0.812 0.191-0.812-0.844 0.121v-1.38l-0.254 0.254-0.656 0.0312-0.0898-0.688zm10.9 2.19-0.281 0.469 0.375 0.156 0.156-0.281zm-15.4 1.09 0.00586 0.0078 0.656 0.275 0.434 0.566 0.281 0.434s-0.25 0.844-0.312 1-0.25-0.312-0.25-0.312l-0.156-0.814-0.531 0.227-0.41 0.965 0.0938-0.812 0.125-0.562-0.654-0.25 0.562-0.531zm26.4 0.758c0.137-0.043 0.375 0.152 0.375 0.152l-0.25 0.223 0.0898 0.312 0.281 0.75 0.281 0.469 0.375 0.594-0.406 0.191-0.531-0.344-0.223-0.656s-0.303-0.406-0.436-0.469c-0.137-0.066-0.256-0.281-0.256-0.281l0.125-0.531s0.431-0.359 0.564-0.406zm-7.91 1.19-0.375 0.719 0.281 0.281 0.25-0.223 0.0312-0.311zm0.904 1.22-0.188 0.0644 0.309 0.531 0.281-0.223zm-23.5 3.06c-0.299 0.89-0.549 1.8-0.738 2.74l0.523 0.285 0.5-0.0644 0.719 0.344 1.09 0.598 0.156 0.725 0.875 0.84 0.5-0.375-0.434-0.217-0.254-0.906-0.0898-0.41-0.688-0.621v-0.438l0.531-0.566-0.348-0.4-0.564 0.0898-0.848 0.844-0.689-0.0898s-0.313-0.531-0.379-0.656c-0.063-0.125 0.191-0.562 0.191-0.562zm3.32 1.12v0.0039l-0.309 0.156 0.529 0.277 0.596 0.121 0.344 0.469 0.406-0.25-0.0645-0.277-0.688-0.5zm38.1 3.59c0.113 0.129 0.813 2.22 0.906 2.22 0.09 0 0.625 0.0664 0.625 0.0664l-0.281-0.846zm-3.59 0.0644-0.316 0.406 0.156 0.6 0.344-0.375-0.0625-0.475zm3.49 1.16-0.438 0.0664 2 3 0.531 0.594 1.25 0.0606c0.012-0.116 0.0173-0.233 0.0273-0.35l-0.0254-0.0176-1.25-0.346-0.314-1.15-0.688-0.564-1.09-1.28zm3.42 0.213-0.297 0.162c0 0.094-0.727 0.691-0.727 0.691l0.191 0.625 0.41 0.465 0.273 0.688 0.135-0.0879c0.027-0.453 0.043-0.906 0.043-1.37 0-0.394-0.0104-0.788-0.0293-1.18zm-13.9 4.66v0.439c-0.02 0.066-0.406 0.375-0.406 0.375l-0.469 0.219-0.346 0.281 0.256 0.344 0.154 0.156-0.41 0.344v0.562l0.156 0.596 0.344 0.0938 0.41-0.625 0.25-0.406-0.0625-0.5 0.375-0.594 0.125-0.281v-0.562l-0.0957-0.439zm-20.5 9.47-0.215 0.15-0.0938 0.0312 0.5 0.25zm-0.848 0.184 2e-3 0.0039 2e-3 -0.0039zm2e-3 0.0039-0.217 0.496 0.438-0.0938zm1.5 4.12-0.469 0.719-0.875 0.406 0.5 0.625 2 0.373s-0.652-1.32-0.652-1.5c0-0.176-0.5-0.621-0.5-0.621z" style="opacity:.1"/>
 <path d="m17.5 1.94c-1.15 0.34-2.27 0.767-3.34 1.28l0.363 0.969 0.15 0.598-0.621 0.346-0.254 0.465 0.189 1.06 0.754 0.125 0.719-0.688 0.625-0.656 0.965-0.25 1.23-0.594 0.719-0.875 1.03-1.25 0.719-0.189-0.0312-0.273h-1.12l-2.1-0.0605zm8.58 0.443c-0.055 0.02-1.53 0.0215-1.53 0.0215l-0.379 0.0996 0.5 0.598 0.531-0.5 0.344 0.219 0.5-0.25s0.0902-0.21 0.0312-0.188zm6 0.461-0.375 0.00391-0.469 0.0625-0.406 0.25-0.469 0.35-0.277 0.5 0.434 0.438 0.375 0.0312 0.156-0.254-0.375-0.314 0.219-0.188 0.0312-0.152 0.469-0.312s0.609 8e-3 0.656 0c0.051-0.012 0.189-0.191 0.189-0.191l-0.156-0.223h-0.00195zm2.72 0.824-0.00781 0.00586-0.498 0.299-0.531 0.438 0.0645 0.189-0.277 0.0312v0.00391l-0.041 0.00586c0.0185-0.00983 0.0381-0.0175 0.0566-0.0273l-0.0273-0.156-0.316-0.438-0.652-0.0625s0.152 0.664 0.152 0.75c0 0.082-0.438 0.0234-0.438 0.0234l-0.75 0.0352s-1.09 0.25-1.22 0.25-0.762 0.262-0.812 0.281l-0.0234 0.00391v0.00195l-0.00195 0.00195-1.21 0.652-0.312-0.225-0.156-0.25 0.0645-0.254 0.688 0.0352 0.316-0.125-0.621-0.314-0.875-0.312-0.879-0.156-0.941 0.191-0.969 0.777-0.438 0.439-0.652 0.719-0.25 0.0312-0.0977 0.344 0.125 0.344s0.133 0.156 0.156 0.156c0.02 0 0.25-0.125 0.25-0.125s0.0272-0.117 0.156-0.156c0.133-0.039 0.25-0.0625 0.25-0.0625l0.188 0.375 0.227 0.312 0.0898 0.25s0.363-0.223 0.379-0.25c8e-3 -0.031 0.0312-0.408 0.0312-0.408l0.27-0.189s0.0744-0.133 0.0664-0.156c-0.012-0.02-0.188-0.219-0.188-0.219l-0.156-0.0625 0.0625-0.316s0.125-0.0508 0.125-0.0938c0-0.039 0.191-0.189 0.191-0.189l0.219-0.273 0.156-0.189 0.219-0.156 0.254 0.189v0.125l-0.223 0.25-0.0664 0.25v0.344l0.191 0.156 0.344-0.0312 0.314-0.0625 0.279 0.152-0.0645 0.223s-0.195 0.188-0.25 0.219c-0.059 0.031-0.41-0.0632-0.5-0.0312-0.09 0.031-0.314 0.316-0.314 0.316s-0.023 0.248 0 0.312c0.012 0.023-0.0037 0.0709-0.0117 0.129l-0.0254 0.0176-0.379 0.279h-0.0234l-0.25-0.0938s-0.16 0.00841-0.227 0.0664c-0.063 0.051-0.12 0.102-0.312 0.121-0.191 0.02-0.563 0-0.598 0h-0.219l0.0312-0.229 0.156-0.25-0.277-0.223s-0.184 0.23-0.191 0.281c-4e-3 0.055 0.125 0.279 0.125 0.279s-0.0588 0.182-0.0898 0.221c-0.035 0.039-0.312 0.125-0.312 0.125l-0.439-0.221s-0.18-0.0375-0.156 0.0645c0.027 0.102 0.225 0.195 0.225 0.281 0 0.082-0.125 0.273-0.125 0.273l-0.156 0.189-0.25 0.254-0.344 0.0898s-0.251 0.0698-0.314 0.0938c-0.066 0.023-0.254 0.0664-0.254 0.0664l-0.25 0.0312-0.156 0.223 0.281 0.191 0.189 0.309s0.119 0.223 0.154 0.223c0.031 0 0.0918 0.221 0.0918 0.221l-0.189 0.25h-0.0938l-0.656 0.125-0.125-0.281-0.434 0.438-0.191 0.721v0.598l0.754 0.406 0.594-0.221 0.602-1.06 0.527-0.652 0.969-0.156 0.219-0.188 1.1 1.28 0.121 0.438 0.312-0.156-0.0898-0.375h0.188l-0.125-0.254-1.06-1 0.0938-0.188 0.344-0.0312 0.75 0.75 0.375 0.441v0.688l0.191 0.125 0.375 0.375 0.277-0.0938-0.152-0.566 0.0938-0.344 0.188-0.219 0.439 0.156 0.156 0.0625-0.0312-0.5 0.25-0.469 0.156-0.689 0.562 0.0977 0.0938 0.312 0.221 0.156 0.254-0.219-0.156-0.348h0.656l-0.225 0.375 0.439 0.375 0.375 0.189 0.219 0.438-0.5 0.121-0.719-0.154h-0.621l-0.598 0.314-0.125 0.189-0.436 0.0938 0.189 0.469 0.344 0.406 0.625-0.219 0.156 0.275 0.275-0.219 0.375 0.0645 0.0352 0.408-0.125 0.777-0.344-0.0312-0.41-0.0625-0.188 0.465-1.38-0.25-0.25-0.316-0.316 0.281-0.344 0.469-0.875-0.5-0.875-0.525v-0.941l-0.564 0.0312-0.0273 0.312-1.38-0.0625-0.439 0.4-0.844 0.0312-0.566 0.5-0.344 0.969-0.875 0.691-0.625 0.844-0.0312 1.62-0.188 0.5-0.0645 0.6 0.375 0.65 0.219 0.625 0.756 0.906 0.434 0.375 0.441 0.0938 0.0898-0.375h1.56l0.41-0.188 0.5 0.0625 0.152 0.314 0.525 0.0312 0.35 0.25v0.529l-0.121 0.439-0.125 0.344 0.312 0.566 0.406 0.469 0.189 1.19 0.0273 0.777-0.273 0.656-0.0312 0.625 0.219 1.16 0.191 0.188 0.27 1.09 0.0352 0.471 0.566 0.75 0.0625 0.594 0.0957 0.688 0.346-0.344 0.875-0.0898h0.529l0.971-1.5 0.0625-0.594 0.656-0.656 0.0312-0.75 0.344-0.754 0.812-0.777v-0.875l-0.191-0.812-0.121-1.12 0.594-0.939 1.06-1.31 0.41-0.406 0.15-0.531 0.254-0.469 0.0645-0.691h-0.594l-0.281 0.281-0.564-0.156-0.344-0.562-0.281-0.562-0.654-0.5-0.152-0.812-0.281-0.477-0.312-0.594-0.406-0.719-0.0938-0.469 0.438-0.0625 0.25 0.531 0.5 0.938 0.785 1.44 0.436 0.723 0.602 0.602 0.535-0.5 0.594-0.156 0.434-0.531 0.6-0.344 0.344-0.594 0.0312-0.5-0.281-0.316-0.375-0.438-0.25 0.152-0.156 0.254-0.404-0.188-0.125-0.312-0.281-0.41-0.434-0.406v-0.812l0.275 0.531 0.344 0.535 0.6 0.344 0.406-0.0938 0.25 0.281 1.78-0.0352-0.0332 0.0352 0.564 0.5 0.406 0.562 0.125 0.277h0.275l0.0957-0.312 0.0938 0.467 0.156 0.846 0.34 0.812 0.189 0.688 0.277 0.656 0.219 0.277 0.314-0.188 0.0938-0.314 0.125-0.775-0.0352-0.689 0.254-0.316s0.264-0.359 0.312-0.375c0.043-0.012 0.621-0.648 0.621-0.648l0.281-0.352 0.312-0.188 0.375-0.219h0.156l0.0625 0.344 0.156 0.406 0.5 0.652v0.25l0.0938 0.281 0.346-0.156-0.0332-0.375 0.312 0.0664 0.0664 0.344-0.0352 0.531 0.0938 0.375 0.281 0.0625 0.0898-0.312 0.344 0.219 0.0664 0.316 0.309 0.469 0.316 0.344 0.219 0.191 0.535-0.469 0.219-0.441-0.0938-0.5-0.0898-0.656-0.604-0.562-0.0918-0.566 0.25-0.398s0.16-0.32 0.316-0.156c0.148 0.168 0.223 0.188 0.152 0.375-0.063 0.184-0.188 0.598-0.188 0.598l0.375 0.156 0.156-0.531-0.156-0.379 0.375-0.156 0.441-0.221c-1.87-5.66-5.88-10.3-11.1-13.1zm-23 0.852-0.305 0.709 0.621 0.0938s-0.191 0.314-0.0938 0.314c0.098 0 0.469-0.406 0.469-0.406l-0.691-0.711zm17.7 0.789c0.00336 0.00104 0.00641 9.21e-4 0.00977 0.00195l-0.0195 0.00391 0.00976-0.00586zm-10.7 0.0859-0.121 0.406c0.449 0.348 0.621 0.344 0.621 0.344l0.523-0.125 0.352-0.344-0.227-0.281h-1.15zm-7.28 0.273-1.4 0.0605 0.154 0.0684 0.531 0.465 0.523 0.125 0.191-0.719zm-1.59 0.5s-0.434 0.248-0.852 0.404c-2e-3 2e-3 -0.00386 0.00191-0.00586 0.00391-0.091 0.079-0.181 0.156-0.271 0.236-0.053 0.12-0.0293 0.23-0.0293 0.23l-0.0352 0.844-0.688 0.562-0.436 0.656s-0.281-0.188-0.281-0.312-0.0625-0.471-0.0625-0.471l-0.00781-0.00586c-0.43 0.462-0.841 0.943-1.23 1.44l0.416 0.545 0.281 0.434s-0.248 0.844-0.312 1c-0.063 0.156-0.25-0.312-0.25-0.312l-0.156-0.814-0.531 0.225-0.41 0.965 0.0938-0.811 0.0215-0.0859c-0.858 1.24-1.6 2.56-2.21 3.96h0.393l1.12-0.25 0.406 0.531-0.0625 0.625 0.469 0.406 0.0625-0.441s-0.0228-0.719-0.0938-0.906c-0.063-0.188 0.566-0.625 0.566-0.625l0.496-0.613 0.598-0.727 0.281-0.562 0.938-0.496 0.625-0.691s0.934-0.148 1.12-0.254c0.191-0.09 0.066-0.434-0.125-0.75-0.191-0.313 0.0938-0.625 0.0938-0.625l0.719-0.434 0.625 0.121 0.0664 0.754s0.59 0.563 0.781 0.465c0.188-0.09 0.27-0.406 0.27-0.406l-0.312-0.812 0.191-0.812-0.844 0.121v-1.38l-0.254 0.254-0.656 0.0312-0.0898-0.688-0.436-0.529zm11.6 1.01-0.25 0.219c-0.066 0.305-0.15 0.621-0.15 0.621l0.469 0.223 0.0625 0.277-0.25 0.254-0.219 0.375 0.152 0.156 0.562-0.0938 0.5-0.221-0.275-0.375-0.0996-0.654-0.344-0.375-0.158-0.406zm-0.775 1.18-0.281 0.469 0.375 0.156 0.156-0.281-0.25-0.344zm10.9 1.85c0.137-0.043 0.375 0.154 0.375 0.154l-0.25 0.221 0.0898 0.312 0.281 0.75 0.281 0.469 0.375 0.596-0.406 0.189-0.531-0.344-0.223-0.656s-0.303-0.406-0.436-0.469c-0.137-0.066-0.254-0.281-0.254-0.281l0.125-0.531s0.431-0.357 0.564-0.404l0.00781-0.00391v-0.00195zm-7.91 1.19-0.375 0.719 0.281 0.281 0.25-0.223 0.0312-0.309-0.188-0.469zm-1.25 0.752v0.188l0.156-0.0312-0.156-0.156zm2.16 0.467-0.188 0.0645 0.309 0.531 0.281-0.221-0.402-0.375zm-20.1 4.19v0.00391l-0.311 0.156 0.531 0.277 0.594 0.121 0.346 0.471 0.404-0.25-0.0625-0.279-0.689-0.5h-0.812zm-0.975 0.41-0.564 0.0898-0.848 0.844-0.363-0.0469c-0.053 0.201-0.101 0.404-0.148 0.607l0.58 0.275 1.09 0.6 0.156 0.725 0.875 0.84 0.5-0.375 0.492 0.285-0.0176 0.184-0.189 1-0.562 0.75 0.0293 1.12 0.467 1.16 0.5 1.41 1.31 1.31 0.0645 0.75 0.0938 3.39 0.469 1.9s0.285 1.1 0.223 1.19c-0.066 0.09 0.375 0.91 0.375 0.91l0.875 1.38 1.22 0.525-0.5-0.598-0.25-0.689 0.25-0.719-0.656-0.344s0.434-0.285 0.5-0.375c0.066-0.09-0.0898-0.469-0.0898-0.469l-0.191-0.467 0.496-0.654 0.781-0.189 0.125-0.598-0.469-0.219 0.188-0.5 0.75-0.0938 0.656-1.6 0.469-1.09 0.979-0.473s0.309-0.926 0.309-1.06c0-0.129 0.0938-1.53 0.0938-1.53l-1.04-2.56-1.34-0.781-0.27-0.656s-0.48-0.812-0.566-0.812-0.652 0.0352-0.652 0.0352l-0.529-0.531-0.346-0.656-1.34-0.281-0.438-0.219h-0.875v0.00391l-0.00781 0.00391-0.814 0.441-0.998 0.211-0.254-0.906-0.0898-0.41-0.688-0.621v-0.438l0.531-0.566-0.348-0.398zm39.1 3.18c0.113 0.129 0.813 2.22 0.906 2.22 0.09 0 0.625 0.0664 0.625 0.0664l-0.281-0.846-1.25-1.44zm-3.59 0.0645-0.316 0.406 0.156 0.6 0.344-0.375-0.0625-0.475-0.121-0.156zm7.79 0.889-1.17 0.643c0 0.094-0.727 0.691-0.727 0.691l0.191 0.625 0.41 0.465 0.273 0.688 1.17-0.76c-0.01-0.795-0.0615-1.58-0.15-2.35zm-4.3 0.275-0.43 0.0586 2 3 0.531 0.594 1.31 0.0645 0.814 0.254-0.879-0.625-1.25-0.346-0.314-1.15-0.688-0.564-1.09-1.28zm-10.5 4.87v0.439c-0.02 0.066-0.406 0.375-0.406 0.375l-0.469 0.219-0.346 0.281 0.254 0.344 0.156 0.156-0.41 0.344v0.564l0.156 0.594 0.344 0.0938 0.41-0.625 0.25-0.406-0.0625-0.5 0.375-0.594 0.125-0.281v-0.562l-0.0957-0.439-0.281-0.00195zm14.5 1.99c-0.05 0.017-0.115 0.0358-0.119 0.0508-0.02 0.086-0.562 0.375-0.562 0.375-0.113 0-0.467 0.656-0.467 0.656l-0.0645 2.06-0.121 0.75 0.129 0.168c0.52-1.3 0.928-2.66 1.21-4.06zm-35 7.49-0.215 0.152-0.0938 0.0312 0.5 0.25-0.191-0.434zm-0.848 0.184 0.00195 0.00391 0.00195-0.00391h-0.00391zm0.00195 0.00391-0.217 0.496 0.438-0.0938-0.221-0.402zm1.5 4.12-0.469 0.717-0.875 0.406 0.5 0.625-0.75 0.375-0.475-0.0234c3.85 2.91 8.64 4.63 13.8 4.63 6.14 0 11.7-2.41 15.8-6.32l-2.55 0.0957-3.06 0.621s-1.48 0.793-1.66 0.754c-0.18-0.043 0.625-1.03 0.625-1.03l-1.44 0.0898-0.904-0.75-0.91 0.621s-1.22 0.0957-1.53 0.0957c-0.316 0-0.723 0.562-0.723 0.562l-2.47-0.0898-4.25 0.189-1.12 0.965-0.281 0.0352-3.21-0.225-2.22 0.225-0.781-0.381 0.0312-0.0625s-0.652-1.32-0.652-1.5c0-0.176-0.5-0.621-0.5-0.621l-0.00195-0.00195z" style="fill:#a7a0de"/>
 <path d="m23 10c-0.466 0.167-0.916 0.361-1.36 0.568 0.0274 0.042 0.0468 0.0879 0.0606 0.0879 0.031 0 0.0918 0.221 0.0918 0.221l-0.189 0.25h-0.0938l-0.656 0.125-0.104-0.234c-0.0565 0.0311-0.11 0.0658-0.166 0.0977l-0.289 0.293-0.191 0.721v0.598l0.383 0.207c0.709-1.06 1.54-2.06 2.51-2.93zm-3.93 5.61-0.0488 0.0391-0.625 0.844-0.0254 1.29c0.172-0.744 0.414-1.47 0.699-2.17zm-0.816 2.8-0.0762 0.203-0.0644 0.6 0.0059 0.0098c0.0341-0.274 0.0852-0.543 0.135-0.812z" style="opacity:.1"/>
 <path d="m40 7.53c3.71 4.08 5.97 9.51 5.97 15.5 0 12.7-10.3 23-23 23-5.95 0-11.4-2.26-15.5-5.97 4.18 4.29 10 6.97 16.5 6.97 12.7 0 23-10.3 23-23 0-6.46-2.68-12.3-6.97-16.5z" style="opacity:.1"/>
 <path d="m22 9c-5.96 2.13-10 7.67-10 14-0.0043 8.28 6.72 15 15 15 3.72 0 7.25-1.5 10-4-1.62 0.587-3.28 0.999-5 1-8.28 0.0071-15-6.72-15-15 0.0021-4.23 1.86-8.16 5-11z" style="fill:#f9f9f9;paint-order:normal"/>
</svg>
