<svg version="1.1" viewBox="0 0 48 48" xmlns="http://www.w3.org/2000/svg">
 <defs>
  <linearGradient id="bg" x2="0" y1="1" y2="47" gradientUnits="userSpaceOnUse">
   <stop style="stop-color:#9c1424" offset="0"/>
   <stop style="stop-color:#8a1220" offset="1"/>
  </linearGradient>
 </defs>
 <path d="m36.31 5c5.859 4.062 9.688 10.831 9.688 18.5 0 12.426-10.07 22.5-22.5 22.5-7.669 0-14.438-3.828-18.5-9.688 1.037 1.822 2.306 3.499 3.781 4.969 4.085 3.712 9.514 5.969 15.469 5.969 12.703 0 23-10.298 23-23 0-5.954-2.256-11.384-5.969-15.469-1.469-1.475-3.147-2.744-4.969-3.781zm4.969 3.781c3.854 4.113 6.219 9.637 6.219 15.719 0 12.703-10.297 23-23 23-6.081 0-11.606-2.364-15.719-6.219 4.16 4.144 9.883 6.719 16.219 6.719 12.703 0 23-10.298 23-23 0-6.335-2.575-12.06-6.719-16.219z" style="opacity:.05"/>
 <path d="m41.28 8.781c3.712 4.085 5.969 9.514 5.969 15.469 0 12.703-10.297 23-23 23-5.954 0-11.384-2.256-15.469-5.969 4.113 3.854 9.637 6.219 15.719 6.219 12.703 0 23-10.298 23-23 0-6.081-2.364-11.606-6.219-15.719z" style="opacity:.1"/>
 <path d="m31.25 2.375c8.615 3.154 14.75 11.417 14.75 21.13 0 12.426-10.07 22.5-22.5 22.5-9.708 0-17.971-6.135-21.12-14.75a23 23 0 0 0 44.875-7 23 23 0 0 0-16-21.875z" style="opacity:.2"/>
 <circle cx="24" cy="24" r="23" style="fill:url(#bg)"/>
 <path d="m15 13-2 2v8l2 4 1-1v-3l2-2v2l1 1h1l1-1 1-2v2l1 1h1l2-1 1-2v1l2 2h2l1-2v-1l1 1v2l-1 1v1h2l2.416-4 0.58398-3v-4l-4-2zm20 13-1 1v3l-1 1v-1l-1-1v-1l-1-1h-1l-1 1-1 2-1-1v-1l-1-1h-1l-2 2v1l-1 1v-3l-1-1h-1l-1 1-1 3-1-4h-1l-2 2.1016-1 4.3984v1.5l2 2h20l2-3v-6z" style="opacity:.1;paint-order:normal"/>
 <path d="m40.03 7.531c3.712 4.084 5.969 9.514 5.969 15.469 0 12.703-10.297 23-23 23-5.954 0-11.384-2.256-15.469-5.969 4.178 4.291 10.01 6.969 16.469 6.969 12.703 0 23-10.298 23-23 0-6.462-2.677-12.291-6.969-16.469z" style="opacity:.1"/>
 <path d="m14 12-2 2v3h24v-3l-4-2zm22 20-24 1v1l2 2h20l2-3z" style="fill:#f5364d;paint-order:normal"/>
 <path d="m20 13-2 1-1 1v-1l-2-0.79688h-1l-2 0.79688v3h24v-2l-1-1h-2l-2 1-1-1h-1l-3 1v-1h-2l-2 1-1 1v-2zm16 19-23.885 0.99609-0.11523 0.50391v0.5l1 1h1l1 1 2-2 1 1h1l1-1h1l1 1h4l1-1 1 1h3l0.5-0.5 1.5 1.5 3-3z" style="opacity:.1;paint-order:normal"/>
 <path d="m20 14-2 1-1 1v-1l-2-0.79688h-1l-2 0.79688v7l2 4 1-1v-3l2-2v2l1 1h1l1-1 1-2v2l1 1h1l2-1 1-2v1l2 2h2l1-2v-1l1 1v2l-1 1v1h2l2.416-4 0.58398-3v-2l-1-1h-2l-2 1-1-1h-1l-3 1v-1h-2l-2 1-1 1v-2zm14 11-1 1v3l-1 1v-1l-1-1v-1l-1-1h-1l-1 1-1 2-1-1v-1l-1-1h-1l-2 2v1l-1 1v-3l-1-1h-1l-1 1-1 3-1-4h-1l-2 2.1016-1 4.3984v1.5h2l1 1 2-2 1 1h1l1-1h1l1 1h4l1-1 1 1h4l1 1 3-3v-5z" style="fill:#f9f8f3;paint-order:normal"/>
 <path d="m16 14.602v6.3984l1-1v-5zm16 0.89844-1 0.5v4l1 1zm-5 0.16602-1 0.33398v5l1 1zm-5 0.33398-1 1v5l1 1zm-6 10.422v7.5781l1-1v-3l-0.89453-3.5781zm10 1.5781v6l1-1v-4zm5 0v6h1v-5zm-9 1-1 1v3l1 1z" style="opacity:.1;paint-order:normal"/>
</svg>
