<svg xmlns="http://www.w3.org/2000/svg" viewBox="0 0 48 48">
 <defs>
  <linearGradient id="linearGradient3764" x1="1" x2="47" gradientUnits="userSpaceOnUse" gradientTransform="matrix(0,-1,1,0,-1.5e-6,47.999998)">
   <stop style="stop-color:#e4e4e4;stop-opacity:1"/>
   <stop offset="1" style="stop-color:#eee;stop-opacity:1"/>
  </linearGradient>
 </defs>
 <g>
  <path d="m 36.31 5 c 5.859 4.062 9.688 10.831 9.688 18.5 c 0 12.426 -10.07 22.5 -22.5 22.5 c -7.669 0 -14.438 -3.828 -18.5 -9.688 c 1.037 1.822 2.306 3.499 3.781 4.969 c 4.085 3.712 9.514 5.969 15.469 5.969 c 12.703 0 23 -10.298 23 -23 c 0 -5.954 -2.256 -11.384 -5.969 -15.469 c -1.469 -1.475 -3.147 -2.744 -4.969 -3.781 z m 4.969 3.781 c 3.854 4.113 6.219 9.637 6.219 15.719 c 0 12.703 -10.297 23 -23 23 c -6.081 0 -11.606 -2.364 -15.719 -6.219 c 4.16 4.144 9.883 6.719 16.219 6.719 c 12.703 0 23 -10.298 23 -23 c 0 -6.335 -2.575 -12.06 -6.719 -16.219 z" style="opacity:0.05"/>
  <path d="m 41.28 8.781 c 3.712 4.085 5.969 9.514 5.969 15.469 c 0 12.703 -10.297 23 -23 23 c -5.954 0 -11.384 -2.256 -15.469 -5.969 c 4.113 3.854 9.637 6.219 15.719 6.219 c 12.703 0 23 -10.298 23 -23 c 0 -6.081 -2.364 -11.606 -6.219 -15.719 z" style="opacity:0.1"/>
  <path d="m 31.25 2.375 c 8.615 3.154 14.75 11.417 14.75 21.13 c 0 12.426 -10.07 22.5 -22.5 22.5 c -9.708 0 -17.971 -6.135 -21.12 -14.75 a 23 23 0 0 0 44.875 -7 a 23 23 0 0 0 -16 -21.875 z" style="opacity:0.2"/>
 </g>
 <g>
  <path d="m 24 1 c 12.703 0 23 10.297 23 23 c 0 12.703 -10.297 23 -23 23 -12.703 0 -23 -10.297 -23 -23 0 -12.703 10.297 -23 23 -23 z" style="fill:url(#linearGradient3764);fill-opacity:1"/>
 </g>
 <g>
  <g>
   <g transform="translate(1,1)">
    <g style="opacity:0.1">
     <!-- color: #eeeeee -->
     <g>
      <path d="m 35.852 13.316 l -0.715 2.438 l -0.658 0.242 l -21.494 0 c -0.543 0 -0.984 0.441 -0.984 0.988 l 0 16.03 c 0 0.539 0.441 0.977 0.984 0.977 l 24.03 0 c 0.539 0 0.977 -0.43 0.977 -0.977 l 0 -13.445 l 1.512 0.414 l -0.717 -2.453 l 1.414 -2.086 l -2.715 -0.117 l -1.633 -2.01 z" transform="translate(-1,-1)"/>
     </g>
    </g>
   </g>
  </g>
 </g>
 <g>
  <g>
   <!-- color: #eeeeee -->
   <g>
    <path d="m 11.984,14.996 24.03,0 c 0.543,0 0.977,0.441 0.977,0.988 l 0,16.03 c 0,0.547 -0.438,0.977 -0.977,0.977 l -24.03,0 C 11.441,32.991 11,32.553 11,32.014 l 0,-16.03 c 0,-0.547 0.441,-0.988 0.984,-0.988 m 0,0" style="fill:#f9f9f9;fill-opacity:1;stroke:none;fill-rule:nonzero"/>
    <path d="M 37,17 24,25.656 35,33 l 1,0 c 0.547,0 1,-0.453 1,-1 m 0,-15" style="fill:#ccc;fill-opacity:1;stroke:none;fill-rule:nonzero"/>
    <path d="m 12,15 c -0.453,0 -0.82,0.328 -0.938,0.75 -0.035,0.086 -0.063,0.16 -0.063,0.25 l 0,16 c 0,0.09 0.027,0.164 0.063,0.25 C 11.179,32.672 11.546,33 12,33 l 24,0 c 0.48,0 0.875,-0.359 0.969,-0.813 C 36.989,32.121 37,32.066 37,31.999 l 0,-16 C 37,15.929 36.988,15.874 36.969,15.811 36.875,15.358 36.481,14.995 36,14.995 l -24,0 m 4,2 16,0 -8,5.344 m -11,-4 11,7.313 11,-7.313 0,12.656 -22,0 m 0,-12.656" style="fill:#2d2d2d;fill-opacity:1;stroke:none;fill-rule:nonzero"/>
    <path d="m 31.641 15.672 2.496 -0.918 0.715 -2.438 1.633 2.01 2.715 0.117 -1.414 2.086 0.715 2.453 -2.395 -0.656 -2.406 1.691 0.016 -2.598 m -2.074 -1.746" style="fill:#ffe236;fill-opacity:1;stroke:none;fill-rule:nonzero"/>
   </g>
  </g>
 </g>
 <g>
  <path d="m 40.03 7.531 c 3.712 4.084 5.969 9.514 5.969 15.469 0 12.703 -10.297 23 -23 23 c -5.954 0 -11.384 -2.256 -15.469 -5.969 4.178 4.291 10.01 6.969 16.469 6.969 c 12.703 0 23 -10.298 23 -23 0 -6.462 -2.677 -12.291 -6.969 -16.469 z" style="opacity:0.1"/>
 </g>
</svg>
