<svg xmlns="http://www.w3.org/2000/svg" viewBox="0 0 48 48">
 <defs>
  <linearGradient id="linearGradient3764" x2="47" gradientUnits="userSpaceOnUse" x1="1" gradientTransform="matrix(0 -1 1 0 -.0000015 48)">
   <stop style="stop-color:#d6ecf6"/>
   <stop offset="1" style="stop-color:#e6f4fa"/>
  </linearGradient>
 </defs>
 <g>
  <path d="m36.31 5c5.859 4.062 9.688 10.831 9.688 18.5 0 12.426-10.07 22.5-22.5 22.5-7.669 0-14.438-3.828-18.5-9.688 1.037 1.822 2.306 3.499 3.781 4.969 4.085 3.712 9.514 5.969 15.469 5.969 12.703 0 23-10.298 23-23 0-5.954-2.256-11.384-5.969-15.469-1.469-1.475-3.147-2.744-4.969-3.781zm4.969 3.781c3.854 4.113 6.219 9.637 6.219 15.719 0 12.703-10.297 23-23 23-6.081 0-11.606-2.364-15.719-6.219 4.16 4.144 9.883 6.719 16.219 6.719 12.703 0 23-10.298 23-23 0-6.335-2.575-12.06-6.719-16.219z" style="opacity:0.05"/>
  <path d="m41.28 8.781c3.712 4.085 5.969 9.514 5.969 15.469 0 12.703-10.297 23-23 23-5.954 0-11.384-2.256-15.469-5.969 4.113 3.854 9.637 6.219 15.719 6.219 12.703 0 23-10.298 23-23 0-6.081-2.364-11.606-6.219-15.719z" style="opacity:0.1"/>
  <path d="m31.25 2.375c8.615 3.154 14.75 11.417 14.75 21.13 0 12.426-10.07 22.5-22.5 22.5-9.708 0-17.971-6.135-21.12-14.75a23 23 0 0 0 44.875 -7 23 23 0 0 0 -16 -21.875z" style="opacity:0.2"/>
 </g>
 <g>
  <path d="m24 1c12.703 0 23 10.297 23 23s-10.297 23-23 23-23-10.297-23-23 10.297-23 23-23z" style="fill:url(#linearGradient3764)"/>
 </g>
 <g>
  <path d="m40.03 7.531c3.712 4.084 5.969 9.514 5.969 15.469 0 12.703-10.297 23-23 23-5.954 0-11.384-2.256-15.469-5.969 4.178 4.291 10.01 6.969 16.469 6.969 12.703 0 23-10.298 23-23 0-6.462-2.677-12.291-6.969-16.469z" style="opacity:0.1"/>
 </g>
 <g transform="matrix(.6 0 0 .59341 -157.23 -315.81)" style="opacity:0.1">
  <path d="m312.05 555.79v15.167l15-15.167v26.963l-7.5 7.5833v-11.796l-12.5 12.639v-15.167l-15 15.167h-15z"/>
 </g>
 <g transform="matrix(.5 0 0 .5 4.1628 10.586)">
  <g transform="matrix(1.2 0 0 1.1868 -324.78 -654.79)" style="fill:#6ebae1">
   <path d="m312.05 555.79v15.167l15-15.167v26.963l-7.5 7.5833v-11.796l-12.5 12.639v-15.167l-15 15.167h-15z"/>
  </g>
  <g transform="matrix(1.2 0 0 1.1868 -324.78 -654.79)" style="fill:#4faadb">
   <path d="m327.05 573.49v9.2685l-7.5 7.5833v-11.796l-12.5 12.639v-13.405l-2.2115 0.47433-12.788 12.931h-15l8.75-8.8472z"/>
  </g>
 </g>
</svg>
