<svg version="1.1" viewBox="0 0 48 48" xmlns="http://www.w3.org/2000/svg" xmlns:xlink="http://www.w3.org/1999/xlink">
 <defs>
  <linearGradient id="bg" x1="1" x2="47" gradientUnits="userSpaceOnUse">
   <stop style="stop-color:#ff822d" offset="0"/>
   <stop style="stop-color:#ff8e41" offset="1"/>
  </linearGradient>
  <linearGradient id="linearGradient22544" x1="1" x2="47" gradientUnits="userSpaceOnUse" xlink:href="#bg"/>
 </defs>
 <path d="m36.31 5c5.859 4.062 9.688 10.831 9.688 18.5 0 12.426-10.07 22.5-22.5 22.5-7.669 0-14.438-3.828-18.5-9.688 1.037 1.822 2.306 3.499 3.781 4.969 4.085 3.712 9.514 5.969 15.469 5.969 12.703 0 23-10.298 23-23 0-5.954-2.256-11.384-5.969-15.469-1.469-1.475-3.147-2.744-4.969-3.781zm4.969 3.781c3.854 4.113 6.219 9.637 6.219 15.719 0 12.703-10.297 23-23 23-6.081 0-11.606-2.364-15.719-6.219 4.16 4.144 9.883 6.719 16.219 6.719 12.703 0 23-10.298 23-23 0-6.335-2.575-12.06-6.719-16.219z" style="opacity:.05"/>
 <path d="m41.28 8.781c3.712 4.085 5.969 9.514 5.969 15.469 0 12.703-10.297 23-23 23-5.954 0-11.384-2.256-15.469-5.969 4.113 3.854 9.637 6.219 15.719 6.219 12.703 0 23-10.298 23-23 0-6.081-2.364-11.606-6.219-15.719z" style="opacity:.1"/>
 <path d="m31.25 2.375c8.615 3.154 14.75 11.417 14.75 21.13 0 12.426-10.07 22.5-22.5 22.5-9.708 0-17.971-6.135-21.12-14.75a23 23 0 0 0 44.875-7 23 23 0 0 0-16-21.875z" style="opacity:.2"/>
 <g transform="matrix(0,-1,1,0,0,48)" style="fill:url(#bg)">
  <path d="m24 1c12.703 0 23 10.297 23 23s-10.297 23-23 23-23-10.297-23-23 10.297-23 23-23z" style="fill:url(#linearGradient22544)"/>
 </g>
 <path d="m40.03 7.531c3.712 4.084 5.969 9.514 5.969 15.469 0 12.703-10.297 23-23 23-5.954 0-11.384-2.256-15.469-5.969 4.178 4.291 10.01 6.969 16.469 6.969 12.703 0 23-10.298 23-23 0-6.462-2.677-12.291-6.969-16.469z" style="opacity:.1"/>
 <path d="m25 10c-8.2843-6.806e-4 -15 6.7157-15 15s6.7157 15 15 15c5 0 12-3 12-8 0-1.1046-0.89543-2-2-2-6 0-4 8-10 8-7.1797 0-13-5.8203-13-13s5.8203-13 13-13c2.5772 0 5.3454 0.4334 8 1.1777v2.8223h-2v2h2v2h2v-2h2v-2h-2v-2.1992c-2.7439-2.4363-6.3306-3.8005-10-3.8008zm-7 9-2 10h3s0.91746-4.1516 1.25-6.25c0.2264-1.4286 1.05-1.75 1.75-1.75 1.25 0 1.0328 2.1648 0.84961 3.1992l-0.84961 4.8008h3s0.91746-4.1516 1.25-6.25c0.2264-1.4286 1.05-1.75 1.75-1.75 1.25 0 1.0328 2.1648 0.84961 3.1992l-0.84961 4.8008h3l0.83789-4.6992c0.65505-3.6738-0.83789-5.3008-3.3379-5.3008z" style="opacity:.1"/>
 <path d="m24 9c-8.2843 0-15 6.7157-15 15s6.7157 15 15 15c5 0 12-3 12-8 0-1.1046-0.89543-2-2-2-6 0-4 8-10 8-7.1797 0-13-5.8203-13-13s5.8203-13 13-13c2.5772 0 5.3454 0.4334 8 1.1777v2.8223h-2v2h2v2h2v-2h2v-2h-2v-2.1992c-2.7439-2.4363-6.3306-3.7998-10-3.8008zm-7 9-2 10h3s0.91746-4.1516 1.25-6.25c0.2264-1.4286 1.05-1.75 1.75-1.75 1.25 0 1.0328 2.1648 0.84961 3.1992l-0.84961 4.8008h3s0.91746-4.1516 1.25-6.25c0.2264-1.4286 1.05-1.75 1.75-1.75 1.25 0 1.0328 2.1648 0.84961 3.1992l-0.84961 4.8008h3l0.83789-4.6992c0.65505-3.6738-0.83789-5.3008-3.3379-5.3008-0.56965 0-1.0844 0.10826-1.5527 0.26758 0 0-0.74688-0.26758-1.5469-0.26758-0.61266 0-1.1969 0.15763-1.4453 0.22852-0.43154-0.15309-0.92015-0.22852-1.4551-0.22852-0.56965 0-1.0844 0.10826-1.5527 0.26758l0.052734-0.26758h-3z" style="fill:#f5e6ad"/>
</svg>
