<svg width="48" height="48" style="pointer-events:none" version="1.1" viewBox="0 0 424.61538 424.61538" xmlns="http://www.w3.org/2000/svg">
 <defs>
  <linearGradient id="linearGradient3764" x1="26.084" x2="72.084" y1="-288.76" y2="-288.76" gradientTransform="matrix(0 -1 1 0 288.76 73.084)" gradientUnits="userSpaceOnUse">
   <stop style="stop-color:#97b2d3" offset="0"/>
   <stop style="stop-color:#a5bcd9" offset="1"/>
  </linearGradient>
 </defs>
 <g transform="scale(8.8462)">
  <path d="m36.31 5c5.859 4.062 9.688 10.831 9.688 18.5 0 12.426-10.07 22.5-22.5 22.5-7.669 0-14.438-3.828-18.5-9.688 1.037 1.822 2.306 3.499 3.781 4.969 4.085 3.712 9.514 5.969 15.469 5.969 12.703 0 23-10.298 23-23 0-5.954-2.256-11.384-5.969-15.469-1.469-1.475-3.147-2.744-4.969-3.781zm4.969 3.781c3.854 4.113 6.219 9.637 6.219 15.719 0 12.703-10.297 23-23 23-6.081 0-11.606-2.364-15.719-6.219 4.16 4.144 9.883 6.719 16.219 6.719 12.703 0 23-10.298 23-23 0-6.335-2.575-12.06-6.719-16.219z" style="opacity:.05;stroke-linejoin:bevel"/>
  <path d="m41.28 8.781c3.712 4.085 5.969 9.514 5.969 15.469 0 12.703-10.297 23-23 23-5.954 0-11.384-2.256-15.469-5.969 4.113 3.854 9.637 6.219 15.719 6.219 12.703 0 23-10.298 23-23 0-6.081-2.364-11.606-6.219-15.719z" style="opacity:.1;stroke-linejoin:bevel"/>
  <path d="m31.25 2.375c8.615 3.154 14.75 11.417 14.75 21.13 0 12.426-10.07 22.5-22.5 22.5-9.708 0-17.971-6.135-21.12-14.75a23 23 0 0 0 44.875 -7 23 23 0 0 0 -16 -21.875z" style="opacity:.2;stroke-linejoin:bevel"/>
 </g>
 <g transform="scale(8.8462)">
  <path d="m24 1c12.703 0 23 10.297 23 23s-10.297 23-23 23-23-10.297-23-23 10.297-23 23-23z" style="fill:url(#linearGradient3764);stroke-linejoin:bevel"/>
 </g>
 <g transform="scale(8.8462)">
  <path d="m40.03 7.531c3.712 4.084 5.969 9.514 5.969 15.469 0 12.703-10.297 23-23 23-5.954 0-11.384-2.256-15.469-5.969 4.178 4.291 10.01 6.969 16.469 6.969 12.703 0 23-10.298 23-23 0-6.462-2.677-12.291-6.969-16.469z" style="opacity:.1;stroke-linejoin:bevel"/>
 </g>
 <path d="m168.09 163.63h35.38l-17.695 30.962m17.7-92.88h35.38l-17.695 30.962m17.69 30.958h35.38l-17.695 30.961m17.69 30.959h35.38l-17.695 30.962m17.69 30.958h35.38l-17.695 30.962m-88.46-30.952h35.38l-17.695 30.962m-88.46-30.952h35.38l-17.695 30.962m-88.46-30.952h35.38l-17.695 30.962m17.7-92.88h35.38l-17.695 30.962m35.395-123.84 70.77-6e-3 -35.39 61.923m35.38 61.917 70.77-6e-3 -35.39 61.923m-176.92-61.905 70.77-6e-3 -35.39 61.923m0.011-123.84 141.54-0.012-70.78 123.85m0.021-247.68-141.56 247.69 283.08-0.025" style="opacity:.1;stroke-linejoin:bevel"/>
 <path d="m159.24 154.78h35.38l-17.695 30.962m17.7-92.88h35.38l-17.695 30.962m17.69 30.958h35.38l-17.695 30.961m17.69 30.959h35.38l-17.695 30.962m17.69 30.958h35.38l-17.695 30.962m-88.46-30.952h35.38l-17.695 30.962m-88.46-30.952h35.38l-17.695 30.962m-88.46-30.952h35.38l-17.695 30.962m17.7-92.88h35.38l-17.695 30.962m35.395-123.84 70.77-6e-3 -35.39 61.923m35.38 61.917 70.77-6e-3 -35.39 61.923m-176.92-61.905 70.77-6e-3 -35.39 61.923m0.011-123.84 141.54-0.012-70.78 123.85m0.021-247.68-141.56 247.69 283.08-0.025" style="fill:#eee;stroke-linejoin:bevel"/>
</svg>
