<svg version="1.1" viewBox="0 0 48 48" xmlns="http://www.w3.org/2000/svg">
 <defs>
  <linearGradient id="bg" x2="0" y1="1" y2="47" gradientUnits="userSpaceOnUse">
   <stop style="stop-color:#534e5a" offset="0"/>
   <stop style="stop-color:#48444e" offset="1"/>
  </linearGradient>
 </defs>
 <path d="m36.31 5c5.859 4.062 9.688 10.831 9.688 18.5 0 12.426-10.07 22.5-22.5 22.5-7.669 0-14.438-3.828-18.5-9.688 1.037 1.822 2.306 3.499 3.781 4.969 4.085 3.712 9.514 5.969 15.469 5.969 12.703 0 23-10.298 23-23 0-5.954-2.256-11.384-5.969-15.469-1.469-1.475-3.147-2.744-4.969-3.781zm4.969 3.781c3.854 4.113 6.219 9.637 6.219 15.719 0 12.703-10.297 23-23 23-6.081 0-11.606-2.364-15.719-6.219 4.16 4.144 9.883 6.719 16.219 6.719 12.703 0 23-10.298 23-23 0-6.335-2.575-12.06-6.719-16.219z" style="opacity:.05"/>
 <path d="m41.28 8.781c3.712 4.085 5.969 9.514 5.969 15.469 0 12.703-10.297 23-23 23-5.954 0-11.384-2.256-15.469-5.969 4.113 3.854 9.637 6.219 15.719 6.219 12.703 0 23-10.298 23-23 0-6.081-2.364-11.606-6.219-15.719z" style="opacity:.1"/>
 <path d="m31.25 2.375c8.615 3.154 14.75 11.417 14.75 21.13 0 12.426-10.07 22.5-22.5 22.5-9.708 0-17.971-6.135-21.12-14.75a23 23 0 0 0 44.875-7 23 23 0 0 0-16-21.875z" style="opacity:.2"/>
 <circle cx="24" cy="24" r="23" style="fill:url(#bg)"/>
 <path d="m40.03 7.531c3.712 4.084 5.969 9.514 5.969 15.469 0 12.703-10.297 23-23 23-5.954 0-11.384-2.256-15.469-5.969 4.178 4.291 10.01 6.969 16.469 6.969 12.703 0 23-10.298 23-23 0-6.462-2.677-12.291-6.969-16.469z" style="opacity:.1"/>
 <path d="m19 12v1h-1v1h1v1h-1v1h1v1h-2v1h2v1h1v-1h1v-1h-1v-1h1v-1h-1v-1h2v-1h-2v-1zm2 4v1h1v-1zm-3-1v-1h-1v1zm7-3v1h-1v1h1v4h-1v1h3v-1h-1v-6zm6 0v1h-1v1h1v2h-2v-1h-1v2h3v2h1v-2h1v-1h-1v-4zm-2 3h1v-1h-1zm9 6-4 3-4-2-6 4-6-2-6 3v7h2v-6l2-1v7h2v-8l2 0.66602v7.334h2v-6.666l2 0.66602v6h2v-7.334l2-1.332v8.666h2v-10l2 1v9h2v-8l2-1.5v9.5h2v-13z" style="opacity:.1"/>
 <path d="m37 22-2 0.5v10.5h2zm-8 0-2 1.334v9.666h2zm2 1v10h2v-9zm-14 1-2 1v8h2zm2 0.66602v8.334h2v-7.666zm6 0-2 1.334v7h2zm-12 1.334-2 2v5h2z" style="fill:#4bd689"/>
 <path d="m37 22-2 1.1992v2.0508l2-1.5zm-8 0.66602-2 1.334v2l2-1.334zm2 0.33398v1.5l2 1v-1.5zm-14 1.5-2 1v2l2-1zm2 0.16602v1.668l2 0.66602v-1.666zm6 0.66797-1 0.66602-0.66602-0.22266-0.33398 0.22266v1.666l1 0.33398 1-0.66602zm-12 1.166-2 1.5v1.5l2-1z" style="color-rendering:auto;color:#000000;dominant-baseline:auto;font-feature-settings:normal;font-variant-alternates:normal;font-variant-caps:normal;font-variant-east-asian:normal;font-variant-ligatures:normal;font-variant-numeric:normal;font-variant-position:normal;font-variation-settings:normal;image-rendering:auto;inline-size:0;isolation:auto;mix-blend-mode:normal;opacity:.1;shape-margin:0;shape-padding:0;shape-rendering:auto;solid-color:#000000;stop-color:#000000;text-decoration-color:#000000;text-decoration-line:none;text-decoration-style:solid;text-indent:0;text-orientation:mixed;text-transform:none;white-space:normal"/>
 <path d="m37 19-4 3-4-2-6 4-6-2-6 3v3l6-3 6 2 6-4 4 2 4-3z" style="color-rendering:auto;color:#000000;dominant-baseline:auto;fill:#ef4d54;font-feature-settings:normal;font-variant-alternates:normal;font-variant-caps:normal;font-variant-east-asian:normal;font-variant-ligatures:normal;font-variant-numeric:normal;font-variant-position:normal;font-variation-settings:normal;image-rendering:auto;inline-size:0;isolation:auto;mix-blend-mode:normal;shape-margin:0;shape-padding:0;shape-rendering:auto;solid-color:#000000;stop-color:#000000;text-decoration-color:#000000;text-decoration-line:none;text-decoration-style:solid;text-indent:0;text-orientation:mixed;text-transform:none;white-space:normal"/>
 <path d="m18 11v1h-1v1h1v1h-1v1h1v1h-2v1h2v1h1v-1h1v-1h-1v-1h1v-1h-1v-1h2v-1h-2v-1zm2 4v1h1v-1zm-3-1v-1h-1v1zm7-3v1h-1v1h1v4h-1v1h3v-1h-1v-6zm6 0v1h-1v1h1v2h-2v-1h-1v2h3v2h1v-2h1v-1h-1v-4zm-2 3h1v-1h-1z" style="fill:#f9f06b"/>
</svg>
