<svg version="1.1" viewBox="0 0 48 48" xmlns="http://www.w3.org/2000/svg">
 <defs>
  <linearGradient id="linearGradient3958" x2="0" y1="47" y2="1" gradientUnits="userSpaceOnUse">
   <stop style="stop-color:#0b2e6a" offset="0"/>
   <stop style="stop-color:#0d357b" offset="1"/>
  </linearGradient>
 </defs>
 <path d="m36.31 5c5.859 4.062 9.688 10.831 9.688 18.5 0 12.426-10.07 22.5-22.5 22.5-7.669 0-14.438-3.828-18.5-9.688 1.037 1.822 2.306 3.499 3.781 4.969 4.085 3.712 9.514 5.969 15.469 5.969 12.703 0 23-10.298 23-23 0-5.954-2.256-11.384-5.969-15.469-1.469-1.475-3.147-2.744-4.969-3.781zm4.969 3.781c3.854 4.113 6.219 9.637 6.219 15.719 0 12.703-10.297 23-23 23-6.081 0-11.606-2.364-15.719-6.219 4.16 4.144 9.883 6.719 16.219 6.719 12.703 0 23-10.298 23-23 0-6.335-2.575-12.06-6.719-16.219z" style="opacity:.05"/>
 <path d="m41.28 8.781c3.712 4.085 5.969 9.514 5.969 15.469 0 12.703-10.297 23-23 23-5.954 0-11.384-2.256-15.469-5.969 4.113 3.854 9.637 6.219 15.719 6.219 12.703 0 23-10.298 23-23 0-6.081-2.364-11.606-6.219-15.719z" style="opacity:.1"/>
 <path d="m31.25 2.375c8.615 3.154 14.75 11.417 14.75 21.13 0 12.426-10.07 22.5-22.5 22.5-9.708 0-17.971-6.135-21.12-14.75a23 23 0 0 0 44.875-7 23 23 0 0 0-16-21.875z" style="opacity:.2"/>
 <path d="m24 1c12.703 0 23 10.297 23 23s-10.297 23-23 23-23-10.297-23-23 10.297-23 23-23z" style="fill:url(#linearGradient3958)"/>
 <path d="m40.03 7.531c3.712 4.084 5.969 9.514 5.969 15.469 0 12.703-10.297 23-23 23-5.954 0-11.384-2.256-15.469-5.969 4.178 4.291 10.01 6.969 16.469 6.969 12.703 0 23-10.298 23-23 0-6.462-2.677-12.291-6.969-16.469z" style="opacity:.1"/>
 <g transform="matrix(.99975 0 0 1 .0012772 0)">
  <path d="m14.061 14c-0.58674 0-1.0589 0.472-1.0589 1.0586v15.883c0 0.586 0.472 1.058 1.059 1.058h8.129l-1.5102 2.0293-0.24811-0.17383s-0.92363 1.3183-1.3636 1.9453c-0.199 0.284-0.13062 0.67309 0.15238 0.87109l1.0257 0.7168c0.284 0.199 0.67036 0.1297 0.86936-0.1543 0.416-0.594 1.3636-1.9453 1.3636-1.9453l-0.25202-0.17578 1.7798-2.3926v2.2793h-0.25202v2.375c0 0.346 0.27916 0.625 0.62516 0.625h1.2503c0.346 0 0.62516-0.279 0.62516-0.625v-2.375h-0.24811v-2.2793l1.7758 2.3906-0.25202 0.17773s0.94568 1.3513 1.3617 1.9453c0.199 0.284 0.58732 0.3533 0.87131 0.1543l1.0237-0.7168c0.283-0.198 0.35334-0.58709 0.15434-0.87109-0.44-0.627-1.3636-1.9453-1.3636-1.9453l-0.25 0.173-1.51-2.029h8.129c0.58674 0 1.0589-0.472 1.0589-1.0586v-15.883c0-0.586-0.472-1.058-1.059-1.058h-21.888z" style="opacity:.1"/>
  <path transform="matrix(1.0003 0 0 1 -.0012775 0)" d="m13.059 13c-0.58658 0-1.0586 0.47202-1.0586 1.0586v15.883c0 0.58658 0.47202 1.0586 1.0586 1.0586h8.1309l-1.5117 2.0312-0.25-0.17578s-0.92339 1.3183-1.3633 1.9453c-0.19895 0.284-0.13058 0.67309 0.15234 0.87109l1.0254 0.7168c0.28393 0.199 0.67019 0.1297 0.86914-0.1543 0.4159-0.594 1.3633-1.9453 1.3633-1.9453l-0.25-0.17578 1.7773-2.3926v2.2793h-0.25195v2.375c0 0.346 0.27909 0.625 0.625 0.625h1.25c0.34591 0 0.625-0.279 0.625-0.625v-2.375h-0.24805v-2.2793l1.7754 2.3906-0.25195 0.17773s0.94543 1.3513 1.3613 1.9453c0.19895 0.284 0.58716 0.3533 0.87109 0.1543l1.0234-0.7168c0.28293-0.198 0.35325-0.58709 0.1543-0.87109-0.43989-0.627-1.3633-1.9453-1.3633-1.9453l-0.24609 0.17188-1.5078-2.0273h8.123c0.58658 0 1.0586-0.47202 1.0586-1.0586v-15.883c0-0.58658-0.47202-1.0586-1.0586-1.0586h-21.883z" style="fill:#f9f9f9"/>
 </g>
 <path d="m13.5 14c-0.277 0-0.5 0.223-0.5 0.5v15c0 0.277 0.223 0.5 0.5 0.5h21c0.277 0 0.5-0.223 0.5-0.5v-15c0-0.277-0.223-0.5-0.5-0.5h-21zm8.5 4v5.5l5-5.5v8h-2v-3l-2.5 3h-2.5v-3l-3 3h-3l8-8zm9 0h2v8l-4.5-5h2.5v-3z" style="fill:#068ad2"/>
</svg>
