<svg version="1.1" viewBox="0 0 48 48" xmlns="http://www.w3.org/2000/svg">
 <defs>
  <linearGradient id="bg" x1="1" x2="47" gradientTransform="matrix(0 -1 1 0 0 48)" gradientUnits="userSpaceOnUse">
   <stop style="stop-color:#a4c5d4" offset="0"/>
   <stop style="stop-color:#b2cedb" offset="1"/>
  </linearGradient>
 </defs>
 <path d="m36.3 5c5.86 4.06 9.69 10.8 9.69 18.5 0 12.4-10.1 22.5-22.5 22.5-7.67 0-14.4-3.83-18.5-9.69 1.04 1.82 2.31 3.5 3.78 4.97 4.08 3.71 9.51 5.97 15.5 5.97 12.7 0 23-10.3 23-23 0-5.95-2.26-11.4-5.97-15.5-1.47-1.48-3.15-2.74-4.97-3.78zm4.97 3.78c3.85 4.11 6.22 9.64 6.22 15.7 0 12.7-10.3 23-23 23-6.08 0-11.6-2.36-15.7-6.22 4.16 4.14 9.88 6.72 16.2 6.72 12.7 0 23-10.3 23-23 0-6.34-2.58-12.1-6.72-16.2z" style="opacity:.05"/>
 <path d="m41.3 8.78c3.71 4.08 5.97 9.51 5.97 15.5 0 12.7-10.3 23-23 23-5.95 0-11.4-2.26-15.5-5.97 4.11 3.85 9.64 6.22 15.7 6.22 12.7 0 23-10.3 23-23 0-6.08-2.36-11.6-6.22-15.7z" style="opacity:.1"/>
 <path d="m31.2 2.38c8.62 3.15 14.8 11.4 14.8 21.1 0 12.4-10.1 22.5-22.5 22.5-9.71 0-18-6.14-21.1-14.8a23 23 0 0 0 44.9-7 23 23 0 0 0-16-21.9z" style="opacity:.2"/>
 <path d="m24 1c12.7 0 23 10.3 23 23s-10.3 23-23 23-23-10.3-23-23 10.3-23 23-23z" style="fill:url(#bg)"/>
 <path d="m24 12v9h-3.88v-0.063c0-1.15-1.34-2.11-3.13-2.37v-4.57h-0.99l-4 14-0.02 1h3v7h2v-7h7l-3.07 3.31c0 1.14 1.31 2.09 3.07 2.36v3.33h2v-3.34c1.76-0.27 3.06-1.22 3.06-2.35 0-1.14-1.31-2.08-3.06-2.35v-0.957h6.99v7h2v-7h3.01v-8.06c0-1.12-1.28-2.06-3.01-2.34v-4.59h-2l0.028 7-7.03-2e-3v-9h-2z" style="opacity:.1"/>
 <path d="m11 20v8h26v-8" style="fill:#555"/>
 <path d="m13.3 21c-0.73 0-1.33 0.598-1.33 1.33v3.34c0 0.734 0.598 1.33 1.33 1.33h3.34c0.734 0 1.33-0.594 1.33-1.33v-3.34c0-0.73-0.594-1.33-1.33-1.33h-3.34zm9 0c-0.73 0-1.33 0.598-1.33 1.33v3.34c0 0.734 0.598 1.33 1.33 1.33h3.34c0.734 0 1.33-0.594 1.33-1.33v-3.34c0-0.73-0.594-1.33-1.33-1.33h-3.34zm9 0c-0.722 0-1.32 0.598-1.32 1.33v3.34c0 0.734 0.593 1.33 1.32 1.33h3.35c0.726 0 1.33-0.594 1.33-1.33v-3.34c0-0.73-0.601-1.33-1.33-1.33h-3.35z" style="fill:#f9f9f9"/>
 <path d="m23 11v17.9c-1.76 0.267-3.07 1.23-3.07 2.36 0 1.14 1.31 2.1 3.07 2.36v3.33h2v-3.33c1.76-0.269 3.06-1.23 3.06-2.36s-1.3-2.09-3.06-2.36v-17.9h-2zm-9 2v4.59c-1.73 0.282-3 1.23-3 2.35s1.27 2.07 3 2.35v12.7h2v-12.7c1.79-0.254 3.13-1.22 3.13-2.37s-1.34-2.12-3.13-2.37v-4.56h-2zm18 0v4.57c-1.79 0.256-3.12 1.22-3.12 2.37s1.33 2.11 3.12 2.37v12.7h2v-12.7c1.73-0.28 3.01-1.23 3.01-2.35s-1.28-2.07-3.01-2.35v-4.58h-2z" style="fill:#ff4343"/>
 <path d="m40 7.53c3.71 4.08 5.97 9.51 5.97 15.5 0 12.7-10.3 23-23 23-5.95 0-11.4-2.26-15.5-5.97 4.18 4.29 10 6.97 16.5 6.97 12.7 0 23-10.3 23-23 0-6.46-2.68-12.3-6.97-16.5z" style="opacity:.1"/>
</svg>
