<svg version="1.1" viewBox="0 0 48 48" xmlns="http://www.w3.org/2000/svg">
 <defs>
  <linearGradient id="bg" x2="0" y1="47" y2="1" gradientUnits="userSpaceOnUse">
   <stop style="stop-color:#ccd6dc" offset="0"/>
   <stop style="stop-color:#d8e0e4" offset="1"/>
  </linearGradient>
 </defs>
 <path d="m36.31 5c5.859 4.062 9.688 10.831 9.688 18.5 0 12.426-10.07 22.5-22.5 22.5-7.669 0-14.438-3.828-18.5-9.688 1.037 1.822 2.306 3.499 3.781 4.969 4.085 3.712 9.514 5.969 15.469 5.969 12.703 0 23-10.298 23-23 0-5.954-2.256-11.384-5.969-15.469-1.469-1.475-3.147-2.744-4.969-3.781zm4.969 3.781c3.854 4.113 6.219 9.637 6.219 15.719 0 12.703-10.297 23-23 23-6.081 0-11.606-2.364-15.719-6.219 4.16 4.144 9.883 6.719 16.219 6.719 12.703 0 23-10.298 23-23 0-6.335-2.575-12.06-6.719-16.219z" style="opacity:.05"/>
 <path d="m41.28 8.781c3.712 4.085 5.969 9.514 5.969 15.469 0 12.703-10.297 23-23 23-5.954 0-11.384-2.256-15.469-5.969 4.113 3.854 9.637 6.219 15.719 6.219 12.703 0 23-10.298 23-23 0-6.081-2.364-11.606-6.219-15.719z" style="opacity:.1"/>
 <path d="m31.25 2.375c8.615 3.154 14.75 11.417 14.75 21.13 0 12.426-10.07 22.5-22.5 22.5-9.708 0-17.971-6.135-21.12-14.75a23 23 0 0 0 44.875-7 23 23 0 0 0-16-21.875z" style="opacity:.2"/>
 <path d="m24 1c12.703 0 23 10.297 23 23s-10.297 23-23 23-23-10.297-23-23 10.297-23 23-23z" style="fill:url(#bg)"/>
 <path d="m40.03 7.531c3.712 4.084 5.969 9.514 5.969 15.469 0 12.703-10.297 23-23 23-5.954 0-11.384-2.256-15.469-5.969 4.178 4.291 10.01 6.969 16.469 6.969 12.703 0 23-10.298 23-23 0-6.462-2.677-12.291-6.969-16.469z" style="opacity:.1"/>
 <path d="m17.01 14-5.01 8.717v9.229c0 1.119 0.909 2.051 2 2.051h22c1.091 0 2-0.932 2-2.051v-9.229c0-0.806-0.268-1.585-0.621-2.456s-0.816-1.794-1.297-2.654-0.978-1.651-1.41-2.257c-0.216-0.303-0.413-0.558-0.609-0.771-0.389-0.363-0.655-0.551-0.994-0.577-0.4-0.028-0.741 0.2-0.896 0.369-0.313 0.336-0.398 0.814-0.518 1.19-0.128 0.532-0.239 1.168-0.369 1.789-0.35 1.86-0.355 1.876-0.984-0.162-0.236-0.642-0.463-1.299-0.727-1.859-0.132-0.28-0.265-0.537-0.482-0.793s-0.65-0.61-1.232-0.525c-0.549 0.08-0.81 0.41-0.996 0.663s-0.317 0.515-0.445 0.799c-0.257 0.567-0.486 1.226-0.721 1.855-0.679 1.874-0.675 1.87-1.434-0.172-0.241-0.621-0.472-1.255-0.727-1.795-0.127-0.27-0.254-0.516-0.443-0.759s-0.498-0.601-1.094-0.601c-0.611 0-0.92 0.375-1.105 0.625-0.185 0.249-0.307 0.5-0.43 0.775-0.246 0.55-0.469 1.194-0.703 1.821-0.637 1.835-0.644 1.886-1.023 0.174-0.119-0.62-0.22-1.262-0.352-1.811-0.066-0.274-0.131-0.521-0.262-0.791-0.065-0.135-0.144-0.283-0.307-0.445s-0.465-0.345-0.809-0.349" style="color:#000000;fill-opacity:.098;"/>
 <path d="m16.01 13c-0.489-0.012-0.83 0.284-1.08 0.539-0.218 0.22-0.426 0.477-0.648 0.783-0.445 0.613-0.938 1.41-1.412 2.275s-0.926 1.794-1.27 2.668c-0.343 0.874-0.6 1.656-0.6 2.452v9.229c0 1.119 0.909 2.051 2 2.051h22c1.091 0 2-0.932 2-2.051v-9.229c0-0.806-0.268-1.585-0.621-2.456s-0.816-1.794-1.297-2.654-0.978-1.651-1.41-2.257c-0.216-0.303-0.413-0.558-0.609-0.771-0.389-0.363-0.655-0.551-0.994-0.577-0.4-0.028-0.741 0.2-0.896 0.369-0.313 0.336-0.398 0.814-0.518 1.19-0.128 0.532-0.239 1.168-0.369 1.789-0.35 1.86-0.355 1.876-0.984-0.162-0.236-0.642-0.463-1.299-0.727-1.859-0.132-0.28-0.265-0.537-0.482-0.793s-0.65-0.61-1.232-0.525c-0.549 0.08-0.81 0.41-0.996 0.663s-0.317 0.515-0.445 0.799c-0.257 0.567-0.486 1.226-0.721 1.855-0.679 1.874-0.675 1.87-1.434-0.172-0.241-0.621-0.472-1.255-0.727-1.795-0.127-0.27-0.254-0.516-0.443-0.759s-0.498-0.601-1.094-0.601c-0.611 0-0.92 0.375-1.105 0.625-0.185 0.249-0.307 0.5-0.43 0.775-0.246 0.55-0.469 1.194-0.703 1.821-0.637 1.835-0.644 1.886-1.023 0.174-0.119-0.62-0.22-1.262-0.352-1.811-0.066-0.274-0.131-0.521-0.262-0.791-0.065-0.135-0.144-0.283-0.307-0.445s-0.465-0.345-0.809-0.349" style="fill:#505050"/>
 <path d="m16 14.25c-1-7e-3 -4 6-4 8v8.75c0 0.554 0.446 1 1 1h22c0.554 0 1-0.446 1-1v-8.75c0-2-3-7.992-4-8-0.572-4e-3 -0.73 5.228-2 5.25s-2.091-5.38-3-5.25-1.741 5.393-3 5.25-2.18-5.25-3-5.25-1.659 5.25-3 5.25-1.307-5.245-2-5.25z" style="fill:#cfcfcf"/>
 <path d="m35 25.5c0 5.5 0 5.5-11 5.5s-11 0-11-5.5 3-5.5 11-5.5 11 0 11 5.5z" style="fill:#ececec"/>
 <path d="m16 22c-0.516 0-1 0.438-1 1 0 1.933 0 4 3.5 4s3.5-2.067 3.5-4c0-0.598-0.479-1-1-1h-5zm11 0c-0.516 0-1 0.438-1 1 0 1.933 0 4 3.5 4s3.5-2.067 3.5-4c0-0.598-0.479-1-1-1h-5zm-10 1h1v1.25c-1e-3 0.676 1.01 0.676 1 0v-1.25h1c1 0 1 0 1 1 0 0.431 0.217 2-2.5 2s-2.5-1.547-2.5-2c0-1 0-1 1-1zm11 0h1v1.25c-1e-3 0.676 1.01 0.676 1 0v-1.25h1c1 0 1 0 1 1 0 0.431 0.217 2-2.5 2s-2.5-1.547-2.5-2c0-1 0-1 1-1zm-4.7461 3.0098c-0.672-9e-3 -0.672 1.0001 0 0.99414h1.4922c0.672 9e-3 0.672-1.0001 0-0.99414h-1.4922zm-3.7539 2.9902c-0.277 0-0.5 0.223-0.5 0.5s0.223 0.5 0.5 0.5h9c0.277 0 0.5-0.223 0.5-0.5s-0.223-0.5-0.5-0.5h-9z" style="fill:#505050"/>
</svg>
