<svg version="1.1" viewBox="0 0 48 48" xmlns="http://www.w3.org/2000/svg">
 <defs>
  <linearGradient id="bg" x2="0" y1="1" y2="47" gradientUnits="userSpaceOnUse">
   <stop style="stop-color:#3d3d3d" offset="0"/>
   <stop style="stop-color:#333" offset="1"/>
  </linearGradient>
 </defs>
 <path d="m36.31 5c5.859 4.062 9.688 10.831 9.688 18.5 0 12.426-10.07 22.5-22.5 22.5-7.669 0-14.438-3.828-18.5-9.688 1.037 1.822 2.306 3.499 3.781 4.969 4.085 3.712 9.514 5.969 15.469 5.969 12.703 0 23-10.298 23-23 0-5.954-2.256-11.384-5.969-15.469-1.469-1.475-3.147-2.744-4.969-3.781zm4.969 3.781c3.854 4.113 6.219 9.637 6.219 15.719 0 12.703-10.297 23-23 23-6.081 0-11.606-2.364-15.719-6.219 4.16 4.144 9.883 6.719 16.219 6.719 12.703 0 23-10.298 23-23 0-6.335-2.575-12.06-6.719-16.219z" style="opacity:.05"/>
 <path d="m41.28 8.781c3.712 4.085 5.969 9.514 5.969 15.469 0 12.703-10.297 23-23 23-5.954 0-11.384-2.256-15.469-5.969 4.113 3.854 9.637 6.219 15.719 6.219 12.703 0 23-10.298 23-23 0-6.081-2.364-11.606-6.219-15.719z" style="opacity:.1"/>
 <path d="m31.25 2.375c8.615 3.154 14.75 11.417 14.75 21.13 0 12.426-10.07 22.5-22.5 22.5-9.708 0-17.971-6.135-21.12-14.75a23 23 0 0 0 44.875-7 23 23 0 0 0-16-21.875z" style="opacity:.2"/>
 <circle cx="24" cy="24" r="23" style="fill:url(#bg)"/>
 <path d="m40.03 7.531c3.712 4.084 5.969 9.514 5.969 15.469 0 12.703-10.297 23-23 23-5.954 0-11.384-2.256-15.469-5.969 4.178 4.291 10.01 6.969 16.469 6.969 12.703 0 23-10.298 23-23 0-6.462-2.677-12.291-6.969-16.469z" style="opacity:.1"/>
 <path d="m26 12s-12 3-12 15c0 5 5 9 10 9s10-4 10-10c0-7-5-8-8-11-1-1 0-3 0-3z" style="opacity:.1"/>
 <path d="m30 18-15.828 12.059c1.7683 2.9379 5.2937 4.9414 8.8281 4.9414 5 0 10-4 10-10 0-3.3397-1.1168-5.1556-2.6328-6.6326z" style="fill:#64f300"/>
 <path d="m27.99 16.34-14.543 5.8633c-0.28241 1.1537-0.44727 2.4129-0.44727 3.7969 0 1.4656 0.43864 2.8404 1.1719 4.0586 0.48547 0.1907 6.8255 2.6098 10.828-0.05859 6-4 5-12 5-12-0.22732-0.4108-1.4918-1.2856-2.0098-1.6602z" style="fill:#14d6d9"/>
 <path d="m25 11s-9.3818 2.352-11.551 11.197c0.6926 0.29012 2.1092 0.80273 3.5508 0.80273 7.9624 0 10.523-5.3968 10.99-6.6602-1.0229-0.71905-2.131-1.4806-2.9902-2.3398-1-1 0-3 0-3z" style="fill:#fd6035"/>
</svg>
