<svg xmlns="http://www.w3.org/2000/svg" version="1.1" viewBox="0 0 48 48">
 <defs>
  <linearGradient id="linearGradient3121" gradientUnits="userSpaceOnUse" x2="45" x1="3" gradientTransform="matrix(0 -1 1 0 -.0000015 48)">
   <stop style="stop-color:#ffab3d" offset="0"/>
   <stop style="stop-color:#ffb24f" offset="1"/>
  </linearGradient>
  <linearGradient id="linearGradient4151" y1="47" x2="0" y2="1" gradientUnits="userSpaceOnUse">
   <stop style="stop-color:#709ddd" offset="0"/>
   <stop style="stop-color:#7fa8e1" offset="1"/>
  </linearGradient>
 </defs>
 <path style="opacity:.05" d="m36.31 5c5.859 4.062 9.688 10.831 9.688 18.5 0 12.426-10.07 22.5-22.5 22.5-7.669 0-14.438-3.828-18.5-9.688 1.037 1.822 2.306 3.499 3.781 4.969 4.085 3.712 9.514 5.969 15.469 5.969 12.703 0 23-10.298 23-23 0-5.954-2.256-11.384-5.969-15.469-1.469-1.475-3.147-2.744-4.969-3.781zm4.969 3.781c3.854 4.113 6.219 9.637 6.219 15.719 0 12.703-10.297 23-23 23-6.081 0-11.606-2.364-15.719-6.219 4.16 4.144 9.883 6.719 16.219 6.719 12.703 0 23-10.298 23-23 0-6.335-2.575-12.06-6.719-16.219z"/>
 <path style="opacity:.1" d="m41.28 8.781c3.712 4.085 5.969 9.514 5.969 15.469 0 12.703-10.297 23-23 23-5.954 0-11.384-2.256-15.469-5.969 4.113 3.854 9.637 6.219 15.719 6.219 12.703 0 23-10.298 23-23 0-6.081-2.364-11.606-6.219-15.719z"/>
 <path style="opacity:.2" d="m31.25 2.375c8.615 3.154 14.75 11.417 14.75 21.13 0 12.426-10.07 22.5-22.5 22.5-9.708 0-17.971-6.135-21.12-14.75a23 23 0 0 0 44.875 -7 23 23 0 0 0 -16 -21.875z"/>
 <path style="fill:url(#linearGradient3121)" d="m24 3c-18 0-19 16-22.313 15.375-0.452 1.8-0.688 3.685-0.688 5.625 0 7.558 3.652 14.276 9.281 18.469 6.218 2.785 9.411 2.427 13.719 2.531 18 0 20.685-17 22.31-15.378 0.452-1.8 0.692-3.68 0.692-5.62 0-7.558-3.652-14.278-9.281-18.471-4.721-2.531-9.408-2.404-13.721-2.531"/>
 <path style="opacity:.1;fill-rule:evenodd" d="m2.594 18.438c0.001 0.01-0.001 0.021 0 0.031 0.362 5.653 2.857 11.202 8.5 15.719 6.16 4.926 14.773 1.441 17.25-2.875 1.617-3.488-1.629-5.858-3.344-6.313 0.574 1.25 1.477 4.609-0.969 5.344-5.684 0.773-9.953-3.01-10.531-8.313-0.977-8.957 7.914-15.879 16.281-16.594 3.165-0.272 6.318 0.19 9.313 1.219-0.448-0.391-0.898-0.77-1.375-1.125-0.01-0.003-0.022 0.003-0.031 0-1.397-0.454-2.831-0.778-4.281-0.969-2.947-1.491-6.284-2.313-9.813-2.313-9.647 0.4866-18.932 9.038-21 16.189zm22.406 6.562c-0.574-1.254-1.255-4.57 1.188-5.313 5.684-0.773 9.734 2.977 10.313 8.281l9.809 1.654c0.177-0.705 0.301-1.424 0.41-2.153-1.096-4.211-3.529-8.231-7.813-11.656-6.16-4.93-14.773-1.441-17.25 2.875-1.613 3.492 1.629 5.863 3.344 6.313z"/>
 <path style="fill:url(#linearGradient4151);fill-rule:evenodd" d="m24 1c-10.763 0-19.803 7.391-22.313 17.375 0.561 5.336 3.066 10.538 8.406 14.813 6.16 4.926 14.773 1.441 17.25-2.875 1.617-3.488-1.629-5.858-3.344-6.313 0.574 1.25 1.477 4.609-0.969 5.344-5.684 0.773-9.953-3.01-10.531-8.313-0.977-8.957 7.914-15.879 16.281-16.594 3.034-0.261 6.05 0.153 8.938 1.094-3.831-2.854-8.574-4.531-13.719-4.531zm0 23c-0.574-1.254-1.255-4.57 1.188-5.313 5.684-0.773 9.734 2.977 10.313 8.281 0.977 8.957-7.91 15.875-16.281 16.594-3.034 0.259-6.06-0.152-8.938-1.094 3.831 2.854 8.574 4.531 13.719 4.531 10.763 0 19.803-7.391 22.313-17.375-0.559-5.336-3.066-10.542-8.406-14.813-6.16-4.93-14.773-1.441-17.25 2.875-1.613 3.492 1.629 5.863 3.344 6.313z"/>
 <path style="opacity:.1" d="m40.03 7.531c3.712 4.084 5.969 9.514 5.969 15.469 0 12.703-10.297 23-23 23-5.954 0-11.384-2.256-15.469-5.969 4.178 4.291 10.01 6.969 16.469 6.969 12.703 0 23-10.298 23-23 0-6.462-2.677-12.291-6.969-16.469z"/>
</svg>
