<svg version="1.1" viewBox="0 0 48 48" xmlns="http://www.w3.org/2000/svg">
 <defs>
  <linearGradient id="bg" x2="0" y1="1" y2="47" gradientUnits="userSpaceOnUse">
   <stop style="stop-color:#4a5064" offset="0"/>
   <stop style="stop-color:#414758" offset="1"/>
  </linearGradient>
 </defs>
 <path d="m36.31 5c5.859 4.062 9.688 10.831 9.688 18.5 0 12.426-10.07 22.5-22.5 22.5-7.669 0-14.438-3.828-18.5-9.688 1.037 1.822 2.306 3.499 3.781 4.969 4.085 3.712 9.514 5.969 15.469 5.969 12.703 0 23-10.298 23-23 0-5.954-2.256-11.384-5.969-15.469-1.469-1.475-3.147-2.744-4.969-3.781zm4.969 3.781c3.854 4.113 6.219 9.637 6.219 15.719 0 12.703-10.297 23-23 23-6.081 0-11.606-2.364-15.719-6.219 4.16 4.144 9.883 6.719 16.219 6.719 12.703 0 23-10.298 23-23 0-6.335-2.575-12.06-6.719-16.219z" style="opacity:.05"/>
 <path d="m41.28 8.781c3.712 4.085 5.969 9.514 5.969 15.469 0 12.703-10.297 23-23 23-5.954 0-11.384-2.256-15.469-5.969 4.113 3.854 9.637 6.219 15.719 6.219 12.703 0 23-10.298 23-23 0-6.081-2.364-11.606-6.219-15.719z" style="opacity:.1"/>
 <path d="m31.25 2.375c8.615 3.154 14.75 11.417 14.75 21.13 0 12.426-10.07 22.5-22.5 22.5-9.708 0-17.971-6.135-21.12-14.75a23 23 0 0 0 44.875-7 23 23 0 0 0-16-21.875z" style="opacity:.2"/>
 <circle cx="24" cy="24" r="23" style="fill:url(#bg)"/>
 <path d="m40.03 7.531c3.712 4.084 5.969 9.514 5.969 15.469 0 12.703-10.297 23-23 23-5.954 0-11.384-2.256-15.469-5.969 4.178 4.291 10.01 6.969 16.469 6.969 12.703 0 23-10.298 23-23 0-6.462-2.677-12.291-6.969-16.469z" style="opacity:.1"/>
 <path d="m34 12-20 12c0 1.1046 0.89543 2 2 2s2-0.89543 2-2c-3.62e-4 -0.04628-0.0023-0.09253-0.0059-0.13867l6.1328-4.0664c0.27175 0.13357 0.57029 0.20369 0.87309 0.20508 1.024-0.0016 1.8813-0.77635 1.9863-1.7949l5.8086-2.6152c0.3463 0.26432 0.76944 0.40833 1.2051 0.41016 1.1046 0 2-0.89543 2-2s-0.89543-2-2-2zm-3 23c0 0.554 0.446 1 1 1h4c0.554 0 1-0.446 1-1v-14c0-0.554-0.446-1-1-1zm-9 0c0 0.554 0.446 1 1 1h4c0.554 0 1-0.446 1-1v-10c0-0.554-0.446-1-1-1zm-9 0c0 0.554 0.446 1 1 1h4c0.554 0 1-0.446 1-1v-4c0-0.554-0.446-1-1-1z" style="opacity:.1"/>
 <rect x="12" y="29" width="6" height="6" ry="1" style="fill:#e5a14d"/>
 <rect x="21" y="23" width="6" height="12" ry="1" style="fill:#e5a14d"/>
 <path d="m32.336 12.252-8.8848 3.8965-8.8574 5.9375 0.8125 1.8281 9.1426-6.0625 9.1152-4.1035z" style="fill:#9ea3a9"/>
 <rect x="30" y="19" width="6" height="16" ry="1" style="fill:#e5a14d"/>
 <path d="m25 16c-1.1046 0-2 0.89543-2 2l1.5488-0.14844 2.1172-0.95312c-0.3695-0.55995-0.99514-0.89734-1.666-0.89844zm-9 6-0.59375 1.9141 2.0039-1.3281c-0.37405-0.37414-0.88111-0.58482-1.4102-0.58594z" style="opacity:.1"/>
 <circle cx="15" cy="23" r="2" style="fill:#a2a2f2"/>
 <circle cx="24" cy="17" r="2" style="fill:#eb7070"/>
 <circle cx="33" cy="13" r="2" style="fill:#e5e54d"/>
</svg>
