<svg version="1.1" viewBox="0 0 48 48" xmlns="http://www.w3.org/2000/svg">
 <defs>
  <linearGradient id="bg" x2="0" y1="1" y2="47" gradientUnits="userSpaceOnUse">
   <stop style="stop-color:#444c5f" offset="0"/>
   <stop style="stop-color:#3c4353" offset="1"/>
  </linearGradient>
 </defs>
 <path d="m36.3 5c5.86 4.06 9.69 10.8 9.69 18.5 0 12.4-10.1 22.5-22.5 22.5-7.67 0-14.4-3.83-18.5-9.69 1.04 1.82 2.31 3.5 3.78 4.97 4.08 3.71 9.51 5.97 15.5 5.97 12.7 0 23-10.3 23-23 0-5.95-2.26-11.4-5.97-15.5-1.47-1.48-3.15-2.74-4.97-3.78zm4.97 3.78c3.85 4.11 6.22 9.64 6.22 15.7 0 12.7-10.3 23-23 23-6.08 0-11.6-2.36-15.7-6.22 4.16 4.14 9.88 6.72 16.2 6.72 12.7 0 23-10.3 23-23 0-6.34-2.58-12.1-6.72-16.2z" style="opacity:.05"/>
 <path d="m41.3 8.78c3.71 4.08 5.97 9.51 5.97 15.5 0 12.7-10.3 23-23 23-5.95 0-11.4-2.26-15.5-5.97 4.11 3.85 9.64 6.22 15.7 6.22 12.7 0 23-10.3 23-23 0-6.08-2.36-11.6-6.22-15.7z" style="opacity:.1"/>
 <path d="m31.2 2.38c8.62 3.15 14.8 11.4 14.8 21.1 0 12.4-10.1 22.5-22.5 22.5-9.71 0-18-6.14-21.1-14.8a23 23 0 0 0 44.9-7 23 23 0 0 0-16-21.9z" style="opacity:.2"/>
 <circle cx="24" cy="24" r="23" style="fill:url(#bg)"/>
 <path d="m40 7.53c3.71 4.08 5.97 9.51 5.97 15.5 0 12.7-10.3 23-23 23-5.95 0-11.4-2.26-15.5-5.97 4.18 4.29 10 6.97 16.5 6.97 12.7 0 23-10.3 23-23 0-6.46-2.68-12.3-6.97-16.5z" style="opacity:.1"/>
 <path d="m25 15c-7.36 0-11.7 4.27-12.7 5.27-0.979 0.938 0.47 2.38 1.41 1.41 0.997-0.995 4.66-4.67 11.3-4.67s10.3 3.68 11.3 4.67c0.94 0.977 2.39-0.468 1.41-1.41-0.997-0.995-5.31-5.27-12.7-5.27zm0 4c-3.31 0-6 2.69-6 6s2.69 6 6 6 6-2.69 6-6-2.69-6-6-6zm1 1c0.276 0 0.526 0.112 0.707 0.293l2 2-1.41 1.41-2-2c-0.181-0.181-0.293-0.431-0.293-0.707 0-0.552 0.448-1 1-1zm-13 8c-0.758 0.0386-1.39 1.03-0.656 1.73 0.997 0.995 5.31 5.27 12.7 5.27 7.36 0 11.7-4.27 12.7-5.27 0.979-0.938-0.47-2.38-1.41-1.41-0.997 0.995-4.66 4.67-11.3 4.67s-10.3-3.68-11.3-4.67c-0.235-0.244-0.501-0.337-0.754-0.324z" style="opacity:.1"/>
 <path d="m24 18a6 6 0 0 0-6 6 6 6 0 0 0 6 6 6 6 0 0 0 6-6 6 6 0 0 0-6-6zm1 1c0.276 0 0.526 0.112 0.707 0.293l2 2c0.181 0.181 0.293 0.431 0.293 0.707 0 0.552-0.448 1-1 1-0.276 0-0.526-0.112-0.707-0.293l-2-2c-0.181-0.181-0.293-0.431-0.293-0.707 0-0.552 0.448-1 1-1zm-13 8c-0.758 0.0386-1.39 1.03-0.656 1.73 0.997 0.995 5.31 5.27 12.7 5.27 7.36 0 11.7-4.27 12.7-5.27 0.979-0.938-0.47-2.38-1.41-1.41-0.997 0.995-4.66 4.67-11.3 4.67s-10.3-3.68-11.3-4.67c-0.235-0.244-0.501-0.337-0.754-0.324z" style="fill:#bfbfbf"/>
 <path d="m24 14c-7.36 0-11.7 4.27-12.7 5.27-0.979 0.938 0.47 2.38 1.41 1.41 0.997-0.995 4.66-4.67 11.3-4.67s10.3 3.68 11.3 4.67c0.94 0.977 2.39-0.469 1.41-1.41-0.997-0.995-5.31-5.27-12.7-5.27z" style="fill:#81a4f3"/>
</svg>
