<svg version="1.1" viewBox="0 0 48 48" xmlns="http://www.w3.org/2000/svg">
 <defs>
  <linearGradient id="linearGradient3764" x1="1" x2="47" gradientTransform="rotate(-90 24 24)" gradientUnits="userSpaceOnUse">
   <stop style="stop-color:#e98111" offset="0"/>
   <stop style="stop-color:#ef8b1f" offset="1"/>
  </linearGradient>
  <linearGradient id="linearGradient4216" x1="18" x2="20" y1="24" y2="31" gradientUnits="userSpaceOnUse">
   <stop style="stop-color:#7daed3" offset="0"/>
   <stop style="stop-color:#89bad7" offset="1"/>
  </linearGradient>
  <linearGradient id="linearGradient4224" x1="14" x2="21" y1="25" y2="18" gradientUnits="userSpaceOnUse">
   <stop style="stop-color:#7daed3" offset="0"/>
   <stop style="stop-color:#719fcf" offset="1"/>
  </linearGradient>
  <linearGradient id="linearGradient4232" x1="19" x2="30" y1="16" y2="15" gradientUnits="userSpaceOnUse">
   <stop style="stop-color:#719fcf" offset="0"/>
   <stop style="stop-color:#6590cb" offset="1"/>
  </linearGradient>
  <linearGradient id="linearGradient4240" x1="27" x2="34" y1="18" y2="25" gradientUnits="userSpaceOnUse">
   <stop style="stop-color:#6590cb" offset="0"/>
   <stop style="stop-color:#5980c7" offset="1"/>
  </linearGradient>
  <linearGradient id="linearGradient4248" x1="28" x2="35" y1="32" y2="23.47" gradientUnits="userSpaceOnUse">
   <stop style="stop-color:#4d6ec3" offset="0"/>
   <stop style="stop-color:#5980c7" offset="1"/>
  </linearGradient>
  <linearGradient id="linearGradient4256" x1="18" x2="27.448" y1="34.392" y2="29" gradientUnits="userSpaceOnUse">
   <stop style="stop-color:#445bbc" offset="0"/>
   <stop style="stop-color:#4d6ec3" offset="1"/>
  </linearGradient>
 </defs>
 <path d="m36.31 5c5.859 4.062 9.688 10.831 9.688 18.5 0 12.426-10.07 22.5-22.5 22.5-7.669 0-14.438-3.828-18.5-9.688 1.037 1.822 2.306 3.499 3.781 4.969 4.085 3.712 9.514 5.969 15.469 5.969 12.703 0 23-10.298 23-23 0-5.954-2.256-11.384-5.969-15.469-1.469-1.475-3.147-2.744-4.969-3.781zm4.969 3.781c3.854 4.113 6.219 9.637 6.219 15.719 0 12.703-10.297 23-23 23-6.081 0-11.606-2.364-15.719-6.219 4.16 4.144 9.883 6.719 16.219 6.719 12.703 0 23-10.298 23-23 0-6.335-2.575-12.06-6.719-16.219z" style="opacity:.05"/>
 <path d="m41.28 8.781c3.712 4.085 5.969 9.514 5.969 15.469 0 12.703-10.297 23-23 23-5.954 0-11.384-2.256-15.469-5.969 4.113 3.854 9.637 6.219 15.719 6.219 12.703 0 23-10.298 23-23 0-6.081-2.364-11.606-6.219-15.719z" style="opacity:.1"/>
 <path d="m31.25 2.375c8.615 3.154 14.75 11.417 14.75 21.13 0 12.426-10.07 22.5-22.5 22.5-9.708 0-17.971-6.135-21.12-14.75a23 23 0 0 0 44.875-7 23 23 0 0 0-16-21.875z" style="opacity:.2"/>
 <path d="m24 1c12.703 0 23 10.297 23 23s-10.297 23-23 23-23-10.297-23-23 10.297-23 23-23z" style="fill:url(#linearGradient3764)"/>
 <circle cx="25" cy="25" r="15" style="opacity:.1"/>
 <g transform="translate(1,1)"></g>
 <path d="m40.03 7.531c3.712 4.084 5.969 9.514 5.969 15.469 0 12.703-10.297 23-23 23-5.954 0-11.384-2.256-15.469-5.969 4.178 4.291 10.01 6.969 16.469 6.969 12.703 0 23-10.298 23-23 0-6.462-2.677-12.291-6.969-16.469z" style="opacity:.1"/>
 <circle cx="24" cy="24" r="15" style="fill:#f4d62c"/>
 <path d="m18 13.608c3.713-2.144 8.287-2.144 12 0 0.069 5.534-3.27 7.659-6 10.392-3.979-2.776-6.246-6.147-6-10.392" style="fill:url(#linearGradient4232)"/>
 <path d="m30 13.608c3.713 2.144 6 6.105 6 10.392-4 2.918-8 1.136-12 0" style="fill:url(#linearGradient4240)"/>
 <path d="m12 24c0-4.287 2.287-8.249 6-10.392l6 10.392c-3.951 1.321-7.873 3.434-12 0z" style="fill:url(#linearGradient4224)"/>
 <path d="m18 34.392c-3.713-2.144-6-6.105-6-10.392h12c0.53 5.272-2.769 7.808-6 10.392z" style="fill:url(#linearGradient4216)"/>
 <path d="m30 34.392c-3.713 2.144-8.287 2.144-12 0l6-10.392c3.238 3.228 6.526 6.447 6 10.392z" style="fill:url(#linearGradient4256)"/>
 <path d="m36 24a12 12 0 0 1-6 10.392l-6-10.392" style="fill:url(#linearGradient4248)"/>
</svg>
