<svg xmlns="http://www.w3.org/2000/svg" viewBox="0 0 48 48">
 <defs>
  <linearGradient id="linearGradient3764" x1="1" x2="47" gradientUnits="userSpaceOnUse" gradientTransform="matrix(0,-1,1,0,-1.5e-6,47.999998)">
   <stop style="stop-color:#575757;stop-opacity:1"/>
   <stop offset="1" style="stop-color:#616161;stop-opacity:1"/>
  </linearGradient>
 </defs>
 <g>
  <path d="m 36.31 5 c 5.859 4.062 9.688 10.831 9.688 18.5 c 0 12.426 -10.07 22.5 -22.5 22.5 c -7.669 0 -14.438 -3.828 -18.5 -9.688 c 1.037 1.822 2.306 3.499 3.781 4.969 c 4.085 3.712 9.514 5.969 15.469 5.969 c 12.703 0 23 -10.298 23 -23 c 0 -5.954 -2.256 -11.384 -5.969 -15.469 c -1.469 -1.475 -3.147 -2.744 -4.969 -3.781 z m 4.969 3.781 c 3.854 4.113 6.219 9.637 6.219 15.719 c 0 12.703 -10.297 23 -23 23 c -6.081 0 -11.606 -2.364 -15.719 -6.219 c 4.16 4.144 9.883 6.719 16.219 6.719 c 12.703 0 23 -10.298 23 -23 c 0 -6.335 -2.575 -12.06 -6.719 -16.219 z" style="opacity:0.05"/>
  <path d="m 41.28 8.781 c 3.712 4.085 5.969 9.514 5.969 15.469 c 0 12.703 -10.297 23 -23 23 c -5.954 0 -11.384 -2.256 -15.469 -5.969 c 4.113 3.854 9.637 6.219 15.719 6.219 c 12.703 0 23 -10.298 23 -23 c 0 -6.081 -2.364 -11.606 -6.219 -15.719 z" style="opacity:0.1"/>
  <path d="m 31.25 2.375 c 8.615 3.154 14.75 11.417 14.75 21.13 c 0 12.426 -10.07 22.5 -22.5 22.5 c -9.708 0 -17.971 -6.135 -21.12 -14.75 a 23 23 0 0 0 44.875 -7 a 23 23 0 0 0 -16 -21.875 z" style="opacity:0.2"/>
 </g>
 <g>
  <path d="m 24 1 c 12.703 0 23 10.297 23 23 c 0 12.703 -10.297 23 -23 23 -12.703 0 -23 -10.297 -23 -23 0 -12.703 10.297 -23 23 -23 z" style="fill:url(#linearGradient3764);fill-opacity:1"/>
 </g>
 <g>
  <g>
   <g transform="translate(1,1)">
    <g style="opacity:0.1">
     <!-- color: #616161 -->
     <g>
      <path d="m 36 13.227 -22 3.43 c -1 0.34 -1 0.816 -1 1.336 0 5.811 0 11.622 0 17.434 0 0.871 0.793 1.572 1.773 1.572 l 18.65 0 1.803 0 c 0.98 0 1.771 -0.701 1.771 -1.572 l 0 -12.855 c 0 -0.699 -0.519 -1.285 -1.232 -1.488 l 0.234 -0.078 -2.625 -0.879 -0.797 -2.391 3.422 -0.57 c 1 -0.234 1 -0.559 1 -1.168 l 0 -2 c 0 -0.445 -0.457 -0.766 -1 -0.77 z m -3.588 4.535 -0.787 2.363 -2.613 0.875 -5.346 0 0.459 -1.379 l 1.871 -0.625 -0.328 -0.109 z m -10.07 1.68 0.535 0.18 0.459 1.379 -2.439 0 -1.129 -1.129 m -3.244 0.541 0.588 0.588 -1.109 0 0 -0.5 m 3.531 0.158 c 0.065 0.018 0.131 0.057 0.197 0.123 l 0.219 0.219 -1.053 0 c 0.018 -0.018 0.03 -0.036 0.049 -0.055 0.2 -0.2 0.392 -0.341 0.588 -0.287 z" transform="translate(-1,-1)"/>
     </g>
    </g>
   </g>
  </g>
 </g>
 <g>
  <g>
   <!-- color: #616161 -->
   <g>
    <path d="m 12 20 23 -3.836 c 1 -0.234 1 -0.559 1 -1.168 l 0 -2 c 0 -0.445 -0.457 -0.766 -1 -0.77 l -22 3.43 c -1 0.34 -1 0.816 -1 1.336 m 0 3.01" style="fill:#c66f92;fill-opacity:1;stroke:none;fill-rule:nonzero"/>
    <path d="m 13.773,20 20.453,0 c 0.98,0 1.773,0.703 1.773,1.57 l 0,12.855 c 0,0.871 -0.793,1.574 -1.773,1.574 l -20.453,0 C 12.793,35.999 12,35.296 12,34.425 L 12,21.57 C 12,20.703 12.793,20 13.773,20 m 0,0" style="fill:#c66f92;fill-opacity:1;stroke:none;fill-rule:nonzero"/>
    <path d="M 18.5,26.5 17.875,28.375 16,29 17.875,29.621 18.5,31.496 19.125,29.621 20.996,29 19.125,28.375 M 18.5,26.5" style="fill:#f9f9f9;fill-opacity:1;stroke:none;fill-rule:nonzero"/>
    <path d="M 31.5,16.5 30.625,19.125 28,20.004 30.625,20.879 31.5,23.504 32.375,20.879 35,20.004 32.375,19.125 M 31.5,16.5" style="fill:#f9f9f9;fill-opacity:1;stroke:none;fill-rule:nonzero"/>
    <path d="m 22.5,15.5 -0.625,1.871 -1.871,0.625 1.871,0.625 0.625,1.875 0.625,-1.875 1.871,-0.625 -1.871,-0.625 M 22.5,15.5" style="fill:#f9f9f9;fill-opacity:1;stroke:none;fill-rule:nonzero"/>
    <path d="m 12.5,18 2,0 c 0.277,0 0.5,0.199 0.5,0.445 l 0,5.109 c 0,0.246 -0.223,0.445 -0.5,0.445 l -2,0 C 12.223,23.999 12,23.8 12,23.554 l 0,-5.109 C 12,18.199 12.223,18 12.5,18 m 0,0" style="fill:#c66f92;fill-opacity:1;stroke:none;fill-rule:nonzero"/>
    <path d="m 14.605,16.602 c -0.52,0.52 -0.867,1.027 -0.348,1.547 l 17.539,17.547 c 0.523,0.523 1.168,0.316 1.691,-0.207 0.52,-0.52 0.734,-1.16 0.211,-1.68 L 16.159,16.262 c -0.52,-0.523 -1.031,-0.18 -1.555,0.34 m 3.34,3.344 c 0.266,-0.266 0.52,-0.43 0.785,-0.164 l 14.492,14.5 c 0.266,0.27 0.055,0.477 -0.211,0.738 -0.27,0.266 -0.477,0.469 -0.738,0.207 L 17.78,20.727 c -0.266,-0.266 -0.105,-0.516 0.164,-0.781 m 0,0" style="fill:#f9f9f9;fill-opacity:1;stroke:none;fill-rule:nonzero"/>
   </g>
  </g>
 </g>
 <g>
  <path d="m 40.03 7.531 c 3.712 4.084 5.969 9.514 5.969 15.469 0 12.703 -10.297 23 -23 23 c -5.954 0 -11.384 -2.256 -15.469 -5.969 4.178 4.291 10.01 6.969 16.469 6.969 c 12.703 0 23 -10.298 23 -23 0 -6.462 -2.677 -12.291 -6.969 -16.469 z" style="opacity:0.1"/>
 </g>
</svg>
