<svg xmlns="http://www.w3.org/2000/svg" viewBox="0 0 48 48">
 <defs>
  <linearGradient id="linearGradient3764" x2="47" gradientUnits="userSpaceOnUse" x1="1" gradientTransform="matrix(0 -1 1 0 -.0000015 48)">
   <stop style="stop-color:#e4e4e4"/>
   <stop offset="1" style="stop-color:#eee"/>
  </linearGradient>
 </defs>
 <g>
  <path d="m36.31 5c5.859 4.062 9.688 10.831 9.688 18.5 0 12.426-10.07 22.5-22.5 22.5-7.669 0-14.438-3.828-18.5-9.688 1.037 1.822 2.306 3.499 3.781 4.969 4.085 3.712 9.514 5.969 15.469 5.969 12.703 0 23-10.298 23-23 0-5.954-2.256-11.384-5.969-15.469-1.469-1.475-3.147-2.744-4.969-3.781zm4.969 3.781c3.854 4.113 6.219 9.637 6.219 15.719 0 12.703-10.297 23-23 23-6.081 0-11.606-2.364-15.719-6.219 4.16 4.144 9.883 6.719 16.219 6.719 12.703 0 23-10.298 23-23 0-6.335-2.575-12.06-6.719-16.219z" style="opacity:0.05"/>
  <path d="m41.28 8.781c3.712 4.085 5.969 9.514 5.969 15.469 0 12.703-10.297 23-23 23-5.954 0-11.384-2.256-15.469-5.969 4.113 3.854 9.637 6.219 15.719 6.219 12.703 0 23-10.298 23-23 0-6.081-2.364-11.606-6.219-15.719z" style="opacity:0.1"/>
  <path d="m31.25 2.375c8.615 3.154 14.75 11.417 14.75 21.13 0 12.426-10.07 22.5-22.5 22.5-9.708 0-17.971-6.135-21.12-14.75a23 23 0 0 0 44.875 -7 23 23 0 0 0 -16 -21.875z" style="opacity:0.2"/>
 </g>
 <g>
  <path d="m24 1c12.703 0 23 10.297 23 23s-10.297 23-23 23-23-10.297-23-23 10.297-23 23-23z" style="fill:url(#linearGradient3764)"/>
 </g>
 <g>
  <path d="m40.03 7.531c3.712 4.084 5.969 9.514 5.969 15.469 0 12.703-10.297 23-23 23-5.954 0-11.384-2.256-15.469-5.969 4.178 4.291 10.01 6.969 16.469 6.969 12.703 0 23-10.298 23-23 0-6.462-2.677-12.291-6.969-16.469z" style="opacity:0.1"/>
 </g>
 <g transform="matrix(.11301 0 0 .11301 8.7204 -68.578)" style="opacity:0.1">
  <g transform="translate(-.03125 53.509)">
   <path d="m 28.635 14.602 l -0.322 0.01 c -0.134 0.004 -0.238 0.112 -0.238 0.246 l 0 0.422 c 0 0.117 0.082 0.219 0.197 0.242 c 0.599 0.122 0.998 0.327 1.223 0.582 c 0.237 0.269 0.352 0.578 0.352 0.967 c 0 0.419 -0.072 0.931 -0.219 1.529 c -0.153 0.623 -0.232 1.127 -0.232 1.527 c 0 0.429 0.128 0.869 0.369 1.318 c 0.247 0.461 0.621 0.859 1.107 1.189 c 0.25 0.17 0.613 0.331 1.029 0.49 c -0.37 0.13 -0.692 0.263 -0.922 0.41 l -0.002 0.002 c -0.499 0.324 -0.888 0.723 -1.154 1.191 c -0.262 0.462 -0.398 0.932 -0.398 1.402 c 0 0.479 0.076 1.028 0.227 1.65 c 0.144 0.596 0.213 1.087 0.213 1.461 c 0 0.344 -0.115 0.633 -0.373 0.91 c -0.246 0.264 -0.644 0.464 -1.217 0.574 c -0.116 0.022 -0.199 0.124 -0.199 0.242 l 0 0.414 c -0.005 0.144 0.112 0.262 0.256 0.256 c 0.574 -0.025 1.037 -0.084 1.396 -0.184 c 0.456 -0.124 0.878 -0.324 1.262 -0.598 c 0.391 -0.278 0.713 -0.638 0.965 -1.072 c 0.253 -0.438 0.387 -0.89 0.387 -1.342 c 0 -0.419 -0.097 -0.982 -0.283 -1.721 l 0 -0.002 c -0.017 -0.064 -0.023 -0.119 -0.037 -0.182 c 2.73 0.789 4.506 2.027 4.506 3.43 c 0 2.385 -5.091 4.32 -11.371 4.32 c -6.281 0 -11.375 -1.936 -11.375 -4.32 c 0 -1.398 1.765 -2.633 4.48 -3.422 c -0.011 0.047 -0.015 0.088 -0.027 0.137 c -0.193 0.746 -0.293 1.338 -0.293 1.797 c 0 0.488 0.16 0.983 0.463 1.475 c 0.31 0.503 0.771 0.912 1.363 1.223 c 0.593 0.311 1.228 0.465 1.891 0.459 l 0.322 0 c 0.136 0 0.246 -0.11 0.246 -0.246 l 0 -0.432 c 0 -0.118 -0.083 -0.22 -0.199 -0.242 c -0.598 -0.116 -0.997 -0.32 -1.225 -0.578 c -0.241 -0.273 -0.357 -0.579 -0.357 -0.961 c 0 -0.425 0.072 -0.941 0.219 -1.539 c 0.153 -0.623 0.232 -1.127 0.232 -1.527 c 0 -0.428 -0.127 -0.869 -0.369 -1.318 c -0.247 -0.46 -0.617 -0.859 -1.098 -1.189 l -0.002 0 c -0.249 -0.169 -0.609 -0.33 -1.023 -0.488 c 0.368 -0.129 0.69 -0.263 0.92 -0.414 c 0.493 -0.324 0.88 -0.722 1.148 -1.189 c 0.265 -0.461 0.404 -0.929 0.404 -1.395 c 0 -0.479 -0.076 -1.028 -0.227 -1.65 c -0.144 -0.597 -0.215 -1.09 -0.215 -1.471 c 0 -0.345 0.116 -0.636 0.371 -0.912 c 0.242 -0.263 0.64 -0.46 1.219 -0.57 c 0.117 -0.022 0.201 -0.126 0.201 -0.244 l 0 -0.41 l 0 -0.002 c 0 -0.14 -0.114 -0.252 -0.254 -0.248 c -0.575 0.019 -1.037 0.074 -1.398 0.174 c -0.455 0.124 -0.878 0.324 -1.262 0.598 c -0.391 0.278 -0.716 0.641 -0.971 1.078 c -0.256 0.44 -0.391 0.889 -0.391 1.336 c 0 0.421 0.101 0.984 0.293 1.723 c 0.131 0.505 0.193 0.954 0.193 1.344 c 0 0.458 -0.13 0.822 -0.398 1.133 c -0.262 0.304 -0.649 0.505 -1.195 0.596 c -0.119 0.02 -0.205 0.123 -0.205 0.244 l 0 0.561 c 0 0.121 0.086 0.222 0.205 0.242 c 0.549 0.091 0.936 0.288 1.197 0.578 c 0.267 0.296 0.396 0.639 0.396 1.07 c 0 0.238 -0.031 0.506 -0.078 0.789 c -4.469 0.92 -7.521 2.702 -7.521 4.768 c 0 3 6.409 5.439 14.316 5.439 c 7.907 0 14.318 -2.437 14.318 -5.439 c 0 -2.07 -3.064 -3.86 -7.549 -4.777 c -0.038 -0.245 -0.059 -0.477 -0.059 -0.688 c 0 -0.459 0.129 -0.822 0.395 -1.133 c 0.259 -0.303 0.644 -0.504 1.197 -0.596 c 0.119 -0.02 0.207 -0.123 0.207 -0.244 l 0 -0.561 c 0 -0.122 -0.089 -0.225 -0.209 -0.244 c -0.554 -0.086 -0.94 -0.28 -1.197 -0.57 c -0.265 -0.3 -0.393 -0.644 -0.393 -1.076 c 0 -0.401 0.066 -0.869 0.203 -1.398 c 0.193 -0.745 0.293 -1.333 0.293 -1.787 c 0 -0.494 -0.162 -0.992 -0.465 -1.484 c -0.31 -0.504 -0.772 -0.912 -1.367 -1.223 c -0.596 -0.311 -1.231 -0.465 -1.889 -0.459 c -0.002 0 -0.002 0 -0.004 0 z" transform="matrix(8.8487744,0,0,8.8487744,-77.133603,553.32225)" style="fill:#000"/>
  </g>
 </g>
 <g transform="matrix(.11301 0 0 .11301 7.72 -69.579)">
  <g transform="translate(-.03125 53.509)">
   <path d="m73.5 106.88c-42.677 7.7374-72.156 24.253-72.156 43.406 0 26.564 56.721 48.125 126.69 48.125 69.967 0 126.69-21.561 126.69-48.125 0-18.827-28.525-35.102-70.031-43v3.7188c26.533 6.8793 43.969 18.444 43.969 31.562 0 21.1-45.05 38.219-100.62 38.219-55.575 0-100.66-17.119-100.66-38.219 0-13.469 18.39-25.291 46.125-32.094v-3.5938z" transform="translate(17.408 675.95)" style="fill:#0067ab"/>
   <g style="stroke:#000;stroke-linejoin:round;stroke-width:4.369">
    <path d="m 117.34 684.79 l 0 3.656 c -5.416 1.029 -9.41 2.938 -11.982 5.727 -2.573 2.789 -3.859 5.971 -3.859 9.545 0 3.629 0.65 8.137 1.95 13.526 1.3 5.389 1.95 10.09 1.95 14.09 0 3.683 -1.097 7.433 -3.29 11.251 -2.193 3.818 -5.348 7.081 -9.464 9.789 -2.87 1.895 -7.447 3.683 -13.729 5.361 6.715 2.112 11.59 4.197 14.622 6.255 4.01 2.762 7.01 6.01 9.02 9.748 s 3.01 7.284 3.01 10.642 c 0 3.249 -0.663 7.582 -1.99 12.998 -1.327 5.416 -1.99 10.127 -1.99 14.13 0 3.845 1.232 7.162 3.696 9.951 2.464 2.789 6.485 4.725 12.06 5.808 l 0 3.818 l -2.843 0 c -5.524 0.054 -10.764 -1.219 -15.719 -3.818 -4.955 -2.6 -8.692 -5.944 -11.21 -10.03 -2.518 -4.089 -3.778 -8.06 -3.777 -11.901 0 -3.737 0.839 -8.855 2.518 -15.354 1.246 -4.82 1.868 -9.125 1.868 -12.916 0 -4.278 -1.354 -7.92 -4.062 -10.926 -2.708 -3.01 -6.661 -4.942 -11.86 -5.808 l 0 -4.955 c 5.199 -0.866 9.153 -2.87 11.86 -6.01 2.708 -3.141 4.062 -6.959 4.062 -11.454 0 -3.683 -0.596 -7.826 -1.787 -12.429 -1.679 -6.445 -2.518 -11.346 -2.518 -14.704 0 -3.52 1.056 -7.095 3.168 -10.723 2.112 -3.628 4.766 -6.58 7.961 -8.855 3.195 -2.274 6.688 -3.926 10.479 -4.955 2.924 -0.812 6.878 -1.3 11.86 -1.462 z"/>
    <path d="m 173.47 831.09 l 0 -3.737 c 5.362 -1.029 9.342 -2.938 11.942 -5.727 2.6 -2.789 3.899 -5.971 3.899 -9.545 0 -3.574 -0.65 -8.06 -1.95 -13.444 -1.3 -5.389 -1.95 -10.09 -1.95 -14.09 0 -3.737 1.083 -7.514 3.249 -11.332 2.166 -3.818 5.334 -7.081 9.505 -9.789 2.87 -1.841 7.446 -3.629 13.729 -5.361 -6.715 -2.112 -11.59 -4.197 -14.622 -6.255 -4.062 -2.762 -7.095 -6.01 -9.1 -9.748 s -3.01 -7.284 -3.01 -10.642 c 0 -3.249 0.663 -7.582 1.99 -12.998 1.327 -5.416 1.99 -10.1 1.99 -14.05 0 -3.899 -1.219 -7.23 -3.656 -9.992 -2.437 -2.762 -6.445 -4.712 -12.02 -5.849 l 0 -3.737 l 2.843 -0.081 c 5.47 -0.054 10.696 1.219 15.678 3.818 4.982 2.6 8.733 5.944 11.251 10.03 2.518 4.089 3.777 8.08 3.777 11.982 0 3.683 -0.839 8.774 -2.518 15.272 -1.246 4.82 -1.868 9.125 -1.868 12.916 0 4.279 1.34 7.934 4.02 10.967 2.681 3.03 6.648 4.955 11.901 5.768 l 0 4.955 c -5.253 0.867 -9.22 2.87 -11.901 6.01 -2.681 3.141 -4.02 6.959 -4.02 11.454 0 3.683 0.596 7.826 1.787 12.429 1.625 6.445 2.437 11.346 2.437 14.704 0 3.574 -1.043 7.162 -3.128 10.764 -2.085 3.601 -4.725 6.539 -7.921 8.814 s -6.688 3.926 -10.479 4.955 c -2.924 0.812 -6.878 1.327 -11.86 1.543 z"/>
   </g>
  </g>
 </g>
</svg>
