<svg version="1.1" viewBox="0 0 48 48" xmlns="http://www.w3.org/2000/svg">
 <defs>
  <linearGradient id="bg" x1="1" x2="47" gradientTransform="matrix(0 -1 1 0 -1.5e-6 48)" gradientUnits="userSpaceOnUse">
   <stop style="stop-color:#70bbde" offset="0"/>
   <stop style="stop-color:#80c4e2" offset="1"/>
  </linearGradient>
 </defs>
 <path d="m36.31 5c5.859 4.062 9.688 10.831 9.688 18.5 0 12.426-10.07 22.5-22.5 22.5-7.669 0-14.438-3.828-18.5-9.688 1.037 1.822 2.306 3.499 3.781 4.969 4.085 3.712 9.514 5.969 15.469 5.969 12.703 0 23-10.298 23-23 0-5.954-2.256-11.384-5.969-15.469-1.469-1.475-3.147-2.744-4.969-3.781zm4.969 3.781c3.854 4.113 6.219 9.637 6.219 15.719 0 12.703-10.297 23-23 23-6.081 0-11.606-2.364-15.719-6.219 4.16 4.144 9.883 6.719 16.219 6.719 12.703 0 23-10.298 23-23 0-6.335-2.575-12.06-6.719-16.219z" style="opacity:.05"/>
 <path d="m41.28 8.781c3.712 4.085 5.969 9.514 5.969 15.469 0 12.703-10.297 23-23 23-5.954 0-11.384-2.256-15.469-5.969 4.113 3.854 9.637 6.219 15.719 6.219 12.703 0 23-10.298 23-23 0-6.081-2.364-11.606-6.219-15.719z" style="opacity:.1"/>
 <path d="m31.25 2.375c8.615 3.154 14.75 11.417 14.75 21.13 0 12.426-10.07 22.5-22.5 22.5-9.708 0-17.971-6.135-21.12-14.75a23 23 0 0 0 44.875-7 23 23 0 0 0-16-21.875z" style="opacity:.2"/>
 <path d="m24 1c12.703 0 23 10.297 23 23s-10.297 23-23 23-23-10.297-23-23 10.297-23 23-23z" style="fill:url(#bg)"/>
 <path d="m25 12-5.512 4.877-2.488-0.877-2 10.541s-1.9982 2.0318-2 3.459c0 2.2091 1.7909 4 4 4 0.90715-1.98e-4 1.7873-0.30874 2.496-0.875l2.02 1.135c-0.0081 0.07979-0.01342 0.15984-0.016 0.24 0 1.933 1.567 3.5 3.5 3.5s3.5-1.567 3.5-3.5c7.9e-5 -0.08007-0.0026-0.16012-8e-3 -0.24l2.02-1.133c0.70683 0.56383 1.5838 0.87156 2.488 0.873 2.2091 0 4-1.7909 4-4-0.0018-1.4272-0.76397-2.7454-2-3.459v-3.082c1.236-0.71362 1.9982-2.0318 2-3.459 0-2.2091-1.7909-4-4-4-0.90715 1.98e-4 -1.7873 0.30874-2.496 0.875l-2.016-1.135c0.0067-0.07984 0.01075-0.15989 0.012-0.24 0-1.933-1.567-3.5-3.5-3.5m2.02 6.355 2.02 1.137-1.817 2.186h-4.446l-1.814-1.162c0.023455-0.17102 0.035814-0.34338 0.037-0.516-0.0015-0.16995-0.01389-0.33962-0.037-0.508l2.02-1.135c0.58984 0.4174 1.2944 0.64201 2.017 0.643 0.72383-9.51e-4 1.4296-0.2263 2.02-0.645m3.814 5c0.05448 0.03602 0.10983 0.07069 0.166 0.104v3.082c-0.11913 0.069-0.23462 0.1441-0.346 0.225l-1.719-1.074c0.0417-0.22834 0.06345-0.45988 0.065-0.692-0.0014-0.16018-0.01242-0.32014-0.033-0.479l1.865-1.166zm-11.66 2e-3 1.859 1.162c-0.020661 0.15952-0.031681 0.32015-0.033 0.481 0.19987 1.0299-0.83335 1.2504-1.656 1.765-0.11076-0.080505-0.22558-0.15527-0.344-0.224v-3.082c0.05817-0.03256 0.11553-0.06657 0.172-0.102zm3.482 4.877c0.68116 0.49582 1.5015 0.76389 2.344 0.766 0.84295-0.0033 1.6633-0.27276 2.344-0.77l1.721 1.074-2.048 2.339-4.035 2e-3 -2.019-1.137c0.023113-0.16838 0.035471-0.33805 0.037-0.508-6.73e-4 -0.23136-0.02142-0.46223-0.062-0.69l1.717-1.072z" style="opacity:.1"/>
 <g transform="translate(1,1)"></g>
 <g transform="matrix(1.0972 0 0 1.1017 -2.2301 -2.4947)"></g>
 <path d="m40.03 7.531c3.712 4.084 5.969 9.514 5.969 15.469 0 12.703-10.297 23-23 23-5.954 0-11.384-2.256-15.469-5.969 4.178 4.291 10.01 6.969 16.469 6.969 12.703 0 23-10.298 23-23 0-6.462-2.677-12.291-6.969-16.469z" style="opacity:.1"/>
 <path d="m24 12.779-8.736 4.914 1.473 2.613 7.264-4.086 7.264 4.086 1.473-2.613-8.736-4.914m0 9.451-10.939 6.838 10.939 6.152 10.939-6.152-10.939-6.838m0 3.539 5.061 3.162-5.061 2.848-5.061-2.848 5.061-3.162" style="fill:#c8c8c8"/>
 <circle cx="24" cy="24" r="4" style="fill:#f9f9f9"/>
 <circle cx="16" cy="29" r="4" style="fill:#f9f9f9"/>
 <circle cx="16" cy="19" r="4" style="fill:#f9f9f9"/>
 <circle cx="32" cy="29" r="4" style="fill:#f9f9f9"/>
 <circle cx="32" cy="19" r="4" style="fill:#f9f9f9"/>
 <circle cx="24" cy="33.5" r="3.5" style="fill:#c8c8c8"/>
 <circle cx="24" cy="14.5" r="3.5" style="fill:#c8c8c8"/>
 <path d="m14 15.7v13.3h4v-6.75l6 3.75 6-3.75v6.75h4v-13.3l-10 6.4z" style="fill:#f9f9f9"/>
</svg>
