<?xml version="1.0" encoding="UTF-8" standalone="no"?>
<svg id="svg3363" xmlns="http://www.w3.org/2000/svg" xmlns:xlink="http://www.w3.org/1999/xlink" xmlns:cc="http://creativecommons.org/ns#" viewBox="0 0 48 48.000001" xmlns:dc="http://purl.org/dc/elements/1.1/" width="48" height="48" xmlns:rdf="http://www.w3.org/1999/02/22-rdf-syntax-ns#" version="1.1">
 <defs id="defs3369">
  <linearGradient id="linearGradient3212" gradientUnits="userSpaceOnUse" x2="47" x1="1" y1="24" y2="24">
   <stop id="stop3208" offset="0" style="stop-color:#c8dae4"/>
   <stop id="stop3210" offset="1" style="stop-color:#d5e3eb"/>
  </linearGradient>
 </defs>
 <metadata id="metadata3365">
  <rdf:RDF>
   <cc:Work rdf:about="">
    <dc:format>image/svg+xml</dc:format>
    <dc:type rdf:resource="http://purl.org/dc/dcmitype/StillImage"/>
    <dc:title/>
   </cc:Work>
  </rdf:RDF>
 </metadata>
 <g id="g11" transform="translate(0 .000039490)">
  <path id="path13" d="m36.31 5c5.859 4.062 9.688 10.831 9.688 18.5 0 12.426-10.07 22.5-22.5 22.5-7.669 0-14.438-3.828-18.5-9.688 1.037 1.822 2.306 3.499 3.781 4.969 4.085 3.712 9.514 5.969 15.469 5.969 12.703 0 23-10.298 23-23 0-5.954-2.256-11.384-5.969-15.469-1.469-1.475-3.147-2.744-4.969-3.781zm4.969 3.781c3.854 4.113 6.219 9.637 6.219 15.719 0 12.703-10.297 23-23 23-6.081 0-11.606-2.364-15.719-6.219 4.16 4.144 9.883 6.719 16.219 6.719 12.703 0 23-10.298 23-23 0-6.335-2.575-12.06-6.719-16.219z" style="opacity:.05"/>
  <path id="path15" d="m41.28 8.781c3.712 4.085 5.969 9.514 5.969 15.469 0 12.703-10.297 23-23 23-5.954 0-11.384-2.256-15.469-5.969 4.113 3.854 9.637 6.219 15.719 6.219 12.703 0 23-10.298 23-23 0-6.081-2.364-11.606-6.219-15.719z" style="opacity:.1"/>
  <path id="path17" d="m31.25 2.375c8.615 3.154 14.75 11.417 14.75 21.13 0 12.426-10.07 22.5-22.5 22.5-9.708 0-17.971-6.135-21.12-14.75a23 23 0 0 0 44.875 -7 23 23 0 0 0 -16 -21.875z" style="opacity:.2"/>
 </g>
 <g id="g19" style="fill:url(#linearGradient3212)" transform="matrix(0 -1 1 0 0 48)">
  <path id="path21" d="m24 1c12.703 0 23 10.297 23 23s-10.297 23-23 23-23-10.297-23-23 10.297-23 23-23z" style="fill:url(#linearGradient3212)"/>
 </g>
 <g id="g43" transform="translate(0 .000039490)">
  <path id="path45" d="m40.03 7.531c3.712 4.084 5.969 9.514 5.969 15.469 0 12.703-10.297 23-23 23-5.954 0-11.384-2.256-15.469-5.969 4.178 4.291 10.01 6.969 16.469 6.969 12.703 0 23-10.298 23-23 0-6.462-2.677-12.291-6.969-16.469z" style="opacity:.1"/>
 </g>
 <path id="path4150" d="m20 13c-3.866-0.0018-7 3.134-7 7v10c0 3.866 3.134 7 7 7h10c3.866 0 7-3.134 7-7v-5c-4.6956 0.01592-9.4661 0-14 0v5h10c0 1.6569-1.3431 3-3 3h-10c-1.6569 0-3-1.3431-3-3v-10c0-1.6569 1.3431-3 3-3s3 1.3431 3 3v3h4v-3c0-1.6569 1.3431-3 3-3s3 1.3431 3 3v3h4v-3c0-3.866-3.134-7.0018-7-7-1.8828 0.000884-3.6851 0.76378-5 2.1113-1.315-1.347-3.117-2.11-5-2.111z" style="opacity:.1"/>
 <path id="path3218" d="m19 12c-3.866-0.0018-7 3.134-7 7v10c0 3.866 3.134 7 7 7h10c3.866 0 7-3.134 7-7v-5c-4.6956 0.01592-9.4661 0-14 0v5h10c0 1.6569-1.3431 3-3 3h-10c-1.6569 0-3-1.3431-3-3v-10c0-1.6569 1.3431-3 3-3s3 1.3431 3 3v3h4v-3c0-1.6569 1.3431-3 3-3s3 1.3431 3 3v3h4v-3c0-3.866-3.134-7.0018-7-7-1.8828 0.000884-3.6851 0.76378-5 2.1113-1.315-1.347-3.117-2.11-5-2.111z" style="fill:#ec5621"/>
</svg>
