<svg xmlns="http://www.w3.org/2000/svg" viewBox="0 0 48 48">
 <defs>
  <linearGradient id="linearGradient3764" x1="1" x2="47" gradientUnits="userSpaceOnUse" gradientTransform="matrix(0,-1,1,0,-1.5e-6,47.999998)">
   <stop style="stop-color:#6086b4;stop-opacity:1"/>
   <stop offset="1" style="stop-color:#6e90bb;stop-opacity:1"/>
  </linearGradient>
 </defs>
 <g>
  <path d="m 36.31 5 c 5.859 4.062 9.688 10.831 9.688 18.5 c 0 12.426 -10.07 22.5 -22.5 22.5 c -7.669 0 -14.438 -3.828 -18.5 -9.688 c 1.037 1.822 2.306 3.499 3.781 4.969 c 4.085 3.712 9.514 5.969 15.469 5.969 c 12.703 0 23 -10.298 23 -23 c 0 -5.954 -2.256 -11.384 -5.969 -15.469 c -1.469 -1.475 -3.147 -2.744 -4.969 -3.781 z m 4.969 3.781 c 3.854 4.113 6.219 9.637 6.219 15.719 c 0 12.703 -10.297 23 -23 23 c -6.081 0 -11.606 -2.364 -15.719 -6.219 c 4.16 4.144 9.883 6.719 16.219 6.719 c 12.703 0 23 -10.298 23 -23 c 0 -6.335 -2.575 -12.06 -6.719 -16.219 z" style="opacity:0.05"/>
  <path d="m 41.28 8.781 c 3.712 4.085 5.969 9.514 5.969 15.469 c 0 12.703 -10.297 23 -23 23 c -5.954 0 -11.384 -2.256 -15.469 -5.969 c 4.113 3.854 9.637 6.219 15.719 6.219 c 12.703 0 23 -10.298 23 -23 c 0 -6.081 -2.364 -11.606 -6.219 -15.719 z" style="opacity:0.1"/>
  <path d="m 31.25 2.375 c 8.615 3.154 14.75 11.417 14.75 21.13 c 0 12.426 -10.07 22.5 -22.5 22.5 c -9.708 0 -17.971 -6.135 -21.12 -14.75 a 23 23 0 0 0 44.875 -7 a 23 23 0 0 0 -16 -21.875 z" style="opacity:0.2"/>
 </g>
 <g>
  <path d="m 24 1 c 12.703 0 23 10.297 23 23 c 0 12.703 -10.297 23 -23 23 -12.703 0 -23 -10.297 -23 -23 0 -12.703 10.297 -23 23 -23 z" style="fill:url(#linearGradient3764);fill-opacity:1"/>
 </g>
 <g>
  <g>
   <g transform="translate(1,1)">
    <g style="opacity:0.1">
     <!-- color: #6e90bb -->
    </g>
   </g>
  </g>
 </g>
 <g>
  <g>
   <!-- color: #6e90bb -->
   <g>
    <path d="m 34.836 14.934 -4.615 1.912 c 0 0 1.75 3.155 2.559 4.754 1.455 3.02 2.057 6.294 -0.262 8.576 -2.396 1.749 -5.596 1.564 -7.512 -0.682 -0.196 -0.236 -0.356 -0.481 -0.492 -0.725 1.625 -0.354 2.759 -1.222 3.451 -2.303 0.406 -0.634 0.722 -1.332 0.945 -2.029 0.058 0.043 0.117 0.075 0.174 0.121 1.207 0.985 1.144 2.429 0.123 3.262 -0.438 0.357 -1.153 0.496 -2.123 0.184 -0.216 -0.07 -0.548 -0.011 -0.717 0.174 -0.169 0.185 -0.196 0.384 -0.193 0.559 0.005 0.348 0.157 0.696 0.48 0.957 0.392 0.314 0.91 0.441 1.498 0.48 0.588 0.039 1.246 -0.029 1.883 -0.24 1.273 -0.423 2.484 -1.522 2.477 -3.332 -0.011 -2.482 -1.552 -4.355 -3.438 -5.107 -0.947 -3.926 -4.77 -6.494 -8.719 -6.494 -3.817 0 -8.355 3.506 -8.355 8.893 0 4.222 1.776 7.889 3.197 11.275 l 4.783 -1.988 c -1.98 -3.18 -4.096 -6.623 -3.947 -9.832 0.141 -3.039 2.84 -4.976 5.438 -4.641 1.752 0.226 2.844 0.995 3.543 1.838 0.207 0.25 0.367 0.508 0.506 0.766 -1.568 0.356 -2.658 1.202 -3.33 2.25 -0.409 0.637 -0.665 1.337 -0.82 2.039 -0.111 -0.073 -0.217 -0.15 -0.309 -0.238 -0.429 -0.41 -0.691 -1 -0.75 -1.832 l 0 -0.002 0 -0.002 c -0.037 -0.485 0.18 -0.982 0.615 -1.297 0.435 -0.315 1.097 -0.476 2.045 -0.17 0.237 0.077 0.61 0.014 0.803 -0.193 0.193 -0.207 0.223 -0.43 0.221 -0.619 -0.005 -0.378 -0.163 -0.747 -0.508 -1.023 -0.414 -0.332 -0.954 -0.456 -1.553 -0.496 -0.599 -0.04 -1.264 0.031 -1.912 0.246 -1.295 0.429 -2.542 1.564 -2.533 3.408 0.012 2.647 1.74 4.601 3.789 5.281 0.293 1.443 1.263 2.877 2.615 4.02 1.543 1.304 3.608 2.32 5.834 2.32 3.763 0 8.27 -3.569 8.27 -8.906 0 -4.094 -1.543 -8.45 -3.16 -11.162 z" mix-blend-mode="normal" solid-color="#000000" white-space="normal" isolation="auto" solid-opacity="1" style="visibility:visible;shape-rendering:auto;color-interpolation-filters:linearRGB;fill:#000;opacity:0.1;image-rendering:auto;fill-opacity:1;stroke:none;display:inline;color:#000;fill-rule:nonzero;color-rendering:auto;color-interpolation:sRGB"/>
    <path d="m 19.355 14 c -3.817 0 -8.355 3.506 -8.355 8.893 c 0 4.222 1.776 7.889 3.197 11.275 l 4.783 -1.988 c -1.98 -3.18 -4.096 -6.623 -3.947 -9.832 0.141 -3.039 2.84 -4.976 5.438 -4.641 1.752 0.226 2.844 0.995 3.543 1.838 0.699 0.843 0.986 1.808 1.023 2.355 0.026 0.402 -0.136 1.316 -0.604 2.01 -0.468 0.695 -1.16 1.221 -2.418 1.162 -0.899 -0.042 -1.527 -0.301 -1.955 -0.711 -0.429 -0.41 -0.691 -1 -0.75 -1.832 l 0 -0.002 0 -0.002 c -0.037 -0.485 0.18 -0.982 0.615 -1.297 0.435 -0.315 1.097 -0.476 2.045 -0.17 0.237 0.077 0.61 0.014 0.803 -0.193 0.193 -0.207 0.223 -0.43 0.221 -0.619 -0.005 -0.378 -0.163 -0.747 -0.508 -1.023 -0.414 -0.332 -0.954 -0.456 -1.553 -0.496 -0.599 -0.04 -1.264 0.031 -1.912 0.246 -1.295 0.429 -2.542 1.564 -2.533 3.408 0.015 3.285 2.663 5.541 5.303 5.563 l 0.002 0 c 2.573 0.013 4.257 -1.049 5.172 -2.477 0.914 -1.428 1.462 -3.167 1.211 -4.543 c -0.76 -4.17 -4.728 -6.924 -8.82 -6.924" mix-blend-mode="normal" solid-color="#000000" white-space="normal" isolation="auto" solid-opacity="1" style="visibility:visible;shape-rendering:auto;color-interpolation-filters:linearRGB;fill:#6587af;opacity:1;image-rendering:auto;fill-opacity:1;stroke:none;display:inline;color:#000;fill-rule:nonzero;color-rendering:auto;color-interpolation:sRGB"/>
    <path d="m 19.355 15.05 c -3.262 0.211 -7.227 3.121 -7.191 7.835 0.034 4.474 1.438 6.946 2.658 9.764 l 2.547 -1.057 c -1.454 -2.132 -3.621 -6.452 -3.496 -9.305 0.083 -1.88 0.764 -3.197 1.947 -4.258 2.851 -2.558 6.781 -1.957 9.09 0.771 1.312 1.608 1.537 3.97 0.334 5.695 c -2.041 2.927 -6.675 1.504 -6.994 -1.887 c -0.151 -1.611 1.457 -2.851 2.934 -2.865 -1.515 -0.846 -3.859 0.715 -3.732 2.629 0.374 5.641 6.755 5.751 8.723 2.535 3.513 -5.743 -2.452 -10.141 -6.817 -9.858 z" style="fill:#f9f9f9;fill-opacity:1;stroke:none;fill-rule:nonzero"/>
    <path d="m 25.04 21.9 c 0.026 0.402 -0.136 1.316 -0.604 2.01 -0.468 0.695 -1.16 1.221 -2.418 1.162 l -0.225 2.871 0.002 0 c 0.852 0.004 1.598 -0.118 2.26 -0.324 -0.049 -0.198 -0.081 -0.379 -0.09 -0.529 -0.026 -0.426 0.049 -1.424 0.619 -2.066 0.991 -1.116 2.099 -1.463 3.174 -1.166 0.344 -0.898 0.531 -1.813 0.451 -2.631 z" mix-blend-mode="normal" solid-color="#000000" white-space="normal" isolation="auto" solid-opacity="1" style="visibility:visible;shape-rendering:auto;color-interpolation-filters:linearRGB;fill:#000;opacity:0.1;image-rendering:auto;fill-opacity:1;stroke:none;display:inline;color:#000;fill-rule:nonzero;color-rendering:auto;color-interpolation:sRGB"/>
    <path d="m 33.836 13.934 -4.615 1.912 c 0 0 1.75 3.155 2.559 4.754 1.455 3.02 2.057 6.294 -0.262 8.576 -2.396 1.749 -5.596 1.564 -7.512 -0.682 -0.711 -0.858 -1.01 -1.837 -1.043 -2.404 -0.026 -0.426 0.049 -1.424 0.619 -2.066 1.408 -1.586 3.054 -1.646 4.502 -0.465 1.207 0.985 1.144 2.429 0.123 3.262 -0.438 0.357 -1.153 0.496 -2.123 0.184 -0.216 -0.07 -0.548 -0.011 -0.717 0.174 -0.169 0.185 -0.196 0.384 -0.193 0.559 0.005 0.348 0.157 0.696 0.48 0.957 0.392 0.314 0.91 0.441 1.498 0.48 0.588 0.039 1.246 -0.029 1.883 -0.24 1.273 -0.423 2.484 -1.522 2.477 -3.332 -0.014 -3.237 -2.627 -5.458 -5.221 -5.475 -2.55 -0.016 -4.201 1.029 -5.102 2.434 -0.901 1.404 -1.088 3.107 -0.996 4.49 0.109 1.644 1.156 3.327 2.699 4.631 1.543 1.304 3.608 2.32 5.834 2.32 3.763 0 8.27 -3.569 8.27 -8.906 0 -4.094 -1.543 -8.45 -3.16 -11.162 z" mix-blend-mode="normal" solid-color="#000000" white-space="normal" isolation="auto" solid-opacity="1" style="visibility:visible;shape-rendering:auto;color-interpolation-filters:linearRGB;fill:#6587af;opacity:1;image-rendering:auto;fill-opacity:1;stroke:none;display:inline;color:#000;fill-rule:nonzero;color-rendering:auto;color-interpolation:sRGB"/>
    <path d="m 33.31 15.223 -2.711 1.125 c 1.633 3.112 3.528 5.497 3.531 9.34 0.001 1.411 -0.569 3.01 -1.92 4.199 -1.228 1.08 -2.829 1.718 -4.738 1.455 -1.997 -0.275 -3.37 -1.182 -4.227 -2.215 -1.346 -1.761 -1.569 -4.01 -0.482 -5.657 0.62 -0.939 1.997 -1.737 3.361 -1.62 2.406 0.205 3.753 1.527 3.732 3.526 -0.021 2.034 -1.475 2.815 -3.106 2.676 1.526 0.668 3.831 -0.206 3.822 -2.447 -0.012 -3.02 -2.065 -4.474 -4.281 -4.486 -2.289 -0.013 -3.555 0.832 -4.289 1.977 -0.734 1.145 -0.932 2.655 -0.85 3.889 0.084 1.253 1 2.768 2.387 3.939 1.385 1.171 3.245 1.996 5.193 1.996 3.137 0 7.304 -3.165 7.27 -7.816 -0.035 -4.652 -1.402 -7.414 -2.693 -9.879 z" style="fill:#a9c1e3;fill-opacity:1;stroke:none;fill-rule:nonzero"/>
   </g>
  </g>
 </g>
 <g>
  <path d="m 40.03 7.531 c 3.712 4.084 5.969 9.514 5.969 15.469 0 12.703 -10.297 23 -23 23 c -5.954 0 -11.384 -2.256 -15.469 -5.969 4.178 4.291 10.01 6.969 16.469 6.969 c 12.703 0 23 -10.298 23 -23 0 -6.462 -2.677 -12.291 -6.969 -16.469 z" style="opacity:0.1"/>
 </g>
</svg>
