<svg version="1.1" viewBox="0 0 48 48" xmlns="http://www.w3.org/2000/svg">
 <defs>
  <linearGradient id="bg" x2="0" y1="1" y2="47" gradientUnits="userSpaceOnUse">
   <stop style="stop-color:#30374c" offset="0"/>
   <stop style="stop-color:#282e3f" offset="1"/>
  </linearGradient>
 </defs>
 <path d="m36.31 5c5.859 4.062 9.688 10.831 9.688 18.5 0 12.426-10.07 22.5-22.5 22.5-7.669 0-14.438-3.828-18.5-9.688 1.037 1.822 2.306 3.499 3.781 4.969 4.085 3.712 9.514 5.969 15.469 5.969 12.703 0 23-10.298 23-23 0-5.954-2.256-11.384-5.969-15.469-1.469-1.475-3.147-2.744-4.969-3.781zm4.969 3.781c3.854 4.113 6.219 9.637 6.219 15.719 0 12.703-10.297 23-23 23-6.081 0-11.606-2.364-15.719-6.219 4.16 4.144 9.883 6.719 16.219 6.719 12.703 0 23-10.298 23-23 0-6.335-2.575-12.06-6.719-16.219z" style="opacity:.05"/>
 <path d="m41.28 8.781c3.712 4.085 5.969 9.514 5.969 15.469 0 12.703-10.297 23-23 23-5.954 0-11.384-2.256-15.469-5.969 4.113 3.854 9.637 6.219 15.719 6.219 12.703 0 23-10.298 23-23 0-6.081-2.364-11.606-6.219-15.719z" style="opacity:.1"/>
 <path d="m31.25 2.375c8.615 3.154 14.75 11.417 14.75 21.13 0 12.426-10.07 22.5-22.5 22.5-9.708 0-17.971-6.135-21.12-14.75a23 23 0 0 0 44.875-7 23 23 0 0 0-16-21.875z" style="opacity:.2"/>
 <path d="m24 1a23 23 0 0 0-23 23 23 23 0 0 0 0.27344 3.4102l2.0918 6.7168 0.0019531 0.007813a23 23 0 0 0 20.633 12.865 23 23 0 0 0 23-23 23 23 0 0 0-1.1445-7.0781s-0.001949-0.00585-0.001953-0.005859c-0.005506-0.010884-3.1895-6.3066-3.1895-6.3066a23 23 0 0 0-18.664-9.6094z" style="fill:url(#bg)"/>
 <path d="m43.562 11.938c-0.24815 0.76811-0.40895 1.5608-0.60352 2.3438-0.71414 2.8738-1.959 8.7188-3.959 8.7188-2.1707 0-3-10-6-10-1 0-2.008 1.053-2.5 2-2.9188 5.6174-3.5 9-6.5 18 0-5 0.09861-13.555-2-19-0.36117-0.93704-1-2.0072-3-2-1.4352 0.0052-2.8687 0.97555-3.6699 2.9531-1.5288 3.7313-2.1012 9.0469-3.3301 14.047-1 0-2-11-5-11-3 0-3.2078 4.0364-4.2012 7.9219-0.18809 0.92418-0.36599 1.8514-0.58984 2.7695-0.1342 0.55042-0.24101 1.0741-0.33203 1.5781 0.54239 1.8868 1.3241 3.6965 2.3262 5.3848 1.0539-3.6123 1.8716-6.7949 2.7969-9.6543 0.33765 0.9203 0.79299 2.9869 1.2402 4.4727 0.76062 2.5269 1.7598 5.5273 3.7598 5.5273 2 0 2.4588-1.7375 3-3 1.9659-4.5857 3-15 4-15s1 11 1 17c0 1 0 3 2 3 2.1986 0 3.1179-1.474 4.2734-3.2012 2.6379-3.9429 5.4948-13.799 6.7266-13.799 1.6783 0 2 8 6 8 3.9448 0 5.7646-6.7832 7.4082-10.059-0.55576-2.4756-1.5173-4.8422-2.8457-7.0039z" style="opacity:.1;stroke-width:.023221"/>
 <path d="m42.664 10.609c-0.3288 0.89983-0.50875 1.8739-0.70508 2.6719-0.71414 2.8738-1.959 8.7188-3.959 8.7188-2.1707 0-3-10-6-10-1 0-2.008 1.053-2.5 2-2.9188 5.6174-3.5 9-6.5 18 0-5 0.09861-13.555-2-19-0.36117-0.93704-1-2.0072-3-2-1.4352 0.0052-2.8687 0.97555-3.6699 2.9531-1.5288 3.7313-2.1012 9.0469-3.3301 14.047-1 0-2-11-5-11-3 0-3.2078 4.0364-4.2012 7.9219-0.16879 0.82935-0.32874 1.6616-0.52539 2.4863 0.34835 2.3364 1.0545 4.6052 2.0938 6.7266 1.0026-3.6111 1.7021-6.2588 2.6328-9.1348 0.33765 0.9203 0.79299 2.9869 1.2402 4.4727 0.76062 2.5269 1.7598 5.5273 3.7598 5.5273 2 0 2.4588-1.7375 3-3 1.9659-4.5857 3-15 4-15s1 11 1 17c0 1 0 3 2 3 2.1986 0 3.1179-1.474 4.2734-3.2012 2.6379-3.9429 5.4948-13.799 6.7266-13.799 1.6783 0 2 8 6 8 4 0 5.8166-6.9897 7.4785-10.209 0.14854-0.28773 0.27038-0.57857 0.37695-0.86914-0.73195-2.2561-1.8085-4.3855-3.1914-6.3125z" style="fill:#f3f4f7;stroke-width:.023221"/>
 <path d="m40.03 7.531c3.712 4.084 5.969 9.514 5.969 15.469 0 12.703-10.297 23-23 23-5.954 0-11.384-2.256-15.469-5.969 4.178 4.291 10.01 6.969 16.469 6.969 12.703 0 23-10.298 23-23 0-6.462-2.677-12.291-6.969-16.469z" style="opacity:.1"/>
</svg>
