<svg xmlns="http://www.w3.org/2000/svg" viewBox="0 0 48 48">
 <defs>
  <linearGradient id="linearGradient3764" x1="1" x2="47" gradientUnits="userSpaceOnUse" gradientTransform="matrix(0,-1,1,0,-1.5e-6,47.999998)">
   <stop style="stop-color:#404a73;stop-opacity:1"/>
   <stop offset="1" style="stop-color:#485380;stop-opacity:1"/>
  </linearGradient>
  <radialGradient id="radialGradient4264" cx="1.147" cy="33.941" r="8.777" gradientTransform="matrix(1,0,0,1.5000001,1.4147047,-16.970561)" gradientUnits="userSpaceOnUse">
   <stop style="stop-color:#c8c8c8;stop-opacity:1"/>
   <stop offset="1" style="stop-color:#d8d8d8;stop-opacity:1"/>
  </radialGradient>
 </defs>
 <g>
  <path d="m 36.31 5 c 5.859 4.062 9.688 10.831 9.688 18.5 c 0 12.426 -10.07 22.5 -22.5 22.5 c -7.669 0 -14.438 -3.828 -18.5 -9.688 c 1.037 1.822 2.306 3.499 3.781 4.969 c 4.085 3.712 9.514 5.969 15.469 5.969 c 12.703 0 23 -10.298 23 -23 c 0 -5.954 -2.256 -11.384 -5.969 -15.469 c -1.469 -1.475 -3.147 -2.744 -4.969 -3.781 z m 4.969 3.781 c 3.854 4.113 6.219 9.637 6.219 15.719 c 0 12.703 -10.297 23 -23 23 c -6.081 0 -11.606 -2.364 -15.719 -6.219 c 4.16 4.144 9.883 6.719 16.219 6.719 c 12.703 0 23 -10.298 23 -23 c 0 -6.335 -2.575 -12.06 -6.719 -16.219 z" style="opacity:0.05"/>
  <path d="m 41.28 8.781 c 3.712 4.085 5.969 9.514 5.969 15.469 c 0 12.703 -10.297 23 -23 23 c -5.954 0 -11.384 -2.256 -15.469 -5.969 c 4.113 3.854 9.637 6.219 15.719 6.219 c 12.703 0 23 -10.298 23 -23 c 0 -6.081 -2.364 -11.606 -6.219 -15.719 z" style="opacity:0.1"/>
  <path d="m 31.25 2.375 c 8.615 3.154 14.75 11.417 14.75 21.13 c 0 12.426 -10.07 22.5 -22.5 22.5 c -9.708 0 -17.971 -6.135 -21.12 -14.75 a 23 23 0 0 0 44.875 -7 a 23 23 0 0 0 -16 -21.875 z" style="opacity:0.2"/>
 </g>
 <g>
  <path d="m 24 1 c 12.703 0 23 10.297 23 23 c 0 12.703 -10.297 23 -23 23 -12.703 0 -23 -10.297 -23 -23 0 -12.703 10.297 -23 23 -23 z" style="fill:url(#linearGradient3764);fill-opacity:1"/>
 </g>
 <g>
  <path d="m 40.03 7.531 c 3.712 4.084 5.969 9.514 5.969 15.469 0 12.703 -10.297 23 -23 23 c -5.954 0 -11.384 -2.256 -15.469 -5.969 4.178 4.291 10.01 6.969 16.469 6.969 c 12.703 0 23 -10.298 23 -23 0 -6.462 -2.677 -12.291 -6.969 -16.469 z" style="opacity:0.1"/>
 </g>
 <path d="m 22.627 12 a 13.166 8.777 45 0 0 -5.131 1.879 13.166 8.777 45 0 0 -0.438 0.496 C 13.892 18.03 12.853 24.851 15.58 29.889 L 14 37 l 8 0 -0.424 -1.91 c 5.076 1.932 11.345 0.602 14.539 -2.592 A 13.166 8.777 45 0 0 33.01 16.982 13.166 8.777 45 0 0 22.627 12" style="fill:#000;opacity:0.1;fill-opacity:1;stroke:none"/>
 <path d="m 15 27 4 0 2 9 -8 0 z" style="fill:#888;opacity:1;fill-opacity:1;stroke:none"/>
 <path d="m 14.764 28.06 c 0.566 1.636 1.458 3.163 2.732 4.438 0.953 0.953 2.049 1.691 3.225 2.242 l -1.721 -7.74" style="fill:#000;opacity:0.1;fill-opacity:1;stroke:none"/>
 <path d="m 16.502 12.879 18.619 18.619 c -4.138 4.138 -13.447 5.172 -18.619 0 -5.172 -5.172 -4.138 -14.482 0 -18.619 z" style="fill:#a0a0a0;opacity:1;fill-opacity:1;stroke:none"/>
 <ellipse cx="2.562" cy="33.941" rx="8.777" ry="13.166" transform="matrix(0.70710678,-0.70710678,0.70710678,0.70710678,0,0)" style="fill:url(#radialGradient4264);opacity:1;fill-opacity:1;stroke:none"/>
 <path d="m 29.601 18.899 a 1.5 1.5 0 0 0 -1.412 1 l -5.588 0 c -0.277 0 -0.5 0.223 -0.5 0.5 0 0.277 0.223 0.5 0.5 0.5 l 5.588 0 a 1.5 1.5 0 0 0 0.059 0.141 l -3.998 3.998 c -0.197 0.197 -0.197 0.515 0 0.713 0.197 0.197 0.515 0.197 0.713 0 l 3.998 -3.998 a 1.5 1.5 0 0 0 0.141 0.059 l 0 5.588 c 0 0.277 0.223 0.5 0.5 0.5 0.277 0 0.5 -0.223 0.5 -0.5 l 0 -5.588 a 1.5 1.5 0 0 0 1 -1.412 1.5 1.5 0 0 0 -1.5 -1.5 z" style="fill:#000;opacity:0.1;fill-opacity:1;stroke:none"/>
 <g transform="translate(-50.898679,-11.101321)" style="fill:#525252;fill-opacity:1">
  <circle r="1.5" cy="30.5" cx="79.5" style="opacity:1;stroke:none"/>
  <rect y="30" x="72" height="1" width="8" rx="0.5" style="opacity:1;stroke:none"/>
  <rect y="30" x="79" height="8" width="1" rx="0.5" style="opacity:1;stroke:none"/>
  <rect transform="matrix(0.70710678,0.70710678,-0.70710678,0.70710678,0,0)" width="1.01" height="8.07" x="77.28" y="-35.15" rx="0.504" style="opacity:1;stroke:none"/>
 </g>
</svg>
