<svg version="1.1" viewBox="0 0 48 48" xmlns="http://www.w3.org/2000/svg">
 <defs>
  <linearGradient id="bg" x2="0" y1="1" y2="47" gradientUnits="userSpaceOnUse">
   <stop style="stop-color:#de7359" offset="0"/>
   <stop style="stop-color:#da6447" offset="1"/>
  </linearGradient>
 </defs>
 <path d="m36.31 5c5.859 4.062 9.688 10.831 9.688 18.5 0 12.426-10.07 22.5-22.5 22.5-7.669 0-14.438-3.828-18.5-9.688 1.037 1.822 2.306 3.499 3.781 4.969 4.085 3.712 9.514 5.969 15.469 5.969 12.703 0 23-10.298 23-23 0-5.954-2.256-11.384-5.969-15.469-1.469-1.475-3.147-2.744-4.969-3.781zm4.969 3.781c3.854 4.113 6.219 9.637 6.219 15.719 0 12.703-10.297 23-23 23-6.081 0-11.606-2.364-15.719-6.219 4.16 4.144 9.883 6.719 16.219 6.719 12.703 0 23-10.298 23-23 0-6.335-2.575-12.06-6.719-16.219z" style="opacity:.05"/>
 <path d="m41.28 8.781c3.712 4.085 5.969 9.514 5.969 15.469 0 12.703-10.297 23-23 23-5.954 0-11.384-2.256-15.469-5.969 4.113 3.854 9.637 6.219 15.719 6.219 12.703 0 23-10.298 23-23 0-6.081-2.364-11.606-6.219-15.719z" style="opacity:.1"/>
 <path d="m31.25 2.375c8.615 3.154 14.75 11.417 14.75 21.13 0 12.426-10.07 22.5-22.5 22.5-9.708 0-17.971-6.135-21.12-14.75a23 23 0 0 0 44.875-7 23 23 0 0 0-16-21.875z" style="opacity:.2"/>
 <circle cx="24" cy="24" r="23" style="fill:url(#bg)"/>
 <path d="m40.03 7.531c3.712 4.084 5.969 9.514 5.969 15.469 0 12.703-10.297 23-23 23-5.954 0-11.384-2.256-15.469-5.969 4.178 4.291 10.01 6.969 16.469 6.969 12.703 0 23-10.298 23-23 0-6.462-2.677-12.291-6.969-16.469z" style="opacity:.1"/>
 <path d="m15 16-2 0.5v1c0 0.277 0.223 0.5 0.5 0.5h1.5v2l-2 0.5v1c0 0.277 0.223 0.5 0.5 0.5h1.5v2l-2 0.5v1c0 0.277 0.223 0.5 0.5 0.5h1.5v2l-2 0.5v1c0 0.277 0.223 0.5 0.5 0.5h1.5v2l-2 0.5v1c0 0.277 0.223 0.5 0.5 0.5h1.5c0 1.662 1.338 3 3 3h14c1.662 0 3-1.338 3-3v-2e-3h1c0.554 0 1-0.446 1-1v-2c0-0.554-0.446-1-1-1h-1v-2.998h1c0.554 0 1-0.446 1-1v-2c0-0.554-0.446-1-1-1h-1v-3.002h1c0.554 0 1-0.446 1-1v-2c0-0.554-0.446-1-1-1h-1c-0.0011-1.6611-1.3387-2.998-3-2.998z" style="opacity:.1"/>
 <rect x="33" y="28.998" width="3" height="4" rx="1" style="fill:#848fc4"/>
 <rect x="33" y="22" width="3" height="4" rx="1" style="fill:#f98080"/>
 <rect x="33" y="14.999" width="3" height="4" rx="1" style="fill:#f8cb26"/>
 <path d="m18 12h13c1.662 0 3 1.338 3 3v18c0 1.662-1.338 3-3 3h-13l-2-12z" style="fill:#f9f9f9"/>
 <path d="m16.999 12c-1.6612 0-2.9985 1.338-2.9985 3v18c0 1.662 1.3373 3 2.9985 3h1.0015v-24z" style="fill:#c5c5c5"/>
 <rect x="12" y="19" width="4" height="2" rx=".5" style="fill:#80574c"/>
 <rect x="12" y="23" width="4" height="2" rx=".5" style="fill:#80574c"/>
 <rect x="12" y="27" width="4" height="2" rx=".5" style="fill:#80574c"/>
 <rect x="12" y="31" width="4" height="2" rx=".5" style="fill:#80574c"/>
 <rect x="12" y="15" width="4" height="2" rx=".5" style="fill:#80574c"/>
 <path d="m25 17c-2 0-3 1.2909-3 3.5 0 2.5 1 2.5 1 4.5 0 1.5-4 1-4 4 0 1.3 2.4 2 6 2s6-0.7 6-2c0-3-4-2.5-4-4 0-2 1-2 1-4.5 0-2.2091-1-3.5-3-3.5z" style="fill:#6a6e84"/>
</svg>
