<svg version="1.1" viewBox="0 0 48 48" xmlns="http://www.w3.org/2000/svg">
 <defs>
  <linearGradient id="linearGradient1059" x1="1" x2="47" y1="1" y2="1" gradientTransform="translate(-48)" gradientUnits="userSpaceOnUse">
   <stop style="stop-color:#bbbcdf" offset="0"/>
   <stop style="stop-color:#c8c8e5" offset="1"/>
  </linearGradient>
 </defs>
 <path d="m36.31 5c5.859 4.062 9.688 10.831 9.688 18.5 0 12.426-10.07 22.5-22.5 22.5-7.669 0-14.438-3.828-18.5-9.688 1.037 1.822 2.306 3.499 3.781 4.969 4.085 3.712 9.514 5.969 15.469 5.969 12.703 0 23-10.298 23-23 0-5.954-2.256-11.384-5.969-15.469-1.469-1.475-3.147-2.744-4.969-3.781zm4.969 3.781c3.854 4.113 6.219 9.637 6.219 15.719 0 12.703-10.297 23-23 23-6.081 0-11.606-2.364-15.719-6.219 4.16 4.144 9.883 6.719 16.219 6.719 12.703 0 23-10.298 23-23 0-6.335-2.575-12.06-6.719-16.219z" style="opacity:.05"/>
 <path d="m41.28 8.781c3.712 4.085 5.969 9.514 5.969 15.469 0 12.703-10.297 23-23 23-5.954 0-11.384-2.256-15.469-5.969 4.113 3.854 9.637 6.219 15.719 6.219 12.703 0 23-10.298 23-23 0-6.081-2.364-11.606-6.219-15.719z" style="opacity:.1"/>
 <path d="m31.25 2.375c8.615 3.154 14.75 11.417 14.75 21.13 0 12.426-10.07 22.5-22.5 22.5-9.708 0-17.971-6.135-21.12-14.75a23 23 0 0 0 44.875-7 23 23 0 0 0-16-21.875z" style="opacity:.2"/>
 <circle transform="rotate(-90)" cx="-24" cy="24" r="23" style="fill:url(#linearGradient1059)"/>
 <path d="m25 13c-2.2091 0-4 1.7909-4 4 0.0013 0.33752 0.04522 0.67352 0.13086 1 0 0-10.131 13-10.131 13 0 0.554 0.446 1 1 1h6.0781c0.49676 3.4416 3.4446 5.9985 6.9219 6 3.3358 0.0015 6.2081-2.3542 6.8633-5.625 0.63874 0.40633 1.3797 0.6245 2.1367 0.625 2.2091 0.0014 4-1.7909 4-4v-7c0-0.554-0.446-1-1-1l-13 1v-1.1328c0.32639 0.08629 0.6624 0.13092 1 0.13281 2.2091 0 4-1.7909 4-4s-1.7909-4-4-4zm9 1c-1.6569 0-3 1.3431-3 3s1.3431 3 3 3 3-1.3431 3-3-1.3431-3-3-3z" style="fill-opacity:.99476;opacity:.1"/>
 <path d="m40.03 7.531c3.712 4.084 5.969 9.514 5.969 15.469 0 12.703-10.297 23-23 23-5.954 0-11.384-2.256-15.469-5.969 4.178 4.291 10.01 6.969 16.469 6.969 12.703 0 23-10.298 23-23 0-6.462-2.677-12.291-6.969-16.469z" style="opacity:.1"/>
 <path d="m33 13a3 3 0 0 0-3 3 3 3 0 0 0 3 3 3 3 0 0 0 3-3 3 3 0 0 0-3-3zm-3 7c-0.554 0-1 0.446-1 1v7a4 4 0 0 0 4 4 4 4 0 0 0 4-4v-7c0-0.554-0.446-1-1-1h-6z" style="fill-opacity:.99476;fill:#505aca"/>
 <path d="m24 12a4 4 0 0 0-4 4 4 4 0 0 0 4 4 4 4 0 0 0 4-4 4 4 0 0 0-4-4zm-5 9c-1.108 0-2 0.892-2 2v7a7 7 0 0 0 7 7 7 7 0 0 0 7-7v-7c0-1.108-0.892-2-2-2h-10z" style="fill:#7b83eb"/>
 <path d="m24 20c0.33735 2.1e-5 0.67335-0.04264 1-0.12695v-0.87305c0-0.554-0.446-1-1-1zm-5 1-2 9c3.81e-4 0.67733 0.09907 1.351 0.29297 2h6.707c0.554 0 1-0.446 1-1v-10z" style="opacity:.1"/>
 <path d="m11 17h12c0.554 0 1 0.446 1 1v12c0 0.554-0.446 1-1 1h-12c-0.554 0-1-0.446-1-1v-12c0-0.554 0.446-1 1-1z" style="fill:#4b53bc"/>
 <path d="m13 20v2h3v6h2v-6h3v-2z" style="fill:#f6f3f9"/>
</svg>
