<svg version="1.1" viewBox="0 0 48 48" xmlns="http://www.w3.org/2000/svg" xmlns:xlink="http://www.w3.org/1999/xlink">
 <defs>
  <linearGradient id="linearGradient903" x1="-27" x2="-24" y1="10.913" y2="10.913" gradientUnits="userSpaceOnUse">
   <stop style="stop-color:#e25543" offset="0"/>
   <stop style="stop-color:#e56453" offset="1"/>
  </linearGradient>
 </defs>
 <path d="m36.31 5c5.859 4.062 9.688 10.831 9.688 18.5 0 12.426-10.07 22.5-22.5 22.5-7.669 0-14.438-3.828-18.5-9.688 1.037 1.822 2.306 3.499 3.781 4.969 4.085 3.712 9.514 5.969 15.469 5.969 12.703 0 23-10.298 23-23 0-5.954-2.256-11.384-5.969-15.469-1.469-1.475-3.147-2.744-4.969-3.781zm4.969 3.781c3.854 4.113 6.219 9.637 6.219 15.719 0 12.703-10.297 23-23 23-6.081 0-11.606-2.364-15.719-6.219 4.16 4.144 9.883 6.719 16.219 6.719 12.703 0 23-10.298 23-23 0-6.335-2.575-12.06-6.719-16.219z" style="opacity:.05"/>
 <path d="m41.28 8.781c3.712 4.085 5.969 9.514 5.969 15.469 0 12.703-10.297 23-23 23-5.954 0-11.384-2.256-15.469-5.969 4.113 3.854 9.637 6.219 15.719 6.219 12.703 0 23-10.298 23-23 0-6.081-2.364-11.606-6.219-15.719z" style="opacity:.1"/>
 <path d="m31.25 2.375c8.615 3.154 14.75 11.417 14.75 21.13 0 12.426-10.07 22.5-22.5 22.5-9.708 0-17.971-6.135-21.12-14.75a23 23 0 0 0 44.875-7 23 23 0 0 0-16-21.875z" style="opacity:.2"/>
 <path transform="matrix(0 -15.333 11.5 0 -125.5 -367)" d="m-24 13a1.5 2 0 1 1-3 0 1.5 2 0 1 1 3 0z" style="fill:url(#linearGradient903)"/>
 <g transform="translate(1)" style="opacity:.1">
  <path transform="translate(-1)" d="m19.812 11c-1.01 0-1.8125 0.65838-1.8125 1.4844v20.031c0 0.825 0.8085 1.4844 1.8125 1.4844h0.1875v4h10v-4h0.1875c1.012 0 1.8125-0.65838 1.8125-1.4844v-20.031c0-0.825-0.8045-1.4844-1.8125-1.4844h-10.375zm2.1914 24h1.9961v2h-1.9961v-2zm3.9961 0h2v2h-2v-2z"/>
 </g>
 <path d="m18.813 10c-1.01 0-1.813 0.659-1.813 1.485v20.03c0 0.825 0.809 1.485 1.813 1.485h10.374c1.012 0 1.813-0.659 1.813-1.485v-20.03c0-0.825-0.805-1.485-1.813-1.485" style="fill:#f9f9f9"/>
 <path d="m19 32.934v4.066h10v-4.066m-7.996 1.066h1.996v2h-1.996m3.996-2h2v2h-2" style="fill:#f9f9f9"/>
 <path d="m40.03 7.531c3.712 4.084 5.969 9.514 5.969 15.469 0 12.703-10.297 23-23 23-5.954 0-11.384-2.256-15.469-5.969 4.178 4.291 10.01 6.969 16.469 6.969 12.703 0 23-10.298 23-23 0-6.462-2.677-12.291-6.969-16.469z" style="opacity:.1"/>
</svg>
