<svg version="1.1" viewBox="0 0 48 48" xmlns="http://www.w3.org/2000/svg">
 <defs>
  <linearGradient id="linearGradient3912" x1="1" x2="47" gradientUnits="userSpaceOnUse">
   <stop style="stop-color:#95cef9" offset="0"/>
   <stop style="stop-color:#a8d7fa" offset="1"/>
  </linearGradient>
 </defs>
 <path d="m36.31 5c5.859 4.062 9.688 10.831 9.688 18.5 0 12.426-10.07 22.5-22.5 22.5-7.669 0-14.438-3.828-18.5-9.688 1.037 1.822 2.306 3.499 3.781 4.969 4.085 3.712 9.514 5.969 15.469 5.969 12.703 0 23-10.298 23-23 0-5.954-2.256-11.384-5.969-15.469-1.469-1.475-3.147-2.744-4.969-3.781zm4.969 3.781c3.854 4.113 6.219 9.637 6.219 15.719 0 12.703-10.297 23-23 23-6.081 0-11.606-2.364-15.719-6.219 4.16 4.144 9.883 6.719 16.219 6.719 12.703 0 23-10.298 23-23 0-6.335-2.575-12.06-6.719-16.219z" style="opacity:.05"/>
 <path d="m41.28 8.781c3.712 4.085 5.969 9.514 5.969 15.469 0 12.703-10.297 23-23 23-5.954 0-11.384-2.256-15.469-5.969 4.113 3.854 9.637 6.219 15.719 6.219 12.703 0 23-10.298 23-23 0-6.081-2.364-11.606-6.219-15.719z" style="opacity:.1"/>
 <path d="m31.25 2.375c8.615 3.154 14.75 11.417 14.75 21.13 0 12.426-10.07 22.5-22.5 22.5-9.708 0-17.971-6.135-21.12-14.75a23 23 0 0 0 44.875-7 23 23 0 0 0-16-21.875z" style="opacity:.2"/>
 <g transform="matrix(0,-1,1,0,0,48)" style="fill:url(#linearGradient3912)">
  <path d="m24 1c12.703 0 23 10.297 23 23s-10.297 23-23 23-23-10.297-23-23 10.297-23 23-23z"/>
 </g>
 <path d="m25 10.002c-4.144 0-6.855 2.38-8.137 5.174-1.596-0.05-3.192-0.1-4.783-0.174-0.586-0.031-1.145 0.648-1.066 1.098 1.01 6.68 1.063 12.918 0 19.801-0.074 0.453 0.48 1.121 1.066 1.098h25.836c0.598 0.023 1.148-0.645 1.078-1.098-1.063-6.879-1.078-13.199 0-19.801 0.078-0.453-0.48-1.133-1.078-1.098-1.598 0.087-3.185 0.136-4.773 0.188-1.28-2.8-3.995-5.188-8.143-5.188zm0 1c3.2 0 5.576 1.981 6.875 4.236-4.613 0.123-9.19 0.108-13.74-0.016 1.301-2.249 3.672-4.221 6.865-4.221z" style="opacity:.1"/>
 <path d="m40.03 7.531c3.712 4.084 5.969 9.514 5.969 15.469 0 12.703-10.297 23-23 23-5.954 0-11.384-2.256-15.469-5.969 4.178 4.291 10.01 6.969 16.469 6.969 12.703 0 23-10.298 23-23 0-6.462-2.677-12.291-6.969-16.469z" style="opacity:.1"/>
 <path d="m11.08 14.002c-0.586-0.031-1.145 0.648-1.066 1.098 1.01 6.68 1.063 12.918 0 19.801-0.073999 0.453 0.48 1.121 1.066 1.098h25.836c0.598 0.023 1.148-0.645 1.078-1.098-1.063-6.879-1.078-13.199 0-19.801 0.078-0.453-0.48-1.133-1.078-1.098-8.738 0.473-17.32 0.395-25.836 0" style="fill:#f8ecde"/>
 <path d="m17 18.502c0 0.828-0.672 1.5-1.5 1.5s-1.5-0.672-1.5-1.5 0.672-1.5 1.5-1.5 1.5 0.672 1.5 1.5" style="fill:#a9946f"/>
 <path d="m34 18.502c0 0.828-0.672 1.5-1.5 1.5s-1.5-0.672-1.5-1.5 0.672-1.5 1.5-1.5 1.5 0.672 1.5 1.5" style="fill:#a9946f"/>
 <path d="m15.5 19.002c-0.5 0-0.5-0.578-0.5-1 0-4.01 3-9 9-9 5.996 0 9 4.988 9 9 0 0.422 0 1-0.5 1s-0.5-0.578-0.5-1c0-3.168-3-8-8-8s-8 4.832-8 8c0 0.422 0 1-0.496 1" style="fill:#e5d6be"/>
 <path d="m25 21.002-2 0.146v8.307l2-0.254v-3.626c0.904 1.365 1.587 2.634 2.797 3.954l2.16-0.621c-1.156-1.34-2.02-2.519-2.808-3.806 0.82-1.209 1.847-2.423 2.851-3.509l-2.238-0.549c-1.045 1.177-1.93 2.394-2.762 3.616m-4.795-1.957c-0.029 4e-3 -0.064 0.021-0.092 0.049-0.246 0.232-0.478 0.465-0.722 0.697-0.107 0.103 2e-3 0.226 0.049 0.312l0.496 0.685 0.371 0.5c0.052 0.072 0.068 0.08 0.041 0.131-0.033 0.052-0.06 0.095-0.092 0.148-0.482 0.81-0.144 0.873-1.177 1.136l-0.791 0.131c-0.117 0.039-0.269 0.035-0.277 0.197 0 0.328-1e-3 0.654-1e-3 0.98-6e-3 0.15 0.162 0.164 0.261 0.189l0.842 0.146 0.631 0.115c0.086 0.012 0.105-8e-3 0.125 0.056 0.258 1.088 0.595 0.838 0.033 1.789l-0.453 0.631c-0.06 0.109-0.172 0.217-0.058 0.328 0.238 0.236 0.467 0.474 0.707 0.711 0.105 0.103 0.242-2e-3 0.328-0.049l0.697-0.484 0.521-0.351c0.072-0.058 0.082-0.072 0.135-0.041 1.045 0.638 1.082 0.177 1.386 1.252l0.15 0.769c0.039 0.115 0.043 0.263 0.203 0.269h1.015c0.152 0 0.166-0.174 0.185-0.269l0.142-0.818 0.101-0.605c6e-3 -0.058 4e-3 -0.088 0.015-0.107 1.224-0.252 0.92-0.607 1.916-0.041l0.646 0.441c0.119 0.058 0.232 0.16 0.345 0.051 0.24-0.226 0.478-0.455 0.719-0.679 0.107-0.109 2e-3 -0.234-0.049-0.318h-1e-3l-0.47-0.646-0.31 0.105c-0.08 0.052-0.185 0.033-0.279-0.09l-0.679-0.875c-0.635 0.855-1.662 1.408-2.825 1.408-1.916 0-3.48-1.521-3.48-3.388 0-1.326 0.789-2.474 1.933-3.03v-0.779c-0.039 0.019-0.084 0.029-0.117 0.041-0.447 0.181-0.476 0.263-1.209-0.146l-0.646-0.449c-0.09-0.039-0.17-0.113-0.252-0.094m2.22 1.742c-0.972 0.535-1.633 1.56-1.633 2.726 0 1.72 1.441 3.126 3.214 3.126 1.095 0 2.056-0.541 2.636-1.363l-0.031-0.066c-0.679 0.734-1.447 1.211-2.614 1.236-1.455 0.025-2.927-1.236-2.935-2.898-0.012-1.072 0.496-1.793 1.361-2.306v-0.451" style="fill-rule:evenodd;fill:#36a2f4"/>
</svg>
