<svg xmlns="http://www.w3.org/2000/svg" viewBox="0 0 48 48">
 <defs>
  <linearGradient id="linearGradient3912" x1="1" x2="47" gradientUnits="userSpaceOnUse">
   <stop style="stop-color:#95cef9;stop-opacity:1"/>
   <stop offset="1" style="stop-color:#a8d7fa;stop-opacity:1"/>
  </linearGradient>
 </defs>
 <g>
  <path d="m 36.31,5 c 5.859,4.062 9.688,10.831 9.688,18.5 0,12.426 -10.07,22.5 -22.5,22.5 -7.669,0 -14.438,-3.828 -18.5,-9.688 1.037,1.822 2.306,3.499 3.781,4.969 4.085,3.712 9.514,5.969 15.469,5.969 12.703,0 23,-10.298 23,-23 0,-5.954 -2.256,-11.384 -5.969,-15.469 C 39.81,7.306 38.132,6.037 36.31,5 z m 4.969,3.781 c 3.854,4.113 6.219,9.637 6.219,15.719 0,12.703 -10.297,23 -23,23 -6.081,0 -11.606,-2.364 -15.719,-6.219 4.16,4.144 9.883,6.719 16.219,6.719 12.703,0 23,-10.298 23,-23 0,-6.335 -2.575,-12.06 -6.719,-16.219 z" style="opacity:0.05"/>
  <path d="m 41.28 8.781 c 3.712 4.085 5.969 9.514 5.969 15.469 0 12.703 -10.297 23 -23 23 -5.954 0 -11.384 -2.256 -15.469 -5.969 4.113 3.854 9.637 6.219 15.719 6.219 12.703 0 23 -10.298 23 -23 0 -6.081 -2.364 -11.606 -6.219 -15.719 z" style="opacity:0.1"/>
  <path d="M 31.25,2.375 C 39.865,5.529 46,13.792 46,23.505 c 0,12.426 -10.07,22.5 -22.5,22.5 -9.708,0 -17.971,-6.135 -21.12,-14.75 a 23,23 0 0 0 44.875,-7 23,23 0 0 0 -16,-21.875 z" style="opacity:0.2"/>
 </g>
 <g transform="matrix(0,-1,1,0,0,48)" style="fill:url(#linearGradient3912);fill-opacity:1">
  <path d="M 24,1 C 36.703,1 47,11.297 47,24 47,36.703 36.703,47 24,47 11.297,47 1,36.703 1,24 1,11.297 11.297,1 24,1 z"/>
 </g>
 <g>
  <g>
   <g transform="translate(1,1)">
    <g style="opacity:0.1">
     <!-- color: #f7b754 -->
     <g>
      <path d="m 25 11 c -4.144 0 -6.855 2.38 -8.137 5.174 c -1.596 -0.05 -3.192 -0.1 -4.783 -0.174 c -0.586 -0.031 -1.145 0.648 -1.066 1.098 c 1.01 6.68 1.063 12.918 0 19.801 c -0.074 0.453 0.48 1.121 1.066 1.098 l 25.836 0 c 0.598 0.023 1.148 -0.645 1.078 -1.098 c -1.063 -6.879 -1.078 -13.199 0 -19.801 c 0.078 -0.453 -0.48 -1.133 -1.078 -1.098 c -1.598 0.087 -3.185 0.136 -4.773 0.188 c -1.28 -2.8 -3.995 -5.188 -8.143 -5.188 z m 0 1 c 3.2 0 5.576 1.981 6.875 4.236 c -4.613 0.123 -9.19 0.108 -13.74 -0.016 c 1.301 -2.249 3.672 -4.221 6.865 -4.221 z" transform="translate(-1,-1)" style="fill:#000;fill-opacity:1;stroke:none;fill-rule:nonzero"/>
     </g>
    </g>
   </g>
  </g>
 </g>
 <g>
  <path d="m 40.03,7.531 c 3.712,4.084 5.969,9.514 5.969,15.469 0,12.703 -10.297,23 -23,23 C 17.045,46 11.615,43.744 7.53,40.031 11.708,44.322 17.54,47 23.999,47 c 12.703,0 23,-10.298 23,-23 0,-6.462 -2.677,-12.291 -6.969,-16.469 z" style="opacity:0.1"/>
 </g>
 <g transform="translate(4.8845858e-4,0)">
  <path d="m 11.08 15 c -0.586 -0.031 -1.145 0.648 -1.066 1.098 1.01 6.68 1.063 12.918 0 19.801 -0.074 0.453 0.48 1.121 1.066 1.098 8.617 0 17.227 0 25.836 0 0.598 0.023 1.148 -0.645 1.078 -1.098 -1.063 -6.879 -1.078 -13.199 0 -19.801 0.078 -0.453 -0.48 -1.133 -1.078 -1.098 -8.738 0.473 -17.32 0.395 -25.836 0 m 0 0" style="fill:#f8ecde;fill-opacity:1;stroke:none;fill-rule:nonzero"/>
  <path d="M 17,19.5 C 17,20.328 16.328,21 15.5,21 14.672,21 14,20.328 14,19.5 14,18.672 14.672,18 15.5,18 c 0.828,0 1.5,0.672 1.5,1.5 m 0,0" style="fill:#a9946f;fill-opacity:1;stroke:none;fill-rule:nonzero"/>
  <path d="M 34,19.5 C 34,20.328 33.328,21 32.5,21 31.672,21 31,20.328 31,19.5 31,18.672 31.672,18 32.5,18 c 0.828,0 1.5,0.672 1.5,1.5 m 0,0" style="fill:#a9946f;fill-opacity:1;stroke:none;fill-rule:nonzero"/>
  <path d="M 15.5,20 C 15,20 15,19.422 15,19 c 0,-4.01 3,-9 9,-9 5.996,0 9,4.988 9,9 0,0.422 0,1 -0.5,1 C 32,20 32,19.422 32,19 c 0,-3.168 -3,-8 -8,-8 -5,0 -8,4.832 -8,8 0,0.422 0,1 -0.496,1 m 0,0" style="fill:#e5d6be;fill-opacity:1;stroke:none;fill-rule:nonzero"/>
  <path d="m 25 22 -2 0.146 0 8.307 2 -0.254 0 -3.626 c 0.904 1.365 1.587 2.634 2.797 3.954 l 2.16 -0.621 c -1.156 -1.34 -2.02 -2.519 -2.808 -3.806 c 0.82 -1.209 1.847 -2.423 2.851 -3.509 l -2.238 -0.549 c -1.045 1.177 -1.93 2.394 -2.762 3.616 m -4.795 -1.957 c -0.029 0.004 -0.064 0.021 -0.092 0.049 -0.246 0.232 -0.478 0.465 -0.722 0.697 -0.107 0.103 0.002 0.226 0.049 0.312 l 0.496 0.685 0.371 0.5 c 0.052 0.072 0.068 0.08 0.041 0.131 -0.033 0.052 -0.06 0.095 -0.092 0.148 -0.482 0.81 -0.144 0.873 -1.177 1.136 l -0.791 0.131 c -0.117 0.039 -0.269 0.035 -0.277 0.197 0 0.328 -0.001 0.654 -0.001 0.98 -0.006 0.15 0.162 0.164 0.261 0.189 l 0.842 0.146 0.631 0.115 c 0.086 0.012 0.105 -0.008 0.125 0.056 0.258 1.088 0.595 0.838 0.033 1.789 l -0.453 0.631 c -0.06 0.109 -0.172 0.217 -0.058 0.328 0.238 0.236 0.467 0.474 0.707 0.711 0.105 0.103 0.242 -0.002 0.328 -0.049 l 0.697 -0.484 0.521 -0.351 c 0.072 -0.058 0.082 -0.072 0.135 -0.041 1.045 0.638 1.082 0.177 1.386 1.252 l 0.15 0.769 c 0.039 0.115 0.043 0.263 0.203 0.269 l 1.015 0 c 0.152 0 0.166 -0.174 0.185 -0.269 l 0.142 -0.818 0.101 -0.605 c 0.006 -0.058 0.004 -0.088 0.015 -0.107 1.224 -0.252 0.92 -0.607 1.916 -0.041 l 0.646 0.441 c 0.119 0.058 0.232 0.16 0.345 0.051 0.24 -0.226 0.478 -0.455 0.719 -0.679 0.107 -0.109 0.002 -0.234 -0.049 -0.318 l -0.001 0 -0.47 -0.646 -0.31 0.105 c -0.08 0.052 -0.185 0.033 -0.279 -0.09 l -0.679 -0.875 c -0.635 0.855 -1.662 1.408 -2.825 1.408 -1.916 0 -3.48 -1.521 -3.48 -3.388 0 -1.326 0.789 -2.474 1.933 -3.03 l 0 -0.779 c -0.039 0.019 -0.084 0.029 -0.117 0.041 -0.447 0.181 -0.476 0.263 -1.209 -0.146 l -0.646 -0.449 c -0.09 -0.039 -0.17 -0.113 -0.252 -0.094 m 2.22 1.742 c -0.972 0.535 -1.633 1.56 -1.633 2.726 0 1.72 1.441 3.126 3.214 3.126 1.095 0 2.056 -0.541 2.636 -1.363 l -0.031 -0.066 c -0.679 0.734 -1.447 1.211 -2.614 1.236 -1.455 0.025 -2.927 -1.236 -2.935 -2.898 -0.012 -1.072 0.496 -1.793 1.361 -2.306 l 0 -0.451" style="fill:#36a2f4;fill-opacity:1;stroke:none;fill-rule:evenodd"/>
 </g>
</svg>
