<svg version="1.1" viewBox="0 0 48 48" xmlns="http://www.w3.org/2000/svg" xmlns:xlink="http://www.w3.org/1999/xlink">
 <defs>
  <linearGradient id="bg" x1="1" x2="47" gradientUnits="userSpaceOnUse">
   <stop style="stop-color:#95cef9" offset="0"/>
   <stop style="stop-color:#a8d7fa" offset="1"/>
  </linearGradient>
  <linearGradient id="linearGradient1481" x1="1" x2="47" gradientUnits="userSpaceOnUse" xlink:href="#bg"/>
 </defs>
 <path d="m36.31 5c5.859 4.062 9.688 10.831 9.688 18.5 0 12.426-10.07 22.5-22.5 22.5-7.669 0-14.438-3.828-18.5-9.688 1.037 1.822 2.306 3.499 3.781 4.969 4.085 3.712 9.514 5.969 15.469 5.969 12.703 0 23-10.298 23-23 0-5.954-2.256-11.384-5.969-15.469-1.469-1.475-3.147-2.744-4.969-3.781zm4.969 3.781c3.854 4.113 6.219 9.637 6.219 15.719 0 12.703-10.297 23-23 23-6.081 0-11.606-2.364-15.719-6.219 4.16 4.144 9.883 6.719 16.219 6.719 12.703 0 23-10.298 23-23 0-6.335-2.575-12.06-6.719-16.219z" style="opacity:.05"/>
 <path d="m41.28 8.781c3.712 4.085 5.969 9.514 5.969 15.469 0 12.703-10.297 23-23 23-5.954 0-11.384-2.256-15.469-5.969 4.113 3.854 9.637 6.219 15.719 6.219 12.703 0 23-10.298 23-23 0-6.081-2.364-11.606-6.219-15.719z" style="opacity:.1"/>
 <path d="m31.25 2.375c8.615 3.154 14.75 11.417 14.75 21.13 0 12.426-10.07 22.5-22.5 22.5-9.708 0-17.971-6.135-21.12-14.75a23 23 0 0 0 44.875-7 23 23 0 0 0-16-21.875z" style="opacity:.2"/>
 <g transform="matrix(0,-1,1,0,0,48)" style="fill:url(#bg)">
  <path d="m24 1c12.703 0 23 10.297 23 23s-10.297 23-23 23-23-10.297-23-23 10.297-23 23-23z" style="fill:url(#linearGradient1481)"/>
 </g>
 <path d="m25 10.002c-4.144 0-6.855 2.38-8.137 5.174-1.596-0.05-3.192-0.1-4.783-0.174-0.586-0.031-1.145 0.648-1.066 1.098 1.01 6.68 1.063 12.918 0 19.801-0.074 0.453 0.48 1.121 1.066 1.098h25.836c0.598 0.023 1.148-0.645 1.078-1.098-1.063-6.879-1.078-13.199 0-19.801 0.078-0.453-0.48-1.133-1.078-1.098-1.598 0.087-3.185 0.136-4.773 0.188-1.28-2.8-3.995-5.188-8.143-5.188zm0 1c3.2 0 5.576 1.981 6.875 4.236-4.613 0.123-9.19 0.108-13.74-0.016 1.301-2.249 3.672-4.221 6.865-4.221z" style="opacity:.1"/>
 <path d="m40.03 7.531c3.712 4.084 5.969 9.514 5.969 15.469 0 12.703-10.297 23-23 23-5.954 0-11.384-2.256-15.469-5.969 4.178 4.291 10.01 6.969 16.469 6.969 12.703 0 23-10.298 23-23 0-6.462-2.677-12.291-6.969-16.469z" style="opacity:.1"/>
 <path d="m11.08 14.002c-0.586-0.031-1.1454 0.64766-1.0664 1.0977 1.01 6.68 1.063 12.918 0 19.801-0.073999 0.453 0.48041 1.1207 1.0664 1.0977h25.836c0.598 0.023 1.1481-0.64466 1.0781-1.0977-1.063-6.879-1.078-13.199 0-19.801 0.078-0.453-0.48012-1.1327-1.0781-1.0977-8.738 0.473-17.32 0.395-25.836 0z" style="fill:#f8ecde"/>
 <path d="m17 18.502c0 0.828-0.672 1.5-1.5 1.5s-1.5-0.672-1.5-1.5 0.672-1.5 1.5-1.5 1.5 0.672 1.5 1.5" style="fill:#a9946f"/>
 <path d="m34 18.502c0 0.828-0.672 1.5-1.5 1.5s-1.5-0.672-1.5-1.5 0.672-1.5 1.5-1.5 1.5 0.672 1.5 1.5" style="fill:#a9946f"/>
 <path d="m15.5 19.002c-0.5 0-0.5-0.578-0.5-1 0-4.01 3-9 9-9 5.996 0 9 4.988 9 9 0 0.422 0 1-0.5 1s-0.5-0.578-0.5-1c0-3.168-3-8-8-8s-8 4.832-8 8c0 0.422 0 1-0.496 1" style="fill:#e5d6be"/>
 <path d="m25 20.5-1.9999 0.24999v8.2498l1.9999-0.24999v-3.25l2.4999 3.5 1.9999-0.49999-2.7499-3.75 2.7499-3.75-1.9999-0.49999-2.4999 3.5zm-4.8886 1.9033-0.70799 0.70801 0.84373 1.4052c-0.31882 0.48156-0.54194 1.02-0.65721 1.5859l-1.5898 0.39747v0.99998l1.5898 0.39747c0.11569 0.56564 0.33915 1.1037 0.6582 1.5849l-0.84471 1.4062 0.70799 0.70801 1.4052-0.84373c0.48164 0.31846 1.0201 0.54126 1.5859 0.65623l0.39745 1.5908h0.99999l0.39745-1.5898c0.56564-0.11565 1.1037-0.33915 1.5849-0.6582l1.4062 0.84471 0.70799-0.70801-0.81932-1.4423-0.48632 0.12113-0.41211-0.57713c-0.65353 0.9454-1.7296 1.5097-2.8788 1.5097-1.933 0-3.5-1.567-3.5-3.5 6.5e-5 -1.3518 0.77861-2.5827 1.9999-3.1621v-1.081c-0.3466 0.12264-0.67685 0.28726-0.98338 0.49022z" style="fill:#36a2f4"/>
</svg>
