<svg version="1.1" viewBox="0 0 48 48" xmlns="http://www.w3.org/2000/svg">
 <defs>
  <linearGradient id="bg" x2="0" y1="1" y2="47" gradientUnits="userSpaceOnUse">
   <stop style="stop-color:#23c8ac" offset="0"/>
   <stop style="stop-color:#20b69d" offset="1"/>
  </linearGradient>
 </defs>
 <path d="m36.3 5c5.86 4.06 9.69 10.8 9.69 18.5 0 12.4-10.1 22.5-22.5 22.5-7.67 0-14.4-3.83-18.5-9.69 1.04 1.82 2.31 3.5 3.78 4.97 4.08 3.71 9.51 5.97 15.5 5.97 12.7 0 23-10.3 23-23 0-5.95-2.26-11.4-5.97-15.5-1.47-1.48-3.15-2.74-4.97-3.78zm4.97 3.78c3.85 4.11 6.22 9.64 6.22 15.7 0 12.7-10.3 23-23 23-6.08 0-11.6-2.36-15.7-6.22 4.16 4.14 9.88 6.72 16.2 6.72 12.7 0 23-10.3 23-23 0-6.34-2.58-12.1-6.72-16.2z" style="opacity:.05"/>
 <path d="m41.3 8.78c3.71 4.08 5.97 9.51 5.97 15.5 0 12.7-10.3 23-23 23-5.95 0-11.4-2.26-15.5-5.97 4.11 3.85 9.64 6.22 15.7 6.22 12.7 0 23-10.3 23-23 0-6.08-2.36-11.6-6.22-15.7z" style="opacity:.1"/>
 <path d="m31.2 2.38c8.62 3.15 14.8 11.4 14.8 21.1 0 12.4-10.1 22.5-22.5 22.5-9.71 0-18-6.14-21.1-14.8a23 23 0 0 0 44.9-7 23 23 0 0 0-16-21.9z" style="opacity:.2"/>
 <circle cx="24" cy="24" r="23" style="fill:url(#bg)"/>
 <path d="m40 7.53c3.71 4.08 5.97 9.51 5.97 15.5 0 12.7-10.3 23-23 23-5.95 0-11.4-2.26-15.5-5.97 4.18 4.29 10 6.97 16.5 6.97 12.7 0 23-10.3 23-23 0-6.46-2.68-12.3-6.97-16.5z" style="opacity:.1"/>
 <path d="m12 33c0 0.554 0.446 1 1 1h7.98c-0.0327 2.39-0.286 2.68-2.48 4h-0.5v1h14v-1h-0.5c-2.19-1.32-2.45-1.61-2.48-4h7.98c0.554 0 1-0.446 1-1v-16c0-0.554-0.446-1-1-1h-5.29c-0.884-2.97-3.61-5-6.71-5z" style="opacity:.1"/>
 <path d="m24 29-4 3c0 3.5 0 3.5-2.5 5l6.5 0.5 6.5-0.5c-2.5-1.5-2.5-1.5-2.5-5z" style="fill:#d6dcdc"/>
 <path d="m17 37v1h14v-1z" style="fill:#eaf0f0"/>
 <rect x="11" y="15" width="26" height="18" ry="1" style="fill:#545454"/>
 <rect x="13" y="17" width="22" height="14" style="fill:#626d74"/>
 <circle cx="24" cy="18" r="7" style="opacity:.1"/>
 <circle cx="24" cy="17" r="7" style="fill:#7397d4"/>
 <path d="m24.1 12c-1.42 0.0185-2.81 0.628-3.76 1.72h-0.0058l2.37 2.72 1.68-4.44h-0.285zm0.945 0.208-1.2 3.39 4.73-0.784c-0.699-1.33-1.99-2.3-3.53-2.59zm-5.23 1.98c-0.816 1.26-1.03 2.85-0.509 4.32l3.56-0.661-3.07-3.66zm-0.509 4.32-0.0026 6.24e-4h0.0026zm9.42-3.03c1.61e-4 4.52e-4 4.89e-4 8.32e-4 6.25e-4 0.0013l0.0033-6.24e-4 -0.0038-6.24e-4zm6.25e-4 0.0013-3.56 0.661 3.07 3.66c0.819-1.26 1.03-2.85 0.509-4.32zm-3.4 2.06-1.68 4.45c1.52 0.0648 3.03-0.552 4.06-1.72h0.0052l-2.37-2.72zm-1.14 0.851-4.73 0.784c0.702 1.33 2 2.31 3.53 2.59l1.21-3.39z" style="fill:#f9f9f9;stroke-width:.333"/>
</svg>
