<svg version="1.1" viewBox="0 0 48 48" xmlns="http://www.w3.org/2000/svg">
 <defs>
  <linearGradient id="linearGradient3764" x1="1" x2="47" gradientTransform="matrix(0 -1 1 0 -1.5e-6 48)" gradientUnits="userSpaceOnUse">
   <stop style="stop-color:#b94b56" offset="0"/>
   <stop style="stop-color:#be5a64" offset="1"/>
  </linearGradient>
 </defs>
 <path d="m36.31 5c5.859 4.062 9.688 10.831 9.688 18.5 0 12.426-10.07 22.5-22.5 22.5-7.669 0-14.438-3.828-18.5-9.688 1.037 1.822 2.306 3.499 3.781 4.969 4.085 3.712 9.514 5.969 15.469 5.969 12.703 0 23-10.298 23-23 0-5.954-2.256-11.384-5.969-15.469-1.469-1.475-3.147-2.744-4.969-3.781zm4.969 3.781c3.854 4.113 6.219 9.637 6.219 15.719 0 12.703-10.297 23-23 23-6.081 0-11.606-2.364-15.719-6.219 4.16 4.144 9.883 6.719 16.219 6.719 12.703 0 23-10.298 23-23 0-6.335-2.575-12.06-6.719-16.219z" style="opacity:.05"/>
 <path d="m41.28 8.781c3.712 4.085 5.969 9.514 5.969 15.469 0 12.703-10.297 23-23 23-5.954 0-11.384-2.256-15.469-5.969 4.113 3.854 9.637 6.219 15.719 6.219 12.703 0 23-10.298 23-23 0-6.081-2.364-11.606-6.219-15.719z" style="opacity:.1"/>
 <path d="m31.25 2.375c8.615 3.154 14.75 11.417 14.75 21.13 0 12.426-10.07 22.5-22.5 22.5-9.708 0-17.971-6.135-21.12-14.75a23 23 0 0 0 44.875 -7 23 23 0 0 0 -16 -21.875z" style="opacity:.2"/>
 <path d="m24 1c12.703 0 23 10.297 23 23s-10.297 23-23 23-23-10.297-23-23 10.297-23 23-23z" style="fill:url(#linearGradient3764)"/>
 <path d="m40.03 7.531c3.712 4.084 5.969 9.514 5.969 15.469 0 12.703-10.297 23-23 23-5.954 0-11.384-2.256-15.469-5.969 4.178 4.291 10.01 6.969 16.469 6.969 12.703 0 23-10.298 23-23 0-6.462-2.677-12.291-6.969-16.469z" style="opacity:.1"/>
 <rect x="13" y="14" width="24" height="23" rx="2" style="opacity:.1"/>
 <rect x="12" y="13" width="24" height="23" rx="2" style="fill:#a57653"/>
 <rect x="14" y="15" width="20" height="19" style="fill:#f7f5f1"/>
 <path d="m21 12v1.01h-3v2.99h12v-2.99h-3v-1.01" style="fill:#afafaf"/>
 <g transform="matrix(.7153 -.71735 .7153 .71735 -17.475 18.514)">
  <path d="m33.469 33.461-15.459-0.061l-8e-3 8e-3v-0.011l-4 1.497 4 1.501 15.436-6e-3s0.564-0.242 0.564-1.495c0-0.907-0.356-1.294-0.534-1.432z" style="opacity:.1"/>
  <path d="m31.04 34.997c0.965 3e-3 0.965-2.997-0.07-2.994h-12.961c-1 0.997-1 1.997 0 2.997" style="fill:#cdaa43"/>
  <path transform="translate(0,4)" d="m18 28-2 0.752c-0.33 0.546-0.251 1.033 0 1.496l2 0.75z" style="fill:#d3bb7d"/>
  <path d="m16 32.752-2 0.745 2 0.754" style="fill:#323232"/>
  <path d="m31 32v2.992h2.438s0.563-0.241 0.563-1.494c0-1.209-0.633-1.498-0.633-1.498h-2.367z" style="fill:#c86750"/>
 </g>
</svg>
