<svg xmlns="http://www.w3.org/2000/svg" viewBox="0 0 48 48">
 <defs>
  <linearGradient id="linearGradient3764" x1="1" x2="47" gradientUnits="userSpaceOnUse" gradientTransform="matrix(0,-1,1,0,-1.5e-6,47.999998)">
   <stop style="stop-color:#6bc6e1;stop-opacity:1"/>
   <stop offset="1" style="stop-color:#7ccde4;stop-opacity:1"/>
  </linearGradient>
 </defs>
 <g>
  <path d="m 36.31 5 c 5.859 4.062 9.688 10.831 9.688 18.5 c 0 12.426 -10.07 22.5 -22.5 22.5 c -7.669 0 -14.438 -3.828 -18.5 -9.688 c 1.037 1.822 2.306 3.499 3.781 4.969 c 4.085 3.712 9.514 5.969 15.469 5.969 c 12.703 0 23 -10.298 23 -23 c 0 -5.954 -2.256 -11.384 -5.969 -15.469 c -1.469 -1.475 -3.147 -2.744 -4.969 -3.781 z m 4.969 3.781 c 3.854 4.113 6.219 9.637 6.219 15.719 c 0 12.703 -10.297 23 -23 23 c -6.081 0 -11.606 -2.364 -15.719 -6.219 c 4.16 4.144 9.883 6.719 16.219 6.719 c 12.703 0 23 -10.298 23 -23 c 0 -6.335 -2.575 -12.06 -6.719 -16.219 z" style="opacity:0.05"/>
  <path d="m 41.28 8.781 c 3.712 4.085 5.969 9.514 5.969 15.469 c 0 12.703 -10.297 23 -23 23 c -5.954 0 -11.384 -2.256 -15.469 -5.969 c 4.113 3.854 9.637 6.219 15.719 6.219 c 12.703 0 23 -10.298 23 -23 c 0 -6.081 -2.364 -11.606 -6.219 -15.719 z" style="opacity:0.1"/>
  <path d="m 31.25 2.375 c 8.615 3.154 14.75 11.417 14.75 21.13 c 0 12.426 -10.07 22.5 -22.5 22.5 c -9.708 0 -17.971 -6.135 -21.12 -14.75 a 23 23 0 0 0 44.875 -7 a 23 23 0 0 0 -16 -21.875 z" style="opacity:0.2"/>
 </g>
 <g>
  <path d="m 24 1 c 12.703 0 23 10.297 23 23 c 0 12.703 -10.297 23 -23 23 -12.703 0 -23 -10.297 -23 -23 0 -12.703 10.297 -23 23 -23 z" style="fill:url(#linearGradient3764);fill-opacity:1"/>
 </g>
 <g>
  <g>
   <g transform="translate(1,1)">
    <g style="opacity:0.1">
     <!-- color: #7ccde4 -->
     <g>
      <path d="m 13 13 c -2.77 0 -5 2.23 -5 5 l 0 8 c 0 2.773 2.23 5 5 5 l 12 0 l 0 6 l 5 -6 l 5 0 c 2.773 0 5 -2.227 5 -5 l 0 -8 c 0 -2.77 -2.227 -5 -5 -5 m -4.625 2 c 0.883 0 1.105 0.441 1.375 2.969 c 0.238 2.211 0.652 4.68 0.844 4.875 c 0.145 0.145 0.23 0.145 0.344 0 c 0.223 -0.281 1.453 -3.418 1.938 -4.938 c 0.5 -1.566 0.996 -2.27 1.844 -2.656 c 0.68 -0.309 1.082 -0.313 1.313 -0.031 c 0.242 0.293 -0.219 1.695 -1.25 4.03 c -2.203 4.969 -4.477 7.949 -7.125 9.281 c -0.977 0.492 -1.969 0.629 -1.969 0.281 c 0 -0.441 0.449 -1.445 0.816 -1.816 c 0.219 -0.223 0.73 -0.605 1.188 -0.844 c 0.449 -0.238 0.859 -0.488 0.906 -0.563 c 0.047 -0.074 -0.191 -0.66 -0.566 -1.316 c -0.758 -1.328 -1.25 -2.371 -1.688 -3.781 c -0.34 -1.07 -0.414 -3.01 -0.156 -3.934 c 0.262 -0.945 1.129 -1.566 2.191 -1.566 m -10.699 0.066 c 0.41 -0.055 0.766 0.102 1.063 0.438 c 0.609 0.684 0.613 1.105 0.066 2.816 c -0.273 0.824 -0.5 1.602 -0.5 1.688 c 0 0.391 0.488 0.031 2.125 -1.598 c 1.914 -1.898 2.32 -2.133 3.063 -1.75 c 0.723 0.375 0.746 0.867 0.406 3.938 c -0.293 2.652 -0.297 2.695 -0.063 4.066 c 0.313 1.852 0.324 1.867 -0.066 2.156 c -0.758 0.551 -1.793 0.426 -2.563 -0.316 c -0.902 -0.863 -0.984 -1.191 -0.996 -5.152 c 0 -0.332 -0.527 0.105 -2.16 1.75 c -1.012 1.016 -2.023 1.926 -2.219 2.027 c -0.574 0.309 -1.113 0.238 -1.598 -0.188 c -0.629 -0.566 -0.676 -1.23 -0.152 -2.844 c 0.227 -0.711 0.41 -1.367 0.375 -1.406 c -0.145 -0.148 -0.59 0.27 -2.25 2.094 c -1.887 2.066 -2.289 2.406 -3 2.406 c -0.902 0 -1.469 -1.039 -1.281 -2.375 c 0.188 -1.398 1.676 -5.297 2.5 -6.594 c 0.672 -1.066 2.039 -1.41 2.656 -0.656 c 0.328 0.402 0.215 1.059 -0.406 2.844 c -0.586 1.699 -0.457 1.855 0.598 0.656 c 0.418 -0.48 1.254 -1.398 1.816 -2.031 c 1.063 -1.207 1.902 -1.871 2.594 -1.969 m -0.004 0" style="fill:#000;fill-opacity:1;stroke:none;fill-rule:nonzero"/>
     </g>
    </g>
   </g>
  </g>
 </g>
 <g>
  <g>
   <!-- color: #7ccde4 -->
   <g>
    <path d="m 13 13 c -2.77 0 -5 2.23 -5 5 l 0 8 c 0 2.773 2.23 5 5 5 l 12 0 l 0 6 l 5 -6 l 5 0 c 2.773 0 5 -2.227 5 -5 l 0 -8 c 0 -2.77 -2.227 -5 -5 -5 m -4.625 2 c 0.883 0 1.105 0.441 1.375 2.969 c 0.238 2.211 0.652 4.68 0.844 4.875 c 0.145 0.145 0.23 0.145 0.344 0 c 0.223 -0.281 1.453 -3.418 1.938 -4.938 c 0.5 -1.566 0.996 -2.27 1.844 -2.656 c 0.68 -0.309 1.082 -0.313 1.313 -0.031 c 0.242 0.293 -0.219 1.695 -1.25 4.03 c -2.203 4.969 -4.477 7.949 -7.125 9.281 c -0.977 0.492 -1.969 0.629 -1.969 0.281 c 0 -0.441 0.449 -1.445 0.816 -1.816 c 0.219 -0.223 0.73 -0.605 1.188 -0.844 c 0.449 -0.238 0.859 -0.488 0.906 -0.563 c 0.047 -0.074 -0.191 -0.66 -0.566 -1.316 c -0.758 -1.328 -1.25 -2.371 -1.688 -3.781 c -0.34 -1.07 -0.414 -3.01 -0.156 -3.934 c 0.262 -0.945 1.129 -1.566 2.191 -1.566 m -10.699 0.066 c 0.41 -0.055 0.766 0.102 1.063 0.438 c 0.609 0.684 0.613 1.105 0.066 2.816 c -0.273 0.824 -0.5 1.602 -0.5 1.688 c 0 0.391 0.488 0.031 2.125 -1.598 c 1.914 -1.898 2.32 -2.133 3.063 -1.75 c 0.723 0.375 0.746 0.867 0.406 3.938 c -0.293 2.652 -0.297 2.695 -0.063 4.066 c 0.313 1.852 0.324 1.867 -0.066 2.156 c -0.758 0.551 -1.793 0.426 -2.563 -0.316 c -0.902 -0.863 -0.984 -1.191 -0.996 -5.152 c 0 -0.332 -0.527 0.105 -2.16 1.75 c -1.012 1.016 -2.023 1.926 -2.219 2.027 c -0.574 0.309 -1.113 0.238 -1.598 -0.188 c -0.629 -0.566 -0.676 -1.23 -0.152 -2.844 c 0.227 -0.711 0.41 -1.367 0.375 -1.406 c -0.145 -0.148 -0.59 0.27 -2.25 2.094 c -1.887 2.066 -2.289 2.406 -3 2.406 c -0.902 0 -1.469 -1.039 -1.281 -2.375 c 0.188 -1.398 1.676 -5.297 2.5 -6.594 c 0.672 -1.066 2.039 -1.41 2.656 -0.656 c 0.328 0.402 0.215 1.059 -0.406 2.844 c -0.586 1.699 -0.457 1.855 0.598 0.656 c 0.418 -0.48 1.254 -1.398 1.816 -2.031 c 1.063 -1.207 1.902 -1.871 2.594 -1.969 m -0.004 0" style="fill:#fff;fill-opacity:1;stroke:none;fill-rule:nonzero"/>
   </g>
  </g>
 </g>
 <g>
  <path d="m 40.03 7.531 c 3.712 4.084 5.969 9.514 5.969 15.469 0 12.703 -10.297 23 -23 23 c -5.954 0 -11.384 -2.256 -15.469 -5.969 4.178 4.291 10.01 6.969 16.469 6.969 c 12.703 0 23 -10.298 23 -23 0 -6.462 -2.677 -12.291 -6.969 -16.469 z" style="opacity:0.1"/>
 </g>
</svg>
