<svg version="1.1" viewBox="0 0 48 48" xmlns="http://www.w3.org/2000/svg">
 <defs>
  <linearGradient id="lG3764" x1="1" x2="47" gradientTransform="rotate(-90,24,24)" gradientUnits="userSpaceOnUse">
   <stop style="stop-color:#6bc6e1" offset="0"/>
   <stop style="stop-color:#7ccde4" offset="1"/>
  </linearGradient>
 </defs>
 <path d="m36.3 5c5.86 4.06 9.69 10.8 9.69 18.5 0 12.4-10.1 22.5-22.5 22.5-7.67 0-14.4-3.83-18.5-9.69 1.04 1.82 2.31 3.5 3.78 4.97 4.08 3.71 9.51 5.97 15.5 5.97 12.7 0 23-10.3 23-23 0-5.95-2.26-11.4-5.97-15.5-1.47-1.48-3.15-2.74-4.97-3.78zm4.97 3.78c3.85 4.11 6.22 9.64 6.22 15.7 0 12.7-10.3 23-23 23-6.08 0-11.6-2.36-15.7-6.22 4.16 4.14 9.88 6.72 16.2 6.72 12.7 0 23-10.3 23-23 0-6.34-2.58-12.1-6.72-16.2z" style="opacity:.05"/>
 <path d="m41.3 8.78c3.71 4.08 5.97 9.51 5.97 15.5 0 12.7-10.3 23-23 23-5.95 0-11.4-2.26-15.5-5.97 4.11 3.85 9.64 6.22 15.7 6.22 12.7 0 23-10.3 23-23 0-6.08-2.36-11.6-6.22-15.7z" style="opacity:.1"/>
 <path d="m31.2 2.38c8.62 3.15 14.8 11.4 14.8 21.1 0 12.4-10.1 22.5-22.5 22.5-9.71 0-18-6.14-21.1-14.8a23 23 0 0 0 44.9-7 23 23 0 0 0-16-21.9z" style="opacity:.2"/>
 <path d="m24 1c12.7 0 23 10.3 23 23s-10.3 23-23 23-23-10.3-23-23 10.3-23 23-23z" style="fill:url(#lG3764)"/>
 <path d="m14 14c-2.77 0-5 2.23-5 5v8c0 2.77 2.23 5 5 5h12v6l5-6h5c2.77 0 5-2.23 5-5v-8c0-2.77-2.23-5-5-5m-4.62 2c0.883 0 1.1 0.441 1.38 2.97 0.238 2.21 0.652 4.68 0.844 4.88 0.145 0.145 0.23 0.145 0.344 0 0.223-0.281 1.45-3.42 1.94-4.94 0.5-1.57 0.996-2.27 1.84-2.66 0.68-0.309 1.08-0.313 1.31-0.031 0.242 0.293-0.219 1.7-1.25 4.03-2.2 4.97-4.48 7.95-7.12 9.28-0.977 0.492-1.97 0.629-1.97 0.281 0-0.441 0.449-1.44 0.816-1.82 0.219-0.223 0.73-0.605 1.19-0.844 0.449-0.238 0.859-0.488 0.906-0.563 0.047-0.074-0.191-0.66-0.566-1.32-0.758-1.33-1.25-2.37-1.69-3.78-0.34-1.07-0.414-3.01-0.156-3.93 0.262-0.945 1.13-1.57 2.19-1.57m-10.7 0.066c0.41-0.055 0.766 0.102 1.06 0.438 0.609 0.684 0.613 1.1 0.066 2.82-0.273 0.824-0.5 1.6-0.5 1.69 0 0.391 0.488 0.031 2.12-1.6 1.91-1.9 2.32-2.13 3.06-1.75 0.723 0.375 0.746 0.867 0.406 3.94-0.293 2.65-0.297 2.7-0.063 4.07 0.313 1.85 0.324 1.87-0.066 2.16-0.758 0.551-1.79 0.426-2.56-0.316-0.902-0.863-0.984-1.19-0.996-5.15 0-0.332-0.527 0.105-2.16 1.75-1.01 1.02-2.02 1.93-2.22 2.03-0.574 0.309-1.11 0.238-1.6-0.188-0.629-0.566-0.676-1.23-0.152-2.84 0.227-0.711 0.41-1.37 0.375-1.41-0.145-0.148-0.59 0.27-2.25 2.09-1.89 2.07-2.29 2.41-3 2.41-0.902 0-1.47-1.04-1.28-2.38 0.188-1.4 1.68-5.3 2.5-6.59 0.672-1.07 2.04-1.41 2.66-0.656 0.328 0.402 0.215 1.06-0.406 2.84-0.586 1.7-0.457 1.86 0.598 0.656 0.418-0.48 1.25-1.4 1.82-2.03 1.06-1.21 1.9-1.87 2.59-1.97" style="opacity:.1"/>
 <path d="m13 13c-2.77 0-5 2.23-5 5v8c0 2.77 2.23 5 5 5h12v6l5-6h5c2.77 0 5-2.23 5-5v-8c0-2.77-2.23-5-5-5m-4.62 2c0.883 0 1.1 0.441 1.38 2.97 0.238 2.21 0.652 4.68 0.844 4.88 0.145 0.145 0.23 0.145 0.344 0 0.223-0.281 1.45-3.42 1.94-4.94 0.5-1.57 0.996-2.27 1.84-2.66 0.68-0.309 1.08-0.313 1.31-0.031 0.242 0.293-0.219 1.7-1.25 4.03-2.2 4.97-4.48 7.95-7.12 9.28-0.977 0.492-1.97 0.629-1.97 0.281 0-0.441 0.449-1.44 0.816-1.82 0.219-0.223 0.73-0.605 1.19-0.844 0.449-0.238 0.859-0.488 0.906-0.563 0.047-0.074-0.191-0.66-0.566-1.32-0.758-1.33-1.25-2.37-1.69-3.78-0.34-1.07-0.414-3.01-0.156-3.93 0.262-0.945 1.13-1.57 2.19-1.57m-10.7 0.066c0.41-0.055 0.766 0.102 1.06 0.438 0.609 0.684 0.613 1.1 0.066 2.82-0.273 0.824-0.5 1.6-0.5 1.69 0 0.391 0.488 0.031 2.12-1.6 1.91-1.9 2.32-2.13 3.06-1.75 0.723 0.375 0.746 0.867 0.406 3.94-0.293 2.65-0.297 2.7-0.063 4.07 0.313 1.85 0.324 1.87-0.066 2.16-0.758 0.551-1.79 0.426-2.56-0.316-0.902-0.863-0.984-1.19-0.996-5.15 0-0.332-0.527 0.105-2.16 1.75-1.01 1.02-2.02 1.93-2.22 2.03-0.574 0.309-1.11 0.238-1.6-0.188-0.629-0.566-0.676-1.23-0.152-2.84 0.227-0.711 0.41-1.37 0.375-1.41-0.145-0.148-0.59 0.27-2.25 2.09-1.89 2.07-2.29 2.41-3 2.41-0.902 0-1.47-1.04-1.28-2.38 0.188-1.4 1.68-5.3 2.5-6.59 0.672-1.07 2.04-1.41 2.66-0.656 0.328 0.402 0.215 1.06-0.406 2.84-0.586 1.7-0.457 1.86 0.598 0.656 0.418-0.48 1.25-1.4 1.82-2.03 1.06-1.21 1.9-1.87 2.59-1.97" style="fill:#f9f9f9"/>
 <path d="m40 7.53c3.71 4.08 5.97 9.51 5.97 15.5 0 12.7-10.3 23-23 23-5.95 0-11.4-2.26-15.5-5.97 4.18 4.29 10 6.97 16.5 6.97 12.7 0 23-10.3 23-23 0-6.46-2.68-12.3-6.97-16.5z" style="opacity:.1"/>
</svg>
