<svg version="1.1" viewBox="0 0 48 48" xmlns="http://www.w3.org/2000/svg">
 <defs>
  <linearGradient id="bg" x2="0" y1="1" y2="47" gradientUnits="userSpaceOnUse">
   <stop style="stop-color:#a2b4b9" offset="0"/>
   <stop style="stop-color:#97abb0" offset="1"/>
  </linearGradient>
 </defs>
 <path d="m36.3 5c5.86 4.06 9.69 10.8 9.69 18.5 0 12.4-10.1 22.5-22.5 22.5-7.67 0-14.4-3.83-18.5-9.69 1.04 1.82 2.31 3.5 3.78 4.97 4.08 3.71 9.51 5.97 15.5 5.97 12.7 0 23-10.3 23-23 0-5.95-2.26-11.4-5.97-15.5-1.47-1.48-3.15-2.74-4.97-3.78zm4.97 3.78c3.85 4.11 6.22 9.64 6.22 15.7 0 12.7-10.3 23-23 23-6.08 0-11.6-2.36-15.7-6.22 4.16 4.14 9.88 6.72 16.2 6.72 12.7 0 23-10.3 23-23 0-6.34-2.58-12.1-6.72-16.2z" style="opacity:.05"/>
 <path d="m41.3 8.78c3.71 4.08 5.97 9.51 5.97 15.5 0 12.7-10.3 23-23 23-5.95 0-11.4-2.26-15.5-5.97 4.11 3.85 9.64 6.22 15.7 6.22 12.7 0 23-10.3 23-23 0-6.08-2.36-11.6-6.22-15.7z" style="opacity:.1"/>
 <path d="m31.2 2.38c8.62 3.15 14.8 11.4 14.8 21.1 0 12.4-10.1 22.5-22.5 22.5-9.71 0-18-6.14-21.1-14.8a23 23 0 0044.9-7 23 23 0 00-16-21.9z" style="opacity:.2"/>
 <circle cx="24" cy="24" r="23" style="fill:url(#bg)"/>
 <path d="m40 7.53c3.71 4.08 5.97 9.51 5.97 15.5 0 12.7-10.3 23-23 23-5.95 0-11.4-2.26-15.5-5.97 4.18 4.29 10 6.97 16.5 6.97 12.7 0 23-10.3 23-23 0-6.46-2.68-12.3-6.97-16.5z" style="opacity:.1"/>
 <path d="m29 12 3 1v2l.199.6 1.8-.6v3h-1l2 2h-3l2 1 4 1-4 1h-1v1l1.6 1-1.6 1 1 1 4 1-4 1-2 1h3l-2 2h1v3l-1.8-.6-.199.6v2l-3 1-1-2-3-4-6.44-3.79-7.96-2.21-.6-1 15-7z" style="opacity:.1"/>
 <path d="m28 11 3 1v2l1 3 2 2h-3l-15.5 3 8.5-5 3-4zm-12.5 15 15.5 3h3l-2 2-1 3v2l-3 1-1-2-3-4z" style="fill:#575e60"/>
 <path d="m31 16-1 1.15 1 1.85 1-1h1zm0 13-2 1 2 4 1-3z" style="opacity:.1"/>
 <path d="m33 14v3h-2v2l-1 1-2-1 2-4zm-3 14 1 1v2h2v3l-3-1-2-4z" style="fill:#79828b"/>
 <path d="m31 19v1l1 2v4l-1 2v1h-7l-14.4-4-.6-1 .6-1 14.4-4z" style="fill:#727b83"/>
 <path d="m33 20 4 1-4 1zm0 6 4 1-4 1z" style="fill:#2984a3"/>
 <path d="m33 20 1.6 1-1.6 1h-2v-2zm-1 3 1.6 1-1.6 1h-3v-2zm1 3 1.6 1-1.6 1h-2v-2z" style="fill:#525252"/>
 <path d="m28 21 1.8 3-1.8 3h-2.5l-12.5-3 12.5-3z" style="fill:#b2c4cc"/>
 <path d="m30 21v6h-2l.5-1h-2.5l-1-1v-2l1-1h2.5l-.5-1zm-6 1.5v3l-7-1.5z" style="fill:#8e999f"/>
</svg>
