<svg xmlns="http://www.w3.org/2000/svg" viewBox="0 0 48 48">
 <defs>
  <linearGradient id="linearGradient3046" y1="1" x2="0" y2="47" gradientUnits="userSpaceOnUse">
   <stop style="stop-color:#ad977b;stop-opacity:1"/>
   <stop offset="1" style="stop-color:#a58d6f;stop-opacity:1"/>
  </linearGradient>
 </defs>
 <g>
  <path d="m 36.31 5 c 5.859 4.062 9.688 10.831 9.688 18.5 c 0 12.426 -10.07 22.5 -22.5 22.5 c -7.669 0 -14.438 -3.828 -18.5 -9.688 c 1.037 1.822 2.306 3.499 3.781 4.969 c 4.085 3.712 9.514 5.969 15.469 5.969 c 12.703 0 23 -10.298 23 -23 c 0 -5.954 -2.256 -11.384 -5.969 -15.469 c -1.469 -1.475 -3.147 -2.744 -4.969 -3.781 z m 4.969 3.781 c 3.854 4.113 6.219 9.637 6.219 15.719 c 0 12.703 -10.297 23 -23 23 c -6.081 0 -11.606 -2.364 -15.719 -6.219 c 4.16 4.144 9.883 6.719 16.219 6.719 c 12.703 0 23 -10.298 23 -23 c 0 -6.335 -2.575 -12.06 -6.719 -16.219 z" style="opacity:0.05"/>
  <path d="m 41.28 8.781 c 3.712 4.085 5.969 9.514 5.969 15.469 c 0 12.703 -10.297 23 -23 23 c -5.954 0 -11.384 -2.256 -15.469 -5.969 c 4.113 3.854 9.637 6.219 15.719 6.219 c 12.703 0 23 -10.298 23 -23 c 0 -6.081 -2.364 -11.606 -6.219 -15.719 z" style="opacity:0.1"/>
  <path d="m 31.25 2.375 c 8.615 3.154 14.75 11.417 14.75 21.13 c 0 12.426 -10.07 22.5 -22.5 22.5 c -9.708 0 -17.971 -6.135 -21.12 -14.75 a 23 23 0 0 0 44.875 -7 a 23 23 0 0 0 -16 -21.875 z" style="opacity:0.2"/>
 </g>
 <g style="fill:#fea">
  <path d="m 24 1 c 12.703 0 23 10.297 23 23 c 0 12.703 -10.297 23 -23 23 -12.703 0 -23 -10.297 -23 -23 0 -12.703 10.297 -23 23 -23 z" style="fill:url(#linearGradient3046);fill-opacity:1"/>
 </g>
 <g>
  <path d="m 40.03 7.531 c 3.712 4.084 5.969 9.514 5.969 15.469 0 12.703 -10.297 23 -23 23 c -5.954 0 -11.384 -2.256 -15.469 -5.969 4.178 4.291 10.01 6.969 16.469 6.969 c 12.703 0 23 -10.298 23 -23 0 -6.462 -2.677 -12.291 -6.969 -16.469 z" style="opacity:0.1"/>
 </g>
 <g>
  <g>
   <g transform="matrix(0.42306065,0,0,0.42309478,19.346756,10.768588)">
    <g>
     <!-- color: #7ec1ee -->
    </g>
   </g>
  </g>
 </g>
 <g transform="matrix(0.92098626,0,0,0.92307692,1.8691511,1.8461539)" style="fill:#ccc">
  <g>
   <g transform="matrix(0.42306065,0,0,0.42309478,19.346756,10.768588)">
    <g>
     <!-- color: #7ec1ee -->
    </g>
   </g>
  </g>
 </g>
 <g transform="translate(1,1)" style="fill:#000;fill-opacity:0.098">
  <g transform="translate(0,1)">
   <path d="m 13 13 c -0.554 0 -1 0.446 -1 1 l 0 21 c 0 0.554 0.446 1 1 1 c 0.554 0 1 -0.446 1 -1 l 0 -0.656 c 0 0.923 0.669 1.656 1.5 1.656 c 0.831 0 1.5 -0.733 1.5 -1.656 l 0 -0.344 l 4 0 l 0 0.344 c 0 0.923 0.669 1.656 1.5 1.656 c 0.831 0 1.5 -0.733 1.5 -1.656 c 0 0.923 0.669 1.656 1.5 1.656 c 0.831 0 1.5 -0.733 1.5 -1.656 c 0 0.923 0.669 1.656 1.5 1.656 c 0.831 0 1.5 -0.733 1.5 -1.656 c 0 0.923 0.669 1.656 1.5 1.656 c 0.831 0 1.5 -0.733 1.5 -1.656 c 0 0.923 0.669 1.656 1.5 1.656 c 0.831 0 1.5 -0.733 1.5 -1.656 l 0 0.656 c 0 0.554 0.446 1 1 1 c 0.554 0 1 -0.446 1 -1 l 0 -21 c 0 -0.554 -0.446 -1 -1 -1 c -0.554 0 -1 0.446 -1 1 l 0 0.656 c 0 -0.923 -0.669 -1.656 -1.5 -1.656 c -0.831 0 -1.5 0.733 -1.5 1.656 c 0 -0.923 -0.669 -1.656 -1.5 -1.656 c -0.831 0 -1.5 0.733 -1.5 1.656 l 0 0.344 l -4 0 l 0 -0.344 c 0 -0.923 -0.669 -1.656 -1.5 -1.656 c -0.831 0 -1.5 0.733 -1.5 1.656 c 0 -0.923 -0.669 -1.656 -1.5 -1.656 c -0.831 0 -1.5 0.733 -1.5 1.656 c 0 -0.923 -0.669 -1.656 -1.5 -1.656 c -0.831 0 -1.5 0.733 -1.5 1.656 c 0 -0.923 -0.669 -1.656 -1.5 -1.656 c -0.831 0 -1.5 0.733 -1.5 1.656 l 0 -0.656 c 0 -0.554 -0.446 -1 -1 -1 z m 13 3 l 4 0 l 0 0.344 c 0 0.923 0.669 1.656 1.5 1.656 c 0.831 0 1.5 -0.733 1.5 -1.656 c 0 0.923 0.669 1.656 1.5 1.656 c 0.831 0 1.5 -0.733 1.5 -1.656 l 0 4.313 c 0 -0.923 -0.669 -1.656 -1.5 -1.656 c -0.831 0 -1.5 0.733 -1.5 1.656 c 0 -0.923 -0.669 -1.656 -1.5 -1.656 c -0.831 0 -1.5 0.733 -1.5 1.656 c 0 -0.923 -0.669 -1.656 -1.5 -1.656 c -0.831 0 -1.5 0.733 -1.5 1.656 l 0 0.344 l -4 0 l 0 -0.344 c 0 -0.923 -0.669 -1.656 -1.5 -1.656 c -0.831 0 -1.5 0.733 -1.5 1.656 c 0 -0.923 -0.669 -1.656 -1.5 -1.656 c -0.831 0 -1.5 0.733 -1.5 1.656 c 0 -0.923 -0.669 -1.656 -1.5 -1.656 c -0.831 0 -1.5 0.733 -1.5 1.656 l 0 -4.313 c 0 0.923 0.669 1.656 1.5 1.656 c 0.831 0 1.5 -0.733 1.5 -1.656 c 0 0.923 0.669 1.656 1.5 1.656 c 0.831 0 1.5 -0.733 1.5 -1.656 c 0 0.923 0.669 1.656 1.5 1.656 c 0.831 0 1.5 -0.733 1.5 -1.656 c 0 0.923 0.669 1.656 1.5 1.656 c 0.831 0 1.5 -0.733 1.5 -1.656 l 0 -0.344 z m -3 6 l 4 0 l 0 0.344 c 0 0.923 0.669 1.656 1.5 1.656 c 0.831 0 1.5 -0.733 1.5 -1.656 c 0 0.923 0.669 1.656 1.5 1.656 c 0.831 0 1.5 -0.733 1.5 -1.656 c 0 0.923 0.669 1.656 1.5 1.656 c 0.831 0 1.5 -0.733 1.5 -1.656 l 0 4.313 c 0 -0.923 -0.669 -1.656 -1.5 -1.656 c -0.831 0 -1.5 0.733 -1.5 1.656 l 0 0.344 l -4 0 l 0 -0.344 c 0 -0.923 -0.669 -1.656 -1.5 -1.656 c -0.831 0 -1.5 0.733 -1.5 1.656 c 0 -0.923 -0.669 -1.656 -1.5 -1.656 c -0.831 0 -1.5 0.733 -1.5 1.656 c 0 -0.923 -0.669 -1.656 -1.5 -1.656 c -0.831 0 -1.5 0.733 -1.5 1.656 c 0 -0.923 -0.669 -1.656 -1.5 -1.656 c -0.831 0 -1.5 0.733 -1.5 1.656 c 0 -0.923 -0.669 -1.656 -1.5 -1.656 c -0.831 0 -1.5 0.733 -1.5 1.656 l 0 -4.313 c 0 0.923 0.669 1.656 1.5 1.656 c 0.831 0 1.5 -0.733 1.5 -1.656 c 0 0.923 0.669 1.656 1.5 1.656 c 0.831 0 1.5 -0.733 1.5 -1.656 c 0 0.923 0.669 1.656 1.5 1.656 c 0.831 0 1.5 -0.733 1.5 -1.656 l 0 -0.344 z m 6 6 l 4 0 l 0 0.344 c 0 0.923 0.669 1.656 1.5 1.656 c 0.831 0 1.5 -0.733 1.5 -1.656 l 0 4.313 c 0 -0.923 -0.669 -1.656 -1.5 -1.656 c -0.831 0 -1.5 0.733 -1.5 1.656 c 0 -0.923 -0.669 -1.656 -1.5 -1.656 c -0.831 0 -1.5 0.733 -1.5 1.656 c 0 -0.923 -0.669 -1.656 -1.5 -1.656 c -0.831 0 -1.5 0.733 -1.5 1.656 c 0 -0.923 -0.669 -1.656 -1.5 -1.656 c -0.831 0 -1.5 0.733 -1.5 1.656 c 0 -0.923 -0.669 -1.656 -1.5 -1.656 c -0.831 0 -1.5 0.733 -1.5 1.656 l 0 0.344 l -4 0 l 0 -0.344 c 0 -0.923 -0.669 -1.656 -1.5 -1.656 c -0.831 0 -1.5 0.733 -1.5 1.656 l 0 -4.313 c 0 0.923 0.669 1.656 1.5 1.656 c 0.831 0 1.5 -0.733 1.5 -1.656 c 0 0.923 0.669 1.656 1.5 1.656 c 0.831 0 1.5 -0.733 1.5 -1.656 c 0 0.923 0.669 1.656 1.5 1.656 c 0.831 0 1.5 -0.733 1.5 -1.656 c 0 0.923 0.669 1.656 1.5 1.656 c 0.831 0 1.5 -0.733 1.5 -1.656 c 0 0.923 0.669 1.656 1.5 1.656 c 0.831 0 1.5 -0.733 1.5 -1.656 l 0 -0.344 z" transform="translate(-1,-2)" style="stroke:none;fill-rule:nonzero"/>
  </g>
 </g>
 <g>
  <g transform="translate(0,1)">
   <rect width="24" height="1" x="12" y="13" style="fill:#4d4d4d;fill-opacity:1;stroke:none;fill-rule:nonzero"/>
   <rect width="3" height="5" x="13" y="11" rx="1.5" ry="1.667" style="fill:#d0493e;fill-opacity:1;stroke:none;fill-rule:nonzero"/>
   <rect ry="1.667" rx="1.5" y="11" x="16" height="5" width="3" style="fill:#d0493e;fill-opacity:1;stroke:none;fill-rule:nonzero"/>
   <rect width="3" height="5" x="19" y="11" rx="1.5" ry="1.667" style="fill:#d0493e;fill-opacity:1;stroke:none;fill-rule:nonzero"/>
   <rect ry="1.667" rx="1.5" y="11" x="32" height="5" width="3" style="fill:#d0493e;fill-opacity:1;stroke:none;fill-rule:nonzero"/>
   <rect width="3" height="5" x="29" y="11" rx="1.5" ry="1.667" style="fill:#d0493e;fill-opacity:1;stroke:none;fill-rule:nonzero"/>
   <rect ry="1.667" rx="1.5" y="11" x="22" height="5" width="3" style="fill:#d0493e;fill-opacity:1;stroke:none;fill-rule:nonzero"/>
  </g>
  <g transform="translate(0,-2)">
   <rect y="22" x="12" height="1" width="24" style="fill:#4d4d4d;fill-opacity:1;stroke:none;fill-rule:nonzero"/>
   <rect ry="1.667" rx="1.5" y="20" x="13" height="5" width="3" style="fill:#d2f953;fill-opacity:1;stroke:none;fill-rule:nonzero"/>
   <rect width="3" height="5" x="16" y="20" rx="1.5" ry="1.667" style="fill:#d2f953;fill-opacity:1;stroke:none;fill-rule:nonzero"/>
   <rect ry="1.667" rx="1.5" y="20" x="32" height="5" width="3" style="fill:#d2f953;fill-opacity:1;stroke:none;fill-rule:nonzero"/>
   <rect width="3" height="5" x="29" y="20" rx="1.5" ry="1.667" style="fill:#d2f953;fill-opacity:1;stroke:none;fill-rule:nonzero"/>
   <rect ry="1.667" rx="1.5" y="20" x="26" height="5" width="3" style="fill:#d2f953;fill-opacity:1;stroke:none;fill-rule:nonzero"/>
   <rect width="3" height="5" x="19" y="20" rx="1.5" ry="1.667" style="fill:#d2f953;fill-opacity:1;stroke:none;fill-rule:nonzero"/>
  </g>
  <g transform="translate(0,-2)">
   <rect width="24" height="1" x="12" y="28" style="fill:#4d4d4d;fill-opacity:1;stroke:none;fill-rule:nonzero"/>
   <rect width="3" height="5" x="13" y="26" rx="1.5" ry="1.667" style="fill:#2b7493;fill-opacity:1;stroke:none;fill-rule:nonzero"/>
   <rect ry="1.667" rx="1.5" y="26" x="32" height="5" width="3" style="fill:#2b7493;fill-opacity:1;stroke:none;fill-rule:nonzero"/>
   <rect width="3" height="5" x="16" y="26" rx="1.5" ry="1.667" style="fill:#2b7493;fill-opacity:1;stroke:none;fill-rule:nonzero"/>
   <rect ry="1.667" rx="1.5" y="26" x="19" height="5" width="3" style="fill:#2b7493;fill-opacity:1;stroke:none;fill-rule:nonzero"/>
   <rect width="3" height="5" x="22" y="26" rx="1.5" ry="1.667" style="fill:#2b7493;fill-opacity:1;stroke:none;fill-rule:nonzero"/>
   <rect ry="1.667" rx="1.5" y="26" x="25" height="5" width="3" style="fill:#2b7493;fill-opacity:1;stroke:none;fill-rule:nonzero"/>
  </g>
  <g transform="translate(0,-2)">
   <rect y="34" x="12" height="1" width="24" style="fill:#4d4d4d;fill-opacity:1;stroke:none;fill-rule:nonzero"/>
   <rect ry="1.667" rx="1.5" y="32" x="13" height="5" width="3" style="fill:#ececec;fill-opacity:1;stroke:none;fill-rule:nonzero"/>
   <rect width="3" height="5" x="32" y="32" rx="1.5" ry="1.667" style="fill:#ececec;fill-opacity:1;stroke:none;fill-rule:nonzero"/>
   <rect ry="1.667" rx="1.5" y="32" x="29" height="5" width="3" style="fill:#ececec;fill-opacity:1;stroke:none;fill-rule:nonzero"/>
   <rect width="3" height="5" x="26" y="32" rx="1.5" ry="1.667" style="fill:#ececec;fill-opacity:1;stroke:none;fill-rule:nonzero"/>
   <rect ry="1.667" rx="1.5" y="32" x="23" height="5" width="3" style="fill:#ececec;fill-opacity:1;stroke:none;fill-rule:nonzero"/>
   <rect width="3" height="5" x="20" y="32" rx="1.5" ry="1.667" style="fill:#ececec;fill-opacity:1;stroke:none;fill-rule:nonzero"/>
  </g>
  <rect rx="1" y="12" x="11" height="23" width="2" style="fill:#4d4d4d;fill-opacity:1;stroke:none;fill-rule:nonzero"/>
  <rect width="2" height="23" x="35" y="12" rx="1" style="fill:#4d4d4d;fill-opacity:1;stroke:none;fill-rule:nonzero"/>
 </g>
</svg>
