<svg xmlns="http://www.w3.org/2000/svg" viewBox="0 0 48 48">
 <defs>
  <linearGradient id="linearGradient3764" x1="1" x2="47" gradientUnits="userSpaceOnUse" gradientTransform="matrix(0,-1,1,0,-1.5e-6,47.999998)">
   <stop style="stop-color:#3d3d3d;stop-opacity:1"/>
   <stop offset="1" style="stop-color:#474747;stop-opacity:1"/>
  </linearGradient>
 </defs>
 <g>
  <path d="m 36.31 5 c 5.859 4.062 9.688 10.831 9.688 18.5 c 0 12.426 -10.07 22.5 -22.5 22.5 c -7.669 0 -14.438 -3.828 -18.5 -9.688 c 1.037 1.822 2.306 3.499 3.781 4.969 c 4.085 3.712 9.514 5.969 15.469 5.969 c 12.703 0 23 -10.298 23 -23 c 0 -5.954 -2.256 -11.384 -5.969 -15.469 c -1.469 -1.475 -3.147 -2.744 -4.969 -3.781 z m 4.969 3.781 c 3.854 4.113 6.219 9.637 6.219 15.719 c 0 12.703 -10.297 23 -23 23 c -6.081 0 -11.606 -2.364 -15.719 -6.219 c 4.16 4.144 9.883 6.719 16.219 6.719 c 12.703 0 23 -10.298 23 -23 c 0 -6.335 -2.575 -12.06 -6.719 -16.219 z" style="opacity:0.05"/>
  <path d="m 41.28 8.781 c 3.712 4.085 5.969 9.514 5.969 15.469 c 0 12.703 -10.297 23 -23 23 c -5.954 0 -11.384 -2.256 -15.469 -5.969 c 4.113 3.854 9.637 6.219 15.719 6.219 c 12.703 0 23 -10.298 23 -23 c 0 -6.081 -2.364 -11.606 -6.219 -15.719 z" style="opacity:0.1"/>
  <path d="m 31.25 2.375 c 8.615 3.154 14.75 11.417 14.75 21.13 c 0 12.426 -10.07 22.5 -22.5 22.5 c -9.708 0 -17.971 -6.135 -21.12 -14.75 a 23 23 0 0 0 44.875 -7 a 23 23 0 0 0 -16 -21.875 z" style="opacity:0.2"/>
 </g>
 <g>
  <path d="m 24 1 c 12.703 0 23 10.297 23 23 c 0 12.703 -10.297 23 -23 23 -12.703 0 -23 -10.297 -23 -23 0 -12.703 10.297 -23 23 -23 z" style="fill:url(#linearGradient3764);fill-opacity:1"/>
 </g>
 <path d="m 22 10 c -2.762 0 -5 2.238 -5 5 0 2.762 2.238 5 5 5 0.355 0 0.7 -0.039 1.033 -0.109 l 2.307 5.15 c -1.45 0.892 -2.551 2.293 -3.047 3.959 l -2.436 0 c -0.446 -1.723 -1.995 -3 -3.857 -3 c -2.21 0 -4 1.79 -4 4 0 2.21 1.79 4 4 4 1.863 0 3.412 -1.277 3.857 -3 l 2.143 0 c 0 3.867 3.133 7 7 7 3.867 0 7 -3.133 7 -7 0 -2.658 -1.479 -4.969 -3.66 -6.154 l 2.523 -4.859 c 0.046 0.002 0.09 0.014 0.137 0.014 c 1.656 0 3 -1.344 3 -3 0 -1.656 -1.344 -3 -3 -3 -1.656 0 -3 1.344 -3 3 0 1.024 0.515 1.927 1.299 2.469 l -2.4 4.799 c -0.605 -0.17 -1.239 -0.268 -1.898 -0.268 c -0.38 0 -0.75 0.038 -1.113 0.096 l -2.799 -5.191 c 1.156 -0.916 1.912 -2.315 1.912 -3.904 0 -2.762 -2.238 -5 -5 -5" style="fill:#000;opacity:0.1;fill-opacity:1;stroke:none;fill-rule:nonzero"/>
 <g>
  <g>
   <!-- color: #474747 -->
   <g>
    <path d="m 28 23 c -3.867 0 -7 3.133 -7 7 0 3.867 3.133 7 7 7 3.867 0 7 -3.133 7 -7 0 -3.867 -3.133 -7 -7 -7 z" style="fill:#dedede;fill-opacity:1;stroke:none;fill-rule:nonzero"/>
    <path d="m 21 9 c -2.762 0 -5 2.238 -5 5 0 2.762 2.238 5 5 5 2.762 0 5 -2.238 5 -5 0 -2.762 -2.238 -5 -5 -5 z" style="fill:#dedede;fill-opacity:1;stroke:none;fill-rule:nonzero"/>
    <path d="m 34 13 c -1.656 0 -3 1.344 -3 3 0 1.656 1.344 3 3 3 1.656 0 3 -1.344 3 -3 0 -1.656 -1.344 -3 -3 -3 z" style="fill:#dedede;fill-opacity:1;stroke:none;fill-rule:nonzero"/>
    <path d="m 15 25 c -2.21 0 -4 1.79 -4 4 0 2.21 1.79 4 4 4 2.21 0 4 -1.79 4 -4 0 -2.21 -1.79 -4 -4 -4 z" style="fill:#dedede;fill-opacity:1;stroke:none;fill-rule:nonzero"/>
    <path d="m 29.21,24.645 4.164,-8.324 1.391,0.926 -4.164,8.02 M 29.21,24.65" style="fill:#dedede;fill-opacity:1;stroke:none;fill-rule:nonzero"/>
    <path d="m 20.883 16.32 4.625 10.328 2.465 -1.539 -5.238 -9.715 m -1.852 0.926" style="fill:#dedede;fill-opacity:1;stroke:none;fill-rule:nonzero"/>
    <path d="m 23 28 -7 0 0 2 7 0" style="fill:#dedede;fill-opacity:1;stroke:none;fill-rule:nonzero"/>
    <path d="m 28 25 c -2.762 0 -5 2.238 -5 5 0 2.762 2.238 5 5 5 2.762 0 5 -2.238 5 -5 0 -2.762 -2.238 -5 -5 -5 z" style="fill:#069bce;fill-opacity:1;stroke:none;fill-rule:nonzero"/>
    <path d="m 21 11 c -1.656 0 -3 1.344 -3 3 0 1.656 1.344 3 3 3 1.656 0 3 -1.344 3 -3 0 -1.656 -1.344 -3 -3 -3 z" style="fill:#e34fe5;fill-opacity:1;stroke:none;fill-rule:nonzero"/>
    <path d="m 34 14.5 c -0.828 0 -1.5 0.672 -1.5 1.5 0 0.828 0.672 1.5 1.5 1.5 0.828 0 1.5 -0.672 1.5 -1.5 0 -0.828 -0.672 -1.5 -1.5 -1.5 z" style="fill:#f5ab19;fill-opacity:1;stroke:none;fill-rule:nonzero"/>
    <path d="m 15 27 c -1.105 0 -2 0.895 -2 2 0 1.105 0.895 2 2 2 1.105 0 2 -0.895 2 -2 0 -1.105 -0.895 -2 -2 -2 z" style="fill:#0cb417;fill-opacity:1;stroke:none;fill-rule:nonzero"/>
   </g>
  </g>
 </g>
 <g>
  <path d="m 40.03 7.531 c 3.712 4.084 5.969 9.514 5.969 15.469 0 12.703 -10.297 23 -23 23 c -5.954 0 -11.384 -2.256 -15.469 -5.969 4.178 4.291 10.01 6.969 16.469 6.969 c 12.703 0 23 -10.298 23 -23 0 -6.462 -2.677 -12.291 -6.969 -16.469 z" style="opacity:0.1"/>
 </g>
</svg>
