<svg xmlns="http://www.w3.org/2000/svg" viewBox="0 0 48 48">
 <defs>
  <linearGradient id="linearGradient3764" x1="1" x2="47" gradientUnits="userSpaceOnUse" gradientTransform="matrix(0,-1,1,0,-1.5e-6,47.999998)">
   <stop style="stop-color:#d6740a;stop-opacity:1"/>
   <stop offset="1" style="stop-color:#e87e0b;stop-opacity:1"/>
  </linearGradient>
 </defs>
 <g>
  <path d="m 36.31 5 c 5.859 4.062 9.688 10.831 9.688 18.5 c 0 12.426 -10.07 22.5 -22.5 22.5 c -7.669 0 -14.438 -3.828 -18.5 -9.688 c 1.037 1.822 2.306 3.499 3.781 4.969 c 4.085 3.712 9.514 5.969 15.469 5.969 c 12.703 0 23 -10.298 23 -23 c 0 -5.954 -2.256 -11.384 -5.969 -15.469 c -1.469 -1.475 -3.147 -2.744 -4.969 -3.781 z m 4.969 3.781 c 3.854 4.113 6.219 9.637 6.219 15.719 c 0 12.703 -10.297 23 -23 23 c -6.081 0 -11.606 -2.364 -15.719 -6.219 c 4.16 4.144 9.883 6.719 16.219 6.719 c 12.703 0 23 -10.298 23 -23 c 0 -6.335 -2.575 -12.06 -6.719 -16.219 z" style="opacity:0.05"/>
  <path d="m 41.28 8.781 c 3.712 4.085 5.969 9.514 5.969 15.469 c 0 12.703 -10.297 23 -23 23 c -5.954 0 -11.384 -2.256 -15.469 -5.969 c 4.113 3.854 9.637 6.219 15.719 6.219 c 12.703 0 23 -10.298 23 -23 c 0 -6.081 -2.364 -11.606 -6.219 -15.719 z" style="opacity:0.1"/>
  <path d="m 31.25 2.375 c 8.615 3.154 14.75 11.417 14.75 21.13 c 0 12.426 -10.07 22.5 -22.5 22.5 c -9.708 0 -17.971 -6.135 -21.12 -14.75 a 23 23 0 0 0 44.875 -7 a 23 23 0 0 0 -16 -21.875 z" style="opacity:0.2"/>
 </g>
 <g>
  <path d="m 24 1 c 12.703 0 23 10.297 23 23 c 0 12.703 -10.297 23 -23 23 -12.703 0 -23 -10.297 -23 -23 0 -12.703 10.297 -23 23 -23 z" style="fill:url(#linearGradient3764);fill-opacity:1"/>
 </g>
 <g>
  <g>
   <g transform="translate(1,1)">
    <g style="opacity:0.1">
     <!-- color: #e87e0b -->
     <g>
      <path d="m 20.84 27.984 c -1.02 -0.074 -1.844 -0.387 -2.516 -0.945 c -0.301 -0.25 -0.625 -0.648 -0.816 -1 c -0.047 -0.082 -0.105 -0.16 -0.113 -0.172 l 0 1.949 l -2.867 0 l -0.008 -2.25 c -0.008 -2.332 -0.008 -2.445 -0.074 -2.727 c -0.117 -0.512 -0.539 -0.707 -0.984 -0.707 c -0.516 -0.016 -0.906 0.211 -1.137 0.73 c -0.098 0.277 -0.09 0.121 -0.098 2.645 l -0.004 2.313 l -2.879 0 c -0.043 -2.125 0.043 -4.25 -0.035 -6.367 c -0.031 -0.344 -0.098 -0.629 -0.234 -1.031 l -0.074 -0.227 l 2.801 0.012 l 0.07 0.156 c 0.043 0.094 0.082 0.215 0.098 0.293 c 0.016 0.074 0.031 0.141 0.039 0.141 c 0.008 0 0.102 -0.07 0.215 -0.145 c 0.43 -0.313 0.871 -0.492 1.43 -0.578 c 0.297 -0.047 1.043 -0.043 1.355 0.008 c 0.688 0.117 1.25 0.375 1.68 0.777 c 0.313 0.297 0.539 0.754 0.641 1.289 l 0.035 0.191 l 0.074 -0.148 c 0.141 -0.293 0.313 -0.543 0.543 -0.797 c 0.688 -0.77 1.637 -1.219 2.859 -1.359 c 0.281 -0.031 1.027 -0.031 1.324 0.004 c 0.621 0.078 1.137 0.234 1.602 0.496 c 0.367 0.207 0.641 0.426 0.93 0.742 c 0.27 0.297 0.504 0.668 0.66 1.02 l 0.055 0.121 l 0 -0.355 c 0 -0.75 -0.035 -1.164 -0.141 -1.598 l -0.066 -0.277 l 2.832 0.023 l 0.035 0.129 c 0.059 0.195 0.102 0.449 0.113 0.664 l 0.012 0.199 l 0.102 -0.148 c 0.336 -0.492 0.75 -0.797 1.27 -0.938 c 0.25 -0.07 0.477 -0.09 0.82 -0.082 c 0.289 0.004 0.477 0.035 0.809 0.121 l 0.086 0.02 c 0 0.301 0 0.605 0 0.906 c 0.004 0 0.078 -0.043 0.141 -0.09 c 1.074 -0.832 2.613 -1.172 4.07 -0.902 c 0.805 0.148 1.563 0.484 2.137 0.949 c 0.996 0.805 1.488 2.02 1.363 3.379 c -0.086 0.93 -0.488 1.762 -1.156 2.375 c -0.883 0.813 -2.145 1.246 -3.523 1.207 c -0.898 -0.027 -1.66 -0.227 -2.363 -0.625 c -0.574 -0.316 -1.063 -0.785 -1.426 -1.359 c -0.645 -1.043 -0.73 -2.445 -0.219 -3.613 c 0.039 -0.094 0.074 -0.172 0.074 -0.176 c -0.289 -0.105 -0.598 -0.102 -0.887 -0.035 c -0.18 0.059 -0.293 0.121 -0.449 0.25 c -0.375 0.305 -0.598 0.75 -0.688 1.398 c -0.051 0.34 -0.059 0.668 -0.059 2.32 l 0 1.66 l -2.875 0 l 0 -1.855 l -0.086 0.152 c -0.129 0.234 -0.277 0.438 -0.469 0.641 c -0.684 0.734 -1.652 1.137 -2.949 1.23 c -0.27 0.02 -0.797 0.02 -1.066 0 m 2.113 -2.559 l 2.457 0.047 l 0 -0.863 l -5.566 0 l 0.012 0.113 c 0.008 0.063 0.027 0.184 0.047 0.27 c 0.137 0.578 0.547 0.938 1.199 1.051 c 0.734 0.074 1.348 0.035 1.852 -0.617 m 12.293 0.445 c 0.473 -0.316 0.762 -0.914 0.816 -1.688 c 0.039 -0.563 -0.09 -1.156 -0.352 -1.566 c -0.082 -0.137 -0.266 -0.336 -0.371 -0.414 c -0.383 -0.285 -0.852 -0.32 -1.297 -0.219 c -0.688 0.227 -1.105 0.922 -1.141 1.887 c -0.023 0.707 0.156 1.313 0.52 1.719 c 0.23 0.254 0.434 0.379 0.754 0.453 c 0.363 0.063 0.738 0.016 1.07 -0.172 m -12.523 -2.941 c 0.023 -0.027 -0.066 -0.363 -0.137 -0.512 c -0.074 -0.152 -0.262 -0.332 -0.441 -0.426 c -0.523 -0.273 -1.313 -0.219 -1.754 0.117 c -0.223 0.176 -0.398 0.445 -0.492 0.77 l -0.02 0.074 l 1.414 -0.008 c 0.781 -0.004 1.422 -0.012 1.43 -0.016 m 0 0" style="fill:#000;fill-opacity:1;stroke:none;fill-rule:nonzero"/>
     </g>
    </g>
   </g>
  </g>
 </g>
 <g>
  <g>
   <!-- color: #e87e0b -->
   <g>
    <path d="m 20.84 27.984 c -1.02 -0.074 -1.844 -0.387 -2.516 -0.945 c -0.301 -0.25 -0.625 -0.648 -0.816 -1 c -0.047 -0.082 -0.105 -0.16 -0.113 -0.172 l 0 1.949 l -2.867 0 l -0.008 -2.25 c -0.008 -2.332 -0.008 -2.445 -0.074 -2.727 c -0.117 -0.512 -0.539 -0.707 -0.984 -0.707 c -0.516 -0.016 -0.906 0.211 -1.137 0.73 c -0.098 0.277 -0.09 0.121 -0.098 2.645 l -0.004 2.313 l -2.879 0 c -0.043 -2.125 0.043 -4.25 -0.035 -6.367 c -0.031 -0.344 -0.098 -0.629 -0.234 -1.031 l -0.074 -0.227 l 2.801 0.012 l 0.07 0.156 c 0.043 0.094 0.082 0.215 0.098 0.293 c 0.016 0.074 0.031 0.141 0.039 0.141 c 0.008 0 0.102 -0.07 0.215 -0.145 c 0.43 -0.313 0.871 -0.492 1.43 -0.578 c 0.297 -0.047 1.043 -0.043 1.355 0.008 c 0.688 0.117 1.25 0.375 1.68 0.777 c 0.313 0.297 0.539 0.754 0.641 1.289 l 0.035 0.191 l 0.074 -0.148 c 0.141 -0.293 0.313 -0.543 0.543 -0.797 c 0.688 -0.77 1.637 -1.219 2.859 -1.359 c 0.281 -0.031 1.027 -0.031 1.324 0.004 c 0.621 0.078 1.137 0.234 1.602 0.496 c 0.367 0.207 0.641 0.426 0.93 0.742 c 0.27 0.297 0.504 0.668 0.66 1.02 l 0.055 0.121 l 0 -0.355 c 0 -0.75 -0.035 -1.164 -0.141 -1.598 l -0.066 -0.277 l 2.832 0.023 l 0.035 0.129 c 0.059 0.195 0.102 0.449 0.113 0.664 l 0.012 0.199 l 0.102 -0.148 c 0.336 -0.492 0.75 -0.797 1.27 -0.938 c 0.25 -0.07 0.477 -0.09 0.82 -0.082 c 0.289 0.004 0.477 0.035 0.809 0.121 l 0.086 0.02 c 0 0.301 0 0.605 0 0.906 c 0.004 0 0.078 -0.043 0.141 -0.09 c 1.074 -0.832 2.613 -1.172 4.07 -0.902 c 0.805 0.148 1.563 0.484 2.137 0.949 c 0.996 0.805 1.488 2.02 1.363 3.379 c -0.086 0.93 -0.488 1.762 -1.156 2.375 c -0.883 0.813 -2.145 1.246 -3.523 1.207 c -0.898 -0.027 -1.66 -0.227 -2.363 -0.625 c -0.574 -0.316 -1.063 -0.785 -1.426 -1.359 c -0.645 -1.043 -0.73 -2.445 -0.219 -3.613 c 0.039 -0.094 0.074 -0.172 0.074 -0.176 c -0.289 -0.105 -0.598 -0.102 -0.887 -0.035 c -0.18 0.059 -0.293 0.121 -0.449 0.25 c -0.375 0.305 -0.598 0.75 -0.688 1.398 c -0.051 0.34 -0.059 0.668 -0.059 2.32 l 0 1.66 l -2.875 0 l 0 -1.855 l -0.086 0.152 c -0.129 0.234 -0.277 0.438 -0.469 0.641 c -0.684 0.734 -1.652 1.137 -2.949 1.23 c -0.27 0.02 -0.797 0.02 -1.066 0 m 2.113 -2.559 l 2.457 0.047 l 0 -0.863 l -5.566 0 l 0.012 0.113 c 0.008 0.063 0.027 0.184 0.047 0.27 c 0.137 0.578 0.547 0.938 1.199 1.051 c 0.734 0.074 1.348 0.035 1.852 -0.617 m 12.293 0.445 c 0.473 -0.316 0.762 -0.914 0.816 -1.688 c 0.039 -0.563 -0.09 -1.156 -0.352 -1.566 c -0.082 -0.137 -0.266 -0.336 -0.371 -0.414 c -0.383 -0.285 -0.852 -0.32 -1.297 -0.219 c -0.688 0.227 -1.105 0.922 -1.141 1.887 c -0.023 0.707 0.156 1.313 0.52 1.719 c 0.23 0.254 0.434 0.379 0.754 0.453 c 0.363 0.063 0.738 0.016 1.07 -0.172 m -12.523 -2.941 c 0.023 -0.027 -0.066 -0.363 -0.137 -0.512 c -0.074 -0.152 -0.262 -0.332 -0.441 -0.426 c -0.523 -0.273 -1.313 -0.219 -1.754 0.117 c -0.223 0.176 -0.398 0.445 -0.492 0.77 l -0.02 0.074 l 1.414 -0.008 c 0.781 -0.004 1.422 -0.012 1.43 -0.016 m 0 0" style="fill:#f9f9f9;fill-opacity:1;stroke:none;fill-rule:nonzero"/>
   </g>
  </g>
 </g>
 <g>
  <path d="m 40.03 7.531 c 3.712 4.084 5.969 9.514 5.969 15.469 0 12.703 -10.297 23 -23 23 c -5.954 0 -11.384 -2.256 -15.469 -5.969 4.178 4.291 10.01 6.969 16.469 6.969 c 12.703 0 23 -10.298 23 -23 0 -6.462 -2.677 -12.291 -6.969 -16.469 z" style="opacity:0.1"/>
 </g>
</svg>
