<svg version="1.1" viewBox="0 0 48 48" xmlns="http://www.w3.org/2000/svg">
 <defs>
  <linearGradient id="bg" x1="1" x2="47" gradientTransform="matrix(0 -1 1 0 0 48)" gradientUnits="userSpaceOnUse">
   <stop style="stop-color:#474f52" offset="0"/>
   <stop style="stop-color:#515a5d" offset="1"/>
  </linearGradient>
 </defs>
 <path d="m36.3 5c5.86 4.06 9.69 10.8 9.69 18.5 0 12.4-10.1 22.5-22.5 22.5-7.67 0-14.4-3.83-18.5-9.69 1.04 1.82 2.31 3.5 3.78 4.97 4.08 3.71 9.51 5.97 15.5 5.97 12.7 0 23-10.3 23-23 0-5.95-2.26-11.4-5.97-15.5-1.47-1.48-3.15-2.74-4.97-3.78zm4.97 3.78c3.85 4.11 6.22 9.64 6.22 15.7 0 12.7-10.3 23-23 23-6.08 0-11.6-2.36-15.7-6.22 4.16 4.14 9.88 6.72 16.2 6.72 12.7 0 23-10.3 23-23 0-6.34-2.58-12.1-6.72-16.2z" style="opacity:.05"/>
 <path d="m41.3 8.78c3.71 4.08 5.97 9.51 5.97 15.5 0 12.7-10.3 23-23 23-5.95 0-11.4-2.26-15.5-5.97 4.11 3.85 9.64 6.22 15.7 6.22 12.7 0 23-10.3 23-23 0-6.08-2.36-11.6-6.22-15.7z" style="opacity:.1"/>
 <path d="m31.2 2.38c8.62 3.15 14.8 11.4 14.8 21.1 0 12.4-10.1 22.5-22.5 22.5-9.71 0-18-6.14-21.1-14.8a23 23 0 0 0 44.9-7 23 23 0 0 0-16-21.9z" style="opacity:.2"/>
 <path d="m24 1c12.7 0 23 10.3 23 23s-10.3 23-23 23-23-10.3-23-23 10.3-23 23-23z" style="fill:url(#bg)"/>
 <path d="m40 7.53c3.71 4.08 5.97 9.51 5.97 15.5 0 12.7-10.3 23-23 23-5.95 0-11.4-2.26-15.5-5.97 4.18 4.29 10 6.97 16.5 6.97 12.7 0 23-10.3 23-23 0-6.46-2.68-12.3-6.97-16.5z" style="opacity:.1"/>
 <path d="m15 13c-1.11 0-2 0.892-2 2v6c0 1.11 0.892 2 2 2h6c1.11 0 2-0.892 2-2v-6c0-1.11-0.892-2-2-2zm14 0c-1.11 0-2 0.892-2 2v6c0 1.11 0.892 2 2 2h6c1.11 0 2-0.892 2-2v-6c0-1.11-0.892-2-2-2zm-14 14c-1.11 0-2 0.892-2 2v6c0 1.11 0.892 2 2 2h6c1.11 0 2-0.892 2-2v-6c0-1.11-0.892-2-2-2zm14 0c-1.11 0-2 0.892-2 2v6c0 1.11 0.892 2 2 2h6c1.11 0 2-0.892 2-2v-6c0-1.11-0.892-2-2-2z" style="opacity:.1"/>
 <rect x="12" y="12" width="10" height="10" ry="2" style="fill:#8ff0a4"/>
 <rect x="26" y="12" width="10" height="10" ry="2" style="fill:#9dc3f1"/>
 <rect x="12" y="26" width="10" height="10" ry="2" style="fill:#f66f60"/>
 <rect x="26" y="26" width="10" height="10" ry="2" style="fill:#f9f9f9"/>
 <path d="m15 14v6l4.5-3-4.5-3zm13 0v6h2v-6h-2zm4 0v6h2v-6h-2zm-15 14a3 3 0 0 0-3 3 3 3 0 0 0 3 3 3 3 0 0 0 3-3 3 3 0 0 0-3-3zm12 0c-0.554 0-1 0.446-1 1v4c0 0.554 0.446 1 1 1h1l-0.5-0.5 0.5-0.5h-1v-4h4v4h-1v-1l-1.5 1.5 1.5 1.5v-1h1c0.554 0 1-0.446 1-1v-4c0-0.554-0.446-1-1-1h-4z" style="fill:#4d4d4d"/>
</svg>
