<?xml version="1.0" encoding="UTF-8"?>
<svg version="1.1" viewBox="0 0 48 48" xmlns="http://www.w3.org/2000/svg">
 <defs>
  <linearGradient id="bg" x1="1" x2="47" gradientTransform="matrix(0 -1 1 0 -1.5e-6 48)" gradientUnits="userSpaceOnUse">
   <stop style="stop-color:#268675" offset="0"/>
   <stop style="stop-color:#2b9784" offset="1"/>
  </linearGradient>
 </defs>
 <path d="m36.3 5c5.86 4.06 9.69 10.8 9.69 18.5 0 12.4-10.1 22.5-22.5 22.5-7.67 0-14.4-3.83-18.5-9.69 1.04 1.82 2.31 3.5 3.78 4.97 4.08 3.71 9.51 5.97 15.5 5.97 12.7 0 23-10.3 23-23 0-5.95-2.26-11.4-5.97-15.5-1.47-1.48-3.15-2.74-4.97-3.78zm4.97 3.78c3.85 4.11 6.22 9.64 6.22 15.7 0 12.7-10.3 23-23 23-6.08 0-11.6-2.36-15.7-6.22 4.16 4.14 9.88 6.72 16.2 6.72 12.7 0 23-10.3 23-23 0-6.34-2.58-12.1-6.72-16.2z" style="opacity:.05"/>
 <path d="m41.3 8.78c3.71 4.08 5.97 9.51 5.97 15.5 0 12.7-10.3 23-23 23-5.95 0-11.4-2.26-15.5-5.97 4.11 3.85 9.64 6.22 15.7 6.22 12.7 0 23-10.3 23-23 0-6.08-2.36-11.6-6.22-15.7z" style="opacity:.1"/>
 <path d="m31.2 2.38c8.62 3.15 14.8 11.4 14.8 21.1 0 12.4-10.1 22.5-22.5 22.5-9.71 0-18-6.14-21.1-14.8a23 23 0 0 0 44.9-7 23 23 0 0 0-16-21.9z" style="opacity:.2"/>
 <path d="m24 1c12.7 0 23 10.3 23 23s-10.3 23-23 23-23-10.3-23-23 10.3-23 23-23z" style="fill:url(#bg)"/>
 <path d="m40 7.53c3.71 4.08 5.97 9.51 5.97 15.5 0 12.7-10.3 23-23 23-5.95 0-11.4-2.26-15.5-5.97 4.18 4.29 10 6.97 16.5 6.97 12.7 0 23-10.3 23-23 0-6.46-2.68-12.3-6.97-16.5z" style="opacity:.1"/>
 <path d="m14 15c-0.73 0-1 0.266-1 1v18c0 0.734 0.27 1 1 1h22c0.734 0 1-0.266 1-1v-18c0-0.734-0.266-1-1-1z" style="fill-opacity:.098"/>
 <path d="m35 14c0.734 0 1 0.266 1 1v1l-12 4-12-4v-1c0-0.734 0.27-1 1-1" style="fill:#ababab"/>
 <path d="m36 16v17c0 0.734-0.266 1-1 1h-22c-0.73 0-1-0.266-1-1v-17" style="fill:#e5e5e5"/>
 <path d="m31 25a7 7 0 0 1-7 7 7 7 0 0 1-7-7 7 7 0 0 1 7-7 7 7 0 0 1 7 7z" style="fill:#556ba0"/>
 <path d="m24 18c-0.475 6e-3 -0.948 0.0603-1.41 0.162-0.34 0.215-0.719 0.489-1.1 0.838h-1.07c-0.469 0.282-0.903 0.617-1.29 1h1.46c-0.585 0.775-1.1 1.76-1.37 3h-1.92c-0.0985 0.327-0.173 0.662-0.223 1h1.98c-0.0328 0.319-0.0508 0.652-0.0508 1s0.018 0.681 0.0508 1h-1.98c0.0497 0.338 0.124 0.673 0.223 1h1.92c0.273 1.24 0.784 2.23 1.37 3h-1.46c0.39 0.383 0.824 0.718 1.29 1h1.07c0.381 0.349 0.76 0.622 1.1 0.838 0.464 0.102 0.937 0.156 1.41 0.162 0.475-6e-3 0.948-0.0603 1.41-0.162 0.34-0.215 0.719-0.489 1.1-0.838h1.07c0.469-0.282 0.903-0.617 1.29-1h-1.46c0.585-0.775 1.1-1.76 1.37-3h1.92c0.0985-0.327 0.173-0.662 0.223-1h-1.98c0.0328-0.319 0.0508-0.652 0.0508-1s-0.018-0.681-0.0508-1h1.98c-0.049-0.338-0.123-0.673-0.221-1h-1.92c-0.273-1.24-0.784-2.23-1.37-3h1.48c-0.39-0.383-0.823-0.718-1.29-1h-1.09c-0.395-0.362-0.787-0.645-1.14-0.863-0.453-0.0908-0.913-0.137-1.38-0.137zm-2.11 2h0.664c-0.207 0.764-0.387 1.74-0.482 3h-1.84c0.333-1.34 0.981-2.31 1.66-3zm1.7 0h0.816c0.212 0.708 0.411 1.69 0.516 3h-1.85c0.105-1.31 0.304-2.29 0.516-3zm1.85 0h0.664c0.677 0.694 1.32 1.66 1.66 3h-1.84c-0.0958-1.26-0.276-2.24-0.482-3zm-5.39 4h1.96c-0.0112 0.319-0.0176 0.651-0.0176 1s0.0064 0.681 0.0176 1h-1.96c-0.0354-0.316-0.0547-0.648-0.0547-1s0.0193-0.684 0.0547-1zm2.96 0h1.96c0.0115 0.317 0.0176 0.649 0.0176 1s-6e-3 0.683-0.0176 1h-1.96c-0.0115-0.317-0.0176-0.649-0.0176-1s6e-3 -0.683 0.0176-1zm2.96 0h1.96c0.0354 0.316 0.0547 0.648 0.0547 1s-0.0193 0.684-0.0547 1h-1.96c0.0112-0.319 0.0176-0.651 0.0176-1s-0.0064-0.681-0.0176-1zm-5.75 3h1.84c0.0958 1.26 0.276 2.24 0.482 3h-0.664c-0.677-0.694-1.32-1.66-1.66-3zm2.84 0h1.85c-0.105 1.31-0.304 2.29-0.516 3h-0.816c-0.212-0.708-0.411-1.69-0.516-3zm2.85 0h1.84c-0.333 1.34-0.981 2.31-1.66 3h-0.664c0.207-0.764 0.387-1.74 0.482-3z" style="fill:#fff;opacity:.5"/>
</svg>
