<svg style="" viewBox="0 0 48 48" xmlns="http://www.w3.org/2000/svg" xmlns:xlink="http://www.w3.org/1999/xlink">
 <defs style="">
  <linearGradient id="linearGradient3764" gradientTransform="matrix(0 -1 1 0 -.000002 48)" gradientUnits="userSpaceOnUse" style="" x1="1" x2="47">
   <stop offset="0" style="stop-color:#ba3646"/>
   <stop offset="1" style="stop-color:#c73d4e"/>
  </linearGradient>
 </defs>
 <path d="m 36.31 5 c 5.859 4.062 9.688 10.831 9.688 18.5 0 12.426 -10.07 22.5 -22.5 22.5 -7.669 0 -14.438 -3.828 -18.5 -9.688 1.037 1.822 2.306 3.499 3.781 4.969 4.085 3.712 9.514 5.969 15.469 5.969 12.703 0 23 -10.298 23 -23 0 -5.954 -2.256 -11.384 -5.969 -15.469 -1.469 -1.475 -3.147 -2.744 -4.969 -3.781 z m 4.969 3.781 c 3.854 4.113 6.219 9.637 6.219 15.719 0 12.703 -10.297 23 -23 23 -6.081 0 -11.606 -2.364 -15.719 -6.219 4.16 4.144 9.883 6.719 16.219 6.719 12.703 0 23 -10.298 23 -23 0 -6.335 -2.575 -12.06 -6.719 -16.219 z" style="opacity:.05"/>
 <path d="m 41.28 8.781 c 3.712 4.085 5.969 9.514 5.969 15.469 0 12.703 -10.297 23 -23 23 -5.954 0 -11.384 -2.256 -15.469 -5.969 4.113 3.854 9.637 6.219 15.719 6.219 12.703 0 23 -10.298 23 -23 0 -6.081 -2.364 -11.606 -6.219 -15.719 z" style="opacity:.1"/>
 <path d="m 31.25 2.375 c 8.615 3.154 14.75 11.417 14.75 21.13 0 12.426 -10.07 22.5 -22.5 22.5 -9.708 0 -17.971 -6.135 -21.12 -14.75 a 23 23 0 0 0 44.875 -7 23 23 0 0 0 -16 -21.875 z" style="opacity:.2"/>
 <path d="m 24 1 c 12.703 0 23 10.297 23 23 s -10.297 23 -23 23 -23 -10.297 -23 -23 10.297 -23 23 -23 z" style="fill:url(#linearGradient3764)"/>
 <g style="opacity:.1" transform="matrix(1.0005 0 0 .99907 .9847 1.033)">
  <g style="">
   <g style="">
    <path d="m 21.596 11.01 c -.2196 -.04394 -.38692 .06996 -.58008 .13086 -.22551 .0711 -.40431 .26941 -.46875 .5 -.03599 -.0032 -.07212 -.0144 -.10742 -.01367 -.40935 -.05424 -.70479 .28078 -1.041 .44922 -.88641 .62246 -1.779 1.1575 -2.6875 1.5879 -1.1215 .50329 -2.1253 1.2391 -3.2148 1.8066 -.17514 .09015 -.31946 .25141 -.38672 .43555 -.05964 -.0063 -.11959 -.01068 -.17969 -.002 -.29085 .04636 -.59016 .18183 -.74609 .44336 -.12992 .20961 -.16975 .46108 -.18359 .70317 .0031 .37212 .25391 .73795 .61719 .84375 -.24294 .25264 -.36109 .63263 -.28125 .97852 .10278 1.4432 .23285 2.8872 .5 4.3105 .15097 .80438 .06318 1.6548 .4082 2.418 .25226 .55797 .13324 1.1768 .18164 1.7676 .04484 .54731 .05643 1.1346 .32031 1.627 .03735 .05043 .07968 .0906 .125 .125 -.04278 .05956 -.0853 .11948 -.10938 .19141 -.14845 .42764 -.0654 .94987 .25586 1.2793 .25627 .2512 .66331 .28187 .98047 .12695 .28278 .48158 .86408 .65943 1.3164 .94727 .86169 .45157 1.681 .99866 2.5918 1.3457 1.9555 .86471 3.9412 2.1261 5.6602 2.9844 .23253 .11283 .47497 .07704 .68945 -.02148 .02988 .13779 .07679 .27189 .1543 .39062 .14075 .2553 .34617 .49326 .63086 .58789 .30696 .11542 .67813 .01127 .88476 -.24219 .18652 -.21914 .29697 -.50179 .30469 -.78906 .38542 .1026 .79145 -.07984 1.0957 -.33203 .98431 -.54068 1.6658 -1.3469 2.5078 -1.9609 1.2993 -.77829 2.1542 -2.2319 3.2676 -3.0723 .21372 -.16692 .30963 -.43448 .29492 -.69336 .27883 .09961 .59594 .09657 .85156 -.05859 .22253 -.13532 .38563 -.36997 .41406 -.63086 .04846 -.3354 -.02404 -.69516 -.22266 -.97266 -.03992 -.05586 -.08977 -.10443 -.14258 -.14844 .24741 -.2741 .36242 -.72001 .39312 -1.0762 .19054 -1.3936 .10419 -2.8024 .12641 -4.209 .0089 -.5643 .19004 -1.1084 .14844 -1.6777 -.12435 -1.7014 -.24761 -3.411 -.1582 -5.1172 -.0051 -.25485 -.07907 -.54287 -.22461 -.76953 .17597 -.12402 .32496 -.2866 .375 -.49805 .08603 -.32533 .0401 -.68367 -.11719 -.98047 -.13963 -.24838 -.40367 -.4359 -.69531 -.43359 -.06595 -.01094 -.13224 -.02662 -.1875 -.03711 -.20956 -.02547 -.43257 .01601 -.61133 .12891 -.08148 -.13481 -.19124 -.25133 -.35938 -.30273 -1.0671 -.41637 -2.2427 -.32526 -3.3418 -.61914 -1.3995 -.41001 -2.9274 -.49073 -4.2441 -.81836 -1.1971 -.29798 -2.4248 -.51012 -3.6582 -.55273 -.24576 -.04517 -.48734 .04449 -.67383 .20117 -.04979 -.05216 -.10316 -.10201 -.16211 -.14258 -.10035 -.06906 -.21339 -.11923 -.31055 -.13867 z m .61719 1.7031 c .27891 .17239 .63258 .24877 .94531 .32031 1.3111 .3044 2.657 .39893 3.9785 .6543 1.9746 .5415 4.0421 .72976 5.8926 1.0762 -.14117 .11242 -.28105 .23042 -.42969 .31836 -2.0731 1.3737 -3.9436 2.7732 -5.9375 3.9375 -.34852 .23295 -.76559 .47591 -1 .83203 -.1704 -.08049 -.35975 -.1313 -.55859 -.10937 .00019 .0017 -.0022 -.000254 -.0039 0 -.12547 .01517 -.24607 .05575 -.35938 .10742 -.2938 -.36707 -.81313 -.52738 -1.2617 -.63867 -.17057 -.0464 -.33955 -.09889 -.50977 -.14648 .02167 -.42258 -.0137 -.84503 -.06836 -1.2617 -.22166 -1.6487 -.26926 -3.2717 -.53906 -4.7949 -.03004 -.11002 -.08168 -.20907 -.14844 -.29492 z m -1.5566 .49414 c .01198 .07119 .01037 .14488 .04297 .21094 .25907 1.1964 .18986 2.4237 .27734 3.6367 .03504 .48589 .05642 .97279 .08398 1.459 -2.1094 -.63423 -4.2054 -1.3121 -6.3242 -1.9121 .35498 -.14209 .69035 -.34404 1.0273 -.51758 1.6825 -.86643 3.3121 -1.836 4.8926 -2.877 z m 13.449 2.7695 c .000576 .0088 -.0027 .01862 -.002 .02734 -.04993 2.086 .0511 4.1755 -.0625 6.2598 -.12083 1.6202 -.08611 3.2472 -.08594 4.8711 -.0081 .06337 .0083 .13123 .01172 .19726 -.23412 -.14323 -.49867 -.25539 -.74219 -.34961 -2.2669 -1.0561 -4.5974 -2.1836 -6.7207 -3.0977 .000132 -.27786 -.01412 -.55568 0 -.83398 -.02658 -.44673 -.20269 -1.0056 -.5332 -1.3574 .08116 -.08546 .15496 -.18322 .20703 -.3125 l .002 -.002 v -.003855 c .01045 -.02696 .0085 -.05835 .01758 -.08594 .08863 .01466 .17824 .02096 .27148 .002 .89458 -.20866 1.7172 -.70826 2.3438 -1.377 1.7659 -1.3389 3.649 -2.7244 5.293 -3.9375 z m -20.137 2.1074 c .34418 .16838 .74411 .25508 1.0938 .375 1.869 .64102 3.7799 1.2055 5.6602 1.8379 .17544 .059 .34797 .13779 .52148 .20703 .0344 .42328 .05852 .84729 .06836 1.2715 .03544 .34858 .24158 .70127 .56445 .84375 -.08404 .07555 -.16101 .15875 -.21289 .25976 -.08691 .15446 -.1279 .33831 -.12109 .51758 -1.3161 .78407 -2.6728 1.8802 -3.7227 2.793 -.87412 .70524 -1.8723 1.24 -2.7363 1.957 .07154 -.56318 -.06295 -1.1565 -.06641 -1.7207 -.0053 -.87146 -.1591 -1.7312 -.36133 -2.5781 -.37038 -1.5511 -.37996 -3.1546 -.52344 -4.7363 -.04705 -.33224 -.02078 -.72086 -.16406 -1.0273 z m 8.9961 3.0566 c .34855 .10225 .70227 .1829 1.0723 .19336 .0595 .0026 .11657 -.0057 .17383 -.01563 .02367 .06829 .03651 .14176 .06445 .20703 .05187 .12946 .13931 .23225 .23828 .31445 -.16075 .35428 -.15106 .8301 -.125 1.1934 .000068 .0019 -.00007 .0039 0 .0059 -.24144 -.082 -.48092 -.17186 -.72852 -.23047 -.04883 -.0078 -.09766 0 -.14649 0 -.08747 .0045 -.16361 .02938 -.23438 .0625 -.08745 -.21272 -.25499 -.3976 -.48047 -.45703 -.000666 -.000099 -.0032 .000102 -.0039 0 .13615 -.15901 .22089 -.36445 .19531 -.58008 -.000912 -.23104 -.01511 -.46198 -.02539 -.69336 z m .035156 2.8574 c .02299 .03624 .04238 .07354 .07227 .10547 .34946 .44856 .98001 .47485 1.3945 .83984 .04902 .03262 .10085 .0601 .15039 .0918 .1209 .81452 .23045 1.6305 .16016 2.459 -.13451 1.5853 .26707 3.1402 .30859 4.7227 .01705 .64988 -.02758 1.4729 .29297 2.084 -.10474 -.07021 -.21787 -.12672 -.33203 -.16602 -1.9343 -.82722 -3.731 -1.8684 -5.4883 -2.7207 -1.0972 -.53136 -2.0883 -1.2853 -3.2441 -1.6934 -.08466 -.02645 -.17358 -.04502 -.26172 -.06445 1.0899 -.96195 2.3563 -1.7451 3.3066 -2.543 .97683 -.78879 2.0061 -1.5136 2.9551 -2.3359 .17799 -.15596 .27151 -.38466 .2793 -.61524 .14682 -.02504 .2855 -.07646 .40625 -.16406 z m 3.5859 2.0176 c .24968 .1006 .49289 .21431 .74805 .30273 2.234 .83261 4.0745 1.8705 6.0215 2.8457 -.39913 .10515 -.70735 .44262 -1.0332 .68359 -1.4088 1.1587 -2.6517 2.2417 -3.9492 3.2637 -.68197 .35299 -1.3618 .8394 -1.6543 1.541 -.10978 .26328 -.2539 .03125 -.2539 .03125 .24064 -.22162 .3946 -.60358 .33398 -.91406 .04031 -1.2286 .09288 -2.4578 .06836 -3.6855 -.02712 -1.3578 -.17656 -2.7131 -.28125 -4.0684 z" style="color-rendering:auto;fill-rule:evenodd;image-rendering:auto;opacity:1;shape-rendering:auto" transform="matrix(.99951 0 0 1.0009 .015293 -.033005)"/>
   </g>
  </g>
 </g>
 <g style="" transform="matrix(1.0005 0 0 .99907 -.015301 .032975)">
  <path d="m 21.596 11.01 c -.2196 -.04394 -.38692 .06996 -.58008 .13086 -.22551 .0711 -.40431 .26941 -.46875 .5 -.03599 -.0032 -.07212 -.0144 -.10742 -.01367 -.40935 -.05424 -.70479 .28078 -1.041 .44922 -.88641 .62246 -1.779 1.1575 -2.6875 1.5879 -1.1215 .50329 -2.1253 1.2391 -3.2148 1.8066 -.17514 .09015 -.31946 .25141 -.38672 .43555 -.05964 -.0063 -.11959 -.01068 -.17969 -.002 -.29085 .04636 -.59016 .18183 -.74609 .44336 -.12992 .20961 -.16975 .46108 -.18359 .70317 .0031 .37212 .25391 .73795 .61719 .84375 -.24294 .25264 -.36109 .63263 -.28125 .97852 .10278 1.4432 .23285 2.8872 .5 4.3105 .15097 .80438 .06318 1.6548 .4082 2.418 .25226 .55797 .13324 1.1768 .18164 1.7676 .04484 .54731 .05643 1.1346 .32031 1.627 .03735 .05043 .07968 .0906 .125 .125 -.04278 .05956 -.0853 .11948 -.10938 .19141 -.14845 .42764 -.0654 .94987 .25586 1.2793 .25627 .2512 .66331 .28187 .98047 .12695 .28278 .48158 .86408 .65943 1.3164 .94727 .86169 .45157 1.681 .99866 2.5918 1.3457 1.9555 .86471 3.9412 2.1261 5.6602 2.9844 .23253 .11283 .47497 .07704 .68945 -.02148 .02988 .13779 .07679 .27189 .1543 .39062 .14075 .2553 .34617 .49326 .63086 .58789 .30696 .11542 .67813 .01127 .88476 -.24219 .18652 -.21914 .29697 -.50179 .30469 -.78906 .38542 .1026 .79145 -.07984 1.0957 -.33203 .98431 -.54068 1.6658 -1.3469 2.5078 -1.9609 1.2993 -.77829 2.1542 -2.2319 3.2676 -3.0723 .21372 -.16692 .30963 -.43448 .29492 -.69336 .27883 .09961 .59594 .09657 .85156 -.05859 .22253 -.13532 .38563 -.36997 .41406 -.63086 .04846 -.3354 -.02404 -.69516 -.22266 -.97266 -.03992 -.05586 -.08977 -.10443 -.14258 -.14844 .24741 -.2741 .36242 -.72001 .39312 -1.0762 .19054 -1.3936 .10419 -2.8024 .12641 -4.209 .0089 -.5643 .19004 -1.1084 .14844 -1.6777 -.12435 -1.7014 -.24761 -3.411 -.1582 -5.1172 -.0051 -.25485 -.07907 -.54287 -.22461 -.76953 .17597 -.12402 .32496 -.2866 .375 -.49805 .08603 -.32533 .0401 -.68367 -.11719 -.98047 -.13963 -.24838 -.40367 -.4359 -.69531 -.43359 -.06595 -.01094 -.13224 -.02662 -.1875 -.03711 -.20956 -.02547 -.43257 .01601 -.61133 .12891 -.08148 -.13481 -.19124 -.25133 -.35938 -.30273 -1.0671 -.41637 -2.2427 -.32526 -3.3418 -.61914 -1.3995 -.41001 -2.9274 -.49073 -4.2441 -.81836 -1.1971 -.29798 -2.4248 -.51012 -3.6582 -.55273 -.24576 -.04517 -.48734 .04449 -.67383 .20117 -.04979 -.05216 -.10316 -.10201 -.16211 -.14258 -.10035 -.06906 -.21339 -.11923 -.31055 -.13867 z m .61719 1.7031 c .27891 .17239 .63258 .24877 .94531 .32031 1.3111 .3044 2.657 .39893 3.9785 .6543 1.9746 .5415 4.0421 .72976 5.8926 1.0762 -.14117 .11242 -.28105 .23042 -.42969 .31836 -2.0731 1.3737 -3.9436 2.7732 -5.9375 3.9375 -.34852 .23295 -.76559 .47591 -1 .83203 -.1704 -.08049 -.35975 -.1313 -.55859 -.10937 .00019 .0017 -.0022 -.000254 -.0039 0 -.12547 .01517 -.24607 .05575 -.35938 .10742 -.2938 -.36707 -.81313 -.52738 -1.2617 -.63867 -.17057 -.0464 -.33955 -.09889 -.50977 -.14648 .02167 -.42258 -.0137 -.84503 -.06836 -1.2617 -.22166 -1.6487 -.26926 -3.2717 -.53906 -4.7949 -.03004 -.11002 -.08168 -.20907 -.14844 -.29492 z m -1.5566 .49414 c .01198 .07119 .01037 .14488 .04297 .21094 .25907 1.1964 .18986 2.4237 .27734 3.6367 .03504 .48589 .05642 .97279 .08398 1.459 -2.1094 -.63423 -4.2054 -1.3121 -6.3242 -1.9121 .35498 -.14209 .69035 -.34404 1.0273 -.51758 1.6825 -.86643 3.3121 -1.836 4.8926 -2.877 z m 13.449 2.7695 c .000576 .0088 -.0027 .01862 -.002 .02734 -.04993 2.086 .0511 4.1755 -.0625 6.2598 -.12083 1.6202 -.08611 3.2472 -.08594 4.8711 -.0081 .06337 .0083 .13123 .01172 .19726 -.23412 -.14323 -.49867 -.25539 -.74219 -.34961 -2.2669 -1.0561 -4.5974 -2.1836 -6.7207 -3.0977 .000132 -.27786 -.01412 -.55568 0 -.83398 -.02658 -.44673 -.20269 -1.0056 -.5332 -1.3574 .08116 -.08546 .15496 -.18322 .20703 -.3125 l .002 -.002 v -.003855 c .01045 -.02696 .0085 -.05835 .01758 -.08594 .08863 .01466 .17824 .02096 .27148 .002 .89458 -.20866 1.7172 -.70826 2.3438 -1.377 1.7659 -1.3389 3.649 -2.7244 5.293 -3.9375 z m -20.137 2.1074 c .34418 .16838 .74411 .25508 1.0938 .375 1.869 .64102 3.7799 1.2055 5.6602 1.8379 .17544 .059 .34797 .13779 .52148 .20703 .0344 .42328 .05852 .84729 .06836 1.2715 .03544 .34858 .24158 .70127 .56445 .84375 -.08404 .07555 -.16101 .15875 -.21289 .25976 -.08691 .15446 -.1279 .33831 -.12109 .51758 -1.3161 .78407 -2.6728 1.8802 -3.7227 2.793 -.87412 .70524 -1.8723 1.24 -2.7363 1.957 .07154 -.56318 -.06295 -1.1565 -.06641 -1.7207 -.0053 -.87146 -.1591 -1.7312 -.36133 -2.5781 -.37038 -1.5511 -.37996 -3.1546 -.52344 -4.7363 -.04705 -.33224 -.02078 -.72086 -.16406 -1.0273 z m 8.9961 3.0566 c .34855 .10225 .70227 .1829 1.0723 .19336 .0595 .0026 .11657 -.0057 .17383 -.01563 .02367 .06829 .03651 .14176 .06445 .20703 .05187 .12946 .13931 .23225 .23828 .31445 -.16075 .35428 -.15106 .8301 -.125 1.1934 .000068 .0019 -.00007 .0039 0 .0059 -.24144 -.082 -.48092 -.17186 -.72852 -.23047 -.04883 -.0078 -.09766 0 -.14649 0 -.08747 .0045 -.16361 .02938 -.23438 .0625 -.08745 -.21272 -.25499 -.3976 -.48047 -.45703 -.000666 -.000099 -.0032 .000102 -.0039 0 .13615 -.15901 .22089 -.36445 .19531 -.58008 -.000912 -.23104 -.01511 -.46198 -.02539 -.69336 z m .035156 2.8574 c .02299 .03624 .04238 .07354 .07227 .10547 .34946 .44856 .98001 .47485 1.3945 .83984 .04902 .03262 .10085 .0601 .15039 .0918 .1209 .81452 .23045 1.6305 .16016 2.459 -.13451 1.5853 .26707 3.1402 .30859 4.7227 .01705 .64988 -.02758 1.4729 .29297 2.084 -.10474 -.07021 -.21787 -.12672 -.33203 -.16602 -1.9343 -.82722 -3.731 -1.8684 -5.4883 -2.7207 -1.0972 -.53136 -2.0883 -1.2853 -3.2441 -1.6934 -.08466 -.02645 -.17358 -.04502 -.26172 -.06445 1.0899 -.96195 2.3563 -1.7451 3.3066 -2.543 .97683 -.78879 2.0061 -1.5136 2.9551 -2.3359 .17799 -.15596 .27151 -.38466 .2793 -.61524 .14682 -.02504 .2855 -.07646 .40625 -.16406 z m 3.5859 2.0176 c .24968 .1006 .49289 .21431 .74805 .30273 2.234 .83261 4.0745 1.8705 6.0215 2.8457 -.39913 .10515 -.70735 .44262 -1.0332 .68359 -1.4088 1.1587 -2.6517 2.2417 -3.9492 3.2637 -.68197 .35299 -1.3618 .8394 -1.6543 1.541 -.10978 .26328 -.2539 .03125 -.2539 .03125 .24064 -.22162 .3946 -.60358 .33398 -.91406 .04031 -1.2286 .09288 -2.4578 .06836 -3.6855 -.02712 -1.3578 -.17656 -2.7131 -.28125 -4.0684 z" style="color-rendering:auto;fill-rule:evenodd;fill:#f9f9f9;image-rendering:auto;shape-rendering:auto" transform="matrix(.99951 0 0 1.0009 .015293 -.033005)"/>
 </g>
 <path d="m 40.03 7.531 c 3.712 4.084 5.969 9.514 5.969 15.469 0 12.703 -10.297 23 -23 23 -5.954 0 -11.384 -2.256 -15.469 -5.969 4.178 4.291 10.01 6.969 16.469 6.969 12.703 0 23 -10.298 23 -23 0 -6.462 -2.677 -12.291 -6.969 -16.469 z" style="opacity:.1"/>
</svg>
