<svg style="" version="1.1" viewBox="0 0 48 48" xmlns="http://www.w3.org/2000/svg">
 <defs style="">
  <linearGradient id="linearGradient3764" x1="1" x2="47" style="" gradientTransform="matrix(0 -1 1 0 -2e-6 48)" gradientUnits="userSpaceOnUse">
   <stop style="stop-color:#ba3646" offset="0"/>
   <stop style="stop-color:#c73d4e" offset="1"/>
  </linearGradient>
 </defs>
 <path d="m36.31 5c5.859 4.062 9.688 10.831 9.688 18.5 0 12.426-10.07 22.5-22.5 22.5-7.669 0-14.438-3.828-18.5-9.688 1.037 1.822 2.306 3.499 3.781 4.969 4.085 3.712 9.514 5.969 15.469 5.969 12.703 0 23-10.298 23-23 0-5.954-2.256-11.384-5.969-15.469-1.469-1.475-3.147-2.744-4.969-3.781zm4.969 3.781c3.854 4.113 6.219 9.637 6.219 15.719 0 12.703-10.297 23-23 23-6.081 0-11.606-2.364-15.719-6.219 4.16 4.144 9.883 6.719 16.219 6.719 12.703 0 23-10.298 23-23 0-6.335-2.575-12.06-6.719-16.219z" style="opacity:.05"/>
 <path d="m41.28 8.781c3.712 4.085 5.969 9.514 5.969 15.469 0 12.703-10.297 23-23 23-5.954 0-11.384-2.256-15.469-5.969 4.113 3.854 9.637 6.219 15.719 6.219 12.703 0 23-10.298 23-23 0-6.081-2.364-11.606-6.219-15.719z" style="opacity:.1"/>
 <path d="m31.25 2.375c8.615 3.154 14.75 11.417 14.75 21.13 0 12.426-10.07 22.5-22.5 22.5-9.708 0-17.971-6.135-21.12-14.75a23 23 0 0 0 44.875-7 23 23 0 0 0-16-21.875z" style="opacity:.2"/>
 <path d="m24 1c12.703 0 23 10.297 23 23s-10.297 23-23 23-23-10.297-23-23 10.297-23 23-23z" style="fill:url(#linearGradient3764)"/>
 <g transform="matrix(1.0005 0 0 .99907 .9847 1.033)" style="opacity:.1">
  <g style=""></g>
 </g>
 <path d="m40.03 7.531c3.712 4.084 5.969 9.514 5.969 15.469 0 12.703-10.297 23-23 23-5.954 0-11.384-2.256-15.469-5.969 4.178 4.291 10.01 6.969 16.469 6.969 12.703 0 23-10.298 23-23 0-6.462-2.677-12.291-6.969-16.469z" style="opacity:.1"/>
 <path d="m20.398 13.076c-1.971 1.2153-4.0089 2.3952-5.9024 3.3945-0.17515 0.09015-0.31946 0.25141-0.38672 0.43555-0.05964-0.0063-0.11959-0.01068-0.17969-2e-3 -0.29086 0.04636-0.59016 0.18183-0.74609 0.44336-0.12992 0.20961-0.16975 0.46108-0.18359 0.70317 0.0031 0.37212 0.25391 0.73794 0.6172 0.84375-0.24294 0.25264-0.36109 0.63263-0.28125 0.97852 0.10278 1.4432 0.23286 2.8872 0.50001 4.3105 0.12137 1.532 0.58551 2.7576 0.58984 4.1856 0.04484 0.54731 0.05643 1.1346 0.32031 1.627 0.03735 0.05042 0.07968 0.0906 0.125 0.125-0.04278 0.05956-0.0853 0.11948-0.10938 0.19141-0.14845 0.42764-0.0654 0.94986 0.25587 1.2793 0.25627 0.2512 0.66331 0.28187 0.98048 0.12695 0.28278 0.48158 0.86409 0.65943 1.3165 0.94727 2.7744 1.4017 5.5983 2.9905 8.2521 4.3301 0.23254 0.11283 0.47498 0.07704 0.68945-0.02148 0.02989 0.13778 0.07679 0.2719 0.1543 0.39062 0.14075 0.2553 0.34617 0.49326 0.63087 0.58789 0.30696 0.11542 0.67814 0.01127 0.88477-0.24219 0.18652-0.21914 0.29697-0.50179 0.30469-0.78906 0.38542 0.1026 0.79146-0.07984 1.0957-0.33203 2.2937-1.2928 3.8811-3.5544 5.7755-5.0332 0.21373-0.16692 0.30964-0.43448 0.29493-0.69336 0.27883 0.09961 0.59595 0.09657 0.85157-0.05859 0.22253-0.13532 0.38563-0.36997 0.41407-0.63086 0.04846-0.3354-0.02404-0.69516-0.22266-0.97266-0.03992-0.05586-0.08977-0.10443-0.14258-0.14844 0.24741-0.2741 0.46269-0.72001 0.4934-1.0762 0.17855-2.1004 0.13862-3.9898 0.17458-5.8867 0.03234-1.7057-0.24761-3.411-0.1582-5.1172-0.0051-0.25485-0.07907-0.54287-0.22461-0.76953 0.17597-0.12402 0.32496-0.2866 0.37501-0.49805 0.08603-0.32533 0.0401-0.68366-0.11719-0.98047-0.13963-0.24838-0.40367-0.4359-0.69532-0.43359-0.06595-0.01094-0.13225-0.02662-0.1875-0.03711-0.20956-0.02547-0.43258 0.016-0.61134 0.12891-0.08148-0.13481-0.19125-0.25133-0.35938-0.30273-2.5443-0.63084-5.1671-0.85496-7.586-1.4375-1.1971-0.29798-2.4262-0.47962-3.6582-0.55273-1.284-0.09197-2.1438 0.27743-3.3441 0.9861zm2.8145 0.63666c0.27891 0.17238 0.63259 0.24876 0.94532 0.32031 3.3321 0.59704 6.7316 1.1544 9.8712 1.7305-0.14117 0.11242-0.28105 0.23042-0.4297 0.31836-2.0731 1.3737-3.9437 2.7732-5.9376 3.9375-0.34852 0.23295-0.7656 0.47591-1 0.83203-0.1704-0.08049-0.35975-0.1313-0.5586-0.10937-0.13192 0.0068-0.25669 0.0759-0.36328 0.10742-0.29381-0.36707-0.81314-0.52738-1.2617-0.63866-0.17058-0.0464-0.33955-0.09889-0.50978-0.14648 0.02167-0.42258-0.0137-0.84503-0.06836-1.2617-0.22166-1.6487-0.26926-3.2717-0.53907-4.7949-0.02039-0.11449-0.10274-0.2042-0.14846-0.29506zm-1.5566 0.49413c0.01198 0.07119 0.01037 0.14488 0.04297 0.21094 0.25907 1.1964 0.18986 2.4237 0.27734 3.6367 0.03504 0.48589 0.05642 0.97279 0.08398 1.459-2.1095-0.63423-4.2054-1.3121-6.3243-1.9121 2.0656-1.0718 4.1527-2.2409 5.92-3.3945zm13.344 2.7933c0 4.0001-0.0409 7.8016-0.04452 11.135-0.0081 0.06337 0.0083 0.13123 0.01172 0.19726-0.23412-0.14323-0.49868-0.25539-0.7422-0.3496-2.2669-1.056-4.5974-2.1836-6.7208-3.0977 1.32e-4 -0.27786-0.01412-0.55568 0-0.83398-0.02658-0.44673-0.20269-1.0056-0.53321-1.3574 0.08116-0.08546 0.15496-0.18322 0.20703-0.3125l2e-3 -2e-3v-0.0039c-0.0034-0.14897 0.19796-0.05748 0.28906-0.08394 0.89459-0.20866 1.6418-0.78792 2.3439-1.377 1.7322-1.4849 3.7169-2.6796 5.187-3.9143zm-20.031 2.0836c0.34418 0.16838 0.74412 0.25508 1.0938 0.375 1.869 0.64102 3.7799 1.2055 5.6602 1.8379 0.17544 0.059 0.34797 0.13779 0.52148 0.20703 0.0344 0.42328 0.05852 0.84729 0.06837 1.2715 0.03544 0.34858 0.24158 0.70127 0.56445 0.84375-0.08404 0.07555-0.16101 0.15875-0.2129 0.25976-0.08691 0.15446-0.1279 0.33832-0.12109 0.51758-1.3162 0.78407-2.6728 1.8802-3.7228 2.793-0.87413 0.70524-1.8723 1.24-2.7364 1.957-0.05533-3.0201-0.70156-6.2605-0.9512-9.0351-0.04705-0.33224-0.02078-0.72086-0.16406-1.0273zm8.9962 3.0566c0.34855 0.10225 0.70228 0.1829 1.0723 0.19336 0.0595 0.0026 0.11657-0.0057 0.17383-0.01563 0.02367 0.06829 0.03651 0.14176 0.06445 0.20703 0.05187 0.12946 0.13931 0.23225 0.23828 0.31445-0.16075 0.35428-0.15106 0.8301-0.125 1.1934 6.8e-5 0.0019-7e-5 0.0039 0 0.0059-0.2982-0.15173-0.3978-0.18141-0.67727-0.23047-0.08627-0.01515-0.36136 0.02938-0.43214 0.0625-0.08745-0.21272-0.25499-0.3976-0.48048-0.45703 0.17036-0.15306 0.17197-0.4262 0.19142-0.58008 0.02974-0.23521-0.01761-0.48046-0.02542-0.69346zm0.03516 2.8574c0.02299 0.03624 0.04238 0.07354 0.07227 0.10546 0.34946 0.44856 0.98002 0.47485 1.3945 0.83984 0.04902 0.03262 0.10085 0.0601 0.1504 0.0918 0.12441 2.4163 0.39307 4.9699 0.46875 7.1817 0.01705 0.64987-0.02758 1.4729 0.29298 2.084-0.10474-0.07021-0.21787-0.12672-0.33204-0.16602-3.0768-1.5733-6.0051-3.394-8.9942-4.4786 1.0899-0.96195 2.3563-1.7451 3.3067-2.543 0.97684-0.78879 2.0061-1.5136 2.9552-2.3359 0.17799-0.15596 0.27152-0.38466 0.2793-0.61524 0.15918-0.01206 0.29052-0.11734 0.40627-0.1641zm3.5859 2.0176c2.3641 0.87891 4.7991 2.1577 6.7696 3.1485-0.39914 0.10514-0.70735 0.44262-1.0332 0.68358-1.4088 1.1587-2.6517 2.2417-3.9493 3.2637-0.64865 0.4359-1.6618 1.2854-1.9083 1.5723 0.24064-0.22162 0.32032-0.59801 0.33399-0.91406 0.06925-2.6793-0.03313-5.424-0.21283-7.7539z" style="color-rendering:auto;fill-rule:evenodd;image-rendering:auto;opacity:.1;shape-rendering:auto"/>
 <path d="m21.596 11.01c-0.2196-0.04394-0.38692 0.06996-0.58008 0.13086-0.22551 0.0711-0.40431 0.26941-0.46876 0.5-0.03599-0.0032-0.07212-0.0144-0.10742-0.01367-0.40935-0.05424-0.7048 0.28078-1.041 0.44922-1.971 1.2153-4.0089 2.3952-5.9024 3.3945-0.17514 0.09015-0.31946 0.25141-0.38672 0.43555-0.05964-0.0063-0.11959-0.01068-0.17969-2e-3 -0.29085 0.04636-0.59016 0.18183-0.7461 0.44336-0.12992 0.20961-0.16975 0.46108-0.18359 0.70317 0.0031 0.37212 0.25391 0.73795 0.6172 0.84375-0.24294 0.25264-0.36109 0.63263-0.28125 0.97852 0.10278 1.4432 0.23285 2.8872 0.5 4.3105 0.12137 1.532 0.5855 2.7576 0.58984 4.1856 0.04484 0.54731 0.05643 1.1346 0.32031 1.627 0.03735 0.05043 0.07968 0.0906 0.125 0.125-0.04278 0.05956-0.0853 0.11948-0.10938 0.19141-0.14845 0.42764-0.0654 0.94987 0.25586 1.2793 0.25627 0.2512 0.66332 0.28187 0.98048 0.12695 0.28278 0.48158 0.86409 0.65943 1.3164 0.94727 2.7744 1.4018 5.5984 2.9906 8.2521 4.3301 0.23253 0.11283 0.47498 0.07704 0.68946-0.02148 0.02988 0.13779 0.07679 0.27189 0.1543 0.39062 0.14075 0.2553 0.34617 0.49326 0.63087 0.58789 0.30696 0.11542 0.67814 0.01127 0.88477-0.24219 0.18652-0.21914 0.29697-0.50179 0.30469-0.78906 0.38542 0.1026 0.79146-0.07984 1.0957-0.33203 2.2938-1.2928 3.8811-3.5544 5.7755-5.0332 0.21372-0.16692 0.30963-0.43448 0.29492-0.69336 0.27883 0.09961 0.59595 0.09657 0.85157-0.05859 0.22253-0.13532 0.38563-0.36997 0.41406-0.63086 0.04846-0.3354-0.02404-0.69516-0.22266-0.97266-0.03992-0.05586-0.08977-0.10443-0.14258-0.14844 0.24741-0.2741 0.4627-0.72001 0.4934-1.0762 0.17855-2.1004 0.13862-3.9898 0.17458-5.8867 0.03234-1.7056-0.24761-3.411-0.1582-5.1172-0.0051-0.25485-0.07907-0.54287-0.22461-0.76953 0.17597-0.12402 0.32496-0.2866 0.375-0.49805 0.08603-0.32533 0.0401-0.68367-0.11719-0.98047-0.13963-0.24838-0.40367-0.4359-0.69532-0.43359-0.06595-0.01094-0.13224-0.02662-0.1875-0.03711-0.20956-0.02547-0.43257 0.01601-0.61134 0.12891-0.08148-0.13481-0.19124-0.25133-0.35938-0.30273-2.5442-0.63084-5.167-0.85496-7.586-1.4375-1.1971-0.29798-2.4262-0.47962-3.6582-0.55273-0.24944-0.0148-0.48734 0.04449-0.67384 0.20117-0.04979-0.05216-0.10316-0.10201-0.16211-0.14258-0.09188-0.07613-0.21761-0.09717-0.31067-0.13872zm0.6172 1.7031c0.27891 0.17239 0.63259 0.24877 0.94532 0.32031 3.332 0.59705 6.7316 1.1543 9.8712 1.7305-0.14117 0.11242-0.28105 0.23042-0.42969 0.31836-2.0731 1.3737-3.9436 2.7732-5.9376 3.9375-0.34852 0.23295-0.7656 0.47591-1 0.83203-0.1704-0.08049-0.35975-0.1313-0.5586-0.10937-0.13191 0.0068-0.25669 0.0759-0.36328 0.10742-0.2938-0.36707-0.81314-0.52738-1.2617-0.63867-0.17057-0.0464-0.33955-0.09889-0.50978-0.14648 0.02167-0.42258-0.0137-0.84503-0.06836-1.2617-0.22166-1.6487-0.26926-3.2717-0.53906-4.7949-0.02229-0.11618-0.1052-0.20904-0.14846-0.295zm-1.5566 0.49414c0.01198 0.07119 0.01037 0.14488 0.04297 0.21094 0.25907 1.1964 0.18986 2.4237 0.27734 3.6367 0.03504 0.48589 0.05642 0.97279 0.08398 1.459-2.1094-0.63423-4.2054-1.3121-6.3243-1.9121 2.0655-1.0718 4.1527-2.241 5.92-3.3945zm13.343 2.7933c0 4.0001-0.0409 7.8015-0.04452 11.134-0.0081 0.06337 0.04118 0.16248 0.0446 0.22851-0.23412-0.14323-0.53156-0.28664-0.77508-0.38086-2.2669-1.0561-4.5974-2.1836-6.7208-3.0977 1.32e-4 -0.27786-0.01412-0.55568 0-0.83398-0.02658-0.44673-0.20269-1.0056-0.5332-1.3574 0.08116-0.08546 0.15496-0.18322 0.20703-0.3125l2e-3 -2e-3v-0.0039c-0.0034-0.14896 0.19796-0.05748 0.28906-0.08394 0.89459-0.20866 1.6418-0.78792 2.3438-1.377 1.7318-1.4849 3.717-2.68 5.1871-3.9132zm-20.031 2.0836c0.34418 0.16838 0.74412 0.25508 1.0938 0.375 1.869 0.64102 3.7799 1.2055 5.6603 1.8379 0.17544 0.059 0.34797 0.13779 0.52148 0.20703 0.0344 0.42328 0.05852 0.84729 0.06836 1.2715 0.03544 0.34858 0.24158 0.70127 0.56446 0.84375-0.08404 0.07555-0.16101 0.15875-0.21289 0.25976-0.08691 0.15446-0.1279 0.33831-0.12109 0.51758-1.3161 0.78407-2.6728 1.8802-3.7227 2.793-0.87413 0.70524-1.8723 1.24-2.7363 1.957-0.05531-3.0201-0.70156-6.2605-0.95119-9.0351-0.04705-0.33224-0.02078-0.72086-0.16406-1.0273zm8.9962 3.0566c0.34855 0.10225 0.70228 0.1829 1.0723 0.19336 0.0595 0.0026 0.11657-0.0057 0.17383-0.01563 0.02367 0.06829 0.03651 0.14176 0.06445 0.20703 0.05187 0.12946 0.13931 0.23225 0.23828 0.31445-0.16075 0.35428-0.15106 0.8301-0.125 1.1934 6.8e-5 0.0019-7e-5 0.0039 0 0.0059-0.2982-0.15173-0.3978-0.1814-0.67727-0.23047-0.08627-0.01515-0.36136 0.02938-0.43213 0.0625-0.08745-0.21272-0.25499-0.3976-0.48048-0.45703 0.17037-0.15306 0.17236-0.42615 0.19141-0.58008 0.02971-0.24004-0.01784-0.48676-0.02541-0.69343zm0.03516 2.8574c0.02299 0.03624 0.04238 0.07354 0.07227 0.10547 0.34946 0.44856 0.98002 0.47485 1.3945 0.83984 0.04902 0.03262 0.10085 0.0601 0.15039 0.0918 0.12441 2.4163 0.39306 4.9699 0.46875 7.1817 0.01705 0.64988-0.02758 1.4729 0.29297 2.084-0.10474-0.07021-0.21787-0.12672-0.33203-0.16602-3.0768-1.5733-6.0051-3.394-8.9942-4.4786 1.0899-0.96195 2.3563-1.7451 3.3066-2.543 0.97684-0.78879 2.0061-1.5136 2.9551-2.3359 0.17799-0.15596 0.27151-0.38466 0.2793-0.61524 0.15918-0.01206 0.29051-0.11734 0.40627-0.1641zm3.5859 2.0176c2.364 0.87891 4.7991 2.1577 6.7697 3.1484-0.39913 0.10515-0.70736 0.44262-1.0332 0.68359-1.4088 1.1587-2.6517 2.2417-3.9492 3.2637-0.64866 0.4359-1.6618 1.2854-1.9082 1.5722 0.24064-0.22162 0.32031-0.59801 0.33398-0.91406 0.0693-2.6793-0.03311-5.4241-0.21298-7.7538z" style="color-rendering:auto;fill-rule:evenodd;fill:#f9f9f9;image-rendering:auto;shape-rendering:auto"/>
</svg>
