<svg xmlns="http://www.w3.org/2000/svg" viewBox="0 0 48 48">
 <defs>
  <linearGradient id="linearGradient3764" x1="1" x2="47" gradientUnits="userSpaceOnUse" gradientTransform="matrix(0,-1,1,0,-1.5e-6,47.999998)">
   <stop style="stop-color:#d62e2e;stop-opacity:1"/>
   <stop offset="1" style="stop-color:#d93f3f;stop-opacity:1"/>
  </linearGradient>
 </defs>
 <g>
  <path d="m 36.31 5 c 5.859 4.062 9.688 10.831 9.688 18.5 c 0 12.426 -10.07 22.5 -22.5 22.5 c -7.669 0 -14.438 -3.828 -18.5 -9.688 c 1.037 1.822 2.306 3.499 3.781 4.969 c 4.085 3.712 9.514 5.969 15.469 5.969 c 12.703 0 23 -10.298 23 -23 c 0 -5.954 -2.256 -11.384 -5.969 -15.469 c -1.469 -1.475 -3.147 -2.744 -4.969 -3.781 z m 4.969 3.781 c 3.854 4.113 6.219 9.637 6.219 15.719 c 0 12.703 -10.297 23 -23 23 c -6.081 0 -11.606 -2.364 -15.719 -6.219 c 4.16 4.144 9.883 6.719 16.219 6.719 c 12.703 0 23 -10.298 23 -23 c 0 -6.335 -2.575 -12.06 -6.719 -16.219 z" style="opacity:0.05"/>
  <path d="m 41.28 8.781 c 3.712 4.085 5.969 9.514 5.969 15.469 c 0 12.703 -10.297 23 -23 23 c -5.954 0 -11.384 -2.256 -15.469 -5.969 c 4.113 3.854 9.637 6.219 15.719 6.219 c 12.703 0 23 -10.298 23 -23 c 0 -6.081 -2.364 -11.606 -6.219 -15.719 z" style="opacity:0.1"/>
  <path d="m 31.25 2.375 c 8.615 3.154 14.75 11.417 14.75 21.13 c 0 12.426 -10.07 22.5 -22.5 22.5 c -9.708 0 -17.971 -6.135 -21.12 -14.75 a 23 23 0 0 0 44.875 -7 a 23 23 0 0 0 -16 -21.875 z" style="opacity:0.2"/>
 </g>
 <g>
  <path d="m 24 1 c 12.703 0 23 10.297 23 23 c 0 12.703 -10.297 23 -23 23 -12.703 0 -23 -10.297 -23 -23 0 -12.703 10.297 -23 23 -23 z" style="fill:url(#linearGradient3764);fill-opacity:1"/>
 </g>
 <g>
  <g>
   <g transform="translate(1,1)">
    <g style="opacity:0.1">
     <!-- color: #d93f3f -->
    </g>
   </g>
  </g>
 </g>
 <g>
  <g>
   <!-- color: #d93f3f -->
  </g>
 </g>
 <g>
  <path d="m 40.03 7.531 c 3.712 4.084 5.969 9.514 5.969 15.469 0 12.703 -10.297 23 -23 23 c -5.954 0 -11.384 -2.256 -15.469 -5.969 4.178 4.291 10.01 6.969 16.469 6.969 c 12.703 0 23 -10.298 23 -23 0 -6.462 -2.677 -12.291 -6.969 -16.469 z" style="opacity:0.1"/>
 </g>
 <g>
  <path d="m 27.09 24.858 c 0 1.208 -1.02 2.19 -2.274 2.19 -1.391 0 -2.158 -1.221 -2.282 -2.353 -0.237 -2.16 0.935 -3.336 1.96 -3.941 0.416 -0.245 0.873 -0.436 1.35 -0.576 0 0 1.105 3.387 1.191 3.913 0.095 0.579 0.054 0.767 0.054 0.767 m 5.43 -6.793 c -1.222 -0.765 -2.72 -1.185 -4.263 -1.26 l -0.345 -1.217 0.011 0.012 c -0.014 -0.037 -0.025 -0.072 -0.037 -0.107 l -0.102 -0.36 c -0.235 -1.041 0.192 -1.537 0.412 -1.715 0.038 -0.027 0.076 -0.055 0.117 -0.082 1.01 -0.645 2.439 0.389 2.519 0.45 0.636 0.591 1.799 0.737 2.427 0.132 0.634 -0.61 0.484 -1.753 -0.149 -2.364 c -0.987 -0.951 -4.02 -2.476 -6.597 -0.82 -2.318 1.488 -2.365 3.582 -1.983 4.793 l 0.463 1.637 c -0.776 0.215 -1.517 0.522 -2.197 0.923 -2.538 1.497 -3.81 4.03 -3.493 6.934 0.329 2.985 2.645 5.154 5.513 5.154 3.043 0 5.521 -2.386 5.521 -5.318 -0.041 -0.699 -0.033 -0.692 -0.129 -1.317 -0.096 -0.61 -1.032 -3.479 -1.032 -3.479 0.575 0.128 1.112 0.337 1.576 0.626 5.235 3.277 3.056 8.493 2.959 8.72 -1.441 3.333 -4.587 5.323 -8.626 5.459 -2.633 0.09 -5.156 -0.858 -7.104 -2.669 -2.054 -1.91 -3.232 -4.585 -3.232 -7.339 0 -4.148 2.709 -7.916 6.741 -9.373 0.84 -0.303 1.517 -1.167 1.053 -2.171 -0.365 -0.789 -1.354 -1.06 -2.195 -0.756 c -5.292 1.912 -8.848 6.856 -8.848 12.3 c 0 3.598 1.54 7.094 4.224 9.59 2.476 2.301 5.662 3.553 9.02 3.552 0.152 0 0.306 -0.002 0.458 -0.008 5.286 -0.179 9.588 -2.938 11.504 -7.367 1.198 -2.69 1.865 -8.777 -4.181 -12.561" style="fill:#000;opacity:0.1;fill-opacity:1"/>
 </g>
 <g>
  <path d="m 26.09 23.858 c 0 1.208 -1.02 2.19 -2.274 2.19 -1.391 0 -2.158 -1.221 -2.282 -2.353 -0.237 -2.16 0.935 -3.336 1.96 -3.941 0.416 -0.245 0.873 -0.436 1.35 -0.576 0 0 1.105 3.387 1.191 3.913 0.095 0.579 0.054 0.767 0.054 0.767 m 5.43 -6.793 c -1.222 -0.765 -2.72 -1.185 -4.263 -1.26 l -0.345 -1.217 0.011 0.012 c -0.014 -0.037 -0.025 -0.072 -0.037 -0.107 l -0.102 -0.36 c -0.235 -1.041 0.192 -1.537 0.412 -1.715 0.038 -0.027 0.076 -0.055 0.117 -0.082 1.01 -0.645 2.439 0.389 2.519 0.45 0.636 0.591 1.799 0.737 2.427 0.132 0.634 -0.61 0.484 -1.753 -0.149 -2.364 c -0.987 -0.951 -4.02 -2.476 -6.597 -0.82 -2.318 1.488 -2.365 3.582 -1.983 4.793 l 0.463 1.637 c -0.776 0.215 -1.517 0.522 -2.197 0.923 -2.538 1.497 -3.81 4.03 -3.493 6.934 0.329 2.985 2.645 5.154 5.513 5.154 3.043 0 5.521 -2.386 5.521 -5.318 -0.041 -0.699 -0.033 -0.692 -0.129 -1.317 -0.096 -0.61 -1.032 -3.479 -1.032 -3.479 0.575 0.128 1.112 0.337 1.576 0.626 5.235 3.277 3.056 8.493 2.959 8.72 -1.441 3.333 -4.587 5.323 -8.626 5.459 -2.633 0.09 -5.156 -0.858 -7.104 -2.669 -2.054 -1.91 -3.232 -4.585 -3.232 -7.339 0 -4.148 2.709 -7.916 6.741 -9.373 0.84 -0.303 1.517 -1.167 1.053 -2.171 -0.365 -0.789 -1.354 -1.06 -2.195 -0.756 c -5.292 1.912 -8.848 6.856 -8.848 12.3 c 0 3.598 1.54 7.094 4.224 9.59 2.476 2.301 5.662 3.553 9.02 3.552 0.152 0 0.306 -0.002 0.458 -0.008 5.286 -0.179 9.588 -2.938 11.504 -7.367 1.198 -2.69 1.865 -8.777 -4.181 -12.561" style="fill:#f9f9f9;fill-opacity:1"/>
 </g>
</svg>
