<svg xmlns="http://www.w3.org/2000/svg" viewBox="0 0 48 48">
 <defs>
  <linearGradient id="linearGradient3764" x1="1" x2="47" gradientUnits="userSpaceOnUse" gradientTransform="matrix(0,-1,1,0,-1.5e-6,47.999998)">
   <stop style="stop-color:#287298;stop-opacity:1"/>
   <stop offset="1" style="stop-color:#2c7ea8;stop-opacity:1"/>
  </linearGradient>
 </defs>
 <g>
  <path d="m 36.31 5 c 5.859 4.062 9.688 10.831 9.688 18.5 c 0 12.426 -10.07 22.5 -22.5 22.5 c -7.669 0 -14.438 -3.828 -18.5 -9.688 c 1.037 1.822 2.306 3.499 3.781 4.969 c 4.085 3.712 9.514 5.969 15.469 5.969 c 12.703 0 23 -10.298 23 -23 c 0 -5.954 -2.256 -11.384 -5.969 -15.469 c -1.469 -1.475 -3.147 -2.744 -4.969 -3.781 z m 4.969 3.781 c 3.854 4.113 6.219 9.637 6.219 15.719 c 0 12.703 -10.297 23 -23 23 c -6.081 0 -11.606 -2.364 -15.719 -6.219 c 4.16 4.144 9.883 6.719 16.219 6.719 c 12.703 0 23 -10.298 23 -23 c 0 -6.335 -2.575 -12.06 -6.719 -16.219 z" style="opacity:0.05"/>
  <path d="m 41.28 8.781 c 3.712 4.085 5.969 9.514 5.969 15.469 c 0 12.703 -10.297 23 -23 23 c -5.954 0 -11.384 -2.256 -15.469 -5.969 c 4.113 3.854 9.637 6.219 15.719 6.219 c 12.703 0 23 -10.298 23 -23 c 0 -6.081 -2.364 -11.606 -6.219 -15.719 z" style="opacity:0.1"/>
  <path d="m 31.25 2.375 c 8.615 3.154 14.75 11.417 14.75 21.13 c 0 12.426 -10.07 22.5 -22.5 22.5 c -9.708 0 -17.971 -6.135 -21.12 -14.75 a 23 23 0 0 0 44.875 -7 a 23 23 0 0 0 -16 -21.875 z" style="opacity:0.2"/>
 </g>
 <g>
  <path d="m 24 1 c 12.703 0 23 10.297 23 23 c 0 12.703 -10.297 23 -23 23 -12.703 0 -23 -10.297 -23 -23 0 -12.703 10.297 -23 23 -23 z" style="fill:url(#linearGradient3764);fill-opacity:1"/>
 </g>
 <g>
  <g>
   <g transform="translate(1,1)">
    <g style="opacity:0.1">
     <!-- color: #2c7ea8 -->
     <g>
      <path d="m 20.395 12 c -0.07 0 -0.148 0.023 -0.219 0.074 c -0.074 0.051 -0.133 0.145 -0.145 0.223 c -0.027 0.156 0.008 0.23 0.074 0.363 c 0.309 0.555 0.617 0.984 0.734 1.316 c 0.203 0.457 0.199 0.879 0.145 1.164 l -0.371 1.75 c -1.855 0.426 -3.645 0.859 -5.438 1.461 c -0.348 0.109 -0.617 0.223 -0.883 0.363 c -0.023 -0.004 -0.051 -0.004 -0.074 0 c -0.094 0.059 -0.098 0.141 -0.148 0.219 c -0.023 0.043 -0.066 0.09 -0.074 0.148 c -0.008 0.055 0.02 0.152 0.074 0.219 c 0.156 0.211 0.367 0.301 0.664 0.438 c 0.293 0.137 0.633 0.273 0.883 0.367 c 1.246 0.449 2.848 0.813 4.117 0.949 c -0.344 1.527 -0.672 3.035 -1.18 4.52 c -0.121 0.363 -0.277 0.742 -0.438 1.098 c -0.461 1.02 -1.051 1.949 -1.617 2.844 c -0.602 0.836 -1.105 1.652 -1.762 2.406 c -0.125 0.129 -0.32 0.242 -0.441 0.363 c -0.059 0.066 -0.102 0.164 -0.148 0.223 c -0.02 0.027 -0.055 0.039 -0.074 0.074 c -0.02 0.031 -0.008 0.051 0 0.145 c -0.004 0.023 -0.004 0.051 0 0.074 c 0.016 0.027 0.043 0.055 0.074 0.074 c 0.02 0.027 0.043 0.055 0.074 0.074 c 0.023 0.004 0.051 0.004 0.074 0 c 0.133 0.02 0.242 -0.031 0.367 -0.074 c 0.129 -0.039 0.219 -0.074 0.371 -0.145 c 0.305 -0.145 0.695 -0.301 1.027 -0.512 c 0.473 -0.297 0.828 -0.602 1.102 -0.801 c 0.484 -0.352 1.574 -1.355 2.133 -2.039 c 0.641 -0.723 1.32 -1.5 1.84 -2.48 c 0.008 -0.02 -0.012 -0.055 0 -0.074 c 0.035 -0.063 0.238 -0.449 0.293 -0.586 c 0.109 -0.273 0.184 -0.547 0.219 -0.656 l 1.617 -4.887 l 5.66 -1.313 c -0.141 1.18 -0.297 2.32 -0.438 3.5 c -0.109 0.973 -0.184 1.363 -0.293 2.406 c -0.004 0.031 0.004 0.039 0 0.074 c -0.066 0.32 -0.246 1.223 -0.297 1.461 c -0.375 1.809 -0.777 3.453 -1.613 4.887 c -0.203 0.277 -0.434 0.57 -0.664 0.801 c -0.23 -0.113 -0.555 -0.27 -1.027 -0.293 c -0.008 0 -0.051 0 -0.074 0 c -0.023 -0.004 -0.051 -0.004 -0.074 0 c 0 0 -0.074 0.07 -0.074 0.074 c -0.027 0.02 -0.059 0.043 -0.074 0.074 c -0.031 0.168 0.023 0.297 0.074 0.441 c 0.051 0.145 0.09 0.305 0.145 0.438 c 0.426 0.953 0.926 1.781 1.398 2.625 c 0.016 0.031 0.039 0.055 0.074 0.074 c 0.016 0.031 0.039 0.055 0.074 0.074 c 0.023 0.004 0.047 0.004 0.074 0 c 0.023 0.004 0.047 0.004 0.074 0 c 0.027 -0.016 0.055 -0.039 0.074 -0.074 c 0.703 -0.66 1.535 -1.73 2.133 -2.625 c 1.172 -1.746 2.164 -3.695 2.867 -5.906 c 0.105 -0.344 0.191 -0.691 0.293 -1.094 l 2.203 -8.387 c 0.094 -0.371 0.203 -0.785 0.219 -1.098 c 0.004 -0.023 0.004 -0.055 0 -0.074 c -0.043 -0.105 -0.145 -0.16 -0.219 -0.227 c -0.074 -0.051 -0.125 -0.098 -0.219 -0.145 c -0.191 -0.094 -0.441 -0.211 -0.664 -0.289 c -1.059 -0.352 -2.207 -0.676 -3.453 -0.949 c -0.137 -0.059 -0.223 -0.082 -0.367 -0.078 c -0.145 0.016 -0.355 0.043 -0.516 0.078 c -0.32 0.066 -0.648 0.168 -0.883 0.227 l -2.941 0.648 c 0.125 -0.387 0.332 -0.961 0.145 -1.676 c -0.25 -0.816 -0.898 -1.293 -1.613 -1.531 c -0.613 -0.207 -1.211 -0.391 -1.84 -0.586 c -0.102 -0.023 -0.563 -0.188 -1.027 -0.219 m -0.008 -0.023" style="fill:#000;fill-opacity:1;stroke:none;fill-rule:nonzero"/>
     </g>
    </g>
   </g>
  </g>
 </g>
 <g>
  <g>
   <!-- color: #2c7ea8 -->
   <g>
    <path d="m 20.395 12 c -0.07 0 -0.148 0.023 -0.219 0.074 c -0.074 0.051 -0.133 0.145 -0.145 0.223 c -0.027 0.156 0.008 0.23 0.074 0.363 c 0.309 0.555 0.617 0.984 0.734 1.316 c 0.203 0.457 0.199 0.879 0.145 1.164 l -0.371 1.75 c -1.855 0.426 -3.645 0.859 -5.438 1.461 c -0.348 0.109 -0.617 0.223 -0.883 0.363 c -0.023 -0.004 -0.051 -0.004 -0.074 0 c -0.094 0.059 -0.098 0.141 -0.148 0.219 c -0.023 0.043 -0.066 0.09 -0.074 0.148 c -0.008 0.055 0.02 0.152 0.074 0.219 c 0.156 0.211 0.367 0.301 0.664 0.438 c 0.293 0.137 0.633 0.273 0.883 0.367 c 1.246 0.449 2.848 0.813 4.117 0.949 c -0.344 1.527 -0.672 3.035 -1.18 4.52 c -0.121 0.363 -0.277 0.742 -0.438 1.098 c -0.461 1.02 -1.051 1.949 -1.617 2.844 c -0.602 0.836 -1.105 1.652 -1.762 2.406 c -0.125 0.129 -0.32 0.242 -0.441 0.363 c -0.059 0.066 -0.102 0.164 -0.148 0.223 c -0.02 0.027 -0.055 0.039 -0.074 0.074 c -0.02 0.031 -0.008 0.051 0 0.145 c -0.004 0.023 -0.004 0.051 0 0.074 c 0.016 0.027 0.043 0.055 0.074 0.074 c 0.02 0.027 0.043 0.055 0.074 0.074 c 0.023 0.004 0.051 0.004 0.074 0 c 0.133 0.02 0.242 -0.031 0.367 -0.074 c 0.129 -0.039 0.219 -0.074 0.371 -0.145 c 0.305 -0.145 0.695 -0.301 1.027 -0.512 c 0.473 -0.297 0.828 -0.602 1.102 -0.801 c 0.484 -0.352 1.574 -1.355 2.133 -2.039 c 0.641 -0.723 1.32 -1.5 1.84 -2.48 c 0.008 -0.02 -0.012 -0.055 0 -0.074 c 0.035 -0.063 0.238 -0.449 0.293 -0.586 c 0.109 -0.273 0.184 -0.547 0.219 -0.656 l 1.617 -4.887 l 5.66 -1.313 c -0.141 1.18 -0.297 2.32 -0.438 3.5 c -0.109 0.973 -0.184 1.363 -0.293 2.406 c -0.004 0.031 0.004 0.039 0 0.074 c -0.066 0.32 -0.246 1.223 -0.297 1.461 c -0.375 1.809 -0.777 3.453 -1.613 4.887 c -0.203 0.277 -0.434 0.57 -0.664 0.801 c -0.23 -0.113 -0.555 -0.27 -1.027 -0.293 c -0.008 0 -0.051 0 -0.074 0 c -0.023 -0.004 -0.051 -0.004 -0.074 0 c 0 0 -0.074 0.07 -0.074 0.074 c -0.027 0.02 -0.059 0.043 -0.074 0.074 c -0.031 0.168 0.023 0.297 0.074 0.441 c 0.051 0.145 0.09 0.305 0.145 0.438 c 0.426 0.953 0.926 1.781 1.398 2.625 c 0.016 0.031 0.039 0.055 0.074 0.074 c 0.016 0.031 0.039 0.055 0.074 0.074 c 0.023 0.004 0.047 0.004 0.074 0 c 0.023 0.004 0.047 0.004 0.074 0 c 0.027 -0.016 0.055 -0.039 0.074 -0.074 c 0.703 -0.66 1.535 -1.73 2.133 -2.625 c 1.172 -1.746 2.164 -3.695 2.867 -5.906 c 0.105 -0.344 0.191 -0.691 0.293 -1.094 l 2.203 -8.387 c 0.094 -0.371 0.203 -0.785 0.219 -1.098 c 0.004 -0.023 0.004 -0.055 0 -0.074 c -0.043 -0.105 -0.145 -0.16 -0.219 -0.227 c -0.074 -0.051 -0.125 -0.098 -0.219 -0.145 c -0.191 -0.094 -0.441 -0.211 -0.664 -0.289 c -1.059 -0.352 -2.207 -0.676 -3.453 -0.949 c -0.137 -0.059 -0.223 -0.082 -0.367 -0.078 c -0.145 0.016 -0.355 0.043 -0.516 0.078 c -0.32 0.066 -0.648 0.168 -0.883 0.227 l -2.941 0.648 c 0.125 -0.387 0.332 -0.961 0.145 -1.676 c -0.25 -0.816 -0.898 -1.293 -1.613 -1.531 c -0.613 -0.207 -1.211 -0.391 -1.84 -0.586 c -0.102 -0.023 -0.563 -0.188 -1.027 -0.219 m -0.008 -0.023" style="fill:#f9f9f9;fill-opacity:1;stroke:none;fill-rule:nonzero"/>
   </g>
  </g>
 </g>
 <g>
  <path d="m 40.03 7.531 c 3.712 4.084 5.969 9.514 5.969 15.469 0 12.703 -10.297 23 -23 23 c -5.954 0 -11.384 -2.256 -15.469 -5.969 4.178 4.291 10.01 6.969 16.469 6.969 c 12.703 0 23 -10.298 23 -23 0 -6.462 -2.677 -12.291 -6.969 -16.469 z" style="opacity:0.1"/>
 </g>
</svg>
