<svg version="1.1" viewBox="0 0 48 48" xmlns="http://www.w3.org/2000/svg">
 <defs>
  <linearGradient id="linearGradient3764" x1="1" x2="47" gradientTransform="rotate(-90 24 24)" gradientUnits="userSpaceOnUse">
   <stop style="stop-color:#424242" offset="0"/>
   <stop style="stop-color:#4c4c4c" offset="1"/>
  </linearGradient>
 </defs>
 <path d="m36.3 5c5.86 4.06 9.69 10.8 9.69 18.5 0 12.4-10.1 22.5-22.5 22.5-7.67 0-14.4-3.83-18.5-9.69 1.04 1.82 2.31 3.5 3.78 4.97 4.08 3.71 9.51 5.97 15.5 5.97 12.7 0 23-10.3 23-23 0-5.95-2.26-11.4-5.97-15.5-1.47-1.48-3.15-2.74-4.97-3.78zm4.97 3.78c3.85 4.11 6.22 9.64 6.22 15.7 0 12.7-10.3 23-23 23-6.08 0-11.6-2.36-15.7-6.22 4.16 4.14 9.88 6.72 16.2 6.72 12.7 0 23-10.3 23-23 0-6.34-2.58-12.1-6.72-16.2z" style="opacity:.05"/>
 <path d="m41.3 8.78c3.71 4.08 5.97 9.51 5.97 15.5 0 12.7-10.3 23-23 23-5.95 0-11.4-2.26-15.5-5.97 4.11 3.85 9.64 6.22 15.7 6.22 12.7 0 23-10.3 23-23 0-6.08-2.36-11.6-6.22-15.7z" style="opacity:.1"/>
 <path d="m31.2 2.38c8.62 3.15 14.8 11.4 14.8 21.1 0 12.4-10.1 22.5-22.5 22.5-9.71 0-18-6.14-21.1-14.8a23 23 0 0 0 44.9-7 23 23 0 0 0-16-21.9z" style="opacity:.2"/>
 <path d="m24 1c12.7 0 23 10.3 23 23s-10.3 23-23 23-23-10.3-23-23 10.3-23 23-23z" style="fill:url(#linearGradient3764)"/>
 <path d="m25 9.65c-0.341 0-0.634 0.157-0.836 0.391-6.13 0.339-11.3 4.35-13.3 9.88-0.508 0.094-0.902 0.51-0.902 1.04 0 0.314 0.145 0.589 0.367 0.785-0.233 1.05-0.365 2.14-0.365 3.25 0 4.63 2.11 8.77 5.41 11.5-0.06 0.132-0.096 0.276-0.096 0.43 0 0.594 0.489 1.07 1.09 1.07 0.28 0 0.529-0.11 0.723-0.279 2.29 1.42 4.98 2.25 7.87 2.25s5.58-0.833 7.87-2.25c0.194 0.169 0.443 0.279 0.723 0.279 0.606 0 1.09-0.48 1.09-1.07 0-0.154-0.036-0.298-0.096-0.43 3.3-2.75 5.41-6.89 5.41-11.5 0-1.12-0.132-2.21-0.365-3.26 0.221-0.196 0.365-0.47 0.365-0.783 0-0.525-0.393-0.941-0.9-1.04-1.99-5.53-7.14-9.55-13.3-9.88-0.202-0.234-0.494-0.391-0.828-0.391m-1.04 1.4c0.145 0.431 0.55 0.748 1.04 0.748 0.488 0 0.888-0.317 1.03-0.748 5.59 0.409 10.3 4.09 12.1 9.14-0.205 0.195-0.332 0.466-0.332 0.768 0 0.508 0.373 0.915 0.861 1.02 0.213 0.972 0.334 1.98 0.334 3.02 0 4.42-2.05 8.35-5.24 10.9-0.056-9e-3 -0.107-0.033-0.166-0.033-0.548 0-0.982 0.399-1.06 0.91-2.18 1.39-4.75 2.21-7.53 2.21-2.78 0-5.35-0.816-7.53-2.21-0.083-0.511-0.518-0.91-1.06-0.91-0.059 0-0.11 0.024-0.166 0.033-3.19-2.56-5.24-6.5-5.24-10.9 0-1.04 0.121-2.04 0.334-3.02 0.488-0.109 0.857-0.515 0.857-1.02 0-0.3-0.126-0.571-0.328-0.766 1.85-5.05 6.51-8.73 12.1-9.14zm1.04 2.52c-0.375 0-0.689 0.192-0.889 0.467-5.66 0.454-10.1 5.18-10.1 11 0 5.73 4.39 10.4 9.99 10.9 0.17 0.383 0.563 0.652 1.02 0.652s0.842-0.269 1.01-0.652c5.6-0.512 9.99-5.22 9.99-10.9 0-5.77-4.46-10.5-10.1-11-0.2-0.275-0.512-0.467-0.881-0.467zm-1.02 1.47h4e-3c0.165 0.393 0.562 0.672 1.02 0.672 0.46 0 0.852-0.279 1.02-0.672 5.05 0.509 8.98 4.76 8.98 9.95 0 5.22-3.99 9.5-9.09 9.96-0.197-0.295-0.521-0.502-0.904-0.502-0.391 0-0.716 0.207-0.912 0.502-5.1-0.459-9.09-4.73-9.09-9.96 0-5.18 3.93-9.44 8.98-9.95zm1.02 2.95c-3.87 0-7 3.13-7 7s3.13 7 7 7 7-3.13 7-7-3.13-7-7-7z" style="opacity:.1"/>
 <path d="m24 9c-8.28 0-15 6.72-15 15s6.72 15 15 15 15-6.72 15-15-6.72-15-15-15zm0 1c7.74 0 14 6.26 14 14s-6.26 14-14 14-14-6.26-14-14 6.26-14 14-14zm0 3c-6.07 0-11 4.93-11 11s4.93 11 11 11 11-4.93 11-11-4.93-11-11-11zm0 1c5.53 0 10 4.47 10 10s-4.47 10-10 10-10-4.47-10-10 4.47-10 10-10z" style="fill:#f9f9f9"/>
 <path d="m24 8.65c-0.613-1e-7 -1.11 0.48-1.11 1.07 0 0.594 0.5 1.07 1.11 1.07 0.606 0 1.1-0.48 1.1-1.07 0-0.594-0.496-1.07-1.1-1.07zm0 3.93c-0.613 0-1.11 0.48-1.11 1.07 0 0.594 0.5 1.07 1.11 1.07 0.606 0 1.1-0.48 1.1-1.07 0-0.59-0.496-1.07-1.1-1.07zm-0.00195 4.42c-3.87 0-7 3.13-7 7s3.13 7 7 7 7-3.13 7-7-3.13-7-7-7zm-13.9 1.89c-0.606 0-1.1 0.48-1.1 1.07 0 0.59 0.495 1.07 1.1 1.07 0.606 0 1.09-0.48 1.09-1.07 0-0.594-0.489-1.07-1.09-1.07zm27.8 0c-0.606 0-1.1 0.48-1.1 1.07 0 0.59 0.493 1.07 1.1 1.07 0.606 0 1.1-0.48 1.1-1.07 0-0.594-0.493-1.07-1.1-1.07zm-13.9 14.6c-0.613 0-1.11 0.48-1.11 1.07 0 0.594 0.5 1.07 1.11 1.07 0.606 0 1.1-0.48 1.1-1.07 0-0.594-0.496-1.07-1.1-1.07zm-8.6 1.43c-0.606 1e-6 -1.09 0.48-1.09 1.07 0 0.594 0.489 1.07 1.09 1.07 0.606 0 1.1-0.48 1.1-1.07 0-0.59-0.493-1.07-1.1-1.07zm17.2 0c-0.606 1e-6 -1.1 0.48-1.1 1.07 0 0.594 0.493 1.07 1.1 1.07 0.606 0 1.09-0.48 1.09-1.07 0-0.59-0.489-1.07-1.09-1.07z" style="fill:#7095c1"/>
 <path d="m40 7.53c3.71 4.08 5.97 9.51 5.97 15.5 0 12.7-10.3 23-23 23-5.95 0-11.4-2.26-15.5-5.97 4.18 4.29 10 6.97 16.5 6.97 12.7 0 23-10.3 23-23 0-6.46-2.68-12.3-6.97-16.5z" style="opacity:.1"/>
</svg>
