<svg version="1.1" viewBox="0 0 48 48" xmlns="http://www.w3.org/2000/svg">
 <defs>
  <linearGradient id="bg" x2="0" y1="1" y2="47" gradientUnits="userSpaceOnUse">
   <stop style="stop-color:#6082c8" offset="0"/>
   <stop style="stop-color:#5277c3" offset="1"/>
  </linearGradient>
 </defs>
 <path d="m36.3 5c5.86 4.06 9.69 10.8 9.69 18.5 0 12.4-10.1 22.5-22.5 22.5-7.67 0-14.4-3.83-18.5-9.69 1.04 1.82 2.31 3.5 3.78 4.97 4.08 3.71 9.51 5.97 15.5 5.97 12.7 0 23-10.3 23-23 0-5.95-2.26-11.4-5.97-15.5-1.47-1.48-3.15-2.74-4.97-3.78zm4.97 3.78c3.85 4.11 6.22 9.64 6.22 15.7 0 12.7-10.3 23-23 23-6.08 0-11.6-2.36-15.7-6.22 4.16 4.14 9.88 6.72 16.2 6.72 12.7 0 23-10.3 23-23 0-6.34-2.58-12.1-6.72-16.2z" style="opacity:.05"/>
 <path d="m41.3 8.78c3.71 4.08 5.97 9.51 5.97 15.5 0 12.7-10.3 23-23 23-5.95 0-11.4-2.26-15.5-5.97 4.11 3.85 9.64 6.22 15.7 6.22 12.7 0 23-10.3 23-23 0-6.08-2.36-11.6-6.22-15.7z" style="opacity:.1"/>
 <path d="m31.2 2.38c8.62 3.15 14.8 11.4 14.8 21.1 0 12.4-10.1 22.5-22.5 22.5-9.71 0-18-6.14-21.1-14.8a23 23 0 0 0 44.9-7 23 23 0 0 0-16-21.9z" style="opacity:.2"/>
 <circle cx="24" cy="24" r="23" style="fill:url(#bg)"/>
 <path d="m40 7.53c3.71 4.08 5.97 9.51 5.97 15.5 0 12.7-10.3 23-23 23-5.95 0-11.4-2.26-15.5-5.97 4.18 4.29 10 6.97 16.5 6.97 12.7 0 23-10.3 23-23 0-6.46-2.68-12.3-6.97-16.5z" style="opacity:.1"/>
 <path d="m20 11-3 3v3h-5v18l3 3h20l3-3v-18h-5v-3l-3-3zm0 3h10v3h-10z" style="opacity:.1"/>
 <path d="m11 16h26v18l-3 3h-20l-3-3z" style="fill:#f7f2ed"/>
 <path d="m19 10h10l1 3h-12z" style="fill:#e5ddd1"/>
 <path d="m19 10-3 3v5h3zm10 0v8h3v-5z" style="fill:#eae6e1"/>
 <path d="m20 20v0.75l1.3 2.25h-2.8l-0.5 1h7l-0.5-1h-2l-1.75-3zm9.5 3-3.5 6h1.12l1.25-2h2.62l0.5-0.5-0.5-0.5h-2.12l1.12-1.88-0.5-1.12zm-8.5 5-0.625 1 1 1.75-1.62 2.75 0.25 0.5h0.625l1.38-2.25 1.38 2.25h1.12l-3.5-6z" style="fill:#3c60aa"/>
 <path d="m23.5 20 3.5 6 0.625-1-1-1.75 1.62-2.75-0.25-0.5h-0.625l-1.38 2.25-1.38-2.25h-1.12zm-2.62 5-1.25 2h-2.62l-0.5 0.5 0.5 0.5h2.12l-1.12 1.88 0.5 1.12 3.5-6h-1.12zm2.12 5 0.5 1h2l1.75 3h0.75v-0.75l-1.3-2.25h2.8l0.5-1z" style="fill:#5da3d5"/>
</svg>
