<svg version="1.1" viewBox="0 0 48 48" xmlns="http://www.w3.org/2000/svg">
 <defs>
  <linearGradient id="bg" x1="1" x2="47" gradientTransform="matrix(0 -1 1 0 -1.5e-6 48)" gradientUnits="userSpaceOnUse">
   <stop style="stop-color:#3063b8" offset="0"/>
   <stop style="stop-color:#346bc9" offset="1"/>
  </linearGradient>
 </defs>
 <path d="m36.31 5c5.859 4.062 9.688 10.831 9.688 18.5 0 12.426-10.07 22.5-22.5 22.5-7.669 0-14.438-3.828-18.5-9.688 1.037 1.822 2.306 3.499 3.781 4.969 4.085 3.712 9.514 5.969 15.469 5.969 12.703 0 23-10.298 23-23 0-5.954-2.256-11.384-5.969-15.469-1.469-1.475-3.147-2.744-4.969-3.781zm4.969 3.781c3.854 4.113 6.219 9.637 6.219 15.719 0 12.703-10.297 23-23 23-6.081 0-11.606-2.364-15.719-6.219 4.16 4.144 9.883 6.719 16.219 6.719 12.703 0 23-10.298 23-23 0-6.335-2.575-12.06-6.719-16.219z" style="opacity:.05"/>
 <path d="m41.28 8.781c3.712 4.085 5.969 9.514 5.969 15.469 0 12.703-10.297 23-23 23-5.954 0-11.384-2.256-15.469-5.969 4.113 3.854 9.637 6.219 15.719 6.219 12.703 0 23-10.298 23-23 0-6.081-2.364-11.606-6.219-15.719z" style="opacity:.1"/>
 <path d="m31.25 2.375c8.615 3.154 14.75 11.417 14.75 21.13 0 12.426-10.07 22.5-22.5 22.5-9.708 0-17.971-6.135-21.12-14.75a23 23 0 0 0 44.875-7 23 23 0 0 0-16-21.875z" style="opacity:.2"/>
 <path d="m24 1c-2.27 0-4.462 0.334-6.533 0.947 1.534 1.053-1.25 2.02-3.205 1.215-7.833 3.667-13.262 11.617-13.262 20.838 0 7.505 3.595 14.169 9.156 18.367 5.844 2.633 21.844 2.633 29.684-1.699 2.366-2.249 4.253-4.995 5.494-8.07v-2e-3c0.234-1.595 0.667-3.594 1.23-4.15h2e-3c0.282-1.438 0.434-2.923 0.434-4.443 0-0.118-6e-3 -0.234-8e-3 -0.352h-2e-3c-0.992-0.649-0.556-1.182-0.154-2.348-0.185-1.577-0.527-3.105-1.014-4.568-1.826-0.738-7.823-7.734-11.1-13.08-3.203-1.692-6.85-2.654-10.725-2.654z" style="fill:url(#bg)"/>
 <path d="m24 1v8.484 2.631 1.988 8.58 1.316h-11.865-6.684-4.451c0 0.673 0.035 1.338 0.092 1.996h4.748l0.111 0.273 0.5 1.406 1.316 1.313 0.063 0.75 0.096 3.379 0.465 1.906s0.289 1.102 0.223 1.191c-0.07 0.086 0.375 0.902 0.375 0.902l0.875 1.375 1.219 0.531-0.5-0.598-0.254-0.689 0.254-0.719-0.656-0.344s0.434-0.285 0.5-0.375-0.094-0.469-0.094-0.469l-0.188-0.469 0.5-0.652 0.781-0.191 0.121-0.598-0.467-0.219 0.189-0.5 0.75-0.09 0.656-1.598 0.469-1.094 0.965-0.471s0.313-0.928 0.313-1.064c0-0.129 0.094-1.531 0.094-1.531l0.75-1.027 0.045-0.33h7.73l-10.799 11.932-0.336 0.375 0.754 0.656 0.336-0.371 11-12.15v16.299l-9.697 0.652s-0.656-1.32-0.656-1.5c0-0.176-0.5-0.621-0.5-0.621l-0.014-6e-3 -0.469 0.719c-0.237 5.344 13.332 0.668 13.332 0.668v-11.1l0.496 0.662 0.066 0.594 0.09 0.688 0.344-0.344 0.879-0.09h0.531l0.965-1.5 0.066-0.594 0.652-0.656 0.029-0.75 0.35-0.754 0.809-0.777v-0.875l-0.188-0.813-0.039-0.348h14.26l0.242 0.271 1.313 0.064 0.021 6e-3c0.01-0.099 0.013-0.2 0.021-0.299l-0.061-0.043h0.064c0.057-0.658 0.092-1.323 0.092-1.996 0-0.412-0.012-0.822-0.033-1.229l-0.391 0.215c0 0.09-0.719 0.688-0.719 0.688l0.1 0.326h-1.287l-0.125-0.104-1.098-1.281 8e-3 -6e-3 -0.438 0.064 0.885 1.326h-12.12l0.836-1.033 0.406-0.406 0.156-0.531 0.254-0.469 0.063-0.691h-0.594l-0.281 0.281-0.563-0.156-0.344-0.563-0.281-0.563-0.656-0.5-0.156-0.813-0.277-0.475-0.313-0.594-0.41-0.719-0.09-0.469 0.434-0.063 0.254 0.531 0.5 0.938 0.375 0.688 0.406 0.75 0.438 0.723 0.594 0.6 0.531-0.5 0.598-0.156 0.439-0.531 0.598-0.344 0.344-0.594 0.031-0.5-0.281-0.316-0.375-0.438-0.25 0.154-0.156 0.254-0.41-0.188-0.121-0.313-0.281-0.41-0.438-0.406v-0.812l0.281 0.531 0.344 0.535 0.594 0.344 0.41-0.094 0.25 0.281 1.781-0.035-0.031 0.035 0.563 0.5 0.41 0.563 0.121 0.277h0.281l0.094-0.311 0.09 0.467 0.156 0.844 0.344 0.813 0.191 0.688 0.277 0.656 0.223 0.277 0.313-0.188 0.096-0.314 0.121-0.775-0.031-0.689 0.254-0.316s0.266-0.359 0.309-0.375c0.047-0.012 0.625-0.65 0.625-0.65l0.281-0.35 0.313-0.188 0.375-0.219h0.156l0.063 0.344 0.156 0.406 0.5 0.652v0.25l0.09 0.281 0.344-0.156-0.031-0.375 0.316 0.066 0.063 0.344-0.029 0.531 0.098 0.375 0.273 0.064 0.098-0.314 0.344 0.219 0.063 0.316 0.313 0.469 0.314 0.344 0.219 0.191 0.531-0.469 0.219-0.441-0.09-0.5-0.094-0.656-0.596-0.563-0.094-0.566 0.254-0.398s0.161-0.32 0.314-0.156c0.152 0.168 0.221 0.188 0.15 0.375-0.066 0.184-0.188 0.598-0.188 0.598l0.379 0.156 0.152-0.531-0.152-0.379 0.281-0.117c-1.534-5.725-5.219-10.566-10.139-13.607l-0.266 0.176-0.621 0.375-0.531 0.438 0.064 0.189-0.281 0.031v4e-3l-4.08 0.678-1.203 0.645-0.313-0.223-0.156-0.25 0.064-0.254 0.689 0.035 0.314-0.125-0.625-0.314-0.875-0.314-0.875-0.156-0.939 0.191-0.445 0.357v-2.211l0.098-0.092 0.344 0.219 0.5-0.25s0.09-0.211 0.031-0.188c-0.035 0.013-0.534 0.013-0.973 0.016v-2.311c-0.658-0.057-1.323-0.092-1.996-0.092zm8.969 2.848-0.375 4e-3 -0.471 0.063-0.404 0.25-0.471 0.35-0.279 0.5 0.438 0.438 0.375 0.031 0.156-0.254-0.375-0.314 0.219-0.188 0.031-0.152 0.469-0.313s0.609 8e-3 0.656 0c0.043-0.012 0.188-0.191 0.188-0.191l-0.156-0.223zm0.49 1.113s0.152 0.664 0.152 0.75c0 0.082-0.434 0.025-0.434 0.025l-0.75 0.035s-1.088 0.25-1.221 0.25-0.762 0.262-0.813 0.281l-0.025 0.01 4.086-0.695-0.031-0.156-0.313-0.438-0.652-0.063zm-6.611 1.49 0.25 0.189v0.125l-0.219 0.25-0.064 0.25v0.344l0.189 0.156c1.014-0.126 1.123 0.266 0.119 0.469-0.09 0.031-0.313 0.316-0.313 0.316s-0.023 0.25 0 0.313c0.012 0.023-4e-3 0.07-0.012 0.129l-0.023 0.018-0.375 0.279h-0.031l-0.25-0.094s-0.06 0.01-0.123 0.027v-1.01l0.16-0.107s0.074-0.133 0.066-0.156c-0.012-0.02-0.191-0.219-0.191-0.219l-0.035-0.014v-0.393c0.033-0.019 0.066-0.043 0.066-0.066 0-0.039 0.191-0.189 0.191-0.189l0.219-0.275 0.156-0.189 0.219-0.156zm5.707 4.76c0.133-0.043 0.375 0.154 0.375 0.154l-0.25 0.221 0.09 0.313 0.281 0.75 0.273 0.469 0.379 0.594-0.406 0.191-0.531-0.344-0.219-0.656s-0.305-0.406-0.441-0.469c-0.133-0.066-0.25-0.281-0.25-0.281l0.125-0.531s0.43-0.359 0.566-0.406l8e-3 -4e-3zm-3.938 0.074 0.566 0.096 0.094 0.313 0.219 0.156 0.25-0.219-0.154-0.346h0.654l-0.219 0.375 0.439 0.375 0.375 0.189 0.219 0.438-0.5 0.121-0.719-0.156h-0.625l-0.596 0.316-0.125 0.188-0.434 0.094 0.189 0.469 0.344 0.406 0.621-0.219 0.154 0.277 0.281-0.219 0.375 0.063 0.031 0.41-0.125 0.777-0.344-0.031-0.406-0.063-0.191 0.465-1.375-0.25-0.25-0.316-0.313 0.281-0.344 0.469-0.715-0.408v-1.813l0.215-0.107-0.094-0.375h0.191l-0.125-0.254-0.188-0.176v-0.604l0.313 0.311 0.375 0.441v0.688l0.188 0.125 0.375 0.375 0.281-0.094-0.156-0.566 0.092-0.344 0.188-0.219 0.441 0.156 0.15 0.063-0.025-0.5 0.25-0.469 0.15-0.689zm14.93 10.1c0.113 0.129 0.814 2.219 0.908 2.219 0.086 0 0.621 0.066 0.621 0.066l-0.275-0.846-1.254-1.439zm-3.592 0.064-0.313 0.406 0.156 0.598 0.344-0.375-0.066-0.473-0.121-0.156zm-7 6.03v0.441c-0.02 0.063-0.402 0.375-0.402 0.375l-0.473 0.219-0.344 0.281 0.25 0.344 0.156 0.156-0.406 0.344v0.563l0.156 0.594 0.344 0.094 0.406-0.625 0.254-0.406-0.066-0.5 0.383-0.594 0.117-0.281v-0.563l-0.09-0.438-0.285-4e-3zm-20.475 9.471v2e-3l4e-3 -2e-3h-4e-3zm0 2e-3 -0.215 0.15-0.094 0.031 0.5 0.25-0.191-0.432zm-0.848 0.182 2e-3 4e-3 2e-3 -4e-3h-4e-3zm2e-3 4e-3 -0.217 0.496 0.434-0.094-0.217-0.402z" style="opacity:.1"/>
 <path d="m17.467 1.947c-1.176 0.348-2.315 0.782-3.404 1.305l0.348 0.936 0.156 0.598-0.625 0.346-0.25 0.465 0.188 1.063 0.75 0.125 0.719-0.688 0.625-0.656 0.969-0.25 1.219-0.594 0.721-0.875 1.029-1.254 0.721-0.189-0.031-0.275h-1.125l-2.01-0.055zm8.502 0.439c-0.055 0.02-1.531 0.023-1.531 0.023l-0.375 0.098 0.5 0.598 0.531-0.5 0.344 0.219 0.5-0.25s0.09-0.211 0.031-0.188zm6 0.461-0.375 4e-3 -0.471 0.063-0.404 0.25-0.471 0.35-0.279 0.5 0.438 0.438 0.375 0.031 0.156-0.254-0.375-0.314 0.219-0.188 0.031-0.152 0.469-0.313s0.609 8e-3 0.656 0c0.043-0.012 0.188-0.191 0.188-0.191l-0.156-0.223zm2.754 0.805-0.535 0.324-0.531 0.438 0.064 0.189-0.281 0.031v4e-3l-4.08 0.678-1.203 0.645-0.313-0.223-0.156-0.25 0.064-0.254 0.689 0.035 0.314-0.125-0.625-0.314-0.875-0.314-0.875-0.156-0.939 0.191-0.973 0.779-0.438 0.439 0.817 1.938 0.027-0.41 0.281-0.188s0.074-0.133 0.066-0.156c-0.012-0.02-0.191-0.219-0.191-0.219l-0.156-0.063 0.066-0.316s0.121-0.051 0.121-0.094c0-0.039 0.191-0.189 0.191-0.189l0.219-0.275 0.156-0.189 0.219-0.156 0.25 0.189v0.125l-0.219 0.25-0.064 0.25v0.344l0.189 0.156 0.344-0.031 0.313-0.063 0.277 0.154-0.064 0.221s-0.195 0.188-0.25 0.219c-0.059 0.031-0.414-0.063-0.5-0.031-0.09 0.031-0.313 0.316-0.313 0.316s-0.023 0.249 0 0.313c0.012 0.023-4e-3 0.07-0.012 0.129l-0.023 0.018-0.375 0.279h-0.031l-0.25-0.094-0.223 0.066-0.314 0.121h-0.813l-0.251 0.081-0.309 0.125-0.439-0.221-0.156 0.064 0.221 0.281-0.121 0.275-0.156 0.189-0.254 0.254-0.344 0.09s-0.247 0.07-0.314 0.094c-0.063 0.023-0.25 0.066-0.25 0.066l-0.25 0.031-0.156 0.223 0.277 0.191 0.188 0.309s0.125 0.223 0.156 0.223 0.094 0.219 0.094 0.219l-0.188 0.25h-0.098l-0.652 0.125-0.125-0.281-0.441 0.438-0.188 0.721v0.598l0.75 0.406 0.598-0.221 0.6-1.064 0.525-0.652 0.975-0.156 0.219-0.188 1.094 1.281 0.125 0.438 0.313-0.156-0.094-0.375h0.191l-0.125-0.254-1.066-1 0.094-0.188 0.344-0.031 0.754 0.75 0.375 0.441v0.688l0.188 0.125 0.375 0.375 0.281-0.094-0.156-0.566 0.092-0.344 0.188-0.219 0.441 0.156 0.15 0.063-0.025-0.5 0.25-0.469 0.15-0.689 0.566 0.096 0.094 0.313 0.219 0.156 0.25-0.219-0.154-0.346h0.654l-0.219 0.375 0.439 0.375 0.375 0.189 0.219 0.438-0.5 0.121-0.719-0.156h-0.625l-0.596 0.316-0.125 0.188-0.434 0.094 0.189 0.469 0.344 0.406 0.621-0.219 0.154 0.277 0.281-0.219 0.375 0.063 0.031 0.41-0.125 0.777-0.344-0.031-0.406-0.063-0.191 0.465-1.375-0.25-0.25-0.316-0.313 0.281-0.344 0.469-0.875-0.5-0.875-0.527v-0.941l-0.563 0.031-0.035 0.313-1.375-0.063-0.434 0.402-0.844 0.031-0.566 0.5-0.344 0.969-0.875 0.691-0.625 0.844-0.031 1.625-0.189 0.5-0.063 0.598 0.375 0.652 0.219 0.625 0.75 0.906 0.439 0.375 0.434 0.094 0.094-0.375h1.566l0.406-0.188 0.5 0.063 0.15 0.313c1.7411 1.1888 1.6526 6.2424 1.979 8.784l0.563 0.75 0.066 0.594 0.09 0.688 0.344-0.344 0.879-0.09h0.531l0.965-1.5 0.066-0.594 0.652-0.656 0.029-0.75 0.35-0.754 0.809-0.777v-0.875l-0.188-0.813-0.125-1.125 0.598-0.939 1.063-1.313 0.406-0.406 0.156-0.531 0.254-0.469 0.063-0.691h-0.594l-0.281 0.281-0.563-0.156-0.344-0.563-0.281-0.563-0.656-0.5-0.156-0.813-0.277-0.475-0.313-0.594-0.41-0.719-0.09-0.469 0.434-0.063 0.254 0.531 0.5 0.938 0.375 0.688 0.406 0.75 0.438 0.723 0.594 0.6 0.531-0.5 0.598-0.156 0.439-0.531 0.598-0.344 0.344-0.594 0.031-0.5-0.281-0.316-0.375-0.438-0.25 0.154-0.156 0.254-0.41-0.188-0.121-0.313-0.281-0.41-0.438-0.406v-0.813l0.281 0.531 0.344 0.535 0.594 0.344 0.41-0.094 0.25 0.281 1.781-0.035-0.031 0.035 0.563 0.5 0.41 0.563 0.121 0.277h0.281l0.094-0.311 0.09 0.467 0.156 0.844 0.344 0.813 0.191 0.688 0.277 0.656 0.223 0.277 0.313-0.188 0.096-0.314 0.121-0.775-0.031-0.689 0.254-0.316s0.266-0.359 0.309-0.375c0.047-0.012 0.625-0.65 0.625-0.65l0.281-0.35 0.313-0.188 0.375-0.219h0.156l0.063 0.344 0.156 0.406 0.5 0.652v0.25l0.09 0.281 0.344-0.156-0.031-0.375 0.316 0.066 0.063 0.344-0.029 0.531 0.098 0.375 0.273 0.064 0.098-0.314 0.344 0.219 0.063 0.316 0.313 0.469 0.314 0.344 0.219 0.191 0.531-0.469 0.219-0.441-0.09-0.5-0.094-0.656-0.596-0.563-0.094-0.566 0.254-0.398s0.161-0.32 0.314-0.156c0.152 0.168 0.221 0.188 0.15 0.375-0.066 0.184-0.188 0.598-0.188 0.598l0.379 0.156 0.152-0.531-0.152-0.379 0.375-0.156 0.516-0.258c-1.882-5.658-5.899-10.338-11.1-13.08zm-2.264 0.309s0.152 0.664 0.152 0.75c0 0.082-0.434 0.025-0.434 0.025l-0.75 0.035s-1.088 0.25-1.221 0.25-0.762 0.262-0.813 0.281l-0.025 0.01 4.086-0.695-0.031-0.156-0.313-0.438-0.652-0.063zm-20.742 0.598c-0.592 0.375-1.167 0.775-1.721 1.201l0.094 0.041 0.529 0.465 0.531 0.125 0.189-0.719 0.029-0.438 0.625 0.094s-0.188 0.313-0.094 0.313c0.098 0 0.469-0.406 0.469-0.406l-0.652-0.676zm6.898 0.84-0.125 0.406c0.453 0.348 0.625 0.344 0.625 0.344l0.531-0.125 0.344-0.344-0.219-0.281zm-8.869 0.773s-0.314 0.172-0.654 0.32c-0.168 0.143-0.336 0.286-0.5 0.434-1e-3 0.055-2e-3 0.121-2e-3 0.121l-0.031 0.844-0.691 0.563-0.434 0.656s-0.281-0.188-0.281-0.313c0-0.105-0.038-0.311-0.053-0.393-0.421 0.456-0.822 0.931-1.205 1.42l0.375 0.48 0.277 0.434s-0.245 0.844-0.313 1c-0.063 0.156-0.254-0.313-0.254-0.313l-0.156-0.814-0.527 0.225-0.406 0.965 0.084-0.727c-0.808 1.187-1.506 2.455-2.084 3.787h0.301l1.125-0.25 0.406 0.531-0.064 0.625 0.465 0.406 0.066-0.441s-0.031-0.719-0.098-0.906c-0.063-0.188 0.566-0.625 0.566-0.625l0.5-0.613 0.598-0.727 0.277-0.563 0.941-0.496 0.617-0.691s0.941-0.148 1.125-0.254c0.191-0.09 0.066-0.434-0.125-0.75-0.188-0.313 0.098-0.625 0.098-0.625l0.719-0.434 0.621 0.121 0.063 0.754s0.586 0.563 0.777 0.465c0.191-0.09 0.281-0.406 0.281-0.406l-0.313-0.813 0.188-0.811-0.844 0.121v-1.375l-0.25 0.254-0.656 0.031-0.09-0.688-0.439-0.531zm11.65 1.01-0.25 0.219c-0.07 0.305-0.156 0.621-0.156 0.621l0.471 0.223 0.064 0.277-0.25 0.254-0.223 0.375 0.152 0.156 0.566-0.094 0.5-0.219-0.277-0.375-0.094-0.656-0.344-0.375-0.16-0.406zm-0.781 1.184-0.273 0.469 0.375 0.156 0.148-0.281zm10.939 1.848c0.133-0.043 0.375 0.154 0.375 0.154l-0.25 0.221 0.09 0.313 0.281 0.75 0.273 0.469 0.379 0.594-0.406 0.191-0.531-0.344-0.219-0.656s-0.305-0.406-0.441-0.469c-0.133-0.066-0.25-0.281-0.25-0.281l0.125-0.531s0.43-0.359 0.566-0.406l8e-3 -4e-3zm-7.906 1.188-0.375 0.719 0.281 0.281 0.25-0.223 0.031-0.309-0.188-0.469zm-1.254 0.75v0.188l0.156-0.031-0.156-0.156zm2.156 0.469-0.188 0.064 0.313 0.531 0.281-0.221-0.406-0.375zm-20.12 4.186-2e-3 4e-3 -0.313 0.156 0.531 0.279 0.598 0.121 0.344 0.469 0.406-0.25-0.063-0.279-0.689-0.5h-0.813zm-0.988 0.41-0.563 0.09-0.844 0.844-0.27-0.035c-0.056 0.211-0.104 0.425-0.154 0.639l0.496 0.234 1.094 0.598 0.156 0.725 0.875 0.84 0.5-0.375 0.398 0.316-0.063-0.725-0.781 0.191-0.25-0.906-0.094-0.41-0.688-0.621v-0.438l0.529-0.566-0.344-0.4zm2.672 2.68v8e-3l-0.813 0.441-0.09 0.9-0.191 1-0.566 0.75 0.031 1.121 0.469 1.156 0.5 1.406 1.316 1.313 0.063 0.75 0.096 3.379 0.465 1.906s0.289 1.102 0.223 1.191c-0.07 0.086 0.375 0.902 0.375 0.902l0.875 1.375 1.219 0.531-0.5-0.598-0.254-0.689 0.254-0.719-0.656-0.344s0.434-0.285 0.5-0.375-0.094-0.469-0.094-0.469l-0.188-0.469 0.5-0.652 0.781-0.191 0.121-0.598-0.467-0.219 0.189-0.5 0.75-0.09 0.656-1.598 0.469-1.094 0.965-0.471s0.313-0.928 0.313-1.064c0-0.129 0.094-1.531 0.094-1.531l0.75-1.027 0.094-0.688-3.22-1.625-0.281-0.656s-0.469-0.809-0.563-0.809c-0.09 0-0.656 0.029-0.656 0.029l-0.531-0.529-0.344-0.656-1.344-0.281-0.436-0.219h-0.875zm36.436 0.496c0.113 0.129 0.814 2.219 0.908 2.219 0.086 0 0.621 0.066 0.621 0.066l-0.275-0.846zm-3.592 0.064-0.313 0.406 0.156 0.598 0.344-0.375-0.066-0.473zm7.881 0.838-1.26 0.695c0 0.09-0.719 0.688-0.719 0.688l0.189 0.625 0.404 0.465 0.281 0.691 1.258-0.82c-0.012-0.792-0.064-1.573-0.154-2.344zm-4.381 0.318-0.438 0.064 2 3 0.531 0.594 1.313 0.064 0.811 0.256-0.875-0.625-1.25-0.35-0.314-1.15-0.688-0.566-1.098-1.281zm-10.504 4.873v0.441c-0.02 0.063-0.402 0.375-0.402 0.375l-0.473 0.219-0.344 0.281 0.25 0.344 0.156 0.156-0.406 0.344v0.563l0.156 0.594 0.344 0.094 0.406-0.625 0.254-0.406-0.066-0.5 0.383-0.594 0.117-0.281v-0.563l-0.09-0.438zm14.617 1.955c-0.12 0.03-0.208 0.06-0.215 0.084-0.02 0.086-0.564 0.375-0.564 0.375-0.113 0-0.469 0.656-0.469 0.656l-0.063 2.063-0.125 0.75 0.193 0.25c0.54-1.335 0.959-2.732 1.242-4.178zm-35.09 7.516v2e-3l4e-3 -2e-3zm0 2e-3 -0.215 0.15-0.094 0.031 0.5 0.25-0.191-0.432zm-0.848 0.182 2e-3 4e-3 2e-3 -4e-3zm2e-3 4e-3 -0.217 0.496 0.434-0.094zm1.502 4.121-0.469 0.719-0.875 0.406 0.5 0.625-0.754 0.375-0.379-0.02c3.852 2.908 8.646 4.633 13.844 4.633 6.141 0 11.715-2.411 15.84-6.332l-2.643 0.1-3.059 0.621s-1.48 0.793-1.656 0.754c-0.18-0.043 0.625-1.031 0.625-1.031l-1.438 0.094-0.906-0.75-0.906 0.617s-1.215 0.098-1.531 0.098-0.719 0.563-0.719 0.563l-2.469-0.09-4.25 0.188-1.121 0.967-0.281 0.033-3.219-0.223-2.215 0.223-0.781-0.379 0.031-0.063s-0.656-1.32-0.656-1.5c0-0.176-0.5-0.621-0.5-0.621l-0.014-6e-3z" style="fill:#b9ceea"/>
 <path d="m25.969 2.387c-0.055 0.02-1.531 0.023-1.531 0.023l0.125 0.695 0.531-0.5 0.344 0.219 0.5-0.25s0.09-0.211 0.031-0.188zm0.027 2.051-0.555 0.113-0.973 0.779c-0.33 0.731 0.379 2.377 0.379 2.377l0.027-0.41 0.281-0.188s0.074-0.133 0.066-0.156c-0.012-0.02-0.191-0.219-0.191-0.219l-0.156-0.063 0.066-0.316s0.121-0.051 0.121-0.094c0-0.039 0.191-0.189 0.191-0.189l0.219-0.275 0.156-0.189 0.219-0.156 0.148 0.113zm0 1.443-0.117 0.135-0.064 0.25v0.344l0.182 0.15zm0 1.467c-0.092 0.094-0.186 0.203-0.186 0.203s-0.023 0.25 0 0.313c0.012 0.023-4e-3 0.07-0.012 0.129l-0.023 0.018-0.375 0.279h-0.031l-0.25-0.094-0.223 0.066-0.896 2.967 0.773 0.906 0.125 0.438 0.313-0.156-0.094-0.375h0.191l-0.125-0.254-1.066-1 0.094-0.188 0.344-0.031 0.754 0.75 0.375 0.441v0.688l0.188 0.125 0.125 0.125zm-1.445 5.27-0.188 0.064 0.313 0.531 0.281-0.221zm-0.551 1.123v10.223l0.898 6.03 0.031 0.471 0.563 0.75 0.066 0.594 0.09 0.688 0.344-0.344h4e-3v-6.156h4.24l-0.15-0.652-0.125-1.125-3.965-0.219v-9.645l-0.285 0.389-0.875-0.5zm-19.521 10.26 4e-3 0.113 0.469 1.156 0.258 0.727h8.568l0.488-0.67 0.094-0.688-0.563-0.344-0.244-0.295m30.02 0 0.449 0.674 0.531 0.594 1.313 0.064 0.811 0.256-0.875-0.625-1.25-0.35-0.168-0.613m1.168 0 0.186 0.455 0.697-0.455m-21.291 17.643-1.139 0.051v5.307c0.673 0 1.338-0.033 1.996-0.09v-5.236z" style="fill-opacity:.098"/>
 <g transform="translate(1,1)"></g>
 <path d="m23.438 23.457-0.34 0.371-11.855 13.1-0.336 0.375 0.754 0.656 0.336-0.371 11.863-13.1 0.332-0.371" style="fill:#e84638"/>
 <path d="m24 1c-0.335 0-0.668 0.011-1 0.025v21.975h-21.975c-0.014 0.332-0.025 0.665-0.025 1 0 0.334 0.011 0.665 0.025 0.996h21.975v21.979c0.332 0.014 0.665 0.025 1 0.025 0.334 0 0.665-0.011 0.996-0.025v-21.979h21.979c0.014-0.331 0.025-0.662 0.025-0.996 0-0.335-0.011-0.668-0.025-1h-21.979v-21.975c-0.331-0.014-0.662-0.025-0.996-0.025z" style="fill:#474747"/>
 <path d="m40.03 7.531c3.712 4.084 5.969 9.514 5.969 15.469 0 12.703-10.297 23-23 23-5.954 0-11.384-2.256-15.469-5.969 4.178 4.291 10.01 6.969 16.469 6.969 12.703 0 23-10.298 23-23 0-6.462-2.677-12.291-6.969-16.469z" style="opacity:.1"/>
</svg>
