<svg version="1.1" viewBox="0 0 48 48" xmlns="http://www.w3.org/2000/svg" xmlns:xlink="http://www.w3.org/1999/xlink">
 <defs>
  <linearGradient id="linearGradient878" x2="0" y1="47" y2="1" gradientUnits="userSpaceOnUse">
   <stop style="stop-color:#909aaa" offset="0"/>
   <stop style="stop-color:#9ba4b3" offset="1"/>
  </linearGradient>
 </defs>
 <path d="m36.31 5c5.859 4.062 9.688 10.831 9.688 18.5 0 12.426-10.07 22.5-22.5 22.5-7.669 0-14.438-3.828-18.5-9.688 1.037 1.822 2.306 3.499 3.781 4.969 4.085 3.712 9.514 5.969 15.469 5.969 12.703 0 23-10.298 23-23 0-5.954-2.256-11.384-5.969-15.469-1.469-1.475-3.147-2.744-4.969-3.781zm4.969 3.781c3.854 4.113 6.219 9.637 6.219 15.719 0 12.703-10.297 23-23 23-6.081 0-11.606-2.364-15.719-6.219 4.16 4.144 9.883 6.719 16.219 6.719 12.703 0 23-10.298 23-23 0-6.335-2.575-12.06-6.719-16.219z" style="opacity:.05"/>
 <path d="m41.28 8.781c3.712 4.085 5.969 9.514 5.969 15.469 0 12.703-10.297 23-23 23-5.954 0-11.384-2.256-15.469-5.969 4.113 3.854 9.637 6.219 15.719 6.219 12.703 0 23-10.298 23-23 0-6.081-2.364-11.606-6.219-15.719z" style="opacity:.1"/>
 <path d="m31.25 2.375c8.615 3.154 14.75 11.417 14.75 21.13 0 12.426-10.07 22.5-22.5 22.5-9.708 0-17.971-6.135-21.12-14.75a23 23 0 0 0 44.875 -7 23 23 0 0 0 -16 -21.875z" style="opacity:.2"/>
 <g style="fill:#909aaa">
  <path d="m24 1c12.703 0 23 10.297 23 23s-10.297 23-23 23-23-10.297-23-23 10.297-23 23-23z" style="fill:url(#linearGradient878)"/>
 </g>
 <path transform="matrix(1.3636 0 0 1.5 -13.182 -17)" d="m39 28a11 10 0 1 1 -22 0 11 10 0 1 1 22 0z" style="opacity:.1"/>
 <path id="path3853" transform="matrix(1.45,0,0,1,-7.2,0)" d="m36 34a10 3 0 1 1 -20 0 10 3 0 1 1 20 0z" style="fill:none;opacity:.359"/>
 <path d="m40.03 7.531c3.712 4.084 5.969 9.514 5.969 15.469 0 12.703-10.297 23-23 23-5.954 0-11.384-2.256-15.469-5.969 4.178 4.291 10.01 6.969 16.469 6.969 12.703 0 23-10.298 23-23 0-6.462-2.677-12.291-6.969-16.469z" style="opacity:.1"/>
 <path transform="matrix(1.3636 0 0 1.5 -14.182 -18)" d="m39 28a11 10 0 1 1 -22 0 11 10 0 1 1 22 0z" style="fill:#2d2d2d"/>
 <use transform="translate(1,1)" width="48" height="48" xlink:href="#path3853"/>
 <path d="m25 13a12 12 0 0 0 -12 12 12 12 0 0 0 12 12 12 12 0 0 0 12 -12 12 12 0 0 0 -12 -12m1 2.051a10 10 0 0 1 3.248 0.91c0.297 0.984 0.527 2.004 0.725 3.039h-3.973v-3.95m-2 0.01v3.94h-3.97c0.195-1.046 0.425-2.07 0.72-3.039a10 10 0 0 1 3.25 -0.901m-5.758 2.582c-0.102 0.448-0.192 0.901-0.269 1.358h-0.957a10 10 0 0 1 1.227 -1.357zm13.512 0a10 10 0 0 1 1.234 1.358h-0.961c-0.082-0.456-0.173-0.908-0.273-1.357zm-15.914 3.358h1.834c-0.115 0.989-0.186 1.992-0.217 3h-2.406a10 10 0 0 1 0.789 -3zm3.883 0h4.277v3h-4.508c0.033-1.012 0.11-2.01 0.23-3zm6.277 0h4.291c0.125 0.993 0.204 1.993 0.238 3h-4.529v-3m6.334 0h1.818a10 10 0 0 1 0.787 3h-2.383c-0.033-1-0.104-2.01-0.223-3zm-17.273 5h2.389c0.026 1 0.094 2.01 0.207 3h-1.809a10 10 0 0 1 -0.788 -3m4.428 0h4.512v3h-4.316c-0.118-0.99-0.169-1.99-0.196-3m6.512 0h4.535c-0.027 1.01-0.1 2.01-0.221 3h-4.314v-3m6.564 0h2.385a10 10 0 0 1 -0.789 3h-1.801c0.115-0.994 0.179-1.996 0.205-3zm-15.553 5h0.939c0.079 0.447 0.167 0.892 0.266 1.332a10 10 0 0 1 -1.206 -1.332m2.978 0h4.012v3.949a10 10 0 0 1 -3.256 -0.909c-0.306-0.98-0.564-2-0.756-3.04m6.012 0h4.02c-0.199 1.038-0.458 2.052-0.768 3.037a10 10 0 0 1 -3.252 0.902v-3.939m6.06 0h0.928a10 10 0 0 1 -1.197 1.332c0.096-0.441 0.185-0.885 0.269-1.332" style="opacity:.1"/>
 <path d="m24 12a12 12 0 0 0 -12 12 12 12 0 0 0 12 12 12 12 0 0 0 12 -12 12 12 0 0 0 -12 -12zm0 2a10 10 0 0 1 10 10 10 10 0 0 1 -10 10 10 10 0 0 1 -10 -10 10 10 0 0 1 10 -10z" style="fill:#94eb21"/>
 <rect x="23" y="13" width="2" height="22" style="fill:#94eb21"/>
 <rect x="13" y="23" width="22" height="2" style="fill:#94eb21"/>
 <rect x="14" y="18" width="20" height="2" style="fill:#94eb21"/>
 <rect x="14" y="28" width="20" height="2" style="fill:#94eb21"/>
 <path d="m18.05 13.684c-2.077 6.231-2.233 14.14 4e-3 20.643l1.891-0.652c-2.063-5.996-1.919-13.588 4e-3 -19.357l-1.898-0.633z" solid-color="#000000" style="color-rendering:auto;fill-rule:evenodd;fill:#94eb21;image-rendering:auto;shape-rendering:auto" isolation="auto" mix-blend-mode="normal" white-space="normal"/>
 <path d="m29.949 13.688-1.898 0.625c1.979 6.03 2.071 13.353 4e-3 19.361l1.891 0.652c2.233-6.492 2.125-14.173 4e-3 -20.639z" solid-color="#000000" style="color-rendering:auto;fill-rule:evenodd;fill:#94eb21;image-rendering:auto;shape-rendering:auto" isolation="auto" mix-blend-mode="normal" white-space="normal"/>
</svg>
