<svg xmlns="http://www.w3.org/2000/svg" xmlns:xlink="http://www.w3.org/1999/xlink" viewBox="0 0 48 48">
 <g>
  <path d="m 36.31 5 c 5.859 4.062 9.688 10.831 9.688 18.5 c 0 12.426 -10.07 22.5 -22.5 22.5 c -7.669 0 -14.438 -3.828 -18.5 -9.688 c 1.037 1.822 2.306 3.499 3.781 4.969 c 4.085 3.712 9.514 5.969 15.469 5.969 c 12.703 0 23 -10.298 23 -23 c 0 -5.954 -2.256 -11.384 -5.969 -15.469 c -1.469 -1.475 -3.147 -2.744 -4.969 -3.781 z m 4.969 3.781 c 3.854 4.113 6.219 9.637 6.219 15.719 c 0 12.703 -10.297 23 -23 23 c -6.081 0 -11.606 -2.364 -15.719 -6.219 c 4.16 4.144 9.883 6.719 16.219 6.719 c 12.703 0 23 -10.298 23 -23 c 0 -6.335 -2.575 -12.06 -6.719 -16.219 z" style="opacity:0.05"/>
  <path d="m 41.28 8.781 c 3.712 4.085 5.969 9.514 5.969 15.469 c 0 12.703 -10.297 23 -23 23 c -5.954 0 -11.384 -2.256 -15.469 -5.969 c 4.113 3.854 9.637 6.219 15.719 6.219 c 12.703 0 23 -10.298 23 -23 c 0 -6.081 -2.364 -11.606 -6.219 -15.719 z" style="opacity:0.1"/>
  <path d="m 31.25 2.375 c 8.615 3.154 14.75 11.417 14.75 21.13 c 0 12.426 -10.07 22.5 -22.5 22.5 c -9.708 0 -17.971 -6.135 -21.12 -14.75 a 23 23 0 0 0 44.875 -7 a 23 23 0 0 0 -16 -21.875 z" style="opacity:0.2"/>
 </g>
 <g style="fill:#909aaa;fill-opacity:1">
  <path d="m 24 1 c 12.703 0 23 10.297 23 23 c 0 12.703 -10.297 23 -23 23 -12.703 0 -23 -10.297 -23 -23 0 -12.703 10.297 -23 23 -23 z"/>
 </g>
 <path transform="matrix(1.3636364,0,0,1.5,-13.181819,-17)" d="m 39 28 a 11 10 0 1 1 -22 0 11 10 0 1 1 22 0 z" style="fill:#000;opacity:0.1;fill-opacity:1;stroke:none;fill-rule:nonzero"/>
 <path id="path3853" d="m 36 34 a 10 3 0 1 1 -20 0 10 3 0 1 1 20 0 z" transform="matrix(1.45,0,0,1,-7.2,0)" style="fill:none;opacity:0.359;stroke:none"/>
 <g>
  <path d="m 40.03 7.531 c 3.712 4.084 5.969 9.514 5.969 15.469 0 12.703 -10.297 23 -23 23 c -5.954 0 -11.384 -2.256 -15.469 -5.969 4.178 4.291 10.01 6.969 16.469 6.969 c 12.703 0 23 -10.298 23 -23 0 -6.462 -2.677 -12.291 -6.969 -16.469 z" style="opacity:0.1"/>
 </g>
 <path d="m 39 28 a 11 10 0 1 1 -22 0 11 10 0 1 1 22 0 z" transform="matrix(1.3636364,0,0,1.5,-14.181818,-18)" style="fill:#2d2d2d;fill-opacity:1;stroke:none;fill-rule:nonzero"/>
 <use xlink:href="#path3853" transform="translate(1,1)" width="48" height="48"/>
 <path d="M 25 13 A 12 12 0 0 0 13 25 12 12 0 0 0 25 37 12 12 0 0 0 37 25 12 12 0 0 0 25 13 m 1 2.051 a 10 10 0 0 1 3.248 0.91 C 29.545 16.945 29.775 17.965 29.973 19 L 26 19 26 15.05 m -2 0.01 L 24 19 20.03 19 C 20.225 17.954 20.455 16.93 20.75 15.961 A 10 10 0 0 1 24 15.06 m -5.758 2.582 C 18.14 18.09 18.05 18.543 17.973 19 l -0.957 0 a 10 10 0 0 1 1.227 -1.357 z m 13.512 0 A 10 10 0 0 1 32.988 19 l -0.961 0 c -0.082 -0.456 -0.173 -0.908 -0.273 -1.357 z M 15.84 21 l 1.834 0 c -0.115 0.989 -0.186 1.992 -0.217 3 l -2.406 0 a 10 10 0 0 1 0.789 -3 z M 19.723 21 24 21 l 0 3 -4.508 0 c 0.033 -1.012 0.11 -2.01 0.23 -3 z M 26 21 l 4.291 0 c 0.125 0.993 0.204 1.993 0.238 3 L 26 24 26 21 m 6.334 0 1.818 0 a 10 10 0 0 1 0.787 3 l -2.383 0 c -0.033 -1 -0.104 -2.01 -0.223 -3 z m -17.273 5 2.389 0 c 0.026 1 0.094 2.01 0.207 3 l -1.809 0 A 10 10 0 0 1 15.06 26 M 19.488 26 24 26 l 0 3 -4.316 0 C 19.566 28.01 19.515 27.01 19.488 26 M 26 26 l 4.535 0 c -0.027 1.01 -0.1 2.01 -0.221 3 L 26 29 26 26 m 6.564 0 2.385 0 a 10 10 0 0 1 -0.789 3 l -1.801 0 c 0.115 -0.994 0.179 -1.996 0.205 -3 z m -15.553 5 0.939 0 c 0.079 0.447 0.167 0.892 0.266 1.332 A 10 10 0 0 1 17.01 31 M 19.988 31 24 31 24 34.949 A 10 10 0 0 1 20.744 34.04 C 20.438 33.06 20.18 32.04 19.988 31 M 26 31 l 4.02 0 c -0.199 1.038 -0.458 2.052 -0.768 3.037 A 10 10 0 0 1 26 34.939 L 26 31 m 6.06 0 0.928 0 a 10 10 0 0 1 -1.197 1.332 C 31.887 31.891 31.976 31.447 32.06 31" style="fill:#000;opacity:0.1;fill-opacity:1;stroke:none"/>
 <path d="M 24 12 A 12 12 0 0 0 12 24 A 12 12 0 0 0 24 36 A 12 12 0 0 0 36 24 A 12 12 0 0 0 24 12 z M 24 14 A 10 10 0 0 1 34 24 A 10 10 0 0 1 24 34 A 10 10 0 0 1 14 24 A 10 10 0 0 1 24 14 z" style="fill:#94eb21;opacity:1;fill-opacity:1;stroke:none"/>
 <rect width="2" height="22" x="23" y="13" style="fill:#94eb21;opacity:1;fill-opacity:1;stroke:none"/>
 <rect width="22" height="2" x="13" y="23" style="fill:#94eb21;opacity:1;fill-opacity:1;stroke:none"/>
 <rect width="20" height="2" x="14" y="18" style="fill:#94eb21;opacity:1;fill-opacity:1;stroke:none"/>
 <rect width="20" height="2" x="14" y="28" style="fill:#94eb21;opacity:1;fill-opacity:1;stroke:none"/>
 <path d="m 18.05 13.684 c -2.077 6.231 -2.233 14.14 0.004 20.643 l 1.891 -0.652 c -2.063 -5.996 -1.919 -13.588 0.004 -19.357 l -1.898 -0.633 z" mix-blend-mode="normal" isolation="auto" white-space="normal" solid-opacity="1" solid-color="#000000" style="visibility:visible;shape-rendering:auto;color-interpolation-filters:linearRGB;fill:#94eb21;opacity:1;image-rendering:auto;fill-opacity:1;stroke:none;display:inline;color:#000;fill-rule:evenodd;color-rendering:auto;color-interpolation:sRGB"/>
 <path d="m 29.949 13.688 -1.898 0.625 c 1.979 6.03 2.071 13.353 0.004 19.361 l 1.891 0.652 c 2.233 -6.492 2.125 -14.173 0.004 -20.639 z" mix-blend-mode="normal" isolation="auto" white-space="normal" solid-opacity="1" solid-color="#000000" style="visibility:visible;shape-rendering:auto;color-interpolation-filters:linearRGB;fill:#94eb21;opacity:1;image-rendering:auto;fill-opacity:1;stroke:none;display:inline;color:#000;fill-rule:evenodd;color-rendering:auto;color-interpolation:sRGB"/>
</svg>
