<svg version="1.1" viewBox="0 0 48 48" xmlns="http://www.w3.org/2000/svg">
 <defs>
  <linearGradient id="bg" x1="1" x2="47" gradientTransform="matrix(0 -1 1 0 -1.5e-6 48)" gradientUnits="userSpaceOnUse">
   <stop style="stop-color:#94c341" offset="0"/>
   <stop style="stop-color:#9dc851" offset="1"/>
  </linearGradient>
 </defs>
 <path d="m36.3 5c5.86 4.06 9.69 10.8 9.69 18.5 0 12.4-10.1 22.5-22.5 22.5-7.67 0-14.4-3.83-18.5-9.69 1.04 1.82 2.31 3.5 3.78 4.97 4.08 3.71 9.51 5.97 15.5 5.97 12.7 0 23-10.3 23-23 0-5.95-2.26-11.4-5.97-15.5-1.47-1.48-3.15-2.74-4.97-3.78zm4.97 3.78c3.85 4.11 6.22 9.64 6.22 15.7 0 12.7-10.3 23-23 23-6.08 0-11.6-2.36-15.7-6.22 4.16 4.14 9.88 6.72 16.2 6.72 12.7 0 23-10.3 23-23 0-6.34-2.58-12.1-6.72-16.2z" style="opacity:.05"/>
 <path d="m41.3 8.78c3.71 4.08 5.97 9.51 5.97 15.5 0 12.7-10.3 23-23 23-5.95 0-11.4-2.26-15.5-5.97 4.11 3.85 9.64 6.22 15.7 6.22 12.7 0 23-10.3 23-23 0-6.08-2.36-11.6-6.22-15.7z" style="opacity:.1"/>
 <path d="m31.2 2.38c8.62 3.15 14.8 11.4 14.8 21.1 0 12.4-10.1 22.5-22.5 22.5-9.71 0-18-6.14-21.1-14.8a23 23 0 0 0 44.9-7 23 23 0 0 0-16-21.9z" style="opacity:.2"/>
 <path d="m24 1v21c0.723-0.012 1.39 0.375 1.75 1h11.3c0.523 0 0.938 0.415 0.938 0.938v0.125c0 0.52-0.414 0.938-0.938 0.938h-11.3c-0.356 0.613-1.01 0.996-1.72 1v21c12.7 0 23-10.3 23-23s-10.3-23-23-23zm0 25v-4c-0.211-4e-3 -0.422 0.028-0.625 0.094l-4.81-4.81c-0.179-0.179-0.422-0.281-0.656-0.281s-0.445 0.101-0.625 0.281c-0.355 0.355-0.355 0.922 0 1.28l4.81 4.81c-0.063 0.199-0.094 0.41-0.094 0.625 4e-3 0.485 0.18 0.95 0.5 1.31l-5.94 10.9c-0.129 0.239-0.071 0.55 0.156 0.688 0.226 0.136 0.527 0.05 0.656-0.188l5.91-10.9c0.231 0.086 0.473 0.129 0.719 0.125z" style="fill:url(#bg)"/>
 <path d="m24 1v21c0.361-6e-3 0.698 0.077 1 0.25v-21.2c-0.331-0.014-0.666-0.031-1-0.031zm0 21c-0.211-4e-3 -0.422 0.028-0.625 0.094l0.625 0.625v-0.719zm-6.09-5c-0.234 0-0.445 0.101-0.625 0.281-0.355 0.355-0.355 0.922 0 1.28l1 1c-0.355-0.359-0.355-0.926 0-1.28 0.18-0.18 0.391-0.281 0.625-0.281s0.477 0.102 0.656 0.281l-1-1c-0.179-0.179-0.422-0.281-0.656-0.281zm4.19 6.38c-0.063 0.199-0.094 0.41-0.094 0.625 4e-3 0.485 0.18 0.95 0.5 1.31l-5.94 10.9c-0.129 0.239-0.071 0.55 0.156 0.688 0.226 0.136 0.527 0.05 0.656-0.188l5.88-10.8c-0.155-0.287-0.247-0.605-0.25-0.938 0-0.215 0.031-0.426 0.094-0.625l-1-1zm15.9 0.625v0.063c0 0.52-0.414 0.938-0.938 0.938h-11.3c-0.178 0.306-0.422 0.546-0.719 0.719v1.28c0.711-4e-3 1.36-0.387 1.72-1h11.3c0.523 0 0.938-0.418 0.938-0.938v-0.125c0-0.523-0.414-0.938-0.938-0.938h-0.063zm-13 3c-0.246 4e-3 -0.488-0.039-0.719-0.125l-0.281 0.531v19.6c0.334 0 0.669-0.017 1-0.031v-20z" style="opacity:.1"/>
 <path d="m24 1c-12.7 0-23 10.3-23 23s10.3 23 23 23v-21c-0.246 4e-3 -0.488-0.039-0.719-0.125l-5.91 10.9c-0.129 0.238-0.43 0.324-0.656 0.188-0.227-0.137-0.285-0.449-0.156-0.688l5.94-10.9c-0.32-0.363-0.496-0.828-0.5-1.31 0-0.215 0.031-0.426 0.094-0.625l-4.81-4.81c-0.355-0.359-0.355-0.926 0-1.28 0.18-0.18 0.391-0.281 0.625-0.281s0.477 0.102 0.656 0.281l4.81 4.81c0.203-0.066 0.414-0.098 0.625-0.094v-21zm0 21v4c0.711-4e-3 1.36-0.387 1.72-1h11.3c0.523 0 0.938-0.418 0.938-0.938v-0.125c0-0.523-0.414-0.938-0.938-0.938h-11.3c-0.359-0.625-1.03-1.01-1.75-1z" style="fill:#424242"/>
 <path d="m40 7.53c3.71 4.08 5.97 9.51 5.97 15.5 0 12.7-10.3 23-23 23-5.95 0-11.4-2.26-15.5-5.97 4.18 4.29 10 6.97 16.5 6.97 12.7 0 23-10.3 23-23 0-6.46-2.68-12.3-6.97-16.5z" style="opacity:.1"/>
</svg>
