<svg xmlns="http://www.w3.org/2000/svg" viewBox="0 0 48 48">
 <defs>
  <linearGradient id="linearGradient3281" gradientUnits="userSpaceOnUse" gradientTransform="matrix(0,-1,1,0,-1.5e-6,47.999998)" x1="1" x2="47">
   <stop style="stop-color:#94c341;stop-opacity:1"/>
   <stop offset="1" style="stop-color:#9dc851;stop-opacity:1"/>
  </linearGradient>
 </defs>
 <g>
  <path d="m 36.31 5 c 5.859 4.062 9.688 10.831 9.688 18.5 c 0 12.426 -10.07 22.5 -22.5 22.5 c -7.669 0 -14.438 -3.828 -18.5 -9.688 c 1.037 1.822 2.306 3.499 3.781 4.969 c 4.085 3.712 9.514 5.969 15.469 5.969 c 12.703 0 23 -10.298 23 -23 c 0 -5.954 -2.256 -11.384 -5.969 -15.469 c -1.469 -1.475 -3.147 -2.744 -4.969 -3.781 z m 4.969 3.781 c 3.854 4.113 6.219 9.637 6.219 15.719 c 0 12.703 -10.297 23 -23 23 c -6.081 0 -11.606 -2.364 -15.719 -6.219 c 4.16 4.144 9.883 6.719 16.219 6.719 c 12.703 0 23 -10.298 23 -23 c 0 -6.335 -2.575 -12.06 -6.719 -16.219 z" style="opacity:0.05"/>
  <path d="m 41.28 8.781 c 3.712 4.085 5.969 9.514 5.969 15.469 c 0 12.703 -10.297 23 -23 23 c -5.954 0 -11.384 -2.256 -15.469 -5.969 c 4.113 3.854 9.637 6.219 15.719 6.219 c 12.703 0 23 -10.298 23 -23 c 0 -6.081 -2.364 -11.606 -6.219 -15.719 z" style="opacity:0.1"/>
  <path d="m 31.25 2.375 c 8.615 3.154 14.75 11.417 14.75 21.13 c 0 12.426 -10.07 22.5 -22.5 22.5 c -9.708 0 -17.971 -6.135 -21.12 -14.75 a 23 23 0 0 0 44.875 -7 a 23 23 0 0 0 -16 -21.875 z" style="opacity:0.2"/>
 </g>
 <path d="m 24 1 l 0 24.03 l 1.656 0 c 0.735 0 1.344 0.575 1.344 1.313 l 0 3.344 c 0 0.735 -0.61 1.313 -1.344 1.313 l -1.656 0 l 0 1 l 15 0 l 1 3 l -16 0 l 0 12 c 12.703 0 23 -10.297 23 -23 c 0 -12.703 -10.297 -23 -23 -23 z m 0 34 l 0 -3 l -15 0 l -1 3 l 16 0 z m 0 -4 l 0 -5.969 l -1.656 0 c -0.735 0 -1.344 0.575 -1.344 1.313 l 0 3.344 c 0 0.739 0.61 1.313 1.344 1.313 l 1.656 0 z m -10.938 -5.969 c -0.61 0.122 -1.063 0.668 -1.063 1.313 l 0 3.344 c 0 0.739 0.606 1.313 1.344 1.313 l 3.313 0 c 0.735 0 1.344 -0.578 1.344 -1.313 l 0 -3.344 c 0 -0.739 -0.61 -1.313 -1.344 -1.313 l -3.313 0 c -0.093 0 -0.195 -0.02 -0.281 0 z m 18 0 c 0.086 -0.02 0.187 0 0.281 0 l 3.313 0 c 0.735 0 1.344 0.575 1.344 1.313 l 0 3.344 c 0 0.739 -0.61 1.313 -1.344 1.313 l -3.313 0 c -0.739 0 -1.344 -0.578 -1.344 -1.313 l 0 -3.344 c 0 -0.645 0.453 -1.192 1.063 -1.313 z" style="fill:url(#linearGradient3281);fill-opacity:1"/>
 <path d="m 24 1 l 0 24.03 l 1 0 l 0 -24 c -0.331 -0.014 -0.666 -0.031 -1 -0.031 z m 0 24.03 l -1.656 0 c -0.735 0 -1.344 0.575 -1.344 1.313 l 0 3.344 c 0 0.636 0.438 1.15 1.031 1.281 c -0.018 -0.086 -0.031 -0.189 -0.031 -0.281 l 0 -3.344 c 0 -0.738 0.609 -1.313 1.344 -1.313 l 0.656 0 l 0 -1 z m -10.938 0 c -0.61 0.122 -1.063 0.668 -1.063 1.313 l 0 3.344 c 0 0.636 0.436 1.15 1.031 1.281 c -0.018 -0.086 -0.031 -0.189 -0.031 -0.281 l 0 -3.344 c 0 -0.645 0.453 -1.191 1.063 -1.313 c 0.086 -0.02 0.188 0 0.281 0 l 3.313 0 c 0.103 0 0.216 0.01 0.313 0.031 c -0.127 -0.605 -0.67 -1.031 -1.313 -1.031 l -3.313 0 c -0.093 0 -0.195 -0.02 -0.281 0 z m 13.906 1.031 c 0.018 0.086 0.031 0.189 0.031 0.281 l 0 3.344 c 0 0.735 -0.61 1.313 -1.344 1.313 l -0.656 0 l 0 1 l 1.656 0 c 0.734 0 1.344 -0.578 1.344 -1.313 l 0 -3.344 c 0 -0.635 -0.437 -1.15 -1.031 -1.281 z m 9 0 c 0.018 0.086 0.031 0.189 0.031 0.281 l 0 3.344 c 0 0.739 -0.61 1.313 -1.344 1.313 l -3.313 0 c -0.103 0 -0.216 -0.01 -0.313 -0.031 c 0.126 0.602 0.666 1.031 1.313 1.031 l 3.313 0 c 0.734 0 1.344 -0.573 1.344 -1.313 l 0 -3.344 c 0 -0.635 -0.437 -1.15 -1.031 -1.281 z m -26.969 5.938 l -1 3 l 1.344 0 l 0.656 -2 l 14 0 l 0 -1 l -0.656 0 l -5.688 0 l -3.313 0 l -5.344 0 z m 30.344 1 l 0.656 2 l -15 0 l 0 1 l 16 0 l -1 -3 l -0.656 0 z m -14.344 3 l -1 0 l 0 11 c 0.334 0 0.669 -0.017 1 -0.031 l 0 -10.969 z" style="fill:#000;opacity:0.1;fill-opacity:1;stroke:none;fill-rule:evenodd"/>
 <path d="m 24 1 c -12.703 0 -23 10.297 -23 23 c 0 12.703 10.297 23 23 23 l 0 -12 l -16 0 l 1 -3 l 15 0 l 0 -1 l -1.656 0 c -0.734 0 -1.344 -0.573 -1.344 -1.313 l 0 -3.344 c 0 -0.738 0.609 -1.313 1.344 -1.313 l 1.656 0 l 0 -24.03 z m 0 24.03 l 0 5.969 l 1.656 0 c 0.734 0 1.344 -0.578 1.344 -1.313 l 0 -3.344 c 0 -0.738 -0.609 -1.313 -1.344 -1.313 l -1.656 0 z m 0 6.969 l 0 3 l 16 0 l -1 -3 l -15 0 z m -10.938 -6.969 c 0.086 -0.02 0.188 0 0.281 0 l 3.313 0 c 0.734 0 1.344 0.573 1.344 1.313 l 0 3.344 c 0 0.734 -0.609 1.313 -1.344 1.313 l -3.313 0 c -0.738 0 -1.344 -0.573 -1.344 -1.313 l 0 -3.344 c 0 -0.645 0.453 -1.191 1.063 -1.313 z m 18 0 c -0.609 0.121 -1.063 0.668 -1.063 1.313 l 0 3.344 c 0 0.734 0.605 1.313 1.344 1.313 l 3.313 0 c 0.734 0 1.344 -0.573 1.344 -1.313 l 0 -3.344 c 0 -0.738 -0.609 -1.313 -1.344 -1.313 l -3.313 0 c -0.094 0 -0.195 -0.02 -0.281 0 z" style="fill:#2d2d2d;fill-opacity:1;stroke:none;fill-rule:evenodd"/>
 <g>
  <path d="m 40.03 7.531 c 3.712 4.084 5.969 9.514 5.969 15.469 0 12.703 -10.297 23 -23 23 c -5.954 0 -11.384 -2.256 -15.469 -5.969 4.178 4.291 10.01 6.969 16.469 6.969 c 12.703 0 23 -10.298 23 -23 0 -6.462 -2.677 -12.291 -6.969 -16.469 z" style="opacity:0.1"/>
 </g>
</svg>
