<svg version="1.1" viewBox="0 0 48 48" xmlns="http://www.w3.org/2000/svg">
 <defs>
  <linearGradient id="bg" x1="1" x2="47" gradientTransform="matrix(0 -1 1 0 -1.5e-6 48)" gradientUnits="userSpaceOnUse">
   <stop style="stop-color:#94c341" offset="0"/>
   <stop style="stop-color:#9dc851" offset="1"/>
  </linearGradient>
 </defs>
 <path d="m36.3 5c5.86 4.06 9.69 10.8 9.69 18.5 0 12.4-10.1 22.5-22.5 22.5-7.67 0-14.4-3.83-18.5-9.69 1.04 1.82 2.31 3.5 3.78 4.97 4.08 3.71 9.51 5.97 15.5 5.97 12.7 0 23-10.3 23-23 0-5.95-2.26-11.4-5.97-15.5-1.47-1.48-3.15-2.74-4.97-3.78zm4.97 3.78c3.85 4.11 6.22 9.64 6.22 15.7 0 12.7-10.3 23-23 23-6.08 0-11.6-2.36-15.7-6.22 4.16 4.14 9.88 6.72 16.2 6.72 12.7 0 23-10.3 23-23 0-6.34-2.58-12.1-6.72-16.2z" style="opacity:.05"/>
 <path d="m41.3 8.78c3.71 4.08 5.97 9.51 5.97 15.5 0 12.7-10.3 23-23 23-5.95 0-11.4-2.26-15.5-5.97 4.11 3.85 9.64 6.22 15.7 6.22 12.7 0 23-10.3 23-23 0-6.08-2.36-11.6-6.22-15.7z" style="opacity:.1"/>
 <path d="m31.2 2.38c8.62 3.15 14.8 11.4 14.8 21.1 0 12.4-10.1 22.5-22.5 22.5-9.71 0-18-6.14-21.1-14.8a23 23 0 0 0 44.9-7 23 23 0 0 0-16-21.9z" style="opacity:.2"/>
 <path d="m24 1v24h1.66c0.735 0 1.34 0.575 1.34 1.31v3.34c0 0.735-0.61 1.31-1.34 1.31h-1.66v1h15l1 3h-16v12c12.7 0 23-10.3 23-23s-10.3-23-23-23zm0 34v-3h-15l-1 3h16zm0-4v-5.97h-1.66c-0.735 0-1.34 0.575-1.34 1.31v3.34c0 0.739 0.61 1.31 1.34 1.31h1.66zm-10.9-5.97c-0.61 0.122-1.06 0.668-1.06 1.31v3.34c0 0.739 0.606 1.31 1.34 1.31h3.31c0.735 0 1.34-0.578 1.34-1.31v-3.34c0-0.739-0.61-1.31-1.34-1.31h-3.31c-0.093 0-0.195-0.02-0.281 0zm18 0c0.086-0.02 0.187 0 0.281 0h3.31c0.735 0 1.34 0.575 1.34 1.31v3.34c0 0.739-0.61 1.31-1.34 1.31h-3.31c-0.739 0-1.34-0.578-1.34-1.31v-3.34c0-0.645 0.453-1.19 1.06-1.31z" style="fill:url(#bg)"/>
 <path d="m24 1v24h1v-24c-0.331-0.014-0.666-0.031-1-0.031zm0 24h-1.66c-0.735 0-1.34 0.575-1.34 1.31v3.34c0 0.636 0.438 1.15 1.03 1.28-0.018-0.086-0.031-0.189-0.031-0.281v-3.34c0-0.738 0.609-1.31 1.34-1.31h0.656v-1zm-10.9 0c-0.61 0.122-1.06 0.668-1.06 1.31v3.34c0 0.636 0.436 1.15 1.03 1.28-0.018-0.086-0.031-0.189-0.031-0.281v-3.34c0-0.645 0.453-1.19 1.06-1.31 0.086-0.02 0.188 0 0.281 0h3.31c0.103 0 0.216 0.01 0.313 0.031-0.127-0.605-0.67-1.03-1.31-1.03h-3.31c-0.093 0-0.195-0.02-0.281 0zm13.9 1.03c0.018 0.086 0.031 0.189 0.031 0.281v3.34c0 0.735-0.61 1.31-1.34 1.31h-0.656v1h1.66c0.734 0 1.34-0.578 1.34-1.31v-3.34c0-0.635-0.437-1.15-1.03-1.28zm9 0c0.018 0.086 0.031 0.189 0.031 0.281v3.34c0 0.739-0.61 1.31-1.34 1.31h-3.31c-0.103 0-0.216-0.01-0.313-0.031 0.126 0.602 0.666 1.03 1.31 1.03h3.31c0.734 0 1.34-0.573 1.34-1.31v-3.34c0-0.635-0.437-1.15-1.03-1.28zm-27 5.94-1 3h1.34l0.656-2h14v-1h-15zm30.3 1 0.656 2h-15v1h16l-1-3h-0.656zm-14.3 3h-1v11c0.334 0 0.669-0.017 1-0.031v-11z" style="opacity:.1"/>
 <path d="m24 1c-12.7 0-23 10.3-23 23s10.3 23 23 23v-12h-16l1-3h15v-1h-1.66c-0.734 0-1.34-0.573-1.34-1.31v-3.34c0-0.738 0.609-1.31 1.34-1.31h1.66v-24zm0 24v5.97h1.66c0.734 0 1.34-0.578 1.34-1.31v-3.34c0-0.738-0.609-1.31-1.34-1.31h-1.66zm0 6.97v3h16l-1-3h-15zm-10.9-6.97c0.086-0.02 0.188 0 0.281 0h3.31c0.734 0 1.34 0.573 1.34 1.31v3.34c0 0.734-0.609 1.31-1.34 1.31h-3.31c-0.738 0-1.34-0.573-1.34-1.31v-3.34c0-0.645 0.453-1.19 1.06-1.31zm18 0c-0.609 0.121-1.06 0.668-1.06 1.31v3.34c0 0.734 0.605 1.31 1.34 1.31h3.31c0.734 0 1.34-0.573 1.34-1.31v-3.34c0-0.738-0.609-1.31-1.34-1.31h-3.31c-0.094 0-0.195-0.02-0.281 0z" style="fill:#424242"/>
 <path d="m40 7.53c3.71 4.08 5.97 9.51 5.97 15.5 0 12.7-10.3 23-23 23-5.95 0-11.4-2.26-15.5-5.97 4.18 4.29 10 6.97 16.5 6.97 12.7 0 23-10.3 23-23 0-6.46-2.68-12.3-6.97-16.5z" style="opacity:.1"/>
</svg>
