<svg version="1.1" viewBox="0 0 48 48" xmlns="http://www.w3.org/2000/svg">
 <defs>
  <linearGradient id="bg" x1="1" x2="47" gradientTransform="matrix(0 -1 1 0 -1.5e-6 48)" gradientUnits="userSpaceOnUse">
   <stop style="stop-color:#94c341" offset="0"/>
   <stop style="stop-color:#9dc851" offset="1"/>
  </linearGradient>
 </defs>
 <path d="m36.31 5c5.859 4.062 9.688 10.831 9.688 18.5 0 12.426-10.07 22.5-22.5 22.5-7.669 0-14.438-3.828-18.5-9.688 1.037 1.822 2.306 3.499 3.781 4.969 4.085 3.712 9.514 5.969 15.469 5.969 12.703 0 23-10.298 23-23 0-5.954-2.256-11.384-5.969-15.469-1.469-1.475-3.147-2.744-4.969-3.781zm4.969 3.781c3.854 4.113 6.219 9.637 6.219 15.719 0 12.703-10.297 23-23 23-6.081 0-11.606-2.364-15.719-6.219 4.16 4.144 9.883 6.719 16.219 6.719 12.703 0 23-10.298 23-23 0-6.335-2.575-12.06-6.719-16.219z" style="opacity:.05"/>
 <path d="m41.28 8.781c3.712 4.085 5.969 9.514 5.969 15.469 0 12.703-10.297 23-23 23-5.954 0-11.384-2.256-15.469-5.969 4.113 3.854 9.637 6.219 15.719 6.219 12.703 0 23-10.298 23-23 0-6.081-2.364-11.606-6.219-15.719z" style="opacity:.1"/>
 <path d="m31.25 2.375c8.615 3.154 14.75 11.417 14.75 21.13 0 12.426-10.07 22.5-22.5 22.5-9.708 0-17.971-6.135-21.12-14.75a23 23 0 0 0 44.875-7 23 23 0 0 0-16-21.875z" style="opacity:.2"/>
 <path d="m24 1v15.813c0.125-8e-3 0.25-0.027 0.375-0.031 6.43-0.215 10.594 5.281 10.594 5.281s-4.802 5.844-9.813 5.844c-0.414 0-0.789-0.066-1.156-0.125v1.594c0.305 0.036 0.61 0.063 0.938 0.063 4.665 0 8.05-2.399 11.313-5.219 0.543 0.434 2.762 1.477 3.219 1.938-3.106 2.606-10.336 4.719-14.438 4.719-0.351 0-0.695-0.032-1.031-0.063v16.188c12.703 0 23-10.297 23-23s-10.297-23-23-23zm0 29.813v-1.438c-5.707-0.717-7.656-7.03-7.656-7.03s2.551-3.765 7.656-4.156v-1.375c-5.652 0.453-10.531 5.25-10.531 5.25s2.754 8.02 10.531 8.75zm0-12.625v1.688c0.265-0.027 0.535-0.063 0.813-0.063 2.961 0 4.719 2.313 4.719 2.313l-2.406 2.031c-1.055-1.754-1.441-2.602-3.125-2.844v5.156c0.375 0.114 0.793 0.188 1.25 0.188 3.511 0 6.781-4.531 6.781-4.531s-3.035-4.114-7.656-3.969c-0.129 4e-3 -0.25 0.023-0.375 0.031zm0 8.281c-2.434-0.82-3.219-3.688-3.219-3.688s1.082-1.289 2.563-1.469c0.211-0.023 0.429-0.027 0.656 0v-1.438c-3.441 0.371-5.5 2.656-5.5 2.656s1.187 4.48 5.5 5.25v-1.313z" style="fill:url(#bg)"/>
 <path d="m24 1v15.813c0.125-8e-3 0.25-0.027 0.375-0.031 0.212-7e-3 0.418 0.026 0.625 0.031v-15.781c-0.331-0.014-0.666-0.031-1-0.031zm0 15.813c-5.652 0.453-10.531 5.25-10.531 5.25s1.143 3.286 4 5.844c-2.125-2.341-3-4.844-3-4.844s4.311-4.247 9.531-5.125v-1.125zm1 1.375v1c0.125-8e-3 0.246-0.027 0.375-0.031 2.844-0.089 5.07 1.44 6.375 2.625-0.651-0.786-3.091-3.404-6.75-3.594zm0 1c-0.342 0.026-0.681 0.071-1 0.125v0.563c0.265-0.027 0.535-0.063 0.813-0.063 0.065 0 0.124-2e-3 0.188 0v-0.625zm-1 0.688c-3.441 0.371-5.5 2.656-5.5 2.656s0.614 2.349 2.594 3.938c-1.179-1.417-1.594-2.938-1.594-2.938s1.03-1.107 2.813-1.906c0.504-0.226 1.064-0.42 1.688-0.563v-1.188zm10.438 1.594c0.249 0.281 0.531 0.594 0.531 0.594s-3.02 3.67-6.781 5.188c-0.974 0.393-2 0.656-3.03 0.656-0.054 0-0.103 2e-3 -0.156 0v0.875c0.367 0.059 0.742 0.125 1.156 0.125 5.01 0 9.813-5.844 9.813-5.844s-0.554-0.701-1.531-1.594zm-9.438 7.313c-0.357-0.064-0.685-0.171-1-0.281v0.875c0.305 0.036 0.61 0.063 0.938 0.063h0.063v-0.656zm-1 0.594c-1.739-0.218-3.127-0.954-4.219-1.875 1.022 1.15 2.388 2.217 4.219 2.688v-0.813zm1-7.781v0.719c0.522 0.075 0.919 0.206 1.25 0.406-0.362-0.521-0.731-0.888-1.25-1.125zm0 0.719c-0.227-0.027-0.445-0.023-0.656 0-0.121 0.015-0.229 0.066-0.344 0.094v4.063c0.303 0.092 0.642 0.135 1 0.156v-4.313zm-1 4.156c-0.46-0.155-0.84-0.42-1.188-0.688 0.311 0.42 0.699 0.822 1.188 1.156v-0.469zm5.5-4.313-2.125 1.781c0.226 0.348 0.465 0.745 0.75 1.219l2.406-2.031s-0.376-0.457-1.031-0.969zm9.688 4.188c-3.234 2.509-10.165 4.531-14.156 4.531h-0.031v0.938c0.336 0.031 0.68 0.063 1.031 0.063 4.102 0 11.331-2.113 14.438-4.719-0.194-0.196-0.714-0.498-1.281-0.813zm-14.188 5.469c-0.346-0.033-0.674-0.096-1-0.156v15.344c0.334 0 0.669-0.017 1-0.031v-15.16z" style="opacity:.1"/>
 <path d="m24 1c-12.703 0-23 10.297-23 23s10.297 23 23 23v-16.188c-7.777-0.734-10.531-8.75-10.531-8.75s4.879-4.797 10.531-5.25v-15.813zm0 15.813v1.375c0.125-8e-3 0.246-0.027 0.375-0.031 4.621-0.145 7.656 3.969 7.656 3.969s-3.27 4.531-6.781 4.531c-0.457 0-0.875-0.073-1.25-0.188v1.313c0.367 0.059 0.742 0.125 1.156 0.125 5.01 0 9.813-5.844 9.813-5.844s-4.164-5.496-10.594-5.281c-0.125 4e-3 -0.25 0.023-0.375 0.031zm0 10.969c-4.313-0.77-5.5-5.25-5.5-5.25s2.059-2.285 5.5-2.656v-1.688c-5.105 0.391-7.656 4.156-7.656 4.156s1.949 6.314 7.656 7.03v-1.594zm0 1.594v1.438c0.336 0.031 0.68 0.063 1.031 0.063 4.102 0 11.331-2.113 14.438-4.719-0.457-0.461-2.676-1.503-3.219-1.938-3.266 2.82-6.648 5.219-11.313 5.219-0.328 0-0.633-0.026-0.938-0.063zm0-9.5v1.438c1.684 0.242 2.07 1.09 3.125 2.844l2.406-2.031s-1.758-2.313-4.719-2.313c-0.277 0-0.547 0.035-0.813 0.063zm0 1.438c-0.227-0.027-0.445-0.023-0.656 0-1.48 0.18-2.563 1.469-2.563 1.469s0.785 2.867 3.219 3.688v-5.156z" style="fill:#3d3d3d"/>
 <path d="m40.03 7.531c3.712 4.084 5.969 9.514 5.969 15.469 0 12.703-10.297 23-23 23-5.954 0-11.384-2.256-15.469-5.969 4.178 4.291 10.01 6.969 16.469 6.969 12.703 0 23-10.298 23-23 0-6.462-2.677-12.291-6.969-16.469z" style="opacity:.1"/>
</svg>
