<svg xmlns="http://www.w3.org/2000/svg" viewBox="0 0 48 48">
 <defs>
  <linearGradient id="linearGradient3185" gradientUnits="userSpaceOnUse" gradientTransform="matrix(0,-1,1,0,-1.5e-6,47.999998)" x1="1" x2="47">
   <stop style="stop-color:#94c341;stop-opacity:1"/>
   <stop offset="1" style="stop-color:#9dc851;stop-opacity:1"/>
  </linearGradient>
 </defs>
 <g>
  <path d="m 36.31 5 c 5.859 4.062 9.688 10.831 9.688 18.5 c 0 12.426 -10.07 22.5 -22.5 22.5 c -7.669 0 -14.438 -3.828 -18.5 -9.688 c 1.037 1.822 2.306 3.499 3.781 4.969 c 4.085 3.712 9.514 5.969 15.469 5.969 c 12.703 0 23 -10.298 23 -23 c 0 -5.954 -2.256 -11.384 -5.969 -15.469 c -1.469 -1.475 -3.147 -2.744 -4.969 -3.781 z m 4.969 3.781 c 3.854 4.113 6.219 9.637 6.219 15.719 c 0 12.703 -10.297 23 -23 23 c -6.081 0 -11.606 -2.364 -15.719 -6.219 c 4.16 4.144 9.883 6.719 16.219 6.719 c 12.703 0 23 -10.298 23 -23 c 0 -6.335 -2.575 -12.06 -6.719 -16.219 z" style="opacity:0.05"/>
  <path d="m 41.28 8.781 c 3.712 4.085 5.969 9.514 5.969 15.469 c 0 12.703 -10.297 23 -23 23 c -5.954 0 -11.384 -2.256 -15.469 -5.969 c 4.113 3.854 9.637 6.219 15.719 6.219 c 12.703 0 23 -10.298 23 -23 c 0 -6.081 -2.364 -11.606 -6.219 -15.719 z" style="opacity:0.1"/>
  <path d="m 31.25 2.375 c 8.615 3.154 14.75 11.417 14.75 21.13 c 0 12.426 -10.07 22.5 -22.5 22.5 c -9.708 0 -17.971 -6.135 -21.12 -14.75 a 23 23 0 0 0 44.875 -7 a 23 23 0 0 0 -16 -21.875 z" style="opacity:0.2"/>
 </g>
 <path d="m 24 1 l 0 15.813 c 0.125 -0.008 0.25 -0.027 0.375 -0.031 c 6.43 -0.215 10.594 5.281 10.594 5.281 c 0 0 -4.802 5.844 -9.813 5.844 c -0.414 0 -0.789 -0.066 -1.156 -0.125 l 0 1.594 c 0.305 0.036 0.61 0.063 0.938 0.063 c 4.665 0 8.05 -2.399 11.313 -5.219 c 0.543 0.434 2.762 1.477 3.219 1.938 c -3.106 2.606 -10.336 4.719 -14.438 4.719 c -0.351 0 -0.695 -0.032 -1.031 -0.063 l 0 16.188 c 12.703 0 23 -10.297 23 -23 c 0 -12.703 -10.297 -23 -23 -23 z m 0 29.813 l 0 -1.438 c -5.707 -0.717 -7.656 -7.03 -7.656 -7.03 c 0 0 2.551 -3.765 7.656 -4.156 l 0 -1.375 c -5.652 0.453 -10.531 5.25 -10.531 5.25 c 0 0 2.754 8.02 10.531 8.75 z m 0 -12.625 l 0 1.688 c 0.265 -0.027 0.535 -0.063 0.813 -0.063 c 2.961 0 4.719 2.313 4.719 2.313 l -2.406 2.031 c -1.055 -1.754 -1.441 -2.602 -3.125 -2.844 l 0 5.156 c 0.375 0.114 0.793 0.188 1.25 0.188 c 3.511 0 6.781 -4.531 6.781 -4.531 c 0 0 -3.035 -4.114 -7.656 -3.969 c -0.129 0.004 -0.25 0.023 -0.375 0.031 z m 0 8.281 c -2.434 -0.82 -3.219 -3.688 -3.219 -3.688 c 0 0 1.082 -1.289 2.563 -1.469 c 0.211 -0.023 0.429 -0.027 0.656 0 l 0 -1.438 c -3.441 0.371 -5.5 2.656 -5.5 2.656 c 0 0 1.187 4.48 5.5 5.25 l 0 -1.313 z" style="fill:url(#linearGradient3185);fill-opacity:1"/>
 <path d="m 24 1 l 0 15.813 c 0.125 -0.008 0.25 -0.027 0.375 -0.031 c 0.212 -0.007 0.418 0.026 0.625 0.031 l 0 -15.781 c -0.331 -0.014 -0.666 -0.031 -1 -0.031 z m 0 15.813 c -5.652 0.453 -10.531 5.25 -10.531 5.25 c 0 0 1.143 3.286 4 5.844 c -2.125 -2.341 -3 -4.844 -3 -4.844 c 0 0 4.311 -4.247 9.531 -5.125 l 0 -1.125 z m 1 1.375 l 0 1 c 0.125 -0.008 0.246 -0.027 0.375 -0.031 c 2.844 -0.089 5.07 1.44 6.375 2.625 c -0.651 -0.786 -3.091 -3.404 -6.75 -3.594 z m 0 1 c -0.342 0.026 -0.681 0.071 -1 0.125 l 0 0.563 c 0.265 -0.027 0.535 -0.063 0.813 -0.063 c 0.065 0 0.124 -0.002 0.188 0 l 0 -0.625 z m -1 0.688 c -3.441 0.371 -5.5 2.656 -5.5 2.656 c 0 0 0.614 2.349 2.594 3.938 c -1.179 -1.417 -1.594 -2.938 -1.594 -2.938 c 0 0 1.03 -1.107 2.813 -1.906 c 0.504 -0.226 1.064 -0.42 1.688 -0.563 l 0 -1.188 z m 10.438 1.594 c 0.249 0.281 0.531 0.594 0.531 0.594 c 0 0 -3.02 3.67 -6.781 5.188 c -0.974 0.393 -2 0.656 -3.03 0.656 c -0.054 0 -0.103 0.002 -0.156 0 l 0 0.875 c 0.367 0.059 0.742 0.125 1.156 0.125 c 5.01 0 9.813 -5.844 9.813 -5.844 c 0 0 -0.554 -0.701 -1.531 -1.594 z m -9.438 7.313 c -0.357 -0.064 -0.685 -0.171 -1 -0.281 l 0 0.875 c 0.305 0.036 0.61 0.063 0.938 0.063 c 0.021 0 0.042 0 0.063 0 l 0 -0.656 z m -1 0.594 c -1.739 -0.218 -3.127 -0.954 -4.219 -1.875 c 1.022 1.15 2.388 2.217 4.219 2.688 l 0 -0.813 z m 1 -7.781 l 0 0.719 c 0.522 0.075 0.919 0.206 1.25 0.406 c -0.362 -0.521 -0.731 -0.888 -1.25 -1.125 z m 0 0.719 c -0.227 -0.027 -0.445 -0.023 -0.656 0 c -0.121 0.015 -0.229 0.066 -0.344 0.094 l 0 4.063 c 0.303 0.092 0.642 0.135 1 0.156 l 0 -4.313 z m -1 4.156 c -0.46 -0.155 -0.84 -0.42 -1.188 -0.688 c 0.311 0.42 0.699 0.822 1.188 1.156 l 0 -0.469 z m 5.5 -4.313 l -2.125 1.781 c 0.226 0.348 0.465 0.745 0.75 1.219 l 2.406 -2.031 c 0 0 -0.376 -0.457 -1.031 -0.969 z m 9.688 4.188 c -3.234 2.509 -10.165 4.531 -14.156 4.531 c -0.011 0 -0.021 0 -0.031 0 l 0 0.938 c 0.336 0.031 0.68 0.063 1.031 0.063 c 4.102 0 11.331 -2.113 14.438 -4.719 c -0.194 -0.196 -0.714 -0.498 -1.281 -0.813 z m -14.188 5.469 c -0.346 -0.033 -0.674 -0.096 -1 -0.156 l 0 15.344 c 0.334 0 0.669 -0.017 1 -0.031 l 0 -15.16 z" style="fill:#000;opacity:0.1;fill-opacity:1;stroke:none;fill-rule:evenodd"/>
 <path d="m 24 1 c -12.703 0 -23 10.297 -23 23 c 0 12.703 10.297 23 23 23 l 0 -16.188 c -7.777 -0.734 -10.531 -8.75 -10.531 -8.75 c 0 0 4.879 -4.797 10.531 -5.25 l 0 -15.813 z m 0 15.813 l 0 1.375 c 0.125 -0.008 0.246 -0.027 0.375 -0.031 c 4.621 -0.145 7.656 3.969 7.656 3.969 c 0 0 -3.27 4.531 -6.781 4.531 c -0.457 0 -0.875 -0.073 -1.25 -0.188 l 0 1.313 c 0.367 0.059 0.742 0.125 1.156 0.125 c 5.01 0 9.813 -5.844 9.813 -5.844 c 0 0 -4.164 -5.496 -10.594 -5.281 c -0.125 0.004 -0.25 0.023 -0.375 0.031 z m 0 10.969 c -4.313 -0.77 -5.5 -5.25 -5.5 -5.25 c 0 0 2.059 -2.285 5.5 -2.656 l 0 -1.688 c -5.105 0.391 -7.656 4.156 -7.656 4.156 c 0 0 1.949 6.314 7.656 7.03 l 0 -1.594 z m 0 1.594 l 0 1.438 c 0.336 0.031 0.68 0.063 1.031 0.063 c 4.102 0 11.331 -2.113 14.438 -4.719 c -0.457 -0.461 -2.676 -1.503 -3.219 -1.938 c -3.266 2.82 -6.648 5.219 -11.313 5.219 c -0.328 0 -0.633 -0.026 -0.938 -0.063 z m 0 -9.5 l 0 1.438 c 1.684 0.242 2.07 1.09 3.125 2.844 l 2.406 -2.031 c 0 0 -1.758 -2.313 -4.719 -2.313 c -0.277 0 -0.547 0.035 -0.813 0.063 z m 0 1.438 c -0.227 -0.027 -0.445 -0.023 -0.656 0 c -1.48 0.18 -2.563 1.469 -2.563 1.469 c 0 0 0.785 2.867 3.219 3.688 l 0 -5.156 z" style="fill:#2d2d2d;fill-opacity:1;stroke:none;fill-rule:evenodd"/>
 <g>
  <path d="m 40.03 7.531 c 3.712 4.084 5.969 9.514 5.969 15.469 0 12.703 -10.297 23 -23 23 c -5.954 0 -11.384 -2.256 -15.469 -5.969 4.178 4.291 10.01 6.969 16.469 6.969 c 12.703 0 23 -10.298 23 -23 0 -6.462 -2.677 -12.291 -6.969 -16.469 z" style="opacity:0.1"/>
 </g>
</svg>
