<svg version="1.1" viewBox="0 0 48 48" xmlns="http://www.w3.org/2000/svg">
 <defs>
  <linearGradient id="linearGradient3764" x1="1" x2="47" gradientTransform="matrix(0 -1 1 0 -1.5e-6 48)" gradientUnits="userSpaceOnUse">
   <stop style="stop-color:#383838" offset="0"/>
   <stop style="stop-color:#424242" offset="1"/>
  </linearGradient>
 </defs>
 <path d="m36.31 5c5.859 4.062 9.688 10.831 9.688 18.5 0 12.426-10.07 22.5-22.5 22.5-7.669 0-14.438-3.828-18.5-9.688 1.037 1.822 2.306 3.499 3.781 4.969 4.085 3.712 9.514 5.969 15.469 5.969 12.703 0 23-10.298 23-23 0-5.954-2.256-11.384-5.969-15.469-1.469-1.475-3.147-2.744-4.969-3.781zm4.969 3.781c3.854 4.113 6.219 9.637 6.219 15.719 0 12.703-10.297 23-23 23-6.081 0-11.606-2.364-15.719-6.219 4.16 4.144 9.883 6.719 16.219 6.719 12.703 0 23-10.298 23-23 0-6.335-2.575-12.06-6.719-16.219z" style="opacity:.05"/>
 <path d="m41.28 8.781c3.712 4.085 5.969 9.514 5.969 15.469 0 12.703-10.297 23-23 23-5.954 0-11.384-2.256-15.469-5.969 4.113 3.854 9.637 6.219 15.719 6.219 12.703 0 23-10.298 23-23 0-6.081-2.364-11.606-6.219-15.719z" style="opacity:.1"/>
 <path d="m31.25 2.375c8.615 3.154 14.75 11.417 14.75 21.13 0 12.426-10.07 22.5-22.5 22.5-9.708 0-17.971-6.135-21.12-14.75a23 23 0 0 0 44.875-7 23 23 0 0 0-16-21.875z" style="opacity:.2"/>
 <path d="m24 1c12.703 0 23 10.297 23 23s-10.297 23-23 23-23-10.297-23-23 10.297-23 23-23z" style="fill:url(#linearGradient3764)"/>
 <path d="m40.03 7.531c3.712 4.084 5.969 9.514 5.969 15.469 0 12.703-10.297 23-23 23-5.954 0-11.384-2.256-15.469-5.969 4.178 4.291 10.01 6.969 16.469 6.969 12.703 0 23-10.298 23-23 0-6.462-2.677-12.291-6.969-16.469z" style="opacity:.1"/>
 <path d="m21.16 9.101c-2.869 1.514-5.27 4.345-5.339 7.715-0.055 1.749 0.31 3.593 1.165 5.1 3 0.051 6.089 1.764 7.141 4.682 1.541 3.857-0.273 8.977-4.328 10.398-2.08 0.749-4.393 0.415-6.403-0.392 2.748 1.73 6.407 2.392 9.36 0.76 1.546-0.819 2.907-2.058 3.834-3.526-1.459-2.63-1.517-6.158 0.482-8.533 2.562-3.266 7.9-4.272 11.162-1.473 1.689 1.425 2.555 3.595 2.861 5.738 0.123-3.242-1.128-6.738-4.01-8.481-1.482-0.945-3.232-1.463-4.969-1.583-1.549 2.579-4.575 4.395-7.632 3.854-4.107-0.58-7.652-4.693-6.859-8.916 0.388-2.176 1.837-4.01 3.538-5.344z" style="fill-rule:evenodd;opacity:.1"/>
 <path d="m20.16 8.102c-2.869 1.514-5.27 4.345-5.339 7.715-0.055 1.749 0.31 3.593 1.165 5.1 3 0.051 6.089 1.764 7.141 4.682 1.541 3.857-0.273 8.977-4.328 10.398-2.08 0.749-4.393 0.415-6.403-0.392 2.748 1.73 6.407 2.392 9.36 0.76 1.546-0.819 2.907-2.058 3.834-3.526-1.459-2.63-1.517-6.158 0.482-8.533 2.562-3.266 7.9-4.272 11.162-1.473 1.689 1.425 2.555 3.595 2.861 5.738 0.123-3.242-1.128-6.738-4.01-8.481-1.482-0.945-3.232-1.463-4.969-1.583-1.549 2.579-4.575 4.395-7.632 3.854-4.107-0.58-7.652-4.693-6.859-8.916 0.388-2.176 1.837-4.01 3.538-5.344z" style="fill-rule:evenodd;fill:#f9f9f9"/>
</svg>
