<svg xmlns="http://www.w3.org/2000/svg" viewBox="0 0 48 48">
 <defs>
  <linearGradient id="linearGradient3764" x1="1" x2="47" gradientUnits="userSpaceOnUse" gradientTransform="matrix(0,-1,1,0,-1.5e-6,47.999998)">
   <stop style="stop-color:#ff821d;stop-opacity:1"/>
   <stop offset="1" style="stop-color:#ff8c32;stop-opacity:1"/>
  </linearGradient>
 </defs>
 <g>
  <path d="m 36.31 5 c 5.859 4.062 9.688 10.831 9.688 18.5 c 0 12.426 -10.07 22.5 -22.5 22.5 c -7.669 0 -14.438 -3.828 -18.5 -9.688 c 1.037 1.822 2.306 3.499 3.781 4.969 c 4.085 3.712 9.514 5.969 15.469 5.969 c 12.703 0 23 -10.298 23 -23 c 0 -5.954 -2.256 -11.384 -5.969 -15.469 c -1.469 -1.475 -3.147 -2.744 -4.969 -3.781 z m 4.969 3.781 c 3.854 4.113 6.219 9.637 6.219 15.719 c 0 12.703 -10.297 23 -23 23 c -6.081 0 -11.606 -2.364 -15.719 -6.219 c 4.16 4.144 9.883 6.719 16.219 6.719 c 12.703 0 23 -10.298 23 -23 c 0 -6.335 -2.575 -12.06 -6.719 -16.219 z" style="opacity:0.05"/>
  <path d="m 41.28 8.781 c 3.712 4.085 5.969 9.514 5.969 15.469 c 0 12.703 -10.297 23 -23 23 c -5.954 0 -11.384 -2.256 -15.469 -5.969 c 4.113 3.854 9.637 6.219 15.719 6.219 c 12.703 0 23 -10.298 23 -23 c 0 -6.081 -2.364 -11.606 -6.219 -15.719 z" style="opacity:0.1"/>
  <path d="m 31.25 2.375 c 8.615 3.154 14.75 11.417 14.75 21.13 c 0 12.426 -10.07 22.5 -22.5 22.5 c -9.708 0 -17.971 -6.135 -21.12 -14.75 a 23 23 0 0 0 44.875 -7 a 23 23 0 0 0 -16 -21.875 z" style="opacity:0.2"/>
 </g>
 <g>
  <path d="m 24 1 c 12.703 0 23 10.297 23 23 c 0 12.703 -10.297 23 -23 23 -12.703 0 -23 -10.297 -23 -23 0 -12.703 10.297 -23 23 -23 z" style="fill:url(#linearGradient3764);fill-opacity:1"/>
 </g>
 <g>
  <g>
   <g transform="translate(1,1)">
    <g style="opacity:0.1">
     <!-- color: #ff8c32 -->
     <g>
      <path d="m 24.996 11.992 c -4.781 0 -8.656 4.227 -8.656 9.441 c 0 0.507 0.041 1.01 0.111 1.492 c 0 0.004 -0.002 0.008 -0.002 0.012 c 0 0.012 0.007 0.023 0.008 0.035 c 0.02 0.335 0.298 0.602 0.645 0.602 c 0.108 0 0.205 -0.031 0.295 -0.076 c 0.08 1.694 0.673 3.01 1.408 3.03 c 0.043 0.433 0.372 0.779 0.781 0.779 l 0.066 0 c 0.813 1.25 1.795 2.379 1.795 2.379 l 0 2.078 l -6.43 3.465 l 0 2.773 l 19.988 0 l 0 -2.773 l -6.428 -3.465 l 0 -2.078 c 0 0 0.979 -1.129 1.791 -2.379 l 0.037 0 c 0.409 0 0.735 -0.346 0.777 -0.779 c 0.745 -0.019 1.346 -1.375 1.412 -3.104 c 0.09 0.048 0.19 0.082 0.299 0.082 c 0.323 0 0.573 -0.234 0.623 -0.535 l 0.014 0 c 0.078 -0.5 0.117 -1.016 0.117 -1.539 c 0 -5.215 -3.875 -9.441 -8.652 -9.441 z m 0 1.4 c 3.982 0 7.217 3.454 7.35 7.77 c -0.23 -0.775 -0.593 -1.3 -1.01 -1.416 c -0.245 -1.407 -1.166 -3.918 -4.699 -3.918 l -3.244 0 c -3.53 0 -4.453 2.5 -4.699 3.908 c -0.436 0.092 -0.816 0.629 -1.053 1.434 c 0.128 -4.315 3.367 -7.777 7.355 -7.777 z" transform="translate(-1,-1)"/>
     </g>
    </g>
   </g>
  </g>
 </g>
 <g>
  <g>
   <!-- color: #ff8c32 -->
   <g>
    <path d="m 22.367 14.828 3.27 0 c 4.895 0 4.797 4.852 4.797 4.852 l 0 4.156 c 0 1.582 -2.855 4.852 -2.855 4.852 l 0 2.078 6.426 3.465 0 2.773 -19.988 0 0 -2.773 6.43 -3.465 0 -2.078 c 0 0 -2.867 -3.27 -2.852 -4.852 l 0 -4.156 c 0 0 -0.105 -4.852 4.797 -4.852 m -0.023 0" style="fill:#333;fill-opacity:1;stroke:none;fill-rule:nonzero"/>
    <path d="m 18.586 17.938 0.988 0 c 0.438 0 0.793 0.387 0.793 0.867 l 0 6.637 c 0 0.477 -0.355 0.867 -0.793 0.867 l -0.988 0 c -0.438 0 -0.797 -0.391 -0.797 -0.867 l 0 -6.637 c 0 -0.48 0.359 -0.867 0.797 -0.867 m 0 0" style="fill:#333;fill-opacity:1;stroke:none;fill-rule:nonzero"/>
    <path d="m 19.266 22.12 c 0 1.887 -0.648 3.414 -1.445 3.414 -0.797 0 -1.441 -1.527 -1.441 -3.414 0 -1.887 0.645 -3.414 1.441 -3.414 0.797 0 1.445 1.527 1.445 3.414 m 0 0" style="fill:#333;fill-opacity:1;stroke:none;fill-rule:nonzero"/>
    <path d="m 16.754 21.938 c 0 0.352 -0.293 0.637 -0.652 0.637 -0.359 0 -0.652 -0.285 -0.652 -0.637 0 -0.352 0.293 -0.637 0.652 -0.637 0.359 0 0.652 0.285 0.652 0.637 m 0 0" style="fill:#333;fill-opacity:1;stroke:none;fill-rule:nonzero"/>
    <path d="m 23.996 10.992 c -4.781 0 -8.656 4.227 -8.656 9.441 0 0.523 0.043 1.039 0.117 1.539 l 1.309 0 c -0.086 -0.496 -0.137 -1.012 -0.137 -1.539 0 -4.438 3.297 -8.04 7.367 -8.04 4.066 0 7.363 3.598 7.363 8.04 0 0.527 -0.047 1.043 -0.137 1.539 l 1.309 0 c 0.078 -0.5 0.117 -1.016 0.117 -1.539 0 -5.215 -3.875 -9.441 -8.652 -9.441 m 0 0" style="fill:#333;fill-opacity:1;stroke:none;fill-rule:nonzero"/>
    <path d="m 32.539 21.871 c 0 0.352 -0.285 0.637 -0.645 0.637 -0.355 0 -0.645 -0.285 -0.645 -0.637 0 -0.352 0.289 -0.637 0.645 -0.637 0.359 0 0.645 0.285 0.645 0.637 m 0 0" style="fill:#333;fill-opacity:1;stroke:none;fill-rule:nonzero"/>
    <path d="m 29.406 17.938 -0.988 0 c -0.441 0 -0.797 0.387 -0.797 0.867 l 0 6.637 c 0 0.477 0.355 0.867 0.797 0.867 l 0.988 0 c 0.438 0 0.793 -0.391 0.793 -0.867 l 0 -6.637 c 0 -0.48 -0.355 -0.867 -0.793 -0.867 m 0 0" style="fill:#333;fill-opacity:1;stroke:none;fill-rule:nonzero"/>
    <path d="m 28.727 22.12 c 0 1.887 0.645 3.414 1.441 3.414 0.797 0 1.441 -1.527 1.441 -3.414 0 -1.887 -0.645 -3.414 -1.441 -3.414 -0.797 0 -1.441 1.527 -1.441 3.414 m 0 0" style="fill:#333;fill-opacity:1;stroke:none;fill-rule:nonzero"/>
   </g>
  </g>
 </g>
 <g>
  <path d="m 40.03 7.531 c 3.712 4.084 5.969 9.514 5.969 15.469 0 12.703 -10.297 23 -23 23 c -5.954 0 -11.384 -2.256 -15.469 -5.969 4.178 4.291 10.01 6.969 16.469 6.969 c 12.703 0 23 -10.298 23 -23 0 -6.462 -2.677 -12.291 -6.969 -16.469 z" style="opacity:0.1"/>
 </g>
</svg>
