<svg xmlns="http://www.w3.org/2000/svg" viewBox="0 0 48 48">
 <defs>
  <linearGradient id="linearGradient3764" x1="1" x2="47" gradientUnits="userSpaceOnUse" gradientTransform="matrix(0,-1,1,0,-1.5e-6,47.999998)">
   <stop style="stop-color:#e4e4e4;stop-opacity:1"/>
   <stop offset="1" style="stop-color:#eee;stop-opacity:1"/>
  </linearGradient>
 </defs>
 <g>
  <path d="m 36.31 5 c 5.859 4.062 9.688 10.831 9.688 18.5 c 0 12.426 -10.07 22.5 -22.5 22.5 c -7.669 0 -14.438 -3.828 -18.5 -9.688 c 1.037 1.822 2.306 3.499 3.781 4.969 c 4.085 3.712 9.514 5.969 15.469 5.969 c 12.703 0 23 -10.298 23 -23 c 0 -5.954 -2.256 -11.384 -5.969 -15.469 c -1.469 -1.475 -3.147 -2.744 -4.969 -3.781 z m 4.969 3.781 c 3.854 4.113 6.219 9.637 6.219 15.719 c 0 12.703 -10.297 23 -23 23 c -6.081 0 -11.606 -2.364 -15.719 -6.219 c 4.16 4.144 9.883 6.719 16.219 6.719 c 12.703 0 23 -10.298 23 -23 c 0 -6.335 -2.575 -12.06 -6.719 -16.219 z" style="opacity:0.05"/>
  <path d="m 41.28 8.781 c 3.712 4.085 5.969 9.514 5.969 15.469 c 0 12.703 -10.297 23 -23 23 c -5.954 0 -11.384 -2.256 -15.469 -5.969 c 4.113 3.854 9.637 6.219 15.719 6.219 c 12.703 0 23 -10.298 23 -23 c 0 -6.081 -2.364 -11.606 -6.219 -15.719 z" style="opacity:0.1"/>
  <path d="m 31.25 2.375 c 8.615 3.154 14.75 11.417 14.75 21.13 c 0 12.426 -10.07 22.5 -22.5 22.5 c -9.708 0 -17.971 -6.135 -21.12 -14.75 a 23 23 0 0 0 44.875 -7 a 23 23 0 0 0 -16 -21.875 z" style="opacity:0.2"/>
 </g>
 <g>
  <path d="m 24 1 c 12.703 0 23 10.297 23 23 c 0 12.703 -10.297 23 -23 23 -12.703 0 -23 -10.297 -23 -23 0 -12.703 10.297 -23 23 -23 z" style="fill:url(#linearGradient3764);fill-opacity:1"/>
 </g>
 <g>
  <g>
   <g transform="translate(1,1)">
    <g style="opacity:0.1">
     <!-- color: #eeeeee -->
     <g>
      <path d="m 20.637 22.08 c 0 1.211 0.824 2.195 1.844 2.191 c 1.02 0 1.844 -0.98 1.844 -2.191 c 0 -1.211 -0.824 -2.188 -1.844 -2.188 c -1.02 0 -1.844 0.977 -1.844 2.188" style="fill:#000;fill-opacity:1;stroke:none;fill-rule:evenodd"/>
      <path d="m 24.03 12 c -3.961 0.004 -7.66 2.043 -9.426 5.371 c -2.539 5.625 -2.574 12.133 -2.602 18.246 c 1.934 0.172 1.816 -1.914 3.84 -1.941 c 1.926 -0.027 2.203 2.258 4.164 2.297 c 1.754 0.031 2.316 -1.977 4.102 -2.242 c 1.773 -0.016 2.328 2.285 4.164 2.27 c 1.691 -0.012 2.363 -2.289 4.047 -2.309 c 1.691 -0.016 2.145 1.961 3.664 2.078 c 0.086 -4.57 -0.172 -9.793 -1.055 -14.434 c -0.125 -0.652 -0.289 -1.289 -0.441 -1.914 c -0.215 -0.613 -0.578 -1.574 -0.969 -2.266 c -1.871 -2.945 -5.527 -5.16 -9.488 -5.156 m 6.73 5.03 c 1.57 -0.074 2.918 1.508 3.406 2.934 c 0.297 0.875 0.727 1.906 0.352 3.051 c -0.375 1.141 -0.836 2.711 -2.832 3.02 c -4.598 0.316 -5.422 -5.16 -3.137 -8.07 c 0.594 -0.754 1.492 -0.895 2.211 -0.93 m -10.246 0.121 c 1.609 -0.063 3.266 0.98 3.754 3.277 c 0.316 1.902 -0.09 4.313 -1.969 5.273 c -3.098 1.43 -5.188 -1.379 -5.27 -4.313 c -0.094 -2.68 1.66 -4.168 3.48 -4.238 m 0.004 0" style="fill:#000;fill-opacity:1;stroke:none;fill-rule:nonzero"/>
      <path d="m 30.945 22.14 c 0.004 1.211 0.828 2.191 1.848 2.191 c 1.016 0 1.84 -0.984 1.84 -2.195 c 0 -1.211 -0.824 -2.191 -1.84 -2.191 c -1.02 0 -1.844 0.98 -1.848 2.191" style="fill:#000;fill-opacity:1;stroke:none;fill-rule:evenodd"/>
     </g>
    </g>
   </g>
  </g>
 </g>
 <g>
  <g>
   <!-- color: #eeeeee -->
   <g>
    <path d="m 20.637 22.08 c 0 1.211 0.824 2.195 1.844 2.191 c 1.02 0 1.844 -0.98 1.844 -2.191 c 0 -1.211 -0.824 -2.188 -1.844 -2.188 c -1.02 0 -1.844 0.977 -1.844 2.188" style="fill:#2d2d2d;fill-opacity:1;stroke:none;fill-rule:evenodd"/>
    <path d="m 24.03 12 c -3.961 0.004 -7.66 2.043 -9.426 5.371 c -2.539 5.625 -2.574 12.133 -2.602 18.246 c 1.934 0.172 1.816 -1.914 3.84 -1.941 c 1.926 -0.027 2.203 2.258 4.164 2.297 c 1.754 0.031 2.316 -1.977 4.102 -2.242 c 1.773 -0.016 2.328 2.285 4.164 2.27 c 1.691 -0.012 2.363 -2.289 4.047 -2.309 c 1.691 -0.016 2.145 1.961 3.664 2.078 c 0.086 -4.57 -0.172 -9.793 -1.055 -14.434 c -0.125 -0.652 -0.289 -1.289 -0.441 -1.914 c -0.215 -0.613 -0.578 -1.574 -0.969 -2.266 c -1.871 -2.945 -5.527 -5.16 -9.488 -5.156 m 6.73 5.03 c 1.57 -0.074 2.918 1.508 3.406 2.934 c 0.297 0.875 0.727 1.906 0.352 3.051 c -0.375 1.141 -0.836 2.711 -2.832 3.02 c -4.598 0.316 -5.422 -5.16 -3.137 -8.07 c 0.594 -0.754 1.492 -0.895 2.211 -0.93 m -10.246 0.121 c 1.609 -0.063 3.266 0.98 3.754 3.277 c 0.316 1.902 -0.09 4.313 -1.969 5.273 c -3.098 1.43 -5.188 -1.379 -5.27 -4.313 c -0.094 -2.68 1.66 -4.168 3.48 -4.238 m 0.004 0" style="fill:#ecc13d;fill-opacity:1;stroke:none;fill-rule:nonzero"/>
    <path d="m 30.945 22.14 c 0.004 1.211 0.828 2.191 1.848 2.191 c 1.016 0 1.84 -0.984 1.84 -2.195 c 0 -1.211 -0.824 -2.191 -1.84 -2.191 c -1.02 0 -1.844 0.98 -1.848 2.191" style="fill:#2d2d2d;fill-opacity:1;stroke:none;fill-rule:evenodd"/>
   </g>
  </g>
 </g>
 <g>
  <path d="m 40.03 7.531 c 3.712 4.084 5.969 9.514 5.969 15.469 0 12.703 -10.297 23 -23 23 c -5.954 0 -11.384 -2.256 -15.469 -5.969 4.178 4.291 10.01 6.969 16.469 6.969 c 12.703 0 23 -10.298 23 -23 0 -6.462 -2.677 -12.291 -6.969 -16.469 z" style="opacity:0.1"/>
 </g>
</svg>
