<svg version="1.1" viewBox="0 0 48 48" xmlns="http://www.w3.org/2000/svg">
 <defs>
  <linearGradient id="bg" x2="0" y1="1" y2="47" gradientUnits="userSpaceOnUse">
   <stop style="stop-color:#4c4c4c" offset="0"/>
   <stop style="stop-color:#424242" offset="1"/>
  </linearGradient>
 </defs>
 <path d="m36.3 5c5.86 4.06 9.69 10.8 9.69 18.5 0 12.4-10.1 22.5-22.5 22.5-7.67 0-14.4-3.83-18.5-9.69 1.04 1.82 2.31 3.5 3.78 4.97 4.08 3.71 9.51 5.97 15.5 5.97 12.7 0 23-10.3 23-23 0-5.95-2.26-11.4-5.97-15.5-1.47-1.48-3.15-2.74-4.97-3.78zm4.97 3.78c3.85 4.11 6.22 9.64 6.22 15.7 0 12.7-10.3 23-23 23-6.08 0-11.6-2.36-15.7-6.22 4.16 4.14 9.88 6.72 16.2 6.72 12.7 0 23-10.3 23-23 0-6.34-2.58-12.1-6.72-16.2z" style="opacity:.05"/>
 <path d="m41.3 8.78c3.71 4.08 5.97 9.51 5.97 15.5 0 12.7-10.3 23-23 23-5.95 0-11.4-2.26-15.5-5.97 4.11 3.85 9.64 6.22 15.7 6.22 12.7 0 23-10.3 23-23 0-6.08-2.36-11.6-6.22-15.7z" style="opacity:.1"/>
 <path d="m31.2 2.38c8.62 3.15 14.8 11.4 14.8 21.1 0 12.4-10.1 22.5-22.5 22.5-9.71 0-18-6.14-21.1-14.8a23 23 0 0 0 44.9-7 23 23 0 0 0-16-21.9z" style="opacity:.2"/>
 <circle cx="24" cy="24" r="23" style="fill:url(#bg)"/>
 <path d="m40 7.53c3.71 4.08 5.97 9.51 5.97 15.5 0 12.7-10.3 23-23 23-5.95 0-11.4-2.26-15.5-5.97 4.18 4.29 10 6.97 16.5 6.97 12.7 0 23-10.3 23-23 0-6.46-2.68-12.3-6.97-16.5z" style="opacity:.1"/>
 <path d="m25 10-2 10.2-3.51-3.51c0.0053-0.0526 0.0092-0.105 0.0117-0.158 0-1.66-1.34-3-3-3l-3 3c0 1.66 1.34 3 3 3 0.0528-0.0025 0.106-0.0064 0.158-0.0117l3.51 3.51-10.2 2c0 1.66 1.34 3 3 3 0.852-1e-3 1.66-0.365 2.23-1h4.94l-6.67 6.5c0 1.66 1.34 3 3 3s3-1.34 3-3c-0.0018-0.0535-0.0051-0.107-0.0098-0.16l3.51-3.51-1 7.17c0 1.66 1.34 3 3 3s3-1.34 3-3c6.6e-5 -0.854-0.364-1.67-1-2.24v-4.93l3.51 3.51c-0.0053 0.0526-0.0092 0.105-0.0117 0.158 0 1.66 1.34 3 3 3s3-1.34 3-3-1.34-3-3-3c-0.0528 0.0025-0.106 0.0064-0.158 0.0117l-3.51-3.51h4.94c0.568 0.635 1.38 0.999 2.23 1 1.66 0 3-1.34 3-3s-1.34-3-3-3l-7.17 1 3.52-3.52c0.0486 9e-3 0.0975 0.0168 0.146 0.0234 1.66 0 3-1.34 3-3s-1.34-3-3-3l-6.5 6.67v-4.94c0.635-0.568 0.999-1.38 1-2.23 0-1.66-1.34-3-3-3z" style="opacity:.1"/>
 <path d="m24 9a3 3 0 0 0-3 3 3 3 0 0 0 1 2.23v4.94l-3.51-3.51a3 3 0 0 0 0.0117-0.158 3 3 0 0 0-3-3 3 3 0 0 0-3 3 3 3 0 0 0 3 3 3 3 0 0 0 0.158-0.0117l3.51 3.51h-4.93a3 3 0 0 0-2.24-1 3 3 0 0 0-3 3 3 3 0 0 0 3 3 3 3 0 0 0 2.23-1h4.94l-3.51 3.51a3 3 0 0 0-0.16-0.00977 3 3 0 0 0-3 3 3 3 0 0 0 3 3 3 3 0 0 0 3-3 3 3 0 0 0-0.0098-0.16l3.51-3.51v4.94a3 3 0 0 0-1 2.23 3 3 0 0 0 3 3 3 3 0 0 0 3-3 3 3 0 0 0-1-2.24v-4.93l3.51 3.51a3 3 0 0 0-0.0117 0.158 3 3 0 0 0 3 3 3 3 0 0 0 3-3 3 3 0 0 0-3-3 3 3 0 0 0-0.158 0.0117l-3.51-3.51h4.94a3 3 0 0 0 2.23 1 3 3 0 0 0 3-3 3 3 0 0 0-3-3 3 3 0 0 0-2.23 1h-4.94l3.52-3.52a3 3 0 0 0 0.146 0.0234 3 3 0 0 0 3-3 3 3 0 0 0-3-3 3 3 0 0 0-3 3 3 3 0 0 0 0.0234 0.146l-3.52 3.52v-4.94a3 3 0 0 0 1-2.23 3 3 0 0 0-3-3z" style="fill:#f5af45"/>
</svg>
