<svg xmlns="http://www.w3.org/2000/svg" viewBox="0 0 48 48">
 <defs>
  <linearGradient id="linearGradient3764" x1="1" x2="47" gradientUnits="userSpaceOnUse" gradientTransform="matrix(0,-1,1,0,-1.5e-6,47.999998)">
   <stop style="stop-color:#d1d1d1;stop-opacity:1"/>
   <stop offset="1" style="stop-color:#dbdbdb;stop-opacity:1"/>
  </linearGradient>
 </defs>
 <g>
  <path d="m 36.31 5 c 5.859 4.062 9.688 10.831 9.688 18.5 c 0 12.426 -10.07 22.5 -22.5 22.5 c -7.669 0 -14.438 -3.828 -18.5 -9.688 c 1.037 1.822 2.306 3.499 3.781 4.969 c 4.085 3.712 9.514 5.969 15.469 5.969 c 12.703 0 23 -10.298 23 -23 c 0 -5.954 -2.256 -11.384 -5.969 -15.469 c -1.469 -1.475 -3.147 -2.744 -4.969 -3.781 z m 4.969 3.781 c 3.854 4.113 6.219 9.637 6.219 15.719 c 0 12.703 -10.297 23 -23 23 c -6.081 0 -11.606 -2.364 -15.719 -6.219 c 4.16 4.144 9.883 6.719 16.219 6.719 c 12.703 0 23 -10.298 23 -23 c 0 -6.335 -2.575 -12.06 -6.719 -16.219 z" style="opacity:0.05"/>
  <path d="m 41.28 8.781 c 3.712 4.085 5.969 9.514 5.969 15.469 c 0 12.703 -10.297 23 -23 23 c -5.954 0 -11.384 -2.256 -15.469 -5.969 c 4.113 3.854 9.637 6.219 15.719 6.219 c 12.703 0 23 -10.298 23 -23 c 0 -6.081 -2.364 -11.606 -6.219 -15.719 z" style="opacity:0.1"/>
  <path d="m 31.25 2.375 c 8.615 3.154 14.75 11.417 14.75 21.13 c 0 12.426 -10.07 22.5 -22.5 22.5 c -9.708 0 -17.971 -6.135 -21.12 -14.75 a 23 23 0 0 0 44.875 -7 a 23 23 0 0 0 -16 -21.875 z" style="opacity:0.2"/>
 </g>
 <g>
  <path d="m 24 1 c 12.703 0 23 10.297 23 23 c 0 12.703 -10.297 23 -23 23 -12.703 0 -23 -10.297 -23 -23 0 -12.703 10.297 -23 23 -23 z" style="fill:url(#linearGradient3764);fill-opacity:1"/>
 </g>
 <g>
  <g>
   <g transform="translate(1,1)">
    <g style="opacity:0.1">
     <!-- color: #dbdbdb -->
     <g>
      <path d="m 30.922 18 l 0 1.398 l -0.77 0 l 0 -1.398 m 0.77 0" style="fill:#000;fill-opacity:1;stroke:none;fill-rule:nonzero"/>
     </g>
    </g>
   </g>
  </g>
 </g>
 <g>
  <g>
   <!-- color: #dbdbdb -->
  </g>
 </g>
 <g>
  <path d="m 40.03 7.531 c 3.712 4.084 5.969 9.514 5.969 15.469 0 12.703 -10.297 23 -23 23 c -5.954 0 -11.384 -2.256 -15.469 -5.969 4.178 4.291 10.01 6.969 16.469 6.969 c 12.703 0 23 -10.298 23 -23 0 -6.462 -2.677 -12.291 -6.969 -16.469 z" style="opacity:0.1"/>
 </g>
 <path d="m 13 13 c -0.554 0 -1 0.446 -1 1 l 0 18 c 0 0.554 0.446 1 1 1 l 9 0 0 2 -5 0 0 2 16 0 0 -2 -5 0 0 -2 9 0 c 0.554 0 1 -0.446 1 -1 l 0 -18 c 0 -0.554 -0.446 -1 -1 -1 l -24 0 z m 1.5 2 21 0 c 0.277 0 0.5 0.223 0.5 0.5 l 0 15 c 0 0.277 -0.223 0.5 -0.5 0.5 l -21 0 c -0.277 0 -0.5 -0.223 -0.5 -0.5 l 0 -15 c 0 -0.277 0.223 -0.5 0.5 -0.5 m 9.5 1 0 9.09 c -1.197 0.212 -2 0.777 -2 1.412 0 0.635 0.803 1.2 2 1.412 l 0 2.088 l 2 0 0 -2.088 c 1.197 -0.212 2 -0.777 2 -1.412 0 -0.635 -0.803 -1.2 -2 -1.412 l 0 -9.09 -2 0 m -6 1 0 2.088 c -1.197 0.212 -2 0.777 -2 1.412 0 0.635 0.803 1.2 2 1.412 l 0 7.088 l 2 0 0 -7.088 c 1.197 -0.212 2 -0.777 2 -1.412 0 -0.635 -0.803 -1.2 -2 -1.412 l 0 -2.088 -2 0 m 12 0 0 2.088 c -1.197 0.212 -2 0.777 -2 1.412 0 0.635 0.803 1.2 2 1.412 l 0 7.088 l 2 0 0 -7.088 c 1.197 -0.212 2 -0.777 2 -1.412 0 -0.635 -0.803 -1.2 -2 -1.412 l 0 -2.088 -2 0 m -15 2 0 1 0.615 0 c 0.088 -0.205 0.218 -0.39 0.385 -0.551 l 0 -0.449 -1 0 m 6.27 0 c 0.169 0.065 0.334 0.133 0.467 0.227 0.068 0.048 0.127 0.106 0.189 0.16 l 0 -0.387 -0.656 0 z m 1.73 0 l 0 1 0.5 0 0 -1 -0.5 0 z m 4 0 0 1 0.615 0 c 0.088 -0.205 0.218 -0.39 0.385 -0.551 l 0 -0.449 -1 0 m 7 0 0 0.449 c 0.167 0.16 0.297 0.346 0.385 0.551 l 0.615 0 l 0 -1 -1 0 z m -19 3 0 1 2 0 0 -0.9 c -0.095 -0.03 -0.182 -0.065 -0.271 -0.1 l -1.729 0 m 7 0 0 1 1 0 0 -1 -1 0 z m 4.5 0 0 1 0.5 0 0 -1 -0.5 0 z m 1.5 0 0 1 1 0 0 -0.9 c -0.095 -0.03 -0.182 -0.065 -0.271 -0.1 l -0.729 0 m 6 0 0 1 1 0 0 -1 -1 0 z m -1 0.1 c -0.164 0.051 -0.33 0.101 -0.5 0.146 l 0 0.754 0.5 0 0 -0.9 m -12.07 0.021 c -0.141 0.042 -0.281 0.086 -0.426 0.125 l 0 0.754 0.426 0 0 -0.879 z m -5.926 2.879 l 0 1 1 0 0 -1 -1 0 z m 2 0 0 1 0.5 0 0 -1 -0.5 0 z m 3.5 0 0 1 1.115 0 c 0.131 -0.306 0.362 -0.572 0.648 -0.773 c 0.133 -0.094 0.298 -0.161 0.467 -0.227 l -2.23 0 m 6.77 0 c 0.169 0.065 0.334 0.133 0.467 0.227 0.286 0.202 0.518 0.467 0.648 0.773 l 0.615 0 0 -1 -1.73 0 m 5.23 0 l 0 1 0.5 0 0 -1 -0.5 0 z m 1.5 0 0 1 1 0 0 -1 -1 0 z" style="fill:#000;opacity:0.1;fill-opacity:1;stroke:none"/>
 <path d="m 12 12 c -0.554 0 -1 0.446 -1 1 l 0 18 c 0 0.554 0.446 1 1 1 l 9 0 l 0 2 l -5 0 l 0 2 l 16 0 l 0 -2 l -5 0 l 0 -2 l 9 0 c 0.554 0 1 -0.446 1 -1 l 0 -18 c 0 -0.554 -0.446 -1 -1 -1 l -24 0 z m 1.5 2 l 21 0 c 0.277 0 0.5 0.223 0.5 0.5 l 0 15 c 0 0.277 -0.223 0.5 -0.5 0.5 l -21 0 c -0.277 0 -0.5 -0.223 -0.5 -0.5 l 0 -15 c 0 -0.277 0.223 -0.5 0.5 -0.5 z" style="fill:#2d2d2d;opacity:1;fill-opacity:1;stroke:none"/>
 <path d="m 14 18 l 0 1 l 0.615 0 c 0.088 -0.205 0.218 -0.39 0.385 -0.551 l 0 -0.449 l -1 0 z m 6.27 0 c 0.169 0.065 0.334 0.133 0.467 0.227 c 0.068 0.048 0.127 0.106 0.189 0.16 l 0 -0.387 l -0.656 0 z m 1.73 0 l 0 1 l 0.5 0 l 0 -1 l -0.5 0 z m 4 0 l 0 1 l 0.615 0 c 0.088 -0.205 0.218 -0.39 0.385 -0.551 l 0 -0.449 l -1 0 z m 7 0 l 0 0.449 c 0.167 0.16 0.297 0.346 0.385 0.551 l 0.615 0 l 0 -1 l -1 0 z m -19 3 l 0 1 l 2 0 l 0 -0.9 c -0.095 -0.03 -0.182 -0.065 -0.271 -0.1 l -1.729 0 z m 7 0 l 0 1 l 1 0 l 0 -1 l -1 0 z m 4.5 0 l 0 1 l 0.5 0 l 0 -1 l -0.5 0 z m 1.5 0 l 0 1 l 1 0 l 0 -0.9 c -0.095 -0.03 -0.182 -0.065 -0.271 -0.1 l -0.729 0 z m 6 0 l 0 1 l 1 0 l 0 -1 l -1 0 z m -1 0.1 c -0.164 0.051 -0.33 0.101 -0.5 0.146 l 0 0.754 l 0.5 0 l 0 -0.9 z m -12.07 0.021 c -0.141 0.042 -0.281 0.086 -0.426 0.125 l 0 0.754 l 0.426 0 l 0 -0.879 z m -5.926 2.879 l 0 1 l 1 0 l 0 -1 l -1 0 z m 2 0 l 0 1 l 0.5 0 l 0 -1 l -0.5 0 z m 3.5 0 l 0 1 l 1.115 0 c 0.131 -0.306 0.362 -0.572 0.648 -0.773 c 0.133 -0.094 0.298 -0.161 0.467 -0.227 l -2.23 0 z m 6.77 0 c 0.169 0.065 0.334 0.133 0.467 0.227 c 0.286 0.202 0.518 0.467 0.648 0.773 l 0.615 0 l 0 -1 l -1.73 0 z m 5.23 0 l 0 1 l 0.5 0 l 0 -1 l -0.5 0 z m 1.5 0 l 0 1 l 1 0 l 0 -1 l -1 0 z" style="fill:#d04536;opacity:1;fill-opacity:1;stroke:none"/>
 <path d="m 23 15 0 9.09 c -1.197 0.212 -2 0.777 -2 1.412 0 0.635 0.803 1.2 2 1.412 l 0 2.088 l 2 0 0 -2.088 c 1.197 -0.212 2 -0.777 2 -1.412 0 -0.635 -0.803 -1.2 -2 -1.412 l 0 -9.09 m -8 1 0 2.088 c -1.197 0.212 -2 0.777 -2 1.412 0 0.635 0.803 1.2 2 1.412 l 0 7.088 l 2 0 0 -7.088 c 1.197 -0.212 2 -0.777 2 -1.412 0 -0.635 -0.803 -1.2 -2 -1.412 l 0 -2.088 m 10 0 0 2.088 c -1.197 0.212 -2 0.777 -2 1.412 0 0.635 0.803 1.2 2 1.412 l 0 7.088 l 2 0 0 -7.088 c 1.197 -0.212 2 -0.777 2 -1.412 0 -0.635 -0.803 -1.2 -2 -1.412 l 0 -2.088" style="fill:#2d2d2d;opacity:1;fill-opacity:1;stroke:none"/>
</svg>
