<?xml version="1.0" encoding="UTF-8"?>
<svg version="1.1" viewBox="0 0 48 48" xmlns="http://www.w3.org/2000/svg">
 <defs>
  <linearGradient id="linearGradient3764" x1="1" x2="47" gradientTransform="rotate(-90 24 24)" gradientUnits="userSpaceOnUse">
   <stop style="stop-color:#5a666c" offset="0"/>
   <stop style="stop-color:#647178" offset="1"/>
  </linearGradient>
 </defs>
 <path d="m36.3 5c5.86 4.06 9.69 10.8 9.69 18.5 0 12.4-10.1 22.5-22.5 22.5-7.67 0-14.4-3.83-18.5-9.69 1.04 1.82 2.31 3.5 3.78 4.97 4.08 3.71 9.51 5.97 15.5 5.97 12.7 0 23-10.3 23-23 0-5.95-2.26-11.4-5.97-15.5-1.47-1.48-3.15-2.74-4.97-3.78zm4.97 3.78c3.85 4.11 6.22 9.64 6.22 15.7 0 12.7-10.3 23-23 23-6.08 0-11.6-2.36-15.7-6.22 4.16 4.14 9.88 6.72 16.2 6.72 12.7 0 23-10.3 23-23 0-6.34-2.58-12.1-6.72-16.2z" style="opacity:.05"/>
 <path d="m41.3 8.78c3.71 4.08 5.97 9.51 5.97 15.5 0 12.7-10.3 23-23 23-5.95 0-11.4-2.26-15.5-5.97 4.11 3.85 9.64 6.22 15.7 6.22 12.7 0 23-10.3 23-23 0-6.08-2.36-11.6-6.22-15.7z" style="opacity:.1"/>
 <path d="m31.2 2.38c8.62 3.15 14.8 11.4 14.8 21.1 0 12.4-10.1 22.5-22.5 22.5-9.71 0-18-6.14-21.1-14.8a23 23 0 0 0 44.9-7 23 23 0 0 0-16-21.9z" style="opacity:.2"/>
 <path d="m24 1c12.7 0 23 10.3 23 23s-10.3 23-23 23-23-10.3-23-23 10.3-23 23-23z" style="fill:url(#linearGradient3764)"/>
 <path d="m40 7.53c3.71 4.08 5.97 9.51 5.97 15.5 0 12.7-10.3 23-23 23-5.95 0-11.4-2.26-15.5-5.97 4.18 4.29 10 6.97 16.5 6.97 12.7 0 23-10.3 23-23 0-6.46-2.68-12.3-6.97-16.5z" style="opacity:.1"/>
 <path d="m25 10c-8.28 0-15 6.72-15 15s6.72 15 15 15 15-6.72 15-15-6.72-15-15-15m0 2c7.18-2e-3 13 5.82 13 13s-5.82 13-13 13c-6.03-4e-3 -11.3-4.16-12.6-10l4.64-6.96h-4.36c1.73-5.36 6.72-9 12.4-9" style="opacity:.1"/>
 <path d="m9 24c0 8.28 6.72 15 15 15 0.5-0.625 0.5-1.29 0-2-7.18 0-13-5.82-13-13z" style="fill:#6c78a2"/>
 <path d="m24 9c-9.02 0.0114-15 7.56-15 14.9-0.00134 0.0189-0.00264 0.0378-0.00391 0.0566h0.00195c0.00359 1.75 0.314 3.49 0.916 5.13l6.08-9.13h-4.36c1.73-5.36 6.73-9 12.4-9 7.18 0 13 5.82 13 13s-5.82 13-13 13v2c8.28 0 15-6.72 15-15s-6.72-15-15-15z" style="fill:#9bafee"/>
</svg>
