<svg version="1.1" viewBox="0 0 48 48" xmlns="http://www.w3.org/2000/svg">
 <defs>
  <linearGradient id="bg" x1="1" x2="47" gradientTransform="rotate(-90 24 24)" gradientUnits="userSpaceOnUse">
   <stop style="stop-color:#16426f" offset="0"/>
   <stop style="stop-color:#194c80" offset="1"/>
  </linearGradient>
 </defs>
 <path d="m36.3 5c5.86 4.06 9.69 10.8 9.69 18.5 0 12.4-10.1 22.5-22.5 22.5-7.67 0-14.4-3.83-18.5-9.69 1.04 1.82 2.31 3.5 3.78 4.97 4.08 3.71 9.51 5.97 15.5 5.97 12.7 0 23-10.3 23-23 0-5.95-2.26-11.4-5.97-15.5-1.47-1.48-3.15-2.74-4.97-3.78zm4.97 3.78c3.85 4.11 6.22 9.64 6.22 15.7 0 12.7-10.3 23-23 23-6.08 0-11.6-2.36-15.7-6.22 4.16 4.14 9.88 6.72 16.2 6.72 12.7 0 23-10.3 23-23 0-6.34-2.58-12.1-6.72-16.2z" style="opacity:.05"/>
 <path d="m41.3 8.78c3.71 4.08 5.97 9.51 5.97 15.5 0 12.7-10.3 23-23 23-5.95 0-11.4-2.26-15.5-5.97 4.11 3.85 9.64 6.22 15.7 6.22 12.7 0 23-10.3 23-23 0-6.08-2.36-11.6-6.22-15.7z" style="opacity:.1"/>
 <path d="m31.2 2.38c8.62 3.15 14.8 11.4 14.8 21.1 0 12.4-10.1 22.5-22.5 22.5-9.71 0-18-6.14-21.1-14.8a23 23 0 0 0 44.9-7 23 23 0 0 0-16-21.9z" style="opacity:.2"/>
 <path d="m24 1c12.7 0 23 10.3 23 23s-10.3 23-23 23-23-10.3-23-23 10.3-23 23-23z" style="fill:url(#bg)"/>
 <path d="m25 13c-0.648 0-1.3 0.115-1.79 0.344l-10.5 4.83c-0.993 0.458-0.993 1.2 0 1.66l10.5 4.83c0.993 0.458 2.59 0.458 3.59 0l10.5-4.83c0.993-0.458 0.993-1.2 0-1.66l-10.5-4.83c-0.497-0.229-1.14-0.344-1.79-0.344zm-8.63 9.5-3.62 1.67c-0.993 0.458-0.993 1.2 0 1.66l10.5 4.83c0.993 0.458 2.59 0.458 3.59 0l10.5-4.83c0.993-0.458 0.993-1.2 0-1.66l-3.62-1.67-6.84 3.16c-0.993 0.458-2.59 0.458-3.59 0l-6.84-3.16zm0 6-3.62 1.67c-0.993 0.458-0.993 1.2 0 1.66l10.5 4.83c0.993 0.458 2.59 0.458 3.59 0l10.5-4.83c0.993-0.458 0.993-1.2 0-1.66l-3.62-1.67-6.84 3.16c-0.993 0.458-2.59 0.458-3.59 0l-6.84-3.16z" style="opacity:.1"/>
 <path d="m40 7.53c3.71 4.08 5.97 9.51 5.97 15.5 0 12.7-10.3 23-23 23-5.95 0-11.4-2.26-15.5-5.97 4.18 4.29 10 6.97 16.5 6.97 12.7 0 23-10.3 23-23 0-6.46-2.68-12.3-6.97-16.5z" style="opacity:.1"/>
 <path d="m15.4 27.5-3.62 1.67c-0.993 0.458-0.993 1.2 0 1.66l10.5 4.83c0.993 0.458 2.59 0.458 3.59 0l10.5-4.83c0.993-0.458 0.993-1.2 0-1.66l-3.62-1.67-6.84 3.16c-0.993 0.458-2.59 0.458-3.59 0z" style="fill:#ed6e59"/>
 <path d="m15.4 21.5-3.62 1.67c-0.993 0.458-0.993 1.2 0 1.66l10.5 4.83c0.993 0.459 2.59 0.459 3.59 0l10.5-4.83c0.993-0.458 0.993-1.2 0-1.66l-3.62-1.67-6.84 3.16c-0.993 0.459-2.59 0.459-3.59 0l-6.84-3.16z" style="fill:#acd34b"/>
 <rect transform="matrix(.908 -.419 .908 .419 0 0)" x="-16" y="27" width="15.5" height="15.5" ry="1.97" style="fill:#59b1d9"/>
</svg>
