<svg version="1.1" viewBox="0 0 48 48" xmlns="http://www.w3.org/2000/svg">
 <defs>
  <linearGradient id="bg" x1="1" x2="47" gradientTransform="matrix(0 -1 1 0 -1.5e-6 48)" gradientUnits="userSpaceOnUse">
   <stop style="stop-color:#9ca8b6" offset="0"/>
   <stop style="stop-color:#a7b2bf" offset="1"/>
  </linearGradient>
 </defs>
 <path d="m36.31 5c5.859 4.062 9.688 10.831 9.688 18.5 0 12.426-10.07 22.5-22.5 22.5-7.669 0-14.438-3.828-18.5-9.688 1.037 1.822 2.306 3.499 3.781 4.969 4.085 3.712 9.514 5.969 15.469 5.969 12.703 0 23-10.298 23-23 0-5.954-2.256-11.384-5.969-15.469-1.469-1.475-3.147-2.744-4.969-3.781zm4.969 3.781c3.854 4.113 6.219 9.637 6.219 15.719 0 12.703-10.297 23-23 23-6.081 0-11.606-2.364-15.719-6.219 4.16 4.144 9.883 6.719 16.219 6.719 12.703 0 23-10.298 23-23 0-6.335-2.575-12.06-6.719-16.219z" style="opacity:.05"/>
 <path d="m41.28 8.781c3.712 4.085 5.969 9.514 5.969 15.469 0 12.703-10.297 23-23 23-5.954 0-11.384-2.256-15.469-5.969 4.113 3.854 9.637 6.219 15.719 6.219 12.703 0 23-10.298 23-23 0-6.081-2.364-11.606-6.219-15.719z" style="opacity:.1"/>
 <path d="m31.25 2.375c8.615 3.154 14.75 11.417 14.75 21.13 0 12.426-10.07 22.5-22.5 22.5-9.708 0-17.971-6.135-21.12-14.75a23 23 0 0 0 44.875-7 23 23 0 0 0-16-21.875z" style="opacity:.2"/>
 <path d="m24 1c12.703 0 23 10.297 23 23s-10.297 23-23 23-23-10.297-23-23 10.297-23 23-23z" style="fill:url(#bg)"/>
 <path d="m35.004 15.008-12.844 0.064454c-0.75409 3.9457-2.2226 12.611-2.5586 13.498-0.398-1.891-1.7635-5.5976-1.9785-6.1016-0.219 0.105-2.4002 0.99206-2.6152 1.1641 0.063001 0.211 0.25245 1.0213 0.31445 1.1973l0.79688-0.33203 3.5039 10.506 3.7168-18h11.664v-1.9961zm-7.1562 7.1719-2.6367 0.86328v0.67188l1.75 0.13672c0.367 0.531 0.79266 1.7105 1.3477 3.5195-0.672 1.375-1.461 2.3592-2.25 2.9062l-0.82422-1.0391c-0.77 0.195-1.2285 0.76748-1.2285 1.3965 0 0.688 0.61533 1.2754 1.3613 1.2754 1.094 0 2.1172-1.1795 3.3672-3.5195 0.539 2.516 1.1127 3.6133 2.5977 3.6133 0.594 0 1.4222-0.19888 2.5352-0.54688v-0.76562c-0.387 0.098-0.72969 0.13672-1.0547 0.13672-1.289 0-1.5592-1.2965-2.3672-4.1445 0.672-1.438 1.4018-2.3202 2.1328-2.6562l0.75 1.043c0.793-0.238 1.2305-0.80519 1.2305-1.4922 0-0.727-0.49994-1.2578-1.2109-1.2578-1.094 0-2.1718 1.1409-3.3438 3.3789-0.598-2.398-0.94544-3.5156-2.0234-3.5156h-0.13281v-0.003906z" style="opacity:.1"/>
 <path d="m34.004 14.008-12.844 0.064454c-0.75409 3.9457-2.2226 12.611-2.5586 13.498-0.398-1.891-1.7635-5.5976-1.9785-6.1016-0.219 0.105-2.4002 0.99206-2.6152 1.1641 0.063001 0.211 0.25245 1.0213 0.31445 1.1973l0.79688-0.33203 3.5039 10.506 3.7168-18h11.664v-1.9961zm-7.1562 7.1719-2.6367 0.86328v0.67188l1.75 0.13672c0.367 0.531 0.79266 1.7105 1.3477 3.5195-0.672 1.375-1.461 2.3592-2.25 2.9062l-0.82422-1.0391c-0.77 0.195-1.2285 0.76748-1.2285 1.3965 0 0.688 0.61533 1.2754 1.3613 1.2754 1.094 0 2.1172-1.1795 3.3672-3.5195 0.539 2.516 1.1127 3.6133 2.5977 3.6133 0.594 0 1.4222-0.19888 2.5352-0.54688v-0.76562c-0.387 0.098-0.72969 0.13672-1.0547 0.13672-1.289 0-1.5592-1.2965-2.3672-4.1445 0.672-1.438 1.4018-2.3202 2.1328-2.6562l0.75 1.043c0.793-0.238 1.2305-0.80519 1.2305-1.4922 0-0.727-0.49994-1.2578-1.2109-1.2578-1.094 0-2.1718 1.1409-3.3438 3.3789-0.598-2.398-0.94544-3.5156-2.0234-3.5156h-0.13281v-0.003906z" style="fill:#f9f9f9"/>
 <path d="m40.03 7.531c3.712 4.084 5.969 9.514 5.969 15.469 0 12.703-10.297 23-23 23-5.954 0-11.384-2.256-15.469-5.969 4.178 4.291 10.01 6.969 16.469 6.969 12.703 0 23-10.298 23-23 0-6.462-2.677-12.291-6.969-16.469z" style="opacity:.1"/>
</svg>
