<svg xmlns="http://www.w3.org/2000/svg" viewBox="0 0 48 48">
 <defs>
  <linearGradient id="linearGradient3834" x1="1" x2="47" gradientUnits="userSpaceOnUse" gradientTransform="matrix(0,-1,1,0,0,48)">
   <stop style="stop-color:#812d83;stop-opacity:1"/>
   <stop offset="1" style="stop-color:#903292;stop-opacity:1"/>
  </linearGradient>
 </defs>
 <g>
  <path d="m 36.31 5 c 5.859 4.062 9.688 10.831 9.688 18.5 c 0 12.426 -10.07 22.5 -22.5 22.5 c -7.669 0 -14.438 -3.828 -18.5 -9.688 c 1.037 1.822 2.306 3.499 3.781 4.969 c 4.085 3.712 9.514 5.969 15.469 5.969 c 12.703 0 23 -10.298 23 -23 c 0 -5.954 -2.256 -11.384 -5.969 -15.469 c -1.469 -1.475 -3.147 -2.744 -4.969 -3.781 z m 4.969 3.781 c 3.854 4.113 6.219 9.637 6.219 15.719 c 0 12.703 -10.297 23 -23 23 c -6.081 0 -11.606 -2.364 -15.719 -6.219 c 4.16 4.144 9.883 6.719 16.219 6.719 c 12.703 0 23 -10.298 23 -23 c 0 -6.335 -2.575 -12.06 -6.719 -16.219 z" style="opacity:0.05"/>
  <path d="m 41.28 8.781 c 3.712 4.085 5.969 9.514 5.969 15.469 c 0 12.703 -10.297 23 -23 23 c -5.954 0 -11.384 -2.256 -15.469 -5.969 c 4.113 3.854 9.637 6.219 15.719 6.219 c 12.703 0 23 -10.298 23 -23 c 0 -6.081 -2.364 -11.606 -6.219 -15.719 z" style="opacity:0.1"/>
  <path d="m 31.25 2.375 c 8.615 3.154 14.75 11.417 14.75 21.13 c 0 12.426 -10.07 22.5 -22.5 22.5 c -9.708 0 -17.971 -6.135 -21.12 -14.75 a 23 23 0 0 0 44.875 -7 a 23 23 0 0 0 -16 -21.875 z" style="opacity:0.2"/>
 </g>
 <path d="M 1,24 C 1,11.297 11.297,1 24,1 36.703,1 47,11.297 47,24 47,36.703 36.703,47 24,47 11.297,47 1,36.703 1,24 z" style="fill:url(#linearGradient3834);fill-opacity:1"/>
 <g>
  <g>
   <g transform="translate(1,1)">
    <g style="opacity:0.1">
     <!-- color: #474747 -->
    </g>
   </g>
  </g>
 </g>
 <g style="fill:#fed7ff;fill-opacity:1">
  <g>
   <!-- color: #474747 -->
   <g>
    <path d="m 36 12 -19 4.301 0 13.719 c -0.801 0.045 -1.636 0.271 -2.42 0.715 -2.249 1.277 -3.209 3.776 -2.148 5.578 1.06 1.802 3.745 2.228 5.994 0.951 1.741 -0.988 2.544 -2.763 2.547 -4.264 l 0.027 -13.5 11 -2.422 0 11.496 c -0.803 0.044 -1.638 0.268 -2.422 0.713 -2.247 1.277 -3.205 3.776 -2.146 5.578 1.064 1.802 3.743 2.228 5.99 0.951 c 1.573 -0.895 2.578 -2.416 2.555 -3.816 c -0.028 -1.643 0.023 -20 0.023 -20 z" style="fill:#000;opacity:0.1;stroke:none;fill-rule:nonzero"/>
    <path d="m 35 11 -19 4.301 0 16.699 4 0 0 -13.5 11 -2.422 0 14.922 l 4 0 z" style="stroke:none;fill-rule:nonzero"/>
    <path d="m 16.184 29 c -0.856 0.017 -1.76 0.257 -2.604 0.734 -2.249 1.277 -3.209 3.776 -2.148 5.578 1.06 1.802 3.745 2.227 5.994 0.951 2.25 -1.277 3.201 -3.772 2.141 -5.574 -0.663 -1.129 -1.956 -1.718 -3.383 -1.689 z" style="stroke:none;fill-rule:nonzero"/>
    <path d="m 31.18 27.553 c -0.857 0.016 -1.761 0.254 -2.604 0.733 -2.247 1.278 -3.206 3.777 -2.147 5.579 1.064 1.802 3.744 2.228 5.991 0.951 2.247 -1.278 3.206 -3.773 2.147 -5.575 -0.662 -1.126 -1.959 -1.715 -3.387 -1.688 z" style="stroke:none;fill-rule:nonzero"/>
   </g>
  </g>
 </g>
 <g>
  <path d="m 40.03 7.531 c 3.712 4.084 5.969 9.514 5.969 15.469 0 12.703 -10.297 23 -23 23 c -5.954 0 -11.384 -2.256 -15.469 -5.969 4.178 4.291 10.01 6.969 16.469 6.969 c 12.703 0 23 -10.298 23 -23 0 -6.462 -2.677 -12.291 -6.969 -16.469 z" style="opacity:0.1"/>
 </g>
</svg>
