<svg version="1.1" viewBox="0 0 48 48" xmlns="http://www.w3.org/2000/svg">
 <defs>
  <linearGradient id="bg" x1="1" x2="47" gradientTransform="matrix(0 -1 1 0 -1.5e-6 48)" gradientUnits="userSpaceOnUse">
   <stop style="stop-color:#dfeff7" offset="0"/>
   <stop style="stop-color:#eff7fb" offset="1"/>
  </linearGradient>
 </defs>
 <path d="m36.31 5c5.859 4.062 9.688 10.831 9.688 18.5 0 12.426-10.07 22.5-22.5 22.5-7.669 0-14.438-3.828-18.5-9.688 1.037 1.822 2.306 3.499 3.781 4.969 4.085 3.712 9.514 5.969 15.469 5.969 12.703 0 23-10.298 23-23 0-5.954-2.256-11.384-5.969-15.469-1.469-1.475-3.147-2.744-4.969-3.781zm4.969 3.781c3.854 4.113 6.219 9.637 6.219 15.719 0 12.703-10.297 23-23 23-6.081 0-11.606-2.364-15.719-6.219 4.16 4.144 9.883 6.719 16.219 6.719 12.703 0 23-10.298 23-23 0-6.335-2.575-12.06-6.719-16.219z" style="opacity:.05"/>
 <path d="m41.28 8.781c3.712 4.085 5.969 9.514 5.969 15.469 0 12.703-10.297 23-23 23-5.954 0-11.384-2.256-15.469-5.969 4.113 3.854 9.637 6.219 15.719 6.219 12.703 0 23-10.298 23-23 0-6.081-2.364-11.606-6.219-15.719z" style="opacity:.1"/>
 <path d="m31.25 2.375c8.615 3.154 14.75 11.417 14.75 21.13 0 12.426-10.07 22.5-22.5 22.5-9.708 0-17.971-6.135-21.12-14.75a23 23 0 0 0 44.875-7 23 23 0 0 0-16-21.875z" style="opacity:.2"/>
 <path d="m24 1c12.703 0 23 10.297 23 23s-10.297 23-23 23-23-10.297-23-23 10.297-23 23-23z" style="fill:url(#bg)"/>
 <path d="m40.03 7.531c3.712 4.084 5.969 9.514 5.969 15.469 0 12.703-10.297 23-23 23-5.954 0-11.384-2.256-15.469-5.969 4.178 4.291 10.01 6.969 16.469 6.969 12.703 0 23-10.298 23-23 0-6.462-2.677-12.291-6.969-16.469z" style="opacity:.1"/>
 <g transform="matrix(3.5433 0 0 3.5433 1.4797 1.3814)" style="opacity:.1">
  <g transform="matrix(.92857 0 0 .92857 .47388 .43137)">
   <path transform="matrix(.30393 0 0 .30393 -.95999 -.88384)" d="m28.469 14.785-13.602 15.626c-0.98067 0.13988-1.6567 0.5881-1.656 1.098 0.0012 0.44155 0.51183 0.84312 1.311 1.031-0.018 0.237 0.099 0.466 0.4 0.68 1.387 0.984 2.234 1.532 2.826 1.842 1.633 1.08 3.59 1.079 5.283 0.725 2.273-0.475 4.484-1.224 6.074-2.375 0.586-0.253 1.091-0.56 1.486-0.924 0.412-0.18 0.597-0.264 0.947-0.416 1.209-0.524 2.992-1.379 4.473-2.102 1.48-0.723 2.988-0.654 2.988-0.654s-2.023-2.221-3.385-2.697c-0.962-0.336-3.057 0-3.057 0s1.666-1.37 2.613-1.871c1.129-0.597 3.6-1.32 3.6-1.32s-1.919-1.582-3.209-1.984c-2.235-0.697-3.144-0.336-3.465-0.105 0.224-0.217 1.253-1.202 1.975-1.602 1.187-0.657 3.857-1.295 3.857-1.295s-4.511-3.535-9.461-3.654z" style="fill-rule:evenodd"/>
  </g>
 </g>
 <path d="m26.936 13.783c-0.53315 0.01437-1.0686 0.072653-1.6035 0.17969-2.1748 0.43431-6.883 2.9051-9.127 5.7051-0.18679 0.23282-0.29236 0.36899-0.41797 0.5293-1.862 0.11234-3.0668-0.31361-3.5762 0.042968-0.65636 0.46085 0.35467 3.0804 1.2285 4.6523-0.077091 0.32313-0.11087 0.67268-0.087891 1.0547 0.079885 1.3332 0.25679 2.4795 0.50586 3.4668a2.282 1.141 0 0 0-1.6465 1.0957 2.282 1.141 0 0 0 1.3066 1.0273c-0.018567 0.23789 0.10396 0.46707 0.40625 0.68164 1.3392 0.95009 2.1907 1.5099 2.7812 1.8262 1.6413 1.1075 3.6187 1.1017 5.3262 0.74414 2.2838-0.47834 4.5117-1.2278 6.1035-2.3867 0.58613-0.25528 1.0953-0.5623 1.4883-0.92969 0.39641-0.17357 0.57626-0.25568 0.91406-0.40234 1.2075-0.52643 2.9901-1.3777 4.4707-2.1016 1.4806-0.72385 2.9883-0.6543 2.9883-0.6543s-2.0246-2.2221-3.3867-2.6992c-0.96074-0.3356-3.0566 0-3.0566 0s1.6696-1.371 2.6172-1.8711c1.1318-0.59553 3.5996-1.3203 3.5996-1.3203s-1.9192-1.583-3.209-1.9844c-2.2505-0.70328-3.159-0.32956-3.4727-0.099609 0.32003-0.30609 1.314-1.2354 1.9863-1.6074 1.1845-0.65804 3.8555-1.2969 3.8555-1.2969s-4.8403-3.7913-9.9941-3.6523z" style="fill-rule:evenodd;fill:#4040bf"/>
 <path d="m14.9 29.117s-0.37559-0.43583-0.43583-0.70866c-0.27638-1.2472-0.80787-3.5079 0.43583-3.8091 1.1906-0.28701 2.0374 3.0543 2.0374 3.0543s0.57047-2.6539 1.4315-3.6319c0.66614-0.75827 1.6264-1.4598 2.6433-1.4598 2.0374 0 2.0091 4.0748 0.98858 6.1122-1.0169 2.0374-5.0634 0-5.0634 0z" style="fill:#f9f9f9"/>
 <ellipse cx="20.489" cy="26.706" rx="1.0186" ry="2.0373" style="fill:#4d4d4d"/>
 <path d="m20.413 25.106c0.52795-0.19134 0.68032 0.46772 0.68032 0.7937 0 0.32598 0.10984 1.513-0.10984 1.0807-0.21614-0.43228-0.10984-0.97441-0.54213-0.97441-0.43228 0-0.55984-0.7122-0.03189-0.9z" style="fill:#e6e6e6"/>
 <ellipse cx="15.665" cy="27.327" rx=".76398" ry="1.528" style="fill:#4d4d4d"/>
 <path d="m15.609 26.137c0.40039-0.14528 0.51732 0.35433 0.51732 0.60236 0 0.24449 0.0815 1.148-0.0815 0.82205-0.16299-0.32953-0.0815-0.73701-0.41102-0.73701-0.32953 0-0.4252-0.53858-0.0248-0.68386z" style="fill:#e6e6e6"/>
</svg>
