<svg xmlns="http://www.w3.org/2000/svg" viewBox="0 0 48 48">
 <defs>
  <linearGradient id="linearGradient3945" gradientUnits="userSpaceOnUse" gradientTransform="matrix(0,-1,1,0,-1.5e-6,47.999998)" x1="1" x2="47">
   <stop style="stop-color:#3d3d3d;stop-opacity:1"/>
   <stop offset="1" style="stop-color:#474747;stop-opacity:1"/>
  </linearGradient>
 </defs>
 <path d="m 36.31,5 c 5.859,4.062 9.688,10.831 9.688,18.5 0,12.426 -10.07,22.5 -22.5,22.5 -7.669,0 -14.438,-3.828 -18.5,-9.688 1.037,1.822 2.306,3.499 3.781,4.969 4.085,3.712 9.514,5.969 15.469,5.969 12.703,0 23,-10.298 23,-23 0,-5.954 -2.256,-11.384 -5.969,-15.469 C 39.81,7.306 38.132,6.037 36.31,5 z m 4.969,3.781 c 3.854,4.113 6.219,9.637 6.219,15.719 0,12.703 -10.297,23 -23,23 -6.081,0 -11.606,-2.364 -15.719,-6.219 4.16,4.144 9.883,6.719 16.219,6.719 12.703,0 23,-10.298 23,-23 0,-6.335 -2.575,-12.06 -6.719,-16.219 z" style="opacity:0.05"/>
 <path d="m 41.28 8.781 c 3.712 4.085 5.969 9.514 5.969 15.469 0 12.703 -10.297 23 -23 23 -5.954 0 -11.384 -2.256 -15.469 -5.969 4.113 3.854 9.637 6.219 15.719 6.219 12.703 0 23 -10.298 23 -23 0 -6.081 -2.364 -11.606 -6.219 -15.719 z" style="opacity:0.1"/>
 <path d="M 31.25,2.375 C 39.865,5.529 46,13.792 46,23.505 c 0,12.426 -10.07,22.5 -22.5,22.5 -9.708,0 -17.971,-6.135 -21.12,-14.75 a 23,23 0 0 0 44.875,-7 23,23 0 0 0 -16,-21.875 z" style="opacity:0.2"/>
 <path d="M 24,1 C 36.703,1 47,11.297 47,24 47,36.703 36.703,47 24,47 11.297,47 1,36.703 1,24 1,11.297 11.297,1 24,1 z" style="fill:url(#linearGradient3945);fill-opacity:1"/>
 <path d="m 28 12 c -10 0 -15 7 -15 13 c 0 6 5 13 15 13 c -6 -3.569 -9 -7 -9 -13 c 0 -6 3 -9.431 9 -13 z m -0.375 4.438 l -0.438 2.219 c -0.54 0.145 -1.054 0.363 -1.531 0.625 l -1.969 -1.25 l -1.906 1.844 l 1.281 1.906 c -0.27 0.462 -0.475 0.946 -0.625 1.469 l -2.281 0.438 l 0 2.656 l 2.281 0.438 c 0.15 0.523 0.355 1.038 0.625 1.5 l -1.281 1.875 l 1.906 1.875 l 1.969 -1.281 c 0.477 0.262 0.992 0.48 1.531 0.625 l 0.438 2.219 l 2.75 0 l 0.438 -2.219 c 0.54 -0.145 1.054 -0.363 1.531 -0.625 l 1.969 1.281 l 1.906 -1.875 l -1.281 -1.875 c 0.27 -0.462 0.475 -0.977 0.625 -1.5 l 2.281 -0.438 l 0 -2.656 l -2.281 -0.438 c -0.15 -0.523 -0.355 -1.01 -0.625 -1.469 l 1.281 -1.906 l -1.906 -1.844 l -1.969 1.25 c -0.477 -0.262 -0.992 -0.48 -1.531 -0.625 l -0.438 -2.219 l -2.75 0 z m 1.375 5.563 c 1.657 0 3 1.343 3 3 c 0 1.657 -1.343 3 -3 3 c -1.657 0 -3 -1.343 -3 -3 c 0 -1.657 1.343 -3 3 -3 z" style="fill:#000;opacity:0.1;fill-opacity:1;stroke:none"/>
 <path d="m 40.03,7.531 c 3.712,4.084 5.969,9.514 5.969,15.469 0,12.703 -10.297,23 -23,23 C 17.045,46 11.615,43.744 7.53,40.031 11.708,44.322 17.54,47 23.999,47 c 12.703,0 23,-10.298 23,-23 0,-6.462 -2.677,-12.291 -6.969,-16.469 z" style="opacity:0.1"/>
 <path d="m 27 11 c -10 0 -15 7 -15 13 c 0 6 5 13 15 13 c -6 -3.569 -9 -7 -9 -13 c 0 -6 3 -9.431 9 -13 z" style="fill:#352217;opacity:1;fill-opacity:1;stroke:none"/>
 <path d="M 27,11 C 17,11 12,18 12,24 12,30 17,37 27,37 19,35 15,30 15,24 15,18 19,13 27,11 z" style="fill:#aba674;opacity:1;fill-opacity:1;stroke:none"/>
 <path d="m 26.625 15.438 l -0.438 2.219 c -0.54 0.145 -1.054 0.363 -1.531 0.625 l -1.969 -1.25 l -1.906 1.844 l 1.281 1.906 c -0.27 0.462 -0.475 0.946 -0.625 1.469 l -2.281 0.438 l 0 2.656 l 2.281 0.438 c 0.15 0.523 0.355 1.038 0.625 1.5 l -1.281 1.875 l 1.906 1.875 l 1.969 -1.281 c 0.477 0.262 0.992 0.48 1.531 0.625 l 0.438 2.219 l 2.75 0 l 0.438 -2.219 c 0.54 -0.145 1.054 -0.363 1.531 -0.625 l 1.969 1.281 l 1.906 -1.875 l -1.281 -1.875 c 0.27 -0.462 0.475 -0.977 0.625 -1.5 l 2.281 -0.438 l 0 -2.656 l -2.281 -0.438 c -0.15 -0.523 -0.355 -1.01 -0.625 -1.469 l 1.281 -1.906 l -1.906 -1.844 l -1.969 1.25 c -0.477 -0.262 -0.992 -0.48 -1.531 -0.625 l -0.438 -2.219 l -2.75 0 z m 1.375 3.563 c 2.761 0 5 2.239 5 5 c 0 2.761 -2.239 5 -5 5 c -2.761 0 -5 -2.239 -5 -5 c 0 -2.761 2.239 -5 5 -5 z" style="fill:#aba674;fill-opacity:1;stroke:none;fill-rule:nonzero"/>
 <path d="m 28 19 c -2.761 0 -5 2.239 -5 5 c 0 2.761 2.239 5 5 5 c 2.761 0 5 -2.239 5 -5 c 0 -2.761 -2.239 -5 -5 -5 z m 0 2 c 1.657 0 3 1.343 3 3 c 0 1.657 -1.343 3 -3 3 c -1.657 0 -3 -1.343 -3 -3 c 0 -1.657 1.343 -3 3 -3 z" style="fill:#352217;fill-opacity:1;stroke:none;fill-rule:nonzero"/>
</svg>
