<svg xmlns="http://www.w3.org/2000/svg" viewBox="0 0 48 48">
 <defs>
  <linearGradient id="linearGradient4440" y1="1" x2="0" y2="47" gradientUnits="userSpaceOnUse">
   <stop style="stop-color:#89acdf;stop-opacity:1"/>
   <stop offset="1" style="stop-color:#7aa1da;stop-opacity:1"/>
  </linearGradient>
 </defs>
 <g>
  <path d="m 36.31 5 c 5.859 4.062 9.688 10.831 9.688 18.5 c 0 12.426 -10.07 22.5 -22.5 22.5 c -7.669 0 -14.438 -3.828 -18.5 -9.688 c 1.037 1.822 2.306 3.499 3.781 4.969 c 4.085 3.712 9.514 5.969 15.469 5.969 c 12.703 0 23 -10.298 23 -23 c 0 -5.954 -2.256 -11.384 -5.969 -15.469 c -1.469 -1.475 -3.147 -2.744 -4.969 -3.781 z m 4.969 3.781 c 3.854 4.113 6.219 9.637 6.219 15.719 c 0 12.703 -10.297 23 -23 23 c -6.081 0 -11.606 -2.364 -15.719 -6.219 c 4.16 4.144 9.883 6.719 16.219 6.719 c 12.703 0 23 -10.298 23 -23 c 0 -6.335 -2.575 -12.06 -6.719 -16.219 z" style="opacity:0.05"/>
  <path d="m 41.28 8.781 c 3.712 4.085 5.969 9.514 5.969 15.469 c 0 12.703 -10.297 23 -23 23 c -5.954 0 -11.384 -2.256 -15.469 -5.969 c 4.113 3.854 9.637 6.219 15.719 6.219 c 12.703 0 23 -10.298 23 -23 c 0 -6.081 -2.364 -11.606 -6.219 -15.719 z" style="opacity:0.1"/>
  <path d="m 31.25 2.375 c 8.615 3.154 14.75 11.417 14.75 21.13 c 0 12.426 -10.07 22.5 -22.5 22.5 c -9.708 0 -17.971 -6.135 -21.12 -14.75 a 23 23 0 0 0 44.875 -7 a 23 23 0 0 0 -16 -21.875 z" style="opacity:0.2"/>
 </g>
 <g style="fill:#87aade;opacity:1;fill-opacity:1">
  <path d="M 24,1 C 36.703,1 47,11.297 47,24 47,36.703 36.703,47 24,47 11.297,47 1,36.703 1,24 1,11.297 11.297,1 24,1 Z" style="fill:url(#linearGradient4440)"/>
 </g>
 <g>
  <path d="m 40.03 7.531 c 3.712 4.084 5.969 9.514 5.969 15.469 0 12.703 -10.297 23 -23 23 c -5.954 0 -11.384 -2.256 -15.469 -5.969 4.178 4.291 10.01 6.969 16.469 6.969 c 12.703 0 23 -10.298 23 -23 0 -6.462 -2.677 -12.291 -6.969 -16.469 z" style="opacity:0.1"/>
 </g>
 <g transform="translate(1.5000017,2.0000004)" style="fill:#000;opacity:0.1">
  <g transform="matrix(1.2492854,0,0,1.2492854,-7.775201,-5.2164717)">
   <path d="m 27.738 10 l -0.205 2.092 l 1.447 4.03 l 1.24 5.066 l -2.736 5.816 c -0.166 -0.027 -0.336 -0.045 -0.51 -0.057 l -3.068 -12.346 l -9.408 0.621 l 5.896 2.922 l 1.65 10.518 c -0.481 0.463 -0.936 0.972 -1.299 1.301 c -0.651 0.59 -1.843 1.413 -2.223 2.096 c -0.38 0.683 -0.612 0.811 -0.676 1.506 c -0.064 0.693 0.041 1.374 0.338 2 c 1.188 2.506 4.994 3.187 8.502 1.523 c 2.888 -1.37 4.668 -3.904 4.545 -6.154 l 0.008 0.008 l 3.941 -8.721 l -1.861 -8.166 l -5.582 -4.057 z" transform="matrix(0.80045761,0,0,0.80045761,5.023031,2.5746489)" style="stroke:none;fill-rule:evenodd"/>
  </g>
 </g>
 <g transform="translate(0.500001,1)">
  <path d="m 29.738 28.942 3.94 -8.72 -1.861 -8.167 -5.582 -4.056 -0.207 2.092 1.447 4.03 1.24 5.065 -3.01 6.4 z" style="fill:#6c5353;stroke:none;fill-rule:evenodd"/>
  <path d="m 26.85 25.406 2.59 -5.701 -0.827 -4.859 -1.137 -4.548 2.791 2.067 1.861 7.546 -3.625 6.83 z" style="fill:#483737;stroke:none;fill-rule:evenodd"/>
  <path d="m 25.651 25.661 -3.244 -13.06 -9.407 0.62 5.897 2.922 1.937 12.354 z" style="fill:#6c5353;stroke:none;fill-rule:evenodd"/>
  <path d="m 13 13.225 5.896 2.924 1.648 10.506 2.585 -1.428 -1.943 -10.346 z" style="fill:#000;opacity:0.1;stroke:none;fill-rule:evenodd"/>
  <path d="m 23.452 26.944 -2.265 -12.06 -1.878 0.042 1.272 4.612 0.808 8.419 z" style="fill:#483737;stroke:none;fill-rule:evenodd"/>
  <path d="m 23.12 15.463 1.033 9.539 1.475 0.557 -2.508 -10.1" style="fill:#000;opacity:0.1;stroke:none;fill-rule:evenodd"/>
  <path d="m 29.387 27.541 c 1.188 2.505 -0.692 5.885 -4.199 7.549 -3.508 1.664 -7.315 0.982 -8.503 -1.524 -0.297 -0.626 -0.402 -1.307 -0.338 -2 0.064 -0.695 0.297 -0.823 0.677 -1.506 0.38 -0.683 1.571 -1.506 2.222 -2.096 0.651 -0.59 1.592 -1.778 2.469 -2.194 3.508 -1.664 6.484 -0.732 7.672 1.773 z" style="fill:#6c5353;opacity:1;fill-opacity:1;stroke:none;fill-rule:nonzero"/>
  <path d="m 17.43 31.672 -0.428 0.263 0.624 1.014 -0.161 1.697 0.655 0.513 0.095 -2.153 0.998 -0.785 -0.241 -0.449 -0.998 0.785 c -0.181 -0.295 -0.362 -0.59 -0.543 -0.885 z" mix-blend-mode="normal" isolation="auto" white-space="normal" solid-opacity="1" solid-color="#000000" style="visibility:visible;shape-rendering:auto;color-interpolation-filters:linearRGB;fill:#483e37;opacity:1;image-rendering:auto;fill-opacity:1;stroke:none;display:inline;color:#000;fill-rule:evenodd;color-rendering:auto;color-interpolation:sRGB"/>
  <path d="m 29.387 27.541 -0.242 0.908 -1.341 3.582 -2.731 2.067 -3.02 1.15 -3.929 -0.091 c 0.006 0.004 0.013 0.008 0.019 0.012 0.007 0.004 0.013 0.008 0.02 0.012 l 0.727 0.371 c 1.722 0.703 4.068 0.596 6.297 -0.461 3.508 -1.664 5.388 -5.04 4.199 -7.549 z" style="fill:#000;opacity:0.1;fill-opacity:1;stroke:none;fill-rule:nonzero"/>
  <g transform="matrix(1.0041994,0,0,1.0041994,-1.0673825,0.34359066)">
   <ellipse cx="19.833" cy="34.23" rx="1.459" ry="0.831" transform="matrix(0.97796212,-0.2087824,0.2087824,0.97796212,0,0)" style="fill:#241c1c;opacity:1;fill-opacity:1;stroke:none;fill-rule:nonzero"/>
   <ellipse cx="26.889" cy="29.12" rx="0.35" ry="0.323" style="fill:#f9f9f9;opacity:1;fill-opacity:1;stroke:none;fill-rule:nonzero"/>
  </g>
  <path d="m 26.888 27.974 -3.709 1.542 0.311 0.393 3.573 -1.435 -0.086 0 0 -0.5 z" mix-blend-mode="normal" isolation="auto" white-space="normal" solid-opacity="1" solid-color="#000000" style="visibility:visible;shape-rendering:auto;color-interpolation-filters:linearRGB;fill:#483737;opacity:1;image-rendering:auto;fill-opacity:1;stroke:none;display:inline;color:#000;fill-rule:evenodd;color-rendering:auto;color-interpolation:sRGB"/>
 </g>
</svg>
