<svg version="1.1" viewBox="0 0 48 48" xmlns="http://www.w3.org/2000/svg">
 <defs>
  <linearGradient id="bg" x1="1" x2="47" gradientTransform="matrix(0 -1 1 0 -1.5e-6 48)" gradientUnits="userSpaceOnUse">
   <stop style="stop-color:#ca251c" offset="0"/>
   <stop style="stop-color:#db281f" offset="1"/>
  </linearGradient>
 </defs>
 <path d="m36.31 5c5.859 4.062 9.688 10.831 9.688 18.5 0 12.426-10.07 22.5-22.5 22.5-7.669 0-14.438-3.828-18.5-9.688 1.037 1.822 2.306 3.499 3.781 4.969 4.085 3.712 9.514 5.969 15.469 5.969 12.703 0 23-10.298 23-23 0-5.954-2.256-11.384-5.969-15.469-1.469-1.475-3.147-2.744-4.969-3.781zm4.969 3.781c3.854 4.113 6.219 9.637 6.219 15.719 0 12.703-10.297 23-23 23-6.081 0-11.606-2.364-15.719-6.219 4.16 4.144 9.883 6.719 16.219 6.719 12.703 0 23-10.298 23-23 0-6.335-2.575-12.06-6.719-16.219z" style="opacity:.05"/>
 <path d="m41.28 8.781c3.712 4.085 5.969 9.514 5.969 15.469 0 12.703-10.297 23-23 23-5.954 0-11.384-2.256-15.469-5.969 4.113 3.854 9.637 6.219 15.719 6.219 12.703 0 23-10.298 23-23 0-6.081-2.364-11.606-6.219-15.719z" style="opacity:.1"/>
 <path d="m31.25 2.375c8.615 3.154 14.75 11.417 14.75 21.13 0 12.426-10.07 22.5-22.5 22.5-9.708 0-17.971-6.135-21.12-14.75a23 23 0 0 0 44.875-7 23 23 0 0 0-16-21.875z" style="opacity:.2"/>
 <path d="m24 1c12.703 0 23 10.297 23 23s-10.297 23-23 23-23-10.297-23-23 10.297-23 23-23z" style="fill:url(#bg)"/>
 <path d="m40.03 7.531c3.712 4.084 5.969 9.514 5.969 15.469 0 12.703-10.297 23-23 23-5.954 0-11.384-2.256-15.469-5.969 4.178 4.291 10.01 6.969 16.469 6.969 12.703 0 23-10.298 23-23 0-6.462-2.677-12.291-6.969-16.469z" style="opacity:.1"/>
 <path d="m23.535 12.01c3.362 3.659 8.372 7.902 8.52 12.367 0.044 1.343-0.15 2.766-0.787 3.23l-5.996-6.32 2.537-2.658-0.809-0.629h-5l-5.589 4.969 3.326 3.402 2.504-2.072 5.963 6.352c-0.851 0.568-1.715 0.769-2.898 0.811-2.935 0.103-4.875-3.306-5.633-3.371-0.427-0.046-0.696 0.23-0.988 0.615l-1.318 0.031c-0.537 0.288-0.629 0.457-0.691 0.617v0.809c-1.09 0.616-2.164 1.051-3.295 2.107-0.929 0.943-1.297 1.986-0.328 3.01 1.046 1.106 1.922 0.768 2.635 0.266 1.231-0.867 2.169-2.082 2.998-3.404 2.442 3.295 5.652 3.809 7.148 3.857 3.173 0.103 4.03-0.843 5.83-1.361l1.516 1.361 3.229-3.01-1.746-1.783c1.3-1.797 1.871-3.634 1.846-5.51-0.112-8.263-8.981-12.749-12.971-13.686" style="opacity:.1"/>
 <path d="m22.535 11.01c3.362 3.659 8.372 7.902 8.52 12.367 0.044 1.343-0.15 2.766-0.787 3.23l-5.996-6.32 2.537-2.658-0.809-0.629h-5l-5.589 4.969 3.326 3.402 2.504-2.072 5.963 6.352c-0.851 0.568-1.715 0.769-2.898 0.811-2.935 0.103-4.875-3.306-5.633-3.371-0.427-0.046-0.696 0.23-0.988 0.615l-1.318 0.031c-0.537 0.288-0.629 0.457-0.691 0.617v0.809c-1.09 0.616-2.184 1.03-3.295 2.107-0.95 0.922-1.297 1.986-0.328 3.01 1.046 1.106 1.922 0.768 2.635 0.266 1.231-0.867 2.169-2.082 2.998-3.404 2.442 3.295 5.652 3.809 7.148 3.857 3.173 0.103 4.03-0.843 5.83-1.361l1.516 1.361 3.229-3.01-1.746-1.783c1.3-1.797 1.871-3.634 1.846-5.51-0.112-8.263-8.981-12.749-12.971-13.686" style="fill:#f3c920"/>
</svg>
