<svg version="1.1" viewBox="0 0 48 48" xmlns="http://www.w3.org/2000/svg">
 <defs>
  <linearGradient id="bg" x1="1" x2="47" gradientTransform="rotate(-90 24 24)" gradientUnits="userSpaceOnUse">
   <stop style="stop-color:#a7a7f1" offset="0"/>
   <stop style="stop-color:#b8b8f4" offset="1"/>
  </linearGradient>
 </defs>
 <path d="m36.3 5c5.86 4.06 9.69 10.8 9.69 18.5 0 12.4-10.1 22.5-22.5 22.5-7.67 0-14.4-3.83-18.5-9.69 1.04 1.82 2.31 3.5 3.78 4.97 4.08 3.71 9.51 5.97 15.5 5.97 12.7 0 23-10.3 23-23 0-5.95-2.26-11.4-5.97-15.5-1.47-1.48-3.15-2.74-4.97-3.78zm4.97 3.78c3.85 4.11 6.22 9.64 6.22 15.7 0 12.7-10.3 23-23 23-6.08 0-11.6-2.36-15.7-6.22 4.16 4.14 9.88 6.72 16.2 6.72 12.7 0 23-10.3 23-23 0-6.34-2.58-12.1-6.72-16.2z" style="opacity:.05"/>
 <path d="m41.3 8.78c3.71 4.08 5.97 9.51 5.97 15.5 0 12.7-10.3 23-23 23-5.95 0-11.4-2.26-15.5-5.97 4.11 3.85 9.64 6.22 15.7 6.22 12.7 0 23-10.3 23-23 0-6.08-2.36-11.6-6.22-15.7z" style="opacity:.1"/>
 <path d="m31.2 2.38c8.62 3.15 14.8 11.4 14.8 21.1 0 12.4-10.1 22.5-22.5 22.5-9.71 0-18-6.14-21.1-14.8a23 23 0 0 0 44.9-7 23 23 0 0 0-16-21.9z" style="opacity:.2"/>
 <path d="m24 1c12.7 0 23 10.3 23 23s-10.3 23-23 23-23-10.3-23-23 10.3-23 23-23z" style="fill:url(#bg)"/>
 <path d="m24 1v7h-7v-5.91c-0.337 0.108-0.67 0.221-1 0.344v5.56h-7v-1.44c-0.346 0.298-0.673 0.62-1 0.938v0.5h-0.5c-0.318 0.327-0.64 0.654-0.938 1h1.44v7h-5.56c-0.123 0.33-0.236 0.663-0.344 1h5.91v7h-7c0 0.334 0.017 0.669 0.031 1h6.97v7h-5.56c0.127 0.342 0.264 0.666 0.406 1h5.16v7h-0.5c0.481 0.496 0.976 0.986 1.5 1.44v-0.438h7v4.56c0.33 0.123 0.663 0.236 1 0.344v-4.91h7v6c0.334 0 0.669-0.017 1-0.031v-5.97h7v4.56c0.342-0.127 0.666-0.264 1-0.406v-4.16h6.5c0.522-0.476 1.02-0.978 1.5-1.5v-6.5h4.16c0.142-0.334 0.279-0.658 0.406-1h-4.56v-7h5.97c0.014-0.331 0.031-0.666 0.031-1h-6v-7h4.91c-0.108-0.337-0.221-0.67-0.344-1h-4.56v-7h0.438c-0.451-0.524-0.941-1.02-1.44-1.5v0.5h-7v-5.16c-0.334-0.142-0.658-0.279-1-0.406v5.56h-7v-6.97c-0.331-0.014-0.666-0.031-1-0.031zm-15 8h7v7h-7zm8 0h7v7h-7zm8 0h7v7h-7zm8 0h7v7h-7zm-24 8h7v7h-7zm8 0h7v7h-7zm8 0h7v7h-7zm8 0h7v7h-7zm-24 8h7v7h-7zm8 0h7v7h-7zm8 0h7v7h-7zm8 0h7v7h-7zm-24 8h7v7h-7zm8 0h7v7h-7zm8 0h7v7h-7zm8 0h7v7h-7z" style="fill:#2c2c7c;opacity:.15"/>
 <path d="m12 18.8c3.67 1.83 7.38 3.61 10.8 5.71l-5.27 6.03-3.52-0.599-0.94 0.94c1.43 0.584 2.86 1.25 4.09 2.04 0.789 1.23 1.45 2.66 2.04 4.09l0.94-0.94-0.599-3.52 6.03-5.27c2.1 3.39 3.89 7.1 5.72 10.8l1-1-2.43-14.1 4.6-4.72c0.864-0.887 2.05-3.34 1.38-4.02-0.67-0.67-3.12 0.52-4.02 1.38l-4.72 4.59-14.1-2.42c-0.334 0.328-0.677 0.681-0.996 1.01z" style="opacity:.1"/>
 <path d="m34.3 13c-0.993-0.0401-2.75 0.878-3.47 1.58l-4.72 4.59-14.1-2.43c-0.334 0.328-0.677 0.681-0.996 1.01 3.67 1.83 7.38 3.61 10.8 5.71l-5.27 6.03-3.52-0.598-0.939 0.939c1.43 0.584 2.86 1.25 4.09 2.04 0.789 1.23 1.45 2.66 2.04 4.09l0.939-0.939-0.598-3.52 6.03-5.27c2.1 3.39 3.89 7.1 5.72 10.8l1-1-2.43-14.1 4.6-4.72c0.864-0.887 2.05-3.34 1.38-4.02-0.126-0.126-0.314-0.186-0.543-0.195z" style="fill:#474785"/>
 <path d="m40 7.53c3.71 4.08 5.97 9.51 5.97 15.5 0 12.7-10.3 23-23 23-5.95 0-11.4-2.26-15.5-5.97 4.18 4.29 10 6.97 16.5 6.97 12.7 0 23-10.3 23-23 0-6.46-2.68-12.3-6.97-16.5z" style="opacity:.1"/>
</svg>
