<svg xmlns="http://www.w3.org/2000/svg" viewBox="0 0 48 48">
 <defs>
  <linearGradient id="linearGradient3764" x1="1" x2="47" gradientUnits="userSpaceOnUse" gradientTransform="matrix(0,-1,1,0,-1.5e-6,47.999998)">
   <stop style="stop-color:#606060;stop-opacity:1"/>
   <stop offset="1" style="stop-color:#6a6a6a;stop-opacity:1"/>
  </linearGradient>
 </defs>
 <g>
  <path d="m 36.31 5 c 5.859 4.062 9.688 10.831 9.688 18.5 c 0 12.426 -10.07 22.5 -22.5 22.5 c -7.669 0 -14.438 -3.828 -18.5 -9.688 c 1.037 1.822 2.306 3.499 3.781 4.969 c 4.085 3.712 9.514 5.969 15.469 5.969 c 12.703 0 23 -10.298 23 -23 c 0 -5.954 -2.256 -11.384 -5.969 -15.469 c -1.469 -1.475 -3.147 -2.744 -4.969 -3.781 z m 4.969 3.781 c 3.854 4.113 6.219 9.637 6.219 15.719 c 0 12.703 -10.297 23 -23 23 c -6.081 0 -11.606 -2.364 -15.719 -6.219 c 4.16 4.144 9.883 6.719 16.219 6.719 c 12.703 0 23 -10.298 23 -23 c 0 -6.335 -2.575 -12.06 -6.719 -16.219 z" style="opacity:0.05"/>
  <path d="m 41.28 8.781 c 3.712 4.085 5.969 9.514 5.969 15.469 c 0 12.703 -10.297 23 -23 23 c -5.954 0 -11.384 -2.256 -15.469 -5.969 c 4.113 3.854 9.637 6.219 15.719 6.219 c 12.703 0 23 -10.298 23 -23 c 0 -6.081 -2.364 -11.606 -6.219 -15.719 z" style="opacity:0.1"/>
  <path d="m 31.25 2.375 c 8.615 3.154 14.75 11.417 14.75 21.13 c 0 12.426 -10.07 22.5 -22.5 22.5 c -9.708 0 -17.971 -6.135 -21.12 -14.75 a 23 23 0 0 0 44.875 -7 a 23 23 0 0 0 -16 -21.875 z" style="opacity:0.2"/>
 </g>
 <g>
  <path d="m 24 1 c 12.703 0 23 10.297 23 23 c 0 12.703 -10.297 23 -23 23 -12.703 0 -23 -10.297 -23 -23 0 -12.703 10.297 -23 23 -23 z" style="fill:url(#linearGradient3764);fill-opacity:1"/>
 </g>
 <g>
  <path d="m 40.03 7.531 c 3.712 4.084 5.969 9.514 5.969 15.469 0 12.703 -10.297 23 -23 23 c -5.954 0 -11.384 -2.256 -15.469 -5.969 4.178 4.291 10.01 6.969 16.469 6.969 c 12.703 0 23 -10.298 23 -23 0 -6.462 -2.677 -12.291 -6.969 -16.469 z" style="opacity:0.1"/>
 </g>
 <path d="m 25.21 11 c -3.784 -0.056 -7.43 1.423 -10.11 4.1 -5.467 5.467 -5.467 14.331 0 19.799 l 1.42 -1.42 c -2.251 -2.248 -3.517 -5.299 -3.52 -8.48 c 0 -6.627 5.373 -12 12 -12 2.118 0.006 4.197 0.573 6.03 1.643 -0.016 0.119 -0.024 0.238 -0.025 0.357 0 1.657 1.343 3 3 3 0.222 -0.001 0.444 -0.026 0.66 -0.076 1.511 2.051 2.331 4.529 2.34 7.08 -0.003 3.182 -1.269 6.232 -3.52 8.48 l 1.42 1.42 c 2.655 -2.655 4.132 -6.266 4.1 -10.02 -0.028 -2.887 -0.949 -5.695 -2.635 -8.04 0.41 -0.526 0.634 -1.173 0.635 -1.84 0 -1.657 -1.343 -3 -3 -3 -0.778 0 -1.526 0.303 -2.086 0.844 -2.046 -1.169 -4.353 -1.802 -6.709 -1.842 z m -0.206 8.998 c -2.761 0 -5 2.239 -5 5 0 2.761 2.239 5 5 5 2.761 0 5 -2.239 5 -5 0 -2.761 -2.239 -5 -5 -5 z m -5.999 14 l 0 5 4 0 0 -5 z m 5 0 0 3 2 0 0 1 -2 0 0 1 3 0 0 -3 -2 0 0 -1 2 0 0 -1 z m 4 0 0 5 3 0 0 -1 -2 0 0 -3 2 0 0 -1 z m -8 1 2 0 0 3 -2 0 z" style="fill:#000;opacity:0.1;fill-opacity:1;stroke:none"/>
 <path d="m 24.21 10 a 14 14 0 0 0 -10.11 4.1 14 14 0 0 0 0 19.799 l 1.42 -1.42 a 12 12 0 0 1 -3.52 -8.48 12 12 0 0 1 12 -12 12 12 0 0 1 8.48 3.521 l 1.42 -1.42 a 14 14 0 0 0 -9.695 -4.1 z" style="fill:#5c90fc;opacity:1;fill-opacity:1;stroke:none"/>
 <path d="m 33.725 13.929 -1.398 1.449 a 12 12 0 0 1 3.674 8.621 12 12 0 0 1 -3.52 8.48 l 1.42 1.42 a 14 14 0 0 0 4.1 -10.02 14 14 0 0 0 -4.275 -9.949" style="fill:#444;opacity:1;fill-opacity:1;stroke:none"/>
 <path d="m 27.536 20.464 c 1.263 1.263 1.756 3.104 1.294 4.83 -0.462 1.725 -1.81 3.073 -3.536 3.536 -1.725 0.462 -3.567 -0.031 -4.83 -1.294 c 1.536 -3.536 3.46 -5.621 7.07 -7.07" style="fill:#8d8d8d;opacity:1;fill-opacity:1;stroke:none"/>
 <path d="m 20.465 27.536 c -1.953 -1.953 -1.953 -5.118 0 -7.07 1.953 -1.953 5.118 -1.953 7.07 0 -2.357 2.357 -4.714 4.714 -7.07 7.07 z" style="fill:#999;opacity:1;fill-opacity:1;stroke:none"/>
 <path d="m 18 33 0 5 c 1.333 0 2.667 0 4 0 0 -1.667 0 -3.333 0 -5 -1.333 0 -2.667 0 -4 0 z m 5 0 c 0 1 0 2 0 3 l 2 0 0 1 -2 0 0 1 3 0 c 0 -1 0 -2 0 -3 l -2 0 0 -1 2 0 0 -1 z m 4 0 c 0 1.667 0 3.333 0 5 l 3 0 0 -1 -2 0 0 -3 2 0 0 -1 z m -8 1 2 0 0 3 -2 0 z" style="fill:#5c90fc;opacity:1;fill-opacity:1;stroke:none"/>
 <path d="m 33.725 13.93 l -1.398 1.449 a 12 12 0 0 1 2.029 2.596 a 3 3 0 0 0 1.807 -0.898 a 14 14 0 0 0 -2.438 -3.146 z" style="fill:#000;opacity:0.1;fill-opacity:1;stroke:none"/>
 <circle cx="33" cy="14" r="3" style="fill:#5c90fc;opacity:1;fill-opacity:1;stroke:none"/>
</svg>
