<svg xmlns="http://www.w3.org/2000/svg" viewBox="0 0 48 48">
 <defs>
  <linearGradient id="linearGradient3764" x1="1" x2="47" gradientUnits="userSpaceOnUse" gradientTransform="matrix(0,-1,1,0,-1.5e-6,47.999998)">
   <stop style="stop-color:#52b8d2;stop-opacity:1"/>
   <stop offset="1" style="stop-color:#62bed6;stop-opacity:1"/>
  </linearGradient>
 </defs>
 <g>
  <path d="m 36.31 5 c 5.859 4.062 9.688 10.831 9.688 18.5 c 0 12.426 -10.07 22.5 -22.5 22.5 c -7.669 0 -14.438 -3.828 -18.5 -9.688 c 1.037 1.822 2.306 3.499 3.781 4.969 c 4.085 3.712 9.514 5.969 15.469 5.969 c 12.703 0 23 -10.298 23 -23 c 0 -5.954 -2.256 -11.384 -5.969 -15.469 c -1.469 -1.475 -3.147 -2.744 -4.969 -3.781 z m 4.969 3.781 c 3.854 4.113 6.219 9.637 6.219 15.719 c 0 12.703 -10.297 23 -23 23 c -6.081 0 -11.606 -2.364 -15.719 -6.219 c 4.16 4.144 9.883 6.719 16.219 6.719 c 12.703 0 23 -10.298 23 -23 c 0 -6.335 -2.575 -12.06 -6.719 -16.219 z" style="opacity:0.05"/>
  <path d="m 41.28 8.781 c 3.712 4.085 5.969 9.514 5.969 15.469 c 0 12.703 -10.297 23 -23 23 c -5.954 0 -11.384 -2.256 -15.469 -5.969 c 4.113 3.854 9.637 6.219 15.719 6.219 c 12.703 0 23 -10.298 23 -23 c 0 -6.081 -2.364 -11.606 -6.219 -15.719 z" style="opacity:0.1"/>
  <path d="m 31.25 2.375 c 8.615 3.154 14.75 11.417 14.75 21.13 c 0 12.426 -10.07 22.5 -22.5 22.5 c -9.708 0 -17.971 -6.135 -21.12 -14.75 a 23 23 0 0 0 44.875 -7 a 23 23 0 0 0 -16 -21.875 z" style="opacity:0.2"/>
 </g>
 <g>
  <path d="m 24 1 c 12.703 0 23 10.297 23 23 c 0 12.703 -10.297 23 -23 23 -12.703 0 -23 -10.297 -23 -23 0 -12.703 10.297 -23 23 -23 z" style="fill:url(#linearGradient3764);fill-opacity:1"/>
 </g>
 <g>
  <g>
   <g transform="translate(1,1)">
    <g style="opacity:0.1">
     <!-- color: #62bed6 -->
    </g>
   </g>
  </g>
 </g>
 <g>
  <g>
   <!-- color: #62bed6 -->
   <g>
    <path d="m 25 15.02 c -3.173 0.003 -6.342 0.771 -8.76 2.289 -5.315 3.338 -5.68 9.113 -0.797 12.66 0.449 0.32 0.855 0.621 0.906 0.66 l -1.35 2.375 l 3.5 2 6.5 -11.877 6.5 11.877 3.5 -2 -1.35 -2.375 c 0.051 -0.039 0.457 -0.34 0.906 -0.66 4.883 -3.547 4.518 -9.323 -0.797 -12.66 -2.418 -1.518 -5.586 -2.286 -8.76 -2.289 z m -0.965 1.678 -5.855 10.82 c -0.137 0.125 -1.543 -0.867 -2.25 -1.59 -3.582 -3.668 0 -8.273 7.086 -9.148 0.543 -0.059 1.02 -0.082 1.02 -0.082 z m 1.93 0 c 0 0 0.477 0.023 1.02 0.082 7.086 0.875 10.668 5.48 7.086 9.148 -0.707 0.723 -2.113 1.715 -2.25 1.59 z m -0.965 9.307 l -2.5 4.498 2.5 4.502 2.5 -4.502 z" style="fill:#000;opacity:0.1;fill-opacity:1;stroke:none;fill-rule:nonzero"/>
    <path d="m 24 14.02 c -3.173 0.003 -6.342 0.771 -8.76 2.289 -5.315 3.338 -5.68 9.113 -0.797 12.66 0.449 0.32 0.855 0.621 0.906 0.66 l -1.35 2.375 3.5 2 6.5 -11.877 6.5 11.877 3.5 -2 -1.35 -2.375 c 0.051 -0.039 0.457 -0.34 0.906 -0.66 4.883 -3.547 4.518 -9.323 -0.797 -12.66 c -2.418 -1.518 -5.586 -2.286 -8.76 -2.289 m -0.965 1.678 -5.855 10.82 c -0.137 0.125 -1.543 -0.867 -2.25 -1.59 -3.582 -3.668 0 -8.273 7.086 -9.148 0.543 -0.059 1.02 -0.082 1.02 -0.082 z m 1.93 0 c 0 0 0.477 0.023 1.02 0.082 7.086 0.875 10.668 5.48 7.086 9.148 -0.707 0.723 -2.113 1.715 -2.25 1.59 z m -0.965 9.307 -2.5 4.498 2.5 4.502 2.5 -4.502" style="fill:#2d2d2d;fill-opacity:1;stroke:none;fill-rule:nonzero"/>
   </g>
  </g>
 </g>
 <g>
  <path d="m 40.03 7.531 c 3.712 4.084 5.969 9.514 5.969 15.469 0 12.703 -10.297 23 -23 23 c -5.954 0 -11.384 -2.256 -15.469 -5.969 4.178 4.291 10.01 6.969 16.469 6.969 c 12.703 0 23 -10.298 23 -23 0 -6.462 -2.677 -12.291 -6.969 -16.469 z" style="opacity:0.1"/>
 </g>
 <g transform="matrix(-1,0,0,1,48,0)">
  <g>
   <!-- color: #62bed6 -->
  </g>
 </g>
</svg>
