<svg version="1.1" viewBox="0 0 48 48" xmlns="http://www.w3.org/2000/svg">
 <defs>
  <linearGradient id="bg" x2="0" y1="1" y2="47" gradientUnits="userSpaceOnUse">
   <stop style="stop-color:#edbdd0" offset="0"/>
   <stop style="stop-color:#e9acc4" offset="1"/>
  </linearGradient>
 </defs>
 <path d="m36.31 5c5.859 4.062 9.688 10.831 9.688 18.5 0 12.426-10.07 22.5-22.5 22.5-7.669 0-14.438-3.828-18.5-9.688 1.037 1.822 2.306 3.499 3.781 4.969 4.085 3.712 9.514 5.969 15.469 5.969 12.703 0 23-10.298 23-23 0-5.954-2.256-11.384-5.969-15.469-1.469-1.475-3.147-2.744-4.969-3.781zm4.969 3.781c3.854 4.113 6.219 9.637 6.219 15.719 0 12.703-10.297 23-23 23-6.081 0-11.606-2.364-15.719-6.219 4.16 4.144 9.883 6.719 16.219 6.719 12.703 0 23-10.298 23-23 0-6.335-2.575-12.06-6.719-16.219z" style="opacity:.05"/>
 <path d="m41.28 8.781c3.712 4.085 5.969 9.514 5.969 15.469 0 12.703-10.297 23-23 23-5.954 0-11.384-2.256-15.469-5.969 4.113 3.854 9.637 6.219 15.719 6.219 12.703 0 23-10.298 23-23 0-6.081-2.364-11.606-6.219-15.719z" style="opacity:.1"/>
 <path d="m31.25 2.375c8.615 3.154 14.75 11.417 14.75 21.13 0 12.426-10.07 22.5-22.5 22.5-9.708 0-17.971-6.135-21.12-14.75a23 23 0 0 0 44.875-7 23 23 0 0 0-16-21.875z" style="opacity:.2"/>
 <circle cx="24" cy="24" r="23" style="fill:url(#bg)"/>
 <path d="m40.03 7.531c3.712 4.084 5.969 9.514 5.969 15.469 0 12.703-10.297 23-23 23-5.954 0-11.384-2.256-15.469-5.969 4.178 4.291 10.01 6.969 16.469 6.969 12.703 0 23-10.298 23-23 0-6.462-2.677-12.291-6.969-16.469z" style="opacity:.1"/>
 <path d="m25 10a15 15 0 0 0-15 15 15 15 0 0 0 15 15 15 15 0 0 0 15-15 15 15 0 0 0-15-15zm0 2a13 13 0 0 1 1 0.04883v4.4512l-3.4648 3.4648-4.1523-1.082-2.3828-2.3828v-0.875a13 13 0 0 1 9-3.625zm3 0.36523a13 13 0 0 1 9.9551 11.623l-9.9551-2.5977zm-14 5.7363v13.816a13 13 0 0 1-2-6.918 13 13 0 0 1 2-6.8984zm12 1.3984v1.3691l-1.0859-0.2832zm11.949 6.5137a13 13 0 0 1-9.9492 11.619v-9.0234zm-11.949 3.1172v8.8262a13 13 0 0 1-1 0.042969 13 13 0 0 1-9-3.6387v-2.623z" style="opacity:.1;paint-order:normal"/>
 <path d="m14 17.001 23 6v2l-23 6z" style="fill:#dedede;paint-order:normal"/>
 <path d="m14 17v1.1016 12.898l2-0.52148v-10.979l5 5 4.5-4.5-2.3789-0.62109-2.1211 2.1211-3.6172-3.6172-3.3828-0.88281zm12 3.1309v7.7383l2-0.52148v-1.3477h5.166l3.834-1v-1h-9v-3.3477l-2-0.52148z" style="opacity:.1;paint-order:normal"/>
 <path d="m24 9a15 15 0 0 0-15 15 15 15 0 0 0 15 15 15 15 0 0 0 15-15 15 15 0 0 0-15-15zm0 2a13 13 0 0 1 1 0.049v4.4512l-5 5-5-5v-0.875a13 13 0 0 1 9-3.625zm3 0.3652a13 13 0 0 1 9.957 11.635h-9.957zm-14 5.7364v13.816a13 13 0 0 1-2-6.918 13 13 0 0 1 2-6.8984zm2 1.3984 5 5 5-5v18.457a13 13 0 0 1-1 0.043 13 13 0 0 1-9-3.6387zm12 6.5h9.9512a13 13 0 0 1-9.9512 11.633z" style="fill:#333;paint-order:normal"/>
</svg>
