<svg version="1.1" viewBox="0 0 48 48" xmlns="http://www.w3.org/2000/svg">
 <defs>
  <linearGradient id="linearGradient3958" x2="0" y1="48" y2=".135" gradientUnits="userSpaceOnUse">
   <stop style="stop-color:#474747" offset="0"/>
   <stop style="stop-color:#474751" offset="1"/>
  </linearGradient>
 </defs>
 <path d="m36.31 5c5.859 4.062 9.688 10.831 9.688 18.5 0 12.426-10.07 22.5-22.5 22.5-7.669 0-14.438-3.828-18.5-9.688 1.037 1.822 2.306 3.499 3.781 4.969 4.085 3.712 9.514 5.969 15.469 5.969 12.703 0 23-10.298 23-23 0-5.954-2.256-11.384-5.969-15.469-1.469-1.475-3.147-2.744-4.969-3.781zm4.969 3.781c3.854 4.113 6.219 9.637 6.219 15.719 0 12.703-10.297 23-23 23-6.081 0-11.606-2.364-15.719-6.219 4.16 4.144 9.883 6.719 16.219 6.719 12.703 0 23-10.298 23-23 0-6.335-2.575-12.06-6.719-16.219z" style="opacity:.05"/>
 <path d="m41.28 8.781c3.712 4.085 5.969 9.514 5.969 15.469 0 12.703-10.297 23-23 23-5.954 0-11.384-2.256-15.469-5.969 4.113 3.854 9.637 6.219 15.719 6.219 12.703 0 23-10.298 23-23 0-6.081-2.364-11.606-6.219-15.719z" style="opacity:.1"/>
 <path d="m31.25 2.375c8.615 3.154 14.75 11.417 14.75 21.13 0 12.426-10.07 22.5-22.5 22.5-9.708 0-17.971-6.135-21.12-14.75a23 23 0 0 0 44.875-7 23 23 0 0 0-16-21.875z" style="opacity:.2"/>
 <path d="m24 1c12.703 0 23 10.297 23 23s-10.297 23-23 23-23-10.297-23-23 10.297-23 23-23z" style="fill:url(#linearGradient3958)"/>
 <path d="m40.03 7.531c3.712 4.084 5.969 9.514 5.969 15.469 0 12.703-10.297 23-23 23-5.954 0-11.384-2.256-15.469-5.969 4.178 4.291 10.01 6.969 16.469 6.969 12.703 0 23-10.298 23-23 0-6.462-2.677-12.291-6.969-16.469z" style="opacity:.1"/>
 <path d="m15 29.596v3.8125c0 1.713 4.48 3.5957 10 3.5957 1.623 0 3.144-0.16545 4.5-0.43945 0.902 0.887 2.135 1.4395 3.5 1.4395 2.761 0 5-2.239 5-5 0-2.323-1.603-4.2525-3.75-4.8145 3.1252 1.4516-18.434-0.09629-19.25 1.4062z" style="opacity:.1"/>
 <path d="m23.998 25c-5.521 0-9.998 1.8896-9.998 3.6062v3.7921c0 1.7126 4.478 3.6022 9.998 3.6022 5.524 0 10-1.8896 10-3.6022v-3.7911c0-1.7166-4.478-3.6062-10-3.6062" style="fill:#999"/>
 <path d="m15.563 27.69c-0.349 0.327-0.563 0.64-0.563 1 0 1.657 4.03 3.313 9 3.313 4.971 0 9-1.656 9-3.313 0-0.365-0.204-0.7-0.563-1.032-1.774 1.043-4.871 1.844-8.438 1.844-3.541 0-6.658-0.778-8.438-1.812z" style="fill:#d2d2d2"/>
 <path d="m24.998 19.5c-5.521 0-9.998 1.8896-9.998 3.6062v3.7911c0 1.7126 4.478 3.6022 9.998 3.6022 5.524 0 10-1.8896 10-3.6022v-3.7911c0-1.7166-4.478-3.6062-10-3.6062" style="opacity:.1"/>
 <path d="m23.998 18.5c-5.521 0-9.998 1.8896-9.998 3.6062v3.7911c0 1.7126 4.478 3.6022 9.998 3.6022 5.524 0 10-1.8896 10-3.6022v-3.7911c0-1.7166-4.478-3.6062-10-3.6062" style="fill:#999"/>
 <path d="m15.563 21.188c-0.349 0.327-0.563 0.64-0.563 1 0 1.657 4.03 3.313 9 3.313 4.971 0 9-1.656 9-3.313 0-0.365-0.204-0.7-0.563-1.032-1.774 1.043-4.871 1.844-8.438 1.844-3.541 0-6.658-0.778-8.438-1.812z" style="fill:#d2d2d2"/>
 <path d="m24.998 13c-5.521 0-9.998 1.8908-9.998 3.6074v3.791c0 1.7126 4.478 3.6016 9.998 3.6016 3.9363 0 7.3312-0.95963 8.9629-2.1309-0.028192-0.11037-0.068504-0.22122-0.12891-0.33203 0.10584 0.071174 0.19062 0.14402 0.2832 0.2168 0.5624-0.43935 0.88281-0.90267 0.88281-1.3555v-3.791c0-1.7166-4.478-3.6074-10-3.6074z" style="opacity:.1"/>
 <path d="m37 32a5.0001 5 0 1 1-10 0 5.0001 5 0 1 1 10 0z" style="fill:#36ab27"/>
 <path d="m35 32-5 2.4999v-4.9999l2.5 1.25z" style="fill:#ddd"/>
 <path d="m23.998 12c-5.521 0-9.998 1.8896-9.998 3.6062v3.7911c0 1.7126 4.478 3.6022 9.998 3.6022 5.524 0 10-1.8896 10-3.6022v-3.7911c0-1.7166-4.478-3.6062-10-3.6062" style="fill:#999"/>
 <path d="m33 15.7c0 1.657-4.03 3.3-9 3.3-4.971 0-9-1.643-9-3.3s4.03-3.1 9-3.1c4.971 0 9 1.443 9 3.1z" style="fill:#d2d2d2"/>
</svg>
