<svg version="1.1" viewBox="0 0 48 48" xmlns="http://www.w3.org/2000/svg">
 <defs>
  <linearGradient id="bg" x2="0" y1="1" y2="47" gradientUnits="userSpaceOnUse">
   <stop style="stop-color:#e1efef" offset="0"/>
   <stop style="stop-color:#d3e8e8" offset="1"/>
  </linearGradient>
 </defs>
 <path d="m36.3 5c5.86 4.06 9.69 10.8 9.69 18.5 0 12.4-10.1 22.5-22.5 22.5-7.67 0-14.4-3.83-18.5-9.69 1.04 1.82 2.31 3.5 3.78 4.97 4.08 3.71 9.51 5.97 15.5 5.97 12.7 0 23-10.3 23-23 0-5.95-2.26-11.4-5.97-15.5-1.47-1.48-3.15-2.74-4.97-3.78zm4.97 3.78c3.85 4.11 6.22 9.64 6.22 15.7 0 12.7-10.3 23-23 23-6.08 0-11.6-2.36-15.7-6.22 4.16 4.14 9.88 6.72 16.2 6.72 12.7 0 23-10.3 23-23 0-6.34-2.58-12.1-6.72-16.2z" style="opacity:.05"/>
 <path d="m41.3 8.78c3.71 4.08 5.97 9.51 5.97 15.5 0 12.7-10.3 23-23 23-5.95 0-11.4-2.26-15.5-5.97 4.11 3.85 9.64 6.22 15.7 6.22 12.7 0 23-10.3 23-23 0-6.08-2.36-11.6-6.22-15.7z" style="opacity:.1"/>
 <path d="m31.2 2.38c8.62 3.15 14.8 11.4 14.8 21.1 0 12.4-10.1 22.5-22.5 22.5-9.71 0-18-6.14-21.1-14.8a23 23 0 0 0 44.9-7 23 23 0 0 0-16-21.9z" style="opacity:.2"/>
 <circle cx="24" cy="24" r="23" style="fill:url(#bg)"/>
 <path d="m24 12c-6 0-7 4-8 7 2.71 0 3.92-0.898 4.97-2h4.53c1.94 0 3.5 1.56 3.5 3.5s-1.56 3.5-3.5 3.5h-4.5c-2.22 0-4 1.78-4 4v9c0 0.554 0.446 1 1 1h3c0.554 0 1-0.446 1-1v-8h1.06c2.49 2.53 3.92 9 7.94 9h2.97c-3.52-5.66-4.54-8.32-5.91-9.39 3.25-1.02 5.94-4.11 5.94-8.11 0-4.83-3.93-8.5-8.5-8.5z" style="opacity:.1"/>
 <path d="m40 7.53c3.71 4.08 5.97 9.51 5.97 15.5 0 12.7-10.3 23-23 23-5.95 0-11.4-2.26-15.5-5.97 4.18 4.29 10 6.97 16.5 6.97 12.7 0 23-10.3 23-23 0-6.46-2.68-12.3-6.97-16.5z" style="opacity:.1"/>
 <path d="m21 24v12c0 0.554-0.446 1-1 1h-3c-0.554 0-1-0.446-1-1v-6c0-3 5-6 5-6z" style="fill:#c43e6e"/>
 <path d="m20 11.5-0.0332 4.5h4.53c1.94 0 3.5 1.56 3.5 3.5s-1.56 3.5-3.5 3.5c7.41 3.74 8.5-3 7.5-7.52-0.789-1.48-2-2.69-3.48-3.48z" style="fill:#305c94"/>
 <path d="m20 27h5c3 0 3 2 7.97 10h-2.97c-5 0-6-10-10-10z" style="fill:#e09e52"/>
 <path d="m20 11.5-0.0332 4.5h1.91c1.33-1.45 3.01-2.9 7.65-3-0.00243-0.0013-0.00538-0.0026-0.00781-0.00391h0.475c-0.451-0.381-0.942-0.715-1.47-0.996l-8.52-0.504z" style="opacity:.1"/>
 <path d="m23 11c-6 0-7 4-8 7 6.89 0 4.09-5.81 13.5-6-1.2-0.641-2.57-1-4.02-1z" style="fill:#69c2d3"/>
 <path d="m32 15.5v1.52c0 4-3 6-7 6h-5l3 4 6.99-1c1.84-1.56 3.01-3.89 3.01-6.5 0-1.45-0.362-2.82-1-4.02z" style="fill:#63adca"/>
 <path d="m16 30v3c0-1.5 1-4 3-4h2v-1.78c0.698 0.321 1.3 0.965 1.87 1.78h2.63c0.868 0 1.7-0.13 2.49-0.369-0.877-1.21-1.62-1.63-2.99-1.63h-4s-5 0-5 3z" style="opacity:.1"/>
 <path d="m20 23c-2.22 0-4 1.78-4 4v4c0-1.5 1-3 2.5-3h6c2.1 0 4.01-0.751 5.49-2-6.99-3e-3 -6.99-3-9.99-3z" style="fill:#d37e5a"/>
</svg>
