<svg version="1.1" viewBox="0 0 48 48" xmlns="http://www.w3.org/2000/svg">
 <defs>
  <linearGradient id="bg" x2="0" y1="1" y2="47" gradientUnits="userSpaceOnUse">
   <stop style="stop-color:#17137d" offset="0"/>
   <stop style="stop-color:#14106b" offset="1"/>
  </linearGradient>
 </defs>
 <path d="m36.31 5c5.859 4.062 9.688 10.831 9.688 18.5 0 12.426-10.07 22.5-22.5 22.5-7.669 0-14.438-3.828-18.5-9.688 1.037 1.822 2.306 3.499 3.781 4.969 4.085 3.712 9.514 5.969 15.469 5.969 12.703 0 23-10.298 23-23 0-5.954-2.256-11.384-5.969-15.469-1.469-1.475-3.147-2.744-4.969-3.781zm4.969 3.781c3.854 4.113 6.219 9.637 6.219 15.719 0 12.703-10.297 23-23 23-6.081 0-11.606-2.364-15.719-6.219 4.16 4.144 9.883 6.719 16.219 6.719 12.703 0 23-10.298 23-23 0-6.335-2.575-12.06-6.719-16.219z" style="opacity:.05"/>
 <path d="m41.28 8.781c3.712 4.085 5.969 9.514 5.969 15.469 0 12.703-10.297 23-23 23-5.954 0-11.384-2.256-15.469-5.969 4.113 3.854 9.637 6.219 15.719 6.219 12.703 0 23-10.298 23-23 0-6.081-2.364-11.606-6.219-15.719z" style="opacity:.1"/>
 <path d="m31.25 2.375c8.615 3.154 14.75 11.417 14.75 21.13 0 12.426-10.07 22.5-22.5 22.5-9.708 0-17.971-6.135-21.12-14.75a23 23 0 0 0 44.875-7 23 23 0 0 0-16-21.875z" style="opacity:.2"/>
 <circle cx="24" cy="24" r="23" style="fill:url(#bg)"/>
 <path d="m40.03 7.531c3.712 4.084 5.969 9.514 5.969 15.469 0 12.703-10.297 23-23 23-5.954 0-11.384-2.256-15.469-5.969 4.178 4.291 10.01 6.969 16.469 6.969 12.703 0 23-10.298 23-23 0-6.462-2.677-12.291-6.969-16.469z" style="opacity:.1"/>
 <path d="m24.695 10.002c-4.0544 0.0024-7.9011 1.8022-10.666 4.7676-5.2354 5.6149-5.3862 14.276-0.34961 20.07 1.4507 1.6591 3.2492 2.9781 5.2676 3.8633l1.3711-3.7656c-2.7161-1.2755-4.7932-3.6052-5.75-6.4492-1.5007-4.4859 0.03449-9.429 3.8125-12.275l6.6191 8.7852c0 2e-3 9-11.998 9-11.998-2.6847-2.0231-6-3-9.3047-2.998zm6.6074 23.996c-0.51419 0.35618-1.0578 0.66786-1.625 0.93164l1.375 3.7773c0.89448-0.38987 1.7488-0.86608 2.5508-1.4219zm-3.502 1.6172c-0.59016 0.15856-1.1925 0.26765-1.8008 0.32617v4.0098c1.0751-0.0736 2.1392-0.26284 3.1738-0.56445zm-5.6035 0.0059-1.3711 3.7676c1.0344 0.30294 2.0985 0.49349 3.1738 0.56836v-4.0098c-0.60894-0.0584-1.2119-0.16751-1.8027-0.32617z" style="opacity:.1;paint-order:normal"/>
 <path d="m23.695 9.002c-4.0544 0.0024-7.9011 1.8022-10.666 4.7676-5.2354 5.6149-5.3862 14.276-0.34961 20.07 1.4507 1.6591 3.2492 2.9781 5.2676 3.8633l1.3711-3.7656c-2.7161-1.2755-4.7932-3.6052-5.75-6.4492-1.5007-4.4859 0.03449-9.429 3.8125-12.275l6.6191 8.7852c0 0.001953 9-11.998 9-11.998-2.6847-2.0231-6-3-9.3047-2.998zm6.6074 23.996c-0.51419 0.35618-1.0578 0.66786-1.625 0.93164l1.375 3.7773c0.89448-0.38987 1.7488-0.86608 2.5508-1.4219zm-3.502 1.6172c-0.59016 0.15856-1.1925 0.26765-1.8008 0.32617v4.0098c1.0751-0.0736 2.1392-0.26284 3.1738-0.56445zm-5.6035 0.0059-1.3711 3.7676c1.0344 0.30294 2.0985 0.49349 3.1738 0.56836v-4.0098c-0.60894-0.0584-1.2119-0.16751-1.8027-0.32617z" style="fill:#1fcae3;paint-order:normal"/>
</svg>
