<svg version="1.1" viewBox="0 0 48 48" xmlns="http://www.w3.org/2000/svg">
 <defs>
  <linearGradient id="bg" x1="1" x2="47" gradientTransform="matrix(0 -1 1 0 -1.5e-6 48)" gradientUnits="userSpaceOnUse">
   <stop style="stop-color:#e4e4e4" offset="0"/>
   <stop style="stop-color:#eee" offset="1"/>
  </linearGradient>
 </defs>
 <path d="m36.31 5c5.859 4.062 9.688 10.831 9.688 18.5 0 12.426-10.07 22.5-22.5 22.5-7.669 0-14.438-3.828-18.5-9.688 1.037 1.822 2.306 3.499 3.781 4.969 4.085 3.712 9.514 5.969 15.469 5.969 12.703 0 23-10.298 23-23 0-5.954-2.256-11.384-5.969-15.469-1.469-1.475-3.147-2.744-4.969-3.781zm4.969 3.781c3.854 4.113 6.219 9.637 6.219 15.719 0 12.703-10.297 23-23 23-6.081 0-11.606-2.364-15.719-6.219 4.16 4.144 9.883 6.719 16.219 6.719 12.703 0 23-10.298 23-23 0-6.335-2.575-12.06-6.719-16.219z" style="opacity:.05"/>
 <path d="m41.28 8.781c3.712 4.085 5.969 9.514 5.969 15.469 0 12.703-10.297 23-23 23-5.954 0-11.384-2.256-15.469-5.969 4.113 3.854 9.637 6.219 15.719 6.219 12.703 0 23-10.298 23-23 0-6.081-2.364-11.606-6.219-15.719z" style="opacity:.1"/>
 <path d="m31.25 2.375c8.615 3.154 14.75 11.417 14.75 21.13 0 12.426-10.07 22.5-22.5 22.5-9.708 0-17.971-6.135-21.12-14.75a23 23 0 0 0 44.875-7 23 23 0 0 0-16-21.875z" style="opacity:.2"/>
 <path d="m24 1c12.703 0 23 10.297 23 23s-10.297 23-23 23-23-10.297-23-23 10.297-23 23-23z" style="fill:url(#bg)"/>
 <path d="m25 10a12 15 0 0 0-12 15 12 15 0 0 0 12 15 12 15 0 0 0 12-15 12 15 0 0 0-12-15m0 2a10 13 0 0 1 10 13 10 13 0 0 1-10 13 10 13 0 0 1-10-13 10 13 0 0 1 10-13m0 1.9c-0.554 0-1 0.446-1 1v2c0 0.554 0.446 1 1 1s1-0.446 1-1v-2c0-0.554-0.446-1-1-1zm-4.725 2.5c-0.262 0-0.524 0.1-0.725 0.301-0.401 0.401-0.401 1.048 0 1.449l1.45 1.45c0.401 0.401 1.048 0.401 1.449 0s0.401-1.048 0-1.449l-1.449-1.45c-0.201-0.201-0.463-0.301-0.725-0.301zm9.449 0c-0.262 0-0.524 0.1-0.725 0.301l-1.449 1.449c-0.401 0.401-0.401 1.048 0 1.449s1.048 0.401 1.449 0l1.449-1.449c0.401-0.401 0.401-1.048 0-1.449-0.201-0.201-0.463-0.301-0.725-0.301zm-4.742 3.1a1 1 0 0 0-0.814 0.445l-5 7.5a1 1 0 0 0 0 1.109l1.832 2.746v2.7a1 1 0 0 0 1 1h6a1 1 0 0 0 1-1v-2.697l1.832-2.748a1 1 0 0 0 0-1.109l-5-7.5a1 1 0 0 0-0.85-0.446m0.018 2.803 3.799 5.697-1.629 2.445a1 1 0 0 0-0.17 0.555v2h-4v-2a1 1 0 0 0-0.168-0.555l-1.632-2.445 3.8-5.697m0 4.697c-0.554 0-1 0.446-1 1v1c0 0.554 0.446 1 1 1s1-0.446 1-1v-1c0-0.554-0.446-1-1-1z" style="opacity:.1"/>
 <path d="m40.03 7.531c3.712 4.084 5.969 9.514 5.969 15.469 0 12.703-10.297 23-23 23-5.954 0-11.384-2.256-15.469-5.969 4.178 4.291 10.01 6.969 16.469 6.969 12.703 0 23-10.298 23-23 0-6.462-2.677-12.291-6.969-16.469z" style="opacity:.1"/>
 <path d="m24 9a12 15 0 0 0-12 15 12 15 0 0 0 12 15 12 15 0 0 0 12-15 12 15 0 0 0-12-15zm0 2a10 13 0 0 1 10 13 10 13 0 0 1-10 13 10 13 0 0 1-10-13 10 13 0 0 1 10-13z" style="fill:#e84444"/>
 <path d="m23.982 18.5a1 1 0 0 0-0.81445 0.44531l-5 7.5a1 1 0 0 0 0 1.1094l1.832 2.7461v2.6992a1 1 0 0 0 1 1h6a1 1 0 0 0 1-1v-2.6973l1.832-2.748a1 1 0 0 0 0-1.1094l-5-7.5a1 1 0 0 0-0.84961-0.44531zm0.017578 2.8027 3.7988 5.6973-1.6289 2.4453a1 1 0 0 0-0.16992 0.55469v2h-4v-2a1 1 0 0 0-0.16797-0.55469l-1.6328-2.4453 3.8008-5.6973zm0 4.6973c-0.554 0-1 0.446-1 1v1c0 0.554 0.446 1 1 1s1-0.446 1-1v-1c0-0.554-0.446-1-1-1z" style="fill:#474747"/>
 <rect x="23" y="12.9" width="2" height="4" rx="1" style="fill:#989730"/>
 <rect transform="rotate(-45)" x=".99249" y="24.219" width="2.049" height="4.098" rx="1.024" ry="1.025" style="fill:#989730"/>
 <rect transform="matrix(-.70711 -.70711 -.70711 .70711 0 0)" x="-32.955" y="-9.7215" width="2.049" height="4.098" rx="1.024" ry="1.025" style="fill:#989730"/>
</svg>
