<svg xmlns="http://www.w3.org/2000/svg" viewBox="0 0 48 48">
 <defs>
  <linearGradient id="linearGradient3764" x1="1" x2="47" gradientUnits="userSpaceOnUse" gradientTransform="matrix(0,-1,1,0,-1.5e-6,47.999998)">
   <stop style="stop-color:#734115;stop-opacity:1"/>
   <stop offset="1" style="stop-color:#834a18;stop-opacity:1"/>
  </linearGradient>
 </defs>
 <g>
  <path d="m 36.31 5 c 5.859 4.062 9.688 10.831 9.688 18.5 c 0 12.426 -10.07 22.5 -22.5 22.5 c -7.669 0 -14.438 -3.828 -18.5 -9.688 c 1.037 1.822 2.306 3.499 3.781 4.969 c 4.085 3.712 9.514 5.969 15.469 5.969 c 12.703 0 23 -10.298 23 -23 c 0 -5.954 -2.256 -11.384 -5.969 -15.469 c -1.469 -1.475 -3.147 -2.744 -4.969 -3.781 z m 4.969 3.781 c 3.854 4.113 6.219 9.637 6.219 15.719 c 0 12.703 -10.297 23 -23 23 c -6.081 0 -11.606 -2.364 -15.719 -6.219 c 4.16 4.144 9.883 6.719 16.219 6.719 c 12.703 0 23 -10.298 23 -23 c 0 -6.335 -2.575 -12.06 -6.719 -16.219 z" style="opacity:0.05"/>
  <path d="m 41.28 8.781 c 3.712 4.085 5.969 9.514 5.969 15.469 c 0 12.703 -10.297 23 -23 23 c -5.954 0 -11.384 -2.256 -15.469 -5.969 c 4.113 3.854 9.637 6.219 15.719 6.219 c 12.703 0 23 -10.298 23 -23 c 0 -6.081 -2.364 -11.606 -6.219 -15.719 z" style="opacity:0.1"/>
  <path d="m 31.25 2.375 c 8.615 3.154 14.75 11.417 14.75 21.13 c 0 12.426 -10.07 22.5 -22.5 22.5 c -9.708 0 -17.971 -6.135 -21.12 -14.75 a 23 23 0 0 0 44.875 -7 a 23 23 0 0 0 -16 -21.875 z" style="opacity:0.2"/>
 </g>
 <g>
  <path d="m 24 1 c 12.703 0 23 10.297 23 23 c 0 12.703 -10.297 23 -23 23 -12.703 0 -23 -10.297 -23 -23 0 -12.703 10.297 -23 23 -23 z" style="fill:url(#linearGradient3764);fill-opacity:1"/>
 </g>
 <g>
  <g>
   <g transform="translate(1,1)">
    <g style="opacity:0.1">
     <!-- color: #834a18 -->
     <g>
      <path d="m 23.352 38.836 c -0.875 -0.355 -1.336 -1.688 -1.01 -2.926 0.184 -0.688 0.02 -0.797 -0.547 -0.391 -0.184 0.129 -0.945 0.453 -1.707 0.719 -1.895 0.668 -3.656 0.691 -4.73 0.07 -1.355 -0.793 -1.852 -2.16 -1.496 -4.18 0.105 -0.586 0.238 -1.203 0.297 -1.371 0.066 -0.164 -0.227 0.02 -0.645 0.414 -0.813 0.77 -1.352 0.996 -1.992 0.828 -1.168 -0.305 -1.457 -2.629 -0.586 -4.738 0.289 -0.703 0.289 -0.734 -0.008 -1.113 -0.895 -1.152 -0.758 -2.68 0.434 -4.852 0.816 -1.48 0.855 -1.543 0.984 -1.402 0.051 0.051 -0.09 0.398 -0.316 0.77 -0.484 0.809 -1.164 2.449 -1.316 3.23 -0.184 0.855 0.164 1.559 0.758 1.559 0.266 0 0.699 -0.121 0.969 -0.266 1.971 -1.545 3.121 -2.69 4.793 -4.332 -0.896 -0.802 -1.915 -1.539 -2.769 -2.148 -1.793 -1.273 -2.039 -1.645 -1.785 -2.711 0.141 -0.594 0.262 -0.695 1.742 -1.48 l 1.586 -0.836 -0.34 -0.379 c -0.258 -0.285 -0.313 -0.5 -0.23 -0.887 0.059 -0.281 0.195 -0.586 0.301 -0.68 0.625 -0.539 7.03 -2.891 7.25 -2.664 0.18 0.184 -0.195 0.375 -2 1.02 -2 0.715 -4.988 1.938 -5.188 2.125 -0.07 0.066 0.004 0.379 0.164 0.699 0.16 0.316 0.301 0.598 0.313 0.629 0.016 0.027 1 -0.297 2.203 -0.719 2.828 -0.996 6.484 -1.965 7.414 -1.965 0.57 0 0.828 0.098 1.152 0.434 0.352 0.371 0.398 0.527 0.305 1.063 -0.133 0.727 -0.68 1.531 -1.621 2.383 -0.367 0.328 -1.172 1.137 -1.789 1.797 l -1.125 1.199 0.418 -0.848 c 0.5 -1.02 1.156 -1.77 2.523 -2.875 0.559 -0.453 1.02 -0.926 1.02 -1.055 0 -0.504 -0.637 -0.906 -1.43 -0.906 -1.613 0 -6.375 1.461 -9.906 3.043 -2.586 1.156 -2.637 1.219 -1.535 1.797 1.039 0.551 4.191 2.555 4.59 2.922 0.254 0.234 0.363 0.223 1.121 -0.105 0.465 -0.199 0.949 -0.363 1.082 -0.363 0.18 0 0.219 -0.117 0.141 -0.465 -0.055 -0.258 -0.203 -1.117 -0.328 -1.91 -0.125 -0.793 -0.27 -1.633 -0.324 -1.863 -0.051 -0.234 -0.039 -0.691 0.031 -1.016 l 0.125 -0.59 0.605 1.012 c 0.645 1.074 0.813 1.66 0.359 1.27 -0.398 -0.34 -0.473 -0.063 -0.281 1.023 0.266 1.473 0.512 1.898 1.387 2.379 0.832 0.453 1.012 0.746 0.848 1.406 -0.098 0.398 -0.117 0.406 -0.578 0.172 -0.559 -0.289 -2.086 -0.348 -2.52 -0.098 -0.266 0.156 -0.211 0.238 0.488 0.746 0.434 0.316 1.676 1.23 2.762 2.039 1.934 1.445 1.977 1.465 2.031 1.027 0.027 -0.246 -0.027 -2.113 -0.125 -4.152 -0.152 -3.109 -0.141 -3.773 0.051 -4.16 l 0.227 -0.449 0.277 0.672 c 0.953 2.34 1.086 3.078 0.402 2.27 l -0.34 -0.406 0.094 2.629 c 0.055 1.445 0.145 3.109 0.199 3.699 0.098 1.027 0.125 1.082 0.723 1.398 0.742 0.395 1.266 0.418 2.027 0.086 0.551 -0.238 0.566 -0.273 0.566 -1.195 -0.137 -2.855 -0.453 -5.609 -0.652 -8.484 -0.102 -1.492 -0.25 -3.387 -0.328 -4.207 -0.098 -1.016 -0.09 -1.641 0.031 -1.953 0.172 -0.445 0.191 -0.422 0.801 0.902 0.348 0.746 0.629 1.508 0.629 1.695 -0.004 0.293 -0.055 0.273 -0.418 -0.172 l -0.414 -0.508 0.094 1.102 c 0.051 0.609 0.281 3.297 0.512 5.977 0.527 6.188 0.398 7.32 -0.93 8.04 -0.504 0.27 -1.402 0.266 -2.238 -0.02 -0.328 -0.109 -0.371 -0.086 -0.293 0.191 0.051 0.176 0.137 1.16 0.195 2.188 0.113 1.934 -0.078 4.066 -0.453 5.01 -0.176 0.457 -0.203 0.195 -0.203 -1.988 0.01 -2.063 -0.124 -4.113 -0.278 -6.168 l -1.113 -0.887 c -0.613 -0.488 -1.852 -1.488 -2.758 -2.219 -0.902 -0.727 -1.645 -1.277 -1.645 -1.227 0 0.051 0.238 0.531 0.527 1.063 0.398 0.738 0.523 1.168 0.52 1.82 -0.008 1.621 -0.699 2.379 -2.629 2.883 -1.277 0.332 -2.738 1.074 -3.422 1.742 -0.918 0.891 -1.113 3.301 -0.371 4.555 0.828 1.398 3.316 1.77 5.676 0.855 2.102 -0.816 3.941 -2.078 3.941 -2.707 0 -0.211 -0.301 -1.211 -0.664 -2.223 -0.531 -1.465 -0.645 -1.969 -0.555 -2.449 l 0.109 -0.609 0.715 0.848 c 0.789 0.941 0.883 1.18 0.395 1.02 -0.371 -0.121 -0.402 0.031 -0.145 0.711 0.836 2.191 0.707 3.355 -0.512 4.535 -0.852 0.824 -1.141 1.523 -1.145 2.742 0 0.762 0.363 1.258 0.934 1.258 0.52 0 1.594 -0.91 2.652 -2.262 1.168 -1.484 1.934 -2.066 3.672 -2.832 0.723 -0.316 1.367 -0.629 1.445 -0.695 0.078 -0.066 0.156 -0.645 0.176 -1.281 0.043 -1.277 0.359 -2.102 0.98 -2.523 0.301 -0.203 0.469 -0.227 0.723 -0.082 0.313 0.168 0.668 1.098 0.668 1.719 0.004 0.645 -0.555 1.973 -1 2.387 l -0.48 0.445 0.363 0.355 c 0.473 0.449 0.844 0.449 1.73 0.008 0.445 -0.23 0.738 -0.5 0.801 -0.758 0.051 -0.219 0.02 -1.797 -0.082 -3.504 -0.16 -2.77 -0.781 -12.969 -0.855 -14.05 -0.02 -0.234 0.023 -0.684 0.098 -0.996 0.152 -0.688 0.211 -0.613 0.918 1.141 0.539 1.336 0.531 1.68 -0.016 1.023 l -0.348 -0.406 0.098 1.273 c 0.047 0.699 0.168 2.492 0.262 3.988 0.094 1.492 0.207 2.902 0.246 3.137 0.207 1.25 0.27 7.113 0.078 8.06 -0.316 1.605 -1.301 2.633 -2.5 2.633 -0.43 0 -0.996 -0.563 -1.164 -1.148 -0.148 -0.508 -0.324 -0.488 -1.914 0.242 -1.781 0.82 -2.855 1.66 -3.973 3.113 -1.227 1.602 -1.875 2 -2.688 1.672 m 9.465 -7.215 c 0.438 -0.383 0.5 -0.535 0.418 -0.965 -0.148 -0.785 -0.547 -1.16 -0.973 -0.93 -0.504 0.277 -0.602 0.492 -0.492 1.156 0.215 1.371 0.273 1.414 1.047 0.738 m -20.13 -1.016 c 0.352 -0.242 1.113 -0.918 1.699 -1.504 1.266 -1.262 2.215 -1.793 4.293 -2.391 1.492 -0.43 2.227 -0.867 2.227 -1.313 0 -0.418 -1.207 -2.316 -1.969 -3.098 l -0.785 -0.809 -0.457 0.316 c -0.25 0.168 -1.227 1.059 -2.18 1.973 -2.152 2.082 -2.871 2.652 -3.52 2.785 -0.453 0.09 -0.559 0.227 -0.879 1.141 -0.422 1.203 -0.508 2.648 -0.18 3.063 0.328 0.41 1.027 0.344 1.75 -0.164 m 0.664 -2.043 c -0.199 -0.207 -0.113 -1.355 0.145 -2 0.141 -0.352 0.289 -0.602 0.328 -0.559 0.039 0.043 -0.047 0.375 -0.191 0.742 -0.148 0.363 -0.254 0.691 -0.242 0.727 0.016 0.035 0.105 0.223 0.203 0.414 0.176 0.336 0.188 0.336 0.402 0.027 0.273 -0.387 0.289 -0.246 0.035 0.332 -0.184 0.422 -0.461 0.551 -0.68 0.32 m 2.363 -3.383 c -0.102 -0.074 0.504 -0.914 0.66 -0.914 0.09 0 0.367 0.152 0.621 0.34 l 0.457 0.34 0.32 -0.457 c 0.316 -0.449 0.328 -0.453 0.758 -0.16 0.59 0.402 0.668 0.691 0.313 1.18 l -0.297 0.41 -1.055 -0.836 -0.75 0.906 m 10.332 12.586 c 0.43 -0.645 0.477 -1.113 0.094 -0.961 -0.223 0.09 -0.234 0.051 -0.074 -0.262 0.391 -0.762 0.836 -0.191 0.504 0.645 -0.109 0.273 -0.352 0.633 -0.539 0.805 -0.332 0.301 -0.332 0.293 0.016 -0.227 m 2.879 -0.938 c -0.219 -0.48 -0.465 -0.754 -0.734 -0.82 -0.461 -0.109 -0.699 -1.016 -0.266 -1.016 0.254 0 1.25 1.086 1.25 1.363 0 0.09 0.074 0.164 0.164 0.164 0.09 0 0.164 -0.176 0.164 -0.387 0 -0.414 0.563 -1.48 0.777 -1.48 0.262 0 0.527 0.414 0.527 0.82 0 0.406 -0.008 0.41 -0.332 0.105 -0.422 -0.398 -0.563 -0.246 -0.93 0.988 l -0.289 0.977 m -17.789 -4.223 c 0.328 -0.668 0.328 -1.047 -0.008 -1.047 -0.215 0 -0.227 -0.047 -0.063 -0.254 0.23 -0.293 0.59 -0.332 0.73 -0.086 0.121 0.199 -0.453 1.602 -0.727 1.777 -0.121 0.078 -0.094 -0.078 0.063 -0.391 m 3.984 -0.664 c -0.125 -0.34 -0.125 -0.723 0.004 -1.391 0.098 -0.504 0.148 -0.953 0.105 -0.996 -0.039 -0.039 -0.332 0.086 -0.648 0.277 -0.438 0.273 -0.578 0.301 -0.578 0.117 0 -0.129 0.676 -0.641 1.504 -1.141 1.832 -1.102 1.781 -1.078 1.656 -0.742 -0.055 0.152 -0.41 0.461 -0.789 0.695 -0.52 0.316 -0.734 0.582 -0.879 1.074 -0.238 0.824 -0.238 1.305 -0.004 1.762 0.18 0.348 0.188 0.348 0.41 0.039 0.262 -0.375 0.277 -0.27 0.063 0.332 -0.207 0.57 -0.617 0.555 -0.844 -0.031 m 2.883 -1.297 c -0.438 -0.363 -0.465 -0.441 -0.289 -0.848 0.23 -0.523 0.469 -0.551 1.02 -0.113 0.344 0.277 0.379 0.387 0.238 0.789 -0.211 0.621 -0.391 0.652 -0.969 0.172 m 2.355 -0.125 c -0.227 -0.43 -0.078 -1.582 0.27 -2.184 l 0.246 -0.426 -0.098 0.426 c -0.27 1.141 -0.281 1.535 -0.074 1.793 0.195 0.25 0.234 0.246 0.426 -0.031 0.254 -0.359 0.273 -0.246 0.055 0.348 -0.188 0.527 -0.574 0.566 -0.824 0.074 m 6.219 -0.508 c 0.09 -0.176 0.246 -0.32 0.344 -0.32 0.102 0 0.055 -0.148 -0.105 -0.336 -0.273 -0.313 -0.277 -0.359 -0.023 -0.758 0.359 -0.574 1.016 -1 1.336 -0.875 0.395 0.16 0.168 0.535 -0.293 0.48 -0.227 -0.023 -0.504 0.074 -0.621 0.223 -0.344 0.43 0.055 0.664 1.063 0.621 0.738 -0.031 0.875 0.008 0.797 0.219 -0.055 0.141 -0.254 0.258 -0.445 0.262 -0.188 0 -0.77 0.184 -1.281 0.402 -0.855 0.367 -0.922 0.375 -0.77 0.082 m 9.09 -1.629 c 0.031 -1.078 -0.063 -3.992 -0.211 -6.477 -0.344 -5.77 -0.359 -6.59 -0.145 -6.816 0.129 -0.129 0.344 0.234 0.773 1.297 0.609 1.516 0.645 2.01 0.09 1.258 l -0.309 -0.422 -0.004 0.68 c 0 0.371 0.105 2.203 0.238 4.07 0.313 4.367 0.309 6.246 -0.004 7.344 -0.137 0.48 -0.301 0.906 -0.367 0.945 -0.063 0.043 -0.09 -0.805 -0.063 -1.879 m -17.906 -0.164 c 0.004 -0.078 0.547 -0.586 1.211 -1.133 0.664 -0.551 1.445 -1.258 1.742 -1.574 0.469 -0.504 0.512 -0.625 0.34 -0.91 -0.27 -0.445 -0.254 -0.93 0.039 -1.18 0.332 -0.289 0.578 -0.074 0.578 0.504 0 0.266 0.07 0.535 0.16 0.594 0.297 0.188 0.188 0.621 -0.129 0.52 -0.203 -0.066 -0.375 0.055 -0.578 0.41 -0.363 0.645 -3.379 3.121 -3.363 2.773 m 3.664 -4.293 c -0.055 -0.098 -0.172 -0.176 -0.254 -0.176 -0.086 0 -0.152 0.078 -0.152 0.176 0 0.09 0.113 0.168 0.254 0.168 0.137 0 0.207 -0.078 0.152 -0.168 m 7.215 3.02 c 0.527 -0.273 0.453 -0.531 -0.121 -0.445 -0.547 0.086 -0.645 -0.105 -0.188 -0.363 0.32 -0.176 1.492 -0.055 1.492 0.156 0 0.234 -0.578 0.637 -1.063 0.738 -0.445 0.094 -0.457 0.086 -0.125 -0.086 m -20.602 -1.23 c 0.492 -0.875 0.508 -0.945 0.18 -0.945 -0.313 0 -0.316 -0.238 -0.008 -0.504 0.289 -0.25 0.578 -0.094 0.578 0.309 0 0.309 -0.898 1.891 -1.074 1.891 -0.055 0 0.094 -0.34 0.324 -0.75 m 21.777 -0.55 c 0.233 -0.31 0.469 -0.618 0.704 -0.926 l 0.773 0.758 0.418 -0.406 c 0.438 -0.43 0.762 -0.359 1.121 0.23 0.133 0.219 0.09 0.367 -0.184 0.648 l -0.352 0.363 c -0.317 -0.237 -0.635 -0.472 -0.953 -0.707 -0.261 0.286 -0.532 0.562 -0.801 0.84 m 0.145 -3.68 c -0.02 -0.902 -0.082 -1.68 -0.133 -1.738 -0.055 -0.055 -0.387 0.074 -0.738 0.285 -0.887 0.531 -0.809 0.23 0.094 -0.363 0.57 -0.375 0.715 -0.563 0.66 -0.848 -0.199 -2.159 -0.282 -4.346 -0.422 -6.531 -0.148 -2.277 -0.102 -3.254 0.145 -3.25 0.105 0.004 0.863 1.777 1.086 2.543 0.121 0.426 0.121 0.426 -0.227 0.102 -0.191 -0.18 -0.375 -0.293 -0.41 -0.254 0.021 1.673 0.207 3.295 0.316 5.079 0.129 2.086 0.156 2.164 0.566 1.773 0.293 -0.27 0.301 -0.336 0.078 -0.59 -0.141 -0.156 -0.246 -0.395 -0.246 -0.539 0 -0.34 0.586 -0.883 0.805 -0.742 0.207 0.137 0.191 1.789 -0.016 1.789 -0.086 0 -0.328 0.211 -0.547 0.473 -0.332 0.391 -0.398 0.645 -0.398 1.598 -0.008 1.117 -0.301 2.852 -0.484 2.852 -0.051 0 -0.109 -0.734 -0.129 -1.637 m 1.484 -4.387 c -0.105 -0.27 -0.387 -0.355 -0.387 -0.113 0 0.18 0.18 0.367 0.348 0.367 0.07 0 0.09 -0.113 0.035 -0.254 m 4.742 5.664 c -0.316 -0.516 0.184 -3.035 0.594 -3.035 0.074 0 -0.008 0.324 -0.18 0.723 -0.355 0.805 -0.398 1.273 -0.156 1.652 0.145 0.227 0.18 0.227 0.32 0 0.199 -0.328 0.211 -0.141 0.008 0.414 -0.168 0.461 -0.402 0.559 -0.586 0.246 m -10.684 -1.094 c -0.086 -0.242 -0.152 -0.504 -0.152 -0.59 0 -0.281 0.684 -2.055 0.766 -1.973 0.039 0.043 -0.051 0.457 -0.211 0.914 -0.305 0.895 -0.223 1.504 0.184 1.34 0.293 -0.113 0.324 0.25 0.047 0.539 -0.293 0.305 -0.449 0.25 -0.625 -0.23 m -3.742 -1.254 c -0.195 -0.383 0.184 -1.789 0.602 -2.215 0.223 -0.227 0.227 -0.211 0.047 0.152 -0.375 0.762 -0.492 1.422 -0.297 1.668 0.152 0.188 0.211 0.191 0.32 0.012 0.105 -0.168 0.137 -0.16 0.137 0.043 0.004 0.277 -0.301 0.672 -0.512 0.672 -0.07 0 -0.203 -0.148 -0.297 -0.332 m -10.199 -0.246 c -0.25 -0.391 -0.25 -0.496 -0.016 -1.324 0.145 -0.496 0.332 -1.012 0.422 -1.152 0.215 -0.34 0.203 -0.227 -0.07 0.707 -0.316 1.098 -0.125 1.805 0.359 1.305 0.137 -0.145 0.164 -0.102 0.094 0.164 -0.164 0.652 -0.492 0.777 -0.789 0.305 m -4.648 -0.934 c 0 -0.09 0.344 -0.367 0.766 -0.625 0.422 -0.254 1.082 -0.77 1.473 -1.145 0.68 -0.652 0.695 -0.688 0.422 -1 -0.258 -0.293 -0.262 -0.367 -0.039 -0.777 0.137 -0.25 0.371 -0.477 0.527 -0.512 0.219 -0.043 0.277 0.07 0.277 0.543 0 0.328 0.074 0.641 0.164 0.699 0.262 0.172 0.188 0.625 -0.094 0.566 -0.141 -0.031 -0.617 0.305 -1.055 0.742 -0.785 0.789 -2.441 1.813 -2.441 1.512 m 3.035 -3.539 c -0.164 -0.172 -0.301 0.09 -0.164 0.316 0.102 0.176 0.141 0.176 0.195 0 0.035 -0.117 0.023 -0.258 -0.031 -0.316 m -1.781 1.199 c -0.172 -0.176 -0.129 -1.043 0.051 -1.16 0.094 -0.059 0.164 0.09 0.164 0.352 0 0.383 0.039 0.422 0.246 0.242 0.133 -0.117 0.242 -0.137 0.242 -0.047 0 0.242 -0.578 0.746 -0.703 0.613 m 7.559 -1.234 c -0.191 -0.484 -0.816 -1.211 -0.816 -0.949 0 0.074 -0.113 0.039 -0.246 -0.078 -0.328 -0.281 -0.313 -0.848 0.02 -0.848 0.145 0 0.504 0.273 0.801 0.609 l 0.535 0.609 0.191 -0.945 c 0.207 -1.055 0.438 -1.324 0.75 -0.879 0.25 0.355 0.117 0.895 -0.148 0.617 -0.32 -0.336 -0.395 -0.191 -0.508 1 -0.125 1.34 -0.289 1.582 -0.578 0.863 m 9.465 -1.012 c -0.191 -0.375 -0.035 -1.422 0.301 -1.98 0.176 -0.289 0.191 -0.281 0.074 0.098 -0.227 0.785 -0.164 1.445 0.133 1.422 0.211 -0.016 0.246 0.059 0.148 0.328 -0.172 0.488 -0.445 0.543 -0.656 0.133 m 2.957 -0.055 c -0.25 -0.258 -0.227 -0.91 0.055 -1.66 l 0.23 -0.594 -0.098 0.715 c -0.109 0.863 0.039 1.453 0.277 1.063 0.129 -0.211 0.152 -0.207 0.156 0.027 0.004 0.414 -0.387 0.695 -0.621 0.449 m -7.367 -1.828 c -0.137 -0.262 -0.098 -0.527 0.176 -1.18 0.191 -0.465 0.449 -0.934 0.574 -1.043 0.32 -0.273 0.285 -0.121 -0.16 0.695 -0.414 0.758 -0.414 1.527 0 1.172 0.27 -0.23 0.289 -0.086 0.059 0.367 -0.219 0.418 -0.43 0.414 -0.648 -0.012 m -10.01 -0.285 c -0.195 -0.203 -0.109 -1.25 0.141 -1.758 0.359 -0.723 0.445 -0.617 0.141 0.176 -0.262 0.684 -0.207 1.301 0.102 1.105 0.09 -0.063 0.164 -0.035 0.164 0.051 0 0.23 -0.418 0.559 -0.547 0.426 m 13.145 -4.855 c 0.68 -0.281 0.539 -0.516 -0.246 -0.406 l -0.691 0.094 0.383 -0.328 c 0.566 -0.477 1.656 -0.406 1.656 0.113 0 0.27 -0.832 0.758 -1.258 0.73 -0.203 -0.012 -0.156 -0.074 0.156 -0.203" style="fill:#000;fill-opacity:1;stroke:none;fill-rule:nonzero"/>
     </g>
    </g>
   </g>
  </g>
 </g>
 <g>
  <g>
   <!-- color: #834a18 -->
   <g>
    <path d="m 23.352 38.836 c -0.875 -0.355 -1.336 -1.688 -1.01 -2.926 0.184 -0.688 0.02 -0.797 -0.547 -0.391 -0.184 0.129 -0.945 0.453 -1.707 0.719 -1.895 0.668 -3.656 0.691 -4.73 0.07 -1.355 -0.793 -1.852 -2.16 -1.496 -4.18 0.105 -0.586 0.238 -1.203 0.297 -1.371 0.066 -0.164 -0.227 0.02 -0.645 0.414 -0.813 0.77 -1.352 0.996 -1.992 0.828 -1.168 -0.305 -1.457 -2.629 -0.586 -4.738 0.289 -0.703 0.289 -0.734 -0.008 -1.113 -0.895 -1.152 -0.758 -2.68 0.434 -4.852 0.816 -1.48 0.855 -1.543 0.984 -1.402 0.051 0.051 -0.09 0.398 -0.316 0.77 -0.484 0.809 -1.164 2.449 -1.316 3.23 -0.184 0.855 0.164 1.559 0.758 1.559 0.266 0 0.699 -0.121 0.969 -0.266 1.971 -1.545 3.121 -2.69 4.793 -4.332 -0.896 -0.802 -1.915 -1.539 -2.769 -2.148 -1.793 -1.273 -2.039 -1.645 -1.785 -2.711 0.141 -0.594 0.262 -0.695 1.742 -1.48 l 1.586 -0.836 -0.34 -0.379 c -0.258 -0.285 -0.313 -0.5 -0.23 -0.887 0.059 -0.281 0.195 -0.586 0.301 -0.68 0.625 -0.539 7.03 -2.891 7.25 -2.664 0.18 0.184 -0.195 0.375 -2 1.02 -2 0.715 -4.988 1.938 -5.188 2.125 -0.07 0.066 0.004 0.379 0.164 0.699 0.16 0.316 0.301 0.598 0.313 0.629 0.016 0.027 1 -0.297 2.203 -0.719 2.828 -0.996 6.484 -1.965 7.414 -1.965 0.57 0 0.828 0.098 1.152 0.434 0.352 0.371 0.398 0.527 0.305 1.063 -0.133 0.727 -0.68 1.531 -1.621 2.383 -0.367 0.328 -1.172 1.137 -1.789 1.797 l -1.125 1.199 0.418 -0.848 c 0.5 -1.02 1.156 -1.77 2.523 -2.875 0.559 -0.453 1.02 -0.926 1.02 -1.055 0 -0.504 -0.637 -0.906 -1.43 -0.906 -1.613 0 -6.375 1.461 -9.906 3.043 -2.586 1.156 -2.637 1.219 -1.535 1.797 1.039 0.551 4.191 2.555 4.59 2.922 0.254 0.234 0.363 0.223 1.121 -0.105 0.465 -0.199 0.949 -0.363 1.082 -0.363 0.18 0 0.219 -0.117 0.141 -0.465 -0.055 -0.258 -0.203 -1.117 -0.328 -1.91 -0.125 -0.793 -0.27 -1.633 -0.324 -1.863 -0.051 -0.234 -0.039 -0.691 0.031 -1.016 l 0.125 -0.59 0.605 1.012 c 0.645 1.074 0.813 1.66 0.359 1.27 -0.398 -0.34 -0.473 -0.063 -0.281 1.023 0.266 1.473 0.512 1.898 1.387 2.379 0.832 0.453 1.012 0.746 0.848 1.406 -0.098 0.398 -0.117 0.406 -0.578 0.172 -0.559 -0.289 -2.086 -0.348 -2.52 -0.098 -0.266 0.156 -0.211 0.238 0.488 0.746 0.434 0.316 1.676 1.23 2.762 2.039 1.934 1.445 1.977 1.465 2.031 1.027 0.027 -0.246 -0.027 -2.113 -0.125 -4.152 -0.152 -3.109 -0.141 -3.773 0.051 -4.16 l 0.227 -0.449 0.277 0.672 c 0.953 2.34 1.086 3.078 0.402 2.27 l -0.34 -0.406 0.094 2.629 c 0.055 1.445 0.145 3.109 0.199 3.699 0.098 1.027 0.125 1.082 0.723 1.398 0.742 0.395 1.266 0.418 2.027 0.086 0.551 -0.238 0.566 -0.273 0.566 -1.195 -0.137 -2.855 -0.453 -5.609 -0.652 -8.484 -0.102 -1.492 -0.25 -3.387 -0.328 -4.207 -0.098 -1.016 -0.09 -1.641 0.031 -1.953 0.172 -0.445 0.191 -0.422 0.801 0.902 0.348 0.746 0.629 1.508 0.629 1.695 -0.004 0.293 -0.055 0.273 -0.418 -0.172 l -0.414 -0.508 0.094 1.102 c 0.051 0.609 0.281 3.297 0.512 5.977 0.527 6.188 0.398 7.32 -0.93 8.04 -0.504 0.27 -1.402 0.266 -2.238 -0.02 -0.328 -0.109 -0.371 -0.086 -0.293 0.191 0.051 0.176 0.137 1.16 0.195 2.188 0.113 1.934 -0.078 4.066 -0.453 5.01 -0.176 0.457 -0.203 0.195 -0.203 -1.988 0.01 -2.063 -0.124 -4.113 -0.278 -6.168 -1.888 -1.463 -3.836 -3.138 -5.516 -4.333 0 0.051 0.238 0.531 0.527 1.063 0.398 0.738 0.523 1.168 0.52 1.82 -0.008 1.621 -0.699 2.379 -2.629 2.883 -1.277 0.332 -2.738 1.074 -3.422 1.742 -0.918 0.891 -1.113 3.301 -0.371 4.555 0.828 1.398 3.316 1.77 5.676 0.855 2.102 -0.816 3.941 -2.078 3.941 -2.707 0 -0.211 -0.301 -1.211 -0.664 -2.223 -0.531 -1.465 -0.645 -1.969 -0.555 -2.449 l 0.109 -0.609 0.715 0.848 c 0.789 0.941 0.883 1.18 0.395 1.02 -0.371 -0.121 -0.402 0.031 -0.145 0.711 0.836 2.191 0.707 3.355 -0.512 4.535 -0.852 0.824 -1.141 1.523 -1.145 2.742 0 0.762 0.363 1.258 0.934 1.258 0.52 0 1.594 -0.91 2.652 -2.262 1.168 -1.484 1.934 -2.066 3.672 -2.832 0.723 -0.316 1.367 -0.629 1.445 -0.695 0.078 -0.066 0.156 -0.645 0.176 -1.281 0.043 -1.277 0.359 -2.102 0.98 -2.523 0.301 -0.203 0.469 -0.227 0.723 -0.082 0.313 0.168 0.668 1.098 0.668 1.719 0.004 0.645 -0.555 1.973 -1 2.387 l -0.48 0.445 0.363 0.355 c 0.473 0.449 0.844 0.449 1.73 0.008 0.445 -0.23 0.738 -0.5 0.801 -0.758 0.051 -0.219 0.02 -1.797 -0.082 -3.504 -0.16 -2.77 -0.781 -12.969 -0.855 -14.05 -0.02 -0.234 0.023 -0.684 0.098 -0.996 0.152 -0.688 0.211 -0.613 0.918 1.141 0.539 1.336 0.531 1.68 -0.016 1.023 l -0.348 -0.406 0.098 1.273 c 0.047 0.699 0.168 2.492 0.262 3.988 0.094 1.492 0.207 2.902 0.246 3.137 0.207 1.25 0.27 7.113 0.078 8.06 -0.316 1.605 -1.301 2.633 -2.5 2.633 -0.43 0 -0.996 -0.563 -1.164 -1.148 -0.148 -0.508 -0.324 -0.488 -1.914 0.242 -1.781 0.82 -2.855 1.66 -3.973 3.113 -1.227 1.602 -1.875 2 -2.688 1.672 m 9.465 -7.215 c 0.438 -0.383 0.5 -0.535 0.418 -0.965 -0.148 -0.785 -0.547 -1.16 -0.973 -0.93 -0.504 0.277 -0.602 0.492 -0.492 1.156 0.215 1.371 0.273 1.414 1.047 0.738 m -20.13 -1.016 c 0.352 -0.242 1.113 -0.918 1.699 -1.504 1.266 -1.262 2.215 -1.793 4.293 -2.391 1.492 -0.43 2.227 -0.867 2.227 -1.313 0 -0.418 -1.207 -2.316 -1.969 -3.098 l -0.785 -0.809 -0.457 0.316 c -0.25 0.168 -1.227 1.059 -2.18 1.973 -2.152 2.082 -2.871 2.652 -3.52 2.785 -0.453 0.09 -0.559 0.227 -0.879 1.141 -0.422 1.203 -0.508 2.648 -0.18 3.063 0.328 0.41 1.027 0.344 1.75 -0.164 m 0.664 -2.043 c -0.199 -0.207 -0.113 -1.355 0.145 -2 0.141 -0.352 0.289 -0.602 0.328 -0.559 0.039 0.043 -0.047 0.375 -0.191 0.742 -0.148 0.363 -0.254 0.691 -0.242 0.727 0.016 0.035 0.105 0.223 0.203 0.414 0.176 0.336 0.188 0.336 0.402 0.027 0.273 -0.387 0.289 -0.246 0.035 0.332 -0.184 0.422 -0.461 0.551 -0.68 0.32 m 2.363 -3.383 c -0.102 -0.074 0.504 -0.914 0.66 -0.914 0.09 0 0.367 0.152 0.621 0.34 l 0.457 0.34 0.32 -0.457 c 0.316 -0.449 0.328 -0.453 0.758 -0.16 0.59 0.402 0.668 0.691 0.313 1.18 l -0.297 0.41 -1.055 -0.836 -0.75 0.906 m 10.332 12.586 c 0.43 -0.645 0.477 -1.113 0.094 -0.961 -0.223 0.09 -0.234 0.051 -0.074 -0.262 0.391 -0.762 0.836 -0.191 0.504 0.645 -0.109 0.273 -0.352 0.633 -0.539 0.805 -0.332 0.301 -0.332 0.293 0.016 -0.227 m 2.879 -0.938 c -0.219 -0.48 -0.465 -0.754 -0.734 -0.82 -0.461 -0.109 -0.699 -1.016 -0.266 -1.016 0.254 0 1.25 1.086 1.25 1.363 0 0.09 0.074 0.164 0.164 0.164 0.09 0 0.164 -0.176 0.164 -0.387 0 -0.414 0.563 -1.48 0.777 -1.48 0.262 0 0.527 0.414 0.527 0.82 0 0.406 -0.008 0.41 -0.332 0.105 -0.422 -0.398 -0.563 -0.246 -0.93 0.988 l -0.289 0.977 m -17.789 -4.223 c 0.328 -0.668 0.328 -1.047 -0.008 -1.047 -0.215 0 -0.227 -0.047 -0.063 -0.254 0.23 -0.293 0.59 -0.332 0.73 -0.086 0.121 0.199 -0.453 1.602 -0.727 1.777 -0.121 0.078 -0.094 -0.078 0.063 -0.391 m 3.984 -0.664 c -0.125 -0.34 -0.125 -0.723 0.004 -1.391 0.098 -0.504 0.148 -0.953 0.105 -0.996 -0.039 -0.039 -0.332 0.086 -0.648 0.277 -0.438 0.273 -0.578 0.301 -0.578 0.117 0 -0.129 0.676 -0.641 1.504 -1.141 1.832 -1.102 1.781 -1.078 1.656 -0.742 -0.055 0.152 -0.41 0.461 -0.789 0.695 -0.52 0.316 -0.734 0.582 -0.879 1.074 -0.238 0.824 -0.238 1.305 -0.004 1.762 0.18 0.348 0.188 0.348 0.41 0.039 0.262 -0.375 0.277 -0.27 0.063 0.332 -0.207 0.57 -0.617 0.555 -0.844 -0.031 m 2.883 -1.297 c -0.438 -0.363 -0.465 -0.441 -0.289 -0.848 0.23 -0.523 0.469 -0.551 1.02 -0.113 0.344 0.277 0.379 0.387 0.238 0.789 -0.211 0.621 -0.391 0.652 -0.969 0.172 m 2.355 -0.125 c -0.227 -0.43 -0.078 -1.582 0.27 -2.184 l 0.246 -0.426 -0.098 0.426 c -0.27 1.141 -0.281 1.535 -0.074 1.793 0.195 0.25 0.234 0.246 0.426 -0.031 0.254 -0.359 0.273 -0.246 0.055 0.348 -0.188 0.527 -0.574 0.566 -0.824 0.074 m 6.219 -0.508 c 0.09 -0.176 0.246 -0.32 0.344 -0.32 0.102 0 0.055 -0.148 -0.105 -0.336 -0.273 -0.313 -0.277 -0.359 -0.023 -0.758 0.359 -0.574 1.016 -1 1.336 -0.875 0.395 0.16 0.168 0.535 -0.293 0.48 -0.227 -0.023 -0.504 0.074 -0.621 0.223 -0.344 0.43 0.055 0.664 1.063 0.621 0.738 -0.031 0.875 0.008 0.797 0.219 -0.055 0.141 -0.254 0.258 -0.445 0.262 -0.188 0 -0.77 0.184 -1.281 0.402 -0.855 0.367 -0.922 0.375 -0.77 0.082 m 9.09 -1.629 c 0.031 -1.078 -0.063 -3.992 -0.211 -6.477 -0.344 -5.77 -0.359 -6.59 -0.145 -6.816 0.129 -0.129 0.344 0.234 0.773 1.297 0.609 1.516 0.645 2.01 0.09 1.258 l -0.309 -0.422 -0.004 0.68 c 0 0.371 0.105 2.203 0.238 4.07 0.313 4.367 0.309 6.246 -0.004 7.344 -0.137 0.48 -0.301 0.906 -0.367 0.945 -0.063 0.043 -0.09 -0.805 -0.063 -1.879 m -17.906 -0.164 c 0.004 -0.078 0.547 -0.586 1.211 -1.133 0.664 -0.551 1.445 -1.258 1.742 -1.574 0.469 -0.504 0.512 -0.625 0.34 -0.91 -0.27 -0.445 -0.254 -0.93 0.039 -1.18 0.332 -0.289 0.578 -0.074 0.578 0.504 0 0.266 0.07 0.535 0.16 0.594 0.297 0.188 0.188 0.621 -0.129 0.52 -0.203 -0.066 -0.375 0.055 -0.578 0.41 -0.363 0.645 -3.379 3.121 -3.363 2.773 m 3.664 -4.293 c -0.055 -0.098 -0.172 -0.176 -0.254 -0.176 -0.086 0 -0.152 0.078 -0.152 0.176 0 0.09 0.113 0.168 0.254 0.168 0.137 0 0.207 -0.078 0.152 -0.168 m 7.215 3.02 c 0.527 -0.273 0.453 -0.531 -0.121 -0.445 -0.547 0.086 -0.645 -0.105 -0.188 -0.363 0.32 -0.176 1.492 -0.055 1.492 0.156 0 0.234 -0.578 0.637 -1.063 0.738 -0.445 0.094 -0.457 0.086 -0.125 -0.086 m -20.602 -1.23 c 0.492 -0.875 0.508 -0.945 0.18 -0.945 -0.313 0 -0.316 -0.238 -0.008 -0.504 0.289 -0.25 0.578 -0.094 0.578 0.309 0 0.309 -0.898 1.891 -1.074 1.891 -0.055 0 0.094 -0.34 0.324 -0.75 m 21.777 -0.55 c 0.233 -0.31 0.469 -0.618 0.704 -0.926 l 0.773 0.758 0.418 -0.406 c 0.438 -0.43 0.762 -0.359 1.121 0.23 0.133 0.219 0.09 0.367 -0.184 0.648 l -0.352 0.363 c -0.317 -0.237 -0.635 -0.472 -0.953 -0.707 -0.261 0.286 -0.532 0.562 -0.801 0.84 m 0.145 -3.68 c -0.02 -0.902 -0.082 -1.68 -0.133 -1.738 -0.055 -0.055 -0.387 0.074 -0.738 0.285 -0.887 0.531 -0.809 0.23 0.094 -0.363 0.57 -0.375 0.715 -0.563 0.66 -0.848 -0.199 -2.159 -0.282 -4.346 -0.422 -6.531 -0.148 -2.277 -0.102 -3.254 0.145 -3.25 0.105 0.004 0.863 1.777 1.086 2.543 0.121 0.426 0.121 0.426 -0.227 0.102 -0.191 -0.18 -0.375 -0.293 -0.41 -0.254 0.021 1.673 0.207 3.295 0.316 5.079 0.129 2.086 0.156 2.164 0.566 1.773 0.293 -0.27 0.301 -0.336 0.078 -0.59 -0.141 -0.156 -0.246 -0.395 -0.246 -0.539 0 -0.34 0.586 -0.883 0.805 -0.742 0.207 0.137 0.191 1.789 -0.016 1.789 -0.086 0 -0.328 0.211 -0.547 0.473 -0.332 0.391 -0.398 0.645 -0.398 1.598 -0.008 1.117 -0.301 2.852 -0.484 2.852 -0.051 0 -0.109 -0.734 -0.129 -1.637 m 1.484 -4.387 c -0.105 -0.27 -0.387 -0.355 -0.387 -0.113 0 0.18 0.18 0.367 0.348 0.367 0.07 0 0.09 -0.113 0.035 -0.254 m 4.742 5.664 c -0.316 -0.516 0.184 -3.035 0.594 -3.035 0.074 0 -0.008 0.324 -0.18 0.723 -0.355 0.805 -0.398 1.273 -0.156 1.652 0.145 0.227 0.18 0.227 0.32 0 0.199 -0.328 0.211 -0.141 0.008 0.414 -0.168 0.461 -0.402 0.559 -0.586 0.246 m -10.684 -1.094 c -0.086 -0.242 -0.152 -0.504 -0.152 -0.59 0 -0.281 0.684 -2.055 0.766 -1.973 0.039 0.043 -0.051 0.457 -0.211 0.914 -0.305 0.895 -0.223 1.504 0.184 1.34 0.293 -0.113 0.324 0.25 0.047 0.539 -0.293 0.305 -0.449 0.25 -0.625 -0.23 m -3.742 -1.254 c -0.195 -0.383 0.184 -1.789 0.602 -2.215 0.223 -0.227 0.227 -0.211 0.047 0.152 -0.375 0.762 -0.492 1.422 -0.297 1.668 0.152 0.188 0.211 0.191 0.32 0.012 0.105 -0.168 0.137 -0.16 0.137 0.043 0.004 0.277 -0.301 0.672 -0.512 0.672 -0.07 0 -0.203 -0.148 -0.297 -0.332 m -10.199 -0.246 c -0.25 -0.391 -0.25 -0.496 -0.016 -1.324 0.145 -0.496 0.332 -1.012 0.422 -1.152 0.215 -0.34 0.203 -0.227 -0.07 0.707 -0.316 1.098 -0.125 1.805 0.359 1.305 0.137 -0.145 0.164 -0.102 0.094 0.164 -0.164 0.652 -0.492 0.777 -0.789 0.305 m -4.648 -0.934 c 0 -0.09 0.344 -0.367 0.766 -0.625 0.422 -0.254 1.082 -0.77 1.473 -1.145 0.68 -0.652 0.695 -0.688 0.422 -1 -0.258 -0.293 -0.262 -0.367 -0.039 -0.777 0.137 -0.25 0.371 -0.477 0.527 -0.512 0.219 -0.043 0.277 0.07 0.277 0.543 0 0.328 0.074 0.641 0.164 0.699 0.262 0.172 0.188 0.625 -0.094 0.566 -0.141 -0.031 -0.617 0.305 -1.055 0.742 -0.785 0.789 -2.441 1.813 -2.441 1.512 m 3.035 -3.539 c -0.164 -0.172 -0.301 0.09 -0.164 0.316 0.102 0.176 0.141 0.176 0.195 0 0.035 -0.117 0.023 -0.258 -0.031 -0.316 m -1.781 1.199 c -0.172 -0.176 -0.129 -1.043 0.051 -1.16 0.094 -0.059 0.164 0.09 0.164 0.352 0 0.383 0.039 0.422 0.246 0.242 0.133 -0.117 0.242 -0.137 0.242 -0.047 0 0.242 -0.578 0.746 -0.703 0.613 m 7.559 -1.234 c -0.191 -0.484 -0.816 -1.211 -0.816 -0.949 0 0.074 -0.113 0.039 -0.246 -0.078 -0.328 -0.281 -0.313 -0.848 0.02 -0.848 0.145 0 0.504 0.273 0.801 0.609 l 0.535 0.609 0.191 -0.945 c 0.207 -1.055 0.438 -1.324 0.75 -0.879 0.25 0.355 0.117 0.895 -0.148 0.617 -0.32 -0.336 -0.395 -0.191 -0.508 1 -0.125 1.34 -0.289 1.582 -0.578 0.863 m 9.465 -1.012 c -0.191 -0.375 -0.035 -1.422 0.301 -1.98 0.176 -0.289 0.191 -0.281 0.074 0.098 -0.227 0.785 -0.164 1.445 0.133 1.422 0.211 -0.016 0.246 0.059 0.148 0.328 -0.172 0.488 -0.445 0.543 -0.656 0.133 m 2.957 -0.055 c -0.25 -0.258 -0.227 -0.91 0.055 -1.66 l 0.23 -0.594 -0.098 0.715 c -0.109 0.863 0.039 1.453 0.277 1.063 0.129 -0.211 0.152 -0.207 0.156 0.027 0.004 0.414 -0.387 0.695 -0.621 0.449 m -7.367 -1.828 c -0.137 -0.262 -0.098 -0.527 0.176 -1.18 0.191 -0.465 0.449 -0.934 0.574 -1.043 0.32 -0.273 0.285 -0.121 -0.16 0.695 -0.414 0.758 -0.414 1.527 0 1.172 0.27 -0.23 0.289 -0.086 0.059 0.367 -0.219 0.418 -0.43 0.414 -0.648 -0.012 m -10.01 -0.285 c -0.195 -0.203 -0.109 -1.25 0.141 -1.758 0.359 -0.723 0.445 -0.617 0.141 0.176 -0.262 0.684 -0.207 1.301 0.102 1.105 0.09 -0.063 0.164 -0.035 0.164 0.051 0 0.23 -0.418 0.559 -0.547 0.426 m 13.145 -4.855 c 0.68 -0.281 0.539 -0.516 -0.246 -0.406 l -0.691 0.094 0.383 -0.328 c 0.566 -0.477 1.656 -0.406 1.656 0.113 0 0.27 -0.832 0.758 -1.258 0.73 -0.203 -0.012 -0.156 -0.074 0.156 -0.203" style="fill:#fff;fill-opacity:1;stroke:none;fill-rule:nonzero"/>
   </g>
  </g>
 </g>
 <g>
  <path d="m 40.03 7.531 c 3.712 4.084 5.969 9.514 5.969 15.469 0 12.703 -10.297 23 -23 23 c -5.954 0 -11.384 -2.256 -15.469 -5.969 4.178 4.291 10.01 6.969 16.469 6.969 c 12.703 0 23 -10.298 23 -23 0 -6.462 -2.677 -12.291 -6.969 -16.469 z" style="opacity:0.1"/>
 </g>
</svg>
