<svg version="1.1" viewBox="0 0 48 48" xmlns="http://www.w3.org/2000/svg">
 <defs>
  <linearGradient id="bg" x1="1" x2="47" gradientTransform="matrix(0 -1 1 0 -1.5e-6 48)" gradientUnits="userSpaceOnUse">
   <stop style="stop-color:#ddd" offset="0"/>
   <stop style="stop-color:#e7e7e7" offset="1"/>
  </linearGradient>
  <linearGradient id="linearGradient4232" x1="37.13" x2="51.22" y1="27.413" y2="9.163" gradientTransform="translate(-21 9)" gradientUnits="userSpaceOnUse">
   <stop style="stop-color:#804d26" offset="0"/>
   <stop style="stop-color:#d2a453" offset="1"/>
  </linearGradient>
  <linearGradient id="linearGradient4224" x1="49.03" x2="39.821" y1="19.228" y2="27.568" gradientTransform="translate(-21 9)" gradientUnits="userSpaceOnUse">
   <stop style="stop-color:#c09f76" offset="0"/>
   <stop style="stop-color:#88572d" offset="1"/>
  </linearGradient>
  <linearGradient id="linearGradient4278" x1="47.567" x2="52.44" y1="14.528" y2="10.403" gradientTransform="translate(-21 9)" gradientUnits="userSpaceOnUse">
   <stop style="stop-color:#c6984d" offset="0"/>
   <stop style="stop-color:#eacc93" offset="1"/>
  </linearGradient>
  <linearGradient id="linearGradient4216" x2="0" y1="30" gradientTransform="translate(-21 9)" gradientUnits="userSpaceOnUse">
   <stop style="stop-color:#3594ff" offset="0"/>
   <stop style="stop-color:#419aff" offset="1"/>
  </linearGradient>
 </defs>
 <path d="m36.31 5c5.859 4.062 9.688 10.831 9.688 18.5 0 12.426-10.07 22.5-22.5 22.5-7.669 0-14.438-3.828-18.5-9.688 1.037 1.822 2.306 3.499 3.781 4.969 4.085 3.712 9.514 5.969 15.469 5.969 12.703 0 23-10.298 23-23 0-5.954-2.256-11.384-5.969-15.469-1.469-1.475-3.147-2.744-4.969-3.781zm4.969 3.781c3.854 4.113 6.219 9.637 6.219 15.719 0 12.703-10.297 23-23 23-6.081 0-11.606-2.364-15.719-6.219 4.16 4.144 9.883 6.719 16.219 6.719 12.703 0 23-10.298 23-23 0-6.335-2.575-12.06-6.719-16.219z" style="opacity:.05"/>
 <path d="m41.28 8.781c3.712 4.085 5.969 9.514 5.969 15.469 0 12.703-10.297 23-23 23-5.954 0-11.384-2.256-15.469-5.969 4.113 3.854 9.637 6.219 15.719 6.219 12.703 0 23-10.298 23-23 0-6.081-2.364-11.606-6.219-15.719z" style="opacity:.1"/>
 <path d="m31.25 2.375c8.615 3.154 14.75 11.417 14.75 21.13 0 12.426-10.07 22.5-22.5 22.5-9.708 0-17.971-6.135-21.12-14.75a23 23 0 0 0 44.875-7 23 23 0 0 0-16-21.875z" style="opacity:.2"/>
 <path d="m24 1c12.703 0 23 10.297 23 23s-10.297 23-23 23-23-10.297-23-23 10.297-23 23-23z" style="fill:url(#bg)"/>
 <path d="m40.03 7.531c3.712 4.084 5.969 9.514 5.969 15.469 0 12.703-10.297 23-23 23-5.954 0-11.384-2.256-15.469-5.969 4.178 4.291 10.01 6.969 16.469 6.969 12.703 0 23-10.298 23-23 0-6.462-2.677-12.291-6.969-16.469z" style="opacity:.1"/>
 <path d="m25 10c-9 0-15 6-15 15s6 15 15 15 15-6 15-15-6-15-15-15m0 3a9 12 0 0 1 9 12 9 12 0 0 1-3.16 9.111c-0.722-1.579-1.872-3.554-2.416-4.545-1.033-1.882 1.586-1.768 2.699-2.986 0.02-0.022 0.043-0.042 0.063-0.064 0.061-0.073 0.111-0.155 0.16-0.238 0.02-0.034 0.046-0.064 0.064-0.1 0.047-0.093 0.079-0.198 0.109-0.305 9e-3 -0.033 0.024-0.061 0.031-0.096 0.032-0.146 0.051-0.304 0.049-0.477-3e-3 -0.241-0.068-0.518-0.184-0.814v-2e-3c-0.5-1.631 0.581-1.277 0.584-2.984 2e-3 -1.321-0.513-1.704-1.162-1.979-0.699-0.726-3.555-0.27-4.402 0.318-1.122-0.51-2.356-0.84-3.635-0.84-1.64 0-3.54 1.812-4.217 3.691a2.7 1.5 0 0 0-2.084 1.459 2.7 1.5 0 0 0 1.717 1.395c-1.04 2.235-0.901 5.121 0.168 7.576a9 12 0 0 1-2.385-8.121 9 12 0 0 1 9-12" style="fill-opacity:.098"/>
 <path d="m21.801 18c-1.64 0-3.54 1.812-4.217 3.691a2.7 1.5 0 0 0-2.084 1.459 2.7 1.5 0 0 0 1.717 1.395c-2.86 6.145 3.091 17.253 13.248 10.602 0.145-1.077-2.193-5.03-3.041-6.58-1.302-2.373 3.21-1.566 3.176-4.266-0.022-2-4.131-6.301-8.799-6.301" style="fill:url(#linearGradient4232)"/>
 <path d="m29.792 35.774c-0.097 1.975-3.243 1.436-5.799 1.436-2.557 0-5.593-5.233-5.593-7.21 0-1 1.401-2 3.958-2 2.642 0 4.13 0.979 4.642 1.685 1.231 1.699 2.841 5.096 2.792 6.088z" style="fill:url(#linearGradient4224)"/>
 <path d="m16.611 29.35c0.132 0.967 0.411 1.924 0.809 2.824 0.5 0.714 1.063 1.345 1.678 1.877-1.102-1.275-1.956-2.889-2.486-4.701z" style="fill-opacity:.098"/>
 <path d="m29.48 18.372-2.309 1.452c-0.363 1.434 0.29 3.29 1.119 4.555 0.54 0.823 1.152 1.392 1.6 1.43 0.422-0.345 0.72-0.808 0.711-1.508-3e-3 -0.247-0.082-0.533-0.201-0.838-3e-3 -9e-3 0.02 0.032 0.018 0.023-0.501-1.633 0.581-1.278 0.584-2.986 2e-3 -1.562-0.708-1.819-1.521-2.128" style="fill:url(#linearGradient4278)"/>
 <path d="m30 18.9c0 0.43-1.642 1.682-2.34 1.7-1.154 0.029-2.228-1.146-2.228-1.646 0.223-0.777 4.568-1.447 4.568-0.054" style="fill:#493d2f"/>
 <path d="m22.76 20.534c-0.135 1.317-2.25 1.464-2.946 1.366-0.074-0.407 0.029-1.759 1.014-2.14 0.657-0.254 2 0.079 1.931 0.774z" style="fill:#e0e4ec"/>
 <circle cx="21.5" cy="20.5" r=".5" style="fill:#76bbf4"/>
 <path d="m21.33 18.9c-0.293 0.017-0.552 0.087-0.781 0.197-0.459 0.22-0.796 0.574-1.125 0.9v2e-3c-0.052 0.05-0.071 0.099-0.068 0.148 2e-3 0.049 0.026 0.1 0.063 0.137s0.085 0.062 0.135 0.064c0.049 3e-3 0.102-0.014 0.152-0.066 0.332-0.329 0.642-0.646 1.018-0.826 0.374-0.18 0.819-0.243 1.48-0.043l2e-3 2e-3c0.069 0.023 0.122 0.014 0.164-0.012 0.043-0.026 0.075-0.071 0.09-0.121s0.013-0.104-8e-3 -0.148c-0.021-0.045-0.06-0.082-0.131-0.102-0.367-0.111-0.697-0.15-0.99-0.133m7.078 3.061c-0.077 4e-3 -0.144 0.051-0.174 0.123-0.199 0.521-0.6 1.172-1.273 1.637-0.674 0.465-1.624 0.74-2.904 0.506-0.141-0.026-0.3-0.079-0.541-0.301-0.214-0.197-0.495-0.547-0.84-1.051l-0.029-0.043 0.123-0.074c0.092-0.053 0.115-0.143 0.094-0.225s-0.086-0.148-0.191-0.148c-0.038-1e-3 -0.077 9e-3 -0.109 0.029l-0.547 0.328c-0.061 0.037-0.089 0.083-0.098 0.131s3e-3 0.1 0.029 0.145c0.027 0.044 0.068 0.079 0.115 0.094s0.099 0.011 0.16-0.025l0.08-0.051 0.027 0.041c0.363 0.535 0.66 0.911 0.912 1.143 0.281 0.258 0.536 0.368 0.768 0.406 1.306 0.215 2.28-0.045 2.998-0.506s1.18-1.124 1.449-1.715l0.021-0.047 0.045 0.023c0.423 0.209 0.856 0.34 1.289 0.326 0.071-2e-3 0.117-0.027 0.148-0.064 0.031-0.038 0.048-0.089 0.047-0.141-2e-3 -0.051-0.021-0.101-0.055-0.137s-0.081-0.059-0.152-0.057c-0.449 0.014-0.87-0.071-1.277-0.32-0.034-0.021-0.075-0.03-0.115-0.027z" style="fill:#7b5a2d"/>
 <path d="m24 9c-9 0-15 6-15 15s6 15 15 15 15-6 15-15-6-15-15-15m0 3a9 12 0 0 1 9 12 9 12 0 0 1-9 12 9 12 0 0 1-9-12 9 12 0 0 1 9-12z" style="fill:url(#linearGradient4216)"/>
 <g transform="translate(-21 9)">
  <g transform="translate(-.004687)">
   <path transform="translate(.004687)" d="m50.693 24.947c-0.261 0-0.662 0.133-1.045 0.314a9 12 0 0 1-0.875 0.617c-0.102 0.128-0.174 0.258-0.174 0.389 0 0.53 0.98 2.231 1.635 2.953 0.979-0.307 1.896-0.703 2.748-1.182-0.296-0.919-1.725-3.092-2.289-3.092zm-9.998 0.592c-0.718 0.845-1.545 2.279-1.545 2.725 0 0.198 0.049 0.321 0.201 0.424s0.393 0.014 0.393 0.014-0.045 0.222 0.184 0.373c0.175 0.115 0.408-4e-3 0.408-4e-3s0.025 0.206 0.201 0.293c0.21 0.104 0.555-0.16 0.555-0.16s-3e-3 0.233 0.105 0.301c0.153 0.096 0.326 0.018 0.398-0.014 0.44-0.193 1.438-1.736 1.83-2.686a9 12 0 0 1-2.73-1.266z" style="fill-opacity:.098"/>
   <path d="m43 25.617c0 0.643-1.448 3.03-2 3.273-0.072 0.032-0.244 0.109-0.397 0.013-0.109-0.068-0.107-0.299-0.107-0.299s-0.344 0.264-0.554 0.16c-0.176-0.087-0.201-0.293-0.201-0.293s-0.233 0.119-0.408 3e-3c-0.229-0.151-0.183-0.374-0.183-0.374s-0.242 0.09-0.394-0.013-0.201-0.227-0.201-0.424c0-0.643 1.722-3.367 2.352-3.367s2.094 0.677 2.094 1.32z" style="fill:#b27538"/>
   <path d="m40.1 26.2c-0.026 3e-3 -0.05 0.016-0.066 0.037-0.577 0.901-0.962 1.809-0.879 1.861s0.666-1.235 1.031-1.732c0.061-0.069 5e-3 -0.176-0.086-0.166zm0.764 0.115c-0.026 3e-3 -0.05 0.016-0.066 0.037-0.718 1.151-1.121 2.073-1.053 2.115 0.068 0.043 0.766-1.265 1.205-1.986 0.057-0.065 0.01-0.167-0.076-0.166zm0.742 0.277c-0.03 2e-3 -0.057 0.017-0.074 0.041-0.549 0.816-1.082 1.892-1.031 1.967 0.064 0.035 0.783-1.118 1.193-1.848 0.052-0.069-2e-3 -0.167-0.088-0.16z" style="fill-opacity:.308"/>
  </g>
  <g transform="matrix(-1 0 0 1 90.6 -.35032)">
   <path d="m43 25.617c0 0.643-1.448 3.03-2 3.273-0.072 0.032-0.244 0.109-0.397 0.013-0.109-0.068-0.107-0.299-0.107-0.299s-0.344 0.264-0.554 0.16c-0.176-0.087-0.201-0.293-0.201-0.293s-0.233 0.119-0.408 3e-3c-0.229-0.151-0.183-0.374-0.183-0.374s-0.242 0.09-0.394-0.013-0.201-0.227-0.201-0.424c0-0.643 1.722-3.367 2.352-3.367s2.094 0.677 2.094 1.32z" style="fill:#c2803d"/>
   <path d="m40.1 26.2c-0.026 3e-3 -0.05 0.016-0.066 0.037-0.577 0.901-0.962 1.809-0.879 1.861s0.666-1.235 1.031-1.732c0.061-0.069 5e-3 -0.176-0.086-0.166zm0.764 0.115c-0.026 3e-3 -0.05 0.016-0.066 0.037-0.718 1.151-1.121 2.073-1.053 2.115 0.068 0.043 0.766-1.265 1.205-1.986 0.057-0.065 0.01-0.167-0.076-0.166zm0.742 0.277c-0.03 2e-3 -0.057 0.017-0.074 0.041-0.549 0.816-1.082 1.892-1.031 1.967 0.064 0.035 0.783-1.118 1.193-1.848 0.052-0.069-2e-3 -0.167-0.088-0.16z" style="fill-opacity:.308"/>
  </g>
 </g>
</svg>
