<svg xmlns="http://www.w3.org/2000/svg" viewBox="0 0 48 48">
 <defs>
  <linearGradient id="linearGradient3764" x1="1" x2="47" gradientUnits="userSpaceOnUse" gradientTransform="matrix(0,-1,1,0,-1.5e-6,47.999998)">
   <stop style="stop-color:#ddd;stop-opacity:1"/>
   <stop offset="1" style="stop-color:#e7e7e7;stop-opacity:1"/>
  </linearGradient>
  <linearGradient id="linearGradient4232" x1="37.13" y1="27.413" x2="51.22" y2="9.163" gradientUnits="userSpaceOnUse">
   <stop style="stop-color:#804d26;stop-opacity:1"/>
   <stop offset="1" style="stop-color:#d2a453;stop-opacity:1"/>
  </linearGradient>
  <linearGradient id="linearGradient4224" x1="49.03" y1="19.228" x2="39.821" y2="27.568" gradientUnits="userSpaceOnUse">
   <stop style="stop-color:#c09f76;stop-opacity:1"/>
   <stop offset="1" style="stop-color:#88572d;stop-opacity:1"/>
  </linearGradient>
  <linearGradient id="linearGradient4278" x1="47.567" y1="14.528" x2="52.44" y2="10.403" gradientUnits="userSpaceOnUse">
   <stop style="stop-color:#c6984d;stop-opacity:1"/>
   <stop offset="1" style="stop-color:#eacc93;stop-opacity:1"/>
  </linearGradient>
  <linearGradient gradientTransform="translate(-21,8.9999997)" id="linearGradient4216" y1="30" x2="0" y2="0" gradientUnits="userSpaceOnUse">
   <stop style="stop-color:#3594ff;stop-opacity:1"/>
   <stop offset="1" style="stop-color:#419aff;stop-opacity:1"/>
  </linearGradient>
 </defs>
 <g>
  <path d="m 36.31 5 c 5.859 4.062 9.688 10.831 9.688 18.5 c 0 12.426 -10.07 22.5 -22.5 22.5 c -7.669 0 -14.438 -3.828 -18.5 -9.688 c 1.037 1.822 2.306 3.499 3.781 4.969 c 4.085 3.712 9.514 5.969 15.469 5.969 c 12.703 0 23 -10.298 23 -23 c 0 -5.954 -2.256 -11.384 -5.969 -15.469 c -1.469 -1.475 -3.147 -2.744 -4.969 -3.781 z m 4.969 3.781 c 3.854 4.113 6.219 9.637 6.219 15.719 c 0 12.703 -10.297 23 -23 23 c -6.081 0 -11.606 -2.364 -15.719 -6.219 c 4.16 4.144 9.883 6.719 16.219 6.719 c 12.703 0 23 -10.298 23 -23 c 0 -6.335 -2.575 -12.06 -6.719 -16.219 z" style="opacity:0.05"/>
  <path d="m 41.28 8.781 c 3.712 4.085 5.969 9.514 5.969 15.469 c 0 12.703 -10.297 23 -23 23 c -5.954 0 -11.384 -2.256 -15.469 -5.969 c 4.113 3.854 9.637 6.219 15.719 6.219 c 12.703 0 23 -10.298 23 -23 c 0 -6.081 -2.364 -11.606 -6.219 -15.719 z" style="opacity:0.1"/>
  <path d="m 31.25 2.375 c 8.615 3.154 14.75 11.417 14.75 21.13 c 0 12.426 -10.07 22.5 -22.5 22.5 c -9.708 0 -17.971 -6.135 -21.12 -14.75 a 23 23 0 0 0 44.875 -7 a 23 23 0 0 0 -16 -21.875 z" style="opacity:0.2"/>
 </g>
 <g>
  <path d="m 24 1 c 12.703 0 23 10.297 23 23 c 0 12.703 -10.297 23 -23 23 -12.703 0 -23 -10.297 -23 -23 0 -12.703 10.297 -23 23 -23 z" style="fill:url(#linearGradient3764);fill-opacity:1"/>
 </g>
 <g>
  <path d="m 40.03 7.531 c 3.712 4.084 5.969 9.514 5.969 15.469 0 12.703 -10.297 23 -23 23 c -5.954 0 -11.384 -2.256 -15.469 -5.969 4.178 4.291 10.01 6.969 16.469 6.969 c 12.703 0 23 -10.298 23 -23 0 -6.462 -2.677 -12.291 -6.969 -16.469 z" style="opacity:0.1"/>
 </g>
 <path d="m 25 10 c -9 0 -15 6 -15 15 0 9 6 15 15 15 9 0 15 -6 15 -15 0 -9 -6 -15 -15 -15 m 0 3 a 9 12 0 0 1 9 12 9 12 0 0 1 -3.16 9.111 c -0.722 -1.579 -1.872 -3.554 -2.416 -4.545 -1.033 -1.882 1.586 -1.768 2.699 -2.986 0.02 -0.022 0.043 -0.042 0.063 -0.064 0.061 -0.073 0.111 -0.155 0.16 -0.238 0.02 -0.034 0.046 -0.064 0.064 -0.1 0.047 -0.093 0.079 -0.198 0.109 -0.305 0.009 -0.033 0.024 -0.061 0.031 -0.096 0.032 -0.146 0.051 -0.304 0.049 -0.477 -0.003 -0.241 -0.068 -0.518 -0.184 -0.814 0 0 0 -0.002 0 -0.002 c -0.5 -1.631 0.581 -1.277 0.584 -2.984 0.002 -1.321 -0.513 -1.704 -1.162 -1.979 -0.699 -0.726 -3.555 -0.27 -4.402 0.318 -1.122 -0.51 -2.356 -0.84 -3.635 -0.84 c -1.64 0 -3.54 1.812 -4.217 3.691 a 2.7 1.5 0 0 0 -2.084 1.459 a 2.7 1.5 0 0 0 1.717 1.395 c -1.04 2.235 -0.901 5.121 0.168 7.576 a 9 12 0 0 1 -2.385 -8.121 9 12 0 0 1 9 -12" style="fill:#000;opacity:1;fill-opacity:0.098;stroke:none"/>
 <g transform="translate(-21,8.9999997)">
  <path d="m 42.801 9 c -1.64 0 -3.54 1.812 -4.217 3.691 a 2.7 1.5 0 0 0 -2.084 1.459 a 2.7 1.5 0 0 0 1.717 1.395 c -2.86 6.145 3.091 17.253 13.248 10.602 0.145 -1.077 -2.193 -5.03 -3.041 -6.58 -1.302 -2.373 3.21 -1.566 3.176 -4.266 c -0.022 -2 -4.131 -6.301 -8.799 -6.301" style="fill:url(#linearGradient4232);opacity:1;fill-opacity:1;stroke:none"/>
  <path d="m 50.792 26.774 c -0.097 1.975 -3.243 1.436 -5.799 1.436 -2.557 0 -5.593 -5.233 -5.593 -7.21 0 -1 1.401 -2 3.958 -2 2.642 0 4.13 0.979 4.642 1.685 1.231 1.699 2.841 5.096 2.792 6.088 z" style="fill:url(#linearGradient4224);opacity:1;fill-opacity:1;stroke:none"/>
  <path d="m 37.611 20.35 c 0.132 0.967 0.411 1.924 0.809 2.824 0.5 0.714 1.063 1.345 1.678 1.877 -1.102 -1.275 -1.956 -2.889 -2.486 -4.701 z" style="fill:#000;opacity:1;fill-opacity:0.098;stroke:none"/>
  <path d="m 50.48 9.372 -2.309 1.452 c -0.363 1.434 0.29 3.29 1.119 4.555 0.54 0.823 1.152 1.392 1.6 1.43 0.422 -0.345 0.72 -0.808 0.711 -1.508 -0.003 -0.247 -0.082 -0.533 -0.201 -0.838 -0.003 -0.009 0.02 0.032 0.018 0.023 c -0.501 -1.633 0.581 -1.278 0.584 -2.986 0.002 -1.562 -0.708 -1.819 -1.521 -2.128" style="fill:url(#linearGradient4278);opacity:1;fill-opacity:1;stroke:none"/>
  <path d="m 51 9.9 c 0 0.43 -1.642 1.682 -2.34 1.7 c -1.154 0.029 -2.228 -1.146 -2.228 -1.646 0.223 -0.777 4.568 -1.447 4.568 -0.054" style="fill:#493d2f;opacity:1;fill-opacity:1;stroke:none"/>
  <path d="m 43.76 11.534 c -0.135 1.317 -2.25 1.464 -2.946 1.366 c -0.074 -0.407 0.029 -1.759 1.014 -2.14 0.657 -0.254 2 0.079 1.931 0.774 z" style="fill:#e0e4ec;opacity:1;fill-opacity:1;stroke:none"/>
  <circle r="0.5" cy="11.5" cx="42.5" style="fill:#76bbf4;opacity:1;fill-opacity:1;stroke:none"/>
  <path d="m 42.33 9.9 c -0.293 0.017 -0.552 0.087 -0.781 0.197 -0.459 0.22 -0.796 0.574 -1.125 0.9 l 0 0.002 c -0.052 0.05 -0.071 0.099 -0.068 0.148 0.002 0.049 0.026 0.1 0.063 0.137 0.037 0.037 0.085 0.062 0.135 0.064 0.049 0.003 0.102 -0.014 0.152 -0.066 0.332 -0.329 0.642 -0.646 1.018 -0.826 0.374 -0.18 0.819 -0.243 1.48 -0.043 l 0.002 0.002 c 0.069 0.023 0.122 0.014 0.164 -0.012 0.043 -0.026 0.075 -0.071 0.09 -0.121 0.015 -0.05 0.013 -0.104 -0.008 -0.148 -0.021 -0.045 -0.06 -0.082 -0.131 -0.102 c -0.367 -0.111 -0.697 -0.15 -0.99 -0.133 m 7.078 3.061 c -0.077 0.004 -0.144 0.051 -0.174 0.123 -0.199 0.521 -0.6 1.172 -1.273 1.637 -0.674 0.465 -1.624 0.74 -2.904 0.506 -0.141 -0.026 -0.3 -0.079 -0.541 -0.301 c -0.214 -0.197 -0.495 -0.547 -0.84 -1.051 l -0.029 -0.043 0.123 -0.074 c 0.092 -0.053 0.115 -0.143 0.094 -0.225 -0.021 -0.082 -0.086 -0.148 -0.191 -0.148 -0.038 -0.001 -0.077 0.009 -0.109 0.029 l -0.547 0.328 c -0.061 0.037 -0.089 0.083 -0.098 0.131 -0.009 0.048 0.003 0.1 0.029 0.145 0.027 0.044 0.068 0.079 0.115 0.094 0.047 0.015 0.099 0.011 0.16 -0.025 l 0.08 -0.051 0.027 0.041 c 0.363 0.535 0.66 0.911 0.912 1.143 0.281 0.258 0.536 0.368 0.768 0.406 1.306 0.215 2.28 -0.045 2.998 -0.506 0.718 -0.461 1.18 -1.124 1.449 -1.715 l 0.021 -0.047 0.045 0.023 c 0.423 0.209 0.856 0.34 1.289 0.326 0.071 -0.002 0.117 -0.027 0.148 -0.064 0.031 -0.038 0.048 -0.089 0.047 -0.141 -0.002 -0.051 -0.021 -0.101 -0.055 -0.137 -0.034 -0.036 -0.081 -0.059 -0.152 -0.057 -0.449 0.014 -0.87 -0.071 -1.277 -0.32 -0.034 -0.021 -0.075 -0.03 -0.115 -0.027 z" mix-blend-mode="normal" isolation="auto" white-space="normal" solid-opacity="1" solid-color="#000000" style="visibility:visible;shape-rendering:auto;color-interpolation-filters:linearRGB;fill:#7b5a2d;opacity:1;image-rendering:auto;fill-opacity:1;stroke:none;display:inline;color:#000;fill-rule:evenodd;color-rendering:auto;color-interpolation:sRGB"/>
 </g>
 <path d="m 24 9 c -9 0 -15 6 -15 15 0 9 6 15 15 15 9 0 15 -6 15 -15 0 -9 -6 -15 -15 -15 m 0 3 a 9 12 0 0 1 9 12 9 12 0 0 1 -9 12 9 12 0 0 1 -9 -12 9 12 0 0 1 9 -12 z" style="fill:url(#linearGradient4216);opacity:1;fill-opacity:1;stroke:none"/>
 <g transform="translate(-21,8.9999997)">
  <g transform="translate(-0.004687,0)">
   <path transform="translate(0.004687,0)" d="m 50.693 24.947 c -0.261 0 -0.662 0.133 -1.045 0.314 a 9 12 0 0 1 -0.875 0.617 c -0.102 0.128 -0.174 0.258 -0.174 0.389 0 0.53 0.98 2.231 1.635 2.953 0.979 -0.307 1.896 -0.703 2.748 -1.182 -0.296 -0.919 -1.725 -3.092 -2.289 -3.092 z m -9.998 0.592 c -0.718 0.845 -1.545 2.279 -1.545 2.725 0 0.198 0.049 0.321 0.201 0.424 0.152 0.103 0.393 0.014 0.393 0.014 0 0 -0.045 0.222 0.184 0.373 0.175 0.115 0.408 -0.004 0.408 -0.004 0 0 0.025 0.206 0.201 0.293 0.21 0.104 0.555 -0.16 0.555 -0.16 0 0 -0.003 0.233 0.105 0.301 0.153 0.096 0.326 0.018 0.398 -0.014 0.44 -0.193 1.438 -1.736 1.83 -2.686 a 9 12 0 0 1 -2.73 -1.266 z" style="fill:#000;opacity:1;fill-opacity:0.098;stroke:none"/>
   <path d="m 43 25.617 c 0 0.643 -1.448 3.03 -2 3.273 -0.072 0.032 -0.244 0.109 -0.397 0.013 -0.109 -0.068 -0.107 -0.299 -0.107 -0.299 0 0 -0.344 0.264 -0.554 0.16 -0.176 -0.087 -0.201 -0.293 -0.201 -0.293 0 0 -0.233 0.119 -0.408 0.003 -0.229 -0.151 -0.183 -0.374 -0.183 -0.374 0 0 -0.242 0.09 -0.394 -0.013 -0.152 -0.103 -0.201 -0.227 -0.201 -0.424 0 -0.643 1.722 -3.367 2.352 -3.367 0.63 0 2.094 0.677 2.094 1.32 z" style="fill:#b27538;opacity:1;fill-opacity:1;stroke:none"/>
   <path d="m 40.1 26.2 c -0.026 0.003 -0.05 0.016 -0.066 0.037 -0.577 0.901 -0.962 1.809 -0.879 1.861 0.083 0.052 0.666 -1.235 1.031 -1.732 0.061 -0.069 0.005 -0.176 -0.086 -0.166 z m 0.764 0.115 c -0.026 0.003 -0.05 0.016 -0.066 0.037 -0.718 1.151 -1.121 2.073 -1.053 2.115 0.068 0.043 0.766 -1.265 1.205 -1.986 0.057 -0.065 0.01 -0.167 -0.076 -0.166 z m 0.742 0.277 c -0.03 0.002 -0.057 0.017 -0.074 0.041 -0.549 0.816 -1.082 1.892 -1.031 1.967 0.064 0.035 0.783 -1.118 1.193 -1.848 0.052 -0.069 -0.002 -0.167 -0.088 -0.16 z" mix-blend-mode="normal" isolation="auto" white-space="normal" solid-opacity="1" solid-color="#000000" style="visibility:visible;shape-rendering:auto;color-interpolation-filters:linearRGB;fill:#000;opacity:1;image-rendering:auto;fill-opacity:0.308;stroke:none;display:inline;color:#000;fill-rule:evenodd;color-rendering:auto;color-interpolation:sRGB"/>
  </g>
  <g transform="matrix(-1,0,0,1,90.6,-0.350318)">
   <path d="m 43 25.617 c 0 0.643 -1.448 3.03 -2 3.273 -0.072 0.032 -0.244 0.109 -0.397 0.013 -0.109 -0.068 -0.107 -0.299 -0.107 -0.299 0 0 -0.344 0.264 -0.554 0.16 -0.176 -0.087 -0.201 -0.293 -0.201 -0.293 0 0 -0.233 0.119 -0.408 0.003 -0.229 -0.151 -0.183 -0.374 -0.183 -0.374 0 0 -0.242 0.09 -0.394 -0.013 -0.152 -0.103 -0.201 -0.227 -0.201 -0.424 0 -0.643 1.722 -3.367 2.352 -3.367 0.63 0 2.094 0.677 2.094 1.32 z" style="fill:#c2803d;opacity:1;fill-opacity:1;stroke:none"/>
   <path d="m 40.1 26.2 c -0.026 0.003 -0.05 0.016 -0.066 0.037 -0.577 0.901 -0.962 1.809 -0.879 1.861 0.083 0.052 0.666 -1.235 1.031 -1.732 0.061 -0.069 0.005 -0.176 -0.086 -0.166 z m 0.764 0.115 c -0.026 0.003 -0.05 0.016 -0.066 0.037 -0.718 1.151 -1.121 2.073 -1.053 2.115 0.068 0.043 0.766 -1.265 1.205 -1.986 0.057 -0.065 0.01 -0.167 -0.076 -0.166 z m 0.742 0.277 c -0.03 0.002 -0.057 0.017 -0.074 0.041 -0.549 0.816 -1.082 1.892 -1.031 1.967 0.064 0.035 0.783 -1.118 1.193 -1.848 0.052 -0.069 -0.002 -0.167 -0.088 -0.16 z" mix-blend-mode="normal" isolation="auto" white-space="normal" solid-opacity="1" solid-color="#000000" style="visibility:visible;shape-rendering:auto;color-interpolation-filters:linearRGB;fill:#000;opacity:1;image-rendering:auto;fill-opacity:0.308;stroke:none;display:inline;color:#000;fill-rule:evenodd;color-rendering:auto;color-interpolation:sRGB"/>
  </g>
 </g>
</svg>
