<svg version="1.1" viewBox="0 0 48 48" xmlns="http://www.w3.org/2000/svg" xmlns:xlink="http://www.w3.org/1999/xlink">
 <defs>
  <linearGradient id="bg" x2="0" y1="1" y2="47" gradientUnits="userSpaceOnUse">
   <stop style="stop-color:#9b5f5f" offset="0"/>
   <stop style="stop-color:#8f5757" offset="1"/>
  </linearGradient>
 </defs>
 <path d="m36.3 5c5.86 4.06 9.69 10.8 9.69 18.5 0 12.4-10.1 22.5-22.5 22.5-7.67 0-14.4-3.83-18.5-9.69 1.04 1.82 2.31 3.5 3.78 4.97 4.08 3.71 9.51 5.97 15.5 5.97 12.7 0 23-10.3 23-23 0-5.95-2.26-11.4-5.97-15.5-1.47-1.48-3.15-2.74-4.97-3.78zm4.97 3.78c3.85 4.11 6.22 9.64 6.22 15.7 0 12.7-10.3 23-23 23-6.08 0-11.6-2.36-15.7-6.22 4.16 4.14 9.88 6.72 16.2 6.72 12.7 0 23-10.3 23-23 0-6.34-2.58-12.1-6.72-16.2z" style="opacity:.05"/>
 <path d="m41.3 8.78c3.71 4.08 5.97 9.51 5.97 15.5 0 12.7-10.3 23-23 23-5.95 0-11.4-2.26-15.5-5.97 4.11 3.85 9.64 6.22 15.7 6.22 12.7 0 23-10.3 23-23 0-6.08-2.36-11.6-6.22-15.7z" style="opacity:.1"/>
 <path d="m31.2 2.38c8.62 3.15 14.8 11.4 14.8 21.1 0 12.4-10.1 22.5-22.5 22.5-9.71 0-18-6.14-21.1-14.8a23 23 0 0 0 44.9-7 23 23 0 0 0-16-21.9z" style="opacity:.2"/>
 <circle cx="24" cy="24" r="23" style="fill:url(#bg)"/>
 <path d="m12.7 33.3 4 4c0.976 0.976 2.56 0.976 3.54 0l4.73-4.73 4.73 4.73c0.976 0.976 2.56 0.976 3.54 0l4-4c0.976-0.976 0.976-2.56 0-3.54l-4.73-4.73 4.73-4.73c0.976-0.976 0.976-2.56 0-3.54l-4-4z" style="opacity:.1"/>
 <path d="m40 7.53c3.71 4.08 5.97 9.51 5.97 15.5 0 12.7-10.3 23-23 23-5.95 0-11.4-2.26-15.5-5.97 4.18 4.29 10 6.97 16.5 6.97 12.7 0 23-10.3 23-23 0-6.46-2.68-12.3-6.97-16.5z" style="opacity:.1"/>
 <path d="m13.5 14-1.73 1.73c-0.976 0.976-0.976 2.56 0 3.54l17 17c0.976 0.976 2.56 0.976 3.54 0l4-4c0.976-0.976 0.976-2.56 0-3.54l-14.7-14.7-4.54 2z" style="fill:#c09c7c"/>
 <path d="m25 17.5-7.54 7.54 7.54 7.54 7.54-7.54-7.54-7.54z" style="opacity:.1"/>
 <path d="m28.7 11.7-17 17c-0.469 0.469-0.732 1.1-0.732 1.77 1e-4 0.663 0.264 1.3 0.732 1.77l4 4c0.976 0.976 2.56 0.976 3.54 0l17-17c0.976-0.976 0.976-2.56 0-3.54l-4-4c-0.976-0.976-2.56-0.976-3.54 0z" style="fill:#cfaf96"/>
 <path id="path58" d="m30.5 13a0.5 0.5 0 0 0-0.5 0.5 0.5 0.5 0 0 0 0.5 0.5 0.5 0.5 0 0 0 0.5-0.5 0.5 0.5 0 0 0-0.5-0.5zm-2 2a0.5 0.5 0 0 0-0.5 0.5 0.5 0.5 0 0 0 0.5 0.5 0.5 0.5 0 0 0 0.5-0.5 0.5 0.5 0 0 0-0.5-0.5zm4 0a0.5 0.5 0 0 0-0.5 0.5 0.5 0.5 0 0 0 0.5 0.5 0.5 0.5 0 0 0 0.5-0.5 0.5 0.5 0 0 0-0.5-0.5zm-2 2a0.5 0.5 0 0 0-0.5 0.5 0.5 0.5 0 0 0 0.5 0.5 0.5 0.5 0 0 0 0.5-0.5 0.5 0.5 0 0 0-0.5-0.5zm4 0a0.5 0.5 0 0 0-0.5 0.5 0.5 0.5 0 0 0 0.5 0.5 0.5 0.5 0 0 0 0.5-0.5 0.5 0.5 0 0 0-0.5-0.5zm-2 2a0.5 0.5 0 0 0-0.5 0.5 0.5 0.5 0 0 0 0.5 0.5 0.5 0.5 0 0 0 0.5-0.5 0.5 0.5 0 0 0-0.5-0.5z" style="fill:#ece1d5"/>
 <use transform="translate(-15,15)" xlink:href="#path58"/>
 <use transform="rotate(90 24 24)" xlink:href="#path58"/>
 <path d="m13.5 17c-0.276 0-0.5 0.224-0.5 0.5s0.224 0.5 0.5 0.5 0.5-0.224 0.5-0.5-0.224-0.5-0.5-0.5zm4 0c-0.276 0-0.5 0.224-0.5 0.5s0.224 0.5 0.5 0.5 0.5-0.224 0.5-0.5-0.224-0.5-0.5-0.5zm-2 2c-0.276 0-0.5 0.224-0.5 0.5s0.224 0.5 0.5 0.5 0.5-0.224 0.5-0.5-0.224-0.5-0.5-0.5z" style="fill:#ece1d5"/>
 <path d="m18.5 18c-0.663-1e-4 -1.3-0.264-1.77-0.732l-2.27-2.27 7.07-1 1 1-2.27 2.27c-0.469 0.469-1.1 0.732-1.77 0.732z" style="opacity:.1"/>
 <path d="m17.5 17c-0.663-1e-4 -1.3-0.264-1.77-0.732l-2.27-2.27h8.07l-2.27 2.27c-0.469 0.469-1.1 0.732-1.77 0.732z" style="fill:#cfaf96"/>
 <path d="m24.3 18.3-6 6c-0.39 0.391-0.39 1.02 0 1.41l4 4c0.391 0.39 1.02 0.39 1.41 0l6-6c0.39-0.391 0.39-1.02 0-1.41l-4-4c-0.391-0.39-1.02-0.39-1.41 0z" style="fill:#c09c7c"/>
</svg>
