<svg version="1.1" viewBox="0 0 48 48" xmlns="http://www.w3.org/2000/svg">
 <defs>
  <linearGradient id="bg" x2="0" y1="1" y2="47" gradientUnits="userSpaceOnUse">
   <stop style="stop-color:#f2e673" offset="0"/>
   <stop style="stop-color:#f0e361" offset="1"/>
  </linearGradient>
 </defs>
 <path d="m36.31 5c5.859 4.062 9.688 10.831 9.688 18.5 0 12.426-10.07 22.5-22.5 22.5-7.669 0-14.438-3.828-18.5-9.688 1.037 1.822 2.306 3.499 3.781 4.969 4.085 3.712 9.514 5.969 15.469 5.969 12.703 0 23-10.298 23-23 0-5.954-2.256-11.384-5.969-15.469-1.469-1.475-3.147-2.744-4.969-3.781zm4.969 3.781c3.854 4.113 6.219 9.637 6.219 15.719 0 12.703-10.297 23-23 23-6.081 0-11.606-2.364-15.719-6.219 4.16 4.144 9.883 6.719 16.219 6.719 12.703 0 23-10.298 23-23 0-6.335-2.575-12.06-6.719-16.219z" style="opacity:.05"/>
 <path d="m41.28 8.781c3.712 4.085 5.969 9.514 5.969 15.469 0 12.703-10.297 23-23 23-5.954 0-11.384-2.256-15.469-5.969 4.113 3.854 9.637 6.219 15.719 6.219 12.703 0 23-10.298 23-23 0-6.081-2.364-11.606-6.219-15.719z" style="opacity:.1"/>
 <path d="m31.25 2.375c8.615 3.154 14.75 11.417 14.75 21.13 0 12.426-10.07 22.5-22.5 22.5-9.708 0-17.971-6.135-21.12-14.75a23 23 0 0 0 44.875-7 23 23 0 0 0-16-21.875z" style="opacity:.2"/>
 <circle cx="24" cy="24" r="23" style="fill:url(#bg)"/>
 <path d="m40.03 7.531c3.712 4.084 5.969 9.514 5.969 15.469 0 12.703-10.297 23-23 23-5.954 0-11.384-2.256-15.469-5.969 4.178 4.291 10.01 6.969 16.469 6.969 12.703 0 23-10.298 23-23 0-6.462-2.677-12.291-6.969-16.469z" style="opacity:.1"/>
 <path d="m19 13c-3.324 0-6 2.676-6 6v6c0 3.324 2.676 6 6 6 0.41683 0 0.82434-0.04093 1.2168-0.12109 0.93171 2.1614 2.046 4.1415 3.2832 6.1211l4.5-2 0.5-3.5c0.81246 2.124 3 5.5 3 5.5l5.5-3v-6c0-5-1-10-2-13l-4 1c1 3 2 8 2 12v3c-2-4-3-7-4-12l-4 0.88867v-0.88867c0-3.324-2.676-6-6-6zm0 4c1.108 0 2 0.892 2 2v3.9004l-3 0.59961c0.22459 1.2352 0.50246 2.3913 0.82227 3.4922-1.024-0.089509-1.8223-0.94419-1.8223-1.9922v-6c0-1.108 0.892-2 2-2zm5.9668 8.6367c0.031605 1.3392 0.033203 2.7699 0.033203 4.3633-0.27932-0.69638-0.53533-1.3626-0.77148-2.0508 0.39187-0.69578 0.651-1.4778 0.73828-2.3125z" style="opacity:.1"/>
 <path d="m18 12c-3.324 0-6 2.676-6 6v6c0 3.324 2.676 6 6 6s6-2.676 6-6v-6c0-3.324-2.676-6-6-6zm0 4c1.108 0 2 0.892 2 2v6c0 1.108-0.892 2-2 2s-2-0.892-2-2v-6c0-1.108 0.892-2 2-2z" style="fill:#129112"/>
 <path d="m23 22.5-3 0.59961-0.24805 6.6406c1.8191-0.55131 3.2673-1.9394 3.9004-3.7207-0.25622-1.0095-0.47532-2.1372-0.65234-3.5195z" style="opacity:.1"/>
 <path d="m34 14-4 1c1 3 2 8 2 12v3c-2-4-3-7-4-12l-4.5 1c0.5 3 0.5 6 0.5 10-0.89118-2.2218-1.5669-4.1178-2-7.5l-5 1c1 5.5 3 9.5 5.5 13.5l4.5-2 0.5-3.5c0.81246 2.124 3 5.5 3 5.5l5.5-3v-6c0-5-1-10-2-13z" style="fill:#f29c12"/>
</svg>
