<?xml version="1.0" encoding="UTF-8"?>
<svg version="1.1" viewBox="0 0 48 48" xmlns="http://www.w3.org/2000/svg">
 <defs>
  <linearGradient id="bg" x2="0" y1="1" y2="47" gradientUnits="userSpaceOnUse">
   <stop style="stop-color:#ededed" offset="0"/>
   <stop style="stop-color:#e3e3e3" offset="1"/>
  </linearGradient>
 </defs>
 <path d="m36.3 5c5.86 4.06 9.69 10.8 9.69 18.5 0 12.4-10.1 22.5-22.5 22.5-7.67 0-14.4-3.83-18.5-9.69 1.04 1.82 2.31 3.5 3.78 4.97 4.08 3.71 9.51 5.97 15.5 5.97 12.7 0 23-10.3 23-23 0-5.95-2.26-11.4-5.97-15.5-1.47-1.48-3.15-2.74-4.97-3.78zm4.97 3.78c3.85 4.11 6.22 9.64 6.22 15.7 0 12.7-10.3 23-23 23-6.08 0-11.6-2.36-15.7-6.22 4.16 4.14 9.88 6.72 16.2 6.72 12.7 0 23-10.3 23-23 0-6.34-2.58-12.1-6.72-16.2z" style="opacity:.05"/>
 <path d="m41.3 8.78c3.71 4.08 5.97 9.51 5.97 15.5 0 12.7-10.3 23-23 23-5.95 0-11.4-2.26-15.5-5.97 4.11 3.85 9.64 6.22 15.7 6.22 12.7 0 23-10.3 23-23 0-6.08-2.36-11.6-6.22-15.7z" style="opacity:.1"/>
 <path d="m31.2 2.38c8.62 3.15 14.8 11.4 14.8 21.1 0 12.4-10.1 22.5-22.5 22.5-9.71 0-18-6.14-21.1-14.8a23 23 0 0 0 44.9-7 23 23 0 0 0-16-21.9z" style="opacity:.2"/>
 <circle cx="24" cy="24" r="23" style="fill:url(#bg)"/>
 <path d="m40 7.53c3.71 4.08 5.97 9.51 5.97 15.5 0 12.7-10.3 23-23 23-5.95 0-11.4-2.26-15.5-5.97 4.18 4.29 10 6.97 16.5 6.97 12.7 0 23-10.3 23-23 0-6.46-2.68-12.3-6.97-16.5z" style="opacity:.1"/>
 <path d="m25 10c-2.19 2.29e-4 -4.36 0.481-6.34 1.41l0.857 1.84c1.72-0.81 3.59-1.23 5.49-1.24 7.18 0 13 5.82 13 13-0.0116 1.96-0.468 3.9-1.34 5.66l-1.66-1.66-3 8 8-3-1.85-1.85c1.2-2.19 1.84-4.65 1.85-7.15 1e-6 -8.28-6.72-15-15-15zm-7 3-8 3 1.85 1.85c-1.2 2.19-1.84 4.65-1.85 7.15-6e-7 8.28 6.72 15 15 15 2.19-2.29e-4 4.36-0.481 6.34-1.41l-0.857-1.84c-1.72 0.81-3.59 1.23-5.49 1.24-7.18 0-13-5.82-13-13 0.0116-1.96 0.468-3.9 1.34-5.66l1.66 1.66zm10 6-4 1-4.17 4c-0.424-1.2-1.56-2-2.83-2-1.66 0-3 1.34-3 3s1.34 3 3 3c1.27-0.0034 2.4-0.804 2.82-2h2.18l4 4 2-2e-3v1h4v-4h-6l-1-1h8v2l4-3-4-3v2h-10l2-2h1.27c0.356 0.617 1.01 0.998 1.73 1 1.1 0 2-0.895 2-2-1.5e-5 -1.1-0.895-2-2-2z" style="opacity:.1"/>
 <path d="m17 12-8 3 1.85 1.85a15 15 0 0 0-1.85 7.15 15 15 0 0 0 15 15 15 15 0 0 0 6.34-1.41l-0.857-1.84a13 13 0 0 1-5.49 1.24 13 13 0 0 1-13-13 13 13 0 0 1 1.34-5.66l1.66 1.66z" style="fill:#3985df"/>
 <path d="m31 36 8-3-1.85-1.85a15 15 0 0 0 1.85-7.15 15 15 0 0 0-15-15 15 15 0 0 0-6.34 1.41l0.857 1.84a13 13 0 0 1 5.49-1.24 13 13 0 0 1 13 13 13 13 0 0 1-1.34 5.66l-1.66-1.66z" style="fill:#e85f64"/>
 <path d="m27 18c-0.713 0.0023-1.37 0.384-1.73 1l-2.27-0.0019-4 4-0.172-3.8e-5c-0.424-1.2-1.56-2-2.83-2-1.66 0-3 1.34-3 3s1.34 3 3 3c1.27-0.0034 2.4-0.804 2.82-2l2.18 3.8e-5 4 4 2-2e-3v1h4v-4h-4l1.1e-5 1h-1l-2-2 8-3.8e-5 1.8e-5 2 4-3-4-3-1.8e-5 2-10 3.8e-5 2-2 1.27-3.8e-5c0.356 0.617 1.01 0.998 1.73 1 1.1 0 2-0.895 2-2-1.5e-5 -1.1-0.895-2-2-2z" style="fill:#757575"/>
</svg>
