<svg version="1.1" viewBox="0 0 48 48" xmlns="http://www.w3.org/2000/svg">
 <defs>
  <linearGradient id="bg" x2="0" y1="1" y2="47" gradientUnits="userSpaceOnUse">
   <stop style="stop-color:#56656d" offset="0"/>
   <stop style="stop-color:#4e5b62" offset="1"/>
  </linearGradient>
 </defs>
 <path d="m36.31 5c5.859 4.062 9.688 10.831 9.688 18.5 0 12.426-10.07 22.5-22.5 22.5-7.669 0-14.438-3.828-18.5-9.688 1.037 1.822 2.306 3.499 3.781 4.969 4.085 3.712 9.514 5.969 15.469 5.969 12.703 0 23-10.298 23-23 0-5.954-2.256-11.384-5.969-15.469-1.469-1.475-3.147-2.744-4.969-3.781zm4.969 3.781c3.854 4.113 6.219 9.637 6.219 15.719 0 12.703-10.297 23-23 23-6.081 0-11.606-2.364-15.719-6.219 4.16 4.144 9.883 6.719 16.219 6.719 12.703 0 23-10.298 23-23 0-6.335-2.575-12.06-6.719-16.219z" style="opacity:.05"/>
 <path d="m41.28 8.781c3.712 4.085 5.969 9.514 5.969 15.469 0 12.703-10.297 23-23 23-5.954 0-11.384-2.256-15.469-5.969 4.113 3.854 9.637 6.219 15.719 6.219 12.703 0 23-10.298 23-23 0-6.081-2.364-11.606-6.219-15.719z" style="opacity:.1"/>
 <path d="m31.25 2.375c8.615 3.154 14.75 11.417 14.75 21.13 0 12.426-10.07 22.5-22.5 22.5-9.708 0-17.971-6.135-21.12-14.75a23 23 0 0 0 44.875-7 23 23 0 0 0-16-21.875z" style="opacity:.2"/>
 <circle cx="24" cy="24" r="23" style="fill:url(#bg)"/>
 <path d="m40.03 7.531c3.712 4.084 5.969 9.514 5.969 15.469 0 12.703-10.297 23-23 23-5.954 0-11.384-2.256-15.469-5.969 4.178 4.291 10.01 6.969 16.469 6.969 12.703 0 23-10.298 23-23 0-6.462-2.677-12.291-6.969-16.469z" style="opacity:.1"/>
 <path d="m28.293 10.3788-1.5898 1.748a13 13 0 0 0-1.7031-0.12695 13 13 0 0 0-1.7012 0.12891l-1.5859-1.7441a15 15 0 0 0-2.6445 0.85742l-0.25586 2.3398a13 13 0 0 0-2.7676 2.002l-2.3027-0.47852a15 15 0 0 0-1.6289 2.25l1.1699 2.0488a13 13 0 0 0-1.0586 3.2402l-2.1562 0.97266a15 15 0 0 0-0.068359 1.3828 15 15 0 0 0 0.07617 1.3867l2.1465 0.9668a13 13 0 0 0 1.0586 3.248l-1.166 2.043a15 15 0 0 0 1.6348 2.248l2.3066-0.47852a13 13 0 0 0 2.7559 2.0156l0.25781 2.3438a15 15 0 0 0 2.6367 0.84766l1.5898-1.748a13 13 0 0 0 1.7031 0.12695 13 13 0 0 0 1.7012-0.12891l1.5859 1.7441a15 15 0 0 0 2.6445-0.85742l0.25586-2.3398a13 13 0 0 0 2.7676-2.002l2.3027 0.47852a15 15 0 0 0 1.6289-2.25l-1.1699-2.0488a13 13 0 0 0 1.0586-3.2402l2.1562-0.97266a15 15 0 0 0 0.068359-1.3828 15 15 0 0 0-0.076172-1.3867l-2.1465-0.9668a13 13 0 0 0-1.0586-3.248l1.166-2.043a15 15 0 0 0-1.6348-2.248l-2.3066 0.47852a13 13 0 0 0-2.7559-2.0156l-0.25781-2.3438a15 15 0 0 0-2.6367-0.84766zm-3.293 3.6211a11 11 0 0 1 11 11 11 11 0 0 1-11 11 11 11 0 0 1-11-11 11 11 0 0 1 11-11zm0 2c-0.71317 1.7461-1.1466 2.8902-1.9395 4.584 0.488 0.51446 1.0841 1.114 2.0527 1.7891-1.0431-0.42769-1.7521-0.85843-2.2832-1.3027-1.0142 2.1175-2.6036 5.1388-5.8301 10.93 2.536-1.4615 4.4988-2.3734 6.3301-2.7168-0.07937-0.33907-0.1216-0.70379-0.11914-1.0859l2e-3 -0.08008c0.03878-1.6252 0.88476-2.8739 1.8848-2.7871 1.0025 0.08431 1.7833 1.4698 1.7402 3.0938-0.0049 0.30523-0.04176 0.59969-0.09961 0.87109 1.8098 0.35569 3.7588 1.2626 6.2617 2.7051-0.49292-0.90645-0.93711-1.7333-1.3574-2.5117-0.66339-0.51199-1.3526-1.1826-2.7637-1.9062 0.96862 0.2523 1.6622 0.54481 2.2031 0.86914-4.2699-7.9495-4.6214-9.0167-6.082-12.451z" style="opacity:.1"/>
 <path d="m27.293 9.3789-1.5898 1.748a13 13 0 0 0-1.7031-0.12695 13 13 0 0 0-1.7012 0.12891l-1.5859-1.7441a15 15 0 0 0-2.6445 0.85742l-0.25586 2.3398a13 13 0 0 0-2.7676 2.002l-2.3027-0.47852a15 15 0 0 0-1.6289 2.25l1.1699 2.0488a13 13 0 0 0-1.0586 3.2402l-2.1562 0.97266a15 15 0 0 0-0.068359 1.3828 15 15 0 0 0 0.076172 1.3867l2.1465 0.9668a13 13 0 0 0 1.0586 3.248l-1.166 2.043a15 15 0 0 0 1.6348 2.248l2.3066-0.47852a13 13 0 0 0 2.7559 2.0156l0.25781 2.3438a15 15 0 0 0 2.6367 0.84766l1.5898-1.748a13 13 0 0 0 1.7031 0.12695 13 13 0 0 0 1.7012-0.12891l1.5859 1.7441a15 15 0 0 0 2.6445-0.85742l0.25586-2.3398a13 13 0 0 0 2.7676-2.002l2.3027 0.47852a15 15 0 0 0 1.6289-2.25l-1.1699-2.0488a13 13 0 0 0 1.0586-3.2402l2.1562-0.97266a15 15 0 0 0 0.068359-1.3828 15 15 0 0 0-0.076172-1.3867l-2.1465-0.9668a13 13 0 0 0-1.0586-3.248l1.166-2.043a15 15 0 0 0-1.6348-2.248l-2.3066 0.47852a13 13 0 0 0-2.7559-2.0156l-0.25781-2.3437a15 15 0 0 0-2.6367-0.84766zm-3.293 3.6211a11 11 0 0 1 11 11 11 11 0 0 1-11 11 11 11 0 0 1-11-11 11 11 0 0 1 11-11z" style="fill:#f2f3f5"/>
 <path d="m24 15c-0.71317 1.7461-1.1471 2.8902-1.9399 4.5841 0.488 0.51446 1.0843 1.1133 2.0529 1.7884-1.0431-0.42769-1.7526-0.85857-2.2836-1.3029-1.0142 2.1175-2.6029 5.1394-5.8294 10.93 2.536-1.4615 4.498-2.373 6.3293-2.7163-0.07937-0.33907-0.12025-0.70436-0.11779-1.0865l0.0023-0.07932c0.03878-1.6252 0.88462-2.8752 1.8846-2.7884 1.0025 0.08431 1.7835 1.4709 1.7404 3.0949-0.0049 0.30523-0.04311 0.5988-0.10096 0.8702 1.8099 0.35569 3.7593 1.2631 6.2622 2.7055-0.49292-0.90645-0.93668-1.7335-1.357-2.512-0.66339-0.51199-1.3534-1.1813-2.7644-1.905 0.96862 0.2523 1.6634 0.54348 2.2043 0.8678-4.2699-7.9495-4.6223-9.0159-6.0829-12.45z" style="fill:#1793cf"/>
</svg>
