<svg version="1.1" viewBox="0 0 48 48" xmlns="http://www.w3.org/2000/svg">
 <defs>
  <linearGradient id="bg" x1="1" x2="47" gradientTransform="matrix(0 -1 1 0 -1.5e-6 48)" gradientUnits="userSpaceOnUse">
   <stop style="stop-color:#4e5b62" offset="0"/>
   <stop style="stop-color:#56656d" offset="1"/>
  </linearGradient>
 </defs>
 <path d="m36.31 5c5.859 4.062 9.688 10.831 9.688 18.5 0 12.426-10.07 22.5-22.5 22.5-7.669 0-14.438-3.828-18.5-9.688 1.037 1.822 2.306 3.499 3.781 4.969 4.085 3.712 9.514 5.969 15.469 5.969 12.703 0 23-10.298 23-23 0-5.954-2.256-11.384-5.969-15.469-1.469-1.475-3.147-2.744-4.969-3.781zm4.969 3.781c3.854 4.113 6.219 9.637 6.219 15.719 0 12.703-10.297 23-23 23-6.081 0-11.606-2.364-15.719-6.219 4.16 4.144 9.883 6.719 16.219 6.719 12.703 0 23-10.298 23-23 0-6.335-2.575-12.06-6.719-16.219z" style="opacity:.05"/>
 <path d="m41.28 8.781c3.712 4.085 5.969 9.514 5.969 15.469 0 12.703-10.297 23-23 23-5.954 0-11.384-2.256-15.469-5.969 4.113 3.854 9.637 6.219 15.719 6.219 12.703 0 23-10.298 23-23 0-6.081-2.364-11.606-6.219-15.719z" style="opacity:.1"/>
 <path d="m31.25 2.375c8.615 3.154 14.75 11.417 14.75 21.13 0 12.426-10.07 22.5-22.5 22.5-9.708 0-17.971-6.135-21.12-14.75a23 23 0 0 0 44.875-7 23 23 0 0 0-16-21.875z" style="opacity:.2"/>
 <path d="m24 1c12.703 0 23 10.297 23 23s-10.297 23-23 23-23-10.297-23-23 10.297-23 23-23z" style="fill:url(#bg)"/>
 <g transform="translate(1,1)">
  <g style="opacity:.1">
   <path transform="translate(-1,-1)" d="m24.992 9.9902c0.002199 0.00517 0.003659 0.0085099 0.005859 0.013672-1.1578 2.8348-1.8628 4.6943-3.1504 7.4453 0.47023 0.49573 1.0216 1.0454 1.7051 1.6348-0.04181 0.14069-0.1018 0.27925-0.17188 0.41602-0.76623-0.41545-1.3974-0.8344-1.9082-1.2617-0.32822 0.68532-0.72834 1.4874-1.1445 2.3125-1.0664-0.36712-1.8603-1.0824-2.7461 0.21875-0.99517 1.4517 0.44429 1.6952 1.2773 2.6191-1.6037 3.0566-3.7162 6.9696-6.8594 12.611 4.121-2.375 7.3093-3.8561 10.285-4.4141-0.129-0.551-0.19541-1.1446-0.19141-1.7656l0.003906-0.12891c0.0021-0.08944 0.018338-0.17178 0.023438-0.25976 2.0058 1.2593 0.037258 3.476 2.5742 3.5645 2.578 0.078 0.66442-2.348 2.9414-3.457 0.11142-0.054269 0.21811-0.092266 0.32422-0.12891 0.01913 0.25632 0.034403 0.51339 0.027343 0.7793-8e-3 0.496-0.070062 0.97302-0.16406 1.4141 2.941 0.578 6.1087 2.0525 10.176 4.3965-0.801-1.473-1.5221-2.817-2.2051-4.082-0.90139-0.69569-1.8765-1.5743-3.498-2.5293 0.04159-0.05273 0.08301-0.096653 0.125-0.1582 0.01629-0.02388 0.024073-0.043177 0.039063-0.066407 0.99276 0.32527 1.7781 0.6812 2.4238 1.0684-1.46-2.7183-2.512-4.7166-3.4844-6.584 0.90156-0.76147 2.161-0.98574 1.3301-2.4219-0.79421-1.3654-1.6517-0.66927-2.7617-0.37305-2.4543-4.8489-3.3718-7.0973-4.9688-10.854l-0.007812-0.0097656z"/>
  </g>
 </g>
 <path d="m23.531 16.07c-1.395 0.426-0.172 2.414-2.164 3.391-2.281 1.109-3.418-1.699-4.785 0.309-1.371 2 1.891 1.691 1.801 4.055-0.094 2.359-3.316 1.859-2.109 3.945 1.211 2.082 2.555-0.652 4.746 0.594 2.188 1.246 0.094 3.543 2.676 3.633 2.578 0.078 0.664-2.348 2.941-3.457 2.285-1.113 3.418 1.695 4.785-0.309 1.371-2.01-1.887-1.695-1.801-4.059 0.094-2.359 3.316-1.859 2.109-3.945-1.211-2.082-2.555 0.652-4.746-0.594-2.188-1.246-0.094-3.543-2.672-3.633-0.324-8e-3 -0.578 8e-3 -0.781 0.07" style="fill:#eaeaea"/>
 <path d="m24 9c-1.16 2.84-1.8633 4.6952-3.1523 7.4492 0.793 0.836 1.7619 1.8092 3.3359 2.9062-1.695-0.695-2.8479-1.3952-3.7109-2.1172-1.648 3.441-4.2297 8.3517-9.4727 17.762 4.121-2.375 7.3092-3.8561 10.285-4.4141-0.129-0.551-0.19541-1.1446-0.19141-1.7656l0.0039-0.12891c0.063-2.641 1.4375-4.6722 3.0625-4.5312 1.629 0.137 2.8981 2.3903 2.8281 5.0293-8e-3 0.496-0.07006 0.97306-0.16406 1.4141 2.941 0.578 6.1088 2.0525 10.176 4.3965-0.801-1.473-1.5221-2.817-2.2051-4.082-1.078-0.832-2.1992-1.9197-4.4922-3.0957 1.574 0.41 2.703 0.88316 3.582 1.4102-6.945-12.93-7.5058-14.638-9.8848-20.232z" style="fill-rule:evenodd;fill:#1793cf"/>
 <path d="m40.03 7.531c3.712 4.084 5.969 9.514 5.969 15.469 0 12.703-10.297 23-23 23-5.954 0-11.384-2.256-15.469-5.969 4.178 4.291 10.01 6.969 16.469 6.969 12.703 0 23-10.298 23-23 0-6.462-2.677-12.291-6.969-16.469z" style="opacity:.1"/>
</svg>
