<svg version="1.1" viewBox="0 0 48 48" xmlns="http://www.w3.org/2000/svg">
 <defs>
  <linearGradient id="bg" x2="0" y1="1" y2="47" gradientUnits="userSpaceOnUse">
   <stop style="stop-color:#7e7558" offset="0"/>
   <stop style="stop-color:#726a50" offset="1"/>
  </linearGradient>
 </defs>
 <path d="m36.3 5c5.86 4.06 9.69 10.8 9.69 18.5 0 12.4-10.1 22.5-22.5 22.5-7.67 0-14.4-3.83-18.5-9.69 1.04 1.82 2.31 3.5 3.78 4.97 4.08 3.71 9.51 5.97 15.5 5.97 12.7 0 23-10.3 23-23 0-5.95-2.26-11.4-5.97-15.5-1.47-1.48-3.15-2.74-4.97-3.78zm4.97 3.78c3.85 4.11 6.22 9.64 6.22 15.7 0 12.7-10.3 23-23 23-6.08 0-11.6-2.36-15.7-6.22 4.16 4.14 9.88 6.72 16.2 6.72 12.7 0 23-10.3 23-23 0-6.34-2.58-12.1-6.72-16.2z" style="opacity:.05"/>
 <path d="m41.3 8.78c3.71 4.08 5.97 9.51 5.97 15.5 0 12.7-10.3 23-23 23-5.95 0-11.4-2.26-15.5-5.97 4.11 3.85 9.64 6.22 15.7 6.22 12.7 0 23-10.3 23-23 0-6.08-2.36-11.6-6.22-15.7z" style="opacity:.1"/>
 <path d="m31.2 2.38c8.62 3.15 14.8 11.4 14.8 21.1 0 12.4-10.1 22.5-22.5 22.5-9.71 0-18-6.14-21.1-14.8a23 23 0 0 0 44.9-7 23 23 0 0 0-16-21.9z" style="opacity:.2"/>
 <circle cx="24" cy="24" r="23" style="fill:url(#bg)"/>
 <path d="m11 25c0 4.99 4.01 9 9 9h10c4.99 0 9-4.01 9-9 0-2.15-0.748-4.12-2-5.67v-1.33c0-1.66-2.23-3-5-3z" style="opacity:.1"/>
 <path d="m31 14c2.77 0 5 1.34 5 3v2l-7-4c0-0.554 0.446-1 1-1z" style="fill:#aaa"/>
 <path d="m40 7.53c3.71 4.08 5.97 9.51 5.97 15.5 0 12.7-10.3 23-23 23-5.95 0-11.4-2.26-15.5-5.97 4.18 4.29 10 6.97 16.5 6.97 12.7 0 23-10.3 23-23 0-6.46-2.68-12.3-6.97-16.5z" style="opacity:.1"/>
 <path d="m17 14c-2.77 0-5 1.34-5 3v2l7-4c0-0.554-0.446-1-1-1h-1z" style="fill:#5498e8"/>
 <path d="m24 15 2 9-2 9h-5c-4.99 0-9-4.01-9-9s4.01-9 9-9z" style="fill:#99c1f1"/>
 <path d="m24 15v18h5c4.99 0 9-4.01 9-9s-4.01-9-9-9z" style="fill:#e2e3e4"/>
 <path d="m13 25.5c0 0.831 0.669 1.5 1.5 1.5h1.5v1.5c0 0.831 0.669 1.5 1.5 1.5h1c0.831 0 1.5-0.669 1.5-1.5v-1.5h1.5c0.831 0 1.5-0.669 1.5-1.5v-1c0-0.831-0.669-1.5-1.5-1.5h-1.5v-1.5c0-0.831-0.669-1.5-1.5-1.5zm19-5.5c-1.1 0-2 0.895-2 2s0.895 2 2 2 2-0.895 2-2-0.895-2-2-2zm-3 3c-1.1 0-2 0.895-2 2s0.895 2 2 2 2-0.895 2-2-0.895-2-2-2zm6 0c-1.1 0-2 0.895-2 2s0.895 2 2 2 2-0.895 2-2-0.895-2-2-2zm-3 3c-1.1 0-2 0.895-2 2s0.895 2 2 2 2-0.895 2-2-0.895-2-2-2z" style="opacity:.1"/>
 <path d="m30 24a2 2 0 0 1-2 2 2 2 0 0 1-2-2 2 2 0 0 1 2-2 2 2 0 0 1 2 2z" style="fill:#cdc00e"/>
 <path d="m33 27a2 2 0 0 1-2 2 2 2 0 0 1-2-2 2 2 0 0 1 2-2 2 2 0 0 1 2 2z" style="fill:#b06cc7"/>
 <path d="m36 24a2 2 0 0 1-2 2 2 2 0 0 1-2-2 2 2 0 0 1 2-2 2 2 0 0 1 2 2z" style="fill:#e94958"/>
 <path d="m33 21a2 2 0 0 1-2 2 2 2 0 0 1-2-2 2 2 0 0 1 2-2 2 2 0 0 1 2 2z" style="fill:#ef7f3e"/>
 <path d="m16.5 19c-0.831 0-1.5 0.669-1.5 1.5v1.5h-1.5c-0.831 0-1.5 0.669-1.5 1.5v1c0 0.831 0.669 1.5 1.5 1.5h1.5v1.5c0 0.831 0.669 1.5 1.5 1.5h1c0.831 0 1.5-0.669 1.5-1.5v-1.5h1.5c0.831 0 1.5-0.669 1.5-1.5v-1c0-0.831-0.669-1.5-1.5-1.5h-1.5v-1.5c0-0.831-0.669-1.5-1.5-1.5z" style="fill:#5498e8"/>
</svg>
