<svg version="1.1" viewBox="0 0 48 48" xmlns="http://www.w3.org/2000/svg">
 <defs>
  <linearGradient id="bg" x2="0" y1="1" y2="47" gradientUnits="userSpaceOnUse">
   <stop style="stop-color:#4f6363" offset="0"/>
   <stop style="stop-color:#465858" offset="1"/>
  </linearGradient>
 </defs>
 <path d="m36.3 5c5.86 4.06 9.69 10.8 9.69 18.5 0 12.4-10.1 22.5-22.5 22.5-7.67 0-14.4-3.83-18.5-9.69 1.04 1.82 2.31 3.5 3.78 4.97 4.08 3.71 9.51 5.97 15.5 5.97 12.7 0 23-10.3 23-23 0-5.95-2.26-11.4-5.97-15.5-1.47-1.48-3.15-2.74-4.97-3.78zm4.97 3.78c3.85 4.11 6.22 9.64 6.22 15.7 0 12.7-10.3 23-23 23-6.08 0-11.6-2.36-15.7-6.22 4.16 4.14 9.88 6.72 16.2 6.72 12.7 0 23-10.3 23-23 0-6.34-2.58-12.1-6.72-16.2z" style="opacity:.05"/>
 <path d="m41.3 8.78c3.71 4.08 5.97 9.51 5.97 15.5 0 12.7-10.3 23-23 23-5.95 0-11.4-2.26-15.5-5.97 4.11 3.85 9.64 6.22 15.7 6.22 12.7 0 23-10.3 23-23 0-6.08-2.36-11.6-6.22-15.7z" style="opacity:.1"/>
 <path d="m31.2 2.38c8.62 3.15 14.8 11.4 14.8 21.1 0 12.4-10.1 22.5-22.5 22.5-9.71 0-18-6.14-21.1-14.8a23 23 0 0 0 44.9-7 23 23 0 0 0-16-21.9z" style="opacity:.2"/>
 <circle cx="24" cy="24" r="23" style="fill:url(#bg)"/>
 <path d="m40 7.53c3.71 4.08 5.97 9.51 5.97 15.5 0 12.7-10.3 23-23 23-5.95 0-11.4-2.26-15.5-5.97 4.18 4.29 10 6.97 16.5 6.97 12.7 0 23-10.3 23-23 0-6.46-2.68-12.3-6.97-16.5z" style="opacity:.1"/>
 <path d="m13 22c0 1.11 0.892 2 2 2h7c1.11 0 2-0.892 2-2v-7c0-1.11-0.892-2-2-2zm13 0c0 1.11 0.892 2 2 2h7c1.11 0 2-0.892 2-2v-7c0-1.11-0.892-2-2-2zm-13 13c0 1.11 0.892 2 2 2h7c1.11 0 2-0.892 2-2v-7c0-1.11-0.892-2-2-2zm13 0c0 1.11 0.892 2 2 2h7c1.11 0 2-0.892 2-2v-7c0-1.11-0.892-2-2-2z" style="opacity:.1"/>
 <path d="m14 12h7c1.11 0 2 0.892 2 2v7c0 1.11-0.892 2-2 2h-7c-1.11 0-2-0.892-2-2v-7c0-1.11 0.892-2 2-2z" style="fill:#72e997"/>
 <path d="m27 12c-1.11 0-2 0.892-2 2v7c0 1.11 0.892 2 2 2h7c1.11 0 2-0.892 2-2v-7c0-1.11-0.892-2-2-2h-7zm-13 13c-1.11 0-2 0.892-2 2v7c0 1.11 0.892 2 2 2h7c1.11 0 2-0.892 2-2v-7c0-1.11-0.892-2-2-2h-7z" style="fill:#f6ed6e"/>
 <path d="m27 25h7c1.11 0 2 0.892 2 2v7c0 1.11-0.892 2-2 2h-7c-1.11 0-2-0.892-2-2v-7c0-1.11 0.892-2 2-2z" style="fill:#f9f9f9"/>
 <path d="m30.5 13a4.5 4.5 0 0 0-4.5 4.5 4.5 4.5 0 0 0 4.5 4.5 4.5 4.5 0 0 0 4.5-4.5 4.5 4.5 0 0 0-4.5-4.5zm-16.6 0.00977a1 1 0 0 0-0.85 1.13l1 7a1 1 0 0 0 1.84 0.389l1.65-2.64 1.65 2.64a1 1 0 0 0 1.84-0.389l1-7a1 1 0 0 0-0.85-1.13 1 1 0 0 0-1.13 0.85l-0.613 4.29-1.05-1.68a1 1 0 0 0-1.7 0l-1.05 1.68-0.613-4.29a1 1 0 0 0-1.13-0.85zm16.6 1.99a2.5 2.5 0 0 1 2.5 2.5 2.5 2.5 0 0 1-2.5 2.5 2.5 2.5 0 0 1-2.5-2.5 2.5 2.5 0 0 1 2.5-2.5zm-15.5 11c-0.554 0-1 0.446-1 1v7c0 0.554 0.446 1 1 1s1-0.446 1-1v-2h2c0.554 0 1 0.446 1 1v1c0 0.554 0.446 1 1 1s1-0.446 1-1v-1c0-0.77-0.287-1.47-0.76-2 0.473-0.53 0.76-1.23 0.76-2 0-1.66-1.34-3-3-3h-3zm13 0c-0.554 0-1 0.446-1 1v7c0 0.554 0.446 1 1 1h2.5c2.49 0 4.5-2.01 4.5-4.5s-2.01-4.5-4.5-4.5h-2.5zm-12 2h2c0.554 0 1 0.446 1 1s-0.446 1-1 1h-2v-2zm13 0h1.5c1.38 0 2.5 1.12 2.5 2.5s-1.12 2.5-2.5 2.5h-1.5v-5z" style="fill:#555"/>
</svg>
