<svg version="1.1" viewBox="0 0 48 48" xmlns="http://www.w3.org/2000/svg">
 <defs>
  <linearGradient id="bg" x2="0" y1="1" y2="47" gradientUnits="userSpaceOnUse">
   <stop style="stop-color:#2ab173" offset="0"/>
   <stop style="stop-color:#26a269" offset="1"/>
  </linearGradient>
 </defs>
 <path d="m36.31 5c5.859 4.062 9.688 10.831 9.688 18.5 0 12.426-10.07 22.5-22.5 22.5-7.669 0-14.438-3.828-18.5-9.688 1.037 1.822 2.306 3.499 3.781 4.969 4.085 3.712 9.514 5.969 15.469 5.969 12.703 0 23-10.298 23-23 0-5.954-2.256-11.384-5.969-15.469-1.469-1.475-3.147-2.744-4.969-3.781zm4.969 3.781c3.854 4.113 6.219 9.637 6.219 15.719 0 12.703-10.297 23-23 23-6.081 0-11.606-2.364-15.719-6.219 4.16 4.144 9.883 6.719 16.219 6.719 12.703 0 23-10.298 23-23 0-6.335-2.575-12.06-6.719-16.219z" style="opacity:.05"/>
 <path d="m41.28 8.781c3.712 4.085 5.969 9.514 5.969 15.469 0 12.703-10.297 23-23 23-5.954 0-11.384-2.256-15.469-5.969 4.113 3.854 9.637 6.219 15.719 6.219 12.703 0 23-10.298 23-23 0-6.081-2.364-11.606-6.219-15.719z" style="opacity:.1"/>
 <path d="m31.25 2.375c8.615 3.154 14.75 11.417 14.75 21.13 0 12.426-10.07 22.5-22.5 22.5-9.708 0-17.971-6.135-21.12-14.75a23 23 0 0 0 44.875-7 23 23 0 0 0-16-21.875z" style="opacity:.2"/>
 <circle cx="24" cy="24" r="23" style="fill:url(#bg)"/>
 <path d="m40.03 7.531c3.712 4.084 5.969 9.514 5.969 15.469 0 12.703-10.297 23-23 23-5.954 0-11.384-2.256-15.469-5.969 4.178 4.291 10.01 6.969 16.469 6.969 12.703 0 23-10.298 23-23 0-6.462-2.677-12.291-6.969-16.469z" style="opacity:.1"/>
 <rect x="13" y="13" width="24" height="24" ry="2" style="opacity:.1"/>
 <rect x="12" y="12" width="24" height="24" ry="2" style="fill:#f9f9f9"/>
 <path d="m15 15v20h9v-20h-9zm1 1h7v8h-7v-8zm9 0v11h10v-11h-10zm-8 1 2 3-2 3h5v-2h-1v1h-2l1.25-2-1.25-2h2v1h1v-2h-5zm9 0h8v9h-8v-9zm3.5 1c-0.82843-4.1e-5 -1.5 0.67157-1.5 1.5v4c0 0.27614-0.22386 0.50001-0.5 0.5-0.1326-6e-6 -0.25976-0.05271-0.35352-0.14648l-0.70703 0.70703c0.28126 0.28132 0.66274 0.43943 1.0605 0.43945 0.82843 4.1e-5 1.5-0.67157 1.5-1.5v-4c0-0.27614 0.22386-0.50001 0.5-0.5 0.1326 6e-6 0.25976 0.05271 0.35352 0.14648l0.70703-0.70703c-0.28126-0.28132-0.66274-0.43943-1.0605-0.43945zm3 0c-0.82843-4.1e-5 -1.5 0.67157-1.5 1.5v4c0 0.27614-0.22386 0.50001-0.5 0.5-0.1326-6e-6 -0.25976-0.05271-0.35352-0.14648l-0.70703 0.70703c0.28126 0.28132 0.66274 0.43943 1.0605 0.43945 0.82843 4.1e-5 1.5-0.67157 1.5-1.5v-4c0-0.27614 0.22386-0.50001 0.5-0.5 0.1326 6e-6 0.25976 0.05271 0.35352 0.14648l0.70703-0.70703c-0.28126-0.28132-0.66274-0.43943-1.0605-0.43945zm-16.5 7h7v9h-7v-9zm3 1c-1.1046 0-2 0.89543-2 2s0.89543 2 2 2v3h1v-6h1v6h1v-7h-3z" style="opacity:.1"/>
 <path d="m16 16 2 3-2 3h5v-2h-1v1h-2l1.25-2-1.25-2h2v1h1v-2zm12.5 1c-0.82843-4.1e-5 -1.5 0.67157-1.5 1.5v4c0 0.27614-0.22386 0.50001-0.5 0.5-0.1326-6e-6 -0.25976-0.05271-0.35352-0.14648l-0.70703 0.70703c0.28126 0.28132 0.66274 0.43943 1.0605 0.43945 0.82843 4.1e-5 1.5-0.67157 1.5-1.5v-4c0-0.27614 0.22386-0.50001 0.5-0.5 0.1326 6e-6 0.25976 0.05271 0.35352 0.14648l0.70703-0.70703c-0.28126-0.28132-0.66274-0.43943-1.0605-0.43945zm3 0c-0.82843-4.1e-5 -1.5 0.67157-1.5 1.5v4c0 0.27614-0.22386 0.50001-0.5 0.5-0.1326-6e-6 -0.25976-0.05271-0.35352-0.14648l-0.70703 0.70703c0.28126 0.28132 0.66274 0.43943 1.0605 0.43945 0.82843 4.1e-5 1.5-0.67157 1.5-1.5v-4c0-0.27614 0.22386-0.50001 0.5-0.5 0.1326 6e-6 0.25976 0.05271 0.35352 0.14648l0.70703-0.70703c-0.28126-0.28132-0.66274-0.43943-1.0605-0.43945zm-13.5 8c-1.1046 0-2 0.89543-2 2s0.89543 2 2 2v3h1v-6h1v6h1v-7z" style="fill:#474747"/>
 <path d="m14 14v20h9v-20h-9zm1 1h7v8h-7v-8zm9 0v11h10v-11h-10zm1 1h8v9h-8v-9zm-10 8h7v9h-7v-9z" style="fill:#3584e4"/>
</svg>
