<svg version="1.1" viewBox="0 0 48 48" xmlns="http://www.w3.org/2000/svg">
 <defs>
  <linearGradient id="bg" x2="0" y1="1" y2="47" gradientUnits="userSpaceOnUse">
   <stop style="stop-color:#4d4d4d" offset="0"/>
   <stop style="stop-color:#424242" offset="1"/>
  </linearGradient>
 </defs>
 <path d="m36.3 5c5.86 4.06 9.69 10.8 9.69 18.5 0 12.4-10.1 22.5-22.5 22.5-7.67 0-14.4-3.83-18.5-9.69 1.04 1.82 2.31 3.5 3.78 4.97 4.08 3.71 9.51 5.97 15.5 5.97 12.7 0 23-10.3 23-23 0-5.95-2.26-11.4-5.97-15.5-1.47-1.48-3.15-2.74-4.97-3.78zm4.97 3.78c3.85 4.11 6.22 9.64 6.22 15.7 0 12.7-10.3 23-23 23-6.08 0-11.6-2.36-15.7-6.22 4.16 4.14 9.88 6.72 16.2 6.72 12.7 0 23-10.3 23-23 0-6.34-2.58-12.1-6.72-16.2z" style="opacity:.05"/>
 <path d="m41.3 8.78c3.71 4.08 5.97 9.51 5.97 15.5 0 12.7-10.3 23-23 23-5.95 0-11.4-2.26-15.5-5.97 4.11 3.85 9.64 6.22 15.7 6.22 12.7 0 23-10.3 23-23 0-6.08-2.36-11.6-6.22-15.7z" style="opacity:.1"/>
 <path d="m31.2 2.38c8.62 3.15 14.8 11.4 14.8 21.1 0 12.4-10.1 22.5-22.5 22.5-9.71 0-18-6.14-21.1-14.8a23 23 0 0 0 44.9-7 23 23 0 0 0-16-21.9z" style="opacity:.2"/>
 <circle cx="24" cy="24" r="23" style="fill:url(#bg)"/>
 <path d="m40 7.53c3.71 4.08 5.97 9.51 5.97 15.5 0 12.7-10.3 23-23 23-5.95 0-11.4-2.26-15.5-5.97 4.18 4.29 10 6.97 16.5 6.97 12.7 0 23-10.3 23-23 0-6.46-2.68-12.3-6.97-16.5z" style="opacity:.1"/>
 <path d="m25 14-10 11c0 1.01 0.521 1.92 1.3 2.46 1.07 4.27 4.88 7.43 9.47 7.53 0.552 0.614 1.35 1.01 2.22 1.01 1.64 0 3-1.36 3-3 0-0.875-0.39-1.67-1-2.22v-10.8h1v-6zm0 5.08 0.785 11.9c-2.56-0.0893-4.71-1.77-5.48-4.09 0.43-0.52 0.691-1.18 0.691-1.9s-0.261-1.38-0.691-1.9c0.69-2.08 2.48-3.65 4.69-4.02z" style="opacity:.1"/>
 <path d="m25 14c-5.54 0-10 4.46-10 10s4.46 10 10 10h4v-20zm0 4v12c-3.32 0-6-2.68-6-6s2.68-6 6-6z" style="fill:#ccc"/>
 <path d="m25 18v2h4v-2h-4zm-6 6-3.77 2.14c0.455 1.08 1.53 1.86 2.77 1.86 0.744 0 1.43-0.283 1.96-0.742-0.605-0.937-0.957-2.05-0.957-3.26z" style="opacity:.1"/>
 <path d="m24 13v6h6v-6zm-7 8c-1.64 0-3 1.36-3 3s1.36 3 3 3 3-1.36 3-3-1.36-3-3-3zm10 8c-1.64 0-3 1.36-3 3s1.36 3 3 3 3-1.36 3-3-1.36-3-3-3z" style="fill:#87c20a"/>
 <path d="m27 16a1 1 0 0 0-1 1 1 1 0 0 0 1 1 1 1 0 0 0 1-1 1 1 0 0 0-1-1zm-10 8a1 1 0 0 0-1 1 1 1 0 0 0 1 1 1 1 0 0 0 1-1 1 1 0 0 0-1-1zm10 8a1 1 0 0 0-1 1 1 1 0 0 0 1 1 1 1 0 0 0 1-1 1 1 0 0 0-1-1z" style="opacity:.1"/>
 <path d="m27 15a1 1 0 0 0-1 1 1 1 0 0 0 1 1 1 1 0 0 0 1-1 1 1 0 0 0-1-1zm-10 8a1 1 0 0 0-1 1 1 1 0 0 0 1 1 1 1 0 0 0 1-1 1 1 0 0 0-1-1zm10 8a1 1 0 0 0-1 1 1 1 0 0 0 1 1 1 1 0 0 0 1-1 1 1 0 0 0-1-1z" style="fill:#474747"/>
</svg>
