<svg version="1.1" viewBox="0 0 48 48" xmlns="http://www.w3.org/2000/svg" xmlns:xlink="http://www.w3.org/1999/xlink">
 <defs>
  <linearGradient id="linearGradient863" x2="0" y1="47" y2="1" gradientUnits="userSpaceOnUse">
   <stop style="stop-color:#5e5e5e" offset="0"/>
   <stop style="stop-color:#686868" offset="1"/>
  </linearGradient>
 </defs>
 <path d="m36.31 5c5.859 4.062 9.688 10.831 9.688 18.5 0 12.426-10.07 22.5-22.5 22.5-7.669 0-14.438-3.828-18.5-9.688 1.037 1.822 2.306 3.499 3.781 4.969 4.085 3.712 9.514 5.969 15.469 5.969 12.703 0 23-10.298 23-23 0-5.954-2.256-11.384-5.969-15.469-1.469-1.475-3.147-2.744-4.969-3.781zm4.969 3.781c3.854 4.113 6.219 9.637 6.219 15.719 0 12.703-10.297 23-23 23-6.081 0-11.606-2.364-15.719-6.219 4.16 4.144 9.883 6.719 16.219 6.719 12.703 0 23-10.298 23-23 0-6.335-2.575-12.06-6.719-16.219z" style="opacity:.05"/>
 <path d="m41.28 8.781c3.712 4.085 5.969 9.514 5.969 15.469 0 12.703-10.297 23-23 23-5.954 0-11.384-2.256-15.469-5.969 4.113 3.854 9.637 6.219 15.719 6.219 12.703 0 23-10.298 23-23 0-6.081-2.364-11.606-6.219-15.719z" style="opacity:.1"/>
 <path d="m31.25 2.375c8.615 3.154 14.75 11.417 14.75 21.13 0 12.426-10.07 22.5-22.5 22.5-9.708 0-17.971-6.135-21.12-14.75a23 23 0 0 0 44.875 -7 23 23 0 0 0 -16 -21.875z" style="opacity:.2"/>
 <g style="fill:#5e5e5e">
  <path d="m24 1c12.703 0 23 10.297 23 23s-10.297 23-23 23-23-10.297-23-23 10.297-23 23-23z" style="fill:url(#linearGradient863)"/>
 </g>
 <path d="m27.562 13c-0.602 0.011-1.133 0.158-1.5 0.438 0.019 0.012 0.067 0.015 0.094 0.031l7.844 4.625c0.14-1.243-1.078-2.93-3-4.063-1.205-0.707-2.434-1.05-3.438-1.031zm-1.219 1.25c-0.438-0.055-0.89 0.146-1.125 0.563l-6.125 10.844c-0.313 0.555-0.133 1.247 0.406 1.563l0.5 0.313c0.539 0.32 1.214 0.113 1.531-0.438l6.125-10.844c0.313-0.551 0.137-1.242-0.406-1.563l-0.5-0.313c-0.136-0.079-0.26-0.107-0.406-0.125zm2.781 1.656c-0.438-0.056-0.89 0.146-1.125 0.563l-6.125 10.844c-0.313 0.555-0.102 1.242 0.438 1.563l0.469 0.281c0.539 0.32 1.25 0.149 1.563-0.406l6.125-10.844c0.313-0.555 0.137-1.274-0.406-1.594l-0.5-0.281c-0.136-0.08-0.291-0.106-0.438-0.125zm2.813 1.625c-0.438-0.055-0.89 0.149-1.125 0.563l-6.125 10.844c-0.313 0.551-0.133 1.274 0.406 1.594l0.5 0.281c0.539 0.316 1.218 0.149 1.531-0.406l6.125-10.844c0.313-0.555 0.137-1.278-0.406-1.594l-0.5-0.281c-0.136-0.08-0.26-0.138-0.406-0.156zm-13.656 9.625-0.219 9.844 8.219-5.125z" style="fill-rule:evenodd;opacity:.1"/>
 <path d="m30.01 13.04c1.922 1.133 3.117 2.816 2.977 4.059l-7.84-4.625c-0.027-0.016-0.051-0.027-0.07-0.039 0.98-0.746 3.01-0.527 4.938 0.605m-4e-3 0" style="fill-rule:evenodd;fill:#fff"/>
 <path d="m31.844 16.98-0.492-0.293c-0.543-0.32-1.234-0.129-1.547 0.422l-6.125 10.84c-0.313 0.551-0.125 1.258 0.414 1.578l0.496 0.293c0.539 0.316 1.234 0.129 1.547-0.426l6.121-10.836c0.313-0.555 0.129-1.262-0.414-1.578" style="fill-rule:evenodd;fill:#fff"/>
 <path d="m29.05 15.328-0.492-0.289c-0.543-0.32-1.234-0.133-1.547 0.422l-6.125 10.836c-0.313 0.555-0.125 1.262 0.414 1.582l0.496 0.289c0.539 0.32 1.234 0.133 1.547-0.422l6.121-10.836c0.313-0.555 0.129-1.262-0.414-1.582" style="fill-rule:evenodd;fill:#fff"/>
 <path d="m26.25 13.68-0.492-0.293c-0.543-0.316-1.234-0.129-1.547 0.426l-6.125 10.836c-0.313 0.555-0.125 1.262 0.414 1.578l0.496 0.293c0.539 0.32 1.23 0.129 1.547-0.422l6.121-10.84c0.313-0.551 0.129-1.258-0.414-1.578" style="fill-rule:evenodd;fill:#fff"/>
 <path d="m25.281 30.875-7.988-4.707-0.238 9.832 8.227-5.125" style="fill-rule:evenodd;fill:#fff"/>
 <path d="m40.03 7.531c3.712 4.084 5.969 9.514 5.969 15.469 0 12.703-10.297 23-23 23-5.954 0-11.384-2.256-15.469-5.969 4.178 4.291 10.01 6.969 16.469 6.969 12.703 0 23-10.298 23-23 0-6.462-2.677-12.291-6.969-16.469z" style="opacity:.1"/>
</svg>
