<svg version="1.1" viewBox="0 0 48 48" xmlns="http://www.w3.org/2000/svg">
 <defs>
  <linearGradient id="lG863" x2="0" y1="47" y2="1" gradientUnits="userSpaceOnUse">
   <stop style="stop-color:#5e5e5e" offset="0"/>
   <stop style="stop-color:#686868" offset="1"/>
  </linearGradient>
 </defs>
 <path d="m36.3 5c5.86 4.06 9.69 10.8 9.69 18.5 0 12.4-10.1 22.5-22.5 22.5-7.67 0-14.4-3.83-18.5-9.69 1.04 1.82 2.31 3.5 3.78 4.97 4.08 3.71 9.51 5.97 15.5 5.97 12.7 0 23-10.3 23-23 0-5.95-2.26-11.4-5.97-15.5-1.47-1.48-3.15-2.74-4.97-3.78zm4.97 3.78c3.85 4.11 6.22 9.64 6.22 15.7 0 12.7-10.3 23-23 23-6.08 0-11.6-2.36-15.7-6.22 4.16 4.14 9.88 6.72 16.2 6.72 12.7 0 23-10.3 23-23 0-6.34-2.58-12.1-6.72-16.2z" style="opacity:.05"/>
 <path d="m41.3 8.78c3.71 4.08 5.97 9.51 5.97 15.5 0 12.7-10.3 23-23 23-5.95 0-11.4-2.26-15.5-5.97 4.11 3.85 9.64 6.22 15.7 6.22 12.7 0 23-10.3 23-23 0-6.08-2.36-11.6-6.22-15.7z" style="opacity:.1"/>
 <path d="m31.2 2.38c8.62 3.15 14.8 11.4 14.8 21.1 0 12.4-10.1 22.5-22.5 22.5-9.71 0-18-6.14-21.1-14.8a23 23 0 0 0 44.9-7 23 23 0 0 0-16-21.9z" style="opacity:.2"/>
 <g style="fill:#5e5e5e">
  <path d="m24 1c12.7 0 23 10.3 23 23s-10.3 23-23 23-23-10.3-23-23 10.3-23 23-23z" style="fill:url(#lG863)"/>
 </g>
 <path d="m27.6 13c-0.602 0.011-1.13 0.158-1.5 0.438 0.019 0.012 0.067 0.015 0.094 0.031l7.84 4.62c0.14-1.24-1.08-2.93-3-4.06-1.2-0.707-2.43-1.05-3.44-1.03zm-1.22 1.25c-0.438-0.055-0.89 0.146-1.12 0.563l-6.12 10.8c-0.313 0.555-0.133 1.25 0.406 1.56l0.5 0.313c0.539 0.32 1.21 0.113 1.53-0.438l6.12-10.8c0.313-0.551 0.137-1.24-0.406-1.56l-0.5-0.313c-0.136-0.079-0.26-0.107-0.406-0.125zm2.78 1.66c-0.438-0.056-0.89 0.146-1.12 0.563l-6.12 10.8c-0.313 0.555-0.102 1.24 0.438 1.56l0.469 0.281c0.539 0.32 1.25 0.149 1.56-0.406l6.12-10.8c0.313-0.555 0.137-1.27-0.406-1.59l-0.5-0.281c-0.136-0.08-0.291-0.106-0.438-0.125zm2.81 1.62c-0.438-0.055-0.89 0.149-1.12 0.563l-6.12 10.8c-0.313 0.551-0.133 1.27 0.406 1.59l0.5 0.281c0.539 0.316 1.22 0.149 1.53-0.406l6.12-10.8c0.313-0.555 0.137-1.28-0.406-1.59l-0.5-0.281c-0.136-0.08-0.26-0.138-0.406-0.156zm-13.7 9.62-0.219 9.84 8.22-5.12z" style="opacity:.1"/>
 <path d="m26.6 12c-0.602 0.0111-1.12 0.156-1.49 0.436 0.019 0.012 0.0433 0.0231 0.0703 0.0391l7.84 4.62c0.14-1.24-1.05-2.93-2.98-4.06h0.00586c-1.2-0.707-2.45-1.06-3.45-1.04zm-1.34 1.23c-0.402-0.0102-0.795 0.197-1.01 0.578l-6.12 10.8c-0.313 0.555-0.125 1.26 0.414 1.58l0.496 0.293c0.539 0.32 1.23 0.129 1.55-0.422l6.12-10.8c0.313-0.551 0.129-1.26-0.414-1.58l-0.492-0.293c-0.17-0.0988-0.355-0.148-0.537-0.152zm2.8 1.65c-0.402-0.0115-0.795 0.197-1.01 0.578l-6.12 10.8c-0.313 0.555-0.125 1.26 0.414 1.58l0.496 0.289c0.539 0.32 1.23 0.133 1.55-0.422l6.12-10.8c0.313-0.555 0.129-1.26-0.414-1.58l-0.492-0.289c-0.17-0.1-0.355-0.151-0.537-0.156zm2.79 1.65c-0.402-0.0106-0.797 0.199-1.01 0.578l-6.12 10.8c-0.313 0.551-0.125 1.26 0.414 1.58l0.496 0.293c0.539 0.316 1.23 0.129 1.55-0.426l6.12-10.8c0.313-0.555 0.129-1.26-0.414-1.58l-0.492-0.293c-0.17-0.1-0.353-0.151-0.535-0.156zm-13.5 9.64-0.238 9.83 8.23-5.12-7.99-4.71z" style="fill:#f9f9f9"/>
 <path d="m40 7.53c3.71 4.08 5.97 9.51 5.97 15.5 0 12.7-10.3 23-23 23-5.95 0-11.4-2.26-15.5-5.97 4.18 4.29 10 6.97 16.5 6.97 12.7 0 23-10.3 23-23 0-6.46-2.68-12.3-6.97-16.5z" style="opacity:.1"/>
</svg>
