<svg version="1.1" viewBox="0 0 48 48" xmlns="http://www.w3.org/2000/svg" xmlns:xlink="http://www.w3.org/1999/xlink">
 <defs>
  <linearGradient id="bg" x1="1" x2="47" gradientTransform="matrix(0 -1 1 0 -1.5e-6 48)" gradientUnits="userSpaceOnUse">
   <stop style="stop-color:#3d3d3d" offset="0"/>
   <stop style="stop-color:#474747" offset="1"/>
  </linearGradient>
  <path id="SVGCleanerId_0" d="m25.535 24.98c-1.082-0.23-2.141 0.461-2.367 1.543l-1.238 5.871c-0.23 1.086 0.461 2.141 1.543 2.371l1.957 0.414c1.086 0.23 2.141-0.461 2.371-1.547l1.238-5.871c0.23-1.086-0.461-2.141-1.547-2.371m-1.773 1.16 0.977 0.203c0.543 0.113 0.887 0.645 0.773 1.184l-1.031 4.895c-0.113 0.543-0.641 0.887-1.184 0.773l-0.98-0.207c-0.539-0.113-0.883-0.641-0.77-1.184l1.031-4.891c0.113-0.543 0.641-0.887 1.184-0.773"/>
 </defs>
 <path d="m36.31 5c5.859 4.062 9.688 10.831 9.688 18.5 0 12.426-10.07 22.5-22.5 22.5-7.669 0-14.438-3.828-18.5-9.688 1.037 1.822 2.306 3.499 3.781 4.969 4.085 3.712 9.514 5.969 15.469 5.969 12.703 0 23-10.298 23-23 0-5.954-2.256-11.384-5.969-15.469-1.469-1.475-3.147-2.744-4.969-3.781zm4.969 3.781c3.854 4.113 6.219 9.637 6.219 15.719 0 12.703-10.297 23-23 23-6.081 0-11.606-2.364-15.719-6.219 4.16 4.144 9.883 6.719 16.219 6.719 12.703 0 23-10.298 23-23 0-6.335-2.575-12.06-6.719-16.219z" style="opacity:.05"/>
 <path d="m41.28 8.781c3.712 4.085 5.969 9.514 5.969 15.469 0 12.703-10.297 23-23 23-5.954 0-11.384-2.256-15.469-5.969 4.113 3.854 9.637 6.219 15.719 6.219 12.703 0 23-10.298 23-23 0-6.081-2.364-11.606-6.219-15.719z" style="opacity:.1"/>
 <path d="m31.25 2.375c8.615 3.154 14.75 11.417 14.75 21.13 0 12.426-10.07 22.5-22.5 22.5-9.708 0-17.971-6.135-21.12-14.75a23 23 0 0 0 44.875-7 23 23 0 0 0-16-21.875z" style="opacity:.2"/>
 <path d="m24 1c12.703 0 23 10.297 23 23s-10.297 23-23 23-23-10.297-23-23 10.297-23 23-23z" style="fill:url(#bg)"/>
 <g transform="translate(1,1)">
  <g style="opacity:.1">
   <path d="m14.15 11s-1.152 0-1.152 1.082v23.832s0 1.086 1.152 1.086h20.699s1.152 0 1.152-1.086v-16.25l-9.199-8.664c-4.273-4e-3 -10.05-4e-3 -12.648-4e-3m-4e-3 4e-3"/>
   <use xlink:href="#SVGCleanerId_0"/>
   <path d="m23.594 19.375-0.688 1.594c0.23 0.043 0.465 0.148 0.625 0.344l0.566 0.699 0.664-1.559-0.387-0.484c-0.219-0.27-0.488-0.473-0.781-0.594"/>
  </g>
 </g>
 <path d="m14.15 11s-1.152 0-1.152 1.082v23.832s0 1.086 1.152 1.086h20.699s1.152 0 1.152-1.086v-16.25l-9.199-8.664c-4.273-4e-3 -10.05-4e-3 -12.648-4e-3m-4e-3 4e-3" style="fill:#f9f9f9"/>
 <path d="m36 19.664-9.199-8.664c-4e-3 4.332 0 6.496 0 7.582 0 1.082 0 1.082 1.152 1.082s4.711 0.016 8.05 0m-4e-3 0" style="fill:#dedede"/>
 <use width="48" height="48" style="fill:#b20404" xlink:href="#SVGCleanerId_0"/>
 <path d="m20.01 20.949c-0.859 0.695-0.988 1.953-0.289 2.813l3.781 4.656c0.688 0.859 1.945 0.988 2.813 0.289l1.551-1.262c0.863-0.695 0.988-1.953 0.293-2.813l-3.781-4.656c-0.699-0.859-1.953-0.988-2.813-0.289m-0.223 2.109 0.77-0.629c0.438-0.352 1.063-0.285 1.406 0.145l3.152 3.879c0.352 0.43 0.285 1.059-0.145 1.406l-0.773 0.633c-0.43 0.352-1.059 0.285-1.41-0.145l-3.152-3.879c-0.352-0.43-0.281-1.059 0.148-1.41" style="fill:#a20303"/>
 <path d="m23.469 13.441c-1.016-0.441-2.191 0.016-2.637 1.031l-2.41 5.492c-0.441 1.016 0.016 2.191 1.027 2.637l1.832 0.805c1.012 0.445 2.191-0.012 2.637-1.027l2.41-5.496c0.441-1.012-0.016-2.188-1.027-2.637m-1.98 0.77 0.914 0.402c0.508 0.223 0.738 0.809 0.516 1.316l-2 4.578c-0.227 0.508-0.813 0.738-1.32 0.516l-0.914-0.402c-0.508-0.223-0.738-0.813-0.512-1.316l2-4.578c0.223-0.508 0.813-0.738 1.316-0.516" style="fill:#b20404"/>
 <path d="m23.594 19.375-0.688 1.594c0.23 0.043 0.465 0.148 0.625 0.344l0.566 0.699 0.664-1.559-0.387-0.484c-0.219-0.27-0.488-0.473-0.781-0.594" style="fill:#a20303"/>
 <use width="48" height="48" style="fill:#b20404" xlink:href="#SVGCleanerId_0"/>
 <path d="m40.03 7.531c3.712 4.084 5.969 9.514 5.969 15.469 0 12.703-10.297 23-23 23-5.954 0-11.384-2.256-15.469-5.969 4.178 4.291 10.01 6.969 16.469 6.969 12.703 0 23-10.298 23-23 0-6.462-2.677-12.291-6.969-16.469z" style="opacity:.1"/>
</svg>
