<svg version="1.1" viewBox="0 0 48 48" xmlns="http://www.w3.org/2000/svg">
 <defs>
  <linearGradient id="bg" x1="1" x2="47" gradientTransform="matrix(0 -1 1 0 -1.5e-6 48)" gradientUnits="userSpaceOnUse">
   <stop style="stop-color:#3d3d3d" offset="0"/>
   <stop style="stop-color:#474747" offset="1"/>
  </linearGradient>
 </defs>
 <path d="m36.31 5c5.859 4.062 9.688 10.831 9.688 18.5 0 12.426-10.07 22.5-22.5 22.5-7.669 0-14.438-3.828-18.5-9.688 1.037 1.822 2.306 3.499 3.781 4.969 4.085 3.712 9.514 5.969 15.469 5.969 12.703 0 23-10.298 23-23 0-5.954-2.256-11.384-5.969-15.469-1.469-1.475-3.147-2.744-4.969-3.781zm4.969 3.781c3.854 4.113 6.219 9.637 6.219 15.719 0 12.703-10.297 23-23 23-6.081 0-11.606-2.364-15.719-6.219 4.16 4.144 9.883 6.719 16.219 6.719 12.703 0 23-10.298 23-23 0-6.335-2.575-12.06-6.719-16.219z" style="opacity:.05"/>
 <path d="m41.28 8.781c3.712 4.085 5.969 9.514 5.969 15.469 0 12.703-10.297 23-23 23-5.954 0-11.384-2.256-15.469-5.969 4.113 3.854 9.637 6.219 15.719 6.219 12.703 0 23-10.298 23-23 0-6.081-2.364-11.606-6.219-15.719z" style="opacity:.1"/>
 <path d="m31.25 2.375c8.615 3.154 14.75 11.417 14.75 21.13 0 12.426-10.07 22.5-22.5 22.5-9.708 0-17.971-6.135-21.12-14.75a23 23 0 0 0 44.875-7 23 23 0 0 0-16-21.875z" style="opacity:.2"/>
 <path d="m24 1c12.703 0 23 10.297 23 23s-10.297 23-23 23-23-10.297-23-23 10.297-23 23-23z" style="fill:url(#bg)"/>
 <g transform="translate(1,1)">
  <g style="opacity:.1">
   <path transform="translate(-1,-1)" d="m15.15 11.996-4e-3 4e-3s-1.152 0-1.152 1.082v23.832s0 1.086 1.152 1.086h20.699s1.152 0 1.152-1.086v-2.285h2.432s0.563-0.324 0.563-2c0-1.609-0.633-1.996-0.633-1.996h-2.361v-9.969l-9.199-8.664c-4.273-4e-3 -10.05-4e-3 -12.648-4e-3z"/>
  </g>
 </g>
 <path d="m14.15 11s-1.152 0-1.152 1.082v23.832s0 1.086 1.152 1.086h20.699s1.152 0 1.152-1.086v-16.25l-9.199-8.664c-4.273-4e-3 -10.05-4e-3 -12.648-4e-3m-4e-3 4e-3" style="fill:#f9f9f9"/>
 <path d="m38.434 33.629s0.563-0.324 0.563-2c0-1.609-0.633-1.996-0.633-1.996h-15.07l-4.297 1.996 4.297 2m15.14 0" style="fill:#ff6f03"/>
 <path d="m23 29.789-4 1.844 4 1.844m0-3.688" style="fill:#ffc13d"/>
 <path d="m21 30.688-2 0.938 2 0.938m0-1.875" style="fill:#2d2d2d"/>
 <path d="m36 29.629v4h2.438s0.563-0.324 0.563-2c0-1.613-0.625-2-0.625-2m-2.375 0" style="fill:#ff2d5b"/>
 <path d="m24.531 13.02s0.691 6.371-4.191 14.777c-4.883 8.41-6.316 7.281-6.828 6.992-0.516-0.293-1.176-1.238 0.992-3.133 2.164-1.891 3.01-1.855 3.01-1.855s-1.98 1.199-2.754 2.367c-0.773 1.164-1.398 1.891-1.211 2.219 0.184 0.328 2.395-1.34 3.313-2.762 1.457-2.254 4.211-6.449 5.496-10.453 1.285-4 2.172-8.152 2.172-8.152m4e-3 0" style="fill:#c72f2f"/>
 <path d="m23.375 11c-0.191 0.035-0.359 0.219-0.563 0.563-0.406 0.691-0.613 2.613-0.281 4.469 0.328 1.859 1.688 6.129 3.375 8.094 1.688 1.965 5.066 3.68 7.563 4.188 1.289 0.266 2.078 0.086 2.531-0.125v-0.219c-0.199 0.02-0.473 0-0.844-0.031-1.285-0.109-6.258-1.668-8.938-4.875-2.68-3.203-2.91-7.613-3.094-9.906s0.82-1.664 0.969-1.375c0.113 0.105 0.223 0.32 0.281 0.5-0.055-0.305-0.133-0.727-0.406-1-0.203-0.191-0.402-0.313-0.594-0.273" style="fill:#c72f2f"/>
 <path d="m32.531 25.75c-3.633 0.109-3.91 0.254-7.25 0.875-3.34 0.617-4.969 1.969-4.969 1.969s4.848-1.563 9.438-2c3.863-0.367 5.559-0.074 6.25 0.219v-0.875c-0.598-0.168-1.621-0.242-3.469-0.188" style="fill:#c72f2f"/>
 <path d="m36 19.664-9.199-8.664c-4e-3 4.332 0 6.496 0 7.582 0 1.082 0 1.082 1.152 1.082s4.711 0.016 8.05 0m-4e-3 0" style="fill:#dedede"/>
 <path d="m40.03 7.531c3.712 4.084 5.969 9.514 5.969 15.469 0 12.703-10.297 23-23 23-5.954 0-11.384-2.256-15.469-5.969 4.178 4.291 10.01 6.969 16.469 6.969 12.703 0 23-10.298 23-23 0-6.462-2.677-12.291-6.969-16.469z" style="opacity:.1"/>
</svg>
