<svg version="1.1" viewBox="0 0 48 48" xmlns="http://www.w3.org/2000/svg">
 <defs>
  <linearGradient id="bg" x2="0" y1="1" y2="47" gradientUnits="userSpaceOnUse">
   <stop style="stop-color:#555" offset="0"/>
   <stop style="stop-color:#4b4b4b" offset="1"/>
  </linearGradient>
 </defs>
 <path d="m36.3 5c5.86 4.06 9.69 10.8 9.69 18.5 0 12.4-10.1 22.5-22.5 22.5-7.67 0-14.4-3.83-18.5-9.69 1.04 1.82 2.31 3.5 3.78 4.97 4.08 3.71 9.51 5.97 15.5 5.97 12.7 0 23-10.3 23-23 0-5.95-2.26-11.4-5.97-15.5-1.47-1.48-3.15-2.74-4.97-3.78zm4.97 3.78c3.85 4.11 6.22 9.64 6.22 15.7 0 12.7-10.3 23-23 23-6.08 0-11.6-2.36-15.7-6.22 4.16 4.14 9.88 6.72 16.2 6.72 12.7 0 23-10.3 23-23 0-6.34-2.58-12.1-6.72-16.2z" style="opacity:.05"/>
 <path d="m41.3 8.78c3.71 4.08 5.97 9.51 5.97 15.5 0 12.7-10.3 23-23 23-5.95 0-11.4-2.26-15.5-5.97 4.11 3.85 9.64 6.22 15.7 6.22 12.7 0 23-10.3 23-23 0-6.08-2.36-11.6-6.22-15.7z" style="opacity:.1"/>
 <path d="m31.2 2.38c8.62 3.15 14.8 11.4 14.8 21.1 0 12.4-10.1 22.5-22.5 22.5-9.71 0-18-6.14-21.1-14.8a23 23 0 0 0 44.9-7 23 23 0 0 0-16-21.9z" style="opacity:.2"/>
 <path d="m24 1c12.7 0 23 10.3 23 23s-10.3 23-23 23-23-10.3-23-23 10.3-23 23-23z" style="fill:url(#bg)"/>
 <path d="m40 7.53c3.71 4.08 5.97 9.51 5.97 15.5 0 12.7-10.3 23-23 23-5.95 0-11.4-2.26-15.5-5.97 4.18 4.29 10 6.97 16.5 6.97 12.7 0 23-10.3 23-23 0-6.46-2.68-12.3-6.97-16.5z" style="opacity:.1"/>
 <path d="m11.4 28.8 3.28 2.75c-0.186 0.511 0.083 1.07 0.602 1.26l1.59 0.58 5.25 4.41c0.423 0.355 1.04 0.305 1.39-0.111l1.21-1.44 3.72 1.35c0.519 0.189 1.09-0.069 1.27-0.58l0.359-0.986h5.96c0.552 0 0.996-0.437 0.996-0.98v-20c0-0.544-0.444-0.98-0.996-0.98 0 0-24.6 14.5-24.6 14.8z" style="opacity:.1"/>
 <path d="m24.5 10.9c-0.423-0.355-1.04-0.306-1.39 0.111l-12.9 15.4c-0.349 0.416-0.29 1.04 0.133 1.39l10.7 9c0.423 0.355 1.04 0.306 1.39-0.111l12.9-15.4c0.349-0.416 0.29-1.04-0.133-1.39l-10.7-9" style="fill:#f95"/>
 <path d="m21.8 11.1c-0.519-0.189-1.08 0.07-1.27 0.581l-6.85 18.8c-0.186 0.511 0.082 1.07 0.601 1.26l13.2 4.79c0.519 0.189 1.08-0.07 1.27-0.581l6.85-18.8c0.186-0.511-0.082-1.07-0.601-1.26l-13.2-4.79" style="fill:#37c871"/>
 <path d="m21 13c-0.552 0-0.996 0.437-0.996 0.98v20c0 0.544 0.444 0.98 0.996 0.98h14c0.552 0 0.996-0.437 0.996-0.98v-20c0-0.544-0.444-0.98-0.996-0.98z" style="fill:#5f8dd3"/>
 <path d="m30 18v4h4v-4h-4zm0 4h-4v4h4v-4zm0 4v4h4v-4h-4zm-4 0h-4v4h4v-4z" style="fill:#fff;opacity:.85"/>
</svg>
