<svg version="1.1" viewBox="0 0 48 48" xmlns="http://www.w3.org/2000/svg">
 <defs>
  <linearGradient id="bg" x2="0" y1="47" y2="1" gradientUnits="userSpaceOnUse">
   <stop style="stop-color:#4d505b" offset="0"/>
   <stop style="stop-color:#565966" offset="1"/>
  </linearGradient>
 </defs>
 <path d="m36.3 5c5.86 4.06 9.69 10.8 9.69 18.5 0 12.4-10.1 22.5-22.5 22.5-7.67 0-14.4-3.83-18.5-9.69 1.04 1.82 2.31 3.5 3.78 4.97 4.08 3.71 9.51 5.97 15.5 5.97 12.7 0 23-10.3 23-23 0-5.95-2.26-11.4-5.97-15.5-1.47-1.48-3.15-2.74-4.97-3.78zm4.97 3.78c3.85 4.11 6.22 9.64 6.22 15.7 0 12.7-10.3 23-23 23-6.08 0-11.6-2.36-15.7-6.22 4.16 4.14 9.88 6.72 16.2 6.72 12.7 0 23-10.3 23-23 0-6.34-2.58-12.1-6.72-16.2z" style="opacity:.05"/>
 <path d="m41.3 8.78c3.71 4.08 5.97 9.51 5.97 15.5 0 12.7-10.3 23-23 23-5.95 0-11.4-2.26-15.5-5.97 4.11 3.85 9.64 6.22 15.7 6.22 12.7 0 23-10.3 23-23 0-6.08-2.36-11.6-6.22-15.7z" style="opacity:.1"/>
 <path d="m31.2 2.38c8.62 3.15 14.8 11.4 14.8 21.1 0 12.4-10.1 22.5-22.5 22.5-9.71 0-18-6.14-21.1-14.8a23 23 0 0 0 44.9-7 23 23 0 0 0-16-21.9z" style="opacity:.2"/>
 <path d="m24 1c12.7 0 23 10.3 23 23s-10.3 23-23 23-23-10.3-23-23 10.3-23 23-23z" style="fill:url(#bg)"/>
 <path d="m40 7.53c3.71 4.08 5.97 9.51 5.97 15.5 0 12.7-10.3 23-23 23-5.95 0-11.4-2.26-15.5-5.97 4.18 4.29 10 6.97 16.5 6.97 12.7 0 23-10.3 23-23 0-6.46-2.68-12.3-6.97-16.5z" style="opacity:.1"/>
 <path d="m23.5 10c-0.277 0-0.5 0.223-0.5 0.5s0.223 0.5 0.5 0.5h3c0.277 0 0.5-0.223 0.5-0.5s-0.223-0.5-0.5-0.5zm-2.66 0.529c-0.065-4.06e-4 -0.129 0.0126-0.193 0.0391l-2.77 1.15c-0.256 0.106-0.376 0.396-0.27 0.652s0.396 0.377 0.652 0.271l2.77-1.15c0.256-0.106 0.377-0.398 0.271-0.654-0.0795-0.192-0.264-0.307-0.459-0.309zm7.86 0.309c-0.106 0.256 0.0156 0.548 0.271 0.654l2.77 1.15c0.256 0.106 0.546-0.0156 0.652-0.271 0.106-0.256-0.0136-0.546-0.27-0.652l-2.77-1.15zm-12.9 2.35c-0.128-1e-6 -0.256 0.0486-0.354 0.146l-2.12 2.12c-0.196 0.196-0.196 0.513 0 0.709s0.511 0.196 0.707 0l2.12-2.12c0.196-0.196 0.196-0.511 0-0.707-0.0979-0.0979-0.228-0.146-0.355-0.146zm18 0.854 2.12 2.12c0.196 0.196 0.511 0.196 0.707 0s0.196-0.513 0-0.709l-2.12-2.12zm-12.8 2.96c0 0.552 0.448 1 1 1l-3.96 13.7c-0.165 0.528 0.128 1.09 0.656 1.25 0.528 0.165 1.09-0.128 1.25-0.656l1.69-5.39c2.83-0.475 5.45-0.962 7.51-1.87 1.09-0.477 2.04-1.08 2.74-1.91s1.11-1.92 1.11-3.13c0-1.33-0.772-2.49-1.88-3.12zm-8.83 0.564c-0.195 0.0012-0.378 0.117-0.457 0.309l-1.15 2.77c-0.106 0.256 0.0136 0.546 0.27 0.652 0.256 0.106 0.548-0.0156 0.654-0.271l1.15-2.77c0.106-0.256-0.0156-0.546-0.271-0.652-0.064-0.0265-0.13-0.0395-0.195-0.0391zm25.7 0c-0.065-4.06e-4 -0.131 0.0126-0.195 0.0391-0.256 0.106-0.377 0.396-0.271 0.652l1.15 2.77c0.106 0.256 0.398 0.377 0.654 0.271s0.376-0.396 0.27-0.652l-1.15-2.77c-0.0795-0.192-0.262-0.307-0.457-0.309zm-13.4 0.436h2.58c1.39 0 2.49 0.251 3.13 0.619l0.871 2.38-8.69 3.76zm-13.9 5c-0.277 0-0.5 0.223-0.5 0.5v3c0 0.277 0.223 0.5 0.5 0.5s0.5-0.223 0.5-0.5v-3c0-0.277-0.223-0.5-0.5-0.5zm29 0c-0.277 0-0.5 0.223-0.5 0.5v3c0 0.277 0.223 0.5 0.5 0.5s0.5-0.223 0.5-0.5v-3c0-0.277-0.223-0.5-0.5-0.5zm-28.5 5.66c-0.065-4.06e-4 -0.131 0.0126-0.195 0.0391-0.256 0.106-0.376 0.396-0.27 0.652l1.15 2.77c0.106 0.256 0.396 0.376 0.652 0.27s0.377-0.396 0.271-0.652l-1.15-2.77c-0.0795-0.192-0.264-0.309-0.459-0.311zm27.9 0c-0.195 0.0012-0.379 0.119-0.459 0.311l-1.15 2.77c-0.106 0.256 0.0156 0.546 0.271 0.652 0.256 0.106 0.546-0.0136 0.652-0.27l1.15-2.77c0.106-0.256-0.0136-0.546-0.27-0.652-0.064-0.0265-0.13-0.0395-0.195-0.0391zm-25.6 5.88 2.12 2.12c0.196 0.196 0.513 0.196 0.709 0s0.196-0.511 0-0.707l-2.12-2.12zm23-0.855c-0.128 0-0.256 0.0486-0.354 0.146l-2.12 2.12c-0.196 0.196-0.196 0.511 0 0.707s0.513 0.196 0.709 0l2.12-2.12c0.196-0.196 0.196-0.513 0-0.709-0.0979-0.0979-0.226-0.146-0.354-0.146zm-18.7 3.94c-0.106 0.256 0.0136 0.546 0.27 0.652l2.77 1.15c0.256 0.106 0.546-0.0136 0.652-0.27 0.106-0.256-0.0156-0.548-0.271-0.654l-2.77-1.15zm14.3-0.309c-0.065-4.07e-4 -0.131 0.0106-0.195 0.0371l-2.77 1.15c-0.256 0.106-0.377 0.398-0.271 0.654s0.396 0.376 0.652 0.27l2.77-1.15c0.256-0.106 0.376-0.396 0.27-0.652-0.0795-0.192-0.262-0.307-0.457-0.309zm-8.44 1.68c-0.277 0-0.5 0.223-0.5 0.5s0.223 0.5 0.5 0.5h3c0.277 0 0.5-0.223 0.5-0.5s-0.223-0.5-0.5-0.5z" style="opacity:.1"/>
 <path d="m22.5 9c-0.277 0-0.5 0.223-0.5 0.5s0.223 0.5 0.5 0.5h3c0.277 0 0.5-0.223 0.5-0.5s-0.223-0.5-0.5-0.5h-3zm-2.66 0.529c-0.065-4.06e-4 -0.129 0.0126-0.193 0.0391l-2.77 1.15c-0.256 0.106-0.376 0.396-0.27 0.652s0.396 0.377 0.652 0.271l2.77-1.15c0.256-0.106 0.377-0.398 0.271-0.654-0.0795-0.192-0.264-0.307-0.459-0.309zm8.32 0c-0.195 0.00122-0.379 0.117-0.459 0.309-0.106 0.256 0.0156 0.548 0.271 0.654l2.77 1.15c0.256 0.106 0.546-0.0156 0.652-0.271 0.106-0.256-0.0136-0.546-0.27-0.652l-2.77-1.15c-0.064-0.0265-0.128-0.0395-0.193-0.0391zm-13.4 2.66c-0.128-1e-6 -0.256 0.0485-0.354 0.146l-2.12 2.12c-0.196 0.196-0.196 0.513 0 0.709s0.511 0.196 0.707 0l2.12-2.12c0.196-0.196 0.196-0.511 0-0.707-0.0979-0.0979-0.228-0.146-0.355-0.146zm18.4 0c-0.128 0-0.258 0.0486-0.355 0.146-0.196 0.196-0.196 0.511 0 0.707l2.12 2.12c0.196 0.196 0.511 0.196 0.707 0s0.196-0.513 0-0.709l-2.12-2.12c-0.0979-0.0979-0.226-0.146-0.354-0.146zm-22 4.38c-0.195 0.00122-0.378 0.117-0.457 0.309l-1.15 2.77c-0.106 0.256 0.0136 0.546 0.27 0.652 0.256 0.106 0.548-0.0156 0.654-0.271l1.15-2.77c0.106-0.256-0.0156-0.546-0.271-0.652-0.064-0.0265-0.13-0.0395-0.195-0.0391zm25.7 0c-0.065-4.06e-4 -0.131 0.0126-0.195 0.0391-0.256 0.106-0.377 0.396-0.271 0.652l1.15 2.77c0.106 0.256 0.398 0.377 0.654 0.271s0.376-0.396 0.27-0.652l-1.15-2.77c-0.0795-0.192-0.262-0.307-0.457-0.309zm-27.3 5.44c-0.277 0-0.5 0.223-0.5 0.5v3c0 0.277 0.223 0.5 0.5 0.5s0.5-0.223 0.5-0.5v-3c0-0.277-0.223-0.5-0.5-0.5zm29 0c-0.277 0-0.5 0.223-0.5 0.5v3c0 0.277 0.223 0.5 0.5 0.5s0.5-0.223 0.5-0.5v-3c0-0.277-0.223-0.5-0.5-0.5zm-28.5 5.66c-0.065-4.06e-4 -0.131 0.0126-0.195 0.0391-0.256 0.106-0.376 0.396-0.27 0.652l1.15 2.77c0.106 0.256 0.396 0.376 0.652 0.27s0.377-0.396 0.271-0.652l-1.15-2.77c-0.0795-0.192-0.264-0.309-0.459-0.311zm27.9 0c-0.195 0.00122-0.379 0.119-0.459 0.311l-1.15 2.77c-0.106 0.256 0.0156 0.546 0.271 0.652 0.256 0.106 0.546-0.0136 0.652-0.27l1.15-2.77c0.106-0.256-0.0136-0.546-0.27-0.652-0.064-0.0265-0.13-0.0395-0.195-0.0391zm-25.3 5.03c-0.128 0-0.256 0.0485-0.354 0.146-0.196 0.196-0.196 0.513 0 0.709l2.12 2.12c0.196 0.196 0.513 0.196 0.709 0s0.196-0.511 0-0.707l-2.12-2.12c-0.0979-0.0979-0.226-0.146-0.354-0.146zm22.6 0c-0.128 0-0.256 0.0485-0.354 0.146l-2.12 2.12c-0.196 0.196-0.196 0.511 0 0.707s0.513 0.196 0.709 0l2.12-2.12c0.196-0.196 0.196-0.513 0-0.709-0.0979-0.0979-0.226-0.146-0.354-0.146zm-18.3 3.63c-0.195 0.00122-0.378 0.117-0.457 0.309-0.106 0.256 0.0136 0.546 0.27 0.652l2.77 1.15c0.256 0.106 0.546-0.0136 0.652-0.27 0.106-0.256-0.0156-0.548-0.271-0.654l-2.77-1.15c-0.064-0.0265-0.13-0.0375-0.195-0.0371zm13.9 0c-0.065-4.07e-4 -0.131 0.0106-0.195 0.0371l-2.77 1.15c-0.256 0.106-0.377 0.398-0.271 0.654s0.396 0.376 0.652 0.27l2.77-1.15c0.256-0.106 0.376-0.396 0.27-0.652-0.0795-0.192-0.262-0.307-0.457-0.309zm-8.44 1.68c-0.277 0-0.5 0.223-0.5 0.5s0.223 0.5 0.5 0.5h3c0.277 0 0.5-0.223 0.5-0.5s-0.223-0.5-0.5-0.5h-3z" style="fill:#f9f9f9"/>
 <path d="m22.9 14a1 1 0 0 0-0.865 0.697l-0.0938 0.299h-0.951a1 1 0 0 0-1 1 1 1 0 0 0 1 1h0.326l-4.28 13.7a1 1 0 0 0 0.656 1.25 1 1 0 0 0 1.25-0.656l1.69-5.39c2.83-0.475 5.45-0.962 7.51-1.87 1.09-0.477 2.04-1.08 2.74-1.91s1.11-1.92 1.11-3.13c0-1.33-0.772-2.49-1.88-3.12s-2.51-0.881-4.12-0.881h-2a1 1 0 0 0-0.699-0.955 1 1 0 0 0-0.389-0.041zm0.514 3h2.58c1.39 0 2.49 0.251 3.13 0.619 0.643 0.368 0.871 0.714 0.871 1.38 0 0.792-0.218 1.33-0.643 1.84s-1.1 0.969-2.01 1.37c-1.51 0.663-3.64 1.13-6.04 1.55z" style="fill:#18d8bf"/>
</svg>
