<svg version="1.1" viewBox="0 0 48 48" xmlns="http://www.w3.org/2000/svg">
 <defs>
  <linearGradient id="bg" x2="0" y1="1" y2="47" gradientUnits="userSpaceOnUse">
   <stop style="stop-color:#5ba6f9" offset="0"/>
   <stop style="stop-color:#489cf8" offset="1"/>
  </linearGradient>
 </defs>
 <path d="m36.31 5c5.859 4.062 9.688 10.831 9.688 18.5 0 12.426-10.07 22.5-22.5 22.5-7.669 0-14.438-3.828-18.5-9.688 1.037 1.822 2.306 3.499 3.781 4.969 4.085 3.712 9.514 5.969 15.469 5.969 12.703 0 23-10.298 23-23 0-5.954-2.256-11.384-5.969-15.469-1.469-1.475-3.147-2.744-4.969-3.781zm4.969 3.781c3.854 4.113 6.219 9.637 6.219 15.719 0 12.703-10.297 23-23 23-6.081 0-11.606-2.364-15.719-6.219 4.16 4.144 9.883 6.719 16.219 6.719 12.703 0 23-10.298 23-23 0-6.335-2.575-12.06-6.719-16.219z" style="opacity:.05"/>
 <path d="m41.28 8.781c3.712 4.085 5.969 9.514 5.969 15.469 0 12.703-10.297 23-23 23-5.954 0-11.384-2.256-15.469-5.969 4.113 3.854 9.637 6.219 15.719 6.219 12.703 0 23-10.298 23-23 0-6.081-2.364-11.606-6.219-15.719z" style="opacity:.1"/>
 <path d="m31.25 2.375c8.615 3.154 14.75 11.417 14.75 21.13 0 12.426-10.07 22.5-22.5 22.5-9.708 0-17.971-6.135-21.12-14.75a23 23 0 0 0 44.875-7 23 23 0 0 0-16-21.875z" style="opacity:.2"/>
 <circle cx="24" cy="24" r="23" style="fill:url(#bg)"/>
 <path d="m29.652 13c-1.0225-1.2e-5 -2.0447 0.39229-2.8281 1.1758l-10.824 10.824-3 11 1 1 11-3 10.824-10.824c1.5669-1.5669 1.567-4.0894 0-5.6562l-3.3438-3.3438c-0.7835-0.78344-1.8057-1.1758-2.8281-1.1758z" style="opacity:.1;paint-order:normal"/>
 <path d="m40.03 7.531c3.712 4.084 5.969 9.514 5.969 15.469 0 12.703-10.297 23-23 23-5.954 0-11.384-2.256-15.469-5.969 4.178 4.291 10.01 6.969 16.469 6.969 12.703 0 23-10.298 23-23 0-6.462-2.677-12.291-6.969-16.469z" style="opacity:.1"/>
 <path d="m15 24-1.4004 5.5996 1.4004 3.4004 3.4004 1.4004 5.5996-1.4004-2-7z" style="fill:#e7d7bd;paint-order:normal"/>
 <path d="m15 24 9-9 6 3-12 9z" style="fill:#e6ae22;paint-order:normal"/>
 <path d="m18 27 10-10 5 4-12 9z" style="fill:#e68722;paint-order:normal"/>
 <path d="m21 30 10-10 2 4-9 9z" style="fill:#e66928;paint-order:normal"/>
 <path d="m13.6 29.6-1.5996 5.4004 1 1 5.4004-1.5996z" style="fill:#434343;paint-order:normal"/>
 <path d="m24 15 1-1 5 4 4 5-1 1z" style="fill:#e8e8e8;paint-order:normal"/>
 <path d="m31.481 13.176 3.3435 3.3432c1.567 1.5669 1.5669 4.0899 0 5.6569l-0.82466 0.82432-9-9 0.82432-0.82441c1.5669-1.567 4.0898-1.5669 5.6569 0z" style="fill:#c75671;paint-order:normal"/>
</svg>
