<svg version="1.1" viewBox="0 0 48 48" xmlns="http://www.w3.org/2000/svg">
 <defs>
  <linearGradient id="linearGradient3764" x1="1" x2="47" gradientTransform="matrix(0 -1 1 0 -1.5e-6 48)" gradientUnits="userSpaceOnUse">
   <stop style="stop-color:#abdaf9" offset="0"/>
   <stop style="stop-color:#bee2fa" offset="1"/>
  </linearGradient>
 </defs>
 <path d="m36.31 5c5.859 4.062 9.688 10.831 9.688 18.5 0 12.426-10.07 22.5-22.5 22.5-7.669 0-14.438-3.828-18.5-9.688 1.037 1.822 2.306 3.499 3.781 4.969 4.085 3.712 9.514 5.969 15.469 5.969 12.703 0 23-10.298 23-23 0-5.954-2.256-11.384-5.969-15.469-1.469-1.475-3.147-2.744-4.969-3.781zm4.969 3.781c3.854 4.113 6.219 9.637 6.219 15.719 0 12.703-10.297 23-23 23-6.081 0-11.606-2.364-15.719-6.219 4.16 4.144 9.883 6.719 16.219 6.719 12.703 0 23-10.298 23-23 0-6.335-2.575-12.06-6.719-16.219z" style="opacity:.05"/>
 <path d="m41.28 8.781c3.712 4.085 5.969 9.514 5.969 15.469 0 12.703-10.297 23-23 23-5.954 0-11.384-2.256-15.469-5.969 4.113 3.854 9.637 6.219 15.719 6.219 12.703 0 23-10.298 23-23 0-6.081-2.364-11.606-6.219-15.719z" style="opacity:.1"/>
 <path d="m31.25 2.375c8.615 3.154 14.75 11.417 14.75 21.13 0 12.426-10.07 22.5-22.5 22.5-9.708 0-17.971-6.135-21.12-14.75a23 23 0 0 0 44.875-7 23 23 0 0 0-16-21.875z" style="opacity:.2"/>
 <path d="m24 1c12.703 0 23 10.297 23 23s-10.297 23-23 23-23-10.297-23-23 10.297-23 23-23z" style="fill:url(#linearGradient3764)"/>
 <path d="m40.03 7.531c3.712 4.084 5.969 9.514 5.969 15.469 0 12.703-10.297 23-23 23-5.954 0-11.384-2.256-15.469-5.969 4.178 4.291 10.01 6.969 16.469 6.969 12.703 0 23-10.298 23-23 0-6.462-2.677-12.291-6.969-16.469z" style="opacity:.1"/>
 <path d="m25 10.996c-7.72 0-14 6.28-14 14 1e-3 2.313 0.63447 4.5686 1.7305 6.5996l-1.5273 6.8652 6.7012-1.4824c2.152 1.277 4.5867 2.0215 7.0957 2.0215zm1 0.05078v13.947h13c-8.8e-4 -3.2466-1.1137-6.2331-2.9766-8.6074l-0.58203 0.58203a4 4 0 0 1 0.42774 1.0273h1.1309v2h-1.1328a4 4 0 0 1-0.42578 1.0273l0.80078 0.80078-1.4141 1.4141-0.80078-0.80078a4 4 0 0 1-1.0273 0.42774v1.1309h-2v-1.1328a4 4 0 0 1-1.0273-0.42578l-0.80078 0.80078-1.4141-1.4141 0.80078-0.80078a4 4 0 0 1-0.42774-1.0273h-1.1309v-2h1.1328a4 4 0 0 1 0.42578-1.0273l-0.80078-0.80078 1.4141-1.4141 0.80078 0.80078a4 4 0 0 1 1.0273-0.42774v-1.1309h2v1.1328a4 4 0 0 1 1.0273 0.42578l0.64258-0.64258c-2.2909-2.1927-5.3142-3.6265-8.6699-3.8652zm6 4.9492a3 3 0 0 0-3 3 3 3 0 0 0 3 3 3 3 0 0 0 3-3 3 3 0 0 0-3-3zm-6 10v12.951c6.923-0.487 12.46-6.0302 12.951-12.951z" style="opacity:.1"/>
 <path d="m25 25v12.951c6.923-0.487 12.46-6.03 12.951-12.951" style="fill:#7cbcec"/>
 <path d="m25 10.051v13.947h13c-8.8e-4 -3.2466-1.1137-6.2331-2.9766-8.6074l-0.58203 0.58203a4 4 0 0 1 0.42774 1.0273h1.1309v2h-1.1328a4 4 0 0 1-0.42578 1.0273l0.80078 0.80078-1.4141 1.4141-0.80078-0.80078a4 4 0 0 1-1.0273 0.42774v1.1309h-2v-1.1328a4 4 0 0 1-1.0273-0.42578l-0.80078 0.80078-1.4141-1.4141 0.80078-0.80078a4 4 0 0 1-0.42774-1.0273h-1.1309v-2h1.1328a4 4 0 0 1 0.42578-1.0273l-0.80078-0.80078 1.4141-1.4141 0.80078 0.80078a4 4 0 0 1 1.0273-0.42774v-1.1309h2v1.1328a4 4 0 0 1 1.0273 0.42578l0.64258-0.64258c-2.2909-2.1927-5.3142-3.6265-8.6699-3.8652zm6 4.9492a3 3 0 0 0-3 3 3 3 0 0 0 3 3 3 3 0 0 0 3-3 3 3 0 0 0-3-3z" style="fill:#4795c8"/>
 <path d="m24 10c-7.72 0-14 6.28-14 14 1e-3 2.313 0.634 4.569 1.73 6.6l-1.527 6.865 6.701-1.482c2.152 1.277 4.587 2.02 7.096 2.02" style="fill:#458dbb"/>
 <path d="m16.898 16c-1.1046 0-2 0.89543-2 2 9.99e-4 0.64999 0.3179 1.2589 0.84961 1.6328-0.73459 3.0927-2.4614 7.187-4.5117 9.9121 0.15776 0.35471 0.30921 0.71199 0.49414 1.0547l-0.13672 0.61133c0.71931 1.3147 1.7842 3.4853 2.1641 5.4668l3.1465-0.69531c1.5475 0.91827 3.2415 1.5554 5.0039 1.8438 0.063832-2.0441 1.2318-4.6167 2.0918-6.2441v-2.8125c-1.8013-2.6873-3.2843-6.3292-3.9512-9.1367 0.53171-0.37387 0.84861-0.98282 0.84961-1.6328 0-1.1046-0.89543-2-2-2v14.271c0.61771 0.35663 1.0002 1.0152 1 1.7285-3.59e-4 1.0653-0.87536 1.9992-2 2-1 6.9e-4 -1.9996-0.93474-2-2-2.38e-4 -0.71327 0.38229-1.3719 1-1.7285v-14.271z" style="fill:#355677;paint-order:normal"/>
 <path d="m26 26c1.6963 0.56998 1.6962 0.56935 3.3926 2.2793l-0.56445 0.57031 0.56445 0.57031-4.3926 4.4277v2.2793l5.5234-5.5664 0.56641 0.56836 0.56445-0.56836 0.93164 0.93945c-0.31326 0.31577-0.31326 0.82485 0 1.1406 0.31326 0.31576 0.8176 0.31576 1.1309 0l1.1309-1.1406c0.31326-0.31576 0.31326-0.82485 0-1.1406-0.31326-0.31577-0.8176-0.31577-1.1309 0l-3.1934-3.2188c-1.1305-1.1403-2.5234-1.1406-4.5234-1.1406z" style="fill:#3679a5;paint-order:normal"/>
</svg>
