<svg xmlns="http://www.w3.org/2000/svg" viewBox="0 0 48 48">
 <defs>
  <linearGradient gradientTransform="matrix(0,-1,1,0,-1.5e-6,47.999998)" gradientUnits="userSpaceOnUse" x2="47" x1="1" id="linearGradient3764-5">
   <stop style="stop-color:#23bd88;stop-opacity:1"/>
   <stop offset="1" style="stop-color:#26ce94;stop-opacity:1"/>
  </linearGradient>
 </defs>
 <g>
  <path d="m 36.31 5 c 5.859 4.062 9.688 10.831 9.688 18.5 c 0 12.426 -10.07 22.5 -22.5 22.5 c -7.669 0 -14.438 -3.828 -18.5 -9.688 c 1.037 1.822 2.306 3.499 3.781 4.969 c 4.085 3.712 9.514 5.969 15.469 5.969 c 12.703 0 23 -10.298 23 -23 c 0 -5.954 -2.256 -11.384 -5.969 -15.469 c -1.469 -1.475 -3.147 -2.744 -4.969 -3.781 z m 4.969 3.781 c 3.854 4.113 6.219 9.637 6.219 15.719 c 0 12.703 -10.297 23 -23 23 c -6.081 0 -11.606 -2.364 -15.719 -6.219 c 4.16 4.144 9.883 6.719 16.219 6.719 c 12.703 0 23 -10.298 23 -23 c 0 -6.335 -2.575 -12.06 -6.719 -16.219 z" style="opacity:0.05"/>
  <path d="m 41.28 8.781 c 3.712 4.085 5.969 9.514 5.969 15.469 c 0 12.703 -10.297 23 -23 23 c -5.954 0 -11.384 -2.256 -15.469 -5.969 c 4.113 3.854 9.637 6.219 15.719 6.219 c 12.703 0 23 -10.298 23 -23 c 0 -6.081 -2.364 -11.606 -6.219 -15.719 z" style="opacity:0.1"/>
  <path d="m 31.25 2.375 c 8.615 3.154 14.75 11.417 14.75 21.13 c 0 12.426 -10.07 22.5 -22.5 22.5 c -9.708 0 -17.971 -6.135 -21.12 -14.75 a 23 23 0 0 0 44.875 -7 a 23 23 0 0 0 -16 -21.875 z" style="opacity:0.2"/>
 </g>
 <g>
  <path d="M 24,1 C 36.703,1 47,11.297 47,24 47,36.703 36.703,47 24,47 11.297,47 1,36.703 1,24 1,11.297 11.297,1 24,1 Z" style="fill:url(#linearGradient3764-5);fill-opacity:1"/>
 </g>
 <g>
  <path d="m 40.03 7.531 c 3.712 4.084 5.969 9.514 5.969 15.469 0 12.703 -10.297 23 -23 23 c -5.954 0 -11.384 -2.256 -15.469 -5.969 4.178 4.291 10.01 6.969 16.469 6.969 c 12.703 0 23 -10.298 23 -23 0 -6.462 -2.677 -12.291 -6.969 -16.469 z" style="opacity:0.1"/>
 </g>
 <g transform="matrix(1.000218,0,0,0.99980419,-34.528908,20.362457)">
  <g>
   <!-- color: #b42026 -->
  </g>
 </g>
 <path d="M 20.285,13 C 20.128,13 20,13.136 20,13.301 L 20,17 18.186,17 C 17.534,17 17,17.534 17,18.186 L 17,20 15.627,20 c -0.647,0 -0.932,1 -1.52,1 l -1.805,0 c -0.166,0 -0.303,0.034 -0.303,0.199 l 0,1.5 c 0,0.165 0.136,0.301 0.303,0.301 l 1.814,0 c 0.587,0 0.949,-1 1.512,-1 l 1.371,0 0,2 -1.373,0 c -0.647,0 -0.932,1 -1.52,1 l -1.805,0 c -0.166,0 -0.303,0.034 -0.303,0.199 l 0,1.5 c 0,0.165 0.136,0.301 0.303,0.301 l 1.814,0 c 0.587,0 0.949,-1 1.512,-1 l 1.371,0 0,2 -1.373,0 c -0.647,0 -0.932,1 -1.52,1 L 12.3,29 c -0.166,0 -0.303,0.034 -0.303,0.199 l 0,1.5 c 0,0.165 0.136,0.301 0.303,0.301 l 1.814,0 c 0.587,0 0.949,-1 1.512,-1 l 1.371,0 0,1.814 c 0,0.652 0.534,1.186 1.186,1.186 l 1.814,0 0,3.699 c 0,0.165 0.128,0.301 0.285,0.301 l 1.43,0 c 0.157,0 0.285,-0.136 0.285,-0.301 l 0,-3.699 2,0 0,3.699 c 0,0.165 0.128,0.301 0.285,0.301 l 1.43,0 c 0.157,0 0.285,-0.136 0.285,-0.301 l 0,-3.699 2,0 0,3.699 c 0,0.165 0.128,0.301 0.285,0.301 l 1.43,0 c 0.157,0 0.285,-0.136 0.285,-0.301 l 0,-3.699 1.814,0 c 0.652,0 1.186,-0.533 1.186,-1.186 l 0,-1.814 1.373,0 c 0.563,0 0.923,1 1.51,1 l 1.814,0 c 0.166,0 0.303,-0.136 0.303,-0.301 l 0,-1.5 C 37.997,29.034 37.861,29 37.694,29 l -1.805,0 c -0.588,0 -0.873,-1 -1.52,-1 l -1.373,0 0,-2 1.373,0 c 0.563,0 0.923,1 1.51,1 l 1.814,0 c 0.166,0 0.303,-0.136 0.303,-0.301 l 0,-1.5 C 37.996,25.034 37.86,25 37.693,25 l -1.805,0 c -0.588,0 -0.873,-1 -1.52,-1 l -1.373,0 0,-2 1.373,0 c 0.563,0 0.923,1 1.51,1 l 1.814,0 c 0.166,0 0.303,-0.136 0.303,-0.301 l 0,-1.5 C 37.995,21.034 37.859,21 37.692,21 l -1.805,0 c -0.588,0 -0.873,-1 -1.52,-1 l -1.373,0 0,-1.814 C 32.994,17.534 32.461,17 31.808,17 l -1.814,0 0,-3.699 C 29.994,13.136 29.866,13 29.709,13 l -1.43,0 c -0.157,0 -0.285,0.136 -0.285,0.301 l 0,3.699 -2,0 0,-3.699 C 25.994,13.136 25.866,13 25.709,13 l -1.43,0 c -0.157,0 -0.285,0.136 -0.285,0.301 l 0,3.699 -2,0 0,-3.699 C 21.994,13.136 21.866,13 21.709,13 l -1.43,0 z" style="fill:#000;opacity:0.1;fill-opacity:1"/>
 <g transform="matrix(-0.3023291,0,0,-0.3,43.039675,43.2)">
  <path d="m 66.28 25 c 0 -0.55 -0.425 -1 -0.945 -1 l -4.725 0 c -0.52 0 -0.945 0.45 -0.945 1 l 0 14.667 c 0 0.55 0.425 1 0.945 1 l 4.725 0 c 0.52 0 0.945 -0.45 0.945 -1 z" style="fill:#fff"/>
 </g>
 <path d="m 14.628,19 c -0.647,0 -0.933,1 -1.521,1 l -1.805,0 C 11.136,20 11,20.035 11,20.2 l 0,1.5 c 0,0.165 0.136,0.3 0.302,0.3 l 1.814,0 c 0.587,0 0.949,-1 1.512,-1 l 2.071,0 C 16.865,21 17,20.865 17,20.7 l 0,-1.4 C 17,19.135 16.865,19 16.699,19 Z" style="fill:#fff"/>
 <g transform="matrix(0.3023291,0,0,0.3,4.9603248,4.8)">
  <path d="m 66.28 25 c 0 -0.55 -0.425 -1 -0.945 -1 l -4.725 0 c -0.52 0 -0.945 0.45 -0.945 1 l 0 14.667 c 0 0.55 0.425 1 0.945 1 l 4.725 0 c 0.52 0 0.945 -0.45 0.945 -1 z" style="fill:#fff"/>
 </g>
 <g transform="matrix(-0.3023291,0,0,-0.3,47.039675,43.2)">
  <path d="m 66.28 25 c 0 -0.55 -0.425 -1 -0.945 -1 l -4.725 0 c -0.52 0 -0.945 0.45 -0.945 1 l 0 14.667 c 0 0.55 0.425 1 0.945 1 l 4.725 0 c 0.52 0 0.945 -0.45 0.945 -1 z" style="fill:#fff"/>
 </g>
 <path d="m 14.628,23 c -0.647,0 -0.933,1 -1.521,1 l -1.805,0 C 11.136,24 11,24.035 11,24.2 l 0,1.5 c 0,0.165 0.136,0.3 0.302,0.3 l 1.814,0 c 0.587,0 0.949,-1 1.512,-1 l 2.071,0 C 16.865,25 17,24.865 17,24.7 l 0,-1.4 C 17,23.135 16.865,23 16.699,23 Z" style="fill:#fff"/>
 <path d="m 14.628,27 c -0.647,0 -0.933,1 -1.521,1 l -1.805,0 C 11.136,28 11,28.035 11,28.2 l 0,1.5 c 0,0.165 0.136,0.3 0.302,0.3 l 1.814,0 c 0.587,0 0.949,-1 1.512,-1 l 2.071,0 C 16.865,29 17,28.865 17,28.7 l 0,-1.4 C 17,27.135 16.865,27 16.699,27 Z" style="fill:#fff"/>
 <path d="m 33.372,23 c 0.647,0 0.933,1 1.521,1 l 1.805,0 C 36.864,24 37,24.035 37,24.2 l 0,1.5 c 0,0.165 -0.136,0.3 -0.302,0.3 l -1.814,0 c -0.587,0 -0.949,-1 -1.512,-1 l -2.071,0 C 31.135,25 31,24.865 31,24.7 l 0,-1.4 C 31,23.135 31.135,23 31.301,23 Z" style="fill:#fff"/>
 <path d="m 33.372,19 c 0.647,0 0.933,1 1.521,1 l 1.805,0 C 36.864,20 37,20.035 37,20.2 l 0,1.5 c 0,0.165 -0.136,0.3 -0.302,0.3 l -1.814,0 c -0.587,0 -0.949,-1 -1.512,-1 l -2.071,0 C 31.135,21 31,20.865 31,20.7 l 0,-1.4 C 31,19.135 31.135,19 31.301,19 Z" style="fill:#fff"/>
 <path d="m 33.372,27 c 0.647,0 0.933,1 1.521,1 l 1.805,0 C 36.864,28 37,28.035 37,28.2 l 0,1.5 c 0,0.165 -0.136,0.3 -0.302,0.3 l -1.814,0 c -0.587,0 -0.949,-1 -1.512,-1 l -2.071,0 C 31.135,29 31,28.865 31,28.7 l 0,-1.4 C 31,27.135 31.135,27 31.301,27 Z" style="fill:#fff"/>
 <g transform="matrix(0.3023291,0,0,0.3,8.9603249,4.8000001)">
  <path d="m 66.28 25 c 0 -0.55 -0.425 -1 -0.945 -1 l -4.725 0 c -0.52 0 -0.945 0.45 -0.945 1 l 0 14.667 c 0 0.55 0.425 1 0.945 1 l 4.725 0 c 0.52 0 0.945 -0.45 0.945 -1 z" style="fill:#fff"/>
 </g>
 <g transform="matrix(0.3023291,0,0,0.3,0.9603248,4.8000001)">
  <path d="m 66.28 25 c 0 -0.55 -0.425 -1 -0.945 -1 l -4.725 0 c -0.52 0 -0.945 0.45 -0.945 1 l 0 14.667 c 0 0.55 0.425 1 0.945 1 l 4.725 0 c 0.52 0 0.945 -0.45 0.945 -1 z" style="fill:#fff"/>
 </g>
 <g transform="matrix(-0.3023291,0,0,-0.3,39.039675,43.2)">
  <path d="m 66.28 25 c 0 -0.55 -0.425 -1 -0.945 -1 l -4.725 0 c -0.52 0 -0.945 0.45 -0.945 1 l 0 14.667 c 0 0.55 0.425 1 0.945 1 l 4.725 0 c 0.52 0 0.945 -0.45 0.945 -1 z" style="fill:#fff"/>
 </g>
 <path d="m 32,17.19 0,13.63 c 0,0.652 -0.533,1.185 -1.185,1.185 l -13.63,0 C 16.533,32.005 16,31.472 16,30.82 l 0,-13.63 c 0,-0.652 0.533,-1.185 1.185,-1.185 l 13.63,0 c 0.652,0 1.185,0.533 1.185,1.185" style="fill:#686868"/>
 <path d="m 20 18.5 a 1.5 1.5 0 0 1 -3 0 1.5 1.5 0 1 1 3 0 z" style="fill:#999;fill-opacity:1;stroke:none"/>
</svg>
