<svg version="1.1" viewBox="0 0 48 48" xmlns="http://www.w3.org/2000/svg">
 <defs>
  <linearGradient id="bg" x1="1" x2="47" gradientTransform="matrix(0 -1 1 0 -1.5e-6 48)" gradientUnits="userSpaceOnUse">
   <stop style="stop-color:#e4e4e4" offset="0"/>
   <stop style="stop-color:#eee" offset="1"/>
  </linearGradient>
 </defs>
 <path d="m36.31 5c5.859 4.062 9.688 10.831 9.688 18.5 0 12.426-10.07 22.5-22.5 22.5-7.669 0-14.438-3.828-18.5-9.688 1.037 1.822 2.306 3.499 3.781 4.969 4.085 3.712 9.514 5.969 15.469 5.969 12.703 0 23-10.298 23-23 0-5.954-2.256-11.384-5.969-15.469-1.469-1.475-3.147-2.744-4.969-3.781zm4.969 3.781c3.854 4.113 6.219 9.637 6.219 15.719 0 12.703-10.297 23-23 23-6.081 0-11.606-2.364-15.719-6.219 4.16 4.144 9.883 6.719 16.219 6.719 12.703 0 23-10.298 23-23 0-6.335-2.575-12.06-6.719-16.219z" style="opacity:.05"/>
 <path d="m41.28 8.781c3.712 4.085 5.969 9.514 5.969 15.469 0 12.703-10.297 23-23 23-5.954 0-11.384-2.256-15.469-5.969 4.113 3.854 9.637 6.219 15.719 6.219 12.703 0 23-10.298 23-23 0-6.081-2.364-11.606-6.219-15.719z" style="opacity:.1"/>
 <path d="m31.25 2.375c8.615 3.154 14.75 11.417 14.75 21.13 0 12.426-10.07 22.5-22.5 22.5-9.708 0-17.971-6.135-21.12-14.75a23 23 0 0 0 44.875-7 23 23 0 0 0-16-21.875z" style="opacity:.2"/>
 <path d="m24 1c12.703 0 23 10.297 23 23s-10.297 23-23 23-23-10.297-23-23 10.297-23 23-23z" style="fill:url(#bg)"/>
 <g transform="translate(1,1)"></g>
 <path d="m37.724 24.25c-3.36-3.991-7.616-7.203-12.732-7.25s-9.639 3.641-12.724 7.25c-0.359 0.469-0.359 1.023 0 1.492 3.34 3.951 7.717 7.272 12.727 7.258s9.815-3.525 12.735-7.258c0.359-0.469 0.359-1.023 0-1.492" style="opacity:.1"/>
 <path d="m36.724 23.25c-3.36-3.991-7.616-7.203-12.732-7.25s-9.639 3.641-12.724 7.25c-0.359 0.469-0.359 1.023 0 1.492 3.34 3.951 7.717 7.272 12.727 7.258s9.815-3.525 12.735-7.258c0.359-0.469 0.359-1.023 0-1.492" style="fill:#515151"/>
 <path d="m25.244 19.003c-0.242-8e-3 -0.438 8e-3 -0.586 0.051v4e-3c-1.049 0.32-0.129 1.813-1.627 2.543-1.714 0.836-2.563-1.273-3.592 0.23-1.029 1.504 1.414 1.27 1.346 3.043-0.068 1.77-2.491 1.395-1.58 2.957 0.907 1.563 1.917-0.492 3.549 0.445 1.644 0.934 0.069 2.664 2 2.723 1.937 0.059 0.501-1.758 2.215-2.594 1.71-0.84 2.563 1.27 3.592-0.23 1.029-1.508-1.416-1.273-1.346-3.043s2.487-1.395 1.58-2.957c-0.907-1.563-1.921 0.488-3.549-0.445-1.644-0.941-0.071-2.668-2-2.727zm-0.244 3.998a2 2 0 0 1 2 2 2 2 0 0 1-2 2 2 2 0 0 1-2-2 2 2 0 0 1 2-2z" style="opacity:.1"/>
 <path d="m24.24 18c-0.242-8e-3 -0.438 8e-3 -0.586 0.051v4e-3c-1.049 0.32-0.129 1.813-1.627 2.543-1.714 0.836-2.563-1.273-3.592 0.23-1.029 1.504 1.414 1.27 1.346 3.043-0.068 1.77-2.491 1.395-1.58 2.957 0.907 1.563 1.917-0.492 3.549 0.445 1.644 0.934 0.069 2.664 2 2.723 1.937 0.059 0.501-1.758 2.215-2.594 1.71-0.84 2.563 1.27 3.592-0.23 1.029-1.508-1.416-1.273-1.346-3.043s2.487-1.395 1.58-2.957c-0.907-1.563-1.921 0.488-3.549-0.445-1.644-0.941-0.071-2.668-2-2.727zm-0.244 3.998a2 2 0 0 1 2 2 2 2 0 0 1-2 2 2 2 0 0 1-2-2 2 2 0 0 1 2-2z" style="fill:#84e55b"/>
 <path d="m40.03 7.531c3.712 4.084 5.969 9.514 5.969 15.469 0 12.703-10.297 23-23 23-5.954 0-11.384-2.256-15.469-5.969 4.178 4.291 10.01 6.969 16.469 6.969 12.703 0 23-10.298 23-23 0-6.462-2.677-12.291-6.969-16.469z" style="opacity:.1"/>
</svg>
