<svg xmlns="http://www.w3.org/2000/svg" viewBox="0 0 48 48">
 <defs>
  <linearGradient id="linearGradient3764" x1="1" x2="47" gradientUnits="userSpaceOnUse" gradientTransform="matrix(0,-1,1,0,-1.5e-6,47.999998)">
   <stop style="stop-color:#c6e2f6;stop-opacity:1"/>
   <stop offset="1" style="stop-color:#d7ebf9;stop-opacity:1"/>
  </linearGradient>
 </defs>
 <g>
  <path d="m 36.31 5 c 5.859 4.062 9.688 10.831 9.688 18.5 c 0 12.426 -10.07 22.5 -22.5 22.5 c -7.669 0 -14.438 -3.828 -18.5 -9.688 c 1.037 1.822 2.306 3.499 3.781 4.969 c 4.085 3.712 9.514 5.969 15.469 5.969 c 12.703 0 23 -10.298 23 -23 c 0 -5.954 -2.256 -11.384 -5.969 -15.469 c -1.469 -1.475 -3.147 -2.744 -4.969 -3.781 z m 4.969 3.781 c 3.854 4.113 6.219 9.637 6.219 15.719 c 0 12.703 -10.297 23 -23 23 c -6.081 0 -11.606 -2.364 -15.719 -6.219 c 4.16 4.144 9.883 6.719 16.219 6.719 c 12.703 0 23 -10.298 23 -23 c 0 -6.335 -2.575 -12.06 -6.719 -16.219 z" style="opacity:0.05"/>
  <path d="m 41.28 8.781 c 3.712 4.085 5.969 9.514 5.969 15.469 c 0 12.703 -10.297 23 -23 23 c -5.954 0 -11.384 -2.256 -15.469 -5.969 c 4.113 3.854 9.637 6.219 15.719 6.219 c 12.703 0 23 -10.298 23 -23 c 0 -6.081 -2.364 -11.606 -6.219 -15.719 z" style="opacity:0.1"/>
  <path d="m 31.25 2.375 c 8.615 3.154 14.75 11.417 14.75 21.13 c 0 12.426 -10.07 22.5 -22.5 22.5 c -9.708 0 -17.971 -6.135 -21.12 -14.75 a 23 23 0 0 0 44.875 -7 a 23 23 0 0 0 -16 -21.875 z" style="opacity:0.2"/>
 </g>
 <g>
  <path d="m 24 1 c 12.703 0 23 10.297 23 23 c 0 12.703 -10.297 23 -23 23 -12.703 0 -23 -10.297 -23 -23 0 -12.703 10.297 -23 23 -23 z" style="fill:url(#linearGradient3764);fill-opacity:1"/>
 </g>
 <g>
  <path d="m 40.03 7.531 c 3.712 4.084 5.969 9.514 5.969 15.469 0 12.703 -10.297 23 -23 23 c -5.954 0 -11.384 -2.256 -15.469 -5.969 4.178 4.291 10.01 6.969 16.469 6.969 c 12.703 0 23 -10.298 23 -23 0 -6.462 -2.677 -12.291 -6.969 -16.469 z" style="opacity:0.1"/>
 </g>
 <path d="m 25 11 c -0.592 1.776 -3.622 5.313 -6.01 9.141 l 4.408 7.559 5.627 -10.531 c -1.841 -2.608 -3.594 -4.868 -4.03 -6.168 m 4.867 7.363 -3.867 6.637 l 7.434 0 c -0.741 -2.203 -2.117 -4.506 -3.566 -6.637 m -11.555 2.889 c -1.321 2.294 -2.313 4.644 -2.313 6.748 c 0 1.054 0.191 2.06 0.523 3 l 7.477 0 -5.688 -9.748 z m 10.488 4.748 4.01 6.461 c 0.753 -1.316 1.189 -2.836 1.189 -4.461 c 0 -0.645 -0.107 -1.317 -0.273 -2 l -4.926 0 z m 1.199 4 -3.842 6.916 c 2.388 -0.308 4.48 -1.547 5.902 -3.348 l -2.061 -3.568 m -13.05 2 c 1.414 2.841 4.28 4.823 7.631 4.979 l 2.822 -4.979 -10.453 0 z" style="fill:#000;opacity:0.1;fill-opacity:1;stroke:none"/>
 <path d="m 24 10 c -0.592 1.776 -3.622 5.313 -6.01 9.141 l 4.408 7.559 5.627 -10.531 c -1.841 -2.608 -3.594 -4.868 -4.03 -6.168 m 4.867 7.363 -3.867 6.637 l 7.434 0 c -0.741 -2.203 -2.117 -4.506 -3.566 -6.637 m -11.555 2.889 c -1.321 2.294 -2.313 4.644 -2.313 6.748 c 0 1.054 0.191 2.06 0.523 3 l 7.477 0 -5.688 -9.748 z m 10.488 4.748 4.01 6.461 c 0.753 -1.316 1.189 -2.836 1.189 -4.461 c 0 -0.645 -0.107 -1.317 -0.273 -2 l -4.926 0 z m 1.199 4 -3.842 6.916 c 2.388 -0.308 4.48 -1.547 5.902 -3.348 l -2.061 -3.568 m -13.05 2 c 1.414 2.841 4.28 4.823 7.631 4.979 l 2.822 -4.979 -10.453 0 z" style="fill:#3f7dd7;opacity:1;fill-opacity:1;stroke:none"/>
</svg>
