<svg version="1.1" viewBox="0 0 48 48" xmlns="http://www.w3.org/2000/svg">
 <defs>
  <linearGradient id="bg" x2="0" y1="1" y2="47" gradientUnits="userSpaceOnUse">
   <stop style="stop-color:#f5dbdd" offset="0"/>
   <stop style="stop-color:#f1cbce" offset="1"/>
  </linearGradient>
 </defs>
 <path d="m36.3 5c5.86 4.06 9.69 10.8 9.69 18.5 0 12.4-10.1 22.5-22.5 22.5-7.67 0-14.4-3.83-18.5-9.69 1.04 1.82 2.31 3.5 3.78 4.97 4.08 3.71 9.51 5.97 15.5 5.97 12.7 0 23-10.3 23-23 0-5.95-2.26-11.4-5.97-15.5-1.47-1.48-3.15-2.74-4.97-3.78zm4.97 3.78c3.85 4.11 6.22 9.64 6.22 15.7 0 12.7-10.3 23-23 23-6.08 0-11.6-2.36-15.7-6.22 4.16 4.14 9.88 6.72 16.2 6.72 12.7 0 23-10.3 23-23 0-6.34-2.58-12.1-6.72-16.2z" style="opacity:.05"/>
 <path d="m41.3 8.78c3.71 4.08 5.97 9.51 5.97 15.5 0 12.7-10.3 23-23 23-5.95 0-11.4-2.26-15.5-5.97 4.11 3.85 9.64 6.22 15.7 6.22 12.7 0 23-10.3 23-23 0-6.08-2.36-11.6-6.22-15.7z" style="opacity:.1"/>
 <path d="m31.2 2.38c8.62 3.15 14.8 11.4 14.8 21.1 0 12.4-10.1 22.5-22.5 22.5-9.71 0-18-6.14-21.1-14.8a23 23 0 0 0 44.9-7 23 23 0 0 0-16-21.9z" style="opacity:.2"/>
 <circle cx="24" cy="24" r="23" style="fill:url(#bg)"/>
 <path d="m40 7.53c3.71 4.08 5.97 9.51 5.97 15.5 0 12.7-10.3 23-23 23-5.95 0-11.4-2.26-15.5-5.97 4.18 4.29 10 6.97 16.5 6.97 12.7 0 23-10.3 23-23 0-6.46-2.68-12.3-6.97-16.5z" style="opacity:.1"/>
 <path d="m24 11-12 7v14l12 7zm2 0v28l12-7v-14z" style="opacity:.1"/>
 <path d="m23 10-12 7v14l12 7z" style="fill:#88219c"/>
 <path d="m25 10v28l12-7v-14z" style="fill:#eb743b"/>
 <path d="m30.5 15c-0.828 0-1.5 0.672-1.5 1.5 8.6e-5 0.187 0.0352 0.373 0.104 0.547l-1.27 0.953h-2.83v1h2.77l1.45 1.74c-0.137 0.231-0.21 0.495-0.211 0.764 0 0.828 0.672 1.5 1.5 1.5s1.5-0.672 1.5-1.5-0.672-1.5-1.5-1.5c-0.177 2.9e-4 -0.353 0.032-0.52 0.0938l-1.26-1.51 1.04-0.779c0.225 0.128 0.479 0.195 0.738 0.195 0.828 0 1.5-0.672 1.5-1.5s-0.672-1.5-1.5-1.5zm0 1c0.276 0 0.5 0.224 0.5 0.5s-0.224 0.5-0.5 0.5-0.5-0.224-0.5-0.5 0.224-0.5 0.5-0.5zm-9.77 2-1.3 1.95-4.43 1.05v11l3-2 3 2v-11l-0.738-0.492 1.01-1.51h1.73v-1h-2.27zm13.8 0c-0.828 0-1.5 0.672-1.5 1.5 3.87e-4 0.635 0.401 1.2 1 1.41v2.18c-0.426 0.151-0.761 0.486-0.912 0.912h-8.09v1h4.29l3.86 3.86c-0.0968 0.201-0.148 0.421-0.148 0.645-7.15e-4 0.828 0.672 1.5 1.5 1.5s1.5-0.672 1.5-1.5-0.672-1.5-1.5-1.5c-0.223 1.9e-4 -0.443 0.0516-0.645 0.148l-3.15-3.15h2.38c0.212 0.599 0.777 1 1.41 1 0.828 5e-4 1.5-0.672 1.5-1.5-3.87e-4 -0.635-0.401-1.2-1-1.41v-2.18c0.599-0.212 1-0.777 1-1.41 5.04e-4 -0.828-0.672-1.5-1.5-1.5zm0 1c0.276 0 0.5 0.224 0.5 0.5s-0.224 0.5-0.5 0.5-0.5-0.224-0.5-0.5 0.224-0.5 0.5-0.5zm-4 2c0.276 0 0.5 0.224 0.5 0.5s-0.224 0.5-0.5 0.5-0.5-0.224-0.5-0.5 0.224-0.5 0.5-0.5zm-12.5 1v1h-1c0-0.552 0.448-1 1-1zm16.5 2c0.276 0 0.5 0.224 0.5 0.5s-0.224 0.5-0.5 0.5-0.5-0.224-0.5-0.5 0.224-0.5 0.5-0.5zm-5 3c-0.828 0-1.5 0.672-1.5 1.5 7.32e-4 0.478 0.229 0.927 0.615 1.21l-0.986 3.29h-2.63v1h3.3l1.99-0.609c0.282 0.383 0.73 0.609 1.21 0.609 0.187 0 0.364-0.0372 0.529-0.0996l0.41-0.24c0.339-0.275 0.561-0.69 0.561-1.16 0-0.828-0.672-1.5-1.5-1.5-0.792 5.8e-4 -1.45 0.617-1.5 1.41l-1.26 0.361 0.832-2.77c0.799-0.0385 1.43-0.698 1.43-1.5 0-0.828-0.672-1.5-1.5-1.5zm0 1c0.276 0 0.5 0.224 0.5 0.5s-0.224 0.5-0.5 0.5-0.5-0.224-0.5-0.5 0.224-0.5 0.5-0.5zm5 1c0.276 0 0.5 0.224 0.5 0.5s-0.224 0.5-0.5 0.5-0.5-0.224-0.5-0.5 0.224-0.5 0.5-0.5zm-3 3c0.276 0 0.5 0.224 0.5 0.5s-0.224 0.5-0.5 0.5-0.5-0.224-0.5-0.5 0.224-0.5 0.5-0.5z" style="opacity:.1"/>
 <path d="m17 18-3 2v11l3-2 3 2v-11zm0 2.5 1.5 1.5-1.5 1.5-1.5-1.5z" style="fill:#bf7dc9"/>
 <path d="m19.7 17-2.04 3.11c-0.211-0.0742-0.433-0.112-0.656-0.113-1.1 0-2 0.895-2 2s0.895 2 2 2 2-0.895 2-2c-4.6e-4 -0.492-0.182-0.966-0.51-1.33l1.74-2.67h2.73v-1zm-2.69 4c0.552 0 1 0.448 1 1s-0.448 1-1 1-1-0.448-1-1 0.448-1 1-1z" style="fill:#f9f9f9"/>
 <path d="m29.5 14c-0.828 0-1.5 0.672-1.5 1.5 8.6e-5 0.187 0.0352 0.373 0.104 0.547l-1.27 0.953h-1.83v1h1.77l1.45 1.74c-0.137 0.231-0.21 0.495-0.211 0.764 0 0.828 0.672 1.5 1.5 1.5s1.5-0.672 1.5-1.5-0.672-1.5-1.5-1.5c-0.177 2.9e-4 -0.353 0.032-0.52 0.0937l-1.26-1.51 1.04-0.779c0.225 0.128 0.479 0.195 0.738 0.195 0.828 0 1.5-0.672 1.5-1.5s-0.672-1.5-1.5-1.5zm0 1c0.276 0 0.5 0.224 0.5 0.5s-0.224 0.5-0.5 0.5-0.5-0.224-0.5-0.5 0.224-0.5 0.5-0.5zm4 2c-0.828 0-1.5 0.672-1.5 1.5 3.87e-4 0.635 0.401 1.2 1 1.41v2.18c-0.426 0.151-0.761 0.486-0.912 0.912h-7.09v1h3.29l3.86 3.86c-0.0968 0.201-0.148 0.421-0.148 0.645-7.15e-4 0.828 0.672 1.5 1.5 1.5s1.5-0.672 1.5-1.5-0.672-1.5-1.5-1.5c-0.223 1.9e-4 -0.443 0.0516-0.645 0.148l-3.15-3.15h2.38c0.212 0.599 0.777 1 1.41 1 0.828 5e-4 1.5-0.672 1.5-1.5-3.87e-4 -0.635-0.401-1.2-1-1.41v-2.18c0.599-0.212 1-0.777 1-1.41 5.04e-4 -0.828-0.672-1.5-1.5-1.5zm0 1c0.276 0 0.5 0.224 0.5 0.5s-0.224 0.5-0.5 0.5-0.5-0.224-0.5-0.5 0.224-0.5 0.5-0.5zm-4 2c0.276 0 0.5 0.224 0.5 0.5s-0.224 0.5-0.5 0.5-0.5-0.224-0.5-0.5 0.224-0.5 0.5-0.5zm4 3c0.276 0 0.5 0.224 0.5 0.5s-0.224 0.5-0.5 0.5-0.5-0.224-0.5-0.5 0.224-0.5 0.5-0.5zm-5 3c-0.828 0-1.5 0.672-1.5 1.5 7.32e-4 0.478 0.229 0.927 0.615 1.21l-0.986 3.29h-1.63v1h2.3l1.99-0.609c0.282 0.383 0.73 0.609 1.21 0.609 0.828 0 1.5-0.672 1.5-1.5s-0.672-1.5-1.5-1.5c-0.792 5.8e-4 -1.45 0.617-1.5 1.41l-1.26 0.361 0.832-2.77c0.799-0.0385 1.43-0.698 1.43-1.5 0-0.828-0.672-1.5-1.5-1.5zm0 1c0.276 0 0.5 0.224 0.5 0.5s-0.224 0.5-0.5 0.5-0.5-0.224-0.5-0.5 0.224-0.5 0.5-0.5zm5 1c0.276 0 0.5 0.224 0.5 0.5s-0.224 0.5-0.5 0.5-0.5-0.224-0.5-0.5 0.224-0.5 0.5-0.5zm-3 3c0.276 0 0.5 0.224 0.5 0.5s-0.224 0.5-0.5 0.5-0.5-0.224-0.5-0.5 0.224-0.5 0.5-0.5z" style="fill:#f9f9f9"/>
</svg>
