<svg version="1.1" viewBox="0 0 48 48" xmlns="http://www.w3.org/2000/svg">
 <defs>
  <linearGradient id="bg" x2="0" y1="1" y2="47" gradientUnits="userSpaceOnUse">
   <stop style="stop-color:#e5c799" offset="0"/>
   <stop style="stop-color:#e1be89" offset="1"/>
  </linearGradient>
 </defs>
 <path d="m36.3 5c5.86 4.06 9.69 10.8 9.69 18.5 0 12.4-10.1 22.5-22.5 22.5-7.67 0-14.4-3.83-18.5-9.69 1.04 1.82 2.31 3.5 3.78 4.97 4.08 3.71 9.51 5.97 15.5 5.97 12.7 0 23-10.3 23-23 0-5.95-2.26-11.4-5.97-15.5-1.47-1.48-3.15-2.74-4.97-3.78zm4.97 3.78c3.85 4.11 6.22 9.64 6.22 15.7 0 12.7-10.3 23-23 23-6.08 0-11.6-2.36-15.7-6.22 4.16 4.14 9.88 6.72 16.2 6.72 12.7 0 23-10.3 23-23 0-6.34-2.58-12.1-6.72-16.2z" style="opacity:.05"/>
 <path d="m41.3 8.78c3.71 4.08 5.97 9.51 5.97 15.5 0 12.7-10.3 23-23 23-5.95 0-11.4-2.26-15.5-5.97 4.11 3.85 9.64 6.22 15.7 6.22 12.7 0 23-10.3 23-23 0-6.08-2.36-11.6-6.22-15.7z" style="opacity:.1"/>
 <path d="m31.2 2.38c8.62 3.15 14.8 11.4 14.8 21.1 0 12.4-10.1 22.5-22.5 22.5-9.71 0-18-6.14-21.1-14.8a23 23 0 0044.9-7 23 23 0 00-16-21.9z" style="opacity:.2"/>
 <circle cx="24" cy="24" r="23" style="fill:url(#bg)"/>
 <path d="m40 7.53c3.71 4.08 5.97 9.51 5.97 15.5 0 12.7-10.3 23-23 23-5.95 0-11.4-2.26-15.5-5.97 4.18 4.29 10 6.97 16.5 6.97 12.7 0 23-10.3 23-23 0-6.46-2.68-12.3-6.97-16.5z" style="opacity:.1"/>
 <path d="m35 22c.0442 8.9-10 18-10 18s-10-9-10-18c-4e-6-.804 10-10 10-10 5.52 0 10 4.48 10 10z" style="opacity:.1"/>
 <path d="m34 21c.0442 8.9-10 18-10 18s-10-9-10-18c-4e-6-5.52 4.48-10 10-10 5.52 0 10 4.48 10 10z" style="fill:#f65252"/>
 <path d="m17 22c1.5 2 4 7 8 7s6.5-5 8-7l-2-2v-4h-4s-9.9 5.98-10 6z" style="opacity:.1"/>
 <path d="m24 13-2 2h-4v4l-2 2 8 2 8-2-2-2v-4h-4z" style="fill:#ebde47"/>
 <circle cx="24" cy="21" r="6" style="fill:#f5efa8"/>
 <path d="m24 28c-4 0-6.5-5-8-7h16c-1.5 2-4 7-8 7z" style="fill:#1e68c8"/>
 <path d="m19.5 22c-.277 0-.5.223-.5.5 0 .277.223.5.5.5h9c.277 0 .5-.223.5-.5 0-.277-.223-.5-.5-.5zm1.97 2c-.265.0132-.475.232-.475.5 0 .277.223.5.5.5h5c.277 0 .5-.223.5-.5 0-.277-.223-.5-.5-.5h-5c-.0087 0-.017-.000431-.0253 0zm2 2c-.265.0132-.475.232-.475.5 0 .277.223.5.5.5h1c.277 0 .5-.223.5-.5 0-.277-.223-.5-.5-.5h-1c-.0087 0-.017-.00043-.0253 0z" style="fill:#eca522"/>
 <path d="m20.5 23c-.277 0-.5.223-.5.5 0 .277.223.5.5.5h9c.277 0 .5-.223.5-.5 0-.277-.223-.5-.5-.5h-9zm1.97 2c-.265.0132-.475.232-.475.5 0 .277.223.5.5.5h5c.277 0 .5-.223.5-.5 0-.277-.223-.5-.5-.5h-5c-.0087 0-.0171-.000431-.0254 0zm2 2c-.265.0132-.475.232-.475.5 0 .237.163.432.383.484.568-.0458 1.1-.194 1.61-.416.00305-.0224.00586-.0451.00586-.0684 0-.277-.223-.5-.5-.5h-1c-.0087 0-.0171-.00043-.0254 0z" style="opacity:.1"/>
</svg>
