<svg xmlns="http://www.w3.org/2000/svg" viewBox="0 0 48 48">
 <defs>
  <linearGradient id="linearGradient3764" x1="1" x2="47" gradientUnits="userSpaceOnUse" gradientTransform="matrix(0,-1,1,0,-1.5e-6,47.999998)">
   <stop style="stop-color:#57b1cf;stop-opacity:1"/>
   <stop offset="1" style="stop-color:#67b8d3;stop-opacity:1"/>
  </linearGradient>
  <linearGradient id="linear0" gradientUnits="userSpaceOnUse" x1="6.905" y1="10.308" x2="6.712" y2="4.634" gradientTransform="matrix(1.026316,0,0,1.02,-0.178246,-0.135467)">
   <stop style="stop-color:#d5ecf1;stop-opacity:1"/>
   <stop offset="1" style="stop-color:#f9f9f9;stop-opacity:1"/>
  </linearGradient>
 </defs>
 <g>
  <path d="m 36.31 5 c 5.859 4.062 9.688 10.831 9.688 18.5 c 0 12.426 -10.07 22.5 -22.5 22.5 c -7.669 0 -14.438 -3.828 -18.5 -9.688 c 1.037 1.822 2.306 3.499 3.781 4.969 c 4.085 3.712 9.514 5.969 15.469 5.969 c 12.703 0 23 -10.298 23 -23 c 0 -5.954 -2.256 -11.384 -5.969 -15.469 c -1.469 -1.475 -3.147 -2.744 -4.969 -3.781 z m 4.969 3.781 c 3.854 4.113 6.219 9.637 6.219 15.719 c 0 12.703 -10.297 23 -23 23 c -6.081 0 -11.606 -2.364 -15.719 -6.219 c 4.16 4.144 9.883 6.719 16.219 6.719 c 12.703 0 23 -10.298 23 -23 c 0 -6.335 -2.575 -12.06 -6.719 -16.219 z" style="opacity:0.05"/>
  <path d="m 41.28 8.781 c 3.712 4.085 5.969 9.514 5.969 15.469 c 0 12.703 -10.297 23 -23 23 c -5.954 0 -11.384 -2.256 -15.469 -5.969 c 4.113 3.854 9.637 6.219 15.719 6.219 c 12.703 0 23 -10.298 23 -23 c 0 -6.081 -2.364 -11.606 -6.219 -15.719 z" style="opacity:0.1"/>
  <path d="m 31.25 2.375 c 8.615 3.154 14.75 11.417 14.75 21.13 c 0 12.426 -10.07 22.5 -22.5 22.5 c -9.708 0 -17.971 -6.135 -21.12 -14.75 a 23 23 0 0 0 44.875 -7 a 23 23 0 0 0 -16 -21.875 z" style="opacity:0.2"/>
 </g>
 <g>
  <path d="m 24 1 c 12.703 0 23 10.297 23 23 c 0 12.703 -10.297 23 -23 23 -12.703 0 -23 -10.297 -23 -23 0 -12.703 10.297 -23 23 -23 z" style="fill:url(#linearGradient3764);fill-opacity:1"/>
 </g>
 <g>
  <g>
   <g transform="translate(1,1)">
    <g style="opacity:0.1">
     <!-- color: #67b8d3 -->
     <g>
      <path d="m 24.984 12 c -0.572 -0.007 -1.124 0.114 -1.625 0.354 -1.965 0.939 -3.049 3.694 -2.01 7.445 l -5.73 5.287 -0.008 0.008 c -0.235 0.258 -0.4 0.482 -0.504 0.686 -0.104 0.204 -0.151 0.408 -0.098 0.602 0.053 0.194 0.207 0.329 0.375 0.408 0.168 0.079 0.36 0.119 0.58 0.145 0.882 0.104 2.234 -0.037 3.467 0.021 l 0.021 0 c -0.035 0.86 0 1.568 0.049 2.098 0.04 0.549 0.05 0.926 -0.021 1.127 -0.036 0.101 -0.08 0.162 -0.166 0.223 -0.456 0.222 -0.979 0.193 -1.488 0.213 l -0.289 0 c -0.256 0 -0.49 0 -0.805 -0.006 l -0.221 -0.008 c -0.216 1.054 -0.084 2.246 0.127 3.184 0.108 0.344 0.245 0.667 0.418 0.965 0 0 0 0.003 0.002 0.004 0.318 0.548 0.737 1.025 1.26 1.42 1.508 1.139 3.784 1.662 6.65 1.813 l 0.068 0.006 0.063 -0.033 c 1.076 -0.595 1.76 -1.047 2.34 -1.17 0.58 -0.123 1.113 0.021 2.035 0.727 l 0.125 0.098 0.145 -0.076 c 1.739 -0.943 3.805 -2.138 4.748 -3.51 0.471 -0.686 0.648 -1.467 0.275 -2.207 -0.355 -0.704 -1.226 -1.334 -2.594 -1.932 l -0.596 -3.287 c 0.612 -0.008 1.153 -0.03 1.48 -0.109 0.196 -0.048 0.352 -0.113 0.479 -0.209 0.126 -0.096 0.22 -0.249 0.221 -0.408 0 -0.318 -0.22 -0.529 -0.492 -0.762 -0.272 -0.233 -0.638 -0.482 -1.051 -0.74 -0.827 -0.517 -1.854 -1.085 -2.686 -1.639 -0.416 -0.277 -0.783 -0.547 -1.045 -0.797 -0.257 -0.245 -0.395 -0.462 -0.422 -0.602 -0.036 -0.701 0.019 -1.119 0.131 -1.322 0.113 -0.205 0.277 -0.278 0.645 -0.34 0.735 -0.123 2.114 -0.064 4.186 -0.713 l 0.152 -0.041 0.021 -0.158 c 0.058 -0.455 0.053 -0.845 -0.049 -1.184 -0.101 -0.338 -0.303 -0.618 -0.588 -0.846 -0.56 -0.448 -1.439 -0.728 -2.719 -1.113 c -0.902 -1.591 -1.985 -2.676 -3.115 -3.205 -0.582 -0.272 -1.174 -0.407 -1.746 -0.414" transform="translate(-1,-1)" mix-blend-mode="normal" isolation="auto" white-space="normal" solid-opacity="1" solid-color="#000000" style="visibility:visible;shape-rendering:auto;color-interpolation-filters:linearRGB;fill:#2d2d2d;opacity:1;image-rendering:auto;fill-opacity:1;stroke:none;display:inline;color:#000;fill-rule:nonzero;color-rendering:auto;color-interpolation:sRGB"/>
     </g>
    </g>
   </g>
  </g>
 </g>
 <g transform="translate(-4.6744638e-4,0)">
  <g>
   <!-- color: #67b8d3 -->
   <g>
    <path d="M 4.437,8.43 C 5.621,8.469 5.231,8.311 5.279,7.309 6.256,6.567 6.054,6.398 5.206,7.256 4.495,7.222 3.666,7.41 4.177,6.849 l 1.637,-1.51 c -0.637,-2.139 1.279,-3 2.292,-1.15 0.742,0.223 0.975,0.324 0.912,0.815 -1.15,0.36 -1.494,-0.082 -1.45,0.743 0.088,0.531 2.8,1.428 0.98,1.414 L 8.734,8.192 C 10.393,8.883 9.057,9.721 8.079,10.251 7.544,9.842 7.371,10.037 6.769,10.37 5.165,10.286 4.25,9.768 4.432,8.432 M 4.431,8.43" transform="scale(3.543307,3.543307)" style="stroke-opacity:1;fill:url(#linear0);stroke-miterlimit:4;stroke:#2d2d2d;fill-rule:nonzero;stroke-linecap:butt;stroke-linejoin:miter;stroke-width:0.141"/>
    <path d="M 5.24,8.389 C 5.145,8.408 5.06,8.417 4.978,8.421 4.966,8.421 4.946,8.422 4.934,8.423 4.909,8.424 4.883,8.426 4.86,8.427 4.828,8.428 4.787,8.429 4.752,8.43 c -0.022,0 -0.054,0 -0.084,0 C 4.595,8.43 4.529,8.429 4.44,8.427 4.385,8.842 4.429,9.178 4.571,9.447 L 4.603,9.44 C 4.99,9.281 5.154,8.838 5.239,8.386 m 0.001,0" transform="scale(3.543307,3.543307)" style="stroke-opacity:1;fill:none;stroke-miterlimit:4;stroke:#2d2d2d;stroke-linecap:butt;stroke-linejoin:miter;stroke-width:0.141"/>
    <path d="M 7.463,6.617 C 6.621,6.589 5.942,8.125 7.357,9.972 7.56,9.48 7.796,8.369 8.694,8.164 8.402,7.077 7.902,6.635 7.461,6.617 m -0.001,0" transform="scale(3.543307,3.543307)" style="stroke-opacity:1;fill:none;stroke-miterlimit:4;stroke:#2d2d2d;stroke-linecap:butt;stroke-linejoin:miter;stroke-width:0.141"/>
    <path d="M 8.089,4.154 8.065,4.18 C 7.496,4.262 6.85,5.106 7.68,5.215 L 7.798,5.207 C 8.013,5.154 8.4,5.196 9.023,5.001 9.086,4.514 8.853,4.407 8.11,4.184 8.101,4.173 8.098,4.162 8.089,4.151 m 0,0" transform="scale(3.543307,3.543307)" style="stroke-opacity:1;fill:none;stroke-miterlimit:4;stroke:#2d2d2d;stroke-linecap:butt;stroke-linejoin:miter;stroke-width:0.141"/>
    <path d="m 26,15 c 0.008,0.363 -0.184,0.699 -0.496,0.883 -0.313,0.184 -0.699,0.184 -1.012,0 C 24.179,15.699 23.992,15.363 24,15 c -0.008,-0.363 0.18,-0.699 0.492,-0.883 0.313,-0.184 0.699,-0.184 1.012,0 0.313,0.184 0.504,0.52 0.496,0.883 m 0,0" style="fill:#2d2d2d;fill-opacity:1;stroke:none;fill-rule:nonzero"/>
   </g>
  </g>
 </g>
 <g>
  <path d="m 40.03 7.531 c 3.712 4.084 5.969 9.514 5.969 15.469 0 12.703 -10.297 23 -23 23 c -5.954 0 -11.384 -2.256 -15.469 -5.969 4.178 4.291 10.01 6.969 16.469 6.969 c 12.703 0 23 -10.298 23 -23 0 -6.462 -2.677 -12.291 -6.969 -16.469 z" style="opacity:0.1"/>
 </g>
</svg>
