<svg version="1.1" viewBox="0 0 48 48" xmlns="http://www.w3.org/2000/svg">
 <defs>
  <linearGradient id="bg" x2="0" y1="1" y2="47" gradientUnits="userSpaceOnUse">
   <stop style="stop-color:#575757" offset="0"/>
   <stop style="stop-color:#4d4d4d" offset="1"/>
  </linearGradient>
 </defs>
 <path d="m36.3 5c5.86 4.06 9.69 10.8 9.69 18.5 0 12.4-10.1 22.5-22.5 22.5-7.67 0-14.4-3.83-18.5-9.69 1.04 1.82 2.31 3.5 3.78 4.97 4.08 3.71 9.51 5.97 15.5 5.97 12.7 0 23-10.3 23-23 0-5.95-2.26-11.4-5.97-15.5-1.47-1.48-3.15-2.74-4.97-3.78zm4.97 3.78c3.85 4.11 6.22 9.64 6.22 15.7 0 12.7-10.3 23-23 23-6.08 0-11.6-2.36-15.7-6.22 4.16 4.14 9.88 6.72 16.2 6.72 12.7 0 23-10.3 23-23 0-6.34-2.58-12.1-6.72-16.2z" style="opacity:.05"/>
 <path d="m41.3 8.78c3.71 4.08 5.97 9.51 5.97 15.5 0 12.7-10.3 23-23 23-5.95 0-11.4-2.26-15.5-5.97 4.11 3.85 9.64 6.22 15.7 6.22 12.7 0 23-10.3 23-23 0-6.08-2.36-11.6-6.22-15.7z" style="opacity:.1"/>
 <path d="m31.2 2.38c8.62 3.15 14.8 11.4 14.8 21.1 0 12.4-10.1 22.5-22.5 22.5-9.71 0-18-6.14-21.1-14.8a23 23 0 0 0 44.9-7 23 23 0 0 0-16-21.9z" style="opacity:.2"/>
 <circle cx="24" cy="24" r="23" style="fill:url(#bg)"/>
 <path d="m40 7.53c3.71 4.08 5.97 9.51 5.97 15.5 0 12.7-10.3 23-23 23-5.95 0-11.4-2.26-15.5-5.97 4.18 4.29 10 6.97 16.5 6.97 12.7 0 23-10.3 23-23 0-6.46-2.68-12.3-6.97-16.5z" style="opacity:.1"/>
 <path d="m13 25h-0.00195v10c1.05-1e-5 2.25-0.255 3.06-1.06l2.56-2.56 5.1 5.1c0.706 0.706 1.84 0.706 2.55 0l10.2-10.2c0.706-0.706 0.706-1.84 0-2.55l-10.2-10.2zm12-4c0.353 0 0.706 0.136 0.977 0.406l2.62 2.62-4.57 4.57-2.62-2.62c-0.27-0.27-0.406-0.624-0.406-0.977 0-0.353 0.136-0.704 0.406-0.975l2.62-2.62c0.27-0.27 0.624-0.406 0.977-0.406z" style="opacity:.1"/>
 <path d="m21.7 21.7-2.71-1.71-1.37-2.37 5.1-5.1c0.353-0.353 0.815-0.529 1.28-0.529 0.461 0 0.922 0.176 1.28 0.529l5.1 5.1-1.37 2.37-2.71 1.71-1.31-1.31c-0.27-0.27-0.624-0.406-0.977-0.406-0.353-2e-5 -0.706 0.136-0.977 0.406z" style="fill:#ed646e"/>
 <path d="m30.4 17.6-4.09 4.09 1.31 1.31c0.541 0.541 0.541 1.41 0 1.95l-1.31 1.31 1.71 2.72 2.37 1.37 5.1-5.1c0.706-0.706 0.706-1.84 0-2.55z" style="fill:#ef3e6a"/>
 <path d="m21.7 26.3-2.71 1.72-1.37 2.37 5.1 5.1c0.706 0.706 1.84 0.706 2.55 0l5.1-5.1-4.09-4.09-1.31 1.31c-0.541 0.541-1.41 0.541-1.95 0z" style="fill:#f2697f"/>
 <path d="m17.6 17.6-5.1 5.1c-0.353 0.353-0.527 0.813-0.527 1.27h-0.00195v10c1.05-1e-5 2.25-0.255 3.06-1.06l6.65-6.65-1.31-1.31c-0.27-0.27-0.406-0.624-0.406-0.977 0-0.353 0.136-0.704 0.406-0.975l1.31-1.31z" style="fill:#e3595c"/>
</svg>
