<svg version="1.1" viewBox="0 0 48 48" xmlns="http://www.w3.org/2000/svg">
 <defs>
  <linearGradient id="bg" x1="1" x2="47" gradientTransform="matrix(0 -1 1 0 -1.5e-6 48)" gradientUnits="userSpaceOnUse">
   <stop style="stop-color:#47524a" offset="0"/>
   <stop style="stop-color:#505d54" offset="1"/>
  </linearGradient>
 </defs>
 <path d="m36.3 5c5.86 4.06 9.69 10.8 9.69 18.5 0 12.4-10.1 22.5-22.5 22.5-7.67 0-14.4-3.83-18.5-9.69 1.04 1.82 2.31 3.5 3.78 4.97 4.08 3.71 9.51 5.97 15.5 5.97 12.7 0 23-10.3 23-23 0-5.95-2.26-11.4-5.97-15.5-1.47-1.48-3.15-2.74-4.97-3.78zm4.97 3.78c3.85 4.11 6.22 9.64 6.22 15.7 0 12.7-10.3 23-23 23-6.08 0-11.6-2.36-15.7-6.22 4.16 4.14 9.88 6.72 16.2 6.72 12.7 0 23-10.3 23-23 0-6.34-2.58-12.1-6.72-16.2z" style="opacity:.05"/>
 <path d="m41.3 8.78c3.71 4.08 5.97 9.51 5.97 15.5 0 12.7-10.3 23-23 23-5.95 0-11.4-2.26-15.5-5.97 4.11 3.85 9.64 6.22 15.7 6.22 12.7 0 23-10.3 23-23 0-6.08-2.36-11.6-6.22-15.7z" style="opacity:.1"/>
 <path d="m31.2 2.38c8.62 3.15 14.8 11.4 14.8 21.1 0 12.4-10.1 22.5-22.5 22.5-9.71 0-18-6.14-21.1-14.8a23 23 0 0 0 44.9-7 23 23 0 0 0-16-21.9z" style="opacity:.2"/>
 <path d="m24 1c12.7 0 23 10.3 23 23s-10.3 23-23 23-23-10.3-23-23 10.3-23 23-23z" style="fill:url(#bg)"/>
 <path d="m40 7.53c3.71 4.08 5.97 9.51 5.97 15.5 0 12.7-10.3 23-23 23-5.95 0-11.4-2.26-15.5-5.97 4.18 4.29 10 6.97 16.5 6.97 12.7 0 23-10.3 23-23 0-6.46-2.68-12.3-6.97-16.5z" style="opacity:.1"/>
 <path d="m36 12c-6.42 0-14.8 9.16-19.2 18.6-1.28 2.72-2.37 5.66-2.78 7.43l0.5-0.021c1.86-5.38 4.01-5.81 5.03-5.98 3.65-0.606 6.44-1.78 9.13-5-3.67 0-5.97-0.614-5.97-1h6.6c0.917-0.957 1.86-2.06 2.57-3-3.2 0-5.87-0.406-5.87-1h6.6c0.663-0.983 1.22-2.04 1.68-3-2.86 0-4.78-0.646-4.78-1h5.25c0.866-2.13 1.25-4.17 1.25-6z" style="opacity:.1"/>
 <path d="m16.1 29c-0.093 0.19-0.195 0.38-0.285 0.57-1.28 2.72-2.37 5.66-2.78 7.43l0.5-0.021c1.86-5.38 4.01-5.81 5.03-5.98 2.16-0.36 4.02-0.93 5.74-2l-4.28-1-3.93 1-5e-4 -5e-4z" style="fill:#43e575"/>
 <path d="m18.3 25c-0.799 1.31-1.54 2.65-2.2 4h8.21c1.18-0.732 2.29-1.69 3.39-3-3.67 0-5.97-0.614-5.97-1l-1.71-0.601z" style="fill:#85e543"/>
 <path d="m23.8 20.4c-0.587-0.0176-1.36 0.25-2.77 0.635-0.964 1.27-1.88 2.62-2.72 4h10c0.916-0.957 1.85-2.05 2.56-3-3.2 0-5.87-0.406-5.87-1-0.436-0.438-0.779-0.623-1.24-0.637z" style="fill:#f6f155"/>
 <path d="m24.4 17c-1.18 1.21-2.34 2.56-3.43 4h10.6c0.662-0.982 1.22-2.04 1.67-3-2.86 0-4.78-0.646-4.78-1-0.496-1-2.5-1-4.07-2e-3" style="fill:#86add5"/>
 <path d="m35 11c-3.28 0-7.07 2.4-10.6 6h9.33c0.865-2.13 1.25-4.17 1.25-6z" style="fill:#b988a9"/>
</svg>
