<svg xmlns="http://www.w3.org/2000/svg" viewBox="0 0 48 48">
 <g>
  <path d="m 36.31 5 c 5.859 4.062 9.688 10.831 9.688 18.5 c 0 12.426 -10.07 22.5 -22.5 22.5 c -7.669 0 -14.438 -3.828 -18.5 -9.688 c 1.037 1.822 2.306 3.499 3.781 4.969 c 4.085 3.712 9.514 5.969 15.469 5.969 c 12.703 0 23 -10.298 23 -23 c 0 -5.954 -2.256 -11.384 -5.969 -15.469 c -1.469 -1.475 -3.147 -2.744 -4.969 -3.781 z m 4.969 3.781 c 3.854 4.113 6.219 9.637 6.219 15.719 c 0 12.703 -10.297 23 -23 23 c -6.081 0 -11.606 -2.364 -15.719 -6.219 c 4.16 4.144 9.883 6.719 16.219 6.719 c 12.703 0 23 -10.298 23 -23 c 0 -6.335 -2.575 -12.06 -6.719 -16.219 z" style="opacity:0.05"/>
  <path d="m 41.28 8.781 c 3.712 4.085 5.969 9.514 5.969 15.469 c 0 12.703 -10.297 23 -23 23 c -5.954 0 -11.384 -2.256 -15.469 -5.969 c 4.113 3.854 9.637 6.219 15.719 6.219 c 12.703 0 23 -10.298 23 -23 c 0 -6.081 -2.364 -11.606 -6.219 -15.719 z" style="opacity:0.1"/>
  <path d="m 31.25 2.375 c 8.615 3.154 14.75 11.417 14.75 21.13 c 0 12.426 -10.07 22.5 -22.5 22.5 c -9.708 0 -17.971 -6.135 -21.12 -14.75 a 23 23 0 0 0 44.875 -7 a 23 23 0 0 0 -16 -21.875 z" style="opacity:0.2"/>
 </g>
 <g style="fill:#950424;fill-opacity:1">
  <path d="m 24 1 c 12.703 0 23 10.297 23 23 c 0 12.703 -10.297 23 -23 23 -12.703 0 -23 -10.297 -23 -23 0 -12.703 10.297 -23 23 -23 z"/>
 </g>
 <g>
  <path d="m 40.03 7.531 c 3.712 4.084 5.969 9.514 5.969 15.469 0 12.703 -10.297 23 -23 23 c -5.954 0 -11.384 -2.256 -15.469 -5.969 4.178 4.291 10.01 6.969 16.469 6.969 c 12.703 0 23 -10.298 23 -23 0 -6.462 -2.677 -12.291 -6.969 -16.469 z" style="opacity:0.1"/>
 </g>
 <path d="m 24 11.06 c -4.553 0.509 -7.998 4.358 -8 8.939 c 0.002 0.173 0.008 0.345 0.02 0.518 c -3.603 1.264 -6.02 4.664 -6.02 8.482 c 0.003 1.422 0.343 2.823 0.992 4.088 l 0.566 -0.461 c -0.202 -0.605 -0.306 -1.239 -0.309 -1.877 c 0 -3.314 2.686 -6 6 -6 1.879 0.002 3.649 0.885 4.781 2.385 l 1.494 -0.861 a 1.5 1.5 0 0 1 -0.025 -0.273 a 1.5 1.5 0 0 1 1 -1.412 l 0 -0.002 0 -1.111 c -3.107 -0.26 -5.498 -2.856 -5.5 -5.975 c 0.001 -2.927 2.114 -5.426 5 -5.914 l 0 -0.525 z m 2 0.006 0 0.523 c 2.885 0.488 4.997 2.985 5 5.91 -0.002 3.118 -2.393 5.715 -5.5 5.975 l 0 1.111 c 0.001 0.001 0.001 0.001 0.002 0.002 a 1.5 1.5 0 0 1 0.998 1.412 1.5 1.5 0 0 1 -0.025 0.273 l 1.494 0.863 c 1.132 -1.501 2.902 -2.384 4.781 -2.387 c 3.314 0 6 2.686 6 6 -0.002 0.639 -0.105 1.273 -0.307 1.879 l 0.572 0.465 c 0.647 -1.268 0.985 -2.671 0.984 -4.094 -0.005 -3.82 -2.42 -7.22 -6.03 -8.482 0.013 -0.172 0.022 -0.345 0.025 -0.518 -0.005 -4.58 -3.449 -8.425 -8 -8.934 m -1 6.934 c -1.645 0.001 -3.25 0.509 -4.596 1.455 0.264 0.621 0.652 1.183 1.139 1.65 c 1.01 -0.717 2.218 -1.103 3.457 -1.105 c 1.241 0.002 2.451 0.388 3.463 1.105 0.485 -0.465 0.871 -1.023 1.135 -1.641 c -1.345 -0.95 -2.951 -1.461 -4.598 -1.465 m -7.75 7.5 c -0.078 0.001 -0.155 0.003 -0.232 0.008 c -0.011 0.164 -0.017 0.328 -0.018 0.492 c 0.004 3.185 1.896 6.06 4.818 7.33 0.332 -0.589 0.547 -1.236 0.633 -1.906 c -2.104 -0.987 -3.448 -3.1 -3.451 -5.424 0.002 -0.063 0.006 -0.126 0.01 -0.189 -0.565 -0.203 -1.16 -0.308 -1.76 -0.311 m 15.5 0 c -0.599 0.002 -1.194 0.106 -1.758 0.309 0.004 0.064 0.006 0.128 0.008 0.191 -0.003 2.323 -1.346 4.436 -3.449 5.424 0.087 0.672 0.303 1.32 0.637 1.91 c 2.921 -1.269 4.811 -4.149 4.813 -7.334 -0.003 -0.163 -0.011 -0.326 -0.023 -0.488 -0.075 -0.006 -0.151 -0.009 -0.227 -0.012 m -6.777 1.639 a 1.5 1.5 0 0 1 -0.973 0.361 a 1.5 1.5 0 0 1 -0.973 -0.359 1.5 1.5 0 0 1 -0.002 0 l -1.455 0.84 c 0.446 0.855 0.679 1.805 0.68 2.77 0 3.314 -2.686 6 -6 6 -1.853 -0.001 -3.601 -0.858 -4.736 -2.322 l -0.42 0.342 c 1.71 2.047 4.239 3.23 6.906 3.23 c 2.215 -0.004 4.352 -0.824 6 -2.305 1.648 1.481 3.785 2.301 6 2.305 2.666 -0.003 5.193 -1.188 6.9 -3.234 l -0.418 -0.34 c -1.134 1.463 -2.881 2.321 -4.732 2.324 c -3.314 0 -6 -2.686 -6 -6 0.002 -0.964 0.235 -1.913 0.682 -2.768 l -1.459 -0.844 z" style="fill:#000;opacity:0.1;fill-opacity:1;stroke:none;fill-rule:nonzero"/>
 <path d="m 23 10.06 c -4.553 0.509 -7.998 4.358 -8 8.939 c 0.002 0.173 0.008 0.345 0.02 0.518 c -3.603 1.264 -6.02 4.664 -6.02 8.482 c 0.003 1.422 0.343 2.823 0.992 4.088 l 0.566 -0.461 c -0.202 -0.605 -0.306 -1.239 -0.309 -1.877 c 0 -3.314 2.686 -6 6 -6 c 1.879 0.002 3.649 0.885 4.781 2.385 l 1.494 -0.861 a 1.5 1.5 0 0 1 -0.025 -0.273 a 1.5 1.5 0 0 1 1 -1.412 l 0 -0.002 l 0 -1.111 c -3.107 -0.26 -5.498 -2.856 -5.5 -5.975 c 0.001 -2.927 2.114 -5.426 5 -5.914 l 0 -0.525 z m 2 0.006 l 0 0.523 c 2.885 0.488 4.997 2.985 5 5.91 c -0.002 3.118 -2.393 5.715 -5.5 5.975 l 0 1.111 c 0.001 0.001 0.001 0.001 0.002 0.002 a 1.5 1.5 0 0 1 0.998 1.412 a 1.5 1.5 0 0 1 -0.025 0.273 l 1.494 0.863 c 1.132 -1.501 2.902 -2.384 4.781 -2.387 c 3.314 0 6 2.686 6 6 c -0.002 0.639 -0.105 1.273 -0.307 1.879 l 0.572 0.465 c 0.647 -1.268 0.985 -2.671 0.984 -4.094 c -0.005 -3.82 -2.42 -7.22 -6.03 -8.482 c 0.013 -0.172 0.022 -0.345 0.025 -0.518 c -0.005 -4.58 -3.449 -8.425 -8 -8.934 z m -1 6.934 c -1.645 0.001 -3.25 0.509 -4.596 1.455 c 0.264 0.621 0.652 1.183 1.139 1.65 c 1.01 -0.717 2.218 -1.103 3.457 -1.105 c 1.241 0.002 2.451 0.388 3.463 1.105 c 0.485 -0.465 0.871 -1.023 1.135 -1.641 c -1.345 -0.95 -2.951 -1.461 -4.598 -1.465 z m -7.75 7.5 c -0.078 0.001 -0.155 0.004 -0.232 0.008 c -0.011 0.164 -0.017 0.328 -0.018 0.492 c 0.004 3.185 1.896 6.06 4.818 7.33 c 0.332 -0.589 0.547 -1.236 0.633 -1.906 c -2.104 -0.987 -3.448 -3.1 -3.451 -5.424 c 0.002 -0.063 0.005 -0.126 0.01 -0.189 c -0.565 -0.203 -1.16 -0.308 -1.76 -0.311 z m 15.5 0 c -0.599 0.002 -1.194 0.106 -1.758 0.309 c 0.004 0.064 0.006 0.128 0.008 0.191 c -0.003 2.323 -1.346 4.436 -3.449 5.424 c 0.087 0.672 0.303 1.32 0.637 1.91 c 2.921 -1.269 4.811 -4.149 4.813 -7.334 c -0.003 -0.163 -0.011 -0.326 -0.023 -0.488 c -0.075 -0.006 -0.151 -0.009 -0.227 -0.012 z m -6.777 1.639 a 1.5 1.5 0 0 1 -0.973 0.361 a 1.5 1.5 0 0 1 -0.973 -0.359 a 1.5 1.5 0 0 1 -0.002 0 l -1.455 0.84 c 0.446 0.855 0.679 1.805 0.68 2.77 c 0 3.314 -2.686 6 -6 6 c -1.853 -0.001 -3.601 -0.858 -4.736 -2.322 l -0.42 0.342 c 1.71 2.047 4.239 3.23 6.906 3.23 c 2.215 -0.004 4.352 -0.824 6 -2.305 c 1.648 1.481 3.785 2.301 6 2.305 c 2.666 -0.003 5.193 -1.188 6.9 -3.234 l -0.418 -0.34 c -1.134 1.463 -2.881 2.321 -4.732 2.324 c -3.314 0 -6 -2.686 -6 -6 c 0.002 -0.964 0.235 -1.913 0.682 -2.768 l -1.459 -0.844 z" style="fill:#f9c4d5;opacity:1;fill-opacity:1;stroke:none;fill-rule:nonzero"/>
</svg>
