<svg version="1.1" viewBox="0 0 48 48" xmlns="http://www.w3.org/2000/svg">
 <defs>
  <linearGradient id="bg" x1="1" x2="47" gradientTransform="matrix(0 -1 1 0 -1.5e-6 48)" gradientUnits="userSpaceOnUse">
   <stop style="stop-color:#5eb6e8" offset="0"/>
   <stop style="stop-color:#70bdea" offset="1"/>
  </linearGradient>
 </defs>
 <path d="m36.31 5c5.859 4.062 9.688 10.831 9.688 18.5 0 12.426-10.07 22.5-22.5 22.5-7.669 0-14.438-3.828-18.5-9.688 1.037 1.822 2.306 3.499 3.781 4.969 4.085 3.712 9.514 5.969 15.469 5.969 12.703 0 23-10.298 23-23 0-5.954-2.256-11.384-5.969-15.469-1.469-1.475-3.147-2.744-4.969-3.781zm4.969 3.781c3.854 4.113 6.219 9.637 6.219 15.719 0 12.703-10.297 23-23 23-6.081 0-11.606-2.364-15.719-6.219 4.16 4.144 9.883 6.719 16.219 6.719 12.703 0 23-10.298 23-23 0-6.335-2.575-12.06-6.719-16.219z" style="opacity:.05"/>
 <path d="m41.28 8.781c3.712 4.085 5.969 9.514 5.969 15.469 0 12.703-10.297 23-23 23-5.954 0-11.384-2.256-15.469-5.969 4.113 3.854 9.637 6.219 15.719 6.219 12.703 0 23-10.298 23-23 0-6.081-2.364-11.606-6.219-15.719z" style="opacity:.1"/>
 <path d="m31.25 2.375c8.615 3.154 14.75 11.417 14.75 21.13 0 12.426-10.07 22.5-22.5 22.5-9.708 0-17.971-6.135-21.12-14.75a23 23 0 0 0 44.875-7 23 23 0 0 0-16-21.875z" style="opacity:.2"/>
 <path d="m24 1c12.703 0 23 10.297 23 23s-10.297 23-23 23-23-10.297-23-23 10.297-23 23-23z" style="fill:url(#bg)"/>
 <path d="m25 12c-1.657 0-3 1.343-3 3 1e-3 1.271 0.802 2.403 2 2.826v3.174h-3v-3h-2v3.092c-1.163 0.207-2 0.756-2 1.408s0.837 1.202 2 1.408v8.092h2v-8.092c0.849-0.151 1.515-0.484 1.816-0.908h1.184v5.092c-1.163 0.207-2 0.756-2 1.408s0.837 1.202 2 1.408v2.092c0 0.552-0.448 1-1 1h-0.5c-0.75 0-2.977-0.86-4.34-1.541-1.684-0.842-1.686-1.262-1.574-1.459 0.339-0.599 0.914-0.1 0.914-0.1s0.203-0.9-1-1.9c-0.402-0.334-1.237-0.756-1.5-1-0.523-0.484-0.515-1-0.801-1-0.372 0-1.199 1.827-1.199 3 0 1.171 0 2.471 1 3 0-0.455 0.401-1 1-0.699 0.278 0.14 1.615 1.029 3.082 1.951 2.168 1.363 5.455 1.779 6.918 3.748 1.463-1.969 4.75-2.385 6.918-3.748 1.467-0.922 2.817-1.788 3.082-1.951 0.488-0.301 1-0.301 1 0.699 1-0.529 1-1.829 1-3 0-1.173-0.929-3-1.301-3-0.27 0-0.176 0.516-0.699 1-0.263 0.244-1.098 0.666-1.5 1-1.203 1-1 1.9-1 1.9s0.575-0.499 0.914 0.1c0.111 0.197 0.11 0.617-1.574 1.459-1.363 0.681-3.59 1.541-4.34 1.541h-0.5c-0.552 0-1-0.448-1-1v-2.092c1.163-0.207 2-0.756 2-1.408s-0.837-1.202-2-1.408v-5.092h1.184c0.301 0.424 0.967 0.757 1.816 0.908v8.092h2v-8.092c1.163-0.207 2-0.756 2-1.408s-0.837-1.202-2-1.408v-3.092h-2v3h-3v-3.176c1.197-0.423 1.998-1.554 2-2.824 0-1.657-1.343-3-3-3zm0 2c0.552 0 1 0.448 1 1s-0.448 1-1 1-1-0.448-1-1 0.448-1 1-1z" style="opacity:.1"/>
 <g transform="translate(1,1)"></g>
 <path d="m24 11c-1.657 0-3 1.343-3 3 1e-3 1.271 0.802 2.403 2 2.826v3.174h-4v2h4v10c0 0.552-0.448 1-1 1h-0.5c-0.75 0-2.977-0.86-4.34-1.541-1.684-0.842-1.686-1.262-1.574-1.459 0.339-0.599 0.914-0.1 0.914-0.1s0.203-0.9-1-1.9c-0.402-0.334-1.237-0.756-1.5-1-0.523-0.484-0.514-1-0.8-1-0.372 0-1.2 1.827-1.2 3 0 1.171 0 2.471 1 3 0-0.455 0.401-1 1-0.699 0.278 0.14 1.615 1.029 3.082 1.951 2.168 1.363 5.455 1.779 6.918 3.748 1.463-1.969 4.75-2.385 6.918-3.748 1.467-0.922 2.817-1.788 3.082-1.951 0.488-0.301 1-0.301 1 0.699 1-0.529 1-1.829 1-3 0-1.173-0.928-3-1.3-3-0.27 0-0.177 0.516-0.7 1-0.263 0.244-1.098 0.666-1.5 1-1.203 1-1 1.9-1 1.9s0.575-0.499 0.914 0.1c0.111 0.197 0.11 0.617-1.574 1.459-1.363 0.681-3.59 1.541-4.34 1.541h-0.5c-0.552 0-1-0.448-1-1v-10h4v-2h-4v-3.176c1.197-0.423 1.998-1.554 2-2.824 0-1.657-1.343-3-3-3m0 2c0.552 0 1 0.448 1 1s-0.448 1-1 1-1-0.448-1-1 0.448-1 1-1z" style="fill:#3d6275"/>
 <path d="m23 16v16h2v-16zm-5 1v14h2v-14zm10 0v14h2v-14z" style="fill:#f9f9f9"/>
 <path d="m19 20c-1.66 0-3 0.672-3 1.5s1.34 1.5 3 1.5 3-0.672 3-1.5-1.34-1.5-3-1.5zm10 0c-1.66 0-3 0.672-3 1.5s1.34 1.5 3 1.5 3-0.672 3-1.5-1.34-1.5-3-1.5zm-5 7c-1.66 0-3 0.672-3 1.5s1.34 1.5 3 1.5 3-0.672 3-1.5-1.34-1.5-3-1.5z" style="fill:#f9f9f9"/>
 <path d="m40.03 7.531c3.712 4.084 5.969 9.514 5.969 15.469 0 12.703-10.297 23-23 23-5.954 0-11.384-2.256-15.469-5.969 4.178 4.291 10.01 6.969 16.469 6.969 12.703 0 23-10.298 23-23 0-6.462-2.677-12.291-6.969-16.469z" style="opacity:.1"/>
</svg>
