<svg version="1.1" viewBox="0 0 48 48" xmlns="http://www.w3.org/2000/svg">
 <defs>
  <linearGradient id="linearGradient3764" x1="1" x2="47" gradientTransform="matrix(0 -1 1 0 -1.5e-6 48)" gradientUnits="userSpaceOnUse">
   <stop style="stop-color:#32506e" offset="0"/>
   <stop style="stop-color:#38597c" offset="1"/>
  </linearGradient>
 </defs>
 <path d="m36.31 5c5.859 4.062 9.688 10.831 9.688 18.5 0 12.426-10.07 22.5-22.5 22.5-7.669 0-14.438-3.828-18.5-9.688 1.037 1.822 2.306 3.499 3.781 4.969 4.085 3.712 9.514 5.969 15.469 5.969 12.703 0 23-10.298 23-23 0-5.954-2.256-11.384-5.969-15.469-1.469-1.475-3.147-2.744-4.969-3.781zm4.969 3.781c3.854 4.113 6.219 9.637 6.219 15.719 0 12.703-10.297 23-23 23-6.081 0-11.606-2.364-15.719-6.219 4.16 4.144 9.883 6.719 16.219 6.719 12.703 0 23-10.298 23-23 0-6.335-2.575-12.06-6.719-16.219z" style="opacity:.05"/>
 <path d="m41.28 8.781c3.712 4.085 5.969 9.514 5.969 15.469 0 12.703-10.297 23-23 23-5.954 0-11.384-2.256-15.469-5.969 4.113 3.854 9.637 6.219 15.719 6.219 12.703 0 23-10.298 23-23 0-6.081-2.364-11.606-6.219-15.719z" style="opacity:.1"/>
 <path d="m31.25 2.375c8.615 3.154 14.75 11.417 14.75 21.13 0 12.426-10.07 22.5-22.5 22.5-9.708 0-17.971-6.135-21.12-14.75a23 23 0 0 0 44.875 -7 23 23 0 0 0 -16 -21.875z" style="opacity:.2"/>
 <path d="m24 1c12.703 0 23 10.297 23 23s-10.297 23-23 23-23-10.297-23-23 10.297-23 23-23z" style="fill:url(#linearGradient3764)"/>
 <path d="m40.03 7.531c3.712 4.084 5.969 9.514 5.969 15.469 0 12.703-10.297 23-23 23-5.954 0-11.384-2.256-15.469-5.969 4.178 4.291 10.01 6.969 16.469 6.969 12.703 0 23-10.298 23-23 0-6.462-2.677-12.291-6.969-16.469z" style="opacity:.1"/>
 <path d="m19.687 13.999-2e-3 2e-3c-0.118 0.013-0.225 0.072-0.298 0.166l-6.572 8.254c-0.081 0.105-0.11 0.24-0.08 0.37l2.344 10.29c0.03 0.129 0.117 0.238 0.236 0.296l9.493 4.579c0.12 0.058 0.259 0.058 0.38 0l9.497-4.579c0.12-0.057 0.207-0.166 0.238-0.296l2.344-10.29c0.029-0.13-3e-3 -0.266-0.086-0.37l-6.572-8.254c-0.083-0.104-0.207-0.165-0.34-0.166h-10.536c-0.015 0-0.031-2e-3 -0.046-2e-3z" solid-color="#000000" style="color-rendering:auto;image-rendering:auto;opacity:.1;shape-rendering:auto" isolation="auto" mix-blend-mode="normal" white-space="normal"/>
 <g transform="translate(-.00010776 -.0004999)">
  <path d="m18.845 13.624-3e-3 2e-3c-0.114 0.012-0.219 0.071-0.289 0.161l-6.377 8.01c-0.079 0.102-0.108 0.234-0.078 0.359l2.274 9.988c0.029 0.125 0.114 0.23 0.229 0.286l9.213 4.445c0.117 0.056 0.252 0.056 0.369 0l9.216-4.445c0.116-0.055 0.201-0.161 0.231-0.286l2.274-9.988c0.028-0.126-2e-3 -0.258-0.083-0.359l-6.377-8.01c-0.08-0.101-0.202-0.161-0.331-0.161h-10.225c-0.014 0-0.029-2e-3 -0.043-2e-3z" solid-color="#000000" style="color-rendering:auto;fill:#95dfd3;image-rendering:auto;shape-rendering:auto" isolation="auto" mix-blend-mode="normal" white-space="normal"/>
  <path d="m18.707 13c-0.134 0.013-0.258 0.081-0.342 0.187l-6.534 8.204c-0.094 0.12-0.129 0.277-0.093 0.425l2.33 10.237c0.033 0.149 0.132 0.275 0.269 0.342l9.444 4.553c0.137 0.067 0.298 0.067 0.435 0l9.444-4.553c0.137-0.067 0.236-0.193 0.269-0.342l2.33-10.237c0.035-0.149 0-0.305-0.093-0.425l-6.534-8.204c-0.096-0.119-0.241-0.188-0.393-0.187h-10.479-0.052zm0.29 0.996h10l6.234 7.831-2.226 9.77-9.01 4.346-9.01-4.346-2.226-9.77z" solid-color="#000000" style="color-rendering:auto;fill:#d7fffa;image-rendering:auto;shape-rendering:auto" isolation="auto" mix-blend-mode="normal" white-space="normal"/>
  <path d="m20.931 18c-0.094 9e-3 -0.18 0.056-0.239 0.13l-3.784 4.749c-0.067 0.083-0.092 0.192-0.068 0.296l1.35 5.919c0.024 0.104 0.095 0.191 0.191 0.237l5.467 2.633c0.096 0.047 0.209 0.047 0.305 0l5.467-2.633c0.097-0.046 0.167-0.133 0.191-0.237l1.35-5.919c0.023-0.104-2e-3 -0.213-0.068-0.296l-3.784-4.749c-0.067-0.082-0.167-0.13-0.273-0.13h-6.07-0.034zm0.203 0.699h5.732l3.575 4.482-1.277 5.591-5.164 2.49-5.164-2.49-1.277-5.591" solid-color="#000000" style="color-rendering:auto;fill:#d7fffa;image-rendering:auto;shape-rendering:auto" isolation="auto" mix-blend-mode="normal" white-space="normal"/>
  <path d="m19.318 13.855-0.637 0.289 2.133 4.699 0.639-0.289-2.135-4.699z" solid-color="#000000" style="color-rendering:auto;fill-rule:evenodd;fill:#d7fffa;image-rendering:auto;shape-rendering:auto" isolation="auto" mix-blend-mode="normal" white-space="normal"/>
  <path d="m12.857 21.492-0.189 0.674 4.797 1.354 0.189-0.674-4.797-1.354z" solid-color="#000000" style="color-rendering:auto;fill-rule:evenodd;fill:#d7fffa;image-rendering:auto;shape-rendering:auto" isolation="auto" mix-blend-mode="normal" white-space="normal"/>
  <path d="m18.629 28.49-3.848 2.826 0.414 0.564 3.848-2.826-0.414-0.564z" solid-color="#000000" style="color-rendering:auto;fill-rule:evenodd;fill:#d7fffa;image-rendering:auto;shape-rendering:auto" isolation="auto" mix-blend-mode="normal" white-space="normal"/>
  <path d="m23.65 31.26v4.682h0.699v-4.682h-0.699z" solid-color="#000000" style="color-rendering:auto;fill-rule:evenodd;fill:#d7fffa;image-rendering:auto;shape-rendering:auto" isolation="auto" mix-blend-mode="normal" white-space="normal"/>
  <path d="m29.371 28.49-0.414 0.564 3.842 2.826 0.416-0.564-3.844-2.826z" solid-color="#000000" style="color-rendering:auto;fill-rule:evenodd;fill:#d7fffa;image-rendering:auto;shape-rendering:auto" isolation="auto" mix-blend-mode="normal" white-space="normal"/>
  <path d="m28.682 13.855-2.135 4.699 0.639 0.289 2.133-4.699-0.637-0.289z" solid-color="#000000" style="color-rendering:auto;fill-rule:evenodd;fill:#d7fffa;image-rendering:auto;shape-rendering:auto" isolation="auto" mix-blend-mode="normal" white-space="normal"/>
  <path d="m35.14 21.492-4.793 1.354 0.189 0.674 4.793-1.354-0.189-0.674z" solid-color="#000000" style="color-rendering:auto;fill-rule:evenodd;fill:#d7fffa;image-rendering:auto;shape-rendering:auto" isolation="auto" mix-blend-mode="normal" white-space="normal"/>
 </g>
</svg>
