<svg xmlns="http://www.w3.org/2000/svg" viewBox="0 0 48 48">
 <defs>
  <linearGradient id="linearGradient3764" x1="1" x2="47" gradientUnits="userSpaceOnUse" gradientTransform="matrix(0,-1,1,0,-1.5e-6,47.999998)">
   <stop style="stop-color:#32506e;stop-opacity:1"/>
   <stop offset="1" style="stop-color:#38597c;stop-opacity:1"/>
  </linearGradient>
 </defs>
 <g>
  <path d="m 36.31 5 c 5.859 4.062 9.688 10.831 9.688 18.5 c 0 12.426 -10.07 22.5 -22.5 22.5 c -7.669 0 -14.438 -3.828 -18.5 -9.688 c 1.037 1.822 2.306 3.499 3.781 4.969 c 4.085 3.712 9.514 5.969 15.469 5.969 c 12.703 0 23 -10.298 23 -23 c 0 -5.954 -2.256 -11.384 -5.969 -15.469 c -1.469 -1.475 -3.147 -2.744 -4.969 -3.781 z m 4.969 3.781 c 3.854 4.113 6.219 9.637 6.219 15.719 c 0 12.703 -10.297 23 -23 23 c -6.081 0 -11.606 -2.364 -15.719 -6.219 c 4.16 4.144 9.883 6.719 16.219 6.719 c 12.703 0 23 -10.298 23 -23 c 0 -6.335 -2.575 -12.06 -6.719 -16.219 z" style="opacity:0.05"/>
  <path d="m 41.28 8.781 c 3.712 4.085 5.969 9.514 5.969 15.469 c 0 12.703 -10.297 23 -23 23 c -5.954 0 -11.384 -2.256 -15.469 -5.969 c 4.113 3.854 9.637 6.219 15.719 6.219 c 12.703 0 23 -10.298 23 -23 c 0 -6.081 -2.364 -11.606 -6.219 -15.719 z" style="opacity:0.1"/>
  <path d="m 31.25 2.375 c 8.615 3.154 14.75 11.417 14.75 21.13 c 0 12.426 -10.07 22.5 -22.5 22.5 c -9.708 0 -17.971 -6.135 -21.12 -14.75 a 23 23 0 0 0 44.875 -7 a 23 23 0 0 0 -16 -21.875 z" style="opacity:0.2"/>
 </g>
 <g>
  <path d="m 24 1 c 12.703 0 23 10.297 23 23 c 0 12.703 -10.297 23 -23 23 -12.703 0 -23 -10.297 -23 -23 0 -12.703 10.297 -23 23 -23 z" style="fill:url(#linearGradient3764);fill-opacity:1"/>
 </g>
 <g>
  <path d="m 40.03 7.531 c 3.712 4.084 5.969 9.514 5.969 15.469 0 12.703 -10.297 23 -23 23 c -5.954 0 -11.384 -2.256 -15.469 -5.969 4.178 4.291 10.01 6.969 16.469 6.969 c 12.703 0 23 -10.298 23 -23 0 -6.462 -2.677 -12.291 -6.969 -16.469 z" style="opacity:0.1"/>
 </g>
 <path d="m 19.687 13.999 -0.002 0.002 c -0.118 0.013 -0.225 0.072 -0.298 0.166 l -6.572 8.254 c -0.081 0.105 -0.11 0.24 -0.08 0.37 l 2.344 10.29 c 0.03 0.129 0.117 0.238 0.236 0.296 l 9.493 4.579 c 0.12 0.058 0.259 0.058 0.38 0 l 9.497 -4.579 c 0.12 -0.057 0.207 -0.166 0.238 -0.296 l 2.344 -10.29 c 0.029 -0.13 -0.003 -0.266 -0.086 -0.37 l -6.572 -8.254 c -0.083 -0.104 -0.207 -0.165 -0.34 -0.166 l -10.536 0 c -0.015 0 -0.031 -0.002 -0.046 -0.002 z" mix-blend-mode="normal" isolation="auto" white-space="normal" solid-color="#000000" solid-opacity="1" style="visibility:visible;shape-rendering:auto;color-interpolation-filters:linearRGB;fill:#000;opacity:0.12;image-rendering:auto;fill-opacity:1;stroke:none;display:inline;color:#000;fill-rule:nonzero;color-rendering:auto;color-interpolation:sRGB"/>
 <g transform="translate(-1.0775722e-4,-4.999e-4)">
  <path white-space="normal" isolation="auto" mix-blend-mode="normal" d="m 18.845 13.624 -0.003 0.002 c -0.114 0.012 -0.219 0.071 -0.289 0.161 l -6.377 8.01 c -0.079 0.102 -0.108 0.234 -0.078 0.359 l 2.274 9.988 c 0.029 0.125 0.114 0.23 0.229 0.286 l 9.213 4.445 c 0.117 0.056 0.252 0.056 0.369 0 l 9.216 -4.445 c 0.116 -0.055 0.201 -0.161 0.231 -0.286 l 2.274 -9.988 c 0.028 -0.126 -0.002 -0.258 -0.083 -0.359 l -6.377 -8.01 c -0.08 -0.101 -0.202 -0.161 -0.331 -0.161 l -10.225 0 c -0.014 0 -0.029 -0.002 -0.043 -0.002 z" solid-color="#000000" solid-opacity="1" style="visibility:visible;shape-rendering:auto;color-interpolation-filters:linearRGB;fill:#95dfd3;opacity:1;image-rendering:auto;fill-opacity:1;stroke:none;display:inline;color:#000;fill-rule:nonzero;color-rendering:auto;color-interpolation:sRGB"/>
  <path white-space="normal" isolation="auto" mix-blend-mode="normal" d="m 18.707 13 c -0.134 0.013 -0.258 0.081 -0.342 0.187 l -6.534 8.204 c -0.094 0.12 -0.129 0.277 -0.093 0.425 l 2.33 10.237 c 0.033 0.149 0.132 0.275 0.269 0.342 l 9.444 4.553 c 0.137 0.067 0.298 0.067 0.435 0 l 9.444 -4.553 c 0.137 -0.067 0.236 -0.193 0.269 -0.342 l 2.33 -10.237 c 0.035 -0.149 0 -0.305 -0.093 -0.425 l -6.534 -8.204 c -0.096 -0.119 -0.241 -0.188 -0.393 -0.187 l -10.479 0 c -0.017 0 -0.035 0 -0.052 0 z m 0.29 0.996 10 0 6.234 7.831 -2.226 9.77 -9.01 4.346 -9.01 -4.346 -2.226 -9.77 z" solid-color="#000000" solid-opacity="1" style="visibility:visible;shape-rendering:auto;color-interpolation-filters:linearRGB;fill:#d7fffa;opacity:1;image-rendering:auto;fill-opacity:1;stroke:none;display:inline;color:#000;fill-rule:nonzero;color-rendering:auto;color-interpolation:sRGB"/>
  <path white-space="normal" isolation="auto" mix-blend-mode="normal" d="m 20.931 18 c -0.094 0.009 -0.18 0.056 -0.239 0.13 l -3.784 4.749 c -0.067 0.083 -0.092 0.192 -0.068 0.296 l 1.35 5.919 c 0.024 0.104 0.095 0.191 0.191 0.237 l 5.467 2.633 c 0.096 0.047 0.209 0.047 0.305 0 l 5.467 -2.633 c 0.097 -0.046 0.167 -0.133 0.191 -0.237 l 1.35 -5.919 c 0.023 -0.104 -0.002 -0.213 -0.068 -0.296 l -3.784 -4.749 c -0.067 -0.082 -0.167 -0.13 -0.273 -0.13 l -6.07 0 c -0.011 0 -0.023 0 -0.034 0 z m 0.203 0.699 5.732 0 3.575 4.482 -1.277 5.591 -5.164 2.49 -5.164 -2.49 -1.277 -5.591" solid-color="#000000" solid-opacity="1" style="visibility:visible;shape-rendering:auto;color-interpolation-filters:linearRGB;fill:#d7fffa;opacity:1;image-rendering:auto;fill-opacity:1;stroke:none;display:inline;color:#000;fill-rule:nonzero;color-rendering:auto;color-interpolation:sRGB"/>
  <path white-space="normal" isolation="auto" mix-blend-mode="normal" d="m 19.318 13.855 -0.637 0.289 2.133 4.699 0.639 -0.289 -2.135 -4.699 z" solid-color="#000000" solid-opacity="1" style="visibility:visible;shape-rendering:auto;color-interpolation-filters:linearRGB;fill:#d7fffa;opacity:1;image-rendering:auto;fill-opacity:1;stroke:none;display:inline;color:#000;fill-rule:evenodd;color-rendering:auto;color-interpolation:sRGB"/>
  <path white-space="normal" isolation="auto" mix-blend-mode="normal" d="m 12.857 21.492 -0.189 0.674 4.797 1.354 0.189 -0.674 -4.797 -1.354 z" solid-color="#000000" solid-opacity="1" style="visibility:visible;shape-rendering:auto;color-interpolation-filters:linearRGB;fill:#d7fffa;opacity:1;image-rendering:auto;fill-opacity:1;stroke:none;display:inline;color:#000;fill-rule:evenodd;color-rendering:auto;color-interpolation:sRGB"/>
  <path white-space="normal" isolation="auto" mix-blend-mode="normal" d="m 18.629 28.49 -3.848 2.826 0.414 0.564 3.848 -2.826 -0.414 -0.564 z" solid-color="#000000" solid-opacity="1" style="visibility:visible;shape-rendering:auto;color-interpolation-filters:linearRGB;fill:#d7fffa;opacity:1;image-rendering:auto;fill-opacity:1;stroke:none;display:inline;color:#000;fill-rule:evenodd;color-rendering:auto;color-interpolation:sRGB"/>
  <path white-space="normal" isolation="auto" mix-blend-mode="normal" d="m 23.65 31.26 0 4.682 0.699 0 0 -4.682 -0.699 0 z" solid-color="#000000" solid-opacity="1" style="visibility:visible;shape-rendering:auto;color-interpolation-filters:linearRGB;fill:#d7fffa;opacity:1;image-rendering:auto;fill-opacity:1;stroke:none;display:inline;color:#000;fill-rule:evenodd;color-rendering:auto;color-interpolation:sRGB"/>
  <path white-space="normal" isolation="auto" mix-blend-mode="normal" d="m 29.371 28.49 -0.414 0.564 3.842 2.826 0.416 -0.564 -3.844 -2.826 z" solid-color="#000000" solid-opacity="1" style="visibility:visible;shape-rendering:auto;color-interpolation-filters:linearRGB;fill:#d7fffa;opacity:1;image-rendering:auto;fill-opacity:1;stroke:none;display:inline;color:#000;fill-rule:evenodd;color-rendering:auto;color-interpolation:sRGB"/>
  <path white-space="normal" isolation="auto" mix-blend-mode="normal" d="m 28.682 13.855 -2.135 4.699 0.639 0.289 2.133 -4.699 -0.637 -0.289 z" solid-color="#000000" solid-opacity="1" style="visibility:visible;shape-rendering:auto;color-interpolation-filters:linearRGB;fill:#d7fffa;opacity:1;image-rendering:auto;fill-opacity:1;stroke:none;display:inline;color:#000;fill-rule:evenodd;color-rendering:auto;color-interpolation:sRGB"/>
  <path white-space="normal" isolation="auto" mix-blend-mode="normal" d="m 35.14 21.492 -4.793 1.354 0.189 0.674 4.793 -1.354 -0.189 -0.674 z" solid-color="#000000" solid-opacity="1" style="visibility:visible;shape-rendering:auto;color-interpolation-filters:linearRGB;fill:#d7fffa;opacity:1;image-rendering:auto;fill-opacity:1;stroke:none;display:inline;color:#000;fill-rule:evenodd;color-rendering:auto;color-interpolation:sRGB"/>
 </g>
</svg>
