<svg version="1.1" viewBox="0 0 48 48" xmlns="http://www.w3.org/2000/svg">
 <defs>
  <linearGradient id="linearGradient3764" x1="1" x2="47" gradientTransform="rotate(-90 24 24)" gradientUnits="userSpaceOnUse">
   <stop style="stop-color:#424242" offset="0"/>
   <stop style="stop-color:#4d4d4d" offset="1"/>
  </linearGradient>
  <linearGradient id="linearGradient4198" x2="0" y1="47" y2="1" gradientUnits="userSpaceOnUse">
   <stop style="stop-color:#d64936" offset="0"/>
   <stop style="stop-color:#d95847" offset="1"/>
  </linearGradient>
 </defs>
 <path d="m36.3 5c5.86 4.06 9.69 10.8 9.69 18.5 0 12.4-10.1 22.5-22.5 22.5-7.67 0-14.4-3.83-18.5-9.69 1.04 1.82 2.31 3.5 3.78 4.97 4.08 3.71 9.51 5.97 15.5 5.97 12.7 0 23-10.3 23-23 0-5.95-2.26-11.4-5.97-15.5-1.47-1.48-3.15-2.74-4.97-3.78zm4.97 3.78c3.85 4.11 6.22 9.64 6.22 15.7 0 12.7-10.3 23-23 23-6.08 0-11.6-2.36-15.7-6.22 4.16 4.14 9.88 6.72 16.2 6.72 12.7 0 23-10.3 23-23 0-6.34-2.58-12.1-6.72-16.2z" style="opacity:.05"/>
 <path d="m41.3 8.78c3.71 4.08 5.97 9.51 5.97 15.5 0 12.7-10.3 23-23 23-5.95 0-11.4-2.26-15.5-5.97 4.11 3.85 9.64 6.22 15.7 6.22 12.7 0 23-10.3 23-23 0-6.08-2.36-11.6-6.22-15.7z" style="opacity:.1"/>
 <path d="m31.2 2.38c8.62 3.15 14.8 11.4 14.8 21.1 0 12.4-10.1 22.5-22.5 22.5-9.71 0-18-6.14-21.1-14.8a23 23 0 0 0 44.9-7 23 23 0 0 0-16-21.9z" style="opacity:.2"/>
 <path d="m24 1c-7.57 0-14.3 3.66-18.5 9.3-1e-3 1e-3 -1e-3 3e-3 -2e-3 4e-3 -8.52 18.7 6.48 26.7 12.9 36 1.79 0.448 3.66 0.689 5.6 0.689 7.57 0 14.3-3.66 18.5-9.31 1e-3 -1e-3 1e-3 -3e-3 2e-3 -4e-3 8.51-16.7-3.48-25.7-12.9-36-1.79-0.449-3.67-0.691-5.6-0.691z" style="fill:url(#linearGradient3764)"/>
 <path d="m32.4 2.58c-5.94 0.164-11.8 2.6-16.5 8.52-4.9 6.12-1.48 14.7 2.81 17.2-2.7 0.695-4.63 2.53-4.63 4.7 0 0.689 0.195 1.35 0.549 1.94-5.11-2.83-8.62-8.9-9.11-14.7-0.385-4.48 0.702-8.94 2.79-12.9-4.44 4.19-7.22 10.1-7.22 16.7 0 12 9.18 21.8 20.9 22.9 4.44-1.01 8.68-3.5 12.3-7.99 4.93-6.16 1.44-14.8-2.88-17.2-1.99-0.921-3.59-0.25-4.7 0.803-0.203-1.49-0.409-2.98-0.607-4.46 0 0 4 0 6 1 3.22 1.61 5 5 5 5v-7s-3-2-7-3c-0.785-0.196-1.52-0.346-2.21-0.473 0.063-8e-3 0.123-0.02 0.186-0.027 8.95-0.98 15.9 7.91 16.6 16.3 0.137 1.6 0.078 3.2-0.139 4.78 1.64-3.16 2.57-6.75 2.57-10.6 0-9.75-6.07-18.1-14.6-21.4zm-8.95 12.5 1.84 9.22c-0.112 0.245-0.2 0.481-0.256 0.691 0.102-0.047 0.238-0.097 0.365-0.146l0.98 4.93c-0.941-0.796-2.22-1.38-3.68-1.64 1.27-0.807 2.1-2.2 2.35-3.14-1.25 0.574-4.58 1.26-5.31-1.19-0.525-3.84 1.02-6.94 3.72-8.72zm4.44 9.26c1.09 8e-3 2.11 0.394 2.48 1.62 0.431 3.17-0.557 5.9-2.43 7.79 0.054-0.249 0.09-0.504 0.09-0.764-0.348-2.82-0.732-5.68-1.12-8.56 0.326-0.054 0.656-0.092 0.986-0.09z" style="opacity:.1"/>
 <path d="m29.6 1.69c-5.33 0.565-10.5 3.07-14.8 8.4-4.93 6.16-1.44 14.8 2.88 17.2 3.49 1.62 5.86-1.63 6.31-3.34-1.25 0.574-4.58 1.26-5.31-1.19-0.777-5.68 2.98-9.73 8.28-10.3 8.95-0.98 15.9 7.91 16.6 16.3 0.258 3.02-0.154 6.04-1.09 8.91 2.84-3.82 4.52-8.56 4.52-13.7 0-10.8-7.4-19.8-17.4-22.3zm-24.1 8.6c-2.84 3.83-4.52 8.57-4.52 13.7 0 10.8 7.41 19.8 17.4 22.3 5.33-0.565 10.5-3.07 14.8-8.4 4.93-6.16 1.44-14.8-2.88-17.2-3.49-1.62-5.86 1.63-6.31 3.35 1.25-0.574 4.6-1.48 5.34 0.969 0.773 5.69-3.01 9.95-8.31 10.5-8.96 0.98-15.9-7.91-16.6-16.3-0.26-3.03 0.151-6.05 1.09-8.92z" style="fill:url(#linearGradient4198)"/>
 <path d="m40 7.53c3.71 4.08 5.97 9.51 5.97 15.5 0 12.7-10.3 23-23 23-5.95 0-11.4-2.26-15.5-5.97 4.18 4.29 10 6.97 16.5 6.97 12.7 0 23-10.3 23-23 0-6.46-2.68-12.3-6.97-16.5z" style="opacity:.1"/>
 <path transform="translate(13,12)" d="m13.4 8.83c-0.626 0.389-1.13 0.925-1.53 1.48l0.258 1.3c0.5-0.137 1.06-0.235 1.62-0.246-0.116-0.846-0.231-1.69-0.346-2.53zm1.44 10.8c-1.5 2.12-3.92 3.53-6.8 3.84-2.44 0.268-4.73-0.221-6.79-1.21 0.797 2.14 3.52 3.71 6.76 3.71 3.87 0 7-2.24 7-5-0.054-0.441-0.118-0.895-0.174-1.34z" style="fill-opacity:.098"/>
 <path d="m22 12 3.34 16.8c-1.28-1.09-3.2-1.78-5.34-1.78-3.87 0-7 2.24-7 5s3.13 5 7 5 7-2.24 7-5c-0.609-4.93-1.33-10-2-15 0 0 4 0 6 1 3.22 1.61 5 5 5 5v-7s-3-2-7-3-7-1-7-1z" style="fill:#52eeba"/>
</svg>
