<svg xmlns="http://www.w3.org/2000/svg" viewBox="0 0 48 48">
 <defs>
  <linearGradient id="linearGradient3764" x1="1" x2="47" gradientUnits="userSpaceOnUse" gradientTransform="matrix(0,-1,1,0,-1.5e-6,47.999998)">
   <stop style="stop-color:#3d3d3d;stop-opacity:1"/>
   <stop offset="1" style="stop-color:#474747;stop-opacity:1"/>
  </linearGradient>
  <linearGradient id="linearGradient4198" y1="47" x2="0" y2="1" gradientUnits="userSpaceOnUse">
   <stop style="stop-color:#d64936;stop-opacity:1"/>
   <stop offset="1" style="stop-color:#d95847;stop-opacity:1"/>
  </linearGradient>
 </defs>
 <g>
  <path d="m 36.31 5 c 5.859 4.062 9.688 10.831 9.688 18.5 c 0 12.426 -10.07 22.5 -22.5 22.5 c -7.669 0 -14.438 -3.828 -18.5 -9.688 c 1.037 1.822 2.306 3.499 3.781 4.969 c 4.085 3.712 9.514 5.969 15.469 5.969 c 12.703 0 23 -10.298 23 -23 c 0 -5.954 -2.256 -11.384 -5.969 -15.469 c -1.469 -1.475 -3.147 -2.744 -4.969 -3.781 z m 4.969 3.781 c 3.854 4.113 6.219 9.637 6.219 15.719 c 0 12.703 -10.297 23 -23 23 c -6.081 0 -11.606 -2.364 -15.719 -6.219 c 4.16 4.144 9.883 6.719 16.219 6.719 c 12.703 0 23 -10.298 23 -23 c 0 -6.335 -2.575 -12.06 -6.719 -16.219 z" style="opacity:0.05"/>
  <path d="m 41.28 8.781 c 3.712 4.085 5.969 9.514 5.969 15.469 c 0 12.703 -10.297 23 -23 23 c -5.954 0 -11.384 -2.256 -15.469 -5.969 c 4.113 3.854 9.637 6.219 15.719 6.219 c 12.703 0 23 -10.298 23 -23 c 0 -6.081 -2.364 -11.606 -6.219 -15.719 z" style="opacity:0.1"/>
  <path d="m 31.25 2.375 c 8.615 3.154 14.75 11.417 14.75 21.13 c 0 12.426 -10.07 22.5 -22.5 22.5 c -9.708 0 -17.971 -6.135 -21.12 -14.75 a 23 23 0 0 0 44.875 -7 a 23 23 0 0 0 -16 -21.875 z" style="opacity:0.2"/>
 </g>
 <g>
  <path d="m 24 1 c -7.568 0 -14.283 3.655 -18.475 9.297 c -0.001 0.001 -0.001 0.003 -0.002 0.004 c -8.521 18.7 6.477 26.7 12.881 36.01 c 1.792 0.448 3.665 0.689 5.596 0.689 c 7.574 0 14.292 -3.661 18.482 -9.309 c 0.001 -0.001 0.001 -0.003 0.002 -0.004 c 8.514 -16.689 -3.485 -25.688 -12.881 -35.996 c -1.794 -0.449 -3.67 -0.691 -5.604 -0.691 z" style="fill:url(#linearGradient3764);fill-opacity:1"/>
  <path d="m 32.367 2.576 c -5.939 0.164 -11.802 2.599 -16.547 8.52 c -4.904 6.123 -1.477 14.674 2.807 17.205 c -2.696 0.695 -4.627 2.534 -4.627 4.699 c 0 0.689 0.195 1.346 0.549 1.943 c -5.106 -2.826 -8.616 -8.895 -9.113 -14.723 c -0.385 -4.48 0.702 -8.943 2.787 -12.949 c -4.445 4.194 -7.223 10.134 -7.223 16.727 c 0 11.995 9.182 21.839 20.9 22.9 c 4.436 -1.01 8.684 -3.498 12.287 -7.994 c 4.93 -6.156 1.441 -14.77 -2.875 -17.25 c -1.986 -0.921 -3.591 -0.25 -4.705 0.803 c -0.203 -1.488 -0.409 -2.981 -0.607 -4.457 c 0 0 4 0 6 1 c 3.225 1.612 5 5 5 5 l 0 -7 c 0 0 -3 -2 -7 -3 c -0.785 -0.196 -1.516 -0.346 -2.209 -0.473 c 0.063 -0.008 0.123 -0.02 0.186 -0.027 c 8.953 -0.98 15.875 7.91 16.594 16.281 c 0.137 1.601 0.078 3.199 -0.139 4.775 c 1.638 -3.163 2.566 -6.751 2.566 -10.559 c 0 -9.749 -6.068 -18.08 -14.631 -21.422 z m -8.949 12.52 l 1.836 9.215 c -0.112 0.245 -0.2 0.481 -0.256 0.691 c 0.102 -0.047 0.238 -0.097 0.365 -0.146 l 0.98 4.926 c -0.941 -0.796 -2.222 -1.379 -3.684 -1.635 c 1.271 -0.807 2.101 -2.204 2.35 -3.145 c -1.254 0.574 -4.575 1.257 -5.314 -1.189 c -0.525 -3.844 1.025 -6.936 3.723 -8.717 z m 4.445 9.258 c 1.087 0.008 2.111 0.394 2.48 1.617 c 0.431 3.172 -0.557 5.899 -2.434 7.793 c 0.054 -0.249 0.09 -0.504 0.09 -0.764 c -0.348 -2.817 -0.732 -5.685 -1.123 -8.557 c 0.326 -0.054 0.656 -0.092 0.986 -0.09 z" style="fill:#000;opacity:0.1;fill-opacity:1"/>
  <path d="m 29.604 1.691 c -5.327 0.565 -10.509 3.071 -14.783 8.404 c -4.93 6.156 -1.441 14.77 2.875 17.25 c 3.488 1.617 5.86 -1.629 6.314 -3.344 c -1.254 0.574 -4.575 1.257 -5.314 -1.189 c -0.777 -5.684 2.977 -9.734 8.281 -10.313 c 8.953 -0.98 15.875 7.91 16.594 16.281 c 0.258 3.02 -0.154 6.04 -1.088 8.91 c 2.838 -3.825 4.518 -8.562 4.518 -13.691 c 0 -10.77 -7.403 -19.806 -17.396 -22.309 z m -24.08 8.605 c -2.843 3.827 -4.525 8.569 -4.525 13.703 c 0 10.772 7.407 19.811 17.404 22.311 c 5.327 -0.565 10.509 -3.071 14.783 -8.404 c 4.93 -6.156 1.441 -14.77 -2.875 -17.25 c -3.488 -1.617 -5.858 1.631 -6.313 3.346 c 1.254 -0.574 4.605 -1.477 5.344 0.969 c 0.773 5.688 -3.01 9.953 -8.313 10.531 c -8.957 0.98 -15.879 -7.91 -16.594 -16.281 c -0.26 -3.03 0.151 -6.05 1.088 -8.924 z" style="fill:url(#linearGradient4198);fill-opacity:1"/>
 </g>
 <g>
  <g>
   <g transform="translate(1,1)">
    <g style="opacity:0.1">
     <!-- color: #474747 -->
    </g>
   </g>
  </g>
 </g>
 <g>
  <g>
   <!-- color: #474747 -->
  </g>
 </g>
 <g>
  <path d="m 40.03 7.531 c 3.712 4.084 5.969 9.514 5.969 15.469 0 12.703 -10.297 23 -23 23 c -5.954 0 -11.384 -2.256 -15.469 -5.969 4.178 4.291 10.01 6.969 16.469 6.969 c 12.703 0 23 -10.298 23 -23 0 -6.462 -2.677 -12.291 -6.969 -16.469 z" style="opacity:0.1"/>
 </g>
 <path d="m 13.385,8.83 c -0.626,0.389 -1.131,0.925 -1.529,1.48 l 0.258,1.299 c 0.5,-0.137 1.06,-0.235 1.617,-0.246 C 13.615,10.517 13.5,9.674 13.385,8.83 Z m 1.441,10.832 c -1.498,2.122 -3.919,3.526 -6.795,3.84 C 5.586,23.77 3.301,23.281 1.244,22.289 2.041,24.424 4.759,26 8,26 c 3.866,0 7,-2.239 7,-5 -0.054,-0.441 -0.118,-0.895 -0.174,-1.338 z" transform="translate(13,12)" style="fill:#000;fill-opacity:0.098"/>
 <path d="m 22,12 3.344,16.781 C 24.06,27.695 22.146,27 20,27 c -3.866,0 -7,2.239 -7,5 0,2.761 3.134,5 7,5 3.866,0 7,-2.239 7,-5 -0.609,-4.929 -1.33,-10.02 -2,-15 0,0 4,0 6,1 3.225,1.612 5,5 5,5 l 0,-7 c 0,0 -3,-2 -7,-3 -4,-1 -7,-1 -7,-1 z" style="fill:#52eeba;fill-opacity:1;stroke:none;fill-rule:nonzero"/>
</svg>
