<svg xmlns="http://www.w3.org/2000/svg" viewBox="0 0 48 48">
 <defs>
  <linearGradient id="linearGradient3764" x1="1" x2="47" gradientUnits="userSpaceOnUse" gradientTransform="matrix(0,-1,1,0,-1.5e-6,47.999998)">
   <stop style="stop-color:#4486d8;stop-opacity:1"/>
   <stop offset="1" style="stop-color:#5490db;stop-opacity:1"/>
  </linearGradient>
 </defs>
 <g>
  <path d="m 36.31 5 c 5.859 4.062 9.688 10.831 9.688 18.5 c 0 12.426 -10.07 22.5 -22.5 22.5 c -7.669 0 -14.438 -3.828 -18.5 -9.688 c 1.037 1.822 2.306 3.499 3.781 4.969 c 4.085 3.712 9.514 5.969 15.469 5.969 c 12.703 0 23 -10.298 23 -23 c 0 -5.954 -2.256 -11.384 -5.969 -15.469 c -1.469 -1.475 -3.147 -2.744 -4.969 -3.781 z m 4.969 3.781 c 3.854 4.113 6.219 9.637 6.219 15.719 c 0 12.703 -10.297 23 -23 23 c -6.081 0 -11.606 -2.364 -15.719 -6.219 c 4.16 4.144 9.883 6.719 16.219 6.719 c 12.703 0 23 -10.298 23 -23 c 0 -6.335 -2.575 -12.06 -6.719 -16.219 z" style="opacity:0.05"/>
  <path d="m 41.28 8.781 c 3.712 4.085 5.969 9.514 5.969 15.469 c 0 12.703 -10.297 23 -23 23 c -5.954 0 -11.384 -2.256 -15.469 -5.969 c 4.113 3.854 9.637 6.219 15.719 6.219 c 12.703 0 23 -10.298 23 -23 c 0 -6.081 -2.364 -11.606 -6.219 -15.719 z" style="opacity:0.1"/>
  <path d="m 31.25 2.375 c 8.615 3.154 14.75 11.417 14.75 21.13 c 0 12.426 -10.07 22.5 -22.5 22.5 c -9.708 0 -17.971 -6.135 -21.12 -14.75 a 23 23 0 0 0 44.875 -7 a 23 23 0 0 0 -16 -21.875 z" style="opacity:0.2"/>
 </g>
 <g>
  <path d="m 24 1 c -2.27 0 -4.462 0.334 -6.533 0.947 c 1.534 1.053 -1.25 2.02 -3.205 1.215 c -7.833 3.667 -13.262 11.617 -13.262 20.838 c 0 7.505 3.595 14.169 9.156 18.367 c 5.844 2.633 21.844 2.633 29.684 -1.699 c 2.366 -2.249 4.253 -4.995 5.494 -8.07 c 0 -0.001 0 -0.001 0 -0.002 c 0.234 -1.595 0.667 -3.594 1.23 -4.15 l 0.002 0 c 0.282 -1.438 0.434 -2.923 0.434 -4.443 c 0 -0.118 -0.006 -0.234 -0.008 -0.352 c -0.001 0 -0.001 0 -0.002 0 c -0.992 -0.649 -0.556 -1.182 -0.154 -2.348 c -0.185 -1.577 -0.527 -3.105 -1.014 -4.568 c -1.826 -0.738 -7.823 -7.734 -11.1 -13.08 c -3.203 -1.692 -6.85 -2.654 -10.725 -2.654 z" style="fill:url(#linearGradient3764);fill-opacity:1"/>
  <path d="m 17 2.906 -0.84 0.25 -0.969 0.066 l -0.598 0.434 -0.777 -0.031 l 0.063 0.5 1.125 -0.031 0.406 1.094 0.156 0.598 -0.625 0.346 -0.25 0.465 0.188 1.063 0.75 0.125 0.719 -0.688 0.625 -0.656 0.969 -0.25 1.219 -0.594 0.721 -0.875 1.029 -1.254 0.721 -0.189 -0.031 -0.275 -1.125 0 -3.469 -0.096 z m 9.969 0.48 c -0.055 0.02 -1.531 0.023 -1.531 0.023 l -0.375 0.098 0.5 0.598 0.531 -0.5 0.344 0.219 0.5 -0.25 c 0 0 0.09 -0.211 0.031 -0.188 z m 6 0.461 -0.379 0.004 -0.465 0.063 -0.41 0.25 -0.465 0.35 -0.281 0.5 0.438 0.438 0.375 0.031 0.156 -0.254 -0.375 -0.314 0.219 -0.188 0.031 -0.152 0.469 -0.313 c 0 0 0.609 0.008 0.652 0 0.051 -0.012 0.191 -0.191 0.191 -0.191 z m 3.102 0.578 -0.264 0.176 -0.625 0.375 -0.531 0.438 0.066 0.189 -0.281 0.031 0 0.004 -4.086 0.68 -1.021 0.768 1.035 -0.781 -1.219 0.656 -0.309 -0.223 -0.156 -0.25 0.063 -0.254 0.691 0.035 0.313 -0.125 -0.625 -0.314 -0.875 -0.314 -0.875 -0.156 -0.938 0.191 -0.973 0.779 -0.441 0.439 -0.652 0.719 -0.254 0.031 -0.09 0.344 0.121 0.344 c 0 0 0.137 0.156 0.156 0.156 0.023 0 0.254 -0.125 0.254 -0.125 0 0 0.027 -0.117 0.156 -0.156 0.129 -0.039 0.25 -0.063 0.25 -0.063 l 0.188 0.375 0.219 0.313 0.102 0.25 c 0 0 0.355 -0.223 0.375 -0.25 0.012 -0.031 0.023 -0.41 0.023 -0.41 l 0.281 -0.188 c 0 0 0.074 -0.133 0.066 -0.156 -0.016 -0.02 -0.191 -0.219 -0.191 -0.219 l -0.156 -0.063 0.066 -0.316 c 0 0 0.121 -0.051 0.121 -0.094 0 -0.039 0.188 -0.189 0.188 -0.189 l 0.23 -0.275 0.146 -0.189 0.229 -0.156 0.25 0.189 0 0.125 -0.229 0.25 -0.063 0.25 0 0.344 0.188 0.156 0.354 -0.031 0.309 -0.063 0.281 0.154 l -0.066 0.221 c 0 0 -0.191 0.188 -0.254 0.219 -0.055 0.031 -0.41 -0.063 -0.496 -0.031 -0.09 0.031 -0.313 0.316 -0.313 0.316 0 0 -0.027 0.25 0 0.313 0.008 0.023 -0.004 0.071 -0.012 0.129 l -0.025 0.018 -0.375 0.279 -0.031 0 -0.254 -0.094 c 0 0 -0.156 0.008 -0.219 0.066 -0.063 0.051 -0.12 0.102 -0.313 0.121 -0.191 0.02 -0.566 0 -0.602 0 l -0.219 0 0.031 -0.227 0.154 -0.25 -0.279 -0.223 c 0 0 -0.181 0.23 -0.189 0.281 -0.008 0.055 0.125 0.279 0.125 0.279 0 0 -0.063 0.182 -0.094 0.221 -0.031 0.039 -0.313 0.125 -0.313 0.125 l -0.434 -0.221 c 0 0 -0.184 -0.038 -0.156 0.064 0.023 0.102 0.219 0.195 0.219 0.281 0 0.082 -0.125 0.275 -0.125 0.275 l -0.156 0.189 -0.25 0.254 -0.344 0.09 c 0 0 -0.245 0.07 -0.313 0.094 -0.063 0.023 -0.25 0.066 -0.25 0.066 l -0.254 0.031 -0.156 0.223 0.281 0.191 0.188 0.309 c 0 0 0.125 0.223 0.156 0.223 0.031 0 0.094 0.219 0.094 0.219 l -0.188 0.25 -0.1 0 -0.654 0.125 -0.121 -0.281 -0.439 0.438 -0.188 0.721 0 0.598 0.75 0.406 0.598 -0.221 0.594 -1.064 0.531 -0.652 0.969 -0.156 0.221 -0.188 1.084 1.27 c -0.256 0.072 -0.492 0.17 -0.68 0.313 0.019 0.012 0.043 0.023 0.07 0.039 l 0.309 0.182 -0.07 0.025 0.313 0.531 0.281 -0.221 -0.08 -0.074 2.648 1.563 -0.938 -0.17 -0.25 -0.316 -0.313 0.281 -0.252 0.344 c -0.021 -0.376 -0.201 -0.737 -0.545 -0.939 l -0.492 -0.293 c -0.254 -0.148 -0.539 -0.176 -0.805 -0.117 l 0 -0.494 -0.566 0.031 -0.031 0.313 -1.375 -0.063 -0.434 0.402 -0.844 0.031 -0.563 0.5 -0.344 0.969 -0.875 0.691 -0.625 0.844 -0.031 1.625 -0.189 0.5 -0.064 0.598 0.379 0.652 0.219 0.625 0.49 0.592 -2.01 3.563 c -0.313 0.555 -0.125 1.262 0.414 1.578 l 0.496 0.293 c 0.539 0.32 1.23 0.129 1.547 -0.422 l 2.688 -4.76 0.068 -0.031 0.381 0.047 -2.793 4.943 c -0.313 0.555 -0.125 1.262 0.414 1.582 l 0.496 0.289 c 0.539 0.32 1.234 0.133 1.547 -0.422 l 1.947 -3.449 0.012 0.014 0.094 0.6 -1.717 3.039 c -0.313 0.551 -0.125 1.258 0.414 1.578 l 0.496 0.293 c 0.403 0.236 0.894 0.189 1.246 -0.08 l 0.064 0.254 0.031 0.471 0.563 0.75 0.066 0.594 0.09 0.688 0.344 -0.344 0.875 -0.09 0.531 0 0.969 -1.5 0.064 -0.594 0.656 -0.656 0.029 -0.75 0.346 -0.754 0.813 -0.777 0 -0.875 -0.188 -0.813 -0.125 -1.125 0.598 -0.939 1.063 -1.313 0.406 -0.406 0.156 -0.531 0.25 -0.469 0.066 -0.691 -0.6 0 -0.275 0.281 -0.566 -0.156 -0.32 -0.523 0.291 -0.516 0.506 0.512 0.531 -0.5 0.594 -0.156 0.441 -0.531 0.594 -0.344 0.346 -0.594 0.033 -0.5 -0.279 -0.316 -0.375 -0.438 -0.254 0.154 -0.156 0.254 -0.406 -0.188 -0.125 -0.313 -0.277 -0.41 -0.438 -0.406 0 -0.813 0.281 0.531 0.344 0.535 0.594 0.344 0.406 -0.094 0.254 0.281 1.781 -0.035 -0.031 0.035 0.566 0.5 0.404 0.563 0.121 0.277 0.281 0 0.094 -0.311 0.09 0.467 0.156 0.844 0.344 0.813 0.191 0.688 0.281 0.656 0.219 0.277 0.313 -0.188 0.092 -0.314 0.125 -0.775 -0.031 -0.689 0.25 -0.316 c 0 0 0.266 -0.359 0.313 -0.375 0.047 -0.012 0.625 -0.65 0.625 -0.65 l 0.277 -0.35 0.313 -0.188 0.375 -0.219 0.156 0 0.066 0.344 0.156 0.406 0.5 0.652 0 0.25 0.09 0.281 0.344 -0.156 -0.031 -0.375 0.316 0.066 0.063 0.344 -0.031 0.531 0.094 0.375 0.277 0.064 0.094 -0.314 0.344 0.219 0.064 0.316 0.313 0.469 0.316 0.344 0.219 0.191 0.531 -0.469 0.219 -0.441 -0.09 -0.5 -0.1 -0.656 -0.594 -0.563 -0.094 -0.566 0.254 -0.398 c 0 0 0.156 -0.32 0.309 -0.156 0.152 0.168 0.227 0.188 0.156 0.375 -0.063 0.184 -0.188 0.598 -0.188 0.598 l 0.375 0.156 0.156 -0.531 -0.156 -0.379 0.289 -0.121 c -1.535 -5.723 -5.22 -10.563 -10.139 -13.604 m -24.855 0.453 c -0.177 0.119 -0.35 0.242 -0.523 0.365 l 0.152 0.336 0.563 -0.064 0.254 0.469 -0.5 0.531 -0.563 0.063 0.5 0.223 0.531 0.465 0.531 0.125 0.188 -0.719 0.031 -0.438 0.625 0.094 c 0 0 -0.188 0.313 -0.094 0.313 0.098 0 0.469 -0.406 0.469 -0.406 l -1.063 -1.098 c 0 0 -0.438 -0.344 -0.566 -0.25 -0.125 0.09 -0.465 0.063 -0.465 0.063 z m 22.23 0.082 c 0 0 0.156 0.664 0.156 0.75 0 0.082 -0.434 0.025 -0.434 0.025 l -0.754 0.035 c 0 0 -1.082 0.25 -1.219 0.25 -0.129 0 -0.762 0.262 -0.809 0.281 l -0.027 0.004 -0.004 0.006 4.09 -0.695 -0.027 -0.156 -0.316 -0.438 z m -22.918 0.711 -0.438 0.5 -0.281 -0.271 c -0.42 0.33 -0.831 0.67 -1.227 1.027 0.363 0.099 0.803 0.274 0.883 0.217 0.129 -0.094 0.625 -0.875 0.625 -0.875 z m 9.1 0.727 -0.125 0.406 c 0.453 0.348 0.625 0.344 0.625 0.344 l 0.531 -0.125 0.344 -0.344 -0.219 -0.281 z m -8.865 0.773 c 0 0 -0.44 0.25 -0.854 0.406 -0.414 0.156 -0.313 0.469 -0.313 0.469 l -0.031 0.844 -0.688 0.563 -0.438 0.656 c 0 0 -0.277 -0.188 -0.277 -0.313 0 -0.125 -0.066 -0.469 -0.066 -0.469 l -0.719 -0.563 c 0 0 -0.183 -0.141 -0.354 -0.287 c -2.082 2.275 -3.709 4.972 -4.746 7.945 l 0.533 -0.371 0.563 -0.191 0.813 0 1.125 -0.25 0.41 0.531 -0.066 0.625 0.475 0.406 0.063 -0.441 c 0 0 -0.027 -0.719 -0.09 -0.906 -0.066 -0.188 0.563 -0.625 0.563 -0.625 l 0.5 -0.613 0.598 -0.727 0.277 -0.563 0.941 -0.496 0.625 -0.691 c 0 0 0.934 -0.148 1.125 -0.254 0.188 -0.09 0.063 -0.434 -0.125 -0.75 -0.191 -0.313 0.09 -0.625 0.09 -0.625 l 0.719 -0.434 0.625 0.121 0.063 0.754 c 0 0 0.59 0.563 0.781 0.465 0.191 -0.09 0.281 -0.406 0.281 -0.406 l -0.313 -0.813 0.188 -0.811 -0.844 0.121 0 -1.375 -0.25 0.254 -0.656 0.031 -0.094 -0.688 z m 11.646 1.01 -0.25 0.219 c -0.074 0.305 -0.156 0.621 -0.156 0.621 l 0.465 0.223 0.066 0.277 -0.254 0.254 -0.219 0.375 0.156 0.156 0.563 -0.094 0.5 -0.219 -0.281 -0.375 -0.09 -0.656 -0.344 -0.375 z m -0.781 1.184 -0.277 0.469 0.375 0.156 0.156 -0.281 z m -15.445 1.092 l 0.008 0.006 0.656 0.277 0.438 0.566 0.277 0.434 c 0 0 -0.245 0.844 -0.313 1 -0.063 0.156 -0.25 -0.313 -0.25 -0.313 l -0.156 -0.814 -0.531 0.225 -0.406 0.965 l 0.09 -0.811 l 0.125 -0.564 -0.656 -0.25 0.566 -0.531 z m 26.387 0.756 c 0.133 -0.043 0.375 0.154 0.375 0.154 l -0.254 0.221 0.094 0.313 0.281 0.75 0.277 0.469 0.375 0.594 -0.406 0.191 -0.531 -0.344 -0.219 -0.656 c 0 0 -0.3 -0.406 -0.438 -0.469 -0.133 -0.066 -0.25 -0.281 -0.25 -0.281 l 0.125 -0.531 c 0 0 0.425 -0.359 0.563 -0.406 z m -3.965 0.074 0.566 0.096 0.094 0.313 0.219 0.156 0.25 -0.219 -0.156 -0.346 0.656 0 -0.219 0.375 0.434 0.375 0.379 0.189 0.221 0.438 -0.5 0.121 -0.721 -0.156 -0.625 0 -0.594 0.316 -0.125 0.188 -0.408 0.088 c -0.226 -0.062 -0.446 -0.11 -0.662 -0.145 l 0.035 -0.131 0.189 -0.219 0.439 0.156 0.152 0.063 -0.031 -0.5 0.254 -0.469 z m -3.061 0.283 0.75 0.75 0.375 0.441 0 0.246 c -0.319 0.197 -0.347 -0.153 -0.498 -0.219 l -1.066 -1 0.094 -0.188 z m -0.881 0.83 -0.375 0.719 0.277 0.281 0.254 -0.223 0.031 -0.309 z m -1.25 0.75 0 0.188 0.154 -0.031 z m 6.441 3.105 0.168 0.102 0.199 0.414 0.422 0.791 c -0.172 0.022 -0.336 0.076 -0.482 0.174 l -0.127 -0.246 -0.41 -0.719 -0.09 -0.469 z m -27.744 0.664 c -0.268 0.829 -0.492 1.679 -0.666 2.547 l 0.436 0.242 0.496 -0.066 0.727 0.344 1.094 0.598 0.156 0.725 0.875 0.84 0.5 -0.375 0.402 0.316 -0.063 -0.725 -0.781 0.191 -0.25 -0.906 -0.094 -0.41 -0.688 -0.621 0 -0.438 0.525 -0.566 -0.344 -0.4 -0.563 0.09 -0.844 0.844 -0.688 -0.09 c 0 0 -0.313 -0.531 -0.375 -0.656 -0.063 -0.125 0.188 -0.563 0.188 -0.563 z m 3.336 0.885 -0.004 0.004 -0.313 0.156 0.531 0.279 0.594 0.121 0.344 0.469 0.41 -0.25 -0.066 -0.279 -0.688 -0.5 z m 1.68 3.094 0.004 0.004 -0.813 0.441 -0.094 0.9 -0.191 1 -0.563 0.75 0.031 1.125 0.469 1.156 0.5 1.406 1.309 1.313 0.066 0.75 0.09 3.385 0.469 1.9 c 0 0 0.289 1.103 0.219 1.189 -0.063 0.09 0.375 0.91 0.375 0.91 l 0.883 1.375 1.219 0.525 -0.5 -0.598 -0.254 -0.688 0.254 -0.719 -0.656 -0.344 c 0 0 0.434 -0.285 0.5 -0.375 0.066 -0.09 -0.094 -0.469 -0.094 -0.469 l -0.191 -0.467 0.5 -0.654 0.781 -0.189 0.121 -0.598 -0.465 -0.219 0.188 -0.5 0.75 -0.094 0.656 -1.598 0.465 -1.094 0.971 -0.471 c 0 0 0.314 -0.928 0.314 -1.064 0 -0.129 0.094 -1.531 0.094 -1.531 l 0.75 -1.023 0.092 -0.691 -0.564 -0.344 -0.469 -0.566 -0.844 0.066 -1.344 -0.781 -0.281 -0.656 c 0 0 -0.473 -0.813 -0.563 -0.813 -0.09 0 -0.656 0.035 -0.656 0.035 l -0.531 -0.531 -0.344 -0.656 -1.344 -0.281 -0.434 -0.219 z m 36.434 0.492 c 0.113 0.129 0.816 2.219 0.906 2.219 0.09 0 0.625 0.066 0.625 0.066 l -0.281 -0.844 z m -3.594 0.066 -0.314 0.406 0.156 0.598 0.34 -0.375 -0.063 -0.473 z m 3.498 1.156 -0.438 0.066 2 3 0.531 0.594 1.309 0.064 0.01 0.004 c 0.01 -0.102 0.016 -0.205 0.025 -0.307 l -0.098 -0.068 -1.25 -0.346 -0.313 -1.154 -0.688 -0.564 -1.094 -1.281 z m 3.498 0.166 -0.377 0.209 c 0 0.094 -0.719 0.691 -0.719 0.691 l 0.188 0.625 0.406 0.465 0.281 0.688 0.215 -0.139 c 0.025 -0.436 0.039 -0.874 0.039 -1.316 c 0 -0.41 -0.012 -0.818 -0.033 -1.223 z m -29.674 4.391 -0.238 9.832 8.227 -5.125 m 7.688 -4.389 0 0.439 c -0.023 0.066 -0.406 0.375 -0.406 0.375 l -0.469 0.219 -0.346 0.281 0.25 0.344 0.156 0.156 -0.406 0.344 0 0.563 0.156 0.594 0.344 0.094 0.406 -0.625 0.254 -0.406 -0.064 -0.5 0.375 -0.594 0.125 -0.281 0 -0.563 -0.096 -0.438 z m -20.479 9.473 -0.219 0.152 -0.09 0.031 0.5 0.25 z m -0.848 0.184 0.002 0.004 0.002 -0.004 z m 0.002 0.004 -0.217 0.496 0.434 -0.094 z m 1.498 4.121 -0.465 0.719 c -1.528 0.364 2.26 2.945 0.969 -0.096 0 -0.176 -0.5 -0.621 -0.5 -0.621 z" style="fill:#000;fill-opacity:0.098"/>
  <path d="m 17.467 1.947 c -1.176 0.348 -2.315 0.782 -3.404 1.305 l 0.348 0.936 l 0.156 0.598 l -0.625 0.346 l -0.25 0.465 l 0.188 1.063 l 0.75 0.125 l 0.719 -0.688 l 0.625 -0.656 l 0.969 -0.25 l 1.219 -0.594 l 0.721 -0.875 l 1.029 -1.254 l 0.721 -0.189 l -0.031 -0.275 l -1.125 0 l -2.01 -0.055 z m 8.502 0.439 c -0.055 0.02 -1.531 0.023 -1.531 0.023 l -0.375 0.098 l 0.5 0.598 l 0.531 -0.5 l 0.344 0.219 l 0.5 -0.25 c 0 0 0.09 -0.211 0.031 -0.188 z m 6 0.461 l -0.379 0.004 l -0.465 0.063 l -0.41 0.25 l -0.465 0.35 l -0.281 0.5 l 0.438 0.438 l 0.375 0.031 l 0.156 -0.254 l -0.375 -0.314 l 0.219 -0.188 l 0.031 -0.152 l 0.469 -0.313 c 0 0 0.609 0.008 0.652 0 c 0.051 -0.012 0.191 -0.191 0.191 -0.191 l -0.156 -0.223 z m 2.752 0.805 l -0.539 0.324 l -0.531 0.438 l 0.066 0.189 l -0.281 0.031 l 0 0.004 l -4.086 0.68 l -1.021 0.768 l 1.035 -0.781 l -1.219 0.656 l -0.309 -0.223 l -0.156 -0.25 l 0.063 -0.254 l 0.691 0.035 l 0.313 -0.125 l -0.625 -0.314 l -0.875 -0.314 l -0.875 -0.156 l -0.938 0.191 l -0.973 0.779 l -0.441 0.439 l -0.652 0.719 l -0.254 0.031 l -0.09 0.344 l 0.121 0.344 c 0 0 0.137 0.156 0.156 0.156 c 0.023 0 0.254 -0.125 0.254 -0.125 c 0 0 0.027 -0.117 0.156 -0.156 c 0.129 -0.039 0.25 -0.063 0.25 -0.063 l 0.188 0.375 l 0.219 0.313 l 0.102 0.25 c 0 0 0.355 -0.223 0.375 -0.25 c 0.012 -0.031 0.023 -0.41 0.023 -0.41 l 0.281 -0.188 c 0 0 0.074 -0.133 0.066 -0.156 c -0.016 -0.02 -0.191 -0.219 -0.191 -0.219 l -0.156 -0.063 l 0.066 -0.316 c 0 0 0.121 -0.051 0.121 -0.094 c 0 -0.039 0.188 -0.189 0.188 -0.189 l 0.23 -0.275 l 0.146 -0.189 l 0.229 -0.156 l 0.25 0.189 l 0 0.125 l -0.229 0.25 l -0.063 0.25 l 0 0.344 l 0.188 0.156 l 0.354 -0.031 l 0.309 -0.063 l 0.281 0.154 l -0.066 0.221 c 0 0 -0.191 0.188 -0.254 0.219 c -0.055 0.031 -0.41 -0.063 -0.496 -0.031 c -0.09 0.031 -0.313 0.316 -0.313 0.316 c 0 0 -0.027 0.249 0 0.313 c 0.008 0.023 -0.004 0.071 -0.012 0.129 l -0.025 0.018 l -0.375 0.279 l -0.031 0 l -0.254 -0.094 c 0 0 -0.156 0.008 -0.219 0.066 c -0.063 0.051 -0.12 0.102 -0.313 0.121 c -0.191 0.02 -0.566 0 -0.602 0 l -0.219 0 l 0.031 -0.227 l 0.154 -0.25 l -0.279 -0.223 c 0 0 -0.181 0.23 -0.189 0.281 c -0.008 0.055 0.125 0.279 0.125 0.279 c 0 0 -0.063 0.182 -0.094 0.221 c -0.031 0.039 -0.313 0.125 -0.313 0.125 l -0.434 -0.221 c 0 0 -0.184 -0.038 -0.156 0.064 c 0.023 0.102 0.219 0.195 0.219 0.281 c 0 0.082 -0.125 0.275 -0.125 0.275 l -0.156 0.189 l -0.25 0.254 l -0.344 0.09 c 0 0 -0.245 0.07 -0.313 0.094 c -0.063 0.023 -0.25 0.066 -0.25 0.066 l -0.254 0.031 l -0.156 0.223 l 0.281 0.191 l 0.188 0.309 c 0 0 0.125 0.223 0.156 0.223 c 0.031 0 0.094 0.219 0.094 0.219 l -0.188 0.25 l -0.1 0 l -0.654 0.125 l -0.121 -0.281 l -0.439 0.438 l -0.188 0.721 l 0 0.598 l 0.75 0.406 l 0.598 -0.221 l 0.594 -1.064 l 0.531 -0.652 l 0.969 -0.156 l 0.221 -0.188 l 1.094 1.281 l 0.125 0.438 l 0.313 -0.156 l -0.094 -0.375 l 0.188 0 l -0.121 -0.254 l -1.066 -1 l 0.094 -0.188 l 0.346 -0.031 l 0.75 0.75 l 0.375 0.441 l 0 0.688 l 0.189 0.125 l 0.375 0.375 l 0.277 -0.094 l -0.156 -0.566 l 0.094 -0.344 l 0.189 -0.219 l 0.439 0.156 l 0.152 0.063 l -0.031 -0.5 l 0.254 -0.469 l 0.152 -0.689 l 0.566 0.096 l 0.094 0.313 l 0.219 0.156 l 0.25 -0.219 l -0.156 -0.346 l 0.656 0 l -0.219 0.375 l 0.434 0.375 l 0.379 0.189 l 0.221 0.438 l -0.5 0.121 l -0.721 -0.156 l -0.625 0 l -0.594 0.316 l -0.125 0.188 l -0.438 0.094 l 0.188 0.469 l 0.344 0.406 l 0.625 -0.219 l 0.156 0.277 l 0.281 -0.219 l 0.375 0.063 l 0.031 0.41 l -0.125 0.777 l -0.344 -0.031 l -0.406 -0.063 l -0.191 0.465 l -1.375 -0.25 l -0.25 -0.316 l -0.313 0.281 l -0.344 0.469 l -0.875 -0.5 l -0.875 -0.527 l 0 -0.941 l -0.566 0.031 l -0.031 0.313 l -1.375 -0.063 l -0.434 0.402 l -0.844 0.031 l -0.563 0.5 l -0.344 0.969 l -0.875 0.691 l -0.625 0.844 l -0.031 1.625 l -0.189 0.5 l -0.064 0.598 l 0.379 0.652 l 0.219 0.625 l 0.75 0.906 l 0.438 0.375 l 0.434 0.094 l 0.098 -0.375 l 1.564 0 l 0.406 -0.188 l 0.5 0.063 l 0.154 0.313 l 0.527 0.031 l 0.348 0.25 l 0 0.531 l -0.125 0.438 l -0.125 0.344 l 0.314 0.566 l 0.41 0.469 l 0.188 1.188 l 0.031 0.777 l -0.281 0.656 l -0.027 0.625 l 0.219 1.156 l 0.188 0.188 l 0.281 1.094 l 0.031 0.471 l 0.563 0.75 l 0.066 0.594 l 0.09 0.688 l 0.344 -0.344 l 0.875 -0.09 l 0.531 0 l 0.969 -1.5 l 0.064 -0.594 l 0.656 -0.656 l 0.029 -0.75 l 0.346 -0.754 l 0.813 -0.777 l 0 -0.875 l -0.188 -0.813 l -0.125 -1.125 l 0.598 -0.939 l 1.063 -1.313 l 0.406 -0.406 l 0.156 -0.531 l 0.25 -0.469 l 0.066 -0.691 l -0.6 0 l -0.275 0.281 l -0.566 -0.156 l -0.344 -0.563 l -0.277 -0.563 l -0.656 -0.5 l -0.156 -0.813 l -0.281 -0.475 l -0.309 -0.594 l -0.41 -0.719 l -0.09 -0.469 l 0.434 -0.063 l 0.254 0.531 l 0.5 0.938 l 0.375 0.688 l 0.406 0.75 l 0.438 0.723 l 0.594 0.6 l 0.531 -0.5 l 0.594 -0.156 l 0.441 -0.531 l 0.594 -0.344 l 0.346 -0.594 l 0.033 -0.5 l -0.279 -0.316 l -0.375 -0.438 l -0.254 0.154 l -0.156 0.254 l -0.406 -0.188 l -0.125 -0.313 l -0.277 -0.41 l -0.438 -0.406 l 0 -0.813 l 0.281 0.531 l 0.344 0.535 l 0.594 0.344 l 0.406 -0.094 l 0.254 0.281 l 1.781 -0.035 l -0.031 0.035 l 0.566 0.5 l 0.404 0.563 l 0.121 0.277 l 0.281 0 l 0.094 -0.311 l 0.09 0.467 l 0.156 0.844 l 0.344 0.813 l 0.191 0.688 l 0.281 0.656 l 0.219 0.277 l 0.313 -0.188 l 0.092 -0.314 l 0.125 -0.775 l -0.031 -0.689 l 0.25 -0.316 c 0 0 0.266 -0.359 0.313 -0.375 c 0.047 -0.012 0.625 -0.65 0.625 -0.65 l 0.277 -0.35 l 0.313 -0.188 l 0.375 -0.219 l 0.156 0 l 0.066 0.344 l 0.156 0.406 l 0.5 0.652 l 0 0.25 l 0.09 0.281 l 0.344 -0.156 l -0.031 -0.375 l 0.316 0.066 l 0.063 0.344 l -0.031 0.531 l 0.094 0.375 l 0.277 0.064 l 0.094 -0.314 l 0.344 0.219 l 0.064 0.316 l 0.313 0.469 l 0.316 0.344 l 0.219 0.191 l 0.531 -0.469 l 0.219 -0.441 l -0.09 -0.5 l -0.1 -0.656 l -0.594 -0.563 l -0.094 -0.566 l 0.254 -0.398 c 0 0 0.156 -0.32 0.309 -0.156 c 0.152 0.168 0.227 0.188 0.156 0.375 c -0.063 0.184 -0.188 0.598 -0.188 0.598 l 0.375 0.156 l 0.156 -0.531 l -0.156 -0.379 l 0.375 -0.156 l 0.523 -0.262 c -1.883 -5.656 -5.899 -10.334 -11.1 -13.08 z m -2.271 0.309 c 0 0 0.156 0.664 0.156 0.75 c 0 0.082 -0.434 0.025 -0.434 0.025 l -0.754 0.035 c 0 0 -1.082 0.25 -1.219 0.25 c -0.129 0 -0.762 0.262 -0.809 0.281 l -0.027 0.004 l -0.004 0.006 l 4.09 -0.695 l -0.027 -0.156 l -0.316 -0.438 l -0.656 -0.063 z m -20.729 0.594 c -0.593 0.375 -1.17 0.775 -1.725 1.201 l 0.102 0.045 l 0.531 0.465 l 0.531 0.125 l 0.188 -0.719 l 0.031 -0.438 l 0.625 0.094 c 0 0 -0.188 0.313 -0.094 0.313 c 0.098 0 0.469 -0.406 0.469 -0.406 l -0.658 -0.68 z m 6.908 0.844 l -0.125 0.406 c 0.453 0.348 0.625 0.344 0.625 0.344 l 0.531 -0.125 l 0.344 -0.344 l -0.219 -0.281 l -1.156 0 z m -8.865 0.773 c 0 0 -0.336 0.181 -0.689 0.332 c -0.159 0.136 -0.319 0.272 -0.475 0.412 c -0.004 0.062 -0.002 0.131 -0.002 0.131 l -0.031 0.844 l -0.688 0.563 l -0.438 0.656 c 0 0 -0.277 -0.188 -0.277 -0.313 c 0 -0.108 -0.043 -0.332 -0.057 -0.404 c -0.421 0.455 -0.822 0.928 -1.205 1.416 l 0.383 0.496 l 0.277 0.434 c 0 0 -0.245 0.844 -0.313 1 c -0.063 0.156 -0.25 -0.313 -0.25 -0.313 l -0.156 -0.814 l -0.531 0.225 l -0.406 0.965 l 0.084 -0.754 c -0.816 1.195 -1.521 2.472 -2.104 3.814 l 0.301 0 l 1.125 -0.25 l 0.41 0.531 l -0.066 0.625 l 0.475 0.406 l 0.063 -0.441 c 0 0 -0.027 -0.719 -0.09 -0.906 c -0.066 -0.188 0.563 -0.625 0.563 -0.625 l 0.5 -0.613 l 0.598 -0.727 l 0.277 -0.563 l 0.941 -0.496 l 0.625 -0.691 c 0 0 0.934 -0.148 1.125 -0.254 c 0.188 -0.09 0.063 -0.434 -0.125 -0.75 c -0.191 -0.313 0.09 -0.625 0.09 -0.625 l 0.719 -0.434 l 0.625 0.121 l 0.063 0.754 c 0 0 0.59 0.563 0.781 0.465 c 0.191 -0.09 0.281 -0.406 0.281 -0.406 l -0.313 -0.813 l 0.188 -0.811 l -0.844 0.121 l 0 -1.375 l -0.25 0.254 l -0.656 0.031 l -0.094 -0.688 l -0.434 -0.531 z m 11.646 1.01 l -0.25 0.219 c -0.074 0.305 -0.156 0.621 -0.156 0.621 l 0.465 0.223 l 0.066 0.277 l -0.254 0.254 l -0.219 0.375 l 0.156 0.156 l 0.563 -0.094 l 0.5 -0.219 l -0.281 -0.375 l -0.09 -0.656 l -0.344 -0.375 l -0.156 -0.406 z m -0.781 1.184 l -0.277 0.469 l 0.375 0.156 l 0.156 -0.281 l -0.254 -0.344 z m 10.941 1.848 c 0.133 -0.043 0.375 0.154 0.375 0.154 l -0.254 0.221 l 0.094 0.313 l 0.281 0.75 l 0.277 0.469 l 0.375 0.594 l -0.406 0.191 l -0.531 -0.344 l -0.219 -0.656 c 0 0 -0.3 -0.406 -0.438 -0.469 c -0.133 -0.066 -0.25 -0.281 -0.25 -0.281 l 0.125 -0.531 c 0 0 0.425 -0.359 0.563 -0.406 l 0.008 -0.004 z m -7.906 1.188 l -0.375 0.719 l 0.277 0.281 l 0.254 -0.223 l 0.031 -0.309 l -0.188 -0.469 z m -1.25 0.75 l 0 0.188 l 0.154 -0.031 l -0.154 -0.156 z m 2.154 0.469 l -0.188 0.064 l 0.313 0.531 l 0.281 -0.221 l -0.406 -0.375 z m -20.12 4.186 l -0.004 0.004 l -0.313 0.156 l 0.531 0.279 l 0.594 0.121 l 0.344 0.469 l 0.41 -0.25 l -0.066 -0.279 l -0.688 -0.5 l -0.809 0 z m -1.01 0.41 l -0.563 0.09 l -0.844 0.844 l -0.271 -0.035 c -0.056 0.211 -0.105 0.424 -0.154 0.637 l 0.498 0.236 l 1.094 0.598 l 0.156 0.725 l 0.875 0.84 l 0.5 -0.375 l 0.402 0.316 l -0.063 -0.725 l -0.781 0.191 l -0.25 -0.906 l -0.094 -0.41 l -0.688 -0.621 l 0 -0.438 l 0.525 -0.566 l -0.344 -0.4 z m 2.689 2.684 l 0.004 0.004 l -0.813 0.441 l -0.094 0.9 l -0.191 1 l -0.563 0.75 l 0.031 1.125 l 0.469 1.156 l 0.5 1.406 l 1.309 1.313 l 0.066 0.75 l 0.09 3.385 l 0.469 1.9 c 0 0 0.289 1.103 0.219 1.189 c -0.063 0.09 0.375 0.91 0.375 0.91 l 0.883 1.375 l 1.219 0.525 l -0.5 -0.598 l -0.254 -0.688 l 0.254 -0.719 l -0.656 -0.344 c 0 0 0.434 -0.285 0.5 -0.375 c 0.066 -0.09 -0.094 -0.469 -0.094 -0.469 l -0.191 -0.467 l 0.5 -0.654 l 0.781 -0.189 l 0.121 -0.598 l -0.465 -0.219 l 0.188 -0.5 l 0.75 -0.094 l 0.656 -1.598 l 0.465 -1.094 l 0.971 -0.471 c 0 0 0.314 -0.928 0.314 -1.064 c 0 -0.129 0.094 -1.531 0.094 -1.531 l 0.75 -1.023 l 0.092 -0.691 l -0.564 -0.344 l -0.469 -0.566 l -0.844 0.066 l -1.344 -0.781 l -0.281 -0.656 c 0 0 -0.473 -0.813 -0.563 -0.813 c -0.09 0 -0.656 0.035 -0.656 0.035 l -0.531 -0.531 l -0.344 -0.656 l -1.344 -0.281 l -0.434 -0.219 l -0.875 0 z m 36.434 0.492 c 0.113 0.129 0.816 2.219 0.906 2.219 c 0.09 0 0.625 0.066 0.625 0.066 l -0.281 -0.844 l -1.25 -1.441 z m -3.594 0.066 l -0.314 0.406 l 0.156 0.598 l 0.34 -0.375 l -0.063 -0.473 l -0.119 -0.156 z m 7.865 0.842 l -1.246 0.689 c 0 0.094 -0.719 0.691 -0.719 0.691 l 0.188 0.625 l 0.406 0.465 l 0.281 0.688 l 1.246 -0.809 c -0.012 -0.794 -0.066 -1.577 -0.156 -2.35 z m -4.367 0.314 l -0.438 0.066 l 2 3 l 0.531 0.594 l 1.309 0.064 l 0.813 0.254 l -0.875 -0.625 l -1.25 -0.346 l -0.313 -1.154 l -0.688 -0.564 l -1.094 -1.281 l 0.004 -0.008 z m -10.5 4.875 l 0 0.439 c -0.023 0.066 -0.406 0.375 -0.406 0.375 l -0.469 0.219 l -0.346 0.281 l 0.25 0.344 l 0.156 0.156 l -0.406 0.344 l 0 0.563 l 0.156 0.594 l 0.344 0.094 l 0.406 -0.625 l 0.254 -0.406 l -0.064 -0.5 l 0.375 -0.594 l 0.125 -0.281 l 0 -0.563 l -0.096 -0.438 l -0.279 -0.002 z m 14.598 1.957 c -0.111 0.029 -0.19 0.057 -0.197 0.08 c -0.02 0.086 -0.563 0.375 -0.563 0.375 c -0.113 0 -0.469 0.656 -0.469 0.656 l -0.066 2.063 l -0.125 0.75 l 0.184 0.236 c 0.537 -1.33 0.954 -2.721 1.236 -4.16 z m -35.08 7.516 l -0.219 0.152 l -0.09 0.031 l 0.5 0.25 l -0.191 -0.434 z m -0.848 0.184 l 0.002 0.004 l 0.002 -0.004 l -0.004 0 z m 0.002 0.004 l -0.217 0.496 l 0.434 -0.094 l -0.217 -0.402 z m 1.498 4.121 l -0.465 0.719 l -0.875 0.406 l 0.5 0.625 l -0.754 0.375 l -0.385 -0.02 c 3.85 2.904 8.641 4.627 13.836 4.627 c 6.139 0 11.711 -2.409 15.836 -6.328 l -2.639 0.1 l -3.059 0.621 c 0 0 -1.48 0.793 -1.656 0.754 c -0.18 -0.043 0.625 -1.031 0.625 -1.031 l -1.438 0.09 l -0.906 -0.75 l -0.906 0.621 c 0 0 -1.215 0.096 -1.527 0.096 c -0.316 0 -0.723 0.563 -0.723 0.563 l -2.469 -0.09 l -4.25 0.188 l -1.125 0.965 l -0.277 0.035 l -3.219 -0.223 l -2.219 0.223 l -0.777 -0.379 l 0.031 -0.063 c 0 0 -0.656 -1.32 -0.656 -1.5 c 0 -0.176 -0.5 -0.621 -0.5 -0.621 l -0.004 -0.002 z" style="fill:#1ad65c;fill-opacity:1"/>
 </g>
 <g>
  <g>
   <g transform="translate(1,1)">
    <g style="opacity:0.1">
     <!-- color: #5490db -->
    </g>
   </g>
  </g>
 </g>
 <g>
  <g>
   <!-- color: #5490db -->
   <g>
    <path d="m 29.01 13.04 c 1.922 1.133 3.117 2.816 2.977 4.059 l -7.84 -4.625 c -0.027 -0.016 -0.051 -0.027 -0.07 -0.039 c 0.98 -0.746 3.01 -0.527 4.938 0.605 m -0.004 0" style="fill:#f9f9f9;fill-opacity:1;stroke:none;fill-rule:evenodd"/>
    <path d="m 30.844 16.98 l -0.492 -0.293 c -0.543 -0.32 -1.234 -0.129 -1.547 0.422 l -6.125 10.84 c -0.313 0.551 -0.125 1.258 0.414 1.578 l 0.496 0.293 c 0.539 0.316 1.234 0.129 1.547 -0.426 l 6.121 -10.836 c 0.313 -0.555 0.129 -1.262 -0.414 -1.578 m 0 0" style="fill:#f9f9f9;fill-opacity:1;stroke:none;fill-rule:evenodd"/>
    <path d="m 28.05 15.328 l -0.492 -0.289 c -0.543 -0.32 -1.234 -0.133 -1.547 0.422 l -6.125 10.836 c -0.313 0.555 -0.125 1.262 0.414 1.582 l 0.496 0.289 c 0.539 0.32 1.234 0.133 1.547 -0.422 l 6.121 -10.836 c 0.313 -0.555 0.129 -1.262 -0.414 -1.582 m 0 0" style="fill:#f9f9f9;fill-opacity:1;stroke:none;fill-rule:evenodd"/>
    <path d="m 25.25 13.68 l -0.492 -0.293 c -0.543 -0.316 -1.234 -0.129 -1.547 0.426 l -6.125 10.836 c -0.313 0.555 -0.125 1.262 0.414 1.578 l 0.496 0.293 c 0.539 0.32 1.23 0.129 1.547 -0.422 l 6.121 -10.84 c 0.313 -0.551 0.129 -1.258 -0.414 -1.578 m 0 0" style="fill:#f9f9f9;fill-opacity:1;stroke:none;fill-rule:evenodd"/>
    <path d="M 24.281,30.875 16.293,26.168 16.055,36 24.282,30.875" style="fill:#f9f9f9;fill-opacity:1;stroke:none;fill-rule:evenodd"/>
   </g>
  </g>
 </g>
 <g>
  <path d="m 40.03 7.531 c 3.712 4.084 5.969 9.514 5.969 15.469 0 12.703 -10.297 23 -23 23 c -5.954 0 -11.384 -2.256 -15.469 -5.969 4.178 4.291 10.01 6.969 16.469 6.969 c 12.703 0 23 -10.298 23 -23 0 -6.462 -2.677 -12.291 -6.969 -16.469 z" style="opacity:0.1"/>
 </g>
</svg>
