<svg version="1.1" viewBox="0 0 48 48" xmlns="http://www.w3.org/2000/svg">
 <defs>
  <linearGradient id="bg" x1="1" x2="47" gradientTransform="matrix(0 -1 1 0 0 48)" gradientUnits="userSpaceOnUse">
   <stop style="stop-color:#cac8a0" offset="0"/>
   <stop style="stop-color:#d1cfad" offset="1"/>
  </linearGradient>
 </defs>
 <path d="m36.3 5c5.86 4.06 9.69 10.8 9.69 18.5 0 12.4-10.1 22.5-22.5 22.5-7.67 0-14.4-3.83-18.5-9.69 1.04 1.82 2.31 3.5 3.78 4.97 4.08 3.71 9.51 5.97 15.5 5.97 12.7 0 23-10.3 23-23 0-5.95-2.26-11.4-5.97-15.5-1.47-1.48-3.15-2.74-4.97-3.78zm4.97 3.78c3.85 4.11 6.22 9.64 6.22 15.7 0 12.7-10.3 23-23 23-6.08 0-11.6-2.36-15.7-6.22 4.16 4.14 9.88 6.72 16.2 6.72 12.7 0 23-10.3 23-23 0-6.34-2.58-12.1-6.72-16.2z" style="opacity:.05"/>
 <path d="m41.3 8.78c3.71 4.08 5.97 9.51 5.97 15.5 0 12.7-10.3 23-23 23-5.95 0-11.4-2.26-15.5-5.97 4.11 3.85 9.64 6.22 15.7 6.22 12.7 0 23-10.3 23-23 0-6.08-2.36-11.6-6.22-15.7z" style="opacity:.1"/>
 <path d="m31.2 2.38c8.62 3.15 14.8 11.4 14.8 21.1 0 12.4-10.1 22.5-22.5 22.5-9.71 0-18-6.14-21.1-14.8a23 23 0 0 0 44.9-7 23 23 0 0 0-16-21.9z" style="opacity:.2"/>
 <path d="m24 1c12.7 0 23 10.3 23 23s-10.3 23-23 23-23-10.3-23-23 10.3-23 23-23z" style="fill:url(#bg)"/>
 <path d="m25.4 10c-1.71 0.021-3.64 0.59-5.57 1.59-3.54 1.84-5.92 4.54-5.8 7.41l-0.01 25.7c0.65 0.314 1.32 0.596 2 0.85l0.01-22.7c2.2 1.72 5.7 1.33 9.19-0.482 4.4-2.29 7.03-5.92 5.23-9.53-1.01-2.03-2.85-2.91-5.05-2.88h-0.01zm1.8 3.04h4e-3c0.684-0.021 1.22 0.188 1.5 0.75 0.898 1.8-2.63 3.63-5.27 5.01-2.64 1.37-6.17 3.2-7.06 1.4-0.898-1.8 2.62-3.63 5.27-5.01 1.82-0.943 4.05-2.1 5.56-2.15z" style="opacity:.1"/>
 <path d="m13 17.8v26.4c0.649 0.354 1.32 0.677 2 0.969v-27.4l-2-2e-3z" style="fill:#474747"/>
 <path d="m18.8 10.6c-4.4 2.29-7.03 5.92-5.24 9.53 1.8 3.6 6.22 3.58 10.6 1.29s7.03-5.92 5.24-9.53c-1.8-3.6-6.22-3.58-10.6-1.29zm3.59 7.21c-2.64 1.37-6.17 3.2-7.06 1.4-0.898-1.8 2.63-3.63 5.27-5.01 2.64-1.37 6.17-3.2 7.06-1.4 0.898 1.8-2.63 3.63-5.27 5.01z" style="fill:#474747"/>
 <path d="m40 7.53c3.71 4.08 5.97 9.51 5.97 15.5 0 12.7-10.3 23-23 23-5.95 0-11.4-2.26-15.5-5.97 4.18 4.29 10 6.97 16.5 6.97 12.7 0 23-10.3 23-23 0-6.46-2.68-12.3-6.97-16.5z" style="opacity:.1"/>
</svg>
