<svg version="1.1" viewBox="0 0 48 48" xmlns="http://www.w3.org/2000/svg">
 <defs>
  <linearGradient id="bg" x1="1" x2="47" gradientTransform="matrix(0 -1 1 0 -1.5e-6 48)" gradientUnits="userSpaceOnUse">
   <stop style="stop-color:#575757" offset="0"/>
   <stop style="stop-color:#616161" offset="1"/>
  </linearGradient>
 </defs>
 <path d="m36.3 5c5.86 4.06 9.69 10.8 9.69 18.5 0 12.4-10.1 22.5-22.5 22.5-7.67 0-14.4-3.83-18.5-9.69 1.04 1.82 2.31 3.5 3.78 4.97 4.08 3.71 9.51 5.97 15.5 5.97 12.7 0 23-10.3 23-23 0-5.95-2.26-11.4-5.97-15.5-1.47-1.48-3.15-2.74-4.97-3.78zm4.97 3.78c3.85 4.11 6.22 9.64 6.22 15.7 0 12.7-10.3 23-23 23-6.08 0-11.6-2.36-15.7-6.22 4.16 4.14 9.88 6.72 16.2 6.72 12.7 0 23-10.3 23-23 0-6.34-2.58-12.1-6.72-16.2z" style="opacity:.05"/>
 <path d="m41.3 8.78c3.71 4.08 5.97 9.51 5.97 15.5 0 12.7-10.3 23-23 23-5.95 0-11.4-2.26-15.5-5.97 4.11 3.85 9.64 6.22 15.7 6.22 12.7 0 23-10.3 23-23 0-6.08-2.36-11.6-6.22-15.7z" style="opacity:.1"/>
 <path d="m31.2 2.38c8.62 3.15 14.8 11.4 14.8 21.1 0 12.4-10.1 22.5-22.5 22.5-9.71 0-18-6.14-21.1-14.8a23 23 0 0044.9-7 23 23 0 00-16-21.9z" style="opacity:.2"/>
 <path d="m24 1c12.7 0 23 10.3 23 23s-10.3 23-23 23-23-10.3-23-23 10.3-23 23-23z" style="fill:url(#bg)"/>
 <path d="m40 7.53c3.71 4.08 5.97 9.51 5.97 15.5 0 12.7-10.3 23-23 23-5.95 0-11.4-2.26-15.5-5.97 4.18 4.29 10 6.97 16.5 6.97 12.7 0 23-10.3 23-23 0-6.46-2.68-12.3-6.97-16.5z" style="opacity:.1"/>
 <path d="m14 12-2 2v2h2v2h2v-2h2v-2h-2v-2zm20 0-2 2v2h2v2h2v-2h2v-2h-2v-2zm-14 2v2h4v-2zm6 0v2h4v-2zm-5 4c-1.66 0-3 1.34-3 3s1.34 3 3 3 3-1.34 3-3-1.34-3-3-3zm8 0c-1.66 0-3 1.34-3 3s1.34 3 3 3 3-1.34 3-3-1.34-3-3-3zm-15 2v4h2v-4zm7 0c.552 0 1 .448 1 1s-.448 1-1 1-1-.448-1-1 .448-1 1-1zm8 0c.552 0 1 .448 1 1s-.448 1-1 1-1-.448-1-1 .448-1 1-1zm5 0v4h2v-4zm-20 6v4h2v-4zm6 0 2 6h2l1-3 1 3h2l2-6h-2l-1 3-1-3h-2l-1 3-1-3zm14 0v4h2v-4zm-20 6-2 2v2h2v2h2v-2h2v-2h-2v-2zm20 0-2 2v2h2v2h2v-2h2v-2h-2v-2zm-14 2v2h4v-2zm6 0v2h4v-2z" style="opacity:.1"/>
 <path d="m13 11v2h-2v2h2v2h2v-2h2v-2h-2v-2h-2zm20 0v2h-2v2h2v2h2v-2h2v-2h-2v-2h-2zm-14 2v2h4v-2h-4zm6 0v2h4v-2h-4zm-5 4a3 3 0 00-3 3 3 3 0 003 3 3 3 0 003-3 3 3 0 00-3-3zm8 0a3 3 0 00-3 3 3 3 0 003 3 3 3 0 003-3 3 3 0 00-3-3zm-15 2v4h2v-4h-2zm7 0a1 1 0 011 1 1 1 0 01-1 1 1 1 0 01-1-1 1 1 0 011-1zm8 0a1 1 0 011 1 1 1 0 01-1 1 1 1 0 01-1-1 1 1 0 011-1zm5 0v4h2v-4h-2zm-20 6v4h2v-4h-2zm6 0 2 6h2l1-3 1 3h2l2-6h-2l-1 3-1-3h-2l-1 3-1-3h-2zm14 0v4h2v-4h-2zm-20 6v2h-2v2h2v2h2v-2h2v-2h-2v-2h-2zm20 0v2h-2v2h2v2h2v-2h2v-2h-2v-2h-2zm-14 2v2h4v-2h-4zm6 0v2h4v-2h-4z" style="fill:#f9f9f9"/>
</svg>
