<svg version="1.1" viewBox="0 0 48 48" xmlns="http://www.w3.org/2000/svg">
 <defs>
  <linearGradient id="bg" x2="0" y1="1" y2="47" gradientUnits="userSpaceOnUse">
   <stop style="stop-color:#404c59" offset="0"/>
   <stop style="stop-color:#38424d" offset="1"/>
  </linearGradient>
 </defs>
 <path d="m36.3 5c5.86 4.06 9.69 10.8 9.69 18.5 0 12.4-10.1 22.5-22.5 22.5-7.67 0-14.4-3.83-18.5-9.69 1.04 1.82 2.31 3.5 3.78 4.97 4.08 3.71 9.51 5.97 15.5 5.97 12.7 0 23-10.3 23-23 0-5.95-2.26-11.4-5.97-15.5-1.47-1.48-3.15-2.74-4.97-3.78zm4.97 3.78c3.85 4.11 6.22 9.64 6.22 15.7 0 12.7-10.3 23-23 23-6.08 0-11.6-2.36-15.7-6.22 4.16 4.14 9.88 6.72 16.2 6.72 12.7 0 23-10.3 23-23 0-6.34-2.58-12.1-6.72-16.2z" style="opacity:.05"/>
 <path d="m41.3 8.78c3.71 4.08 5.97 9.51 5.97 15.5 0 12.7-10.3 23-23 23-5.95 0-11.4-2.26-15.5-5.97 4.11 3.85 9.64 6.22 15.7 6.22 12.7 0 23-10.3 23-23 0-6.08-2.36-11.6-6.22-15.7z" style="opacity:.1"/>
 <path d="m31.2 2.38c8.62 3.15 14.8 11.4 14.8 21.1 0 12.4-10.1 22.5-22.5 22.5-9.71 0-18-6.14-21.1-14.8a23 23 0 0044.9-7 23 23 0 00-16-21.9z" style="opacity:.2"/>
 <circle cx="24" cy="24" r="23" style="fill:url(#bg)"/>
 <path d="m40 7.53c3.71 4.08 5.97 9.51 5.97 15.5 0 12.7-10.3 23-23 23-5.95 0-11.4-2.26-15.5-5.97 4.18 4.29 10 6.97 16.5 6.97 12.7 0 23-10.3 23-23 0-6.46-2.68-12.3-6.97-16.5z" style="opacity:.1"/>
 <path d="m21.5 12c-.828 0-1.5.672-1.5 1.5s.672 1.5 1.5 1.5c.323-.002.637-.108.895-.303l1.6.969-2.11.24c-.237-.55-.778-.906-1.38-.906-.828 0-1.5.672-1.5 1.5s.672 1.5 1.5 1.5c.672-.000506 1.26-.448 1.44-1.1l3.06-.346v4.94l-2.62 1.31-3-1.2-.861-2.01c.308-.283.483-.682.484-1.1 0-.828-.672-1.5-1.5-1.5s-1.5.672-1.5 1.5.672 1.5 1.5 1.5c.0313-.0017.0626-.0044.0937-.008l.369.861-1.99-1.11c.0147-.0819.0225-.165.0234-.248 0-.828-.672-1.5-1.5-1.5s-1.5.672-1.5 1.5.672 1.5 1.5 1.5c.366-.000533.718-.135.992-.377l2.27 1.26-2.08.693c-.284-.365-.721-.578-1.18-.578-.828 0-1.5.672-1.5 1.5s.672 1.5 1.5 1.5c.818-.000951 1.48-.657 1.5-1.47l2.99-.994 3.02 1.21v3.13l-4.95 2.06-3.1-2.07c.0314-.12.0478-.243.0488-.367 0-.828-.672-1.5-1.5-1.5s-1.5.672-1.5 1.5.672 1.5 1.5 1.5c.324-.0015.638-.108.896-.303l1.95 1.3h-2.44c-.212-.599-.778-1-1.41-1-.828 0-1.5.672-1.5 1.5s.672 1.5 1.5 1.5c.634-.0017 1.2-.402 1.41-1h3.02l-.91 1.09c-.166-.0617-.342-.0934-.52-.0937-.828 0-1.5.672-1.5 1.5s.672 1.5 1.5 1.5 1.5-.672 1.5-1.5c1e-4-.27-.0728-.535-.211-.768l1.52-1.82 4.7-1.96v.043h3v4.81l-1.96 2.29c-.172-.066-.355-.0998-.539-.0996-.462.0016-.897.216-1.18.58l-.32-.107c-.0149-.818-.682-1.47-1.5-1.47-.828 0-1.5.672-1.5 1.5s.672 1.5 1.5 1.5c.462-.0016.897-.216 1.18-.58l.322.107c.0149.817.681 1.47 1.5 1.47.828 0 1.5-.672 1.5-1.5-.000405-.263-.0698-.521-.201-.748l1.7-1.98 1.7 1.99c-.132.227-.202.484-.203.746 0 .828.672 1.5 1.5 1.5s1.5-.672 1.5-1.5c-.000324-.225-.0511-.446-.148-.648.202.0974.424.148.648.148.828 0 1.5-.672 1.5-1.5s-.672-1.5-1.5-1.5-1.5.672-1.5 1.5c.000326.225.051.446.148.648-.202-.0974-.424-.148-.648-.148-.185.0011-.367.0361-.539.104l-1.96-2.29v-4.81l3-2h6v4.59l-1.21.143c-.271-.454-.76-.733-1.29-.732-.828 0-1.5.672-1.5 1.5 0 .828.672 1.5 1.5 1.5.746-.00022 1.38-.549 1.48-1.29v-.002l1.21-.143.801-.67v-4.15l1 .746c-2e-6.0013-2e-6.0027 0 .004.0017.634.402 1.2 1 1.41v.18c-.598.211-.998.776-1 1.41 0 .828.672 1.5 1.5 1.5s1.5-.672 1.5-1.5c-6.1e-5-.636-.401-1.2-1-1.41v-.176c.598-.211.998-.776 1-1.41 0-.828-.672-1.5-1.5-1.5-.439.000858-.856.194-1.14.529l-1.36-1.03 1.57-.826c.264.21.591.325.928.326.828 0 1.5-.672 1.5-1.5 0-.828-.672-1.5-1.5-1.5-.828 0-1.5.672-1.5 1.5.002.117.0166.233.0449.346l-2.04 1.15h-6v-2l-.0332-.0234 4.68-2.98h1.45c.211.598.776.998 1.41 1 .828 0 1.5-.672 1.5-1.5s-.672-1.5-1.5-1.5c-.634.0017-1.2.402-1.41 1h-1.09v-1.09c.425-.151.759-.485.91-.91h.18c.211.598.776.998 1.41 1 .828 0 1.5-.672 1.5-1.5s-.672-1.5-1.5-1.5c-.634.0017-1.2.402-1.41 1h-.176c-.212-.599-.778-1-1.41-1-.828 0-1.5.672-1.5 1.5.0017.634.402 1.2 1 1.41v1.31l-4.94 3.15-2.06-1.37v-5.94l1.21 1.69c-.133.228-.204.486-.205.75 0 .828.672 1.5 1.5 1.5s1.5-.672 1.5-1.5-.672-1.5-1.5-1.5c-.182.0014-.362.0358-.531.102l-1.24-1.74c.0106-.0142.0211-.0285.0312-.043l1.25.303c.0611.779.71 1.38 1.49 1.38.828 0 1.5-.672 1.5-1.5s-.672-1.5-1.5-1.5c-.493.0012-.953.244-1.23.65l-1.28-.307c-.08-.764-.724-1.34-1.49-1.34-.828 0-1.5.672-1.5 1.5.0017.634.402 1.2 1 1.41v.201l-2.05-1.25c.0312-.119.0476-.242.0488-.365 0-.828-.672-1.5-1.5-1.5z" style="opacity:.1"/>
 <path d="m20.5 11c-.828 0-1.5.672-1.5 1.5s.672 1.5 1.5 1.5c.323-.002.637-.108.895-.303l1.6.969-2.11.24c-.237-.55-.778-.906-1.38-.906-.828 0-1.5.672-1.5 1.5s.672 1.5 1.5 1.5c.672-.000506 1.26-.448 1.44-1.1l3.06-.346v4.94l-2.62 1.31-3-1.2-.861-2.01c.308-.283.483-.682.484-1.1 0-.828-.672-1.5-1.5-1.5s-1.5.672-1.5 1.5.672 1.5 1.5 1.5c.0313-.0017.0626-.0044.0937-.008l.369.861-1.99-1.11c.0147-.0819.0225-.165.0234-.248 0-.828-.672-1.5-1.5-1.5s-1.5.672-1.5 1.5.672 1.5 1.5 1.5c.366-.000533.718-.135.992-.377l2.27 1.26-2.08.693c-.284-.365-.721-.578-1.18-.578-.828 0-1.5.672-1.5 1.5s.672 1.5 1.5 1.5c.818-.000951 1.48-.657 1.5-1.47l2.99-.994 3.02 1.21v3.13l-4.95 2.06-3.1-2.07c.0314-.12.0478-.243.0488-.367 0-.828-.672-1.5-1.5-1.5s-1.5.672-1.5 1.5.672 1.5 1.5 1.5c.324-.0015.638-.108.896-.303l1.95 1.3h-2.44c-.212-.599-.778-1-1.41-1-.828 0-1.5.672-1.5 1.5s.672 1.5 1.5 1.5c.634-.0017 1.2-.402 1.41-1h3.02l-.91 1.09c-.166-.0617-.342-.0934-.52-.0937-.828 0-1.5.672-1.5 1.5s.672 1.5 1.5 1.5 1.5-.672 1.5-1.5c1e-4-.27-.0728-.535-.211-.768l1.52-1.82 4.7-1.96v.043h3v4.81l-1.96 2.29c-.172-.066-.355-.0998-.539-.0996-.462.0016-.897.216-1.18.58l-.32-.107c-.0149-.818-.682-1.47-1.5-1.47-.828 0-1.5.672-1.5 1.5s.672 1.5 1.5 1.5c.462-.0016.897-.216 1.18-.58l.322.107c.0149.817.681 1.47 1.5 1.47.828 0 1.5-.672 1.5-1.5-.000405-.263-.0698-.521-.201-.748l1.7-1.98 1.7 1.99c-.132.227-.202.484-.203.746 0 .828.672 1.5 1.5 1.5s1.5-.672 1.5-1.5c-.000324-.225-.0511-.446-.148-.648.202.0974.424.148.648.148.828 0 1.5-.672 1.5-1.5s-.672-1.5-1.5-1.5-1.5.672-1.5 1.5c.000326.225.051.446.148.648-.202-.0974-.424-.148-.648-.148-.185.0011-.367.0361-.539.104l-1.96-2.29v-4.81l3-2h6v4.59l-1.21.143c-.271-.454-.76-.733-1.29-.732-.828 0-1.5.672-1.5 1.5 0 .828.672 1.5 1.5 1.5.746-.00022 1.38-.549 1.48-1.29v-.002l1.21-.143.801-.67v-4.15l1 .746c-2e-6.0013-2e-6.0027 0 .004.0017.634.402 1.2 1 1.41v.18c-.598.211-.998.776-1 1.41 0 .828.672 1.5 1.5 1.5s1.5-.672 1.5-1.5c-6.1e-5-.636-.401-1.2-1-1.41v-.176c.598-.211.998-.776 1-1.41 0-.828-.672-1.5-1.5-1.5-.439.000858-.856.194-1.14.529l-1.36-1.03 1.57-.826c.264.21.591.325.928.326.828 0 1.5-.672 1.5-1.5 0-.828-.672-1.5-1.5-1.5-.828 0-1.5.672-1.5 1.5.002.117.0166.233.0449.346l-2.04 1.15h-6v-2l-.0332-.0234 4.68-2.98h1.45c.211.598.776.998 1.41 1 .828 0 1.5-.672 1.5-1.5s-.672-1.5-1.5-1.5c-.634.0017-1.2.402-1.41 1h-1.09v-1.09c.425-.151.759-.485.91-.91h.18c.211.598.776.998 1.41 1 .828 0 1.5-.672 1.5-1.5s-.672-1.5-1.5-1.5c-.634.0017-1.2.402-1.41 1h-.176c-.212-.599-.778-1-1.41-1-.828 0-1.5.672-1.5 1.5.0017.634.402 1.2 1 1.41v1.31l-4.94 3.15-2.06-1.37v-5.94l1.21 1.69c-.133.228-.204.486-.205.75 0 .828.672 1.5 1.5 1.5s1.5-.672 1.5-1.5-.672-1.5-1.5-1.5c-.182.0014-.362.0358-.531.102l-1.24-1.74c.0106-.0142.0211-.0285.0312-.043l1.25.303c.0611.779.71 1.38 1.49 1.38.828 0 1.5-.672 1.5-1.5s-.672-1.5-1.5-1.5c-.493.0012-.953.244-1.23.65l-1.28-.307c-.08-.764-.724-1.34-1.49-1.34-.828 0-1.5.672-1.5 1.5.0017.634.402 1.2 1 1.41v.201l-2.05-1.25c.0312-.119.0476-.242.0488-.365 0-.828-.672-1.5-1.5-1.5z" style="fill:#1da2f6"/>
</svg>
