<svg version="1.1" viewBox="0 0 48 48" xmlns="http://www.w3.org/2000/svg">
 <defs>
  <linearGradient id="bg" x1="1" x2="47" gradientTransform="matrix(0 -1 1 0 -1.5e-6 48)" gradientUnits="userSpaceOnUse">
   <stop style="stop-color:#d52f3f" offset="0"/>
   <stop style="stop-color:#d8404d" offset="1"/>
  </linearGradient>
 </defs>
 <path d="m36.31 5c5.859 4.062 9.688 10.831 9.688 18.5 0 12.426-10.07 22.5-22.5 22.5-7.669 0-14.438-3.828-18.5-9.688 1.037 1.822 2.306 3.499 3.781 4.969 4.085 3.712 9.514 5.969 15.469 5.969 12.703 0 23-10.298 23-23 0-5.954-2.256-11.384-5.969-15.469-1.469-1.475-3.147-2.744-4.969-3.781zm4.969 3.781c3.854 4.113 6.219 9.637 6.219 15.719 0 12.703-10.297 23-23 23-6.081 0-11.606-2.364-15.719-6.219 4.16 4.144 9.883 6.719 16.219 6.719 12.703 0 23-10.298 23-23 0-6.335-2.575-12.06-6.719-16.219z" style="opacity:.05"/>
 <path d="m41.28 8.781c3.712 4.085 5.969 9.514 5.969 15.469 0 12.703-10.297 23-23 23-5.954 0-11.384-2.256-15.469-5.969 4.113 3.854 9.637 6.219 15.719 6.219 12.703 0 23-10.298 23-23 0-6.081-2.364-11.606-6.219-15.719z" style="opacity:.1"/>
 <path d="m31.25 2.375c8.615 3.154 14.75 11.417 14.75 21.13 0 12.426-10.07 22.5-22.5 22.5-9.708 0-17.971-6.135-21.12-14.75a23 23 0 0 0 44.875-7 23 23 0 0 0-16-21.875z" style="opacity:.2"/>
 <path d="m24 1c12.703 0 23 10.297 23 23s-10.297 23-23 23-23-10.297-23-23 10.297-23 23-23z" style="fill:url(#bg)"/>
 <path d="m28 14c-3.7895 0-6.9665 2.6321-7.793 6.1699-0.86879-0.72959-1.9838-1.1699-3.207-1.1699-2.758 0-5 2.238-5 5 0 1.9312 1.0953 3.6088 2.7012 4.4414-0.44705 0.7485-0.70117 1.6234-0.70117 2.5586 0 2.758 2.242 5 5 5 1.098 0 2.1753-0.3998 3-1 1.4164 0.7104 3 1 4.5 1s3.0798-0.5756 4.4238-1.4512c0.63177 0.2888 1.3371 0.45117 2.0762 0.45117 2.762 0 5-2.242 5-5 0-1.9736-1.1505-3.6814-2.8145-4.4941 0.51832-1.0597 0.81445-2.2467 0.81445-3.5059 0-4.418-3.582-8-8-8z" style="opacity:.1"/>
 <path d="m27 13c-3.7895 0-6.9665 2.6321-7.793 6.1699-0.86879-0.72959-1.9838-1.1699-3.207-1.1699-2.758 0-5 2.238-5 5 0 1.9312 1.0953 3.6088 2.7012 4.4414-0.44705 0.7485-0.70117 1.6234-0.70117 2.5586 0 2.758 2.242 5 5 5 1.098 0 2.1753-0.3998 3-1 1.4164 0.7104 3 1 4.5 1s3.0798-0.5756 4.4238-1.4512c0.63177 0.2888 1.3371 0.45117 2.0762 0.45117 2.762 0 5-2.242 5-5 0-1.9736-1.1505-3.6814-2.8145-4.4941 0.51832-1.0597 0.81445-2.2467 0.81445-3.5059 0-4.418-3.582-8-8-8z" style="fill:#f4e5d6"/>
 <path d="m19.5 22c-1.383 0-2.5 1.117-2.5 2.5 0 1.379 1.117 2.5 2.5 2.5 1.379 0 2.5-1.121 2.5-2.5 0-1.383-1.121-2.5-2.5-2.5zm10 0c-1.383 0-2.5 1.117-2.5 2.5 0 1.379 1.117 2.5 2.5 2.5 1.379 0 2.5-1.121 2.5-2.5 0-1.383-1.121-2.5-2.5-2.5zm-7.5 6c0 6.6667 6 6.6667 6 0z" style="opacity:.1"/>
 <path d="m18.5 21c-1.383 0-2.5 1.117-2.5 2.5 0 1.379 1.117 2.5 2.5 2.5 1.379 0 2.5-1.121 2.5-2.5 0-1.383-1.121-2.5-2.5-2.5zm10 0c-1.383 0-2.5 1.117-2.5 2.5 0 1.379 1.117 2.5 2.5 2.5 1.379 0 2.5-1.121 2.5-2.5 0-1.383-1.121-2.5-2.5-2.5z" style="fill:#474747"/>
 <path d="m21 27c0 6.6667 6 6.6667 6 0h-6z" style="fill:#f10441"/>
 <path d="m19 23c-0.551 0-1 0.449-1 1s0.449 1 1 1 1-0.449 1-1-0.449-1-1-1zm10 0c-0.551 0-1 0.449-1 1s0.449 1 1 1 1-0.449 1-1-0.449-1-1-1z" style="fill:#f9f9f9"/>
 <path d="m40.03 7.531c3.712 4.084 5.969 9.514 5.969 15.469 0 12.703-10.297 23-23 23-5.954 0-11.384-2.256-15.469-5.969 4.178 4.291 10.01 6.969 16.469 6.969 12.703 0 23-10.298 23-23 0-6.462-2.677-12.291-6.969-16.469z" style="opacity:.1"/>
</svg>
