<svg xmlns="http://www.w3.org/2000/svg" viewBox="0 0 48 48">
 <defs>
  <linearGradient id="linearGradient3764" x1="1" x2="47" gradientUnits="userSpaceOnUse" gradientTransform="matrix(0,-1,1,0,-1.5e-6,47.999998)">
   <stop style="stop-color:#d52f3f;stop-opacity:1"/>
   <stop offset="1" style="stop-color:#d8404d;stop-opacity:1"/>
  </linearGradient>
 </defs>
 <g>
  <path d="m 36.31 5 c 5.859 4.062 9.688 10.831 9.688 18.5 c 0 12.426 -10.07 22.5 -22.5 22.5 c -7.669 0 -14.438 -3.828 -18.5 -9.688 c 1.037 1.822 2.306 3.499 3.781 4.969 c 4.085 3.712 9.514 5.969 15.469 5.969 c 12.703 0 23 -10.298 23 -23 c 0 -5.954 -2.256 -11.384 -5.969 -15.469 c -1.469 -1.475 -3.147 -2.744 -4.969 -3.781 z m 4.969 3.781 c 3.854 4.113 6.219 9.637 6.219 15.719 c 0 12.703 -10.297 23 -23 23 c -6.081 0 -11.606 -2.364 -15.719 -6.219 c 4.16 4.144 9.883 6.719 16.219 6.719 c 12.703 0 23 -10.298 23 -23 c 0 -6.335 -2.575 -12.06 -6.719 -16.219 z" style="opacity:0.05"/>
  <path d="m 41.28 8.781 c 3.712 4.085 5.969 9.514 5.969 15.469 c 0 12.703 -10.297 23 -23 23 c -5.954 0 -11.384 -2.256 -15.469 -5.969 c 4.113 3.854 9.637 6.219 15.719 6.219 c 12.703 0 23 -10.298 23 -23 c 0 -6.081 -2.364 -11.606 -6.219 -15.719 z" style="opacity:0.1"/>
  <path d="m 31.25 2.375 c 8.615 3.154 14.75 11.417 14.75 21.13 c 0 12.426 -10.07 22.5 -22.5 22.5 c -9.708 0 -17.971 -6.135 -21.12 -14.75 a 23 23 0 0 0 44.875 -7 a 23 23 0 0 0 -16 -21.875 z" style="opacity:0.2"/>
 </g>
 <g>
  <path d="m 24 1 c 12.703 0 23 10.297 23 23 c 0 12.703 -10.297 23 -23 23 -12.703 0 -23 -10.297 -23 -23 0 -12.703 10.297 -23 23 -23 z" style="fill:url(#linearGradient3764);fill-opacity:1"/>
 </g>
 <g>
  <g>
   <g transform="translate(1,1)">
    <g style="opacity:0.1">
     <!-- color: #d8404d -->
     <g>
      <path d="m 27.996 13.996 c -3.798 0 -6.972 2.651 -7.789 6.201 c -0.871 -0.736 -1.981 -1.197 -3.211 -1.197 c -2.758 0 -5 2.238 -5 5 c 0 1.938 1.118 3.602 2.732 4.432 c -0.455 0.753 -0.732 1.625 -0.732 2.568 c 0 2.758 2.242 5 5 5 c 1.281 0 2.436 -0.497 3.32 -1.289 c 2.608 1.157 5.68 1.027 8.18 -0.406 c 0.738 0.43 1.585 0.695 2.5 0.695 c 2.762 0 5 -2.242 5 -5 c 0 -1.976 -1.158 -3.671 -2.824 -4.482 c 0.523 -1.064 0.824 -2.256 0.824 -3.521 c 0 -4.418 -3.582 -8 -8 -8 z" transform="translate(-1,-1)"/>
     </g>
    </g>
   </g>
  </g>
 </g>
 <g>
  <g>
   <!-- color: #d8404d -->
   <g>
    <path d="m 20.996 23 c 0 2.758 -2.238 5 -5 5 -2.758 0 -5 -2.242 -5 -5 0 -2.762 2.242 -5 5 -5 2.762 0 5 2.242 5 5 m 0 0" style="fill:#f4e5d6;fill-opacity:1;stroke:none;fill-rule:nonzero"/>
    <path d="m 34.996 20.996 c 0 4.418 -3.582 8 -8 8 -4.418 0 -8 -3.582 -8 -8 0 -4.418 3.582 -8 8 -8 4.418 0 8 3.582 8 8 m 0 0" style="fill:#f4e5d6;fill-opacity:1;stroke:none;fill-rule:nonzero"/>
    <path d="m 36.996 29 c 0 2.758 -2.238 5 -5 5 -2.758 0 -5 -2.242 -5 -5 0 -2.762 2.242 -5 5 -5 2.762 0 5 2.242 5 5 m 0 0" style="fill:#f4e5d6;fill-opacity:1;stroke:none;fill-rule:nonzero"/>
    <path d="m 22.996 30 c 0 2.758 -2.238 5 -5 5 -2.758 0 -5 -2.242 -5 -5 0 -2.762 2.242 -5 5 -5 2.762 0 5 2.242 5 5 m 0 0" style="fill:#f4e5d6;fill-opacity:1;stroke:none;fill-rule:nonzero"/>
    <path d="m 20 24 9.996 0 0 9 c -3 1.996 -7 1.996 -9.996 0 m 0 -9" style="fill:#f4e5d6;fill-opacity:1;stroke:none;fill-rule:nonzero"/>
    <path d="M 21,23.5 C 21,24.879 19.879,26 18.5,26 17.117,26 16,24.879 16,23.5 16,22.117 17.117,21 18.5,21 c 1.379,0 2.5,1.117 2.5,2.5 m 0,0" style="fill:#2d2d2d;fill-opacity:1;stroke:none;fill-rule:nonzero"/>
    <path d="M 31,23.5 C 31,24.879 29.879,26 28.5,26 27.117,26 26,24.879 26,23.5 26,22.117 27.117,21 28.5,21 c 1.379,0 2.5,1.117 2.5,2.5 m 0,0" style="fill:#2d2d2d;fill-opacity:1;stroke:none;fill-rule:nonzero"/>
    <path d="m 21.5 27 5 0 c 0 6 -5 6 -5 0 m 0 0" style="fill:#e5043e;fill-opacity:1;stroke:none;fill-rule:nonzero"/>
    <path d="m 19.5 24 c 0 0.551 -0.449 1 -1 1 -0.551 0 -1 -0.449 -1 -1 0 -0.551 0.449 -1 1 -1 0.551 0 1 0.449 1 1 m 0 0" style="fill:#f9f9f9;fill-opacity:1;stroke:none;fill-rule:nonzero"/>
    <path d="m 29.5 24 c 0 0.551 -0.449 1 -1 1 -0.551 0 -1 -0.449 -1 -1 0 -0.551 0.449 -1 1 -1 0.551 0 1 0.449 1 1 m 0 0" style="fill:#f9f9f9;fill-opacity:1;stroke:none;fill-rule:nonzero"/>
   </g>
  </g>
 </g>
 <g>
  <path d="m 40.03 7.531 c 3.712 4.084 5.969 9.514 5.969 15.469 0 12.703 -10.297 23 -23 23 c -5.954 0 -11.384 -2.256 -15.469 -5.969 4.178 4.291 10.01 6.969 16.469 6.969 c 12.703 0 23 -10.298 23 -23 0 -6.462 -2.677 -12.291 -6.969 -16.469 z" style="opacity:0.1"/>
 </g>
</svg>
