<svg xmlns="http://www.w3.org/2000/svg" viewBox="0 0 48 48">
 <defs>
  <linearGradient id="linearGradient3764" x1="1" x2="47" gradientUnits="userSpaceOnUse" gradientTransform="matrix(0,-1,1,0,-1.5e-6,47.999998)">
   <stop style="stop-color:#cf3d1b;stop-opacity:1"/>
   <stop offset="1" style="stop-color:#e1421d;stop-opacity:1"/>
  </linearGradient>
 </defs>
 <g>
  <path d="m 36.31 5 c 5.859 4.062 9.688 10.831 9.688 18.5 c 0 12.426 -10.07 22.5 -22.5 22.5 c -7.669 0 -14.438 -3.828 -18.5 -9.688 c 1.037 1.822 2.306 3.499 3.781 4.969 c 4.085 3.712 9.514 5.969 15.469 5.969 c 12.703 0 23 -10.298 23 -23 c 0 -5.954 -2.256 -11.384 -5.969 -15.469 c -1.469 -1.475 -3.147 -2.744 -4.969 -3.781 z m 4.969 3.781 c 3.854 4.113 6.219 9.637 6.219 15.719 c 0 12.703 -10.297 23 -23 23 c -6.081 0 -11.606 -2.364 -15.719 -6.219 c 4.16 4.144 9.883 6.719 16.219 6.719 c 12.703 0 23 -10.298 23 -23 c 0 -6.335 -2.575 -12.06 -6.719 -16.219 z" style="opacity:0.05"/>
  <path d="m 41.28 8.781 c 3.712 4.085 5.969 9.514 5.969 15.469 c 0 12.703 -10.297 23 -23 23 c -5.954 0 -11.384 -2.256 -15.469 -5.969 c 4.113 3.854 9.637 6.219 15.719 6.219 c 12.703 0 23 -10.298 23 -23 c 0 -6.081 -2.364 -11.606 -6.219 -15.719 z" style="opacity:0.1"/>
  <path d="m 31.25 2.375 c 8.615 3.154 14.75 11.417 14.75 21.13 c 0 12.426 -10.07 22.5 -22.5 22.5 c -9.708 0 -17.971 -6.135 -21.12 -14.75 a 23 23 0 0 0 44.875 -7 a 23 23 0 0 0 -16 -21.875 z" style="opacity:0.2"/>
 </g>
 <g>
  <path d="m 24 1 c 12.703 0 23 10.297 23 23 c 0 12.703 -10.297 23 -23 23 -12.703 0 -23 -10.297 -23 -23 0 -12.703 10.297 -23 23 -23 z" style="fill:url(#linearGradient3764);fill-opacity:1"/>
 </g>
 <path d="m 25 11 -3.105 1.996 -6.893 0 0 4.428 l -2 1.287 0 14.573 c 0 1.714 0 1.715 1.779 1.715 l 0.002 0 20.443 0 c 1.777 0 1.775 0 1.775 -1.715 l 0 -14.573 -2 -1.287 0 -4.428 -6.893 0 l -3.105 -1.996" style="fill:#000;fill-opacity:0.098"/>
 <g>
  <!-- color: #e1421d -->
 </g>
 <g>
  <path d="m 40.03 7.531 c 3.712 4.084 5.969 9.514 5.969 15.469 0 12.703 -10.297 23 -23 23 c -5.954 0 -11.384 -2.256 -15.469 -5.969 4.178 4.291 10.01 6.969 16.469 6.969 c 12.703 0 23 -10.298 23 -23 0 -6.462 -2.677 -12.291 -6.969 -16.469 z" style="opacity:0.1"/>
 </g>
 <g>
  <path d="m 13.777 34 20.445 0 c 1.777 0 1.777 0 1.777 -1.715 l 0 -14.57 -12 -7.711 -12 7.711 0 14.57 c 0 1.715 0 1.715 1.781 1.715 m 0 0" style="fill:#aaa;fill-opacity:1;stroke:none;fill-rule:nonzero"/>
  <path d="m 14,12 0,20 19.996,0 0,-20 M 14,12" style="fill:#2c86d5;fill-opacity:1;stroke:none;fill-rule:nonzero"/>
  <path d="m 14 12 0 7.727 c 0.541 0.159 1.126 0.273 1.677 0.273 2.76 0 5.29 -2.088 5.29 -4.667 0 -1.304 -0.176 -2.323 -1.01 -3.333" style="fill:#fbc06e;fill-opacity:0.392;stroke:none;fill-rule:nonzero"/>
  <path d="m 14 12 l 0 5.795 c 0.406 0.119 0.845 0.205 1.258 0.205 c 2.07 0 3.742 -1.566 3.742 -3.5 c 0 -0.978 -0.436 -1.859 -1.133 -2.5 l -3.867 0 z" style="fill:#fbc06e;fill-opacity:1;stroke:none;fill-rule:nonzero"/>
  <path d="m 31.68 16 l -8.816 16 l 11.133 0 l 0 -12.588 l -2.316 -3.412 z" style="fill:#f4f4f4;fill-opacity:1;stroke:none;fill-rule:nonzero"/>
  <path d="m 31.68 16 l 1.5 6.746 l -1.5 6.074 l 1.613 3.18 l 0.703 0 l 0 -12.59 l -2.316 -3.41 z" style="fill:#dedede;fill-opacity:1;stroke:none;fill-rule:nonzero"/>
  <path d="m 13.777 34 20.445 0 c 1.777 0 1.777 0 1.777 -1.68 l 0 -14.316 -24 14.316 c 0 1.68 0 1.68 1.781 1.68 m -0.004 0" style="fill:#ccc;fill-opacity:1;stroke:none;fill-rule:nonzero"/>
  <path d="m 34.22 34 -20.445 0 c -1.781 0 -1.781 0 -1.781 -1.68 l 0 -14.316 24 14.316 c 0 1.68 0 1.68 -1.77 1.68 m 0.004 0" style="fill:#dedede;fill-opacity:1;stroke:none;fill-rule:nonzero"/>
 </g>
</svg>
