<svg xmlns="http://www.w3.org/2000/svg" version="1.1" viewBox="0 0 48 48">
 <defs>
  <linearGradient id="linearGradient3764" x2="47" gradientUnits="userSpaceOnUse" x1="1" gradientTransform="matrix(0 -1 1 0 -.0000015 48)">
   <stop style="stop-color:#31ace5" offset="0"/>
   <stop style="stop-color:#43b4e7" offset="1"/>
  </linearGradient>
 </defs>
 <path style="opacity:.05" d="m36.31 5c5.859 4.062 9.688 10.831 9.688 18.5 0 12.426-10.07 22.5-22.5 22.5-7.669 0-14.438-3.828-18.5-9.688 1.037 1.822 2.306 3.499 3.781 4.969 4.085 3.712 9.514 5.969 15.469 5.969 12.703 0 23-10.298 23-23 0-5.954-2.256-11.384-5.969-15.469-1.469-1.475-3.147-2.744-4.969-3.781zm4.969 3.781c3.854 4.113 6.219 9.637 6.219 15.719 0 12.703-10.297 23-23 23-6.081 0-11.606-2.364-15.719-6.219 4.16 4.144 9.883 6.719 16.219 6.719 12.703 0 23-10.298 23-23 0-6.335-2.575-12.06-6.719-16.219z"/>
 <path style="opacity:.1" d="m41.28 8.781c3.712 4.085 5.969 9.514 5.969 15.469 0 12.703-10.297 23-23 23-5.954 0-11.384-2.256-15.469-5.969 4.113 3.854 9.637 6.219 15.719 6.219 12.703 0 23-10.298 23-23 0-6.081-2.364-11.606-6.219-15.719z"/>
 <path style="opacity:.2" d="m31.25 2.375c8.615 3.154 14.75 11.417 14.75 21.13 0 12.426-10.07 22.5-22.5 22.5-9.708 0-17.971-6.135-21.12-14.75a23 23 0 0 0 44.875 -7 23 23 0 0 0 -16 -21.875z"/>
 <path style="fill:url(#linearGradient3764)" d="m24 1c12.703 0 23 10.297 23 23s-10.297 23-23 23-23-10.297-23-23 10.297-23 23-23z"/>
 <g transform="translate(1,1)">
  <g style="opacity:.1">
   <path d="m32.3 14.895v3.086c-0.703-1.059-1.566-1.98-2.594-2.746-2.133-1.582-4.672-2.289-7.156-2.168-0.355 0.02-0.688 0.066-1.039 0.113-2.809 0.398-5.496 1.871-7.324 4.285-3.656 4.824-2.625 11.742 2.25 15.363s11.855 2.602 15.508-2.227c0.23-0.316 0.355-0.707 0.352-1.098 0.008-0.094 0.008-0.191 0-0.285v-1.543h-1.672c-0.055-0.004-0.117-0.004-0.172 0-0.582-0.004-1.156 0.281-1.5 0.746-2.461 3.246-7.04 3.859-10.32 1.426-3.281-2.434-3.902-6.977-1.445-10.223 2.461-3.246 7.05-3.859 10.324-1.426 0.793 0.586 1.418 1.34 1.902 2.168h-2.656c-0.965 0-1.844 0.871-1.844 1.828-0.016 0.133-0.016 0.266 0 0.398v1.43h11.07v-9.137c0.008-0.113 0.008-0.23 0-0.352v-1.477h-1.5c-1.492-0.066-2.074 0.938-2.199 1.836m0.016 0"/>
  </g>
 </g>
 <path style="opacity:.1" d="m40.03 7.531c3.712 4.084 5.969 9.514 5.969 15.469 0 12.703-10.297 23-23 23-5.954 0-11.384-2.256-15.469-5.969 4.178 4.291 10.01 6.969 16.469 6.969 12.703 0 23-10.298 23-23 0-6.462-2.677-12.291-6.969-16.469z"/>
 <path style="fill:#288b2c" d="m34 13c-0.554 0-1 0.446-1 1v5.4316c-1.4998-3.2781-4.5638-5.7227-8.3242-6.3027-0.42761-0.06596-0.85862-0.10786-1.291-0.12305-4.939-0.17352-9.3869 2.969-10.875 7.6816-1.6346 5.1769 0.75148 10.772 5.6191 13.176 4.867 2.403 10.754 0.897 13.871-3.548l-0.01758-0.01172h0.018v-2.304h-2s-0.4096 0.52993-0.45312 0.5918c-1.5 2.132-3.94 3.408-6.547 3.408-4.4183 0.000843-8-3.5817-8-8s3.5817-8 8-8c3.3562 0 6.2246 2.0698 7.4121 5h-4.412c-0.554 0-1 0.446-1 1v2h11v-11z"/>
</svg>
