<svg version="1.1" viewBox="0 0 48 48" xmlns="http://www.w3.org/2000/svg">
 <defs>
  <linearGradient id="linearGradient3764" x1="1" x2="47" gradientTransform="rotate(-90 24 24)" gradientUnits="userSpaceOnUse">
   <stop style="stop-color:#e4e4e4" offset="0"/>
   <stop style="stop-color:#eee" offset="1"/>
  </linearGradient>
 </defs>
 <path d="m36.31 5c5.859 4.062 9.688 10.831 9.688 18.5 0 12.426-10.07 22.5-22.5 22.5-7.669 0-14.438-3.828-18.5-9.688 1.037 1.822 2.306 3.499 3.781 4.969 4.085 3.712 9.514 5.969 15.469 5.969 12.703 0 23-10.298 23-23 0-5.954-2.256-11.384-5.969-15.469-1.469-1.475-3.147-2.744-4.969-3.781zm4.969 3.781c3.854 4.113 6.219 9.637 6.219 15.719 0 12.703-10.297 23-23 23-6.081 0-11.606-2.364-15.719-6.219 4.16 4.144 9.883 6.719 16.219 6.719 12.703 0 23-10.298 23-23 0-6.335-2.575-12.06-6.719-16.219z" style="opacity:.05"/>
 <path d="m41.28 8.781c3.712 4.085 5.969 9.514 5.969 15.469 0 12.703-10.297 23-23 23-5.954 0-11.384-2.256-15.469-5.969 4.113 3.854 9.637 6.219 15.719 6.219 12.703 0 23-10.298 23-23 0-6.081-2.364-11.606-6.219-15.719z" style="opacity:.1"/>
 <path d="m31.25 2.375c8.615 3.154 14.75 11.417 14.75 21.13 0 12.426-10.07 22.5-22.5 22.5-9.708 0-17.971-6.135-21.12-14.75a23 23 0 0 0 44.875-7 23 23 0 0 0-16-21.875z" style="opacity:.2"/>
 <path d="m24 1c-12.703 0-23 10.297-23 23 0 9.889 6.242 18.319 15 21.568h2e-3 15.996 2e-3c8.758-3.25 15-11.679 15-21.568 0-12.703-10.297-23-23-23z" style="fill:url(#linearGradient3764)"/>
 <path d="m25 15-19.984 21.982 0.012 0.018h11.973v8.912c2.208 0.705 4.559 1.088 7 1.088 3.194 0 6.236-0.652 9-1.828v-8.172h9.973c0.293-0.427 0.57-0.866 0.834-1.313l-6.766-7.443c0.604-0.936 0.959-2.048 0.959-3.244 0-3.312-2.687-6-6-6-0.993 0-1.927 0.245-2.752 0.672l-4.248-4.672z" style="fill-opacity:.098"/>
 <path d="m24 14-19.771 21.748c0.05 0.084 0.098 0.169 0.148 0.252h11.623v9.568c2.492 0.925 5.186 1.432 8 1.432s5.508-0.507 8-1.432v-9.568h11.623c0.051-0.083 0.099-0.168 0.148-0.252z" style="fill:#b9bab9"/>
 <g transform="translate(1,1)"></g>
 <path d="m19.32 19.146-7.0215 7.7246c0.78677 2.3963 3.0419 4.1289 5.7012 4.1289 3.312 0 6-2.687 6-6 0-2.8585-2.0017-5.2516-4.6797-5.8535zm9.8652 0.55664c-1.8941 1.0089-3.1855 3.0015-3.1855 5.2969 0 3.312 2.687 6 6 6 2.0904 0 3.9296-1.0727 5.0039-2.6953l-7.8184-8.6016z" style="opacity:.1"/>
 <path d="m23 24c0 3.313-2.688 6-6 6-3.313 0-6-2.688-6-6 0-3.313 2.688-6 6-6 3.313 0 6 2.688 6 6" style="fill:#6292c1"/>
 <path d="m37 24c0 3.313-2.688 6-6 6-3.313 0-6-2.688-6-6 0-3.313 2.688-6 6-6 3.313 0 6 2.688 6 6" style="fill:#f142a4"/>
 <path d="m40.03 7.531c3.712 4.084 5.969 9.514 5.969 15.469 0 12.703-10.297 23-23 23-5.954 0-11.384-2.256-15.469-5.969 4.178 4.291 10.01 6.969 16.469 6.969 12.703 0 23-10.298 23-23 0-6.462-2.677-12.291-6.969-16.469z" style="opacity:.1"/>
</svg>
