<svg version="1.1" viewBox="0 0 48 48" xmlns="http://www.w3.org/2000/svg">
 <defs>
  <linearGradient id="bg" x1="1" x2="47" gradientTransform="translate(-48)" gradientUnits="userSpaceOnUse">
   <stop style="stop-color:#abab0d" offset="0"/>
   <stop style="stop-color:#bebe0e" offset="1"/>
  </linearGradient>
 </defs>
 <path d="m36.31 5c5.859 4.062 9.688 10.831 9.688 18.5 0 12.426-10.07 22.5-22.5 22.5-7.669 0-14.438-3.828-18.5-9.688 1.037 1.822 2.306 3.499 3.781 4.969 4.085 3.712 9.514 5.969 15.469 5.969 12.703 0 23-10.298 23-23 0-5.954-2.256-11.384-5.969-15.469-1.469-1.475-3.147-2.744-4.969-3.781zm4.969 3.781c3.854 4.113 6.219 9.637 6.219 15.719 0 12.703-10.297 23-23 23-6.081 0-11.606-2.364-15.719-6.219 4.16 4.144 9.883 6.719 16.219 6.719 12.703 0 23-10.298 23-23 0-6.335-2.575-12.06-6.719-16.219z" style="opacity:.05"/>
 <path d="m41.28 8.781c3.712 4.085 5.969 9.514 5.969 15.469 0 12.703-10.297 23-23 23-5.954 0-11.384-2.256-15.469-5.969 4.113 3.854 9.637 6.219 15.719 6.219 12.703 0 23-10.298 23-23 0-6.081-2.364-11.606-6.219-15.719z" style="opacity:.1"/>
 <path d="m31.25 2.375c8.615 3.154 14.75 11.417 14.75 21.13 0 12.426-10.07 22.5-22.5 22.5-9.708 0-17.971-6.135-21.12-14.75a23 23 0 0 0 44.875-7 23 23 0 0 0-16-21.875z" style="opacity:.2"/>
 <circle transform="rotate(-90)" cx="-24" cy="24" r="23" style="fill:url(#bg)"/>
 <path d="m23.515 21.745-9.9941 4.957c-2.8033 2.8033-1.2184 6.2581 0.65039 8.127s5.3237 3.4537 8.127 0.65039c1.3306-1.3306 1.7012-2.0889 1.7012-4.4785 0-2 3-1.5 3-3.5 0-1-2-0.12079-2-1.5 0-0.05187 0.0039-0.10841 0.0059-0.16211l9.6972-10.135 0.29688 0.29688 0.25586-0.26953 0.4082 0.4082 0.4668-0.4668-0.41992-0.41992 0.45508-0.47852 0.43164 0.43164 0.46875-0.4668-0.44531-0.44336 0.45703-0.48047 0.45508 0.45703 0.4668-0.46875-0.4668-0.4668-0.5332-1.3359-1.3359-0.5332z" style="opacity:.1"/>
 <path d="m40.03 7.531c3.712 4.084 5.969 9.514 5.969 15.469 0 12.703-10.297 23-23 23-5.954 0-11.384-2.256-15.469-5.969 4.178 4.291 10.01 6.969 16.469 6.969 12.703 0 23-10.298 23-23 0-6.462-2.677-12.291-6.969-16.469z" style="opacity:.1"/>
 <path d="m21.141 20.355c-2.4198-0.051934-2.1406 3.6445-4.1406 3.6445s-3.0859 0.30851-4.4785 1.7012c-2.8033 2.8033-1.2184 6.2581 0.65039 8.127s5.3237 3.4537 8.127 0.65039c1.3306-1.3306 1.7012-2.0889 1.7012-4.4785 0-2 3-1.5 3-3.5 0-1-2-0.12079-2-1.5 0-1 0.38477-2.3867 0.38477-2.3867s-1.0814-1.4758-1.8691-1.8691c-0.52561-0.26281-0.97882-0.38017-1.375-0.38867z" style="fill:#eeeee7"/>
 <path d="M 32.395,13.205 21.583,23.549 22,25 l 1.4521,0.4181 10.344,-10.812 z" style="fill:#8d7c68"/>
 <path d="m34.197 10-0.4668 0.4668 0.4668 0.4668 0.4668-0.4668zm-0.93555 0.93359-0.4668 0.46875 0.4668 0.4668 0.46875-0.4668zm-0.93359 0.93555-0.4668 0.4668 0.4668 0.4668 0.4668-0.4668zm4.2051 0.4668-0.4668 0.4668 0.4668 0.46875 0.4668-0.46875zm-0.93555 0.93555-0.4668 0.4668 0.4668 0.4668 0.46875-0.4668zm-0.93359 0.93359-0.4668 0.4668 0.4668 0.4668 0.4668-0.4668z" style="fill:#424242"/>
 <path d="m21 21a1 1 0 0 0-1 1 1 1 0 0 0 1 1 1 1 0 0 0 1-1 1 1 0 0 0-1-1zm0.58203 2.5488-0.93359 0.93555 1.8672 1.8672 0.93555-0.93359zm-1.8027 1.8047-0.93555 0.93359 1.8691 1.8691 0.93359-0.93555zm-2.7793 1.6465-1 1 3 3 1-1zm1.5 5a0.5 0.5 0 0 0-0.5 0.5 0.5 0.5 0 0 0 0.5 0.5 0.5 0.5 0 0 0 0.5-0.5 0.5 0.5 0 0 0-0.5-0.5zm-1 1a0.5 0.5 0 0 0-0.5 0.5 0.5 0.5 0 0 0 0.5 0.5 0.5 0.5 0 0 0 0.5-0.5 0.5 0.5 0 0 0-0.5-0.5zm2 0a0.5 0.5 0 0 0-0.5 0.5 0.5 0.5 0 0 0 0.5 0.5 0.5 0.5 0 0 0 0.5-0.5 0.5 0.5 0 0 0-0.5-0.5zm-1 1a0.5 0.5 0 0 0-0.5 0.5 0.5 0.5 0 0 0 0.5 0.5 0.5 0.5 0 0 0 0.5-0.5 0.5 0.5 0 0 0-0.5-0.5z" style="fill:#424242"/>
 <path d="m34.664 10.467 1.336 0.53272 0.53288 1.3361-2.5329 2.6639-2-2z" style="fill:#eeeee7"/>
</svg>
