<svg xmlns="http://www.w3.org/2000/svg" viewBox="0 0 48 48">
 <defs>
  <linearGradient id="linearGradient3764" x1="1" x2="47" gradientUnits="userSpaceOnUse" gradientTransform="matrix(0,-1,1,0,-1.5e-6,47.999998)">
   <stop style="stop-color:#60e6cb;stop-opacity:1"/>
   <stop offset="1" style="stop-color:#71e9d2;stop-opacity:1"/>
  </linearGradient>
 </defs>
 <g>
  <path d="m 36.31 5 c 5.859 4.062 9.688 10.831 9.688 18.5 c 0 12.426 -10.07 22.5 -22.5 22.5 c -7.669 0 -14.438 -3.828 -18.5 -9.688 c 1.037 1.822 2.306 3.499 3.781 4.969 c 4.085 3.712 9.514 5.969 15.469 5.969 c 12.703 0 23 -10.298 23 -23 c 0 -5.954 -2.256 -11.384 -5.969 -15.469 c -1.469 -1.475 -3.147 -2.744 -4.969 -3.781 z m 4.969 3.781 c 3.854 4.113 6.219 9.637 6.219 15.719 c 0 12.703 -10.297 23 -23 23 c -6.081 0 -11.606 -2.364 -15.719 -6.219 c 4.16 4.144 9.883 6.719 16.219 6.719 c 12.703 0 23 -10.298 23 -23 c 0 -6.335 -2.575 -12.06 -6.719 -16.219 z" style="opacity:0.05"/>
  <path d="m 41.28 8.781 c 3.712 4.085 5.969 9.514 5.969 15.469 c 0 12.703 -10.297 23 -23 23 c -5.954 0 -11.384 -2.256 -15.469 -5.969 c 4.113 3.854 9.637 6.219 15.719 6.219 c 12.703 0 23 -10.298 23 -23 c 0 -6.081 -2.364 -11.606 -6.219 -15.719 z" style="opacity:0.1"/>
  <path d="m 31.25 2.375 c 8.615 3.154 14.75 11.417 14.75 21.13 c 0 12.426 -10.07 22.5 -22.5 22.5 c -9.708 0 -17.971 -6.135 -21.12 -14.75 a 23 23 0 0 0 44.875 -7 a 23 23 0 0 0 -16 -21.875 z" style="opacity:0.2"/>
 </g>
 <g>
  <path d="m 24 1 c 12.703 0 23 10.297 23 23 c 0 12.703 -10.297 23 -23 23 -12.703 0 -23 -10.297 -23 -23 0 -12.703 10.297 -23 23 -23 z" style="fill:url(#linearGradient3764);fill-opacity:1"/>
 </g>
 <g>
  <g>
   <g transform="translate(1,1)">
    <g style="opacity:0.1">
     <!-- color: #71e9d2 -->
     <g>
      <path d="m 13.771 12 c -0.984 0 -1.773 0.789 -1.773 1.773 l 0.002 18.227 10 0 c 0 3 0 3 -2 5 l -2 0 0 1 14 0 0 -1 -2 0 c -2 -2 -2 -2 -2 -5 l 10 0 -0.002 -18.227 c 0 -0.984 -0.787 -1.773 -1.771 -1.773 l -22.453 0 z" transform="translate(-1,-1)"/>
     </g>
    </g>
   </g>
  </g>
 </g>
 <g>
  <g>
   <!-- color: #71e9d2 -->
   <g>
    <path d="m 12.773,11 22.453,0 c 0.984,0 1.773,0.789 1.773,1.773 l 0,15.227 -13,2 -13,-2 0,-15.227 C 10.999,11.789 11.788,11 12.772,11 m 0,0" style="fill:#697f8c;fill-opacity:1;stroke:none;fill-rule:nonzero"/>
    <path d="m 21 31 c 0 3 0 3 -2 5 l 5 1 5 -1 c -2 -2 -2 -2 -2 -5 l -3 -3 m -3 3" style="fill:#cfd6d6;fill-opacity:1;stroke:none;fill-rule:nonzero"/>
    <path d="m 17 36 14 0 0 1 -14 0 m 0 -1" style="fill:#e5ecec;fill-opacity:1;stroke:none;fill-rule:nonzero"/>
    <path d="m 11 28 26 0 0 3 -26 0 m 0 -3" style="fill:#e5ecec;fill-opacity:1;stroke:none;fill-rule:nonzero"/>
    <path d="m 13 13 22 0 0 13 -22 0 m 0 -13" style="fill:#dee5ea;fill-opacity:1;stroke:none;fill-rule:nonzero"/>
    <path d="M 12.781,11 C 11.801,11 11,11.801 11,12.781 L 11,28 30,28 18,11 m -5.219,0" style="fill:#000;fill-opacity:0.051;stroke:none;fill-rule:nonzero"/>
    <path d="m 21 29 6 0 0 1 -6 0 m 0 -1" style="fill:#697f8c;fill-opacity:1;stroke:none;fill-rule:nonzero"/>
   </g>
  </g>
 </g>
 <g>
  <path d="m 40.03 7.531 c 3.712 4.084 5.969 9.514 5.969 15.469 0 12.703 -10.297 23 -23 23 c -5.954 0 -11.384 -2.256 -15.469 -5.969 4.178 4.291 10.01 6.969 16.469 6.969 c 12.703 0 23 -10.298 23 -23 0 -6.462 -2.677 -12.291 -6.969 -16.469 z" style="opacity:0.1"/>
 </g>
</svg>
