<svg version="1.1" viewBox="0 0 48 48" xmlns="http://www.w3.org/2000/svg">
 <defs>
  <linearGradient id="bg" x1="1" x2="47" gradientTransform="matrix(0 -1 1 0 -1.5e-6 48)" gradientUnits="userSpaceOnUse">
   <stop style="stop-color:#eeda32" offset="0"/>
   <stop style="stop-color:#efdc45" offset="1"/>
  </linearGradient>
 </defs>
 <path d="m36.31 5c5.859 4.062 9.688 10.831 9.688 18.5 0 12.426-10.07 22.5-22.5 22.5-7.669 0-14.438-3.828-18.5-9.688 1.037 1.822 2.306 3.499 3.781 4.969 4.085 3.712 9.514 5.969 15.469 5.969 12.703 0 23-10.298 23-23 0-5.954-2.256-11.384-5.969-15.469-1.469-1.475-3.147-2.744-4.969-3.781zm4.969 3.781c3.854 4.113 6.219 9.637 6.219 15.719 0 12.703-10.297 23-23 23-6.081 0-11.606-2.364-15.719-6.219 4.16 4.144 9.883 6.719 16.219 6.719 12.703 0 23-10.298 23-23 0-6.335-2.575-12.06-6.719-16.219z" style="opacity:.05"/>
 <path d="m41.28 8.781c3.712 4.085 5.969 9.514 5.969 15.469 0 12.703-10.297 23-23 23-5.954 0-11.384-2.256-15.469-5.969 4.113 3.854 9.637 6.219 15.719 6.219 12.703 0 23-10.298 23-23 0-6.081-2.364-11.606-6.219-15.719z" style="opacity:.1"/>
 <path d="m31.25 2.375c8.615 3.154 14.75 11.417 14.75 21.13 0 12.426-10.07 22.5-22.5 22.5-9.708 0-17.971-6.135-21.12-14.75a23 23 0 0 0 44.875-7 23 23 0 0 0-16-21.875z" style="opacity:.2"/>
 <path d="m24 1c12.703 0 23 10.297 23 23s-10.297 23-23 23-23-10.297-23-23 10.297-23 23-23z" style="fill:url(#bg)"/>
 <path d="m11.998 13.773 2e-3 18.227h10c0 3 0 3-2 5h-2v1h14v-1h-2c-2-2-2-2-2-5h10l-2e-3 -18.227c0-0.984-0.787-1.773-1.771-1.773z" style="opacity:.1"/>
 <path d="m12.771 11c-0.984 0-1.7734 0.78944-1.7734 1.7734v15.227l13 2 13-2v-15.227c0-0.984-0.78748-1.7734-1.7715-1.7734h-22.453-0.001954z" style="fill:#546971"/>
 <path d="m24 28-3 3c0 3 0 3-2 5l5 1 5-1c-2-2-2-2-2-5l-3-3z" style="fill:#cfd6d6"/>
 <path d="m17 36v1h14v-1h-14z" style="fill:#dddee2"/>
 <path d="m11 28v3h26v-3h-26z" style="fill:#dddee2"/>
 <path d="m13 13v13h22v-13h-22z" style="fill:#27a9de"/>
 <path d="m13 13v5.219c0.461 0.188 0.973 0.281 1.5 0.281 2.211 0 4-1.789 4-4 0-0.527-0.094-1.039-0.281-1.5" style="fill-opacity:.2;fill:#fff"/>
 <path d="m21 29h6v1h-6" style="fill:#546971"/>
 <path d="m18 20-5 2.8984v3.1016h8z" style="fill:#ddb842"/>
 <path d="m18 20 1 3-2 1.5 1.1016 1.5h2.8984l3-2z" style="fill:#fbdb52"/>
 <path d="m29 17-9 9h11l1-5z" style="fill:#ddb842"/>
 <path d="m29 17 1.5 3-1.5 3.3984 1.7812 2.6016h4.2188v-5.4453l-6-3.5547z" style="fill:#fbdb52"/>
 <path d="m13 13v3.813c0.316 0.113 0.645 0.188 1 0.188 1.656 0 3-1.344 3-3 0-0.355-0.074-0.684-0.188-1" style="fill:#f9ec2f"/>
 <path d="m40.03 7.531c3.712 4.084 5.969 9.514 5.969 15.469 0 12.703-10.297 23-23 23-5.954 0-11.384-2.256-15.469-5.969 4.178 4.291 10.01 6.969 16.469 6.969 12.703 0 23-10.298 23-23 0-6.462-2.677-12.291-6.969-16.469z" style="opacity:.1"/>
</svg>
