<svg xmlns="http://www.w3.org/2000/svg" viewBox="0 0 48 48">
 <defs>
  <linearGradient id="linearGradient3764" x1="1" x2="47" gradientUnits="userSpaceOnUse" gradientTransform="matrix(0,-1,1,0,-1.5e-6,47.999998)">
   <stop style="stop-color:#e4e4e4;stop-opacity:1"/>
   <stop offset="1" style="stop-color:#eee;stop-opacity:1"/>
  </linearGradient>
 </defs>
 <g>
  <path d="m 36.31 5 c 5.859 4.062 9.688 10.831 9.688 18.5 c 0 12.426 -10.07 22.5 -22.5 22.5 c -7.669 0 -14.438 -3.828 -18.5 -9.688 c 1.037 1.822 2.306 3.499 3.781 4.969 c 4.085 3.712 9.514 5.969 15.469 5.969 c 12.703 0 23 -10.298 23 -23 c 0 -5.954 -2.256 -11.384 -5.969 -15.469 c -1.469 -1.475 -3.147 -2.744 -4.969 -3.781 z m 4.969 3.781 c 3.854 4.113 6.219 9.637 6.219 15.719 c 0 12.703 -10.297 23 -23 23 c -6.081 0 -11.606 -2.364 -15.719 -6.219 c 4.16 4.144 9.883 6.719 16.219 6.719 c 12.703 0 23 -10.298 23 -23 c 0 -6.335 -2.575 -12.06 -6.719 -16.219 z" style="opacity:0.05"/>
  <path d="m 41.28 8.781 c 3.712 4.085 5.969 9.514 5.969 15.469 c 0 12.703 -10.297 23 -23 23 c -5.954 0 -11.384 -2.256 -15.469 -5.969 c 4.113 3.854 9.637 6.219 15.719 6.219 c 12.703 0 23 -10.298 23 -23 c 0 -6.081 -2.364 -11.606 -6.219 -15.719 z" style="opacity:0.1"/>
  <path d="m 31.25 2.375 c 8.615 3.154 14.75 11.417 14.75 21.13 c 0 12.426 -10.07 22.5 -22.5 22.5 c -9.708 0 -17.971 -6.135 -21.12 -14.75 a 23 23 0 0 0 44.875 -7 a 23 23 0 0 0 -16 -21.875 z" style="opacity:0.2"/>
 </g>
 <g>
  <path d="m 24 1 c 12.703 0 23 10.297 23 23 c 0 12.703 -10.297 23 -23 23 -12.703 0 -23 -10.297 -23 -23 0 -12.703 10.297 -23 23 -23 z" style="fill:url(#linearGradient3764);fill-opacity:1"/>
 </g>
 <g>
  <g>
   <g transform="translate(1,1)">
    <g style="opacity:0.1">
     <!-- color: #eeeeee -->
     <g>
      <path d="m 9.25 12.996 c -0.691 0 -1.25 0.598 -1.25 1.336 l 0 2.668 l -3 0 l 0 9 l 5 0 l 0 2.664 c 0 0.738 0.512 1.332 1.145 1.332 l 13.711 0 c 0.633 0 1.146 -0.594 1.146 -1.332 l 0 -5.332 c 0 -0.738 -0.513 -1.336 -1.146 -1.336 l -13.711 0 c -0.633 0 -1.145 0.598 -1.145 1.336 l 0 1.668 l -4 0 l 0 -7 l 2 0 l 0 1.664 c 0 0.738 0.559 1.332 1.25 1.332 l 7.5 0 c 0.691 0 1.25 -0.594 1.25 -1.332 l 0 -5.332 c 0 -0.738 -0.559 -1.336 -1.25 -1.336 l -7.5 0 z m 12.75 1 c -0.551 0 -1 0.449 -1 1 l 0 4 c 0 0.555 0.449 1 1 1 l 6 0 c 0.551 0 1 -0.445 1 -1 l 0 -4 c 0 -0.551 -0.449 -1 -1 -1 l -6 0 z m 12 0 c -0.551 0 -1 0.449 -1 1 l 0 4 c 0 0.555 0.449 1 1 1 l 6 0 c 0.551 0 1 -0.445 1 -1 l 0 -4 c 0 -0.551 -0.449 -1 -1 -1 l -6 0 z m -4.75 8 c -0.691 0 -1.25 0.598 -1.25 1.336 l 0 5.332 c 0 0.738 0.559 1.332 1.25 1.332 l 7.5 0 c 0.691 0 1.25 -0.594 1.25 -1.332 l 0 -2.664 l 5 0 l 0 9 l -1 0 l 0 -2.668 c 0 -0.738 -0.559 -1.336 -1.25 -1.336 l -7.5 0 c -0.691 0 -1.25 0.598 -1.25 1.336 l 0 5.332 c 0 0.738 0.559 1.332 1.25 1.332 l 7.5 0 c 0.691 0 1.25 -0.594 1.25 -1.332 l 0 -1.664 l 2 0 l 0 -11 l -6 0 l 0 -1.668 c 0 -0.738 -0.559 -1.336 -1.25 -1.336 l -7.5 0 z m -19.25 10 c -0.551 0 -1 0.449 -1 1 l 0 4 c 0 0.555 0.449 1 1 1 l 6 0 c 0.551 0 1 -0.445 1 -1 l 0 -4 c 0 -0.551 -0.449 -1 -1 -1 l -6 0 z m 12 0 c -0.551 0 -1 0.449 -1 1 l 0 4 c 0 0.555 0.449 1 1 1 l 6 0 c 0.551 0 1 -0.445 1 -1 l 0 -4 c 0 -0.551 -0.449 -1 -1 -1 l -6 0 z" transform="translate(-1,-1)" style="fill:#000;fill-opacity:1;stroke:none;fill-rule:nonzero"/>
      <path d="m 9 12.996 l 6 0 c 0.551 0 1 0.449 1 1 l 0 4 c 0 0.555 -0.449 1 -1 1 l -6 0 c -0.551 0 -1 -0.445 -1 -1 l 0 -4 c 0 -0.551 0.449 -1 1 -1 m 0 0" style="fill:#000;fill-opacity:1;stroke:none;fill-rule:nonzero"/>
      <path d="m 11 21.996 l 12 0 c 0.551 0 1 0.449 1 1 l 0 4 c 0 0.555 -0.449 1 -1 1 l -12 0 c -0.551 0 -1 -0.445 -1 -1 l 0 -4 c 0 -0.551 0.449 -1 1 -1 m 0 0" style="fill:#000;fill-opacity:1;stroke:none;fill-rule:nonzero"/>
      <path d="m 29 21.996 l 6 0 c 0.551 0 1 0.449 1 1 l 0 4 c 0 0.555 -0.449 1 -1 1 l -6 0 c -0.551 0 -1 -0.445 -1 -1 l 0 -4 c 0 -0.551 0.449 -1 1 -1 m 0 0" style="fill:#000;fill-opacity:1;stroke:none;fill-rule:nonzero"/>
      <path d="m 33 30.996 l 6 0 c 0.551 0 1 0.449 1 1 l 0 4 c 0 0.555 -0.449 1 -1 1 l -6 0 c -0.551 0 -1 -0.445 -1 -1 l 0 -4 c 0 -0.551 0.449 -1 1 -1 m 0 0" style="fill:#000;fill-opacity:1;stroke:none;fill-rule:nonzero"/>
     </g>
    </g>
   </g>
  </g>
 </g>
 <g>
  <g>
   <!-- color: #eeeeee -->
   <g>
    <path d="m 8.25 11.996 l 7.5 0 c 0.691 0 1.25 0.598 1.25 1.336 l 0 5.332 c 0 0.738 -0.559 1.332 -1.25 1.332 l -7.5 0 c -0.691 0 -1.25 -0.594 -1.25 -1.332 l 0 -5.332 c 0 -0.738 0.559 -1.336 1.25 -1.336 m 0 0" style="fill:#c60606;fill-opacity:1;stroke:none;fill-rule:nonzero"/>
    <path d="m 9 12.996 l 6 0 c 0.551 0 1 0.449 1 1 l 0 4 c 0 0.555 -0.449 1 -1 1 l -6 0 c -0.551 0 -1 -0.445 -1 -1 l 0 -4 c 0 -0.551 0.449 -1 1 -1 m 0 0" style="fill:#ababab;fill-opacity:1;stroke:none;fill-rule:nonzero"/>
    <path d="m 21 12.996 l 6 0 c 0.551 0 1 0.449 1 1 l 0 4 c 0 0.555 -0.449 1 -1 1 l -6 0 c -0.551 0 -1 -0.445 -1 -1 l 0 -4 c 0 -0.551 0.449 -1 1 -1 m 0 0" style="fill:#ababab;fill-opacity:1;stroke:none;fill-rule:nonzero"/>
    <path d="m 33 12.996 l 6 0 c 0.551 0 1 0.449 1 1 l 0 4 c 0 0.555 -0.449 1 -1 1 l -6 0 c -0.551 0 -1 -0.445 -1 -1 l 0 -4 c 0 -0.551 0.449 -1 1 -1 m 0 0" style="fill:#ababab;fill-opacity:1;stroke:none;fill-rule:nonzero"/>
    <path d="m 10.145 20.996 l 13.711 0 c 0.633 0 1.145 0.598 1.145 1.336 l 0 5.332 c 0 0.738 -0.512 1.332 -1.145 1.332 l -13.711 0 c -0.633 0 -1.145 -0.594 -1.145 -1.332 l 0 -5.332 c 0 -0.738 0.512 -1.336 1.145 -1.336 m 0 0" style="fill:#c60606;fill-opacity:1;stroke:none;fill-rule:nonzero"/>
    <path d="m 11 21.996 l 12 0 c 0.551 0 1 0.449 1 1 l 0 4 c 0 0.555 -0.449 1 -1 1 l -12 0 c -0.551 0 -1 -0.445 -1 -1 l 0 -4 c 0 -0.551 0.449 -1 1 -1 m 0 0" style="fill:#ababab;fill-opacity:1;stroke:none;fill-rule:nonzero"/>
    <path d="m 28.25 20.996 l 7.5 0 c 0.691 0 1.25 0.598 1.25 1.336 l 0 5.332 c 0 0.738 -0.559 1.332 -1.25 1.332 l -7.5 0 c -0.691 0 -1.25 -0.594 -1.25 -1.332 l 0 -5.332 c 0 -0.738 0.559 -1.336 1.25 -1.336 m 0 0" style="fill:#4b9cf4;fill-opacity:1;stroke:none;fill-rule:nonzero"/>
    <path d="m 29 21.996 l 6 0 c 0.551 0 1 0.449 1 1 l 0 4 c 0 0.555 -0.449 1 -1 1 l -6 0 c -0.551 0 -1 -0.445 -1 -1 l 0 -4 c 0 -0.551 0.449 -1 1 -1 m 0 0" style="fill:#ababab;fill-opacity:1;stroke:none;fill-rule:nonzero"/>
    <path d="m 9 30.996 l 6 0 c 0.551 0 1 0.449 1 1 l 0 4 c 0 0.555 -0.449 1 -1 1 l -6 0 c -0.551 0 -1 -0.445 -1 -1 l 0 -4 c 0 -0.551 0.449 -1 1 -1 m 0 0" style="fill:#ababab;fill-opacity:1;stroke:none;fill-rule:nonzero"/>
    <path d="m 21 30.996 l 6 0 c 0.551 0 1 0.449 1 1 l 0 4 c 0 0.555 -0.449 1 -1 1 l -6 0 c -0.551 0 -1 -0.445 -1 -1 l 0 -4 c 0 -0.551 0.449 -1 1 -1 m 0 0" style="fill:#ababab;fill-opacity:1;stroke:none;fill-rule:nonzero"/>
    <path d="m 32.25 29.996 l 7.5 0 c 0.691 0 1.25 0.598 1.25 1.336 l 0 5.332 c 0 0.738 -0.559 1.332 -1.25 1.332 l -7.5 0 c -0.691 0 -1.25 -0.594 -1.25 -1.332 l 0 -5.332 c 0 -0.738 0.559 -1.336 1.25 -1.336 m 0 0" style="fill:#4b9cf4;fill-opacity:1;stroke:none;fill-rule:nonzero"/>
    <path d="m 33 30.996 l 6 0 c 0.551 0 1 0.449 1 1 l 0 4 c 0 0.555 -0.449 1 -1 1 l -6 0 c -0.551 0 -1 -0.445 -1 -1 l 0 -4 c 0 -0.551 0.449 -1 1 -1 m 0 0" style="fill:#ababab;fill-opacity:1;stroke:none;fill-rule:nonzero"/>
    <path d="m 8 17 l -3 0 l 0 7 l 5 0 l 0 1 l -6 0 l 0 -9 l 4 0 m 0 1" style="fill:#c60606;fill-opacity:1;stroke:none;fill-rule:nonzero"/>
    <path d="m 40.5 34 l 1.5 0 l 0 -9 l -6 0 l 0 -1 l 7 0 l 0 11 l -2.5 0 m 0 -1" style="fill:#4b9cf4;fill-opacity:1;stroke:none;fill-rule:nonzero"/>
   </g>
  </g>
 </g>
 <g>
  <path d="m 40.03 7.531 c 3.712 4.084 5.969 9.514 5.969 15.469 0 12.703 -10.297 23 -23 23 c -5.954 0 -11.384 -2.256 -15.469 -5.969 4.178 4.291 10.01 6.969 16.469 6.969 c 12.703 0 23 -10.298 23 -23 0 -6.462 -2.677 -12.291 -6.969 -16.469 z" style="opacity:0.1"/>
 </g>
</svg>
