<svg xmlns="http://www.w3.org/2000/svg" viewBox="0 0 48 48">
 <g>
  <path d="m 36.31 5 c 5.859 4.062 9.688 10.831 9.688 18.5 c 0 12.426 -10.07 22.5 -22.5 22.5 c -7.669 0 -14.438 -3.828 -18.5 -9.688 c 1.037 1.822 2.306 3.499 3.781 4.969 c 4.085 3.712 9.514 5.969 15.469 5.969 c 12.703 0 23 -10.298 23 -23 c 0 -5.954 -2.256 -11.384 -5.969 -15.469 c -1.469 -1.475 -3.147 -2.744 -4.969 -3.781 z m 4.969 3.781 c 3.854 4.113 6.219 9.637 6.219 15.719 c 0 12.703 -10.297 23 -23 23 c -6.081 0 -11.606 -2.364 -15.719 -6.219 c 4.16 4.144 9.883 6.719 16.219 6.719 c 12.703 0 23 -10.298 23 -23 c 0 -6.335 -2.575 -12.06 -6.719 -16.219 z" style="opacity:0.05"/>
  <path d="m 41.28 8.781 c 3.712 4.085 5.969 9.514 5.969 15.469 c 0 12.703 -10.297 23 -23 23 c -5.954 0 -11.384 -2.256 -15.469 -5.969 c 4.113 3.854 9.637 6.219 15.719 6.219 c 12.703 0 23 -10.298 23 -23 c 0 -6.081 -2.364 -11.606 -6.219 -15.719 z" style="opacity:0.1"/>
  <path d="m 31.25 2.375 c 8.615 3.154 14.75 11.417 14.75 21.13 c 0 12.426 -10.07 22.5 -22.5 22.5 c -9.708 0 -17.971 -6.135 -21.12 -14.75 a 23 23 0 0 0 44.875 -7 a 23 23 0 0 0 -16 -21.875 z" style="opacity:0.2"/>
 </g>
 <path d="m 24 1 c -1.721 0 -3.387 0.204 -5 0.563 l 0 44.875 c 1.613 0.358 3.279 0.563 5 0.563 c 1.721 0 3.387 -0.204 5 -0.563 l 0 -44.875 c -1.613 -0.358 -3.279 -0.563 -5 -0.563 z" style="fill:#f3f284;fill-opacity:1;stroke:none;fill-rule:nonzero"/>
 <path d="m 9 6.563 c -4.897 4.218 -8 10.467 -8 17.438 c 0 6.971 3.103 13.22 8 17.438 l 0 -34.875 z" style="fill:#9ab9dd;fill-opacity:1;stroke:none;fill-rule:nonzero"/>
 <path d="m 19 1.563 c -3.76 0.835 -7.182 2.573 -10 5 l 0 34.875 c 2.818 2.427 6.24 4.165 10 5 l 0 -44.875 z" style="fill:#9add9c;fill-opacity:1;stroke:none;fill-rule:nonzero"/>
 <path d="m 29 1.563 l 0 44.875 c 3.76 -0.835 7.182 -2.573 10 -5 l 0 -34.875 c -2.818 -2.427 -6.24 -4.165 -10 -5 z" style="fill:#edb968;fill-opacity:1;stroke:none;fill-rule:nonzero"/>
 <path d="m 39 6.563 l 0 34.875 c 4.897 -4.218 8 -10.467 8 -17.438 c 0 -6.971 -3.103 -13.22 -8 -17.438 z" style="fill:#ed8e68;fill-opacity:1;stroke:none;fill-rule:nonzero"/>
 <g>
  <path d="m 40.03 7.531 c 3.712 4.084 5.969 9.514 5.969 15.469 0 12.703 -10.297 23 -23 23 c -5.954 0 -11.384 -2.256 -15.469 -5.969 4.178 4.291 10.01 6.969 16.469 6.969 c 12.703 0 23 -10.298 23 -23 0 -6.462 -2.677 -12.291 -6.969 -16.469 z" style="opacity:0.1"/>
 </g>
</svg>
