<svg xmlns="http://www.w3.org/2000/svg" xmlns:xlink="http://www.w3.org/1999/xlink" viewBox="0 0 48 48">
 <defs>
  <linearGradient id="linearGradient3764" x1="1" x2="47" gradientUnits="userSpaceOnUse" gradientTransform="matrix(0,-1,1,0,-1.5e-6,47.999998)">
   <stop style="stop-color:#8358b4;stop-opacity:1"/>
   <stop offset="1" style="stop-color:#8d65ba;stop-opacity:1"/>
  </linearGradient>
 </defs>
 <g>
  <path d="m 36.31 5 c 5.859 4.062 9.688 10.831 9.688 18.5 c 0 12.426 -10.07 22.5 -22.5 22.5 c -7.669 0 -14.438 -3.828 -18.5 -9.688 c 1.037 1.822 2.306 3.499 3.781 4.969 c 4.085 3.712 9.514 5.969 15.469 5.969 c 12.703 0 23 -10.298 23 -23 c 0 -5.954 -2.256 -11.384 -5.969 -15.469 c -1.469 -1.475 -3.147 -2.744 -4.969 -3.781 z m 4.969 3.781 c 3.854 4.113 6.219 9.637 6.219 15.719 c 0 12.703 -10.297 23 -23 23 c -6.081 0 -11.606 -2.364 -15.719 -6.219 c 4.16 4.144 9.883 6.719 16.219 6.719 c 12.703 0 23 -10.298 23 -23 c 0 -6.335 -2.575 -12.06 -6.719 -16.219 z" style="opacity:0.05"/>
  <path d="m 41.28 8.781 c 3.712 4.085 5.969 9.514 5.969 15.469 c 0 12.703 -10.297 23 -23 23 c -5.954 0 -11.384 -2.256 -15.469 -5.969 c 4.113 3.854 9.637 6.219 15.719 6.219 c 12.703 0 23 -10.298 23 -23 c 0 -6.081 -2.364 -11.606 -6.219 -15.719 z" style="opacity:0.1"/>
  <path d="m 31.25 2.375 c 8.615 3.154 14.75 11.417 14.75 21.13 c 0 12.426 -10.07 22.5 -22.5 22.5 c -9.708 0 -17.971 -6.135 -21.12 -14.75 a 23 23 0 0 0 44.875 -7 a 23 23 0 0 0 -16 -21.875 z" style="opacity:0.2"/>
 </g>
 <g>
  <path d="m 24 1 c 12.703 0 23 10.297 23 23 c 0 12.703 -10.297 23 -23 23 -12.703 0 -23 -10.297 -23 -23 0 -12.703 10.297 -23 23 -23 z" style="fill:url(#linearGradient3764);fill-opacity:1"/>
 </g>
 <g>
  <g>
   <g transform="translate(1,1)">
    <g style="opacity:0.1">
     <!-- color: #8d65ba -->
     <g>
      <path d="m 41.621 22.883 c -0.375 -0.527 -0.789 -1.023 -1.207 -1.512 c -2.242 -2.625 -4.816 -4.965 -7.637 -6.664 c -1.801 -1.086 -3.73 -1.961 -5.727 -2.383 c -1.016 -0.211 -2.01 -0.32 -3.059 -0.324 c -1.016 0 -2.031 0.113 -3.047 0.324 c -2 0.422 -3.922 1.297 -5.723 2.383 c -2.82 1.699 -5.398 4.04 -7.648 6.664 c -0.414 0.488 -0.82 0.984 -1.195 1.512 c -0.512 0.703 -0.512 1.531 0 2.234 c 1.145 1.605 2.512 3.03 3.895 4.34 c 2.992 2.809 6.418 5.16 10.195 6.109 c 1.168 0.293 2.34 0.434 3.516 0.434 c 1.191 0 2.355 -0.141 3.523 -0.434 c 3.777 -0.949 7.207 -3.301 10.203 -6.109 c 1.391 -1.305 2.754 -2.734 3.902 -4.34 c 0.504 -0.703 0.504 -1.531 0 -2.234 m 0 0" style="fill:#000;fill-opacity:1;stroke:none;fill-rule:nonzero"/>
      <use xlink:href="#SVGCleanerId_0"/>
     </g>
    </g>
   </g>
  </g>
 </g>
 <g>
  <g>
   <!-- color: #8d65ba -->
   <g>
    <path d="M 41.621,22.883 C 41.246,22.356 40.832,21.86 40.414,21.371 38.172,18.746 35.598,16.406 32.777,14.707 30.976,13.621 29.047,12.746 27.05,12.324 26.034,12.113 25.04,12.004 23.991,12 c -1.016,0 -2.031,0.113 -3.047,0.324 -2,0.422 -3.922,1.297 -5.723,2.383 -2.82,1.699 -5.398,4.04 -7.648,6.664 -0.414,0.488 -0.82,0.984 -1.195,1.512 -0.512,0.703 -0.512,1.531 0,2.234 1.145,1.605 2.512,3.03 3.895,4.34 2.992,2.809 6.418,5.16 10.195,6.109 1.168,0.293 2.34,0.434 3.516,0.434 1.191,0 2.355,-0.141 3.523,-0.434 3.777,-0.949 7.207,-3.301 10.203,-6.109 1.391,-1.305 2.754,-2.734 3.902,-4.34 0.504,-0.703 0.504,-1.531 0,-2.234 m 0,0" style="fill:#ececeb;fill-opacity:1;stroke:none;fill-rule:nonzero"/>
    <path d="m 33 24 c 0 4.969 -4.03 9 -9 9 -4.969 0 -9 -4.03 -9 -9 0 -4.969 4.03 -9 9 -9 4.969 0 9 4.03 9 9 m 0 0" style="fill:#4586f9;fill-opacity:1;stroke:none;fill-rule:nonzero"/>
    <path d="m 29 24 c 0 2.758 -2.238 4.996 -5 4.996 -2.762 0 -5 -2.238 -5 -4.996 0 -2.762 2.238 -5 5 -5 2.762 0 5 2.238 5 5 m 0 0" id="SVGCleanerId_0" style="fill:#141414;fill-opacity:1;stroke:none;fill-rule:nonzero"/>
    <path d="m 28 22 c 0 1.105 -0.895 2 -2 2 -1.105 0 -2 -0.895 -2 -2 0 -1.105 0.895 -2 2 -2 1.105 0 2 0.895 2 2 m 0 0" style="fill:#f9f9f9;fill-opacity:1;stroke:none;fill-rule:nonzero"/>
    <path d="m 30.984,13.719 -16.25,19.27 c 0.742,0.48 1.496,0.91 2.273,1.293 L 33.249,15.005 C 32.526,14.501 31.686,14.079 30.983,13.72 m 0,0" style="fill:#d5122d;fill-opacity:1;stroke:none;fill-rule:nonzero"/>
   </g>
  </g>
 </g>
 <g>
  <path d="m 40.03 7.531 c 3.712 4.084 5.969 9.514 5.969 15.469 0 12.703 -10.297 23 -23 23 c -5.954 0 -11.384 -2.256 -15.469 -5.969 4.178 4.291 10.01 6.969 16.469 6.969 c 12.703 0 23 -10.298 23 -23 0 -6.462 -2.677 -12.291 -6.969 -16.469 z" style="opacity:0.1"/>
 </g>
</svg>
