<svg version="1.1" viewBox="0 0 48 48" xmlns="http://www.w3.org/2000/svg">
 <defs>
  <linearGradient id="bg" x1="1" x2="47" gradientTransform="matrix(0 -1 1 0 -1.5e-6 48)" gradientUnits="userSpaceOnUse">
   <stop style="stop-color:#51c8d3" offset="0"/>
   <stop style="stop-color:#61ced7" offset="1"/>
  </linearGradient>
 </defs>
 <path d="m36.3 5c5.86 4.06 9.69 10.8 9.69 18.5 0 12.4-10.1 22.5-22.5 22.5-7.67 0-14.4-3.83-18.5-9.69 1.04 1.82 2.31 3.5 3.78 4.97 4.08 3.71 9.51 5.97 15.5 5.97 12.7 0 23-10.3 23-23 0-5.95-2.26-11.4-5.97-15.5-1.47-1.48-3.15-2.74-4.97-3.78zm4.97 3.78c3.85 4.11 6.22 9.64 6.22 15.7 0 12.7-10.3 23-23 23-6.08 0-11.6-2.36-15.7-6.22 4.16 4.14 9.88 6.72 16.2 6.72 12.7 0 23-10.3 23-23 0-6.34-2.58-12.1-6.72-16.2z" style="opacity:.05"/>
 <path d="m41.3 8.78c3.71 4.08 5.97 9.51 5.97 15.5 0 12.7-10.3 23-23 23-5.95 0-11.4-2.26-15.5-5.97 4.11 3.85 9.64 6.22 15.7 6.22 12.7 0 23-10.3 23-23 0-6.08-2.36-11.6-6.22-15.7z" style="opacity:.1"/>
 <path d="m31.2 2.38c8.62 3.15 14.8 11.4 14.8 21.1 0 12.4-10.1 22.5-22.5 22.5-9.71 0-18-6.14-21.1-14.8a23 23 0 0 0 44.9-7 23 23 0 0 0-16-21.9z" style="opacity:.2"/>
 <path d="m24 1c12.7 0 23 10.3 23 23s-10.3 23-23 23-23-10.3-23-23 10.3-23 23-23z" style="fill:url(#bg)"/>
 <path d="m12 32.2c0 0.98 0.793 1.77 1.77 1.77h3.22v3.12c0 0.492 0.397 0.887 0.889 0.887h14.2c0.492 0 0.887-0.395 0.887-0.887v-3.12h3.23c0.98 0 1.77-0.791 1.77-1.77v-12.5c0-0.98-0.791-1.77-1.77-1.77h-3.23v-3l-3-3z" style="opacity:.1"/>
 <path d="m12.8 17h22.5c0.98 0 1.77 0.793 1.77 1.77v12.5c0 0.98-0.793 1.77-1.77 1.77h-22.5c-0.98 0-1.77-0.793-1.77-1.77v-12.5c0-0.98 0.793-1.77 1.77-1.77" style="fill:#5c6070"/>
 <path d="m15 20v2h18v-2h-18zm-4 5v6.22c0 0.98 0.801 1.78 1.78 1.78h22.4c0.98 0 1.78-0.801 1.78-1.78v-6.22h-26zm4 3h18v2h-18v-2z" style="fill:#394556"/>
 <path d="m16.9 11c-0.492 0-0.875 0.383-0.875 0.875v9.12h16v-7l-3-3h-12.1z" style="fill:#ececde"/>
 <path d="m32 29v7.11c0 0.492-0.395 0.887-0.887 0.887h-14.2c-0.492 0-0.887-0.395-0.887-0.887v-7.11" style="fill:#ececde"/>
 <path d="m29 11v3h3" style="fill:#fff"/>
 <path d="m29 14h3v3" style="fill-opacity:.2"/>
 <path d="m19 13v1h9v-1h-9zm0 2v1h9v-1h-9zm0 2v1h9v-1h-9zm0 2v1h6v-1h-6z" style="opacity:.7;fill:#696e78"/>
 <path d="m40 7.53c3.71 4.08 5.97 9.51 5.97 15.5 0 12.7-10.3 23-23 23-5.95 0-11.4-2.26-15.5-5.97 4.18 4.29 10 6.97 16.5 6.97 12.7 0 23-10.3 23-23 0-6.46-2.68-12.3-6.97-16.5z" style="opacity:.1"/>
</svg>
