<svg version="1.1" viewBox="0 0 48 48" xmlns="http://www.w3.org/2000/svg">
 <defs>
  <linearGradient id="bg" x2="0" y1="1" y2="47" gradientUnits="userSpaceOnUse">
   <stop style="stop-color:#6bbd79" offset="0"/>
   <stop style="stop-color:#5eb76d" offset="1"/>
  </linearGradient>
 </defs>
 <path d="m36.31 5c5.859 4.062 9.688 10.831 9.688 18.5 0 12.426-10.07 22.5-22.5 22.5-7.669 0-14.438-3.828-18.5-9.688 1.037 1.822 2.306 3.499 3.781 4.969 4.085 3.712 9.514 5.969 15.469 5.969 12.703 0 23-10.298 23-23 0-5.954-2.256-11.384-5.969-15.469-1.469-1.475-3.147-2.744-4.969-3.781zm4.969 3.781c3.854 4.113 6.219 9.637 6.219 15.719 0 12.703-10.297 23-23 23-6.081 0-11.606-2.364-15.719-6.219 4.16 4.144 9.883 6.719 16.219 6.719 12.703 0 23-10.298 23-23 0-6.335-2.575-12.06-6.719-16.219z" style="opacity:.05"/>
 <path d="m41.28 8.781c3.712 4.085 5.969 9.514 5.969 15.469 0 12.703-10.297 23-23 23-5.954 0-11.384-2.256-15.469-5.969 4.113 3.854 9.637 6.219 15.719 6.219 12.703 0 23-10.298 23-23 0-6.081-2.364-11.606-6.219-15.719z" style="opacity:.1"/>
 <path d="m31.25 2.375c8.615 3.154 14.75 11.417 14.75 21.13 0 12.426-10.07 22.5-22.5 22.5-9.708 0-17.971-6.135-21.12-14.75a23 23 0 0 0 44.875-7 23 23 0 0 0-16-21.875z" style="opacity:.2"/>
 <circle cx="24" cy="24" r="23" style="fill:url(#bg)"/>
 <path d="m40.03 7.531c3.712 4.084 5.969 9.514 5.969 15.469 0 12.703-10.297 23-23 23-5.954 0-11.384-2.256-15.469-5.969 4.178 4.291 10.01 6.969 16.469 6.969 12.703 0 23-10.298 23-23 0-6.462-2.677-12.291-6.969-16.469z" style="opacity:.1"/>
 <path d="m32 13a3 3 0 0 0-2.9922 2.9453l-12.645 4.2129a3 3 0 0 0-2.3633-1.1582 3 3 0 0 0-3 3 3 3 0 0 0 3 3 3 3 0 0 0 1.0645-0.2207l8.3359 9.7246a3 3 0 0 0-0.40039 1.4961 3 3 0 0 0 3 3 3 3 0 0 0 3-3 3 3 0 0 0-1.2305-2.418l4.3809-14.602a3 3 0 0 0 2.8496-2.9805 3 3 0 0 0-3-3zm-2.3398 4.8359a3 3 0 0 0 0.57812 0.56055l-4.3867 14.623a3 3 0 0 0-0.91602 0.20117l-8.3359-9.7266a3 3 0 0 0 0.39258-1.4375z" style="opacity:.1"/>
 <path d="m32.512 13.443-21.238 7.0781 14.158 16.52zm-3.0215 3.1152-4.9219 16.402-9.8398-11.482z" style="fill:#e6e6e6"/>
 <path d="m32.512 13.443-3.0879 1.0293c-0.27565 0.46191-0.42204 0.98944-0.42383 1.5273 3e-3 0.23318 0.03313 0.46521 0.08984 0.69141l0.40039-0.13281-0.20117 0.66992c0.32244 0.70417 0.90472 1.2564 1.625 1.541zm-17.361 5.7852-3.7266 1.2422c-0.02472 0.04754-0.04817 0.09574-0.07031 0.14453l3.6055 4.207c0.6511-0.22024 1.2068-0.65737 1.5742-1.2383l-1.8047-2.1055 2.0215-0.67383c-0.30904-0.71267-0.88246-1.2777-1.5996-1.5762z" style="opacity:.1"/>
 <path d="m31 12a3 3 0 0 0-3 3 3 3 0 0 0 3 3 3 3 0 0 0 3-3 3 3 0 0 0-3-3zm-18 6a3 3 0 0 0-3 3 3 3 0 0 0 3 3 3 3 0 0 0 3-3 3 3 0 0 0-3-3zm12 14a3 3 0 0 0-3 3 3 3 0 0 0 3 3 3 3 0 0 0 3-3 3 3 0 0 0-3-3z" style="fill:#f9f9f9"/>
</svg>
