<?xml version="1.0" encoding="UTF-8"?>
<svg version="1.1" viewBox="0 0 48 48" xmlns="http://www.w3.org/2000/svg">
 <defs>
  <linearGradient id="bg" x2="0" y1="1" y2="47" gradientUnits="userSpaceOnUse">
   <stop style="stop-color:#dfe1ec" offset="0"/>
   <stop style="stop-color:#d3d5e4" offset="1"/>
  </linearGradient>
 </defs>
 <path d="m36.3 5c5.86 4.06 9.69 10.8 9.69 18.5 0 12.4-10.1 22.5-22.5 22.5-7.67 0-14.4-3.83-18.5-9.69 1.04 1.82 2.31 3.5 3.78 4.97 4.08 3.71 9.51 5.97 15.5 5.97 12.7 0 23-10.3 23-23 0-5.95-2.26-11.4-5.97-15.5-1.47-1.48-3.15-2.74-4.97-3.78zm4.97 3.78c3.85 4.11 6.22 9.64 6.22 15.7 0 12.7-10.3 23-23 23-6.08 0-11.6-2.36-15.7-6.22 4.16 4.14 9.88 6.72 16.2 6.72 12.7 0 23-10.3 23-23 0-6.34-2.58-12.1-6.72-16.2z" style="opacity:.05"/>
 <path d="m41.3 8.78c3.71 4.08 5.97 9.51 5.97 15.5 0 12.7-10.3 23-23 23-5.95 0-11.4-2.26-15.5-5.97 4.11 3.85 9.64 6.22 15.7 6.22 12.7 0 23-10.3 23-23 0-6.08-2.36-11.6-6.22-15.7z" style="opacity:.1"/>
 <path d="m31.2 2.38c8.62 3.15 14.8 11.4 14.8 21.1 0 12.4-10.1 22.5-22.5 22.5-9.71 0-18-6.14-21.1-14.8a23 23 0 0 0 44.9-7 23 23 0 0 0-16-21.9z" style="opacity:.2"/>
 <circle cx="24" cy="24" r="23" style="fill:url(#bg)"/>
 <path d="m40 7.53c3.71 4.08 5.97 9.51 5.97 15.5 0 12.7-10.3 23-23 23-5.95 0-11.4-2.26-15.5-5.97 4.18 4.29 10 6.97 16.5 6.97 12.7 0 23-10.3 23-23 0-6.46-2.68-12.3-6.97-16.5z" style="opacity:.1"/>
 <path d="m12 32c0 1.66 1.34 3 3 3h20c1.66 0 3-1.34 3-3v-15.5c-5e-4 -0.572-0.326-1.09-0.84-1.35-0.514-0.252-1.13-0.19-1.58 0.16z" style="opacity:.1"/>
 <path d="m12.4 14c-0.207 0.0075-0.413 0.0579-0.605 0.152-0.514 0.252-0.839 0.774-0.84 1.35v3.02l9 10.5 4.62-7.14c-0.197 0.0897-0.407 0.138-0.619 0.139-0.318 6.87e-4 -0.633-0.1-0.9-0.301l-9.68-7.38c-0.283-0.219-0.628-0.325-0.973-0.312zm23.1 0c-0.344-0.0125-0.69 0.0938-0.973 0.312l-2.58 1.97-2 8.72 2 9h2c1.66 0 3-1.34 3-3v-15.5c-5e-4 -0.572-0.326-1.09-0.84-1.35-0.193-0.0944-0.399-0.145-0.605-0.152z" style="fill:#b0aef9"/>
 <path d="m32 16.3-7.1 5.42c-0.0882 0.0667-0.184 0.118-0.281 0.162l-3.72 2.84c-0.266 0.203-0.583 0.3-0.9 0.301-0.318 6.87e-4 -0.634-0.098-0.9-0.301l-8.1-6.18v12.5c0 1.66 1.34 3 3 3h18z" style="fill:#546ee8"/>
</svg>
