<svg version="1.1" viewBox="0 0 48 48" xmlns="http://www.w3.org/2000/svg">
 <defs>
  <linearGradient id="bg" x1="1" x2="47" gradientTransform="matrix(0 -1 1 0 0 48)" gradientUnits="userSpaceOnUse">
   <stop style="stop-color:#e4e4e4" offset="0"/>
   <stop style="stop-color:#eee" offset="1"/>
  </linearGradient>
 </defs>
 <path d="m36.3 5c5.86 4.06 9.69 10.8 9.69 18.5 0 12.4-10.1 22.5-22.5 22.5-7.67 0-14.4-3.83-18.5-9.69 1.04 1.82 2.31 3.5 3.78 4.97 4.08 3.71 9.51 5.97 15.5 5.97 12.7 0 23-10.3 23-23 0-5.95-2.26-11.4-5.97-15.5-1.47-1.48-3.15-2.74-4.97-3.78zm4.97 3.78c3.85 4.11 6.22 9.64 6.22 15.7 0 12.7-10.3 23-23 23-6.08 0-11.6-2.36-15.7-6.22 4.16 4.14 9.88 6.72 16.2 6.72 12.7 0 23-10.3 23-23 0-6.34-2.58-12.1-6.72-16.2z" style="opacity:.05"/>
 <path d="m41.3 8.78c3.71 4.08 5.97 9.51 5.97 15.5 0 12.7-10.3 23-23 23-5.95 0-11.4-2.26-15.5-5.97 4.11 3.85 9.64 6.22 15.7 6.22 12.7 0 23-10.3 23-23 0-6.08-2.36-11.6-6.22-15.7z" style="opacity:.1"/>
 <path d="m31.2 2.38c8.62 3.15 14.8 11.4 14.8 21.1 0 12.4-10.1 22.5-22.5 22.5-9.71 0-18-6.14-21.1-14.8a23 23 0 0044.9-7 23 23 0 00-16-21.9z" style="opacity:.2"/>
 <path d="m24 1c12.7 0 23 10.3 23 23s-10.3 23-23 23-23-10.3-23-23 10.3-23 23-23z" style="fill:url(#bg)"/>
 <path d="m40 7.53c3.71 4.08 5.97 9.51 5.97 15.5 0 12.7-10.3 23-23 23-5.95 0-11.4-2.26-15.5-5.97 4.18 4.29 10 6.97 16.5 6.97 12.7 0 23-10.3 23-23 0-6.46-2.68-12.3-6.97-16.5z" style="opacity:.1"/>
 <path d="m23 30-4-1v-10c0-.554-.446-1-1-1l-5 3c0 .554.446 1 1 1l1 8c0 2.22 1.78 4 4 4h4v3c0 .554.446 1 1 1h2c.554 0 1-.446 1-1v-3h4c2.22 0 4-1.78 4-4v-8h-4v7l-4 1v-17c0-.554-.446-1-1-1zm8-16v2c2.21 0 4 1.79 4 4h2c0-3.31-2.69-6-6-6zm0 4v2h2c0-1.1-.895-2-2-2z" style="opacity:.1"/>
 <path d="m23 11c-.554 0-1 .446-1 1v17h-3c-.554 0-1-.446-1-1v-10c0-.554-.446-1-1-1h-4c-.554 0-1 .446-1 1v2c0 .554.446 1 1 1h1v8c0 2.22 1.78 4 4 4h4v3c0 .554.446 1 1 1h2c.554 0 1-.446 1-1v-3h4c2.22 0 4-1.78 4-4v-8h-4v7c0 .554-.446 1-1 1h-3v-17c0-.554-.446-1-1-1zm7 2v2c2.21 0 4 1.79 4 4h2c0-3.31-2.69-6-6-6zm0 4v2h2c0-1.1-.895-2-2-2z" style="fill:#7696c9"/>
</svg>
