<svg version="1.1" viewBox="0 0 48 48" xmlns="http://www.w3.org/2000/svg">
 <defs>
  <linearGradient id="bg" x2="0" y1="47" y2="1" gradientUnits="userSpaceOnUse">
   <stop style="stop-color:#3191db" offset="0"/>
   <stop style="stop-color:#459bde" offset="1"/>
  </linearGradient>
 </defs>
 <path d="m36.3 5c5.86 4.06 9.69 10.8 9.69 18.5 0 12.4-10.1 22.5-22.5 22.5-7.67 0-14.4-3.83-18.5-9.69 1.04 1.82 2.31 3.5 3.78 4.97 4.08 3.71 9.51 5.97 15.5 5.97 12.7 0 23-10.3 23-23 0-5.95-2.26-11.4-5.97-15.5-1.47-1.48-3.15-2.74-4.97-3.78zm4.97 3.78c3.85 4.11 6.22 9.64 6.22 15.7 0 12.7-10.3 23-23 23-6.08 0-11.6-2.36-15.7-6.22 4.16 4.14 9.88 6.72 16.2 6.72 12.7 0 23-10.3 23-23 0-6.34-2.58-12.1-6.72-16.2z" style="opacity:.05"/>
 <path d="m41.3 8.78c3.71 4.08 5.97 9.51 5.97 15.5 0 12.7-10.3 23-23 23-5.95 0-11.4-2.26-15.5-5.97 4.11 3.85 9.64 6.22 15.7 6.22 12.7 0 23-10.3 23-23 0-6.08-2.36-11.6-6.22-15.7z" style="opacity:.1"/>
 <path d="m31.2 2.38c8.62 3.15 14.8 11.4 14.8 21.1 0 12.4-10.1 22.5-22.5 22.5-9.71 0-18-6.14-21.1-14.8a23 23 0 0 0 44.9-7 23 23 0 0 0-16-21.9z" style="opacity:.2"/>
 <path d="m24 1c12.7 0 23 10.3 23 23s-10.3 23-23 23-23-10.3-23-23 10.3-23 23-23z" style="fill:url(#bg)"/>
 <path d="m40 7.53c3.71 4.08 5.97 9.51 5.97 15.5 0 12.7-10.3 23-23 23-5.95 0-11.4-2.26-15.5-5.97 4.18 4.29 10 6.97 16.5 6.97 12.7 0 23-10.3 23-23 0-6.46-2.68-12.3-6.97-16.5z" style="opacity:.1"/>
 <path d="m24.9 13.7c-1.02 0-1.85 0.829-1.85 1.85 0 1.02 0.829 1.85 1.85 1.85s1.85-0.827 1.85-1.85c0-1.02-0.827-1.85-1.85-1.85zm-12.9 2.77 11.1 1.85h4.19c-0.02 0.099-0.0312 0.202-0.0312 0.307 0 0.849 0.69 1.54 1.54 1.54 0.849 0 1.54-0.69 1.54-1.54 0-0.105-0.0112-0.208-0.0312-0.307h5.72l-5.9-0.455c-0.266-0.461-0.758-0.777-1.33-0.777-0.486 0-0.915 0.231-1.2 0.584l-15.6-1.2zm11.1 2.77v0.545l-5.08-0.391 5.08 0.846v0.846l-1.85 4.62-2.77 5.54 2.77 1.85-0.922-1.85 2.77-5.54-0.922 6.46 2.77 1.85-0.924-1.85v-0.0527l1.69 1.13-0.768-1.54 2.31-4.62-0.77 5.38 2.31 1.54-0.711-1.42 1.33 0.885-0.539-1.08 1.62-3.23-0.537 3.77 1.62 1.08-0.539-1.08v-2.15l1.08-4.31 0.539-1.08h-2.15v1.08l-1.08 2.69-1.38 2.77v-2.54l1.19-4.75 1.27 0.213h7.54l-8.7-0.668 0.236-0.947 0.77-1.54h-3.08v1.54l-0.307 0.764-1.77-0.137 0.695-2.78 0.178-0.354 1.21 0.201h10.8l-11.6-0.895 0.4-0.799h-3.69zm8.46 2.92c-0.594 0-1.08 0.482-1.08 1.08 0 0.594 0.484 1.08 1.08 1.08 0.594 0 1.08-0.484 1.08-1.08 0-0.594-0.482-1.08-1.08-1.08zm-6.41 1.8 1.7 0.283-1.13 2.84-1.69 3.38v-2z" style="opacity:.08"/>
 <path d="m27.8 16.1c-0.849 0-1.54 0.69-1.54 1.54 0 0.849 0.688 1.54 1.54 1.54s1.54-0.69 1.54-1.54c0-0.849-0.69-1.54-1.54-1.54zm-10.8 2.31 9.23 1.54h10.8l-20-1.54zm9.23 2.31v1.54l-1.54 3.85-2.31 4.62 2.31 1.54-0.768-1.54 2.31-4.62-0.77 5.38 2.31 1.54-0.77-1.54v-3.08l1.54-6.15 0.77-1.54h-3.08z" style="fill:#383838;opacity:.8"/>
 <path d="m29.3 17.6c0 0.637-0.517 1.15-1.15 1.15s-1.15-0.517-1.15-1.15 0.517-1.15 1.15-1.15 1.15 0.517 1.15 1.15z" style="fill:#e8e830;opacity:.8"/>
 <path d="m23.9 12.7c-1.02 0-1.85 0.829-1.85 1.85 0 1.02 0.827 1.85 1.85 1.85s1.85-0.827 1.85-1.85c0-1.02-0.827-1.85-1.85-1.85zm-12.9 2.77 11.1 1.85h12.9l-24-1.85zm11.1 2.77v1.85l-1.85 4.62-2.77 5.54 2.77 1.85-0.922-1.85 2.77-5.54-0.922 6.46 2.77 1.85-0.924-1.85v-3.69l1.85-7.38 0.924-1.85h-3.69z" style="fill:#474747"/>
 <path d="m25.8 14.5c0 0.764-0.62 1.38-1.38 1.38s-1.38-0.62-1.38-1.38 0.62-1.38 1.38-1.38 1.38 0.62 1.38 1.38z" style="fill:#e8e830"/>
 <path d="m30.5 21.2c-0.594 0-1.08 0.484-1.08 1.08 0 0.594 0.482 1.08 1.08 1.08 0.594 0 1.08-0.482 1.08-1.08 0-0.594-0.484-1.08-1.08-1.08zm-7.54 1.62 6.46 1.08h7.53l-14-1.08zm6.46 1.62v1.08l-1.08 2.69-1.62 3.23 1.62 1.08-0.539-1.08 1.62-3.23-0.539 3.77 1.62 1.08-0.537-1.08v-2.15l1.08-4.31 0.539-1.08h-2.15z" style="fill:#3d3d3d;opacity:.6"/>
 <path d="m31.6 22.2c0 0.446-0.362 0.808-0.808 0.808s-0.808-0.362-0.808-0.808 0.362-0.808 0.808-0.808 0.808 0.362 0.808 0.808z" style="fill:#e8e830;opacity:.6"/>
</svg>
