<svg version="1.1" viewBox="0 0 48 48" xmlns="http://www.w3.org/2000/svg">
 <defs>
  <linearGradient id="bg" x2="0" y1="1" y2="47" gradientUnits="userSpaceOnUse">
   <stop style="stop-color:#5ab1f7" offset="0"/>
   <stop style="stop-color:#44a7f6" offset="1"/>
  </linearGradient>
 </defs>
 <path d="m36.31 5c5.859 4.062 9.688 10.831 9.688 18.5 0 12.426-10.07 22.5-22.5 22.5-7.669 0-14.438-3.828-18.5-9.688 1.037 1.822 2.306 3.499 3.781 4.969 4.085 3.712 9.514 5.969 15.469 5.969 12.703 0 23-10.298 23-23 0-5.954-2.256-11.384-5.969-15.469-1.469-1.475-3.147-2.744-4.969-3.781zm4.969 3.781c3.854 4.113 6.219 9.637 6.219 15.719 0 12.703-10.297 23-23 23-6.081 0-11.606-2.364-15.719-6.219 4.16 4.144 9.883 6.719 16.219 6.719 12.703 0 23-10.298 23-23 0-6.335-2.575-12.06-6.719-16.219z" style="opacity:.05"/>
 <path d="m41.28 8.781c3.712 4.085 5.969 9.514 5.969 15.469 0 12.703-10.297 23-23 23-5.954 0-11.384-2.256-15.469-5.969 4.113 3.854 9.637 6.219 15.719 6.219 12.703 0 23-10.298 23-23 0-6.081-2.364-11.606-6.219-15.719z" style="opacity:.1"/>
 <path d="m31.25 2.375c8.615 3.154 14.75 11.417 14.75 21.13 0 12.426-10.07 22.5-22.5 22.5-9.708 0-17.971-6.135-21.12-14.75a23 23 0 0 0 44.875-7 23 23 0 0 0-16-21.875z" style="opacity:.2"/>
 <circle cx="24" cy="24" r="23" style="fill:url(#bg)"/>
 <path d="m40.03 7.531c3.712 4.084 5.969 9.514 5.969 15.469 0 12.703-10.297 23-23 23-5.954 0-11.384-2.256-15.469-5.969 4.178 4.291 10.01 6.969 16.469 6.969 12.703 0 23-10.298 23-23 0-6.462-2.677-12.291-6.969-16.469z" style="opacity:.1"/>
 <path d="m21 14c-1.0371 0-1.7712 0.65895-1.9609 1.6074 0 0-1.0391 5.1704-1.0391 11.393v0.27734c-0.59563 0.34637-1 0.984-1 1.7227 0 1.1046 0.89543 2 2 2 9 0 18-4 18-11 0-4-4-6-8-6-2.1612 0-4.3599 0.2376-6.5137 0.67188-0.27853-0.31229-0.65186-0.54432-1.0938-0.63282-0.11709-0.02361-0.27316-0.03668-0.39258-0.03906zm-3.0195 1.8965c-2.1639 0.78676-4.1967 1.8172-5.9805 3.1035-0.41594 0.29994-1 0.54167-1 2v1c0 1.1046 0.89543 2 2 2s2-0.89543 2-2v-0.21484c0.8037-0.41657 1.5732-0.7941 2.3359-1.1524 0.26822-2.7113 0.55775-4.2749 0.64453-4.7363zm11.02 2.1035c1.9378 9.8e-4 4 0.64371 4 2 0 4.1973-5.6366 6.2752-10.996 6.8359 0.01069-3.3367 0.32421-6.2031 0.59375-8.123 1.8739-0.45862 3.9266-0.71414 6.4023-0.71289zm-11 13.818v4.1816c0 1.1046 0.89543 2 2 2s2-0.89543 2-2v-4.1465c-0.99249 0.0952-1.9954 0.14648-3 0.14648-0.35172 0-0.68649-0.0676-1-0.18164z" style="opacity:.1"/>
 <path d="m20 13c-1.0371 0-1.7712 0.65895-1.9609 1.6074 0 0-1.0391 5.1704-1.0391 11.393v0.27734c-0.59563 0.34637-1 0.984-1 1.7227 0 1.1046 0.89543 2 2 2 9 0 18-4 18-11 0-4-4-6-8-6-2.1612 0-4.3599 0.2376-6.5137 0.67188-0.27853-0.31229-0.65186-0.54432-1.0938-0.63282-0.11709-0.02361-0.27316-0.03668-0.39258-0.03906zm-3.0195 1.8965c-2.1639 0.78676-4.1967 1.8172-5.9805 3.1035-0.41594 0.29994-1 0.54167-1 2v1c0 1.1046 0.89543 2 2 2s2-0.89543 2-2v-0.21484c0.8037-0.41657 1.5732-0.7941 2.3359-1.1524 0.26822-2.7113 0.55775-4.2749 0.64453-4.7363zm11.02 2.1035c1.9378 9.8e-4 4 0.64371 4 2 0 4.1973-5.6366 6.2752-10.996 6.8359 0.01069-3.3367 0.32421-6.2031 0.59375-8.123 1.8739-0.45862 3.9266-0.71414 6.4023-0.71289zm-11 13.818v4.1816c0 1.1046 0.89543 2 2 2s2-0.89543 2-2v-4.1465c-0.99249 0.0952-1.9954 0.14648-3 0.14648-0.35172 0-0.68649-0.0676-1-0.18164z" style="fill:#e7f4fe"/>
</svg>
