<svg version="1.1" viewBox="0 0 48 48" xmlns="http://www.w3.org/2000/svg">
 <defs>
  <linearGradient id="bg" x2="0" y1="1" y2="47" gradientUnits="userSpaceOnUse">
   <stop style="stop-color:#b4b4b4" offset="0"/>
   <stop style="stop-color:#aaa" offset="1"/>
  </linearGradient>
 </defs>
 <path d="m36.31 5c5.859 4.062 9.688 10.831 9.688 18.5 0 12.426-10.07 22.5-22.5 22.5-7.669 0-14.438-3.828-18.5-9.688 1.037 1.822 2.306 3.499 3.781 4.969 4.085 3.712 9.514 5.969 15.469 5.969 12.703 0 23-10.298 23-23 0-5.954-2.256-11.384-5.969-15.469-1.469-1.475-3.147-2.744-4.969-3.781zm4.969 3.781c3.854 4.113 6.219 9.637 6.219 15.719 0 12.703-10.297 23-23 23-6.081 0-11.606-2.364-15.719-6.219 4.16 4.144 9.883 6.719 16.219 6.719 12.703 0 23-10.298 23-23 0-6.335-2.575-12.06-6.719-16.219z" style="opacity:.05"/>
 <path d="m41.28 8.781c3.712 4.085 5.969 9.514 5.969 15.469 0 12.703-10.297 23-23 23-5.954 0-11.384-2.256-15.469-5.969 4.113 3.854 9.637 6.219 15.719 6.219 12.703 0 23-10.298 23-23 0-6.081-2.364-11.606-6.219-15.719z" style="opacity:.1"/>
 <path d="m31.25 2.375c8.615 3.154 14.75 11.417 14.75 21.13 0 12.426-10.07 22.5-22.5 22.5-9.708 0-17.971-6.135-21.12-14.75a23 23 0 0 0 44.875-7 23 23 0 0 0-16-21.875z" style="opacity:.2"/>
 <circle cx="24" cy="24" r="23" style="fill:url(#bg)"/>
 <path d="m40.03 7.531c3.712 4.084 5.969 9.514 5.969 15.469 0 12.703-10.297 23-23 23-5.954 0-11.384-2.256-15.469-5.969 4.178 4.291 10.01 6.969 16.469 6.969 12.703 0 23-10.298 23-23 0-6.462-2.677-12.291-6.969-16.469z" style="opacity:.1"/>
 <path d="m25 13c-5.5145-1.3e-5 -9.9881 4.4641-10 9.9785-8e-6 0.0072-8e-6 0.01432 0 0.02148v14h6v-4.8472c1.2607 0.55504 2.6225 0.84362 4 0.84766 1.2247-0.0041 2.4382-0.2332 3.5801-0.67578l3.7285 4.6758 4.6914-3.7402-3.7207-4.666c1.1186-1.6513 1.7178-3.5993 1.7207-5.5938 0-5.5228-4.4772-10-10-10zm0 6c2.2091 0 4 1.7909 4 4s-1.7909 4-4 4-4-1.7909-4-4 1.7909-4 4-4z" style="color-rendering:auto;color:#000000;image-rendering:auto;isolation:auto;mix-blend-mode:normal;opacity:.1;paint-order:normal;shape-rendering:auto;solid-color:#000000"/>
 <path d="m24 12c-5.5145-1.3e-5 -9.9881 4.4641-10 9.9785-8e-6 0.0072-8e-6 0.01432 0 0.02148v14h6v-4.8472c1.2607 0.55504 2.6225 0.84362 4 0.84766 1.2247-0.0041 2.4382-0.2332 3.5801-0.67578l3.7285 4.6758 4.6914-3.7402-3.7207-4.666c1.1186-1.6513 1.7178-3.5993 1.7207-5.5938 0-5.5228-4.4772-10-10-10zm0 6c2.2091 0 4 1.7909 4 4s-1.7909 4-4 4-4-1.7909-4-4 1.7909-4 4-4z" style="color-rendering:auto;color:#000000;fill:#f9f9f9;image-rendering:auto;isolation:auto;mix-blend-mode:normal;paint-order:normal;shape-rendering:auto;solid-color:#000000"/>
 <path d="m24 13a9 9 0 0 0-9 9v13h4v-5.5254a9 9 0 0 0 5 1.5254 9 9 0 0 0 9-9 9 9 0 0 0-9-9zm0 4a5 5 0 0 1 5 5 5 5 0 0 1-5 5 5 5 0 0 1-5-5 5 5 0 0 1 5-5z" style="color-rendering:auto;color:#000000;fill:#4b4b4b;image-rendering:auto;isolation:auto;mix-blend-mode:normal;paint-order:normal;shape-rendering:auto;solid-color:#000000"/>
</svg>
