<svg xmlns="http://www.w3.org/2000/svg" viewBox="0 0 48 48">
  <defs>
    <linearGradient y2="46" y1="2" x2="24" x1="24" gradientUnits="userSpaceOnUse" id="linearGradient4195">
      <stop style="stop-color:#e7eb7d;stop-opacity:1" offset="0" />
      <stop style="stop-color:#67c972;stop-opacity:1" offset="1" />
    </linearGradient>
  </defs>
  <g>
    <path style="opacity:0.05" d="m 36.31 5 c 5.859 4.062 9.688 10.831 9.688 18.5 c 0 12.426 -10.07 22.5 -22.5 22.5 c -7.669 0 -14.438 -3.828 -18.5 -9.688 c 1.037 1.822 2.306 3.499 3.781 4.969 c 4.085 3.712 9.514 5.969 15.469 5.969 c 12.703 0 23 -10.298 23 -23 c 0 -5.954 -2.256 -11.384 -5.969 -15.469 c -1.469 -1.475 -3.147 -2.744 -4.969 -3.781 z m 4.969 3.781 c 3.854 4.113 6.219 9.637 6.219 15.719 c 0 12.703 -10.297 23 -23 23 c -6.081 0 -11.606 -2.364 -15.719 -6.219 c 4.16 4.144 9.883 6.719 16.219 6.719 c 12.703 0 23 -10.298 23 -23 c 0 -6.335 -2.575 -12.06 -6.719 -16.219 z" />
    <path style="opacity:0.1" d="m 41.28 8.781 c 3.712 4.085 5.969 9.514 5.969 15.469 c 0 12.703 -10.297 23 -23 23 c -5.954 0 -11.384 -2.256 -15.469 -5.969 c 4.113 3.854 9.637 6.219 15.719 6.219 c 12.703 0 23 -10.298 23 -23 c 0 -6.081 -2.364 -11.606 -6.219 -15.719 z" />
    <path style="opacity:0.2" d="m 31.25 2.375 c 8.615 3.154 14.75 11.417 14.75 21.13 c 0 12.426 -10.07 22.5 -22.5 22.5 c -9.708 0 -17.971 -6.135 -21.12 -14.75 a 23 23 0 0 0 44.875 -7 a 23 23 0 0 0 -16 -21.875 z" />
  </g>
  <path d="M 47,24 A 23,23 0 0 1 24.000001,47 23,23 0 0 1 1,24 23,23 0 0 1 24.000001,0.99999951 23,23 0 0 1 47,24 Z" style="opacity:1;fill:url(#linearGradient4195);fill-opacity:1" />
  <g>
    <path style="opacity:0.1" d="m 40.03 7.531 c 3.712 4.084 5.969 9.514 5.969 15.469 0 12.703 -10.297 23 -23 23 c -5.954 0 -11.384 -2.256 -15.469 -5.969 4.178 4.291 10.01 6.969 16.469 6.969 c 12.703 0 23 -10.298 23 -23 0 -6.462 -2.677 -12.291 -6.969 -16.469 z" />
  </g>
  <g>
    <path d="m 12,12 26,0 0,26 -26,0 z" style="fill:#000000;fill-opacity:0.1" />
    <path style="fill:#303030;fill-opacity:1" d="m 11,11 26,0 0,26 -26,0 z" />
    <path style="fill:#f9f9f9;fill-opacity:1" d="m 14,14 4.325486,0 C 20.913449,14 22,15.273148 22,17.5 l 0,0.05 c 0,2.467593 -1.592593,3.45 -4,3.45 l -2,0 0,4 -2,0 z m 4,5 c 1.203704,0 2,-0.547222 2,-1.45 l 0,-0.05 c 0,-1.083333 -0.796296,-1.5 -2,-1.5 l -2,0 0,3 z m 6,0.440442 C 24,16.370998 25.689815,14 29,14 c 2.046296,0 3.126653,0.595143 4.149801,1.618292 l -1.306879,1.565597 C 31.00033,16.401481 30.083333,16 29,16 c -1.805556,0 -3,1.574701 -3,3.440442 l 0,-0.06019 C 26,21.245998 27.134259,23 29,23 c 1.203703,0 2.157408,-0.62299 3,-1.405398 l 1.371782,1.396766 C 32.288449,24.195072 31.046296,25 29,25 c -3.189815,0.06019 -5,-2.490114 -5,-5.559558" />
    <path style="opacity:1;fill:#f9f9f9;fill-opacity:1;" d="m 13,32 10,0 0,2 -10,0 z" />
  </g>
</svg>
