<svg version="1.1" viewBox="0 0 48 48" xmlns="http://www.w3.org/2000/svg">
 <defs>
  <linearGradient id="linearGradient3817" x1="1" x2="47" gradientTransform="matrix(0,-1,1,0,0,48)" gradientUnits="userSpaceOnUse">
   <stop style="stop-color:#093d7c" offset="0"/>
   <stop style="stop-color:#094690" offset="1"/>
  </linearGradient>
 </defs>
 <path d="m36.31 5c5.859 4.062 9.688 10.831 9.688 18.5 0 12.426-10.07 22.5-22.5 22.5-7.669 0-14.438-3.828-18.5-9.688 1.037 1.822 2.306 3.499 3.781 4.969 4.085 3.712 9.514 5.969 15.469 5.969 12.703 0 23-10.298 23-23 0-5.954-2.256-11.384-5.969-15.469-1.469-1.475-3.147-2.744-4.969-3.781zm4.969 3.781c3.854 4.113 6.219 9.637 6.219 15.719 0 12.703-10.297 23-23 23-6.081 0-11.606-2.364-15.719-6.219 4.16 4.144 9.883 6.719 16.219 6.719 12.703 0 23-10.298 23-23 0-6.335-2.575-12.06-6.719-16.219z" style="opacity:.05"/>
 <path d="m41.28 8.781c3.712 4.085 5.969 9.514 5.969 15.469 0 12.703-10.297 23-23 23-5.954 0-11.384-2.256-15.469-5.969 4.113 3.854 9.637 6.219 15.719 6.219 12.703 0 23-10.298 23-23 0-6.081-2.364-11.606-6.219-15.719z" style="opacity:.1"/>
 <path d="m31.25 2.375c8.615 3.154 14.75 11.417 14.75 21.13 0 12.426-10.07 22.5-22.5 22.5-9.708 0-17.971-6.135-21.12-14.75a23 23 0 0 0 44.875-7 23 23 0 0 0-16-21.875z" style="opacity:.2"/>
 <path d="m24 47c-12.703 0-23-10.297-23-23s10.297-23 23-23 23 10.297 23 23-10.297 23-23 23z" style="fill:url(#linearGradient3817)"/>
 <path d="m40.03 7.531c3.712 4.084 5.969 9.514 5.969 15.469 0 12.703-10.297 23-23 23-5.954 0-11.384-2.256-15.469-5.969 4.178 4.291 10.01 6.969 16.469 6.969 12.703 0 23-10.298 23-23 0-6.462-2.677-12.291-6.969-16.469z" style="opacity:.1"/>
 <path d="m25 10a3 3 0 0 0-3 3 3 3 0 0 0 2 2.824v5.307a4 4 0 0 0-2.87 2.869h-5.307a3 3 0 0 0-2.823-2 3 3 0 0 0-3 3 3 3 0 0 0 3 3 3 3 0 0 0 2.824-2h5.307a4 4 0 0 0 2.869 2.867v5.307a3 3 0 0 0-2 2.826 3 3 0 0 0 3 3 3 3 0 0 0 3-3 3 3 0 0 0-2-2.824v-5.307a4 4 0 0 0 2.867-2.869h5.307a3 3 0 0 0 2.826 2 3 3 0 0 0 3-3 3 3 0 0 0-3-3 3 3 0 0 0-2.824 2h-5.307a4 4 0 0 0-2.869-2.87v-5.307a3 3 0 0 0 2-2.823 3 3 0 0 0-3-3" style="fill-opacity:.098"/>
 <path d="m23 14v9h-9v2h9v9h2v-9h9v-2h-9v-9h-2z" style="fill:#2c384e"/>
 <circle cx="12" cy="24.005" r="3" style="fill:#e6a45c"/>
 <circle cx="24" cy="24.005" r="4" style="fill:#e5ebf1"/>
 <circle cx="35.998" cy="24.005" r="3" style="fill:#e6a45c"/>
 <circle cx="24" cy="12.005" r="3" style="fill:#e6a45c"/>
 <circle cx="24" cy="36.005" r="3" style="fill:#e6a45c"/>
</svg>
