<svg xmlns="http://www.w3.org/2000/svg" viewBox="0 0 48 48">
 <defs>
  <linearGradient id="linearGradient4190" x1="1" x2="47" gradientUnits="userSpaceOnUse">
   <stop style="stop-color:#ffcf7f;stop-opacity:1"/>
   <stop offset="1" style="stop-color:#ffd793;stop-opacity:1"/>
  </linearGradient>
 </defs>
 <g>
  <path d="m 36.31 5 c 5.859 4.062 9.688 10.831 9.688 18.5 c 0 12.426 -10.07 22.5 -22.5 22.5 c -7.669 0 -14.438 -3.828 -18.5 -9.688 c 1.037 1.822 2.306 3.499 3.781 4.969 c 4.085 3.712 9.514 5.969 15.469 5.969 c 12.703 0 23 -10.298 23 -23 c 0 -5.954 -2.256 -11.384 -5.969 -15.469 c -1.469 -1.475 -3.147 -2.744 -4.969 -3.781 z m 4.969 3.781 c 3.854 4.113 6.219 9.637 6.219 15.719 c 0 12.703 -10.297 23 -23 23 c -6.081 0 -11.606 -2.364 -15.719 -6.219 c 4.16 4.144 9.883 6.719 16.219 6.719 c 12.703 0 23 -10.298 23 -23 c 0 -6.335 -2.575 -12.06 -6.719 -16.219 z" style="opacity:0.05"/>
  <path d="m 41.28 8.781 c 3.712 4.085 5.969 9.514 5.969 15.469 c 0 12.703 -10.297 23 -23 23 c -5.954 0 -11.384 -2.256 -15.469 -5.969 c 4.113 3.854 9.637 6.219 15.719 6.219 c 12.703 0 23 -10.298 23 -23 c 0 -6.081 -2.364 -11.606 -6.219 -15.719 z" style="opacity:0.1"/>
  <path d="m 31.25 2.375 c 8.615 3.154 14.75 11.417 14.75 21.13 c 0 12.426 -10.07 22.5 -22.5 22.5 c -9.708 0 -17.971 -6.135 -21.12 -14.75 a 23 23 0 0 0 44.875 -7 a 23 23 0 0 0 -16 -21.875 z" style="opacity:0.2"/>
 </g>
 <g transform="matrix(0,-1,1,0,0,48)" style="fill:url(#linearGradient4190);fill-opacity:1">
  <path d="M 24,1 C 36.703,1 47,11.297 47,24 47,36.703 36.703,47 24,47 11.297,47 1,36.703 1,24 1,11.297 11.297,1 24,1 Z"/>
 </g>
 <g>
  <path d="m 40.03 7.531 c 3.712 4.084 5.969 9.514 5.969 15.469 0 12.703 -10.297 23 -23 23 c -5.954 0 -11.384 -2.256 -15.469 -5.969 4.178 4.291 10.01 6.969 16.469 6.969 c 12.703 0 23 -10.298 23 -23 0 -6.462 -2.677 -12.291 -6.969 -16.469 z" style="opacity:0.1"/>
 </g>
 <path d="M 25.26 10 A 15 15 0 0 0 24.348 10.01 15 15 0 0 0 10.01 25.498 15 15 0 0 0 25.344 39.996 15 15 0 0 0 39.999 24.811 l -0.02 -0.617 A 15 15 0 0 0 25.26 10 m -0.82 2.01 a 13 13 0 0 1 0.564 0.004 l 0 10.687 a 2.3 2.3 0 0 0 -0.1 0 2.3 2.3 0 0 0 -0.07 0.006 l -5.438 -9.42 a 13 13 0 0 1 5.04 -1.277 z m 1.564 0.037 a 13 13 0 0 1 5.492 1.705 l -5.344 9.256 a 2.3 2.3 0 0 0 -0.148 -0.08 l 0 -10.881 z m -7.494 1.701 5.346 9.26 a 2.3 2.3 0 0 0 -0.145 0.09 l -9.42 -5.438 a 13 13 0 0 1 4.219 -3.912 z m 13.832 0.537 a 13 13 0 0 1 3.916 4.217 l -9.264 5.348 a 2.3 2.3 0 0 0 -0.09 -0.145 l 5.437 -9.42 z m -18.582 4.221 9.256 5.344 a 2.3 2.3 0 0 0 -0.082 0.148 l -10.885 0 a 13 13 0 0 1 1.711 -5.492 z m 22.957 0.885 a 13 13 0 0 1 1.268 4.908 l 0.018 0.535 a 13 13 0 0 1 -0.006 0.164 l -10.693 0 a 2.3 2.3 0 0 0 0.002 -0.029 l -0.004 -0.094 a 2.3 2.3 0 0 0 -0.004 -0.047 l 9.42 -5.438 z m -24.697 5.607 10.688 0 a 2.3 2.3 0 0 0 -0.002 0.076 2.3 2.3 0 0 0 0.006 0.094 l -9.416 5.436 a 13 13 0 0 1 -1.283 -5.174 13 13 0 0 1 0.008 -0.432 z m 15.05 1 10.887 0 a 13 13 0 0 1 -1.709 5.492 l -9.256 -5.344 a 2.3 2.3 0 0 0 0.078 -0.148 z m -4.059 0.148 a 2.3 2.3 0 0 0 0.09 0.146 L 17.661 35.715 a 13 13 0 0 1 -3.906 -4.223 l 9.256 -5.344 z m 3.283 0.752 9.426 5.441 a 13 13 0 0 1 -4.227 3.902 l -5.344 -9.254 a 2.3 2.3 0 0 0 0.145 -0.09 z m -2.441 0.09 a 2.3 2.3 0 0 0 0.148 0.078 l 0 10.893 a 13 13 0 0 1 -5.49 -1.717 l 5.342 -9.254 z m 1.318 0.303 5.438 9.418 a 13 13 0 0 1 -5.311 1.285 13 13 0 0 1 -0.297 -0.008 l 0 -10.691 a 2.3 2.3 0 0 0 0.053 0.002 2.3 2.3 0 0 0 0.117 -0.006 z" style="fill:#000;fill-opacity:0.098"/>
 <g>
  <rect transform="matrix(0,1,-1,0,0,0)" rx="0" y="-22" x="23" height="12" width="1" style="fill:#646464;fill-opacity:1"/>
  <g>
   <rect width="1" height="12" x="24" y="10" rx="0" style="fill:#646464;fill-opacity:1"/>
   <rect rx="0" y="-5.215" x="32.785" height="12" width="1" transform="matrix(0.8660254,0.5,-0.5,0.8660254,0,0)" style="fill:#646464;fill-opacity:1"/>
   <rect rx="0" y="26" x="23" height="12" width="1" style="fill:#646464;fill-opacity:1"/>
   <rect transform="matrix(0.5,0.8660254,-0.8660254,0.5,0,0)" width="1" height="12" x="32.785" y="-22.785" rx="0" style="fill:#646464;fill-opacity:1"/>
   <rect width="1" height="12" x="31.785" y="10.785" rx="0" transform="matrix(0.8660254,0.5,-0.5,0.8660254,0,0)" style="fill:#646464;fill-opacity:1"/>
   <rect rx="0" y="-38" x="24" height="12" width="1" transform="matrix(0,1,-1,0,0,0)" style="fill:#646464;fill-opacity:1"/>
   <rect transform="matrix(0.5,0.8660254,-0.8660254,0.5,0,0)" rx="0" y="-6.785" x="31.785" height="12" width="1" style="fill:#646464;fill-opacity:1"/>
   <rect transform="matrix(-0.5,0.8660254,-0.8660254,-0.5,0,0)" width="1" height="12" x="8.785" y="-46.785" rx="0" style="fill:#646464;fill-opacity:1"/>
   <rect transform="matrix(-0.5,0.8660254,-0.8660254,-0.5,0,0)" rx="0" y="-30.785" x="7.785" height="12" width="1" style="fill:#646464;fill-opacity:1"/>
   <rect rx="0" y="-46.785" x="-8.785" height="12" width="1" transform="matrix(-0.8660254,0.5,-0.5,-0.8660254,0,0)" style="fill:#646464;fill-opacity:1"/>
   <rect width="1" height="12" x="-9.785" y="-30.785" rx="0" transform="matrix(-0.8660254,0.5,-0.5,-0.8660254,0,0)" style="fill:#646464;fill-opacity:1"/>
   <path d="M 23.348 9.01 A 15 15 0 0 0 9.01 24.498 15 15 0 0 0 24.344 38.996 15 15 0 0 0 38.999 23.811 l -0.02 -0.617 A 15 15 0 0 0 23.348 9.01 m 0.088 1.998 a 13 13 0 0 1 13.545 12.289 l 0.018 0.535 A 13 13 0 0 1 24.297 36.996 13 13 0 0 1 11.01 24.432 13 13 0 0 1 23.436 11.01" style="fill:#333;fill-opacity:1"/>
   <path d="m 26.3 23.971 a 2.3 2.3 0 0 1 -2.247 2.328 2.3 2.3 0 0 1 -2.351 -2.223 2.3 2.3 0 0 1 2.199 -2.374 2.3 2.3 0 0 1 2.397 2.174" style="fill:#333;fill-opacity:1"/>
  </g>
 </g>
</svg>
