<?xml version="1.0" encoding="UTF-8"?>
<svg version="1.1" viewBox="0 0 48 48" xmlns="http://www.w3.org/2000/svg">
 <defs>
  <linearGradient id="bg" x2="0" y1="1" y2="47" gradientUnits="userSpaceOnUse">
   <stop style="stop-color:#f24545" offset="0"/>
   <stop style="stop-color:#f13434" offset="1"/>
  </linearGradient>
 </defs>
 <path d="m36.3 5c5.86 4.06 9.69 10.8 9.69 18.5 0 12.4-10.1 22.5-22.5 22.5-7.67 0-14.4-3.83-18.5-9.69 1.04 1.82 2.31 3.5 3.78 4.97 4.08 3.71 9.51 5.97 15.5 5.97 12.7 0 23-10.3 23-23 0-5.95-2.26-11.4-5.97-15.5-1.47-1.48-3.15-2.74-4.97-3.78zm4.97 3.78c3.85 4.11 6.22 9.64 6.22 15.7 0 12.7-10.3 23-23 23-6.08 0-11.6-2.36-15.7-6.22 4.16 4.14 9.88 6.72 16.2 6.72 12.7 0 23-10.3 23-23 0-6.34-2.58-12.1-6.72-16.2z" style="opacity:.05"/>
 <path d="m41.3 8.78c3.71 4.08 5.97 9.51 5.97 15.5 0 12.7-10.3 23-23 23-5.95 0-11.4-2.26-15.5-5.97 4.11 3.85 9.64 6.22 15.7 6.22 12.7 0 23-10.3 23-23 0-6.08-2.36-11.6-6.22-15.7z" style="opacity:.1"/>
 <path d="m31.2 2.38c8.62 3.15 14.8 11.4 14.8 21.1 0 12.4-10.1 22.5-22.5 22.5-9.71 0-18-6.14-21.1-14.8a23 23 0 0 0 44.9-7 23 23 0 0 0-16-21.9z" style="opacity:.2"/>
 <circle cx="24" cy="24" r="23" style="fill:url(#bg)"/>
 <path d="m40 7.53c3.71 4.08 5.97 9.51 5.97 15.5 0 12.7-10.3 23-23 23-5.95 0-11.4-2.26-15.5-5.97 4.18 4.29 10 6.97 16.5 6.97 12.7 0 23-10.3 23-23 0-6.46-2.68-12.3-6.97-16.5z" style="opacity:.1"/>
 <path d="m25 10-4.64 0.76c0.727 1.93 2.57 3.22 4.64 3.24 2.07-0.0175 3.92-1.31 4.64-3.26-1.5-0.49-3.07-0.741-4.64-0.742zm6.65 1.56-0.646 2.44c0 2.76 2.24 5 5 5 0.856-0.0027 1.7-0.225 2.44-0.646-1.46-2.95-3.85-5.34-6.8-6.8zm-13.3 0.0176c-2.95 1.46-5.33 3.84-6.79 6.79 0.74 0.414 1.57 0.633 2.42 0.637 2.76 0 5-2.24 5-5-9.17e-4 -0.849-0.218-1.68-0.631-2.43zm6.63 3.43-2 2c0 1.1 0.895 2 2 2s2-0.895 2-2-0.895-2-2-2zm-6 2-2 2c0 1.1 0.895 2 2 2s2-0.895 2-2-0.895-2-2-2zm12 0-2 2c0 1.1 0.895 2 2 2s2-0.895 2-2-0.895-2-2-2zm-20.2 3.33-0.773 4.67c0.0081 1.58 0.265 3.14 0.76 4.64 1.93-0.727 3.22-2.57 3.24-4.64-0.0021-2.08-1.29-3.93-3.23-4.67zm28.5 0.0254c-1.94 0.723-3.24 2.57-3.26 4.64 0.018 2.07 1.31 3.91 3.24 4.64 0.495-1.5 0.752-3.06 0.76-4.64-0.00162-1.58-0.252-3.15-0.742-4.64zm-22.3 2.64-2 2c0 1.1 0.895 2 2 2s2-0.895 2-2-0.895-2-2-2zm16 0-2 2c0 1.1 0.895 2 2 2s2-0.895 2-2-0.895-2-2-2zm-14 6-2 2c0 1.1 0.895 2 2 2s2-0.895 2-2-0.895-2-2-2zm12 0-2 2c0 1.1 0.895 2 2 2l2-2c0-1.1-0.895-2-2-2zm-17 2-2.42 0.637c1.46 2.94 3.84 5.33 6.79 6.79 0.414-0.74 0.633-1.57 0.637-2.42 0-2.76-2.24-5-5-5zm11 0-2 2c0 1.1 0.895 2 2 2s2-0.895 2-2-0.895-2-2-2zm11 0-5 5c0.0034 0.848 0.222 1.68 0.637 2.42 2.95-1.46 5.33-3.84 6.79-6.79-0.742-0.413-1.58-0.63-2.43-0.631zm-11 5c-2.07 0.018-3.91 1.31-4.64 3.24 1.5 0.495 3.06 0.752 4.64 0.76 1.59-9e-3 3.16-0.27 4.67-0.773-0.736-1.94-2.59-3.22-4.67-3.23z" style="opacity:.1"/>
 <path d="m24 9a15 15 0 0 0-4.64 0.76 5 5 0 0 0 4.64 3.24 5 5 0 0 0 4.64-3.26 15 15 0 0 0-4.64-0.742zm6.65 1.56a5 5 0 0 0-0.646 2.44 5 5 0 0 0 5 5 5 5 0 0 0 2.44-0.646 15 15 0 0 0-6.8-6.8zm-13.3 0.0176a15 15 0 0 0-6.79 6.79 5 5 0 0 0 2.42 0.637 5 5 0 0 0 5-5 5 5 0 0 0-0.631-2.43zm6.63 3.43a2 2 0 0 0-2 2 2 2 0 0 0 2 2 2 2 0 0 0 2-2 2 2 0 0 0-2-2zm-6 2a2 2 0 0 0-2 2 2 2 0 0 0 2 2 2 2 0 0 0 2-2 2 2 0 0 0-2-2zm12 0a2 2 0 0 0-2 2 2 2 0 0 0 2 2 2 2 0 0 0 2-2 2 2 0 0 0-2-2zm-20.2 3.33a15 15 0 0 0-0.773 4.67 15 15 0 0 0 0.76 4.64 5 5 0 0 0 3.24-4.64 5 5 0 0 0-3.23-4.67zm28.5 0.0254a5 5 0 0 0-3.26 4.64 5 5 0 0 0 3.24 4.64 15 15 0 0 0 0.76-4.64 15 15 0 0 0-0.742-4.64zm-22.3 2.64a2 2 0 0 0-2 2 2 2 0 0 0 2 2 2 2 0 0 0 2-2 2 2 0 0 0-2-2zm16 0a2 2 0 0 0-2 2 2 2 0 0 0 2 2 2 2 0 0 0 2-2 2 2 0 0 0-2-2zm-14 6a2 2 0 0 0-2 2 2 2 0 0 0 2 2 2 2 0 0 0 2-2 2 2 0 0 0-2-2zm12 0a2 2 0 0 0-2 2 2 2 0 0 0 2 2 2 2 0 0 0 2-2 2 2 0 0 0-2-2zm-17 2a5 5 0 0 0-2.42 0.637 15 15 0 0 0 6.79 6.79 5 5 0 0 0 0.637-2.42 5 5 0 0 0-5-5zm11 0a2 2 0 0 0-2 2 2 2 0 0 0 2 2 2 2 0 0 0 2-2 2 2 0 0 0-2-2zm11 0a5 5 0 0 0-5 5 5 5 0 0 0 0.637 2.42 15 15 0 0 0 6.79-6.79 5 5 0 0 0-2.43-0.631zm-11 5a5 5 0 0 0-4.64 3.24 15 15 0 0 0 4.64 0.76 15 15 0 0 0 4.67-0.773 5 5 0 0 0-4.67-3.23z" style="fill:#f9f9f9"/>
</svg>
