<svg version="1.1" viewBox="0 0 48 48" xmlns="http://www.w3.org/2000/svg">
 <defs>
  <linearGradient id="linearGradient3764" x1="1" x2="47" gradientTransform="rotate(-90 24 24)" gradientUnits="userSpaceOnUse">
   <stop style="stop-color:#424242" offset="0"/>
   <stop style="stop-color:#4c4c4c" offset="1"/>
  </linearGradient>
 </defs>
 <path d="m36.3 5c5.86 4.06 9.69 10.8 9.69 18.5 0 12.4-10.1 22.5-22.5 22.5-7.67 0-14.4-3.83-18.5-9.69 1.04 1.82 2.31 3.5 3.78 4.97 4.08 3.71 9.51 5.97 15.5 5.97 12.7 0 23-10.3 23-23 0-5.95-2.26-11.4-5.97-15.5-1.47-1.48-3.15-2.74-4.97-3.78zm4.97 3.78c3.85 4.11 6.22 9.64 6.22 15.7 0 12.7-10.3 23-23 23-6.08 0-11.6-2.36-15.7-6.22 4.16 4.14 9.88 6.72 16.2 6.72 12.7 0 23-10.3 23-23 0-6.34-2.58-12.1-6.72-16.2z" style="opacity:.05"/>
 <path d="m41.3 8.78c3.71 4.08 5.97 9.51 5.97 15.5 0 12.7-10.3 23-23 23-5.95 0-11.4-2.26-15.5-5.97 4.11 3.85 9.64 6.22 15.7 6.22 12.7 0 23-10.3 23-23 0-6.08-2.36-11.6-6.22-15.7z" style="opacity:.1"/>
 <path d="m31.2 2.38c8.62 3.15 14.8 11.4 14.8 21.1 0 12.4-10.1 22.5-22.5 22.5-9.71 0-18-6.14-21.1-14.8a23 23 0 0 0 44.9-7 23 23 0 0 0-16-21.9z" style="opacity:.2"/>
 <path d="m24 1c12.7 0 23 10.3 23 23s-10.3 23-23 23-23-10.3-23-23 10.3-23 23-23z" style="fill:url(#linearGradient3764)"/>
 <path d="m40 7.53c3.71 4.08 5.97 9.51 5.97 15.5 0 12.7-10.3 23-23 23-5.95 0-11.4-2.26-15.5-5.97 4.18 4.29 10 6.97 16.5 6.97 12.7 0 23-10.3 23-23 0-6.46-2.68-12.3-6.97-16.5z" style="opacity:.1"/>
 <path d="m25 10a15 15 0 0 0-15 15 15 15 0 0 0 10.3 14.2c-1.39-3.85-2.45-9.8-3.1-12.7-0.322-1.27-0.131-2.53 0.086-3.8 0.44-1.32 0.585-2.7 1.19-3.96 0.918-0.795 0.941-2.23 1.83-2.92 0.132 0.079 0.222 0.115 0.283 0.137h0.094c0.128-0.13-1.25-1.53 0.027-0.975 0.05-0.735 1.2-0.174 1.22-0.816v-2e-3c0.56 0.464 0.455 0.27 1.21 0.184 0.858-0.544 1.26 1.29 1.61 0.268 1.05 0.133 2.17 0.465 3.16 0.799 1 0.214 1.95 0.775 2.62 1.54l-0.02 8e-3 0.49 0.635c0.064 0.11 0.117 0.225 0.17 0.34 0.199 1.65 2.08 1.63 3.34 2.22 1.08 0.372 2.38 0.939 2.51 2.2-0.272-0.058-1.32-1.26-2.15-1.38-0.502-0.031-1.04-0.167-1.54-0.35l-2.91-0.523c-0.145-0.017-0.289-0.041-0.434-0.072v0.018l-4.12-0.496c0.067 0.045 0.142 0.107 0.209 0.166l4.22 0.799v-8e-3l0.291 0.072 1.18 0.258c0.234 0.021 0.472 0.058 0.662 0.092 1.2 0.322 2.62 0.265 3.61 1.08-0.258 0.481-1.7 0.209-2.42 0.146-0.088-0.017-0.184-0.03-0.273-0.045-0.015-2e-3 -0.032-8e-3 -0.047 0-0.978-0.155-1.98-0.162-2.93 0.121-2e-3 0-8e-3 0 0 0-0.325 0.098-0.641 0.238-0.943 0.412-1.36 0.771-3.04 1.05-4.17 2.16-1.11 1.16-1.04 2.75-0.85 4.24h0.047v0.377c0.018 0.13 0.039 0.258 0.057 0.385 0.577 3 2.11 5.75 2.59 8.78 0.029 0.359 0.077 0.768 0.121 1.17a15 15 0 0 0 12.8-14.8 15 15 0 0 0-15-15zm2.32 7.23c-0.454 0.012-0.806 0.177-0.906 0.459-0.16 0.451 0.384 1.03 1.22 1.31 0.834 0.281 1.64 0.147 1.8-0.305 0.16-0.451-0.384-1.04-1.22-1.32-0.313-0.105-0.624-0.153-0.896-0.146z" style="opacity:.1"/>
 <path d="m24 9a15 15 0 0 0-15 15 15 15 0 0 0 10.3 14.2c-1.39-3.85-2.45-9.8-3.1-12.7-0.321-1.27-0.13-2.53 0.088-3.8 0.44-1.32 0.585-2.69 1.19-3.96 0.919-0.791 0.941-2.23 1.83-2.92 0.133 0.079 0.222 0.111 0.284 0.141l0.093 0.01h0.01c0.128-0.134-1.25-1.53 0.027-0.98 0.05-0.734 1.2-0.173 1.22-0.816v-2e-3c0.56 0.464 0.455 0.27 1.21 0.184 0.855-0.544 1.25 1.29 1.61 0.267 1.05 0.133 2.17 0.465 3.16 0.799 1 0.214 1.94 0.776 2.62 1.55h-0.02l0.491 0.64c0.061 0.11 0.121 0.225 0.171 0.34 0.198 1.65 2.08 1.63 3.34 2.22 1.08 0.372 2.38 0.938 2.51 2.2-0.272-0.058-1.32-1.26-2.15-1.38-0.498-0.03-1.04-0.167-1.54-0.349l-2.91-0.521v-0.01c-0.142-0.02-0.292-0.04-0.433-0.07v0.01l-4.12-0.493c0.067 0.045 0.141 0.106 0.206 0.166l4.22 0.799v-8e-3l0.292 0.072 1.18 0.258c0.234 0.021 0.468 0.058 0.662 0.096 1.2 0.318 2.63 0.26 3.62 1.08-0.261 0.481-1.7 0.208-2.42 0.146-0.088-0.016-0.184-0.026-0.271-0.046-0.02 0-0.03-0.01-0.05-0.01-0.98-0.15-1.98-0.16-2.92 0.123-2e-3 0-7e-3 -1e-3 -0.01 0-0.325 0.098-0.64 0.238-0.943 0.412-1.36 0.77-3.04 1.05-4.17 2.16-1.1 1.16-1.04 2.75-0.847 4.24h0.046v0.378c0.018 0.13 0.039 0.258 0.057 0.385 0.574 3 2.11 5.75 2.58 8.78 0.03 0.362 0.08 0.769 0.12 1.17a15 15 0 0 0 12.8-14.8 15 15 0 0 0-15-15zm2.32 7.23c-0.454 0.012-0.806 0.177-0.906 0.459-0.16 0.451 0.385 1.03 1.22 1.31 0.834 0.285 1.64 0.15 1.8-0.301 0.16-0.451-0.382-1.04-1.22-1.32-0.31-0.105-0.621-0.153-0.894-0.147z" style="fill:#ef9c62"/>
</svg>
