<svg version="1.1" viewBox="0 0 48 48" xmlns="http://www.w3.org/2000/svg">
 <defs>
  <linearGradient id="bg" x1="1" x2="47" gradientTransform="matrix(0 -1 1 0 -1.5e-6 48)" gradientUnits="userSpaceOnUse">
   <stop style="stop-color:#78a3d4" offset="0"/>
   <stop style="stop-color:#87add9" offset="1"/>
  </linearGradient>
 </defs>
 <path d="m36.3 5c5.86 4.06 9.69 10.8 9.69 18.5 0 12.4-10.1 22.5-22.5 22.5-7.67 0-14.4-3.83-18.5-9.69 1.04 1.82 2.31 3.5 3.78 4.97 4.08 3.71 9.51 5.97 15.5 5.97 12.7 0 23-10.3 23-23 0-5.95-2.26-11.4-5.97-15.5-1.47-1.48-3.15-2.74-4.97-3.78zm4.97 3.78c3.85 4.11 6.22 9.64 6.22 15.7 0 12.7-10.3 23-23 23-6.08 0-11.6-2.36-15.7-6.22 4.16 4.14 9.88 6.72 16.2 6.72 12.7 0 23-10.3 23-23 0-6.34-2.58-12.1-6.72-16.2z" style="opacity:.05"/>
 <path d="m41.3 8.78c3.71 4.08 5.97 9.51 5.97 15.5 0 12.7-10.3 23-23 23-5.95 0-11.4-2.26-15.5-5.97 4.11 3.85 9.64 6.22 15.7 6.22 12.7 0 23-10.3 23-23 0-6.08-2.36-11.6-6.22-15.7z" style="opacity:.1"/>
 <path d="m31.2 2.38c8.62 3.15 14.8 11.4 14.8 21.1 0 12.4-10.1 22.5-22.5 22.5-9.71 0-18-6.14-21.1-14.8a23 23 0 0 0 44.9-7 23 23 0 0 0-16-21.9z" style="opacity:.2"/>
 <path d="m24 1c12.7 0 23 10.3 23 23s-10.3 23-23 23-23-10.3-23-23 10.3-23 23-23z" style="fill:url(#bg)"/>
 <path d="m40 7.53c3.71 4.08 5.97 9.51 5.97 15.5 0 12.7-10.3 23-23 23-5.95 0-11.4-2.26-15.5-5.97 4.18 4.29 10 6.97 16.5 6.97 12.7 0 23-10.3 23-23 0-6.46-2.68-12.3-6.97-16.5z" style="opacity:.1"/>
 <path d="m35.2 13-21.7 21c-0.686 0.686-0.686 1.79 0 2.48s1.79 0.685 2.48 0l5.41-5.41 1.24 1.24 9.68-9.68-1.24-1.24 5.41-5.41c0.686-0.686 0.686-1.79 0-2.48-0.343-0.343-0.791-0.515-1.24-0.515z" style="opacity:.1"/>
 <path d="m21.4 21.6-4.73 4.73 1.24 1.24-5.41 5.41c-0.686 0.686-0.686 1.79 0 2.47s1.79 0.686 2.47 0l5.41-5.41 1.24 1.24 4.73-4.73c-1.05-2.3-2.42-4.26-4.95-4.95z" style="fill:#314568"/>
 <path d="m34.2 12c-0.447 0-0.896 0.173-1.24 0.516l-5.41 5.41-1.24-1.24-4.95 4.95 4.95 4.95 4.95-4.95-1.24-1.24 5.41-5.41c0.686-0.686 0.686-1.79 0-2.47-0.343-0.343-0.791-0.516-1.24-0.516z" style="fill:#d74253"/>
</svg>
