<svg version="1.1" viewBox="0 0 48 48" xmlns="http://www.w3.org/2000/svg">
 <defs>
  <linearGradient id="bg" x1="1" x2="47" gradientTransform="matrix(0 -1 1 0 -1.5e-6 48)" gradientUnits="userSpaceOnUse">
   <stop style="stop-color:#658dab" offset="0"/>
   <stop style="stop-color:#7297b2" offset="1"/>
  </linearGradient>
 </defs>
 <path d="m36.31 5c5.859 4.062 9.688 10.831 9.688 18.5 0 12.426-10.07 22.5-22.5 22.5-7.669 0-14.438-3.828-18.5-9.688 1.037 1.822 2.306 3.499 3.781 4.969 4.085 3.712 9.514 5.969 15.469 5.969 12.703 0 23-10.298 23-23 0-5.954-2.256-11.384-5.969-15.469-1.469-1.475-3.147-2.744-4.969-3.781zm4.969 3.781c3.854 4.113 6.219 9.637 6.219 15.719 0 12.703-10.297 23-23 23-6.081 0-11.606-2.364-15.719-6.219 4.16 4.144 9.883 6.719 16.219 6.719 12.703 0 23-10.298 23-23 0-6.335-2.575-12.06-6.719-16.219z" style="opacity:.05"/>
 <path d="m41.28 8.781c3.712 4.085 5.969 9.514 5.969 15.469 0 12.703-10.297 23-23 23-5.954 0-11.384-2.256-15.469-5.969 4.113 3.854 9.637 6.219 15.719 6.219 12.703 0 23-10.298 23-23 0-6.081-2.364-11.606-6.219-15.719z" style="opacity:.1"/>
 <path d="m31.25 2.375c8.615 3.154 14.75 11.417 14.75 21.13 0 12.426-10.07 22.5-22.5 22.5-9.708 0-17.971-6.135-21.12-14.75a23 23 0 0 0 44.875-7 23 23 0 0 0-16-21.875z" style="opacity:.2"/>
 <path d="m24 1c12.703 0 23 10.297 23 23s-10.297 23-23 23-23-10.297-23-23 10.297-23 23-23z" style="fill:url(#bg)"/>
 <path d="m40.03 7.531c3.712 4.084 5.969 9.514 5.969 15.469 0 12.703-10.297 23-23 23-5.954 0-11.384-2.256-15.469-5.969 4.178 4.291 10.01 6.969 16.469 6.969 12.703 0 23-10.298 23-23 0-6.462-2.677-12.291-6.969-16.469z" style="opacity:.1"/>
 <path d="m17 11c-0.554 0-1 0.446-1 1v1h-2v24h17l5-5v-19h-2v-1c0-0.554-0.446-1-1-1s-1 0.446-1 1v1h-2v-1c0-0.554-0.446-1-1-1s-1 0.446-1 1v1h-2v-1c0-0.554-0.446-1-1-1s-1 0.446-1 1v1h-2v-1c0-0.554-0.446-1-1-1s-1 0.446-1 1v1h-2v-1c0-0.554-0.446-1-1-1z" style="fill-opacity:.098"/>
 <path d="m13 12h22v19l-5 5h-17z" style="fill:#32496a"/>
 <path d="m15.1 12v1.199c0 0.665 0.534 1.201 1.199 1.201s1.199-0.536 1.199-1.201v-1.199h-2.398m4 0v1.199c0 0.665 0.534 1.201 1.199 1.201s1.199-0.536 1.199-1.201v-1.199h-2.398m4 0v1.199c0 0.665 0.534 1.201 1.199 1.201s1.199-0.536 1.199-1.201v-1.199h-2.398m4 0v1.199c0 0.665 0.534 1.201 1.199 1.201s1.199-0.536 1.199-1.201v-1.199h-2.398m4 0v1.199c0 0.665 0.534 1.201 1.199 1.201s1.199-0.536 1.199-1.201v-1.199h-2.398" style="opacity:.1"/>
 <path d="m30 31v5l5-5z" style="opacity:.16"/>
 <rect x="15" y="10" width="2" height="4" rx="1" style="fill:#acacac"/>
 <rect x="19" y="10" width="2" height="4" rx="1" style="fill:#acacac"/>
 <rect x="27" y="10" width="2" height="4" rx="1" style="fill:#acacac"/>
 <rect x="31" y="10" width="2" height="4" rx="1" style="fill:#acacac"/>
 <rect x="23" y="10" width="2" height="4" rx="1" style="fill:#acacac"/>
 <path d="m24.15 19c-0.917 0-1.713 0.521-2.125 1.291l-0.046 0.096c-0.143 0.296-0.226 0.618-0.247 0.947-3e-3 0.049-5e-3 0.099-5e-3 0.155 6e-3 0.548 0.179 1.026 0.502 1.497 0.724-0.834 1.84-1.353 2.964-1.291 6e-3 0 0.013 1e-3 0.019 2e-3 0.46 0.028 0.898 0.143 1.297 0.33 0.078-0.362 0.086-0.699 7e-3 -1.069l-0.024-0.11c-0.275-1.064-1.218-1.847-2.342-1.847zm-3.163 1.152c-0.698 0-1.26 0.578-1.26 1.295 0 0.224 0.069 0.438 0.176 0.632 0.434-0.244 1.029-0.405 1.559-0.371-6e-3 -0.072-9e-3 -0.145-9e-3 -0.217v-1e-3 -1e-3 -1e-3c0-0.397 0.082-0.774 0.229-1.115-0.206-0.141-0.445-0.22-0.694-0.221zm5.972 0.894c-0.048 0-0.096 6e-3 -0.144 0.01 0.022 0.141 0.033 0.285 0.033 0.432v1e-3c0 0.226-0.028 0.451-0.082 0.67 0.61 0.347 1.114 0.867 1.449 1.496 0.356-0.192 0.746-0.307 1.147-0.336-0.108-1.273-1.136-2.273-2.404-2.273zm-1.971 0.927c-0.124 0-0.248 7e-3 -0.372 0.021-0.021 2e-3 -0.041 5e-3 -0.062 8e-3 -0.903 0.129-1.519 0.548-2.224 1.3l-6e-3 8e-3c-0.196 0.257-0.357 0.542-0.478 0.848-1e-3 4e-3 -3e-3 7e-3 -4e-3 0.011-0.514 1.335-0.168 2.747 0.791 3.788l0.061 0.061c0.604 0.573 1.412 0.923 2.3 0.923 0.869 0 1.66-0.335 2.26-0.886l0.067-0.065c0.659-0.649 1.067-1.581 1.066-2.534-1e-3 -0.536-0.121-1.058-0.352-1.546l-4e-3 -8e-3c-0.324-0.666-0.849-1.21-1.494-1.549-0.478-0.249-1.012-0.38-1.55-0.381zm-3.596 0.019c-0.254-5e-3 -0.544 0.036-0.822 0.103-0.232 0.07-0.45 0.172-0.651 0.301l-0.058 0.037c-0.489 0.332-0.863 0.828-1.049 1.412l-6e-3 0.02c-0.02 0.064-0.041 0.143-0.058 0.217-0.238 1.07 0.152 1.992 0.976 2.754 0.235-0.458 0.675-0.789 1.193-0.864 4e-3 -1e-3 7e-3 -1e-3 0.011-1e-3 0.145-0.017 0.285-0.023 0.433 1e-3 -0.016-0.121-0.027-0.244-0.031-0.369-2e-3 -0.048-4e-3 -0.096-4e-3 -0.145 0.011-0.819 0.249-1.472 0.718-2.238-0.278-0.356-0.465-0.776-0.547-1.222-0.035-3e-3 -0.07-4e-3 -0.106-5e-3zm8.186 1.603-0.058 1e-3c-0.42 0.015-0.782 0.109-1.181 0.317 0.64 1.486 0.338 2.961-0.728 4.181 0.497 0.569 1.2 0.905 1.949 0.906 0.671 0 1.282-0.257 1.746-0.681l0.085-0.085c0.51-0.507 0.798-1.205 0.8-1.934v-3e-3 -1e-3c0-0.096-8e-3 -0.213-0.019-0.323-0.155-1.335-1.254-2.369-2.593-2.378zm-11.155 0.355c-1.34 0-2.423 1.113-2.423 2.49s1.083 2.49 2.423 2.49c0.491-1e-3 0.965-0.162 1.368-0.447-0.138-0.223-0.226-0.482-0.245-0.761 0-2e-3 0-5e-3 -1e-3 -7e-3 -2e-3 -0.037-4e-3 -0.075-4e-3 -0.113v-1e-3c0-0.172 0.026-0.337 0.073-0.493-0.995-0.758-1.391-1.945-1.119-3.154-0.024-1e-3 -0.048-4e-3 -0.072-4e-3zm14.25 2.142c-0.072 0-0.142 0.015-0.212 0.028 3e-3 0.058 5e-3 0.117 5e-3 0.176v1e-3 3e-3c-1e-3 0.789-0.301 1.506-0.789 2.04 0.25 0.298 0.609 0.478 0.996 0.478 0.734 0 1.327-0.609 1.327-1.363s-0.592-1.363-1.327-1.363zm-11.557 0.153c-0.691 0.015-1.297 0.604-1.299 1.355 2e-3 0.308 0.098 0.57 0.279 0.833l0.042 0.055c0.243 0.291 0.603 0.475 1.01 0.475 0.551 0 1.032-0.354 1.229-0.876-0.468-0.493-0.806-1.116-0.957-1.812-0.101-0.023-0.201-0.032-0.3-0.03z" style="opacity:.1"/>
 <path d="m23.15 18c-0.917 0-1.713 0.521-2.125 1.291l-0.046 0.096c-0.143 0.296-0.226 0.618-0.247 0.947-3e-3 0.049-5e-3 0.099-5e-3 0.155 6e-3 0.548 0.179 1.026 0.502 1.497 0.724-0.834 1.84-1.353 2.964-1.291 6e-3 0 0.013 1e-3 0.019 2e-3 0.46 0.028 0.898 0.143 1.297 0.33 0.078-0.362 0.086-0.699 7e-3 -1.069l-0.024-0.11c-0.275-1.064-1.218-1.847-2.342-1.847zm-3.163 1.152c-0.698 0-1.26 0.578-1.26 1.295 0 0.224 0.069 0.438 0.176 0.632 0.434-0.244 1.029-0.405 1.559-0.371-6e-3 -0.072-9e-3 -0.145-9e-3 -0.217v-1e-3 -1e-3 -1e-3c0-0.397 0.082-0.774 0.229-1.115-0.206-0.141-0.445-0.22-0.694-0.221zm5.972 0.894c-0.048 0-0.096 6e-3 -0.144 0.01 0.022 0.141 0.033 0.285 0.033 0.432v1e-3c0 0.226-0.028 0.451-0.082 0.67 0.61 0.347 1.114 0.867 1.449 1.496 0.356-0.192 0.746-0.307 1.147-0.336-0.108-1.273-1.136-2.273-2.404-2.273zm-1.971 0.927c-0.124 0-0.248 7e-3 -0.372 0.021-0.021 2e-3 -0.041 5e-3 -0.062 8e-3 -0.903 0.129-1.519 0.548-2.224 1.3l-6e-3 8e-3c-0.196 0.257-0.357 0.542-0.478 0.848-1e-3 4e-3 -3e-3 7e-3 -4e-3 0.011-0.514 1.335-0.168 2.747 0.791 3.788l0.061 0.061c0.604 0.573 1.412 0.923 2.3 0.923 0.869 0 1.66-0.335 2.26-0.886l0.067-0.065c0.659-0.649 1.067-1.581 1.066-2.534-1e-3 -0.536-0.121-1.058-0.352-1.546l-4e-3 -8e-3c-0.324-0.666-0.849-1.21-1.494-1.549-0.478-0.249-1.012-0.38-1.55-0.381zm-3.596 0.019c-0.254-5e-3 -0.544 0.036-0.822 0.103-0.232 0.07-0.45 0.172-0.651 0.301l-0.058 0.037c-0.489 0.332-0.863 0.828-1.049 1.412l-6e-3 0.02c-0.02 0.064-0.041 0.143-0.058 0.217-0.238 1.07 0.152 1.992 0.976 2.754 0.235-0.458 0.675-0.789 1.193-0.864 4e-3 -1e-3 7e-3 -1e-3 0.011-1e-3 0.145-0.017 0.285-0.023 0.433 1e-3 -0.016-0.121-0.027-0.244-0.031-0.369-2e-3 -0.048-4e-3 -0.096-4e-3 -0.145 0.011-0.819 0.249-1.472 0.718-2.238-0.278-0.356-0.465-0.776-0.547-1.222-0.035-3e-3 -0.07-4e-3 -0.106-5e-3zm8.186 1.603-0.058 1e-3c-0.42 0.015-0.782 0.109-1.181 0.317 0.64 1.486 0.338 2.961-0.728 4.181 0.497 0.569 1.2 0.905 1.949 0.906 0.671 0 1.282-0.257 1.746-0.681l0.085-0.085c0.51-0.507 0.798-1.205 0.8-1.934v-3e-3 -1e-3c0-0.096-8e-3 -0.213-0.019-0.323-0.155-1.335-1.254-2.369-2.593-2.378zm-11.155 0.355c-1.34 0-2.423 1.113-2.423 2.49s1.083 2.49 2.423 2.49c0.491-1e-3 0.965-0.162 1.368-0.447-0.138-0.223-0.226-0.482-0.245-0.761 0-2e-3 0-5e-3 -1e-3 -7e-3 -2e-3 -0.037-4e-3 -0.075-4e-3 -0.113v-1e-3c0-0.172 0.026-0.337 0.073-0.493-0.995-0.758-1.391-1.945-1.119-3.154-0.024-1e-3 -0.048-4e-3 -0.072-4e-3zm14.25 2.142c-0.072 0-0.142 0.015-0.212 0.028 3e-3 0.058 6e-3 0.117 6e-3 0.176v1e-3 3e-3c-1e-3 0.789-0.301 1.506-0.789 2.04 0.25 0.298 0.609 0.478 0.996 0.478 0.734 0 1.327-0.609 1.327-1.363s-0.592-1.363-1.327-1.363zm-11.558 0.153c-0.691 0.015-1.297 0.604-1.299 1.355 2e-3 0.308 0.098 0.57 0.279 0.833l0.042 0.055c0.243 0.291 0.603 0.475 1.01 0.475 0.551 0 1.032-0.354 1.229-0.876-0.468-0.493-0.806-1.116-0.957-1.812-0.101-0.023-0.201-0.032-0.3-0.03z" style="fill:#f9f9f9"/>
</svg>
