<svg version="1.1" viewBox="0 0 48 48" xmlns="http://www.w3.org/2000/svg">
 <defs>
  <linearGradient id="linearGradient4268" x1="1" x2="47" gradientTransform="translate(-48)" gradientUnits="userSpaceOnUse">
   <stop style="stop-color:#375e94" offset="0"/>
   <stop style="stop-color:#3d68a3" offset="1"/>
  </linearGradient>
 </defs>
 <path d="m36.31 5c5.859 4.062 9.688 10.831 9.688 18.5 0 12.426-10.07 22.5-22.5 22.5-7.669 0-14.438-3.828-18.5-9.688 1.037 1.822 2.306 3.499 3.781 4.969 4.085 3.712 9.514 5.969 15.469 5.969 12.703 0 23-10.298 23-23 0-5.954-2.256-11.384-5.969-15.469-1.469-1.475-3.147-2.744-4.969-3.781zm4.969 3.781c3.854 4.113 6.219 9.637 6.219 15.719 0 12.703-10.297 23-23 23-6.081 0-11.606-2.364-15.719-6.219 4.16 4.144 9.883 6.719 16.219 6.719 12.703 0 23-10.298 23-23 0-6.335-2.575-12.06-6.719-16.219z" style="opacity:.05"/>
 <path d="m41.28 8.781c3.712 4.085 5.969 9.514 5.969 15.469 0 12.703-10.297 23-23 23-5.954 0-11.384-2.256-15.469-5.969 4.113 3.854 9.637 6.219 15.719 6.219 12.703 0 23-10.298 23-23 0-6.081-2.364-11.606-6.219-15.719z" style="opacity:.1"/>
 <path d="m31.25 2.375c8.615 3.154 14.75 11.417 14.75 21.13 0 12.426-10.07 22.5-22.5 22.5-9.708 0-17.971-6.135-21.12-14.75a23 23 0 0 0 44.875-7 23 23 0 0 0-16-21.875z" style="opacity:.2"/>
 <circle transform="rotate(-90)" cx="-24" cy="24" r="23" style="fill:url(#linearGradient4268)"/>
 <g transform="translate(1,1)">
  <g style="opacity:.1">
   <path transform="translate(-1,-1)" d="m24.918 12.982-7.93 13.709c-0.046 2.684 0.962 5.105 2.588 6.785-0.276 0.229-0.501 0.504-0.635 0.824-0.465 1.109 0.262 2.275 1.621 2.607 1.258 0.304 2.61-0.218 3.174-1.18 0.361 0.063 0.728 0.109 1.104 0.115 0.545 1e-3 1.077-0.044 1.594-0.152 0.571 0.813 1.828 1.244 2.996 0.979 1.309-0.3 2-1.359 1.559-2.359-0.138-0.311-0.377-0.576-0.67-0.791 1.598-1.618 2.629-3.943 2.682-6.555 0.031-1.852-0.418-3.591-1.238-5.04 0.012-0.188 0.023-0.355 0.027-0.543 0.074-4.566-3-8.328-6.871-8.398z"/>
  </g>
 </g>
 <path d="m22.48 12.156c-3.207 0.719-5.664 3.992-5.734 7.984-8e-3 0.566 0.023 1.121 0.109 1.656 0 4e-3 4e-3 8e-3 4e-3 0.016-0.523 1.176-0.848 2.477-0.871 3.879-0.086 4.98 3.438 9.08 7.852 9.152 4.414 0.078 8.06-3.891 8.16-8.879 0.031-1.852-0.418-3.59-1.238-5.04 0.012-0.188 0.023-0.355 0.027-0.543 0.074-4.566-3-8.328-6.871-8.398-0.484-8e-3 -0.961 0.055-1.418 0.156" style="fill:#222f2f"/>
 <path d="m21.04 14.762c-1.035 0.352-1.813 1.465-1.848 2.805-0.027 1.16 0.496 2.176 1.301 2.691-1.793 1.297-3.02 3.602-3.086 6.262-0.109 4.164 2.652 7.602 6.164 7.691 3.508 0.086 6.441-3.207 6.551-7.371 0.082-3.082-1.418-5.766-3.617-6.988 1.242-0.145 2.195-0.996 2.188-2.01-0.012-1.109-1.164-1.98-2.57-1.965-0.832 8e-3 -1.563 0.32-2.02 0.813-0.316-1.168-1.215-2.031-2.316-2.059-0.266-0.012-0.508 0.031-0.75 0.121m2.945 4.148c0.07 0.09 0.148 0.164 0.23 0.246-0.09-8e-3 -0.172-0.016-0.258-0.02-0.023 0-0.055-4e-3 -0.086-8e-3 0.039-0.074 0.082-0.141 0.113-0.219" style="fill:#ececec"/>
 <path d="m24.799 17.059c-0.13279-4.07e-4 -0.26366 0.056031-0.37109 0.16797-0.191 0.2-0.27942 0.54263-0.23242 0.89063 0.016 0.352 0.16763 0.67194 0.39063 0.83594s0.48478 0.14041 0.67578-0.058594c0.191-0.2 0.28138-0.54253 0.23438-0.89453-0.016-0.348-0.16362-0.67194-0.39062-0.83594-0.097563-0.07-0.20336-0.10515-0.30664-0.10547zm-1.791 0.083984c-0.359 0.031-0.61331 0.47309-0.57031 0.99609 0.047 0.52 0.37528 0.91381 0.73828 0.88281 0.359-0.031 0.61341-0.47619 0.56641-0.99219-0.043-0.52-0.37538-0.91372-0.73438-0.88672z" style="fill:#2e3436"/>
 <path d="m23.811 19.318c-1.0851 0.005878-2.4551 0.77148-2.4551 0.77148h-0.00586s0.45458 2.5859 2.1426 2.8359c1.688 0.246 2.5938-2.6562 2.5938-2.6562-1e-6 0-0.9575-0.83641-2.0625-0.94141-0.069313-0.006812-0.14055-0.010157-0.21289-0.009766zm-3.334 12.48c-1.1089 0.012451-2.1573 0.60089-2.5352 1.502-0.465 1.109 0.26209 2.2754 1.6211 2.6074 1.359 0.328 2.8397-0.30106 3.3047-1.4141 0.465-1.109-0.26209-2.2754-1.6211-2.6074-0.25481-0.0615-0.51364-0.090764-0.76953-0.087891zm7.0781 0.1543c-0.2457-0.002153-0.49359 0.023641-0.73828 0.080078-1.305 0.296-2.0055 1.3594-1.5605 2.3594 0.445 1.004 1.8669 1.5743 3.1719 1.2773 1.309-0.3 2.0055-1.3594 1.5605-2.3594-0.36156-0.81575-1.3689-1.3481-2.4336-1.3574z" style="fill:#ffb30a"/>
 <path d="m17.08 22.04s0.664 1.574 1.539 2.867c0.875 1.297 1.895 3.48 0.328 2.68-1.559-0.797-2.645-2.043-2.426-3.48 0.227-1.438 0.566-2.07 0.566-2.07" style="fill:#222f2f"/>
 <path d="m30.17 20.586s-0.871 2.051-2.023 3.734c-1.145 1.688-2.473 4.527-0.438 3.492 2.031-1.031 3.465-2.652 3.172-4.523-0.293-1.875-0.727-2.703-0.727-2.703" style="fill:#222f2f"/>
 <path d="m40.03 7.531c3.712 4.084 5.969 9.514 5.969 15.469 0 12.703-10.297 23-23 23-5.954 0-11.384-2.256-15.469-5.969 4.178 4.291 10.01 6.969 16.469 6.969 12.703 0 23-10.298 23-23 0-6.462-2.677-12.291-6.969-16.469z" style="opacity:.1"/>
</svg>
