<svg version="1.1" viewBox="0 0 48 48" xmlns="http://www.w3.org/2000/svg">
 <defs>
  <linearGradient id="bg" x2="0" y1="1" y2="47" gradientUnits="userSpaceOnUse">
   <stop style="stop-color:#49cf59" offset="0"/>
   <stop style="stop-color:#39cb4b" offset="1"/>
  </linearGradient>
 </defs>
 <path d="m36.31 5c5.859 4.062 9.688 10.831 9.688 18.5 0 12.426-10.07 22.5-22.5 22.5-7.669 0-14.438-3.828-18.5-9.688 1.037 1.822 2.306 3.499 3.781 4.969 4.085 3.712 9.514 5.969 15.469 5.969 12.703 0 23-10.298 23-23 0-5.954-2.256-11.384-5.969-15.469-1.469-1.475-3.147-2.744-4.969-3.781zm4.969 3.781c3.854 4.113 6.219 9.637 6.219 15.719 0 12.703-10.297 23-23 23-6.081 0-11.606-2.364-15.719-6.219 4.16 4.144 9.883 6.719 16.219 6.719 12.703 0 23-10.298 23-23 0-6.335-2.575-12.06-6.719-16.219z" style="opacity:.05"/>
 <path d="m41.28 8.781c3.712 4.085 5.969 9.514 5.969 15.469 0 12.703-10.297 23-23 23-5.954 0-11.384-2.256-15.469-5.969 4.113 3.854 9.637 6.219 15.719 6.219 12.703 0 23-10.298 23-23 0-6.081-2.364-11.606-6.219-15.719z" style="opacity:.1"/>
 <path d="m31.25 2.375c8.615 3.154 14.75 11.417 14.75 21.13 0 12.426-10.07 22.5-22.5 22.5-9.708 0-17.971-6.135-21.12-14.75a23 23 0 0 0 44.875-7 23 23 0 0 0-16-21.875z" style="opacity:.2"/>
 <circle cx="24" cy="24" r="23" style="fill:url(#bg)"/>
 <path d="m25 10c-4 0-10 0.8136-10 6 0 0.21251 0.015152 0.40773 0.035156 0.59766-1.6557 1.5876-2.0352 4.236-2.0352 7.4023 0 5.1864 1 9 7 9 0.45924 0 0.8788-0.032595 1.2812-0.078125l1.7793 2.6699a3 2.5 0 0 0-1.0605 1.9082 3 2.5 0 0 0 3 2.5 3 2.5 0 0 0 3-2.5 3 2.5 0 0 0-1.5098-2.166l-2.2266-3.4043c0.39244-0.263 0.71412-0.58396 1.0059-0.92969h0.73047c0-0.43977 0.027481-0.84663 0.068359-1.2363 0.38261-0.8155 0.61415-1.7575 0.75195-2.7832 0.95924-1.9797 2.6066-3.0905 4.1797-4.2305v6.25c0 2 1.5 4 3.5 4h2.5v-2h-1.5c-0.5 0-1.5 0-1.5-2v-7h3v-2h-3v-0.16016c0.60603-0.98264 1-2.1926 1-3.8398 0-4-4.1719-6-10-6zm0 2c4 0 5 2 5 4 0 3.0706-1.571 4.0513-3.1055 5.7461-0.34752-3.8889-1.8358-6.7461-6.8945-6.7461v-0.25c0-1.75 2.375-2.75 5-2.75zm-5 6c3 0 4 2 4 6s-1 6-4 6-4-2.2545-4-6c0-2.2839 0.37532-4.0097 1.3457-5.0117 0.052768 0.002301 0.099893 0.011719 0.1543 0.011719 0.90956 0 1.582-0.33349 2.002-0.97656 0.16009-0.014889 0.32481-0.023438 0.49805-0.023438z" style="opacity:.1;paint-order:normal"/>
 <path d="m24 9c-4 0-10 0.8136-10 6 0 2 0.89594 3 2.5 3 1.6041 0 2.5-1 2.5-3v-1.25c0-1.75 2.375-2.75 5-2.75 4 0 5 2 5 4 0 6-6 4-6 15h2c0-9 9-7 9-15 0-4-4.1719-6-10-6zm0 25a3 2.5 0 0 0-3 2.5 3 2.5 0 0 0 3 2.5 3 2.5 0 0 0 3-2.5 3 2.5 0 0 0-3-2.5z" style="fill:#398f43;stroke-width:.93541"/>
 <path d="m40.03 7.531c3.712 4.084 5.969 9.514 5.969 15.469 0 12.703-10.297 23-23 23-5.954 0-11.384-2.256-15.469-5.969 4.178 4.291 10.01 6.969 16.469 6.969 12.703 0 23-10.298 23-23 0-6.462-2.677-12.291-6.969-16.469z" style="opacity:.1"/>
 <path d="m18.998 15.043c-2.136 0.17299-3.5322 0.9167-4.4355 2.0781 0.4238 0.57931 1.0742 0.87891 1.9375 0.87891 1.5918 0 2.4845-0.98745 2.498-2.957zm12.002 0.95703v4h-2v2h0.66797c1.9922-1.4356 3.9377-2.8303 4.2754-6h-2.9434zm-4.3594 3.9609c-0.92586 0.94506-1.9272 1.9825-2.6504 3.7793 0.001079 0.090238 0.009766 0.1674 0.009766 0.25977 0 2.0761-0.27257 3.6089-0.95117 4.6074-0.023638 0.448-0.048828 0.89289-0.048828 1.3926h2c0-2.7352 0.83685-4.4475 1.9941-5.7402 6.48e-4 -0.087633 0.005859-0.17149 0.005859-0.25977 0-1.4578-0.090205-2.8256-0.35938-4.0391zm-2.6406 14.039a3 2.5 0 0 0-1.7031 0.44336l1.7031 2.5566 2.5996-1.5-0.52734-0.80664a3 2.5 0 0 0-2.0723-0.69336z" style="opacity:.1;paint-order:normal"/>
 <path d="m19 14c-6 0-7 3.8136-7 9s1 9 7 9 7-4 7-9-1-9-7-9zm0 3c3 0 4 2 4 6s-1 6-4 6-4-2.2545-4-6 1-6 4-6z" style="fill:#f9f9f9;paint-order:normal"/>
 <path d="m19 30 3-1 3.6 5.5-2.6 1.5z" style="fill:#f9f9f9;paint-order:normal"/>
 <path d="m30 15h3v4h3v2h-3v7c0 2 1 2 1.5 2h1.5v2h-2.5c-2 0-3.5-2-3.5-4v-7h-2v-2h2z" style="fill:#f9f9f9;stroke-width:.32579"/>
</svg>
