<svg xmlns="http://www.w3.org/2000/svg" viewBox="0 0 48 48">
 <defs>
  <linearGradient id="linearGradient3764" x1="1" x2="47" gradientUnits="userSpaceOnUse" gradientTransform="matrix(0,-1,1,0,-1.5e-6,47.999998)">
   <stop style="stop-color:#ec9b28;stop-opacity:1"/>
   <stop offset="1" style="stop-color:#eea63b;stop-opacity:1"/>
  </linearGradient>
 </defs>
 <g>
  <path d="m 36.31 5 c 5.859 4.062 9.688 10.831 9.688 18.5 c 0 12.426 -10.07 22.5 -22.5 22.5 c -7.669 0 -14.438 -3.828 -18.5 -9.688 c 1.037 1.822 2.306 3.499 3.781 4.969 c 4.085 3.712 9.514 5.969 15.469 5.969 c 12.703 0 23 -10.298 23 -23 c 0 -5.954 -2.256 -11.384 -5.969 -15.469 c -1.469 -1.475 -3.147 -2.744 -4.969 -3.781 z m 4.969 3.781 c 3.854 4.113 6.219 9.637 6.219 15.719 c 0 12.703 -10.297 23 -23 23 c -6.081 0 -11.606 -2.364 -15.719 -6.219 c 4.16 4.144 9.883 6.719 16.219 6.719 c 12.703 0 23 -10.298 23 -23 c 0 -6.335 -2.575 -12.06 -6.719 -16.219 z" style="opacity:0.05"/>
  <path d="m 41.28 8.781 c 3.712 4.085 5.969 9.514 5.969 15.469 c 0 12.703 -10.297 23 -23 23 c -5.954 0 -11.384 -2.256 -15.469 -5.969 c 4.113 3.854 9.637 6.219 15.719 6.219 c 12.703 0 23 -10.298 23 -23 c 0 -6.081 -2.364 -11.606 -6.219 -15.719 z" style="opacity:0.1"/>
  <path d="m 31.25 2.375 c 8.615 3.154 14.75 11.417 14.75 21.13 c 0 12.426 -10.07 22.5 -22.5 22.5 c -9.708 0 -17.971 -6.135 -21.12 -14.75 a 23 23 0 0 0 44.875 -7 a 23 23 0 0 0 -16 -21.875 z" style="opacity:0.2"/>
 </g>
 <g>
  <path d="m 24 1 c 12.703 0 23 10.297 23 23 c 0 12.703 -10.297 23 -23 23 -12.703 0 -23 -10.297 -23 -23 0 -12.703 10.297 -23 23 -23 z" style="fill:url(#linearGradient3764);fill-opacity:1"/>
 </g>
 <g>
  <g>
   <g transform="translate(1,1)">
    <g style="opacity:0.1">
     <!-- color: #eea63b -->
     <g>
      <path d="M 15 34 L 34.574219 14 L 37 16.425781 L 19.601562 34 M 15 34 " style="fill:#000;fill-opacity:0.914;stroke:none;fill-rule:nonzero"/>
      <path d="m 22 34 l 11.609 -12 l 2.391 2.586 l -9.586 9.414 m -4.414 0" style="fill:#000;fill-opacity:0.914;stroke:none;fill-rule:nonzero"/>
      <path d="m 29 34 l 5.477 -5.348 l 2.133 2.348 l -2.922 3 m -4.688 0" style="fill:#000;fill-opacity:0.914;stroke:none;fill-rule:nonzero"/>
      <path d="m 14.781 16.875 c -2.09 0 -3.781 1.691 -3.781 3.781 c 0 2.09 1.691 3.781 3.781 3.781 c 0.086 0 0.164 -0.027 0.25 -0.031 l -0.031 0.031 c 0.113 0.039 0.316 -0.012 0.531 -0.063 c 0.426 -0.105 0.93 -0.246 1.188 0.031 l 2.625 2.469 l 1.875 -1.875 l -2.594 -2.438 c -0.27 -0.242 -0.195 -0.68 -0.125 -1.156 c 0.035 -0.234 0.059 -0.484 0.063 -0.719 c 0 -0.012 0 -0.023 0 -0.031 c 0 -2.09 -1.691 -3.781 -3.781 -3.781 m 0.063 2.313 c 0.828 0 1.5 0.672 1.5 1.5 c 0 0.828 -0.672 1.5 -1.5 1.5 c -0.828 0 -1.5 -0.672 -1.5 -1.5 c 0 -0.828 0.672 -1.5 1.5 -1.5 m 0 0" style="fill:#000;fill-opacity:0.914;stroke:none;fill-rule:nonzero"/>
     </g>
    </g>
   </g>
  </g>
 </g>
 <g>
  <g>
   <!-- color: #eea63b -->
   <g>
    <path d="M 15 34 L 34.574219 14 L 37 16.425781 L 19.601562 34 M 15 34 " style="fill:#f9f9f9;fill-opacity:0.914;stroke:none;fill-rule:nonzero"/>
    <path d="m 22 34 l 11.609 -12 l 2.391 2.586 l -9.586 9.414 m -4.414 0" style="fill:#f9f9f9;fill-opacity:0.914;stroke:none;fill-rule:nonzero"/>
    <path d="m 29 34 l 5.477 -5.348 l 2.133 2.348 l -2.922 3 m -4.688 0" style="fill:#f9f9f9;fill-opacity:0.914;stroke:none;fill-rule:nonzero"/>
    <path d="m 14.781 16.875 c -2.09 0 -3.781 1.691 -3.781 3.781 c 0 2.09 1.691 3.781 3.781 3.781 c 0.086 0 0.164 -0.027 0.25 -0.031 l -0.031 0.031 c 0.113 0.039 0.316 -0.012 0.531 -0.063 c 0.426 -0.105 0.93 -0.246 1.188 0.031 l 2.625 2.469 l 1.875 -1.875 l -2.594 -2.438 c -0.27 -0.242 -0.195 -0.68 -0.125 -1.156 c 0.035 -0.234 0.059 -0.484 0.063 -0.719 c 0 -0.012 0 -0.023 0 -0.031 c 0 -2.09 -1.691 -3.781 -3.781 -3.781 m 0.063 2.313 c 0.828 0 1.5 0.672 1.5 1.5 c 0 0.828 -0.672 1.5 -1.5 1.5 c -0.828 0 -1.5 -0.672 -1.5 -1.5 c 0 -0.828 0.672 -1.5 1.5 -1.5 m 0 0" style="fill:#f9f9f9;fill-opacity:0.914;stroke:none;fill-rule:nonzero"/>
   </g>
  </g>
 </g>
 <g>
  <path d="m 40.03 7.531 c 3.712 4.084 5.969 9.514 5.969 15.469 0 12.703 -10.297 23 -23 23 c -5.954 0 -11.384 -2.256 -15.469 -5.969 4.178 4.291 10.01 6.969 16.469 6.969 c 12.703 0 23 -10.298 23 -23 0 -6.462 -2.677 -12.291 -6.969 -16.469 z" style="opacity:0.1"/>
 </g>
</svg>
