<svg version="1.1" viewBox="0 0 48 48" xmlns="http://www.w3.org/2000/svg">
 <defs>
  <linearGradient id="lG3764" x1="1" x2="47" gradientTransform="rotate(-90,24,24)" gradientUnits="userSpaceOnUse">
   <stop style="stop-color:#e4e4e4" offset="0"/>
   <stop style="stop-color:#eee" offset="1"/>
  </linearGradient>
 </defs>
 <path d="m36.3 5c5.86 4.06 9.69 10.8 9.69 18.5 0 12.4-10.1 22.5-22.5 22.5-7.67 0-14.4-3.83-18.5-9.69 1.04 1.82 2.31 3.5 3.78 4.97 4.08 3.71 9.51 5.97 15.5 5.97 12.7 0 23-10.3 23-23 0-5.95-2.26-11.4-5.97-15.5-1.47-1.48-3.15-2.74-4.97-3.78zm4.97 3.78c3.85 4.11 6.22 9.64 6.22 15.7 0 12.7-10.3 23-23 23-6.08 0-11.6-2.36-15.7-6.22 4.16 4.14 9.88 6.72 16.2 6.72 12.7 0 23-10.3 23-23 0-6.34-2.58-12.1-6.72-16.2z" style="opacity:.05"/>
 <path d="m41.3 8.78c3.71 4.08 5.97 9.51 5.97 15.5 0 12.7-10.3 23-23 23-5.95 0-11.4-2.26-15.5-5.97 4.11 3.85 9.64 6.22 15.7 6.22 12.7 0 23-10.3 23-23 0-6.08-2.36-11.6-6.22-15.7z" style="opacity:.1"/>
 <path d="m31.2 2.38c8.62 3.15 14.8 11.4 14.8 21.1 0 12.4-10.1 22.5-22.5 22.5-9.71 0-18-6.14-21.1-14.8a23 23 0 0 0 44.9-7 23 23 0 0 0-16-21.9z" style="opacity:.2"/>
 <path d="m24 1c12.7 0 23 10.3 23 23s-10.3 23-23 23-23-10.3-23-23 10.3-23 23-23z" style="fill:url(#lG3764)"/>
 <path d="m20 20.4-1.12-0.156c0.348-1.86-0.891-2.7-2.07-3.37 2.41 3.16-0.477 3.16-1.59 7.22-0.379 1.38-0.688 2.79-0.148 4.01l0.074 2.34c-0.289 0.586-0.828 1.11-1.07 1.63-0.137 0.289 0.195 0.508 0.438 0.645 0.367 0.211 0.867 0.277 1.08 0.668l0.019 1.59 0.539 0.395c0.117 0.199 0.063 0.438 0.25 0.594 0.313 0.258 0.828 0.234 1.07 0.777 0.109 0.25 0.184 0.531 0.328 0.777 0.223 0.379 0.844 0.492 1.27 0.453 0.461-0.047 0.801-0.191 1.24-0.324 1.14-0.355 2.23-0.824 3.25-1.47 0.859-0.551 1.38-0.863 2.16-1.32 0.566-0.32 1.37-0.215 2-0.375 0.773-0.199 1.7-0.512 2.25-1.06 0.578-0.57 0.816-1.02 0.992-2.07-0.25 0.344-0.895 1.13-1.54 1.34-0.703 0.23-0.953 0.109-1.17-0.18-0.18-0.246-0.227-0.574-0.219-0.879 0.418-1.38 2.22-0.801 3.43-1.28 2.2-0.863 2.71-2.83 2.86-4.37 0.066-0.84 0.176-1.41 1.59-3.1-1.77 0.762-2.51 1.46-2.92 2.35l-2.32 1c-0.922-1.05 1.14-2.46 2.65-2.83 1.2-0.301 2.31-1.5 2.56-2.66 0.605-4.03-1.29-5.82 0.152-8.78-4.29 3.35-0.648 5.18-3.39 7.93-1.57 1.57-3.21 0.734-2.6-0.605 0.402-0.863 1.36-0.34 1.68-2.34-0.895 1.29-3.77 0.418-4.58 2.52-1.44 3.66-3.42 0.141-0.16-1.61 1.38-0.742 4.69-0.5 5.49-5.77-1.61 3.12-5.57 2.62-8.74 3.97l-3.73 4.32" style="opacity:.1"/>
 <path d="m19 19.4c0.055 1.4-1.43 1.46-1.12-0.156 0.348-1.86-0.891-2.7-2.07-3.37 2.41 3.16-0.477 3.16-1.59 7.22-0.379 1.38-0.688 2.79-0.148 4.01 0.156 0.348 0.57 0.766 0.531 1.18-0.039 0.438-0.27 0.773-0.457 1.16-0.289 0.586-0.828 1.11-1.07 1.63-0.137 0.289 0.195 0.508 0.438 0.645 0.367 0.211 0.867 0.277 1.08 0.668 0.148 0.27 0.109 0.555-0.02 0.816-0.117 0.246-0.203 0.613 0.039 0.777 0.18 0.121 0.414 0.184 0.539 0.395 0.117 0.199 0.063 0.438 0.25 0.594 0.313 0.258 0.828 0.234 1.07 0.777 0.109 0.25 0.184 0.531 0.328 0.777 0.223 0.379 0.844 0.492 1.27 0.453 0.461-0.047 0.801-0.191 1.24-0.324 1.14-0.355 2.23-0.824 3.25-1.47 0.859-0.551 1.38-0.863 2.16-1.32 0.566-0.32 1.37-0.215 2-0.375 0.773-0.199 1.7-0.512 2.25-1.06 0.578-0.57 0.816-1.02 0.992-2.07-0.25 0.344-0.895 1.13-1.54 1.34-0.703 0.23-0.953 0.109-1.17-0.18-0.18-0.246-0.227-0.574-0.219-0.879 0.418-1.38 2.22-0.801 3.43-1.28 2.2-0.863 2.71-2.83 2.86-4.37 0.066-0.84 0.176-1.41 1.59-3.1-1.77 0.762-2.51 1.46-2.92 2.35-0.383 0.84-1.59 1.82-2.32 1-0.922-1.05 1.14-2.46 2.65-2.83 1.2-0.301 2.31-1.5 2.56-2.66 0.605-4.03-1.29-5.82 0.152-8.78-4.29 3.35-0.648 5.18-3.39 7.93-1.57 1.57-3.21 0.734-2.6-0.605 0.402-0.863 1.36-0.34 1.68-2.34-0.895 1.29-3.77 0.418-4.58 2.52-1.44 3.66-3.42 0.141-0.16-1.61 1.38-0.742 4.69-0.5 5.49-5.77-1.61 3.12-5.57 2.62-8.74 3.97-1.65 0.695-3.82 2.32-3.73 4.32" style="fill:#1993d7"/>
 <path d="m40 7.53c3.71 4.08 5.97 9.51 5.97 15.5 0 12.7-10.3 23-23 23-5.95 0-11.4-2.26-15.5-5.97 4.18 4.29 10 6.97 16.5 6.97 12.7 0 23-10.3 23-23 0-6.46-2.68-12.3-6.97-16.5z" style="opacity:.1"/>
</svg>
