<svg version="1.1" viewBox="0 0 48 48" xmlns="http://www.w3.org/2000/svg">
 <defs>
  <linearGradient id="bg" x2="0" y1="1" y2="47" gradientUnits="userSpaceOnUse">
   <stop style="stop-color:#d07d2a" offset="0"/>
   <stop style="stop-color:#c07427" offset="1"/>
  </linearGradient>
 </defs>
 <path d="m36.3 5c5.86 4.06 9.69 10.8 9.69 18.5 0 12.4-10.1 22.5-22.5 22.5-7.67 0-14.4-3.83-18.5-9.69 1.04 1.82 2.31 3.5 3.78 4.97 4.08 3.71 9.51 5.97 15.5 5.97 12.7 0 23-10.3 23-23 0-5.95-2.26-11.4-5.97-15.5-1.47-1.48-3.15-2.74-4.97-3.78zm4.97 3.78c3.85 4.11 6.22 9.64 6.22 15.7 0 12.7-10.3 23-23 23-6.08 0-11.6-2.36-15.7-6.22 4.16 4.14 9.88 6.72 16.2 6.72 12.7 0 23-10.3 23-23 0-6.34-2.58-12.1-6.72-16.2z" style="opacity:.05"/>
 <path d="m41.3 8.78c3.71 4.08 5.97 9.51 5.97 15.5 0 12.7-10.3 23-23 23-5.95 0-11.4-2.26-15.5-5.97 4.11 3.85 9.64 6.22 15.7 6.22 12.7 0 23-10.3 23-23 0-6.08-2.36-11.6-6.22-15.7z" style="opacity:.1"/>
 <path d="m31.2 2.38c8.62 3.15 14.8 11.4 14.8 21.1 0 12.4-10.1 22.5-22.5 22.5-9.71 0-18-6.14-21.1-14.8a23 23 0 0 0 44.9-7 23 23 0 0 0-16-21.9z" style="opacity:.2"/>
 <circle cx="24" cy="24" r="23" style="fill:url(#bg)"/>
 <path d="m40 7.53c3.71 4.08 5.97 9.51 5.97 15.5 0 12.7-10.3 23-23 23-5.95 0-11.4-2.26-15.5-5.97 4.18 4.29 10 6.97 16.5 6.97 12.7 0 23-10.3 23-23 0-6.46-2.68-12.3-6.97-16.5z" style="opacity:.1"/>
 <path d="m19 17c-3.87 0-7 3.13-7 7s3.13 7 7 7c1.88-0.0063 3.69-0.772 5-2.12v7.12c0 0.552 0.448 1 1 1s1-0.448 1-1v-12c0-3.87-3.13-7-7-7zm8.1 6e-3c-0.175-0.0175-0.351 0.0115-0.512 0.084-0.503 0.229-0.725 0.821-0.496 1.32l5 11c0.356 0.781 1.46 0.781 1.82 0l5-11c0.229-0.503 0.0065-1.1-0.496-1.32-0.503-0.229-1.1-0.0065-1.32 0.496l-4.09 9-4.09-9c-0.11-0.241-0.311-0.428-0.559-0.521-0.0817-0.0305-0.167-0.0502-0.254-0.0586zm-8.1 1.99c2.76 0 5 2.24 5 5s-2.24 5-5 5-5-2.24-5-5 2.24-5 5-5z" style="opacity:.1"/>
 <path d="m18 16c-3.87 0-7 3.13-7 7s3.13 7 7 7c1.88-0.0063 3.69-0.772 5-2.12v7.12c0 0.552 0.448 1 1 1s1-0.448 1-1v-12c0-3.87-3.13-7-7-7zm8.1 6e-3c-0.175-0.0175-0.351 0.0115-0.512 0.084-0.503 0.229-0.725 0.821-0.496 1.32l5 11c0.356 0.781 1.46 0.781 1.82 0l5-11c0.229-0.503 0.0065-1.1-0.496-1.32-0.503-0.229-1.1-0.0065-1.32 0.496l-4.09 9-4.09-9c-0.11-0.241-0.311-0.428-0.559-0.521-0.0817-0.0305-0.167-0.0502-0.254-0.0586zm-8.1 1.99c2.76 0 5 2.24 5 5s-2.24 5-5 5-5-2.24-5-5 2.24-5 5-5z" style="fill:#f9f886"/>
</svg>
