<?xml version="1.0" encoding="UTF-8"?>
<svg version="1.1" viewBox="0 0 48 48" xmlns="http://www.w3.org/2000/svg">
 <defs>
  <linearGradient id="bg" x2="0" y1="1" y2="47" gradientUnits="userSpaceOnUse">
   <stop style="stop-color:#5993f3" offset="0"/>
   <stop style="stop-color:#4586f1" offset="1"/>
  </linearGradient>
 </defs>
 <path d="m36.3 5c5.86 4.06 9.69 10.8 9.69 18.5 0 12.4-10.1 22.5-22.5 22.5-7.67 0-14.4-3.83-18.5-9.69 1.04 1.82 2.31 3.5 3.78 4.97 4.08 3.71 9.51 5.97 15.5 5.97 12.7 0 23-10.3 23-23 0-5.95-2.26-11.4-5.97-15.5-1.47-1.48-3.15-2.74-4.97-3.78zm4.97 3.78c3.85 4.11 6.22 9.64 6.22 15.7 0 12.7-10.3 23-23 23-6.08 0-11.6-2.36-15.7-6.22 4.16 4.14 9.88 6.72 16.2 6.72 12.7 0 23-10.3 23-23 0-6.34-2.58-12.1-6.72-16.2z" style="opacity:.05"/>
 <path d="m41.3 8.78c3.71 4.08 5.97 9.51 5.97 15.5 0 12.7-10.3 23-23 23-5.95 0-11.4-2.26-15.5-5.97 4.11 3.85 9.64 6.22 15.7 6.22 12.7 0 23-10.3 23-23 0-6.08-2.36-11.6-6.22-15.7z" style="opacity:.1"/>
 <path d="m31.2 2.38c8.62 3.15 14.8 11.4 14.8 21.1 0 12.4-10.1 22.5-22.5 22.5-9.71 0-18-6.14-21.1-14.8a23 23 0 0 0 44.9-7 23 23 0 0 0-16-21.9z" style="opacity:.2"/>
 <circle cx="24" cy="24" r="23" style="fill:url(#bg)"/>
 <path d="m40 7.53c3.71 4.08 5.97 9.51 5.97 15.5 0 12.7-10.3 23-23 23-5.95 0-11.4-2.26-15.5-5.97 4.18 4.29 10 6.97 16.5 6.97 12.7 0 23-10.3 23-23 0-6.46-2.68-12.3-6.97-16.5z" style="opacity:.1"/>
 <path d="m10.5 21.5c0 0.831 0.669 1.5 1.5 1.5h8.88l-0.439 0.439c-0.586 0.586-0.586 1.54 0 2.12 0.281 0.281 0.663 0.439 1.06 0.439 0.398-6e-5 0.779-0.158 1.06-0.439l3-3c0.586-0.586 0.586-1.54 0-2.12l-1.5-1.44-9.97 1c2.06-4.5 6.72-7.34 11.8-6.97 5.76 0.428 10.4 4.87 11 10.6 0.0929 0.824 0.836 1.42 1.66 1.32 0.823-0.0939 1.41-0.837 1.32-1.66-0.815-7.15-6.62-12.7-13.8-13.3-9.11-0.0405-16.1 9.96-15.6 11.5zm18 2.5-4.06 5.56 3 3c0.586 0.586 1.54 0.586 2.12 0 0.586-0.586 0.586-1.54 0-2.12l-0.439-0.439h6.79c-2.06 4.5-6.72 7.34-11.8 6.97-5.76-0.428-10.4-4.87-11-10.6-0.0929-0.824-0.836-1.42-1.66-1.32-0.823 0.0939-1.41 0.837-1.32 1.66 0.815 7.15 6.62 12.7 13.8 13.3 7.18 0.533 13.7-4.13 15.6-11.1 0.0319-0.119 0.0117-0.254 0.0117-0.383 0-0.831-0.669-1.5-1.5-1.5h-8.88l0.439-0.439c0.586-0.586 0.586-1.54 0-2.12-0.281-0.281-0.663-0.439-1.06-0.439z" style="opacity:.1"/>
 <path d="m23.8 9c-6.64 0.0978-12.5 4.6-14.3 11.1-0.0319 0.119-0.0117 0.254-0.0117 0.383 0 0.831 0.669 1.5 1.5 1.5h8.88l-0.439 0.439c-0.586 0.586-0.586 1.54 0 2.12 0.281 0.281 0.663 0.439 1.06 0.439 0.398-6e-5 0.779-0.158 1.06-0.439l3-3c0.586-0.586 0.586-1.54 0-2.12l-3-3c-0.586-0.586-1.54-0.586-2.12 0-0.586 0.586-0.586 1.54 0 2.12l0.439 0.439h-6.79c2.06-4.5 6.72-7.34 11.8-6.97 5.76 0.428 10.4 4.87 11 10.6 0.0929 0.824 0.836 1.42 1.66 1.32 0.823-0.0939 1.41-0.837 1.32-1.66-0.815-7.15-6.62-12.7-13.8-13.3-0.449-0.0333-0.895-0.0456-1.34-0.0391zm3.73 14c-0.398 6e-5 -0.779 0.158-1.06 0.439l-3 3c-0.586 0.586-0.586 1.54 0 2.12l3 3c0.586 0.586 1.54 0.586 2.12 0 0.586-0.586 0.586-1.54 0-2.12l-0.439-0.439h6.79c-2.06 4.5-6.72 7.34-11.8 6.97-5.76-0.428-10.4-4.87-11-10.6-0.0929-0.824-0.836-1.42-1.66-1.32-0.823 0.0939-1.41 0.837-1.32 1.66 0.815 7.15 6.62 12.7 13.8 13.3 7.18 0.533 13.7-4.13 15.6-11.1 0.0319-0.119 0.0117-0.254 0.0117-0.383 0-0.831-0.669-1.5-1.5-1.5h-8.88l0.439-0.439c0.586-0.586 0.586-1.54 0-2.12-0.281-0.281-0.663-0.439-1.06-0.439z" style="fill:#f9f9f9"/>
</svg>
