<svg xmlns="http://www.w3.org/2000/svg" viewBox="0 0 48 48">
 <defs>
  <linearGradient id="linearGradient3764" x1="1" x2="47" gradientUnits="userSpaceOnUse" gradientTransform="matrix(0,-1,1,0,-1.5e-6,47.799998)">
   <stop style="stop-color:#c8dae4;stop-opacity:1"/>
   <stop offset="1" style="stop-color:#d6e4eb;stop-opacity:1"/>
  </linearGradient>
 </defs>
 <g>
  <path d="m 36.31 5 c 5.859 4.062 9.688 10.831 9.688 18.5 c 0 12.426 -10.07 22.5 -22.5 22.5 c -7.669 0 -14.438 -3.828 -18.5 -9.688 c 1.037 1.822 2.306 3.499 3.781 4.969 c 4.085 3.712 9.514 5.969 15.469 5.969 c 12.703 0 23 -10.298 23 -23 c 0 -5.954 -2.256 -11.384 -5.969 -15.469 c -1.469 -1.475 -3.147 -2.744 -4.969 -3.781 z m 4.969 3.781 c 3.854 4.113 6.219 9.637 6.219 15.719 c 0 12.703 -10.297 23 -23 23 c -6.081 0 -11.606 -2.364 -15.719 -6.219 c 4.16 4.144 9.883 6.719 16.219 6.719 c 12.703 0 23 -10.298 23 -23 c 0 -6.335 -2.575 -12.06 -6.719 -16.219 z" style="opacity:0.05"/>
  <path d="m 41.28 8.781 c 3.712 4.085 5.969 9.514 5.969 15.469 c 0 12.703 -10.297 23 -23 23 c -5.954 0 -11.384 -2.256 -15.469 -5.969 c 4.113 3.854 9.637 6.219 15.719 6.219 c 12.703 0 23 -10.298 23 -23 c 0 -6.081 -2.364 -11.606 -6.219 -15.719 z" style="opacity:0.1"/>
  <path d="m 31.25 2.375 c 8.615 3.154 14.75 11.417 14.75 21.13 c 0 12.426 -10.07 22.5 -22.5 22.5 c -9.708 0 -17.971 -6.135 -21.12 -14.75 a 23 23 0 0 0 44.875 -7 a 23 23 0 0 0 -16 -21.875 z" style="opacity:0.2"/>
 </g>
 <g>
  <path d="m 24,0.8 c 12.703,0 23,10.297 23,23 0,12.703 -10.297,23 -23,23 C 11.297,46.8 1,36.503 1,23.8 1,11.097 11.297,0.8 24,0.8 Z" style="fill:url(#linearGradient3764);fill-opacity:1"/>
 </g>
 <g>
  <path d="m 40.03 7.531 c 3.712 4.084 5.969 9.514 5.969 15.469 0 12.703 -10.297 23 -23 23 c -5.954 0 -11.384 -2.256 -15.469 -5.969 4.178 4.291 10.01 6.969 16.469 6.969 c 12.703 0 23 -10.298 23 -23 0 -6.462 -2.677 -12.291 -6.969 -16.469 z" style="opacity:0.1"/>
 </g>
 <g transform="translate(11,-26)">
  <path d="m 2.332 40.38 c -0.885 1.024 0.213 6.589 1.653 8.675 -0.498 1.181 -0.372 3.677 -0.108 4.178 c -0.704 0.284 -1.531 0.437 -1.831 0.966 -0.835 1.866 9.73 9.31 11.924 9.804 c 1.86 -0.221 12.76 -7.859 11.825 -9.804 -0.301 -0.626 -0.963 -0.784 -1.863 -0.966 0.18 -0.655 0.59 -2.957 -0.093 -4.178 1.201 -1.845 2.964 -7.392 1.752 -8.674 -1.212 -1.282 -6.789 1.039 -9.198 1.983 -2.063 -0.521 -4.062 -0.46 -5.956 0.137 -2.482 -1.419 -7.221 -3.145 -8.106 -2.121 z" style="fill:#000;opacity:0.1;fill-opacity:1;stroke:none"/>
  <path d="m 1.332 39.38 c -0.885 1.024 0.213 6.589 1.653 8.675 -0.498 1.181 -0.372 3.677 -0.108 4.178 c -0.704 0.284 -1.531 0.437 -1.831 0.966 -0.835 1.866 9.73 9.31 11.924 9.804 c 1.86 -0.221 12.76 -7.859 11.825 -9.804 -0.301 -0.626 -0.963 -0.784 -1.863 -0.966 0.18 -0.655 0.59 -2.957 -0.093 -4.178 1.201 -1.845 2.964 -7.392 1.752 -8.674 -1.212 -1.282 -6.789 1.039 -9.198 1.983 -2.063 -0.521 -4.062 -0.46 -5.956 0.137 -2.482 -1.419 -7.221 -3.145 -8.106 -2.121 z" style="fill:#828282;fill-opacity:1;stroke:none"/>
  <path transform="matrix(0.99369147,0,0,0.95562664,-0.01529679,2.7955218)" d="m 7.383 41.467 c 0.058 0.354 -1.299 1.569 -1.576 1.797 -0.277 0.227 -1.736 1.318 -2.072 1.191 -0.335 -0.127 -0.71 -1.909 -0.768 -2.263 c -0.058 -0.354 -0.273 -2.163 0.004 -2.39 0.277 -0.227 2.01 0.34 2.344 0.467 0.335 0.127 2.01 0.845 2.068 1.199 z" style="fill:#b5adb4;fill-opacity:1;stroke:none"/>
  <path d="m 9.267 45.723 c -2.769 0 -5.02 2.026 -5.02 4.516 c 0 2.49 2.248 4.499 5.02 4.499 l 7.467 0 c 2.769 0 5.02 -2.01 5.02 -4.499 0 -2.49 -2.248 -4.516 -5.02 -4.516 -1.484 0 -2.815 0.656 -3.733 1.577 -0.918 -0.924 -2.247 -1.577 -3.733 -1.577 z" style="fill:#43494d;fill-opacity:1;stroke:none"/>
  <path d="m 23.5 53.607 c -0.249 1.434 -9.685 7.774 -10.497 7.893 -1.464 -0.484 -10.971 -7.132 -10.497 -7.893 c 0.402 -0.671 9.692 -0.605 10.497 -0.605 0.805 0 10.09 -0.066 10.497 0.605 z" style="fill:#bebebe;fill-opacity:1;stroke:none"/>
  <path transform="matrix(0.43360681,0,0,0.39428104,20.034966,44.146673)" d="m -11.427 21.753 c 0.362 0.628 -1.547 3.81 -1.909 4.438 -0.362 0.628 -2.164 3.872 -2.889 3.872 -0.725 0 -2.526 -3.245 -2.889 -3.872 -0.362 -0.628 -2.271 -3.81 -1.909 -4.438 0.362 -0.628 4.073 -0.566 4.798 -0.566 0.725 0 4.435 -0.062 4.798 0.566 z" style="fill:#333;fill-opacity:1;stroke:none"/>
  <path transform="matrix(-0.24465112,0.44240329,-0.49864945,-0.2170552,28.322348,73.882937)" d="m -23.05 35.627 c 3.92 -1.854 7.404 2.632 7.881 6.05" style="stroke-dasharray:none;stroke-opacity:1;fill:none;stroke-miterlimit:4;stroke:#333;stroke-linecap:round;stroke-linejoin:miter;stroke-width:1.966"/>
  <g transform="matrix(0.51859788,0,0,0.49873222,6.2630906,25.840335)">
   <path d="m 4.892 43.03 c -2.658 0 -4.821 2.772 -4.821 6.174 0 1.466 0.429 2.593 1.097 3.651 2.641 -0.869 4.73 -0.815 7.255 0 0.668 -1.058 1.289 -2.184 1.289 -3.651 0 -3.402 -2.163 -6.174 -4.821 -6.174 z" style="fill:#f9f9f9;fill-opacity:1;stroke:none"/>
   <ellipse ry="3.208" rx="3.085" cy="47.64" cx="4.858" style="fill:#3a9cbd;fill-opacity:1;stroke:none"/>
   <ellipse ry="1.404" rx="1.35" cy="47.64" cx="4.858" style="fill:#333;fill-opacity:1;stroke:none"/>
   <path d="m 21.09 43.03 c -2.658 0 -4.821 2.772 -4.821 6.174 0 1.466 0.429 2.593 1.097 3.651 2.494 -0.971 4.922 -0.815 7.447 0 0.668 -1.058 1.097 -2.184 1.097 -3.651 0 -3.402 -2.163 -6.174 -4.821 -6.174 z" style="fill:#f9f9f9;fill-opacity:1;stroke:none"/>
   <ellipse cx="21.06" cy="47.64" rx="3.085" ry="3.208" style="fill:#3a9cbd;fill-opacity:1;stroke:none"/>
   <ellipse cx="21.06" cy="47.64" rx="1.35" ry="1.404" style="fill:#333;fill-opacity:1;stroke:none"/>
  </g>
  <path d="m 7.383 41.467 c 0.058 0.354 -1.299 1.569 -1.576 1.797 -0.277 0.227 -1.736 1.318 -2.072 1.191 -0.335 -0.127 -0.71 -1.909 -0.768 -2.263 c -0.058 -0.354 -0.273 -2.163 0.004 -2.39 0.277 -0.227 2.01 0.34 2.344 0.467 0.335 0.127 2.01 0.845 2.068 1.199 z" transform="matrix(-0.99369147,0,0,0.95562664,26.038325,2.7955218)" style="fill:#b5adb4;fill-opacity:1;stroke:none"/>
 </g>
</svg>
