<svg version="1.1" viewBox="0 0 48 48" xmlns="http://www.w3.org/2000/svg">
 <defs>
  <linearGradient id="linearGradient3764" x1="1" x2="47" gradientTransform="matrix(0 -1 1 0 -1.5e-6 48)" gradientUnits="userSpaceOnUse">
   <stop style="stop-color:#373e4d" offset="0"/>
   <stop style="stop-color:#414c58" offset="1"/>
  </linearGradient>
 </defs>
 <g>
  <path d="m36.3 5c5.86 4.06 9.69 10.8 9.69 18.5 0 12.4-10.1 22.5-22.5 22.5-7.67 0-14.4-3.83-18.5-9.69 1.04 1.82 2.31 3.5 3.78 4.97 4.08 3.71 9.51 5.97 15.5 5.97 12.7 0 23-10.3 23-23 0-5.95-2.26-11.4-5.97-15.5-1.47-1.48-3.15-2.74-4.97-3.78zm4.97 3.78c3.85 4.11 6.22 9.64 6.22 15.7 0 12.7-10.3 23-23 23-6.08 0-11.6-2.36-15.7-6.22 4.16 4.14 9.88 6.72 16.2 6.72 12.7 0 23-10.3 23-23 0-6.34-2.58-12.1-6.72-16.2z" style="opacity:.05"/>
  <path d="m41.3 8.78c3.71 4.08 5.97 9.51 5.97 15.5 0 12.7-10.3 23-23 23-5.95 0-11.4-2.26-15.5-5.97 4.11 3.85 9.64 6.22 15.7 6.22 12.7 0 23-10.3 23-23 0-6.08-2.36-11.6-6.22-15.7z" style="opacity:.1"/>
  <path d="m31.2 2.38c8.62 3.15 14.8 11.4 14.8 21.1 0 12.4-10.1 22.5-22.5 22.5-9.71 0-18-6.14-21.1-14.8a23 23 0 0 0 44.9-7 23 23 0 0 0-16-21.9z" style="opacity:.2"/>
 </g>
 <g>
  <path d="m24 1c12.7 0 23 10.3 23 23s-10.3 23-23 23-23-10.3-23-23 10.3-23 23-23z" style="fill:url(#linearGradient3764)"/>
 </g>
 <g>
  <g>
   <g transform="translate(1,1)">
    <g style="opacity:.1">
     <g>
      <path d="m19 15.1c-2.78 2.73-2.79 7.18-0.012 9.91l1.32-1.31c-2.06-2.02-2.05-5.27 0.012-7.3m7.43-0.016c2.06 2.03 2.08 5.3 0.012 7.33l1.32 1.3c2.78-2.73 2.77-7.2-8e-3 -9.93"/>
      <path d="m14.8 11c-5.07 4.95-5.09 13-0.023 18l2.41-2.36c-3.76-3.68-3.74-9.57 0.02-13.2m13.6-0.02c3.76 3.67 3.79 9.61 0.023 13.3l2.41 2.36c5.07-4.95 5.04-13-0.023-18l-2.41 2.36"/>
      <path d="m24 20c-0.547 8e-3 -0.98 0.445-0.969 0.977l0.016 16c0 0.531 0.441 0.961 0.992 0.961 0.547 0 0.988-0.43 0.988-0.961l-0.016-16c4e-3 -0.262-0.102-0.512-0.289-0.695-0.191-0.188-0.453-0.289-0.723-0.281"/>
     </g>
    </g>
   </g>
  </g>
 </g>
 <g>
  <g>
   <g>
    <path d="m19 15.1c-2.78 2.73-2.79 7.18-0.012 9.91l1.32-1.31c-2.06-2.02-2.05-5.27 0.012-7.3m7.43-0.016c2.06 2.03 2.08 5.3 0.012 7.33l1.32 1.3c2.78-2.73 2.77-7.2-8e-3 -9.93" style="fill:#7695d6"/>
    <path d="m14.8 11c-5.07 4.95-5.09 13-0.023 18l2.41-2.36c-3.76-3.68-3.74-9.57 0.02-13.2m13.6-0.02c3.76 3.67 3.79 9.61 0.023 13.3l2.41 2.36c5.07-4.95 5.04-13-0.023-18l-2.41 2.36" style="fill:#7695d6"/>
    <path d="m24 20c-0.547 8e-3 -0.98 0.445-0.969 0.977l0.016 16c0 0.531 0.441 0.961 0.992 0.961 0.547 0 0.988-0.43 0.988-0.961l-0.016-16c4e-3 -0.262-0.102-0.512-0.289-0.695-0.191-0.188-0.453-0.289-0.723-0.281" style="fill:#eaeaea"/>
   </g>
  </g>
 </g>
 <g>
  <path d="m40 7.53c3.71 4.08 5.97 9.51 5.97 15.5 0 12.7-10.3 23-23 23-5.95 0-11.4-2.26-15.5-5.97 4.18 4.29 10 6.97 16.5 6.97 12.7 0 23-10.3 23-23 0-6.46-2.68-12.3-6.97-16.5z" style="opacity:.1"/>
 </g>
</svg>
