<svg version="1.1" viewBox="0 0 48 48" xmlns="http://www.w3.org/2000/svg">
 <defs>
  <linearGradient id="bg" x2="0" y1="1" y2="47" gradientUnits="userSpaceOnUse">
   <stop style="stop-color:#616161" offset="0"/>
   <stop style="stop-color:#575757" offset="1"/>
  </linearGradient>
 </defs>
 <path d="m36.31 5c5.859 4.062 9.688 10.831 9.688 18.5 0 12.426-10.07 22.5-22.5 22.5-7.669 0-14.438-3.828-18.5-9.688 1.037 1.822 2.306 3.499 3.781 4.969 4.085 3.712 9.514 5.969 15.469 5.969 12.703 0 23-10.298 23-23 0-5.954-2.256-11.384-5.969-15.469-1.469-1.475-3.147-2.744-4.969-3.781zm4.969 3.781c3.854 4.113 6.219 9.637 6.219 15.719 0 12.703-10.297 23-23 23-6.081 0-11.606-2.364-15.719-6.219 4.16 4.144 9.883 6.719 16.219 6.719 12.703 0 23-10.298 23-23 0-6.335-2.575-12.06-6.719-16.219z" style="opacity:.05"/>
 <path d="m41.28 8.781c3.712 4.085 5.969 9.514 5.969 15.469 0 12.703-10.297 23-23 23-5.954 0-11.384-2.256-15.469-5.969 4.113 3.854 9.637 6.219 15.719 6.219 12.703 0 23-10.298 23-23 0-6.081-2.364-11.606-6.219-15.719z" style="opacity:.1"/>
 <path d="m31.25 2.375c8.615 3.154 14.75 11.417 14.75 21.13 0 12.426-10.07 22.5-22.5 22.5-9.708 0-17.971-6.135-21.12-14.75a23 23 0 0 0 44.875-7 23 23 0 0 0-16-21.875z" style="opacity:.2"/>
 <circle cx="24" cy="24" r="23" style="fill:url(#bg)"/>
 <path d="m40.03 7.531c3.712 4.084 5.969 9.514 5.969 15.469 0 12.703-10.297 23-23 23-5.954 0-11.384-2.256-15.469-5.969 4.178 4.291 10.01 6.969 16.469 6.969 12.703 0 23-10.298 23-23 0-6.462-2.677-12.291-6.969-16.469z" style="opacity:.1"/>
 <path d="m14 24c0 2 1 3 2 3h2l-1.2773 2c-0.34613-0.59959-0.98332-1.009-1.7227-1-1.0857 0.01314-2.0002 0.91422-2 2-0.57191 0.57191-0.57191 1.4281 0 2 0.57191 0.57191 1.4281 0.57191 2 0 4e-5 0 1 0.99996 1 0.99996-1.4204 0-3 1-3 4h6c0-0.4544-0.0497-0.85892-0.12109-1.2402 0.33118 0.15027 0.70375 0.24023 1.1211 0.24023 0.12943 0 0.26028-0.02326 0.39062-0.03906-0.17375 0.3228-0.30961 0.66775-0.39062 1.0391h18l1-1c0-0.74284-0.0045-0.9333-1.0293-0.98242 0.0082-0.34359-0.01749-0.66299-0.16992-0.81836-0.12895-0.13144-0.52139-0.1766-1-0.19141 0.11426-0.30469 0.19922-0.63281 0.19922-1.0078 0-0.48952-0.48313-0.73767-1.207-0.86523 0.11935-0.37019 0.20703-0.75038 0.20703-1.1348 0-0.8384-0.54554-1.3129-1.3789-1.5957 0.22121-0.48728 0.37891-0.97031 0.37891-1.4043 0-0.79708-0.48886-1.2683-1.252-1.5566 0.69618-0.8155 1.252-1.6986 1.252-2.4434 0-1.0984-0.91346-1.5834-2.0605-1.8066 0.597-0.74404 1.0605-1.5234 1.0605-2.1934 0-1.1492-0.68315-1.9564-2.0039-2.4453 0.58017-0.89203 1.0039-1.7881 1.0039-2.5547 0-1.6739-3.4216-1.936-5.7363-1.9805-0.65362-1.1034-1.4364-2.0113-2.2637-2.0195z" style="opacity:.1"/>
 <path d="m32 14c0-2-5-2-7-2l2 9s5-4.3086 5-7z" style="fill:#d88c00"/>
 <path d="m24 10c-2.603-0.02583-5 6-5 6h9s-1.866-5.9788-4-6z" style="fill:#efb70c"/>
 <path d="m33 19c0 2-4 5-4 5l-2-8c4 0 6 1 6 3z" style="fill:#efb70c"/>
 <path d="m29 21 1 7s4-3 4-5-3-2-5-2z" style="fill:#d88c00"/>
 <path d="m28 25 3 7s3-3 3-5-3-2-6-2z" style="fill:#efb70c"/>
 <path d="m33 34s2-2 2-4-3-2-6-2z" style="fill:#d88c00"/>
 <path d="m32 31 2 4s2-1 2-3c0-1-2-1-4-1z" style="fill:#efb70c"/>
 <path d="m36.75 35.5s0.50413-1.8371 0.05-2.3c-0.70033-0.71382-7.8 0.6-7.8 0.6z" style="fill:#d88c00"/>
 <path d="m38 35c0-1 0-1-2.5-1l0.5 1z" style="fill:#efb70c"/>
 <path d="m37 36 1-1c-3 0-7-6.3422-7-10 0-5-1-11-8-11-6 0-8 2-8 6-1.568 0.405-2 2-2 3 0 2 1 3 2 3h3v2h-3v6h5l7 2z" style="fill:#6f68ee"/>
 <path d="m26 25c-0.531 0.401-1 1-2 1h-7l-1 2h8c1 0 2.015-2.124 2-3z" style="fill:#f07778"/>
 <path d="m18 29c-3 0-2.5 6 1 6s7.5-6 3-6z" style="fill:#f9f9f9"/>
 <path d="m19 18-2 5c0 1.108 0.892 2 2 2s2-0.892 2-2v-3c0-1.108-0.892-2-2-2zm5.5 0-2.5 4.5c0 1.385 1.115 2.5 2.5 2.5s2.5-1.115 2.5-2.5v-2c0-1.385-1.115-2.5-2.5-2.5zm2.5 6c0 1.1046 0.89543 2 2 2s2-0.89543 2-2-0.89543-2-2-2zm-11-1c-0.55228 0-1 0.44772-1 1s0.44772 1 1 1 1-0.44772 1-1-0.44772-1-1-1zm14 4-3 3c6.8e-5 0.95969 0.45893 1.8044 1.1602 2.3535 0.22149 0.59253 0.66464 1.1041 1.2832 1.3926 1.2514 0.58351 2.7388 0.04239 3.3223-1.209 0.26816-0.57508 0.28801-1.1975 0.12109-1.7617 0.0667-0.24858 0.11328-0.50576 0.11328-0.77539 0-1.6569-1.3431-3-3-3zm-15 1v4c1.1046 0 2-0.89543 2-2s-0.89551-2.0134-2-2zm1 5c-0.33229 0-0.67255 0.06134-1 0.18359v1.8164h3.6758c-0.46774-1.2925-1.4191-2-2.6758-2zm10 0 1 3h2.9238c-0.34739-2.2245-1.9019-3-3.9238-3z" style="opacity:.1"/>
 <path d="m18 17c-1.108 0-2 0.892-2 2v3c0 1.108 0.892 2 2 2s2-0.892 2-2v-3c0-1.108-0.892-2-2-2zm5.5 0c-1.385 0-2.5 1.115-2.5 2.5v2c0 1.385 1.115 2.5 2.5 2.5s2.5-1.115 2.5-2.5v-2c0-1.385-1.115-2.5-2.5-2.5z" style="fill:#f9f9f9"/>
 <path d="m18.5 18c-0.277 0-0.5 0.223-0.5 0.5v0.5h1v-0.5c0-0.277-0.223-0.5-0.5-0.5zm5.5 0c-0.554 0-1 0.446-1 1h1v1h-1v2c0 0.554 0.446 1 1 1s1-0.446 1-1v-3c0-0.554-0.446-1-1-1zm-6 2v2.5c0 0.277 0.223 0.5 0.5 0.5s0.5-0.223 0.5-0.5v-2.5z" style="fill:#734807"/>
 <path d="m29 26c-1.6144 0-3.0001 1.3628-3 3 1.18e-4 1.6569 1.3431 3 3 3s3-1.3431 3-3-1.3431-3-3-3zm-15 1c-1.0857 0.01314-2.0002 0.91422-2 2 1.63e-4 1.1046 0.89543 2 2 2s2-0.89543 2-2-0.89551-2.0134-2-2zm1 5c-1.4204 0-3 1-3 4l2-1 2 1h2c0-2.574-1.1978-4-3-4zm10 0c-2.4378 0-5.439 1.4288-6 4h1l4-1 3 1h2c0-3-1.6997-4-4-4z" style="fill:#f07778"/>
 <path d="m28 21c-0.18295 0.0051-0.41316 0.03537-0.58789 0.08984l-1.3223 1.3203c-0.05927 0.19103-0.089564 0.38985-0.089844 0.58985 0 1.1046 0.89543 2 2 2s2-0.89543 2-2-0.89543-2-2-2zm-13 1c-0.09908 0-0.18906 0.03004-0.2793 0.05664l-0.66406 0.66406c-0.026598 0.090239-0.056641 0.18022-0.056641 0.2793 0 0.554 0.446 1 1 1s1-0.446 1-1-0.446-1-1-1z" style="fill:#ef9a00"/>
 <path d="m27.412 21.09c-0.63189 0.1945-1.1268 0.68871-1.3223 1.3203 0.16116 0.35835 0.51724 0.58954 0.91016 0.58984 0.55228 4.27e-4 1.0002-0.44772 1-1-1.6e-4 -0.39246-0.2303-0.74842-0.58789-0.91016zm-12.691 0.9668c-0.32408 0.09552-0.56854 0.33998-0.66406 0.66406 0.08179 0.1642 0.24679 0.2793 0.44336 0.2793 0.277 0 0.5-0.223 0.5-0.5 0-0.19657-0.1151-0.36157-0.2793-0.44336z" style="fill:#faf1ae"/>
 <path d="m26 25c-0.531 0.401-1 1-2 1h-7l-0.5 1h3.5v1h2v-1h3.2656c0.43762-0.67433 0.74259-1.5205 0.73438-2z" style="opacity:.1"/>
 <path d="m12 29c-0.57191 0.57191-0.57191 1.4281 0 2 0.57191 0.57191 1.4281 0.57191 2 0zm19.848 0.625-4.6973 1.709c0.21883 0.60122 0.66729 1.1204 1.293 1.4121 1.2514 0.58351 2.7388 0.04237 3.3223-1.209 0.29176-0.62567 0.30086-1.3109 0.08203-1.9121zm-17.848 4.375c-1.0813 0-2.0003 0.91422-2 2h4c0-1.1046-0.89543-2-2-2zm8 0c-1-4.12e-4 -2.0003 0.91422-2 2h7c0-1.1046-0.89543-2.0004-2-2-0.5744 2.22e-4 -1.1208 0.24824-1.5 0.67969-0.3792-0.43145-0.9256-0.67945-1.5-0.67969z" style="fill:#e4e2e4"/>
 <rect x="19" y="26" width="2" height="1" style="fill:#f9f9f9"/>
</svg>
