<svg version="1.1" viewBox="0 0 48 48" xmlns="http://www.w3.org/2000/svg">
 <defs>
  <linearGradient id="linearGradient4241" x1="1" x2="47" gradientTransform="translate(-48)" gradientUnits="userSpaceOnUse">
   <stop style="stop-color:#dbd8b5" offset="0"/>
   <stop style="stop-color:#e2dfc2" offset="1"/>
  </linearGradient>
 </defs>
 <path d="m36.31 5c5.859 4.062 9.688 10.831 9.688 18.5 0 12.426-10.07 22.5-22.5 22.5-7.669 0-14.438-3.828-18.5-9.688 1.037 1.822 2.306 3.499 3.781 4.969 4.085 3.712 9.514 5.969 15.469 5.969 12.703 0 23-10.298 23-23 0-5.954-2.256-11.384-5.969-15.469-1.469-1.475-3.147-2.744-4.969-3.781zm4.969 3.781c3.854 4.113 6.219 9.637 6.219 15.719 0 12.703-10.297 23-23 23-6.081 0-11.606-2.364-15.719-6.219 4.16 4.144 9.883 6.719 16.219 6.719 12.703 0 23-10.298 23-23 0-6.335-2.575-12.06-6.719-16.219z" style="opacity:.05"/>
 <path d="m41.28 8.781c3.712 4.085 5.969 9.514 5.969 15.469 0 12.703-10.297 23-23 23-5.954 0-11.384-2.256-15.469-5.969 4.113 3.854 9.637 6.219 15.719 6.219 12.703 0 23-10.298 23-23 0-6.081-2.364-11.606-6.219-15.719z" style="opacity:.1"/>
 <path d="m31.25 2.375c8.615 3.154 14.75 11.417 14.75 21.13 0 12.426-10.07 22.5-22.5 22.5-9.708 0-17.971-6.135-21.12-14.75a23 23 0 0 0 44.875 -7 23 23 0 0 0 -16 -21.875z" style="opacity:.2"/>
 <g transform="translate(1,1)">
  <g style="opacity:.1"></g>
 </g>
 <circle transform="rotate(-90)" cx="-24" cy="24" r="23" style="fill:url(#linearGradient4241)"/>
 <path d="m40.03 7.531c3.712 4.084 5.969 9.514 5.969 15.469 0 12.703-10.297 23-23 23-5.954 0-11.384-2.256-15.469-5.969 4.178 4.291 10.01 6.969 16.469 6.969 12.703 0 23-10.298 23-23 0-6.462-2.677-12.291-6.969-16.469z" style="opacity:.1"/>
 <g transform="matrix(.93442 .93442 -.93442 .93442 24.451 -20.303)" style="opacity:.1">
  <path transform="matrix(.53509 -.53509 .53509 .53509 -2.2194 23.947)" d="m35.2 11-0.467 0.467 0.467 0.467-0.467 0.469-0.469-0.469-0.467 0.469 0.467 0.467-0.467 0.467-0.467-0.467-0.467 0.467 0.467 0.467-0.467 0.467 0.232 0.234-8.521 8.143c-0.337-0.364-0.719-0.734-1.057-0.902-3.738-1.869-3.86 3.617-5.242 3.324-1.568 0.194-3.359 0.24-4.752 1.633-2.803 2.803-1.218 6.258 0.65 8.127 1.869 1.869 5.324 3.454 8.127 0.65 1.331-1.331 1.629-2.286 1.73-4.674-0.38-1.47 3.947-1.87 2.926-3.604-0.192-0.326-1.178 0.763-2.037-0.316-0.088-0.111-0.059-0.504 2e-3 -0.957l9.576-10.02 0.234 0.232 0.467-0.467 0.467 0.467 0.467-0.467-0.467-0.467 0.467-0.467 0.467 0.467 0.469-0.467-0.469-0.469 0.469-0.467 0.467 0.467 0.467-0.467-0.467-0.467-0.701-1.168-1.168-0.701-0.467-0.467"/>
 </g>
 <g transform="matrix(.93442 .93442 -.93442 .93442 23.451 -21.303)">
  <path d="m20.973 27.583c-0.735 0.943-1.67 1.926-1.67 3.417 0 3 2.697 4 4.697 4s4.697-1 4.697-4c0-1.424-0.352-2.095-1.575-3.427-0.99-0.583 1.111-3.113-0.363-3.494-0.277-0.072-0.223 1.039-1.26 0.921-0.337-0.039-1.5-2-1.5-2s-1.368-0.211-2 0c-3 1-0.131 4-1.027 4.583z" style="fill:#1a1a1a"/>
  <path d="m23.25 14-0.25 11h2l-0.25-11" style="fill:#6c5d53"/>
  <g transform="translate(46,3)" style="fill:#fc0">
   <path d="m-23.5 8h0.5v0.5h-0.5z"/>
   <path d="m-23.5 9h0.5v0.5h-0.5z"/>
   <path d="m-23.5 10h0.5v0.5h-0.5z"/>
   <path d="m-21 8h0.5v0.5h-0.5z"/>
   <path d="m-21 9h0.5v0.5h-0.5z"/>
   <path d="m-21 10h0.5v0.5h-0.5z"/>
  </g>
  <rect x="23" y="25" width="2" height="1" style="fill:#fc0"/>
  <rect x="23" y="28" width="2" height="1" style="fill:#fc0"/>
  <path d="m23 11 1-0.25 1 0.25v3h-2z" style="fill:#1a1a1a"/>
  <circle transform="translate(.41696 2)" cx="21.5" cy="22.5" r=".5" style="fill:#fc0"/>
  <rect x="22" y="29.5" width="4" height=".5" style="fill:#fc0"/>
  <circle transform="matrix(.75 0 0 .75 11.25 15.25)" cx="21.5" cy="22.5" r=".5" style="fill:#ffd42a"/>
  <circle transform="matrix(.75 0 0 .75 11.25 13.75)" cx="21.5" cy="22.5" r=".5" style="fill:#ffd42a"/>
  <circle transform="matrix(.75 0 0 .75 9.75 14.25)" cx="21.5" cy="22.5" r=".5" style="fill:#ffd42a"/>
  <circle transform="matrix(.75 0 0 .75 9.75 15.75)" cx="21.5" cy="22.5" r=".5" style="fill:#ffd42a"/>
 </g>
</svg>
