<svg xmlns="http://www.w3.org/2000/svg" viewBox="0 0 48 48">
 <defs>
  <linearGradient gradientTransform="matrix(0,-1,1,0,-1.5e-6,47.999998)" gradientUnits="userSpaceOnUse" x2="47" x1="1" id="linearGradient3764">
   <stop style="stop-color:#31376f;stop-opacity:1"/>
   <stop offset="1" style="stop-color:#373e7d;stop-opacity:1"/>
  </linearGradient>
 </defs>
 <g>
  <path d="m 36.31 5 c 5.859 4.062 9.688 10.831 9.688 18.5 c 0 12.426 -10.07 22.5 -22.5 22.5 c -7.669 0 -14.438 -3.828 -18.5 -9.688 c 1.037 1.822 2.306 3.499 3.781 4.969 c 4.085 3.712 9.514 5.969 15.469 5.969 c 12.703 0 23 -10.298 23 -23 c 0 -5.954 -2.256 -11.384 -5.969 -15.469 c -1.469 -1.475 -3.147 -2.744 -4.969 -3.781 z m 4.969 3.781 c 3.854 4.113 6.219 9.637 6.219 15.719 c 0 12.703 -10.297 23 -23 23 c -6.081 0 -11.606 -2.364 -15.719 -6.219 c 4.16 4.144 9.883 6.719 16.219 6.719 c 12.703 0 23 -10.298 23 -23 c 0 -6.335 -2.575 -12.06 -6.719 -16.219 z" style="opacity:0.05"/>
  <path d="m 41.28 8.781 c 3.712 4.085 5.969 9.514 5.969 15.469 c 0 12.703 -10.297 23 -23 23 c -5.954 0 -11.384 -2.256 -15.469 -5.969 c 4.113 3.854 9.637 6.219 15.719 6.219 c 12.703 0 23 -10.298 23 -23 c 0 -6.081 -2.364 -11.606 -6.219 -15.719 z" style="opacity:0.1"/>
  <path d="m 31.25 2.375 c 8.615 3.154 14.75 11.417 14.75 21.13 c 0 12.426 -10.07 22.5 -22.5 22.5 c -9.708 0 -17.971 -6.135 -21.12 -14.75 a 23 23 0 0 0 44.875 -7 a 23 23 0 0 0 -16 -21.875 z" style="opacity:0.2"/>
 </g>
 <g>
  <path d="m 24 1 c 12.703 0 23 10.297 23 23 c 0 12.703 -10.297 23 -23 23 -12.703 0 -23 -10.297 -23 -23 0 -12.703 10.297 -23 23 -23 z" style="fill:url(#linearGradient3764);fill-opacity:1"/>
 </g>
 <g>
  <path d="m 40.03 7.531 c 3.712 4.084 5.969 9.514 5.969 15.469 0 12.703 -10.297 23 -23 23 c -5.954 0 -11.384 -2.256 -15.469 -5.969 4.178 4.291 10.01 6.969 16.469 6.969 c 12.703 0 23 -10.298 23 -23 0 -6.462 -2.677 -12.291 -6.969 -16.469 z" style="opacity:0.1"/>
 </g>
 <circle r="15" cy="25" cx="25" style="fill:#000;opacity:0.1;fill-opacity:1;stroke:none"/>
 <circle cx="24" cy="24" r="15" style="fill:#2badc5;opacity:1;fill-opacity:1;stroke:none"/>
 <path d="m 26 15 c -1 0 -3 0.769 -3 4 -1 -0.505 -1 -1.366 -1 -3 -1.98 2.773 -2.509 7.225 -4.316 10.215 -1.644 2.72 -3.599 2.918 -7.436 3.732 a 15 15 0 0 0 13.752 9.05 15 15 0 0 0 3.08 -0.338 c 0.379 -1.842 -0.162 -4.02 -0.48 -5.412 c 0.91 0.299 3.095 0.355 3.4 -0.25 2 0 3.02 0 3.6 -2 0.788 0 0.9 -0.722 0.9 -1 0 -1 -1.789 -2.382 -2.5 -3 0 -1 0 -1.319 -0.25 -1.5 -0.557 -0.402 -1.25 0.25 -1.25 0.25 -0.5 -0.75 -0.301 -1.25 -0.301 -1.25 0 0 1.051 -0.159 1.051 -1.25 0 -0.854 -0.866 -1.25 -1.25 -1.25 -1 -1.518 -2 -1.5 -3 -1.5 -0.798 -2.269 1.013 -3.739 4.25 -4.25 -1.25 -0.881 -5.25 -0.942 -6.25 1.75 0 -1.364 0.505 -2.472 1 -3 z" style="fill:#000;opacity:0.1;fill-opacity:1;stroke:none"/>
 <path d="m 25 14 c -1 0 -3 0.769 -3 4 -1 -0.505 -1 -1.366 -1 -3 -1.98 2.773 -2.509 7.225 -4.316 10.215 -1.554 2.571 -3.434 2.897 -6.867 3.611 a 15 15 0 0 0 14.184 10.174 15 15 0 0 0 1.648 -0.109 c 1.091 -1.999 0.344 -4.921 -0.049 -6.641 0.91 0.299 3.095 0.355 3.4 -0.25 2 0 3.02 0 3.6 -2 0.788 0 0.9 -0.722 0.9 -1 0 -1 -1.789 -2.382 -2.5 -3 0 -1 0 -1.319 -0.25 -1.5 -0.557 -0.402 -1.25 0.25 -1.25 0.25 -0.5 -0.75 -0.301 -1.25 -0.301 -1.25 0 0 1.051 -0.159 1.051 -1.25 0 -0.854 -0.866 -1.25 -1.25 -1.25 -1 -1.518 -2 -1.5 -3 -1.5 -0.798 -2.269 1.013 -3.739 4.25 -4.25 -1.25 -0.881 -5.25 -0.942 -6.25 1.75 0 -1.364 0.505 -2.472 1 -3 z" style="fill:#e7eff9;opacity:1;fill-opacity:1;stroke:none"/>
</svg>
