<svg version="1.1" viewBox="0 0 48 48" xmlns="http://www.w3.org/2000/svg">
 <defs>
  <linearGradient id="bg" x1="1" x2="47" gradientTransform="matrix(0 -1 1 0 -1.5e-6 48)" gradientUnits="userSpaceOnUse">
   <stop style="stop-color:#2dacce" offset="0"/>
   <stop style="stop-color:#3ab4d4" offset="1"/>
  </linearGradient>
 </defs>
 <path d="m36.3 5c5.86 4.06 9.69 10.8 9.69 18.5 0 12.4-10.1 22.5-22.5 22.5-7.67 0-14.4-3.83-18.5-9.69 1.04 1.82 2.31 3.5 3.78 4.97 4.08 3.71 9.51 5.97 15.5 5.97 12.7 0 23-10.3 23-23 0-5.95-2.26-11.4-5.97-15.5-1.47-1.48-3.15-2.74-4.97-3.78zm4.97 3.78c3.85 4.11 6.22 9.64 6.22 15.7 0 12.7-10.3 23-23 23-6.08 0-11.6-2.36-15.7-6.22 4.16 4.14 9.88 6.72 16.2 6.72 12.7 0 23-10.3 23-23 0-6.34-2.58-12.1-6.72-16.2z" style="opacity:.05"/>
 <path d="m41.3 8.78c3.71 4.08 5.97 9.51 5.97 15.5 0 12.7-10.3 23-23 23-5.95 0-11.4-2.26-15.5-5.97 4.11 3.85 9.64 6.22 15.7 6.22 12.7 0 23-10.3 23-23 0-6.08-2.36-11.6-6.22-15.7z" style="opacity:.1"/>
 <path d="m31.2 2.38c8.62 3.15 14.8 11.4 14.8 21.1 0 12.4-10.1 22.5-22.5 22.5-9.71 0-18-6.14-21.1-14.8a23 23 0 0044.9-7 23 23 0 00-16-21.9z" style="opacity:.2"/>
 <path d="m24 1c12.7 0 23 10.3 23 23s-10.3 23-23 23-23-10.3-23-23 10.3-23 23-23z" style="fill:url(#bg)"/>
 <path d="m18 18c-4 0-7 3.5-7 7s3 7 7 7c3.5 0 5.57-2.29 7-5.19 1.43 2.9 3.5 5.19 7 5.19 4 0 7-3.5 7-7s-3-7-7-7c-3.5 0-5.57 2.29-7 5.19-1.43-2.9-3.5-5.19-7-5.19zm0 2c3 0 4.52 2.65 5.81 5-1.29 2.35-2.81 5-5.81 5s-5-2.5-5-5 2-5 5-5zm14 0c3 0 5 2.5 5 5s-2 5-5 5-4.52-2.65-5.81-5c1.29-2.35 2.81-5 5.81-5z" style="opacity:.1"/>
 <path d="m17 17c-4 0-7 3.5-7 7s3 7 7 7c3.5 0 5.57-2.29 7-5.19 1.43 2.9 3.5 5.19 7 5.19 4 0 7-3.5 7-7s-3-7-7-7c-3.5 0-5.57 2.29-7 5.19-1.43-2.9-3.5-5.19-7-5.19zm0 2c3 0 4.52 2.65 5.81 5-1.29 2.35-2.81 5-5.81 5s-5-2.5-5-5 2-5 5-5zm14 0c3 0 5 2.5 5 5s-2 5-5 5-4.52-2.65-5.81-5c1.29-2.35 2.81-5 5.81-5z" style="fill:#32384e"/>
 <path d="m40 7.53c3.71 4.08 5.97 9.51 5.97 15.5 0 12.7-10.3 23-23 23-5.95 0-11.4-2.26-15.5-5.97 4.18 4.29 10 6.97 16.5 6.97 12.7 0 23-10.3 23-23 0-6.46-2.68-12.3-6.97-16.5z" style="opacity:.1"/>
</svg>
