<svg version="1.1" viewBox="0 0 48 48" xmlns="http://www.w3.org/2000/svg">
 <defs>
  <linearGradient id="bg" x1=".40997" x2="47.59" y1="-.61568" y2="-.61568" gradientTransform="matrix(0 -.97499 .97499 0 .60028 47.4)" gradientUnits="userSpaceOnUse">
   <stop style="stop-color:#e4e4e4" offset="0"/>
   <stop style="stop-color:#eee" offset="1"/>
  </linearGradient>
 </defs>
 <path d="m36.31 5c5.859 4.062 9.688 10.831 9.688 18.5 0 12.426-10.07 22.5-22.5 22.5-7.669 0-14.438-3.828-18.5-9.688 1.037 1.822 2.306 3.499 3.781 4.969 4.085 3.712 9.514 5.969 15.469 5.969 12.703 0 23-10.298 23-23 0-5.954-2.256-11.384-5.969-15.469-1.469-1.475-3.147-2.744-4.969-3.781zm4.969 3.781c3.854 4.113 6.219 9.637 6.219 15.719 0 12.703-10.297 23-23 23-6.081 0-11.606-2.364-15.719-6.219 4.16 4.144 9.883 6.719 16.219 6.719 12.703 0 23-10.298 23-23 0-6.335-2.575-12.06-6.719-16.219z" style="opacity:.05"/>
 <path d="m41.28 8.781c3.712 4.085 5.969 9.514 5.969 15.469 0 12.703-10.297 23-23 23-5.954 0-11.384-2.256-15.469-5.969 4.113 3.854 9.637 6.219 15.719 6.219 12.703 0 23-10.298 23-23 0-6.081-2.364-11.606-6.219-15.719z" style="opacity:.1"/>
 <path d="m31.25 2.375c8.615 3.154 14.75 11.417 14.75 21.13 0 12.426-10.07 22.5-22.5 22.5-9.708 0-17.971-6.135-21.12-14.75a23 23 0 0 0 44.875-7 23 23 0 0 0-16-21.875z" style="opacity:.2"/>
 <path d="m24 1.575c12.385 0 22.425 10.04 22.425 22.425s-10.04 22.425-22.425 22.425-22.425-10.04-22.425-22.425 10.04-22.425 22.425-22.425z" style="fill:url(#bg)"/>
 <path d="m15.937 32.845c-1.82-2.099-2.938-4.835-2.938-7.844 0-1.388 0.226-2.701 0.656-3.938 0.215-0.618 0.472-1.215 0.781-1.781 0.101-0.186 0.202-0.383 0.313-0.563 1.214-1.699 2.822-3.3 4.376-4.187 0.282-0.157 0.58-0.303 0.875-0.438 0.582-0.266 1.185-0.484 1.813-0.656 1.107-0.233 2.233-0.433 3.187-0.438 3.102 0 5.904 1.178 8.03 3.094-11.188-13.43-30.419 5.01-17.09 16.751" style="opacity:.1"/>
 <path d="m45.873 16.906-4.873 0.09375s-5.839 2.5262-6.002 2.1562h-0.0293c0.652 1.48 1.0293 3.1187 1.0293 4.8457 0 4.0043-1.9467 7.5463-4.9473 9.7188 2e-3 -1.97e-4 0.0039-5.88e-4 0.0059-9.78e-4 0.0019-3.91e-4 0.0039-7.81e-4 0.0059-9.75e-4l1.9374 5.2812 4.5215 3.582c5.7452-4.1785 9.4766-10.934 9.4766-18.584 0-2.4823-0.39837-4.8543-1.125-7.0918z" style="fill:#f3f284"/>
 <path d="M 24,1 C 13.773,1 5.115,7.676 2.125,16.906 L 7,20 12.563,20.281 C 14.118,15.457 18.644,12 24.001,12 L 25,6.5 24.001,1 h -5e-4 z" style="fill:#ed8e68"/>
 <path d="m2.188 16.781c-1.458 20.813-0.729 10.406 0 0zm-0.063 0.125c-0.726 2.232-1.125 4.618-1.125 7.094 0 7.643 3.734 14.411 9.469 18.594l4.531-3.594 1.938-5.281c-2.996-2.178-4.938-5.716-4.938-9.719 0-1.293 0.187-2.553 0.563-3.719z" style="fill:#9ab9dd"/>
 <path d="m16.938 33.719-6.469 8.875c3.798 2.77 8.47 4.406 13.531 4.406s9.733-1.636 13.531-4.406l-6.469-8.875c-1.977 1.438-4.421 2.281-7.06 2.281-2.645 0-5.089-0.844-7.06-2.281z" style="fill:#9add9c"/>
 <path d="m23.969 1 0.031 11c5.355 0 9.886 3.453 11.438 8.281l10.438-3.375c-2.99-9.231-11.648-15.906-21.875-15.906h-0.031z" style="fill:#edb968"/>
 <path d="m40.03 7.531c3.712 4.084 5.969 9.514 5.969 15.469 0 12.703-10.297 23-23 23-5.954 0-11.384-2.256-15.469-5.969 4.178 4.291 10.01 6.969 16.469 6.969 12.703 0 23-10.298 23-23 0-6.462-2.677-12.291-6.969-16.469z" style="opacity:.1"/>
</svg>
