<svg version="1.1" viewBox="0 0 48 48" xmlns="http://www.w3.org/2000/svg">
 <defs>
  <linearGradient id="bg" x2="0" y1="1" y2="47" gradientUnits="userSpaceOnUse">
   <stop style="stop-color:#34546f" offset="0"/>
   <stop style="stop-color:#2e4a61" offset="1"/>
  </linearGradient>
 </defs>
 <path d="m36.3 5c5.86 4.06 9.69 10.8 9.69 18.5 0 12.4-10.1 22.5-22.5 22.5-7.67 0-14.4-3.83-18.5-9.69 1.04 1.82 2.31 3.5 3.78 4.97 4.08 3.71 9.51 5.97 15.5 5.97 12.7 0 23-10.3 23-23 0-5.95-2.26-11.4-5.97-15.5-1.47-1.48-3.15-2.74-4.97-3.78zm4.97 3.78c3.85 4.11 6.22 9.64 6.22 15.7 0 12.7-10.3 23-23 23-6.08 0-11.6-2.36-15.7-6.22 4.16 4.14 9.88 6.72 16.2 6.72 12.7 0 23-10.3 23-23 0-6.34-2.58-12.1-6.72-16.2z" style="opacity:.05"/>
 <path d="m41.3 8.78c3.71 4.08 5.97 9.51 5.97 15.5 0 12.7-10.3 23-23 23-5.95 0-11.4-2.26-15.5-5.97 4.11 3.85 9.64 6.22 15.7 6.22 12.7 0 23-10.3 23-23 0-6.08-2.36-11.6-6.22-15.7z" style="opacity:.1"/>
 <path d="m31.2 2.38c8.62 3.15 14.8 11.4 14.8 21.1 0 12.4-10.1 22.5-22.5 22.5-9.71 0-18-6.14-21.1-14.8a23 23 0 0 0 44.9-7 23 23 0 0 0-16-21.9z" style="opacity:.2"/>
 <circle cx="24" cy="24" r="23" style="fill:url(#bg)"/>
 <path d="m40 7.53c3.71 4.08 5.97 9.51 5.97 15.5 0 12.7-10.3 23-23 23-5.95 0-11.4-2.26-15.5-5.97 4.18 4.29 10 6.97 16.5 6.97 12.7 0 23-10.3 23-23 0-6.46-2.68-12.3-6.97-16.5z" style="opacity:.1"/>
 <path d="m25.2 12c-2.92-0.0691-5.65 1.46-7.12 4-0.789 1.37-1.15 2.94-1.05 4.52 0.934-0.33 1.93-0.52 2.98-0.52h1c-1e-3 -0.702 0.182-1.39 0.531-2 1.1-1.91 3.55-2.57 5.46-1.46 1.91 1.1 2.57 3.55 1.46 5.46l-1.71 3 1.25 2h2.25l1.68-3c2.21-3.83 0.898-8.72-2.93-10.9-1.16-0.67-2.47-1.04-3.81-1.07zm-5.19 9c-4.42 0-8 3.58-8 8s3.58 8 8 8c1.47-3e-3 2.9-0.408 4.15-1.17-0.756-0.646-1.42-1.42-1.95-2.33l-0.51-0.883c-0.53 0.25-1.11 0.381-1.7 0.383-2.21 0-4-1.79-4-4s1.79-4 4-4h3l1-2-1-2zm13.8 0.959c-0.193 0.872-0.519 1.73-0.988 2.54l-0.641 1.15c0.521 0.334 0.982 0.778 1.31 1.35 1.1 1.91 0.448 4.36-1.46 5.46-1.91 1.1-4.36 0.448-5.46-1.46l-1.74-3h-2.04l-1.25 2 1.57 3c2.05 3.91 7.1 5.14 10.9 2.93s5.14-7.1 2.93-10.9c-0.773-1.34-1.88-2.36-3.15-3.04z" style="opacity:.1"/>
 <path d="m19 20c-4.42 0-8 3.58-8 8s3.58 8 8 8c1.47-3e-3 2.9-0.408 4.15-1.17-0.756-0.646-1.42-1.42-1.95-2.33l-0.51-0.883c-0.53 0.25-1.11 0.381-1.7 0.383-2.21 0-4-1.79-4-4s1.79-4 4-4h3l1-2-1-2z" style="fill:#4f8ec4"/>
 <path d="m24.2 11c-2.92-0.0691-5.65 1.46-7.12 4-0.789 1.37-1.15 2.94-1.05 4.52 0.934-0.33 1.93-0.52 2.98-0.52h1c-1e-3 -0.702 0.182-1.39 0.531-2 1.1-1.91 3.55-2.57 5.46-1.46 1.91 1.1 2.57 3.55 1.46 5.46l-1.71 3 1.25 2h2.25l1.68-3c2.21-3.83 0.898-8.72-2.93-10.9-1.16-0.67-2.47-1.04-3.81-1.07z" style="fill:#78cdf2"/>
 <path d="m32.8 20.9c-0.193 0.872-0.519 1.73-0.988 2.54l-0.641 1.15c0.521 0.334 0.982 0.778 1.31 1.35 1.1 1.91 0.448 4.36-1.46 5.46s-4.36 0.448-5.46-1.46l-1.74-3h-2.04l-1.25 2 1.57 3c2.05 3.91 7.1 5.14 10.9 2.93s5.14-7.1 2.93-10.9c-0.773-1.34-1.88-2.36-3.15-3.04z" style="fill:#bee7f9"/>
</svg>
