<svg version="1.1" viewBox="0 0 48 48" xmlns="http://www.w3.org/2000/svg">
 <defs>
  <linearGradient id="bg" x2="0" y1="1" y2="47" gradientUnits="userSpaceOnUse">
   <stop style="stop-color:#efe89d" offset="0"/>
   <stop style="stop-color:#ece48c" offset="1"/>
  </linearGradient>
 </defs>
 <path d="m36.31 5c5.859 4.062 9.688 10.831 9.688 18.5 0 12.426-10.07 22.5-22.5 22.5-7.669 0-14.438-3.828-18.5-9.688 1.037 1.822 2.306 3.499 3.781 4.969 4.085 3.712 9.514 5.969 15.469 5.969 12.703 0 23-10.298 23-23 0-5.954-2.256-11.384-5.969-15.469-1.469-1.475-3.147-2.744-4.969-3.781zm4.969 3.781c3.854 4.113 6.219 9.637 6.219 15.719 0 12.703-10.297 23-23 23-6.081 0-11.606-2.364-15.719-6.219 4.16 4.144 9.883 6.719 16.219 6.719 12.703 0 23-10.298 23-23 0-6.335-2.575-12.06-6.719-16.219z" style="opacity:.05"/>
 <path d="m41.28 8.781c3.712 4.085 5.969 9.514 5.969 15.469 0 12.703-10.297 23-23 23-5.954 0-11.384-2.256-15.469-5.969 4.113 3.854 9.637 6.219 15.719 6.219 12.703 0 23-10.298 23-23 0-6.081-2.364-11.606-6.219-15.719z" style="opacity:.1"/>
 <path d="m31.25 2.375c8.615 3.154 14.75 11.417 14.75 21.13 0 12.426-10.07 22.5-22.5 22.5-9.708 0-17.971-6.135-21.12-14.75a23 23 0 0 0 44.875-7 23 23 0 0 0-16-21.875z" style="opacity:.2"/>
 <circle cx="24" cy="24" r="23" style="fill:url(#bg)"/>
 <path d="m17.816 12.009c-0.24842 0.01712-0.47276 0.07943-0.67188 0.18945-1.5889 0.87794-1.7066 4.4581-0.11719 8.8359-4.4333 0.76484-7.0235 2.2211-7.0273 3.9648-0.00396 1.807 2.7153 3.1201 6.9883 3.998l-2e-3 2e-3 0.01367 2e-3c-1.5323 4.2319-1.2544 7.8923 0.39453 8.8008 1.5966 0.8709 4.6384-1.2411 7.6328-4.7676 2.9944 3.5126 6.2352 5.6478 7.8281 4.7676 1.5889-0.87794 1.7613-4.3898 0.17188-8.7676 4.4333-0.90547 6.9688-2.2914 6.9727-4.0352 4e-3 -1.8073-2.7161-3.1201-6.9902-3.998l2e-3 -2e-3 -0.01172-2e-3c1.5323-4.2319 1.2524-7.8903-0.39648-8.7988-1.5966-0.87095-4.5818 1.3095-7.5762 4.8359-2.6201-3.0736-5.472-5.1452-7.2109-5.0254zm4.2109 8.0273h6l3 5-3 5h-6.0001l-2e-3 -2e-3 -2.998-4.998zm3 3c-1.1046 0-2 0.89543-2 2s0.89543 2 2 2 2-0.89543 2-2-0.89543-2-2-2z" style="opacity:.1;paint-order:normal"/>
 <path d="m40.03 7.531c3.712 4.084 5.969 9.514 5.969 15.469 0 12.703-10.297 23-23 23-5.954 0-11.384-2.256-15.469-5.969 4.178 4.291 10.01 6.969 16.469 6.969 12.703 0 23-10.298 23-23 0-6.462-2.677-12.291-6.969-16.469z" style="opacity:.1"/>
 <path d="m32 19.999c0.0027 5.63e-4 0.0051 0.0014 0.0078 2e-3l0.0039-2e-3zm0.0078 2e-3 -3.3867 1.6914 1.4062 2.3438-3 5h-6l-1.6387-2.7305-3.3887 1.6934c-1.5331 4.2327-1.2546 7.8941 0.39453 8.8027 1.5966 0.8709 4.6384-1.2412 7.6328-4.7676 2.9944 3.5126 6.2352 5.6478 7.8281 4.7676 1.5889-0.87794 1.7613-4.3898 0.17188-8.7676 4.4333-0.90547 6.9689-2.2914 6.9727-4.0352 4e-3 -1.8076-2.717-3.1201-6.9922-3.998z" style="fill:#c85028;paint-order:normal"/>
 <path d="m16.816 11.009c-0.24842 0.01712-0.47276 0.07943-0.67187 0.18945-1.5889 0.87794-1.7066 4.4581-0.11719 8.8359-4.4333 0.76484-7.0236 2.2211-7.0273 3.9648-4e-3 1.8073 2.7161 3.1201 6.9902 3.998l3.3965-1.6973-1.3594-2.2637 3-5h6l1.5918 2.6523 3.3809-1.6895c1.5331-4.2327 1.2527-7.8922-0.39648-8.8008-1.5966-0.87095-4.5818 1.3095-7.5762 4.8359-2.6201-3.0736-5.472-5.1452-7.2109-5.0254zm-0.82617 16.988-0.0039 2e-3h0.01367c-0.0034-6.96e-4 -0.0064-0.0013-0.0098-2e-3z" style="fill:#f31f39;paint-order:normal"/>
 <path d="m24.027 16.034-3 3h0.0098c-0.0032 8.12e-4 -0.0066 0.0011-0.0098 2e-3h6l-0.0078-2e-3zm3 3.002 3 5 1.9844-4.0371-4.9844-0.96484zm3 5-3 5c0.0011-8.94e-4 0.0028-0.0011 0.0039-2e-3l4.9961-0.99995zm-9-5v-2e-3l-5 1 2 3.998v2e-3zm3 3a2 2 0 0 0-2 2 2 2 0 0 0 2 2 2 2 0 0 0 2-2 2 2 0 0 0-2-2zm-6 2-2.041 3.9629 5.0391 1.0352zm3.002 5 2.998 2.998 2.998-2.998z" style="fill:#b32929;paint-order:normal"/>
</svg>
