<svg version="1.1" viewBox="0 0 48 48" xmlns="http://www.w3.org/2000/svg">
 <defs>
  <linearGradient id="bg" x2="0" y1="1" y2="47" gradientUnits="userSpaceOnUse">
   <stop style="stop-color:#616161" offset="0"/>
   <stop style="stop-color:#575757" offset="1"/>
  </linearGradient>
 </defs>
 <path d="m36.31 5c5.859 4.062 9.688 10.831 9.688 18.5 0 12.426-10.07 22.5-22.5 22.5-7.669 0-14.438-3.828-18.5-9.688 1.037 1.822 2.306 3.499 3.781 4.969 4.085 3.712 9.514 5.969 15.469 5.969 12.703 0 23-10.298 23-23 0-5.954-2.256-11.384-5.969-15.469-1.469-1.475-3.147-2.744-4.969-3.781zm4.969 3.781c3.854 4.113 6.219 9.637 6.219 15.719 0 12.703-10.297 23-23 23-6.081 0-11.606-2.364-15.719-6.219 4.16 4.144 9.883 6.719 16.219 6.719 12.703 0 23-10.298 23-23 0-6.335-2.575-12.06-6.719-16.219z" style="opacity:.05"/>
 <path d="m41.28 8.781c3.712 4.085 5.969 9.514 5.969 15.469 0 12.703-10.297 23-23 23-5.954 0-11.384-2.256-15.469-5.969 4.113 3.854 9.637 6.219 15.719 6.219 12.703 0 23-10.298 23-23 0-6.081-2.364-11.606-6.219-15.719z" style="opacity:.1"/>
 <path d="m31.25 2.375c8.615 3.154 14.75 11.417 14.75 21.13 0 12.426-10.07 22.5-22.5 22.5-9.708 0-17.971-6.135-21.12-14.75a23 23 0 0 0 44.875-7 23 23 0 0 0-16-21.875z" style="opacity:.2"/>
 <circle cx="24" cy="24" r="23" style="fill:url(#bg)"/>
 <rect x="21" y="13" width="12" height="24" ry="1" style="opacity:.1"/>
 <path d="m40.03 7.531c3.712 4.084 5.969 9.514 5.969 15.469 0 12.703-10.297 23-23 23-5.954 0-11.384-2.256-15.469-5.969 4.178 4.291 10.01 6.969 16.469 6.969 12.703 0 23-10.298 23-23 0-6.462-2.677-12.291-6.969-16.469z" style="opacity:.1"/>
 <path d="m25 29 1 7h5.5c0.277 0 0.5-0.223 0.5-0.5v-5.5z" style="fill:#f6d32d"/>
 <path d="m26 30v6h-5.5c-0.277 0-0.5-0.223-0.5-0.5v-5.5l3-1z" style="fill:#ffa348"/>
 <path d="m25 23 7 1v6h-6z" style="fill:#f66a5b"/>
 <path d="m20 24 3-1 3 1v6h-6z" style="fill:#c061cb"/>
 <path d="m25 17 7 1v6h-6z" style="fill:#44df7b"/>
 <path d="m20 18 3-1 3 1v6h-6z" style="fill:#77767b"/>
 <path d="m26 18-1-3 1-3h5.5c0.277 0 0.5 0.223 0.5 0.5v5.5z" style="fill:#b5835a"/>
 <path d="m26 18v-6h-5.5c-0.277 0-0.5 0.223-0.5 0.5v5.5z" style="fill:#62a0ea"/>
 <circle cx="18" cy="25" r="6" style="opacity:.1"/>
 <circle cx="17" cy="24" r="6" style="fill:#f5c211"/>
 <path d="m14 25c2e-3 0.34101 0.06208 0.67919 0.17773 1l2.8223 1 2.8223-1c0.11565-0.32081 0.17576-0.65899 0.17773-1z" style="fill:#f9f9f9"/>
 <path d="m14.178 26a3 3 0 0 0 2.8223 2 3 3 0 0 0 2.8223-2z" style="fill:#dd3c4f"/>
 <path d="m14.5 21-0.5 0.5 1 1-1 1 0.5 0.5 1.5-1.5zm5 0-1.5 1.5 1.5 1.5 0.5-0.5-1-1 1-1z" style="fill:#424242"/>
</svg>
