<svg xmlns="http://www.w3.org/2000/svg" viewBox="0 0 48 48">
 <defs>
  <linearGradient id="linearGradient4159" x1="1" x2="47" gradientUnits="userSpaceOnUse">
   <stop style="stop-color:#1f51b1;stop-opacity:1"/>
   <stop offset="1" style="stop-color:#2259c2;stop-opacity:1"/>
  </linearGradient>
 </defs>
 <g>
  <path d="m 36.31 5 c 5.859 4.062 9.688 10.831 9.688 18.5 c 0 12.426 -10.07 22.5 -22.5 22.5 c -7.669 0 -14.438 -3.828 -18.5 -9.688 c 1.037 1.822 2.306 3.499 3.781 4.969 c 4.085 3.712 9.514 5.969 15.469 5.969 c 12.703 0 23 -10.298 23 -23 c 0 -5.954 -2.256 -11.384 -5.969 -15.469 c -1.469 -1.475 -3.147 -2.744 -4.969 -3.781 z m 4.969 3.781 c 3.854 4.113 6.219 9.637 6.219 15.719 c 0 12.703 -10.297 23 -23 23 c -6.081 0 -11.606 -2.364 -15.719 -6.219 c 4.16 4.144 9.883 6.719 16.219 6.719 c 12.703 0 23 -10.298 23 -23 c 0 -6.335 -2.575 -12.06 -6.719 -16.219 z" style="opacity:0.05"/>
  <path d="m 41.28 8.781 c 3.712 4.085 5.969 9.514 5.969 15.469 c 0 12.703 -10.297 23 -23 23 c -5.954 0 -11.384 -2.256 -15.469 -5.969 c 4.113 3.854 9.637 6.219 15.719 6.219 c 12.703 0 23 -10.298 23 -23 c 0 -6.081 -2.364 -11.606 -6.219 -15.719 z" style="opacity:0.1"/>
  <path d="m 31.25 2.375 c 8.615 3.154 14.75 11.417 14.75 21.13 c 0 12.426 -10.07 22.5 -22.5 22.5 c -9.708 0 -17.971 -6.135 -21.12 -14.75 a 23 23 0 0 0 44.875 -7 a 23 23 0 0 0 -16 -21.875 z" style="opacity:0.2"/>
 </g>
 <g transform="matrix(0,-1,1,0,-0.40677966,48)" style="fill:url(#linearGradient4159);fill-opacity:1">
  <path d="M 24,1 C 36.703,1 47,11.297 47,24 47,36.703 36.703,47 24,47 11.297,47 1,36.703 1,24 1,11.297 11.297,1 24,1 Z"/>
 </g>
 <g>
  <path d="m 40.03 7.531 c 3.712 4.084 5.969 9.514 5.969 15.469 0 12.703 -10.297 23 -23 23 c -5.954 0 -11.384 -2.256 -15.469 -5.969 4.178 4.291 10.01 6.969 16.469 6.969 c 12.703 0 23 -10.298 23 -23 0 -6.462 -2.677 -12.291 -6.969 -16.469 z" style="opacity:0.1"/>
 </g>
 <path d="m 23.576 34.632 c -2.719 -2.609 -5.461 -5.155 -7.124 -6.612 l -0.802 -0.702 0.564 -1.1 c 0.717 -1.399 1.484 -2.825 2 -3.722 0.223 -0.386 0.399 -0.709 0.391 -0.718 -0.042 -0.048 -3.256 1.906 -4.864 2.958 -0.341 0.223 -0.638 0.405 -0.659 0.405 -0.022 0 -0.247 -0.164 -0.5 -0.364 -0.616 -0.487 -1.425 -1.089 -2.024 -1.505 -0.269 -0.187 -0.518 -0.367 -0.552 -0.399 -0.05 -0.048 0.111 -0.16 0.863 -0.598 2.547 -1.486 4.781 -2.665 6.898 -3.642 l 0.84 -0.388 1.493 0.032 c 0.821 0.018 1.85 0.052 2.287 0.076 1.696 0.094 2.543 0.159 2.509 0.192 -0.02 0.019 -0.346 0.173 -0.725 0.343 -0.769 0.344 -2.929 1.42 -3.79 1.888 -1.162 0.631 -1.656 0.91 -1.68 0.949 -0.014 0.022 0.212 0.183 0.501 0.357 2.124 1.279 4.903 3.194 7.782 5.362 1.222 0.92 3.261 2.514 3.665 2.866 l 0.169 0.147 -1.252 1.194 c -3.03 2.891 -4.25 4.053 -4.403 4.197 l -0.164 0.154 m 8.331 -8.474 c -1.842 -0.427 -5.66 -1.164 -7.417 -1.432 -0.463 -0.071 -0.842 -0.14 -0.841 -0.154 0.003 -0.044 1.732 -1.25 3.193 -2.227 1.418 -0.948 2.831 -1.822 4 -2.476 0.821 -0.458 2.492 -1.292 2.589 -1.292 0.091 0 1.397 0.676 2.485 1.287 1.096 0.615 2.576 1.477 2.648 1.543 0.045 0.041 -0.149 0.204 -0.84 0.706 -1.497 1.089 -3.529 2.717 -4.841 3.878 -0.192 0.17 -0.36 0.308 -0.373 0.307 -0.013 -0.002 -0.286 -0.064 -0.607 -0.138 z m -9.05 -3.673 c -0.039 -0.008 -0.226 -0.039 -0.416 -0.07 -1.092 -0.179 -2.049 -0.747 -2.381 -1.413 -0.461 -0.926 0.178 -1.883 1.592 -2.386 1.739 -0.618 4.02 -0.284 5.056 0.739 0.319 0.316 0.458 0.61 0.482 1.015 0.016 0.283 0.002 0.351 -0.129 0.618 -0.353 0.718 -1.39 1.298 -2.637 1.472 -0.319 0.045 -1.382 0.062 -1.566 0.026 z m 6.51 -2.463 c -2.648 -1.566 -5.823 -3.02 -8.9 -4.067 -0.249 -0.085 -0.443 -0.172 -0.43 -0.193 0.028 -0.046 1.914 -0.668 2.843 -0.939 l 0.653 -0.19 0.35 0.083 c 0.481 0.114 1.831 0.533 2.73 0.848 0.779 0.273 2.949 1.127 3.48 1.369 l 0.307 0.14 -0.224 1.604 c -0.123 0.882 -0.23 1.621 -0.237 1.641 -0.007 0.02 -0.265 -0.113 -0.573 -0.295 z" style="fill:#000;opacity:0.1;fill-opacity:1;stroke:none"/>
 <path d="m 22.576 33.632 c -2.719 -2.609 -5.461 -5.155 -7.124 -6.612 l -0.802 -0.702 0.564 -1.1 c 0.717 -1.399 1.484 -2.825 2 -3.722 0.223 -0.386 0.399 -0.709 0.391 -0.718 -0.042 -0.048 -3.256 1.906 -4.864 2.958 -0.341 0.223 -0.638 0.405 -0.659 0.405 -0.022 0 -0.247 -0.164 -0.5 -0.364 c -0.616 -0.487 -1.425 -1.089 -2.024 -1.505 -0.269 -0.187 -0.518 -0.367 -0.552 -0.399 -0.05 -0.048 0.111 -0.16 0.863 -0.598 2.547 -1.486 4.781 -2.665 6.898 -3.642 l 0.84 -0.388 1.493 0.032 c 0.821 0.018 1.85 0.052 2.287 0.076 1.696 0.094 2.543 0.159 2.509 0.192 -0.02 0.019 -0.346 0.173 -0.725 0.343 -0.769 0.344 -2.929 1.42 -3.79 1.888 -1.162 0.631 -1.656 0.91 -1.68 0.949 -0.014 0.022 0.212 0.183 0.501 0.357 2.124 1.279 4.903 3.194 7.782 5.362 1.222 0.92 3.261 2.514 3.665 2.866 l 0.169 0.147 -1.252 1.194 c -3.03 2.891 -4.25 4.053 -4.403 4.197 l -0.164 0.154 m 8.331 -8.474 c -1.842 -0.427 -5.66 -1.164 -7.417 -1.432 -0.463 -0.071 -0.842 -0.14 -0.841 -0.154 0.003 -0.044 1.732 -1.25 3.193 -2.227 1.418 -0.948 2.831 -1.822 4 -2.476 0.821 -0.458 2.492 -1.292 2.589 -1.292 0.091 0 1.397 0.676 2.485 1.287 1.096 0.615 2.576 1.477 2.648 1.543 0.045 0.041 -0.149 0.204 -0.84 0.706 -1.497 1.089 -3.529 2.717 -4.841 3.878 -0.192 0.17 -0.36 0.308 -0.373 0.307 -0.013 -0.002 -0.286 -0.064 -0.607 -0.138 z m -9.05 -3.673 c -0.039 -0.008 -0.226 -0.039 -0.416 -0.07 -1.092 -0.179 -2.049 -0.747 -2.381 -1.413 -0.461 -0.926 0.178 -1.883 1.592 -2.386 1.739 -0.618 4.02 -0.284 5.056 0.739 0.319 0.316 0.458 0.61 0.482 1.015 0.016 0.283 0.002 0.351 -0.129 0.618 -0.353 0.718 -1.39 1.298 -2.637 1.472 -0.319 0.045 -1.382 0.062 -1.566 0.026 z m 6.51 -2.463 c -2.648 -1.566 -5.823 -3.02 -8.9 -4.067 -0.249 -0.085 -0.443 -0.172 -0.43 -0.193 0.028 -0.046 1.914 -0.668 2.843 -0.939 l 0.653 -0.19 0.35 0.083 c 0.481 0.114 1.831 0.533 2.73 0.848 0.779 0.273 2.949 1.127 3.48 1.369 l 0.307 0.14 -0.224 1.604 c -0.123 0.882 -0.23 1.621 -0.237 1.641 -0.007 0.02 -0.265 -0.113 -0.573 -0.295 z" style="fill:#e6e6e6;fill-opacity:1;stroke:none"/>
</svg>
