<svg xmlns="http://www.w3.org/2000/svg" viewBox="0 0 48 48">
 <defs>
  <linearGradient id="linearGradient3764" x1="1" x2="47" gradientUnits="userSpaceOnUse" gradientTransform="matrix(0,-1,1,0,-1.5e-6,47.999998)">
   <stop style="stop-color:#1c8dec;stop-opacity:1"/>
   <stop offset="1" style="stop-color:#2f95ee;stop-opacity:1"/>
  </linearGradient>
 </defs>
 <g>
  <path d="m 36.31 5 c 5.859 4.062 9.688 10.831 9.688 18.5 c 0 12.426 -10.07 22.5 -22.5 22.5 c -7.669 0 -14.438 -3.828 -18.5 -9.688 c 1.037 1.822 2.306 3.499 3.781 4.969 c 4.085 3.712 9.514 5.969 15.469 5.969 c 12.703 0 23 -10.298 23 -23 c 0 -5.954 -2.256 -11.384 -5.969 -15.469 c -1.469 -1.475 -3.147 -2.744 -4.969 -3.781 z m 4.969 3.781 c 3.854 4.113 6.219 9.637 6.219 15.719 c 0 12.703 -10.297 23 -23 23 c -6.081 0 -11.606 -2.364 -15.719 -6.219 c 4.16 4.144 9.883 6.719 16.219 6.719 c 12.703 0 23 -10.298 23 -23 c 0 -6.335 -2.575 -12.06 -6.719 -16.219 z" style="opacity:0.05"/>
  <path d="m 41.28 8.781 c 3.712 4.085 5.969 9.514 5.969 15.469 c 0 12.703 -10.297 23 -23 23 c -5.954 0 -11.384 -2.256 -15.469 -5.969 c 4.113 3.854 9.637 6.219 15.719 6.219 c 12.703 0 23 -10.298 23 -23 c 0 -6.081 -2.364 -11.606 -6.219 -15.719 z" style="opacity:0.1"/>
  <path d="m 31.25 2.375 c 8.615 3.154 14.75 11.417 14.75 21.13 c 0 12.426 -10.07 22.5 -22.5 22.5 c -9.708 0 -17.971 -6.135 -21.12 -14.75 a 23 23 0 0 0 44.875 -7 a 23 23 0 0 0 -16 -21.875 z" style="opacity:0.2"/>
 </g>
 <g>
  <path d="m 24 1 c 12.703 0 23 10.297 23 23 c 0 12.703 -10.297 23 -23 23 -12.703 0 -23 -10.297 -23 -23 0 -12.703 10.297 -23 23 -23 z" style="fill:url(#linearGradient3764);fill-opacity:1"/>
 </g>
 <g>
  <g>
   <g transform="translate(1,1)">
    <g style="opacity:0.1">
     <!-- color: #2f95ee -->
     <g>
      <path d="m -24 24 c 0 1.101 -1.123 2 -2.5 2 c -1.377 0 -2.5 -0.898 -2.5 -2 c 0 -1.101 1.123 -2 2.5 -2 c 1.377 0 2.5 0.898 2.5 2 m 0 0" transform="matrix(0.400055,0,0,0.500069,24.101465,18.498343)" style="stroke-opacity:1;fill:#000;stroke-miterlimit:4;stroke:#e5ecf4;stroke-linecap:butt;stroke-linejoin:miter;stroke-width:2.235"/>
      <path d="m 9.387 31.867 c -1.684 -0.395 -1.832 -1.48 -0.445 -3.266 c 0.629 -0.816 3.848 -3.262 4.281 -3.262 c 0.094 0 -0.285 0.586 -0.84 1.297 c -1.203 1.551 -1.242 1.945 -0.273 2.566 c 0.59 0.379 1.141 0.441 2.816 0.293 c 5.477 -0.465 13.949 -3.813 18.887 -7.453 l 1.398 -1.027 l -1.156 1.191 c -3.094 3.184 -11.133 7.121 -18.203 8.883 c -3.504 0.879 -5.176 1.078 -6.465 0.773 m 8.777 -0.535 c 0.316 -0.145 2.656 -0.914 5.199 -1.715 c 6.945 -2.184 11.469 -4.484 13.676 -6.953 c 1.25 -1.398 1.207 -2.25 -0.145 -2.949 c -0.348 -0.18 -0.996 -0.328 -1.449 -0.332 c -0.742 -0.008 -0.762 -0.035 -0.254 -0.328 c 0.309 -0.176 1.695 -0.328 3.078 -0.344 c 2.895 -0.035 3.73 0.398 3.73 1.914 c 0 2.676 -9.121 7.535 -18.391 9.801 c -3.629 0.887 -6.469 1.363 -5.449 0.91 m -3.23 -5.34 c -0.84 -0.156 -1.074 -1.313 -0.684 -3.398 c 0.645 -3.441 2.617 -6.02 5.84 -7.637 c 2.18 -1.094 5.477 -1.27 8.277 -0.434 c 2.309 0.688 4.488 2.391 5.734 4.48 l 0.75 1.258 l -0.66 0.688 c -0.875 0.91 -5.301 3.01 -8.273 3.918 c -3.465 1.063 -8.563 1.578 -10.984 1.117 m 0 0.004" style="fill:#000;fill-opacity:1;stroke:none;fill-rule:nonzero"/>
     </g>
    </g>
   </g>
  </g>
 </g>
 <g>
  <g>
   <!-- color: #2f95ee -->
   <g>
    <path d="m -24 24 c 0 1.101 -1.123 2 -2.5 2 c -1.377 0 -2.5 -0.898 -2.5 -2 c 0 -1.101 1.123 -2 2.5 -2 c 1.377 0 2.5 0.898 2.5 2 m 0 0" transform="matrix(0.400055,0,0,0.500069,24.101465,18.498343)" style="stroke-opacity:1;fill:none;stroke-miterlimit:4;stroke:#e5ecf4;stroke-linecap:butt;stroke-linejoin:miter;stroke-width:2.235"/>
    <path d="m 9.387 31.867 c -1.684 -0.395 -1.832 -1.48 -0.445 -3.266 c 0.629 -0.816 3.848 -3.262 4.281 -3.262 c 0.094 0 -0.285 0.586 -0.84 1.297 c -1.203 1.551 -1.242 1.945 -0.273 2.566 c 0.59 0.379 1.141 0.441 2.816 0.293 c 5.477 -0.465 13.949 -3.813 18.887 -7.453 l 1.398 -1.027 l -1.156 1.191 c -3.094 3.184 -11.133 7.121 -18.203 8.883 c -3.504 0.879 -5.176 1.078 -6.465 0.773 m 8.777 -0.535 c 0.316 -0.145 2.656 -0.914 5.199 -1.715 c 6.945 -2.184 11.469 -4.484 13.676 -6.953 c 1.25 -1.398 1.207 -2.25 -0.145 -2.949 c -0.348 -0.18 -0.996 -0.328 -1.449 -0.332 c -0.742 -0.008 -0.762 -0.035 -0.254 -0.328 c 0.309 -0.176 1.695 -0.328 3.078 -0.344 c 2.895 -0.035 3.73 0.398 3.73 1.914 c 0 2.676 -9.121 7.535 -18.391 9.801 c -3.629 0.887 -6.469 1.363 -5.449 0.91 m -3.23 -5.34 c -0.84 -0.156 -1.074 -1.313 -0.684 -3.398 c 0.645 -3.441 2.617 -6.02 5.84 -7.637 c 2.18 -1.094 5.477 -1.27 8.277 -0.434 c 2.309 0.688 4.488 2.391 5.734 4.48 l 0.75 1.258 l -0.66 0.688 c -0.875 0.91 -5.301 3.01 -8.273 3.918 c -3.465 1.063 -8.563 1.578 -10.984 1.117 m 0 0.004" style="fill:#fff;fill-opacity:1;stroke:none;fill-rule:nonzero"/>
   </g>
  </g>
 </g>
 <g>
  <path d="m 40.03 7.531 c 3.712 4.084 5.969 9.514 5.969 15.469 0 12.703 -10.297 23 -23 23 c -5.954 0 -11.384 -2.256 -15.469 -5.969 4.178 4.291 10.01 6.969 16.469 6.969 c 12.703 0 23 -10.298 23 -23 0 -6.462 -2.677 -12.291 -6.969 -16.469 z" style="opacity:0.1"/>
 </g>
</svg>
