<svg version="1.1" viewBox="0 0 48 48" xmlns="http://www.w3.org/2000/svg">
 <defs>
  <linearGradient id="bg" x2="0" y1="1" y2="47" gradientUnits="userSpaceOnUse">
   <stop style="stop-color:#69b723" offset="0"/>
   <stop style="stop-color:#5fa620" offset="1"/>
  </linearGradient>
 </defs>
 <path d="m36.3 5c5.86 4.06 9.69 10.8 9.69 18.5 0 12.4-10.1 22.5-22.5 22.5-7.67 0-14.4-3.83-18.5-9.69 1.04 1.82 2.31 3.5 3.78 4.97 4.08 3.71 9.51 5.97 15.5 5.97 12.7 0 23-10.3 23-23 0-5.95-2.26-11.4-5.97-15.5-1.47-1.48-3.15-2.74-4.97-3.78zm4.97 3.78c3.85 4.11 6.22 9.64 6.22 15.7 0 12.7-10.3 23-23 23-6.08 0-11.6-2.36-15.7-6.22 4.16 4.14 9.88 6.72 16.2 6.72 12.7 0 23-10.3 23-23 0-6.34-2.58-12.1-6.72-16.2z" style="opacity:.05"/>
 <path d="m41.3 8.78c3.71 4.08 5.97 9.51 5.97 15.5 0 12.7-10.3 23-23 23-5.95 0-11.4-2.26-15.5-5.97 4.11 3.85 9.64 6.22 15.7 6.22 12.7 0 23-10.3 23-23 0-6.08-2.36-11.6-6.22-15.7z" style="opacity:.1"/>
 <path d="m31.2 2.38c8.62 3.15 14.8 11.4 14.8 21.1 0 12.4-10.1 22.5-22.5 22.5-9.71 0-18-6.14-21.1-14.8a23 23 0 0 0 44.9-7 23 23 0 0 0-16-21.9z" style="opacity:.2"/>
 <circle cx="24" cy="24" r="23" style="fill:url(#bg)"/>
 <path d="m15 18-3 11h2l3-11zm2 0 3 11h2l-3-11zm5 11h2v-2h-2zm6-11-3 11h2l3-11zm5.51 3c-0.704 0.0061-1.34 0.12-1.9 0.361-0.561 0.229-1.04 0.555-1.43 0.977-0.382 0.41-0.674 0.904-0.877 1.48-0.203 0.567-0.305 1.19-0.305 1.88 0 0.784 0.108 1.46 0.322 2.03 0.215 0.567 0.507 1.04 0.877 1.43 0.37 0.374 0.8 0.651 1.29 0.832 1.27 0.442 2.4 0.231 3.51-0.326v0.398c0 0.868 0 1.58-0.309 1.9-0.43 0.398-1.14 0.596-2.13 0.596-0.525 0-1.03-0.0536-1.52-0.162-0.477-0.0964-0.883-0.211-1.22-0.344l-0.305 1.46c0.382 0.133 0.829 0.247 1.34 0.344 0.525 0.0964 1.08 0.145 1.66 0.145 1.5 0 2.63-0.326 3.37-0.977 0.74-0.651 1.11-1.7 1.11-3.15v-8.39c-1.14-0.25-2.26-0.499-3.49-0.488zm0.0781 1.51c0.45 8e-3 0.918 0.0879 1.41 0.174v5.5c-0.995 0.726-1.69 0.763-2.71 0.453-0.758-0.231-1.08-0.907-1.36-1.52-0.167-0.372-0.197-0.85-0.197-1.39 0-0.976 0.178-1.81 0.715-2.35 0.688-0.689 1.39-0.875 2.14-0.861z" style="opacity:.1"/>
 <path d="m40 7.53c3.71 4.08 5.97 9.51 5.97 15.5 0 12.7-10.3 23-23 23-5.95 0-11.4-2.26-15.5-5.97 4.18 4.29 10 6.97 16.5 6.97 12.7 0 23-10.3 23-23 0-6.46-2.68-12.3-6.97-16.5z" style="opacity:.1"/>
 <path d="m14 17-3 11h2l3-11zm13 0-3 11h2l3-11zm5.51 3c-0.704 0.0061-1.34 0.12-1.9 0.361-0.561 0.229-1.04 0.555-1.43 0.977-0.382 0.41-0.674 0.904-0.877 1.48-0.203 0.567-0.305 1.19-0.305 1.88 0 0.784 0.108 1.46 0.322 2.03 0.215 0.567 0.507 1.04 0.877 1.43 0.37 0.374 0.8 0.651 1.29 0.832 1.27 0.442 2.4 0.231 3.51-0.326v0.398c0 0.868 0 1.58-0.309 1.9-0.43 0.398-1.14 0.596-2.13 0.596-0.525 0-1.03-0.0536-1.52-0.162-0.477-0.0964-0.883-0.211-1.22-0.344l-0.305 1.46c0.382 0.133 0.829 0.247 1.34 0.344 0.525 0.0964 1.08 0.145 1.66 0.145 1.5 0 2.63-0.326 3.37-0.977 0.74-0.651 1.11-1.7 1.11-3.15v-8.39c-1.14-0.25-2.26-0.499-3.49-0.488zm1.49 1.68v5.5c-0.995 0.726-1.69 0.763-2.71 0.453-0.758-0.231-1.08-0.907-1.36-1.52-0.167-0.372-0.197-0.85-0.197-1.39 0-0.976 0.178-1.81 0.715-2.35 1.1-1.1 2.23-0.917 3.55-0.688z" style="fill:#474747"/>
 <path d="m16 17 3 11h2l-3-11h-2zm5 11h2v-2h-2v2z" style="fill:#f9f9f9"/>
</svg>
