<svg xmlns="http://www.w3.org/2000/svg" viewBox="0 0 48 48">
 <defs>
  <linearGradient id="linearGradient3764" x1="1" x2="47" gradientUnits="userSpaceOnUse" gradientTransform="matrix(0,-1,1,0,-1.5e-6,47.999998)">
   <stop style="stop-color:#43c9e5;stop-opacity:1"/>
   <stop offset="1" style="stop-color:#55cee8;stop-opacity:1"/>
  </linearGradient>
 </defs>
 <g>
  <path d="m 36.31 5 c 5.859 4.062 9.688 10.831 9.688 18.5 c 0 12.426 -10.07 22.5 -22.5 22.5 c -7.669 0 -14.438 -3.828 -18.5 -9.688 c 1.037 1.822 2.306 3.499 3.781 4.969 c 4.085 3.712 9.514 5.969 15.469 5.969 c 12.703 0 23 -10.298 23 -23 c 0 -5.954 -2.256 -11.384 -5.969 -15.469 c -1.469 -1.475 -3.147 -2.744 -4.969 -3.781 z m 4.969 3.781 c 3.854 4.113 6.219 9.637 6.219 15.719 c 0 12.703 -10.297 23 -23 23 c -6.081 0 -11.606 -2.364 -15.719 -6.219 c 4.16 4.144 9.883 6.719 16.219 6.719 c 12.703 0 23 -10.298 23 -23 c 0 -6.335 -2.575 -12.06 -6.719 -16.219 z" style="opacity:0.05"/>
  <path d="m 41.28 8.781 c 3.712 4.085 5.969 9.514 5.969 15.469 c 0 12.703 -10.297 23 -23 23 c -5.954 0 -11.384 -2.256 -15.469 -5.969 c 4.113 3.854 9.637 6.219 15.719 6.219 c 12.703 0 23 -10.298 23 -23 c 0 -6.081 -2.364 -11.606 -6.219 -15.719 z" style="opacity:0.1"/>
  <path d="m 31.25 2.375 c 8.615 3.154 14.75 11.417 14.75 21.13 c 0 12.426 -10.07 22.5 -22.5 22.5 c -9.708 0 -17.971 -6.135 -21.12 -14.75 a 23 23 0 0 0 44.875 -7 a 23 23 0 0 0 -16 -21.875 z" style="opacity:0.2"/>
 </g>
 <g>
  <path d="m 24 1 c 12.703 0 23 10.297 23 23 c 0 12.703 -10.297 23 -23 23 -12.703 0 -23 -10.297 -23 -23 0 -12.703 10.297 -23 23 -23 z" style="fill:url(#linearGradient3764);fill-opacity:1"/>
 </g>
 <g>
  <path d="m 40.03 7.531 c 3.712 4.084 5.969 9.514 5.969 15.469 0 12.703 -10.297 23 -23 23 c -5.954 0 -11.384 -2.256 -15.469 -5.969 4.178 4.291 10.01 6.969 16.469 6.969 c 12.703 0 23 -10.298 23 -23 0 -6.462 -2.677 -12.291 -6.969 -16.469 z" style="opacity:0.1"/>
 </g>
 <g transform="matrix(0.90388225,0,0,0.90549635,8.6695733,9.2605499)" style="fill:#000;opacity:0.1;fill-opacity:1;stroke:none">
  <path d="m 29.684 12.01 c 0 0.782 -0.552 1.946 -1.657 3.493 -0.221 0.313 -0.953 0.768 -2.195 1.367 -0.295 0.359 -0.87 0.801 -1.726 1.325 -0.635 0.193 -1.542 0.502 -2.72 0.925 -0.396 0.23 -0.976 0.529 -1.739 0.897 -0.12 0.028 -1.054 0.179 -2.802 0.456 -1.399 0.221 -2.098 0.506 -2.098 0.856 0 0.322 0.603 0.911 1.808 1.767 0.985 0.699 1.657 1.127 2.02 1.284 0.985 0.433 2.623 1.173 4.914 2.223 l 2.374 0.787 c 1.058 0.479 1.601 1.049 1.629 1.712 -0.166 0.304 -0.414 0.456 -0.745 0.456 -0.009 0 -0.193 -0.037 -0.552 -0.11 -0.359 -0.064 -0.575 -0.097 -0.649 -0.097 -1.27 0 -2.439 -0.244 -3.506 -0.732 -0.064 -0.009 -1.109 -0.488 -3.134 -1.436 -0.414 -0.258 -1.035 -0.658 -1.864 -1.201 -0.681 -0.442 -1.173 -0.86 -1.477 -1.256 -0.12 -0.009 -0.285 -0.041 -0.497 -0.097 -0.304 -0.469 -1.15 -1.127 -2.54 -1.974 -1.169 -0.727 -1.753 -1.302 -1.753 -1.726 0.055 -0.138 0.23 -0.575 0.525 -1.311 1.831 -0.396 4.16 -0.939 6.985 -1.629 0.285 -0.055 0.985 -0.216 2.098 -0.483 0.718 -0.175 1.969 -0.865 3.755 -2.071 2.236 -1.518 3.354 -2.779 3.355 -3.782 0 -0.893 -0.391 -1.707 -1.173 -2.443 c -0.782 -0.745 -1.739 -1.206 -2.871 -1.38 -0.525 -0.212 -0.842 -0.317 -0.953 -0.318 c -0.184 0 -0.525 -0.005 -1.022 -0.014 -0.607 -0.009 -1.1 -0.014 -1.477 -0.014 l -1.684 -0.014 c -0.129 0 -0.193 0.014 -0.193 0.041 0 0.092 -0.014 0.152 -0.041 0.179 -0.258 -0.009 -0.492 -0.014 -0.704 -0.014 -0.635 0 -1.054 0.028 -1.256 0.083 -0.451 0.138 -1.196 0.423 -2.236 0.856 -0.525 0.138 -1.178 0.322 -1.96 0.552 -0.681 0.304 -1.068 0.603 -1.16 0.897 -0.543 1.767 -0.911 3.861 -1.104 6.281 0.037 0.497 0.055 1.256 0.055 2.278 0 0.166 0 0.341 0 0.525 -0.064 0.147 -0.161 0.382 -0.29 0.704 -0.193 0.874 -0.29 1.643 -0.29 2.305 0 0.175 0.005 0.341 0.014 0.497 l 0.083 0.87 c 0.028 0.35 0.041 0.856 0.041 1.519 0 1.436 -0.271 2.154 -0.814 2.154 0 0 -0.198 -0.069 -0.594 -0.207 c -0.387 -0.147 -0.612 -0.221 -0.676 -0.221 -0.193 -1.022 -0.29 -2.724 -0.29 -5.108 c 0 -0.092 0.078 -0.847 0.235 -2.264 0.202 -1.933 0.391 -3.474 0.566 -4.625 0.193 -0.626 0.391 -1.371 0.594 -2.236 l 0 -0.663 c -0.138 -0.138 -0.225 -0.212 -0.262 -0.221 0 0 -0.143 0.069 -0.428 0.207 c -0.276 0.129 -0.446 0.193 -0.511 0.193 -0.175 0 -0.336 -0.166 -0.483 -0.497 -0.101 -0.212 -0.152 -0.391 -0.152 -0.538 0 -0.985 0.271 -1.785 0.814 -2.402 0.377 -0.423 1.21 -1.077 2.499 -1.96 0.138 -0.092 1.334 -0.359 3.589 -0.801 c 2.31 -0.433 3.884 -0.649 4.721 -0.649 1.841 0 3.598 0.083 5.273 0.248 0.12 0.101 0.322 0.193 0.607 0.276 0.874 0.009 1.905 0.492 3.092 1.449 1.187 0.957 1.877 1.854 2.071 2.692 0 0.018 0.064 0.161 0.193 0.428 0.129 0.267 0.193 0.414 0.193 0.442 0 0.037 0.032 0.244 0.097 0.621 0.055 0.396 0.083 0.612 0.083 0.649"/>
 </g>
 <g transform="matrix(0.90388225,0,0,0.90549635,7.6695733,8.26055)" style="fill:#fff;fill-opacity:1;stroke:none">
  <path d="m 29.684 12.01 c 0 0.782 -0.552 1.946 -1.657 3.493 -0.221 0.313 -0.953 0.768 -2.195 1.367 -0.295 0.359 -0.87 0.801 -1.726 1.325 -0.635 0.193 -1.542 0.502 -2.72 0.925 -0.396 0.23 -0.976 0.529 -1.739 0.897 -0.12 0.028 -1.054 0.179 -2.802 0.456 -1.399 0.221 -2.098 0.506 -2.098 0.856 0 0.322 0.603 0.911 1.808 1.767 0.985 0.699 1.657 1.127 2.02 1.284 0.985 0.433 2.623 1.173 4.914 2.223 l 2.374 0.787 c 1.058 0.479 1.601 1.049 1.629 1.712 -0.166 0.304 -0.414 0.456 -0.745 0.456 -0.009 0 -0.193 -0.037 -0.552 -0.11 -0.359 -0.064 -0.575 -0.097 -0.649 -0.097 -1.27 0 -2.439 -0.244 -3.506 -0.732 -0.064 -0.009 -1.109 -0.488 -3.134 -1.436 -0.414 -0.258 -1.035 -0.658 -1.864 -1.201 -0.681 -0.442 -1.173 -0.86 -1.477 -1.256 -0.12 -0.009 -0.285 -0.041 -0.497 -0.097 -0.304 -0.469 -1.15 -1.127 -2.54 -1.974 -1.169 -0.727 -1.753 -1.302 -1.753 -1.726 0.055 -0.138 0.23 -0.575 0.525 -1.311 1.831 -0.396 4.16 -0.939 6.985 -1.629 0.285 -0.055 0.985 -0.216 2.098 -0.483 0.718 -0.175 1.969 -0.865 3.755 -2.071 2.236 -1.518 3.354 -2.779 3.355 -3.782 0 -0.893 -0.391 -1.707 -1.173 -2.443 c -0.782 -0.745 -1.739 -1.206 -2.871 -1.38 -0.525 -0.212 -0.842 -0.317 -0.953 -0.318 c -0.184 0 -0.525 -0.005 -1.022 -0.014 -0.607 -0.009 -1.1 -0.014 -1.477 -0.014 l -1.684 -0.014 c -0.129 0 -0.193 0.014 -0.193 0.041 0 0.092 -0.014 0.152 -0.041 0.179 -0.258 -0.009 -0.492 -0.014 -0.704 -0.014 -0.635 0 -1.054 0.028 -1.256 0.083 -0.451 0.138 -1.196 0.423 -2.236 0.856 -0.525 0.138 -1.178 0.322 -1.96 0.552 -0.681 0.304 -1.068 0.603 -1.16 0.897 -0.543 1.767 -0.911 3.861 -1.104 6.281 0.037 0.497 0.055 1.256 0.055 2.278 0 0.166 0 0.341 0 0.525 -0.064 0.147 -0.161 0.382 -0.29 0.704 -0.193 0.874 -0.29 1.643 -0.29 2.305 0 0.175 0.005 0.341 0.014 0.497 l 0.083 0.87 c 0.028 0.35 0.041 0.856 0.041 1.519 0 1.436 -0.271 2.154 -0.814 2.154 0 0 -0.198 -0.069 -0.594 -0.207 c -0.387 -0.147 -0.612 -0.221 -0.676 -0.221 -0.193 -1.022 -0.29 -2.724 -0.29 -5.108 c 0 -0.092 0.078 -0.847 0.235 -2.264 0.202 -1.933 0.391 -3.474 0.566 -4.625 0.193 -0.626 0.391 -1.371 0.594 -2.236 l 0 -0.663 c -0.138 -0.138 -0.225 -0.212 -0.262 -0.221 0 0 -0.143 0.069 -0.428 0.207 c -0.276 0.129 -0.446 0.193 -0.511 0.193 -0.175 0 -0.336 -0.166 -0.483 -0.497 -0.101 -0.212 -0.152 -0.391 -0.152 -0.538 0 -0.985 0.271 -1.785 0.814 -2.402 0.377 -0.423 1.21 -1.077 2.499 -1.96 0.138 -0.092 1.334 -0.359 3.589 -0.801 c 2.31 -0.433 3.884 -0.649 4.721 -0.649 1.841 0 3.598 0.083 5.273 0.248 0.12 0.101 0.322 0.193 0.607 0.276 0.874 0.009 1.905 0.492 3.092 1.449 1.187 0.957 1.877 1.854 2.071 2.692 0 0.018 0.064 0.161 0.193 0.428 0.129 0.267 0.193 0.414 0.193 0.442 0 0.037 0.032 0.244 0.097 0.621 0.055 0.396 0.083 0.612 0.083 0.649"/>
 </g>
</svg>
