<svg version="1.1" viewBox="0 0 48 48" xmlns="http://www.w3.org/2000/svg">
 <defs>
  <linearGradient id="linearGradient840" x1="1" x2="47" gradientTransform="rotate(-90,24,24)" gradientUnits="userSpaceOnUse">
   <stop stop-color="#cf824f" offset="0"/>
   <stop stop-color="#d38d5f" offset="1"/>
  </linearGradient>
 </defs>
 <path d="m36.31 5c5.859 4.062 9.688 10.831 9.688 18.5 0 12.426-10.07 22.5-22.5 22.5-7.669 0-14.438-3.828-18.5-9.688 1.037 1.822 2.306 3.499 3.781 4.969 4.085 3.712 9.514 5.969 15.469 5.969 12.703 0 23-10.298 23-23 0-5.954-2.256-11.384-5.969-15.469-1.469-1.475-3.147-2.744-4.969-3.781zm4.969 3.781c3.854 4.113 6.219 9.637 6.219 15.719 0 12.703-10.297 23-23 23-6.081 0-11.606-2.364-15.719-6.219 4.16 4.144 9.883 6.719 16.219 6.719 12.703 0 23-10.298 23-23 0-6.335-2.575-12.06-6.719-16.219z" opacity=".05"/>
 <path d="m41.28 8.781c3.712 4.085 5.969 9.514 5.969 15.469 0 12.703-10.297 23-23 23-5.954 0-11.384-2.256-15.469-5.969 4.113 3.854 9.637 6.219 15.719 6.219 12.703 0 23-10.298 23-23 0-6.081-2.364-11.606-6.219-15.719z" opacity=".1"/>
 <path d="m31.25 2.375c8.615 3.154 14.75 11.417 14.75 21.13 0 12.426-10.07 22.5-22.5 22.5-9.708 0-17.971-6.135-21.12-14.75a23 23 0 0 0 44.875-7 23 23 0 0 0-16-21.875z" opacity=".2"/>
 <path d="m1 24c0-12.703 10.297-23 23-23s23 10.297 23 23-10.297 23-23 23-23-10.297-23-23z" style="fill:url(#linearGradient840)"/>
 <path d="m40.03 7.531c3.712 4.084 5.969 9.514 5.969 15.469 0 12.703-10.297 23-23 23-5.954 0-11.384-2.256-15.469-5.969 4.178 4.291 10.01 6.969 16.469 6.969 12.703 0 23-10.298 23-23 0-6.462-2.677-12.291-6.969-16.469z" opacity=".1"/>
 <path d="m28.033 11.469c-0.78037 0-1.6118 0.72797-2.2188 0.96289-2.7482 1.0637-10.051 4.8992-12.195 8.0039-0.42741 0.48092-0.61914 1.0087-0.61914 1.5645 0 0.94642 0.55743 1.815 1.8945 2.5-0.07538 0.03861-0.14247 0.07937-0.21289 0.11914-0.0012 6.66e-4 -0.0027 0.0013-0.0039 2e-3 -1.176 0.66525-1.6777 1.4867-1.6777 2.3789 0 0.94642 0.55743 1.815 1.8945 2.5-0.07538 0.03861-0.14247 0.07937-0.21289 0.11914-0.0012 6.66e-4 -0.0027 0.0013-0.0039 2e-3 -1.176 0.66525-1.6777 1.4867-1.6777 2.3789 0 2.2091 3 4 12 4s12-1.7909 12-4c0-0.77474-0.38072-1.4948-1.248-2.1074-0.01228-0.0087-0.02267-0.0187-0.03516-0.02734-0.18285-0.12644-0.38427-0.24892-0.61132-0.36524 1.3371-0.68496 1.8945-1.5536 1.8945-2.5 0-0.77474-0.38072-1.4948-1.248-2.1074-0.01228-0.0087-0.02267-0.0187-0.03516-0.02734-0.18285-0.12644-0.38427-0.24892-0.61132-0.36524 1.3371-0.68496 1.8945-1.5536 1.8945-2.5 0-2.2091-3-4-12-4-0.27433 0-0.49259 0.01624-0.75586 0.01953-0.05354 6.69e-4 -0.09923 0.0031-0.15234 0.0039-1.0999 0.01661-2.1037 0.06169-3.0156 0.13281 2.8049-1.6345 6.6909-3.1562 7.9238-3.1562 0 0 3 0 3-1s-0.821-1.0008-1.4922-1.3477c-0.67214-0.14638-0.88605-1.1836-2.4746-1.1836z" style="opacity:.1;paint-order:stroke fill markers"/>
 <path d="m36 31c0 2.2091-3 4-12 4s-12-1.7909-12-4 3-4 12-4 12 1.7909 12 4z" style="fill:#fc0;paint-order:stroke fill markers"/>
 <path d="m24 27c-5.3656-1e-6 -8.5861 0.63891-10.322 1.6211 1.3109 1.4 4.6774 2.3789 11.322 2.3789 5.3656 1e-6 8.5861-0.63891 10.322-1.6211-1.3109-1.4-4.6774-2.3789-11.322-2.3789z" style="opacity:.1;paint-order:stroke fill markers"/>
 <path d="m36 26c0 2.2091-3 4-12 4s-12-1.7909-12-4 3-4 12-4 12 1.7909 12 4z" style="fill:#ffd11a;paint-order:stroke fill markers"/>
 <path d="m24 22c-5.3656 1e-6 -8.5861 0.63891-10.322 1.6211 1.3109 1.4 4.6774 2.3789 11.322 2.3789 5.3656 1e-6 8.5861-0.63891 10.322-1.6211-1.3109-1.4-4.6774-2.3789-11.322-2.3789z" style="opacity:.1;paint-order:stroke fill markers"/>
 <path d="m36 21c0 2.2091-3 4-12 4s-12-1.7909-12-4 3-4 12-4 12 1.7909 12 4z" style="fill:#ffd62f;paint-order:stroke fill markers"/>
 <path d="m31 20c0 0.55228-1.75 1-7 1s-7-0.44772-7-1 1.75-1 7-1 7 0.44772 7 1z" style="opacity:.2;paint-order:stroke fill markers"/>
 <path d="m23.244 17.02c-2.7874 0.03482-4.9968 0.24073-6.6543 0.59375-1.0335 0.76953-1.9382 1.5542-2.582 2.3086l2.9922 0.07813c0-0.34873 0.70495-0.65503 2.541-0.83398 0.97988-0.72177 2.3119-1.4773 3.7031-2.1465z" style="opacity:.1"/>
 <path d="m17 20c0-2 9-6 11-6 0 0 3 0 3-1s-0.82016-1-1.4913-1.3468c-0.67214-0.14638-0.8874-1.185-2.476-1.185-0.78037 0-1.6107 0.7283-2.2177 0.96322-3.2356 1.2523-12.815 6.3489-12.815 9.5686h5z" style="fill:#ffd62f"/>
 <circle cx="27.5" cy="11.5" r=".5" style="fill:#540;paint-order:stroke fill markers"/>
</svg>
