<svg version="1.1" viewBox="0 0 48 48" xmlns="http://www.w3.org/2000/svg">
 <defs>
  <linearGradient id="bg" x2="0" y1="1" y2="47" gradientUnits="userSpaceOnUse">
   <stop style="stop-color:#de5959" offset="0"/>
   <stop style="stop-color:#db4848" offset="1"/>
  </linearGradient>
 </defs>
 <path d="m36.31 5c5.859 4.062 9.688 10.831 9.688 18.5 0 12.426-10.07 22.5-22.5 22.5-7.669 0-14.438-3.828-18.5-9.688 1.037 1.822 2.306 3.499 3.781 4.969 4.085 3.712 9.514 5.969 15.469 5.969 12.703 0 23-10.298 23-23 0-5.954-2.256-11.384-5.969-15.469-1.469-1.475-3.147-2.744-4.969-3.781zm4.969 3.781c3.854 4.113 6.219 9.637 6.219 15.719 0 12.703-10.297 23-23 23-6.081 0-11.606-2.364-15.719-6.219 4.16 4.144 9.883 6.719 16.219 6.719 12.703 0 23-10.298 23-23 0-6.335-2.575-12.06-6.719-16.219z" style="opacity:.05"/>
 <path d="m41.28 8.781c3.712 4.085 5.969 9.514 5.969 15.469 0 12.703-10.297 23-23 23-5.954 0-11.384-2.256-15.469-5.969 4.113 3.854 9.637 6.219 15.719 6.219 12.703 0 23-10.298 23-23 0-6.081-2.364-11.606-6.219-15.719z" style="opacity:.1"/>
 <path d="m31.25 2.375c8.615 3.154 14.75 11.417 14.75 21.13 0 12.426-10.07 22.5-22.5 22.5-9.708 0-17.971-6.135-21.12-14.75a23 23 0 0 0 44.875-7 23 23 0 0 0-16-21.875z" style="opacity:.2"/>
 <circle cx="24" cy="24" r="23" style="fill:url(#bg)"/>
 <path d="m40.03 7.531c3.712 4.084 5.969 9.514 5.969 15.469 0 12.703-10.297 23-23 23-5.954 0-11.384-2.256-15.469-5.969 4.178 4.291 10.01 6.969 16.469 6.969 12.703 0 23-10.298 23-23 0-6.462-2.677-12.291-6.969-16.469z" style="opacity:.1"/>
 <path d="m14 12v26h22v-26h-1.9959v3c0 0.552-0.44727 1-1.0004 1-0.552 0-1.0004-0.448-1.0004-1v-3h-1.9996v3c0 0.552-0.44727 1-1.0004 1-0.552 0-1.0004-0.448-1.0004-1v-3h-1.9996v3c0 0.552-0.44727 1-1.0004 1-0.552 0-1.0004-0.448-1.0004-1v-3h-1.9996v3c0 0.552-0.44727 1-1.0004 1-0.552 0-1.0004-0.448-1.0004-1v-3h-1.9996v3c0 0.552-0.44727 1-1.0004 1-0.552 0-1.0004-0.448-1.0004-1v-3z" style="opacity:.1;stroke-width:1.0445"/>
 <path d="m13 11v26h22v-26l-2.002 2e-6 -1e-6 1.9999c-1e-6 0.55197-0.44799 0.99995-0.99998 0.99995s-0.99998-0.44798-0.99997-0.99995l1e-6 -1.9999-2-1e-6 -1e-6 1.9999c0 0.55197-0.44799 0.99995-0.99998 0.99995s-0.99997-0.44798-0.99997-0.99995l2e-6 -1.9999h-2l-2e-6 1.9999c0 0.55197-0.44799 0.99995-0.99998 0.99995s-0.99998-0.44798-0.99997-0.99995l1e-6 -1.9999h-2l-1e-6 1.9999c-1e-6 0.55198-0.44799 0.99995-0.99998 0.99995s-0.99997-0.44798-0.99997-0.99995l1e-6 -1.9999h-2l-1e-6 1.9999c0 0.55197-0.44799 0.99995-0.99998 0.99995s-0.99998-0.44798-0.99998-0.99995l2e-6 -1.9999z" style="fill:#ededed"/>
 <path d="m20 16v2h4c2.216 0 4 1.338 4 3s-1.784 3-4 3h-3l-1.5 2c1.621 0 3.0972 0.311 3.7812 0.75s1.1495 1.057 1.5625 1.875c0.824 1.636 1.352 3.059 3.457 5.074 0.361 0.426 1.0444 0.377 1.3984 0 0.399-0.426 0.39028-1.025-0.01172-1.418-1.629-1.559-2.0695-2.5923-3.0625-4.5623-0.3293-0.65407-0.79611-1.2716-1.3574-1.8301 2.7112-0.48223 4.7324-2.4813 4.7324-4.8887 0-2.77-2.676-5-6-5z" style="fill:#4d4d4d"/>
 <path d="m19 17v14l1.5 4 1.5-4v-13a1 1 0 0 0-1-1z" style="opacity:.1"/>
 <path d="m18 30 1.5-1 1.5 1-0.75 2-0.75 1-0.75-1z" style="fill:#e9da9a"/>
 <path d="m19 16c-0.554 0-1 0.446-1 1v13h3v-13c0-0.554-0.446-1-1-1z" style="fill:#e15b5b"/>
 <path d="m20.25 32-0.75 2-0.75-2z" style="fill:#4d4d4d"/>
 <path d="m19 16v14h1v-14z" style="opacity:.1"/>
 <path d="m20 16v14h1v-13c0-0.554-0.446-1-1-1z" style="opacity:.2"/>
</svg>
