<svg version="1.1" viewBox="0 0 48 48" xmlns="http://www.w3.org/2000/svg">
 <defs>
  <linearGradient id="linearGradient3869" x2="0" y1="47" y2="1" gradientUnits="userSpaceOnUse">
   <stop style="stop-color:#d93f3f" offset="0"/>
   <stop style="stop-color:#dc5050" offset="1"/>
  </linearGradient>
 </defs>
 <path d="m36.31 5c5.859 4.062 9.688 10.831 9.688 18.5 0 12.426-10.07 22.5-22.5 22.5-7.669 0-14.438-3.828-18.5-9.688 1.037 1.822 2.306 3.499 3.781 4.969 4.085 3.712 9.514 5.969 15.469 5.969 12.703 0 23-10.298 23-23 0-5.954-2.256-11.384-5.969-15.469-1.469-1.475-3.147-2.744-4.969-3.781zm4.969 3.781c3.854 4.113 6.219 9.637 6.219 15.719 0 12.703-10.297 23-23 23-6.081 0-11.606-2.364-15.719-6.219 4.16 4.144 9.883 6.719 16.219 6.719 12.703 0 23-10.298 23-23 0-6.335-2.575-12.06-6.719-16.219z" style="opacity:.05"/>
 <path d="m41.28 8.781c3.712 4.085 5.969 9.514 5.969 15.469 0 12.703-10.297 23-23 23-5.954 0-11.384-2.256-15.469-5.969 4.113 3.854 9.637 6.219 15.719 6.219 12.703 0 23-10.298 23-23 0-6.081-2.364-11.606-6.219-15.719z" style="opacity:.1"/>
 <path d="m31.25 2.375c8.615 3.154 14.75 11.417 14.75 21.13 0 12.426-10.07 22.5-22.5 22.5-9.708 0-17.971-6.135-21.12-14.75a23 23 0 0 0 44.875-7 23 23 0 0 0-16-21.875z" style="opacity:.2"/>
 <path d="m24 1c12.703 0 23 10.297 23 23s-10.297 23-23 23-23-10.297-23-23 10.297-23 23-23z" style="fill:url(#linearGradient3869)"/>
 <path d="m40.03 7.531c3.712 4.084 5.969 9.514 5.969 15.469 0 12.703-10.297 23-23 23-5.954 0-11.384-2.256-15.469-5.969 4.178 4.291 10.01 6.969 16.469 6.969 12.703 0 23-10.298 23-23 0-6.462-2.677-12.291-6.969-16.469z" style="opacity:.1"/>
 <g transform="matrix(1.0909 0 0 1 -3.3636 1)" style="opacity:.1">
  <path d="m15.917 11v26h20.17v-26h-1.833v3c0 0.552-0.41 1-0.917 1-0.506 0-0.917-0.448-0.917-1v-3h-1.833v3c0 0.552-0.41 1-0.917 1-0.506 0-0.917-0.448-0.917-1v-3h-1.833v3c0 0.552-0.41 1-0.917 1-0.506 0-0.917-0.448-0.917-1v-3h-1.833v3c0 0.552-0.41 1-0.917 1-0.506 0-0.917-0.448-0.917-1v-3h-1.833v3c0 0.552-0.41 1-0.917 1-0.506 0-0.917-0.448-0.917-1v-3z"/>
  <g transform="matrix(.36 0 0 .36522 21.52 20.878)" style="opacity:.7">
   <path transform="matrix(.46384 0 0 .52305 46.604 4.0851)" d="m-35.797 18c0 2.64-2.413 4.78-5.39 4.78s-5.39-2.14-5.39-4.78 2.413-4.78 5.39-4.78 5.39 2.14 5.39 4.78z"/>
   <path transform="matrix(.46384 0 0 .52305 39.604 10.085)" d="m-35.797 18c0 2.64-2.413 4.78-5.39 4.78s-5.39-2.14-5.39-4.78 2.413-4.78 5.39-4.78 5.39 2.14 5.39 4.78z"/>
   <path transform="matrix(.46384 0 0 .52305 33.604 16.085)" d="m-35.797 18c0 2.64-2.413 4.78-5.39 4.78s-5.39-2.14-5.39-4.78 2.413-4.78 5.39-4.78 5.39 2.14 5.39 4.78z"/>
   <path transform="matrix(.46384 0 0 .52305 42.604 16.085)" d="m-35.797 18c0 2.64-2.413 4.78-5.39 4.78s-5.39-2.14-5.39-4.78 2.413-4.78 5.39-4.78 5.39 2.14 5.39 4.78z"/>
   <path transform="matrix(.46384 0 0 .52305 49.604 10.085)" d="m-35.797 18c0 2.64-2.413 4.78-5.39 4.78s-5.39-2.14-5.39-4.78 2.413-4.78 5.39-4.78 5.39 2.14 5.39 4.78z"/>
   <path transform="matrix(.46384 0 0 .52305 51.604 16.085)" d="m-35.797 18c0 2.64-2.413 4.78-5.39 4.78s-5.39-2.14-5.39-4.78 2.413-4.78 5.39-4.78 5.39 2.14 5.39 4.78z"/>
   <path transform="matrix(.46384 0 0 .52305 53.604 22.085)" d="m-35.797 18c0 2.64-2.413 4.78-5.39 4.78s-5.39-2.14-5.39-4.78 2.413-4.78 5.39-4.78 5.39 2.14 5.39 4.78z"/>
   <path transform="matrix(.46384 0 0 .52305 44.604 22.085)" d="m-35.797 18c0 2.64-2.413 4.78-5.39 4.78s-5.39-2.14-5.39-4.78 2.413-4.78 5.39-4.78 5.39 2.14 5.39 4.78z"/>
   <path transform="matrix(.46384 0 0 .52305 36.604 22.085)" d="m-35.797 18c0 2.64-2.413 4.78-5.39 4.78s-5.39-2.14-5.39-4.78 2.413-4.78 5.39-4.78 5.39 2.14 5.39 4.78z"/>
  </g>
  <rect x="18" y="16" width="15" height="1"/>
  <rect x="18" y="19" width="10" height="1"/>
  <rect x="18" y="22" width="15" height="1"/>
  <rect x="18" y="25" width="8" height="1"/>
  <g transform="matrix(.68965 .68022 -.66578 .70461 40.467 18.229)">
   <rect x="-8" y="5" width="2" height="19"/>
   <rect x="-8" y="2" width="2" height="3"/>
   <path d="m-8 24h2l-1 4z"/>
   <rect x="-8" y="4" width="2" height="1"/>
   <rect x="-7" y="5" width="1" height="19"/>
   <path d="m-6.481 26-0.519 2-0.492-2h1.01z"/>
  </g>
 </g>
 <g transform="matrix(.96861 .010239 .010537 .96934 23.696 11.235)">
  <path transform="matrix(1.0325 -.010906 -.011224 1.0317 -24.341 -11.333)" d="m13 11v26h22v-26h-2v2c0 0.552-0.448 1-1 1s-1-0.448-1-1v-2h-2v2c0 0.552-0.448 1-1 1s-1-0.448-1-1v-2h-2v2c0 0.552-0.448 1-1 1s-1-0.448-1-1v-2h-2v2c0 0.552-0.448 1-1 1s-1-0.448-1-1v-2h-2v2c0 0.552-0.448 1-1 1s-1-0.448-1-1v-2z" style="fill:#e3dedb"/>
 </g>
 <path d="m19.5 18h2.5c3.14 0 4.677 0.524 5.313 1.031 0.635 0.507 0.688 1.054 0.688 1.969 0 0.911-0.048 1.46-0.688 1.969-0.639 0.509-2.184 1.031-5.313 1.031h-2.5v2c1.621 0 3.097 0.311 3.781 0.75s1.15 1.057 1.563 1.875c0.824 1.636 1.351 4.06 3.456 6.075 0.361 0.426 1.046 0.377 1.4 0 0.399-0.426 0.39-1.026-0.012-1.419-1.629-1.559-2.07-3.593-3.063-5.563-0.363-0.721-0.891-1.398-1.531-2 1.478-0.228 2.698-0.574 3.469-1.188 1.245-0.991 1.438-2.442 1.438-3.531 0-1.086-0.194-2.539-1.438-3.531-1.243-0.993-3.217-1.469-6.563-1.469h-2.5z" style="color:#000000;fill:#2e2e2e"/>
 <path d="m18 31 1.5-1 1.5 1-0.75 2-0.75 1-0.75-1z" style="fill:#ffe680"/>
 <path d="m18 16h3v15h-3z" style="fill:#c22929"/>
 <path d="m18 16h1.5v15h-1.5z" style="fill:#db3e3e"/>
 <path d="m20.25 33-0.75 2-0.75-2z" style="fill:#2e2e2e"/>
</svg>
