<svg xmlns="http://www.w3.org/2000/svg" viewBox="0 0 48 48">
 <defs>
  <linearGradient id="linearGradient3764" x1="1" x2="47" gradientUnits="userSpaceOnUse" gradientTransform="matrix(0,-1,1,0,-1.5e-6,47.999998)">
   <stop style="stop-color:#9db6d7;stop-opacity:1"/>
   <stop offset="1" style="stop-color:#acc1dd;stop-opacity:1"/>
  </linearGradient>
 </defs>
 <g>
  <path d="m 36.31 5 c 5.859 4.062 9.688 10.831 9.688 18.5 c 0 12.426 -10.07 22.5 -22.5 22.5 c -7.669 0 -14.438 -3.828 -18.5 -9.688 c 1.037 1.822 2.306 3.499 3.781 4.969 c 4.085 3.712 9.514 5.969 15.469 5.969 c 12.703 0 23 -10.298 23 -23 c 0 -5.954 -2.256 -11.384 -5.969 -15.469 c -1.469 -1.475 -3.147 -2.744 -4.969 -3.781 z m 4.969 3.781 c 3.854 4.113 6.219 9.637 6.219 15.719 c 0 12.703 -10.297 23 -23 23 c -6.081 0 -11.606 -2.364 -15.719 -6.219 c 4.16 4.144 9.883 6.719 16.219 6.719 c 12.703 0 23 -10.298 23 -23 c 0 -6.335 -2.575 -12.06 -6.719 -16.219 z" style="opacity:0.05"/>
  <path d="m 41.28 8.781 c 3.712 4.085 5.969 9.514 5.969 15.469 c 0 12.703 -10.297 23 -23 23 c -5.954 0 -11.384 -2.256 -15.469 -5.969 c 4.113 3.854 9.637 6.219 15.719 6.219 c 12.703 0 23 -10.298 23 -23 c 0 -6.081 -2.364 -11.606 -6.219 -15.719 z" style="opacity:0.1"/>
  <path d="m 31.25 2.375 c 8.615 3.154 14.75 11.417 14.75 21.13 c 0 12.426 -10.07 22.5 -22.5 22.5 c -9.708 0 -17.971 -6.135 -21.12 -14.75 a 23 23 0 0 0 44.875 -7 a 23 23 0 0 0 -16 -21.875 z" style="opacity:0.2"/>
 </g>
 <g>
  <path d="m 24 1 c 12.703 0 23 10.297 23 23 c 0 12.703 -10.297 23 -23 23 -12.703 0 -23 -10.297 -23 -23 0 -12.703 10.297 -23 23 -23 z" style="fill:url(#linearGradient3764);fill-opacity:1"/>
 </g>
 <g>
  <g>
   <g transform="translate(1,1)">
    <g style="opacity:0.1">
     <!-- color: #acc1dd -->
     <g>
      <path d="m 24 16 c -6.629 0 -12 3.582 -12 8 c 0 4.418 5.371 8 12 8 c 6.629 0 12 -3.582 12 -8 c 0 -4.418 -5.371 -8 -12 -8 m 1.5 2 c 5.246 0 9.5 2.688 9.5 6 c 0 3.313 -4.254 6 -9.5 6 c -5.246 0 -9.5 -2.688 -9.5 -6 c 0 -3.313 4.254 -6 9.5 -6 m 0 0" style="fill:#000;fill-opacity:1;stroke:none;fill-rule:nonzero"/>
      <path d="m 24.5 17 c -5.801 0 -10.5 3.133 -10.5 7 c 0 3.867 4.699 7 10.5 7 c 5.172 0 9.441 -2.5 10.313 -5.781 c -0.887 2.734 -4.723 4.781 -9.313 4.781 c -5.246 0 -9.5 -2.688 -9.5 -6 c 0 -3.313 4.254 -6 9.5 -6 c 4.59 0 8.426 2.047 9.313 4.781 c -0.867 -3.281 -5.141 -5.781 -10.313 -5.781 m 10.313 5.781 c 0.063 0.195 0.094 0.391 0.125 0.594 c -0.027 -0.203 -0.074 -0.395 -0.125 -0.594 m 0 2.438 c 0.051 -0.199 0.098 -0.391 0.125 -0.594 c -0.031 0.203 -0.063 0.398 -0.125 0.594 m 0 0" style="fill:#000;fill-opacity:1;stroke:none;fill-rule:nonzero"/>
      <path d="m 20.992 20 l 0 14.996 l 3 0 l 0 -5 l 1 0 l 3 5 l 3 0 l -3 -5 l -0.219 -0.344 c 1.875 -0.719 3.215 -2.523 3.215 -4.656 c 0 -2.758 -2.238 -4.996 -5 -4.996 m -1.996 3 l 1.996 0 c 1.105 0 2 0.895 2 1.996 c 0 1.109 -0.898 2 -2 2 l -1.996 0 l 0 -4 m 0 0.004" style="fill:#000;fill-opacity:1;stroke:none;fill-rule:nonzero"/>
      <path d="m 22 19 l 0 14.996 l 3 0 l 0 -4.996 l 1 0 l 3 4.996 l 3 0 l -3 -4.996 l -0.223 -0.344 c 1.875 -0.723 3.219 -2.527 3.219 -4.656 c 0 -2.762 -2.238 -5 -5 -5 m -2 3 l 2 0 c 1.105 0 2 0.898 2 2 c 0 1.105 -0.898 1.996 -2 1.996 l -2 0 l 0 -4 m 0 0.004" style="fill:#000;fill-opacity:1;stroke:none;fill-rule:nonzero"/>
     </g>
    </g>
   </g>
  </g>
 </g>
 <g>
  <g>
   <!-- color: #acc1dd -->
   <g>
    <path d="m 24 16 c -6.629 0 -12 3.582 -12 8 c 0 4.418 5.371 8 12 8 c 6.629 0 12 -3.582 12 -8 c 0 -4.418 -5.371 -8 -12 -8 m 1.5 2 c 5.246 0 9.5 2.688 9.5 6 c 0 3.313 -4.254 6 -9.5 6 c -5.246 0 -9.5 -2.688 -9.5 -6 c 0 -3.313 4.254 -6 9.5 -6 m 0 0" style="fill:#ececec;fill-opacity:1;stroke:none;fill-rule:nonzero"/>
    <path d="m 24.5 17 c -5.801 0 -10.5 3.133 -10.5 7 c 0 3.867 4.699 7 10.5 7 c 5.172 0 9.441 -2.5 10.313 -5.781 c -0.887 2.734 -4.723 4.781 -9.313 4.781 c -5.246 0 -9.5 -2.688 -9.5 -6 c 0 -3.313 4.254 -6 9.5 -6 c 4.59 0 8.426 2.047 9.313 4.781 c -0.867 -3.281 -5.141 -5.781 -10.313 -5.781 m 10.313 5.781 c 0.063 0.195 0.094 0.391 0.125 0.594 c -0.027 -0.203 -0.074 -0.395 -0.125 -0.594 m 0 2.438 c 0.051 -0.199 0.098 -0.391 0.125 -0.594 c -0.031 0.203 -0.063 0.398 -0.125 0.594 m 0 0" style="fill:#535453;fill-opacity:1;stroke:none;fill-rule:nonzero"/>
    <path d="m 20.992 20 l 0 14.996 l 3 0 l 0 -5 l 1 0 l 3 5 l 3 0 l -3 -5 l -0.219 -0.344 c 1.875 -0.719 3.215 -2.523 3.215 -4.656 c 0 -2.758 -2.238 -4.996 -5 -4.996 m -1.996 3 l 1.996 0 c 1.105 0 2 0.895 2 1.996 c 0 1.109 -0.898 2 -2 2 l -1.996 0 l 0 -4 m 0 0.004" style="fill:#ececec;fill-opacity:1;stroke:none;fill-rule:nonzero"/>
    <path d="m 22 19 l 0 14.996 l 3 0 l 0 -4.996 l 1 0 l 3 4.996 l 3 0 l -3 -4.996 l -0.223 -0.344 c 1.875 -0.723 3.219 -2.527 3.219 -4.656 c 0 -2.762 -2.238 -5 -5 -5 m -2 3 l 2 0 c 1.105 0 2 0.898 2 2 c 0 1.105 -0.898 1.996 -2 1.996 l -2 0 l 0 -4 m 0 0.004" style="fill:#535453;fill-opacity:1;stroke:none;fill-rule:nonzero"/>
   </g>
  </g>
 </g>
 <g>
  <path d="m 40.03 7.531 c 3.712 4.084 5.969 9.514 5.969 15.469 0 12.703 -10.297 23 -23 23 c -5.954 0 -11.384 -2.256 -15.469 -5.969 4.178 4.291 10.01 6.969 16.469 6.969 c 12.703 0 23 -10.298 23 -23 0 -6.462 -2.677 -12.291 -6.969 -16.469 z" style="opacity:0.1"/>
 </g>
</svg>
