<svg xmlns="http://www.w3.org/2000/svg" viewBox="0 0 48 48">
 <defs>
  <linearGradient id="linearGradient3764" x1="1" x2="47" gradientUnits="userSpaceOnUse" gradientTransform="matrix(0,-1,1,0,-1.5e-6,47.999998)">
   <stop style="stop-color:#0cbe82;stop-opacity:1"/>
   <stop offset="1" style="stop-color:#0dd18f;stop-opacity:1"/>
  </linearGradient>
 </defs>
 <g>
  <path d="m 36.31 5 c 5.859 4.062 9.688 10.831 9.688 18.5 c 0 12.426 -10.07 22.5 -22.5 22.5 c -7.669 0 -14.438 -3.828 -18.5 -9.688 c 1.037 1.822 2.306 3.499 3.781 4.969 c 4.085 3.712 9.514 5.969 15.469 5.969 c 12.703 0 23 -10.298 23 -23 c 0 -5.954 -2.256 -11.384 -5.969 -15.469 c -1.469 -1.475 -3.147 -2.744 -4.969 -3.781 z m 4.969 3.781 c 3.854 4.113 6.219 9.637 6.219 15.719 c 0 12.703 -10.297 23 -23 23 c -6.081 0 -11.606 -2.364 -15.719 -6.219 c 4.16 4.144 9.883 6.719 16.219 6.719 c 12.703 0 23 -10.298 23 -23 c 0 -6.335 -2.575 -12.06 -6.719 -16.219 z" style="opacity:0.05"/>
  <path d="m 41.28 8.781 c 3.712 4.085 5.969 9.514 5.969 15.469 c 0 12.703 -10.297 23 -23 23 c -5.954 0 -11.384 -2.256 -15.469 -5.969 c 4.113 3.854 9.637 6.219 15.719 6.219 c 12.703 0 23 -10.298 23 -23 c 0 -6.081 -2.364 -11.606 -6.219 -15.719 z" style="opacity:0.1"/>
  <path d="m 31.25 2.375 c 8.615 3.154 14.75 11.417 14.75 21.13 c 0 12.426 -10.07 22.5 -22.5 22.5 c -9.708 0 -17.971 -6.135 -21.12 -14.75 a 23 23 0 0 0 44.875 -7 a 23 23 0 0 0 -16 -21.875 z" style="opacity:0.2"/>
 </g>
 <g>
  <path d="m 24 1 c 12.703 0 23 10.297 23 23 c 0 12.703 -10.297 23 -23 23 -12.703 0 -23 -10.297 -23 -23 0 -12.703 10.297 -23 23 -23 z" style="fill:url(#linearGradient3764);fill-opacity:1"/>
 </g>
 <g>
  <path d="m 40.03 7.531 c 3.712 4.084 5.969 9.514 5.969 15.469 0 12.703 -10.297 23 -23 23 c -5.954 0 -11.384 -2.256 -15.469 -5.969 4.178 4.291 10.01 6.969 16.469 6.969 c 12.703 0 23 -10.298 23 -23 0 -6.462 -2.677 -12.291 -6.969 -16.469 z" style="opacity:0.1"/>
 </g>
 <path d="m 24.84 12 c -2.909 0 -5.333 1.949 -5.889 4.535 -0.213 0.811 -0.719 1.357 -2.112 1.463 l 0.014 0.007 c -2.668 0.33 -4.84 2.707 -4.84 5.63 0 1.814 0.921 3.476 2.409 4.528 0.638 0.563 0.964 1.346 0.457 2.934 l 0.028 -0.021 c -0.071 0.351 -0.124 0.705 -0.124 1.063 0 3.132 2.689 5.669 6.01 5.669 0.599 0 1.187 -0.103 1.75 -0.266 l -0.025 0.028 c 0.071 -0.028 0.113 -0.039 0.181 -0.064 0.096 -0.032 0.191 -0.067 0.287 -0.103 1.244 -0.468 1.889 -0.379 3.38 0.174 c 0.705 0.269 1.463 0.418 2.236 0.418 c 3.32 0 6.01 -2.541 6.01 -5.673 0 -0.397 -0.06 -0.79 -0.149 -1.173 l 0.011 0.011 c -0.117 -1.382 0.319 -2.161 1.439 -2.983 l -0.007 0 c 1.3 -1.052 2.105 -2.597 2.105 -4.287 0 -2.845 -1.658 -5.159 -5.425 -5.591 -1.24 -0.39 -1.552 -0.726 -1.878 -1.85 -0.592 -2.544 -2.994 -4.454 -5.871 -4.45 m 0.174 8.756 c 0.255 0 0.51 0.099 0.709 0.294 0 0 0.535 0.78 0.95 0.95 0.415 0.17 1.343 0 1.343 0 0.553 0 0.999 0.446 0.999 0.999 0 0 -0.17 0.928 0 1.343 0.17 0.415 0.95 0.95 0.95 0.95 0.393 0.393 0.393 1.024 0 1.414 0 0 -0.78 0.535 -0.95 0.95 -0.17 0.415 0 1.343 0 1.343 0 0.553 -0.446 0.999 -0.999 0.999 0 0 -0.928 -0.17 -1.343 0 -0.415 0.17 -0.95 0.95 -0.95 0.95 -0.393 0.393 -1.024 0.393 -1.414 0 0 0 -0.535 -0.78 -0.95 -0.95 -0.415 -0.17 -1.343 0 -1.343 0 -0.553 0 -0.999 -0.446 -0.999 -0.999 0 0 0.17 -0.928 0 -1.343 -0.17 -0.415 -0.95 -0.95 -0.95 -0.95 -0.393 -0.393 -0.393 -1.024 0 -1.414 0 0 0.78 -0.535 0.95 -0.95 0.17 -0.415 0 -1.343 0 -1.343 0 -0.553 0.446 -0.999 0.999 -0.999 0 0 0.928 0.17 1.343 0 0.415 -0.17 0.95 -0.95 0.95 -0.95 0.195 -0.195 0.45 -0.294 0.709 -0.294 z m 0 2.243 a 3 3 0 0 0 -3 3 3 3 0 0 0 3 3 3 3 0 0 0 3 -3 3 3 0 0 0 -3 -3" style="fill:#000;opacity:1;fill-opacity:0.098;stroke:none;fill-rule:nonzero"/>
 <g transform="matrix(3.543307,0,0,3.543307,9.9982179e-4,0.0015635)">
  <g transform="matrix(0.28222223,0,0,-0.28222223,4.062701e-8,13.828889)" style="fill:#e8e070;fill-opacity:1">
   <g>
    <path transform="matrix(1,0,0,-1,0,49)" d="m 23.826 11 c -3.319 0 -6.01 2.539 -6.01 5.67 0 0.154 0.009 0.309 0.023 0.463 -0.467 -0.109 -0.946 -0.165 -1.428 -0.166 -2.922 0.033 -5.412 2.539 -5.412 5.67 0 2.342 1.525 4.443 3.84 5.289 -0.694 0.946 -1.066 2.068 -1.068 3.219 0 3.131 2.69 5.669 6.01 5.67 1.382 -0.002 2.722 -0.452 3.793 -1.275 1.102 0.938 2.531 1.458 4.02 1.461 3.321 0 6.01 -2.541 6.01 -5.674 -0.002 -1.059 -0.319 -2.096 -0.914 -2.994 2.557 -0.71 4.312 -2.925 4.313 -5.439 0 -3.132 -2 -5.627 -6.613 -5.67 -0.196 0 -0.393 0.011 -0.588 0.029 0.024 -0.193 0.04 -0.387 0.043 -0.582 0 -3.133 -2.695 -5.671 -6.02 -5.67 m 0.174 8.756 c 0.256 0 0.511 0.099 0.707 0.295 0 0 0.536 0.778 0.949 0.949 0.414 0.171 1.344 0 1.344 0 0.554 0 1 0.446 1 1 0 0 -0.171 0.93 0 1.344 0.171 0.413 0.949 0.949 0.949 0.949 0.392 0.392 0.392 1.022 0 1.414 0 0 -0.778 0.536 -0.949 0.949 -0.171 0.414 0 1.344 0 1.344 0 0.554 -0.446 1 -1 1 0 0 -0.93 -0.171 -1.344 0 -0.413 0.171 -0.949 0.949 -0.949 0.949 -0.392 0.392 -1.022 0.392 -1.414 0 0 0 -0.536 -0.778 -0.949 -0.949 -0.414 -0.171 -1.344 0 -1.344 0 -0.554 0 -1 -0.446 -1 -1 0 0 0.171 -0.93 0 -1.344 -0.171 -0.413 -0.949 -0.949 -0.949 -0.949 -0.392 -0.392 -0.392 -1.022 0 -1.414 0 0 0.778 -0.536 0.949 -0.949 0.171 -0.414 0 -1.344 0 -1.344 0 -0.554 0.446 -1 1 -1 0 0 0.93 0.171 1.344 0 0.413 -0.171 0.949 -0.949 0.949 -0.949 0.196 -0.196 0.451 -0.295 0.707 -0.295" style="fill:#f2f192;opacity:1;stroke:none;fill-rule:nonzero"/>
    <path d="m 33.462 18.836 c -0.116 1.383 0.321 2.16 1.439 2.984 l -3.318 -0.602" style="fill:#f2f192;opacity:1;stroke:none;fill-rule:evenodd"/>
    <path d="m 21.508 12.424 c 1.696 0.722 2.182 0.629 4.058 -0.077 l -2.047 2.132 z" style="fill:#f2f192;opacity:1;stroke:none;fill-rule:evenodd"/>
    <path d="m 13.867 18.898 c 0.597 1.87 0.043 2.627 -0.817 3.219 l 3.905 -0.612 z" style="fill:#f2f192;opacity:1;stroke:none;fill-rule:evenodd"/>
    <path d="m 15.825 32 c 1.472 0.113 1.969 0.706 2.158 1.594 l 0.66 -2.75 z" style="fill:#f2f192;opacity:1;stroke:none;fill-rule:evenodd"/>
    <path d="m 29.659 33.664 c 0.409 -1.448 0.627 -1.636 2.612 -2.18 l -3.943 -1.427 z" style="fill:#f2f192;opacity:1;stroke:none;fill-rule:evenodd"/>
   </g>
  </g>
  <circle cx="6.773" cy="7.06" r="0.847" style="fill:#9f8e6b;fill-opacity:1;stroke:none"/>
 </g>
</svg>
