<svg version="1.1" viewBox="0 0 48 48" xmlns="http://www.w3.org/2000/svg">
 <defs>
  <linearGradient id="bg" x2="0" y1="1" y2="47" gradientUnits="userSpaceOnUse">
   <stop style="stop-color:#4e545b" offset="0"/>
   <stop style="stop-color:#444a50" offset="1"/>
  </linearGradient>
 </defs>
 <path d="m36.3 5c5.86 4.06 9.69 10.8 9.69 18.5 0 12.4-10.1 22.5-22.5 22.5-7.67 0-14.4-3.83-18.5-9.69 1.04 1.82 2.31 3.5 3.78 4.97 4.08 3.71 9.51 5.97 15.5 5.97 12.7 0 23-10.3 23-23 0-5.95-2.26-11.4-5.97-15.5-1.47-1.48-3.15-2.74-4.97-3.78zm4.97 3.78c3.85 4.11 6.22 9.64 6.22 15.7 0 12.7-10.3 23-23 23-6.08 0-11.6-2.36-15.7-6.22 4.16 4.14 9.88 6.72 16.2 6.72 12.7 0 23-10.3 23-23 0-6.34-2.58-12.1-6.72-16.2z" style="opacity:.05"/>
 <path d="m41.3 8.78c3.71 4.08 5.97 9.51 5.97 15.5 0 12.7-10.3 23-23 23-5.95 0-11.4-2.26-15.5-5.97 4.11 3.85 9.64 6.22 15.7 6.22 12.7 0 23-10.3 23-23 0-6.08-2.36-11.6-6.22-15.7z" style="opacity:.1"/>
 <path d="m31.2 2.38c8.62 3.15 14.8 11.4 14.8 21.1 0 12.4-10.1 22.5-22.5 22.5-9.71 0-18-6.14-21.1-14.8a23 23 0 0 0 44.9-7 23 23 0 0 0-16-21.9z" style="opacity:.2"/>
 <circle cx="24" cy="24" r="23" style="fill:url(#bg)"/>
 <path d="m40 7.53c3.71 4.08 5.97 9.51 5.97 15.5 0 12.7-10.3 23-23 23-5.95 0-11.4-2.26-15.5-5.97 4.18 4.29 10 6.97 16.5 6.97 12.7 0 23-10.3 23-23 0-6.46-2.68-12.3-6.97-16.5z" style="opacity:.1"/>
 <path d="m25.5 15a9.5 9.5 0 0 0-9.5 9.5 9.5 9.5 0 0 0 2.97 6.87c0.592-0.266 1.27-0.607 1.99-1.01 0.645-0.355 1.34-0.768 2.04-1.2a6.5 6.5 0 0 1-2.01-4.66 6.5 6.5 0 0 1 6.5-6.5 6.5 6.5 0 0 1 5.78 3.52c0.339-0.326 0.639-0.631 0.889-0.908a9.5 9.5 0 0 0-8.67-5.61zm13.5 2c-1.16 0-2.89 0.549-4.92 1.46 0.163 0.232 0.316 0.471 0.461 0.717 0.375-0.111 0.703-0.178 0.961-0.178 0.124 0 0.235 0.0468 0.322 0.121 0.108 0.0917 0.178 0.226 0.178 0.379 0 2.5-15.5 13.5-19 13.5-0.369 3.2e-4 -0.643-0.0657-0.811-0.189-0.173-0.128-0.232-0.318-0.156-0.561 0.099-0.318 0.498-0.817 1.11-1.43-0.197-0.26-0.383-0.527-0.555-0.803-2.74 2.45-4.58 4.65-4.58 5.98 0 0.276 0.112 0.526 0.293 0.707s0.431 0.293 0.707 0.293c4 0 27-16 27-19 0-0.327-0.159-0.616-0.402-0.799-0.167-0.125-0.373-0.201-0.598-0.201zm-8.2 3.1c-2.8 1.53-5.86 3.47-8.68 5.51 0.0624 0.293 0.155 0.576 0.264 0.854 2.91-2.17 6.29-4.41 8.99-5.87-0.179-0.178-0.369-0.343-0.57-0.494zm4.19 4.55c-0.344 0.277-0.713 0.562-1.08 0.846a6.5 6.5 0 0 1-6.41 5.5 6.5 6.5 0 0 1-1.06-0.0937c-1.35 0.91-2.68 1.77-3.98 2.58a9.5 9.5 0 0 0 3.03 0.518 9.5 9.5 0 0 0 9.49-9.34z" style="opacity:.1"/>
 <path d="m38.6 16.2-2.6 0.799-1.18 1.12c0.108 0.0917 0.178 0.226 0.178 0.379 0 2.5-15.5 13.5-19 13.5-0.369 3.2e-4 -0.643-0.0657-0.811-0.189l-2.19 1.19-1.71 2.71c0.181 0.181 0.431 0.293 0.707 0.293 4 0 27-16 27-19 0-0.327-0.159-0.616-0.402-0.799z" style="fill:#adb72a"/>
 <path d="m38 16c-1.16 0-2.89 0.549-4.92 1.46 0.163 0.232 0.316 0.471 0.461 0.717 0.375-0.111 0.703-0.178 0.961-0.178 0.124 0 0.235 0.0468 0.322 0.121l3.78-1.92c-0.167-0.125-0.373-0.201-0.598-0.201zm-8.2 3.1c-2.8 1.53-5.86 3.47-8.68 5.51 0.0624 0.293 0.155 0.576 0.264 0.854 2.91-2.17 6.29-4.41 8.99-5.87-0.179-0.178-0.369-0.343-0.57-0.494zm-14.2 9.91c-2.74 2.45-4.58 4.65-4.58 5.98 0 0.276 0.112 0.526 0.293 0.707l3.9-3.9c-0.173-0.128-0.232-0.318-0.156-0.561 0.099-0.318 0.498-0.817 1.11-1.43-0.197-0.26-0.383-0.527-0.555-0.803z" style="fill:#adb72a"/>
 <g transform="translate(10 -131)">
  <path d="m14.5 145a9.5 9.5 0 0 0-9.5 9.5 9.5 9.5 0 0 0 2.97 6.87c0.592-0.266 1.27-0.607 1.99-1.01 0.645-0.355 1.34-0.768 2.04-1.2a6.5 6.5 0 0 1-2.01-4.66 6.5 6.5 0 0 1 6.5-6.5 6.5 6.5 0 0 1 5.78 3.52c0.339-0.326 0.639-0.631 0.889-0.908a9.5 9.5 0 0 0-8.67-5.61zm9.49 9.66c-0.344 0.277-0.713 0.562-1.08 0.846a6.5 6.5 0 0 1-6.41 5.5 6.5 6.5 0 0 1-1.06-0.0937c-1.35 0.91-2.68 1.77-3.98 2.58a9.5 9.5 0 0 0 3.03 0.518 9.5 9.5 0 0 0 9.49-9.34z" style="fill:#adb72a"/>
 </g>
</svg>
