<?xml version="1.0" encoding="UTF-8"?>
<svg version="1.1" viewBox="0 0 48 48" xmlns="http://www.w3.org/2000/svg">
 <defs>
  <linearGradient id="linearGradient3764" x1="1" x2="47" gradientTransform="rotate(-90 24 24)" gradientUnits="userSpaceOnUse">
   <stop style="stop-color:#575757" offset="0"/>
   <stop style="stop-color:#616161" offset="1"/>
  </linearGradient>
 </defs>
 <path d="m36.3 5c5.86 4.06 9.69 10.8 9.69 18.5 0 12.4-10.1 22.5-22.5 22.5-7.67 0-14.4-3.83-18.5-9.69 1.04 1.82 2.31 3.5 3.78 4.97 4.08 3.71 9.51 5.97 15.5 5.97 12.7 0 23-10.3 23-23 0-5.95-2.26-11.4-5.97-15.5-1.47-1.48-3.15-2.74-4.97-3.78zm4.97 3.78c3.85 4.11 6.22 9.64 6.22 15.7 0 12.7-10.3 23-23 23-6.08 0-11.6-2.36-15.7-6.22 4.16 4.14 9.88 6.72 16.2 6.72 12.7 0 23-10.3 23-23 0-6.34-2.58-12.1-6.72-16.2z" style="opacity:.05"/>
 <path d="m41.3 8.78c3.71 4.08 5.97 9.51 5.97 15.5 0 12.7-10.3 23-23 23-5.95 0-11.4-2.26-15.5-5.97 4.11 3.85 9.64 6.22 15.7 6.22 12.7 0 23-10.3 23-23 0-6.08-2.36-11.6-6.22-15.7z" style="opacity:.1"/>
 <path d="m31.2 2.38c8.62 3.15 14.8 11.4 14.8 21.1 0 12.4-10.1 22.5-22.5 22.5-9.71 0-18-6.14-21.1-14.8a23 23 0 0 0 44.9-7 23 23 0 0 0-16-21.9z" style="opacity:.2"/>
 <path d="m24 1c12.7 0 23 10.3 23 23s-10.3 23-23 23-23-10.3-23-23 10.3-23 23-23z" style="fill:url(#linearGradient3764)"/>
 <path d="m40 7.53c3.71 4.08 5.97 9.51 5.97 15.5 0 12.7-10.3 23-23 23-5.95 0-11.4-2.26-15.5-5.97 4.18 4.29 10 6.97 16.5 6.97 12.7 0 23-10.3 23-23 0-6.46-2.68-12.3-6.97-16.5z" style="opacity:.1"/>
 <path d="m25 10c-8.28 0-15 6.72-15 15s6.72 15 15 15 15-6.72 15-15-6.72-15-15-15m-0.5 1h1.5l-2 1.5v-1c0-0.277 0.22-0.5 0.5-0.5m-5.88 1.56c0.193-0.024 0.39 0.066 0.494 0.246l-1.23 1.86-0.5-0.865c-0.139-0.24-0.058-0.545 0.182-0.684l0.867-0.5c0.06-0.035 0.123-0.054 0.188-0.063zm12.8 0c0.064 8e-3 0.128 0.028 0.188 0.063l0.867 0.5-1.87 1.23c-0.24-0.139-0.32-0.444-0.182-0.684l0.5-0.865c0.104-0.18 0.301-0.27 0.494-0.246zm-17.8 4.76c0.064 8e-3 0.128 0.03 0.188 0.064l0.865 0.5-1.86 1.23c-0.24-0.139-0.322-0.443-0.184-0.682l0.5-0.867c0.104-0.18 0.303-0.27 0.496-0.246zm22.8 0c0.193-0.024 0.392 0.066 0.496 0.246l-1.23 1.87-0.5-0.867c-0.139-0.24-0.056-0.543 0.184-0.682l0.865-0.5c0.06-0.035 0.123-0.056 0.188-0.064zm1.12 5.68h1.5l-2 2v-1.5c0-0.28 0.22-0.5 0.5-0.5m-26 1h1.5l-2 2v-1.5c0-0.28 0.223-0.5 0.5-0.5m25.1 5.46c0.064 8e-3 0.129 0.028 0.189 0.063l0.865 0.5c0.24 0.139 0.322 0.444 0.184 0.684l-0.5 0.865c-0.138 0.239-0.447 0.322-0.687 0.183l-0.865-0.5c-0.24-0.139-0.322-0.444-0.184-0.684l0.5-0.865c0.104-0.18 0.301-0.27 0.494-0.246zm-22.8 0.865c0.193-0.024 0.39 0.066 0.494 0.246l-1.23 1.87-0.5-0.867c-0.139-0.24-0.056-0.543 0.184-0.682l0.865-0.5c0.06-0.035 0.125-0.056 0.189-0.064zm18.6 4.26c0.193-0.024 0.39 0.068 0.494 0.248l0.5 0.865c0.139 0.24 0.056 0.545-0.184 0.684l-0.865 0.5c-0.247 0.135-0.548 0.056-0.687-0.184l-0.5-0.865c-0.139-0.24-0.056-0.545 0.184-0.684l0.865-0.5c0.06-0.035 0.125-0.056 0.189-0.064zm-14.1 0.5c0.064 8e-3 0.128 0.03 0.188 0.064l0.867 0.5-1.87 1.23c-0.24-0.139-0.32-0.444-0.182-0.684l0.5-0.865c0.104-0.18 0.301-0.272 0.494-0.248zm6.12 1.92h1.5l-2 2v-1.5c0-0.28 0.22-0.5 0.5-0.5" style="opacity:.1"/>
 <path d="m24 9a15 15 0 0 0-15 15 15 15 0 0 0 15 15 15 15 0 0 0 15-15 15 15 0 0 0-15-15zm-0.5 1h1c0.277 0 0.5 0.223 0.5 0.5v1c0 0.277-0.223 0.5-0.5 0.5h-1c-0.28 0-0.5-0.223-0.5-0.5v-1c0-0.277 0.22-0.5 0.5-0.5zm-5.88 1.56c0.193-0.025 0.389 0.066 0.499 0.246l0.495 0.865c0.139 0.24 0.058 0.545-0.181 0.683l-0.868 0.5c-0.239 0.139-0.546 0.057-0.681-0.183l-0.5-0.865c-0.139-0.24-0.058-0.545 0.181-0.679l0.868-0.505c0.06-0.035 0.123-0.054 0.187-0.062zm12.8 0c0.064 8e-3 0.127 0.027 0.187 0.062l0.868 0.505c0.239 0.134 0.32 0.439 0.181 0.679l-0.495 0.865c-0.143 0.24-0.447 0.322-0.686 0.183l-0.868-0.5c-0.239-0.138-0.316-0.443-0.181-0.683l0.5-0.865c0.104-0.18 0.305-0.271 0.494-0.246zm-17.8 4.76c0.065 8e-3 0.128 0.03 0.188 0.065l0.865 0.5c0.24 0.135 0.322 0.442 0.183 0.681l-0.5 0.868c-0.138 0.239-0.443 0.32-0.683 0.181l-0.865-0.495c-0.24-0.143-0.322-0.447-0.184-0.686l0.505-0.868c0.099-0.18 0.298-0.27 0.491-0.246zm22.8 0c0.192-0.024 0.391 0.066 0.495 0.246l0.505 0.868c0.134 0.239 0.051 0.543-0.19 0.686l-0.86 0.495c-0.24 0.139-0.549 0.058-0.687-0.181l-0.503-0.868c-0.14-0.239-0.05-0.546 0.19-0.681l0.86-0.5c0.06-0.035 0.12-0.057 0.19-0.065zm1.12 5.68h1c0.277 0 0.5 0.22 0.5 0.5v1c0 0.277-0.223 0.5-0.5 0.5h-1c-0.28 0-0.5-0.223-0.5-0.5v-1c0-0.28 0.22-0.5 0.5-0.5zm-26 1h1c0.277 0 0.5 0.22 0.5 0.5v1c0 0.277-0.223 0.5-0.5 0.5h-1c-0.277 0-0.5-0.223-0.5-0.5v-1c0-0.28 0.223-0.5 0.5-0.5zm25.1 5.46c0.064 8e-3 0.129 0.028 0.189 0.063l0.865 0.502c0.24 0.14 0.319 0.441 0.184 0.681l-0.495 0.865c-0.14 0.24-0.449 0.323-0.689 0.184l-0.865-0.5c-0.24-0.14-0.322-0.444-0.183-0.684l0.497-0.865c0.11-0.18 0.303-0.27 0.497-0.246zm-22.8 0.865c0.197-0.02 0.391 0.066 0.494 0.246l0.5 0.868c0.139 0.239 0.057 0.543-0.183 0.686l-0.865 0.495c-0.24 0.139-0.545 0.058-0.679-0.181l-0.505-0.868c-0.138-0.236-0.056-0.546 0.184-0.681l0.865-0.5c0.06-0.035 0.125-0.057 0.189-0.065zm18.6 4.26c0.194-0.024 0.391 0.068 0.494 0.248l0.5 0.865c0.139 0.24 0.057 0.549-0.182 0.689l-0.866 0.495c-0.244 0.135-0.545 0.056-0.684-0.184l-0.5-0.865c-0.14-0.24-0.06-0.546 0.184-0.686l0.866-0.497c0.059-0.035 0.124-0.057 0.188-0.065zm-14.1 0.502c0.064 0.01 0.127 0.03 0.187 0.06l0.868 0.503c0.239 0.138 0.32 0.447 0.181 0.687l-0.495 0.86c-0.143 0.241-0.447 0.324-0.686 0.19l-0.868-0.505c-0.239-0.138-0.32-0.444-0.181-0.685l0.5-0.86c0.104-0.18 0.305-0.28 0.494-0.25zm6.12 1.92h1c0.277 0 0.5 0.22 0.5 0.5v1c0 0.277-0.223 0.5-0.5 0.5h-1c-0.28 0-0.5-0.223-0.5-0.5v-1c0-0.28 0.22-0.5 0.5-0.5z" style="fill:#d4d4d4"/>
 <path d="m24 13a11 11 0 0 1 10.2 6.79 11 11 0 0 1-2.38 12 11 11 0 0 1-12 2.38 11 11 0 0 1-6.79-10.2h11" style="fill:#2a65a2"/>
</svg>
