<svg version="1.1" viewBox="0 0 48 48" xmlns="http://www.w3.org/2000/svg">
 <defs>
  <linearGradient id="bg" x2="0" y1="47" y2="1" gradientUnits="userSpaceOnUse">
   <stop style="stop-color:#316350" offset="0"/>
   <stop style="stop-color:#38715b" offset="1"/>
  </linearGradient>
 </defs>
 <path d="m36.31 5c5.859 4.062 9.688 10.831 9.688 18.5 0 12.426-10.07 22.5-22.5 22.5-7.669 0-14.438-3.828-18.5-9.688 1.037 1.822 2.306 3.499 3.781 4.969 4.085 3.712 9.514 5.969 15.469 5.969 12.703 0 23-10.298 23-23 0-5.954-2.256-11.384-5.969-15.469-1.469-1.475-3.147-2.744-4.969-3.781zm4.969 3.781c3.854 4.113 6.219 9.637 6.219 15.719 0 12.703-10.297 23-23 23-6.081 0-11.606-2.364-15.719-6.219 4.16 4.144 9.883 6.719 16.219 6.719 12.703 0 23-10.298 23-23 0-6.335-2.575-12.06-6.719-16.219z" style="opacity:.05"/>
 <path d="m41.28 8.781c3.712 4.085 5.969 9.514 5.969 15.469 0 12.703-10.297 23-23 23-5.954 0-11.384-2.256-15.469-5.969 4.113 3.854 9.637 6.219 15.719 6.219 12.703 0 23-10.298 23-23 0-6.081-2.364-11.606-6.219-15.719z" style="opacity:.1"/>
 <path d="m31.25 2.375c8.615 3.154 14.75 11.417 14.75 21.13 0 12.426-10.07 22.5-22.5 22.5-9.708 0-17.971-6.135-21.12-14.75a23 23 0 0 0 44.875-7 23 23 0 0 0-16-21.875z" style="opacity:.2"/>
 <path d="m24 1c-12.703 0-23 10.297-23 23 0 1.041 0.077 2.064 0.211 3.068l14.736 18.479c2.507 0.937 5.219 1.453 8.05 1.453 12.703 0 23-10.297 23-23s-10.297-23-23-23z" style="fill:url(#bg)"/>
 <path d="m32.19 9.984-6e-3 0.016c-0.067 0.02-0.107 0.111-0.107 0.268 0 0.148-0.043 0.297-0.094 0.328-0.051 0.035-0.09 0.203-0.09 0.383 0 0.324-0.027 0.347-0.48 0.449-0.242 0.055-0.254 0.082-0.25 0.59 4e-3 0.481 0.035 0.563 0.32 0.852 0.195 0.199 0.285 0.355 0.234 0.418-0.043 0.054-0.128 0.351-0.191 0.656-0.208 0.85-0.509 1.679-0.729 2.521 0 0.078-0.129 0.318-0.285 0.533-0.56 0.835-1.076 1.513-1.643 2.23-4e-3 -2.32-0.011-4.447-0.045-6.488-2.705-0.274-5.383-0.539-8.094-0.811-0.225 0.163-0.498 0.404-0.732 0.6-6.442 5.463-11.251 10.632-18.527 16.1 1.706 8.345 7.932 15.04 16.01 17.426 2.682-2.45 5.865-5.578 5.711-6.105-0.053-0.828-0.255-1.789-0.361-2.486 0-0.32 0.053-0.418 0.346-0.668 1.372-1.187 2.815-2.546 4.04-3.635 0.5-0.449 0.562-0.546 0.656-1.023 0.332-1.453 0.574-3.01 0.895-4.344 0.259-1.966 0.148-3.26 0.348-5.328 1.029-1.692 2.251-3.451 2.977-5.322 0.207-1.016 0.477-1.991 0.664-2.932 0.172-0.993 0.184-1.012 0.754-1.395l0.496-0.338v-1.465l-0.273-0.061c-0.152-0.035-0.277-0.098-0.277-0.137 0-0.043-0.09-0.102-0.203-0.129-0.223-0.059-0.547-0.285-0.789-0.551-0.111-0.123-0.204-0.174-0.27-0.154z" style="fill-opacity:.098"/>
 <path d="m19.73 10.922c-6.749 5.54-12.943 11.83-18.52 16.15 0.269 2.02 0.794 3.953 1.551 5.77 3.837-2.282 7.145-6.895 11.168-10.182 6.46-5.895 7.093-6.532 6.898-6.973z" style="fill:#e6c819"/>
 <path d="m20.857 16.07c-6.767 5.337-12.555 12.06-18.311 16.227 0.71 1.836 1.649 3.556 2.781 5.129 6.863-4.487 12.288-12.434 16.623-16.598z" style="fill:#eb9519"/>
 <path d="m22.02 21.16c-5.93 5.063-11.577 10.626-17.629 14.871 1.085 1.765 2.404 3.37 3.91 4.777 6.672-5.889 14.91-13.458 14.813-14.887" style="fill:#469c7c"/>
 <path d="m24.01 25.426-0.738 0.621c-4.277 3.685-10.217 9.651-15.512 14.242 1.25 1.246 2.644 2.346 4.152 3.279 1.494-1.682 2.941-3.3 3.238-3.58 0.598-0.566 1.973-1.84 3.059-2.828 6.46-5.895 7.093-6.532 6.898-6.973z" style="fill:#c65f6a"/>
 <path d="m24.793 30.918c-4.772 4.048-9.688 8.307-13.908 11.973 1.559 1.084 3.256 1.981 5.063 2.656 2.78-2.503 6.456-6.07 6.24-6.594-1.113-2.692-0.903-2.727 3.035-5.922z" style="fill:#522851"/>
 <g transform="translate(1,1)"></g>
 <path d="m21.508 38.84c-0.25-0.105-0.57-0.211-0.707-0.234-0.41-0.078-0.465-0.219-0.352-0.949 0.055-0.355 0.098-0.875 0.098-1.152 0-0.344 0.051-0.563 0.16-0.695 0.724-0.916 1.526-1.929 2.242-2.809 0.397-0.51 0.786-0.989 1.215-1.508 0.051-0.07 0.203-0.262 0.344-0.434 0.242-0.297 0.25-0.352 0.246-1.301-4e-3 -0.547-0.035-0.93-0.07-0.855-0.228 0.393-0.427 0.741-0.664 1.144-0.238 0.531-0.801 1.184-1.02 1.184-0.074 0-0.137 0.043-0.465 0.328-0.864 0.561-1.809 1.258-2.528 1.761l-1.465 1.023c0.04 0.458 0.14 0.922 0.223 1.352 0.105 0.441 0.172 1.023 0.145 1.227-0.012 0.066-0.156 0.023-1.137-0.324-0.34-0.121-0.656-0.262-0.703-0.309s-0.027-0.289 0.047-0.574c0.066-0.273 0.152-0.754 0.188-1.07l0.066-0.578 1.105-1.094c0.557-0.471 1.084-1.044 1.535-1.558 0.543-0.665 1.175-1.22 1.816-1.933 0.049-0.218 0.162-0.413 0.234-0.598 0.315-1.016 0.581-1.829 0.888-2.745 0.059-0.078 0.063-0.156 4e-3 -0.234-0.288-1.155-0.539-2.503-0.993-3.512-0.716 0.462-1.481 1.055-2.101 1.488-0.105 0-0.281 0.23-0.391 0.512-0.354 1.197-0.432 1.764-0.747 3.02-0.055 0.18-0.098 0.609-0.098 0.957 0 0.547-0.031 0.664-0.227 0.863-0.234 0.234-0.414 0.297-0.414 0.133 0-0.191-0.391-0.93-0.492-0.93-0.314 0.14-0.551 0.369-0.828 0.594-0.129 0.098-0.305 0.227-0.391 0.293-0.137 0.102-0.227 0.043-0.668-0.441-0.609-0.668-0.695-0.805-0.535-0.855 0.465-0.118 0.843-0.265 1.309-0.422 0.447-0.142 0.828-0.257 1.293-0.39 0.263-1.18 0.284-2.432 0.379-3.704l0.629-0.629c0.975-0.948 2.124-1.922 2.914-2.902-0.586-3.241-1.509-6.26-1.871-9.05 2.803 0.266 5.71 0.577 8.105 0.812 0.051 2.3 0.039 4.651 0.044 6.488 0.618-0.701 1.151-1.523 1.641-2.23 0.156-0.215 0.285-0.457 0.285-0.535 0.192-0.848 0.521-1.723 0.73-2.52 0.063-0.305 0.148-0.602 0.191-0.656 0.051-0.063-0.039-0.219-0.234-0.418-0.285-0.289-0.316-0.371-0.32-0.852-4e-3 -0.508 8e-3 -0.535 0.25-0.59 0.453-0.102 0.48-0.125 0.48-0.449 0-0.18 0.039-0.348 0.09-0.383 0.051-0.031 0.094-0.18 0.094-0.328 0-0.313 0.156-0.359 0.379-0.113 0.242 0.266 0.566 0.492 0.789 0.551 0.113 0.027 0.203 0.086 0.203 0.129 0 0.039 0.125 0.102 0.277 0.137l0.273 0.059v1.465l-0.496 0.336c-0.57 0.383-0.582 0.402-0.754 1.395-0.18 0.987-0.457 1.964-0.664 2.933-0.811 1.963-1.734 3.442-2.977 5.321-0.216 1.833-0.119 3.319-0.347 5.328-0.379 1.571-0.573 2.85-0.895 4.344-0.094 0.477-0.156 0.574-0.656 1.023-1.381 1.259-2.714 2.471-4.04 3.636-0.293 0.25-0.344 0.348-0.344 0.668 0 0.207 0.043 0.523 0.09 0.703 0.051 0.18 0.129 0.598 0.176 0.93s0.098 0.664 0.117 0.738c0.047 0.203-0.191 0.199-0.703-0.012" style="fill:#333"/>
 <path d="m26.932 12.896-1.98 0.059c-2.469 0.078-2.609 0.102-2.652 0.457 0.148 0.93 0.262 2.828 0.551 2.82l1.746-0.855c0.914-0.398 1.68-0.801 2.492-1.316-0.046-0.415-0.095-0.732-0.156-1.164z" style="fill:#f4e09f"/>
 <path d="m40.03 7.531c3.712 4.084 5.969 9.514 5.969 15.469 0 12.703-10.297 23-23 23-5.954 0-11.384-2.256-15.469-5.969 4.178 4.291 10.01 6.969 16.469 6.969 12.703 0 23-10.298 23-23 0-6.462-2.677-12.291-6.969-16.469z" style="opacity:.1"/>
</svg>
