<svg version="1.1" viewBox="0 0 48 48" xmlns="http://www.w3.org/2000/svg">
 <defs>
  <linearGradient id="bg" x2="0" y1="1" y2="47" gradientUnits="userSpaceOnUse">
   <stop style="stop-color:#e01f1f" offset="0"/>
   <stop style="stop-color:#cf1d1d" offset="1"/>
  </linearGradient>
 </defs>
 <path d="m36.3 5c5.86 4.06 9.69 10.8 9.69 18.5 0 12.4-10.1 22.5-22.5 22.5-7.67 0-14.4-3.83-18.5-9.69 1.04 1.82 2.31 3.5 3.78 4.97 4.08 3.71 9.51 5.97 15.5 5.97 12.7 0 23-10.3 23-23 0-5.95-2.26-11.4-5.97-15.5-1.47-1.48-3.15-2.74-4.97-3.78zm4.97 3.78c3.85 4.11 6.22 9.64 6.22 15.7 0 12.7-10.3 23-23 23-6.08 0-11.6-2.36-15.7-6.22 4.16 4.14 9.88 6.72 16.2 6.72 12.7 0 23-10.3 23-23 0-6.34-2.58-12.1-6.72-16.2z" style="opacity:.05"/>
 <path d="m41.3 8.78c3.71 4.08 5.97 9.51 5.97 15.5 0 12.7-10.3 23-23 23-5.95 0-11.4-2.26-15.5-5.97 4.11 3.85 9.64 6.22 15.7 6.22 12.7 0 23-10.3 23-23 0-6.08-2.36-11.6-6.22-15.7z" style="opacity:.1"/>
 <path d="m31.2 2.38c8.62 3.15 14.8 11.4 14.8 21.1 0 12.4-10.1 22.5-22.5 22.5-9.71 0-18-6.14-21.1-14.8a23 23 0 0 0 44.9-7 23 23 0 0 0-16-21.9z" style="opacity:.2"/>
 <path d="m24 1a23 23 0 0 0-5.14 0.641l-0.861 1.36-1.04-0.859a23 23 0 0 0-16 21.9 23 23 0 0 0 0.633 5.11l1.37 0.893-0.871 1.01a23 23 0 0 0 21.9 16 23 23 0 0 0 4.83-0.574l0.166-1.43 1.77 0.959c1.22e-4 6.99e-4 -1.22e-4 0.00126 0 0.00195a23 23 0 0 0 16.2-22 23 23 0 0 0-0.527-4.87c-0.00901 0.00137-0.0124 0.00254-0.0215 0.00391l-1.45-0.135s0.947-1.8 0.947-1.8c0.00652 9.86e-4 0.0169 9.7e-4 0.0234 0.00195a23 23 0 0 0-22-16.2z" style="fill:url(#bg)"/>
 <path d="m19.9 1.38a23 23 0 0 0-1.95 0.439l3.26 12.2c0.222 0.829 0.349 1.28-0.621 2.44-0.165 0.196-0.325 0.394-0.453 0.615-0.512 0.887-0.686 1.97-0.4 3.04 0.572 2.13 2.77 3.4 4.9 2.83s3.4-2.76 2.83-4.9c-0.286-1.07-0.979-1.92-1.87-2.43-0.222-0.128-0.458-0.217-0.699-0.305-1.42-0.516-1.54-0.974-1.76-1.8l-3.24-12.1zm26.4 16.8-10.3 2.75c-0.829 0.222-1.28 0.349-2.44-0.621-0.196-0.165-0.394-0.327-0.615-0.455-0.887-0.512-1.97-0.684-3.04-0.398-2.13 0.572-3.4 2.76-2.83 4.9 0.572 2.13 2.76 3.4 4.9 2.83 1.07-0.286 1.92-0.977 2.43-1.86 0.128-0.222 0.219-0.46 0.307-0.701 0.516-1.42 0.972-1.53 1.8-1.76l10.2-2.73a23 23 0 0 0-0.436-1.95zm-27.2 4.25c-0.265 0.0159-0.534 0.0594-0.801 0.131-1.07 0.286-1.92 0.977-2.43 1.86-0.128 0.222-0.219 0.46-0.307 0.701-0.516 1.42-0.972 1.53-1.8 1.76l-11.9 3.2a23 23 0 0 0 0.623 1.9l11.8-3.17c0.829-0.222 1.28-0.349 2.44 0.621 0.196 0.165 0.394 0.327 0.615 0.455 0.887 0.512 1.97 0.684 3.04 0.398 2.13-0.572 3.4-2.76 2.83-4.9-0.5-1.87-2.24-3.07-4.1-2.96zm7.35 4.24c-0.265 0.0159-0.532 0.0594-0.799 0.131-2.13 0.572-3.4 2.76-2.83 4.9 0.286 1.07 0.979 1.92 1.87 2.43 0.222 0.128 0.458 0.217 0.699 0.305 1.42 0.516 1.54 0.974 1.76 1.8l2.68 10a23 23 0 0 0 1.91-0.598l-2.66-9.94c-0.222-0.829-0.349-1.28 0.621-2.44 0.165-0.196 0.325-0.394 0.453-0.615 0.512-0.887 0.686-1.97 0.4-3.04-0.5-1.87-2.24-3.07-4.1-2.96z" style="opacity:.1"/>
 <path d="m18.9 1.61a23 23 0 0 0-1.93 0.529l2.99 11.2c0.222 0.829 0.349 1.28-0.621 2.44-0.165 0.196-0.325 0.394-0.453 0.615-0.512 0.887-0.686 1.97-0.4 3.04 0.572 2.13 2.76 3.4 4.9 2.83 2.13-0.572 3.4-2.76 2.83-4.9-0.286-1.07-0.979-1.92-1.87-2.43-0.222-0.128-0.458-0.217-0.699-0.305-1.42-0.516-1.54-0.974-1.76-1.8l-2.99-11.2zm27.1 15.6-11.2 3c-0.829 0.222-1.28 0.349-2.44-0.621-0.196-0.165-0.394-0.327-0.615-0.455-0.887-0.512-1.97-0.684-3.04-0.398-2.13 0.572-3.4 2.76-2.83 4.9 0.572 2.13 2.76 3.4 4.9 2.83 1.07-0.286 1.92-0.977 2.43-1.86 0.128-0.222 0.219-0.46 0.307-0.701 0.516-1.42 0.972-1.53 1.8-1.76l11.2-3a23 23 0 0 0-0.504-1.93zm-28.1 4.5c-0.265 0.0159-0.534 0.0594-0.801 0.131-1.07 0.286-1.92 0.977-2.43 1.86-0.128 0.222-0.219 0.46-0.307 0.701-0.516 1.42-0.972 1.53-1.8 1.76l-10.9 2.93a23 23 0 0 0 0.525 1.93l10.9-2.93c0.829-0.222 1.28-0.349 2.44 0.621 0.196 0.165 0.394 0.327 0.615 0.455 0.887 0.512 1.97 0.684 3.04 0.398 2.13-0.572 3.4-2.76 2.83-4.9-0.5-1.87-2.24-3.07-4.1-2.96zm7.35 4.24c-0.265 0.0159-0.534 0.0594-0.801 0.131-2.13 0.572-3.4 2.76-2.83 4.9 0.286 1.07 0.979 1.92 1.87 2.43 0.222 0.128 0.458 0.217 0.699 0.305 1.42 0.516 1.54 0.974 1.76 1.8l2.93 10.9a23 23 0 0 0 1.94-0.5l-2.94-11c-0.222-0.829-0.349-1.28 0.621-2.44 0.165-0.196 0.325-0.394 0.453-0.615 0.512-0.887 0.686-1.97 0.4-3.04-0.5-1.87-2.24-3.07-4.1-2.96z" style="fill:#f9f9f9"/>
 <path d="m40 7.53c3.71 4.08 5.97 9.51 5.97 15.5 0 12.7-10.3 23-23 23-5.95 0-11.4-2.26-15.5-5.97 4.18 4.29 10 6.97 16.5 6.97 12.7 0 23-10.3 23-23 0-6.46-2.68-12.3-6.97-16.5z" style="opacity:.1"/>
</svg>
