<svg version="1.1" viewBox="0 0 48 48" xmlns="http://www.w3.org/2000/svg">
 <defs>
  <linearGradient id="linearGradient3764" x1="1" x2="47" gradientTransform="matrix(0 -1 1 0 -1.5e-6 48)" gradientUnits="userSpaceOnUse">
   <stop style="stop-color:#ff8e29" offset="0"/>
   <stop style="stop-color:#ff993d" offset="1"/>
  </linearGradient>
 </defs>
 <path d="m36.31 5c5.859 4.062 9.688 10.831 9.688 18.5 0 12.426-10.07 22.5-22.5 22.5-7.669 0-14.438-3.828-18.5-9.688 1.037 1.822 2.306 3.499 3.781 4.969 4.085 3.712 9.514 5.969 15.469 5.969 12.703 0 23-10.298 23-23 0-5.954-2.256-11.384-5.969-15.469-1.469-1.475-3.147-2.744-4.969-3.781zm4.969 3.781c3.854 4.113 6.219 9.637 6.219 15.719 0 12.703-10.297 23-23 23-6.081 0-11.606-2.364-15.719-6.219 4.16 4.144 9.883 6.719 16.219 6.719 12.703 0 23-10.298 23-23 0-6.335-2.575-12.06-6.719-16.219z" style="opacity:.05"/>
 <path d="m41.28 8.781c3.712 4.085 5.969 9.514 5.969 15.469 0 12.703-10.297 23-23 23-5.954 0-11.384-2.256-15.469-5.969 4.113 3.854 9.637 6.219 15.719 6.219 12.703 0 23-10.298 23-23 0-6.081-2.364-11.606-6.219-15.719z" style="opacity:.1"/>
 <path d="m31.25 2.375c8.615 3.154 14.75 11.417 14.75 21.13 0 12.426-10.07 22.5-22.5 22.5-9.708 0-17.971-6.135-21.12-14.75a23 23 0 0 0 44.875-7 23 23 0 0 0-16-21.875z" style="opacity:.2"/>
 <path d="m24 1c12.703 0 23 10.297 23 23s-10.297 23-23 23-23-10.297-23-23 10.297-23 23-23z" style="fill:url(#linearGradient3764)"/>
 <path d="m40.03 7.531c3.712 4.084 5.969 9.514 5.969 15.469 0 12.703-10.297 23-23 23-5.954 0-11.384-2.256-15.469-5.969 4.178 4.291 10.01 6.969 16.469 6.969 12.703 0 23-10.298 23-23 0-6.462-2.677-12.291-6.969-16.469z" style="opacity:.1"/>
 <rect x="12" y="14" width="26" height="22" ry="1.5" style="opacity:.1"/>
 <path d="m12.469 13c-0.81999 0-1.4688 0.62526-1.4688 1.4062v7.5942l13 0.99953 13-0.99953v-7.5942c0-0.78199-0.64876-1.4062-1.4688-1.4062z" style="fill:#97b1b5;stroke-width:.99999"/>
 <path d="m13.5 14c-0.277 0-0.5 0.446-0.5 1v5c0 0.554 0.223 1 0.5 1s0.5-0.446 0.5-1v-5c0-0.554-0.223-1-0.5-1zm3 0c-0.277 0-0.5 0.446-0.5 1v5c0 0.554 0.223 1 0.5 1s0.5-0.446 0.5-1v-5c0-0.554-0.223-1-0.5-1zm3 0c-0.277 0-0.5 0.446-0.5 1v5c0 0.554 0.223 1 0.5 1s0.5-0.446 0.5-1v-5c0-0.554-0.223-1-0.5-1zm3 0c-0.277 0-0.5 0.446-0.5 1v5c0 0.554 0.223 1 0.5 1s0.5-0.446 0.5-1v-5c0-0.554-0.223-1-0.5-1z" style="fill-opacity:.758;fill:#6f6f6f"/>
 <path d="m13 15c-0.554 0-1 0.223-1 0.5s0.446 0.5 1 0.5h1c0.554 0 1-0.223 1-0.5s-0.446-0.5-1-0.5zm14 0c-0.55228 0-1 0.44772-1 1 0 0.10138 0.01882 0.19685 0.04687 0.28906l0.66406 0.66406c0.09222 0.02805 0.18768 0.04687 0.28907 0.04687 0.55228 0 1-0.44772 1-1s-0.44772-1-1-1zm3.5 0c-0.27614 0-0.5 0.22386-0.5 0.5s0.22386 0.5 0.5 0.5 0.5-0.22386 0.5-0.5-0.22386-0.5-0.5-0.5zm2 0c-0.27614 0-0.5 0.22386-0.5 0.5s0.22386 0.5 0.5 0.5 0.5-0.22386 0.5-0.5-0.22386-0.5-0.5-0.5zm2 0c-0.27614 0-0.5 0.22386-0.5 0.5s0.22386 0.5 0.5 0.5 0.5-0.22386 0.5-0.5-0.22386-0.5-0.5-0.5zm-12.5 2c-0.554 0-1 0.223-1 0.5s0.446 0.5 1 0.5h1c0.554 0 1-0.223 1-0.5s-0.446-0.5-1-0.5zm8.5 0c-0.27614 0-0.5 0.22386-0.5 0.5s0.22386 0.5 0.5 0.5 0.5-0.22386 0.5-0.5-0.22386-0.5-0.5-0.5zm2 0c-0.27614 0-0.5 0.22386-0.5 0.5s0.22386 0.5 0.5 0.5 0.5-0.22386 0.5-0.5-0.22386-0.5-0.5-0.5zm2 0c-0.27614 0-0.5 0.22386-0.5 0.5s0.22386 0.5 0.5 0.5 0.5-0.22386 0.5-0.5-0.22386-0.5-0.5-0.5zm-7.5 1c-0.55228 0-1 0.44772-1 1s0.44772 1 1 1 1-0.44772 1-1c0-0.10138-0.01882-0.19685-0.04687-0.28906l-0.66407-0.66406c-0.09221-0.02805-0.18768-0.04687-0.28906-0.04687zm-11 1c-0.554 0-1 0.223-1 0.5s0.446 0.5 1 0.5h1c0.554 0 1-0.223 1-0.5s-0.446-0.5-1-0.5zm14.5 0c-0.27614 0-0.5 0.22386-0.5 0.5s0.22386 0.5 0.5 0.5 0.5-0.22386 0.5-0.5-0.22386-0.5-0.5-0.5zm2 0c-0.27614 0-0.5 0.22386-0.5 0.5s0.22386 0.5 0.5 0.5 0.5-0.22386 0.5-0.5-0.22386-0.5-0.5-0.5zm2 0c-0.27614 0-0.5 0.22386-0.5 0.5s0.22386 0.5 0.5 0.5 0.5-0.22386 0.5-0.5-0.22386-0.5-0.5-0.5zm-15.5 1c-0.554 0-1 0.223-1 0.5s0.446 0.5 1 0.5h1c0.554 0 1-0.223 1-0.5s-0.446-0.5-1-0.5z" style="fill:#3c3c3c"/>
 <path d="m11 22.001v11.594c0 0.782 0.649 1.406 1.469 1.406h23.06c0.82 0 1.469-0.625 1.469-1.406v-11.594z" style="fill:#64767a"/>
 <path d="m11 22.001v2.9995h26v-2.9995z" style="opacity:.1"/>
 <path d="m26.5 16a0.5 0.5 0 0 0-0.45312 0.28906c0.09671 0.3179 0.34616 0.56736 0.66406 0.66406a0.5 0.5 0 0 0 0.28906-0.45312 0.5 0.5 0 0 0-0.5-0.5zm0.78906 2.0469a0.5 0.5 0 0 0-0.28906 0.45312 0.5 0.5 0 0 0 0.5 0.5 0.5 0.5 0 0 0 0.45312-0.28906c-0.09671-0.3179-0.34616-0.56736-0.66406-0.66406z" style="fill:#515151"/>
 <path d="m12 24v8c0 0.554 0.446 1 1 1h1c0.554 0 1-0.446 1-1 0 0.554 0.446 1 1 1h1c0.554 0 1-0.446 1-1 0 0.554 0.446 1 1 1h1c0.554 0 1-0.446 1-1 0 0.554 0.446 1 1 1h1c0.554 0 1-0.446 1-1 0 0.554 0.446 1 1 1h1c0.554 0 1-0.446 1-1 0 0.554 0.446 1 1 1h1c0.554 0 1-0.446 1-1 0 0.554 0.446 1 1 1h1c0.554 0 1-0.446 1-1 0 0.554 0.446 1 1 1h1c0.554 0 1-0.446 1-1v-8z" style="fill:#f5f5f5"/>
 <path d="m15 24v5.5c0 0.277 0.223 0.5 0.5 0.5h1c0.277 0 0.5-0.223 0.5-0.5v-5.5zm3 0v5.5c0 0.277 0.223 0.5 0.5 0.5h1c0.277 0 0.5-0.223 0.5-0.5v-5.5zm6 0v5.5c0 0.277 0.223 0.5 0.5 0.5h1c0.277 0 0.5-0.223 0.5-0.5v-5.5zm3 0v5.5c0 0.277 0.223 0.5 0.5 0.5h1c0.277 0 0.5-0.223 0.5-0.5v-5.5zm3 0v5.5c0 0.277 0.223 0.5 0.5 0.5h1c0.277 0 0.5-0.223 0.5-0.5v-5.5z" style="opacity:.1"/>
 <path d="m14 23v5.5c0 0.277 0.223 0.5 0.5 0.5h1c0.277 0 0.5-0.223 0.5-0.5v-5.5zm3 0v5.5c0 0.277 0.223 0.5 0.5 0.5h1c0.277 0 0.5-0.223 0.5-0.5v-5.5zm6 0v5.5c0 0.277 0.223 0.5 0.5 0.5h1c0.277 0 0.5-0.223 0.5-0.5v-5.5zm3 0v5.5c0 0.277 0.223 0.5 0.5 0.5h1c0.277 0 0.5-0.223 0.5-0.5v-5.5zm3 0v5.5c0 0.277 0.223 0.5 0.5 0.5h1c0.277 0 0.5-0.223 0.5-0.5v-5.5z" style="fill:#3d3d3d"/>
</svg>
