<svg version="1.1" viewBox="0 0 48 48" xmlns="http://www.w3.org/2000/svg">
 <defs>
  <linearGradient id="bg" x1="1" x2="47" gradientTransform="matrix(0 -1 1 0 -1.5e-6 48)" gradientUnits="userSpaceOnUse">
   <stop style="stop-color:#ff8e29" offset="0"/>
   <stop style="stop-color:#ff993d" offset="1"/>
  </linearGradient>
 </defs>
 <path d="m36.3 5c5.86 4.06 9.69 10.8 9.69 18.5 0 12.4-10.1 22.5-22.5 22.5-7.67 0-14.4-3.83-18.5-9.69 1.04 1.82 2.31 3.5 3.78 4.97 4.08 3.71 9.51 5.97 15.5 5.97 12.7 0 23-10.3 23-23 0-5.95-2.26-11.4-5.97-15.5-1.47-1.48-3.15-2.74-4.97-3.78zm4.97 3.78c3.85 4.11 6.22 9.64 6.22 15.7 0 12.7-10.3 23-23 23-6.08 0-11.6-2.36-15.7-6.22 4.16 4.14 9.88 6.72 16.2 6.72 12.7 0 23-10.3 23-23 0-6.34-2.58-12.1-6.72-16.2z" style="opacity:.05"/>
 <path d="m41.3 8.78c3.71 4.08 5.97 9.51 5.97 15.5 0 12.7-10.3 23-23 23-5.95 0-11.4-2.26-15.5-5.97 4.11 3.85 9.64 6.22 15.7 6.22 12.7 0 23-10.3 23-23 0-6.08-2.36-11.6-6.22-15.7z" style="opacity:.1"/>
 <path d="m31.2 2.38c8.62 3.15 14.8 11.4 14.8 21.1 0 12.4-10.1 22.5-22.5 22.5-9.71 0-18-6.14-21.1-14.8a23 23 0 0 0 44.9-7 23 23 0 0 0-16-21.9z" style="opacity:.2"/>
 <path d="m24 1c12.7 0 23 10.3 23 23s-10.3 23-23 23-23-10.3-23-23 10.3-23 23-23z" style="fill:url(#bg)"/>
 <path d="m40 7.53c3.71 4.08 5.97 9.51 5.97 15.5 0 12.7-10.3 23-23 23-5.95 0-11.4-2.26-15.5-5.97 4.18 4.29 10 6.97 16.5 6.97 12.7 0 23-10.3 23-23 0-6.46-2.68-12.3-6.97-16.5z" style="opacity:.1"/>
 <rect x="12" y="14" width="26" height="22" ry="1.5" style="opacity:.1"/>
 <path d="m12.5 13c-0.82 0-1.47 0.625-1.47 1.41v7.59l13 1 13-1v-7.59c0-0.782-0.649-1.41-1.47-1.41z" style="fill:#97b1b5"/>
 <path d="m13.5 14c-0.277 0-0.5 0.446-0.5 1v5c0 0.554 0.223 1 0.5 1s0.5-0.446 0.5-1v-5c0-0.554-0.223-1-0.5-1zm3 0c-0.277 0-0.5 0.446-0.5 1v5c0 0.554 0.223 1 0.5 1s0.5-0.446 0.5-1v-5c0-0.554-0.223-1-0.5-1zm3 0c-0.277 0-0.5 0.446-0.5 1v5c0 0.554 0.223 1 0.5 1s0.5-0.446 0.5-1v-5c0-0.554-0.223-1-0.5-1zm3 0c-0.277 0-0.5 0.446-0.5 1v5c0 0.554 0.223 1 0.5 1s0.5-0.446 0.5-1v-5c0-0.554-0.223-1-0.5-1z" style="opacity:.75;fill:#6f6f6f"/>
 <path d="m13 15c-0.554 0-1 0.223-1 0.5s0.446 0.5 1 0.5h1c0.554 0 1-0.223 1-0.5s-0.446-0.5-1-0.5zm14 0c-0.552 0-1 0.448-1 1 0 0.101 0.0188 0.197 0.0469 0.289l0.664 0.664c0.0922 0.028 0.188 0.0469 0.289 0.0469 0.552 0 1-0.448 1-1s-0.448-1-1-1zm3.5 0c-0.276 0-0.5 0.224-0.5 0.5s0.224 0.5 0.5 0.5 0.5-0.224 0.5-0.5-0.224-0.5-0.5-0.5zm2 0c-0.276 0-0.5 0.224-0.5 0.5s0.224 0.5 0.5 0.5 0.5-0.224 0.5-0.5-0.224-0.5-0.5-0.5zm2 0c-0.276 0-0.5 0.224-0.5 0.5s0.224 0.5 0.5 0.5 0.5-0.224 0.5-0.5-0.224-0.5-0.5-0.5zm-12.5 2c-0.554 0-1 0.223-1 0.5s0.446 0.5 1 0.5h1c0.554 0 1-0.223 1-0.5s-0.446-0.5-1-0.5zm8.5 0c-0.276 0-0.5 0.224-0.5 0.5s0.224 0.5 0.5 0.5 0.5-0.224 0.5-0.5-0.224-0.5-0.5-0.5zm2 0c-0.276 0-0.5 0.224-0.5 0.5s0.224 0.5 0.5 0.5 0.5-0.224 0.5-0.5-0.224-0.5-0.5-0.5zm2 0c-0.276 0-0.5 0.224-0.5 0.5s0.224 0.5 0.5 0.5 0.5-0.224 0.5-0.5-0.224-0.5-0.5-0.5zm-7.5 1c-0.552 0-1 0.448-1 1s0.448 1 1 1 1-0.448 1-1c0-0.101-0.0188-0.197-0.0469-0.289l-0.664-0.664c-0.0922-0.028-0.188-0.0469-0.289-0.0469zm-11 1c-0.554 0-1 0.223-1 0.5s0.446 0.5 1 0.5h1c0.554 0 1-0.223 1-0.5s-0.446-0.5-1-0.5zm14.5 0c-0.276 0-0.5 0.224-0.5 0.5s0.224 0.5 0.5 0.5 0.5-0.224 0.5-0.5-0.224-0.5-0.5-0.5zm2 0c-0.276 0-0.5 0.224-0.5 0.5s0.224 0.5 0.5 0.5 0.5-0.224 0.5-0.5-0.224-0.5-0.5-0.5zm2 0c-0.276 0-0.5 0.224-0.5 0.5s0.224 0.5 0.5 0.5 0.5-0.224 0.5-0.5-0.224-0.5-0.5-0.5zm-15.5 1c-0.554 0-1 0.223-1 0.5s0.446 0.5 1 0.5h1c0.554 0 1-0.223 1-0.5s-0.446-0.5-1-0.5z" style="fill:#474747"/>
 <path d="m11 22v11.6c0 0.782 0.649 1.41 1.47 1.41h23.1c0.82 0 1.47-0.625 1.47-1.41v-11.6z" style="fill:#64767a"/>
 <path d="m11 22v3h26v-3z" style="opacity:.1"/>
 <path d="m26.5 16a0.5 0.5 0 0 0-0.453 0.289c0.0967 0.318 0.346 0.567 0.664 0.664a0.5 0.5 0 0 0 0.289-0.453 0.5 0.5 0 0 0-0.5-0.5zm0.789 2.05a0.5 0.5 0 0 0-0.289 0.453 0.5 0.5 0 0 0 0.5 0.5 0.5 0.5 0 0 0 0.453-0.289c-0.0967-0.318-0.346-0.567-0.664-0.664z" style="fill:#515151"/>
 <path d="m12 24v8c0 0.554 0.446 1 1 1h1c0.554 0 1-0.446 1-1 0 0.554 0.446 1 1 1h1c0.554 0 1-0.446 1-1 0 0.554 0.446 1 1 1h1c0.554 0 1-0.446 1-1 0 0.554 0.446 1 1 1h1c0.554 0 1-0.446 1-1 0 0.554 0.446 1 1 1h1c0.554 0 1-0.446 1-1 0 0.554 0.446 1 1 1h1c0.554 0 1-0.446 1-1 0 0.554 0.446 1 1 1h1c0.554 0 1-0.446 1-1 0 0.554 0.446 1 1 1h1c0.554 0 1-0.446 1-1v-8z" style="fill:#f5f5f5"/>
 <path d="m15 24v5.5c0 0.277 0.223 0.5 0.5 0.5h1c0.277 0 0.5-0.223 0.5-0.5v-5.5zm3 0v5.5c0 0.277 0.223 0.5 0.5 0.5h1c0.277 0 0.5-0.223 0.5-0.5v-5.5zm6 0v5.5c0 0.277 0.223 0.5 0.5 0.5h1c0.277 0 0.5-0.223 0.5-0.5v-5.5zm3 0v5.5c0 0.277 0.223 0.5 0.5 0.5h1c0.277 0 0.5-0.223 0.5-0.5v-5.5zm3 0v5.5c0 0.277 0.223 0.5 0.5 0.5h1c0.277 0 0.5-0.223 0.5-0.5v-5.5z" style="opacity:.1"/>
 <path d="m14 23v5.5c0 0.277 0.223 0.5 0.5 0.5h1c0.277 0 0.5-0.223 0.5-0.5v-5.5zm3 0v5.5c0 0.277 0.223 0.5 0.5 0.5h1c0.277 0 0.5-0.223 0.5-0.5v-5.5zm6 0v5.5c0 0.277 0.223 0.5 0.5 0.5h1c0.277 0 0.5-0.223 0.5-0.5v-5.5zm3 0v5.5c0 0.277 0.223 0.5 0.5 0.5h1c0.277 0 0.5-0.223 0.5-0.5v-5.5zm3 0v5.5c0 0.277 0.223 0.5 0.5 0.5h1c0.277 0 0.5-0.223 0.5-0.5v-5.5z" style="fill:#474747"/>
</svg>
