<svg version="1.1" viewBox="0 0 48 48" xmlns="http://www.w3.org/2000/svg">
 <defs>
  <linearGradient id="linearGradient3764" x1="1" x2="47" gradientTransform="matrix(0 -1 1 0 -1.5e-6 48)" gradientUnits="userSpaceOnUse">
   <stop style="stop-color:#202028" offset="0"/>
   <stop style="stop-color:#292933" offset="1"/>
  </linearGradient>
 </defs>
 <path d="m36.31 5c5.859 4.062 9.688 10.831 9.688 18.5 0 12.426-10.07 22.5-22.5 22.5-7.669 0-14.438-3.828-18.5-9.688 1.037 1.822 2.306 3.499 3.781 4.969 4.085 3.712 9.514 5.969 15.469 5.969 12.703 0 23-10.298 23-23 0-5.954-2.256-11.384-5.969-15.469-1.469-1.475-3.147-2.744-4.969-3.781zm4.969 3.781c3.854 4.113 6.219 9.637 6.219 15.719 0 12.703-10.297 23-23 23-6.081 0-11.606-2.364-15.719-6.219 4.16 4.144 9.883 6.719 16.219 6.719 12.703 0 23-10.298 23-23 0-6.335-2.575-12.06-6.719-16.219z" style="opacity:.05"/>
 <path d="m41.28 8.781c3.712 4.085 5.969 9.514 5.969 15.469 0 12.703-10.297 23-23 23-5.954 0-11.384-2.256-15.469-5.969 4.113 3.854 9.637 6.219 15.719 6.219 12.703 0 23-10.298 23-23 0-6.081-2.364-11.606-6.219-15.719z" style="opacity:.1"/>
 <path d="m31.25 2.375c8.615 3.154 14.75 11.417 14.75 21.13 0 12.426-10.07 22.5-22.5 22.5-9.708 0-17.971-6.135-21.12-14.75a23 23 0 0 0 44.875 -7 23 23 0 0 0 -16 -21.875z" style="opacity:.2"/>
 <path d="m24 1c12.703 0 23 10.297 23 23s-10.297 23-23 23-23-10.297-23-23 10.297-23 23-23z" style="fill:url(#linearGradient3764)"/>
 <path d="m40.03 7.531c3.712 4.084 5.969 9.514 5.969 15.469 0 12.703-10.297 23-23 23-5.954 0-11.384-2.256-15.469-5.969 4.178 4.291 10.01 6.969 16.469 6.969 12.703 0 23-10.298 23-23 0-6.462-2.677-12.291-6.969-16.469z" style="opacity:.1"/>
 <path d="m25 10.006v0.0078l-13 7.9941v14l13 7.9922 13-7.9922c-0.0017-0.0039-0.0042-0.0078-0.0059-0.01172l0.0059 0.003908v-14zm0.0059 3.498 9.9941 6.2461v10.5l0.02734 0.01563c-0.0098-0.0025-0.01746-0.0053-0.02734-0.0078l-10 6.25-10-6.25v-10.5l10-6.25c0.0022-0.0015 0.0036-0.0024 0.0059-0.0039zm3.9941 5.4961c-1.1046 0-2 0.89543-2 2v1h-1v1h1v6h-1v1h3v-1h-1v-6h2v-1h-2v-1c0-0.55228 0.44772-1 1-1h1v-1zm-7 3c-2.1667 0-3 1-3 2s0.45559 1.3966 1.0137 1.75 1.2643 0.48687 1.8418 0.75c1.1445 0.52148 1.6445 0.5 1.6445 1.5 0 0.64125-0.66667 1-2.5 1h-1v-1h-1v2h3c2.1667 0 3-1 3-2s-0.45559-1.3966-1.0137-1.75-1.248-0.47945-1.8418-0.75c-1.1445-0.52148-1.7441-0.7-1.7441-1.5 0-1 0.76628-1 2.5996-1v1h1v-2z" style="color-rendering:auto;color:#000000;dominant-baseline:auto;fill-rule:evenodd;fill:#0b0b0b;font-feature-settings:normal;font-variant-alternates:normal;font-variant-caps:normal;font-variant-ligatures:normal;font-variant-numeric:normal;font-variant-position:normal;image-rendering:auto;isolation:auto;mix-blend-mode:normal;opacity:.1;shape-padding:0;shape-rendering:auto;solid-color:#000000;text-decoration-color:#000000;text-decoration-line:none;text-decoration-style:solid;text-indent:0;text-orientation:mixed;text-transform:none;white-space:normal"/>
 <path d="m24 9.0137-13 7.9941v14l13 7.9922 13-7.9922c-0.33144-0.78253-1.4087-1.3428-3-1.75l-10 6.25-10-6.25v-10.5l10-6.25c1.8759-1.282 0.66215-2.3708 0-3.4941z" style="color-rendering:auto;color:#000000;dominant-baseline:auto;fill-rule:evenodd;fill:#65a7bb;font-feature-settings:normal;font-variant-alternates:normal;font-variant-caps:normal;font-variant-ligatures:normal;font-variant-numeric:normal;font-variant-position:normal;image-rendering:auto;isolation:auto;mix-blend-mode:normal;shape-padding:0;shape-rendering:auto;solid-color:#000000;text-decoration-color:#000000;text-decoration-line:none;text-decoration-style:solid;text-indent:0;text-orientation:mixed;text-transform:none;white-space:normal"/>
 <path d="m28 18c-1.1046 0-2 0.89543-2 2v1h-1v1h1v6h-1v1h3v-1h-1v-6h2v-1h-2v-1c0-0.55228 0.44772-1 1-1h1v-1z" style="fill:#c5a644"/>
 <path d="m21 21c-2.1667 0-3 1-3 2s0.45559 1.3966 1.0137 1.75 1.2643 0.48687 1.8418 0.75c1.1445 0.52148 1.6445 0.5 1.6445 1.5 0 0.64125-0.66667 1-2.5 1h-1v-1h-1v2h3c2.1667 0 3-1 3-2s-0.45559-1.3966-1.0137-1.75-1.248-0.47945-1.8418-0.75c-1.1445-0.52148-1.7445-0.7-1.7445-1.5 0-1 0.76667-1 2.6-1v1h1v-2z" style="color-rendering:auto;color:#000000;dominant-baseline:auto;fill-rule:evenodd;fill:#65a7bb;font-feature-settings:normal;font-variant-alternates:normal;font-variant-caps:normal;font-variant-ligatures:normal;font-variant-numeric:normal;font-variant-position:normal;image-rendering:auto;isolation:auto;mix-blend-mode:normal;shape-padding:0;shape-rendering:auto;solid-color:#000000;text-decoration-color:#000000;text-decoration-line:none;text-decoration-style:solid;text-indent:0;text-orientation:mixed;text-transform:none;white-space:normal"/>
 <path d="m24 9.0059v3.4941l10 6.25v10.5l3 1.75v-14z" style="color-rendering:auto;color:#000000;dominant-baseline:auto;fill-rule:evenodd;fill:#c5a644;font-feature-settings:normal;font-variant-alternates:normal;font-variant-caps:normal;font-variant-ligatures:normal;font-variant-numeric:normal;font-variant-position:normal;image-rendering:auto;isolation:auto;mix-blend-mode:normal;shape-padding:0;shape-rendering:auto;solid-color:#000000;text-decoration-color:#000000;text-decoration-line:none;text-decoration-style:solid;text-indent:0;text-orientation:mixed;text-transform:none;white-space:normal"/>
</svg>
