<svg version="1.1" viewBox="0 0 48 48" xmlns="http://www.w3.org/2000/svg">
 <defs>
  <linearGradient id="bg" x2="0" y1="1" y2="47" gradientUnits="userSpaceOnUse">
   <stop style="stop-color:#ec5050" offset="0"/>
   <stop style="stop-color:#ea4040" offset="1"/>
  </linearGradient>
 </defs>
 <path d="m36.31 5c5.859 4.062 9.688 10.831 9.688 18.5 0 12.426-10.07 22.5-22.5 22.5-7.669 0-14.438-3.828-18.5-9.688 1.037 1.822 2.306 3.499 3.781 4.969 4.085 3.712 9.514 5.969 15.469 5.969 12.703 0 23-10.298 23-23 0-5.954-2.256-11.384-5.969-15.469-1.469-1.475-3.147-2.744-4.969-3.781zm4.969 3.781c3.854 4.113 6.219 9.637 6.219 15.719 0 12.703-10.297 23-23 23-6.081 0-11.606-2.364-15.719-6.219 4.16 4.144 9.883 6.719 16.219 6.719 12.703 0 23-10.298 23-23 0-6.335-2.575-12.06-6.719-16.219z" style="opacity:.05"/>
 <path d="m41.28 8.781c3.712 4.085 5.969 9.514 5.969 15.469 0 12.703-10.297 23-23 23-5.954 0-11.384-2.256-15.469-5.969 4.113 3.854 9.637 6.219 15.719 6.219 12.703 0 23-10.298 23-23 0-6.081-2.364-11.606-6.219-15.719z" style="opacity:.1"/>
 <path d="m31.25 2.375c8.615 3.154 14.75 11.417 14.75 21.13 0 12.426-10.07 22.5-22.5 22.5-9.708 0-17.971-6.135-21.12-14.75a23 23 0 0 0 44.875-7 23 23 0 0 0-16-21.875z" style="opacity:.2"/>
 <circle cx="24" cy="24" r="23" style="fill:url(#bg)"/>
 <path d="m40.03 7.531c3.712 4.084 5.969 9.514 5.969 15.469 0 12.703-10.297 23-23 23-5.954 0-11.384-2.256-15.469-5.969 4.178 4.291 10.01 6.969 16.469 6.969 12.703 0 23-10.298 23-23 0-6.462-2.677-12.291-6.969-16.469z" style="opacity:.1"/>
 <path d="m14 18v7l-3 3c0 2 4 5 5.5 5h17c1.5 0 5.5-3 5.5-5 0-1.662-1.338-3-3-3l-9.5-1 1.5-2h6.5l1.5 0.5h2.5c0.277 0 0.5-0.223 0.5-0.5v-2c0-0.277-0.223-0.5-0.5-0.5h-2.5l-13-0.5-1-2zm-0.55664 12h1.5566c0 1.0661 0.83351 1.9386 1.8848 1.998-0.45893-0.01697-0.90317-0.13811-1.377-0.41211-0.51313-0.2968-1.1108-0.7327-1.6602-1.2148-0.13806-0.12117-0.27394-0.24543-0.4043-0.37109zm5.5566 0c0 1.1046 0.89543 2 2 2s2-0.89543 2-2c0 1.1046 0.89543 2 2 2s2-0.89543 2-2c0 1.1046 0.89543 2 2 2s2-0.89543 2-2c0 1.1046 0.89543 2 2 2h-16c1.1046 0 2-0.89543 2-2zm16 0h1.5566c-0.13035 0.12566-0.26624 0.24992-0.4043 0.37109-0.54938 0.48218-1.147 0.91809-1.6602 1.2148-0.47373 0.274-0.91797 0.39514-1.377 0.41211 1.0512-0.05941 1.8848-0.93201 1.8848-1.998z" style="opacity:.1"/>
 <path d="m13 17-1 4 1 3c-1.662 0-3 1.338-3 3 0 2 4 5 5.5 5h17c1.5 0 5.5-3 5.5-5 0-1.662-1.338-3-3-3l-4-1h-5.5l1.5-2h6.5l1.5 0.5h2.5c0.277 0 0.5-0.223 0.5-0.5v-2c0-0.277-0.223-0.5-0.5-0.5h-2.5l-1.5 0.5h-8l-1-1h-2.5l-1-2zm-0.55664 12h1.5566c0 1.0661 0.83351 1.9386 1.8848 1.998-0.45893-0.01697-0.90317-0.13811-1.377-0.41211-0.51313-0.2968-1.1108-0.7327-1.6602-1.2148-0.13806-0.12117-0.27394-0.24543-0.4043-0.37109zm5.5566 0c0 1.1046 0.89543 2 2 2s2-0.89543 2-2c0 1.1046 0.89543 2 2 2s2-0.89543 2-2c0 1.1046 0.89543 2 2 2s2-0.89543 2-2c0 1.1046 0.89543 2 2 2h-16c1.1046 0 2-0.89543 2-2zm16 0h1.5566c-0.13035 0.12566-0.26624 0.24992-0.4043 0.37109-0.54938 0.48218-1.147 0.91809-1.6602 1.2148-0.47373 0.274-0.91797 0.39514-1.377 0.41211 1.0512-0.05941 1.8848-0.93201 1.8848-1.998z" style="fill:#3d3d48"/>
</svg>
