<svg version="1.1" viewBox="0 0 48 48" xmlns="http://www.w3.org/2000/svg">
 <defs>
  <linearGradient id="bg" x2="0" y1="47" y2="1" gradientUnits="userSpaceOnUse">
   <stop style="stop-color:#e93535" offset="0"/>
   <stop style="stop-color:#eb4747" offset="1"/>
  </linearGradient>
 </defs>
 <path d="m36.31 5c5.859 4.062 9.688 10.831 9.688 18.5 0 12.426-10.07 22.5-22.5 22.5-7.669 0-14.438-3.828-18.5-9.688 1.037 1.822 2.306 3.499 3.781 4.969 4.085 3.712 9.514 5.969 15.469 5.969 12.703 0 23-10.298 23-23 0-5.954-2.256-11.384-5.969-15.469-1.469-1.475-3.147-2.744-4.969-3.781zm4.969 3.781c3.854 4.113 6.219 9.637 6.219 15.719 0 12.703-10.297 23-23 23-6.081 0-11.606-2.364-15.719-6.219 4.16 4.144 9.883 6.719 16.219 6.719 12.703 0 23-10.298 23-23 0-6.335-2.575-12.06-6.719-16.219z" style="opacity:.05"/>
 <path d="m41.28 8.781c3.712 4.085 5.969 9.514 5.969 15.469 0 12.703-10.297 23-23 23-5.954 0-11.384-2.256-15.469-5.969 4.113 3.854 9.637 6.219 15.719 6.219 12.703 0 23-10.298 23-23 0-6.081-2.364-11.606-6.219-15.719z" style="opacity:.1"/>
 <path d="m31.25 2.375c8.615 3.154 14.75 11.417 14.75 21.13 0 12.426-10.07 22.5-22.5 22.5-9.708 0-17.971-6.135-21.12-14.75a23 23 0 0 0 44.875-7 23 23 0 0 0-16-21.875z" style="opacity:.2"/>
 <path d="m24 1c12.703 0 23 10.297 23 23s-10.297 23-23 23-23-10.297-23-23 10.297-23 23-23z" style="fill:url(#bg)"/>
 <path d="m40.03 7.531c3.712 4.084 5.969 9.514 5.969 15.469 0 12.703-10.297 23-23 23-5.954 0-11.384-2.256-15.469-5.969 4.178 4.291 10.01 6.969 16.469 6.969 12.703 0 23-10.298 23-23 0-6.462-2.677-12.291-6.969-16.469z" style="opacity:.1"/>
 <g transform="matrix(3.5433 0 0 3.5433 .0015751 -.0037994)">
  <path d="m6.852 5.831-0.147-6e-3 -0.415 0.231-0.317-0.348-2.457 0.277-0.13 0.974h0.117l0.084 0.236h0.122s0.064 0.263 0.136 0.497c-0.305 0.151-0.348 0.277-0.289 0.577 0.115 0.582 0.933 1.327 1.241 1.327h4.854c0.605 0 0.971-0.724 1.057-1.098 0.026-0.113 0.023-0.212 7e-3 -0.32-0.015-0.108-0.1-0.23-0.159-0.28-0.178-0.147-0.259-0.157-0.715-0.157-0.158-0.148-0.681-0.525-0.681-0.525l-2.382-0.126 0.113-0.261-0.25-0.311 0.321-0.264 0.054-0.136 2.164-1.544 0.181-0.019 0.416-0.329-0.215-0.273-0.453 0.28-0.063 0.171zm-2.38 3.269c0.02 0.078 0.047 0.132 0.084 0.206-0.101-0.072-0.199-0.144-0.298-0.224m5.949 0.038c-0.085 0.097-0.191 0.17-0.353 0.261 0.094-0.106 0.103-0.175 0.115-0.261m-3.62 0.168c0.046 0.079 0.043 0.134 0.118 0.194-0.119 0-0.237 0-0.356-2e-3 0.075-0.052 0.142-0.119 0.19-0.192m0.966 3e-3c0.053 0.083 0.067 0.138 0.134 0.187-0.088 0-0.204 3e-3 -0.352 4e-3 0.067-0.053 0.125-0.117 0.169-0.191m-1.8 0c0.099 0.128 0.083 0.141 0.138 0.19-0.119 0-0.238 0-0.357 2e-3 0.12-0.1 0.126-0.127 0.169-0.192m3.74 2e-3c0.039 0.088 0.057 0.122 0.131 0.19-0.12 3e-3 -0.204 0-0.324 0 0.081-0.069 0.117-0.129 0.153-0.19m-1.093 0.19c0.066-0.056 0.108-0.11 0.153-0.194h0.039c0.055 0.115 0.112 0.162 0.149 0.194" style="opacity:.1"/>
  <path d="m6.57 5.549-0.147-6e-3 -0.415 0.231-0.317-0.348-2.457 0.277-0.13 0.974h0.117l0.084 0.236h0.122s0.064 0.263 0.136 0.497c-0.305 0.151-0.348 0.277-0.289 0.577 0.115 0.582 0.933 1.327 1.241 1.327h4.854c0.605 0 0.971-0.724 1.057-1.098 0.026-0.113 0.023-0.212 7e-3 -0.32-0.015-0.108-0.1-0.23-0.159-0.28-0.178-0.147-0.259-0.157-0.715-0.157-0.158-0.148-0.681-0.525-0.681-0.525l-2.382-0.126 0.113-0.261-0.25-0.311 0.321-0.264 0.054-0.136 2.164-1.544 0.181-0.019 0.416-0.329-0.215-0.273-0.453 0.28-0.063 0.171m-4.574 4.696c0.02 0.078 0.047 0.132 0.084 0.206-0.101-0.072-0.199-0.144-0.298-0.224m5.949 0.038c-0.085 0.097-0.191 0.17-0.353 0.261 0.094-0.106 0.103-0.175 0.115-0.261m-3.62 0.168c0.046 0.079 0.043 0.134 0.118 0.194-0.119 0-0.237 0-0.356-2e-3 0.075-0.052 0.142-0.119 0.19-0.192m0.966 3e-3c0.053 0.083 0.067 0.138 0.134 0.187-0.088 0-0.204 3e-3 -0.352 4e-3 0.067-0.053 0.125-0.117 0.169-0.191m-1.8 0c0.099 0.128 0.083 0.141 0.138 0.19-0.119 0-0.238 0-0.357 2e-3 0.12-0.1 0.126-0.127 0.169-0.192m3.74 2e-3c0.039 0.088 0.057 0.122 0.131 0.19-0.12 3e-3 -0.204 0-0.324 0 0.081-0.069 0.117-0.129 0.153-0.19m-1.093 0.19c0.066-0.056 0.108-0.11 0.153-0.194h0.039c0.055 0.115 0.112 0.162 0.149 0.194" style="fill:#32323e"/>
 </g>
</svg>
