<svg version="1.1" viewBox="0 0 48 48" xmlns="http://www.w3.org/2000/svg">
 <defs>
  <linearGradient id="bg" x1="1" x2="47" gradientTransform="matrix(0 -1 1 0 -1.5e-6 48)" gradientUnits="userSpaceOnUse">
   <stop style="stop-color:#ea565a" offset="0"/>
   <stop style="stop-color:#ec6769" offset="1"/>
  </linearGradient>
 </defs>
 <path d="m36.3 5c5.86 4.06 9.69 10.8 9.69 18.5 0 12.4-10.1 22.5-22.5 22.5-7.67 0-14.4-3.83-18.5-9.69 1.04 1.82 2.31 3.5 3.78 4.97 4.08 3.71 9.51 5.97 15.5 5.97 12.7 0 23-10.3 23-23 0-5.95-2.26-11.4-5.97-15.5-1.47-1.48-3.15-2.74-4.97-3.78zm4.97 3.78c3.85 4.11 6.22 9.64 6.22 15.7 0 12.7-10.3 23-23 23-6.08 0-11.6-2.36-15.7-6.22 4.16 4.14 9.88 6.72 16.2 6.72 12.7 0 23-10.3 23-23 0-6.34-2.58-12.1-6.72-16.2z" style="opacity:.05"/>
 <path d="m41.3 8.78c3.71 4.08 5.97 9.51 5.97 15.5 0 12.7-10.3 23-23 23-5.95 0-11.4-2.26-15.5-5.97 4.11 3.85 9.64 6.22 15.7 6.22 12.7 0 23-10.3 23-23 0-6.08-2.36-11.6-6.22-15.7z" style="opacity:.1"/>
 <path d="m31.2 2.38c8.62 3.15 14.8 11.4 14.8 21.1 0 12.4-10.1 22.5-22.5 22.5-9.71 0-18-6.14-21.1-14.8a23 23 0 0 0 44.9-7 23 23 0 0 0-16-21.9z" style="opacity:.2"/>
 <path d="m24 1c12.7 0 23 10.3 23 23s-10.3 23-23 23-23-10.3-23-23 10.3-23 23-23z" style="fill:url(#bg)"/>
 <path d="m14 32.6c1.99 3.85 6.47 5.38 10.1 5.36 3.5-0.0201 6.83-1.51 8.69-4.16 1.07-1.55 1.49-4.14 1.02-6.25-0.363-1.64-0.732-2.39-1.84-3.79-0.593-0.746-0.708-0.961-0.708-1.35-4e-3 -0.4 0.092-0.559 1.06-1.86 0.951-1.29 1.11-1.54 1.29-2.1 0.267-0.8 0.249-1.62-0.306-2.29-2.04-2.47-5.22-3.75-8.01-4.2z" style="opacity:.1;stroke-width:1.01"/>
 <path d="m22.1 11.1c-3.77 0.645-6.24 2.96-6.96 6.28-0.172 0.795-0.171 2.38-4e-3 3.14 0.323 1.44 0.74 2.51 1.67 3.63 0.928 1.09 0.557 1.77-0.113 2.48-1.38 1.43-2.19 2.42-2.44 3.03-0.285 0.718-0.371 1.31-0.039 1.96 1.97 3.83 6.4 5.36 9.99 5.34 3.46-0.02 6.75-1.5 8.6-4.14 1.05-1.55 1.47-4.12 1.01-6.22-0.359-1.63-0.724-2.38-1.82-3.77-0.587-0.742-0.7-0.956-0.7-1.34-4e-3 -0.398 0.091-0.556 1.04-1.85 0.941-1.28 1.1-1.53 1.28-2.09 0.264-0.796 0.246-1.61-0.303-2.28-2.02-2.46-5.16-3.75-7.92-4.18-1.13-0.177-2.18-0.165-3.28 0.023z" style="fill:#474747;stroke-width:.999"/>
 <path d="m23.5 13c-0.537 9e-3 -1.08 0.0558-1.62 0.153-2.45 0.441-4.42 2.33-4.79 4.88-0.411 2.84 0.394 4.39 2.65 6.42 0.658 0.592 1.22 0.912 2.75 1.86 0.817 0.505 2.54 1.26 2.77 2.76 0.064 0.432-0.158 0.756-0.564 0.86-2.11 0.539-3.74-0.896-5.45-2.19-0.657-0.496-0.702-0.58-0.882-0.447-0.137 0.102-1.23 1.52-1.96 2.51-0.48 0.643-0.5 1.05-0.168 1.49 1.7 1.91 3.49 3.47 6.81 3.67 0.708 0.0418 1.47 0.0458 2.15-0.0289 2.55-0.279 4.99-1.63 6.01-3.34 1.43-2.44 0.891-5.9-1.06-8.17-0.904-1.06-1.98-1.69-4.29-2.95-1.61-0.88-2.22-1.35-2.38-1.84-0.0839-0.261-0.038-0.731 0.0899-0.907 0.255-0.35 0.76-0.494 1.39-0.382 1.6 0.285 3.21 1.43 4.6 2.35 0.215 0.0777 0.337-0.0628 1.21-1.42 1.07-1.68 1.35-1.78 0.761-2.35-1.75-1.72-4.08-2.58-6.42-2.84-0.526-0.0558-1.06-0.0847-1.59-0.0757z" style="fill:#afe061;stroke-width:.998"/>
 <path d="m40 7.53c3.71 4.08 5.97 9.51 5.97 15.5 0 12.7-10.3 23-23 23-5.95 0-11.4-2.26-15.5-5.97 4.18 4.29 10 6.97 16.5 6.97 12.7 0 23-10.3 23-23 0-6.46-2.68-12.3-6.97-16.5z" style="opacity:.1"/>
</svg>
