<svg version="1.1" viewBox="0 0 48 48" xmlns="http://www.w3.org/2000/svg">
 <defs>
  <linearGradient id="linearGradient3869" x2="0" y1="47" y2="1" gradientUnits="userSpaceOnUse">
   <stop style="stop-color:#ef1b1b" offset="0"/>
   <stop style="stop-color:#f02e2e" offset="1"/>
  </linearGradient>
 </defs>
 <path d="m36.31 5c5.859 4.062 9.688 10.831 9.688 18.5 0 12.426-10.07 22.5-22.5 22.5-7.669 0-14.438-3.828-18.5-9.688 1.037 1.822 2.306 3.499 3.781 4.969 4.085 3.712 9.514 5.969 15.469 5.969 12.703 0 23-10.298 23-23 0-5.954-2.256-11.384-5.969-15.469-1.469-1.475-3.147-2.744-4.969-3.781zm4.969 3.781c3.854 4.113 6.219 9.637 6.219 15.719 0 12.703-10.297 23-23 23-6.081 0-11.606-2.364-15.719-6.219 4.16 4.144 9.883 6.719 16.219 6.719 12.703 0 23-10.298 23-23 0-6.335-2.575-12.06-6.719-16.219z" style="opacity:.05"/>
 <path d="m41.28 8.781c3.712 4.085 5.969 9.514 5.969 15.469 0 12.703-10.297 23-23 23-5.954 0-11.384-2.256-15.469-5.969 4.113 3.854 9.637 6.219 15.719 6.219 12.703 0 23-10.298 23-23 0-6.081-2.364-11.606-6.219-15.719z" style="opacity:.1"/>
 <path d="m31.25 2.375c8.615 3.154 14.75 11.417 14.75 21.13 0 12.426-10.07 22.5-22.5 22.5-9.708 0-17.971-6.135-21.12-14.75a23 23 0 0 0 44.875-7 23 23 0 0 0-16-21.875z" style="opacity:.2"/>
 <path d="m24 1c12.703 0 23 10.297 23 23s-10.297 23-23 23-23-10.297-23-23 10.297-23 23-23z" style="fill:url(#linearGradient3869)"/>
 <path d="m40.03 7.531c3.712 4.084 5.969 9.514 5.969 15.469 0 12.703-10.297 23-23 23-5.954 0-11.384-2.256-15.469-5.969 4.178 4.291 10.01 6.969 16.469 6.969 12.703 0 23-10.298 23-23 0-6.462-2.677-12.291-6.969-16.469z" style="opacity:.1"/>
 <path d="m35.221 12.996-16.719 0.003906c-1.9984 0-1.9984 1.998 0 1.998h14.717c0.9815 0 1.7812 0.80171 1.7812 1.7832v3.4355c0 0.9815-0.79975 1.7812-1.7812 1.7812h-14.717c-1.9984 0-1.9984 2.002 0 2.002h-4.002c-2 0-2 2 0 2h18.719c0.981 0 1.7812 0.80025 1.7812 1.7812v5.4375c0 0.981-0.80025 1.7812-1.7812 1.7812h-18.719c-2 0-2 2 0 2h20.719c0.981 0 1.7812-0.80025 1.7812-1.7812v-9.4375c0-0.98034-0.7992-1.7802-1.7793-1.7812 0.9815 0 1.7812-0.80366 1.7812-1.7852v-7.4355c0-0.9815-0.79975-1.7832-1.7812-1.7832zm-15.721 4.0039c-0.831 0-1.5 0.669-1.5 1.5s0.669 1.5 1.5 1.5h12c0.831 0 1.5-0.669 1.5-1.5s-0.669-1.5-1.5-1.5zm-1.5 11c-1.108 0-2 0.892-2 2v1c0 1.108 0.892 2 2 2h13c1.108 0 2-0.892 2-2v-1c0-1.108-0.892-2-2-2z" style="opacity:.1"/>
 <path d="m34.221 11.996-16.719 0.003906c-1.9984 0-1.9984 1.998 0 1.998h14.717c0.9815 0 1.7812 0.80171 1.7812 1.7832v3.4355c0 0.9815-0.79975 1.7812-1.7812 1.7812h-14.717c-1.9984 0-1.9984 2.002 0 2.002h-4.002c-2 0-2 2 0 2h18.719c0.981 0 1.7812 0.80025 1.7812 1.7812v5.4375c0 0.981-0.80025 1.7812-1.7812 1.7812h-18.719c-2 0-2 2 0 2h20.719c0.981 0 1.7812-0.80025 1.7812-1.7812v-9.4375c0-0.98034-0.7992-1.7802-1.7793-1.7812 0.9815 0 1.7812-0.80366 1.7812-1.7852v-7.4355c0-0.9815-0.79975-1.7832-1.7812-1.7832z" style="fill:#f9f9f9"/>
 <rect x="15" y="27" width="17" height="5" rx="2" style="fill:#f9f9f9"/>
 <rect x="17" y="16" width="15" height="3" rx="1.5" style="fill:#f9f9f9"/>
</svg>
