<svg version="1.1" viewBox="0 0 48 48" xmlns="http://www.w3.org/2000/svg">
 <defs>
  <linearGradient id="bg" x1="1" x2="47" gradientTransform="matrix(0 -1 1 0 -1.5e-6 48)" gradientUnits="userSpaceOnUse">
   <stop style="stop-color:#877f26" offset="0"/>
   <stop style="stop-color:#978e2b" offset="1"/>
  </linearGradient>
 </defs>
 <path d="m36.3 5c5.86 4.06 9.69 10.8 9.69 18.5 0 12.4-10.1 22.5-22.5 22.5-7.67 0-14.4-3.83-18.5-9.69 1.04 1.82 2.31 3.5 3.78 4.97 4.08 3.71 9.51 5.97 15.5 5.97 12.7 0 23-10.3 23-23 0-5.95-2.26-11.4-5.97-15.5-1.47-1.48-3.15-2.74-4.97-3.78zm4.97 3.78c3.85 4.11 6.22 9.64 6.22 15.7 0 12.7-10.3 23-23 23-6.08 0-11.6-2.36-15.7-6.22 4.16 4.14 9.88 6.72 16.2 6.72 12.7 0 23-10.3 23-23 0-6.34-2.58-12.1-6.72-16.2z" style="opacity:.05"/>
 <path d="m41.3 8.78c3.71 4.08 5.97 9.51 5.97 15.5 0 12.7-10.3 23-23 23-5.95 0-11.4-2.26-15.5-5.97 4.11 3.85 9.64 6.22 15.7 6.22 12.7 0 23-10.3 23-23 0-6.08-2.36-11.6-6.22-15.7z" style="opacity:.1"/>
 <path d="m31.2 2.38c8.62 3.15 14.8 11.4 14.8 21.1 0 12.4-10.1 22.5-22.5 22.5-9.71 0-18-6.14-21.1-14.8a23 23 0 0 0 44.9-7 23 23 0 0 0-16-21.9z" style="opacity:.2"/>
 <path d="m24 1c12.7 0 23 10.3 23 23s-10.3 23-23 23-23-10.3-23-23 10.3-23 23-23z" style="fill:url(#bg)"/>
 <path d="m40 7.53c3.71 4.08 5.97 9.51 5.97 15.5 0 12.7-10.3 23-23 23-5.95 0-11.4-2.26-15.5-5.97 4.18 4.29 10 6.97 16.5 6.97 12.7 0 23-10.3 23-23 0-6.46-2.68-12.3-6.97-16.5z" style="opacity:.1"/>
 <path d="m34.5 15-21.5 17.5c0 1.38 1.12 2.5 2.5 2.5h9.5v0.83c0 0.648 0.522 1.17 1.17 1.17h11.7c0.648 0 1.17-0.522 1.17-1.17v-7.66l-2-1.17v-9.5c0-1.38-1.12-2.5-2.5-2.5z" style="opacity:.1"/>
 <path d="m14.5 16c-1.38 0-2.5 1.12-2.5 2.5v9.5h21l-1-12z" style="fill:#ea9036"/>
 <path d="m14.5 16c-1.38 0-2.5 1.12-2.5 2.5v1c0-1.38 1.12-2.5 2.5-2.5h17.5v-1z" style="fill:#fff;opacity:.2"/>
 <path d="m27 14c-4 0-2 6-8 6h-4.5c-1.38 0-2.5 1.12-2.5 2.5v9c0 1.38 1.12 2.5 2.5 2.5h19c1.38 0 2.5-1.12 2.5-2.5v-15c0-1.38-1.12-2.5-2.5-2.5z" style="fill:#f2bb64"/>
 <path d="m12 30.5v1c0 1.38 1.12 2.5 2.5 2.5h19c1.38 0 2.5-1.12 2.5-2.5v-1c0 1.38-1.12 2.5-2.5 2.5h-19c-1.38 0-2.5-1.12-2.5-2.5z" style="opacity:.15"/>
 <path d="m32 22a5 5 0 0 0-5 5h1.54a3.5 3.5 0 0 1-0.043-0.5 3.5 3.5 0 0 1 3.5-3.5 3.5 3.5 0 0 1 3.5 3.5 3.5 3.5 0 0 1-0.043 0.5h0.543v-3a5 5 0 0 0-4-2z" style="opacity:.1"/>
 <path d="m31 21a5 5 0 0 0-5 5h-0.83c-0.648 0-1.17 0.522-1.17 1.17v7.66c0 0.648 0.522 1.17 1.17 1.17h11.7c0.648 0 1.17-0.522 1.17-1.17v-7.66c0-0.648-0.522-1.17-1.17-1.17h-0.83a5 5 0 0 0-5-5zm0 1a3.5 3.5 0 0 1 3.5 3.5 3.5 3.5 0 0 1-0.043 0.5h-6.91a3.5 3.5 0 0 1-0.043-0.5 3.5 3.5 0 0 1 3.5-3.5z" style="fill:#979797"/>
 <path d="m35 31a4 4 0 0 1-4 4 4 4 0 0 1-4-4 4 4 0 0 1 4-4 4 4 0 0 1 4 4z" style="fill:#b2b2b2"/>
 <path d="m31 28a2 2 0 0 0-2 2 2 2 0 0 0 1 1.73v2.27h2v-2.27a2 2 0 0 0 1-1.73 2 2 0 0 0-2-2z" style="fill:#525252"/>
</svg>
