<svg version="1.1" viewBox="0 0 48 48" xmlns="http://www.w3.org/2000/svg">
 <defs>
  <linearGradient id="bg" x2="0" y1="1" y2="47" gradientUnits="userSpaceOnUse">
   <stop style="stop-color:#826a36" offset="0"/>
   <stop style="stop-color:#735e30" offset="1"/>
  </linearGradient>
 </defs>
 <path d="m36.31 5c5.859 4.062 9.688 10.831 9.688 18.5 0 12.426-10.07 22.5-22.5 22.5-7.669 0-14.438-3.828-18.5-9.688 1.037 1.822 2.306 3.499 3.781 4.969 4.085 3.712 9.514 5.969 15.469 5.969 12.703 0 23-10.298 23-23 0-5.954-2.256-11.384-5.969-15.469-1.469-1.475-3.147-2.744-4.969-3.781zm4.969 3.781c3.854 4.113 6.219 9.637 6.219 15.719 0 12.703-10.297 23-23 23-6.081 0-11.606-2.364-15.719-6.219 4.16 4.144 9.883 6.719 16.219 6.719 12.703 0 23-10.298 23-23 0-6.335-2.575-12.06-6.719-16.219z" style="opacity:.05"/>
 <path d="m41.28 8.781c3.712 4.085 5.969 9.514 5.969 15.469 0 12.703-10.297 23-23 23-5.954 0-11.384-2.256-15.469-5.969 4.113 3.854 9.637 6.219 15.719 6.219 12.703 0 23-10.298 23-23 0-6.081-2.364-11.606-6.219-15.719z" style="opacity:.1"/>
 <path d="m31.25 2.375c8.615 3.154 14.75 11.417 14.75 21.13 0 12.426-10.07 22.5-22.5 22.5-9.708 0-17.971-6.135-21.12-14.75a23 23 0 0 0 44.875-7 23 23 0 0 0-16-21.875z" style="opacity:.2"/>
 <circle cx="24" cy="24" r="23" style="fill:url(#bg)"/>
 <path d="m40.03 7.531c3.712 4.084 5.969 9.514 5.969 15.469 0 12.703-10.297 23-23 23-5.954 0-11.384-2.256-15.469-5.969 4.178 4.291 10.01 6.969 16.469 6.969 12.703 0 23-10.298 23-23 0-6.462-2.677-12.291-6.969-16.469z" style="opacity:.1"/>
 <rect x="13" y="12" width="24" height="26" ry="0" style="opacity:.1"/>
 <rect x="12" y="11" width="24" height="26" ry="0" style="fill:#e0e5b3"/>
 <rect x="14" y="13" width="20" height="22" style="fill:#7b6b33"/>
 <path d="m28 20c4 0 6 4 6 4v11h-14l2-11s3-4 6-4z" style="fill:#70775a"/>
 <path d="m20 26c1 0 6 2 6 2l1 7h-13v-7s4-2 6-2z" style="fill:#d82828"/>
 <path d="m20 18c-3 0-4 3-4 3s-1 2-1 4 1 3 1 3l3-1h3l0.81445 0.27148c-1.9365 2.8468-3.8145 4.7285-3.8145 4.7285h4c2 0 3-1 3-1s-1-1.9992-1-3.334v-0.66602l-1-6s0-3-4-3z" style="fill:#ae893a"/>
 <path d="m17 25s0 3 3 3 3-3 3-3v-2s-3 0-4-2l-2 2z" style="fill:#e2a77e"/>
 <path d="m30 21s2-1 2-2v-3s0-2-4-2-4 2-4 2v3c0 1 2 2 2 2z" style="fill:#6d4414"/>
 <path d="m25 20s0 3 3 3 3-3 3-3v-3s0-1-3-1-3 1-3 1z" style="fill:#de8859"/>
</svg>
