<svg xmlns="http://www.w3.org/2000/svg" viewBox="0 0 48 48">
 <defs>
  <linearGradient id="linearGradient3764" x1="1" x2="47" gradientUnits="userSpaceOnUse" gradientTransform="matrix(0,-1,1,0,-1.5e-6,47.999998)">
   <stop style="stop-color:#002b32;stop-opacity:1"/>
   <stop offset="1" style="stop-color:#003c46;stop-opacity:1"/>
  </linearGradient>
 </defs>
 <g>
  <path d="m 36.31 5 c 5.859 4.062 9.688 10.831 9.688 18.5 c 0 12.426 -10.07 22.5 -22.5 22.5 c -7.669 0 -14.438 -3.828 -18.5 -9.688 c 1.037 1.822 2.306 3.499 3.781 4.969 c 4.085 3.712 9.514 5.969 15.469 5.969 c 12.703 0 23 -10.298 23 -23 c 0 -5.954 -2.256 -11.384 -5.969 -15.469 c -1.469 -1.475 -3.147 -2.744 -4.969 -3.781 z m 4.969 3.781 c 3.854 4.113 6.219 9.637 6.219 15.719 c 0 12.703 -10.297 23 -23 23 c -6.081 0 -11.606 -2.364 -15.719 -6.219 c 4.16 4.144 9.883 6.719 16.219 6.719 c 12.703 0 23 -10.298 23 -23 c 0 -6.335 -2.575 -12.06 -6.719 -16.219 z" style="opacity:0.05"/>
  <path d="m 41.28 8.781 c 3.712 4.085 5.969 9.514 5.969 15.469 c 0 12.703 -10.297 23 -23 23 c -5.954 0 -11.384 -2.256 -15.469 -5.969 c 4.113 3.854 9.637 6.219 15.719 6.219 c 12.703 0 23 -10.298 23 -23 c 0 -6.081 -2.364 -11.606 -6.219 -15.719 z" style="opacity:0.1"/>
  <path d="m 31.25 2.375 c 8.615 3.154 14.75 11.417 14.75 21.13 c 0 12.426 -10.07 22.5 -22.5 22.5 c -9.708 0 -17.971 -6.135 -21.12 -14.75 a 23 23 0 0 0 44.875 -7 a 23 23 0 0 0 -16 -21.875 z" style="opacity:0.2"/>
 </g>
 <g>
  <path d="m 24 1 c 12.703 0 23 10.297 23 23 c 0 12.703 -10.297 23 -23 23 -12.703 0 -23 -10.297 -23 -23 0 -12.703 10.297 -23 23 -23 z" style="fill:url(#linearGradient3764);fill-opacity:1"/>
  <path d="m 36.617,9 c -1.034,0.171 -1.283,0.797 -1.594,1.625 -0.242,0.781 -0.492,1.832 -0.625,3.125 -0.266,2.582 -0.453,5.988 -0.594,9.438 -0.084,2.126 -0.178,4.228 -0.313,6.148 -0.719,-0.065 -1.414,-0.179 -2.078,-0.354 -0.036,-0.958 -0.068,-1.919 -0.111,-2.92 -0.117,-2.746 -0.32,-5.5 -0.625,-7.594 -0.152,-1.047 -0.332,-1.957 -0.625,-2.625 -0.148,-0.336 -0.3,-0.625 -0.563,-0.875 -0.273,-0.25 -0.605,-0.5 -1.25,-0.5 -0.5,0 -1.125,0.188 -1.441,0.375 -0.313,0.188 -0.453,0.387 -0.625,0.625 -0.34,0.48 -0.465,1.055 -0.625,1.75 -0.316,1.391 -0.516,3.184 -0.625,4.969 -0.105,1.785 -0.16,3.586 -0.438,4.875 -0.501,1.285 -0.577,2.272 -1.445,1 -0.23,-0.582 -0.357,-1.473 -0.438,-2.375 -0.078,-0.902 -0.016,-1.852 -0.375,-2.625 -0.18,-0.387 -0.414,-0.703 -0.875,-1 -0.248,-0.157 -0.614,-0.282 -1.012,-0.365 l 0.893,-0.854 c 0.244,-0.367 0.366,-0.854 0.244,-1.221 -0.489,-1.467 -0.732,-2.934 -0.732,-4.4 0,-0.733 -0.489,-1.223 -1.223,-1.223 l -4.277,0 c -0.733,0 -1.223,0.489 -1.223,1.223 0,3.514 0.877,6.817 2.412,9.717 -0.129,0.969 -0.146,2.067 -0.209,3.123 -0.086,1.445 -0.174,2.84 -0.439,3.844 -0.831,2.258 -1.301,-0.684 -1.439,-1.5 -0.32,-1.926 -0.453,-4.492 -0.594,-7.094 -0.141,-2.602 -0.148,-5.238 -0.438,-7.219 -0.148,-0.988 -0.355,-1.836 -0.625,-2.469 -0.429,-0.811 -1.224,-1.327 -1.816,-1.375 -1.985,0.201 -2.231,1.916 -2.5,3.469 -0.301,1.789 -0.465,4.133 -0.625,6.469 -0.16,2.34 -0.305,4.664 -0.625,6.375 -0.393,1.39 -0.668,2.425 -1.25,1.094 C 5.612,28.679 5.571,27.433 5.436,26.062 5.307,24.691 5.228,23.277 4.872,22.187 4.692,21.644 4.372,21.117 3.997,20.718 3.622,20.32 2.985,19.968 2.122,19.968 c -0.289,0 -0.55,0.066 -0.789,0.15 -0.215,1.263 -0.334,2.557 -0.334,3.881 0,1.157 0.089,2.293 0.254,3.404 0.076,-1.362 0.172,-2.653 0.309,-3.717 0.117,-0.906 0.164,-1.625 0.375,-2.094 0.074,-0.16 0.184,-0.293 0.25,-0.375 0.027,0.012 0.103,0.039 0.188,0.125 0.188,0.203 0.219,0.617 0.375,1.094 0.312,0.961 0.492,2.262 0.625,3.625 0.133,1.367 0.336,2.758 0.625,3.844 0.145,0.547 0.313,0.98 0.625,1.375 0.156,0.203 0.336,0.477 0.625,0.625 0.289,0.16 0.625,0.238 1.063,0.25 0.602,0 1.169,-0.27 1.439,-0.5 0.273,-0.223 0.48,-0.461 0.625,-0.75 0.297,-0.566 0.461,-1.316 0.625,-2.219 0.332,-1.781 0.465,-4.04 0.625,-6.375 0.16,-2.34 0.336,-4.742 0.625,-6.469 0.259,-2.315 0.647,-0.952 1,0.375 0.281,1.918 0.488,4.492 0.625,7.094 0.145,2.605 0.293,5.227 0.625,7.219 0.168,1 0.32,1.859 0.625,2.5 0.152,0.324 0.359,0.508 0.625,0.75 0.27,0.246 0.586,0.609 1.219,0.625 0.891,0.039 1.703,-0.461 2.063,-0.875 0.363,-0.41 0.477,-0.93 0.625,-1.5 0.301,-1.133 0.539,-2.52 0.625,-3.969 0.005,-0.084 0.011,-0.16 0.016,-0.244 2.906,3.804 7.082,6.581 11.916,7.668 0.079,0.289 0.165,0.562 0.27,0.795 0.145,0.336 0.359,0.605 0.625,0.855 0.262,0.25 0.776,0.5 1.438,0.5 1.023,-0.1 1.593,-0.832 2.064,-1.605 0.004,-0.011 0.007,-0.024 0.012,-0.035 0.06,0 0.119,0.004 0.18,0.004 0.733,0 1.223,-0.491 1.223,-1.225 l 0,-4.152 c 0,-0.444 -0.195,-0.782 -0.5,-0.992 0.135,-2.01 0.217,-4.229 0.305,-6.441 0.141,-3.449 0.367,-6.898 0.625,-9.438 0.389,-3.144 0.596,-1.215 0.814,0.594 0.324,2.781 0.707,6.527 0.875,10.219 0.172,3.695 0.32,7.445 0.625,10.219 0.156,1.395 0.375,2.504 0.625,3.355 0.129,0.418 0.176,0.711 0.375,1 0.105,0.141 0.23,0.355 0.441,0.5 0.114,0.073 0.278,0.14 0.471,0.188 1.195,-1.259 2.249,-2.652 3.137,-4.156 0.239,-1.675 0.361,-3.737 0.518,-5.762 0.176,-2.313 0.313,-4.629 0.625,-6.344 0.152,-0.852 0.41,-1.516 0.625,-1.969 0.121,0.219 0.277,0.352 0.375,0.719 0.254,0.969 0.308,2.371 0.438,3.75 0.065,0.696 0.132,1.386 0.229,2.041 0.24,-1.333 0.373,-2.703 0.373,-4.105 0,-1.263 -0.107,-2.501 -0.303,-3.709 -0.04,-0.023 -0.065,-0.047 -0.111,-0.07 -0.309,-0.156 -0.748,-0.262 -1.188,-0.25 -1.826,0.258 -2.01,2.089 -2.313,3.469 -0.324,1.781 -0.637,4.148 -0.816,6.469 -0.176,2.324 -0.313,4.66 -0.625,6.375 -0.436,2.912 -0.949,-0.617 -1.064,-1.625 C 40.283,31.932 40.127,28.264 39.959,24.569 39.791,20.874 39.726,17.174 39.396,14.35 39.236,12.94 39.041,11.76 38.771,10.881 38.308,9.591 37.681,9.026 36.617,9.006 L 36.621,9 Z m -8.623,7.1 c 0.426,0.027 0.752,1.73 0.867,2.496 0.297,2.027 0.258,4.723 0.375,7.469 0.038,0.911 0.1,1.794 0.158,2.684 -0.072,0.049 -0.145,0.096 -0.211,0.162 L 26.494,31.6 c -0.921,-0.494 -1.803,-1.063 -2.639,-1.691 l 0.006,0 c 0.5,0 0.941,-0.055 1.25,-0.25 0.305,-0.184 0.465,-0.477 0.625,-0.719 0.316,-0.477 0.477,-1.055 0.625,-1.75 0.297,-1.387 0.52,-3.215 0.625,-5 0.102,-1.781 0.074,-3.555 0.375,-4.844 0.225,-0.925 0.439,-1.259 0.633,-1.246 z m -8.453,6.713 0,0.002 c 0.234,0 0.246,0.047 0.375,0.125 0.125,0.082 0.305,0.223 0.441,0.5 0.262,0.559 0.355,1.48 0.438,2.375 0.037,0.449 0.054,0.912 0.1,1.359 -0.846,-0.966 -1.578,-2.02 -2.188,-3.137 0.121,-0.428 0.22,-0.773 0.396,-0.975 0.191,-0.223 0.395,-0.25 0.438,-0.25 z" style="fill:#000;fill-opacity:0.098"/>
  <path d="m 35.617 8 c -1.034 0.171 -1.282 0.797 -1.594 1.625 c -0.242 0.781 -0.492 1.832 -0.625 3.125 c -0.266 2.582 -0.453 5.988 -0.594 9.438 c -0.137 3.449 -0.281 6.902 -0.625 9.469 c -0.172 1.285 -0.359 2.422 -0.625 3.125 c -0.52 -0.065 -0.731 -1.701 -0.813 -2.25 c -0.297 -2.027 -0.32 -4.723 -0.438 -7.469 c -0.117 -2.746 -0.32 -5.5 -0.625 -7.594 c -0.152 -1.047 -0.332 -1.957 -0.625 -2.625 c -0.148 -0.336 -0.302 -0.625 -0.564 -0.875 c -0.273 -0.25 -0.605 -0.5 -1.25 -0.5 c -0.5 0 -1.123 0.188 -1.439 0.375 c -0.313 0.188 -0.453 0.387 -0.625 0.625 c -0.34 0.48 -0.465 1.055 -0.625 1.75 c -0.316 1.391 -0.516 3.184 -0.625 4.969 c -0.105 1.785 -0.161 3.586 -0.439 4.875 c -0.31 1.043 -0.77 1.987 -1.443 1 c -0.23 -0.582 -0.36 -1.473 -0.439 -2.375 c -0.078 -0.902 -0.016 -1.852 -0.375 -2.625 c -0.18 -0.387 -0.414 -0.703 -0.875 -1 c -0.461 -0.293 -1.323 -0.488 -2.063 -0.469 c -0.895 0.039 -1.441 0.418 -1.813 0.844 c -0.371 0.426 -0.684 0.922 -0.848 1.5 c -0.32 1.16 -0.316 2.684 -0.402 4.125 c -0.086 1.445 -0.176 2.84 -0.441 3.844 c -0.8 1.995 -1.326 -0.846 -1.438 -1.5 c -0.32 -1.926 -0.453 -4.492 -0.594 -7.094 c -0.141 -2.602 -0.149 -5.238 -0.439 -7.219 c -0.148 -0.988 -0.355 -1.836 -0.625 -2.469 c -0.429 -0.811 -0.957 -1.399 -1.814 -1.375 c -1.889 0.111 -2.232 1.956 -2.5 3.469 c -0.301 1.789 -0.465 4.133 -0.625 6.469 c -0.16 2.34 -0.305 4.664 -0.625 6.375 c -0.393 1.39 -0.705 2.463 -1.25 1.094 c -0.262 -0.977 -0.306 -2.223 -0.439 -3.594 c -0.129 -1.371 -0.207 -2.785 -0.563 -3.875 c -0.18 -0.543 -0.5 -1.07 -0.875 -1.469 c -0.309 -0.328 -0.806 -0.613 -1.451 -0.707 c -0.094 0.424 -0.178 0.852 -0.248 1.285 c 0.029 0.018 0.043 0.015 0.076 0.049 c 0.188 0.203 0.219 0.617 0.375 1.094 c 0.312 0.961 0.492 2.262 0.625 3.625 c 0.133 1.367 0.336 2.758 0.625 3.844 c 0.145 0.547 0.313 0.98 0.625 1.375 c 0.156 0.203 0.336 0.477 0.625 0.625 c 0.289 0.16 0.625 0.238 1.063 0.25 c 0.602 0 1.168 -0.27 1.438 -0.5 c 0.273 -0.223 0.48 -0.461 0.625 -0.75 c 0.297 -0.566 0.461 -1.316 0.625 -2.219 c 0.332 -1.781 0.465 -4.04 0.625 -6.375 c 0.16 -2.34 0.336 -4.742 0.625 -6.469 c 0.259 -2.315 0.647 -0.952 1 0.375 c 0.281 1.918 0.488 4.492 0.625 7.094 c 0.145 2.605 0.293 5.227 0.625 7.219 c 0.168 1 0.32 1.859 0.625 2.5 c 0.152 0.324 0.359 0.508 0.625 0.75 c 0.27 0.246 0.586 0.609 1.219 0.625 c 0.891 0.039 1.703 -0.461 2.063 -0.875 c 0.363 -0.41 0.477 -0.93 0.625 -1.5 c 0.301 -1.133 0.539 -2.52 0.625 -3.969 c 0.086 -1.441 0.09 -2.844 0.375 -3.875 c 0.145 -0.512 0.242 -0.898 0.441 -1.125 c 0.191 -0.223 0.395 -0.25 0.438 -0.25 c 0.234 0 0.246 0.047 0.375 0.125 c 0.125 0.082 0.305 0.223 0.441 0.5 c 0.262 0.559 0.356 1.48 0.439 2.375 c 0.074 0.898 0.066 1.855 0.375 2.625 c 0.156 0.387 0.4 0.695 0.814 1 c 0.406 0.309 1.148 0.469 1.875 0.469 c 0.5 0 0.941 -0.055 1.25 -0.25 c 0.305 -0.184 0.465 -0.477 0.625 -0.719 c 0.316 -0.477 0.477 -1.055 0.625 -1.75 c 0.297 -1.387 0.52 -3.215 0.625 -5 c 0.102 -1.781 0.074 -3.555 0.375 -4.844 c 0.716 -2.805 1.33 0.124 1.5 1.25 c 0.297 2.027 0.258 4.723 0.375 7.469 c 0.113 2.746 0.316 5.504 0.625 7.594 c 0.148 1.047 0.328 1.961 0.625 2.625 c 0.145 0.336 0.359 0.605 0.625 0.855 c 0.262 0.25 0.778 0.5 1.439 0.5 c 1.022 -0.1 1.592 -0.832 2.063 -1.605 c 0.313 -0.813 0.449 -1.938 0.625 -3.25 c 0.352 -2.621 0.457 -6.141 0.594 -9.594 c 0.141 -3.449 0.367 -6.898 0.625 -9.438 c 0.313 -3.182 0.596 -1.215 0.813 0.594 c 0.324 2.781 0.707 6.527 0.875 10.219 c 0.172 3.695 0.32 7.445 0.625 10.219 c 0.156 1.395 0.375 2.504 0.625 3.355 c 0.129 0.418 0.176 0.711 0.375 1 c 0.105 0.141 0.23 0.355 0.441 0.5 c 0.207 0.133 0.563 0.262 1 0.25 c 0.613 -0.039 1.012 -0.277 1.25 -0.5 c 0.238 -0.23 0.488 -0.473 0.625 -0.75 c 0.273 -0.582 0.461 -1.332 0.625 -2.23 c 0.32 -1.77 0.445 -4.176 0.625 -6.5 c 0.176 -2.313 0.313 -4.629 0.625 -6.344 c 0.152 -0.852 0.41 -1.516 0.625 -1.969 c 0.121 0.219 0.277 0.352 0.375 0.719 c 0.254 0.969 0.309 2.371 0.438 3.75 c 0.129 1.383 0.27 2.742 0.625 3.844 c 0.077 0.245 0.176 0.48 0.287 0.707 c 0.451 -1.798 0.693 -3.678 0.693 -5.615 c 0 -0.97 -0.067 -1.924 -0.184 -2.863 c -0.141 -0.521 -0.3 -1.034 -0.609 -1.416 c -0.16 -0.195 -0.316 -0.344 -0.625 -0.5 c -0.309 -0.156 -0.749 -0.262 -1.188 -0.25 c -1.826 0.258 -2.01 2.089 -2.313 3.469 c -0.324 1.781 -0.637 4.148 -0.816 6.469 c -0.176 2.324 -0.313 4.66 -0.625 6.375 c -0.436 2.911 -0.947 -0.617 -1.063 -1.625 c -0.301 -2.727 -0.457 -6.395 -0.625 -10.09 c -0.168 -3.695 -0.233 -7.395 -0.563 -10.219 c -0.16 -1.41 -0.355 -2.59 -0.625 -3.469 c -0.464 -1.291 -0.902 -1.818 -2.156 -1.875 l 0.008 -0.006 z" style="fill:#006f82;fill-opacity:1"/>
 </g>
 <g>
  <path d="m 40.03 7.531 c 3.712 4.084 5.969 9.514 5.969 15.469 0 12.703 -10.297 23 -23 23 c -5.954 0 -11.384 -2.256 -15.469 -5.969 4.178 4.291 10.01 6.969 16.469 6.969 c 12.703 0 23 -10.298 23 -23 0 -6.462 -2.677 -12.291 -6.969 -16.469 z" style="opacity:0.1"/>
 </g>
 <path d="m 18.292 20.594 c -0.895 0.039 -1.442 0.418 -1.814 0.844 -0.371 0.426 -0.684 0.922 -0.848 1.5 -0.018 0.065 -0.025 0.142 -0.041 0.209 0.476 1.154 1.064 2.247 1.73 3.285 0.059 -1.207 0.098 -2.367 0.34 -3.242 0.145 -0.512 0.242 -0.898 0.441 -1.125 0.191 -0.223 0.395 -0.25 0.438 -0.25 0.234 0 0.246 0.047 0.375 0.125 0.125 0.082 0.305 0.223 0.441 0.5 0.021 0.044 0.034 0.104 0.053 0.152 l 1.307 -1.248 c -0.103 -0.096 -0.219 -0.191 -0.359 -0.281 -0.461 -0.293 -1.323 -0.488 -2.062 -0.469 m 10.565 12.06 c 0.148 1.047 0.328 1.961 0.625 2.625 0.006 0.013 0.016 0.022 0.021 0.035 1.112 0.292 2.261 0.49 3.437 0.594 0.252 -0.263 0.474 -0.561 0.668 -0.879 0.313 -0.813 0.449 -1.938 0.625 -3.25 l -2.055 -0.127 c -0.172 1.285 -0.359 2.422 -0.625 3.125 -0.52 -0.065 -0.73 -1.701 -0.813 -2.25 z" style="fill:#000;fill-opacity:0.098;stroke:none;fill-rule:nonzero"/>
 <path d="m 17.424 22.534 c 1.711 3.422 4.644 6.233 8.07 8.07 l 2.689 -2.689 c 0.367 -0.367 0.856 -0.489 1.222 -0.244 1.344 0.489 2.811 0.733 4.4 0.733 0.733 0 1.222 0.489 1.222 1.222 l 0 4.156 c 0 0.733 -0.489 1.222 -1.222 1.222 -11.489 0 -20.778 -9.289 -20.778 -20.778 0 -0.733 0.489 -1.222 1.222 -1.222 l 4.278 0 c 0.733 0 1.222 0.489 1.222 1.222 0 1.467 0.244 2.933 0.733 4.4 0.122 0.367 0 0.856 -0.244 1.222 l -2.811 2.689 0 0 z" style="fill:#e3e3e3;fill-opacity:1;stroke:none"/>
</svg>
