<svg version="1.1" viewBox="0 0 48 48" xmlns="http://www.w3.org/2000/svg">
 <defs>
  <linearGradient id="bg" x2="0" y1="1" y2="47" gradientUnits="userSpaceOnUse">
   <stop style="stop-color:#2b384f" offset="0"/>
   <stop style="stop-color:#242f42" offset="1"/>
  </linearGradient>
 </defs>
 <path d="m36.31 5c5.859 4.062 9.688 10.831 9.688 18.5 0 12.426-10.07 22.5-22.5 22.5-7.669 0-14.438-3.828-18.5-9.688 1.037 1.822 2.306 3.499 3.781 4.969 4.085 3.712 9.514 5.969 15.469 5.969 12.703 0 23-10.298 23-23 0-5.954-2.256-11.384-5.969-15.469-1.469-1.475-3.147-2.744-4.969-3.781zm4.969 3.781c3.854 4.113 6.219 9.637 6.219 15.719 0 12.703-10.297 23-23 23-6.081 0-11.606-2.364-15.719-6.219 4.16 4.144 9.883 6.719 16.219 6.719 12.703 0 23-10.298 23-23 0-6.335-2.575-12.06-6.719-16.219z" style="opacity:.05"/>
 <path d="m41.28 8.781c3.712 4.085 5.969 9.514 5.969 15.469 0 12.703-10.297 23-23 23-5.954 0-11.384-2.256-15.469-5.969 4.113 3.854 9.637 6.219 15.719 6.219 12.703 0 23-10.298 23-23 0-6.081-2.364-11.606-6.219-15.719z" style="opacity:.1"/>
 <path d="m31.25 2.375c8.615 3.154 14.75 11.417 14.75 21.13 0 12.426-10.07 22.5-22.5 22.5-9.708 0-17.971-6.135-21.12-14.75a23 23 0 0 0 44.875-7 23 23 0 0 0-16-21.875z" style="opacity:.2"/>
 <circle cx="24" cy="24" r="23" style="fill:url(#bg)"/>
 <path d="m40.03 7.531c3.712 4.084 5.969 9.514 5.969 15.469 0 12.703-10.297 23-23 23-5.954 0-11.384-2.256-15.469-5.969 4.178 4.291 10.01 6.969 16.469 6.969 12.703 0 23-10.298 23-23 0-6.462-2.677-12.291-6.969-16.469z" style="opacity:.1"/>
 <path d="m25 10c-8.2843 0-15 6.7157-15 15 0.0041 2.0848 0.44896 4.1372 1.2871 6.0332a15 15 0 0 0 0.72266 1.4336c0.0058 0.01013 0.0098 0.02114 0.01563 0.03125 1.64e-4 -0.0019-1.67e-4 -0.0039 0-0.0059a15 15 0 0 0 1.1562 1.7383 5.0283 4.9189 0 0 1-0.18165-1.3125 5.0283 4.9189 0 0 1 5.0273-4.918 5.0283 4.9189 0 0 1 5.0293 4.918 5.0283 4.9189 0 0 1-5.0293 4.9199 5.0283 4.9189 0 0 1-0.88281-0.08008 15 15 0 0 0 2.168 1.0859c-0.01067 0.0024-0.02056 0.0074-0.03125 0.0098 0.09249 0.0384 0.18992 0.06158 0.2832 0.09766a15 15 0 0 0 1.2656 0.44531 7 7 0 0 0 0.0059-0.0039c1.351 0.39395 2.7512 0.60428 4.164 0.60738 8.2843 0 15-6.7157 15-15s-6.7157-15-15-15zm0 2c7.1797 0 13 5.8203 13 13s-5.8203 13-13 13c-0.64848-0.0032-1.291-0.07937-1.9297-0.18359a7 7 0 0 0 1.9297-4.8164 7 7 0 0 0-7-7 7 7 0 0 0-5.4746 2.6445c-0.34643-1.1815-0.52403-2.4092-0.52539-3.6445 0-7.1797 5.8203-13 13-13z" style="opacity:.1;paint-order:stroke fill markers"/>
 <path d="m24 9c-8.2843 0-15 6.7157-15 15 0.0040686 2.0848 0.44896 4.1372 1.2871 6.0332a15 15 0 0 0 0.72266 1.4336c0.005837 0.010129 0.009757 0.021136 0.015625 0.03125 1.64e-4 -0.001932-1.67e-4 -0.003928 0-0.005859a15 15 0 0 0 1.1562 1.7383 5.0283 4.9189 0 0 1-0.18164-1.3125 5.0283 4.9189 0 0 1 5.0273-4.918 5.0283 4.9189 0 0 1 5.0293 4.918 5.0283 4.9189 0 0 1-5.0293 4.9199 5.0283 4.9189 0 0 1-0.88281-0.080079 15 15 0 0 0 2.168 1.0859c-0.010674 0.002395-0.02056 0.007429-0.03125 0.009766 0.092493 0.0384 0.18992 0.06158 0.2832 0.097656a15 15 0 0 0 1.2656 0.44531 7 7 0 0 0 0.00586-0.003906c1.3511 0.39399 2.7513 0.60433 4.1641 0.60742 8.2843 0 15-6.7157 15-15s-6.7157-15-15-15zm0 2c7.1797 0 13 5.8203 13 13s-5.8203 13-13 13c-0.64848-0.003232-1.291-0.079365-1.9297-0.18359a7 7 0 0 0 1.9297-4.8164 7 7 0 0 0-7-7 7 7 0 0 0-5.4746 2.6445c-0.34643-1.1815-0.52403-2.4092-0.52539-3.6445 0-7.1797 5.8203-13 13-13z" style="fill:#f9f9f9;paint-order:stroke fill markers"/>
</svg>
