<svg version="1.1" viewBox="0 0 48 48" xmlns="http://www.w3.org/2000/svg">
 <defs>
  <linearGradient id="bg" x2="0" y1="1" y2="47" gradientUnits="userSpaceOnUse">
   <stop style="stop-color:#d85804" offset="0"/>
   <stop style="stop-color:#c45004" offset="1"/>
  </linearGradient>
 </defs>
 <path d="m36.31 5c5.859 4.062 9.688 10.831 9.688 18.5 0 12.426-10.07 22.5-22.5 22.5-7.669 0-14.438-3.828-18.5-9.688 1.037 1.822 2.306 3.499 3.781 4.969 4.085 3.712 9.514 5.969 15.469 5.969 12.703 0 23-10.298 23-23 0-5.954-2.256-11.384-5.969-15.469-1.469-1.475-3.147-2.744-4.969-3.781zm4.969 3.781c3.854 4.113 6.219 9.637 6.219 15.719 0 12.703-10.297 23-23 23-6.081 0-11.606-2.364-15.719-6.219 4.16 4.144 9.883 6.719 16.219 6.719 12.703 0 23-10.298 23-23 0-6.335-2.575-12.06-6.719-16.219z" style="opacity:.05"/>
 <path d="m41.28 8.781c3.712 4.085 5.969 9.514 5.969 15.469 0 12.703-10.297 23-23 23-5.954 0-11.384-2.256-15.469-5.969 4.113 3.854 9.637 6.219 15.719 6.219 12.703 0 23-10.298 23-23 0-6.081-2.364-11.606-6.219-15.719z" style="opacity:.1"/>
 <path d="m31.25 2.375c8.615 3.154 14.75 11.417 14.75 21.13 0 12.426-10.07 22.5-22.5 22.5-9.708 0-17.971-6.135-21.12-14.75a23 23 0 0 0 44.875-7 23 23 0 0 0-16-21.875z" style="opacity:.2"/>
 <circle cx="24" cy="24" r="23" style="fill:url(#bg)"/>
 <path d="m40.03 7.531c3.712 4.084 5.969 9.514 5.969 15.469 0 12.703-10.297 23-23 23-5.954 0-11.384-2.256-15.469-5.969 4.178 4.291 10.01 6.969 16.469 6.969 12.703 0 23-10.298 23-23 0-6.462-2.677-12.291-6.969-16.469z" style="opacity:.1"/>
 <path d="m14 16c-0.5 0-0.99999 0.49799-0.99999 0.99799h-2e-3l0.0021 17.002h24l-0.0044-14.924c-1.55e-4 -0.531-0.5-1.066-0.99999-1.066h-0.99599c-2.987-0.016-5.9999-8e-3 -8.9999-8e-3l-0.99999-1.998z" style="opacity:.1;stroke-width:.99999"/>
 <path d="m12 16v3l13 1v-3l-1-2h-11c-0.5 0-1 0.5-1 1z" style="fill:#ff8f00"/>
 <rect x="14" y="18" width="11" height="4" style="fill:#fffdf0"/>
 <path d="m36 18.07v14.93h-24v-13.997h12l1-2h10c0.5 0 1 0.533 1 1.067z" style="fill:#ffca28"/>
 <path d="m27.5 19c-1.3807 0-2.5006 1.1193-2.5 2.5 5.4e-5 0.13218 0.01172 0.2641 0.0332 0.39453l-3.7363 1.8691c-0.47069-0.48759-1.1192-0.76351-1.7969-0.76367-1.3807-3.24e-4 -2.5 1.1193-2.5 2.5s1.1193 2.5007 2.5 2.5c0.67703-3.33e-4 1.3247-0.27657 1.7949-0.76367l3.7402 1.8691c-0.02213 0.13037-0.03505 0.26229-0.03516 0.39453-0.0012 1.3807 1.1193 2.5 2.5 2.5s2.5-1.1193 2.5-2.5-1.1193-2.5007-2.5-2.5c-0.67703 3.33e-4 -1.3247 0.27657-1.7949 0.76367l-3.7402-1.8691c0.02214-0.13037 0.03483-0.26229 0.03516-0.39453 3.23e-4 -0.13218-0.01172-0.2641-0.0332-0.39453l3.7363-1.8691c0.47069 0.48759 1.1192 0.76351 1.7969 0.76367 1.3807 3.24e-4 2.5-1.1193 2.5-2.5s-1.1193-2.5-2.5-2.5z" style="fill:#b38c22;paint-order:normal"/>
</svg>
