<svg xmlns="http://www.w3.org/2000/svg" viewBox="0 0 48 48">
 <defs>
  <linearGradient id="linearGradient3764" x1="1" x2="47" gradientUnits="userSpaceOnUse" gradientTransform="matrix(0,-1,1,0,-1.5e-6,47.999998)">
   <stop style="stop-color:#0d3c55;stop-opacity:1"/>
   <stop offset="1" style="stop-color:#104966;stop-opacity:1"/>
  </linearGradient>
 </defs>
 <g>
  <path d="m 36.31 5 c 5.859 4.062 9.688 10.831 9.688 18.5 c 0 12.426 -10.07 22.5 -22.5 22.5 c -7.669 0 -14.438 -3.828 -18.5 -9.688 c 1.037 1.822 2.306 3.499 3.781 4.969 c 4.085 3.712 9.514 5.969 15.469 5.969 c 12.703 0 23 -10.298 23 -23 c 0 -5.954 -2.256 -11.384 -5.969 -15.469 c -1.469 -1.475 -3.147 -2.744 -4.969 -3.781 z m 4.969 3.781 c 3.854 4.113 6.219 9.637 6.219 15.719 c 0 12.703 -10.297 23 -23 23 c -6.081 0 -11.606 -2.364 -15.719 -6.219 c 4.16 4.144 9.883 6.719 16.219 6.719 c 12.703 0 23 -10.298 23 -23 c 0 -6.335 -2.575 -12.06 -6.719 -16.219 z" style="opacity:0.05"/>
  <path d="m 41.28 8.781 c 3.712 4.085 5.969 9.514 5.969 15.469 c 0 12.703 -10.297 23 -23 23 c -5.954 0 -11.384 -2.256 -15.469 -5.969 c 4.113 3.854 9.637 6.219 15.719 6.219 c 12.703 0 23 -10.298 23 -23 c 0 -6.081 -2.364 -11.606 -6.219 -15.719 z" style="opacity:0.1"/>
  <path d="m 31.25 2.375 c 8.615 3.154 14.75 11.417 14.75 21.13 c 0 12.426 -10.07 22.5 -22.5 22.5 c -9.708 0 -17.971 -6.135 -21.12 -14.75 a 23 23 0 0 0 44.875 -7 a 23 23 0 0 0 -16 -21.875 z" style="opacity:0.2"/>
 </g>
 <g>
  <path d="m 24 1 c 12.703 0 23 10.297 23 23 c 0 12.703 -10.297 23 -23 23 -12.703 0 -23 -10.297 -23 -23 0 -12.703 10.297 -23 23 -23 z" style="fill:url(#linearGradient3764);fill-opacity:1"/>
 </g>
 <g>
  <g>
   <g transform="translate(1,1)">
    <g style="opacity:0.1">
     <!-- color: #104966 -->
    </g>
   </g>
  </g>
 </g>
 <g transform="translate(-4.3961299e-4,0)">
  <g>
   <!-- color: #104966 -->
   <g>
    <path d="m 12.05 30.854 c -0.259 0.967 0.448 2.183 1.412 2.441 0.178 0.048 0.355 0.095 0.533 0.143 l 0 0.563 c 0 1 0.996 2 2 2 l 7.574 0 c 2.422 0.649 4.845 1.297 7.268 1.945 0.968 0.259 2.19 -0.444 2.449 -1.41 0.589 -2.2 1.181 -4.399 1.771 -6.598 l 0.938 -0.938 0 -2.559 c 0.65 -2.418 1.299 -4.836 1.947 -7.254 0.256 -0.954 -0.459 -2.191 -1.412 -2.443 l -0.535 -0.143 0 -0.602 c 0 -0.992 -1.012 -2 -2 -2 0 0 -21.999 16.999 -21.945 16.854 z" style="fill:#000;opacity:0.1;fill-opacity:1;stroke:none;fill-rule:nonzero"/>
    <path d="m 17.785 11.04 c -0.859 -0.228 -1.847 0.623 -2.073 1.464 l -4.658 17.352 c -0.259 0.967 0.449 2.184 1.413 2.442 5.792 1.549 11.583 3.101 17.375 4.65 0.968 0.259 2.189 -0.444 2.448 -1.411 1.55 -5.783 3.107 -11.564 4.658 -17.346 0.256 -0.954 -0.461 -2.191 -1.413 -2.444 z" style="fill:#aaa;fill-opacity:1;stroke:none;fill-rule:nonzero"/>
    <path d="m 15 13 c -1 0 -2 1 -2 2 l 0 18 c 0 1 0.996 2 2 2 l 13 0 l 7 -7 l 0 -13 c 0 -0.992 -1.012 -2 -2 -2 l -18 0 z" transform="translate(4.3961299e-4,0)" style="fill:#f9f9f9;fill-opacity:1;stroke:none;fill-rule:nonzero"/>
    <path d="m 18 16 c -2 0 -2 0 -2 2 l 0 12 c 0 2.01 0 2 2 2 l 12 0 l 2 -2 l 0 -12 c 0 -2.01 0 -2 -2 -2 l -12 0 z" transform="translate(4.3961299e-4,0)" style="fill:#71c1ea;fill-opacity:1;stroke:none;fill-rule:nonzero"/>
    <path d="m 21 22 -4.996 4.688 0 3.314 c 0 2.01 0 2 2 2 l 11.996 -0.002 l 2 -3 -5.277 -5.438 -2.404 2 z" transform="translate(4.3961299e-4,0)" style="fill:#1980b3;fill-opacity:1;stroke:none;fill-rule:evenodd"/>
    <path d="m 28,35 7,-7 -5,0 c -0.996,0 -1.996,0.996 -1.996,1.996 l 0,5 M 28,35" style="fill:#ccc;fill-opacity:1;stroke:none;fill-rule:nonzero"/>
   </g>
  </g>
 </g>
 <g>
  <path d="m 40.03 7.531 c 3.712 4.084 5.969 9.514 5.969 15.469 0 12.703 -10.297 23 -23 23 c -5.954 0 -11.384 -2.256 -15.469 -5.969 4.178 4.291 10.01 6.969 16.469 6.969 c 12.703 0 23 -10.298 23 -23 0 -6.462 -2.677 -12.291 -6.969 -16.469 z" style="opacity:0.1"/>
 </g>
</svg>
