<svg version="1.1" viewBox="0 0 48 48" xmlns="http://www.w3.org/2000/svg">
 <defs>
  <linearGradient id="bg" x2="0" y1="1" y2="47" gradientUnits="userSpaceOnUse">
   <stop style="stop-color:#e7efef" offset="0"/>
   <stop style="stop-color:#dbe7e7" offset="1"/>
  </linearGradient>
 </defs>
 <path d="m36.31 5c5.859 4.062 9.688 10.831 9.688 18.5 0 12.426-10.07 22.5-22.5 22.5-7.669 0-14.438-3.828-18.5-9.688 1.037 1.822 2.306 3.499 3.781 4.969 4.085 3.712 9.514 5.969 15.469 5.969 12.703 0 23-10.298 23-23 0-5.954-2.256-11.384-5.969-15.469-1.469-1.475-3.147-2.744-4.969-3.781zm4.969 3.781c3.854 4.113 6.219 9.637 6.219 15.719 0 12.703-10.297 23-23 23-6.081 0-11.606-2.364-15.719-6.219 4.16 4.144 9.883 6.719 16.219 6.719 12.703 0 23-10.298 23-23 0-6.335-2.575-12.06-6.719-16.219z" style="opacity:.05"/>
 <path d="m41.28 8.781c3.712 4.085 5.969 9.514 5.969 15.469 0 12.703-10.297 23-23 23-5.954 0-11.384-2.256-15.469-5.969 4.113 3.854 9.637 6.219 15.719 6.219 12.703 0 23-10.298 23-23 0-6.081-2.364-11.606-6.219-15.719z" style="opacity:.1"/>
 <path d="m31.25 2.375c8.615 3.154 14.75 11.417 14.75 21.13 0 12.426-10.07 22.5-22.5 22.5-9.708 0-17.971-6.135-21.12-14.75a23 23 0 0 0 44.875-7 23 23 0 0 0-16-21.875z" style="opacity:.2"/>
 <circle cx="24" cy="24" r="23" style="fill:url(#bg)"/>
 <path d="m34.361 11.002c-4.069 0.04734-10.346 1.1821-12.309 3.5293h-0.003906c-1.566 2.2854-1.7664 11.229-1.3594 10.678 3.332-4.5398 11.32-10.147 16.09-12.4 2.5756-1.2222 0.74684-1.8435-2.418-1.8066zm-15.201 5.1074c-1.028 0.17532-5.1514 3.031-4.2012 8.1621v0.003907c0.902 2.6215 6.6805 6.1073 6.4805 5.4512-1.641-5.411-2.2338-8.9135-2.0508-13.527 0.0034-0.08552-0.08165-0.11489-0.22852-0.089844zm11.271 2.2969c-2.754 0.19904-7.598 4.9079-6.918 4.8809 5.633-0.19504 9.1519 0.12874 13.547 1.5 0.652 0.20304-0.70291-5.9198-6.6289-6.3809zm-2.9785 4.9023c-0.14528 0.0076-0.20512 0.044967-0.15625 0.11523 3.219 4.6419 4.8548 7.7865 6.0938 12.236 0.184 0.66012 4.5703-3.8068 1.7383-9.0527-1.4525-1.9385-6.6588-3.352-7.6758-3.2988zm-14.971 0.89453c-0.55016 0.29054-1.5592 5.8226 3.2305 8.6797 2.559 1.0472 8.9775-1.0157 8.3555-1.3008-5.137-2.3244-8.1484-4.1856-11.484-7.3652-0.03075-0.02957-0.064889-0.033042-0.10156-0.013672zm16.646 2.8242c-0.03183-0.0083-0.053953 0.007488-0.064453 0.048828-1.426 5.474-2.7417 8.7688-5.3047 12.605-0.383 0.56611 5.8465 1.0154 7.9785-4.5566l0.001953 0.001953c0.56062-2.5383-2.1339-7.9747-2.6113-8.0996zm-1.6133 3.5078c-5.086 2.4415-8.4405 3.5584-13.02 4.0625-0.676 0.07802 3.0002 5.1449 8.6172 3.1875h0.003907c2.445-1.2892 5.0104-7.5431 4.3984-7.25z" style="opacity:.1"/>
 <path d="m40.03 7.531c3.712 4.084 5.969 9.514 5.969 15.469 0 12.703-10.297 23-23 23-5.954 0-11.384-2.256-15.469-5.969 4.178 4.291 10.01 6.969 16.469 6.969 12.703 0 23-10.298 23-23 0-6.462-2.677-12.291-6.969-16.469z" style="opacity:.1"/>
 <path d="m33.362 10.002c-4.069 0.04734-10.346 1.1828-12.309 3.53h-0.0039c-1.566 2.2854-1.7664 11.229-1.3594 10.678 3.332-4.5398 11.32-10.147 16.09-12.401 2.5756-1.2222 0.74684-1.8438-2.418-1.807zm-3.9297 7.4057c-2.754 0.19904-7.598 4.9068-6.918 4.8798 5.633-0.19504 9.1519 0.12902 13.547 1.5003 0.652 0.20304-0.70291-5.919-6.6289-6.3801zm-2.9785 4.9013c-0.14528 0.0076-0.20512 0.04499-0.15625 0.11526 3.219 4.6419 4.8548 7.7868 6.0938 12.237 0.184 0.66012 4.5703-3.8065 1.7383-9.0525-1.4525-1.9385-6.6588-3.3526-7.6758-3.2994zm1.6758 3.7194c-0.03183-0.0083-0.05395 0.0075-0.06445 0.04884-1.426 5.474-2.7417 8.7672-5.3047 12.604-0.383 0.56611 5.8465 1.0165 7.9785-4.5555l2e-3 2e-3c0.56062-2.5383-2.1339-7.9743-2.6113-8.0992zm-1.6133 3.5065c-5.086 2.4415-8.4405 3.5592-13.02 4.0633-0.676 0.07802 3.0002 5.1455 8.6172 3.1881h0.0039c2.445-1.2892 5.0104-7.5444 4.3984-7.2514z" style="fill:#1f8ecd"/>
 <path d="m18.16 15.11c-1.028 0.17532-5.1514 3.0306-4.2012 8.1617v0.0039c0.902 2.6215 6.6805 6.1064 6.4805 5.4502-1.641-5.411-2.2338-8.9121-2.0508-13.526 0.0034-0.08552-0.08165-0.11491-0.22852-0.08986zm-6.6777 8.0933c-0.55016 0.29054-1.5592 5.8223 3.2305 8.6794 2.559 1.0472 8.9775-1.016 8.3555-1.301-5.137-2.3244-8.1484-4.1851-11.484-7.3647-0.03075-0.02957-0.06489-0.03304-0.10156-0.01367z" style="fill:#949494"/>
</svg>
