<svg xmlns="http://www.w3.org/2000/svg" viewBox="0 0 48 48">
 <defs>
  <linearGradient id="linearGradient3764" x1="1" x2="47" gradientUnits="userSpaceOnUse" gradientTransform="matrix(0,-1,1,0,-1.5e-6,47.999998)">
   <stop style="stop-color:#d8e3a1;stop-opacity:1"/>
   <stop offset="1" style="stop-color:#dee8b0;stop-opacity:1"/>
  </linearGradient>
 </defs>
 <g>
  <path d="m 36.31 5 c 5.859 4.062 9.688 10.831 9.688 18.5 c 0 12.426 -10.07 22.5 -22.5 22.5 c -7.669 0 -14.438 -3.828 -18.5 -9.688 c 1.037 1.822 2.306 3.499 3.781 4.969 c 4.085 3.712 9.514 5.969 15.469 5.969 c 12.703 0 23 -10.298 23 -23 c 0 -5.954 -2.256 -11.384 -5.969 -15.469 c -1.469 -1.475 -3.147 -2.744 -4.969 -3.781 z m 4.969 3.781 c 3.854 4.113 6.219 9.637 6.219 15.719 c 0 12.703 -10.297 23 -23 23 c -6.081 0 -11.606 -2.364 -15.719 -6.219 c 4.16 4.144 9.883 6.719 16.219 6.719 c 12.703 0 23 -10.298 23 -23 c 0 -6.335 -2.575 -12.06 -6.719 -16.219 z" style="opacity:0.05"/>
  <path d="m 41.28 8.781 c 3.712 4.085 5.969 9.514 5.969 15.469 c 0 12.703 -10.297 23 -23 23 c -5.954 0 -11.384 -2.256 -15.469 -5.969 c 4.113 3.854 9.637 6.219 15.719 6.219 c 12.703 0 23 -10.298 23 -23 c 0 -6.081 -2.364 -11.606 -6.219 -15.719 z" style="opacity:0.1"/>
  <path d="m 31.25 2.375 c 8.615 3.154 14.75 11.417 14.75 21.13 c 0 12.426 -10.07 22.5 -22.5 22.5 c -9.708 0 -17.971 -6.135 -21.12 -14.75 a 23 23 0 0 0 44.875 -7 a 23 23 0 0 0 -16 -21.875 z" style="opacity:0.2"/>
 </g>
 <g>
  <path d="m 24 1 c 12.703 0 23 10.297 23 23 c 0 12.703 -10.297 23 -23 23 -12.703 0 -23 -10.297 -23 -23 0 -12.703 10.297 -23 23 -23 z" style="fill:url(#linearGradient3764);fill-opacity:1"/>
 </g>
 <g>
  <path d="m 40.03 7.531 c 3.712 4.084 5.969 9.514 5.969 15.469 0 12.703 -10.297 23 -23 23 c -5.954 0 -11.384 -2.256 -15.469 -5.969 4.178 4.291 10.01 6.969 16.469 6.969 c 12.703 0 23 -10.298 23 -23 0 -6.462 -2.677 -12.291 -6.969 -16.469 z" style="opacity:0.1"/>
 </g>
 <path d="m 30 12 c -5.446 0 -10 3 -10 7 0 6 8.5 7.658 8.5 12 0 2.485 -2.5 5 -6.5 5 -3.314 0 -6 -2.01 -6 -4.5 0 -1.349 0.808 -2.546 2.063 -3.371 -1.01 -1.098 -2.396 -2.371 -4.25 -1.457 -1.899 0.937 -2.813 2.785 -2.813 4.527 0 3.756 4.925 6.801 11 6.801 3.5 0 7 -1 9.625 -2.75 c 2.625 -1.75 4.375 -4.25 4.375 -7.25 0 -6 -9 -8 -9 -11.5 0 -1.5 1.753 -2.5 4 -2.5 c 2.247 0 4 1.142 4 2.5 0 0.818 -0.711 1.677 -1.77 2.067 c 2.131 1.609 4.77 0.433 4.77 -2.167 0 -2.745 -4.223 -4.4 -8 -4.4" style="fill:#000;opacity:0.1;fill-opacity:1;stroke:none"/>
 <path d="m 29 11 c -5.446 0 -10 3 -10 7 0 6 8.5 7.658 8.5 12 0 2.485 -2.5 5 -6.5 5 -3.314 0 -6 -2.01 -6 -4.5 0 -1.349 0.808 -2.546 2.063 -3.371 -1.01 -1.098 -2.396 -2.371 -4.25 -1.457 c -1.899 0.937 -2.813 2.785 -2.813 4.527 0 3.756 4.925 6.801 11 6.801 c 3.5 0 7 -1 9.625 -2.75 c 2.625 -1.75 4.375 -4.25 4.375 -7.25 0 -6 -9 -8 -9 -11.5 0 -1.5 1.753 -2.5 4 -2.5 c 2.247 0 4 1.142 4 2.5 0 0.818 -0.711 1.677 -1.77 2.067 c 2.131 1.609 4.77 0.433 4.77 -2.167 0 -2.745 -4.223 -4.4 -8 -4.4" style="fill:#636b3d;opacity:1;fill-opacity:1;stroke:none"/>
</svg>
