<svg version="1.1" viewBox="0 0 48 48" xmlns="http://www.w3.org/2000/svg">
 <defs>
  <linearGradient id="bg" x1="1" x2="47" gradientTransform="rotate(-90,24,24)" gradientUnits="userSpaceOnUse">
   <stop style="stop-color:#ba6b22" offset="0"/>
   <stop style="stop-color:#cb7525" offset="1"/>
  </linearGradient>
 </defs>
 <path d="m36.3 5c5.86 4.06 9.69 10.8 9.69 18.5 0 12.4-10.1 22.5-22.5 22.5-7.67 0-14.4-3.83-18.5-9.69 1.04 1.82 2.31 3.5 3.78 4.97 4.08 3.71 9.51 5.97 15.5 5.97 12.7 0 23-10.3 23-23 0-5.95-2.26-11.4-5.97-15.5-1.47-1.48-3.15-2.74-4.97-3.78zm4.97 3.78c3.85 4.11 6.22 9.64 6.22 15.7 0 12.7-10.3 23-23 23-6.08 0-11.6-2.36-15.7-6.22 4.16 4.14 9.88 6.72 16.2 6.72 12.7 0 23-10.3 23-23 0-6.34-2.58-12.1-6.72-16.2z" style="opacity:.05"/>
 <path d="m41.3 8.78c3.71 4.08 5.97 9.51 5.97 15.5 0 12.7-10.3 23-23 23-5.95 0-11.4-2.26-15.5-5.97 4.11 3.85 9.64 6.22 15.7 6.22 12.7 0 23-10.3 23-23 0-6.08-2.36-11.6-6.22-15.7z" style="opacity:.1"/>
 <path d="m31.2 2.38c8.62 3.15 14.8 11.4 14.8 21.1 0 12.4-10.1 22.5-22.5 22.5-9.71 0-18-6.14-21.1-14.8a23 23 0 0 0 44.9-7 23 23 0 0 0-16-21.9z" style="opacity:.2"/>
 <path d="m1 24c0-12.7 10.3-23 23-23s23 10.3 23 23-10.3 23-23 23-23-10.3-23-23z" style="fill:url(#bg)"/>
 <path d="m40 7.53c3.71 4.08 5.97 9.51 5.97 15.5 0 12.7-10.3 23-23 23-5.95 0-11.4-2.26-15.5-5.97 4.18 4.29 10 6.97 16.5 6.97 12.7 0 23-10.3 23-23 0-6.46-2.68-12.3-6.97-16.5z" style="opacity:.1"/>
 <path d="m38 12-2 2-2 5-3-3v-2h-6v3h-6v-3h-6v5l-2 1v10h2v6h6v-3h6v3h6v-3h1l2-2 2 5 2 2 1-1-2-2v-20l2-2z" style="opacity:.1"/>
 <path d="m12 13v5h2l4-2v-3zm12 0v4h6v-4zm-14 6v10h5v-10zm2 11v5h6v-3l-4-2zm12 1v4h6v-4z" style="fill:#474747"/>
 <path d="m35 35 2 2 1-1-2-2v-20l2-2-1-1-2 2-1 11z" style="fill:#dada0c"/>
 <path d="m35 13-2 5-2-2h-17v1l1 7-1 7v1h17l2-2 2 5z" style="fill:#fc8855"/>
 <path d="m28 17 4 2v10l-4 2-1-7z" style="fill:#95cbe4"/>
 <rect x="14" y="17" width="14" height="14" style="fill:#dada0c"/>
 <path d="m15 32v1h3v-1h-3zm9 0v1h6v-1h-6z" style="opacity:.1"/>
</svg>
