<svg version="1.1" viewBox="0 0 48 48" xmlns="http://www.w3.org/2000/svg">
 <defs>
  <linearGradient id="bg" x2="0" y1="1" y2="47" gradientUnits="userSpaceOnUse">
   <stop style="stop-color:#ff8275" offset="0"/>
   <stop style="stop-color:#ff7061" offset="1"/>
  </linearGradient>
 </defs>
 <path d="m36.31 5c5.859 4.062 9.688 10.831 9.688 18.5 0 12.426-10.07 22.5-22.5 22.5-7.669 0-14.438-3.828-18.5-9.688 1.037 1.822 2.306 3.499 3.781 4.969 4.085 3.712 9.514 5.969 15.469 5.969 12.703 0 23-10.298 23-23 0-5.954-2.256-11.384-5.969-15.469-1.469-1.475-3.147-2.744-4.969-3.781zm4.969 3.781c3.854 4.113 6.219 9.637 6.219 15.719 0 12.703-10.297 23-23 23-6.081 0-11.606-2.364-15.719-6.219 4.16 4.144 9.883 6.719 16.219 6.719 12.703 0 23-10.298 23-23 0-6.335-2.575-12.06-6.719-16.219z" style="opacity:.05"/>
 <path d="m41.28 8.781c3.712 4.085 5.969 9.514 5.969 15.469 0 12.703-10.297 23-23 23-5.954 0-11.384-2.256-15.469-5.969 4.113 3.854 9.637 6.219 15.719 6.219 12.703 0 23-10.298 23-23 0-6.081-2.364-11.606-6.219-15.719z" style="opacity:.1"/>
 <path d="m31.25 2.375c8.615 3.154 14.75 11.417 14.75 21.13 0 12.426-10.07 22.5-22.5 22.5-9.708 0-17.971-6.135-21.12-14.75a23 23 0 0 0 44.875-7 23 23 0 0 0-16-21.875z" style="opacity:.2"/>
 <g style="fill:#fea">
  <path d="m24 1c12.703 0 23 10.297 23 23s-10.297 23-23 23-23-10.297-23-23 10.297-23 23-23z" style="fill:url(#bg)"/>
 </g>
 <path d="m40.03 7.531c3.712 4.084 5.969 9.514 5.969 15.469 0 12.703-10.297 23-23 23-5.954 0-11.384-2.256-15.469-5.969 4.178 4.291 10.01 6.969 16.469 6.969 12.703 0 23-10.298 23-23 0-6.462-2.677-12.291-6.969-16.469z" style="opacity:.1"/>
 <g transform="matrix(.42306 0 0 .42309 19.347 10.769)"></g>
 <rect x="13" y="13" width="24" height="24" rx="2" style="opacity:.1"/>
 <rect x="12" y="12" width="24" height="24" rx="2" style="fill:#afafaf"/>
 <rect x="14" y="14" width="6" height="6" rx="1" style="fill:#8e8e8e"/>
 <rect x="21" y="14" width="6" height="6" rx="1" style="fill:#ececec"/>
 <rect x="28" y="14" width="6" height="6" rx="1" style="fill:#ececec"/>
 <rect x="14" y="21" width="6" height="6" rx="1" style="fill:#8e8e8e"/>
 <rect x="21" y="21" width="6" height="6" rx="1" style="fill:#8e8e8e"/>
 <rect x="28" y="21" width="6" height="6" rx="1" style="fill:#ececec"/>
 <rect x="14" y="28" width="6" height="6" rx="1" style="fill:#ececec"/>
 <rect x="21" y="28" width="6" height="6" rx="1" style="fill:#ececec"/>
 <rect x="28" y="28" width="6" height="6" rx="1" style="fill:#8e8e8e"/>
 <path d="m17.05 17.019c-0.16998 0-0.29845 0.05666-0.38344 0.17101-0.084 0.11232-0.14626 0.2813-0.14626 0.50696s0.06226 0.39565 0.14626 0.50898c0.08598 0.11232 0.21346 0.16797 0.38344 0.16797 0.17196 0 0.29944-0.05565 0.38344-0.16797 0.08598-0.11333 0.14824-0.28333 0.14824-0.50898s-0.06325-0.39464-0.14824-0.50696c-0.084-0.11333-0.21247-0.17101-0.38344-0.17101zm1.2017-1.8538v0.71338c-0.1601-0.07792-0.31031-0.13458-0.45163-0.17101-0.14132-0.03744-0.27968-0.05667-0.41408-0.05667-0.28956 0-0.51488 0.08298-0.67695 0.24791-0.16207 0.16393-0.25596 0.40779-0.28264 0.7316 0.11068-0.08399 0.23125-0.14774 0.36071-0.18922 0.12946-0.04351 0.27078-0.06476 0.42396-0.06476 0.38542 0 0.69573 0.11536 0.93192 0.34606 0.23718 0.23071 0.35577 0.53326 0.35577 0.90766 0 0.41386-0.13243 0.74576-0.39629 0.9957-0.26386 0.24791-0.61865 0.37237-1.0634 0.37237-0.49017 0-0.86966-0.16898-1.1385-0.50696-0.26782-0.33999-0.40123-0.82064-0.40123-1.443 0-0.63749 0.15614-1.1384 0.46942-1.5027 0.31525-0.36529 0.74613-0.54844 1.2926-0.54844 0.17294 0 0.34194 0.01417 0.505 0.04149 0.16306 0.02732 0.32514 0.06881 0.48523 0.12446z" style="fill:#292929"/>
 <path d="m15.5 22h3.003v0.58136l-1.5524 3.419h-0.99766l1.4696-3.2416h-1.9175v-0.75777z" style="fill:#292929"/>
 <path d="m24.678 23.844q0.40242 0.10037 0.61074 0.35131 0.21035 0.24798 0.21035 0.63275 0 0.5737-0.45323 0.87286-0.45323 0.29718-1.3231 0.29718-0.30689 0-0.61582-0.0492-0.30689-0.04625-0.60769-0.1417v-0.76658q0.28759 0.13974 0.57111 0.21157 0.28555 0.06987 0.55993 0.06987 0.4075 0 0.62395-0.13678 0.21848-0.13678 0.21848-0.39264 0-0.26373-0.22356-0.39756-0.22153-0.13678-0.65647-0.13678h-0.41055v-0.64062h0.43189q0.38717 0 0.57619-0.11612 0.18901-0.11907 0.18901-0.35918 0-0.2224-0.18393-0.34344-0.18393-0.12104-0.5203-0.12104-0.24795 0-0.50099 0.05412-0.25304 0.05412-0.50404 0.1604v-0.7282q0.30384-0.08266 0.60261-0.12399 0.29876-0.04133 0.58635-0.04133 0.77638 0 1.1605 0.24798 0.38717 0.24503 0.38717 0.74099 0 0.33852-0.18393 0.55501-0.18393 0.21452-0.54367 0.3021z" style="fill:#292929"/>
 <path d="m30.683 32.253h1.8164v0.74437h-3.0003v-0.74437l1.5068-1.2653q0.20193-0.17365 0.29828-0.3395 0.09635-0.16585 0.09635-0.34438 0-0.27609-0.19681-0.44486-0.19373-0.16878-0.51662-0.16878-0.24908 0-0.54429 0.10244-0.29623 0.10048-0.63347 0.30048v-0.86339q0.35979-0.11317 0.71035-0.17073 0.35159-0.06049 0.68882-0.06049 0.7411 0 1.1501 0.31023 0.41206 0.31023 0.41206 0.86534 0 0.32096-0.17426 0.59998-0.17426 0.27609-0.7329 0.74242l-0.88153 0.73656z" style="fill:#292929"/>
</svg>
