<?xml version="1.0" encoding="UTF-8"?>
<svg version="1.1" viewBox="0 0 48 48" xmlns="http://www.w3.org/2000/svg">
 <defs>
  <linearGradient id="bg" x2="0" y1="1" y2="47" gradientUnits="userSpaceOnUse">
   <stop style="stop-color:#e2806f" offset="0"/>
   <stop style="stop-color:#df715d" offset="1"/>
  </linearGradient>
 </defs>
 <path d="m36.3 5c5.86 4.06 9.69 10.8 9.69 18.5 0 12.4-10.1 22.5-22.5 22.5-7.67 0-14.4-3.83-18.5-9.69 1.04 1.82 2.31 3.5 3.78 4.97 4.08 3.71 9.51 5.97 15.5 5.97 12.7 0 23-10.3 23-23 0-5.95-2.26-11.4-5.97-15.5-1.47-1.48-3.15-2.74-4.97-3.78zm4.97 3.78c3.85 4.11 6.22 9.64 6.22 15.7 0 12.7-10.3 23-23 23-6.08 0-11.6-2.36-15.7-6.22 4.16 4.14 9.88 6.72 16.2 6.72 12.7 0 23-10.3 23-23 0-6.34-2.58-12.1-6.72-16.2z" style="opacity:.05"/>
 <path d="m41.3 8.78c3.71 4.08 5.97 9.51 5.97 15.5 0 12.7-10.3 23-23 23-5.95 0-11.4-2.26-15.5-5.97 4.11 3.85 9.64 6.22 15.7 6.22 12.7 0 23-10.3 23-23 0-6.08-2.36-11.6-6.22-15.7z" style="opacity:.1"/>
 <path d="m31.2 2.38c8.62 3.15 14.8 11.4 14.8 21.1 0 12.4-10.1 22.5-22.5 22.5-9.71 0-18-6.14-21.1-14.8a23 23 0 0 0 44.9-7 23 23 0 0 0-16-21.9z" style="opacity:.2"/>
 <circle cx="24" cy="24" r="23" style="fill:url(#bg)"/>
 <path d="m40 7.53c3.71 4.08 5.97 9.51 5.97 15.5 0 12.7-10.3 23-23 23-5.95 0-11.4-2.26-15.5-5.97 4.18 4.29 10 6.97 16.5 6.97 12.7 0 23-10.3 23-23 0-6.46-2.68-12.3-6.97-16.5z" style="opacity:.1"/>
 <path d="m25 10a15 15 0 0 0-15 15 15 15 0 0 0 15 15 15 15 0 0 0 15-15 15 15 0 0 0-15-15zm-4 11c3.5 0 8 4.5 8 8-3.5 0-8-4.5-8-8z" style="opacity:.1"/>
 <path d="m29 10c-4.97 0-12 1-12 1l3 9c4.2 0.243 8 5 8 8 0-1.2e-5 -9.4 9.99-9.4 9.99 1.72 0.666 3.55 1.01 5.4 1.01 8.28-0.00106 15-6.72 15-15-0.0172-6.23-3.77-11.8-9.6-14-0.0989-0.0035-0.301-0.00957-0.4-0.00977z" style="fill:#5c5c5c"/>
 <path d="m24 9c-8.28 0-15 6.72-15 15 0.0172 6.23 3.88 11.8 9.7 14 0.0989 0.0035 0.198 0.0076 0.297 0.0078 5.5 1e-5 9-4 9-10-4.51-0.541-7.98-4.45-8-9 0-4.97 4.03-9 9-9 0.133 3.25e-4 0.266 0.0036 0.398 0.0098-1.72-0.666-3.55-1.01-5.4-1.01z" style="fill:#707070"/>
</svg>
