<svg version="1.1" viewBox="0 0 48 48" xmlns="http://www.w3.org/2000/svg">
 <defs>
  <linearGradient id="bg" x1="1" x2="47" gradientTransform="rotate(-90 24 24)" gradientUnits="userSpaceOnUse">
   <stop style="stop-color:#415164" offset="0"/>
   <stop style="stop-color:#485a70" offset="1"/>
  </linearGradient>
  <linearGradient id="linearGradient4245" x2="0" y1="22" y2="10" gradientTransform="matrix(.66549 1.2758 -1.2516 .67833 21.873 -16.861)" gradientUnits="userSpaceOnUse">
   <stop style="stop-color:#c8c8c8;stop-opacity:.259" offset="0"/>
   <stop style="stop-color:#b4b4b4;stop-opacity:0" offset="1"/>
  </linearGradient>
  <linearGradient id="linearGradient4215" x2="0" y1="21" y2="2" gradientTransform="matrix(.66555 1.2833 -1.2517 .68232 21.874 -17.137)" gradientUnits="userSpaceOnUse">
   <stop style="stop-color:#d2d2d2;stop-opacity:.706" offset="0"/>
   <stop style="stop-color:#cecece;stop-opacity:.565" offset=".092"/>
   <stop style="stop-color:#d7d7d7;stop-opacity:.259" offset="1"/>
  </linearGradient>
  <linearGradient id="linearGradient4223" x2="0" y1="21" y2="4" gradientTransform="matrix(.66549 1.2814 -1.2516 .68134 21.873 -17.067)" gradientUnits="userSpaceOnUse">
   <stop style="stop-color:#fdfdfb;stop-opacity:.827" offset="0"/>
   <stop style="stop-color:#fbfbf7;stop-opacity:.275" offset=".254"/>
   <stop style="stop-color:#fafafa;stop-opacity:.196" offset="1"/>
  </linearGradient>
  <linearGradient id="linearGradient4380" x2="0" y1="21" y2="2" gradientTransform="matrix(.66555 1.2833 -1.2517 .68232 22.874 -16.137)" gradientUnits="userSpaceOnUse">
   <stop style="stop-opacity:.063" offset="0"/>
   <stop style="stop-opacity:.055" offset=".092"/>
   <stop style="stop-opacity:.008" offset="1"/>
  </linearGradient>
  <linearGradient id="linearGradient4392" x2="0" y1="21" y2="4" gradientTransform="matrix(.66549 1.2814 -1.2516 .68134 22.873 -16.067)" gradientUnits="userSpaceOnUse">
   <stop style="stop-opacity:.047" offset="0"/>
   <stop style="stop-opacity:.024" offset=".254"/>
   <stop style="stop-opacity:.004" offset="1"/>
  </linearGradient>
  <linearGradient id="linearGradient4404" x2="0" y1="22" y2="10" gradientTransform="matrix(.66549 1.2758 -1.2516 .67833 22.873 -15.861)" gradientUnits="userSpaceOnUse">
   <stop style="stop-opacity:.047" offset="0"/>
   <stop style="stop-opacity:0" offset="1"/>
  </linearGradient>
 </defs>
 <path d="m36.31 5c5.859 4.062 9.688 10.831 9.688 18.5 0 12.426-10.07 22.5-22.5 22.5-7.669 0-14.438-3.828-18.5-9.688 1.037 1.822 2.306 3.499 3.781 4.969 4.085 3.712 9.514 5.969 15.469 5.969 12.703 0 23-10.298 23-23 0-5.954-2.256-11.384-5.969-15.469-1.469-1.475-3.147-2.744-4.969-3.781zm4.969 3.781c3.854 4.113 6.219 9.637 6.219 15.719 0 12.703-10.297 23-23 23-6.081 0-11.606-2.364-15.719-6.219 4.16 4.144 9.883 6.719 16.219 6.719 12.703 0 23-10.298 23-23 0-6.335-2.575-12.06-6.719-16.219z" style="opacity:.05"/>
 <path d="m41.28 8.781c3.712 4.085 5.969 9.514 5.969 15.469 0 12.703-10.297 23-23 23-5.954 0-11.384-2.256-15.469-5.969 4.113 3.854 9.637 6.219 15.719 6.219 12.703 0 23-10.298 23-23 0-6.081-2.364-11.606-6.219-15.719z" style="opacity:.1"/>
 <path d="m31.25 2.375c8.615 3.154 14.75 11.417 14.75 21.13 0 12.426-10.07 22.5-22.5 22.5-9.708 0-17.971-6.135-21.12-14.75a23 23 0 0 0 44.875-7 23 23 0 0 0-16-21.875z" style="opacity:.2"/>
 <path d="m24 1c12.703 0 23 10.297 23 23s-10.297 23-23 23-23-10.297-23-23 10.297-23 23-23z" style="fill:url(#bg)"/>
 <g transform="translate(.00015728)">
  <path d="m45.5 27.515s-29.611 7.866-32.27 2.763c-2.662-5.103 17.773-27.28 17.773-27.28" style="fill:url(#linearGradient4404)"/>
  <path d="m19.565 30.11c-2.78 1.515-5.672 1.446-6.338 0.163-0.829-1.598 0.896-3.78 3.676-5.296 2.78-1.515 19.679-8.493 20.11-7.668 0.428 0.825-14.664 11.286-17.445 12.801" style="fill:url(#linearGradient4380)"/>
  <path d="m19.232 29.473c-2.049 1.115-4.915 1.665-5.504 0.531-0.61-1.175 1.459-3.26 3.508-4.375s15.782-6.708 16.02-6.254c0.236 0.454-11.972 8.983-14.02 10.1z" style="fill:url(#linearGradient4392)"/>
 </g>
 <path d="m40.03 7.531c3.712 4.084 5.969 9.514 5.969 15.469 0 12.703-10.297 23-23 23-5.954 0-11.384-2.256-15.469-5.969 4.178 4.291 10.01 6.969 16.469 6.969 12.703 0 23-10.298 23-23 0-6.462-2.677-12.291-6.969-16.469z" style="opacity:.1"/>
 <path d="m44.5 26.515s-29.611 7.866-32.27 2.763c-2.662-5.103 17.773-26.28 17.773-26.28" style="fill:url(#linearGradient4245)"/>
 <path d="m18.565 29.11c-2.78 1.515-5.672 1.446-6.338 0.163-0.829-1.598 0.896-3.78 3.676-5.296 2.78-1.515 19.679-8.493 20.11-7.668 0.428 0.825-14.664 11.286-17.445 12.801z" style="fill:url(#linearGradient4215)"/>
 <path d="m18.232 28.474c-2.049 1.115-4.915 1.665-5.504 0.531-0.61-1.175 1.459-3.26 3.508-4.375s15.782-6.708 16.02-6.254c0.236 0.454-11.972 8.983-14.02 10.1z" style="fill:url(#linearGradient4223)"/>
 <circle cx="29.5" cy="11.5" r=".5" style="fill-opacity:.757;fill:#d3e5e9"/>
 <circle cx="35.5" cy="9.5" r=".5" style="fill-opacity:.757;fill:#d3e5e9"/>
 <circle cx="14.5" cy="16.5" r=".5" style="fill-opacity:.758;fill:#f1f0d1"/>
 <circle cx="22.5" cy="18.5" r=".5" style="fill-opacity:.757;fill:#f1f0d1"/>
 <circle cx="38.5" cy="20.5" r=".5" style="fill-opacity:.757;fill:#f1f0d1"/>
 <circle cx="27.5" cy="29.5" r=".5" style="fill-opacity:.758;fill:#d3e5e9"/>
 <circle cx="11.5" cy="23.5" r=".5" style="fill-opacity:.758;fill:#d3e5e9"/>
 <circle cx="21.5" cy="9.5" r=".5" style="fill-opacity:.758;fill:#d3e5e9"/>
 <circle cx="9.5" cy="15.5" r=".5" style="fill-opacity:.758;fill:#d3e5e9"/>
 <circle cx="37.5" cy="14.5" r=".5" style="fill-opacity:.757;fill:#f1f0d1"/>
 <circle cx="36.5" cy="29.5" r=".5" style="fill-opacity:.758;fill:#d3e5e9"/>
 <circle cx="26.5" cy="34.5" r=".5" style="fill-opacity:.758;fill:#d3e5e9"/>
 <circle cx="6.5" cy="28.5" r=".5" style="fill-opacity:.758;fill:#d3e5e9"/>
 <circle cx="7.5" cy="20.5" r=".5" style="fill-opacity:.758;fill:#d3e5e9"/>
 <circle cx="42.5" cy="22.5" r=".5" style="fill-opacity:.758;fill:#d3e5e9"/>
 <circle cx="11.5" cy="10.5" r=".5" style="fill-opacity:.758;fill:#d3e5e9"/>
 <circle cx="15.5" cy="10.5" r=".5" style="fill-opacity:.758;fill:#d3e5e9"/>
 <circle cx="15.5" cy="5.5" r=".5" style="fill-opacity:.757;fill:#f1f0d1"/>
 <circle cx="6.5" cy="13.5" r=".5" style="fill-opacity:.757;fill:#ece1d0"/>
 <circle cx="32.5" cy="25.5" r=".5" style="fill-opacity:.757;fill:#f1f0d1"/>
 <circle cx="16.5" cy="20.5" r=".5" style="fill-opacity:.758;fill:#ece1d0"/>
 <circle cx="25.5" cy="6.5" r=".5" style="fill-opacity:.757;fill:#d3e5e9"/>
 <circle cx="22.5" cy="3.5" r=".5" style="fill-opacity:.757;fill:#ece1d0"/>
 <circle cx="40.5" cy="16.5" r=".5" style="fill-opacity:.757;fill:#d3e5e9"/>
 <circle cx="25.5" cy="15.5" r=".5" style="fill-opacity:.757;fill:#d3e5e9"/>
 <circle cx="40.5" cy="28.5" r=".5" style="fill-opacity:.757;fill:#d3e5e9"/>
 <circle cx="5.5" cy="24.5" r=".5" style="fill-opacity:.757;fill:#f1f0d1"/>
 <circle cx="9.5" cy="30.5" r=".5" style="fill-opacity:.758;fill:#d3e5e9"/>
 <path d="m23.5 4c-0.276 0-0.5 0.224-0.5 0.5s0.224 0.5 0.5 0.5 0.5-0.224 0.5-0.5-0.224-0.5-0.5-0.5zm-7 2c-0.276 0-0.5 0.224-0.5 0.5s0.224 0.5 0.5 0.5 0.5-0.224 0.5-0.5-0.224-0.5-0.5-0.5zm10 1c-0.276 0-0.5 0.224-0.5 0.5s0.224 0.5 0.5 0.5 0.5-0.224 0.5-0.5-0.224-0.5-0.5-0.5zm-4 3c-0.276 0-0.5 0.224-0.5 0.5s0.224 0.5 0.5 0.5 0.5-0.224 0.5-0.5-0.224-0.5-0.5-0.5m14 0c-0.276 0-0.5 0.224-0.5 0.5s0.224 0.5 0.5 0.5 0.5-0.224 0.5-0.5-0.224-0.5-0.5-0.5m-24 1c-0.276 0-0.5 0.224-0.5 0.5s0.224 0.5 0.5 0.5 0.5-0.224 0.5-0.5-0.224-0.5-0.5-0.5m4 0c-0.276 0-0.5 0.224-0.5 0.5s0.224 0.5 0.5 0.5 0.5-0.224 0.5-0.5-0.224-0.5-0.5-0.5m14 1c-0.276 0-0.5 0.224-0.5 0.5s0.224 0.5 0.5 0.5 0.5-0.224 0.5-0.5-0.224-0.5-0.5-0.5m-23 2c-0.276 0-0.5 0.224-0.5 0.5s0.224 0.5 0.5 0.5 0.5-0.224 0.5-0.5-0.224-0.5-0.5-0.5m14 1c-0.276 0-0.5 0.224-0.5 0.5s0.224 0.5 0.5 0.5 0.5-0.224 0.5-0.5-0.224-0.5-0.5-0.5m17 0c-0.276 0-0.5 0.224-0.5 0.5s0.224 0.5 0.5 0.5 0.5-0.224 0.5-0.5-0.224-0.5-0.5-0.5m-28 1c-0.276 0-0.5 0.224-0.5 0.5s0.224 0.5 0.5 0.5 0.5-0.224 0.5-0.5-0.224-0.5-0.5-0.5m16 0c-0.276 0-0.5 0.224-0.5 0.5s0.224 0.5 0.5 0.5 0.5-0.224 0.5-0.5-0.224-0.5-0.5-0.5m-11 1c-0.276 0-0.5 0.224-0.5 0.5s0.224 0.5 0.5 0.5 0.5-0.224 0.5-0.5-0.224-0.5-0.5-0.5m26 0c-0.276 0-0.5 0.224-0.5 0.5s0.224 0.5 0.5 0.5 0.5-0.224 0.5-0.5-0.224-0.5-0.5-0.5m-18 2c-0.276 0-0.5 0.224-0.5 0.5s0.224 0.5 0.5 0.5 0.5-0.224 0.5-0.5-0.224-0.5-0.5-0.5m-15 2c-0.276 0-0.5 0.224-0.5 0.5s0.224 0.5 0.5 0.5 0.5-0.224 0.5-0.5-0.224-0.5-0.5-0.5m9 0c-0.276 0-0.5 0.224-0.5 0.5s0.224 0.5 0.5 0.5 0.5-0.224 0.5-0.5-0.224-0.5-0.5-0.5m22 0c-0.276 0-0.5 0.224-0.5 0.5s0.224 0.5 0.5 0.5 0.5-0.224 0.5-0.5-0.224-0.5-0.5-0.5m4 2c-0.276 0-0.5 0.224-0.5 0.5s0.224 0.5 0.5 0.5 0.5-0.224 0.5-0.5-0.224-0.5-0.5-0.5m-31 1c-0.276 0-0.5 0.224-0.5 0.5s0.224 0.5 0.5 0.5 0.5-0.224 0.5-0.5-0.224-0.5-0.5-0.5m-6 1c-0.276 0-0.5 0.224-0.5 0.5s0.224 0.5 0.5 0.5 0.5-0.224 0.5-0.5-0.224-0.5-0.5-0.5m27 1c-0.276 0-0.5 0.224-0.5 0.5s0.224 0.5 0.5 0.5 0.5-0.224 0.5-0.5-0.224-0.5-0.5-0.5m-26 3c-0.276 0-0.5 0.224-0.5 0.5s0.224 0.5 0.5 0.5 0.5-0.224 0.5-0.5-0.224-0.5-0.5-0.5m34 0c-0.276 0-0.5 0.224-0.5 0.5s0.224 0.5 0.5 0.5 0.5-0.224 0.5-0.5-0.224-0.5-0.5-0.5m-13 1c-0.276 0-0.5 0.224-0.5 0.5s0.224 0.5 0.5 0.5 0.5-0.224 0.5-0.5-0.224-0.5-0.5-0.5m9 0c-0.276 0-0.5 0.224-0.5 0.5s0.224 0.5 0.5 0.5 0.5-0.224 0.5-0.5-0.224-0.5-0.5-0.5m-27 1c-0.276 0-0.5 0.224-0.5 0.5s0.224 0.5 0.5 0.5 0.5-0.224 0.5-0.5-0.224-0.5-0.5-0.5m12 4c-0.276 0-0.5 0.224-0.5 0.5s0.224 0.5 0.5 0.5 0.5-0.224 0.5-0.5-0.224-0.5-0.5-0.5m5 0c-0.276 0-0.5 0.224-0.5 0.5s0.224 0.5 0.5 0.5 0.5-0.224 0.5-0.5-0.224-0.5-0.5-0.5m-16 1c-0.276 0-0.5 0.224-0.5 0.5s0.224 0.5 0.5 0.5 0.5-0.224 0.5-0.5-0.224-0.5-0.5-0.5m6 0c-0.276 0-0.5 0.224-0.5 0.5s0.224 0.5 0.5 0.5 0.5-0.224 0.5-0.5-0.224-0.5-0.5-0.5m21 0c-0.276 0-0.5 0.224-0.5 0.5s0.224 0.5 0.5 0.5 0.5-0.224 0.5-0.5-0.224-0.5-0.5-0.5m-5 2c-0.276 0-0.5 0.224-0.5 0.5s0.224 0.5 0.5 0.5 0.5-0.224 0.5-0.5-0.224-0.5-0.5-0.5m-10 2c-0.276 0-0.5 0.224-0.5 0.5s0.224 0.5 0.5 0.5 0.5-0.224 0.5-0.5-0.224-0.5-0.5-0.5m-7 1c-0.276 0-0.5 0.224-0.5 0.5s0.224 0.5 0.5 0.5 0.5-0.224 0.5-0.5-0.224-0.5-0.5-0.5m12 1c-0.276 0-0.5 0.224-0.5 0.5s0.224 0.5 0.5 0.5 0.5-0.224 0.5-0.5-0.224-0.5-0.5-0.5" style="opacity:.1"/>
 <circle cx="21.5" cy="34.5" r=".5" style="fill:#b0c2ca"/>
 <circle cx="32.5" cy="37.5" r=".5" style="fill:#c8cbb8"/>
 <circle cx="10.5" cy="35.5" r=".5" style="fill:#c8cbb8"/>
 <circle cx="27.5" cy="41.5" r=".5" style="fill:#b0c2ca"/>
 <circle cx="20.5" cy="14.5" r=".5" style="fill:#c8ccb9"/>
 <circle cx="15.5" cy="40.5" r=".5" style="fill:#b0c2ca"/>
 <circle cx="16.5" cy="35.5" r=".5" style="fill:#c8cbb8"/>
 <circle cx="22.5" cy="39.5" r=".5" style="fill:#c8cbb8"/>
 <circle cx="37.5" cy="35.5" r=".5" style="fill:#b0c2ca"/>
</svg>
