<svg version="1.1" viewBox="0 0 48 48" xmlns="http://www.w3.org/2000/svg" xmlns:xlink="http://www.w3.org/1999/xlink">
 <defs>
  <linearGradient id="linearGradient857" x1="-6.1484" x2="8.729" y1="38.001" y2="-5.5266" gradientUnits="userSpaceOnUse">
   <stop style="stop-color:#ede9e5" offset="0"/>
   <stop style="stop-color:#f5f3f1;stop-opacity:.98544" offset="1"/>
  </linearGradient>
 </defs>
 <path d="m36.31 5c5.859 4.062 9.688 10.831 9.688 18.5 0 12.426-10.07 22.5-22.5 22.5-7.669 0-14.438-3.828-18.5-9.688 1.037 1.822 2.306 3.499 3.781 4.969 4.085 3.712 9.514 5.969 15.469 5.969 12.703 0 23-10.298 23-23 0-5.954-2.256-11.384-5.969-15.469-1.469-1.475-3.147-2.744-4.969-3.781zm4.969 3.781c3.854 4.113 6.219 9.637 6.219 15.719 0 12.703-10.297 23-23 23-6.081 0-11.606-2.364-15.719-6.219 4.16 4.144 9.883 6.719 16.219 6.719 12.703 0 23-10.298 23-23 0-6.335-2.575-12.06-6.719-16.219z" style="opacity:.05"/>
 <path d="m41.28 8.781c3.712 4.085 5.969 9.514 5.969 15.469 0 12.703-10.297 23-23 23-5.954 0-11.384-2.256-15.469-5.969 4.113 3.854 9.637 6.219 15.719 6.219 12.703 0 23-10.298 23-23 0-6.081-2.364-11.606-6.219-15.719z" style="opacity:.1"/>
 <path d="m31.25 2.375c8.615 3.154 14.75 11.417 14.75 21.13 0 12.426-10.07 22.5-22.5 22.5-9.708 0-17.971-6.135-21.12-14.75a23 23 0 0 0 44.875-7 23 23 0 0 0-16-21.875z" style="opacity:.2"/>
 <g transform="rotate(-18.87 24.002 24.001)">
  <path d="m34.361 33.881 0.40204 10.402c0.0013-6.86e-4 0.0026-0.0013 0.0039-2e-3 3.9288-2.0665 7.0742-5.3382 9.2794-9.0548h2e-3c-3.2e-4 -4.24e-4 3.21e-4 -0.0015 0-2e-3 -2.3e-4 0.0029-9.6874-1.343-9.6874-1.343z" style="fill:#d6100e;stroke-width:.99999"/>
  <path d="m3.8574 35.021c2.145 3.9247 5.288 6.8906 9.0451 9.0821v2e-3c7.83e-4 4.33e-4 0.0012 0.0015 2e-3 2e-3 2.168-2.5542 3.2876-5.5359 0.16797-9.2168-4.4-1.2661-6.9233-2.2766-9.2151 0.13067z" style="fill:#40113f;stroke-width:.99999"/>
  <path d="m12.931 35.011-0.0039 9.0977c6.8399 3.7166 15.027 3.7203 21.84 0.17185 0.07467-0.03958 0.14458-0.08659 0.21875-0.12695v-9c-12.578-9.5851-19.825-13.119-22.054-0.1426z" style="fill:#e5186b;stroke-width:.99999"/>
  <path transform="rotate(18.87,24.002,24.001)" d="m27.766 1.3398c-4.52e-4 0.0017395-0.001394 0.0040936-0.001953 0.0058593l2.2363 9.6543s8.1952 1.2092 9.6172-3.832c9.86e-4 -0.0032964 9.66e-4 -0.0064693 0.001953-0.0097657-3.5185-3.116-7.4501-5.071-11.854-5.8184z" style="fill:#76971f;stroke-width:.99999"/>
  <path transform="rotate(18.87,24.002,24.001)" d="m7.127 8.418c-3.0467 3.3135-5.0515 7.5232-5.7852 11.822 0.0038245-2.5e-4 0.005941 2.51e-4 0.0097656 0 0.0015649-0.003847 9.6484-2.2402 9.6484-2.2402l-3.8691-9.5801c-7.936e-4 -7.75e-4 -0.003137-0.0011758-0.0039063-0.0019531z" style="fill:#20a58f;stroke-width:.99999"/>
  <path d="m13.076 3.8008c-9.52e-4 -0.00188-9.53e-4 -0.00398-2e-3 -0.00586-0.02934 0.015886-0.05667 0.034773-0.08594 0.050781v9.0957c7.3817 5.8751 14.69 5.0933 21.881 0.17774l0.15234-0.14648v-9.1234c-0.04384-0.024012-0.08489-0.052436-0.12891-0.076172-0.0015 0.00193-0.0024 0.00393-0.0039 0.00586-6.9004-3.6139-14.926-3.6459-21.813 0.021831z" style="fill:#82d2e0;stroke-width:.99999"/>
  <path d="m35.021 12.973c-4.2966 6.5299-4.9489 13.874-0.03516 22.182l9.0605 0.07227h2e-3v-2e-3c3.8385-6.8371 3.7483-15.332 0.17183-22.102 2e-3 -0.0028 0.0039-5e-3 0.0059-0.0078-0.02624-0.04875-0.05741-0.09404-0.08398-0.14258z" style="fill:#edb624;stroke-width:.99999"/>
  <path d="m3.877 12.941c-0.032142 0.05846-0.06991 0.1131-0.10156 0.17188 0.0037 1e-3 0.00607 0.0029 0.00977 0.0039h-0.011719c-3.7332 6.847-3.465 15.145 0.082005 21.905h0.00195c4.292e-4 7.85e-4 0.00152 0.0012 0.00195 2e-3l9.0723-0.01172c2.1297-7.8975 3.3444-15.928 0.05664-22.07z" style="fill:#49c39e;stroke-width:.99999"/>
  <path d="m12.929 35.01 22.055 0.143 0.036-22.183-22.034-0.031-0.061 22.07z" style="fill:url(#linearGradient857);stroke-width:.99999"/>
  <path d="m22.306 32.728c-2.212-0.75606-4.4068-2.5284-5.111-3.8567 0 0 0.04893-0.36016 0.78892-1.173 0.74002-0.81292 1.312-1.0997 1.312-1.0997 0.94042 1.5422 2.3776 2.7451 4.0779 3.2119 1.3744 0.37763 2.0627 0.07357 2.3574-0.78847l0.0144-0.04214c0.281-0.82-0.027-1.434-2.145-2.556-3.23-1.711-4.39-3.351-3.391-6.273l0.0144-0.04214c0.91243-2.6695 3.7744-3.7072 6.7562-2.688 2.1268 0.72692 3.9902 1.7056 5.0614 3.4098 0 0-0.51547 0.73361-1.0281 1.2562-0.52423 0.53237-1.1643 0.96827-1.1643 0.96827-0.98341-1.346-2.1161-2.0689-3.3462-2.4893-1.2301-0.42044-2.4296-0.06079-2.6739 0.65411l-0.0144 0.04214c-0.33042 0.96674 0.06804 1.6259 2.6701 2.9134 2.9024 1.4338 3.8655 3.2992 2.989 5.8637l-0.0144 0.04214c-0.99882 2.9223-4.006 3.7265-7.1544 2.6504" style="opacity:.1"/>
  <path d="m21.683 31.459c-2.212-0.75606-4.4068-2.5284-5.111-3.8567 0 0 0.04892-0.36016 0.78892-1.173 0.74002-0.81292 1.312-1.0997 1.312-1.0997 0.94042 1.5422 2.3776 2.7451 4.0779 3.2119 1.3744 0.37763 2.0627 0.07357 2.3574-0.78847l0.0144-0.04214c0.28025-0.81994-0.02789-1.4344-2.1458-2.5565-3.2299-1.7112-4.3896-3.3506-3.3908-6.2729l0.0144-0.04214c0.91243-2.6695 3.7744-3.7072 6.7562-2.688 2.1268 0.72692 3.9902 1.7056 5.0614 3.4098 0 0-0.51547 0.73361-1.0281 1.2562-0.52423 0.53237-1.1643 0.96827-1.1643 0.96827-0.98341-1.346-2.1161-2.0689-3.3462-2.4893-1.2301-0.42044-2.4296-0.06079-2.6739 0.65411l-0.0144 0.04214c-0.33042 0.96674 0.06804 1.6259 2.6701 2.9134 2.9024 1.4338 3.8655 3.2992 2.989 5.8637l-0.0144 0.04214c-0.99882 2.9223-4.006 3.7265-7.1544 2.6504" style="fill:#5c3a58"/>
 </g>
 <path d="m40.03 7.531c3.712 4.084 5.969 9.514 5.969 15.469 0 12.703-10.297 23-23 23-5.954 0-11.384-2.256-15.469-5.969 4.178 4.291 10.01 6.969 16.469 6.969 12.703 0 23-10.298 23-23 0-6.462-2.677-12.291-6.969-16.469z" style="opacity:.1"/>
</svg>
