<svg xmlns="http://www.w3.org/2000/svg" viewBox="0 0 48 48">
 <g>
  <path d="m 36.31 5 c 5.859 4.062 9.688 10.831 9.688 18.5 c 0 12.426 -10.07 22.5 -22.5 22.5 c -7.669 0 -14.438 -3.828 -18.5 -9.688 c 1.037 1.822 2.306 3.499 3.781 4.969 c 4.085 3.712 9.514 5.969 15.469 5.969 c 12.703 0 23 -10.298 23 -23 c 0 -5.954 -2.256 -11.384 -5.969 -15.469 c -1.469 -1.475 -3.147 -2.744 -4.969 -3.781 z m 4.969 3.781 c 3.854 4.113 6.219 9.637 6.219 15.719 c 0 12.703 -10.297 23 -23 23 c -6.081 0 -11.606 -2.364 -15.719 -6.219 c 4.16 4.144 9.883 6.719 16.219 6.719 c 12.703 0 23 -10.298 23 -23 c 0 -6.335 -2.575 -12.06 -6.719 -16.219 z" style="opacity:0.05"/>
  <path d="m 41.28 8.781 c 3.712 4.085 5.969 9.514 5.969 15.469 c 0 12.703 -10.297 23 -23 23 c -5.954 0 -11.384 -2.256 -15.469 -5.969 c 4.113 3.854 9.637 6.219 15.719 6.219 c 12.703 0 23 -10.298 23 -23 c 0 -6.081 -2.364 -11.606 -6.219 -15.719 z" style="opacity:0.1"/>
  <path d="m 31.25 2.375 c 8.615 3.154 14.75 11.417 14.75 21.13 c 0 12.426 -10.07 22.5 -22.5 22.5 c -9.708 0 -17.971 -6.135 -21.12 -14.75 a 23 23 0 0 0 44.875 -7 a 23 23 0 0 0 -16 -21.875 z" style="opacity:0.2"/>
 </g>
 <g transform="matrix(0,-1,1,0,0,48)" style="fill:#5a5daa;fill-opacity:1">
  <path d="M 24,1 C 36.703,1 47,11.297 47,24 47,36.703 36.703,47 24,47 11.297,47 1,36.703 1,24 1,11.297 11.297,1 24,1 z"/>
 </g>
 <path d="m 26.845 12.01 c -0.133 0.011 -0.274 0.055 -0.407 0.094 -1.061 0.309 -1.654 1.409 -1.345 2.469 l 0.845 2.876 -0.031 0 -5.755 1.688 -0.845 -2.876 c -0.309 -1.061 -1.41 -1.684 -2.471 -1.375 -1.061 0.309 -1.686 1.409 -1.376 2.469 l 0.845 2.907 -2.878 0.844 c -1.061 0.309 -1.654 1.409 -1.345 2.469 0.309 1.061 1.41 1.653 2.471 1.344 l 2.878 -0.844 1.689 5.782 -2.878 0.844 c -1.061 0.309 -1.686 1.409 -1.376 2.469 0.309 1.061 1.41 1.684 2.471 1.375 l 2.909 -0.844 0.845 2.876 c 0.309 1.061 1.41 1.653 2.471 1.344 1.061 -0.309 1.654 -1.409 1.345 -2.469 l -0.845 -2.876 5.787 -1.688 0.845 2.876 c 0.309 1.061 1.41 1.684 2.471 1.375 1.061 -0.309 1.686 -1.409 1.376 -2.469 l -0.845 -2.907 2.878 -0.844 c 1.061 -0.309 1.654 -1.409 1.345 -2.469 -0.309 -1.061 -1.41 -1.653 -2.471 -1.344 l -2.878 0.844 0 -0.031 -1.689 -5.751 2.878 -0.844 c 1.061 -0.309 1.686 -1.409 1.376 -2.469 c -0.309 -1.061 -1.41 -1.684 -2.471 -1.375 l -2.909 0.844 -0.845 -2.876 c -0.271 -0.928 -1.136 -1.514 -2.064 -1.438 z m 0.188 9.252 1.689 5.782 0 0.031 -5.755 1.657 -1.689 -5.751 0 -0.031 5.755 -1.688 z" style="fill:#000;opacity:0.1;fill-opacity:1;stroke:none;fill-rule:nonzero"/>
 <g>
  <path d="m 40.03 7.531 c 3.712 4.084 5.969 9.514 5.969 15.469 0 12.703 -10.297 23 -23 23 c -5.954 0 -11.384 -2.256 -15.469 -5.969 4.178 4.291 10.01 6.969 16.469 6.969 c 12.703 0 23 -10.298 23 -23 0 -6.462 -2.677 -12.291 -6.969 -16.469 z" style="opacity:0.1"/>
 </g>
 <path d="m 25.844 11 c -0.132 0.011 -0.274 0.055 -0.406 0.094 c -1.06 0.309 -1.653 1.408 -1.344 2.469 l 0.844 2.875 l -0.031 0 l -5.75 1.688 l -0.844 -2.875 c -0.309 -1.06 -1.408 -1.684 -2.469 -1.375 c -1.06 0.309 -1.684 1.408 -1.375 2.469 l 0.844 2.906 l -2.875 0.844 c -1.06 0.309 -1.653 1.408 -1.344 2.469 c 0.309 1.06 1.408 1.653 2.469 1.344 l 2.875 -0.844 l 1.688 5.781 l -2.875 0.844 c -1.06 0.309 -1.684 1.408 -1.375 2.469 c 0.309 1.06 1.408 1.684 2.469 1.375 l 2.906 -0.844 l 0.844 2.875 c 0.309 1.06 1.408 1.653 2.469 1.344 c 1.06 -0.309 1.653 -1.408 1.344 -2.469 l -0.844 -2.875 l 5.781 -1.688 l 0.844 2.875 c 0.309 1.06 1.408 1.684 2.469 1.375 c 1.06 -0.309 1.684 -1.408 1.375 -2.469 l -0.844 -2.906 l 2.875 -0.844 c 1.06 -0.309 1.653 -1.408 1.344 -2.469 c -0.309 -1.06 -1.408 -1.653 -2.469 -1.344 l -2.875 0.844 l -1.688 -5.781 l 2.875 -0.844 c 1.06 -0.309 1.684 -1.408 1.375 -2.469 c -0.309 -1.06 -1.408 -1.684 -2.469 -1.375 l -2.906 0.844 l -0.844 -2.875 c -0.27 -0.928 -1.135 -1.514 -2.063 -1.438 z m 0.188 9.281 l 0.031 0 l 1.656 5.75 l 0 0.031 l -5.75 1.656 l -0.031 0 l -1.656 -5.75 l 0 -0.031 l 5.75 -1.656 z" style="fill:#f8f8fb;opacity:1;fill-opacity:1;stroke:none;fill-rule:nonzero"/>
</svg>
