<svg version="1.1" viewBox="0 0 48 48" xmlns="http://www.w3.org/2000/svg">
 <defs>
  <linearGradient id="bg" x2="0" y1="1" y2="47" gradientUnits="userSpaceOnUse">
   <stop style="stop-color:#f0f117" offset="0"/>
   <stop style="stop-color:#e4e50e" offset="1"/>
  </linearGradient>
 </defs>
 <path d="m36.31 5c5.859 4.062 9.688 10.831 9.688 18.5 0 12.426-10.07 22.5-22.5 22.5-7.669 0-14.438-3.828-18.5-9.688 1.037 1.822 2.306 3.499 3.781 4.969 4.085 3.712 9.514 5.969 15.469 5.969 12.703 0 23-10.298 23-23 0-5.954-2.256-11.384-5.969-15.469-1.469-1.475-3.147-2.744-4.969-3.781zm4.969 3.781c3.854 4.113 6.219 9.637 6.219 15.719 0 12.703-10.297 23-23 23-6.081 0-11.606-2.364-15.719-6.219 4.16 4.144 9.883 6.719 16.219 6.719 12.703 0 23-10.298 23-23 0-6.335-2.575-12.06-6.719-16.219z" style="opacity:.05"/>
 <path d="m41.28 8.781c3.712 4.085 5.969 9.514 5.969 15.469 0 12.703-10.297 23-23 23-5.954 0-11.384-2.256-15.469-5.969 4.113 3.854 9.637 6.219 15.719 6.219 12.703 0 23-10.298 23-23 0-6.081-2.364-11.606-6.219-15.719z" style="opacity:.1"/>
 <path d="m31.25 2.375c8.615 3.154 14.75 11.417 14.75 21.13 0 12.426-10.07 22.5-22.5 22.5-9.708 0-17.971-6.135-21.12-14.75a23 23 0 0 0 44.875-7 23 23 0 0 0-16-21.875z" style="opacity:.2"/>
 <circle cx="24" cy="24" r="23" style="fill:url(#bg)"/>
 <path d="m40.03 7.531c3.712 4.084 5.969 9.514 5.969 15.469 0 12.703-10.297 23-23 23-5.954 0-11.384-2.256-15.469-5.969 4.178 4.291 10.01 6.969 16.469 6.969 12.703 0 23-10.298 23-23 0-6.462-2.677-12.291-6.969-16.469z" style="opacity:.1"/>
 <path d="m26.293 12.002a11.13 11.13 0 0 0-8.0332 3.2578 11.13 11.13 0 0 0 0 15.74l7.8711-7.8691 7.8691-7.8711a11.13 11.13 0 0 0-7.707-3.2578zm5.4473 6.998-7.8711 7.8691-7.8691 7.8711a11.13 11.13 0 0 0 10.75 2.8809 11.13 11.13 0 0 0 7.8711-7.8711 11.13 11.13 0 0 0-2.8809-10.75z" style="opacity:.1;paint-order:normal"/>
 <path d="m17.26 30a11.13 11.13 0 0 1 0-15.74 11.13 11.13 0 0 1 15.74-1e-6l-7.8701 7.8701z" style="fill:#8c8c31;paint-order:normal"/>
 <path d="m30.74 18a11.13 11.13 0 0 1 2.8806 10.751 11.13 11.13 0 0 1-7.8701 7.8701 11.13 11.13 0 0 1-10.751-2.8806l7.8701-7.8701z" style="fill:#74740a;paint-order:normal"/>
</svg>
