<svg version="1.1" viewBox="0 0 48 48" xmlns="http://www.w3.org/2000/svg">
 <defs>
  <linearGradient id="bg" x1="1" x2="47" gradientTransform="matrix(0 -1 1 0 -1.5e-6 48)" gradientUnits="userSpaceOnUse">
   <stop style="stop-color:#3d3d3d" offset="0"/>
   <stop style="stop-color:#474747" offset="1"/>
  </linearGradient>
 </defs>
 <path d="m36.31 5c5.859 4.062 9.688 10.831 9.688 18.5 0 12.426-10.07 22.5-22.5 22.5-7.669 0-14.438-3.828-18.5-9.688 1.037 1.822 2.306 3.499 3.781 4.969 4.085 3.712 9.514 5.969 15.469 5.969 12.703 0 23-10.298 23-23 0-5.954-2.256-11.384-5.969-15.469-1.469-1.475-3.147-2.744-4.969-3.781zm4.969 3.781c3.854 4.113 6.219 9.637 6.219 15.719 0 12.703-10.297 23-23 23-6.081 0-11.606-2.364-15.719-6.219 4.16 4.144 9.883 6.719 16.219 6.719 12.703 0 23-10.298 23-23 0-6.335-2.575-12.06-6.719-16.219z" style="opacity:.05"/>
 <path d="m41.28 8.781c3.712 4.085 5.969 9.514 5.969 15.469 0 12.703-10.297 23-23 23-5.954 0-11.384-2.256-15.469-5.969 4.113 3.854 9.637 6.219 15.719 6.219 12.703 0 23-10.298 23-23 0-6.081-2.364-11.606-6.219-15.719z" style="opacity:.1"/>
 <path d="m31.25 2.375c8.615 3.154 14.75 11.417 14.75 21.13 0 12.426-10.07 22.5-22.5 22.5-9.708 0-17.971-6.135-21.12-14.75a23 23 0 0 0 44.875-7 23 23 0 0 0-16-21.875z" style="opacity:.2"/>
 <path d="m24 1c12.703 0 23 10.297 23 23s-10.297 23-23 23-23-10.297-23-23 10.297-23 23-23z" style="fill:url(#bg)"/>
 <path d="m25 12c-6.629 0-12 5.371-12 12 0 4.0156 1.9725 7.568 5 9.7461v2.5039c0 0.977 0.79344 1.7695 1.7734 1.7695h10.457c0.977 0 1.7695-0.79253 1.7695-1.7695v-2.5039c3.0275-2.1781 5-5.7305 5-9.7461 0-6.629-5.371-12-12-12z" style="opacity:.1"/>
 <path d="m36 23c0 6.629-5.371 12-12 12s-12-5.371-12-12 5.371-12 12-12 12 5.371 12 12" style="fill:#45b2e6"/>
 <path d="m18.773 25.02h10.457c0.977 0 1.77 0.793 1.77 1.773v8.457c0 0.977-0.793 1.77-1.77 1.77h-10.457c-0.98 0-1.773-0.793-1.773-1.77v-8.457c0-0.98 0.793-1.773 1.773-1.773" style="fill:#f9f9f9"/>
 <path d="m20 25.02v5h1.9961v-5h-1.9961zm6 0v5h2v-5h-2zm-5 7.9805v1c2 1.328 4 1.332 6 0v-1c-2 1.332-4 1.324-6 0z" style="fill:#424242"/>
 <path d="m19.938 11.719c-1.844 0.664-3.4803 1.7695-4.7773 3.1875 0.387 1.207 1.5097 2.0957 2.8457 2.0957 1.656 0 3-1.344 3-3 0-0.918-0.41545-1.7342-1.0645-2.2812l-0.003906-0.001953zm8.123 0c-0.648 0.547-1.0645 1.3632-1.0645 2.2812 0 1.656 1.344 3 3 3 1.336 0 2.4586-0.88675 2.8496-2.0938-1.297-1.418-2.9382-2.5225-4.7812-3.1875h-0.003906zm-4.0605 5.2812c-1.656 0-3 1.344-3 3s1.344 3 3 3 3-1.344 3-3-1.344-3-3-3zm-10 2c-0.523 0-1.0115 0.137-1.4375 0.375-0.367 1.148-0.56641 2.355-0.56641 3.625 0 0.434 0.020406 0.85525 0.066406 1.2812 0.523 0.449 1.1945 0.71875 1.9375 0.71875 1.656 0 3-1.34 3-3 0-1.656-1.344-3-3-3zm20 0c-1.656 0-3 1.344-3 3 0 1.66 1.344 3 3 3 0.742 0 1.4144-0.26975 1.9414-0.71875 0.043-0.426 0.0625-0.84825 0.0625-1.2812 0-1.27-0.1985-2.477-0.5625-3.625-0.43-0.234-0.91441-0.375-1.4414-0.375z" style="fill:#f9f9f9"/>
 <path d="m40.03 7.531c3.712 4.084 5.969 9.514 5.969 15.469 0 12.703-10.297 23-23 23-5.954 0-11.384-2.256-15.469-5.969 4.178 4.291 10.01 6.969 16.469 6.969 12.703 0 23-10.298 23-23 0-6.462-2.677-12.291-6.969-16.469z" style="opacity:.1"/>
</svg>
