<svg version="1.1" viewBox="0 0 48 48" xmlns="http://www.w3.org/2000/svg">
 <defs>
  <linearGradient id="bg" x1="1" x2="47" gradientTransform="matrix(0 -1 1 0 -1.5e-6 48)" gradientUnits="userSpaceOnUse">
   <stop style="stop-color:#1e94ca" offset="0"/>
   <stop style="stop-color:#21a1db" offset="1"/>
  </linearGradient>
 </defs>
 <path d="m36.3 5c5.86 4.06 9.69 10.8 9.69 18.5 0 12.4-10.1 22.5-22.5 22.5-7.67 0-14.4-3.83-18.5-9.69 1.04 1.82 2.31 3.5 3.78 4.97 4.08 3.71 9.51 5.97 15.5 5.97 12.7 0 23-10.3 23-23 0-5.95-2.26-11.4-5.97-15.5-1.47-1.48-3.15-2.74-4.97-3.78zm4.97 3.78c3.85 4.11 6.22 9.64 6.22 15.7 0 12.7-10.3 23-23 23-6.08 0-11.6-2.36-15.7-6.22 4.16 4.14 9.88 6.72 16.2 6.72 12.7 0 23-10.3 23-23 0-6.34-2.58-12.1-6.72-16.2z" style="opacity:.05"/>
 <path d="m41.3 8.78c3.71 4.08 5.97 9.51 5.97 15.5 0 12.7-10.3 23-23 23-5.95 0-11.4-2.26-15.5-5.97 4.11 3.85 9.64 6.22 15.7 6.22 12.7 0 23-10.3 23-23 0-6.08-2.36-11.6-6.22-15.7z" style="opacity:.1"/>
 <path d="m31.2 2.38c8.62 3.15 14.8 11.4 14.8 21.1 0 12.4-10.1 22.5-22.5 22.5-9.71 0-18-6.14-21.1-14.8a23 23 0 0 0 44.9-7 23 23 0 0 0-16-21.9z" style="opacity:.2"/>
 <path d="m24 1c-2.27 0-4.46 0.334-6.53 0.947 1.53 1.05-1.25 2.02-3.2 1.22-7.83 3.67-13.3 11.6-13.3 20.8 0 7.5 3.6 14.2 9.16 18.4 5.84 2.63 21.8 2.63 29.7-1.7 2.37-2.25 4.25-5 5.49-8.07v-2e-3c0.234-1.6 0.667-3.59 1.23-4.15h2e-3c0.282-1.44 0.434-2.92 0.434-4.44 0-0.118-6e-3 -0.234-8e-3 -0.352h-2e-3c-0.992-0.649-0.556-1.18-0.154-2.35-0.185-1.58-0.527-3.1-1.01-4.57-1.83-0.738-7.82-7.73-11.1-13.1-3.2-1.69-6.85-2.65-10.7-2.65z" style="fill:url(#bg)"/>
 <path d="m17.1 2.91-0.844 0.25-0.977 0.0664-0.594 0.434-0.781-0.0312 0.0664 0.5 1.12-0.0312 0.41 1.09 0.148 0.598-0.621 0.348-0.254 0.465 0.189 1.06 0.754 0.125 0.719-0.688 0.625-0.656 0.965-0.25 1.23-0.594 0.719-0.875 1.03-1.25 0.719-0.189-0.0312-0.275h-1.12l-3.47-0.0957zm9.96 0.48-1.53 0.0215-0.379 0.0996 0.5 0.598 0.531-0.5 0.344 0.219 0.5-0.25 0.0312-0.188zm6 0.461-0.375 0.00391-0.469 0.0625-0.406 0.25-0.469 0.35-0.277 0.5 0.965 0.215-0.375-0.314 0.219-0.188 0.0312-0.152 0.469-0.312h0.656l0.189-0.191zm3.06 0.605-0.221 0.146-6.06 1.54-0.621-0.314-0.875-0.314-0.879-0.156-0.941 0.191-0.969 0.779-0.436 0.439-0.654 0.719-0.25 0.0312-0.0957 0.344 0.125 0.344 0.156 0.156 0.25-0.125 0.156-0.156 0.25-0.0625 0.188 0.375 0.225 0.312 0.0898 0.25 0.379-0.25 0.0312-0.41 0.271-0.188 0.0664-0.156-0.189-0.219-0.154-0.0625 0.0625-0.316 0.125-0.0938 0.191-0.189 0.219-0.275 0.156-0.189 0.219-0.156 0.254 0.189v0.125l-0.223 0.25-0.0664 0.25v1.6l-0.0117 0.129-0.0254 0.0195-1.82-0.105-0.277-0.223-0.191 0.281-1.84 1.65-0.254 0.0664-0.25 0.0312-0.156 0.223 0.281 0.189 0.189 0.311s0.117 0.223 0.152 0.223c0.031 0 0.0938 0.219 0.0938 0.219l-0.189 0.25h-0.0938l-0.656 0.125-0.125-0.281-0.434 0.438-0.191 0.723v0.598l0.754 0.406 0.594-0.223 0.6-1.06 0.529-0.652 0.967-0.156 0.219-0.188 1.1 1.28 0.121 0.438 0.314-0.156-0.0898-0.375h0.188l-0.125-0.254-1.06-1 0.0938-0.188 0.344-0.0312 0.75 0.75 0.375 0.441v0.688l0.191 0.125 0.375 0.375 0.275-0.0938-0.15-0.566 0.0938-0.344 0.188-0.219 0.439 0.156 0.156 0.0625-0.0312-0.5 0.25-0.469 0.156-0.689 0.562 0.0957 0.0938 0.312 0.219 0.156 0.254-0.219-0.156-0.346h0.656l-0.223 0.375-0.809 0.967-0.598 0.316-0.125 0.188-0.434 0.0938 0.188 0.469 0.344 0.406 0.59 0.996-0.188 0.465-1.38-0.25-2.66-1.54-0.564 0.0312-0.0293 0.312-1.38-0.0625c-1.52 1.39-0.0974-0.613-1.85 0.934l-0.0488 0.139-3.19-2.13v24l8.12-5.41 0.475 0.627 0.0625 0.594 0.0938 0.688 0.346-0.344 0.875-0.0898h0.529l0.971-1.5 0.0625-0.594 0.656-0.656 0.0312-0.75 0.344-0.754 0.643-0.613 4.79-3.2-3.19-2.12 0.32-0.316 0.148-0.531 0.254-0.469 0.0644-0.691h-0.594l-0.281 0.281-0.564-0.156-0.344-0.562-0.281-0.564-0.652-0.5-0.152-0.812-0.281-0.475-0.312-0.594-0.406-0.719-0.0938-0.469 0.438-0.0644 0.25 0.531 0.5 0.938 0.375 0.689 0.41 0.75 0.434 0.723 0.602 0.6 0.535-0.5 0.594-0.156 0.436-0.531 0.6-0.344 0.344-0.594 0.0312-0.5-0.281-0.316-0.375-0.438-0.25 0.154-0.156 0.254-0.406-0.188-0.125-0.314-0.281-0.41-0.434-0.404v-0.814l0.277 0.531 0.344 0.535 0.598 0.344 0.406-0.0938 0.25 0.281 1.79-0.0352-0.0352 0.0352 0.566 0.5 0.406 0.562 0.125 0.277h0.273l0.0977-0.311 0.0938 0.467 0.156 0.844 0.34 0.812 0.188 0.689 0.277 0.654 0.219 0.277 0.314-0.188 0.0938-0.314 0.125-0.775-0.0352-0.688 0.254-0.316s0.266-0.359 0.314-0.375c0.043-0.012 0.621-0.65 0.621-0.65l0.281-0.35 0.312-0.188 0.375-0.219h0.156l0.0625 0.344 0.156 0.406 0.5 0.65v0.25l0.0938 0.281 0.344-0.156-0.0332-0.375 0.312 0.0664 0.0664 0.344-0.0352 0.531 0.0938 0.375 0.281 0.0644 0.0898-0.314 0.344 0.219 0.0664 0.316 0.309 0.469 0.316 0.344 0.219 0.191 0.535-0.469 0.219-0.441-0.0938-0.5-0.0898-0.656-0.604-0.562-0.0898-0.566 0.25-0.396s0.16-0.32 0.316-0.156c0.148 0.168 0.223 0.188 0.152 0.375-0.063 0.184-0.189 0.598-0.189 0.598l0.375 0.156 0.156-0.531-0.156-0.379 0.203-0.084c-1.52-5.72-10.1-13.6-10.1-13.6zm-24.9 0.393c-0.154 0.103-0.305 0.21-0.457 0.316l-0.0293 0.0723 0.156 0.344 0.562-0.0645 0.25 0.469-0.5 0.531-0.562 0.0625 0.5 0.225 0.531 0.465 0.523 0.125 0.191-0.719 0.0352-0.439 0.621 0.0938s-0.191 0.314-0.0938 0.314c0.098 0 0.469-0.406 0.469-0.406l-1.07-1.1s-0.434-0.344-0.562-0.25c-0.129 0.09-0.469 0.0625-0.469 0.0625zm-0.65 0.824-0.434 0.5-0.32-0.307c-0.43 0.335-0.85 0.682-1.25 1.05 0.371 0.093 0.862 0.293 0.949 0.232 0.129-0.094 0.625-0.875 0.625-0.875zm9.1 0.727-0.121 0.406c0.449 0.348 0.621 0.344 0.621 0.344l0.525-0.125 0.35-0.344-0.225-0.281zm-8.87 0.773s-0.432 0.25-0.85 0.406c-0.414 0.156-0.309 0.469-0.309 0.469l-0.0352 0.844-0.688 0.562-0.436 0.656s-0.279-0.188-0.279-0.312-0.0645-0.469-0.0645-0.469l-0.719-0.562s-0.22-0.17-0.398-0.328c-2.12 2.3-3.77 5.05-4.81 8.07l0.652-0.455 0.566-0.191h0.809l1.12-0.25 0.406 0.531-0.0625 0.625 0.469 0.406 0.0625-0.441s-0.0228-0.719-0.0938-0.906c-0.063-0.188 0.566-0.625 0.566-0.625l0.496-0.613 0.598-0.727 0.281-0.562 0.938-0.496 0.625-0.691s0.934-0.148 1.12-0.254c0.191-0.09 0.066-0.434-0.125-0.75-0.191-0.313 0.0938-0.625 0.0938-0.625l0.719-0.434 0.625 0.121 0.0664 0.754s0.59 0.563 0.781 0.465c0.188-0.09 0.27-0.406 0.27-0.406l-0.312-0.812 0.191-0.812-0.844 0.121v-1.38l-0.254 0.254-0.656 0.0312-0.0898-0.688zm11.6 1.01-0.25 0.219-0.148 0.621 0.469 0.223 0.0625 0.277-0.469 0.629 0.938-0.531-0.0977-0.656-0.344-0.375zm-0.773 1.18-0.281 0.469 0.375 0.156 0.156-0.281zm-15.4 1.09 0.00586 0.0078 0.656 0.275 0.434 0.566 0.281 0.434s-0.25 0.844-0.312 1-0.25-0.312-0.25-0.312l-0.156-0.814-0.531 0.227-0.41 0.965 0.0938-0.812 0.125-0.562-0.654-0.25 0.562-0.531zm26.4 0.758 0.375 0.152-0.25 0.223 0.0898 0.312 0.281 0.75 0.281 0.469-0.785-0.215-0.436-0.469-0.256-0.281 0.125-0.531 0.564-0.406zm-7.91 1.19-0.375 0.719 0.281 0.281 0.25-0.223 0.0312-0.311zm-1.25 0.75v0.188l0.156-0.0312zm2.16 0.469-0.188 0.0644 0.309 0.531 0.281-0.223zm-23.5 3.06c-0.299 0.89-0.549 1.8-0.738 2.74l0.523 0.285 0.5-0.0644 0.719 0.344 1.09 0.598 0.156 0.725 0.875 0.84 0.5-0.375 0.41 0.316-0.0664-0.725-0.777 0.191-0.254-0.906-0.0898-0.41-0.688-0.621v-0.438l0.531-0.566-0.348-0.4-0.564 0.0898-0.848 0.844-0.689-0.0898s-0.313-0.531-0.379-0.656c-0.063-0.125 0.191-0.562 0.191-0.562zm3.32 1.12v0.0039l-0.309 0.156 0.529 0.277 0.596 0.121 0.344 0.469 0.406-0.25-0.0645-0.277-0.688-0.5zm2.57 3.09-0.875 0.0039-0.00586 0.0039-0.816 0.441-0.0898 0.898-0.189 1s2.9 12.4 2.6 13c-0.066 0.09 0.375 0.91 0.375 0.91l0.875 1.38 1.22 0.525-0.5-0.598-0.25-0.689 0.25-0.719-0.656-0.344s0.434-0.285 0.5-0.375-0.0898-0.469-0.0898-0.469l-0.191-0.467 0.496-0.654 0.781-0.189 0.125-0.598-0.469-0.219 0.188-0.5 0.75-0.0938 0.656-1.6 0.469-1.09 0.979-0.473s0.309-0.926 0.309-1.06c0-0.129 0.0938-1.53 0.0938-1.53l0.75-1.02 0.0938-0.691-0.562-0.344-0.469-0.566-0.854 0.0664-1.34-0.781-0.27-0.656s-0.48-0.812-0.566-0.812-0.65 0.0352-0.65 0.0352l-0.531-0.531-0.344-0.656-1.35-0.281zm35.6 0.496c0.113 0.129 0.813 2.22 0.906 2.22 0.09 0 0.625 0.0664 0.625 0.0664l-0.281-0.846zm-3.59 0.0644-0.316 0.406 0.156 0.6 0.344-0.375-0.0625-0.475zm3.49 1.16-0.438 0.0664 2 3 0.531 0.594 1.25 0.0606c0.012-0.116 0.0173-0.233 0.0273-0.35l-0.0254-0.0176-1.25-0.346-0.314-1.15-0.688-0.564-1.09-1.28zm3.42 0.213-0.297 0.162c0 0.094-0.727 0.691-0.727 0.691l0.191 0.625 0.41 0.465 0.273 0.688 0.135-0.0879c0.027-0.453 0.043-0.906 0.043-1.37 0-0.394-0.0104-0.788-0.0293-1.18zm-13.9 4.66v0.439c-0.02 0.066-0.406 0.375-0.406 0.375l-0.469 0.219-0.346 0.281 0.256 0.344 0.154 0.156-0.41 0.344v0.562l0.156 0.596 0.344 0.0938 0.41-0.625 0.25-0.406-0.0625-0.5 0.375-0.594 0.125-0.281v-0.562l-0.0957-0.439zm-20.5 9.47-0.215 0.15-0.0938 0.0312 0.5 0.25zm-0.848 0.184 2e-3 0.0039 2e-3 -0.0039zm2e-3 0.0039-0.217 0.496 0.438-0.0938zm1.5 4.12-0.469 0.719-0.875 0.406 0.5 0.625 2 0.373s-0.652-1.32-0.652-1.5c0-0.176-0.5-0.621-0.5-0.621z" style="opacity:.1"/>
 <path d="m17.5 1.94c-1.15 0.34-2.27 0.767-3.34 1.28l0.363 0.969 0.15 0.598-0.621 0.346-0.254 0.465 0.189 1.06 0.754 0.125 0.719-0.688 0.625-0.656 0.965-0.25 1.23-0.594 0.719-0.875 1.03-1.25 0.719-0.189-0.031-0.275h-1.12l-2.1-0.059zm8.58 0.443c-0.055 0.02-1.53 0.023-1.53 0.023l-0.379 0.098 0.5 0.598 0.531-0.5 0.344 0.219 0.5-0.25s0.09-0.211 0.031-0.188zm6 0.461-0.375 4e-3 -0.469 0.063-0.406 0.25-0.469 0.35-0.277 0.5 0.434 0.438 0.375 0.031 0.156-0.254-0.375-0.314 0.219-0.188 0.031-0.152 0.469-0.313s0.609 8e-3 0.656 0c0.051-0.012 0.188-0.191 0.188-0.191l-0.156-0.223zm2.72 0.83-0.498 0.299-0.531 0.438 0.063 0.189-0.277 0.031v4e-3l-4.08 0.68 0.016-0.012-1.22 0.654-0.313-0.223-0.156-0.25 0.064-0.254 0.688 0.035 0.316-0.125-0.621-0.314-0.875-0.314-0.879-0.156-0.941 0.191-0.969 0.779-0.436 0.439-0.654 0.719-0.25 0.031-0.096 0.344 0.125 0.344s0.133 0.156 0.156 0.156c0.02 0 0.25-0.125 0.25-0.125s0.027-0.117 0.156-0.156c0.133-0.039 0.25-0.063 0.25-0.063l0.188 0.375 0.225 0.313 0.09 0.25s0.363-0.223 0.379-0.25c8e-3 -0.031 0.031-0.41 0.031-0.41l0.271-0.188s0.074-0.133 0.066-0.156c-0.012-0.02-0.188-0.219-0.188-0.219l-0.156-0.063 0.063-0.316s0.125-0.051 0.125-0.094c0-0.039 0.191-0.189 0.191-0.189l0.219-0.275 0.156-0.189 0.219-0.156 0.254 0.189v0.125l-0.223 0.25-0.066 0.25v0.344l0.191 0.156 0.344-0.031 0.314-0.063 0.279 0.154-0.064 0.221s-0.195 0.188-0.25 0.219c-0.059 0.031-0.41-0.063-0.5-0.031-0.09 0.031-0.314 0.316-0.314 0.316s-0.023 0.249 0 0.313c0.012 0.023-4e-3 0.071-0.012 0.129l-0.025 0.018-0.379 0.279h-0.025l-0.25-0.094s-0.158 8e-3 -0.225 0.066c-0.063 0.051-0.12 0.102-0.313 0.121-0.191 0.02-0.563 0-0.598 0h-0.219l0.031-0.227 0.156-0.25-0.277-0.223s-0.184 0.23-0.191 0.281c-4e-3 0.055 0.125 0.279 0.125 0.279s-0.059 0.182-0.09 0.221c-0.035 0.039-0.313 0.125-0.313 0.125l-0.439-0.221s-0.18-0.038-0.156 0.064c0.027 0.102 0.225 0.195 0.225 0.281 0 0.082-0.125 0.275-0.125 0.275l-0.156 0.189-0.25 0.254-0.344 0.09s-0.251 0.07-0.314 0.094c-0.066 0.023-0.254 0.066-0.254 0.066l-0.25 0.031-0.156 0.223 0.281 0.191 0.189 0.309s0.119 0.223 0.154 0.223c0.031 0 0.092 0.219 0.092 0.219l-0.189 0.25h-0.094l-0.656 0.125-0.125-0.281-0.434 0.438-0.191 0.721v0.598l0.754 0.406 0.594-0.221 0.6-1.06 0.529-0.652 0.967-0.156 0.219-0.188 1.1 1.28 0.121 0.438 0.313-0.156-0.09-0.375h0.188l-0.125-0.254-1.06-1 0.094-0.188 0.344-0.031 0.75 0.75 0.375 0.441v0.688l0.191 0.125 0.375 0.375 0.277-0.094-0.152-0.566 0.094-0.344 0.188-0.219 0.439 0.156 0.156 0.063-0.031-0.5 0.25-0.469 0.156-0.689 0.563 0.096 0.094 0.313 0.219 0.156 0.254-0.219-0.156-0.346h0.656l-0.223 0.375 0.438 0.375 0.375 0.189 0.219 0.438-0.5 0.121-0.719-0.156h-0.621l-0.598 0.316-0.125 0.188-0.434 0.094 0.188 0.469 0.344 0.406 0.625-0.219 0.156 0.277 0.277-0.219 0.375 0.063 0.035 0.41-0.125 0.777-0.344-0.031-0.41-0.063-0.188 0.465-1.38-0.25-0.25-0.316-0.316 0.281-0.344 0.469-0.875-0.5-0.875-0.527v-0.941l-0.564 0.031-0.029 0.313-1.38-0.063-0.439 0.402-0.844 0.031-0.566 0.5-0.344 0.969 5.1 15 0.035 0.471 0.566 0.75 0.063 0.594 0.094 0.688 0.346-0.344 0.875-0.09h0.529l0.971-1.5 0.063-0.594 0.656-0.656 0.031-0.75 0.344-0.754 0.813-0.777v-0.875l1.35-4.19 0.41-0.406 0.15-0.531 0.254-0.469 0.064-0.691h-0.594l-0.281 0.281-0.564-0.156-0.344-0.563-0.281-0.563-0.654-0.5-0.152-0.813-0.281-0.475-0.313-0.594-0.406-0.719-0.094-0.469 0.438-0.063 0.25 0.531 0.5 0.938 0.375 0.688 0.41 0.75 0.434 0.723 0.602 0.6 0.535-0.5 0.594-0.156 0.434-0.531 0.6-0.344 0.344-0.594 0.031-0.5-0.281-0.316-0.375-0.438-0.25 0.154-0.156 0.254-0.406-0.188-0.125-0.313-0.281-0.41-0.434-0.406v-0.813l0.277 0.531 0.344 0.535 0.598 0.344 0.406-0.094 0.25 0.281 1.78-0.035-0.035 0.035 0.566 0.5 0.406 0.563 0.125 0.277h0.275l0.096-0.311 0.094 0.467 0.156 0.844 0.34 0.813 0.189 0.688 0.277 0.656 0.219 0.277 0.314-0.188 0.094-0.314 0.125-0.775-0.035-0.689 0.254-0.316s0.265-0.359 0.313-0.375c0.043-0.012 0.621-0.65 0.621-0.65l0.281-0.35 0.313-0.188 0.375-0.219h0.156l0.063 0.344 0.156 0.406 0.5 0.652v0.25l0.094 0.281 0.344-0.156-0.033-0.375 0.313 0.066 0.066 0.344-0.035 0.531 0.094 0.375 0.281 0.064 0.09-0.314 0.344 0.219 0.066 0.316 0.309 0.469 0.316 0.344 0.219 0.191 0.535-0.469 0.219-0.441-0.094-0.5-0.09-0.656-0.604-0.563-0.09-0.566 0.25-0.398s0.16-0.32 0.316-0.156c0.148 0.168 0.223 0.188 0.152 0.375-0.063 0.184-0.188 0.598-0.188 0.598l0.375 0.156 0.156-0.531-0.156-0.379 0.375-0.156 0.441-0.221c-1.87-5.66-5.88-10.3-11.1-13.1zm-5.31 1.63-4e-3 6e-3 4.09-0.695-0.027-0.156-0.316-0.438-0.654-0.063s0.154 0.664 0.154 0.75c0 0.082-0.438 0.025-0.438 0.025l-0.75 0.035s-1.09 0.25-1.22 0.25-0.762 0.262-0.813 0.281l-0.023 4e-3zm-17.7-0.783c-0.6 0.377-1.18 0.78-1.74 1.21l0.154 0.068 0.531 0.465 0.525 0.125 0.191-0.719 0.035-0.438 0.621 0.094s-0.191 0.313-0.094 0.313c0.098 0 0.469-0.406 0.469-0.406l-0.691-0.711zm6.94 0.875-0.121 0.406c0.449 0.348 0.621 0.344 0.621 0.344l0.525-0.125 0.35-0.344-0.225-0.281zm-8.87 0.773s-0.432 0.25-0.85 0.406c-2e-3 2e-3 -4e-3 2e-3 -6e-3 4e-3 -0.091 0.079-0.183 0.156-0.273 0.236-0.053 0.12-0.029 0.229-0.029 0.229l-0.035 0.844-0.688 0.563-0.434 0.656s-0.281-0.188-0.281-0.313-0.063-0.469-0.063-0.469l-8e-3 -6e-3c-0.43 0.462-0.841 0.942-1.23 1.44l0.416 0.545 0.281 0.434s-0.249 0.844-0.313 1c-0.063 0.156-0.25-0.313-0.25-0.313l-0.156-0.814-0.531 0.225-0.41 0.965 0.094-0.811 0.02-0.086c-0.858 1.24-1.6 2.56-2.2 3.96h0.393l1.12-0.25 0.406 0.531-0.063 0.625 0.469 0.406 0.063-0.441s-0.023-0.719-0.094-0.906c-0.063-0.188 0.566-0.625 0.566-0.625l0.496-0.613 0.598-0.727 0.281-0.563 0.938-0.496 0.625-0.691s0.934-0.148 1.12-0.254c0.191-0.09 0.066-0.434-0.125-0.75-0.191-0.313 0.094-0.625 0.094-0.625l0.719-0.434 0.625 0.121 0.066 0.754s0.59 0.563 0.781 0.465c0.188-0.09 0.271-0.406 0.271-0.406l-0.313-0.813 0.191-0.811-0.844 0.121v-1.38l-0.254 0.254-0.656 0.031-0.09-0.688-0.438-0.531zm11.6 1.01-0.25 0.219c-0.066 0.305-0.15 0.621-0.15 0.621l0.469 0.223 0.063 0.277-0.25 0.254-0.219 0.375 0.152 0.156 0.563-0.094 0.5-0.219-0.277-0.375-0.098-0.656-0.344-0.375-0.158-0.406zm-0.775 1.18-0.281 0.469 0.375 0.156 0.156-0.281zm10.9 1.85c0.137-0.043 0.375 0.154 0.375 0.154l-0.25 0.221 0.09 0.313 0.281 0.75 0.281 0.469 0.375 0.594-0.406 0.191-0.531-0.344-0.223-0.656s-0.303-0.406-0.436-0.469c-0.137-0.066-0.254-0.281-0.254-0.281l0.125-0.531s0.431-0.359 0.564-0.406l8e-3 -4e-3zm-7.91 1.19-0.375 0.719 0.281 0.281 0.25-0.223 0.031-0.309-0.188-0.469zm-1.25 0.75v0.188l0.156-0.031-0.156-0.156zm2.16 0.469-0.188 0.064 0.309 0.531 0.281-0.221-0.402-0.375zm-20.1 4.19v4e-3l-0.309 0.156 0.531 0.279 0.594 0.121 0.344 0.469 0.406-0.25-0.063-0.279-0.689-0.5zm-0.975 0.41-0.564 0.09-0.848 0.844-0.363-0.047c-0.053 0.201-0.101 0.404-0.148 0.607l0.58 0.277 1.09 0.598 0.156 0.725 0.875 0.84 0.5-0.375 0.41 0.316-0.066-0.725-0.777 0.191-0.254-0.906-0.09-0.41-0.688-0.621v-0.438l0.531-0.566zm2.67 2.68-6e-3 4e-3 -0.816 0.441-0.09 0.9-0.188 1-0.563 0.75 0.029 1.12 0.467 1.16 0.5 1.41 1.31 1.31 0.063 0.75 0.094 3.38 0.469 1.9s0.285 1.1 0.223 1.19c-0.066 0.09 0.375 0.91 0.375 0.91l0.875 1.38 1.22 0.525-0.5-0.598-0.25-0.688 0.25-0.719-0.656-0.344s0.434-0.285 0.5-0.375-0.09-0.469-0.09-0.469l-0.191-0.467 0.496-0.654 0.781-0.189 0.125-0.598-0.469-0.219 0.188-0.5 0.75-0.094 0.656-1.6 0.469-1.09 0.977-0.471s0.309-0.928 0.309-1.06c0-0.129 0.094-1.53 0.094-1.53l0.75-1.02 0.094-0.691-0.563-0.344-0.469-0.566-0.852 0.066-1.34-0.781-0.27-0.656s-0.48-0.813-0.566-0.813-0.652 0.035-0.652 0.035l-0.531-0.531-0.344-0.656-1.34-0.281-0.438-0.219h-0.875zm36.4 0.492c0.113 0.129 0.813 2.22 0.906 2.22 0.09 0 0.625 0.066 0.625 0.066l-0.281-0.844zm-3.59 0.066-0.316 0.406 0.156 0.598 0.344-0.375-0.063-0.473zm7.79 0.885-1.17 0.646c0 0.094-0.725 0.691-0.725 0.691l0.191 0.625 0.41 0.465 0.273 0.688 1.17-0.76c-0.01-0.796-0.061-1.58-0.15-2.36zm-4.3 0.271-0.436 0.066 2 3 0.531 0.594 1.31 0.064 0.814 0.254-0.879-0.625-1.25-0.346-0.314-1.15-0.688-0.564-1.09-1.28 6e-3 -8e-3zm-10.5 4.88v0.439c-0.02 0.066-0.406 0.375-0.406 0.375l-0.469 0.219-0.344 0.281 0.254 0.344 0.156 0.156-0.41 0.344v0.563l0.156 0.594 0.344 0.094 0.41-0.625 0.25-0.406-0.063-0.5 0.375-0.594 0.125-0.281v-0.563l-0.096-0.438-0.283-2e-3zm14.5 1.99c-0.05 0.017-0.115 0.036-0.119 0.051-0.02 0.086-0.563 0.375-0.563 0.375-0.113 0-0.465 0.656-0.465 0.656l-0.066 2.06-0.121 0.75 0.129 0.168c0.52-1.3 0.928-2.66 1.2-4.06zm-35 7.49-0.215 0.152-0.094 0.031 0.5 0.25-0.191-0.434zm-0.848 0.184 2e-3 4e-3 2e-3 -4e-3zm2e-3 4e-3 -0.217 0.496 0.438-0.094zm1.5 4.12-0.469 0.719-0.875 0.406 0.5 0.625-0.75 0.375-0.473-0.023c3.85 2.91 8.64 4.63 13.8 4.63 6.14 0 11.7-2.41 15.8-6.32l-2.55 0.096-3.06 0.621s-1.48 0.793-1.66 0.754c-0.18-0.043 0.625-1.03 0.625-1.03l-1.44 0.09-0.904-0.75-0.91 0.621s-1.22 0.096-1.53 0.096c-0.316 0-0.723 0.563-0.723 0.563l-2.47-0.09-4.25 0.188-1.12 0.965-0.281 0.035-3.22-0.223-2.22 0.223-0.781-0.379 0.031-0.063s-0.652-1.32-0.652-1.5c0-0.176-0.5-0.621-0.5-0.621l-2e-3 -2e-3z" style="fill:#abd6ec"/>
 <path d="m25 30 0.0352 0.471 0.566 0.75 0.0625 0.594 0.0117 0.0801 2.87-1.91v-0.0078l0.656-0.656 0.0312-0.75 0.344-0.754 0.812-0.777v-0.875zm7.05-3.51v0.439c-0.02 0.066-0.406 0.375-0.406 0.375l-0.469 0.219-0.346 0.281 0.254 0.344 0.082 0.082 1.26-0.842v-0.457l-0.0957-0.439-0.281-2e-3z" style="opacity:.1"/>
 <path d="m40 7.53c3.71 4.08 5.97 9.51 5.97 15.5 0 12.7-10.3 23-23 23-5.95 0-11.4-2.26-15.5-5.97 4.18 4.29 10 6.97 16.5 6.97 12.7 0 23-10.3 23-23 0-6.46-2.68-12.3-6.97-16.5z" style="opacity:.1"/>
 <path d="m17 12v24l18-12" style="fill:#474747"/>
</svg>
