<svg xmlns="http://www.w3.org/2000/svg" viewBox="0 0 48 48">
 <defs>
  <linearGradient id="linearGradient3764" x1="1" x2="47" gradientUnits="userSpaceOnUse" gradientTransform="matrix(0,-1,1,0,-1.5e-6,47.999998)">
   <stop style="stop-color:#5fabff;stop-opacity:1"/>
   <stop offset="1" style="stop-color:#73b6ff;stop-opacity:1"/>
  </linearGradient>
  <linearGradient id="linearGradient8028" y1="47" x2="0" y2="1" gradientUnits="userSpaceOnUse">
   <stop style="stop-color:#e5e5e5;stop-opacity:1"/>
   <stop offset="1" style="stop-color:#efefef;stop-opacity:1"/>
  </linearGradient>
 </defs>
 <g>
  <path d="m 36.31 5 c 5.859 4.062 9.688 10.831 9.688 18.5 c 0 12.426 -10.07 22.5 -22.5 22.5 c -7.669 0 -14.438 -3.828 -18.5 -9.688 c 1.037 1.822 2.306 3.499 3.781 4.969 c 4.085 3.712 9.514 5.969 15.469 5.969 c 12.703 0 23 -10.298 23 -23 c 0 -5.954 -2.256 -11.384 -5.969 -15.469 c -1.469 -1.475 -3.147 -2.744 -4.969 -3.781 z m 4.969 3.781 c 3.854 4.113 6.219 9.637 6.219 15.719 c 0 12.703 -10.297 23 -23 23 c -6.081 0 -11.606 -2.364 -15.719 -6.219 c 4.16 4.144 9.883 6.719 16.219 6.719 c 12.703 0 23 -10.298 23 -23 c 0 -6.335 -2.575 -12.06 -6.719 -16.219 z" style="opacity:0.05"/>
  <path d="m 41.28 8.781 c 3.712 4.085 5.969 9.514 5.969 15.469 c 0 12.703 -10.297 23 -23 23 c -5.954 0 -11.384 -2.256 -15.469 -5.969 c 4.113 3.854 9.637 6.219 15.719 6.219 c 12.703 0 23 -10.298 23 -23 c 0 -6.081 -2.364 -11.606 -6.219 -15.719 z" style="opacity:0.1"/>
  <path d="m 31.25 2.375 c 8.615 3.154 14.75 11.417 14.75 21.13 c 0 12.426 -10.07 22.5 -22.5 22.5 c -9.708 0 -17.971 -6.135 -21.12 -14.75 a 23 23 0 0 0 44.875 -7 a 23 23 0 0 0 -16 -21.875 z" style="opacity:0.2"/>
 </g>
 <g>
  <path d="m 24 1 c 12.703 0 23 10.297 23 23 c 0 12.703 -10.297 23 -23 23 -12.703 0 -23 -10.297 -23 -23 0 -12.703 10.297 -23 23 -23 z" style="fill:url(#linearGradient3764);fill-opacity:1"/>
 </g>
 <circle cx="24" cy="24" r="21" style="fill:url(#linearGradient8028);fill-opacity:1"/>
 <g>
  <path d="m 40.03 7.531 c 3.712 4.084 5.969 9.514 5.969 15.469 0 12.703 -10.297 23 -23 23 c -5.954 0 -11.384 -2.256 -15.469 -5.969 4.178 4.291 10.01 6.969 16.469 6.969 c 12.703 0 23 -10.298 23 -23 0 -6.462 -2.677 -12.291 -6.969 -16.469 z" style="opacity:0.1"/>
 </g>
 <path d="m 24 4 c -1.63 0 -3.202 0.226 -4.719 0.594 c 0.09 0.102 0.161 0.216 0.219 0.344 c 0.255 0.567 -0.488 0.925 -0.469 1.469 c 0.024 0.671 0.662 1.481 0.969 2.064 l 1.844 -2 c 1.013 -0.54 2.631 -0.596 3.438 -1.469 c 0.252 -0.272 0.418 -0.59 0.531 -0.906 c -0.601 -0.054 -1.197 -0.096 -1.813 -0.096 z m -7.375 1.406 c -0.513 0.204 -1.01 0.442 -1.5 0.688 c 0.955 0.441 1.259 0.795 2.438 0.063 l -0.844 -0.375 c -0.016 -0.14 -0.055 -0.266 -0.094 -0.375 z m 15.875 0.5 l -0.563 0.781 l -1.156 0.969 c -0.187 0.444 0.127 1.114 0.219 1.563 l 1.219 -0.625 c 0.175 0.606 0.646 0.758 1.094 1.094 c 0.558 -1.059 0.319 -2.066 0.969 -2.813 c -0.577 -0.347 -1.166 -0.68 -1.779 -0.969 l -0.002 0 z m 2.229 1.09 l -0.072 0.129 c 0 0 -0.013 2.615 -1.219 3.03 l -1.219 -0.094 l 0 -0.719 c -0.694 0.145 -0.683 0.486 -0.5 1.094 c -0.471 -0.134 -0.749 -0.104 -1.096 0.25 c -0.61 -0.637 -0.796 -1.346 -1.094 -1.969 l -0.844 -0.125 l 0.344 1.969 c -0.326 -0.611 -0.665 -0.772 -1.344 -0.625 l 0.344 1.406 c 0.133 -0.036 0.272 -0.064 0.406 -0.094 c -0.069 -0.162 0.06 -0.695 0.375 -0.094 c 0.335 -0.06 0.661 -0.101 1 -0.125 c 0.838 -0.06 1.701 -0.007 2.531 0.156 c 1.919 0.377 3.6 1.293 4.969 2.688 c 0.833 0.849 1.481 1.829 1.938 2.906 c 0.329 0.868 0.553 1.791 0.689 2.563 c 0.047 0.371 0.065 1.445 0.031 1.875 c -0.248 3.21 -1.748 6.106 -4.439 8.529 c -0.659 0.588 -1.551 1.172 -2.5 1.75 c 0.271 0.702 0.501 1.43 0.5 2.125 l -0.313 3.03 c 0.222 1.543 0.962 2.881 1.219 4.406 c 1.839 -1.128 3.492 -2.546 4.875 -4.189 c -0.071 -0.308 0.5 -0.656 0.5 -0.656 c 0.546 -0.705 1.051 -1.443 1.5 -2.219 c -0.065 -1 -0.401 -2.087 -0.063 -3.063 c 0.696 -2 2.633 -3.483 2.688 -5.75 l -1.469 0.125 c 0.421 -0.516 0.995 -0.944 1.531 -1.375 c -0.004 -1.251 -0.12 -2.469 -0.344 -3.656 c -0.316 -0.358 -0.593 -0.703 -0.594 -1.438 c 0.095 0.081 0.186 0.149 0.281 0.219 c -1.291 -5.067 -4.285 -9.376 -8.613 -12.06 z m -21.418 0.379 l -1 2.031 l -1.344 1.625 l -0.125 -0.844 c -0.213 -0.099 -0.582 -0.24 -0.938 -0.406 c -2.628 2.605 -4.509 5.958 -5.375 9.688 c 0.855 -0.49 1.986 -0.664 2.781 -0.5 l -0.125 0.25 l 1.094 0.969 c 0.005 -1.866 0.75 -2.048 1.781 -3.406 l 0.719 -1.313 c 0.8 -0.88 2.051 -1.479 3.125 -1.875 l 1.344 -0.844 c -0.436 -0.754 -1.576 -0.549 -2.313 -0.5 c 1.322 -0.752 3.125 -0.325 4.03 -1.688 c -0.988 -0.719 -0.987 -2.608 -2.563 -1.844 l 0.25 -0.721 l -1.342 -0.623 z m -9.156 14.06 c -0.109 0.844 -0.156 1.689 -0.156 2.563 c 0.022 0.799 0.463 0.775 1.221 1.094 l 1.844 1.688 l 0.969 0.156 l 0.063 -0.75 l -0.281 -0.031 l 0.25 -0.219 l -0.75 -0.5 l 0.125 0.5 c -0.526 -0.544 -0.597 -1.246 -0.469 -1.969 l -0.875 -0.375 l -0.125 0.375 c -0.153 -0.604 -0.081 -1.366 0.375 -1.813 c -0.669 -0.456 -1.13 -0.047 -1.596 0.469 l -0.594 -1.188 z m 3.906 6.938 c -0.517 1.13 -1.052 2.409 -0.906 3.406 c 0.121 0.829 0.983 2.01 1.469 2.688 c 0.679 0.942 1.939 1.501 2.281 2.688 l 0.094 2.033 c 1.336 1.145 2.831 2.111 4.439 2.875 l 0.875 -0.656 l 0.531 -1.813 c -1.478 -0.955 -3.298 -1.885 -4.375 -2.846 c -2.646 -2.383 -4.123 -5.228 -4.408 -8.375 z" style="fill:#51a243;opacity:1;fill-opacity:1"/>
 <path d="m 31 13 c -4.418 0 -8 3.582 -8 8 0 0.028 0.004 0.054 0.004 0.082 c -1.179 -0.684 -2.543 -1.082 -4 -1.082 c -4.418 0 -8 3.582 -8 8 0 4.418 2 8 8 11 l 0 -3 c 4.418 0 8 -3.582 8 -8 0 -0.028 -0.004 -0.054 -0.004 -0.082 c 1.179 0.684 2.543 1.082 4 1.082 l 0 3 c 6 -3 8 -6.582 8 -11 0 -4.418 -3.582 -8 -8 -8 z" style="fill:#000;opacity:0.1;fill-opacity:1;stroke:none"/>
 <path d="m 18 19 c -4.418 0 -8 3.582 -8 8 c 0 4.418 2 8 8 11 l 0 -3 c 4.418 0 8 -3.582 8 -8 c 0 -4.418 -3.582 -8 -8 -8 z" style="fill:#fc9754;opacity:1;fill-opacity:1;stroke:none"/>
 <path d="m 23 27 c 0 0.553 -0.446 0.999 -0.999 0.999 -0.553 0 -0.999 -0.446 -0.999 -0.999 0 -0.553 0.446 -0.999 0.999 -0.999 0.553 0 0.999 0.446 0.999 0.999 z m -4 0 c 0 0.553 -0.446 0.999 -0.999 0.999 -0.553 0 -0.999 -0.446 -0.999 -0.999 0 -0.553 0.446 -0.999 0.999 -0.999 0.553 0 0.999 0.446 0.999 0.999 z m -4 0 c 0 0.553 -0.446 0.999 -0.999 0.999 -0.553 0 -0.999 -0.446 -0.999 -0.999 0 -0.553 0.446 -0.999 0.999 -0.999 0.553 0 0.999 0.446 0.999 0.999 z" style="fill:#f9f9f9;fill-opacity:1;stroke:none;display:inline"/>
 <path d="m 30 12 c -4.418 0 -8 3.582 -8 8 c 0 4.418 3.582 8 8 8 l 0 3 c 6 -3 8 -6.582 8 -11 c 0 -4.418 -3.582 -8 -8 -8 z" style="fill:#fc9754;opacity:1;fill-opacity:1;stroke:none"/>
 <path d="m 35 19.998 c 0 0.553 -0.446 0.999 -0.999 0.999 -0.553 0 -0.999 -0.446 -0.999 -0.999 0 -0.553 0.446 -0.999 0.999 -0.999 0.553 0 0.999 0.446 0.999 0.999 z m -4 0 c 0 0.553 -0.446 0.999 -0.999 0.999 -0.553 0 -0.999 -0.446 -0.999 -0.999 0 -0.553 0.446 -0.999 0.999 -0.999 0.553 0 0.999 0.446 0.999 0.999 z m -4 0 c 0 0.553 -0.446 0.999 -0.999 0.999 -0.553 0 -0.999 -0.446 -0.999 -0.999 0 -0.553 0.446 -0.999 0.999 -0.999 0.553 0 0.999 0.446 0.999 0.999 z" style="fill:#f9f9f9;fill-opacity:1;stroke:none;display:inline"/>
</svg>
