<svg version="1.1" viewBox="0 0 48 48" xmlns="http://www.w3.org/2000/svg">
 <defs>
  <linearGradient id="linearGradient3764" x1="1" x2="47" gradientTransform="matrix(0 -1 1 0 -1.5e-6 48)" gradientUnits="userSpaceOnUse">
   <stop style="stop-color:#8e6b93" offset="0"/>
   <stop style="stop-color:#97769c" offset="1"/>
  </linearGradient>
 </defs>
 <path d="m36.31 5c5.859 4.062 9.688 10.831 9.688 18.5 0 12.426-10.07 22.5-22.5 22.5-7.669 0-14.438-3.828-18.5-9.688 1.037 1.822 2.306 3.499 3.781 4.969 4.085 3.712 9.514 5.969 15.469 5.969 12.703 0 23-10.298 23-23 0-5.954-2.256-11.384-5.969-15.469-1.469-1.475-3.147-2.744-4.969-3.781zm4.969 3.781c3.854 4.113 6.219 9.637 6.219 15.719 0 12.703-10.297 23-23 23-6.081 0-11.606-2.364-15.719-6.219 4.16 4.144 9.883 6.719 16.219 6.719 12.703 0 23-10.298 23-23 0-6.335-2.575-12.06-6.719-16.219z" style="opacity:.05"/>
 <path d="m41.28 8.781c3.712 4.085 5.969 9.514 5.969 15.469 0 12.703-10.297 23-23 23-5.954 0-11.384-2.256-15.469-5.969 4.113 3.854 9.637 6.219 15.719 6.219 12.703 0 23-10.298 23-23 0-6.081-2.364-11.606-6.219-15.719z" style="opacity:.1"/>
 <path d="m31.25 2.375c8.615 3.154 14.75 11.417 14.75 21.13 0 12.426-10.07 22.5-22.5 22.5-9.708 0-17.971-6.135-21.12-14.75a23 23 0 0 0 44.875-7 23 23 0 0 0-16-21.875z" style="opacity:.2"/>
 <path d="m24 1c12.703 0 23 10.297 23 23s-10.297 23-23 23-23-10.297-23-23 10.297-23 23-23z" style="fill:url(#linearGradient3764)"/>
 <g transform="translate(1,1)" style="fill-opacity:.098">
  <path d="m31.594 14-0.969 0.75c-1.969-0.523-2.316 1.059-2.094 1.762l-5.629 4.633c-3.277-2.348-6.01 0.422-4.59 3.879l-2.316 1.762c-0.934 0.621-2.848 0.723-4-3.129l-3 1.039c0.402 5.496 3.543 7.305 5 7.305h24l-1.785-5-12.969 0.012 4.754-3.688 2.34 1.012-0.09-2.77 2.75 1.039-0.344-2.676 0.758-0.727m-12.191 2.82c0.332 0 0.625 0.133 0.809 0.387 0.371 0.516 0.152 1.328-0.5 1.824-0.648 0.5-1.477 0.484-1.84-0.031-0.371-0.512-0.152-1.324 0.5-1.824 0.324-0.25 0.695-0.363 1.031-0.355m-0.566 0.684c-0.25 0-0.465 0.227-0.465 0.488 0 0.262 0.215 0.488 0.465 0.488 0.254 0 0.438-0.227 0.438-0.488 0-0.262-0.184-0.488-0.438-0.488"/>
 </g>
 <path d="m31.594 14-0.969 0.75c-1.969-0.523-2.316 1.059-2.094 1.762l-5.629 4.633c-3.277-2.348-6.01 0.422-4.59 3.879l-2.316 1.762c-0.934 0.621-2.848 0.723-4-3.129l-3 1.039c0.402 5.496 3.543 7.305 5 7.305h24l-1.785-5-12.969 0.012 4.754-3.688 2.34 1.012-0.09-2.77 2.75 1.039-0.344-2.676 0.758-0.727m-12.191 2.82c0.332 0 0.625 0.133 0.809 0.387 0.371 0.516 0.152 1.328-0.5 1.824-0.648 0.5-1.477 0.484-1.84-0.031-0.371-0.512-0.152-1.324 0.5-1.824 0.324-0.25 0.695-0.363 1.031-0.355m-0.566 0.684c-0.25 0-0.465 0.227-0.465 0.488 0 0.262 0.215 0.488 0.465 0.488 0.254 0 0.438-0.227 0.438-0.488 0-0.262-0.184-0.488-0.438-0.488" style="fill:#433546"/>
 <path d="m40.03 7.531c3.712 4.084 5.969 9.514 5.969 15.469 0 12.703-10.297 23-23 23-5.954 0-11.384-2.256-15.469-5.969 4.178 4.291 10.01 6.969 16.469 6.969 12.703 0 23-10.298 23-23 0-6.462-2.677-12.291-6.969-16.469z" style="opacity:.1"/>
</svg>
