<svg version="1.1" viewBox="0 0 48 48" xmlns="http://www.w3.org/2000/svg">
 <defs>
  <linearGradient id="bg" x2="0" y1="1" y2="47" gradientUnits="userSpaceOnUse">
   <stop style="stop-color:#edec59" offset="0"/>
   <stop style="stop-color:#ebea47" offset="1"/>
  </linearGradient>
 </defs>
 <path d="m36.31 5c5.859 4.062 9.688 10.831 9.688 18.5 0 12.426-10.07 22.5-22.5 22.5-7.669 0-14.438-3.828-18.5-9.688 1.037 1.822 2.306 3.499 3.781 4.969 4.085 3.712 9.514 5.969 15.469 5.969 12.703 0 23-10.298 23-23 0-5.954-2.256-11.384-5.969-15.469-1.469-1.475-3.147-2.744-4.969-3.781zm4.969 3.781c3.854 4.113 6.219 9.637 6.219 15.719 0 12.703-10.297 23-23 23-6.081 0-11.606-2.364-15.719-6.219 4.16 4.144 9.883 6.719 16.219 6.719 12.703 0 23-10.298 23-23 0-6.335-2.575-12.06-6.719-16.219z" style="opacity:.05"/>
 <path d="m41.28 8.781c3.712 4.085 5.969 9.514 5.969 15.469 0 12.703-10.297 23-23 23-5.954 0-11.384-2.256-15.469-5.969 4.113 3.854 9.637 6.219 15.719 6.219 12.703 0 23-10.298 23-23 0-6.081-2.364-11.606-6.219-15.719z" style="opacity:.1"/>
 <path d="m31.25 2.375c8.615 3.154 14.75 11.417 14.75 21.13 0 12.426-10.07 22.5-22.5 22.5-9.708 0-17.971-6.135-21.12-14.75a23 23 0 0 0 44.875-7 23 23 0 0 0-16-21.875z" style="opacity:.2"/>
 <circle cx="24" cy="24" r="23" style="fill:url(#bg)"/>
 <path d="m25 14c-1.8284 0-3.456 0.46318-4.417 1.405-0.92843 1.0223-1.583 1.595-1.583 3.5951v2.7148c-0.09866-0.02012-0.09018-0.03186-0.19336-0.04883-0.40734-0.067-0.84526-0.11369-1.3203-0.04492-0.47506 0.06876-1.1377 0.33834-1.4102 0.99609-0.26352 0.6362-0.08273 1.394 0.23047 1.8379 0.3132 0.44392 0.69202 0.72111 1.0371 0.9707 0.34509 0.2496 0.6681 0.4654 0.85352 0.625s0.13486 0.21976 0.12109 0.01563c6.26e-4 0.0052 0.0013 0.01043 2e-3 0.01563 0.05623 0.68244-0.16905 1.3526-1.0273 2.2109-0.2008 0.2008-0.89173 0.57318-1.5527 0.89844-0.3305 0.16263-0.65382 0.31941-0.96289 0.53516-0.30912 0.21574-0.77739 0.53762-0.77739 1.2734 0 0.21538 0.05914 0.5186 0.24414 0.76758s0.43806 0.37961 0.61719 0.44141c0.35826 0.1236 0.55211 0.10678 0.78516 0.13086 0.32621 0.03371 0.83891 0.21547 1.334 0.38867-0.01798 0.2583-0.0035 0.66253 0.3125 0.97852 0.30178 0.30178 0.72361 0.44557 1.0488 0.4707 0.32522 0.02514 0.5799-0.02407 0.79297-0.06836 0.42613-0.08859 0.71766-0.11889 0.67578-0.12695 0.62671 0.1207 1.2813 0.53098 2.0938 1.0078 0.81249 0.47683 1.819 1.0098 3.0957 1.0098 1.2768 0 2.2832-0.53293 3.0957-1.0098 0.81249-0.47683 1.4671-0.88712 2.0938-1.0078-0.04192 0.0081 0.24964 0.03836 0.67578 0.12695 0.21307 0.04429 0.46775 0.0935 0.79297 0.06836s0.74704-0.16892 1.0488-0.4707c0.31523-0.31523 0.32816-0.71807 0.31055-0.97656 0.4934-0.17153 1.0029-0.35046 1.3301-0.38281 0.23376-0.02311 0.43196-0.0045 0.79688-0.13281 0.18246-0.06417 0.43794-0.20218 0.61914-0.45312 0.18121-0.25094 0.23633-0.5483 0.23633-0.76172 0-0.44652-0.21397-0.70763-0.36328-0.86719s-0.2901-0.25821-0.43359-0.35352c-0.28699-0.19061-0.59753-0.35015-0.92188-0.51953-0.6487-0.33876-1.3519-0.74444-1.5742-0.9668-0.8602-0.86025-1.1373-1.5569-1.1074-2.1934-0.02022 0.14477-0.05193 0.11278 0.12891-0.03711 0.19747-0.16368 0.53022-0.3795 0.88476-0.62891 0.35455-0.24941 0.74106-0.52454 1.0625-0.9668s0.51382-1.208 0.24805-1.8496c-0.27246-0.65774-0.9351-0.92733-1.4102-0.99609-0.47506-0.06876-0.91297-0.02207-1.3203 0.04492-0.10318 0.01697-0.0947 0.02871-0.19336 0.04883v-2.7148c-1.84e-4 -2-0.80693-2.8139-1.5832-3.595-0.96093-0.9418-2.5884-1.4051-4.4168-1.4051z" style="opacity:.1"/>
 <path d="m24 13c-1.8284 0-3.456 0.46318-4.417 1.405-0.92843 1.0223-1.583 1.595-1.583 3.5951v2.7148c-0.09866-0.02012-0.09018-0.03186-0.19336-0.04883-0.40734-0.067-0.84526-0.11369-1.3203-0.04492-0.47506 0.06876-1.1377 0.33834-1.4102 0.99609-0.26352 0.6362-0.08273 1.394 0.23047 1.8379 0.3132 0.44392 0.69202 0.72111 1.0371 0.9707 0.34509 0.2496 0.6681 0.4654 0.85352 0.625s0.13486 0.21976 0.12109 0.01563c6.26e-4 0.0052 0.0013 0.01043 2e-3 0.01563 0.05623 0.68244-0.16905 1.3526-1.0273 2.2109-0.2008 0.2008-0.89173 0.57318-1.5527 0.89844-0.3305 0.16263-0.65382 0.31941-0.96289 0.53516-0.30912 0.21574-0.77739 0.53762-0.77739 1.2734 0 0.21538 0.05914 0.5186 0.24414 0.76758s0.43806 0.37961 0.61719 0.44141c0.35826 0.1236 0.55211 0.10678 0.78516 0.13086 0.32621 0.03371 0.83891 0.21547 1.334 0.38867-0.01798 0.2583-0.0035 0.66253 0.3125 0.97852 0.30178 0.30178 0.72361 0.44557 1.0488 0.4707 0.32522 0.02514 0.5799-0.02407 0.79297-0.06836 0.42613-0.08859 0.71766-0.11889 0.67578-0.12695 0.62671 0.1207 1.2813 0.53098 2.0938 1.0078 0.81249 0.47683 1.819 1.0098 3.0957 1.0098 1.2768 0 2.2832-0.53293 3.0957-1.0098 0.81249-0.47683 1.4671-0.88712 2.0938-1.0078-0.04192 0.0081 0.24964 0.03836 0.67578 0.12695 0.21307 0.04429 0.46775 0.0935 0.79297 0.06836s0.74704-0.16892 1.0488-0.4707c0.31523-0.31523 0.32816-0.71807 0.31055-0.97656 0.4934-0.17153 1.0029-0.35046 1.3301-0.38281 0.23376-0.02311 0.43196-0.0045 0.79688-0.13281 0.18246-0.06417 0.43794-0.20218 0.61914-0.45312 0.18121-0.25094 0.23633-0.5483 0.23633-0.76172 0-0.44652-0.21397-0.70763-0.36328-0.86719s-0.2901-0.25821-0.43359-0.35352c-0.28699-0.19061-0.59753-0.35015-0.92188-0.51953-0.6487-0.33876-1.3519-0.74444-1.5742-0.9668-0.8602-0.86025-1.1373-1.5569-1.1074-2.1934-0.02022 0.14477-0.05193 0.11278 0.12891-0.03711 0.19747-0.16368 0.53022-0.3795 0.88476-0.62891 0.35455-0.24941 0.74106-0.52454 1.0625-0.9668s0.51382-1.208 0.24805-1.8496c-0.27246-0.65774-0.9351-0.92733-1.4102-0.99609-0.47506-0.06876-0.91297-0.02207-1.3203 0.04492-0.10318 0.01697-0.0947 0.02871-0.19336 0.04883v-2.7148c-1.84e-4 -2-0.80693-2.8139-1.5832-3.595-0.96093-0.9418-2.5884-1.4051-4.4168-1.4051z" style="fill:#474747"/>
 <path d="m40.03 7.531c3.712 4.084 5.969 9.514 5.969 15.469 0 12.703-10.297 23-23 23-5.954 0-11.384-2.256-15.469-5.969 4.178 4.291 10.01 6.969 16.469 6.969 12.703 0 23-10.298 23-23 0-6.462-2.677-12.291-6.969-16.469z" style="opacity:.1"/>
 <path d="m24 14c-3.2022 0-5 2-5 4v4s-2.6173-0.92388-3 0c-0.5412 1.3066 2.249 2 2.3164 3 0.0824 1-0.31641 2-1.3164 3-0.8498 0.8498-3 1.3841-3 2 0 0.58668 1 0 3 1 0.29814 0.14907-0.2357 0.7643 0 1 0.4714 0.4714 1.3454-0.12607 2 0 1.7627 0.3395 3 2 5 2s3.2373-1.6605 5-2c0.6546-0.12607 1.5286 0.4714 2 0 0.2357-0.2357-0.29814-0.85093 0-1 2-1 3-0.3955 3-1 0-0.4607-2.1502-1.1502-3-2-0.99995-1-1.4707-2-1.4062-3 0.1033-1 2.9474-1.6934 2.4062-3-0.3827-0.92388-3 0-3 0v-4c0-2-1.7978-4-5-4z" style="fill:#f5f5f5"/>
</svg>
