<svg version="1.1" viewBox="0 0 48 48" xmlns="http://www.w3.org/2000/svg">
 <defs>
  <linearGradient id="bg" x1="-20.685" x2="-20.685" y1="52.746" y2="20.412" gradientTransform="matrix(1.1935 0 0 1.4175 24.687 -27.933)" gradientUnits="userSpaceOnUse">
   <stop style="stop-color:#fc5493" offset="0"/>
   <stop style="stop-color:#fc689f" offset="1"/>
  </linearGradient>
 </defs>
 <path d="m36.31 5c5.859 4.062 9.688 10.831 9.688 18.5 0 12.426-10.07 22.5-22.5 22.5-7.669 0-14.438-3.828-18.5-9.688 1.037 1.822 2.306 3.499 3.781 4.969 4.085 3.712 9.514 5.969 15.469 5.969 12.703 0 23-10.298 23-23 0-5.954-2.256-11.384-5.969-15.469-1.469-1.475-3.147-2.744-4.969-3.781zm4.969 3.781c3.854 4.113 6.219 9.637 6.219 15.719 0 12.703-10.297 23-23 23-6.081 0-11.606-2.364-15.719-6.219 4.16 4.144 9.883 6.719 16.219 6.719 12.703 0 23-10.298 23-23 0-6.335-2.575-12.06-6.719-16.219z" style="opacity:.05"/>
 <path d="m41.28 8.781c3.712 4.085 5.969 9.514 5.969 15.469 0 12.703-10.297 23-23 23-5.954 0-11.384-2.256-15.469-5.969 4.113 3.854 9.637 6.219 15.719 6.219 12.703 0 23-10.298 23-23 0-6.081-2.364-11.606-6.219-15.719z" style="opacity:.1"/>
 <path d="m31.25 2.375c8.615 3.154 14.75 11.417 14.75 21.13 0 12.426-10.07 22.5-22.5 22.5-9.708 0-17.971-6.135-21.12-14.75a23 23 0 0 0 44.875-7 23 23 0 0 0-16-21.875z" style="opacity:.2"/>
 <path d="m47 24a23 22.836 0 1 1-46 0 23 22.836 0 1 1 46 0z" style="fill:url(#bg)"/>
 <path d="m24.993 10.002c-4.144 0-6.855 2.38-8.137 5.174-1.596-0.05-3.192-0.1-4.783-0.174-0.586-0.031-1.145 0.648-1.066 1.098 1.01 6.68 1.063 12.918 0 19.801-0.074 0.453 0.48 1.121 1.066 1.098h25.836c0.598 0.023 1.148-0.645 1.078-1.098-1.063-6.879-1.078-13.199 0-19.801 0.078-0.453-0.48-1.133-1.078-1.098-1.598 0.087-3.185 0.136-4.773 0.188-1.28-2.8-3.995-5.188-8.143-5.188zm0 1c3.2 0 5.576 1.981 6.875 4.236-4.613 0.123-9.19 0.108-13.74-0.016 1.301-2.249 3.672-4.221 6.865-4.221z" style="opacity:.1"/>
 <path d="m40.03 7.531c3.712 4.084 5.969 9.514 5.969 15.469 0 12.703-10.297 23-23 23-5.954 0-11.384-2.256-15.469-5.969 4.178 4.291 10.01 6.969 16.469 6.969 12.703 0 23-10.298 23-23 0-6.462-2.677-12.291-6.969-16.469z" style="opacity:.1"/>
 <path d="m11.08 14.002c-0.586-0.031-1.145 0.648-1.066 1.098 1.01 6.68 1.063 12.918 0 19.801-0.073999 0.453 0.48 1.121 1.066 1.098h25.836c0.598 0.023 1.148-0.645 1.078-1.098-1.063-6.879-1.078-13.199 0-19.801 0.078-0.453-0.48-1.133-1.078-1.098-8.738 0.473-17.32 0.395-25.836 0" style="fill:#f8ecde"/>
 <path d="m17 18.502c0 0.828-0.672 1.5-1.5 1.5s-1.5-0.672-1.5-1.5 0.672-1.5 1.5-1.5 1.5 0.672 1.5 1.5" style="fill:#a9946f"/>
 <path d="m34 18.502c0 0.828-0.672 1.5-1.5 1.5s-1.5-0.672-1.5-1.5 0.672-1.5 1.5-1.5 1.5 0.672 1.5 1.5" style="fill:#a9946f"/>
 <path d="m15.5 19.002c-0.5 0-0.5-0.578-0.5-1 0-4.01 3-9 9-9 5.996 0 9 4.988 9 9 0 0.422 0 1-0.5 1s-0.5-0.578-0.5-1c0-3.168-3-8-8-8s-8 4.832-8 8c0 0.422 0 1-0.496 1" style="fill:#e5d6be"/>
 <path d="m23.865 17.704c-0.99882 0.03584-1.9108 0.51186-2.739 1.0488-0.49776 0.25825-0.90082 0.6714-1.3458 1.1191-0.46871 0.60166-0.70598 1.3543-1.1977 1.9297-0.30561 0.78627-0.55503 1.5998-0.46694 2.457-0.03176 1.3018-0.01002 2.6367 0.48403 3.8594 0.81951 2.1859 2.5777 4.0885 4.7985 4.7383 0.36224 0.11066 1.4192 0.19404 1.361 0.10938-0.72338-0.02713-1.6283-0.46335-1.9608-0.91406 0.13407 0.21642-0.7762-0.16746-0.7137-0.49219-0.52621-0.37134-0.99593-0.77837-1.3363-1.3281-0.41737-0.48416-0.50083-0.87615-0.65486-1.3203-0.30103-0.36588-0.26772-0.64551-0.04746-0.56641-0.31399-0.58454-1.0411-0.85196-1.0098-1.5859-0.04391-0.69357-0.3138-1.3385-0.17083-2.0547 0.08617-0.61073 0.0423-1.2632 0.36255-1.8066 0.22549-0.75221 0.5894-1.415 1.2034-1.9141 0.21204-0.34504 0.9406-0.4523 1.025-0.68945-0.31119 9.97e-4 0.47279-0.47108 0.73458-0.45703 0.23127-0.07866 0.58068-0.15032 0.21259-0.13867 0.29271-0.20876 1.2859-0.69651 1.3173-0.46484-0.462 0.15137 0.56433-0.18239 0.80102-0.12109 1.1563-0.03658 2.3283 0.44337 3.0636 1.3809 0.93612 1.0661 1.2043 2.6161 0.93579 3.9961 0.30046-0.23282-0.17353 0.8678-0.37394 1.0566-0.12972 0.3974-0.91077 1.2018-1.0573 0.97461 0.11791-0.07537-0.54531 0.4675-0.82 0.47656-1.2411 0.44393-2.6417-0.36625-3.0845-1.5977-0.15873-0.65706-0.34379-1.1052-0.1063-1.7695 0.4263-1.3847 2.2947-1.965 3.3806-1.0273-0.7424-1.0117-2.3987-1.0176-3.1338 0.0059-0.48174 0.60168-0.85939 1.3481-0.76685 2.1562 0.01662 1.0661 0.82435 1.8713 1.6039 2.4609-0.23756 0.41736-1.292-1.0771-0.66245-0.20898 0.35314 0.54187-1.1108-1.1809-0.46125-0.30078 0.72599 0.80077 1.8481 1.3919 2.925 1.1289-0.56072-0.05368-1.2652 0.03573-1.7083-0.45508 0.42931-0.03312 1.4019 0.35105 2.0367 0.09766 0.81652-0.15738 1.5519-0.63081 2.0937-1.2715 0.23043-0.09146-0.04749 0.43499 0.13097-0.05664-0.01432-0.37516 0.2938-0.53096 0.37583-0.42773 0.09682-0.35544 0.45242-1.3576 0.47644-1.2539-4.26e-4 0.32503-0.08442 0.57223 0.01898 0.11914-0.07433-0.27625 0.04607-0.66675 0.0987-0.22656 0.19648-0.6921 0.1127-1.3255-0.11199-1.9707 0.40424 0.37523 0.02056-0.69804-0.2031-0.82226 0.09775-0.6004 0.50466-0.0047 0.62069 0.41211-0.06529-0.35131-0.01-0.67136-0.07972-0.93945-0.42416-1.0278-1.2151-1.8838-2.1582-2.4277 0.41594 0.57289-0.44596-0.47578-0.73079-0.18359-0.7126-0.12845-1.3548-0.65666-2.0842-0.49023-0.20932 0.12678-0.9452 0.04143-0.33218-0.05859-0.24846-0.05029-1.2829 0.11557-0.54287-0.18555zm5.9279 4.2852c0.0041 0.0221 0.0082 0.04405 0.01328 0.06641-0.0045-0.02229-0.0066-0.04258-0.01328-0.06641zm0.01328 0.06641c0.01073 0.05329 0.03798 0.11876 0.03417 0.1582 0.07136 0.37448 0.25862 0.80974 0.09301 0.19141-0.06334-0.11973-0.1009-0.23557-0.12718-0.34961zm-5.5711-4.2617c0.13055 0.02386 0.28513 0.04171 0.26194 0.07617 0.14772-0.03447 0.17779-0.06203-0.26194-0.07617zm-5.8406 3.0977c-0.20785 0.46314 0.15266 0.35647 0.09681 0.04102-0.02996 0.02179-0.1041 0.0133-0.09681-0.04102zm-0.26764 1.1699c-0.26504 0.57716-0.03935 0.57733 0 0zm8.8321 1.7051c-0.2649 0.38505 0.25204 0.48467 0 0zm-0.15944 0.94922c-0.01581 0.10038-0.05369 0.19498-0.09111 0.28906 0.06398-0.08448 0.11049-0.1833 0.09111-0.28906zm-0.09111 0.28906c-0.16658 0.21995-0.46749 0.30626-0.14616-0.10352-0.32744 0.08144-0.0818 0.7965 0.11579 0.19922 0.01427-0.03027 0.01797-0.06453 0.03037-0.0957zm-0.9187 0.69141c-0.31213 0.0201-0.99233 0.05366-0.3075 0.21484 0.13968 0.01398 0.20142-0.15533 0.3075-0.21484zm-3.1319 0.03516c0.09276 0.3943 0.39512 0.65312 0.06454 0.13086zm-0.19361 0.35156c-0.18185 0.33202 0.71096 1.08 0.25245 0.45703-0.09008-0.14852-0.17472-0.30128-0.25245-0.45703z" style="fill:#d60451;stroke-width:.8712"/>
</svg>
