<svg xmlns="http://www.w3.org/2000/svg" viewBox="0 0 48 48">
 <g>
  <path d="m 36.31,5 c 5.859,4.062 9.688,10.831 9.688,18.5 0,12.426 -10.07,22.5 -22.5,22.5 -7.669,0 -14.438,-3.828 -18.5,-9.688 1.037,1.822 2.306,3.499 3.781,4.969 4.085,3.712 9.514,5.969 15.469,5.969 12.703,0 23,-10.298 23,-23 0,-5.954 -2.256,-11.384 -5.969,-15.469 C 39.81,7.306 38.132,6.037 36.31,5 z m 4.969,3.781 c 3.854,4.113 6.219,9.637 6.219,15.719 0,12.703 -10.297,23 -23,23 -6.081,0 -11.606,-2.364 -15.719,-6.219 4.16,4.144 9.883,6.719 16.219,6.719 12.703,0 23,-10.298 23,-23 0,-6.335 -2.575,-12.06 -6.719,-16.219 z" style="opacity:0.05"/>
  <path d="m 41.28 8.781 c 3.712 4.085 5.969 9.514 5.969 15.469 0 12.703 -10.297 23 -23 23 -5.954 0 -11.384 -2.256 -15.469 -5.969 4.113 3.854 9.637 6.219 15.719 6.219 12.703 0 23 -10.298 23 -23 0 -6.081 -2.364 -11.606 -6.219 -15.719 z" style="opacity:0.1"/>
  <path d="M 31.25,2.375 C 39.865,5.529 46,13.792 46,23.505 c 0,12.426 -10.07,22.5 -22.5,22.5 -9.708,0 -17.971,-6.135 -21.12,-14.75 a 23,23 0 0 0 44.875,-7 23,23 0 0 0 -16,-21.875 z" style="opacity:0.2"/>
 </g>
 <path d="m 18.696 36.638 a 19.272 16.11 0 1 1 -38.543 0 19.272 16.11 0 1 1 38.543 0 z" transform="matrix(1.1934626,0,0,1.4278927,24.686567,-28.315635)" style="fill:#fc689f;fill-opacity:1;stroke:none;fill-rule:nonzero"/>
 <g>
  <g>
   <g transform="translate(1,1)">
    <g style="opacity:0.1">
     <!-- color: #f7b754 -->
     <g>
      <path d="m 25 11 c -4.144 0 -6.855 2.38 -8.137 5.174 c -1.596 -0.05 -3.192 -0.1 -4.783 -0.174 c -0.586 -0.031 -1.145 0.648 -1.066 1.098 c 1.01 6.68 1.063 12.918 0 19.801 c -0.074 0.453 0.48 1.121 1.066 1.098 l 25.836 0 c 0.598 0.023 1.148 -0.645 1.078 -1.098 c -1.063 -6.879 -1.078 -13.199 0 -19.801 c 0.078 -0.453 -0.48 -1.133 -1.078 -1.098 c -1.598 0.087 -3.185 0.136 -4.773 0.188 c -1.28 -2.8 -3.995 -5.188 -8.143 -5.188 z m 0 1 c 3.2 0 5.576 1.981 6.875 4.236 c -4.613 0.123 -9.19 0.108 -13.74 -0.016 c 1.301 -2.249 3.672 -4.221 6.865 -4.221 z" transform="translate(-1,-1)" style="fill:#000;fill-opacity:1;stroke:none;fill-rule:nonzero"/>
     </g>
    </g>
   </g>
  </g>
 </g>
 <g>
  <path d="m 40.03,7.531 c 3.712,4.084 5.969,9.514 5.969,15.469 0,12.703 -10.297,23 -23,23 C 17.045,46 11.615,43.744 7.53,40.031 11.708,44.322 17.54,47 23.999,47 c 12.703,0 23,-10.298 23,-23 0,-6.462 -2.677,-12.291 -6.969,-16.469 z" style="opacity:0.1"/>
 </g>
 <g transform="translate(4.8845858e-4,0)">
  <path d="m 11.08 15 c -0.586 -0.031 -1.145 0.648 -1.066 1.098 1.01 6.68 1.063 12.918 0 19.801 -0.074 0.453 0.48 1.121 1.066 1.098 8.617 0 17.227 0 25.836 0 0.598 0.023 1.148 -0.645 1.078 -1.098 -1.063 -6.879 -1.078 -13.199 0 -19.801 0.078 -0.453 -0.48 -1.133 -1.078 -1.098 -8.738 0.473 -17.32 0.395 -25.836 0 m 0 0" style="fill:#f8ecde;fill-opacity:1;stroke:none;fill-rule:nonzero"/>
  <path d="M 17,19.5 C 17,20.328 16.328,21 15.5,21 14.672,21 14,20.328 14,19.5 14,18.672 14.672,18 15.5,18 c 0.828,0 1.5,0.672 1.5,1.5 m 0,0" style="fill:#a9946f;fill-opacity:1;stroke:none;fill-rule:nonzero"/>
  <path d="M 34,19.5 C 34,20.328 33.328,21 32.5,21 31.672,21 31,20.328 31,19.5 31,18.672 31.672,18 32.5,18 c 0.828,0 1.5,0.672 1.5,1.5 m 0,0" style="fill:#a9946f;fill-opacity:1;stroke:none;fill-rule:nonzero"/>
  <path d="M 15.5,20 C 15,20 15,19.422 15,19 c 0,-4.01 3,-9 9,-9 5.996,0 9,4.988 9,9 0,0.422 0,1 -0.5,1 C 32,20 32,19.422 32,19 c 0,-3.168 -3,-8 -8,-8 -5,0 -8,4.832 -8,8 0,0.422 0,1 -0.496,1 m 0,0" style="fill:#e5d6be;fill-opacity:1;stroke:none;fill-rule:nonzero"/>
  <g transform="matrix(0.88372539,0,0,0.88372539,2.7969823,2.3639744)" style="fill:#d60451;fill-opacity:1">
   <path d="m 25.418 29.42 c -0.289 0.004 0.055 0.148 0.43 0.207 0.105 -0.082 0.199 -0.164 0.285 -0.242 -0.234 0.059 -0.473 0.059 -0.715 0.035" style="stroke:none;fill-rule:nonzero"/>
   <path d="m 26.969 29.04 c 0.172 -0.238 0.297 -0.5 0.34 -0.766 -0.039 0.191 -0.141 0.355 -0.238 0.531 -0.543 0.34 -0.051 -0.203 0 -0.41 -0.582 0.73 -0.082 0.438 -0.102 0.645" style="stroke:none;fill-rule:nonzero"/>
   <path d="m 27.539 27.548 c 0.035 -0.52 -0.102 -0.355 -0.148 -0.156 0.055 0.027 0.098 0.367 0.148 0.156" style="stroke:none;fill-rule:nonzero"/>
   <path d="m 24.324 20.443 c 0.152 0.027 0.332 0.047 0.305 0.086 0.172 -0.039 0.207 -0.07 -0.305 -0.086" style="stroke:none;fill-rule:nonzero"/>
   <path d="m 24.629 20.529 -0.105 0.023 0.098 -0.012 0.008 -0.012" style="stroke:none;fill-rule:nonzero"/>
   <path d="m 29.438 27.747 c 0.016 0.465 -0.137 0.691 -0.277 1.094 l -0.25 0.125 c -0.203 0.398 0.02 0.25 -0.125 0.566 -0.32 0.285 -0.969 0.887 -1.176 0.941 -0.152 -0.004 0.102 -0.176 0.137 -0.246 -0.426 0.293 -0.344 0.441 -0.996 0.617 l -0.02 -0.043 c -1.609 0.758 -3.844 -0.742 -3.816 -2.789 -0.016 0.129 -0.047 0.098 -0.082 0.148 -0.086 -1.055 0.484 -2.113 1.445 -2.543 0.941 -0.465 2.043 -0.273 2.715 0.352 -0.367 -0.484 -1.105 -0.996 -1.977 -0.949 -0.855 0.016 -1.656 0.559 -1.922 1.145 -0.438 0.277 -0.488 1.063 -0.68 1.207 -0.258 1.887 0.484 2.699 1.734 3.66 0.195 0.133 0.055 0.152 0.082 0.254 -0.414 -0.195 -0.797 -0.488 -1.109 -0.848 0.168 0.242 0.344 0.477 0.578 0.664 -0.395 -0.133 -0.918 -0.949 -1.07 -0.984 0.676 1.211 2.742 2.121 3.82 1.668 -0.5 0.02 -1.133 0.012 -1.695 -0.195 -0.238 -0.121 -0.559 -0.375 -0.5 -0.422 1.473 0.551 3 0.418 4.273 -0.605 0.324 -0.254 0.68 -0.684 0.785 -0.688 -0.156 0.23 0.023 0.109 -0.094 0.316 0.324 -0.523 -0.141 -0.211 0.336 -0.902 l 0.176 0.242 c -0.066 -0.434 0.535 -0.961 0.477 -1.645 0.137 -0.211 0.152 0.227 0.008 0.707 0.203 -0.535 0.051 -0.621 0.105 -1.063 0.055 0.148 0.129 0.309 0.168 0.465 -0.133 -0.52 0.137 -0.871 0.203 -1.172 -0.066 -0.027 -0.207 0.227 -0.238 -0.383 0.004 -0.273 0.074 -0.137 0.102 -0.203 -0.051 -0.031 -0.188 -0.234 -0.273 -0.625 0.063 -0.09 0.164 0.238 0.246 0.254 -0.055 -0.313 -0.145 -0.547 -0.148 -0.785 -0.242 -0.5 -0.086 0.066 -0.281 -0.215 -0.254 -0.793 0.211 -0.184 0.246 -0.547 0.383 0.563 0.605 1.43 0.707 1.789 -0.078 -0.441 -0.203 -0.863 -0.355 -1.273 0.117 0.047 -0.188 -0.902 0.152 -0.273 -0.363 -1.34 -1.559 -2.594 -2.66 -3.184 0.133 0.121 0.305 0.277 0.242 0.301 -0.547 -0.324 -0.449 -0.352 -0.527 -0.488 -0.449 -0.18 -0.477 0.016 -0.773 0 -0.84 -0.445 -1 -0.398 -1.77 -0.676 l 0.035 0.164 c -0.563 -0.188 -0.648 0.07 -1.25 0 -0.039 -0.027 0.188 -0.102 0.379 -0.129 -0.535 0.07 -0.512 -0.109 -1.039 0.02 0.129 -0.094 0.27 -0.152 0.406 -0.23 -0.441 0.027 -1.051 0.254 -0.859 0.047 -0.715 0.32 -1.988 0.77 -2.703 1.438 l -0.02 -0.148 c -0.328 0.391 -1.43 1.172 -1.52 1.68 l -0.086 0.02 c -0.172 0.289 -0.281 0.613 -0.418 0.91 -0.223 0.379 -0.324 0.148 -0.293 0.207 -0.438 0.887 -0.656 1.633 -0.844 2.246 0.137 0.199 0.004 1.203 0.055 2.01 -0.219 3.969 2.785 7.824 6.07 8.711 0.484 0.176 1.199 0.168 1.809 0.184 -0.719 -0.203 -0.813 -0.105 -1.512 -0.352 -0.504 -0.238 -0.613 -0.508 -0.973 -0.82 l 0.141 0.25 c -0.699 -0.246 -0.406 -0.309 -0.977 -0.488 l 0.148 -0.195 c -0.227 -0.02 -0.602 -0.383 -0.703 -0.586 l -0.25 0.008 c -0.297 -0.367 -0.457 -0.633 -0.445 -0.84 l -0.082 0.145 c -0.09 -0.156 -1.098 -1.383 -0.574 -1.098 -0.098 -0.09 -0.227 -0.145 -0.367 -0.402 l 0.105 -0.121 c -0.25 -0.324 -0.461 -0.738 -0.445 -0.875 0.133 0.18 0.227 0.215 0.32 0.246 -0.637 -1.578 -0.672 -0.09 -1.156 -1.605 l 0.105 -0.012 c -0.078 -0.117 -0.125 -0.242 -0.191 -0.367 l 0.047 -0.445 c -0.457 -0.52 -0.129 -2.25 -0.063 -3.188 0.043 -0.391 0.383 -0.793 0.637 -1.438 l -0.156 -0.023 c 0.297 -0.523 1.703 -2.086 2.352 -2.01 0.316 -0.395 -0.063 0 -0.125 -0.102 0.691 -0.715 0.91 -0.504 1.375 -0.633 0.504 -0.301 -0.43 0.117 -0.188 -0.113 0.867 -0.223 0.617 -0.508 1.75 -0.617 0.121 0.066 -0.277 0.105 -0.379 0.191 0.727 -0.355 2.297 -0.273 3.313 0.199 1.184 0.551 2.508 2.184 2.566 3.723 l 0.059 0.016 c -0.031 0.609 0.094 1.316 -0.121 1.965 l 0.148 -0.305" style="stroke:none;fill-rule:nonzero"/>
   <path d="m 22.261 29.822 -0.043 0.203 c 0.191 0.258 0.34 0.535 0.582 0.738 -0.172 -0.34 -0.301 -0.48 -0.539 -0.941" style="stroke:none;fill-rule:nonzero"/>
   <path d="m 22.715 29.802 c -0.102 -0.113 -0.16 -0.246 -0.227 -0.379 0.063 0.234 0.195 0.438 0.316 0.641 l -0.09 -0.262" style="stroke:none;fill-rule:nonzero"/>
   <path d="m 30.653 28.08 -0.043 0.109 c -0.078 0.551 -0.246 1.098 -0.504 1.605 0.285 -0.535 0.469 -1.121 0.547 -1.715" style="stroke:none;fill-rule:nonzero"/>
   <path d="m 24.379 20.3 c 0.195 -0.063 0.48 -0.039 0.688 -0.086 -0.27 0.023 -0.539 0.039 -0.805 0.07 l 0.117 0.016" style="stroke:none;fill-rule:nonzero"/>
   <path d="m 17.524 23.947 c 0.047 0.418 -0.313 0.578 0.082 0.305 0.211 -0.473 -0.082 -0.129 -0.082 -0.305" style="stroke:none;fill-rule:nonzero"/>
   <path d="m 17.07 25.876 c 0.09 -0.277 0.105 -0.445 0.141 -0.605 -0.25 0.32 -0.113 0.387 -0.141 0.605" style="stroke:none;fill-rule:nonzero"/>
  </g>
 </g>
</svg>
