<svg version="1.1" viewBox="0 0 48 48" xmlns="http://www.w3.org/2000/svg">
 <defs>
  <linearGradient id="bg" x2="0" y1="1" y2="47" gradientUnits="userSpaceOnUse">
   <stop style="stop-color:#fbf9d5" offset="0"/>
   <stop style="stop-color:#f9f6c3" offset="1"/>
  </linearGradient>
 </defs>
 <path d="m36.3 5c5.86 4.06 9.69 10.8 9.69 18.5 0 12.4-10.1 22.5-22.5 22.5-7.67 0-14.4-3.83-18.5-9.69 1.04 1.82 2.31 3.5 3.78 4.97 4.08 3.71 9.51 5.97 15.5 5.97 12.7 0 23-10.3 23-23 0-5.95-2.26-11.4-5.97-15.5-1.47-1.48-3.15-2.74-4.97-3.78zm4.97 3.78c3.85 4.11 6.22 9.64 6.22 15.7 0 12.7-10.3 23-23 23-6.08 0-11.6-2.36-15.7-6.22 4.16 4.14 9.88 6.72 16.2 6.72 12.7 0 23-10.3 23-23 0-6.34-2.58-12.1-6.72-16.2z" style="opacity:.05"/>
 <path d="m41.3 8.78c3.71 4.08 5.97 9.51 5.97 15.5 0 12.7-10.3 23-23 23-5.95 0-11.4-2.26-15.5-5.97 4.11 3.85 9.64 6.22 15.7 6.22 12.7 0 23-10.3 23-23 0-6.08-2.36-11.6-6.22-15.7z" style="opacity:.1"/>
 <path d="m31.2 2.38c8.62 3.15 14.8 11.4 14.8 21.1 0 12.4-10.1 22.5-22.5 22.5-9.71 0-18-6.14-21.1-14.8a23 23 0 0 0 44.9-7 23 23 0 0 0-16-21.9z" style="opacity:.2"/>
 <path d="m24 1c12.7 0 23 10.3 23 23s-10.3 23-23 23-23-10.3-23-23 10.3-23 23-23z" style="fill:url(#bg)"/>
 <path d="m2.14 17-0.314 1h44.4l-0.307-1h-43.8zm-0.77 3-0.17 1h45.6l-0.166-1h-45.3zm-0.367 3v1h46l-0.0312-1h-46zm0.107 3 0.0879 1.02 45.6-0.0176 0.0742-1h-45.8zm45.3 2.98-44.9 0.0195 0.248 1 44.4 0.00977 0.252-1.03z" style="fill:#999"/>
 <path d="m40 7.53c3.71 4.08 5.97 9.51 5.97 15.5 0 12.7-10.3 23-23 23-5.95 0-11.4-2.26-15.5-5.97 4.18 4.29 10 6.97 16.5 6.97 12.7 0 23-10.3 23-23 0-6.46-2.68-12.3-6.97-16.5z" style="opacity:.1"/>
 <path d="m22 12 3.36 16.8-12.4 3.22c0 2.76 3.13 5 7 5s7-2.24 7-5c0-0.326-0.0435-0.645-0.127-0.953l-1.87-14s4 0 6 1c3.22 1.61 5 5 5 5v-7s-3-2-7-3z" style="opacity:.1"/>
 <path d="m21 11 3.34 16.8c-1.28-1.09-3.2-1.78-5.34-1.78-3.87 0-7 2.24-7 5s3.13 5 7 5 7-2.24 7-5c0-0.279-0.032-0.546-0.094-0.813l-1.91-14.2s4 0 6 1c3.22 1.61 5 5 5 5v-7s-3-2-7-3-7-1-7-1z" style="fill:#776897"/>
</svg>
