<svg id="svg23" version="1.1" viewBox="0 0 48 48" xmlns="http://www.w3.org/2000/svg">
 <defs id="defs7">
  <linearGradient id="bg" x2="0" y1="1" y2="47" gradientUnits="userSpaceOnUse">
   <stop id="stop2" style="stop-color:#115374" offset="0"/>
   <stop id="stop4" style="stop-color:#0e4662" offset="1"/>
  </linearGradient>
 </defs>
 <path id="path9" d="m36.31 5c5.859 4.062 9.688 10.831 9.688 18.5 0 12.426-10.07 22.5-22.5 22.5-7.669 0-14.438-3.828-18.5-9.688 1.037 1.822 2.306 3.499 3.781 4.969 4.085 3.712 9.514 5.969 15.469 5.969 12.703 0 23-10.298 23-23 0-5.954-2.256-11.384-5.969-15.469-1.469-1.475-3.147-2.744-4.969-3.781zm4.969 3.781c3.854 4.113 6.219 9.637 6.219 15.719 0 12.703-10.297 23-23 23-6.081 0-11.606-2.364-15.719-6.219 4.16 4.144 9.883 6.719 16.219 6.719 12.703 0 23-10.298 23-23 0-6.335-2.575-12.06-6.719-16.219z" style="opacity:.05"/>
 <path id="path11" d="m41.28 8.781c3.712 4.085 5.969 9.514 5.969 15.469 0 12.703-10.297 23-23 23-5.954 0-11.384-2.256-15.469-5.969 4.113 3.854 9.637 6.219 15.719 6.219 12.703 0 23-10.298 23-23 0-6.081-2.364-11.606-6.219-15.719z" style="opacity:.1"/>
 <path id="path13" d="m31.25 2.375c8.615 3.154 14.75 11.417 14.75 21.13 0 12.426-10.07 22.5-22.5 22.5-9.708 0-17.971-6.135-21.12-14.75a23 23 0 0 0 44.875-7 23 23 0 0 0-16-21.875z" style="opacity:.2"/>
 <circle id="circle15" cx="24" cy="24" r="23" style="fill:url(#bg)"/>
 <path id="path17" d="m40.03 7.531c3.712 4.084 5.969 9.514 5.969 15.469 0 12.703-10.297 23-23 23-5.954 0-11.384-2.256-15.469-5.969 4.178 4.291 10.01 6.969 16.469 6.969 12.703 0 23-10.298 23-23 0-6.462-2.677-12.291-6.969-16.469z" style="opacity:.1"/>
 <path id="path1792" d="m13 13v9h4.5c1.48978 0 3.55171 1.27323 5.5 3l-10 6v6h9v-4.5c0-1.48978 1.27324-3.55171 3-5.5 1.72676 1.94829 3 4.01022 3 5.5v4.5h9v-9h-4.5c-1.48978 0-3.55171-1.27323-5.5-3 1.94829-1.72677 4.01022-3 5.5-3h4.5v-9h-4l-8 10c-1.72676-1.94829-3-4.01022-3-5.5v-4.5z" style="opacity:.1"/>
 <path id="rect851" d="m12 12v9h4.5c1.48978 0 3.55171 1.27323 5.5 3-1.94829 1.72677-4.01022 3-5.5 3h-4.5v9h9v-4.5c0-1.48978 1.27324-3.55171 3-5.5 1.72676 1.94829 3 4.01022 3 5.5v4.5h9v-9h-4.5c-1.48978 0-3.55171-1.27323-5.5-3 1.94829-1.72677 4.01022-3 5.5-3h4.5v-9h-9v4.5c0 1.48978-1.27324 3.55171-3 5.5-1.72676-1.94829-3-4.01022-3-5.5v-4.5z" style="fill:#f9f9f9"/>
</svg>
