<svg version="1.1" viewBox="0 0 48 48" xmlns="http://www.w3.org/2000/svg">
 <defs>
  <linearGradient id="bg" x2="0" y1="47" y2="1" gradientUnits="userSpaceOnUse">
   <stop style="stop-color:#3c3c3c" offset="0"/>
   <stop style="stop-color:#474747" offset="1"/>
  </linearGradient>
 </defs>
 <path d="m36.31 5c5.859 4.062 9.688 10.831 9.688 18.5 0 12.426-10.07 22.5-22.5 22.5-7.669 0-14.438-3.828-18.5-9.688 1.037 1.822 2.306 3.499 3.781 4.969 4.085 3.712 9.514 5.969 15.469 5.969 12.703 0 23-10.298 23-23 0-5.954-2.256-11.384-5.969-15.469-1.469-1.475-3.147-2.744-4.969-3.781zm4.969 3.781c3.854 4.113 6.219 9.637 6.219 15.719 0 12.703-10.297 23-23 23-6.081 0-11.606-2.364-15.719-6.219 4.16 4.144 9.883 6.719 16.219 6.719 12.703 0 23-10.298 23-23 0-6.335-2.575-12.06-6.719-16.219z" style="opacity:.05"/>
 <path d="m41.28 8.781c3.712 4.085 5.969 9.514 5.969 15.469 0 12.703-10.297 23-23 23-5.954 0-11.384-2.256-15.469-5.969 4.113 3.854 9.637 6.219 15.719 6.219 12.703 0 23-10.298 23-23 0-6.081-2.364-11.606-6.219-15.719z" style="opacity:.1"/>
 <path d="m31.25 2.375c8.615 3.154 14.75 11.417 14.75 21.13 0 12.426-10.07 22.5-22.5 22.5-9.708 0-17.971-6.135-21.12-14.75a23 23 0 0 0 44.875-7 23 23 0 0 0-16-21.875z" style="opacity:.2"/>
 <path d="m24 1c12.703 0 23 10.297 23 23s-10.297 23-23 23-23-10.297-23-23 10.297-23 23-23z" style="fill:url(#bg)"/>
 <path d="m25 12-1.346 1.856c-0.727 5.382-1.024 11.458-1.416 16.35-0.573-4.734-0.632-8.716-1.395-13.03-0.066-0.31-0.13-0.565-0.232-0.818-0.051-0.127-0.106-0.255-0.236-0.418s-0.417-0.436-0.875-0.436l-1.334 1.382c-0.822 3.553-1.197 7.623-1.67 10.875-0.261-1.698-0.408-3.493-0.621-5.166-0.068-0.527-0.134-0.971-0.209-1.326-0.037-0.178-0.071-0.328-0.141-0.506-0.035-0.089-0.071-0.184-0.18-0.328s-0.372-0.432-0.846-0.432l-2.905 4h-10.596c0 0.674 0.035 1.34 0.092 2h10.908c0.694 0 0.846-0.34 1-0.527 0.157-0.187 0.277-0.379 0.402-0.592l1.802 6.99c0.073 0.2 0.149 0.386 0.301 0.594s0.469 0.535 0.99 0.535c0.354 0 0.629-0.175 0.777-0.314 0.149-0.139 0.224-0.263 0.287-0.377 0.126-0.229 0.196-0.442 0.27-0.691 0.147-0.498 0.274-1.124 0.402-1.869 0.447-2.91 0.784-5.549 1.156-8.211 0.692 5.414 0.701 9.916 1.563 14.791 0.066 0.31 0.13 0.565 0.232 0.818 0.051 0.127 0.106 0.255 0.236 0.418s0.419 0.436 0.877 0.436c0.531 0 0.804-0.338 0.92-0.51s0.163-0.301 0.209-0.436c0.092-0.269 0.154-0.556 0.217-0.91 0.69-5.118 0.991-10.89 1.354-15.559 0.571 5.669 0.596 10.385 1.354 15.559 0.063 0.354 0.124 0.641 0.217 0.91 0.046 0.135 0.093 0.264 0.209 0.436s0.389 0.51 0.92 0.51c0.458 0 0.747-0.272 0.877-0.436 0.13-0.163 0.185-0.291 0.236-0.418 0.103-0.253 0.166-0.508 0.232-0.818 0.796-4.866 1.109-10.385 1.563-14.791 0.427 2.74 0.698 5.515 1.156 8.211 0.128 0.745 0.255 1.371 0.402 1.869 0.073 0.249 0.144 0.463 0.27 0.691 0.063 0.114 0.138 0.237 0.287 0.377 0.149 0.139 0.423 0.314 0.777 0.314 0.521 0 0.838-0.327 0.99-0.535s0.227-0.394 0.301-0.594c0.147-0.4 0.253-0.862 0.355-1.404 0.206-1.086 0.378-2.471 0.535-3.854 0.123-1.079 0.229-2.042 0.334-2.941 0.198 0.414 0.395 0.836 0.592 1.189 0.118 0.212 0.232 0.4 0.383 0.59 0.151 0.189 0.299 0.549 1.01 0.549h8.908c0.057-0.66 0.092-1.326 0.092-2h-8.574c-0.028-0.045-0.038-0.054-0.07-0.111-0.181-0.326-0.414-0.818-0.656-1.322s-0.491-1.018-0.752-1.455c-0.131-0.218-0.259-0.416-0.436-0.611s-0.413-0.5-1.012-0.5l-1.808 6.387c-0.057 0.506-0.128 0.886-0.189 1.371-0.68-3.965-0.82-7.32-1.67-10.875-0.073-0.249-0.144-0.463-0.27-0.691-0.063-0.114-0.138-0.237-0.287-0.377-0.149-0.139-0.423-0.314-0.777-0.314l-1.343 1.672c-0.701 4.277-1.024 9.116-1.395 13.03-0.618-5.978-0.616-10.924-1.416-16.35-0.063-0.354-0.122-0.641-0.215-0.91-0.046-0.135-0.093-0.264-0.209-0.436s-0.391-0.51-0.922-0.51" style="fill-opacity:.098"/>
 <path d="m24 11c-0.531 0-0.806 0.338-0.922 0.51s-0.163 0.301-0.209 0.436c-0.092 0.269-0.152 0.556-0.215 0.91-0.727 5.382-1.024 11.458-1.416 16.35-0.573-4.734-0.632-8.716-1.395-13.03-0.066-0.31-0.13-0.565-0.232-0.818-0.051-0.127-0.106-0.255-0.236-0.418s-0.417-0.436-0.875-0.436c-0.354 0-0.629 0.175-0.777 0.314-0.149 0.139-0.224 0.263-0.287 0.377-0.126 0.229-0.196 0.442-0.27 0.691-0.822 3.553-1.197 7.623-1.67 10.875-0.261-1.698-0.408-3.493-0.621-5.166-0.068-0.527-0.134-0.971-0.209-1.326-0.037-0.178-0.071-0.328-0.141-0.506-0.035-0.089-0.071-0.184-0.18-0.328s-0.372-0.432-0.846-0.432c-0.365 0-0.575 0.146-0.711 0.25s-0.217 0.198-0.293 0.291c-0.151 0.185-0.267 0.373-0.389 0.584-0.244 0.423-0.495 0.931-0.742 1.43-0.248 0.499-0.493 0.99-0.684 1.314-0.04 0.067-0.053 0.081-0.086 0.131h-9.57c-0.014 0.332-0.025 0.665-0.025 1s0.011 0.668 0.025 1h9.975c0.694 0 0.846-0.34 1-0.527 0.157-0.187 0.277-0.379 0.402-0.592 0.196-0.333 0.392-0.732 0.588-1.123 0.103 0.883 0.205 1.808 0.324 2.855 0.157 1.382 0.33 2.768 0.535 3.854 0.103 0.543 0.209 1 0.355 1.404 0.073 0.2 0.149 0.386 0.301 0.594s0.469 0.535 0.99 0.535c0.354 0 0.629-0.175 0.777-0.314 0.149-0.139 0.224-0.263 0.287-0.377 0.126-0.229 0.196-0.442 0.27-0.691 0.147-0.498 0.274-1.124 0.402-1.869 0.447-2.91 0.784-5.549 1.156-8.211 0.692 5.414 0.701 9.916 1.563 14.791 0.066 0.31 0.13 0.565 0.232 0.818 0.051 0.127 0.106 0.255 0.236 0.418s0.419 0.436 0.877 0.436c0.531 0 0.804-0.338 0.92-0.51s0.163-0.301 0.209-0.436c0.092-0.269 0.154-0.556 0.217-0.91 0.69-5.118 0.991-10.89 1.354-15.559 0.571 5.669 0.596 10.385 1.354 15.559 0.063 0.354 0.124 0.641 0.217 0.91 0.046 0.135 0.093 0.264 0.209 0.436s0.389 0.51 0.92 0.51c0.458 0 0.747-0.272 0.877-0.436 0.13-0.163 0.185-0.291 0.236-0.418 0.103-0.253 0.166-0.508 0.232-0.818 0.796-4.866 1.109-10.385 1.563-14.791 0.427 2.74 0.698 5.515 1.156 8.211 0.128 0.745 0.255 1.371 0.402 1.869 0.073 0.249 0.144 0.463 0.27 0.691 0.063 0.114 0.138 0.237 0.287 0.377 0.149 0.139 0.423 0.314 0.777 0.314 0.521 0 0.838-0.327 0.99-0.535s0.227-0.394 0.301-0.594c0.147-0.4 0.253-0.862 0.355-1.404 0.206-1.086 0.378-2.471 0.535-3.854 0.123-1.079 0.229-2.042 0.334-2.941 0.198 0.414 0.395 0.836 0.592 1.189 0.118 0.212 0.232 0.4 0.383 0.59 0.151 0.189 0.299 0.549 1.01 0.549h9.975c0.014-0.332 0.025-0.665 0.025-1s-0.011-0.668-0.025-1h-9.549c-0.028-0.045-0.038-0.054-0.07-0.111-0.181-0.326-0.414-0.818-0.656-1.322s-0.491-1.018-0.752-1.455c-0.131-0.218-0.259-0.416-0.436-0.611s-0.413-0.5-1.012-0.5c-0.474 0-0.737 0.287-0.846 0.432-0.109 0.144-0.145 0.239-0.18 0.328-0.069 0.178-0.103 0.328-0.141 0.506-0.075 0.355-0.141 0.799-0.209 1.326-0.136 1.054-0.276 2.427-0.432 3.795-0.057 0.506-0.128 0.886-0.189 1.371-0.68-3.965-0.82-7.32-1.67-10.875-0.073-0.249-0.144-0.463-0.27-0.691-0.063-0.114-0.138-0.237-0.287-0.377-0.149-0.139-0.423-0.314-0.777-0.314-0.458 0-0.745 0.272-0.875 0.436-0.13 0.163-0.185 0.291-0.236 0.418-0.103 0.253-0.166 0.508-0.232 0.818-0.701 4.277-1.024 9.116-1.395 13.03-0.618-5.978-0.616-10.924-1.416-16.35-0.063-0.354-0.122-0.641-0.215-0.91-0.046-0.135-0.093-0.264-0.209-0.436s-0.391-0.51-0.922-0.51" style="fill:#ef9135"/>
 <path d="m40.03 7.531c3.712 4.084 5.969 9.514 5.969 15.469 0 12.703-10.297 23-23 23-5.954 0-11.384-2.256-15.469-5.969 4.178 4.291 10.01 6.969 16.469 6.969 12.703 0 23-10.298 23-23 0-6.462-2.677-12.291-6.969-16.469z" style="opacity:.1"/>
</svg>
