<svg xmlns="http://www.w3.org/2000/svg" viewBox="0 0 48 48">
 <defs>
  <linearGradient id="linearGradient4189" y1="47" x2="0" y2="1" gradientUnits="userSpaceOnUse">
   <stop style="stop-color:#3c3c3c;stop-opacity:1"/>
   <stop offset="1" style="stop-color:#464646;stop-opacity:1"/>
  </linearGradient>
 </defs>
 <g>
  <path d="m 36.31 5 c 5.859 4.062 9.688 10.831 9.688 18.5 c 0 12.426 -10.07 22.5 -22.5 22.5 c -7.669 0 -14.438 -3.828 -18.5 -9.688 c 1.037 1.822 2.306 3.499 3.781 4.969 c 4.085 3.712 9.514 5.969 15.469 5.969 c 12.703 0 23 -10.298 23 -23 c 0 -5.954 -2.256 -11.384 -5.969 -15.469 c -1.469 -1.475 -3.147 -2.744 -4.969 -3.781 z m 4.969 3.781 c 3.854 4.113 6.219 9.637 6.219 15.719 c 0 12.703 -10.297 23 -23 23 c -6.081 0 -11.606 -2.364 -15.719 -6.219 c 4.16 4.144 9.883 6.719 16.219 6.719 c 12.703 0 23 -10.298 23 -23 c 0 -6.335 -2.575 -12.06 -6.719 -16.219 z" style="opacity:0.05"/>
  <path d="m 41.28 8.781 c 3.712 4.085 5.969 9.514 5.969 15.469 c 0 12.703 -10.297 23 -23 23 c -5.954 0 -11.384 -2.256 -15.469 -5.969 c 4.113 3.854 9.637 6.219 15.719 6.219 c 12.703 0 23 -10.298 23 -23 c 0 -6.081 -2.364 -11.606 -6.219 -15.719 z" style="opacity:0.1"/>
  <path d="m 31.25 2.375 c 8.615 3.154 14.75 11.417 14.75 21.13 c 0 12.426 -10.07 22.5 -22.5 22.5 c -9.708 0 -17.971 -6.135 -21.12 -14.75 a 23 23 0 0 0 44.875 -7 a 23 23 0 0 0 -16 -21.875 z" style="opacity:0.2"/>
 </g>
 <g>
  <path d="m 24 1 c 12.703 0 23 10.297 23 23 c 0 12.703 -10.297 23 -23 23 -12.703 0 -23 -10.297 -23 -23 0 -12.703 10.297 -23 23 -23 z" style="fill:url(#linearGradient4189);fill-opacity:1"/>
  <path d="m 25 12 c -0.531 0 -0.806 0.338 -0.922 0.51 -0.116 0.172 -0.163 0.301 -0.209 0.436 -0.092 0.269 -0.152 0.556 -0.215 0.91 c -0.727 5.382 -1.024 11.458 -1.416 16.35 -0.573 -4.734 -0.632 -8.716 -1.395 -13.03 -0.066 -0.31 -0.13 -0.565 -0.232 -0.818 -0.051 -0.127 -0.106 -0.255 -0.236 -0.418 -0.13 -0.163 -0.417 -0.436 -0.875 -0.436 c -0.354 0 -0.629 0.175 -0.777 0.314 -0.149 0.139 -0.224 0.263 -0.287 0.377 -0.126 0.229 -0.196 0.442 -0.27 0.691 -0.822 3.553 -1.197 7.623 -1.67 10.875 c -0.261 -1.698 -0.408 -3.493 -0.621 -5.166 c -0.068 -0.527 -0.134 -0.971 -0.209 -1.326 -0.037 -0.178 -0.071 -0.328 -0.141 -0.506 -0.035 -0.089 -0.071 -0.184 -0.18 -0.328 c -0.109 -0.144 -0.372 -0.432 -0.846 -0.432 c -0.365 0 -0.575 0.146 -0.711 0.25 -0.136 0.104 -0.217 0.198 -0.293 0.291 -0.151 0.185 -0.267 0.373 -0.389 0.584 -0.244 0.423 -0.495 0.931 -0.742 1.43 -0.248 0.499 -0.493 0.99 -0.684 1.314 -0.04 0.067 -0.053 0.081 -0.086 0.131 l -10.596 0 c 0 0.674 0.035 1.34 0.092 2 l 10.908 0 c 0.694 0 0.846 -0.34 1 -0.527 0.157 -0.187 0.277 -0.379 0.402 -0.592 0.196 -0.333 0.392 -0.732 0.588 -1.123 0.103 0.883 0.205 1.808 0.324 2.855 0.157 1.382 0.33 2.768 0.535 3.854 0.103 0.543 0.209 1 0.355 1.404 0.073 0.2 0.149 0.386 0.301 0.594 c 0.152 0.208 0.469 0.535 0.99 0.535 c 0.354 0 0.629 -0.175 0.777 -0.314 0.149 -0.139 0.224 -0.263 0.287 -0.377 0.126 -0.229 0.196 -0.442 0.27 -0.691 0.147 -0.498 0.274 -1.124 0.402 -1.869 0.447 -2.91 0.784 -5.549 1.156 -8.211 0.692 5.414 0.701 9.916 1.563 14.791 0.066 0.31 0.13 0.565 0.232 0.818 0.051 0.127 0.106 0.255 0.236 0.418 c 0.13 0.163 0.419 0.436 0.877 0.436 c 0.531 0 0.804 -0.338 0.92 -0.51 0.116 -0.172 0.163 -0.301 0.209 -0.436 0.092 -0.269 0.154 -0.556 0.217 -0.91 0.69 -5.118 0.991 -10.89 1.354 -15.559 0.571 5.669 0.596 10.385 1.354 15.559 0.063 0.354 0.124 0.641 0.217 0.91 0.046 0.135 0.093 0.264 0.209 0.436 c 0.116 0.172 0.389 0.51 0.92 0.51 c 0.458 0 0.747 -0.272 0.877 -0.436 0.13 -0.163 0.185 -0.291 0.236 -0.418 0.103 -0.253 0.166 -0.508 0.232 -0.818 0.796 -4.866 1.109 -10.385 1.563 -14.791 0.427 2.74 0.698 5.515 1.156 8.211 0.128 0.745 0.255 1.371 0.402 1.869 0.073 0.249 0.144 0.463 0.27 0.691 0.063 0.114 0.138 0.237 0.287 0.377 c 0.149 0.139 0.423 0.314 0.777 0.314 c 0.521 0 0.838 -0.327 0.99 -0.535 0.152 -0.208 0.227 -0.394 0.301 -0.594 0.147 -0.4 0.253 -0.862 0.355 -1.404 0.206 -1.086 0.378 -2.471 0.535 -3.854 0.123 -1.079 0.229 -2.042 0.334 -2.941 0.198 0.414 0.395 0.836 0.592 1.189 0.118 0.212 0.232 0.4 0.383 0.59 c 0.151 0.189 0.299 0.549 1.01 0.549 l 8.908 0 c 0.057 -0.66 0.092 -1.326 0.092 -2 l -8.574 0 c -0.028 -0.045 -0.038 -0.054 -0.07 -0.111 -0.181 -0.326 -0.414 -0.818 -0.656 -1.322 c -0.242 -0.504 -0.491 -1.018 -0.752 -1.455 -0.131 -0.218 -0.259 -0.416 -0.436 -0.611 -0.177 -0.195 -0.413 -0.5 -1.012 -0.5 c -0.474 0 -0.737 0.287 -0.846 0.432 -0.109 0.144 -0.145 0.239 -0.18 0.328 -0.069 0.178 -0.103 0.328 -0.141 0.506 -0.075 0.355 -0.141 0.799 -0.209 1.326 -0.136 1.054 -0.276 2.427 -0.432 3.795 -0.057 0.506 -0.128 0.886 -0.189 1.371 -0.68 -3.965 -0.82 -7.32 -1.67 -10.875 -0.073 -0.249 -0.144 -0.463 -0.27 -0.691 -0.063 -0.114 -0.138 -0.237 -0.287 -0.377 c -0.149 -0.139 -0.423 -0.314 -0.777 -0.314 c -0.458 0 -0.745 0.272 -0.875 0.436 -0.13 0.163 -0.185 0.291 -0.236 0.418 -0.103 0.253 -0.166 0.508 -0.232 0.818 -0.701 4.277 -1.024 9.116 -1.395 13.03 -0.618 -5.978 -0.616 -10.924 -1.416 -16.35 -0.063 -0.354 -0.122 -0.641 -0.215 -0.91 -0.046 -0.135 -0.093 -0.264 -0.209 -0.436 c -0.116 -0.172 -0.391 -0.51 -0.922 -0.51" style="fill:#000;fill-opacity:0.098"/>
  <path d="m 24 11 c -0.531 0 -0.806 0.338 -0.922 0.51 -0.116 0.172 -0.163 0.301 -0.209 0.436 -0.092 0.269 -0.152 0.556 -0.215 0.91 c -0.727 5.382 -1.024 11.458 -1.416 16.35 -0.573 -4.734 -0.632 -8.716 -1.395 -13.03 -0.066 -0.31 -0.13 -0.565 -0.232 -0.818 -0.051 -0.127 -0.106 -0.255 -0.236 -0.418 -0.13 -0.163 -0.417 -0.436 -0.875 -0.436 c -0.354 0 -0.629 0.175 -0.777 0.314 -0.149 0.139 -0.224 0.263 -0.287 0.377 -0.126 0.229 -0.196 0.442 -0.27 0.691 -0.822 3.553 -1.197 7.623 -1.67 10.875 c -0.261 -1.698 -0.408 -3.493 -0.621 -5.166 c -0.068 -0.527 -0.134 -0.971 -0.209 -1.326 -0.037 -0.178 -0.071 -0.328 -0.141 -0.506 -0.035 -0.089 -0.071 -0.184 -0.18 -0.328 c -0.109 -0.144 -0.372 -0.432 -0.846 -0.432 c -0.365 0 -0.575 0.146 -0.711 0.25 -0.136 0.104 -0.217 0.198 -0.293 0.291 -0.151 0.185 -0.267 0.373 -0.389 0.584 -0.244 0.423 -0.495 0.931 -0.742 1.43 -0.248 0.499 -0.493 0.99 -0.684 1.314 -0.04 0.067 -0.053 0.081 -0.086 0.131 l -9.57 0 c -0.014 0.332 -0.025 0.665 -0.025 1 c 0 0.335 0.011 0.668 0.025 1 l 9.975 0 c 0.694 0 0.846 -0.34 1 -0.527 0.157 -0.187 0.277 -0.379 0.402 -0.592 0.196 -0.333 0.392 -0.732 0.588 -1.123 0.103 0.883 0.205 1.808 0.324 2.855 0.157 1.382 0.33 2.768 0.535 3.854 0.103 0.543 0.209 1 0.355 1.404 0.073 0.2 0.149 0.386 0.301 0.594 c 0.152 0.208 0.469 0.535 0.99 0.535 c 0.354 0 0.629 -0.175 0.777 -0.314 0.149 -0.139 0.224 -0.263 0.287 -0.377 0.126 -0.229 0.196 -0.442 0.27 -0.691 0.147 -0.498 0.274 -1.124 0.402 -1.869 0.447 -2.91 0.784 -5.549 1.156 -8.211 0.692 5.414 0.701 9.916 1.563 14.791 0.066 0.31 0.13 0.565 0.232 0.818 0.051 0.127 0.106 0.255 0.236 0.418 c 0.13 0.163 0.419 0.436 0.877 0.436 c 0.531 0 0.804 -0.338 0.92 -0.51 0.116 -0.172 0.163 -0.301 0.209 -0.436 0.092 -0.269 0.154 -0.556 0.217 -0.91 0.69 -5.118 0.991 -10.89 1.354 -15.559 0.571 5.669 0.596 10.385 1.354 15.559 0.063 0.354 0.124 0.641 0.217 0.91 0.046 0.135 0.093 0.264 0.209 0.436 c 0.116 0.172 0.389 0.51 0.92 0.51 c 0.458 0 0.747 -0.272 0.877 -0.436 0.13 -0.163 0.185 -0.291 0.236 -0.418 0.103 -0.253 0.166 -0.508 0.232 -0.818 0.796 -4.866 1.109 -10.385 1.563 -14.791 0.427 2.74 0.698 5.515 1.156 8.211 0.128 0.745 0.255 1.371 0.402 1.869 0.073 0.249 0.144 0.463 0.27 0.691 0.063 0.114 0.138 0.237 0.287 0.377 c 0.149 0.139 0.423 0.314 0.777 0.314 c 0.521 0 0.838 -0.327 0.99 -0.535 0.152 -0.208 0.227 -0.394 0.301 -0.594 0.147 -0.4 0.253 -0.862 0.355 -1.404 0.206 -1.086 0.378 -2.471 0.535 -3.854 0.123 -1.079 0.229 -2.042 0.334 -2.941 0.198 0.414 0.395 0.836 0.592 1.189 0.118 0.212 0.232 0.4 0.383 0.59 c 0.151 0.189 0.299 0.549 1.01 0.549 l 9.975 0 c 0.014 -0.332 0.025 -0.665 0.025 -1 0 -0.335 -0.011 -0.668 -0.025 -1 l -9.549 0 c -0.028 -0.045 -0.038 -0.054 -0.07 -0.111 c -0.181 -0.326 -0.414 -0.818 -0.656 -1.322 -0.242 -0.504 -0.491 -1.018 -0.752 -1.455 -0.131 -0.218 -0.259 -0.416 -0.436 -0.611 -0.177 -0.195 -0.413 -0.5 -1.012 -0.5 c -0.474 0 -0.737 0.287 -0.846 0.432 -0.109 0.144 -0.145 0.239 -0.18 0.328 -0.069 0.178 -0.103 0.328 -0.141 0.506 -0.075 0.355 -0.141 0.799 -0.209 1.326 -0.136 1.054 -0.276 2.427 -0.432 3.795 -0.057 0.506 -0.128 0.886 -0.189 1.371 -0.68 -3.965 -0.82 -7.32 -1.67 -10.875 -0.073 -0.249 -0.144 -0.463 -0.27 -0.691 -0.063 -0.114 -0.138 -0.237 -0.287 -0.377 c -0.149 -0.139 -0.423 -0.314 -0.777 -0.314 c -0.458 0 -0.745 0.272 -0.875 0.436 -0.13 0.163 -0.185 0.291 -0.236 0.418 -0.103 0.253 -0.166 0.508 -0.232 0.818 -0.701 4.277 -1.024 9.116 -1.395 13.03 -0.618 -5.978 -0.616 -10.924 -1.416 -16.35 -0.063 -0.354 -0.122 -0.641 -0.215 -0.91 -0.046 -0.135 -0.093 -0.264 -0.209 -0.436 c -0.116 -0.172 -0.391 -0.51 -0.922 -0.51" style="fill:#ef9135;fill-opacity:1"/>
 </g>
 <g>
  <path d="m 40.03 7.531 c 3.712 4.084 5.969 9.514 5.969 15.469 0 12.703 -10.297 23 -23 23 c -5.954 0 -11.384 -2.256 -15.469 -5.969 4.178 4.291 10.01 6.969 16.469 6.969 c 12.703 0 23 -10.298 23 -23 0 -6.462 -2.677 -12.291 -6.969 -16.469 z" style="opacity:0.1"/>
 </g>
</svg>
