<svg xmlns="http://www.w3.org/2000/svg" viewBox="0 0 48 48">
 <defs>
  <linearGradient id="linearGradient3764" x1="1" x2="47" gradientUnits="userSpaceOnUse" gradientTransform="matrix(0,-1,1,0,-1.5e-6,47.999998)">
   <stop style="stop-color:#ee810c;stop-opacity:1"/>
   <stop offset="1" style="stop-color:#f38b1b;stop-opacity:1"/>
  </linearGradient>
 </defs>
 <g>
  <path d="m 36.31 5 c 5.859 4.062 9.688 10.831 9.688 18.5 c 0 12.426 -10.07 22.5 -22.5 22.5 c -7.669 0 -14.438 -3.828 -18.5 -9.688 c 1.037 1.822 2.306 3.499 3.781 4.969 c 4.085 3.712 9.514 5.969 15.469 5.969 c 12.703 0 23 -10.298 23 -23 c 0 -5.954 -2.256 -11.384 -5.969 -15.469 c -1.469 -1.475 -3.147 -2.744 -4.969 -3.781 z m 4.969 3.781 c 3.854 4.113 6.219 9.637 6.219 15.719 c 0 12.703 -10.297 23 -23 23 c -6.081 0 -11.606 -2.364 -15.719 -6.219 c 4.16 4.144 9.883 6.719 16.219 6.719 c 12.703 0 23 -10.298 23 -23 c 0 -6.335 -2.575 -12.06 -6.719 -16.219 z" style="opacity:0.05"/>
  <path d="m 41.28 8.781 c 3.712 4.085 5.969 9.514 5.969 15.469 c 0 12.703 -10.297 23 -23 23 c -5.954 0 -11.384 -2.256 -15.469 -5.969 c 4.113 3.854 9.637 6.219 15.719 6.219 c 12.703 0 23 -10.298 23 -23 c 0 -6.081 -2.364 -11.606 -6.219 -15.719 z" style="opacity:0.1"/>
  <path d="m 31.25 2.375 c 8.615 3.154 14.75 11.417 14.75 21.13 c 0 12.426 -10.07 22.5 -22.5 22.5 c -9.708 0 -17.971 -6.135 -21.12 -14.75 a 23 23 0 0 0 44.875 -7 a 23 23 0 0 0 -16 -21.875 z" style="opacity:0.2"/>
 </g>
 <g>
  <path d="m 24 1 c 12.703 0 23 10.297 23 23 c 0 12.703 -10.297 23 -23 23 -12.703 0 -23 -10.297 -23 -23 0 -12.703 10.297 -23 23 -23 z" style="fill:url(#linearGradient3764);fill-opacity:1"/>
 </g>
 <g>
  <g>
   <g transform="translate(1,1)">
    <g style="opacity:0.1">
     <!-- color: #f78610 -->
    </g>
   </g>
  </g>
 </g>
 <g>
  <path d="m 40.03 7.531 c 3.712 4.084 5.969 9.514 5.969 15.469 0 12.703 -10.297 23 -23 23 c -5.954 0 -11.384 -2.256 -15.469 -5.969 4.178 4.291 10.01 6.969 16.469 6.969 c 12.703 0 23 -10.298 23 -23 0 -6.462 -2.677 -12.291 -6.969 -16.469 z" style="opacity:0.1"/>
 </g>
 <path d="m 28 18.998 c -0.723 0 -1.249 0.12 -1.693 0.301 c -0.244 0.099 -0.307 0.304 -0.307 0.699 l 0 10.5 c 0 0.277 0.223 0.5 0.5 0.5 l 8.8 0 c 1.691 0 2.7 -1.625 2.7 -3.5 0 -1.875 -1.426 -3.279 -3.191 -3.279 -0.441 0 -0.859 0.094 -1.238 0.266 c -0.254 -3.066 -2.57 -5.486 -5.57 -5.486 m -3.5 1 c -0.277 0 -0.5 0.223 -0.5 0.5 l 0 10 c 0 0.277 0.223 0.5 0.5 0.5 0.277 0 0.5 -0.223 0.5 -0.5 l 0 -10 c 0 -0.277 -0.223 -0.5 -0.5 -0.5 z m -4 1 c -0.277 0 -0.5 0.223 -0.5 0.5 l 0 9 c 0 0.277 0.223 0.5 0.5 0.5 0.277 0 0.5 -0.223 0.5 -0.5 l 0 -9 c 0 -0.277 -0.223 -0.5 -0.5 -0.5 m -2 1 c -0.277 0 -0.5 0.223 -0.5 0.5 l 0 8 c 0 0.277 0.223 0.5 0.5 0.5 0.277 0 0.5 -0.223 0.5 -0.5 l 0 -8 c 0 -0.277 -0.223 -0.5 -0.5 -0.5 m 4 0 c -0.277 0 -0.5 0.223 -0.5 0.5 l 0 8 c 0 0.277 0.223 0.5 0.5 0.5 0.277 0 0.5 -0.223 0.5 -0.5 l 0 -8 c 0 -0.277 -0.223 -0.5 -0.5 -0.5 m -8 2 c -0.277 0 -0.5 0.223 -0.5 0.5 l 0 6 c 0 0.277 0.223 0.5 0.5 0.5 0.277 0 0.5 -0.223 0.5 -0.5 l 0 -6 c 0 -0.277 -0.223 -0.5 -0.5 -0.5 m 2 1 c -0.277 0 -0.5 0.223 -0.5 0.5 l 0 5 c 0 0.277 0.223 0.5 0.5 0.5 0.277 0 0.5 -0.223 0.5 -0.5 l 0 -5 c 0 -0.277 -0.223 -0.5 -0.5 -0.5 m -4 1 c -0.277 0 -0.5 0.223 -0.5 0.5 l 0 3 c 0 0.277 0.223 0.5 0.5 0.5 0.277 0 0.5 -0.223 0.5 -0.5 l 0 -3 c 0 -0.277 -0.223 -0.5 -0.5 -0.5" style="fill:#000;opacity:0.1;fill-opacity:1;stroke:none;fill-rule:nonzero"/>
 <path d="m 27 17.998 c -0.723 0 -1.249 0.12 -1.693 0.301 c -0.244 0.099 -0.307 0.304 -0.307 0.699 l 0 10.5 c 0 0.277 0.223 0.5 0.5 0.5 l 8.8 0 c 1.691 0 2.7 -1.625 2.7 -3.5 0 -1.875 -1.426 -3.279 -3.191 -3.279 -0.441 0 -0.859 0.094 -1.238 0.266 c -0.254 -3.066 -2.57 -5.486 -5.57 -5.486 m -3.5 1 c -0.277 0 -0.5 0.223 -0.5 0.5 l 0 10 c 0 0.277 0.223 0.5 0.5 0.5 0.277 0 0.5 -0.223 0.5 -0.5 l 0 -10 c 0 -0.277 -0.223 -0.5 -0.5 -0.5 z m -4 1 c -0.277 0 -0.5 0.223 -0.5 0.5 l 0 9 c 0 0.277 0.223 0.5 0.5 0.5 0.277 0 0.5 -0.223 0.5 -0.5 l 0 -9 c 0 -0.277 -0.223 -0.5 -0.5 -0.5 z m -2 1 c -0.277 0 -0.5 0.223 -0.5 0.5 l 0 8 c 0 0.277 0.223 0.5 0.5 0.5 0.277 0 0.5 -0.223 0.5 -0.5 l 0 -8 c 0 -0.277 -0.223 -0.5 -0.5 -0.5 z m 4 0 c -0.277 0 -0.5 0.223 -0.5 0.5 l 0 8 c 0 0.277 0.223 0.5 0.5 0.5 0.277 0 0.5 -0.223 0.5 -0.5 l 0 -8 c 0 -0.277 -0.223 -0.5 -0.5 -0.5 z m -8 2 c -0.277 0 -0.5 0.223 -0.5 0.5 l 0 6 c 0 0.277 0.223 0.5 0.5 0.5 0.277 0 0.5 -0.223 0.5 -0.5 l 0 -6 c 0 -0.277 -0.223 -0.5 -0.5 -0.5 z m 2 1 c -0.277 0 -0.5 0.223 -0.5 0.5 l 0 5 c 0 0.277 0.223 0.5 0.5 0.5 0.277 0 0.5 -0.223 0.5 -0.5 l 0 -5 c 0 -0.277 -0.223 -0.5 -0.5 -0.5 z m -4 1 c -0.277 0 -0.5 0.223 -0.5 0.5 l 0 3 c 0 0.277 0.223 0.5 0.5 0.5 0.277 0 0.5 -0.223 0.5 -0.5 l 0 -3 c 0 -0.277 -0.223 -0.5 -0.5 -0.5 z" style="fill:#f9f9f9;fill-opacity:1;stroke:none;fill-rule:nonzero"/>
</svg>
