<svg version="1.1" viewBox="0 0 48 48" xmlns="http://www.w3.org/2000/svg">
 <defs>
  <linearGradient id="bg" x2="0" y1="1" y2="47" gradientUnits="userSpaceOnUse">
   <stop style="stop-color:#4e4e56" offset="0"/>
   <stop style="stop-color:#44444b" offset="1"/>
  </linearGradient>
 </defs>
 <path d="m36.31 5c5.859 4.062 9.688 10.831 9.688 18.5 0 12.426-10.07 22.5-22.5 22.5-7.669 0-14.438-3.828-18.5-9.688 1.037 1.822 2.306 3.499 3.781 4.969 4.085 3.712 9.514 5.969 15.469 5.969 12.703 0 23-10.298 23-23 0-5.954-2.256-11.384-5.969-15.469-1.469-1.475-3.147-2.744-4.969-3.781zm4.969 3.781c3.854 4.113 6.219 9.637 6.219 15.719 0 12.703-10.297 23-23 23-6.081 0-11.606-2.364-15.719-6.219 4.16 4.144 9.883 6.719 16.219 6.719 12.703 0 23-10.298 23-23 0-6.335-2.575-12.06-6.719-16.219z" style="opacity:.05"/>
 <path d="m41.28 8.781c3.712 4.085 5.969 9.514 5.969 15.469 0 12.703-10.297 23-23 23-5.954 0-11.384-2.256-15.469-5.969 4.113 3.854 9.637 6.219 15.719 6.219 12.703 0 23-10.298 23-23 0-6.081-2.364-11.606-6.219-15.719z" style="opacity:.1"/>
 <path d="m31.25 2.375c8.615 3.154 14.75 11.417 14.75 21.13 0 12.426-10.07 22.5-22.5 22.5-9.708 0-17.971-6.135-21.12-14.75a23 23 0 0 0 44.875-7 23 23 0 0 0-16-21.875z" style="opacity:.2"/>
 <circle cx="24" cy="24" r="23" style="fill:url(#bg)"/>
 <path d="m40.03 7.531c3.712 4.084 5.969 9.514 5.969 15.469 0 12.703-10.297 23-23 23-5.954 0-11.384-2.256-15.469-5.969 4.178 4.291 10.01 6.969 16.469 6.969 12.703 0 23-10.298 23-23 0-6.462-2.677-12.291-6.969-16.469z" style="opacity:.1"/>
 <path d="m12 14v6h4v2h-4v2h6v-6h-4v-2h2v1h2v-3zm21.227 0.99805-7.2266 11.715v2.2871l6.998 2e-3 0.001953 5.998h3.0039l-2e-3 -5.998 1.9981 0.001953v-3.0039l-1.998-2e-3 -0.001953-10.998zm-13.227 0.001953v3h2v17h3v-20zm12.998 6.0879v4.9082h-3.0332zm-20.998 4.9121v6h4v2h-4v2h6v-6h-4v-2h2v1h2v-3z" style="opacity:.1"/>
 <path d="m11 25v6h4v2h-2v-1h-2v3h6v-6h-4v-2h2l4e-6 1h2l-4e-6 -3z" style="fill:#d1d1d1"/>
 <path d="m32.227 13.998-7.2266 11.715v2.2871l6.998 0.001953 0.001953 5.998h3.0039l-0.001953-5.998 1.998 0.001953v-3.0039l-1.998-0.001953-0.001953-10.998-2.7734-0.001953zm-13.227 0.001953v3h2v17h3v-20h-5zm12.998 6.0879v4.9082h-3.0332l3.0332-4.9082z" style="fill:#ed756e"/>
 <path d="m9 13 2 2v4h4v2h-2v-1h-2v3h6v-6h-4v-2h2l4e-6 1h2l-4e-6 -3z" style="fill:#f9f9f9"/>
</svg>
