<svg version="1.1" viewBox="0 0 48 48" xmlns="http://www.w3.org/2000/svg">
 <defs>
  <linearGradient id="bg" x1="1" x2="47" gradientTransform="matrix(0 -1 1 0 -1.5e-6 48)" gradientUnits="userSpaceOnUse">
   <stop style="stop-color:#d75d5d" offset="0"/>
   <stop style="stop-color:#db6d6d" offset="1"/>
  </linearGradient>
 </defs>
 <path d="m36.31 5c5.859 4.062 9.688 10.831 9.688 18.5 0 12.426-10.07 22.5-22.5 22.5-7.669 0-14.438-3.828-18.5-9.688 1.037 1.822 2.306 3.499 3.781 4.969 4.085 3.712 9.514 5.969 15.469 5.969 12.703 0 23-10.298 23-23 0-5.954-2.256-11.384-5.969-15.469-1.469-1.475-3.147-2.744-4.969-3.781zm4.969 3.781c3.854 4.113 6.219 9.637 6.219 15.719 0 12.703-10.297 23-23 23-6.081 0-11.606-2.364-15.719-6.219 4.16 4.144 9.883 6.719 16.219 6.719 12.703 0 23-10.298 23-23 0-6.335-2.575-12.06-6.719-16.219z" style="opacity:.05"/>
 <path d="m41.28 8.781c3.712 4.085 5.969 9.514 5.969 15.469 0 12.703-10.297 23-23 23-5.954 0-11.384-2.256-15.469-5.969 4.113 3.854 9.637 6.219 15.719 6.219 12.703 0 23-10.298 23-23 0-6.081-2.364-11.606-6.219-15.719z" style="opacity:.1"/>
 <path d="m31.25 2.375c8.615 3.154 14.75 11.417 14.75 21.13 0 12.426-10.07 22.5-22.5 22.5-9.708 0-17.971-6.135-21.12-14.75a23 23 0 0 0 44.875-7 23 23 0 0 0-16-21.875z" style="opacity:.2"/>
 <path d="m24 1c12.703 0 23 10.297 23 23s-10.297 23-23 23-23-10.297-23-23 10.297-23 23-23z" style="fill:url(#bg)"/>
 <path d="m25 12c-6.094 0-11 4.906-11 11-1.108 0-2 1.784-2 4 0 1.9444 0.68671 3.556 1.6035 3.9219 1.4846 3.8436 5.784 7.0781 11.396 7.0781 5.634 0 9.9956-3.2603 11.484-7.123 0.87172-0.43194 1.5156-1.9963 1.5156-3.877 0-2.216-0.892-4-2-4 0-6.094-4.906-11-11-11zm0 2c4.6348 0 8.4278 3.4694 8.9395 7.9629-2.1955-1.8192-5.3701-2.9629-8.9004-2.9629-3.5782 0-6.7893 1.175-8.9883 3.0391 0.47712-4.5304 4.2882-8.0391 8.9492-8.0391z" style="opacity:.1"/>
 <path d="m36.04 27c0 4.969-5.04 10-12.04 10s-11.96-5.03-11.96-10c0-4.973 5.375-9 12-9 6.629 0 12 4.03 12 9" style="fill:#ffdec6"/>
 <path d="m29 32c0 2.207-1.789 4-4 4s-4-1.793-4-4c0-2.211 1.789-4 4-4s4 1.789 4 4" style="opacity:.1"/>
 <path d="m28 31c0 2.207-1.789 4-4 4s-4-1.793-4-4c0-2.211 1.789-4 4-4s4 1.789 4 4" style="fill:#ffaba2"/>
 <path d="m22 30c-0.551 0-1 0.445-1 1 0 0.551 0.449 1 1 1s1-0.449 1-1c0-0.555-0.449-1-1-1zm4 0c-0.551 0-1 0.445-1 1 0 0.551 0.449 1 1 1s1-0.449 1-1c0-0.555-0.449-1-1-1z" style="fill:#a55353"/>
 <path d="m40.03 7.531c3.712 4.084 5.969 9.514 5.969 15.469 0 12.703-10.297 23-23 23-5.954 0-11.384-2.256-15.469-5.969 4.178 4.291 10.01 6.969 16.469 6.969 12.703 0 23-10.298 23-23 0-6.462-2.677-12.291-6.969-16.469z" style="opacity:.1"/>
 <path d="m24 11c-6.094 0-11 4.906-11 11-1.108 0-2 1.784-2 4s0.892 4 2 4h2c0.554 0 1-1.784 1-4s-0.446-4-1-4c0-4.986 4.014-9 9-9s9 4.014 9 9c-0.554 0-1 1.784-1 4s0.446 4 1 4h2c1.108 0 2-1.784 2-4s-0.892-4-2-4c0-6.094-4.906-11-11-11z" style="fill:#474747"/>
 <path d="m20 23a2 2 0 0 0-2 2 2 2 0 0 0 2 2 2 2 0 0 0 2-2 2 2 0 0 0-2-2zm8 0a2 2 0 0 0-2 2 2 2 0 0 0 2 2 2 2 0 0 0 2-2 2 2 0 0 0-2-2z" style="fill:#f9f9f9"/>
 <path d="m20 21c-1.108 0-2 0.892-2 2 2e-3 -0.52691 0.9-1 2-1s1.9445 0.42085 1.998 0.94922c-0.026783-1.0843-0.90704-1.9492-1.998-1.9492zm8 0.003906c-1.108 0-2 0.892-2 2 2e-3 -0.52691 0.9-1 2-1s1.9445 0.42085 1.998 0.94922c-0.026783-1.0843-0.90704-1.9492-1.998-1.9492zm-8 2.9961a1 1 0 0 0-1 1 1 1 0 0 0 1 1 1 1 0 0 0 1-1 1 1 0 0 0-1-1zm8 0a1 1 0 0 0-1 1 1 1 0 0 0 1 1 1 1 0 0 0 1-1 1 1 0 0 0-1-1z" style="fill:#474747"/>
</svg>
