<svg xmlns="http://www.w3.org/2000/svg" viewBox="0 0 48 48">
 <defs>
  <linearGradient id="linearGradient3764" x1="1" x2="47" gradientUnits="userSpaceOnUse" gradientTransform="matrix(0,-1,1,0,-1.5e-6,47.999998)">
   <stop style="stop-color:#d75d5d;stop-opacity:1"/>
   <stop offset="1" style="stop-color:#db6d6d;stop-opacity:1"/>
  </linearGradient>
 </defs>
 <g>
  <path d="m 36.31 5 c 5.859 4.062 9.688 10.831 9.688 18.5 c 0 12.426 -10.07 22.5 -22.5 22.5 c -7.669 0 -14.438 -3.828 -18.5 -9.688 c 1.037 1.822 2.306 3.499 3.781 4.969 c 4.085 3.712 9.514 5.969 15.469 5.969 c 12.703 0 23 -10.298 23 -23 c 0 -5.954 -2.256 -11.384 -5.969 -15.469 c -1.469 -1.475 -3.147 -2.744 -4.969 -3.781 z m 4.969 3.781 c 3.854 4.113 6.219 9.637 6.219 15.719 c 0 12.703 -10.297 23 -23 23 c -6.081 0 -11.606 -2.364 -15.719 -6.219 c 4.16 4.144 9.883 6.719 16.219 6.719 c 12.703 0 23 -10.298 23 -23 c 0 -6.335 -2.575 -12.06 -6.719 -16.219 z" style="opacity:0.05"/>
  <path d="m 41.28 8.781 c 3.712 4.085 5.969 9.514 5.969 15.469 c 0 12.703 -10.297 23 -23 23 c -5.954 0 -11.384 -2.256 -15.469 -5.969 c 4.113 3.854 9.637 6.219 15.719 6.219 c 12.703 0 23 -10.298 23 -23 c 0 -6.081 -2.364 -11.606 -6.219 -15.719 z" style="opacity:0.1"/>
  <path d="m 31.25 2.375 c 8.615 3.154 14.75 11.417 14.75 21.13 c 0 12.426 -10.07 22.5 -22.5 22.5 c -9.708 0 -17.971 -6.135 -21.12 -14.75 a 23 23 0 0 0 44.875 -7 a 23 23 0 0 0 -16 -21.875 z" style="opacity:0.2"/>
 </g>
 <g>
  <path d="m 24 1 c 12.703 0 23 10.297 23 23 c 0 12.703 -10.297 23 -23 23 -12.703 0 -23 -10.297 -23 -23 0 -12.703 10.297 -23 23 -23 z" style="fill:url(#linearGradient3764);fill-opacity:1"/>
 </g>
 <g>
  <g>
   <g transform="translate(1,1)">
    <g style="opacity:0.1">
     <!-- color: #db6d6d -->
     <g>
      <path d="m 36.04 27 c 0 4.969 -5.371 9 -12 9 c -6.625 0 -12 -4.03 -12 -9 c 0 -4.973 5.375 -9 12 -9 c 6.629 0 12 4.03 12 9 m 0 0" style="fill:#000;fill-opacity:1;stroke:none;fill-rule:nonzero"/>
      <path d="m 15.06 31.996 l 0 -9.738 c 0 0 -4.063 0 -4.063 4.867 c 0 4.871 4.063 4.871 4.063 4.871 m 0 0" style="fill:#000;fill-opacity:1;stroke:none;fill-rule:nonzero"/>
      <path d="m 32.938 31.996 l 0 -9.738 c 0 0 4.066 0 4.066 4.867 c 0 4.871 -4.066 4.871 -4.066 4.871 m 0 0" style="fill:#000;fill-opacity:1;stroke:none;fill-rule:nonzero"/>
      <path d="m 24.01 11 c -5.574 -0.055 -8.402 3.082 -9.605 6.109 c -1.191 3.035 -0.977 6.02 -0.977 6.02 l 1.625 -0.113 c 0 0 -0.172 -2.688 0.859 -5.313 c 1.039 -2.621 3.074 -5.113 8.06 -5.07 c 4.992 0.051 7.05 2.559 8.09 5.156 c 1.039 2.598 0.863 5.223 0.863 5.223 l 1.629 0.113 c 0 0 0.219 -2.938 -0.98 -5.941 c -1.195 -3 -4 -6.133 -9.574 -6.188 m 0 0.008" style="fill:#000;fill-opacity:1;stroke:none;fill-rule:nonzero"/>
     </g>
    </g>
   </g>
  </g>
 </g>
 <g>
  <g>
   <!-- color: #db6d6d -->
   <g>
    <path d="m 36.04 27 c 0 4.969 -5.371 9 -12 9 -6.625 0 -12 -4.03 -12 -9 0 -4.973 5.375 -9 12 -9 6.629 0 12 4.03 12 9 m 0 0" style="fill:#ffdec6;fill-opacity:1;stroke:none;fill-rule:nonzero"/>
    <path d="m 15.06 31.996 0 -9.738 c 0 0 -4.063 0 -4.063 4.867 0 4.871 4.063 4.871 4.063 4.871 m 0 0" style="fill:#2d2d2d;fill-opacity:1;stroke:none;fill-rule:nonzero"/>
    <path d="m 32.938 31.996 0 -9.738 c 0 0 4.066 0 4.066 4.867 0 4.871 -4.066 4.871 -4.066 4.871 m 0 0" style="fill:#2d2d2d;fill-opacity:1;stroke:none;fill-rule:nonzero"/>
    <path d="m 24.01 11 c -5.574 -0.055 -8.402 3.082 -9.605 6.109 -1.191 3.035 -0.977 6.02 -0.977 6.02 l 1.625 -0.113 c 0 0 -0.172 -2.688 0.859 -5.313 1.039 -2.621 3.074 -5.113 8.06 -5.07 4.992 0.051 7.05 2.559 8.09 5.156 1.039 2.598 0.863 5.223 0.863 5.223 l 1.629 0.113 c 0 0 0.219 -2.938 -0.98 -5.941 -1.195 -3 -4 -6.133 -9.574 -6.188 m 0 0.008" style="fill:#2d2d2d;fill-opacity:1;stroke:none;fill-rule:nonzero"/>
    <path d="m 22 24.996 c 0 1.105 -0.895 2 -2 2 -1.105 0 -2 -0.895 -2 -2 0 -1.102 0.895 -2 2 -2 1.105 0 2 0.898 2 2 m 0 0" style="fill:#2d2d2d;fill-opacity:1;stroke:none;fill-rule:nonzero"/>
    <path d="m 30 24.996 c 0 1.105 -0.895 2 -2 2 -1.105 0 -2 -0.895 -2 -2 0 -1.102 0.895 -2 2 -2 1.105 0 2 0.898 2 2 m 0 0" style="fill:#2d2d2d;fill-opacity:1;stroke:none;fill-rule:nonzero"/>
    <path d="m 28 30.996 c 0 2.207 -1.789 4 -4 4 -2.211 0 -4 -1.793 -4 -4 0 -2.211 1.789 -4 4 -4 2.211 0 4 1.789 4 4 m 0 0" style="fill:#ffaba2;fill-opacity:1;stroke:none;fill-rule:nonzero"/>
    <path d="m 23 31 c 0 0.551 -0.449 1 -1 1 -0.551 0 -1 -0.449 -1 -1 0 -0.555 0.449 -1 1 -1 0.551 0 1 0.445 1 1 m 0 0" style="fill:#a42828;fill-opacity:1;stroke:none;fill-rule:nonzero"/>
    <path d="m 27 31 c 0 0.551 -0.449 1 -1 1 -0.551 0 -1 -0.449 -1 -1 0 -0.555 0.449 -1 1 -1 0.551 0 1 0.445 1 1 m 0 0" style="fill:#a42828;fill-opacity:1;stroke:none;fill-rule:nonzero"/>
    <path d="m 28,21 c -1.105,0 -2,0.898 -2,2 0,0.086 0.023,0.168 0.031,0.25 0.125,-0.984 0.949,-1.75 1.973,-1.75 1.02,0 1.844,0.766 1.969,1.75 0.012,-0.082 0.031,-0.16 0.031,-0.25 0,-1.105 -0.895,-2 -1.996,-2 M 28,21" style="fill:#2d2d2d;fill-opacity:1;stroke:none;fill-rule:nonzero"/>
    <path d="m 20,21 c -1.105,0 -2,0.898 -2,2 0,0.086 0.02,0.168 0.031,0.25 0.125,-0.984 0.949,-1.75 1.973,-1.75 1.02,0 1.844,0.766 1.969,1.75 0.012,-0.082 0.031,-0.16 0.031,-0.25 0,-1.105 -0.895,-2 -2,-2 M 20,21" style="fill:#2d2d2d;fill-opacity:1;stroke:none;fill-rule:nonzero"/>
   </g>
  </g>
 </g>
 <g>
  <path d="m 40.03 7.531 c 3.712 4.084 5.969 9.514 5.969 15.469 0 12.703 -10.297 23 -23 23 c -5.954 0 -11.384 -2.256 -15.469 -5.969 4.178 4.291 10.01 6.969 16.469 6.969 c 12.703 0 23 -10.298 23 -23 0 -6.462 -2.677 -12.291 -6.969 -16.469 z" style="opacity:0.1"/>
 </g>
</svg>
