<?xml version="1.0" encoding="UTF-8"?>
<svg version="1.1" viewBox="0 0 48 48" xmlns="http://www.w3.org/2000/svg">
 <defs>
  <linearGradient id="bg" x2="0" y1="1" y2="47" gradientUnits="userSpaceOnUse">
   <stop style="stop-color:#df7267" offset="0"/>
   <stop style="stop-color:#dc6457" offset="1"/>
  </linearGradient>
 </defs>
 <path d="m36.3 5c5.86 4.06 9.69 10.8 9.69 18.5 0 12.4-10.1 22.5-22.5 22.5-7.67 0-14.4-3.83-18.5-9.69 1.04 1.82 2.31 3.5 3.78 4.97 4.08 3.71 9.51 5.97 15.5 5.97 12.7 0 23-10.3 23-23 0-5.95-2.26-11.4-5.97-15.5-1.47-1.48-3.15-2.74-4.97-3.78zm4.97 3.78c3.85 4.11 6.22 9.64 6.22 15.7 0 12.7-10.3 23-23 23-6.08 0-11.6-2.36-15.7-6.22 4.16 4.14 9.88 6.72 16.2 6.72 12.7 0 23-10.3 23-23 0-6.34-2.58-12.1-6.72-16.2z" style="opacity:.05"/>
 <path d="m41.3 8.78c3.71 4.08 5.97 9.51 5.97 15.5 0 12.7-10.3 23-23 23-5.95 0-11.4-2.26-15.5-5.97 4.11 3.85 9.64 6.22 15.7 6.22 12.7 0 23-10.3 23-23 0-6.08-2.36-11.6-6.22-15.7z" style="opacity:.1"/>
 <path d="m31.2 2.38c8.62 3.15 14.8 11.4 14.8 21.1 0 12.4-10.1 22.5-22.5 22.5-9.71 0-18-6.14-21.1-14.8a23 23 0 0 0 44.9-7 23 23 0 0 0-16-21.9z" style="opacity:.2"/>
 <circle cx="24" cy="24" r="23" style="fill:url(#bg)"/>
 <path d="m40 7.53c3.71 4.08 5.97 9.51 5.97 15.5 0 12.7-10.3 23-23 23-5.95 0-11.4-2.26-15.5-5.97 4.18 4.29 10 6.97 16.5 6.97 12.7 0 23-10.3 23-23 0-6.46-2.68-12.3-6.97-16.5z" style="opacity:.1"/>
 <path d="m10 25c0 0.554 0.446 1 1 1h0.408l5.71 10.5c0.0045 0.0059 9e-3 0.0118 0.0137 0.0176-0.278 0.477-0.117 1.09 0.359 1.37 0.477 0.278 1.09 0.117 1.37-0.359l0.295-0.504h11.7l0.295 0.504c0.278 0.477 0.89 0.637 1.37 0.359 0.477-0.278 0.637-0.89 0.359-1.37 0.0046-0.0058 0.0092-0.0117 0.0137-0.0176l5.71-10.5h0.408c0.554 0 1-0.446 1-1s-0.446-1-1-1h-0.408l-5.71-10.5c-0.0045-0.0059-9e-3 -0.0118-0.0137-0.0176 0.278-0.477 0.117-1.09-0.359-1.37-0.229-0.134-0.501-0.171-0.758-0.104l-14.7 0.966zm10.3-10h9.35l-1.75 3h-5.85zm-2.01 0.518 2.03 3.48-2.92 5h-3.74zm13.4 0 4.63 8.48h-3.74l-2.92-5zm-8.45 4.48h3.52l-1.76 3.02zm-1.74 0.984 1.76 3.02h-3.52zm7 0 1.76 3.02h-3.52zm-14.8 5.02h3.74l2.92 5-2.03 3.48zm6.06 0h3.52l-1.76 3.02zm7 0h3.53l-1.75 3.05zm5.84 0h3.74l-4.63 8.48-2-3.43zm-7.58 0.984 1.76 3.02h-3.52zm-2.93 5.02h5.85l1.75 3h-9.35z" style="opacity:.1"/>
 <path d="m16.9 11a1 1 0 0 0-0.369 0.127 1 1 0 0 0-0.359 1.37 1 1 0 0 0-0.0137 0.0176l-5.71 10.5h-0.408c-0.554 0-1 0.446-1 1s0.446 1 1 1h0.408l5.71 10.5a1 1 0 0 0 0.0137 0.0176 1 1 0 0 0 0.359 1.37 1 1 0 0 0 1.37-0.359l0.295-0.504h11.7l0.295 0.504a1 1 0 0 0 1.37 0.359 1 1 0 0 0 0.359-1.37 1 1 0 0 0 0.0137-0.0176l5.71-10.5h0.408c0.554 0 1-0.446 1-1s-0.446-1-1-1h-0.408l-5.71-10.5a1 1 0 0 0-0.0137-0.0176 1 1 0 0 0-0.359-1.37 1 1 0 0 0-0.758-0.104 1 1 0 0 0-0.609 0.463l-0.295 0.504h-11.7l-0.295-0.504a1 1 0 0 0-0.609-0.463 1 1 0 0 0-0.389-0.0234zm2.46 2.99h9.35l-1.75 3h-5.85l-1.75-3zm-2.01 0.518 2.03 3.48-2.92 5h-3.74l4.63-8.48zm13.4 0 4.63 8.48h-3.74l-2.92-5 2.03-3.48zm-8.45 4.48h3.52l-1.76 3.02-1.76-3.02zm-1.74 0.984 1.76 3.02h-3.52l1.76-3.02zm7 0 1.76 3.02h-3.52l1.76-3.02zm-14.8 5.02h3.74l2.92 5-2.03 3.48-4.63-8.48zm6.06 0h3.52l-1.76 3.02-1.76-3.02zm7 0h3.53l-1.75 3.05-1.78-3.05zm5.84 0h3.74l-4.63 8.48-2-3.43 2.89-5.05zm-7.58 0.984 1.76 3.02h-3.52l1.76-3.02zm-2.93 5.02h5.85l1.75 3h-9.35l1.75-3z" style="fill:#f9f9f9"/>
</svg>
