<svg version="1.1" viewBox="0 0 48 48" xmlns="http://www.w3.org/2000/svg">
 <defs>
  <linearGradient id="bg" x1="1" x2="47" gradientTransform="matrix(0 -1 1 0 -1.5e-6 48)" gradientUnits="userSpaceOnUse">
   <stop style="stop-color:#535353" offset="0"/>
   <stop style="stop-color:#5d5d5d" offset="1"/>
  </linearGradient>
 </defs>
 <path d="m36.31 5c5.859 4.062 9.688 10.831 9.688 18.5 0 12.426-10.07 22.5-22.5 22.5-7.669 0-14.438-3.828-18.5-9.688 1.037 1.822 2.306 3.499 3.781 4.969 4.085 3.712 9.514 5.969 15.469 5.969 12.703 0 23-10.298 23-23 0-5.954-2.256-11.384-5.969-15.469-1.469-1.475-3.147-2.744-4.969-3.781zm4.969 3.781c3.854 4.113 6.219 9.637 6.219 15.719 0 12.703-10.297 23-23 23-6.081 0-11.606-2.364-15.719-6.219 4.16 4.144 9.883 6.719 16.219 6.719 12.703 0 23-10.298 23-23 0-6.335-2.575-12.06-6.719-16.219z" style="opacity:.05"/>
 <path d="m41.28 8.781c3.712 4.085 5.969 9.514 5.969 15.469 0 12.703-10.297 23-23 23-5.954 0-11.384-2.256-15.469-5.969 4.113 3.854 9.637 6.219 15.719 6.219 12.703 0 23-10.298 23-23 0-6.081-2.364-11.606-6.219-15.719z" style="opacity:.1"/>
 <path d="m31.25 2.375c8.615 3.154 14.75 11.417 14.75 21.13 0 12.426-10.07 22.5-22.5 22.5-9.708 0-17.971-6.135-21.12-14.75a23 23 0 0 0 44.875-7 23 23 0 0 0-16-21.875z" style="opacity:.2"/>
 <path d="m24 1c12.703 0 23 10.297 23 23s-10.297 23-23 23-23-10.297-23-23 10.297-23 23-23z" style="fill:url(#bg)"/>
 <path d="m40.03 7.531c3.712 4.084 5.969 9.514 5.969 15.469 0 12.703-10.297 23-23 23-5.954 0-11.384-2.256-15.469-5.969 4.178 4.291 10.01 6.969 16.469 6.969 12.703 0 23-10.298 23-23 0-6.462-2.677-12.291-6.969-16.469z" style="opacity:.1"/>
 <path d="m30.828 11.996 2e-3 2e-3 2e-3 -2e-3zm2e-3 2e-3c-1e-3 0.0015-0.47285 0.69779-1.3145 2.0352l-8.6367-0.02544c-0.09801-0.63745-0.15175-0.91601-0.26562-1.6875l-1.2383 0.1836c0.13823 0.93414 0.20473 1.2892 0.32031 2.0352l-5.1816 6.5996c-1.5619 0.01934-2.2988-0.07617-2.2988-0.07617l-0.21484 1.2305s0.65806 0.09982 2.0957 0.10156l0.59375 2.6797-0.4707 0.47461 0.74219 0.74805 0.90234 4.0625c-1.5593 1.303-2.5234 1.8418-2.5234 1.8418l0.58984 1.1035s0.92688-0.5291 2.4062-1.7324a0.66462 0.66462 0 0 0 0.05859 0.03125l7.8516 3.8594c-0.14327 1.5543-0.23438 2.3887-0.23438 2.3887l1.2383 0.14844s0.09475-0.87002 0.24414-2.4727l8.0078-3.8301a0.66462 0.66462 0 0 0 0.09961-0.05859c0.8385 0.86701 1.4531 1.4043 1.4531 1.4043l0.7793-0.97461s-0.71915-0.58777-1.7637-1.7266l0.97461-4.2148c0.61624-0.2147 1.1765-0.58471 1.6816-1.0898 0.531-0.539 0.922-1.1367 1.125-1.8047 0.14098-0.46392 0.18306-1.045-0.01172-1.5762 0.01837-0.0077 0.16016-0.06641 0.16016-0.06641l-0.48047-1.1562 0.0039-0.0098s-0.36503 0.15388-0.55664 0.23438c-0.57437-0.29124-1.2367-0.24463-1.752-0.08398-0.0683 0.02129-0.13246 0.05298-0.19922 0.07813l-4.4961-5.8594c0.85616-1.3618 1.3438-2.082 1.3438-2.082zm-9.7422 3.3398 7.6094 0.02148c-0.69132 1.1256-1.4831 2.4348-2.4746 4.1504l-4.0801 0.72461c-0.07368-0.01223-0.14854-0.01308-0.22266-0.02148-0.12352-0.61177-0.42045-2.2901-0.83203-4.875zm8.6855 0.66406 4.082 5.3223c-0.14678 0.1194-0.29068 0.24668-0.42969 0.38672-0.209 0.21057-0.38809 0.43553-0.55078 0.66602-0.76696 0.31983-1.1827 0.48956-3.4922 1.4648l-2.0157-3.8106c0.96505-1.6654 1.7342-2.9361 2.4062-4.0293zm-9.7969 0.32812c0.3343 2.063 0.55346 3.2888 0.67383 3.9102-0.55291 0.09506-1.0851 0.29692-1.5703 0.59766-1.0603 0.10724-2.0202 0.18772-2.8242 0.23242zm6.3262 4.5215 2.0273 3.834-0.29883 0.31055c-1.1629-1.1795-2.3311-2.3538-3.5-3.5273-0.09431-0.09517-0.20252-0.16527-0.30273-0.25zm-8.7949 1.3887-1.7051 1.7148-0.35547-1.6055c0.60759-0.01992 1.2998-0.05551 2.0605-0.10938zm4.377 0.58789c0.32829 0.07054 0.63448 0.2119 0.86133 0.44141 1.1814 1.1916 2.3473 2.3734 3.5254 3.5625l-0.9375 0.97656-3.877-1.9062zm-1.3574 0.13281-0.44922 3.2344a0.66694 0.66225 85.186 0 0 0 0.0059c-1.1376 1.2954-2.167 2.3185-3.0762 3.1543l-0.54492-2.457c1.2033-1.212 2.4082-2.4226 3.6094-3.6367 0.12497-0.12577 0.28647-0.22257 0.46094-0.30078zm11.67 1.0664c-0.01807 0.16729-0.02373 0.3399-0.0098 0.51367l-0.96289 0.9707c-0.1449 0.14583-0.33399 0.25826-0.54297 0.33984-0.19225-0.30688-0.38436-0.61655-0.57617-0.94726 1.3402-0.56611 1.5374-0.64505 2.0918-0.87695zm-3.043 1.7188c0.03377 0.05721 0.06776 0.1056 0.10156 0.16211-0.06586-0.01927-0.12864-0.04254-0.19141-0.06836zm4.373 1.0508-0.53125 2.2949c-0.26846-0.32942-0.56209-0.7386-0.84766-1.1211 0.30721-0.18292 0.60062-0.39055 0.86133-0.65234zm-12.609 0.32617 3.8574 1.8965c-0.16567 2.2372-0.2901 3.6354-0.41211 5.0195l-6.9316-3.4043c1.0181-0.90591 2.1902-2.0442 3.4863-3.5117zm6.3359 0.60547c1.085 0.80694 2.4405 1.0434 3.6895 0.73633 0.59968 0.82061 1.1776 1.5323 1.7031 2.1367l-0.0078 0.03516-7.0176 3.3555c0.12404-1.3966 0.24968-2.7658 0.41602-4.9941z" style="color-rendering:auto;color:#000000;dominant-baseline:auto;font-feature-settings:normal;font-variant-alternates:normal;font-variant-caps:normal;font-variant-ligatures:normal;font-variant-numeric:normal;font-variant-position:normal;image-rendering:auto;isolation:auto;mix-blend-mode:normal;opacity:.1;shape-padding:0;shape-rendering:auto;solid-color:#000000;text-decoration-color:#000000;text-decoration-line:none;text-decoration-style:solid;text-indent:0;text-orientation:mixed;text-transform:none;white-space:normal"/>
 <path d="m29.828 10.996 2e-3 2e-3 2e-3 -2e-3zm2e-3 2e-3c-1e-3 0.0015-0.47285 0.69779-1.3145 2.0352l-8.6367-0.02539c-0.09801-0.63746-0.15175-0.91601-0.26562-1.6875l-1.2383 0.1836c0.13823 0.93414 0.20473 1.2892 0.32031 2.0352l-5.1816 6.5996c-1.5619 0.01934-2.2988-0.07617-2.2988-0.07617l-0.21484 1.2305s0.65806 0.09982 2.0957 0.10156l1.7676 7.9648c-1.5593 1.3029-2.5234 1.8417-2.5234 1.8417l0.58984 1.1035s0.92688-0.5291 2.4062-1.7324a0.66462 0.66462 0 0 0 0.05859 0.03125l7.8516 3.8594c-0.14327 1.5543-0.23438 2.3887-0.23438 2.3887l1.2383 0.14844s0.09475-0.87002 0.24414-2.4727l8.0078-3.8301a0.66462 0.66462 0 0 0 0.09961-0.05859c0.8385 0.86701 1.4531 1.4043 1.4531 1.4043l0.7793-0.97461s-0.71915-0.58777-1.7637-1.7266l1.8184-7.8652c0.39395-0.16429 2.1113-0.88672 2.1113-0.88672l-0.48047-1.1562 0.0039-0.0098s-1.6888 0.70961-2.0293 0.85156l-4.9746-6.4824c0.85616-1.3618 1.3438-2.082 1.3438-2.082zm-9.7422 3.3398 7.6094 0.02148c-0.69132 1.1256-1.4831 2.4348-2.4746 4.1504l-4.293 0.76172c-0.12069-0.59225-0.42532-2.3177-0.84184-4.9336zm8.6855 0.66406 4.4531 5.8066c-1.3159 0.55003-1.6402 0.68032-4.8438 2.0332l-2.0157-3.8105c0.96505-1.6654 1.7342-2.9361 2.4062-4.0293zm-9.7969 0.32812c0.3702 2.2845 0.64617 3.8486 0.74609 4.3301-1.8553 0.23222-3.2643 0.34331-4.4668 0.41016zm6.3262 4.5215 2.0273 3.834-2.9961 3.123-3.877-1.9062 0.59766-4.2969zm-5.6328 1.0801-0.5918 4.2637a0.66694 0.66225 85.186 0 0 0 0.0059c-1.1376 1.2954-2.167 2.3185-3.0762 3.1543l-1.5547-7.0059c1.3338-0.04373 2.9549-0.13949 5.2227-0.41797zm13.709 1.1797-1.3828 5.9805c-0.89329-1.096-1.9013-2.4818-2.8906-4.1875 2.7382-1.1567 2.9351-1.2331 4.2734-1.793zm-5.2246 2.6347c1.215 2.0584 2.4546 3.6619 3.4922 4.8555l-0.0078 0.03516-7.0176 3.3555c0.12404-1.3966 0.24968-2.7658 0.41602-4.9941zm-8.2363 1.377 3.8574 1.8965c-0.16567 2.2372-0.2901 3.6354-0.41211 5.0195l-6.9316-3.4043c1.0181-0.90591 2.1902-2.0442 3.4863-3.5117z" style="color-rendering:auto;color:#000000;dominant-baseline:auto;fill:#e4e4e4;font-feature-settings:normal;font-variant-alternates:normal;font-variant-caps:normal;font-variant-ligatures:normal;font-variant-numeric:normal;font-variant-position:normal;image-rendering:auto;isolation:auto;mix-blend-mode:normal;shape-padding:0;shape-rendering:auto;solid-color:#000000;text-decoration-color:#000000;text-decoration-line:none;text-decoration-style:solid;text-indent:0;text-orientation:mixed;text-transform:none;white-space:normal"/>
 <path d="m19.67 20.932-0.43945 3.1719c0.27875-0.28114 0.55751-0.56231 0.83594-0.84375 0.17406-0.17518 0.41084-0.30098 0.67188-0.38281l0.31641-2.2715zm13.709 1.1797-1.3711 5.9336c0.35942-0.19657 0.70232-0.42764 1.002-0.72852l0.68945-0.69726 1.1895-5.1426zm-6.3418 1.8809-1.7598 1.834c0.31111 0.31474 0.62306 0.62985 0.93555 0.94531l1.7598-1.8359c-0.311-0.3153-0.62367-0.62892-0.93555-0.94336zm-11.869 0.60156-0.94922 0.95508 1.4941 1.5039zm13.547 1.0488c0.69705 1.0994 1.3893 2.065 2.0371 2.8789 0.42563-0.08479 0.83311-0.25151 1.2207-0.45898-0.49912-0.6137-1.0334-1.3257-1.5801-2.125z" style="opacity:.1"/>
 <path d="m20.385 19.167c-1.1363 0.0085-2.265 0.44146-3.1035 1.293l-4.0625 4.0898 1.7891 1.8008c1.3527-1.3634 2.7079-2.7245 4.0586-4.0898 0.621-0.625 1.9997-0.68019 2.6797 0.0078 1.3399 1.3515 2.6567 2.6896 3.998 4.041 1.742 1.758 4.5776 1.7028 6.2656 0.0078l1.0234-1.0332c0.3186 0.0092 0.63266-0.03055 0.9043-0.11523 0.66-0.207 1.2541-0.59781 1.7891-1.1328 0.531-0.539 0.922-1.1367 1.125-1.8047s0.23394-1.5824-0.41406-2.2344c-0.648-0.656-1.5587-0.62888-2.2227-0.42188s-1.2541 0.59772-1.7891 1.1367c-0.531 0.535-0.922 1.1328-1.125 1.8008-0.09502 0.30663-0.14238 0.66722-0.11328 1.0293l-0.96289 0.9707c-0.621 0.625-1.9995 0.68019-2.6875-0.0078-1.3283-1.3526-2.6681-2.6939-4.0059-4.0371-0.8705-0.8785-2.0072-1.3123-3.1445-1.3008z" style="fill:#f74545"/>
</svg>
