<svg xmlns="http://www.w3.org/2000/svg" viewBox="0 0 48 48">
 <defs>
  <linearGradient id="linearGradient3764" x1="1" x2="47" gradientUnits="userSpaceOnUse" gradientTransform="matrix(0,-1,1,0,-1.5e-6,47.999998)">
   <stop style="stop-color:#b5d9f3;stop-opacity:1"/>
   <stop offset="1" style="stop-color:#c6e2f6;stop-opacity:1"/>
  </linearGradient>
 </defs>
 <g>
  <path d="m 36.31 5 c 5.859 4.062 9.688 10.831 9.688 18.5 c 0 12.426 -10.07 22.5 -22.5 22.5 c -7.669 0 -14.438 -3.828 -18.5 -9.688 c 1.037 1.822 2.306 3.499 3.781 4.969 c 4.085 3.712 9.514 5.969 15.469 5.969 c 12.703 0 23 -10.298 23 -23 c 0 -5.954 -2.256 -11.384 -5.969 -15.469 c -1.469 -1.475 -3.147 -2.744 -4.969 -3.781 z m 4.969 3.781 c 3.854 4.113 6.219 9.637 6.219 15.719 c 0 12.703 -10.297 23 -23 23 c -6.081 0 -11.606 -2.364 -15.719 -6.219 c 4.16 4.144 9.883 6.719 16.219 6.719 c 12.703 0 23 -10.298 23 -23 c 0 -6.335 -2.575 -12.06 -6.719 -16.219 z" style="opacity:0.05"/>
  <path d="m 41.28 8.781 c 3.712 4.085 5.969 9.514 5.969 15.469 c 0 12.703 -10.297 23 -23 23 c -5.954 0 -11.384 -2.256 -15.469 -5.969 c 4.113 3.854 9.637 6.219 15.719 6.219 c 12.703 0 23 -10.298 23 -23 c 0 -6.081 -2.364 -11.606 -6.219 -15.719 z" style="opacity:0.1"/>
  <path d="m 31.25 2.375 c 8.615 3.154 14.75 11.417 14.75 21.13 c 0 12.426 -10.07 22.5 -22.5 22.5 c -9.708 0 -17.971 -6.135 -21.12 -14.75 a 23 23 0 0 0 44.875 -7 a 23 23 0 0 0 -16 -21.875 z" style="opacity:0.2"/>
 </g>
 <g>
  <path d="m 24 1 c 12.703 0 23 10.297 23 23 c 0 12.703 -10.297 23 -23 23 -12.703 0 -23 -10.297 -23 -23 0 -12.703 10.297 -23 23 -23 z" style="fill:url(#linearGradient3764);fill-opacity:1"/>
 </g>
 <g>
  <path d="m 40.03 7.531 c 3.712 4.084 5.969 9.514 5.969 15.469 0 12.703 -10.297 23 -23 23 c -5.954 0 -11.384 -2.256 -15.469 -5.969 4.178 4.291 10.01 6.969 16.469 6.969 c 12.703 0 23 -10.298 23 -23 0 -6.462 -2.677 -12.291 -6.969 -16.469 z" style="opacity:0.1"/>
 </g>
 <path d="M 25.456 12.01 A 10 7 0 0 0 18.913 13.447 10 7 0 0 0 15.341 20.812 10 7 0 0 0 15.975 22 c -1.02 1.5 -1.245 3.205 -0.635 4.811 0.158 0.414 0.385 0.804 0.641 1.182 -1.025 1.502 -1.252 3.21 -0.641 4.818 1.048 2.735 4.345 4.758 8.355 5.127 2.626 0.24 5.28 -0.259 7.381 -1.387 0.418 0.291 0.915 0.447 1.424 0.447 1.381 0 2.5 -1.119 2.5 -2.5 0 -1.381 -1.119 -2.5 -2.5 -2.5 -1.381 0 -2.5 1.119 -2.5 2.5 0.001 0.127 0.011 0.254 0.031 0.379 -1.422 0.723 -3.198 1.119 -5.03 1.121 -4.418 0 -8 -2.239 -8 -5 0 -0.503 0.122 -1 0.361 -1.484 1.576 1.305 3.813 2.192 6.334 2.424 2.626 0.24 5.28 -0.259 7.381 -1.387 0.418 0.291 0.915 0.447 1.424 0.447 1.381 0 2.5 -1.119 2.5 -2.5 0 -1.381 -1.119 -2.5 -2.5 -2.5 -1.381 0 -2.5 1.119 -2.5 2.5 0.001 0.127 0.011 0.254 0.031 0.379 -1.422 0.723 -3.198 1.119 -5.03 1.121 -4.418 0 -8 -2.239 -8 -5 0 -0.506 0.123 -1.01 0.365 -1.492 a 10 7 0 0 0 6.33 2.43 10 7 0 0 0 7.381 -1.387 2.5 2.5 0 0 0 1.424 0.447 2.5 2.5 0 0 0 2.5 -2.5 2.5 2.5 0 0 0 -2.5 -2.5 2.5 2.5 0 0 0 -2.5 2.5 2.5 2.5 0 0 0 0.031 0.379 8 5 0 0 1 -5.03 1.121 8 5 0 0 1 -8 -5 8 5 0 0 1 8 -5 8 5 0 0 1 3.662 0.559 l 1.338 -1.621 a 10 7 0 0 0 -4.545 -0.93 z m -0.455 4.992 a 4 2 0 0 0 -4 2 4 2 0 0 0 4 2 4 2 0 0 0 4 -2 4 2 0 0 0 -4 -2 z" style="fill:#000;opacity:0.1;fill-opacity:1;stroke:none"/>
 <path d="m 14.981 26.996 c -1.025 1.502 -1.252 3.21 -0.641 4.818 1.048 2.735 4.345 4.758 8.355 5.127 2.626 0.24 5.28 -0.259 7.381 -1.387 0.418 0.291 0.915 0.447 1.424 0.447 1.381 0 2.5 -1.119 2.5 -2.5 0 -1.381 -1.119 -2.5 -2.5 -2.5 -1.381 0 -2.5 1.119 -2.5 2.5 0.001 0.127 0.011 0.254 0.031 0.379 -1.422 0.723 -3.198 1.119 -5.03 1.121 -4.418 0 -8 -2.239 -8 -5 0 -0.503 0.122 -1 0.361 -1.484 z" style="fill:#2a3676;opacity:1;fill-opacity:1;stroke:none"/>
 <path d="m 24 16 a 4 2 0 0 0 -4 2 4 2 0 0 0 4 2 4 2 0 0 0 4 -2 4 2 0 0 0 -4 -2 z m -9.03 5 c -1.02 1.5 -1.245 3.205 -0.635 4.811 1.048 2.735 4.345 4.758 8.355 5.127 2.626 0.24 5.28 -0.259 7.381 -1.387 0.418 0.291 0.915 0.447 1.424 0.447 1.381 0 2.5 -1.119 2.5 -2.5 0 -1.381 -1.119 -2.5 -2.5 -2.5 -1.381 0 -2.5 1.119 -2.5 2.5 0.001 0.127 0.011 0.254 0.031 0.379 -1.422 0.723 -3.198 1.119 -5.03 1.121 -4.418 0 -8 -2.239 -8 -5 0 -0.506 0.123 -1.01 0.365 -1.492 l -1.391 -1.506 z" style="fill:#2b9d96;opacity:1;fill-opacity:1;stroke:none"/>
 <path d="m 24.456 11.01 a 10 7 0 0 0 -6.543 1.439 10 7 0 0 0 -3.572 7.365 10 7 0 0 0 8.355 5.127 10 7 0 0 0 7.381 -1.387 A 2.5 2.5 0 0 0 31.501 24 a 2.5 2.5 0 0 0 2.5 -2.5 2.5 2.5 0 0 0 -2.5 -2.5 2.5 2.5 0 0 0 -2.5 2.5 2.5 2.5 0 0 0 0.031 0.379 A 8 5 0 0 1 24 23 a 8 5 0 0 1 -8 -5 8 5 0 0 1 8 -5 8 5 0 0 1 3.662 0.559 L 29 11.938 a 10 7 0 0 0 -4.545 -0.93 z" style="fill:#2a3676;opacity:1;fill-opacity:1;stroke:none"/>
</svg>
