<svg xmlns="http://www.w3.org/2000/svg" viewBox="0 0 48 48">
 <defs>
  <linearGradient id="linearGradient3764" x1="1" x2="47" gradientUnits="userSpaceOnUse" gradientTransform="matrix(0,-1,1,0,-1.5e-6,47.999998)">
   <stop style="stop-color:#e4e4e4;stop-opacity:1"/>
   <stop offset="1" style="stop-color:#eee;stop-opacity:1"/>
  </linearGradient>
 </defs>
 <g>
  <path d="m 36.31 5 c 5.859 4.062 9.688 10.831 9.688 18.5 c 0 12.426 -10.07 22.5 -22.5 22.5 c -7.669 0 -14.438 -3.828 -18.5 -9.688 c 1.037 1.822 2.306 3.499 3.781 4.969 c 4.085 3.712 9.514 5.969 15.469 5.969 c 12.703 0 23 -10.298 23 -23 c 0 -5.954 -2.256 -11.384 -5.969 -15.469 c -1.469 -1.475 -3.147 -2.744 -4.969 -3.781 z m 4.969 3.781 c 3.854 4.113 6.219 9.637 6.219 15.719 c 0 12.703 -10.297 23 -23 23 c -6.081 0 -11.606 -2.364 -15.719 -6.219 c 4.16 4.144 9.883 6.719 16.219 6.719 c 12.703 0 23 -10.298 23 -23 c 0 -6.335 -2.575 -12.06 -6.719 -16.219 z" style="opacity:0.05"/>
  <path d="m 41.28 8.781 c 3.712 4.085 5.969 9.514 5.969 15.469 c 0 12.703 -10.297 23 -23 23 c -5.954 0 -11.384 -2.256 -15.469 -5.969 c 4.113 3.854 9.637 6.219 15.719 6.219 c 12.703 0 23 -10.298 23 -23 c 0 -6.081 -2.364 -11.606 -6.219 -15.719 z" style="opacity:0.1"/>
  <path d="m 31.25 2.375 c 8.615 3.154 14.75 11.417 14.75 21.13 c 0 12.426 -10.07 22.5 -22.5 22.5 c -9.708 0 -17.971 -6.135 -21.12 -14.75 a 23 23 0 0 0 44.875 -7 a 23 23 0 0 0 -16 -21.875 z" style="opacity:0.2"/>
 </g>
 <g>
  <path d="m 24 1 c 12.703 0 23 10.297 23 23 c 0 12.703 -10.297 23 -23 23 -12.703 0 -23 -10.297 -23 -23 0 -12.703 10.297 -23 23 -23 z" style="fill:url(#linearGradient3764);fill-opacity:1"/>
 </g>
 <g>
  <g>
   <g transform="translate(1,1)">
    <g style="opacity:0.1">
     <!-- color: #eeeeee -->
    </g>
   </g>
  </g>
 </g>
 <g>
  <g>
   <!-- color: #eeeeee -->
   <g>
    <path d="m 24.398 12 c -2.801 0.038 -5.398 0.638 -7.637 1.785 -2.801 1.438 -3.754 2.949 -3.754 5.938 0 0.577 0.042 1.096 0.111 1.588 -0.065 0.446 -0.107 0.916 -0.107 1.447 0 3.96 1.519 5.796 5.992 7.23 l 0.004 0 c 0.926 0.296 4.492 0.55 5.465 0.566 0 -2.067 -0.004 -4.121 -0.004 -6.188 -0.473 -0.086 -2.873 -0.34 -4.057 -0.559 -2.653 -0.493 -4.524 -1.342 -5.471 -2.326 0.274 -0.288 0.626 -0.569 1.066 -0.842 6.285 -3.894 18.998 -2.226 20.951 2.766 -0.004 -7.277 -0.032 -4.754 -0.004 -7.277 0.059 -1.188 -2.455 -2.543 -7.326 -3.586 -1.795 -0.386 -3.55 -0.565 -5.23 -0.543 z m 2.43 7.088 c -0.527 -0.034 -0.857 0.026 -0.857 0.221 -0.035 1.907 -0.045 3.901 -0.133 5.856 1.654 0.991 6.661 0.91 9.09 3.43 -0.801 0.732 -2.087 1.426 -3.789 2 -6.05 2.043 -15.308 0.325 -17.453 -3.238 l -0.686 -1.141 l 0 7.281 c 0 0.793 2.94 3.34 9.143 4.32 l 0.008 -0.004 c 3.761 0.598 8.996 -0.316 12.05 -2.113 2.11 -1.238 2.926 -3.156 2.719 -6.41 -0.017 -0.254 -0.042 -0.477 -0.068 -0.703 0.096 -0.692 0.12 -1.461 0.064 -2.332 -0.188 -2.879 -0.903 -3.918 -3.727 -5.375 -1.439 -0.741 -4.781 -1.69 -6.361 -1.791 z" style="fill:#000;fill-opacity:0.098"/>
    <path d="m 21.14 36.816 c -6.203 -0.98 -9.141 -3.527 -9.141 -4.32 l 0 -4.242 l 0.684 1.141 c 2.145 3.559 11.402 5.277 17.453 3.234 c 2.965 -0.996 4.719 -2.359 4.719 -3.66 c -1.711 -3.953 -8.109 -3.66 -10.02 -4.805 l 0.137 -3.035 c 0.035 -0.777 5.301 0.797 7.219 1.789 c 2.824 1.457 3.539 2.496 3.727 5.371 c 0.207 3.254 -0.609 5.172 -2.719 6.41 c -3.055 1.797 -8.289 2.711 -12.05 2.113 m -3.148 -7.824 c -4.473 -1.434 -5.992 -3.27 -5.992 -7.23 c 0 -2.984 0.953 -4.496 3.754 -5.934 c 3.582 -1.836 8.08 -2.27 12.867 -1.246 c 4.871 1.047 7.387 2.398 7.328 3.59 c -0.016 0.938 0.113 4.531 0 4.238 c -1.953 -4.992 -14.668 -6.66 -20.953 -2.766 c -3.586 2.219 -1.535 5.102 4.41 6.207 c 1.184 0.219 3.582 0.469 4.055 0.559 l 0 3.148 c -0.973 -0.016 -4.539 -0.27 -5.465 -0.566 m -0.004 0" style="fill:#0aa3ec;fill-opacity:1;stroke:none;fill-rule:nonzero"/>
    <path d="m 21.14 33.781 c -6.203 -0.984 -9.141 -3.531 -9.141 -4.324 l 0 -4.242 l 0.684 1.141 c 2.145 3.563 11.402 5.281 17.453 3.238 c 2.965 -1 4.719 -2.359 4.719 -3.66 c -1.711 -3.953 -7.977 -3.664 -9.887 -4.805 l 0 -2.82 c 0 -0.777 5.301 0.582 7.219 1.57 c 2.824 1.457 3.539 2.496 3.727 5.375 c 0.207 3.254 -0.609 5.172 -2.719 6.41 c -3.055 1.793 -8.289 2.711 -12.05 2.113 m -3.148 -7.824 c -4.473 -1.438 -5.992 -3.27 -5.992 -7.23 c 0 -2.988 0.953 -4.5 3.754 -5.938 c 3.582 -1.836 8.08 -2.27 12.867 -1.242 c 4.871 1.043 7.387 2.398 7.328 3.586 c -0.016 0.941 0.113 4.531 0 4.242 c -1.953 -4.996 -14.668 -6.66 -20.953 -2.77 c -3.586 2.219 -1.535 5.102 4.41 6.207 c 1.184 0.219 3.582 0.473 4.055 0.559 l 0 3.148 c -0.973 -0.012 -4.539 -0.27 -5.465 -0.566 m -0.004 0.004" style="fill:#141414;fill-opacity:1;stroke:none;fill-rule:nonzero"/>
   </g>
  </g>
 </g>
 <g>
  <path d="m 40.03 7.531 c 3.712 4.084 5.969 9.514 5.969 15.469 0 12.703 -10.297 23 -23 23 c -5.954 0 -11.384 -2.256 -15.469 -5.969 4.178 4.291 10.01 6.969 16.469 6.969 c 12.703 0 23 -10.298 23 -23 0 -6.462 -2.677 -12.291 -6.969 -16.469 z" style="opacity:0.1"/>
 </g>
</svg>
