<svg version="1.1" viewBox="0 0 48 48" xmlns="http://www.w3.org/2000/svg">
 <defs>
  <linearGradient id="bg" x2="0" y1="47" y2="1" gradientUnits="userSpaceOnUse">
   <stop style="stop-color:#455b69" offset="0"/>
   <stop style="stop-color:#4d6575" offset="1"/>
  </linearGradient>
 </defs>
 <path d="m36.3 5c5.86 4.06 9.69 10.8 9.69 18.5 0 12.4-10.1 22.5-22.5 22.5-7.67 0-14.4-3.83-18.5-9.69 1.04 1.82 2.31 3.5 3.78 4.97 4.08 3.71 9.51 5.97 15.5 5.97 12.7 0 23-10.3 23-23 0-5.95-2.26-11.4-5.97-15.5-1.47-1.48-3.15-2.74-4.97-3.78zm4.97 3.78c3.85 4.11 6.22 9.64 6.22 15.7 0 12.7-10.3 23-23 23-6.08 0-11.6-2.36-15.7-6.22 4.16 4.14 9.88 6.72 16.2 6.72 12.7 0 23-10.3 23-23 0-6.34-2.58-12.1-6.72-16.2z" style="opacity:.05"/>
 <path d="m41.3 8.78c3.71 4.08 5.97 9.51 5.97 15.5 0 12.7-10.3 23-23 23-5.95 0-11.4-2.26-15.5-5.97 4.11 3.85 9.64 6.22 15.7 6.22 12.7 0 23-10.3 23-23 0-6.08-2.36-11.6-6.22-15.7z" style="opacity:.1"/>
 <path d="m31.2 2.38c8.62 3.15 14.8 11.4 14.8 21.1 0 12.4-10.1 22.5-22.5 22.5-9.71 0-18-6.14-21.1-14.8a23 23 0 0 0 44.9-7 23 23 0 0 0-16-21.9z" style="opacity:.2"/>
 <path d="m24 1c12.7 0 23 10.3 23 23s-10.3 23-23 23-23-10.3-23-23 10.3-23 23-23z" style="fill:url(#bg)"/>
 <path d="m40 7.53c3.71 4.08 5.97 9.51 5.97 15.5 0 12.7-10.3 23-23 23-5.95 0-11.4-2.26-15.5-5.97 4.18 4.29 10 6.97 16.5 6.97 12.7 0 23-10.3 23-23 0-6.46-2.68-12.3-6.97-16.5z" style="opacity:.1"/>
 <path d="m25 13s-10 20-10 20.4c0 1.71 4.48 3.59 10 3.59 5.52 0 10-1.88 10-3.59v-3.81c0-0.451-0.318-0.906-0.875-1.34 0.557-0.437 0.875-0.894 0.875-1.34v-3.81c0-0.451-0.318-0.906-0.875-1.34 0.557-0.437 0.875-0.894 0.875-1.34v-3.81c0-1.72-4.48-3.59-10-3.59z" style="opacity:.1"/>
 <path d="m24 12c-5.52 0-10 1.89-10 3.61v3.79c0 1.71 4.48 3.6 10 3.6 5.52 0 10-1.89 10-3.6v-3.79c0-1.72-4.48-3.61-10-3.61" style="fill:#999"/>
 <path d="m24 18.5c-5.52 0-10 1.89-10 3.61v3.79c0 1.71 4.48 3.6 10 3.6 5.52 0 10-1.89 10-3.6v-3.79c0-1.72-4.48-3.61-10-3.61" style="fill:#999"/>
 <path d="m24 25c-5.52 0-10 1.89-10 3.61v3.79c0 1.71 4.48 3.6 10 3.6 5.52 0 10-1.89 10-3.6v-3.79c0-1.72-4.48-3.61-10-3.61" style="fill:#999"/>
 <path d="m33 15.7c0 1.66-4.03 3.3-9 3.3-4.97 0-9-1.64-9-3.3s4.03-3.1 9-3.1c4.97 0 9 1.44 9 3.1z" style="fill:#d2d2d2"/>
 <path d="m15.6 21.2c-0.349 0.327-0.563 0.64-0.563 1 0 1.66 4.03 3.31 9 3.31 4.97 0 9-1.66 9-3.31 0-0.365-0.204-0.7-0.563-1.03-1.77 1.04-4.87 1.84-8.44 1.84-3.54 0-6.66-0.778-8.44-1.81z" style="fill:#d2d2d2"/>
 <path d="m15.6 27.7c-0.349 0.327-0.563 0.64-0.563 1 0 1.66 4.03 3.31 9 3.31 4.97 0 9-1.66 9-3.31 0-0.365-0.204-0.7-0.563-1.03-1.77 1.04-4.87 1.84-8.44 1.84-3.54 0-6.66-0.778-8.44-1.81z" style="fill:#d2d2d2"/>
 <path d="m28.2 12c-7.28-8e-3 -9.25 8.27-8.97 13 0.767 0.645 1.35 1.45 1.88 2.16-0.521-0.627-1.23-1.1-1.94-1.62-0.056 0.467-0.1 0.89-0.125 1.28 1.04 0.778 2.03 2.25 2.03 2.25s-0.07-0.088-0.375-0.406c-0.27-0.282-1.42-1.12-1.69-1.31-0.026 0.874 0.055 1.45 0.219 1.56 0.317 0.222 0.697 0.628 1.06 1.09 0.825 1.05 1.59 2.38 1.59 2.38 0.419 1.24 0.85 2.47 1.47 3.59 0.244 6e-3 0.478 0 0.688 0-0.339-0.622-0.65-1.32-0.875-2.06-0.748-2.47-1.24-5.54-0.844-8.88 0.866-5.08 3.04-9.42 5.62-11.8-2.27 2.34-4.54 8.64-4.97 11.6-0.444 2.69-0.198 4.97 0.031 7.28 0.233-2.25 3.19-3.69 3.19-3.69s1.08-1.57 2.22-3.78c-1.49 0.496-2.91 1.02-4.25 1.75 0 0 2.43-1.69 4.69-2.66 2.05-4.26 3.87-10.1-0.656-11.8zm-4.22 25c0.249 0.351 0.499 0.692 0.813 1.02l0.563-0.125c-0.236-0.263-0.465-0.56-0.688-0.876-0.231-3e-3 -0.461-9e-3 -0.688-0.019z" style="opacity:.1"/>
 <path d="m27.2 11c-7.28-8e-3 -9.24 8.28-8.96 13 0.767 0.645 1.35 1.42 1.87 2.13-0.521-0.627-1.23-1.1-1.94-1.63-0.056 0.467-0.097 0.902-0.122 1.29 1.04 0.778 2.03 2.25 2.03 2.25s-0.074-0.094-0.378-0.412c-0.27-0.282-1.41-1.1-1.67-1.3-0.026 0.874 0.046 1.45 0.21 1.56 0.317 0.222 0.691 0.636 1.06 1.1 0.825 1.05 1.61 2.36 1.61 2.36 0.683 2.03 1.36 3.97 2.91 5.59l0.557-0.125c-0.872-0.973-1.69-2.32-2.18-3.94-0.748-2.47-1.24-5.55-0.842-8.88 0.866-5.08 3.04-9.4 5.62-11.7-2.27 2.34-4.56 8.66-4.98 11.6-0.444 2.69-0.195 4.96 0.034 7.28 0.233-2.25 3.2-3.69 3.2-3.69s1.08-1.6 2.21-3.81c-1.49 0.496-2.9 1.05-4.24 1.78 0 0 2.43-1.7 4.69-2.67 2.05-4.26 3.85-10.1-0.683-11.8" style="fill:#064a6b"/>
</svg>
