<svg version="1.1" viewBox="0 0 48 48" xmlns="http://www.w3.org/2000/svg">
 <defs>
  <linearGradient id="bg" x2="0" y1="1" y2="47" gradientUnits="userSpaceOnUse">
   <stop style="stop-color:#aa6a80" offset="0"/>
   <stop style="stop-color:#a15c74" offset="1"/>
  </linearGradient>
 </defs>
 <path d="m36.31 5c5.859 4.062 9.688 10.831 9.688 18.5 0 12.426-10.07 22.5-22.5 22.5-7.669 0-14.438-3.828-18.5-9.688 1.037 1.822 2.306 3.499 3.781 4.969 4.085 3.712 9.514 5.969 15.469 5.969 12.703 0 23-10.298 23-23 0-5.954-2.256-11.384-5.969-15.469-1.469-1.475-3.147-2.744-4.969-3.781zm4.969 3.781c3.854 4.113 6.219 9.637 6.219 15.719 0 12.703-10.297 23-23 23-6.081 0-11.606-2.364-15.719-6.219 4.16 4.144 9.883 6.719 16.219 6.719 12.703 0 23-10.298 23-23 0-6.335-2.575-12.06-6.719-16.219z" style="opacity:.05"/>
 <path d="m41.28 8.781c3.712 4.085 5.969 9.514 5.969 15.469 0 12.703-10.297 23-23 23-5.954 0-11.384-2.256-15.469-5.969 4.113 3.854 9.637 6.219 15.719 6.219 12.703 0 23-10.298 23-23 0-6.081-2.364-11.606-6.219-15.719z" style="opacity:.1"/>
 <path d="m31.25 2.375c8.615 3.154 14.75 11.417 14.75 21.13 0 12.426-10.07 22.5-22.5 22.5-9.708 0-17.971-6.135-21.12-14.75a23 23 0 0 0 44.875-7 23 23 0 0 0-16-21.875z" style="opacity:.2"/>
 <circle cx="24" cy="24" r="23" style="fill:url(#bg)"/>
 <path d="m20 14v2.8164l-2 3.1836-1-0.50196v-4.498h-3v5h2.125l1.875 2-5 2v6l10 6h5l4-4h4v-4h2v-3l1-2-5-2.5-2-1.5-1.5-2.5-4.5-2.5-3 0.61719v-0.61719z" style="opacity:.1"/>
 <path d="m40.03 7.531c3.712 4.084 5.969 9.514 5.969 15.469 0 12.703-10.297 23-23 23-5.954 0-11.384-2.256-15.469-5.969 4.178 4.291 10.01 6.969 16.469 6.969 12.703 0 23-10.298 23-23 0-6.462-2.677-12.291-6.969-16.469z" style="opacity:.1"/>
 <path d="m17 21-5 2 8 10 6 1 5-3-2-4z" style="fill:#a7fda8"/>
 <path d="m12 23 9 8h5l2 1-0.5 2.5-0.5 0.5h-5l-10-6z" style="fill:#45b754;paint-order:normal"/>
 <path d="m26 31 2-1 3 1-3.5 3.5-1.5-1.5z" style="fill:#2e895d;paint-order:normal"/>
 <path d="m25 13-4.8594 1-3.1406 5v2l3 1.6695 6 2.3305 1 5 5 1h3v-4h2v-3l1-2-3-1.5-4-2.5-2-1 0.5-1.5z" style="fill:#bac8ee"/>
 <path d="m29.5 15.5-4.5 2.5h6l-1.5-2.5zm1.5 4.5v4l1 1h2l2-1-4-1-1-3zm-11 2.6699 6 3.3301v5h6l-4-2v-2h4l-6-3-6-1.3301z" style="fill:#777ce1"/>
 <path d="m20.141 14-0.14062 0.22461v4.7754h1v4.2227l1 0.55469v-4.7773h1v-5h-2.8594zm-3.1406 5.498v1.4355l0.13086 0.13867 2.1426 1.1895-2.2734-2.7637z" style="opacity:.1"/>
 <path d="m19 13v5h1v4.6695l1 0.5605v-5.2301h1v-5zm-6 1v5h2.125l1.875 2 1.9416 1.0764-2.9416-3.5784v-4.498z" style="fill:#3d3d3d"/>
 <path d="m20.5 14c-0.277 0-0.5 0.223-0.5 0.5v1.5h1v-1.5c0-0.277-0.223-0.5-0.5-0.5zm-6 1c-0.277 0-0.5 0.223-0.5 0.5v1.5h1v-1.5c0-0.277-0.223-0.5-0.5-0.5z" style="fill:#f9f9f9"/>
</svg>
