<svg version="1.1" viewBox="0 0 48 48" xmlns="http://www.w3.org/2000/svg">
 <defs>
  <linearGradient id="linearGradient3764" x1="1" x2="47" gradientTransform="matrix(0 -1 1 0 -1.5e-6 48)" gradientUnits="userSpaceOnUse">
   <stop style="stop-color:#293a4c" offset="0"/>
   <stop style="stop-color:#30445a" offset="1"/>
  </linearGradient>
 </defs>
 <path d="m36.31 5c5.859 4.062 9.688 10.831 9.688 18.5 0 12.426-10.07 22.5-22.5 22.5-7.669 0-14.438-3.828-18.5-9.688 1.037 1.822 2.306 3.499 3.781 4.969 4.085 3.712 9.514 5.969 15.469 5.969 12.703 0 23-10.298 23-23 0-5.954-2.256-11.384-5.969-15.469-1.469-1.475-3.147-2.744-4.969-3.781zm4.969 3.781c3.854 4.113 6.219 9.637 6.219 15.719 0 12.703-10.297 23-23 23-6.081 0-11.606-2.364-15.719-6.219 4.16 4.144 9.883 6.719 16.219 6.719 12.703 0 23-10.298 23-23 0-6.335-2.575-12.06-6.719-16.219z" style="opacity:.05"/>
 <path d="m41.28 8.781c3.712 4.085 5.969 9.514 5.969 15.469 0 12.703-10.297 23-23 23-5.954 0-11.384-2.256-15.469-5.969 4.113 3.854 9.637 6.219 15.719 6.219 12.703 0 23-10.298 23-23 0-6.081-2.364-11.606-6.219-15.719z" style="opacity:.1"/>
 <path d="m31.25 2.375c8.615 3.154 14.75 11.417 14.75 21.13 0 12.426-10.07 22.5-22.5 22.5-9.708 0-17.971-6.135-21.12-14.75a23 23 0 0 0 44.875 -7 23 23 0 0 0 -16 -21.875z" style="opacity:.2"/>
 <path d="m24 1c12.703 0 23 10.297 23 23s-10.297 23-23 23-23-10.297-23-23 10.297-23 23-23z" style="fill:url(#linearGradient3764)"/>
 <path d="m25.22 10.002c-4.0538-0.059656-7.9591 1.5242-10.826 4.3906-5.859 5.8581-5.859 15.357 0 21.215h1.4141l2.123-2.123-1.4141-1.4141-1.375 1.375c-1.8018-2.0966-2.8764-4.7066-3.0938-7.4453h1.9531v-2h-1.9492c0.21639-2.8368 1.3382-5.4152 3.084-7.4512l1.3809 1.3809 1.4141-1.4141-1.3809-1.3809c2.036-1.7458 4.6143-2.8676 7.4512-3.084v1.9492h2v-1.9492c2.8368 0.21639 5.4152 1.3382 7.4512 3.084l-1.3809 1.3809 1.4141 1.4141 1.3809-1.3809c1.7458 2.036 2.8676 4.6143 3.084 7.4512h-1.9492v2h1.9551c-0.21482 2.74-1.2888 5.3525-3.0898 7.4512l-1.3809-1.3809-0.4707 0.4707-0.94336-1.8848-5.1406-5.1406a2 2 0 0 0 -0.51563 -1.9297 2 2 0 0 0 -2.8281 0 2 2 0 0 0 0 2.8281 2 2 0 0 0 1.9297 0.51563l5.1406 5.1406 1.8848 0.94336-0.4707 0.4707 2.123 2.123h1.4141c5.859-5.8581 5.859-15.357 0-21.215-2.7599-2.7592-6.4865-4.3342-10.389-4.3906z" style="opacity:.1"/>
 <rect x="10" y="23" width="3" height="2" style="fill:#f9f9f9"/>
 <rect x="35" y="23" width="3" height="2" style="fill:#f9f9f9"/>
 <rect transform="rotate(90)" x="10" y="-25" width="3" height="2" style="fill:#f9f9f9"/>
 <rect transform="rotate(45)" x="19.941" y="-1" width="3" height="2" style="fill:#f9f9f9"/>
 <path d="m24.219 9.002c-4.0538-0.059656-7.9591 1.5242-10.826 4.3906-5.859 5.8581-5.859 15.357 0 21.215h1.4141l2.123-2.123-1.4141-1.4141-1.375 1.375c-2.0202-2.3507-3.134-5.3458-3.1406-8.4453 0-7.1797 5.8203-13 13-13s13 5.8203 13 13c-0.0036 3.1008-1.1154 6.0981-3.1348 8.4512l-1.3809-1.3809-1.4141 1.4141 2.123 2.123h1.4141c5.859-5.8581 5.859-15.357 0-21.215-2.7599-2.7592-6.4865-4.3342-10.389-4.3906z" style="fill:#f9f9f9"/>
 <rect transform="rotate(135)" x="-14" y="-34.941" width="3" height="2" style="fill:#f9f9f9"/>
 <path d="m40.03 7.531c3.712 4.084 5.969 9.514 5.969 15.469 0 12.703-10.297 23-23 23-5.954 0-11.384-2.256-15.469-5.969 4.178 4.291 10.01 6.969 16.469 6.969 12.703 0 23-10.298 23-23 0-6.462-2.677-12.291-6.969-16.469z" style="opacity:.1"/>
 <circle transform="rotate(45)" cx="33.941" cy="7.1054e-15" r="2" style="fill:#ea6060"/>
 <path d="m24.707 23.293-1.4142 1.4142 6.364 6.364 2.8284 1.4142-1.4142-2.8284z" style="fill:#ea6060"/>
</svg>
