<svg version="1.1" viewBox="0 0 48 48" xmlns="http://www.w3.org/2000/svg">
 <defs>
  <linearGradient id="bg" x1="1" x2="47" gradientTransform="matrix(0 -1 1 0 -1.5e-6 48)" gradientUnits="userSpaceOnUse">
   <stop style="stop-color:#364659" offset="0"/>
   <stop style="stop-color:#3e5066" offset="1"/>
  </linearGradient>
 </defs>
 <path d="m36.3 5c5.86 4.06 9.69 10.8 9.69 18.5 0 12.4-10.1 22.5-22.5 22.5-7.67 0-14.4-3.83-18.5-9.69 1.04 1.82 2.31 3.5 3.78 4.97 4.08 3.71 9.51 5.97 15.5 5.97 12.7 0 23-10.3 23-23 0-5.95-2.26-11.4-5.97-15.5-1.47-1.48-3.15-2.74-4.97-3.78zm4.97 3.78c3.85 4.11 6.22 9.64 6.22 15.7 0 12.7-10.3 23-23 23-6.08 0-11.6-2.36-15.7-6.22 4.16 4.14 9.88 6.72 16.2 6.72 12.7 0 23-10.3 23-23 0-6.34-2.58-12.1-6.72-16.2z" style="opacity:.05"/>
 <path d="m41.3 8.78c3.71 4.08 5.97 9.51 5.97 15.5 0 12.7-10.3 23-23 23-5.95 0-11.4-2.26-15.5-5.97 4.11 3.85 9.64 6.22 15.7 6.22 12.7 0 23-10.3 23-23 0-6.08-2.36-11.6-6.22-15.7z" style="opacity:.1"/>
 <path d="m31.2 2.38c8.62 3.15 14.8 11.4 14.8 21.1 0 12.4-10.1 22.5-22.5 22.5-9.71 0-18-6.14-21.1-14.8a23 23 0 0 0 44.9-7 23 23 0 0 0-16-21.9z" style="opacity:.2"/>
 <path d="m24 1c12.7 0 23 10.3 23 23s-10.3 23-23 23-23-10.3-23-23 10.3-23 23-23z" style="fill:url(#bg)"/>
 <path d="m25.2 10c-4.05-0.0597-7.96 1.52-10.8 4.39-5.86 5.86-5.86 15.4 0 21.2h1.41l2.12-2.12-1.41-1.41-1.38 1.38c-1.8-2.1-2.88-4.71-3.09-7.45h1.95v-2h-1.95c0.216-2.84 1.34-5.42 3.08-7.45l1.38 1.38 1.41-1.41-1.38-1.38c2.04-1.75 4.61-2.87 7.45-3.08v1.95h2v-1.95c2.84 0.216 5.42 1.34 7.45 3.08l-1.38 1.38 1.41 1.41 1.38-1.38c1.75 2.04 2.87 4.61 3.08 7.45h-1.95v2h1.96c-0.215 2.74-1.29 5.35-3.09 7.45l-1.38-1.38-0.471 0.471-0.943-1.88-5.14-5.14a2 2 0 0 0-0.516-1.93 2 2 0 0 0-2.83 0 2 2 0 0 0 0 2.83 2 2 0 0 0 1.93 0.516l5.14 5.14 1.88 0.943-0.471 0.471 2.12 2.12h1.41c5.86-5.86 5.86-15.4 0-21.2-2.76-2.76-6.49-4.33-10.4-4.39z" style="opacity:.1"/>
 <rect x="10" y="23" width="3" height="2" style="fill:#f9f9f9"/>
 <rect x="35" y="23" width="3" height="2" style="fill:#f9f9f9"/>
 <rect transform="rotate(90)" x="10" y="-25" width="3" height="2" style="fill:#f9f9f9"/>
 <rect transform="rotate(45)" x="19.9" y="-1" width="3" height="2" style="fill:#f9f9f9"/>
 <path d="m24.2 9c-4.05-0.0597-7.96 1.52-10.8 4.39-5.86 5.86-5.86 15.4 0 21.2h1.41l2.12-2.12-1.41-1.41-1.38 1.38c-2.02-2.35-3.13-5.35-3.14-8.45 0-7.18 5.82-13 13-13s13 5.82 13 13c-0.0036 3.1-1.12 6.1-3.13 8.45l-1.38-1.38-1.41 1.41 2.12 2.12h1.41c5.86-5.86 5.86-15.4 0-21.2-2.76-2.76-6.49-4.33-10.4-4.39z" style="fill:#f9f9f9"/>
 <rect transform="rotate(135)" x="-14" y="-34.9" width="3" height="2" style="fill:#f9f9f9"/>
 <path d="m40 7.53c3.71 4.08 5.97 9.51 5.97 15.5 0 12.7-10.3 23-23 23-5.95 0-11.4-2.26-15.5-5.97 4.18 4.29 10 6.97 16.5 6.97 12.7 0 23-10.3 23-23 0-6.46-2.68-12.3-6.97-16.5z" style="opacity:.1"/>
 <path transform="rotate(45)" d="m32.4-1.31a2 2 0 0 0-0.489 1.31 2 2 0 0 0 2 2 2 2 0 0 0 1.73-1h7.27l3-0.999-3-1h-7.27a2 2 0 0 0-1.73-1 2 2 0 0 0-1.51 0.691z" style="fill:#ed6e6e"/>
</svg>
