<svg version="1.1" viewBox="0 0 48 48" xmlns="http://www.w3.org/2000/svg">
 <defs>
  <linearGradient id="bg" x2="0" y1="1" y2="47" gradientUnits="userSpaceOnUse">
   <stop style="stop-color:#bf4a5f" offset="0"/>
   <stop style="stop-color:#b54055" offset="1"/>
  </linearGradient>
 </defs>
 <path d="m36.31 5c5.859 4.062 9.688 10.831 9.688 18.5 0 12.426-10.07 22.5-22.5 22.5-7.669 0-14.438-3.828-18.5-9.688 1.037 1.822 2.306 3.499 3.781 4.969 4.085 3.712 9.514 5.969 15.469 5.969 12.703 0 23-10.298 23-23 0-5.954-2.256-11.384-5.969-15.469-1.469-1.475-3.147-2.744-4.969-3.781zm4.969 3.781c3.854 4.113 6.219 9.637 6.219 15.719 0 12.703-10.297 23-23 23-6.081 0-11.606-2.364-15.719-6.219 4.16 4.144 9.883 6.719 16.219 6.719 12.703 0 23-10.298 23-23 0-6.335-2.575-12.06-6.719-16.219z" style="opacity:.05"/>
 <path d="m41.28 8.781c3.712 4.085 5.969 9.514 5.969 15.469 0 12.703-10.297 23-23 23-5.954 0-11.384-2.256-15.469-5.969 4.113 3.854 9.637 6.219 15.719 6.219 12.703 0 23-10.298 23-23 0-6.081-2.364-11.606-6.219-15.719z" style="opacity:.1"/>
 <path d="m31.25 2.375c8.615 3.154 14.75 11.417 14.75 21.13 0 12.426-10.07 22.5-22.5 22.5-9.708 0-17.971-6.135-21.12-14.75a23 23 0 0 0 44.875-7 23 23 0 0 0-16-21.875z" style="opacity:.2"/>
 <circle cx="24" cy="24" r="23" style="fill:url(#bg)"/>
 <path d="m40.03 7.531c3.712 4.084 5.969 9.514 5.969 15.469 0 12.703-10.297 23-23 23-5.954 0-11.384-2.256-15.469-5.969 4.178 4.291 10.01 6.969 16.469 6.969 12.703 0 23-10.298 23-23 0-6.462-2.677-12.291-6.969-16.469z" style="opacity:.1"/>
 <path d="m25 15c-7 0-12 1-12 2 0 13 1 16 2 18.5 0.37139 0.92848 6.6131 1.5 10 1.5 3.3869-1e-6 9.6286-0.57152 10-1.5 1-2.5 2-5.5 2-18.5 0-1-5-2-12-2z" style="opacity:.1"/>
 <path d="m24 14c-7 0-12 1-12 2 0 4.3015 0.11023 7.4913 0.29297 9.9473l3.707 9.0534h16l3.707-9.0534c0.18274-2.456 0.29297-5.6458 0.29297-9.9473 0-1-5-2-12-2z" style="fill:#f7696b"/>
 <path d="m19.5 19-3.5 15h3.1055l1.7422-8.2773c1.301-0.54277 2.1511-1.813 2.1523-3.2227 0.0017-1.933-1.567-3.5-3.5-3.5zm11 0-3.5 3.5c0.0013 1.4096 0.85143 2.6799 2.1523 3.2227l6.5273 0.57227c-0.85507-0.79384-1.6797-2.1883-1.6797-3.7949 0-1.933-1.567-3.5-3.5-3.5zm-8.5 11v1.5c0 0.277 0.223 0.5 0.5 0.5h5c0.277 0 0.5-0.223 0.5-0.5v-1c0-0.277-0.223-0.5-0.5-0.5z" style="opacity:.1"/>
 <path d="m18.5 18c-1.933 0-3.5 1.567-3.5 3.5 0 2.2761-1.6554 4.132-2.707 4.4473 0.36954 4.9665 1.0379 6.8799 1.707 8.5527 0.37139 0.92848 6.6131 1.5 10 1.5s9.6286-0.57152 10-1.5c0.66912-1.6728 1.3375-3.5862 1.707-8.5527-1.0516-0.31524-2.707-2.1712-2.707-4.4473 0-1.933-1.567-3.5-3.5-3.5s-3.5017 1.567-3.5 3.5c0.0013 1.4096 0.85139 2.6799 2.1523 3.2227l0.90039 4.2773 1.9473 2-1.1055 2 0.10547 0.5c0.05706 0.27106-0.223 0.5-0.5 0.5h-1.5c-1 0-1-1-2-1h-4c-1 0-1 1-2 1h-1.5c-0.277 0-0.55706-0.22894-0.5-0.5l0.10547-0.5-1.1055-2 1.9473-2 0.90039-4.2773c1.301-0.54277 2.1511-1.813 2.1523-3.2227 0.0017-1.933-1.567-3.5-3.5-3.5z" style="fill:#718de5"/>
 <path d="m18.5 20c-0.82843 0-1.5 0.67157-1.5 1.5s0.67157 1.5 1.5 1.5 1.5-0.67157 1.5-1.5-0.67157-1.5-1.5-1.5zm11 0c-0.82843 0-1.5 0.67157-1.5 1.5s0.67157 1.5 1.5 1.5 1.5-0.67157 1.5-1.5-0.67157-1.5-1.5-1.5zm-14.5 8c-0.55228 0-1 0.44771-1 1v2c0 1.108 1.338 2 3 2h1.1055l0.8418-4h-2.4473s-0.94772-1-1.5-1zm18 0c-0.55228 0-1.5 1-1.5 1h-2.4473l0.8418 4h1.1055c1.662 0 3-0.892 3-2v-2c0-0.55229-0.44772-1-1-1zm-11.5 1c-0.277 0-0.5 0.223-0.5 0.5v1c0 0.277 0.223 0.5 0.5 0.5h5c0.277 0 0.5-0.223 0.5-0.5v-1c0-0.277-0.223-0.5-0.5-0.5h-5z" style="fill:#f3d572"/>
</svg>
