<svg xmlns="http://www.w3.org/2000/svg" viewBox="0 0 48 48">
 <defs>
  <linearGradient id="linearGradient3764" x1="1" x2="47" gradientUnits="userSpaceOnUse" gradientTransform="matrix(0,-1,1,0,-1.5e-6,47.999998)">
   <stop style="stop-color:#3c4350;stop-opacity:1"/>
   <stop offset="1" style="stop-color:#454d5b;stop-opacity:1"/>
  </linearGradient>
 </defs>
 <g>
  <path d="m 36.31 5 c 5.859 4.062 9.688 10.831 9.688 18.5 c 0 12.426 -10.07 22.5 -22.5 22.5 c -7.669 0 -14.438 -3.828 -18.5 -9.688 c 1.037 1.822 2.306 3.499 3.781 4.969 c 4.085 3.712 9.514 5.969 15.469 5.969 c 12.703 0 23 -10.298 23 -23 c 0 -5.954 -2.256 -11.384 -5.969 -15.469 c -1.469 -1.475 -3.147 -2.744 -4.969 -3.781 z m 4.969 3.781 c 3.854 4.113 6.219 9.637 6.219 15.719 c 0 12.703 -10.297 23 -23 23 c -6.081 0 -11.606 -2.364 -15.719 -6.219 c 4.16 4.144 9.883 6.719 16.219 6.719 c 12.703 0 23 -10.298 23 -23 c 0 -6.335 -2.575 -12.06 -6.719 -16.219 z" style="opacity:0.05"/>
  <path d="m 41.28 8.781 c 3.712 4.085 5.969 9.514 5.969 15.469 c 0 12.703 -10.297 23 -23 23 c -5.954 0 -11.384 -2.256 -15.469 -5.969 c 4.113 3.854 9.637 6.219 15.719 6.219 c 12.703 0 23 -10.298 23 -23 c 0 -6.081 -2.364 -11.606 -6.219 -15.719 z" style="opacity:0.1"/>
  <path d="m 31.25 2.375 c 8.615 3.154 14.75 11.417 14.75 21.13 c 0 12.426 -10.07 22.5 -22.5 22.5 c -9.708 0 -17.971 -6.135 -21.12 -14.75 a 23 23 0 0 0 44.875 -7 a 23 23 0 0 0 -16 -21.875 z" style="opacity:0.2"/>
 </g>
 <g>
  <path d="m 24 1 c 12.703 0 23 10.297 23 23 c 0 12.703 -10.297 23 -23 23 -12.703 0 -23 -10.297 -23 -23 0 -12.703 10.297 -23 23 -23 z" style="fill:url(#linearGradient3764);fill-opacity:1"/>
 </g>
 <g>
  <path d="m 40.03 7.531 c 3.712 4.084 5.969 9.514 5.969 15.469 0 12.703 -10.297 23 -23 23 c -5.954 0 -11.384 -2.256 -15.469 -5.969 4.178 4.291 10.01 6.969 16.469 6.969 c 12.703 0 23 -10.298 23 -23 0 -6.462 -2.677 -12.291 -6.969 -16.469 z" style="opacity:0.1"/>
 </g>
 <path d="m 18 16 1.195 6.203 0 0.002 c -0.642 0.812 -1.195 1.795 -1.195 2.795 c 0 1 0.395 1.988 1.195 2.795 0.004 0.003 0.01 0.005 0.014 0.008 l -1.209 6.197 l 4 0 5 -4.5 11 -0.5 0 -1 -5 0 c 2 -0.7 4.7 -1.7 5 -2.998 -0.3 -1.302 -3 -2.302 -5 -3.01 l 5 0 0 -1 l -11 -0.494 -5 -4.5 -4 0 m -4.699 6 1.699 1.5 -3 1.5 3 1.5 -1.699 1.5 4.699 0 c -0.742 -0.868 -1.301 -2 -1.301 -3 0 -1 0.625 -2.267 1.301 -3 l -4.699 0 z" style="fill:#000;opacity:0.1;fill-opacity:1;stroke:none;fill-rule:nonzero"/>
 <path d="m 21 15 -4 0 1.195 6.203 0.018 5.574 l -1.213 6.223 l 4 0 5 -4.5 11 -0.5 0 -1 -5 0 c 2 -0.7 4.7 -1.7 5 -2.998 c -0.3 -1.302 -3 -2.302 -5 -3.01 l 5 0 0 -1 l -11 -0.494" style="fill:#aaa;fill-opacity:1;stroke:none;fill-rule:nonzero"/>
 <path d="m 34,24 c 0,1 -4,3 -4.8,3 -1,0 -2.2,0.5 -3.2,1.5 -2,0 -6,-0.5 -7.80451,-1.704452 C 17.39518,25.988517 17,25 17,24 17,23 17.553808,22.016478 18.19549,21.204452 20,20 24,19.5 26,19.5 c 1,1 2.2,1.5 3.2,1.5 0.8,0 4.8,2 4.8,3 z" style="fill:#696969;opacity:1;fill-opacity:1;stroke:none"/>
 <path d="m 31 24 c 0 0.995 -3.868 2.262 -7.237 2.25 -1.763 -0.255 -1.763 -4.255 0 -4.5 3.368 0.002 7.237 1.245 7.237 2.25" style="fill:#d0baac;fill-opacity:1;stroke:none;fill-rule:nonzero"/>
 <path d="m 12.301 21 1.699 1.5 -3 1.5 3 1.5 -1.699 1.5 4.699 0 c -0.742 -0.868 -1.3 -2 -1.3 -3 0 -1 0.624 -2.267 1.3 -3 z" style="fill:#f0c382;opacity:1;fill-opacity:1;stroke:none"/>
</svg>
