<svg version="1.1" viewBox="0 0 48 48" xmlns="http://www.w3.org/2000/svg">
 <defs>
  <linearGradient id="bg" x2="0" y1="47" y2="1" gradientUnits="userSpaceOnUse">
   <stop style="stop-color:#ecc92a" offset="0"/>
   <stop style="stop-color:#eece3c" offset="1"/>
  </linearGradient>
 </defs>
 <path d="m36.3 5c5.86 4.06 9.69 10.8 9.69 18.5 0 12.4-10.1 22.5-22.5 22.5-7.67 0-14.4-3.83-18.5-9.69 1.04 1.82 2.31 3.5 3.78 4.97 4.08 3.71 9.51 5.97 15.5 5.97 12.7 0 23-10.3 23-23 0-5.95-2.26-11.4-5.97-15.5-1.47-1.48-3.15-2.74-4.97-3.78zm4.97 3.78c3.85 4.11 6.22 9.64 6.22 15.7 0 12.7-10.3 23-23 23-6.08 0-11.6-2.36-15.7-6.22 4.16 4.14 9.88 6.72 16.2 6.72 12.7 0 23-10.3 23-23 0-6.34-2.58-12.1-6.72-16.2z" style="opacity:.05"/>
 <path d="m41.3 8.78c3.71 4.08 5.97 9.51 5.97 15.5 0 12.7-10.3 23-23 23-5.95 0-11.4-2.26-15.5-5.97 4.11 3.85 9.64 6.22 15.7 6.22 12.7 0 23-10.3 23-23 0-6.08-2.36-11.6-6.22-15.7z" style="opacity:.1"/>
 <path d="m31.2 2.38c8.62 3.15 14.8 11.4 14.8 21.1 0 12.4-10.1 22.5-22.5 22.5-9.71 0-18-6.14-21.1-14.8a23 23 0 0 0 44.9-7 23 23 0 0 0-16-21.9z" style="opacity:.2"/>
 <path d="m24 1c12.7 0 23 10.3 23 23s-10.3 23-23 23-23-10.3-23-23 10.3-23 23-23z" style="fill:url(#bg)"/>
 <path d="m14 23c0 0.554 0.446 1 1 1h1v12c0 0.554 0.446 1 1 1h1v2h3v-2h8v2h3v-2h1c0.554 0 1-0.446 1-1v-12h1c0.554 0 1-0.446 1-1v-4c0-0.554-0.446-1-1-1h-1c0-0.554-0.446-1-1-1v-2c0-1.11-0.892-2-2-2z" style="opacity:.1"/>
 <path d="m40 7.53c3.71 4.08 5.97 9.51 5.97 15.5 0 12.7-10.3 23-23 23-5.95 0-11.4-2.26-15.5-5.97 4.18 4.29 10 6.97 16.5 6.97 12.7 0 23-10.3 23-23 0-6.46-2.68-12.3-6.97-16.5z" style="opacity:.1"/>
 <rect x="16" y="12" width="16" height="6" rx="2" style="fill:#556177"/>
 <path d="m14 17c-0.554 0-1 0.446-1 1v4c0 0.554 0.446 1 1 1h20c0.554 0 1-0.446 1-1v-4c0-0.554-0.446-1-1-1h-20zm3 18v3h3v-3h-3zm11 0v3h3v-3h-3z" style="fill:#474747"/>
 <rect x="14" y="18" width="20" height="4" style="fill:#808080;opacity:.5"/>
 <rect x="15" y="16" width="18" height="20" rx="1" style="fill:#8793a9"/>
 <path d="m15 32v2h2c0.579 0 1-0.431 1-1v-1h-3zm15 0v1c0 0.569 0.421 1 1 1h2v-2h-3z" style="fill:#f9f9f9"/>
 <path d="m16 17 1 6h14l1-6z" style="fill:#6b6c73"/>
 <path d="m21 20-2 3h1l2-3h-1zm8 0-2 3h1l2-3h-1zm-11 5v1c0 0.554 0.446 1 1 1h10c0.554 0 1-0.446 1-1v-1h-12zm1 3v1c0 0.554 0.446 1 1 1h8c0.554 0 1-0.446 1-1v-1h-10zm1 3v1c0 0.554 0.446 1 1 1h6c0.554 0 1-0.446 1-1v-1h-8z" style="fill:#474747"/>
 <rect x="22" y="34" width="4" height="1" style="fill:#c3c9d3"/>
 <rect x="22" y="34" width="1" height="1" style="fill:#566bd4"/>
 <path d="m25.1 34.3-0.123 0.0234v0.0938l0.123-0.0254v0.338h-0.119v0.0938h0.367v-0.0938h-0.119v-0.43zm0.316 0 0.176 0.256-0.184 0.268h0.143l0.123-0.178 0.123 0.178h0.141l-0.182-0.268h-2e-3l0.176-0.256h-0.143l-0.115 0.168-0.115-0.168h-0.141zm-2.36 0.0039v0.525h0.127v-0.359l0.191 0.359h0.15v-0.525h-0.127v0.361l-0.191-0.361zm0.607 0v0.314c0 0.074 0.0177 0.13 0.0547 0.166s0.0939 0.0547 0.17 0.0547 0.133-0.0187 0.17-0.0547 0.0566-0.092 0.0566-0.166v-0.314h-0.135v0.314c0 0.043-0.0075 0.0748-0.0215 0.0938-0.014 0.019-0.0383 0.0273-0.0703 0.0273-0.033 0-0.0563-0.0083-0.0703-0.0273-0.014-0.019-0.0195-0.0508-0.0195-0.0938v-0.314h-0.135zm0.58 0v0.525h0.129v-0.385l0.121 0.283h0.0859l0.121-0.283v0.385h0.127v-0.525h-0.172l-0.119 0.281-0.119-0.281h-0.174z" style="fill:#424242"/>
 <path d="m17 36v1h3v-1h-3zm11 0v1h3v-1h-3z" style="opacity:.1"/>
</svg>
