<svg version="1.1" viewBox="0 0 48 48" xmlns="http://www.w3.org/2000/svg">
	<defs>
		<linearGradient id="bg" x2="0" y1="1" y2="47" gradientUnits="userSpaceOnUse">
			<stop style="stop-color:#404040" offset="0"/>
			<stop style="stop-color:#363636" offset="1"/>
		</linearGradient>
	</defs>
	<path d="m36.31 5c5.859 4.062 9.688 10.831 9.688 18.5 0 12.426-10.07 22.5-22.5 22.5-7.669 0-14.438-3.828-18.5-9.688 1.037 1.822 2.306 3.499 3.781 4.969 4.085 3.712 9.514 5.969 15.469 5.969 12.703 0 23-10.298 23-23 0-5.954-2.256-11.384-5.969-15.469-1.469-1.475-3.147-2.744-4.969-3.781zm4.969 3.781c3.854 4.113 6.219 9.637 6.219 15.719 0 12.703-10.297 23-23 23-6.081 0-11.606-2.364-15.719-6.219 4.16 4.144 9.883 6.719 16.219 6.719 12.703 0 23-10.298 23-23 0-6.335-2.575-12.06-6.719-16.219z" style="opacity:.05"/>
	<path d="m41.28 8.781c3.712 4.085 5.969 9.514 5.969 15.469 0 12.703-10.297 23-23 23-5.954 0-11.384-2.256-15.469-5.969 4.113 3.854 9.637 6.219 15.719 6.219 12.703 0 23-10.298 23-23 0-6.081-2.364-11.606-6.219-15.719z" style="opacity:.1"/>
	<path d="m31.25 2.375c8.615 3.154 14.75 11.417 14.75 21.13 0 12.426-10.07 22.5-22.5 22.5-9.708 0-17.971-6.135-21.12-14.75a23 23 0 0 0 44.875-7 23 23 0 0 0-16-21.875z" style="opacity:.2"/>
	<circle cx="24" cy="24" r="23" style="fill:url(#bg)"/>
	<path d="m25 10a15 15 0 0 0 0 30 15 15 0 0 0 0-30zm0 6a9 9 0 0 1 0 18 9 9 0 0 1 0-18z" style="opacity:.1"/>
	<path d="m37.858 18.259a15 15 0 0 0 -8.118 -8.118l-5.741 1.859 3.444 3.685a9 9 0 0 1 4.871 4.871l3.685 3.444z" style="fill:#26acd9"/>
	<path d="m29.741 10.141a15 15 0 0 0 -11.481 0.0l-2.745 5.373 5.041 0.17a9 9 0 0 1 6.889 0.0z" style="fill:#33cc33"/>
	<path d="m18.259 10.141a15 15 0 0 0 -8.118 8.118l1.859 5.741 3.685 -3.444a9 9 0 0 1 4.871 -4.871z" style="fill:#cccc33"/>
	<path d="m10.141 18.259a15 15 0 0 0 0.0 11.481l5.373 2.745 0.17 -5.041a9 9 0 0 1 0.0 -6.889z" style="fill:#d98026"/>
	<path d="m10.141 29.741a15 15 0 0 0 8.118 8.118l5.741 -1.858 -3.444 -3.685a9 9 0 0 1 -4.871 -4.871z" style="fill:#d93526"/>
	<path d="m18.259 37.858a15 15 0 0 0 11.481 0.0l2.745 -5.373 -5.041 -0.17a9 9 0 0 1 -6.889 0.0z" style="fill:#d9269d"/>
	<path d="m29.741 37.858a15 15 0 0 0 8.118 -8.118l-1.858 -5.741 -3.685 3.444a9 9 0 0 1 -4.871 4.871z" style="fill:#ac26d9"/>
	<path d="m37.858 29.741a15 15 0 0 0 0.0 -11.481l-5.543 2.296a9 9 0 0 1 0.0 6.889z" style="fill:#4040bf"/>
	<path d="m40.03 7.531c3.712 4.084 5.969 9.514 5.969 15.469 0 12.703-10.297 23-23 23-5.954 0-11.384-2.256-15.469-5.969 4.178 4.291 10.01 6.969 16.469 6.969 12.703 0 23-10.298 23-23 0-6.462-2.677-12.291-6.969-16.469z" style="opacity:.1"/>
</svg>
