<svg xmlns="http://www.w3.org/2000/svg" viewBox="0 0 48 48">
 <defs>
  <linearGradient id="linearGradient3764" x1="1" x2="47" gradientUnits="userSpaceOnUse" gradientTransform="matrix(0,-1,1,0,-1.5e-6,47.999998)">
   <stop style="stop-color:#eb9b29;stop-opacity:1"/>
   <stop offset="1" style="stop-color:#eda63c;stop-opacity:1"/>
  </linearGradient>
 </defs>
 <g>
  <path d="m 36.31 5 c 5.859 4.062 9.688 10.831 9.688 18.5 c 0 12.426 -10.07 22.5 -22.5 22.5 c -7.669 0 -14.438 -3.828 -18.5 -9.688 c 1.037 1.822 2.306 3.499 3.781 4.969 c 4.085 3.712 9.514 5.969 15.469 5.969 c 12.703 0 23 -10.298 23 -23 c 0 -5.954 -2.256 -11.384 -5.969 -15.469 c -1.469 -1.475 -3.147 -2.744 -4.969 -3.781 z m 4.969 3.781 c 3.854 4.113 6.219 9.637 6.219 15.719 c 0 12.703 -10.297 23 -23 23 c -6.081 0 -11.606 -2.364 -15.719 -6.219 c 4.16 4.144 9.883 6.719 16.219 6.719 c 12.703 0 23 -10.298 23 -23 c 0 -6.335 -2.575 -12.06 -6.719 -16.219 z" style="opacity:0.05"/>
  <path d="m 41.28 8.781 c 3.712 4.085 5.969 9.514 5.969 15.469 c 0 12.703 -10.297 23 -23 23 c -5.954 0 -11.384 -2.256 -15.469 -5.969 c 4.113 3.854 9.637 6.219 15.719 6.219 c 12.703 0 23 -10.298 23 -23 c 0 -6.081 -2.364 -11.606 -6.219 -15.719 z" style="opacity:0.1"/>
  <path d="m 31.25 2.375 c 8.615 3.154 14.75 11.417 14.75 21.13 c 0 12.426 -10.07 22.5 -22.5 22.5 c -9.708 0 -17.971 -6.135 -21.12 -14.75 a 23 23 0 0 0 44.875 -7 a 23 23 0 0 0 -16 -21.875 z" style="opacity:0.2"/>
 </g>
 <g>
  <path d="m 24 1 c 12.703 0 23 10.297 23 23 c 0 12.703 -10.297 23 -23 23 -12.703 0 -23 -10.297 -23 -23 0 -12.703 10.297 -23 23 -23 z" style="fill:url(#linearGradient3764);fill-opacity:1"/>
 </g>
 <g>
  <g>
   <g transform="translate(1,1)">
    <g style="opacity:0.1">
     <!-- color: #eda63c -->
     <g>
      <path d="m 18.418 34.543 c 0 0.582 -0.793 1.059 -1.773 1.059 c -0.98 0 -1.773 -0.477 -1.773 -1.059 c 0 -0.586 0.793 -1.059 1.773 -1.059 c 0.98 0 1.773 0.473 1.773 1.059 m 0 0" style="fill:#000;fill-opacity:1;stroke:none;fill-rule:nonzero"/>
      <path d="m 34.402 34.578 c 0 0.586 -0.793 1.059 -1.773 1.059 c -0.977 0 -1.77 -0.473 -1.77 -1.059 c 0 -0.582 0.793 -1.055 1.77 -1.055 c 0.98 0 1.773 0.473 1.773 1.055 m 0 0" style="fill:#000;fill-opacity:1;stroke:none;fill-rule:nonzero"/>
      <path d="m 23.629 25.449 c -0.078 0 -0.141 0.063 -0.141 0.141 l 0 1.258 c 0 0.078 0.063 0.141 0.141 0.141 l 1.258 0 c 0.078 0 0.141 -0.063 0.141 -0.141 l 0 -1.258 c 0 -0.078 -0.063 -0.141 -0.141 -0.141 m -1.254 0.008 l 1.246 0 c 0.078 0 0.137 0.063 0.137 0.137 l 0 1.246 c 0 0.078 -0.059 0.137 -0.137 0.137 l -1.246 0 c -0.074 0 -0.137 -0.059 -0.137 -0.137 l 0 -1.246 c 0 -0.074 0.063 -0.137 0.137 -0.137 m 0 0" style="fill:#000;fill-opacity:0.051;stroke:none;fill-rule:nonzero"/>
      <path d="m 23.633 25.457 c -0.074 0 -0.137 0.063 -0.137 0.137 l 0 1.246 c 0 0.078 0.063 0.137 0.137 0.137 l 1.246 0 c 0.078 0 0.137 -0.059 0.137 -0.137 l 0 -1.246 c 0 -0.074 -0.059 -0.137 -0.137 -0.137 m -1.238 0.008 l 1.23 0 c 0.078 0 0.137 0.063 0.137 0.137 l 0 1.23 c 0 0.078 -0.059 0.137 -0.137 0.137 l -1.23 0 c -0.074 0 -0.137 -0.059 -0.137 -0.137 l 0 -1.23 c 0 -0.074 0.063 -0.137 0.137 -0.137 m 0 0" style="fill:#000;fill-opacity:0.102;stroke:none;fill-rule:nonzero"/>
      <path d="m 23.641 25.465 c -0.074 0 -0.137 0.063 -0.137 0.137 l 0 1.23 c 0 0.078 0.063 0.137 0.137 0.137 l 1.23 0 c 0.078 0 0.137 -0.059 0.137 -0.137 l 0 -1.23 c 0 -0.074 -0.059 -0.137 -0.137 -0.137 m -1.227 0.004 l 1.227 0 c 0.074 0 0.133 0.063 0.133 0.137 l 0 1.223 c 0 0.078 -0.059 0.137 -0.133 0.137 l -1.227 0 c -0.074 0 -0.137 -0.059 -0.137 -0.137 l 0 -1.223 c 0 -0.074 0.063 -0.137 0.137 -0.137 m 0 0" style="fill:#000;fill-opacity:0.2;stroke:none;fill-rule:nonzero"/>
      <path d="m 23.645 25.469 c -0.074 0 -0.137 0.063 -0.137 0.137 l 0 1.223 c 0 0.078 0.063 0.137 0.137 0.137 l 1.227 0 c 0.074 0 0.133 -0.059 0.133 -0.137 l 0 -1.223 c 0 -0.074 -0.059 -0.137 -0.133 -0.137 m -1.223 0.004 l 1.219 0 c 0.074 0 0.133 0.063 0.133 0.137 l 0 1.219 c 0 0.074 -0.059 0.133 -0.133 0.133 l -1.219 0 c -0.074 0 -0.137 -0.059 -0.137 -0.133 l 0 -1.219 c 0 -0.074 0.063 -0.137 0.137 -0.137 m 0 0" style="fill:#000;fill-opacity:0.302;stroke:none;fill-rule:nonzero"/>
      <path d="m 23.648 25.473 c -0.074 0 -0.137 0.063 -0.137 0.137 l 0 1.219 c 0 0.074 0.063 0.133 0.137 0.133 l 1.219 0 c 0.074 0 0.133 -0.059 0.133 -0.133 l 0 -1.219 c 0 -0.074 -0.059 -0.137 -0.133 -0.137 m -1.215 0.004 l 1.211 0 c 0.074 0 0.133 0.063 0.133 0.137 l 0 1.211 c 0 0.074 -0.059 0.133 -0.133 0.133 l -1.211 0 c -0.074 0 -0.137 -0.059 -0.137 -0.133 l 0 -1.211 c 0 -0.074 0.063 -0.137 0.137 -0.137 m 0 0" style="fill:#000;fill-opacity:0.4;stroke:none;fill-rule:nonzero"/>
      <path d="m 23.652 25.477 l 1.211 0 c 0.074 0 0.133 0.063 0.133 0.137 l 0 1.211 c 0 0.074 -0.059 0.133 -0.133 0.133 l -1.211 0 c -0.074 0 -0.137 -0.059 -0.137 -0.133 l 0 -1.211 c 0 -0.074 0.063 -0.137 0.137 -0.137 m 0 0" style="fill:#000;fill-opacity:0.502;stroke:none;fill-rule:nonzero"/>
      <path d="m 23.656 25.48 l 1.203 0 c 0.074 0 0.133 0.063 0.133 0.137 l 0 1.203 c 0 0.074 -0.059 0.133 -0.133 0.133 l -1.203 0 c -0.074 0 -0.137 -0.059 -0.137 -0.133 l 0 -1.203 c 0 -0.074 0.063 -0.137 0.137 -0.137 m 0 0" style="fill:#000;fill-opacity:1;stroke:none;fill-rule:nonzero"/>
      <path d="m 24.586 12 c -0.762 0 -1.484 0.156 -2.145 0.438 l 0.742 1.043 c 0 0 1.379 -0.703 2.652 0 l 0.871 -1.055 c -0.652 -0.273 -1.367 -0.426 -2.117 -0.426 m -0.004 0" style="fill:#000;fill-opacity:1;stroke:none;fill-rule:nonzero"/>
      <path d="m 24.16 35.992 c -1.805 -0.016 -10.316 -0.605 -11.383 -3.832 c -0.238 -0.711 -0.867 -1 -0.746 -1.563 l 4.387 -8.656 c 0.203 -0.316 0.539 -0.52 1.039 -0.578 l 13.773 0 c 0.543 0.023 1.074 0.078 1.422 0.617 l 4.387 8.309 c 0.25 0.938 -0.578 2.074 -1.516 3.117 c -0.992 1.109 -6.762 2.719 -11.363 2.586 m 0 0" style="fill:#000;fill-opacity:1;stroke:none;fill-rule:nonzero"/>
      <path d="m 26.746 12.246 l -0.871 1.055 c -1.273 -0.699 -2.652 0 -2.652 0 l -0.742 -1.043 c -1.961 0.836 -3.336 2.781 -3.336 5.05 c 0 3.03 2.453 5.48 5.484 5.48 c 3.03 0 5.48 -2.453 5.48 -5.48 c 0 -2.277 -1.387 -4.23 -3.363 -5.059 m 0 -0.004" style="fill:#000;fill-opacity:1;stroke:none;fill-rule:nonzero"/>
     </g>
    </g>
   </g>
  </g>
 </g>
 <g transform="translate(-4.2564068e-4,0)">
  <g>
   <!-- color: #eda63c -->
   <g>
    <path d="m 18.418 34.543 c 0 0.582 -0.793 1.059 -1.773 1.059 -0.98 0 -1.773 -0.477 -1.773 -1.059 0 -0.586 0.793 -1.059 1.773 -1.059 0.98 0 1.773 0.473 1.773 1.059 m 0 0" style="fill:#2d2d2d;fill-opacity:1;stroke:none;fill-rule:nonzero"/>
    <path d="m 34.402 34.578 c 0 0.586 -0.793 1.059 -1.773 1.059 -0.977 0 -1.77 -0.473 -1.77 -1.059 0 -0.582 0.793 -1.055 1.77 -1.055 0.98 0 1.773 0.473 1.773 1.055 m 0 0" style="fill:#2d2d2d;fill-opacity:1;stroke:none;fill-rule:nonzero"/>
    <path d="m 23.629 25.449 c -0.078 0 -0.141 0.063 -0.141 0.141 l 0 1.258 c 0 0.078 0.063 0.141 0.141 0.141 l 1.258 0 c 0.078 0 0.141 -0.063 0.141 -0.141 l 0 -1.258 c 0 -0.078 -0.063 -0.141 -0.141 -0.141 m -1.254 0.008 1.246 0 c 0.078 0 0.137 0.063 0.137 0.137 l 0 1.246 c 0 0.078 -0.059 0.137 -0.137 0.137 l -1.246 0 c -0.074 0 -0.137 -0.059 -0.137 -0.137 l 0 -1.246 c 0 -0.074 0.063 -0.137 0.137 -0.137 m 0 0" style="fill:#fcf;fill-opacity:0.051;stroke:none;fill-rule:nonzero"/>
    <path d="m 23.633 25.457 c -0.074 0 -0.137 0.063 -0.137 0.137 l 0 1.246 c 0 0.078 0.063 0.137 0.137 0.137 l 1.246 0 c 0.078 0 0.137 -0.059 0.137 -0.137 l 0 -1.246 c 0 -0.074 -0.059 -0.137 -0.137 -0.137 m -1.238 0.008 1.23 0 c 0.078 0 0.137 0.063 0.137 0.137 l 0 1.23 c 0 0.078 -0.059 0.137 -0.137 0.137 l -1.23 0 c -0.074 0 -0.137 -0.059 -0.137 -0.137 l 0 -1.23 c 0 -0.074 0.063 -0.137 0.137 -0.137 m 0 0" style="fill:#fcf;fill-opacity:0.102;stroke:none;fill-rule:nonzero"/>
    <path d="m 23.641 25.465 c -0.074 0 -0.137 0.063 -0.137 0.137 l 0 1.23 c 0 0.078 0.063 0.137 0.137 0.137 l 1.23 0 c 0.078 0 0.137 -0.059 0.137 -0.137 l 0 -1.23 c 0 -0.074 -0.059 -0.137 -0.137 -0.137 m -1.227 0.004 1.227 0 c 0.074 0 0.133 0.063 0.133 0.137 l 0 1.223 c 0 0.078 -0.059 0.137 -0.133 0.137 l -1.227 0 c -0.074 0 -0.137 -0.059 -0.137 -0.137 l 0 -1.223 c 0 -0.074 0.063 -0.137 0.137 -0.137 m 0 0" style="fill:#fcf;fill-opacity:0.2;stroke:none;fill-rule:nonzero"/>
    <path d="m 23.645 25.469 c -0.074 0 -0.137 0.063 -0.137 0.137 l 0 1.223 c 0 0.078 0.063 0.137 0.137 0.137 l 1.227 0 c 0.074 0 0.133 -0.059 0.133 -0.137 l 0 -1.223 c 0 -0.074 -0.059 -0.137 -0.133 -0.137 m -1.223 0.004 1.219 0 c 0.074 0 0.133 0.063 0.133 0.137 l 0 1.219 c 0 0.074 -0.059 0.133 -0.133 0.133 l -1.219 0 c -0.074 0 -0.137 -0.059 -0.137 -0.133 l 0 -1.219 c 0 -0.074 0.063 -0.137 0.137 -0.137 m 0 0" style="fill:#fcf;fill-opacity:0.302;stroke:none;fill-rule:nonzero"/>
    <path d="m 23.648 25.473 c -0.074 0 -0.137 0.063 -0.137 0.137 l 0 1.219 c 0 0.074 0.063 0.133 0.137 0.133 l 1.219 0 c 0.074 0 0.133 -0.059 0.133 -0.133 l 0 -1.219 c 0 -0.074 -0.059 -0.137 -0.133 -0.137 m -1.215 0.004 1.211 0 c 0.074 0 0.133 0.063 0.133 0.137 l 0 1.211 c 0 0.074 -0.059 0.133 -0.133 0.133 l -1.211 0 c -0.074 0 -0.137 -0.059 -0.137 -0.133 l 0 -1.211 c 0 -0.074 0.063 -0.137 0.137 -0.137 m 0 0" style="fill:#fcf;fill-opacity:0.4;stroke:none;fill-rule:nonzero"/>
    <path d="m 23.652 25.477 1.211 0 c 0.074 0 0.133 0.063 0.133 0.137 l 0 1.211 c 0 0.074 -0.059 0.133 -0.133 0.133 l -1.211 0 c -0.074 0 -0.137 -0.059 -0.137 -0.133 l 0 -1.211 c 0 -0.074 0.063 -0.137 0.137 -0.137 m 0 0" style="fill:#fcf;fill-opacity:0.502;stroke:none;fill-rule:nonzero"/>
    <path d="m 23.656 25.48 1.203 0 c 0.074 0 0.133 0.063 0.133 0.137 l 0 1.203 c 0 0.074 -0.059 0.133 -0.133 0.133 l -1.203 0 c -0.074 0 -0.137 -0.059 -0.137 -0.133 l 0 -1.203 c 0 -0.074 0.063 -0.137 0.137 -0.137 m 0 0" style="fill:#fcf;fill-opacity:1;stroke:none;fill-rule:nonzero"/>
    <path d="m 24.586,12 c -0.762,0 -1.484,0.156 -2.145,0.438 l 0.742,1.043 c 0,0 1.379,-0.703 2.652,0 l 0.871,-1.055 C 26.054,12.153 25.339,12 24.589,12 m -0.004,0" style="fill:#2d2d2d;fill-opacity:1;stroke:none;fill-rule:nonzero"/>
    <path d="M 24.16,35.992 C 22.355,35.976 13.844,35.387 12.777,32.16 c -0.238,-0.711 -0.867,-1 -0.746,-1.563 l 4.387,-8.656 c 0.203,-0.316 0.539,-0.52 1.039,-0.578 l 13.773,0 c 0.543,0.023 1.074,0.078 1.422,0.617 l 4.387,8.309 c 0.25,0.938 -0.578,2.074 -1.516,3.117 -0.992,1.109 -6.762,2.719 -11.363,2.586 m 0,0" style="fill:#b2b9c5;fill-opacity:1;stroke:none;fill-rule:nonzero"/>
    <path d="M 24.18,35.31 C 20.223,35.083 11.442,33.255 12.024,30.595 l 4.387,-8.656 c 0.203,-0.316 0.539,-0.516 1.039,-0.578 l 13.773,0 c 0.543,0.023 1.074,0.078 1.422,0.617 l 4.387,8.309 c 0.914,3.402 -9.102,4.934 -12.852,5.02 m 0,0" style="fill:#ecf2f4;fill-opacity:1;stroke:none;fill-rule:nonzero"/>
    <path d="M 24.801,33.867 C 20.844,33.64 16.887,33.426 12.028,30.597 l 4.387,-8.656 c 0.203,-0.316 0.539,-0.516 1.039,-0.578 l 13.773,0 c 0.543,0.023 1.074,0.078 1.422,0.617 l 4.387,8.309 c -4.656,3.125 -8.484,3.48 -12.234,3.578 m 0,0" style="fill:#c6cfdb;fill-opacity:1;stroke:none;fill-rule:nonzero"/>
    <path d="m 27.566 25.895 c 0 0.82 -1.316 1.484 -2.941 1.484 -1.629 0 -2.945 -0.664 -2.945 -1.484 0 -0.82 1.316 -1.484 2.945 -1.484 1.625 0 2.941 0.664 2.941 1.484 m 0 0" style="fill:#b2b9c5;fill-opacity:1;stroke:none;fill-rule:nonzero"/>
    <path d="m 22.395 22.301 0.352 1.359 0.652 0.324 0.027 0.219 c -0.609 0.207 -0.816 0.469 -0.801 0.762 0.016 0.508 0.191 0.453 0.313 0.602 l 0 0.898 3.211 0.039 -0.027 -0.883 c 0.363 -0.09 0.41 -0.348 0.395 -0.641 0.016 -0.344 -0.191 -0.621 -0.762 -0.789 l -0.016 -0.23 0.68 -0.34 0.301 -1.617 -4.273 -0.234 m -0.051 0.531" style="fill:#606262;fill-opacity:1;stroke:none;fill-rule:nonzero"/>
    <path d="m 22.617 30.699 0 -1.082 5.113 0.078 0.004 1 c 0.094 1.27 -1.297 2.32 -2.531 2.273 -1.148 0.047 -2.613 -0.672 -2.586 -2.273 m 0 0.004" style="fill:#b22d2f;fill-opacity:1;stroke:none;fill-rule:nonzero"/>
    <path d="m 27.715 29.707 c 0 1.258 -1.141 2.277 -2.547 2.277 -1.41 0 -2.551 -1.02 -2.551 -2.277 0 -1.254 1.141 -2.273 2.551 -2.273 1.406 0 2.547 1.02 2.547 2.273 m 0 0" style="fill:#d04c51;fill-opacity:1;stroke:none;fill-rule:nonzero"/>
    <path d="m 27.902 29.19 0 1.168 c 0.031 1.203 1.57 1.605 2.172 1.605 1.238 0 2.176 -0.902 2.176 -1.813 l 0 -0.973 m -4.348 0.004" style="fill:#b22d2f;fill-opacity:1;stroke:none;fill-rule:nonzero"/>
    <path d="m 32.25 29.27 c 0 1.098 -0.973 1.984 -2.172 1.984 -1.203 0 -2.176 -0.887 -2.176 -1.984 0 -1.094 0.973 -1.98 2.176 -1.98 1.199 0 2.172 0.887 2.172 1.98 m 0 0" style="fill:#d04c51;fill-opacity:1;stroke:none;fill-rule:nonzero"/>
    <path d="m 26.746 12.246 -0.871 1.055 c -1.273 -0.699 -2.652 0 -2.652 0 l -0.742 -1.043 c -1.961 0.836 -3.336 2.781 -3.336 5.05 0 3.03 2.453 5.48 5.484 5.48 3.03 0 5.48 -2.453 5.48 -5.48 0 -2.277 -1.387 -4.23 -3.363 -5.059 m 0 -0.004" style="fill:#d04c51;fill-opacity:1;stroke:none;fill-rule:nonzero"/>
   </g>
  </g>
 </g>
 <g>
  <path d="m 40.03 7.531 c 3.712 4.084 5.969 9.514 5.969 15.469 0 12.703 -10.297 23 -23 23 c -5.954 0 -11.384 -2.256 -15.469 -5.969 4.178 4.291 10.01 6.969 16.469 6.969 c 12.703 0 23 -10.298 23 -23 0 -6.462 -2.677 -12.291 -6.969 -16.469 z" style="opacity:0.1"/>
 </g>
</svg>
