<svg version="1.1" viewBox="0 0 48 48" xmlns="http://www.w3.org/2000/svg">
 <defs>
  <linearGradient id="bg" x2="0" y1="1" y2="47" gradientUnits="userSpaceOnUse">
   <stop style="stop-color:#365955" offset="0"/>
   <stop style="stop-color:#2e4c49" offset="1"/>
  </linearGradient>
 </defs>
 <path d="m36.31 5c5.859 4.062 9.688 10.831 9.688 18.5 0 12.426-10.07 22.5-22.5 22.5-7.669 0-14.438-3.828-18.5-9.688 1.037 1.822 2.306 3.499 3.781 4.969 4.085 3.712 9.514 5.969 15.469 5.969 12.703 0 23-10.298 23-23 0-5.954-2.256-11.384-5.969-15.469-1.469-1.475-3.147-2.744-4.969-3.781zm4.969 3.781c3.854 4.113 6.219 9.637 6.219 15.719 0 12.703-10.297 23-23 23-6.081 0-11.606-2.364-15.719-6.219 4.16 4.144 9.883 6.719 16.219 6.719 12.703 0 23-10.298 23-23 0-6.335-2.575-12.06-6.719-16.219z" style="opacity:.05"/>
 <path d="m41.28 8.781c3.712 4.085 5.969 9.514 5.969 15.469 0 12.703-10.297 23-23 23-5.954 0-11.384-2.256-15.469-5.969 4.113 3.854 9.637 6.219 15.719 6.219 12.703 0 23-10.298 23-23 0-6.081-2.364-11.606-6.219-15.719z" style="opacity:.1"/>
 <path d="m31.25 2.375c8.615 3.154 14.75 11.417 14.75 21.13 0 12.426-10.07 22.5-22.5 22.5-9.708 0-17.971-6.135-21.12-14.75a23 23 0 0 0 44.875-7 23 23 0 0 0-16-21.875z" style="opacity:.2"/>
 <circle cx="24" cy="24" r="23" style="fill:url(#bg)"/>
 <path d="m40.03 7.531c3.712 4.084 5.969 9.514 5.969 15.469 0 12.703-10.297 23-23 23-5.954 0-11.384-2.256-15.469-5.969 4.178 4.291 10.01 6.969 16.469 6.969 12.703 0 23-10.298 23-23 0-6.462-2.677-12.291-6.969-16.469z" style="opacity:.1"/>
 <path d="m17 14c-3 0-5 2-5 4 0 1.3 1 2 2 2s2-0.5 2-1.5-1-1.5-1-1.5c2 0 3 3 3 3-0.89442 0.29814-2 0.48192-2 2 0 1.4462 1 2 2 2 0.20058 0 0.38984-0.02044 0.57031-0.05664 0.026574 0.75811-0.57031 1.0566-0.57031 1.0566s2 1 2 3l1.2969-0.64844 1.4863 2.2969-2.7832 3.3516c-0.89443 0.44721-1 2-1 2l2 1 2 2s0.61017 1 2 1c1.4915 0 2-1 2-1l2-2 2-1s-0.10557-1.5528-1-2l-2-1-0.7832-2.3516c0.61538-0.6626 1.1651-1.4904 1.4863-2.2969l1.2969 0.64844c0-2 2-3 2-3s-0.59689-0.29853-0.57031-1.0566c0.18047 0.036199 0.36973 0.056641 0.57031 0.056641 1 0 2-0.5538 2-2 0-1.5181-1.1056-1.7019-2-2 0 0 1-3 3-3 0 0-1 0.5-1 1.5s1 1.5 2 1.5 2-0.7 2-2c0-2-2-4-5-4l-8 2s-1-2-2-2z" style="opacity:.1"/>
 <path d="m19 12c-2 0-2 2-2 2l7 4 7-4s0-2-2-2c-1 0-2 1-2 1h-1c-1 0-2 2-2 2s-1-2-2-2h-1s-1-1-2-1z" style="fill:#399d8e"/>
 <path d="m16 13c-3 0-5 2-5 4 0 1.3 1 2 2 2s2-0.5 2-1.5-1-1.5-1-1.5c2 0 3 3 3 3h2l4-3c-2-2-4-3-7-3zm16 0c-3 0-5 1-7 3l4 3h2s1-3 3-3c0 0-1 0.5-1 1.5s1 1.5 2 1.5 2-0.7 2-2c0-2-2-4-5-4zm-10 15-1 3-2 1c-0.89443 0.44721-1 2-1 2l2 1 2 2s0.61017 1 2 1c1.4915 0 2-1 2-1l2-2 2-1s-0.10557-1.5528-1-2l-2-1-1-3h-4z" style="fill:#58bcab"/>
 <path d="m23 17-6 2c-0.89442 0.29814-2 0.48192-2 2 0 1.4462 1 2 2 2 2 0 3-2 3-2l3-4zm2 0 3 4s1 2 3 2c1 0 2-0.5538 2-2 0-1.5181-1.1056-1.7019-2-2l-6-2z" style="fill:#78e3d2"/>
 <path d="m15.5 20 3.5 3-2.0002 1 2.0002 1-2e-4 2 2-1 2e-4 -5h-2zm17 0-3.5 1h-2l2e-4 5 2 1-2e-4 -2 2.0002-1-2.0002-1z" style="fill:#34d5bb"/>
 <path d="m15.5 20c3.5099 3 1.5 4 1.5 4l3-1h1l-1-1-4.5-2zm1.5 4s2 1 2 3l2-3h-4zm15.5-4-4.5 2-1 1h1l3 1s-2.0099-1 1.5-4zm-1.5 4h-4l2 3c0-2 2-3 2-3z" style="fill:#37aa95"/>
 <path d="m24 30c1.5 0 4-3 4-5 0-3 0-7-4-7s-4 4-4 7c0 2 2.5 5 4 5z" style="fill:#84e6d5"/>
 <path d="m21 21c-0.4714 0-1 1-1 1 0 1 0 2 1.5 2 0.5 0 1.5 0 1.5-1s-1-2-2-2zm6 0c-1 0-2 1-2 2s1 1 1.5 1c1.5 0 1.5-1 1.5-2 0 0-0.5286-1-1-1zm-4 4v0.5s0.62732 0.5 1 0.5 1-0.5 1-0.5v-0.5s-0.65641 0.25-1 0.25-1-0.25-1-0.25zm0 1.5-0.5 1 0.94336 0.5h1.2402l0.81641-0.5-0.5-1-1 0.25z" style="fill:#3dc1ab"/>
 <path d="m21 22c-0.4714 0-1 1-1 1h3s-1-1-2-1zm6 0c-1 0-2 1-2 1h3s-0.5286-1-1-1zm-3 5-1.5 0.5h3z" style="fill:#1f9a87"/>
 <path d="m23 16c-1 0-1.5866 0.37983-2 1-2 3-2 4-2 4l1 1v3s1-5 4-6c3 1 4 6 4 6v-3l1-1s0-1-2-4c-0.41345-0.62017-1-1-2-1-0.4714 0-1 0.5-1 0.5s-0.5286-0.5-1-0.5z" style="fill:#b3efe6"/>
</svg>
