<svg version="1.1" viewBox="0 0 48 48" xmlns="http://www.w3.org/2000/svg">
 <defs>
  <linearGradient id="bg" x1="1" x2="47" gradientTransform="matrix(0 -1 1 0 -1.5e-6 48)" gradientUnits="userSpaceOnUse">
   <stop style="stop-color:#424242" offset="0"/>
   <stop style="stop-color:#4c4c4c" offset="1"/>
  </linearGradient>
 </defs>
 <path d="m36.3 5c5.86 4.06 9.69 10.8 9.69 18.5 0 12.4-10.1 22.5-22.5 22.5-7.67 0-14.4-3.83-18.5-9.69 1.04 1.82 2.31 3.5 3.78 4.97 4.08 3.71 9.51 5.97 15.5 5.97 12.7 0 23-10.3 23-23 0-5.95-2.26-11.4-5.97-15.5-1.47-1.48-3.15-2.74-4.97-3.78zm4.97 3.78c3.85 4.11 6.22 9.64 6.22 15.7 0 12.7-10.3 23-23 23-6.08 0-11.6-2.36-15.7-6.22 4.16 4.14 9.88 6.72 16.2 6.72 12.7 0 23-10.3 23-23 0-6.34-2.58-12.1-6.72-16.2z" style="opacity:.05"/>
 <path d="m41.3 8.78c3.71 4.08 5.97 9.51 5.97 15.5 0 12.7-10.3 23-23 23-5.95 0-11.4-2.26-15.5-5.97 4.11 3.85 9.64 6.22 15.7 6.22 12.7 0 23-10.3 23-23 0-6.08-2.36-11.6-6.22-15.7z" style="opacity:.1"/>
 <path d="m31.2 2.38c8.62 3.15 14.8 11.4 14.8 21.1 0 12.4-10.1 22.5-22.5 22.5-9.71 0-18-6.14-21.1-14.8a23 23 0 0 0 44.9-7 23 23 0 0 0-16-21.9z" style="opacity:.2"/>
 <path d="m24 1c12.7 0 23 10.3 23 23s-10.3 23-23 23-23-10.3-23-23 10.3-23 23-23z" style="fill:url(#bg)"/>
 <path d="m26.5 13c-1.38 0-2.5 1.12-2.5 2.5s1.12 2.5 2.5 2.5c1.38 0 2.5-1.12 2.5-2.5s-1.12-2.5-2.5-2.5zm-2.1 0.0449c-1.4-0.045-2.81 1.26-2.38 2.77l-3.05 4.64c-0.125 0.277-0.328 0.523 0 1.06l2.45 5.2-0.371 2.58-3.82 3.86c-0.316 0.297-0.289 0.574 0 0.871l2.45 2.58c0.367 0.258 0.707 0.273 1.07-0.0898l-2.68-2.77 3.05-2.58c-0.281 0.992-0.711 1.75-0.77 2.74-0.094 0.492 1.19 1.86 1.74 2.71 0.59 0.215 0.975 0.0978 1.27-0.156-0.676-0.934-2.15-2.46-2.01-2.8-0.16-0.172 1.27-1.6 1.91-2.4l2.31 0.0352c0.473 0.777 1.48 2.25 1.41 2.37 0.203 0.246-1.23 1.82-1.84 2.74 0.301 0.32 0.672 0.295 1.04 0.154 0.648-0.949 2-2.26 1.94-2.83 0.273-0.527-0.699-1.3-1.04-1.96l2.31 1.81-1.71 3.02c0.172 0.172-0.027 0.484 0.875 0.402l2.21-3.21-3.35-3.82 0.301-2.21 4.29-4.2-1.17-6.66c0.023-0.305 0.129-0.535 0.434-0.621v-2.02c-0.828-0.277-1.35-0.844-2.48-0.84 0.688 0.613 1.34 1.34 1.57 1.87-0.227 1.18-0.613 1.95-1.07 2.55-0.789 0.082-1.41 0.168-1.77 0.25 0.883 0.18 1.82 0.762 2.58 0.344l0.602 4.76-2.55 2.49c0.375-1.92 1-3.27 1.24-5.32-0.531 0.668-1.39 1.66-1.39 1.66l-4-1s-0.421-2.05-1-3c-1.04 2.36-0.704 4.47-1.21 6.79l-2.01-3.7 2.75-3.83c1.04 1.16 2.25 1.11 3.25 0.879-0.711-0.195-1.64-0.465-2.08-0.879-0.223-1.01-0.533-1.5-0.732-2.49 0.32-0.496 0.658-1 1.44-1.71l-2e-3 -0.0059zm0.465 10.9h2e-3c0.101-0.0195 0.194-0.0119 0.299 0 0.813 0.105 1.24 1.31 0.938 2.71-0.301 1.4-1.19 2.44-2.01 2.34-0.813-0.102-1.23-1.32-0.938-2.71 0.266-1.22 0.987-2.18 1.71-2.34z" style="opacity:.1"/>
 <path d="m25.5 12c-1.38 0-2.7 1.02-2.7 2.4 0 1.38 1.32 2.6 2.7 2.6 1.38 0 2.5-1.12 2.5-2.5s-1.12-2.5-2.5-2.5zm-2.1 0.0449c-1.4-0.0449-2.81 1.26-2.38 2.77l-3.05 4.64c-0.125 0.277-0.328 0.523 0 1.06l2.45 5.2-0.371 2.58-3.82 3.86c-0.316 0.297-0.289 0.574 0 0.871l2.45 2.58c0.367 0.258 0.707 0.273 1.07-0.0898l-2.68-2.77 3.05-2.58c-0.281 0.992-0.711 1.75-0.77 2.74-0.094 0.492 1.19 1.86 1.74 2.71 0.59 0.215 0.975 0.0978 1.27-0.156-0.676-0.934-2.15-2.46-2.01-2.8-0.16-0.172 1.27-1.6 1.91-2.4l2.31 0.0352c0.473 0.777 1.48 2.25 1.41 2.37 0.203 0.246-1.23 1.82-1.84 2.74 0.301 0.32 0.672 0.297 1.04 0.156 0.648-0.949 2-2.26 1.94-2.83 0.273-0.527-0.699-1.3-1.04-1.96l2.31 1.8-1.71 3.02c0.172 0.172-0.027 0.484 0.875 0.402l2.21-3.21-3.35-3.82 0.301-2.21 4.29-4.2-1.17-6.66c0.023-0.305 0.129-0.535 0.434-0.621v-2.02c-0.828-0.277-1.35-0.844-2.48-0.84 0.688 0.613 1.34 1.34 1.57 1.87-0.227 1.18-0.613 1.95-1.07 2.55-0.789 0.082-1.41 0.168-1.77 0.25 0.883 0.18 1.82 0.762 2.58 0.344l0.602 4.76-2.55 2.49c0.375-1.92 1-3.27 1.24-5.32-0.531 0.668-1.39 1.66-1.39 1.66l-4-1s-0.421-2.05-1-3c-1.04 2.36-0.704 4.47-1.21 6.79l-2.01-3.7 2.75-3.83c1.04 1.16 2.05 1.02 3.05 0.781-0.711-0.195-1.44-0.367-1.88-0.781-0.223-1.01-0.535-1.5-0.734-2.49 0.32-0.496 0.66-1 1.44-1.71zm0.466 10.9h2e-3c0.101-0.0195 0.194-0.0119 0.299 0 0.813 0.105 1.24 1.32 0.938 2.71-0.301 1.4-1.19 2.43-2.01 2.34-0.813-0.102-1.23-1.32-0.938-2.71 0.266-1.22 0.987-2.18 1.71-2.34z" style="fill:#f9f9f9"/>
 <path d="m40 7.53c3.71 4.08 5.97 9.51 5.97 15.5 0 12.7-10.3 23-23 23-5.95 0-11.4-2.26-15.5-5.97 4.18 4.29 10 6.97 16.5 6.97 12.7 0 23-10.3 23-23 0-6.46-2.68-12.3-6.97-16.5z" style="opacity:.1"/>
</svg>
