<svg xmlns="http://www.w3.org/2000/svg" viewBox="0 0 48 48">
 <defs>
  <linearGradient id="linearGradient4288" x1="1" x2="47" gradientUnits="userSpaceOnUse" gradientTransform="matrix(0,-1,1,0,0,48)">
   <stop style="stop-color:#0b4d15;stop-opacity:1"/>
   <stop offset="1" style="stop-color:#0d5f1a;stop-opacity:1"/>
  </linearGradient>
 </defs>
 <g>
  <path d="m 36.31 5 c 5.859 4.062 9.688 10.831 9.688 18.5 c 0 12.426 -10.07 22.5 -22.5 22.5 c -7.669 0 -14.438 -3.828 -18.5 -9.688 c 1.037 1.822 2.306 3.499 3.781 4.969 c 4.085 3.712 9.514 5.969 15.469 5.969 c 12.703 0 23 -10.298 23 -23 c 0 -5.954 -2.256 -11.384 -5.969 -15.469 c -1.469 -1.475 -3.147 -2.744 -4.969 -3.781 z m 4.969 3.781 c 3.854 4.113 6.219 9.637 6.219 15.719 c 0 12.703 -10.297 23 -23 23 c -6.081 0 -11.606 -2.364 -15.719 -6.219 c 4.16 4.144 9.883 6.719 16.219 6.719 c 12.703 0 23 -10.298 23 -23 c 0 -6.335 -2.575 -12.06 -6.719 -16.219 z" style="opacity:0.05"/>
  <path d="m 41.28 8.781 c 3.712 4.085 5.969 9.514 5.969 15.469 c 0 12.703 -10.297 23 -23 23 c -5.954 0 -11.384 -2.256 -15.469 -5.969 c 4.113 3.854 9.637 6.219 15.719 6.219 c 12.703 0 23 -10.298 23 -23 c 0 -6.081 -2.364 -11.606 -6.219 -15.719 z" style="opacity:0.1"/>
  <path d="m 31.25 2.375 c 8.615 3.154 14.75 11.417 14.75 21.13 c 0 12.426 -10.07 22.5 -22.5 22.5 c -9.708 0 -17.971 -6.135 -21.12 -14.75 a 23 23 0 0 0 44.875 -7 a 23 23 0 0 0 -16 -21.875 z" style="opacity:0.2"/>
 </g>
 <path d="M 1,24 C 1,11.297 11.297,1 24,1 36.703,1 47,11.297 47,24 47,36.703 36.703,47 24,47 11.297,47 1,36.703 1,24 Z" style="fill:url(#linearGradient4288);fill-opacity:1"/>
 <path d="m 20 1.354 c -0.336 0.059 -0.669 0.124 -1 0.197 l 0 22.449 -10 0 0 -17.428 c -0.342 0.295 -0.676 0.598 -1 0.912 l 0 16.516 -7 0 c 0 0.335 0.011 0.668 0.025 1 l 13.975 0 0 13 -9.244 0 c 0.262 0.341 0.535 0.674 0.816 1 l 8.428 0 l 1 0 0 -14 3 0 0 21.449 c 0.331 0.073 0.664 0.138 1 0.197 l 0 -21.646 l 8 0 0 21.646 c 0.336 -0.059 0.669 -0.124 1 -0.197 l 0 -21.449 l 3 0 0 14 1 0 8.428 0 c 0.281 -0.326 0.554 -0.659 0.816 -1 l -9.244 0 0 -13 13.975 0 c 0.014 -0.332 0.025 -0.665 0.025 -1 l -7 0 0 -16.516 c -0.324 -0.314 -0.658 -0.617 -1 -0.912 l 0 17.428 -10 0 l 0 -22.449 c -0.331 -0.073 -0.664 -0.138 -1 -0.197 l 0 22.646 -8 0 0 -22.646" style="fill:#fff;opacity:0.1;fill-opacity:1"/>
 <g>
  <path d="m 40.03 7.531 c 3.712 4.084 5.969 9.514 5.969 15.469 0 12.703 -10.297 23 -23 23 c -5.954 0 -11.384 -2.256 -15.469 -5.969 4.178 4.291 10.01 6.969 16.469 6.969 c 12.703 0 23 -10.298 23 -23 0 -6.462 -2.677 -12.291 -6.969 -16.469 z" style="opacity:0.1"/>
 </g>
 <path d="M 24 11 A 13 13 0 0 0 11 24 A 13 13 0 0 0 24 37 A 13 13 0 0 0 37 24 A 13 13 0 0 0 24 11 z M 24 14 A 10 10 0 0 1 34 24 A 10 10 0 0 1 24 34 A 10 10 0 0 1 14 24 A 10 10 0 0 1 24 14 z" style="fill:#d5e692;opacity:1;fill-opacity:1;stroke:none;fill-rule:nonzero"/>
 <path d="m 19.269 11.152 c -3.674 1.518 -6.595 4.433 -8.121 8.104 l 1.867 0.734 a 13 13 0 0 0 -1.016 5.01 a 13 13 0 0 0 13 13 13 13 0 0 0 13 -13 13 13 0 0 0 -13 -13 13 13 0 0 0 -5.02 1.01 l -0.715 -1.855 m 5.73 3.848 a 10 10 0 0 1 10 10 10 10 0 0 1 -10 10 10 10 0 0 1 -10 -10 10 10 0 0 1 10 -10 z m 0 1 a 9 9 0 0 0 -9 9 9 9 0 0 0 9 9 9 9 0 0 0 9 -9 9 9 0 0 0 -9 -9 z m -5 3 10 0 0 1 -2 0 0 10 2 0 0 1 -10 0 0 -1 2 0 0 -10 -2 0 0 -1 z m 4 1 0 10 2 0 0 -10 -2 0 z" style="fill:#000;opacity:0.1;fill-opacity:1;stroke:none;fill-rule:nonzero"/>
 <path d="m 18.27 10.152 c -3.674 1.518 -6.595 4.433 -8.121 8.104 l 4.564 1.797 c 1.323 -3.181 2.025 -4.299 5.209 -5.615 z" style="fill:#daf27a;opacity:1;fill-opacity:1;stroke:none;fill-rule:nonzero"/>
 <path d="M 24 15 A 9 9 0 0 0 15 24 A 9 9 0 0 0 24 33 A 9 9 0 0 0 33 24 A 9 9 0 0 0 24 15 z M 19 18 L 29 18 L 29 19 L 27 19 L 27 29 L 29 29 L 29 30 L 19 30 L 19 29 L 21 29 L 21 19 L 19 19 L 19 18 z M 23 19 L 23 29 L 25 29 L 25 19 L 23 19 z" style="fill:#daf27a;opacity:1;fill-opacity:1;stroke:none;fill-rule:nonzero"/>
 <path d="M 24 11 A 13 13 0 0 0 11 24 A 13 13 0 0 0 24 37 A 13 13 0 0 0 37 24 A 13 13 0 0 0 24 11 z M 24 14 A 10 10 0 0 1 34 24 A 10 10 0 0 1 24 34 A 10 10 0 0 1 14 24 A 10 10 0 0 1 24 14 z" style="fill:#daf27a;opacity:1;fill-opacity:1;stroke:none;fill-rule:nonzero"/>
</svg>
