<svg version="1.1" viewBox="0 0 48 48" xmlns="http://www.w3.org/2000/svg" xmlns:xlink="http://www.w3.org/1999/xlink">
 <defs>
  <linearGradient id="bg" x1="1" x2="47" gradientUnits="userSpaceOnUse">
   <stop style="stop-color:#dc9c89" offset="0"/>
   <stop style="stop-color:#e1aa99" offset="1"/>
  </linearGradient>
  <linearGradient id="linearGradient852" x1="1" x2="47" gradientTransform="rotate(-90,24,24)" gradientUnits="userSpaceOnUse" xlink:href="#bg"/>
 </defs>
 <path d="m36.31 5c5.859 4.062 9.688 10.831 9.688 18.5 0 12.426-10.07 22.5-22.5 22.5-7.669 0-14.438-3.828-18.5-9.688 1.037 1.822 2.306 3.499 3.781 4.969 4.085 3.712 9.514 5.969 15.469 5.969 12.703 0 23-10.298 23-23 0-5.954-2.256-11.384-5.969-15.469-1.469-1.475-3.147-2.744-4.969-3.781zm4.969 3.781c3.854 4.113 6.219 9.637 6.219 15.719 0 12.703-10.297 23-23 23-6.081 0-11.606-2.364-15.719-6.219 4.16 4.144 9.883 6.719 16.219 6.719 12.703 0 23-10.298 23-23 0-6.335-2.575-12.06-6.719-16.219z" style="opacity:.05"/>
 <path d="m41.28 8.781c3.712 4.085 5.969 9.514 5.969 15.469 0 12.703-10.297 23-23 23-5.954 0-11.384-2.256-15.469-5.969 4.113 3.854 9.637 6.219 15.719 6.219 12.703 0 23-10.298 23-23 0-6.081-2.364-11.606-6.219-15.719z" style="opacity:.1"/>
 <path d="m31.25 2.375c8.615 3.154 14.75 11.417 14.75 21.13 0 12.426-10.07 22.5-22.5 22.5-9.708 0-17.971-6.135-21.12-14.75a23 23 0 0 0 44.875-7 23 23 0 0 0-16-21.875z" style="opacity:.2"/>
 <g transform="matrix(0,-1,1,0,0,48)" style="fill:url(#bg)">
  <path transform="rotate(90,24,24)" d="m24 1c-12.703 0-23 10.297-23 23 0 2.4878 0.40023 4.881 1.1309 7.125l43.74-0.0059c0.7294-2.2423 1.1289-4.6334 1.1289-7.1191 0-12.703-10.297-23-23-23z" style="fill:url(#linearGradient852)"/>
 </g>
 <path d="m18.249 26.968 14.938 0.938-3.625-16.03-0.281 1.219-0.25-0.5zm18.657-3.494-0.531 0.375 0.438 0.969-1.531 2.313 1.469 0.188 0.875-0.344s-0.148-1.635-0.25-1.813 0.779-0.043 0.906-0.094 0.156-1.121 0.156-1.375-0.563-0.219-0.563-0.219l0.188 0.875-0.438 0.406 0.125-0.5-0.594-0.094-0.313 0.313zm-22.531 0.688s-0.688 0.265-0.688 0.469c0 0.203-0.719 1.281-0.719 1.281s0.07 1.199-0.031 1.25c-0.102 0.051-0.688 0.125-0.688 0.125l0.125-1.969-0.844-0.063-0.75 2.469 1.594 0.438 2.25-1.031-0.406-1.625 0.156-1.344zm25.75 1.094c-0.114-0.102-0.5 1-0.5 1s-0.145-0.558-0.094-0.813c0.051-0.254-0.438 0.529-0.438 0.656s0.375 0.875 0.375 0.875l-0.844 0.375s0.828 0.892 1.031 0.969c0.203 0.076 0.586-0.396 0.688-0.625s0.02-0.978-0.031-1.156-0.131-0.597-0.156-1.156c-3e-3 -0.07-0.015-0.11-0.031-0.125z" style="opacity:.1"/>
 <path d="m37.627 26.339 0.839-0.381s-0.381-0.737-0.381-0.864 0.483-0.915 0.432-0.661 0.102 0.814 0.102 0.814 0.508-1.424 0.534-0.864c0.025 0.559 0.102 0.966 0.153 1.144s0.153 0.941 0.051 1.169c-0.102 0.229-0.483 0.686-0.686 0.61s-1.042-0.966-1.042-0.966z" style="fill:#6e7ea2"/>
 <path d="m34.3 26.14 1.525-2.314-0.458-0.966 0.534-0.381-0.051 0.992 0.305-0.305 0.585 0.076-0.102 0.508 0.432-0.407-0.178-0.864s0.534-0.051 0.534 0.203-0.025 1.322-0.153 1.373c-0.127 0.051-0.992-0.076-0.89 0.102s0.229 1.831 0.229 1.831l-0.864 0.331z" style="fill:#6e7ea2"/>
 <path d="m9.788 26.72 0.737-2.466 0.864 0.051-0.153 1.983s0.61-0.076 0.712-0.127 0.025-1.246 0.025-1.246 0.712-1.093 0.712-1.297c0-0.203 0.686-0.458 0.686-0.458l-0.153 1.347 0.407 1.602-2.237 1.042z" style="fill:#6e7ea2"/>
 <path d="m17.237 25.983 4.02-15.254 1.322 0.559 0.966-0.915s0.712-0.102 0.814 0.153c0.102 0.254 0.508 0.966 0.508 0.966l0.712-0.814 0.61 0.661s0.254 0.61 0.407 0.407 0.559-0.814 0.559-0.814l0.864 0.661 0.254 0.508 0.305-1.22 3.61 16.02z" style="fill:#6e7ea2"/>
 <path d="m23.189 23.5c-12.359 1.016-17.811 5.32-21.059 7.625 0.48831 1.5006 1.1394 2.9242 1.9102 4.2715-0.010016 0.008516 40.459-1.0234 40.459-1.0234 3e-3 0.01116 0.0048 0.02205 0.0078 0.0332 0.53512-1.0515 1.0023-2.1439 1.373-3.2812-5.723-2.938-7.5125-6.731-22.689-7.625z" style="fill:#7b83a8"/>
 <path d="m24.406 28.28c-11.545 0.949-17.05 4.742-20.375 7.125 3.962 6.93 11.414 11.594 19.969 11.594 8.967 0 16.706-5.139 20.5-12.625-4.084-2.6-7.432-5.348-20.09-6.094z" style="fill:#6a708d"/>
 <path d="m40.03 7.531c3.712 4.084 5.969 9.514 5.969 15.469 0 12.703-10.297 23-23 23-5.954 0-11.384-2.256-15.469-5.969 4.178 4.291 10.01 6.969 16.469 6.969 12.703 0 23-10.298 23-23 0-6.462-2.677-12.291-6.969-16.469z" style="opacity:.1"/>
</svg>
