<svg version="1.1" viewBox="0 0 48 48" xmlns="http://www.w3.org/2000/svg">
 <defs>
  <linearGradient id="bg" x2="0" y1="1" y2="47" gradientUnits="userSpaceOnUse">
   <stop style="stop-color:#524361" offset="0"/>
   <stop style="stop-color:#473a54" offset="1"/>
  </linearGradient>
 </defs>
 <path d="m36.3 5c5.86 4.06 9.69 10.8 9.69 18.5 0 12.4-10.1 22.5-22.5 22.5-7.67 0-14.4-3.83-18.5-9.69 1.04 1.82 2.31 3.5 3.78 4.97 4.08 3.71 9.51 5.97 15.5 5.97 12.7 0 23-10.3 23-23 0-5.95-2.26-11.4-5.97-15.5-1.47-1.48-3.15-2.74-4.97-3.78zm4.97 3.78c3.85 4.11 6.22 9.64 6.22 15.7 0 12.7-10.3 23-23 23-6.08 0-11.6-2.36-15.7-6.22 4.16 4.14 9.88 6.72 16.2 6.72 12.7 0 23-10.3 23-23 0-6.34-2.58-12.1-6.72-16.2z" style="opacity:.05"/>
 <path d="m41.3 8.78c3.71 4.08 5.97 9.51 5.97 15.5 0 12.7-10.3 23-23 23-5.95 0-11.4-2.26-15.5-5.97 4.11 3.85 9.64 6.22 15.7 6.22 12.7 0 23-10.3 23-23 0-6.08-2.36-11.6-6.22-15.7z" style="opacity:.1"/>
 <path d="m31.2 2.38c8.62 3.15 14.8 11.4 14.8 21.1 0 12.4-10.1 22.5-22.5 22.5-9.71 0-18-6.14-21.1-14.8a23 23 0 0 0 44.9-7 23 23 0 0 0-16-21.9z" style="opacity:.2"/>
 <circle cx="24" cy="24" r="23" style="fill:url(#bg)"/>
 <path d="m40 7.53c3.71 4.08 5.97 9.51 5.97 15.5 0 12.7-10.3 23-23 23-5.95 0-11.4-2.26-15.5-5.97 4.18 4.29 10 6.97 16.5 6.97 12.7 0 23-10.3 23-23 0-6.46-2.68-12.3-6.97-16.5z" style="opacity:.1"/>
 <path d="m25 14c-0.555 0.748-1 3.2-9 7 0 7.21 3 8.5 3 8.5s-3.54-3.06-1-6.5c1.7-0.835 7-4.5 7-4.5s5.3 3.66 7 4.5c2.54 3.44-1 6.5-1 6.5s3-1.29 3-8.5c-8-3.8-8.44-6.25-9-7zm0 6c-0.111 0.401-0.776 2.49-6 5 0 4.29 2 5.5 2 5.5s-2.77-2.5 0-4.5c2-1.13 2.61-1.56 4-2.5 1.39 0.936 2 1.37 4 2.5 2.77 2 0 4.5 0 4.5s2-1.21 2-5.5c-5.22-2.51-5.89-4.6-6-5zm-10 3.5c-2.17 1.39-4.33 1.97-6 1.5 1.68 0.914 1.81 2.17 4.5 7l2.5 0.5c-1.55-0.335-3.12-4.06-4-6 1.07-0.333 2.59-1.04 3.5-1.5-0.339-0.621-0.365-0.686-0.5-1.5zm20 0c-0.135 0.814-0.161 0.879-0.5 1.5 0.912 0.462 2.43 1.17 3.5 1.5-0.881 1.94-2.45 5.67-4 6l2.5-0.5c2.69-4.83 2.82-6.09 4.5-7-1.67 0.47-3.83-0.107-6-1.5zm-10 1c-0.236 1.48-2.43 2.69-4 3.5 0 3.32 1.5 4 1.5 4s-1.68-1.24-0.5-3c0.943-0.795 1.3-0.841 3-2 1.7 1.16 2.06 1.2 3 2 1.18 1.76-0.5 3-0.5 3s1.5-0.676 1.5-4c-1.57-0.813-3.76-2.02-4-3.5zm-11.5 2.5c1 0.553 2 3 2.5 4l2 0.5c-1.6-0.496-2.18-2.38-2.5-3.5h1.05c-0.258-0.373-0.353-0.525-0.553-1-0.871 0.281-1.72 0.253-2.5 0zm20.5 0c-0.2 0.475-0.295 0.627-0.553 1h1.05c-0.322 1.12-0.901 3-2.5 3.5l2-0.5c0.499-1 1.5-3.45 2.5-4-0.782 0.253-1.63 0.281-2.5 0z" style="opacity:.1"/>
 <path d="m24 13c-0.555 0.748-1 3.2-9 7 0 7.21 3 8.5 3 8.5s-3.54-3.06-1-6.5c1.7-0.835 7-4.5 7-4.5s5.3 3.66 7 4.5c2.54 3.44-1 6.5-1 6.5s3-1.29 3-8.5c-8-3.8-8.44-6.25-9-7zm-10 9.5c-2.17 1.39-4.33 1.97-6 1.5 1.68 0.914 1.81 2.17 4.5 7l2.5 0.5c-1.55-0.335-3.12-4.06-4-6 1.07-0.333 2.59-1.04 3.5-1.5-0.339-0.621-0.365-0.686-0.5-1.5zm20 0c-0.135 0.814-0.161 0.879-0.5 1.5 0.912 0.462 2.43 1.17 3.5 1.5-0.881 1.94-2.45 5.67-4 6l2.5-0.5c2.69-4.83 2.82-6.09 4.5-7-1.67 0.47-3.83-0.107-6-1.5z" style="fill:#e8b530"/>
 <path d="m24 19c-0.111 0.401-0.776 2.49-6 5 0 4.29 2 5.5 2 5.5s-2.77-2.5 0-4.5c2-1.13 2.61-1.56 4-2.5 1.39 0.936 2 1.37 4 2.5 2.77 2 0 4.5 0 4.5s2-1.21 2-5.5c-5.22-2.51-5.89-4.6-6-5zm0 4.5c-0.236 1.48-2.43 2.69-4 3.5 0 3.32 1.5 4 1.5 4s-1.68-1.24-0.5-3c0.943-0.795 1.3-0.841 3-2 1.7 1.16 2.06 1.2 3 2 1.18 1.76-0.5 3-0.5 3s1.5-0.676 1.5-4c-1.57-0.813-3.76-2.02-4-3.5zm-11.5 2.5c1 0.553 2 3 2.5 4l2 0.5c-1.6-0.496-2.18-2.38-2.5-3.5h1.05c-0.258-0.373-0.353-0.525-0.553-1-0.871 0.281-1.72 0.253-2.5 0zm20.5 0c-0.2 0.475-0.295 0.627-0.553 1h1.05c-0.322 1.12-0.901 3-2.5 3.5l2-0.5c0.499-1 1.5-3.45 2.5-4-0.782 0.253-1.63 0.281-2.5 0z" style="fill:#fafafa"/>
</svg>
