<svg version="1.1" viewBox="0 0 48 48" xmlns="http://www.w3.org/2000/svg">
 <defs>
  <linearGradient id="linearGradient3020" x1="24.2" x2="24" y1="47.2" y2="1" gradientUnits="userSpaceOnUse">
   <stop style="stop-color:#504f76" offset="0"/>
   <stop style="stop-color:#595883" offset="1"/>
  </linearGradient>
 </defs>
 <path d="m36.3 5c5.86 4.06 9.69 10.8 9.69 18.5 0 12.4-10.1 22.5-22.5 22.5-7.67 0-14.4-3.83-18.5-9.69 1.04 1.82 2.31 3.5 3.78 4.97 4.08 3.71 9.51 5.97 15.5 5.97 12.7 0 23-10.3 23-23 0-5.95-2.26-11.4-5.97-15.5-1.47-1.48-3.15-2.74-4.97-3.78zm4.97 3.78c3.85 4.11 6.22 9.64 6.22 15.7 0 12.7-10.3 23-23 23-6.08 0-11.6-2.36-15.7-6.22 4.16 4.14 9.88 6.72 16.2 6.72 12.7 0 23-10.3 23-23 0-6.34-2.58-12.1-6.72-16.2z" style="opacity:.05"/>
 <path d="m41.3 8.78c3.71 4.08 5.97 9.51 5.97 15.5 0 12.7-10.3 23-23 23-5.95 0-11.4-2.26-15.5-5.97 4.11 3.85 9.64 6.22 15.7 6.22 12.7 0 23-10.3 23-23 0-6.08-2.36-11.6-6.22-15.7z" style="opacity:.1"/>
 <path d="m31.2 2.38c8.62 3.15 14.8 11.4 14.8 21.1 0 12.4-10.1 22.5-22.5 22.5-9.71 0-18-6.14-21.1-14.8a23 23 0 0 0 44.9-7 23 23 0 0 0-16-21.9z" style="opacity:.2"/>
 <path d="m24 1c12.7 0 23 10.3 23 23s-10.3 23-23 23-23-10.3-23-23 10.3-23 23-23z" style="fill:url(#linearGradient3020)"/>
 <path d="m40 7.53c3.71 4.08 5.97 9.51 5.97 15.5 0 12.7-10.3 23-23 23-5.95 0-11.4-2.26-15.5-5.97 4.18 4.29 10 6.97 16.5 6.97 12.7 0 23-10.3 23-23 0-6.46-2.68-12.3-6.97-16.5z" style="opacity:.1"/>
 <path d="m35.2 25c-1 7-2 12-10 12s-9-5-10-12c-1-7 1-11 10-11s11 4 10 11z" style="opacity:.1"/>
 <path d="m34.2 24c-1 7-2 12-10 12s-9-5-10-12c-1-7 1-11 10-11s11 4 10 11z" style="fill:#8c8c8c"/>
 <path d="m24.2 13c-9 0-11 4-10 11 0.736 5.16 2 10 5 11s-1-17 10-21c1.33-0.483-2.57-1-5-1z" style="fill:#ccc"/>
 <path d="m14.2 19c0-1 20-1 20 0 0 4.01-0.834 9.47-1.59 12.1-0.827 2.9-15.9 2.79-16.9-0.084-0.968-3.02-1.55-7.98-1.55-12" style="fill:#87aade"/>
 <path d="m34.2 19s-18-2-20 0c0 11 1.81 12.5 1.81 12.5s1.77-6.44 4.19-8.45c3.73-3.11 14-4 14-4z" style="fill:#d5f6ff"/>
 <path d="m16.2 32s10 3 16 0c2-4 2-13 2-13s-0.971 8.54-4 11c-3.66 2.97-14 2-14 2z" style="fill:#3771c8"/>
</svg>
