<svg version="1.1" viewBox="0 0 48 48" xmlns="http://www.w3.org/2000/svg">
 <defs>
  <linearGradient id="bg" x2="0" y1="1" y2="47" gradientUnits="userSpaceOnUse">
   <stop style="stop-color:#954232" offset="0"/>
   <stop style="stop-color:#863c2d" offset="1"/>
  </linearGradient>
 </defs>
 <path d="m36.31 5c5.859 4.062 9.688 10.831 9.688 18.5 0 12.426-10.07 22.5-22.5 22.5-7.669 0-14.438-3.828-18.5-9.688 1.037 1.822 2.306 3.499 3.781 4.969 4.085 3.712 9.514 5.969 15.469 5.969 12.703 0 23-10.298 23-23 0-5.954-2.256-11.384-5.969-15.469-1.469-1.475-3.147-2.744-4.969-3.781zm4.969 3.781c3.854 4.113 6.219 9.637 6.219 15.719 0 12.703-10.297 23-23 23-6.081 0-11.606-2.364-15.719-6.219 4.16 4.144 9.883 6.719 16.219 6.719 12.703 0 23-10.298 23-23 0-6.335-2.575-12.06-6.719-16.219z" style="opacity:.05"/>
 <path d="m41.28 8.781c3.712 4.085 5.969 9.514 5.969 15.469 0 12.703-10.297 23-23 23-5.954 0-11.384-2.256-15.469-5.969 4.113 3.854 9.637 6.219 15.719 6.219 12.703 0 23-10.298 23-23 0-6.081-2.364-11.606-6.219-15.719z" style="opacity:.1"/>
 <path d="m31.25 2.375c8.615 3.154 14.75 11.417 14.75 21.13 0 12.426-10.07 22.5-22.5 22.5-9.708 0-17.971-6.135-21.12-14.75a23 23 0 0 0 44.875-7 23 23 0 0 0-16-21.875z" style="opacity:.2"/>
 <circle cx="24" cy="24" r="23" style="fill:url(#bg)"/>
 <rect x="13" y="13" width="22" height="22" style="fill:#762323"/>
 <path d="m40.03 7.531c3.712 4.084 5.969 9.514 5.969 15.469 0 12.703-10.297 23-23 23-5.954 0-11.384-2.256-15.469-5.969 4.178 4.291 10.01 6.969 16.469 6.969 12.703 0 23-10.298 23-23 0-6.462-2.677-12.291-6.969-16.469z" style="opacity:.1"/>
 <path d="m13 13v24h24v-24zm1 1h22v22h-22zm2 2 1 1v12l-1 1h10l1-3-2 1h-6v-11l1-1zm13 3c-4.4183 0-8 3.0817-8 7.5 0 0.16994 0.01495 0.33412 0.02539 0.5h2c-0.01368-0.16532-0.02539-0.33115-0.02539-0.5 0-3.3137 2.6863-6 6-6 2.0111 4.9e-5 3.8884 1.0076 5 2.6836v-1.6836c-1-1.4493-3.1823-2.4998-5-2.5zm5 10.818c-1.112 1.6752-2.9893 2.682-5 2.6816-1.5193 0-2.9019-0.56908-3.959-1.5h-2.5254c1.4529 1.8679 3.8126 3 6.4844 3 1.8177-2.43e-4 4-0.93753 5-2.5z" style="opacity:.098"/>
 <path d="m12 12v24h24v-24h-24zm1 1h22v22h-22v-22zm2 2 1 1v12l-1 1h10l1-3-2 1h-6v-11l1-1h-4zm13 3c-4.4183 0-8 3.0817-8 7.5 0 0.16994 0.01495 0.33412 0.025391 0.5h2c-0.013677-0.16532-0.025391-0.33115-0.025391-0.5 0-3.3137 2.6863-6 6-6 2.0111 4.9e-5 3.8884 1.0076 5 2.6836v-1.6836c-1-1.4493-3.1823-2.4998-5-2.5zm5 10.818c-1.112 1.6752-2.9893 2.682-5 2.6816-1.5193 0-2.9019-0.56908-3.959-1.5h-2.5254c1.4529 1.8679 3.8126 3 6.4844 3 1.8177-2.43e-4 4-0.93753 5-2.5v-1.6816z" style="fill:#ffe033"/>
</svg>
