<svg version="1.1" viewBox="0 0 48 48" xmlns="http://www.w3.org/2000/svg">
 <defs>
  <linearGradient id="bg" x1="1" x2="47" gradientTransform="matrix(0 -1 1 0 -1.5e-6 48)" gradientUnits="userSpaceOnUse">
   <stop style="stop-color:#cbd7e2" offset="0"/>
   <stop style="stop-color:#d8e1e9" offset="1"/>
  </linearGradient>
 </defs>
 <path d="m36.31 5c5.859 4.062 9.688 10.831 9.688 18.5 0 12.426-10.07 22.5-22.5 22.5-7.669 0-14.438-3.828-18.5-9.688 1.037 1.822 2.306 3.499 3.781 4.969 4.085 3.712 9.514 5.969 15.469 5.969 12.703 0 23-10.298 23-23 0-5.954-2.256-11.384-5.969-15.469-1.469-1.475-3.147-2.744-4.969-3.781zm4.969 3.781c3.854 4.113 6.219 9.637 6.219 15.719 0 12.703-10.297 23-23 23-6.081 0-11.606-2.364-15.719-6.219 4.16 4.144 9.883 6.719 16.219 6.719 12.703 0 23-10.298 23-23 0-6.335-2.575-12.06-6.719-16.219z" style="opacity:.05"/>
 <path d="m41.28 8.781c3.712 4.085 5.969 9.514 5.969 15.469 0 12.703-10.297 23-23 23-5.954 0-11.384-2.256-15.469-5.969 4.113 3.854 9.637 6.219 15.719 6.219 12.703 0 23-10.298 23-23 0-6.081-2.364-11.606-6.219-15.719z" style="opacity:.1"/>
 <path d="m31.25 2.375c8.615 3.154 14.75 11.417 14.75 21.13 0 12.426-10.07 22.5-22.5 22.5-9.708 0-17.971-6.135-21.12-14.75a23 23 0 0 0 44.875-7 23 23 0 0 0-16-21.875z" style="opacity:.2"/>
 <path d="m24 1c12.703 0 23 10.297 23 23s-10.297 23-23 23-23-10.297-23-23 10.297-23 23-23z" style="fill:url(#bg)"/>
 <path d="m40.03 7.531c3.712 4.084 5.969 9.514 5.969 15.469 0 12.703-10.297 23-23 23-5.954 0-11.384-2.256-15.469-5.969 4.178 4.291 10.01 6.969 16.469 6.969 12.703 0 23-10.298 23-23 0-6.462-2.677-12.291-6.969-16.469z" style="opacity:.1"/>
 <path d="m25 14c-4.9706 0-9 4.0294-9 9 0.0054 1.3892 0.33228 2.7582 0.95508 4h-0.95508c-1.662 0-3 1.338-3 3s1.338 3 3 3h1v1c0 1.662 1.338 3 3 3s3-1.338 3-3v-2h4v2c0 1.662 1.338 3 3 3s3-1.338 3-3v-1h1c1.662 0 3-1.338 3-3s-1.338-3-3-3h-0.95508c0.6228-1.2418 0.94969-2.6108 0.95508-4 0-4.9706-4.0294-9-9-9z" style="opacity:.1"/>
 <path d="m24 13c-4.9706 0-9.0042 4.0294-9 9 0.0012 1.3892 0.33228 2.7582 0.95508 4h-0.95508c-1.662 0-3 1.338-3 3s1.338 3 3 3h1v1c0 1.662 1.338 3 3 3s3-1.338 3-3v-2h4v2c0 1.662 1.338 3 3 3s3-1.338 3-3v-1h1c1.662 0 3-1.338 3-3s-1.338-3-3-3h-0.95508c0.6228-1.2418 0.9539-2.6108 0.95508-4 0.0042-4.9706-4.0294-9-9-9z" style="fill:#474747"/>
 <path d="m24 15a7 7 0 0 0-7 7 7 7 0 0 0 7 7 7 7 0 0 0 7-7 7 7 0 0 0-7-7zm0 1a6 6 0 0 1 6 6 6 6 0 0 1-6 6 6 6 0 0 1-6-6 6 6 0 0 1 6-6zm0 4c-0.554 0-1 0.446-1 1v2c0 0.554 0.446 1 1 1s1-0.446 1-1v-2c0-0.554-0.446-1-1-1zm-2.1719 5c-0.29932 0-0.59877 0.1144-0.82812 0.34375l-0.7168 0.7168c0.59655 0.54617 1.3146 0.96177 2.1094 1.2031l0.26367-0.26367c0.4587-0.4587 0.4587-1.1975 0-1.6562-0.22935-0.22935-0.52881-0.34375-0.82812-0.34375zm4.3438 0c-0.29932 0-0.59877 0.1144-0.82812 0.34375-0.4587 0.4587-0.4587 1.1975 0 1.6562l0.26367 0.26367c0.79475-0.24136 1.5128-0.65696 2.1094-1.2031l-0.7168-0.7168c-0.22935-0.22935-0.52881-0.34375-0.82812-0.34375zm-7.1504 2.6035c-0.07239 0.36928 0.0351 0.76557 0.32227 1.0527 0.40614 0.40614 1.0318 0.45174 1.4883 0.13867-0.66095-0.30943-1.2713-0.71188-1.8105-1.1914zm9.957 0c-0.53924 0.47953-1.1496 0.88198-1.8105 1.1914 0.45647 0.31307 1.0821 0.26747 1.4883-0.13867 0.28716-0.28716 0.39465-0.68345 0.32227-1.0527zm-13.979 0.39648c-0.554 0-1 0.446-1 1s0.446 1 1 1h2c0.554 0 1-0.446 1-1s-0.446-1-1-1zm16 0c-0.554 0-1 0.446-1 1s0.446 1 1 1h2c0.554 0 1-0.446 1-1s-0.446-1-1-1zm-12 2c-0.554 0-1 0.446-1 1v2c0 0.554 0.446 1 1 1s1-0.446 1-1v-2c0-0.554-0.446-1-1-1zm10 0c-0.554 0-1 0.446-1 1v2c0 0.554 0.446 1 1 1s1-0.446 1-1v-2c0-0.554-0.446-1-1-1z" style="fill:#f9f9f9"/>
</svg>
