<svg version="1.1" viewBox="0 0 48 48" xmlns="http://www.w3.org/2000/svg">
 <defs>
  <linearGradient id="bg" x2="0" y1="1" y2="47" gradientUnits="userSpaceOnUse">
   <stop style="stop-color:#474747" offset="0"/>
   <stop style="stop-color:#3d3d3d" offset="1"/>
  </linearGradient>
 </defs>
 <path d="m36.31 5c5.859 4.062 9.688 10.831 9.688 18.5 0 12.426-10.07 22.5-22.5 22.5-7.669 0-14.438-3.828-18.5-9.688 1.037 1.822 2.306 3.499 3.781 4.969 4.085 3.712 9.514 5.969 15.469 5.969 12.703 0 23-10.298 23-23 0-5.954-2.256-11.384-5.969-15.469-1.469-1.475-3.147-2.744-4.969-3.781zm4.969 3.781c3.854 4.113 6.219 9.637 6.219 15.719 0 12.703-10.297 23-23 23-6.081 0-11.606-2.364-15.719-6.219 4.16 4.144 9.883 6.719 16.219 6.719 12.703 0 23-10.298 23-23 0-6.335-2.575-12.06-6.719-16.219z" style="opacity:.05"/>
 <path d="m41.28 8.781c3.712 4.085 5.969 9.514 5.969 15.469 0 12.703-10.297 23-23 23-5.954 0-11.384-2.256-15.469-5.969 4.113 3.854 9.637 6.219 15.719 6.219 12.703 0 23-10.298 23-23 0-6.081-2.364-11.606-6.219-15.719z" style="opacity:.1"/>
 <path d="m31.25 2.375c8.615 3.154 14.75 11.417 14.75 21.13 0 12.426-10.07 22.5-22.5 22.5-9.708 0-17.971-6.135-21.12-14.75a23 23 0 0 0 44.875-7 23 23 0 0 0-16-21.875z" style="opacity:.2"/>
 <circle cx="24" cy="24" r="23" style="fill:url(#bg)"/>
 <path d="m40.03 7.531c3.712 4.084 5.969 9.514 5.969 15.469 0 12.703-10.297 23-23 23-5.954 0-11.384-2.256-15.469-5.969 4.178 4.291 10.01 6.969 16.469 6.969 12.703 0 23-10.298 23-23 0-6.462-2.677-12.291-6.969-16.469z" style="opacity:.1"/>
 <path d="m29 18h7a1 1 0 1 1 0.50386 0.86824l-3.5039 6.1318 3.5039 6.1318a1 1 0 1 1-0.50386 0.86824h-7l-3.5039 6.1318a1 1 0 1 1-0.99228 0l-3.5039-6.1318h-7a1 1 0 1 1-0.50386-0.86824l3.5039-6.1318-3.5039-6.1318a1 1 0 1 1 0.50386-0.86824h7l3.5039-6.1318a1 1 0 1 1 0.99228 0zm-4 5a2 2 0 0 0 0 4 2 2 0 0 0 0-4z" style="opacity:.1"/>
 <g style="fill:#eee">
  <circle cx="12" cy="17" r="1"/>
  <circle cx="12" cy="31" r="1"/>
  <circle cx="24" cy="10" r="1"/>
  <circle cx="24" cy="38" r="1"/>
  <circle cx="36" cy="31" r="1"/>
  <circle cx="36" cy="17" r="1"/>
  <path d="m24 10 4 7h8l-4 7 4 7h-8l-4 7-4-7h-8l4-7-4-7h8zm0 11a2 2 0 0 0 0 6 2 2 0 0 0 0-6z"/>
 </g>
 <path d="m24.688 19.827c0.23775 0.43368 0.73007-0.57383 0.94799-0.20092 0.21792 0.37291 0.27304 1.1655 0.77362 1.3622 0.50058 0.19667 0.7797-0.31794 1.1999-0.25126s0.2658 0.49498 0.076744 1.0613-0.28691 0.85816 0.071752 1.1243 1.1469 0.08183 1.6068-0.019941 0.72078-0.20546 0.79125 0.043021c0.070464 0.24849-0.801 0.35623-0.90325 0.7573s-0.8951 0.34659-1.0602 0.8838c-0.29796 0.89529-0.20664 1.1299 0.40445 1.7039 0.6111 0.57402 0.10248 0.46193 0.15088 0.89165 0.048399 0.42972-0.4966 0.96902-0.59012 0.47675s-0.75025-1.1894-0.95727-0.99797c-0.20702 0.19144-0.07961 0.73662-0.33146 1.0629s0.081586 1.6051-0.16411 1.6685c-0.24569 0.063406-0.38479-0.7972-0.63001-1.0123-0.24522-0.21506-0.25084-0.57132-0.59736-0.57426s-0.69144 0.36089-0.88829 0.63708-0.13519 0.6355-0.37331 0.91209c-0.23812 0.27659-0.20401 1.2052-0.42596 1.2292-0.22195 0.024017-0.47509-0.35414-0.59783-0.73172s-0.087463-0.89171-0.2399-1.1467-0.82435 0.26743-0.90327-0.16892-0.039966-1.0905-0.55076-1.2017c-0.51079-0.11115-0.38295-0.40282-0.73416-0.48296-0.35122-0.080147-0.52115-0.28849-0.5779-0.49327-0.056746-0.20477-0.20834-0.3659-0.39384-0.35172-0.1855 0.014182-1.1109 0.49946-1.4153 0.64541s-0.80146 0.25814-0.83444-0.058578c-0.03298-0.31672 0.59444-0.8187 0.96869-1.0259 0.37425-0.20721 1.4937-0.52303 1.5449-0.93456s-0.25744-1.2741-0.75753-1.3931-1.2745 0.08272-1.3168-0.23864c-0.042286-0.32136-0.63991-0.3848-0.59742-0.65318s2.0758 0.08997 2.4114 0.073636-0.1101-0.52005 0.031363-0.76472c0.14146-0.24467 0.20156-0.19862 0.36608-0.43566s-0.13707-0.95485-0.048291-1.206 0.45298-0.084179 1.2211 0.49109 0.6814-0.39582 1.0775-0.47029 0.21014-0.27688 0.73162-0.43502 0.66223-2.4743 1.1018-2.3611c0.43961 0.11324 0.17313 2.1525 0.41088 2.5862zm-0.68827 2.1728c-2.6667 0-2.6667 4 0 4s2.6667-4 0-4z" style="fill:#d71e1e"/>
</svg>
