<svg version="1.1" viewBox="0 0 48 48" xmlns="http://www.w3.org/2000/svg">
 <defs>
  <linearGradient id="bg" x2="0" y1="1" y2="47" gradientUnits="userSpaceOnUse">
   <stop style="stop-color:#7b7cad" offset="0"/>
   <stop style="stop-color:#6f70a5" offset="1"/>
  </linearGradient>
 </defs>
 <path d="m36.31 5c5.859 4.062 9.688 10.831 9.688 18.5 0 12.426-10.07 22.5-22.5 22.5-7.669 0-14.438-3.828-18.5-9.688 1.037 1.822 2.306 3.499 3.781 4.969 4.085 3.712 9.514 5.969 15.469 5.969 12.703 0 23-10.298 23-23 0-5.954-2.256-11.384-5.969-15.469-1.469-1.475-3.147-2.744-4.969-3.781zm4.969 3.781c3.854 4.113 6.219 9.637 6.219 15.719 0 12.703-10.297 23-23 23-6.081 0-11.606-2.364-15.719-6.219 4.16 4.144 9.883 6.719 16.219 6.719 12.703 0 23-10.298 23-23 0-6.335-2.575-12.06-6.719-16.219z" style="opacity:.05"/>
 <path d="m41.28 8.781c3.712 4.085 5.969 9.514 5.969 15.469 0 12.703-10.297 23-23 23-5.954 0-11.384-2.256-15.469-5.969 4.113 3.854 9.637 6.219 15.719 6.219 12.703 0 23-10.298 23-23 0-6.081-2.364-11.606-6.219-15.719z" style="opacity:.1"/>
 <path d="m31.25 2.375c8.615 3.154 14.75 11.417 14.75 21.13 0 12.426-10.07 22.5-22.5 22.5-9.708 0-17.971-6.135-21.12-14.75a23 23 0 0 0 44.875-7 23 23 0 0 0-16-21.875z" style="opacity:.2"/>
 <circle cx="24" cy="24" r="23" style="fill:url(#bg)"/>
 <path d="m22 16c-4.2371 0-5.5397 4.1129-5.8574 5.4277l-2.1426-0.42773-2 1v8l1 0.33398v1.666c0 0.554 0.446 1 1 1h2c0.554 0 1-0.446 1-1v-2l1 1 3 1h8l3-1 1-1v2c0 0.554 0.446 1 1 1h2c0.554 0 1-0.446 1-1v-1.666l1-0.33398v-8l-2-1-2.1426 0.42773c-0.31777-1.3148-1.6203-5.4277-5.8574-5.4277z" style="opacity:.1"/>
 <path d="m40.03 7.531c3.712 4.084 5.969 9.514 5.969 15.469 0 12.703-10.297 23-23 23-5.954 0-11.384-2.256-15.469-5.969 4.178 4.291 10.01 6.969 16.469 6.969 12.703 0 23-10.298 23-23 0-6.462-2.677-12.291-6.969-16.469z" style="opacity:.1"/>
 <rect x="12" y="24" width="4" height="8" ry="1" style="fill:#333;paint-order:stroke fill markers"/>
 <rect x="32" y="24" width="4" height="8" ry="1" style="fill:#333;paint-order:stroke fill markers"/>
 <path d="m15 21s1-6 6-6h6c5 0 6 6 6 6z" style="fill:#2d2d2d"/>
 <path d="m13 20-2 1v8l3 1 1-1h1l1 1 3 1h8l3-1 1-1h1l1 1 3-1v-8l-2-1-5 1-6-1-6 1z" style="fill:#ebf5f5"/>
 <path d="m13 22v3l4 2v2l3 1h8l3-1v-2l4-2v-3l-4 1h-14z" style="fill:#2d2d2d"/>
 <path d="m12 26v2.5l1 0.5v-1h2v-1z" style="fill:#4d4d4d"/>
 <path d="m36 26v2.5l-1 0.5v-1h-2v-1z" style="fill:#4d4d4d"/>
 <path d="m14 23v2l3 1v-2zm20 0-3 1v2l3-1z" style="fill:#f9f9f9"/>
 <path d="m18 28 2 1h8l2-1v-3h-12z" style="fill:#4d4d4d"/>
 <path d="m17 24v2l2-1h2l1 1h4l1-1h2l2 1v-2h-9z" style="fill:#3ba9ff;paint-order:stroke fill markers"/>
</svg>
