<?xml version="1.0" encoding="UTF-8"?>
<svg version="1.1" viewBox="0 0 48 48" xmlns="http://www.w3.org/2000/svg">
 <defs>
  <linearGradient id="bg" x2="0" y1="47" y2="1" gradientUnits="userSpaceOnUse">
   <stop style="stop-color:#35627d" offset="0"/>
   <stop style="stop-color:#3d6e8a" offset="1"/>
  </linearGradient>
 </defs>
 <path d="m36.3 5c5.86 4.06 9.69 10.8 9.69 18.5 0 12.4-10.1 22.5-22.5 22.5-7.67 0-14.4-3.83-18.5-9.69 1.04 1.82 2.31 3.5 3.78 4.97 4.08 3.71 9.51 5.97 15.5 5.97 12.7 0 23-10.3 23-23 0-5.95-2.26-11.4-5.97-15.5-1.47-1.48-3.15-2.74-4.97-3.78zm4.97 3.78c3.85 4.11 6.22 9.64 6.22 15.7 0 12.7-10.3 23-23 23-6.08 0-11.6-2.36-15.7-6.22 4.16 4.14 9.88 6.72 16.2 6.72 12.7 0 23-10.3 23-23 0-6.34-2.58-12.1-6.72-16.2z" style="opacity:.05"/>
 <path d="m41.3 8.78c3.71 4.08 5.97 9.51 5.97 15.5 0 12.7-10.3 23-23 23-5.95 0-11.4-2.26-15.5-5.97 4.11 3.85 9.64 6.22 15.7 6.22 12.7 0 23-10.3 23-23 0-6.08-2.36-11.6-6.22-15.7z" style="opacity:.1"/>
 <path d="m31.2 2.38c8.62 3.15 14.8 11.4 14.8 21.1 0 12.4-10.1 22.5-22.5 22.5-9.71 0-18-6.14-21.1-14.8a23 23 0 0 0 44.9-7 23 23 0 0 0-16-21.9z" style="opacity:.2"/>
 <circle cx="24" cy="24" r="23" style="fill:url(#bg)"/>
 <path d="m40 7.53c3.71 4.08 5.97 9.51 5.97 15.5 0 12.7-10.3 23-23 23-5.95 0-11.4-2.26-15.5-5.97 4.18 4.29 10 6.97 16.5 6.97 12.7 0 23-10.3 23-23 0-6.46-2.68-12.3-6.97-16.5z" style="opacity:.1"/>
 <path d="m23 40s1-1 2-1 2 1 2 1c6 0 13-7 13-13 0 0-1-1-1-2s1-2 1-2c0-6-7-13-13-13 0 0-1 1-2 1-16 3.44-19.8 28.1-2 29z" style="opacity:.1"/>
 <path d="m38 26c0 5.6-6.4 12-12 12 0 0-1.07-1-2-1s-2 1-2 1c-5.6 0-12-6.4-12-12 0 0 1-1.07 1-2s-1-2-1-2c0-5.6 6.4-12 12-12 0 0 1.07 1 2 1s2-1 2-1c5.6 0 12 6.4 12 12 0 0-1 1.3-1 2s1 2 1 2z" style="fill:#44515a"/>
 <path d="m23 19v2h2c0.811 3.03-4.28 7.57-5.5 9.5l2.5 1.5 2.5-4v-1l2.5-4h1l4.99e-4 1 1.3 0.8 1.7-2.8-1.4-0.8-0.9-0.6-2.7-1.6z" style="opacity:.1"/>
 <path d="m22 9c-6 0-13 7-13 13 0 0 1 1 1 2s-1 2-1 2c0 6 7 13 13 13 0 0 1-1 2-1s2 1 2 1c6 0 13-7 13-13 0 0-1-1-1-2s1-2 1-2c0-6-7-13-13-13 0 0-1 1-2 1s-2-1-2-1zm0 1s1 1 2 1 2-1 2-1c5.6 0 12 6.4 12 12 0 0-1 1-1 2s1 2 1 2c0 5.6-6.4 12-12 12 0 0-1.07-1-2-1s-2 1-2 1c-5.6 0-12-6.4-12-12 0 0 1-1 1-2s-1-2-1-2c0-5.6 6.4-12 12-12zm0 8v2h2l0.5 1-2.5 4-1 0.5-2.5 4 2.5 1.5 2.5-4v-1l2.5-4h1v1l1.3 0.801 1.7-2.8-1.4-0.801-0.9 0.4v-1l-2.7-1.6h-3z" style="fill:#f3f3f3"/>
</svg>
