<svg xmlns="http://www.w3.org/2000/svg" viewBox="0 0 48 48">
 <defs>
  <linearGradient id="linearGradient3823" x1="1" x2="47" gradientUnits="userSpaceOnUse">
   <stop style="stop-color:#dc9c89;stop-opacity:1"/>
   <stop offset="1" style="stop-color:#e1aa99;stop-opacity:1"/>
  </linearGradient>
 </defs>
 <g>
  <path d="m 36.31 5 c 5.859 4.062 9.688 10.831 9.688 18.5 c 0 12.426 -10.07 22.5 -22.5 22.5 c -7.669 0 -14.438 -3.828 -18.5 -9.688 c 1.037 1.822 2.306 3.499 3.781 4.969 c 4.085 3.712 9.514 5.969 15.469 5.969 c 12.703 0 23 -10.298 23 -23 c 0 -5.954 -2.256 -11.384 -5.969 -15.469 c -1.469 -1.475 -3.147 -2.744 -4.969 -3.781 z m 4.969 3.781 c 3.854 4.113 6.219 9.637 6.219 15.719 c 0 12.703 -10.297 23 -23 23 c -6.081 0 -11.606 -2.364 -15.719 -6.219 c 4.16 4.144 9.883 6.719 16.219 6.719 c 12.703 0 23 -10.298 23 -23 c 0 -6.335 -2.575 -12.06 -6.719 -16.219 z" style="opacity:0.05"/>
  <path d="m 41.28 8.781 c 3.712 4.085 5.969 9.514 5.969 15.469 c 0 12.703 -10.297 23 -23 23 c -5.954 0 -11.384 -2.256 -15.469 -5.969 c 4.113 3.854 9.637 6.219 15.719 6.219 c 12.703 0 23 -10.298 23 -23 c 0 -6.081 -2.364 -11.606 -6.219 -15.719 z" style="opacity:0.1"/>
  <path d="m 31.25 2.375 c 8.615 3.154 14.75 11.417 14.75 21.13 c 0 12.426 -10.07 22.5 -22.5 22.5 c -9.708 0 -17.971 -6.135 -21.12 -14.75 a 23 23 0 0 0 44.875 -7 a 23 23 0 0 0 -16 -21.875 z" style="opacity:0.2"/>
 </g>
 <g transform="matrix(0,-1,1,0,0,48)" style="fill:url(#linearGradient3823);fill-opacity:1">
  <path d="M 24,1 C 36.703,1 47,11.297 47,24 47,36.703 36.703,47 24,47 11.297,47 1,36.703 1,24 1,11.297 11.297,1 24,1 z"/>
 </g>
 <path d="m 24.906 11.344 c -0.191 -0.006 -0.375 0.031 -0.375 0.031 l -0.969 0.906 -1.313 -0.563 -4 15.25 14.938 0.938 -3.625 -16.03 -0.281 1.219 -0.25 -0.5 -0.875 -0.656 c 0 0 -0.41 0.609 -0.563 0.813 -0.153 0.203 -0.406 -0.406 -0.406 -0.406 l -0.625 -0.656 -0.688 0.813 c 0 0 -0.43 -0.715 -0.531 -0.969 -0.051 -0.127 -0.247 -0.181 -0.438 -0.188 z m 12 12.13 -0.531 0.375 0.438 0.969 -1.531 2.313 1.469 0.188 0.875 -0.344 c 0 0 -0.148 -1.635 -0.25 -1.813 -0.102 -0.178 0.779 -0.043 0.906 -0.094 0.127 -0.051 0.156 -1.121 0.156 -1.375 0 -0.254 -0.563 -0.219 -0.563 -0.219 l 0.188 0.875 -0.438 0.406 0.125 -0.5 -0.594 -0.094 -0.313 0.313 0.063 -1 z m -22.531 0.688 c 0 0 -0.688 0.265 -0.688 0.469 0 0.203 -0.719 1.281 -0.719 1.281 0 0 0.07 1.199 -0.031 1.25 -0.102 0.051 -0.688 0.125 -0.688 0.125 l 0.125 -1.969 -0.844 -0.063 -0.75 2.469 1.594 0.438 2.25 -1.031 -0.406 -1.625 0.156 -1.344 z m 25.75 1.094 c -0.114 -0.102 -0.5 1 -0.5 1 0 0 -0.145 -0.558 -0.094 -0.813 0.051 -0.254 -0.438 0.529 -0.438 0.656 0 0.127 0.375 0.875 0.375 0.875 l -0.844 0.375 c 0 0 0.828 0.892 1.031 0.969 0.203 0.076 0.586 -0.396 0.688 -0.625 0.102 -0.229 0.02 -0.978 -0.031 -1.156 -0.051 -0.178 -0.131 -0.597 -0.156 -1.156 -0.003 -0.07 -0.015 -0.11 -0.031 -0.125 z" style="fill:#000;opacity:0.1;fill-opacity:1;stroke:none"/>
 <path d="m 37.627 26.339 0.839 -0.381 c 0 0 -0.381 -0.737 -0.381 -0.864 0 -0.127 0.483 -0.915 0.432 -0.661 -0.051 0.254 0.102 0.814 0.102 0.814 0 0 0.508 -1.424 0.534 -0.864 0.025 0.559 0.102 0.966 0.153 1.144 0.051 0.178 0.153 0.941 0.051 1.169 -0.102 0.229 -0.483 0.686 -0.686 0.61 -0.203 -0.076 -1.042 -0.966 -1.042 -0.966 z" style="fill:#6e7ea2;fill-opacity:1;stroke:none"/>
 <path d="m 34.3 26.14 1.525 -2.314 -0.458 -0.966 0.534 -0.381 -0.051 0.992 0.305 -0.305 0.585 0.076 -0.102 0.508 0.432 -0.407 -0.178 -0.864 c 0 0 0.534 -0.051 0.534 0.203 0 0.254 -0.025 1.322 -0.153 1.373 -0.127 0.051 -0.992 -0.076 -0.89 0.102 0.102 0.178 0.229 1.831 0.229 1.831 l -0.864 0.331 z" style="fill:#6e7ea2;fill-opacity:1;stroke:none"/>
 <path d="m 9.788 26.72 0.737 -2.466 0.864 0.051 -0.153 1.983 c 0 0 0.61 -0.076 0.712 -0.127 0.102 -0.051 0.025 -1.246 0.025 -1.246 0 0 0.712 -1.093 0.712 -1.297 0 -0.203 0.686 -0.458 0.686 -0.458 l -0.153 1.347 0.407 1.602 -2.237 1.042 z" style="fill:#6e7ea2;fill-opacity:1;stroke:none"/>
 <path d="m 17.237 25.983 4.02 -15.254 1.322 0.559 0.966 -0.915 c 0 0 0.712 -0.102 0.814 0.153 0.102 0.254 0.508 0.966 0.508 0.966 l 0.712 -0.814 0.61 0.661 c 0 0 0.254 0.61 0.407 0.407 0.153 -0.203 0.559 -0.814 0.559 -0.814 l 0.864 0.661 0.254 0.508 0.305 -1.22 3.61 16.02 z" style="fill:#6e7ea2;fill-opacity:1;stroke:none"/>
 <path d="m 23.19 23.5 c -12.359 1.016 -17.812 5.32 -21.06 7.625 c 2.999 9.216 11.658 15.875 21.875 15.875 c 5.899 0 11.273 -2.225 15.344 -5.875 c 0.095 -0.089 0.187 -0.162 0.281 -0.25 c 2.844 -2.635 5.02 -5.977 6.25 -9.75 c -5.723 -2.938 -7.511 -6.731 -22.688 -7.625 z" style="fill:#7b83a8;fill-opacity:1;stroke:none"/>
 <path d="m 24.406 28.28 c -11.545 0.949 -17.05 4.742 -20.375 7.125 c 3.962 6.93 11.414 11.594 19.969 11.594 c 8.967 0 16.706 -5.139 20.5 -12.625 c -4.084 -2.6 -7.432 -5.348 -20.09 -6.094 z" style="fill:#6a708d;fill-opacity:1;stroke:none"/>
 <g>
  <path d="m 40.03 7.531 c 3.712 4.084 5.969 9.514 5.969 15.469 0 12.703 -10.297 23 -23 23 c -5.954 0 -11.384 -2.256 -15.469 -5.969 4.178 4.291 10.01 6.969 16.469 6.969 c 12.703 0 23 -10.298 23 -23 0 -6.462 -2.677 -12.291 -6.969 -16.469 z" style="opacity:0.1"/>
 </g>
</svg>
