<svg xmlns="http://www.w3.org/2000/svg" viewBox="0 0 48 48">
 <defs>
  <linearGradient id="linearGradient3764" x1="1" x2="47" gradientUnits="userSpaceOnUse" gradientTransform="matrix(0,-1,1,0,-1.5e-6,47.999998)">
   <stop style="stop-color:#434343;stop-opacity:1"/>
   <stop offset="1" style="stop-color:#4d4d4d;stop-opacity:1"/>
  </linearGradient>
 </defs>
 <g>
  <path d="m 36.31 5 c 5.859 4.062 9.688 10.831 9.688 18.5 c 0 12.426 -10.07 22.5 -22.5 22.5 c -7.669 0 -14.438 -3.828 -18.5 -9.688 c 1.037 1.822 2.306 3.499 3.781 4.969 c 4.085 3.712 9.514 5.969 15.469 5.969 c 12.703 0 23 -10.298 23 -23 c 0 -5.954 -2.256 -11.384 -5.969 -15.469 c -1.469 -1.475 -3.147 -2.744 -4.969 -3.781 z m 4.969 3.781 c 3.854 4.113 6.219 9.637 6.219 15.719 c 0 12.703 -10.297 23 -23 23 c -6.081 0 -11.606 -2.364 -15.719 -6.219 c 4.16 4.144 9.883 6.719 16.219 6.719 c 12.703 0 23 -10.298 23 -23 c 0 -6.335 -2.575 -12.06 -6.719 -16.219 z" style="opacity:0.05"/>
  <path d="m 41.28 8.781 c 3.712 4.085 5.969 9.514 5.969 15.469 c 0 12.703 -10.297 23 -23 23 c -5.954 0 -11.384 -2.256 -15.469 -5.969 c 4.113 3.854 9.637 6.219 15.719 6.219 c 12.703 0 23 -10.298 23 -23 c 0 -6.081 -2.364 -11.606 -6.219 -15.719 z" style="opacity:0.1"/>
  <path d="m 31.25 2.375 c 8.615 3.154 14.75 11.417 14.75 21.13 c 0 12.426 -10.07 22.5 -22.5 22.5 c -9.708 0 -17.971 -6.135 -21.12 -14.75 a 23 23 0 0 0 44.875 -7 a 23 23 0 0 0 -16 -21.875 z" style="opacity:0.2"/>
 </g>
 <g>
  <path d="m 24 1 c 12.703 0 23 10.297 23 23 c 0 12.703 -10.297 23 -23 23 -12.703 0 -23 -10.297 -23 -23 0 -12.703 10.297 -23 23 -23 z" style="fill:url(#linearGradient3764);fill-opacity:1"/>
  <path d="m 24 1 l -0.01 0.004 l 0.01 0 l 0 -0.004 z m 0 0.004 l 0 45.996 c 0.674 0 1.34 -0.035 2 -0.092 l 0 -8.969 c 0.156 0.055 0.34 0.075 0.594 0.064 c 0.438 -0.02 0.773 -0.191 1.031 -0.531 c 0.086 -0.113 0.855 -1.801 1.719 -3.75 c 1.543 -3.484 1.563 -3.543 1.563 -3.875 c 0 -0.402 -0.113 -0.742 -0.375 -1 c -0.098 -0.098 -1.023 -0.758 -2.063 -1.469 c -1.039 -0.715 -1.922 -1.328 -1.938 -1.375 c -0.02 -0.059 0.43 -0.817 1.281 -2.189 c 0.715 -1.152 1.332 -2.14 1.375 -2.188 c 0.051 -0.066 0.109 -0.066 0.156 -0.031 c 0.039 0.02 0.316 0.586 0.625 1.281 c 0.32 0.719 0.633 1.348 0.719 1.438 c 0.277 0.297 0.406 0.32 2.875 0.625 c 1.809 0.223 2.363 0.285 2.531 0.25 c 0.535 -0.121 0.904 -0.582 0.904 -1.125 c -0.004 -0.598 -0.355 -1.051 -0.938 -1.156 c -0.098 -0.02 -1 -0.129 -1.969 -0.25 c -0.98 -0.121 -1.773 -0.234 -1.781 -0.25 c -0.023 -0.02 -0.41 -0.895 -0.875 -1.938 c -0.469 -1.047 -0.898 -1.945 -0.941 -2 c -0.105 -0.156 -2.476 -1.758 -2.688 -1.816 c -0.23 -0.059 -0.992 -0.195 -1.816 -0.375 l 0 -15.188 c -0.605 -0.052 -1.215 -0.084 -1.832 -0.088 l -0.158 0 z m 7.557 10.994 c -1.164 0 -2.109 0.786 -2.281 1.939 c -0.18 1.203 0.637 2.395 1.816 2.625 c 1.563 0.309 2.98 -1.047 2.75 -2.625 c -0.172 -1.152 -1.113 -1.939 -2.281 -1.939 l -0.004 0 z m -5.563 17.09 c 0.055 0.035 0.078 0.063 0.125 0.094 c 1.176 0.805 1.566 1.108 1.566 1.188 c 0 0.059 -0.547 1.391 -1.25 2.969 c -0.191 0.43 -0.297 0.68 -0.441 1 l 0 -5.25 z" style="fill:#000;fill-opacity:0.098"/>
  <path d="m 24 1 c -0.335 0 -0.668 0.011 -1 0.025 l 0 45.949 c 0.332 0.014 0.665 0.025 1 0.025 c 0.335 0 0.668 -0.011 1 -0.025 l 0 -10.04 c 0.156 0.055 0.34 0.075 0.594 0.064 c 0.438 -0.02 0.773 -0.191 1.031 -0.531 c 0.086 -0.113 0.855 -1.801 1.719 -3.75 c 1.543 -3.484 1.563 -3.543 1.563 -3.875 c 0 -0.402 -0.113 -0.742 -0.375 -1 c -0.098 -0.098 -1.023 -0.758 -2.063 -1.469 c -1.039 -0.715 -1.922 -1.328 -1.938 -1.375 c -0.02 -0.059 0.43 -0.817 1.281 -2.189 c 0.715 -1.152 1.332 -2.14 1.375 -2.188 c 0.051 -0.066 0.109 -0.066 0.156 -0.031 c 0.039 0.02 0.316 0.586 0.625 1.281 c 0.32 0.719 0.633 1.348 0.719 1.438 c 0.277 0.297 0.406 0.32 2.875 0.625 c 1.809 0.223 2.363 0.285 2.531 0.25 c 0.535 -0.121 0.904 -0.582 0.904 -1.125 c -0.004 -0.598 -0.355 -1.051 -0.938 -1.156 c -0.098 -0.02 -1 -0.129 -1.969 -0.25 c -0.98 -0.121 -1.773 -0.234 -1.781 -0.25 c -0.023 -0.02 -0.41 -0.895 -0.875 -1.938 c -0.469 -1.047 -0.898 -1.945 -0.941 -2 c -0.105 -0.156 -2.476 -1.758 -2.688 -1.816 c -0.23 -0.059 -0.992 -0.195 -1.816 -0.375 l 0 -14.254 c -0.329 -0.014 -0.658 -0.025 -0.99 -0.025 z m 6.557 9.998 c -1.164 0 -2.109 0.786 -2.281 1.939 c -0.18 1.203 0.637 2.395 1.816 2.625 c 1.563 0.309 2.98 -1.047 2.75 -2.625 c -0.172 -1.152 -1.113 -1.939 -2.281 -1.939 l -0.004 0 z m -5.563 17.09 c 0.055 0.035 0.078 0.063 0.125 0.094 c 1.176 0.805 1.566 1.108 1.566 1.188 c 0 0.059 -0.547 1.391 -1.25 2.969 c -0.191 0.43 -0.297 0.68 -0.441 1 l 0 -5.25 z" style="fill:#17c0e6;fill-opacity:1"/>
 </g>
 <g>
  <g>
   <g transform="translate(1,1)">
    <g style="opacity:0.1">
     <!-- color: #4d4d4d -->
    </g>
   </g>
  </g>
 </g>
 <g>
  <g>
   <!-- color: #4d4d4d -->
  </g>
 </g>
 <g>
  <path d="m 40.03 7.531 c 3.712 4.084 5.969 9.514 5.969 15.469 0 12.703 -10.297 23 -23 23 c -5.954 0 -11.384 -2.256 -15.469 -5.969 4.178 4.291 10.01 6.969 16.469 6.969 c 12.703 0 23 -10.298 23 -23 0 -6.462 -2.677 -12.291 -6.969 -16.469 z" style="opacity:0.1"/>
 </g>
</svg>
