<svg version="1.1" viewBox="0 0 48 48" xmlns="http://www.w3.org/2000/svg" xmlns:xlink="http://www.w3.org/1999/xlink">
 <defs>
  <linearGradient id="linearGradient925" x2="0" y1="47" y2="1" gradientUnits="userSpaceOnUse">
   <stop style="stop-color:#ecc92a" offset="0"/>
   <stop style="stop-color:#eece3c" offset="1"/>
  </linearGradient>
 </defs>
 <path d="m36.31 5c5.859 4.062 9.688 10.831 9.688 18.5 0 12.426-10.07 22.5-22.5 22.5-7.669 0-14.438-3.828-18.5-9.688 1.037 1.822 2.306 3.499 3.781 4.969 4.085 3.712 9.514 5.969 15.469 5.969 12.703 0 23-10.298 23-23 0-5.954-2.256-11.384-5.969-15.469-1.469-1.475-3.147-2.744-4.969-3.781zm4.969 3.781c3.854 4.113 6.219 9.637 6.219 15.719 0 12.703-10.297 23-23 23-6.081 0-11.606-2.364-15.719-6.219 4.16 4.144 9.883 6.719 16.219 6.719 12.703 0 23-10.298 23-23 0-6.335-2.575-12.06-6.719-16.219z" style="opacity:.05"/>
 <path d="m41.28 8.781c3.712 4.085 5.969 9.514 5.969 15.469 0 12.703-10.297 23-23 23-5.954 0-11.384-2.256-15.469-5.969 4.113 3.854 9.637 6.219 15.719 6.219 12.703 0 23-10.298 23-23 0-6.081-2.364-11.606-6.219-15.719z" style="opacity:.1"/>
 <path d="m31.25 2.375c8.615 3.154 14.75 11.417 14.75 21.13 0 12.426-10.07 22.5-22.5 22.5-9.708 0-17.971-6.135-21.12-14.75a23 23 0 0 0 44.875 -7 23 23 0 0 0 -16 -21.875z" style="opacity:.2"/>
 <path d="m24 1c12.703 0 23 10.297 23 23s-10.297 23-23 23-23-10.297-23-23 10.297-23 23-23z" style="fill:url(#linearGradient925)"/>
 <path d="m19 13c-1.108 0-2 0.892-2 2v2c-0.554 0-1 0.446-1 1h-1c-0.554 0-1 0.446-1 1v4c0 0.554 0.446 1 1 1h1v9 2 1c0 0.554 0.446 1 1 1h1v2h3v-2h8v2h3v-2h1c0.554 0 1-0.446 1-1v-1-2-9h1c0.554 0 1-0.446 1-1v-4c0-0.554-0.446-1-1-1h-1c0-0.554-0.446-1-1-1v-2c0-1.108-0.892-2-2-2h-12z" style="opacity:.1"/>
 <g transform="translate(76.678 -9.7627)"></g>
 <path d="m40.03 7.531c3.712 4.084 5.969 9.514 5.969 15.469 0 12.703-10.297 23-23 23-5.954 0-11.384-2.256-15.469-5.969 4.178 4.291 10.01 6.969 16.469 6.969 12.703 0 23-10.298 23-23 0-6.462-2.677-12.291-6.969-16.469z" style="opacity:.1"/>
 <rect x="16" y="12" width="16" height="6" rx="2" style="fill:#556177"/>
 <rect x="15" y="16" width="18" height="20" rx="1" style="fill:#8793a9"/>
 <path d="m15 34v-2h3v1c0 0.569-0.421 1-1 1z" style="fill:#f9f9f9"/>
 <path d="m33 34v-2h-3v1c0 0.569 0.421 1 1 1z" style="fill:#f9f9f9"/>
 <path d="m18 25v1c0 0.554 0.446 1 1 1h10c0.554 0 1-0.446 1-1v-1h-12z" style="fill:#353535"/>
 <path d="m19 29c0 0.554 0.446 1 1 1h8c0.554 0 1-0.446 1-1v-1h-10z" style="fill:#353535"/>
 <path d="m20 32c0 0.554 0.446 1 1 1h6c0.554 0 1-0.446 1-1v-1h-8z" style="fill:#353535"/>
 <path d="m16 17 1 6h14l1-6z" style="fill:#6b6c73"/>
 <path d="m27 23 2-3h1l-2 3z" style="fill:#353535"/>
 <path d="m19 23 2-3h1l-2 3z" style="fill:#353535"/>
 <path d="m14 17c-0.554 0-1 0.446-1 1v4c0 0.554 0.446 1 1 1h1v-6z" style="fill:#353535"/>
 <rect x="14" y="18" width="1" height="4" style="fill:#838383;opacity:.526"/>
 <path d="m34 17c0.554 0 1 0.446 1 1v4c0 0.554-0.446 1-1 1h-1v-6z" style="fill:#353535"/>
 <rect transform="scale(-1,1)" x="-34" y="18" width="1" height="4" style="fill:#838383;opacity:.526"/>
 <rect x="17" y="36" width="3" height="2" style="fill:#171717"/>
 <rect x="28" y="36" width="3" height="2" style="fill:#171717"/>
 <rect x="22" y="34" width="4" height="1" style="fill:#c3c9d3"/>
 <rect x="22" y="34" width="1" height="1" style="fill:#566bd4"/>
 <g style="fill:#353535">
  <path d="m23.06 34.27h0.151l0.191 0.36v-0.36h0.128v0.525h-0.151l-0.191-0.36v0.36h-0.128v-0.525"/>
  <path d="m23.667 34.27h0.135v0.314c0 0.043 7e-3 0.074 0.021 0.093s0.037 0.028 0.07 0.028c0.032 0 0.056-9e-3 0.07-0.028s0.021-0.05 0.021-0.093v-0.314h0.135v0.314c0 0.074-0.019 0.13-0.056 0.166s-0.094 0.054-0.17 0.054-0.133-0.018-0.17-0.054-0.056-0.092-0.056-0.166v-0.314"/>
  <path d="m24.25 34.27h0.172l0.119 0.281 0.12-0.281h0.172v0.525h-0.128v-0.384l-0.121 0.283h-0.086l-0.121-0.283v0.384h-0.128v-0.525"/>
  <path d="m24.987 34.696h0.119v-0.339l-0.123 0.025v-0.092l0.122-0.025h0.129v0.431h0.119v0.093h-0.367v-0.093"/>
  <path d="m25.761 34.522 0.182 0.268h-0.141l-0.123-0.179-0.122 0.179h-0.142l0.182-0.268-0.175-0.257h0.141l0.115 0.169 0.115-0.169h0.142l-0.175 0.257"/>
 </g>
</svg>
