<svg version="1.1" viewBox="0 0 48 48" xmlns="http://www.w3.org/2000/svg">
 <defs>
  <linearGradient id="bg" x2="0" y1="1" y2="47" gradientUnits="userSpaceOnUse">
   <stop style="stop-color:#c72525" offset="0"/>
   <stop style="stop-color:#b62222" offset="1"/>
  </linearGradient>
 </defs>
 <path d="m36.31 5c5.859 4.062 9.688 10.831 9.688 18.5 0 12.426-10.07 22.5-22.5 22.5-7.669 0-14.438-3.828-18.5-9.688 1.037 1.822 2.306 3.499 3.781 4.969 4.085 3.712 9.514 5.969 15.469 5.969 12.703 0 23-10.298 23-23 0-5.954-2.256-11.384-5.969-15.469-1.469-1.475-3.147-2.744-4.969-3.781zm4.969 3.781c3.854 4.113 6.219 9.637 6.219 15.719 0 12.703-10.297 23-23 23-6.081 0-11.606-2.364-15.719-6.219 4.16 4.144 9.883 6.719 16.219 6.719 12.703 0 23-10.298 23-23 0-6.335-2.575-12.06-6.719-16.219z" style="opacity:.05"/>
 <path d="m41.28 8.781c3.712 4.085 5.969 9.514 5.969 15.469 0 12.703-10.297 23-23 23-5.954 0-11.384-2.256-15.469-5.969 4.113 3.854 9.637 6.219 15.719 6.219 12.703 0 23-10.298 23-23 0-6.081-2.364-11.606-6.219-15.719z" style="opacity:.1"/>
 <path d="m31.25 2.375c8.615 3.154 14.75 11.417 14.75 21.13 0 12.426-10.07 22.5-22.5 22.5-9.708 0-17.971-6.135-21.12-14.75a23 23 0 0 0 44.875-7 23 23 0 0 0-16-21.875z" style="opacity:.2"/>
 <circle cx="24" cy="24" r="23" style="fill:url(#bg)"/>
 <path d="m25 10a15 15 0 0 0-15 15 15 15 0 0 0 11.248 14.504 15 15 0 0 0 3.752 0.49609 15 15 0 0 0 8.3594-2.5605 15 15 0 0 0 6.6406-12.439 15 15 0 0 0-3.377-9.4668l3.377-2.5332-3-2-1.9336 2.9023a15 15 0 0 0-10.066-3.9023z" style="opacity:.1"/>
 <path d="m40.03 7.531c3.712 4.084 5.969 9.514 5.969 15.469 0 12.703-10.297 23-23 23-5.954 0-11.384-2.256-15.469-5.969 4.178 4.291 10.01 6.969 16.469 6.969 12.703 0 23-10.298 23-23 0-6.462-2.677-12.291-6.969-16.469z" style="opacity:.1"/>
 <path d="m24 9a15 15 0 0 0-15 15 15 15 0 0 0 11.248 14.504l12.111-2.0645a15 15 0 0 0 6.6406-12.439 15 15 0 0 0-15-15z" style="fill:#e46de4"/>
 <path d="m27.232 10.455c-0.78806 0.060562-1.2324 0.54492-1.2324 0.54492h-3s-1 0-1 2c0 0.4714 1 1 1 1v5s0.017868 1.6447 1.5312 1.9395l-0.53125 1.0605-1 1-2.625 1.75-0.375-0.75-2-1 1 4 1 0.5v0.5l0.42773 0.14258-0.42773 0.85742-4-5v-3h-1v1h-1v-2l-1-1-1 1h-1v2l3 3 6 8 2.5723-3.4277 0.42773 0.42773v6l-1.1113 2.2246 10.471-1.7852a15 15 0 0 0 0.65234-0.48633l1.9883-7.9531-1-5-1.25-1.25 1.25 0.25 1-2h2v-1h-3l2-3 0.45703-0.3418a15 15 0 0 0-1.3906-1.7578l-2.0664 3.0996-2 2 1-2-1-1-2 4v-2-2s3-3 0-5c-0.69769-0.46511-1.2947-0.58126-1.7676-0.54492z" style="opacity:.1"/>
 <path d="m28 19 2-4 1 1-1 2 2-2 4-6 3 2-4 3-2 3h3v1h-2l-1 2-5-1z" style="fill:#696969"/>
 <path d="m22 28-3 4-6-8-3-3v-2h1l1-1 1 1v2h1v-1h1v3l4 5 1-2z" style="fill:#f9f9f9"/>
 <path d="m23 21 1-2v-1l4-1v3l-3 4z" style="fill-opacity:.97647;fill:#d3d3d3"/>
 <path d="m19 27 3 1h5l2 1 1 3 2 3 2-8-1-5-2-2h-3l-3 3-2-2-1 1-3 2z" style="fill:#999"/>
 <path d="m23 21-1 2h1l1 1 1-1 1 1 1-1h2l-1-3-3 3z" style="fill:#808080"/>
 <path d="m30 20-2 3v4h-5v-6l-1 1v13l-1.752 3.5039a15 15 0 0 0 3.752 0.49609 15 15 0 0 0 8.3594-2.5605l-0.35938-1.4395-2-3-1-3v-5l2-4h-1z" style="fill:#2d2d2d"/>
 <path d="m31 30-4 4-7-7-2-1-1-4 2 1 1 2h1l1-1 1 1-1 2 5 3 2-2s1-1 2 0 0 2 0 2z" style="fill:#f9f9f9"/>
 <path d="m22 13s-1-0.5286-1-1c0-2 1-2 1-2l2 1 2 2z" style="fill:#8b8b8b"/>
 <path d="m24 20c1.6667 0 4-3 4-3v-4l-3-1-3 1v5s0 2 2 2z" style="fill:#f9f9f9"/>
 <path d="m22 10h3s1.1395-1.2403 3 0c3 2 0 5 0 5l-3-3z" style="fill:#ababab"/>
 <path d="m29 28 2 2h1v-1l-2-2h-1z" style="fill:#6a6a6a"/>
 <path d="m27 14v2l-1 1h2v-2z" style="fill:#2d2d2d"/>
</svg>
