<svg version="1.1" viewBox="0 0 48 48" xmlns="http://www.w3.org/2000/svg">
 <defs>
  <linearGradient id="bg" x1="1" x2="47" gradientTransform="matrix(0 -1 1 0 -1.5e-6 48)" gradientUnits="userSpaceOnUse">
   <stop style="stop-color:#708290" offset="0"/>
   <stop style="stop-color:#7b8c99" offset="1"/>
  </linearGradient>
 </defs>
 <path d="m36.31 5c5.859 4.062 9.688 10.831 9.688 18.5 0 12.426-10.07 22.5-22.5 22.5-7.669 0-14.438-3.828-18.5-9.688 1.037 1.822 2.306 3.499 3.781 4.969 4.085 3.712 9.514 5.969 15.469 5.969 12.703 0 23-10.298 23-23 0-5.954-2.256-11.384-5.969-15.469-1.469-1.475-3.147-2.744-4.969-3.781zm4.969 3.781c3.854 4.113 6.219 9.637 6.219 15.719 0 12.703-10.297 23-23 23-6.081 0-11.606-2.364-15.719-6.219 4.16 4.144 9.883 6.719 16.219 6.719 12.703 0 23-10.298 23-23 0-6.335-2.575-12.06-6.719-16.219z" style="opacity:.05"/>
 <path d="m41.28 8.781c3.712 4.085 5.969 9.514 5.969 15.469 0 12.703-10.297 23-23 23-5.954 0-11.384-2.256-15.469-5.969 4.113 3.854 9.637 6.219 15.719 6.219 12.703 0 23-10.298 23-23 0-6.081-2.364-11.606-6.219-15.719z" style="opacity:.1"/>
 <path d="m31.25 2.375c8.615 3.154 14.75 11.417 14.75 21.13 0 12.426-10.07 22.5-22.5 22.5-9.708 0-17.971-6.135-21.12-14.75a23 23 0 0 0 44.875-7 23 23 0 0 0-16-21.875z" style="opacity:.2"/>
 <path d="m24 1c12.703 0 23 10.297 23 23s-10.297 23-23 23-23-10.297-23-23 10.297-23 23-23z" style="fill:url(#bg)"/>
 <path d="m40.03 7.531c3.712 4.084 5.969 9.514 5.969 15.469 0 12.703-10.297 23-23 23-5.954 0-11.384-2.256-15.469-5.969 4.178 4.291 10.01 6.969 16.469 6.969 12.703 0 23-10.298 23-23 0-6.462-2.677-12.291-6.969-16.469z" style="opacity:.1"/>
 <path d="m32 12-10 1-7 23v1l14 1 5-2.6191v-13.994l-4-1.9082c0.0048-2.9895 0.99783-5.3195 2-7.4785z" style="opacity:.1"/>
 <path d="m19 19c0-2 0.22646-4.6935 2-7l10-1c-1.0046 2.1643-2 4.5-2 7.5l-5 1.5z" style="fill:#f9e2c3"/>
 <path d="m28 18-5 0.35742-1 2.6426 1 1.4746 10 0.52539v-2.6133zm-9 0.64258-5 0.35742v3l5 0.26367 1-1.2637z" style="fill:#383838"/>
 <path d="m21.54 73.683c-0.259 0-0.513 0.19-0.513 0.449 7e-3 0.182 0.087 0.37 0.192 0.385v1.218h0.577v-1.218c0.112-0.086 0.192-0.233 0.192-0.385 0-0.259-0.19-0.449-0.449-0.449z" style="fill:#5c5c5c"/>
 <path d="m25.482 13.133-1.2109 1.2754-0.93164-1.0801-0.66016 0.57031 0.99023 1.1445-1.0754 1.1162 0.63086 0.59961 1.0148-1.0537 1.0107 1.1221 0.6582-0.56836-1.0654-1.1885 1.2715-1.3379z" style="fill:#3d3d3d"/>
 <path d="m23 18.357-4 0.28516v3.3574h4v-3.6426z" style="fill:#b2b2b2"/>
 <path d="m28 21-14 1v14l14 1 5-2.619v-11.381z" style="fill:#474747"/>
 <path d="m20.5 19.55 1-0.1c0.27562-0.02756 0.5 0.223 0.5 0.5s-0.22438 0.47244-0.5 0.5l-1 0.1c-0.27562 0.02756-0.5-0.223-0.5-0.5s0.22438-0.47244 0.5-0.5z" style="opacity:.4"/>
 <path d="m21.5 24c-1.385 0-2.5 0.892-2.5 2 0 0.55228 0.44772 1 1 1s1-0.44772 1-1v-0.5c0-0.277 0.223-0.5 0.5-0.5s0.5 0.223 0.5 0.5v1.5c0 0.55228-0.44772 1-1 1h-0.5c-0.27614 0-0.5 0.22386-0.5 0.5s0.22386 0.5 0.5 0.5h0.5c0.55228 0 1 0.44772 1 1v1.5c-1e-6 0.277-0.223 0.5-0.5 0.5s-0.5-0.223-0.5-0.5v-0.5c0-0.55228-0.44772-1-1-1s-1 0.44772-1 1c0 1.108 1.115 2 2.5 2s2.5-0.892 2.5-2v-1c0-0.59815-0.26027-1.1341-0.67383-1.5 0.41356-0.3659 0.67383-0.90185 0.67383-1.5v-1c0-1.108-1.115-2-2.5-2z" style="fill:#efebe7"/>
</svg>
