<?xml version="1.0" encoding="UTF-8"?>
<svg version="1.1" viewBox="0 0 48 48" xmlns="http://www.w3.org/2000/svg">
 <defs>
  <linearGradient id="bg" x2="0" y1="1" y2="47" gradientUnits="userSpaceOnUse">
   <stop style="stop-color:#d05858" offset="0"/>
   <stop style="stop-color:#cc4848" offset="1"/>
  </linearGradient>
 </defs>
 <path d="m36.3 5c5.86 4.06 9.69 10.8 9.69 18.5 0 12.4-10.1 22.5-22.5 22.5-7.67 0-14.4-3.83-18.5-9.69 1.04 1.82 2.31 3.5 3.78 4.97 4.08 3.71 9.51 5.97 15.5 5.97 12.7 0 23-10.3 23-23 0-5.95-2.26-11.4-5.97-15.5-1.47-1.48-3.15-2.74-4.97-3.78zm4.97 3.78c3.85 4.11 6.22 9.64 6.22 15.7 0 12.7-10.3 23-23 23-6.08 0-11.6-2.36-15.7-6.22 4.16 4.14 9.88 6.72 16.2 6.72 12.7 0 23-10.3 23-23 0-6.34-2.58-12.1-6.72-16.2z" style="opacity:.05"/>
 <path d="m41.3 8.78c3.71 4.08 5.97 9.51 5.97 15.5 0 12.7-10.3 23-23 23-5.95 0-11.4-2.26-15.5-5.97 4.11 3.85 9.64 6.22 15.7 6.22 12.7 0 23-10.3 23-23 0-6.08-2.36-11.6-6.22-15.7z" style="opacity:.1"/>
 <path d="m31.2 2.38c8.62 3.15 14.8 11.4 14.8 21.1 0 12.4-10.1 22.5-22.5 22.5-9.71 0-18-6.14-21.1-14.8a23 23 0 0 0 44.9-7 23 23 0 0 0-16-21.9z" style="opacity:.2"/>
 <circle cx="24" cy="24" r="23" style="fill:url(#bg)"/>
 <path d="m25 10a15 15 0 0 0-15 15 15 15 0 0 0 11.2 14.5 15 15 0 0 0 3.75 0.496 15 15 0 0 0 8.36-2.56 15 15 0 0 0 6.64-12.4 15 15 0 0 0-3.38-9.47l3.38-2.53-3-2-1.93 2.9a15 15 0 0 0-10.1-3.9z" style="opacity:.1"/>
 <path d="m40 7.53c3.71 4.08 5.97 9.51 5.97 15.5 0 12.7-10.3 23-23 23-5.95 0-11.4-2.26-15.5-5.97 4.18 4.29 10 6.97 16.5 6.97 12.7 0 23-10.3 23-23 0-6.46-2.68-12.3-6.97-16.5z" style="opacity:.1"/>
 <path d="m24 9a15 15 0 0 0-15 15 15 15 0 0 0 11.2 14.5l12.1-2.06a15 15 0 0 0 6.64-12.4 15 15 0 0 0-15-15z" style="fill:#e788e7"/>
 <path d="m23 19s0.0179 1.64 1.53 1.94l-4.53 3.06-2-1 1 4 1 0.5v1.5l-4-5v-3h-1l-2-2-2 3 3 3 6 8 2.57-3.43 0.428 6.43s9.36 0.44 9.36 0.439c0.222-0.156 0.439-0.318 0.652-0.486l1.99-7.95-1-5-1.25-1.25 1.25 0.25 1-2h2v-1h-3l2-3 0.457-0.342c-0.419-0.62-0.884-1.21-1.39-1.76l-3.07 3.1-1-1-2 4v-4s3-3 0-5z" style="opacity:.1"/>
 <path d="m28 19 2-4 1 1-1 2 2-2 4-6 3 2-4 3-2 3h3v1h-2l-1 2-5-1z" style="fill:#696969"/>
 <path d="m22 28-3 4-6-8-3-3v-2h1l1-1 1 1v2h1v-1h1v3l4 5 1-2z" style="fill:#f9f9f9"/>
 <path d="m23 21 1-2v-1l4-1v3l-3 4z" style="fill-opacity:.976;fill:#d3d3d3"/>
 <path d="m19 27 3 1h5l2 1 1 3 2 3 2-8-1-5-2-2h-3l-3 3-2-2-1 1-3 2z" style="fill:#999"/>
 <path d="m23 21-1 2h1l1 1 1-1 1 1 1-1h2l-1-3-3 3z" style="fill:#808080"/>
 <path d="m30 20-2 3v4h-5v-6l-1 1v13l-1.75 3.5a15 15 0 0 0 3.75 0.496 15 15 0 0 0 8.36-2.56l-0.359-1.44-2-3-1-3v-5l2-4h-1z" style="fill:#474747"/>
 <path d="m31 30-4 4-7-7-2-1-1-4 2 1 1 2h1l1-1 1 1-1 2 5 3 2-2s1-1 2 0 0 2 0 2z" style="fill:#f9f9f9"/>
 <path d="m22 13s-1-0.529-1-1c0-2 1-2 1-2l2 1 2 2z" style="fill:#8b8b8b"/>
 <path d="m24 20c1.67 0 4-3 4-3v-4l-3-1-3 1v5s0 2 2 2z" style="fill:#f9f9f9"/>
 <path d="m22 10h3s1.14-1.24 3 0c3 2 0 5 0 5l-3-3z" style="fill:#ababab"/>
 <path d="m29 28 2 2h1v-1l-2-2h-1z" style="fill:#6a6a6a"/>
 <path d="m27 14v2l-1 1h2v-2z" style="fill:#474747"/>
</svg>
