<svg version="1.1" viewBox="0 0 48 48" xmlns="http://www.w3.org/2000/svg">
 <defs>
  <linearGradient id="bg" x1="1" x2="47" gradientTransform="rotate(-90 24 24)" gradientUnits="userSpaceOnUse">
   <stop style="stop-color:#93c360" offset="0"/>
   <stop style="stop-color:#9dc870" offset="1"/>
  </linearGradient>
 </defs>
 <path d="m36.31 5c5.859 4.062 9.688 10.831 9.688 18.5 0 12.426-10.07 22.5-22.5 22.5-7.669 0-14.438-3.828-18.5-9.688 1.037 1.822 2.306 3.499 3.781 4.969 4.085 3.712 9.514 5.969 15.469 5.969 12.703 0 23-10.298 23-23 0-5.954-2.256-11.384-5.969-15.469-1.469-1.475-3.147-2.744-4.969-3.781zm4.969 3.781c3.854 4.113 6.219 9.637 6.219 15.719 0 12.703-10.297 23-23 23-6.081 0-11.606-2.364-15.719-6.219 4.16 4.144 9.883 6.719 16.219 6.719 12.703 0 23-10.298 23-23 0-6.335-2.575-12.06-6.719-16.219z" style="opacity:.05"/>
 <path d="m41.28 8.781c3.712 4.085 5.969 9.514 5.969 15.469 0 12.703-10.297 23-23 23-5.954 0-11.384-2.256-15.469-5.969 4.113 3.854 9.637 6.219 15.719 6.219 12.703 0 23-10.298 23-23 0-6.081-2.364-11.606-6.219-15.719z" style="opacity:.1"/>
 <path d="m31.25 2.375c8.615 3.154 14.75 11.417 14.75 21.13 0 12.426-10.07 22.5-22.5 22.5-9.708 0-17.971-6.135-21.12-14.75a23 23 0 0 0 44.875-7 23 23 0 0 0-16-21.875z" style="opacity:.2"/>
 <path d="m24 1c12.703 0 23 10.297 23 23s-10.297 23-23 23-23-10.297-23-23 10.297-23 23-23z" style="fill:url(#bg)"/>
 <path d="m40.03 7.531c3.712 4.084 5.969 9.514 5.969 15.469 0 12.703-10.297 23-23 23-5.954 0-11.384-2.256-15.469-5.969 4.178 4.291 10.01 6.969 16.469 6.969 12.703 0 23-10.298 23-23 0-6.462-2.677-12.291-6.969-16.469z" style="opacity:.1"/>
 <path d="m12.999 26.966c0 7.2828 5.7692 12.034 12.5 12.034 6.7821 0 11.499-5.7108 11.499-12.034 0-2.6576-0.9325-4.5859-2.748-6.1465-1.7113-1.471-3.2778-2.681-5.6089-4.0664 0.08441-0.16385 0.23693-0.314 0.25977-0.48577 0.04818-0.36238-0.05444-0.71358-0.23633-0.98721-0.22813-0.34318-0.66238-0.39624-1.0449-0.53278 0.05596-0.13572 0.10196-0.27975 0.3418-0.52102 0.32466-0.3266 0.78402-0.68624 1.2266-1.044 0.44254-0.35778 0.86966-0.7042 1.166-1.1048 0.14818-0.20026 0.27402-0.4239 0.30078-0.70514s-0.09461-0.59827-0.30273-0.807c-0.5-0.50144-1.0116-1.0371-1.6309-1.3476z" style="opacity:.1"/>
 <path d="m26.687 8.0118c-0.37213 0.04665-0.73209 0.24059-1.041 0.55041-0.13215 0.13253-0.38775 0.23796-0.76172 0.27814-0.37397 0.040183-0.84262 0.015077-1.3223-0.045051-0.95929-0.12025-1.8958-0.38-2.5625-0.38-0.33333 0-0.68174 0.093737-0.89062 0.37803-0.20888 0.28429-0.19125 0.61473-0.12695 0.88339 0.12858 0.53731 0.46708 1.0709 0.85156 1.6492s0.82284 1.1752 1.1562 1.6767c0.1667 0.25077 0.30624 0.47823 0.39648 0.65422 0.02323 0.04529 0.01429 0.03249 0.0293 0.07051-0.39966 0.13321-0.84574 0.19691-1.082 0.55236-0.18189 0.27362-0.28451 0.62482-0.23633 0.98721 0.02157 0.16222 0.16948 0.30301 0.24609 0.45834-2.1777 1.1506-4.4077 2.3493-6.1562 3.8822-1.8627 1.6329-3.1875 3.6878-3.1875 6.358 0 7.2828 5.7692 12.034 12.5 12.034 6.7821 0 11.499-5.7108 11.499-12.034 0-2.6576-0.9325-4.5859-2.748-6.1465-1.7113-1.471-3.2778-2.681-5.6089-4.0664 0.08441-0.16385 0.23693-0.314 0.25977-0.48577 0.04818-0.36238-0.05444-0.71358-0.23633-0.98721-0.22813-0.34318-0.66238-0.39624-1.0449-0.53278 0.05596-0.13572 0.10196-0.27975 0.3418-0.52102 0.32466-0.3266 0.78402-0.68624 1.2266-1.044 0.44254-0.35778 0.86966-0.7042 1.166-1.1048 0.14818-0.20026 0.27402-0.4239 0.30078-0.70514s-0.09461-0.59827-0.30273-0.807c-0.5-0.50144-1.0116-1.0371-1.6309-1.3476-0.30963-0.15525-0.66303-0.25231-1.0352-0.20567z" style="fill:#615326"/>
 <path d="m26.812 9.0043c-0.12787 0.01603-0.26791 0.07281-0.45898 0.26448-0.36787 0.36898-0.86225 0.5143-1.3633 0.56814-0.501 0.05385-1.0324 0.01626-1.5527-0.04898-1.0407-0.13049-2.1042-0.37223-2.4375-0.37223-0.03311 0-0.03019 0.0024-0.04883 0.0039 0.0018 0.0099 9.06e-4 0.0069 0.0039 0.01959 0.05892 0.24625 0.34547 0.7783 0.71094 1.3283s0.80216 1.1442 1.1562 1.677c0.17705 0.26638 0.33439 0.5169 0.45508 0.7523 0.1207 0.23541 0.22266 0.44015 0.22266 0.73272-3e-5 0.27698-0.22387 0.50151-0.5 0.50153-0.33333 0-0.69776 0.19863-0.83398 0.40358-0.06807 0.10248-0.09049 0.19005-0.07617 0.29779 0.01432 0.10773 0.07259 0.25698 0.26367 0.44864 0.23893 0.23915 0.17788 0.64216-0.12109 0.79932-2.3105 1.2194-4.6547 2.4643-6.3867 3.9829-1.732 1.5186-2.8457 3.2585-2.8457 5.6031 0 6.7588 5.2308 11.034 11.5 11.034 6.2179 0 10.5-5.3219 10.5-11.034 0-2.3572-0.6165-3.9392-2.301-5.3876-1.6845-1.4482-3.4421-2.6987-5.9568-4.2121-0.27943-0.16806-0.32657-0.555-0.0957-0.78561 0.19107-0.19166 0.24935-0.34091 0.26367-0.44864 0.01432-0.10774-0.0081-0.19531-0.07617-0.29779-0.13622-0.20495-0.50066-0.40358-0.83399-0.40358-0.27613-3e-5 -0.49997-0.22456-0.5-0.50153 0-0.58673 0.36177-1.018 0.75586-1.4145 0.3941-0.39654 0.87223-0.767 1.3047-1.1167 0.43245-0.34969 0.81784-0.68775 0.99023-0.92078 0.08456-0.11432 0.10602-0.1911 0.10742-0.19983-0.0034-0.0019-0.0016 0.0042-0.01172-0.0059-0.49996-0.50148-0.9884-0.96884-1.3691-1.1598-0.19037-0.09547-0.33697-0.12378-0.46484-0.10775z" style="fill:#b6a36c"/>
 <path d="m24 20v1.1523c-0.90363 0.0612-1.7895 0.28248-2.5156 0.73633-0.8601 0.53756-1.4844 1.4447-1.4844 2.6113 0 0.66667 0.37449 1.3591 1.1172 1.8047 0.65674 0.39404 1.6022 0.62336 2.8828 0.67383v3.8691c-0.75338-0.06067-1.4772-0.24759-2.0117-0.53711-0.65243-0.3534-0.98828-0.78277-0.98828-1.3105h-1c0 0.97222 0.66415 1.7304 1.5117 2.1895 0.71526 0.38743 1.5886 0.59841 2.4883 0.6582v1.1523h1v-1.1523c0.90363-0.0612 1.7895-0.28248 2.5156-0.73633 0.8601-0.53756 1.4844-1.4447 1.4844-2.6113 0-0.66667-0.37449-1.3591-1.1172-1.8047-0.65674-0.39404-1.6022-0.62336-2.8828-0.67383v-3.8691c0.75338 0.06067 1.4772 0.24759 2.0117 0.53711 0.65243 0.3534 0.98828 0.78277 0.98828 1.3105h1c0-0.97222-0.66415-1.7304-1.5117-2.1895-0.71526-0.38743-1.5886-0.59841-2.4883-0.6582v-1.1523zm0 2.1543v3.8242c-1.146-0.05265-1.9242-0.2674-2.3672-0.5332-0.5073-0.30438-0.63281-0.61198-0.63281-0.94531 0-0.83333 0.37573-1.3637 1.0156-1.7637 0.52387-0.32742 1.2355-0.51989 1.9844-0.58203zm1 4.8672c1.146 0.05265 1.9242 0.2674 2.3672 0.5332 0.5073 0.30438 0.63281 0.61198 0.63281 0.94531 0 0.83333-0.37573 1.3637-1.0156 1.7637-0.52387 0.32742-1.2355 0.51989-1.9844 0.58203v-3.8242z" style="fill:#453b1b"/>
</svg>
