<?xml version="1.0" encoding="UTF-8" standalone="no"?>
<svg xmlns="http://www.w3.org/2000/svg" version="1.1" viewBox="0 0 48 48">
	<defs>
		<linearGradient id="bg" gradientUnits="userSpaceOnUse" x1="0" x2="0" y1="1" y2="47">
			<stop offset="0" stop-color="#cbbc86"/>
			<stop offset="1" stop-color="#c2b070"/>
		</linearGradient>
	</defs>
	<g>
		<path opacity=".05" d="m 36.31 5 c 5.859 4.062 9.688 10.831 9.688 18.5 c 0 12.426 -10.07 22.5 -22.5 22.5 c -7.669 0 -14.438 -3.828 -18.5 -9.688 c 1.037 1.822 2.306 3.499 3.781 4.969 c 4.085 3.712 9.514 5.969 15.469 5.969 c 12.703 0 23 -10.298 23 -23 c 0 -5.954 -2.256 -11.384 -5.969 -15.469 c -1.469 -1.475 -3.147 -2.744 -4.969 -3.781 z m 4.969 3.781 c 3.854 4.113 6.219 9.637 6.219 15.719 c 0 12.703 -10.297 23 -23 23 c -6.081 0 -11.606 -2.364 -15.719 -6.219 c 4.16 4.144 9.883 6.719 16.219 6.719 c 12.703 0 23 -10.298 23 -23 c 0 -6.335 -2.575 -12.06 -6.719 -16.219 z"/>
		<path opacity=".1" d="m 41.28 8.781 c 3.712 4.085 5.969 9.514 5.969 15.469 c 0 12.703 -10.297 23 -23 23 c -5.954 0 -11.384 -2.256 -15.469 -5.969 c 4.113 3.854 9.637 6.219 15.719 6.219 c 12.703 0 23 -10.298 23 -23 c 0 -6.081 -2.364 -11.606 -6.219 -15.719 z"/>
		<path opacity=".2" d="m 31.25 2.375 c 8.615 3.154 14.75 11.417 14.75 21.13 c 0 12.426 -10.07 22.5 -22.5 22.5 c -9.708 0 -17.971 -6.135 -21.12 -14.75 a 23 23 0 0 0 44.875 -7 a 23 23 0 0 0 -16 -21.875 z"/>
		<circle fill="url(#bg)" cx="24" cy="24" r="23"/>
		<path opacity=".1" d="m 40.03 7.531 c 3.712 4.084 5.969 9.514 5.969 15.469 0 12.703 -10.297 23 -23 23 c -5.954 0 -11.384 -2.256 -15.469 -5.969 4.178 4.291 10.01 6.969 16.469 6.969 c 12.703 0 23 -10.298 23 -23 0 -6.462 -2.677 -12.291 -6.969 -16.469 z"/>
	</g>
	<g transform="translate(1 1)" opacity=".1">
		<path d="M 24,28 l 2,5 -2,3 -2,-3 2,-5 z M 36,13 l 0,1 -12,12 -12,-12 0,-1 12,8 z M 15.914062 21.125 A 5 5 0 0 0 12 26 A 5 5 0 0 0 17 31 A 5 5 0 0 0 21.875 27.091797 A 4.25 4.25 0 0 1 19.25 28 A 4.25 4.25 0 0 1 15 23.75 A 4.25 4.25 0 0 1 15.914062 21.125 z M 32.091797 21.125 A 4.25 4.25 0 0 1 33 23.75 A 4.25 4.25 0 0 1 28.75 28 A 4.25 4.25 0 0 1 26.125 27.085938 A 5 5 0 0 0 31 31 A 5 5 0 0 0 36 26 A 5 5 0 0 0 32.091797 21.125 z"/>
	</g>
	<g fill="#531">
		<path d="m 24,28 2,5 -2,3 -2,-3 2,-5 z"/>
		<path d="m 36,13 0,1 -12,12 -12,-12 0,-1 12,8 z"/>
		<path d="M 15.914062 21.125 A 5 5 0 0 0 12 26 A 5 5 0 0 0 17 31 A 5 5 0 0 0 21.875 27.091797 A 4.25 4.25 0 0 1 19.25 28 A 4.25 4.25 0 0 1 15 23.75 A 4.25 4.25 0 0 1 15.914062 21.125 z "/>
		<path d="M 32.091797 21.125 A 4.25 4.25 0 0 1 33 23.75 A 4.25 4.25 0 0 1 28.75 28 A 4.25 4.25 0 0 1 26.125 27.085938 A 5 5 0 0 0 31 31 A 5 5 0 0 0 36 26 A 5 5 0 0 0 32.091797 21.125 z "/>
	</g>
</svg>
