<svg version="1.1" viewBox="0 0 48 48" xmlns="http://www.w3.org/2000/svg">
 <defs>
  <linearGradient id="linearGradient4261" x2="0" y1="47" y2="1.155" gradientUnits="userSpaceOnUse">
   <stop style="stop-color:#30478a" offset="0"/>
   <stop style="stop-color:#354f99" offset="1"/>
  </linearGradient>
 </defs>
 <path d="m36.31 5c5.859 4.062 9.688 10.831 9.688 18.5 0 12.426-10.07 22.5-22.5 22.5-7.669 0-14.438-3.828-18.5-9.688 1.037 1.822 2.306 3.499 3.781 4.969 4.085 3.712 9.514 5.969 15.469 5.969 12.703 0 23-10.298 23-23 0-5.954-2.256-11.384-5.969-15.469-1.469-1.475-3.147-2.744-4.969-3.781zm4.969 3.781c3.854 4.113 6.219 9.637 6.219 15.719 0 12.703-10.297 23-23 23-6.081 0-11.606-2.364-15.719-6.219 4.16 4.144 9.883 6.719 16.219 6.719 12.703 0 23-10.298 23-23 0-6.335-2.575-12.06-6.719-16.219z" style="opacity:.05"/>
 <path d="m41.28 8.781c3.712 4.085 5.969 9.514 5.969 15.469 0 12.703-10.297 23-23 23-5.954 0-11.384-2.256-15.469-5.969 4.113 3.854 9.637 6.219 15.719 6.219 12.703 0 23-10.298 23-23 0-6.081-2.364-11.606-6.219-15.719z" style="opacity:.1"/>
 <path d="m31.25 2.375c8.615 3.154 14.75 11.417 14.75 21.13 0 12.426-10.07 22.5-22.5 22.5-9.708 0-17.971-6.135-21.12-14.75a23 23 0 0 0 44.875 -7 23 23 0 0 0 -16 -21.875z" style="opacity:.2"/>
 <path d="m24 1c-2.27 0-4.462 0.334-6.533 0.947 1.534 1.053-1.25 2.02-3.205 1.215-7.833 3.667-13.262 11.617-13.262 20.838 0 7.505 3.595 14.169 9.156 18.367 5.844 2.633 21.844 2.633 29.684-1.699 2.366-2.249 4.253-4.995 5.494-8.07v-2e-3c0.234-1.595 0.667-3.594 1.23-4.15h2e-3c0.282-1.438 0.434-2.923 0.434-4.443 0-0.118-6e-3 -0.234-8e-3 -0.352h-2e-3c-0.992-0.649-0.556-1.182-0.154-2.348-0.185-1.577-0.527-3.105-1.014-4.568-1.826-0.738-7.823-7.734-11.1-13.08-3.203-1.692-6.85-2.654-10.725-2.654z" style="fill:url(#linearGradient4261)"/>
 <path d="m17.1 2.906-0.844 0.25-0.977 0.066-0.594 0.434-0.781-0.031 0.066 0.5 1.121-0.031 0.41 1.094 0.15 0.598-0.621 0.346-0.254 0.465 0.189 1.063 0.754 0.125 0.719-0.688 0.625-0.656 0.965-0.25 1.227-0.594 0.719-0.875 1.031-1.254 0.719-0.189-0.031-0.275h-1.121l-3.469-0.096zm9.957 0.48c-0.055 0.02-1.527 0.023-1.527 0.023l-0.379 0.098 0.5 0.598 0.531-0.5 0.344 0.219 0.5-0.25s0.09-0.211 0.031-0.187zm6 0.461-0.375 4e-3 -0.469 0.063-0.406 0.25-0.469 0.35-0.277 0.5 0.434 0.438l0.375 0.031 0.156-0.254-0.375-0.314 0.219-0.188 0.031-0.152 0.469-0.313s0.609 8e-3 0.656 0c0.051-0.012 0.188-0.191 0.188-0.191zm3.064 0.607-0.221 0.146l-0.625 0.375-0.531 0.438 0.063 0.189-0.277 0.031v4e-3l-4.084 0.68 0.016-0.012-1.219 0.654-0.313-0.223-0.156-0.25 0.064-0.254 0.688 0.035 0.316-0.125-0.621-0.314-0.875-0.314-0.879-0.156-0.941 0.191-0.969 0.779-0.436 0.439-0.654 0.719-0.25 0.031-0.096 0.344 0.125 0.344s0.133 0.156 0.156 0.156c0.02 0 0.25-0.125 0.25-0.125s0.027-0.117 0.156-0.156c0.133-0.039 0.25-0.063 0.25-0.063l0.188 0.375 0.225 0.313 0.09 0.25s0.363-0.223 0.379-0.25c8e-3 -0.031 0.031-0.41 0.031-0.41l0.271-0.188s0.074-0.133 0.066-0.156c-0.012-0.02-0.188-0.219-0.188-0.219l-0.156-0.063 0.063-0.316s0.125-0.051 0.125-0.094c0-0.039 0.191-0.189 0.191-0.189l0.219-0.275 0.156-0.189 0.219-0.156 0.254 0.189v0.125l-0.223 0.25-0.066 0.25v0.344l0.191 0.156 0.344-0.031 0.314-0.063 0.279 0.154-0.064 0.221s-0.195 0.188-0.25 0.219c-0.059 0.031-0.41-0.063-0.5-0.031-0.09 0.031-0.314 0.316-0.314 0.316s-0.023 0.249 0 0.313c0.012 0.023-4e-3 0.071-0.012 0.129l-0.025 0.018-0.379 0.279h-0.025l-0.25-0.094s-0.158 8e-3 -0.225 0.066c-0.063 0.051-0.12 0.102-0.313 0.121-0.191 0.02-0.563 0-0.598 0h-0.219l0.031-0.227 0.156-0.25-0.277-0.223s-0.184 0.23-0.191 0.281c-4e-3 0.055 0.125 0.279 0.125 0.279s-0.059 0.182-0.09 0.221c-0.035 0.039-0.313 0.125-0.313 0.125l-0.439-0.221s-0.18-0.038-0.156 0.064c0.027 0.102 0.225 0.195 0.225 0.281 0 0.082-0.125 0.275-0.125 0.275l-0.156 0.189-0.25 0.254-0.344 0.09s-0.251 0.07-0.314 0.094c-0.066 0.023-0.254 0.066-0.254 0.066l-0.25 0.031-0.156 0.223 0.281 0.191 0.189 0.309s0.119 0.223 0.154 0.223c0.031 0 0.092 0.219 0.092 0.219l-0.189 0.25h-0.094l-0.656 0.125-0.125-0.281-0.434 0.438-0.191 0.721v0.598l0.754 0.406 0.594-0.221 0.6-1.064 0.529-0.652 0.967-0.156 0.219-0.188 1.098 1.281 0.121 0.438 0.313-0.156-0.09-0.375h0.188l-0.125-0.254-1.063-1 0.094-0.188 0.344-0.031 0.75 0.75 0.375 0.441v0.688l0.191 0.125 0.375 0.375 0.277-0.094-0.152-0.566 0.094-0.344 0.188-0.219 0.439 0.156 0.156 0.063-0.031-0.5 0.25-0.469 0.156-0.689 0.563 0.096 0.094 0.313 0.219 0.156 0.254-0.219-0.156-0.346h0.656l-0.223 0.375 0.438 0.375 0.375 0.189 0.219 0.438-0.5 0.121-0.719-0.156h-0.621l-0.598 0.316-0.125 0.188-0.434 0.094 0.188 0.469 0.344 0.406 0.625-0.219 0.156 0.277 0.277-0.219 0.375 0.063 0.035 0.41-0.125 0.777-0.344-0.031-0.41-0.063-0.188 0.465-1.375-0.25-0.25-0.316-0.316 0.281-0.344 0.469-0.875-0.5-0.875-0.527v-0.941l-0.564 0.031-0.029 0.313-1.375-0.063-0.439 0.402-0.844 0.031-0.566 0.5-0.344 0.969-0.875 0.691-0.625 0.844-0.031 1.625-0.188 0.5-0.063 0.598 0.375 0.652 0.219 0.625 0.754 0.906 0.434 0.375 0.441 0.094 0.09-0.375h1.563l0.41-0.188 0.5 0.063 0.152 0.313 0.527 0.031 0.348 0.25v0.531l-0.121 0.438-0.125 0.344 0.313 0.566 0.406 0.469 0.189 1.188 0.029 0.777-0.275 0.656-0.031 0.625 0.219 1.156 0.191 0.188 0.271 1.094 0.035 0.471 0.566 0.75 0.063 0.594 0.094 0.688 0.346-0.344 0.875-0.09h0.529l0.971-1.5 0.063-0.594 0.656-0.656 0.031-0.75 0.344-0.754 0.813-0.777v-0.875l-0.191-0.813-0.121-1.125 0.594-0.939 1.064-1.313 0.41-0.406 0.15-0.531 0.254-0.469 0.064-0.691h-0.594l-0.281 0.281-0.564-0.156-0.344-0.563-0.281-0.563-0.654-0.5-0.152-0.813-0.281-0.475-0.313-0.594-0.406-0.719-0.094-0.469 0.438-0.063 0.25 0.531 0.5 0.938 0.375 0.688 0.41 0.75 0.434 0.723 0.602 0.6 0.535-0.5 0.594-0.156 0.434-0.531 0.6-0.344 0.344-0.594 0.031-0.5-0.281-0.316-0.375-0.438-0.25 0.154-0.156 0.254-0.406-0.188-0.125-0.313-0.281-0.41-0.434-0.406v-0.813l0.277 0.531 0.344 0.535 0.598 0.344 0.406-0.094 0.25 0.281 1.785-0.035-0.035 0.035 0.566 0.5 0.406 0.563 0.125 0.277h0.275l0.096-0.311 0.094 0.467 0.156 0.844 0.34 0.813 0.189 0.688 0.277 0.656 0.219 0.277 0.314-0.188 0.094-0.314 0.125-0.775-0.035-0.689 0.254-0.316s0.265-0.359 0.313-0.375c0.043-0.012 0.621-0.65 0.621-0.65l0.281-0.35 0.313-0.188 0.375-0.219h0.156l0.063 0.344 0.156 0.406 0.5 0.652v0.25l0.094 0.281 0.344-0.156-0.033-0.375 0.313 0.066 0.066 0.344-0.035 0.531 0.094 0.375 0.281 0.064 0.09-0.314 0.344 0.219 0.066 0.316 0.309 0.469 0.316 0.344 0.219 0.191 0.535-0.469 0.219-0.441-0.094-0.5-0.09-0.656-0.604-0.563-0.09-0.566 0.25-0.398s0.16-0.32 0.316-0.156c0.148 0.168 0.223 0.188 0.152 0.375-0.063 0.184-0.188 0.598-0.188 0.598l0.375 0.156 0.156-0.531-0.156-0.379 0.203-0.084c-1.524-5.721-5.196-10.563-10.1-13.611m-5.66 1.852-4e-3 6e-3 4.09-0.695-0.027-0.156-0.316-0.438-0.654-0.063s0.154 0.664 0.154 0.75c0 0.082-0.438 0.025-0.438 0.025l-0.75 0.035s-1.086 0.25-1.219 0.25-0.762 0.262-0.813 0.281zm-19.2-1.459c-0.154 0.103-0.305 0.21-0.457 0.316l-0.029 0.072 0.156 0.344 0.563-0.064 0.25 0.469-0.5 0.531-0.563 0.063 0.5 0.223 0.531 0.465 0.525 0.125 0.191-0.719 0.035-0.438 0.621 0.094s-0.191 0.313-0.094 0.313c0.098 0 0.469-0.406 0.469-0.406l-1.066-1.098s-0.434-0.344-0.563-0.25c-0.129 0.09-0.469 0.063-0.469 0.063zm-0.65 0.824-0.434 0.5-0.32-0.307c-0.43 0.335-0.85 0.682-1.254 1.047 0.371 0.093 0.862 0.293 0.949 0.232 0.129-0.094 0.625-0.875 0.625-0.875zm9.1 0.727-0.121 0.406c0.449 0.348 0.621 0.344 0.621 0.344l0.525-0.125 0.35-0.344-0.225-0.281zm-8.867 0.773s-0.432 0.25-0.85 0.406c-0.414 0.156-0.309 0.469-0.309 0.469l-0.035 0.844-0.688 0.563-0.434 0.656s-0.281-0.188-0.281-0.313-0.063-0.469-0.063-0.469l-0.719-0.563s-0.22-0.17-0.398-0.328c-2.12 2.305-3.77 5.05-4.813 8.07l0.652-0.455 0.566-0.191h0.809l1.125-0.25 0.406 0.531-0.063 0.625 0.469 0.406 0.063-0.441s-0.023-0.719-0.094-0.906c-0.063-0.188 0.566-0.625 0.566-0.625l0.496-0.613 0.598-0.727 0.281-0.563 0.938-0.496 0.625-0.691s0.934-0.148 1.121-0.254c0.191-0.09 0.066-0.434-0.125-0.75-0.191-0.313 0.094-0.625 0.094-0.625l0.719-0.434 0.625 0.121 0.066 0.754s0.59 0.563 0.781 0.465c0.188-0.09 0.271-0.406 0.271-0.406l-0.313-0.813 0.191-0.811-0.844 0.121v-1.375l-0.254 0.254-0.656 0.031-0.09-0.688zm11.643 1.01-0.25 0.219c-0.066 0.305-0.15 0.621-0.15 0.621l0.469 0.223 0.063 0.277-0.25 0.254-0.219 0.375 0.152 0.156 0.563-0.094 0.5-0.219-0.277-0.375-0.098-0.656-0.344-0.375zm-0.775 1.184-0.281 0.469 0.375 0.156 0.156-0.281zm-15.445 1.092 6e-3 6e-3 0.656 0.277 0.434 0.566 0.281 0.434s-0.25 0.844-0.313 1-0.25-0.313-0.25-0.313l-0.156-0.814-0.531 0.225-0.41 0.965 0.094-0.811 0.125-0.564-0.654-0.25 0.563-0.531zm26.383 0.756c0.137-0.043 0.375 0.154 0.375 0.154l-0.25 0.221 0.09 0.313 0.281 0.75 0.281 0.469 0.375 0.594-0.406 0.191-0.531-0.344-0.223-0.656s-0.303-0.406-0.436-0.469c-0.137-0.066-0.254-0.281-0.254-0.281l0.125-0.531s0.431-0.359 0.564-0.406zm-7.906 1.188-0.375 0.719 0.281 0.281 0.25-0.223 0.031-0.309zm-1.252 0.75v0.188l0.156-0.031zm2.156 0.469-0.188 0.064 0.309 0.531 0.281-0.221zm-23.451 3.064c-0.299 0.89-0.549 1.803-0.738 2.738l0.523 0.287 0.5-0.066 0.719 0.344 1.094 0.598 0.156 0.725 0.875 0.84 0.5-0.375 0.41 0.316-0.066-0.725-0.777 0.191-0.254-0.906-0.09-0.41-0.688-0.621v-0.438l0.531-0.566-0.348-0.4-0.564 0.09-0.848 0.844-0.688-0.09s-0.313-0.531-0.379-0.656c-0.063-0.125 0.191-0.563 0.191-0.563zm3.322 1.121v4e-3l-0.309 0.156 0.531 0.279 0.594 0.121 0.344 0.469 0.406-0.25-0.063-0.279-0.689-0.5zm1.693 3.094-6e-3 4e-3 -0.816 0.441-0.09 0.9-0.188 1-0.563 0.75 0.029 1.125 0.467 1.156 0.5 1.406 1.313 1.313 0.063 0.75 0.094 3.385 0.469 1.9s0.285 1.103 0.223 1.189c-0.066 0.09 0.375 0.91 0.375 0.91l0.875 1.375 1.221 0.525-0.5-0.598-0.25-0.688 0.25-0.719-0.656-0.344s0.434-0.285 0.5-0.375-0.09-0.469-0.09-0.469l-0.191-0.467 0.496-0.654 0.781-0.189 0.125-0.598-0.469-0.219 0.188-0.5 0.75-0.094 0.656-1.598 0.469-1.094 0.977-0.471s0.309-0.928 0.309-1.064c0-0.129 0.094-1.531 0.094-1.531l0.75-1.023 0.094-0.691-0.563-0.344-0.469-0.566-0.852 0.066-1.344-0.781-0.27-0.656s-0.48-0.813-0.566-0.813-0.652 0.035-0.652 0.035l-0.531-0.531-0.344-0.656-1.344-0.281-0.438-0.219zm36.438 0.492c0.113 0.129 0.813 2.219 0.906 2.219 0.09 0 0.625 0.066 0.625 0.066l-0.281-0.844zm-3.594 0.066-0.316 0.406 0.156 0.598 0.344-0.375-0.063-0.473zm3.49 1.156-0.436 0.066 1.996 3 0.531 0.594 1.246 0.061c0.012-0.116 0.017-0.233 0.027-0.35l-0.025-0.018-1.25-0.346-0.314-1.154-0.688-0.564-1.094-1.281zm3.426 0.211-0.299 0.164c0 0.094-0.725 0.691-0.725 0.691l0.191 0.625 0.41 0.465 0.273 0.688 0.135-0.088c0.027-0.453 0.043-0.908 0.043-1.367 0-0.395-0.01-0.788-0.029-1.178zm-13.928 4.664v0.439c-0.02 0.066-0.406 0.375-0.406 0.375l-0.469 0.219-0.344 0.281 0.254 0.344 0.156 0.156-0.41 0.344v0.563l0.156 0.594 0.344 0.094 0.41-0.625 0.25-0.406-0.063-0.5 0.375-0.594 0.125-0.281v-0.563l-0.096-0.438zm-20.475 9.473-0.215 0.152-0.094 0.031 0.5 0.25zm-0.848 0.184 2e-3 4e-3 2e-3 -4e-3zm2e-3 4e-3 -0.217 0.496 0.438-0.094zm1.502 4.121-0.469 0.719-0.875 0.406 0.5 0.625 1.998 0.373s-0.652-1.32-0.652-1.5c0-0.176-0.5-0.621-0.5-0.621z" style="opacity:.1"/>
 <path d="m17.475 1.943c-1.152 0.34-2.267 0.767-3.336 1.275l0.363 0.969 0.15 0.598-0.621 0.346-0.254 0.465 0.189 1.063 0.754 0.125 0.719-0.688 0.625-0.656 0.965-0.25 1.227-0.594 0.719-0.875 1.031-1.254 0.719-0.189-0.031-0.275h-1.121l-2.098-0.059zm8.582 0.443c-0.055 0.02-1.527 0.023-1.527 0.023l-0.379 0.098 0.5 0.598 0.531-0.5 0.344 0.219 0.5-0.25s0.09-0.211 0.031-0.188zm6 0.461-0.375 4e-3 -0.469 0.063-0.406 0.25-0.469 0.35-0.277 0.5 0.434 0.438l0.375 0.031 0.156-0.254-0.375-0.314 0.219-0.188 0.031-0.152 0.469-0.313s0.609 8e-3 0.656 0c0.051-0.012 0.188-0.191 0.188-0.191l-0.156-0.223zm2.717 0.83-0.498 0.299-0.531 0.438 0.063 0.189-0.277 0.031v4e-3l-4.084 0.68 0.016-0.012-1.219 0.654-0.313-0.223-0.156-0.25 0.064-0.254 0.688 0.035 0.316-0.125-0.621-0.314-0.875-0.314-0.879-0.156-0.941 0.191-0.969 0.779-0.436 0.439-0.654 0.719-0.25 0.031-0.096 0.344 0.125 0.344s0.133 0.156 0.156 0.156c0.02 0 0.25-0.125 0.25-0.125s0.027-0.117 0.156-0.156c0.133-0.039 0.25-0.063 0.25-0.063l0.188 0.375 0.225 0.313 0.09 0.25s0.363-0.223 0.379-0.25c8e-3 -0.031 0.031-0.41 0.031-0.41l0.271-0.188s0.074-0.133 0.066-0.156c-0.012-0.02-0.188-0.219-0.188-0.219l-0.156-0.063 0.063-0.316s0.125-0.051 0.125-0.094c0-0.039 0.191-0.189 0.191-0.189l0.219-0.275 0.156-0.189 0.219-0.156 0.254 0.189v0.125l-0.223 0.25-0.066 0.25v0.344l0.191 0.156 0.344-0.031 0.314-0.063 0.279 0.154-0.064 0.221s-0.195 0.188-0.25 0.219c-0.059 0.031-0.41-0.063-0.5-0.031-0.09 0.031-0.314 0.316-0.314 0.316s-0.023 0.249 0 0.313c0.012 0.023-4e-3 0.071-0.012 0.129l-0.025 0.018-0.379 0.279h-0.025l-0.25-0.094s-0.158 8e-3 -0.225 0.066c-0.063 0.051-0.12 0.102-0.313 0.121-0.191 0.02-0.563 0-0.598 0h-0.219l0.031-0.227 0.156-0.25-0.277-0.223s-0.184 0.23-0.191 0.281c-4e-3 0.055 0.125 0.279 0.125 0.279s-0.059 0.182-0.09 0.221c-0.035 0.039-0.313 0.125-0.313 0.125l-0.439-0.221s-0.18-0.038-0.156 0.064c0.027 0.102 0.225 0.195 0.225 0.281 0 0.082-0.125 0.275-0.125 0.275l-0.156 0.189-0.25 0.254-0.344 0.09s-0.251 0.07-0.314 0.094c-0.066 0.023-0.254 0.066-0.254 0.066l-0.25 0.031-0.156 0.223 0.281 0.191 0.189 0.309s0.119 0.223 0.154 0.223c0.031 0 0.092 0.219 0.092 0.219l-0.189 0.25h-0.094l-0.656 0.125-0.125-0.281-0.434 0.438-0.191 0.721v0.598l0.754 0.406 0.594-0.221 0.6-1.064 0.529-0.652 0.967-0.156 0.219-0.188 1.098 1.281 0.121 0.438 0.313-0.156-0.09-0.375h0.188l-0.125-0.254-1.063-1 0.094-0.188 0.344-0.031 0.75 0.75 0.375 0.441v0.688l0.191 0.125 0.375 0.375 0.277-0.094-0.152-0.566 0.094-0.344 0.188-0.219 0.439 0.156 0.156 0.063-0.031-0.5 0.25-0.469 0.156-0.689 0.563 0.096 0.094 0.313 0.219 0.156 0.254-0.219-0.156-0.346h0.656l-0.223 0.375 0.438 0.375 0.375 0.189 0.219 0.438-0.5 0.121-0.719-0.156h-0.621l-0.598 0.316-0.125 0.188-0.434 0.094 0.188 0.469 0.344 0.406 0.625-0.219 0.156 0.277 0.277-0.219 0.375 0.063 0.035 0.41-0.125 0.777-0.344-0.031-0.41-0.063-0.188 0.465-1.375-0.25-0.25-0.316-0.316 0.281-0.344 0.469-0.875-0.5-0.875-0.527v-0.941l-0.564 0.031-0.029 0.313-1.375-0.063-0.439 0.402-0.844 0.031-0.566 0.5-0.344 0.969-0.875 0.691-0.625 0.844-0.031 1.625-0.188 0.5-0.063 0.598 0.375 0.652 0.219 0.625 0.754 0.906 0.434 0.375 0.441 0.094 0.09-0.375h1.563l0.41-0.188 0.5 0.063 0.152 0.313 0.527 0.031 0.348 0.25v0.531l-0.121 0.438-0.125 0.344 0.313 0.566 0.406 0.469 0.189 1.188 0.029 0.777-0.275 0.656-0.031 0.625 0.219 1.156 0.191 0.188 0.271 1.094 0.035 0.471 0.566 0.75 0.063 0.594 0.094 0.688 0.346-0.344 0.875-0.09h0.529l0.971-1.5 0.063-0.594 0.656-0.656 0.031-0.75 0.344-0.754 0.813-0.777v-0.875l-0.191-0.813-0.121-1.125 0.594-0.939 1.064-1.313 0.41-0.406 0.15-0.531 0.254-0.469 0.064-0.691h-0.594l-0.281 0.281-0.564-0.156-0.344-0.563-0.281-0.563-0.654-0.5-0.152-0.813-0.281-0.475-0.313-0.594-0.406-0.719-0.094-0.469 0.438-0.063 0.25 0.531 0.5 0.938 0.375 0.688 0.41 0.75 0.434 0.723 0.602 0.6 0.535-0.5 0.594-0.156 0.434-0.531 0.6-0.344 0.344-0.594 0.031-0.5-0.281-0.316-0.375-0.438-0.25 0.154-0.156 0.254-0.406-0.188-0.125-0.313-0.281-0.41-0.434-0.406v-0.813l0.277 0.531 0.344 0.535 0.598 0.344 0.406-0.094 0.25 0.281 1.785-0.035-0.035 0.035 0.566 0.5 0.406 0.563 0.125 0.277h0.275l0.096-0.311 0.094 0.467 0.156 0.844 0.34 0.813 0.189 0.688 0.277 0.656 0.219 0.277 0.314-0.188 0.094-0.314 0.125-0.775-0.035-0.689 0.254-0.316s0.265-0.359 0.313-0.375c0.043-0.012 0.621-0.65 0.621-0.65l0.281-0.35 0.313-0.188 0.375-0.219h0.156l0.063 0.344 0.156 0.406 0.5 0.652v0.25l0.094 0.281 0.344-0.156-0.033-0.375 0.313 0.066 0.066 0.344-0.035 0.531 0.094 0.375 0.281 0.064 0.09-0.314 0.344 0.219 0.066 0.316 0.309 0.469 0.316 0.344 0.219 0.191 0.535-0.469 0.219-0.441-0.094-0.5-0.09-0.656-0.604-0.563-0.09-0.566 0.25-0.398s0.16-0.32 0.316-0.156c0.148 0.168 0.223 0.188 0.152 0.375-0.063 0.184-0.188 0.598-0.188 0.598l0.375 0.156 0.156-0.531-0.156-0.379 0.375-0.156 0.441-0.221c-1.871-5.656-5.875-10.34-11.06-13.1zm-5.313 1.629-4e-3 6e-3 4.09-0.695-0.027-0.156-0.316-0.438-0.654-0.063s0.154 0.664 0.154 0.75c0 0.082-0.438 0.025-0.438 0.025l-0.75 0.035s-1.086 0.25-1.219 0.25-0.762 0.262-0.813 0.281l-0.023 4e-3zm-17.688-0.783c-0.6 0.377-1.182 0.78-1.742 1.209l0.154 0.068 0.531 0.465 0.525 0.125 0.191-0.719 0.035-0.438 0.621 0.094s-0.191 0.313-0.094 0.313c0.098 0 0.469-0.406 0.469-0.406l-0.691-0.711zm6.937 0.875-0.121 0.406c0.449 0.348 0.621 0.344 0.621 0.344l0.525-0.125 0.35-0.344-0.225-0.281h-1.15zm-8.867 0.773s-0.432 0.25-0.85 0.406c-2e-3 2e-3 -4e-3 2e-3 -6e-3 4e-3 -0.091 0.079-0.183 0.156-0.273 0.236-0.053 0.12-0.029 0.229-0.029 0.229l-0.035 0.844-0.688 0.563-0.434 0.656s-0.281-0.188-0.281-0.313-0.063-0.469-0.063-0.469l-8e-3 -6e-3c-0.43 0.462-0.841 0.942-1.232 1.438l0.416 0.545 0.281 0.434s-0.249 0.844-0.313 1c-0.063 0.156-0.25-0.313-0.25-0.313l-0.156-0.814-0.531 0.225-0.41 0.965 0.094-0.811 0.02-0.086c-0.858 1.237-1.6 2.56-2.205 3.957h0.393l1.125-0.25 0.406 0.531-0.063 0.625 0.469 0.406 0.063-0.441s-0.023-0.719-0.094-0.906c-0.063-0.188 0.566-0.625 0.566-0.625l0.496-0.613 0.598-0.727 0.281-0.563 0.938-0.496 0.625-0.691s0.934-0.148 1.121-0.254c0.191-0.09 0.066-0.434-0.125-0.75-0.191-0.313 0.094-0.625 0.094-0.625l0.719-0.434 0.625 0.121 0.066 0.754s0.59 0.563 0.781 0.465c0.188-0.09 0.271-0.406 0.271-0.406l-0.313-0.813 0.191-0.811-0.844 0.121v-1.375l-0.254 0.254-0.656 0.031-0.09-0.688-0.438-0.531zm11.643 1.01-0.25 0.219c-0.066 0.305-0.15 0.621-0.15 0.621l0.469 0.223 0.063 0.277-0.25 0.254-0.219 0.375 0.152 0.156 0.563-0.094 0.5-0.219-0.277-0.375-0.098-0.656-0.344-0.375-0.158-0.406zm-0.775 1.184-0.281 0.469 0.375 0.156 0.156-0.281-0.25-0.344zm10.938 1.848c0.137-0.043 0.375 0.154 0.375 0.154l-0.25 0.221 0.09 0.313 0.281 0.75 0.281 0.469 0.375 0.594-0.406 0.191-0.531-0.344-0.223-0.656s-0.303-0.406-0.436-0.469c-0.137-0.066-0.254-0.281-0.254-0.281l0.125-0.531s0.431-0.359 0.564-0.406l8e-3 -4e-3zm-7.906 1.188-0.375 0.719 0.281 0.281 0.25-0.223 0.031-0.309-0.188-0.469zm-1.252 0.75v0.188l0.156-0.031-0.156-0.156zm2.156 0.469-0.188 0.064 0.309 0.531 0.281-0.221-0.402-0.375zm-20.13 4.186v4e-3l-0.309 0.156 0.531 0.279 0.594 0.121 0.344 0.469 0.406-0.25-0.063-0.279-0.689-0.5h-0.814zm-0.975 0.41-0.564 0.09-0.848 0.844-0.363-0.047c-0.053 0.201-0.101 0.404-0.148 0.607l0.58 0.277 1.094 0.598 0.156 0.725 0.875 0.84 0.5-0.375 0.41 0.316-0.066-0.725-0.777 0.191-0.254-0.906-0.09-0.41-0.688-0.621v-0.438l0.531-0.566-0.348-0.4zm2.668 2.684-6e-3 4e-3 -0.816 0.441-0.09 0.9-0.188 1-0.563 0.75 0.029 1.125 0.467 1.156 0.5 1.406 1.313 1.313 0.063 0.75 0.094 3.385 0.469 1.9s0.285 1.103 0.223 1.189c-0.066 0.09 0.375 0.91 0.375 0.91l0.875 1.375 1.221 0.525-0.5-0.598-0.25-0.688 0.25-0.719-0.656-0.344s0.434-0.285 0.5-0.375-0.09-0.469-0.09-0.469l-0.191-0.467 0.496-0.654 0.781-0.189 0.125-0.598-0.469-0.219 0.188-0.5 0.75-0.094 0.656-1.598 0.469-1.094 0.977-0.471s0.309-0.928 0.309-1.064c0-0.129 0.094-1.531 0.094-1.531l0.75-1.023 0.094-0.691-0.563-0.344-0.469-0.566-0.852 0.066-1.344-0.781-0.27-0.656s-0.48-0.813-0.566-0.813-0.652 0.035-0.652 0.035l-0.531-0.531-0.344-0.656-1.344-0.281-0.438-0.219h-0.875zm36.438 0.492c0.113 0.129 0.813 2.219 0.906 2.219 0.09 0 0.625 0.066 0.625 0.066l-0.281-0.844-1.25-1.441zm-3.594 0.066-0.316 0.406 0.156 0.598 0.344-0.375-0.063-0.473-0.121-0.156zm7.787 0.885-1.17 0.646c0 0.094-0.725 0.691-0.725 0.691l0.191 0.625 0.41 0.465 0.273 0.688 1.17-0.76c-0.01-0.796-0.061-1.581-0.15-2.355zm-4.297 0.271-0.436 0.066 1.996 3 0.531 0.594 1.313 0.064 0.814 0.254-0.879-0.625-1.25-0.346-0.314-1.154-0.688-0.564-1.094-1.281 6e-3 -8e-3zm-10.502 4.875v0.439c-0.02 0.066-0.406 0.375-0.406 0.375l-0.469 0.219-0.344 0.281 0.254 0.344 0.156 0.156-0.41 0.344v0.563l0.156 0.594 0.344 0.094 0.41-0.625 0.25-0.406-0.063-0.5 0.375-0.594 0.125-0.281v-0.563l-0.096-0.438-0.283-2e-3zm14.52 1.986c-0.05 0.017-0.115 0.036-0.119 0.051-0.02 0.086-0.563 0.375-0.563 0.375-0.113 0-0.465 0.656-0.465 0.656l-0.066 2.063-0.121 0.75 0.129 0.168c0.52-1.3 0.928-2.658 1.205-4.063zm-34.994 7.486-0.215 0.152-0.094 0.031 0.5 0.25-0.191-0.434zm-0.848 0.184 2e-3 4e-3 2e-3 -4e-3h-4e-3zm2e-3 4e-3 -0.217 0.496 0.438-0.094-0.221-0.402zm1.502 4.121-0.469 0.719-0.875 0.406 0.5 0.625-0.75 0.375-0.473-0.023c3.851 2.907 8.645 4.631 13.842 4.631 6.137 0 11.708-2.408 15.832-6.324l-2.549 0.096-3.064 0.621s-1.477 0.793-1.656 0.754c-0.18-0.043 0.625-1.031 0.625-1.031l-1.439 0.09-0.904-0.75-0.91 0.621s-1.215 0.096-1.527 0.096c-0.316 0-0.723 0.563-0.723 0.563l-2.469-0.09-4.25 0.188-1.121 0.965-0.281 0.035-3.215-0.223-2.219 0.223-0.781-0.379 0.031-0.063s-0.652-1.32-0.652-1.5c0-0.176-0.5-0.621-0.5-0.621l-2e-3 -2e-3z" style="fill:#4c6ac2"/>
 <g transform="translate(1,1)"></g>
 <path d="m40.03 7.531c3.712 4.084 5.969 9.514 5.969 15.469 0 12.703-10.297 23-23 23-5.954 0-11.384-2.256-15.469-5.969 4.178 4.291 10.01 6.969 16.469 6.969 12.703 0 23-10.298 23-23 0-6.462-2.677-12.291-6.969-16.469z" style="opacity:.1"/>
 <path d="m15.5 12c-0.828 0-1.5 0.79344-1.5 1.7734v10.588 0.40234 1.0684l0.36523-0.49805 0.080078-0.5918 0.45898 0.55469 0.5625 0.34375-0.09375 0.69141-0.75 1.0234s-0.09375 1.4022-0.09375 1.5312c0 0.136-0.30859 1.0625-0.30859 1.0625l-0.2207 0.10742v6.1699c0 0.98 0.672 1.7715 1.5 1.7715s1.5-0.79148 1.5-1.7715v-7.2305h7.7461 0.64844 2.6055v-1h1.4805l0.085937-0.1875 0.8125-0.77734v-0.875l-0.19141-0.8125-0.12109-1.125 0.59375-0.93945 1.0645-1.3125 0.41016-0.40625 0.15039-0.53125 0.44141 0.12109 0.015626-0.015625-0.30078-0.39453-0.56445-0.73828-0.001953-0.001953 0.1582-0.1543-0.2832-0.47266 0.43359-0.40625 0.59375-0.15625 0.43359-0.53125 0.59961-0.34375 0.26758-0.46289 0.044922 0.021485 0.15625-0.25391 0.25-0.1543 0.14648 0.16992 0.30664-0.29883-0.23047 0.003907-0.25-0.28125-0.38281 0.08789-0.21484-0.24219-0.375-0.4375-0.17969 0.10938-0.19531-0.30274-0.064453-0.12305 0.007812 0.003907 0.40625-0.09375 0.25 0.28125 1.7832-0.035157-0.033203 0.035157 0.25781 0.22852 2.2383-2.1914h-7.877-0.45508-0.28516-0.32031-0.09375l-0.2793 0.097656-0.082031-0.097656h-2.1348-0.015625-0.41016l-0.046875 0.037109 0.001953 0.4375 0.003906 0.52148h-0.48242l-4.2891 0.001953h-1.3906l-2.8438 0.001953v-1.2266c0-0.98-0.672-1.7734-1.5-1.7734zm16.379 2.3652l0.27539 0.53125 0.34375 0.53516 0.37891 0.2168v0.5293l0.2793 0.26172-0.033203 0.054688-0.4043-0.1875-0.125-0.3125-0.28125-0.41016-0.43359-0.40625v-0.8125zm-2.7246 1.0371l0.17188 0.36523 0.33008 0.61914 0.076172 0.38086 0.40625 0.71875 0.3125 0.59375 0.28125 0.47461 0.15234 0.8125 0.65234 0.5 0.13281 0.26758-0.50586-0.14062-0.34375-0.5625-0.28125-0.5625-0.6543-0.5-0.15234-0.8125-0.28125-0.47656-0.3125-0.59375-0.40625-0.71875-0.056641-0.28516 0.41602 0.076172 0.0625-0.15625zm-6.7539 5.9023l0.5 0.0625 0.15234 0.31445 0.52539 0.03125 0.34961 0.25v0.46484l-0.029296-0.060546-0.5-0.0625-0.41016 0.1875h-1.5625l-0.089843 0.375-0.44141-0.09375-0.43359-0.375-0.50977-0.61328 0.38672 0.082032 0.089843-0.375h1.5625l0.41016-0.1875zm10.943 0.61328l-0.060547 0.11133-0.14844 0.53125-0.41016 0.40625-1.0645 1.3125-0.59375 0.93945 0.12109 1.125 0.19141 0.8125v0.26758l-0.21094 0.097656-0.3457 0.28125 0.14453 0.19531h0.41211 0.77344 0.82617c0.020962-0.022646 0.068855-0.061013 0.072265-0.072266v-0.43945l0.28125 0.001953 0.095703 0.43945v0.070313l4.5723 0.001953-4.6562-6.082z" style="opacity:.1"/>
 <path d="m15 14l12-4e-3v14h-12m0-14" style="fill:#de493d"/>
 <path d="m27 14h-1.074l-10.926 8.754v5.25h12m0-14" style="fill-opacity:.2"/>
 <path d="m14.5 11c0.828 0 1.5 0.793 1.5 1.773v22.453c0 0.98-0.672 1.773-1.5 1.773s-1.5-0.793-1.5-1.773v-22.453c0-0.98 0.672-1.773 1.5-1.773" style="fill:#fbb23c"/>
 <path d="m25 13l0.07 13.996 11.93 4e-3 -6.125-8 6.125-6m-12 0" style="fill:#de493d"/>
</svg>
