<svg version="1.1" viewBox="0 0 48 48" xmlns="http://www.w3.org/2000/svg">
 <defs>
  <linearGradient id="linearGradient4181" x1="24" x2="24.498" y1="1" y2="47.5" gradientUnits="userSpaceOnUse">
   <stop style="stop-color:#505050" offset="0"/>
   <stop style="stop-color:#464646" offset="1"/>
  </linearGradient>
 </defs>
 <path d="m36.31 5c5.859 4.062 9.688 10.831 9.688 18.5 0 12.426-10.07 22.5-22.5 22.5-7.669 0-14.438-3.828-18.5-9.688 1.037 1.822 2.306 3.499 3.781 4.969 4.085 3.712 9.514 5.969 15.469 5.969 12.703 0 23-10.298 23-23 0-5.954-2.256-11.384-5.969-15.469-1.469-1.475-3.147-2.744-4.969-3.781zm4.969 3.781c3.854 4.113 6.219 9.637 6.219 15.719 0 12.703-10.297 23-23 23-6.081 0-11.606-2.364-15.719-6.219 4.16 4.144 9.883 6.719 16.219 6.719 12.703 0 23-10.298 23-23 0-6.335-2.575-12.06-6.719-16.219z" style="opacity:.05"/>
 <path d="m41.28 8.781c3.712 4.085 5.969 9.514 5.969 15.469 0 12.703-10.297 23-23 23-5.954 0-11.384-2.256-15.469-5.969 4.113 3.854 9.637 6.219 15.719 6.219 12.703 0 23-10.298 23-23 0-6.081-2.364-11.606-6.219-15.719z" style="opacity:.1"/>
 <path d="m31.25 2.375c8.615 3.154 14.75 11.417 14.75 21.13 0 12.426-10.07 22.5-22.5 22.5-9.708 0-17.971-6.135-21.12-14.75a23 23 0 0 0 44.875-7 23 23 0 0 0-16-21.875z" style="opacity:.2"/>
 <g style="fill:url(#linearGradient4181)">
  <path d="m24 1c12.703 0 23 10.297 23 23s-10.297 23-23 23-23-10.297-23-23 10.297-23 23-23z"/>
 </g>
 <path d="m40.03 7.531c3.712 4.084 5.969 9.514 5.969 15.469 0 12.703-10.297 23-23 23-5.954 0-11.384-2.256-15.469-5.969 4.178 4.291 10.01 6.969 16.469 6.969 12.703 0 23-10.298 23-23 0-6.462-2.677-12.291-6.969-16.469z" style="opacity:.1"/>
 <ellipse cx="25" cy="25" rx="11" ry="11" style="opacity:.1"/>
 <path d="m24 13c-6.0751 0-11 4.9249-11 11 6e-3 3.2775 1.4732 6.3817 4.002 8.4668l3.998 2.1016c0.97529 0.28162 1.9849 0.42688 3 0.43164 1.0151-0.0048 2.0247-0.15002 3-0.43164l3.998-2.1016c2.5287-2.0851 3.9959-5.1893 4.002-8.4668-4.3e-5 -6.0751-4.9249-11-11-11z" style="fill:#f4d7d7"/>
 <path d="m27 25.5v9.0762a11 11 0 0 0 3.998-2.1094l0.001953-6.9668h-4zm-10 0.14648 0.001953 6.8203a11 11 0 0 0 3.998 2.1094v-8.9297h-4z" style="fill:#afdde9"/>
 <path d="m20 22c-1.6569 0-3 1.3431-3 3s1.3431 3 3 3 3-1.3431 3-3-1.3431-3-3-3zm10 0c-1.6569 0-3 1.3431-3 3s1.3431 3 3 3 3-1.3431 3-3-1.3431-3-3-3zm-5.0938 5c-0.67739-0.004079-1.352 0.19254-1.9062 0.60156-0.59935 0.44274-1 2.3984-1 2.3984h6s-0.5214-1.9448-1.1719-2.3984c-0.564-0.3927-1.2445-0.59748-1.9219-0.60156z" style="opacity:.1"/>
 <path d="m19 21c-1.6569 0-3 1.3431-3 3s1.3431 3 3 3 3-1.3431 3-3-1.3431-3-3-3zm10 0c-1.6569 0-3 1.3431-3 3s1.3431 3 3 3 3-1.3431 3-3-1.3431-3-3-3zm-5.0938 5c-0.67739-0.004079-1.352 0.19254-1.9062 0.60156-0.59935 0.44274-1 2.3984-1 2.3984h6s-0.5214-1.9448-1.1719-2.3984c-0.564-0.3927-1.2445-0.59748-1.9219-0.60156z" style="fill:#424242"/>
 <path d="m18 22c-0.55228 0-1 0.44772-1 1s0.44772 1 1 1 1-0.44772 1-1-0.44772-1-1-1zm10 0c-0.55228 0-1 0.44772-1 1s0.44772 1 1 1 1-0.44772 1-1-0.44772-1-1-1zm-5.25 5-0.75 1h4l-0.75-1z" style="fill:#f9f9f9"/>
</svg>
