<svg version="1.1" viewBox="0 0 48 48" xmlns="http://www.w3.org/2000/svg">
 <defs>
  <linearGradient id="bg" x2="0" y1="1" y2="47" gradientUnits="userSpaceOnUse">
   <stop style="stop-color:#434f60" offset="0"/>
   <stop style="stop-color:#3a4654" offset="1"/>
  </linearGradient>
 </defs>
 <path d="m36.31 5c5.859 4.062 9.688 10.831 9.688 18.5 0 12.426-10.07 22.5-22.5 22.5-7.669 0-14.438-3.828-18.5-9.688 1.037 1.822 2.306 3.499 3.781 4.969 4.085 3.712 9.514 5.969 15.469 5.969 12.703 0 23-10.298 23-23 0-5.954-2.256-11.384-5.969-15.469-1.469-1.475-3.147-2.744-4.969-3.781zm4.969 3.781c3.854 4.113 6.219 9.637 6.219 15.719 0 12.703-10.297 23-23 23-6.081 0-11.606-2.364-15.719-6.219 4.16 4.144 9.883 6.719 16.219 6.719 12.703 0 23-10.298 23-23 0-6.335-2.575-12.06-6.719-16.219z" style="opacity:.05"/>
 <path d="m41.28 8.781c3.712 4.085 5.969 9.514 5.969 15.469 0 12.703-10.297 23-23 23-5.954 0-11.384-2.256-15.469-5.969 4.113 3.854 9.637 6.219 15.719 6.219 12.703 0 23-10.298 23-23 0-6.081-2.364-11.606-6.219-15.719z" style="opacity:.1"/>
 <path d="m31.25 2.375c8.615 3.154 14.75 11.417 14.75 21.13 0 12.426-10.07 22.5-22.5 22.5-9.708 0-17.971-6.135-21.12-14.75a23 23 0 0 0 44.875-7 23 23 0 0 0-16-21.875z" style="opacity:.2"/>
 <circle cx="24" cy="24" r="23" style="fill:url(#bg)"/>
 <path d="m40.03 7.531c3.712 4.084 5.969 9.514 5.969 15.469 0 12.703-10.297 23-23 23-5.954 0-11.384-2.256-15.469-5.969 4.178 4.291 10.01 6.969 16.469 6.969 12.703 0 23-10.298 23-23 0-6.462-2.677-12.291-6.969-16.469z" style="opacity:.1"/>
 <path d="m26 13-8 10h-4l4 7-1-4 5.5 6.5-1.5 1.5 3 3h1l6-5v-2l2-2 2-7-2-5z" style="opacity:.1"/>
 <path d="m25 12 7 3 2 5-2 7-7.5 7.5-7.5-7.5v-10l2-3z" style="fill:#6a87c3"/>
 <path d="m23 32-2-3.5-2-1.5v-6h7.5l2.5 6-1 4z" style="fill:#f2e0b5"/>
 <path d="m20 33 2-2 1 1 7-3v2l-6 5h-1z" style="fill:#97add3"/>
 <path d="m17 17-3 2 3 3h-4l4 7-1-4h5l0.5-4h5l-1.7441-4z" style="fill:#b8b6af"/>
 <path d="m29 22-5 2v1l1.1035-0.44141c-0.067844 0.13727-0.10346 0.28829-0.10352 0.44141-2.01e-4 0.55228 0.44772 1 1 1s1.0002-0.44772 1-1c-1.52e-4 -0.41865-0.26146-0.79277-0.6543-0.9375l2.6543-1.0625v-1zm-10 1v1l1.2695 0.31836c-0.17288 0.18491-0.26943 0.4285-0.26953 0.68164-2.27e-4 0.55228 0.44772 1 1 1s1.0004-0.44772 1-1c-6e-5 -0.0871-0.012256-0.17378-0.035156-0.25781l0.53516 0.21289v0.54492l-1.5 1.5v0.5l1.5-1.5v1.5l0.5 0.5v-4l-4-1zm5.5 2.5v0.5l1.5 1.5v-0.5l-1.5-1.5zm-2.9277 4 0.28516 0.5h1.6426l2 0.5-0.5-0.5-1.5-0.5h-1.9277z" style="fill:#474747"/>
</svg>
