<svg version="1.1" viewBox="0 0 48 48" xmlns="http://www.w3.org/2000/svg">
 <defs>
  <linearGradient id="bg" x2="0" y1="1" y2="47" gradientUnits="userSpaceOnUse">
   <stop style="stop-color:#2b5a58" offset="0"/>
   <stop style="stop-color:#244c4a" offset="1"/>
  </linearGradient>
 </defs>
 <path d="m36.3 5c5.86 4.06 9.69 10.8 9.69 18.5 0 12.4-10.1 22.5-22.5 22.5-7.67 0-14.4-3.83-18.5-9.69 1.04 1.82 2.31 3.5 3.78 4.97 4.08 3.71 9.51 5.97 15.5 5.97 12.7 0 23-10.3 23-23 0-5.95-2.26-11.4-5.97-15.5-1.47-1.48-3.15-2.74-4.97-3.78zm4.97 3.78c3.85 4.11 6.22 9.64 6.22 15.7 0 12.7-10.3 23-23 23-6.08 0-11.6-2.36-15.7-6.22 4.16 4.14 9.88 6.72 16.2 6.72 12.7 0 23-10.3 23-23 0-6.34-2.58-12.1-6.72-16.2z" style="opacity:.05"/>
 <path d="m41.3 8.78c3.71 4.08 5.97 9.51 5.97 15.5 0 12.7-10.3 23-23 23-5.95 0-11.4-2.26-15.5-5.97 4.11 3.85 9.64 6.22 15.7 6.22 12.7 0 23-10.3 23-23 0-6.08-2.36-11.6-6.22-15.7z" style="opacity:.1"/>
 <path d="m31.2 2.38c8.62 3.15 14.8 11.4 14.8 21.1 0 12.4-10.1 22.5-22.5 22.5-9.71 0-18-6.14-21.1-14.8a23 23 0 0 0 44.9-7 23 23 0 0 0-16-21.9z" style="opacity:.2"/>
 <circle cx="24" cy="24" r="23" style="fill:url(#bg)"/>
 <path d="m15 11c-2.03 0-2.64 1.24-2.58 3h11.6c-2.78-1.93-5.66-3-9.03-3zm-2.48 4c0.047 0.321 0.122 0.66 0.195 1h8.94a10 10 0 0 0-1.65 1h-7.06c0.262 0.988 0.586 2.01 0.906 3 1.03 3.18 2.14 6 2.14 6s-0.578-4.07 0.0352-6c0.19-0.599 0.965-1 1.96-1 0.0059 0 0.0097-5e-6 0.0156 0a10 10 0 0 0-2.02 6 10 10 0 0 0 10 10 10 10 0 0 0 5.98-2h4.02c0-0.338-0.0276-0.668-0.0488-1h-2.82a10 10 0 0 0 0.855-1h1.88c-0.0417-0.335-0.0791-0.671-0.139-1-0.094-0.52-0.214-1.03-0.354-1.53a10 10 0 0 0 0.633-3.47 10 10 0 0 0-10-10 10 10 0 0 0-0.637 0.0234c-0.0092-0.0074-0.0181-0.0161-0.0273-0.0234h-12.8zm18.5 19c0 1-0.946 2-2 2-3 0-5-1-5-1s3 4 7 4c2.28 0 4.4-2.6 4.89-5z" style="opacity:.1"/>
 <path d="m40 7.53c3.71 4.08 5.97 9.51 5.97 15.5 0 12.7-10.3 23-23 23-5.95 0-11.4-2.26-15.5-5.97 4.18 4.29 10 6.97 16.5 6.97 12.7 0 23-10.3 23-23 0-6.46-2.68-12.3-6.97-16.5z" style="opacity:.1"/>
 <circle cx="25" cy="24" r="10" style="fill:#94de54"/>
 <path d="m20.7 15c-0.58 0.28-1.13 0.614-1.65 1h7.51c-0.398-0.352-0.795-0.682-1.19-1zm-2.79 2c-1.69 1.72-2.7 4-2.84 6.4 0.547 1.51 0.969 2.6 0.969 2.6s-0.578-4.07 0.0352-6c0.19-0.599 0.965-1 1.96-1 2 0 2.82 0.283 4.72 1h-2.72l-1 1v3l1 1h1l-2 2v4l1 1h10c0.705-0.905 1.06-1 2.13-1 1.23-1.26 2.11-2.82 2.55-4.53-0.968-2.38-2.41-4.56-4.14-6.47-0.997-1.1-1.97-2.08-2.93-3h-9.73z" style="opacity:.1"/>
 <path d="m19 19-1 1v3l1 1h1l-2 2v4l1 1h10l1-1v-1l-1.09-1.5 1.09-1.5v-3l-4-4z" style="fill:#499bcf"/>
 <path d="m19 20v3h5l1 1v1h-5l-1 1v4h10v-1l-1-1h-7v-1h7l1-1v-3l-3-3z" style="fill:#474747"/>
 <path d="m12.9 19c1.03 3.18 2.14 6 2.14 6s-0.578-4.07 0.0352-6l-1.04-1-1.14 1h-3e-5zm8.87 0c3.62 1.36 6.9 4.31 7.93 10l2.53 0.5 2.53-0.5c-0.687-3.8-2.63-7.18-5.19-10l-4.53-1-3.28 1h-5e-5z" style="fill:#b34ddb"/>
 <path d="m14 10c-2.03 0-2.64 1.24-2.58 3h11.6c-2.78-1.93-5.66-3-9.03-3zm-2.48 4c0.047 0.321 0.122 0.66 0.195 1h13.8c-0.398-0.352-0.795-0.682-1.19-1zm0.428 2c0.262 0.988 0.586 2.01 0.906 3h2.18c0.19-0.599 0.965-1 1.96-1 2 0 2.82 0.283 4.72 1h7.81c-0.997-1.1-1.97-2.08-2.93-3z" style="fill:#e54d4d"/>
 <path d="m29.7 29c0.0579 0.317 0.0888 0.666 0.133 1h5.07c-0.0417-0.335-0.0791-0.671-0.139-1h-5.06zm0.258 2c0.0267 0.319 0.0293 0.666 0.043 1h5.04c0-0.338-0.0276-0.668-0.0488-1h-5.04zm0.0859 2c0 1-0.946 2-2 2-3 0-5-1-5-1s3 4 7 4c2.28 0 4.4-2.6 4.89-5z" style="fill:#577de0"/>
</svg>
