<svg xmlns="http://www.w3.org/2000/svg" version="1.1" viewBox="0 0 48 48">
  <defs>
    <linearGradient id="bg" x2="0" y1="1" y2="47" gradientUnits="userSpaceOnUse">
      <stop style="stop-color:#7a97ff" offset="0"/>
      <stop style="stop-color:#68f" offset="1"/>
    </linearGradient>
  </defs>
  <path style="opacity:.05" d="m36.31 5c5.859 4.062 9.688 10.831 9.688 18.5 0 12.426-10.07 22.5-22.5 22.5-7.669 0-14.438-3.828-18.5-9.688 1.037 1.822 2.306 3.499 3.781 4.969 4.085 3.712 9.514 5.969 15.469 5.969 12.703 0 23-10.298 23-23 0-5.954-2.256-11.384-5.969-15.469-1.469-1.475-3.147-2.744-4.969-3.781zm4.969 3.781c3.854 4.113 6.219 9.637 6.219 15.719 0 12.703-10.297 23-23 23-6.081 0-11.606-2.364-15.719-6.219 4.16 4.144 9.883 6.719 16.219 6.719 12.703 0 23-10.298 23-23 0-6.335-2.575-12.06-6.719-16.219z"/>
  <path style="opacity:.1" d="m41.28 8.781c3.712 4.085 5.969 9.514 5.969 15.469 0 12.703-10.297 23-23 23-5.954 0-11.384-2.256-15.469-5.969 4.113 3.854 9.637 6.219 15.719 6.219 12.703 0 23-10.298 23-23 0-6.081-2.364-11.606-6.219-15.719z"/>
  <path style="opacity:.2" d="m31.25 2.375c8.615 3.154 14.75 11.417 14.75 21.13 0 12.426-10.07 22.5-22.5 22.5-9.708 0-17.971-6.135-21.12-14.75a23 23 0 0 0 44.875 -7 23 23 0 0 0 -16 -21.875z"/>
  <path style="fill:url(#bg)" d="m5.7517 38a23 23 0 1 1 36.496 0l-2.248 1h-32z"/>
  <path style="opacity:.1" d="m25 11c-3.866 0-7 3.134-7 7 .0013819 3.0945 2.0345 5.8209 5 6.7051v5.2949l-2.0098-.80469a2 2 0 1 0-.59766 1.2402l2.6074 1.5645v6l-2 1h8l-2-1v-4l2.6094-1.5664a2 2 0 1 0-.59766-1.2383l-2.0117.80469v-7.2988c2.9641-.88373 4.9969-3.6081 5-6.7012 0-3.866-3.134-7-7-7z"/>
  <path style="fill:#805030" d="m20 38 2-1v-6l-5-3v-1l5 2v-8h4v10l5-2v1l-5 3v4l2 1-4 1z"/>
  <circle style="fill:#172" cx="18" cy="28" r="2"/>
  <circle style="fill:#172" cx="30" cy="30" r="2"/>
  <circle style="fill:#172" cx="24" cy="17" r="7"/>
  <path style="fill:#994911" d="m7.4773 40a23 23 0 0 0 33.046 0l-.523-1h-32z"/>
  <path style="fill:#7a9722" d="m5.7517 38a23 23 0 0 0 1.7256 2h33.046a23 23 0 0 0 1.725 -2z"/>
  <path style="opacity:.1" d="m40.03 7.531c3.712 4.084 5.969 9.514 5.969 15.469 0 12.703-10.297 23-23 23-5.954 0-11.384-2.256-15.469-5.969 4.178 4.291 10.01 6.969 16.469 6.969 12.703 0 23-10.298 23-23 0-6.462-2.677-12.291-6.969-16.469z"/>
</svg>
