<svg version="1.1" viewBox="0 0 48 48" xmlns="http://www.w3.org/2000/svg">
 <defs>
  <linearGradient id="bg" x2="0" y1="1" y2="47" gradientUnits="userSpaceOnUse">
   <stop style="stop-color:#c04325" offset="0"/>
   <stop style="stop-color:#af3d22" offset="1"/>
  </linearGradient>
 </defs>
 <path d="m36.3 5c5.86 4.06 9.69 10.8 9.69 18.5 0 12.4-10.1 22.5-22.5 22.5-7.67 0-14.4-3.83-18.5-9.69 1.04 1.82 2.31 3.5 3.78 4.97 4.08 3.71 9.51 5.97 15.5 5.97 12.7 0 23-10.3 23-23 0-5.95-2.26-11.4-5.97-15.5-1.47-1.48-3.15-2.74-4.97-3.78zm4.97 3.78c3.85 4.11 6.22 9.64 6.22 15.7 0 12.7-10.3 23-23 23-6.08 0-11.6-2.36-15.7-6.22 4.16 4.14 9.88 6.72 16.2 6.72 12.7 0 23-10.3 23-23 0-6.34-2.58-12.1-6.72-16.2z" style="opacity:.05"/>
 <path d="m41.3 8.78c3.71 4.08 5.97 9.51 5.97 15.5 0 12.7-10.3 23-23 23-5.95 0-11.4-2.26-15.5-5.97 4.11 3.85 9.64 6.22 15.7 6.22 12.7 0 23-10.3 23-23 0-6.08-2.36-11.6-6.22-15.7z" style="opacity:.1"/>
 <path d="m31.2 2.38c8.62 3.15 14.8 11.4 14.8 21.1 0 12.4-10.1 22.5-22.5 22.5-9.71 0-18-6.14-21.1-14.8a23 23 0 0 0 44.9-7 23 23 0 0 0-16-21.9z" style="opacity:.2"/>
 <circle cx="24" cy="24" r="23" style="fill:url(#bg)"/>
 <path d="m40 7.53c3.71 4.08 5.97 9.51 5.97 15.5 0 12.7-10.3 23-23 23-5.95 0-11.4-2.26-15.5-5.97 4.18 4.29 10 6.97 16.5 6.97 12.7 0 23-10.3 23-23 0-6.46-2.68-12.3-6.97-16.5z" style="opacity:.1"/>
 <path d="m19.6 12.5c-3.06 1.41-6.6 4.01-6.6 8.55 0 4 2 11 2 11l4 1 2 6 3-1h2l3 1 2-6 4-1s2-7 2-11c0-4.54-3.54-7.14-6.6-8.55z" style="opacity:.1"/>
 <path d="m23 10s-11 2-11 10c0 4 2 11 2 11l4 1 2 6 3-1 1-1 1 1 3 1 2-6 4-1s2-7 2-11c0-8-11-10-11-10z" style="fill:#ebebeb"/>
 <path d="m18 15v2l-1 5h3v-7zm10 0v7h3l-1-5v-2z" style="fill:#dc1919"/>
 <path d="m24 9c-1.87 0.519-4.5 1-6.5 3h5.5v15h2v-15h5.5c-2-2-4.63-2.48-6.5-3z" style="fill:#886868"/>
 <path d="m24 9a3 2 0 0 0-3 2 3 2 0 0 0 3 2 3 2 0 0 0 3-2 3 2 0 0 0-3-2zm0 6a3 3 0 0 0-3 3 3 3 0 0 0 3 3 3 3 0 0 0 3-3 3 3 0 0 0-3-3z" style="fill:#ad9494"/>
 <path d="m18 20c-2 0-4 1-4 2 0 2 1 5 3 5s5-0.205 5-2c0-2-3-5-4-5zm12 0c-1 0-4 3-4 5 0 1.8 3 2 5 2s3-3 3-5c0-1-2-2-4-2zm-6 6-1 1s-2 2-2 6c0 1 2 1 2 1v3h2v-3s2 0 2-1c0-3-2-6-2-6z" style="fill:#474747"/>
 <path d="m18 20c-2 0-4 1-4 2 0 1.65 0.678 3.97 2.03 4.74-0.687-1.05-1.03-2.57-1.03-3.74 0-1 2-2 4-2 0.32 0 0.845 0.31 1.41 0.793-0.883-1.02-1.9-1.79-2.41-1.79zm12 0c-1 0-4 3-4 5 0 0.68 0.431 1.13 1.07 1.43-0.0429-0.133-0.0742-0.273-0.0742-0.43 0-2 3-5 4-5 1.09 0 2.18 0.299 2.95 0.732-0.312-0.903-2.13-1.73-3.95-1.73zm-6 6-1 1s-2 2-2 6c0 0.501 0.503 0.75 1 0.875 0.0421-3.91 2-5.88 2-5.88l1-1-1-1zm-1 8.88v2.12h1v-2s-0.5 0-1-0.125z" style="opacity:.1"/>
</svg>
