<svg version="1.1" viewBox="0 0 48 48" xmlns="http://www.w3.org/2000/svg">
 <defs>
  <linearGradient id="bg" x2="0" y1="1" y2="47" gradientUnits="userSpaceOnUse">
   <stop style="stop-color:#31485b" offset="0"/>
   <stop style="stop-color:#2a3e4e" offset="1"/>
  </linearGradient>
 </defs>
 <path d="m36.31 5c5.859 4.062 9.688 10.831 9.688 18.5 0 12.426-10.07 22.5-22.5 22.5-7.669 0-14.438-3.828-18.5-9.688 1.037 1.822 2.306 3.499 3.781 4.969 4.085 3.712 9.514 5.969 15.469 5.969 12.703 0 23-10.298 23-23 0-5.954-2.256-11.384-5.969-15.469-1.469-1.475-3.147-2.744-4.969-3.781zm4.969 3.781c3.854 4.113 6.219 9.637 6.219 15.719 0 12.703-10.297 23-23 23-6.081 0-11.606-2.364-15.719-6.219 4.16 4.144 9.883 6.719 16.219 6.719 12.703 0 23-10.298 23-23 0-6.335-2.575-12.06-6.719-16.219z" style="opacity:.05"/>
 <path d="m41.28 8.781c3.712 4.085 5.969 9.514 5.969 15.469 0 12.703-10.297 23-23 23-5.954 0-11.384-2.256-15.469-5.969 4.113 3.854 9.637 6.219 15.719 6.219 12.703 0 23-10.298 23-23 0-6.081-2.364-11.606-6.219-15.719z" style="opacity:.1"/>
 <path d="m31.25 2.375c8.615 3.154 14.75 11.417 14.75 21.13 0 12.426-10.07 22.5-22.5 22.5-9.708 0-17.971-6.135-21.12-14.75a23 23 0 0 0 44.875-7 23 23 0 0 0-16-21.875z" style="opacity:.2"/>
 <circle cx="24" cy="24" r="23" style="fill:url(#bg)"/>
 <path d="m27 11c-2.6569 0-5.0228 1.2458-6.9395 3.2988-1.02-0.77564-2.0605-1.2988-2.0605-1.2988s1.0005 1.5796 0.64453 2.6953c-1.2566-0.15264-2.6445 1.3047-2.6445 1.3047s1.3512-0.15317 2 0c0.01765 0.0042 0.04227 0.01656 0.06055 0.02148-1.9273 3.2669-3.0606 7.5293-3.0606 11.979 0 4 1 7.0006 2 8.5176 0.20375 0.30907 1 0.48242 1 0.48242s-0.62772-0.68521-1-2c1 1.5832 2 3 2 3h1s-0.17175-0.55103-0.36523-1.2617c0.49536-0.19511 1.2231-0.45274 2.3652-0.73828 4-1 4-1 8 0 0.45733 0.11433 1 1 1 1l1-2 1 2s2-3 2-10c0-8-1-17-8-17z" style="opacity:.1"/>
 <path d="m40.03 7.531c3.712 4.084 5.969 9.514 5.969 15.469 0 12.703-10.297 23-23 23-5.954 0-11.384-2.256-15.469-5.969 4.178 4.291 10.01 6.969 16.469 6.969 12.703 0 23-10.298 23-23 0-6.462-2.677-12.291-6.969-16.469z" style="opacity:.1"/>
 <path d="m18 37s1.0597-0.51493 3-1c4-1 4-1 8 0 0.45733 0.11433 1 1 1 1l1-2 1 2 1-5v-6l-12-9-5 5v11z" style="fill:#573004"/>
 <circle cx="32" cy="28" r="1" style="fill:#ffdbb3;paint-order:stroke fill markers"/>
 <path d="m19 28s1 5 6 5c6 0 7-5 7-5v-11h-14z" style="fill:#ffdbb3"/>
 <path d="m23.225 22.096c-0.20409 0.0075-0.46872 0.04187-0.70703 0.15039-0.59565 0.27126-0.96875 0.65625-0.96875 0.65625l0.19922 0.19531s0.34152-0.34938 0.88672-0.59766c0.37083-0.16887 0.9043-0.11523 0.9043-0.11523l0.0332-0.27734s-0.14356-0.01926-0.34766-0.01172zm-0.22461 1.9043c-0.55228 0-1 0.67157-1 1.5s0.44772 1.5 1 1.5 1-0.67157 1-1.5-0.44772-1.5-1-1.5zm-0.01563 0.25c0.41421 0 0.75 0.55964 0.75 1.25s-0.33579 1.25-0.75 1.25-0.75-0.55964-0.75-1.25 0.33579-1.25 0.75-1.25zm5.4824 3.7127-0.23828 0.15039s0.05158 0.07968 0.0918 0.17578c0.02011 0.04805 0.03657 0.09999 0.04297 0.13867 0.0064 0.03869-0.0019 0.06017 0 0.05664-0.05727 0.10603-0.17417 0.17074-0.33984 0.20898-0.16567 0.03825-0.36558 0.04344-0.53906 0.04297-0.42052-0.0011-0.9043-0.30273-0.9043-0.30274l-0.15234 0.23438s0.50911 0.34813 1.0547 0.34961c0.17848 4.84e-4 0.39688-0.0031 0.60352-0.05078 0.20664-0.0477 0.4154-0.14595 0.52539-0.34961 0.044-0.08146 0.03927-0.16231 0.02734-0.23438-0.01192-0.07206-0.03517-0.14053-0.06055-0.20117-0.05075-0.12128-0.11133-0.21875-0.11133-0.21875zm-1.9258 2.1506c-0.56896 0.0059-1.084 0.17188-1.084 0.17188l0.08594 0.26758s0.48421-0.15289 1-0.1582c0.42948-0.0044 1.0508 0.12305 1.0508 0.12305l0.05859-0.27344s-0.62549-0.13585-1.1113-0.13086zm0.30664 0.49805-0.43164 0.03711 0.02344 0.2793 0.43359-0.03906z" style="opacity:.6"/>
 <path d="m26 10c-2.6569 0-5.0228 1.2458-6.9395 3.2988-1.02-0.77564-2.0605-1.2988-2.0605-1.2988s1.0005 1.5796 0.64453 2.6953c-1.2566-0.15264-2.6445 1.3047-2.6445 1.3047s1.3512-0.15317 2 0c0.01765 0.0042 0.04227 0.01656 0.06055 0.02148-1.9273 3.2669-3.0606 7.5293-3.0606 11.979 0 4 1 7 2 8.5169 0.20375 0.30907 1 0.48305 1 0.48305s-0.62772-0.68521-1-2c1 1.5832 2 3 2 3h1s-1-3-1-5v-5h2s-1-2-1-4v-2s2 0 2-4c3 9 12 9 12 9 0 5-1 10-1 10s2-3 2-10c0-8-1-17-8-17z" style="fill:#834806"/>
 <circle cx="18.5" cy="28.5" r="1.5" style="fill:#ffdbb3;paint-order:stroke fill markers"/>
</svg>
