<svg version="1.1" viewBox="0 0 48 48" xmlns="http://www.w3.org/2000/svg">
 <defs>
  <linearGradient id="bg" x2="0" y1="1" y2="47" gradientUnits="userSpaceOnUse">
   <stop style="stop-color:#325fc8" offset="0"/>
   <stop style="stop-color:#2e56b8" offset="1"/>
  </linearGradient>
 </defs>
 <path d="m36.3 5c5.86 4.06 9.69 10.8 9.69 18.5 0 12.4-10.1 22.5-22.5 22.5-7.67 0-14.4-3.83-18.5-9.69 1.04 1.82 2.31 3.5 3.78 4.97 4.08 3.71 9.51 5.97 15.5 5.97 12.7 0 23-10.3 23-23 0-5.95-2.26-11.4-5.97-15.5-1.47-1.48-3.15-2.74-4.97-3.78zm4.97 3.78c3.85 4.11 6.22 9.64 6.22 15.7 0 12.7-10.3 23-23 23-6.08 0-11.6-2.36-15.7-6.22 4.16 4.14 9.88 6.72 16.2 6.72 12.7 0 23-10.3 23-23 0-6.34-2.58-12.1-6.72-16.2z" style="opacity:.05"/>
 <path d="m41.3 8.78c3.71 4.08 5.97 9.51 5.97 15.5 0 12.7-10.3 23-23 23-5.95 0-11.4-2.26-15.5-5.97 4.11 3.85 9.64 6.22 15.7 6.22 12.7 0 23-10.3 23-23 0-6.08-2.36-11.6-6.22-15.7z" style="opacity:.1"/>
 <path d="m31.2 2.38c8.62 3.15 14.8 11.4 14.8 21.1 0 12.4-10.1 22.5-22.5 22.5-9.71 0-18-6.14-21.1-14.8a23 23 0 0 0 44.9-7 23 23 0 0 0-16-21.9z" style="opacity:.2"/>
 <circle cx="24" cy="24" r="23" style="fill:url(#bg)"/>
 <path d="m21.5 9c-2.5788 10.246-4.6523 15.966-9 23.5h1c-0.16836 0.56154-0.15641 1.3814 0 2 0.71234-0.05945 1.102-0.2156 1.5-0.5 0 1 0 1.2481 0.5 2 0.75685-0.22182 1.478-0.92088 2-1.5 0.35159 1.3541 0.83075 1.5802 2.5 2 0 0 0.14537 1.5 1 1.5 0.57918 0 1.6618-0.03682 3-2.5-0.01391 1.3393 1.7668 1.889 3 2.5 0.4596-0.79216 0.85515-0.73855 1-3 1.2994 0.83083 5 1 5 1s-0.27958-0.18685-0.5-1.5c0.98163 0.53498 1.3106 0.55955 2.5 1.5 0.38446-4.5169 0.53695-5.4633-0.5-7.5 1.47-0.0055 1.4493-0.06384 3.5-1.0001-1-2.4999-1.4786-3.6082-2-4.9999l1-7.5-3.5 1v-3l-4.5 1-1.5-4-3.5 3.5z" style="opacity:.1"/>
 <path d="m20.5 8c-0.49899 1.7345-1.5 5.5283-2 6-0.93004 0.87735-4.5 3-4.5 3 0.67256 1.4954-0.41256 2.0594-1 2.5-2 1.5-2.4162 1.7879-4 3 0.042532 1.5 0.76468 2.5 1.52 2.5 0.31335 0.75936 0.87279 2.1701 1.48 4-0.56133 0.29937-0.70305 1.8842-0.5 2.5h1c-0.16836 0.56154-0.15641 1.3814 0 2 0.71234-0.05945 1.102-0.2156 1.5-0.5 0 1 0 1.2481 0.5 2 0.75685-0.22182 1.478-0.92088 2-1.5 0.35159 1.3541 0.83075 1.5802 2.5 2 0 0 0.14537 1.5 1 1.5 0.57918 0 1.6618-0.03682 3-2.5-0.01391 1.3393 1.7668 1.889 3 2.5 0.4596-0.79216 0.85515-0.73855 1-3 1.2994 0.83083 5 1 5 1s-0.27958-0.18685-0.5-1.5c0.98163 0.53498 1.3106 0.55955 2.5 1.5 0.38446-4.5169 0.53695-5.4633-0.5-7.5 1.47-0.0055 1.4493-0.06384 3.5-1.0001-1-2.4999-1.4786-3.6082-2-4.9999l1-7.5-3.5 1v-3l-4.5 1-1.5-4-3.5 3.5z" style="fill:#293856"/>
 <path d="m21 12-1.0002 3.5 4.5 2.5c1.194-0.615 1.185-1.3935 4.5-1.5 0.81648 1.0756 1.0409 1.4323 1.5 3.5l2.5002 1 1-5-3 1v-3l-4 1-1-3-3 3zm-2 4c-1.005 0-3 2-3 2 0.5805 1.2075-0.51143 1.6223-1 2-1.5739 1.2168-2.7852 1.965-4.0002 3 0.01035 0.54714 2.02e-4 1 1.0002 1 0.279-0.0108 0.772-0.5165 1-0.5 0.3825-0.03015 0.0459 0.93303 0 1.5h-1c-0.34314 0.33413 0.775 1.98 1 3h1.5c0.08472 0.41634 0.5273 1.1535 0.9998 1.5 0.27197-0.22769 0.2841-0.22515 0.5002-0.5 1.1198 1.1804 3.6369 0.08306 3.9998 1e-6 -0.048 0.792-1.4248 1.76-1.4998 2-0.07155 0.2655 0.3741 0.882 0 1.5-1.4967 1.8904 1 1 1 1s0.26246 1.5 1.0001 1.5c0.4999 0 1.3448-1.011 2.4998-3-0.012 1.0815 1.4357 2.5066 2.5001 3 0.39669-0.63966 0.6753-1.0815 0.4998-3 0.7365 0.939 4.5 1.5 4.5 1.5s-0.699-1.65-1.5-3c1.92 0.246 2.7852 1.606 4.0002 2.5 0.33183-3.6474-0.8697-5.363-2.5002-7 1.26 0.0813 2.73 0.756 4.5 0-2.1472-5.729-4.4445-5.3752-6.9998-4-0.315-0.14805-0.3905-0.2575-0.5-1-0.756 0.255-1.5002 0.5-1.5002 0.5 0-1.1565 1.4025-3.255 3-3-0.456-2.805-4.305 0.2135-4.5 0.5-1.8164-0.99895-4.4998-3-5.4998-3zm2 5-1.5 1c-0.615 0.3435-0.30861 1.1201-1 1.5-0.61061 0.3355-1.1235-2e-3 -1.5-0.5h-1c0.33382-0.57345 0.8125-1.0545 1-1.5v-0.5zm-7 8c-0.73053-0.02859-1.221 0.87291-1 1.5h0.5c-0.2085 0.441-0.135 0.7005 0 1.2 0.59468 0.02401 0.8565-0.17035 1.2-0.4v0.7c0.01613 0.53589 0.16808 0.76892 0.3 1 0.6699-0.41522 1-0.65056 1.5-1.5 0.02828 0.22049 0.062 0.33978 0.5 0.5l0.5-1.5c-0.354-0.261-0.987-0.3605-1.5-0.5-1 0.09099-1.359-0.29988-2-1z" style="fill:#ffdb36"/>
 <path d="m40 7.53c3.71 4.08 5.97 9.51 5.97 15.5 0 12.7-10.3 23-23 23-5.95 0-11.4-2.26-15.5-5.97 4.18 4.29 10 6.97 16.5 6.97 12.7 0 23-10.3 23-23 0-6.46-2.68-12.3-6.97-16.5z" style="opacity:.1"/>
</svg>
