<svg version="1.1" viewBox="0 0 48 48" xmlns="http://www.w3.org/2000/svg">
 <defs>
  <linearGradient id="bg" x2="0" y1="1" y2="47" gradientUnits="userSpaceOnUse">
   <stop stop-color="#a0a0a8" offset="0"/>
   <stop stop-color="#96969e" offset="1"/>
  </linearGradient>
 </defs>
 <path d="m36.31 5c5.859 4.062 9.688 10.831 9.688 18.5 0 12.426-10.07 22.5-22.5 22.5-7.669 0-14.438-3.828-18.5-9.688 1.037 1.822 2.306 3.499 3.781 4.969 4.085 3.712 9.514 5.969 15.469 5.969 12.703 0 23-10.298 23-23 0-5.954-2.256-11.384-5.969-15.469-1.469-1.475-3.147-2.744-4.969-3.781zm4.969 3.781c3.854 4.113 6.219 9.637 6.219 15.719 0 12.703-10.297 23-23 23-6.081 0-11.606-2.364-15.719-6.219 4.16 4.144 9.883 6.719 16.219 6.719 12.703 0 23-10.298 23-23 0-6.335-2.575-12.06-6.719-16.219z" opacity=".05"/>
 <path d="m41.28 8.781c3.712 4.085 5.969 9.514 5.969 15.469 0 12.703-10.297 23-23 23-5.954 0-11.384-2.256-15.469-5.969 4.113 3.854 9.637 6.219 15.719 6.219 12.703 0 23-10.298 23-23 0-6.081-2.364-11.606-6.219-15.719z" opacity=".1"/>
 <path d="m31.25 2.375c8.615 3.154 14.75 11.417 14.75 21.13 0 12.426-10.07 22.5-22.5 22.5-9.708 0-17.971-6.135-21.12-14.75a23 23 0 0 0 44.875-7 23 23 0 0 0-16-21.875z" opacity=".2"/>
 <path d="m24 1c-5.0634 0.00231-9.9845 1.6754-14 4.7598l-1 2.2402-2.3691 1c-0.99374 1.1254-1.8749 2.3454-2.6309 3.6426-1.8988 7.4526-1.8988 15.262 0 22.715 0.74317 1.3087 1.6039 2.526 2.5645 3.6426l2.4355 1 1 2.248c3.9525 3.0315 8.8531 4.7519 14 4.752 5.0634-0.0023 9.9845-1.6754 14-4.7598l1-2.2402 2.3691-1c0.99374-1.1254 1.8749-2.3454 2.6309-3.6426 1.8988-7.4526 1.8988-15.262 0-22.715-0.75596-1.2971-1.6371-2.5172-2.6309-3.6426l-2.3691-1-1-2.2402c-4.0155-3.0844-8.9366-4.7575-14-4.7598z" style="fill:url(#bg)"/>
 <path d="m23 1.0352a23 23 0 0 0-2 0.1875v6.7773h-4v-5.8809a23 23 0 0 0-2 0.74219v5.1387h-4v-2.9434a23 23 0 0 0-2 1.5449v1.3984h-1.4883a23 23 0 0 0-1.7246 2h3.2129c0 6-1 9-1 15s1 9 1 15h-1.5215a23 23 0 0 0 3.5215 2.9727v-0.97266h4v3.1621a23 23 0 0 0 2 0.73633v-3.8984h4v4.7793a23 23 0 0 0 2 0.16992v-4.9492h4v4.7773a23 23 0 0 0 2-0.35547v-4.4219h4v3.1387a23 23 0 0 0 2-0.96484v-2.1738h3.3145a23 23 0 0 0 2.6973-2.5605c0.061776-5.6165 0.98828-8.6377 0.98828-14.439 0-6-1-9-1-15h1.2285a23 23 0 0 0-3.2285-3.4199v1.4199h-4v-4.1973a23 23 0 0 0-2-0.96484v5.1621h-4v-6.4316a23 23 0 0 0-2-0.34766v6.7793h-4v-6.9648zm-12 8.9648h4c0 8-3 9-3 15s3 7 3 15h-4c0-6-1-9-1-15s1-9 1-15zm6 0h4c0 2.5-1.5 4.5-2.5 5.5l0.5 0.5 2-1c1-1 2-3 2-5h4c0 2 1 4 2 5l2 1 0.5-0.5c-1-1-2.5-3-2.5-5.5h4c0 8 3 9 3 15s-3 7-3 15h-4c0-2.5 1.5-4.5 2.5-5.5l-0.5-0.5-2 1c-1 1-2 3-2 5h-4c0-2-1-4-2-5l-2-1-0.5 0.5c1 1 2.5 3 2.5 5.5h-4c0-8-3-9-3-15s3-7 3-15zm18 0h4c0 6 1 9 1 15s-1 9-1 15h-4c0-8 3-9 3-15s-3-7-3-15zm-30 1.043a23 23 0 0 0-4 12.957 23 23 0 0 0 4 12.922v-25.879zm40 3.6445v18.65a23 23 0 0 0 2-9.3379 23 23 0 0 0-2-9.3125z" opacity=".1"/>
 <path d="m26 1.0996v5.9004h-4v-5.8984a23 23 0 0 0-2 0.25195v5.6465h-4v-4.5488a23 23 0 0 0-2 0.85742v3.6914h-4v-1.2285a23 23 0 0 0-3.4199 3.2285h1.4199c0 6-1 9-1 15s1 9 1 15h-1.3984a23 23 0 0 0 3.3984 3.2129v-1.2129h4v3.6797a23 23 0 0 0 2 0.85352v-4.5332h4v5.627a23 23 0 0 0 2 0.27344v-5.9004h4v5.8984a23 23 0 0 0 2-0.25195v-5.6465h4v4.5488a23 23 0 0 0 2-0.85742v-3.6914h4v1.2285a23 23 0 0 0 3.4199-3.2285h-1.4199c0-6 1-9 1-15s-1-9-1-15h1.3984a23 23 0 0 0-3.3984-3.2129v1.2129h-4v-3.6797a23 23 0 0 0-2-0.85352v4.5332h-4v-5.627a23 23 0 0 0-2-0.27344zm-16 7.9004h4c0 8-3 9-3 15s3 7 3 15h-4c0-6-1-9-1-15s1-9 1-15zm6 0h4c0 2.5-1.5 4.5-2.5 5.5l0.5 0.5 2-1c1-1 2-3 2-5h4c0 2 1 4 2 5l2 1 0.5-0.5c-1-1-2.5-3-2.5-5.5h4c0 8 3 9 3 15s-3 7-3 15h-4c0-2.5 1.5-4.5 2.5-5.5l-0.5-0.5-2 1c-1 1-2 3-2 5h-4c0-2-1-4-2-5l-2-1-0.5 0.5c1 1 2.5 3 2.5 5.5h-4c0-8-3-9-3-15s3-7 3-15zm18 0h4c0 6 1 9 1 15s-1 9-1 15h-4c0-8 3-9 3-15s-3-7-3-15zm-30 3.6738a23 23 0 0 0-3 11.326 23 23 0 0 0 3 11.301v-22.627zm40 0.025391v22.627a23 23 0 0 0 3-11.326 23 23 0 0 0-3-11.301z" style="fill:#383838"/>
 <path d="m40.03 7.531c3.712 4.084 5.969 9.514 5.969 15.469 0 12.703-10.297 23-23 23-5.954 0-11.384-2.256-15.469-5.969 4.178 4.291 10.01 6.969 16.469 6.969 12.703 0 23-10.298 23-23 0-6.462-2.677-12.291-6.969-16.469z" opacity=".1"/>
</svg>
