<svg xmlns="http://www.w3.org/2000/svg" viewBox="0 0 48 48">
 <defs>
  <linearGradient id="linearGradient3764" x1="1" x2="47" gradientUnits="userSpaceOnUse" gradientTransform="matrix(0,-1,1,0,-1.5e-6,47.999998)">
   <stop style="stop-color:#61c963;stop-opacity:1"/>
   <stop offset="1" style="stop-color:#70ce72;stop-opacity:1"/>
  </linearGradient>
 </defs>
 <g>
  <path d="m 36.31 5 c 5.859 4.062 9.688 10.831 9.688 18.5 c 0 12.426 -10.07 22.5 -22.5 22.5 c -7.669 0 -14.438 -3.828 -18.5 -9.688 c 1.037 1.822 2.306 3.499 3.781 4.969 c 4.085 3.712 9.514 5.969 15.469 5.969 c 12.703 0 23 -10.298 23 -23 c 0 -5.954 -2.256 -11.384 -5.969 -15.469 c -1.469 -1.475 -3.147 -2.744 -4.969 -3.781 z m 4.969 3.781 c 3.854 4.113 6.219 9.637 6.219 15.719 c 0 12.703 -10.297 23 -23 23 c -6.081 0 -11.606 -2.364 -15.719 -6.219 c 4.16 4.144 9.883 6.719 16.219 6.719 c 12.703 0 23 -10.298 23 -23 c 0 -6.335 -2.575 -12.06 -6.719 -16.219 z" style="opacity:0.05"/>
  <path d="m 41.28 8.781 c 3.712 4.085 5.969 9.514 5.969 15.469 c 0 12.703 -10.297 23 -23 23 c -5.954 0 -11.384 -2.256 -15.469 -5.969 c 4.113 3.854 9.637 6.219 15.719 6.219 c 12.703 0 23 -10.298 23 -23 c 0 -6.081 -2.364 -11.606 -6.219 -15.719 z" style="opacity:0.1"/>
  <path d="m 31.25 2.375 c 8.615 3.154 14.75 11.417 14.75 21.13 c 0 12.426 -10.07 22.5 -22.5 22.5 c -9.708 0 -17.971 -6.135 -21.12 -14.75 a 23 23 0 0 0 44.875 -7 a 23 23 0 0 0 -16 -21.875 z" style="opacity:0.2"/>
 </g>
 <g>
  <path d="m 24 1 c 12.703 0 23 10.297 23 23 c 0 12.703 -10.297 23 -23 23 -12.703 0 -23 -10.297 -23 -23 0 -12.703 10.297 -23 23 -23 z" style="fill:url(#linearGradient3764);fill-opacity:1"/>
 </g>
 <g>
  <path d="m 40.03 7.531 c 3.712 4.084 5.969 9.514 5.969 15.469 0 12.703 -10.297 23 -23 23 c -5.954 0 -11.384 -2.256 -15.469 -5.969 4.178 4.291 10.01 6.969 16.469 6.969 c 12.703 0 23 -10.298 23 -23 0 -6.462 -2.677 -12.291 -6.969 -16.469 z" style="opacity:0.1"/>
 </g>
 <g transform="matrix(0.70106842,0,0,0.70106842,7.9968158,6.0497843)" style="fill:#000;opacity:0.1;fill-opacity:1">
  <g transform="matrix(0.84407603,0,0,0.84407603,-44.495647,-4.7809047)">
   <g>
    <path d="m 25.559 11 l 0 0.002 c -1.626 -0.085 -2.544 1.259 -3.242 3.082 a 2.738 2.738 0 0 0 -1.729 -0.617 a 2.738 2.738 0 0 0 -2.738 2.738 a 2.738 2.738 0 0 0 2.738 2.738 a 2.738 2.738 0 0 0 0.184 -0.008 c -0.69 1.968 -1.256 2.942 -1.5 4.678 c -0.062 0.442 -0.055 0.897 -0.031 1.355 c -0.394 0.112 -0.721 0.297 -0.906 0.555 c -0.388 0.541 -0.188 1.714 -0.199 3.107 c -0.009 1.134 0.109 2.3 0.076 3.557 c -0.009 0.334 -0.005 0.624 -0.002 0.918 c -0.172 1.313 -0.348 2.754 -0.539 4.221 c 2.156 1.07 4.584 1.672 7.154 1.672 c 2.712 0 5.266 -0.671 7.51 -1.854 c -0.353 -1.259 -0.697 -2.438 -0.994 -3.34 c -1.214 -3.681 -1.941 -11.303 -1.941 -11.303 c 0 0 0.016 -0.881 -0.031 -1.951 c -0.002 -0.047 -0.006 -0.108 -0.008 -0.156 a 3.22 3.084 0 0 0 2.867 -3.063 a 3.22 3.084 0 0 0 -3.221 -3.084 a 3.22 3.084 0 0 0 -0.459 0.035 c -0.536 -1.796 -1.433 -3.202 -2.988 -3.283 z" transform="matrix(1.6898884,0,0,1.6898884,39.201486,-4.5593916)" style="visibility:visible;shape-rendering:auto;color-interpolation-filters:linearRGB;opacity:1;image-rendering:auto;stroke:none;display:inline;color:#000;fill-rule:evenodd;color-rendering:auto;color-interpolation:sRGB"/>
   </g>
  </g>
 </g>
 <path isolation="auto" mix-blend-mode="normal" d="M 22.326 15.311 A 2.738 2.738 0 0 1 19.588 18.05 2.738 2.738 0 0 1 16.85 15.311 a 2.738 2.738 0 0 1 2.738 -2.738 2.738 2.738 0 0 1 2.738 2.738 z" solid-opacity="1" solid-color="#000000" style="visibility:visible;shape-rendering:auto;color-interpolation-filters:linearRGB;fill:#eee;opacity:1;image-rendering:auto;fill-opacity:1;stroke:none;display:inline;color:#000;fill-rule:evenodd;color-rendering:auto;color-interpolation:sRGB"/>
 <path d="m 20.936 12.93 c 0.52 0.52 0.814 1.229 0.814 1.965 -0.001 1.532 -1.243 2.774 -2.775 2.773 -0.375 -0.001 -0.759 -0.079 -1.104 -0.227 a 2.738 2.738 0 0 0 1.717 0.607 2.738 2.738 0 0 0 2.738 -2.738 2.738 2.738 0 0 0 -1.391 -2.381 z" isolation="auto" solid-opacity="1" mix-blend-mode="normal" solid-color="#000000" style="visibility:visible;shape-rendering:auto;color-interpolation-filters:linearRGB;fill:#ddd;opacity:1;image-rendering:auto;fill-opacity:1;stroke:none;display:inline;color:#000;fill-rule:evenodd;color-rendering:auto;color-interpolation:sRGB"/>
 <g>
  <g transform="matrix(0.59175505,0,0,0.59175505,-24.197456,1.7997378)">
   <path d="m 18.313 13.02 c -0.098 -0.015 -0.214 0.038 -0.326 0.078 a 2.738 2.738 0 0 0 -0.002 0 a 2.738 2.738 0 0 0 -0.783 0.879 c 0 0 0 0.002 0 0.002 c -0.027 0.165 -0.064 0.341 0.055 0.441 c 0.313 0.264 0.823 0.175 1.141 -0.201 c 0.317 -0.376 0.319 -0.894 0.006 -1.158 c -0.028 -0.023 -0.057 -0.036 -0.09 -0.041 z" transform="matrix(1.6898884,0,0,1.6898884,40.891,-3.041356)" isolation="auto" solid-opacity="1" mix-blend-mode="normal" solid-color="#000000" style="visibility:visible;shape-rendering:auto;color-interpolation-filters:linearRGB;fill:#5d502d;opacity:1;image-rendering:auto;fill-opacity:1;stroke:none;display:inline;color:#000;fill-rule:evenodd;color-rendering:auto;color-interpolation:sRGB"/>
   <ellipse cx="66.01" cy="-32.867" rx="0.367" ry="0.484" transform="matrix(0.7397866,0.67284158,-0.67284158,0.7397866,0,0)" style="visibility:visible;shape-rendering:auto;color-interpolation-filters:linearRGB;fill:#333;opacity:1;image-rendering:auto;fill-opacity:1;stroke:none;display:inline;color:#000;fill-rule:evenodd;color-rendering:auto;color-interpolation:sRGB"/>
  </g>
  <path d="m 24.557 10.11 c -2.545 -0.133 -3.363 3.222 -4.304 6.464 -0.907 3.128 -1.683 4.01 -1.983 6.145 -0.191 1.356 0.185 2.849 0.134 4.105 -0.055 1.338 -0.8 2.6 -0.986 3.809 -0.239 1.553 -0.481 3.727 -0.75 5.799 2.156 1.07 4.584 1.673 7.154 1.673 2.712 0 5.266 -0.672 7.509 -1.855 -0.353 -1.259 -0.697 -2.439 -0.994 -3.34 -1.214 -3.681 -1.94 -11.298 -1.94 -11.298 0 0 0.015 -0.882 -0.031 -1.953 -0.141 -3.206 -0.495 -9.378 -3.809 -9.551 z" style="fill:#b53060;fill-opacity:1;stroke:none;fill-rule:evenodd"/>
  <path d="m 26.291 10.855 c 0.129 0.698 0.398 2.277 0.502 4.762 0.153 3.639 -0.016 8.412 0.301 11.408 0.352 3.332 1.418 9.02 1.643 10.209 0.902 -0.289 1.77 -0.654 2.596 -1.09 -0.353 -1.259 -0.697 -2.439 -0.994 -3.34 -1.214 -3.681 -1.941 -11.297 -1.941 -11.297 0 0 0.016 -0.883 -0.031 -1.953 -0.111 -2.523 -0.36 -6.872 -2.074 -8.699 z" style="fill:#953061;fill-opacity:1;stroke:none;fill-rule:evenodd"/>
  <g transform="matrix(0.59175505,0,0,0.59175505,-24.197456,1.7997378)">
   <g>
    <path d="m 93.66 24.737 a 5.441 5.212 0 0 1 -5.441 5.212 5.441 5.212 0 0 1 -5.441 -5.212 5.441 5.212 0 0 1 5.441 -5.212 5.441 5.212 0 0 1 5.441 5.212 z" mix-blend-mode="normal" isolation="auto" solid-opacity="1" solid-color="#000000" style="visibility:visible;shape-rendering:auto;color-interpolation-filters:linearRGB;fill:#eee;opacity:1;image-rendering:auto;fill-opacity:1;stroke:none;display:inline;color:#000;fill-rule:evenodd;color-rendering:auto;color-interpolation:sRGB"/>
    <path d="m 90.73 20.12 c 1.175 0.988 1.867 2.397 1.868 3.895 0 2.884 -2.459 5.221 -5.492 5.221 -0.732 -0.002 -1.588 -0.155 -2.281 -0.426 a 5.441 5.212 0 0 0 3.39 1.139 5.441 5.212 0 0 0 5.443 -5.212 5.441 5.212 0 0 0 -2.928 -4.617 z" style="visibility:visible;shape-rendering:auto;color-interpolation-filters:linearRGB;fill:#ddd;opacity:1;image-rendering:auto;fill-opacity:1;stroke:none;display:inline;color:#000;fill-rule:evenodd;color-rendering:auto;color-interpolation:sRGB"/>
   </g>
   <ellipse cx="60.29" cy="65.943" rx="1.238" ry="1.418" transform="matrix(0.86029072,-0.50980376,0.50980376,0.86029072,0,0)" style="visibility:visible;shape-rendering:auto;color-interpolation-filters:linearRGB;fill:#5d502d;opacity:1;image-rendering:auto;fill-opacity:1;stroke:none;display:inline;color:#000;fill-rule:evenodd;color-rendering:auto;color-interpolation:sRGB"/>
   <ellipse cx="39.41" cy="80.1" rx="0.508" ry="0.585" transform="matrix(0.68336057,-0.73008105,0.73008105,0.68336057,0,0)" style="visibility:visible;shape-rendering:auto;color-interpolation-filters:linearRGB;fill:#333;opacity:1;image-rendering:auto;fill-opacity:1;stroke:none;display:inline;color:#000;fill-rule:evenodd;color-rendering:auto;color-interpolation:sRGB"/>
  </g>
  <path d="m 19.996 22.661 c -0.509 -0.026 -1.081 0.002 -1.726 0.092 -0.057 0.427 -0.012 0.872 0.009 1.314 0.019 -0.005 0.024 -0.022 0.044 -0.027 0.437 -0.107 0.959 -0.118 1.496 -0.014 0.536 0.104 1.088 0.322 1.585 0.676 0.497 0.354 0.938 0.843 1.256 1.486 0.858 1.736 1.504 2.702 2.121 3.7 -0.078 -0.829 -0.084 -1.601 -0.17 -1.941 -0.579 -2.292 -1.051 -5.106 -4.615 -5.288 z" style="fill:#352322;fill-opacity:1;stroke:none;fill-rule:evenodd"/>
  <path d="m 25.717 31.523 c 0 0 -1.82 -2.831 -3.057 -5.333 -1.272 -2.573 -4.528 -2.673 -5.326 -1.56 -0.388 0.541 -0.187 1.714 -0.198 3.107 -0.009 1.134 0.107 2.3 0.075 3.556 -0.193 7.376 2.655 4.507 2.655 4.507 l 5.298 -0.106 1.191 -1.787 z" style="fill:#b53060;fill-opacity:1;stroke:none;fill-rule:evenodd"/>
 </g>
</svg>
