<svg version="1.1" viewBox="0 0 48 48" xmlns="http://www.w3.org/2000/svg">
 <defs>
  <linearGradient id="bg" x2="0" y1="1" y2="47" gradientUnits="userSpaceOnUse">
   <stop style="stop-color:#877261" offset="0"/>
   <stop style="stop-color:#7b6859" offset="1"/>
  </linearGradient>
 </defs>
 <path d="m36.31 5c5.859 4.062 9.688 10.831 9.688 18.5 0 12.426-10.07 22.5-22.5 22.5-7.669 0-14.438-3.828-18.5-9.688 1.037 1.822 2.306 3.499 3.781 4.969 4.085 3.712 9.514 5.969 15.469 5.969 12.703 0 23-10.298 23-23 0-5.954-2.256-11.384-5.969-15.469-1.469-1.475-3.147-2.744-4.969-3.781zm4.969 3.781c3.854 4.113 6.219 9.637 6.219 15.719 0 12.703-10.297 23-23 23-6.081 0-11.606-2.364-15.719-6.219 4.16 4.144 9.883 6.719 16.219 6.719 12.703 0 23-10.298 23-23 0-6.335-2.575-12.06-6.719-16.219z" style="opacity:.05"/>
 <path d="m41.28 8.781c3.712 4.085 5.969 9.514 5.969 15.469 0 12.703-10.297 23-23 23-5.954 0-11.384-2.256-15.469-5.969 4.113 3.854 9.637 6.219 15.719 6.219 12.703 0 23-10.298 23-23 0-6.081-2.364-11.606-6.219-15.719z" style="opacity:.1"/>
 <path d="m31.25 2.375c8.615 3.154 14.75 11.417 14.75 21.13 0 12.426-10.07 22.5-22.5 22.5-9.708 0-17.971-6.135-21.12-14.75a23 23 0 0 0 44.875-7 23 23 0 0 0-16-21.875z" style="opacity:.2"/>
 <circle cx="24" cy="24" r="23" style="fill:url(#bg)"/>
 <path d="m15 13 1 6h-3l2.666 2.666-4.666 2.334 5 1-5 5 7-1-3 3 4-1-2 3 5.2363-1.9629 0.19922 0.44727 0.56445 4.5156h4l0.50781-4.0586 0.25586-0.9043 5.2363 1.9629-2-3 4 1-3-3 7 1-5-5 5-1-4.666-2.334 2.666-2.666h-3l1-6-3.4219 2.7363-0.57812-1.7363-3 2v-1l-3 1-3-1v1l-3-2-0.57812 1.7363-3.4219-2.7363z" style="opacity:.1"/>
 <path d="m40.03 7.531c3.712 4.084 5.969 9.514 5.969 15.469 0 12.703-10.297 23-23 23-5.954 0-11.384-2.256-15.469-5.969 4.178 4.291 10.01 6.969 16.469 6.969 12.703 0 23-10.298 23-23 0-6.462-2.677-12.291-6.969-16.469z" style="opacity:.1"/>
 <path d="m14 12 1 6h-3l3 3-5 2 5 1-5 5 7-1-3 3 4-1-2 3 5.2363-1.9629 1.7637 3.9629h2.6405l1.1232-3.9629 5.2363 1.9629-2-3 4 1-3-3 7 1-5-5 5-1-5-2 3-3h-3l1-6-3 4-1-3-6 6-6-6-1 3z" style="fill:#3f525a"/>
 <path d="m22 26 1 3v-2h2v2l1-3h-4zm1 7v2h1l-1-2zm1 2h1v-2l-1 2z" style="fill:#f9f9f9"/>
 <path d="m14 12s2.5924 5.1867 2.9551 7.5215l-6.9551 3.4785h10l1 3 3 1 3-1 1-3h10l-6.9551-3.4785c0.36266-2.3347 2.9551-7.5215 2.9551-7.5215l-5 4 1-3-3 2v-1l-3 1-3-1v1l-3-2 1 3zm1 12-5 5s5-2 8-5zm15 0c3 3 8 5 8 5l-5-5z" style="fill:#b7c5cd"/>
 <path d="m18 27-4 4 6-4h-2zm10 0 6 4-4-4h-2zm-7 1 1 8h4l1-8-2 7h-2l-2-7zm-3 2-2 3s2-2 5-3h-3zm9 0c3 1 5 3 5 3l-2-3h-3z" style="fill:#8d969b"/>
 <path d="m19 19s0 2 1 2h2l-3-2zm10 0-3 2h2c1 0 1-2 1-2z" style="fill:#f4525d"/>
 <path d="m24 33c-1 0-1-0.5286-1-1 0-1 1-3 1-3s1 2 1 3c0 0.4714 0 1-1 1z" style="fill:#58727f"/>
</svg>
