<svg version="1.1" viewBox="0 0 48 48" xmlns="http://www.w3.org/2000/svg">
 <defs>
  <linearGradient id="linearGradient3764" x1="1" x2="47" gradientTransform="rotate(-90 24 24)" gradientUnits="userSpaceOnUse">
   <stop style="stop-color:#f3ec0c" offset="0"/>
   <stop style="stop-color:#f4ee1f" offset="1"/>
  </linearGradient>
 </defs>
 <path d="m36.3 5c5.86 4.06 9.69 10.8 9.69 18.5 0 12.4-10.1 22.5-22.5 22.5-7.67 0-14.4-3.83-18.5-9.69 1.04 1.82 2.31 3.5 3.78 4.97 4.08 3.71 9.51 5.97 15.5 5.97 12.7 0 23-10.3 23-23 0-5.95-2.26-11.4-5.97-15.5-1.47-1.48-3.15-2.74-4.97-3.78zm4.97 3.78c3.85 4.11 6.22 9.64 6.22 15.7 0 12.7-10.3 23-23 23-6.08 0-11.6-2.36-15.7-6.22 4.16 4.14 9.88 6.72 16.2 6.72 12.7 0 23-10.3 23-23 0-6.34-2.58-12.1-6.72-16.2z" style="opacity:.05"/>
 <path d="m41.3 8.78c3.71 4.08 5.97 9.51 5.97 15.5 0 12.7-10.3 23-23 23-5.95 0-11.4-2.26-15.5-5.97 4.11 3.85 9.64 6.22 15.7 6.22 12.7 0 23-10.3 23-23 0-6.08-2.36-11.6-6.22-15.7z" style="opacity:.1"/>
 <path d="m31.2 2.38c8.62 3.15 14.8 11.4 14.8 21.1 0 12.4-10.1 22.5-22.5 22.5-9.71 0-18-6.14-21.1-14.8a23 23 0 0 0 44.9-7 23 23 0 0 0-16-21.9z" style="opacity:.2"/>
 <path d="m24 1c12.7 0 23 10.3 23 23s-10.3 23-23 23-23-10.3-23-23 10.3-23 23-23z" style="fill:url(#linearGradient3764)"/>
 <path d="m40 7.53c3.71 4.08 5.97 9.51 5.97 15.5 0 12.7-10.3 23-23 23-5.95 0-11.4-2.26-15.5-5.97 4.18 4.29 10 6.97 16.5 6.97 12.7 0 23-10.3 23-23 0-6.46-2.68-12.3-6.97-16.5z" style="opacity:.1"/>
 <path d="m24 10-5 2-3 3-1 5 2 4-1-1-1 1 3 5 1 3v4l-2 1 2 1 1-1v-3l3 2 3-1h-3l-3-2-1-4 2 1-3-3v-2l2-8-1-1h5v-6zm1 0v5h6v1h-6v4h3v1h-3v4l2 2v2h-2v4l1 1 3 1-2 1 3 1 1 1 2-1-2-1v-2.72l1-2.28 2-5 1-6-0.4-2h-5.6v-1h5.4l-0.4-2-3-3-6-2zm6.54 10.5c0.939 0.938 1.46 2.21 1.46 3.54 0 2.76-2.24 5-5 5v-0.828c2.3 2e-4 4.17-1.87 4.17-4.17-0.0014-1.11-0.442-2.17-1.22-2.95l0.59-0.59zm-3.54 1.54c1.1 0 2 0.895 2 2s-0.895 2-2 2-2-0.895-2-2 0.895-2 2-2zm-7.45 1-0.547 1.51 1-0.51v1h1l1-1h1l-1-1h-2.45zm9.75 1h1.5c0 2.08-1.67 3.8-3.8 3.8v-1.5c1.28 0 2.3-0.984 2.3-2.3z" style="opacity:.1"/>
 <path d="m23 9-5 2-3 3-1 5 2 4-1-1-1 1 3 5 1 3v4l-2 1 2 1 1-1v-3l3 2 3-1h-3l-3-2-1-4 2 1-3-3v-2l2-8-1-1h5v-6zm1 0v5h6v1h-6v4h3v1h-3v4l2 2v2h-2v4l1 1 3 1-2 1 3 1 1 1 2-1-2-1v-2.72l1-2.28 2-5 1-6-0.4-2h-5.6v-1h5.4l-0.4-2-3-3-6-2zm6.54 10.5c0.939 0.938 1.46 2.21 1.46 3.54 0 2.76-2.24 5-5 5v-0.828c2.3 2e-4 4.17-1.87 4.17-4.17-0.0014-1.11-0.442-2.17-1.22-2.95l0.59-0.59zm-3.54 1.54c1.1 0 2 0.895 2 2s-0.895 2-2 2-2-0.895-2-2 0.895-2 2-2zm-7.45 1-0.547 1.51 1-0.51v1h1l1-1h1l-1-1h-2.45zm9.75 1h1.5c0 2.08-1.67 3.8-3.8 3.8v-1.5c1.28 0 2.3-0.984 2.3-2.3z" style="fill:#474747"/>
</svg>
