<svg version="1.1" viewBox="0 0 48 48" xmlns="http://www.w3.org/2000/svg">
 <defs>
  <linearGradient id="bg" x2="0" y1="1" y2="47" gradientUnits="userSpaceOnUse">
   <stop style="stop-color:#87b7f7" offset="0"/>
   <stop style="stop-color:#74acf6" offset="1"/>
  </linearGradient>
 </defs>
 <path d="m36.31 5c5.859 4.062 9.688 10.831 9.688 18.5 0 12.426-10.07 22.5-22.5 22.5-7.669 0-14.438-3.828-18.5-9.688 1.037 1.822 2.306 3.499 3.781 4.969 4.085 3.712 9.514 5.969 15.469 5.969 12.703 0 23-10.298 23-23 0-5.954-2.256-11.384-5.969-15.469-1.469-1.475-3.147-2.744-4.969-3.781zm4.969 3.781c3.854 4.113 6.219 9.637 6.219 15.719 0 12.703-10.297 23-23 23-6.081 0-11.606-2.364-15.719-6.219 4.16 4.144 9.883 6.719 16.219 6.719 12.703 0 23-10.298 23-23 0-6.335-2.575-12.06-6.719-16.219z" style="opacity:.05"/>
 <path d="m41.28 8.781c3.712 4.085 5.969 9.514 5.969 15.469 0 12.703-10.297 23-23 23-5.954 0-11.384-2.256-15.469-5.969 4.113 3.854 9.637 6.219 15.719 6.219 12.703 0 23-10.298 23-23 0-6.081-2.364-11.606-6.219-15.719z" style="opacity:.1"/>
 <path d="m31.25 2.375c8.615 3.154 14.75 11.417 14.75 21.13 0 12.426-10.07 22.5-22.5 22.5-9.708 0-17.971-6.135-21.12-14.75a23 23 0 0 0 44.875-7 23 23 0 0 0-16-21.875z" style="opacity:.2"/>
 <circle cx="24" cy="24" r="23" style="fill:url(#bg)"/>
 <path d="m40.03 7.531c3.712 4.084 5.969 9.514 5.969 15.469 0 12.703-10.297 23-23 23-5.954 0-11.384-2.256-15.469-5.969 4.178 4.291 10.01 6.969 16.469 6.969 12.703 0 23-10.298 23-23 0-6.462-2.677-12.291-6.969-16.469z" style="opacity:.1"/>
 <path d="m25 10-5.7656 10.275c-1.2085 0.50536-3.5074 1.8168-4.2344 4.7246-0.25566 1.0226-0.58114 4.5811 1 3l1.7227-1.7227-2.2227 6.7227s-1.5 0.669-1.5 1.5 0.669 1.5 1.5 1.5h19c0.831 0 1.5-0.669 1.5-1.5s-0.669-1.5-1.5-1.5h-0.85938c-0.35485-2.0315-1.0268-5.6579-2.1953-10.207 0.91524-0.87942 2.0187-2.185 2.5547-3.793 0.33333-1 0.58114-4.5811-1-3l-2.7109 2.7109c-0.61612-1.9761-1.2877-3.7927-2.0098-5.2637 0.42262 0.26727 0.7207 0.55273 0.7207 0.55273v-1s-0.66177-0.65261-1.4453-0.90039c-0.80887-1.2995-1.6657-2.0996-2.5547-2.0996z" style="opacity:.1"/>
 <path d="m29 23s3-2 4-5c0.33333-1 0.58114-4.5811-1-3l-3 3z" style="fill:#9e1ba9"/>
 <path d="m19 19s-4 1-5 5c-0.25566 1.0226-0.58114 4.5811 1 3l3-3z" style="fill:#9e1ba9"/>
 <path d="m15 34s4-25 9-25 9 25 9 25z" style="fill:#b51fc1"/>
 <rect x="13" y="32" width="22" height="3" ry="1.5" style="fill:#02d141"/>
 <path d="m23 12c-1 0-2 1-2 1v1s0.8378-0.82826 1.7461-0.9707a3 3 0 0 0-0.74609 1.9707 3 3 0 0 0 3 3 3 3 0 0 0 3-3 3 3 0 0 0-0.74414-1.9707c0.11749 0.01855 0.23421 0.04774 0.34766 0.08594-0.18055-0.4019-0.36809-0.7543-0.55469-1.1094-0.01637-5.27e-4 -0.03246-0.0059-0.04883-0.0059-1 0-1 1-2 1s-1-1-2-1zm2 7a3 3 0 0 0-3 3 3 3 0 0 0 3 3 3 3 0 0 0 3-3 3 3 0 0 0-3-3zm0 7a3 3 0 0 0-3 3 3 3 0 0 0 3 3 3 3 0 0 0 3-3 3 3 0 0 0-3-3z" style="opacity:.1"/>
 <path d="m22.51 11.4a3 3 0 0 0-1.5098 2.5996 3 3 0 0 0 3 3 3 3 0 0 0 3-3 3 3 0 0 0-1.5078-2.5996l-1.4922 1.1758zm1.4902 6.5996a3 3 0 0 0-3 3 3 3 0 0 0 3 3 3 3 0 0 0 3-3 3 3 0 0 0-3-3zm0 7a3 3 0 0 0-3 3 3 3 0 0 0 3 3 3 3 0 0 0 3-3 3 3 0 0 0-3-3z" style="fill:#02d141"/>
 <path d="m24 12a2 2 0 0 0-2 2 2 2 0 0 0 2 2 2 2 0 0 0 2-2 2 2 0 0 0-2-2zm0 7a2 2 0 0 0-2 2 2 2 0 0 0 2 2 2 2 0 0 0 2-2 2 2 0 0 0-2-2zm0 7a2 2 0 0 0-2 2 2 2 0 0 0 2 2 2 2 0 0 0 2-2 2 2 0 0 0-2-2z" style="fill:#069500"/>
 <path d="m24 13c1 0 1-1 2-1s2 1 2 1v-1s-1-1-2-1-1 1-2 1-1-1-2-1-2 1-2 1v1s1-1 2-1 1 1 2 1z" style="fill:#3d3d3d"/>
</svg>
