<svg version="1.1" viewBox="0 0 48 48" xmlns="http://www.w3.org/2000/svg">
 <defs>
  <linearGradient id="bg" x2="0" y1="1" y2="47" gradientUnits="userSpaceOnUse">
   <stop style="stop-color:#f6eeaa" offset="0"/>
   <stop style="stop-color:#f4ea98" offset="1"/>
  </linearGradient>
 </defs>
 <path d="m36.31 5c5.859 4.062 9.688 10.831 9.688 18.5 0 12.426-10.07 22.5-22.5 22.5-7.669 0-14.438-3.828-18.5-9.688 1.037 1.822 2.306 3.499 3.781 4.969 4.085 3.712 9.514 5.969 15.469 5.969 12.703 0 23-10.298 23-23 0-5.954-2.256-11.384-5.969-15.469-1.469-1.475-3.147-2.744-4.969-3.781zm4.969 3.781c3.854 4.113 6.219 9.637 6.219 15.719 0 12.703-10.297 23-23 23-6.081 0-11.606-2.364-15.719-6.219 4.16 4.144 9.883 6.719 16.219 6.719 12.703 0 23-10.298 23-23 0-6.335-2.575-12.06-6.719-16.219z" style="opacity:.05"/>
 <path d="m41.28 8.781c3.712 4.085 5.969 9.514 5.969 15.469 0 12.703-10.297 23-23 23-5.954 0-11.384-2.256-15.469-5.969 4.113 3.854 9.637 6.219 15.719 6.219 12.703 0 23-10.298 23-23 0-6.081-2.364-11.606-6.219-15.719z" style="opacity:.1"/>
 <path d="m31.25 2.375c8.615 3.154 14.75 11.417 14.75 21.13 0 12.426-10.07 22.5-22.5 22.5-9.708 0-17.971-6.135-21.12-14.75a23 23 0 0 0 44.875-7 23 23 0 0 0-16-21.875z" style="opacity:.2"/>
 <circle cx="24" cy="24" r="23" style="fill:url(#bg)"/>
 <path d="m25 10c-7.0538 0.0093-13.148 4.9321-14.641 11.826l2.252-0.75195c1.711-5.4012 6.7229-9.0723 12.389-9.0742 3.0553 5.26e-4 6.0129 1.0772 8.3535 3.041 0.68035 0.09232 1.2746 0.42302 1.7285 0.87695 1.0504 1.8955 0.82642 1.7338 2.6074 1.1172-2.7389-4.3708-7.5314-7.0279-12.689-7.0352zm8 6c-0.94281 0-2 1-2 2 0 2 2 6 2 6s2-3 2-6c0-1-1-2-2-2zm5 2c-1 0-2 1-2 2 0 2 1 5 1 5s3-4 3-5-1-2-2-2zm-18.5 1c-0.277 0-0.5 0.223-0.5 0.5v1c0 0.277 0.223 0.5 0.5 0.5s0.5-0.223 0.5-0.5v-1c0-0.277-0.223-0.5-0.5-0.5zm2 0c-0.277 0-0.5 0.223-0.5 0.5v1c0 0.277 0.223 0.5 0.5 0.5s0.5-0.223 0.5-0.5v-1c0-0.277-0.223-0.5-0.5-0.5zm2 0c-0.277 0-0.5 0.223-0.5 0.5v1c0 0.18068 0.09933 0.33209 0.24219 0.41992l-0.24219 0.080078v1.9043a3.5 3 0 0 0-2.5-0.9043 3.5 3 0 0 0-2.0508 0.57227l-0.44922-1.5723h-3l-1 3-1-2-3 1 1 7 3-1-1-2 2 1 1-2 1 3 3-1-0.0098-0.03516a3.5 3 0 0 0 0.5098 0.03516 3.5 3 0 0 0 2.5-0.90039v2.9004l8-2-1-2-3 1v-1l2-1v-2l-2 1v-1l3-1-1-3-5.0352 1.6777c0.021076-0.055418 0.035156-0.11474 0.035156-0.17773v-1c0-0.277-0.223-0.5-0.5-0.5zm16.305 3.6973c-0.1545 0.24552-0.3128 0.49264-0.47266 0.73242-0.63952 0.95928-1.0776 1.5407-1.2734 1.8047 0.83335 0.22034 1.54 0.77637 1.8145 1.5547 0.077965-0.59329 0.12036-1.1907 0.12695-1.7891-0.0058-0.77146-0.07109-1.5413-0.19531-2.3027zm-19.305 1.3027a1.5 1 0 0 1 1.5 1 1.5 1 0 0 1-1.5 1 1.5 1 0 0 1-1.1816-0.38477l-0.25586-0.89844a1.5 1 0 0 1 1.4375-0.7168zm12.5 1a2 2 0 0 0-2 2 2 2 0 0 0 2 2 2 2 0 0 0 2-2 2 2 0 0 0-2-2zm4.5 1a1.5 1.5 0 0 0-1.5 1.5 1.5 1.5 0 0 0 1.5 1.5 1.5 1.5 0 0 0 1.5-1.5 1.5 1.5 0 0 0-1.5-1.5zm1.9414 3.0488c-0.46021 0.57367-1.1579 0.95117-1.9414 0.95117-0.1696 0-0.3279-0.025326-0.48047-0.0625-2.0018 4.8755-6.7491 8.0599-12.02 8.0625-5.1096-0.006853-9.7414-3.0063-11.838-7.666l-1.8457 0.61524c-0.02319 0.0074-0.04664 0.01388-0.07031 0.01953 2.3772 5.4807 7.7799 9.0283 13.754 9.0313 6.7243-8.19e-4 12.626-4.4765 14.441-10.951z" style="opacity:.1"/>
 <path d="m40.03 7.531c3.712 4.084 5.969 9.514 5.969 15.469 0 12.703-10.297 23-23 23-5.954 0-11.384-2.256-15.469-5.969 4.178 4.291 10.01 6.969 16.469 6.969 12.703 0 23-10.298 23-23 0-6.462-2.677-12.291-6.969-16.469z" style="opacity:.1"/>
 <path d="m24 9c-7.0538 0.00929-13.148 4.9321-14.641 11.826l2.252-0.75195c1.711-5.4012 6.7229-9.0723 12.389-9.0742 3.0553 5.26e-4 6.0129 1.0772 8.3535 3.041 0.68035 0.09232 1.2746 0.42302 1.7285 0.87695 1.0504 1.8955 0.82642 1.7338 2.6074 1.1172-2.7389-4.3708-7.5314-7.0279-12.689-7.0352zm14.805 12.697c-0.1545 0.24552-0.3128 0.49264-0.47266 0.73242-0.63952 0.95928-1.0776 1.5407-1.2734 1.8047 0.83335 0.22034 1.54 0.77637 1.8145 1.5547 0.07796-0.59329 0.12036-1.1907 0.12695-1.7891-0.0058-0.77146-0.07109-1.5413-0.19531-2.3027zm-0.3633 6.3516c-0.46021 0.57367-1.1579 0.95117-1.9414 0.95117-0.1696 0-0.3279-0.02533-0.48047-0.0625-2.0018 4.8755-6.7491 8.0599-12.02 8.0625-5.1096-0.0069-9.7414-3.0063-11.838-7.666l-1.8457 0.61524c-0.02319 0.0074-0.04664 0.01388-0.07031 0.01953 2.3772 5.4807 7.7799 9.0283 13.754 9.0313 6.7243-8.19e-4 12.626-4.4765 14.441-10.951z" style="fill:#d17dad;opacity:.9"/>
 <path d="m10 29-1-7 3-1 1 2 1-3h3l2 7-3 1-1-3-1 2-2-1 1 2z" style="fill:#f07987"/>
 <path d="m22 20v9l8-2-1-2-3 1v-1l2-1v-2l-2 1v-1l3-1-1-3z" style="fill:#72bfe6"/>
 <path d="m18.5 18c-0.277 0-0.5 0.223-0.5 0.5v1c0 0.277 0.223 0.5 0.5 0.5s0.5-0.223 0.5-0.5v-1c0-0.277-0.223-0.5-0.5-0.5zm2 0c-0.277 0-0.5 0.223-0.5 0.5v1c0 0.277 0.223 0.5 0.5 0.5s0.5-0.223 0.5-0.5v-1c0-0.277-0.223-0.5-0.5-0.5zm2 0c-0.277 0-0.5 0.223-0.5 0.5v1c0 0.277 0.223 0.5 0.5 0.5s0.5-0.223 0.5-0.5v-1c0-0.277-0.223-0.5-0.5-0.5zm-3 3a3.5 3 0 0 0-3.5 3 3.5 3 0 0 0 3.5 3 3.5 3 0 0 0 3.5-3 3.5 3 0 0 0-3.5-3zm0 2a1.5 1 0 0 1 1.5 1 1.5 1 0 0 1-1.5 1 1.5 1 0 0 1-1.5-1 1.5 1 0 0 1 1.5-1z" style="fill:#acdd16;paint-order:stroke fill markers"/>
 <path d="m32 15c-0.94281 0-2 1-2 2 0 2 2 6 2 6s2-3 2-6c0-1-1-2-2-2zm5 2c-1 0-2 1-2 2 0 2 1 5 1 5s3-4 3-5-1-2-2-2zm-5 7a2 2 0 0 0-2 2 2 2 0 0 0 2 2 2 2 0 0 0 2-2 2 2 0 0 0-2-2zm4.5 1a1.5 1.5 0 0 0-1.5 1.5 1.5 1.5 0 0 0 1.5 1.5 1.5 1.5 0 0 0 1.5-1.5 1.5 1.5 0 0 0-1.5-1.5z" style="fill:#f2b73b;paint-order:stroke fill markers"/>
</svg>
