<svg xmlns="http://www.w3.org/2000/svg" viewBox="0 0 48 48">
 <defs>
  <linearGradient id="linearGradient4216" y1="47" x2="0" y2="1" gradientUnits="userSpaceOnUse">
   <stop style="stop-color:#ff6905;stop-opacity:1"/>
   <stop offset="1" style="stop-color:#ff7519;stop-opacity:1"/>
  </linearGradient>
 </defs>
 <g>
  <path d="m 36.31 5 c 5.859 4.062 9.688 10.831 9.688 18.5 c 0 12.426 -10.07 22.5 -22.5 22.5 c -7.669 0 -14.438 -3.828 -18.5 -9.688 c 1.037 1.822 2.306 3.499 3.781 4.969 c 4.085 3.712 9.514 5.969 15.469 5.969 c 12.703 0 23 -10.298 23 -23 c 0 -5.954 -2.256 -11.384 -5.969 -15.469 c -1.469 -1.475 -3.147 -2.744 -4.969 -3.781 z m 4.969 3.781 c 3.854 4.113 6.219 9.637 6.219 15.719 c 0 12.703 -10.297 23 -23 23 c -6.081 0 -11.606 -2.364 -15.719 -6.219 c 4.16 4.144 9.883 6.719 16.219 6.719 c 12.703 0 23 -10.298 23 -23 c 0 -6.335 -2.575 -12.06 -6.719 -16.219 z" style="opacity:0.05"/>
  <path d="m 41.28 8.781 c 3.712 4.085 5.969 9.514 5.969 15.469 c 0 12.703 -10.297 23 -23 23 c -5.954 0 -11.384 -2.256 -15.469 -5.969 c 4.113 3.854 9.637 6.219 15.719 6.219 c 12.703 0 23 -10.298 23 -23 c 0 -6.081 -2.364 -11.606 -6.219 -15.719 z" style="opacity:0.1"/>
  <path d="m 31.25 2.375 c 8.615 3.154 14.75 11.417 14.75 21.13 c 0 12.426 -10.07 22.5 -22.5 22.5 c -9.708 0 -17.971 -6.135 -21.12 -14.75 a 23 23 0 0 0 44.875 -7 a 23 23 0 0 0 -16 -21.875 z" style="opacity:0.2"/>
 </g>
 <g style="fill:#f60">
  <path d="m 24 1 c 12.703 0 23 10.297 23 23 c 0 12.703 -10.297 23 -23 23 -12.703 0 -23 -10.297 -23 -23 0 -12.703 10.297 -23 23 -23 z" style="fill:url(#linearGradient4216);fill-opacity:1"/>
 </g>
 <g transform="matrix(1.011172,0,0,1.011172,1.4334408,0.57940234)" style="fill:#000;opacity:0.1">
  <path d="m 25.16 12 c -1.448 0.012 -3.03 0.218 -4.51 0.713 c -3.034 1.01 -4.403 4.253 -5.057 7.078 c -0.463 1.997 1.012 6.068 1.012 6.068 l -1.012 5.05 l 1.104 0.367 l -1.104 1.656 l 3.447 -0.861 l -0.033 0.779 l -0.158 1.035 l 0.115 0.006 l -0.002 0.051 l 1.191 0 l 0.629 0.027 l 0 -1.178 l -0.133 0 l 0 -0.871 c 1.01 2.02 5.05 4.045 5.05 4.045 l 0.834 0 l -0.002 0.781 c 0.356 -0.039 0.477 -0.39 0.242 -0.781 l 0.658 0 l 0.039 1.854 c 0.481 -0.07 0.632 -1.01 0.322 -1.854 l 0.533 0 l -0.002 1.176 c 0.373 -0.061 0.531 -0.573 0.344 -1.176 l 0.066 0 c 0 0 0.765 -1.278 1.602 -3.201 c 0.421 -0.969 1.022 -1.706 1.217 -2.674 c 0.195 -0.968 -0.016 -1.495 -0.205 -2.721 c -0.219 -1.422 -0.181 -2.342 -0.148 -3.373 l 0.117 -0.018 l -0.107 -0.436 c 0.002 -0.073 0.005 -0.134 0.006 -0.209 c 0.753 0.118 1.53 0.179 2.158 0.578 c 1.748 1.111 4.04 4.717 4.04 4.717 c 0 0 0.758 -3.346 0.609 -5.03 c -0.108 -1.22 -1.072 -3.514 -1.072 -3.514 l 1.219 0.543 c 0 0 -1.349 -2.153 -2.359 -2.867 c -0.876 -0.62 -2.406 -1.148 -3.654 -1.516 c -0.312 -0.753 -0.984 -2.197 -1.906 -3.119 c -0.632 -0.632 -2.682 -1.155 -5.096 -1.135 z" transform="matrix(0.98895143,0,0,0.98895143,-1.4176033,-0.57300078)" style="fill-opacity:1;stroke:none;fill-rule:nonzero"/>
 </g>
 <g>
  <path d="m 40.03 7.531 c 3.712 4.084 5.969 9.514 5.969 15.469 0 12.703 -10.297 23 -23 23 c -5.954 0 -11.384 -2.256 -15.469 -5.969 4.178 4.291 10.01 6.969 16.469 6.969 c 12.703 0 23 -10.298 23 -23 0 -6.462 -2.677 -12.291 -6.969 -16.469 z" style="opacity:0.1"/>
 </g>
 <g transform="matrix(1.011172,0,0,1.011172,0.4334408,-0.42059766)">
  <path d="m 28.652 25.904 c 0.129 0.924 0.272 1.321 0.139 2.051 -0.132 0.729 -0.54 1.283 -0.827 2.01 -0.569 1.449 -1.089 2.412 -1.089 2.412 l -2.064 0 c 0 0 -2.749 -1.524 -3.436 -3.048 c -0.812 -1.801 -1.375 -3.124 -1.375 -5.333 c 0 -4.418 3.837 -8.381 6.875 -8.381 1.519 0 1.672 1.425 1.599 3.375 -0.037 0.975 0.098 2.589 0.09 3.715 -0.008 1.126 -0.103 1.827 0.088 3.196 z" transform="matrix(1.4545455,0,0,1.3125,-12.09091,-7.5)" style="fill:#f0ca9e;fill-opacity:1;stroke:none;fill-rule:nonzero"/>
  <path d="m 14 30 1 -5 c 0 0 -1.457 -4.02 -1 -6 0.647 -2.794 2 -6 5 -7 3.912 -1.304 8.501 -0.584 9.501 0.416 c 1.269 1.269 2.083 3.584 2.083 3.584 l -12.584 2 -1 13" style="fill:#6c5353;stroke:none"/>
  <circle transform="matrix(1,0,0,1.1666667,0,-3.4179945)" cx="22.5" cy="23.5" r="1.5" style="fill:#f9f9f9;fill-opacity:1;stroke:none;fill-rule:nonzero"/>
  <circle transform="matrix(0.72000001,0,0,0.9,11.876315,2.8180203)" cx="22.5" cy="23.5" r="1.5" style="fill:#f9f9f9;fill-opacity:1;stroke:none;fill-rule:nonzero"/>
  <ellipse transform="matrix(0.7,0,0,0.35,6.4219387,15.851588)" cx="23.5" cy="24" rx="0.5" ry="1" style="fill:#000;fill-opacity:1;stroke:none;fill-rule:nonzero"/>
  <ellipse transform="matrix(0.6,0,0,0.3,14.15966,16.920494)" cx="23.5" cy="24" rx="0.5" ry="1" style="fill:#000;fill-opacity:1;stroke:none;fill-rule:nonzero"/>
  <path d="m 19.751 23.16 c 0 0 0.749 -1.398 1.435 -1.627 0.49 -0.164 1.518 0.314 1.518 0.314 0 0 0.751 0.294 1.146 0.376 0.661 0.137 2.02 0.186 2.02 0.186 l -1.11 1 c 0 0 -0.598 0.127 -0.899 0.109 -0.792 -0.049 -1.519 -0.526 -2.311 -0.575 -0.603 -0.037 -1.798 0.217 -1.798 0.217 z" style="fill:#502d16;stroke:none"/>
  <path d="m 29.22 21.785 -2.227 0.5 0.009 1.227 2.553 -0.367 z" style="fill:#502d16;stroke:none"/>
  <path d="m 27 21.789 -0.166 6.236 -1.083 0.974" style="stroke-dasharray:none;stroke-opacity:1;fill:none;opacity:0.5;stroke-miterlimit:4;stroke:#000;stroke-linecap:butt;stroke-linejoin:miter;stroke-width:0.284"/>
  <path d="m 23.418 32.582 c 0 0 1.548 -0.508 2.333 -0.418 0.42 0.048 1.166 0.501 1.166 0.501 l 0 0" style="stroke-dasharray:none;stroke-opacity:1;fill:none;opacity:0.5;stroke-miterlimit:4;stroke:#000;stroke-linecap:butt;stroke-linejoin:miter;stroke-width:0.3"/>
  <path d="m 18 25 -4 5 2 -1 -2 3 4 -1 0 -3 z" style="fill:#502d16;fill-opacity:1;stroke:none"/>
  <path d="m 17.885 24.13 c 0 0 -1.085 -1.993 -1.913 -1.747 -0.741 0.22 -0.582 2.246 -0.582 2.246 0 0 0.407 1.653 1.081 1.996 0.374 0.19 1.248 -0.166 1.248 -0.166 z" style="fill:#f0ca9e;fill-opacity:1;stroke:none"/>
  <g>
   <path d="m 18 17 -0.667 16 1.667 0 0 -16" style="fill:#6c5353;fill-opacity:1;stroke:none"/>
   <path d="m 17.221 31.862 1.911 0 0 1.165 -2.078 -0.083 z" style="fill:#fc0;stroke:none"/>
  </g>
  <path d="m 27.1 11.75 c 0 0 1.438 0.69 1.834 1.334 0.457 0.743 0.416 2.584 0.416 2.584 l -3 0 -0.919 -1.834 c 0 0 -0.19 -1.239 0.169 -1.665 0.334 -0.397 1.5 -0.419 1.5 -0.419 z" style="fill:#fc0;stroke:none"/>
  <path d="m 23 13 5.5 2 c 0 0 3.907 0.873 5.5 2 0.999 0.707 2.332 2.835 2.332 2.835 l -1.205 -0.537 c 0 0 0.955 2.268 1.061 3.475 0.147 1.663 -0.602 4.972 -0.602 4.972 0 0 -2.272 -3.565 -4 -4.664 -1.01 -0.641 -2.413 -0.375 -3.456 -0.959 -1.509 -0.846 -3.796 -3.54 -3.796 -3.54 l -0.002 2.832 c 0 0 -1.098 -0.699 -1.541 -1.166 -0.461 -0.486 -1.125 -1.665 -1.125 -1.665 l -2.667 3.919 -3.25 6.414 c 0 0 0.487 -7.645 2.25 -10.915 1.118 -2.075 5 -5 5 -5 z" style="fill:#502d16;stroke:none"/>
  <path d="m 19.917 12.08 c 0 0 -1.546 0.409 -2 1 -0.673 0.877 -1.247 2.309 -0.665 3.25 0.62 1 3.416 0.915 3.416 0.915 0 0 2.462 -1.573 2.499 -2.832 0.024 -0.811 -1.5 -1.915 -1.5 -1.915 z" style="fill:#fc0;stroke:none"/>
  <path d="m 20.362 25.581 c -0.203 0.583 0.61 1.166 1.762 0.923" style="stroke-dasharray:none;stroke-opacity:1;fill:none;opacity:0.5;stroke-miterlimit:4;stroke:#000;stroke-linecap:butt;stroke-linejoin:miter;stroke-width:0.207"/>
  <path d="m 29.373 25.44 c -0.093 0.538 -0.54 1.076 -1.388 0.827" style="stroke-dasharray:none;stroke-opacity:1;fill:none;opacity:0.5;stroke-miterlimit:4;stroke:#000;stroke-linecap:butt;stroke-linejoin:miter;stroke-width:0.18"/>
  <path d="m 25.75 36.834 c 0.611 -0.089 0.694 -1.597 -0.053 -2.507" style="stroke-dasharray:none;stroke-opacity:1;fill:none;opacity:0.5;stroke-miterlimit:4;stroke:#000;stroke-linecap:butt;stroke-linejoin:miter;stroke-width:0.347"/>
  <path d="m 26.593 36.16 c 0.501 -0.081 0.617 -0.988 0.005 -1.821" style="stroke-dasharray:none;stroke-opacity:1;fill:none;opacity:0.5;stroke-miterlimit:4;stroke:#000;stroke-linecap:butt;stroke-linejoin:miter;stroke-width:0.301"/>
  <path d="m 24.821 35.773 c 0.441 -0.048 0.544 -0.581 0.004 -1.071" style="stroke-dasharray:none;stroke-opacity:1;fill:none;opacity:0.5;stroke-miterlimit:4;stroke:#000;stroke-linecap:butt;stroke-linejoin:miter;stroke-width:0.216"/>
 </g>
</svg>
