<svg xmlns="http://www.w3.org/2000/svg" viewBox="0 0 48 48">
 <defs>
  <linearGradient id="linearGradient4290" y1="1" x2="0" y2="47" gradientUnits="userSpaceOnUse">
   <stop style="stop-color:#232323;stop-opacity:1"/>
   <stop offset="1" style="stop-color:#191919;stop-opacity:1"/>
  </linearGradient>
  <radialGradient id="radialGradient4372" cx="24.637" cy="12.294" r="12.48" gradientTransform="matrix(1.2189619,0.03735492,-0.03900536,1.2728187,0.1233072,-1.7601906)" gradientUnits="userSpaceOnUse">
   <stop style="stop-color:#0f0;stop-opacity:1"/>
   <stop offset="1" style="stop-color:#0f0;stop-opacity:0.341"/>
  </radialGradient>
  <radialGradient id="radialGradient4380" cx="27" cy="20.991" r="8.67" gradientTransform="matrix(0.81787161,0.01057482,-0.01150684,0.88995454,2.0863373,-0.35608788)" gradientUnits="userSpaceOnUse">
   <stop style="stop-color:#0f0;stop-opacity:1"/>
   <stop offset="1" style="stop-color:#0f0;stop-opacity:0.745"/>
  </radialGradient>
 </defs>
 <g>
  <path d="m 36.31 5 c 5.859 4.062 9.688 10.831 9.688 18.5 c 0 12.426 -10.07 22.5 -22.5 22.5 c -7.669 0 -14.438 -3.828 -18.5 -9.688 c 1.037 1.822 2.306 3.499 3.781 4.969 c 4.085 3.712 9.514 5.969 15.469 5.969 c 12.703 0 23 -10.298 23 -23 c 0 -5.954 -2.256 -11.384 -5.969 -15.469 c -1.469 -1.475 -3.147 -2.744 -4.969 -3.781 z m 4.969 3.781 c 3.854 4.113 6.219 9.637 6.219 15.719 c 0 12.703 -10.297 23 -23 23 c -6.081 0 -11.606 -2.364 -15.719 -6.219 c 4.16 4.144 9.883 6.719 16.219 6.719 c 12.703 0 23 -10.298 23 -23 c 0 -6.335 -2.575 -12.06 -6.719 -16.219 z" style="opacity:0.05"/>
  <path d="m 41.28 8.781 c 3.712 4.085 5.969 9.514 5.969 15.469 c 0 12.703 -10.297 23 -23 23 c -5.954 0 -11.384 -2.256 -15.469 -5.969 c 4.113 3.854 9.637 6.219 15.719 6.219 c 12.703 0 23 -10.298 23 -23 c 0 -6.081 -2.364 -11.606 -6.219 -15.719 z" style="opacity:0.1"/>
  <path d="m 31.25 2.375 c 8.615 3.154 14.75 11.417 14.75 21.13 c 0 12.426 -10.07 22.5 -22.5 22.5 c -9.708 0 -17.971 -6.135 -21.12 -14.75 a 23 23 0 0 0 44.875 -7 a 23 23 0 0 0 -16 -21.875 z" style="opacity:0.2"/>
 </g>
 <g style="fill:#1a1a1a;stroke:none">
  <path d="m 24 1 c 12.703 0 23 10.297 23 23 c 0 12.703 -10.297 23 -23 23 -12.703 0 -23 -10.297 -23 -23 0 -12.703 10.297 -23 23 -23 z" style="fill:url(#linearGradient4290);fill-opacity:1"/>
 </g>
 <g>
  <path d="m 40.03 7.531 c 3.712 4.084 5.969 9.514 5.969 15.469 0 12.703 -10.297 23 -23 23 c -5.954 0 -11.384 -2.256 -15.469 -5.969 4.178 4.291 10.01 6.969 16.469 6.969 c 12.703 0 23 -10.298 23 -23 0 -6.462 -2.677 -12.291 -6.969 -16.469 z" style="opacity:0.1"/>
 </g>
 <path d="m 39.08 25.793 -2.924 -4.32 2.659 4.692 -4.405 -4.914 2.693 6.137 -3.344 -5.185 1.55 5.56 -2.596 -5.574 1.03 6.256 -1.551 -5.078 -0.52 5.591 -1.62 -5.467 0.179 5.486 -0.387 -6.405 -1.951 6.366 0.443 -6.454 -2.677 5.55 1.024 -5.578 -1.928 5.906 1.407 -5.596 -4.071 3.79 3.769 -4.839 -4.945 4.434 3.303 -5.092 -3.992 3.146 3.65 -3.268 -5.507 2.181 4.094 -3.874 -4.727 2.921 4.408 -3.058 -5.384 1.541 5.656 -2.717 -6.431 -0.084 5.665 -2.079 -5.153 1.67 5 -2.827 -5.315 0.135 5.622 -0.439 -6.357 -0.433 6.261 -1.123 -5.943 -1.55 6.673 1.222 -5.34 -3.02 5.426 0.965 -6.02 -2.957 5.41 2.573 -4.109 -4.01 5.143 3.263 -4.01 -4.712 5.101 3.147 -3.53 -4.289 3.799 4.046 -2.581 -5.312 4.248 5.03 -2.04 -5.353 3.344 5.185 -2.048 -6.58 2.519 5.03 -0.952 -5.587 1.767 5.338 0.596 -5.05 0.744 5.58 0.617 -6.395 0.39 6.656 1.578 -6.514 -0.948 6.751 2.382 -5.19 -0.226 4.795 2.086 -4.442 -1.407 5.596 2.541 -4.585 -2.238 4.183 4.944 -3.109 -3.381 4.422 3.992 -4.436 -3.074 4.958 4.931 -2.58 -4.89 3.332 5.601 -1.71 -5.36 2.467 6.18 -0.999 -4.924 3.01 5.699 -1.368 -5.51 1.843 6.02 -0.467 -6 0.964 6.339 0.511 -5.916 1.12 5.201 1.362 -5.758 -0.589 6.137 2.831 -6.315 -1.368 4.687 2.075 -4.618 -0.258 3.919 2.459 -4.835 -2.781 4.984 3.893 -5.301 -1.666 4.164 3.311 -5.977 -3.193 z" transform="translate(-6.3122024,9.5680883)" style="fill:url(#radialGradient4372);opacity:0.25;fill-opacity:1;stroke:none;fill-rule:nonzero"/>
 <path d="m 31.351 20.09 -3.18 -0.097 2.86 1.553 -2.131 -0.076 1.834 0.291 -3.163 -0.885 2.721 2.305 -1.983 -0.766 1.454 1.722 -2.636 -1.14 1.857 1.894 -2.699 -2.094 1.389 2.075 -1.413 -2.025 0.463 2.774 -0.911 -2.25 0.542 2.112 -1.581 -1.876 1.024 2.795 -0.815 -2.664 -0.918 2.869 0.17 -2.781 -0.434 1.667 -0.393 -1.833 -1.499 2.73 0.666 -2.283 -1.463 1.562 1.067 -2.699 -1.756 2.939 1.647 -2.262 -1.615 0.552 0.534 -0.78 -1.825 0.32 1.966 -1.781 -2.58 1.475 0.998 -1.596 -1.746 1.203 1.924 -0.98 -1.703 0.487 1.197 -1.716 -2.374 0.401 1.661 -0.493 -1.479 -0.037 2.417 -1.35 -2.754 0.122 1.924 -0.455 -2.382 -0.89 2.062 -0.306 -1.179 -0.302 1.292 -0.516 -1.915 -0.588 2.378 1.012 -1.375 -1.283 1.449 0.189 -1.81 -1.194 3.084 0.21 -1.983 -0.553 1.247 0.602 -1.377 -2.473 2.478 2.552 -1.121 -1.892 2.121 0.644 -1.39 -2.202 0.531 2.139 0.419 -1.427 0.834 1.701 -0.463 -2.899 0.698 1.991 -0.222 -2.249 0.895 2 0.113 -2.206 0.635 2.118 0.354 -2.306 0.472 2.67 1.5 -2.765 -0.088 3.572 0.884 -3.139 -1.146 2.024 0.954 -0.562 -0.106 1.475 1.615 -2.01 -1.272 2.113 1.1 -1.78 0.222 1.904 1.196 -0.927 -0.998 1.596 1.746 -1.203 -1.924 2.442 2.284 -1.707 -1.801 2.378 2.398 -1.304 -1.684 1.522 2.137 -0.473 -3.075 0.399 3.411 0.703 -2.661 0.291 1.657 1.054 -1.258 -0.645 1.76 0.543 -1.871 0.401 z" transform="translate(-0.01882706,5.2978823)" style="fill:url(#radialGradient4380);opacity:0.25;fill-opacity:1;stroke:none;fill-rule:nonzero"/>
 <path d="m 24.545 14 l -1.453 1.092 l -1.092 1.816 l 0.727 1.818 l -1.453 2.547 l 2.182 12.727 l 1.818 0 l 1.09 -13.818 l -0.363 -1.455 l 0.363 -0.727 l 0.363 -2.545 l -2.182 -1.455 z" style="fill:#1a1a1a;stroke:none;fill-rule:evenodd"/>
</svg>
