<svg version="1.1" viewBox="0 0 48 48" xmlns="http://www.w3.org/2000/svg">
 <defs>
  <linearGradient id="bg" x2="0" y1="47" y2="1" gradientUnits="userSpaceOnUse">
   <stop style="stop-color:#ecc92a" offset="0"/>
   <stop style="stop-color:#eece3c" offset="1"/>
  </linearGradient>
 </defs>
 <path d="m36.31 5c5.859 4.062 9.688 10.831 9.688 18.5 0 12.426-10.07 22.5-22.5 22.5-7.669 0-14.438-3.828-18.5-9.688 1.037 1.822 2.306 3.499 3.781 4.969 4.085 3.712 9.514 5.969 15.469 5.969 12.703 0 23-10.298 23-23 0-5.954-2.256-11.384-5.969-15.469-1.469-1.475-3.147-2.744-4.969-3.781zm4.969 3.781c3.854 4.113 6.219 9.637 6.219 15.719 0 12.703-10.297 23-23 23-6.081 0-11.606-2.364-15.719-6.219 4.16 4.144 9.883 6.719 16.219 6.719 12.703 0 23-10.298 23-23 0-6.335-2.575-12.06-6.719-16.219z" style="opacity:.05"/>
 <path d="m41.28 8.781c3.712 4.085 5.969 9.514 5.969 15.469 0 12.703-10.297 23-23 23-5.954 0-11.384-2.256-15.469-5.969 4.113 3.854 9.637 6.219 15.719 6.219 12.703 0 23-10.298 23-23 0-6.081-2.364-11.606-6.219-15.719z" style="opacity:.1"/>
 <path d="m31.25 2.375c8.615 3.154 14.75 11.417 14.75 21.13 0 12.426-10.07 22.5-22.5 22.5-9.708 0-17.971-6.135-21.12-14.75a23 23 0 0 0 44.875-7 23 23 0 0 0-16-21.875z" style="opacity:.2"/>
 <path d="m24 1c12.703 0 23 10.297 23 23s-10.297 23-23 23-23-10.297-23-23 10.297-23 23-23z" style="fill:url(#bg)"/>
 <path d="m14 23c0 0.554 0.446 1 1 1h1v12c0 0.554 0.446 1 1 1h1v2h3v-2h8v2h3v-2h1c0.554 0 1-0.446 1-1v-12h1c0.554 0 1-0.446 1-1v-4c0-0.554-0.446-1-1-1h-1c0-0.554-0.446-1-1-1v-2c0-1.108-0.892-2-2-2z" style="opacity:.1"/>
 <path d="m40.03 7.531c3.712 4.084 5.969 9.514 5.969 15.469 0 12.703-10.297 23-23 23-5.954 0-11.384-2.256-15.469-5.969 4.178 4.291 10.01 6.969 16.469 6.969 12.703 0 23-10.298 23-23 0-6.462-2.677-12.291-6.969-16.469z" style="opacity:.1"/>
 <rect x="16" y="12" width="16" height="6" rx="2" style="fill:#556177"/>
 <path d="m14 17c-0.554 0-1 0.446-1 1v4c0 0.554 0.446 1 1 1h20c0.554 0 1-0.446 1-1v-4c0-0.554-0.446-1-1-1z" style="fill:#3d3d3d"/>
 <rect x="14" y="18" width="20" height="4" style="fill:#808080;opacity:.5"/>
 <path d="m17 35v3h3v-3zm11 0v3h3v-3z" style="fill:#3d3d3d"/>
 <rect x="15" y="16" width="18" height="20" rx="1" style="fill:#8793a9"/>
 <path d="m15 32v2h2c0.579 0 1-0.431 1-1v-1h-3zm15 0v1c0 0.569 0.421 1 1 1h2v-2h-3z" style="fill:#f9f9f9"/>
 <path d="m18 25v1c0 0.554 0.446 1 1 1h10c0.554 0 1-0.446 1-1v-1h-12zm1 3v1c0 0.554 0.446 1 1 1h8c0.554 0 1-0.446 1-1v-1h-10zm1 3v1c0 0.554 0.446 1 1 1h6c0.554 0 1-0.446 1-1v-1h-8z" style="fill:#3d3d3d"/>
 <path d="m16 17 1 6h14l1-6z" style="fill:#6b6c73"/>
 <path d="m21 20-2 3h1l2-3h-1zm8 0-2 3h1l2-3h-1z" style="fill:#3d3d3d"/>
 <rect x="22" y="34" width="4" height="1" style="fill:#c3c9d3"/>
 <rect x="22" y="34" width="1" height="1" style="fill:#566bd4"/>
 <g style="fill:#424242">
  <path d="m25.105 34.266-0.12305 0.023437v0.09375l0.12305-0.02539v0.33789h-0.11914v0.09375h0.36719v-0.09375h-0.11914v-0.42969h-0.12891zm0.31641 0 0.17578 0.25586-0.18359 0.26758h0.14258l0.12305-0.17773 0.12305 0.17773h0.14062l-0.18164-0.26758h-0.001953l0.17578-0.25586h-0.14258l-0.11524 0.16797-0.11523-0.16797h-0.14062zm-2.3613 0.003906v0.52539h0.12695v-0.35938l0.19141 0.35938h0.15039v-0.52539h-0.12695v0.36133l-0.19141-0.36133h-0.15039zm0.60742 0v0.31445c0 0.074 0.017687 0.13002 0.054687 0.16602s0.093922 0.054688 0.16992 0.054688 0.13292-0.018688 0.16992-0.054688 0.056641-0.092016 0.056641-0.16602v-0.31445h-0.13477v0.31445c0 0.043-0.007484 0.07475-0.021484 0.09375s-0.038313 0.027344-0.070313 0.027344c-0.033 0-0.056312-0.008344-0.070312-0.027344s-0.019532-0.05075-0.019532-0.09375v-0.31445h-0.13476zm0.58008 0v0.52539h0.12891v-0.38477l0.12109 0.2832h0.085937l0.12109-0.2832v0.38477h0.12695v-0.52539h-0.17188l-0.11914 0.28125-0.11914-0.28125h-0.17383z" style="fill:#424242"/>
 </g>
 <path d="m17 36v1h3v-1h-3zm11 0v1h3v-1h-3z" style="opacity:.1"/>
</svg>
