<svg version="1.1" viewBox="0 0 48 48" xmlns="http://www.w3.org/2000/svg">
 <defs>
  <linearGradient id="bg" x2="0" y1="1" y2="47" gradientUnits="userSpaceOnUse">
   <stop style="stop-color:#77770d" offset="0"/>
   <stop style="stop-color:#65650b" offset="1"/>
  </linearGradient>
 </defs>
 <path d="m36.31 5c5.859 4.062 9.688 10.831 9.688 18.5 0 12.426-10.07 22.5-22.5 22.5-7.669 0-14.438-3.828-18.5-9.688 1.037 1.822 2.306 3.499 3.781 4.969 4.085 3.712 9.514 5.969 15.469 5.969 12.703 0 23-10.298 23-23 0-5.954-2.256-11.384-5.969-15.469-1.469-1.475-3.147-2.744-4.969-3.781zm4.969 3.781c3.854 4.113 6.219 9.637 6.219 15.719 0 12.703-10.297 23-23 23-6.081 0-11.606-2.364-15.719-6.219 4.16 4.144 9.883 6.719 16.219 6.719 12.703 0 23-10.298 23-23 0-6.335-2.575-12.06-6.719-16.219z" style="opacity:.05"/>
 <path d="m41.28 8.781c3.712 4.085 5.969 9.514 5.969 15.469 0 12.703-10.297 23-23 23-5.954 0-11.384-2.256-15.469-5.969 4.113 3.854 9.637 6.219 15.719 6.219 12.703 0 23-10.298 23-23 0-6.081-2.364-11.606-6.219-15.719z" style="opacity:.1"/>
 <path d="m31.25 2.375c8.615 3.154 14.75 11.417 14.75 21.13 0 12.426-10.07 22.5-22.5 22.5-9.708 0-17.971-6.135-21.12-14.75a23 23 0 0 0 44.875-7 23 23 0 0 0-16-21.875z" style="opacity:.2"/>
 <circle cx="24" cy="24" r="23" style="fill:url(#bg)"/>
 <path d="m21 14-3 3h-1v2h-2l1 2-2 1 2 1-1 2h2v2h1l2 2 1-1 1 2-1 2h1v3l2-2-1 3 1-1 1 3 1-3 1 1-1-3 2 2v-3h1l-1-2 1-2 1 1 2-2h1v-2h2l-1-2 2-1-2-1 1-2h-2v-2h-1l-3-3v3h-1l4 4-1 3v-1h-3v-2h-1v2h-1v-1h-2v1h-1v-2h-1v2h-3v1l-1-3 4-4h-1zm1.5 7a1.5 1.5 0 0 0 1.5-1.5 1.5 1.5 0 0 0-1.5-1.5 1.5 1.5 0 0 0-1.5 1.5 1.5 1.5 0 0 0 1.5 1.5zm2.5 1 1-1h-2zm2.5-1a1.5 1.5 0 0 0 1.5-1.5 1.5 1.5 0 0 0-1.5-1.5 1.5 1.5 0 0 0-1.5 1.5 1.5 1.5 0 0 0 1.5 1.5zm-5.5 3h1l-1 2zm2 0h2l1 2-1 1v-1s0-1-1-1-1 1-1 1v1l-1-1zm3 0h1v2zm-3 4h2v1.5l-1-0.5-1 0.5v-0.5zm0 1h2l-1-1z" style="fill-opacity:.94118;opacity:.1"/>
 <path d="m40.03 7.531c3.712 4.084 5.969 9.514 5.969 15.469 0 12.703-10.297 23-23 23-5.954 0-11.384-2.256-15.469-5.969 4.178 4.291 10.01 6.969 16.469 6.969 12.703 0 23-10.298 23-23 0-6.462-2.677-12.291-6.969-16.469z" style="opacity:.1"/>
 <path d="m24 28 2 1 1 2v3l-2-2 1 3-1-1-1 3-1-3-1 1 1-3-2 2v-3l1-2z" style="fill-opacity:.94118;fill:#8cfbea"/>
 <path d="m22 32 1-1 1 3 1-3 1 1v-1l-2-3-2 3z" style="fill:#f9f9f9"/>
 <path d="m23 29 1 2h-4l1-2z" style="fill:#c9c9c9"/>
 <rect x="21" y="27" width="2" height="2" style="fill:#707070;paint-order:stroke fill markers"/>
 <path d="m21 27h2v-1l-1-1h-1z" style="fill:#6c5353"/>
 <path d="m23 26h2v-1s0-1-1-1-1 1-1 1z" style="fill:#f9f9f9"/>
 <path d="m23 21v1h-1v1l-1 2h1l1-2h2l1 2h1l-1-2v-1h-1v-1z" style="fill:#ee4141"/>
 <path d="m20 13-3 3h-1v2h-2l1 2-2 1 2 1-1 2h2v2h1l2 2 1-1 1 2v-6h-3l-1-3 4-4h-1zm8 0v3h-1l4 4-1 3h-3v6l1-2 1 1 2-2h1v-2h2l-1-2 2-1-2-1 1-2h-2v-2h-1zm-5 7 1 1 1-1zm0 6v1h2v-1zm1 1-1 1h2z" style="fill:#2d2d2d"/>
 <path d="m22 23h-1v-3h1z" style="fill:#959595"/>
 <path d="m27 23h-1v-3h1z" style="fill:#959595"/>
 <path d="m25 29-1 2h4l-1-2z" style="fill:#c9c9c9"/>
 <rect transform="scale(-1,1)" x="-27" y="27" width="2" height="2" style="fill:#707070;paint-order:stroke fill markers"/>
 <path d="m27 27h-2v-1l1-1h1z" style="fill:#6c5353"/>
 <circle cx="21.5" cy="18.5" r="1.5" style="fill:#ceff2f;paint-order:stroke fill markers"/>
 <circle cx="26.5" cy="18.5" r="1.5" style="fill:#ceff2f;paint-order:stroke fill markers"/>
 <rect x="18" y="22" width="3" height="3" style="fill:#7ebf22;paint-order:stroke fill markers"/>
 <rect x="27" y="22" width="3" height="3" style="fill:#7ebf22;paint-order:stroke fill markers"/>
 <path d="m19 22-1 1 1 1a1 1 0 0 0 1 1 1 1 0 0 0 1-1 1 1 0 0 0-1-1z" style="fill:#a5e253;paint-order:stroke fill markers"/>
 <path d="m29 22-1 1a1 1 0 0 0-1 1 1 1 0 0 0 1 1 1 1 0 0 0 1-1l1-1z" style="fill:#a5e253;paint-order:stroke fill markers"/>
</svg>
