<svg version="1.1" viewBox="0 0 48 48" xmlns="http://www.w3.org/2000/svg">
 <defs>
  <linearGradient id="bg" x2="0" y1="1" y2="47" gradientUnits="userSpaceOnUse">
   <stop style="stop-color:#b23965" offset="0"/>
   <stop style="stop-color:#a2345c" offset="1"/>
  </linearGradient>
 </defs>
 <path d="m36.3 5c5.86 4.06 9.69 10.8 9.69 18.5 0 12.4-10.1 22.5-22.5 22.5-7.67 0-14.4-3.83-18.5-9.69 1.04 1.82 2.31 3.5 3.78 4.97 4.08 3.71 9.51 5.97 15.5 5.97 12.7 0 23-10.3 23-23 0-5.95-2.26-11.4-5.97-15.5-1.47-1.48-3.15-2.74-4.97-3.78zm4.97 3.78c3.85 4.11 6.22 9.64 6.22 15.7 0 12.7-10.3 23-23 23-6.08 0-11.6-2.36-15.7-6.22 4.16 4.14 9.88 6.72 16.2 6.72 12.7 0 23-10.3 23-23 0-6.34-2.58-12.1-6.72-16.2z" style="opacity:.05"/>
 <path d="m41.3 8.78c3.71 4.08 5.97 9.51 5.97 15.5 0 12.7-10.3 23-23 23-5.95 0-11.4-2.26-15.5-5.97 4.11 3.85 9.64 6.22 15.7 6.22 12.7 0 23-10.3 23-23 0-6.08-2.36-11.6-6.22-15.7z" style="opacity:.1"/>
 <path d="m31.2 2.38c8.62 3.15 14.8 11.4 14.8 21.1 0 12.4-10.1 22.5-22.5 22.5-9.71 0-18-6.14-21.1-14.8a23 23 0 0 0 44.9-7 23 23 0 0 0-16-21.9z" style="opacity:.2"/>
 <circle cx="24" cy="24" r="23" style="fill:url(#bg)"/>
 <path d="m40 7.53c3.71 4.08 5.97 9.51 5.97 15.5 0 12.7-10.3 23-23 23-5.95 0-11.4-2.26-15.5-5.97 4.18 4.29 10 6.97 16.5 6.97 12.7 0 23-10.3 23-23 0-6.46-2.68-12.3-6.97-16.5z" style="opacity:.1"/>
 <path d="m25 14c-4.97 0-9 4.03-9 9 0.0053 3.81 2.41 7.2 6 8.47v4.53l2 2h2l2-2v-4.53c3.59-1.27 6-4.66 6-8.47 0-4.97-4.03-9-9-9z" style="opacity:.1"/>
 <path d="m21 29v6l2 2h2l2-2v-6z" style="fill:#a6a6a6"/>
 <path d="m21 31v1h6v-1zm0 2v1h6v-1zm0 2 1 1h4l1-1z" style="fill:#8c8c8c"/>
 <path d="m21 29v2.04a9 9 0 0 0 4 0.955 9 9 0 0 0 2-0.248v-2.75h-6z" style="opacity:.1"/>
 <circle cx="24" cy="22" r="9" style="fill:#e7eda1"/>
 <path d="m24 15c-3.87 0-7 3.13-7 7 2.31e-4 3.1 2.03 5.82 5 6.71v-3.79c-0.16 0.0575-0.33 0.0872-0.5 0.0879-0.828 0-1.5-0.672-1.5-1.5s0.672-1.5 1.5-1.5 1.5 0.672 1.5 1.5v0.5h2v-0.5c0-0.828 0.672-1.5 1.5-1.5s1.5 0.672 1.5 1.5-0.672 1.5-1.5 1.5c-0.17-6.75e-4 -0.5 0-0.5 0v3.71c2.97-0.884 5-3.61 5-6.71 0-3.87-3.13-7-7-7zm-3 2c0.552 0 1 0.448 1 1s-0.448 1-1 1-1-0.448-1-1 0.448-1 1-1zm-1.5 3c0.276 0 0.5 0.224 0.5 0.5s-0.224 0.5-0.5 0.5-0.5-0.224-0.5-0.5 0.224-0.5 0.5-0.5zm2 3c-0.276 0-0.5 0.224-0.5 0.5s0.224 0.5 0.5 0.5h0.5v-0.5c0-0.276-0.224-0.5-0.5-0.5zm5 0c-0.276 0-0.5 0.224-0.5 0.5v0.5h0.5c0.276 0 0.5-0.224 0.5-0.5s-0.224-0.5-0.5-0.5zm-3.5 2v3.93c0.331 0.0473 0.665 0.0708 1 0.0703 0.335 4.92e-4 0.669-0.023 1-0.0703v-3.93z" style="fill:#ef9a43"/>
</svg>
