<svg version="1.1" viewBox="0 0 48 48" xmlns="http://www.w3.org/2000/svg">
 <defs>
  <linearGradient id="bg" x2="0" y1="1" y2="47" gradientUnits="userSpaceOnUse">
   <stop style="stop-color:#a2345c" offset="0"/>
   <stop style="stop-color:#932f53" offset="1"/>
  </linearGradient>
 </defs>
 <path d="m36.31 5c5.859 4.062 9.688 10.831 9.688 18.5 0 12.426-10.07 22.5-22.5 22.5-7.669 0-14.438-3.828-18.5-9.688 1.037 1.822 2.306 3.499 3.781 4.969 4.085 3.712 9.514 5.969 15.469 5.969 12.703 0 23-10.298 23-23 0-5.954-2.256-11.384-5.969-15.469-1.469-1.475-3.147-2.744-4.969-3.781zm4.969 3.781c3.854 4.113 6.219 9.637 6.219 15.719 0 12.703-10.297 23-23 23-6.081 0-11.606-2.364-15.719-6.219 4.16 4.144 9.883 6.719 16.219 6.719 12.703 0 23-10.298 23-23 0-6.335-2.575-12.06-6.719-16.219z" style="opacity:.05"/>
 <path d="m41.28 8.781c3.712 4.085 5.969 9.514 5.969 15.469 0 12.703-10.297 23-23 23-5.954 0-11.384-2.256-15.469-5.969 4.113 3.854 9.637 6.219 15.719 6.219 12.703 0 23-10.298 23-23 0-6.081-2.364-11.606-6.219-15.719z" style="opacity:.1"/>
 <path d="m31.25 2.375c8.615 3.154 14.75 11.417 14.75 21.13 0 12.426-10.07 22.5-22.5 22.5-9.708 0-17.971-6.135-21.12-14.75a23 23 0 0 0 44.875-7 23 23 0 0 0-16-21.875z" style="opacity:.2"/>
 <circle cx="24" cy="24" r="23" style="fill:url(#bg)"/>
 <path d="m40.03 7.531c3.712 4.084 5.969 9.514 5.969 15.469 0 12.703-10.297 23-23 23-5.954 0-11.384-2.256-15.469-5.969 4.178 4.291 10.01 6.969 16.469 6.969 12.703 0 23-10.298 23-23 0-6.462-2.677-12.291-6.969-16.469z" style="opacity:.1"/>
 <path d="m25 14c-4.9706 0-9 4.0294-9 9 0.0053 3.8094 2.4084 7.2029 6 8.4727v4.5273l2 2h2l2-2v-4.5254c3.5922-1.27 5.9955-4.6645 6-8.4746 0-4.9706-4.0294-9-9-9z" style="opacity:.1"/>
 <path d="m21 29v6l2 2h2l2-2v-6z" style="fill:#a6a6a6"/>
 <path d="m21 31v1h6v-1zm0 2v1h6v-1zm0 2 1 1h4l1-1z" style="fill:#8c8c8c"/>
 <path d="m21 29v2.0449a9 9 0 0 0 4 0.95508 9 9 0 0 0 2-0.24805v-2.752h-6z" style="opacity:.1"/>
 <circle cx="24" cy="22" r="9" style="fill:#e7eda1"/>
 <path d="m24 15c-3.866 0-7.0003 3.134-7 7 2.31e-4 3.0952 2.0338 5.8227 5 6.707v-3.7949c-0.16046 0.05749-0.32955 0.08721-0.5 0.08789-0.82843 0-1.5-0.67157-1.5-1.5s0.67157-1.5 1.5-1.5 1.5 0.67157 1.5 1.5v0.5h2v-0.5c0-0.82843 0.67157-1.5 1.5-1.5s1.5 0.67157 1.5 1.5-0.67157 1.5-1.5 1.5c-0.17045-6.75e-4 -0.5 0-0.5 0v3.707c2.9662-0.88435 4.9995-3.6118 5-6.707 0-3.866-3.134-7-7-7zm-3 2c0.55228 0 1 0.44772 1 1s-0.44772 1-1 1-1-0.44772-1-1 0.44772-1 1-1zm-1.5 3c0.27614 0 0.5 0.22386 0.5 0.5s-0.22386 0.5-0.5 0.5-0.5-0.22386-0.5-0.5 0.22386-0.5 0.5-0.5zm2 3c-0.27614 0-0.5 0.22386-0.5 0.5s0.22386 0.5 0.5 0.5h0.5v-0.5c0-0.27614-0.22386-0.5-0.5-0.5zm5 0c-0.27614 0-0.5 0.22386-0.5 0.5v0.5h0.5c0.27614 0 0.5-0.22386 0.5-0.5s-0.22386-0.5-0.5-0.5zm-3.5 2v3.9297c0.33122 0.04731 0.66542 0.0708 1 0.07031 0.33458 4.92e-4 0.66878-0.02301 1-0.07031v-3.9297z" style="fill:#ef9a43"/>
</svg>
