<svg version="1.1" viewBox="0 0 48 48" xmlns="http://www.w3.org/2000/svg">
 <defs>
  <linearGradient id="linearGradient3764" x1="1" x2="47" gradientTransform="matrix(0 -1 1 0 -1.5e-6 48)" gradientUnits="userSpaceOnUse">
   <stop style="stop-color:#e52424" offset="0"/>
   <stop style="stop-color:#e73737" offset="1"/>
  </linearGradient>
 </defs>
 <path d="m36.3 5c5.86 4.06 9.69 10.8 9.69 18.5 0 12.4-10.1 22.5-22.5 22.5-7.67 0-14.4-3.83-18.5-9.69 1.04 1.82 2.31 3.5 3.78 4.97 4.08 3.71 9.51 5.97 15.5 5.97 12.7 0 23-10.3 23-23 0-5.95-2.26-11.4-5.97-15.5-1.47-1.48-3.15-2.74-4.97-3.78zm4.97 3.78c3.85 4.11 6.22 9.64 6.22 15.7 0 12.7-10.3 23-23 23-6.08 0-11.6-2.36-15.7-6.22 4.16 4.14 9.88 6.72 16.2 6.72 12.7 0 23-10.3 23-23 0-6.34-2.58-12.1-6.72-16.2z" style="opacity:.05"/>
 <path d="m41.3 8.78c3.71 4.08 5.97 9.51 5.97 15.5 0 12.7-10.3 23-23 23-5.95 0-11.4-2.26-15.5-5.97 4.11 3.85 9.64 6.22 15.7 6.22 12.7 0 23-10.3 23-23 0-6.08-2.36-11.6-6.22-15.7z" style="opacity:.1"/>
 <path d="m31.2 2.38c8.62 3.15 14.8 11.4 14.8 21.1 0 12.4-10.1 22.5-22.5 22.5-9.71 0-18-6.14-21.1-14.8a23 23 0 0 0 44.9-7 23 23 0 0 0-16-21.9z" style="opacity:.2"/>
 <path d="m24 1c12.7 0 23 10.3 23 23s-10.3 23-23 23-23-10.3-23-23 10.3-23 23-23z" style="fill:url(#linearGradient3764)"/>
 <path d="m25 10c-8.28 0-15 6.72-15 15s6.72 15 15 15 15-6.72 15-15-6.72-15-15-15zm0 1c7.73 0 14 6.27 14 14-2e-3 2.97-0.956 5.86-2.72 8.26l0.014-1.67c0.016-0.953 0.016-0.963-0.129-1.14-0.141-0.164-0.141-0.183-0.055-0.313 0.094-0.137 0.09-0.148-0.109-0.316-0.207-0.18-0.215-0.195-0.137-0.367 0.074-0.184 0.063-0.199-0.418-0.883-0.273-0.391-0.516-0.742-0.539-0.789s-0.074-0.115-0.129-0.154c-0.129-0.098-0.086-0.758 0.059-1 0.09-0.145 0.105-0.221 0.059-0.303-0.039-0.078-0.039-0.172 8e-3 -0.289 0.059-0.164 0.049-0.207-0.146-0.477-0.117-0.16-0.219-0.324-0.219-0.371 0-0.043-0.041-0.121-0.096-0.18-0.074-0.086-0.08-0.141-0.025-0.293 0.039-0.125 0.039-0.219 0-0.293-0.031-0.063-0.043-0.113-0.023-0.113 0.016 0-0.043-0.07-0.133-0.152-0.086-0.082-0.129-0.135-0.086-0.111 0.109 0.059 0.082 0-0.09-0.152-0.082-0.078-0.137-0.102-0.113-0.055 0.027 0.047-5e-3 0.021-0.064-0.053-0.117-0.16-0.137-0.309-0.047-0.371 0.035-0.023 0.012-0.082-0.059-0.137-0.066-0.055-0.082-0.082-0.043-0.059 0.117 0.059 0.082 4e-3 -0.117-0.184-0.102-0.094-0.164-0.129-0.141-0.082 0.039 0.078 0.035 0.078-0.035 0-0.102-0.117-0.371-0.234-0.543-0.234-0.09 0-0.152-0.043-0.164-0.105-0.02-0.059-0.203-0.218-0.406-0.354l-3.28 3.36c0.504 0.801 0.582 0.958 0.582 1.15 0 0.242 0.126 0.543 0.271 0.672 0.066 0.051 0.219 0.109 0.344 0.129 0.129 0.023 0.383 0.113 0.559 0.199 0.266 0.137 0.336 0.195 0.348 0.324l-2.64 1.06-0.574-0.551c-0.316-0.305-0.746-0.671-0.953-0.813-0.488-0.348-1.28-0.77-1.43-0.77-0.094 0-0.105-0.031-0.074-0.168 0.023-0.086 0.051-0.398 0.074-0.695 0.047-0.77-0.098-1.32-0.477-1.77-0.082-0.105-0.137-0.191-0.117-0.207-0.279-0.345-0.991-0.725-1.64-1.09 0.035-0.098 0.193-0.109 0.193-0.023 0 0.035 0.105 0.055 0.234 0.047 0.141-0.012 0.227-0.047 0.227-0.094 0-0.035 0.031-0.07 0.066-0.07s0.055-0.035 0.035-0.082c-0.016-0.047 8e-3 -0.1 0.059-0.115 0.047-0.023 0.079-0.078 0.064-0.125-0.063-0.137 2e-3 -0.107 0.279 0.15 0.148 0.137 0.273 0.23 0.273 0.207 0-0.016 0.051 0.02 0.121 0.09 0.572 0.241 0.839 0.04 1.38-0.275 0.148-0.113 0.207-0.212 0.238-0.396 0.035-0.199 0.119-0.336 0.443-0.672 0.219-0.234 0.445-0.508 0.496-0.602 0.082-0.172 0.084-0.199-0.025-0.418l-0.121-0.23 0.145-0.098c0.121-0.078 0.152-0.148 0.164-0.422l0.016-0.32 0.16 0.121c0.219 0.176 0.332 0.148 0.43-0.086 0.145-0.344 0.285-0.863 0.297-1.1 4e-3 -0.125 0.035-0.238 0.059-0.266 0.027-0.023 0.027 0 0 0.047-0.023 0.047 0.018 0.023 0.1-0.059 0.078-0.082 0.137-0.168 0.125-0.184-4e-3 -0.023 0.012-0.184 0.043-0.355 0.117-0.629 0.121-0.746 0.145-1.87 0.023-0.73 8e-3 -1.12-0.027-1.1-0.031 0.023-0.059-0.086-0.059-0.277-8e-3 -0.617-0.383-1.93-0.633-2.17-0.082-0.074-0.086-0.074-0.051 0.027 0.051 0.156 0.164 1.25 0.141 1.37-0.02 0.059-0.059-0.055-0.102-0.246-0.039-0.195-0.129-0.473-0.199-0.621l-0.125-0.266-0.035 0.68c-0.047 0.914-0.047 0.914-0.559 0.699l-4.34-0.985-4.91 24.2c-4.38-2.48-7.09-7.13-7.09-12.2-2e-3 -7.73 6.27-14 14-14m9.73 19c0 0.027 0.02 0.047 0.043 0.047 0.109 0 0.793 1.86 0.789 2.13 0.158 0.469 0.268 1.05 0.371 1.58-2.22 2.78-5.41 4.6-8.92 5.12l-0.26-0.566c-0.137-0.156-0.168-0.238-0.168-0.504 0-0.191 0.043-0.387 0.102-0.5 0.102-0.168 0.102-0.185-0.016-0.314-0.219-0.234-0.555-0.777-0.555-0.895 0-0.059-0.184-0.406-0.406-0.785-0.289-0.473-0.379-0.664-0.301-0.641 0.105 0.035 1.41 0.734 2.37 1.28 0.473 0.266 0.531 0.281 0.848 0.266 0.332-0.02 0.348-0.031 0.496-0.266 0.082-0.129 0.371-0.406 0.648-0.617 0.555-0.414 0.754-0.645 0.949-1.08 0.799-1.53 1.08-2.7 2.2-4.29 0.129-0.133 0.234-0.262 0.23-0.289-0.012-0.023 0.012-0.035 0.051-0.031 0.035 0.012 0.103-0.047 0.146-0.121 0.086-0.172 0.191-0.242 0.297-0.203 0.043 0.02 0.096-0.012 0.111-0.063 0.02-0.055 0.061-0.08 0.092-0.061 0.027 0.016 0.051 2e-3 0.051-0.033s0.031-0.051 0.059-0.031c0 0 0.822 0.916 0.779 0.869z" style="opacity:.1"/>
 <path d="m24 9c-8.28 0-15 6.72-15 15s6.72 15 15 15 15-6.72 15-15-6.72-15-15-15m0 1c7.73 0 14 6.27 14 14-2e-3 2.97-0.956 5.86-2.72 8.26l0.014-1.67c0.016-0.953 0.016-0.963-0.129-1.14-0.141-0.164-0.141-0.183-0.055-0.313 0.094-0.137 0.09-0.148-0.109-0.316-0.207-0.18-0.215-0.195-0.137-0.367 0.074-0.184 0.063-0.199-0.418-0.883-0.273-0.391-0.516-0.742-0.539-0.789s-0.074-0.115-0.129-0.154c-0.129-0.098-0.086-0.758 0.059-1 0.09-0.145 0.105-0.221 0.059-0.303-0.039-0.078-0.039-0.172 8e-3 -0.289 0.059-0.164 0.049-0.207-0.146-0.477-0.117-0.16-0.219-0.324-0.219-0.371 0-0.043-0.041-0.121-0.096-0.18-0.074-0.086-0.08-0.141-0.025-0.293 0.039-0.125 0.039-0.219 0-0.293-0.031-0.063-0.043-0.113-0.023-0.113 0.016 0-0.043-0.07-0.133-0.152-0.086-0.082-0.129-0.135-0.086-0.111 0.109 0.059 0.082 0-0.09-0.152-0.082-0.078-0.137-0.102-0.113-0.055 0.027 0.047-5e-3 0.021-0.064-0.053-0.117-0.16-0.137-0.309-0.047-0.371 0.035-0.023 0.012-0.082-0.059-0.137-0.066-0.055-0.082-0.082-0.043-0.059 0.117 0.059 0.082 4e-3 -0.117-0.184-0.102-0.094-0.164-0.129-0.141-0.082 0.039 0.078 0.035 0.078-0.035 0-0.102-0.117-0.371-0.234-0.543-0.234-0.09 0-0.152-0.043-0.164-0.105-0.02-0.059-0.203-0.218-0.406-0.354-0.613-0.398-0.98-0.315-1.3 0.322-0.078 0.152-0.148 0.295-0.156 0.307-4e-3 0.012-0.121-0.074-0.258-0.199-0.336-0.301-0.523-0.258-1.07 0.227-0.371 0.332-0.506 0.477-0.322 0.359 0.039-0.031-9e-3 0.023-0.105 0.109-0.094 0.094-0.137 0.152-0.09 0.129s0.023 0.02-0.07 0.094c-0.102 0.09-0.176 0.23-0.191 0.371-0.035 0.215-0.031 0.23 0.086 0.195 0.063-0.016 0.125-2e-3 0.125 0.033s0.02 0.043 0.027 0.023c0.055-0.047 0.387 0.145 0.387 0.215 0 0.023 0.02 0.027 0.059 0.012 0.035-0.02 0.061-0.012 0.061 0.023s-0.131 0.18-0.299 0.336c-0.387 0.363-0.406 0.441-0.168 0.805 0.504 0.801 0.582 0.958 0.582 1.15 0 0.242 0.126 0.543 0.271 0.672 0.066 0.051 0.219 0.109 0.344 0.129 0.129 0.023 0.383 0.113 0.559 0.199 0.266 0.137 0.336 0.195 0.348 0.324 0.023 0.207-0.629 1.49-0.879 1.73-0.168 0.164-0.191 0.168-0.836 0.168-0.363 0-0.734 0.025-0.832 0.057l-0.168 0.051 0.035-0.469 0.035-0.479-0.574-0.551c-0.316-0.305-0.746-0.671-0.953-0.813-0.488-0.348-1.28-0.77-1.43-0.77-0.094 0-0.105-0.031-0.074-0.168 0.023-0.086 0.051-0.398 0.074-0.695 0.047-0.77-0.098-1.32-0.477-1.77-0.082-0.105-0.137-0.191-0.117-0.207-0.279-0.345-0.991-0.725-1.64-1.09 0.035-0.098 0.193-0.109 0.193-0.023 0 0.035 0.105 0.055 0.234 0.047 0.141-0.012 0.227-0.047 0.227-0.094 0-0.035 0.031-0.07 0.066-0.07s0.055-0.035 0.035-0.082c-0.016-0.047 8e-3 -0.1 0.059-0.115 0.047-0.023 0.079-0.078 0.064-0.125-0.063-0.137 2e-3 -0.107 0.279 0.15 0.148 0.137 0.273 0.23 0.273 0.207 0-0.016 0.051 0.02 0.121 0.09 0.572 0.241 0.839 0.04 1.38-0.275 0.148-0.113 0.207-0.212 0.238-0.396 0.035-0.199 0.119-0.336 0.443-0.672 0.219-0.234 0.445-0.508 0.496-0.602 0.082-0.172 0.084-0.199-0.025-0.418l-0.121-0.23 0.145-0.098c0.121-0.078 0.152-0.148 0.164-0.422l0.016-0.32 0.16 0.121c0.219 0.176 0.332 0.148 0.43-0.086 0.145-0.344 0.285-0.863 0.297-1.1 4e-3 -0.125 0.035-0.238 0.059-0.266 0.027-0.023 0.027 0 0 0.047-0.023 0.047 0.018 0.023 0.1-0.059 0.078-0.082 0.137-0.168 0.125-0.184-4e-3 -0.023 0.012-0.184 0.043-0.355 0.117-0.629 0.121-0.746 0.145-1.87 0.023-0.73 8e-3 -1.12-0.027-1.1-0.031 0.023-0.059-0.086-0.059-0.277-8e-3 -0.617-0.383-1.93-0.633-2.17-0.082-0.074-0.086-0.074-0.051 0.027 0.051 0.156 0.164 1.25 0.141 1.37-0.02 0.059-0.059-0.055-0.102-0.246-0.039-0.195-0.129-0.473-0.199-0.621l-0.125-0.266-0.035 0.68c-0.047 0.914-0.047 0.914-0.559 0.699-0.223-0.094-0.449-0.168-0.488-0.168-0.043 0-0.182-0.066-0.311-0.148s-0.531-0.289-0.895-0.465c-0.367-0.18-0.879-0.461-1.14-0.625-0.395-0.254-0.504-0.297-0.672-0.273-0.215 0.035-0.539 0.297-0.719 0.598-0.172 0.273-0.391 0.242-0.613-0.09-0.277-0.406-0.402-0.453-0.887-0.324-0.387 0.105-0.91 0.402-0.961 0.543-0.016 0.063 0.09 0.078 0.387 0.078 0.375 0 0.898 0.156 0.898 0.273 0 0.02-0.262 0.02-0.594 0.012l-0.594-0.031 0.037 0.203c0.02 0.109 0.094 0.326 0.16 0.479 0.07 0.152 0.129 0.291 0.129 0.314 0.02 0.141 0.23 0.285 0.418 0.285 0.129 0 0.205-0.023 0.182-0.059-0.043-0.074 0.027-0.078 0.129-0.016 0.059 0.035 0.058 0.07-0.021 0.164-0.047 0.063-0.074 0.07-0.051 0.023-0.677 0.593-1.59 1.09-2.28 1.35 0 0.035-0.023 0.047-0.055 0.023-0.035-0.016-0.051 0.102-0.047 0.297 8e-3 0.176 0.031 0.324 0.055 0.324 0.016 0 0.023 0.098 4e-3 0.227-0.016 0.137-4e-3 0.242 0.035 0.266 0.07 0.047 0.09 0.273 0.023 0.273-0.027 0-0.094-0.082-0.152-0.191-0.09-0.145-0.117-0.168-0.164-0.098-0.082 0.129-0.066 0.277 0.051 0.348 0.082 0.047 0.07 0.051-0.059 0.023-0.246-0.055-0.211 0.082 0.102 0.387 0.152 0.148 0.244 0.285 0.221 0.324-0.023 0.035-0.195 0.207-0.383 0.379-0.277 0.246-0.361 0.293-0.428 0.242-0.102-0.086-0.148-0.051-0.789 0.535-0.348 0.324-0.426 0.418-0.391 0.52 0.031 0.098-4e-3 0.145-0.176 0.246-0.148 0.086-0.206 0.16-0.188 0.234 0.016 0.066-0.094 0.223-0.336 0.477-0.215 0.219-0.457 0.555-0.59 0.813-0.494 0.789-0.763 1.55-1.22 2.48-0.293 0.418-0.855 1.69-1.04 2.36-0.074 0.277-0.164 0.508-0.203 0.523-0.047 0.012-0.047 0.031-8e-3 0.059 0.043 0.023 0.047 0.121 0.012 0.273-0.094 0.406-0.063 1.27 0.055 1.59 0.686 1.67 1.57 3.05 3.2 4.33 0.066 0 0.395 0.23 0.738 0.516 0.504 0.418 0.613 0.527 0.586 0.641-0.016 0.105 0.039 0.188 0.227 0.336 0.234 0.195 0.336 0.391 0.652 1.24 0.031 0.074-0.051 0.191-0.328 0.453-0.183 0.179-0.684 0.544-0.775 0.611-4.38-2.48-7.09-7.13-7.09-12.2-2e-3 -7.73 6.27-14 14-14m9.1 18c0.028 9e-3 0.07 0.043 0.133 0.107 0.09 0.094 0.15 0.184 0.143 0.207l-2e-3 2e-3c-0.012 0.027 0.012 0.047 0.047 0.047s0.055 0.023 0.031 0.051c-0.02 0.031 0.035 0.135 0.117 0.221 0.137 0.148 0.172 0.227 0.152 0.332 0 0.027 0.02 0.047 0.043 0.047 0.109 0 0.793 1.86 0.789 2.13 0.158 0.469 0.268 1.05 0.371 1.58-2.22 2.78-5.41 4.6-8.92 5.12l-0.26-0.566c-0.137-0.156-0.168-0.238-0.168-0.504 0-0.191 0.043-0.387 0.102-0.5 0.102-0.168 0.102-0.185-0.016-0.314-0.219-0.234-0.555-0.777-0.555-0.895 0-0.059-0.184-0.406-0.406-0.785-0.289-0.473-0.379-0.664-0.301-0.641 0.105 0.035 1.41 0.734 2.37 1.28 0.473 0.266 0.531 0.281 0.848 0.266 0.332-0.02 0.348-0.031 0.496-0.266 0.082-0.129 0.371-0.406 0.648-0.617 0.555-0.414 0.754-0.645 0.949-1.08 0.799-1.53 1.08-2.7 2.2-4.29 0.129-0.133 0.234-0.262 0.23-0.289-0.012-0.023 0.012-0.035 0.051-0.031 0.035 0.012 0.103-0.047 0.146-0.121 0.086-0.172 0.191-0.242 0.297-0.203 0.043 0.02 0.096-0.012 0.111-0.063 0.02-0.055 0.061-0.08 0.092-0.061 0.027 0.016 0.051 2e-3 0.051-0.033s0.031-0.051 0.059-0.031c0.035 0.02 0.078-4e-3 0.102-0.055 0.011-0.037 0.026-0.052 0.055-0.043z" style="fill:#424242"/>
 <path d="m40 7.53c3.71 4.08 5.97 9.51 5.97 15.5 0 12.7-10.3 23-23 23-5.95 0-11.4-2.26-15.5-5.97 4.18 4.29 10 6.97 16.5 6.97 12.7 0 23-10.3 23-23 0-6.46-2.68-12.3-6.97-16.5z" style="opacity:.1"/>
</svg>
