<svg version="1.1" viewBox="0 0 48 48" xmlns="http://www.w3.org/2000/svg">
 <defs>
  <linearGradient id="linearGradient3840" x2="0" y1="47" y2="1" gradientUnits="userSpaceOnUse">
   <stop style="stop-color:#353535" offset="0"/>
   <stop style="stop-color:#3f3f3f" offset="1"/>
  </linearGradient>
  <linearGradient id="linearGradient4171" x2="0" y1="47" y2="1" gradientUnits="userSpaceOnUse">
   <stop style="stop-color:#e1e1e1" offset="0"/>
   <stop style="stop-color:#e1e1e1" offset="1"/>
  </linearGradient>
 </defs>
 <path d="m36.31 5c5.859 4.062 9.688 10.831 9.688 18.5 0 12.426-10.07 22.5-22.5 22.5-7.669 0-14.438-3.828-18.5-9.688 1.037 1.822 2.306 3.499 3.781 4.969 4.085 3.712 9.514 5.969 15.469 5.969 12.703 0 23-10.298 23-23 0-5.954-2.256-11.384-5.969-15.469-1.469-1.475-3.147-2.744-4.969-3.781zm4.969 3.781c3.854 4.113 6.219 9.637 6.219 15.719 0 12.703-10.297 23-23 23-6.081 0-11.606-2.364-15.719-6.219 4.16 4.144 9.883 6.719 16.219 6.719 12.703 0 23-10.298 23-23 0-6.335-2.575-12.06-6.719-16.219z" style="opacity:.05"/>
 <path d="m41.28 8.781c3.712 4.085 5.969 9.514 5.969 15.469 0 12.703-10.297 23-23 23-5.954 0-11.384-2.256-15.469-5.969 4.113 3.854 9.637 6.219 15.719 6.219 12.703 0 23-10.298 23-23 0-6.081-2.364-11.606-6.219-15.719z" style="opacity:.1"/>
 <path d="m31.25 2.375c8.615 3.154 14.75 11.417 14.75 21.13 0 12.426-10.07 22.5-22.5 22.5-9.708 0-17.971-6.135-21.12-14.75a23 23 0 0 0 44.875 -7 23 23 0 0 0 -16 -21.875z" style="opacity:.2"/>
 <path d="m24 1c-12.703 0-23 10.297-23 23s10.297 23 23 23c2-2 2-44 0-46z" style="fill:url(#linearGradient3840)"/>
 <path d="m24 1v46c12.703 0 23-10.297 23-23s-10.297-23-23-23z" style="fill:url(#linearGradient4171)"/>
 <path d="m40.03 7.531c3.712 4.084 5.969 9.514 5.969 15.469 0 12.703-10.297 23-23 23-5.954 0-11.384-2.256-15.469-5.969 4.178 4.291 10.01 6.969 16.469 6.969 12.703 0 23-10.298 23-23 0-6.462-2.677-12.291-6.969-16.469z" style="opacity:.1"/>
 <path d="m13 13v24h6c2 0 4-2 4-4v-16c0-2-2-4-4-4h-6zm4 4h1c0.567 0 1 0.466 1 1v14c0 0.501-0.466 1-1 1h-1v-16z" style="opacity:.1"/>
 <path d="m12 12v24h6c2 0 4-2 4-4v-16c0-2-2-4-4-4h-6zm4 4h1c0.567 0 1 0.466 1 1v14c0 0.501-0.466 1-1 1h-1v-16z" style="fill:#e6d329"/>
 <path d="m29 13-3 24h4l0.344-4h3.313l0.344 4h4l-3-24h-0.469-2.531-2.531-0.469zm2.406 7h1.188l0.75 9h-2.688l0.75-9z" style="opacity:.1"/>
 <path d="m28 12-3 24h4l0.344-4h3.313l0.344 4h4l-3-24h-0.469-2.531-2.531-0.469zm2.406 7h1.188l0.75 9h-2.688l0.75-9z" style="fill:#353535"/>
</svg>
