<svg xmlns="http://www.w3.org/2000/svg" viewBox="0 0 48 48">
 <defs>
  <linearGradient id="linearGradient3764" x1="1" x2="47" gradientUnits="userSpaceOnUse" gradientTransform="matrix(0,-1,1,0,-1.5e-6,47.999998)">
   <stop style="stop-color:#e4e4e4;stop-opacity:1"/>
   <stop offset="1" style="stop-color:#eee;stop-opacity:1"/>
  </linearGradient>
 </defs>
 <g>
  <path d="m 36.31 5 c 5.859 4.062 9.688 10.831 9.688 18.5 c 0 12.426 -10.07 22.5 -22.5 22.5 c -7.669 0 -14.438 -3.828 -18.5 -9.688 c 1.037 1.822 2.306 3.499 3.781 4.969 c 4.085 3.712 9.514 5.969 15.469 5.969 c 12.703 0 23 -10.298 23 -23 c 0 -5.954 -2.256 -11.384 -5.969 -15.469 c -1.469 -1.475 -3.147 -2.744 -4.969 -3.781 z m 4.969 3.781 c 3.854 4.113 6.219 9.637 6.219 15.719 c 0 12.703 -10.297 23 -23 23 c -6.081 0 -11.606 -2.364 -15.719 -6.219 c 4.16 4.144 9.883 6.719 16.219 6.719 c 12.703 0 23 -10.298 23 -23 c 0 -6.335 -2.575 -12.06 -6.719 -16.219 z" style="opacity:0.05"/>
  <path d="m 41.28 8.781 c 3.712 4.085 5.969 9.514 5.969 15.469 c 0 12.703 -10.297 23 -23 23 c -5.954 0 -11.384 -2.256 -15.469 -5.969 c 4.113 3.854 9.637 6.219 15.719 6.219 c 12.703 0 23 -10.298 23 -23 c 0 -6.081 -2.364 -11.606 -6.219 -15.719 z" style="opacity:0.1"/>
  <path d="m 31.25 2.375 c 8.615 3.154 14.75 11.417 14.75 21.13 c 0 12.426 -10.07 22.5 -22.5 22.5 c -9.708 0 -17.971 -6.135 -21.12 -14.75 a 23 23 0 0 0 44.875 -7 a 23 23 0 0 0 -16 -21.875 z" style="opacity:0.2"/>
 </g>
 <g>
  <path d="m 24 1 c 12.703 0 23 10.297 23 23 c 0 12.703 -10.297 23 -23 23 -12.703 0 -23 -10.297 -23 -23 0 -12.703 10.297 -23 23 -23 z" style="fill:url(#linearGradient3764);fill-opacity:1"/>
 </g>
 <path d="m 37 18 0 14 -12 6 -12 -6 0 -14 12 -6" style="fill:#000;opacity:0.1;fill-opacity:1;stroke:none;fill-rule:nonzero"/>
 <path d="m 36 17 0 14 -12 6 -12 -6 0 -14 12 -6" style="fill:#bababa;fill-opacity:1;stroke:none;fill-rule:nonzero"/>
 <g>
  <path d="m 40.03 7.531 c 3.712 4.084 5.969 9.514 5.969 15.469 0 12.703 -10.297 23 -23 23 c -5.954 0 -11.384 -2.256 -15.469 -5.969 4.178 4.291 10.01 6.969 16.469 6.969 c 12.703 0 23 -10.298 23 -23 0 -6.462 -2.677 -12.291 -6.969 -16.469 z" style="opacity:0.1"/>
 </g>
 <path d="m 35 19 -4 2 0 6 4 2 z" style="fill:#000;fill-opacity:1;stroke:none"/>
 <path d="m 34.3 30.735 -3.708 -2.553 -5.588 2.818 l 0 4.4 z" style="fill:#000;fill-opacity:1;stroke:none"/>
 <path d="m 35 19 -4 2 0 6 4 2 z" style="fill:#000;fill-opacity:1;stroke:none"/>
 <path d="m 34.3 17.247 -3.708 2.553 -5.588 -2.8 0 -4.418 z" style="fill:#000;fill-opacity:1;stroke:none"/>
 <path d="m 13 19 4 2 0 6 -4 2 z" style="fill:#000;fill-opacity:1;stroke:none"/>
 <path d="m 13.704 30.735 3.708 -2.553 5.588 2.818 l 0 4.4 z" style="fill:#000877;fill-opacity:1;stroke:none"/>
 <path d="m 13 19 4 2 0 6 -4 2 z" style="fill:#000;fill-opacity:1;stroke:none"/>
 <path d="m 13.704 17.247 3.708 2.553 5.588 -2.8 0 -4.418 z" style="fill:#000;fill-opacity:1;stroke:none"/>
 <path d="m 20 15 c -1.657 0 -3 1.343 -3 3 c 0 0.645 0.216 1.229 0.563 1.719 l 0.125 -0.063 c -0.175 -0.378 -0.281 -0.803 -0.281 -1.25 c 0 -1.657 1.343 -3 3 -3 c 0.744 0 1.413 0.27 1.938 0.719 c -0.55 -0.686 -1.396 -1.125 -2.344 -1.125 z" style="fill:#f9f9f9;fill-opacity:1;stroke:none;fill-rule:nonzero"/>
 <path d="m 29 24 a 5 5 0 1 1 -10 0 5 5 0 1 1 10 0 z" style="fill:#000;opacity:1;fill-opacity:1;stroke:none;fill-rule:nonzero"/>
 <path d="m 29.406 28.781 l -4.406 2.219 l 0 4.406 l 5.781 -2.906 c -0.258 -1.33 -0.744 -2.567 -1.375 -3.719 z" style="fill:#000877;fill-opacity:1;stroke:none;fill-rule:nonzero"/>
 <path d="m 19.406 22.06 c -0.253 0.598 -0.406 1.247 -0.406 1.938 c 0 2.761 2.239 5 5 5 c 1.702 0 3.222 -0.857 4.125 -2.156 c -2.109 -2.619 -5.194 -4.406 -8.719 -4.781 z" style="fill:#000877;opacity:1;fill-opacity:1;stroke:none;fill-rule:nonzero"/>
 <path d="m 17 22.03 c -1.409 0.106 -2.752 0.449 -4 0.969 l 0 6 l 4 -2 l 0 -4.969 z" style="fill:#000877;fill-opacity:1;stroke:none"/>
</svg>
