<svg xmlns="http://www.w3.org/2000/svg" viewBox="0 0 48 48">
 <defs>
  <linearGradient id="linearGradient3764" x1="1" x2="47" gradientUnits="userSpaceOnUse" gradientTransform="matrix(0,-1,1,0,-1.5e-6,47.999998)">
   <stop style="stop-color:#239cf1;stop-opacity:1"/>
   <stop offset="1" style="stop-color:#36a5f2;stop-opacity:1"/>
  </linearGradient>
 </defs>
 <g>
  <path d="m 36.31 5 c 5.859 4.062 9.688 10.831 9.688 18.5 c 0 12.426 -10.07 22.5 -22.5 22.5 c -7.669 0 -14.438 -3.828 -18.5 -9.688 c 1.037 1.822 2.306 3.499 3.781 4.969 c 4.085 3.712 9.514 5.969 15.469 5.969 c 12.703 0 23 -10.298 23 -23 c 0 -5.954 -2.256 -11.384 -5.969 -15.469 c -1.469 -1.475 -3.147 -2.744 -4.969 -3.781 z m 4.969 3.781 c 3.854 4.113 6.219 9.637 6.219 15.719 c 0 12.703 -10.297 23 -23 23 c -6.081 0 -11.606 -2.364 -15.719 -6.219 c 4.16 4.144 9.883 6.719 16.219 6.719 c 12.703 0 23 -10.298 23 -23 c 0 -6.335 -2.575 -12.06 -6.719 -16.219 z" style="opacity:0.05"/>
  <path d="m 41.28 8.781 c 3.712 4.085 5.969 9.514 5.969 15.469 c 0 12.703 -10.297 23 -23 23 c -5.954 0 -11.384 -2.256 -15.469 -5.969 c 4.113 3.854 9.637 6.219 15.719 6.219 c 12.703 0 23 -10.298 23 -23 c 0 -6.081 -2.364 -11.606 -6.219 -15.719 z" style="opacity:0.1"/>
  <path d="m 31.25 2.375 c 8.615 3.154 14.75 11.417 14.75 21.13 c 0 12.426 -10.07 22.5 -22.5 22.5 c -9.708 0 -17.971 -6.135 -21.12 -14.75 a 23 23 0 0 0 44.875 -7 a 23 23 0 0 0 -16 -21.875 z" style="opacity:0.2"/>
 </g>
 <g>
  <path d="m 24 1 c 12.703 0 23 10.297 23 23 c 0 12.703 -10.297 23 -23 23 -12.703 0 -23 -10.297 -23 -23 0 -12.703 10.297 -23 23 -23 z" style="fill:url(#linearGradient3764);fill-opacity:1"/>
 </g>
 <g>
  <g>
   <g transform="translate(1,1)">
    <g style="opacity:0.1">
     <!-- color: #36a5f2 -->
     <g>
      <path d="m 23.266 12 c -2.539 0.031 -5.02 1.621 -6.05 3.965 c -0.953 1.93 -0.898 4.355 -0.68 6.227 c 0.219 1.871 0.66 3.379 1.914 4.523 c 1.297 1.371 3.223 1.98 5.063 2.039 c 1.535 -0.137 3.406 -0.559 4.078 -2.121 c -0.082 1.199 0.281 2.484 -0.191 3.629 c -1.117 2.035 -4.133 2.594 -5.949 1.258 c -0.809 -0.563 -0.98 -1.652 -1.148 -2.516 l -3.941 0 c -0.176 2.789 1.742 5.484 4.316 6.406 c 2.93 1.059 6.477 0.723 8.965 -1.23 c 1.508 -1.18 2.395 -3.082 2.375 -4.98 l 0 -16.695 c -1.426 -0.027 -2.855 0 -4.273 0 c 0 0.672 0 1.367 0.027 2.039 c -0.699 -1.512 -2.355 -2.484 -3.992 -2.543 c -0.168 0 -0.34 0 -0.504 0 m 1.055 3.742 c 1.23 0 2.457 0.699 2.93 1.871 c 0.672 1.734 0.785 3.715 0.141 5.477 c -0.563 1.172 -1.676 2.289 -3.074 2.148 c -1.785 0.141 -3.07 -1.59 -3.379 -3.18 c -0.254 -1.484 -0.223 -3.102 0.418 -4.496 c 0.531 -1.203 1.703 -1.789 2.957 -1.816 m 0.008 -0.004" style="fill:#000;fill-opacity:1;stroke:none;fill-rule:nonzero"/>
     </g>
    </g>
   </g>
  </g>
 </g>
 <g>
  <g>
   <!-- color: #36a5f2 -->
   <g>
    <path d="m 23.266 12 c -2.539 0.031 -5.02 1.621 -6.05 3.965 c -0.953 1.93 -0.898 4.355 -0.68 6.227 c 0.219 1.871 0.66 3.379 1.914 4.523 c 1.297 1.371 3.223 1.98 5.063 2.039 c 1.535 -0.137 3.406 -0.559 4.078 -2.121 c -0.082 1.199 0.281 2.484 -0.191 3.629 c -1.117 2.035 -4.133 2.594 -5.949 1.258 c -0.809 -0.563 -0.98 -1.652 -1.148 -2.516 l -3.941 0 c -0.176 2.789 1.742 5.484 4.316 6.406 c 2.93 1.059 6.477 0.723 8.965 -1.23 c 1.508 -1.18 2.395 -3.082 2.375 -4.98 l 0 -16.695 c -1.426 -0.027 -2.855 0 -4.273 0 c 0 0.672 0 1.367 0.027 2.039 c -0.699 -1.512 -2.355 -2.484 -3.992 -2.543 c -0.168 0 -0.34 0 -0.504 0 m 1.055 3.742 c 1.23 0 2.457 0.699 2.93 1.871 c 0.672 1.734 0.785 3.715 0.141 5.477 c -0.563 1.172 -1.676 2.289 -3.074 2.148 c -1.785 0.141 -3.07 -1.59 -3.379 -3.18 c -0.254 -1.484 -0.223 -3.102 0.418 -4.496 c 0.531 -1.203 1.703 -1.789 2.957 -1.816 m 0.008 -0.004" style="fill:#fff;fill-opacity:1;stroke:none;fill-rule:nonzero"/>
   </g>
  </g>
 </g>
 <g>
  <path d="m 40.03 7.531 c 3.712 4.084 5.969 9.514 5.969 15.469 0 12.703 -10.297 23 -23 23 c -5.954 0 -11.384 -2.256 -15.469 -5.969 4.178 4.291 10.01 6.969 16.469 6.969 c 12.703 0 23 -10.298 23 -23 0 -6.462 -2.677 -12.291 -6.969 -16.469 z" style="opacity:0.1"/>
 </g>
</svg>
