<svg xmlns="http://www.w3.org/2000/svg" viewBox="0 0 48 48">
 <defs>
  <linearGradient id="linearGradient3922" x1="24" y1="1" x2="24.25" y2="47.25" gradientUnits="userSpaceOnUse">
   <stop style="stop-color:#a9dae7;stop-opacity:1"/>
   <stop offset="1" style="stop-color:#99d4e3;stop-opacity:1"/>
  </linearGradient>
 </defs>
 <g>
  <path d="m 36.31 5 c 5.859 4.062 9.688 10.831 9.688 18.5 c 0 12.426 -10.07 22.5 -22.5 22.5 c -7.669 0 -14.438 -3.828 -18.5 -9.688 c 1.037 1.822 2.306 3.499 3.781 4.969 c 4.085 3.712 9.514 5.969 15.469 5.969 c 12.703 0 23 -10.298 23 -23 c 0 -5.954 -2.256 -11.384 -5.969 -15.469 c -1.469 -1.475 -3.147 -2.744 -4.969 -3.781 z m 4.969 3.781 c 3.854 4.113 6.219 9.637 6.219 15.719 c 0 12.703 -10.297 23 -23 23 c -6.081 0 -11.606 -2.364 -15.719 -6.219 c 4.16 4.144 9.883 6.719 16.219 6.719 c 12.703 0 23 -10.298 23 -23 c 0 -6.335 -2.575 -12.06 -6.719 -16.219 z" style="opacity:0.05"/>
  <path d="m 41.28 8.781 c 3.712 4.085 5.969 9.514 5.969 15.469 c 0 12.703 -10.297 23 -23 23 c -5.954 0 -11.384 -2.256 -15.469 -5.969 c 4.113 3.854 9.637 6.219 15.719 6.219 c 12.703 0 23 -10.298 23 -23 c 0 -6.081 -2.364 -11.606 -6.219 -15.719 z" style="opacity:0.1"/>
  <path d="m 31.25 2.375 c 8.615 3.154 14.75 11.417 14.75 21.13 c 0 12.426 -10.07 22.5 -22.5 22.5 c -9.708 0 -17.971 -6.135 -21.12 -14.75 a 23 23 0 0 0 44.875 -7 a 23 23 0 0 0 -16 -21.875 z" style="opacity:0.2"/>
 </g>
 <g style="fill:url(#linearGradient3922);fill-opacity:1">
  <path d="m 24 1 c 12.703 0 23 10.297 23 23 c 0 12.703 -10.297 23 -23 23 -12.703 0 -23 -10.297 -23 -23 0 -12.703 10.297 -23 23 -23 z"/>
 </g>
 <g>
  <path d="m 40.03 7.531 c 3.712 4.084 5.969 9.514 5.969 15.469 0 12.703 -10.297 23 -23 23 c -5.954 0 -11.384 -2.256 -15.469 -5.969 4.178 4.291 10.01 6.969 16.469 6.969 c 12.703 0 23 -10.298 23 -23 0 -6.462 -2.677 -12.291 -6.969 -16.469 z" style="opacity:0.1"/>
 </g>
 <g transform="translate(0.99999918,1)" style="fill:#000;opacity:0.1">
  <g transform="translate(0,-1.0000019)">
   <g transform="translate(0,2)">
    <g transform="matrix(0.95877916,0,0,0.95877916,3.3711256,-2.202206)">
     <rect ry="3.677" y="21.438" x="28.548" height="11.419" width="5.213" rx="2.607" style="opacity:1;fill-opacity:1;stroke:none;fill-rule:nonzero"/>
     <circle r="3" cx="31.03" cy="19.746" style="opacity:1;fill-opacity:1;stroke:none;fill-rule:nonzero"/>
    </g>
    <g transform="matrix(0.95877916,0,0,0.95877916,3.3711256,-2.202206)" style="opacity:0.1">
     <rect width="5.213" height="11.419" x="28.548" y="21.438" ry="3.677" rx="2.607" style="opacity:1;fill-opacity:1;stroke:none;fill-rule:nonzero"/>
     <circle cy="19.746" cx="31.03" r="3" style="opacity:1;fill-opacity:1;stroke:none;fill-rule:nonzero"/>
    </g>
   </g>
   <g transform="translate(0,2)">
    <g transform="matrix(1.150535,0,0,1.150535,-3.6146309,-4.9194479)">
     <path d="m 12.702 20.728 10 0 c 0 0 0 8.865 -5 8.865 -5 0 -5 -8.865 -5 -8.865 z" style="stroke:none;fill-rule:evenodd"/>
     <circle r="2.5" cy="18.633" cx="17.702" style="opacity:1;fill-opacity:1;stroke:none;fill-rule:nonzero"/>
    </g>
    <g transform="matrix(1.150535,0,0,1.150535,-3.6146309,-4.9194479)" style="opacity:0.1">
     <path d="m 12.702 20.728 10 0 c 0 0 0 8.865 -5 8.865 -5 0 -5 -8.865 -5 -8.865 z" style="stroke:none;fill-rule:evenodd"/>
     <circle cx="17.702" cy="18.633" r="2.5" style="opacity:1;fill-opacity:1;stroke:none;fill-rule:nonzero"/>
    </g>
   </g>
   <g transform="matrix(1.150535,0,0,1.150535,-3.9569542,-7.5697931)">
    <path d="m 17.02 37 15.962 0 c 0 0 0 -11.667 -7.981 -11.667 c -7.981 0 -7.981 11.667 -7.981 11.667" style="stroke:none;fill-rule:evenodd"/>
    <circle cx="25.01" cy="22.792" r="4" style="opacity:1;fill-opacity:1;stroke:none;fill-rule:nonzero"/>
   </g>
  </g>
 </g>
 <g>
  <g transform="translate(0,-1.0000019)">
   <g transform="translate(0,2)">
    <g transform="matrix(0.95877916,0,0,0.95877916,3.3711256,-2.202206)">
     <rect width="5.213" height="11.419" x="28.548" y="21.438" ry="3.677" rx="2.607" style="fill:#ff7f2a;opacity:1;fill-opacity:1;stroke:none;fill-rule:nonzero"/>
     <circle cy="19.746" cx="31.03" r="3" style="fill:#fca;opacity:1;fill-opacity:1;stroke:none;fill-rule:nonzero"/>
    </g>
    <g transform="matrix(0.95877916,0,0,0.95877916,3.3711256,-2.202206)" style="fill:#000;opacity:0.1">
     <rect ry="3.677" y="21.438" x="28.548" height="11.419" width="5.213" rx="2.607" style="opacity:1;fill-opacity:1;stroke:none;fill-rule:nonzero"/>
     <circle r="3" cx="31.03" cy="19.746" style="opacity:1;fill-opacity:1;stroke:none;fill-rule:nonzero"/>
    </g>
   </g>
   <g transform="translate(0,2)">
    <g transform="matrix(1.150535,0,0,1.150535,-3.6146309,-4.9194479)">
     <path d="m 12.702 20.728 10 0 c 0 0 0 8.865 -5 8.865 -5 0 -5 -8.865 -5 -8.865 z" style="fill:#ff7f2a;stroke:none;fill-rule:evenodd"/>
     <circle cx="17.702" cy="18.633" r="2.5" style="fill:#fca;opacity:1;fill-opacity:1;stroke:none;fill-rule:nonzero"/>
    </g>
    <g transform="matrix(1.150535,0,0,1.150535,-3.6146309,-4.9194479)" style="fill:#000;opacity:0.1">
     <path d="m 12.702 20.728 10 0 c 0 0 0 8.865 -5 8.865 -5 0 -5 -8.865 -5 -8.865 z" style="stroke:none;fill-rule:evenodd"/>
     <circle r="2.5" cy="18.633" cx="17.702" style="opacity:1;fill-opacity:1;stroke:none;fill-rule:nonzero"/>
    </g>
   </g>
   <g transform="matrix(1.150535,0,0,1.150535,-3.9569542,-7.5697931)">
    <path d="m 17.02 37 15.962 0 c 0 0 0 -11.667 -7.981 -11.667 c -7.981 0 -7.981 11.667 -7.981 11.667" style="fill:#ff7f2a;stroke:none;fill-rule:evenodd"/>
    <circle r="4" cy="22.792" cx="25.01" style="fill:#fca;opacity:1;fill-opacity:1;stroke:none;fill-rule:nonzero"/>
   </g>
  </g>
 </g>
</svg>
