<svg version="1.1" viewBox="0 0 48 48" xmlns="http://www.w3.org/2000/svg" xmlns:xlink="http://www.w3.org/1999/xlink">
 <defs>
  <linearGradient id="bg" x2="0" y1="1" y2="47" gradientUnits="userSpaceOnUse">
   <stop style="stop-color:#424242" offset="0"/>
   <stop style="stop-color:#383838" offset="1"/>
  </linearGradient>
  <linearGradient id="blue" x1="44.548" x2="44.548" y1="9.5459" y2="22.274" gradientTransform="matrix(.70711 0 0 1.4142 -.0024492 4e-7)" gradientUnits="userSpaceOnUse">
   <stop stop-color="#0AF" stop-opacity="0" offset="0"/>
   <stop stop-color="#0AF" stop-opacity=".5" offset="1"/>
  </linearGradient>
  <linearGradient id="blue-shadow" x1="37.069" x2="37.069" y1="10.744" y2="25.068" gradientTransform="matrix(.79582 0 0 1.2566 .99755 1)" gradientUnits="userSpaceOnUse">
   <stop stop-opacity="0" offset="0"/>
   <stop stop-opacity=".1" offset="1"/>
  </linearGradient>
  <linearGradient id="red-shadow" x1="23.246" x2="23.246" y1="13.131" y2="27.456" gradientTransform="matrix(.79582 0 0 1.2566 .99755 1)" gradientUnits="userSpaceOnUse">
   <stop stop-opacity=".1" offset="0"/>
   <stop stop-opacity="0" offset="1"/>
  </linearGradient>
  <linearGradient id="linearGradient882" x1="23.335" x2="23.335" y1="11.667" y2="24.395" gradientTransform="matrix(.70711 0 0 1.4142 -.0024492 4e-7)" gradientUnits="userSpaceOnUse" xlink:href="#red"/>
  <linearGradient id="red" x1=".5" x2=".5" y1=".25" y2=".85">
   <stop style="stop-color:#ee2b1b;stop-opacity:.5" offset="0"/>
   <stop style="stop-color:#ee2b1b;stop-opacity:0" offset="1"/>
  </linearGradient>
 </defs>
 <path d="m36.31 5c5.859 4.062 9.688 10.831 9.688 18.5 0 12.426-10.07 22.5-22.5 22.5-7.669 0-14.438-3.828-18.5-9.688 1.037 1.822 2.306 3.499 3.781 4.969 4.085 3.712 9.514 5.969 15.469 5.969 12.703 0 23-10.298 23-23 0-5.954-2.256-11.384-5.969-15.469-1.469-1.475-3.147-2.744-4.969-3.781zm4.969 3.781c3.854 4.113 6.219 9.637 6.219 15.719 0 12.703-10.297 23-23 23-6.081 0-11.606-2.364-15.719-6.219 4.16 4.144 9.883 6.719 16.219 6.719 12.703 0 23-10.298 23-23 0-6.335-2.575-12.06-6.719-16.219z" style="opacity:.05"/>
 <path d="m41.28 8.781c3.712 4.085 5.969 9.514 5.969 15.469 0 12.703-10.297 23-23 23-5.954 0-11.384-2.256-15.469-5.969 4.113 3.854 9.637 6.219 15.719 6.219 12.703 0 23-10.298 23-23 0-6.081-2.364-11.606-6.219-15.719z" style="opacity:.1"/>
 <path d="m31.25 2.375c8.615 3.154 14.75 11.417 14.75 21.13 0 12.426-10.07 22.5-22.5 22.5-9.708 0-17.971-6.135-21.12-14.75a23 23 0 0 0 44.875-7 23 23 0 0 0-16-21.875z" style="opacity:.2"/>
 <circle cx="24" cy="24" r="23" style="fill:url(#bg)"/>
 <path d="m40.03 7.531c3.712 4.084 5.969 9.514 5.969 15.469 0 12.703-10.297 23-23 23-5.954 0-11.384-2.256-15.469-5.969 4.178 4.291 10.01 6.969 16.469 6.969 12.703 0 23-10.298 23-23 0-6.462-2.677-12.291-6.969-16.469z" style="opacity:.1"/>
 <path d="m24.998 10a15 15 0 0 0 0 30 11 11 0 1 1 0-22 4 4 0 0 0 0-8" fill="url(#red-shadow)" style="fill:url(#red-shadow)"/>
 <path d="m24.998 40a15 15 0 0 0 0-30 11 11 0 1 1 0 22 4 4 0 0 0 0 8" fill="url(#blue-shadow)" style="fill:url(#blue-shadow)"/>
 <path d="m23.998 9a15 15 0 0 0 0 30 11 11 0 1 1 0-22" fill="url(#red)" style="fill:url(#linearGradient882)"/>
 <path d="m23.998 39a15 15 0 0 0 0-30 11 11 0 1 1 0 22" fill="url(#blue)" style="fill:url(#blue)"/>
 <circle cx="23.998" cy="13" r="4" fill="#E21" style="fill:#ee3525"/>
 <circle cx="23.998" cy="35" r="4" fill="#0af"/>
</svg>
