<svg version="1.1" viewBox="0 0 48 48" xmlns="http://www.w3.org/2000/svg">
 <defs>
  <linearGradient id="bg" x2="0" y1="1" y2="47" gradientUnits="userSpaceOnUse">
   <stop style="stop-color:#eee" offset="0"/>
   <stop style="stop-color:#e4e4e4" offset="1"/>
  </linearGradient>
 </defs>
 <path d="m36.31 5c5.859 4.062 9.688 10.831 9.688 18.5 0 12.426-10.07 22.5-22.5 22.5-7.669 0-14.438-3.828-18.5-9.688 1.037 1.822 2.306 3.499 3.781 4.969 4.085 3.712 9.514 5.969 15.469 5.969 12.703 0 23-10.298 23-23 0-5.954-2.256-11.384-5.969-15.469-1.469-1.475-3.147-2.744-4.969-3.781zm4.969 3.781c3.854 4.113 6.219 9.637 6.219 15.719 0 12.703-10.297 23-23 23-6.081 0-11.606-2.364-15.719-6.219 4.16 4.144 9.883 6.719 16.219 6.719 12.703 0 23-10.298 23-23 0-6.335-2.575-12.06-6.719-16.219z" style="opacity:.05"/>
 <path d="m41.28 8.781c3.712 4.085 5.969 9.514 5.969 15.469 0 12.703-10.297 23-23 23-5.954 0-11.384-2.256-15.469-5.969 4.113 3.854 9.637 6.219 15.719 6.219 12.703 0 23-10.298 23-23 0-6.081-2.364-11.606-6.219-15.719z" style="opacity:.1"/>
 <path d="m31.25 2.375c8.615 3.154 14.75 11.417 14.75 21.13 0 12.426-10.07 22.5-22.5 22.5-9.708 0-17.971-6.135-21.12-14.75a23 23 0 0 0 44.875-7 23 23 0 0 0-16-21.875z" style="opacity:.2"/>
 <circle cx="24" cy="24" r="23" style="fill:url(#bg)"/>
 <path d="m25 10c-15 0-15 12-15 15 0 5 4 13 4 13l2-2 2 4s-0.25269-1.9609-0.43945-3.3965c1.3865 1.1143 3.7508 2.3965 7.4395 2.3965 3.2641 0 5.7693-1.2602 7.457-2.5156-0.19905 1.5313-0.45703 3.5156-0.45703 3.5156l2-4 2 2s4-8 4-13c0-3 0-15-15-15z" style="opacity:.1"/>
 <path d="m24.001 0.998v7h-7v-5.906c-0.337 0.108-0.67 0.221-1 0.344v5.563h-7v-1.438c-0.346 0.298-0.673 0.62-1 0.938v0.5h-0.5c-0.318 0.327-0.64 0.654-0.938 1h1.438v7h-5.563c-0.123 0.33-0.236 0.663-0.344 1h5.906v7h-7c0 0.334 0.017 0.669 0.031 1h6.969v7h-5.563c0.127 0.342 0.264 0.666 0.406 1h5.156v7h-0.5c0.481 0.496 0.976 0.986 1.5 1.438v-0.438h7v4.563c0.33 0.123 0.663 0.236 1 0.344v-4.906h7v6c0.334 0 0.669-0.017 1-0.031v-5.969h7v4.563c0.342-0.127 0.666-0.264 1-0.406v-4.156h6.5c0.522-0.476 1.024-0.978 1.5-1.5v-6.5h4.156c0.142-0.334 0.279-0.658 0.406-1h-4.563v-7h5.969c0.014-0.331 0.031-0.666 0.031-1h-6v-7h4.906c-0.108-0.337-0.221-0.67-0.344-1h-4.563v-7h0.438c-0.451-0.524-0.941-1.019-1.438-1.5v0.5h-7v-5.156c-0.334-0.142-0.658-0.279-1-0.406v5.563h-7v-6.969c-0.331-0.014-0.666-0.031-1-0.031zm-15 8h7v7h-7zm8 0h7v7h-7zm8 0h7v7h-7zm8 0h7v7h-7zm-24 8h7v7h-7zm8 0h7v7h-7zm8 0h7v7h-7zm8 0h7v7h-7zm-24 8h7v7h-7zm8 0h7v7h-7zm8 0h7v7h-7zm8 0h7v7h-7zm-24 8h7v7h-7zm8 0h7v7h-7zm8 0h7v7h-7zm8 0h7v7h-7z" style="fill:#709ceb;opacity:.2"/>
 <path d="m40.03 7.531c3.712 4.084 5.969 9.514 5.969 15.469 0 12.703-10.297 23-23 23-5.954 0-11.384-2.256-15.469-5.969 4.178 4.291 10.01 6.969 16.469 6.969 12.703 0 23-10.298 23-23 0-6.462-2.677-12.291-6.969-16.469z" style="opacity:.1"/>
 <path d="m15 34s2.5 4 9 4 10-5 10-5v-15h-19z" style="fill:#ffe8c0"/>
 <path d="m24 9c-15 0-15 12-15 15 0 5 4 13 4 13l2-2 2 4s-1.2992-9.7684-1.7969-14.566c1.6018-1.2609 3.668-3.1759 4.7969-5.4336 0 2-2 6-2 6l2-2-1 3s6-4 8-6v6s2-2 3-5c1 3 0 7 0 7l2.7891-3.4863c-0.5039 4.8271-1.7891 14.486-1.7891 14.486l2-4 2 2s4-8 4-13c0-3 0-15-15-15z" style="fill:#23519b"/>
 <path d="m18.498 26.994c-1.109 0.01413-1.9371 0.28719-2.4902 0.56445-0.55312 0.27727-0.86328 0.58984-0.86328 0.58984a0.50005 0.50005 0 1 0 0.7207 0.69336s0.15862-0.17446 0.58984-0.39062 1.103-0.44488 2.0566-0.45703c1.7853-0.02275 2.6426 0.85742 2.6426 0.85742a0.50005 0.50005 0 1 0 0.70117-0.71289s-1.2194-1.1718-3.3574-1.1445z" style="fill:#2d2d2d"/>
 <path d="m29.498 26.994c-1.109 0.01413-1.9371 0.28719-2.4902 0.56445-0.55312 0.27727-0.86328 0.58984-0.86328 0.58984a0.50005 0.50005 0 1 0 0.7207 0.69336s0.15862-0.17446 0.58984-0.39062 1.103-0.44488 2.0566-0.45703c1.7853-0.02275 2.6426 0.85742 2.6426 0.85742a0.50005 0.50005 0 1 0 0.70117-0.71289s-1.2194-1.1718-3.3574-1.1445z" style="fill:#2d2d2d"/>
 <path d="m24 31c3 0 4 0.50246 4 1 0 2-1 4-4 4s-4-2-4-4c0-0.51146 1-1 4-1z" style="fill:#de8287"/>
 <path d="m24 33a4 1.5 0 0 0-3.6328 0.87695c0.51057 1.206 1.6093 2.123 3.6328 2.123s3.1222-0.917 3.6328-2.123a4 1.5 0 0 0-3.6328-0.87695z" style="fill:#eaa0a0;paint-order:stroke fill markers"/>
</svg>
