<svg xmlns="http://www.w3.org/2000/svg" viewBox="0 0 48 48">
 <g>
  <path d="m 36.31 5 c 5.859 4.062 9.688 10.831 9.688 18.5 c 0 12.426 -10.07 22.5 -22.5 22.5 c -7.669 0 -14.438 -3.828 -18.5 -9.688 c 1.037 1.822 2.306 3.499 3.781 4.969 c 4.085 3.712 9.514 5.969 15.469 5.969 c 12.703 0 23 -10.298 23 -23 c 0 -5.954 -2.256 -11.384 -5.969 -15.469 c -1.469 -1.475 -3.147 -2.744 -4.969 -3.781 z m 4.969 3.781 c 3.854 4.113 6.219 9.637 6.219 15.719 c 0 12.703 -10.297 23 -23 23 c -6.081 0 -11.606 -2.364 -15.719 -6.219 c 4.16 4.144 9.883 6.719 16.219 6.719 c 12.703 0 23 -10.298 23 -23 c 0 -6.335 -2.575 -12.06 -6.719 -16.219 z" style="opacity:0.05"/>
  <path d="m 41.28 8.781 c 3.712 4.085 5.969 9.514 5.969 15.469 c 0 12.703 -10.297 23 -23 23 c -5.954 0 -11.384 -2.256 -15.469 -5.969 c 4.113 3.854 9.637 6.219 15.719 6.219 c 12.703 0 23 -10.298 23 -23 c 0 -6.081 -2.364 -11.606 -6.219 -15.719 z" style="opacity:0.1"/>
  <path d="m 31.25 2.375 c 8.615 3.154 14.75 11.417 14.75 21.13 c 0 12.426 -10.07 22.5 -22.5 22.5 c -9.708 0 -17.971 -6.135 -21.12 -14.75 a 23 23 0 0 0 44.875 -7 a 23 23 0 0 0 -16 -21.875 z" style="opacity:0.2"/>
 </g>
 <g style="fill:#409686;fill-opacity:1">
  <path d="m 24 1 c 12.703 0 23 10.297 23 23 c 0 12.703 -10.297 23 -23 23 -12.703 0 -23 -10.297 -23 -23 0 -12.703 10.297 -23 23 -23 z"/>
 </g>
 <g>
  <path d="m 40.03 7.531 c 3.712 4.084 5.969 9.514 5.969 15.469 0 12.703 -10.297 23 -23 23 c -5.954 0 -11.384 -2.256 -15.469 -5.969 4.178 4.291 10.01 6.969 16.469 6.969 c 12.703 0 23 -10.298 23 -23 0 -6.462 -2.677 -12.291 -6.969 -16.469 z" style="opacity:0.1"/>
 </g>
 <path d="m 24.938 10 c -1.148 0.005 -9.786 3.622 -10.594 4.438 -0.808 0.816 -4.349 9.477 -4.344 10.625 0.005 1.148 3.622 9.786 4.438 10.594 0.816 0.808 9.477 4.349 10.625 4.344 1.148 -0.005 9.786 -3.622 10.594 -4.438 0.808 -0.816 4.349 -9.477 4.344 -10.625 -0.005 -1.148 -3.622 -9.786 -4.438 -10.594 -0.816 -0.808 -9.477 -4.349 -10.625 -4.344 z m -0.063 4.531 10.844 10.375 -10.625 11.09 -10.844 -10.344 10.625 -11.125 z m 0.125 4.469 c -3.314 0 -6 2.686 -6 6 0 3.314 2.686 6 6 6 3.314 0 6 -2.686 6 -6 0 -3.314 -2.686 -6 -6 -6 z" style="fill:#000;opacity:0.1;fill-opacity:1;stroke:none;fill-rule:nonzero"/>
 <path d="m 23.938 9 c -1.148 0.005 -9.786 3.622 -10.594 4.438 c -0.808 0.816 -4.349 9.477 -4.344 10.625 c 0.005 1.148 3.622 9.786 4.438 10.594 c 0.816 0.808 9.477 4.349 10.625 4.344 c 1.148 -0.005 9.786 -3.622 10.594 -4.438 c 0.808 -0.816 4.349 -9.477 4.344 -10.625 c -0.005 -1.148 -3.622 -9.786 -4.438 -10.594 c -0.816 -0.808 -9.477 -4.349 -10.625 -4.344 z m -0.063 4.531 l 10.844 10.375 l -10.625 11.09 l -10.844 -10.344 l 10.625 -11.125 z m 0.125 4.469 c -3.314 0 -6 2.686 -6 6 c 0 3.314 2.686 6 6 6 c 3.314 0 6 -2.686 6 -6 c 0 -3.314 -2.686 -6 -6 -6 z" style="fill:#fdf568;opacity:1;fill-opacity:1;stroke:none;fill-rule:nonzero"/>
</svg>
