<svg version="1.1" viewBox="0 0 48 48" xmlns="http://www.w3.org/2000/svg">
 <defs>
  <linearGradient id="bg" x2="0" y1="1" y2="47" gradientUnits="userSpaceOnUse">
   <stop style="stop-color:#714abe" offset="0"/>
   <stop style="stop-color:#6740b4" offset="1"/>
  </linearGradient>
 </defs>
 <path d="m36.31 5c5.859 4.062 9.688 10.831 9.688 18.5 0 12.426-10.07 22.5-22.5 22.5-7.669 0-14.438-3.828-18.5-9.688 1.037 1.822 2.306 3.499 3.781 4.969 4.085 3.712 9.514 5.969 15.469 5.969 12.703 0 23-10.298 23-23 0-5.954-2.256-11.384-5.969-15.469-1.469-1.475-3.147-2.744-4.969-3.781zm4.969 3.781c3.854 4.113 6.219 9.637 6.219 15.719 0 12.703-10.297 23-23 23-6.081 0-11.606-2.364-15.719-6.219 4.16 4.144 9.883 6.719 16.219 6.719 12.703 0 23-10.298 23-23 0-6.335-2.575-12.06-6.719-16.219z" style="opacity:.05"/>
 <path d="m41.28 8.781c3.712 4.085 5.969 9.514 5.969 15.469 0 12.703-10.297 23-23 23-5.954 0-11.384-2.256-15.469-5.969 4.113 3.854 9.637 6.219 15.719 6.219 12.703 0 23-10.298 23-23 0-6.081-2.364-11.606-6.219-15.719z" style="opacity:.1"/>
 <path d="m31.25 2.375c8.615 3.154 14.75 11.417 14.75 21.13 0 12.426-10.07 22.5-22.5 22.5-9.708 0-17.971-6.135-21.12-14.75a23 23 0 0 0 44.875-7 23 23 0 0 0-16-21.875z" style="opacity:.2"/>
 <circle cx="24" cy="24" r="23" style="fill:url(#bg)"/>
 <path d="m40.03 7.531c3.712 4.084 5.969 9.514 5.969 15.469 0 12.703-10.297 23-23 23-5.954 0-11.384-2.256-15.469-5.969 4.178 4.291 10.01 6.969 16.469 6.969 12.703 0 23-10.298 23-23 0-6.462-2.677-12.291-6.969-16.469z" style="opacity:.1"/>
 <circle cx="25" cy="25" r="15" style="opacity:.1"/>
 <circle cx="23.949" cy="24" r="15" style="fill:#40b6f5"/>
 <path d="m23.949 9a15 15 0 0 0-0.35352 0.011719 2 3.5 0 0 0-0.5957 2.4883 2 3.5 0 0 0 2 3.5 2 3.5 0 0 0 2-3.5 2 3.5 0 0 0-0.47461-2.2617 15 15 0 0 0-2.5762-0.23828zm-6.3574 1.4336a15 15 0 0 0-2.5664 1.5293 10 7.5 0 0 0-0.025391 0.53711 10 7.5 0 0 0 10 7.5 10 7.5 0 0 0 9.8633-6.2754 15 15 0 0 0-1.8965-1.6875 8 5.5 0 0 1 0.033203 0.46289 8 5.5 0 0 1-8 5.5 8 5.5 0 0 1-8-5.5 8 5.5 0 0 1 0.5918-2.0664zm2.4082 10.566c-0.55228 0-1 1.3431-1 3s0.44772 3 1 3 1-1.3431 1-3-0.44772-3-1-3zm10 0c-0.55228 0-1 1.3431-1 3s0.44772 3 1 3 1-1.3431 1-3-0.44772-3-1-3zm-14 7c-1.6569 0-3 0.44772-3 1s1.3431 1 3 1 3-0.44772 3-1-1.3431-1-3-1zm18 0c-1.6569 0-3 0.44772-3 1s1.3431 1 3 1 3-0.44772 3-1-1.3431-1-3-1zm-14 3c-0.79179 0-1.6568 0.74563-1.916 1.543v0.001953c-0.04908 0.15147-0.083984 0.30463-0.083984 0.45508 0 0.11137 0.015886 0.21912 0.041016 0.32422 8e-3 0.03388 0.0208 0.066379 0.03125 0.099609 0.01666 0.05243 0.037987 0.10347 0.060546 0.1543 0.064161 0.14585 0.1472 0.28922 0.25586 0.42188 1.0946 1.3329 4.2863 2 6.6113 2 2.693 0 6.1833-0.8083 6.8711-2.4199 0.02158-0.05028 0.042603-0.10049 0.058594-0.15234 0.010929-0.03567 0.02305-0.071001 0.03125-0.10742 0.02353-0.10385 0.039062-0.21037 0.039062-0.32031 0-0.94281-1-2-2-2-2 0-2.8918 1-5 1s-3-1-5-1z" style="opacity:.1;paint-order:stroke fill markers"/>
 <path d="m24 9a15 15 0 0 0-1.8379 0.13281 2 3.5 0 0 0-0.16211 1.3672 2 3.5 0 0 0 2 3.5 2 3.5 0 0 0 2-3.5 2 3.5 0 0 0-0.16211-1.375 15 15 0 0 0-1.8379-0.125zm-7.9863 2.3105a15 15 0 0 0-1.8691 1.4062 10 7.5 0 0 0 9.8555 6.2832 10 7.5 0 0 0 9.8652-6.2852 15 15 0 0 0-1.873-1.3887 8 5.5 0 0 1 0.007812 0.17383 8 5.5 0 0 1-8 5.5 8 5.5 0 0 1-8-5.5 8 5.5 0 0 1 0.013672-0.18945z" style="fill:#f9f9f9;paint-order:stroke fill markers"/>
 <path d="m19 30c-0.94281 0-2 1.0572-2 2 0 2 4.152 3 7 3 3 0 7-1 7-3 0-0.94281-1-2-2-2-2 0-2.8918 1-5 1s-3-1-5-1z" style="fill:#f9f9f9"/>
 <path d="m30.918 31.541-2.918 0.45898 2.625 1c0.23868-0.29976 0.375-0.63284 0.375-1 0-0.15178-0.03437-0.30617-0.08203-0.45898zm-13.834 2e-3c-0.049437 0.15203-0.083984 0.30596-0.083984 0.45698 0 0.36725 0.14245 0.70018 0.38867 1l2.6113-1z" style="opacity:.3"/>
 <ellipse cx="15" cy="28" rx="3" ry="1" style="fill:#f8add3;paint-order:stroke fill markers"/>
 <ellipse cx="33" cy="28" rx="3" ry="1" style="fill:#f8add3;paint-order:stroke fill markers"/>
 <ellipse cx="19" cy="23" rx="1" ry="3" style="fill:#f9f9f9;paint-order:stroke fill markers"/>
 <ellipse cx="29" cy="23" rx="1" ry="3" style="fill:#f9f9f9;paint-order:stroke fill markers"/>
</svg>
