<svg xmlns="http://www.w3.org/2000/svg" viewBox="0 0 48 48">
 <defs>
  <linearGradient id="linearGradient3764" x1="1" x2="47" gradientUnits="userSpaceOnUse" gradientTransform="matrix(0,-1,1,0,-1.5e-6,47.999998)">
   <stop style="stop-color:#79acc3;stop-opacity:1"/>
   <stop offset="1" style="stop-color:#86b4c9;stop-opacity:1"/>
  </linearGradient>
 </defs>
 <g>
  <path d="m 36.31 5 c 5.859 4.062 9.688 10.831 9.688 18.5 c 0 12.426 -10.07 22.5 -22.5 22.5 c -7.669 0 -14.438 -3.828 -18.5 -9.688 c 1.037 1.822 2.306 3.499 3.781 4.969 c 4.085 3.712 9.514 5.969 15.469 5.969 c 12.703 0 23 -10.298 23 -23 c 0 -5.954 -2.256 -11.384 -5.969 -15.469 c -1.469 -1.475 -3.147 -2.744 -4.969 -3.781 z m 4.969 3.781 c 3.854 4.113 6.219 9.637 6.219 15.719 c 0 12.703 -10.297 23 -23 23 c -6.081 0 -11.606 -2.364 -15.719 -6.219 c 4.16 4.144 9.883 6.719 16.219 6.719 c 12.703 0 23 -10.298 23 -23 c 0 -6.335 -2.575 -12.06 -6.719 -16.219 z" style="opacity:0.05"/>
  <path d="m 41.28 8.781 c 3.712 4.085 5.969 9.514 5.969 15.469 c 0 12.703 -10.297 23 -23 23 c -5.954 0 -11.384 -2.256 -15.469 -5.969 c 4.113 3.854 9.637 6.219 15.719 6.219 c 12.703 0 23 -10.298 23 -23 c 0 -6.081 -2.364 -11.606 -6.219 -15.719 z" style="opacity:0.1"/>
  <path d="m 31.25 2.375 c 8.615 3.154 14.75 11.417 14.75 21.13 c 0 12.426 -10.07 22.5 -22.5 22.5 c -9.708 0 -17.971 -6.135 -21.12 -14.75 a 23 23 0 0 0 44.875 -7 a 23 23 0 0 0 -16 -21.875 z" style="opacity:0.2"/>
 </g>
 <g>
  <path d="m 24 1 c 12.703 0 23 10.297 23 23 c 0 12.703 -10.297 23 -23 23 -12.703 0 -23 -10.297 -23 -23 0 -12.703 10.297 -23 23 -23 z" style="fill:url(#linearGradient3764);fill-opacity:1"/>
 </g>
 <g>
  <g>
   <g transform="translate(1,1)">
    <g style="opacity:0.1">
     <!-- color: #86b4c9 -->
    </g>
   </g>
  </g>
 </g>
 <g transform="translate(0.990108,1)" style="fill:#000;opacity:0.1">
  <g style="fill:#000">
   <!-- color: #86b4c9 -->
   <g style="fill:#000">
    <path d="m 24 12 c -0.625 0.001 -1.992 0.102 -2.912 0.182 -2.145 0.186 -4.326 0.369 -6.438 0.373 -1.512 0.003 -1.691 0.039 -1.619 0.781 0.058 0.597 0.306 0.727 0.951 0.727 0.547 0 0.98 0.18 1.133 0.492 0.227 0.426 0.354 1.918 0.457 5.18 0.171 5.395 0.008 13.09 -0.293 14.07 -0.125 0.395 -0.613 0.633 -1.492 0.727 -0.352 0.039 -0.668 0.113 -0.695 0.168 -0.145 0.199 -0.082 1.066 0.066 1.191 c 0.109 0.102 0.842 0.109 3.578 0.109 l 7.264 0 c 9 0 13.01 -6 13.01 -12.06 0 -7.939 -6.01 -11.954 -13.01 -11.939 m 0 0.492 c 4.525 -0.159 8.704 2.37 10.615 5.115 0.129 0.211 0.273 0.41 0.332 0.445 0.043 0.039 0.066 0.082 0.043 0.105 -0.207 0.007 -0.326 -0.264 -0.402 -0.326 -0.294 -0.198 -0.629 -0.35 -0.939 -0.605 -0.638 -0.538 -1.248 -1.017 -1.789 -1.463 -2.468 -2.037 -5.929 -3.144 -8.512 -3.154 -2.129 0 -3.741 0.296 -5.109 0.926 -0.475 0.219 -0.641 0.246 -1.234 0.217 -0.703 -0.034 -1.279 -0.33 -1.914 -0.559 -0.656 -0.172 -0.398 -0.27 0.742 -0.27 1.285 0 3.887 -0.168 5.191 -0.328 0.77 -0.095 1.87 -0.128 2.977 -0.104 z m -1 1.186 c 5.973 0.271 10 4.322 10 10.322 c 0 7 -6.406 12.08 -13.625 9.654 l -0.176 -0.133 c -0.2 -6.521 -0.2 -12.521 0 -18.82 0.066 -0.313 0.188 -0.438 1.332 -0.727 0.707 -0.185 1.575 -0.337 2.469 -0.297 z m 6.932 19.19 c 0.046 -0.028 0.037 0.076 0.037 0.086 0.004 0.215 -1.843 1.211 -2.781 1.504 -1.64 0.512 -4.224 0.627 -6.633 0.293 -1.259 -0.174 -1.789 -0.328 -2.098 -0.625 -0.285 -0.266 -0.012 -0.313 0.648 -0.113 2.453 0.75 2.602 0.778 4.391 0.785 2.27 0.009 3.438 -0.227 5.02 -1.023 0.75 -0.378 0.875 -0.453 1.133 -0.688 0.074 -0.07 0.142 -0.076 0.184 -0.059 0.061 0.026 0.045 -0.128 0.1 -0.16 z" style="fill:#000;fill-opacity:1;stroke:none;fill-rule:nonzero"/>
   </g>
  </g>
 </g>
 <g transform="translate(-0.009892,0)">
  <g>
   <!-- color: #86b4c9 -->
   <g>
    <path d="m 24 12 c -0.625 0.001 -1.992 0.102 -2.912 0.182 -2.145 0.186 -4.326 0.369 -6.438 0.373 -1.512 0.003 -1.691 0.039 -1.619 0.781 0.058 0.597 0.306 0.727 0.951 0.727 0.547 0 0.98 0.18 1.133 0.492 0.227 0.426 0.354 1.918 0.457 5.18 0.171 5.395 0.008 13.09 -0.293 14.07 -0.125 0.395 -0.613 0.633 -1.492 0.727 -0.352 0.039 -0.668 0.113 -0.695 0.168 -0.145 0.199 -0.082 1.066 0.066 1.191 c 0.109 0.102 0.842 0.109 3.578 0.109 l 7.264 0 c 9 0 13.01 -6 13.01 -12.06 0 -7.939 -6.01 -11.954 -13.01 -11.939 m 0 0.492 c 4.525 -0.159 8.704 2.37 10.615 5.115 0.129 0.211 0.273 0.41 0.332 0.445 0.043 0.039 0.066 0.082 0.043 0.105 -0.207 0.007 -0.326 -0.264 -0.402 -0.326 -0.294 -0.198 -0.629 -0.35 -0.939 -0.605 -0.638 -0.538 -1.248 -1.017 -1.789 -1.463 -2.468 -2.037 -5.929 -3.144 -8.512 -3.154 -2.129 0 -3.741 0.296 -5.109 0.926 -0.475 0.219 -0.641 0.246 -1.234 0.217 -0.703 -0.034 -1.279 -0.33 -1.914 -0.559 -0.656 -0.172 -0.398 -0.27 0.742 -0.27 1.285 0 3.887 -0.168 5.191 -0.328 0.77 -0.095 1.87 -0.128 2.977 -0.104 z m -1 1.186 c 5.973 0.271 10 4.322 10 10.322 c 0 7 -6.406 12.08 -13.625 9.654 l -0.176 -0.133 c -0.2 -6.521 -0.2 -12.521 0 -18.82 0.066 -0.313 0.188 -0.438 1.332 -0.727 0.707 -0.185 1.575 -0.337 2.469 -0.297 z m 6.932 19.19 c 0.046 -0.028 0.037 0.076 0.037 0.086 0.004 0.215 -1.843 1.211 -2.781 1.504 -1.64 0.512 -4.224 0.627 -6.633 0.293 -1.259 -0.174 -1.789 -0.328 -2.098 -0.625 -0.285 -0.266 -0.012 -0.313 0.648 -0.113 2.453 0.75 2.602 0.778 4.391 0.785 2.27 0.009 3.438 -0.227 5.02 -1.023 0.75 -0.378 0.875 -0.453 1.133 -0.688 0.074 -0.07 0.142 -0.076 0.184 -0.059 0.061 0.026 0.045 -0.128 0.1 -0.16 z" style="fill:#f9f9f9;fill-opacity:1;stroke:none;fill-rule:nonzero"/>
   </g>
  </g>
 </g>
 <g>
  <path d="m 40.03 7.531 c 3.712 4.084 5.969 9.514 5.969 15.469 0 12.703 -10.297 23 -23 23 c -5.954 0 -11.384 -2.256 -15.469 -5.969 4.178 4.291 10.01 6.969 16.469 6.969 c 12.703 0 23 -10.298 23 -23 0 -6.462 -2.677 -12.291 -6.969 -16.469 z" style="opacity:0.1"/>
 </g>
</svg>
