<svg version="1.1" viewBox="0 0 48 48" xmlns="http://www.w3.org/2000/svg">
 <defs>
  <linearGradient id="bg" x2="0" y1="47" y2="1" gradientUnits="userSpaceOnUse">
   <stop style="stop-color:#d5d5d5" offset="0"/>
   <stop style="stop-color:#dfdfdf" offset="1"/>
  </linearGradient>
 </defs>
 <path d="m36.3 5c5.86 4.06 9.69 10.8 9.69 18.5 0 12.4-10.1 22.5-22.5 22.5-7.67 0-14.4-3.83-18.5-9.69 1.04 1.82 2.31 3.5 3.78 4.97 4.08 3.71 9.51 5.97 15.5 5.97 12.7 0 23-10.3 23-23 0-5.95-2.26-11.4-5.97-15.5-1.47-1.48-3.15-2.74-4.97-3.78zm4.97 3.78c3.85 4.11 6.22 9.64 6.22 15.7 0 12.7-10.3 23-23 23-6.08 0-11.6-2.36-15.7-6.22 4.16 4.14 9.88 6.72 16.2 6.72 12.7 0 23-10.3 23-23 0-6.34-2.58-12.1-6.72-16.2z" style="opacity:.05"/>
 <path d="m41.3 8.78c3.71 4.08 5.97 9.51 5.97 15.5 0 12.7-10.3 23-23 23-5.95 0-11.4-2.26-15.5-5.97 4.11 3.85 9.64 6.22 15.7 6.22 12.7 0 23-10.3 23-23 0-6.08-2.36-11.6-6.22-15.7z" style="opacity:.1"/>
 <path d="m31.2 2.38c8.62 3.15 14.8 11.4 14.8 21.1 0 12.4-10.1 22.5-22.5 22.5-9.71 0-18-6.14-21.1-14.8a23 23 0 0 0 44.9-7 23 23 0 0 0-16-21.9z" style="opacity:.2"/>
 <path d="m15 2.83c-8.23 3.5-14 11.7-14 21.2 0 9.51 5.77 17.7 14 21.2h18c8.23-3.5 14-11.7 14-21.2 0-9.51-5.77-17.7-14-21.2z" style="fill:url(#bg)"/>
 <path d="m27 1.2c-6 10.8-6 34.8 0 45.6 2.1-0.274 4.12-0.825 6-1.63v-42.3c-1.88-0.802-3.9-1.35-6-1.63z" style="fill:#e9bb38"/>
 <path d="m24 1c-1.02 0-2.02 0.073-3 0.201-6 10.8-6 34.8 0 45.6 0.983 0.128 1.98 0.201 3 0.201s2.02-0.073 3-0.201v-45.6c-0.983-0.128-1.98-0.201-3-0.201z" style="fill:#3590c1"/>
 <path d="m21 1.2c-2.1 0.274-4.12 0.825-6 1.63v42.3c1.88 0.802 3.9 1.35 6 1.63v-45.6z" style="fill:#da573e"/>
 <path d="m40 7.53c3.71 4.08 5.97 9.51 5.97 15.5 0 12.7-10.3 23-23 23-5.95 0-11.4-2.26-15.5-5.97 4.18 4.29 10 6.97 16.5 6.97 12.7 0 23-10.3 23-23 0-6.46-2.68-12.3-6.97-16.5z" style="opacity:.1"/>
 <path d="m33 2.83v10.2h-20v24h20v8.17c0.34-0.145 0.669-0.309 1-0.469v-7.7h3v-24h-3v-9.7c-0.331-0.16-0.66-0.324-1-0.469z" style="opacity:.1"/>
 <rect x="12" y="12" width="24" height="24" style="fill:#474747"/>
 <rect x="17" y="17" width="16" height="16" style="opacity:.1"/>
 <rect x="16" y="16" width="16" height="16" style="fill:#f9f9f9"/>
</svg>
