<svg xmlns="http://www.w3.org/2000/svg" version="1.1" xmlns:xlink="http://www.w3.org/1999/xlink" viewBox="0 0 48 48">
 <defs>
  <linearGradient id="linearGradient3063" gradientUnits="userSpaceOnUse" x2="47" x1="1" gradientTransform="matrix(0 -1 1 0 -.0000015 48)">
   <stop style="stop-color:#c22428" offset="0"/>
   <stop style="stop-color:#d3272c" offset="1"/>
  </linearGradient>
  <linearGradient id="linearGradient862" y2="1" gradientUnits="userSpaceOnUse" x2="0" y1="47">
   <stop style="stop-color:#457238" offset="0"/>
   <stop style="stop-color:#4e7d41" offset="1"/>
  </linearGradient>
 </defs>
 <path style="opacity:.05" d="m36.31 5c5.859 4.062 9.688 10.831 9.688 18.5 0 12.426-10.07 22.5-22.5 22.5-7.669 0-14.438-3.828-18.5-9.688 1.037 1.822 2.306 3.499 3.781 4.969 4.085 3.712 9.514 5.969 15.469 5.969 12.703 0 23-10.298 23-23 0-5.954-2.256-11.384-5.969-15.469-1.469-1.475-3.147-2.744-4.969-3.781zm4.969 3.781c3.854 4.113 6.219 9.637 6.219 15.719 0 12.703-10.297 23-23 23-6.081 0-11.606-2.364-15.719-6.219 4.16 4.144 9.883 6.719 16.219 6.719 12.703 0 23-10.298 23-23 0-6.335-2.575-12.06-6.719-16.219z"/>
 <path style="opacity:.1" d="m41.28 8.781c3.712 4.085 5.969 9.514 5.969 15.469 0 12.703-10.297 23-23 23-5.954 0-11.384-2.256-15.469-5.969 4.113 3.854 9.637 6.219 15.719 6.219 12.703 0 23-10.298 23-23 0-6.081-2.364-11.606-6.219-15.719z"/>
 <path style="opacity:.2" d="m31.25 2.375c8.615 3.154 14.75 11.417 14.75 21.13 0 12.426-10.07 22.5-22.5 22.5-9.708 0-17.971-6.135-21.12-14.75a23 23 0 0 0 44.875 -7 23 23 0 0 0 -16 -21.875z"/>
 <path style="fill:url(#linearGradient3063)" d="m24 1v46c12.703 0 23-10.297 23-23s-10.297-23-23-23z"/>
 <path style="fill:url(#linearGradient862)" d="m24 1c-12.703 0-23 10.297-23 23s10.297 23 23 23v-46z"/>
 <path style="opacity:.1" d="m25 13v24h4l-1.969-10.75 13.969 1.75v-6l-13.969 1.75 1.969-10.75z"/>
 <path style="opacity:.1" d="m25 14-4 8-10-0.996 8 8-3 9 9-5m0-19"/>
 <path style="fill:#292929" d="m24 12v24h4l-1.969-10.75 13.969 1.75v-6l-13.969 1.75 1.969-10.75z"/>
 <path style="fill:#f8f8f8" d="m24 13-4 8-10-0.996 8 8-3 9 9-5m0-19"/>
 <path style="opacity:.1" d="m40.03 7.531c3.712 4.084 5.969 9.514 5.969 15.469 0 12.703-10.297 23-23 23-5.954 0-11.384-2.256-15.469-5.969 4.178 4.291 10.01 6.969 16.469 6.969 12.703 0 23-10.298 23-23 0-6.462-2.677-12.291-6.969-16.469z"/>
</svg>
