<svg xmlns="http://www.w3.org/2000/svg" viewBox="0 0 48 48">
 <defs>
  <linearGradient id="linearGradient3764" x1="1" x2="47" gradientUnits="userSpaceOnUse" gradientTransform="matrix(0,-1,1,0,-1.5e-6,47.999998)">
   <stop style="stop-color:#e4e4e4;stop-opacity:1"/>
   <stop offset="1" style="stop-color:#eee;stop-opacity:1"/>
  </linearGradient>
 </defs>
 <g>
  <path d="m 36.31 5 c 5.859 4.062 9.688 10.831 9.688 18.5 c 0 12.426 -10.07 22.5 -22.5 22.5 c -7.669 0 -14.438 -3.828 -18.5 -9.688 c 1.037 1.822 2.306 3.499 3.781 4.969 c 4.085 3.712 9.514 5.969 15.469 5.969 c 12.703 0 23 -10.298 23 -23 c 0 -5.954 -2.256 -11.384 -5.969 -15.469 c -1.469 -1.475 -3.147 -2.744 -4.969 -3.781 z m 4.969 3.781 c 3.854 4.113 6.219 9.637 6.219 15.719 c 0 12.703 -10.297 23 -23 23 c -6.081 0 -11.606 -2.364 -15.719 -6.219 c 4.16 4.144 9.883 6.719 16.219 6.719 c 12.703 0 23 -10.298 23 -23 c 0 -6.335 -2.575 -12.06 -6.719 -16.219 z" style="opacity:0.05"/>
  <path d="m 41.28 8.781 c 3.712 4.085 5.969 9.514 5.969 15.469 c 0 12.703 -10.297 23 -23 23 c -5.954 0 -11.384 -2.256 -15.469 -5.969 c 4.113 3.854 9.637 6.219 15.719 6.219 c 12.703 0 23 -10.298 23 -23 c 0 -6.081 -2.364 -11.606 -6.219 -15.719 z" style="opacity:0.1"/>
  <path d="m 31.25 2.375 c 8.615 3.154 14.75 11.417 14.75 21.13 c 0 12.426 -10.07 22.5 -22.5 22.5 c -9.708 0 -17.971 -6.135 -21.12 -14.75 a 23 23 0 0 0 44.875 -7 a 23 23 0 0 0 -16 -21.875 z" style="opacity:0.2"/>
 </g>
 <g>
  <path d="m 24 1 c 12.703 0 23 10.297 23 23 c 0 12.703 -10.297 23 -23 23 -12.703 0 -23 -10.297 -23 -23 0 -12.703 10.297 -23 23 -23 z" style="fill:url(#linearGradient3764);fill-opacity:1"/>
 </g>
 <g>
  <g>
   <g transform="translate(1,1)">
    <g style="opacity:0.1">
     <!-- color: #eeeeee -->
     <g>
      <path d="m 33.08 20.938 c 0 4.934 -4 8.934 -8.934 8.934 c -4.938 0 -8.938 -4 -8.938 -8.934 c 0 -4.938 4 -8.938 8.938 -8.938 c 4.797 0 8.734 3.785 8.93 8.578" style="fill:#000;fill-opacity:1;stroke:none;fill-rule:nonzero"/>
      <path d="m 17.59 26.805 l 0.141 -0.043 c 1.613 -0.52 3.344 0.371 3.859 1.984 l 1.027 3.199 c 0.516 1.613 -0.371 3.344 -1.988 3.859 l -0.141 0.047 c -1.613 0.516 -3.34 -0.371 -3.859 -1.984 l -1.023 -3.203 c -0.52 -1.613 0.371 -3.34 1.984 -3.859 m 0 0" style="fill:#000;fill-opacity:1;stroke:none;fill-rule:nonzero"/>
      <path d="m 30.441 26.805 l -0.141 -0.043 c -1.613 -0.52 -3.34 0.371 -3.859 1.984 l -1.023 3.199 c -0.52 1.613 0.371 3.344 1.984 3.859 l 0.141 0.047 c 1.613 0.516 3.344 -0.371 3.859 -1.988 l 1.027 -3.199 c 0.516 -1.613 -0.371 -3.34 -1.988 -3.859 m 0 0" style="fill:#000;fill-opacity:1;stroke:none;fill-rule:nonzero"/>
      <path d="m 10.91 26.19 l 0.051 -0.141 c 0.57 -1.602 2.328 -2.434 3.922 -1.855 l 3.164 1.133 c 1.598 0.57 2.426 2.328 1.855 3.926 l -0.051 0.137 c -0.57 1.598 -2.328 2.426 -3.922 1.855 l -3.164 -1.133 c -1.594 -0.57 -2.426 -2.324 -1.855 -3.922 m 0 0" style="fill:#000;fill-opacity:1;stroke:none;fill-rule:nonzero"/>
      <path d="m 37.09 26.19 l -0.051 -0.137 c -0.57 -1.605 -2.328 -2.438 -3.922 -1.859 l -3.164 1.133 c -1.598 0.57 -2.426 2.328 -1.855 3.926 l 0.051 0.137 c 0.57 1.598 2.328 2.426 3.922 1.855 l 3.164 -1.129 c 1.594 -0.574 2.426 -2.328 1.855 -3.926 m 0 0" style="fill:#000;fill-opacity:1;stroke:none;fill-rule:nonzero"/>
     </g>
    </g>
   </g>
  </g>
 </g>
 <g transform="translate(1.0866633e-4,0)">
  <g>
   <!-- color: #eeeeee -->
   <g>
    <path d="m 33.08 20.938 c 0 4.934 -4 8.934 -8.934 8.934 -4.938 0 -8.938 -4 -8.938 -8.934 0 -4.938 4 -8.938 8.938 -8.938 4.797 0 8.734 3.785 8.93 8.578" style="fill:#2d2d2d;fill-opacity:1;stroke:none;fill-rule:nonzero"/>
    <path d="m 17.59 26.805 0.141 -0.043 c 1.613 -0.52 3.344 0.371 3.859 1.984 l 1.027 3.199 c 0.516 1.613 -0.371 3.344 -1.988 3.859 l -0.141 0.047 c -1.613 0.516 -3.34 -0.371 -3.859 -1.984 l -1.023 -3.203 c -0.52 -1.613 0.371 -3.34 1.984 -3.859 m 0 0" style="fill:#2d2d2d;fill-opacity:1;stroke:none;fill-rule:nonzero"/>
    <path d="M 30.441,26.805 30.3,26.762 c -1.613,-0.52 -3.34,0.371 -3.859,1.984 l -1.023,3.199 c -0.52,1.613 0.371,3.344 1.984,3.859 l 0.141,0.047 c 1.613,0.516 3.344,-0.371 3.859,-1.988 l 1.027,-3.199 c 0.516,-1.613 -0.371,-3.34 -1.988,-3.859 m 0,0" style="fill:#2d2d2d;fill-opacity:1;stroke:none;fill-rule:nonzero"/>
    <path d="m 10.91,26.19 0.051,-0.141 c 0.57,-1.602 2.328,-2.434 3.922,-1.855 l 3.164,1.133 c 1.598,0.57 2.426,2.328 1.855,3.926 l -0.051,0.137 c -0.57,1.598 -2.328,2.426 -3.922,1.855 L 12.765,30.112 C 11.171,29.542 10.339,27.788 10.91,26.19 m 0,0" style="fill:#2d2d2d;fill-opacity:1;stroke:none;fill-rule:nonzero"/>
    <path d="m 37.09 26.19 -0.051 -0.137 c -0.57 -1.605 -2.328 -2.438 -3.922 -1.859 l -3.164 1.133 c -1.598 0.57 -2.426 2.328 -1.855 3.926 l 0.051 0.137 c 0.57 1.598 2.328 2.426 3.922 1.855 l 3.164 -1.129 c 1.594 -0.574 2.426 -2.328 1.855 -3.926 m 0 0" style="fill:#2d2d2d;fill-opacity:1;stroke:none;fill-rule:nonzero"/>
    <path d="m 24.14 13.883 c -3.898 0 -7.05 3.156 -7.05 7.05 0 3.895 3.156 7.05 7.05 7.05 3.895 0 7.05 -3.156 7.05 -7.05 l -0.004 -0.285 c -0.152 -3.781 -3.262 -6.77 -7.05 -6.77 m 0 0.898 c 3.301 0 6.02 2.605 6.148 5.906 l 0.004 0.25 c 0 3.395 -2.754 6.152 -6.156 6.152 -3.398 0 -6.152 -2.762 -6.152 -6.152 0 -3.402 2.754 -6.156 6.152 -6.156 m 0.004 0" style="fill:#f9f9f9;fill-opacity:1;stroke:none;fill-rule:nonzero"/>
    <path d="m 18.352 29.414 0.238 -0.078 c 0.609 -0.195 1.262 0.141 1.457 0.754 l 0.766 2.379 c 0.195 0.609 -0.141 1.262 -0.754 1.457 l -0.238 0.078 c -0.609 0.195 -1.262 -0.141 -1.457 -0.75 l -0.766 -2.379 c -0.195 -0.613 0.141 -1.266 0.754 -1.461 m 0 0" style="fill:#f9f9f9;fill-opacity:1;stroke:none;fill-rule:nonzero"/>
    <path d="m 29.645 29.414 -0.238 -0.078 c -0.609 -0.195 -1.266 0.141 -1.461 0.754 l -0.762 2.379 c -0.195 0.609 0.141 1.262 0.75 1.457 l 0.238 0.078 c 0.613 0.195 1.266 -0.141 1.461 -0.75 l 0.762 -2.379 c 0.199 -0.613 -0.141 -1.266 -0.75 -1.461 m 0 0" style="fill:#f9f9f9;fill-opacity:1;stroke:none;fill-rule:nonzero"/>
    <path d="m 12.855 26.969 c 0.184 -0.672 0.879 -1.066 1.547 -0.883 l 2.215 0.613 c 0.672 0.184 1.063 0.879 0.879 1.547 -0.184 0.672 -0.879 1.066 -1.547 0.879 l -2.215 -0.609 c -0.672 -0.184 -1.066 -0.879 -0.879 -1.547 m 0 0" style="fill:#f9f9f9;fill-opacity:1;stroke:none;fill-rule:nonzero"/>
    <path d="m 35.21 26.965 c -0.184 -0.668 -0.879 -1.063 -1.547 -0.879 l -2.215 0.613 c -0.672 0.184 -1.066 0.879 -0.879 1.547 0.184 0.672 0.879 1.063 1.547 0.879 l 2.215 -0.609 c 0.672 -0.184 1.063 -0.879 0.879 -1.551 m 0 0" style="fill:#f9f9f9;fill-opacity:1;stroke:none;fill-rule:nonzero"/>
    <path d="m 24.02 18.617 0.117 0 c 0.625 0.004 1.133 0.512 1.129 1.137 l -0.012 2.602 c -0.004 0.625 -0.512 1.133 -1.137 1.129 l -0.117 0 c -0.625 -0.004 -1.129 -0.512 -1.129 -1.137 l 0.012 -2.605 c 0.004 -0.625 0.512 -1.129 1.137 -1.125 m 0 0" style="fill:#f9f9f9;fill-opacity:1;stroke:none;fill-rule:nonzero"/>
    <path d="m 21.551,24.1 c -0.02,0 -0.039,0 -0.059,0 -0.281,0.012 -0.555,0.125 -0.77,0.336 l -0.578,0.57 c 0.586,0.578 1.301,1.02 2.094,1.309 l 0.172,-0.168 c 0.457,-0.453 0.461,-1.188 0.012,-1.645 L 22.363,24.439 C 22.14,24.212 21.843,24.095 21.55,24.091 m -1.996,1.488 -0.125,0.121 c 0.582,0.574 1.27,1.043 2.027,1.375 l 0.129,-0.129 c -0.762,-0.324 -1.449,-0.793 -2.031,-1.367 m -0.801,0.832 c -0.277,0.445 -0.223,1.035 0.16,1.426 l 0.059,0.059 c 0.449,0.457 1.184,0.461 1.641,0.012 l 0.102,-0.098 c -0.727,-0.363 -1.387,-0.836 -1.961,-1.395 m 0,0" style="fill:#f9f9f9;fill-opacity:1;stroke:none;fill-rule:nonzero"/>
    <path d="m 26.508 24.1 c -0.297 0.004 -0.594 0.117 -0.816 0.348 l -0.059 0.055 c -0.449 0.461 -0.445 1.191 0.016 1.645 l 0.23 0.227 c 0.809 -0.258 1.539 -0.691 2.145 -1.254 l -0.691 -0.684 c -0.23 -0.227 -0.527 -0.336 -0.824 -0.336 m 2.109 1.602 c -0.598 0.563 -1.305 1.016 -2.082 1.32 l 0.133 0.129 c 0.773 -0.313 1.473 -0.766 2.07 -1.328 m 0.637 0.746 c -0.574 0.535 -1.234 0.984 -1.957 1.324 l 0.023 0.023 c 0.457 0.453 1.191 0.445 1.645 -0.012 l 0.055 -0.059 c 0.344 -0.355 0.422 -0.855 0.234 -1.277 m 0 0" style="fill:#f9f9f9;fill-opacity:1;stroke:none;fill-rule:nonzero"/>
   </g>
  </g>
 </g>
 <g>
  <path d="m 40.03 7.531 c 3.712 4.084 5.969 9.514 5.969 15.469 0 12.703 -10.297 23 -23 23 c -5.954 0 -11.384 -2.256 -15.469 -5.969 4.178 4.291 10.01 6.969 16.469 6.969 c 12.703 0 23 -10.298 23 -23 0 -6.462 -2.677 -12.291 -6.969 -16.469 z" style="opacity:0.1"/>
 </g>
</svg>
