<svg version="1.1" viewBox="0 0 48 48" xmlns="http://www.w3.org/2000/svg">
 <defs>
  <linearGradient id="bg" x1="1" x2="47" gradientTransform="matrix(0 -1 1 0 -1.5e-6 48)" gradientUnits="userSpaceOnUse">
   <stop style="stop-color:#61c963" offset="0"/>
   <stop style="stop-color:#70ce72" offset="1"/>
  </linearGradient>
 </defs>
 <path d="m36.31 5c5.859 4.062 9.688 10.831 9.688 18.5 0 12.426-10.07 22.5-22.5 22.5-7.669 0-14.438-3.828-18.5-9.688 1.037 1.822 2.306 3.499 3.781 4.969 4.085 3.712 9.514 5.969 15.469 5.969 12.703 0 23-10.298 23-23 0-5.954-2.256-11.384-5.969-15.469-1.469-1.475-3.147-2.744-4.969-3.781zm4.969 3.781c3.854 4.113 6.219 9.637 6.219 15.719 0 12.703-10.297 23-23 23-6.081 0-11.606-2.364-15.719-6.219 4.16 4.144 9.883 6.719 16.219 6.719 12.703 0 23-10.298 23-23 0-6.335-2.575-12.06-6.719-16.219z" style="opacity:.05"/>
 <path d="m41.28 8.781c3.712 4.085 5.969 9.514 5.969 15.469 0 12.703-10.297 23-23 23-5.954 0-11.384-2.256-15.469-5.969 4.113 3.854 9.637 6.219 15.719 6.219 12.703 0 23-10.298 23-23 0-6.081-2.364-11.606-6.219-15.719z" style="opacity:.1"/>
 <path d="m31.25 2.375c8.615 3.154 14.75 11.417 14.75 21.13 0 12.426-10.07 22.5-22.5 22.5-9.708 0-17.971-6.135-21.12-14.75a23 23 0 0 0 44.875-7 23 23 0 0 0-16-21.875z" style="opacity:.2"/>
 <path d="m24 1c12.703 0 23 10.297 23 23s-10.297 23-23 23-23-10.297-23-23 10.297-23 23-23z" style="fill:url(#bg)"/>
 <path d="m40.03 7.531c3.712 4.084 5.969 9.514 5.969 15.469 0 12.703-10.297 23-23 23-5.954 0-11.384-2.256-15.469-5.969 4.178 4.291 10.01 6.969 16.469 6.969 12.703 0 23-10.298 23-23 0-6.462-2.677-12.291-6.969-16.469z" style="opacity:.1"/>
 <g transform="matrix(.70107 0 0 .70107 7.9968 6.0498)" style="opacity:.1">
  <g transform="matrix(.84408 0 0 .84408 -44.496 -4.7809)"></g>
 </g>
 <path d="m25.199 11-7.1992 5c0.0042 1.5523 1.1919 2.8451 2.7383 2.9805l-2.7383 10.02c0 5-0.16797 6-0.5 8.4316 2.156 1.07 4.68 1.5684 7.25 1.5684 2.1777 0 3.6974-0.3767 4.9863-0.75 0.902-0.289 1.9377-0.564 2.7637-1-0.353-1.259-0.86316-2.5443-1.1602-3.4453-1.163-4.1559-1.3398-8.8047-1.3398-12.805 0-0.36952-0.0153-0.75971-0.04492-1.1621 1.2197-0.4096 2.0423-1.5513 2.0449-2.8379 0-1.6569-1.3431-3-3-3-0.12936 7.67e-4 -0.25854 0.0099-0.38672 0.02734-0.36817-0.86299-0.80358-1.611-1.3008-2.1484-0.43702-0.5593-1.094-0.87891-2.1133-0.87891z" style="opacity:.1"/>
 <path d="m20 12a3 2.9995 0 0 0-2.2969 1.0742l0.29688 0.92578-0.96289 0.54297a3 2.9995 0 0 0-0.037109 0.45703 3 2.9995 0 0 0 3 3 3 2.9995 0 0 0 3-3 3 2.9995 0 0 0-3-3z" style="fill:#eee"/>
 <path d="m21.477 12.391c0.56976 0.56966 0.89189 1.3464 0.89189 2.1526-0.0011 1.6783-1.3619 3.0389-3.0405 3.0378-0.41088-0.0011-0.83163-0.08654-1.2096-0.24868a3 2.9995 0 0 0 1.8813 0.66496 3 2.9995 0 0 0 3-2.9995 3 2.9995 0 0 0-1.5241-2.6084z" style="fill:#ddd"/>
 <path d="m24.199 10c-2.364 0-2.9462 3.4603-3.9453 6.5742-0.70289 2.1907-1.6239 3.5905-2.0371 5.4258l1.7832 1-2 1c-1 0.5-1 1-1 4 0 5-0.16797 6-0.5 8.4316 2.156 1.07 4.68 1.5684 7.25 1.5684 2.1777 0 3.6974-0.3767 4.9863-0.75l-0.73633-17.25c-1.3673-5.0911 0.19922-10-3.8008-10z" style="fill:#cc3d71"/>
 <path d="m26.291 10.855c0.129 0.698 0.709 3.145 0.709 5.145v11c0 3 1.512 9.061 1.737 10.25 0.902-0.289 1.937-0.564 2.763-1-0.353-1.259-0.864-2.545-1.161-3.446-1.163-4.1559-1.339-8.804-1.339-12.804 0-3-0.993-7.318-2.707-9.145z" style="fill:#ae3773"/>
 <path d="m31 16a3 3 0 0 1-3 3 3 3 0 0 1-3-3 3 3 0 0 1 3-3 3 3 0 0 1 3 3z" style="fill:#eee"/>
 <path d="m18.104 13c-0.09969 0-0.24378 0.032159-0.40039 0.074219-0.35195 0.41962-0.58228 0.92756-0.66602 1.4688 0.07083 0.10003 0.16199 0.1933 0.25195 0.26172 0.3973 0.30215 1.1527 0.2695 1.5039-0.20703 0.3501-0.47653 0.2015-0.96969-0.03711-1.2969-0.13686-0.18766-0.33995-0.30078-0.65234-0.30078zm8.7285 3.002a1.0576 0.93883 45 0 0-0.39453 0.10938 1.0576 0.93883 45 0 0-0.38086 1.0996l0.73047 0.73242h0.001953a1.0576 0.93883 45 0 0 0.77344-0.054687 1.0576 0.93883 45 0 0 0.26562-1.3477 1.0576 0.93883 45 0 0-0.99609-0.53906z" style="fill:#6c5f37"/>
 <path d="m29.384 13.342c0.64786 0.56869 1.0294 1.3797 1.03 2.2419 0 1.66-1.3558 3.0052-3.0281 3.0052-0.4036-0.0012-0.87557-0.08921-1.2577-0.2452a3 3 0 0 0 1.8691 0.6556 3 3 0 0 0 3.0011-3 3 3 0 0 0-1.6144-2.6575z" style="fill:#ddd"/>
 <path d="m18.217 22c-0.13619 0.60489-0.2168 1.2563-0.2168 2h2c2 0 3.6088 3.7742 5 6v-2c-1-3-2-6-5-6h-1.7832z" style="fill:#513534"/>
 <path d="m17.818 13.045c-0.03709 0.0089-0.07608 0.018777-0.11523 0.029297-0.22014 0.26407-0.39323 0.56401-0.51172 0.88672 0.18552 0.09051 0.44766 0.01642 0.62891-0.17774 0.21207-0.22712 0.24091-0.53834 0.064454-0.69531-0.01956-0.01666-0.041134-0.031039-0.064454-0.042969h-0.001953zm8.5957 3.9551a0.53383 0.46371 45 0 0-0.30273 0.13281 0.53383 0.46371 45 0 0-0.054687 0.078126 1.0576 0.93883 45 0 0 0.11523 0.24805 1.0576 0.93883 45 0 0 0.61719 0.48438 0.53383 0.46371 45 0 0 0.001954-0.001953 0.53383 0.46371 45 0 0 0.005859-0.001953 0.53383 0.46371 45 0 0 0.001953-0.001953 0.53383 0.46371 45 0 0 0.00586-0.001953 0.53383 0.46371 45 0 0 0.001953-0.001953 0.53383 0.46371 45 0 0 0.001953-0.001953 0.53383 0.46371 45 0 0 0.005859-0.003907 0.53383 0.46371 45 0 0 0.001953 0 0.53383 0.46371 45 0 0 0.001953-0.001953 0.53383 0.46371 45 0 0 0.00586-0.003906 0.53383 0.46371 45 0 0 0.001953-0.001953 0.53383 0.46371 45 0 0 0.001953-0.001953 0.53383 0.46371 45 0 0 0.005859-0.001953 0.53383 0.46371 45 0 0 0.001954-0.001954 0.53383 0.46371 45 0 0 0.001953-0.001953 0.53383 0.46371 45 0 0 0.001953-0.001953 0.53383 0.46371 45 0 0 0.005859-0.003906 0.53383 0.46371 45 0 0 0.001953-0.001953 0.53383 0.46371 45 0 0 0.001953-0.001953 0.53383 0.46371 45 0 0 0.001953-0.001953 0.53383 0.46371 45 0 0 0.00586-0.003907 0.53383 0.46371 45 0 0 0.001953-0.001953 0.53383 0.46371 45 0 0 0.001953-0.001953 0.53383 0.46371 45 0 0 0.001953-0.001953 0.53383 0.46371 45 0 0 0.001953-0.001953 0.53383 0.46371 45 0 0 0.001954-0.001953 0.53383 0.46371 45 0 0 0.001953-0.001953 0.53383 0.46371 45 0 0 0.001953-0.001954 0.53383 0.46371 45 0 0 0.005859-0.003906 0.53383 0.46371 45 0 0 0.001953-0.001953 0.53383 0.46371 45 0 0 0.001953-0.001953 0.53383 0.46371 45 0 0 0.001953-0.001953 0.53383 0.46371 45 0 0 0.001954-0.001953 0.53383 0.46371 45 0 0 0.001953-0.001953 0.53383 0.46371 45 0 0 0.001953-0.001953 0.53383 0.46371 45 0 0-0.074219-0.70703 0.53383 0.46371 45 0 0-0.40039-0.16016z" style="fill:#333"/>
</svg>
