<svg version="1.1" viewBox="0 0 48 48" xmlns="http://www.w3.org/2000/svg">
 <defs>
  <linearGradient id="bg" x2="0" y1="1" y2="47" gradientUnits="userSpaceOnUse">
   <stop style="stop-color:#bd6ae0" offset="0"/>
   <stop style="stop-color:#b75adc" offset="1"/>
  </linearGradient>
 </defs>
 <path d="m36.31 5c5.859 4.062 9.688 10.831 9.688 18.5 0 12.426-10.07 22.5-22.5 22.5-7.669 0-14.438-3.828-18.5-9.688 1.037 1.822 2.306 3.499 3.781 4.969 4.085 3.712 9.514 5.969 15.469 5.969 12.703 0 23-10.298 23-23 0-5.954-2.256-11.384-5.969-15.469-1.469-1.475-3.147-2.744-4.969-3.781zm4.969 3.781c3.854 4.113 6.219 9.637 6.219 15.719 0 12.703-10.297 23-23 23-6.081 0-11.606-2.364-15.719-6.219 4.16 4.144 9.883 6.719 16.219 6.719 12.703 0 23-10.298 23-23 0-6.335-2.575-12.06-6.719-16.219z" style="opacity:.05"/>
 <path d="m41.28 8.781c3.712 4.085 5.969 9.514 5.969 15.469 0 12.703-10.297 23-23 23-5.954 0-11.384-2.256-15.469-5.969 4.113 3.854 9.637 6.219 15.719 6.219 12.703 0 23-10.298 23-23 0-6.081-2.364-11.606-6.219-15.719z" style="opacity:.1"/>
 <path d="m31.25 2.375c8.615 3.154 14.75 11.417 14.75 21.13 0 12.426-10.07 22.5-22.5 22.5-9.708 0-17.971-6.135-21.12-14.75a23 23 0 0 0 44.875-7 23 23 0 0 0-16-21.875z" style="opacity:.2"/>
 <circle cx="24" cy="24" r="23" style="fill:url(#bg)"/>
 <path d="m25 14c-5 0-7 2-7 2h-4c-1 0-1 1-1 1v5l-1 2h-1l-1 3 3 1.5v3.5c2 1 2 1 3 3h6v1h1v1h2v-1l3-1h6c1-2 1-2 3-3v-3.8457l1.9961-1.0762 0.003906 0.003906 2-1.082-2-1-1-3-1 0.69922v-5.6992s0-1-1-1h-4s-2-2-7-2z" style="opacity:.1"/>
 <path d="m40.03 7.531c3.712 4.084 5.969 9.514 5.969 15.469 0 12.703-10.297 23-23 23-5.954 0-11.384-2.256-15.469-5.969 4.178 4.291 10.01 6.969 16.469 6.969 12.703 0 23-10.298 23-23 0-6.462-2.677-12.291-6.969-16.469z" style="opacity:.1"/>
 <path d="m15 34h18c1-2 1-2 3-3v-15s0-1-1-1h-4s-2-2-7-2-7 2-7 2h-4c-1 0-1 1-1 1v15c2 1 2 1 3 3z" style="fill:#cfcfcf"/>
 <path d="m13 22-1 2v4l2 1 7 3 0.37109 0.74023-0.37109 0.81055 0.31445 0.44922h7.6855v-1l-0.26172-0.39844 7.2617-3.9102v-5.291l-8 5.5996h-0.38086l-0.70898 0.4375-0.91016-0.023438-1-1.043-2 0.62891-10-7z" style="opacity:.1"/>
 <path d="m12 21-1 2h-1l-1 3 4 2 7 3 1 2 4-4-3-1z" style="fill:#7c7c7c"/>
 <path d="m37 21 1 3 2 1-13 7-3 2v2h-2v-1h-1v-1h-1l0.31356-1-0.31356-0.44915 1-2.1864 1-0.050848 3-1.3136 1.6186-1h0.38136z" style="fill:#9f9f9f"/>
 <path d="m24 27.371-2 0.62891 0.70508 2 2.0137-0.45312 1.6543 0.45312 0.62695-1 0.68555-0.20898-0.68555-0.32422-2-0.052735z" style="fill:#7c7c7c"/>
 <path d="m12 21 1 3-1 1-1 2-2-1 1-3h1z" style="fill:#656565"/>
 <path d="m24 35 3-1v-0.31886l1-0.01798v-1.6632l-1-1.5188v1.1865l-1-1.0427-0.29247 1.375-0.70753-0.70984v1.4202l-1-1.0427v2.3323h-0.61154z" style="fill:#7c7c7c"/>
 <path d="m37 21-2 3h1v1h1l1 1.0826 2-1.0826-2-1z" style="fill:#838383"/>
 <path d="m24 26s5-4.5 5-6.5c0-1.5-1-2.5-2.4915-2.5-2 0-2.5085 2-2.5085 2s-0.4661-2-2.4576-2c-1.5424 0-2.5424 1-2.5424 2.5 0 1.9281 5 6.5 5 6.5z" style="fill:#e42e72"/>
 <path d="m30 20v4s1.129-1.6392 2-2c0.61592-0.25512 2 0 2 0s-0.31523-1.4126 0-2c0.76758-1.4304 2-2 2-2h-4c0 1.3777-0.82564 2-2 2z" style="fill:#afafaf;stroke-width:2"/>
 <path d="m18 20v4s-1.129-1.6392-2-2c-0.61592-0.25512-2 0-2 0s0.31523-1.4126 0-2c-0.76758-1.4304-2-2-2-2h4c0 1.3777 0.82564 2 2 2z" style="fill:#afafaf;stroke-width:2"/>
</svg>
