<svg version="1.1" viewBox="0 0 48 48" xmlns="http://www.w3.org/2000/svg">
 <defs>
  <linearGradient id="bg" x1="1" x2="47" gradientTransform="matrix(0 -1 1 0 -1.5e-6 48)" gradientUnits="userSpaceOnUse">
   <stop style="stop-color:#432" offset="0"/>
   <stop style="stop-color:#513d29" offset="1"/>
  </linearGradient>
 </defs>
 <path d="m36.31 5c5.859 4.062 9.688 10.831 9.688 18.5 0 12.426-10.07 22.5-22.5 22.5-7.669 0-14.438-3.828-18.5-9.688 1.037 1.822 2.306 3.499 3.781 4.969 4.085 3.712 9.514 5.969 15.469 5.969 12.703 0 23-10.298 23-23 0-5.954-2.256-11.384-5.969-15.469-1.469-1.475-3.147-2.744-4.969-3.781zm4.969 3.781c3.854 4.113 6.219 9.637 6.219 15.719 0 12.703-10.297 23-23 23-6.081 0-11.606-2.364-15.719-6.219 4.16 4.144 9.883 6.719 16.219 6.719 12.703 0 23-10.298 23-23 0-6.335-2.575-12.06-6.719-16.219z" style="opacity:.05"/>
 <path d="m41.28 8.781c3.712 4.085 5.969 9.514 5.969 15.469 0 12.703-10.297 23-23 23-5.954 0-11.384-2.256-15.469-5.969 4.113 3.854 9.637 6.219 15.719 6.219 12.703 0 23-10.298 23-23 0-6.081-2.364-11.606-6.219-15.719z" style="opacity:.1"/>
 <path d="m31.25 2.375c8.615 3.154 14.75 11.417 14.75 21.13 0 12.426-10.07 22.5-22.5 22.5-9.708 0-17.971-6.135-21.12-14.75a23 23 0 0 0 44.875-7 23 23 0 0 0-16-21.875z" style="opacity:.2"/>
 <path d="m26.459 1.133c-2.841 2.368-5.06 1.991-7.695 0.473-3.478 0.81-6.654 2.405-9.326 4.594l-7.813 12.486-2e-3 2e-3c-0.404 1.706-0.623 3.483-0.623 5.313 0 5.05 1.631 9.714 4.389 13.508 1.318-0.31 8.912 7.348 8.912 7.348 0.343 0.16 0.691 0.312 1.043 0.455h4e-3c4.358 1.121 15.771 0.561 15.771 0.561 9.217-2.998 15.881-11.654 15.881-21.871 0-1.898-0.235-3.74-0.668-5.504l-5.693-10.365c-3.657-3.833-8.62-6.407-14.18-6.998z" style="fill:url(#bg)"/>
 <path d="m24 1c-0.734 0-1.458 0.038-2.174 0.105-2.528 1.411-4.523 4.153-6.451 6.02-1.194 1.171-2.813 2.568-4.387 3.195 0.055-1.425-0.226-2.876-1.014-3.918-0.099-0.13-0.214-0.249-0.328-0.369-4.135 3.307-7.105 8.01-8.191 13.396 0.49 0.129 0.982 0.245 1.484 0.316 0.879 0.141 1.762 0.207 2.656 0.156 1.821-2.323 3.739-4.02 4.754-6.596l-0.162 0.818c3.477 0.383 4.082 2.813 1.5 7.527l-6e-3 0.072c-1.116 0.135-2.212 0.43-3.244 0.932l0.031 0.5c0.328 2.336 0.688 4.746 1.75 6.844 0.301 0.595 0.516 1.235 0.689 1.887l-0.064 0.855c-0.436 1.916-2.515 4.135-4.596 5.883 2.38 2.886 5.452 5.178 8.961 6.631-0.166-1.55 0.278-3.076 2-4.908 0.279-0.014 0.526-0.015 0.783-0.02 0.982 0.22 1.798 0.539 2.279 1.018 1.022 1.026 0.469 2.969-0.518 4.854-0.534 0.053-0.964 0.084-1.373 0.107 1.798 0.451 3.678 0.693 5.615 0.693 3.283 0 6.403-0.692 9.229-1.932 0.938-1.027 2.183-2.12 2.369-3.395 0.129-0.93-0.771-1.574-1.564-2.125-1.059-0.715-1.406-2.324-0.563-3.406l0.018-0.146c0.152 0.438 0.326 0.866 0.578 1.225 0.547 0.766 1.934 1.734 3.094 2.281 2.414-2.18 5.367-4.43 6.313-7.777 0.516-1.82 0.059-4.531-2.063-4.348h-4e-3c-3.427 0.276-6.076 3.334-7.639 6.336l0.078-0.635c0.215-3.543-1.238-6.163-4-8.03l-2e-3 -2e-3c0.965-2.751 4.978-5.33 2.906-8.17-1.719-0.184-3.277-0.984-4.719-1.902-1.115-0.722-2.308-1.465-3.596-1.885l-0.059-0.131c1.648-1.5 2.921-2.148 4.313-2.852-0.075-2.621-0.256-6.95-1.773-8.916-0.956-0.121-1.927-0.191-2.916-0.191m15.06 7.896c-2.781 4 0.855 6.816 2.563 10 1.509 0.259 2.698 0.654 4.941 0.627-0.773-3.915-2.539-7.473-5.03-10.4-0.802-0.064-1.628-0.14-2.479-0.227m-0.494 10.734c0.066 0.715 0.609 1.301 1.156 1.719 0.395 0.301 0.832-0.367 0.465-0.754-0.425-0.429-0.943-1.032-1.621-0.965z" style="fill-opacity:.098"/>
 <path d="m24 1c-1.802 0-3.553 0.213-5.236 0.605-1.607 1.423-3.02 3.191-4.389 4.52-1.207 1.184-2.848 2.602-4.438 3.219l-0.75 3.781c3.477 0.383 4.082 2.813 1.5 7.527l-0.844 11.09c-0.426 1.872-2.423 4.04-4.455 5.766 2.287 3.146 5.352 5.689 8.912 7.348-0.354-1.761-0.035-3.441 1.912-5.508 0.445-0.023 0.867-0.031 1.25-0.031 5.742 8e-3 4.666 2.703 1.404 5.875-1.778 0.182-2.773 0.182-3.523 0.119 2.673 1.087 5.593 1.689 8.656 1.689 2.486 0 4.877-0.4 7.119-1.129 0.151-0.447 0.343-0.877 0.629-1.26 0.914-1.184 2.631-2.438 2.85-3.938 0.129-0.93-0.771-1.574-1.564-2.125-1.059-0.715-1.406-2.324-0.563-3.406l0.375-3.064c0.215-3.543-1.238-6.163-4-8.03l-5.469-12.09c1.648-1.5 2.921-2.148 4.313-2.852-0.065-2.262-0.218-5.784-1.23-7.975-0.808-0.086-1.628-0.133-2.459-0.133zm14.06 6.896c-2.781 4 0.855 6.816 2.563 10 1.671 0.287 2.957 0.738 5.713 0.6-0.972-3.958-2.969-7.51-5.693-10.365-0.833-0.066-1.694-0.144-2.582-0.234zm-0.814 32.02c-0.207 4e-3 -0.43 0.021-0.621 0.064-0.232 1.471 0.52 1.766 1.076 2.498 0.778-0.578 1.515-1.206 2.213-1.875-0.851-0.383-1.794-0.691-2.668-0.678v-0.01z" style="fill:#285935"/>
 <path d="m9.438 6.199c-3.837 3.143-6.635 7.502-7.814 12.488 0.106 0.018 0.21 0.043 0.316 0.059 0.879 0.141 1.762 0.207 2.656 0.156 1.973-2.516 4.074-4.281 5-7.246 0.522-1.676 0.593-3.839-0.158-5.457zm11.75 5.553 2e-3 2e-3c-0.309 0.016-0.613 0.055-0.938 0.125-1.176 0.965-1.674 2.444-2.221 3.813-0.66 1.648 0.517 3.469-0.313 4.965-0.543 0.5-1.383 0.652-2.063 0.469-2.68-0.73-5.648-0.719-8.219 0.531l0.031 0.5c0.328 2.336 0.688 4.746 1.75 6.844 0.691 1.367 0.99 2.953 1.15 4.438 0.219 1.902-0.672 3.696-0.625 5.564 3.625-0.184 8.06-0.121 9.531 1.344 1.215 1.22 0.211 3.732-1.111 5.904 1.864 0.488 3.819 0.75 5.836 0.75 0.647 0 1.285-0.034 1.918-0.086 0.213-0.612 0.352-1.236 0.393-1.727 0.117-1.449-0.965-1.813-1.031-3.094-0.098-2.105 1.778-3.375 2.939-4.875 1.289-1.688 0.66-4.23-1.031-5.566 0.594-2.465 0.828-5.061 1.625-7.525 0.914-2.781 5.03-5.383 2.938-8.25-1.719-0.184-3.277-0.984-4.719-1.902-1.738-1.125-3.66-2.313-5.844-2.223zm16.375 6.879c0.066 0.715 0.609 1.301 1.156 1.719 0.395 0.301 0.832-0.367 0.465-0.754-0.425-0.429-0.943-1.032-1.621-0.965zm3.227 7.744c-0.12-0.01-0.246-9e-3 -0.379 2e-3h-4e-3c-3.922 0.316-6.824 4.277-8.246 7.625 0.246 0.734 0.461 1.586 0.906 2.219 0.547 0.766 1.934 1.734 3.094 2.281 2.414-2.18 5.367-4.43 6.313-7.777 0.484-1.706 0.113-4.196-1.684-4.35z" style="fill:#b07845"/>
 <g transform="translate(1,1)">
  <g style="opacity:.1">
   <path d="m14 30 8-9 2-9 1.996 9 8 9h-8v3l3 3h-3l-1-1v1h-1.996v-1l-1 1h-3l3-3v-3"/>
  </g>
 </g>
 <path d="m14 30 8-9 2-9 1.996 9 8 9h-8v3l3 3h-3l-1-1v1h-1.996v-1l-1 1h-3l3-3v-3" style="fill:#ececeb"/>
 <path d="m40.03 7.531c3.712 4.084 5.969 9.514 5.969 15.469 0 12.703-10.297 23-23 23-5.954 0-11.384-2.256-15.469-5.969 4.178 4.291 10.01 6.969 16.469 6.969 12.703 0 23-10.298 23-23 0-6.462-2.677-12.291-6.969-16.469z" style="opacity:.1"/>
</svg>
