<svg version="1.1" viewBox="0 0 48 48" xmlns="http://www.w3.org/2000/svg">
 <defs>
  <linearGradient id="bg" x2="0" y1="1" y2="47" gradientUnits="userSpaceOnUse">
   <stop style="stop-color:#27ab81" offset="0"/>
   <stop style="stop-color:#239b75" offset="1"/>
  </linearGradient>
 </defs>
 <path d="m36.31 5c5.859 4.062 9.688 10.831 9.688 18.5 0 12.426-10.07 22.5-22.5 22.5-7.669 0-14.438-3.828-18.5-9.688 1.037 1.822 2.306 3.499 3.781 4.969 4.085 3.712 9.514 5.969 15.469 5.969 12.703 0 23-10.298 23-23 0-5.954-2.256-11.384-5.969-15.469-1.469-1.475-3.147-2.744-4.969-3.781zm4.969 3.781c3.854 4.113 6.219 9.637 6.219 15.719 0 12.703-10.297 23-23 23-6.081 0-11.606-2.364-15.719-6.219 4.16 4.144 9.883 6.719 16.219 6.719 12.703 0 23-10.298 23-23 0-6.335-2.575-12.06-6.719-16.219z" style="opacity:.05"/>
 <path d="m41.28 8.781c3.712 4.085 5.969 9.514 5.969 15.469 0 12.703-10.297 23-23 23-5.954 0-11.384-2.256-15.469-5.969 4.113 3.854 9.637 6.219 15.719 6.219 12.703 0 23-10.298 23-23 0-6.081-2.364-11.606-6.219-15.719z" style="opacity:.1"/>
 <path d="m31.25 2.375c8.615 3.154 14.75 11.417 14.75 21.13 0 12.426-10.07 22.5-22.5 22.5-9.708 0-17.971-6.135-21.12-14.75a23 23 0 0 0 44.875-7 23 23 0 0 0-16-21.875z" style="opacity:.2"/>
 <circle cx="24" cy="24" r="23" style="fill:url(#bg)"/>
 <path d="m13 35c0 1.108 0.892 2 2 2h20c1.108 0 2-0.892 2-2v-11c0.554 0 1-0.446 1-1v-2c0-0.554-0.446-1-1-1v-5c0-1.108-0.892-2-2-2h-7c0-0.554-0.446-1-1-1z" style="opacity:.1"/>
 <path d="m40.03 7.531c3.712 4.084 5.969 9.514 5.969 15.469 0 12.703-10.297 23-23 23-5.954 0-11.384-2.256-15.469-5.969 4.178 4.291 10.01 6.969 16.469 6.969 12.703 0 23-10.298 23-23 0-6.462-2.677-12.291-6.969-16.469z" style="opacity:.1"/>
 <rect x="12" y="21" width="24" height="15" rx="2" ry="2" style="fill:#047291"/>
 <path d="m14 12c-1.108 0-2 0.892-2 2v11h2v3h20v-3h2v-11c0-1.108-0.892-2-2-2z" style="fill:#d1b28b"/>
 <path d="m14 27v2h9v7h2v-7h9v-2h-20z" style="fill:#055169"/>
 <path d="m23 12-11 11c0 0.554 0.446 1 1 1h1v2h3v4h2v-2h3v2h2v-2h2v2h2v-2h3v2h2v-4h3v-7c0-2.77-2.23-5-5-5h-3v-1c0-0.554-0.446-1-1-1z" style="opacity:.1"/>
 <path d="m22 11c-0.554 0-1 0.446-1 1v2h6v-2c0-0.554-0.446-1-1-1zm-10 8c-0.554 0-1 0.446-1 1v2c0 0.554 0.446 1 1 1h2v-4zm22 0v4h2c0.554 0 1-0.446 1-1v-2c0-0.554-0.446-1-1-1z" style="fill:#3d3d3d"/>
 <path d="m18 13c-2.77 0-5 2.23-5 5v7h3v4h2v-2h3v2h2v-2h2v2h2v-2h3v2h2v-4h3v-7c0-2.77-2.23-5-5-5h-12z" style="fill:#f9f9f9"/>
 <rect x="27" y="32" width="5" height="2" style="fill:#ccc"/>
 <path d="m24 23-2 1v1l2-1 2 1v-1z" style="fill:#3d3d3d"/>
 <path d="m16.176 19.621c-0.7404 0.5671-1.1749 1.4463-1.1758 2.3789 0 1.6569 1.3431 3 3 3s3-1.3431 3-3l-4.8242-2.3789zm15.648 0-4.8242 2.3789c0 1.6569 1.3431 3 3 3s3-1.3431 3-3c-8.58e-4 -0.93262-0.43538-1.8118-1.1758-2.3789z" style="fill:#d71414"/>
 <path d="m14 17v4l7 2v-3l-7-3zm20 0-7 3v3l7-2v-4z" style="fill:#e6e6e6"/>
</svg>
