<svg xmlns="http://www.w3.org/2000/svg" viewBox="0 0 48 48">
 <defs>
  <linearGradient id="linearGradient3764" x1="1" x2="47" gradientUnits="userSpaceOnUse" gradientTransform="matrix(0,-1,1,0,-1.5e-6,47.999998)">
   <stop style="stop-color:#2f1e0d;stop-opacity:1"/>
   <stop offset="1" style="stop-color:#3f2811;stop-opacity:1"/>
  </linearGradient>
 </defs>
 <g>
  <path d="m 36.31 5 c 5.859 4.062 9.688 10.831 9.688 18.5 c 0 12.426 -10.07 22.5 -22.5 22.5 c -7.669 0 -14.438 -3.828 -18.5 -9.688 c 1.037 1.822 2.306 3.499 3.781 4.969 c 4.085 3.712 9.514 5.969 15.469 5.969 c 12.703 0 23 -10.298 23 -23 c 0 -5.954 -2.256 -11.384 -5.969 -15.469 c -1.469 -1.475 -3.147 -2.744 -4.969 -3.781 z m 4.969 3.781 c 3.854 4.113 6.219 9.637 6.219 15.719 c 0 12.703 -10.297 23 -23 23 c -6.081 0 -11.606 -2.364 -15.719 -6.219 c 4.16 4.144 9.883 6.719 16.219 6.719 c 12.703 0 23 -10.298 23 -23 c 0 -6.335 -2.575 -12.06 -6.719 -16.219 z" style="opacity:0.05"/>
  <path d="m 41.28 8.781 c 3.712 4.085 5.969 9.514 5.969 15.469 c 0 12.703 -10.297 23 -23 23 c -5.954 0 -11.384 -2.256 -15.469 -5.969 c 4.113 3.854 9.637 6.219 15.719 6.219 c 12.703 0 23 -10.298 23 -23 c 0 -6.081 -2.364 -11.606 -6.219 -15.719 z" style="opacity:0.1"/>
  <path d="m 31.25 2.375 c 8.615 3.154 14.75 11.417 14.75 21.13 c 0 12.426 -10.07 22.5 -22.5 22.5 c -9.708 0 -17.971 -6.135 -21.12 -14.75 a 23 23 0 0 0 44.875 -7 a 23 23 0 0 0 -16 -21.875 z" style="opacity:0.2"/>
 </g>
 <g>
  <path d="m 26.447 1.131 c -2.02 1.042 -4.833 1.801 -7.686 0.477 c -3.478 0.811 -6.655 2.404 -9.328 4.594 l -7.811 12.492 l -0.002 0.002 c -0.402 1.704 -0.621 3.478 -0.621 5.305 c 0 5.05 1.63 9.716 4.389 13.51 l 0.002 0.002 l 8.906 7.342 l 0.002 0.002 c 0.359 0.167 0.722 0.324 1.09 0.473 c 0.001 0 0.001 0 0.002 0 c 5.576 0.767 10.595 0.56 15.725 0.545 c 0.001 0 0.001 0 0.002 0 c 9.218 -2.997 15.883 -11.655 15.883 -21.873 c 0 -1.896 -0.234 -3.736 -0.666 -5.498 l -0.002 -0.002 l -5.686 -10.363 c -0.001 -0.001 -0.001 -0.001 -0.002 -0.002 c -3.66 -3.839 -8.631 -6.415 -14.197 -7 z" style="fill:url(#linearGradient3764);fill-opacity:1"/>
  <path d="m 24 1 c -0.734 0 -1.458 0.038 -2.174 0.105 -2.528 1.411 -4.523 4.149 -6.451 6.02 -1.198 1.171 -2.813 2.568 -4.387 3.195 0.054 -1.424 -0.228 -2.874 -1.018 -3.912 -0.1 -0.13 -0.212 -0.253 -0.326 -0.373 c -0.001 0.001 -0.001 0.001 -0.002 0.002 c -0.509 0.407 -0.999 0.837 -1.471 1.285 -0.014 0.013 -0.027 0.026 -0.041 0.039 -0.471 0.45 -0.925 0.918 -1.357 1.406 -0.876 0.99 -1.668 2.055 -2.365 3.186 c -0.001 0.001 -0.001 0.003 -0.002 0.004 -0.336 0.544 -0.647 1.104 -0.938 1.678 -0.019 0.037 -0.038 0.074 -0.057 0.111 -0.278 0.556 -0.533 1.126 -0.766 1.707 -0.023 0.058 -0.045 0.117 -0.068 0.176 -0.227 0.58 -0.433 1.171 -0.613 1.773 -0.013 0.043 -0.025 0.086 -0.037 0.129 -0.183 0.624 -0.343 1.257 -0.473 1.902 0.492 0.131 0.985 0.245 1.484 0.322 0.879 0.133 1.762 0.203 2.656 0.152 c 1.817 -2.322 3.737 -4.02 4.752 -6.596 l -0.16 0.813 c 3.477 0.383 4.082 2.816 1.5 7.531 l -0.006 0.088 c -1.116 0.132 -2.215 0.412 -3.246 0.914 l 0.031 0.5 c 0.328 2.336 0.688 4.748 1.75 6.854 0.303 0.598 0.517 1.245 0.689 1.904 l -0.063 0.83 c -0.436 1.916 -2.516 4.132 -4.596 5.879 2.381 2.886 5.452 5.18 8.961 6.633 -0.161 -1.543 0.286 -3.068 2.01 -4.895 0.28 -0.015 0.532 -0.015 0.793 -0.02 0.971 0.22 1.779 0.535 2.256 1.012 1.026 1.028 0.46 2.973 -0.531 4.861 -0.508 0.05 -0.915 0.076 -1.309 0.1 c 1.785 0.444 3.65 0.684 5.572 0.684 c 3.281 0 6.399 -0.692 9.223 -1.93 0.936 -1.027 2.188 -2.123 2.371 -3.4 0.133 -0.934 -0.771 -1.574 -1.564 -2.125 -1.063 -0.715 -1.41 -2.32 -0.563 -3.406 l 0.016 -0.133 c 0.151 0.435 0.324 0.86 0.574 1.217 0.547 0.77 1.934 1.73 3.094 2.281 2.418 -2.184 5.371 -4.43 6.316 -7.781 0.484 -1.703 0.112 -4.192 -1.688 -4.346 -0.12 -0.01 -0.246 -0.009 -0.379 0.002 -3.425 0.276 -6.071 3.332 -7.637 6.332 l 0.078 -0.635 c 0.165 -2.73 -0.663 -4.901 -2.307 -6.609 l 5.465 -5.463 -4.283 -0.535 c 0.647 -1.17 0.922 -2.351 0.027 -3.582 -1.723 -0.184 -3.273 -0.992 -4.719 -1.906 -0.696 -0.45 -1.422 -0.907 -2.182 -1.291 l -0.695 -1.389 c 1.286 -1.034 2.378 -1.61 3.529 -2.199 c -0.075 -2.616 -0.258 -6.945 -1.775 -8.912 -0.951 -0.12 -1.918 -0.189 -2.902 -0.189 m 15.06 7.898 c -2.781 4 0.855 6.816 2.563 10 1.509 0.259 2.698 0.657 4.943 0.631 c -0.772 -3.916 -2.538 -7.474 -5.02 -10.402 -0.802 -0.065 -1.63 -0.141 -2.482 -0.229 m -0.5 10.73 c 0.066 0.719 0.609 1.305 1.156 1.719 0.398 0.301 0.832 -0.367 0.469 -0.75 -0.43 -0.434 -0.945 -1.035 -1.625 -0.969 z m -0.313 21.299 c -0.211 0.004 -0.43 0.02 -0.625 0.063 -0.105 0.663 0.003 1.074 0.191 1.404 0.554 -0.416 1.086 -0.859 1.6 -1.322 -0.394 -0.093 -0.788 -0.149 -1.166 -0.145 z" style="fill:#000;fill-opacity:0.098"/>
  <path d="m 24 1 c -1.803 0 -3.555 0.215 -5.238 0.607 c -1.606 1.421 -3.02 3.187 -4.387 4.518 c -1.211 1.184 -2.848 2.602 -4.438 3.219 l -0.75 3.781 c 3.477 0.383 4.082 2.816 1.5 7.531 l -0.844 11.09 c -0.426 1.872 -2.423 4.04 -4.455 5.764 c 2.287 3.145 5.351 5.687 8.91 7.346 c -0.349 -1.753 -0.025 -3.431 1.92 -5.492 c 0.441 -0.023 0.867 -0.031 1.25 -0.031 c 5.742 0.008 4.662 2.703 1.4 5.875 c -1.747 0.177 -2.733 0.179 -3.48 0.121 c 2.66 1.075 5.566 1.672 8.611 1.672 c 2.485 0 4.876 -0.398 7.117 -1.127 c 0.151 -0.449 0.342 -0.882 0.631 -1.266 c 0.91 -1.18 2.631 -2.438 2.846 -3.938 c 0.133 -0.934 -0.771 -1.574 -1.564 -2.125 c -1.063 -0.715 -1.41 -2.32 -0.563 -3.406 l 0.375 -3.063 c 0.215 -3.551 -1.238 -6.163 -4 -8.03 l -5.48 -12.09 c 1.656 -1.5 2.934 -2.147 4.316 -2.854 c -0.065 -2.258 -0.218 -5.779 -1.23 -7.971 c -0.804 -0.085 -1.62 -0.131 -2.447 -0.131 z m 14.06 6.898 c -2.781 4 0.855 6.816 2.563 10 c 1.671 0.287 2.957 0.741 5.715 0.604 c -0.971 -3.958 -2.967 -7.511 -5.689 -10.367 c -0.834 -0.066 -1.697 -0.145 -2.588 -0.236 z m -0.813 32.03 c -0.211 0.004 -0.43 0.02 -0.625 0.063 c -0.231 1.464 0.515 1.763 1.072 2.49 c 0.778 -0.578 1.516 -1.206 2.215 -1.875 c -0.85 -0.38 -1.79 -0.687 -2.662 -0.678 z" style="fill:#285935;fill-opacity:1"/>
  <path d="m 9.434 6.201 c -3.837 3.144 -6.634 7.506 -7.813 12.494 c 0.106 0.019 0.212 0.044 0.318 0.061 c 0.879 0.133 1.762 0.203 2.656 0.152 c 1.969 -2.516 4.074 -4.281 5 -7.25 c 0.522 -1.674 0.593 -3.841 -0.162 -5.457 z m 11.754 5.551 c -0.313 0.016 -0.613 0.059 -0.938 0.125 c -1.176 0.969 -1.672 2.444 -2.219 3.813 c -0.664 1.652 0.517 3.469 -0.313 4.969 c -0.547 0.5 -1.384 0.654 -2.064 0.479 c -2.684 -0.734 -5.652 -0.729 -8.219 0.521 l 0.031 0.5 c 0.328 2.336 0.688 4.748 1.75 6.854 c 0.688 1.359 0.98 2.953 1.145 4.438 c 0.227 1.898 -0.672 3.694 -0.625 5.563 c 3.629 -0.184 8.06 -0.125 9.531 1.344 c 1.215 1.218 0.214 3.723 -1.105 5.895 c 1.865 0.488 3.82 0.75 5.838 0.75 c 0.644 0 1.28 -0.034 1.91 -0.086 c 0.211 -0.609 0.35 -1.227 0.393 -1.715 c 0.113 -1.453 -0.965 -1.813 -1.031 -3.094 c -0.102 -2.105 1.777 -3.375 2.941 -4.875 c 1.289 -1.688 0.652 -4.23 -1.031 -5.566 c 0.594 -2.465 0.828 -5.063 1.625 -7.527 c 0.91 -2.785 5.02 -5.387 2.938 -8.25 c -1.723 -0.184 -3.273 -0.992 -4.719 -1.906 c -1.738 -1.125 -3.664 -2.309 -5.844 -2.219 l 0.006 -0.01 z m 16.369 6.877 c 0.066 0.719 0.609 1.305 1.156 1.719 c 0.398 0.301 0.832 -0.367 0.469 -0.75 c -0.43 -0.434 -0.945 -1.035 -1.625 -0.969 z m 3.223 7.748 c -0.12 -0.01 -0.246 -0.009 -0.379 0.002 c -3.922 0.316 -6.824 4.277 -8.25 7.625 c 0.25 0.734 0.461 1.586 0.906 2.219 c 0.547 0.77 1.934 1.73 3.094 2.281 c 2.418 -2.184 5.371 -4.43 6.316 -7.781 c 0.484 -1.703 0.112 -4.192 -1.688 -4.346 z" style="fill:#b07845;fill-opacity:1"/>
  <path d="m 19 27 -2 9 8 -4 7.195 3.598 c 0.072 -0.159 0.159 -0.315 0.271 -0.459 l 0.121 -0.992 -1.588 -7.146 0.436 -0.434 c -0.656 -0.958 -1.523 -1.796 -2.594 -2.52 z" style="fill:#000;fill-opacity:0.098"/>
 </g>
 <g>
  <g>
   <g transform="translate(1,1)">
    <g style="opacity:0.1">
     <!-- color: #3f2811 -->
    </g>
   </g>
  </g>
 </g>
 <g>
  <g>
   <!-- color: #3f2811 -->
   <g>
    <path d="m 16 35 l 2 -9 l -6 -5.996 l 8 -1 l 4 -8 l 4 8 l 8 1 l -6 5.996 l 2 9 l -8 -4 m -8 4" style="fill:#ececeb;fill-opacity:1;stroke:none;fill-rule:nonzero"/>
   </g>
  </g>
 </g>
 <g>
  <path d="m 40.03 7.531 c 3.712 4.084 5.969 9.514 5.969 15.469 0 12.703 -10.297 23 -23 23 c -5.954 0 -11.384 -2.256 -15.469 -5.969 4.178 4.291 10.01 6.969 16.469 6.969 c 12.703 0 23 -10.298 23 -23 0 -6.462 -2.677 -12.291 -6.969 -16.469 z" style="opacity:0.1"/>
 </g>
</svg>
