<svg version="1.1" viewBox="0 0 48 48" xmlns="http://www.w3.org/2000/svg">
 <defs>
  <linearGradient id="linearGradient860" x2="0" y1="47" y2="1" gradientUnits="userSpaceOnUse">
   <stop style="stop-color:#e5e5e5" offset="0"/>
   <stop style="stop-color:#efefef" offset="1"/>
  </linearGradient>
 </defs>
 <path d="m36.3 5c5.86 4.06 9.69 10.8 9.69 18.5 0 12.4-10.1 22.5-22.5 22.5-7.67 0-14.4-3.83-18.5-9.69 1.04 1.82 2.31 3.5 3.78 4.97 4.08 3.71 9.51 5.97 15.5 5.97 12.7 0 23-10.3 23-23 0-5.95-2.26-11.4-5.97-15.5-1.47-1.48-3.15-2.74-4.97-3.78zm4.97 3.78c3.85 4.11 6.22 9.64 6.22 15.7 0 12.7-10.3 23-23 23-6.08 0-11.6-2.36-15.7-6.22 4.16 4.14 9.88 6.72 16.2 6.72 12.7 0 23-10.3 23-23 0-6.34-2.58-12.1-6.72-16.2z" style="opacity:.05"/>
 <path d="m41.3 8.78c3.71 4.08 5.97 9.51 5.97 15.5 0 12.7-10.3 23-23 23-5.95 0-11.4-2.26-15.5-5.97 4.11 3.85 9.64 6.22 15.7 6.22 12.7 0 23-10.3 23-23 0-6.08-2.36-11.6-6.22-15.7z" style="opacity:.1"/>
 <path d="m31.2 2.38c8.62 3.15 14.8 11.4 14.8 21.1 0 12.4-10.1 22.5-22.5 22.5-9.71 0-18-6.14-21.1-14.8a23 23 0 0 0 44.9-7 23 23 0 0 0-16-21.9z" style="opacity:.2"/>
 <g style="fill:#e5e5e5">
  <path d="m24 1c12.7 0 23 10.3 23 23s-10.3 23-23 23-23-10.3-23-23 10.3-23 23-23z" style="fill:url(#linearGradient860)"/>
 </g>
 <path d="m40 7.53c3.71 4.08 5.97 9.51 5.97 15.5 0 12.7-10.3 23-23 23-5.95 0-11.4-2.26-15.5-5.97 4.18 4.29 10 6.97 16.5 6.97 12.7 0 23-10.3 23-23 0-6.46-2.68-12.3-6.97-16.5z" style="opacity:.1"/>
 <path d="m25 10c-8.28 0-15 6.72-15 15s6.72 15 15 15 15-6.72 15-15-6.72-15-15-15zm0 3c2 0 2.48 0.505 3.64 1.32 0.043 0.933-1.04 1.54-0.975 2.44 0.555 1.06 0.037-0.38 0.666-0.586 1.3-1.26 1.78 1.38 1.87 2.4 0.066 0.765-0.198 1.83 0.215 2.41 0.741 1.04 0.212 2.68-0.648 3.56-0.351 1.51-0.723 2.99-1.89 4.06-0.317 0.71 1 1.5-0.074 2.2-1.2 0.936-1.41 3.09-3.17 3.1-0.513 0.203-2 0.532-0.666 0.832 0.948-0.449 2.18-0.06 2.55-1.28 0.423-0.848 0.712-1.76 1.76-2.18 1.38-1.06-0.59-2.33 0.521-3.33 1.13 0.314 1.67 1.55 2.78 1.95 0.562 0.222 1.03 0.72 1.08 1.32-1.03 0.247-2.24-0.357-3.06 0.623-0.362-0.251-1.28-1.08-0.619-0.115 0.247 1.44 1.08 0.477 1.82 0.158 0.665 0.011 1.33 0.023 1.99 0.035 0.267-0.413 0.632-0.834 0.145-1.24-0.554-1.07 1.35 0.255 1.74 0.508 0.831 0.408 1.46 1.34 1.48 2.25-2.64 3.5-6.77 5.58-11.2 5.58-0.261 0-0.523-0.019-0.783-0.039 0.395-1.25 1.53-2.64 1.69-3.9-0.076-0.022-0.147-0.033-0.213-0.035-0.982-0.026-0.81 2.12-1.69 2.71-0.169 0.634-0.58 1.01-1.02 1.09-0.202-0.026-0.403-0.057-0.604-0.092-0.29-0.128-0.559-0.384-0.738-0.793-0.616-0.499-1.18-2.32-1.75-2.27-0.039 4e-3 -0.078 0.016-0.117 0.037 0.162 0.76 1.94 2.7 0.619 2.48-3.41-1.19-6.24-3.65-7.88-6.88 0.341-0.161 1.05 0.478 1.5 0.393 1.17 1.82 2.45 3.67 4.39 4.75 0.604 0.505 1.31 0.599 0.551-0.234-1.45-1.26 1.13-0.917 1.91-1.43 1.09-0.723 1.99-1.64 2.65-2.72 0.88-0.039 2.14-1.17 0.482-1.01-1.12 0.498-2.83-2.52-1.1-1.79 0.46-0.537 0.553 1.21 1.7 0.799 0.876 0.248 2.04-1.82 0.662-0.77-0.566 0.195-1.99 0.648-1.61-0.492 0.57-0.113 2.42-0.187 2.02-0.613-1.14 0.084-2.04-0.371-3.06 0.361-0.874-1.23 1.18-0.258 1.61-1.05 0.629 1e-3 2.58-0.975 0.715-0.865-0.959-0.062-1.24-0.916-0.084-0.871 0.125-0.585 0.072-2.43-0.457-0.949-0.172 0.958-1.46 1.34-0.814 0.07-0.505 0.438-0.536-0.708-1.02-0.021 0.039 0.763 1.02 1.9 0.104 2.15 0.054-0.756-0.05-1.86-0.58-0.527-0.618 1.44-0.685-0.197-0.713-0.836 1.37 0.5 0.224-2.26-0.861-1.77-0.598-1.09 0.989-0.983 1.5-0.375 0.574-0.02 1.23 0.203 1.74-2e-3 0.646-0.256 1.9-1.23 0.459-1.21-1.02-0.269-1.77-1.16-2.88-0.963-0.279-0.458-0.341-1.39-0.141-1.99-0.144-0.672-0.145-1.78-0.967-1.81-0.544-0.748-0.056-1.45 0.486-0.387 0.461 0.331 0.771 2.16 1.25 1.61-0.54-0.874-1.2-2.15-1.36-3 0.764-1.22 2.84-0.453 3.46-1.12-1.01-0.425-2.59-0.03-3.34 0.068 0.861-1.19 2.84-1.72 4.29-1.72m2.72 9.23c-0.634 0.039-1.25 0.398-1.64 0.033-0.312 0.846 1.89 2.49 1.62 1.05 0.641-0.093 2.24-1.17 0.652-0.977-0.208-0.097-0.421-0.12-0.633-0.107zm-0.98 2.33c-0.193 0.428 0.781 1.28-0.051 1.37-0.105 0.553 1.52 0.089 0.387 0.73-0.832 0.764 0.401 0.203 0.43 0.379-1 0.806-0.212 1.11 0.314 0.189 0.269-0.475 1.45-1.92 0.186-1.83-0.606 1.31-0.46-0.843-1.27-0.842z" style="opacity:.1"/>
 <path d="m24 9c-8.28 0-15 6.72-15 15s6.72 15 15 15 15-6.72 15-15-6.72-15-15-15m0 3c2 0 2.48 0.505 3.64 1.32 0.043 0.933-1.04 1.54-0.975 2.44 0.555 1.06 0.037-0.38 0.666-0.586 1.3-1.26 1.78 1.38 1.87 2.4 0.066 0.765-0.198 1.83 0.215 2.41 0.741 1.04 0.212 2.68-0.648 3.56-0.351 1.51-0.723 2.99-1.89 4.06-0.317 0.71 1 1.5-0.074 2.2-1.2 0.936-1.41 3.09-3.17 3.1-0.513 0.203-2 0.532-0.666 0.832 0.948-0.449 2.18-0.06 2.55-1.28 0.423-0.848 0.712-1.76 1.76-2.18 1.38-1.06-0.59-2.33 0.521-3.33 1.13 0.314 1.67 1.55 2.78 1.95 0.562 0.222 1.03 0.72 1.08 1.32-1.03 0.247-2.24-0.357-3.06 0.623-0.362-0.251-1.28-1.08-0.619-0.115 0.247 1.44 1.08 0.477 1.82 0.158 0.665 0.011 1.33 0.023 1.99 0.035 0.267-0.413 0.632-0.834 0.145-1.24-0.554-1.07 1.35 0.255 1.74 0.508 0.831 0.408 1.46 1.34 1.48 2.25-2.64 3.5-6.77 5.58-11.2 5.58-0.261 0-0.523-0.019-0.783-0.039 0.395-1.25 1.53-2.64 1.69-3.9-0.076-0.022-0.147-0.033-0.213-0.035-0.982-0.026-0.81 2.12-1.69 2.71-0.169 0.634-0.58 1.01-1.02 1.09-0.202-0.026-0.403-0.057-0.604-0.092-0.29-0.128-0.559-0.384-0.738-0.793-0.616-0.499-1.18-2.32-1.75-2.27-0.039 4e-3 -0.078 0.016-0.117 0.037 0.162 0.76 1.94 2.7 0.619 2.48-3.41-1.19-6.24-3.65-7.88-6.88 0.341-0.161 1.05 0.478 1.5 0.393 1.17 1.82 2.45 3.67 4.39 4.75 0.604 0.505 1.31 0.599 0.551-0.234-1.45-1.26 1.13-0.917 1.91-1.43 1.09-0.723 1.99-1.64 2.65-2.72 0.88-0.039 2.14-1.17 0.482-1.01-1.12 0.498-2.83-2.52-1.1-1.79 0.46-0.537 0.553 1.21 1.7 0.799 0.876 0.248 2.04-1.82 0.662-0.77-0.566 0.195-1.99 0.648-1.61-0.492 0.57-0.113 2.42-0.187 2.02-0.613-1.14 0.084-2.04-0.371-3.06 0.361-0.874-1.23 1.18-0.258 1.61-1.05 0.629 1e-3 2.58-0.975 0.715-0.865-0.959-0.062-1.24-0.916-0.084-0.871 0.125-0.585 0.072-2.43-0.457-0.949-0.172 0.958-1.46 1.34-0.814 0.07-0.505 0.438-0.536-0.708-1.02-0.021 0.039 0.763 1.02 1.9 0.104 2.15 0.054-0.756-0.05-1.86-0.58-0.527-0.618 1.44-0.685-0.197-0.713-0.836 1.37 0.5 0.224-2.26-0.861-1.77-0.598-1.09 0.989-0.983 1.5-0.375 0.574-0.02 1.23 0.203 1.74-2e-3 0.646-0.256 1.9-1.23 0.459-1.21-1.02-0.269-1.77-1.16-2.88-0.963-0.279-0.458-0.341-1.39-0.141-1.99-0.144-0.672-0.145-1.78-0.967-1.81-0.544-0.748-0.056-1.45 0.486-0.387 0.461 0.331 0.771 2.16 1.25 1.61-0.54-0.874-1.2-2.15-1.36-3 0.764-1.22 2.84-0.453 3.46-1.12-1.01-0.425-2.59-0.03-3.34 0.068 0.861-1.19 2.84-1.72 4.29-1.72m2.72 9.23c-0.634 0.039-1.25 0.398-1.64 0.033-0.312 0.846 1.89 2.49 1.62 1.05 0.641-0.093 2.24-1.17 0.652-0.977-0.208-0.097-0.421-0.12-0.633-0.107zm-0.98 2.33c-0.193 0.428 0.781 1.28-0.051 1.37-0.105 0.553 1.52 0.089 0.387 0.73-0.832 0.764 0.401 0.203 0.43 0.379-1 0.806-0.212 1.11 0.314 0.189 0.269-0.475 1.45-1.92 0.186-1.83-0.606 1.31-0.46-0.843-1.27-0.842z" style="fill:#4d4d4d"/>
</svg>
