<svg version="1.1" viewBox="0 0 48 48" xmlns="http://www.w3.org/2000/svg">
 <defs>
  <linearGradient id="bg" x2="0" y1="1" y2="47" gradientUnits="userSpaceOnUse">
   <stop style="stop-color:#903747" offset="0"/>
   <stop style="stop-color:#813240" offset="1"/>
  </linearGradient>
 </defs>
 <path d="m36.3 5c5.86 4.06 9.69 10.8 9.69 18.5 0 12.4-10.1 22.5-22.5 22.5-7.67 0-14.4-3.83-18.5-9.69 1.04 1.82 2.31 3.5 3.78 4.97 4.08 3.71 9.51 5.97 15.5 5.97 12.7 0 23-10.3 23-23 0-5.95-2.26-11.4-5.97-15.5-1.47-1.48-3.15-2.74-4.97-3.78zm4.97 3.78c3.85 4.11 6.22 9.64 6.22 15.7 0 12.7-10.3 23-23 23-6.08 0-11.6-2.36-15.7-6.22 4.16 4.14 9.88 6.72 16.2 6.72 12.7 0 23-10.3 23-23 0-6.34-2.58-12.1-6.72-16.2z" style="opacity:.05"/>
 <path d="m41.3 8.78c3.71 4.08 5.97 9.51 5.97 15.5 0 12.7-10.3 23-23 23-5.95 0-11.4-2.26-15.5-5.97 4.11 3.85 9.64 6.22 15.7 6.22 12.7 0 23-10.3 23-23 0-6.08-2.36-11.6-6.22-15.7z" style="opacity:.1"/>
 <path d="m31.2 2.38c8.62 3.15 14.8 11.4 14.8 21.1 0 12.4-10.1 22.5-22.5 22.5-9.71 0-18-6.14-21.1-14.8a23 23 0 0 0 44.9-7 23 23 0 0 0-16-21.9z" style="opacity:.2"/>
 <circle cx="24" cy="24" r="23" style="fill:url(#bg)"/>
 <path d="m40 7.53c3.71 4.08 5.97 9.51 5.97 15.5 0 12.7-10.3 23-23 23-5.95 0-11.4-2.26-15.5-5.97 4.18 4.29 10 6.97 16.5 6.97 12.7 0 23-10.3 23-23 0-6.46-2.68-12.3-6.97-16.5z" style="opacity:.1"/>
 <path d="m28.2 11c-0.149 0.0026-0.18 0.0093-0.252 0.0479-6.53 3.55-4.31 9.84-3.74 10.6 0.329 0.457-0.486 1.34-1 0.958-3.57-2.63-5.87-2.45-9.47-2.55-0.694-0.0195-2.75 0.582-2.74 2.41 0.0015 0.564 0.2 1.12 0.697 1.97 1.36 2.32 3.32 4.75 4.9 5.22 0.536 0.159 0.665-0.0205 0.847 0.0759 0.238 0.127-0.309 2.29 0.375 3.29 0.291 0.425 2.89 2.97 4.38 3.45 0.504 0.161 0.631 0.263 1.19 0.468 0.244 0.0888 0.602 0.525 1.6 0.525s1.74-1.74 1.87-3.02c0.198-0.673 0.564-1.73 0.733-2.46 0.0838-0.456-0.0659-1.17 0.264-1.33 0.468-0.224 1.72 1.94 2.51 1.23 0.614-0.549-0.463-1.72-0.463-1.72 2.03 1.45 4.05 1.15 5.73 1.17 1.43 0.0156 1.22-3.38 1.22-4.11 0-0.9 0.134-1.6 0.129-2.26-0.0152-2.03-0.562-3.24-4.44-4.93 1.07-3.98-3.05-9.07-4.36-9.07zm-0.0519 1.19c0.462-0.0225 1.43 0.726 1.17 0.95-2.47 2.13-3.38 5.37-3.48 4.91-0.199-0.897 0.164-3.91 2.14-5.8 0.0404-0.0386 0.0977-0.0567 0.164-0.0599zm-2.16 0.986c0.287-0.13 0.311 0.254-0.24 1.15-1.43 2.34-1.14 6.02-1.43 5.66-0.584-0.709-0.194-3.6 0.351-4.88 0.488-1.15 1.04-1.8 1.32-1.93zm4 0.587c0.506-0.204 1.65 2.21 1.15 2.5-2.52 1.45-4.67 6.62-4.84 6.18-0.807-2.09 1.83-7.94 3.69-8.69zm1.42 3.16c0.506-0.204 0.741 3.15 0.032 3.52-3.39 1.77-4.73 5.12-4.87 4.61-0.405-1.51 2.98-7.39 4.84-8.13zm-6.2 2.39c0.0677-0.0266 0.132-0.0141 0.184 0.0519 0.161 0.206 0.408 1.66-0.0559 1.73-0.366 0.0508-0.557-0.612-0.559-0.942-0.0019-0.335 0.228-0.759 0.431-0.839zm7.37 1.42c0.546-0.0121 2.28 1.08 1.71 1.13-3.37 0.256-6.33 2.92-6.11 2.5 1.04-1.99 3.81-3.61 4.4-3.63zm-14.1 0.459c0.408-0.0013 1.35 0.224 1.97 1.02 0.187 0.24-0.61 0.0996-1.18-0.16-0.725-0.331-0.787-0.25-0.994-0.799-0.014-0.0372 0.0636-0.0635 0.2-0.0639zm-4.58 0.204c1.57-0.0027 2.55 0.358 3.77 0.715 1.42 0.417 3.9 1.44 3.88 2.07-0.0092 0.315-4.85-1.53-8.87-0.499-1.03 0.264-1.27-2.05-0.583-2.15 0.688-0.0961 1.28-0.135 1.81-0.136zm11.5 0.208c0.171-0.0548 0.32 0.0955 0.228 0.647-0.0405 0.242 0.191 0.737-0.0958 0.863-0.338 0.148-0.449-0.394-0.479-0.914-0.0163-0.278 0.177-0.54 0.347-0.595zm9.25 1.19c1.56 0.122 1.32 2.08 0.942 2.02-3.71-0.634-7.67 1.27-7.48 0.847 0.483-1.04 4.28-3.04 6.53-2.86zm-18.6 1.38c0.635-0.0047 1.07 0.0138 1.79 0.0519 1.48 0.0786 3.33 0.527 3.34 0.891 0.0038 0.315-2.94-0.339-6.82 0.799-1.02 0.299-1.99-1.63-1.31-1.65 1.53-0.057 2.37-0.0832 3.01-0.0878zm16.8 1.53c0.747-0.0351 1.53-0.0161 2.28 0.0759 1.08 0.132 1.09 1.57 0.292 1.57-3.89 0-7.11-0.14-6.93-0.575 0.156-0.392 2.12-0.965 4.36-1.07zm-12.4 0.18c1.48 0.0943 4.43 0.122 4.44 0.715 0.0079 0.315-3.02-0.106-7.07 2.22-1.31 0.747-4.07-2.02-3.23-2.23 0 0 3.53-0.852 5.87-0.703zm9.15 1.73c1.08 0.0433 2.97 0.504 6.19 0.383 0.766-0.0289 0.28 1.79 0.124 1.78-3.17-0.214-7.54-1.79-7.14-2.03 0.199-0.115 0.466-0.15 0.827-0.136zm-6.41 0.156c0.883-0.0341-1.74 2.5-1.9 2.83-0.4 0.832-1 2.82-1.47 3.09-0.923 0.53-1.39-3.92-1.12-4.17 0.502-0.463 3.05-1.7 4.49-1.76zm1.06 0.883c0.73-0.498-0.105 3.47-0.379 4.28-0.312 0.919-1.01 2.31-1.48 2.58-0.443 0.258-1.69-0.595-1.71-0.958-0.0428-1.13 0.625-3.9 3.57-5.9zm2.19 0.132c0.448 0.0355 0.67 2.67 0.236 3.15-0.204 0.226-0.374-0.925-0.375-1.55-0.0024-0.843-0.169-1.63 0.14-1.61zm3.93 0.228c0.94 0.0992 2.4 1.07 4.93 1.2 0.588 0.0294 0.214 0.567-0.751 0.535-2.88-0.0948-5.01-1.61-4.56-1.72 0.114-0.0263 0.241-0.0302 0.375-0.016zm-5.01 1.58c0.201-0.149 0.381 2.25 0.379 2.57-0.0065 1.09-0.45 2.33-0.779 3.05-0.32 0.701-1.74 0.0182-1.78-0.343-0.0431-0.4 1.23-0.937 2.09-5.04 0.0292-0.139 0.0591-0.21 0.0878-0.232z" style="opacity:.098"/>
 <path d="m27.2 10c-0.149 0.0026-0.18 0.0093-0.252 0.0479-6.53 3.55-4.31 9.84-3.74 10.6 0.329 0.457-0.486 1.34-1 0.958-3.57-2.63-5.87-2.45-9.47-2.55-0.694-0.0195-2.75 0.582-2.74 2.41 0.0015 0.564 0.2 1.12 0.697 1.97 1.36 2.32 3.32 4.75 4.9 5.22 0.536 0.159 0.665-0.0205 0.847 0.0759 0.238 0.127-0.309 2.29 0.375 3.29 0.291 0.425 2.89 2.97 4.38 3.45 0.504 0.161 0.631 0.263 1.19 0.468 0.244 0.0888 0.602 0.525 1.6 0.525s1.74-1.74 1.87-3.02c0.198-0.673 0.564-1.73 0.733-2.46 0.0838-0.456-0.0659-1.17 0.264-1.33 0.468-0.224 1.72 1.94 2.51 1.23 0.614-0.549-0.463-1.72-0.463-1.72 2.03 1.45 4.05 1.15 5.73 1.17 1.43 0.0156 1.22-3.38 1.22-4.11 0-0.9 0.134-1.6 0.129-2.26-0.0152-2.03-0.562-3.24-4.44-4.93 1.07-3.98-3.05-9.07-4.36-9.07zm-0.0519 1.19c0.462-0.0225 1.43 0.726 1.17 0.95-2.47 2.13-3.38 5.37-3.48 4.91-0.199-0.897 0.164-3.91 2.14-5.8 0.0404-0.0386 0.0977-0.0567 0.164-0.0599zm-2.16 0.986c0.287-0.13 0.311 0.254-0.24 1.15-1.43 2.34-1.14 6.02-1.43 5.66-0.584-0.709-0.194-3.6 0.351-4.88 0.488-1.15 1.04-1.8 1.32-1.93zm4 0.587c0.506-0.204 1.65 2.21 1.15 2.5-2.52 1.45-4.67 6.62-4.84 6.18-0.807-2.09 1.83-7.94 3.69-8.69zm1.42 3.16c0.506-0.204 0.741 3.15 0.032 3.52-3.39 1.77-4.73 5.12-4.87 4.61-0.405-1.51 2.98-7.39 4.84-8.13zm-6.2 2.39c0.0677-0.0266 0.132-0.0141 0.184 0.0519 0.161 0.206 0.408 1.66-0.0559 1.73-0.366 0.0508-0.557-0.612-0.559-0.942-0.0019-0.335 0.228-0.759 0.431-0.839zm7.37 1.42c0.546-0.0121 2.28 1.08 1.71 1.13-3.37 0.256-6.33 2.92-6.11 2.5 1.04-1.99 3.81-3.61 4.4-3.63zm-14.1 0.459c0.408-0.0013 1.35 0.224 1.97 1.02 0.187 0.24-0.61 0.0996-1.18-0.16-0.725-0.331-0.787-0.25-0.994-0.799-0.014-0.0372 0.0636-0.0635 0.2-0.0639zm-4.58 0.204c1.57-0.0027 2.55 0.358 3.77 0.715 1.42 0.417 3.9 1.44 3.88 2.07-0.0092 0.315-4.85-1.53-8.87-0.499-1.03 0.264-1.27-2.05-0.583-2.15 0.688-0.0961 1.28-0.135 1.81-0.136zm11.5 0.208c0.171-0.0548 0.32 0.0955 0.228 0.647-0.0405 0.242 0.191 0.737-0.0958 0.863-0.338 0.148-0.449-0.394-0.479-0.914-0.0163-0.278 0.177-0.54 0.347-0.595zm9.25 1.19c1.56 0.122 1.32 2.08 0.942 2.02-3.71-0.634-7.67 1.27-7.48 0.847 0.483-1.04 4.28-3.04 6.53-2.86zm-18.6 1.38c0.635-0.0047 1.07 0.0138 1.79 0.0519 1.48 0.0786 3.33 0.527 3.34 0.891 0.0038 0.315-2.94-0.339-6.82 0.799-1.02 0.299-1.99-1.63-1.31-1.65 1.53-0.057 2.37-0.0832 3.01-0.0878zm16.8 1.53c0.747-0.0351 1.53-0.0161 2.28 0.0759 1.08 0.132 1.09 1.57 0.292 1.57-3.89 0-7.11-0.14-6.93-0.575 0.156-0.392 2.12-0.965 4.36-1.07zm-12.4 0.18c1.48 0.0943 4.43 0.122 4.44 0.715 0.0079 0.315-3.02-0.106-7.07 2.22-1.31 0.747-4.07-2.02-3.23-2.23 0 0 3.53-0.852 5.87-0.703zm9.15 1.73c1.08 0.0433 2.97 0.504 6.19 0.383 0.766-0.0289 0.28 1.79 0.124 1.78-3.17-0.214-7.54-1.79-7.14-2.03 0.199-0.115 0.466-0.15 0.827-0.136zm-6.41 0.156c0.883-0.0341-1.74 2.5-1.9 2.83-0.4 0.832-1 2.82-1.47 3.09-0.923 0.53-1.39-3.92-1.12-4.17 0.502-0.463 3.05-1.7 4.49-1.76zm1.06 0.883c0.73-0.498-0.105 3.47-0.379 4.28-0.312 0.919-1.01 2.31-1.48 2.58-0.443 0.258-1.69-0.595-1.71-0.958-0.0428-1.13 0.625-3.9 3.57-5.9zm2.19 0.132c0.448 0.0355 0.67 2.67 0.236 3.15-0.204 0.226-0.374-0.925-0.375-1.55-0.0024-0.843-0.169-1.63 0.14-1.61zm3.93 0.228c0.94 0.0992 2.4 1.07 4.93 1.2 0.588 0.0294 0.214 0.567-0.751 0.535-2.88-0.0948-5.01-1.61-4.56-1.72 0.114-0.0263 0.241-0.0302 0.375-0.016zm-5.01 1.58c0.201-0.149 0.381 2.25 0.379 2.57-0.0065 1.09-0.45 2.33-0.779 3.05-0.32 0.701-1.74 0.0182-1.78-0.343-0.0431-0.4 1.23-0.937 2.09-5.04 0.0292-0.139 0.0591-0.21 0.0878-0.232z" style="fill:#e5e5e5"/>
</svg>
