<svg version="1.1" viewBox="0 0 48 48" xmlns="http://www.w3.org/2000/svg">
 <defs>
  <linearGradient id="bg" x1="1" x2="47" gradientTransform="matrix(0 -1 1 0 -1.5e-6 48)" gradientUnits="userSpaceOnUse">
   <stop style="stop-color:#e4e4e4" offset="0"/>
   <stop style="stop-color:#eee" offset="1"/>
  </linearGradient>
 </defs>
 <path d="m36.31 5c5.859 4.062 9.688 10.831 9.688 18.5 0 12.426-10.07 22.5-22.5 22.5-7.669 0-14.438-3.828-18.5-9.688 1.037 1.822 2.306 3.499 3.781 4.969 4.085 3.712 9.514 5.969 15.469 5.969 12.703 0 23-10.298 23-23 0-5.954-2.256-11.384-5.969-15.469-1.469-1.475-3.147-2.744-4.969-3.781zm4.969 3.781c3.854 4.113 6.219 9.637 6.219 15.719 0 12.703-10.297 23-23 23-6.081 0-11.606-2.364-15.719-6.219 4.16 4.144 9.883 6.719 16.219 6.719 12.703 0 23-10.298 23-23 0-6.335-2.575-12.06-6.719-16.219z" style="opacity:.05"/>
 <path d="m41.28 8.781c3.712 4.085 5.969 9.514 5.969 15.469 0 12.703-10.297 23-23 23-5.954 0-11.384-2.256-15.469-5.969 4.113 3.854 9.637 6.219 15.719 6.219 12.703 0 23-10.298 23-23 0-6.081-2.364-11.606-6.219-15.719z" style="opacity:.1"/>
 <path d="m31.25 2.375c8.615 3.154 14.75 11.417 14.75 21.13 0 12.426-10.07 22.5-22.5 22.5-9.708 0-17.971-6.135-21.12-14.75a23 23 0 0 0 44.875-7 23 23 0 0 0-16-21.875z" style="opacity:.2"/>
 <path d="m24 1c12.703 0 23 10.297 23 23s-10.297 23-23 23-23-10.297-23-23 10.297-23 23-23z" style="fill:url(#bg)"/>
 <g transform="translate(1,1)">
  <g style="opacity:.1">
   <path transform="translate(-1,-1)" d="m31.703 11.324-2.2676 2.5332c-1.3732-0.54698-2.8669-0.85742-4.4355-0.85742-6.629 0-12 5.371-12 12 0 1.6672 0.34104 3.2546 0.95508 4.6973l-1.9551 1.3027 3 4 1.5137-1.5137c2.1714 2.1714 5.1718 3.5137 8.4863 3.5137 0.65409 0 1.2904-0.067337 1.916-0.16797l1.084 2.168 5-3-0.89648-1.3438c2.1889-1.6128 3.8053-3.9465 4.5039-6.6562h3.3926v-5h-3.1797c-0.33563-1.9965-1.1597-3.8233-2.3516-5.3555l2.1406-1.6445-4.9062-4.6758z"/>
  </g>
 </g>
 <path d="m36 24c0 6.629-5.371 12-12 12s-12-5.371-12-12 5.371-12 12-12 12 5.371 12 12" style="fill:#267fc1"/>
 <path d="m23 14c-4.97 0-9 4.031-9 9 0 3.9176 2.5057 7.2482 6 8.4844v1.5156h3v-1c0.81148 0 1.5978-0.10908 2.3457-0.31055l0.6543 1.3105 2-1-0.58008-1.1602c2.7333-1.545 4.5801-4.4774 4.5801-7.8398 0-4.97-4.031-9-9-9z" style="opacity:.1"/>
 <path d="m22 13c-4.97 0-9 4.031-9 9 0 3.9176 2.5057 7.2482 6 8.4844v1.5156h3v-1c0.81148 0 1.5978-0.10908 2.3457-0.31055l0.6543 1.3105 2-1-0.58008-1.1602c2.7333-1.545 4.5801-4.4774 4.5801-7.8398 0-4.97-4.031-9-9-9z" style="fill:#3d3d3d"/>
 <path d="m28.309 13 2.395-2.676 4.906 4.676-2.605 2" style="fill:#267fc1"/>
 <path d="m35 22v5h4v-5" style="fill:#267fc1"/>
 <path d="m25 34 2 4 5-3-2-3" style="fill:#267fc1"/>
 <path d="m14 28-3 2 3 4 2-2" style="fill:#267fc1"/>
 <path d="m28.277 20.633c-1.3874 0.003985-2.994 0.68069-3.2812 1.8672 0 0.828 0.56688 1.2148 1.6719 1.2148 1.039-0.027 2.8472-1.4255 2.8672-2.8555-0.3565-0.15425-0.79536-0.22789-1.2578-0.22656zm-10.332 2.6484c-1.105 0-0.94141 0.38675-0.94141 1.2188 0 0.824 0.895 1.4961 2 1.4961 1.101 0 1.9961-0.66809 1.9961-1.4961h0.003906c0-0.832-1.9536-1.2188-3.0586-1.2188z" style="fill:#19ccb0"/>
 <path d="m21.15 13.803c-0.21591 0.002266-0.43264 0.035266-0.65039 0.10352-0.707 0.425-1.2966 1.5863-0.14062 2.0273l1.9492 0.066406c0.356-0.211 0.33959-0.19559 0.55859-0.43359 0.223-0.238 0.56666-0.50341 0.22266-1.0664-0.65025-0.4335-1.2917-0.70406-1.9395-0.69727zm-1.1113 3.1973c-1.199 0.289-1.57 1.758 0 2 1.231-0.125 2.4575-0.125 3.6875 0 0.84-0.477-0.40225-1.945-2.1562-2h-1.5312zm1.4688 3c-0.656 0.136-0.66 0.64025 0 0.90625l1 0.089844c0.5 0 0.824-0.37938 0-0.73438l-1-0.26172z" style="fill:#de3d3d"/>
 <path d="m40.03 7.531c3.712 4.084 5.969 9.514 5.969 15.469 0 12.703-10.297 23-23 23-5.954 0-11.384-2.256-15.469-5.969 4.178 4.291 10.01 6.969 16.469 6.969 12.703 0 23-10.298 23-23 0-6.462-2.677-12.291-6.969-16.469z" style="opacity:.1"/>
</svg>
