<svg version="1.1" viewBox="0 0 48 48" xmlns="http://www.w3.org/2000/svg">
 <defs>
  <linearGradient id="bg" x1="1" x2="47" gradientTransform="matrix(0 -1 1 0 -1.5e-6 48)" gradientUnits="userSpaceOnUse">
   <stop style="stop-color:#f0eab8" offset="0"/>
   <stop style="stop-color:#f3eec8" offset="1"/>
  </linearGradient>
 </defs>
 <path d="m36.31 5c5.859 4.062 9.688 10.831 9.688 18.5 0 12.426-10.07 22.5-22.5 22.5-7.669 0-14.438-3.828-18.5-9.688 1.037 1.822 2.306 3.499 3.781 4.969 4.085 3.712 9.514 5.969 15.469 5.969 12.703 0 23-10.298 23-23 0-5.954-2.256-11.384-5.969-15.469-1.469-1.475-3.147-2.744-4.969-3.781zm4.969 3.781c3.854 4.113 6.219 9.637 6.219 15.719 0 12.703-10.297 23-23 23-6.081 0-11.606-2.364-15.719-6.219 4.16 4.144 9.883 6.719 16.219 6.719 12.703 0 23-10.298 23-23 0-6.335-2.575-12.06-6.719-16.219z" style="opacity:.05"/>
 <path d="m41.28 8.781c3.712 4.085 5.969 9.514 5.969 15.469 0 12.703-10.297 23-23 23-5.954 0-11.384-2.256-15.469-5.969 4.113 3.854 9.637 6.219 15.719 6.219 12.703 0 23-10.298 23-23 0-6.081-2.364-11.606-6.219-15.719z" style="opacity:.1"/>
 <path d="m31.25 2.375c8.615 3.154 14.75 11.417 14.75 21.13 0 12.426-10.07 22.5-22.5 22.5-9.708 0-17.971-6.135-21.12-14.75a23 23 0 0 0 44.875-7 23 23 0 0 0-16-21.875z" style="opacity:.2"/>
 <path d="m24 1c12.703 0 23 10.297 23 23s-10.297 23-23 23-23-10.297-23-23 10.297-23 23-23z" style="fill:url(#bg)"/>
 <path d="m25 10c-8.285 0-15 6.715-15 15s6.715 15 15 15 15-6.715 15-15-6.715-15-15-15zm0 2c5.408 0 10.043 3.3023 12.002 8h-24.004c1.9591-4.6977 6.594-8 12.002-8zm-5 2v5h1v-1.4004l0.93945-0.8457 1.7793 2.2461h1.2812l-2.3145-2.916 2.3145-2.084h-1.4941l-2.5059 2.2559v-2.2559zm5 0 2 3v2h1v-2l2-3h-1.1797l-1.3203 1.9062-1.3203-1.9062zm-12.648 8h25.297c0.22779 0.96368 0.35156 1.9667 0.35156 3 0 7.18-5.82 13-13 13s-13-5.82-13-13c0-1.0333 0.12377-2.0363 0.35156-3zm12.648 2a6 6 0 0 0-6 6 6 6 0 0 0 6 6 6 6 0 0 0 6-6 6 6 0 0 0-6-6zm0 2a4 4 0 0 1 2.0312 0.55469l-5.4746 5.4746a4 4 0 0 1-0.55664-2.0293 4 4 0 0 1 4-4zm3.4453 1.9688a4 4 0 0 1 0.55469 2.0312 4 4 0 0 1-4 4 4 4 0 0 1-2.0293-0.55664z" style="opacity:.1"/>
 <path d="m24 9c-8.285 0-15 6.715-15 15s6.715 15 15 15 15-6.715 15-15-6.715-15-15-15zm0 2c5.408 0 10.043 3.3023 12.002 8h-24.004c1.9591-4.6977 6.594-8 12.002-8zm-5 2v5h1v-1.4004l0.93945-0.8457 1.7793 2.2461h1.2812l-2.3145-2.916 2.3145-2.084h-1.4941l-2.5059 2.2559v-2.2559h-1zm5 0 2 3v2h1v-2l2-3h-1.1797l-1.3203 1.9062-1.3203-1.9062h-1.1797zm-12.648 8h25.297c0.22779 0.96368 0.35156 1.9667 0.35156 3 0 7.18-5.82 13-13 13s-13-5.82-13-13c0-1.0333 0.12377-2.0363 0.35156-3zm12.648 2a6 6 0 0 0-6 6 6 6 0 0 0 6 6 6 6 0 0 0 6-6 6 6 0 0 0-6-6zm0 2a4 4 0 0 1 2.0312 0.55469l-5.4746 5.4746a4 4 0 0 1-0.55664-2.0293 4 4 0 0 1 4-4zm3.4453 1.9688a4 4 0 0 1 0.55469 2.0312 4 4 0 0 1-4 4 4 4 0 0 1-2.0293-0.55664l5.4746-5.4746z" style="fill:#4c4c43"/>
 <path d="m40.03 7.531c3.712 4.084 5.969 9.514 5.969 15.469 0 12.703-10.297 23-23 23-5.954 0-11.384-2.256-15.469-5.969 4.178 4.291 10.01 6.969 16.469 6.969 12.703 0 23-10.298 23-23 0-6.462-2.677-12.291-6.969-16.469z" style="opacity:.1"/>
</svg>
