<svg xmlns="http://www.w3.org/2000/svg" viewBox="0 0 48 48">
 <defs>
  <linearGradient id="linearGradient3057" x1="24" y1="1" x2="24.817" y2="47.15" gradientUnits="userSpaceOnUse">
   <stop style="stop-color:#e42020;stop-opacity:1"/>
   <stop offset="1" style="stop-color:#d61a1a;stop-opacity:1"/>
  </linearGradient>
 </defs>
 <g>
  <path d="m 36.31 5 c 5.859 4.062 9.688 10.831 9.688 18.5 c 0 12.426 -10.07 22.5 -22.5 22.5 c -7.669 0 -14.438 -3.828 -18.5 -9.688 c 1.037 1.822 2.306 3.499 3.781 4.969 c 4.085 3.712 9.514 5.969 15.469 5.969 c 12.703 0 23 -10.298 23 -23 c 0 -5.954 -2.256 -11.384 -5.969 -15.469 c -1.469 -1.475 -3.147 -2.744 -4.969 -3.781 z m 4.969 3.781 c 3.854 4.113 6.219 9.637 6.219 15.719 c 0 12.703 -10.297 23 -23 23 c -6.081 0 -11.606 -2.364 -15.719 -6.219 c 4.16 4.144 9.883 6.719 16.219 6.719 c 12.703 0 23 -10.298 23 -23 c 0 -6.335 -2.575 -12.06 -6.719 -16.219 z" style="opacity:0.05"/>
  <path d="m 41.28 8.781 c 3.712 4.085 5.969 9.514 5.969 15.469 c 0 12.703 -10.297 23 -23 23 c -5.954 0 -11.384 -2.256 -15.469 -5.969 c 4.113 3.854 9.637 6.219 15.719 6.219 c 12.703 0 23 -10.298 23 -23 c 0 -6.081 -2.364 -11.606 -6.219 -15.719 z" style="opacity:0.1"/>
  <path d="m 31.25 2.375 c 8.615 3.154 14.75 11.417 14.75 21.13 c 0 12.426 -10.07 22.5 -22.5 22.5 c -9.708 0 -17.971 -6.135 -21.12 -14.75 a 23 23 0 0 0 44.875 -7 a 23 23 0 0 0 -16 -21.875 z" style="opacity:0.2"/>
 </g>
 <g>
  <path d="m 24 1 c 12.703 0 23 10.297 23 23 c 0 12.703 -10.297 23 -23 23 -12.703 0 -23 -10.297 -23 -23 0 -12.703 10.297 -23 23 -23 z" style="fill:url(#linearGradient3057);fill-opacity:1;stroke:none"/>
 </g>
 <path d="m 10.613 7.747 c -4.207 3.513 -7.104 8.595 -7.554 14.408 -0.844 10.915 7.394 20.963 18.413 21.792 10.306 0.775 19.796 -7.01 20.554 -17.421 0.706 -9.697 -6.628 -18.628 -16.43 -19.316 -9.09 -0.638 -17.442 6.268 -18.06 15.461 -0.569 8.478 5.866 16.252 14.451 16.798 c 7.869 0.501 15.09 -5.483 15.56 -13.46 0.432 -7.259 -5.099 -13.919 -12.468 -14.322 -6.65 -0.364 -12.735 4.739 -13.07 11.5 -0.296 6.04 4.337 11.546 10.49 11.804 5.43 0.227 10.383 -3.952 10.566 -9.498 0.159 -4.82 -3.568 -9.221 -8.507 -9.328 -4.21 -0.092 -8.04 3.206 -8.07 7.539 -0.024 3.599 2.82 6.887 6.547 6.834 2.988 -0.042 5.719 -2.456 5.577 -5.579 -0.108 -2.377 -2.09 -4.565 -4.611 -4.32 l -0.042 -0.005 c -0.868 0.094 -1.678 0.517 -2.257 1.156 -0.588 0.648 -0.937 1.554 -0.746 2.515 0.115 0.58 0.433 1.118 0.922 1.486 0.488 0.367 1.217 0.547 1.87 0.228 0.39 -0.191 0.584 -0.511 0.696 -0.902 0.056 -0.196 0.073 -0.438 -0.052 -0.687 -0.125 -0.249 -0.422 -0.408 -0.697 -0.439 l -0.084 0.949 c 0.061 0.007 -0.026 -0.011 -0.056 -0.07 -0.03 -0.059 -0.027 -0.057 -0.042 -0.005 -0.03 0.105 -0.216 0.316 -0.182 0.299 -0.312 0.152 -0.598 0.072 -0.879 -0.14 -0.281 -0.211 -0.498 -0.575 -0.561 -0.892 -0.128 -0.644 0.087 -1.246 0.508 -1.711 0.421 -0.464 1.038 -0.776 1.668 -0.838 1.919 -0.186 3.497 1.548 3.582 3.419 0.115 2.539 -2.135 4.543 -4.615 4.578 l -0.084 -0.009 c -3.112 -0.008 -5.548 -2.789 -5.528 -5.848 0.026 -3.766 3.399 -6.684 7.095 -6.603 4.378 0.095 7.737 4.03 7.595 8.333 -0.165 4.989 -4.658 8.792 -9.571 8.586 -5.599 -0.234 -9.848 -5.287 -9.578 -10.809 0.303 -6.195 5.914 -10.904 12.03 -10.593 l 0.042 0.005 c 6.819 0.373 11.958 6.588 11.556 13.327 l -0.005 0.042 c -0.466 7.399 -7.194 12.963 -14.518 12.51 l -0.023 0.019 c -8.04 -0.512 -14.09 -7.87 -13.558 -15.826 0.581 -8.648 8.475 -15.13 17.04 -14.531 9.258 0.65 16.214 9.09 15.546 18.26 -0.719 9.867 -9.738 17.291 -19.522 16.556 -10.476 -0.788 -18.351 -10.367 -17.547 -20.759 0.857 -11.09 10.996 -19.41 21.997 -18.539 11.12 0.88 20.13 11.755 19.993 22.84 l 0 0.008 c 0.139 -11.587 -8.274 -22.876 -19.909 -23.797 l -0.126 -0.014 c -5.716 -0.417 -11.175 1.523 -15.35 5.01 z" style="visibility:visible;fill:#800000;opacity:0.15;fill-opacity:1;stroke:none;display:inline;color:#000"/>
 <g>
  <path d="m 40.03 7.531 c 3.712 4.084 5.969 9.514 5.969 15.469 0 12.703 -10.297 23 -23 23 c -5.954 0 -11.384 -2.256 -15.469 -5.969 4.178 4.291 10.01 6.969 16.469 6.969 c 12.703 0 23 -10.298 23 -23 0 -6.462 -2.677 -12.291 -6.969 -16.469 z" style="opacity:0.1"/>
 </g>
 <g transform="translate(1,1.000001)" style="fill:#000;opacity:0.1">
  <g>
   <g transform="matrix(1,0,0,1.1666667,32.5,-12.479167)">
    <rect width="12" height="0.857" x="-14" y="26.982" style="fill-opacity:1;stroke:none;fill-rule:nonzero"/>
    <path d="m -13 20.12 10 0 l -1 6.875 l -8 0 z" style="fill-opacity:1;stroke:none;fill-rule:nonzero"/>
   </g>
  </g>
  <g>
   <rect y="20" x="17" height="14" width="15" style="fill-opacity:1;stroke:none;fill-rule:nonzero"/>
  </g>
  <g>
   <path d="m 18.364 34 12.273 0 1.364 3 -15 0 z" style="fill-opacity:1;stroke:none;fill-rule:nonzero"/>
  </g>
 </g>
 <g>
  <g>
   <g transform="matrix(1,0,0,1.1666667,32.5,-12.479167)" style="fill:#502d16">
    <rect y="26.982" x="-14" height="0.857" width="12" style="fill-opacity:1;stroke:none;fill-rule:nonzero"/>
    <path d="m -13 20.12 10 0 l -1 6.875 l -8 0 z" style="fill-opacity:1;stroke:none;fill-rule:nonzero"/>
   </g>
   <path d="m 20.335 18 8.302 0 -0.137 1 -8 0 z" style="fill:#c87137;fill-opacity:1;stroke:none;fill-rule:nonzero"/>
   <path d="m 23 19 0 -2 3 0 0 2 -1 0 0 -1 -1 0.027 l 0 0.973" style="fill:#fc0;stroke:none"/>
  </g>
  <g>
   <rect width="15" height="14" x="17" y="20" style="fill:#f9f9f9;fill-opacity:1;stroke:none;fill-rule:nonzero"/>
   <rect width="1.154" height="14" x="30.846" y="20" style="fill:#000;opacity:0.1;fill-opacity:1;stroke:none;fill-rule:nonzero"/>
   <rect width="1.875" height="4.687" x="18.875" y="29.31" style="fill:#afdde9;fill-opacity:1;stroke:none;fill-rule:nonzero"/>
   <rect y="29.31" x="28.25" height="4.687" width="1.875" style="fill:#afdde9;fill-opacity:1;stroke:none;fill-rule:nonzero"/>
   <path d="m 17 31.656 0 0.469 15 0 0 -0.469 z" style="visibility:visible;fill:#4d4d4d;fill-opacity:1;stroke:none;display:inline;color:#000"/>
   <ellipse transform="matrix(0.62499994,0,0,0.23437499,30.75,24.156248)" cx="-17.5" cy="22" rx="1.5" ry="4" style="fill:#333;fill-opacity:1;stroke:none;fill-rule:nonzero"/>
   <ellipse transform="matrix(0.62499994,0,0,0.23437499,40.124999,24.156248)" cx="-17.5" cy="22" rx="1.5" ry="4" style="fill:#333;fill-opacity:1;stroke:none;fill-rule:nonzero"/>
   <path d="m 19.561 29.379 c 0.193 0.236 0.649 0.228 0.43 0.408 -0.22 0.18 -0.554 0.135 -0.747 -0.1 -0.193 -0.236 -0.171 -0.572 0.049 -0.753 0.22 -0.18 0.076 0.209 0.269 0.445 z" style="fill:#f9f9f9;fill-opacity:1;stroke:none;fill-rule:nonzero"/>
   <path d="m 28.936 29.379 c 0.193 0.236 0.649 0.228 0.43 0.408 -0.22 0.18 -0.554 0.135 -0.747 -0.1 -0.193 -0.236 -0.171 -0.572 0.049 -0.753 0.22 -0.18 0.076 0.209 0.269 0.445 z" style="fill:#f9f9f9;fill-opacity:1;stroke:none;fill-rule:nonzero"/>
  </g>
  <g>
   <path d="m 18.364 34 12.273 0 1.364 3 -15 0 z" style="fill:#502d16;fill-opacity:1;stroke:none;fill-rule:nonzero"/>
   <path d="m 21.773 34 -3.409 0 6.136 3 z" style="fill:#c87137;stroke:none"/>
   <path d="m 27.23 34 3.409 0 -6.136 3 z" style="fill:#c87137;stroke:none"/>
   <path d="m 24.5 37 0 0 2.727 -3 -5.455 0 z" style="fill:#e9c6af;stroke:none"/>
   <path d="m 23.14 34 c 1.364 2.25 1.364 2.25 2.727 0 z" style="fill:#f00;stroke:none"/>
   <path d="m 21.09 34.75 -1.364 1.5 3.409 0 z" style="fill:#c87137;stroke:none"/>
   <path d="m 27.909 34.75 1.364 1.5 -3.409 0 z" style="fill:#c87137;stroke:none"/>
  </g>
 </g>
</svg>
