<svg version="1.1" viewBox="0 0 48 48" xmlns="http://www.w3.org/2000/svg">
 <defs>
  <linearGradient id="bg" x1="1" x2="47" gradientTransform="matrix(0 -1 1 0 -1.5e-6 48)" gradientUnits="userSpaceOnUse">
   <stop style="stop-color:#b2242e" offset="0"/>
   <stop style="stop-color:#c42732" offset="1"/>
  </linearGradient>
 </defs>
 <path d="m36.3 5c5.86 4.06 9.69 10.8 9.69 18.5 0 12.4-10.1 22.5-22.5 22.5-7.67 0-14.4-3.83-18.5-9.69 1.04 1.82 2.31 3.5 3.78 4.97 4.08 3.71 9.51 5.97 15.5 5.97 12.7 0 23-10.3 23-23 0-5.95-2.26-11.4-5.97-15.5-1.47-1.48-3.15-2.74-4.97-3.78zm4.97 3.78c3.85 4.11 6.22 9.64 6.22 15.7 0 12.7-10.3 23-23 23-6.08 0-11.6-2.36-15.7-6.22 4.16 4.14 9.88 6.72 16.2 6.72 12.7 0 23-10.3 23-23 0-6.34-2.58-12.1-6.72-16.2z" style="opacity:.05"/>
 <path d="m41.3 8.78c3.71 4.08 5.97 9.51 5.97 15.5 0 12.7-10.3 23-23 23-5.95 0-11.4-2.26-15.5-5.97 4.11 3.85 9.64 6.22 15.7 6.22 12.7 0 23-10.3 23-23 0-6.08-2.36-11.6-6.22-15.7z" style="opacity:.1"/>
 <path d="m31.2 2.38c8.62 3.15 14.8 11.4 14.8 21.1 0 12.4-10.1 22.5-22.5 22.5-9.71 0-18-6.14-21.1-14.8a23 23 0 0 0 44.9-7 23 23 0 0 0-16-21.9z" style="opacity:.2"/>
 <path d="m24 1c12.7 0 23 10.3 23 23s-10.3 23-23 23-23-10.3-23-23 10.3-23 23-23z" style="fill:url(#bg)"/>
 <path d="m40 7.53c3.71 4.08 5.97 9.51 5.97 15.5 0 12.7-10.3 23-23 23-5.95 0-11.4-2.26-15.5-5.97 4.18 4.29 10 6.97 16.5 6.97 12.7 0 23-10.3 23-23 0-6.46-2.68-12.3-6.97-16.5z" style="opacity:.1"/>
 <path d="m25 9s-2.2 4.26-5.58 8.61c0 0-2.16-1.22-3.59-1.22-1.15 0-1.17 0.673-1.17 0.93 0 0.498 0.166 2.05 1.81 3.94 0 0-1.1 1.41-3.48 3.73 0 0 1.7 1.66 2.07 2.17 0 0-0.396 0.24-0.371 0.529s1.9 1.18 1.9 1.18l0.617 0.771s-0.173 0.914 0.789 0.986c0 0 4.26 5.17 7 10.4 0 0 2.98-5.34 6.73-10.1 0 0 1.31 0.145 1.93 0.145s2.3-0.191 2.3-0.793c0-0.601-1.68-1.93-1.68-1.93s0.594-0.241 0.594-0.578c0-0.265-0.125-0.336-0.125-0.336s1.42-1.65 2.26-2.41c0 0-7.36-7.25-12-16zm-2e-3 2h2e-3c0.477 1.04 2.19 3.69 2.19 3.69l-1.8 5.82-2.04-0.111-2.64-2.68c2.19-2.71 4.28-6.72 4.28-6.72zm2.45 4.19 3.03 4.22 0.623 3.29-5.23-0.227zm-11.3 1.79c2.58 0 10.6 6.63 10.6 6.63s1.16-0.377 1.31-0.377c0.181-0.076 0.441-0.19 0.545-0.236 0.025-0.011 0.058-1e-3 0.072 0.021l0.061 0.096c0.014 0.023 8e-3 0.048-0.018 0.059l-0.604 0.244c-0.074 0.064-0.939 0.539-0.939 0.539l0.855 0.648s3.56-1.53 4.12-1.53c0.189 0 0.361 0.064 0.361 0.064s-1.56-3.13-1.42-3.2c0.767 0.94 1.45 2.1 1.9 3.18h0.408c1.08 0 0.902 0.48 0.902 0.48s0.434-0.064 0.434 0.068c0 0.285-0.771 0.379-0.771 0.379l-0.551 0.607s0.199-0.164 0.199 1.59c0 1.4-0.072 1.64-0.104 1.68l0.854-0.248c0.067-0.02 0.089 0.083 0.063 0.096l-1.21 0.572s2.12 1.28 2.12 1.83c0 0.369-1.33 0.385-1.33 0.385-4.06 0-7.85-1.67-8.35-1.67s-3.78 0.561-3.78 0.561 0.131 0.081 0.131 0.242c0 0.16-0.247 0.271-0.559 0.271-0.313 0-1.28-0.24-1.28-0.24-0.198 0.08-1.47 0.273-1.78 0.273s-0.428-0.163-0.428-0.451c0-0.289 0.1-0.687 0.1-0.688 0 0-0.229-0.015-0.344-0.031-0.321-0.104-2.03-0.924-2.03-1.2 0-0.136 0.09-0.311 0.805-0.311 0.716 0 1.83 0.271 1.83 0.271s0.237-0.994 0.797-0.994 0.584 1.21 0.773 1.35c0.189 0.144 1.82-0.897 2.8-1.24-0.658-0.433-7.24-6.34-7.24-9.01 0-0.064-0.076-0.715 0.73-0.715zm0.315 0.273c-0.329 0-0.566 0.184-0.582 0.393-0.016 0.208 0.297 0.738 0.297 0.738-0.155-0.994 0.641-0.914 0.641-0.914 1.73 0 7.04 4.48 7.04 4.48l0.246-0.096c-5.05-4.27-7.31-4.6-7.64-4.6zm-0.729 0.678c-0.01-0.025-0.019-0.022-0.016 4e-3 0.039 0.429 0.724 1.9 1.53 2.94l0.643 0.127s-0.233-0.383-0.266-0.592c0 0-1.31-0.961-1.89-2.48zm1.24 0.941v0.031c0.016 0.922 0.624 0.962 0.773 1.28 0.106 0.535 0.451 1.06 0.813 1.23s1.04 0.127 1.04 0.127zm0.418 2.22s0.625 0.881 0.789 0.994c0.165 0.112 0.807 0.063 0.807 0.063l-0.951-0.977c-0.28 0.016-0.645-0.08-0.645-0.08zm1.42 0.631s1.36 1.25 1.74 1.52c0 0 0.808 0.136 1.17 0.031 0 0-1.57-1.13-1.9-1.56zm5.52 0.365-0.113 0.068c-0.023 0.014-0.026 0.04-6e-3 0.059l0.131 0.115c0.02 0.018 0.058 0.026 0.082 0.014l0.146-0.074c0.024-0.012 0.025-0.032 4e-3 -0.049l-0.164-0.129c-0.021-0.017-0.056-0.018-0.08-4e-3zm-5.51 0.217c-0.191-2e-3 -0.393 0.02-0.434 0.068l1.4 1.46s0.657 0.26 1.36 0.18l-1.96-1.7zm-1.74 0.053 3.94 3.64-4.87 0.576-1.58-1.57c0.774-0.625 2.52-2.65 2.52-2.65zm7.74 0.139-0.127 0.051c-0.025 0.01-0.029 0.036-0.01 0.053l1.46 1.28c0.02 0.018 0.032 0.055 0.031 0.082-3e-3 0.09 8e-3 0.283 0.146 0.4 0.139 0.117 0.34 0.144 0.432 0.15 0.027 2e-3 0.066 0.015 0.086 0.033l0.814 0.707c0.02 0.018 0.055 0.022 0.08 0.01l0.234-0.113c0.024-0.012 0.026-0.034 6e-3 -0.053l-0.766-0.684c-0.02-0.018-0.037-0.051-0.035-0.078 0.052-0.053-0.038-0.098-0.039-0.102-0.117 0.03-0.418 0.097-0.537-8e-3 -0.135-0.121-0.188-0.277-0.188-0.445 0-0.027-0.016-0.063-0.037-0.08l-1.47-1.2c-0.02-0.016-0.054-0.019-0.078-0.01zm7.29 0.66c-0.121 0-0.605 0.195-0.756 0.256-0.025 0.01-0.028 0.035-0.01 0.053 0.041 0.04 0.104 0.112 0.104 0.176 0 0.225-0.493 0.353-0.674 0.561s-1.1 1.09-1.1 1.8c0 0.19 0.023 0.249 0.066 0.32 0.014 0.023 0.036 0.024 0.055 4e-3 0.257-0.276 1.43-0.818 1.66-0.975 0.224-0.157 0.763-0.708 1.08-0.883 0.024-0.013 0.036-0.043 0.027-0.068-0.052-0.151-0.207-0.652-0.133-1.04 5e-3 -0.026-5e-3 -0.06-0.027-0.076-0.061-0.047-0.186-0.131-0.289-0.131zm1.36 0.074 2e-3 2e-3c-0.254-7e-3 -0.514 0.031-0.514 0.031s-0.031 0.27-0.393 0.158c0 0-0.124 0.595 0.246 0.916 0 0 1.12-0.506 1.15-0.867 0.012-0.18-0.237-0.233-0.492-0.24zm-11.6 0.184-1.14 0.057c0.693 0.598 3.32 2.45 3.32 2.45-0.181-0.706 0.418-1.26 0.418-1.26-1.46-0.257-2.6-1.24-2.6-1.24zm9.06 0.057-0.311 0.131c-0.026 0.011-0.029 0.031-8e-3 0.049l0.219 0.189c0.021 0.018 0.06 0.023 0.086 0.014l0.354-0.121c0.026-9e-3 0.029-0.028 8e-3 -0.045l-0.262-0.203c-0.022-0.017-0.06-0.024-0.086-0.014zm-0.574 0.227-0.334 0.139c-0.028 0.012-0.032 0.034-0.01 0.053 0.079 0.067 0.236 0.201 0.236 0.201 0.023 0.019 0.062 0.029 0.09 0.02l0.379-0.131c0.028-0.01 0.032-0.031 0.01-0.049l-0.279-0.219c-0.023-0.018-0.065-0.025-0.092-0.014zm-0.623 0.264-0.354 0.143c-0.029 0.012-0.033 0.036-0.01 0.057 0.083 0.071 0.167 0.142 0.25 0.213 0.024 0.02 0.068 0.028 0.098 0.018l0.398-0.135c0.03-0.01 0.034-0.034 0.01-0.053l-0.297-0.23c-0.025-0.019-0.067-0.023-0.096-0.012zm-8.43 0.158c-0.227 0.097-0.953 0.086-1.15 0.082-0.027-1e-3 -0.033 0.013-0.012 0.029l0.355 0.275 1.02-0.193zm9.21 0.063c-0.182 0.079-0.862 0.371-1.03 0.371-0.143 0-0.284-0.078-0.35-0.121-0.023-0.015-0.061-0.019-0.086-0.01l-0.729 0.281c-0.025 0.01-0.031 0.035-0.014 0.055 0.102 0.116 0.423 0.473 0.564 0.551 0.024 0.013 0.061 3e-3 0.082-0.016 0.606-0.523 1.06-0.382 1.58-1.09 0.016-0.022 7e-3 -0.031-0.018-0.02zm4.22 0.1 0.689 0.723-1.28 1.28-0.279-1.41zm-13.2 0.076-0.867 0.293c-0.026 9e-3 -0.033 0.03-0.014 0.049 0.012 0.012 0.88 0.913 1.12 1.02s1.34 0.419 1.72 0.217c0.024-0.013 0.044-0.048 0.029-0.07-0.163-0.245-1.64-1.31-1.9-1.5-0.022-0.016-0.062-0.02-0.088-0.012zm3.72 0.311c-0.896 0-0.825 1.02-0.797 1.25 3e-3 0.026 0.013 0.027 0.023 2e-3 0.094-0.256 0.601-1.47 1.44-0.631 0.019 0.019 0.032 0.013 0.029-0.014-0.014-0.151-0.104-0.607-0.695-0.607zm4.62 0.238c-7e-3 -2e-3 -0.015 1e-3 -0.018 2e-3 -0.241 0.124-0.535 0.374-0.744 0.541-0.021 0.017-0.011 0.056 0.01 0.074l0.289 0.252c0.02 0.018 0.046 0.013 0.055-0.012 0.046-0.125 0.195-0.484 0.41-0.834 9e-3 -0.015 5e-3 -0.022-2e-3 -0.023zm2.84 0.449c-0.313 0.609-1.81 1.49-1.81 1.49 0.444 0.337 1.81 1.22 1.81 1.22l0.5-0.127c-0.403-0.545-0.5-2.58-0.5-2.58zm-4.48 0.035c-0.105 0.015-0.342 0.054-0.303 0.125 0.08 0.229 1.2 0.613 1.27 1.23 0 0 0.086-0.151 0.086-0.295 0-0.141-0.333-0.622-0.967-1.04-0.023-0.015-0.061-0.023-0.088-0.02zm-6.14 0.596c-0.02-8e-3 -0.032 0-0.014 0.018l0.232 0.215c0.019 0.018 0.053 0.028 0.078 0.018l0.221-0.09c0.025-0.01 0.023-0.02-4e-3 -0.023-0.148-0.017-0.418-0.1-0.514-0.137zm1.45 0.125s-0.723 0.207-1.02 0.271c0 0 0.807 0.609 0.906 0.754 0 0 0.129-0.367 0.113-1.02zm2.49 0.031c-1.09-0.071-2.18 0.891-2.15 0.979s-0.019 0.08 0.359 0.08c0.379 0 1.02-0.238 1.29-0.238s1.32 0.697 1.5 0.729 0.328-0.506 0.328-0.506-0.132 0.305-0.322 0.305c-0.189 0-1.05-0.64-1.1-0.744-0.049-0.104 0.084-0.604 0.084-0.604zm-7.08 0.633c-0.263 0-0.503 0.606-0.594 0.775-0.013 0.024-4e-3 0.056 0.02 0.068 0.015 8e-3 0.045 0.027 0.07 0.035 0.026 9e-3 0.069 2e-3 0.09-0.014 0.128-0.095 0.449-0.443 0.635-0.498 0.026-8e-3 0.044-0.028 0.037-0.053-0.029-0.101-0.123-0.314-0.258-0.314zm3.66 0.125c-0.368 0.158-1.1 0.508-1.1 0.508-0.131 0.107-0.561 0.486-0.676 0.98-6e-3 0.026 0.011 0.04 0.037 0.031 0.743-0.305 1.88-0.608 2.54-0.52 0.027 4e-3 0.041-0.012 0.029-0.037-0.07-0.155-0.375-0.724-0.744-0.957zm8.1 0.117-0.385 0.168 1.96 1.31s0.048 0.425 0.369 0.441 0.463-0.096 0.463-0.096l0.779 0.271-0.73-0.465s-0.107 0.117-0.379 0.117-0.287-0.453-0.287-0.453zm-11.5 0.219-0.533 0.42c-0.024 0.019-0.023 0.045 6e-3 0.057l0.77 0.277c0.029 0.012 0.04 3e-3 0.025-0.023-0.134-0.114-0.21-0.442-0.229-0.709zm1.97 0.316c-0.478 0.218-1.02 0.513-1.37 0.578-0.505 0.096-0.84 0.674-0.84 0.674 0.181 0.064 1.46-0.225 1.46-0.225 0.082-0.321 0.742-1.03 0.742-1.03zm6.24 1.21c-0.156-0.016-0.987 0.102-0.996 0.15-8e-3 0.048 0.517 0.275 0.781 0.307 0.263 0.032 0.848-0.119 0.848-0.119s-0.477-0.322-0.633-0.338zm1.1 0.508c-0.101-5e-3 -0.633 0.102-0.637 0.133s0.345 0.159 0.516 0.172c0.171 0.012 0.543-0.107 0.543-0.107s-0.32-0.191-0.422-0.197zm0.83 0.262-0.408 0.162s1.76 0.395 2.14 0.395zm-4.87 0.088 1.76 0.035c0.477 0.369 3.17 2.42 3.17 2.42-2.06 2.71-4.44 6.92-4.44 6.92l-2.31-3.92zm3.59 0.578 2.43 0.387c-0.23 0.225-0.902 1.2-0.902 1.2zm-4.77 0.578-0.807 4.01c-0.708-1.12-2.77-3.88-2.77-3.88z" style="opacity:.1"/>
 <path d="m24 8s-2.2 4.26-5.58 8.61c0 0-2.16-1.22-3.59-1.22-1.15 0-1.17 0.673-1.17 0.93 0 0.498 0.166 2.05 1.81 3.94 0 0-1.1 1.41-3.48 3.73 0 0 1.7 1.66 2.07 2.17 0 0-0.396 0.24-0.371 0.529s1.9 1.18 1.9 1.18l0.617 0.771s-0.173 0.914 0.789 0.986c0 0 4.26 5.17 7 10.4 0 0 2.98-5.34 6.73-10.1 0 0 1.31 0.145 1.93 0.145s2.3-0.191 2.3-0.793c0-0.601-1.68-1.93-1.68-1.93s0.594-0.241 0.594-0.578c0-0.265-0.125-0.336-0.125-0.336s1.42-1.65 2.26-2.41c0 0-7.36-7.25-12-16m-2e-3 2h2e-3c0.477 1.04 2.19 3.69 2.19 3.69l-1.8 5.82-2.04-0.111-2.64-2.68c2.19-2.71 4.28-6.72 4.28-6.72m2.45 4.19 3.03 4.22 0.623 3.29-5.23-0.227m-9.76-5.49c2.58 0 10.6 6.63 10.6 6.63s1.16-0.377 1.31-0.377c0.181-0.076 0.441-0.19 0.545-0.236 0.025-0.011 0.058-1e-3 0.072 0.021l0.061 0.096c0.014 0.023 8e-3 0.048-0.018 0.059l-0.604 0.244c-0.074 0.064-0.939 0.539-0.939 0.539l0.855 0.648s3.56-1.53 4.12-1.53c0.189 0 0.361 0.064 0.361 0.064s-1.56-3.13-1.42-3.2c0.767 0.94 1.45 2.1 1.9 3.18h0.408c1.08 0 0.902 0.48 0.902 0.48s0.434-0.064 0.434 0.068c0 0.285-0.771 0.379-0.771 0.379l-0.551 0.607s0.199-0.164 0.199 1.59c0 1.4-0.072 1.64-0.104 1.68l0.854-0.248c0.067-0.02 0.089 0.083 0.063 0.096l-1.21 0.572s2.12 1.28 2.12 1.83c0 0.369-1.33 0.385-1.33 0.385-4.06 0-7.85-1.67-8.35-1.67s-3.78 0.561-3.78 0.561 0.131 0.081 0.131 0.242c0 0.16-0.247 0.271-0.559 0.271-0.313 0-1.28-0.24-1.28-0.24-0.198 0.08-1.47 0.273-1.78 0.273s-0.428-0.163-0.428-0.451c0-0.289 0.1-0.687 0.1-0.688 0 0-0.229-0.015-0.344-0.031-0.321-0.104-2.03-0.924-2.03-1.2 0-0.136 0.09-0.311 0.805-0.311 0.716 0 1.83 0.271 1.83 0.271s0.237-0.994 0.797-0.994 0.584 1.21 0.773 1.35c0.189 0.144 1.82-0.897 2.8-1.24-0.658-0.433-7.24-6.34-7.24-9.01 0-0.064-0.076-0.715 0.73-0.715zm0.315 0.273c-0.329 0-0.566 0.184-0.582 0.393-0.016 0.208 0.297 0.738 0.297 0.738-0.155-0.994 0.641-0.914 0.641-0.914 1.73 0 7.04 4.48 7.04 4.48l0.246-0.096c-5.05-4.27-7.31-4.6-7.64-4.6m-0.729 0.678c-0.01-0.025-0.019-0.022-0.016 4e-3 0.039 0.429 0.724 1.9 1.53 2.94l0.643 0.127s-0.233-0.383-0.266-0.592c0 0-1.31-0.961-1.89-2.48zm1.24 0.941v0.031c0.016 0.922 0.624 0.962 0.773 1.28 0.106 0.535 0.451 1.06 0.813 1.23s1.04 0.127 1.04 0.127zm0.418 2.22s0.625 0.881 0.789 0.994c0.165 0.112 0.807 0.063 0.807 0.063l-0.951-0.977c-0.28 0.016-0.645-0.08-0.645-0.08zm1.42 0.631s1.36 1.25 1.74 1.52c0 0 0.808 0.136 1.17 0.031 0 0-1.57-1.13-1.9-1.56zm5.52 0.365-0.113 0.068c-0.023 0.014-0.026 0.04-6e-3 0.059l0.131 0.115c0.02 0.018 0.058 0.026 0.082 0.014l0.146-0.074c0.024-0.012 0.025-0.032 4e-3 -0.049l-0.164-0.129c-0.021-0.017-0.056-0.018-0.08-4e-3zm-5.51 0.217c-0.191-2e-3 -0.393 0.02-0.434 0.068l1.4 1.46s0.657 0.26 1.36 0.18l-1.96-1.7m-2.11 0.049 3.94 3.64-4.87 0.576-1.58-1.57c0.774-0.625 2.52-2.65 2.52-2.65zm7.74 0.139-0.127 0.051c-0.025 0.01-0.029 0.036-0.01 0.053l1.46 1.28c0.02 0.018 0.032 0.055 0.031 0.082-3e-3 0.09 8e-3 0.283 0.146 0.4 0.139 0.117 0.34 0.144 0.432 0.15 0.027 2e-3 0.066 0.015 0.086 0.033l0.814 0.707c0.02 0.018 0.055 0.022 0.08 0.01l0.234-0.113c0.024-0.012 0.026-0.034 6e-3 -0.053l-0.766-0.684c-0.02-0.018-0.037-0.051-0.035-0.078 0.052-0.053-0.038-0.098-0.039-0.102-0.117 0.03-0.418 0.097-0.537-8e-3 -0.135-0.121-0.188-0.277-0.188-0.445 0-0.027-0.016-0.063-0.037-0.08l-1.47-1.2c-0.02-0.016-0.054-0.019-0.078-0.01zm7.29 0.66c-0.121 0-0.605 0.195-0.756 0.256-0.025 0.01-0.028 0.035-0.01 0.053 0.041 0.04 0.104 0.112 0.104 0.176 0 0.225-0.493 0.353-0.674 0.561s-1.1 1.09-1.1 1.8c0 0.19 0.023 0.249 0.066 0.32 0.014 0.023 0.036 0.024 0.055 4e-3 0.257-0.276 1.43-0.818 1.66-0.975 0.224-0.157 0.763-0.708 1.08-0.883 0.024-0.013 0.036-0.043 0.027-0.068-0.052-0.151-0.207-0.652-0.133-1.04 5e-3 -0.026-5e-3 -0.06-0.027-0.076-0.061-0.047-0.186-0.131-0.289-0.131zm1.36 0.074 2e-3 2e-3c-0.254-7e-3 -0.514 0.031-0.514 0.031s-0.031 0.27-0.393 0.158c0 0-0.124 0.595 0.246 0.916 0 0 1.12-0.506 1.15-0.867 0.012-0.18-0.237-0.233-0.492-0.24zm-11.6 0.184-1.14 0.057c0.693 0.598 3.32 2.45 3.32 2.45-0.181-0.706 0.418-1.26 0.418-1.26-1.46-0.257-2.6-1.24-2.6-1.24zm9.06 0.057-0.311 0.131c-0.026 0.011-0.029 0.031-8e-3 0.049l0.219 0.189c0.021 0.018 0.06 0.023 0.086 0.014l0.354-0.121c0.026-9e-3 0.029-0.028 8e-3 -0.045l-0.262-0.203c-0.022-0.017-0.06-0.024-0.086-0.014zm-0.574 0.227-0.334 0.139c-0.028 0.012-0.032 0.034-0.01 0.053 0.079 0.067 0.236 0.201 0.236 0.201 0.023 0.019 0.062 0.029 0.09 0.02l0.379-0.131c0.028-0.01 0.032-0.031 0.01-0.049l-0.279-0.219c-0.023-0.018-0.065-0.025-0.092-0.014zm-0.623 0.264-0.354 0.143c-0.029 0.012-0.033 0.036-0.01 0.057 0.083 0.071 0.167 0.142 0.25 0.213 0.024 0.02 0.068 0.028 0.098 0.018l0.398-0.135c0.03-0.01 0.034-0.034 0.01-0.053l-0.297-0.23c-0.025-0.019-0.067-0.023-0.096-0.012zm-8.43 0.158c-0.227 0.097-0.953 0.086-1.15 0.082-0.027-1e-3 -0.033 0.013-0.012 0.029l0.355 0.275 1.02-0.193zm9.21 0.063c-0.182 0.079-0.862 0.371-1.03 0.371-0.143 0-0.284-0.078-0.35-0.121-0.023-0.015-0.061-0.019-0.086-0.01l-0.729 0.281c-0.025 0.01-0.031 0.035-0.014 0.055 0.102 0.116 0.423 0.473 0.564 0.551 0.024 0.013 0.061 3e-3 0.082-0.016 0.606-0.523 1.06-0.382 1.58-1.09 0.016-0.022 7e-3 -0.031-0.018-0.02zm4.22 0.1 0.689 0.723-1.28 1.28-0.279-1.41zm-13.2 0.076-0.867 0.293c-0.026 9e-3 -0.033 0.03-0.014 0.049 0.012 0.012 0.88 0.913 1.12 1.02s1.34 0.419 1.72 0.217c0.024-0.013 0.044-0.048 0.029-0.07-0.163-0.245-1.64-1.31-1.9-1.5-0.022-0.016-0.062-0.02-0.088-0.012zm3.72 0.311c-0.896 0-0.825 1.02-0.797 1.25 3e-3 0.026 0.013 0.027 0.023 2e-3 0.094-0.256 0.601-1.47 1.44-0.631 0.019 0.019 0.032 0.013 0.029-0.014-0.014-0.151-0.104-0.607-0.695-0.607zm4.62 0.238c-7e-3 -2e-3 -0.015 1e-3 -0.018 2e-3 -0.241 0.124-0.535 0.374-0.744 0.541-0.021 0.017-0.011 0.056 0.01 0.074l0.289 0.252c0.02 0.018 0.046 0.013 0.055-0.012 0.046-0.125 0.195-0.484 0.41-0.834 9e-3 -0.015 5e-3 -0.022-2e-3 -0.023zm2.84 0.449c-0.313 0.609-1.81 1.49-1.81 1.49 0.444 0.337 1.81 1.22 1.81 1.22l0.5-0.127c-0.403-0.545-0.5-2.58-0.5-2.58zm-4.48 0.035c-0.105 0.015-0.342 0.054-0.303 0.125 0.08 0.229 1.2 0.613 1.27 1.23 0 0 0.086-0.151 0.086-0.295 0-0.141-0.333-0.622-0.967-1.04-0.023-0.015-0.061-0.023-0.088-0.02zm-6.14 0.596c-0.02-8e-3 -0.032 0-0.014 0.018l0.232 0.215c0.019 0.018 0.053 0.028 0.078 0.018l0.221-0.09c0.025-0.01 0.023-0.02-4e-3 -0.023-0.148-0.017-0.418-0.1-0.514-0.137zm1.45 0.125s-0.723 0.207-1.02 0.271c0 0 0.807 0.609 0.906 0.754 0 0 0.129-0.367 0.113-1.02zm2.49 0.031c-1.09-0.071-2.18 0.891-2.15 0.979s-0.019 0.08 0.359 0.08c0.379 0 1.02-0.238 1.29-0.238s1.32 0.697 1.5 0.729 0.328-0.506 0.328-0.506-0.132 0.305-0.322 0.305c-0.189 0-1.05-0.64-1.1-0.744-0.049-0.104 0.084-0.604 0.084-0.604zm-7.08 0.633c-0.263 0-0.503 0.606-0.594 0.775-0.013 0.024-4e-3 0.056 0.02 0.068 0.015 8e-3 0.045 0.027 0.07 0.035 0.026 9e-3 0.069 2e-3 0.09-0.014 0.128-0.095 0.449-0.443 0.635-0.498 0.026-8e-3 0.044-0.028 0.037-0.053-0.029-0.101-0.123-0.314-0.258-0.314m3.66 0.125c-0.368 0.158-1.1 0.508-1.1 0.508-0.131 0.107-0.561 0.486-0.676 0.98-6e-3 0.026 0.011 0.04 0.037 0.031 0.743-0.305 1.88-0.608 2.54-0.52 0.027 4e-3 0.041-0.012 0.029-0.037-0.07-0.155-0.375-0.724-0.744-0.957zm8.1 0.117-0.385 0.168 1.96 1.31s0.048 0.425 0.369 0.441 0.463-0.096 0.463-0.096l0.779 0.271-0.73-0.465s-0.107 0.117-0.379 0.117-0.287-0.453-0.287-0.453zm-11.5 0.219-0.533 0.42c-0.024 0.019-0.023 0.045 6e-3 0.057l0.77 0.277c0.029 0.012 0.04 3e-3 0.025-0.023-0.134-0.114-0.21-0.442-0.229-0.709zm1.97 0.316c-0.478 0.218-1.02 0.513-1.37 0.578-0.505 0.096-0.84 0.674-0.84 0.674 0.181 0.064 1.46-0.225 1.46-0.225 0.082-0.321 0.742-1.03 0.742-1.03zm6.24 1.21c-0.156-0.016-0.987 0.102-0.996 0.15-8e-3 0.048 0.517 0.275 0.781 0.307 0.263 0.032 0.848-0.119 0.848-0.119s-0.477-0.322-0.633-0.338zm1.1 0.508c-0.101-5e-3 -0.633 0.102-0.637 0.133s0.345 0.159 0.516 0.172c0.171 0.012 0.543-0.107 0.543-0.107s-0.32-0.191-0.422-0.197zm0.83 0.262-0.408 0.162s1.76 0.395 2.14 0.395zm-4.87 0.088 1.76 0.035c0.477 0.369 3.17 2.42 3.17 2.42-2.06 2.71-4.44 6.92-4.44 6.92l-2.31-3.92zm3.59 0.578 2.43 0.387c-0.23 0.225-0.902 1.2-0.902 1.2zm-4.77 0.578-0.807 4.01c-0.708-1.12-2.77-3.88-2.77-3.88z" style="fill:#f4edec"/>
</svg>
