<svg version="1.1" viewBox="0 0 48 48" xmlns="http://www.w3.org/2000/svg">
 <defs>
  <linearGradient id="bg" x2="0" y1="1" y2="47" gradientUnits="userSpaceOnUse">
   <stop style="stop-color:#21597d" offset="0"/>
   <stop style="stop-color:#1d4e6d" offset="1"/>
  </linearGradient>
 </defs>
 <path d="m36.31 5c5.859 4.062 9.688 10.831 9.688 18.5 0 12.426-10.07 22.5-22.5 22.5-7.669 0-14.438-3.828-18.5-9.688 1.037 1.822 2.306 3.499 3.781 4.969 4.085 3.712 9.514 5.969 15.469 5.969 12.703 0 23-10.298 23-23 0-5.954-2.256-11.384-5.969-15.469-1.469-1.475-3.147-2.744-4.969-3.781zm4.969 3.781c3.854 4.113 6.219 9.637 6.219 15.719 0 12.703-10.297 23-23 23-6.081 0-11.606-2.364-15.719-6.219 4.16 4.144 9.883 6.719 16.219 6.719 12.703 0 23-10.298 23-23 0-6.335-2.575-12.06-6.719-16.219z" style="opacity:.05"/>
 <path d="m41.28 8.781c3.712 4.085 5.969 9.514 5.969 15.469 0 12.703-10.297 23-23 23-5.954 0-11.384-2.256-15.469-5.969 4.113 3.854 9.637 6.219 15.719 6.219 12.703 0 23-10.298 23-23 0-6.081-2.364-11.606-6.219-15.719z" style="opacity:.1"/>
 <path d="m31.25 2.375c8.615 3.154 14.75 11.417 14.75 21.13 0 12.426-10.07 22.5-22.5 22.5-9.708 0-17.971-6.135-21.12-14.75a23 23 0 0 0 44.875-7 23 23 0 0 0-16-21.875z" style="opacity:.2"/>
 <circle cx="24" cy="24" r="23" style="fill:url(#bg)"/>
 <path d="m25 10-4 5h-2l-1.334 2h-6.666l3.1113 5.334-1.1113 1.666 1.2891 2.3633-3.2891 5.6367h6.3633l1.6367 3h2l4 5 4-5h2l1.6367-3h6.3633l-3.2891-5.6367 1.2891-2.3633-1.1113-1.666 3.1113-5.334h-6.666l-1.334-2h-2z" style="opacity:.1"/>
 <path d="m40.03 7.531c3.712 4.084 5.969 9.514 5.969 15.469 0 12.703-10.297 23-23 23-5.954 0-11.384-2.256-15.469-5.969 4.178 4.291 10.01 6.969 16.469 6.969 12.703 0 23-10.298 23-23 0-6.462-2.677-12.291-6.969-16.469z" style="opacity:.1"/>
 <path d="m34.5 22-3.5-6h7z" style="fill:#b3b3b3"/>
 <path d="m24 9-4 5h8z" style="fill:#b3b3b3"/>
 <path d="m24 39-4-5h8z" style="fill:#b3b3b3"/>
 <path d="m34.5 25-3.5 6h7z" style="fill:#b3b3b3"/>
 <path d="m13.5 25-3.5 6h7z" style="fill:#b3b3b3"/>
 <path d="m13.5 22-3.5-6h7z" style="fill:#b3b3b3"/>
 <path d="m18 34h12l6-11-6-9h-12l-6 9z" style="fill:#999"/>
 <path d="m31.408 19.371-7.4082 4.6289v8h5l5-9-2.5918-3.6289z" style="fill:#e10c1f"/>
 <path d="m16.592 19.371-2.5918 3.6289 5 9h5v-8l-7.4082-4.6289z" style="fill:#39b2f9"/>
 <path d="m19 16-2.4082 3.3711 7.4082 4.6289 7.4082-4.6289-2.4082-3.3711h-10z" style="fill:#ccc"/>
 <path d="m25 18c-4 0-5 4-5 4v0.21289c-1.3257 0.549-2 2.1588-2 3.7871 0 2 1 4 3 4 1 0 1-1 1-1v-6s0-1-1-1c0 0 1-3 4-3s4 3 4 3c-1 0-1 1-1 1v6s0 1 1 1h-2c-0.554 0-1 0.446-1 1s0.446 1 1 1 1-0.446 1-1c1 0 2-1 2-1 1.0689-1.1849 1.977-2.5464 2-4 0-1.6283-0.67432-3.2381-2-3.7871v-0.21289s-1-4-5-4zm-1 3v6h2v-6h-2zm0 7v2h2v-2h-2z" style="opacity:.1;paint-order:stroke fill markers"/>
 <path d="m24 17c-4 0-5 4-5 4v0.21289c-1.3257 0.549-2 2.1588-2 3.7871 0 2 1 4 3 4 1 0 1-1 1-1v-6s0-1-1-1c0 0 1-3 4-3s4 3 4 3c-1 0-1 1-1 1v6s0 1 1 1h-2c-0.554 0-1 0.446-1 1s0.446 1 1 1 1-0.446 1-1c1 0 2-1 2-1 1.0689-1.1849 1.977-2.5464 2-4 0-1.6283-0.67432-3.2381-2-3.7871v-0.21289s-1-4-5-4zm-1 3v6h2v-6z" style="fill:#f9f9f9;paint-order:stroke fill markers"/>
 <rect x="23" y="27" width="2" height="2" style="fill:#fff;paint-order:stroke fill markers"/>
</svg>
