<svg version="1.1" viewBox="0 0 48 48" xmlns="http://www.w3.org/2000/svg" xmlns:xlink="http://www.w3.org/1999/xlink">
 <defs>
  <linearGradient id="bg" x2="0" y1="1" y2="47" gradientUnits="userSpaceOnUse">
   <stop style="stop-color:#464646" offset="0"/>
   <stop style="stop-color:#3c3c3c" offset="1"/>
  </linearGradient>
  <linearGradient id="linearGradient1279" x2="0" y1="1" y2="47" gradientUnits="userSpaceOnUse">
   <stop style="stop-color:#525252" offset="0"/>
   <stop style="stop-color:#474747" offset="1"/>
  </linearGradient>
 </defs>
 <path d="m36.31 5c5.859 4.062 9.688 10.831 9.688 18.5 0 12.426-10.07 22.5-22.5 22.5-7.669 0-14.438-3.828-18.5-9.688 1.037 1.822 2.306 3.499 3.781 4.969 4.085 3.712 9.514 5.969 15.469 5.969 12.703 0 23-10.298 23-23 0-5.954-2.256-11.384-5.969-15.469-1.469-1.475-3.147-2.744-4.969-3.781zm4.969 3.781c3.854 4.113 6.219 9.637 6.219 15.719 0 12.703-10.297 23-23 23-6.081 0-11.606-2.364-15.719-6.219 4.16 4.144 9.883 6.719 16.219 6.719 12.703 0 23-10.298 23-23 0-6.335-2.575-12.06-6.719-16.219z" style="opacity:.05"/>
 <path d="m41.28 8.781c3.712 4.085 5.969 9.514 5.969 15.469 0 12.703-10.297 23-23 23-5.954 0-11.384-2.256-15.469-5.969 4.113 3.854 9.637 6.219 15.719 6.219 12.703 0 23-10.298 23-23 0-6.081-2.364-11.606-6.219-15.719z" style="opacity:.1"/>
 <path d="m31.25 2.375c8.615 3.154 14.75 11.417 14.75 21.13 0 12.426-10.07 22.5-22.5 22.5-9.708 0-17.971-6.135-21.12-14.75a23 23 0 0 0 44.875-7 23 23 0 0 0-16-21.875z" style="opacity:.2"/>
 <g style="fill:url(#bg)">
  <path d="m24 1c12.703 0 23 10.297 23 23s-10.297 23-23 23-23-10.297-23-23 10.297-23 23-23z" style="fill:url(#linearGradient1279)"/>
 </g>
 <path d="m40.03 7.531c3.712 4.084 5.969 9.514 5.969 15.469 0 12.703-10.297 23-23 23-5.954 0-11.384-2.256-15.469-5.969 4.178 4.291 10.01 6.969 16.469 6.969 12.703 0 23-10.298 23-23 0-6.462-2.677-12.291-6.969-16.469z" style="opacity:.1"/>
 <g transform="matrix(1.0014 0 0 1 .98975 1)" style="opacity:.1">
  <path d="m36.965 24c0 7.18-5.812 13-12.982 13s-12.982-5.82-12.982-13 5.812-13 12.982-13 12.982 5.82 12.982 13z"/>
 </g>
 <path d="m24 11c-6.0762 0-11.176 4.1696-12.602 9.8027l12.602 3.1973 12.602-3.1973c-1.4251-5.6332-6.5254-9.8027-12.602-9.8027zm0 16-11.197 3.6016c2.2621 3.8285 6.4282 6.3984 11.197 6.3984s8.9352-2.5699 11.197-6.3984z" style="fill:#e9ddaf"/>
 <path d="m24 27-11.197 3.6016c0.05265 0.08911 0.11132 0.17399 0.16602 0.26172 1.2728 1.3165 3.0555 2.1367 5.0312 2.1367 4 0 5-3 7-3s3 3 7 3c0.52494 0 1.0354-0.06038 1.5273-0.16992 0.63092-0.68083 1.1949-1.4245 1.6699-2.2285zm1 6-2 2h4z" style="opacity:.1"/>
 <path d="m17 18c-2.2909 0-4.3246 1.1015-5.6016 2.8027-0.25888 1.0233-0.39844 2.0935-0.39844 3.1973 0 2.4109 0.65922 4.6662 1.8027 6.6016 1.1696 0.87793 2.6222 1.3984 4.1973 1.3984 4 0 5-3 7-3s3 3 7 3c1.575 0 3.0276-0.52051 4.1973-1.3984 1.1435-1.9354 1.8027-4.1907 1.8027-6.6016 0-1.1038-0.13956-2.174-0.39844-3.1973-1.277-1.7012-3.3106-2.8027-5.6016-2.8027-4 0-5 3-7 3s-3-3-7-3z" style="fill:#5a6751"/>
 <path d="m17 20c-2.7614 0-5 2.2385-5 5s2.2386 5 5 5 5-2.2385 5-5-2.2386-5-5-5zm14 0c-2.7614 0-5 2.2385-5 5s2.2386 5 5 5 5-2.2385 5-5-2.2386-5-5-5z" style="fill:#a2f66a"/>
 <path d="m24 32-2 2h4z" style="fill:#3d3d3d"/>
</svg>
