<svg version="1.1" viewBox="0 0 48 48" xmlns="http://www.w3.org/2000/svg">
 <defs>
  <linearGradient id="bg" x2="0" y1="1" y2="47" gradientUnits="userSpaceOnUse">
   <stop style="stop-color:#eee" offset="0"/>
   <stop style="stop-color:#e4e4e4" offset="1"/>
  </linearGradient>
 </defs>
 <path d="m36.31 5c5.859 4.062 9.688 10.831 9.688 18.5 0 12.426-10.07 22.5-22.5 22.5-7.669 0-14.438-3.828-18.5-9.688 1.037 1.822 2.306 3.499 3.781 4.969 4.085 3.712 9.514 5.969 15.469 5.969 12.703 0 23-10.298 23-23 0-5.954-2.256-11.384-5.969-15.469-1.469-1.475-3.147-2.744-4.969-3.781zm4.969 3.781c3.854 4.113 6.219 9.637 6.219 15.719 0 12.703-10.297 23-23 23-6.081 0-11.606-2.364-15.719-6.219 4.16 4.144 9.883 6.719 16.219 6.719 12.703 0 23-10.298 23-23 0-6.335-2.575-12.06-6.719-16.219z" style="opacity:.05"/>
 <path d="m41.28 8.781c3.712 4.085 5.969 9.514 5.969 15.469 0 12.703-10.297 23-23 23-5.954 0-11.384-2.256-15.469-5.969 4.113 3.854 9.637 6.219 15.719 6.219 12.703 0 23-10.298 23-23 0-6.081-2.364-11.606-6.219-15.719z" style="opacity:.1"/>
 <path d="m31.25 2.375c8.615 3.154 14.75 11.417 14.75 21.13 0 12.426-10.07 22.5-22.5 22.5-9.708 0-17.971-6.135-21.12-14.75a23 23 0 0 0 44.875-7 23 23 0 0 0-16-21.875z" style="opacity:.2"/>
 <circle cx="24" cy="24" r="23" style="fill:url(#bg)"/>
 <path d="m24 14c-1 0-2.2474 1.0902-2 2 0.13302 0.48907 1.4707 0.38281 1.4707 0.38281s-0.46018-0.18068-0.4707-0.38281c-0.024503-0.47077 0.5286-1 1-1s1 0.5286 1 1-0.5508 0.85703-1 1c-4.4662 1.4215-10 2-10 6a11 5 0 0 0 2.0742 2.9102 9 9 0 0 0-0.074219 1.0898 9 9 0 0 0 9 9 9 9 0 0 0 9-9 9 9 0 0 0-0.078125-1.084 11 5 0 0 0 2.0781-2.916c0-4-4-5-8-6-0.7231-0.18078-2-0.25464-2-1 0-1-1-2-2-2z" style="opacity:.1;paint-order:stroke fill markers"/>
 <path d="m40.03 7.531c3.712 4.084 5.969 9.514 5.969 15.469 0 12.703-10.297 23-23 23-5.954 0-11.384-2.256-15.469-5.969 4.178 4.291 10.01 6.969 16.469 6.969 12.703 0 23-10.298 23-23 0-6.462-2.677-12.291-6.969-16.469z" style="opacity:.1"/>
 <ellipse cx="24" cy="22" rx="11" ry="5" style="fill:#2d2d2d;paint-order:stroke fill markers"/>
 <circle cx="24" cy="26" r="9" style="fill:#f36f27;paint-order:stroke fill markers"/>
 <path d="m13 22s7-2 11-2 11 2 11 2-6-4-11-4c-4 0-11 4-11 4z" style="fill:#2d2d2d"/>
 <path d="m13 22c0-4 5.5338-4.5785 10-6 0.4492-0.14297 1-0.5286 1-1s-0.5286-1-1-1-1.0245 0.52923-1 1c0.01052 0.20213 0.47161 0.38247 0.47161 0.38247s-1.3386 0.1066-1.4716-0.38247c-0.24744-0.90976 1-2 2-2s2 1 2 2c0 0.74536 1.2769 0.81922 2 1 4 1 8 2 8 6-2-1-11-3-11-3s-8 2-11 3z" style="fill:#2d2d2d"/>
 <path d="m19.5 22a2.5 2.5 0 0 0-2.5 2.5 2.5 2.5 0 0 0 0.43555 1.4102h4.127a2.5 2.5 0 0 0 0.4375-1.4102 2.5 2.5 0 0 0-2.5-2.5zm9 0a2.5 2.5 0 0 0-2.5 2.5 2.5 2.5 0 0 0 0.43555 1.4102h4.127a2.5 2.5 0 0 0 0.4375-1.4102 2.5 2.5 0 0 0-2.5-2.5z" style="fill:#f9f9f9;paint-order:stroke fill markers"/>
 <circle cx="19.5" cy="24.5" r=".5" style="fill:#2d2d2d;paint-order:stroke fill markers"/>
 <circle cx="28.5" cy="24.5" r=".5" style="fill:#2d2d2d;paint-order:stroke fill markers"/>
 <path d="m20 28c1 0 2 1 4 1s3-1 4-1 2 1 2 2c0 2-4 3-6 3s-6-1-6-3c0-1 1-2 2-2z" style="fill:#fef784"/>
 <path d="m19 30c0-0.4714 0.5286-1 1-1 2 0 2 1 4 1s2-1 4-1c0.4714 0 1 0.5286 1 1 0 1-3 2-5 2s-5-1-5-2z" style="fill:#2d2d2d"/>
 <path d="m28 29v1h1c0-0.4714-0.5286-1-1-1zm-7 0.11523v0.88477h1v-0.5c-0.2948-0.1474-0.60272-0.28861-1-0.38477zm6 0c-0.39728 0.09616-0.7052 0.23737-1 0.38477v0.5h1v-0.88477zm-6 1.8848v0.45703c0.31986 0.10936 0.65477 0.20321 1 0.2832v-0.74023h-1zm3 0v1c0.31305 0 0.65329-0.031007 1-0.076172v-0.92383h-1z" style="fill:#f9f9f9;paint-order:stroke fill markers"/>
</svg>
