<svg version="1.1" viewBox="0 0 48 48" xmlns="http://www.w3.org/2000/svg">
 <defs>
  <linearGradient id="linearGradient840" x2="0" y1="47" y2="1" gradientUnits="userSpaceOnUse">
   <stop style="stop-color:#5c260a" offset="0"/>
   <stop style="stop-color:#6e2e0c" offset="1"/>
  </linearGradient>
 </defs>
 <path d="m36.31 5c5.859 4.062 9.688 10.831 9.688 18.5 0 12.426-10.07 22.5-22.5 22.5-7.669 0-14.438-3.828-18.5-9.688 1.037 1.822 2.306 3.499 3.781 4.969 4.085 3.712 9.514 5.969 15.469 5.969 12.703 0 23-10.298 23-23 0-5.954-2.256-11.384-5.969-15.469-1.469-1.475-3.147-2.744-4.969-3.781zm4.969 3.781c3.854 4.113 6.219 9.637 6.219 15.719 0 12.703-10.297 23-23 23-6.081 0-11.606-2.364-15.719-6.219 4.16 4.144 9.883 6.719 16.219 6.719 12.703 0 23-10.298 23-23 0-6.335-2.575-12.06-6.719-16.219z" style="opacity:.05"/>
 <path d="m41.28 8.781c3.712 4.085 5.969 9.514 5.969 15.469 0 12.703-10.297 23-23 23-5.954 0-11.384-2.256-15.469-5.969 4.113 3.854 9.637 6.219 15.719 6.219 12.703 0 23-10.298 23-23 0-6.081-2.364-11.606-6.219-15.719z" style="opacity:.1"/>
 <path d="m31.25 2.375c8.615 3.154 14.75 11.417 14.75 21.13 0 12.426-10.07 22.5-22.5 22.5-9.708 0-17.971-6.135-21.12-14.75a23 23 0 0 0 44.875-7 23 23 0 0 0-16-21.875z" style="opacity:.2"/>
 <circle cx="24" cy="24" r="23" style="fill:url(#linearGradient840)"/>
 <path d="m40.03 7.531c3.712 4.084 5.969 9.514 5.969 15.469 0 12.703-10.297 23-23 23-5.954 0-11.384-2.256-15.469-5.969 4.178 4.291 10.01 6.969 16.469 6.969 12.703 0 23-10.298 23-23 0-6.462-2.677-12.291-6.969-16.469z" style="opacity:.1"/>
 <path d="m18.725 11.396a15 15 0 0 0-8.7246 13.604 15 15 0 0 0 15 15 15 15 0 0 0 15-15 15 15 0 0 0-8.6426-13.566 13 13.126 0 0 1 6.6426 11.441 13 13.126 0 0 1-2e-3 0.05273 13 13 0 0 1 2e-3 0.07227 13 13 0 0 1-12.08 12.967 13 13.126 0 0 1-2e-3 0 13 13 0 0 1-0.91792 0.033203 13 13 0 0 1-13-13 13 13 0 0 1 2e-3 -0.05273 13 13.126 0 0 1-2e-3 -0.07227 13 13.126 0 0 1 6.7246-11.479z" style="fill:#020100;opacity:.1"/>
 <path d="m17.725 10.396a15 15 0 0 0-8.7246 13.604 15 15 0 0 0 15 15 15 15 0 0 0 15-15 15 15 0 0 0-8.6426-13.566 13 13.126 0 0 1 6.6426 11.441 13 13.126 0 0 1-0.001953 0.052734 13 13 0 0 1 0.001953 0.072266 13 13 0 0 1-12.08 12.967 13 13.126 0 0 1-0.001953 0 13 13 0 0 1-0.91797 0.033203 13 13 0 0 1-13-13 13 13 0 0 1 0.001953-0.052734 13 13.126 0 0 1-0.001953-0.072266 13 13.126 0 0 1 6.7246-11.479z" style="fill:#e36920"/>
 <path d="m36.986 22.285a13 13 0 0 1-0.50195 3.3066c0.49953-0.85573 0.51562-1.8001 0.51562-2.5918 0-0.22648-0.002055-0.46852-0.013672-0.71484zm-1.623 6.0215a13 13 0 0 1-2.6367 3.3105l0.27344 0.38281h3.6816a15 15 0 0 0 0.58789-1.0234l-1.9062-2.6699z" style="opacity:.1"/>
 <path d="m11 17v4h4v10h5v-10h3v10h5v-4c0.39875 0 0.76306-0.012933 1.123-0.027344l2.877 4.0273h5l-3.4473-4.8281c2.436-1.0328 2.4473-2.8264 2.4473-4.1719 0-2 0-5-8-5h-17zm17 4h2c2 0 2 2 0 2h-2v-2z" style="fill:#f9f9f9"/>
</svg>
