<svg version="1.1" viewBox="0 0 48 48" xmlns="http://www.w3.org/2000/svg">
 <defs>
  <linearGradient id="bg" x1="1" x2="1" y1="47" y2="1" gradientUnits="userSpaceOnUse">
   <stop style="stop-color:#434343" offset="0"/>
   <stop style="stop-color:#4d4d4d" offset="1"/>
  </linearGradient>
 </defs>
 <path d="m36.3 5c5.86 4.06 9.69 10.8 9.69 18.5 0 12.4-10.1 22.5-22.5 22.5-7.67 0-14.4-3.83-18.5-9.69 1.04 1.82 2.31 3.5 3.78 4.97 4.08 3.71 9.51 5.97 15.5 5.97 12.7 0 23-10.3 23-23 0-5.95-2.26-11.4-5.97-15.5-1.47-1.48-3.15-2.74-4.97-3.78zm4.97 3.78c3.85 4.11 6.22 9.64 6.22 15.7 0 12.7-10.3 23-23 23-6.08 0-11.6-2.36-15.7-6.22 4.16 4.14 9.88 6.72 16.2 6.72 12.7 0 23-10.3 23-23 0-6.34-2.58-12.1-6.72-16.2z" style="opacity:.05"/>
 <path d="m41.3 8.78c3.71 4.08 5.97 9.51 5.97 15.5 0 12.7-10.3 23-23 23-5.95 0-11.4-2.26-15.5-5.97 4.11 3.85 9.64 6.22 15.7 6.22 12.7 0 23-10.3 23-23 0-6.08-2.36-11.6-6.22-15.7z" style="opacity:.1"/>
 <path d="m31.2 2.38c8.62 3.15 14.8 11.4 14.8 21.1 0 12.4-10.1 22.5-22.5 22.5-9.71 0-18-6.14-21.1-14.8a23 23 0 0 0 44.9-7 23 23 0 0 0-16-21.9z" style="opacity:.2"/>
 <path d="m24 1c12.7 0 23 10.3 23 23s-10.3 23-23 23-23-10.3-23-23 10.3-23 23-23z" style="fill:url(#bg)"/>
 <path d="m40 7.53c3.71 4.08 5.97 9.51 5.97 15.5 0 12.7-10.3 23-23 23-5.95 0-11.4-2.26-15.5-5.97 4.18 4.29 10 6.97 16.5 6.97 12.7 0 23-10.3 23-23 0-6.46-2.68-12.3-6.97-16.5z" style="opacity:.1"/>
 <path d="m39 40.8c-2.22-2.05-4.25-4.48-7.06-5.74-0.762 0.587 1.55 1.9 1.13 2.51-0.868-0.399-2.54-2.95-3.1-1.38 0.159 1.39 1.65 2.81 0.836 4.18-1.23 0.127-4.12 0.207-3.81-1.68-0.779-1.37-2.4 0.437-2.38 1.59-1.58 1.4-1.18-1.96-1.84-2.73-1.22-1.43-2.93 0.448-4.37 0.45-0.639 0.232-1.47 1.8-1.38 0.259 0.204-1.23-0.773-2.42-1.84-1.24-1.29 0.807-2.22 2.27-3.65 2.78 0.0682-1.32 1.83-1.95 2.61-2.96 1.44-0.69 1.3-3.5-0.646-2.38-0.995 0.224-2.59 2.1-3.21 1.38 0.838-1.39 3.02-1.53 3.5-3.11-0.465-0.729-1.33-1.12-1.63-2.02-0.599-0.132-3.51-0.196-1.72-0.831 1.3 0.132 0.927-0.979-0.143-0.633-2.21-0.323 1.22-1.16 0.553-2.47 0.47-0.623 2.65-1.95 0.634-1.24-1.34 0.808-1.51-0.759-1.44-1.5 1.03-0.707 2.4-0.843 3.39-1.05 0.111-1.53-2.19-1.01-2.09-2.16 0.827 0.422 1.34-0.0624 1.93-0.649 3.91-3.38 7.82-6.77 11.7-10.1 0.341-1.08 0.58 2.2 1.61 0.681 0.533-0.951 1.61-1.68 1.94-0.155 1.1 0.908 2.52 1.55 3.69 2.24 1.14-0.184 1.85-2.92 2.56-2.33-0.712 1.09-2.26 3.66 0.11 3.77 1.4-0.418 3.11-1.94 4.5-0.708-0.754 1.15-1.69 2.66-3.08 2.82 0.0091 1.91 2.44 1.39 3.68 1.15 1.72-0.343 0.305 1.27-0.679 0.98-1.2 0.328-3.58 0.55-3.47 2.17 0.522 0.823 1.5 2.43 0.0764 2.73 0.798 0.504 2.39-0.277 3.01 0.19-1.01 0.715-3.18 0.525-3.45 1.84 1.06 1.52 3.23 0.816 4.65 1.57-0.777 1.26-2.83 0.638-4.02 1.45-0.858 0.488-0.0945 1.78-1.48 1.53-0.847 0.643 2.07 1.15 0.343 1.21-0.877-0.46-1.26 0.56-1.93 0.918-1.94 1.07 0.546 2.82 1.47 3.65 1.7 1.63 3.49 3.18 5.01 4.98-0.0148 0.263-0.411 0.411-0.566 0.121zm-3.11-6.97c-1.44-1.16 2.2-3.4 1.44-0.918-0.0048 0.688-0.776 1.47-1.44 0.918zm4.22-1.42c-1.47-0.226-0.548-1.26 0.33-0.366 0.836 0.493 0.19 0.549-0.33 0.366zm-31-5.8c0.375-1.45 0.972 0.523 0 0zm2.34-9.25c-0.764-0.04-2.07-1.06-0.495-0.983 0.901-0.499 3.15 0.978 1.36 1.23-0.293-0.0604-0.578-0.157-0.862-0.248zm1.96-0.538c-0.49-1.79 1.23 0.56 0 0zm4.42-3.1c-0.357-0.526-1.35-3.34-0.108-2.06 0.266 0.322 1.19 2.62 0.108 2.06z" style="opacity:.1"/>
 <path d="m38 39.8c-2.22-2.05-4.25-4.48-7.06-5.74-0.762 0.587 1.55 1.9 1.13 2.51-0.868-0.399-2.54-2.95-3.1-1.38 0.159 1.39 1.65 2.81 0.836 4.18-1.23 0.127-4.12 0.207-3.81-1.68-1.02-1.49-2.34 0.8-2.58 1.87-1.82 0.433-0.656-2.65-1.94-3.33-1.49-0.635-3.06 0.702-4.5 1.02-0.704 1.19-1.1 0.584-1.01-0.502-0.0633-2.47-2.4-0.368-3.26 0.479-0.501 0.27-2.01 2.26-2.2 1.2 1.01-1.57 3.06-2.31 3.69-4.16 0.0266-1.88-2.23-0.676-3.03-0.0499-0.412 0.406-2.62 1.52-1.55 0.234 0.833-1.15 3.52-1.42 3.01-3.13-1.2-0.528-1.25-2.28-2.97-1.79-1.43 0.0777-0.627-0.906 0.355-0.744 1.39-0.87-3.02-0.281-1.02-1.41 1.2-0.509 0.542-2.33 2.15-2.44 1.39-0.349-0.285-1.97-0.447-0.52-0.974 0.77-1.83 0.0074-1.65-1.05 0.281-0.957 2.32-1.27 3.36-1.26 0.339-1.59-2.15-1.15-2.05-2.29 1.15 0.445 2.9 0.994 2.73-0.998 1.63-0.855 1.04-2.77 0.325-4.17-0.293-2.08 2.43 1.32 2.04-0.857-0.296-1.73 1.23-0.724 2.05-0.388 2.12-0.248 1.77-2.87 2.66-4.3 0.711-2.4 2.27 1.26 3.67 0.407 0.323-2.27 0.83 1.89 1.9 0.0894 0.44-0.938 1.55-1.51 1.79-0.0801 1.1 0.915 2.54 1.59 3.73 2.28 1.14-0.184 1.85-2.92 2.56-2.33-0.712 1.09-2.26 3.66 0.11 3.77 1.4-0.418 3.11-1.94 4.5-0.708-0.754 1.15-1.69 2.66-3.08 2.82 0.0091 1.91 2.44 1.39 3.68 1.15 1.72-0.343 0.305 1.27-0.679 0.98-1.2 0.328-3.58 0.55-3.47 2.17 0.522 0.823 1.5 2.43 0.0764 2.73 0.798 0.504 2.39-0.277 3.01 0.19-1.01 0.715-3.18 0.525-3.45 1.84 1.06 1.52 3.23 0.816 4.65 1.57-0.777 1.26-2.83 0.638-4.02 1.45-0.858 0.488-0.0945 1.78-1.48 1.53-0.847 0.643 2.07 1.15 0.343 1.21-0.878-0.461-1.26 0.561-1.93 0.918-1.94 1.07 0.546 2.82 1.47 3.65 1.7 1.63 3.49 3.18 5.01 4.98-0.0149 0.263-0.41 0.411-0.566 0.122zm-3.11-6.97c-1.44-1.16 2.2-3.4 1.44-0.918-0.0048 0.688-0.776 1.47-1.44 0.918zm4.22-1.42c-1.47-0.226-0.548-1.26 0.33-0.366 0.836 0.493 0.19 0.549-0.33 0.366zm-31-5.8c0.375-1.45 0.972 0.523 0 0zm2.34-9.25c-0.764-0.04-2.07-1.06-0.495-0.983 0.901-0.499 3.15 0.978 1.36 1.23-0.293-0.0604-0.578-0.157-0.862-0.248zm1.96-0.538c-0.51-0.954 1.01-0.491 0.203 0.177l-0.203-0.177zm4.42-3.1c-0.357-0.526-1.35-3.34-0.108-2.06 0.266 0.322 1.19 2.62 0.108 2.06z" style="fill:#e14040"/>
 <path d="m25.4 12.8c-1.86 0-3.24 0.232-4.65 0.775-1.66 0.64-2.99 1.91-3.66 3.48-0.522 1.23-0.706 2.66-0.443 3.45 0.532 1.6 2.5 3.06 5.33 3.94 0.423 0.132 1.23 0.385 1.79 0.562 2.24 0.704 3.08 1.36 2.84 2.2-0.113 0.382-0.556 0.965-0.996 1.31-0.96 0.759-2.6 0.91-4.26 0.389-1.07-0.338-1.83-0.81-2.6-1.62-0.249-0.261-0.561-0.52-0.695-0.576-0.861-0.36-2.53-0.0025-3.03 0.648-0.519 0.68-0.602 1.36-0.252 2.06 0.466 0.925 1.52 1.93 2.91 2.75 0.852 0.508 1.65 0.805 2.76 1.03 0.538 0.11 1.12 0.262 1.28 0.336 0.721 0.323 0.843 0.741 0.973 3.38 0.0995 2.02 0.117 2.16 0.285 2.16 0.074 0 0.157-0.0692 0.188-0.158 0.0301-0.0876 0.0606-1.1 0.0664-2.25 0.0083-1.66 0.0329-2.19 0.125-2.58 0.179-0.759 0.347-0.846 0.615-0.32 0.0774 0.152 0.21 0.341 0.295 0.42 0.348 0.324 1.04 0.0729 1.47-0.539 0.368-0.513 1.07-1.17 1.99-1.87 0.894-0.677 1.53-1.28 2.01-1.91 1.32-1.72 1.71-3.72 0.869-4.52-0.329-0.311-0.49-0.379-1.35-0.561-0.423-0.0895-0.884-0.219-1.03-0.289-0.583-0.289-0.3-0.446 0.934-0.518 0.568-0.0328 1.03-0.0958 1.19-0.164 0.232-0.0972 0.266-0.143 0.266-0.35 0-0.736-2.1-1.83-5.63-2.93-2.38-0.744-3.06-1.06-3.38-1.56-0.285-0.461-0.0718-1.35 0.445-1.84 0.552-0.527 1.42-0.765 2.57-0.709 1.17 0.0563 2.3 0.47 3.03 1.11 0.555 0.487 0.699 0.534 1.65 0.529 0.728-0.0036 0.932-0.0322 1.43-0.197 0.69-0.229 0.938-0.42 1.18-0.912 0.212-0.425 0.246-1.04 0.0801-1.44-0.229-0.549-1.15-1.4-2.05-1.91-0.923-0.516-2.61-0.818-4.58-0.818z" style="fill:#fafafa"/>
 <path d="m25.4 12.8c-2.71-0.023-5.76 0.61-7.5 2.88-1.01 1.35-1.61 3.15-1.25 4.82 0.144 0.717 1.29 1.91 1.49 1.93-1.08-1.41-0.532-3.36 0.16-4.81 1.11-2.21 3.53-3.38 5.9-3.68 2.2-0.236 4.53-0.265 6.6 0.584 0.424 0.159 1.47 1.09 0.629 0.213-1.13-1.26-2.81-1.76-4.44-1.87-0.526-0.0483-1.05-0.0697-1.58-0.0697zm-2.87 6.87c0.351 1.1 1.73 1.22 2.66 1.62 1.85 0.592 3.74 1.16 5.43 2.13-0.54-1.08-1.88-1.42-2.89-1.91-1.7-0.715-3.5-1.12-5.2-1.84zm7.52 5.34c-0.573-0.0948-1.64 0.341-0.524 0.603 0.57 0.121 2 0.728 1.1-0.249-0.162-0.159-0.36-0.279-0.574-0.354zm-12.8 1.56c-1.11-0.0249-2.48 0.447-2.69 1.69-0.201 1.2 0.834 2.12 1.63 2.86-0.708-0.734-0.926-1.96-0.199-2.76 0.856-0.804 2.47-1.16 3.43-0.355 1.46 1.7 3.88 2.6 6.07 2.05 1.08-0.277 2.72-1.63 1.81-2.79-0.427-0.407-0.849-0.742-0.791 0.0977-0.695 1.56-2.56 2.07-4.12 1.8-1.54-0.194-2.95-0.99-3.97-2.15-0.304-0.327-0.734-0.433-1.17-0.436zm5.17 7.9c0.331 1.5 0.153 3.06 0.43 4.56 0.672-0.386 0.196-1.94 0.358-2.77-0.0125-0.758 0.279-1.67-0.788-1.79z" style="opacity:.1"/>
</svg>
