<svg version="1.1" viewBox="0 0 48 48" xmlns="http://www.w3.org/2000/svg">
 <defs>
  <linearGradient id="bg" x2="0" y1="1" y2="47" gradientUnits="userSpaceOnUse">
   <stop style="stop-color:#806075" offset="0"/>
   <stop style="stop-color:#75576b" offset="1"/>
  </linearGradient>
 </defs>
 <path d="m36.3 5c5.86 4.06 9.69 10.8 9.69 18.5 0 12.4-10.1 22.5-22.5 22.5-7.67 0-14.4-3.83-18.5-9.69 1.04 1.82 2.31 3.5 3.78 4.97 4.08 3.71 9.51 5.97 15.5 5.97 12.7 0 23-10.3 23-23 0-5.95-2.26-11.4-5.97-15.5-1.47-1.48-3.15-2.74-4.97-3.78zm4.97 3.78c3.85 4.11 6.22 9.64 6.22 15.7 0 12.7-10.3 23-23 23-6.08 0-11.6-2.36-15.7-6.22 4.16 4.14 9.88 6.72 16.2 6.72 12.7 0 23-10.3 23-23 0-6.34-2.58-12.1-6.72-16.2z" style="opacity:.05"/>
 <path d="m41.3 8.78c3.71 4.08 5.97 9.51 5.97 15.5 0 12.7-10.3 23-23 23-5.95 0-11.4-2.26-15.5-5.97 4.11 3.85 9.64 6.22 15.7 6.22 12.7 0 23-10.3 23-23 0-6.08-2.36-11.6-6.22-15.7z" style="opacity:.1"/>
 <path d="m31.2 2.38c8.62 3.15 14.8 11.4 14.8 21.1 0 12.4-10.1 22.5-22.5 22.5-9.71 0-18-6.14-21.1-14.8a23 23 0 0 0 44.9-7 23 23 0 0 0-16-21.9z" style="opacity:.2"/>
 <circle cx="24" cy="24" r="23" style="fill:url(#bg)"/>
 <path d="m19 12v13c-0.637-0.0132-1.29-0.0156-2-0.0156-2 0-3 3-3 3s2-1 3 0c-2 1-3 6-3 6s1.78-0.91 2.86-0.986c0.142 0.303 0.458 0.643 1.14 0.986 0.539 0.269 1.48-0.519 1.83-0.844 0.0621 0.0083 0.108 0.0205 0.168 0.0293v0.814h1l1.22-0.377-4.22 3.38h6l-0.805-3.22c0.888 0.124 2.02 0.217 3.8 0.217 0.638 0 1.18-0.111 1.65-0.293l-1.65 3.29h8l-5.57-3.71c1.14-0.821 1.57-2.19 1.57-3.29 0-0.328-0.0882-0.642-0.234-0.941l0.447-0.746c1.4-0.579 1.79-1.31 1.79-1.31v-15l-3 4h-8l-3-4zm14 17-1 1v4h1v-1s1.33 1.33 2 1c2-1 1-2 1-2z" style="opacity:.1"/>
 <path d="m40 7.53c3.71 4.08 5.97 9.51 5.97 15.5 0 12.7-10.3 23-23 23-5.95 0-11.4-2.26-15.5-5.97 4.18 4.29 10 6.97 16.5 6.97 12.7 0 23-10.3 23-23 0-6.46-2.68-12.3-6.97-16.5z" style="opacity:.1"/>
 <path d="m25 25c-4-1-5.98-1-9-1-2 0-3 3-3 3s2-1 3 0c-2 1-3 6-3 6s1.95-1 3-1c5 0 4 1 10 1 3 0 4-2.33 4-4 0-2-3.06-3.51-5-4z" style="fill:#474747"/>
 <path d="m20 26 2 5 4-5 2 5 3-5-5-1z" style="fill:#f9f9f9"/>
 <path d="m18 11v15s2 2 8 2c5 0 6-2 6-2v-15l-3 4h-8z" style="fill:#96f"/>
 <path d="m28 32-2 4h8z" style="fill:#96f"/>
 <path d="m22 32-5 4h6z" style="fill:#96f"/>
 <path d="m19 28-3 3s-1 1 1 2c0.667 0.333 2-1 2-1v1h1v-4z" style="fill:#96f"/>
 <path d="m32 28 3 3s1 1-1 2c-0.667 0.333-2-1-2-1v1h-1v-4z" style="fill:#96f"/>
 <path d="m23 20a3 3 0 0 0-3 3 3 3 0 0 0 0.0117 0.25l2.73 2.74a3 3 0 0 0 0.26 0.0137 3 3 0 0 0 3-3 3 3 0 0 0-3-3z" style="fill:#1d62ba"/>
 <path d="m28.5 21a2.5 2.5 0 0 0-2.5 2.5 2.5 2.5 0 0 0 0.0156 0.258l2.21 2.23a2.5 2.5 0 0 0 0.275 0.0156 2.5 2.5 0 0 0 2.5-2.5 2.5 2.5 0 0 0-2.5-2.5z" style="fill:#1d62ba"/>
 <path d="m22.5 21a2.5 2.5 0 0 0-2.49 2.25 2.5 2.5 0 0 0 0 0.00195 3 3 0 0 0 2.73 2.74 2.5 2.5 0 0 0 2.26-2.49 2.5 2.5 0 0 0-2.5-2.5z" style="fill:#1ac7e2"/>
 <path d="m28 22a2 2 0 0 0-1.98 1.76 2.5 2.5 0 0 0 2.21 2.23 2 2 0 0 0 1.78-1.98 2 2 0 0 0-2-2z" style="fill:#1ac7e2"/>
 <circle cx="24" cy="22" r="1" style="fill:#f9f9f9"/>
 <circle cx="29.5" cy="22.5" r=".5" style="fill:#f9f9f9"/>
</svg>
