<svg version="1.1" viewBox="0 0 48 48" xmlns="http://www.w3.org/2000/svg">
 <defs>
  <linearGradient id="bg" x2="0" y1="1" y2="47" gradientUnits="userSpaceOnUse">
   <stop style="stop-color:#2b3a6e" offset="0"/>
   <stop style="stop-color:#25325f" offset="1"/>
  </linearGradient>
 </defs>
 <path d="m36.31 5c5.859 4.062 9.688 10.831 9.688 18.5 0 12.426-10.07 22.5-22.5 22.5-7.669 0-14.438-3.828-18.5-9.688 1.037 1.822 2.306 3.499 3.781 4.969 4.085 3.712 9.514 5.969 15.469 5.969 12.703 0 23-10.298 23-23 0-5.954-2.256-11.384-5.969-15.469-1.469-1.475-3.147-2.744-4.969-3.781zm4.969 3.781c3.854 4.113 6.219 9.637 6.219 15.719 0 12.703-10.297 23-23 23-6.081 0-11.606-2.364-15.719-6.219 4.16 4.144 9.883 6.719 16.219 6.719 12.703 0 23-10.298 23-23 0-6.335-2.575-12.06-6.719-16.219z" style="opacity:.05"/>
 <path d="m41.28 8.781c3.712 4.085 5.969 9.514 5.969 15.469 0 12.703-10.297 23-23 23-5.954 0-11.384-2.256-15.469-5.969 4.113 3.854 9.637 6.219 15.719 6.219 12.703 0 23-10.298 23-23 0-6.081-2.364-11.606-6.219-15.719z" style="opacity:.1"/>
 <path d="m31.25 2.375c8.615 3.154 14.75 11.417 14.75 21.13 0 12.426-10.07 22.5-22.5 22.5-9.708 0-17.971-6.135-21.12-14.75a23 23 0 0 0 44.875-7 23 23 0 0 0-16-21.875z" style="opacity:.2"/>
 <path d="m24 1c-12.703 0-23.006 10.297-23 23 0.00511 11.151 8.019 20.688 19 22.627l8 0.01953c10.988-1.9406 18.999-11.488 19-22.646 7.8e-4 -12.703-10.297-23-23-23z" style="fill:url(#bg)"/>
 <path d="m25 10a15 15 0 0 0-15 15 15 15 0 0 0 11 14.441v7.3379a23 23 0 0 0 3 0.2207 23 23 0 0 0 5-0.57812v-6.9668a15 15 0 0 0 11-14.455 15 15 0 0 0-15-15z" style="opacity:.1"/>
 <path d="m24 9a15 15 0 0 0-14.754 12.369l10.754 13.631 15-3 3.3066-3.502v-0.001953a15 15 0 0 0 0.69336-4.4961 15 15 0 0 0-15-15z" style="fill:#e2e7cb"/>
 <path d="m12 18c-1.5387 0.13274-2.2635 2.1299-2.7539 3.3691-0.15926 0.86801-0.24161 1.7484-0.24609 2.6309 0 8.2843 6.7157 15 15 15 6.5509-0.001605 12.343-4.2542 14.307-10.504-0.41521-0.26868-0.92101-0.53087-1.3066-0.49609-1.6599 0.14968-2.3549 2.733-4 3-1.0405 0.16885-1.9595-1.1688-3-1-1.6451 0.26697-2.4091 3.4969-4 3-1.0061-0.3143-0.14488-2.3837-1-3-1.6225-1.1694-4.5858 1.4142-6 0-0.94281-0.94281 0.65693-2.8397 0-4-0.95763-1.6914-3.9061-1.3934-5-3-1.9637-4.5635-0.61523-4.9668-2-5z" style="fill:#acddc7"/>
 <path d="m25 14-7 7h2l-1 6v8h2l3 4c1.7043-0.0055 3.3951-0.3014 5-0.875v-3.125h2v-8h-1v-6h2z" style="opacity:.1"/>
 <path d="m20 28v18.627a23 23 0 0 0 2.0859 0.27344l3.9043-0.001953h0.009766a23 23 0 0 0 2-0.25195v-18.646h-8z" style="fill:#9c9c9c"/>
 <path d="m22 34v12.9a23 23 0 0 0 2 0.099609 23 23 0 0 0 2-0.10156v-12.898h-4z" style="fill:#bbb"/>
 <path d="m40.03 7.531c3.712 4.084 5.969 9.514 5.969 15.469 0 12.703-10.297 23-23 23-5.954 0-11.384-2.256-15.469-5.969 4.178 4.291 10.01 6.969 16.469 6.969 12.703 0 23-10.298 23-23 0-6.462-2.677-12.291-6.969-16.469z" style="opacity:.1"/>
 <rect x="19" y="19" width="10" height="8" style="fill:#6f543d"/>
 <rect x="22" y="20" width="4" height="6" style="fill:#876c4a"/>
 <rect x="23" y="21" width="2" height="4" style="fill:#e0bd71"/>
 <path d="m19 20v1h10v-2zm1 12v3h8v-3z" style="opacity:.1"/>
 <path d="m17 20h14l-7-7z" style="fill:#555857"/>
 <rect x="18" y="26" width="12" height="8" style="fill:#665e57"/>
 <path d="m20 20 4-7 4 7z" style="fill:#637378"/>
 <rect x="21" y="26" width="6" height="8" style="fill:#8c8178"/>
 <path d="m20 21v4h1v-4h-1zm7 0v4h1v-4h-1z" style="fill:#d59b3d"/>
</svg>
