<svg version="1.1" viewBox="0 0 48 48" xmlns="http://www.w3.org/2000/svg">
 <defs>
  <linearGradient id="bg" x2="0" y1="1" y2="47" gradientUnits="userSpaceOnUse">
   <stop style="stop-color:#1a7382" offset="0"/>
   <stop style="stop-color:#176471" offset="1"/>
  </linearGradient>
 </defs>
 <path d="m36.31 5c5.859 4.062 9.688 10.831 9.688 18.5 0 12.426-10.07 22.5-22.5 22.5-7.669 0-14.438-3.828-18.5-9.688 1.037 1.822 2.306 3.499 3.781 4.969 4.085 3.712 9.514 5.969 15.469 5.969 12.703 0 23-10.298 23-23 0-5.954-2.256-11.384-5.969-15.469-1.469-1.475-3.147-2.744-4.969-3.781zm4.969 3.781c3.854 4.113 6.219 9.637 6.219 15.719 0 12.703-10.297 23-23 23-6.081 0-11.606-2.364-15.719-6.219 4.16 4.144 9.883 6.719 16.219 6.719 12.703 0 23-10.298 23-23 0-6.335-2.575-12.06-6.719-16.219z" style="opacity:.05"/>
 <path d="m41.28 8.781c3.712 4.085 5.969 9.514 5.969 15.469 0 12.703-10.297 23-23 23-5.954 0-11.384-2.256-15.469-5.969 4.113 3.854 9.637 6.219 15.719 6.219 12.703 0 23-10.298 23-23 0-6.081-2.364-11.606-6.219-15.719z" style="opacity:.1"/>
 <path d="m31.25 2.375c8.615 3.154 14.75 11.417 14.75 21.13 0 12.426-10.07 22.5-22.5 22.5-9.708 0-17.971-6.135-21.12-14.75a23 23 0 0 0 44.875-7 23 23 0 0 0-16-21.875z" style="opacity:.2"/>
 <circle cx="24" cy="24" r="23" style="fill:url(#bg)"/>
 <path d="m23 13-10 7v3c0.34502 0.08625 0.67114 0.1879 1 0.28711v0.71289a1.0001 1.0001 0 0 0 0.10547 0.44727s0.11536 0.21214 0.28125 0.48828l0.61328 3.0645h1.666l1.334 2 0.70703-1.0586 0.19336 0.25781-0.90039 1.8008h-1l-2 3 6 2 1-2h3v3h5v-2h2v2h3s1.022-2.0002 1-3v-13l-1-8-6 6v-6l-6 6z" style="opacity:.1"/>
 <path d="m40.03 7.531c3.712 4.084 5.969 9.514 5.969 15.469 0 12.703-10.297 23-23 23-5.954 0-11.384-2.256-15.469-5.969 4.178 4.291 10.01 6.969 16.469 6.969 12.703 0 23-10.298 23-23 0-6.462-2.677-12.291-6.969-16.469z" style="opacity:.1"/>
 <path d="m18 30 1-4h14v7h-7z" style="fill:#2d2d2d"/>
 <path d="m15 26 2 3 2-3h6l3 3 2-3 1 3 2-2-1-2h-17z" style="fill:#dbdbdb"/>
 <path d="m17 31v-1l1-2 1 2h2l1-2 1 2 3 1 1-2 1 2 2-2v3l2-2v3z" style="fill:#c2c2c2"/>
 <path d="m14 33 6 2 1-2h3v3h5v-2h2v2h3s1.022-2.0002 1-3v-13l-3 1-19 1 1 5h15c2 0 4 1 4 2 0 2 0 3-2 3s-2-2-4-2h-11z" style="fill:#ce321a"/>
 <path d="m17 27 3 4 2-4 3 4 3-4z" style="fill:#f9f9f9"/>
 <path d="m30.971 19c-0.16398 0.0047-0.32428 0.04962-0.4668 0.13086l-7 4c-0.75001 0.42688-0.64353 1.5395 0.17383 1.8164 0 0 0.7563 0.25623 1.6504 0.51367 0.89409 0.25744 1.8286 0.53906 2.6719 0.53906 0.83333 0 1.5267-0.42512 2.0195-0.91797s0.84519-1.0751 1.125-1.6348c0.55963-1.1193 0.82617-2.2051 0.82617-2.2051 0.019612-0.079231 0.029451-0.16057 0.029297-0.24219v-1c1.84e-4 -0.56391-0.46563-1.0165-1.0293-1zm-16.99 2c-0.54462 0.010692-0.98052 0.45528-0.98047 1v1c-3.7e-5 0.15525 0.03607 0.30838 0.10547 0.44727 0 0 0.27975 0.56701 0.71875 1.1523 0.2195 0.29267 0.48046 0.60038 0.81641 0.86914s0.77604 0.53125 1.3594 0.53125c0.84327 0 1.6055-0.30375 2.2695-0.57227 0.66402-0.26851 1.1875-0.53906 1.1875-0.53906 0.76034-0.39284 0.70809-1.4971-0.08594-1.8164l-5-2c-0.12406-0.049966-0.25689-0.07454-0.39062-0.072266z" style="fill:#51a6a2"/>
 <path d="m31 20-7 4s2.9459 1 4 1c2 0 3-4 3-4zm-17 2v1s1 2 2 2c1.0541 0 3-1 3-1z" style="fill:#f9f9f9"/>
 <path d="m12 22c4 1 7 3 7 3h4s3-2 9-4l3-1-1-8-6 6v-6l-6 6v-6l-10 7z" style="fill:#e54a31"/>
</svg>
