<svg xmlns="http://www.w3.org/2000/svg" viewBox="0 0 48 48">
 <defs>
  <linearGradient id="linearGradient3764" x1="1" x2="47" gradientUnits="userSpaceOnUse" gradientTransform="matrix(0,-1,1,0,-1.5e-6,47.999998)">
   <stop style="stop-color:#434343;stop-opacity:1"/>
   <stop offset="1" style="stop-color:#4d4d4d;stop-opacity:1"/>
  </linearGradient>
 </defs>
 <g>
  <path d="m 36.31 5 c 5.859 4.062 9.688 10.831 9.688 18.5 c 0 12.426 -10.07 22.5 -22.5 22.5 c -7.669 0 -14.438 -3.828 -18.5 -9.688 c 1.037 1.822 2.306 3.499 3.781 4.969 c 4.085 3.712 9.514 5.969 15.469 5.969 c 12.703 0 23 -10.298 23 -23 c 0 -5.954 -2.256 -11.384 -5.969 -15.469 c -1.469 -1.475 -3.147 -2.744 -4.969 -3.781 z m 4.969 3.781 c 3.854 4.113 6.219 9.637 6.219 15.719 c 0 12.703 -10.297 23 -23 23 c -6.081 0 -11.606 -2.364 -15.719 -6.219 c 4.16 4.144 9.883 6.719 16.219 6.719 c 12.703 0 23 -10.298 23 -23 c 0 -6.335 -2.575 -12.06 -6.719 -16.219 z" style="opacity:0.05"/>
  <path d="m 41.28 8.781 c 3.712 4.085 5.969 9.514 5.969 15.469 c 0 12.703 -10.297 23 -23 23 c -5.954 0 -11.384 -2.256 -15.469 -5.969 c 4.113 3.854 9.637 6.219 15.719 6.219 c 12.703 0 23 -10.298 23 -23 c 0 -6.081 -2.364 -11.606 -6.219 -15.719 z" style="opacity:0.1"/>
  <path d="m 31.25 2.375 c 8.615 3.154 14.75 11.417 14.75 21.13 c 0 12.426 -10.07 22.5 -22.5 22.5 c -9.708 0 -17.971 -6.135 -21.12 -14.75 a 23 23 0 0 0 44.875 -7 a 23 23 0 0 0 -16 -21.875 z" style="opacity:0.2"/>
 </g>
 <g>
  <path d="m 24 1 c 12.703 0 23 10.297 23 23 c 0 12.703 -10.297 23 -23 23 -12.703 0 -23 -10.297 -23 -23 0 -12.703 10.297 -23 23 -23 z" style="fill:url(#linearGradient3764);fill-opacity:1"/>
 </g>
 <g>
  <g>
   <g transform="translate(1,1)">
    <g style="opacity:0.1">
     <!-- color: #4d4d4d -->
     <g>
      <path d="m 21.633 36.938 c -1.223 -0.234 -2.867 -1.539 -3.863 -3.059 c -0.543 -0.828 -1.191 -2.227 -1.398 -3.01 c -0.336 -1.27 -0.48 -4.68 -0.277 -6.793 c 0.289 -3.082 1.414 -6.461 2.93 -8.816 c 0.59 -0.918 1.273 -1.773 1.414 -1.773 c 0.215 0 0.164 0.324 -0.141 0.863 c -0.18 0.316 -0.332 0.602 -0.332 0.629 c 0 0.027 0.309 -0.332 0.688 -0.793 c 0.742 -0.918 1.355 -1.496 2.25 -2.129 c 1.762 -1.242 3.875 -1.395 5.402 -0.391 c 1.586 1.051 2.906 3.375 3.445 6.094 c 0.227 1.141 0.246 1.402 0.25 3.762 c 0.008 2.801 -0.094 3.609 -0.703 5.738 c -1.324 4.629 -4.438 8.746 -7.262 9.602 c -0.477 0.148 -1.84 0.191 -2.402 0.078 m 1.605 -1.734 c 0.027 -0.047 -0.191 -0.176 -0.488 -0.289 c -1.273 -0.477 -2.141 -1.313 -2.82 -2.703 c -0.391 -0.809 -0.844 -2.441 -0.773 -2.813 c 0.074 -0.395 0.273 -0.195 0.668 0.68 c 1.273 2.781 2.98 3.973 4.586 3.191 c 0.938 -0.453 2.23 -1.898 3.332 -3.703 c 1.141 -1.852 2.07 -5.086 2.25 -7.73 c 0.066 -1.027 -0.023 -2.875 -0.145 -2.742 c -0.039 0.047 -0.121 0.469 -0.18 0.941 c -0.23 1.801 -0.867 3.777 -1.215 3.777 c -0.215 0 -0.215 -0.02 0 -1.195 c 0.699 -3.805 0.375 -6.887 -0.863 -8.203 c -0.578 -0.609 -1.18 -0.867 -2.035 -0.879 c -0.688 -0.004 -0.785 0.023 -1.434 0.375 c -0.867 0.48 -1.977 1.605 -2.688 2.73 c -1.262 1.988 -2.508 5.172 -3.102 7.906 c -0.219 1.02 -0.242 1.32 -0.242 3.043 c 0 1.754 0.02 1.988 0.234 2.824 c 0.285 1.09 0.656 1.969 1.238 2.918 c 0.457 0.75 0.898 1.145 1.734 1.539 c 0.73 0.348 1.824 0.539 1.941 0.34 m 0 -0.008" style="fill:#000;fill-opacity:1;stroke:none;fill-rule:nonzero"/>
     </g>
    </g>
   </g>
  </g>
 </g>
 <g>
  <g>
   <!-- color: #4d4d4d -->
   <g>
    <path d="m 21.633 36.938 c -1.223 -0.234 -2.867 -1.539 -3.863 -3.059 c -0.543 -0.828 -1.191 -2.227 -1.398 -3.01 c -0.336 -1.27 -0.48 -4.68 -0.277 -6.793 c 0.289 -3.082 1.414 -6.461 2.93 -8.816 c 0.59 -0.918 1.273 -1.773 1.414 -1.773 c 0.215 0 0.164 0.324 -0.141 0.863 c -0.18 0.316 -0.332 0.602 -0.332 0.629 c 0 0.027 0.309 -0.332 0.688 -0.793 c 0.742 -0.918 1.355 -1.496 2.25 -2.129 c 1.762 -1.242 3.875 -1.395 5.402 -0.391 c 1.586 1.051 2.906 3.375 3.445 6.094 c 0.227 1.141 0.246 1.402 0.25 3.762 c 0.008 2.801 -0.094 3.609 -0.703 5.738 c -1.324 4.629 -4.438 8.746 -7.262 9.602 c -0.477 0.148 -1.84 0.191 -2.402 0.078 m 1.605 -1.734 c 0.027 -0.047 -0.191 -0.176 -0.488 -0.289 c -1.273 -0.477 -2.141 -1.313 -2.82 -2.703 c -0.391 -0.809 -0.844 -2.441 -0.773 -2.813 c 0.074 -0.395 0.273 -0.195 0.668 0.68 c 1.273 2.781 2.98 3.973 4.586 3.191 c 0.938 -0.453 2.23 -1.898 3.332 -3.703 c 1.141 -1.852 2.07 -5.086 2.25 -7.73 c 0.066 -1.027 -0.023 -2.875 -0.145 -2.742 c -0.039 0.047 -0.121 0.469 -0.18 0.941 c -0.23 1.801 -0.867 3.777 -1.215 3.777 c -0.215 0 -0.215 -0.02 0 -1.195 c 0.699 -3.805 0.375 -6.887 -0.863 -8.203 c -0.578 -0.609 -1.18 -0.867 -2.035 -0.879 c -0.688 -0.004 -0.785 0.023 -1.434 0.375 c -0.867 0.48 -1.977 1.605 -2.688 2.73 c -1.262 1.988 -2.508 5.172 -3.102 7.906 c -0.219 1.02 -0.242 1.32 -0.242 3.043 c 0 1.754 0.02 1.988 0.234 2.824 c 0.285 1.09 0.656 1.969 1.238 2.918 c 0.457 0.75 0.898 1.145 1.734 1.539 c 0.73 0.348 1.824 0.539 1.941 0.34 m 0 -0.008" style="fill:#17c0e6;fill-opacity:1;stroke:none;fill-rule:nonzero"/>
   </g>
  </g>
 </g>
 <g>
  <path d="m 40.03 7.531 c 3.712 4.084 5.969 9.514 5.969 15.469 0 12.703 -10.297 23 -23 23 c -5.954 0 -11.384 -2.256 -15.469 -5.969 4.178 4.291 10.01 6.969 16.469 6.969 c 12.703 0 23 -10.298 23 -23 0 -6.462 -2.677 -12.291 -6.969 -16.469 z" style="opacity:0.1"/>
 </g>
</svg>
