<svg version="1.1" viewBox="0 0 48 48" xmlns="http://www.w3.org/2000/svg">
 <defs>
  <linearGradient id="linearGradient851" x2="0" y1="47" y2="1" gradientUnits="userSpaceOnUse">
   <stop style="stop-color:#2f3d6a" offset="0"/>
   <stop style="stop-color:#354578" offset="1"/>
  </linearGradient>
 </defs>
 <path d="m36.3 5c5.86 4.06 9.69 10.8 9.69 18.5 0 12.4-10.1 22.5-22.5 22.5-7.67 0-14.4-3.83-18.5-9.69 1.04 1.82 2.31 3.5 3.78 4.97 4.08 3.71 9.51 5.97 15.5 5.97 12.7 0 23-10.3 23-23 0-5.95-2.26-11.4-5.97-15.5-1.47-1.48-3.15-2.74-4.97-3.78zm4.97 3.78c3.85 4.11 6.22 9.64 6.22 15.7 0 12.7-10.3 23-23 23-6.08 0-11.6-2.36-15.7-6.22 4.16 4.14 9.88 6.72 16.2 6.72 12.7 0 23-10.3 23-23 0-6.34-2.58-12.1-6.72-16.2z" style="opacity:.05"/>
 <path d="m41.3 8.78c3.71 4.08 5.97 9.51 5.97 15.5 0 12.7-10.3 23-23 23-5.95 0-11.4-2.26-15.5-5.97 4.11 3.85 9.64 6.22 15.7 6.22 12.7 0 23-10.3 23-23 0-6.08-2.36-11.6-6.22-15.7z" style="opacity:.1"/>
 <path d="m31.2 2.38c8.62 3.15 14.8 11.4 14.8 21.1 0 12.4-10.1 22.5-22.5 22.5-9.71 0-18-6.14-21.1-14.8a23 23 0 0 0 44.9-7 23 23 0 0 0-16-21.9z" style="opacity:.2"/>
 <g style="fill:#27345d">
  <path d="m24 1c12.7 0 23 10.3 23 23s-10.3 23-23 23-23-10.3-23-23 10.3-23 23-23z" style="fill:url(#linearGradient851)"/>
 </g>
 <path d="m40 7.53c3.71 4.08 5.97 9.51 5.97 15.5 0 12.7-10.3 23-23 23-5.95 0-11.4-2.26-15.5-5.97 4.18 4.29 10 6.97 16.5 6.97 12.7 0 23-10.3 23-23 0-6.46-2.68-12.3-6.97-16.5z" style="opacity:.1"/>
 <path d="m14.6 34.5c-0.814-0.199-0.89-0.205-1.55-0.846-1.28-1.25-1.54-2.7-0.705-4.05 0.399-0.649 0.791-0.918 1.35-0.924 0.381-4e-3 0.462 0.031 0.593 0.263 0.262 0.462 0.073 0.604-0.833 0.626-0.709 0.018-0.789 0.04-0.981 0.282-0.446 0.56-0.361 1.92 0.17 2.69 0.564 0.819 1.06 1.18 2.17 1.46 0.654 0.17 1.52 0.248 1.92 0.059 0.226-0.107 0.716-0.602 0.935-1.19 0.368-0.984 0.104-0.989 0.885-1.75 1.22-1.37 2.34-2.57 3.12-4.63 0.172-0.457 0.348-0.919 0.392-1.03 0.395-0.969 1.7-4.64 2.28-5.82 0.485-0.983 1.28-1.71 2.52-2.31 0.565-0.274 1.11-0.589 1.2-0.699 0.177-0.199 0.175-0.2-0.573-0.27-2.27-0.213-4.12 0.454-5.55 2-0.891 0.962-1.56 2.33-1.84 3.75-0.071 0.365-0.194 0.717-0.273 0.783-0.126 0.104-0.136 0.012-0.08-0.718 0.068-0.888 0.324-1.81 0.681-2.44 0.966-1.72 2.43-2.94 4.23-3.53 0.564-0.186 0.9-0.226 1.91-0.228 0.755-2e-3 1.4 0.048 1.68 0.131l0.462 0.134 1.01-0.498c0.557-0.274 1.43-0.635 1.94-0.802 0.782-0.257 1.07-0.304 1.9-0.305 1.89-2e-3 3 0.764 3.26 2.25 0.091 0.514 0.032 1.2-0.114 1.35-0.138 0.138-0.274-0.122-0.232-0.445 0.063-0.489-0.104-1.37-0.329-1.74-0.425-0.693-1.38-1.06-2.59-0.987-1.49 0.086-2.22 0.395-4.15 1.77-1.45 1.03-1.76 1.31-1.76 1.55 0 0.101 0.26 0.852 0.579 1.67 0.318 0.817 0.909 2.34 1.31 3.39 2.98 7.74 2.93 7.64 3.61 8.16 0.173 0.132 0.554 0.3 0.846 0.374 0.437 0.11 0.547 0.182 0.621 0.402 0.19 0.569 0.276 0.555-3.29 0.555-1.8 0-3.34-0.027-3.43-0.059-0.103-0.04-0.155-0.182-0.155-0.425v-0.366l0.72-0.101c0.948-0.133 1.28-0.294 1.32-0.645 0.031-0.272-1.06-3.42-1.33-3.86-0.111-0.177-0.228-0.22-0.593-0.22-0.393 0-0.496 0.046-0.764 0.338-0.479 0.522-1.24 0.778-2.67 0.897-0.646 0.054-1.03-0.144-1.44-0.741-0.148-0.214-0.296-0.391-0.329-0.393-0.119-7e-3 -1.01 2.75-1.12 3.45-0.059 0.396-0.039 0.478 0.175 0.691 0.265 0.265 0.723 0.422 1.51 0.517 0.486 0.059 0.518 0.08 0.608 0.409 0.167 0.604 0.605 0.465-2.15 0.465-1.45 0-2.58 0.041-2.74 0.1-0.145 0.055-0.164 0.028-0.362 0.199-0.722 0.626-0.72 0.623-1.04 0.767-0.72 0.324-0.709 0.383-1.55 0.544-0.715 0.137-0.721 0.141-1.38-0.02zm10.8-6.87c0.586-0.641 0.817-1.29 0.603-1.69-0.175-0.328-0.32-0.375-0.684-0.225-0.504 0.209-1.07 1.19-0.917 1.59 0.08 0.208 0.334 0.294 0.488 0.166 0.088-0.073 0.145-0.073 0.189 0 0.035 0.057-5e-3 0.125-0.089 0.151s-0.217 0.068-0.296 0.093c-0.082 0.025-0.267-0.106-0.431-0.304-0.276-0.335-0.292-0.341-0.395-0.149-0.141 0.264-0.136 0.634 0 0.78 0.065 0.065 0.324 0.117 0.577 0.117 0.432 0 0.489-0.032 0.943-0.529zm1.25-0.468c0.268-0.29 0.587-0.646 0.707-0.792 0.121-0.146 0.286-0.265 0.367-0.265 0.195 0-0.042-0.745-0.042-0.745l-2.1-5.12s-0.203 0.045-1.52 3.47c-0.206 0.538-0.49 1.28-0.629 1.64-0.14 0.364-0.254 0.702-0.254 0.752s0.187 0.105 0.416 0.121c0.321 0.023 0.438 0.08 0.512 0.25 0.053 0.121 0.119 0.218 0.147 0.215s0.182-0.212 0.344-0.465c0.535-0.837 1.33-0.988 1.62-0.306 0.129 0.312 0.037 0.692-0.359 1.48-0.127 0.254-0.231 0.486-0.231 0.516 0 0.151 0.597-0.286 1.03-0.752z" style="fill-opacity:.145"/>
 <path d="m13.6 33.5c-0.814-0.199-0.89-0.205-1.55-0.846-1.28-1.25-1.54-2.7-0.705-4.05 0.399-0.649 0.791-0.918 1.35-0.924 0.381-4e-3 0.462 0.031 0.593 0.263 0.262 0.462 0.073 0.604-0.833 0.626-0.709 0.018-0.789 0.04-0.981 0.282-0.446 0.56-0.361 1.92 0.17 2.69 0.564 0.819 1.06 1.18 2.17 1.46 0.654 0.17 1.52 0.248 1.92 0.059 0.226-0.107 0.716-0.602 0.935-1.19 0.368-0.984 0.104-0.989 0.885-1.75 0.825-0.804 0.894-0.76 1.64-1.1l0.132-0.06 0.439-1.12c0.241-0.619 0.475-1.21 0.518-1.32 0.044-0.108 0.22-0.57 0.392-1.03s0.348-0.919 0.392-1.03c0.214-0.525 0.618-1.59 0.687-1.81 0.208-0.662 1.31-3.45 1.59-4.01 0.485-0.983 1.28-1.71 2.52-2.31 0.565-0.274 1.11-0.589 1.2-0.699 0.177-0.199 0.175-0.2-0.573-0.27-2.27-0.213-4.12 0.454-5.55 2-0.891 0.962-1.56 2.33-1.84 3.75-0.071 0.365-0.194 0.717-0.273 0.783-0.126 0.104-0.136 0.012-0.08-0.718 0.068-0.888 0.324-1.81 0.681-2.44 0.966-1.72 2.43-2.94 4.23-3.53 0.564-0.186 0.9-0.226 1.91-0.228 0.755-2e-3 1.4 0.048 1.68 0.131l0.462 0.134 1.01-0.498c0.557-0.274 1.43-0.635 1.94-0.802 0.782-0.257 1.07-0.304 1.9-0.305 1.89-2e-3 3 0.764 3.26 2.25 0.091 0.514 0.032 1.2-0.114 1.35-0.138 0.138-0.274-0.122-0.232-0.445 0.063-0.489-0.104-1.37-0.329-1.74-0.425-0.693-1.38-1.06-2.59-0.987-1.49 0.086-2.22 0.395-4.15 1.77-1.45 1.03-1.76 1.31-1.76 1.55 0 0.101 0.26 0.852 0.579 1.67 0.318 0.817 0.909 2.34 1.31 3.39 2.98 7.74 2.93 7.64 3.61 8.16 0.173 0.132 0.554 0.3 0.846 0.374 0.437 0.11 0.547 0.182 0.621 0.402 0.19 0.569 0.276 0.555-3.29 0.555-1.8 0-3.34-0.027-3.43-0.059-0.103-0.04-0.155-0.182-0.155-0.425v-0.366l0.72-0.101c0.948-0.133 1.28-0.294 1.32-0.645 0.031-0.272-1.06-3.42-1.33-3.86-0.111-0.177-0.228-0.22-0.593-0.22-0.393 0-0.496 0.046-0.764 0.338-0.479 0.522-1.24 0.778-2.67 0.897-0.646 0.054-1.03-0.144-1.44-0.741-0.148-0.214-0.296-0.391-0.329-0.393-0.119-7e-3 -1.01 2.75-1.12 3.45-0.059 0.396-0.039 0.478 0.175 0.691 0.265 0.265 0.723 0.422 1.51 0.517 0.486 0.058 0.518 0.08 0.608 0.409 0.167 0.604 0.605 0.465-2.15 0.465-1.45 0-2.58 0.041-2.74 0.1-0.145 0.055-0.164 0.028-0.362 0.199-0.722 0.626-0.72 0.623-1.04 0.767-0.72 0.324-0.709 0.383-1.55 0.544-0.715 0.137-0.721 0.141-1.38-0.02zm10.8-6.87c0.586-0.641 0.817-1.29 0.603-1.69-0.175-0.328-0.32-0.375-0.684-0.225-0.504 0.209-1.07 1.19-0.917 1.59 0.08 0.208 0.334 0.294 0.488 0.166 0.088-0.073 0.145-0.073 0.189 0 0.035 0.057-5e-3 0.125-0.089 0.151s-0.217 0.068-0.296 0.093c-0.082 0.025-0.267-0.106-0.431-0.304-0.276-0.335-0.292-0.341-0.395-0.149-0.141 0.264-0.136 0.634 0 0.78 0.065 0.065 0.324 0.117 0.577 0.117 0.432 0 0.489-0.032 0.943-0.529zm1.25-0.468c0.268-0.29 0.587-0.646 0.707-0.792 0.121-0.146 0.286-0.265 0.367-0.265 0.195 0 0.186-0.17-0.042-0.745-0.104-0.263-0.591-1.5-1.08-2.74-0.491-1.25-0.952-2.32-1.02-2.38-0.135-0.112-0.203 0.045-1.52 3.47-0.206 0.538-0.49 1.28-0.629 1.64-0.14 0.364-0.254 0.702-0.254 0.752s0.187 0.105 0.416 0.121c0.321 0.023 0.438 0.08 0.512 0.25 0.053 0.121 0.119 0.218 0.147 0.215s0.182-0.212 0.344-0.465c0.535-0.837 1.33-0.988 1.62-0.306 0.129 0.312 0.037 0.692-0.359 1.48-0.127 0.254-0.231 0.486-0.231 0.516 0 0.151 0.597-0.286 1.03-0.752z" style="fill:#fff"/>
</svg>
