<svg version="1.1" viewBox="0 0 48 48" xmlns="http://www.w3.org/2000/svg">
 <defs>
  <linearGradient id="bg" x2="0" y1="1" y2="47" gradientUnits="userSpaceOnUse">
   <stop style="stop-color:#3d3d3d" offset="0"/>
   <stop style="stop-color:#303030" offset="1"/>
  </linearGradient>
 </defs>
 <path d="m36.31 5c5.859 4.062 9.688 10.831 9.688 18.5 0 12.426-10.07 22.5-22.5 22.5-7.669 0-14.438-3.828-18.5-9.688 1.037 1.822 2.306 3.499 3.781 4.969 4.085 3.712 9.514 5.969 15.469 5.969 12.703 0 23-10.298 23-23 0-5.954-2.256-11.384-5.969-15.469-1.469-1.475-3.147-2.744-4.969-3.781zm4.969 3.781c3.854 4.113 6.219 9.637 6.219 15.719 0 12.703-10.297 23-23 23-6.081 0-11.606-2.364-15.719-6.219 4.16 4.144 9.883 6.719 16.219 6.719 12.703 0 23-10.298 23-23 0-6.335-2.575-12.06-6.719-16.219z" style="opacity:.05"/>
 <path d="m41.28 8.781c3.712 4.085 5.969 9.514 5.969 15.469 0 12.703-10.297 23-23 23-5.954 0-11.384-2.256-15.469-5.969 4.113 3.854 9.637 6.219 15.719 6.219 12.703 0 23-10.298 23-23 0-6.081-2.364-11.606-6.219-15.719z" style="opacity:.1"/>
 <path d="m31.25 2.375c8.615 3.154 14.75 11.417 14.75 21.13 0 12.426-10.07 22.5-22.5 22.5-9.708 0-17.971-6.135-21.12-14.75a23 23 0 0 0 44.875-7 23 23 0 0 0-16-21.875z" style="opacity:.2"/>
 <circle cx="24" cy="24" r="23" style="fill:url(#bg)"/>
 <path d="m25 36 14-14s-5-6-14-6-14 6-14 6z" style="opacity:.1"/>
 <path d="m40.03 7.531c3.712 4.084 5.969 9.514 5.969 15.469 0 12.703-10.297 23-23 23-5.954 0-11.384-2.256-15.469-5.969 4.178 4.291 10.01 6.969 16.469 6.969 12.703 0 23-10.298 23-23 0-6.462-2.677-12.291-6.969-16.469z" style="opacity:.1"/>
 <path d="m24 35 14-14s-5-6-14-6-14 6-14 6z" style="fill:#74ef96"/>
 <path d="m24 20c-5.1634 0-9.0023 1.9725-11.344 3.6562l11.344 11.344 11.344-11.344c-2.3414-1.6837-6.1803-3.6562-11.344-3.6562z" style="fill:#26e641"/>
 <path d="m24 25c-3.2788 0-6.0188 0.80008-8.1875 1.8125l8.1875 8.1875 8.1875-8.1875c-2.1687-1.0124-4.9088-1.8125-8.1875-1.8125z" style="fill:#14ad25"/>
 <path d="m24 29c-1.9505 0-3.701 0.2929-5.2656 0.73438l5.2656 5.2656 5.2656-5.2656c-1.5646-0.44148-3.3151-0.73438-5.2656-0.73438z" style="fill:#18810e"/>
 <path d="m24 15c-0.34286 0-0.6688 0.02426-1 0.04102v18.959l1 1 1-1v-18.959c-0.3312-0.01675-0.65714-0.04102-1-0.04102zm1 19 2.7773-2.7773 6.2227-13.223v-0.22266c-0.33959-0.20435-0.70102-0.40382-1.082-0.60156l-7.918 16.824zm-2 0-7.918-16.824c-0.38101 0.19775-0.74244 0.39721-1.082 0.60156v0.22266l6.2227 13.223 2.7773 2.7773z" style="fill:#bff8ce;paint-order:stroke fill markers"/>
 <path d="m24 15c-9 0-14 6-14 6l0.48828 0.48828c1.3968-1.4128 6.0556-5.4883 13.512-5.4883s12.115 4.0755 13.512 5.4883l0.48828-0.48828s-5-6-14-6z" style="fill:#bff8ce"/>
 <path d="m24 20c-5.1634 0-9.0023 1.9725-11.344 3.6562l0.5918 0.5918c2.3582-1.5747 5.9714-3.248 10.752-3.248s8.3937 1.6733 10.752 3.248l0.5918-0.5918c-2.3414-1.6837-6.1803-3.6562-11.344-3.6562zm0 5c-3.2788 0-6.0188 0.80008-8.1875 1.8125l0.6875 0.6875c2.0455-0.85869 4.5498-1.5 7.5-1.5s5.4545 0.64131 7.5 1.5l0.6875-0.6875c-2.1687-1.0124-4.9088-1.8125-8.1875-1.8125zm0 4c-1.9505 0-3.701 0.2929-5.2656 0.73438l0.78711 0.78711c1.3585-0.3195 2.8475-0.52148 4.4785-0.52148s3.1201 0.20198 4.4785 0.52148l0.78711-0.78711c-1.5646-0.44148-3.3151-0.73438-5.2656-0.73438z" style="fill:#bff8ce"/>
 <circle cx="27" cy="26" r="1" style="fill:#f9f9f9;paint-order:stroke fill markers"/>
</svg>
