<svg xmlns="http://www.w3.org/2000/svg" viewBox="0 0 48 48">
 <defs>
  <linearGradient id="linearGradient3128" gradientUnits="userSpaceOnUse" gradientTransform="matrix(0,-1,1,0,-1.5e-6,47.999998)" x1="1" x2="47">
   <stop style="stop-color:#463b6b;stop-opacity:1"/>
   <stop offset="1" style="stop-color:#4f4277;stop-opacity:1"/>
  </linearGradient>
 </defs>
 <g>
  <path d="m 36.31 5 c 5.859 4.062 9.688 10.831 9.688 18.5 c 0 12.426 -10.07 22.5 -22.5 22.5 c -7.669 0 -14.438 -3.828 -18.5 -9.688 c 1.037 1.822 2.306 3.499 3.781 4.969 c 4.085 3.712 9.514 5.969 15.469 5.969 c 12.703 0 23 -10.298 23 -23 c 0 -5.954 -2.256 -11.384 -5.969 -15.469 c -1.469 -1.475 -3.147 -2.744 -4.969 -3.781 z m 4.969 3.781 c 3.854 4.113 6.219 9.637 6.219 15.719 c 0 12.703 -10.297 23 -23 23 c -6.081 0 -11.606 -2.364 -15.719 -6.219 c 4.16 4.144 9.883 6.719 16.219 6.719 c 12.703 0 23 -10.298 23 -23 c 0 -6.335 -2.575 -12.06 -6.719 -16.219 z" style="opacity:0.05"/>
  <path d="m 41.28 8.781 c 3.712 4.085 5.969 9.514 5.969 15.469 c 0 12.703 -10.297 23 -23 23 c -5.954 0 -11.384 -2.256 -15.469 -5.969 c 4.113 3.854 9.637 6.219 15.719 6.219 c 12.703 0 23 -10.298 23 -23 c 0 -6.081 -2.364 -11.606 -6.219 -15.719 z" style="opacity:0.1"/>
  <path d="m 31.25 2.375 c 8.615 3.154 14.75 11.417 14.75 21.13 c 0 12.426 -10.07 22.5 -22.5 22.5 c -9.708 0 -17.971 -6.135 -21.12 -14.75 a 23 23 0 0 0 44.875 -7 a 23 23 0 0 0 -16 -21.875 z" style="opacity:0.2"/>
 </g>
 <path d="m 24 1 c -12.693 0 -22.983 10.28 -23 22.969 14.593 11.995 32.794 14.854 44.594 7.938 0.903 -2.466 1.406 -5.127 1.406 -7.906 c 0 -12.703 -10.297 -23 -23 -23 z" style="fill:url(#linearGradient3128);fill-opacity:1"/>
 <path d="m 1 23.969 c 0 0.01 0 0.021 0 0.031 c 0 12.703 10.297 23 23 23 c 9.924 0 18.369 -6.287 21.594 -15.09 c -15.664 2.748 -30.1 -4.993 -44.594 -7.938 z" style="fill:#2d2d2d;fill-opacity:1;stroke:none;fill-rule:nonzero"/>
 <path d="m 31.32 11 c 2.793 2.23 3.84 6.156 2.32 9.586 c -1.523 3.43 -5.13 5.262 -8.646 4.66 c 0.516 0.41 1.096 0.77 1.725 1.055 c 4.04 1.813 8.773 -0.008 10.578 -4.07 c 1.805 -4.059 -0.01 -8.82 -4.049 -10.629 l 0.002 -0.012 c -0.629 -0.281 -1.277 -0.477 -1.93 -0.59 z m -17.313 2 c -0.262 -0.001 -0.534 0.965 -0.746 1.125 c -0.212 0.16 -1.174 0.121 -1.256 0.381 c -0.082 0.26 0.713 0.827 0.793 1.088 c 0.08 0.261 -0.254 1.205 -0.043 1.367 c 0.211 0.162 0.975 -0.452 1.236 -0.451 c 0.262 0.001 1.018 0.625 1.23 0.465 c 0.212 -0.16 -0.113 -1.109 -0.031 -1.369 c 0.082 -0.26 0.882 -0.819 0.803 -1.08 c -0.08 -0.261 -1.041 -0.231 -1.252 -0.393 c -0.211 -0.162 -0.473 -1.132 -0.734 -1.133 z m 11 0 c -0.262 -0.001 -0.534 0.965 -0.746 1.125 c -0.212 0.16 -1.174 0.121 -1.256 0.381 c -0.082 0.26 0.713 0.827 0.793 1.088 c 0.08 0.261 -0.254 1.205 -0.043 1.367 c 0.211 0.162 0.975 -0.452 1.236 -0.451 c 0.262 0.001 1.018 0.625 1.23 0.465 c 0.212 -0.16 -0.113 -1.109 -0.031 -1.369 c 0.082 -0.26 0.882 -0.819 0.803 -1.08 c -0.08 -0.261 -1.041 -0.231 -1.252 -0.393 c -0.211 -0.162 -0.473 -1.132 -0.734 -1.133 z m -5 5 c -0.262 -0.001 -0.534 0.965 -0.746 1.125 c -0.212 0.16 -1.174 0.121 -1.256 0.381 c -0.082 0.26 0.713 0.827 0.793 1.088 c 0.08 0.261 -0.254 1.205 -0.043 1.367 c 0.211 0.162 0.975 -0.452 1.236 -0.451 c 0.262 0.001 1.018 0.625 1.23 0.465 c 0.212 -0.16 -0.113 -1.109 -0.031 -1.369 c 0.082 -0.26 0.882 -0.819 0.803 -1.08 c -0.08 -0.261 -1.041 -0.231 -1.252 -0.393 c -0.211 -0.162 -0.473 -1.132 -0.734 -1.133 z" style="fill:#000;opacity:0.1;fill-opacity:1;stroke:none;fill-rule:nonzero"/>
 <path d="M 32.25,10.59 C 31.621,10.309 30.973,10.113 30.32,10 c 2.793,2.23 3.84,6.156 2.32,9.586 -1.523,3.43 -5.129,5.262 -8.645,4.66 0.516,0.41 1.094,0.77 1.723,1.055 4.04,1.813 8.773,-0.008 10.578,-4.07 1.805,-4.059 -0.008,-8.82 -4.047,-10.629 m 0,-0.012" style="fill:#f9f9f9;fill-opacity:1;stroke:none;fill-rule:nonzero"/>
 <g>
  <path d="m 40.03 7.531 c 3.712 4.084 5.969 9.514 5.969 15.469 0 12.703 -10.297 23 -23 23 c -5.954 0 -11.384 -2.256 -15.469 -5.969 4.178 4.291 10.01 6.969 16.469 6.969 c 12.703 0 23 -10.298 23 -23 0 -6.462 -2.677 -12.291 -6.969 -16.469 z" style="opacity:0.1"/>
 </g>
 <path d="m 25.22 15.974 c -0.212 0.16 -0.969 -0.463 -1.23 -0.464 -0.262 -0.001 -1.024 0.614 -1.235 0.452 -0.211 -0.162 0.122 -1.107 0.042 -1.368 -0.08 -0.261 -0.875 -0.828 -0.793 -1.088 0.082 -0.26 1.044 -0.221 1.256 -0.381 0.212 -0.16 0.483 -1.126 0.745 -1.125 0.262 0.001 0.524 0.97 0.734 1.132 0.211 0.162 1.173 0.132 1.253 0.393 0.08 0.261 -0.721 0.821 -0.803 1.081 -0.082 0.26 0.242 1.208 0.03 1.368 z" style="fill:#f9f9f9;opacity:1;fill-opacity:1;stroke:none"/>
 <path d="m 20.222 20.974 c -0.212 0.16 -0.969 -0.463 -1.23 -0.464 -0.262 -0.001 -1.024 0.614 -1.235 0.452 -0.211 -0.162 0.122 -1.107 0.042 -1.368 -0.08 -0.261 -0.875 -0.828 -0.793 -1.088 0.082 -0.26 1.044 -0.221 1.256 -0.381 0.212 -0.16 0.483 -1.126 0.745 -1.125 0.262 0.001 0.524 0.97 0.734 1.132 0.211 0.162 1.173 0.132 1.253 0.393 0.08 0.261 -0.721 0.821 -0.803 1.081 -0.082 0.26 0.242 1.208 0.03 1.368 z" style="fill:#f9f9f9;opacity:1;fill-opacity:1;stroke:none"/>
 <path d="m 14.222 15.974 c -0.212 0.16 -0.969 -0.463 -1.23 -0.464 -0.262 -0.001 -1.024 0.614 -1.235 0.452 -0.211 -0.162 0.122 -1.107 0.042 -1.368 -0.08 -0.261 -0.875 -0.828 -0.793 -1.088 0.082 -0.26 1.044 -0.221 1.256 -0.381 0.212 -0.16 0.483 -1.126 0.745 -1.125 0.262 0.001 0.524 0.97 0.734 1.132 0.211 0.162 1.173 0.132 1.253 0.393 0.08 0.261 -0.721 0.821 -0.803 1.081 -0.082 0.26 0.242 1.208 0.03 1.368 z" style="fill:#f9f9f9;opacity:1;fill-opacity:1;stroke:none"/>
</svg>
