<svg version="1.1" viewBox="0 0 48 48" xmlns="http://www.w3.org/2000/svg">
 <defs>
  <linearGradient id="bg" x2="0" y1="1" y2="47" gradientUnits="userSpaceOnUse">
   <stop style="stop-color:#7e9cb9" offset="0"/>
   <stop style="stop-color:#7191b1" offset="1"/>
  </linearGradient>
 </defs>
 <path d="m36.3 5c5.86 4.06 9.69 10.8 9.69 18.5 0 12.4-10.1 22.5-22.5 22.5-7.67 0-14.4-3.83-18.5-9.69 1.04 1.82 2.31 3.5 3.78 4.97 4.08 3.71 9.51 5.97 15.5 5.97 12.7 0 23-10.3 23-23 0-5.95-2.26-11.4-5.97-15.5-1.47-1.48-3.15-2.74-4.97-3.78zm4.97 3.78c3.85 4.11 6.22 9.64 6.22 15.7 0 12.7-10.3 23-23 23-6.08 0-11.6-2.36-15.7-6.22 4.16 4.14 9.88 6.72 16.2 6.72 12.7 0 23-10.3 23-23 0-6.34-2.58-12.1-6.72-16.2z" style="opacity:.05"/>
 <path d="m41.3 8.78c3.71 4.08 5.97 9.51 5.97 15.5 0 12.7-10.3 23-23 23-5.95 0-11.4-2.26-15.5-5.97 4.11 3.85 9.64 6.22 15.7 6.22 12.7 0 23-10.3 23-23 0-6.08-2.36-11.6-6.22-15.7z" style="opacity:.1"/>
 <path d="m31.2 2.38c8.62 3.15 14.8 11.4 14.8 21.1 0 12.4-10.1 22.5-22.5 22.5-9.71 0-18-6.14-21.1-14.8a23 23 0 0 0 44.9-7 23 23 0 0 0-16-21.9z" style="opacity:.2"/>
 <circle cx="24" cy="24" r="23" style="fill:url(#bg)"/>
 <path d="m29.5 12-0.5 3c0 4-2 5-2 7v-2c0-1.11-1-3-2-4v-1.5c0-0.277-0.223-0.5-0.5-0.5h-2l-2.5 15h-1v-10h-7l-1 11.5v1c0 0.277 0.223 0.5 0.5 0.5h3.45l2.05 4h1v-4h14v4l1 0.00195 2.05-4h3.45c0.277 0 0.5-0.223 0.5-0.5v-1c0-0.277-0.223-0.499-0.5-0.5l-0.5-2e-3v-3.5c0-0.277-0.223-0.5-0.5-0.5 0.277 0 0.5-0.223 0.5-0.5v-3c0-0.277-0.223-0.5-0.5-0.5 0.277 0 0.5-0.223 0.5-0.5v-3c0-0.277-0.223-0.5-0.5-0.5h-4l-0.5 4.5c0-3.29-2-2.97-2-7.5v-2.5c0-0.277-0.223-0.5-0.5-0.5zm3.5 20h0.963l-0.963 2z" style="opacity:.1"/>
 <path d="m40 7.53c3.71 4.08 5.97 9.51 5.97 15.5 0 12.7-10.3 23-23 23-5.95 0-11.4-2.26-15.5-5.97 4.18 4.29 10 6.97 16.5 6.97 12.7 0 23-10.3 23-23 0-6.46-2.68-12.3-6.97-16.5z" style="opacity:.1"/>
 <path d="m14.4 29.8-0.895 0.447 2.45 4.78h1l-7.34e-4 -5h-1l7.34e-4 3zm19.1 0-1.55 3.22v-3h-1v5l1 2e-3 2.45-4.78z" style="fill:#666"/>
 <path d="m10.5 29h27c0.277 0 0.5 0.223 0.5 0.5v1c0 0.277-0.223 0.5-0.5 0.5h-27c-0.277 0-0.5-0.223-0.5-0.5v-1c0-0.277 0.223-0.5 0.5-0.5z" style="fill:#ceb595"/>
 <path d="m10 30v0.5c0 0.277 0.223 0.5 0.5 0.5h27c0.277 0 0.5-0.223 0.5-0.5v-0.5z" style="opacity:.2"/>
 <path d="m11 18c-0.277 0-0.5 0.223-0.5 0.5s0.223 0.5 0.5 0.5v9c-0.277 0-0.5 0.223-0.5 0.5s0.223 0.5 0.5 0.5h7c0.277 0 0.5-0.223 0.5-0.5s-0.223-0.5-0.5-0.5v-9c0.277 0 0.5-0.223 0.5-0.5s-0.223-0.5-0.5-0.5z" style="fill:#ddd;paint-order:stroke fill markers;stroke-linecap:round;stroke-linejoin:round;stroke-width:2"/>
 <path d="m11 19v1h7v-1zm0 2v1h7v-1zm0 2v1h7v-1zm0 2v1h7v-1zm0 2v1h7v-1z" style="opacity:.1"/>
 <path d="m28 14 1-1 1 1c0 4 2 5 2 7v0.5l1 1.5-1 1.5v1l1 1.5-1 1c0 0.554-0.446 1-1 1h-4c-0.554 0-1-0.446-1-1l-1-4 1-3c0-2 2-3 2-7z" style="fill:#7bd0ac"/>
 <path d="m21 15c-1 1-2 2.89-2 4v1l1 2-1 2v4c0 0.554 0.446 1 1 1h5c0.554 0 1-0.446 1-1v-4l-1-2 1-2v-1c0-1.11-1-3-2-4l-2-1z" style="fill:#fafafa;paint-order:stroke fill markers;stroke-linecap:round;stroke-linejoin:round;stroke-width:2"/>
 <path d="m21.5 13c-0.277 0-0.5 0.223-0.5 0.5v1.5h3v-1.5c0-0.277-0.223-0.5-0.5-0.5zm-2.5 7v4h7v-4z" style="fill:#eb5242"/>
 <path d="m28.5 11h1c0.277 0 0.5 0.223 0.5 0.5v2.5h-2v-2.5c0-0.277 0.223-0.5 0.5-0.5z" style="fill:#c2ab7c"/>
 <rect x="26" y="23" width="6" height="3" style="opacity:.2"/>
 <path d="m32.5 17c-0.277 0-0.5 0.223-0.5 0.5v0.5l1 1-1 1v0.5c0 0.277 0.223 0.5 0.5 0.5-0.277 0-0.5 0.223-0.5 0.5v0.5l1 1-1 1v0.5c0 0.277 0.223 0.5 0.5 0.5-0.277 0-0.5 0.223-0.5 0.5v0.5l1 1-1 1v0.5c0 0.277 0.223 0.5 0.5 0.5h4c0.277 0 0.5-0.223 0.5-0.5v-0.5l-1-1 1-1v-0.5c0-0.277-0.223-0.5-0.5-0.5 0.277 0 0.5-0.223 0.5-0.5v-0.5l-1-1 1-1v-0.5c0-0.277-0.223-0.5-0.5-0.5 0.277 0 0.5-0.223 0.5-0.5v-0.5l-1-1 1-1v-0.5c0-0.277-0.223-0.5-0.5-0.5z" style="fill:#ddd"/>
 <path d="m32 22v2h5v-2zm0 4v2h5v-2z" style="fill:#6487cd"/>
 <path d="m32 18v2h5v-2z" style="fill:#50a67a"/>
 <path d="m32 20v0.5c0 0.277 0.223 0.5 0.5 0.5h4c0.277 0 0.5-0.223 0.5-0.5v-0.5zm0 4v0.5c0 0.277 0.223 0.5 0.5 0.5h4c0.277 0 0.5-0.223 0.5-0.5v-0.5zm0 4v0.5c0 0.277 0.223 0.5 0.5 0.5h4c0.277 0 0.5-0.223 0.5-0.5v-0.5z" style="opacity:.05"/>
</svg>
