<svg version="1.1" viewBox="0 0 48 48" xmlns="http://www.w3.org/2000/svg">
 <defs>
  <linearGradient id="bg" x2="0" y1="1" y2="47" gradientUnits="userSpaceOnUse">
   <stop style="stop-color:#5e4e6f" offset="0"/>
   <stop style="stop-color:#544663" offset="1"/>
  </linearGradient>
 </defs>
 <path d="m36.31 5c5.859 4.062 9.688 10.831 9.688 18.5 0 12.426-10.07 22.5-22.5 22.5-7.669 0-14.438-3.828-18.5-9.688 1.037 1.822 2.306 3.499 3.781 4.969 4.085 3.712 9.514 5.969 15.469 5.969 12.703 0 23-10.298 23-23 0-5.954-2.256-11.384-5.969-15.469-1.469-1.475-3.147-2.744-4.969-3.781zm4.969 3.781c3.854 4.113 6.219 9.637 6.219 15.719 0 12.703-10.297 23-23 23-6.081 0-11.606-2.364-15.719-6.219 4.16 4.144 9.883 6.719 16.219 6.719 12.703 0 23-10.298 23-23 0-6.335-2.575-12.06-6.719-16.219z" style="opacity:.05"/>
 <path d="m41.28 8.781c3.712 4.085 5.969 9.514 5.969 15.469 0 12.703-10.297 23-23 23-5.954 0-11.384-2.256-15.469-5.969 4.113 3.854 9.637 6.219 15.719 6.219 12.703 0 23-10.298 23-23 0-6.081-2.364-11.606-6.219-15.719z" style="opacity:.1"/>
 <path d="m31.25 2.375c8.615 3.154 14.75 11.417 14.75 21.13 0 12.426-10.07 22.5-22.5 22.5-9.708 0-17.971-6.135-21.12-14.75a23 23 0 0 0 44.875-7 23 23 0 0 0-16-21.875z" style="opacity:.2"/>
 <circle cx="24" cy="24" r="23" style="fill:url(#bg)"/>
 <path d="m11 23c-1.1046 0-2 0.89543-2 2s0.89543 2 2 2h0.25781c0.88346 3.4572 4.0097 6.0001 7.7422 6 1.9484-4.1e-5 3.8297-0.71127 5.291-2h11.209c1.5 0 2.5-1.784 2.5-4v-4c0-2.216-1-4-2.5-4zm0 1c0.55228 0 1 0.44772 1 1s-0.44772 1-1 1-1-0.44772-1-1 0.44772-1 1-1z" style="opacity:.1"/>
 <path d="m40.03 7.531c3.712 4.084 5.969 9.514 5.969 15.469 0 12.703-10.297 23-23 23-5.954 0-11.384-2.256-15.469-5.969 4.178 4.291 10.01 6.969 16.469 6.969 12.703 0 23-10.298 23-23 0-6.462-2.677-12.291-6.969-16.469z" style="opacity:.1"/>
 <path d="m18 16c-3.7325-7.8e-5 -6.8587 2.5428-7.7422 6h-0.25781c-1.1046 0-2 0.89543-2 2s0.89543 2 2 2h0.25781c0.88346 3.4572 4.0097 6.0001 7.7422 6 1.9484-4.1e-5 3.8297-0.71127 5.291-2h11.209c1.5 0 2.5-1.784 2.5-4v-4c0-2.216-1-4-2.5-4h-11.209c-1.4613-1.2887-3.3426-2-5.291-2zm-8 7c0.55228 0 1 0.44772 1 1s-0.44772 1-1 1-1-0.44772-1-1 0.44772-1 1-1z" style="fill:#bfbfbf"/>
 <circle cx="18" cy="24" r="5" style="fill:#6161bc"/>
 <rect x="25" y="21" width="10" height="4" rx="1" ry="1" style="fill:#7a7a7a"/>
 <rect x="15" y="21" width="6" height="2" rx="1" ry="1" style="fill:#d92642"/>
 <rect x="28" y="26" width="7" height="2" ry="1" style="fill:#8a8a8a"/>
</svg>
