<svg xmlns="http://www.w3.org/2000/svg" viewBox="0 0 48 48">
 <defs>
  <linearGradient id="linearGradient3764" x1="1" x2="47" gradientUnits="userSpaceOnUse" gradientTransform="matrix(0,-1,1,0,-1.5e-6,47.999998)">
   <stop style="stop-color:#5d5a57;stop-opacity:1"/>
   <stop offset="1" style="stop-color:#676460;stop-opacity:1"/>
  </linearGradient>
 </defs>
 <g>
  <path d="m 36.31 5 c 5.859 4.062 9.688 10.831 9.688 18.5 c 0 12.426 -10.07 22.5 -22.5 22.5 c -7.669 0 -14.438 -3.828 -18.5 -9.688 c 1.037 1.822 2.306 3.499 3.781 4.969 c 4.085 3.712 9.514 5.969 15.469 5.969 c 12.703 0 23 -10.298 23 -23 c 0 -5.954 -2.256 -11.384 -5.969 -15.469 c -1.469 -1.475 -3.147 -2.744 -4.969 -3.781 z m 4.969 3.781 c 3.854 4.113 6.219 9.637 6.219 15.719 c 0 12.703 -10.297 23 -23 23 c -6.081 0 -11.606 -2.364 -15.719 -6.219 c 4.16 4.144 9.883 6.719 16.219 6.719 c 12.703 0 23 -10.298 23 -23 c 0 -6.335 -2.575 -12.06 -6.719 -16.219 z" style="opacity:0.05"/>
  <path d="m 41.28 8.781 c 3.712 4.085 5.969 9.514 5.969 15.469 c 0 12.703 -10.297 23 -23 23 c -5.954 0 -11.384 -2.256 -15.469 -5.969 c 4.113 3.854 9.637 6.219 15.719 6.219 c 12.703 0 23 -10.298 23 -23 c 0 -6.081 -2.364 -11.606 -6.219 -15.719 z" style="opacity:0.1"/>
  <path d="m 31.25 2.375 c 8.615 3.154 14.75 11.417 14.75 21.13 c 0 12.426 -10.07 22.5 -22.5 22.5 c -9.708 0 -17.971 -6.135 -21.12 -14.75 a 23 23 0 0 0 44.875 -7 a 23 23 0 0 0 -16 -21.875 z" style="opacity:0.2"/>
 </g>
 <g>
  <path d="m 24 1 c 12.703 0 23 10.297 23 23 c 0 12.703 -10.297 23 -23 23 -12.703 0 -23 -10.297 -23 -23 0 -12.703 10.297 -23 23 -23 z" style="fill:url(#linearGradient3764);fill-opacity:1"/>
 </g>
 <g>
  <g>
   <g transform="translate(1,1)">
    <g style="opacity:0.1">
     <!-- color: #676460 -->
     <g>
      <path d="m 25.05 11.09 c -2.531 -0.324 -5.324 0.172 -7.488 1.75 c -1.078 0.789 -1.957 1.805 -2.457 3.02 c -0.504 1.219 -0.609 2.582 -0.223 3.891 c 0.289 0.992 0.887 1.895 1.563 2.625 c 0.676 0.727 1.418 1.297 2.234 1.75 c 1.629 0.91 3.359 1.367 4.805 1.75 c 1.438 0.387 2.625 0.68 3.578 1.168 c 0.914 0.473 1.664 1.121 1.902 1.75 c 0.16 0.434 0.164 1.063 0 1.555 c -0.172 0.5 -0.543 0.984 -1.012 1.363 c -0.93 0.758 -2.43 1.066 -3.914 0.973 c -2.113 -0.133 -4.195 -1.121 -5.473 -2.727 c -0.77 -0.992 -2.32 -1.254 -3.465 -0.582 c -1.141 0.672 -1.441 2.02 -0.672 3.02 c 2.137 2.676 5.574 4.34 9.27 4.57 c 2.641 0.164 5.461 -0.395 7.602 -2.141 c 1.066 -0.875 1.902 -2.023 2.348 -3.309 c 0.441 -1.293 0.5 -2.652 0 -3.992 c -0.723 -1.922 -2.352 -3.32 -4.02 -4.184 c -1.641 -0.848 -3.277 -1.273 -4.691 -1.656 c -1.41 -0.379 -2.664 -0.656 -3.578 -1.164 c -0.453 -0.25 -0.832 -0.57 -1.117 -0.875 c -0.277 -0.301 -0.469 -0.66 -0.559 -0.973 c -0.117 -0.406 -0.07 -0.922 0.113 -1.363 c 0.184 -0.445 0.563 -0.848 1.012 -1.164 c 0.875 -0.641 2.242 -0.949 3.578 -0.781 c 1.563 0.203 3.105 0.98 4.133 2.141 c 0.535 0.621 1.41 0.945 2.293 0.848 c 0.887 -0.102 1.641 -0.605 1.977 -1.324 c 0.332 -0.719 0.199 -1.543 -0.355 -2.145 c -1.805 -2.047 -4.465 -3.422 -7.375 -3.797 m -0.004 0.016" style="fill:#000;fill-opacity:1;stroke:none;fill-rule:nonzero"/>
     </g>
    </g>
   </g>
  </g>
 </g>
 <g>
  <g>
   <!-- color: #676460 -->
   <g>
    <path d="m 25.05 11.09 c -2.531 -0.324 -5.324 0.172 -7.488 1.75 c -1.078 0.789 -1.957 1.805 -2.457 3.02 c -0.504 1.219 -0.609 2.582 -0.223 3.891 c 0.289 0.992 0.887 1.895 1.563 2.625 c 0.676 0.727 1.418 1.297 2.234 1.75 c 1.629 0.91 3.359 1.367 4.805 1.75 c 1.438 0.387 2.625 0.68 3.578 1.168 c 0.914 0.473 1.664 1.121 1.902 1.75 c 0.16 0.434 0.164 1.063 0 1.555 c -0.172 0.5 -0.543 0.984 -1.012 1.363 c -0.93 0.758 -2.43 1.066 -3.914 0.973 c -2.113 -0.133 -4.195 -1.121 -5.473 -2.727 c -0.77 -0.992 -2.32 -1.254 -3.465 -0.582 c -1.141 0.672 -1.441 2.02 -0.672 3.02 c 2.137 2.676 5.574 4.34 9.27 4.57 c 2.641 0.164 5.461 -0.395 7.602 -2.141 c 1.066 -0.875 1.902 -2.023 2.348 -3.309 c 0.441 -1.293 0.5 -2.652 0 -3.992 c -0.723 -1.922 -2.352 -3.32 -4.02 -4.184 c -1.641 -0.848 -3.277 -1.273 -4.691 -1.656 c -1.41 -0.379 -2.664 -0.656 -3.578 -1.164 c -0.453 -0.25 -0.832 -0.57 -1.117 -0.875 c -0.277 -0.301 -0.469 -0.66 -0.559 -0.973 c -0.117 -0.406 -0.07 -0.922 0.113 -1.363 c 0.184 -0.445 0.563 -0.848 1.012 -1.164 c 0.875 -0.641 2.242 -0.949 3.578 -0.781 c 1.563 0.203 3.105 0.98 4.133 2.141 c 0.535 0.621 1.41 0.945 2.293 0.848 c 0.887 -0.102 1.641 -0.605 1.977 -1.324 c 0.332 -0.719 0.199 -1.543 -0.355 -2.145 c -1.805 -2.047 -4.465 -3.422 -7.375 -3.797 m -0.004 0.016" style="fill:#ff9c2f;fill-opacity:1;stroke:none;fill-rule:nonzero"/>
   </g>
  </g>
 </g>
 <g>
  <path d="m 40.03 7.531 c 3.712 4.084 5.969 9.514 5.969 15.469 0 12.703 -10.297 23 -23 23 c -5.954 0 -11.384 -2.256 -15.469 -5.969 4.178 4.291 10.01 6.969 16.469 6.969 c 12.703 0 23 -10.298 23 -23 0 -6.462 -2.677 -12.291 -6.969 -16.469 z" style="opacity:0.1"/>
 </g>
</svg>
