<svg xmlns="http://www.w3.org/2000/svg" viewBox="0 0 48 48">
 <defs>
  <linearGradient id="linearGradient3764" x1="1" x2="47" gradientUnits="userSpaceOnUse" gradientTransform="matrix(0,-1,1,0,-1.5e-6,47.999998)">
   <stop style="stop-color:#204a87;stop-opacity:1"/>
   <stop offset="1" style="stop-color:#245398;stop-opacity:1"/>
  </linearGradient>
 </defs>
 <g>
  <path d="m 36.31 5 c 5.859 4.062 9.688 10.831 9.688 18.5 c 0 12.426 -10.07 22.5 -22.5 22.5 c -7.669 0 -14.438 -3.828 -18.5 -9.688 c 1.037 1.822 2.306 3.499 3.781 4.969 c 4.085 3.712 9.514 5.969 15.469 5.969 c 12.703 0 23 -10.298 23 -23 c 0 -5.954 -2.256 -11.384 -5.969 -15.469 c -1.469 -1.475 -3.147 -2.744 -4.969 -3.781 z m 4.969 3.781 c 3.854 4.113 6.219 9.637 6.219 15.719 c 0 12.703 -10.297 23 -23 23 c -6.081 0 -11.606 -2.364 -15.719 -6.219 c 4.16 4.144 9.883 6.719 16.219 6.719 c 12.703 0 23 -10.298 23 -23 c 0 -6.335 -2.575 -12.06 -6.719 -16.219 z" style="opacity:0.05"/>
  <path d="m 41.28 8.781 c 3.712 4.085 5.969 9.514 5.969 15.469 c 0 12.703 -10.297 23 -23 23 c -5.954 0 -11.384 -2.256 -15.469 -5.969 c 4.113 3.854 9.637 6.219 15.719 6.219 c 12.703 0 23 -10.298 23 -23 c 0 -6.081 -2.364 -11.606 -6.219 -15.719 z" style="opacity:0.1"/>
  <path d="m 31.25 2.375 c 8.615 3.154 14.75 11.417 14.75 21.13 c 0 12.426 -10.07 22.5 -22.5 22.5 c -9.708 0 -17.971 -6.135 -21.12 -14.75 a 23 23 0 0 0 44.875 -7 a 23 23 0 0 0 -16 -21.875 z" style="opacity:0.2"/>
 </g>
 <g>
  <path d="m 6.725 8.824 c 0 0 -0.002 0 -0.002 0 c -3.56 4.05 -5.723 9.359 -5.723 15.176 0 12.703 10.297 23 23 23 12.703 0 23 -10.297 23 -23 0 -5.918 -2.236 -11.313 -5.908 -15.389 -12.647 -3.648 -23.16 -4.304 -34.37 0.213" style="fill:url(#linearGradient3764);fill-opacity:1"/>
  <path d="m 24 1 c -6.886 0 -13.06 3.03 -17.277 7.824 5.587 -1.417 12.801 -2.299 18.277 -1.324 6.01 1.07 11.157 1.789 16.09 1.111 -4.21 -4.673 -10.307 -7.611 -17.09 -7.611" style="fill:#e7e5d1;fill-opacity:1"/>
 </g>
 <g>
  <path d="m 40.03 7.531 c 3.712 4.084 5.969 9.514 5.969 15.469 0 12.703 -10.297 23 -23 23 c -5.954 0 -11.384 -2.256 -15.469 -5.969 4.178 4.291 10.01 6.969 16.469 6.969 c 12.703 0 23 -10.298 23 -23 0 -6.462 -2.677 -12.291 -6.969 -16.469 z" style="opacity:0.1"/>
 </g>
 <path d="m 17.613 38.439 c -0.022 -1.08 0.096 -2.664 -0.015 -3.738 -0.146 -0.526 -0.292 -1.052 -0.437 -1.578 0.49 -0.482 1.13 -0.891 1.525 -1.418 0.311 -0.666 0.497 -1.388 0.887 -2.02 l 2.137 -2.2 -0.842 -5.145 -1.372 1.546 -2.496 -0.598 c 0.594 -1.953 1.187 -3.904 1.781 -5.857 0.542 -0.478 1.237 -0.876 1.681 -1.404 0.203 -0.315 0.196 -1.01 0.786 -0.627 0.372 0.163 1.236 0.191 0.658 0.616 -0.425 0.489 -0.399 0.581 0.192 0.172 0.427 -0.211 0.812 -0.445 0.83 -0.884 0.082 -0.425 0.86 -0.095 1.253 -0.182 0.407 -0.067 1.17 0.246 1.138 -0.288 0.164 -0.408 0.2 -0.89 0.442 -1.254 0.498 -0.251 0.949 -0.621 1.584 -0.536 0.601 -0.168 0.836 0.125 0.956 0.563 l 0.773 1.58 c -0.162 0.307 -0.857 0.676 -0.661 0.942 l 1.602 0.994 -0.8 2.954 c -0.445 0.155 -0.877 0.459 -1.33 0.527 -2.124 -0.582 -1.891 -0.391 -1.891 -0.391 0 0 -0.125 1.743 0.093 2.668 1.174 1.506 2.76 2.936 3.894 4.239 l 1.645 4.66 c 0.634 -0.03 0.643 -0.087 2.02 -0.363 l 3.355 -1.177 c -0.18 0.565 -0.887 1.876 -1.186 2.334 -0.561 0.861 -3.259 0.708 -3.259 0.708 0 0 -1.645 0.849 -1.996 0.535 c -0.457 -0.407 -0.56 -1.869 -1.24 -2.668 -0.796 -1.074 -1.125 -2.111 -1.395 -3.189 -1.172 -0.805 -2.56 -1.787 -3.732 -2.592 c -0.088 1.14 -0.178 2.28 -0.267 3.421 -1.54 1.597 -3.08 3.195 -4.619 4.792 0.049 1.21 0.977 3.342 1.497 4.768 -0.789 0.57 -2.858 1.075 -3.189 0.088 z m 10.768 -19.788 0 -1.385 c -0.765 -0.253 -0.47 0.22 -0.303 0.607 0.101 0.259 0.202 0.519 0.303 0.778 z" style="fill:#000;fill-opacity:0.098"/>
 <path d="m 16.613 37.439 c -0.022 -1.08 0.096 -2.664 -0.015 -3.738 -0.146 -0.526 -0.292 -1.052 -0.437 -1.578 0.49 -0.482 1.13 -0.891 1.525 -1.418 0.311 -0.666 0.497 -1.388 0.887 -2.02 l 2.137 -2.2 -0.842 -5.145 -1.372 1.546 -2.496 -0.598 c 0.594 -1.953 1.187 -3.904 1.781 -5.857 0.542 -0.478 1.237 -0.876 1.681 -1.404 0.203 -0.315 0.196 -1.01 0.786 -0.627 0.372 0.163 1.236 0.191 0.658 0.616 -0.425 0.489 -0.399 0.581 0.192 0.172 0.427 -0.211 0.812 -0.445 0.83 -0.884 0.082 -0.425 0.86 -0.095 1.253 -0.182 0.407 -0.067 1.17 0.246 1.138 -0.288 0.164 -0.408 0.2 -0.89 0.442 -1.254 0.498 -0.251 0.949 -0.621 1.584 -0.536 0.601 -0.168 0.836 0.125 0.956 0.563 l 0.773 1.58 c -0.162 0.307 -0.857 0.676 -0.661 0.942 l 1.602 0.994 -0.8 2.954 c -0.445 0.155 -0.877 0.459 -1.33 0.527 -2.124 -0.582 -1.891 -0.391 -1.891 -0.391 0 0 -0.125 1.743 0.093 2.668 1.174 1.506 2.76 2.936 3.894 4.239 l 1.645 4.66 c 0.634 -0.03 0.643 -0.087 2.02 -0.363 l 3.355 -1.177 c -0.18 0.565 -0.887 1.876 -1.186 2.334 -0.561 0.861 -3.259 0.708 -3.259 0.708 0 0 -1.645 0.849 -1.996 0.535 c -0.457 -0.407 -0.56 -1.869 -1.24 -2.668 -0.796 -1.074 -1.125 -2.111 -1.395 -3.189 -1.172 -0.805 -2.56 -1.787 -3.732 -2.592 c -0.088 1.14 -0.178 2.28 -0.267 3.421 -1.54 1.597 -3.08 3.195 -4.619 4.792 0.049 1.21 0.977 3.342 1.497 4.768 -0.789 0.57 -2.858 1.075 -3.189 0.088 z m 10.768 -19.788 0 -1.385 c -0.765 -0.253 -0.47 0.22 -0.303 0.607 0.101 0.259 0.202 0.519 0.303 0.778 z" style="fill:#eeeeec"/>
</svg>
