<svg version="1.1" viewBox="0 0 48 48" xmlns="http://www.w3.org/2000/svg">
 <defs>
  <linearGradient id="bg" x1="1" x2="47" gradientTransform="rotate(-90 24 24)" gradientUnits="userSpaceOnUse">
   <stop style="stop-color:#e1e1e1" offset="0"/>
   <stop style="stop-color:#ebebeb" offset="1"/>
  </linearGradient>
 </defs>
 <path d="m36.31 5c5.859 4.062 9.688 10.831 9.688 18.5 0 12.426-10.07 22.5-22.5 22.5-7.669 0-14.438-3.828-18.5-9.688 1.037 1.822 2.306 3.499 3.781 4.969 4.085 3.712 9.514 5.969 15.469 5.969 12.703 0 23-10.298 23-23 0-5.954-2.256-11.384-5.969-15.469-1.469-1.475-3.147-2.744-4.969-3.781zm4.969 3.781c3.854 4.113 6.219 9.637 6.219 15.719 0 12.703-10.297 23-23 23-6.081 0-11.606-2.364-15.719-6.219 4.16 4.144 9.883 6.719 16.219 6.719 12.703 0 23-10.298 23-23 0-6.335-2.575-12.06-6.719-16.219z" style="opacity:.05"/>
 <path d="m41.28 8.781c3.712 4.085 5.969 9.514 5.969 15.469 0 12.703-10.297 23-23 23-5.954 0-11.384-2.256-15.469-5.969 4.113 3.854 9.637 6.219 15.719 6.219 12.703 0 23-10.298 23-23 0-6.081-2.364-11.606-6.219-15.719z" style="opacity:.1"/>
 <path d="m31.25 2.375c8.615 3.154 14.75 11.417 14.75 21.13 0 12.426-10.07 22.5-22.5 22.5-9.708 0-17.971-6.135-21.12-14.75a23 23 0 0 0 44.875-7 23 23 0 0 0-16-21.875z" style="opacity:.2"/>
 <path d="m24 1c12.703 0 23 10.297 23 23s-10.297 23-23 23-23-10.297-23-23 10.297-23 23-23z" style="fill:url(#bg)"/>
 <path d="m18 1.795c-0.336 0.091-0.67 0.188-1 0.293v13.912h-14.568c-0.122 0.33-0.236 0.663-0.344 1h14.912v14.996h-14.568c0.125 0.337 0.255 0.671 0.395 1h14.174v12.916c0.33 0.105 0.664 0.202 1 0.293v-13.209h15v12.176c0.338-0.144 0.671-0.296 1-0.455v-11.721h11.174c0.14-0.329 0.27-0.663 0.395-1h-11.568v-14.996h11.912c-0.107-0.337-0.221-0.67-0.344-1h-11.568v-12.717c-0.329-0.159-0.662-0.311-1-0.455v13.172h-15v-14.205zm7.871 3.215c-0.988 0-1.906 0.34-2.746 1.02l0.551 0.691c0.41-0.32 0.789-0.539 1.125-0.66 0.344-0.125 0.707-0.184 1.082-0.184 0.527 0 0.937 0.141 1.23 0.422 0.296 0.266 0.441 0.641 0.441 1.121 0 0.333-0.059 0.649-0.176 0.938s-0.289 0.586-0.523 0.898c-0.234 0.309-0.715 0.812-1.449 1.539l-2.402 2.348v0.867h5.996l4e-3 0.014v-0.938h-4.691v-0.053l1.996-1.896c0.89-0.84 1.5-1.535 1.824-2.09s0.488-1.105 0.488-1.668c0-0.727-0.242-1.295-0.73-1.725-0.489-0.43-1.161-0.645-2.02-0.645zm0.6 29.984-4.475 6.06v0.887h4.578v2.055h1.027v-2.055h1.398l2e-3 -2e-3v-0.926h-1.398v-6.02h-1.133zm0.123 1.063h0.051c-0.043 0.739-0.066 1.391-0.066 1.977v2.977h-3.504l2.941-3.98c0.18-0.258 0.371-0.582 0.578-0.973z" style="opacity:.1"/>
 <rect x="16.5" y="15.5" width="16" height="16" rx="0" style="fill:#7fabdd"/>
 <path d="m28 13.01h-5.996v-0.867l2.402-2.348c0.734-0.727 1.215-1.23 1.449-1.539 0.234-0.312 0.406-0.609 0.523-0.898s0.176-0.605 0.176-0.938c0-0.48-0.145-0.855-0.441-1.121-0.293-0.281-0.703-0.422-1.23-0.422-0.375 0-0.738 0.059-1.082 0.184-0.336 0.121-0.715 0.34-1.125 0.66l-0.551-0.691c0.84-0.68 1.758-1.02 2.746-1.02 0.859 0 1.531 0.215 2.02 0.645 0.488 0.43 0.73 0.996 0.73 1.723 0 0.563-0.164 1.113-0.488 1.668s-0.934 1.25-1.824 2.09l-1.996 1.898v0.051h4.691v0.938" style="fill:#3d3d3d"/>
 <path d="m24.762 22.453c1.012 0 1.793 0.234 2.371 0.699 0.574 0.461 0.867 1.094 0.867 1.898 0 0.922-0.316 1.645-0.949 2.164-0.629 0.523-1.492 0.781-2.598 0.781-1.07 0-1.895-0.16-2.457-0.477v-0.973c0.305 0.18 0.684 0.316 1.133 0.43 0.453 0.102 0.898 0.152 1.336 0.152 0.766 0 1.359-0.168 1.781-0.512 0.426-0.336 0.641-0.813 0.641-1.457 0-1.23-0.816-1.852-2.445-1.852-0.414 0-0.969 0.059-1.656 0.176l-0.563-0.332 0.359-4.156h4.742v0.934h-3.816l-0.242 2.668c0.5-0.094 1-0.145 1.492-0.145" style="fill:#3d3d3d"/>
 <path d="m28 40.941h-1.398v2.055h-1.027v-2.055h-4.578v-0.887l4.473-6.06h1.133v6.02h1.398v0.926m-2.422-0.926v-2.98c0-0.586 0.023-1.238 0.066-1.977h-0.051c-0.207 0.391-0.398 0.715-0.578 0.973l-2.941 3.98h3.508" style="fill:#3d3d3d"/>
 <path d="m17 2.088c-0.337 0.107-0.67 0.221-1 0.344v12.568h-13.172c-0.14 0.329-0.271 0.663-0.396 1h13.568v14.996h-13.914c0.107 0.337 0.223 0.67 0.346 1h13.568v13.572c0.33 0.122 0.663 0.236 1 0.344v-13.916h15v13.572c0.337-0.125 0.671-0.256 1-0.396v-13.176h12.568c0.122-0.33 0.238-0.663 0.346-1h-12.914v-14.996h12.568c-0.125-0.337-0.256-0.671-0.396-1h-12.172v-12.172c-0.329-0.14-0.663-0.271-1-0.396v12.568h-15v-12.912zm0 13.912h15v14.996h-15v-14.996z" style="fill:#3d3d3d"/>
 <path d="m40.03 7.531c3.712 4.084 5.969 9.514 5.969 15.469 0 12.703-10.297 23-23 23-5.954 0-11.384-2.256-15.469-5.969 4.178 4.291 10.01 6.969 16.469 6.969 12.703 0 23-10.298 23-23 0-6.462-2.677-12.291-6.969-16.469z" style="opacity:.1"/>
</svg>
