<svg version="1.1" viewBox="0 0 48 48" xmlns="http://www.w3.org/2000/svg">
 <defs>
  <linearGradient id="bg" x1="1" x2="47" gradientTransform="matrix(0 -1 1 0 -1.5e-6 48)" gradientUnits="userSpaceOnUse">
   <stop style="stop-color:#c3cfdd" offset="0"/>
   <stop style="stop-color:#d0d9e4" offset="1"/>
  </linearGradient>
 </defs>
 <path d="m36.31 5c5.859 4.062 9.688 10.831 9.688 18.5 0 12.426-10.07 22.5-22.5 22.5-7.669 0-14.438-3.828-18.5-9.688 1.037 1.822 2.306 3.499 3.781 4.969 4.085 3.712 9.514 5.969 15.469 5.969 12.703 0 23-10.298 23-23 0-5.954-2.256-11.384-5.969-15.469-1.469-1.475-3.147-2.744-4.969-3.781zm4.969 3.781c3.854 4.113 6.219 9.637 6.219 15.719 0 12.703-10.297 23-23 23-6.081 0-11.606-2.364-15.719-6.219 4.16 4.144 9.883 6.719 16.219 6.719 12.703 0 23-10.298 23-23 0-6.335-2.575-12.06-6.719-16.219z" style="opacity:.05"/>
 <path d="m41.28 8.781c3.712 4.085 5.969 9.514 5.969 15.469 0 12.703-10.297 23-23 23-5.954 0-11.384-2.256-15.469-5.969 4.113 3.854 9.637 6.219 15.719 6.219 12.703 0 23-10.298 23-23 0-6.081-2.364-11.606-6.219-15.719z" style="opacity:.1"/>
 <path d="m31.25 2.375c8.615 3.154 14.75 11.417 14.75 21.13 0 12.426-10.07 22.5-22.5 22.5-9.708 0-17.971-6.135-21.12-14.75a23 23 0 0 0 44.875-7 23 23 0 0 0-16-21.875z" style="opacity:.2"/>
 <path d="m24 1c12.703 0 23 10.297 23 23s-10.297 23-23 23-23-10.297-23-23 10.297-23 23-23z" style="fill:url(#bg)"/>
 <path d="m40.03 7.531c3.712 4.084 5.969 9.514 5.969 15.469 0 12.703-10.297 23-23 23-5.954 0-11.384-2.256-15.469-5.969 4.178 4.291 10.01 6.969 16.469 6.969 12.703 0 23-10.298 23-23 0-6.462-2.677-12.291-6.969-16.469z" style="opacity:.1"/>
 <path d="m25 12.999-5.8652 21.432c-0.44653 1.0571 0.25165 2.1699 1.5566 2.4863 1.1611 0.27817 2.4133-0.16875 2.9902-1.0176 0.42247 0.06458 0.86208 0.09961 1.3184 0.09961 0.4322 0 0.86387-0.04906 1.291-0.13867 0.5623 0.87385 1.834 1.3396 3.0137 1.0566 1.3088-0.31616 2.0055-1.4344 1.5605-2.4883-0.12987-0.30884-0.34397-0.57892-0.61328-0.79883 1.6362-1.6404 2.748-3.996 2.748-6.6309 0-1.8523-0.18002-3.55-1-5v-0.75c6e-6 -4.381-2.918-8.25-7-8.25z" style="opacity:.1"/>
 <path d="m24 12c-5.0001 9e-6 -7 5-7 8v2c-0.523 1.176-0.99519 2.2892-1 3.6914-0.01819 5.3086 3 9.3086 8 9.3086 4 0 8-4 8-9 0-1.8523-0.18002-3.55-1-5l1e-6 -0.75c6e-6 -4.381-2.918-8.25-7-8.25z" style="fill:#2f4141"/>
 <path d="m21.5 15c-1.5 0-2.4867 1.3861-2.5 2.5-0.01388 1.1602 0.68718 2.2428 1.4922 2.7578-1.1335 0.81994-2.2279 1.7004-2.8809 2.9941 0.29341 0.55127 0.70062 1.2567 1.1641 1.8965 0.93663 1.297 2.029 3.4797 0.35156 2.6797-0.90431-0.43187-1.6576-0.99576-2.123-1.6504 0.08711 3.9399 3.0553 7.8223 6.9961 7.8223 4 0 5.8897-2.836 6-7 0.01377-0.5198-0.0021-1.0269-0.04492-1.5195-0.58846 0.91803-1.6089 1.7062-2.8398 2.2988-2.1458 1.035-0.74636-1.8042 0.46094-3.4922 0.54994-0.76193 1.031-1.5888 1.4004-2.2734-0.47682-0.84844-1.1277-1.5419-1.9766-2.0137 1.242-0.145 2.0028-0.98598 2-2-0.0042-1.5-1.5-2-2.5-2s-2.0908 0.59892-2.5 1.5c0-1.5-1-2.5-2.5-2.5zm0.25 2c0.41421 0 0.75 0.44772 0.75 1s-0.33579 1-0.75 1-0.75-0.44772-0.75-1 0.33579-1 0.75-1zm4.5 0c0.41421 0 0.75 0.44772 0.75 1s-0.33579 1-0.75 1-0.75-0.44772-0.75-1 0.33579-1 0.75-1zm-2.25 1.85c0.07 0.09 0.168 0.218 0.25 0.3-0.17866-0.02657-0.32885-0.03962-0.45-0.05 0.07948-0.07871 0.169-0.172 0.2-0.25z" style="fill:#ececec"/>
 <path d="m21.57 33c-0.73413 0.0082-1.4405 0.27678-1.9277 0.72461 1.1977 0.81372 2.6618 1.275 4.3555 1.2754 0.04347-0.86078-0.61864-1.6564-1.6895-1.916-0.24469-0.05862-0.49256-0.08671-0.73828-0.08398z" style="opacity:.1"/>
 <path d="m23.598 19.5c-1.1455 0.0057-2.5918 0.74609-2.5918 0.74609h-0.0059s0.47975 2.4987 2.2617 2.7402c1.7819 0.2377 2.7383-2.5664 2.7383-2.5664-1e-6 0-1.0112-0.8087-2.1777-0.91016-0.07317-0.0066-0.14824-0.01007-0.22461-0.0098zm-3.0273 12.5c-1.0649 0.01187-2.0727 0.57271-2.4355 1.4316-0.44653 1.0571 0.25161 2.1699 1.5566 2.4863 1.305 0.31265 2.7273-0.28867 3.1738-1.3496 0.44653-1.0571-0.25161-2.1679-1.5566-2.4844-0.24469-0.05862-0.49256-0.08671-0.73828-0.08398zm6.8613 0c-0.24567-0.0023-0.49362 0.0245-0.73828 0.08398-1.3048 0.31195-2.0035 1.4325-1.5586 2.4863 0.44494 1.0581 1.8651 1.6607 3.1699 1.3477 1.3088-0.31616 2.0055-1.4344 1.5605-2.4883-0.36151-0.8597-1.369-1.4199-2.4336-1.4297z" style="fill:#ffb30a"/>
</svg>
