<svg version="1.1" viewBox="0 0 48 48" xmlns="http://www.w3.org/2000/svg">
 <defs>
  <linearGradient id="bg" x1="1" x2="47" gradientTransform="matrix(0 -1 1 0 -1.5e-6 48)" gradientUnits="userSpaceOnUse">
   <stop style="stop-color:#c3cfdd" offset="0"/>
   <stop style="stop-color:#d0d9e4" offset="1"/>
  </linearGradient>
 </defs>
 <path d="m36.3 5c5.86 4.06 9.69 10.8 9.69 18.5 0 12.4-10.1 22.5-22.5 22.5-7.67 0-14.4-3.83-18.5-9.69 1.04 1.82 2.31 3.5 3.78 4.97 4.08 3.71 9.51 5.97 15.5 5.97 12.7 0 23-10.3 23-23 0-5.95-2.26-11.4-5.97-15.5-1.47-1.48-3.15-2.74-4.97-3.78zm4.97 3.78c3.85 4.11 6.22 9.64 6.22 15.7 0 12.7-10.3 23-23 23-6.08 0-11.6-2.36-15.7-6.22 4.16 4.14 9.88 6.72 16.2 6.72 12.7 0 23-10.3 23-23 0-6.34-2.58-12.1-6.72-16.2z" style="opacity:.05"/>
 <path d="m41.3 8.78c3.71 4.08 5.97 9.51 5.97 15.5 0 12.7-10.3 23-23 23-5.95 0-11.4-2.26-15.5-5.97 4.11 3.85 9.64 6.22 15.7 6.22 12.7 0 23-10.3 23-23 0-6.08-2.36-11.6-6.22-15.7z" style="opacity:.1"/>
 <path d="m31.2 2.38c8.62 3.15 14.8 11.4 14.8 21.1 0 12.4-10.1 22.5-22.5 22.5-9.71 0-18-6.14-21.1-14.8a23 23 0 0 0 44.9-7 23 23 0 0 0-16-21.9z" style="opacity:.2"/>
 <path d="m24 1c12.7 0 23 10.3 23 23s-10.3 23-23 23-23-10.3-23-23 10.3-23 23-23z" style="fill:url(#bg)"/>
 <path d="m13.4 34.8c0.414 1.55 2 2.47 3.55 2.05l1.83-0.49c0.458-0.123 0.852-0.359 1.18-0.658 1.1 0.13 2.45 0.248 4.09 0.248 1.79 0 3.47-0.191 4.83-0.393 0.359 0.371 0.815 0.66 1.36 0.803l1.86 0.49c1.56 0.415 3.17-0.502 3.59-2.05l1.27-4.7c0.419-1.55-0.507-3.14-2.07-3.56l-0.264-0.0703 0.373-1.5c0.28-1.13-0.34-2.29-1.38-2.59l-0.424-0.123c-8.59e-4 -0.568-0.038-1.13-0.148-1.67 0.059-0.148 0.117-0.293 0.168-0.449 1.29-3.84-0.266-7.84-3.48-8.93z" style="opacity:.1"/>
 <path d="m33.8 25.6-1.86-0.49c-1.56-0.415-3.18 0.506-3.6 2.05l-1.27 4.7c-0.407 1.55 0.511 3.14 2.09 3.56l1.86 0.49c1.56 0.415 3.17-0.502 3.59-2.05l1.27-4.7c0.419-1.55-0.507-3.14-2.07-3.56" style="fill:#454a4a"/>
 <path d="m32.6 21.4-1.24-0.359c-1.04-0.302-2.11 0.37-2.39 1.49l-0.851 3.41c-0.28 1.13 0.343 2.29 1.39 2.59l1.23 0.359c1.04 0.302 2.12-0.366 2.4-1.49l0.847-3.41c0.28-1.13-0.339-2.29-1.38-2.59" style="fill:#454a4a"/>
 <path d="m16.5 20.4 1.3-0.359c1.09-0.302 2.22 0.37 2.51 1.49l0.887 3.41c0.293 1.13-0.355 2.29-1.45 2.59l-1.3 0.359c-1.09 0.302-2.22-0.366-2.51-1.49l-0.887-3.41c-0.293-1.13 0.352-2.29 1.45-2.59" style="fill:#454a4a"/>
 <path d="m27.4 10c-2.87-0.246-5.8 1.88-6.94 5.23-0.16 0.473-0.281 0.957-0.359 1.43v0.016c-0.754 0.852-1.38 1.87-1.77 3.04-1.41 4.19 0.426 8.59 4.1 9.83s7.78-1.15 9.2-5.34c0.527-1.56 0.617-3.15 0.32-4.59 0.059-0.148 0.117-0.293 0.168-0.449 1.29-3.84-0.266-7.84-3.48-8.93-0.402-0.137-0.82-0.211-1.23-0.246" style="fill:#454a4a"/>
 <path d="m25.5 12c-0.961 0.023-1.91 0.559-2.3 1.68-0.336 0.977-0.168 1.97 0.363 2.62-1.18 0.398-2.28 1.21-3.12 2.33 0.07 0.361 0.154 0.737 0.262 1.11 0.383 1.33 0.641 3.44-0.449 2.36-0.403-0.403-0.733-0.841-0.963-1.29-1.2 3.49 0.184 7.12 3.09 8.12 2.91 1.01 6.25-1 7.46-4.49 0.0862-0.249 0.147-0.5 0.207-0.75-0.674 0.458-1.33 0.971-2.28 1.13-1.98 0.332-0.157-1.55 1.3-2.84 0.447-0.392 0.914-1.01 0.914-1.01-0.21-1.19-0.539-2.59-1.29-3.4 1.08 0.211 1.91-0.254 2.17-1.11 0.289-0.938-0.242-1.98-1.42-2.34-0.699-0.215-1.4-0.143-1.91 0.15 0.051-1.07-0.469-1.84-1.38-2.15-0.219-0.078-0.434-0.105-0.656-0.0977zm0.656 1.96c0.0489 1.15e-4 0.096 4e-3 0.145 0.0117 0.526 0.0829 0.808 0.577 0.639 1.11v2e-3c-0.0992 0.356-0.382 0.665-0.736 0.799-0.355 0.138-0.731 0.0784-0.973-0.152-0.237-0.231-0.309-0.591-0.176-0.947 0.155-0.482 0.629-0.827 1.1-0.826zm2.53 1c0.0297-1.58e-4 0.0603 0.0043 0.0898 0.0117 0.312 0.0828 0.482 0.582 0.379 1.11-0.0596 0.361-0.23 0.664-0.443 0.803-0.213 0.134-0.439 0.0784-0.58-0.152-0.147-0.231-0.185-0.591-0.105-0.947 0.0898-0.481 0.373-0.827 0.66-0.828z" style="fill:#ececec"/>
 <path d="m24 17s-0.172 2.22 1.17 2.88c1.34 0.656 2.83-1.88 2.83-1.88-1-1-2-1-4-1z" style="fill:#ffb30a"/>
 <path d="m13.1 25.6 1.83-0.49c1.54-0.415 3.13 0.506 3.55 2.05l1.25 4.7c0.414 1.55-0.504 3.14-2.05 3.56l-1.83 0.49c-1.55 0.415-3.13-0.502-3.55-2.05l-1.25-4.7c-0.414-1.55 0.504-3.14 2.05-3.56" style="fill:#454a4a"/>
 <path d="m21 28.5c0 1.93-1.57 3.5-3.5 3.5-1.93 0-3.5-1.57-3.5-3.5 0-1.93 1.57-3.5 3.5-3.5 1.94 0 3.5 1.57 3.5 3.5" style="fill:#ffb30a"/>
 <path d="m24 20a4 4 0 0 0-4 4 4 4 0 0 0 4 4 4 4 0 0 0 4-4 4 4 0 0 0-4-4zm0 1a3 3.07 0 0 1 3 3.07 3 3.07 0 0 1-3 3.06 3 3.07 0 0 1-3-3.06 3 3.07 0 0 1 3-3.07zm0 1a2 2 0 0 0-2 2 2 2 0 0 0 2 2 2 2 0 0 0 2-2 2 2 0 0 0-2-2z" style="fill:#454a4a"/>
 <path d="m32 28.5c0 1.93-1.57 3.5-3.5 3.5-1.93 0-3.5-1.57-3.5-3.5 0-1.93 1.57-3.5 3.5-3.5 1.93 0 3.5 1.57 3.5 3.5" style="fill:#ffb30a"/>
 <path d="m30.5 23-2.5 0.0195-0.785 1.38-0.967-0.965s-0.6-0.41-2.47-0.41c-1.63 0-3.01 0.268-3.01 0.268l-1.15 1.08-0.617-1.35h-2.05c-0.747 0-0.953 0.208-0.953 1h2.25c0.472 0 0.914 0.482 1.02 0.627-1.34 1.08-3.27 3.32-3.27 4.74 0 2.04 0.395 4.99 0.395 4.99s2.7 0.641 6.61 0.641 7.56-0.891 7.56-0.891 0.438-2.11 0.438-3.3c0-2.8-1.5-4.61-3.42-6.15 0.09-0.145 0.34-0.656 1.03-0.656h2.39s-9.53e-4 -1-0.502-1.02z" style="fill:#e25136"/>
 <path d="m40 7.53c3.71 4.08 5.97 9.51 5.97 15.5 0 12.7-10.3 23-23 23-5.95 0-11.4-2.26-15.5-5.97 4.18 4.29 10 6.97 16.5 6.97 12.7 0 23-10.3 23-23 0-6.46-2.68-12.3-6.97-16.5z" style="opacity:.1"/>
 <rect x="18" y="28" width="11" height="6" ry="2.5" style="fill:#73433a"/>
</svg>
