<svg version="1.1" viewBox="0 0 48 48" xmlns="http://www.w3.org/2000/svg">
 <defs>
  <linearGradient id="bg" x1="1" x2="47" gradientTransform="matrix(0 -1 1 0 -1.5e-6 48)" gradientUnits="userSpaceOnUse">
   <stop style="stop-color:#d9aa5e" offset="0"/>
   <stop style="stop-color:#d9aa5e" offset="1"/>
  </linearGradient>
 </defs>
 <path d="m36.31 5c5.859 4.062 9.688 10.831 9.688 18.5 0 12.426-10.07 22.5-22.5 22.5-7.669 0-14.438-3.828-18.5-9.688 1.037 1.822 2.306 3.499 3.781 4.969 4.085 3.712 9.514 5.969 15.469 5.969 12.703 0 23-10.298 23-23 0-5.954-2.256-11.384-5.969-15.469-1.469-1.475-3.147-2.744-4.969-3.781zm4.969 3.781c3.854 4.113 6.219 9.637 6.219 15.719 0 12.703-10.297 23-23 23-6.081 0-11.606-2.364-15.719-6.219 4.16 4.144 9.883 6.719 16.219 6.719 12.703 0 23-10.298 23-23 0-6.335-2.575-12.06-6.719-16.219z" style="opacity:.05"/>
 <path d="m41.28 8.781c3.712 4.085 5.969 9.514 5.969 15.469 0 12.703-10.297 23-23 23-5.954 0-11.384-2.256-15.469-5.969 4.113 3.854 9.637 6.219 15.719 6.219 12.703 0 23-10.298 23-23 0-6.081-2.364-11.606-6.219-15.719z" style="opacity:.1"/>
 <path d="m31.25 2.375c8.615 3.154 14.75 11.417 14.75 21.13 0 12.426-10.07 22.5-22.5 22.5-9.708 0-17.971-6.135-21.12-14.75a23 23 0 0 0 44.875-7 23 23 0 0 0-16-21.875z" style="opacity:.2"/>
 <path d="m24 1c12.703 0 23 10.297 23 23s-10.297 23-23 23-23-10.297-23-23 10.297-23 23-23z" style="fill:url(#bg)"/>
 <path d="m40.03 7.531c3.712 4.084 5.969 9.514 5.969 15.469 0 12.703-10.297 23-23 23-5.954 0-11.384-2.256-15.469-5.969 4.178 4.291 10.01 6.969 16.469 6.969 12.703 0 23-10.298 23-23 0-6.462-2.677-12.291-6.969-16.469z" style="opacity:.1"/>
 <path d="m27 10-7 3c0-0.554-0.446-1-1-1h-1c-0.554 0-1 0.446-1 1v3.7266l-3 18.273v1h20l3-1v-15.666l1-0.33398z" style="opacity:.1"/>
 <path d="m26 9-3 1-4 3.2734v-1.2734c0-0.554-0.446-1-1-1h-1c-0.554 0-1 0.446-1 1v3.7266l-4 3.2734h1v16h20l3-1v-15.656l1-0.34375-11-9z" style="fill:#e7d797"/>
 <circle cx="25.5" cy="25.5" r="7.5" style="opacity:.1"/>
 <path d="m28.735 18.449-5.1699 5.1121-3.0301 7.1866c3.5181 2.2913 8.147 1.3501 10.338-2.102 2.1136-3.3452 1.1718-7.8368-2.1379-10.197z" style="fill:#a0997e"/>
 <path d="m24.031 17.004a7.6093 7.3926 44.449 0 0-2.8652 0.68479 7.6093 7.3926 44.449 0 0-4.1568 6.2345 7.6093 7.3926 44.449 0 0 3.5266 6.8241l8.2073-12.311a7.6093 7.3926 44.449 0 0-4.7119-1.4318z" style="fill:#a65f30"/>
</svg>
