<svg version="1.1" viewBox="0 0 48 48" xmlns="http://www.w3.org/2000/svg">
 <defs>
  <linearGradient id="bg" x2="0" y1="1" y2="47" gradientUnits="userSpaceOnUse">
   <stop style="stop-color:#bc8a34" offset="0"/>
   <stop style="stop-color:#ad7f30" offset="1"/>
  </linearGradient>
 </defs>
 <path d="m36.3 5c5.86 4.06 9.69 10.8 9.69 18.5 0 12.4-10.1 22.5-22.5 22.5-7.67 0-14.4-3.83-18.5-9.69 1.04 1.82 2.31 3.5 3.78 4.97 4.08 3.71 9.51 5.97 15.5 5.97 12.7 0 23-10.3 23-23 0-5.95-2.26-11.4-5.97-15.5-1.47-1.48-3.15-2.74-4.97-3.78zm4.97 3.78c3.85 4.11 6.22 9.64 6.22 15.7 0 12.7-10.3 23-23 23-6.08 0-11.6-2.36-15.7-6.22 4.16 4.14 9.88 6.72 16.2 6.72 12.7 0 23-10.3 23-23 0-6.34-2.58-12.1-6.72-16.2z" style="opacity:.05"/>
 <path d="m41.3 8.78c3.71 4.08 5.97 9.51 5.97 15.5 0 12.7-10.3 23-23 23-5.95 0-11.4-2.26-15.5-5.97 4.11 3.85 9.64 6.22 15.7 6.22 12.7 0 23-10.3 23-23 0-6.08-2.36-11.6-6.22-15.7z" style="opacity:.1"/>
 <path d="m31.2 2.38c8.62 3.15 14.8 11.4 14.8 21.1 0 12.4-10.1 22.5-22.5 22.5-9.71 0-18-6.14-21.1-14.8a23 23 0 0044.9-7 23 23 0 00-16-21.9z" style="opacity:.2"/>
 <circle cx="24" cy="24" r="23" style="fill:url(#bg)"/>
 <path d="m40 7.53c3.71 4.08 5.97 9.51 5.97 15.5 0 12.7-10.3 23-23 23-5.95 0-11.4-2.26-15.5-5.97 4.18 4.29 10 6.97 16.5 6.97 12.7 0 23-10.3 23-23 0-6.46-2.68-12.3-6.97-16.5z" style="opacity:.1"/>
 <rect x="12" y="15" width="26" height="20" rx="1.5" style="opacity:.1"/>
 <path d="m25.5 15-7 19h17c0.831 0 1.5-0.669 1.5-1.5v-15.5z" style="fill:#616161"/>
 <path d="m30.5 14-2 1-1 2h9.5v-1.5c0-0.831-0.669-1.5-1.5-1.5z" style="fill:#4d4d4d"/>
 <path d="m12.5 14c-0.831 0-1.5 0.669-1.5 1.5v1.5l9.5 2 8.2-2 1.8-3z" style="fill:#ccc"/>
 <path d="m11 17v15.5c0 0.831 0.669 1.5 1.5 1.5h6l10.2-17z" style="fill:#f9f9f9"/>
 <path d="m27.3 20.5c-0.234-0.0968-0.474-0.179-0.719-0.245l-2.06 1.82-1.1-1.82c-0.244 0.0668-0.483 0.149-0.717 0.246l-0.172 2.39-3.07 0.851c-0.0968 0.234-0.179 0.474-0.245 0.719l1.82 1.1-9.7e-5 0.96-1.82 1.1c0.0668 0.244 0.149 0.483 0.246 0.717 0.0965 0.234 0.208 0.461 0.333 0.681l2.06-0.509 0.679 0.679-0.509 2.06c0.22 0.126 0.447 0.238 0.681 0.335 0.234 0.0968 0.474 0.179 0.719 0.245l1.1-1.82c0.319 0.0386 0.641 0.0386 0.96 9.7e-5l1.1 1.82c0.244-0.0668 0.483-0.149 0.717-0.246 0.234-0.0965 0.461-0.208 0.681-0.333l-0.509-2.06c0.253-0.198 0.481-0.426 0.679-0.679l2.06 0.509c0.126-0.22 0.238-0.447 0.335-0.681 0.0968-0.234 0.179-0.474 0.245-0.719l-1.82-1.1c0.0386-0.319 0.0386-0.641 9.7e-5 -0.96l1.82-1.1c-0.0668-0.244-0.149-0.483-0.246-0.717-0.0965-0.234-0.208-0.461-0.333-0.681l-2.06 0.509-0.679-0.679 0.509-2.06c-0.22-0.126-0.447-0.238-0.681-0.335zm-1.53 3.7c1.02 0.424 1.5 1.59 1.08 2.61l-2.61 1.08c-1.02-0.424-1.5-1.59-1.08-2.61 0.424-1.02 1.59-1.5 2.61-1.08z" style="opacity:.1"/>
 <path d="m26.3 19.5a6 6 0 0 0-0.719-0.245l-1.1 1.82a4 4 0 0 0-0.96-9.7e-5l-1.1-1.82a6 6 0 0 0-0.717 0.246 6 6 0 0 0-0.681 0.333l0.509 2.06a4 4 0 0 0-0.679 0.679l-2.06-0.509a6 6 0 0 0-0.335 0.681 6 6 0 0 0-0.245 0.719l1.82 1.1a4 4 0 0 0-9.7e-5 0.96l-1.82 1.1a6 6 0 0 0 0.246 0.717 6 6 0 0 0 0.333 0.681l2.06-0.509a4 4 0 0 0 0.679 0.679l-0.509 2.06a6 6 0 0 0 0.681 0.335 6 6 0 0 0 0.719 0.245l1.1-1.82a4 4 0 0 0 0.96 9.7e-5l1.1 1.82a6 6 0 0 0 0.717-0.246 6 6 0 0 0 0.681-0.333l-0.509-2.06a4 4 0 0 0 0.679-0.679l2.06 0.509a6 6 0 0 0 0.335-0.681 6 6 0 0 0 0.245-0.719l-1.82-1.1a4 4 0 0 0 9.7e-5 -0.96l1.82-1.1a6 6 0 0 0-0.246-0.717 6 6 0 0 0-0.333-0.681l-2.06 0.509a4 4 0 0 0-0.679-0.679l0.509-2.06a6 6 0 0 0-0.681-0.335zm-1.53 3.7a2 2 0 0 1 1.08 2.61 2 2 0 0 1-2.61 1.08 2 2 0 0 1-1.08-2.61 2 2 0 0 1 2.61-1.08z" style="fill:#8e96f1"/>
</svg>
