<svg version="1.1" viewBox="0 0 48 48" xmlns="http://www.w3.org/2000/svg">
 <defs>
  <linearGradient id="bg" x2="0" y1="1" y2="47" gradientUnits="userSpaceOnUse">
   <stop style="stop-color:#fadb8a" offset="0"/>
   <stop style="stop-color:#f9d577" offset="1"/>
  </linearGradient>
 </defs>
 <path d="m36.31 5c5.859 4.062 9.688 10.831 9.688 18.5 0 12.426-10.07 22.5-22.5 22.5-7.669 0-14.438-3.828-18.5-9.688 1.037 1.822 2.306 3.499 3.781 4.969 4.085 3.712 9.514 5.969 15.469 5.969 12.703 0 23-10.298 23-23 0-5.954-2.256-11.384-5.969-15.469-1.469-1.475-3.147-2.744-4.969-3.781zm4.969 3.781c3.854 4.113 6.219 9.637 6.219 15.719 0 12.703-10.297 23-23 23-6.081 0-11.606-2.364-15.719-6.219 4.16 4.144 9.883 6.719 16.219 6.719 12.703 0 23-10.298 23-23 0-6.335-2.575-12.06-6.719-16.219z" style="opacity:.05"/>
 <path d="m41.28 8.781c3.712 4.085 5.969 9.514 5.969 15.469 0 12.703-10.297 23-23 23-5.954 0-11.384-2.256-15.469-5.969 4.113 3.854 9.637 6.219 15.719 6.219 12.703 0 23-10.298 23-23 0-6.081-2.364-11.606-6.219-15.719z" style="opacity:.1"/>
 <path d="m31.25 2.375c8.615 3.154 14.75 11.417 14.75 21.13 0 12.426-10.07 22.5-22.5 22.5-9.708 0-17.971-6.135-21.12-14.75a23 23 0 0 0 44.875-7 23 23 0 0 0-16-21.875z" style="opacity:.2"/>
 <circle cx="24" cy="24" r="23" style="fill:url(#bg)"/>
 <path d="m40.03 7.531c3.712 4.084 5.969 9.514 5.969 15.469 0 12.703-10.297 23-23 23-5.954 0-11.384-2.256-15.469-5.969 4.178 4.291 10.01 6.969 16.469 6.969 12.703 0 23-10.298 23-23 0-6.462-2.677-12.291-6.969-16.469z" style="opacity:.1"/>
 <path d="m36 12c-15 0-24 9-24 18 0 5 5.3726 6 12 6 5.7559 0 11-3 11-8-1.4963 1.6038-3.5481 2.6756-6 3-1.3165 1.3639-3.1044 1.999-5 2-3.866 2e-3 -7-3.134-7-7s3.134-7.0018 7-7c2.4833 1e-3 4.7459 1.3567 6 3.5 4.118-2.2034 6-5.8214 6-10.5zm0 7.5c-0.81484 1.9657-3.0191 3.6593-5.209 4.832 0.13641 0.54558 0.20658 1.1056 0.20898 1.668-0.0025 0.84308-0.15738 1.712-0.45703 2.5 4.156-1.4018 5.457-5.3779 5.457-9zm-12 1.5c-2.7614 0-5 2.2386-5 5s2.2386 5 5 5 5-2.2386 5-5-2.2386-5-5-5zm-2 2 5 3-5 3z" style="opacity:.1;paint-order:normal"/>
 <path d="m35 11c-15 0-24 9-24 18 0 5 5.3726 6 12 6 5.7559 0 11-3 11-8-1.4963 1.6038-3.5481 2.6756-6 3-1.3165 1.3639-3.1044 1.999-5 2-3.866 2e-3 -7-3.134-7-7s3.134-7.0018 7-7c2.4833 1e-3 4.7459 1.3567 6 3.5 4.118-2.2034 6-5.8214 6-10.5zm0 7.5c-0.81484 1.9657-3.0191 3.6593-5.209 4.832 0.13641 0.54558 0.20658 1.1056 0.20898 1.668-0.0025 0.84308-0.15738 1.712-0.45703 2.5 4.156-1.4018 5.457-5.3779 5.457-9zm-12 1.5c-2.7614 0-5 2.2386-5 5s2.2386 5 5 5 5-2.2386 5-5-2.2386-5-5-5zm-2 2 5 3-5 3z" style="fill:#d11d40;paint-order:normal"/>
</svg>
