<svg version="1.1" viewBox="0 0 48 48" xmlns="http://www.w3.org/2000/svg">
 <defs>
  <linearGradient id="bg" x2="0" y1="1" y2="47" gradientUnits="userSpaceOnUse">
   <stop style="stop-color:#686076" offset="0"/>
   <stop style="stop-color:#5e576b" offset="1"/>
  </linearGradient>
 </defs>
 <path d="m36.3 5c5.86 4.06 9.69 10.8 9.69 18.5 0 12.4-10.1 22.5-22.5 22.5-7.67 0-14.4-3.83-18.5-9.69 1.04 1.82 2.31 3.5 3.78 4.97 4.08 3.71 9.51 5.97 15.5 5.97 12.7 0 23-10.3 23-23 0-5.95-2.26-11.4-5.97-15.5-1.47-1.48-3.15-2.74-4.97-3.78zm4.97 3.78c3.85 4.11 6.22 9.64 6.22 15.7 0 12.7-10.3 23-23 23-6.08 0-11.6-2.36-15.7-6.22 4.16 4.14 9.88 6.72 16.2 6.72 12.7 0 23-10.3 23-23 0-6.34-2.58-12.1-6.72-16.2z" style="opacity:.05"/>
 <path d="m41.3 8.78c3.71 4.08 5.97 9.51 5.97 15.5 0 12.7-10.3 23-23 23-5.95 0-11.4-2.26-15.5-5.97 4.11 3.85 9.64 6.22 15.7 6.22 12.7 0 23-10.3 23-23 0-6.08-2.36-11.6-6.22-15.7z" style="opacity:.1"/>
 <path d="m31.2 2.38c8.62 3.15 14.8 11.4 14.8 21.1 0 12.4-10.1 22.5-22.5 22.5-9.71 0-18-6.14-21.1-14.8a23 23 0 0044.9-7 23 23 0 00-16-21.9z" style="opacity:.2"/>
 <circle cx="24" cy="24" r="23" style="fill:url(#bg)"/>
 <path d="m40 7.53c3.71 4.08 5.97 9.51 5.97 15.5 0 12.7-10.3 23-23 23-5.95 0-11.4-2.26-15.5-5.97 4.18 4.29 10 6.97 16.5 6.97 12.7 0 23-10.3 23-23 0-6.46-2.68-12.3-6.97-16.5z" style="opacity:.1"/>
 <path d="m13 19c0 .554.446 1 1 1h3v1.5c0 2.88 2.19 5.23 5 5.48.158.179-.172 7.02-.172 7.02-.424-1.2-1.56-2-2.83-2 .318 0-3 3-3 3 0 1.66 1.34 3 3 3 1.27-.0034 2.4-.804 2.82-2-.0421.00444.18 1 .18 1 0 .554.446 1 1 1h4c.554 0 1-.446 1-1v-1.02c2.81-.251 5-2.6 5-5.48s-2.19-5.23-5-5.48v-5.02h8c.554 0 1-.446 1-1v-4c0-.554-.446-1-1-1 0 0-23.2 5.52-23 5zm6.34 1h2.66v4.96c-1.7-.242-3-1.69-3-3.46 0-.538.123-1.05.338-1.5zm8.66 7.04c1.7.242 3 1.69 3 3.46s-3 3.5-3 3.5z" style="opacity:.1"/>
 <path d="m13 13c-.554 0-1 .446-1 1v4c0 .554.446 1 1 1h8v17c0 .554.446 1 1 1h4c.554 0 1-.446 1-1v-17h8c.554 0 1-.446 1-1v-4c0-.554-.446-1-1-1z" style="fill:#464554"/>
 <path d="m31 14-2.82 2h-7.68l-2.9 3h2.45c.631-.618 1.49-1 2.45-1h5.68c.133.377.338.714.594 1h4.46c.476-.531.77-1.23.77-2 0-1.66-1.34-3-3-3zm-10 10.7v2.13c.477.134.979.211 1.5.211h4.5v-2zm0 8.11v3.23c0 .325.156.611.395.793.177-.238.323-.503.426-.793h5.18v-2h-5.17c-.172-.486-.462-.904-.828-1.23z" style="opacity:.1"/>
 <path d="m30 13c-1.27.0034-2.4.804-2.82 2h-5.68c-3.05 0-5.5 2.45-5.5 5.5s2.45 5.5 5.5 5.5h5c1.94 0 3.5 1.56 3.5 3.5s-1.56 3.5-3.5 3.5h-5.67c-.424-1.2-1.56-2-2.83-2-1.66 0-3 1.34-3 3s1.34 3 3 3c1.27-.0034 2.4-.804 2.82-2h5.68c3.05 0 5.5-2.45 5.5-5.5s-2.45-5.5-5.5-5.5h-5c-1.94 0-3.5-1.56-3.5-3.5s1.56-3.5 3.5-3.5h5.68c.423 1.2 1.55 2 2.82 2 1.66 0 3-1.34 3-3s-1.34-3-3-3z" style="fill:#3db8f5"/>
</svg>
