<svg version="1.1" viewBox="0 0 48 48" xmlns="http://www.w3.org/2000/svg">
 <defs>
  <linearGradient id="bg" x2="0" y1="1" y2="47" gradientUnits="userSpaceOnUse">
   <stop style="stop-color:#e7355d" offset="0"/>
   <stop style="stop-color:#e83860" offset="1"/>
  </linearGradient>
 </defs>
 <path d="m36.31 5c5.859 4.062 9.688 10.831 9.688 18.5 0 12.426-10.07 22.5-22.5 22.5-7.669 0-14.438-3.828-18.5-9.688 1.037 1.822 2.306 3.499 3.781 4.969 4.085 3.712 9.514 5.969 15.469 5.969 12.703 0 23-10.298 23-23 0-5.954-2.256-11.384-5.969-15.469-1.469-1.475-3.147-2.744-4.969-3.781zm4.969 3.781c3.854 4.113 6.219 9.637 6.219 15.719 0 12.703-10.297 23-23 23-6.081 0-11.606-2.364-15.719-6.219 4.16 4.144 9.883 6.719 16.219 6.719 12.703 0 23-10.298 23-23 0-6.335-2.575-12.06-6.719-16.219z" style="opacity:.05"/>
 <path d="m41.28 8.781c3.712 4.085 5.969 9.514 5.969 15.469 0 12.703-10.297 23-23 23-5.954 0-11.384-2.256-15.469-5.969 4.113 3.854 9.637 6.219 15.719 6.219 12.703 0 23-10.298 23-23 0-6.081-2.364-11.606-6.219-15.719z" style="opacity:.1"/>
 <path d="m31.25 2.375c8.615 3.154 14.75 11.417 14.75 21.13 0 12.426-10.07 22.5-22.5 22.5-9.708 0-17.971-6.135-21.12-14.75a23 23 0 0 0 44.875-7 23 23 0 0 0-16-21.875z" style="opacity:.2"/>
 <circle cx="24" cy="24" r="23" style="fill:url(#bg)"/>
 <path d="m40.03 7.531c3.712 4.084 5.969 9.514 5.969 15.469 0 12.703-10.297 23-23 23-5.954 0-11.384-2.256-15.469-5.969 4.178 4.291 10.01 6.969 16.469 6.969 12.703 0 23-10.298 23-23 0-6.462-2.677-12.291-6.969-16.469z" style="opacity:.1"/>
 <path d="m23 11c-1.108 0-2 0.892-2 2v1.7012a12 12 0 0 0-3.4258 1.873l-0.57422-0.57422 1-1-1-1-4 4 1 1 1-1 0.58398 0.58398a12 12 0 0 0-2.584 7.416 12 12 0 0 0 12 12 12 12 0 0 0 12-12 12 12 0 0 0-2.5742-7.4258l0.57422-0.57422 1 1 1-1-4-4-1 1 1 1-0.58398 0.58398a12 12 0 0 0-3.416-1.8828v-1.7012c0-1.108-0.892-2-2-2zm0 1h4c0.554 0 1 0.446 1 1v1.3945a12 12 0 0 0-1-0.21289v-0.68164c0-0.277-0.223-0.5-0.5-0.5h-3c-0.277 0-0.5 0.223-0.5 0.5v0.66992a12 12 0 0 0-1 0.2207v-1.3906c0-0.554 0.446-1 1-1z" style="opacity:.1;paint-order:normal"/>
 <path d="m22 10c-1.108 0-2 0.892-2 2v3h1v-3c0-0.554 0.446-1 1-1h4c0.554 0 1 0.446 1 1v3h1v-3c0-1.108-0.892-2-2-2h-4zm0.5 2c-0.277 0-0.5 0.223-0.5 0.5v2c0 0.277 0.223 0.5 0.5 0.5h3c0.277 0 0.5-0.223 0.5-0.5v-2c0-0.277-0.223-0.5-0.5-0.5h-3zm-6.5 1-4 4 1 1 1-1 1 1 2-2-1-1 1-1-1-1zm16 0-1 1 1 1-1 1 2 2 1-1 1 1 1-1-4-4z" style="fill:#a6a6a6;paint-order:normal"/>
 <circle cx="24" cy="25" r="12" style="fill:#c2c2c2;paint-order:normal;stroke-width:.92308"/>
 <circle cx="24" cy="25" r="10" style="fill:#f9f9f9;paint-order:normal;stroke-width:.90909"/>
 <path d="m25 16-1 2v6.2715c-0.61771 0.35663-0.99874 1.0152-1 1.7285 0 0.73866 0.40437 1.3763 1 1.7227v1.2773h2v-1.2773c0.59563-0.34636 1-0.984 1-1.7227-5.65e-4 -0.71397-0.38169-1.3735-1-1.7305v-6.2695z" style="opacity:.1;paint-order:normal"/>
 <path d="m24 15a10 10 0 0 0-1 0.060547v0.93945h2v-0.94922a10 10 0 0 0-1-0.050781zm4.1055 0.89062-0.4707 0.81445 1.7305 1 0.4707-0.81445a10 10 0 0 0-1.7305-1zm-8.209 0.003906a10 10 0 0 0-1.7305 0.99805l0.46875 0.8125 1.7305-1-0.46875-0.81055zm-4.0059 3.2695a10 10 0 0 0-1 1.7305l0.81445 0.4707 1-1.7305-0.81445-0.4707zm16.217 0.001954-0.8125 0.46875 1 1.7305 0.81055-0.46875a10 10 0 0 0-0.99805-1.7305zm-18.057 4.834a10 10 0 0 0-0.050781 1 10 10 0 0 0 0.060547 1h0.93945v-2h-0.94922zm18.949 0v2h0.94922a10 10 0 0 0 0.050781-1 10 10 0 0 0-0.060547-1h-0.93945zm-17.295 4.6348-0.81055 0.46875a10 10 0 0 0 0.99805 1.7305l0.8125-0.46875-1-1.7305zm16.59 0-1 1.7305 0.81445 0.4707a10 10 0 0 0 1-1.7305l-0.81445-0.4707zm-13.66 3.6602-0.4707 0.81445a10 10 0 0 0 1.7305 1l0.4707-0.81445-1.7305-1zm10.73 0-1.7305 1 0.46875 0.81055a10 10 0 0 0 1.7305-0.99805l-0.46875-0.8125zm-6.3652 1.7051v0.94922a10 10 0 0 0 1 0.050781 10 10 0 0 0 1-0.060547v-0.93945h-2z" style="fill:#4b4b4b;paint-order:normal"/>
 <path d="m24 15-1 2v6.2715c-0.61771 0.35663-0.99874 1.0152-1 1.7285 0 0.73866 0.40437 1.3763 1 1.7227v1.2773h2v-1.2773c0.59563-0.34636 1-0.984 1-1.7227-5.65e-4 -0.71397-0.38169-1.3735-1-1.7305v-6.2695z" style="fill:#ea5656;paint-order:normal"/>
 <circle cx="24" cy="25" r="1" style="fill:#f9f9f9;paint-order:normal"/>
</svg>
