<svg xmlns="http://www.w3.org/2000/svg" viewBox="0 0 48 48">
 <defs>
  <linearGradient id="linearGradient3764" x1="1" x2="47" gradientUnits="userSpaceOnUse" gradientTransform="matrix(0,-1,1,0,-1.5e-6,47.999998)">
   <stop style="stop-color:#5d4b33;stop-opacity:1"/>
   <stop offset="1" style="stop-color:#69553a;stop-opacity:1"/>
  </linearGradient>
 </defs>
 <g>
  <path d="m 36.31 5 c 5.859 4.062 9.688 10.831 9.688 18.5 c 0 12.426 -10.07 22.5 -22.5 22.5 c -7.669 0 -14.438 -3.828 -18.5 -9.688 c 1.037 1.822 2.306 3.499 3.781 4.969 c 4.085 3.712 9.514 5.969 15.469 5.969 c 12.703 0 23 -10.298 23 -23 c 0 -5.954 -2.256 -11.384 -5.969 -15.469 c -1.469 -1.475 -3.147 -2.744 -4.969 -3.781 z m 4.969 3.781 c 3.854 4.113 6.219 9.637 6.219 15.719 c 0 12.703 -10.297 23 -23 23 c -6.081 0 -11.606 -2.364 -15.719 -6.219 c 4.16 4.144 9.883 6.719 16.219 6.719 c 12.703 0 23 -10.298 23 -23 c 0 -6.335 -2.575 -12.06 -6.719 -16.219 z" style="opacity:0.05"/>
  <path d="m 41.28 8.781 c 3.712 4.085 5.969 9.514 5.969 15.469 c 0 12.703 -10.297 23 -23 23 c -5.954 0 -11.384 -2.256 -15.469 -5.969 c 4.113 3.854 9.637 6.219 15.719 6.219 c 12.703 0 23 -10.298 23 -23 c 0 -6.081 -2.364 -11.606 -6.219 -15.719 z" style="opacity:0.1"/>
  <path d="m 31.25 2.375 c 8.615 3.154 14.75 11.417 14.75 21.13 c 0 12.426 -10.07 22.5 -22.5 22.5 c -9.708 0 -17.971 -6.135 -21.12 -14.75 a 23 23 0 0 0 44.875 -7 a 23 23 0 0 0 -16 -21.875 z" style="opacity:0.2"/>
 </g>
 <g>
  <path d="m 24 1 c 12.703 0 23 10.297 23 23 c 0 12.703 -10.297 23 -23 23 -12.703 0 -23 -10.297 -23 -23 0 -12.703 10.297 -23 23 -23 z" style="fill:url(#linearGradient3764);fill-opacity:1"/>
 </g>
 <g>
  <g>
   <g transform="translate(1,1)">
    <g style="opacity:0.1">
     <!-- color: #69553a -->
     <g>
      <path d="m 23.965 12 c -1.32 0.023 -2.371 1.105 -2.355 2.426 l 0 3.797 l -2.68 -2.684 c -0.453 -0.461 -1.078 -0.719 -1.727 -0.719 c -0.648 0 -1.266 0.254 -1.715 0.719 c -0.918 0.949 -0.895 2.461 0.051 3.383 l 2.691 2.691 l -3.797 0 c -0.867 -0.008 -1.672 0.445 -2.105 1.188 c -0.438 0.746 -0.438 1.668 0 2.414 c 0.434 0.742 1.238 1.195 2.105 1.188 l 3.797 0 l -2.684 2.68 c -0.617 0.605 -0.867 1.488 -0.648 2.324 c 0.223 0.836 0.871 1.484 1.707 1.707 c 0.836 0.219 1.719 -0.031 2.324 -0.648 l 2.68 -2.684 l 0 3.789 c -0.008 0.863 0.445 1.668 1.188 2.105 c 0.746 0.434 1.668 0.434 2.414 0 c 0.742 -0.438 1.199 -1.242 1.188 -2.105 l 0 -3.789 l 2.68 2.684 c 0.605 0.617 1.488 0.867 2.328 0.648 c 0.836 -0.223 1.484 -0.871 1.703 -1.707 c 0.219 -0.836 -0.027 -1.73 -0.648 -2.332 l -2.672 -2.672 l 3.789 0 c 0.648 0.008 1.266 -0.25 1.723 -0.711 c 0.457 -0.457 0.711 -1.074 0.699 -1.723 c -0.02 -1.32 -1.105 -2.371 -2.422 -2.355 l -3.801 0 l 2.695 -2.691 c 0.461 -0.449 0.719 -1.066 0.719 -1.715 c 0 -0.648 -0.262 -1.266 -0.727 -1.715 c -0.945 -0.918 -2.461 -0.895 -3.383 0.047 l -2.68 2.684 l 0 -3.797 c 0.008 -0.648 -0.25 -1.27 -0.711 -1.727 c -0.457 -0.457 -1.074 -0.707 -1.723 -0.699 m -0.004 0" style="fill:#000;fill-opacity:1;stroke:none;fill-rule:nonzero"/>
     </g>
    </g>
   </g>
  </g>
 </g>
 <g>
  <g>
   <!-- color: #69553a -->
   <g>
    <path d="m 23.965 12 c -1.32 0.023 -2.371 1.105 -2.355 2.426 l 0 3.797 l -2.68 -2.684 c -0.453 -0.461 -1.078 -0.719 -1.727 -0.719 c -0.648 0 -1.266 0.254 -1.715 0.719 c -0.918 0.949 -0.895 2.461 0.051 3.383 l 2.691 2.691 l -3.797 0 c -0.867 -0.008 -1.672 0.445 -2.105 1.188 c -0.438 0.746 -0.438 1.668 0 2.414 c 0.434 0.742 1.238 1.195 2.105 1.188 l 3.797 0 l -2.684 2.68 c -0.617 0.605 -0.867 1.488 -0.648 2.324 c 0.223 0.836 0.871 1.484 1.707 1.707 c 0.836 0.219 1.719 -0.031 2.324 -0.648 l 2.68 -2.684 l 0 3.789 c -0.008 0.863 0.445 1.668 1.188 2.105 c 0.746 0.434 1.668 0.434 2.414 0 c 0.742 -0.438 1.199 -1.242 1.188 -2.105 l 0 -3.789 l 2.68 2.684 c 0.605 0.617 1.488 0.867 2.328 0.648 c 0.836 -0.223 1.484 -0.871 1.703 -1.707 c 0.219 -0.836 -0.027 -1.73 -0.648 -2.332 l -2.672 -2.672 l 3.789 0 c 0.648 0.008 1.266 -0.25 1.723 -0.711 c 0.457 -0.457 0.711 -1.074 0.699 -1.723 c -0.02 -1.32 -1.105 -2.371 -2.422 -2.355 l -3.801 0 l 2.695 -2.691 c 0.461 -0.449 0.719 -1.066 0.719 -1.715 c 0 -0.648 -0.262 -1.266 -0.727 -1.715 c -0.945 -0.918 -2.461 -0.895 -3.383 0.047 l -2.68 2.684 l 0 -3.797 c 0.008 -0.648 -0.25 -1.27 -0.711 -1.727 c -0.457 -0.457 -1.074 -0.707 -1.723 -0.699 m -0.004 0" style="fill:#f9f9f9;fill-opacity:1;stroke:none;fill-rule:nonzero"/>
   </g>
  </g>
 </g>
 <g>
  <path d="m 40.03 7.531 c 3.712 4.084 5.969 9.514 5.969 15.469 0 12.703 -10.297 23 -23 23 c -5.954 0 -11.384 -2.256 -15.469 -5.969 4.178 4.291 10.01 6.969 16.469 6.969 c 12.703 0 23 -10.298 23 -23 0 -6.462 -2.677 -12.291 -6.969 -16.469 z" style="opacity:0.1"/>
 </g>
</svg>
