<svg xmlns="http://www.w3.org/2000/svg" viewBox="0 0 48 48">
 <defs>
  <linearGradient id="linearGradient3764" x1="1" x2="47" gradientUnits="userSpaceOnUse" gradientTransform="matrix(0,-1,1,0,-1.5e-6,47.999998)">
   <stop style="stop-color:#ffb821;stop-opacity:1"/>
   <stop offset="1" style="stop-color:#ffbe34;stop-opacity:1"/>
  </linearGradient>
 </defs>
 <g>
  <path d="m 36.31 5 c 5.859 4.062 9.688 10.831 9.688 18.5 c 0 12.426 -10.07 22.5 -22.5 22.5 c -7.669 0 -14.438 -3.828 -18.5 -9.688 c 1.037 1.822 2.306 3.499 3.781 4.969 c 4.085 3.712 9.514 5.969 15.469 5.969 c 12.703 0 23 -10.298 23 -23 c 0 -5.954 -2.256 -11.384 -5.969 -15.469 c -1.469 -1.475 -3.147 -2.744 -4.969 -3.781 z m 4.969 3.781 c 3.854 4.113 6.219 9.637 6.219 15.719 c 0 12.703 -10.297 23 -23 23 c -6.081 0 -11.606 -2.364 -15.719 -6.219 c 4.16 4.144 9.883 6.719 16.219 6.719 c 12.703 0 23 -10.298 23 -23 c 0 -6.335 -2.575 -12.06 -6.719 -16.219 z" style="opacity:0.05"/>
  <path d="m 41.28 8.781 c 3.712 4.085 5.969 9.514 5.969 15.469 c 0 12.703 -10.297 23 -23 23 c -5.954 0 -11.384 -2.256 -15.469 -5.969 c 4.113 3.854 9.637 6.219 15.719 6.219 c 12.703 0 23 -10.298 23 -23 c 0 -6.081 -2.364 -11.606 -6.219 -15.719 z" style="opacity:0.1"/>
  <path d="m 31.25 2.375 c 8.615 3.154 14.75 11.417 14.75 21.13 c 0 12.426 -10.07 22.5 -22.5 22.5 c -9.708 0 -17.971 -6.135 -21.12 -14.75 a 23 23 0 0 0 44.875 -7 a 23 23 0 0 0 -16 -21.875 z" style="opacity:0.2"/>
 </g>
 <g>
  <path d="m 24 1 c 12.703 0 23 10.297 23 23 c 0 12.703 -10.297 23 -23 23 -12.703 0 -23 -10.297 -23 -23 0 -12.703 10.297 -23 23 -23 z" style="fill:url(#linearGradient3764);fill-opacity:1"/>
 </g>
 <g>
  <g>
   <g transform="translate(1,1)">
    <g style="opacity:0.1">
     <!-- color: #ffbe34 -->
     <g>
      <path d="m 24.04 17 c -4.18 0 -7.336 2.238 -9.457 3.359 c -2.117 1.125 -3.262 2.305 -3.262 2.305 c -0.313 0.316 -0.313 0.914 0 1.23 c 0 0 0.426 0.414 1.164 0.965 l -1.266 1.34 c -0.301 0.324 -0.297 0.906 0.008 1.223 c 0.305 0.32 0.855 0.309 1.152 -0.02 l 1.52 -1.605 c 0.215 0.129 0.441 0.273 0.684 0.402 c 0.594 0.316 1.293 0.625 2.047 0.91 l -0.48 1.93 c -0.109 0.434 0.168 0.93 0.578 1.043 c 0.41 0.113 0.883 -0.18 0.984 -0.617 l 0.484 -1.844 c 1.449 0.41 3.129 0.707 5.03 0.773 l 0 1.742 c -0.008 0.453 0.383 0.867 0.809 0.867 c 0.426 0 0.813 -0.414 0.805 -0.867 l 0 -1.742 c 1.984 -0.07 3.723 -0.367 5.211 -0.805 l 0.48 1.906 c 0.109 0.434 0.59 0.727 1 0.605 c 0.41 -0.121 0.684 -0.629 0.566 -1.066 l -0.508 -1.977 c 0.699 -0.273 1.344 -0.566 1.898 -0.855 c 0.238 -0.129 0.469 -0.273 0.684 -0.402 l 1.418 1.5 c 0.297 0.32 0.844 0.324 1.145 0.008 c 0.301 -0.316 0.309 -0.891 0.016 -1.211 l -1.16 -1.234 c 0.738 -0.551 1.16 -0.965 1.16 -0.965 c 0.313 -0.316 0.313 -0.914 0 -1.23 c 0 0 -1.141 -1.18 -3.262 -2.305 c -2.121 -1.125 -5.277 -3.359 -9.457 -3.359 m 0.008 1.711 c 3.914 0 6.828 2.18 8.754 3.195 c 1.32 0.699 1.527 1.016 1.922 1.367 c -0.398 0.352 -0.602 0.664 -1.922 1.363 c -1.898 1 -4.766 2.035 -8.602 2.063 c -0.098 -0.023 -0.199 -0.023 -0.305 0 c -3.832 -0.027 -6.695 -1.059 -8.598 -2.063 c -1.32 -0.699 -1.527 -1.016 -1.922 -1.363 c 0.398 -0.355 0.602 -0.668 1.922 -1.367 c 1.926 -1.02 4.84 -3.195 8.75 -3.195 m 0 0" style="fill:#000;fill-opacity:1;stroke:none;fill-rule:nonzero"/>
     </g>
    </g>
   </g>
  </g>
 </g>
 <g>
  <g>
   <!-- color: #ffbe34 -->
   <g>
    <path d="m 24.04 17 c -4.18 0 -7.336 2.238 -9.457 3.359 c -2.117 1.125 -3.262 2.305 -3.262 2.305 c -0.313 0.316 -0.313 0.914 0 1.23 c 0 0 0.426 0.414 1.164 0.965 l -1.266 1.34 c -0.301 0.324 -0.297 0.906 0.008 1.223 c 0.305 0.32 0.855 0.309 1.152 -0.02 l 1.52 -1.605 c 0.215 0.129 0.441 0.273 0.684 0.402 c 0.594 0.316 1.293 0.625 2.047 0.91 l -0.48 1.93 c -0.109 0.434 0.168 0.93 0.578 1.043 c 0.41 0.113 0.883 -0.18 0.984 -0.617 l 0.484 -1.844 c 1.449 0.41 3.129 0.707 5.03 0.773 l 0 1.742 c -0.008 0.453 0.383 0.867 0.809 0.867 c 0.426 0 0.813 -0.414 0.805 -0.867 l 0 -1.742 c 1.984 -0.07 3.723 -0.367 5.211 -0.805 l 0.48 1.906 c 0.109 0.434 0.59 0.727 1 0.605 c 0.41 -0.121 0.684 -0.629 0.566 -1.066 l -0.508 -1.977 c 0.699 -0.273 1.344 -0.566 1.898 -0.855 c 0.238 -0.129 0.469 -0.273 0.684 -0.402 l 1.418 1.5 c 0.297 0.32 0.844 0.324 1.145 0.008 c 0.301 -0.316 0.309 -0.891 0.016 -1.211 l -1.16 -1.234 c 0.738 -0.551 1.16 -0.965 1.16 -0.965 c 0.313 -0.316 0.313 -0.914 0 -1.23 c 0 0 -1.141 -1.18 -3.262 -2.305 c -2.121 -1.125 -5.277 -3.359 -9.457 -3.359 m 0.008 1.711 c 3.914 0 6.828 2.18 8.754 3.195 c 1.32 0.699 1.527 1.016 1.922 1.367 c -0.398 0.352 -0.602 0.664 -1.922 1.363 c -1.898 1 -4.766 2.035 -8.602 2.063 c -0.098 -0.023 -0.199 -0.023 -0.305 0 c -3.832 -0.027 -6.695 -1.059 -8.598 -2.063 c -1.32 -0.699 -1.527 -1.016 -1.922 -1.363 c 0.398 -0.355 0.602 -0.668 1.922 -1.367 c 1.926 -1.02 4.84 -3.195 8.75 -3.195 m 0 0" style="fill:#2d2d2d;fill-opacity:1;stroke:none;fill-rule:nonzero"/>
   </g>
  </g>
 </g>
 <g>
  <path d="m 40.03 7.531 c 3.712 4.084 5.969 9.514 5.969 15.469 0 12.703 -10.297 23 -23 23 c -5.954 0 -11.384 -2.256 -15.469 -5.969 4.178 4.291 10.01 6.969 16.469 6.969 c 12.703 0 23 -10.298 23 -23 0 -6.462 -2.677 -12.291 -6.969 -16.469 z" style="opacity:0.1"/>
 </g>
</svg>
