<svg version="1.1" viewBox="0 0 48 48" xmlns="http://www.w3.org/2000/svg" xmlns:xlink="http://www.w3.org/1999/xlink">
 <defs>
  <linearGradient id="bg" x2="0" y1="47" y2="1" gradientUnits="userSpaceOnUse">
   <stop style="stop-color:#f19341" offset="0"/>
   <stop style="stop-color:#f29e54" offset="1"/>
  </linearGradient>
 </defs>
 <path d="m36.31 5c5.859 4.062 9.688 10.831 9.688 18.5 0 12.426-10.07 22.5-22.5 22.5-7.669 0-14.438-3.828-18.5-9.688 1.037 1.822 2.306 3.499 3.781 4.969 4.085 3.712 9.514 5.969 15.469 5.969 12.703 0 23-10.298 23-23 0-5.954-2.256-11.384-5.969-15.469-1.469-1.475-3.147-2.744-4.969-3.781zm4.969 3.781c3.854 4.113 6.219 9.637 6.219 15.719 0 12.703-10.297 23-23 23-6.081 0-11.606-2.364-15.719-6.219 4.16 4.144 9.883 6.719 16.219 6.719 12.703 0 23-10.298 23-23 0-6.335-2.575-12.06-6.719-16.219z" style="opacity:.05"/>
 <path d="m41.28 8.781c3.712 4.085 5.969 9.514 5.969 15.469 0 12.703-10.297 23-23 23-5.954 0-11.384-2.256-15.469-5.969 4.113 3.854 9.637 6.219 15.719 6.219 12.703 0 23-10.298 23-23 0-6.081-2.364-11.606-6.219-15.719z" style="opacity:.1"/>
 <path d="m31.25 2.375c8.615 3.154 14.75 11.417 14.75 21.13 0 12.426-10.07 22.5-22.5 22.5-9.708 0-17.971-6.135-21.12-14.75a23 23 0 0 0 44.875-7 23 23 0 0 0-16-21.875z" style="opacity:.2"/>
 <circle cx="24" cy="24" r="23" style="fill:url(#bg)"/>
 <path d="m36.398 12s-4.396 4-4.398 4l-2.219-1.221v2e-3l-0.219 0.781c0.551 0.154 1.08 0.406 1.557 0.705l-16.64 17.064-0.622 2.799 0.143-0.13 2.584-0.503 2.434-2.496h13.982v-14.342l0.232-0.238c0.428 0.643 0.802 1.335 0.924 1.893l0.813-0.189c-0.224-1.02-0.882-2.124-1.574-2.951l3.104-3.18c0.49835-0.06483 0.87118-0.48945 0.871-0.992 2.28e-4 -0.54116-0.43007-0.98431-0.971-1z" style="opacity:.1"/>
 <rect x="16" y="16" width="16" height="16" style="fill:#be3738"/>
 <path d="m16 32h3.992l12.01-12.316v-3.684" style="opacity:.1"/>
 <path d="m40.03 7.531c3.712 4.084 5.969 9.514 5.969 15.469 0 12.703-10.297 23-23 23-5.954 0-11.384-2.256-15.469-5.969 4.178 4.291 10.01 6.969 16.469 6.969 12.703 0 23-10.298 23-23 0-6.462-2.677-12.291-6.969-16.469z" style="opacity:.1"/>
 <path d="m30.553 14.82-17.074 17.512-0.47852 2.668 10-9 8.3535-9.7695z" style="fill:#c4c4c4"/>
 <path d="m31.353 16.231-18.353 18.769 2.5719-0.48472 16.829-17.263z" style="fill:#a1a1a1"/>
 <rect transform="matrix(.69731 .71677 -.69818 .71592 0 0)" x="33" y="-17.18" width="1.5" height="6" style="fill:#864f2c"/>
 <path d="m35.295 11.002a1 1 0 0 0-0.92578 0.99805 1 1 0 0 0 2 0 1 1 0 0 0-1.0742-0.99805zm-6.5137 2.7773v0.001953l-0.21875 0.78125c1.071 0.3 2.0633 0.96172 2.7383 1.6367 0.726 0.791 1.6465 2.1613 1.8555 3.1133l0.8125-0.18945c-0.277-1.261-1.2145-2.675-2.0625-3.5-0.911-0.886-2.09-1.5418-3.125-1.8438z" style="fill:#9a7b32"/>
</svg>
