<svg xmlns="http://www.w3.org/2000/svg" viewBox="0 0 48 48">
 <defs>
  <linearGradient id="linearGradient3764" x1="1" x2="47" gradientUnits="userSpaceOnUse" gradientTransform="matrix(0,-1,1,0,-1.5e-6,47.999998)">
   <stop style="stop-color:#eac706;stop-opacity:1"/>
   <stop offset="1" style="stop-color:#f9d40b;stop-opacity:1"/>
  </linearGradient>
 </defs>
 <g>
  <path d="m 36.31 5 c 5.859 4.062 9.688 10.831 9.688 18.5 c 0 12.426 -10.07 22.5 -22.5 22.5 c -7.669 0 -14.438 -3.828 -18.5 -9.688 c 1.037 1.822 2.306 3.499 3.781 4.969 c 4.085 3.712 9.514 5.969 15.469 5.969 c 12.703 0 23 -10.298 23 -23 c 0 -5.954 -2.256 -11.384 -5.969 -15.469 c -1.469 -1.475 -3.147 -2.744 -4.969 -3.781 z m 4.969 3.781 c 3.854 4.113 6.219 9.637 6.219 15.719 c 0 12.703 -10.297 23 -23 23 c -6.081 0 -11.606 -2.364 -15.719 -6.219 c 4.16 4.144 9.883 6.719 16.219 6.719 c 12.703 0 23 -10.298 23 -23 c 0 -6.335 -2.575 -12.06 -6.719 -16.219 z" style="opacity:0.05"/>
  <path d="m 41.28 8.781 c 3.712 4.085 5.969 9.514 5.969 15.469 c 0 12.703 -10.297 23 -23 23 c -5.954 0 -11.384 -2.256 -15.469 -5.969 c 4.113 3.854 9.637 6.219 15.719 6.219 c 12.703 0 23 -10.298 23 -23 c 0 -6.081 -2.364 -11.606 -6.219 -15.719 z" style="opacity:0.1"/>
  <path d="m 31.25 2.375 c 8.615 3.154 14.75 11.417 14.75 21.13 c 0 12.426 -10.07 22.5 -22.5 22.5 c -9.708 0 -17.971 -6.135 -21.12 -14.75 a 23 23 0 0 0 44.875 -7 a 23 23 0 0 0 -16 -21.875 z" style="opacity:0.2"/>
 </g>
 <g>
  <path d="m 24 1 c 12.703 0 23 10.297 23 23 c 0 12.703 -10.297 23 -23 23 -12.703 0 -23 -10.297 -23 -23 0 -12.703 10.297 -23 23 -23 z" style="fill:url(#linearGradient3764);fill-opacity:1"/>
 </g>
 <g>
  <g>
   <g transform="translate(1,1)">
    <g style="opacity:0.1">
     <!-- color: #ffd000 -->
    </g>
   </g>
  </g>
 </g>
 <g>
  <g>
   <!-- color: #ffd000 -->
   <g>
    <path d="m 25 12 c -6.627 0 -12 5.373 -12 12 0.001 2.107 0.554 4.181 1.619 6 0.199 0.34 0.526 0.697 0.717 1.043 0 0.055 -0.281 0.395 -0.625 0.75 -0.781 0.809 -1.107 1.519 -1.199 2.582 c -0.197 2.265 0.914 3.625 3.488 3.625 l 13 0 c 4 0 4.174 -0.088 5.268 -0.719 0.689 -0.397 0.989 -0.81 1.184 -1.629 0.297 -1.247 -0.169 -2.434 -1.396 -3.508 l -0.729 -0.637 c 0.337 -0.484 0.767 -1.033 1.049 -1.508 c 1.075 -1.813 1.624 -3.892 1.625 -6 0.004 -6.627 -5.373 -12 -12 -12 z m 0 1 c 6.075 0 11 4.925 11 11 -0.001 2.131 -0.459 4.337 -1.793 6 -1.423 1.774 -3.804 3.48 -5.84 4.045 -1.23 0.312 -1.588 0.397 -1.955 -0.318 -0.633 -1.233 -2.441 -2.43 -4.551 -2.857 -1.265 -0.256 -3.131 -0.205 -4.242 0.002 l -0.734 0.137 c -0.327 -0.292 -0.874 -0.672 -1.1 -1.01 c -1.188 -1.769 -1.785 -3.869 -1.785 -6 -0.001 -6.075 4.925 -11 11 -11 z m -1.5 6 a 1.5 2.5 0 0 0 -1.5 2.5 1.5 2.5 0 0 0 1.5 2.5 1.5 2.5 0 0 0 1.5 -2.5 1.5 2.5 0 0 0 -1.5 -2.5 z m 5 0 a 1.5 2.5 0 0 0 -1.5 2.5 1.5 2.5 0 0 0 1.5 2.5 1.5 2.5 0 0 0 1.5 -2.5 1.5 2.5 0 0 0 -1.5 -2.5 z m -9.604 12.385 c 2.039 0.02 4.61 0.426 6.115 1.629 0.59 0.471 1.047 1.332 1.063 1.953 c 0.019 0.934 -1.074 2.033 -2.074 2.033 l -5.738 0 c -3.262 0 -3.666 -0.593 -3.664 -2.195 0.002 -1.281 0.793 -2.437 2.047 -2.98 0.614 -0.265 1.399 -0.448 2.252 -0.439 z m 14.275 0.818 c 0.286 0 1.489 0.941 1.852 1.445 0.587 0.883 0.582 1.777 0.02 2.328 c -1.043 1.023 -3.02 1.023 -4.863 1.023 l -2.082 0 c -2.023 0 -1.996 -0.146 -1.582 -0.943 0.133 -0.27 0.246 -0.547 0.246 -0.629 0 -0.157 0.207 -0.237 1.555 -0.604 1.109 -0.301 2.605 -1.059 3.73 -1.887 0.547 -0.406 1.051 -0.734 1.125 -0.734 z" style="fill:#000;opacity:0.1;fill-opacity:1;stroke:none;fill-rule:nonzero"/>
    <path d="m 24 11 c -6.627 0 -12 5.373 -12 12 c 0.001 2.107 0.554 4.181 1.619 6 c 0.199 0.34 0.526 0.697 0.717 1.043 c 0 0.055 -0.281 0.395 -0.625 0.75 c -0.781 0.809 -1.107 1.519 -1.199 2.582 c -0.197 2.265 0.914 3.625 3.488 3.625 l 13 0 c 4.01 0 4.174 -0.088 5.268 -0.719 c 0.689 -0.397 0.989 -0.81 1.184 -1.629 c 0.297 -1.247 -0.169 -2.434 -1.396 -3.508 l -0.729 -0.637 c 0.337 -0.484 0.767 -1.033 1.049 -1.508 c 1.075 -1.813 1.624 -3.892 1.625 -6 c 0.004 -6.627 -5.373 -12 -12 -12 z m 0 1 c 6.075 0 11 4.925 11 11 c -0.001 2.131 -0.459 4.337 -1.793 6 c -1.423 1.774 -3.804 3.48 -5.84 4.045 c -1.23 0.312 -1.588 0.397 -1.955 -0.318 c -0.633 -1.233 -2.441 -2.43 -4.551 -2.857 c -1.265 -0.256 -3.131 -0.205 -4.242 0.002 l -0.734 0.137 c -0.327 -0.292 -0.874 -0.672 -1.1 -1.01 c -1.188 -1.769 -1.785 -3.869 -1.785 -6 c -0.001 -6.075 4.925 -11 11 -11 z m -1.5 6 a 1.5 2.5 0 0 0 -1.5 2.5 a 1.5 2.5 0 0 0 1.5 2.5 a 1.5 2.5 0 0 0 1.5 -2.5 a 1.5 2.5 0 0 0 -1.5 -2.5 z m 5 0 a 1.5 2.5 0 0 0 -1.5 2.5 a 1.5 2.5 0 0 0 1.5 2.5 a 1.5 2.5 0 0 0 1.5 -2.5 a 1.5 2.5 0 0 0 -1.5 -2.5 z m -9.604 12.385 c 2.039 0.02 4.61 0.426 6.115 1.629 c 0.59 0.471 1.047 1.332 1.063 1.953 c 0.019 0.934 -1.074 2.033 -2.074 2.033 l -5.738 0 c -3.262 0 -3.666 -0.593 -3.664 -2.195 c 0.002 -1.281 0.793 -2.437 2.047 -2.98 c 0.614 -0.265 1.399 -0.448 2.252 -0.439 z m 14.275 0.818 c 0.286 0 1.489 0.941 1.852 1.445 c 0.587 0.883 0.582 1.777 0.02 2.328 c -1.043 1.023 -3.02 1.023 -4.863 1.023 l -2.082 0 c -2.023 0 -1.996 -0.146 -1.582 -0.943 c 0.133 -0.27 0.246 -0.547 0.246 -0.629 c 0 -0.157 0.207 -0.237 1.555 -0.604 c 1.109 -0.301 2.605 -1.059 3.73 -1.887 c 0.547 -0.406 1.051 -0.734 1.125 -0.734 z" style="fill:#333;fill-opacity:1;stroke:none;fill-rule:nonzero"/>
   </g>
  </g>
 </g>
 <g>
  <path d="m 40.03 7.531 c 3.712 4.084 5.969 9.514 5.969 15.469 0 12.703 -10.297 23 -23 23 c -5.954 0 -11.384 -2.256 -15.469 -5.969 4.178 4.291 10.01 6.969 16.469 6.969 c 12.703 0 23 -10.298 23 -23 0 -6.462 -2.677 -12.291 -6.969 -16.469 z" style="opacity:0.1"/>
 </g>
</svg>
