<svg version="1.1" viewBox="0 0 48 48" xmlns="http://www.w3.org/2000/svg">
 <defs>
  <linearGradient id="bg" x2="0" y1="1" y2="47" gradientUnits="userSpaceOnUse">
   <stop style="stop-color:#69d3c6" offset="0"/>
   <stop style="stop-color:#5acfc0" offset="1"/>
  </linearGradient>
 </defs>
 <path d="m36.3 5c5.86 4.06 9.69 10.8 9.69 18.5 0 12.4-10.1 22.5-22.5 22.5-7.67 0-14.4-3.83-18.5-9.69 1.04 1.82 2.31 3.5 3.78 4.97 4.08 3.71 9.51 5.97 15.5 5.97 12.7 0 23-10.3 23-23 0-5.95-2.26-11.4-5.97-15.5-1.47-1.48-3.15-2.74-4.97-3.78zm4.97 3.78c3.85 4.11 6.22 9.64 6.22 15.7 0 12.7-10.3 23-23 23-6.08 0-11.6-2.36-15.7-6.22 4.16 4.14 9.88 6.72 16.2 6.72 12.7 0 23-10.3 23-23 0-6.34-2.58-12.1-6.72-16.2z" style="opacity:.05"/>
 <path d="m41.3 8.78c3.71 4.08 5.97 9.51 5.97 15.5 0 12.7-10.3 23-23 23-5.95 0-11.4-2.26-15.5-5.97 4.11 3.85 9.64 6.22 15.7 6.22 12.7 0 23-10.3 23-23 0-6.08-2.36-11.6-6.22-15.7z" style="opacity:.1"/>
 <path d="m31.2 2.38c8.62 3.15 14.8 11.4 14.8 21.1 0 12.4-10.1 22.5-22.5 22.5-9.71 0-18-6.14-21.1-14.8a23 23 0 0 0 44.9-7 23 23 0 0 0-16-21.9z" style="opacity:.2"/>
 <circle cx="24" cy="24" r="23" style="fill:url(#bg)"/>
 <path d="m40 7.53c3.71 4.08 5.97 9.51 5.97 15.5 0 12.7-10.3 23-23 23-5.95 0-11.4-2.26-15.5-5.97 4.18 4.29 10 6.97 16.5 6.97 12.7 0 23-10.3 23-23 0-6.46-2.68-12.3-6.97-16.5z" style="opacity:.1"/>
 <path d="m25 12c-0.552 0-1 0.448-1 1s0.448 1 1 1c0.0871-4.42e-4 0.174-0.0123 0.258-0.0352l2.04 2.04-15.3 16c0 1.11 0.892 2 2 2v1c0 0.554 0.446 1 1 1h20c0.554 0 1-0.446 1-1v-1c1.11 0 2-0.892 2-2v-14c0-1.11-0.892-2-2-2h-5.3l2.04-2.04c0.084 0.0229 0.171 0.0347 0.258 0.0352 0.552 0 1-0.448 1-1s-0.448-1-1-1-1 0.448-1 1c4.42e-4 0.0871 0.0123 0.174 0.0352 0.258l-2.74 2.74h-0.586l-2.74-2.74c0.0229-0.084 0.0347-0.171 0.0352-0.258 0-0.552-0.448-1-1-1z" style="opacity:.1"/>
 <path d="m24 11a1 1 0 0 0-1 1 1 1 0 0 0 1 1 1 1 0 0 0 0.258-0.0352l3.74 3.73 3.74-3.73a1 1 0 0 0 0.258 0.0352 1 1 0 0 0 1-1 1 1 0 0 0-1-1 1 1 0 0 0-1 1 1 1 0 0 0 0.0352 0.258l-3.04 3.04-3.04-3.04a1 1 0 0 0 0.0352-0.258 1 1 0 0 0-1-1z" style="fill:#999"/>
 <path d="m35 32v2c0 0.554-0.446 1-1 1h-20c-0.554 0-1-0.446-1-1v-2z" style="fill:#6e5949"/>
 <path d="m13 15h22c1.11 0 2 0.892 2 2v14c0 1.11-0.892 2-2 2h-22c-1.11 0-2-0.892-2-2v-14c0-1.11 0.892-2 2-2z" style="fill:#9d7458"/>
 <path d="m14.5 17c-0.831 0-1.5 0.669-1.5 1.5v11c0 0.831 0.669 1.5 1.5 1.5h15c0.831 0 1.5-0.669 1.5-1.5v-11c0-0.831-0.669-1.5-1.5-1.5zm19 0a1.5 1.5 0 0 0-1.5 1.5 1.5 1.5 0 0 0 1.5 1.5 1.5 1.5 0 0 0 1.5-1.5 1.5 1.5 0 0 0-1.5-1.5zm0 4a1.5 1.5 0 0 0-1.5 1.5 1.5 1.5 0 0 0 1.5 1.5 1.5 1.5 0 0 0 1.5-1.5 1.5 1.5 0 0 0-1.5-1.5z" style="fill:#6e5949"/>
 <path d="m32.5 26c-0.277 0-0.5 0.223-0.5 0.5s0.223 0.5 0.5 0.5h2c0.277 0 0.5-0.223 0.5-0.5s-0.223-0.5-0.5-0.5zm0 2c-0.277 0-0.5 0.223-0.5 0.5s0.223 0.5 0.5 0.5h2c0.277 0 0.5-0.223 0.5-0.5s-0.223-0.5-0.5-0.5zm0 2c-0.277 0-0.5 0.223-0.5 0.5s0.223 0.5 0.5 0.5h2c0.277 0 0.5-0.223 0.5-0.5s-0.223-0.5-0.5-0.5z" style="opacity:.3"/>
 <path d="m22 18c8 0 8 0 8 6s0 6-8 6-8 0-8-6 0-6 8-6z" style="fill:#b6d3f6"/>
 <path d="m13 33h22v1h-22z" style="opacity:.1"/>
 <path d="m34.1 17.1a0.5 0.5 0 0 0-0.145 0.352 0.5 0.5 0 0 0 0.5 0.5 0.5 0.5 0 0 0 0.352-0.145 1.5 1.5 0 0 0-0.707-0.707zm-1.28 4.01a1.5 1.5 0 0 0-0.705 0.705 0.5 0.5 0 0 0 0.338 0.135 0.5 0.5 0 0 0 0.5-0.5 0.5 0.5 0 0 0-0.133-0.34z" style="opacity:.1"/>
</svg>
