<svg version="1.1" viewBox="0 0 48 48" xmlns="http://www.w3.org/2000/svg">
 <defs>
  <linearGradient id="bg" x2="0" y1="1" y2="47" gradientUnits="userSpaceOnUse">
   <stop style="stop-color:#15407f" offset="0"/>
   <stop style="stop-color:#12376e" offset="1"/>
  </linearGradient>
 </defs>
 <path d="m36.31 5c5.859 4.062 9.688 10.831 9.688 18.5 0 12.426-10.07 22.5-22.5 22.5-7.669 0-14.438-3.828-18.5-9.688 1.037 1.822 2.306 3.499 3.781 4.969 4.085 3.712 9.514 5.969 15.469 5.969 12.703 0 23-10.298 23-23 0-5.954-2.256-11.384-5.969-15.469-1.469-1.475-3.147-2.744-4.969-3.781zm4.969 3.781c3.854 4.113 6.219 9.637 6.219 15.719 0 12.703-10.297 23-23 23-6.081 0-11.606-2.364-15.719-6.219 4.16 4.144 9.883 6.719 16.219 6.719 12.703 0 23-10.298 23-23 0-6.335-2.575-12.06-6.719-16.219z" style="opacity:.05"/>
 <path d="m41.28 8.781c3.712 4.085 5.969 9.514 5.969 15.469 0 12.703-10.297 23-23 23-5.954 0-11.384-2.256-15.469-5.969 4.113 3.854 9.637 6.219 15.719 6.219 12.703 0 23-10.298 23-23 0-6.081-2.364-11.606-6.219-15.719z" style="opacity:.1"/>
 <path d="m31.25 2.375c8.615 3.154 14.75 11.417 14.75 21.13 0 12.426-10.07 22.5-22.5 22.5-9.708 0-17.971-6.135-21.12-14.75a23 23 0 0 0 44.875-7 23 23 0 0 0-16-21.875z" style="opacity:.2"/>
 <circle cx="24" cy="24" r="23" style="fill:url(#bg)"/>
 <path d="m40.03 7.531c3.712 4.084 5.969 9.514 5.969 15.469 0 12.703-10.297 23-23 23-5.954 0-11.384-2.256-15.469-5.969 4.178 4.291 10.01 6.969 16.469 6.969 12.703 0 23-10.298 23-23 0-6.462-2.677-12.291-6.969-16.469z" style="opacity:.1"/>
 <g transform="translate(10 3.8652)" style="opacity:.1">
  <path d="m15 6.1348c-2.6514 1.52e-5 -5.5815 0.6542-7.9922 2.0879-0.16293-0.058374-0.33474-0.087928-0.50781-0.087891-0.82843 1.811e-4 -1.5 0.67157-1.5 1.5-2e-7 0.82843 0.67157 1.5003 1.5 1.5 0.69256-2.5e-4 1.2947-0.47517 1.457-1.1484 2.1479-1.3223 4.6386-1.8517 7.043-1.8516 7.1797 2.927e-4 13 5.8203 13 13 4.2e-5 2.4438-0.68535 4.9046-2.0977 7.0801-0.30063 0.46309-0.16817 1.0822 0.29492 1.3828 0.4629 0.30051 1.0821 0.16983 1.3828-0.29297 1.6278-2.5057 2.4203-5.3472 2.4199-8.1699-0.0012-8.2843-6.7157-15-15-15zm0 5c-5.5152 0.01216-9.9991 4.4848-10 10-2.939e-4 1.714 0.43856 3.4398 1.3398 5 0.276 0.47776 0.88728 0.64089 1.3652 0.36523 0.4782-0.2758 0.64303-0.88707 0.36719-1.3652-0.72161-1.2509-1.0723-2.6306-1.0723-4-3.19e-5 -4.4183 3.5817-8 8-8 1.3694 1e-5 2.7491 0.35066 4 1.0723 0.47817 0.27585 1.0894 0.11101 1.3652-0.36719 0.27566-0.47795 0.11252-1.0892-0.36523-1.3652-1.4681-0.84812-3-1.3443-5-1.3398zm-11.754 1.375c-0.33413 0.0039-0.64417 0.17484-0.82617 0.45508-1.6274 2.5059-2.4203 5.3472-2.4199 8.1699 0.0012115 8.2843 6.7157 14.999 15 15 2.7623 2.33e-4 5.6588-0.552 8.1328-2.0469 0.11999 0.03073 0.24332 0.04682 0.36719 0.04687 0.82843 3.52e-4 1.5-0.67157 1.5-1.5s-0.67157-1.5-1.5-1.5c-0.75064 2.9e-5 -1.3857 0.55497-1.4863 1.2988-2.1381 1.2651-4.6428 1.7013-7.0137 1.7012-7.1797-2.93e-4 -13-5.8203-13-13-4.15e-5 -2.4438 0.68535-4.9046 2.0977-7.0801 0.30063-0.46309 0.16811-1.0821-0.29492-1.3828-0.16563-0.10757-0.35916-0.16442-0.55664-0.16211zm19.502 3.125c-0.15965 0.0079-0.31473 0.05478-0.45312 0.13476-0.47795 0.27623-0.64304 0.88707-0.36719 1.3652 0.72161 1.2509 1.0723 2.6306 1.0723 4 3.2e-5 4.4183-3.5817 8-8 8-1.3694-1e-5 -2.7492-0.35048-4-1.0723-0.14623-0.08438-0.31167-0.12971-0.48047-0.13281-0.36394-0.0067-0.70284 0.18472-0.88477 0.5-0.27575 0.47789-0.11252 1.0892 0.36523 1.3652 1.5602 0.90128 3.286 1.3401 5 1.3398 5.5228-9.55e-4 9.999-4.4772 10-10 3.08e-4 -1.714-0.43917-3.4395-1.3398-5-0.17191-0.29786-0.48448-0.4867-0.82812-0.5-0.02799-0.0011-0.05601-0.0014-0.08398 0zm-7.748 2.5c-1.6585 3.2e-5 -3.0001 1.3628-3 3 1.18e-4 1.6569 1.3431 3 3 3s3-1.3431 3-3-1.3431-3-3-3zm0 2c0.55228 0 1 0.44772 1 1s-0.44772 1-1 1-1-0.44772-1-1 0.44772-1 1-1z"/>
 </g>
 <g transform="translate(9.0001 2.8652)" style="fill:#0bcb97">
  <path d="m15 6.1348c-2.6514 1.52e-5 -5.5815 0.6542-7.9922 2.0879-0.16293-0.058374-0.33474-0.087928-0.50781-0.087891-0.82843 1.811e-4 -1.5 0.67157-1.5 1.5-2e-7 0.82843 0.67157 1.5003 1.5 1.5 0.69256-2.5e-4 1.2947-0.47517 1.457-1.1484 2.1479-1.3223 4.6386-1.8517 7.043-1.8516 7.1797 2.927e-4 13 5.8203 13 13 4.2e-5 2.4438-0.68535 4.9046-2.0977 7.0801-0.30063 0.46309-0.16817 1.0822 0.29492 1.3828 0.4629 0.30051 1.0821 0.16983 1.3828-0.29297 1.6278-2.5057 2.4203-5.3472 2.4199-8.1699-0.0012-8.2843-6.7157-15-15-15zm0 5c-5.5152 0.01216-9.9991 4.4848-10 10-2.939e-4 1.714 0.43856 3.4398 1.3398 5 0.276 0.47776 0.88728 0.64089 1.3652 0.36523 0.4782-0.2758 0.64303-0.88707 0.36719-1.3652-0.72161-1.2509-1.0723-2.6306-1.0723-4-3.19e-5 -4.4183 3.5817-8 8-8 1.3694 1e-5 2.7491 0.35066 4 1.0723 0.47817 0.27585 1.0894 0.11101 1.3652-0.36719 0.27566-0.47795 0.11252-1.0892-0.36523-1.3652-1.4681-0.84812-3-1.3443-5-1.3398zm-11.754 1.375c-0.33413 0.0039-0.64417 0.17484-0.82617 0.45508-1.6274 2.5059-2.4203 5.3472-2.4199 8.1699 0.0012115 8.2843 6.7157 14.999 15 15 2.7623 2.33e-4 5.6588-0.552 8.1328-2.0469 0.11999 0.03073 0.24332 0.04682 0.36719 0.04687 0.82843 3.52e-4 1.5-0.67157 1.5-1.5s-0.67157-1.5-1.5-1.5c-0.75064 2.9e-5 -1.3857 0.55497-1.4863 1.2988-2.1381 1.2651-4.6428 1.7013-7.0137 1.7012-7.1797-2.93e-4 -13-5.8203-13-13-4.15e-5 -2.4438 0.68535-4.9046 2.0977-7.0801 0.30063-0.46309 0.16811-1.0821-0.29492-1.3828-0.16563-0.10757-0.35916-0.16442-0.55664-0.16211zm19.502 3.125c-0.15965 0.0079-0.31473 0.05478-0.45312 0.13476-0.47795 0.27623-0.64304 0.88707-0.36719 1.3652 0.72161 1.2509 1.0723 2.6306 1.0723 4 3.2e-5 4.4183-3.5817 8-8 8-1.3694-1e-5 -2.7492-0.35048-4-1.0723-0.14623-0.08438-0.31167-0.12971-0.48047-0.13281-0.36394-0.0067-0.70284 0.18472-0.88477 0.5-0.27575 0.47789-0.11252 1.0892 0.36523 1.3652 1.5602 0.90128 3.286 1.3401 5 1.3398 5.5228-9.55e-4 9.999-4.4772 10-10 3.08e-4 -1.714-0.43917-3.4395-1.3398-5-0.17191-0.29786-0.48448-0.4867-0.82812-0.5-0.02799-0.0011-0.05601-0.0014-0.08398 0zm-7.748 2.5c-1.6585 3.2e-5 -3.0001 1.3628-3 3 1.18e-4 1.6569 1.3431 3 3 3s3-1.3431 3-3-1.3431-3-3-3zm0 2c0.55228 0 1 0.44772 1 1s-0.44772 1-1 1-1-0.44772-1-1 0.44772-1 1-1z" style="fill:#0bcb97"/>
 </g>
</svg>
