<svg xmlns="http://www.w3.org/2000/svg" viewBox="0 0 48 48">
 <defs>
  <linearGradient id="linearGradient3764" x1="1" x2="47" gradientUnits="userSpaceOnUse" gradientTransform="matrix(0,-1,1,0,-1.5e-6,47.999998)">
   <stop style="stop-color:#e4e4e4;stop-opacity:1"/>
   <stop offset="1" style="stop-color:#eee;stop-opacity:1"/>
  </linearGradient>
 </defs>
 <g>
  <path d="m 36.31 5 c 5.859 4.062 9.688 10.831 9.688 18.5 c 0 12.426 -10.07 22.5 -22.5 22.5 c -7.669 0 -14.438 -3.828 -18.5 -9.688 c 1.037 1.822 2.306 3.499 3.781 4.969 c 4.085 3.712 9.514 5.969 15.469 5.969 c 12.703 0 23 -10.298 23 -23 c 0 -5.954 -2.256 -11.384 -5.969 -15.469 c -1.469 -1.475 -3.147 -2.744 -4.969 -3.781 z m 4.969 3.781 c 3.854 4.113 6.219 9.637 6.219 15.719 c 0 12.703 -10.297 23 -23 23 c -6.081 0 -11.606 -2.364 -15.719 -6.219 c 4.16 4.144 9.883 6.719 16.219 6.719 c 12.703 0 23 -10.298 23 -23 c 0 -6.335 -2.575 -12.06 -6.719 -16.219 z" style="opacity:0.05"/>
  <path d="m 41.28 8.781 c 3.712 4.085 5.969 9.514 5.969 15.469 c 0 12.703 -10.297 23 -23 23 c -5.954 0 -11.384 -2.256 -15.469 -5.969 c 4.113 3.854 9.637 6.219 15.719 6.219 c 12.703 0 23 -10.298 23 -23 c 0 -6.081 -2.364 -11.606 -6.219 -15.719 z" style="opacity:0.1"/>
  <path d="m 31.25 2.375 c 8.615 3.154 14.75 11.417 14.75 21.13 c 0 12.426 -10.07 22.5 -22.5 22.5 c -9.708 0 -17.971 -6.135 -21.12 -14.75 a 23 23 0 0 0 44.875 -7 a 23 23 0 0 0 -16 -21.875 z" style="opacity:0.2"/>
 </g>
 <g>
  <path d="m 24 1 c 12.703 0 23 10.297 23 23 c 0 12.703 -10.297 23 -23 23 -12.703 0 -23 -10.297 -23 -23 0 -12.703 10.297 -23 23 -23 z" style="fill:url(#linearGradient3764);fill-opacity:1"/>
 </g>
 <g>
  <path d="m 40.03 7.531 c 3.712 4.084 5.969 9.514 5.969 15.469 0 12.703 -10.297 23 -23 23 c -5.954 0 -11.384 -2.256 -15.469 -5.969 4.178 4.291 10.01 6.969 16.469 6.969 c 12.703 0 23 -10.298 23 -23 0 -6.462 -2.677 -12.291 -6.969 -16.469 z" style="opacity:0.1"/>
 </g>
 <g transform="matrix(3.543307,0,0,3.543307,-0.00551154,0.00275676)">
  <g>
   <path d="m 4.798 5.362 0 -1.411 4.516 0 0 2.822 1.411 0 0 3.104 -1.693 0 0 -1.411 -1.129 0 0 1.411 -3.104 0 0 -1.411 -1.411 0 0 -3.104 z" style="fill:#000;fill-opacity:0.098;stroke:none;fill-rule:evenodd"/>
   <path d="m 4.516 5.08 0 -1.411 4.516 0 0 2.822 1.411 0 0 3.104 -1.693 0 0 -1.411 -1.129 0 0 1.411 -3.104 0 0 -1.411 -1.411 0 0 -3.104 z" style="fill:#555;fill-opacity:1;stroke:none;fill-rule:evenodd"/>
   <g>
    <g>
     <path transform="scale(0.28222223,0.28222223)" d="m 16 14 0 4 -4 0 0 11 4 0 0 4 11 0 0 -4 4 0 0 4 5 0 0 -10 -4 0 0 -9 -16 0 z" style="fill:#64b3d2;fill-opacity:1"/>
     <path transform="scale(0.28222223,0.28222223)" d="M 30.545,21.389 17.762,33 27,33 l 0,-4 4,0 0,4 5,0 0,-6.334 L 32.211,23 32,23 32,22.797 30.545,21.389" style="fill:#43a63b;fill-opacity:1"/>
     <path transform="scale(0.28222223,0.28222223)" d="M 19.2 15.584 A 3.818 3.694 0 0 0 16 17.12 l 0 0.88 -0.486 0 a 3.818 3.694 0 0 0 -0.24 1.277 3.818 3.694 0 0 0 7.635 0 3.818 3.694 0 0 0 -3.705 -3.693 z" style="fill:#f3da4d;fill-opacity:1"/>
     <path transform="scale(0.28222223,0.28222223)" d="M 20.727,20.334 12.928,29 16,29 l 0,4 11,0 0,-4 0.443,0 -6.717,-8.666 z" style="fill:#269542;fill-opacity:1"/>
    </g>
    <path d="m 16 14 0 4 -4 0 0 1 4 0 0 4 -4 0 0 1 4 0 0 4 -4 0 0 1 4 0 0 4 1 0 0 -4 4 0 0 4 1 0 0 -4 4 0 0 4 1 0 0 -4 4 0 0 4 1 0 0 -4 4 0 0 -1 -4 0 0 -4 4 0 0 -1 -4 0 0 -9 -1 0 0 4 -4 0 0 -4 -1 0 0 4 -4 0 0 -4 -1 0 0 4 -4 0 0 -4 z m 1 5 4 0 0 4 -4 0 z m 5 0 4 0 0 4 -4 0 z m 5 0 4 0 0 4 -4 0 z m -10 5 4 0 0 4 -4 0 z m 5 0 4 0 0 4 -4 0 z m 5 0 4 0 0 4 -4 0 z" transform="scale(0.28222223,0.28222223)" style="fill:#4d4d4d;fill-opacity:0.216;stroke:none"/>
   </g>
  </g>
 </g>
</svg>
