<svg xmlns="http://www.w3.org/2000/svg" viewBox="0 0 48 48">
 <defs>
  <linearGradient id="linearGradient3764" x1="1" x2="47" gradientUnits="userSpaceOnUse" gradientTransform="matrix(0,-1,1,0,-1.5e-6,47.999998)">
   <stop style="stop-color:#d9d6c3;stop-opacity:1"/>
   <stop offset="1" style="stop-color:#e1dfd0;stop-opacity:1"/>
  </linearGradient>
 </defs>
 <g>
  <path d="m 36.31 5 c 5.859 4.062 9.688 10.831 9.688 18.5 c 0 12.426 -10.07 22.5 -22.5 22.5 c -7.669 0 -14.438 -3.828 -18.5 -9.688 c 1.037 1.822 2.306 3.499 3.781 4.969 c 4.085 3.712 9.514 5.969 15.469 5.969 c 12.703 0 23 -10.298 23 -23 c 0 -5.954 -2.256 -11.384 -5.969 -15.469 c -1.469 -1.475 -3.147 -2.744 -4.969 -3.781 z m 4.969 3.781 c 3.854 4.113 6.219 9.637 6.219 15.719 c 0 12.703 -10.297 23 -23 23 c -6.081 0 -11.606 -2.364 -15.719 -6.219 c 4.16 4.144 9.883 6.719 16.219 6.719 c 12.703 0 23 -10.298 23 -23 c 0 -6.335 -2.575 -12.06 -6.719 -16.219 z" style="opacity:0.05"/>
  <path d="m 41.28 8.781 c 3.712 4.085 5.969 9.514 5.969 15.469 c 0 12.703 -10.297 23 -23 23 c -5.954 0 -11.384 -2.256 -15.469 -5.969 c 4.113 3.854 9.637 6.219 15.719 6.219 c 12.703 0 23 -10.298 23 -23 c 0 -6.081 -2.364 -11.606 -6.219 -15.719 z" style="opacity:0.1"/>
  <path d="m 31.25 2.375 c 8.615 3.154 14.75 11.417 14.75 21.13 c 0 12.426 -10.07 22.5 -22.5 22.5 c -9.708 0 -17.971 -6.135 -21.12 -14.75 a 23 23 0 0 0 44.875 -7 a 23 23 0 0 0 -16 -21.875 z" style="opacity:0.2"/>
 </g>
 <g>
  <path d="m 24 1 c 12.703 0 23 10.297 23 23 c 0 12.703 -10.297 23 -23 23 -12.703 0 -23 -10.297 -23 -23 0 -12.703 10.297 -23 23 -23 z" style="fill:url(#linearGradient3764);fill-opacity:1"/>
 </g>
 <g>
  <g>
   <g transform="translate(1,1)">
    <g style="opacity:0.1">
     <!-- color: #e1dfd0 -->
     <g>
      <path d="m 26.355 12.584 c -0.526 -0.038 -1.069 0.127 -1.5 0.506 c -0.797 0.707 -0.926 1.896 -0.346 2.764 l 0.865 6.463 l 2.301 -6.176 c 0.741 -0.772 0.798 -2.01 0.09 -2.84 c -0.373 -0.438 -0.884 -0.679 -1.41 -0.717 z m -5.146 0.973 c -0.521 -0.034 -1.053 0.133 -1.479 0.506 c -0.847 0.75 -0.953 2.055 -0.234 2.934 c 0.232 0.285 0.53 0.495 0.857 0.621 l 3.662 4.762 l -0.998 -6.02 c 0.003 -0.001 0.001 -0.017 0.014 -0.027 c 0.242 -0.719 0.082 -1.515 -0.418 -2.078 c -0.375 -0.426 -0.884 -0.66 -1.404 -0.693 z m 10.211 0.803 c -0.181 -0.016 -0.365 -0.007 -0.549 0.027 c -0.73 0.141 -1.336 0.672 -1.574 1.391 c -0.096 0.286 -0.111 0.582 -0.084 0.873 l -2.479 6.01 l 5.16 -4.205 c 0.251 -0.084 0.491 -0.219 0.703 -0.406 c 0.851 -0.75 0.953 -2.057 0.234 -2.936 c -0.358 -0.44 -0.869 -0.703 -1.412 -0.75 z m -14.262 2.734 c -0.526 -0.039 -1.067 0.127 -1.498 0.508 c -0.859 0.762 -0.953 2.086 -0.207 2.965 c 0.43 0.506 1.044 0.743 1.652 0.715 l 6.234 2.029 l -4.334 -4.621 c -0.075 -0.313 -0.214 -0.616 -0.436 -0.877 c -0.373 -0.438 -0.886 -0.68 -1.412 -0.719 z m 17.764 1.42 c -0.527 -0.038 -1.068 0.129 -1.494 0.51 c -0.234 0.206 -0.406 0.454 -0.525 0.723 l -5.01 3.809 l 6.318 -0.924 c 0.647 0.187 1.372 0.052 1.912 -0.432 c 0.863 -0.762 0.957 -2.09 0.211 -2.965 c -0.369 -0.439 -0.881 -0.683 -1.408 -0.721 z m -19.463 3.617 c -0.521 -0.033 -1.055 0.135 -1.479 0.51 c -0.851 0.746 -0.953 2.051 -0.234 2.934 c 0.7 0.795 1.857 0.91 2.701 0.314 c 0.004 0.019 0.006 0.038 0.001 0.057 l 6.445 -1.359 l -6.203 -1.914 c -0.354 -0.324 -0.789 -0.512 -1.24 -0.541 z m 7.529 3.744 l -6.434 1.602 c -0.556 -0.067 -1.137 0.088 -1.594 0.492 c -0.847 0.746 -0.953 2.047 -0.238 2.926 c 0.754 0.844 2.031 0.922 2.879 0.176 c 0.226 -0.201 0.395 -0.442 0.514 -0.703 c 0.006 0.006 0.001 0.013 0.016 0.02 l 4.857 -4.512 z m 0.531 1.172 l -4.574 4.727 c -0.226 0.085 -0.442 0.209 -0.635 0.379 c -0.836 0.738 -0.953 2.02 -0.262 2.898 c 0.758 0.82 2.02 0.884 2.852 0.146 c 0.507 -0.447 0.747 -1.093 0.707 -1.729 c 0.031 0.009 0.061 0.022 0.092 0.031 l 1.82 -6.453 z" transform="translate(-1,-1)"/>
      <path d="m 29.574 24 c -0.344 0 -0.621 0.273 -0.621 0.617 l 0 0.852 c -0.316 0.098 -0.625 0.215 -0.91 0.367 l -0.602 -0.598 c -0.238 -0.242 -0.648 -0.242 -0.887 0 l -1.316 1.316 c -0.242 0.238 -0.242 0.648 0 0.887 l 0.598 0.602 c -0.152 0.285 -0.27 0.594 -0.367 0.91 l -0.852 0 c -0.344 0 -0.617 0.277 -0.617 0.621 l 0 1.855 c 0 0.344 0.273 0.621 0.617 0.621 l 0.852 0 c 0.098 0.313 0.215 0.621 0.367 0.91 l -0.598 0.598 c -0.242 0.242 -0.242 0.648 0 0.891 l 1.316 1.313 c 0.238 0.242 0.648 0.242 0.887 0 l 0.602 -0.598 c 0.285 0.152 0.594 0.273 0.91 0.367 l 0 0.852 c 0 0.344 0.277 0.621 0.621 0.621 l 1.855 0 c 0.344 0 0.621 -0.277 0.621 -0.621 l 0 -0.852 c 0.313 -0.094 0.621 -0.215 0.91 -0.367 l 0.598 0.598 c 0.242 0.242 0.648 0.242 0.891 0 l 1.313 -1.313 c 0.242 -0.242 0.242 -0.648 0 -0.891 l -0.598 -0.598 c 0.152 -0.289 0.273 -0.598 0.367 -0.91 l 0.852 0 c 0.344 0 0.621 -0.277 0.621 -0.621 l 0 -1.855 c 0 -0.344 -0.277 -0.621 -0.621 -0.621 l -0.852 0 c -0.094 -0.316 -0.215 -0.625 -0.367 -0.91 l 0.598 -0.602 c 0.242 -0.238 0.242 -0.648 0 -0.887 l -1.313 -1.316 c -0.242 -0.242 -0.648 -0.242 -0.891 0 l -0.598 0.598 c -0.289 -0.152 -0.598 -0.27 -0.91 -0.367 l 0 -0.852 c 0 -0.344 -0.277 -0.617 -0.621 -0.617 m -0.93 4.953 c 0.855 0 1.551 0.695 1.551 1.547 c 0 0.855 -0.695 1.551 -1.551 1.551 c -0.852 0 -1.547 -0.695 -1.547 -1.551 c 0 -0.852 0.695 -1.547 1.547 -1.547 m 0 0" style="fill:#000;fill-opacity:1;stroke:none;fill-rule:nonzero"/>
     </g>
    </g>
   </g>
  </g>
 </g>
 <g transform="translate(4.8041431e-4,0)">
  <g>
   <!-- color: #e1dfd0 -->
   <g>
    <path d="m 15.863 21.824 c 0.719 0.879 0.613 2.184 -0.234 2.934 -0.852 0.75 -2.133 0.668 -2.883 -0.184 -0.719 -0.883 -0.617 -2.188 0.234 -2.934 0.848 -0.75 2.133 -0.668 2.883 0.184 m 0 0" style="fill:#19b271;fill-opacity:1;stroke:none;fill-rule:nonzero"/>
    <path d="m 35.33 18.234 c 0.746 0.875 0.652 2.203 -0.211 2.965 -0.852 0.762 -2.164 0.664 -2.902 -0.211 -0.746 -0.879 -0.652 -2.207 0.211 -2.965 0.852 -0.762 2.164 -0.668 2.902 0.211 m 0 0" style="fill:#eb60a4;fill-opacity:1;stroke:none;fill-rule:nonzero"/>
    <path d="m 31.832 14.11 c 0.719 0.879 0.617 2.184 -0.234 2.934 -0.848 0.75 -2.133 0.668 -2.883 -0.184 -0.5 -0.566 -0.66 -1.363 -0.418 -2.082 0.238 -0.719 0.844 -1.25 1.574 -1.391 0.734 -0.137 1.484 0.137 1.961 0.723 m 0 0" style="fill:#fb5336;fill-opacity:1;stroke:none;fill-rule:nonzero"/>
    <path d="m 26.766 12.301 c 0.746 0.879 0.652 2.207 -0.207 2.965 -0.863 0.762 -2.164 0.668 -2.91 -0.211 -0.746 -0.875 -0.652 -2.203 0.207 -2.965 0.863 -0.758 2.164 -0.664 2.91 0.211 m 0 0" style="fill:#ffa31e;fill-opacity:1;stroke:none;fill-rule:nonzero"/>
    <path d="m 21.613 13.25 c 0.5 0.563 0.66 1.359 0.418 2.078 -0.238 0.719 -0.84 1.254 -1.574 1.391 -0.734 0.141 -1.484 -0.137 -1.961 -0.723 -0.719 -0.879 -0.613 -2.184 0.234 -2.934 0.852 -0.746 2.133 -0.664 2.883 0.188 m 0 0" style="fill:#ffd600;fill-opacity:1;stroke:none;fill-rule:nonzero"/>
    <path d="m 17.57 16.813 c 0.746 0.879 0.652 2.207 -0.207 2.965 -0.859 0.762 -2.164 0.668 -2.91 -0.211 -0.746 -0.879 -0.652 -2.203 0.207 -2.965 0.863 -0.762 2.164 -0.664 2.91 0.211 m 0 0" style="fill:#78be16;fill-opacity:1;stroke:none;fill-rule:nonzero"/>
    <path d="m 16.836 27.14 c 0.715 0.879 0.609 2.18 -0.234 2.93 -0.848 0.746 -2.125 0.668 -2.879 -0.176 -0.715 -0.879 -0.609 -2.18 0.238 -2.926 0.848 -0.75 2.125 -0.672 2.875 0.172 m 0 0" style="fill:#289cec;fill-opacity:1;stroke:none;fill-rule:nonzero"/>
    <path d="m 20.17 31.3 c 0.688 0.883 0.566 2.16 -0.27 2.898 -0.836 0.738 -2.094 0.672 -2.852 -0.148 -0.691 -0.883 -0.574 -2.16 0.262 -2.898 0.836 -0.738 2.094 -0.672 2.855 0.148 m 0 0" style="fill:#a24592;fill-opacity:1;stroke:none;fill-rule:nonzero"/>
    <path d="m 29.574,24 c -0.344,0 -0.621,0.273 -0.621,0.617 l 0,0.852 c -0.316,0.098 -0.625,0.215 -0.91,0.367 l -0.602,-0.598 c -0.238,-0.242 -0.648,-0.242 -0.887,0 l -1.316,1.316 c -0.242,0.238 -0.242,0.648 0,0.887 l 0.598,0.602 c -0.152,0.285 -0.27,0.594 -0.367,0.91 l -0.852,0 C 24.273,28.953 24,29.23 24,29.574 l 0,1.855 c 0,0.344 0.273,0.621 0.617,0.621 l 0.852,0 c 0.098,0.313 0.215,0.621 0.367,0.91 l -0.598,0.598 c -0.242,0.242 -0.242,0.648 0,0.891 l 1.316,1.313 c 0.238,0.242 0.648,0.242 0.887,0 l 0.602,-0.598 c 0.285,0.152 0.594,0.273 0.91,0.367 l 0,0.852 c 0,0.344 0.277,0.621 0.621,0.621 l 1.855,0 c 0.344,0 0.621,-0.277 0.621,-0.621 l 0,-0.852 c 0.313,-0.094 0.621,-0.215 0.91,-0.367 l 0.598,0.598 c 0.242,0.242 0.648,0.242 0.891,0 l 1.313,-1.313 c 0.242,-0.242 0.242,-0.648 0,-0.891 L 35.164,32.96 c 0.152,-0.289 0.273,-0.598 0.367,-0.91 l 0.852,0 c 0.344,0 0.621,-0.277 0.621,-0.621 l 0,-1.855 c 0,-0.344 -0.277,-0.621 -0.621,-0.621 l -0.852,0 c -0.094,-0.316 -0.215,-0.625 -0.367,-0.91 l 0.598,-0.602 c 0.242,-0.238 0.242,-0.648 0,-0.887 l -1.313,-1.316 c -0.242,-0.242 -0.648,-0.242 -0.891,0 l -0.598,0.598 c -0.289,-0.152 -0.598,-0.27 -0.91,-0.367 l 0,-0.852 C 32.05,24.273 31.773,24 31.429,24 m -0.93,4.953 c 0.855,0 1.551,0.695 1.551,1.547 0,0.855 -0.695,1.551 -1.551,1.551 -0.852,0 -1.547,-0.695 -1.547,-1.551 0,-0.852 0.695,-1.547 1.547,-1.547 m 0,0" style="fill:#535353;fill-opacity:1;stroke:none;fill-rule:nonzero"/>
    <path d="m 23.484 14.664 c 1.133 -0.16 2.273 -0.16 3.371 -0.008 l -2.48 6.66 m -0.891 -6.652" style="fill:#ffa31e;fill-opacity:1;stroke:none;fill-rule:nonzero"/>
    <path d="m 28.29 15.465 c 1.055 0.453 2.039 1.047 2.902 1.746 l -5.457 4.445 m 2.555 -6.191" style="fill:#fb5336;fill-opacity:1;stroke:none;fill-rule:nonzero"/>
    <path d="m 32.17 18.543 c 0.684 0.934 1.23 1.953 1.637 3 l -6.918 1.012 m 5.281 -4.01" style="fill:#eb60a4;fill-opacity:1;stroke:none;fill-rule:nonzero"/>
    <path d="m 18.949 16.09 c 0.898 -0.719 1.883 -1.309 2.902 -1.742 l 1.164 7.03 m -4.066 -5.285" style="fill:#ffd600;fill-opacity:1;stroke:none;fill-rule:nonzero"/>
    <path d="m 16.07 20.27 c 0.344 -1.109 0.836 -2.164 1.441 -3.105 l 4.828 5.145 m -6.27 -2.039" style="fill:#78be16;fill-opacity:1;stroke:none;fill-rule:nonzero"/>
    <path d="m 15.457 24.945 c -0.23 -1.141 -0.313 -2.301 -0.238 -3.422 l 6.684 2.063 m -6.445 1.359" style="fill:#19b271;fill-opacity:1;stroke:none;fill-rule:nonzero"/>
    <path d="m 17.13 29.387 c -0.77 -0.859 -1.422 -1.816 -1.922 -2.824 l 6.781 -1.688 m -4.859 4.512" style="fill:#289cec;fill-opacity:1;stroke:none;fill-rule:nonzero"/>
    <path d="m 20.699 32.5 c -1.098 -0.324 -2.145 -0.793 -3.086 -1.383 l 4.906 -5.07 m -1.82 6.453" style="fill:#a24592;fill-opacity:1;stroke:none;fill-rule:nonzero"/>
   </g>
  </g>
 </g>
 <g>
  <path d="m 40.03 7.531 c 3.712 4.084 5.969 9.514 5.969 15.469 0 12.703 -10.297 23 -23 23 c -5.954 0 -11.384 -2.256 -15.469 -5.969 4.178 4.291 10.01 6.969 16.469 6.969 c 12.703 0 23 -10.298 23 -23 0 -6.462 -2.677 -12.291 -6.969 -16.469 z" style="opacity:0.1"/>
 </g>
</svg>
