<svg version="1.1" viewBox="0 0 48 48" xmlns="http://www.w3.org/2000/svg">
 <defs>
  <linearGradient id="bg" x2="0" y1="1" y2="47" gradientUnits="userSpaceOnUse">
   <stop style="stop-color:#e6b7c8" offset="0"/>
   <stop style="stop-color:#e1a8bc" offset="1"/>
  </linearGradient>
 </defs>
 <path d="m36.3 5c5.86 4.06 9.69 10.8 9.69 18.5 0 12.4-10.1 22.5-22.5 22.5-7.67 0-14.4-3.83-18.5-9.69 1.04 1.82 2.31 3.5 3.78 4.97 4.08 3.71 9.51 5.97 15.5 5.97 12.7 0 23-10.3 23-23 0-5.95-2.26-11.4-5.97-15.5-1.47-1.48-3.15-2.74-4.97-3.78zm4.97 3.78c3.85 4.11 6.22 9.64 6.22 15.7 0 12.7-10.3 23-23 23-6.08 0-11.6-2.36-15.7-6.22 4.16 4.14 9.88 6.72 16.2 6.72 12.7 0 23-10.3 23-23 0-6.34-2.58-12.1-6.72-16.2z" style="opacity:.05"/>
 <path d="m41.3 8.78c3.71 4.08 5.97 9.51 5.97 15.5 0 12.7-10.3 23-23 23-5.95 0-11.4-2.26-15.5-5.97 4.11 3.85 9.64 6.22 15.7 6.22 12.7 0 23-10.3 23-23 0-6.08-2.36-11.6-6.22-15.7z" style="opacity:.1"/>
 <path d="m31.2 2.38c8.62 3.15 14.8 11.4 14.8 21.1 0 12.4-10.1 22.5-22.5 22.5-9.71 0-18-6.14-21.1-14.8a23 23 0 0044.9-7 23 23 0 00-16-21.9z" style="opacity:.2"/>
 <circle cx="24" cy="24" r="23" style="fill:url(#bg)"/>
 <path d="m40 7.53c3.71 4.08 5.97 9.51 5.97 15.5 0 12.7-10.3 23-23 23-5.95 0-11.4-2.26-15.5-5.97 4.18 4.29 10 6.97 16.5 6.97 12.7 0 23-10.3 23-23 0-6.46-2.68-12.3-6.97-16.5z" style="opacity:.1"/>
 <path d="m15 12c-.554 0-1 .446-1 1v22c0 .554.446 1 1 1h9.05a8 6 0 005.95 2 8 6 0 008-6 8 6 0 00-.975-2.87l1.97-5.13-3.42 3.7a8 6 0 00-1.58-.881v-13.8c0-.554-.446-1-1-1z" style="opacity:.1"/>
 <rect x="13" y="11" width="20" height="24" ry="1" style="fill:#f9f9f9"/>
 <path d="m15.5 17c-.277 0-.5.223-.5.5s.223.5.5.5h15c.277 0 .5-.223.5-.5s-.223-.5-.5-.5zm0 4c-.277 0-.5.223-.5.5s.223.5.5.5h15c.277 0 .5-.223.5-.5s-.223-.5-.5-.5zm0 6c-.277 0-.5.223-.5.5s.223.5.5.5h15c.277 0 .5-.223.5-.5s-.223-.5-.5-.5z" style="fill:#6b747a"/>
 <path d="m32 23.8-3.66 2.34 2.15-.133z" style="opacity:.1"/>
 <path d="m31 22.8-3.66 2.34a8 6 0 00-6.34 5.86 8 6 0 008 6 8 6 0 008-6 8 6 0 00-.975-2.87l1.97-5.13-3.42 3.7a8 6 0 00-5.08-1.69z" style="fill:#47535d"/>
 <path d="m25.5 27c-.828 0-1.5.895-1.5 2s.672 2 1.5 2 1.5-.895 1.5-2-.672-2-1.5-2zm6 0c-.828 0-1.5.895-1.5 2s.672 2 1.5 2 1.5-.895 1.5-2-.672-2-1.5-2z" style="fill:#f9f9f9"/>
 <path d="m26 28c-.552 0-1 .448-1 1s.448 1 1 1 1-.448 1-1-.448-1-1-1zm6 0c-.552 0-1 .448-1 1s.448 1 1 1 1-.448 1-1-.448-1-1-1z" style="fill:#3e5a7a"/>
 <path d="m22 32c.3 2 3 4 6.5 4 3.59 0 6.5-1.79 6.5-4z" style="fill:#dcd7cb"/>
 <path d="m26 33c0 .7 1.3 2 2 2s2-1.3 2-2h-1c-.5 0-1-1-1-1s-.5 1-1 1z" style="fill:#8b666b"/>
 <path d="m15.5 14c-.277 0-.5.223-.5.5s.223.5.5.5h9c.277 0 .5-.223.5-.5s-.223-.5-.5-.5zm0 10c-.277 0-.5.223-.5.5s.223.5.5.5h5c.277 0 .5-.223.5-.5s-.223-.5-.5-.5z" style="fill:#0faad6"/>
</svg>
