<svg version="1.1" viewBox="0 0 48 48" xmlns="http://www.w3.org/2000/svg">
 <defs>
  <linearGradient id="bg" x2="0" y1="1" y2="47" gradientUnits="userSpaceOnUse">
   <stop style="stop-color:#605067" offset="0"/>
   <stop style="stop-color:#50475c" offset="1"/>
  </linearGradient>
 </defs>
 <path d="m36.3 5c5.86 4.06 9.69 10.8 9.69 18.5 0 12.4-10.1 22.5-22.5 22.5-7.67 0-14.4-3.83-18.5-9.69 1.04 1.82 2.31 3.5 3.78 4.97 4.08 3.71 9.51 5.97 15.5 5.97 12.7 0 23-10.3 23-23 0-5.95-2.26-11.4-5.97-15.5-1.47-1.48-3.15-2.74-4.97-3.78zm4.97 3.78c3.85 4.11 6.22 9.64 6.22 15.7 0 12.7-10.3 23-23 23-6.08 0-11.6-2.36-15.7-6.22 4.16 4.14 9.88 6.72 16.2 6.72 12.7 0 23-10.3 23-23 0-6.34-2.58-12.1-6.72-16.2z" style="opacity:.05"/>
 <path d="m41.3 8.78c3.71 4.08 5.97 9.51 5.97 15.5 0 12.7-10.3 23-23 23-5.95 0-11.4-2.26-15.5-5.97 4.11 3.85 9.64 6.22 15.7 6.22 12.7 0 23-10.3 23-23 0-6.08-2.36-11.6-6.22-15.7z" style="opacity:.1"/>
 <path d="m31.2 2.38c8.62 3.15 14.8 11.4 14.8 21.1 0 12.4-10.1 22.5-22.5 22.5-9.71 0-18-6.14-21.1-14.8a23 23 0 0 0 44.9-7 23 23 0 0 0-16-21.9z" style="opacity:.2"/>
 <circle cx="24" cy="24" r="23" style="fill:url(#bg)"/>
 <path d="m40 7.53c3.71 4.08 5.97 9.51 5.97 15.5 0 12.7-10.3 23-23 23-5.95 0-11.4-2.26-15.5-5.97 4.18 4.29 10 6.97 16.5 6.97 12.7 0 23-10.3 23-23 0-6.46-2.68-12.3-6.97-16.5z" style="opacity:.1"/>
 <path d="m25 10c-8.28 0-15 6.72-15 15h3.94c0.0566-8 6.06-14 11.1-15zm-7 10v1h6v9l2 2h1v-11h6v-1l-2-2zm18 5c0 6.08-4.92 11-11 11v4c0.65-2e-3 1.37-0.0502 2-0.135v-2.02c0.92-0.143 1.82-0.385 2.69-0.721l1.01 1.75c0.637-0.262 1.29-0.588 1.87-0.924s1.09-0.685 1.6-1.08l-1.01-1.75c0.725-0.584 1.38-1.24 1.97-1.97l1.75 1.01c0.411-0.532 0.82-1.15 1.15-1.72s0.607-1.15 0.854-1.75l-1.75-1.01c0.336-0.868 0.577-1.77 0.721-2.69h2.02c0.0895-0.663 0.137-1.35 0.135-2z" style="opacity:.1;stroke-linecap:round;stroke-linejoin:round;stroke-width:5.14"/>
 <path d="m24 9c-8.28 0-15 6.72-15 15h3.94c0.0566-8 6.06-14 11.1-15zm-5 8-2 2v1h6v9l2 2h1v-11h6v-1l-2-2zm16 7c0 6.08-4.92 11-11 11v4c0.65-2e-3 1.37-0.0502 2-0.135v-2.02c0.92-0.143 1.82-0.385 2.69-0.721l1.01 1.75c0.637-0.262 1.29-0.588 1.87-0.924s1.09-0.685 1.6-1.08l-1.01-1.75c0.725-0.584 1.38-1.24 1.97-1.97l1.75 1.01c0.411-0.532 0.82-1.15 1.15-1.72s0.607-1.15 0.854-1.75l-1.75-1.01c0.336-0.868 0.577-1.77 0.721-2.69h2.02c0.0895-0.663 0.137-1.35 0.135-2z" style="fill:#f0f4f1;stroke-linecap:round;stroke-linejoin:round;stroke-width:5.14"/>
</svg>
