<svg version="1.1" viewBox="0 0 48 48" xmlns="http://www.w3.org/2000/svg">
 <defs>
  <linearGradient id="bg" x2="0" y1="47" y2="1" gradientUnits="userSpaceOnUse">
   <stop style="stop-color:#fed59b" offset="0"/>
   <stop style="stop-color:#fedeb0" offset="1"/>
  </linearGradient>
 </defs>
 <path d="m36.31 5c5.859 4.062 9.688 10.831 9.688 18.5 0 12.426-10.07 22.5-22.5 22.5-7.669 0-14.438-3.828-18.5-9.688 1.037 1.822 2.306 3.499 3.781 4.969 4.085 3.712 9.514 5.969 15.469 5.969 12.703 0 23-10.298 23-23 0-5.954-2.256-11.384-5.969-15.469-1.469-1.475-3.147-2.744-4.969-3.781zm4.969 3.781c3.854 4.113 6.219 9.637 6.219 15.719 0 12.703-10.297 23-23 23-6.081 0-11.606-2.364-15.719-6.219 4.16 4.144 9.883 6.719 16.219 6.719 12.703 0 23-10.298 23-23 0-6.335-2.575-12.06-6.719-16.219z" style="opacity:.05"/>
 <path d="m41.28 8.781c3.712 4.085 5.969 9.514 5.969 15.469 0 12.703-10.297 23-23 23-5.954 0-11.384-2.256-15.469-5.969 4.113 3.854 9.637 6.219 15.719 6.219 12.703 0 23-10.298 23-23 0-6.081-2.364-11.606-6.219-15.719z" style="opacity:.1"/>
 <path d="m31.25 2.375c8.615 3.154 14.75 11.417 14.75 21.13 0 12.426-10.07 22.5-22.5 22.5-9.708 0-17.971-6.135-21.12-14.75a23 23 0 0 0 44.875-7 23 23 0 0 0-16-21.875z" style="opacity:.2"/>
 <path d="m24 1c12.703 0 23 10.297 23 23s-10.297 23-23 23-23-10.297-23-23 10.297-23 23-23z" style="fill:url(#bg)"/>
 <path d="m40.03 7.531c3.712 4.084 5.969 9.514 5.969 15.469 0 12.703-10.297 23-23 23-5.954 0-11.384-2.256-15.469-5.969 4.178 4.291 10.01 6.969 16.469 6.969 12.703 0 23-10.298 23-23 0-6.462-2.677-12.291-6.969-16.469z" style="opacity:.1"/>
 <g transform="translate(.006)">
  <g transform="translate(1,1)"></g>
 </g>
 <path d="m35.998 9.9902c-2.5-0.043-4.9785 2.1055-4.9785 2.1055-0.8 0.305-1.7383 2.9727-1.7383 2.9727-0.141-0.886 0.33594-1.9062 0.33594-1.9062-1.0177 0.62394-1.9691 1.4313-2.7832 2.2129l-13.834 7.625v14h24v-14l-2.002-1.502-2e-3 -4.6113c4.1e-5 -0.489-0.39477-0.88672-0.88277-0.88672h-3.6641c2.4665-3.0364 5.5488-6.0098 5.5488-6.0098z" style="opacity:.1"/>
 <path d="m12 22 12-9 12 9-12 11" style="fill:#c83d44"/>
 <path d="m14.887 15c-0.492 0-0.88672 0.39872-0.88672 0.88672v18.113l20 0.2793-0.0039-18.393c-6e-6 -0.489-0.39482-0.88672-0.88282-0.88672z" style="fill:#f3f3f3"/>
 <path d="m19 29s1.461-3.5 1.801-4.137c0 0-1.012-2.977 1.031-5.594l0.84-1.336s-0.461 1.234 0.129 2.238c0 0 0.02-2.09 0.531-3.02 0 0 2.406-3.223 5.285-4.988 0 0-0.477 1.02-0.336 1.906 0 0 0.938-2.668 1.738-2.973 0 0 2.48-2.148 4.98-2.105 0 0-4.164 4.01-6.684 7.473 0 0-1.547 2.219-2.25 2.457 0 0-1.047 0.488-1.402 0.504 0 0 1.027 0.035 1.625-0.141 0 0-1.023 1.527-1.348 2.379 0 0-0.871 1.648-1.539 2.16 0 0-1.133 0.918-1.98 1.156l-0.84 1.918s-0.988 1.066-1.582 2.09m0 4e-3" style="fill:#26a3cf"/>
 <path d="m12 22v14h24v-14l-12 6m-12-6" style="fill:#fa535a"/>
</svg>
