<?xml version="1.0" encoding="UTF-8" standalone="no"?>
<svg
   xmlns:dc="http://purl.org/dc/elements/1.1/"
   xmlns:cc="http://creativecommons.org/ns#"
   xmlns:rdf="http://www.w3.org/1999/02/22-rdf-syntax-ns#"
   xmlns:svg="http://www.w3.org/2000/svg"
   xmlns="http://www.w3.org/2000/svg"
   xmlns:xlink="http://www.w3.org/1999/xlink"
   xmlns:sodipodi="http://sodipodi.sourceforge.net/DTD/sodipodi-0.dtd"
   xmlns:inkscape="http://www.inkscape.org/namespaces/inkscape"
   viewBox="0 0 48 48"
   id="svg2"
   version="1.1"
   inkscape:version="0.91 r13725"
   sodipodi:docname="thunderbird.svg">
  <metadata
     id="metadata59">
    <rdf:RDF>
      <cc:Work
         rdf:about="">
        <dc:format>image/svg+xml</dc:format>
        <dc:type
           rdf:resource="http://purl.org/dc/dcmitype/StillImage" />
      </cc:Work>
    </rdf:RDF>
  </metadata>
  <sodipodi:namedview
     pagecolor="#ffffff"
     bordercolor="#666666"
     borderopacity="1"
     objecttolerance="10"
     gridtolerance="10"
     guidetolerance="10"
     inkscape:pageopacity="0"
     inkscape:pageshadow="2"
     inkscape:window-width="1260"
     inkscape:window-height="962"
     id="namedview57"
     showgrid="false"
     inkscape:zoom="4.9166667"
     inkscape:cx="24"
     inkscape:cy="24"
     inkscape:window-x="10"
     inkscape:window-y="52"
     inkscape:window-maximized="0"
     inkscape:current-layer="svg2" />
  <defs
     id="defs4">
    <linearGradient
       inkscape:collect="always"
       id="linearGradient4202">
      <stop
         style="stop-color:#ffd59a;stop-opacity:1;"
         offset="0"
         id="stop4204" />
      <stop
         style="stop-color:#ffdeaf;stop-opacity:1"
         offset="1"
         id="stop4206" />
    </linearGradient>
    <linearGradient
       inkscape:collect="always"
       xlink:href="#linearGradient4202"
       id="linearGradient4208"
       x1="1"
       y1="24"
       x2="47"
       y2="24"
       gradientUnits="userSpaceOnUse"
       gradientTransform="matrix(0,-1,1,0,0,48)" />
  </defs>
  <g
     id="g11">
    <path
       d="m 36.31 5 c 5.859 4.062 9.688 10.831 9.688 18.5 c 0 12.426 -10.07 22.5 -22.5 22.5 c -7.669 0 -14.438 -3.828 -18.5 -9.688 c 1.037 1.822 2.306 3.499 3.781 4.969 c 4.085 3.712 9.514 5.969 15.469 5.969 c 12.703 0 23 -10.298 23 -23 c 0 -5.954 -2.256 -11.384 -5.969 -15.469 c -1.469 -1.475 -3.147 -2.744 -4.969 -3.781 z m 4.969 3.781 c 3.854 4.113 6.219 9.637 6.219 15.719 c 0 12.703 -10.297 23 -23 23 c -6.081 0 -11.606 -2.364 -15.719 -6.219 c 4.16 4.144 9.883 6.719 16.219 6.719 c 12.703 0 23 -10.298 23 -23 c 0 -6.335 -2.575 -12.06 -6.719 -16.219 z"
       style="opacity:0.05"
       id="path13" />
    <path
       d="m 41.28 8.781 c 3.712 4.085 5.969 9.514 5.969 15.469 c 0 12.703 -10.297 23 -23 23 c -5.954 0 -11.384 -2.256 -15.469 -5.969 c 4.113 3.854 9.637 6.219 15.719 6.219 c 12.703 0 23 -10.298 23 -23 c 0 -6.081 -2.364 -11.606 -6.219 -15.719 z"
       style="opacity:0.1"
       id="path15" />
    <path
       d="m 31.25 2.375 c 8.615 3.154 14.75 11.417 14.75 21.13 c 0 12.426 -10.07 22.5 -22.5 22.5 c -9.708 0 -17.971 -6.135 -21.12 -14.75 a 23 23 0 0 0 44.875 -7 a 23 23 0 0 0 -16 -21.875 z"
       style="opacity:0.2"
       id="path17" />
  </g>
  <path
     inkscape:connector-curvature="0"
     id="path21"
     style="fill:url(#linearGradient4208);fill-opacity:1"
     d="M 1,24 C 1,11.297 11.297,1 24,1 36.703,1 47,11.297 47,24 47,36.703 36.703,47 24,47 11.297,47 1,36.703 1,24 Z" />
  <g
     id="g23">
    <g
       id="g25">
      <g
         transform="translate(1,1)"
         id="g27">
        <g
           style="opacity:0.1"
           id="g29">
          <!-- color: #e1e1dd -->
          <g
             id="g31">
            <path
               d="m 18.887 28 l 4.227 0 c 0.488 0 0.887 0.395 0.887 0.887 l 0 0.227 c 0 0.488 -0.398 0.883 -0.887 0.883 l -4.227 0 c -0.488 0 -0.887 -0.395 -0.887 -0.883 l 0 -0.227 c 0 -0.492 0.398 -0.887 0.887 -0.887 m 0 0"
               style="fill:#000;fill-opacity:1;stroke:none;fill-rule:nonzero"
               id="path33" />
            <path
               d="m 35.998 10.99 c -2.5 -0.043 -4.979 2.105 -4.979 2.105 -0.8 0.305 -1.738 2.973 -1.738 2.973 -0.141 -0.886 0.336 -1.906 0.336 -1.906 -1.018 0.624 -1.969 1.431 -2.783 2.213 l -1.834 -1.375 -2.666 2 -6.447 0 c -0.492 0 -0.887 0.399 -0.887 0.887 l 0 4.613 -2 1.5 c 0 4.667 0 9.333 0 14 l 24 0 0 -14 -2 -1.502 0 -4.611 c 0 -0.489 -0.395 -0.887 -0.883 -0.887 l -3.664 0 c 2.466 -3.036 5.549 -6.01 5.549 -6.01 z"
               transform="translate(-1,-1)"
               id="path35" />
          </g>
        </g>
      </g>
    </g>
  </g>
  <g
     id="g37">
    <g
       id="g39">
      <!-- color: #e1e1dd -->
      <g
         id="g41">
        <path
           d="m 18.887,28 4.227,0 c 0.488,0 0.887,0.395 0.887,0.887 l 0,0.227 c 0,0.488 -0.398,0.883 -0.887,0.883 l -4.227,0 C 18.399,29.997 18,29.602 18,29.114 l 0,-0.227 C 18,28.395 18.398,28 18.887,28 m 0,0"
           style="fill:#e55353;fill-opacity:1;stroke:none;fill-rule:nonzero"
           id="path43" />
        <path
           d="m 12 23 12 -9 12 9 0 3 -24 0 m -0.004 -3"
           style="fill:#c83e44;fill-opacity:1;stroke:none;fill-rule:nonzero"
           id="path45" />
        <path
           d="m 14.887,16 18.227,0 c 0.488,0 0.883,0.398 0.883,0.887 l 0,18.227 c 0,0.488 -0.395,0.887 -0.883,0.887 l -18.227,0 C 14.395,36.001 14,35.603 14,35.114 L 14,16.887 C 14,16.399 14.395,16 14.887,16 m 0,0"
           style="fill:#f3f3f3;fill-opacity:1;stroke:none;fill-rule:nonzero"
           id="path47" />
        <path
           d="m 19 30 c 0 0 1.461 -3.5 1.801 -4.137 0 0 -1.012 -2.977 1.031 -5.594 l 0.84 -1.336 c 0 0 -0.461 1.234 0.129 2.238 0 0 0.02 -2.09 0.531 -3.02 0 0 2.406 -3.223 5.285 -4.988 0 0 -0.477 1.02 -0.336 1.906 0 0 0.938 -2.668 1.738 -2.973 0 0 2.48 -2.148 4.98 -2.105 0 0 -4.164 4.01 -6.684 7.473 0 0 -1.547 2.219 -2.25 2.457 0 0 -1.047 0.488 -1.402 0.504 0 0 1.027 0.035 1.625 -0.141 0 0 -1.023 1.527 -1.348 2.379 0 0 -0.871 1.648 -1.539 2.16 0 0 -1.133 0.918 -1.98 1.156 l -0.84 1.918 c 0 0 -0.988 1.066 -1.582 2.09 m 0 0.004"
           style="fill:#26a3cf;fill-opacity:1;stroke:none;fill-rule:nonzero"
           id="path49" />
        <path
           d="m 12,23 0,14 24,0 0,-14 -12,6 M 12,23"
           style="fill:#fa535a;fill-opacity:1;stroke:none;fill-rule:nonzero"
           id="path51" />
      </g>
    </g>
  </g>
  <g
     id="g53">
    <path
       d="m 40.03 7.531 c 3.712 4.084 5.969 9.514 5.969 15.469 0 12.703 -10.297 23 -23 23 c -5.954 0 -11.384 -2.256 -15.469 -5.969 4.178 4.291 10.01 6.969 16.469 6.969 c 12.703 0 23 -10.298 23 -23 0 -6.462 -2.677 -12.291 -6.969 -16.469 z"
       style="opacity:0.1"
       id="path55" />
  </g>
</svg>
