<svg version="1.1" viewBox="0 0 48 48" xmlns="http://www.w3.org/2000/svg">
 <defs>
  <linearGradient id="bg" x1="1" x2="47" gradientTransform="matrix(0 -1 1 0 -1.5e-6 48)" gradientUnits="userSpaceOnUse">
   <stop style="stop-color:#695f8c" offset="0"/>
   <stop style="stop-color:#726798" offset="1"/>
  </linearGradient>
 </defs>
 <path d="m36.3 5c5.86 4.06 9.69 10.8 9.69 18.5 0 12.4-10.1 22.5-22.5 22.5-7.67 0-14.4-3.83-18.5-9.69 1.04 1.82 2.31 3.5 3.78 4.97 4.08 3.71 9.51 5.97 15.5 5.97 12.7 0 23-10.3 23-23 0-5.95-2.26-11.4-5.97-15.5-1.47-1.48-3.15-2.74-4.97-3.78zm4.97 3.78c3.85 4.11 6.22 9.64 6.22 15.7 0 12.7-10.3 23-23 23-6.08 0-11.6-2.36-15.7-6.22 4.16 4.14 9.88 6.72 16.2 6.72 12.7 0 23-10.3 23-23 0-6.34-2.58-12.1-6.72-16.2z" style="opacity:.05"/>
 <path d="m41.3 8.78c3.71 4.08 5.97 9.51 5.97 15.5 0 12.7-10.3 23-23 23-5.95 0-11.4-2.26-15.5-5.97 4.11 3.85 9.64 6.22 15.7 6.22 12.7 0 23-10.3 23-23 0-6.08-2.36-11.6-6.22-15.7z" style="opacity:.1"/>
 <path d="m31.2 2.38c8.62 3.15 14.8 11.4 14.8 21.1 0 12.4-10.1 22.5-22.5 22.5-9.71 0-18-6.14-21.1-14.8a23 23 0 0 0 44.9-7 23 23 0 0 0-16-21.9z" style="opacity:.2"/>
 <path d="m24 1c12.7 0 23 10.3 23 23s-10.3 23-23 23-23-10.3-23-23 10.3-23 23-23z" style="fill:url(#bg)"/>
 <path d="m40 7.53c3.71 4.08 5.97 9.51 5.97 15.5 0 12.7-10.3 23-23 23-5.95 0-11.4-2.26-15.5-5.97 4.18 4.29 10 6.97 16.5 6.97 12.7 0 23-10.3 23-23 0-6.46-2.68-12.3-6.97-16.5z" style="opacity:.1"/>
 <path d="m13 32.5c0 1.38 1.12 2.5 2.5 2.5h19c1.38 0 2.5-1.12 2.5-2.5v-15c0-1.38-1.12-2.5-2.5-2.5z" style="opacity:.1"/>
 <path d="m14.5 16c-1.38 0-2.5 1.12-2.5 2.5v9.5h21l-1-12z" style="fill:#ea9036"/>
 <path d="m14.5 16c-1.38 0-2.5 1.12-2.5 2.5v1c0-1.38 1.12-2.5 2.5-2.5h17.5v-1z" style="fill:#fff;opacity:.2"/>
 <path d="m27 14c-4 0-2 6-8 6h-4.5c-1.38 0-2.5 1.12-2.5 2.5v9c0 1.38 1.12 2.5 2.5 2.5h19c1.38 0 2.5-1.12 2.5-2.5v-15c0-1.38-1.12-2.5-2.5-2.5z" style="fill:#f2bb64"/>
 <path d="m12 30.5v1c0 1.38 1.12 2.5 2.5 2.5h19c1.38 0 2.5-1.12 2.5-2.5v-1c0 1.38-1.12 2.5-2.5 2.5h-19c-1.38 0-2.5-1.12-2.5-2.5z" style="opacity:.15"/>
 <path d="m17 32c-0.676-0.0028-1.34-0.141-1.96-0.407-0.0022-0.0046-0.0085-0.0098-0.0177-0.0137 0.219-2.59 2.39-4.58 5-4.59 0.168 0.0034 0.336 0.0151 0.503 0.0352-0.0035 0.339-0.0559 0.674-0.155 0.994-0.115-0.0141-0.231-0.0233-0.348-0.0274-1.83 0.0037-3.38 1.23-3.86 2.91 0.277 0.06 0.56 0.0918 0.845 0.092 0.634-7.12e-4 1.26-0.151 1.82-0.438 0.228 0.266 0.481 0.511 0.756 0.73-0.78 0.465-1.67 0.71-2.58 0.71zm6.03 0c-2.04-4e-3 -3.87-1.23-4.64-3.11 0.296-0.153 0.617-0.264 0.955-0.329 0.63 1.47 2.08 2.43 3.69 2.44 0.284-3.42e-4 0.566-0.0326 0.843-0.092-0.256-0.897-0.822-1.69-1.61-2.22 0.109-0.335 0.185-0.681 0.228-1.03 1.44 0.817 2.39 2.29 2.53 3.94-0.627 0.268-1.3 0.407-1.98 0.407zm-1.95-2.09c-0.283-0.187-0.537-0.414-0.754-0.673 0.452-0.664 0.693-1.45 0.693-2.25-0.0022-0.98-0.364-1.91-0.998-2.63-0.543 0.615-0.89 1.39-0.98 2.22-0.356 0.0633-0.7 0.162-1.03 0.29 0.0428-1.53 0.781-2.95 2.01-3.86 1.26 0.943 2 2.42 2.01 3.99-3.18e-4 1.05-0.331 2.07-0.945 2.92z" style="opacity:.1"/>
 <path d="m16 31c-0.676-0.0028-1.34-0.141-1.96-0.407-0.0022-0.0046-0.0085-0.0098-0.0177-0.0137 0.219-2.59 2.39-4.58 5-4.59 0.168 0.0034 0.336 0.0151 0.503 0.0352-0.0035 0.339-0.0559 0.674-0.155 0.994-0.115-0.0141-0.231-0.0233-0.348-0.0274-1.83 0.0037-3.38 1.23-3.86 2.91 0.277 0.06 0.56 0.0918 0.845 0.092 0.634-7.12e-4 1.26-0.151 1.82-0.438 0.228 0.266 0.481 0.511 0.756 0.73-0.78 0.465-1.67 0.71-2.58 0.71zm6.03 0c-2.04-4e-3 -3.87-1.23-4.64-3.11 0.296-0.153 0.617-0.264 0.955-0.329 0.63 1.47 2.08 2.43 3.69 2.44 0.284-3.42e-4 0.566-0.0326 0.843-0.092-0.256-0.897-0.822-1.69-1.61-2.22 0.109-0.335 0.185-0.681 0.228-1.03 1.44 0.817 2.39 2.29 2.53 3.94-0.627 0.268-1.3 0.407-1.98 0.407zm-1.95-2.09c-0.283-0.187-0.537-0.414-0.754-0.673 0.452-0.664 0.693-1.45 0.693-2.25-0.0022-0.98-0.364-1.91-0.998-2.63-0.543 0.615-0.89 1.39-0.98 2.22-0.356 0.0633-0.7 0.162-1.03 0.29 0.0428-1.53 0.781-2.95 2.01-3.86 1.26 0.943 2 2.42 2.01 3.99-3.18e-4 1.05-0.331 2.07-0.945 2.92z" style="fill:#f9f9f9"/>
</svg>
