<svg xmlns="http://www.w3.org/2000/svg" viewBox="0 0 48 48">
 <defs>
  <linearGradient id="linearGradient3764" x1="1" x2="47" gradientUnits="userSpaceOnUse" gradientTransform="matrix(0,-1,1,0,-1.5e-6,47.999998)">
   <stop style="stop-color:#4877c6;stop-opacity:1"/>
   <stop offset="1" style="stop-color:#5782cb;stop-opacity:1"/>
  </linearGradient>
  <linearGradient id="linear0" gradientUnits="userSpaceOnUse" y1="272" x2="0" y2="37" gradientTransform="matrix(0.153409,0,0,0.15,1.909134,0.600007)">
   <stop style="stop-color:#ffc87f;stop-opacity:1"/>
   <stop offset="1" style="stop-color:#ffecd6;stop-opacity:1"/>
  </linearGradient>
 </defs>
 <g>
  <path d="m 36.31 5 c 5.859 4.062 9.688 10.831 9.688 18.5 c 0 12.426 -10.07 22.5 -22.5 22.5 c -7.669 0 -14.438 -3.828 -18.5 -9.688 c 1.037 1.822 2.306 3.499 3.781 4.969 c 4.085 3.712 9.514 5.969 15.469 5.969 c 12.703 0 23 -10.298 23 -23 c 0 -5.954 -2.256 -11.384 -5.969 -15.469 c -1.469 -1.475 -3.147 -2.744 -4.969 -3.781 z m 4.969 3.781 c 3.854 4.113 6.219 9.637 6.219 15.719 c 0 12.703 -10.297 23 -23 23 c -6.081 0 -11.606 -2.364 -15.719 -6.219 c 4.16 4.144 9.883 6.719 16.219 6.719 c 12.703 0 23 -10.298 23 -23 c 0 -6.335 -2.575 -12.06 -6.719 -16.219 z" style="opacity:0.05"/>
  <path d="m 41.28 8.781 c 3.712 4.085 5.969 9.514 5.969 15.469 c 0 12.703 -10.297 23 -23 23 c -5.954 0 -11.384 -2.256 -15.469 -5.969 c 4.113 3.854 9.637 6.219 15.719 6.219 c 12.703 0 23 -10.298 23 -23 c 0 -6.081 -2.364 -11.606 -6.219 -15.719 z" style="opacity:0.1"/>
  <path d="m 31.25 2.375 c 8.615 3.154 14.75 11.417 14.75 21.13 c 0 12.426 -10.07 22.5 -22.5 22.5 c -9.708 0 -17.971 -6.135 -21.12 -14.75 a 23 23 0 0 0 44.875 -7 a 23 23 0 0 0 -16 -21.875 z" style="opacity:0.2"/>
 </g>
 <g>
  <path d="m 24 1 c 12.703 0 23 10.297 23 23 c 0 12.703 -10.297 23 -23 23 -12.703 0 -23 -10.297 -23 -23 0 -12.703 10.297 -23 23 -23 z" style="fill:url(#linearGradient3764);fill-opacity:1"/>
 </g>
 <g>
  <g>
   <g transform="translate(1,1)">
    <g style="opacity:0.1">
     <!-- color: #5782cb -->
     <g>
      <path d="m 33 26.801 c 0.051 4.945 -3.254 9.199 -8.797 9.199 c -5.539 0 -9.238 -2.805 -9.203 -9.598 c 0.035 -6.813 4.617 -14.316 8.793 -14.402 c 4.453 -0.105 9.125 7.277 9.207 14.801 m 0 0" style="fill:#000;stroke:none;fill-rule:evenodd"/>
     </g>
    </g>
   </g>
  </g>
 </g>
 <g transform="translate(2.4624513e-4,0)">
  <g>
   <!-- color: #5782cb -->
   <g>
    <path d="M 33,26.801 C 33.051,31.746 29.746,36 24.203,36 18.664,36 14.965,33.195 15,26.402 15.035,19.589 19.617,12.086 23.793,12 28.246,11.895 32.918,19.277 33,26.801 m 0,0" style="fill:url(#linear0);stroke:none;fill-rule:evenodd"/>
    <path d="m 28.875 14.938 -1.969 1.973 -0.125 0.09 0.09 0.094 0.813 0.906 -1.531 0.75 -0.125 0.094 c -0.004 -0.004 -0.023 0.004 -0.031 0 -0.086 -0.063 -0.176 -0.133 -0.313 -0.188 -0.09 -0.039 -0.203 -0.082 -0.309 -0.125 -0.414 -0.191 -0.797 -0.355 -1.285 -0.625 -0.012 -0.004 -0.016 -0.023 -0.031 -0.031 l -0.09 0.125 -0.125 0.094 c 0.012 0.016 0.047 0.012 0.063 0.031 0.098 0.109 0.211 0.199 0.375 0.277 0.191 0.098 0.43 0.191 0.656 0.281 0.215 0.086 0.422 0.176 0.594 0.25 0.008 0.004 0.027 0 0.035 0 0.07 0.035 0.074 0.039 0.121 0.066 l -1.184 0.531 0.063 0.156 0.063 0.125 c 0.238 -0.098 0.602 -0.215 0.906 -0.344 0.129 -0.055 0.219 -0.109 0.313 -0.156 l 0 0.652 0.313 0 c 0.004 -0.422 0.039 -0.578 0.066 -0.84 l 1.906 -0.941 0.188 -0.09 -0.121 -0.156 -0.844 -0.91 c 0.566 -0.594 0.855 -0.969 1.75 -1.871 -0.203 -0.188 -0.137 -0.137 -0.219 -0.223 m -0.008 0.004" style="fill:#2f2f2f;fill-opacity:1;stroke:none;fill-rule:nonzero"/>
   </g>
  </g>
 </g>
 <g>
  <path d="m 40.03 7.531 c 3.712 4.084 5.969 9.514 5.969 15.469 0 12.703 -10.297 23 -23 23 c -5.954 0 -11.384 -2.256 -15.469 -5.969 4.178 4.291 10.01 6.969 16.469 6.969 c 12.703 0 23 -10.298 23 -23 0 -6.462 -2.677 -12.291 -6.969 -16.469 z" style="opacity:0.1"/>
 </g>
</svg>
