<svg version="1.1" viewBox="0 0 48 48" xmlns="http://www.w3.org/2000/svg">
 <defs>
  <linearGradient id="bg" x2="0" y1="48" y2=".27" gradientUnits="userSpaceOnUse">
   <stop style="stop-color:#ed7826" offset="0"/>
   <stop style="stop-color:#ef8439" offset="1"/>
  </linearGradient>
 </defs>
 <path d="m36.31 5c5.859 4.062 9.688 10.831 9.688 18.5 0 12.426-10.07 22.5-22.5 22.5-7.669 0-14.438-3.828-18.5-9.688 1.037 1.822 2.306 3.499 3.781 4.969 4.085 3.712 9.514 5.969 15.469 5.969 12.703 0 23-10.298 23-23 0-5.954-2.256-11.384-5.969-15.469-1.469-1.475-3.147-2.744-4.969-3.781zm4.969 3.781c3.854 4.113 6.219 9.637 6.219 15.719 0 12.703-10.297 23-23 23-6.081 0-11.606-2.364-15.719-6.219 4.16 4.144 9.883 6.719 16.219 6.719 12.703 0 23-10.298 23-23 0-6.335-2.575-12.06-6.719-16.219z" style="opacity:.05"/>
 <path d="m41.28 8.781c3.712 4.085 5.969 9.514 5.969 15.469 0 12.703-10.297 23-23 23-5.954 0-11.384-2.256-15.469-5.969 4.113 3.854 9.637 6.219 15.719 6.219 12.703 0 23-10.298 23-23 0-6.081-2.364-11.606-6.219-15.719z" style="opacity:.1"/>
 <path d="m31.25 2.375c8.615 3.154 14.75 11.417 14.75 21.13 0 12.426-10.07 22.5-22.5 22.5-9.708 0-17.971-6.135-21.12-14.75a23 23 0 0 0 44.875-7 23 23 0 0 0-16-21.875z" style="opacity:.2"/>
 <path d="m24 1c12.703 0 23 10.297 23 23s-10.297 23-23 23-23-10.297-23-23 10.297-23 23-23z" style="fill:url(#bg)"/>
 <path d="m16.473 2.268c-1.448 0.501-2.829 1.142-4.129 1.908 0.329 1.308 0.702 2.674 0.957 3.539 0.38 1.25 1.519 4.721 2.049 4.781 0.35 0.04-0.279-4.711-0.189-6.281 0.071-1.218 0.606-2.679 1.314-3.947zm6.326 2.674c-0.457-0.032-0.882 0.475-0.908 1.783-0.05 2.55-1.621 4.849-2.891 6.939-1.25 2.07-0.02 2.712 1.5 1.172 1.64-1.66 3.27-5.311 3.43-7.641 0.096-1.277-0.543-2.212-1.131-2.254zm-15.799 3.557v6e-3c-0.823 0.902-1.57 1.872-2.242 2.896 1.444 1.698 2.764 3.513 2.668 6.06-0.14 3.44-2.84 7.479-0.65 10.779 1.38 2.08 11.251 7.338 18.881 7.238 0.14 0 0.06-0.06-0.18-0.16 2.49 0 4.77-0.609 7.05-2.639 3.43-3.06 3.48-8.04 7.73-10.4 8.45-4.69 3.547-7.178-1.973-8.04 1.43 0.04 2.35-0.021 1.99-0.541-1.87-2.67-18.548-0.451-17.12 2.119 0.29 0.52 0.771 0.742 1.391 0.762-1.1 0.42-2.23 0.779-3.42 0.949-4.7 0.66-9.151-1.219-12.221 1.311 0.13-0.76 0.229-1.56 0.199-2.49-0.089-2.672-1.309-5.21-2.105-7.852zm39.38 20.813c-0.093 0.104-0.203 0.223-0.287 0.318-5.7 6.58-9.702 14.621-31.682 8.881-5.8-1.52-8.08-1.91-2.908 0.92 11.345 6.219 20.299 5.665 26.471 2.842 4.141-3.172 7.168-7.72 8.406-12.961z" style="fill-opacity:.098"/>
 <path d="m8.25 26.915c1.15 4.05 12.47 6.04 15.93 7.32 4.17 1.54 8.51-3.18 10.16-6.39 0.89-1.73 1.67-3.56 3.02-4.99 1.75-1.86 4.47-2.51 5.98-4.63 1.89-2.67-2.04-4.04-3.99-4.53-4.96-1.23-12.51-0.91-13.67 1.54-4.18 0.75-9.28 0.87-14.24 1.34-5.42 0.5-4.3 6.46-3.19 10.34 0.75 2.65-0.88-3.08 0 0z" style="fill:#fafafa"/>
 <path d="m14.744 2.9434c-1.052 0.463-2.0605 1.0003-3.0195 1.6133 0.219 0.811 0.44842 1.664 0.60742 2.209 0.39 1.24 1.5325 4.7095 2.0625 4.7695 0.35 0.04-0.28141-4.7093-0.19141-6.2793 0.042-0.711 0.24592-1.5145 0.54492-2.3125zm7.0957 1.0371c-0.45703-0.032437-0.88391 0.47703-0.91016 1.7852-0.05 2.55-1.6306 4.8495-2.8906 6.9395-1.25 2.07-0.02 2.7099 1.5 1.1699 1.64-1.66 3.2716-5.3106 3.4316-7.6406 0.095625-1.2769-0.54324-2.2122-1.1309-2.2539zm-15.311 5.0703c-0.672 0.784-1.2905 1.6124-1.8535 2.4824 1.05 1.403 1.8702 2.9586 1.7852 4.9746-0.13 3.44-2.8306 7.4773-0.64062 10.777 1.38 2.08 11.249 7.3402 18.879 7.2402 0.14 0 0.06031-0.06016-0.17969-0.16016-2.01-0.84-15.511-4.7973-16.271-7.4473-0.18-0.61-0.11969-1.1238 1.5703-1.0938 4.97 0.09 3.3525 4.1909 11.812 3.9609 1.85-0.079 3.7527-0.77334 4.8887-2.0273 1.37-1.4 2.0412-3.1212 2.9512-3.7812 4.58-3.33 4.2495-2.6687 6.0195-3.6387 3.48-1.9 1.29-4.6114 0-3.1914-1.54 1.7-4.1807 0.40156-7.7207 0.35156-2.62-0.26-7.5592 1.3986-10.199 3.0586-4.23 2.66-3.6394-0.34016-4.3594-2.9102-0.05 0.35-0.46 3.0798 0 4.8398-1.98 0.69-2.34 0.74117-4 0.70117-0.58 0-1.8503 0.11906-1.8203-1.4609 0.03-1.48 0.33883-2.6296 0.54883-3.8496 0.13-0.76 0.23117-1.5602 0.20117-2.4902-0.069-2.157-0.88233-4.2289-1.6113-6.3359zm27.703 2.4844c-5.4391-0.03926-13.016 1.5632-12.033 3.3301 0.29 0.52 0.77062 0.73977 1.3906 0.75977 1.77 0.05 4.6495-1.5204 7.1895-2.1504 1.85-0.46 4.6508-0.22945 6.5508-0.18945 1.43 0.04 2.3502-0.02102 1.9902-0.54102-0.58438-0.83438-2.6156-1.1911-5.0879-1.209zm12.596 15.225c-0.653 0.66-1.2683 1.3292-1.7383 1.8652-5.7 6.58-9.6997 14.621-31.68 8.8809-5.8-1.52-8.0802-1.9101-2.9102 0.91992 15.586 8.544 26.674 4.3249 32.199-1.0391 2.199-3.066 3.6579-6.693 4.1289-10.627z" style="fill:#383838"/>
 <g transform="translate(1,1)"></g>
 <path d="m26.61 25.295c0.05-0.3 0.08-0.6 0.08-0.91 0-2.29-1.49-4.24-3.55-4.93-2.29 0.74-4.32 1.88-6.19 3.39-0.19 0.15-0.37 0.29-0.54 0.4-0.08 0.37-0.13 0.75-0.13 1.14 0 1.18 0.39 2.27 1.05 3.14 2.3 0.89 6.46 0.36 9.28-2.23zm-5.12-2.21c0.72 0 1.3 0.58 1.3 1.3s-0.58 1.3-1.3 1.3-1.3-0.58-1.3-1.3 0.59-1.3 1.3-1.3z" style="fill:#94c94a"/>
 <path d="m40.03 7.531c3.712 4.084 5.969 9.514 5.969 15.469 0 12.703-10.297 23-23 23-5.954 0-11.384-2.256-15.469-5.969 4.178 4.291 10.01 6.969 16.469 6.969 12.703 0 23-10.298 23-23 0-6.462-2.677-12.291-6.969-16.469z" style="opacity:.1"/>
</svg>
