<svg version="1.1" viewBox="0 0 48 48" xmlns="http://www.w3.org/2000/svg">
 <defs>
  <linearGradient id="linearGradient840" x1="1" x2="47" gradientUnits="userSpaceOnUse">
   <stop style="stop-color:#e4e4e4" offset="0"/>
   <stop style="stop-color:#eee" offset="1"/>
  </linearGradient>
 </defs>
 <path d="m36.31 5c5.859 4.062 9.688 10.831 9.688 18.5 0 12.426-10.07 22.5-22.5 22.5-7.669 0-14.438-3.828-18.5-9.688 1.037 1.822 2.306 3.499 3.781 4.969 4.085 3.712 9.514 5.969 15.469 5.969 12.703 0 23-10.298 23-23 0-5.954-2.256-11.384-5.969-15.469-1.469-1.475-3.147-2.744-4.969-3.781zm4.969 3.781c3.854 4.113 6.219 9.637 6.219 15.719 0 12.703-10.297 23-23 23-6.081 0-11.606-2.364-15.719-6.219 4.16 4.144 9.883 6.719 16.219 6.719 12.703 0 23-10.298 23-23 0-6.335-2.575-12.06-6.719-16.219z" style="opacity:.05"/>
 <path d="m41.28 8.781c3.712 4.085 5.969 9.514 5.969 15.469 0 12.703-10.297 23-23 23-5.954 0-11.384-2.256-15.469-5.969 4.113 3.854 9.637 6.219 15.719 6.219 12.703 0 23-10.298 23-23 0-6.081-2.364-11.606-6.219-15.719z" style="opacity:.1"/>
 <path d="m31.25 2.375c8.615 3.154 14.75 11.417 14.75 21.13 0 12.426-10.07 22.5-22.5 22.5-9.708 0-17.971-6.135-21.12-14.75a23 23 0 0 0 44.875 -7 23 23 0 0 0 -16 -21.875z" style="opacity:.2"/>
 <g transform="matrix(0,-1,1,0,0,48)" style="fill:#501616">
  <path d="m24 1c12.703 0 23 10.297 23 23s-10.297 23-23 23-23-10.297-23-23 10.297-23 23-23z" style="fill:url(#linearGradient840)"/>
 </g>
 <path d="m25 2c-10.221 0-18.88 6.6685-21.875 15.891-0.72733 2.2394-1.125 4.6274-1.125 7.1094 0 6.1307 2.4057 11.695 6.3164 15.816 4.1089 3.8338 9.6203 6.1836 15.684 6.1836 12.703 0 23-10.297 23-23 0-6.0067-2.3038-11.474-6.0742-15.57-4.1325-3.9756-9.7376-6.4297-15.926-6.4297zm0 11a12 12 0 0 1 11.398 8.2969 12 12 0 0 1 0.60156 3.7031 12 12 0 0 1 -4.9551 9.6973 12 12 0 0 1 -7.0449 2.3027 12 12 0 0 1 -7.0469 -2.3027 12 12 0 0 1 -4.9531 -9.6973 12 12 0 0 1 0.59375 -3.707 12 12 0 0 1 11.406 -8.293z" style="fill-rule:evenodd;opacity:.1"/>
 <path d="M 24,1 C 13.779,1 5.12,7.6685 2.125,16.891 3,20 9,21 12.594,20.2933 14.199308,15.350892 18.803424,12.003362 24,12.0003 26,10 26,3 24,1 Z" style="fill-rule:evenodd;fill:#ee7f52"/>
 <path d="m 24,1 v 11 c 5.194671,0.0071 9.794971,3.355751 11.398,8.2969 C 38,22 44,20 45.875,16.8926 42.8803,7.6695 34.222,0.9996 24,0.9996 Z" style="fill-rule:evenodd;fill:#858585"/>
 <path d="m45.875 16.893-10.477 3.4043c0.39343 1.1952 0.59643 2.4448 0.60156 3.7031-0.0055 3.8389-1.8473 7.4436-4.9551 9.6973-1.0445 3.3023 2.9555 9.3023 6.4727 8.9082 5.7452-4.1814 9.4824-10.956 9.4824-18.605 0-2.4813-0.39804-4.8685-1.125-7.1074z" style="fill-rule:evenodd;fill:#9b9b9b"/>
 <path d="m16.953 33.697c-3.953 0.303-6.953 6.303-6.4707 8.9062 3.7951 2.7624 8.4641 4.3965 13.518 4.3965 5.0531 0 9.7226-1.6325 13.518-4.3945l-6.4727-8.9082c-2.0465 1.4917-4.5125 2.2977-7.0449 2.3027-2.5331-0.0045-4.9999-0.81059-7.0469-2.3027z" style="fill-rule:evenodd;fill:#b3b3b3"/>
 <path d="m2.125 16.891c-0.72733 2.2394-1.125 4.6274-1.125 7.1094 0 7.6495 3.7377 14.422 9.4824 18.604l6.4707-8.9062a12 12 0 0 1 -4.9531 -9.6973 12 12 0 0 1 0.59375 -3.707z" style="fill-rule:evenodd;fill:#d2d2d2"/>
 <path d="m40.03 7.531c3.712 4.084 5.969 9.514 5.969 15.469 0 12.703-10.297 23-23 23-5.954 0-11.384-2.256-15.469-5.969 4.178 4.291 10.01 6.969 16.469 6.969 12.703 0 23-10.298 23-23 0-6.462-2.677-12.291-6.969-16.469z" style="opacity:.1"/>
</svg>
