<svg xmlns="http://www.w3.org/2000/svg" viewBox="0 0 48 48">
 <defs>
  <linearGradient id="linearGradient3165" gradientUnits="userSpaceOnUse" gradientTransform="matrix(0,-0.97498811,0.97498811,0,0.60028377,47.399713)" x1="1" x2="47">
   <stop style="stop-color:#e4e4e4;stop-opacity:1"/>
   <stop offset="1" style="stop-color:#eee;stop-opacity:1"/>
  </linearGradient>
 </defs>
 <g>
  <path d="m 36.31 5 c 5.859 4.062 9.688 10.831 9.688 18.5 c 0 12.426 -10.07 22.5 -22.5 22.5 c -7.669 0 -14.438 -3.828 -18.5 -9.688 c 1.037 1.822 2.306 3.499 3.781 4.969 c 4.085 3.712 9.514 5.969 15.469 5.969 c 12.703 0 23 -10.298 23 -23 c 0 -5.954 -2.256 -11.384 -5.969 -15.469 c -1.469 -1.475 -3.147 -2.744 -4.969 -3.781 z m 4.969 3.781 c 3.854 4.113 6.219 9.637 6.219 15.719 c 0 12.703 -10.297 23 -23 23 c -6.081 0 -11.606 -2.364 -15.719 -6.219 c 4.16 4.144 9.883 6.719 16.219 6.719 c 12.703 0 23 -10.298 23 -23 c 0 -6.335 -2.575 -12.06 -6.719 -16.219 z" style="opacity:0.05"/>
  <path d="m 41.28 8.781 c 3.712 4.085 5.969 9.514 5.969 15.469 c 0 12.703 -10.297 23 -23 23 c -5.954 0 -11.384 -2.256 -15.469 -5.969 c 4.113 3.854 9.637 6.219 15.719 6.219 c 12.703 0 23 -10.298 23 -23 c 0 -6.081 -2.364 -11.606 -6.219 -15.719 z" style="opacity:0.1"/>
  <path d="m 31.25 2.375 c 8.615 3.154 14.75 11.417 14.75 21.13 c 0 12.426 -10.07 22.5 -22.5 22.5 c -9.708 0 -17.971 -6.135 -21.12 -14.75 a 23 23 0 0 0 44.875 -7 a 23 23 0 0 0 -16 -21.875 z" style="opacity:0.2"/>
 </g>
 <path d="m 24 1.575 c 12.385 0 22.425 10.04 22.425 22.425 0 12.385 -10.04 22.425 -22.425 22.425 -12.385 0 -22.425 -10.04 -22.425 -22.425 0 -12.385 10.04 -22.425 22.425 -22.425 z" style="fill:url(#linearGradient3165);fill-opacity:1"/>
 <path d="m 15.937 32.845 c -1.82 -2.099 -2.938 -4.835 -2.938 -7.844 0 -1.388 0.226 -2.701 0.656 -3.938 0.215 -0.618 0.472 -1.215 0.781 -1.781 0.145 -0.317 0.335 -0.571 0.501 -0.844 1.057 -1.612 2.497 -2.962 4.188 -3.906 0.282 -0.157 0.58 -0.303 0.875 -0.438 0.582 -0.266 1.185 -0.484 1.813 -0.656 c 1.107 -0.233 2.233 -0.433 3.187 -0.438 c 3.102 0 5.904 1.178 8.03 3.094 c -11.188 -12.871 -29.961 5.01 -17.09 16.751" style="fill:#000;opacity:0.1;fill-opacity:1;stroke:none;fill-rule:nonzero"/>
 <path d="m 45.875 16.907 c -4.26 -0.436 -7.589 0.989 -10.438 3.375 -0.125 -0.389 -0.275 -0.755 -0.438 -1.125 l -0.031 0 c 0.652 1.48 1.031 3.117 1.031 4.844 0 4.219 -2.16 7.929 -5.438 10.06 l 5.75 9.344 c 6.426 -4.079 10.688 -11.231 10.688 -19.406 -0.122 -2.503 -0.475 -5.05 -1.124 -7.092" style="fill:#9b9b9b;fill-opacity:1;stroke:none;fill-rule:nonzero"/>
 <path d="m 2.188 16.781 c -1.458 20.813 -0.729 10.406 0 0 z m -0.063 0.125 c -0.726 2.232 -1.125 4.618 -1.125 7.094 c 0 7.643 3.734 14.411 9.469 18.594 l 6.469 -8.875 c -2.996 -2.178 -4.938 -5.716 -4.938 -9.719 c 0 -1.293 0.187 -2.553 0.563 -3.719 z" style="fill:#d2d2d2;fill-opacity:1;stroke:none;fill-rule:nonzero"/>
 <path d="m 16.938 33.719 l -6.469 8.875 c 3.798 2.77 8.47 4.406 13.531 4.406 c 5.061 0 9.733 -1.636 13.531 -4.406 l -6.469 -8.875 c -1.977 1.438 -4.421 2.281 -7.06 2.281 c -2.645 0 -5.089 -0.844 -7.06 -2.281 z" style="fill:#b3b3b3;fill-opacity:1;stroke:none;fill-rule:nonzero"/>
 <path d="m 24 1 c -10.227 0 -18.885 6.676 -21.875 15.906 l 10.438 3.375 c 1.555 -4.824 6.081 -8.281 11.438 -8.281 l 0 -11 z" style="fill:#ee7f52;fill-opacity:1;stroke:none;fill-rule:nonzero"/>
 <path d="m 23.969 1 l 0.031 11 c 5.355 0 9.886 3.453 11.438 8.281 l 10.438 -3.375 c -2.99 -9.231 -11.648 -15.906 -21.875 -15.906 c -0.01 0 -0.021 0 -0.031 0 z" style="fill:#858585;fill-opacity:1;stroke:none;fill-rule:nonzero"/>
 <g>
  <path d="m 40.03 7.531 c 3.712 4.084 5.969 9.514 5.969 15.469 0 12.703 -10.297 23 -23 23 c -5.954 0 -11.384 -2.256 -15.469 -5.969 4.178 4.291 10.01 6.969 16.469 6.969 c 12.703 0 23 -10.298 23 -23 0 -6.462 -2.677 -12.291 -6.969 -16.469 z" style="opacity:0.1"/>
 </g>
</svg>
