<svg xmlns="http://www.w3.org/2000/svg" viewBox="0 0 48 48">
 <defs>
  <linearGradient id="linearGradient3764-0" x1="1" x2="47" gradientUnits="userSpaceOnUse" gradientTransform="matrix(0,-1,1,0,-1e-6,47.999998)">
   <stop style="stop-color:#e4e4e4;stop-opacity:1"/>
   <stop offset="1" style="stop-color:#eee;stop-opacity:1"/>
  </linearGradient>
 </defs>
 <g>
  <path d="m 36.31 5 c 5.859 4.062 9.688 10.831 9.688 18.5 c 0 12.426 -10.07 22.5 -22.5 22.5 c -7.669 0 -14.438 -3.828 -18.5 -9.688 c 1.037 1.822 2.306 3.499 3.781 4.969 c 4.085 3.712 9.514 5.969 15.469 5.969 c 12.703 0 23 -10.298 23 -23 c 0 -5.954 -2.256 -11.384 -5.969 -15.469 c -1.469 -1.475 -3.147 -2.744 -4.969 -3.781 z m 4.969 3.781 c 3.854 4.113 6.219 9.637 6.219 15.719 c 0 12.703 -10.297 23 -23 23 c -6.081 0 -11.606 -2.364 -15.719 -6.219 c 4.16 4.144 9.883 6.719 16.219 6.719 c 12.703 0 23 -10.298 23 -23 c 0 -6.335 -2.575 -12.06 -6.719 -16.219 z" style="opacity:0.05"/>
  <path d="m 41.28 8.781 c 3.712 4.085 5.969 9.514 5.969 15.469 c 0 12.703 -10.297 23 -23 23 c -5.954 0 -11.384 -2.256 -15.469 -5.969 c 4.113 3.854 9.637 6.219 15.719 6.219 c 12.703 0 23 -10.298 23 -23 c 0 -6.081 -2.364 -11.606 -6.219 -15.719 z" style="opacity:0.1"/>
  <path d="m 31.25 2.375 c 8.615 3.154 14.75 11.417 14.75 21.13 c 0 12.426 -10.07 22.5 -22.5 22.5 c -9.708 0 -17.971 -6.135 -21.12 -14.75 a 23 23 0 0 0 44.875 -7 a 23 23 0 0 0 -16 -21.875 z" style="opacity:0.2"/>
 </g>
 <path d="m 24 1 c 12.703 0 23 10.297 23 23 0 12.703 -10.297 23 -23 23 -12.703 0 -23 -10.297 -23 -23 0 -12.703 10.297 -23 23 -23" style="fill:url(#linearGradient3764-0);fill-opacity:1"/>
 <g>
  <path d="m 40.03 7.531 c 3.712 4.084 5.969 9.514 5.969 15.469 0 12.703 -10.297 23 -23 23 c -5.954 0 -11.384 -2.256 -15.469 -5.969 4.178 4.291 10.01 6.969 16.469 6.969 c 12.703 0 23 -10.298 23 -23 0 -6.462 -2.677 -12.291 -6.969 -16.469 z" style="opacity:0.1"/>
 </g>
 <path d="m 13 12.969 0 2.031 l 10 0 -7.846 19.867 0.277 0.084 -0.645 0.732 1.285 1.086 l 7.928 -8.66 0 8.891 2 0 0 -11.08 2.631 -2.873 5.295 12.18 1.605 -0.543 -5.639 -13.01 6.107 -6.674 l 1 0 0 -2.031 -24 0 z m 14 2.031 6 0 -4.02 4.566 -1.979 -4.566 m -3 2 0 8.221 -5.578 6.336 l 5.578 -14.557 m 2 0 1.732 3.982 l -1.732 1.967 0 -5.949" style="fill:#000;fill-opacity:0.098;stroke:none"/>
 <path d="m 14.15 33.868 7.847 -19.868 4 0 8.531 19.687 -1.606 0.543 -7.925 -18.23 -2 0 -7.06 18.412 z" style="fill:#c9371b;fill-opacity:1;stroke:none"/>
 <path d="m 13.786 34.683 1.285 1.087 19.929 -21.77 -3 0 z" style="fill:#4dcb32;fill-opacity:1;stroke:none"/>
 <path d="m 33.705 35.544 1.239 -1.132 -18.944 -20.412 -3 0 z" style="fill:#4dcb32;fill-opacity:1;stroke:none"/>
 <path d="m 12 11.969 l 0 2.031 l 11 0 l 0 22 l 2 0 l 0 -22 l 11 0 l 0 -2.031 l -24 0 z" style="fill:#1d8af3;opacity:1;fill-opacity:1;stroke:none;fill-rule:nonzero"/>
</svg>
