<svg xmlns="http://www.w3.org/2000/svg" viewBox="0 0 48 48">
 <defs>
  <linearGradient id="linearGradient3764" x1="1" x2="47" gradientUnits="userSpaceOnUse" gradientTransform="matrix(0,-1,1,0,-1.5e-6,47.999998)">
   <stop style="stop-color:#575757;stop-opacity:1"/>
   <stop offset="1" style="stop-color:#616161;stop-opacity:1"/>
  </linearGradient>
 </defs>
 <g>
  <path d="m 36.31 5 c 5.859 4.062 9.688 10.831 9.688 18.5 c 0 12.426 -10.07 22.5 -22.5 22.5 c -7.669 0 -14.438 -3.828 -18.5 -9.688 c 1.037 1.822 2.306 3.499 3.781 4.969 c 4.085 3.712 9.514 5.969 15.469 5.969 c 12.703 0 23 -10.298 23 -23 c 0 -5.954 -2.256 -11.384 -5.969 -15.469 c -1.469 -1.475 -3.147 -2.744 -4.969 -3.781 z m 4.969 3.781 c 3.854 4.113 6.219 9.637 6.219 15.719 c 0 12.703 -10.297 23 -23 23 c -6.081 0 -11.606 -2.364 -15.719 -6.219 c 4.16 4.144 9.883 6.719 16.219 6.719 c 12.703 0 23 -10.298 23 -23 c 0 -6.335 -2.575 -12.06 -6.719 -16.219 z" style="opacity:0.05"/>
  <path d="m 41.28 8.781 c 3.712 4.085 5.969 9.514 5.969 15.469 c 0 12.703 -10.297 23 -23 23 c -5.954 0 -11.384 -2.256 -15.469 -5.969 c 4.113 3.854 9.637 6.219 15.719 6.219 c 12.703 0 23 -10.298 23 -23 c 0 -6.081 -2.364 -11.606 -6.219 -15.719 z" style="opacity:0.1"/>
  <path d="m 31.25 2.375 c 8.615 3.154 14.75 11.417 14.75 21.13 c 0 12.426 -10.07 22.5 -22.5 22.5 c -9.708 0 -17.971 -6.135 -21.12 -14.75 a 23 23 0 0 0 44.875 -7 a 23 23 0 0 0 -16 -21.875 z" style="opacity:0.2"/>
 </g>
 <g>
  <path d="m 24 1 c 12.703 0 23 10.297 23 23 c 0 12.703 -10.297 23 -23 23 -12.703 0 -23 -10.297 -23 -23 0 -12.703 10.297 -23 23 -23 z" style="fill:url(#linearGradient3764);fill-opacity:1"/>
 </g>
 <g>
  <path d="m 40.03 7.531 c 3.712 4.084 5.969 9.514 5.969 15.469 0 12.703 -10.297 23 -23 23 c -5.954 0 -11.384 -2.256 -15.469 -5.969 4.178 4.291 10.01 6.969 16.469 6.969 c 12.703 0 23 -10.298 23 -23 0 -6.462 -2.677 -12.291 -6.969 -16.469 z" style="opacity:0.1"/>
 </g>
 <g transform="matrix(3.543307,0,0,3.543307,0.99999996,1.0000016)" style="fill:#000;opacity:0.1;fill-opacity:1">
  <path transform="matrix(0.28222223,0,0,0.28222223,-0.28222222,-0.28222271)" d="m 25,12 c -1.112,0 -2.212,0.195 -3.281,0.563 -1.073,0.367 -2.028,0.863 -2.875,1.5 -0.851,0.64 -1.54,1.441 -2.063,2.406 -0.519,0.965 -0.781,2.01 -0.781,3.125 0,1.75 0.602,3.254 1.813,4.531 0.528,0.551 0.965,1.039 1.313,1.469 0.344,0.425 0.679,0.977 1.031,1.625 0.346,0.641 0.539,1.227 0.594,1.781 0.017,0.001 0.034,0.017 0.051,0.027 l -0.037,0 c -0.551,0.317 -0.826,0.782 -0.826,1.391 0,0.418 0.143,0.777 0.439,1.082 -0.293,0.305 -0.439,0.664 -0.439,1.082 0,0.59 0.264,1.047 0.791,1.371 -0.157,0.262 -0.227,0.527 -0.227,0.797 0,0.519 0.184,0.918 0.555,1.203 0.367,0.281 0.821,0.422 1.363,0.422 0.231,0.496 0.58,0.891 1.053,1.184 0.464,0.293 0.973,0.441 1.527,0.441 0.55,0 1.053,-0.148 1.525,-0.441 0.473,-0.293 0.825,-0.688 1.059,-1.184 0.539,0 0.987,-0.141 1.354,-0.422 0.371,-0.285 0.559,-0.683 0.559,-1.203 0,-0.27 -0.077,-0.535 -0.229,-0.797 0.527,-0.324 0.787,-0.781 0.787,-1.371 0,-0.418 -0.145,-0.777 -0.438,-1.082 0.293,-0.305 0.438,-0.664 0.438,-1.082 0,-0.61 -0.276,-1.075 -0.822,-1.391 l -0.051,0 C 29.195,29.026 29.209,29.01 29.22,29 c 0.051,-0.554 0.276,-1.141 0.625,-1.781 0.352,-0.648 0.683,-1.199 1.031,-1.625 0.348,-0.43 0.786,-0.918 1.313,-1.469 1.207,-1.277 1.813,-2.781 1.813,-4.531 0,-1.121 -0.262,-2.16 -0.781,-3.125 C 32.697,15.504 32.01,14.704 31.158,14.063 30.311,13.426 29.356,12.93 28.283,12.563 27.214,12.196 26.114,12 25.002,12 Z" style="stroke:none;fill-rule:nonzero"/>
 </g>
 <g transform="scale(3.543307,3.543307)">
  <path transform="scale(0.28222223,0.28222223)" d="m 24,11 c -1.112,0 -2.212,0.194 -3.281,0.563 -1.073,0.367 -2.028,0.863 -2.875,1.5 -0.851,0.64 -1.54,1.441 -2.063,2.406 -0.519,0.965 -0.781,2.01 -0.781,3.125 0,1.75 0.601,3.254 1.813,4.531 0.528,0.551 0.966,1.039 1.314,1.469 0.344,0.425 0.677,0.977 1.029,1.625 0.346,0.641 0.541,1.227 0.596,1.781 l 2.25,2 3.998,0 2.219,-2 c 0.051,-0.554 0.276,-1.141 0.625,-1.781 0.352,-0.648 0.683,-1.199 1.031,-1.625 0.348,-0.43 0.785,-0.918 1.313,-1.469 1.207,-1.277 1.814,-2.781 1.814,-4.531 0,-1.121 -0.262,-2.16 -0.781,-3.125 C 31.697,14.504 31.009,13.704 30.157,13.063 29.31,12.426 28.355,11.93 27.282,11.563 26.213,11.196 25.115,11 24.003,11" style="fill:#6d9db3;fill-opacity:1;stroke:none;fill-rule:nonzero"/>
  <path d="m 6.209,7.902 1.129,0 M 7.968,7.91 C 8.122,7.999 8.2,8.13 8.2,8.303 8.2,8.421 8.159,8.522 8.076,8.608 8.159,8.694 8.2,8.795 8.2,8.913 8.2,9.08 8.126,9.208 7.977,9.3 8.02,9.374 8.042,9.449 8.042,9.525 8.042,9.672 7.989,9.784 7.884,9.865 7.78,9.944 7.654,9.984 7.502,9.984 7.436,10.124 7.337,10.235 7.203,10.318 7.07,10.401 6.927,10.442 6.772,10.442 6.615,10.442 6.472,10.4 6.341,10.318 6.208,10.235 6.109,10.124 6.043,9.984 5.89,9.984 5.762,9.944 5.659,9.865 5.554,9.785 5.502,9.672 5.502,9.525 5.502,9.449 5.522,9.374 5.566,9.3 5.417,9.209 5.342,9.08 5.342,8.913 5.342,8.795 5.384,8.694 5.466,8.608 5.382,8.522 5.342,8.421 5.342,8.303 5.342,8.131 5.42,8 5.576,7.91" style="fill:#c6caca;fill-opacity:1;stroke:none;fill-rule:nonzero"/>
  <path d="M 5.556,9.313 C 5.519,9.381 5.503,9.455 5.503,9.525 c 0,0.025 0.006,0.048 0.009,0.071 l 2.523,0 c 0,-0.023 0.009,-0.046 0.009,-0.071 0,-0.07 -0.017,-0.143 -0.053,-0.212 l -2.434,0 z" style="fill:#dde5e5;fill-opacity:1;stroke:none"/>
  <path d="M 5.379,8.749 C 5.358,8.8 5.344,8.858 5.344,8.917 c 0,0.042 0.008,0.078 0.018,0.115 l 2.822,0 C 8.193,8.995 8.202,8.959 8.202,8.917 8.202,8.858 8.187,8.8 8.167,8.749 l -2.787,0 z" style="fill:#dde5e5;fill-opacity:1;stroke:none"/>
  <path d="M 5.362,8.184 C 5.361,8.222 5.344,8.256 5.344,8.299 c 0,0.059 0.006,0.117 0.027,0.168 l 2.796,0 C 8.188,8.416 8.202,8.358 8.202,8.299 8.202,8.256 8.194,8.222 8.184,8.184 l -2.822,0 z" style="fill:#dde5e5;fill-opacity:1;stroke:none"/>
  <path d="m 26.1 11.238 c -0.336 0.241 -0.053 1.036 0.137 0.199 0.053 -0.016 0.165 -0.059 0.234 -0.119 -0.123 -0.032 -0.247 -0.053 -0.371 -0.08 z m 0.906 0.24 c -0.606 0.453 -1.244 1.01 -1.84 1.635 l 0.182 -0.486 c -0.821 -1.021 -2.717 1.621 -1.266 1.541 -0.111 -0.758 0.266 -0.694 0.646 -0.557 -1.019 1.172 -1.829 2.476 -1.91 3.602 0.741 0.373 0.629 -1.872 2.129 -0.645 -0.688 -0.862 -0.011 -0.413 0.404 -0.226 0.353 -0.436 0.636 -2.01 1.305 -0.949 -0.548 0.257 -1.183 1.052 -0.123 0.98 0.248 0.885 -1.369 1.079 -1.98 0.713 -1.523 -0.018 -2.202 2.119 -1.631 3.449 0.58 1.435 1.887 0.407 2.756 0.721 1.091 1.043 0.791 3.128 2.145 3.939 1.44 0.289 1.153 -2.115 1.07 -3.117 -0.542 -1.04 0.7 -2.454 -0.211 -3.154 -0.55 0.171 -1.63 -0.925 -1.49 -1.416 0.276 1.257 2.472 1.358 2.061 -0.225 -0.592 -0.059 -1.645 -0.831 -0.42 -0.553 1.138 -0.372 2.035 0.781 2.609 1.357 0.178 -0.714 0.101 -2.243 1.236 -1.477 c -0.039 -0.291 -0.325 -0.846 -0.454 -1.142 -0.524 -0.965 -1.212 -1.765 -2.064 -2.406 -0.989 -0.685 -2.01 -1.251 -3.154 -1.584 m -3.396 0.289 c -0.538 0.098 -0.179 0.886 0.289 0.008 -0.116 -0.021 -0.212 -0.022 -0.289 -0.008 z m -2.684 0.832 c -0.415 0.137 -0.83 0.278 -1.248 0.402 -0.916 0.352 -0.434 0.739 -0.475 1.152 -0.06 0.782 0.616 1.79 0.979 0.574 0.484 -0.844 1.973 -1.832 0.744 -2.128 z m -2.164 0.754 c -0.532 0.041 -2.057 1.347 -0.764 0.828 0.16 -0.179 0.292 -0.388 0.477 -0.539 z m 2.834 0.691 c -0.06 -0.033 -0.168 0.001 -0.338 0.174 0.272 0.628 0.518 -0.074 0.338 -0.174 z m 5.727 0.498 c 0.568 0.184 0.701 1.561 0.018 0.668 -0.255 -0.106 -0.269 -0.548 -0.02 -0.664 z m -9.566 0.084 c -0.135 -0.005 -0.266 0.008 -0.369 0.033 l 0.004 0.002 c 0.352 0.594 0.405 1.505 1.064 0.684 0.152 -0.519 -0.293 -0.702 -0.699 -0.719 z m 4.906 0.004 c -0.482 0.57 0.976 1.185 0.297 0.348 -0.115 -0.103 -0.198 -0.232 -0.297 -0.348 z m -6.316 0.379 c 0.104 0.774 -0.305 0.968 -0.832 1.045 -0.334 0.799 -0.51 1.645 -0.51 2.539 0 0.958 0.187 1.84 0.549 2.654 0.257 -0.576 0.992 -0.963 1.512 -0.404 -0.227 -1.371 1.077 -2.539 1.311 -3.639 1.645 0.444 -0.276 -1.819 -0.99 -0.896 -0.168 0.549 -0.393 1.48 -0.977 0.654 -0.511 -0.955 0.832 -0.977 0.803 -1.461 -0.153 -0.333 -0.531 -0.546 -0.865 -0.492 z m 6.16 0.275 c -0.199 0.14 0.18 0.447 0.152 0.121 z m -6.557 0.096 c -0.022 -0.005 -0.087 0.006 -0.12 0.006 -0.074 0.124 -0.131 0.257 -0.191 0.369 0.268 -0.128 0.492 -0.331 0.311 -0.375 z m 8.242 0.854 c -0.283 0.168 0.278 0.689 0.143 0.188 z m 0.545 0.428 c -0.186 0.129 0.279 0.364 0.223 0.111 z m -8.356 1.27 c 0.38 -0.037 0.773 1.123 0.219 0.604 -0.067 0.95 -0.641 -0.229 -0.379 -0.508 0.032 -0.056 0.118 -0.071 0.16 -0.096 z m 15.449 0.227 c -0.347 0.339 0.447 0.525 0.072 0.055 z m -14.602 3.232 c -0.082 0.014 -0.182 0.047 -0.301 0.107 l 0.002 0.002 c 0.577 0.652 0.872 -0.208 0.299 -0.109 z m 12.639 0.504 -0.119 0.039 c -0.661 0.366 0.249 2.249 0.271 0.834 0.016 -0.296 0.004 -0.615 -0.152 -0.873 z m -13.59 0.188 c -0.08 -0.008 -0.162 0.009 -0.248 0.053 0.218 0.333 0.472 0.652 0.76 0.959 0.366 0.164 1.1 0.215 1.18 0.026 c -0.712 -0.164 -1.115 -0.74 -1.692 -1.037 m 2.404 0.505 c -0.241 -0.076 -0.457 -0.056 -0.621 0.08 -0.321 0.577 -0.304 1.059 -0.176 1.65 0.569 0.566 0.943 1.332 1.275 1.9 0.013 0.024 0.017 0.045 0.029 0.068 0.112 0.115 0.225 0.247 0.332 0.35 0.231 0.421 0.407 0.893 0.588 1.363 l 1.477 0 c 0.22 -1.394 1.081 -2.994 0.26 -4.256 -1.036 -0.35 -2.081 -1.08 -3.164 -1.156 z" transform="scale(0.28222223,0.28222223)" style="fill:#9ace9a;fill-opacity:1;stroke:none;fill-rule:nonzero"/>
 </g>
</svg>
