<svg version="1.1" viewBox="0 0 48 48" xmlns="http://www.w3.org/2000/svg">
 <defs>
  <linearGradient id="bg" x1="1" x2="47" gradientTransform="matrix(0 -1 1 0 -1.5e-6 48)" gradientUnits="userSpaceOnUse">
   <stop style="stop-color:#18cbe0" offset="0"/>
   <stop style="stop-color:#25d3e8" offset="1"/>
  </linearGradient>
 </defs>
 <path d="m36.31 5c5.859 4.062 9.688 10.831 9.688 18.5 0 12.426-10.07 22.5-22.5 22.5-7.669 0-14.438-3.828-18.5-9.688 1.037 1.822 2.306 3.499 3.781 4.969 4.085 3.712 9.514 5.969 15.469 5.969 12.703 0 23-10.298 23-23 0-5.954-2.256-11.384-5.969-15.469-1.469-1.475-3.147-2.744-4.969-3.781zm4.969 3.781c3.854 4.113 6.219 9.637 6.219 15.719 0 12.703-10.297 23-23 23-6.081 0-11.606-2.364-15.719-6.219 4.16 4.144 9.883 6.719 16.219 6.719 12.703 0 23-10.298 23-23 0-6.335-2.575-12.06-6.719-16.219z" style="opacity:.05"/>
 <path d="m41.28 8.781c3.712 4.085 5.969 9.514 5.969 15.469 0 12.703-10.297 23-23 23-5.954 0-11.384-2.256-15.469-5.969 4.113 3.854 9.637 6.219 15.719 6.219 12.703 0 23-10.298 23-23 0-6.081-2.364-11.606-6.219-15.719z" style="opacity:.1"/>
 <path d="m31.25 2.375c8.615 3.154 14.75 11.417 14.75 21.13 0 12.426-10.07 22.5-22.5 22.5-9.708 0-17.971-6.135-21.12-14.75a23 23 0 0 0 44.875-7 23 23 0 0 0-16-21.875z" style="opacity:.2"/>
 <path d="m24 1c12.703 0 23 10.297 23 23s-10.297 23-23 23-23-10.297-23-23 10.297-23 23-23z" style="fill:url(#bg)"/>
 <path d="m40.03 7.531c3.712 4.084 5.969 9.514 5.969 15.469 0 12.703-10.297 23-23 23-5.954 0-11.384-2.256-15.469-5.969 4.178 4.291 10.01 6.969 16.469 6.969 12.703 0 23-10.298 23-23 0-6.462-2.677-12.291-6.969-16.469z" style="opacity:.1"/>
 <path d="m22 13v3.2754c-0.73274-1.0706-1.6642-1.8224-2.8516-2.4941 0.82944 1.4236 1.3165 2.7694 1.457 4.1523-0.88327-0.93831-1.2659-1.7908-2.6875-2.0918-0.22929-0.7519-0.47882-1.4292-2.4727-1.5469-0.41372-0.57694-0.92306-0.71936-1.8691-0.55273l-0.57617 1.2578h2c0.59915 0.30513 0.93129 1.0111 1.3789 1.7109 2.4665 0.51927 2.4892 1.4049 2.9609 2.4023-9.74e-4 9.57e-4 -9.79e-4 0.0029-2e-3 0.0039l-2.1875-1.5391c0.21833 0.72378 0.28566 1.45 0.30859 2.1738-1.3628-0.85916-1.1681-2.381-1.7832-2.5352-0.36986-0.09373 0.07421 2.0824 0.74414 3.4414 0 0.15829-1.959-0.43555-1.959-0.43555 0.52201 0.83653 1.3926 1.5728 2.5508 1.7402-1.2398 1.9182-2.0117 4.0222-2.0117 6.0371 0 6.0751 3.9249 9 10 9 6.0751 0 12-4.9249 12-11s-2.9249-11-9-11c-1.3325 0-2.7029 0.34931-4.0352 0.93359-0.10418-0.96085-0.73781-1.9137-1.9648-2.9336z" style="opacity:.1;paint-order:normal"/>
 <path d="m36 25c0 6.0751-5.9249 11-12 11-6.0751 0-10-2.9249-10-9s6.9249-13 13-13c6.0751 0 9 4.9249 9 11z" style="fill:#ee480a;paint-order:normal"/>
 <path d="m21.191 16.01-3.1914 2.9902c0 1.6569 1.3431 3 3 3 1.6569 0 3.001-1.3431 3-3-9.4e-4 -1.5811-1.2307-2.8894-2.8086-2.9902z" style="fill:#fbd678;paint-order:normal"/>
 <path d="m22.363 16-4.1172 3.1699c-2.02 2.508-1.836 5.3908-1.543 8.0898 0.27-2.488 1.157-4.272 1.623-6.8691-0.438 3.785 0.35333 4.8688 1.1113 7.0918-0.086-3.059-0.1565-5.7243 0.5625-9.2793 4.9327-0.20366 7.4372-0.28377 10.535 1.1152-2.172-1.555-2.536-3.3184-8.1719-3.3184z" style="fill:#a91010"/>
 <path d="m21 12v3.2754c-0.73274-1.0706-1.6642-1.8224-2.8516-2.4941 0.82944 1.4236 1.3165 2.7694 1.457 4.1523-0.88327-0.93831-1.2659-1.7908-2.6875-2.0918-0.22929-0.7519-0.47882-1.4292-2.4727-1.5469-0.41372-0.57694-0.92306-0.71936-1.8691-0.55273l-0.57617 1.2578h2c0.59915 0.30513 0.93129 1.0111 1.3789 1.7109 2.4734 0.5207 2.4893 1.4094 2.9648 2.4102l-2.1934-1.543c0.21833 0.72378 0.28566 1.45 0.30859 2.1738-1.3628-0.85916-1.1681-2.381-1.7832-2.5352-0.36986-0.09373 0.07421 2.0824 0.74414 3.4414 0 0.15829-1.959-0.43555-1.959-0.43555 1.0326 1.6547 3.4255 2.9213 6.7207 0.15625 3.3303-2.7945 3.8184-4.8853 0.81836-7.3789z" style="fill:#093b0f;stroke-width:1.0189"/>
</svg>
