<svg version="1.1" viewBox="0 0 48 48" xmlns="http://www.w3.org/2000/svg">
 <defs>
  <linearGradient id="bg" x2="0" y1="1" y2="47" gradientUnits="userSpaceOnUse">
   <stop style="stop-color:#8ecce6" offset="0"/>
   <stop style="stop-color:#7ec5e3" offset="1"/>
  </linearGradient>
 </defs>
 <path d="m36.31 5c5.859 4.062 9.688 10.831 9.688 18.5 0 12.426-10.07 22.5-22.5 22.5-7.669 0-14.438-3.828-18.5-9.688 1.037 1.822 2.306 3.499 3.781 4.969 4.085 3.712 9.514 5.969 15.469 5.969 12.703 0 23-10.298 23-23 0-5.954-2.256-11.384-5.969-15.469-1.469-1.475-3.147-2.744-4.969-3.781zm4.969 3.781c3.854 4.113 6.219 9.637 6.219 15.719 0 12.703-10.297 23-23 23-6.081 0-11.606-2.364-15.719-6.219 4.16 4.144 9.883 6.719 16.219 6.719 12.703 0 23-10.298 23-23 0-6.335-2.575-12.06-6.719-16.219z" style="opacity:.05"/>
 <path d="m41.28 8.781c3.712 4.085 5.969 9.514 5.969 15.469 0 12.703-10.297 23-23 23-5.954 0-11.384-2.256-15.469-5.969 4.113 3.854 9.637 6.219 15.719 6.219 12.703 0 23-10.298 23-23 0-6.081-2.364-11.606-6.219-15.719z" style="opacity:.1"/>
 <path d="m31.25 2.375c8.615 3.154 14.75 11.417 14.75 21.13 0 12.426-10.07 22.5-22.5 22.5-9.708 0-17.971-6.135-21.12-14.75a23 23 0 0 0 44.875-7 23 23 0 0 0-16-21.875z" style="opacity:.2"/>
 <circle cx="24" cy="24" r="23" style="fill:url(#bg)"/>
 <path d="m40.03 7.531c3.712 4.084 5.969 9.514 5.969 15.469 0 12.703-10.297 23-23 23-5.954 0-11.384-2.256-15.469-5.969 4.178 4.291 10.01 6.969 16.469 6.969 12.703 0 23-10.298 23-23 0-6.462-2.677-12.291-6.969-16.469z" style="opacity:.1"/>
 <path d="m14 35c0 1.662 1.338 3 3 3h14c1.662 0 3-1.338 3-3v-7.8711l3.7051-3.7051c0.39301-0.39301 0.39301-1.0269 0-1.4199l-0.70898-0.70898c-0.19651-0.19651-0.45253-0.29492-0.70898-0.29492l-2.2871 1.8711v-7.8711c0-1.662-1.338-3-3-3z" style="opacity:.1"/>
 <path d="m33 14-10-2-10 2v20c0 1.662 1.338 3 3 3h1l0.5-0.5 0.5 0.5h12c1.662 0 3-1.338 3-3z" style="fill:#f8d95e"/>
 <path d="m13 17v1h20v-1zm0 4v1h20v-1zm0 4v1h20v-1zm0 4v1h20v-1zm0 4v1h20v-1z" style="opacity:.2"/>
 <path d="m16 11c-1.662 0-3 1.338-3 3h4v23h1v-23h15c0-1.662-1.338-3-3-3z" style="fill:#b4715b"/>
 <path d="m33.868 21.004 0.70941-0.70941c0.39301-0.39301 1.0258-0.39301 1.4188 0l0.70941 0.70941c0.39301 0.39301 0.39301 1.0258 0 1.4188l-0.70941 0.70941-1.7735-0.3547z" style="fill:#f16066"/>
 <path d="m33.158 21.714 0.70941-0.70941 2.1282 2.1282-0.70941 0.70941-1.7735-0.3547z" style="fill:#e3e3e3"/>
 <path d="m33 23.871-5.2266 5.2266-1.7734 3.9023 3.9023-1.7734 3.0977-3.0977z" style="opacity:.1"/>
 <path d="m26.774 28.098 6.3847-6.3847 2.1282 2.1282-6.3847 6.3847-1.7735-0.3547z" style="fill:#6d6b75"/>
 <path d="m26.774 28.098-0.88676 1.9509-0.17735 1.2415 1.2415-0.17735 1.9509-0.88676z" style="fill:#f7e1b5"/>
 <path d="m25.887 30.049-0.88676 1.9509 1.9509-0.88676z" style="fill:#5c5c5c"/>
</svg>
