<svg version="1.1" viewBox="0 0 48 48" xmlns="http://www.w3.org/2000/svg">
 <defs>
  <linearGradient id="bg" x2="0" y1="1" y2="47" gradientUnits="userSpaceOnUse">
   <stop style="stop-color:#60e6ba" offset="0"/>
   <stop style="stop-color:#4fe3b2" offset="1"/>
  </linearGradient>
 </defs>
 <path d="m36.3 5c5.86 4.06 9.69 10.8 9.69 18.5 0 12.4-10.1 22.5-22.5 22.5-7.67 0-14.4-3.83-18.5-9.69 1.04 1.82 2.31 3.5 3.78 4.97 4.08 3.71 9.51 5.97 15.5 5.97 12.7 0 23-10.3 23-23 0-5.95-2.26-11.4-5.97-15.5-1.47-1.48-3.15-2.74-4.97-3.78zm4.97 3.78c3.85 4.11 6.22 9.64 6.22 15.7 0 12.7-10.3 23-23 23-6.08 0-11.6-2.36-15.7-6.22 4.16 4.14 9.88 6.72 16.2 6.72 12.7 0 23-10.3 23-23 0-6.34-2.58-12.1-6.72-16.2z" style="opacity:.05"/>
 <path d="m41.3 8.78c3.71 4.08 5.97 9.51 5.97 15.5 0 12.7-10.3 23-23 23-5.95 0-11.4-2.26-15.5-5.97 4.11 3.85 9.64 6.22 15.7 6.22 12.7 0 23-10.3 23-23 0-6.08-2.36-11.6-6.22-15.7z" style="opacity:.1"/>
 <path d="m31.2 2.38c8.62 3.15 14.8 11.4 14.8 21.1 0 12.4-10.1 22.5-22.5 22.5-9.71 0-18-6.14-21.1-14.8a23 23 0 0044.9-7 23 23 0 00-16-21.9z" style="opacity:.2"/>
 <circle cx="24" cy="24" r="23" style="fill:url(#bg)"/>
 <path d="m40 7.53c3.71 4.08 5.97 9.51 5.97 15.5 0 12.7-10.3 23-23 23-5.95 0-11.4-2.26-15.5-5.97 4.18 4.29 10 6.97 16.5 6.97 12.7 0 23-10.3 23-23 0-6.46-2.68-12.3-6.97-16.5z" style="opacity:.1"/>
 <path d="m18 14v4l-6 2v14h26v-14c0-1.11-.892-2-2-2h-4v-2c0-1.11-.892-2-2-2zm2 2h10v2h-10z" style="opacity:.1"/>
 <path d="m19 13c-1.11 0-2 .892-2 2v5h2v-5h10v5h2v-5c0-1.11-.892-2-2-2z" style="fill:#545454"/>
 <path d="m13 17c-1.11 0-2 .892-2 2v14h26v-14c0-1.11-.892-2-2-2z" style="fill:#f0565c"/>
 <path d="m13 17c-1.11 0-2 .892-2 2v4h26v-4c0-1.11-.892-2-2-2z" style="opacity:.15"/>
 <path d="m24 20-5 5v2h1.11l-.0625 2.54 1.41 1.41.781-.781c.533.349 1.13.593 1.75.719v1.11h2v-1.11c.625-.126 1.22-.37 1.75-.719l.781.781 1.41-1.41-.781-.781c.349-.533.593-1.13.719-1.75h1.11v-2h-1.1c-.127-.627-.374-1.22-.727-1.76l.777-.777-1.41-1.41-.777.777-1.76-.727v-1.1zm1 3c1.66 0 3 1.34 3 3s-1.34 3-3 3-3-1.34-3-3 1.34-3 3-3z" style="opacity:.1"/>
 <path d="m23 19v1.11a5 5 0 00-1.75.719l-.781-.781-1.41 1.41.781.781a5 5 0 00-.719 1.75h-1.11v2h1.11a5 5 0 00.719 1.75l-.781.781 1.41 1.41.781-.781a5 5 0 001.75.719v1.11h2v-1.11a5 5 0 001.75-.719l.781.781 1.41-1.41-.781-.781a5 5 0 00.719-1.75h1.11v-2h-1.1a5 5 0 00-.727-1.76l.777-.777-1.41-1.41-.777.777a5 5 0 00-1.76-.727v-1.1h-2zm1 3a3 3 0 013 3 3 3 0 01-3 3 3 3 0 01-3-3 3 3 0 013-3z" style="fill:#e5e5e5"/>
</svg>
