<svg version="1.1" viewBox="0 0 48 48" xmlns="http://www.w3.org/2000/svg">
 <defs>
  <linearGradient id="bg" x2="0" y1="1" y2="47" gradientUnits="userSpaceOnUse">
   <stop style="stop-color:#e0d9e8" offset="0"/>
   <stop style="stop-color:#d6cce0" offset="1"/>
  </linearGradient>
 </defs>
 <path d="m36.3 5c5.86 4.06 9.69 10.8 9.69 18.5 0 12.4-10.1 22.5-22.5 22.5-7.67 0-14.4-3.83-18.5-9.69 1.04 1.82 2.31 3.5 3.78 4.97 4.08 3.71 9.51 5.97 15.5 5.97 12.7 0 23-10.3 23-23 0-5.95-2.26-11.4-5.97-15.5-1.47-1.48-3.15-2.74-4.97-3.78zm4.97 3.78c3.85 4.11 6.22 9.64 6.22 15.7 0 12.7-10.3 23-23 23-6.08 0-11.6-2.36-15.7-6.22 4.16 4.14 9.88 6.72 16.2 6.72 12.7 0 23-10.3 23-23 0-6.34-2.58-12.1-6.72-16.2z" style="opacity:.05"/>
 <path d="m41.3 8.78c3.71 4.08 5.97 9.51 5.97 15.5 0 12.7-10.3 23-23 23-5.95 0-11.4-2.26-15.5-5.97 4.11 3.85 9.64 6.22 15.7 6.22 12.7 0 23-10.3 23-23 0-6.08-2.36-11.6-6.22-15.7z" style="opacity:.1"/>
 <path d="m31.2 2.38c8.62 3.15 14.8 11.4 14.8 21.1 0 12.4-10.1 22.5-22.5 22.5-9.71 0-18-6.14-21.1-14.8a23 23 0 0 0 44.9-7 23 23 0 0 0-16-21.9z" style="opacity:.2"/>
 <circle cx="24" cy="24" r="23" style="fill:url(#bg)"/>
 <path d="m40 7.53c3.71 4.08 5.97 9.51 5.97 15.5 0 12.7-10.3 23-23 23-5.95 0-11.4-2.26-15.5-5.97 4.18 4.29 10 6.97 16.5 6.97 12.7 0 23-10.3 23-23 0-6.46-2.68-12.3-6.97-16.5z" style="opacity:.1"/>
 <path d="m23 10v3.17c-0.745 0.126-1.48 0.322-2.18 0.586l-1.58-2.74-3.46 2 1.58 2.74c-0.582 0.481-1.12 1.02-1.6 1.6l-2.74-1.58-2 3.46 2.74 1.58c-0.264 0.708-0.46 1.44-0.586 2.18h-3.17v4h3.17c0.126 0.745 0.322 1.48 0.586 2.18l-2.74 1.58 2 3.46 2.74-1.58c0.481 0.582 1.02 1.12 1.6 1.6l-1.58 2.74 3.46 2 1.58-2.74c0.708 0.264 1.44 0.46 2.18 0.586v3.17h4v-3.17c0.745-0.126 1.48-0.322 2.18-0.586l1.58 2.74 3.46-2-1.58-2.74c0.582-0.481 1.12-1.02 1.6-1.6l2.74 1.58 2-3.46-2.74-1.58c0.264-0.708 0.46-1.44 0.586-2.18h3.17v-4h-3.17c-0.126-0.745-0.322-1.48-0.586-2.18l2.74-1.58-2-3.46-2.74 1.58c-0.481-0.582-1.02-1.12-1.6-1.6l1.58-2.74-3.46-2-1.58 2.74c-0.708-0.264-1.44-0.46-2.18-0.586v-3.17z" style="opacity:.1"/>
 <path d="m22 9v3.17c-0.745 0.126-1.48 0.322-2.18 0.586l-1.58-2.74-3.46 2 1.58 2.74c-0.582 0.481-1.12 1.02-1.6 1.6l-2.74-1.58-2 3.46 2.74 1.58c-0.264 0.708-0.46 1.44-0.586 2.18h-3.17v4h3.17c0.126 0.745 0.322 1.48 0.586 2.18l-2.74 1.58 2 3.46 2.74-1.58c0.481 0.582 1.02 1.12 1.6 1.6l-1.58 2.74 3.46 2 1.58-2.74c0.708 0.264 1.44 0.46 2.18 0.586v3.17h4v-3.17c0.745-0.126 1.48-0.322 2.18-0.586l1.58 2.74 3.46-2-1.58-2.74c0.582-0.481 1.12-1.02 1.6-1.6l2.74 1.58 2-3.46-2.74-1.58c0.264-0.708 0.46-1.44 0.586-2.18h3.17v-4h-3.17c-0.126-0.745-0.322-1.48-0.586-2.18l2.74-1.58-2-3.46-2.74 1.58c-0.481-0.582-1.02-1.12-1.6-1.6l1.58-2.74-3.46-2-1.58 2.74c-0.708-0.264-1.44-0.46-2.18-0.586v-3.17z" style="fill:#8f8f8f"/>
 <circle cx="25" cy="25" r="9" style="opacity:.1"/>
 <circle cx="24" cy="24" r="9" style="fill:#f9f9f9"/>
 <path d="m24 16c-4.42 0-8 3.58-8 8 1e-3 1.7 0.545 3.34 1.55 4.71-0.351-0.834-0.547-1.75-0.547-2.71 0-3.85 3.16-7 7-7 0.276 0 0.5 0.224 0.5 0.5s-0.224 0.5-0.5 0.5c-3.31 0-6 2.69-6 6s2.69 6 6 6c1.35-1e-3 2.67-0.347 3.85-1h-3.85c-2.76 0-5-2.24-5-5s2.24-5 5-5c0.291 0 0.584 0.01 0.867 0.076 0.801 0.186 0.613 1.16-0.174 0.988-0.227-0.05-0.461-0.064-0.693-0.064-2.21-1e-3 -4 1.79-4 4s1.79 4 4 4h5.28c0.348-0.305 0.669-0.64 0.959-1h-6.24c-1.66 0-3-1.34-3-3s1.34-3 3-3c0.526 0 1.06 0.12 1.5 0.404 0.596 0.382 0.074 1.2-0.498 0.865-0.302-0.178-0.649-0.269-1-0.27-1.1 0-2 0.895-2 2s0.895 2 2 2h6.92c0.705-1.22 1.08-2.6 1.08-4 2e-3 -4.42-3.58-8-8-8z" style="fill:#7c55aa"/>
</svg>
