<svg version="1.1" viewBox="0 0 48 48" xmlns="http://www.w3.org/2000/svg">
 <defs>
  <linearGradient id="linearGradient3764" x1="1" x2="47" gradientTransform="matrix(0 -1 1 0 -1.5e-6 48)" gradientUnits="userSpaceOnUse">
   <stop style="stop-color:#08982b" offset="0"/>
   <stop style="stop-color:#09ab30" offset="1"/>
  </linearGradient>
 </defs>
 <path d="m36.31 5c5.859 4.062 9.688 10.831 9.688 18.5 0 12.426-10.07 22.5-22.5 22.5-7.669 0-14.438-3.828-18.5-9.688 1.037 1.822 2.306 3.499 3.781 4.969 4.085 3.712 9.514 5.969 15.469 5.969 12.703 0 23-10.298 23-23 0-5.954-2.256-11.384-5.969-15.469-1.469-1.475-3.147-2.744-4.969-3.781zm4.969 3.781c3.854 4.113 6.219 9.637 6.219 15.719 0 12.703-10.297 23-23 23-6.081 0-11.606-2.364-15.719-6.219 4.16 4.144 9.883 6.719 16.219 6.719 12.703 0 23-10.298 23-23 0-6.335-2.575-12.06-6.719-16.219z" style="opacity:.05"/>
 <path d="m41.28 8.781c3.712 4.085 5.969 9.514 5.969 15.469 0 12.703-10.297 23-23 23-5.954 0-11.384-2.256-15.469-5.969 4.113 3.854 9.637 6.219 15.719 6.219 12.703 0 23-10.298 23-23 0-6.081-2.364-11.606-6.219-15.719z" style="opacity:.1"/>
 <path d="m31.25 2.375c8.615 3.154 14.75 11.417 14.75 21.13 0 12.426-10.07 22.5-22.5 22.5-9.708 0-17.971-6.135-21.12-14.75a23 23 0 0 0 44.875 -7 23 23 0 0 0 -16 -21.875z" style="opacity:.2"/>
 <path d="m24 1c12.703 0 23 10.297 23 23s-10.297 23-23 23-23-10.297-23-23 10.297-23 23-23z" style="fill:url(#linearGradient3764)"/>
 <path d="m14.875 12c-0.492 0-0.875 0.383-0.875 0.875v24.25c0 0.492 0.383 0.875 0.875 0.875h20.25c0.492 0 0.875-0.383 0.875-0.875v-19.12l-6-6z" style="opacity:.1"/>
 <g transform="scale(3.5433)">
  <path transform="scale(.28222)" d="m13.875 10.998c-0.493 0-0.875 0.382-0.875 0.875v24.25c0 0.493 0.382 0.877 0.875 0.877h20.25c0.493 0 0.875-0.384 0.875-0.877v-19.12l-5.998-6h-15.13z" style="fill:#e8e8d9"/>
  <path d="m8.184 3.104v1.693h1.693" style="fill:#fff"/>
  <path d="m9.878 6.491v-1.693h-1.693" style="fill-opacity:.2"/>
 </g>
 <path d="m24 18c-4.418 0-8 3.582-8 8 1e-3 1.695 0.545 3.345 1.547 4.713-0.351-0.834-0.547-1.751-0.547-2.713 0-3.854 3.159-7 7-7 0.276 0 0.5 0.224 0.5 0.5s-0.224 0.5-0.5 0.5c-3.314 0-6 2.686-6 6s2.686 6 6 6c1.348-1e-3 2.674-0.347 3.854-1h-3.854c-2.761 0-5-2.239-5-5s2.239-5 5-5c0.291 0 0.584 0.01 0.867 0.076 0.801 0.186 0.613 1.163-0.174 0.988-0.227-0.05-0.461-0.064-0.693-0.064-2.209-1e-3 -4 1.791-4 4s1.791 4 4 4h5.277c0.348-0.305 0.669-0.64 0.959-1h-6.236c-1.657 0-3-1.343-3-3s1.343-3 3-3c0.526 0 1.055 0.12 1.498 0.404 0.596 0.382 0.074 1.203-0.498 0.865-0.302-0.178-0.649-0.269-1-0.27-1.105 0-2 0.895-2 2s0.895 2 2 2h6.92c0.705-1.215 1.079-2.595 1.08-4 2e-3 -4.418-3.582-8-8-8z" style="fill:#808080"/>
 <path d="m40.03 7.531c3.712 4.084 5.969 9.514 5.969 15.469 0 12.703-10.297 23-23 23-5.954 0-11.384-2.256-15.469-5.969 4.178 4.291 10.01 6.969 16.469 6.969 12.703 0 23-10.298 23-23 0-6.462-2.677-12.291-6.969-16.469z" style="opacity:.1"/>
</svg>
