<svg version="1.1" viewBox="0 0 48 48" xmlns="http://www.w3.org/2000/svg">
 <defs>
  <linearGradient id="bg" x2="0" y1="1" y2="47" gradientUnits="userSpaceOnUse">
   <stop style="stop-color:#e0b1f5" offset="0"/>
   <stop style="stop-color:#d89ff2" offset="1"/>
  </linearGradient>
  <linearGradient id="linearGradient838" x1="10" x2="25" y1="23" y2="9" gradientUnits="userSpaceOnUse">
   <stop style="stop-color:#6b4794" offset="0"/>
   <stop style="stop-color:#6b4794;stop-opacity:0" offset="1"/>
  </linearGradient>
  <linearGradient id="linearGradient845" x1="10" x2="25" y1="23" y2="9" gradientTransform="translate(1,1)" gradientUnits="userSpaceOnUse">
   <stop style="stop-opacity:.098" offset="0"/>
   <stop style="stop-opacity:0" offset="1"/>
  </linearGradient>
 </defs>
 <path d="m36.3 5c5.86 4.06 9.69 10.8 9.69 18.5 0 12.4-10.1 22.5-22.5 22.5-7.67 0-14.4-3.83-18.5-9.69 1.04 1.82 2.31 3.5 3.78 4.97 4.08 3.71 9.51 5.97 15.5 5.97 12.7 0 23-10.3 23-23 0-5.95-2.26-11.4-5.97-15.5-1.47-1.48-3.15-2.74-4.97-3.78zm4.97 3.78c3.85 4.11 6.22 9.64 6.22 15.7 0 12.7-10.3 23-23 23-6.08 0-11.6-2.36-15.7-6.22 4.16 4.14 9.88 6.72 16.2 6.72 12.7 0 23-10.3 23-23 0-6.34-2.58-12.1-6.72-16.2z" style="opacity:.05"/>
 <path d="m41.3 8.78c3.71 4.08 5.97 9.51 5.97 15.5 0 12.7-10.3 23-23 23-5.95 0-11.4-2.26-15.5-5.97 4.11 3.85 9.64 6.22 15.7 6.22 12.7 0 23-10.3 23-23 0-6.08-2.36-11.6-6.22-15.7z" style="opacity:.1"/>
 <path d="m31.2 2.38c8.62 3.15 14.8 11.4 14.8 21.1 0 12.4-10.1 22.5-22.5 22.5-9.71 0-18-6.14-21.1-14.8a23 23 0 0 0 44.9-7 23 23 0 0 0-16-21.9z" style="opacity:.2"/>
 <circle cx="24" cy="24" r="23" style="fill:url(#bg)"/>
 <path d="m40 7.53c3.71 4.08 5.97 9.51 5.97 15.5 0 12.7-10.3 23-23 23-5.95 0-11.4-2.26-15.5-5.97 4.18 4.29 10 6.97 16.5 6.97 12.7 0 23-10.3 23-23 0-6.46-2.68-12.3-6.97-16.5z" style="opacity:.1"/>
 <path d="m26 9c-9.33 0-16 7.55-16 16h2c0-7.73 6.27-14 14-14 0.552 0 1-0.448 1-1s-0.448-1-1-1z" style="fill:url(#linearGradient845);paint-order:normal"/>
 <path d="m26 13c-6.63 0-12 5.37-12 12 0 6.08 4.92 11 11 11 5.52 0 10-4.48 10-10 0-4.97-4.03-9-9-9-4.42 0-8 3.58-8 8 0 3.87 3.13 7 7 7 3.31 0 6-2.69 6-6 0-2.76-2.24-5-5-5-2.21 0-4 1.79-4 4 0 1.66 1.34 3 3 3 1.1 0 2-0.895 2-2s-0.895-2-2-2c0.552 0 1 0.448 1 1s-0.448 1-1 1-1-0.448-1-1c0-1.1 0.895-2 2-2 1.66 0 3 1.34 3 3 0 2.21-1.79 4-4 4-2.76 0-5-2.24-5-5 0-3.31 2.69-6 6-6 3.87 0 7 3.13 7 7 0 4.42-3.58 8-8 8-4.97 0-9-4.03-9-9 0-5.52 4.48-10 10-10 6.08 0 11 4.92 11 11 0 6.63-5.37 12-12 12-7.18 0-13-5.82-13-13h-2c0 8.28 6.72 15 15 15 7.73 0 14-6.27 14-14 0-7.18-5.82-13-13-13z" style="opacity:.1;paint-order:normal"/>
 <path d="m25 12c-6.63 0-12 5.37-12 12 0 6.08 4.92 11 11 11 5.52 0 10-4.48 10-10 0-4.97-4.03-9-9-9-4.42 0-8 3.58-8 8 0 3.87 3.13 7 7 7 3.31 0 6-2.69 6-6 0-2.76-2.24-5-5-5-2.21 0-4 1.79-4 4 0 1.66 1.34 3 3 3 1.1 0 2-0.895 2-2s-0.895-2-2-2c0.552 0 1 0.448 1 1s-0.448 1-1 1-1-0.448-1-1c0-1.1 0.895-2 2-2 1.66 0 3 1.34 3 3 0 2.21-1.79 4-4 4-2.76 0-5-2.24-5-5 0-3.31 2.69-6 6-6 3.87 0 7 3.13 7 7 0 4.42-3.58 8-8 8-4.97 0-9-4.03-9-9 0-5.52 4.48-10 10-10 6.08 0 11 4.92 11 11 0 6.63-5.37 12-12 12-7.18 0-13-5.82-13-13l-1-0.5-1 0.5c0 8.28 6.72 15 15 15 7.73 0 14-6.27 14-14 0-7.18-5.82-13-13-13z" style="fill:#6b4794;paint-order:normal"/>
 <path d="m25 8c-9.33 0-16 7.55-16 16h2c0-7.73 6.27-14 14-14 0.552 0 1-0.448 1-1s-0.448-1-1-1z" style="fill:url(#linearGradient838);paint-order:normal"/>
</svg>
