<svg version="1.1" viewBox="0 0 48 48" xmlns="http://www.w3.org/2000/svg">
 <defs>
  <linearGradient id="bg" x2="0" y1="1" y2="47" gradientUnits="userSpaceOnUse">
   <stop style="stop-color:#8f8f89" offset="0"/>
   <stop style="stop-color:#85857f" offset="1"/>
  </linearGradient>
 </defs>
 <path d="m36.3 5c5.86 4.06 9.69 10.8 9.69 18.5 0 12.4-10.1 22.5-22.5 22.5-7.67 0-14.4-3.83-18.5-9.69 1.04 1.82 2.31 3.5 3.78 4.97 4.08 3.71 9.51 5.97 15.5 5.97 12.7 0 23-10.3 23-23 0-5.95-2.26-11.4-5.97-15.5-1.47-1.48-3.15-2.74-4.97-3.78zm4.97 3.78c3.85 4.11 6.22 9.64 6.22 15.7 0 12.7-10.3 23-23 23-6.08 0-11.6-2.36-15.7-6.22 4.16 4.14 9.88 6.72 16.2 6.72 12.7 0 23-10.3 23-23 0-6.34-2.58-12.1-6.72-16.2z" style="opacity:.05"/>
 <path d="m41.3 8.78c3.71 4.08 5.97 9.51 5.97 15.5 0 12.7-10.3 23-23 23-5.95 0-11.4-2.26-15.5-5.97 4.11 3.85 9.64 6.22 15.7 6.22 12.7 0 23-10.3 23-23 0-6.08-2.36-11.6-6.22-15.7z" style="opacity:.1"/>
 <path d="m31.2 2.38c8.62 3.15 14.8 11.4 14.8 21.1 0 12.4-10.1 22.5-22.5 22.5-9.71 0-18-6.14-21.1-14.8a23 23 0 0 0 44.9-7 23 23 0 0 0-16-21.9z" style="opacity:.2"/>
 <circle cx="24" cy="24" r="23" style="fill:url(#bg)"/>
 <path d="m40 7.53c3.71 4.08 5.97 9.51 5.97 15.5 0 12.7-10.3 23-23 23-5.95 0-11.4-2.26-15.5-5.97 4.18 4.29 10 6.97 16.5 6.97 12.7 0 23-10.3 23-23 0-6.46-2.68-12.3-6.97-16.5z" style="opacity:.1"/>
 <path d="m35 13c1.11 0 2 0.892 2 2v20c0 1.11-0.892 2-2 2h-20c-1.11 0-2-0.892-2-2z" style="opacity:.1"/>
 <path d="m14 12h20c1.11 0 2 0.892 2 2v20c0 1.11-0.892 2-2 2h-20c-1.11 0-2-0.892-2-2v-20c0-1.11 0.892-2 2-2z" style="fill:#f9f9f9"/>
 <path d="m15 16c-0.554 0-1 0.446-1 1s0.446 1 1 1h2v7c0 0.554 0.446 1 1 1s1-0.446 1-1v-7h1.18c-0.199 0.559-0.237 1.18-0.0762 1.78 0.35 1.31 1.55 2.22 2.9 2.22 0.457 0 0.848 0.298 0.967 0.74 0.118 0.442-0.0706 0.896-0.467 1.12-0.396 0.229-0.884 0.165-1.21-0.158-0.391-0.39-1.02-0.39-1.41 0-0.39 0.391-0.39 1.02 0 1.41 0.478 0.478 1.09 0.767 1.73 0.852 0.639 0.0842 1.3-0.0368 1.89-0.375 1.17-0.676 1.75-2.07 1.4-3.38-0.35-1.31-1.55-2.22-2.9-2.22-0.457 0-0.848-0.298-0.967-0.74-0.118-0.442 0.0706-0.896 0.467-1.12 0.396-0.229 0.884-0.165 1.21 0.158 0.391 0.39 1.02 0.39 1.41 0 0.39-0.391 0.39-1.02 0-1.41-0.478-0.478-1.09-0.767-1.73-0.852-0.13-0.0171-0.391-0.0293-0.391-0.0293z" style="fill:#545454"/>
 <path d="m29 14c-0.554 0-1 0.446-1 1v1c0 0.554 0.446 1 1 1s1-0.446 1-1v-1c0-0.554-0.446-1-1-1zm0 5c-0.554 0-1 0.446-1 1v1c0 0.554 0.446 1 1 1s1-0.446 1-1v-1c0-0.554-0.446-1-1-1zm0 5c-0.554 0-1 0.446-1 1v1c0 0.554 0.446 1 1 1s1-0.446 1-1v-1c0-0.554-0.446-1-1-1zm-14 4c-0.554 0-1 0.446-1 1s0.446 1 1 1h1c0.554 0 1-0.446 1-1s-0.446-1-1-1h-1zm5 0c-0.554 0-1 0.446-1 1s0.446 1 1 1h1c0.554 0 1-0.446 1-1s-0.446-1-1-1h-1zm5 0c-0.554 0-1 0.446-1 1s0.446 1 1 1h1c0.554 0 1-0.446 1-1s-0.446-1-1-1h-1zm7 0c-0.554 0-1 0.446-1 1s0.446 1 1 1h1c0.554 0 1-0.446 1-1s-0.446-1-1-1h-1zm-3 3c-0.554 0-1 0.446-1 1v1c0 0.554 0.446 1 1 1s1-0.446 1-1v-1c0-0.554-0.446-1-1-1z" style="fill-opacity:.298"/>
</svg>
