<svg version="1.1" viewBox="0 0 48 48" xmlns="http://www.w3.org/2000/svg">
 <defs>
  <linearGradient id="bg" x2="0" y1="1" y2="47" gradientUnits="userSpaceOnUse">
   <stop style="stop-color:#afd1da" offset="0"/>
   <stop style="stop-color:#a1c9d3" offset="1"/>
  </linearGradient>
 </defs>
 <path d="m36.3 5c5.86 4.06 9.69 10.8 9.69 18.5 0 12.4-10.1 22.5-22.5 22.5-7.67 0-14.4-3.83-18.5-9.69 1.04 1.82 2.31 3.5 3.78 4.97 4.08 3.71 9.51 5.97 15.5 5.97 12.7 0 23-10.3 23-23 0-5.95-2.26-11.4-5.97-15.5-1.47-1.48-3.15-2.74-4.97-3.78zm4.97 3.78c3.85 4.11 6.22 9.64 6.22 15.7 0 12.7-10.3 23-23 23-6.08 0-11.6-2.36-15.7-6.22 4.16 4.14 9.88 6.72 16.2 6.72 12.7 0 23-10.3 23-23 0-6.34-2.58-12.1-6.72-16.2z" style="opacity:.05"/>
 <path d="m41.3 8.78c3.71 4.08 5.97 9.51 5.97 15.5 0 12.7-10.3 23-23 23-5.95 0-11.4-2.26-15.5-5.97 4.11 3.85 9.64 6.22 15.7 6.22 12.7 0 23-10.3 23-23 0-6.08-2.36-11.6-6.22-15.7z" style="opacity:.1"/>
 <path d="m31.2 2.38c8.62 3.15 14.8 11.4 14.8 21.1 0 12.4-10.1 22.5-22.5 22.5-9.71 0-18-6.14-21.1-14.8a23 23 0 0044.9-7 23 23 0 00-16-21.9z" style="opacity:.2"/>
 <circle cx="24" cy="24" r="23" style="fill:url(#bg)"/>
 <path d="m40 7.53c3.71 4.08 5.97 9.51 5.97 15.5 0 12.7-10.3 23-23 23-5.95 0-11.4-2.26-15.5-5.97 4.18 4.29 10 6.97 16.5 6.97 12.7 0 23-10.3 23-23 0-6.46-2.68-12.3-6.97-16.5z" style="opacity:.1"/>
 <path d="m32.1 12c-1.42-.017-5.47.402-8.31 5.34-1.6 2.77-.335 5.59.963 6.34l2.75-4.77c1.5-2.6 3.61-4.27 3.61-4.27s-.384 2.67-1.88 5.27l-2.75 4.77c1.3.751 4.46.269 5.96-2.33 3.5-6.07.17-10.3.17-10.3 0 0-.186-.0273-.514-.0312zm-13.1 8c-7 0-9 5-9 5s2 5 9 5c3.19 0 5-2.5 5-4h-5.5c-3 0-5.5-1-5.5-1s2.5-1 5.5-1h5.5c0-1.5-2-4-5-4zm8.71 5c-.502.0197-.943.131-1.27.318l2.75 4.77c1.5 2.6 1.88 5.27 1.88 5.27s-2.11-1.67-3.61-4.27l-2.75-4.77c-1.3.751-2.56 3.57-.963 6.34 3.5 6.07 8.82 5.3 8.82 5.3 1e-6 0 3.33-4.24-.17-10.3-1.12-1.95-3.18-2.71-4.69-2.65z" style="opacity:.1"/>
 <path d="m18 19c-7 0-9 5-9 5s2 5 9 5c3.19 0 5-2.5 5-4h-5.5c-3 0-5.5-1-5.5-1s2.5-1 5.5-1h5.5c0-1.5-2-4-5-4z" style="fill:#e47b19"/>
 <path d="m31.4 21.3c3.5-6.07.17-10.3.17-10.3s-5.33-.769-8.82 5.3c-1.6 2.77-.335 5.59.963 6.34l2.75-4.77c1.5-2.6 3.61-4.27 3.61-4.27s-.384 2.67-1.88 5.27l-2.75 4.77c1.3.751 4.46.268 5.96-2.33z" style="fill:#3faf2c"/>
 <path d="m31.4 26.7c3.5 6.07.17 10.3.17 10.3s-5.33.769-8.82-5.3c-1.6-2.77-.335-5.59.963-6.34l2.75 4.77c1.5 2.6 3.61 4.27 3.61 4.27s-.384-2.67-1.88-5.27l-2.75-4.77c1.3-.751 4.46-.268 5.96 2.33z" style="fill:#e54743"/>
</svg>
