<svg xmlns="http://www.w3.org/2000/svg" viewBox="0 0 48 48">
 <defs>
  <linearGradient id="linearGradient3764" x1="1" x2="47" gradientUnits="userSpaceOnUse" gradientTransform="matrix(0,-1,1,0,-1.5e-6,47.999998)">
   <stop style="stop-color:#ecb200;stop-opacity:1"/>
   <stop offset="1" style="stop-color:#ffbf00;stop-opacity:1"/>
  </linearGradient>
 </defs>
 <g>
  <path d="m 36.31 5 c 5.859 4.062 9.688 10.831 9.688 18.5 c 0 12.426 -10.07 22.5 -22.5 22.5 c -7.669 0 -14.438 -3.828 -18.5 -9.688 c 1.037 1.822 2.306 3.499 3.781 4.969 c 4.085 3.712 9.514 5.969 15.469 5.969 c 12.703 0 23 -10.298 23 -23 c 0 -5.954 -2.256 -11.384 -5.969 -15.469 c -1.469 -1.475 -3.147 -2.744 -4.969 -3.781 z m 4.969 3.781 c 3.854 4.113 6.219 9.637 6.219 15.719 c 0 12.703 -10.297 23 -23 23 c -6.081 0 -11.606 -2.364 -15.719 -6.219 c 4.16 4.144 9.883 6.719 16.219 6.719 c 12.703 0 23 -10.298 23 -23 c 0 -6.335 -2.575 -12.06 -6.719 -16.219 z" style="opacity:0.05"/>
  <path d="m 41.28 8.781 c 3.712 4.085 5.969 9.514 5.969 15.469 c 0 12.703 -10.297 23 -23 23 c -5.954 0 -11.384 -2.256 -15.469 -5.969 c 4.113 3.854 9.637 6.219 15.719 6.219 c 12.703 0 23 -10.298 23 -23 c 0 -6.081 -2.364 -11.606 -6.219 -15.719 z" style="opacity:0.1"/>
  <path d="m 31.25 2.375 c 8.615 3.154 14.75 11.417 14.75 21.13 c 0 12.426 -10.07 22.5 -22.5 22.5 c -9.708 0 -17.971 -6.135 -21.12 -14.75 a 23 23 0 0 0 44.875 -7 a 23 23 0 0 0 -16 -21.875 z" style="opacity:0.2"/>
 </g>
 <g>
  <path d="m 24 1 c 12.703 0 23 10.297 23 23 c 0 12.703 -10.297 23 -23 23 -12.703 0 -23 -10.297 -23 -23 0 -12.703 10.297 -23 23 -23 z" style="fill:url(#linearGradient3764);fill-opacity:1"/>
 </g>
 <g>
  <g>
   <g transform="translate(1,1)">
    <g style="opacity:0.1">
     <!-- color: #ffbf00 -->
     <g>
      <path d="m 28.11 35.68 c -2.84 -0.766 -5.01 -2.391 -6.223 -4.66 c -0.613 -1.145 -0.691 -1.559 -0.695 -3.695 c -0.004 -2.715 0.23 -2.441 -2.418 -2.785 c -1.652 -0.211 -4.074 -1.41 -5.516 -2.727 c -3.824 -3.5 -2.629 -8.484 2.281 -9.516 c 3.336 -0.699 6.277 -0.086 8.08 1.684 c 1.734 1.699 2.145 3.633 1.355 6.555 c -0.211 0.781 -0.379 1.527 -0.379 1.66 c 0 0.133 0.711 0.238 1.578 0.242 c 4.684 0.012 8.441 1.879 10.03 4.984 c 1.301 2.547 0.992 4.957 -0.863 6.773 c -1.727 1.695 -4.426 2.246 -7.234 1.488 m 5.285 -3.582 c 1.316 -0.66 1.926 -1.727 1.742 -3.066 c -0.074 -0.543 -0.316 -1.16 -0.531 -1.375 c -0.363 -0.355 -0.398 -0.34 -0.398 0.18 c 0 0.316 -0.172 0.93 -0.383 1.363 c -1.203 2.484 -6.105 2.25 -7.879 -0.379 c -0.598 -0.883 -0.641 -1.117 -0.5 -2.719 l 0.148 -1.758 l -0.777 0.152 c -0.43 0.082 -0.949 0.152 -1.16 0.152 c -0.566 0 -0.27 3.32 0.414 4.637 c 1.559 2.992 6.184 4.383 9.332 2.809 m -1.273 -5.02 c 1.195 -1.168 -2.051 -3.988 -3.359 -2.918 c -1.172 0.949 0.297 3.211 2.078 3.211 c 0.539 0 1.117 -0.133 1.281 -0.297 m -9.102 -5.84 c 0.199 -0.586 0.305 -1.121 0.234 -1.191 c -0.07 -0.066 -0.598 0 -1.176 0.152 c -3.328 0.879 -7.73 -3.121 -6.309 -5.723 c 0.398 -0.73 0.156 -0.793 -0.645 -0.176 c -3.02 2.332 -0.246 6.625 5.02 7.766 c 2.215 0.477 2.449 0.414 2.871 -0.828 m -0.07 -4.41 c 0.566 -0.559 0.301 -1.523 -0.66 -2.391 c -0.629 -0.57 -0.957 -0.691 -1.816 -0.621 c -0.887 0.063 -1.09 0.18 -1.293 0.754 c -0.59 1.648 2.504 3.492 3.77 2.254 m 0 0.004" style="fill:#000;fill-opacity:1;stroke:none;fill-rule:nonzero"/>
     </g>
    </g>
   </g>
  </g>
 </g>
 <g>
  <g>
   <!-- color: #ffbf00 -->
   <g>
    <path d="m 28.11 35.68 c -2.84 -0.766 -5.01 -2.391 -6.223 -4.66 c -0.613 -1.145 -0.691 -1.559 -0.695 -3.695 c -0.004 -2.715 0.23 -2.441 -2.418 -2.785 c -1.652 -0.211 -4.074 -1.41 -5.516 -2.727 c -3.824 -3.5 -2.629 -8.484 2.281 -9.516 c 3.336 -0.699 6.277 -0.086 8.08 1.684 c 1.734 1.699 2.145 3.633 1.355 6.555 c -0.211 0.781 -0.379 1.527 -0.379 1.66 c 0 0.133 0.711 0.238 1.578 0.242 c 4.684 0.012 8.441 1.879 10.03 4.984 c 1.301 2.547 0.992 4.957 -0.863 6.773 c -1.727 1.695 -4.426 2.246 -7.234 1.488 m 5.285 -3.582 c 1.316 -0.66 1.926 -1.727 1.742 -3.066 c -0.074 -0.543 -0.316 -1.16 -0.531 -1.375 c -0.363 -0.355 -0.398 -0.34 -0.398 0.18 c 0 0.316 -0.172 0.93 -0.383 1.363 c -1.203 2.484 -6.105 2.25 -7.879 -0.379 c -0.598 -0.883 -0.641 -1.117 -0.5 -2.719 l 0.148 -1.758 l -0.777 0.152 c -0.43 0.082 -0.949 0.152 -1.16 0.152 c -0.566 0 -0.27 3.32 0.414 4.637 c 1.559 2.992 6.184 4.383 9.332 2.809 m -1.273 -5.02 c 1.195 -1.168 -2.051 -3.988 -3.359 -2.918 c -1.172 0.949 0.297 3.211 2.078 3.211 c 0.539 0 1.117 -0.133 1.281 -0.297 m -9.102 -5.84 c 0.199 -0.586 0.305 -1.121 0.234 -1.191 c -0.07 -0.066 -0.598 0 -1.176 0.152 c -3.328 0.879 -7.73 -3.121 -6.309 -5.723 c 0.398 -0.73 0.156 -0.793 -0.645 -0.176 c -3.02 2.332 -0.246 6.625 5.02 7.766 c 2.215 0.477 2.449 0.414 2.871 -0.828 m -0.07 -4.41 c 0.566 -0.559 0.301 -1.523 -0.66 -2.391 c -0.629 -0.57 -0.957 -0.691 -1.816 -0.621 c -0.887 0.063 -1.09 0.18 -1.293 0.754 c -0.59 1.648 2.504 3.492 3.77 2.254 m 0 0.004" style="fill:#0253a9;fill-opacity:1;stroke:none;fill-rule:nonzero"/>
   </g>
  </g>
 </g>
 <g>
  <path d="m 40.03 7.531 c 3.712 4.084 5.969 9.514 5.969 15.469 0 12.703 -10.297 23 -23 23 c -5.954 0 -11.384 -2.256 -15.469 -5.969 4.178 4.291 10.01 6.969 16.469 6.969 c 12.703 0 23 -10.298 23 -23 0 -6.462 -2.677 -12.291 -6.969 -16.469 z" style="opacity:0.1"/>
 </g>
</svg>
