<svg version="1.1" viewBox="0 0 48 48" xmlns="http://www.w3.org/2000/svg">
 <defs>
  <linearGradient id="bg" x1="1" x2="47" gradientTransform="matrix(0 -1 1 0 -1.5e-6 48)" gradientUnits="userSpaceOnUse">
   <stop style="stop-color:#484cac" offset="0"/>
   <stop style="stop-color:#5256b7" offset="1"/>
  </linearGradient>
 </defs>
 <path d="m36.31 5c5.859 4.062 9.688 10.831 9.688 18.5 0 12.426-10.07 22.5-22.5 22.5-7.669 0-14.438-3.828-18.5-9.688 1.037 1.822 2.306 3.499 3.781 4.969 4.085 3.712 9.514 5.969 15.469 5.969 12.703 0 23-10.298 23-23 0-5.954-2.256-11.384-5.969-15.469-1.469-1.475-3.147-2.744-4.969-3.781zm4.969 3.781c3.854 4.113 6.219 9.637 6.219 15.719 0 12.703-10.297 23-23 23-6.081 0-11.606-2.364-15.719-6.219 4.16 4.144 9.883 6.719 16.219 6.719 12.703 0 23-10.298 23-23 0-6.335-2.575-12.06-6.719-16.219z" style="opacity:.05"/>
 <path d="m41.28 8.781c3.712 4.085 5.969 9.514 5.969 15.469 0 12.703-10.297 23-23 23-5.954 0-11.384-2.256-15.469-5.969 4.113 3.854 9.637 6.219 15.719 6.219 12.703 0 23-10.298 23-23 0-6.081-2.364-11.606-6.219-15.719z" style="opacity:.1"/>
 <path d="m31.25 2.375c8.615 3.154 14.75 11.417 14.75 21.13 0 12.426-10.07 22.5-22.5 22.5-9.708 0-17.971-6.135-21.12-14.75a23 23 0 0 0 44.875-7 23 23 0 0 0-16-21.875z" style="opacity:.2"/>
 <path d="m24 1c12.703 0 23 10.297 23 23s-10.297 23-23 23-23-10.297-23-23 10.297-23 23-23z" style="fill:url(#bg)"/>
 <g transform="translate(1,1)" style="opacity:.1">
  <path d="m36 34.29c0 0.949-0.77 1.715-1.715 1.715-0.949 0-1.719-0.766-1.719-1.715s0.77-1.715 1.719-1.715c0.945 0 1.715 0.766 1.715 1.715"/>
  <path d="m32.57 34.29c0 0.949-0.77 1.715-1.715 1.715-0.949 0-1.715-0.766-1.715-1.715s0.766-1.715 1.715-1.715c0.945 0 1.715 0.766 1.715 1.715"/>
  <path d="m29.14 34.29c0 0.949-0.77 1.715-1.719 1.715-0.945 0-1.715-0.766-1.715-1.715s0.77-1.715 1.715-1.715c0.949 0 1.719 0.766 1.719 1.715"/>
  <path d="m25.715 34.29c0 0.949-0.77 1.715-1.715 1.715-0.949 0-1.719-0.766-1.719-1.715s0.77-1.715 1.719-1.715c0.945 0 1.715 0.766 1.715 1.715"/>
  <path d="m22.285 34.29c0 0.949-0.766 1.715-1.715 1.715s-1.715-0.766-1.715-1.715 0.766-1.715 1.715-1.715 1.715 0.766 1.715 1.715"/>
  <path d="m18.859 34.29c0 0.949-0.77 1.715-1.719 1.715-0.945 0-1.715-0.766-1.715-1.715s0.77-1.715 1.715-1.715c0.949 0 1.719 0.766 1.719 1.715"/>
  <path d="m15.43 34.29c0 0.949-0.77 1.715-1.715 1.715-0.949 0-1.715-0.766-1.715-1.715s0.766-1.715 1.715-1.715c0.945 0 1.715 0.766 1.715 1.715"/>
  <path d="m36 30.855c0 0.949-0.77 1.719-1.715 1.719-0.949 0-1.719-0.77-1.719-1.719 0-0.945 0.77-1.715 1.719-1.715 0.945 0 1.715 0.77 1.715 1.715"/>
  <path d="m32.57 30.855c0 0.949-0.77 1.719-1.715 1.719-0.949 0-1.715-0.77-1.715-1.719 0-0.945 0.766-1.715 1.715-1.715 0.945 0 1.715 0.77 1.715 1.715"/>
  <path d="m29.14 30.855c0 0.949-0.77 1.719-1.719 1.719-0.945 0-1.715-0.77-1.715-1.719 0-0.945 0.77-1.715 1.715-1.715 0.949 0 1.719 0.77 1.719 1.715"/>
  <path d="m25.715 30.855c0 0.949-0.77 1.719-1.715 1.719-0.949 0-1.719-0.77-1.719-1.719 0-0.945 0.77-1.715 1.719-1.715 0.945 0 1.715 0.77 1.715 1.715"/>
  <path d="m22.285 30.855c0 0.949-0.766 1.719-1.715 1.719s-1.715-0.77-1.715-1.719c0-0.945 0.766-1.715 1.715-1.715s1.715 0.77 1.715 1.715"/>
  <path d="m18.859 30.855c0 0.949-0.77 1.719-1.719 1.719-0.945 0-1.715-0.77-1.715-1.719 0-0.945 0.77-1.715 1.715-1.715 0.949 0 1.719 0.77 1.719 1.715"/>
  <path d="m15.43 30.855c0 0.949-0.77 1.719-1.715 1.719-0.949 0-1.715-0.77-1.715-1.719 0-0.945 0.766-1.715 1.715-1.715 0.945 0 1.715 0.77 1.715 1.715"/>
  <path d="m36 27.43c0 0.945-0.77 1.715-1.715 1.715-0.949 0-1.719-0.77-1.719-1.715 0-0.949 0.77-1.719 1.719-1.719 0.945 0 1.715 0.77 1.715 1.719"/>
  <path d="m32.57 27.43c0 0.945-0.77 1.715-1.715 1.715-0.949 0-1.715-0.77-1.715-1.715 0-0.949 0.766-1.719 1.715-1.719 0.945 0 1.715 0.77 1.715 1.719"/>
  <path d="m29.14 27.43c0 0.945-0.77 1.715-1.719 1.715-0.945 0-1.715-0.77-1.715-1.715 0-0.949 0.77-1.719 1.715-1.719 0.949 0 1.719 0.77 1.719 1.719"/>
  <path d="m25.715 27.43c0 0.945-0.77 1.715-1.715 1.715-0.949 0-1.719-0.77-1.719-1.715 0-0.949 0.77-1.719 1.719-1.719 0.945 0 1.715 0.77 1.715 1.719"/>
  <path d="m22.285 27.43c0 0.945-0.766 1.715-1.715 1.715s-1.715-0.77-1.715-1.715c0-0.949 0.766-1.719 1.715-1.719s1.715 0.77 1.715 1.719"/>
  <path d="m18.859 27.43c0 0.945-0.77 1.715-1.719 1.715-0.945 0-1.715-0.77-1.715-1.715 0-0.949 0.77-1.719 1.715-1.719 0.949 0 1.719 0.77 1.719 1.719"/>
  <path d="m15.43 27.43c0 0.945-0.77 1.715-1.715 1.715-0.949 0-1.715-0.77-1.715-1.715 0-0.949 0.766-1.719 1.715-1.719 0.945 0 1.715 0.77 1.715 1.719"/>
  <path d="m36 24c0 0.945-0.77 1.715-1.715 1.715-0.949 0-1.719-0.77-1.719-1.715 0-0.949 0.77-1.715 1.719-1.715 0.945 0 1.715 0.766 1.715 1.715"/>
  <path d="m32.57 24c0 0.945-0.77 1.715-1.715 1.715-0.949 0-1.715-0.77-1.715-1.715 0-0.949 0.766-1.715 1.715-1.715 0.945 0 1.715 0.766 1.715 1.715"/>
  <path d="m29.14 24c0 0.945-0.77 1.715-1.719 1.715-0.945 0-1.715-0.77-1.715-1.715 0-0.949 0.77-1.715 1.715-1.715 0.949 0 1.719 0.766 1.719 1.715"/>
  <path d="m25.715 24c0 0.945-0.77 1.715-1.715 1.715-0.949 0-1.719-0.77-1.719-1.715 0-0.949 0.77-1.715 1.719-1.715 0.945 0 1.715 0.766 1.715 1.715"/>
  <path d="m22.285 24c0 0.945-0.766 1.715-1.715 1.715s-1.715-0.77-1.715-1.715c0-0.949 0.766-1.715 1.715-1.715s1.715 0.766 1.715 1.715"/>
  <path d="m18.859 24c0 0.945-0.77 1.715-1.719 1.715-0.945 0-1.715-0.77-1.715-1.715 0-0.949 0.77-1.715 1.715-1.715 0.949 0 1.719 0.766 1.719 1.715"/>
  <path d="m15.43 24c0 0.945-0.77 1.715-1.715 1.715-0.949 0-1.715-0.77-1.715-1.715 0-0.949 0.766-1.715 1.715-1.715 0.945 0 1.715 0.766 1.715 1.715"/>
  <path d="m36 20.57c0 0.949-0.77 1.715-1.715 1.715-0.949 0-1.719-0.766-1.719-1.715s0.77-1.715 1.719-1.715c0.945 0 1.715 0.766 1.715 1.715"/>
  <path d="m32.57 20.57c0 0.949-0.77 1.715-1.715 1.715-0.949 0-1.715-0.766-1.715-1.715s0.766-1.715 1.715-1.715c0.945 0 1.715 0.766 1.715 1.715"/>
  <path d="m29.14 20.57c0 0.949-0.77 1.715-1.719 1.715-0.945 0-1.715-0.766-1.715-1.715s0.77-1.715 1.715-1.715c0.949 0 1.719 0.766 1.719 1.715"/>
  <path d="m25.715 20.57c0 0.949-0.77 1.715-1.715 1.715-0.949 0-1.719-0.766-1.719-1.715s0.77-1.715 1.719-1.715c0.945 0 1.715 0.766 1.715 1.715"/>
  <path d="m22.285 20.57c0 0.949-0.766 1.715-1.715 1.715s-1.715-0.766-1.715-1.715 0.766-1.715 1.715-1.715 1.715 0.766 1.715 1.715"/>
  <path d="m18.859 20.57c0 0.949-0.77 1.715-1.719 1.715-0.945 0-1.715-0.766-1.715-1.715s0.77-1.715 1.715-1.715c0.949 0 1.719 0.766 1.719 1.715"/>
  <path d="m15.43 20.57c0 0.949-0.77 1.715-1.715 1.715-0.949 0-1.715-0.766-1.715-1.715s0.766-1.715 1.715-1.715c0.945 0 1.715 0.766 1.715 1.715"/>
  <path d="m36 17.14c0 0.949-0.77 1.719-1.715 1.719-0.949 0-1.719-0.77-1.719-1.719 0-0.945 0.77-1.715 1.719-1.715 0.945 0 1.715 0.77 1.715 1.715"/>
  <path d="m32.57 17.14c0 0.949-0.77 1.719-1.715 1.719-0.949 0-1.715-0.77-1.715-1.719 0-0.945 0.766-1.715 1.715-1.715 0.945 0 1.715 0.77 1.715 1.715"/>
  <path d="m29.14 17.14c0 0.949-0.77 1.719-1.719 1.719-0.945 0-1.715-0.77-1.715-1.719 0-0.945 0.77-1.715 1.715-1.715 0.949 0 1.719 0.77 1.719 1.715"/>
  <path d="m25.715 17.14c0 0.949-0.77 1.719-1.715 1.719-0.949 0-1.719-0.77-1.719-1.719 0-0.945 0.77-1.715 1.719-1.715 0.945 0 1.715 0.77 1.715 1.715"/>
  <path d="m22.285 17.14c0 0.949-0.766 1.719-1.715 1.719s-1.715-0.77-1.715-1.719c0-0.945 0.766-1.715 1.715-1.715s1.715 0.77 1.715 1.715"/>
  <path d="m18.859 17.14c0 0.949-0.77 1.719-1.719 1.719-0.945 0-1.715-0.77-1.715-1.719 0-0.945 0.77-1.715 1.715-1.715 0.949 0 1.719 0.77 1.719 1.715"/>
  <path d="m15.43 17.14c0 0.949-0.77 1.719-1.715 1.719-0.949 0-1.715-0.77-1.715-1.719 0-0.945 0.766-1.715 1.715-1.715 0.945 0 1.715 0.77 1.715 1.715"/>
  <path d="m36 13.715c0 0.945-0.77 1.715-1.715 1.715-0.949 0-1.719-0.77-1.719-1.715 0-0.949 0.77-1.719 1.719-1.719 0.945 0 1.715 0.77 1.715 1.719"/>
  <path d="m32.57 13.715c0 0.945-0.77 1.715-1.715 1.715-0.949 0-1.715-0.77-1.715-1.715 0-0.949 0.766-1.719 1.715-1.719 0.945 0 1.715 0.77 1.715 1.719"/>
  <path d="m29.14 13.715c0 0.945-0.77 1.715-1.719 1.715-0.945 0-1.715-0.77-1.715-1.715 0-0.949 0.77-1.719 1.715-1.719 0.949 0 1.719 0.77 1.719 1.719"/>
  <path d="m25.715 13.715c0 0.945-0.77 1.715-1.715 1.715-0.949 0-1.719-0.77-1.719-1.715 0-0.949 0.77-1.719 1.719-1.719 0.945 0 1.715 0.77 1.715 1.719"/>
  <path d="m22.285 13.715c0 0.945-0.766 1.715-1.715 1.715s-1.715-0.77-1.715-1.715c0-0.949 0.766-1.719 1.715-1.719s1.715 0.77 1.715 1.719"/>
  <path d="m18.859 13.715c0 0.945-0.77 1.715-1.719 1.715-0.945 0-1.715-0.77-1.715-1.715 0-0.949 0.77-1.719 1.715-1.719 0.949 0 1.719 0.77 1.719 1.719"/>
  <path d="m15.43 13.715c0 0.945-0.77 1.715-1.715 1.715-0.949 0-1.715-0.77-1.715-1.715 0-0.949 0.766-1.719 1.715-1.719 0.945 0 1.715 0.77 1.715 1.719"/>
 </g>
 <path d="m36 34.29c0 0.949-0.77 1.715-1.715 1.715-0.949 0-1.719-0.766-1.719-1.715s0.77-1.715 1.719-1.715c0.945 0 1.715 0.766 1.715 1.715" style="fill:#9da2dc"/>
 <path d="m32.57 34.29c0 0.949-0.77 1.715-1.715 1.715-0.949 0-1.715-0.766-1.715-1.715s0.766-1.715 1.715-1.715c0.945 0 1.715 0.766 1.715 1.715" style="fill:#9da2dc"/>
 <path d="m29.14 34.29c0 0.949-0.77 1.715-1.719 1.715-0.945 0-1.715-0.766-1.715-1.715s0.77-1.715 1.715-1.715c0.949 0 1.719 0.766 1.719 1.715" style="fill:#9da2dc"/>
 <path d="m25.715 34.29c0 0.949-0.77 1.715-1.715 1.715-0.949 0-1.719-0.766-1.719-1.715s0.77-1.715 1.719-1.715c0.945 0 1.715 0.766 1.715 1.715" style="fill:#f9f9f9"/>
 <path d="m22.285 34.29c0 0.949-0.766 1.715-1.715 1.715s-1.715-0.766-1.715-1.715 0.766-1.715 1.715-1.715 1.715 0.766 1.715 1.715" style="fill:#f9f9f9"/>
 <path d="m18.859 34.29c0 0.949-0.77 1.715-1.719 1.715-0.945 0-1.715-0.766-1.715-1.715s0.77-1.715 1.715-1.715c0.949 0 1.719 0.766 1.719 1.715" style="fill:#9da2dc"/>
 <path d="m15.43 34.29c0 0.949-0.77 1.715-1.715 1.715-0.949 0-1.715-0.766-1.715-1.715s0.766-1.715 1.715-1.715c0.945 0 1.715 0.766 1.715 1.715" style="fill:#9da2dc"/>
 <path d="m36 30.855c0 0.949-0.77 1.719-1.715 1.719-0.949 0-1.719-0.77-1.719-1.719 0-0.945 0.77-1.715 1.719-1.715 0.945 0 1.715 0.77 1.715 1.715" style="fill:#9da2dc"/>
 <path d="m32.57 30.855c0 0.949-0.77 1.719-1.715 1.719-0.949 0-1.715-0.77-1.715-1.719 0-0.945 0.766-1.715 1.715-1.715 0.945 0 1.715 0.77 1.715 1.715" style="fill:#9da2dc"/>
 <path d="m29.14 30.855c0 0.949-0.77 1.719-1.719 1.719-0.945 0-1.715-0.77-1.715-1.719 0-0.945 0.77-1.715 1.715-1.715 0.949 0 1.719 0.77 1.719 1.715" style="fill:#9da2dc"/>
 <path d="m25.715 30.855c0 0.949-0.77 1.719-1.715 1.719-0.949 0-1.719-0.77-1.719-1.719 0-0.945 0.77-1.715 1.719-1.715 0.945 0 1.715 0.77 1.715 1.715" style="fill:#f9f9f9"/>
 <path d="m22.285 30.855c0 0.949-0.766 1.719-1.715 1.719s-1.715-0.77-1.715-1.719c0-0.945 0.766-1.715 1.715-1.715s1.715 0.77 1.715 1.715" style="fill:#9da2dc"/>
 <path d="m18.859 30.855c0 0.949-0.77 1.719-1.719 1.719-0.945 0-1.715-0.77-1.715-1.719 0-0.945 0.77-1.715 1.715-1.715 0.949 0 1.719 0.77 1.719 1.715" style="fill:#9da2dc"/>
 <path d="m15.43 30.855c0 0.949-0.77 1.719-1.715 1.719-0.949 0-1.715-0.77-1.715-1.719 0-0.945 0.766-1.715 1.715-1.715 0.945 0 1.715 0.77 1.715 1.715" style="fill:#9da2dc"/>
 <path d="m36 27.43c0 0.945-0.77 1.715-1.715 1.715-0.949 0-1.719-0.77-1.719-1.715 0-0.949 0.77-1.719 1.719-1.719 0.945 0 1.715 0.77 1.715 1.719" style="fill:#9da2dc"/>
 <path d="m32.57 27.43c0 0.945-0.77 1.715-1.715 1.715-0.949 0-1.715-0.77-1.715-1.715 0-0.949 0.766-1.719 1.715-1.719 0.945 0 1.715 0.77 1.715 1.719" style="fill:#9da2dc"/>
 <path d="m29.14 27.43c0 0.945-0.77 1.715-1.719 1.715-0.945 0-1.715-0.77-1.715-1.715 0-0.949 0.77-1.719 1.715-1.719 0.949 0 1.719 0.77 1.719 1.719" style="fill:#9da2dc"/>
 <path d="m25.715 27.43c0 0.945-0.77 1.715-1.715 1.715-0.949 0-1.719-0.77-1.719-1.715 0-0.949 0.77-1.719 1.719-1.719 0.945 0 1.715 0.77 1.715 1.719" style="fill:#f9f9f9"/>
 <path d="m22.285 27.43c0 0.945-0.766 1.715-1.715 1.715s-1.715-0.77-1.715-1.715c0-0.949 0.766-1.719 1.715-1.719s1.715 0.77 1.715 1.719" style="fill:#9da2dc"/>
 <path d="m18.859 27.43c0 0.945-0.77 1.715-1.719 1.715-0.945 0-1.715-0.77-1.715-1.715 0-0.949 0.77-1.719 1.715-1.719 0.949 0 1.719 0.77 1.719 1.719" style="fill:#9da2dc"/>
 <path d="m15.43 27.43c0 0.945-0.77 1.715-1.715 1.715-0.949 0-1.715-0.77-1.715-1.715 0-0.949 0.766-1.719 1.715-1.719 0.945 0 1.715 0.77 1.715 1.719" style="fill:#9da2dc"/>
 <path d="m36 24c0 0.945-0.77 1.715-1.715 1.715-0.949 0-1.719-0.77-1.719-1.715 0-0.949 0.77-1.715 1.719-1.715 0.945 0 1.715 0.766 1.715 1.715" style="fill:#9da2dc"/>
 <path d="m32.57 24c0 0.945-0.77 1.715-1.715 1.715-0.949 0-1.715-0.77-1.715-1.715 0-0.949 0.766-1.715 1.715-1.715 0.945 0 1.715 0.766 1.715 1.715" style="fill:#9da2dc"/>
 <path d="m29.14 24c0 0.945-0.77 1.715-1.719 1.715-0.945 0-1.715-0.77-1.715-1.715 0-0.949 0.77-1.715 1.715-1.715 0.949 0 1.719 0.766 1.719 1.715" style="fill:#9da2dc"/>
 <path d="m25.715 24c0 0.945-0.77 1.715-1.715 1.715-0.949 0-1.719-0.77-1.719-1.715 0-0.949 0.77-1.715 1.719-1.715 0.945 0 1.715 0.766 1.715 1.715" style="fill:#f9f9f9"/>
 <path d="m22.285 24c0 0.945-0.766 1.715-1.715 1.715s-1.715-0.77-1.715-1.715c0-0.949 0.766-1.715 1.715-1.715s1.715 0.766 1.715 1.715" style="fill:#9da2dc"/>
 <path d="m18.859 24c0 0.945-0.77 1.715-1.719 1.715-0.945 0-1.715-0.77-1.715-1.715 0-0.949 0.77-1.715 1.715-1.715 0.949 0 1.719 0.766 1.719 1.715" style="fill:#9da2dc"/>
 <path d="m15.43 24c0 0.945-0.77 1.715-1.715 1.715-0.949 0-1.715-0.77-1.715-1.715 0-0.949 0.766-1.715 1.715-1.715 0.945 0 1.715 0.766 1.715 1.715" style="fill:#9da2dc"/>
 <path d="m36 20.57c0 0.949-0.77 1.715-1.715 1.715-0.949 0-1.719-0.766-1.719-1.715s0.77-1.715 1.719-1.715c0.945 0 1.715 0.766 1.715 1.715" style="fill:#9da2dc"/>
 <path d="m32.57 20.57c0 0.949-0.77 1.715-1.715 1.715-0.949 0-1.715-0.766-1.715-1.715s0.766-1.715 1.715-1.715c0.945 0 1.715 0.766 1.715 1.715" style="fill:#9da2dc"/>
 <path d="m29.14 20.57c0 0.949-0.77 1.715-1.719 1.715-0.945 0-1.715-0.766-1.715-1.715s0.77-1.715 1.715-1.715c0.949 0 1.719 0.766 1.719 1.715" style="fill:#f9f9f9"/>
 <path d="m25.715 20.57c0 0.949-0.77 1.715-1.715 1.715-0.949 0-1.719-0.766-1.719-1.715s0.77-1.715 1.719-1.715c0.945 0 1.715 0.766 1.715 1.715" style="fill:#f9f9f9"/>
 <path d="m22.285 20.57c0 0.949-0.766 1.715-1.715 1.715s-1.715-0.766-1.715-1.715 0.766-1.715 1.715-1.715 1.715 0.766 1.715 1.715" style="fill:#f9f9f9"/>
 <path d="m18.859 20.57c0 0.949-0.77 1.715-1.719 1.715-0.945 0-1.715-0.766-1.715-1.715s0.77-1.715 1.715-1.715c0.949 0 1.719 0.766 1.719 1.715" style="fill:#9da2dc"/>
 <path d="m15.43 20.57c0 0.949-0.77 1.715-1.715 1.715-0.949 0-1.715-0.766-1.715-1.715s0.766-1.715 1.715-1.715c0.945 0 1.715 0.766 1.715 1.715" style="fill:#9da2dc"/>
 <path d="m36 17.14c0 0.949-0.77 1.719-1.715 1.719-0.949 0-1.719-0.77-1.719-1.719 0-0.945 0.77-1.715 1.719-1.715 0.945 0 1.715 0.77 1.715 1.715" style="fill:#9da2dc"/>
 <path d="m32.57 17.14c0 0.949-0.77 1.719-1.715 1.719-0.949 0-1.715-0.77-1.715-1.719 0-0.945 0.766-1.715 1.715-1.715 0.945 0 1.715 0.77 1.715 1.715" style="fill:#f9f9f9"/>
 <path d="m29.14 17.14c0 0.949-0.77 1.719-1.719 1.719-0.945 0-1.715-0.77-1.715-1.719 0-0.945 0.77-1.715 1.715-1.715 0.949 0 1.719 0.77 1.719 1.715" style="fill:#9da2dc"/>
 <path d="m25.715 17.14c0 0.949-0.77 1.719-1.715 1.719-0.949 0-1.719-0.77-1.719-1.719 0-0.945 0.77-1.715 1.719-1.715 0.945 0 1.715 0.77 1.715 1.715" style="fill:#9da2dc"/>
 <path d="m22.285 17.14c0 0.949-0.766 1.719-1.715 1.719s-1.715-0.77-1.715-1.719c0-0.945 0.766-1.715 1.715-1.715s1.715 0.77 1.715 1.715" style="fill:#9da2dc"/>
 <path d="m18.859 17.14c0 0.949-0.77 1.719-1.719 1.719-0.945 0-1.715-0.77-1.715-1.719 0-0.945 0.77-1.715 1.715-1.715 0.949 0 1.719 0.77 1.719 1.715" style="fill:#f9f9f9"/>
 <path d="m15.43 17.14c0 0.949-0.77 1.719-1.715 1.719-0.949 0-1.715-0.77-1.715-1.719 0-0.945 0.766-1.715 1.715-1.715 0.945 0 1.715 0.77 1.715 1.715" style="fill:#9da2dc"/>
 <path d="m36 13.715c0 0.945-0.77 1.715-1.715 1.715-0.949 0-1.719-0.77-1.719-1.715 0-0.949 0.77-1.719 1.719-1.719 0.945 0 1.715 0.77 1.715 1.719" style="fill:#9da2dc"/>
 <path d="m32.57 13.715c0 0.945-0.77 1.715-1.715 1.715-0.949 0-1.715-0.77-1.715-1.715 0-0.949 0.766-1.719 1.715-1.719 0.945 0 1.715 0.77 1.715 1.719" style="fill:#9da2dc"/>
 <path d="m29.14 13.715c0 0.945-0.77 1.715-1.719 1.715-0.945 0-1.715-0.77-1.715-1.715 0-0.949 0.77-1.719 1.715-1.719 0.949 0 1.719 0.77 1.719 1.719" style="fill:#f9f9f9"/>
 <path d="m25.715 13.715c0 0.945-0.77 1.715-1.715 1.715-0.949 0-1.719-0.77-1.719-1.715 0-0.949 0.77-1.719 1.719-1.719 0.945 0 1.715 0.77 1.715 1.719" style="fill:#f9f9f9"/>
 <path d="m22.285 13.715c0 0.945-0.766 1.715-1.715 1.715s-1.715-0.77-1.715-1.715c0-0.949 0.766-1.719 1.715-1.719s1.715 0.77 1.715 1.719" style="fill:#f9f9f9"/>
 <path d="m18.859 13.715c0 0.945-0.77 1.715-1.719 1.715-0.945 0-1.715-0.77-1.715-1.715 0-0.949 0.77-1.719 1.715-1.719 0.949 0 1.719 0.77 1.719 1.719" style="fill:#9da2dc"/>
 <path d="m15.43 13.715c0 0.945-0.77 1.715-1.715 1.715-0.949 0-1.715-0.77-1.715-1.715 0-0.949 0.766-1.719 1.715-1.719 0.945 0 1.715 0.77 1.715 1.719" style="fill:#9da2dc"/>
 <path d="m40.03 7.531c3.712 4.084 5.969 9.514 5.969 15.469 0 12.703-10.297 23-23 23-5.954 0-11.384-2.256-15.469-5.969 4.178 4.291 10.01 6.969 16.469 6.969 12.703 0 23-10.298 23-23 0-6.462-2.677-12.291-6.969-16.469z" style="opacity:.1"/>
</svg>
