<svg version="1.1" viewBox="0 0 48 48" xmlns="http://www.w3.org/2000/svg">
 <defs>
  <linearGradient id="bg" x2="0" y1="1" y2="47" gradientUnits="userSpaceOnUse">
   <stop style="stop-color:#474747" offset="0"/>
   <stop style="stop-color:#3d3d3d" offset="1"/>
  </linearGradient>
 </defs>
 <path d="m36.31 5c5.859 4.062 9.688 10.831 9.688 18.5 0 12.426-10.07 22.5-22.5 22.5-7.669 0-14.438-3.828-18.5-9.688 1.037 1.822 2.306 3.499 3.781 4.969 4.085 3.712 9.514 5.969 15.469 5.969 12.703 0 23-10.298 23-23 0-5.954-2.256-11.384-5.969-15.469-1.469-1.475-3.147-2.744-4.969-3.781zm4.969 3.781c3.854 4.113 6.219 9.637 6.219 15.719 0 12.703-10.297 23-23 23-6.081 0-11.606-2.364-15.719-6.219 4.16 4.144 9.883 6.719 16.219 6.719 12.703 0 23-10.298 23-23 0-6.335-2.575-12.06-6.719-16.219z" style="opacity:.05"/>
 <path d="m41.28 8.781c3.712 4.085 5.969 9.514 5.969 15.469 0 12.703-10.297 23-23 23-5.954 0-11.384-2.256-15.469-5.969 4.113 3.854 9.637 6.219 15.719 6.219 12.703 0 23-10.298 23-23 0-6.081-2.364-11.606-6.219-15.719z" style="opacity:.1"/>
 <path d="m31.25 2.375c8.615 3.154 14.75 11.417 14.75 21.13 0 12.426-10.07 22.5-22.5 22.5-9.708 0-17.971-6.135-21.12-14.75a23 23 0 0 0 44.875-7 23 23 0 0 0-16-21.875z" style="opacity:.2"/>
 <circle cx="24" cy="24" r="23" style="fill:url(#bg)"/>
 <path d="m40.03 7.531c3.712 4.084 5.969 9.514 5.969 15.469 0 12.703-10.297 23-23 23-5.954 0-11.384-2.256-15.469-5.969 4.178 4.291 10.01 6.969 16.469 6.969 12.703 0 23-10.298 23-23 0-6.462-2.677-12.291-6.969-16.469z" style="opacity:.1"/>
 <path d="m26 14c-1.1046 0-2.0002 0.89542-2 2 1.34e-4 0.71096 0.37809 1.3683 0.99219 1.7266-0.0058 3.8562-0.10953 8.2735-1.9922 8.2735-1.9441 0-4.7073-5.2751-5.4258-7.7695 0.2752-0.35118 0.42557-0.78431 0.42576-1.2305 5.19e-4 -1.1046-0.89542-2-2-2-1.1046 0-2 0.89544-2 2 0 1.1046 0.89542 2 2 2 0.91037 3.0868 4 7 4 11 0 1 1.9e-5 2-1 2-1 0-3-1-3-1 0-1.1046-0.89544-2-2-2-1.1046 0-2 0.89544-2 2 0 1.1046 0.91529 1.7915 2 2 4.9442 0.95007 9 3.0053 12 3 3-0.0058 3.6164-0.46495 6.1387-4.6074 1.6849-2.7672 2.9465-4.5247 3.8652-5.3926 1.103-0.0019 1.9961-0.89696 1.9961-2 0-1.1046-0.89542-2-2-2-1.1046 0-2.0005 0.89542-2 2 7.7e-5 0.15392 0.01922 0.30729 0.05477 0.45703-1.2613 2.0555-3.3395 3.543-5.0547 3.543-1 0-2-1-2-6v-4.2715c0.6177-0.35662 0.99949-1.0152 0.99999-1.7285 7.69e-4 -1.1046-0.89544-2-2-2z" style="opacity:.1"/>
 <path d="m25 13c-1.1046 0-2.0002 0.89542-2 2 1.34e-4 0.71096 0.37809 1.3683 0.99219 1.7266-0.0058 3.8562-0.10953 8.2735-1.9922 8.2735-1.9441 0-4.7073-5.2751-5.4258-7.7695 0.2752-0.35118 0.42557-0.78431 0.42576-1.2305 5.19e-4 -1.1046-0.89542-2-2-2-1.1046 0-2 0.89544-2 2 0 1.1046 0.89542 2 2 2 0.91037 3.0868 4 7 4 11 0 1 1.9e-5 2-1 2-1 0-3-1-3-1 0-1.1046-0.89544-2-2-2-1.1046 0-2 0.89544-2 2 0 1.1046 0.91529 1.7915 2 2 4.9442 0.95007 9 3.0053 12 3 3-0.0058 3.6164-0.46495 6.1387-4.6074 1.6849-2.7672 2.9465-4.5247 3.8652-5.3926 1.103-0.0019 1.9961-0.89696 1.9961-2 0-1.1046-0.89542-2-2-2-1.1046 0-2.0005 0.89542-2 2 7.7e-5 0.15392 0.01922 0.30729 0.05477 0.45703-1.2613 2.0555-3.3395 3.543-5.0547 3.543-1 0-2-1-2-6v-4.2715c0.6177-0.35662 0.99949-1.0152 0.99999-1.7285 7.69e-4 -1.1046-0.89544-2-2-2z" style="fill:#f9f9f9"/>
</svg>
