<svg version="1.1" viewBox="0 0 48 48" xmlns="http://www.w3.org/2000/svg">
 <defs>
  <linearGradient id="bg" x1="1" x2="47" gradientTransform="matrix(0 -1 1 0 -1.5e-6 48)" gradientUnits="userSpaceOnUse">
   <stop style="stop-color:#dbdbdb" offset="0"/>
   <stop style="stop-color:#e5e5e5" offset="1"/>
  </linearGradient>
 </defs>
 <path d="m36.31 5c5.859 4.062 9.688 10.831 9.688 18.5 0 12.426-10.07 22.5-22.5 22.5-7.669 0-14.438-3.828-18.5-9.688 1.037 1.822 2.306 3.499 3.781 4.969 4.085 3.712 9.514 5.969 15.469 5.969 12.703 0 23-10.298 23-23 0-5.954-2.256-11.384-5.969-15.469-1.469-1.475-3.147-2.744-4.969-3.781zm4.969 3.781c3.854 4.113 6.219 9.637 6.219 15.719 0 12.703-10.297 23-23 23-6.081 0-11.606-2.364-15.719-6.219 4.16 4.144 9.883 6.719 16.219 6.719 12.703 0 23-10.298 23-23 0-6.335-2.575-12.06-6.719-16.219z" style="opacity:.05"/>
 <path d="m41.28 8.781c3.712 4.085 5.969 9.514 5.969 15.469 0 12.703-10.297 23-23 23-5.954 0-11.384-2.256-15.469-5.969 4.113 3.854 9.637 6.219 15.719 6.219 12.703 0 23-10.298 23-23 0-6.081-2.364-11.606-6.219-15.719z" style="opacity:.1"/>
 <path d="m31.25 2.375c8.615 3.154 14.75 11.417 14.75 21.13 0 12.426-10.07 22.5-22.5 22.5-9.708 0-17.971-6.135-21.12-14.75a23 23 0 0 0 44.875-7 23 23 0 0 0-16-21.875z" style="opacity:.2"/>
 <path d="m24 1c12.703 0 23 10.297 23 23s-10.297 23-23 23-23-10.297-23-23 10.297-23 23-23z" style="fill:url(#bg)"/>
 <path d="m40.03 7.531c3.712 4.084 5.969 9.514 5.969 15.469 0 12.703-10.297 23-23 23-5.954 0-11.384-2.256-15.469-5.969 4.178 4.291 10.01 6.969 16.469 6.969 12.703 0 23-10.298 23-23 0-6.462-2.677-12.291-6.969-16.469z" style="opacity:.1"/>
 <path d="m21 11c-0.551 0-1 0.449-1 1 0 0.511 0.391 0.918 0.887 0.977l0.428 2.988 1.92-1.516 0.416 2.084c-0.397 0.365-0.65 0.884-0.65 1.467h-7c-1.662 0-3 1.338-3 3v11c0 1.662 1.338 3 3 3h2c0 0.554 0.446 1 1 1h2c0.554 0 1-0.446 1-1h6c0 0.554 0.446 1 1 1h2c0.554 0 1-0.446 1-1h2c1.662 0 3-1.338 3-3v-11c0-1.662-1.338-3-3-3h-7c0-0.544-0.22-1.036-0.572-1.396l1.451-3.627c0.041 5e-3 0.078 0.023 0.121 0.023 0.551 0 1-0.449 1-1s-0.449-1-1-1-1 0.449-1 1c0 0.328 0.169 0.607 0.414 0.789l-1.398 3.496c-0.298-0.177-0.643-0.285-1.016-0.285-0.326 0-0.629 0.085-0.9 0.223l-0.535-2.672-1.877 1.484-0.303-2.113c0.361-0.151 0.615-0.507 0.615-0.922 0-0.551-0.449-1-1-1" style="opacity:.1"/>
 <rect x="17" y="33" width="4" height="2" rx="1" style="fill:#323232"/>
 <rect x="27" y="33" width="4" height="2" rx="1" style="fill:#323232"/>
 <path d="m20 10c-0.551 0-1 0.449-1 1 0 0.51081 0.39142 0.91755 0.88672 0.97656l0.42773 2.9883 1.9199-1.5156 0.41797 2.082c-0.39831 0.36553-0.65234 0.88521-0.65234 1.4688 0 1.105 0.895 2 2 2s2-0.895 2-2c0-0.54447-0.21962-1.0359-0.57227-1.3965l1.4512-3.627c0.041458 0.00527 0.078239 0.023438 0.12109 0.023438 0.551 0 1-0.449 1-1s-0.449-1-1-1-1 0.449-1 1c0 0.32796 0.1691 0.60654 0.41406 0.78906l-1.3984 3.4961c-0.29841-0.17698-0.64334-0.28516-1.0156-0.28516-0.32552 0-0.62883 0.084831-0.90039 0.22266l-0.53516-2.6719-1.877 1.4844-0.30273-2.1133c0.36057-0.15128 0.61523-0.50729 0.61523-0.92188 0-0.551-0.449-1-1-1z" style="fill:#3c3c3c"/>
 <rect x="12" y="17" width="24" height="17" rx="3" style="fill:#3c3c3c"/>
 <rect x="14" y="19" width="20" height="13" rx="1.5" style="fill:#8eb6e2"/>
 <path d="m22.977 20.5a0.5 0.5 0 0 0-0.434 0.297l-1.867 4.203h-6.676v1h7a0.5 0.5 0 0 0 0.457-0.297l1.383-3.113 1.672 7.52a0.5 0.5 0 0 0 0.945 0.094l1.867-4.204h6.676v-1h-7a0.5 0.5 0 0 0-0.457 0.297l-1.383 3.113-1.672-7.52a0.5 0.5 0 0 0-0.511-0.39" style="fill:#ebebeb"/>
</svg>
