<svg version="1.1" viewBox="0 0 48 48" xmlns="http://www.w3.org/2000/svg">
 <defs>
  <linearGradient id="bg" x1="1" x2="47" gradientTransform="matrix(0 -1 1 0 -1.5e-6 48)" gradientUnits="userSpaceOnUse">
   <stop style="stop-color:#dbdbdb" offset="0"/>
   <stop style="stop-color:#e5e5e5" offset="1"/>
  </linearGradient>
 </defs>
 <path d="m36.3 5c5.86 4.06 9.69 10.8 9.69 18.5 0 12.4-10.1 22.5-22.5 22.5-7.67 0-14.4-3.83-18.5-9.69 1.04 1.82 2.31 3.5 3.78 4.97 4.08 3.71 9.51 5.97 15.5 5.97 12.7 0 23-10.3 23-23 0-5.95-2.26-11.4-5.97-15.5-1.47-1.48-3.15-2.74-4.97-3.78zm4.97 3.78c3.85 4.11 6.22 9.64 6.22 15.7 0 12.7-10.3 23-23 23-6.08 0-11.6-2.36-15.7-6.22 4.16 4.14 9.88 6.72 16.2 6.72 12.7 0 23-10.3 23-23 0-6.34-2.58-12.1-6.72-16.2z" style="opacity:.05"/>
 <path d="m41.3 8.78c3.71 4.08 5.97 9.51 5.97 15.5 0 12.7-10.3 23-23 23-5.95 0-11.4-2.26-15.5-5.97 4.11 3.85 9.64 6.22 15.7 6.22 12.7 0 23-10.3 23-23 0-6.08-2.36-11.6-6.22-15.7z" style="opacity:.1"/>
 <path d="m31.2 2.38c8.62 3.15 14.8 11.4 14.8 21.1 0 12.4-10.1 22.5-22.5 22.5-9.71 0-18-6.14-21.1-14.8a23 23 0 0 0 44.9-7 23 23 0 0 0-16-21.9z" style="opacity:.2"/>
 <path d="m24 1c12.7 0 23 10.3 23 23s-10.3 23-23 23-23-10.3-23-23 10.3-23 23-23z" style="fill:url(#bg)"/>
 <path d="m21 13c-0.551 0-1 0.449-1 1s0.449 1 1 1c0.071 0 0.134-0.027 0.201-0.041l0.73 1.46 0.961-0.959 0.705 2.11-0.598 1.42-9 12c0 1.66 1.34 3 3 3h16c1.66 0 3-1.34 3-3v-9c0-1.66-1.34-3-3-3h-6c0-0.528-0.208-1-0.541-1.36l1.34-2.68c0.067 0.014 0.13 0.041 0.201 0.041 0.551 0 1-0.449 1-1s-0.449-1-1-1-1 0.449-1 1c0 0.3 0.14 0.561 0.35 0.744l-1.28 2.57c-0.309-0.195-0.674-0.313-1.07-0.313l-0.982 0.268-0.908-2.73-1.04 1.04-0.416-0.832c0.21-0.184 0.35-0.446 0.35-0.746 0-0.551-0.449-1-1-1z" style="opacity:.1"/>
 <path d="m16 18h16c1.66 0 3 1.34 3 3v9c0 1.66-1.34 3-3 3h-16c-1.66 0-3-1.34-3-3v-9c0-1.66 1.34-3 3-3" style="fill:#474747"/>
 <path d="m16.5 20h15.1c0.805 0 1.46 0.652 1.46 1.45v8.09c0 0.805-0.652 1.46-1.46 1.46h-15.1c-0.805 0-1.46-0.652-1.46-1.46v-8.09c0-0.801 0.652-1.45 1.46-1.45" style="fill:#8c8c8c"/>
 <path d="m20 12c-0.551 0-1 0.449-1 1s0.449 1 1 1c0.0723 0 0.143-0.00681 0.211-0.0215l0.721 1.44 0.961-0.959 0.703 2.11c-0.368 0.363-0.596 0.866-0.596 1.42 0 1.1 0.895 2 2 2s2-0.895 2-2c0-0.528-0.205-1.01-0.539-1.37l1.33-2.66c0.068 0.0147 0.139 0.0215 0.211 0.0215 0.551 0 1-0.449 1-1s-0.449-1-1-1-1 0.449-1 1c0 0.301 0.135 0.57 0.346 0.754l-1.28 2.55c-0.309-0.196-0.675-0.309-1.07-0.309-0.358 0-0.694 0.095-0.984 0.26l-0.906-2.72-1.04 1.04-0.412-0.824c0.211-0.184 0.346-0.453 0.346-0.754 0-0.551-0.449-1-1-1z" style="fill:#474747"/>
 <path d="m20.5 22c-0.828 0-1.5 1.12-1.5 2.5s0.672 2.5 1.5 2.5 1.5-1.12 1.5-2.5-0.672-2.5-1.5-2.5zm7 0c-0.828 0-1.5 1.12-1.5 2.5s0.672 2.5 1.5 2.5 1.5-1.12 1.5-2.5-0.672-2.5-1.5-2.5z" style="fill:#f9f9f9"/>
 <path d="m20.5 24c-0.277 0-0.5 0.449-0.5 1s0.223 1 0.5 1 0.5-0.449 0.5-1-0.223-1-0.5-1zm7 0c-0.277 0-0.5 0.449-0.5 1s0.223 1 0.5 1 0.5-0.449 0.5-1-0.223-1-0.5-1zm-6.53 4.53-0.5 0.781c1.04 0.414 2.23 0.688 3.53 0.688s2.49-0.272 3.53-0.688l-0.5-0.781c-0.922 0.297-1.94 0.469-3.03 0.469-1.09 0-2.11-0.172-3.03-0.469h-0.00195z" style="fill:#474747"/>
 <path d="m40 7.53c3.71 4.08 5.97 9.51 5.97 15.5 0 12.7-10.3 23-23 23-5.95 0-11.4-2.26-15.5-5.97 4.18 4.29 10 6.97 16.5 6.97 12.7 0 23-10.3 23-23 0-6.46-2.68-12.3-6.97-16.5z" style="opacity:.1"/>
</svg>
