<svg xmlns="http://www.w3.org/2000/svg" viewBox="0 0 48 48">
 <defs>
  <linearGradient id="linearGradient3764" x1="1" x2="47" gradientUnits="userSpaceOnUse" gradientTransform="matrix(0,-1,1,0,-1.5e-6,47.999998)">
   <stop style="stop-color:#dbdbdb;stop-opacity:1"/>
   <stop offset="1" style="stop-color:#e5e5e5;stop-opacity:1"/>
  </linearGradient>
 </defs>
 <g>
  <path d="m 36.31 5 c 5.859 4.062 9.688 10.831 9.688 18.5 c 0 12.426 -10.07 22.5 -22.5 22.5 c -7.669 0 -14.438 -3.828 -18.5 -9.688 c 1.037 1.822 2.306 3.499 3.781 4.969 c 4.085 3.712 9.514 5.969 15.469 5.969 c 12.703 0 23 -10.298 23 -23 c 0 -5.954 -2.256 -11.384 -5.969 -15.469 c -1.469 -1.475 -3.147 -2.744 -4.969 -3.781 z m 4.969 3.781 c 3.854 4.113 6.219 9.637 6.219 15.719 c 0 12.703 -10.297 23 -23 23 c -6.081 0 -11.606 -2.364 -15.719 -6.219 c 4.16 4.144 9.883 6.719 16.219 6.719 c 12.703 0 23 -10.298 23 -23 c 0 -6.335 -2.575 -12.06 -6.719 -16.219 z" style="opacity:0.05"/>
  <path d="m 41.28 8.781 c 3.712 4.085 5.969 9.514 5.969 15.469 c 0 12.703 -10.297 23 -23 23 c -5.954 0 -11.384 -2.256 -15.469 -5.969 c 4.113 3.854 9.637 6.219 15.719 6.219 c 12.703 0 23 -10.298 23 -23 c 0 -6.081 -2.364 -11.606 -6.219 -15.719 z" style="opacity:0.1"/>
  <path d="m 31.25 2.375 c 8.615 3.154 14.75 11.417 14.75 21.13 c 0 12.426 -10.07 22.5 -22.5 22.5 c -9.708 0 -17.971 -6.135 -21.12 -14.75 a 23 23 0 0 0 44.875 -7 a 23 23 0 0 0 -16 -21.875 z" style="opacity:0.2"/>
 </g>
 <g>
  <path d="m 24 1 c 12.703 0 23 10.297 23 23 c 0 12.703 -10.297 23 -23 23 -12.703 0 -23 -10.297 -23 -23 0 -12.703 10.297 -23 23 -23 z" style="fill:url(#linearGradient3764);fill-opacity:1"/>
 </g>
 <g>
  <g>
   <g transform="translate(1,1)">
    <g style="opacity:0.1">
     <!-- color: #e5e5e5 -->
     <g>
      <path d="m 21 13 c -0.551 0 -1 0.449 -1 1 c 0 0.551 0.449 1 1 1 c 0.071 0 0.134 -0.027 0.201 -0.041 l 0.73 1.463 l 0.961 -0.959 l 0.705 2.113 c -0.368 0.363 -0.598 0.866 -0.598 1.424 l -6 0 c -1.656 0 -3 1.344 -3 3 l 0 8.996 c 0 1.656 1.344 3 3 3 l 16 0 c 1.656 0 3 -1.34 3 -3 l 0 -8.996 c 0 -1.656 -1.344 -3 -3 -3 l -6 0 c 0 -0.528 -0.208 -1 -0.541 -1.361 l 1.34 -2.68 c 0.067 0.014 0.13 0.041 0.201 0.041 c 0.551 0 1 -0.449 1 -1 c 0 -0.551 -0.449 -1 -1 -1 c -0.551 0 -1 0.449 -1 1 c 0 0.3 0.14 0.561 0.35 0.744 l -1.283 2.568 c -0.309 -0.195 -0.674 -0.313 -1.066 -0.313 c -0.359 0 -0.691 0.102 -0.982 0.268 l -0.908 -2.73 l -1.043 1.041 l -0.416 -0.832 c 0.21 -0.184 0.35 -0.446 0.35 -0.746 c 0 -0.551 -0.449 -1 -1 -1 z" transform="translate(-1,-1)"/>
     </g>
    </g>
   </g>
  </g>
 </g>
 <g>
  <g>
   <!-- color: #e5e5e5 -->
   <g>
    <path d="m 16,18 16,0 c 1.656,0 3,1.344 3,3 l 0,8.996 c 0,1.66 -1.344,3 -3,3 l -16,0 c -1.656,0 -3,-1.344 -3,-3 L 13,21 c 0,-1.656 1.344,-3 3,-3 m 0,0" style="fill:#2d2d2d;fill-opacity:1;stroke:none;fill-rule:nonzero"/>
    <path d="m 16.457,20 15.09,0 c 0.805,0 1.457,0.652 1.457,1.453 l 0,8.09 c 0,0.805 -0.652,1.457 -1.457,1.457 l -15.09,0 C 15.652,31 15,30.348 15,29.543 l 0,-8.09 C 15,20.652 15.652,20 16.457,20 m 0,0" style="fill:#868686;fill-opacity:1;stroke:none;fill-rule:nonzero"/>
    <path d="m 26 18 c 0 1.105 -0.895 2 -2 2 -1.105 0 -2 -0.895 -2 -2 0 -1.105 0.895 -2 2 -2 1.105 0 2 0.895 2 2 m 0 0" style="fill:#2d2d2d;fill-opacity:1;stroke:none;fill-rule:nonzero"/>
    <path d="m 23 17 -1 -3 -1 1 -1 -2" style="stroke-opacity:1;fill:none;stroke-miterlimit:4;stroke:#2d2d2d;stroke-linecap:butt;stroke-linejoin:miter;stroke-width:0.5"/>
    <path d="m 25 17 2 -4 -2 4" style="stroke-opacity:1;fill:none;stroke-miterlimit:4;stroke:#2d2d2d;stroke-linecap:butt;stroke-linejoin:miter;stroke-width:0.5"/>
    <path d="m 21 13 c 0 0.551 -0.449 1 -1 1 -0.551 0 -1 -0.449 -1 -1 0 -0.551 0.449 -1 1 -1 0.551 0 1 0.449 1 1 m 0 0" style="fill:#2d2d2d;fill-opacity:1;stroke:none;fill-rule:nonzero"/>
    <path d="m 28 13 c 0 0.551 -0.449 1 -1 1 -0.551 0 -1 -0.449 -1 -1 0 -0.551 0.449 -1 1 -1 0.551 0 1 0.449 1 1 m 0 0" style="fill:#2d2d2d;fill-opacity:1;stroke:none;fill-rule:nonzero"/>
    <path d="M 22,24.5 C 22,25.879 21.328,27 20.5,27 19.672,27 19,25.879 19,24.5 19,23.121 19.672,22 20.5,22 c 0.828,0 1.5,1.121 1.5,2.5 m 0,0" style="fill:#f9f9f9;fill-opacity:1;stroke:none;fill-rule:nonzero"/>
    <path d="M 29,24.5 C 29,25.879 28.328,27 27.5,27 26.672,27 26,25.879 26,24.5 26,23.121 26.672,22 27.5,22 c 0.828,0 1.5,1.121 1.5,2.5 m 0,0" style="fill:#f9f9f9;fill-opacity:1;stroke:none;fill-rule:nonzero"/>
    <path d="m 21 25 c 0 0.551 -0.223 1 -0.5 1 -0.277 0 -0.5 -0.449 -0.5 -1 0 -0.551 0.223 -1 0.5 -1 0.277 0 0.5 0.449 0.5 1 m 0 0" style="fill:#444;fill-opacity:1;stroke:none;fill-rule:nonzero"/>
    <path d="m 28 25 c 0 0.551 -0.223 1 -0.5 1 -0.277 0 -0.5 -0.449 -0.5 -1 0 -0.551 0.223 -1 0.5 -1 0.277 0 0.5 0.449 0.5 1 m 0 0" style="fill:#444;fill-opacity:1;stroke:none;fill-rule:nonzero"/>
    <path d="m 20.969,28.531 -0.5,0.781 C 21.512,29.726 22.699,30 24,30 c 1.301,0 2.488,-0.273 3.531,-0.688 l -0.5,-0.781 C 26.109,28.828 25.09,29 24.001,29 c -1.09,0 -2.109,-0.172 -3.03,-0.469 m -0.004,0" style="fill:#2d2d2d;fill-opacity:1;stroke:none;fill-rule:nonzero"/>
   </g>
  </g>
 </g>
 <g>
  <path d="m 40.03 7.531 c 3.712 4.084 5.969 9.514 5.969 15.469 0 12.703 -10.297 23 -23 23 c -5.954 0 -11.384 -2.256 -15.469 -5.969 4.178 4.291 10.01 6.969 16.469 6.969 c 12.703 0 23 -10.298 23 -23 0 -6.462 -2.677 -12.291 -6.969 -16.469 z" style="opacity:0.1"/>
 </g>
</svg>
