<svg xmlns="http://www.w3.org/2000/svg" viewBox="0 0 48 48">
 <defs>
  <linearGradient id="linearGradient3764-0" x1="1" x2="47" gradientUnits="userSpaceOnUse" gradientTransform="matrix(0,-1,1,0,-1.5e-6,47.999998)">
   <stop style="stop-color:#f6b042;stop-opacity:1"/>
   <stop offset="1" style="stop-color:#f7b754;stop-opacity:1"/>
  </linearGradient>
 </defs>
 <g>
  <path d="m 36.31,5 c 5.859,4.062 9.688,10.831 9.688,18.5 0,12.426 -10.07,22.5 -22.5,22.5 -7.669,0 -14.438,-3.828 -18.5,-9.688 1.037,1.822 2.306,3.499 3.781,4.969 4.085,3.712 9.514,5.969 15.469,5.969 12.703,0 23,-10.298 23,-23 0,-5.954 -2.256,-11.384 -5.969,-15.469 C 39.81,7.306 38.132,6.037 36.31,5 z m 4.969,3.781 c 3.854,4.113 6.219,9.637 6.219,15.719 0,12.703 -10.297,23 -23,23 -6.081,0 -11.606,-2.364 -15.719,-6.219 4.16,4.144 9.883,6.719 16.219,6.719 12.703,0 23,-10.298 23,-23 0,-6.335 -2.575,-12.06 -6.719,-16.219 z" style="opacity:0.05"/>
  <path d="m 41.28 8.781 c 3.712 4.085 5.969 9.514 5.969 15.469 0 12.703 -10.297 23 -23 23 -5.954 0 -11.384 -2.256 -15.469 -5.969 4.113 3.854 9.637 6.219 15.719 6.219 12.703 0 23 -10.298 23 -23 0 -6.081 -2.364 -11.606 -6.219 -15.719 z" style="opacity:0.1"/>
  <path d="M 31.25,2.375 C 39.865,5.529 46,13.792 46,23.505 c 0,12.426 -10.07,22.5 -22.5,22.5 -9.708,0 -17.971,-6.135 -21.12,-14.75 a 23,23 0 0 0 44.875,-7 23,23 0 0 0 -16,-21.875 z" style="opacity:0.2"/>
 </g>
 <g>
  <path d="M 24,1 C 36.703,1 47,11.297 47,24 47,36.703 36.703,47 24,47 11.297,47 1,36.703 1,24 1,11.297 11.297,1 24,1 z" style="fill:url(#linearGradient3764-0);fill-opacity:1"/>
 </g>
 <g>
  <g>
   <g transform="translate(1,1)">
    <g style="opacity:0.1">
     <!-- color: #f7b754 -->
     <g>
      <path d="m 25 11 c -4.144 0 -6.855 2.38 -8.137 5.174 c -1.596 -0.05 -3.192 -0.1 -4.783 -0.174 c -0.586 -0.031 -1.145 0.648 -1.066 1.098 c 1.01 6.68 1.063 12.918 0 19.801 c -0.074 0.453 0.48 1.121 1.066 1.098 l 25.836 0 c 0.598 0.023 1.148 -0.645 1.078 -1.098 c -1.063 -6.879 -1.078 -13.199 0 -19.801 c 0.078 -0.453 -0.48 -1.133 -1.078 -1.098 c -1.598 0.087 -3.185 0.136 -4.773 0.188 c -1.28 -2.8 -3.995 -5.188 -8.143 -5.188 z m 0 1 c 3.2 0 5.576 1.981 6.875 4.236 c -4.613 0.123 -9.19 0.108 -13.74 -0.016 c 1.301 -2.249 3.672 -4.221 6.865 -4.221 z" transform="translate(-1,-1)" style="fill:#000;fill-opacity:1;stroke:none;fill-rule:nonzero"/>
     </g>
    </g>
   </g>
  </g>
 </g>
 <g transform="translate(4.8845858e-4,0)">
  <path d="m 11.08 15 c -0.586 -0.031 -1.145 0.648 -1.066 1.098 1.01 6.68 1.063 12.918 0 19.801 -0.074 0.453 0.48 1.121 1.066 1.098 8.617 0 17.227 0 25.836 0 0.598 0.023 1.148 -0.645 1.078 -1.098 -1.063 -6.879 -1.078 -13.199 0 -19.801 0.078 -0.453 -0.48 -1.133 -1.078 -1.098 -8.738 0.473 -17.32 0.395 -25.836 0 m 0 0" style="fill:#f8ecde;fill-opacity:1;stroke:none;fill-rule:nonzero"/>
  <path d="M 17,19.5 C 17,20.328 16.328,21 15.5,21 14.672,21 14,20.328 14,19.5 14,18.672 14.672,18 15.5,18 c 0.828,0 1.5,0.672 1.5,1.5 m 0,0" style="fill:#a9946f;fill-opacity:1;stroke:none;fill-rule:nonzero"/>
  <path d="M 34,19.5 C 34,20.328 33.328,21 32.5,21 31.672,21 31,20.328 31,19.5 31,18.672 31.672,18 32.5,18 c 0.828,0 1.5,0.672 1.5,1.5 m 0,0" style="fill:#a9946f;fill-opacity:1;stroke:none;fill-rule:nonzero"/>
  <path d="M 15.5,20 C 15,20 15,19.422 15,19 c 0,-4.01 3,-9 9,-9 5.996,0 9,4.988 9,9 0,0.422 0,1 -0.5,1 C 32,20 32,19.422 32,19 c 0,-3.168 -3,-8 -8,-8 -5,0 -8,4.832 -8,8 0,0.422 0,1 -0.496,1 m 0,0" style="fill:#e5d6be;fill-opacity:1;stroke:none;fill-rule:nonzero"/>
 </g>
 <g>
  <path d="m 40.03,7.531 c 3.712,4.084 5.969,9.514 5.969,15.469 0,12.703 -10.297,23 -23,23 C 17.045,46 11.615,43.744 7.53,40.031 11.708,44.322 17.54,47 23.999,47 c 12.703,0 23,-10.298 23,-23 0,-6.462 -2.677,-12.291 -6.969,-16.469 z" style="opacity:0.1"/>
 </g>
 <path d="m 21.333 30 -0.833 1 -0.5 2 -1.7 0 1.367 -2 -0.417 -1.25 -0.25 -1.75 l -1 -2.5 1.75 -3 2.5 -2.85 l -0.25 1.35 1 0 1.5 -2 -0.5 2 0 2 -0.75 1.5 1.75 1.5 2.583 1.071 1.667 -1.071 1.083 -1.647 1.667 -0.353 l 0 2 -1.083 0.412 -1.25 0 l -1.667 1.167 0 1.421 l 1.25 1.5 -1.25 1.265 0 1.235 l -2 0 1.5 -2 -0.5 -1 -1.5 1.353 0 0.647 -2 0 2.5 -2.5 -1.083 -0.618 -1.917 1.118" style="fill:#dd4512;opacity:1;fill-opacity:1;stroke:none"/>
</svg>
