<svg xmlns="http://www.w3.org/2000/svg" viewBox="0 0 48 48">
 <defs>
  <linearGradient id="linearGradient3764" x1="1" x2="47" gradientUnits="userSpaceOnUse" gradientTransform="matrix(0,-1,1,0,-1.5e-6,47.999998)">
   <stop style="stop-color:#73cf19;stop-opacity:1"/>
   <stop offset="1" style="stop-color:#7de21b;stop-opacity:1"/>
  </linearGradient>
 </defs>
 <g>
  <path d="m 36.31 5 c 5.859 4.062 9.688 10.831 9.688 18.5 c 0 12.426 -10.07 22.5 -22.5 22.5 c -7.669 0 -14.438 -3.828 -18.5 -9.688 c 1.037 1.822 2.306 3.499 3.781 4.969 c 4.085 3.712 9.514 5.969 15.469 5.969 c 12.703 0 23 -10.298 23 -23 c 0 -5.954 -2.256 -11.384 -5.969 -15.469 c -1.469 -1.475 -3.147 -2.744 -4.969 -3.781 z m 4.969 3.781 c 3.854 4.113 6.219 9.637 6.219 15.719 c 0 12.703 -10.297 23 -23 23 c -6.081 0 -11.606 -2.364 -15.719 -6.219 c 4.16 4.144 9.883 6.719 16.219 6.719 c 12.703 0 23 -10.298 23 -23 c 0 -6.335 -2.575 -12.06 -6.719 -16.219 z" style="opacity:0.05"/>
  <path d="m 41.28 8.781 c 3.712 4.085 5.969 9.514 5.969 15.469 c 0 12.703 -10.297 23 -23 23 c -5.954 0 -11.384 -2.256 -15.469 -5.969 c 4.113 3.854 9.637 6.219 15.719 6.219 c 12.703 0 23 -10.298 23 -23 c 0 -6.081 -2.364 -11.606 -6.219 -15.719 z" style="opacity:0.1"/>
  <path d="m 31.25 2.375 c 8.615 3.154 14.75 11.417 14.75 21.13 c 0 12.426 -10.07 22.5 -22.5 22.5 c -9.708 0 -17.971 -6.135 -21.12 -14.75 a 23 23 0 0 0 44.875 -7 a 23 23 0 0 0 -16 -21.875 z" style="opacity:0.2"/>
 </g>
 <g>
  <path d="m 24 1 c 12.703 0 23 10.297 23 23 c 0 12.703 -10.297 23 -23 23 -12.703 0 -23 -10.297 -23 -23 0 -12.703 10.297 -23 23 -23 z" style="fill:url(#linearGradient3764);fill-opacity:1"/>
 </g>
 <g>
  <g>
   <g transform="translate(1,1)">
    <g style="opacity:0.1">
     <!-- color: #7de21b -->
     <g>
      <path d="m 21.254,9 c -0.313,0 -0.586,0.379 -0.586,0.879 l 0,2.953 c 0,0.043 0.027,0.078 0.031,0.121 -0.863,0.242 -1.695,0.594 -2.469,1.012 L 16.312,12.11 c -0.125,-0.125 -0.246,-0.188 -0.391,-0.254 -0.316,-0.207 -0.629,-0.27 -0.809,-0.094 l -3.934,3.801 c -0.23,0.215 -0.105,0.684 0.258,1.039 l 2.02,1.949 c 0.027,0.023 0.039,0.039 0.066,0.063 -0.297,0.531 -0.574,1.086 -0.781,1.664 l -2.695,0 c -0.371,0 -0.68,0.172 -0.813,0.41 -0.137,0.117 -0.227,0.273 -0.227,0.441 l 0,6.438 c 0,0.371 0.379,0.66 0.879,0.66 l 2.762,0 c 0.105,0 0.203,-0.039 0.297,-0.066 0.219,0.543 0.48,1.066 0.777,1.566 -0.035,0.031 -0.066,0.066 -0.105,0.098 l -1.977,1.918 c -0.289,0.273 -0.398,0.578 -0.328,0.816 -0.035,0.172 -0.004,0.34 0.102,0.441 l 3.902,3.801 c 0.223,0.215 0.707,0.098 1.07,-0.25 l 2.02,-1.949 c 0.109,-0.109 0.164,-0.227 0.227,-0.348 0.656,0.32 1.355,0.582 2.078,0.785 -0.004,0.043 -0.031,0.082 -0.031,0.125 l 0,2.918 c 0,0.5 0.273,0.91 0.586,0.91 l 5.492,0 c 0.309,0 0.551,-0.41 0.551,-0.91 l 0,-2.918 c 0,-0.043 0.004,-0.082 0,-0.125 0.824,-0.23 1.629,-0.52 2.375,-0.91 0.055,0.16 0.141,0.328 0.293,0.473 l 2.02,1.949 c 0.363,0.352 0.82,0.465 1.043,0.25 L 36.973,33 c 0.109,-0.109 0.141,-0.289 0.098,-0.473 0.047,-0.234 -0.09,-0.523 -0.355,-0.785 l -1.984,-1.918 c -0.102,-0.098 -0.215,-0.195 -0.328,-0.25 0.262,-0.457 0.484,-0.922 0.691,-1.414 0.094,0.023 0.188,0.063 0.293,0.063 l 2.727,0 c 0.5,0 0.91,-0.293 0.91,-0.66 l 0,-6.438 c 0,-0.176 -0.109,-0.32 -0.258,-0.438 -0.004,-0.008 0.004,-0.027 0,-0.035 -0.012,-0.004 -0.023,-0.023 -0.031,-0.031 -0.145,-0.203 -0.445,-0.348 -0.781,-0.348 l -2.664,0 c -0.176,-0.5 -0.438,-0.977 -0.684,-1.445 0.125,-0.059 0.242,-0.141 0.355,-0.25 l 2.02,-1.949 c 0.363,-0.352 0.449,-0.82 0.23,-1.039 L 33.31,11.789 c -0.168,-0.164 -0.48,-0.137 -0.781,0.031 -0.168,0.055 -0.328,0.133 -0.488,0.285 l -1.98,1.914 c -0.02,0.02 -0.02,0.047 -0.031,0.066 -0.836,-0.477 -1.746,-0.867 -2.695,-1.133 0.004,-0.043 0,-0.082 0,-0.121 l 0,-2.953 c 0,-0.5 -0.242,-0.879 -0.555,-0.879" style="fill:#000;fill-opacity:1;stroke:none;fill-rule:nonzero"/>
     </g>
    </g>
   </g>
  </g>
 </g>
 <g>
  <g>
   <!-- color: #7de21b -->
   <g>
    <path d="m 33.824 24.25 c 0.063 3.496 -1.855 6.75 -5.02 8.516 -3.16 1.766 -7.07 1.766 -10.23 0 -3.16 -1.766 -5.078 -5.02 -5.02 -8.516 -0.059 -3.496 1.859 -6.75 5.02 -8.516 3.16 -1.766 7.07 -1.766 10.23 0 3.16 1.766 5.078 5.02 5.02 8.516 m 0 0" style="fill:#191919;fill-opacity:1;stroke:none;fill-rule:nonzero"/>
    <path d="m 21.254,9 c -0.313,0 -0.586,0.379 -0.586,0.879 l 0,2.953 c 0,0.043 0.027,0.078 0.031,0.121 -0.863,0.242 -1.695,0.594 -2.469,1.012 L 16.312,12.11 c -0.125,-0.125 -0.246,-0.188 -0.391,-0.254 -0.316,-0.207 -0.629,-0.27 -0.809,-0.094 l -3.934,3.801 c -0.23,0.215 -0.105,0.684 0.258,1.039 l 2.02,1.949 c 0.027,0.023 0.039,0.039 0.066,0.063 -0.297,0.531 -0.574,1.086 -0.781,1.664 l -2.695,0 c -0.371,0 -0.68,0.172 -0.813,0.41 -0.137,0.117 -0.227,0.273 -0.227,0.441 l 0,6.438 c 0,0.371 0.379,0.66 0.879,0.66 l 2.762,0 c 0.105,0 0.203,-0.039 0.297,-0.066 0.219,0.543 0.48,1.066 0.777,1.566 -0.035,0.031 -0.066,0.066 -0.105,0.098 l -1.977,1.918 c -0.289,0.273 -0.398,0.578 -0.328,0.816 -0.035,0.172 -0.004,0.34 0.102,0.441 l 3.902,3.801 c 0.223,0.215 0.707,0.098 1.07,-0.25 l 2.02,-1.949 c 0.109,-0.109 0.164,-0.227 0.227,-0.348 0.656,0.32 1.355,0.582 2.078,0.785 -0.004,0.043 -0.031,0.082 -0.031,0.125 l 0,2.918 c 0,0.5 0.273,0.91 0.586,0.91 l 5.492,0 c 0.309,0 0.551,-0.41 0.551,-0.91 l 0,-2.918 c 0,-0.043 0.004,-0.082 0,-0.125 0.824,-0.23 1.629,-0.52 2.375,-0.91 0.055,0.16 0.141,0.328 0.293,0.473 l 2.02,1.949 c 0.363,0.352 0.82,0.465 1.043,0.25 L 36.973,33 c 0.109,-0.109 0.141,-0.289 0.098,-0.473 0.047,-0.234 -0.09,-0.523 -0.355,-0.785 l -1.984,-1.918 c -0.102,-0.098 -0.215,-0.195 -0.328,-0.25 0.262,-0.457 0.484,-0.922 0.691,-1.414 0.094,0.023 0.188,0.063 0.293,0.063 l 2.727,0 c 0.5,0 0.91,-0.293 0.91,-0.66 l 0,-6.438 c 0,-0.176 -0.109,-0.32 -0.258,-0.438 -0.004,-0.008 0.004,-0.027 0,-0.035 -0.012,-0.004 -0.023,-0.023 -0.031,-0.031 -0.145,-0.203 -0.445,-0.348 -0.781,-0.348 l -2.664,0 c -0.176,-0.5 -0.438,-0.977 -0.684,-1.445 0.125,-0.059 0.242,-0.141 0.355,-0.25 l 2.02,-1.949 c 0.363,-0.352 0.449,-0.82 0.23,-1.039 L 33.31,11.789 c -0.168,-0.164 -0.48,-0.137 -0.781,0.031 -0.168,0.055 -0.328,0.133 -0.488,0.285 l -1.98,1.914 c -0.02,0.02 -0.02,0.047 -0.031,0.066 -0.836,-0.477 -1.746,-0.867 -2.695,-1.133 0.004,-0.043 0,-0.082 0,-0.121 l 0,-2.953 c 0,-0.5 -0.242,-0.879 -0.555,-0.879 m 0.992,7 c 0.316,-0.02 0.652,0.059 0.941,0.223 0.781,0.434 1.031,1.41 0.586,2.168 -0.449,0.758 -1.43,1 -2.211,0.566 -0.781,-0.438 -1.07,-1.379 -0.617,-2.137 0.285,-0.477 0.773,-0.781 1.301,-0.82 m -3.773,1.539 c 0.531,0 1.059,0.043 1.563,0.156 0.043,0.738 0.457,1.457 1.172,1.852 0.715,0.402 1.559,0.402 2.242,0.066 1.063,1.094 1.688,2.469 1.816,3.957 l -2.797,0 c -0.273,-1.895 -1.961,-3.332 -3.996,-3.332 -0.527,0 -1.027,0.102 -1.492,0.285 l -1.434,-2.355 c 0.898,-0.41 1.902,-0.629 2.926,-0.629 m -3.898,1.164 1.395,2.355 c -0.938,0.715 -1.559,1.832 -1.559,3.078 0,1.246 0.617,2.355 1.559,3.078 l -1.395,2.352 c -0.324,-0.223 -0.652,-0.473 -0.941,-0.754 -0.813,-0.781 -1.367,-1.727 -1.691,-2.762 0.645,-0.406 1.074,-1.117 1.074,-1.918 0,-0.797 -0.426,-1.48 -1.074,-1.891 0.324,-1.027 0.879,-2.01 1.691,-2.793 0.289,-0.277 0.613,-0.527 0.941,-0.754 m -3.934,3.859 c 0.902,0 1.656,0.699 1.656,1.57 0,0.871 -0.754,1.57 -1.656,1.57 -0.902,0 -1.629,-0.699 -1.629,-1.57 0,-0.871 0.727,-1.57 1.629,-1.57 m 11.828,2.137 2.797,0 c -0.129,1.492 -0.75,2.863 -1.816,3.957 -0.688,-0.336 -1.531,-0.336 -2.242,0.066 -0.719,0.398 -1.133,1.113 -1.172,1.852 -0.508,0.113 -1.027,0.156 -1.563,0.156 -1.02,0 -2.023,-0.219 -2.926,-0.625 l 1.398,-2.328 c 0.465,0.191 0.996,0.285 1.523,0.285 2.035,0 3.727,-1.465 3.996,-3.363 m 0.035,4.398 c 0.527,0.035 1.023,0.313 1.301,0.785 0.453,0.754 0.168,1.73 -0.613,2.168 -0.781,0.438 -1.789,0.191 -2.242,-0.566 -0.449,-0.758 -0.164,-1.727 0.617,-2.168 0.293,-0.164 0.629,-0.242 0.938,-0.219 m 0,0" style="fill:#61b212;fill-opacity:1;stroke:none;fill-rule:nonzero"/>
   </g>
  </g>
 </g>
 <g>
  <path d="m 40.03 7.531 c 3.712 4.084 5.969 9.514 5.969 15.469 0 12.703 -10.297 23 -23 23 c -5.954 0 -11.384 -2.256 -15.469 -5.969 4.178 4.291 10.01 6.969 16.469 6.969 c 12.703 0 23 -10.298 23 -23 0 -6.462 -2.677 -12.291 -6.969 -16.469 z" style="opacity:0.1"/>
 </g>
</svg>
