<svg version="1.1" viewBox="0 0 48 48" xmlns="http://www.w3.org/2000/svg">
 <defs>
  <linearGradient id="linearGradient3764" x1="1" x2="47" gradientTransform="matrix(0 -1 1 0 -1.5e-6 48)" gradientUnits="userSpaceOnUse">
   <stop style="stop-color:#f2521a" offset="0"/>
   <stop style="stop-color:#f3612d" offset="1"/>
  </linearGradient>
 </defs>
 <path d="m36.31 5c5.859 4.062 9.688 10.831 9.688 18.5 0 12.426-10.07 22.5-22.5 22.5-7.669 0-14.438-3.828-18.5-9.688 1.037 1.822 2.306 3.499 3.781 4.969 4.085 3.712 9.514 5.969 15.469 5.969 12.703 0 23-10.298 23-23 0-5.954-2.256-11.384-5.969-15.469-1.469-1.475-3.147-2.744-4.969-3.781zm4.969 3.781c3.854 4.113 6.219 9.637 6.219 15.719 0 12.703-10.297 23-23 23-6.081 0-11.606-2.364-15.719-6.219 4.16 4.144 9.883 6.719 16.219 6.719 12.703 0 23-10.298 23-23 0-6.335-2.575-12.06-6.719-16.219z" style="opacity:.05"/>
 <path d="m41.28 8.781c3.712 4.085 5.969 9.514 5.969 15.469 0 12.703-10.297 23-23 23-5.954 0-11.384-2.256-15.469-5.969 4.113 3.854 9.637 6.219 15.719 6.219 12.703 0 23-10.298 23-23 0-6.081-2.364-11.606-6.219-15.719z" style="opacity:.1"/>
 <path d="m31.25 2.375c8.615 3.154 14.75 11.417 14.75 21.13 0 12.426-10.07 22.5-22.5 22.5-9.708 0-17.971-6.135-21.12-14.75a23 23 0 0 0 44.875-7 23 23 0 0 0-16-21.875z" style="opacity:.2"/>
 <path d="m24 1c12.703 0 23 10.297 23 23s-10.297 23-23 23-23-10.297-23-23 10.297-23 23-23z" style="fill:url(#linearGradient3764)"/>
 <path d="m40.03 7.531c3.712 4.084 5.969 9.514 5.969 15.469 0 12.703-10.297 23-23 23-5.954 0-11.384-2.256-15.469-5.969 4.178 4.291 10.01 6.969 16.469 6.969 12.703 0 23-10.298 23-23 0-6.462-2.677-12.291-6.969-16.469z" style="opacity:.1"/>
 <path d="m23 10c-0.554 0-1 0.446-1 1v2.3906a12 12 0 0 0-3.084 1.2832l-1.916-1.916c-0.26885-0.26884-0.71485-0.25586-1 0.0293l-3.2129 3.2129c-0.28515 0.28515-0.29814 0.73115-0.0293 1l1.9141 1.9141a12 12 0 0 0-0.9707 2.0859h-2.7012c-0.554 0-1 0.446-1 1v6c0 0.554 0.446 1 1 1h2.7012a12 12 0 0 0 0.97266 2.084l-1.6738 1.6738c-0.40327 0.40327-0.40327 1.0518 0 1.4551l2.7871 2.7871c0.40327 0.40327 1.0518 0.40327 1.4551 0l1.6719-1.6719a12 12 0 0 0 3.0859 1.2773v2.3945c0 0.554 0.446 1 1 1h4c0.554 0 1-0.446 1-1v-2.3906a12 12 0 0 0 3.084-1.2832l1.916 1.916c0.26885 0.26884 0.71485 0.25586 1-0.0293l3.2129-3.2129c0.28515-0.28515 0.29814-0.73115 0.0293-1l-1.9141-1.9141a12 12 0 0 0 0.9707-2.0859h2.7012c0.554 0 1-0.446 1-1v-6c0-0.554-0.446-1-1-1h-2.7012a12 12 0 0 0-0.97266-2.084l1.6738-1.6738c0.40327-0.40327 0.40327-1.0518 0-1.4551l-2.7871-2.7871c-0.40327-0.40327-1.0518-0.40327-1.4551 0l-1.6719 1.6719a12 12 0 0 0-3.0859-1.2773v-2.3945c0-0.554-0.446-1-1-1z" style="fill:#171c00;opacity:.1"/>
 <path d="m22 9.0001c-0.554 0-1 0.446-1 1v2.3906a12 12 0 0 0-3.084 1.2832l-1.916-1.916c-0.26885-0.26884-0.71485-0.25586-1 0.0293l-3.2129 3.2129c-0.28515 0.28515-0.29814 0.73115-0.0293 1l1.9141 1.9141a12 12 0 0 0-0.9707 2.0859h-2.7012c-0.554 0-1 0.446-1 1v6c0 0.554 0.446 1 1 1h2.7012a12 12 0 0 0 0.97266 2.084l-1.6738 1.6738c-0.40327 0.40327-0.40327 1.0518 0 1.4551l2.7871 2.7871c0.40327 0.40327 1.0518 0.40327 1.4551 0l1.6719-1.6719a12 12 0 0 0 3.0859 1.2773v2.3945c0 0.554 0.446 1 1 1h4c0.554 0 1-0.446 1-1v-2.3906a12 12 0 0 0 3.084-1.2832l1.916 1.916c0.26885 0.26884 0.71485 0.25586 1-0.0293l3.2129-3.2129c0.28515-0.28515 0.29814-0.73115 0.0293-1l-1.9141-1.9141a12 12 0 0 0 0.9707-2.0859h2.7012c0.554 0 1-0.446 1-1v-6c0-0.554-0.446-1-1-1h-2.7012a12 12 0 0 0-0.97266-2.084l1.6738-1.6738c0.40327-0.40327 0.40327-1.0518 0-1.4551l-2.7871-2.7871c-0.40327-0.40327-1.0518-0.40327-1.4551 0l-1.6719 1.6719a12 12 0 0 0-3.0859-1.2773v-2.3945c0-0.554-0.446-1-1-1z" style="fill:#ffa327"/>
 <path d="m29.906 16.002a2 2 0 0 0-1.6387 0.99805 2 2 0 0 0 0.73242 2.7324 2 2 0 0 0 2.7324-0.73242 2 2 0 0 0-0.73242-2.7324 2 2 0 0 0-1.0938-0.26562zm-4.9062 0.99805a8 8 0 0 0-3.8809 1.0117l1.5 2.5977a5 5 0 0 1 2.3809-0.60938 5 5 0 0 1 4.8945 4h3.0332a8 8 0 0 0-1.3027-3.4824 3 3 0 0 1-3.125 0.08008 3 3 0 0 1-1.4102-3.3184 8 8 0 0 0-2.0898-0.2793zm-5.498 2.209a8 8 0 0 0-2.0508 3.166 3 3 0 0 1 1.5488 2.625 3 3 0 0 1-1.5488 2.6211 8 8 0 0 0 2.0508 3.1719l1.5645-2.7109a5 5 0 0 1-1.0664-3.082 5 5 0 0 1 1.0684-3.0801zm-3.502 3.791a2 2 0 0 0-2 2 2 2 0 0 0 2 2 2 2 0 0 0 2-2 2 2 0 0 0-2-2zm13.898 3a5 5 0 0 1-4.8984 4 5 5 0 0 1-2.3828-0.60547l-1.4941 2.5879a8 8 0 0 0 3.877 1.0176 8 8 0 0 0 2.0879-0.28711 3 3 0 0 1 1.4121-3.3105 3 3 0 0 1 3.1211 0.07422 8 8 0 0 0 1.3047-3.4766zm0.05469 4a2 2 0 0 0-0.95313 0.26758 2 2 0 0 0-0.73242 2.7324 2 2 0 0 0 2.7324 0.73242 2 2 0 0 0 0.73242-2.7324 2 2 0 0 0-1.7793-1z" style="opacity:.1"/>
 <circle cx="15" cy="24" r="2" style="fill:#f9f9f9"/>
 <circle transform="rotate(120)" cx=".22252" cy="-33.615" r="2" style="fill:#f9f9f9"/>
 <circle transform="rotate(240)" cx="-41.347" cy="9.6146" r="2" style="fill:#f9f9f9"/>
 <path d="m24 16a8 8 0 0 0-3.8809 1.0117l1.5 2.5977a5 5 0 0 1 2.3809-0.60938 5 5 0 0 1 4.8945 4h3.0332a8 8 0 0 0-1.3027-3.4824 3 3 0 0 1-3.125 0.08008 3 3 0 0 1-1.4102-3.3184 8 8 0 0 0-2.0898-0.2793zm-5.498 2.209a8 8 0 0 0-2.0508 3.166 3 3 0 0 1 1.5488 2.625 3 3 0 0 1-1.5488 2.6211 8 8 0 0 0 2.0508 3.1719l1.5645-2.7109a5 5 0 0 1-1.0664-3.082 5 5 0 0 1 1.0684-3.0801l-1.5664-2.7109zm10.396 6.791a5 5 0 0 1-4.8984 4 5 5 0 0 1-2.3828-0.60547l-1.4941 2.5879a8 8 0 0 0 3.877 1.0176 8 8 0 0 0 2.0879-0.28711 3 3 0 0 1 1.4121-3.3105 3 3 0 0 1 3.1211 0.07422 8 8 0 0 0 1.3047-3.4766h-3.0273z" style="fill:#f9f9f9"/>
</svg>
