<svg version="1.1" viewBox="0 0 48 48" xmlns="http://www.w3.org/2000/svg">
 <defs>
  <linearGradient id="bg" x2="0" y1="1" y2="47" gradientUnits="userSpaceOnUse">
   <stop style="stop-color:#e8eef2" offset="0"/>
   <stop style="stop-color:#dbe5eb" offset="1"/>
  </linearGradient>
 </defs>
 <path d="m36.3 5c5.86 4.06 9.69 10.8 9.69 18.5 0 12.4-10.1 22.5-22.5 22.5-7.67 0-14.4-3.83-18.5-9.69 1.04 1.82 2.31 3.5 3.78 4.97 4.08 3.71 9.51 5.97 15.5 5.97 12.7 0 23-10.3 23-23 0-5.95-2.26-11.4-5.97-15.5-1.47-1.48-3.15-2.74-4.97-3.78zm4.97 3.78c3.85 4.11 6.22 9.64 6.22 15.7 0 12.7-10.3 23-23 23-6.08 0-11.6-2.36-15.7-6.22 4.16 4.14 9.88 6.72 16.2 6.72 12.7 0 23-10.3 23-23 0-6.34-2.58-12.1-6.72-16.2z" style="opacity:.05"/>
 <path d="m41.3 8.78c3.71 4.08 5.97 9.51 5.97 15.5 0 12.7-10.3 23-23 23-5.95 0-11.4-2.26-15.5-5.97 4.11 3.85 9.64 6.22 15.7 6.22 12.7 0 23-10.3 23-23 0-6.08-2.36-11.6-6.22-15.7z" style="opacity:.1"/>
 <path d="m31.2 2.38c8.62 3.15 14.8 11.4 14.8 21.1 0 12.4-10.1 22.5-22.5 22.5-9.71 0-18-6.14-21.1-14.8a23 23 0 0 0 44.9-7 23 23 0 0 0-16-21.9z" style="opacity:.2"/>
 <path d="m24 1c12.7 0 23 10.3 23 23s-10.3 23-23 23-23-10.3-23-23 10.3-23 23-23z" style="fill:url(#bg)"/>
 <path d="m40 7.53c3.71 4.08 5.97 9.51 5.97 15.5 0 12.7-10.3 23-23 23-5.95 0-11.4-2.26-15.5-5.97 4.18 4.29 10 6.97 16.5 6.97 12.7 0 23-10.3 23-23 0-6.46-2.68-12.3-6.97-16.5z" style="opacity:.1"/>
 <path d="m33.8 10-11.8 3.19-1.75 3.11-3.56-0.0273-8.67 8.72 8.67 8.72 3.56-0.0273 1.76 3.11 11.8 3.19 3.17-11.9-1.8-3.09 1.8-3.08v-2e-3zm-5.2 4.71-4.79 8.29h-9.36l6.03-6.19zm3.62 1.73 2.37 8.56-2.37 8.55-4.94-8.55zm-17.8 10.6h9.36l4.78 8.29-8.11-2.1z" style="opacity:.1"/>
 <path d="m32.8 9-11.8 3.19-1.75 3.11-3.56-0.0273-8.67 8.72 8.67 8.72 3.56-0.0273 1.76 3.11 11.8 3.19 3.17-11.9-1.8-3.09 1.8-3.08v-0.00195l-3.17-11.9zm-5.2 4.71-4.79 8.29h-9.36l6.03-6.19 8.12-2.1zm3.62 1.73 2.37 8.56-2.37 8.55-4.94-8.55 4.94-8.56zm-17.8 10.6h9.36l4.78 8.29-8.11-2.1-6.03-6.19z" style="fill:#4a555e"/>
</svg>
