<svg version="1.1" viewBox="0 0 48 48" xmlns="http://www.w3.org/2000/svg">
 <defs>
  <linearGradient id="bg" x2="0" y1="1" y2="47" gradientUnits="userSpaceOnUse">
   <stop style="stop-color:#99ead8" offset="0"/>
   <stop style="stop-color:#88e7d2" offset="1"/>
  </linearGradient>
 </defs>
 <path d="m36.3 5c5.86 4.06 9.69 10.8 9.69 18.5 0 12.4-10.1 22.5-22.5 22.5-7.67 0-14.4-3.83-18.5-9.69 1.04 1.82 2.31 3.5 3.78 4.97 4.08 3.71 9.51 5.97 15.5 5.97 12.7 0 23-10.3 23-23 0-5.95-2.26-11.4-5.97-15.5-1.47-1.48-3.15-2.74-4.97-3.78zm4.97 3.78c3.85 4.11 6.22 9.64 6.22 15.7 0 12.7-10.3 23-23 23-6.08 0-11.6-2.36-15.7-6.22 4.16 4.14 9.88 6.72 16.2 6.72 12.7 0 23-10.3 23-23 0-6.34-2.58-12.1-6.72-16.2z" style="opacity:.05"/>
 <path d="m41.3 8.78c3.71 4.08 5.97 9.51 5.97 15.5 0 12.7-10.3 23-23 23-5.95 0-11.4-2.26-15.5-5.97 4.11 3.85 9.64 6.22 15.7 6.22 12.7 0 23-10.3 23-23 0-6.08-2.36-11.6-6.22-15.7z" style="opacity:.1"/>
 <path d="m31.2 2.38c8.62 3.15 14.8 11.4 14.8 21.1 0 12.4-10.1 22.5-22.5 22.5-9.71 0-18-6.14-21.1-14.8a23 23 0 0044.9-7 23 23 0 00-16-21.9z" style="opacity:.2"/>
 <circle cx="24" cy="24" r="23" style="fill:url(#bg)"/>
 <path d="m33 13-16.9 6.6-4.08 9.4c0 2.21 2.24 4 5 4s5-1.79 5-4l-3.66-8.43 5.4-2.02.268 15.5-5 1.5v1c0 .277.223.5.5.5h11c.277 0 .5-.223.5-.5v-1c0-.277-.23-.44-.5-.5l-4.5-1v-15.3c.516-.298.872-.811.971-1.4l4.17-1.56-3.14 7.24c0 2.21 2.24 4 5 4s5-1.79 5-4l-4.08-9.4c-.159-.366-.519-.602-.918-.602zm0 3.51 2.82 6.49h-5.64zm-16 6 2.82 6.49h-5.64z" style="opacity:.1"/>
 <path d="m40 7.53c3.71 4.08 5.97 9.51 5.97 15.5 0 12.7-10.3 23-23 23-5.95 0-11.4-2.26-15.5-5.97 4.18 4.29 10 6.97 16.5 6.97 12.7 0 23-10.3 23-23 0-6.46-2.68-12.3-6.97-16.5z" style="opacity:.1"/>
 <path d="m23 15v18l-4.5 1c-.27.0601-.5.223-.5.5v1c0 .277.223.5.5.5h11c.277 0 .5-.223.5-.5v-1c0-.277-.23-.44-.5-.5l-4.5-1v-18z" style="fill:#a08278"/>
 <path d="m31.6 12.1-16 6 .703 1.87 16-6z" style="fill:#a08278"/>
 <path d="m25 15a2 2 0 00-2 2 2 2 0 002 2v-2.31l1.75-.656a2 2 0 00-1.75-1.04z" style="opacity:.1"/>
 <path d="m32 12a1 1 0 00-.918.602l-4.08 9.4 1.83.797 3.17-7.29 3.17 7.29 1.83-.797-4.08-9.4a1 1 0 00-.918-.602zm-16 6a1 1 0 00-.918.602l-4.08 9.4 1.83.797 3.17-7.29 3.17 7.29 1.83-.797-4.08-9.4a1 1 0 00-.918-.602z" style="fill:#6b6b6b"/>
 <path d="m27 22a5 4 0 005 4 5 4 0 005-4zm-16 6a5 4 0 005 4 5 4 0 005-4z" style="fill:#999"/>
 <circle cx="24" cy="16" r="2" style="fill:#6b6b6b"/>
</svg>
