<svg version="1.1" viewBox="0 0 48 48" xmlns="http://www.w3.org/2000/svg">
 <defs>
  <linearGradient id="bg" x2="0" y1="1" y2="47" gradientUnits="userSpaceOnUse">
   <stop style="stop-color:#2a3644" offset="0"/>
   <stop style="stop-color:#222c38" offset="1"/>
  </linearGradient>
 </defs>
 <path d="m36.31 5c5.859 4.062 9.688 10.831 9.688 18.5 0 12.426-10.07 22.5-22.5 22.5-7.669 0-14.438-3.828-18.5-9.688 1.037 1.822 2.306 3.499 3.781 4.969 4.085 3.712 9.514 5.969 15.469 5.969 12.703 0 23-10.298 23-23 0-5.954-2.256-11.384-5.969-15.469-1.469-1.475-3.147-2.744-4.969-3.781zm4.969 3.781c3.854 4.113 6.219 9.637 6.219 15.719 0 12.703-10.297 23-23 23-6.081 0-11.606-2.364-15.719-6.219 4.16 4.144 9.883 6.719 16.219 6.719 12.703 0 23-10.298 23-23 0-6.335-2.575-12.06-6.719-16.219z" style="opacity:.05"/>
 <path d="m41.28 8.781c3.712 4.085 5.969 9.514 5.969 15.469 0 12.703-10.297 23-23 23-5.954 0-11.384-2.256-15.469-5.969 4.113 3.854 9.637 6.219 15.719 6.219 12.703 0 23-10.298 23-23 0-6.081-2.364-11.606-6.219-15.719z" style="opacity:.1"/>
 <path d="m31.25 2.375c8.615 3.154 14.75 11.417 14.75 21.13 0 12.426-10.07 22.5-22.5 22.5-9.708 0-17.971-6.135-21.12-14.75a23 23 0 0 0 44.875-7 23 23 0 0 0-16-21.875z" style="opacity:.2"/>
 <path d="m24 1c12.703 0 23 10.297 23 23s-10.297 23-23 23-23-10.297-23-23 10.297-23 23-23z" style="fill:url(#bg)"/>
 <path d="m40.03 7.531c3.712 4.084 5.969 9.514 5.969 15.469 0 12.703-10.297 23-23 23-5.954 0-11.384-2.256-15.469-5.969 4.178 4.291 10.01 6.969 16.469 6.969 12.703 0 23-10.298 23-23 0-6.462-2.677-12.291-6.969-16.469z" style="opacity:.1"/>
 <path d="m33.826 10.002-11.846 3.1934-1.752 3.1113-3.5586-0.027344-8.6699 8.7246 8.6699 8.7207 3.5566-0.02734 1.7559 3.1113 11.844 3.1914 3.1738-11.912-1.8027-3.0879 1.8027-3.082v-2e-3zm-5.1953 4.7109-4.7852 8.2891h-9.3594l6.0293-6.1895zm3.6211 1.7305 2.3711 8.5586-2.373 8.5547-4.9414-8.5547zm-17.764 10.559h9.3574l4.7832 8.2871-8.1133-2.0977z" style="opacity:.1"/>
 <path d="m32.826 9-11.846 3.1934-1.752 3.1113-3.5586-0.027344-8.6699 8.7246 8.6699 8.7207 3.5566-0.027344 1.7559 3.1113 11.844 3.1914 3.1738-11.912-1.8027-3.0879 1.8027-3.082v-0.001954l-3.1738-11.914zm-5.1953 4.7109-4.7852 8.2891h-9.3594l6.0293-6.1895 8.1152-2.0996zm3.6211 1.7305 2.3711 8.5586-2.373 8.5547-4.9414-8.5547 4.9434-8.5586zm-17.764 10.559h9.3574l4.7832 8.2871-8.1133-2.0977-6.0273-6.1895z" style="fill:#e8eef2"/>
</svg>
