<svg xmlns="http://www.w3.org/2000/svg" viewBox="0 0 48 48">
 <defs>
  <linearGradient id="linearGradient4223" y1="1" x2="0" y2="47" gradientUnits="userSpaceOnUse">
   <stop style="stop-color:#2a3644;stop-opacity:1"/>
   <stop offset="1" style="stop-color:#222c38;stop-opacity:1"/>
  </linearGradient>
 </defs>
 <g>
  <path d="m 36.31 5 c 5.859 4.062 9.688 10.831 9.688 18.5 c 0 12.426 -10.07 22.5 -22.5 22.5 c -7.669 0 -14.438 -3.828 -18.5 -9.688 c 1.037 1.822 2.306 3.499 3.781 4.969 c 4.085 3.712 9.514 5.969 15.469 5.969 c 12.703 0 23 -10.298 23 -23 c 0 -5.954 -2.256 -11.384 -5.969 -15.469 c -1.469 -1.475 -3.147 -2.744 -4.969 -3.781 z m 4.969 3.781 c 3.854 4.113 6.219 9.637 6.219 15.719 c 0 12.703 -10.297 23 -23 23 c -6.081 0 -11.606 -2.364 -15.719 -6.219 c 4.16 4.144 9.883 6.719 16.219 6.719 c 12.703 0 23 -10.298 23 -23 c 0 -6.335 -2.575 -12.06 -6.719 -16.219 z" style="opacity:0.05"/>
  <path d="m 41.28 8.781 c 3.712 4.085 5.969 9.514 5.969 15.469 c 0 12.703 -10.297 23 -23 23 c -5.954 0 -11.384 -2.256 -15.469 -5.969 c 4.113 3.854 9.637 6.219 15.719 6.219 c 12.703 0 23 -10.298 23 -23 c 0 -6.081 -2.364 -11.606 -6.219 -15.719 z" style="opacity:0.1"/>
  <path d="m 31.25 2.375 c 8.615 3.154 14.75 11.417 14.75 21.13 c 0 12.426 -10.07 22.5 -22.5 22.5 c -9.708 0 -17.971 -6.135 -21.12 -14.75 a 23 23 0 0 0 44.875 -7 a 23 23 0 0 0 -16 -21.875 z" style="opacity:0.2"/>
 </g>
 <g style="fill:url(#linearGradient4223);fill-opacity:1">
  <path d="m 24 1 c 12.703 0 23 10.297 23 23 c 0 12.703 -10.297 23 -23 23 -12.703 0 -23 -10.297 -23 -23 0 -12.703 10.297 -23 23 -23 z"/>
 </g>
 <g>
  <path d="m 40.03 7.531 c 3.712 4.084 5.969 9.514 5.969 15.469 0 12.703 -10.297 23 -23 23 c -5.954 0 -11.384 -2.256 -15.469 -5.969 4.178 4.291 10.01 6.969 16.469 6.969 c 12.703 0 23 -10.298 23 -23 0 -6.462 -2.677 -12.291 -6.969 -16.469 z" style="opacity:0.1"/>
 </g>
 <path d="m 25.908 24 5.202 -9.07 2.514 9.07 -2.514 9.06 -5.202 -9.06 z m -2.535 1.472 5.203 9.06 -9.06 -2.343 -6.546 -6.721 10.404 0 z m 5.201 -12.01 -5.201 9.07 -10.404 0 6.546 -6.722 9.06 -2.344 z m 7.426 7.454 -3.174 -11.916 -11.845 3.193 -1.753 3.111 -3.558 -0.026 -8.67 8.723 l 8.67 8.721 0 0 3.556 -0.027 1.756 3.111 l 11.844 3.193 3.174 -11.914 -1.802 -3.086 1.802 -3.085" style="fill:#e8eef2;opacity:0.25;fill-opacity:1;stroke:none;fill-rule:nonzero"/>
 <g transform="matrix(0.92290665,0,0,0.92290665,2.8495356,2.6800702)" style="fill:#000;opacity:0.1;stroke:#000">
  <g style="fill:#000;stroke:#000">
   <!-- color: #6e90bb -->
   <g style="fill:#000;stroke:#000">
    <path transform="matrix(2.385496,0,0,2.368665,-25.777381,-663.45245)" d="m 16.889 294.2 c -0.521 -1.265 -1.213 -2.378 -1.228 -4.441 -0.016 -2.132 1.813 -3.513 3.259 -3.513 1.749 0 3.29 1.478 3.37 2.7 0.074 1.105 -0.319 2.711 -2.348 2.701 -0.968 -0.008 -1.975 -0.849 -1.98 -2.104 -0.008 -1.351 1.687 -1.484 2.116 -1.141 0.165 0.135 0.16 0.399 0.013 0.351 -0.912 -0.297 -1.477 0.29 -1.433 0.871 0.056 0.793 0.526 1.263 1.366 1.301 1.213 0.059 1.552 -1.12 1.521 -1.6 -0.039 -0.582 -0.545 -1.779 -2.124 -1.997 -0.745 -0.104 -1.364 0.119 -1.814 0.556 -0.452 0.44 -0.706 0.892 -0.742 1.634 -0.039 0.767 0.128 1.217 0.588 2.225 0.164 0.36 0.622 1.085 0.976 1.812 l -1.539 0.642 m 0 0.003" style="stroke-opacity:1;fill:#000;stroke-miterlimit:4;fill-opacity:1;stroke:#000;fill-rule:nonzero;stroke-linecap:butt;stroke-linejoin:miter;stroke-width:0.489"/>
    <path transform="matrix(2.385496,0,0,2.368665,-25.777381,-663.45245)" d="m 24.879 286.25 c 0.522 1.263 1.215 2.376 1.23 4.441 0.016 2.132 -1.813 3.511 -3.259 3.511 -1.75 0 -3.29 -1.478 -3.37 -2.701 -0.074 -1.105 0.319 -2.711 2.348 -2.7 0.969 0.007 1.976 0.849 1.981 2.103 0.007 1.352 -1.69 1.486 -2.117 1.141 -0.165 -0.134 -0.16 -0.399 -0.015 -0.351 0.914 0.297 1.477 -0.289 1.436 -0.871 -0.057 -0.792 -0.526 -1.262 -1.367 -1.301 -1.213 -0.058 -1.552 1.121 -1.521 1.601 0.038 0.582 0.545 1.779 2.124 1.997 0.745 0.104 1.364 -0.119 1.814 -0.557 0.45 -0.439 0.706 -0.891 0.742 -1.633 0.038 -0.767 -0.129 -1.217 -0.588 -2.225 -0.164 -0.361 -0.622 -1.085 -0.978 -1.812 l 1.541 -0.643 m -0.002 0" style="stroke-opacity:1;fill:#000;stroke-miterlimit:4;fill-opacity:1;stroke:#000;fill-rule:nonzero;stroke-linecap:butt;stroke-linejoin:miter;stroke-width:0.417"/>
   </g>
  </g>
 </g>
 <g transform="matrix(0.92290665,0,0,0.92290665,1.8495356,1.6800702)">
  <g>
   <!-- color: #6e90bb -->
   <g>
    <path d="m 16.889 294.2 c -0.521 -1.265 -1.213 -2.378 -1.228 -4.441 -0.016 -2.132 1.813 -3.513 3.259 -3.513 1.749 0 3.29 1.478 3.37 2.7 0.074 1.105 -0.319 2.711 -2.348 2.701 -0.968 -0.008 -1.975 -0.849 -1.98 -2.104 -0.008 -1.351 1.687 -1.484 2.116 -1.141 0.165 0.135 0.16 0.399 0.013 0.351 -0.912 -0.297 -1.477 0.29 -1.433 0.871 0.056 0.793 0.526 1.263 1.366 1.301 1.213 0.059 1.552 -1.12 1.521 -1.6 -0.039 -0.582 -0.545 -1.779 -2.124 -1.997 -0.745 -0.104 -1.364 0.119 -1.814 0.556 -0.452 0.44 -0.706 0.892 -0.742 1.634 -0.039 0.767 0.128 1.217 0.588 2.225 0.164 0.36 0.622 1.085 0.976 1.812 l -1.539 0.642 m 0 0.003" transform="matrix(2.385496,0,0,2.368665,-25.777381,-663.45245)" style="stroke-opacity:1;fill:#fff;stroke-miterlimit:4;fill-opacity:1;stroke:#6e8db2;fill-rule:nonzero;stroke-linecap:butt;stroke-linejoin:miter;stroke-width:0.489"/>
    <path d="m 24.879 286.25 c 0.522 1.263 1.215 2.376 1.23 4.441 0.016 2.132 -1.813 3.511 -3.259 3.511 -1.75 0 -3.29 -1.478 -3.37 -2.701 -0.074 -1.105 0.319 -2.711 2.348 -2.7 0.969 0.007 1.976 0.849 1.981 2.103 0.007 1.352 -1.69 1.486 -2.117 1.141 -0.165 -0.134 -0.16 -0.399 -0.015 -0.351 0.914 0.297 1.477 -0.289 1.436 -0.871 -0.057 -0.792 -0.526 -1.262 -1.367 -1.301 -1.213 -0.058 -1.552 1.121 -1.521 1.601 0.038 0.582 0.545 1.779 2.124 1.997 0.745 0.104 1.364 -0.119 1.814 -0.557 0.45 -0.439 0.706 -0.891 0.742 -1.633 0.038 -0.767 -0.129 -1.217 -0.588 -2.225 -0.164 -0.361 -0.622 -1.085 -0.978 -1.812 l 1.541 -0.643 m -0.002 0" transform="matrix(2.385496,0,0,2.368665,-25.777381,-663.45245)" style="stroke-opacity:1;fill:#a9c1e3;stroke-miterlimit:4;fill-opacity:1;stroke:#6e8db2;fill-rule:nonzero;stroke-linecap:butt;stroke-linejoin:miter;stroke-width:0.417"/>
   </g>
  </g>
 </g>
</svg>
