<svg version="1.1" viewBox="0 0 48 48" xmlns="http://www.w3.org/2000/svg">
 <defs>
  <linearGradient id="linearGradient840" x1="1" x2="47" gradientUnits="userSpaceOnUse">
   <stop style="stop-color:#c9d3df" offset="0"/>
   <stop style="stop-color:#d5dde7" offset="1"/>
  </linearGradient>
 </defs>
 <path d="m36.31 5c5.859 4.062 9.688 10.831 9.688 18.5 0 12.426-10.07 22.5-22.5 22.5-7.669 0-14.438-3.828-18.5-9.688 1.037 1.822 2.306 3.499 3.781 4.969 4.085 3.712 9.514 5.969 15.469 5.969 12.703 0 23-10.298 23-23 0-5.954-2.256-11.384-5.969-15.469-1.469-1.475-3.147-2.744-4.969-3.781zm4.969 3.781c3.854 4.113 6.219 9.637 6.219 15.719 0 12.703-10.297 23-23 23-6.081 0-11.606-2.364-15.719-6.219 4.16 4.144 9.883 6.719 16.219 6.719 12.703 0 23-10.298 23-23 0-6.335-2.575-12.06-6.719-16.219z" style="opacity:.05"/>
 <path d="m41.28 8.781c3.712 4.085 5.969 9.514 5.969 15.469 0 12.703-10.297 23-23 23-5.954 0-11.384-2.256-15.469-5.969 4.113 3.854 9.637 6.219 15.719 6.219 12.703 0 23-10.298 23-23 0-6.081-2.364-11.606-6.219-15.719z" style="opacity:.1"/>
 <path d="m31.25 2.375c8.615 3.154 14.75 11.417 14.75 21.13 0 12.426-10.07 22.5-22.5 22.5-9.708 0-17.971-6.135-21.12-14.75a23 23 0 0 0 44.875-7 23 23 0 0 0-16-21.875z" style="opacity:.2"/>
 <g transform="matrix(0,-1,1,0,0,48)" style="fill:#501616">
  <path d="m24 1c12.703 0 23 10.297 23 23s-10.297 23-23 23-23-10.297-23-23 10.297-23 23-23z" style="fill:url(#linearGradient840)"/>
 </g>
 <path d="m17 15v6l-1 2-3 3v4l1 1v1h5v-1h12v1h5v-1l1-1v-4l-3-3-1-2v-6h-1v6l-0.76758 1.5352c-3.5374-0.36434-8.9274-0.36434-12.465 0l-0.76758-1.5352v-6h-1z" style="fill:#191919;opacity:.1"/>
 <path d="m40.03 7.531c3.712 4.084 5.969 9.514 5.969 15.469 0 12.703-10.297 23-23 23-5.954 0-11.384-2.256-15.469-5.969 4.178 4.291 10.01 6.969 16.469 6.969 12.703 0 23-10.298 23-23 0-6.462-2.677-12.291-6.969-16.469z" style="opacity:.1"/>
 <path d="m16 14v6l-1 2h3l-1-2v-6h-1zm15 0v6l-1 2h3l-1-2v-6h-1z" style="fill:#191919"/>
 <path d="m33 22 2 2-1 1h-20l-1-1 2-2c3-1 15-1 18 0z" style="fill:#323232"/>
 <path d="m12 25 1-1h4c1-1 5-1 7-1s6 0 7 1h4l1 1-1 1h-22z" style="fill:#4176af"/>
 <path d="m12 25v4l1 1v1h5v-1h12v1h5v-1l1-1v-4h-24z" style="fill:#1e4c85"/>
 <circle cx="32.5" cy="27.5" r=".5" style="fill:#67bc2c;paint-order:stroke fill markers"/>
 <rect x="13" y="26" width="9" height="3" style="fill:#323232;paint-order:stroke fill markers"/>
 <circle cx="20.5" cy="27.5" r=".5" style="fill:#67bc2c;paint-order:stroke fill markers"/>
 <circle cx="18.5" cy="27.5" r=".5" style="fill:#67bc2c;paint-order:stroke fill markers"/>
 <rect x="14" y="27" width="3" height="1" style="fill:#7c8081;paint-order:stroke fill markers"/>
 <rect x="22" y="26" width="4" height="3" style="fill:#4d504e;paint-order:stroke fill markers"/>
</svg>
