<svg version="1.1" viewBox="0 0 48 48" xmlns="http://www.w3.org/2000/svg">
 <defs>
  <linearGradient id="bg" x1="1" x2="47" gradientTransform="matrix(0 -1 1 0 -1.5e-6 48)" gradientUnits="userSpaceOnUse">
   <stop style="stop-color:#3d4751" offset="0"/>
   <stop style="stop-color:#464d5d" offset="1"/>
  </linearGradient>
  <radialGradient id="radialGradient4262" cx="24" cy="18" r="4.5" gradientUnits="userSpaceOnUse">
   <stop style="stop-color:#f5f5af" offset="0"/>
   <stop style="stop-color:#f1f18b" offset="1"/>
  </radialGradient>
 </defs>
 <path d="m36.3 5c5.86 4.06 9.69 10.8 9.69 18.5 0 12.4-10.1 22.5-22.5 22.5-7.67 0-14.4-3.83-18.5-9.69 1.04 1.82 2.31 3.5 3.78 4.97 4.08 3.71 9.51 5.97 15.5 5.97 12.7 0 23-10.3 23-23 0-5.95-2.26-11.4-5.97-15.5-1.47-1.48-3.15-2.74-4.97-3.78zm4.97 3.78c3.85 4.11 6.22 9.64 6.22 15.7 0 12.7-10.3 23-23 23-6.08 0-11.6-2.36-15.7-6.22 4.16 4.14 9.88 6.72 16.2 6.72 12.7 0 23-10.3 23-23 0-6.34-2.58-12.1-6.72-16.2z" style="opacity:.05"/>
 <path d="m41.3 8.78c3.71 4.08 5.97 9.51 5.97 15.5 0 12.7-10.3 23-23 23-5.95 0-11.4-2.26-15.5-5.97 4.11 3.85 9.64 6.22 15.7 6.22 12.7 0 23-10.3 23-23 0-6.08-2.36-11.6-6.22-15.7z" style="opacity:.1"/>
 <path d="m31.2 2.38c8.62 3.15 14.8 11.4 14.8 21.1 0 12.4-10.1 22.5-22.5 22.5-9.71 0-18-6.14-21.1-14.8a23 23 0 0 0 44.9-7 23 23 0 0 0-16-21.9z" style="opacity:.2"/>
 <path d="m24 1c12.7 0 23 10.3 23 23s-10.3 23-23 23-23-10.3-23-23 10.3-23 23-23z" style="fill:url(#bg)"/>
 <path d="m25 12-8 3h3.08l1.5 9h2.42v11l-1 1v2h4v-2c0-0.554-0.446-1-1-1v-11h2.42l1.5-9h3.08l-8-3" style="opacity:.1"/>
 <path d="m40 7.53c3.71 4.08 5.97 9.51 5.97 15.5 0 12.7-10.3 23-23 23-5.95 0-11.4-2.26-15.5-5.97 4.18 4.29 10 6.97 16.5 6.97 12.7 0 23-10.3 23-23 0-6.46-2.68-12.3-6.97-16.5z" style="opacity:.1"/>
 <path d="m21 22.5h6l1.5-9h-9z" style="fill:url(#radialGradient4262)"/>
 <path d="m23 22.5v11.5c-0.554 0-1 0.446-1 1v2h4v-2c0-0.554-0.446-1-1-1v-11.5h-2z" style="fill:#858585"/>
 <path d="m18.9 13 1.67 10h6.85l1.67-10zm1.18 1h7.82l-1.33 8h-5.15z" style="fill:#858585"/>
 <path d="m24 11 8 3h-16z" style="fill:#858585"/>
 <path d="m19.1 14 0.166 1h9.48l0.166-1z" style="opacity:.1"/>
 <rect x="23" y="23" width="2" height="1" style="opacity:.1"/>
</svg>
