<svg version="1.1" viewBox="0 0 48 48" xmlns="http://www.w3.org/2000/svg">
 <defs>
  <linearGradient id="bg" x1="1" x2="47" gradientTransform="matrix(0 -1 1 0 -1.5e-6 48)" gradientUnits="userSpaceOnUse">
   <stop style="stop-color:#cfbcad" offset="0"/>
   <stop style="stop-color:#d6c6b9" offset="1"/>
  </linearGradient>
 </defs>
 <path d="m36.3 5c5.86 4.06 9.69 10.8 9.69 18.5 0 12.4-10.1 22.5-22.5 22.5-7.67 0-14.4-3.83-18.5-9.69 1.04 1.82 2.31 3.5 3.78 4.97 4.08 3.71 9.51 5.97 15.5 5.97 12.7 0 23-10.3 23-23 0-5.95-2.26-11.4-5.97-15.5-1.47-1.48-3.15-2.74-4.97-3.78zm4.97 3.78c3.85 4.11 6.22 9.64 6.22 15.7 0 12.7-10.3 23-23 23-6.08 0-11.6-2.36-15.7-6.22 4.16 4.14 9.88 6.72 16.2 6.72 12.7 0 23-10.3 23-23 0-6.34-2.58-12.1-6.72-16.2z" style="opacity:.05"/>
 <path d="m41.3 8.78c3.71 4.08 5.97 9.51 5.97 15.5 0 12.7-10.3 23-23 23-5.95 0-11.4-2.26-15.5-5.97 4.11 3.85 9.64 6.22 15.7 6.22 12.7 0 23-10.3 23-23 0-6.08-2.36-11.6-6.22-15.7z" style="opacity:.1"/>
 <path d="m31.2 2.38c8.62 3.15 14.8 11.4 14.8 21.1 0 12.4-10.1 22.5-22.5 22.5-9.71 0-18-6.14-21.1-14.8a23 23 0 0 0 44.9-7 23 23 0 0 0-16-21.9z" style="opacity:.2"/>
 <path d="m24 1c12.7 0 23 10.3 23 23s-10.3 23-23 23-23-10.3-23-23 10.3-23 23-23z" style="fill:url(#bg)"/>
 <path d="m13 30.5c0 1.38 1.12 2.5 2.5 2.5h1.5v4h4v-4h8v4h4v-4h1.5c1.38 0 2.5-1.12 2.5-2.5v-15c0-1.38-1.12-2.5-2.5-2.5z" style="opacity:.1"/>
 <path d="m16 28v8h4v-8h-4zm12 0v8h4v-8h-4z" style="fill:#474747"/>
 <path d="m16 32v1h4v-1h-4zm12 0v1h4v-1h-4z" style="opacity:.1"/>
 <path d="m40 7.53c3.71 4.08 5.97 9.51 5.97 15.5 0 12.7-10.3 23-23 23-5.95 0-11.4-2.26-15.5-5.97 4.18 4.29 10 6.97 16.5 6.97 12.7 0 23-10.3 23-23 0-6.46-2.68-12.3-6.97-16.5z" style="opacity:.1"/>
 <rect x="12" y="12" width="24" height="20" rx="2.5" style="fill:#6f6751"/>
 <rect x="14" y="14" width="20" height="16" rx="1" style="fill:#dad4c2"/>
 <path d="m27 15c-2.21 0-4 1.79-4 4 0 0.554 0.112 1.08 0.317 1.56l-5.88 5.88c-0.588 0.588-0.588 1.53 0 2.12 0.588 0.588 1.53 0.588 2.12 0l5.88-5.88c0.48 0.204 1.01 0.317 1.56 0.317 2.21 0 4-1.79 4-4 0-0.536-0.11-1.07-0.32-1.56l-2.27 2.27c-0.588 0.588-1.53 0.588-2.12 0-0.588-0.588-0.588-1.53 0-2.12l2.27-2.27c-0.494-0.209-1.02-0.318-1.56-0.319z" style="fill:#474747"/>
</svg>
