<svg xmlns="http://www.w3.org/2000/svg" viewBox="0 0 48 48">
 <defs>
  <linearGradient id="linearGradient4203" y1="47" x2="0" y2="1" gradientUnits="userSpaceOnUse">
   <stop style="stop-color:#e42053;stop-opacity:1"/>
   <stop offset="1" style="stop-color:#e63261;stop-opacity:1"/>
  </linearGradient>
 </defs>
 <g>
  <path d="m 36.31 5 c 5.859 4.062 9.688 10.831 9.688 18.5 c 0 12.426 -10.07 22.5 -22.5 22.5 c -7.669 0 -14.438 -3.828 -18.5 -9.688 c 1.037 1.822 2.306 3.499 3.781 4.969 c 4.085 3.712 9.514 5.969 15.469 5.969 c 12.703 0 23 -10.298 23 -23 c 0 -5.954 -2.256 -11.384 -5.969 -15.469 c -1.469 -1.475 -3.147 -2.744 -4.969 -3.781 z m 4.969 3.781 c 3.854 4.113 6.219 9.637 6.219 15.719 c 0 12.703 -10.297 23 -23 23 c -6.081 0 -11.606 -2.364 -15.719 -6.219 c 4.16 4.144 9.883 6.719 16.219 6.719 c 12.703 0 23 -10.298 23 -23 c 0 -6.335 -2.575 -12.06 -6.719 -16.219 z" style="opacity:0.05"/>
  <path d="m 41.28 8.781 c 3.712 4.085 5.969 9.514 5.969 15.469 c 0 12.703 -10.297 23 -23 23 c -5.954 0 -11.384 -2.256 -15.469 -5.969 c 4.113 3.854 9.637 6.219 15.719 6.219 c 12.703 0 23 -10.298 23 -23 c 0 -6.081 -2.364 -11.606 -6.219 -15.719 z" style="opacity:0.1"/>
  <path d="m 31.25 2.375 c 8.615 3.154 14.75 11.417 14.75 21.13 c 0 12.426 -10.07 22.5 -22.5 22.5 c -9.708 0 -17.971 -6.135 -21.12 -14.75 a 23 23 0 0 0 44.875 -7 a 23 23 0 0 0 -16 -21.875 z" style="opacity:0.2"/>
 </g>
 <g>
  <path d="m 24 1 c 12.703 0 23 10.297 23 23 c 0 12.703 -10.297 23 -23 23 -12.703 0 -23 -10.297 -23 -23 0 -12.703 10.297 -23 23 -23 z" style="fill:url(#linearGradient4203);fill-opacity:1"/>
 </g>
 <g>
  <g>
   <g transform="translate(1,1)">
    <g style="opacity:0.1">
     <!-- color: #515151 -->
     <g>
      <path d="m 33.34 13 c -2.066 0 -3.113 0.723 -3.938 1.723 c -0.824 1 -1.316 2.332 -1.879 3.477 c -0.379 0.77 -1.227 3.629 -2.01 6.328 c -0.391 1.352 -0.777 2.691 -1.145 3.809 c -0.363 1.117 -0.641 1.953 -1.063 2.594 c -0.695 1.055 -1.813 1.652 -2.938 1.652 c -0.395 0 -0.789 -0.074 -1.168 -0.219 c 1.336 1.879 4.414 4.926 8.01 -0.152 c 2.484 -3.52 3.316 -11.1 5.086 -13.953 c 2.23 -3.629 3.355 -2.773 3.633 -2.469 c 0.051 -0.297 0.078 -0.605 0.063 -0.902 c -0.023 -0.547 -0.16 -0.965 -0.48 -1.273 c -0.32 -0.313 -0.922 -0.605 -2.176 -0.605 m 0 0" style="fill:#000;fill-opacity:1;stroke:none;fill-rule:nonzero"/>
      <path d="m 16.523 16.199 c 0.531 0.609 0.957 1.383 1.215 2.293 c 0.574 2.039 0.684 4.57 0.813 6.797 c 0.066 1.117 0.133 2.152 0.238 2.965 c 0.105 0.813 0.309 1.418 0.371 1.508 c 0.34 0.52 0.777 0.715 1.211 0.715 c 0.434 0 0.871 -0.195 1.211 -0.715 c 0.09 -0.137 0.418 -0.895 0.742 -1.852 c -0.547 -0.234 -1.34 -1.531 -1.953 -6.5 c -0.352 -2.867 -2.422 -4.449 -3.848 -5.211 m 0 0" style="fill:#000;fill-opacity:1;stroke:none;fill-rule:nonzero"/>
      <path d="m 13.25 16.711 c -0.262 0 -0.484 0.074 -0.66 0.199 c -0.234 0.164 -0.438 0.434 -0.531 0.992 l -0.059 -0.012 c 0.039 1.531 1.035 2.543 1.035 2.543 c 0 0 0 -1.055 1.035 -1.578 c 0.563 -0.285 1.258 0.176 1.785 0.66 c -0.035 -0.152 -0.074 -0.301 -0.113 -0.445 c -0.422 -1.496 -1.43 -2.211 -2.211 -2.336 c -0.098 -0.016 -0.191 -0.023 -0.281 -0.023 m 0 0" style="fill:#000;fill-opacity:1;stroke:none;fill-rule:nonzero"/>
     </g>
    </g>
   </g>
  </g>
 </g>
 <g>
  <g>
   <!-- color: #515151 -->
   <g>
    <path d="m 33.34 13 c -2.066 0 -3.113 0.723 -3.938 1.723 c -0.824 1 -1.316 2.332 -1.879 3.477 c -0.379 0.77 -1.227 3.629 -2.01 6.328 c -0.391 1.352 -0.777 2.691 -1.145 3.809 c -0.363 1.117 -0.641 1.953 -1.063 2.594 c -0.695 1.055 -1.813 1.652 -2.938 1.652 c -0.395 0 -0.789 -0.074 -1.168 -0.219 c 1.336 1.879 4.414 4.926 8.01 -0.152 c 2.484 -3.52 3.316 -11.1 5.086 -13.953 c 2.23 -3.629 3.355 -2.773 3.633 -2.469 c 0.051 -0.297 0.078 -0.605 0.063 -0.902 c -0.023 -0.547 -0.16 -0.965 -0.48 -1.273 c -0.32 -0.313 -0.922 -0.605 -2.176 -0.605 m 0 0" style="fill:#fff;fill-opacity:1;stroke:none;fill-rule:nonzero"/>
    <path d="m 16.523 16.199 c 0.531 0.609 0.957 1.383 1.215 2.293 c 0.574 2.039 0.684 4.57 0.813 6.797 c 0.066 1.117 0.133 2.152 0.238 2.965 c 0.105 0.813 0.309 1.418 0.371 1.508 c 0.34 0.52 0.777 0.715 1.211 0.715 c 0.434 0 0.871 -0.195 1.211 -0.715 c 0.09 -0.137 0.418 -0.895 0.742 -1.852 c -0.547 -0.234 -1.34 -1.531 -1.953 -6.5 c -0.352 -2.867 -2.422 -4.449 -3.848 -5.211 m 0 0" style="fill:#fff;fill-opacity:1;stroke:none;fill-rule:nonzero"/>
    <path d="m 13.25 16.711 c -0.262 0 -0.484 0.074 -0.66 0.199 -0.234 0.164 -0.532 0.418 -0.59 0.992 l 0 -0.012 c 0.039 1.531 1.035 2.543 1.035 2.543 0 0 0 -1.055 1.035 -1.578 0.563 -0.285 1.258 0.176 1.785 0.66 c -0.035 -0.152 -0.074 -0.301 -0.113 -0.445 -0.422 -1.496 -1.43 -2.211 -2.211 -2.336 -0.098 -0.016 -0.191 -0.023 -0.281 -0.023" style="fill:#fff;fill-opacity:1;stroke:none;fill-rule:nonzero"/>
   </g>
  </g>
 </g>
 <g>
  <path d="m 40.03 7.531 c 3.712 4.084 5.969 9.514 5.969 15.469 0 12.703 -10.297 23 -23 23 c -5.954 0 -11.384 -2.256 -15.469 -5.969 4.178 4.291 10.01 6.969 16.469 6.969 c 12.703 0 23 -10.298 23 -23 0 -6.462 -2.677 -12.291 -6.969 -16.469 z" style="opacity:0.1"/>
 </g>
</svg>
