<svg xmlns="http://www.w3.org/2000/svg" xmlns:xlink="http://www.w3.org/1999/xlink" viewBox="0 0 48 48">
 <defs>
  <linearGradient id="linearGradient3819">
   <stop style="stop-color:#a49481;stop-opacity:1"/>
   <stop offset="1" style="stop-color:#ad9e8d;stop-opacity:1"/>
  </linearGradient>
  <linearGradient xlink:href="#linearGradient3819" id="linearGradient3826" x1="1" x2="47" gradientUnits="userSpaceOnUse"/>
  <linearGradient xlink:href="#linearGradient3819" id="linearGradient3850" gradientUnits="userSpaceOnUse" x1="1" x2="47" gradientTransform="translate(-0.05084746,0.12711864)"/>
 </defs>
 <g>
  <path d="m 36.31 5 c 5.859 4.062 9.688 10.831 9.688 18.5 c 0 12.426 -10.07 22.5 -22.5 22.5 c -7.669 0 -14.438 -3.828 -18.5 -9.688 c 1.037 1.822 2.306 3.499 3.781 4.969 c 4.085 3.712 9.514 5.969 15.469 5.969 c 12.703 0 23 -10.298 23 -23 c 0 -5.954 -2.256 -11.384 -5.969 -15.469 c -1.469 -1.475 -3.147 -2.744 -4.969 -3.781 z m 4.969 3.781 c 3.854 4.113 6.219 9.637 6.219 15.719 c 0 12.703 -10.297 23 -23 23 c -6.081 0 -11.606 -2.364 -15.719 -6.219 c 4.16 4.144 9.883 6.719 16.219 6.719 c 12.703 0 23 -10.298 23 -23 c 0 -6.335 -2.575 -12.06 -6.719 -16.219 z" style="opacity:0.05"/>
  <path d="m 41.28 8.781 c 3.712 4.085 5.969 9.514 5.969 15.469 c 0 12.703 -10.297 23 -23 23 c -5.954 0 -11.384 -2.256 -15.469 -5.969 c 4.113 3.854 9.637 6.219 15.719 6.219 c 12.703 0 23 -10.298 23 -23 c 0 -6.081 -2.364 -11.606 -6.219 -15.719 z" style="opacity:0.1"/>
  <path d="m 31.25 2.375 c 8.615 3.154 14.75 11.417 14.75 21.13 c 0 12.426 -10.07 22.5 -22.5 22.5 c -9.708 0 -17.971 -6.135 -21.12 -14.75 a 23 23 0 0 0 44.875 -7 a 23 23 0 0 0 -16 -21.875 z" style="opacity:0.2"/>
 </g>
 <g transform="matrix(0,-1,1,0,0,48)" style="fill:url(#linearGradient3826);fill-opacity:1">
  <path d="m 23.949 1.127 c 12.703 0 23 10.297 23 23 0 12.703 -10.297 23 -23 23 -12.703 0 -23 -10.297 -23 -23 0 -12.703 10.297 -23 23 -23 z" style="fill:url(#linearGradient3850)"/>
 </g>
 <path d="m 22.719 12.06 c -0.278 0 -0.568 0.004 -0.844 0.031 -1.103 0.109 -2.149 0.505 -3.063 1 -1.828 0.991 -3.418 2.453 -4.719 4.094 -1.3 1.64 -2.314 3.432 -2.813 5.281 -0.249 0.925 -0.399 1.877 -0.188 2.938 0.172 0.865 0.707 1.807 1.469 2.469 0.121 0.105 0.242 0.192 0.375 0.281 0.057 0.038 0.097 0.09 0.156 0.125 l 0.031 -0.031 c 0.345 0.191 0.734 0.313 1.156 0.313 1.327 0 2.406 -1.079 2.406 -2.406 -0.264 -0.558 -0.413 -1.166 -0.688 -1.719 0.005 0.026 -0.022 -0.26 0.094 -0.688 0.231 -0.855 0.972 -2.22 1.938 -3.438 0.965 -1.217 2.178 -2.314 3.156 -2.844 0.941 -0.51 1.32 -0.448 1.531 -0.344 0.023 0.124 0.038 0.543 -0.125 1.188 -0.335 1.322 -1.308 3.351 -2.406 5.438 -1.098 2.086 -2.313 4.248 -3.094 6.344 -0.39 1.048 -0.686 2.066 -0.719 3.219 -0.033 1.153 0.299 2.595 1.313 3.594 l 0.031 0.031 0.031 0.031 c 0.752 0.693 2.086 0.863 2.844 0.656 0.758 -0.207 1.194 -0.552 1.594 -0.875 0.799 -0.647 1.47 -1.386 2.219 -2.313 1.497 -1.853 3.243 -4.315 5.156 -6.719 1.914 -2.404 3.977 -4.729 5.875 -6.188 1.898 -1.458 3.338 -1.881 4.344 -1.594 0.181 0.041 0.369 0.063 0.563 0.063 1.379 0 2.5 -1.121 2.5 -2.5 0 -1.105 -0.693 -2.046 -1.688 -2.375 -0.094 -0.027 -0.188 -0.04 -0.281 -0.063 -3.098 -0.756 -6.04 0.637 -8.469 2.5 -2.498 1.919 -4.76 4.493 -6.781 7.03 -0.331 0.416 -0.526 0.683 -0.844 1.094 1.062 -2.02 2.127 -4.065 2.656 -6.156 0.281 -1.11 0.43 -2.254 0.156 -3.5 -0.273 -1.246 -1.143 -2.54 -2.344 -3.25 l -0.031 -0.031 -0.031 0 c -0.805 -0.447 -1.634 -0.658 -2.469 -0.688 z" style="visibility:visible;fill:#000;opacity:0.1;fill-opacity:1;stroke:none;display:inline;color:#000"/>
 <g>
  <path d="m 40.03 7.531 c 3.712 4.084 5.969 9.514 5.969 15.469 0 12.703 -10.297 23 -23 23 c -5.954 0 -11.384 -2.256 -15.469 -5.969 4.178 4.291 10.01 6.969 16.469 6.969 c 12.703 0 23 -10.298 23 -23 0 -6.462 -2.677 -12.291 -6.969 -16.469 z" style="opacity:0.1"/>
 </g>
 <path d="m 21.719 11.06 c -0.278 0 -0.568 0.004 -0.844 0.031 c -1.103 0.109 -2.149 0.505 -3.063 1 c -1.828 0.991 -3.418 2.453 -4.719 4.094 c -1.3 1.64 -2.314 3.432 -2.813 5.281 c -0.249 0.925 -0.399 1.877 -0.188 2.938 c 0.172 0.865 0.707 1.807 1.469 2.469 c 0.121 0.105 0.242 0.192 0.375 0.281 c 0.057 0.038 0.097 0.09 0.156 0.125 l 0.031 -0.031 c 0.345 0.191 0.734 0.313 1.156 0.313 c 1.327 0 2.406 -1.079 2.406 -2.406 c -0.264 -0.558 -0.413 -1.166 -0.688 -1.719 c 0.005 0.026 -0.022 -0.26 0.094 -0.688 c 0.231 -0.855 0.972 -2.22 1.938 -3.438 c 0.965 -1.217 2.178 -2.314 3.156 -2.844 c 0.941 -0.51 1.32 -0.448 1.531 -0.344 c 0.023 0.124 0.038 0.543 -0.125 1.188 c -0.335 1.322 -1.308 3.351 -2.406 5.438 c -1.098 2.086 -2.313 4.248 -3.094 6.344 c -0.39 1.048 -0.686 2.066 -0.719 3.219 c -0.033 1.153 0.299 2.595 1.313 3.594 l 0.031 0.031 l 0.031 0.031 c 0.752 0.693 2.086 0.863 2.844 0.656 c 0.758 -0.207 1.194 -0.552 1.594 -0.875 c 0.799 -0.647 1.47 -1.386 2.219 -2.313 c 1.497 -1.853 3.243 -4.315 5.156 -6.719 c 1.914 -2.404 3.977 -4.729 5.875 -6.188 c 1.898 -1.458 3.339 -1.881 4.344 -1.594 c 0.181 0.041 0.369 0.063 0.563 0.063 c 1.379 0 2.5 -1.121 2.5 -2.5 c 0 -1.105 -0.693 -2.046 -1.688 -2.375 c -0.094 -0.027 -0.188 -0.04 -0.281 -0.063 c -3.098 -0.756 -6.04 0.637 -8.469 2.5 c -2.498 1.919 -4.76 4.493 -6.781 7.03 c -0.331 0.416 -0.526 0.683 -0.844 1.094 c 1.062 -2.02 2.127 -4.065 2.656 -6.156 c 0.281 -1.11 0.43 -2.254 0.156 -3.5 c -0.273 -1.246 -1.143 -2.54 -2.344 -3.25 l -0.031 -0.031 l -0.031 0 c -0.805 -0.447 -1.634 -0.658 -2.469 -0.688 z" style="visibility:visible;fill:#c6b09a;fill-opacity:1;stroke:none;display:inline;color:#000"/>
 <path d="m 21.03 13.09 c -0.761 0.08 -1.537 0.347 -2.281 0.75 -1.488 0.806 -2.927 2.123 -4.094 3.594 -1.166 1.471 -2.046 3.079 -2.438 4.531 -0.196 0.726 -0.281 1.436 -0.156 2.063 0.125 0.626 0.488 1.193 1.063 1.531 l 0.5 -0.875 c -0.327 -0.193 -0.481 -0.466 -0.563 -0.875 -0.081 -0.409 -0.044 -0.936 0.125 -1.563 0.338 -1.253 1.182 -2.801 2.281 -4.188 1.099 -1.387 2.432 -2.629 3.75 -3.344 1.306 -0.708 2.524 -0.871 3.5 -0.344 0.551 0.326 0.845 0.716 0.969 1.281 0.124 0.565 0.057 1.315 -0.156 2.156 -0.426 1.682 -1.453 3.766 -2.563 5.875 -1.11 2.109 -2.305 4.227 -3 6.094 -0.348 0.933 -0.571 1.798 -0.594 2.594 -0.023 0.796 0.169 1.552 0.719 2.094 l 0.031 0 0 0.031 c 0.256 0.236 0.661 0.272 0.969 0.188 0.307 -0.084 0.562 -0.24 0.844 -0.469 0.564 -0.457 1.192 -1.179 1.906 -2.063 c 1.428 -1.767 3.2 -4.23 5.156 -6.688 1.957 -2.457 4.081 -4.889 6.219 -6.531 2.138 -1.643 4.21 -2.476 6.094 -1.938 l 0.281 -0.969 c -2.323 -0.663 -4.711 0.359 -6.969 2.094 -2.258 1.735 -4.428 4.234 -6.406 6.719 -1.978 2.484 -3.763 4.963 -5.156 6.688 -0.697 0.862 -1.304 1.545 -1.75 1.906 -0.223 0.181 -0.418 0.259 -0.5 0.281 -0.304 -0.312 -0.455 -0.708 -0.438 -1.313 0.018 -0.618 0.205 -1.405 0.531 -2.281 0.652 -1.752 1.822 -3.849 2.938 -5.969 1.116 -2.12 2.185 -4.264 2.656 -6.125 0.236 -0.931 0.33 -1.802 0.156 -2.594 c -0.174 -0.792 -0.638 -1.483 -1.406 -1.938 l -0.031 0 c -0.685 -0.381 -1.426 -0.487 -2.188 -0.406 z" style="visibility:visible;fill:#fff;fill-opacity:1;stroke:none;display:inline;color:#000;fill-rule:nonzero"/>
</svg>
