<svg xmlns="http://www.w3.org/2000/svg" viewBox="0 0 48 48">
 <defs>
  <linearGradient id="linearGradient3764" x1="1" x2="47" gradientUnits="userSpaceOnUse" gradientTransform="matrix(0,-1,1,0,-1.5e-6,47.999998)">
   <stop style="stop-color:#e7dc39;stop-opacity:1"/>
   <stop offset="1" style="stop-color:#e9df4b;stop-opacity:1"/>
  </linearGradient>
 </defs>
 <g>
  <path d="m 36.31 5 c 5.859 4.062 9.688 10.831 9.688 18.5 c 0 12.426 -10.07 22.5 -22.5 22.5 c -7.669 0 -14.438 -3.828 -18.5 -9.688 c 1.037 1.822 2.306 3.499 3.781 4.969 c 4.085 3.712 9.514 5.969 15.469 5.969 c 12.703 0 23 -10.298 23 -23 c 0 -5.954 -2.256 -11.384 -5.969 -15.469 c -1.469 -1.475 -3.147 -2.744 -4.969 -3.781 z m 4.969 3.781 c 3.854 4.113 6.219 9.637 6.219 15.719 c 0 12.703 -10.297 23 -23 23 c -6.081 0 -11.606 -2.364 -15.719 -6.219 c 4.16 4.144 9.883 6.719 16.219 6.719 c 12.703 0 23 -10.298 23 -23 c 0 -6.335 -2.575 -12.06 -6.719 -16.219 z" style="opacity:0.05"/>
  <path d="m 41.28 8.781 c 3.712 4.085 5.969 9.514 5.969 15.469 c 0 12.703 -10.297 23 -23 23 c -5.954 0 -11.384 -2.256 -15.469 -5.969 c 4.113 3.854 9.637 6.219 15.719 6.219 c 12.703 0 23 -10.298 23 -23 c 0 -6.081 -2.364 -11.606 -6.219 -15.719 z" style="opacity:0.1"/>
  <path d="m 31.25 2.375 c 8.615 3.154 14.75 11.417 14.75 21.13 c 0 12.426 -10.07 22.5 -22.5 22.5 c -9.708 0 -17.971 -6.135 -21.12 -14.75 a 23 23 0 0 0 44.875 -7 a 23 23 0 0 0 -16 -21.875 z" style="opacity:0.2"/>
 </g>
 <g>
  <path d="m 24 1 c 12.703 0 23 10.297 23 23 c 0 12.703 -10.297 23 -23 23 -12.703 0 -23 -10.297 -23 -23 0 -12.703 10.297 -23 23 -23 z" style="fill:url(#linearGradient3764);fill-opacity:1"/>
 </g>
 <g>
  <g>
   <g transform="translate(1,1)">
    <g style="opacity:0.1">
     <!-- color: #e9df4b -->
     <g>
      <path d="m 10 14 c -1.66 0 -3 1.34 -3 3 l 0 14 c 0 1.664 1.34 3 3 3 l 5.406 0 c 2.613 1.254 5.504 2 8.594 2 c 3.09 0 5.98 -0.746 8.594 -2 l 5.406 0 c 1.664 0 3 -1.336 3 -3 l 0 -14 c 0 -1.66 -1.336 -3 -3 -3 l -4 0 l -2 -2 l -16 0 l -2 2 m -4 0" style="fill:#000;fill-opacity:1;stroke:none;fill-rule:nonzero"/>
     </g>
    </g>
   </g>
  </g>
 </g>
 <g>
  <g>
   <!-- color: #e9df4b -->
   <g>
    <path d="m 10,14 c -1.66,0 -3,1.34 -3,3 l 0,14 c 0,1.664 1.34,3 3,3 l 5.406,0 c 2.613,1.254 5.504,2 8.594,2 3.09,0 5.98,-0.746 8.594,-2 L 38,34 c 1.664,0 3,-1.336 3,-3 l 0,-14 c 0,-1.66 -1.336,-3 -3,-3 l -4,0 -2,-2 -16,0 -2,2 m -4,0" style="fill:#7644a8;fill-opacity:1;stroke:none;fill-rule:nonzero"/>
    <path d="m 19 13 10 0 0 1 -10 0 m 0 -1" style="fill:#333;fill-opacity:1;stroke:none;fill-rule:nonzero"/>
    <path d="m 17,15 c -0.555,0 -1.043,0.234 -1.406,0.594 C 15.235,15.957 15,16.446 15,17 l 0,13 c 0,1 1.609,1.602 2.594,2 1.699,0.613 4.496,1 6.406,1 1.91,0 4.707,-0.387 6.406,-1 C 31.746,31.566 33,31 33,30 L 33,17 C 33,16.445 32.77,15.957 32.406,15.594 32.047,15.235 31.554,15 31,15 m -14,0" style="fill:#333;fill-opacity:1;stroke:none;fill-rule:nonzero"/>
    <path d="m 17 16 14 0 c 0.551 0 1 0.449 1 1 l 0 10 c 0 0.551 -0.449 0.996 -1 0.996 l -14 0 c -0.551 0 -1 -0.445 -1 -0.996 l 0 -10 c 0 -0.551 0.449 -1 1 -1 m 0 0" style="fill:#49b9b9;fill-opacity:1;stroke:none;fill-rule:nonzero"/>
    <path d="m 17 29 14 0 0 1 -14 0 m 0 -1" style="fill:#f9f9f9;fill-opacity:1;stroke:none;fill-rule:nonzero"/>
    <path d="m 10 16 2 0 0 2 2 0 0 2 -2 0 0 2 -2 0 0 -2 -2 0 0 -2 2 0 m 0 -2" style="fill:#f9f9f9;fill-opacity:1;stroke:none;fill-rule:nonzero"/>
    <path d="m 14 29 c 0 0.551 -0.449 1 -1 1 -0.551 0 -1 -0.449 -1 -1 0 -0.551 0.449 -1 1 -1 0.551 0 1 0.449 1 1 m 0 0" style="fill:#f9f9f9;fill-opacity:1;stroke:none;fill-rule:nonzero"/>
    <path d="m 14 26 c 0 0.551 -0.449 1 -1 1 -0.551 0 -1 -0.449 -1 -1 0 -0.551 0.449 -1 1 -1 0.551 0 1 0.449 1 1 m 0 0" style="fill:#f9f9f9;fill-opacity:1;stroke:none;fill-rule:nonzero"/>
    <path d="M 37,21.5 C 37,22.328 36.328,23 35.5,23 34.672,23 34,22.328 34,21.5 34,20.672 34.672,20 35.5,20 c 0.828,0 1.5,0.672 1.5,1.5 m 0,0" style="fill:#f9f9f9;fill-opacity:1;stroke:none;fill-rule:nonzero"/>
    <path d="M 40,19.5 C 40,20.328 39.328,21 38.5,21 37.672,21 37,20.328 37,19.5 37,18.672 37.672,18 38.5,18 c 0.828,0 1.5,0.672 1.5,1.5 m 0,0" style="fill:#f9f9f9;fill-opacity:1;stroke:none;fill-rule:nonzero"/>
    <path d="m 34 29 4 0 0 1 -4 0 m 0 -1" style="fill:#333;fill-opacity:1;stroke:none;fill-rule:nonzero"/>
    <path d="m 34 27.02 5 0 0 1 -5 0 m 0 -1" style="fill:#333;fill-opacity:1;stroke:none;fill-rule:nonzero"/>
    <path d="m 34 25 6 0 0 1 -6 0 m 0 -1" style="fill:#333;fill-opacity:1;stroke:none;fill-rule:nonzero"/>
   </g>
  </g>
 </g>
 <g>
  <path d="m 40.03 7.531 c 3.712 4.084 5.969 9.514 5.969 15.469 0 12.703 -10.297 23 -23 23 c -5.954 0 -11.384 -2.256 -15.469 -5.969 4.178 4.291 10.01 6.969 16.469 6.969 c 12.703 0 23 -10.298 23 -23 0 -6.462 -2.677 -12.291 -6.969 -16.469 z" style="opacity:0.1"/>
 </g>
</svg>
