<svg xmlns="http://www.w3.org/2000/svg" viewBox="0 0 48 48">
 <defs>
  <linearGradient id="linearGradient3764" x1="1" x2="47" gradientUnits="userSpaceOnUse" gradientTransform="matrix(0,-1,1,0,-1.5e-6,47.999998)">
   <stop style="stop-color:#10a3e0;stop-opacity:1"/>
   <stop offset="1" style="stop-color:#16afef;stop-opacity:1"/>
  </linearGradient>
 </defs>
 <g>
  <path d="m 36.31 5 c 5.859 4.062 9.688 10.831 9.688 18.5 c 0 12.426 -10.07 22.5 -22.5 22.5 c -7.669 0 -14.438 -3.828 -18.5 -9.688 c 1.037 1.822 2.306 3.499 3.781 4.969 c 4.085 3.712 9.514 5.969 15.469 5.969 c 12.703 0 23 -10.298 23 -23 c 0 -5.954 -2.256 -11.384 -5.969 -15.469 c -1.469 -1.475 -3.147 -2.744 -4.969 -3.781 z m 4.969 3.781 c 3.854 4.113 6.219 9.637 6.219 15.719 c 0 12.703 -10.297 23 -23 23 c -6.081 0 -11.606 -2.364 -15.719 -6.219 c 4.16 4.144 9.883 6.719 16.219 6.719 c 12.703 0 23 -10.298 23 -23 c 0 -6.335 -2.575 -12.06 -6.719 -16.219 z" style="opacity:0.05"/>
  <path d="m 41.28 8.781 c 3.712 4.085 5.969 9.514 5.969 15.469 c 0 12.703 -10.297 23 -23 23 c -5.954 0 -11.384 -2.256 -15.469 -5.969 c 4.113 3.854 9.637 6.219 15.719 6.219 c 12.703 0 23 -10.298 23 -23 c 0 -6.081 -2.364 -11.606 -6.219 -15.719 z" style="opacity:0.1"/>
  <path d="m 31.25 2.375 c 8.615 3.154 14.75 11.417 14.75 21.13 c 0 12.426 -10.07 22.5 -22.5 22.5 c -9.708 0 -17.971 -6.135 -21.12 -14.75 a 23 23 0 0 0 44.875 -7 a 23 23 0 0 0 -16 -21.875 z" style="opacity:0.2"/>
 </g>
 <g>
  <path d="m 24 1 c 12.703 0 23 10.297 23 23 c 0 12.703 -10.297 23 -23 23 -12.703 0 -23 -10.297 -23 -23 0 -12.703 10.297 -23 23 -23 z" style="fill:url(#linearGradient3764);fill-opacity:1"/>
 </g>
 <g>
  <g>
   <g transform="translate(1,1)">
    <g style="opacity:0.1">
     <!-- color: #16afef -->
     <g>
      <path d="m 13 12 c -1 0 -1 0 -1 1 l 0 22 c 0 0.984 0 1 1 1 l 22 0 c 1 0 1 0 1 -1 l 0 -22 c 0 -1 0 -1 -1 -1 m -22 0" style="fill:#000;fill-opacity:0.392;stroke:none;fill-rule:nonzero"/>
      <path d="m 13 12 c -1 0 -1 0 -1 1 l 0 22 c 0 0.984 0 1 1 1 l 22 0 c 1 0 1 0 1 -1 l 0 -22 c 0 -1 0 -1 -1 -1 m -21 2 l 9.938 -0.031 c -1.277 4.891 -2.602 9.77 -3.902 14.652 c -2.031 -5.625 -0.031 -0.027 -2.031 -5.625 c -1 0 -3 0 -4 0 m 10.121 -9.03 l 9.875 0.031 l 0 8 l -3 0 c -2.559 -7.641 0 0 -2.563 -7.813 c -0.707 2.637 -1.418 5.273 -2.125 7.906 c -0.715 -2.711 -1.445 -5.422 -2.188 -8.125 m -0.09 5.969 c 0.773 2.82 1.531 5.645 2.281 8.469 c 0.703 -2.656 1.418 -5.313 2.125 -7.969 c 1.563 3.578 -0.031 -0.016 1.563 3.578 c 1.637 0 2.363 0 4 0 l 0 10 l -13.617 0 c 1.02 -4.734 2.398 -9.387 3.648 -14.06 m -10.03 5.05 l 3 0 c 3 9 0 0 3 9 l -5.996 0 m -0.004 -9" style="fill:#000;fill-opacity:1;stroke:none;fill-rule:nonzero"/>
     </g>
    </g>
   </g>
  </g>
 </g>
 <g>
  <g>
   <!-- color: #16afef -->
   <g>
    <path d="m 13 12 c -1 0 -1 0 -1 1 l 0 22 c 0 0.984 0 1 1 1 l 22 0 c 1 0 1 0 1 -1 l 0 -22 c 0 -1 0 -1 -1 -1 m -22 0" style="fill:#fff;fill-opacity:0.392;stroke:none;fill-rule:nonzero"/>
    <path d="m 13 12 c -1 0 -1 0 -1 1 l 0 22 c 0 0.984 0 1 1 1 l 22 0 c 1 0 1 0 1 -1 l 0 -22 c 0 -1 0 -1 -1 -1 m -21 2 l 9.938 -0.031 c -1.277 4.891 -2.602 9.77 -3.902 14.652 c -2.031 -5.625 -0.031 -0.027 -2.031 -5.625 c -1 0 -3 0 -4 0 m 10.121 -9.03 l 9.875 0.031 l 0 8 l -3 0 c -2.559 -7.641 0 0 -2.563 -7.813 c -0.707 2.637 -1.418 5.273 -2.125 7.906 c -0.715 -2.711 -1.445 -5.422 -2.188 -8.125 m -0.09 5.969 c 0.773 2.82 1.531 5.645 2.281 8.469 c 0.703 -2.656 1.418 -5.313 2.125 -7.969 c 1.563 3.578 -0.031 -0.016 1.563 3.578 c 1.637 0 2.363 0 4 0 l 0 10 l -13.617 0 c 1.02 -4.734 2.398 -9.387 3.648 -14.06 m -10.03 5.05 l 3 0 c 3 9 0 0 3 9 l -5.996 0 m -0.004 -9" style="fill:#fff;fill-opacity:1;stroke:none;fill-rule:nonzero"/>
   </g>
  </g>
 </g>
 <g>
  <path d="m 40.03 7.531 c 3.712 4.084 5.969 9.514 5.969 15.469 0 12.703 -10.297 23 -23 23 c -5.954 0 -11.384 -2.256 -15.469 -5.969 4.178 4.291 10.01 6.969 16.469 6.969 c 12.703 0 23 -10.298 23 -23 0 -6.462 -2.677 -12.291 -6.969 -16.469 z" style="opacity:0.1"/>
 </g>
</svg>
