<svg version="1.1" viewBox="0 0 48 48" xmlns="http://www.w3.org/2000/svg">
 <defs>
  <linearGradient id="bg" x2="0" y1="1" y2="47" gradientUnits="userSpaceOnUse">
   <stop style="stop-color:#373737" offset="0"/>
   <stop style="stop-color:#2d2d2d" offset="1"/>
  </linearGradient>
 </defs>
 <path d="m36.31 5c5.859 4.062 9.688 10.831 9.688 18.5 0 12.426-10.07 22.5-22.5 22.5-7.669 0-14.438-3.828-18.5-9.688 1.037 1.822 2.306 3.499 3.781 4.969 4.085 3.712 9.514 5.969 15.469 5.969 12.703 0 23-10.298 23-23 0-5.954-2.256-11.384-5.969-15.469-1.469-1.475-3.147-2.744-4.969-3.781zm4.969 3.781c3.854 4.113 6.219 9.637 6.219 15.719 0 12.703-10.297 23-23 23-6.081 0-11.606-2.364-15.719-6.219 4.16 4.144 9.883 6.719 16.219 6.719 12.703 0 23-10.298 23-23 0-6.335-2.575-12.06-6.719-16.219z" style="opacity:.05"/>
 <path d="m41.28 8.781c3.712 4.085 5.969 9.514 5.969 15.469 0 12.703-10.297 23-23 23-5.954 0-11.384-2.256-15.469-5.969 4.113 3.854 9.637 6.219 15.719 6.219 12.703 0 23-10.298 23-23 0-6.081-2.364-11.606-6.219-15.719z" style="opacity:.1"/>
 <path d="m31.25 2.375c8.615 3.154 14.75 11.417 14.75 21.13 0 12.426-10.07 22.5-22.5 22.5-9.708 0-17.971-6.135-21.12-14.75a23 23 0 0 0 44.875-7 23 23 0 0 0-16-21.875z" style="opacity:.2"/>
 <circle cx="24" cy="24" r="23" style="fill:url(#bg)"/>
 <path d="m40.03 7.531c3.712 4.084 5.969 9.514 5.969 15.469 0 12.703-10.297 23-23 23-5.954 0-11.384-2.256-15.469-5.969 4.178 4.291 10.01 6.969 16.469 6.969 12.703 0 23-10.298 23-23 0-6.462-2.677-12.291-6.969-16.469z" style="opacity:.1"/>
 <path d="m25 10c-4.0542-2e-3 -7.9355 1.6402-10.76 4.5488-2.7194 2.7992-4.2399 6.5486-4.2402 10.451-7.529e-4 8.2852 6.7148 15.003 15 15 3.977-2e-3 7.7947-1.581 10.605-4.3945 1.5614-1.5628 1.5621-4.0942 0-5.6562s-4.0944-1.5624-5.6562 0c-1.312 1.3125-3.0934 2.0505-4.9492 2.0508-3.8654 5.8e-4 -7-3.1346-7-7s3.1346-7.0004 7-7c1.8558 1.9e-4 3.6372 0.73631 4.9492 2.0488 1.5618 1.5624 4.0942 1.5621 5.6562 0 1.5621-1.5621 1.5613-4.0934 0-5.6562-2.8108-2.8135-6.6285-4.3907-10.605-4.3926zm0 11c-2.2091 0-4 1.7909-4 4s1.7909 4 4 4 4-1.7909 4-4-1.7909-4-4-4z" style="opacity:.1;paint-order:normal"/>
 <path d="m24 9c-4.0542-2e-3 -7.9355 1.6402-10.76 4.5488-2.7194 2.7992-4.2399 6.5486-4.2402 10.451-7.53e-4 8.2852 6.7148 15.003 15 15 3.977-2e-3 7.7947-1.581 10.605-4.3945 1.5614-1.5628 1.5621-4.0942 0-5.6562s-4.0944-1.5624-5.6562 0c-1.312 1.3125-3.0934 2.0505-4.9492 2.0508-3.8654 5.8e-4 -7-3.1346-7-7s3.1346-7.0004 7-7c1.8558 1.9e-4 3.6372 0.73631 4.9492 2.0488 1.5618 1.5624 4.0942 1.5621 5.6562 0 1.5621-1.5621 1.5613-4.0934 0-5.6562-2.8108-2.8135-6.6285-4.3907-10.605-4.3926zm0 11c-2.2091 0-4 1.7909-4 4s1.7909 4 4 4 4-1.7909 4-4-1.7909-4-4-4z" style="fill:#f9f9f9;paint-order:normal"/>
</svg>
