<svg xmlns="http://www.w3.org/2000/svg" viewBox="0 0 48 48">
 <defs>
  <linearGradient id="linearGradient4414" x1="1" x2="47" gradientUnits="userSpaceOnUse" gradientTransform="matrix(0,-1,1,0,0,48)">
   <stop style="stop-color:#eb1a19;stop-opacity:1"/>
   <stop offset="1" style="stop-color:#ed2c2b;stop-opacity:1"/>
  </linearGradient>
 </defs>
 <path d="m 36.31,5 c 5.859,4.062 9.688,10.831 9.688,18.5 0,12.426 -10.07,22.5 -22.5,22.5 -7.669,0 -14.438,-3.828 -18.5,-9.688 1.037,1.822 2.306,3.499 3.781,4.969 4.085,3.712 9.514,5.969 15.469,5.969 12.703,0 23,-10.298 23,-23 0,-5.954 -2.256,-11.384 -5.969,-15.469 C 39.81,7.306 38.132,6.037 36.31,5 z m 4.969,3.781 c 3.854,4.113 6.219,9.637 6.219,15.719 0,12.703 -10.297,23 -23,23 -6.081,0 -11.606,-2.364 -15.719,-6.219 4.16,4.144 9.883,6.719 16.219,6.719 12.703,0 23,-10.298 23,-23 0,-6.335 -2.575,-12.06 -6.719,-16.219 z" style="opacity:0.05"/>
 <path d="m 41.28 8.781 c 3.712 4.085 5.969 9.514 5.969 15.469 0 12.703 -10.297 23 -23 23 -5.954 0 -11.384 -2.256 -15.469 -5.969 4.113 3.854 9.637 6.219 15.719 6.219 12.703 0 23 -10.298 23 -23 0 -6.081 -2.364 -11.606 -6.219 -15.719 z" style="opacity:0.1"/>
 <path d="M 31.25,2.375 C 39.865,5.529 46,13.792 46,23.505 c 0,12.426 -10.07,22.5 -22.5,22.5 -9.708,0 -17.971,-6.135 -21.12,-14.75 a 23,23 0 0 0 44.875,-7 23,23 0 0 0 -16,-21.875 z" style="opacity:0.2"/>
 <path d="m 40.03,7.531 c 3.712,4.084 5.969,9.514 5.969,15.469 0,12.703 -10.297,23 -23,23 C 17.045,46 11.615,43.744 7.53,40.031 11.708,44.322 17.54,47 23.999,47 c 12.703,0 23,-10.298 23,-23 0,-6.462 -2.677,-12.291 -6.969,-16.469 z" style="opacity:0.1"/>
 <path d="M 24,1 C 36.703,1 47,11.297 47,24 47,36.703 36.703,47 24,47 11.297,47 1,36.703 1,24 1,11.297 11.297,1 24,1 z" style="fill:url(#linearGradient4414);fill-opacity:1"/>
 <path d="m 46.813 21.09 c -0.207 -1.641 -0.59 -3.235 -1.125 -4.75 l -1.688 -0.844 -3 1.5 l 0 4 3 1.5 2.813 -1.406 z m -5.063 17.531 -0.75 0.375 l 0 0.5 c 0.258 -0.283 0.506 -0.58 0.75 -0.875 z m -0.75 -30.12 c -1.204 -1.32 -2.551 -2.489 -4.03 -3.5 l -1.969 1 l 0 4 3 1.5 3 -1.5 0 -1.5 z m 0 19.5 -3 -1.5 -3 1.5 0 4 3 1.5 3 -1.5 0 -4 z m -6 -11 -3 -1.5 -3 1.5 0 4 3 1.5 3 -1.5 0 -4 z m 0 22 -3 -1.5 -3 1.5 0 4 3 1.5 3 -1.5 0 -4 z m -6 -33 -3 -1.5 -3 1.5 l 0 4 3 1.5 3 -1.5 0 -4 z m 0 22 -3 -1.5 -3 1.5 0 4 3 1.5 3 -1.5 0 -4 z m -6 -11 -3 -1.5 -3 1.5 0 4 3 1.5 3 -1.5 0 -4 z m 0 22 -3 -1.5 -3 1.5 0 4 3 1.5 3 -1.5 0 -4 z m -6 -33 -3 -1.5 -3 1.5 l 0 4 3 1.5 3 -1.5 0 -4 z m 0 22 -3 -1.5 -3 1.5 0 4 3 1.5 3 -1.5 0 -4 z m -6 -11 -3 -1.5 -3 1.5 0 4 3 1.5 3 -1.5 0 -4 z m 0 22 -3 -1.5 -1.906 0.938 c 1.406 1.74 3.057 3.263 4.906 4.531 l 0 -3.969 z m -6 -11 -3 -1.5 -0.813 0.406 c 0.273 2.163 0.856 4.223 1.688 6.156 l 2.125 -1.063 0 -4 z" style="fill:#d0faff;fill-opacity:1;stroke:none;fill-rule:nonzero"/>
</svg>
