<svg version="1.1" viewBox="0 0 48 48" xmlns="http://www.w3.org/2000/svg">
 <defs>
  <linearGradient id="bg" x2="0" y1="47" y2="1" gradientUnits="userSpaceOnUse">
   <stop style="stop-color:#164b6e" offset="0"/>
   <stop style="stop-color:#19567f" offset="1"/>
  </linearGradient>
 </defs>
 <path d="m36.31 5c5.859 4.062 9.688 10.831 9.688 18.5 0 12.426-10.07 22.5-22.5 22.5-7.669 0-14.438-3.828-18.5-9.688 1.037 1.822 2.306 3.499 3.781 4.969 4.085 3.712 9.514 5.969 15.469 5.969 12.703 0 23-10.298 23-23 0-5.954-2.256-11.384-5.969-15.469-1.469-1.475-3.147-2.744-4.969-3.781zm4.969 3.781c3.854 4.113 6.219 9.637 6.219 15.719 0 12.703-10.297 23-23 23-6.081 0-11.606-2.364-15.719-6.219 4.16 4.144 9.883 6.719 16.219 6.719 12.703 0 23-10.298 23-23 0-6.335-2.575-12.06-6.719-16.219z" style="opacity:.05"/>
 <path d="m41.28 8.781c3.712 4.085 5.969 9.514 5.969 15.469 0 12.703-10.297 23-23 23-5.954 0-11.384-2.256-15.469-5.969 4.113 3.854 9.637 6.219 15.719 6.219 12.703 0 23-10.298 23-23 0-6.081-2.364-11.606-6.219-15.719z" style="opacity:.1"/>
 <path d="m31.25 2.375c8.615 3.154 14.75 11.417 14.75 21.13 0 12.426-10.07 22.5-22.5 22.5-9.708 0-17.971-6.135-21.12-14.75a23 23 0 0 0 44.875-7 23 23 0 0 0-16-21.875z" style="opacity:.2"/>
 <g style="fill:#164b6e">
  <path d="m24 1c12.703 0 23 10.297 23 23s-10.297 23-23 23-23-10.297-23-23 10.297-23 23-23z" style="fill:url(#bg)"/>
 </g>
 <path d="m40.03 7.531c3.712 4.084 5.969 9.514 5.969 15.469 0 12.703-10.297 23-23 23-5.954 0-11.384-2.256-15.469-5.969 4.178 4.291 10.01 6.969 16.469 6.969 12.703 0 23-10.298 23-23 0-6.462-2.677-12.291-6.969-16.469z" style="opacity:.1"/>
 <path d="m9 18.004 9.7266 15.996h4.8651l2.4082-4 2.4551 4h9.7302l-2.4316-3.9962h-4.8651l-2.4316-4 2.4316-4h-0.0097l0.0097-0.0038h4.8651l2.4316-3.9962h-9.7302l-7.4552 11.997-7.1368-11.997" style="opacity:.1"/>
 <path d="m37.184 33h-4.864v-2.7688l2.432-1.2277z" style="fill:#2bac8f"/>
 <path d="m34.751 29.003h-4.8636l0.48669 2.1505 1.9453 1.8457z" style="fill:#2e997c"/>
 <path d="m32.32 33h-4.864l0.97302-2.7688 1.459-1.2277z" style="fill:#278768"/>
 <path d="m27.455 25.005-1.9453-1.2366-2.9187 1.2366 2.432 3.9962z" style="fill:#21674f"/>
 <path d="m29.889 29.003-2.4316-0.6183-2.432 0.6183 2.432 3.9962z" style="fill:#2a8d70"/>
 <path d="m29.889 29h-4.8637l1.1953-1.9643 1.2364-2.0319z" style="fill:#2f9f81"/>
 <path d="m37.184 17.004h-4.8636v2.142l2.4316 1.8542z" style="fill:#96cfba"/>
 <path d="m34.751 21h-4.864l0.48633-2.7774 1.9453-1.2188z" style="fill:#85c8b1"/>
 <path d="m32.32 17.004h-4.8636v2.142l2.4316 1.8542z" style="fill:#6bbfa4"/>
 <path d="m29.889 21.001-2.4316 0.91429-2.432-0.91429 2.432-3.9962z" style="fill:#52b99b"/>
 <path d="m29.889 21.004h-4.8637l0.48669 1.8371 1.9453 2.1591z" style="fill:#44b799"/>
 <path d="m27.455 25.001h-4.8636l2.432-3.9962z" style="fill:#33b394"/>
 <path d="m25.023 29-2.4316 1.2277-2.4324-1.2277 2.432-3.9962z" style="fill:#2da4ad"/>
 <path d="m25.024 29.003h-4.864l0.07781 2.6 2.3542 1.3966z" style="fill:#2f98af"/>
 <path d="m22.59 33h-4.864l3.6e-4 -2.7688 2.4316-1.2277 1.1989 1.9697z" style="fill:#0d657a"/>
 <path d="m20.159 29.003-2.4316-0.6183-2.4324 0.6183 2.432 3.9962" style="fill:#2a69b1"/>
 <path d="m20.159 29h-4.8636l0.48669-2.464 1.9453-1.5322z" style="fill:#2077bc"/>
 <path d="m17.727 25.005-2.918-1.2366-1.946 1.2366 2.432 3.9962" style="fill:#2886c7"/>
 <path d="m17.728 25.001h-4.864l3.6e-4 -3.0829 2.4316-0.91395z" style="fill:#238dcd"/>
 <path d="m15.31 20.992-2.4461-0.93172-2.4324 0.93172 2.4392 4.0082" style="fill:#1a9cd1"/>
 <path d="m15.295 21h-4.8636l0.48669-1.8546 1.9453-2.1417z" style="fill:#0ea6d3"/>
 <path d="m12.864 17.004h-4.8637l2.432 3.9962z" style="fill:#08abd8"/>
</svg>
