<?xml version="1.0" encoding="UTF-8"?>
<svg id="svg59" version="1.1" viewBox="0 0 48 48" xmlns="http://www.w3.org/2000/svg" xmlns:cc="http://creativecommons.org/ns#" xmlns:dc="http://purl.org/dc/elements/1.1/" xmlns:rdf="http://www.w3.org/1999/02/22-rdf-syntax-ns#" xmlns:xlink="http://www.w3.org/1999/xlink">
 <metadata id="metadata63">
  <rdf:RDF>
   <cc:Work rdf:about="">
    <dc:format>image/svg+xml</dc:format>
    <dc:type rdf:resource="http://purl.org/dc/dcmitype/StillImage"/>
    <dc:title/>
   </cc:Work>
  </rdf:RDF>
 </metadata>
 <defs id="defs7">
  <linearGradient id="linearGradient4605">
   <stop id="stop4601" style="stop-color:#e8e8e8" offset="0"/>
   <stop id="stop4603" style="stop-color:#f2f2f2;stop-opacity:.98" offset="1"/>
  </linearGradient>
  <linearGradient id="linearGradient4547" x1="1" x2="1" y1="47" y2="1" gradientUnits="userSpaceOnUse">
   <stop id="stop4541" style="stop-color:#48054e" offset="0"/>
   <stop id="stop4543" style="stop-color:#5a0662" offset="1"/>
  </linearGradient>
  <linearGradient id="linearGradient4589" x1="1" x2="1" y1="47" y2="1" gradientUnits="userSpaceOnUse" xlink:href="#linearGradient4605"/>
 </defs>
 <g id="g15">
  <path id="path9" d="m36.31 5c5.859 4.062 9.688 10.831 9.688 18.5 0 12.426-10.07 22.5-22.5 22.5-7.669 0-14.438-3.828-18.5-9.688 1.037 1.822 2.306 3.499 3.781 4.969 4.085 3.712 9.514 5.969 15.469 5.969 12.703 0 23-10.298 23-23 0-5.954-2.256-11.384-5.969-15.469-1.469-1.475-3.147-2.744-4.969-3.781zm4.969 3.781c3.854 4.113 6.219 9.637 6.219 15.719 0 12.703-10.297 23-23 23-6.081 0-11.606-2.364-15.719-6.219 4.16 4.144 9.883 6.719 16.219 6.719 12.703 0 23-10.298 23-23 0-6.335-2.575-12.06-6.719-16.219z" style="opacity:.05"/>
  <path id="path11" d="m41.28 8.781c3.712 4.085 5.969 9.514 5.969 15.469 0 12.703-10.297 23-23 23-5.954 0-11.384-2.256-15.469-5.969 4.113 3.854 9.637 6.219 15.719 6.219 12.703 0 23-10.298 23-23 0-6.081-2.364-11.606-6.219-15.719z" style="opacity:.1"/>
  <path id="path13" d="m31.25 2.375c8.615 3.154 14.75 11.417 14.75 21.13 0 12.426-10.07 22.5-22.5 22.5-9.708 0-17.971-6.135-21.12-14.75a23 23 0 0 0 44.875 -7 23 23 0 0 0 -16 -21.875z" style="opacity:.2"/>
 </g>
 <path id="path17" d="m3.813 13.001c-1.783 3.268-2.813 7.02-2.813 11 0 3.985 1.03 7.732 2.813 11 2.187 0.999 38.187 0.999 40.38 0 1.783-3.268 2.813-7.02 2.813-11 0-3.985-1.03-7.732-2.813-11-2.193-1.001-38.193-1.001-40.38 0z" style="fill:url(#linearGradient4589)"/>
 <g id="g25">
  <g id="g23">
   <g id="g21" transform="translate(1,1)"></g>
  </g>
 </g>
 <path id="path4573" d="m24 1c-8.718 0-16.286 4.851-20.189 12h40.379c-3.901-7.149-11.468-12-20.189-12zm-20.188 34c3.901 7.149 11.47 12 20.191 12 8.718 0 16.286-4.851 20.189-12h-40.381z" style="fill-rule:evenodd;fill:url(#linearGradient4547)"/>
 <path id="path29" d="m14.992 7l1.2305 2-1.2305 2h2.4609l1.2305-2-1.2305-2h-2.4609zm4.875 0l1.2305 2-1.2305 2h2.4609l1.2305-2-1.2305-2h-2.4609zm4.7109 0l1.2305 2-1.2305 2h2.4609l1.2305-2-1.2305-2h-2.4609zm4.7188 0l1.2305 2-1.2305 2h2.4609l1.2305-2-1.2305-2h-2.4609zm-14.305 30.189l1.2305 2-1.2305 2h2.4609l1.2305-2-1.2305-2h-2.4609zm4.875 0l1.2305 2-1.2305 2h2.4609l1.2305-2-1.2305-2h-2.4609zm4.7109 0l1.2305 2-1.2305 2h2.4609l1.2305-2-1.2305-2h-2.4609zm4.7188 0l1.2305 2-1.2305 2h2.4609l1.2305-2-1.2305-2h-2.4609z" style="fill-rule:evenodd;fill:url(#linearGradient4589)"/>
 <path id="path47" d="m17.801 16c0 5.398 1.344 7.313 3.404 8.623l-3.486 2.734c-0.868 0.744-1.735 1.712-1.719 3.041 0 1.989 1.61 3.602 3.598 3.602 1.989 0 3.602-1.614 3.602-3.602 0-0.8-0.262-1.507-0.703-2.105 0.864-0.697 1.696-1.199 2.504-1.646 0.809 0.447 1.639 0.95 2.504 1.646-0.441 0.594-0.703 1.305-0.703 2.105 0 1.992 1.609 3.602 3.598 3.602 1.992 0 3.604-1.609 3.604-3.602 0.031-1.323-0.856-2.298-1.721-3.041l-3.488-2.736c2.061-1.309 3.406-3.222 3.406-8.621l-7.199 5.646-7.199-5.646m1.797 12.596c0.988 0 1.801 0.813 1.801 1.801s-0.813 1.801-1.801 1.801-1.801-0.813-1.801-1.801 0.813-1.801 1.801-1.801zm10.801 4e-3c0.992 0 1.801 0.809 1.801 1.797 0 0.992-0.809 1.801-1.801 1.801-0.988 0-1.797-0.809-1.797-1.801 0-0.988 0.809-1.797 1.797-1.797z" style="opacity:.1"/>
 <path id="path49" d="m16.801 15c0 9.898 4.5001 8.102 9.7031 12.293-0.441 0.594-0.70312 1.3055-0.70312 2.1055 0 1.992 1.6087 3.6016 3.5977 3.6016 1.992 0 3.6035-1.6086 3.6035-3.6016 0.031-1.323-0.8567-2.298-1.7207-3.041zm12.598 12.6c0.992 0 1.8008 0.80888 1.8008 1.7969 0 0.992-0.80878 1.8008-1.8008 1.8008-0.988 0-1.7969-0.80878-1.7969-1.8008 0-0.988 0.80888-1.7969 1.7969-1.7969z" style="fill:#808080"/>
 <path id="path51" d="m31.199 15l-14.48 11.357c-0.868 0.744-1.7348 1.712-1.7188 3.041 0 1.989 1.6097 3.6016 3.5977 3.6016 1.989 0 3.6016-1.6136 3.6016-3.6016 0-0.8-0.26212-1.5075-0.70312-2.1055 5.203-4.195 9.7031-2.395 9.7031-12.293zm-12.602 12.596c0.988 0 1.8008 0.81278 1.8008 1.8008-1e-6 0.988-0.81278 1.8008-1.8008 1.8008s-1.8008-0.81278-1.8008-1.8008 0.81278-1.8008 1.8008-1.8008z" style="fill:#909090"/>
 <g id="g55">
  <path id="path53" d="m40.03 7.531c3.712 4.084 5.969 9.514 5.969 15.469 0 12.703-10.297 23-23 23-5.954 0-11.384-2.256-15.469-5.969 4.178 4.291 10.01 6.969 16.469 6.969 12.703 0 23-10.298 23-23 0-6.462-2.677-12.291-6.969-16.469z" style="opacity:.1"/>
 </g>
 <path id="path57" d="m3.813 13c-0.179 0.327-0.345 0.661-0.508 0.998h41.4c-0.163-0.337-0.329-0.671-0.508-0.998h-40.38z" style="opacity:.1"/>
</svg>
