<svg xmlns="http://www.w3.org/2000/svg" viewBox="0 0 48 48">
 <defs>
  <linearGradient id="linearGradient3764" x1="1" x2="47" gradientUnits="userSpaceOnUse" gradientTransform="matrix(0,-1,1,0,-1.5e-6,47.999998)">
   <stop style="stop-color:#99c8ed;stop-opacity:1"/>
   <stop offset="1" style="stop-color:#aad1f0;stop-opacity:1"/>
  </linearGradient>
  <linearGradient id="linearGradient3843" y1="13" x2="0" y2="31" gradientUnits="userSpaceOnUse" gradientTransform="matrix(0.9587455,0,0,0.97514518,0.98996259,0.60596513)">
   <stop style="stop-color:#5ab133;stop-opacity:1"/>
   <stop offset="1" style="stop-color:#54a630;stop-opacity:1"/>
  </linearGradient>
 </defs>
 <g>
  <path d="m 36.31 5 c 5.859 4.062 9.688 10.831 9.688 18.5 c 0 12.426 -10.07 22.5 -22.5 22.5 c -7.669 0 -14.438 -3.828 -18.5 -9.688 c 1.037 1.822 2.306 3.499 3.781 4.969 c 4.085 3.712 9.514 5.969 15.469 5.969 c 12.703 0 23 -10.298 23 -23 c 0 -5.954 -2.256 -11.384 -5.969 -15.469 c -1.469 -1.475 -3.147 -2.744 -4.969 -3.781 z m 4.969 3.781 c 3.854 4.113 6.219 9.637 6.219 15.719 c 0 12.703 -10.297 23 -23 23 c -6.081 0 -11.606 -2.364 -15.719 -6.219 c 4.16 4.144 9.883 6.719 16.219 6.719 c 12.703 0 23 -10.298 23 -23 c 0 -6.335 -2.575 -12.06 -6.719 -16.219 z" style="opacity:0.05"/>
  <path d="m 41.28 8.781 c 3.712 4.085 5.969 9.514 5.969 15.469 c 0 12.703 -10.297 23 -23 23 c -5.954 0 -11.384 -2.256 -15.469 -5.969 c 4.113 3.854 9.637 6.219 15.719 6.219 c 12.703 0 23 -10.298 23 -23 c 0 -6.081 -2.364 -11.606 -6.219 -15.719 z" style="opacity:0.1"/>
  <path d="m 31.25 2.375 c 8.615 3.154 14.75 11.417 14.75 21.13 c 0 12.426 -10.07 22.5 -22.5 22.5 c -9.708 0 -17.971 -6.135 -21.12 -14.75 a 23 23 0 0 0 44.875 -7 a 23 23 0 0 0 -16 -21.875 z" style="opacity:0.2"/>
 </g>
 <g>
  <path d="m 24 1 c 12.703 0 23 10.297 23 23 c 0 12.703 -10.297 23 -23 23 -12.703 0 -23 -10.297 -23 -23 0 -12.703 10.297 -23 23 -23 z" style="fill:url(#linearGradient3764);fill-opacity:1"/>
 </g>
 <g>
  <path d="m 40.03 7.531 c 3.712 4.084 5.969 9.514 5.969 15.469 0 12.703 -10.297 23 -23 23 c -5.954 0 -11.384 -2.256 -15.469 -5.969 4.178 4.291 10.01 6.969 16.469 6.969 c 12.703 0 23 -10.298 23 -23 0 -6.462 -2.677 -12.291 -6.969 -16.469 z" style="opacity:0.1"/>
 </g>
 <g transform="matrix(3.543307,0,0,3.543307,-4.3604541e-8,-0.00196724)">
  <rect x="4.233" y="3.387" width="5.644" height="7.338" ry="0.552" rx="0.579" style="fill:#000;fill-opacity:0.118"/>
  <g transform="scale(0.28222223,0.28222223)">
   <g>
    <rect rx="2.052" ry="1.955" height="26" width="20" y="11" x="14" style="fill:#3c3c3c;fill-opacity:1"/>
    <rect rx="2.073" ry="1.995" height="20" width="18" y="12" x="15" style="fill:#666"/>
    <g>
     <rect x="16" y="13" width="16" height="18" ry="1.907" rx="1.968" style="fill:url(#linearGradient3843);fill-opacity:1"/>
     <path d="m 32 22 -16 4 0 2 16 -4 z" style="fill:#ffe68e;fill-opacity:1"/>
    </g>
   </g>
   <g>
    <path d="m 24.508 25.5 c -0.221 -1.124 -0.614 -2.06 -1.089 -2.926 -0.352 -0.642 -0.76 -1.236 -1.137 -1.859 -0.125 -0.209 -0.235 -0.427 -0.354 -0.644 -0.242 -0.431 -0.439 -0.932 -0.427 -1.581 0.011 -0.636 0.191 -1.144 0.448 -1.561 0.421 -0.684 1.129 -1.246 2.08 -1.393 0.775 -0.121 1.505 0.083 2.02 0.395 0.421 0.252 0.749 0.592 0.996 0.993 0.26 0.417 0.439 0.91 0.454 1.554 0.008 0.33 -0.046 0.636 -0.119 0.888 -0.075 0.256 -0.195 0.471 -0.302 0.699 -0.208 0.447 -0.469 0.856 -0.733 1.265 -0.781 1.22 -1.516 2.466 -1.837 4.17 m 0 0" style="fill:#000;fill-opacity:0.098;stroke:none;fill-rule:evenodd"/>
    <path d="m 24.01 25 c -0.221 -1.124 -0.614 -2.06 -1.089 -2.926 -0.352 -0.642 -0.76 -1.236 -1.137 -1.859 -0.125 -0.209 -0.235 -0.427 -0.354 -0.644 -0.242 -0.431 -0.439 -0.932 -0.427 -1.581 0.011 -0.636 0.191 -1.144 0.448 -1.561 0.421 -0.684 1.129 -1.246 2.08 -1.393 0.775 -0.121 1.505 0.083 2.02 0.395 0.421 0.252 0.749 0.592 0.996 0.993 0.26 0.417 0.439 0.91 0.454 1.554 0.008 0.33 -0.046 0.636 -0.119 0.888 -0.075 0.256 -0.195 0.471 -0.302 0.699 -0.208 0.447 -0.469 0.856 -0.733 1.265 -0.781 1.22 -1.516 2.466 -1.837 4.17 m 0 0" style="fill:#f3533d;fill-opacity:1;stroke:none;fill-rule:evenodd"/>
    <path d="m 25.4 18.1 c 0 0.773 -0.626 1.4 -1.399 1.4 -0.774 0 -1.401 -0.627 -1.401 -1.4 0 -0.773 0.628 -1.4 1.401 -1.4 0.774 0 1.399 0.627 1.399 1.4 m 0 0" style="fill:#c12f20;fill-opacity:1;stroke:none;fill-rule:evenodd"/>
   </g>
  </g>
 </g>
</svg>
