<svg version="1.1" viewBox="0 0 48 48" xmlns="http://www.w3.org/2000/svg">
 <defs>
  <linearGradient id="bg" x1="1" x2="47" gradientTransform="matrix(0 -1 1 0 -1.5e-6 48)" gradientUnits="userSpaceOnUse">
   <stop style="stop-color:#239523" offset="0"/>
   <stop style="stop-color:#27a427" offset="1"/>
  </linearGradient>
 </defs>
 <path d="m36.31 5c5.859 4.062 9.688 10.831 9.688 18.5 0 12.426-10.07 22.5-22.5 22.5-7.669 0-14.438-3.828-18.5-9.688 1.037 1.822 2.306 3.499 3.781 4.969 4.085 3.712 9.514 5.969 15.469 5.969 12.703 0 23-10.298 23-23 0-5.954-2.256-11.384-5.969-15.469-1.469-1.475-3.147-2.744-4.969-3.781zm4.969 3.781c3.854 4.113 6.219 9.637 6.219 15.719 0 12.703-10.297 23-23 23-6.081 0-11.606-2.364-15.719-6.219 4.16 4.144 9.883 6.719 16.219 6.719 12.703 0 23-10.298 23-23 0-6.335-2.575-12.06-6.719-16.219z" style="opacity:.05"/>
 <path d="m41.28 8.781c3.712 4.085 5.969 9.514 5.969 15.469 0 12.703-10.297 23-23 23-5.954 0-11.384-2.256-15.469-5.969 4.113 3.854 9.637 6.219 15.719 6.219 12.703 0 23-10.298 23-23 0-6.081-2.364-11.606-6.219-15.719z" style="opacity:.1"/>
 <path d="m31.25 2.375c8.615 3.154 14.75 11.417 14.75 21.13 0 12.426-10.07 22.5-22.5 22.5-9.708 0-17.971-6.135-21.12-14.75a23 23 0 0 0 44.875-7 23 23 0 0 0-16-21.875z" style="opacity:.2"/>
 <path d="m24 1c12.703 0 23 10.297 23 23s-10.297 23-23 23-23-10.297-23-23 10.297-23 23-23z" style="fill:url(#bg)"/>
 <path d="m11.5 14-0.5 0.5v1l0.5 0.5h1.5v19.5l0.5 0.5h1.5l3.623-3.377 6.377 6.377 4-4h0.65039l0.34961-1 2.418-2.418-1.2188 3.418h2.5l0.40039-1h-0.54883l1.0488-3h2l-1.4004 4h2.6211l0.45898-1h-0.69922l1.4199-4-0.80078-1h-1.1992l-1 1h-0.84961l-0.5293-0.62109 4.3789-4.3789-5.8828-5.8828 3.8828-3.6172v-1l-0.5-0.5h-8.5l-10 4v-2h1.5l0.5-0.5v-1l-0.5-0.5z" style="opacity:.1"/>
 <path d="m24 10 14 14-14 14-14-14z" style="fill:#134f13"/>
 <g transform="translate(1,1)"></g>
 <path d="m40.03 7.531c3.712 4.084 5.969 9.514 5.969 15.469 0 12.703-10.297 23-23 23-5.954 0-11.384-2.256-15.469-5.969 4.178 4.291 10.01 6.969 16.469 6.969 12.703 0 23-10.298 23-23 0-6.462-2.677-12.291-6.969-16.469z" style="opacity:.1"/>
 <path d="m27.5 14-0.5 0.5v1l0.5 0.5h1.5v1l-11 10v-11l-5 5v6l5.623 5.623 14.494-13.506-5.117-5.117h-0.5zm-9.5 2h1.5l0.5-0.5v-1l-0.25-0.25-1.75 1.75zm8.895 10-0.709 0.5-0.336 1 0.375 0.5h1.082l0.709-0.5 0.334-1-0.373-0.5h-1.082zm-2.594 3-0.301 1h0.9l-1.9 5h3l0.369-1h-0.869l1.9-5h-3.1zm4.299 0-0.35 1h0.75l-1.84 4.84 3.07-3.07 0.27-0.77h0.5l1-1h-0.6l-0.9-1h-1.9z" style="opacity:.1"/>
 <path d="m10.5 13-0.5 0.5v1l0.5 0.5h1.5v19.5l0.5 0.5h1.5l22-20.5v-1l-0.5-0.5h-9l-0.5 0.5v1l0.5 0.5h1.5v1l-11 10v-11h1.5l0.5-0.5v-1l-0.5-0.5zm15.395 12-0.709 0.5-0.336 1 0.375 0.5h1.082l0.709-0.5 0.334-1-0.373-0.5m-3.676 3-0.301 1h0.9l-1.9 5h3l0.369-1h-0.869l1.9-5m1.199 0-0.35 1h0.75l-1.9 5h2.551l0.35-1h-0.551l1.051-3h2.125l-1.426 4h2.5l0.4-1h-0.549l1.049-3h2l-1.4 4h2.621l0.459-1h-0.699l1.42-4-0.801-1h-1.199l-1 1h-0.85l-0.851-1h-0.949l-0.95 1h-1l-0.9-1" style="fill:#f9f9f9"/>
</svg>
