<svg version="1.1" viewBox="0 0 48 48" xmlns="http://www.w3.org/2000/svg">
 <defs>
  <linearGradient id="lG3764" x1="1" x2="47" gradientTransform="rotate(-90 24 24)" gradientUnits="userSpaceOnUse">
   <stop style="stop-color:#e4e4e4" offset="0"/>
   <stop style="stop-color:#eee" offset="1"/>
  </linearGradient>
 </defs>
 <path d="m36.3 5c5.86 4.06 9.69 10.8 9.69 18.5 0 12.4-10.1 22.5-22.5 22.5-7.67 0-14.4-3.83-18.5-9.69 1.04 1.82 2.31 3.5 3.78 4.97 4.08 3.71 9.51 5.97 15.5 5.97 12.7 0 23-10.3 23-23 0-5.95-2.26-11.4-5.97-15.5-1.47-1.48-3.15-2.74-4.97-3.78zm4.97 3.78c3.85 4.11 6.22 9.64 6.22 15.7 0 12.7-10.3 23-23 23-6.08 0-11.6-2.36-15.7-6.22 4.16 4.14 9.88 6.72 16.2 6.72 12.7 0 23-10.3 23-23 0-6.34-2.58-12.1-6.72-16.2z" style="opacity:.05"/>
 <path d="m41.3 8.78c3.71 4.08 5.97 9.51 5.97 15.5 0 12.7-10.3 23-23 23-5.95 0-11.4-2.26-15.5-5.97 4.11 3.85 9.64 6.22 15.7 6.22 12.7 0 23-10.3 23-23 0-6.08-2.36-11.6-6.22-15.7z" style="opacity:.1"/>
 <path d="m31.2 2.38c8.62 3.15 14.8 11.4 14.8 21.1 0 12.4-10.1 22.5-22.5 22.5-9.71 0-18-6.14-21.1-14.8a23 23 0 0 0 44.9-7 23 23 0 0 0-16-21.9z" style="opacity:.2"/>
 <path d="m24 1c12.7 0 23 10.3 23 23s-10.3 23-23 23-23-10.3-23-23 10.3-23 23-23z" style="fill:url(#lG3764)"/>
 <path d="m33.4 13 2e-3 4e-3c-0.961 0.016-1.91 0.656-2.06 1.84-0.242 1.9 1.58 1.19 3.03 1.19s1.94 3.09 1.57 4.75c-0.198 0.904-1.44 2.47-3.94 3.09v1.22c1.2 0.212 2 0.777 2 1.41l-2 1.41v6.47c3.6-2.85 6-7.6 6-12.1 0-3.8-1.96-7.26-4-9.21-4e-3 -8e-3 -0.025 0.012-0.029 0-0.188-0.043-0.383-0.065-0.574-0.061zm-3.97 1.43c-0.286 0-0.516 0.227-0.516 0.508 0 0.277 0.231 0.504 0.516 0.504 0.286 0 0.516-0.227 0.516-0.504 0-0.281-0.231-0.508-0.516-0.508zm1.25 2.38c-0.402 0-0.73 0.316-0.73 0.711s0.328 0.715 0.73 0.715c0.399 0 0.727-0.32 0.727-0.715s-0.329-0.711-0.727-0.711zm-12.7 4.45c-3.89-0.042-5.87 2.29-6.01 2.35 0.426 3.98 2.72 8.17 6.01 10.8v-6.48c-1.2-0.212-2-0.777-2-1.41 2e-3 -0.635 0.803-1.2 2-1.41zm2 0.227v3.61c1.2 0.212 2 0.777 2 1.41l-2 1.41v7.79c1.25 0.665 2.59 1.1 4 1.24v-2.02c-1.2-0.212-2-0.777-2-1.41 2e-3 -0.635 0.803-1.2 2-1.41v-9.22c-0.341-0.135-0.676-0.263-1.03-0.424l-2.97-0.965zm6 2.08v8.52c1.2 0.212 2 0.777 2 1.41l-2 1.41v2.02c1.41-0.145 2.75-0.566 4-1.22v-7.79c-1.2-0.212-2-0.777-2-1.41 2e-3 -0.635 0.803-1.2 2-1.41v-0.963c-1.15 0.024-2.48-0.13-4-0.561z" style="opacity:.1"/>
 <path d="m32.4 12v0.00391h0.00195l-0.00195-0.00391zm0 0.00391c-0.96 0.0169-1.91 0.657-2.06 1.84-0.242 1.9 1.58 1.19 3.03 1.19s1.94 3.09 1.57 4.75c-0.198 0.904-1.44 2.47-3.94 3.09v1.22c1.2 0.212 2 0.777 2 1.41-2e-3 0.635-0.803 1.2-2 1.41v6.47c3.6-2.85 6-7.61 6-12.1 0-3.8-1.96-7.26-4-9.21v-0.00195h-0.00195-0.00195-0.00195-0.00195l-0.00195 0.00195c-0.00299 0.00114-0.00873 0.00302-0.0117 0.00391h-0.00195-0.00195l-0.00195-0.00195h-0.00195v-0.00195c-0.188-0.043-0.383-0.0645-0.574-0.0605v-0.00391zm-3.97 1.43c-0.286 0-0.516 0.227-0.516 0.508 0 0.277 0.231 0.504 0.516 0.504 0.286 0 0.516-0.227 0.516-0.504 0-0.281-0.231-0.508-0.516-0.508zm1.25 2.38c-0.402 0-0.73 0.316-0.73 0.711s0.328 0.715 0.73 0.715c0.399 0 0.727-0.32 0.727-0.715s-0.329-0.711-0.727-0.711zm-12.7 4.45c-3.89-0.042-5.87 2.29-6.01 2.35 0.426 3.98 2.72 8.17 6.01 10.8v-6.47c-1.2-0.212-2-0.777-2-1.41 2e-3 -0.635 0.803-1.2 2-1.41v-3.83zm2 0.227v3.61c1.2 0.212 2 0.777 2 1.41-2e-3 0.635-0.803 1.2-2 1.41v7.79c1.25 0.665 2.59 1.1 4 1.24v-2.02c-1.2-0.212-2-0.777-2-1.41 2e-3 -0.635 0.803-1.2 2-1.41v-9.22c-0.341-0.135-0.676-0.263-1.03-0.424-1.07-0.482-2.05-0.779-2.97-0.965zm6 2.09v8.52c1.2 0.212 2 0.775 2 1.41-2e-3 0.635-0.803 1.2-2 1.41v2.02c1.41-0.145 2.75-0.568 4-1.23v-7.79c-1.2-0.212-2-0.775-2-1.41 2e-3 -0.635 0.803-1.2 2-1.41v-0.963c-1.15 0.024-2.48-0.132-4-0.562z" style="fill:#494c86"/>
 <path d="m40 7.53c3.71 4.08 5.97 9.51 5.97 15.5 0 12.7-10.3 23-23 23-5.95 0-11.4-2.26-15.5-5.97 4.18 4.29 10 6.97 16.5 6.97 12.7 0 23-10.3 23-23 0-6.46-2.68-12.3-6.97-16.5z" style="opacity:.1"/>
</svg>
