<svg version="1.1" viewBox="0 0 48 48" xmlns="http://www.w3.org/2000/svg">
 <defs>
  <linearGradient id="bg" x1="1" x2="47" gradientTransform="matrix(0 -1 1 0 -1.5e-6 48)" gradientUnits="userSpaceOnUse">
   <stop style="stop-color:#e4e4e4" offset="0"/>
   <stop style="stop-color:#eee" offset="1"/>
  </linearGradient>
 </defs>
 <path d="m36.31 5c5.859 4.062 9.688 10.831 9.688 18.5 0 12.426-10.07 22.5-22.5 22.5-7.669 0-14.438-3.828-18.5-9.688 1.037 1.822 2.306 3.499 3.781 4.969 4.085 3.712 9.514 5.969 15.469 5.969 12.703 0 23-10.298 23-23 0-5.954-2.256-11.384-5.969-15.469-1.469-1.475-3.147-2.744-4.969-3.781zm4.969 3.781c3.854 4.113 6.219 9.637 6.219 15.719 0 12.703-10.297 23-23 23-6.081 0-11.606-2.364-15.719-6.219 4.16 4.144 9.883 6.719 16.219 6.719 12.703 0 23-10.298 23-23 0-6.335-2.575-12.06-6.719-16.219z" style="opacity:.05"/>
 <path d="m41.28 8.781c3.712 4.085 5.969 9.514 5.969 15.469 0 12.703-10.297 23-23 23-5.954 0-11.384-2.256-15.469-5.969 4.113 3.854 9.637 6.219 15.719 6.219 12.703 0 23-10.298 23-23 0-6.081-2.364-11.606-6.219-15.719z" style="opacity:.1"/>
 <path d="m31.25 2.375c8.615 3.154 14.75 11.417 14.75 21.13 0 12.426-10.07 22.5-22.5 22.5-9.708 0-17.971-6.135-21.12-14.75a23 23 0 0 0 44.875-7 23 23 0 0 0-16-21.875z" style="opacity:.2"/>
 <path d="m24 1c12.703 0 23 10.297 23 23s-10.297 23-23 23-23-10.297-23-23 10.297-23 23-23z" style="fill:url(#bg)"/>
 <path d="m12.531 14c-0.297 0.031-0.531 0.297-0.531 0.594v10.816c0 0.316 0.277 0.594 0.594 0.594h5.406v2h-4v2h7v-6h-6.559c-0.211 0-0.41-0.195-0.41-0.41v-7.184c-4e-3 -0.188 0.129-0.371 0.313-0.406h11.219c0.207 0 0.438 0.191 0.438 0.406v2.875h2v-4.691c0-0.313-0.281-0.594-0.594-0.594h-14.875zm10 6c-0.293 0.031-0.539 0.305-0.539 0.598v10.809c0 0.313 0.289 0.6 0.602 0.6h5.398v1.994h-3.996v2h12v-2h-4v-1.994h5.402c0.313 0 0.598-0.287 0.598-0.6v-10.809c0-0.316-0.289-0.598-0.598-0.598h-14.863zm1.813 2h11.219c0.211 0 0.402 0.191 0.402 0.402v7.203c0 0.207-0.191 0.398-0.402 0.398h-11.145c-0.211 0-0.402-0.191-0.402-0.398v-7.203c-4e-3 -0.188 0.145-0.367 0.328-0.402zm0.652 1.834 1.666 4.166h1.668l1.041-2.916h0.416l1.043 2.916h0.832l1.043-2.916h0.416l1.041 2.916h0.834l-1.666-4.166h-0.834l-1.25 3.125-1.25-3.125h-1.664l-1.045 2.916h-0.416l-1.041-2.916h-0.834z" style="fill-opacity:.098"/>
 <path d="m11.531 13c-0.297 0.031-0.531 0.297-0.531 0.594v10.816c0 0.316 0.277 0.594 0.594 0.594h5.406v2h-4v2h7v-6h-6.559c-0.211 0-0.41-0.195-0.41-0.41v-7.184c-4e-3 -0.188 0.129-0.371 0.313-0.406h11.219c0.207 0 0.437 0.191 0.437 0.406v2.875h2v-4.691c0-0.313-0.281-0.594-0.594-0.594" style="fill:#851e38"/>
 <path d="m21.535 19c-0.293 0.031-0.539 0.305-0.539 0.598v10.809c0 0.313 0.289 0.6 0.602 0.6h5.398v1.994h-3.996v2h12v-2h-4v-1.994h5.402c0.313 0 0.598-0.287 0.598-0.6v-10.809c0-0.316-0.289-0.598-0.598-0.598h-14.863zm1.813 2h11.219c0.211 0 0.402 0.191 0.402 0.402v7.203c0 0.207-0.191 0.398-0.402 0.398h-11.145c-0.211 0-0.402-0.191-0.402-0.398v-7.203c-4e-3 -0.188 0.145-0.367 0.328-0.402z" style="fill:#344565"/>
 <path d="m40.03 7.531c3.712 4.084 5.969 9.514 5.969 15.469 0 12.703-10.297 23-23 23-5.954 0-11.384-2.256-15.469-5.969 4.178 4.291 10.01 6.969 16.469 6.969 12.703 0 23-10.298 23-23 0-6.462-2.677-12.291-6.969-16.469z" style="opacity:.1"/>
 <path d="m26.5 27h0.83334l1.0417-2.9167h0.41667l1.0417 2.9167h0.83334l-1.6667-4.1667h-0.85959l-1.3205 2.0834z" style="fill:#3e4545;stroke-width:.41667"/>
 <path d="m24 22.834h0.83334l1.0417 2.9167h0.41667l1.0433-2.9167h0.83167l-1.6667 4.1667h-0.83334z" style="fill:#851e38;stroke-width:.41667"/>
 <path d="m29.833 27h0.83334l1.0417-2.9167h0.41667l1.0417 2.9167h0.83334l-1.6667-4.1667h-0.83334z" style="fill:#3e4545;stroke-width:.41667"/>
</svg>
