<svg xmlns="http://www.w3.org/2000/svg" viewBox="0 0 48 48">
 <defs>
  <linearGradient id="linearGradient3481" y1="1" x2="0" y2="47" gradientUnits="userSpaceOnUse">
   <stop style="stop-color:#fc5858;stop-opacity:1"/>
   <stop offset="1" style="stop-color:#fc4444;stop-opacity:1"/>
  </linearGradient>
 </defs>
 <g>
  <path d="m 36.31 5 c 5.859 4.062 9.688 10.831 9.688 18.5 c 0 12.426 -10.07 22.5 -22.5 22.5 c -7.669 0 -14.438 -3.828 -18.5 -9.688 c 1.037 1.822 2.306 3.499 3.781 4.969 c 4.085 3.712 9.514 5.969 15.469 5.969 c 12.703 0 23 -10.298 23 -23 c 0 -5.954 -2.256 -11.384 -5.969 -15.469 c -1.469 -1.475 -3.147 -2.744 -4.969 -3.781 z m 4.969 3.781 c 3.854 4.113 6.219 9.637 6.219 15.719 c 0 12.703 -10.297 23 -23 23 c -6.081 0 -11.606 -2.364 -15.719 -6.219 c 4.16 4.144 9.883 6.719 16.219 6.719 c 12.703 0 23 -10.298 23 -23 c 0 -6.335 -2.575 -12.06 -6.719 -16.219 z" style="opacity:0.05"/>
  <path d="m 41.28 8.781 c 3.712 4.085 5.969 9.514 5.969 15.469 c 0 12.703 -10.297 23 -23 23 c -5.954 0 -11.384 -2.256 -15.469 -5.969 c 4.113 3.854 9.637 6.219 15.719 6.219 c 12.703 0 23 -10.298 23 -23 c 0 -6.081 -2.364 -11.606 -6.219 -15.719 z" style="opacity:0.1"/>
  <path d="m 31.25 2.375 c 8.615 3.154 14.75 11.417 14.75 21.13 c 0 12.426 -10.07 22.5 -22.5 22.5 c -9.708 0 -17.971 -6.135 -21.12 -14.75 a 23 23 0 0 0 44.875 -7 a 23 23 0 0 0 -16 -21.875 z" style="opacity:0.2"/>
 </g>
 <g style="fill:url(#linearGradient3481);fill-opacity:1">
  <path d="m 24 1 c 12.703 0 23 10.297 23 23 c 0 12.703 -10.297 23 -23 23 -12.703 0 -23 -10.297 -23 -23 0 -12.703 10.297 -23 23 -23 z"/>
 </g>
 <g>
  <path d="m 40.03 7.531 c 3.712 4.084 5.969 9.514 5.969 15.469 0 12.703 -10.297 23 -23 23 c -5.954 0 -11.384 -2.256 -15.469 -5.969 4.178 4.291 10.01 6.969 16.469 6.969 c 12.703 0 23 -10.298 23 -23 0 -6.462 -2.677 -12.291 -6.969 -16.469 z" style="opacity:0.1"/>
 </g>
 <path d="m 12.482 18.536 10.457 18.475 c 0 0 0.566 0.989 1.991 0.989 1.424 0 1.991 -0.989 1.991 -0.989 0 0 7.268 -11.132 10.233 -17.07 0.298 -0.596 0.619 -1.199 0.754 -1.853 0.092 -0.444 0.136 -0.92 0.03 -1.361 -0.129 -0.538 -0.378 -1.088 -0.784 -1.463 -0.469 -0.433 -1.12 -0.699 -1.754 -0.765 -0.682 -0.072 -1.409 0.092 -2.02 0.411 -0.429 0.226 -0.81 0.587 -1.05 1.01 -0.238 0.419 -0.299 0.927 -0.326 1.408 -0.018 0.331 0.047 0.664 0.115 0.988 0.023 0.111 0.061 0.219 0.099 0.325 0.097 0.271 0.229 0.528 0.328 0.798 0.082 0.222 0.196 0.44 0.222 0.676 0.042 0.38 0.032 0.786 -0.108 1.141 -0.683 1.728 -1.857 3.39 -3.409 4.405 -0.643 0.42 -1.466 0.525 -2.233 0.558 -0.875 0.037 -1.883 -0.032 -2.593 -0.418 -0.71 -0.386 -1.044 -1.056 -1.489 -1.647 -2.042 -2.71 -5.38 -8.646 -5.38 -8.646 0 0 -1.451 -2.565 -4.062 -1.01 -2.61 1.556 -1.015 4.04 -1.015 4.04 z" style="fill:#000;opacity:0.1;stroke:none;fill-rule:evenodd"/>
 <path d="m 11.482 17.536 10.457 18.475 c 0 0 0.566 0.989 1.991 0.989 1.424 0 1.991 -0.989 1.991 -0.989 0 0 7.268 -11.132 10.233 -17.07 0.298 -0.596 0.619 -1.199 0.754 -1.853 0.092 -0.444 0.136 -0.92 0.03 -1.361 -0.129 -0.538 -0.378 -1.088 -0.784 -1.463 -0.469 -0.433 -1.12 -0.699 -1.754 -0.765 -0.682 -0.072 -1.409 0.092 -2.02 0.411 -0.429 0.226 -0.81 0.587 -1.05 1.01 -0.238 0.419 -0.299 0.927 -0.326 1.408 -0.018 0.331 0.047 0.664 0.115 0.988 0.023 0.111 0.061 0.219 0.099 0.325 0.097 0.271 0.229 0.528 0.328 0.798 0.082 0.222 0.196 0.44 0.222 0.676 0.042 0.38 0.032 0.786 -0.108 1.141 -0.683 1.728 -1.857 3.39 -3.409 4.405 -0.643 0.42 -1.466 0.525 -2.233 0.558 -0.875 0.037 -1.883 -0.032 -2.593 -0.418 -0.71 -0.386 -1.044 -1.056 -1.489 -1.647 -2.042 -2.71 -5.38 -8.646 -5.38 -8.646 0 0 -1.451 -2.565 -4.062 -1.01 -2.61 1.556 -1.015 4.04 -1.015 4.04 z" style="fill:#f9f9f9;stroke:none;fill-rule:evenodd"/>
</svg>
