<svg xmlns="http://www.w3.org/2000/svg" viewBox="0 0 48 48">
 <defs>
  <linearGradient id="linearGradient3094" gradientUnits="userSpaceOnUse" gradientTransform="matrix(1.115973,0,0,1.115973,-3.038375,-2.730839)" x1="7.781" x2="43.44">
   <stop style="stop-color:#e5e5e5;stop-opacity:1"/>
   <stop offset="0.5" style="stop-color:#f9f9f9;stop-opacity:1"/>
   <stop offset="1" style="stop-color:#e5e5e5;stop-opacity:1"/>
  </linearGradient>
  <linearGradient id="linearGradient3108" gradientUnits="userSpaceOnUse" gradientTransform="matrix(0,-1,1,0,-1.5e-6,47.999998)" x1="1" x2="47">
   <stop style="stop-color:#ffab09;stop-opacity:1"/>
   <stop offset="1" style="stop-color:#ffb31d;stop-opacity:1"/>
  </linearGradient>
 </defs>
 <g>
  <path d="m 36.31 5 c 5.859 4.062 9.688 10.831 9.688 18.5 c 0 12.426 -10.07 22.5 -22.5 22.5 c -7.669 0 -14.438 -3.828 -18.5 -9.688 c 1.037 1.822 2.306 3.499 3.781 4.969 c 4.085 3.712 9.514 5.969 15.469 5.969 c 12.703 0 23 -10.298 23 -23 c 0 -5.954 -2.256 -11.384 -5.969 -15.469 c -1.469 -1.475 -3.147 -2.744 -4.969 -3.781 z m 4.969 3.781 c 3.854 4.113 6.219 9.637 6.219 15.719 c 0 12.703 -10.297 23 -23 23 c -6.081 0 -11.606 -2.364 -15.719 -6.219 c 4.16 4.144 9.883 6.719 16.219 6.719 c 12.703 0 23 -10.298 23 -23 c 0 -6.335 -2.575 -12.06 -6.719 -16.219 z" style="opacity:0.05"/>
  <path d="m 41.28 8.781 c 3.712 4.085 5.969 9.514 5.969 15.469 c 0 12.703 -10.297 23 -23 23 c -5.954 0 -11.384 -2.256 -15.469 -5.969 c 4.113 3.854 9.637 6.219 15.719 6.219 c 12.703 0 23 -10.298 23 -23 c 0 -6.081 -2.364 -11.606 -6.219 -15.719 z" style="opacity:0.1"/>
  <path d="m 31.25 2.375 c 8.615 3.154 14.75 11.417 14.75 21.13 c 0 12.426 -10.07 22.5 -22.5 22.5 c -9.708 0 -17.971 -6.135 -21.12 -14.75 a 23 23 0 0 0 44.875 -7 a 23 23 0 0 0 -16 -21.875 z" style="opacity:0.2"/>
 </g>
 <path d="m 24 1 c 0.515 0 1.025 0.029 1.531 0.063 c -0.507 -0.033 -1.016 -0.063 -1.531 -0.063 z m 1.531 0.063 c -0.537 12.549 9.07 19.755 21.16 26.75 0.208 -1.242 0.313 -2.511 0.313 -3.813 0 -12.188 -9.48 -22.15 -21.469 -22.938 z m -20.594 10.09 c -2.471 3.667 -3.938 8.09 -3.938 12.844 0 12.703 10.297 23 23 23 1.896 0 3.737 -0.224 5.5 -0.656 -7.526 -8.862 -16.247 -23.562 -24.563 -35.19 z" style="fill:url(#linearGradient3108);fill-opacity:1"/>
 <path d="m 24 1 c -7.939 0 -14.929 4.01 -19.06 10.125 c 0.003 0.01 -0.003 0.021 0 0.031 c 4.261 14.666 14.682 28.09 24.563 35.19 c 8.837 -2.169 15.671 -9.456 17.188 -18.531 c -8.934 -8.01 -15.805 -16.11 -21.16 -26.75 c -0.507 -0.033 -1.016 -0.063 -1.531 -0.063 z" style="fill:url(#linearGradient3094);stroke:none;fill-rule:evenodd"/>
 <path d="m 22,18 0,13 10,-6.5 M 22,18" style="fill:#000;opacity:0.1;fill-opacity:1;stroke:none;fill-rule:nonzero"/>
 <path d="m 21,17 0,13 10,-6.5 M 21,17" style="fill:#2d2d2d;fill-opacity:1;stroke:none;fill-rule:nonzero"/>
 <g>
  <path d="m 40.03 7.531 c 3.712 4.084 5.969 9.514 5.969 15.469 0 12.703 -10.297 23 -23 23 c -5.954 0 -11.384 -2.256 -15.469 -5.969 4.178 4.291 10.01 6.969 16.469 6.969 c 12.703 0 23 -10.298 23 -23 0 -6.462 -2.677 -12.291 -6.969 -16.469 z" style="opacity:0.1"/>
 </g>
</svg>
