<svg xmlns="http://www.w3.org/2000/svg" viewBox="0 0 48 48">
 <defs>
  <linearGradient id="linearGradient3764" x1="1" x2="47" gradientUnits="userSpaceOnUse" gradientTransform="matrix(0,-1,1,0,-1.5e-6,47.999998)">
   <stop style="stop-color:#d5d5d5;stop-opacity:1"/>
   <stop offset="1" style="stop-color:#dfdfdf;stop-opacity:1"/>
  </linearGradient>
 </defs>
 <g>
  <path d="m 36.31 5 c 5.859 4.062 9.688 10.831 9.688 18.5 c 0 12.426 -10.07 22.5 -22.5 22.5 c -7.669 0 -14.438 -3.828 -18.5 -9.688 c 1.037 1.822 2.306 3.499 3.781 4.969 c 4.085 3.712 9.514 5.969 15.469 5.969 c 12.703 0 23 -10.298 23 -23 c 0 -5.954 -2.256 -11.384 -5.969 -15.469 c -1.469 -1.475 -3.147 -2.744 -4.969 -3.781 z m 4.969 3.781 c 3.854 4.113 6.219 9.637 6.219 15.719 c 0 12.703 -10.297 23 -23 23 c -6.081 0 -11.606 -2.364 -15.719 -6.219 c 4.16 4.144 9.883 6.719 16.219 6.719 c 12.703 0 23 -10.298 23 -23 c 0 -6.335 -2.575 -12.06 -6.719 -16.219 z" style="opacity:0.05"/>
  <path d="m 41.28 8.781 c 3.712 4.085 5.969 9.514 5.969 15.469 c 0 12.703 -10.297 23 -23 23 c -5.954 0 -11.384 -2.256 -15.469 -5.969 c 4.113 3.854 9.637 6.219 15.719 6.219 c 12.703 0 23 -10.298 23 -23 c 0 -6.081 -2.364 -11.606 -6.219 -15.719 z" style="opacity:0.1"/>
  <path d="m 31.25 2.375 c 8.615 3.154 14.75 11.417 14.75 21.13 c 0 12.426 -10.07 22.5 -22.5 22.5 c -9.708 0 -17.971 -6.135 -21.12 -14.75 a 23 23 0 0 0 44.875 -7 a 23 23 0 0 0 -16 -21.875 z" style="opacity:0.2"/>
 </g>
 <g>
  <path d="m 24 1 c 12.703 0 23 10.297 23 23 c 0 12.703 -10.297 23 -23 23 -12.703 0 -23 -10.297 -23 -23 0 -12.703 10.297 -23 23 -23 z" style="fill:url(#linearGradient3764);fill-opacity:1"/>
 </g>
 <g>
  <g>
   <g transform="translate(1,1)">
    <g style="opacity:0.1">
     <!-- color: #dfdfdf -->
     <g>
      <path d="m 11.531 13 c -0.297 0.031 -0.531 0.297 -0.531 0.594 l 0 10.816 c 0 0.316 0.277 0.594 0.594 0.594 l 5.406 0 l 0 2 l -4 0 l 0 2 l 7.281 0 l 0 -6 l -6.84 0 c -0.211 0 -0.41 -0.195 -0.41 -0.41 l 0 -7.184 c -0.004 -0.188 0.129 -0.371 0.313 -0.406 c 0.023 -0.004 0.066 -0.004 0.094 0 l 11.125 0 c 0.207 0 0.406 0.191 0.406 0.406 l 0 2.875 l 2.031 0 l 0 -4.691 c 0 -0.313 -0.281 -0.594 -0.594 -0.594 m -14.875 0" style="fill:#000;fill-opacity:1;stroke:none;fill-rule:nonzero"/>
      <path d="m 21.781 19 l 3.125 2 l 9.656 0 c 0.207 0 0.406 0.195 0.406 0.406 l 0 7.188 c 0 0.211 -0.199 0.406 -0.406 0.406 l -11.125 0 c -0.211 0 -0.406 -0.195 -0.406 -0.406 l 0 -4.469 l -2.031 -1.313 l 0 7.594 c 0 0.313 0.281 0.594 0.594 0.594 l 5.406 0 l 0 2 l -4 0 l 0 2 l 12 0 l 0 -2 l -4 0 l 0 -2 l 5.406 0 c 0.313 0 0.594 -0.277 0.594 -0.594 l 0 -10.813 c 0 -0.316 -0.281 -0.594 -0.594 -0.594 m -14.625 0" style="fill:#000;fill-opacity:1;stroke:none;fill-rule:nonzero"/>
      <path d="m 19.906 19.277 c 0 0 -0.326 -0.017 -0.775 0.688 -0.438 0.676 -0.277 1.012 -0.277 1.012 2.158 1.39 6.479 4.164 6.479 4.164 l 2.207 0.227 -1.133 -1.908 c 0 0 -4.503 -2.902 -6.5 -4.182 z" transform="translate(-1,-1)" style="fill:#000;fill-opacity:1;stroke:none;fill-rule:nonzero"/>
     </g>
    </g>
   </g>
  </g>
 </g>
 <g>
  <g>
   <!-- color: #dfdfdf -->
   <g>
    <path d="M 11.531,13 C 11.234,13.031 11,13.297 11,13.594 l 0,10.816 c 0,0.316 0.277,0.594 0.594,0.594 l 5.406,0 0,2 -4,0 0,2 7.281,0 0,-6 -6.84,0 c -0.211,0 -0.41,-0.195 -0.41,-0.41 l 0,-7.184 c -0.004,-0.188 0.129,-0.371 0.313,-0.406 0.023,-0.004 0.066,-0.004 0.094,0 l 11.125,0 c 0.207,0 0.406,0.191 0.406,0.406 l 0,2.875 2.031,0 0,-4.691 C 27,13.281 26.719,13 26.406,13 m -14.875,0" style="fill:#2fa32f;fill-opacity:1;stroke:none;fill-rule:nonzero"/>
    <path d="m 21.781,19 3.125,2 9.656,0 c 0.207,0 0.406,0.195 0.406,0.406 l 0,7.188 c 0,0.211 -0.199,0.406 -0.406,0.406 l -11.125,0 c -0.211,0 -0.406,-0.195 -0.406,-0.406 l 0,-4.469 L 21,22.812 21,30.406 C 21,30.719 21.281,31 21.594,31 l 5.406,0 0,2 -4,0 0,2 12,0 0,-2 -4,0 0,-2 5.406,0 C 36.719,31 37,30.723 37,30.406 l 0,-10.813 c 0,-0.316 -0.281,-0.594 -0.594,-0.594 m -14.625,0" style="fill:#3692b3;fill-opacity:1;stroke:none;fill-rule:nonzero"/>
    <path d="m 24.332 24.14 -5.793 -3.723 1.078 -1.684 5.793 3.723 m -1.078 1.684" style="fill:#ff6f03;fill-opacity:1;stroke:none;fill-rule:nonzero"/>
    <path d="m 18.848 20.617 1.082 -1.684 -1.023 -0.656 c 0 0 -0.328 -0.016 -0.777 0.688 -0.438 0.676 -0.277 1.012 -0.277 1.012 l 0.996 0.641 m 0 0.004" style="fill:#ff2d5b;fill-opacity:1;stroke:none;fill-rule:nonzero"/>
    <path d="m 24.316 24.13 2.223 0.238 -1.141 -1.922 m -1.082 1.684" style="fill:#ffc13d;fill-opacity:1;stroke:none;fill-rule:nonzero"/>
    <path d="m 25.426 24.26 1.113 0.105 -0.566 -0.969 m -0.547 0.855" style="fill:#2d2d2d;fill-opacity:1;stroke:none;fill-rule:nonzero"/>
   </g>
  </g>
 </g>
 <g>
  <path d="m 40.03 7.531 c 3.712 4.084 5.969 9.514 5.969 15.469 0 12.703 -10.297 23 -23 23 c -5.954 0 -11.384 -2.256 -15.469 -5.969 4.178 4.291 10.01 6.969 16.469 6.969 c 12.703 0 23 -10.298 23 -23 0 -6.462 -2.677 -12.291 -6.969 -16.469 z" style="opacity:0.1"/>
 </g>
</svg>
