<svg version="1.1" viewBox="0 0 48 48" xmlns="http://www.w3.org/2000/svg">
 <defs>
  <linearGradient id="bg" x1="1" x2="47" gradientTransform="matrix(0 -1 1 0 -1.5e-6 48)" gradientUnits="userSpaceOnUse">
   <stop style="stop-color:#f8ee4c" offset="0"/>
   <stop style="stop-color:#f9f05f" offset="1"/>
  </linearGradient>
 </defs>
 <path d="m36.31 5c5.859 4.062 9.688 10.831 9.688 18.5 0 12.426-10.07 22.5-22.5 22.5-7.669 0-14.438-3.828-18.5-9.688 1.037 1.822 2.306 3.499 3.781 4.969 4.085 3.712 9.514 5.969 15.469 5.969 12.703 0 23-10.298 23-23 0-5.954-2.256-11.384-5.969-15.469-1.469-1.475-3.147-2.744-4.969-3.781zm4.969 3.781c3.854 4.113 6.219 9.637 6.219 15.719 0 12.703-10.297 23-23 23-6.081 0-11.606-2.364-15.719-6.219 4.16 4.144 9.883 6.719 16.219 6.719 12.703 0 23-10.298 23-23 0-6.335-2.575-12.06-6.719-16.219z" style="opacity:.05"/>
 <path d="m41.28 8.781c3.712 4.085 5.969 9.514 5.969 15.469 0 12.703-10.297 23-23 23-5.954 0-11.384-2.256-15.469-5.969 4.113 3.854 9.637 6.219 15.719 6.219 12.703 0 23-10.298 23-23 0-6.081-2.364-11.606-6.219-15.719z" style="opacity:.1"/>
 <path d="m31.25 2.375c8.615 3.154 14.75 11.417 14.75 21.13 0 12.426-10.07 22.5-22.5 22.5-9.708 0-17.971-6.135-21.12-14.75a23 23 0 0 0 44.875-7 23 23 0 0 0-16-21.875z" style="opacity:.2"/>
 <path d="m24 1c12.703 0 23 10.297 23 23s-10.297 23-23 23-23-10.297-23-23 10.297-23 23-23z" style="fill:url(#bg)"/>
 <path d="m40.03 7.531c3.712 4.084 5.969 9.514 5.969 15.469 0 12.703-10.297 23-23 23-5.954 0-11.384-2.256-15.469-5.969 4.178 4.291 10.01 6.969 16.469 6.969 12.703 0 23-10.298 23-23 0-6.462-2.677-12.291-6.969-16.469z" style="opacity:.1"/>
 <g transform="matrix(3.5433 0 0 3.5433 2.2e-7 -1.0026)">
  <g transform="translate(.28222 .28222)" style="opacity:.12">
   <path d="m2.54 3.6685 1.9899 5.8252c0.080998 0.23989 0.26488 0.38617 0.51098 0.3842 0.24412-0.0011289 0.42339-0.14628 0.50326-0.3842l1.9811-5.8252h-1.0655l-1.4221 4.4252-1.4442-4.4252zm6.4911 0.0011c-0.78176 0-1.4111 0.62936-1.4111 1.4111v1.4111h0.84667v-1.4111c0-0.3127 0.25174-0.56444 0.56444-0.56444s0.56444 0.25174 0.56444 0.56444v1.4111h0.84667v-1.4111c0-0.78176-0.62936-1.4111-1.4111-1.4111zm-0.00992 3.385c-0.024838-1.21e-5 -0.049667 9.525e-4 -0.074414 0.0022v-5.441e-4c-0.23763 0.011853-0.46947 0.082343-0.66477 0.21442-0.52098 0.35108-0.7001 0.99108-0.42719 1.5792l-1.1879 1.189c-0.39596 0.39596-0.37399 0.82148-0.19789 0.99053s0.59402 0.19862 0.98998-0.19734l0.59421 0.19734-0.39632-0.79265 0.98998 0.19789-0.19789-0.59421 0.19789-0.19789c0.58307 0.28222 1.205 0.11209 1.566-0.40184 0.36096-0.51506 0.28214-1.3065-0.17308-1.7705v-0.0011c-0.26723-0.27199-0.64607-0.41434-1.0186-0.41452zm0.29214 0.84832a0.28222 0.28222 0 0 1 0.28222 0.28222 0.28222 0.28222 0 0 1-0.28222 0.28222 0.28222 0.28222 0 0 1-0.28222-0.28222 0.28222 0.28222 0 0 1 0.28222-0.28222z" style="color:#000000;stroke-width:.28222"/>
  </g>
  <path d="m9.0063 7.0557c-0.25825 0.00245-0.51264 0.073076-0.7243 0.21608-0.521 0.351-0.70019 0.99068-0.42719 1.5787l-1.1879 1.1895c-0.396 0.396-0.37389 0.82153-0.19789 0.99053s0.59398 0.19811 0.98998-0.19789l0.59421 0.19789-0.39632-0.79265 0.98998 0.19789-0.19789-0.59421 0.19789-0.19789c0.583 0.283 1.205 0.11216 1.566-0.40184 0.361-0.515 0.28292-1.3071-0.17308-1.7711v-0.0011c-0.27075-0.2755-0.65608-0.41754-1.0335-0.41397zm0.30703 0.84722a0.28222 0.28222 0 0 1 0.28222 0.28222 0.28222 0.28222 0 0 1-0.28222 0.28222 0.28222 0.28222 0 0 1-0.28222-0.28222 0.28222 0.28222 0 0 1 0.28222-0.28222z" style="color:#000000;fill:#5b5bd1"/>
  <path d="m2.54 3.6687h1.055l1.444 4.425 1.421-4.425h1.066l-1.981 5.825c-0.08 0.238-0.259 0.383-0.503 0.384-0.246 2e-3 -0.43-0.144-0.511-0.384l-1.991-5.825" style="fill-rule:evenodd;fill:#e94646"/>
 </g>
 <path d="m32 12c-2.77 0-5 2.23-5 5v5h3v-5c0-1.108 0.892-2 2-2s2 0.892 2 2v5h3v-5c0-2.77-2.23-5-5-5z" style="fill:#45c546"/>
</svg>
