<svg xmlns="http://www.w3.org/2000/svg" viewBox="0 0 48 48">
 <defs>
  <linearGradient id="linearGradient3764" x1="1" x2="47" gradientUnits="userSpaceOnUse" gradientTransform="matrix(0,-1,1,0,-1.5e-6,47.999998)">
   <stop style="stop-color:#f8ee4c;stop-opacity:1"/>
   <stop offset="1" style="stop-color:#f9f05f;stop-opacity:1"/>
  </linearGradient>
 </defs>
 <g>
  <path d="m 36.31 5 c 5.859 4.062 9.688 10.831 9.688 18.5 c 0 12.426 -10.07 22.5 -22.5 22.5 c -7.669 0 -14.438 -3.828 -18.5 -9.688 c 1.037 1.822 2.306 3.499 3.781 4.969 c 4.085 3.712 9.514 5.969 15.469 5.969 c 12.703 0 23 -10.298 23 -23 c 0 -5.954 -2.256 -11.384 -5.969 -15.469 c -1.469 -1.475 -3.147 -2.744 -4.969 -3.781 z m 4.969 3.781 c 3.854 4.113 6.219 9.637 6.219 15.719 c 0 12.703 -10.297 23 -23 23 c -6.081 0 -11.606 -2.364 -15.719 -6.219 c 4.16 4.144 9.883 6.719 16.219 6.719 c 12.703 0 23 -10.298 23 -23 c 0 -6.335 -2.575 -12.06 -6.719 -16.219 z" style="opacity:0.05"/>
  <path d="m 41.28 8.781 c 3.712 4.085 5.969 9.514 5.969 15.469 c 0 12.703 -10.297 23 -23 23 c -5.954 0 -11.384 -2.256 -15.469 -5.969 c 4.113 3.854 9.637 6.219 15.719 6.219 c 12.703 0 23 -10.298 23 -23 c 0 -6.081 -2.364 -11.606 -6.219 -15.719 z" style="opacity:0.1"/>
  <path d="m 31.25 2.375 c 8.615 3.154 14.75 11.417 14.75 21.13 c 0 12.426 -10.07 22.5 -22.5 22.5 c -9.708 0 -17.971 -6.135 -21.12 -14.75 a 23 23 0 0 0 44.875 -7 a 23 23 0 0 0 -16 -21.875 z" style="opacity:0.2"/>
 </g>
 <g>
  <path d="m 24 1 c 12.703 0 23 10.297 23 23 c 0 12.703 -10.297 23 -23 23 -12.703 0 -23 -10.297 -23 -23 0 -12.703 10.297 -23 23 -23 z" style="fill:url(#linearGradient3764);fill-opacity:1"/>
 </g>
 <g>
  <path d="m 40.03 7.531 c 3.712 4.084 5.969 9.514 5.969 15.469 0 12.703 -10.297 23 -23 23 c -5.954 0 -11.384 -2.256 -15.469 -5.969 4.178 4.291 10.01 6.969 16.469 6.969 c 12.703 0 23 -10.298 23 -23 0 -6.462 -2.677 -12.291 -6.969 -16.469 z" style="opacity:0.1"/>
 </g>
 <g transform="matrix(3.543307,0,0,3.543307,2.2e-7,-1.0026248)">
  <g transform="translate(0.28222224,0.2822227)" style="fill:#000;opacity:0.12;fill-opacity:1">
   <path d="m 10 13.996 l 7.05 20.641 c 0.287 0.85 0.939 1.368 1.811 1.361 c 0.865 -0.004 1.5 -0.518 1.783 -1.361 l 7.02 -20.641 l -3.775 0 l -5.04 15.68 l -5.117 -15.68 l -3.738 0 z m 23 0.004 c -2.77 0 -5 2.23 -5 5 l 0 5 l 3 0 l 0 -5 c 0 -1.108 0.892 -2 2 -2 c 1.108 0 2 0.892 2 2 l 0 5 l 3 0 l 0 -5 c 0 -2.77 -2.23 -5 -5 -5 z m -0.299 12 c -0.842 0.042 -1.663 0.292 -2.355 0.76 c -1.846 1.244 -2.481 3.512 -1.514 5.596 l -4.209 4.213 c -1.403 1.403 -1.325 2.911 -0.701 3.51 c 0.624 0.599 2.105 0.702 3.508 -0.701 l 2.105 0.701 l -1.404 -2.809 l 3.508 0.701 l -0.701 -2.105 l 0.701 -0.701 c 2.066 1 4.27 0.397 5.549 -1.424 c 1.279 -1.825 1 -4.631 -0.613 -6.275 l 0 -0.004 c -1.01 -1.028 -2.47 -1.532 -3.873 -1.461 z m 1.066 3.24 c 0.26 0 0.519 0.103 0.725 0.309 c 0.411 0.411 0.411 1.038 0 1.449 c -0.411 0.411 -1.038 0.411 -1.449 0 c -0.411 -0.411 -0.411 -1.038 0 -1.449 c 0.206 -0.206 0.465 -0.309 0.725 -0.309 z" transform="matrix(0.28222223,0,0,0.28222223,-0.2822223,7.4030603e-4)" style="color:#000"/>
  </g>
  <g>
   <path d="M 10.04,7.752 C 9.584,7.288 8.803,7.202 8.282,7.554 7.761,7.905 7.582,8.545 7.855,9.133 l -1.188,1.189 c -0.396,0.396 -0.374,0.822 -0.198,0.991 0.176,0.169 0.594,0.198 0.99,-0.198 L 8.053,11.313 7.657,10.52 8.647,10.718 8.449,10.124 8.647,9.926 C 9.23,10.209 9.852,10.038 10.213,9.524 10.574,9.009 10.496,8.217 10.04,7.753 M 9.452,8.341 c 0.116,0.116 0.116,0.293 0,0.409 -0.116,0.116 -0.293,0.116 -0.409,0 -0.116,-0.116 -0.116,-0.293 0,-0.409 0.116,-0.116 0.293,-0.116 0.409,0 z" style="fill:#5b5bd1;fill-opacity:1;color:#000"/>
   <path d="m 2.54,3.951 1.055,0 1.444,4.425 1.421,-4.425 1.066,0 -1.981,5.825 C 5.465,10.014 5.286,10.159 5.042,10.16 4.796,10.162 4.612,10.016 4.531,9.776 L 2.54,3.951" style="fill:#e94646;fill-opacity:1;stroke:none;fill-rule:evenodd"/>
  </g>
 </g>
 <path d="m 32 13 c -2.77 0 -5 2.23 -5 5 l 0 5 3 0 0 -5 c 0 -1.108 0.892 -2 2 -2 1.108 0 2 0.892 2 2 l 0 5 3 0 0 -5 c 0 -2.77 -2.23 -5 -5 -5 z" style="fill:#45c546;opacity:1;fill-opacity:1;stroke:none"/>
</svg>
