<svg xmlns="http://www.w3.org/2000/svg" viewBox="0 0 48 48">
 <defs>
  <linearGradient id="linearGradient3764" x1="1" x2="47" gradientUnits="userSpaceOnUse" gradientTransform="matrix(0,-1,1,0,-1.5e-6,47.999998)">
   <stop style="stop-color:#e4e4e4;stop-opacity:1"/>
   <stop offset="1" style="stop-color:#eee;stop-opacity:1"/>
  </linearGradient>
 </defs>
 <g>
  <path d="m 36.31 5 c 5.859 4.062 9.688 10.831 9.688 18.5 c 0 12.426 -10.07 22.5 -22.5 22.5 c -7.669 0 -14.438 -3.828 -18.5 -9.688 c 1.037 1.822 2.306 3.499 3.781 4.969 c 4.085 3.712 9.514 5.969 15.469 5.969 c 12.703 0 23 -10.298 23 -23 c 0 -5.954 -2.256 -11.384 -5.969 -15.469 c -1.469 -1.475 -3.147 -2.744 -4.969 -3.781 z m 4.969 3.781 c 3.854 4.113 6.219 9.637 6.219 15.719 c 0 12.703 -10.297 23 -23 23 c -6.081 0 -11.606 -2.364 -15.719 -6.219 c 4.16 4.144 9.883 6.719 16.219 6.719 c 12.703 0 23 -10.298 23 -23 c 0 -6.335 -2.575 -12.06 -6.719 -16.219 z" style="opacity:0.05"/>
  <path d="m 41.28 8.781 c 3.712 4.085 5.969 9.514 5.969 15.469 c 0 12.703 -10.297 23 -23 23 c -5.954 0 -11.384 -2.256 -15.469 -5.969 c 4.113 3.854 9.637 6.219 15.719 6.219 c 12.703 0 23 -10.298 23 -23 c 0 -6.081 -2.364 -11.606 -6.219 -15.719 z" style="opacity:0.1"/>
  <path d="m 31.25 2.375 c 8.615 3.154 14.75 11.417 14.75 21.13 c 0 12.426 -10.07 22.5 -22.5 22.5 c -9.708 0 -17.971 -6.135 -21.12 -14.75 a 23 23 0 0 0 44.875 -7 a 23 23 0 0 0 -16 -21.875 z" style="opacity:0.2"/>
 </g>
 <g>
  <path d="m 24 1 c 12.703 0 23 10.297 23 23 c 0 12.703 -10.297 23 -23 23 -12.703 0 -23 -10.297 -23 -23 0 -12.703 10.297 -23 23 -23 z" style="fill:url(#linearGradient3764);fill-opacity:1"/>
 </g>
 <g>
  <path d="m 40.03 7.531 c 3.712 4.084 5.969 9.514 5.969 15.469 0 12.703 -10.297 23 -23 23 c -5.954 0 -11.384 -2.256 -15.469 -5.969 4.178 4.291 10.01 6.969 16.469 6.969 c 12.703 0 23 -10.298 23 -23 0 -6.462 -2.677 -12.291 -6.969 -16.469 z" style="opacity:0.1"/>
 </g>
 <path d="m 10.01 15 l 7.05 20.639 c 0.288 0.85 0.94 1.366 1.811 1.359 c 0.865 -0.005 1.498 -0.515 1.781 -1.359 l 7.02 -20.639 l -3.779 0 l -5.04 15.68 l -5.117 -15.68 l -3.729 0 z m 22.99 0 c -2.77 0 -5 2.23 -5 5 l 0 5 l 3 0 l 0 -5 c 0 -1.108 0.892 -2 2 -2 c 1.108 0 2 0.892 2 2 l 0 5 l 3 0 l 0 -5 c 0 -2.77 -2.23 -5 -5 -5 z m 0 12 c -2.77 0 -5 2.23 -5 5 c 0 2.77 2.23 5 5 5 l 5 0 l 0 -3 l -5 0 c -1.108 0 -2 -0.892 -2 -2 c 0 -1.108 0.892 -2 2 -2 l 5 0 l 0 -3 l -5 0 z" style="fill:#000;opacity:0.1;fill-opacity:1;stroke:none;fill-rule:evenodd"/>
 <path d="m 9 14 3.738 0 5.117 15.679 l 5.04 -15.679 3.778 0 -7.02 20.638 c -0.283 0.844 -0.917 1.356 -1.782 1.361 -0.871 0.007 -1.523 -0.511 -1.811 -1.361 l -7.05 -20.638" style="fill:#49d74a;fill-opacity:1;stroke:none;fill-rule:evenodd"/>
 <path d="m 32 14 c -2.77 0 -5 2.23 -5 5 l 0 5 3 0 0 -5 c 0 -1.108 0.892 -2 2 -2 1.108 0 2 0.892 2 2 l 0 5 3 0 0 -5 c 0 -2.77 -2.23 -5 -5 -5 z" style="fill:#5252da;opacity:1;fill-opacity:1;stroke:none"/>
 <path d="m 27 31 c 0 2.77 2.23 5 5 5 l 5 0 0 -3 -5 0 c -1.108 0 -2 -0.892 -2 -2 0 -1.108 0.892 -2 2 -2 l 5 0 0 -3 -5 0 c -2.77 0 -5 2.23 -5 5 z" style="fill:#f13e3e;opacity:1;fill-opacity:1;stroke:none"/>
</svg>
