<svg xmlns="http://www.w3.org/2000/svg" viewBox="0 0 48 48">
 <defs>
  <linearGradient id="linearGradient3764" x1="1" x2="47" gradientUnits="userSpaceOnUse" gradientTransform="matrix(0,-1,1,0,-1.5e-6,47.999998)">
   <stop style="stop-color:#c25fc3;stop-opacity:1"/>
   <stop offset="1" style="stop-color:#c975cb;stop-opacity:1"/>
  </linearGradient>
 </defs>
 <g>
  <path d="m 36.31 5 c 5.859 4.062 9.688 10.831 9.688 18.5 c 0 12.426 -10.07 22.5 -22.5 22.5 c -7.669 0 -14.438 -3.828 -18.5 -9.688 c 1.037 1.822 2.306 3.499 3.781 4.969 c 4.085 3.712 9.514 5.969 15.469 5.969 c 12.703 0 23 -10.298 23 -23 c 0 -5.954 -2.256 -11.384 -5.969 -15.469 c -1.469 -1.475 -3.147 -2.744 -4.969 -3.781 z m 4.969 3.781 c 3.854 4.113 6.219 9.637 6.219 15.719 c 0 12.703 -10.297 23 -23 23 c -6.081 0 -11.606 -2.364 -15.719 -6.219 c 4.16 4.144 9.883 6.719 16.219 6.719 c 12.703 0 23 -10.298 23 -23 c 0 -6.335 -2.575 -12.06 -6.719 -16.219 z" style="opacity:0.05"/>
  <path d="m 41.28 8.781 c 3.712 4.085 5.969 9.514 5.969 15.469 c 0 12.703 -10.297 23 -23 23 c -5.954 0 -11.384 -2.256 -15.469 -5.969 c 4.113 3.854 9.637 6.219 15.719 6.219 c 12.703 0 23 -10.298 23 -23 c 0 -6.081 -2.364 -11.606 -6.219 -15.719 z" style="opacity:0.1"/>
  <path d="m 31.25 2.375 c 8.615 3.154 14.75 11.417 14.75 21.13 c 0 12.426 -10.07 22.5 -22.5 22.5 c -9.708 0 -17.971 -6.135 -21.12 -14.75 a 23 23 0 0 0 44.875 -7 a 23 23 0 0 0 -16 -21.875 z" style="opacity:0.2"/>
 </g>
 <g>
  <path d="m 24 1 c 12.703 0 23 10.297 23 23 c 0 12.703 -10.297 23 -23 23 -12.703 0 -23 -10.297 -23 -23 0 -12.703 10.297 -23 23 -23 z" style="fill:url(#linearGradient3764);fill-opacity:1"/>
 </g>
 <g>
  <path d="m 40.03 7.531 c 3.712 4.084 5.969 9.514 5.969 15.469 0 12.703 -10.297 23 -23 23 c -5.954 0 -11.384 -2.256 -15.469 -5.969 4.178 4.291 10.01 6.969 16.469 6.969 c 12.703 0 23 -10.298 23 -23 0 -6.462 -2.677 -12.291 -6.969 -16.469 z" style="opacity:0.1"/>
 </g>
 <g transform="scale(3.543307,3.543307)">
  <g transform="matrix(0.28222223,0,0,0.28222223,0.28222222,0.56444443)" style="fill:#000;opacity:0.1;fill-opacity:1">
   <path d="m 24.998 17 c -1.346 0 -2.635 0.86 -2.936 2 l -0.064 1 2 0 l 0 1 -2 0 0 1 2 0 0 1 -2 0 0 1 2 0 0 1 -2 0 0 0.5 c 0 1.076 0.885 1.982 2 2.336 l 0 1.037 c -1.702 -0.394 -3 -1.753 -3 -3.404 l 0 -2.969 c 0 -0.275 -0.135 -0.498 -0.439 -0.5 l -0.002 0 -0.002 0 c -0.305 0.002 -0.553 0.225 -0.553 0.5 l 0 2.969 c 0 1.968 1.968 3.973 4 4.25 l 0 1.281 l -3 0 0 1 8 0 0 -1 -3 0 0 -1.281 c 2 -0.309 4 -2.282 4 -4.25 l 0 -2.969 c 0 -0.276 -0.25 -0.5 -0.557 -0.5 c -0.307 0 -0.461 0.224 -0.461 0.5 0.078 0.959 0.035 1.984 0.035 2.969 0 1.651 -1.312 3.01 -3.02 3.404 l 0 -1.037 c 1.115 -0.354 2 -1.26 2 -2.336 l 0 -0.5 -2 0 0 -1 2 0 0 -1 -2 0 0 -1 2 0 0 -1 -2 0 0 -1 1.998 0 -0.063 -1 c -0.301 -1.14 -1.589 -1.999 -2.936 -2 l -0.002 0 z" transform="translate(-0.99999996,-1.9999999)" style="color:#bebebe"/>
   <path d="M 24,8 C 15.716,8 9,14.716 9,23 9,31.284 15.716,38 24,38 32.284,38 39,31.284 39,23 39,14.716 32.284,8 24,8 Z m 0,1 c 7.732,0 14,6.268 14,14 0,7.732 -6.268,14 -14,14 C 16.268,37 10,30.732 10,23 10,15.268 16.268,9 24,9 Z" style="stroke:none"/>
   <path d="m 24 11 c -6.627 0 -12 5.373 -12 12 0 6.627 5.373 12 12 12 6.627 0 12 -5.373 12 -12 0 -6.627 -5.373 -12 -12 -12 z m 0 1 c 6.075 0 11 4.925 11 11 0 6.075 -4.925 11 -11 11 -6.075 0 -11 -4.925 -11 -11 0 -6.075 4.925 -11 11 -11 z" style="stroke:none"/>
  </g>
  <g transform="translate(-10.724445,0)">
   <path d="m 16.243 5.927 c -0.087 0 -0.157 0.063 -0.157 0.141 l 0 0.838 c 0 0.556 0.556 1.121 1.129 1.199 l 0 0.362 -0.847 0 0 0.282 2.258 0 0 -0.282 -0.847 0 0 -0.362 c 0.564 -0.087 1.129 -0.644 1.129 -1.199 l 0 -0.838 c 0 -0.078 -0.07 -0.141 -0.157 -0.141 -0.087 0 -0.13 0.063 -0.13 0.141 0.022 0.271 0 0.56 0 0.838 0 0.554 -0.522 0.997 -1.134 0.997 -0.612 0 -1.129 -0.442 -1.129 -0.997 l 0 -0.838 c 0 -0.078 -0.039 -0.141 -0.125 -0.141 z" style="fill:#f9f9f9;fill-opacity:1;color:#bebebe"/>
   <path d="m 17.497 4.516 c -0.38 0 -0.744 0.242 -0.829 0.564 l -0.018 0.282 1.693 0 -0.018 -0.282 c -0.085 -0.322 -0.449 -0.564 -0.829 -0.564 z m -0.847 1.129 0 0.282 1.693 0 0 -0.282 z m 0 0.564 0 0.282 1.693 0 0 -0.282 z m 0 0.564 0 0.141 c 0 0.391 0.412 0.706 0.847 0.706 0.434 0 0.847 -0.315 0.847 -0.706 l 0 -0.141 z" style="fill:#f9f9f9;fill-opacity:1;stroke:none"/>
   <rect y="5.08" x="17.215" height="2.935" width="0.564" style="fill:#f9f9f9;fill-opacity:1;stroke:none"/>
   <path d="m 17.497 2.54 c -2.338 0 -4.233 1.895 -4.233 4.233 0 2.338 1.895 4.233 4.233 4.233 2.338 0 4.233 -1.895 4.233 -4.233 0 -2.338 -1.895 -4.233 -4.233 -4.233 z m 0 0.282 c 2.182 0 3.951 1.769 3.951 3.951 0 2.182 -1.769 3.951 -3.951 3.951 -2.182 0 -3.951 -1.769 -3.951 -3.951 0 -2.182 1.769 -3.951 3.951 -3.951 z" style="fill:#f9f9f9;fill-opacity:1;stroke:none"/>
   <path d="m 17.497 3.387 c -1.87 0 -3.387 1.516 -3.387 3.387 0 1.87 1.516 3.387 3.387 3.387 1.87 0 3.387 -1.516 3.387 -3.387 0 -1.87 -1.516 -3.387 -3.387 -3.387 z m 0 0.282 c 1.715 0 3.104 1.39 3.104 3.104 0 1.715 -1.39 3.104 -3.104 3.104 -1.715 0 -3.104 -1.39 -3.104 -3.104 0 -1.715 1.39 -3.104 3.104 -3.104 z" style="fill:#f9f9f9;fill-opacity:1;stroke:none"/>
  </g>
 </g>
</svg>
