<svg xmlns="http://www.w3.org/2000/svg" viewBox="0 0 48 48">
 <defs>
  <linearGradient id="linearGradient3764" x1="1" x2="47" gradientUnits="userSpaceOnUse" gradientTransform="matrix(0,-1,1,0,-1.5e-6,47.999998)">
   <stop style="stop-color:#c25fc3;stop-opacity:1"/>
   <stop offset="1" style="stop-color:#c975cb;stop-opacity:1"/>
  </linearGradient>
 </defs>
 <g>
  <path d="m 36.31 5 c 5.859 4.062 9.688 10.831 9.688 18.5 c 0 12.426 -10.07 22.5 -22.5 22.5 c -7.669 0 -14.438 -3.828 -18.5 -9.688 c 1.037 1.822 2.306 3.499 3.781 4.969 c 4.085 3.712 9.514 5.969 15.469 5.969 c 12.703 0 23 -10.298 23 -23 c 0 -5.954 -2.256 -11.384 -5.969 -15.469 c -1.469 -1.475 -3.147 -2.744 -4.969 -3.781 z m 4.969 3.781 c 3.854 4.113 6.219 9.637 6.219 15.719 c 0 12.703 -10.297 23 -23 23 c -6.081 0 -11.606 -2.364 -15.719 -6.219 c 4.16 4.144 9.883 6.719 16.219 6.719 c 12.703 0 23 -10.298 23 -23 c 0 -6.335 -2.575 -12.06 -6.719 -16.219 z" style="opacity:0.05"/>
  <path d="m 41.28 8.781 c 3.712 4.085 5.969 9.514 5.969 15.469 c 0 12.703 -10.297 23 -23 23 c -5.954 0 -11.384 -2.256 -15.469 -5.969 c 4.113 3.854 9.637 6.219 15.719 6.219 c 12.703 0 23 -10.298 23 -23 c 0 -6.081 -2.364 -11.606 -6.219 -15.719 z" style="opacity:0.1"/>
  <path d="m 31.25 2.375 c 8.615 3.154 14.75 11.417 14.75 21.13 c 0 12.426 -10.07 22.5 -22.5 22.5 c -9.708 0 -17.971 -6.135 -21.12 -14.75 a 23 23 0 0 0 44.875 -7 a 23 23 0 0 0 -16 -21.875 z" style="opacity:0.2"/>
 </g>
 <g>
  <path d="m 24 1 c 12.703 0 23 10.297 23 23 c 0 12.703 -10.297 23 -23 23 -12.703 0 -23 -10.297 -23 -23 0 -12.703 10.297 -23 23 -23 z" style="fill:url(#linearGradient3764);fill-opacity:1"/>
 </g>
 <g>
  <path d="m 40.03 7.531 c 3.712 4.084 5.969 9.514 5.969 15.469 0 12.703 -10.297 23 -23 23 c -5.954 0 -11.384 -2.256 -15.469 -5.969 4.178 4.291 10.01 6.969 16.469 6.969 c 12.703 0 23 -10.298 23 -23 0 -6.462 -2.677 -12.291 -6.969 -16.469 z" style="opacity:0.1"/>
 </g>
 <g transform="scale(3.543307,3.543307)">
  <g transform="translate(-10.724445,0)">
   <path d="m 17.78 2.822 c -2.338 0 -4.233 1.895 -4.233 4.233 0 2.338 1.895 4.233 4.233 4.233 2.338 0 4.233 -1.895 4.233 -4.233 0 -2.338 -1.895 -4.233 -4.233 -4.233 z m -0.001 0.282 c 2.182 0 3.952 1.769 3.952 3.951 0 2.182 -1.77 3.951 -3.952 3.951 -2.182 0 -3.951 -1.769 -3.951 -3.951 0 -2.182 1.769 -3.951 3.951 -3.951 z m 0 0.565 c -1.87 0 -3.387 1.516 -3.387 3.387 0 1.87 1.516 3.387 3.387 3.387 1.87 0 3.387 -1.516 3.387 -3.387 0 -1.87 -1.516 -3.387 -3.387 -3.387 z m 0 0.282 c 1.715 0 3.104 1.39 3.104 3.104 0 1.715 -1.39 3.104 -3.104 3.104 -1.715 0 -3.104 -1.39 -3.104 -3.104 0 -1.715 1.39 -3.104 3.104 -3.104 z m 0.001 0.847 c -0.468 0 -0.847 0.282 -0.847 0.706 l 0 0.141 0.564 0 0 0.282 -0.564 0 0 0.282 0.564 0 0 0.282 -0.564 0 0 0.282 0.564 0 0 0.282 -0.564 0 0 0.141 c 0 0.333 0.236 0.576 0.564 0.666 l 0 0.284 a 1.129 1.129 0 0 1 -0.846 -1.091 l 0 -0.706 c 0 -0.078 -0.063 -0.141 -0.141 -0.141 -0.078 0 -0.141 0.063 -0.141 0.141 l 0 0.706 a 1.411 1.411 0 0 0 1.128 1.381 l 0 0.312 -0.846 0 0 0.282 0.846 0 0.564 0 0.848 0 0 -0.282 -0.848 0 0 -0.31 a 1.411 1.411 0 0 0 1.13 -1.383 l 0 -0.706 c 0 -0.078 -0.063 -0.141 -0.141 -0.141 -0.078 0 -0.141 0.063 -0.141 0.141 l 0 0.706 a 1.129 1.129 0 0 1 -0.848 1.093 l 0 -0.285 c 0.329 -0.089 0.566 -0.333 0.566 -0.666 l 0 -0.141 -0.566 0 0 -0.282 0.566 0 0 -0.282 -0.566 0 0 -0.282 0.566 0 0 -0.282 -0.566 0 0 -0.282 0.566 0 0 -0.141 c 0 -0.423 -0.379 -0.706 -0.847 -0.706 z" style="fill:#000;opacity:0.1;fill-opacity:1;stroke:none"/>
   <path d="m 17.215 5.08 0 2.785 a 1.129 1.129 0 0 1 -0.846 -1.091 l 0 -0.706 c 0 -0.078 -0.063 -0.141 -0.141 -0.141 -0.078 0 -0.141 0.063 -0.141 0.141 l 0 0.706 a 1.411 1.411 0 0 0 1.128 1.381 l 0 0.312 -0.846 0 0 0.282 0.846 0 0.564 0 0.848 0 0 -0.282 -0.848 0 0 -0.31 a 1.411 1.411 0 0 0 1.13 -1.383 l 0 -0.706 c 0 -0.078 -0.063 -0.141 -0.141 -0.141 -0.078 0 -0.141 0.063 -0.141 0.141 l 0 0.706 a 1.129 1.129 0 0 1 -0.848 1.093 l 0 -2.786 -0.564 0 z" style="fill:#f9f9f9;fill-opacity:1;stroke:none"/>
   <path d="m 17.498 2.54 c -2.338 0 -4.233 1.895 -4.233 4.233 0 2.338 1.895 4.233 4.233 4.233 2.338 0 4.233 -1.895 4.233 -4.233 0 -2.338 -1.895 -4.233 -4.233 -4.233 z m -0.001 0.282 c 2.182 0 3.952 1.769 3.952 3.951 0 2.182 -1.77 3.951 -3.952 3.951 -2.182 0 -3.951 -1.769 -3.951 -3.951 0 -2.182 1.769 -3.951 3.951 -3.951 z" style="fill:#f9f9f9;fill-opacity:1;stroke:none"/>
   <path d="m 17.497 3.387 c -1.87 0 -3.387 1.516 -3.387 3.387 0 1.87 1.516 3.387 3.387 3.387 1.87 0 3.387 -1.516 3.387 -3.387 0 -1.87 -1.516 -3.387 -3.387 -3.387 z m 0 0.282 c 1.715 0 3.104 1.39 3.104 3.104 0 1.715 -1.39 3.104 -3.104 3.104 -1.715 0 -3.104 -1.39 -3.104 -3.104 0 -1.715 1.39 -3.104 3.104 -3.104 z" style="fill:#f9f9f9;fill-opacity:1;stroke:none"/>
  </g>
 </g>
 <path d="m 24 16 c -1.657 0 -3 1 -3 2.5 l 0 0.5 l 6 0 l 0 -0.5 c 0 -1.5 -1.343 -2.5 -3 -2.5 z m -3 4 l 0 1 l 6 0 l 0 -1 l -6 0 z m 0 2 l 0 1 l 6 0 l 0 -1 l -6 0 z m 0 2 l 0 0.5 c 0 1.5 1.343 2.5 3 2.5 c 1.657 0 3 -1 3 -2.5 l 0 -0.5 l -6 0 z" style="fill:#f9f9f9;opacity:1;fill-opacity:1;stroke:none"/>
</svg>
