<svg xmlns="http://www.w3.org/2000/svg" viewBox="0 0 48 48">
 <defs>
  <linearGradient id="linearGradient4493" x1="1" x2="47" gradientUnits="userSpaceOnUse" gradientTransform="translate(-48,0)">
   <stop style="stop-color:#75c4fd;stop-opacity:1"/>
   <stop offset="1" style="stop-color:#89ccfd;stop-opacity:1"/>
  </linearGradient>
 </defs>
 <g>
  <path d="m 36.31 5 c 5.859 4.062 9.688 10.831 9.688 18.5 c 0 12.426 -10.07 22.5 -22.5 22.5 c -7.669 0 -14.438 -3.828 -18.5 -9.688 c 1.037 1.822 2.306 3.499 3.781 4.969 c 4.085 3.712 9.514 5.969 15.469 5.969 c 12.703 0 23 -10.298 23 -23 c 0 -5.954 -2.256 -11.384 -5.969 -15.469 c -1.469 -1.475 -3.147 -2.744 -4.969 -3.781 z m 4.969 3.781 c 3.854 4.113 6.219 9.637 6.219 15.719 c 0 12.703 -10.297 23 -23 23 c -6.081 0 -11.606 -2.364 -15.719 -6.219 c 4.16 4.144 9.883 6.719 16.219 6.719 c 12.703 0 23 -10.298 23 -23 c 0 -6.335 -2.575 -12.06 -6.719 -16.219 z" style="opacity:0.05"/>
  <path d="m 41.28 8.781 c 3.712 4.085 5.969 9.514 5.969 15.469 c 0 12.703 -10.297 23 -23 23 c -5.954 0 -11.384 -2.256 -15.469 -5.969 c 4.113 3.854 9.637 6.219 15.719 6.219 c 12.703 0 23 -10.298 23 -23 c 0 -6.081 -2.364 -11.606 -6.219 -15.719 z" style="opacity:0.1"/>
  <path d="m 31.25 2.375 c 8.615 3.154 14.75 11.417 14.75 21.13 c 0 12.426 -10.07 22.5 -22.5 22.5 c -9.708 0 -17.971 -6.135 -21.12 -14.75 a 23 23 0 0 0 44.875 -7 a 23 23 0 0 0 -16 -21.875 z" style="opacity:0.2"/>
 </g>
 <circle cx="-24" cy="24" r="23" transform="matrix(0,-1,1,0,0,0)" style="fill:url(#linearGradient4493);opacity:1;fill-opacity:1;stroke:none;fill-rule:nonzero"/>
 <path d="m 25.34 10.01 c -1.191 0.047 -2.449 0.252 -3.775 0.637 -7.134 2.07 -12.421 8.774 -11.449 16.322 0.529 4.111 2.88 7.708 6.439 10.227 2.667 1.887 5.332 2.675 6.598 2.746 2.752 0.154 3.618 0.064 6.766 -1.213 3.148 -1.277 7.598 -3.927 9.523 -10.162 0.701 -2.268 0.651 -4.207 0.35 -6.094 -0.301 -1.886 -0.854 -3.721 -2.582 -6.084 -2.807 -3.837 -6.709 -6.584 -11.869 -6.379 z" style="fill:#000;opacity:0.1;fill-opacity:1;stroke:none"/>
 <g>
  <path d="m 40.03 7.531 c 3.712 4.084 5.969 9.514 5.969 15.469 0 12.703 -10.297 23 -23 23 c -5.954 0 -11.384 -2.256 -15.469 -5.969 4.178 4.291 10.01 6.969 16.469 6.969 c 12.703 0 23 -10.298 23 -23 0 -6.462 -2.677 -12.291 -6.969 -16.469 z" style="opacity:0.1"/>
 </g>
 <g>
  <path d="m 9.497 25.918 c -0.947 -7.355 3.74 -13.665 11.156 -15.904 c 6.406 -1.934 11.877 0.995 15.243 5.596 1.684 2.302 2.221 4.09 2.514 5.928 0.293 1.838 0.343 3.726 -0.34 5.936 -1.876 6.075 -6.872 9.01 -9.939 10.259 -3.067 1.245 -4.521 0.978 -6.785 0.555 -1.216 -0.227 -2.977 -0.566 -5.576 -2.405 -3.468 -2.454 -5.758 -5.96 -6.274 -9.965 z" style="fill:#f2e0d6;fill-opacity:1;stroke:none"/>
  <path d="m 9.115 25.97 c -0.972 -7.548 4.316 -14.253 11.45 -16.323 c 7.08 -2.053 12.19 1.021 15.644 5.743 1.728 2.363 2.28 4.197 2.581 6.084 0.301 1.886 0.352 3.825 -0.348 6.093 -1.926 6.235 -6.376 8.886 -9.523 10.163 -3.148 1.277 -4.01 1.367 -6.766 1.213 c -1.265 -0.071 -3.931 -0.858 -6.598 -2.745 -3.56 -2.518 -5.91 -6.117 -6.439 -10.228 m 7.603 9.713 c 3.793 2.406 7.647 2.72 8.749 2 0.343 -0.224 2.505 -0.785 -1.397 -2 -1.664 -0.52 -3.115 -1.597 -4.552 -2.506 -1.698 -1.074 -1.842 -0.444 -2.232 0.102 -0.321 0.449 -1.34 0.831 -1.437 0.686 -0.598 0.024 0.841 -2.31 1.936 -4.02 1.096 -1.709 2.417 -3.783 3.436 -5.065 1.608 -2.02 1.788 -2.19 1.321 -3.292 -0.329 -0.776 -0.8 -1.453 -1.047 -1.505 -1.186 -0.25 -5.07 3.109 -6.906 5.974 -2.289 3.573 -2.615 4.948 -2.653 3.919 -0.054 -1.455 2.286 -5.741 5.424 -8.651 2.934 -2.721 3.138 -3.081 2.382 -4.214 -0.701 -1.052 -1 -2.611 -5.404 1.109 -1.89 1.597 -2.503 2.651 -3.226 3.745 -0.833 1.26 -0.997 2.549 -0.852 4.68 0.271 3.979 3.895 7.416 6.457 9.04 z m -4.61 -16.528 c 1.047 -1.155 2.057 -2.221 3.879 -3.399 1.715 -1.108 2.422 -1.2 2.278 -1.416 -0.144 -0.216 -0.366 -0.851 -0.494 -1.412 -0.352 -1.541 -3.775 0.934 -5.636 4.076 -1.727 2.915 -2.092 4.428 -0.027 2.151 z m 13.585 16.04 c 2.961 0.623 4.111 1.23 7.609 -1.355 l 1.58 -1.522 -2.21 0.132 c -3.295 0.097 -6.923 -1.604 -9.518 -3.25 -2.533 -1.606 -2.986 -0.937 -3.987 0.924 -0.598 1.112 -0.515 1.263 1.408 2.558 1.124 0.757 3.734 2.22 5.117 2.512 z m 5.637 -3.892 c 3.366 0.254 4.897 0.062 5.773 -3.304 0.588 -2.259 -1.28 -3.036 -7.778 -3.547 -4.451 -0.35 -6.826 -0.392 -7.102 1.503 -0.321 2.204 6.413 5.145 9.107 5.348 z m -5.02 -8.248 c 0.817 -0.014 1.629 -0.339 1.804 -0.721 0.571 -1.242 -0.253 -3.373 -1.423 -7.213 -0.339 -1.111 -1.589 -4.535 -1.306 -4.475 1.225 0.259 2.455 3.133 3.6 7.791 0.99 4.03 0.845 4.78 0.845 4.78 l 1.807 0.381 c 1.577 0.333 1.856 0.218 2.192 -0.909 1.33 -4.461 -1.036 -10.123 -3.272 -11.222 -2.236 -1.099 -4.206 -1.425 -6.06 -1.362 -1.852 0.064 -4.611 0.57 -5.193 0.95 -0.582 0.38 0 3.134 3.718 9.12 1.497 2.416 2.05 2.9 3.285 2.879 z m 11.291 0.876 c 0.427 -1.432 -0.601 -5.622 -1.842 -7.369 -0.649 -0.913 -1.353 -1.493 -1.113 -0.249 0.14 0.723 0.603 3 0.548 4.628 -0.077 2.28 0.248 3.419 1.058 3.67 0.771 0.238 1.129 0.058 1.349 -0.679 z" style="fill:#2d2d2d;fill-opacity:1;stroke:none"/>
 </g>
</svg>
