<svg version="1.1" viewBox="0 0 48 48" xmlns="http://www.w3.org/2000/svg">
 <defs>
  <linearGradient id="bg" x2="0" y1="1" y2="47" gradientUnits="userSpaceOnUse">
   <stop style="stop-color:#caf2f2" offset="0"/>
   <stop style="stop-color:#baeeee" offset="1"/>
  </linearGradient>
 </defs>
 <path d="m36.31 5c5.859 4.062 9.688 10.831 9.688 18.5 0 12.426-10.07 22.5-22.5 22.5-7.669 0-14.438-3.828-18.5-9.688 1.037 1.822 2.306 3.499 3.781 4.969 4.085 3.712 9.514 5.969 15.469 5.969 12.703 0 23-10.298 23-23 0-5.954-2.256-11.384-5.969-15.469-1.469-1.475-3.147-2.744-4.969-3.781zm4.969 3.781c3.854 4.113 6.219 9.637 6.219 15.719 0 12.703-10.297 23-23 23-6.081 0-11.606-2.364-15.719-6.219 4.16 4.144 9.883 6.719 16.219 6.719 12.703 0 23-10.298 23-23 0-6.335-2.575-12.06-6.719-16.219z" style="opacity:.05"/>
 <path d="m41.28 8.781c3.712 4.085 5.969 9.514 5.969 15.469 0 12.703-10.297 23-23 23-5.954 0-11.384-2.256-15.469-5.969 4.113 3.854 9.637 6.219 15.719 6.219 12.703 0 23-10.298 23-23 0-6.081-2.364-11.606-6.219-15.719z" style="opacity:.1"/>
 <path d="m31.25 2.375c8.615 3.154 14.75 11.417 14.75 21.13 0 12.426-10.07 22.5-22.5 22.5-9.708 0-17.971-6.135-21.12-14.75a23 23 0 0 0 44.875-7 23 23 0 0 0-16-21.875z" style="opacity:.2"/>
 <circle cx="24" cy="24" r="23" style="fill:url(#bg)"/>
 <path d="m28 15c-2.5523 0-4.7158 1.581-5.5859 3.8184-0.69391-0.52874-1.5417-0.81773-2.4141-0.81836-2.2091-2e-3 -4 1.7909-4 4v0.21094c-2.3122 0.6506-4 2.7633-4 5.2891 0 3.047 2.453 5.5 5.5 5.5h4c0.27614 0 0.5-0.22386 0.5-0.5s-0.22386-0.5-0.5-0.5h-4c-2.5103 0-4.5-1.9897-4.5-4.5 0-2.0802 1.3805-3.7941 3.2715-4.3262l0.72852-0.20508v-0.96875c0-1.668 1.3303-3.0007 2.998-3 0.65445 2.7e-4 1.29 0.21664 1.8105 0.61328l1.0566 0.80469 0.48047-1.2363c0.72482-1.8638 2.5149-3.1816 4.6543-3.1816 2.7873 0 5 2.2127 5 5v1.9688l0.72852 0.20508c1.891 0.53207 3.2715 2.2459 3.2715 4.3262 0 2.5103-1.9897 4.5-4.5 4.5-0.27614 0-0.5 0.22386-0.5 0.5s0.22386 0.50159 0.5 0.5c3.0305-0.0174 5.5-2.4649 5.5-5.5 0-2.5257-1.6878-4.6385-4-5.2891v-1.2109c0-3.324-2.676-6-6-6zm-4 6c-0.554 0-1 0.446-1 1v12c0 0.554 0.446 1 1 1h6c0.554 0 1-0.446 1-1v-12c0-0.554-0.446-1-1-1zm0.5 1h5c0.277 0 0.5 0.223 0.5 0.5v11c0 0.277-0.223 0.5-0.5 0.5h-5c-0.277 0-0.5-0.223-0.5-0.5v-11c0-0.277 0.223-0.5 0.5-0.5zm3 1c-0.277 0-0.5 0.223-0.5 0.5s0.223 0.5 0.5 0.5h1c0.277 0 0.5-0.223 0.5-0.5s-0.223-0.5-0.5-0.5zm-2 5c-0.277 0-0.5 0.223-0.5 0.5s0.223 0.5 0.5 0.5h3c0.277 0 0.5-0.223 0.5-0.5s-0.223-0.5-0.5-0.5zm0 2c-0.277 0-0.5 0.223-0.5 0.5s0.223 0.5 0.5 0.5h3c0.277 0 0.5-0.223 0.5-0.5s-0.223-0.5-0.5-0.5zm0 2c-0.277 0-0.5 0.223-0.5 0.5s0.223 0.5 0.5 0.5h3c0.277 0 0.5-0.223 0.5-0.5s-0.223-0.5-0.5-0.5z" style="opacity:.1;paint-order:normal"/>
 <path d="m40.03 7.531c3.712 4.084 5.969 9.514 5.969 15.469 0 12.703-10.297 23-23 23-5.954 0-11.384-2.256-15.469-5.969 4.178 4.291 10.01 6.969 16.469 6.969 12.703 0 23-10.298 23-23 0-6.462-2.677-12.291-6.969-16.469z" style="opacity:.1"/>
 <path d="m27 14c-2.5523 0-4.7158 1.581-5.5859 3.8184-0.69391-0.52874-1.5417-0.81773-2.4141-0.81836-2.2091-2e-3 -4 1.7909-4 4v0.21094c-2.3122 0.6506-4 2.7633-4 5.2891 0 3.047 2.453 5.5 5.5 5.5h4c0.27614 0 0.5-0.22386 0.5-0.5s-0.22386-0.5-0.5-0.5h-4c-2.5103 0-4.5-1.9897-4.5-4.5 0-2.0802 1.3805-3.7941 3.2715-4.3262l0.72852-0.20508v-0.96875c0-1.668 1.3303-3.0007 2.998-3 0.65445 2.7e-4 1.29 0.21664 1.8105 0.61328l1.0566 0.80469 0.48047-1.2363c0.72482-1.8638 2.5149-3.1816 4.6543-3.1816 2.7873 0 5 2.2127 5 5v1.9688l0.72852 0.20508c1.891 0.53207 3.2715 2.2459 3.2715 4.3262 0 2.5103-1.9897 4.5-4.5 4.5-0.27614 0-0.5 0.22386-0.5 0.5s0.22386 0.50159 0.5 0.5c3.0305-0.0174 5.5-2.4649 5.5-5.5 0-2.5257-1.6878-4.6385-4-5.2891v-1.2109c0-3.324-2.676-6-6-6zm-4 6c-0.554 0-1 0.446-1 1v12c0 0.554 0.446 1 1 1h6c0.554 0 1-0.446 1-1v-12c0-0.554-0.446-1-1-1zm0.5 1h5c0.277 0 0.5 0.223 0.5 0.5v11c0 0.277-0.223 0.5-0.5 0.5h-5c-0.277 0-0.5-0.223-0.5-0.5v-11c0-0.277 0.223-0.5 0.5-0.5zm3 1c-0.277 0-0.5 0.223-0.5 0.5s0.223 0.5 0.5 0.5h1c0.277 0 0.5-0.223 0.5-0.5s-0.223-0.5-0.5-0.5zm-2 5c-0.277 0-0.5 0.223-0.5 0.5s0.223 0.5 0.5 0.5h3c0.277 0 0.5-0.223 0.5-0.5s-0.223-0.5-0.5-0.5zm0 2c-0.277 0-0.5 0.223-0.5 0.5s0.223 0.5 0.5 0.5h3c0.277 0 0.5-0.223 0.5-0.5s-0.223-0.5-0.5-0.5zm0 2c-0.277 0-0.5 0.223-0.5 0.5s0.223 0.5 0.5 0.5h3c0.277 0 0.5-0.223 0.5-0.5s-0.223-0.5-0.5-0.5z" style="fill:#33a5e5;paint-order:normal"/>
</svg>
