<svg version="1.1" viewBox="0 0 48 48" xmlns="http://www.w3.org/2000/svg">
 <defs>
  <linearGradient id="bg" x1="1" x2="47" gradientTransform="matrix(0 -1 1 0 -1.5e-6 48)" gradientUnits="userSpaceOnUse">
   <stop style="stop-color:#575757" offset="0"/>
   <stop style="stop-color:#616161" offset="1"/>
  </linearGradient>
 </defs>
 <path d="m36.31 5c5.859 4.062 9.688 10.831 9.688 18.5 0 12.426-10.07 22.5-22.5 22.5-7.669 0-14.438-3.828-18.5-9.688 1.037 1.822 2.306 3.499 3.781 4.969 4.085 3.712 9.514 5.969 15.469 5.969 12.703 0 23-10.298 23-23 0-5.954-2.256-11.384-5.969-15.469-1.469-1.475-3.147-2.744-4.969-3.781zm4.969 3.781c3.854 4.113 6.219 9.637 6.219 15.719 0 12.703-10.297 23-23 23-6.081 0-11.606-2.364-15.719-6.219 4.16 4.144 9.883 6.719 16.219 6.719 12.703 0 23-10.298 23-23 0-6.335-2.575-12.06-6.719-16.219z" style="opacity:.05"/>
 <path d="m41.28 8.781c3.712 4.085 5.969 9.514 5.969 15.469 0 12.703-10.297 23-23 23-5.954 0-11.384-2.256-15.469-5.969 4.113 3.854 9.637 6.219 15.719 6.219 12.703 0 23-10.298 23-23 0-6.081-2.364-11.606-6.219-15.719z" style="opacity:.1"/>
 <path d="m31.25 2.375c8.615 3.154 14.75 11.417 14.75 21.13 0 12.426-10.07 22.5-22.5 22.5-9.708 0-17.971-6.135-21.12-14.75a23 23 0 0 0 44.875-7 23 23 0 0 0-16-21.875z" style="opacity:.2"/>
 <path d="m24 1c12.703 0 23 10.297 23 23s-10.297 23-23 23-23-10.297-23-23 10.297-23 23-23z" style="fill:url(#bg)"/>
 <path d="m25.002 11-9.998 9.625c0 1.1544 2.0169 2.2735 5.0039 2.8887l-5.0078 2.7363c0 0.70872 0.76394 1.3808 2.0352 1.9297l-2.0352 3.6953c0 1.4004 2.944 2.5847 7.002 2.9824-4.01e-4 0.40244 8.3e-5 0.80512 2e-3 1.1797-4e-3 0.39472 0.4667 0.5326 0.7793 0.2832 0.23769-0.20718 0.45307-0.43534 0.67578-0.6543 0.37052 0.69419 0.70974 1.4035 1.0723 2.0938 0.17477 0.32201 0.72471 0.3221 0.89648-0.0078 0.36652-0.69026 0.70592-1.3957 1.0645-2.0898 0.2307 0.21503 0.4459 0.44712 0.68359 0.6543 0.3076 0.24547 0.83027-0.0037 0.82227-0.40234 0.0017-0.3525 0.0037-0.70492 0.0039-1.0586 4.0562-0.39832 7-1.5807 7-2.9805v-2.5c0-0.324-0.17956-0.6405-0.47656-0.9375-0.39066 0.38974-1.0184 0.78074-1.8281 1.1367l0.27148-1.3945c1.2708-0.54885 2.0332-1.221 2.0332-1.9297v-2.5c0-0.324-0.17956-0.6405-0.47656-0.9375-0.67632 0.67468-2.0729 1.2477-3.9004 1.6387l-0.62895-0.93555c2.9899-0.61497 5.0059-1.7357 5.0059-2.8906v-2.5c0-1.3391-2.6993-2.4768-6.4844-2.9219-0.76866-1.6091-1.8959-2.9883-3.5156-4.2031z" style="opacity:.1"/>
 <path d="m23.996 14c-5.52 0-9.9941 1.398-9.9941 3.125v2.5c0 1.723 4.479 3.375 9.998 3.375 5.523 0 10-1.652 10-3.375v-2.5c0-1.727-4.4809-3.125-10.004-3.125zm-9.5547 7.8125c-0.297 0.297-0.44336 0.6125-0.44336 0.9375v2.5c0 1.727 4.479 3.25 10.002 3.25s10-1.523 10-3.25v-2.5c0-0.324-0.17956-0.6405-0.47656-0.9375-1.273 1.27-5.0816 2.1875-9.5586 2.1875s-8.2504-0.9175-9.5234-2.1875zm0 5.625c-0.297 0.297-0.44336 0.6125-0.44336 0.9375v2.5c0 1.727 4.475 3.125 9.998 3.125s10.004-1.398 10.004-3.125v-2.5c0-0.324-0.17956-0.6405-0.47656-0.9375-1.273 1.27-5.0464 2.5625-9.5234 2.5625s-8.2856-1.2925-9.5586-2.5625z" style="fill:#e5e5e5"/>
 <path d="m23.996 14-3.9766 8.6992c1.2205 0.1906 2.5652 0.30078 3.9805 0.30078 2.2376 0 4.2969-0.27377 5.9629-0.71094-0.12509-3.2442-0.64917-5.8576-1.959-8.0254-1.228-0.16804-2.5816-0.26367-4.0078-0.26367zm1.002 4c1.1046 0 2 0.89543 2 2s-0.89543 2-2 2-2-0.89543-2-2 0.89543-2 2-2zm0 1c-0.55228 0-1 0.44772-1 1s0.44772 1 1 1 1-0.44772 1-1-0.44772-1-1-1zm4.9941 4.3711c-1.6792 0.39495-3.7673 0.62891-6.0273 0.62891l0.035156 4.5c3.8289 0 7.1537-0.7314 8.834-1.7559-0.16838-0.52059-0.46366-0.99931-0.86719-1.3711-0.558-0.481-1.4058-0.89305-1.9688-1.373 0-0.21409-0.0032-0.41986-0.0059-0.62891zm3 4.498c-1.611 1.1155-5.023 2.1309-8.9922 2.1309-2.6379 0-5.0382-0.44967-6.8301-1.0781 0.22464 1.1137 0.44615 2.1575 0.68945 3.3145 0.16 0.691 1.0944 1.0124 1.6484 0.56641 0.906-0.773 1.5762-1.0447 2.4902-1.8027 0.688 0.668 2 1 3 1s2.312-0.332 3-1c0.914 0.758 1.5842 1.0297 2.4902 1.8027 0.554 0.446 1.4884 0.12459 1.6484-0.56641 0.286-1.36 0.54259-2.5425 0.80859-3.8945 0.0286-0.15629 0.04209-0.31417 0.04688-0.47266zm-5.5293 5.1309c-0.08722-4.29e-4 -0.17381 0.02049-0.25195 0.06836-1.3772 0.70106-3.0896 0.72155-4.4668 0.02344l1.252 0.9082c1.4223 0 2.7727-0.09454 3.998-0.26172-3.36e-4 -0.08672 4.26e-4 -0.17305 0-0.25976-0.0089-0.27912-0.2696-0.47723-0.53125-0.47852z" style="opacity:.1"/>
 <path d="m24 10c-4 3-5 7-5 13-0.563 0.48-1.4108 0.89205-1.9688 1.373-0.801 0.738-1.1745 1.8978-0.97852 2.9688 0.266 1.352 0.52259 2.5345 0.80859 3.8945 0.16 0.691 1.0944 1.0124 1.6484 0.56641 0.906-0.773 1.5762-1.0447 2.4902-1.8027 0.688 0.668 2 1 3 1s2.312-0.332 3-1c0.914 0.758 1.5842 1.0297 2.4902 1.8027 0.554 0.446 1.4884 0.12459 1.6484-0.56641 0.286-1.36 0.54259-2.5425 0.80859-3.8945 0.196-1.071-0.17752-2.2308-0.97852-2.9688-0.558-0.481-1.4058-0.89305-1.9688-1.373 0-6-1-10-5-13zm0 7a2 2 0 0 1 2 2 2 2 0 0 1-2 2 2 2 0 0 1-2-2 2 2 0 0 1 2-2z" style="fill:#1588c1"/>
 <path d="m21.005 32.514c-8e-3 -0.38392 0.41346-0.62939 0.74104-0.42221 1.3772 0.69812 3.09 0.67848 4.4672-0.02258 0.3126-0.19147 0.772 0.03829 0.78398 0.41043 4e-3 0.813 4e-3 1.626 0 2.4351 8e-3 0.39864-0.51533 0.64804-0.82293 0.40257-0.23769-0.20718-0.45241-0.44086-0.68312-0.6559-0.35854 0.69419-0.6981 1.4002-1.0646 2.0904-0.17178 0.32991-0.72206 0.32991-0.89684 0.0079-0.36253-0.69026-0.70209-1.4002-1.0726-2.0944-0.22271 0.21896-0.43743 0.44872-0.67512 0.6559-0.3126 0.2494-0.78398 0.11095-0.77999-0.28376-4e-3 -0.80122 0-1.7222 0-2.5234" style="fill:#ed5959"/>
 <path d="m40.03 7.531c3.712 4.084 5.969 9.514 5.969 15.469 0 12.703-10.297 23-23 23-5.954 0-11.384-2.256-15.469-5.969 4.178 4.291 10.01 6.969 16.469 6.969 12.703 0 23-10.298 23-23 0-6.462-2.677-12.291-6.969-16.469z" style="opacity:.1"/>
 <circle cx="24" cy="19" r="1" style="fill:#11972c"/>
</svg>
