<svg xmlns="http://www.w3.org/2000/svg" viewBox="0 0 48 48">
 <defs>
  <linearGradient id="linearGradient3764" x1="1" x2="47" gradientUnits="userSpaceOnUse" gradientTransform="matrix(0,-1,1,0,-1.5e-6,47.999998)">
   <stop style="stop-color:#575757;stop-opacity:1"/>
   <stop offset="1" style="stop-color:#616161;stop-opacity:1"/>
  </linearGradient>
 </defs>
 <g>
  <path d="m 36.31 5 c 5.859 4.062 9.688 10.831 9.688 18.5 c 0 12.426 -10.07 22.5 -22.5 22.5 c -7.669 0 -14.438 -3.828 -18.5 -9.688 c 1.037 1.822 2.306 3.499 3.781 4.969 c 4.085 3.712 9.514 5.969 15.469 5.969 c 12.703 0 23 -10.298 23 -23 c 0 -5.954 -2.256 -11.384 -5.969 -15.469 c -1.469 -1.475 -3.147 -2.744 -4.969 -3.781 z m 4.969 3.781 c 3.854 4.113 6.219 9.637 6.219 15.719 c 0 12.703 -10.297 23 -23 23 c -6.081 0 -11.606 -2.364 -15.719 -6.219 c 4.16 4.144 9.883 6.719 16.219 6.719 c 12.703 0 23 -10.298 23 -23 c 0 -6.335 -2.575 -12.06 -6.719 -16.219 z" style="opacity:0.05"/>
  <path d="m 41.28 8.781 c 3.712 4.085 5.969 9.514 5.969 15.469 c 0 12.703 -10.297 23 -23 23 c -5.954 0 -11.384 -2.256 -15.469 -5.969 c 4.113 3.854 9.637 6.219 15.719 6.219 c 12.703 0 23 -10.298 23 -23 c 0 -6.081 -2.364 -11.606 -6.219 -15.719 z" style="opacity:0.1"/>
  <path d="m 31.25 2.375 c 8.615 3.154 14.75 11.417 14.75 21.13 c 0 12.426 -10.07 22.5 -22.5 22.5 c -9.708 0 -17.971 -6.135 -21.12 -14.75 a 23 23 0 0 0 44.875 -7 a 23 23 0 0 0 -16 -21.875 z" style="opacity:0.2"/>
 </g>
 <g>
  <path d="m 24 1 c 12.703 0 23 10.297 23 23 c 0 12.703 -10.297 23 -23 23 -12.703 0 -23 -10.297 -23 -23 0 -12.703 10.297 -23 23 -23 z" style="fill:url(#linearGradient3764);fill-opacity:1"/>
 </g>
 <g>
  <g>
   <g transform="translate(1,1)">
    <g style="opacity:0.1">
     <!-- color: #616161 -->
     <g>
      <path d="m 23.996 14 c -5.52 0 -9.996 1.398 -9.996 3.125 l 0 2.5 c 0 1.723 4.477 3.121 9.996 3.121 c 5.523 0 10 -1.398 10 -3.121 l 0 -2.5 c 0 -1.727 -4.477 -3.125 -10 -3.125 m 0 0" style="fill:#000;fill-opacity:1;stroke:none;fill-rule:nonzero"/>
      <path d="m 23.965 24 c -4.477 0 -8.25 -0.918 -9.523 -2.188 c -0.297 0.297 -0.445 0.613 -0.445 0.938 l 0 2.5 c 0 1.727 4.477 3.125 10 3.125 c 5.523 0 10 -1.398 10 -3.125 l 0 -2.5 c 0 -0.324 -0.176 -0.641 -0.473 -0.938 c -1.273 1.27 -5.082 2.188 -9.559 2.188 m 0 0" style="fill:#000;fill-opacity:1;stroke:none;fill-rule:nonzero"/>
      <path d="m 23.965 29.625 c -4.477 0 -8.25 -0.918 -9.523 -2.188 c -0.297 0.297 -0.445 0.613 -0.445 0.938 l 0 2.5 c 0 1.727 4.477 3.125 10 3.125 c 5.523 0 10 -1.398 10 -3.125 l 0 -2.5 c 0 -0.324 -0.176 -0.641 -0.473 -0.938 c -1.273 1.27 -5.082 2.188 -9.559 2.188 m 0 0" style="fill:#000;fill-opacity:1;stroke:none;fill-rule:nonzero"/>
      <path d="M 21.262,13.93 C 22.016,12.832 22.848,11.703 24,11 c 1.137,0.684 1.914,1.797 2.66,2.871 1.75,2.664 2.82,5.863 2.605,9.08 0.563,0.48 1.145,0.941 1.703,1.422 0.801,0.738 1.176,1.898 0.98,2.969 -0.266,1.352 -0.523,2.699 -0.809,4.059 -0.16,0.691 -1.094,1.012 -1.648,0.566 -0.906,-0.773 -1.801,-1.566 -2.715,-2.324 -0.688,0.668 -1.602,1.105 -2.566,1.164 -1.105,0.082 -2.203,-0.391 -3.01,-1.145 -0.656,0.504 -1.262,1.109 -1.902,1.648 -0.309,0.25 -0.566,0.578 -0.93,0.746 -0.566,0.246 -1.297,-0.121 -1.426,-0.73 -0.293,-1.313 -0.598,-2.637 -0.883,-3.957 -0.23,-1.109 0.18,-2.336 1.035,-3.086 0.496,-0.418 1,-0.828 1.508,-1.227 0.141,-0.074 0.07,-0.246 0.078,-0.375 -0.152,-3.105 0.902,-6.168 2.578,-8.742" style="fill:#000;fill-opacity:1;stroke:none;fill-rule:nonzero"/>
      <path d="m 21 32.434 c -0.008 -0.391 0.414 -0.641 0.742 -0.43 c 1.379 0.711 3.094 0.691 4.473 -0.023 c 0.313 -0.195 0.773 0.039 0.785 0.418 c 0.004 0.828 0.004 1.656 0 2.48 c 0.008 0.406 -0.516 0.66 -0.824 0.41 c -0.238 -0.211 -0.453 -0.449 -0.684 -0.668 c -0.359 0.707 -0.699 1.426 -1.066 2.129 c -0.172 0.336 -0.723 0.336 -0.898 0.008 c -0.363 -0.703 -0.703 -1.426 -1.074 -2.133 c -0.223 0.223 -0.438 0.457 -0.676 0.668 c -0.313 0.254 -0.785 0.113 -0.781 -0.289 c -0.004 -0.816 0 -1.754 0 -2.57 m 0.004 0" style="fill:#000;fill-opacity:1;stroke:none;fill-rule:nonzero"/>
     </g>
    </g>
   </g>
  </g>
 </g>
 <g>
  <g>
   <!-- color: #616161 -->
   <g>
    <path d="M 23.996,14 C 18.476,14 14,15.398 14,17.125 l 0,2.5 c 0,1.723 4.477,3.121 9.996,3.121 5.523,0 10,-1.398 10,-3.121 l 0,-2.5 c 0,-1.727 -4.477,-3.125 -10,-3.125 m 0,0" style="fill:#dedede;fill-opacity:1;stroke:none;fill-rule:nonzero"/>
    <path d="m 23.965,24 c -4.477,0 -8.25,-0.918 -9.523,-2.188 -0.297,0.297 -0.445,0.613 -0.445,0.938 l 0,2.5 c 0,1.727 4.477,3.125 10,3.125 5.523,0 10,-1.398 10,-3.125 l 0,-2.5 c 0,-0.324 -0.176,-0.641 -0.473,-0.938 C 32.251,23.082 28.442,24 23.965,24 m 0,0" style="fill:#dedede;fill-opacity:1;stroke:none;fill-rule:nonzero"/>
    <path d="m 23.965 29.625 c -4.477 0 -8.25 -0.918 -9.523 -2.188 -0.297 0.297 -0.445 0.613 -0.445 0.938 l 0 2.5 c 0 1.727 4.477 3.125 10 3.125 5.523 0 10 -1.398 10 -3.125 l 0 -2.5 c 0 -0.324 -0.176 -0.641 -0.473 -0.938 -1.273 1.27 -5.082 2.188 -9.559 2.188 m 0 0" style="fill:#dedede;fill-opacity:1;stroke:none;fill-rule:nonzero"/>
    <path d="M 21.262,13.93 C 22.016,12.832 22.848,11.703 24,11 c 1.137,0.684 1.914,1.797 2.66,2.871 1.75,2.664 2.82,5.863 2.605,9.08 0.563,0.48 1.145,0.941 1.703,1.422 0.801,0.738 1.176,1.898 0.98,2.969 -0.266,1.352 -0.523,2.699 -0.809,4.059 -0.16,0.691 -1.094,1.012 -1.648,0.566 -0.906,-0.773 -1.801,-1.566 -2.715,-2.324 -0.688,0.668 -1.602,1.105 -2.566,1.164 -1.105,0.082 -2.203,-0.391 -3.01,-1.145 -0.656,0.504 -1.262,1.109 -1.902,1.648 -0.309,0.25 -0.566,0.578 -0.93,0.746 -0.566,0.246 -1.297,-0.121 -1.426,-0.73 -0.293,-1.313 -0.598,-2.637 -0.883,-3.957 -0.23,-1.109 0.18,-2.336 1.035,-3.086 0.496,-0.418 1,-0.828 1.508,-1.227 0.141,-0.074 0.07,-0.246 0.078,-0.375 -0.152,-3.105 0.902,-6.168 2.578,-8.742 m 0.895,4.086 c -0.664,0.852 -0.582,2.18 0.184,2.945 0.816,0.895 2.355,0.934 3.207,0.063 0.656,-0.602 0.879,-1.605 0.563,-2.438 -0.285,-0.809 -1.055,-1.402 -1.895,-1.48 -0.781,-0.09 -1.594,0.273 -2.059,0.906 m 0,0" style="fill:#127db2;fill-opacity:1;stroke:none;fill-rule:nonzero"/>
    <path d="m 21 32.434 c -0.008 -0.391 0.414 -0.641 0.742 -0.43 1.379 0.711 3.094 0.691 4.473 -0.023 0.313 -0.195 0.773 0.039 0.785 0.418 0.004 0.828 0.004 1.656 0 2.48 0.008 0.406 -0.516 0.66 -0.824 0.41 -0.238 -0.211 -0.453 -0.449 -0.684 -0.668 -0.359 0.707 -0.699 1.426 -1.066 2.129 -0.172 0.336 -0.723 0.336 -0.898 0.008 -0.363 -0.703 -0.703 -1.426 -1.074 -2.133 -0.223 0.223 -0.438 0.457 -0.676 0.668 -0.313 0.254 -0.785 0.113 -0.781 -0.289 -0.004 -0.816 0 -1.754 0 -2.57 m 0.004 0" style="fill:#d60f0f;fill-opacity:1;stroke:none;fill-rule:nonzero"/>
    <path d="m 25.5 19.5 c 0 0.828 -0.672 1.5 -1.5 1.5 -0.828 0 -1.5 -0.672 -1.5 -1.5 0 -0.828 0.672 -1.5 1.5 -1.5 0.828 0 1.5 0.672 1.5 1.5 m 0 0" style="fill:#007016;fill-opacity:1;stroke:none;fill-rule:nonzero"/>
   </g>
  </g>
 </g>
 <g>
  <path d="m 40.03 7.531 c 3.712 4.084 5.969 9.514 5.969 15.469 0 12.703 -10.297 23 -23 23 c -5.954 0 -11.384 -2.256 -15.469 -5.969 4.178 4.291 10.01 6.969 16.469 6.969 c 12.703 0 23 -10.298 23 -23 0 -6.462 -2.677 -12.291 -6.969 -16.469 z" style="opacity:0.1"/>
 </g>
</svg>
