<svg xmlns="http://www.w3.org/2000/svg" viewBox="0 0 48 48">
 <defs>
  <linearGradient id="linearGradient3764" x1="1" x2="47" gradientUnits="userSpaceOnUse" gradientTransform="matrix(0,-1,1,0,-1.5e-6,47.999998)">
   <stop style="stop-color:#3d3d3d;stop-opacity:1"/>
   <stop offset="1" style="stop-color:#474747;stop-opacity:1"/>
  </linearGradient>
 </defs>
 <g>
  <path d="m 36.31 5 c 5.859 4.062 9.688 10.831 9.688 18.5 c 0 12.426 -10.07 22.5 -22.5 22.5 c -7.669 0 -14.438 -3.828 -18.5 -9.688 c 1.037 1.822 2.306 3.499 3.781 4.969 c 4.085 3.712 9.514 5.969 15.469 5.969 c 12.703 0 23 -10.298 23 -23 c 0 -5.954 -2.256 -11.384 -5.969 -15.469 c -1.469 -1.475 -3.147 -2.744 -4.969 -3.781 z m 4.969 3.781 c 3.854 4.113 6.219 9.637 6.219 15.719 c 0 12.703 -10.297 23 -23 23 c -6.081 0 -11.606 -2.364 -15.719 -6.219 c 4.16 4.144 9.883 6.719 16.219 6.719 c 12.703 0 23 -10.298 23 -23 c 0 -6.335 -2.575 -12.06 -6.719 -16.219 z" style="opacity:0.05"/>
  <path d="m 41.28 8.781 c 3.712 4.085 5.969 9.514 5.969 15.469 c 0 12.703 -10.297 23 -23 23 c -5.954 0 -11.384 -2.256 -15.469 -5.969 c 4.113 3.854 9.637 6.219 15.719 6.219 c 12.703 0 23 -10.298 23 -23 c 0 -6.081 -2.364 -11.606 -6.219 -15.719 z" style="opacity:0.1"/>
  <path d="m 31.25 2.375 c 8.615 3.154 14.75 11.417 14.75 21.13 c 0 12.426 -10.07 22.5 -22.5 22.5 c -9.708 0 -17.971 -6.135 -21.12 -14.75 a 23 23 0 0 0 44.875 -7 a 23 23 0 0 0 -16 -21.875 z" style="opacity:0.2"/>
 </g>
 <g>
  <path d="m 24 1 c 12.703 0 23 10.297 23 23 c 0 12.703 -10.297 23 -23 23 -12.703 0 -23 -10.297 -23 -23 0 -12.703 10.297 -23 23 -23 z" style="fill:url(#linearGradient3764);fill-opacity:1"/>
 </g>
 <g>
  <path d="m 40.03 7.531 c 3.712 4.084 5.969 9.514 5.969 15.469 0 12.703 -10.297 23 -23 23 c -5.954 0 -11.384 -2.256 -15.469 -5.969 4.178 4.291 10.01 6.969 16.469 6.969 c 12.703 0 23 -10.298 23 -23 0 -6.462 -2.677 -12.291 -6.969 -16.469 z" style="opacity:0.1"/>
 </g>
 <path d="m 19.234 35.69 c -0.211 -2.499 2.746 -7.657 4.905 -5.587 1.676 1.607 2.445 6.579 0.697 7.574 -1.695 0.965 -5.467 -0.393 -5.602 -1.988 z m 8.586 0.991 c -1.465 -1.292 -0.426 -6.177 1.583 -6.454 2.441 -0.338 4.843 3.572 4 4.952 -1.152 1.894 -4.179 2.745 -5.586 1.503 z m -14.82 -5.658 c 0.137 -3.108 5.283 -5.718 6.753 -3.574 1.394 2.032 -1.066 6.134 -2.899 6.765 -1.853 0.638 -3.872 -1.721 -3.854 -3.191 z m 7.721 -4.423 c -1.598 -2.808 -7 -1.752 -7.02 -5.209 -0.019 -4.616 5.693 -9.871 9.882 -9.355 3.487 0.44 11.193 1.287 11.887 4.955 0.405 1.958 0.754 3.912 1.322 5.85 1.054 3.601 -2.16 5.916 -5.4 5.812 -3.359 -0.128 -8.832 0.995 -10.675 -2.054 z m 9.567 -3.123 c 3.2 -2.16 0.883 -8.04 -2.129 -6.347 -1.252 0.772 -2.47 4.082 -1.602 5.3 0.61 1.432 2.462 1.821 3.731 1.047 z m -6.982 -6.749 c -1.062 -1.017 -2.791 -0.612 -3.558 0.627 -0.726 1.174 -1.666 4.778 0.873 5.238 3.259 0.59 4.359 -4.575 2.684 -5.866 z" style="fill:#000;fill-opacity:0.098;display:inline"/>
 <path d="m 18.234 34.69 c -0.211 -2.499 2.746 -7.657 4.905 -5.587 1.676 1.607 2.445 6.579 0.697 7.574 -1.695 0.965 -5.467 -0.393 -5.602 -1.988 z m 8.586 0.991 c -1.465 -1.292 -0.426 -6.177 1.583 -6.454 2.441 -0.338 4.843 3.572 4 4.952 -1.152 1.894 -4.179 2.745 -5.586 1.503 z m -14.82 -5.658 c 0.137 -3.108 5.283 -5.718 6.753 -3.574 1.394 2.032 -1.066 6.134 -2.899 6.765 -1.853 0.638 -3.872 -1.721 -3.854 -3.191 z m 7.721 -4.423 c -1.598 -2.808 -7 -1.752 -7.02 -5.209 -0.019 -4.616 5.693 -9.871 9.882 -9.355 3.487 0.44 11.193 1.287 11.887 4.955 0.405 1.958 0.754 3.912 1.322 5.85 1.054 3.601 -2.16 5.916 -5.4 5.812 -3.359 -0.128 -8.832 0.995 -10.675 -2.054 z m 9.567 -3.123 c 3.2 -2.16 0.883 -8.04 -2.129 -6.347 -1.252 0.772 -2.47 4.082 -1.602 5.3 0.61 1.432 2.462 1.821 3.731 1.047 z m -6.982 -6.749 c -1.062 -1.017 -2.791 -0.612 -3.558 0.627 -0.726 1.174 -1.666 4.778 0.873 5.238 3.259 0.59 4.359 -4.575 2.684 -5.866 z" style="fill:#e6e6e6;fill-opacity:1;display:inline"/>
</svg>
