<svg version="1.1" viewBox="0 0 48 48" xmlns="http://www.w3.org/2000/svg">
 <defs>
  <linearGradient id="linearGradient4238" x2="0" y1="47" y2="1" gradientUnits="userSpaceOnUse">
   <stop style="stop-color:#258ed0" offset="0"/>
   <stop style="stop-color:#2e98da" offset="1"/>
  </linearGradient>
  <linearGradient id="linearGradient4246" x2="0" y1="47" y2="1" gradientUnits="userSpaceOnUse">
   <stop style="stop-color:#e33500" offset="0"/>
   <stop style="stop-color:#f83a00" offset="1"/>
  </linearGradient>
 </defs>
 <path d="m36.31 5c5.859 4.062 9.688 10.831 9.688 18.5 0 12.426-10.07 22.5-22.5 22.5-7.669 0-14.438-3.828-18.5-9.688 1.037 1.822 2.306 3.499 3.781 4.969 4.085 3.712 9.514 5.969 15.469 5.969 12.703 0 23-10.298 23-23 0-5.954-2.256-11.384-5.969-15.469-1.469-1.475-3.147-2.744-4.969-3.781zm4.969 3.781c3.854 4.113 6.219 9.637 6.219 15.719 0 12.703-10.297 23-23 23-6.081 0-11.606-2.364-15.719-6.219 4.16 4.144 9.883 6.719 16.219 6.719 12.703 0 23-10.298 23-23 0-6.335-2.575-12.06-6.719-16.219z" style="opacity:.05"/>
 <path d="m41.28 8.781c3.712 4.085 5.969 9.514 5.969 15.469 0 12.703-10.297 23-23 23-5.954 0-11.384-2.256-15.469-5.969 4.113 3.854 9.637 6.219 15.719 6.219 12.703 0 23-10.298 23-23 0-6.081-2.364-11.606-6.219-15.719z" style="opacity:.1"/>
 <path d="m31.25 2.375c8.615 3.154 14.75 11.417 14.75 21.13 0 12.426-10.07 22.5-22.5 22.5-9.708 0-17.971-6.135-21.12-14.75a23 23 0 0 0 44.875-7 23 23 0 0 0-16-21.875z" style="opacity:.2"/>
 <path d="m24 1-4 23 4 23c12.703 0 23-10.297 23-23s-10.297-23-23-23z" style="fill:url(#linearGradient4246)"/>
 <path d="m24 1c-12.703 0-23 10.297-23 23s10.297 23 23 23v-46z" style="fill:url(#linearGradient4238)"/>
 <path d="m24.996 7c1e-3 1e-3 8.59e-4 0.0029062 0.001953 0.0039062 9.06e-4 -0.0010076 9.53e-4 -0.0029062 0.001953-0.0039062h-0.003906zm0.001953 0.0058594c-2.5585 4.5315-3.6879 9.0086-5.0098 13.494 2.583-1.458 3.0101 1.0681 2.2871 2.7461-0.944 2.2-1.9142 4.2884-3.6602 1.3984l-1.6191 11.354c1.263-1.966 2.1322-3.9908 4.3652-5.6348 1.362-1 1.4748 0.06077 1.6348 1.6348 0 0 0.003906 15.002 0.003906 14.951 0.33292 0.02418 0.66634 0.041111 1 0.050781 1.0038-0.0087 2.0059-0.08305 3-0.22266v-8.7773l0.99805-1c-0.99804-1-0.99805-4-0.99805-4l-0.003906-1.002c0.16-1.573 0.27567-2.6368 1.6387-1.6348 2.233 1.644 3.0983 3.6678 4.3613 5.6348l-1.6152-11.354c-1.746 2.889-2.7162 0.80156-3.6602-1.3984-0.72-1.678-0.29489-4.2041 2.2871-2.7461-1.3178-4.4852-2.4497-8.9629-5.0098-13.494z" style="opacity:.1"/>
 <path d="m22 32c0 2 0 3-1.002 4l1 1 1.002 1-1 1v7.9082c0.66 0.057 1.326 0.0918 2 0.0918s1.34-0.0348 2-0.0918v-7.9082l-1-1 0.99805-1 1-1c-0.99805-1-0.99805-2-0.99805-4l-2-1z" style="fill:#c5904b"/>
 <path d="m40.03 7.531c3.712 4.084 5.969 9.514 5.969 15.469 0 12.703-10.297 23-23 23-5.954 0-11.384-2.256-15.469-5.969 4.178 4.291 10.01 6.969 16.469 6.969 12.703 0 23-10.298 23-23 0-6.462-2.677-12.291-6.969-16.469z" style="opacity:.1"/>
 <path d="m22 37v2h4v-2h-4z" style="fill:#c95de6"/>
 <path d="m24 6c-2.56 4.533-3.69 9.01-5.01 13.5 2.583-1.458 3.01 1.068 2.287 2.746-0.944 2.2-1.914 4.288-3.66 1.398l-1.619 11.355c1.263-1.966 2.132-3.991 4.365-5.635 1.362-1 1.475 0.061 1.635 1.635 0.034 0.332-0.032 0.667 2e-3 1.001h4s0-1-1e-3 -1.001c0.16-1.573 0.272-2.637 1.635-1.635 2.233 1.644 3.102 3.668 4.365 5.635l-1.619-11.355c-1.746 2.889-2.716 0.802-3.66-1.398-0.72-1.678-0.295-4.204 2.287-2.746-1.318-4.487-2.448-8.967-5.01-13.5z" style="fill:#c5dbee"/>
 <path d="m24 8c-1.16 3.756-2.4114 7.1061-3.5234 11.08 1.232 0.122 1.3517 1.8899 0.80274 3.1699-0.646 1.506-1.3058 2.9559-2.2168 2.7969-0.394 2.02-0.74525 4.2255-1.0312 6.7285 0.612-0.851 1.332-1.6692 2.334-2.4062 1.362-1 1.4767 0.062718 1.6367 1.6367l-0.001953 0.99414h4s-4.7e-5 -0.99914 0.001953-0.99414c0.16-1.573 0.27177-2.6387 1.6348-1.6367 0.991 0.729 1.7045 1.536 2.3125 2.377-0.49-2.267-0.91961-4.4937-1.3496-6.7207-0.74-0.201-1.314-1.4624-1.877-2.7734-0.526-1.225-0.43661-2.8965 0.65039-3.1465-0.801-3.485-1.8091-7.1086-3.3711-11.1l-0.001953-0.0058594z" style="fill:#a8c8e1"/>
 <path d="m24 33c-0.333 0.667-1 1.548-1 2 0 1 0.536 1.01 1 1 0.464-7e-3 1 0 1-1 0-0.418-0.667-1.333-1-2z" style="fill:#f393dc"/>
</svg>
