<svg version="1.1" viewBox="0 0 48 48" xmlns="http://www.w3.org/2000/svg">
 <defs>
  <linearGradient id="bg" x2="0" y1="1" y2="47" gradientUnits="userSpaceOnUse">
   <stop style="stop-color:#ceeed3" offset="0"/>
   <stop style="stop-color:#bee9c5" offset="1"/>
  </linearGradient>
 </defs>
 <path d="m36.31 5c5.859 4.062 9.688 10.831 9.688 18.5 0 12.426-10.07 22.5-22.5 22.5-7.669 0-14.438-3.828-18.5-9.688 1.037 1.822 2.306 3.499 3.781 4.969 4.085 3.712 9.514 5.969 15.469 5.969 12.703 0 23-10.298 23-23 0-5.954-2.256-11.384-5.969-15.469-1.469-1.475-3.147-2.744-4.969-3.781zm4.969 3.781c3.854 4.113 6.219 9.637 6.219 15.719 0 12.703-10.297 23-23 23-6.081 0-11.606-2.364-15.719-6.219 4.16 4.144 9.883 6.719 16.219 6.719 12.703 0 23-10.298 23-23 0-6.335-2.575-12.06-6.719-16.219z" style="opacity:.05"/>
 <path d="m41.28 8.781c3.712 4.085 5.969 9.514 5.969 15.469 0 12.703-10.297 23-23 23-5.954 0-11.384-2.256-15.469-5.969 4.113 3.854 9.637 6.219 15.719 6.219 12.703 0 23-10.298 23-23 0-6.081-2.364-11.606-6.219-15.719z" style="opacity:.1"/>
 <path d="m31.25 2.375c8.615 3.154 14.75 11.417 14.75 21.13 0 12.426-10.07 22.5-22.5 22.5-9.708 0-17.971-6.135-21.12-14.75a23 23 0 0 0 44.875-7 23 23 0 0 0-16-21.875z" style="opacity:.2"/>
 <circle cx="24" cy="24" r="23" style="fill:url(#bg)"/>
 <path d="m40.03 7.531c3.712 4.084 5.969 9.514 5.969 15.469 0 12.703-10.297 23-23 23-5.954 0-11.384-2.256-15.469-5.969 4.178 4.291 10.01 6.969 16.469 6.969 12.703 0 23-10.298 23-23 0-6.462-2.677-12.291-6.969-16.469z" style="opacity:.1"/>
 <path d="m25 15-13 10c0 4 2 10 8 10h10c6 0 8-6 8-10-0.70839 0-1.3746 0.0015-2.0215 0.0059l0.021484-0.0059c0-5-1-7-1-7-2.1261 0-3.9717 0.59482-5.9844 1.7461-1.7475-2.8523-4.0156-4.7461-4.0156-4.7461z" style="opacity:.1"/>
 <path d="m14 17s-1 2-1 7l11 3 11-3c0-5-1-7-1-7-3.4361 0-6.1381 1.5483-10 4.5-3.8619-2.9517-6.5639-4.5-10-4.5z" style="fill:#49788d"/>
 <path d="m28.264 18.607c-1.3149 0.72656-2.6923 1.6916-4.2637 2.8926v5.5l6.9531-1.8965c-0.24097-2.4764-1.4323-4.7418-2.6895-6.4961z" style="opacity:.1"/>
 <path d="m18 25c0-6 6-11 6-11s6 5 6 11l-6 8.5z" style="fill:#0eb99f"/>
 <path d="m18.119 25.17 5.8809 8.3301 0.93359-1.3223c-0.38953-5.1211-2.565-6.589-6.8145-7.0078z" style="opacity:.1"/>
 <path d="m11 24c0 4 2 10 8 10h10c6 0 8-6 8-10-9 0-13 0-13 9 0-9-4-9-13-9z" style="fill:#06a280"/>
</svg>
