<svg version="1.1" viewBox="0 0 48 48" xmlns="http://www.w3.org/2000/svg">
 <defs>
  <linearGradient id="bg" x2="0" y1="1" y2="47" gradientUnits="userSpaceOnUse">
   <stop style="stop-color:#d9ede6" offset="0"/>
   <stop style="stop-color:#cbe6dc" offset="1"/>
  </linearGradient>
 </defs>
 <path d="m36.3 5c5.86 4.06 9.69 10.8 9.69 18.5 0 12.4-10.1 22.5-22.5 22.5-7.67 0-14.4-3.83-18.5-9.69 1.04 1.82 2.31 3.5 3.78 4.97 4.08 3.71 9.51 5.97 15.5 5.97 12.7 0 23-10.3 23-23 0-5.95-2.26-11.4-5.97-15.5-1.47-1.48-3.15-2.74-4.97-3.78zm4.97 3.78c3.85 4.11 6.22 9.64 6.22 15.7 0 12.7-10.3 23-23 23-6.08 0-11.6-2.36-15.7-6.22 4.16 4.14 9.88 6.72 16.2 6.72 12.7 0 23-10.3 23-23 0-6.34-2.58-12.1-6.72-16.2z" style="opacity:.05"/>
 <path d="m41.3 8.78c3.71 4.08 5.97 9.51 5.97 15.5 0 12.7-10.3 23-23 23-5.95 0-11.4-2.26-15.5-5.97 4.11 3.85 9.64 6.22 15.7 6.22 12.7 0 23-10.3 23-23 0-6.08-2.36-11.6-6.22-15.7z" style="opacity:.1"/>
 <path d="m31.2 2.38c8.62 3.15 14.8 11.4 14.8 21.1 0 12.4-10.1 22.5-22.5 22.5-9.71 0-18-6.14-21.1-14.8a23 23 0 0044.9-7 23 23 0 00-16-21.9z" style="opacity:.2"/>
 <circle cx="24" cy="24" r="23" style="fill:url(#bg)"/>
 <path d="m16.1 11a1 1 0 00-.736.213 1 1 0 00-.156 1.41l2.25 2.81a13 13 0 00-5.47 10.6 13 13 0 0013 13 13 13 0 0013-13 13 13 0 00-5.45-10.6l2.23-2.79a1 1 0 00-.156-1.41 1 1 0 00-.736-.213 1 1 0 00-.67.369l-2.4 3a13 13 0 00-5.82-1.38 13 13 0 00-5.8 1.39l-2.42-3.02a1 1 0 00-.67-.369z" style="opacity:.1"/>
 <path d="m40 7.53c3.71 4.08 5.97 9.51 5.97 15.5 0 12.7-10.3 23-23 23-5.95 0-11.4-2.26-15.5-5.97 4.18 4.29 10 6.97 16.5 6.97 12.7 0 23-10.3 23-23 0-6.46-2.68-12.3-6.97-16.5z" style="opacity:.1"/>
 <path d="m15.1 10c-.264-.0297-.529.0469-.736.213-.432.345-.502.975-.156 1.41l2.25 2.81c-3.42 2.43-5.46 6.36-5.47 10.6l13 3 13-3c-.0016-4.2-2.03-8.14-5.45-10.6l2.23-2.79c.345-.431.275-1.06-.156-1.41-.207-.166-.472-.243-.736-.213-.263.0294-.504.162-.67.369l-2.4 3c-1.81-.905-3.8-1.38-5.82-1.38-2.02.009-4 .486-5.8 1.39l-2.42-3.02c-.166-.207-.407-.34-.67-.369z" style="fill:#2ac67a"/>
 <path d="m11 25c0 7.18 5.82 13 13 13s13-5.82 13-13h-3.03l-1.56 1-1.56-1h-5.37l-1.48 1-1.48-1h-5.37l-1.56 1-1.56-1z" style="fill:#ee9407"/>
 <path d="m17.1 25c.124.0632.16 8.91.16 8.91.326 1.13 1.76 1.46 2.55.592l5.14-5.67 5.14 5.67c.789.87 2.23.537 2.55-.592l2.57-8.91h-1.29c-.117.219-3.42 5.5-3.42 5.5l-4.44-4.9c.0918-.102-6.67 4.9-6.67 4.9l-1.59-5.5z" style="opacity:.1"/>
 <path d="m14 25 2.28 7.92c.326 1.13 1.76 1.46 2.55.592l5.14-5.67 5.14 5.67c.789.87 2.23.537 2.55-.592l2.28-7.92h-3.12l-1.3 4.5-4.08-4.5h-2.96l-4.08 4.5-1.3-4.5z" style="fill:#fafafa"/>
</svg>
