<svg xmlns="http://www.w3.org/2000/svg" viewBox="0 0 48 48">
 <defs>
  <linearGradient id="linearGradient3764" x1="1" x2="47" gradientUnits="userSpaceOnUse" gradientTransform="matrix(0,-1,1,0,-1.5e-6,47.999998)">
   <stop style="stop-color:#e1bf07;stop-opacity:1"/>
   <stop offset="1" style="stop-color:#f3ce08;stop-opacity:1"/>
  </linearGradient>
 </defs>
 <g>
  <path d="m 36.31 5 c 5.859 4.062 9.688 10.831 9.688 18.5 c 0 12.426 -10.07 22.5 -22.5 22.5 c -7.669 0 -14.438 -3.828 -18.5 -9.688 c 1.037 1.822 2.306 3.499 3.781 4.969 c 4.085 3.712 9.514 5.969 15.469 5.969 c 12.703 0 23 -10.298 23 -23 c 0 -5.954 -2.256 -11.384 -5.969 -15.469 c -1.469 -1.475 -3.147 -2.744 -4.969 -3.781 z m 4.969 3.781 c 3.854 4.113 6.219 9.637 6.219 15.719 c 0 12.703 -10.297 23 -23 23 c -6.081 0 -11.606 -2.364 -15.719 -6.219 c 4.16 4.144 9.883 6.719 16.219 6.719 c 12.703 0 23 -10.298 23 -23 c 0 -6.335 -2.575 -12.06 -6.719 -16.219 z" style="opacity:0.05"/>
  <path d="m 41.28 8.781 c 3.712 4.085 5.969 9.514 5.969 15.469 c 0 12.703 -10.297 23 -23 23 c -5.954 0 -11.384 -2.256 -15.469 -5.969 c 4.113 3.854 9.637 6.219 15.719 6.219 c 12.703 0 23 -10.298 23 -23 c 0 -6.081 -2.364 -11.606 -6.219 -15.719 z" style="opacity:0.1"/>
  <path d="m 31.25 2.375 c 8.615 3.154 14.75 11.417 14.75 21.13 c 0 12.426 -10.07 22.5 -22.5 22.5 c -9.708 0 -17.971 -6.135 -21.12 -14.75 a 23 23 0 0 0 44.875 -7 a 23 23 0 0 0 -16 -21.875 z" style="opacity:0.2"/>
 </g>
 <g>
  <path d="m 24 1 c 12.703 0 23 10.297 23 23 c 0 12.703 -10.297 23 -23 23 -12.703 0 -23 -10.297 -23 -23 0 -12.703 10.297 -23 23 -23 z" style="fill:url(#linearGradient3764);fill-opacity:1"/>
 </g>
 <g>
  <g>
   <g transform="translate(1,1)">
    <g style="opacity:0.1">
     <!-- color: #f3ce08 -->
     <g>
      <path d="m 24 9 c -2.559 0 -4.969 0.645 -7.078 1.773 l 2.98 0 l 0 0.203 c -0.395 0.02 -0.664 0.125 -0.809 0.313 c -0.301 -0.211 -0.598 -0.313 -0.883 -0.313 l -0.98 0 l -0.547 0.086 l -0.098 -0.086 l -0.031 0 c -0.391 0.223 -0.77 0.465 -1.137 0.723 c 0.84 1.207 1.348 2.246 1.523 3.121 l 0.813 0 l 0 0.203 l -0.625 0 l 0 0.227 c 0.238 0.875 0.414 1.313 0.527 1.313 l 0.191 0 l 0.434 -0.113 l 0.094 0.113 l 0.098 -0.113 l 0.094 0.113 l 0 0.082 c -0.32 0.23 -0.535 0.543 -0.645 0.945 l -0.07 0 l 0 0.199 l 0.168 0 c 0.223 3.168 0.637 5.57 1.242 7.207 l 0.355 0.281 l 0.191 0 c 0.227 0 0.742 -1.109 1.504 -3.332 c 0.492 -1 0.852 -1.887 1.074 -2.645 l -0.105 -0.316 c 0.496 -0.738 1.016 -1.109 1.531 -1.109 l 0.168 0 c 0.332 0 0.57 0.211 0.711 0.629 c 0.449 0.625 0.813 1.57 1.078 2.824 l 1.34 2.961 c 0.172 0.211 0.258 0.445 0.258 0.711 c 0.492 1.121 0.941 1.863 1.348 2.223 l 0.289 0 c 0.332 0 0.77 -1.387 1.332 -4.16 c 0.098 0 0.355 -0.738 0.793 -2.223 l 0 -0.113 l -1.512 -0.195 l -0.352 0.109 l -0.457 0 l 0 -0.227 l 0.91 -0.09 l 1.766 0 c 0.688 -2.449 1.316 -4.348 1.887 -5.699 c 0.063 -0.859 0.133 -1.57 0.203 -2.168 c -1.039 -0.859 -2.195 -1.586 -3.441 -2.145 c -0.105 0.234 -0.297 0.352 -0.602 0.352 l 0 -0.195 l 0.555 -0.184 c -1.855 -0.824 -3.914 -1.281 -6.078 -1.281 m -2.863 1.77 l 2.414 0 l 0 0.203 l -0.547 0.086 l -0.531 -0.086 l -0.453 0.199 l -0.16 -0.199 l -0.719 0 l 0 -0.203 m 4.988 1.629 l 0.262 0 l 0 0.086 c 0 0.133 -0.09 0.195 -0.262 0.195 l -0.102 0.113 l 0 0.113 l -0.262 -0.113 l 0 -0.195 m -12.465 0.879 c -2.664 2.707 -4.316 6.426 -4.316 10.527 c 0 8.281 6.723 14.996 15 14.996 c 8.281 0 15 -6.715 15 -14.996 c 0 -3.352 -1.094 -6.445 -2.938 -8.938 c -0.406 0.477 -0.797 1.383 -1.188 2.719 c -0.172 1.383 -0.469 2.668 -0.883 3.844 c -0.367 1.215 -0.551 2.336 -0.551 3.363 l -0.691 2.023 c 0 0.168 0.27 0.34 0.789 0.508 c -0.098 0.402 -0.234 0.598 -0.434 0.598 l 0 0.113 l 0.168 0 l 0 0.086 c 0 0.211 -0.273 0.313 -0.813 0.313 l 0.098 0.113 l 0 0.402 l -0.164 0 c 0.109 0.398 0.344 0.594 0.711 0.594 l 0 0.203 l -0.711 0 l 0 0.113 c 0.234 0 0.355 0.168 0.355 0.508 l -1 0.398 l 0.098 0.113 l 0 0.09 c 0 0.133 -0.121 0.195 -0.359 0.195 l 0 0.113 c 0.301 0 0.453 0.066 0.453 0.199 c -0.426 0.172 -0.992 1.02 -1.695 2.539 c -0.715 1.348 -1.336 2.02 -1.852 2.02 l -0.191 0 c -0.398 -0.305 -0.723 -1.313 -0.98 -3.02 c -1.02 -2.605 -1.527 -4.133 -1.527 -4.586 c 0 -1.18 -0.332 -2.43 -0.984 -3.762 c -0.172 -0.59 -0.289 -1.332 -0.352 -2.227 l -0.434 -0.109 c -1.086 1.957 -1.648 3.484 -1.695 4.586 c -0.301 0.648 -0.539 1.426 -0.715 2.34 c 0.652 0.203 0.977 0.402 0.977 0.598 l 0 0.105 c -0.508 -0.07 -0.863 -0.219 -1.07 -0.43 c -0.227 0.52 -0.52 1.941 -0.887 4.273 c -0.289 1.082 -0.641 1.625 -1.074 1.625 c -1.207 -0.473 -2.223 -1.254 -3.03 -2.332 c -0.129 0 -0.34 -0.543 -0.625 -1.629 c -0.176 0 -0.293 -0.539 -0.359 -1.621 c -0.602 -1.539 -1.016 -3.301 -1.238 -5.273 l 0 -2.961 l -0.098 0 l -0.43 0.113 l 0 -0.113 c 0 -0.137 0.145 -0.199 0.43 -0.199 l -0.094 -1.707 l 0 -1.34 l -0.695 -4.27 l 0 -0.828 m 11.488 0.043 l 0 0.113 c 0 0.148 -0.379 0.313 -1.145 0.48 l 0 -0.203 l 0.527 -0.277 l 0.094 0.082 l 0.074 0 m -2.129 0.828 l 0 0.082 c -0.332 0.309 -0.879 0.582 -1.625 0.832 l 0 -0.199 c 0.129 0 0.191 -0.105 0.191 -0.316 l 1.434 -0.395 m 13.508 0.109 l -0.043 0.367 l 0.168 0 l 0.102 -0.082 c -0.074 -0.098 -0.152 -0.195 -0.23 -0.289 m -8.965 0.887 l 0.098 0.113 l 0 0.082 l -0.168 0.23 l -0.094 0 l -0.191 -0.23 l 0 -0.082 m 3.648 0 l 0.094 0 l 0 0.082 l -0.16 0.23 l -0.098 0 l 0 -0.113 l 0.164 -0.195 m -1.504 1.418 l 0.359 0.289 c -0.063 0.207 -0.242 0.313 -0.527 0.313 l -0.191 -0.313 c 0 -0.098 0.121 -0.191 0.355 -0.289 m 2.152 1.313 l 0.07 0.109 l 0 0.09 l -0.07 0.113 l -0.191 0 l 0 -0.113 m -3.195 0.824 l 0 0.09 l -0.453 0.426 l -0.262 0 l 0 -0.113 c 0 -0.168 0.238 -0.305 0.715 -0.398 m -14.809 3.957 l 0.098 0 l 0 0.094 c -0.238 0.625 -0.445 1 -0.617 1.137 l -0.188 0 l 0 -0.434 m 12.391 3.965 l 0.094 0 l 0 0.195 l -0.715 0.434 l -0.094 -0.113 l 0 -0.199 l 0.715 -0.313 m -9.813 1.336 l 0.164 0 l 0.285 1.105 l -0.191 0 l -0.258 -1.023 l 0 -0.086 m 9.551 1.313 l 0.07 0 l 0.285 0.316 l -0.094 0.086 l -0.098 0 l -0.164 -0.285 m 0 -0.113" style="fill:#000;fill-opacity:1;stroke:none;fill-rule:nonzero"/>
     </g>
    </g>
   </g>
  </g>
 </g>
 <g>
  <g>
   <!-- color: #f3ce08 -->
   <g>
    <path d="m 24 9 c -2.559 0 -4.969 0.645 -7.078 1.773 l 2.98 0 l 0 0.203 c -0.395 0.02 -0.664 0.125 -0.809 0.313 c -0.301 -0.211 -0.598 -0.313 -0.883 -0.313 l -0.98 0 l -0.547 0.086 l -0.098 -0.086 l -0.031 0 c -0.391 0.223 -0.77 0.465 -1.137 0.723 c 0.84 1.207 1.348 2.246 1.523 3.121 l 0.813 0 l 0 0.203 l -0.625 0 l 0 0.227 c 0.238 0.875 0.414 1.313 0.527 1.313 l 0.191 0 l 0.434 -0.113 l 0.094 0.113 l 0.098 -0.113 l 0.094 0.113 l 0 0.082 c -0.32 0.23 -0.535 0.543 -0.645 0.945 l -0.07 0 l 0 0.199 l 0.168 0 c 0.223 3.168 0.637 5.57 1.242 7.207 l 0.355 0.281 l 0.191 0 c 0.227 0 0.742 -1.109 1.504 -3.332 c 0.492 -1 0.852 -1.887 1.074 -2.645 l -0.105 -0.316 c 0.496 -0.738 1.016 -1.109 1.531 -1.109 l 0.168 0 c 0.332 0 0.57 0.211 0.711 0.629 c 0.449 0.625 0.813 1.57 1.078 2.824 l 1.34 2.961 c 0.172 0.211 0.258 0.445 0.258 0.711 c 0.492 1.121 0.941 1.863 1.348 2.223 l 0.289 0 c 0.332 0 0.77 -1.387 1.332 -4.16 c 0.098 0 0.355 -0.738 0.793 -2.223 l 0 -0.113 l -1.512 -0.195 l -0.352 0.109 l -0.457 0 l 0 -0.227 l 0.91 -0.09 l 1.766 0 c 0.688 -2.449 1.316 -4.348 1.887 -5.699 c 0.063 -0.859 0.133 -1.57 0.203 -2.168 c -1.039 -0.859 -2.195 -1.586 -3.441 -2.145 c -0.105 0.234 -0.297 0.352 -0.602 0.352 l 0 -0.195 l 0.555 -0.184 c -1.855 -0.824 -3.914 -1.281 -6.078 -1.281 m -2.863 1.77 l 2.414 0 l 0 0.203 l -0.547 0.086 l -0.531 -0.086 l -0.453 0.199 l -0.16 -0.199 l -0.719 0 l 0 -0.203 m 4.988 1.629 l 0.262 0 l 0 0.086 c 0 0.133 -0.09 0.195 -0.262 0.195 l -0.102 0.113 l 0 0.113 l -0.262 -0.113 l 0 -0.195 m -12.465 0.879 c -2.664 2.707 -4.316 6.426 -4.316 10.527 c 0 8.281 6.723 14.996 15 14.996 c 8.281 0 15 -6.715 15 -14.996 c 0 -3.352 -1.094 -6.445 -2.938 -8.938 c -0.406 0.477 -0.797 1.383 -1.188 2.719 c -0.172 1.383 -0.469 2.668 -0.883 3.844 c -0.367 1.215 -0.551 2.336 -0.551 3.363 l -0.691 2.023 c 0 0.168 0.27 0.34 0.789 0.508 c -0.098 0.402 -0.234 0.598 -0.434 0.598 l 0 0.113 l 0.168 0 l 0 0.086 c 0 0.211 -0.273 0.313 -0.813 0.313 l 0.098 0.113 l 0 0.402 l -0.164 0 c 0.109 0.398 0.344 0.594 0.711 0.594 l 0 0.203 l -0.711 0 l 0 0.113 c 0.234 0 0.355 0.168 0.355 0.508 l -1 0.398 l 0.098 0.113 l 0 0.09 c 0 0.133 -0.121 0.195 -0.359 0.195 l 0 0.113 c 0.301 0 0.453 0.066 0.453 0.199 c -0.426 0.172 -0.992 1.02 -1.695 2.539 c -0.715 1.348 -1.336 2.02 -1.852 2.02 l -0.191 0 c -0.398 -0.305 -0.723 -1.313 -0.98 -3.02 c -1.02 -2.605 -1.527 -4.133 -1.527 -4.586 c 0 -1.18 -0.332 -2.43 -0.984 -3.762 c -0.172 -0.59 -0.289 -1.332 -0.352 -2.227 l -0.434 -0.109 c -1.086 1.957 -1.648 3.484 -1.695 4.586 c -0.301 0.648 -0.539 1.426 -0.715 2.34 c 0.652 0.203 0.977 0.402 0.977 0.598 l 0 0.105 c -0.508 -0.07 -0.863 -0.219 -1.07 -0.43 c -0.227 0.52 -0.52 1.941 -0.887 4.273 c -0.289 1.082 -0.641 1.625 -1.074 1.625 c -1.207 -0.473 -2.223 -1.254 -3.03 -2.332 c -0.129 0 -0.34 -0.543 -0.625 -1.629 c -0.176 0 -0.293 -0.539 -0.359 -1.621 c -0.602 -1.539 -1.016 -3.301 -1.238 -5.273 l 0 -2.961 l -0.098 0 l -0.43 0.113 l 0 -0.113 c 0 -0.137 0.145 -0.199 0.43 -0.199 l -0.094 -1.707 l 0 -1.34 l -0.695 -4.27 l 0 -0.828 m 11.488 0.043 l 0 0.113 c 0 0.148 -0.379 0.313 -1.145 0.48 l 0 -0.203 l 0.527 -0.277 l 0.094 0.082 l 0.074 0 m -2.129 0.828 l 0 0.082 c -0.332 0.309 -0.879 0.582 -1.625 0.832 l 0 -0.199 c 0.129 0 0.191 -0.105 0.191 -0.316 l 1.434 -0.395 m 13.508 0.109 l -0.043 0.367 l 0.168 0 l 0.102 -0.082 c -0.074 -0.098 -0.152 -0.195 -0.23 -0.289 m -8.965 0.887 l 0.098 0.113 l 0 0.082 l -0.168 0.23 l -0.094 0 l -0.191 -0.23 l 0 -0.082 m 3.648 0 l 0.094 0 l 0 0.082 l -0.16 0.23 l -0.098 0 l 0 -0.113 l 0.164 -0.195 m -1.504 1.418 l 0.359 0.289 c -0.063 0.207 -0.242 0.313 -0.527 0.313 l -0.191 -0.313 c 0 -0.098 0.121 -0.191 0.355 -0.289 m 2.152 1.313 l 0.07 0.109 l 0 0.09 l -0.07 0.113 l -0.191 0 l 0 -0.113 m -3.195 0.824 l 0 0.09 l -0.453 0.426 l -0.262 0 l 0 -0.113 c 0 -0.168 0.238 -0.305 0.715 -0.398 m -14.809 3.957 l 0.098 0 l 0 0.094 c -0.238 0.625 -0.445 1 -0.617 1.137 l -0.188 0 l 0 -0.434 m 12.391 3.965 l 0.094 0 l 0 0.195 l -0.715 0.434 l -0.094 -0.113 l 0 -0.199 l 0.715 -0.313 m -9.813 1.336 l 0.164 0 l 0.285 1.105 l -0.191 0 l -0.258 -1.023 l 0 -0.086 m 9.551 1.313 l 0.07 0 l 0.285 0.316 l -0.094 0.086 l -0.098 0 l -0.164 -0.285 m 0 -0.113" style="fill:#f9f9f9;fill-opacity:1;stroke:none;fill-rule:nonzero"/>
   </g>
  </g>
 </g>
 <g>
  <path d="m 40.03 7.531 c 3.712 4.084 5.969 9.514 5.969 15.469 0 12.703 -10.297 23 -23 23 c -5.954 0 -11.384 -2.256 -15.469 -5.969 4.178 4.291 10.01 6.969 16.469 6.969 c 12.703 0 23 -10.298 23 -23 0 -6.462 -2.677 -12.291 -6.969 -16.469 z" style="opacity:0.1"/>
 </g>
</svg>
