<svg version="1.1" viewBox="0 0 48 48" xmlns="http://www.w3.org/2000/svg">
 <defs>
  <linearGradient id="bg" x2="0" y1="1" y2="47" gradientUnits="userSpaceOnUse">
   <stop style="stop-color:#f5c7c9" offset="0"/>
   <stop style="stop-color:#f2b3b5" offset="1"/>
  </linearGradient>
 </defs>
 <path d="m36.3 5c5.86 4.06 9.69 10.8 9.69 18.5 0 12.4-10.1 22.5-22.5 22.5-7.67 0-14.4-3.83-18.5-9.69 1.04 1.82 2.31 3.5 3.78 4.97 4.08 3.71 9.51 5.97 15.5 5.97 12.7 0 23-10.3 23-23 0-5.95-2.26-11.4-5.97-15.5-1.47-1.48-3.15-2.74-4.97-3.78zm4.97 3.78c3.85 4.11 6.22 9.64 6.22 15.7 0 12.7-10.3 23-23 23-6.08 0-11.6-2.36-15.7-6.22 4.16 4.14 9.88 6.72 16.2 6.72 12.7 0 23-10.3 23-23 0-6.34-2.58-12.1-6.72-16.2z" style="opacity:.05"/>
 <path d="m41.3 8.78c3.71 4.08 5.97 9.51 5.97 15.5 0 12.7-10.3 23-23 23-5.95 0-11.4-2.26-15.5-5.97 4.11 3.85 9.64 6.22 15.7 6.22 12.7 0 23-10.3 23-23 0-6.08-2.36-11.6-6.22-15.7z" style="opacity:.1"/>
 <path d="m31.2 2.38c8.62 3.15 14.8 11.4 14.8 21.1 0 12.4-10.1 22.5-22.5 22.5-9.71 0-18-6.14-21.1-14.8a23 23 0 0 0 44.9-7 23 23 0 0 0-16-21.9z" style="opacity:.2"/>
 <circle cx="24" cy="24" r="23" style="fill:url(#bg)"/>
 <path d="m40 7.53c3.71 4.08 5.97 9.51 5.97 15.5 0 12.7-10.3 23-23 23-5.95 0-11.4-2.26-15.5-5.97 4.18 4.29 10 6.97 16.5 6.97 12.7 0 23-10.3 23-23 0-6.46-2.68-12.3-6.97-16.5z" style="opacity:.1"/>
 <path d="m25 14c-1.33 0-2.63 0.222-3.86 0.658l2.02 3.73c0.625-0.266 1.25-0.385 1.83-0.385s1.21 0.119 1.83 0.385l2.02-3.73c-1.23-0.436-2.52-0.658-3.86-0.658zm-5.54 1.44c-1.35 0.751-2.58 1.79-3.64 3.13l4.15 3.01c0.705-1.31 1.54-2.2 2.4-2.76zm11.1 0-2.91 3.38c0.864 0.56 1.7 1.45 2.4 2.76l4.15-3.01c-1.05-1.35-2.29-2.38-3.64-3.13zm-15.8 4.76c-0.733 1.25-1.34 2.69-1.8 4.33l5.56 1.5c0.262-1.38 0.611-2.56 1.03-3.54zm20.5 0-4.79 2.3c0.418 0.977 0.768 2.15 1.03 3.54l5.56-1.5c-0.455-1.64-1.06-3.08-1.8-4.33zm-22.7 6c-0.349 1.75-0.545 3.68-0.545 5.81h6c0-1.86 0.123-3.48 0.328-4.91zm24.9 0-5.78 0.895c0.206 1.43 0.328 3.05 0.328 4.91h6c0-2.13-0.196-4.06-0.545-5.81z" style="opacity:.1;stroke-linecap:round;stroke-linejoin:round;stroke-width:2.21"/>
 <path d="m13.7 19.2c-0.733 1.25-1.34 2.69-1.8 4.33l5.56 1.5c0.262-1.38 0.611-2.56 1.03-3.54zm20.5 0-4.79 2.3c0.418 0.977 0.768 2.15 1.03 3.54l5.56-1.5c-0.455-1.64-1.06-3.08-1.8-4.33z" style="fill:#e63838;stroke-linecap:round;stroke-linejoin:round;stroke-width:2.21"/>
 <path d="m24 13c-1.33 0-2.63 0.222-3.86 0.658l2.02 3.73c0.625-0.266 1.25-0.385 1.83-0.385s1.21 0.119 1.83 0.385l2.02-3.73c-1.23-0.436-2.52-0.658-3.86-0.658z" style="fill:#d35650;stroke-linecap:round;stroke-linejoin:round;stroke-width:2.21"/>
 <path d="m11.5 25.2c-0.349 1.75-0.545 3.68-0.545 5.81h6c0-1.86 0.123-3.48 0.328-4.91zm24.9 0-5.78 0.895c0.206 1.43 0.328 3.05 0.328 4.91h6c0-2.13-0.196-4.06-0.545-5.81z" style="fill:#e62323;stroke-linecap:round;stroke-linejoin:round;stroke-width:2.21"/>
 <path d="m18.5 14.4c-1.35 0.751-2.58 1.79-3.64 3.13l4.15 3.01c0.705-1.31 1.54-2.2 2.4-2.76zm11.1 0-2.91 3.38c0.864 0.56 1.7 1.45 2.4 2.76l4.15-3.01c-1.05-1.35-2.29-2.38-3.64-3.13z" style="fill:#dd4040;stroke-linecap:round;stroke-linejoin:round;stroke-width:2.21"/>
</svg>
