<svg xmlns="http://www.w3.org/2000/svg" viewBox="0 0 48 48">
 <defs>
  <linearGradient id="linearGradient3764" x1="1" x2="47" gradientUnits="userSpaceOnUse" gradientTransform="matrix(0,-1,1,0,-1.5e-6,47.999998)">
   <stop style="stop-color:#2f6199;stop-opacity:1"/>
   <stop offset="1" style="stop-color:#3469a7;stop-opacity:1"/>
  </linearGradient>
 </defs>
 <g>
  <path d="m 36.31 5 c 5.859 4.062 9.688 10.831 9.688 18.5 c 0 12.426 -10.07 22.5 -22.5 22.5 c -7.669 0 -14.438 -3.828 -18.5 -9.688 c 1.037 1.822 2.306 3.499 3.781 4.969 c 4.085 3.712 9.514 5.969 15.469 5.969 c 12.703 0 23 -10.298 23 -23 c 0 -5.954 -2.256 -11.384 -5.969 -15.469 c -1.469 -1.475 -3.147 -2.744 -4.969 -3.781 z m 4.969 3.781 c 3.854 4.113 6.219 9.637 6.219 15.719 c 0 12.703 -10.297 23 -23 23 c -6.081 0 -11.606 -2.364 -15.719 -6.219 c 4.16 4.144 9.883 6.719 16.219 6.719 c 12.703 0 23 -10.298 23 -23 c 0 -6.335 -2.575 -12.06 -6.719 -16.219 z" style="opacity:0.05"/>
  <path d="m 41.28 8.781 c 3.712 4.085 5.969 9.514 5.969 15.469 c 0 12.703 -10.297 23 -23 23 c -5.954 0 -11.384 -2.256 -15.469 -5.969 c 4.113 3.854 9.637 6.219 15.719 6.219 c 12.703 0 23 -10.298 23 -23 c 0 -6.081 -2.364 -11.606 -6.219 -15.719 z" style="opacity:0.1"/>
  <path d="m 31.25 2.375 c 8.615 3.154 14.75 11.417 14.75 21.13 c 0 12.426 -10.07 22.5 -22.5 22.5 c -9.708 0 -17.971 -6.135 -21.12 -14.75 a 23 23 0 0 0 44.875 -7 a 23 23 0 0 0 -16 -21.875 z" style="opacity:0.2"/>
 </g>
 <g>
  <path d="m 24 1 c 12.703 0 23 10.297 23 23 c 0 12.703 -10.297 23 -23 23 -12.703 0 -23 -10.297 -23 -23 0 -12.703 10.297 -23 23 -23 z" style="fill:url(#linearGradient3764);fill-opacity:1"/>
 </g>
 <g>
  <g>
   <g transform="translate(1,1)">
    <g style="opacity:0.1">
     <!-- color: #3469a7 -->
     <g>
      <path d="m 28.492 23.875 c -0.148 -2.996 -2.285 -4.797 -4.859 -4.797 l -0.098 0 c -2.973 0 -4.625 2.438 -4.625 5.207 c 0 3.098 1.996 5.059 4.613 5.059 c 2.918 0 4.836 -2.23 4.973 -4.863 m -4.945 -8.09 c 1.984 0 3.855 0.918 5.227 2.352 l 0 0.004 c 0 -0.688 0.441 -1.207 1.059 -1.207 l 0.156 0 c 0.965 0 1.164 0.949 1.164 1.254 l 0.004 10.695 c -0.066 0.703 0.695 1.063 1.117 0.613 c 1.648 -1.766 3.621 -9.07 -1.023 -13.309 c -4.332 -3.949 -10.141 -3.301 -13.227 -1.082 c -3.285 2.363 -5.387 7.586 -3.344 12.496 c 2.223 5.352 8.59 6.945 12.375 5.355 c 1.918 -0.809 2.801 1.895 0.813 2.773 c -3.01 1.336 -11.379 1.203 -15.289 -5.859 c -2.641 -4.766 -2.5 -13.152 4.504 -17.496 c 5.363 -3.324 12.426 -2.406 16.688 2.234 c 4.457 4.848 4.195 13.93 -0.145 17.457 c -1.973 1.602 -4.895 0.043 -4.875 -2.293 l -0.023 -0.766 c -1.371 1.418 -3.195 2.246 -5.18 2.246 c -3.926 0 -7.383 -3.602 -7.383 -7.691 c 0 -4.133 3.457 -7.777 7.383 -7.777" style="fill:#000;fill-opacity:1;stroke:none;fill-rule:evenodd"/>
     </g>
    </g>
   </g>
  </g>
 </g>
 <g>
  <g>
   <!-- color: #3469a7 -->
   <g>
    <path d="m 28.492 23.875 c -0.148 -2.996 -2.285 -4.797 -4.859 -4.797 l -0.098 0 c -2.973 0 -4.625 2.438 -4.625 5.207 c 0 3.098 1.996 5.059 4.613 5.059 c 2.918 0 4.836 -2.23 4.973 -4.863 m -4.945 -8.09 c 1.984 0 3.855 0.918 5.227 2.352 l 0 0.004 c 0 -0.688 0.441 -1.207 1.059 -1.207 l 0.156 0 c 0.965 0 1.164 0.949 1.164 1.254 l 0.004 10.695 c -0.066 0.703 0.695 1.063 1.117 0.613 c 1.648 -1.766 3.621 -9.07 -1.023 -13.309 c -4.332 -3.949 -10.141 -3.301 -13.227 -1.082 c -3.285 2.363 -5.387 7.586 -3.344 12.496 c 2.223 5.352 8.59 6.945 12.375 5.355 c 1.918 -0.809 2.801 1.895 0.813 2.773 c -3.01 1.336 -11.379 1.203 -15.289 -5.859 c -2.641 -4.766 -2.5 -13.152 4.504 -17.496 c 5.363 -3.324 12.426 -2.406 16.688 2.234 c 4.457 4.848 4.195 13.93 -0.145 17.457 c -1.973 1.602 -4.895 0.043 -4.875 -2.293 l -0.023 -0.766 c -1.371 1.418 -3.195 2.246 -5.18 2.246 c -3.926 0 -7.383 -3.602 -7.383 -7.691 c 0 -4.133 3.457 -7.777 7.383 -7.777" style="fill:#f89c0b;fill-opacity:1;stroke:none;fill-rule:evenodd"/>
   </g>
  </g>
 </g>
 <g>
  <path d="m 40.03 7.531 c 3.712 4.084 5.969 9.514 5.969 15.469 0 12.703 -10.297 23 -23 23 c -5.954 0 -11.384 -2.256 -15.469 -5.969 4.178 4.291 10.01 6.969 16.469 6.969 c 12.703 0 23 -10.298 23 -23 0 -6.462 -2.677 -12.291 -6.969 -16.469 z" style="opacity:0.1"/>
 </g>
</svg>
