<svg version="1.1" viewBox="0 0 48 48" xmlns="http://www.w3.org/2000/svg">
 <defs>
  <linearGradient id="linearGradient3185" x1="1" x2="47" gradientTransform="matrix(0 -1 1 0 -1.5e-6 48)" gradientUnits="userSpaceOnUse">
   <stop style="stop-color:#eee" offset="0"/>
   <stop style="stop-color:#f8f8f8" offset="1"/>
  </linearGradient>
 </defs>
 <path d="m36.31 5c5.859 4.062 9.688 10.831 9.688 18.5 0 12.426-10.07 22.5-22.5 22.5-7.669 0-14.438-3.828-18.5-9.688 1.037 1.822 2.306 3.499 3.781 4.969 4.085 3.712 9.514 5.969 15.469 5.969 12.703 0 23-10.298 23-23 0-5.954-2.256-11.384-5.969-15.469-1.469-1.475-3.147-2.744-4.969-3.781zm4.969 3.781c3.854 4.113 6.219 9.637 6.219 15.719 0 12.703-10.297 23-23 23-6.081 0-11.606-2.364-15.719-6.219 4.16 4.144 9.883 6.719 16.219 6.719 12.703 0 23-10.298 23-23 0-6.335-2.575-12.06-6.719-16.219z" style="opacity:.05"/>
 <path d="m41.28 8.781c3.712 4.085 5.969 9.514 5.969 15.469 0 12.703-10.297 23-23 23-5.954 0-11.384-2.256-15.469-5.969 4.113 3.854 9.637 6.219 15.719 6.219 12.703 0 23-10.298 23-23 0-6.081-2.364-11.606-6.219-15.719z" style="opacity:.1"/>
 <path d="m31.25 2.375c8.615 3.154 14.75 11.417 14.75 21.13 0 12.426-10.07 22.5-22.5 22.5-9.708 0-17.971-6.135-21.12-14.75a23 23 0 0 0 44.875-7 23 23 0 0 0-16-21.875z" style="opacity:.2"/>
 <path d="m4.375 11.999c-2.135 3.49-3.375 7.608-3.375 12 0 12.703 10.297 23 23 23s23-10.297 23-23c0-4.403-1.259-8.51-3.406-12-15.074-4.7755-30.517-2.3737-39.219 0z" style="fill:url(#linearGradient3185)"/>
 <path d="m4.4062 12c-0.202 0.33-0.40775 0.66-0.59375 1h40.375c-0.186-0.34-0.39175-0.67-0.59375-1h-39.188zm10.594 7c-1.662 0-3 1.338-3 3v7c0 5 5 12 13 12s13-7 13-12v-7c0-1.662-1.338-3-3-3h-20zm4.8301 6c0.46727 0 0.93492 0.18192 1.293 0.54688l3.877 3.9531 3.877-3.9531c0.71609-0.72991 1.8698-0.72991 2.5859 0 0.71609 0.72991 0.71609 1.9049 0 2.6348l-5.1699 5.2715c-0.71609 0.72991-1.8698 0.72991-2.5859 0l-5.1699-5.2715c-0.71609-0.72991-0.71609-1.9049 0-2.6348 0.35805-0.36495 0.8257-0.54688 1.293-0.54688z" style="opacity:.1"/>
 <path d="m14 3.313c-3.984 1.929-7.328 4.933-9.625 8.688h9.625v-8.688z" style="fill:#7febb8"/>
 <path d="m24 1c-3.588 0-6.974 0.848-10 2.313v8.688h10v-11z" style="fill:#4cb8b2"/>
 <path d="m34 3.313v8.688h9.625c-2.297-3.755-5.641-6.759-9.625-8.688z" style="fill:#fab24a"/>
 <path d="m40.03 7.531c3.712 4.084 5.969 9.514 5.969 15.469 0 12.703-10.297 23-23 23-5.954 0-11.384-2.256-15.469-5.969 4.178 4.291 10.01 6.969 16.469 6.969 12.703 0 23-10.298 23-23 0-6.462-2.677-12.291-6.969-16.469z" style="opacity:.1"/>
 <path d="m24 1v11h10v-8.688c-3.03-1.465-6.412-2.313-10-2.313z" style="fill:#eb3d51"/>
 <path d="m14 18c-1.662 0-3 1.338-3 3v7c0 5 5 12 13 12s13-7 13-12v-7c0-1.662-1.338-3-3-3h-20zm4.8301 6c0.46727 0 0.93492 0.18192 1.293 0.54688l3.877 3.9531 3.877-3.9531c0.71609-0.72991 1.8698-0.72991 2.5859 0 0.71609 0.72991 0.71609 1.9049 0 2.6348l-5.1699 5.2715c-0.71609 0.72991-1.8698 0.72991-2.5859 0l-5.1699-5.2715c-0.71609-0.72991-0.71609-1.9049 0-2.6348 0.35805-0.36495 0.8257-0.54688 1.293-0.54688z" style="fill:#eb3d51;paint-order:normal"/>
</svg>
