<svg version="1.1" viewBox="0 0 48 48" xmlns="http://www.w3.org/2000/svg">
 <defs>
  <linearGradient id="bg" x1="1" x2="47" gradientTransform="matrix(0 -1 1 0 -1.5e-6 48)" gradientUnits="userSpaceOnUse">
   <stop style="stop-color:#ecdada" offset="0"/>
   <stop style="stop-color:#f3e7e7" offset="1"/>
  </linearGradient>
 </defs>
 <path d="m36.31 5c5.859 4.062 9.688 10.831 9.688 18.5 0 12.426-10.07 22.5-22.5 22.5-7.669 0-14.438-3.828-18.5-9.688 1.037 1.822 2.306 3.499 3.781 4.969 4.085 3.712 9.514 5.969 15.469 5.969 12.703 0 23-10.298 23-23 0-5.954-2.256-11.384-5.969-15.469-1.469-1.475-3.147-2.744-4.969-3.781zm4.969 3.781c3.854 4.113 6.219 9.637 6.219 15.719 0 12.703-10.297 23-23 23-6.081 0-11.606-2.364-15.719-6.219 4.16 4.144 9.883 6.719 16.219 6.719 12.703 0 23-10.298 23-23 0-6.335-2.575-12.06-6.719-16.219z" style="opacity:.05"/>
 <path d="m41.28 8.781c3.712 4.085 5.969 9.514 5.969 15.469 0 12.703-10.297 23-23 23-5.954 0-11.384-2.256-15.469-5.969 4.113 3.854 9.637 6.219 15.719 6.219 12.703 0 23-10.298 23-23 0-6.081-2.364-11.606-6.219-15.719z" style="opacity:.1"/>
 <path d="m31.25 2.375c8.615 3.154 14.75 11.417 14.75 21.13 0 12.426-10.07 22.5-22.5 22.5-9.708 0-17.971-6.135-21.12-14.75a23 23 0 0 0 44.875-7 23 23 0 0 0-16-21.875z" style="opacity:.2"/>
 <path d="m24 1c12.703 0 23 10.297 23 23s-10.297 23-23 23-23-10.297-23-23 10.297-23 23-23z" style="fill:url(#bg)"/>
 <path d="m40.03 7.531c3.712 4.084 5.969 9.514 5.969 15.469 0 12.703-10.297 23-23 23-5.954 0-11.384-2.256-15.469-5.969 4.178 4.291 10.01 6.969 16.469 6.969 12.703 0 23-10.298 23-23 0-6.462-2.677-12.291-6.969-16.469z" style="opacity:.1"/>
 <path d="m25.186 10c-3.3431-0.04163-6.6043 1.0349-9.2656 3.0586-5.9715 4.5416-7.6692 12.797-3.9746 19.326 3.6947 6.5294 11.645 9.325 18.613 6.5449 6.7326-2.6857 10.582-9.8016 9.1445-16.906h-14.729v6h8.4785c-1.2705 3.5936-4.667 5.9971-8.4785 6-4.9706 0-9-4.0294-9-9s4.0294-9.0016 9-9c2.386 7.78e-4 4.6734 0.95224 6.3594 2.6406l4.2715-4.2715c-2.7673-2.7675-6.5066-4.3438-10.42-4.3926z" style="opacity:.1"/>
 <path d="m24.186 9.0002c-3.3431-0.04163-6.6043 1.0349-9.2656 3.0586-1.8685 1.4211-3.319 3.2058-4.3164 5.1875l1.3711 3.7773 3.5547-0.084c1.2603-3.4494 4.56-5.9173 8.4453-5.916 2.386 7.78e-4 4.6734 0.95224 6.3594 2.6406l4.2715-4.2715c-2.7673-2.7675-6.5066-4.3438-10.42-4.3926z" style="fill:#ef7167"/>
 <path d="m10.604 17.246c-2.0764 4.1256-2.1886 9.1044-0.03135 13.434l4.4023 0.34376 0.54492-3.9414c-0.34611-0.95621-0.54492-1.9829-0.54492-3.0586 0-1.0852 0.20266-2.1205 0.55469-3.084z" style="fill:#f6d13c"/>
 <path d="m15.52 27.082-4.9473 3.5977c0.11806 0.23693 0.24133 0.47229 0.37305 0.70508 3.6947 6.5294 11.645 9.325 18.613 6.5449 1.5764-0.62883 2.9913-1.503 4.2207-2.5606l-0.80469-3.3457-4.0703-0.48438c-1.433 0.94142-3.133 1.483-4.9297 1.4844-3.8949 0-7.2018-2.479-8.4551-5.9414z" style="fill:#38b85b"/>
 <path d="m23.975 21.024v6h8.4785c-0.67174 1.9-1.9414 3.4618-3.5488 4.5176l4.875 3.8281c4.0212-3.4592 6.0244-8.9045 4.9238-14.346z" style="fill:#5c92f0"/>
</svg>
