<svg version="1.1" viewBox="0 0 48 48" xmlns="http://www.w3.org/2000/svg">
 <defs>
  <linearGradient id="bg" x2="0" y1="1" y2="47" gradientUnits="userSpaceOnUse">
   <stop style="stop-color:#a10f15" offset="0"/>
   <stop style="stop-color:#8f0d13" offset="1"/>
  </linearGradient>
 </defs>
 <path d="m36.31 5c5.859 4.062 9.688 10.831 9.688 18.5 0 12.426-10.07 22.5-22.5 22.5-7.669 0-14.438-3.828-18.5-9.688 1.037 1.822 2.306 3.499 3.781 4.969 4.085 3.712 9.514 5.969 15.469 5.969 12.703 0 23-10.298 23-23 0-5.954-2.256-11.384-5.969-15.469-1.469-1.475-3.147-2.744-4.969-3.781zm4.969 3.781c3.854 4.113 6.219 9.637 6.219 15.719 0 12.703-10.297 23-23 23-6.081 0-11.606-2.364-15.719-6.219 4.16 4.144 9.883 6.719 16.219 6.719 12.703 0 23-10.298 23-23 0-6.335-2.575-12.06-6.719-16.219z" style="opacity:.05"/>
 <path d="m41.28 8.781c3.712 4.085 5.969 9.514 5.969 15.469 0 12.703-10.297 23-23 23-5.954 0-11.384-2.256-15.469-5.969 4.113 3.854 9.637 6.219 15.719 6.219 12.703 0 23-10.298 23-23 0-6.081-2.364-11.606-6.219-15.719z" style="opacity:.1"/>
 <path d="m31.25 2.375c8.615 3.154 14.75 11.417 14.75 21.13 0 12.426-10.07 22.5-22.5 22.5-9.708 0-17.971-6.135-21.12-14.75a23 23 0 0 0 44.875-7 23 23 0 0 0-16-21.875z" style="opacity:.2"/>
 <circle cx="24" cy="24" r="23" style="fill:url(#bg)"/>
 <path d="m40.03 7.531c3.712 4.084 5.969 9.514 5.969 15.469 0 12.703-10.297 23-23 23-5.954 0-11.384-2.256-15.469-5.969 4.178 4.291 10.01 6.969 16.469 6.969 12.703 0 23-10.298 23-23 0-6.462-2.677-12.291-6.969-16.469z" style="opacity:.1"/>
 <path d="m11 21v8h8v-8zm10 0v8h8v-8zm10 0v8h8v-8zm-18 1h2c0.68647 0 1.3873 0.49746 1.4004 1.4004 0.0084 0.57681-0.27312 0.7524-0.40039 0.85938 0.6906 0.3145 1 0.92933 1 1.7402 0 1.108-0.892 2-2 2h-2zm10 0h2c0.68647 0 1.3873 0.49746 1.4004 1.4004 0.0084 0.57681-0.27312 0.7524-0.40039 0.85938 0.6906 0.3145 1 0.92933 1 1.7402 0 1.108-0.892 2-2 2h-2zm12.5 0c0.51916 0.0011 1.0315 0.10116 1.5 0.29297v1.1094c-0.43237-0.26048-0.95874-0.40167-1.5-0.40234-1.3807 0-2.5 0.89543-2.5 2s1.1193 2 2.5 2c0.54126-6.75e-4 1.0676-0.14186 1.5-0.40234v1.1094c-0.46846 0.1918-0.98084 0.29188-1.5 0.29297-1.933 0-3.5-1.3431-3.5-3s1.567-3 3.5-3zm-21.5 1v1h1c0.26801 0 0.5-0.223 0.5-0.5s-0.223-0.5-0.5-0.5zm10 0v1h1c0.26801 0 0.5-0.223 0.5-0.5s-0.223-0.5-0.5-0.5zm-10 2v2h1c0.554 0 1-0.446 1-1s-0.446-1-1-1zm10 0v2h1c0.554 0 1-0.446 1-1s-0.446-1-1-1z" style="opacity:.1;paint-order:stroke fill markers"/>
 <path d="m10 20v8h8v-8h-8zm10 0v8h8v-8h-8zm10 0v8h8v-8h-8zm-18 1h2c0.68647 0 1.3873 0.49746 1.4004 1.4004 0.0084 0.57681-0.27312 0.7524-0.40039 0.85938 0.6906 0.3145 1 0.92933 1 1.7402 0 1.108-0.892 2-2 2h-2v-6zm10 0h2c0.68647 0 1.3873 0.49746 1.4004 1.4004 0.0084 0.57681-0.27312 0.7524-0.40039 0.85938 0.6906 0.3145 1 0.92933 1 1.7402 0 1.108-0.892 2-2 2h-2v-6zm12.5 0c0.51916 0.0011 1.0315 0.10116 1.5 0.29297v1.1094c-0.43237-0.26048-0.95874-0.40167-1.5-0.40234-1.3807 0-2.5 0.89543-2.5 2s1.1193 2 2.5 2c0.54126-6.75e-4 1.0676-0.14186 1.5-0.40234v1.1094c-0.46846 0.1918-0.98084 0.29188-1.5 0.29297-1.933 0-3.5-1.3431-3.5-3s1.567-3 3.5-3zm-21.5 1v1h1c0.26801 0 0.5-0.223 0.5-0.5s-0.223-0.5-0.5-0.5h-1zm10 0v1h1c0.26801 0 0.5-0.223 0.5-0.5s-0.223-0.5-0.5-0.5h-1zm-10 2v2h1c0.554 0 1-0.446 1-1s-0.446-1-1-1h-1zm10 0v2h1c0.554 0 1-0.446 1-1s-0.446-1-1-1h-1z" style="fill:#f9f9f9;paint-order:stroke fill markers"/>
</svg>
