<svg version="1.1" viewBox="0 0 48 48" xmlns="http://www.w3.org/2000/svg">
 <defs>
  <linearGradient id="bg" x1="1" x2="47" gradientTransform="matrix(0 -1 1 0 -1.5e-6 48)" gradientUnits="userSpaceOnUse">
   <stop style="stop-color:#e4e4e4" offset="0"/>
   <stop style="stop-color:#eee" offset="1"/>
  </linearGradient>
 </defs>
 <path d="m36.31 5c5.859 4.062 9.688 10.831 9.688 18.5 0 12.426-10.07 22.5-22.5 22.5-7.669 0-14.438-3.828-18.5-9.688 1.037 1.822 2.306 3.499 3.781 4.969 4.085 3.712 9.514 5.969 15.469 5.969 12.703 0 23-10.298 23-23 0-5.954-2.256-11.384-5.969-15.469-1.469-1.475-3.147-2.744-4.969-3.781zm4.969 3.781c3.854 4.113 6.219 9.637 6.219 15.719 0 12.703-10.297 23-23 23-6.081 0-11.606-2.364-15.719-6.219 4.16 4.144 9.883 6.719 16.219 6.719 12.703 0 23-10.298 23-23 0-6.335-2.575-12.06-6.719-16.219z" style="opacity:.05"/>
 <path d="m41.28 8.781c3.712 4.085 5.969 9.514 5.969 15.469 0 12.703-10.297 23-23 23-5.954 0-11.384-2.256-15.469-5.969 4.113 3.854 9.637 6.219 15.719 6.219 12.703 0 23-10.298 23-23 0-6.081-2.364-11.606-6.219-15.719z" style="opacity:.1"/>
 <path d="m31.25 2.375c8.615 3.154 14.75 11.417 14.75 21.13 0 12.426-10.07 22.5-22.5 22.5-9.708 0-17.971-6.135-21.12-14.75a23 23 0 0 0 44.875-7 23 23 0 0 0-16-21.875z" style="opacity:.2"/>
 <path d="m24 1c12.703 0 23 10.297 23 23s-10.297 23-23 23-23-10.297-23-23 10.297-23 23-23z" style="fill:url(#bg)"/>
 <g transform="translate(1,1)">
  <g style="opacity:.1">
   <path transform="translate(-1,-1)" d="m18 13v8h-4c-1.105 0-2 0.895-2 2v4c0 1.105 0.895 2 2 2h4l-2 6c0 1.105 0.895 2 2 2h18v-8h-4.01v-8h4.01v-8h-18"/>
  </g>
 </g>
 <path d="m17 28c-1.105 0-2 0.895-2 2v4c0 1.105 0.895 2 2 2h18.004v-8z" style="fill:#de4b28"/>
 <path d="m31.465 29c-1.371 0-2.469 1.098-2.469 2.469v1.063c0 1.371 1.098 2.469 2.469 2.469h3.531v-6" style="fill:#ebddb7"/>
 <path d="m31.465 29c-0.809 0-1.52 0.402-1.969 1h5.5v-1m-5.938 2c-0.027 0.148-0.063 0.305-0.063 0.469v0.531h6v-1m-5.938 2c0.074 0.375 0.219 0.703 0.438 1h5.5v-1" style="fill:#e3cc92"/>
 <path d="m13 20c-1.105 0-2 0.895-2 2v4c0 1.105 0.895 2 2 2h17.998v-8z" style="fill:#dd7f2d"/>
 <path d="m27.465 21c-1.371 0-2.469 1.098-2.469 2.469v1.063c0 1.371 1.098 2.469 2.469 2.469h3.531v-6" style="fill:#ebddb7"/>
 <path d="m27.465 21c-0.809 0-1.52 0.402-1.969 1h5.5v-1m-5.938 2c-0.027 0.148-0.063 0.305-0.063 0.469v0.531h6v-1m-5.938 2c0.074 0.375 0.219 0.703 0.438 1h5.5v-1" style="fill:#e3cc92"/>
 <path d="m17 12c-1.105 0-2 0.895-2 2v4c0 1.105 0.895 2 2 2h18.004v-8z" style="fill:#537f95"/>
 <path d="m31.465 13c-1.371 0-2.469 1.098-2.469 2.469v1.063c0 1.371 1.098 2.469 2.469 2.469h3.531v-6" style="fill:#ebddb7"/>
 <path d="m31.465 13c-0.809 0-1.52 0.402-1.969 1h5.5v-1m-5.938 2c-0.027 0.148-0.063 0.305-0.063 0.469v0.531h6v-1m-5.938 2c0.074 0.375 0.219 0.703 0.438 1h5.5v-1" style="fill:#e3cc92"/>
 <path d="m40.03 7.531c3.712 4.084 5.969 9.514 5.969 15.469 0 12.703-10.297 23-23 23-5.954 0-11.384-2.256-15.469-5.969 4.178 4.291 10.01 6.969 16.469 6.969 12.703 0 23-10.298 23-23 0-6.462-2.677-12.291-6.969-16.469z" style="opacity:.1"/>
</svg>
