<svg xmlns="http://www.w3.org/2000/svg" viewBox="0 0 48 48">
 <defs>
  <linearGradient id="linearGradient3764" x1="1" x2="47" gradientUnits="userSpaceOnUse" gradientTransform="matrix(0,-1,1,0,-1.5e-6,47.999998)">
   <stop style="stop-color:#777575;stop-opacity:1"/>
   <stop offset="1" style="stop-color:#838181;stop-opacity:1"/>
  </linearGradient>
 </defs>
 <g>
  <path d="m 36.31 5 c 5.859 4.062 9.688 10.831 9.688 18.5 c 0 12.426 -10.07 22.5 -22.5 22.5 c -7.669 0 -14.438 -3.828 -18.5 -9.688 c 1.037 1.822 2.306 3.499 3.781 4.969 c 4.085 3.712 9.514 5.969 15.469 5.969 c 12.703 0 23 -10.298 23 -23 c 0 -5.954 -2.256 -11.384 -5.969 -15.469 c -1.469 -1.475 -3.147 -2.744 -4.969 -3.781 z m 4.969 3.781 c 3.854 4.113 6.219 9.637 6.219 15.719 c 0 12.703 -10.297 23 -23 23 c -6.081 0 -11.606 -2.364 -15.719 -6.219 c 4.16 4.144 9.883 6.719 16.219 6.719 c 12.703 0 23 -10.298 23 -23 c 0 -6.335 -2.575 -12.06 -6.719 -16.219 z" style="opacity:0.05"/>
  <path d="m 41.28 8.781 c 3.712 4.085 5.969 9.514 5.969 15.469 c 0 12.703 -10.297 23 -23 23 c -5.954 0 -11.384 -2.256 -15.469 -5.969 c 4.113 3.854 9.637 6.219 15.719 6.219 c 12.703 0 23 -10.298 23 -23 c 0 -6.081 -2.364 -11.606 -6.219 -15.719 z" style="opacity:0.1"/>
  <path d="m 31.25 2.375 c 8.615 3.154 14.75 11.417 14.75 21.13 c 0 12.426 -10.07 22.5 -22.5 22.5 c -9.708 0 -17.971 -6.135 -21.12 -14.75 a 23 23 0 0 0 44.875 -7 a 23 23 0 0 0 -16 -21.875 z" style="opacity:0.2"/>
 </g>
 <g>
  <path d="m 24 1 c 12.703 0 23 10.297 23 23 c 0 12.703 -10.297 23 -23 23 -12.703 0 -23 -10.297 -23 -23 0 -12.703 10.297 -23 23 -23 z" style="fill:url(#linearGradient3764);fill-opacity:1"/>
 </g>
 <g>
  <path d="m 40.03 7.531 c 3.712 4.084 5.969 9.514 5.969 15.469 0 12.703 -10.297 23 -23 23 c -5.954 0 -11.384 -2.256 -15.469 -5.969 4.178 4.291 10.01 6.969 16.469 6.969 c 12.703 0 23 -10.298 23 -23 0 -6.462 -2.677 -12.291 -6.969 -16.469 z" style="opacity:0.1"/>
 </g>
 <g transform="matrix(3.543307,0,0,3.543307,0.0023625,-1.0901135e-7)">
  <g transform="translate(0.28222228,2.0833333e-8)" style="opacity:0.1">
   <rect rx="0.1" y="4.516" x="4.798" height="0.282" width="2.258" style="fill:#000;fill-opacity:1;stroke:none"/>
   <rect width="3.387" height="0.282" x="4.798" y="5.08" rx="0.1" style="fill:#000;fill-opacity:1;stroke:none"/>
   <rect rx="0.1" y="5.644" x="4.798" height="0.282" width="4.516" style="fill:#000;fill-opacity:1;stroke:none"/>
   <path d="m 25,11 -12,8 0,14.285 C 13,34.999 13.005,35 14.783,35 l 0.002,0 20.443,0 c 1.777,0 1.771,0 1.771,-1.715 L 36.999,19 33.405,16.605 36.499,14 34.999,12.5 31.647,15.432 24.999,11 Z" transform="matrix(0.28222223,0,0,0.28222223,-0.28222228,-2.0833333e-8)" style="fill:#000;fill-opacity:1;stroke:none;fill-rule:nonzero"/>
  </g>
  <g>
   <path d="m 3.89 9.596 5.77 0 c 0.502 0 0.5 0 0.5 -0.484 l 0 -4.03 -3.387 -2.258 -3.387 2.258 0 4.03 c 0 0.484 0 0.484 0.504 0.484" style="fill:#4571d1;fill-opacity:1;stroke:none;fill-rule:nonzero"/>
   <path d="m 9.659 9.596 -5.77 0 c -0.503 0 -0.503 0 -0.503 -0.474 l 0 -4.04 6.773 4.04 c 0 0.474 0 0.474 -0.5 0.474" style="fill:#31b9f6;fill-opacity:1;stroke:none;fill-rule:nonzero"/>
   <path d="m 4.797 9.596 4.863 0 c 0.502 0 0.5 0 0.5 -0.474 l 0 -4.04 -6.491 4.516" style="fill:#82d4fa;fill-opacity:1;stroke:none;fill-rule:nonzero"/>
   <path d="M 3.387,5.08 6.774,2.822 10.161,5.08" style="fill:#3d65cb;fill-opacity:1;stroke:none"/>
   <path d="M 6.491,4.403 6.068,4.798 7.338,5.927 10.019,3.669 9.596,3.246 7.338,5.222" style="fill:#e2e2e2;fill-opacity:1;stroke:none"/>
  </g>
 </g>
</svg>
