<svg version="1.1" viewBox="0 0 48 48" xmlns="http://www.w3.org/2000/svg">
 <defs>
  <linearGradient id="bg" x1="1" x2="47" gradientTransform="matrix(0 -1 1 0 0 48)" gradientUnits="userSpaceOnUse">
   <stop style="stop-color:#f6e3be" offset="0"/>
   <stop style="stop-color:#f8ebd0" offset="1"/>
  </linearGradient>
 </defs>
 <path d="m36.31 5c5.859 4.062 9.688 10.83 9.688 18.5 0 12.43-10.07 22.5-22.5 22.5-7.669 0-14.44-3.828-18.5-9.688 1.037 1.822 2.306 3.499 3.781 4.969 4.085 3.712 9.514 5.969 15.47 5.969 12.7 0 23-10.3 23-23 0-5.954-2.256-11.38-5.969-15.47-1.469-1.475-3.147-2.744-4.969-3.781zm4.969 3.781c3.854 4.113 6.219 9.637 6.219 15.72 0 12.7-10.3 23-23 23-6.081 0-11.61-2.364-15.72-6.219 4.16 4.144 9.883 6.719 16.22 6.719 12.7 0 23-10.3 23-23 0-6.335-2.575-12.06-6.719-16.22z" style="opacity:.05"/>
 <path d="m41.28 8.781c3.712 4.085 5.969 9.514 5.969 15.47 0 12.7-10.3 23-23 23-5.954 0-11.38-2.256-15.47-5.969 4.113 3.854 9.637 6.219 15.72 6.219 12.7 0 23-10.3 23-23 0-6.081-2.364-11.61-6.219-15.72z" style="opacity:.1"/>
 <path d="m31.25 2.375c8.615 3.154 14.75 11.42 14.75 21.13 0 12.43-10.07 22.5-22.5 22.5-9.708 0-17.97-6.135-21.12-14.75a23 23 0 0 0 44.88-7 23 23 0 0 0-16-21.88z" style="opacity:.2"/>
 <path d="m24 1c12.7 0 23 10.3 23 23s-10.3 23-23 23-23-10.3-23-23 10.3-23 23-23z" style="fill:url(#bg)"/>
 <path d="m40.03 7.531c3.712 4.084 5.969 9.514 5.969 15.47 0 12.7-10.3 23-23 23-5.954 0-11.38-2.256-15.47-5.969 4.178 4.291 10.01 6.969 16.47 6.969 12.7 0 23-10.3 23-23 0-6.462-2.677-12.29-6.969-16.47z" style="opacity:.1"/>
 <path d="m16 21-4 8h10l4-8h-10zm11 0v8h1v-1c0.398 0.653 1 1 2 1s2.301-0.811 2.301-3-1.301-3-2.301-3-1.522 0.473-2 1v-3h-1zm8.5 2c-1.7 0-2.699 1.274-2.699 3s0.999 3 2.699 3c1.418 0 2.5-1 2.5-2h-1.199c-1e-3 0.471-0.44 1-1.188 1-0.891 0-1.613-0.533-1.613-2s0.722-2 1.613-2c0.724 0 1.188 0.541 1.188 1h1.199c0-1-1.082-2-2.5-2zm-6 1c0.828 0 1.5 0.686 1.5 2s-0.672 2-1.5 2-1.5-0.895-1.5-2 0.672-2 1.5-2z" style="opacity:.1"/>
 <path d="m15 20h10l-4 8h-10z" style="fill:#639daa"/>
 <path d="m26 20v8h1v-1c0.398 0.653 1 1 2 1s2.301-0.811 2.301-3-1.301-3-2.301-3-1.522 0.473-2 1v-3h-1zm8.5 2c-1.7 0-2.699 1.274-2.699 3s0.9992 3 2.699 3c1.418 0 2.5-1 2.5-2h-1.199c-1e-3 0.471-0.4395 1-1.188 1-0.891 0-1.613-0.533-1.613-2s0.7223-2 1.613-2c0.724 0 1.188 0.541 1.188 1h1.199c0-1-1.082-2-2.5-2zm-6 1c0.828 0 1.5 0.686 1.5 2s-0.672 2-1.5 2-1.5-0.895-1.5-2 0.672-2 1.5-2z" style="fill:#474747"/>
</svg>
