<svg version="1.1" viewBox="0 0 48 48" xmlns="http://www.w3.org/2000/svg">
 <defs>
  <linearGradient id="bg" x2="0" y1="1" y2="47" gradientUnits="userSpaceOnUse">
   <stop style="stop-color:#44cc73" offset="0"/>
   <stop style="stop-color:#36c668" offset="1"/>
  </linearGradient>
 </defs>
 <path d="m36.31 5c5.859 4.062 9.688 10.831 9.688 18.5 0 12.426-10.07 22.5-22.5 22.5-7.669 0-14.438-3.828-18.5-9.688 1.037 1.822 2.306 3.499 3.781 4.969 4.085 3.712 9.514 5.969 15.469 5.969 12.703 0 23-10.298 23-23 0-5.954-2.256-11.384-5.969-15.469-1.469-1.475-3.147-2.744-4.969-3.781zm4.969 3.781c3.854 4.113 6.219 9.637 6.219 15.719 0 12.703-10.297 23-23 23-6.081 0-11.606-2.364-15.719-6.219 4.16 4.144 9.883 6.719 16.219 6.719 12.703 0 23-10.298 23-23 0-6.335-2.575-12.06-6.719-16.219z" style="opacity:.05"/>
 <path d="m41.28 8.781c3.712 4.085 5.969 9.514 5.969 15.469 0 12.703-10.297 23-23 23-5.954 0-11.384-2.256-15.469-5.969 4.113 3.854 9.637 6.219 15.719 6.219 12.703 0 23-10.298 23-23 0-6.081-2.364-11.606-6.219-15.719z" style="opacity:.1"/>
 <path d="m31.25 2.375c8.615 3.154 14.75 11.417 14.75 21.13 0 12.426-10.07 22.5-22.5 22.5-9.708 0-17.971-6.135-21.12-14.75a23 23 0 0 0 44.875-7 23 23 0 0 0-16-21.875z" style="opacity:.2"/>
 <circle cx="24" cy="24" r="23" style="fill:url(#bg)"/>
 <path d="m40.03 7.531c3.712 4.084 5.969 9.514 5.969 15.469 0 12.703-10.297 23-23 23-5.954 0-11.384-2.256-15.469-5.969 4.178 4.291 10.01 6.969 16.469 6.969 12.703 0 23-10.298 23-23 0-6.462-2.677-12.291-6.969-16.469z" style="opacity:.1"/>
 <path d="m35.496 11c-0.04551-9e-5 -0.09074 0.0044-0.13477 0.01563l-20.361 4.9844c-0.554 0-1 0.446-1 1v1h-1c-0.554 0-1 0.446-1 1v15c0 0.554 0.446 1 1 1h24c0.554 0 1-0.446 1-1v-15c0-0.554-0.446-1-1-1h-21v-1l19.604-5.0137c0.28939-0.074 0.3893-0.31089 0.39648-0.54297 0.0069-0.22179-0.20521-0.44276-0.50391-0.44336z" style="opacity:.1"/>
 <path d="m34.497 10c-0.04551-9e-5 -0.09074 4e-3 -0.13477 0.0152l-20.362 4.9843c-0.554 0-1 0.446-1 1v2h2v-2l19.604-5.0137c0.28939-0.074 0.38872-0.31019 0.39591-0.54227 0.0069-0.22179-0.20463-0.44297-0.50333-0.44357z" style="fill:#e0dadb"/>
 <rect x="11" y="17" width="26" height="17" rx="1" style="fill:#463836"/>
 <circle cx="27.5" cy="26.5" r="1.5" style="fill:#8b7e7f"/>
 <circle cx="33.5" cy="26.5" r="1.5" style="fill:#8b7e7f"/>
 <rect x="26" y="19" width="9" height="4" style="fill:#f9f9f9"/>
 <path d="m28.5 20c-0.277 0-0.5 0.223-0.5 0.5v2.5h1v-2.5c0-0.277-0.223-0.5-0.5-0.5z" style="fill:#f14742"/>
 <rect x="26" y="29" width="3" height="3" style="fill:#8b7e7f"/>
 <rect x="29" y="29" width="3" height="3" style="fill:#c2b8b9"/>
 <rect x="32" y="29" width="3" height="3" style="fill:#8b7e7f"/>
 <circle cx="18.5" cy="25.5" r="5.5" style="fill:#ece7ea"/>
 <circle cx="18.5" cy="25.5" r="3.5" style="fill:#8b7e7f"/>
 <path d="m18.5 23c-0.277 0-0.5 0.223-0.5 0.5v4c0 0.277 0.223 0.5 0.5 0.5s0.5-0.223 0.5-0.5v-4c0-0.277-0.223-0.5-0.5-0.5zm-2 1c-0.277 0-0.5 0.223-0.5 0.5v2c0 0.277 0.223 0.5 0.5 0.5s0.5-0.223 0.5-0.5v-2c0-0.277-0.223-0.5-0.5-0.5zm4 0c-0.277 0-0.5 0.223-0.5 0.5v2c0 0.277 0.223 0.5 0.5 0.5s0.5-0.223 0.5-0.5v-2c0-0.277-0.223-0.5-0.5-0.5z" style="fill:#605353"/>
</svg>
