<svg version="1.1" viewBox="0 0 48 48" xmlns="http://www.w3.org/2000/svg">
 <defs>
  <linearGradient id="bg" x1="1" x2="47" gradientTransform="matrix(0 -1 1 0 -1.5e-6 48)" gradientUnits="userSpaceOnUse">
   <stop style="stop-color:#29363d" offset="0"/>
   <stop style="stop-color:#314049" offset="1"/>
  </linearGradient>
 </defs>
 <path d="m36.31 5c5.859 4.062 9.688 10.831 9.688 18.5 0 12.426-10.07 22.5-22.5 22.5-7.669 0-14.438-3.828-18.5-9.688 1.037 1.822 2.306 3.499 3.781 4.969 4.085 3.712 9.514 5.969 15.469 5.969 12.703 0 23-10.298 23-23 0-5.954-2.256-11.384-5.969-15.469-1.469-1.475-3.147-2.744-4.969-3.781zm4.969 3.781c3.854 4.113 6.219 9.637 6.219 15.719 0 12.703-10.297 23-23 23-6.081 0-11.606-2.364-15.719-6.219 4.16 4.144 9.883 6.719 16.219 6.719 12.703 0 23-10.298 23-23 0-6.335-2.575-12.06-6.719-16.219z" style="opacity:.05"/>
 <path d="m41.28 8.781c3.712 4.085 5.969 9.514 5.969 15.469 0 12.703-10.297 23-23 23-5.954 0-11.384-2.256-15.469-5.969 4.113 3.854 9.637 6.219 15.719 6.219 12.703 0 23-10.298 23-23 0-6.081-2.364-11.606-6.219-15.719z" style="opacity:.1"/>
 <path d="m31.25 2.375c8.615 3.154 14.75 11.417 14.75 21.13 0 12.426-10.07 22.5-22.5 22.5-9.708 0-17.971-6.135-21.12-14.75a23 23 0 0 0 44.875-7 23 23 0 0 0-16-21.875z" style="opacity:.2"/>
 <path d="m24 1c12.703 0 23 10.297 23 23s-10.297 23-23 23-23-10.297-23-23 10.297-23 23-23z" style="fill:url(#bg)"/>
 <path d="m40.03 7.531c3.712 4.084 5.969 9.514 5.969 15.469 0 12.703-10.297 23-23 23-5.954 0-11.384-2.256-15.469-5.969 4.178 4.291 10.01 6.969 16.469 6.969 12.703 0 23-10.298 23-23 0-6.462-2.677-12.291-6.969-16.469z" style="opacity:.1"/>
 <path d="m13 12c0 0.55228-0.44772 1-1 1s-1-0.44772-1-1l1-1c0.55228 0 1 0.44772 1 1z" style="fill:#cecdca;paint-order:normal"/>
 <path d="m13 12-1 1c0 0.55228 0.44772 1 1 1l2.5 2.5-1.5 1.5v2l1-1v-0.5l0.75-0.75 1.25 1.25v6c0 2.2717 0.56835 4.3414 1.4277 6.1797l-3.4277 3.8203-1 2 2-1 3.2656-3.2656c1.7098 2.8637 4.036 5.0281 5.7344 6.2656 1.6984-1.2378 4.0358-3.3908 5.7461-6.2539l3.2539 3.2539 2 1-1-2-3.4277-3.8203c0.85939-1.8382 1.4277-3.908 1.4277-6.1797v-6l1.25-1.25 0.75 0.75v0.5l1 1v-2l-1.5-1.5 2.5-2.5c0.55228 0 1-0.44772 1-1l-1-1c-0.55228 0-1 0.44772-1 1l-2.5 2.5-1.5-1.5h-2l1 1h0.5l0.76367 0.76367-1.4531 1.6191c-2.5889-0.79396-4.2226-1.5888-5.8105-2.3828-1.5879 0.79396-3.2217 1.5889-5.8105 2.3828l-1.4531-1.6191 0.76367-0.76367h0.5l1-1h-2l-1.5 1.5-2.5-2.5c0-0.55228-0.44772-1-1-1z" style="opacity:.1;paint-order:normal"/>
 <path d="m15.5 15.5 1-1 17.5 19.5 1 2c-4.5325-4-18.75-18-19.5-20.5z" style="fill:#e8e6e4;paint-order:normal"/>
 <path d="m13 12 3 3-1 1-3-3z" style="fill:#705d50;paint-order:normal"/>
 <path d="m14.5 16.5 1-1 19.5 20.5-2-1z" style="fill-opacity:.99608;fill:#b3aea9;paint-order:normal"/>
 <path d="m17 13-4 4v2l1-1v-0.5l3.5-3.5h0.5l1-1z" style="fill:#cecdca;paint-order:normal"/>
 <path d="m32.5 15.5-1-1-17.5 19.5-1 2c4.5325-4 18.75-18 19.5-20.5z" style="fill:#e8e6e4;paint-order:normal"/>
 <path d="m35 12c0 0.55228 0.44772 1 1 1s1-0.44772 1-1l-1-1c-0.55228 0-1 0.44772-1 1z" style="fill:#cecdca;paint-order:normal"/>
 <path d="m35 12-3 3 1 1 3-3z" style="fill:#705d50;paint-order:normal"/>
 <path d="m33.5 16.5-1-1-19.5 20.5 2-1z" style="fill-opacity:.99608;fill:#b3aea9;paint-order:normal"/>
 <path d="m31 13 4 4v2l-1-1v-0.5l-3.5-3.5h-0.5l-1-1z" style="fill:#cecdca;paint-order:normal"/>
 <path d="m30.73 17.359-7.4922 7.8789 7.5078 7.5078c0.28463-0.4765 0.54514-0.97713 0.78906-1.4922l-6.0488-6.7402 6.7344-6.7344c-0.5213-0.14024-1.0363-0.27969-1.4902-0.41992z" style="opacity:.1;paint-order:normal"/>
 <path d="m24 14c-2 1-4 2-8 3v7c0 6.7798 5 11.814 8 14 3-2.1865 8-7.2202 8-14v-7c-4-1-6-2-8-3z" style="fill:#f1ca6d;paint-order:normal"/>
 <path d="m24 15c-2 1.1864-4 1.75-7 2.75v6c0 6.373 4 10.525 7 13 3-2.4746 7-6.627 7-13v-6c-3-1-5-1.5636-7-2.75zm0 3.25s1.5763 0.75 4 1.75c0 7-1 10-4 13-3.2943-3-4-6-4-13 2.4237-1 4-1.75 4-1.75z" style="fill:#17366d;paint-order:normal"/>
</svg>
