<svg version="1.1" viewBox="0 0 48 48" xmlns="http://www.w3.org/2000/svg">
 <defs>
  <linearGradient id="bg" x2="0" y1="1" y2="47" gradientUnits="userSpaceOnUse">
   <stop style="stop-color:#777189" offset="0"/>
   <stop style="stop-color:#6c677d" offset="1"/>
  </linearGradient>
 </defs>
 <path d="m36.3 5c5.86 4.06 9.69 10.8 9.69 18.5 0 12.4-10.1 22.5-22.5 22.5-7.67 0-14.4-3.83-18.5-9.69 1.04 1.82 2.31 3.5 3.78 4.97 4.08 3.71 9.51 5.97 15.5 5.97 12.7 0 23-10.3 23-23 0-5.95-2.26-11.4-5.97-15.5-1.47-1.48-3.15-2.74-4.97-3.78zm4.97 3.78c3.85 4.11 6.22 9.64 6.22 15.7 0 12.7-10.3 23-23 23-6.08 0-11.6-2.36-15.7-6.22 4.16 4.14 9.88 6.72 16.2 6.72 12.7 0 23-10.3 23-23 0-6.34-2.58-12.1-6.72-16.2z" style="opacity:.05"/>
 <path d="m41.3 8.78c3.71 4.08 5.97 9.51 5.97 15.5 0 12.7-10.3 23-23 23-5.95 0-11.4-2.26-15.5-5.97 4.11 3.85 9.64 6.22 15.7 6.22 12.7 0 23-10.3 23-23 0-6.08-2.36-11.6-6.22-15.7z" style="opacity:.1"/>
 <path d="m31.2 2.38c8.62 3.15 14.8 11.4 14.8 21.1 0 12.4-10.1 22.5-22.5 22.5-9.71 0-18-6.14-21.1-14.8a23 23 0 0044.9-7 23 23 0 00-16-21.9z" style="opacity:.2"/>
 <circle cx="24" cy="24" r="23" style="fill:url(#bg)"/>
 <path d="m13 23c0 .554.446 1 1 1h9c.554 0 1-.446 1-1v-9c0-.554-.446-1-1-1-.0453-.0026-10 10-10 10zm13 0c0 .554.446 1 1 1h9c.554 0 1-.446 1-1v-9c0-.554-.446-1-1-1zm-13 13c0 .554.446 1 1 1h9c.554 0 1-.446 1-1v-9c0-.554-.446-1-1-1 0 0-9.82 10.1-10 10zm13 0c0 .554.446 1 1 1h9c.554 0 1-.446 1-1v-9c0-.554-.446-1-1-1-.112.33-10 10-10 10z" style="opacity:.1"/>
 <path d="m13 12c-.554 0-1 .446-1 1v9c0 .554.446 1 1 1h9c.554 0 1-.446 1-1v-9c0-.554-.446-1-1-1h-9zm13 0c-.554 0-1 .446-1 1v9c0 .554.446 1 1 1h9c.554 0 1-.446 1-1v-9c0-.554-.446-1-1-1h-9zm-13 13c-.554 0-1 .446-1 1v9c0 .554.446 1 1 1h9c.554 0 1-.446 1-1v-9c0-.554-.446-1-1-1h-9zm13 0c-.554 0-1 .446-1 1v9c0 .554.446 1 1 1h9c.554 0 1-.446 1-1v-9c0-.554-.446-1-1-1h-9z" style="fill:#f9f9f9"/>
 <path d="m40 7.53c3.71 4.08 5.97 9.51 5.97 15.5 0 12.7-10.3 23-23 23-5.95 0-11.4-2.26-15.5-5.97 4.18 4.29 10 6.97 16.5 6.97 12.7 0 23-10.3 23-23 0-6.46-2.68-12.3-6.97-16.5z" style="opacity:.1"/>
 <path d="m17.5 13a2.5 2.5 0 00-2.5 2.5 2.5 2.5 0 001.11 2.07l-.107.428c-1.66 0-3 1.34-3 3v1h9v-1c0-1.66-1.34-3-3-3l-.107-.428a2.5 2.5 0 001.11-2.07 2.5 2.5 0 00-2.5-2.5zm13 0a2.5 2.5 0 00-2.5 2.5 2.5 2.5 0 001.11 2.07l-.107.428c-1.66 0-3 1.34-3 3v1h9v-1c0-1.66-1.34-3-3-3l-.107-.428a2.5 2.5 0 001.11-2.07 2.5 2.5 0 00-2.5-2.5zm-13 13a2.5 2.5 0 00-2.5 2.5 2.5 2.5 0 001.11 2.07l-.107.428c-1.66 0-3 1.34-3 3v1h9v-1c0-1.66-1.34-3-3-3l-.107-.428a2.5 2.5 0 001.11-2.07 2.5 2.5 0 00-2.5-2.5zm13 0a2.5 2.5 0 00-2.5 2.5 2.5 2.5 0 001.11 2.07l-.107.428c-1.66 0-3 1.34-3 3v1h9v-1c0-1.66-1.34-3-3-3l-.107-.428a2.5 2.5 0 001.11-2.07 2.5 2.5 0 00-2.5-2.5z" style="fill:#1b62bb"/>
</svg>
