<svg version="1.1" viewBox="0 0 48 48" xmlns="http://www.w3.org/2000/svg">
 <defs>
  <linearGradient id="bg" x1="1" x2="47" gradientTransform="matrix(0 -1 1 0 -1.5e-6 48)" gradientUnits="userSpaceOnUse">
   <stop style="stop-color:#2e542a" offset="0"/>
   <stop style="stop-color:#356230" offset="1"/>
  </linearGradient>
 </defs>
 <path d="m36.31 5c5.859 4.062 9.688 10.831 9.688 18.5 0 12.426-10.07 22.5-22.5 22.5-7.669 0-14.438-3.828-18.5-9.688 1.037 1.822 2.306 3.499 3.781 4.969 4.085 3.712 9.514 5.969 15.469 5.969 12.703 0 23-10.298 23-23 0-5.954-2.256-11.384-5.969-15.469-1.469-1.475-3.147-2.744-4.969-3.781zm4.969 3.781c3.854 4.113 6.219 9.637 6.219 15.719 0 12.703-10.297 23-23 23-6.081 0-11.606-2.364-15.719-6.219 4.16 4.144 9.883 6.719 16.219 6.719 12.703 0 23-10.298 23-23 0-6.335-2.575-12.06-6.719-16.219z" style="opacity:.05"/>
 <path d="m41.28 8.781c3.712 4.085 5.969 9.514 5.969 15.469 0 12.703-10.297 23-23 23-5.954 0-11.384-2.256-15.469-5.969 4.113 3.854 9.637 6.219 15.719 6.219 12.703 0 23-10.298 23-23 0-6.081-2.364-11.606-6.219-15.719z" style="opacity:.1"/>
 <path d="m31.25 2.375c8.615 3.154 14.75 11.417 14.75 21.13 0 12.426-10.07 22.5-22.5 22.5-9.708 0-17.971-6.135-21.12-14.75a23 23 0 0 0 44.875-7 23 23 0 0 0-16-21.875z" style="opacity:.2"/>
 <path d="m24 1c12.703 0 23 10.297 23 23s-10.297 23-23 23-23-10.297-23-23 10.297-23 23-23z" style="fill:url(#bg)"/>
 <g transform="translate(1,1)">
  <g style="opacity:.1">
   <path transform="translate(-1,-1)" d="m34.189 12-2.4082 2.3574c3.756 3.6722 3.7868 9.6078 0.021484 13.287l2.4102 2.3555c5.066-4.953 5.0396-13.05-0.023438-18zm-2.4082 2.3574-0.001953-0.001953v0.003906l0.001953-0.001953zm-15.969-2.3379c-5.07 4.953-5.0864 13.01-0.023438 17.957l2.4102-2.3555c-3.758-3.676-3.7405-9.5641 0.021484-13.244l-2.4082-2.3574zm14.227 4.0547-1.3242 1.3027c2.063 2.027 2.0777 5.2991 0.011718 7.3301l1.3203 1.3027c2.777-2.73 2.7662-7.2005-0.007813-9.9355zm-10.078 0.02539c-2.777 2.727-2.7887 7.1802-0.011719 9.9062l1.3203-1.3086c-2.059-2.02-2.0513-5.2697 0.011719-7.3047l-1.3203-1.293zm5.0391 2.9043c-1.105 0-2 0.89409-2 1.9961 0 0.7404 0.40243 1.3839 1 1.7285l0.015625 14.271h-7.0156v2h16v-2h-7.0039l-0.015625-14.26c0.60841-0.3417 1.0195-0.99174 1.0195-1.7402 0-1.101-0.895-1.9961-2-1.9961z"/>
  </g>
 </g>
 <path d="m18.961 15.1c-2.777 2.727-2.789 7.18-0.012 9.906l1.32-1.309c-2.059-2.02-2.051-5.27 0.012-7.305m7.434-0.016c2.063 2.027 2.078 5.301 0.012 7.332l1.32 1.301c2.777-2.73 2.766-7.199-8e-3 -9.934" style="fill:#86d676"/>
 <path d="m14.813 11.02c-5.07 4.953-5.086 13.01-0.023 17.957l2.41-2.355c-3.758-3.676-3.742-9.566 0.02-13.246m13.559-0.02c3.758 3.672 3.789 9.609 0.023 13.289l2.41 2.355c5.066-4.953 5.04-13.05-0.023-18l-2.41 2.359" style="fill:#86d676"/>
 <path d="m24 18.004c-1.105 0-2 0.89409-2 1.9961 0 0.7404 0.40243 1.3839 1 1.7285l0.015625 14.271h-7.0156v2h16v-2h-7.0039l-0.015625-14.26c0.60841-0.3417 1.0195-0.99174 1.0195-1.7402 0-1.101-0.895-1.9961-2-1.9961z" style="fill:#eaeaea"/>
 <path d="m40.03 7.531c3.712 4.084 5.969 9.514 5.969 15.469 0 12.703-10.297 23-23 23-5.954 0-11.384-2.256-15.469-5.969 4.178 4.291 10.01 6.969 16.469 6.969 12.703 0 23-10.298 23-23 0-6.462-2.677-12.291-6.969-16.469z" style="opacity:.1"/>
</svg>
