<svg version="1.1" viewBox="0 0 48 48" xmlns="http://www.w3.org/2000/svg">
 <defs>
  <linearGradient id="linearGradient4209" x1="1" x2="47" gradientTransform="translate(-48)" gradientUnits="userSpaceOnUse">
   <stop style="stop-color:#467f34" offset="0"/>
   <stop style="stop-color:#4e8e3a" offset="1"/>
  </linearGradient>
 </defs>
 <path d="m36.31 5c5.859 4.062 9.688 10.831 9.688 18.5 0 12.426-10.07 22.5-22.5 22.5-7.669 0-14.438-3.828-18.5-9.688 1.037 1.822 2.306 3.499 3.781 4.969 4.085 3.712 9.514 5.969 15.469 5.969 12.703 0 23-10.298 23-23 0-5.954-2.256-11.384-5.969-15.469-1.469-1.475-3.147-2.744-4.969-3.781zm4.969 3.781c3.854 4.113 6.219 9.637 6.219 15.719 0 12.703-10.297 23-23 23-6.081 0-11.606-2.364-15.719-6.219 4.16 4.144 9.883 6.719 16.219 6.719 12.703 0 23-10.298 23-23 0-6.335-2.575-12.06-6.719-16.219z" style="opacity:.05"/>
 <path d="m41.28 8.781c3.712 4.085 5.969 9.514 5.969 15.469 0 12.703-10.297 23-23 23-5.954 0-11.384-2.256-15.469-5.969 4.113 3.854 9.637 6.219 15.719 6.219 12.703 0 23-10.298 23-23 0-6.081-2.364-11.606-6.219-15.719z" style="opacity:.1"/>
 <path d="m31.25 2.375c8.615 3.154 14.75 11.417 14.75 21.13 0 12.426-10.07 22.5-22.5 22.5-9.708 0-17.971-6.135-21.12-14.75a23 23 0 0 0 44.875-7 23 23 0 0 0-16-21.875z" style="opacity:.2"/>
 <circle transform="rotate(-90)" cx="-24" cy="24" r="23" style="fill:url(#linearGradient4209)"/>
 <path d="m40.03 7.531c3.712 4.084 5.969 9.514 5.969 15.469 0 12.703-10.297 23-23 23-5.954 0-11.384-2.256-15.469-5.969 4.178 4.291 10.01 6.969 16.469 6.969 12.703 0 23-10.298 23-23 0-6.462-2.677-12.291-6.969-16.469z" style="opacity:.1"/>
 <path d="m18.5 11c-1.5 0-2.5 11-2.5 18 0 2.095 0 7 1 7v-2c0.799 1.413 2.242 2.768 3.699 3.41-0.535 0.258-0.825 0.618-0.768 0.883 0.141 0.644 1.112-0.586 1.398 0.412 0.104 0.361 0.769 0.339 0.926 0.094 0.702-1.092 1.163 0.359 1.645-0.229 0.493-0.602 1.258-0.704 1.891-0.039 0.514 0.539 1-0.807 1.703 0.285 0.157 0.245 0.822 0.27 0.926-0.092 0.286-0.998 1.258 0.23 1.398-0.414 0.077-0.353-0.459-0.87-1.373-1.096 1.515-0.586 3.468-1.448 4.555-3.215v2c1 0 1-5 1-7 0-6-1-18-2.5-18-1 0-2 3-6.5 3s-5.5-3-6.5-3z" style="opacity:.1"/>
 <path d="m17.5 10c-1.5 0-2.5 11-2.5 18 0 2.095 0 7 1 7v-2c0.799 1.413 2.242 2.768 3.699 3.41-0.535 0.258-0.825 0.618-0.768 0.883 0.141 0.644 1.112-0.586 1.398 0.412 0.104 0.361 0.769 0.339 0.926 0.094 0.702-1.092 1.163 0.359 1.645-0.229 0.493-0.602 1.258-0.704 1.891-0.039 0.514 0.539 1-0.807 1.703 0.285 0.157 0.245 0.822 0.27 0.926-0.092 0.286-0.998 1.258 0.23 1.398-0.414 0.077-0.353-0.459-0.87-1.373-1.096 1.515-0.586 3.468-1.448 4.555-3.215v2c1 0 1-5 1-7 0-6-1-18-2.5-18-1 0-2 3-6.5 3s-5.5-3-6.5-3z" style="fill:#3d3d3d"/>
 <path d="m20.5 16.5c-1.657 0-3 1.343-3 3s1.343 3 3 3c0.828-1e-3 1.619-0.343 2.186-0.947 0.347 1.265 1.124 2.947 1.814 2.947 0.691 0 1.468-1.684 1.814-2.949 0.566 0.605 1.357 0.948 2.186 0.949 1.657 0 3-1.343 3-3s-1.343-3-3-3-3 1.343-3 3c0 0.305 0.047 0.609 0.139 0.9l-2.281 4e-3c0.094-0.292 0.142-0.597 0.143-0.904 0-1.657-1.343-3-3-3zm0 2c0.552 0 1 0.448 1 1s-0.448 1-1 1-1-0.448-1-1 0.448-1 1-1zm8 0c0.552 0 1 0.448 1 1s-0.448 1-1 1-1-0.448-1-1 0.448-1 1-1z" style="opacity:.1"/>
 <path d="m20 16a3 3 0 0 0-3 3 3 3 0 0 0 3 3 3 3 0 0 0 3-3 3 3 0 0 0-3-3zm0 2a1 1 0 0 1 1 1 1 1 0 0 1-1 1 1 1 0 0 1-1-1 1 1 0 0 1 1-1z" style="fill:#f9f9f9"/>
 <path d="m28 16a3 3 0 0 0-3 3 3 3 0 0 0 3 3 3 3 0 0 0 3-3 3 3 0 0 0-3-3zm0 2a1 1 0 0 1 1 1 1 1 0 0 1-1 1 1 1 0 0 1-1-1 1 1 0 0 1 1-1z" style="fill:#f9f9f9"/>
 <path d="m22 20c0 1 1.078 4 2 4s2-3 2-4z" style="fill:#f9f9f9"/>
</svg>
