<svg version="1.1" viewBox="0 0 48 48" xmlns="http://www.w3.org/2000/svg">
 <defs>
  <linearGradient id="bg" x1="1" x2="47" gradientTransform="matrix(0 -1 1 0 -1.5e-6 48)" gradientUnits="userSpaceOnUse">
   <stop style="stop-color:#e4e4e4" offset="0"/>
   <stop style="stop-color:#eee" offset="1"/>
  </linearGradient>
 </defs>
 <path d="m36.31 5c5.859 4.062 9.688 10.831 9.688 18.5 0 12.426-10.07 22.5-22.5 22.5-7.669 0-14.438-3.828-18.5-9.688 1.037 1.822 2.306 3.499 3.781 4.969 4.085 3.712 9.514 5.969 15.469 5.969 12.703 0 23-10.298 23-23 0-5.954-2.256-11.384-5.969-15.469-1.469-1.475-3.147-2.744-4.969-3.781zm4.969 3.781c3.854 4.113 6.219 9.637 6.219 15.719 0 12.703-10.297 23-23 23-6.081 0-11.606-2.364-15.719-6.219 4.16 4.144 9.883 6.719 16.219 6.719 12.703 0 23-10.298 23-23 0-6.335-2.575-12.06-6.719-16.219z" style="opacity:.05"/>
 <path d="m41.28 8.781c3.712 4.085 5.969 9.514 5.969 15.469 0 12.703-10.297 23-23 23-5.954 0-11.384-2.256-15.469-5.969 4.113 3.854 9.637 6.219 15.719 6.219 12.703 0 23-10.298 23-23 0-6.081-2.364-11.606-6.219-15.719z" style="opacity:.1"/>
 <path d="m31.25 2.375c8.615 3.154 14.75 11.417 14.75 21.13 0 12.426-10.07 22.5-22.5 22.5-9.708 0-17.971-6.135-21.12-14.75a23 23 0 0 0 44.875-7 23 23 0 0 0-16-21.875z" style="opacity:.2"/>
 <path d="m24 1c12.703 0 23 10.297 23 23s-10.297 23-23 23-23-10.297-23-23 10.297-23 23-23z" style="fill:url(#bg)"/>
 <path d="m24.501 6.9998-3.5 6h2c0 2.85 2.2077 4.5543 3.1504 5.0859 1.3578 0.76572 2.8188 0.79988 4.1523 1.6445l-1.0605 0.19922-0.70703 3.5352 3.5352-0.70703-0.70703-0.70703 0.7207-0.7207c1.057 1.3089 1.8633 4.6699 1.8633 4.6699l-0.94727-1-3 2 3 2-0.92969 2.2422-3.5352-0.70703 0.70703 3.5352-2.2422 0.92969-2-3-2 3 1 0.94336-4.6172-1.9121 0.66797-0.66797 0.70703 0.70703 0.70703-3.5352-3.5352 0.70703 0.03906 1.375c-1.0358-1.2947-1.7201-2.8814-1.9121-4.6172h0.94336v1l3-2-3-2-0.93945 1c0.19513-1.6901 0.86636-3.2844 1.9238-4.6016l0.65234 0.65234-0.70703 0.70703 3.5352 0.70703-0.70703-3.5352-0.70703 0.70703-2.6035-2.9629c-3.9953 3.2358-5.4854 8.6572-3.7051 13.48 1.7796 4.8228 6.4334 7.9764 11.572 7.8418 5.1393-0.13443 9.622-3.5277 11.146-8.4375 1.5246-4.9102-0.17185-10.354-4.4082-13.268-1.3088-0.90009-2.8395-1.0905-4.2031-1.6777-0.78933-0.33993-1.8496-1.4633-1.8496-2.6133h2zm0.5 16c-2.2091 0-4 1.7909-4 4s1.7909 4 4 4 4-1.7909 4-4-1.7909-4-4-4z" style="opacity:.1"/>
 <path d="m40.03 7.531c3.712 4.084 5.969 9.514 5.969 15.469 0 12.703-10.297 23-23 23-5.954 0-11.384-2.256-15.469-5.969 4.178 4.291 10.01 6.969 16.469 6.969 12.703 0 23-10.298 23-23 0-6.462-2.677-12.291-6.969-16.469z" style="opacity:.1"/>
 <path d="m23.501 5.9998-3.5 6h2c0 2.85 2.2077 4.5543 3.1504 5.0859 1.3578 0.76572 2.8188 0.79988 4.1523 1.6445 0.11274 0.0714 0.2204 0.14764 0.32812 0.22461l-0.68164 0.68164-0.70703-0.70703-0.70703 3.5352 3.5352-0.70703-0.70703-0.70703 0.7207-0.7207c1.057 1.3089 1.6867 2.958 1.8633 4.6699h-0.94727v-1l-3 2 3 2v-1h0.94336c-0.192 1.7358-0.87631 3.3225-1.9121 4.6172l-0.66797-0.66797 0.70703-0.70703-3.5352-0.70703 0.70703 3.5352 0.70703-0.70703 0.66797 0.66797c-1.2947 1.0358-2.8814 1.7201-4.6172 1.9121v-0.94336h1l-2-3-2 3h1v0.94336c-1.7358-0.192-3.3225-0.87631-4.6172-1.9121l0.66797-0.66797 0.70703 0.70703 0.70703-3.5352-3.5352 0.70703 0.70703 0.70703-0.66797 0.66797c-1.0358-1.2947-1.7201-2.8814-1.9121-4.6172h0.94336v1l3-2-3-2v1h-0.93945c0.19513-1.6901 0.86636-3.2844 1.9238-4.6016l0.65234 0.65234-0.70703 0.70703 3.5352 0.70703-0.70703-3.5352-0.70703 0.70703-2.6035-2.9629c-3.9953 3.2358-5.4854 8.6572-3.7051 13.48 1.7796 4.8228 6.4334 7.9764 11.572 7.8418 5.1393-0.13443 9.622-3.5277 11.146-8.4375 1.5246-4.9102-0.17185-10.354-4.4082-13.268-1.3088-0.90009-2.8395-1.0905-4.2031-1.6777-0.78933-0.33993-1.8496-1.4633-1.8496-2.6133h2z" style="fill:#137aaf"/>
 <circle cx="24.001" cy="26" r="4" style="fill:#e75555"/>
</svg>
