<svg xmlns="http://www.w3.org/2000/svg" viewBox="0 0 48 48">
 <defs>
  <linearGradient id="linearGradient3764" x1="1" x2="47" gradientUnits="userSpaceOnUse" gradientTransform="matrix(0,-1,1,0,-1.5e-6,47.999998)">
   <stop style="stop-color:#e4e4e4;stop-opacity:1"/>
   <stop offset="1" style="stop-color:#eee;stop-opacity:1"/>
  </linearGradient>
 </defs>
 <g>
  <path d="m 36.31 5 c 5.859 4.062 9.688 10.831 9.688 18.5 c 0 12.426 -10.07 22.5 -22.5 22.5 c -7.669 0 -14.438 -3.828 -18.5 -9.688 c 1.037 1.822 2.306 3.499 3.781 4.969 c 4.085 3.712 9.514 5.969 15.469 5.969 c 12.703 0 23 -10.298 23 -23 c 0 -5.954 -2.256 -11.384 -5.969 -15.469 c -1.469 -1.475 -3.147 -2.744 -4.969 -3.781 z m 4.969 3.781 c 3.854 4.113 6.219 9.637 6.219 15.719 c 0 12.703 -10.297 23 -23 23 c -6.081 0 -11.606 -2.364 -15.719 -6.219 c 4.16 4.144 9.883 6.719 16.219 6.719 c 12.703 0 23 -10.298 23 -23 c 0 -6.335 -2.575 -12.06 -6.719 -16.219 z" style="opacity:0.05"/>
  <path d="m 41.28 8.781 c 3.712 4.085 5.969 9.514 5.969 15.469 c 0 12.703 -10.297 23 -23 23 c -5.954 0 -11.384 -2.256 -15.469 -5.969 c 4.113 3.854 9.637 6.219 15.719 6.219 c 12.703 0 23 -10.298 23 -23 c 0 -6.081 -2.364 -11.606 -6.219 -15.719 z" style="opacity:0.1"/>
  <path d="m 31.25 2.375 c 8.615 3.154 14.75 11.417 14.75 21.13 c 0 12.426 -10.07 22.5 -22.5 22.5 c -9.708 0 -17.971 -6.135 -21.12 -14.75 a 23 23 0 0 0 44.875 -7 a 23 23 0 0 0 -16 -21.875 z" style="opacity:0.2"/>
 </g>
 <g>
  <path d="m 24 1 c 12.703 0 23 10.297 23 23 c 0 12.703 -10.297 23 -23 23 -12.703 0 -23 -10.297 -23 -23 0 -12.703 10.297 -23 23 -23 z" style="fill:url(#linearGradient3764);fill-opacity:1"/>
 </g>
 <g>
  <g>
   <g transform="translate(1,1)">
    <g style="opacity:0.1">
     <!-- color: #eeeeee -->
     <g>
      <path d="m 20.922 19.73 c 0 0 -0.371 -0.77 -0.5 -1.027 c -0.844 -1.711 -0.828 -1.797 -1.684 -1.914 c -0.242 -0.031 -0.367 -0.066 -0.367 -0.184 l 0 -0.539 l 0.07 -0.055 c 1.551 -0.004 4.992 -0.004 4.992 -0.004 l 0.133 0.047 l 0 0.539 c 0 0.125 -0.086 0.184 -0.262 0.184 l -0.363 0.055 c -0.914 0.07 -0.766 0.453 -0.156 1.684 l 5.77 11.988 l 0.199 0.055 l 5.121 -12.348 c 0.176 -0.496 0.148 -0.852 -0.078 -1.063 c -0.23 -0.199 -0.391 -0.32 -0.984 -0.348 l -0.484 -0.023 c -0.059 0 -0.113 -0.02 -0.168 -0.059 c -0.055 -0.039 -0.082 -0.09 -0.082 -0.148 l 0 -0.516 l 0.074 -0.055 c 1.441 0 5.785 0 5.785 0 l 0.063 0.055 l 0 0.516 c 0 0.137 -0.078 0.207 -0.234 0.207 c -0.758 0.035 -1.324 0.203 -1.684 0.5 c -0.367 0.301 -0.648 0.715 -0.855 1.25 c 0 0 -4.707 10.953 -6.32 14.594 c -0.617 1.191 -1.223 1.082 -1.758 -0.039 c -1.125 -2.355 -4.301 -9.508 -4.301 -9.508 l -1.93 -3.852 m 0.004 0.008" style="fill:#000;fill-opacity:1;stroke:none;fill-rule:nonzero"/>
      <path d="m 30.16 16 c 0 0 -3.258 -0.008 -4.707 0 l -0.07 0.055 l 0 0.512 c 0 0.066 0.027 0.113 0.078 0.152 c 0.055 0.039 0.109 0.063 0.168 0.063 l 0.234 0.027 c 0.59 0.023 0.863 0.184 0.945 0.285 c 0.141 0.172 0.211 0.363 -0.133 1.121 l -6.074 12.313 l -0.16 -0.043 c 0 0 -4.352 -9.32 -5.613 -12.438 c -0.129 -0.324 -0.191 -0.566 -0.191 -0.711 c 0 -0.313 0.281 -0.488 0.844 -0.512 l 0.656 -0.031 c 0.172 0 0.262 -0.066 0.262 -0.207 l 0 -0.516 l -0.063 -0.051 c 0 0 -5.211 -0.008 -6.289 0 l -0.059 0.051 l 0 0.539 c 0 0.098 0.121 0.156 0.363 0.184 c 0.664 0.039 1.098 0.145 1.309 0.324 c 0.211 0.18 0.43 0.637 0.723 1.352 c 1.586 3.859 4.945 10.75 6.582 14.676 c 0.469 1.07 1.063 1.234 1.781 -0.031 c 1.246 -2.352 4.625 -9.52 4.625 -9.52 l 2.66 -5.05 c 0.309 -0.535 0.609 -1.012 0.762 -1.234 c 0.277 -0.402 0.434 -0.48 1.191 -0.516 c 0.156 0 0.234 -0.074 0.234 -0.215 l 0 -0.512 l -0.059 -0.055 m 0 -0.012" style="fill:#000;fill-opacity:1;stroke:none;fill-rule:nonzero"/>
     </g>
    </g>
   </g>
  </g>
 </g>
 <g>
  <g>
   <!-- color: #eeeeee -->
   <g>
    <path d="m 20.922 19.73 c 0 0 -0.371 -0.77 -0.5 -1.027 c -0.844 -1.711 -0.828 -1.797 -1.684 -1.914 c -0.242 -0.031 -0.367 -0.066 -0.367 -0.184 l 0 -0.539 l 0.07 -0.055 c 1.551 -0.004 4.992 -0.004 4.992 -0.004 l 0.133 0.047 l 0 0.539 c 0 0.125 -0.086 0.184 -0.262 0.184 l -0.363 0.055 c -0.914 0.07 -0.766 0.453 -0.156 1.684 l 5.77 11.988 l 0.199 0.055 l 5.121 -12.348 c 0.176 -0.496 0.148 -0.852 -0.078 -1.063 c -0.23 -0.199 -0.391 -0.32 -0.984 -0.348 l -0.484 -0.023 c -0.059 0 -0.113 -0.02 -0.168 -0.059 c -0.055 -0.039 -0.082 -0.09 -0.082 -0.148 l 0 -0.516 l 0.074 -0.055 c 1.441 0 5.785 0 5.785 0 l 0.063 0.055 l 0 0.516 c 0 0.137 -0.078 0.207 -0.234 0.207 c -0.758 0.035 -1.324 0.203 -1.684 0.5 c -0.367 0.301 -0.648 0.715 -0.855 1.25 c 0 0 -4.707 10.953 -6.32 14.594 c -0.617 1.191 -1.223 1.082 -1.758 -0.039 c -1.125 -2.355 -4.301 -9.508 -4.301 -9.508 l -1.93 -3.852 m 0.004 0.008" style="fill:#2d2d2d;fill-opacity:1;stroke:none;fill-rule:nonzero"/>
    <path d="m 30.16 16 c 0 0 -3.258 -0.008 -4.707 0 l -0.07 0.055 l 0 0.512 c 0 0.066 0.027 0.113 0.078 0.152 c 0.055 0.039 0.109 0.063 0.168 0.063 l 0.234 0.027 c 0.59 0.023 0.863 0.184 0.945 0.285 c 0.141 0.172 0.211 0.363 -0.133 1.121 l -6.074 12.313 l -0.16 -0.043 c 0 0 -4.352 -9.32 -5.613 -12.438 c -0.129 -0.324 -0.191 -0.566 -0.191 -0.711 c 0 -0.313 0.281 -0.488 0.844 -0.512 l 0.656 -0.031 c 0.172 0 0.262 -0.066 0.262 -0.207 l 0 -0.516 l -0.063 -0.051 c 0 0 -5.211 -0.008 -6.289 0 l -0.059 0.051 l 0 0.539 c 0 0.098 0.121 0.156 0.363 0.184 c 0.664 0.039 1.098 0.145 1.309 0.324 c 0.211 0.18 0.43 0.637 0.723 1.352 c 1.586 3.859 4.945 10.75 6.582 14.676 c 0.469 1.07 1.063 1.234 1.781 -0.031 c 1.246 -2.352 4.625 -9.52 4.625 -9.52 l 2.66 -5.05 c 0.309 -0.535 0.609 -1.012 0.762 -1.234 c 0.277 -0.402 0.434 -0.48 1.191 -0.516 c 0.156 0 0.234 -0.074 0.234 -0.215 l 0 -0.512 l -0.059 -0.055 m 0 -0.012" style="fill:#2d2d2d;fill-opacity:1;stroke:none;fill-rule:nonzero"/>
   </g>
  </g>
 </g>
 <g>
  <path d="m 40.03 7.531 c 3.712 4.084 5.969 9.514 5.969 15.469 0 12.703 -10.297 23 -23 23 c -5.954 0 -11.384 -2.256 -15.469 -5.969 4.178 4.291 10.01 6.969 16.469 6.969 c 12.703 0 23 -10.298 23 -23 0 -6.462 -2.677 -12.291 -6.969 -16.469 z" style="opacity:0.1"/>
 </g>
</svg>
