<svg version="1.1" viewBox="0 0 48 48" xmlns="http://www.w3.org/2000/svg">
 <defs>
  <linearGradient id="bg" x2="0" y1="1" y2="47" gradientUnits="userSpaceOnUse">
   <stop style="stop-color:#924cb3" offset="0"/>
   <stop style="stop-color:#8646a4" offset="1"/>
  </linearGradient>
 </defs>
 <path d="m36.3 5c5.86 4.06 9.69 10.8 9.69 18.5 0 12.4-10.1 22.5-22.5 22.5-7.67 0-14.4-3.83-18.5-9.69 1.04 1.82 2.31 3.5 3.78 4.97 4.08 3.71 9.51 5.97 15.5 5.97 12.7 0 23-10.3 23-23 0-5.95-2.26-11.4-5.97-15.5-1.47-1.48-3.15-2.74-4.97-3.78zm4.97 3.78c3.85 4.11 6.22 9.64 6.22 15.7 0 12.7-10.3 23-23 23-6.08 0-11.6-2.36-15.7-6.22 4.16 4.14 9.88 6.72 16.2 6.72 12.7 0 23-10.3 23-23 0-6.34-2.58-12.1-6.72-16.2z" style="opacity:.05"/>
 <path d="m41.3 8.78c3.71 4.08 5.97 9.51 5.97 15.5 0 12.7-10.3 23-23 23-5.95 0-11.4-2.26-15.5-5.97 4.11 3.85 9.64 6.22 15.7 6.22 12.7 0 23-10.3 23-23 0-6.08-2.36-11.6-6.22-15.7z" style="opacity:.1"/>
 <path d="m31.2 2.38c8.62 3.15 14.8 11.4 14.8 21.1 0 12.4-10.1 22.5-22.5 22.5-9.71 0-18-6.14-21.1-14.8a23 23 0 0 0 44.9-7 23 23 0 0 0-16-21.9z" style="opacity:.2"/>
 <circle cx="24" cy="24" r="23" style="fill:url(#bg)"/>
 <path d="m40 7.53c3.71 4.08 5.97 9.51 5.97 15.5 0 12.7-10.3 23-23 23-5.95 0-11.4-2.26-15.5-5.97 4.18 4.29 10 6.97 16.5 6.97 12.7 0 23-10.3 23-23 0-6.46-2.68-12.3-6.97-16.5z" style="opacity:.1"/>
 <path d="m28 11a11 11 0 0 0-11 11 11 11 0 0 0 2.25 6.62l-1.31 1.31-0.707-0.707-3.5 3.5c-0.488 0.488-0.732 1.13-0.732 1.77s0.244 1.28 0.732 1.77c0.488 0.488 1.13 0.732 1.77 0.732s1.28-0.244 1.77-0.732l3.5-3.5-0.707-0.707 1.31-1.31a11 11 0 0 0 6.62 2.25 11 11 0 0 0 7.75-3.23l-3.35-1.12a8 8 0 0 1-4.4 1.35 8 8 0 0 1-8-8 8 8 0 0 1 8-8 8 8 0 0 1 8 8 8 8 0 0 1-1.35 4.4l1.12 3.35a11 11 0 0 0 3.23-7.75 11 11 0 0 0-11-11zm-5 7 1.5 9h1.5l2-6 2 6h1.5l1.5-9h-1.5l-1 6.5-2-6.5h-1l-2 6.5-1-6.5z" style="opacity:.1"/>
 <path d="m27 10a11 11 0 0 0-11 11 11 11 0 0 0 2.25 6.62l-1.31 1.31-0.707-0.707-3.5 3.5c-0.488 0.488-0.732 1.13-0.732 1.77s0.244 1.28 0.732 1.77c0.488 0.488 1.13 0.732 1.77 0.732s1.28-0.244 1.77-0.732l3.5-3.5-0.707-0.707 1.31-1.31a11 11 0 0 0 6.62 2.25 11 11 0 0 0 7.75-3.23l-3.35-1.12a8 8 0 0 1-4.4 1.35 8 8 0 0 1-8-8 8 8 0 0 1 8-8 8 8 0 0 1 8 8 8 8 0 0 1-1.35 4.4l1.12 3.35a11 11 0 0 0 3.23-7.75 11 11 0 0 0-11-11z" style="fill:#42b6f0"/>
 <path d="m23.5 17h-1.5l1.5 9h1.5l2-6 2 6h1.5l1.5-9h-1.5l-1 6.5-2-6.5h-1l-2 6.5z" style="fill:#3df5f5"/>
</svg>
