<svg xmlns="http://www.w3.org/2000/svg" viewBox="0 0 48 48">
 <path d="m 36.31,5 c 5.859,4.062 9.688,10.831 9.688,18.5 0,12.426 -10.07,22.5 -22.5,22.5 -7.669,0 -14.438,-3.828 -18.5,-9.688 1.037,1.822 2.306,3.499 3.781,4.969 4.085,3.712 9.514,5.969 15.469,5.969 12.703,0 23,-10.298 23,-23 0,-5.954 -2.256,-11.384 -5.969,-15.469 C 39.81,7.306 38.132,6.037 36.31,5 z m 4.969,3.781 c 3.854,4.113 6.219,9.637 6.219,15.719 0,12.703 -10.297,23 -23,23 -6.081,0 -11.606,-2.364 -15.719,-6.219 4.16,4.144 9.883,6.719 16.219,6.719 12.703,0 23,-10.298 23,-23 0,-6.335 -2.575,-12.06 -6.719,-16.219 z" style="opacity:0.05"/>
 <path d="m 41.28 8.781 c 3.712 4.085 5.969 9.514 5.969 15.469 0 12.703 -10.297 23 -23 23 -5.954 0 -11.384 -2.256 -15.469 -5.969 4.113 3.854 9.637 6.219 15.719 6.219 12.703 0 23 -10.298 23 -23 0 -6.081 -2.364 -11.606 -6.219 -15.719 z" style="opacity:0.1"/>
 <path d="M 24 1 C 11.297 1 1 11.297 1 24 L 24 24 L 24 1 z " style="fill:#f15119;fill-opacity:1;stroke:none;fill-rule:evenodd"/>
 <path d="M 31.25,2.375 C 39.865,5.529 46,13.792 46,23.505 c 0,12.426 -10.07,22.5 -22.5,22.5 -9.708,0 -17.971,-6.135 -21.12,-14.75 a 23,23 0 0 0 44.875,-7 23,23 0 0 0 -16,-21.875 z" style="opacity:0.2"/>
 <path d="M 24 1 L 24 24 L 47 24 C 47 11.297 36.703 1 24 1 z " style="fill:#7fcc28;fill-opacity:1;stroke:none;fill-rule:evenodd"/>
 <path d="m 1 24 c 0 12.703 10.297 23 23 23 l 0 -23 l -23 0 z" style="fill:#00abec;fill-opacity:1;stroke:none;fill-rule:evenodd"/>
 <path d="m 24 24 l 0 23 c 12.703 0 23 -10.297 23 -23 l -23 0 z" style="fill:#fbb909;fill-opacity:1;stroke:none;fill-rule:evenodd"/>
 <path d="m 33.406 13 c -0.961 0.016 -1.91 0.656 -2.063 1.844 c -0.242 1.902 1.579 1.188 3.03 1.188 c 1.453 0 1.929 3.086 1.563 4.75 c -0.216 0.989 -1.693 2.792 -4.688 3.25 l 0 -2.031 l -1.5 0 l 0 2.125 c -1.156 -0.004 -2.485 -0.205 -4 -0.656 l 0 -2.469 l -1.5 0 l 0 1.969 c -0.415 -0.159 -0.842 -0.334 -1.281 -0.531 c -7.195 -3.234 -10.781 1.07 -10.969 1.156 c 0.458 4.279 3.064 8.802 6.75 11.344 l 0 1.063 l 1.5 0 l 0 -0.156 c 1.248 0.627 2.6 0.99 4 1.094 l 0 0.063 l 1.5 0 l 0 -0.063 c 1.41 -0.109 2.745 -0.497 4 -1.125 l 0 0.188 l 1.5 0 l 0 -1.063 c 4.02 -2.754 6.75 -7.838 6.75 -12.656 c 0 -0.809 -0.102 -1.609 -0.25 -2.375 c -0.133 -0.391 -0.247 -0.804 -0.344 -1.156 c -0.176 -0.633 -0.391 -1.16 -0.563 -1.656 c -0.008 -0.016 0.008 -0.043 0 -0.063 c -0.688 -1.5 -1.648 -2.841 -2.844 -3.969 c -0.004 -0.008 -0.027 0.012 -0.031 0 c -0.188 -0.043 -0.371 -0.066 -0.563 -0.063 z" style="fill:#000;opacity:0.1;fill-opacity:1;stroke:none;fill-rule:nonzero"/>
 <path d="m 31.395 17.516 c 0 0.395 -0.328 0.715 -0.727 0.715 -0.402 0 -0.73 -0.32 -0.73 -0.715 0 -0.395 0.328 -0.711 0.73 -0.711 0.398 0 0.727 0.316 0.727 0.711 m 0 0" style="fill:#000;opacity:0.1;fill-opacity:1;stroke:none;fill-rule:nonzero"/>
 <path d="m 29.938 14.934 c 0 0.277 -0.23 0.504 -0.516 0.504 -0.285 0 -0.516 -0.227 -0.516 -0.504 0 -0.281 0.23 -0.508 0.516 -0.508 0.285 0 0.516 0.227 0.516 0.508 m 0 0" style="fill:#000;opacity:0.1;fill-opacity:1;stroke:none;fill-rule:nonzero"/>
 <path d="m 27.5 33.5 c 0 0.828 -1.117 1.5 -2.5 1.5 -1.383 0 -2.5 -0.672 -2.5 -1.5 0 -0.828 1.117 -1.5 2.5 -1.5 1.383 0 2.5 0.672 2.5 1.5 m 0 0" style="fill:#000;opacity:0.1;fill-opacity:1;stroke:none;fill-rule:nonzero"/>
 <path d="M 22,26.5 C 22,27.328 20.883,28 19.5,28 18.117,28 17,27.328 17,26.5 17,25.672 18.117,25 19.5,25 c 1.383,0 2.5,0.672 2.5,1.5 m 0,0" style="fill:#000;opacity:0.1;fill-opacity:1;stroke:none;fill-rule:nonzero"/>
 <path d="M 33,26.5 C 33,27.328 31.883,28 30.5,28 29.117,28 28,27.328 28,26.5 28,25.672 29.117,25 30.5,25 c 1.383,0 2.5,0.672 2.5,1.5 m 0,0" style="fill:#000;opacity:0.1;fill-opacity:1;stroke:none;fill-rule:nonzero"/>
 <path d="m 32.395 12 c -0.961 0.016 -1.91 0.656 -2.063 1.844 -0.242 1.902 1.578 1.188 3.03 1.188 1.453 0 1.941 3.09 1.574 4.754 -0.363 1.66 -4.227 5.59 -12.969 1.66 -7.195 -3.234 -10.789 1.074 -10.977 1.16 0.688 6.426 6.234 13.391 12.977 13.391 7.188 0 13.03 -7.68 13.03 -14.73 0 -0.809 -0.094 -1.609 -0.242 -2.375 -0.133 -0.391 -0.266 -0.777 -0.363 -1.129 -0.176 -0.633 -0.375 -1.168 -0.547 -1.664 -0.008 -0.016 0.008 -0.043 0 -0.063 -0.688 -1.5 -1.652 -2.852 -2.848 -3.98 -0.004 -0.008 -0.027 0.012 -0.031 0 -0.188 -0.043 -0.383 -0.063 -0.574 -0.059 m 0 0.004" style="fill:#8e0317;fill-opacity:1;stroke:none;fill-rule:nonzero"/>
 <path d="m 30.395 16.516 c 0 0.395 -0.328 0.715 -0.727 0.715 -0.402 0 -0.73 -0.32 -0.73 -0.715 0 -0.395 0.328 -0.711 0.73 -0.711 0.398 0 0.727 0.316 0.727 0.711 m 0 0" style="fill:#8e0317;fill-opacity:1;stroke:none;fill-rule:nonzero"/>
 <path d="m 28.938 13.934 c 0 0.277 -0.23 0.504 -0.516 0.504 -0.285 0 -0.516 -0.227 -0.516 -0.504 0 -0.281 0.23 -0.508 0.516 -0.508 0.285 0 0.516 0.227 0.516 0.508 m 0 0" style="fill:#8e0317;fill-opacity:1;stroke:none;fill-rule:nonzero"/>
 <path d="m 23.25 20 0 16 1.5 0 0 -16 m -1.5 0" style="fill:#f9f9f9;fill-opacity:1;stroke:none;fill-rule:nonzero"/>
 <path d="m 26.5 32.5 c 0 0.828 -1.117 1.5 -2.5 1.5 -1.383 0 -2.5 -0.672 -2.5 -1.5 0 -0.828 1.117 -1.5 2.5 -1.5 1.383 0 2.5 0.672 2.5 1.5 m 0 0" style="fill:#f9f9f9;fill-opacity:1;stroke:none;fill-rule:nonzero"/>
 <path d="m 19.25 35 0 -14 -1.5 0 0 14 m 1.5 0" style="fill:#f9f9f9;fill-opacity:1;stroke:none;fill-rule:nonzero"/>
 <path d="M 21,25.5 C 21,26.328 19.883,27 18.5,27 17.117,27 16,26.328 16,25.5 16,24.672 17.117,24 18.5,24 c 1.383,0 2.5,0.672 2.5,1.5 m 0,0" style="fill:#f9f9f9;fill-opacity:1;stroke:none;fill-rule:nonzero"/>
 <path d="m 30.25 35 0 -14 -1.5 0 0 14 m 1.5 0" style="fill:#f9f9f9;fill-opacity:1;stroke:none;fill-rule:nonzero"/>
 <path d="M 32,25.5 C 32,26.328 30.883,27 29.5,27 28.117,27 27,26.328 27,25.5 27,24.672 28.117,24 29.5,24 c 1.383,0 2.5,0.672 2.5,1.5 m 0,0" style="fill:#f9f9f9;fill-opacity:1;stroke:none;fill-rule:nonzero"/>
 <path d="m 40.03,7.531 c 3.712,4.084 5.969,9.514 5.969,15.469 0,12.703 -10.297,23 -23,23 C 17.045,46 11.615,43.744 7.53,40.031 11.708,44.322 17.54,47 23.999,47 c 12.703,0 23,-10.298 23,-23 0,-6.462 -2.677,-12.291 -6.969,-16.469 z" style="opacity:0.1"/>
</svg>
