<?xml version="1.0" encoding="UTF-8"?>
<svg version="1.1" viewBox="0 0 48 48" xmlns="http://www.w3.org/2000/svg">
 <defs>
  <linearGradient id="linearGradient3764" x1="1" x2="47" gradientTransform="matrix(0 -1 1 0 -1.5e-6 48)" gradientUnits="userSpaceOnUse">
   <stop stop-color="#b24432" offset="0"/>
   <stop stop-color="#c24936" offset="1"/>
  </linearGradient>
 </defs>
 <path d="m36.31 5c5.859 4.062 9.688 10.831 9.688 18.5 0 12.426-10.07 22.5-22.5 22.5-7.669 0-14.438-3.828-18.5-9.688 1.037 1.822 2.306 3.499 3.781 4.969 4.085 3.712 9.514 5.969 15.469 5.969 12.703 0 23-10.298 23-23 0-5.954-2.256-11.384-5.969-15.469-1.469-1.475-3.147-2.744-4.969-3.781zm4.969 3.781c3.854 4.113 6.219 9.637 6.219 15.719 0 12.703-10.297 23-23 23-6.081 0-11.606-2.364-15.719-6.219 4.16 4.144 9.883 6.719 16.219 6.719 12.703 0 23-10.298 23-23 0-6.335-2.575-12.06-6.719-16.219z" opacity=".05"/>
 <path d="m41.28 8.781c3.712 4.085 5.969 9.514 5.969 15.469 0 12.703-10.297 23-23 23-5.954 0-11.384-2.256-15.469-5.969 4.113 3.854 9.637 6.219 15.719 6.219 12.703 0 23-10.298 23-23 0-6.081-2.364-11.606-6.219-15.719z" opacity=".1"/>
 <path d="m31.25 2.375c8.615 3.154 14.75 11.417 14.75 21.13 0 12.426-10.07 22.5-22.5 22.5-9.708 0-17.971-6.135-21.12-14.75a23 23 0 0 0 44.875 -7 23 23 0 0 0 -16 -21.875z" opacity=".2"/>
 <path d="m24 1c12.703 0 23 10.297 23 23s-10.297 23-23 23-23-10.297-23-23 10.297-23 23-23z" fill="url(#linearGradient3764)"/>
 <path d="m40.03 7.531c3.712 4.084 5.969 9.514 5.969 15.469 0 12.703-10.297 23-23 23-5.954 0-11.384-2.256-15.469-5.969 4.178 4.291 10.01 6.969 16.469 6.969 12.703 0 23-10.298 23-23 0-6.462-2.677-12.291-6.969-16.469z" opacity=".1"/>
 <g transform="matrix(3.5433 0 0 3.5433 1 2)" opacity=".1">
  <path transform="matrix(.28222 0 0 .28222 -.28222 -.56444)" d="m14 16c-0.5 0-1 0.498-1 0.998h-2e-3v17.01h23.998v-14.932c0-0.531-0.5-1.066-1-1.066h-0.996c-2.987-0.016-6-8e-3 -9-8e-3l-1-1.998z"/>
 </g>
 <g>
  <path d="m12 16v14h23v-7l-1-6h-9l-1-2h-11c-0.5 0-1 0.5-1 1z" fill="#ff8f00"/>
  <rect x="14" y="18" width="11" height="4" fill="#fffdf0"/>
  <path d="m36 18.07v14.933h-24v-14h12l1-2h10c0.5 0 1 0.533 1 1.067z" fill="#ffca28"/>
  <g transform="matrix(.42296 0 0 .42296 13.852 14.849)" fill="#c79a18">
   <path d="m32.395 12.01c-0.961 0.02-1.91 0.648-2.063 1.844-0.242 1.902 1.578 1.188 3.03 1.188 1.453 0 1.941 3.09 1.574 4.754-0.363 1.664-4.227 5.59-12.969 1.664-7.195-3.234-10.789 1.07-10.977 1.156 0.688 6.426 6.234 13.391 12.977 13.391 7.188 0 13.03-7.68 13.03-14.73 0-0.809-0.094-1.609-0.242-2.375-0.133-0.391-0.266-0.777-0.363-1.129-0.176-0.633-0.375-1.168-0.547-1.664-8e-3 -0.016 8e-3 -0.043 0-0.059-0.688-1.5-1.652-2.852-2.848-3.98-4e-3 -0.012-0.027 8e-3 -0.031 0-0.188-0.047-0.383-0.063-0.574-0.063m0 4e-3"/>
   <path d="m30.395 16.527c0 0.395-0.328 0.715-0.727 0.715-0.402 0-0.73-0.32-0.73-0.715 0-0.391 0.328-0.711 0.73-0.711 0.398 0 0.727 0.32 0.727 0.711"/>
   <path d="m28.938 13.945c0 0.277-0.23 0.504-0.516 0.504-0.285 0-0.516-0.227-0.516-0.504 0-0.281 0.23-0.508 0.516-0.508 0.285 0 0.516 0.227 0.516 0.508"/>
  </g>
 </g>
</svg>
