<svg xmlns="http://www.w3.org/2000/svg" viewBox="0 0 48 48">
 <defs>
  <linearGradient id="linearGradient3764" x1="1" x2="47" gradientUnits="userSpaceOnUse" gradientTransform="matrix(0,-1,1,0,-1.5e-6,47.999998)">
   <stop style="stop-color:#2788bb;stop-opacity:1"/>
   <stop offset="1" style="stop-color:#2b94cb;stop-opacity:1"/>
  </linearGradient>
 </defs>
 <g>
  <path d="m 36.31 5 c 5.859 4.062 9.688 10.831 9.688 18.5 c 0 12.426 -10.07 22.5 -22.5 22.5 c -7.669 0 -14.438 -3.828 -18.5 -9.688 c 1.037 1.822 2.306 3.499 3.781 4.969 c 4.085 3.712 9.514 5.969 15.469 5.969 c 12.703 0 23 -10.298 23 -23 c 0 -5.954 -2.256 -11.384 -5.969 -15.469 c -1.469 -1.475 -3.147 -2.744 -4.969 -3.781 z m 4.969 3.781 c 3.854 4.113 6.219 9.637 6.219 15.719 c 0 12.703 -10.297 23 -23 23 c -6.081 0 -11.606 -2.364 -15.719 -6.219 c 4.16 4.144 9.883 6.719 16.219 6.719 c 12.703 0 23 -10.298 23 -23 c 0 -6.335 -2.575 -12.06 -6.719 -16.219 z" style="opacity:0.05"/>
  <path d="m 41.28 8.781 c 3.712 4.085 5.969 9.514 5.969 15.469 c 0 12.703 -10.297 23 -23 23 c -5.954 0 -11.384 -2.256 -15.469 -5.969 c 4.113 3.854 9.637 6.219 15.719 6.219 c 12.703 0 23 -10.298 23 -23 c 0 -6.081 -2.364 -11.606 -6.219 -15.719 z" style="opacity:0.1"/>
  <path d="m 31.25 2.375 c 8.615 3.154 14.75 11.417 14.75 21.13 c 0 12.426 -10.07 22.5 -22.5 22.5 c -9.708 0 -17.971 -6.135 -21.12 -14.75 a 23 23 0 0 0 44.875 -7 a 23 23 0 0 0 -16 -21.875 z" style="opacity:0.2"/>
 </g>
 <g>
  <path d="m 24 1 c 12.703 0 23 10.297 23 23 c 0 12.703 -10.297 23 -23 23 -12.703 0 -23 -10.297 -23 -23 0 -12.703 10.297 -23 23 -23 z" style="fill:url(#linearGradient3764);fill-opacity:1"/>
  <path d="m 34.656 12.969 c -9.316 0.141 -14.531 5.453 -17.281 10.625 c -2.516 4.734 -2.895 8.648 -2.969 9.406 l -11.578 0 c 0.291 0.685 0.615 1.351 0.969 2 l 11.391 0 c 0.285 0 0.563 -0.129 0.75 -0.344 c 0.105 -0.125 0.184 -0.276 0.219 -0.438 c 0.004 -0.043 0.004 -0.086 0 -0.125 c 0 0 0.469 -4.738 3 -9.5 c 2.363 -4.441 6.564 -8.734 14.06 -9.406 c -4.461 8.93 0.223 19.25 0.223 19.25 c 0.035 0.043 0.078 0.086 0.125 0.125 c 0.172 0.254 0.469 0.422 0.777 0.438 l 9.861 0 c 0.354 -0.649 0.677 -1.315 0.969 -2 l -10.08 0 c -0.383 -0.855 -4.695 -10.719 0.473 -18.5 c 0.133 -0.234 0.168 -0.523 0.094 -0.781 c -0.035 -0.16 -0.113 -0.313 -0.219 -0.438 c -0.199 -0.211 -0.492 -0.328 -0.781 -0.313 l -0.002 0 z" style="fill:#000;opacity:0.1;fill-opacity:1"/>
  <path d="m 33.656 11.969 c -9.316 0.141 -14.531 5.453 -17.281 10.625 c -2.516 4.734 -2.895 8.648 -2.969 9.406 l -10.975 0 c 0.253 0.683 0.537 1.35 0.852 2 l 10.904 0 c 0.285 0 0.563 -0.129 0.75 -0.344 c 0.105 -0.125 0.184 -0.276 0.219 -0.438 c 0.004 -0.043 0.004 -0.086 0 -0.125 c 0 0 0.469 -4.738 3 -9.5 c 2.363 -4.441 6.564 -8.734 14.06 -9.406 c -4.461 8.93 0.223 19.25 0.223 19.25 c 0.035 0.043 0.078 0.086 0.125 0.125 c 0.172 0.254 0.469 0.422 0.777 0.438 l 11.375 0 c 0.315 -0.65 0.598 -1.317 0.852 -2 l -11.477 0 c -0.383 -0.855 -4.695 -10.719 0.473 -18.5 c 0.133 -0.234 0.168 -0.523 0.094 -0.781 c -0.035 -0.16 -0.113 -0.313 -0.219 -0.438 c -0.199 -0.211 -0.492 -0.328 -0.781 -0.313 l -0.002 0 z" style="fill:#19536f;fill-opacity:1"/>
 </g>
 <g>
  <g>
   <g transform="translate(1,1)">
    <g style="opacity:0.1">
     <!-- color: #2b94cb -->
    </g>
   </g>
  </g>
 </g>
 <g>
  <g>
   <!-- color: #2b94cb -->
  </g>
 </g>
 <g>
  <path d="m 40.03 7.531 c 3.712 4.084 5.969 9.514 5.969 15.469 0 12.703 -10.297 23 -23 23 c -5.954 0 -11.384 -2.256 -15.469 -5.969 4.178 4.291 10.01 6.969 16.469 6.969 c 12.703 0 23 -10.298 23 -23 0 -6.462 -2.677 -12.291 -6.969 -16.469 z" style="opacity:0.1"/>
 </g>
</svg>
