<svg version="1.1" viewBox="0 0 48 48" xmlns="http://www.w3.org/2000/svg">
 <defs>
  <linearGradient id="bg" x2="0" y1="1" y2="47" gradientUnits="userSpaceOnUse">
   <stop style="stop-color:#6199f7" offset="0"/>
   <stop style="stop-color:#4d8cf6" offset="1"/>
  </linearGradient>
 </defs>
 <path d="m36.31 5c5.859 4.062 9.688 10.831 9.688 18.5 0 12.426-10.07 22.5-22.5 22.5-7.669 0-14.438-3.828-18.5-9.688 1.037 1.822 2.306 3.499 3.781 4.969 4.085 3.712 9.514 5.969 15.469 5.969 12.703 0 23-10.298 23-23 0-5.954-2.256-11.384-5.969-15.469-1.469-1.475-3.147-2.744-4.969-3.781zm4.969 3.781c3.854 4.113 6.219 9.637 6.219 15.719 0 12.703-10.297 23-23 23-6.081 0-11.606-2.364-15.719-6.219 4.16 4.144 9.883 6.719 16.219 6.719 12.703 0 23-10.298 23-23 0-6.335-2.575-12.06-6.719-16.219z" style="opacity:.05"/>
 <path d="m41.28 8.781c3.712 4.085 5.969 9.514 5.969 15.469 0 12.703-10.297 23-23 23-5.954 0-11.384-2.256-15.469-5.969 4.113 3.854 9.637 6.219 15.719 6.219 12.703 0 23-10.298 23-23 0-6.081-2.364-11.606-6.219-15.719z" style="opacity:.1"/>
 <path d="m31.25 2.375c8.615 3.154 14.75 11.417 14.75 21.13 0 12.426-10.07 22.5-22.5 22.5-9.708 0-17.971-6.135-21.12-14.75a23 23 0 0 0 44.875-7 23 23 0 0 0-16-21.875z" style="opacity:.2"/>
 <circle cx="24" cy="24" r="23" style="fill:url(#bg)"/>
 <path d="m40.03 7.531c3.712 4.084 5.969 9.514 5.969 15.469 0 12.703-10.297 23-23 23-5.954 0-11.384-2.256-15.469-5.969 4.178 4.291 10.01 6.969 16.469 6.969 12.703 0 23-10.298 23-23 0-6.462-2.677-12.291-6.969-16.469z" style="opacity:.1"/>
 <path d="m31.965 14.008c-0.95936-0.08704-2.0675 0.54435-2.334 1.459l-2.332 8.0059-1.7676-5.5078c-0.34341-1.0701-0.33933-1.0637-1.3652-0.85547l-3.166 0.64258c-1 0.20293-1.2754 1.248-1.2754 1.248l-1.7246 6-1.6895-5.0859c-0.34178-1.0284-0.34254-1.0286-1.3672-0.77148l-2.0488 0.51367c-1.0523 0.26406-1.0248 0.25854-0.68359 1.2871l3.416 10.285c0.34223 1.0286 0.34254 1.028 1.3672 1.4395l3.0723 1.2344c1.0246 0.41143 1.3672-0.61719 1.3672-0.61719l1.5449-6.2012 1.8691 5.873c0.34224 1.0708 0.34251 1.0701 1.3672 1.4277l4.0996 1.4277c1.0247 0.35658 1.0602 0.26418 1.3164-0.80664-0.0013 0.0054-0.0045 0.0065-0.0059 0.01172l0.0059-0.01758 4.3203-17.465c0.2557-1.0337-0.51259-2.4112-1.5371-2.7559l-2.0508-0.68945c-0.1281-0.04309-0.26139-0.0696-0.39844-0.08203z" style="opacity:.1"/>
 <path d="m14.626 30.229-3.4152-10.286c-0.34121-1.0286-0.36881-1.0216 0.68344-1.2857l2.0493-0.51429c1.0246-0.25714 1.0241-0.25695 1.3659 0.77143l1.6902 5.0857 3.433 8.2857s-0.34121 1.0286-1.3659 0.61714l-3.0739-1.2343c-1.0246-0.41143-1.0246-0.41143-1.3669-1.44z" style="fill:#f9f9f9"/>
 <path d="m30.48 34.456 0.15017-0.45574 4.3204-17.465c0.2557-1.0337-0.5125-2.4108-1.537-2.7555l-2.0494-0.68938c-1.0248-0.34474-2.4283 0.33243-2.7328 1.3777l-2.6312 9.0324 2 10.5z" style="fill:#cee0fd"/>
 <path d="m18.725 18-1.7251 6 2.7498 8.2856c0.05373 0.16191 0.19974 0.25849 0.34224 0.25839 0.14223-1.03e-4 0.30382-0.10835 0.34122-0.25839l1.5667-6.2856-2-9s-1 0.28921-1.2749 1z" style="fill:#cee0fd"/>
 <path d="m23.849 31.957-4.4399-13.957c-0.21669-0.60941-0.68359 0-0.68359 0s0.275-1.0455 1.275-1.2484l3.1661-0.64249c1.0259-0.20819 1.0225-0.21346 1.3659 0.85665l5.468 17.039c0.13569 0.42896 0.50992 0.484 0.63 0-0.25617 1.0708-0.29116 1.1647-1.3158 0.80816l-4.0987-1.4274c-1.0247-0.35765-1.0247-0.35765-1.3669-1.4285z" style="fill:#f9f9f9"/>
</svg>
