<svg version="1.1" viewBox="0 0 48 48" xmlns="http://www.w3.org/2000/svg">
 <defs>
  <linearGradient id="bg" x1="1" x2="47" gradientTransform="rotate(-90 24 24)" gradientUnits="userSpaceOnUse">
   <stop style="stop-color:#005b90" offset="0"/>
   <stop style="stop-color:#0067a4" offset="1"/>
  </linearGradient>
 </defs>
 <path d="m36.3 5c5.86 4.06 9.69 10.8 9.69 18.5 0 12.4-10.1 22.5-22.5 22.5-7.67 0-14.4-3.83-18.5-9.69 1.04 1.82 2.31 3.5 3.78 4.97 4.08 3.71 9.51 5.97 15.5 5.97 12.7 0 23-10.3 23-23 0-5.95-2.26-11.4-5.97-15.5-1.47-1.48-3.15-2.74-4.97-3.78zm4.97 3.78c3.85 4.11 6.22 9.64 6.22 15.7 0 12.7-10.3 23-23 23-6.08 0-11.6-2.36-15.7-6.22 4.16 4.14 9.88 6.72 16.2 6.72 12.7 0 23-10.3 23-23 0-6.34-2.58-12.1-6.72-16.2z" style="opacity:.05"/>
 <path d="m41.3 8.78c3.71 4.08 5.97 9.51 5.97 15.5 0 12.7-10.3 23-23 23-5.95 0-11.4-2.26-15.5-5.97 4.11 3.85 9.64 6.22 15.7 6.22 12.7 0 23-10.3 23-23 0-6.08-2.36-11.6-6.22-15.7z" style="opacity:.1"/>
 <path d="m31.2 2.38c8.62 3.15 14.8 11.4 14.8 21.1 0 12.4-10.1 22.5-22.5 22.5-9.71 0-18-6.14-21.1-14.8a23 23 0 0 0 44.9-7 23 23 0 0 0-16-21.9z" style="opacity:.2"/>
 <path d="m24 1c12.7 0 23 10.3 23 23s-10.3 23-23 23-23-10.3-23-23 10.3-23 23-23z" style="fill:url(#bg)"/>
 <path d="m25 10c-8.28 0-15 6.72-15 15s6.72 15 15 15 15-6.72 15-15-6.72-15-15-15m0 1c7.73 0 14 6.27 14 14s-6.27 14-14 14-14-6.27-14-14 6.27-14 14-14zm0 1.1c-4.54 0-8.53 2.36-10.8 5.9h4.82v1h-2l4.79 14 2.85-8.61-1.96-5.37h-1.68v-1h8v1h-2.28l4.67 13.8 1.7-5.16c2.05-6.23-1.75-6.89-1.66-9.98 0.051-1.54 1.17-2.21 2.3-2.17-2.3-2.12-5.36-3.41-8.72-3.41zm11.3 6.76c0.074 1.92-0.504 4.3-1.13 6.07l-4.02 11.4c4-2.2 6.71-6.44 6.71-11.3 0-2.22-0.563-4.32-1.56-6.14l-8e-3 -8e-3zm-23.1 0.789c-0.746 1.62-1.16 3.44-1.16 5.36 0 5.14 3.02 9.59 7.38 11.7l-6.22-17zm12 6.31-3.98 11.4c1.19 0.36 2.44 0.555 3.75 0.555 1.52 0 2.97-0.262 4.32-0.742l-4.1-11.2" style="opacity:.1"/>
 <path d="m24 9c-8.28 0-15 6.72-15 15s6.72 15 15 15 15-6.72 15-15-6.72-15-15-15zm0 1c7.73 0 14 6.27 14 14s-6.27 14-14 14-14-6.27-14-14 6.27-14 14-14zm0 1.1c-4.54 0-8.53 2.36-10.8 5.9h4.82v1h-2l4.79 14 2.85-8.61-1.96-5.37h-1.68v-1h8v1h-2.28l4.67 13.8 1.7-5.16c2.05-6.23-1.75-6.89-1.66-9.98 0.051-1.54 1.17-2.21 2.3-2.17-2.3-2.12-5.36-3.41-8.72-3.41zm11.3 6.76c0.074 1.92-0.504 4.3-1.13 6.07l-4.02 11.4c4-2.2 6.71-6.44 6.71-11.3 0-2.22-0.563-4.32-1.56-6.14l-8e-3 -8e-3zm-23.1 0.789c-0.746 1.62-1.16 3.44-1.16 5.36 0 5.14 3.02 9.59 7.38 11.7l-6.22-17zm12 6.31-3.98 11.4c1.19 0.36 2.44 0.555 3.75 0.555 1.52 0 2.97-0.262 4.32-0.742l-4.1-11.2z" style="fill:#f9f9f9"/>
 <path d="m40 7.53c3.71 4.08 5.97 9.51 5.97 15.5 0 12.7-10.3 23-23 23-5.95 0-11.4-2.26-15.5-5.97 4.18 4.29 10 6.97 16.5 6.97 12.7 0 23-10.3 23-23 0-6.46-2.68-12.3-6.97-16.5z" style="opacity:.1"/>
</svg>
