<svg version="1.1" viewBox="0 0 48 48" xmlns="http://www.w3.org/2000/svg">
 <defs>
  <linearGradient id="bg" x1="1" x2="47" gradientTransform="matrix(0 -1 1 0 -1.5e-6 48)" gradientUnits="userSpaceOnUse">
   <stop style="stop-color:#63bdf1" offset="0"/>
   <stop style="stop-color:#75c5f3" offset="1"/>
  </linearGradient>
 </defs>
 <path d="m36.3 5c5.86 4.06 9.69 10.8 9.69 18.5 0 12.4-10.1 22.5-22.5 22.5-7.67 0-14.4-3.83-18.5-9.69 1.04 1.82 2.31 3.5 3.78 4.97 4.08 3.71 9.51 5.97 15.5 5.97 12.7 0 23-10.3 23-23 0-5.95-2.26-11.4-5.97-15.5-1.47-1.48-3.15-2.74-4.97-3.78zm4.97 3.78c3.85 4.11 6.22 9.64 6.22 15.7 0 12.7-10.3 23-23 23-6.08 0-11.6-2.36-15.7-6.22 4.16 4.14 9.88 6.72 16.2 6.72 12.7 0 23-10.3 23-23 0-6.34-2.58-12.1-6.72-16.2z" style="opacity:.05"/>
 <path d="m41.3 8.78c3.71 4.08 5.97 9.51 5.97 15.5 0 12.7-10.3 23-23 23-5.95 0-11.4-2.26-15.5-5.97 4.11 3.85 9.64 6.22 15.7 6.22 12.7 0 23-10.3 23-23 0-6.08-2.36-11.6-6.22-15.7z" style="opacity:.1"/>
 <path d="m31.2 2.38c8.62 3.15 14.8 11.4 14.8 21.1 0 12.4-10.1 22.5-22.5 22.5-9.71 0-18-6.14-21.1-14.8a23 23 0 0 0 44.9-7 23 23 0 0 0-16-21.9z" style="opacity:.2"/>
 <path d="m24 1c-12.7 0-23 10.3-23 23 0 2.44 0.389 4.79 1.09 7l21.9 1 21.9-1c0.704-2.21 1.09-4.56 1.09-7 0-12.7-10.3-23-23-23z" style="fill:url(#bg)"/>
 <path d="m2.09 31c2.96 9.28 11.6 16 21.9 16s18.9-6.72 21.9-16h-43.8z" style="fill:#4d4d4d"/>
 <path d="m17.2 21-6.23 6.23c0 0.98 0.793 1.77 1.77 1.77h4.46c0.98 0 1.77-0.793 1.77-1.77v-4.46c0-0.977-0.793-1.77-1.77-1.77zm10 0-6.23 6.23c0 0.98 0.793 1.77 1.77 1.77h4.46c0.98 0 1.77-0.793 1.77-1.77v-4.46c0-0.977-0.793-1.77-1.77-1.77zm10 0-6.23 6.23c0 0.98 0.793 1.77 1.77 1.77h4.46c0.976 0 1.77-0.793 1.77-1.77v-4.46c0-0.977-0.796-1.77-1.77-1.77zm-13.2 14v3h-3v2h3v3h2v-3h3v-2h-3v-3h-2z" style="opacity:.1"/>
 <path d="m11.8 20c-0.977 0-1.77 0.793-1.77 1.77v4.46c0 0.98 0.793 1.77 1.77 1.77h4.46c0.98 0 1.77-0.793 1.77-1.77v-4.46c0-0.977-0.793-1.77-1.77-1.77h-4.46zm10 0c-0.977 0-1.77 0.793-1.77 1.77v4.46c0 0.98 0.793 1.77 1.77 1.77h4.46c0.98 0 1.77-0.793 1.77-1.77v-4.46c0-0.977-0.793-1.77-1.77-1.77h-4.46zm10 0c-0.98 0-1.77 0.793-1.77 1.77v4.46c0 0.98 0.793 1.77 1.77 1.77h4.46c0.976 0 1.77-0.793 1.77-1.77v-4.46c0-0.977-0.796-1.77-1.77-1.77h-4.46zm-8.77 14v3h-3v2h3v3h2v-3h3v-2h-3v-3h-2z" style="fill:#f9f9f9"/>
 <path d="m40 7.53c3.71 4.08 5.97 9.51 5.97 15.5 0 12.7-10.3 23-23 23-5.95 0-11.4-2.26-15.5-5.97 4.18 4.29 10 6.97 16.5 6.97 12.7 0 23-10.3 23-23 0-6.46-2.68-12.3-6.97-16.5z" style="opacity:.1"/>
</svg>
