<svg xmlns="http://www.w3.org/2000/svg" version="1.1" viewBox="0 0 48 48">
 <defs>
  <linearGradient id="linearGradient3764" y1="47" x2="0" y2="1" gradientUnits="userSpaceOnUse">
   <stop style="stop-color:#d6971e" offset="0"/>
   <stop style="stop-color:#e1a126" offset="1"/>
  </linearGradient>
 </defs>
 <path style="opacity:.05" d="m36.31 5c5.859 4.062 9.688 10.831 9.688 18.5 0 12.426-10.07 22.5-22.5 22.5-7.669 0-14.438-3.828-18.5-9.688 1.037 1.822 2.306 3.499 3.781 4.969 4.085 3.712 9.514 5.969 15.469 5.969 12.703 0 23-10.298 23-23 0-5.954-2.256-11.384-5.969-15.469-1.469-1.475-3.147-2.744-4.969-3.781zm4.969 3.781c3.854 4.113 6.219 9.637 6.219 15.719 0 12.703-10.297 23-23 23-6.081 0-11.606-2.364-15.719-6.219 4.16 4.144 9.883 6.719 16.219 6.719 12.703 0 23-10.298 23-23 0-6.335-2.575-12.06-6.719-16.219z"/>
 <path style="opacity:.1" d="m41.28 8.781c3.712 4.085 5.969 9.514 5.969 15.469 0 12.703-10.297 23-23 23-5.954 0-11.384-2.256-15.469-5.969 4.113 3.854 9.637 6.219 15.719 6.219 12.703 0 23-10.298 23-23 0-6.081-2.364-11.606-6.219-15.719z"/>
 <path style="opacity:.2" d="m31.25 2.375c8.615 3.154 14.75 11.417 14.75 21.13 0 12.426-10.07 22.5-22.5 22.5-9.708 0-17.971-6.135-21.12-14.75a23 23 0 0 0 44.875 -7 23 23 0 0 0 -16 -21.875z"/>
 <path style="fill:url(#linearGradient3764)" d="m7.799 7.678c-4.198 4.167-6.799 9.94-6.799 16.322 0 6.364 2.585 12.12 6.762 16.287l32.496-0.018c4.166-4.163 6.742-9.915 6.742-16.27 0-6.323-2.553-12.05-6.682-16.205l-32.52-0.117z"/>
 <path style="opacity:.1" d="m24 1c-6.326 0-12.05 2.555-16.213 6.688 2.52 2.482 3.331 3.279 6.709 6.611-2.773 2.722-4.496 6.508-4.496 10.701 0 4.163 1.697 7.929 4.436 10.646-2.547 2.531-3.275 3.256-5.639 5.605 4.054 3.575 9.373 5.748 15.203 5.748 6.348 0 12.09-2.571 16.256-6.729-2.072-2.068-3.143-3.136-4.662-4.652 2.722-2.715 4.406-6.47 4.406-10.619 0-4.108-1.654-7.826-4.328-10.535 2.985-2.991 3.791-3.817 5.602-5.643-4.215-4.793-10.388-7.822-17.273-7.822z"/>
 <path style="fill:#fcf8a6" d="m24 1c-6.321 0-12.04 2.551-16.201 6.678 5.952 5.861 13.07 12.875 16.432 16.232 7.896-7.881 12.556-12.559 16.09-16.12-4.167-4.195-9.938-6.795-16.318-6.795z"/>
 <path style="fill:#e8c55b" d="m24.05 24.1c-3.724 3.714-10.409 10.35-16.289 16.189 4.16 4.148 9.899 6.713 16.238 6.713 6.349 0 12.1-2.572 16.258-6.73-2.074-2.068-1.137-1.131-16.207-16.17z"/>
 <g transform="translate(1,1)">
  <g style="opacity:.1">
   <path d="m30 18l-3-1h6m-3 1"/>
  </g>
 </g>
 <path style="fill:#ddb343" d="m39 24c0 8.285-6.715 15-15 15s-15-6.715-15-15 6.715-15 15-15 15 6.715 15 15"/>
 <path style="fill:#2d2d2d" d="m37 24c0 7.182-5.822 13-13.002 13-7.176 0-12.998-5.818-12.998-13s5.822-13 12.998-13c7.18 0 13.002 5.818 13.002 13"/>
 <path style="fill:#f9df5b" d="m15 17c1.0186 0.29914 2.2948 0.12629 3 1 1.4621 4.5257 1.859 9.149 2.75 13.727l-2.75 1.273 1-2-3-12"/>
 <path style="fill:#a54c1b" d="m20.699 31.699h0.801l1.5 1.301h-5m2.699-1.301"/>
 <path style="fill:#d59326" d="m21.5 31.699c0.232-1.566 0.698-3.133 0.5-4.699l-2-8 1-2c-1.1812 0.24493-2.4732 0.43584-3 1l2.699 13.699"/>
 <path style="fill:#fae360" d="m24 17-2 10-0.5 4.699 2.801-10.922m-0.301-3.777"/>
 <path style="fill:#bf6f1f" d="m24 17 2 10c1.9674 1.5663 0.52859 3.1327 0.5 4.699-1.121-3.094-1.989-6.605-2.504-10.699"/>
 <path style="fill:#d59326" d="m23 33-1.5-1.301 2.5-10.699v5l-1.301 5.699m0.301 1.301"/>
 <path style="fill:#b4621f" d="m33 17-3 0.46875c-1.292 4.704-2.24 9.442-2.699 14.23 0.05 0.706 1.397 0.996 2.699 1.301l-1-2 3-12"/>
 <path style="fill:#a64d1a" d="m27.301 31.699h-0.801l-1.5 1.301h5m-2.699-1.301"/>
 <path style="fill:#f3cf45" d="m26.5 31.699-0.5-4.699 2-8-1-2c1.4198 0.1481 2.6388 0.38482 3 1l-2.699 13.699"/>
 <path style="fill:#f8d24b" d="m25 33 1.5-1.301-2.5-10.699v5l1.301 5.699m-0.301 1.301"/>
 <path style="fill:#fffbce" d="m18 18 3-1h-6"/>
 <path style="fill:#fcefa2" d="m30 18-3-1h6m-3 1"/>
 <path style="opacity:.1" d="m40.03 7.531c3.712 4.084 5.969 9.514 5.969 15.469 0 12.703-10.297 23-23 23-5.954 0-11.384-2.256-15.469-5.969 4.178 4.291 10.01 6.969 16.469 6.969 12.703 0 23-10.298 23-23 0-6.462-2.677-12.291-6.969-16.469z"/>
</svg>
