<svg version="1.1" viewBox="0 0 48 48" xmlns="http://www.w3.org/2000/svg">
 <defs>
  <linearGradient id="linearGradient874" x2="0" y1="47" y2="1" gradientUnits="userSpaceOnUse">
   <stop style="stop-color:#4c4c4c" offset="0"/>
   <stop style="stop-color:#575757" offset="1"/>
  </linearGradient>
 </defs>
 <path d="m36.31 5c5.859 4.062 9.688 10.831 9.688 18.5 0 12.426-10.07 22.5-22.5 22.5-7.669 0-14.438-3.828-18.5-9.688 1.037 1.822 2.306 3.499 3.781 4.969 4.085 3.712 9.514 5.969 15.469 5.969 12.703 0 23-10.298 23-23 0-5.954-2.256-11.384-5.969-15.469-1.469-1.475-3.147-2.744-4.969-3.781zm4.969 3.781c3.854 4.113 6.219 9.637 6.219 15.719 0 12.703-10.297 23-23 23-6.081 0-11.606-2.364-15.719-6.219 4.16 4.144 9.883 6.719 16.219 6.719 12.703 0 23-10.298 23-23 0-6.335-2.575-12.06-6.719-16.219z" style="opacity:.05"/>
 <path d="m41.28 8.781c3.712 4.085 5.969 9.514 5.969 15.469 0 12.703-10.297 23-23 23-5.954 0-11.384-2.256-15.469-5.969 4.113 3.854 9.637 6.219 15.719 6.219 12.703 0 23-10.298 23-23 0-6.081-2.364-11.606-6.219-15.719z" style="opacity:.1"/>
 <path d="m31.25 2.375c8.615 3.154 14.75 11.417 14.75 21.13 0 12.426-10.07 22.5-22.5 22.5-9.708 0-17.971-6.135-21.12-14.75a23 23 0 0 0 44.875-7 23 23 0 0 0-16-21.875z" style="opacity:.2"/>
 <path d="m1 24c0-12.703 10.297-23 23-23s23 10.297 23 23-10.297 23-23 23-23-10.297-23-23z" style="fill:url(#linearGradient874)"/>
 <path d="m40.03 7.531c3.712 4.084 5.969 9.514 5.969 15.469 0 12.703-10.297 23-23 23-5.954 0-11.384-2.256-15.469-5.969 4.178 4.291 10.01 6.969 16.469 6.969 12.703 0 23-10.298 23-23 0-6.462-2.677-12.291-6.969-16.469z" style="opacity:.1"/>
 <path d="m31 12.999 0.0039 13 2e-3 0.0039-0.0039-2e-3 2e-3 -0.0019h-12.004v-12.966l-5 3.967v15l5 4 5.998-4.998 2e-3 2e-3 2e-3 -2e-3 5.998 4.998 5-4v-15.031z" style="opacity:.1"/>
 <path d="m13 16v13c2.8937-0.41306 4.2997-1.5747 5-4v-12.968z" style="fill:#54e8c9"/>
 <path d="m13 29v2l5 4c0.85472-3.2977 1.1368-6.6193 0-10z" style="fill:#35bdcd"/>
 <path d="m35 15.968v13.032c-2.6425-0.11189-4.3534-1.3884-4.9961-4l-4e-3 -13z" style="fill:#efa9e7"/>
 <path d="m35 29v2l-5 4c-1.5377-3.3864-0.83285-6.6954 0-10z" style="fill:#994fe7"/>
 <path d="m24 30-6 5v-10c2.8285 0.27697 5.6898 0.49891 6 5z" style="fill:#98e6ff"/>
 <path d="m24 30 6 5v-10c-3.6773-0.3955-6.2632 0.55086-6 5z" style="fill:#98a4ff"/>
 <path d="m18 25 6 5.004 6.004-5.004-6.004-5-6 5" style="fill:#8bb7f0"/>
</svg>
