<svg version="1.1" viewBox="0 0 48 48" xmlns="http://www.w3.org/2000/svg">
 <defs>
  <linearGradient id="bg" x1="1" x2="47" gradientTransform="matrix(0 -1 1 0 -1.5e-6 48)" gradientUnits="userSpaceOnUse">
   <stop style="stop-color:#586472" offset="0"/>
   <stop style="stop-color:#616e7d" offset="1"/>
  </linearGradient>
 </defs>
 <path d="m36.31 5c5.859 4.062 9.688 10.831 9.688 18.5 0 12.426-10.07 22.5-22.5 22.5-7.669 0-14.438-3.828-18.5-9.688 1.037 1.822 2.306 3.499 3.781 4.969 4.085 3.712 9.514 5.969 15.469 5.969 12.703 0 23-10.298 23-23 0-5.954-2.256-11.384-5.969-15.469-1.469-1.475-3.147-2.744-4.969-3.781zm4.969 3.781c3.854 4.113 6.219 9.637 6.219 15.719 0 12.703-10.297 23-23 23-6.081 0-11.606-2.364-15.719-6.219 4.16 4.144 9.883 6.719 16.219 6.719 12.703 0 23-10.298 23-23 0-6.335-2.575-12.06-6.719-16.219z" style="opacity:.05"/>
 <path d="m41.28 8.781c3.712 4.085 5.969 9.514 5.969 15.469 0 12.703-10.297 23-23 23-5.954 0-11.384-2.256-15.469-5.969 4.113 3.854 9.637 6.219 15.719 6.219 12.703 0 23-10.298 23-23 0-6.081-2.364-11.606-6.219-15.719z" style="opacity:.1"/>
 <path d="m31.25 2.375c8.615 3.154 14.75 11.417 14.75 21.13 0 12.426-10.07 22.5-22.5 22.5-9.708 0-17.971-6.135-21.12-14.75a23 23 0 0 0 44.875-7 23 23 0 0 0-16-21.875z" style="opacity:.2"/>
 <path d="m24 1c12.703 0 23 10.297 23 23s-10.297 23-23 23-23-10.297-23-23 10.297-23 23-23z" style="fill:url(#bg)"/>
 <path d="m40.03 7.531c3.712 4.084 5.969 9.514 5.969 15.469 0 12.703-10.297 23-23 23-5.954 0-11.384-2.256-15.469-5.969 4.178 4.291 10.01 6.969 16.469 6.969 12.703 0 23-10.298 23-23 0-6.462-2.677-12.291-6.969-16.469z" style="opacity:.1"/>
 <path d="m17 11c-0.554 0-1 0.446-1 1v1h-2v24h22v-24h-2v-1c0-0.554-0.446-1-1-1s-1 0.446-1 1v1h-2v-1c0-0.554-0.446-1-1-1s-1 0.446-1 1v1h-2v-1c0-0.554-0.446-1-1-1s-1 0.446-1 1v1h-2v-1c0-0.554-0.446-1-1-1s-1 0.446-1 1v1h-2v-1c0-0.554-0.446-1-1-1z" style="fill-opacity:.098"/>
 <rect x="13" y="12" width="22" height="24" style="fill:#efebe9"/>
 <path d="m15.1 12v1.199c0 0.665 0.534 1.201 1.199 1.201s1.199-0.536 1.199-1.201v-1.199h-2.398m4 0v1.199c0 0.665 0.534 1.201 1.199 1.201s1.199-0.536 1.199-1.201v-1.199h-2.398m4 0v1.199c0 0.665 0.534 1.201 1.199 1.201s1.199-0.536 1.199-1.201v-1.199h-2.398m4 0v1.199c0 0.665 0.534 1.201 1.199 1.201s1.199-0.536 1.199-1.201v-1.199h-2.398m4 0v1.199c0 0.665 0.534 1.201 1.199 1.201s1.199-0.536 1.199-1.201v-1.199h-2.398" style="opacity:.1"/>
 <rect x="15" y="10" width="2" height="4" rx="1" style="fill:#a6a6a6"/>
 <path d="m16 17v1h15v-1h-15zm0 3v1h11v-1h-11zm0 3v1h16v-1h-16zm0 3v1h10v-1h-10z" style="fill:#808080"/>
 <path d="m32.618 16.196-14.647 15.502-1.9728 3.4979 3.3514-2.1368 14.647-15.501z" style="fill-opacity:.098"/>
 <rect transform="matrix(.71196 .70222 -.6868 .72685 0 0)" x="33.426" y="-8.4783" width="1.9373" height="18.419" style="fill:#3b6dad"/>
 <path d="m31.617 15.195-1.33 1.41 1.379 1.361 1.332-1.41z" style="fill:#c83737"/>
 <path d="m16.971 30.698 1.3793 1.3604-3.3528 2.1382z" style="fill:#efdc90"/>
 <rect transform="matrix(.71196 .70222 -.6868 .72685 0 0)" x="33.426" y="-9.4477" width="1.9373" height=".9694" style="fill:#d7e3f4"/>
 <rect transform="matrix(.71196 .70222 -.6868 .72685 0 0)" x="34.395" y="-8.4783" width=".96867" height="18.419" style="fill:#2c4f92"/>
 <path d="m16.687 33.14-1.6895 1.0562 0.99226-1.7439c0.24345 0.24012 0.4531 0.44691 0.69655 0.68702z" style="fill:#212121"/>
 <rect x="19" y="10" width="2" height="4" rx="1" style="fill:#a6a6a6"/>
 <rect x="27" y="10" width="2" height="4" rx="1" style="fill:#a6a6a6"/>
 <rect x="31" y="10" width="2" height="4" rx="1" style="fill:#a6a6a6"/>
 <rect x="23" y="10" width="2" height="4" rx="1" style="fill:#a6a6a6"/>
</svg>
