<svg xmlns="http://www.w3.org/2000/svg" viewBox="0 0 48 48">
 <defs>
  <linearGradient id="linearGradient4252" x1="-47" x2="-1" gradientUnits="userSpaceOnUse">
   <stop style="stop-color:#104e2b;stop-opacity:1"/>
   <stop offset="1" style="stop-color:#135f34;stop-opacity:1"/>
  </linearGradient>
 </defs>
 <g>
  <path d="m 36.31 5 c 5.859 4.062 9.688 10.831 9.688 18.5 c 0 12.426 -10.07 22.5 -22.5 22.5 c -7.669 0 -14.438 -3.828 -18.5 -9.688 c 1.037 1.822 2.306 3.499 3.781 4.969 c 4.085 3.712 9.514 5.969 15.469 5.969 c 12.703 0 23 -10.298 23 -23 c 0 -5.954 -2.256 -11.384 -5.969 -15.469 c -1.469 -1.475 -3.147 -2.744 -4.969 -3.781 z m 4.969 3.781 c 3.854 4.113 6.219 9.637 6.219 15.719 c 0 12.703 -10.297 23 -23 23 c -6.081 0 -11.606 -2.364 -15.719 -6.219 c 4.16 4.144 9.883 6.719 16.219 6.719 c 12.703 0 23 -10.298 23 -23 c 0 -6.335 -2.575 -12.06 -6.719 -16.219 z" style="opacity:0.05"/>
  <path d="m 41.28 8.781 c 3.712 4.085 5.969 9.514 5.969 15.469 c 0 12.703 -10.297 23 -23 23 c -5.954 0 -11.384 -2.256 -15.469 -5.969 c 4.113 3.854 9.637 6.219 15.719 6.219 c 12.703 0 23 -10.298 23 -23 c 0 -6.081 -2.364 -11.606 -6.219 -15.719 z" style="opacity:0.1"/>
  <path d="m 31.25 2.375 c 8.615 3.154 14.75 11.417 14.75 21.13 c 0 12.426 -10.07 22.5 -22.5 22.5 c -9.708 0 -17.971 -6.135 -21.12 -14.75 a 23 23 0 0 0 44.875 -7 a 23 23 0 0 0 -16 -21.875 z" style="opacity:0.2"/>
 </g>
 <circle cx="-24" cy="24" r="23" transform="matrix(0,-1,1,0,0,0)" style="fill:url(#linearGradient4252);opacity:1;fill-opacity:1;stroke:none;fill-rule:nonzero"/>
 <g>
  <path d="m 40.03 7.531 c 3.712 4.084 5.969 9.514 5.969 15.469 0 12.703 -10.297 23 -23 23 c -5.954 0 -11.384 -2.256 -15.469 -5.969 4.178 4.291 10.01 6.969 16.469 6.969 c 12.703 0 23 -10.298 23 -23 0 -6.462 -2.677 -12.291 -6.969 -16.469 z" style="opacity:0.1"/>
 </g>
 <path d="m 22.22 14.5 c -2.21 0.693 -4.303 1.177 -6.697 1.294 -0.909 0.87 -1.68 2.01 -2.267 3.382 0.245 0.366 0.4 0.484 0.913 0.974 -0.289 -0.036 -0.787 -0.555 -1.111 -0.435 c -0.568 0.832 -1.058 3.893 -1.058 6.281 0 4.709 2.753 9 7.67 9 1.694 0 3.437 -0.81 4.866 -2.078 0.808 1.209 2.292 2.078 5.01 2.078 3.38 0 8.45 -3.601 8.45 -8.865 c 0 -2.366 -0.782 -4.277 -1.982 -5.69 -0.245 -0.04 -0.519 -0.044 -0.69 0.056 0.018 -0.104 0.103 -0.338 0.208 -0.451 -0.068 -0.088 -0.129 -0.194 -0.176 -0.294 -0.478 -0.444 -1 -0.824 -1.553 -1.137 -0.915 -0.077 -3.333 -0.331 -5.067 -0.535 -0.058 0.185 -0.1 0.37 -0.143 0.555 1.858 0.984 5.309 3.565 5.309 7.079 0 2.84 -2.08 5.651 -4.485 5.651 -1.885 0 -2.21 -1.219 -2.21 -1.981 l 0 -3.643 c 0 -1.445 0.551 -3.986 1.271 -5.438 l -0.323 -0.228 c -1.858 0.052 -3.88 0.041 -5.401 -0.196 l -0.367 0.209 c 0.645 1.872 0.725 4.737 0.725 7.148 0.046 0.126 0.081 0.241 0.096 0.371 0.147 0.071 0.319 0.132 0.552 0.168 -0.206 0.079 -0.466 0.152 -0.616 0.281 0.01 0.15 -0.036 0.239 -0.053 0.358 -0.041 0.277 -0.162 0.97 -0.79 1.679 -0.569 0.642 -1.436 1.022 -2.607 1.022 -2.691 0 -3.471 -2.909 -3.471 -4.986 0 -3.117 0.78 -4.986 2.405 -7.06 1.482 -1.895 3.185 -3.324 3.445 -3.601 0.13 -0.485 0.13 -0.762 0.144 -0.97 z" style="fill:#000;opacity:0.1;fill-opacity:1;stroke:none"/>
 <g transform="matrix(0.013,0,0,0.01385135,9.44,3.804057)">
  <path d="m 310.55 1312.11 c 4.692 -83.35 -12.134 -164.17 -109.2 -235.58 -43.696 60.09 -81.36 281.03 -81.36 453.46 c 0 340 211.8 650 590 650 130.3 0 264.36 -58.49 374.35 -150.04 39.473 -61.845 50.29 -123.69 44.586 -185.54 0 0 -342.52 132.12 -432.49 124.88 -173.4 -13.959 -385.04 -369.71 -385.89 -657.18 z" style="fill:#9c9c9c;opacity:1;fill-opacity:1;stroke:none"/>
  <path d="m 483.55 970.66 c -38.575 0.494 -51.766 64.28 -51.766 64.28 0 0 -119.66 81.45 -121.23 277.17 c -82.02 286.26 13.494 724.2 387.45 725.89 c 224.35 1.014 408.74 -173.9 430.94 -193.58 23.14 -69.05 68.3 -126.09 37.06 -224.81 0 0 -38.1 -95.35 -33.21 -264.35 22.87 -60.53 17.18 -125.58 7.204 -125.58 -43.08 -66.33 -124.63 -101.88 -220.79 -125.74 c 49.618 135.17 55.803 342.01 55.803 516.05 c 3.538 9.124 6.251 17.378 7.363 26.772 11.316 5.147 24.555 9.547 42.46 12.13 -15.822 5.728 -35.838 10.953 -47.42 20.266 0.532 10.832 -2.736 17.221 -4.104 25.832 -3.177 20 -12.475 70.03 -60.797 121.25 c -43.738 46.36 -110.5 73.75 -200.5 73.75 -207 0 -267 -210 -267 -360 0 -225 60 -360 185 -510 114.03 -136.84 245 -240 265 -260 7 -97.58 -304.69 102.88 -411.45 200.66" style="fill:#bbb;opacity:1;fill-opacity:1;stroke:none"/>
  <path d="m 906.1 700 c -51.605 23.414 -38.446 57.52 -38.446 57.52 l 27.347 12.483 c 10 -35 10 -55 11.1 -70 z" style="fill:#747474;opacity:1;fill-opacity:1;stroke:none"/>
  <path d="m 906.1 700 c -170 50 -331.01 85 -515.16 93.44 -18.249 95.96 38.865 133.42 92.61 177.22 l 384.1 -213.14" style="fill:#e1e1e1;opacity:1;fill-opacity:1;stroke:none"/>
  <path d="m 390.94 793.44 c -69.958 62.817 -129.26 145.04 -174.39 244.17 72.51 5.594 148.5 40.546 215.23 -2.674 l 51.766 -64.28 c -12.144 -66.876 -48.684 -123.59 -92.61 -177.22" style="fill:#cbcbcb;opacity:1;fill-opacity:1;stroke:none"/>
  <path d="m 216.55 1037.61 c 18.836 26.443 30.744 34.921 70.23 70.33 31.453 21.985 73.94 53.655 113.09 71.79 34.709 -31.595 32.18 -99.93 31.907 -144.79 -77.33 -13.08 -145.54 -3.339 -215.23 2.674 z" style="fill:#838383;opacity:1;fill-opacity:1;stroke:none"/>
  <path d="m 310.55 1312.11 c 16.276 -12.84 74.65 -60.21 89.33 -132.38 3.717 -6.609 -79.39 -60.36 -113.09 -71.79 -22.22 -2.586 -60.5 -40.1 -85.43 -31.402 18.06 14.553 74.886 180.95 109.2 235.58 z" style="fill:#cdcdcd;opacity:1;fill-opacity:1;stroke:none"/>
  <path d="m 1930.48 1100.73 c -5.247 -6.362 -9.894 -14.04 -13.524 -21.19 -36.757 -32.09 -77.02 -59.49 -119.5 -82.06 -70.37 -5.53 -256.37 -23.904 -389.81 -38.604 -4.497 13.362 19.811 29.604 19.811 29.604 353.6 177.7 415.91 169.89 503.02 112.25 z" style="fill:#c1c1c1;opacity:1;fill-opacity:1;stroke:none"/>
  <path d="m 1084.35 2029.96 c 62.19 87.27 176.3 150.04 385.65 150.04 260 0 650 -260 650 -640 0 -170.79 -60.17 -308.75 -152.47 -410.79 -186.68 100.67 -89.52 279.3 -82.54 388.8 0 205 -200 456 -385 456 -145 0 -371.06 -129.58 -371.06 -129.58 0 0 -33.92 105.67 -44.586 185.54 z" style="fill:#969696;opacity:1;fill-opacity:1;stroke:none"/>
  <path d="m 1128.94 1844.42 c 53.19 88.27 117.71 203.58 333.06 203.58 c 269 0 513.1 -274.84 501 -534 -10.495 -224.7 -57.15 -227.23 -204.13 -398.51 -126.75 -58.62 -224.15 -87.88 -331.41 -127.02 0 0 -27.512 -2.88 -30.83 10.482 c 142.96 71.04 408.37 257.37 408.37 511.05 c 0 205 -160 408 -345 408 -145 0 -170 -88 -170 -143 l 0 -263 c 0 -104.31 30.756 -264.19 86.15 -369.02 l -6.22 -26.01 c -142.9 3.744 -219.95 35.766 -229.94 112.72 -10.34 103.59 -7.204 125.58 -7.204 125.58 0 0 26.56 238.35 33.21 264.35 0 0 7.962 37.998 -37.06 224.81 z" style="fill:#afafaf;opacity:1;fill-opacity:1;stroke:none"/>
  <path d="m 1356.78 1123.43 6.149 -20.459 c -142.9 3.744 -298.48 2.931 -415.46 -14.12 l -28.27 15.09 c 82.55 26.653 147.29 83.82 220.79 125.74 66.955 -39.548 133.33 -79.55 216.79 -106.26 z" style="fill:#d3d3d3;opacity:1;fill-opacity:1;stroke:none"/>
  <path d="m 1362.93 1102.97 c 0 0 -8.07 7.445 -6.149 20.459 l 19.375 19.555 c 3.803 -8.208 7.679 -16.09 11.625 -23.555 z" style="fill:#787878;opacity:1;fill-opacity:1;stroke:none"/>
  <path d="m 1427.46 988.47 -19.811 -29.604 c -4.497 13.362 -7.701 26.724 -11.02 40.09 z" style="fill:#cacaca;opacity:1;fill-opacity:1;stroke:none"/>
  <path d="m 1967.53 1129.21 c -18.821 -2.918 -39.949 -3.149 -53.04 4.078 1.371 -7.539 7.952 -24.437 15.986 -32.559 -95.78 -13.823 -148.12 -2.486 -171.61 14.765 26.588 98.37 83.63 138.56 146.98 171.28 43.16 -34.614 21.21 -114.42 61.676 -157.56 z" style="fill:#a1a1a1;opacity:1;fill-opacity:1;stroke:none"/>
  <path d="m 1166 1619.61 c 62.26 -33.483 55.88 -106.66 55.88 -106.66 -39.14 -42.531 -118.81 -69.859 -165.46 -26.16 1.219 63.816 71.69 92.77 109.58 132.83 z" style="fill:#c6c6c6;opacity:1;fill-opacity:1;stroke:none"/>
  <path d="m 1132.79 1355.27 c 57.43 49.551 69.55 99.11 89.1 157.68 -24.294 3.729 -54.865 -11.223 -54.865 -11.223 -21.268 -15.769 -74.08 -29.17 -110.6 -14.94 16.07 -46.14 42.722 -91.47 76.37 -131.52 z" style="fill:#7a7a7a;opacity:1;fill-opacity:1;stroke:none"/>
 </g>
</svg>
