<svg xmlns="http://www.w3.org/2000/svg" viewBox="0 0 48 48">
 <defs>
  <linearGradient id="linearGradient3764" x1="1" x2="47" gradientUnits="userSpaceOnUse" gradientTransform="matrix(0,-1,1,0,-1.5e-6,47.999998)">
   <stop style="stop-color:#5190cb;stop-opacity:1"/>
   <stop offset="1" style="stop-color:#619bd0;stop-opacity:1"/>
  </linearGradient>
 </defs>
 <g>
  <path d="m 36.31 5 c 5.859 4.062 9.688 10.831 9.688 18.5 c 0 12.426 -10.07 22.5 -22.5 22.5 c -7.669 0 -14.438 -3.828 -18.5 -9.688 c 1.037 1.822 2.306 3.499 3.781 4.969 c 4.085 3.712 9.514 5.969 15.469 5.969 c 12.703 0 23 -10.298 23 -23 c 0 -5.954 -2.256 -11.384 -5.969 -15.469 c -1.469 -1.475 -3.147 -2.744 -4.969 -3.781 z m 4.969 3.781 c 3.854 4.113 6.219 9.637 6.219 15.719 c 0 12.703 -10.297 23 -23 23 c -6.081 0 -11.606 -2.364 -15.719 -6.219 c 4.16 4.144 9.883 6.719 16.219 6.719 c 12.703 0 23 -10.298 23 -23 c 0 -6.335 -2.575 -12.06 -6.719 -16.219 z" style="opacity:0.05"/>
  <path d="m 41.28 8.781 c 3.712 4.085 5.969 9.514 5.969 15.469 c 0 12.703 -10.297 23 -23 23 c -5.954 0 -11.384 -2.256 -15.469 -5.969 c 4.113 3.854 9.637 6.219 15.719 6.219 c 12.703 0 23 -10.298 23 -23 c 0 -6.081 -2.364 -11.606 -6.219 -15.719 z" style="opacity:0.1"/>
  <path d="m 31.25 2.375 c 8.615 3.154 14.75 11.417 14.75 21.13 c 0 12.426 -10.07 22.5 -22.5 22.5 c -9.708 0 -17.971 -6.135 -21.12 -14.75 a 23 23 0 0 0 44.875 -7 a 23 23 0 0 0 -16 -21.875 z" style="opacity:0.2"/>
 </g>
 <g>
  <path d="m 24 1 c 12.703 0 23 10.297 23 23 c 0 12.703 -10.297 23 -23 23 -12.703 0 -23 -10.297 -23 -23 0 -12.703 10.297 -23 23 -23 z" style="fill:url(#linearGradient3764);fill-opacity:1"/>
 </g>
 <path d="m 12 12 l 7.65 11.477 l -1.787 1.508 c -0.227 0.152 -0.313 0.004 -0.324 -0.262 l 0 -0.473 c 0 -0.145 -0.117 -0.262 -0.27 -0.262 l -0.336 0 c -0.152 0 -0.273 0.117 -0.273 0.262 l 0 1.574 c 0 0.02 -0.008 0.023 -0.02 0.031 l -2.395 1.969 c -0.152 0.184 -0.242 0.27 -0.234 0.582 l -0.012 0.887 c -0.02 0.117 0.102 0.168 0.184 0.129 c 0 0 3.908 -2.291 5.537 -3 l -7.721 11.582 l 8.666 0 l 0.695 -1.043 l 3.15 -0.734 c 0.086 -0.027 0.156 -0.02 0.219 0.063 l 0.34 0.717 l 0.418 -0.734 c 0.059 -0.078 0.168 -0.113 0.25 -0.086 c 0.933 0.209 1.868 0.421 2.805 0.633 l 0.791 1.186 l 8.666 0 l -7.697 -11.547 c 1.773 0.785 5.516 2.906 5.516 2.906 c 0.098 0.02 0.18 0.008 0.191 -0.086 l 0 -0.82 c 0.004 -0.219 -0.141 -0.418 -0.234 -0.504 l -2.34 -1.973 c -0.082 -0.094 -0.105 -0.113 -0.105 -0.168 l 0 -1.561 c 0 -0.145 -0.125 -0.262 -0.27 -0.262 l -0.34 0 c -0.148 0 -0.273 0.117 -0.273 0.262 l 0 0.475 c 0.027 0.281 -0.05 0.387 -0.229 0.254 l -1.859 -1.514 l 7.641 -11.463 l -8.666 0 l -3.217 4.826 c -0.008 -0.275 -0.019 -0.58 -0.057 -0.83 c -0.137 -1.02 -0.551 -3.219 -1.066 -2.973 l -0.002 -0.004 c -0.652 0 -0.965 2.051 -1.078 3.02 c -0.021 0.272 -0.04 0.519 -0.043 0.768 l -3.205 -4.807 l -8.666 0 z m 13.965 20.949 l 0.832 1.246 l -0.762 -0.617 c -0.132 -0.126 -0.12 -0.344 -0.07 -0.629 z m -1.977 0.068 c 0.034 0.239 0.03 0.424 -0.121 0.561 l -0.66 0.611 l 0.781 -1.172 z" style="fill:#000;fill-opacity:0.098;stroke:none;fill-rule:nonzero"/>
 <g>
  <g>
   <g transform="translate(1,1)">
    <g style="opacity:0.1">
     <!-- color: #619bd0 -->
    </g>
   </g>
  </g>
 </g>
 <g>
  <g>
   <!-- color: #619bd0 -->
   <g>
    <g>
     <path d="m 11 37 8.667 0 4.333 -6.5 4.333 6.5 8.667 0 -8.667 -13 8.667 -13 -8.667 0 -4.333 6.5 -4.333 -6.5 -8.667 0 8.667 13 m -8.667 13" style="fill:#2d2d2d;fill-opacity:1;stroke:none;fill-rule:nonzero"/>
     <path d="m 25.834 14.748 l -1.834 2.752 l -0.133 -0.199 l 0 2.469 c -0.008 0.168 -0.039 0.211 -0.137 0.297 l -2.355 1.949 c -0.16 0.105 -0.371 0.102 -0.355 -0.262 l 0 -0.258 c 0 -0.145 -0.117 -0.262 -0.27 -0.262 l -0.336 0 c -0.152 0 -0.273 0.117 -0.273 0.262 l 0 1.52 c 0 0.047 -0.008 0.051 -0.043 0.082 l -0.66 0.559 l 0.229 0.344 l -2.482 3.725 c 1.01 -0.554 2.032 -1.102 2.656 -1.365 c 1.57 -0.656 3.66 -1.109 3.66 -1.109 c 0.16 -0.035 0.305 -0.043 0.367 0.121 l 0 5.328 l 0.133 -0.199 l 1.998 2.998 c -0.149 -0.257 0.041 -0.724 0.119 -1.453 l 0 -6.57 l 0.004 0 l 0 -0.008 l 0.001 0 c 0 -0.012 0.004 -0.02 0.004 -0.027 c 0.004 -0.012 0.008 -0.02 0.012 -0.027 c 0 -0.008 0.004 -0.016 0.008 -0.02 c 0.004 -0.008 0.004 -0.02 0.008 -0.023 c 0.004 -0.008 0.016 -0.016 0.02 -0.02 c 0.004 -0.008 0.008 -0.02 0.016 -0.023 c 0.004 -0.008 0.001 -0.012 0.018 -0.02 l 0.016 -0.018 c 0.008 -0.004 0.012 -0.008 0.02 -0.012 c 0.008 -0.008 0.016 -0.012 0.023 -0.016 c 0.008 -0.004 0.012 -0.004 0.02 -0.008 c 0.012 -0.004 0.02 -0.004 0.027 -0.008 c 0.012 0 0.02 0 0.027 -0.004 l 0.031 0 c 0.012 0 0.021 0.004 0.033 0.004 c 0.012 0 0.023 0 0.035 0.004 c 0 0 1.807 0.377 3.383 0.994 l -1.496 -2.244 l 1.516 -2.273 l 0 -0.232 c 0 -0.145 -0.121 -0.262 -0.273 -0.262 l -0.336 0 c -0.145 0 -0.27 0.117 -0.27 0.262 l 0 0.26 c 0.039 0.363 -0.211 0.434 -0.379 0.262 l -2.344 -1.957 c -0.105 -0.094 -0.113 -0.148 -0.129 -0.281 l 0 -2.91 c -0.008 -0.285 -0.02 -0.609 -0.059 -0.871 c -0.045 -0.334 -0.129 -0.789 -0.227 -1.248 z m 0.238 18.861 l 2.078 3.115 c 0.225 0.051 0.449 0.101 0.674 0.152 c 0.129 0.016 0.238 0.012 0.254 -0.156 l 0 -0.422 c -0.066 -0.289 -0.242 -0.424 -0.426 -0.6 l -2.58 -2.09 z" style="fill:#000;fill-opacity:0.098"/>
     <path d="m 23.992 12.02 c -0.652 0 -0.965 2.051 -1.078 3.02 c -0.023 0.293 -0.047 0.559 -0.047 0.828 l 0 2.902 c -0.008 0.168 -0.039 0.211 -0.137 0.297 l -2.355 1.949 c -0.16 0.105 -0.371 0.102 -0.355 -0.262 l 0 -0.258 c 0 -0.145 -0.117 -0.262 -0.27 -0.262 l -0.336 0 c -0.152 0 -0.273 0.117 -0.273 0.262 l 0 1.52 c 0 0.047 -0.008 0.051 -0.043 0.082 l -2.234 1.887 c -0.227 0.152 -0.313 0.004 -0.324 -0.262 l 0 -0.473 c 0 -0.145 -0.117 -0.262 -0.27 -0.262 l -0.336 0 c -0.152 0 -0.273 0.117 -0.273 0.262 l 0 1.574 c 0 0.02 -0.008 0.023 -0.02 0.031 l -2.395 1.969 c -0.152 0.184 -0.242 0.27 -0.234 0.582 l -0.012 0.887 c -0.02 0.117 0.102 0.168 0.184 0.129 c 0 0 4.09 -2.402 5.656 -3.063 c 1.57 -0.656 3.66 -1.109 3.66 -1.109 c 0.16 -0.035 0.305 -0.043 0.367 0.121 l 0 6.648 c 0.004 0.793 0.316 1.273 0 1.559 l -2.609 2.414 c -0.156 0.16 -0.25 0.297 -0.266 0.555 l 0.004 0.277 c 0.008 0.125 0.059 0.191 0.18 0.176 l 3.336 -0.777 c 0.086 -0.027 0.156 -0.02 0.219 0.063 l 0.34 0.715 l 0.418 -0.734 c 0.059 -0.078 0.168 -0.113 0.25 -0.086 c 1.027 0.23 2.055 0.461 3.086 0.695 c 0.129 0.016 0.238 0.012 0.254 -0.156 l 0 -0.422 c -0.066 -0.289 -0.242 -0.422 -0.426 -0.598 l -2.617 -2.121 c -0.246 -0.234 -0.004 -0.734 0.082 -1.535 l 0 -6.57 l 0.004 0 l 0 -0.008 l 0.008 0 c 0 -0.012 0.004 -0.02 0.004 -0.027 c 0.004 -0.012 0.008 -0.02 0.012 -0.027 c 0 -0.008 0.004 -0.016 0.008 -0.02 c 0.004 -0.008 0.004 -0.02 0.008 -0.023 c 0.004 -0.008 0.016 -0.016 0.02 -0.02 c 0.004 -0.008 0.008 -0.02 0.016 -0.023 c 0.004 -0.008 0.008 -0.012 0.016 -0.02 c 0.004 -0.004 0.012 -0.012 0.016 -0.016 c 0.008 -0.004 0.012 -0.008 0.02 -0.012 c 0.008 -0.008 0.016 -0.012 0.023 -0.016 c 0.008 -0.004 0.012 -0.004 0.02 -0.008 c 0.012 -0.004 0.02 -0.004 0.027 -0.008 c 0.012 0 0.02 0 0.027 -0.004 c 0.012 0 0.023 0 0.031 0 c 0.012 0 0.023 0.004 0.035 0.004 c 0.012 0 0.023 0 0.035 0.004 c 0 0 1.898 0.391 3.5 1.035 c 1.602 0.645 5.871 3.074 5.871 3.074 c 0.098 0.02 0.18 0.008 0.191 -0.086 l 0 -0.82 c 0.004 -0.219 -0.141 -0.418 -0.234 -0.504 l -2.34 -1.973 c -0.082 -0.094 -0.105 -0.113 -0.105 -0.168 l 0 -1.559 c 0 -0.145 -0.125 -0.262 -0.27 -0.262 l -0.34 0 c -0.148 0 -0.273 0.117 -0.273 0.262 l 0 0.473 c 0.027 0.281 -0.051 0.387 -0.23 0.254 l -2.305 -1.879 c -0.051 -0.043 -0.063 -0.043 -0.063 -0.086 l 0 -1.516 c 0 -0.145 -0.121 -0.262 -0.273 -0.262 l -0.336 0 c -0.145 0 -0.27 0.117 -0.27 0.262 l 0 0.258 c 0.039 0.363 -0.211 0.434 -0.379 0.262 l -2.344 -1.957 c -0.105 -0.094 -0.113 -0.148 -0.129 -0.281 l 0 -2.91 c -0.008 -0.285 -0.02 -0.609 -0.059 -0.871 c -0.137 -1.02 -0.551 -3.219 -1.066 -2.973 m 0 0" style="fill:#fff;fill-opacity:1;stroke:none;fill-rule:evenodd"/>
    </g>
   </g>
  </g>
 </g>
 <g>
  <path d="m 40.03 7.531 c 3.712 4.084 5.969 9.514 5.969 15.469 0 12.703 -10.297 23 -23 23 c -5.954 0 -11.384 -2.256 -15.469 -5.969 4.178 4.291 10.01 6.969 16.469 6.969 c 12.703 0 23 -10.298 23 -23 0 -6.462 -2.677 -12.291 -6.969 -16.469 z" style="opacity:0.1"/>
 </g>
</svg>
