<svg xmlns="http://www.w3.org/2000/svg" viewBox="0 0 48 48">
 <defs>
  <linearGradient id="linearGradient3764" x1="1" x2="47" gradientUnits="userSpaceOnUse" gradientTransform="matrix(0,-1,1,0,-1.5e-6,47.999998)">
   <stop style="stop-color:#ce411c;stop-opacity:1"/>
   <stop offset="1" style="stop-color:#e0491e;stop-opacity:1"/>
  </linearGradient>
 </defs>
 <g>
  <path d="m 36.31 5 c 5.859 4.062 9.688 10.831 9.688 18.5 c 0 12.426 -10.07 22.5 -22.5 22.5 c -7.669 0 -14.438 -3.828 -18.5 -9.688 c 1.037 1.822 2.306 3.499 3.781 4.969 c 4.085 3.712 9.514 5.969 15.469 5.969 c 12.703 0 23 -10.298 23 -23 c 0 -5.954 -2.256 -11.384 -5.969 -15.469 c -1.469 -1.475 -3.147 -2.744 -4.969 -3.781 z m 4.969 3.781 c 3.854 4.113 6.219 9.637 6.219 15.719 c 0 12.703 -10.297 23 -23 23 c -6.081 0 -11.606 -2.364 -15.719 -6.219 c 4.16 4.144 9.883 6.719 16.219 6.719 c 12.703 0 23 -10.298 23 -23 c 0 -6.335 -2.575 -12.06 -6.719 -16.219 z" style="opacity:0.05"/>
  <path d="m 41.28 8.781 c 3.712 4.085 5.969 9.514 5.969 15.469 c 0 12.703 -10.297 23 -23 23 c -5.954 0 -11.384 -2.256 -15.469 -5.969 c 4.113 3.854 9.637 6.219 15.719 6.219 c 12.703 0 23 -10.298 23 -23 c 0 -6.081 -2.364 -11.606 -6.219 -15.719 z" style="opacity:0.1"/>
  <path d="m 31.25 2.375 c 8.615 3.154 14.75 11.417 14.75 21.13 c 0 12.426 -10.07 22.5 -22.5 22.5 c -9.708 0 -17.971 -6.135 -21.12 -14.75 a 23 23 0 0 0 44.875 -7 a 23 23 0 0 0 -16 -21.875 z" style="opacity:0.2"/>
 </g>
 <g>
  <path d="m 24 1 c 12.703 0 23 10.297 23 23 c 0 12.703 -10.297 23 -23 23 -12.703 0 -23 -10.297 -23 -23 0 -12.703 10.297 -23 23 -23 z" style="fill:url(#linearGradient3764);fill-opacity:1"/>
 </g>
 <g>
  <g>
   <g transform="translate(1,1)">
    <g style="opacity:0.1">
     <!-- color: #e0491e -->
    </g>
   </g>
  </g>
 </g>
 <g>
  <g>
   <!-- color: #e0491e -->
  </g>
 </g>
 <g>
  <path d="m 40.03 7.531 c 3.712 4.084 5.969 9.514 5.969 15.469 0 12.703 -10.297 23 -23 23 c -5.954 0 -11.384 -2.256 -15.469 -5.969 4.178 4.291 10.01 6.969 16.469 6.969 c 12.703 0 23 -10.298 23 -23 0 -6.462 -2.677 -12.291 -6.969 -16.469 z" style="opacity:0.1"/>
 </g>
 <path d="m 18 13 c -3.866 -0.002 -7 3.134 -7 7 0.001 1.685 0.614 3.312 1.721 4.582 -1.108 1.364 -1.72 3.11 -1.721 4.918 -0.001 4.142 3.134 7.502 7 7.5 3.163 -0.002 6.178 -1.728 7 -5 0.852 3.274 3.473 4.999 6.75 5 4 0.001 7.252 -3.358 7.25 -7.5 -0.001 -1.625 -0.514 -3.204 -1.459 -4.502 0.944 -1.297 1.458 -2.875 1.459 -4.498 0.002 -4.142 -3.246 -7.501 -7.25 -7.5 -3.213 0.001 -5.841 1.812 -6.75 5 -0.75 -3.15 -3.762 -4.998 -7 -5 z m 0.5 5 c 1.381 0 2.5 1.119 2.5 2.5 l 0 2.5 -2.5 0 c -1.381 0 -2.5 -1.119 -2.5 -2.5 0 -1.381 1.119 -2.5 2.5 -2.5 z m 13.471 0 c 1.127 -0.017 2.036 0.873 2.029 2 -0.009 1.4 -0.14 2.578 -0.572 3.643 -0.214 0.526 -0.522 1.015 -0.893 1.438 0.845 0.234 1.465 0.999 1.465 1.92 l 0 3 c 0 1.108 -0.892 2 -2 2 -1.108 0 -2 -0.892 -2 -2 l 0 -3 c 0 -0.13 0.016 -0.256 0.039 -0.379 -1.537 0.47 -3.157 0.379 -5.04 0.379 -4 0 -5.01 0 -5 2.971 0.013 2.705 -4.01 2.705 -4 0 0.015 -4.302 2 -6.971 6 -6.971 l 3 0 c 5 0 5.01 0 5 -3 -0.002 -1.104 0.867 -1.984 1.971 -2 z" style="fill:#000;opacity:0.1;fill-opacity:1;stroke:none"/>
 <path d="m 17 12 c -3.866 -0.002 -7 3.134 -7 7 0.001 1.685 0.614 3.312 1.721 4.582 -1.108 1.364 -1.72 3.11 -1.721 4.918 -0.001 4.142 3.134 7.502 7 7.5 3.163 -0.002 6.178 -1.728 7 -5 0.852 3.274 3.473 4.999 6.75 5 4 0.001 7.252 -3.358 7.25 -7.5 -0.001 -1.625 -0.514 -3.204 -1.459 -4.502 0.944 -1.297 1.458 -2.875 1.459 -4.498 0.002 -4.142 -3.246 -7.501 -7.25 -7.5 -3.213 0.001 -5.841 1.812 -6.75 5 -0.75 -3.15 -3.762 -4.998 -7 -5 z m 0.5 5 c 1.381 0 2.5 1.119 2.5 2.5 l 0 2.5 -2.5 0 c -1.381 0 -2.5 -1.119 -2.5 -2.5 0 -1.381 1.119 -2.5 2.5 -2.5 z m 13.471 0 c 1.127 -0.017 2.036 0.873 2.029 2 -0.009 1.4 -0.14 2.578 -0.572 3.643 -0.214 0.526 -0.522 1.015 -0.893 1.438 c 0.845 0.234 1.465 0.999 1.465 1.92 l 0 3 c 0 1.108 -0.892 2 -2 2 -1.108 0 -2 -0.892 -2 -2 l 0 -3 c 0 -0.13 0.016 -0.256 0.039 -0.379 -1.537 0.47 -3.157 0.379 -5.04 0.379 -4 0 -5.01 0 -5 2.971 0.013 2.705 -4.01 2.705 -4 0 0.015 -4.302 2 -6.971 6 -6.971 l 3 0 c 5 0 5.01 0 5 -3 -0.002 -1.104 0.867 -1.984 1.971 -2 z" style="fill:#f9f9f9;opacity:1;fill-opacity:1;stroke:none"/>
</svg>
