<svg version="1.1" viewBox="0 0 48 48" xmlns="http://www.w3.org/2000/svg">
 <defs>
  <linearGradient id="bg" x1="1" x2="47" gradientTransform="matrix(0 -1 1 0 -1.5e-6 48)" gradientUnits="userSpaceOnUse">
   <stop style="stop-color:#6fc1e3" offset="0"/>
   <stop style="stop-color:#80c7e6" offset="1"/>
  </linearGradient>
 </defs>
 <path d="m36.3 5c5.86 4.06 9.69 10.8 9.69 18.5 0 12.4-10.1 22.5-22.5 22.5-7.67 0-14.4-3.83-18.5-9.69 1.04 1.82 2.31 3.5 3.78 4.97 4.08 3.71 9.51 5.97 15.5 5.97 12.7 0 23-10.3 23-23 0-5.95-2.26-11.4-5.97-15.5-1.47-1.48-3.15-2.74-4.97-3.78zm4.97 3.78c3.85 4.11 6.22 9.64 6.22 15.7 0 12.7-10.3 23-23 23-6.08 0-11.6-2.36-15.7-6.22 4.16 4.14 9.88 6.72 16.2 6.72 12.7 0 23-10.3 23-23 0-6.34-2.58-12.1-6.72-16.2z" style="opacity:.05"/>
 <path d="m41.3 8.78c3.71 4.08 5.97 9.51 5.97 15.5 0 12.7-10.3 23-23 23-5.95 0-11.4-2.26-15.5-5.97 4.11 3.85 9.64 6.22 15.7 6.22 12.7 0 23-10.3 23-23 0-6.08-2.36-11.6-6.22-15.7z" style="opacity:.1"/>
 <path d="m31.2 2.38c8.62 3.15 14.8 11.4 14.8 21.1 0 12.4-10.1 22.5-22.5 22.5-9.71 0-18-6.14-21.1-14.8a23 23 0 0 0 44.9-7 23 23 0 0 0-16-21.9z" style="opacity:.2"/>
 <path d="m24 1c12.7 0 23 10.3 23 23s-10.3 23-23 23-23-10.3-23-23 10.3-23 23-23z" style="fill:url(#bg)"/>
 <path d="m12 12 8.51 13c-2.83 4.33-5.66 8.66-8.51 13h9l4-6.12 4 6.12h9c-2.85-4.32-5.68-8.65-8.51-13l8.51-13h-9c-1.33 2.04-2.67 4.09-4 6.13-1.33-2.04-2.67-4.09-4-6.13z" style="opacity:.1"/>
 <path d="m40 7.53c3.71 4.08 5.97 9.51 5.97 15.5 0 12.7-10.3 23-23 23-5.95 0-11.4-2.26-15.5-5.97 4.18 4.29 10 6.97 16.5 6.97 12.7 0 23-10.3 23-23 0-6.46-2.68-12.3-6.97-16.5z" style="opacity:.1"/>
 <path d="m11 11 8.51 13c-2.83 4.33-5.66 8.66-8.51 13h9l4-6.12 4 6.12h9c-2.85-4.32-5.68-8.65-8.51-13l8.51-13h-9c-1.33 2.04-2.67 4.09-4 6.13-1.33-2.04-2.67-4.09-4-6.13h-9z" style="fill:#474747"/>
 <path d="m17.4 27.2c1.28 1.69 3.3 2.79 5.58 2.79 1.64 0 3.15-0.568 4.34-1.51l2.47 2.47-0.254 0.252 3.79 3.79 1.41-1.41c-0.302-0.46-0.602-0.921-0.904-1.38l-2.89-2.41-2.47-2.47c0.419-0.531 0.749-1.13 1-1.77-0.336-0.514-0.674-1.03-1.01-1.54l1.41-2.16c-0.458-2.79-2.56-5.02-5.29-5.67-2.39 3.68-4.79 7.35-7.19 11z" style="opacity:.1"/>
 <path d="m25.1 26.2 1.16-1.16 3.8 3.8-1.16 1.16" style="fill:#4c84d7"/>
 <path d="m15.5 22c0 3.59 2.91 6.5 6.5 6.5 3.59 0 6.5-2.91 6.5-6.5 3e-3 -3.59-2.91-6.5-6.5-6.5-3.59 0-6.5 2.91-6.5 6.5" style="fill:#e0f9f9"/>
 <path d="m28.6 30.2 1.65-1.65 3.8 3.8-1.65 1.65" style="fill:#9b9fb1"/>
 <path d="m22 15.5c-3.31 0-6.5 3.19-6.5 6.5 0 1.91 1.4 3.61 2.79 4.71-0.806-1.02-1.29-2.31-1.29-3.71 0-3.31 2.69-6 6-6 1.4 0 2.69 0.486 3.71 1.29-1.1-1.39-2.8-2.79-4.71-2.79z" style="opacity:.1"/>
 <path d="m22 15c-3.87 0-7 3.13-7 7s3.13 7 7 7 7-3.13 7-7-3.13-7-7-7zm0 1c3.32 0 6 2.69 6 6 0.0028 3.32-2.68 6-6 6-3.31 0-6-2.68-6-6 0-3.31 2.69-6 6-6z" style="fill:#9b9fb1"/>
</svg>
