<svg xmlns="http://www.w3.org/2000/svg" viewBox="0 0 48 48">
 <defs>
  <linearGradient id="linearGradient3764" x1="1" x2="47" gradientUnits="userSpaceOnUse" gradientTransform="matrix(0,-1,1,0,-1.5e-6,47.999998)">
   <stop style="stop-color:#d7d7d7;stop-opacity:1"/>
   <stop offset="1" style="stop-color:#e1e1e1;stop-opacity:1"/>
  </linearGradient>
 </defs>
 <g>
  <path d="m 36.31 5 c 5.859 4.062 9.688 10.831 9.688 18.5 c 0 12.426 -10.07 22.5 -22.5 22.5 c -7.669 0 -14.438 -3.828 -18.5 -9.688 c 1.037 1.822 2.306 3.499 3.781 4.969 c 4.085 3.712 9.514 5.969 15.469 5.969 c 12.703 0 23 -10.298 23 -23 c 0 -5.954 -2.256 -11.384 -5.969 -15.469 c -1.469 -1.475 -3.147 -2.744 -4.969 -3.781 z m 4.969 3.781 c 3.854 4.113 6.219 9.637 6.219 15.719 c 0 12.703 -10.297 23 -23 23 c -6.081 0 -11.606 -2.364 -15.719 -6.219 c 4.16 4.144 9.883 6.719 16.219 6.719 c 12.703 0 23 -10.298 23 -23 c 0 -6.335 -2.575 -12.06 -6.719 -16.219 z" style="opacity:0.05"/>
  <path d="m 41.28 8.781 c 3.712 4.085 5.969 9.514 5.969 15.469 c 0 12.703 -10.297 23 -23 23 c -5.954 0 -11.384 -2.256 -15.469 -5.969 c 4.113 3.854 9.637 6.219 15.719 6.219 c 12.703 0 23 -10.298 23 -23 c 0 -6.081 -2.364 -11.606 -6.219 -15.719 z" style="opacity:0.1"/>
  <path d="m 31.25 2.375 c 8.615 3.154 14.75 11.417 14.75 21.13 c 0 12.426 -10.07 22.5 -22.5 22.5 c -9.708 0 -17.971 -6.135 -21.12 -14.75 a 23 23 0 0 0 44.875 -7 a 23 23 0 0 0 -16 -21.875 z" style="opacity:0.2"/>
 </g>
 <g>
  <path d="m 24 1 c 12.703 0 23 10.297 23 23 c 0 12.703 -10.297 23 -23 23 -12.703 0 -23 -10.297 -23 -23 0 -12.703 10.297 -23 23 -23 z" style="fill:url(#linearGradient3764);fill-opacity:1"/>
 </g>
 <g>
  <g>
   <!-- color: #e1e1e1 -->
   <g>
    <path d="m 20.937 12 c -4.939 0.008 -8.954 4.02 -8.951 8.953 l 0 0.002 c 0.011 4.937 4.02 8.95 8.955 8.953 l 0.002 0 c 4.937 -0.005 8.951 -4.02 8.951 -8.953 0.105 -4.955 -3.749 -8.796 -8.955 -8.955 l -0.002 0 z m 0.002 1.475 c 4.136 0 7.473 3.336 7.48 7.48 l 0 0.002 c 0 4.135 -3.336 7.471 -7.477 7.477 -4.134 -0.002 -7.473 -3.339 -7.482 -7.482 -0.002 -4.133 3.334 -7.469 7.479 -7.477 z m -0.76 2.475 -3.814 10 1.406 0 0.941 -2.563 4.5 0 0.904 2.563 1.406 0 -3.813 -10 -1.531 0 z m 0.752 1.344 1.842 4.969 -3.656 0 1.814 -4.969 z m 7.146 9.283 -1.504 1.504 4.734 4.734 1.504 -1.504 -4.734 -4.734 z m 5.187 4.549 -2.146 2.145 4.738 4.734 2.146 -2.145 -4.738 -4.734 z" style="fill:#000;fill-opacity:0.098"/>
    <path d="m 19.18 14.949 l 1.531 0 l 3.813 10 l -1.406 0 l -0.906 -2.563 l -4.5 0 l -0.941 2.563 l -1.406 0 m 4.566 -8.656 l -1.813 4.969 l 3.656 0 m -1.844 -4.969" style="fill:#5170ec;fill-opacity:1;stroke:none;fill-rule:nonzero"/>
    <path d="m 30.12 32.27 l 2.145 -2.145 l 4.738 4.734 l -2.145 2.145 m -4.738 -4.734" style="fill:#5170ec;fill-opacity:1;stroke:none;fill-rule:nonzero"/>
    <path d="m 25.574 27.08 l 1.504 -1.504 l 4.734 4.734 l -1.504 1.504 m -4.734 -4.734" style="fill:#5170ec;fill-opacity:1;stroke:none;fill-rule:nonzero"/>
    <path d="m 19.938 11 c -4.939 0.008 -8.954 4.02 -8.951 8.953 l 0 0.002 c 0.011 4.937 4.02 8.95 8.955 8.953 l 0.002 0 c 4.937 -0.005 8.951 -4.02 8.951 -8.953 c 0.105 -4.955 -3.749 -8.796 -8.955 -8.955 l -0.002 0 z m 0.002 1.475 c 4.136 0 7.473 3.336 7.48 7.48 l 0 0.002 c 0 4.135 -3.336 7.471 -7.477 7.477 -4.134 -0.002 -7.473 -3.339 -7.482 -7.482 -0.002 -4.133 3.334 -7.469 7.479 -7.477 z" mix-blend-mode="normal" isolation="auto" white-space="normal" solid-opacity="1" solid-color="#000000" style="visibility:visible;shape-rendering:auto;color-interpolation-filters:linearRGB;fill:#5170ec;opacity:1;image-rendering:auto;fill-opacity:1;stroke:none;display:inline;color:#000;fill-rule:nonzero;color-rendering:auto;color-interpolation:sRGB"/>
   </g>
  </g>
 </g>
 <g>
  <path d="m 40.03 7.531 c 3.712 4.084 5.969 9.514 5.969 15.469 0 12.703 -10.297 23 -23 23 c -5.954 0 -11.384 -2.256 -15.469 -5.969 4.178 4.291 10.01 6.969 16.469 6.969 c 12.703 0 23 -10.298 23 -23 0 -6.462 -2.677 -12.291 -6.969 -16.469 z" style="opacity:0.1"/>
 </g>
</svg>
