<svg xmlns="http://www.w3.org/2000/svg" viewBox="0 0 48 48">
 <defs>
  <linearGradient id="linearGradient3874" gradientUnits="userSpaceOnUse" gradientTransform="matrix(0,-1,1,0,-1.5e-6,47.999998)" x1="1" x2="47">
   <stop style="stop-color:#e4e4e4;stop-opacity:1"/>
   <stop offset="1" style="stop-color:#eee;stop-opacity:1"/>
  </linearGradient>
 </defs>
 <path d="m 36.31,5 c 5.859,4.062 9.688,10.831 9.688,18.5 0,12.426 -10.07,22.5 -22.5,22.5 -7.669,0 -14.438,-3.828 -18.5,-9.688 1.037,1.822 2.306,3.499 3.781,4.969 4.085,3.712 9.514,5.969 15.469,5.969 12.703,0 23,-10.298 23,-23 0,-5.954 -2.256,-11.384 -5.969,-15.469 C 39.81,7.306 38.132,6.037 36.31,5 z m 4.969,3.781 c 3.854,4.113 6.219,9.637 6.219,15.719 0,12.703 -10.297,23 -23,23 -6.081,0 -11.606,-2.364 -15.719,-6.219 4.16,4.144 9.883,6.719 16.219,6.719 12.703,0 23,-10.298 23,-23 0,-6.335 -2.575,-12.06 -6.719,-16.219 z" style="opacity:0.05"/>
 <path d="m 41.28 8.781 c 3.712 4.085 5.969 9.514 5.969 15.469 0 12.703 -10.297 23 -23 23 -5.954 0 -11.384 -2.256 -15.469 -5.969 4.113 3.854 9.637 6.219 15.719 6.219 12.703 0 23 -10.298 23 -23 0 -6.081 -2.364 -11.606 -6.219 -15.719 z" style="opacity:0.1"/>
 <path d="M 31.25,2.375 C 39.865,5.529 46,13.792 46,23.505 c 0,12.426 -10.07,22.5 -22.5,22.5 -9.708,0 -17.971,-6.135 -21.12,-14.75 a 23,23 0 0 0 44.875,-7 23,23 0 0 0 -16,-21.875 z" style="opacity:0.2"/>
 <path d="m 42.4 10.197 -37.668 1.248 c -2.358 3.611 -3.732 7.921 -3.732 12.555 0 12.703 10.297 23 23 23 12.703 0 23 -10.297 23 -23 0 -5.179 -1.711 -9.958 -4.6 -13.803" style="fill:url(#linearGradient3874);fill-opacity:1"/>
 <path d="m 5.499 12.189 c -0.046 0.068 -0.606 -0.377 -0.875 -0.531 -0.153 0.24 -0.325 0.473 -0.469 0.719 l 11.906 6.938 -6.594 13.563 -0.281 -0.125 -5.344 2.313 c 0.194 0.353 0.382 0.721 0.594 1.063 0.003 0.005 0.028 -0.005 0.031 0 l 5.406 -2.281 14.75 6.281 -0.219 6.875 c 0.335 -0.006 0.668 -0.042 1 -0.063 l 0.219 -6.938 7.625 -7.375 9.406 4.813 c 0.197 -0.272 0.378 -0.531 0.563 -0.813 l -9.594 -4.906 -1.219 -9.375 10.813 -10.813 c -0.201 -0.283 -0.394 -0.523 -0.594 -0.813 -10.636 -10.812 -27.505 -12.691 -37.12 1.468 m 16.314 6.092 9.625 4.375 1.219 9.156 -3.188 3.094 l -4.469 4.313 -14.5 -6.219 6.688 -13.594" style="fill:#000;fill-opacity:0.098;stroke:none"/>
 <path d="m 24 1 c -0.773 0 -1.528 0.051 -2.281 0.125 l -0.344 15.688 l 9.875 4.469 l 11.156 -11.09 c -4.197 -5.578 -10.888 -9.188 -18.406 -9.188 z" style="fill:#486cd2;fill-opacity:1;stroke:none"/>
 <path d="m 40.03,7.531 c 3.712,4.084 5.969,9.514 5.969,15.469 0,12.703 -10.297,23 -23,23 C 17.045,46 11.615,43.744 7.53,40.031 11.708,44.322 17.54,47 23.999,47 c 12.703,0 23,-10.298 23,-23 0,-6.462 -2.677,-12.291 -6.969,-16.469 z" style="opacity:0.1"/>
 <path d="m 21.643 1.119 c -7.083 0.721 -13.21 4.659 -16.91 10.326 l 11.299 6.682 l 5.314 -1.314 l 0.406 -15.688 c -0.031 0.003 -0.065 -0.003 -0.096 0 c -0.005 -0.002 -0.009 -0.004 -0.014 -0.006 z" style="fill:#ca5a43;fill-opacity:1;stroke:none"/>
 <path d="m 22.16 1.094 c -0.326 0.026 -0.647 0.054 -0.969 0.094 l -0.344 15.16 l -4.75 1.188 l -11.188 -6.344 c -0.185 0.275 -0.358 0.56 -0.531 0.844 l 11.09 6.281 l -6.656 13.625 l -0.031 0 l -5.375 2.281 c 0.151 0.304 0.305 0.61 0.469 0.906 l 5.406 -2.281 l 14.75 6.281 l -0.25 7.875 c 0.073 0 0.146 0 0.219 0 c 0.261 0 0.522 -0.023 0.781 -0.031 l 0.25 -7.969 l 7.625 -7.375 l 10.375 5.313 c 0.187 -0.275 0.356 -0.561 0.531 -0.844 l -10.531 -5.375 l -1.219 -9.375 l 10.813 -10.813 c -0.198 -0.273 -0.384 -0.548 -0.594 -0.813 l -10.844 10.844 l -9.344 -4.219 l 0.313 -15.25 z m -0.938 16.188 l 9.625 4.375 l 1.219 9.156 l -3.188 3.094 l -4.469 4.313 l -14.5 -6.219 l 6.688 -13.594 l 4.625 -1.125 z" style="visibility:visible;fill:#2d2d2d;fill-opacity:1;stroke:none;display:inline;color:#000"/>
</svg>
