<svg version="1.1" viewBox="0 0 48 48" xmlns="http://www.w3.org/2000/svg">
 <defs>
  <linearGradient id="bg" x1="1" x2="47" gradientTransform="matrix(0 -1 1 0 -1.5e-6 48)" gradientUnits="userSpaceOnUse">
   <stop style="stop-color:#545454" offset="0"/>
   <stop style="stop-color:#5e5e5e" offset="1"/>
  </linearGradient>
 </defs>
 <path d="m36.31 5c5.859 4.062 9.688 10.831 9.688 18.5 0 12.426-10.07 22.5-22.5 22.5-7.669 0-14.438-3.828-18.5-9.688 1.037 1.822 2.306 3.499 3.781 4.969 4.085 3.712 9.514 5.969 15.469 5.969 12.703 0 23-10.298 23-23 0-5.954-2.256-11.384-5.969-15.469-1.469-1.475-3.147-2.744-4.969-3.781zm4.969 3.781c3.854 4.113 6.219 9.637 6.219 15.719 0 12.703-10.297 23-23 23-6.081 0-11.606-2.364-15.719-6.219 4.16 4.144 9.883 6.719 16.219 6.719 12.703 0 23-10.298 23-23 0-6.335-2.575-12.06-6.719-16.219z" style="opacity:.05"/>
 <path d="m41.28 8.781c3.712 4.085 5.969 9.514 5.969 15.469 0 12.703-10.297 23-23 23-5.954 0-11.384-2.256-15.469-5.969 4.113 3.854 9.637 6.219 15.719 6.219 12.703 0 23-10.298 23-23 0-6.081-2.364-11.606-6.219-15.719z" style="opacity:.1"/>
 <path d="m31.25 2.375c8.615 3.154 14.75 11.417 14.75 21.13 0 12.426-10.07 22.5-22.5 22.5-9.708 0-17.971-6.135-21.12-14.75a23 23 0 0 0 44.875-7 23 23 0 0 0-16-21.875z" style="opacity:.2"/>
 <path d="m24 1c12.703 0 23 10.297 23 23s-10.297 23-23 23-23-10.297-23-23 10.297-23 23-23z" style="fill:url(#bg)"/>
 <path d="m22.047 13.496c-0.05117 3.72e-4 -0.10194 0.0089-0.15039 0.02539l-1.7812 0.59375c-0.2508 0.08359-0.38634 0.35467-0.30274 0.60547 0.08281 0.24554 0.34599 0.38059 0.59375 0.30469l1.0918 3.5312c-0.74693 0.23904-1.4755 0.54958-2.1816 0.90625l-1.8008-4.209c-0.05041-0.1192-0.14694-0.21291-0.26758-0.25976-0.03954-0.01517-0.08092-0.02502-0.12305-0.0293-0.08551-9e-3 -0.17186 0.0051-0.25 0.04101l-1.6016 0.73438c-0.24068 0.1099-0.34654 0.39423-0.23633 0.63477 0.1083 0.23565 0.38458 0.34217 0.62305 0.24023l1.709 3.9863c-1.5364 1.0252-2.9562 2.2777-4.2285 3.6504-0.301 0.32527-0.59809 0.64984-0.87109 1.0039-0.359 0.4671-0.359 1.0242 0 1.4902 0.832 1.0664 1.8203 2.0224 2.8203 2.8926 2.164 1.8748 4.6373 3.4418 7.3633 4.0742 0.844 0.19623 1.691 0.29031 2.543 0.28711 0.855 0 1.699-0.09515 2.543-0.28711 2.727-0.63347 5.2031-2.2005 7.3711-4.0742 1-0.87022 1.9904-1.8219 2.8184-2.8926 0.359-0.4671 0.359-1.0242 0-1.4902h-0.0059c-0.273-0.35406-0.57009-0.67971-0.87109-1.0039-1.2746-1.3761-2.697-2.6317-4.2382-3.6582l1.7188-4.0137c0.23847 0.10194 0.51474-0.0046 0.62305-0.24023 0.11021-0.24054 0.0044-0.52486-0.23633-0.63477l-1.6016-0.73438c-0.07814-0.03588-0.1645-0.05005-0.25-0.04101-0.04213 0.0043-0.08351 0.01413-0.12305 0.0293-0.12064 0.04686-0.21717 0.14057-0.26758 0.25977l-1.8125 4.2363c-0.63468-0.32044-1.2892-0.60331-1.959-0.83009l0.07031-0.01172-0.0098-0.0039 1.1094-3.5781c0.24893 0.07696 0.5137-0.05932 0.5957-0.30664 0.08217-0.25077-0.05413-0.52073-0.30469-0.60352l-1.7812-0.58984c-0.04856-0.01578-0.09933-0.0237-0.15039-0.02344-0.20943-5.2e-5 -0.39458 0.13604-0.45703 0.33594l-1.3184 4.2578c-0.48332-0.06367-0.96722-0.09874-1.4668-0.10156-0.39366 0-0.78771 0.022-1.1816 0.06445l-1.3047-4.2285c-0.06126-0.20214-0.24777-0.34023-0.45898-0.33984z" style="opacity:.1"/>
 <path d="m21.051 12.496c-0.05117 3.72e-4 -0.10194 0.0089-0.15039 0.02539l-1.7812 0.59375c-0.2508 0.08359-0.38634 0.35467-0.30274 0.60547 0.08281 0.24554 0.34599 0.38059 0.59375 0.30469l1.1074 3.5801-0.0078 2e-3 2.3867-0.2793-1.3867-4.4922c-0.06126-0.20214-0.24777-0.34023-0.45898-0.33984zm6.1875 0.01172c-0.20943-5.3e-5 -0.39458 0.13604-0.45703 0.33594l-1.3906 4.4922 0.30664 0.5957 2.082-0.31836-0.0098-0.0039 1.1094-3.5781c0.24893 0.07696 0.5137-0.05932 0.5957-0.30664 0.08217-0.25077-0.05413-0.52073-0.30469-0.60352l-1.7812-0.58984c-0.04856-0.01578-0.09933-0.0237-0.15039-0.02344zm4.6328 1.4219c-0.04213 0.0043-0.08351 0.01413-0.12305 0.0293-0.12064 0.04686-0.21717 0.14057-0.26758 0.25977l-2.5 5.8438 2.2422 0.48828-0.01172-0.0059 2.125-4.9648c0.23847 0.10194 0.51474-0.0046 0.62305-0.24023 0.11021-0.24054 0.0044-0.52486-0.23633-0.63477l-1.6016-0.73438c-0.07814-0.03588-0.1645-0.05004-0.25-0.04101zm-15.742 0.03516c-0.08551-9e-3 -0.17186 0.0051-0.25 0.04101l-1.6016 0.73438c-0.24068 0.1099-0.34654 0.39423-0.23633 0.63477 0.1083 0.23565 0.38458 0.34217 0.62305 0.24023l2.1289 4.9648-0.01172 0.0059 2.2383-0.48828-2.5-5.8438c-0.05041-0.1192-0.14694-0.21291-0.26758-0.25976-0.03954-0.01517-0.08092-0.02502-0.12305-0.0293z" style="fill:#f16959"/>
 <path d="m36.727 24.256c-0.273-0.35406-0.57-0.67933-0.871-1.0035-1.621-1.75-3.48-3.3113-5.52-4.445-1.297-0.72092-2.691-1.3085-4.133-1.5869-0.734-0.1461-1.453-0.21649-2.207-0.22076-0.734 0-1.469 0.07465-2.203 0.22076-1.441 0.27941-2.828 0.86702-4.129 1.5869-2.039 1.1336-3.898 2.6949-5.52 4.445-0.301 0.32527-0.598 0.64947-0.871 1.0035-0.359 0.4671-0.359 1.0249 0 1.4909 0.832 1.0664 1.82 2.0209 2.82 2.8911 2.164 1.8748 4.637 3.4414 7.363 4.0738 0.844 0.19623 1.691 0.29114 2.543 0.28794 0.855 0 1.699-0.09598 2.543-0.28794 2.727-0.63347 5.203-2.2001 7.371-4.0738 1-0.87022 1.992-1.8204 2.82-2.8911 0.359-0.4671 0.359-1.0249 0-1.4909" style="fill:#f4845b"/>
 <path d="m40.03 7.531c3.712 4.084 5.969 9.514 5.969 15.469 0 12.703-10.297 23-23 23-5.954 0-11.384-2.256-15.469-5.969 4.178 4.291 10.01 6.969 16.469 6.969 12.703 0 23-10.298 23-23 0-6.462-2.677-12.291-6.969-16.469z" style="opacity:.1"/>
 <path d="m25 21c-2.762 0-5 2.238-5 5s2.238 5 5 5c2.416 0 4.4366-1.7174 4.9004-4h-2.0723c-0.4122 1.1647-1.5228 2-2.8281 2-1.656 0-3-1.34-3-3 0-1.656 1.34-3 3-3 1.3053 0 2.4159 0.83531 2.8281 2h2.0723c-0.46381-2.2826-2.4844-4-4.9004-4z" style="opacity:.1"/>
 <path d="m24 20c-2.762 0-5 2.238-5 5s2.238 5 5 5c2.416 0 4.4366-1.7174 4.9004-4h-2.0723c-0.4122 1.1647-1.5228 2-2.8281 2-1.656 0-3-1.34-3-3 0-1.656 1.34-3 3-3 1.3053 0 2.4159 0.83531 2.8281 2h2.0723c-0.46381-2.2826-2.4844-4-4.9004-4z" style="fill:#f9f9f9"/>
</svg>
