<svg xmlns="http://www.w3.org/2000/svg" viewBox="0 0 48 48">
 <defs>
  <linearGradient id="linearGradient3764" x1="1" x2="47" gradientUnits="userSpaceOnUse" gradientTransform="matrix(0,-1,1,0,-1.5e-6,47.999998)">
   <stop style="stop-color:#545454;stop-opacity:1"/>
   <stop offset="1" style="stop-color:#5e5e5e;stop-opacity:1"/>
  </linearGradient>
 </defs>
 <g>
  <path d="m 36.31 5 c 5.859 4.062 9.688 10.831 9.688 18.5 c 0 12.426 -10.07 22.5 -22.5 22.5 c -7.669 0 -14.438 -3.828 -18.5 -9.688 c 1.037 1.822 2.306 3.499 3.781 4.969 c 4.085 3.712 9.514 5.969 15.469 5.969 c 12.703 0 23 -10.298 23 -23 c 0 -5.954 -2.256 -11.384 -5.969 -15.469 c -1.469 -1.475 -3.147 -2.744 -4.969 -3.781 z m 4.969 3.781 c 3.854 4.113 6.219 9.637 6.219 15.719 c 0 12.703 -10.297 23 -23 23 c -6.081 0 -11.606 -2.364 -15.719 -6.219 c 4.16 4.144 9.883 6.719 16.219 6.719 c 12.703 0 23 -10.298 23 -23 c 0 -6.335 -2.575 -12.06 -6.719 -16.219 z" style="opacity:0.05"/>
  <path d="m 41.28 8.781 c 3.712 4.085 5.969 9.514 5.969 15.469 c 0 12.703 -10.297 23 -23 23 c -5.954 0 -11.384 -2.256 -15.469 -5.969 c 4.113 3.854 9.637 6.219 15.719 6.219 c 12.703 0 23 -10.298 23 -23 c 0 -6.081 -2.364 -11.606 -6.219 -15.719 z" style="opacity:0.1"/>
  <path d="m 31.25 2.375 c 8.615 3.154 14.75 11.417 14.75 21.13 c 0 12.426 -10.07 22.5 -22.5 22.5 c -9.708 0 -17.971 -6.135 -21.12 -14.75 a 23 23 0 0 0 44.875 -7 a 23 23 0 0 0 -16 -21.875 z" style="opacity:0.2"/>
 </g>
 <g>
  <path d="m 24 1 c 12.703 0 23 10.297 23 23 c 0 12.703 -10.297 23 -23 23 -12.703 0 -23 -10.297 -23 -23 0 -12.703 10.297 -23 23 -23 z" style="fill:url(#linearGradient3764);fill-opacity:1"/>
 </g>
 <g>
  <g>
   <g transform="translate(1,1)">
    <g style="opacity:0.1">
     <!-- color: #5e5e5e -->
     <g>
      <path d="m 95.47 -100.05 l 14.07 0.013 l -0.005 49.54 l -14.04 0 m -0.024 -49.548" transform="matrix(0.113819,-0.0523196,0.0504808,0.117966,8.660622,32.973342)" style="stroke-opacity:1;fill:#000;stroke-miterlimit:4;fill-opacity:1;stroke:#000;fill-rule:nonzero;stroke-linecap:round;stroke-linejoin:round;stroke-width:7.552"/>
      <path d="m -129.65 -200.19 l 14.07 0.013 l -0.005 49.54 l -14.07 -0.013 m 0.005 -49.54" transform="matrix(-0.113819,-0.0523196,-0.0504808,0.117966,8.660622,32.973342)" style="stroke-opacity:1;fill:#000;stroke-miterlimit:4;fill-opacity:1;stroke:#000;fill-rule:nonzero;stroke-linecap:round;stroke-linejoin:round;stroke-width:7.552"/>
      <path d="m 124.69 -109.77 l 15.03 -0.012 l -0.027 36.549 l -14.998 0.021 m -0.003 -36.558" transform="matrix(0.118563,-0.0394136,0.0380284,0.122881,8.660622,32.973342)" style="stroke-opacity:1;fill:#000;stroke-miterlimit:4;fill-opacity:1;stroke:#000;fill-rule:nonzero;stroke-linecap:round;stroke-linejoin:round;stroke-width:7.552"/>
      <path d="m -112.15 -185.7 l 15.02 0.017 l 0.003 36.558 l -15.02 -0.017 m -0.003 -36.558" transform="matrix(-0.118563,-0.0394136,-0.0380284,0.122881,8.660622,32.973342)" style="stroke-opacity:1;fill:#000;stroke-miterlimit:4;fill-opacity:1;stroke:#000;fill-rule:nonzero;stroke-linecap:round;stroke-linejoin:round;stroke-width:7.552"/>
      <path d="m 36.727 24.801 c -0.273 -0.332 -0.57 -0.637 -0.871 -0.941 c -1.621 -1.641 -3.48 -3.105 -5.52 -4.168 c -1.297 -0.676 -2.691 -1.227 -4.133 -1.488 c -0.734 -0.137 -1.453 -0.203 -2.207 -0.207 c -0.734 0 -1.469 0.07 -2.203 0.207 c -1.441 0.262 -2.828 0.813 -4.129 1.488 c -2.039 1.063 -3.898 2.527 -5.52 4.168 c -0.301 0.305 -0.598 0.609 -0.871 0.941 c -0.359 0.438 -0.359 0.961 0 1.398 c 0.832 1 1.82 1.895 2.82 2.711 c 2.164 1.758 4.637 3.227 7.363 3.82 c 0.844 0.184 1.691 0.273 2.543 0.27 c 0.855 0 1.699 -0.09 2.543 -0.27 c 2.727 -0.594 5.203 -2.063 7.371 -3.82 c 1 -0.816 1.992 -1.707 2.82 -2.711 c 0.359 -0.438 0.359 -0.961 0 -1.398 m -0.008 0" style="fill:#000;fill-opacity:1;stroke:none;fill-rule:nonzero"/>
     </g>
    </g>
   </g>
  </g>
 </g>
 <g transform="translate(2.5e-4,0)">
  <g>
   <!-- color: #5e5e5e -->
   <g>
    <path d="m 95.47 -100.05 14.07 0.013 -0.005 49.54 -14.04 0 m -0.024 -49.548" transform="matrix(0.113819,-0.0523196,0.0504808,0.117966,8.660622,32.973342)" style="stroke-opacity:1;fill:#f16959;stroke-miterlimit:4;fill-opacity:1;stroke:#f16959;fill-rule:nonzero;stroke-linecap:round;stroke-linejoin:round;stroke-width:7.552"/>
    <path d="m -129.65 -200.19 14.07 0.013 -0.005 49.54 -14.07 -0.013 m 0.005 -49.54" transform="matrix(-0.113819,-0.0523196,-0.0504808,0.117966,8.660622,32.973342)" style="stroke-opacity:1;fill:#f16959;stroke-miterlimit:4;fill-opacity:1;stroke:#f16959;fill-rule:nonzero;stroke-linecap:round;stroke-linejoin:round;stroke-width:7.552"/>
    <path d="m 124.69 -109.77 15.03 -0.012 -0.027 36.549 -14.998 0.021 m -0.003 -36.558" transform="matrix(0.118563,-0.0394136,0.0380284,0.122881,8.660622,32.973342)" style="stroke-opacity:1;fill:#f16959;stroke-miterlimit:4;fill-opacity:1;stroke:#f16959;fill-rule:nonzero;stroke-linecap:round;stroke-linejoin:round;stroke-width:7.552"/>
    <path d="m -112.15 -185.7 15.02 0.017 0.003 36.558 -15.02 -0.017 m -0.003 -36.558" transform="matrix(-0.118563,-0.0394136,-0.0380284,0.122881,8.660622,32.973342)" style="stroke-opacity:1;fill:#f16959;stroke-miterlimit:4;fill-opacity:1;stroke:#f16959;fill-rule:nonzero;stroke-linecap:round;stroke-linejoin:round;stroke-width:7.552"/>
    <path d="m 36.727 24.801 c -0.273 -0.332 -0.57 -0.637 -0.871 -0.941 -1.621 -1.641 -3.48 -3.105 -5.52 -4.168 -1.297 -0.676 -2.691 -1.227 -4.133 -1.488 -0.734 -0.137 -1.453 -0.203 -2.207 -0.207 -0.734 0 -1.469 0.07 -2.203 0.207 -1.441 0.262 -2.828 0.813 -4.129 1.488 -2.039 1.063 -3.898 2.527 -5.52 4.168 -0.301 0.305 -0.598 0.609 -0.871 0.941 -0.359 0.438 -0.359 0.961 0 1.398 0.832 1 1.82 1.895 2.82 2.711 2.164 1.758 4.637 3.227 7.363 3.82 0.844 0.184 1.691 0.273 2.543 0.27 0.855 0 1.699 -0.09 2.543 -0.27 2.727 -0.594 5.203 -2.063 7.371 -3.82 1 -0.816 1.992 -1.707 2.82 -2.711 0.359 -0.438 0.359 -0.961 0 -1.398 m -0.008 0" style="fill:#f4845b;fill-opacity:1;stroke:none;fill-rule:nonzero"/>
    <path d="m 29 25.516 c 0 2.762 -2.242 5 -5 5 -2.762 0 -5 -2.238 -5 -5 0 -2.762 2.238 -5 5 -5 2.758 0 5 2.238 5 5 m 0 0" style="fill:#f9f9f9;fill-opacity:1;stroke:none;fill-rule:nonzero"/>
    <path d="m 24 22.5 c -1.66 0 -3 1.344 -3 3 0 1.66 1.344 3 3 3 1.656 0 3 -1.344 3 -3 0 -1.656 -1.344 -3 -3 -3 m 0 0" style="fill:#f4845b;fill-opacity:1;stroke:none;fill-rule:nonzero"/>
    <path d="m 25.02 24.5 5 0 0 1.996 -5 0 c 0 -1 0 -1 0 -1.996 m 0 0" style="fill:#f4845b;fill-opacity:1;stroke:none;fill-rule:nonzero"/>
   </g>
  </g>
 </g>
 <g>
  <path d="m 40.03 7.531 c 3.712 4.084 5.969 9.514 5.969 15.469 0 12.703 -10.297 23 -23 23 c -5.954 0 -11.384 -2.256 -15.469 -5.969 4.178 4.291 10.01 6.969 16.469 6.969 c 12.703 0 23 -10.298 23 -23 0 -6.462 -2.677 -12.291 -6.969 -16.469 z" style="opacity:0.1"/>
 </g>
</svg>
