<svg version="1.1" viewBox="0 0 48 48" xmlns="http://www.w3.org/2000/svg">
 <defs>
  <linearGradient id="lG3764" x1="1" x2="47" gradientTransform="rotate(-90,24,24)" gradientUnits="userSpaceOnUse">
   <stop style="stop-color:#db3771" offset="0"/>
   <stop style="stop-color:#de487e" offset="1"/>
  </linearGradient>
 </defs>
 <path d="m36.3 5c5.86 4.06 9.69 10.8 9.69 18.5 0 12.4-10.1 22.5-22.5 22.5-7.67 0-14.4-3.83-18.5-9.69 1.04 1.82 2.31 3.5 3.78 4.97 4.08 3.71 9.51 5.97 15.5 5.97 12.7 0 23-10.3 23-23 0-5.95-2.26-11.4-5.97-15.5-1.47-1.48-3.15-2.74-4.97-3.78zm4.97 3.78c3.85 4.11 6.22 9.64 6.22 15.7 0 12.7-10.3 23-23 23-6.08 0-11.6-2.36-15.7-6.22 4.16 4.14 9.88 6.72 16.2 6.72 12.7 0 23-10.3 23-23 0-6.34-2.58-12.1-6.72-16.2z" style="opacity:.05"/>
 <path d="m41.3 8.78c3.71 4.08 5.97 9.51 5.97 15.5 0 12.7-10.3 23-23 23-5.95 0-11.4-2.26-15.5-5.97 4.11 3.85 9.64 6.22 15.7 6.22 12.7 0 23-10.3 23-23 0-6.08-2.36-11.6-6.22-15.7z" style="opacity:.1"/>
 <path d="m31.2 2.38c8.62 3.15 14.8 11.4 14.8 21.1 0 12.4-10.1 22.5-22.5 22.5-9.71 0-18-6.14-21.1-14.8a23 23 0 0 0 44.9-7 23 23 0 0 0-16-21.9z" style="opacity:.2"/>
 <path d="m24 1c12.7 0 23 10.3 23 23s-10.3 23-23 23-23-10.3-23-23 10.3-23 23-23z" style="fill:url(#lG3764)"/>
 <path d="m40 7.53c3.71 4.08 5.97 9.51 5.97 15.5 0 12.7-10.3 23-23 23-5.95 0-11.4-2.26-15.5-5.97 4.18 4.29 10 6.97 16.5 6.97 12.7 0 23-10.3 23-23 0-6.46-2.68-12.3-6.97-16.5z" style="opacity:.1"/>
 <path d="m15 16c-2.7 0-2.7 4 0 4h1.1c0.605 0 0.998 0.181 1.51 0.617 1.18 1 2.09 2.96 3.14 4.38l-4.65 5h-1.1c-2.7 0-2.7 4 0 4h1.1c1.64 0 3.07-0.694 4.1-1.57 2.43-2.07 3.31-5.43 4.78-5.43 1.53 0 2.3 3.27 4.88 5.44 1.04 0.871 2.46 1.56 4.1 1.56h0.995c2.7 0 2.7-4 0-4l-2.53-0.625c-1.19-1-2.13-2.96-3.19-4.38 1.06-1.42 2-3.37 3.19-4.38 0.524-0.441 0.93-0.625 1.54-0.625h0.995c2.7 0 2.7-4 0-4l-9.98 7c-1.53 0-2.22-3.25-4.78-5.43-1.03-0.876-2.46-1.57-4.1-1.57" style="opacity:.1"/>
 <path d="m14 15c-2.7 0-2.7 4 0 4h1.1c0.605 0 0.998 0.181 1.51 0.617 1.18 1 2.09 2.96 3.14 4.38-1.06 1.44-1.96 3.38-3.14 4.38-0.512 0.437-0.905 0.617-1.51 0.617h-1.1c-2.7 0-2.7 4 0 4h1.1c1.64 0 3.07-0.694 4.1-1.57 2.43-2.07 3.31-5.43 4.78-5.43 1.53 0 2.3 3.27 4.88 5.44 1.04 0.871 2.46 1.56 4.1 1.56h0.995c2.7 0 2.7-4 0-4h-0.995c-0.605 0-1.01-0.184-1.54-0.625-1.19-1-2.13-2.96-3.19-4.38 1.06-1.42 2-3.37 3.19-4.38 0.524-0.441 0.93-0.625 1.54-0.625h0.995c2.7 0 2.7-4 0-4h-0.995c-1.64 0-3.07 0.691-4.1 1.56-2.44 2.05-3.4 5.44-4.88 5.44-1.53 0-2.22-3.25-4.78-5.43-1.03-0.876-2.46-1.57-4.1-1.57" style="fill:#f9f9f9"/>
</svg>
