<svg xmlns="http://www.w3.org/2000/svg" viewBox="0 0 48 48">
 <defs>
  <linearGradient id="linearGradient3764" x1="1" x2="47" gradientUnits="userSpaceOnUse" gradientTransform="matrix(0,-1,1,0,-1.5e-6,47.999998)">
   <stop style="stop-color:#db3771;stop-opacity:1"/>
   <stop offset="1" style="stop-color:#de487e;stop-opacity:1"/>
  </linearGradient>
 </defs>
 <g>
  <path d="m 36.31 5 c 5.859 4.062 9.688 10.831 9.688 18.5 c 0 12.426 -10.07 22.5 -22.5 22.5 c -7.669 0 -14.438 -3.828 -18.5 -9.688 c 1.037 1.822 2.306 3.499 3.781 4.969 c 4.085 3.712 9.514 5.969 15.469 5.969 c 12.703 0 23 -10.298 23 -23 c 0 -5.954 -2.256 -11.384 -5.969 -15.469 c -1.469 -1.475 -3.147 -2.744 -4.969 -3.781 z m 4.969 3.781 c 3.854 4.113 6.219 9.637 6.219 15.719 c 0 12.703 -10.297 23 -23 23 c -6.081 0 -11.606 -2.364 -15.719 -6.219 c 4.16 4.144 9.883 6.719 16.219 6.719 c 12.703 0 23 -10.298 23 -23 c 0 -6.335 -2.575 -12.06 -6.719 -16.219 z" style="opacity:0.05"/>
  <path d="m 41.28 8.781 c 3.712 4.085 5.969 9.514 5.969 15.469 c 0 12.703 -10.297 23 -23 23 c -5.954 0 -11.384 -2.256 -15.469 -5.969 c 4.113 3.854 9.637 6.219 15.719 6.219 c 12.703 0 23 -10.298 23 -23 c 0 -6.081 -2.364 -11.606 -6.219 -15.719 z" style="opacity:0.1"/>
  <path d="m 31.25 2.375 c 8.615 3.154 14.75 11.417 14.75 21.13 c 0 12.426 -10.07 22.5 -22.5 22.5 c -9.708 0 -17.971 -6.135 -21.12 -14.75 a 23 23 0 0 0 44.875 -7 a 23 23 0 0 0 -16 -21.875 z" style="opacity:0.2"/>
 </g>
 <g>
  <path d="m 24 1 c 12.703 0 23 10.297 23 23 c 0 12.703 -10.297 23 -23 23 -12.703 0 -23 -10.297 -23 -23 0 -12.703 10.297 -23 23 -23 z" style="fill:url(#linearGradient3764);fill-opacity:1"/>
 </g>
 <g>
  <g>
   <g transform="translate(1,1)">
    <g style="opacity:0.1">
     <!-- color: #de487e -->
     <g>
      <path d="m 13.875 15 c -1.102 0.16 -1.977 1.305 -1.863 2.445 c 0.113 1.141 1.195 2.082 2.309 2.01 l 1.223 0 c 0.523 0 0.707 0.125 1.094 0.492 c 0.387 0.363 0.895 1.051 1.43 1.898 c 0.426 0.672 0.898 1.438 1.535 2.176 c -0.633 0.734 -1.113 1.512 -1.535 2.176 c -0.535 0.844 -1.043 1.496 -1.43 1.859 c -0.387 0.367 -0.57 0.492 -1.094 0.492 l -1.223 0 c -1.352 -0.043 -2.32 1.352 -2.32 2.457 c 0 1.102 1.254 1.895 2.32 2 l 1.223 0 c 1.625 0 3.141 -0.824 4.094 -1.723 c 0.953 -0.895 1.547 -1.895 2.082 -2.734 c 0.535 -0.848 0.941 -1.492 1.328 -1.859 c 0.34 -0.445 0.555 -0.566 0.953 -0.684 c 0.52 0 0.809 0.316 1.191 0.684 c 0.387 0.367 0.934 1.016 1.469 1.859 c 0.535 0.844 1.094 1.84 2.043 2.734 c 0.953 0.898 2.367 1.723 3.992 1.723 l 1.328 0 c 1.066 -0.105 1.973 -1.133 1.973 -2.23 c 0 -1.102 -0.906 -2.125 -1.973 -2.227 l -1.328 0 c -0.523 0 -0.707 -0.125 -1.094 -0.492 c -0.387 -0.363 -0.793 -1.02 -1.328 -1.859 c -0.434 -0.688 -0.895 -1.492 -1.57 -2.246 c 0.223 -0.246 0.438 -0.523 0.613 -0.773 c 1.012 -1.398 1.707 -2.68 2.285 -3.227 c 0.387 -0.363 0.57 -0.492 1.094 -0.492 l 1.328 0 c 1.066 -0.102 1.969 -1.129 1.969 -2.23 c 0 -1.102 -0.902 -2.125 -1.969 -2.227 l -1.328 0 c -1.621 0 -3.039 0.824 -3.992 1.719 c -1.43 1.344 -2.063 2.887 -2.762 3.855 c -0.703 0.973 -1.164 1.418 -1.945 1.418 c -1.09 -0.426 -1.727 -1.668 -2.281 -2.539 c -0.535 -0.844 -1.129 -1.84 -2.082 -2.734 c -0.953 -0.898 -2.469 -1.719 -4.094 -1.719 l -1.223 0 c -0.078 0 -0.16 0 -0.238 0 c -0.066 0 -0.141 0 -0.207 0 m 0.004 0" style="fill:#000;fill-opacity:1;stroke:none;fill-rule:nonzero"/>
     </g>
    </g>
   </g>
  </g>
 </g>
 <g>
  <g>
   <!-- color: #de487e -->
   <g>
    <path d="m 13.875 15 c -1.102 0.16 -1.977 1.305 -1.863 2.445 c 0.113 1.141 1.195 2.082 2.309 2.01 l 1.223 0 c 0.523 0 0.707 0.125 1.094 0.492 c 0.387 0.363 0.895 1.051 1.43 1.898 c 0.426 0.672 0.898 1.438 1.535 2.176 c -0.633 0.734 -1.113 1.512 -1.535 2.176 c -0.535 0.844 -1.043 1.496 -1.43 1.859 c -0.387 0.367 -0.57 0.492 -1.094 0.492 l -1.223 0 c -1.352 -0.043 -2.32 1.352 -2.32 2.457 c 0 1.102 1.254 1.895 2.32 2 l 1.223 0 c 1.625 0 3.141 -0.824 4.094 -1.723 c 0.953 -0.895 1.547 -1.895 2.082 -2.734 c 0.535 -0.848 0.941 -1.492 1.328 -1.859 c 0.34 -0.445 0.555 -0.566 0.953 -0.684 c 0.52 0 0.809 0.316 1.191 0.684 c 0.387 0.367 0.934 1.016 1.469 1.859 c 0.535 0.844 1.094 1.84 2.043 2.734 c 0.953 0.898 2.367 1.723 3.992 1.723 l 1.328 0 c 1.066 -0.105 1.973 -1.133 1.973 -2.23 c 0 -1.102 -0.906 -2.125 -1.973 -2.227 l -1.328 0 c -0.523 0 -0.707 -0.125 -1.094 -0.492 c -0.387 -0.363 -0.793 -1.02 -1.328 -1.859 c -0.434 -0.688 -0.895 -1.492 -1.57 -2.246 c 0.223 -0.246 0.438 -0.523 0.613 -0.773 c 1.012 -1.398 1.707 -2.68 2.285 -3.227 c 0.387 -0.363 0.57 -0.492 1.094 -0.492 l 1.328 0 c 1.066 -0.102 1.969 -1.129 1.969 -2.23 c 0 -1.102 -0.902 -2.125 -1.969 -2.227 l -1.328 0 c -1.621 0 -3.039 0.824 -3.992 1.719 c -1.43 1.344 -2.063 2.887 -2.762 3.855 c -0.703 0.973 -1.164 1.418 -1.945 1.418 c -1.09 -0.426 -1.727 -1.668 -2.281 -2.539 c -0.535 -0.844 -1.129 -1.84 -2.082 -2.734 c -0.953 -0.898 -2.469 -1.719 -4.094 -1.719 l -1.223 0 c -0.078 0 -0.16 0 -0.238 0 c -0.066 0 -0.141 0 -0.207 0 m 0.004 0" style="fill:#f9f9f9;fill-opacity:1;stroke:none;fill-rule:nonzero"/>
   </g>
  </g>
 </g>
 <g>
  <path d="m 40.03 7.531 c 3.712 4.084 5.969 9.514 5.969 15.469 0 12.703 -10.297 23 -23 23 c -5.954 0 -11.384 -2.256 -15.469 -5.969 4.178 4.291 10.01 6.969 16.469 6.969 c 12.703 0 23 -10.298 23 -23 0 -6.462 -2.677 -12.291 -6.969 -16.469 z" style="opacity:0.1"/>
 </g>
</svg>
