<svg xmlns="http://www.w3.org/2000/svg" viewBox="0 0 48 48">
 <defs>
  <linearGradient id="linearGradient3764" x1="1" x2="47" gradientUnits="userSpaceOnUse" gradientTransform="matrix(0,-1,1,0,-1.5e-6,47.999998)">
   <stop style="stop-color:#dbdbdb;stop-opacity:1"/>
   <stop offset="1" style="stop-color:#e5e5e5;stop-opacity:1"/>
  </linearGradient>
 </defs>
 <g>
  <path d="m 36.31 5 c 5.859 4.062 9.688 10.831 9.688 18.5 c 0 12.426 -10.07 22.5 -22.5 22.5 c -7.669 0 -14.438 -3.828 -18.5 -9.688 c 1.037 1.822 2.306 3.499 3.781 4.969 c 4.085 3.712 9.514 5.969 15.469 5.969 c 12.703 0 23 -10.298 23 -23 c 0 -5.954 -2.256 -11.384 -5.969 -15.469 c -1.469 -1.475 -3.147 -2.744 -4.969 -3.781 z m 4.969 3.781 c 3.854 4.113 6.219 9.637 6.219 15.719 c 0 12.703 -10.297 23 -23 23 c -6.081 0 -11.606 -2.364 -15.719 -6.219 c 4.16 4.144 9.883 6.719 16.219 6.719 c 12.703 0 23 -10.298 23 -23 c 0 -6.335 -2.575 -12.06 -6.719 -16.219 z" style="opacity:0.05"/>
  <path d="m 41.28 8.781 c 3.712 4.085 5.969 9.514 5.969 15.469 c 0 12.703 -10.297 23 -23 23 c -5.954 0 -11.384 -2.256 -15.469 -5.969 c 4.113 3.854 9.637 6.219 15.719 6.219 c 12.703 0 23 -10.298 23 -23 c 0 -6.081 -2.364 -11.606 -6.219 -15.719 z" style="opacity:0.1"/>
  <path d="m 31.25 2.375 c 8.615 3.154 14.75 11.417 14.75 21.13 c 0 12.426 -10.07 22.5 -22.5 22.5 c -9.708 0 -17.971 -6.135 -21.12 -14.75 a 23 23 0 0 0 44.875 -7 a 23 23 0 0 0 -16 -21.875 z" style="opacity:0.2"/>
 </g>
 <g>
  <path d="m 24 1 c 12.703 0 23 10.297 23 23 c 0 12.703 -10.297 23 -23 23 -12.703 0 -23 -10.297 -23 -23 0 -12.703 10.297 -23 23 -23 z" style="fill:url(#linearGradient3764);fill-opacity:1"/>
 </g>
 <g>
  <g>
   <g transform="translate(1,1)">
    <g style="opacity:0.1">
     <!-- color: #e5e5e5 -->
     <g>
      <path d="m 32.602 13 c -0.842 -0.062 -2.08 0.626 -3.404 2.615 l 0.016 0 -3.492 3.969 -5.123 -5.842 c -1.27 -1.01 -5.092 -0.234 -3.197 1.844 l 5.924 6.783 -7.553 10.91 c -2.045 4.684 0.397 4.078 1.898 2.775 0.655 0.457 1.312 0.224 1.967 0.018 0.016 -0.091 0.031 -0.181 0.047 -0.271 l 3.686 -1.088 c 0 0 3.399 -3.152 5.934 -5.498 l 2.504 2.867 c 0.832 0.211 4.639 -0.141 2.604 -2.59 l -2.424 -2.764 c 1.301 -1.206 2.087 -1.928 3 -2.777 0 0 0.192 -0.637 -0.979 -1.883 -0.85 -0.899 -1.478 -1.043 -1.738 -1.059 l -2.979 2.645 -1.74 -1.984 5.688 -5.895 c 0.877 -1.378 0.446 -2.696 -0.637 -2.775 m -7.549 11.348 1.563 1.789 c -2.546 2.363 -6.04 5.607 -6.04 5.607 l -1.203 3.266 c -0.247 0.16 -0.772 0.012 -0.816 0.012 z" transform="translate(-1,-1)" style="fill:#000;fill-opacity:1;stroke:none;fill-rule:nonzero"/>
     </g>
    </g>
   </g>
  </g>
 </g>
 <g>
  <g>
   <!-- color: #e5e5e5 -->
   <g>
    <path d="m 19.598 12.742 l 13.813 15.75 c 2.035 2.449 -1.773 2.801 -2.605 2.59 l -14.406 -16.496 c -1.895 -2.078 1.93 -2.852 3.199 -1.844 m 0 0" style="fill:#2d2d2d;fill-opacity:1;stroke:none;fill-rule:nonzero"/>
    <path d="m 28.21 14.617 l -5.676 6.453 l -7.762 11.211 c -2.559 5.863 1.937 3.457 2.781 1.742 l 6.645 -10.91 l 8.04 -8.336 c 1.559 -2.449 -1.012 -4.707 -4.04 -0.16 m 0 0" style="fill:#2d2d2d;fill-opacity:1;stroke:none;fill-rule:nonzero"/>
    <path d="m 16.555 33.922 c 1.168 0.223 1.582 0.313 2.305 -0.133 c -0.074 0.43 -0.148 0.855 -0.223 1.285 c -0.707 0.223 -1.418 0.488 -2.125 -0.133 m 0.043 -1.02" style="fill:#2d2d2d;fill-opacity:1;stroke:none;fill-rule:nonzero"/>
    <path d="m 31.27 20.01 -11.697 10.734 -1.57 4.258 l 4.367 -1.289 0.012 0.012 0.023 -0.023 0.004 0 11.578 -10.75 c 0 0 0.192 -0.637 -0.979 -1.883 -0.85 -0.899 -1.478 -1.043 -1.738 -1.059 z" style="fill:#3686dd;fill-opacity:1;stroke:none;fill-rule:nonzero"/>
   </g>
  </g>
 </g>
 <g>
  <path d="m 40.03 7.531 c 3.712 4.084 5.969 9.514 5.969 15.469 0 12.703 -10.297 23 -23 23 c -5.954 0 -11.384 -2.256 -15.469 -5.969 4.178 4.291 10.01 6.969 16.469 6.969 c 12.703 0 23 -10.298 23 -23 0 -6.462 -2.677 -12.291 -6.969 -16.469 z" style="opacity:0.1"/>
 </g>
</svg>
