<svg version="1.1" viewBox="0 0 48 48" xmlns="http://www.w3.org/2000/svg">
 <defs>
  <linearGradient id="bg" x2="0" y1="1" y2="47" gradientUnits="userSpaceOnUse">
   <stop style="stop-color:#3e7a71" offset="0"/>
   <stop style="stop-color:#376c64" offset="1"/>
  </linearGradient>
 </defs>
 <path d="m36.3 5c5.86 4.06 9.69 10.8 9.69 18.5 0 12.4-10.1 22.5-22.5 22.5-7.67 0-14.4-3.83-18.5-9.69 1.04 1.82 2.31 3.5 3.78 4.97 4.08 3.71 9.51 5.97 15.5 5.97 12.7 0 23-10.3 23-23 0-5.95-2.26-11.4-5.97-15.5-1.47-1.48-3.15-2.74-4.97-3.78zm4.97 3.78c3.85 4.11 6.22 9.64 6.22 15.7 0 12.7-10.3 23-23 23-6.08 0-11.6-2.36-15.7-6.22 4.16 4.14 9.88 6.72 16.2 6.72 12.7 0 23-10.3 23-23 0-6.34-2.58-12.1-6.72-16.2z" style="opacity:.05"/>
 <path d="m41.3 8.78c3.71 4.08 5.97 9.51 5.97 15.5 0 12.7-10.3 23-23 23-5.95 0-11.4-2.26-15.5-5.97 4.11 3.85 9.64 6.22 15.7 6.22 12.7 0 23-10.3 23-23 0-6.08-2.36-11.6-6.22-15.7z" style="opacity:.1"/>
 <path d="m31.2 2.38c8.62 3.15 14.8 11.4 14.8 21.1 0 12.4-10.1 22.5-22.5 22.5-9.71 0-18-6.14-21.1-14.8a23 23 0 0 0 44.9-7 23 23 0 0 0-16-21.9z" style="opacity:.2"/>
 <circle cx="24" cy="24" r="23" style="fill:url(#bg)"/>
 <path d="m12 19s5-2 13-2 13 2 13 2v12s-5 2-13 2-13-2-13-2z" style="opacity:.1"/>
 <path d="m40 7.53c3.71 4.08 5.97 9.51 5.97 15.5 0 12.7-10.3 23-23 23-5.95 0-11.4-2.26-15.5-5.97 4.18 4.29 10 6.97 16.5 6.97 12.7 0 23-10.3 23-23 0-6.46-2.68-12.3-6.97-16.5z" style="opacity:.1"/>
 <path d="m24 16c-8 0-13 2-13 2v9.17l24.1 3.42c1.2-0.332 1.88-0.596 1.88-0.596v-12s-5-2-13-2z" style="fill:#489ddb"/>
 <path d="m27.9 23c-0.49 0.0267-0.956 0.233-1.31 0.584l-2.05 2.05 0.467 4.36 4.45 1.68c2.45-0.291 4.39-0.729 5.68-1.09l-5.57-6.86c-0.357-0.44-0.884-0.707-1.45-0.736-0.0707-4e-3 -0.141-4e-3 -0.211 0z" style="fill:#198a63"/>
 <path d="m18.9 20c-0.49 0.0267-0.956 0.233-1.31 0.584l-6.59 6.59v2.83s5 2 13 2c2.02 0 3.84-0.128 5.45-0.318l-8.89-10.9c-0.357-0.44-0.884-0.707-1.45-0.736-0.0707-4e-3 -0.141-4e-3 -0.211 0z" style="fill:#a7db1a"/>
</svg>
