<svg xmlns="http://www.w3.org/2000/svg" viewBox="0 0 48 48">
 <defs>
  <linearGradient id="linearGradient3764" x1="1" x2="47" gradientUnits="userSpaceOnUse" gradientTransform="matrix(0,-1,1,0,-1.5e-6,47.999998)">
   <stop style="stop-color:#edd88f;stop-opacity:1"/>
   <stop offset="1" style="stop-color:#f0dea0;stop-opacity:1"/>
  </linearGradient>
 </defs>
 <g>
  <path d="m 36.31 5 c 5.859 4.062 9.688 10.831 9.688 18.5 c 0 12.426 -10.07 22.5 -22.5 22.5 c -7.669 0 -14.438 -3.828 -18.5 -9.688 c 1.037 1.822 2.306 3.499 3.781 4.969 c 4.085 3.712 9.514 5.969 15.469 5.969 c 12.703 0 23 -10.298 23 -23 c 0 -5.954 -2.256 -11.384 -5.969 -15.469 c -1.469 -1.475 -3.147 -2.744 -4.969 -3.781 z m 4.969 3.781 c 3.854 4.113 6.219 9.637 6.219 15.719 c 0 12.703 -10.297 23 -23 23 c -6.081 0 -11.606 -2.364 -15.719 -6.219 c 4.16 4.144 9.883 6.719 16.219 6.719 c 12.703 0 23 -10.298 23 -23 c 0 -6.335 -2.575 -12.06 -6.719 -16.219 z" style="opacity:0.05"/>
  <path d="m 41.28 8.781 c 3.712 4.085 5.969 9.514 5.969 15.469 c 0 12.703 -10.297 23 -23 23 c -5.954 0 -11.384 -2.256 -15.469 -5.969 c 4.113 3.854 9.637 6.219 15.719 6.219 c 12.703 0 23 -10.298 23 -23 c 0 -6.081 -2.364 -11.606 -6.219 -15.719 z" style="opacity:0.1"/>
  <path d="m 31.25 2.375 c 8.615 3.154 14.75 11.417 14.75 21.13 c 0 12.426 -10.07 22.5 -22.5 22.5 c -9.708 0 -17.971 -6.135 -21.12 -14.75 a 23 23 0 0 0 44.875 -7 a 23 23 0 0 0 -16 -21.875 z" style="opacity:0.2"/>
 </g>
 <g>
  <path d="m 24 1 c 12.703 0 23 10.297 23 23 c 0 12.703 -10.297 23 -23 23 -12.703 0 -23 -10.297 -23 -23 0 -12.703 10.297 -23 23 -23 z" style="fill:url(#linearGradient3764);fill-opacity:1"/>
 </g>
 <g>
  <g>
   <g transform="translate(1,1)">
    <g style="opacity:0.1">
     <!-- color: #eeeeee -->
     <g>
      <path d="m 18 13 c -1.105 0 -2 0.895 -2 2 l 0 4 c 0 1.105 0.895 2 2 2 -1.333 0 -2.667 0 -4 0 -1.105 0 -2 0.895 -2 2 l 0 4 c 0 1.105 0.895 2 2 2 1.333 0 2.667 0 4 0 -1.105 0 -2 0.895 -2 2 l 0 4 c 0 1.105 0.895 2 2 2 6 0 12 0 18 0 l 0 -8 -4.01 0 0 -8 4.01 0 0 -8 c -6 0 -12 0 -18 0" transform="translate(-1,-1)"/>
     </g>
    </g>
   </g>
  </g>
 </g>
 <g>
  <g>
   <!-- color: #eeeeee -->
   <g>
    <path d="m 17 28 c -1.105 0 -2 0.895 -2 2 l 0 4 c 0 1.105 0.895 2 2 2 6 0 12 0 18 0 l 0 -8 c -6 0 -12 0 -18 0" style="fill:#537f95;fill-opacity:1;stroke:none;fill-rule:nonzero"/>
    <path d="m 31.465 29 c -1.371 -0.001 -2.469 1.098 -2.469 2.469 l 0 1.063 c 0 1.371 1.098 2.471 2.469 2.471 l 3.531 0 0 -6 z" style="fill:#e1e1e1;fill-opacity:1;stroke:none;fill-rule:nonzero"/>
    <path d="m 31.465 29 c -0.809 0 -1.52 0.402 -1.969 1 l 5.5 0 l 0 -1 l -3.531 0 z m -2.406 2 c -0.027 0.148 -0.064 0.305 -0.064 0.469 l 0 0.531 l 6 0 l 0 -1 l -5.936 0 z m -0.002 2 c 0.074 0.375 0.219 0.703 0.438 1 l 5.5 0 l 0 -1 l -5.938 0 z" style="fill:#c4c4c4;fill-opacity:1;stroke:none;fill-rule:nonzero"/>
    <path d="m 13 20 c -1.105 0 -2 0.895 -2 2 l 0 4 c 0 1.105 0.895 2 2 2 l 17.998 0 0 -8 z" style="fill:#75744b;fill-opacity:1;stroke:none;fill-rule:nonzero"/>
    <path d="m 27.465 21 c -1.371 -0.001 -2.469 1.098 -2.469 2.469 l 0 1.063 c 0 1.371 1.098 2.471 2.469 2.471 l 3.531 0 0 -6 z" style="fill:#e1e1e1;fill-opacity:1;stroke:none;fill-rule:nonzero"/>
    <path d="m 27.465 21 c -0.809 0 -1.52 0.402 -1.969 1 l 5.5 0 l 0 -1 l -3.531 0 z m -2.406 2 c -0.027 0.148 -0.064 0.305 -0.064 0.469 l 0 0.531 l 6 0 l 0 -1 l -5.936 0 z m -0.002 2 c 0.074 0.375 0.219 0.703 0.438 1 l 5.5 0 l 0 -1 l -5.938 0 z" style="fill:#c4c4c4;fill-opacity:1;stroke:none;fill-rule:nonzero"/>
    <path d="m 17 12 c -1.105 0 -2 0.895 -2 2 l 0 4 c 0 1.105 0.895 2 2 2 6 0 12 0 18 0 l 0 -8 c -6 0 -12 0 -18 0" style="fill:#c49422;fill-opacity:1;stroke:none;fill-rule:nonzero"/>
    <path d="m 31.465 13 c -1.371 0 -2.469 1.098 -2.469 2.469 l 0 1.063 c 0 1.371 1.098 2.471 2.469 2.471 l 3.531 0 l 0 -6 l -3.531 -0.002 z" style="fill:#e1e1e1;fill-opacity:1;stroke:none;fill-rule:nonzero"/>
    <path d="m 31.465 13 c -0.809 0 -1.52 0.402 -1.969 1 l 5.5 0 l 0 -1 l -3.531 0 z m -2.406 2 c -0.027 0.148 -0.064 0.305 -0.064 0.469 l 0 0.531 l 6 0 l 0 -1 l -5.936 0 z m -0.002 2 c 0.074 0.375 0.219 0.703 0.438 1 l 5.5 0 l 0 -1 l -5.938 0 z" style="fill:#c4c4c4;fill-opacity:1;stroke:none;fill-rule:nonzero"/>
   </g>
  </g>
 </g>
 <g>
  <path d="m 40.03 7.531 c 3.712 4.084 5.969 9.514 5.969 15.469 0 12.703 -10.297 23 -23 23 c -5.954 0 -11.384 -2.256 -15.469 -5.969 4.178 4.291 10.01 6.969 16.469 6.969 c 12.703 0 23 -10.298 23 -23 0 -6.462 -2.677 -12.291 -6.969 -16.469 z" style="opacity:0.1"/>
 </g>
</svg>
