<?xml version="1.0" encoding="UTF-8"?>
<svg id="svg54" version="1.1" viewBox="0 0 48 48" xmlns="http://www.w3.org/2000/svg" xmlns:cc="http://creativecommons.org/ns#" xmlns:dc="http://purl.org/dc/elements/1.1/" xmlns:rdf="http://www.w3.org/1999/02/22-rdf-syntax-ns#">
 <metadata id="metadata58">
  <rdf:RDF>
   <cc:Work rdf:about="">
    <dc:format>image/svg+xml</dc:format>
    <dc:type rdf:resource="http://purl.org/dc/dcmitype/StillImage"/>
    <dc:title/>
   </cc:Work>
  </rdf:RDF>
 </metadata>
 <defs id="defs7">
  <linearGradient id="linearGradient3764" x1="1" x2="47" gradientTransform="matrix(0 -1 1 0 -1.5e-6 48)" gradientUnits="userSpaceOnUse">
   <stop id="stop2" style="stop-color:#48aee4" offset="0"/>
   <stop id="stop4" style="stop-color:#5ab6e6" offset="1"/>
  </linearGradient>
 </defs>
 <g id="g15">
  <path id="path9" d="m36.31 5c5.859 4.062 9.688 10.831 9.688 18.5 0 12.426-10.07 22.5-22.5 22.5-7.669 0-14.438-3.828-18.5-9.688 1.037 1.822 2.306 3.499 3.781 4.969 4.085 3.712 9.514 5.969 15.469 5.969 12.703 0 23-10.298 23-23 0-5.954-2.256-11.384-5.969-15.469-1.469-1.475-3.147-2.744-4.969-3.781zm4.969 3.781c3.854 4.113 6.219 9.637 6.219 15.719 0 12.703-10.297 23-23 23-6.081 0-11.606-2.364-15.719-6.219 4.16 4.144 9.883 6.719 16.219 6.719 12.703 0 23-10.298 23-23 0-6.335-2.575-12.06-6.719-16.219z" style="opacity:.05"/>
  <path id="path11" d="m41.28 8.781c3.712 4.085 5.969 9.514 5.969 15.469 0 12.703-10.297 23-23 23-5.954 0-11.384-2.256-15.469-5.969 4.113 3.854 9.637 6.219 15.719 6.219 12.703 0 23-10.298 23-23 0-6.081-2.364-11.606-6.219-15.719z" style="opacity:.1"/>
  <path id="path13" d="m31.25 2.375c8.615 3.154 14.75 11.417 14.75 21.13 0 12.426-10.07 22.5-22.5 22.5-9.708 0-17.971-6.135-21.12-14.75a23 23 0 0 0 44.875 -7 23 23 0 0 0 -16 -21.875z" style="opacity:.2"/>
 </g>
 <g id="g19">
  <path id="path17" d="m24 1c12.703 0 23 10.297 23 23s-10.297 23-23 23-23-10.297-23-23 10.297-23 23-23z" style="fill:url(#linearGradient3764)"/>
 </g>
 <g id="g35">
  <g id="g33">
   <g id="g31" transform="translate(1,1)">
    <g id="g29" style="opacity:.1">
     <g id="g27">
      <path id="path21" transform="translate(-1,-1)" d="m16 13c-1 0-1 0.461-1.25 1l-1.75 7c-0.0079 5.0278-4e-3 10.075-4e-3 15.11 0 0.492 0.395 0.887 0.887 0.887h22.23c0.492 0 0.887-0.395 0.887-0.887v-15.11l-1.75-7c-0.25-0.48-0.25-1-1.25-1z"/>
     </g>
    </g>
   </g>
  </g>
 </g>
 <g id="g52">
  <path id="path50" d="m40.03 7.531c3.712 4.084 5.969 9.514 5.969 15.469 0 12.703-10.297 23-23 23-5.954 0-11.384-2.256-15.469-5.969 4.178 4.291 10.01 6.969 16.469 6.969 12.703 0 23-10.298 23-23 0-6.462-2.677-12.291-6.969-16.469z" style="opacity:.1"/>
 </g>
 <g id="g4518" transform="translate(.004)">
  <g id="g48">
   <g id="g46">
    <g id="g44">
     <path id="path37" d="m15 12c-1 0-1 0.461-1.25 1l-1.75 7 12 3 12-3-1.75-7c-0.25-0.48-0.25-1-1.25-1z" style="fill:#f5f1e7"/>
     <path id="path39" d="m11.996 20v15.11c0 0.492 0.395 0.887 0.887 0.887h22.23c0.492 0 0.887-0.395 0.887-0.887v-15.11z" style="fill:#edeadb"/>
     <path id="path4528" d="m15 12c-1 0-1 0.461-1.25 1h8.6875l-0.375 6h-9.8125l-0.25 1h24l-0.25-1h-9.8125l-0.375-6h8.6875c-0.25-0.48-0.25-1-1.25-1h-10.5z" style="opacity:.15"/>
    </g>
   </g>
  </g>
  <path id="rect4489" d="m21 22-3 1.6154 4 5.1923v5.1923h4v-5.1923l4-5.1923-3-1.6154-3 4z" style="fill:#1b80b5"/>
  <rect id="rect4523" x="23.5" y="12" width="1" height="8" style="fill-opacity:.19608"/>
 </g>
</svg>
