<?xml version="1.0" encoding="UTF-8"?>
<svg version="1.1" viewBox="0 0 48 48" xmlns="http://www.w3.org/2000/svg">
 <defs>
  <linearGradient id="bg" x2="0" y1="1" y2="47" gradientUnits="userSpaceOnUse">
   <stop style="stop-color:#ebaf47" offset="0"/>
   <stop style="stop-color:#e9a735" offset="1"/>
  </linearGradient>
 </defs>
 <path d="m36.3 5c5.86 4.06 9.69 10.8 9.69 18.5 0 12.4-10.1 22.5-22.5 22.5-7.67 0-14.4-3.83-18.5-9.69 1.04 1.82 2.31 3.5 3.78 4.97 4.08 3.71 9.51 5.97 15.5 5.97 12.7 0 23-10.3 23-23 0-5.95-2.26-11.4-5.97-15.5-1.47-1.48-3.15-2.74-4.97-3.78zm4.97 3.78c3.85 4.11 6.22 9.64 6.22 15.7 0 12.7-10.3 23-23 23-6.08 0-11.6-2.36-15.7-6.22 4.16 4.14 9.88 6.72 16.2 6.72 12.7 0 23-10.3 23-23 0-6.34-2.58-12.1-6.72-16.2z" style="opacity:.05"/>
 <path d="m41.3 8.78c3.71 4.08 5.97 9.51 5.97 15.5 0 12.7-10.3 23-23 23-5.95 0-11.4-2.26-15.5-5.97 4.11 3.85 9.64 6.22 15.7 6.22 12.7 0 23-10.3 23-23 0-6.08-2.36-11.6-6.22-15.7z" style="opacity:.1"/>
 <path d="m31.2 2.38c8.62 3.15 14.8 11.4 14.8 21.1 0 12.4-10.1 22.5-22.5 22.5-9.71 0-18-6.14-21.1-14.8a23 23 0 0 0 44.9-7 23 23 0 0 0-16-21.9z" style="opacity:.2"/>
 <circle cx="24" cy="24" r="23" style="fill:url(#bg)"/>
 <path d="m22 12-5.99 5.17-4.01 1.03c0 0.197 1.95 2.75 5.37 2.8 0.393 0.437 0.862 0.815 1.38 1.12l-4.75 7.88c0 2.39 0.716 4.07 3 5.03 0.0097 1.64 0.829 2.97 2.75 2.97 1.7 0 3.06-0.625 3.75-1.55 0.69 0.922 2.05 1.55 3.75 1.55 1.86 0 2.69-1.25 2.74-2.82 4-1.36 6.01-4.52 6.01-10.2 0-0.552-0.448-1-1-1l-1.18 0.691c-0.334-1.59-1.07-2.69-1.82-2.69l-5.5 4-3.03-1c-0.29-0.278-0.471-0.612-0.471-1 0-0.487 0.141-0.863 0.471-1.17 2.6-0.602 4.53-2.75 4.53-5.33 0-3.04-2.69-5.5-6-5.5z" style="opacity:.1"/>
 <path d="m40 7.53c3.71 4.08 5.97 9.51 5.97 15.5 0 12.7-10.3 23-23 23-5.95 0-11.4-2.26-15.5-5.97 4.18 4.29 10 6.97 16.5 6.97 12.7 0 23-10.3 23-23 0-6.46-2.68-12.3-6.97-16.5z" style="opacity:.1"/>
 <path d="m16 34c0 1.66 0.817 3 2.75 3 1.7 0 3.06-0.625 3.75-1.55 0.69 0.922 2.05 1.55 3.75 1.55 1.93 0 2.75-1.34 2.75-3z" style="fill:#e1833d"/>
 <path d="m16 34c0 0.177 0.0122 0.351 0.0312 0.52 1.24 0.812 3.14 1.29 5.99 1.43 0.181-0.154 0.341-0.321 0.475-0.5 0.143 0.191 0.316 0.369 0.514 0.531 0.323 0.00744 0.641 0.0156 0.986 0.0156 1.76 0 3.33-0.145 4.7-0.457 0.202-0.451 0.299-0.978 0.299-1.54h-13z" style="opacity:.1"/>
 <path d="m34 23c-1 0-2 2-4 3l-4.5-1c-1.05 0-2.35-0.346-3.03-1l-5.11-0.77c-2.31 1.4-4.36 2.77-4.36 5.77 0 4 2 6 10 6s12-3 12-11c0-0.552-0.448-1-1-1z" style="fill:#f9f9f9"/>
 <path d="m17.7 21c0.231 0.358 0.318 0.749 0.318 1.2 0 0.389-0.253 0.716-0.641 1.03 1.13 0.295 2.64 0.77 4.14 0.77h0.971c-0.29-0.278-0.471-0.612-0.471-1 0-0.695 0.286-1.16 1-1.54z" style="fill:#dfbd16"/>
 <path d="m17.7 21c0.106 0.165 0.18 0.337 0.23 0.518 1.07 0.917 2.51 1.48 4.09 1.48 0-0.695 0.286-1.16 1-1.54zm15.7 2.25c-0.821 0.567-1.77 1.96-3.34 2.75l-7 3c0 1.66 1.1 4 4.5 4 3 0 6.5-3 6.5-6.5 0-1.28-0.265-2.43-0.656-3.25z" style="opacity:.1"/>
 <path d="m21 11c-3.31 0-6 2.46-6 5.5s2.69 5.5 6 5.5 6-2.46 6-5.5-2.69-5.5-6-5.5zm10 10c-0.552 0-0.753 0.506-1 1-1 2-3 3-4.5 3-2.5 0-3.5 1.5-3.5 3 0 1.66 1.1 4 4.5 4 3 0 6.5-3 6.5-6.5 0-2.5-1-4.5-2-4.5z" style="fill:#f0dd33"/>
 <path d="m21 16-1 1c0 0.552 0.448 1 1 1s1-0.448 1-1-0.448-1-1-1zm-4 1c-0.468 0-1.16 0.211-1.91 0.438 0.275 1.47 1.19 2.74 2.46 3.56 0.806-0.0207 1.45-0.509 1.45-0.998 0-1-1.33-2-2-3z" style="opacity:.1"/>
 <path d="m21 16a1 1 0 0 1-1 1 1 1 0 0 1-1-1 1 1 0 0 1 1-1 1 1 0 0 1 1 1z" style="fill:#666"/>
 <path d="m16 16c0.668 0.999 2 2 2 3 0 0.5-0.669 1-1.5 1-3.5 0.016-5.5-2.6-5.5-2.8 0-0.1 0-0.2 0.5-0.2 1.5-0.049 3.5-1 4.5-1z" style="fill:#e1833d"/>
</svg>
