<svg xmlns="http://www.w3.org/2000/svg" viewBox="0 0 48 48">
 <defs>
  <linearGradient id="linearGradient3764" y1="47" x2="0" y2="1" gradientUnits="userSpaceOnUse">
   <stop style="stop-color:#ff8585;stop-opacity:1"/>
   <stop offset="1" style="stop-color:#f99;stop-opacity:1"/>
  </linearGradient>
 </defs>
 <g>
  <path d="m 36.31 5 c 5.859 4.062 9.688 10.831 9.688 18.5 c 0 12.426 -10.07 22.5 -22.5 22.5 c -7.669 0 -14.438 -3.828 -18.5 -9.688 c 1.037 1.822 2.306 3.499 3.781 4.969 c 4.085 3.712 9.514 5.969 15.469 5.969 c 12.703 0 23 -10.298 23 -23 c 0 -5.954 -2.256 -11.384 -5.969 -15.469 c -1.469 -1.475 -3.147 -2.744 -4.969 -3.781 z m 4.969 3.781 c 3.854 4.113 6.219 9.637 6.219 15.719 c 0 12.703 -10.297 23 -23 23 c -6.081 0 -11.606 -2.364 -15.719 -6.219 c 4.16 4.144 9.883 6.719 16.219 6.719 c 12.703 0 23 -10.298 23 -23 c 0 -6.335 -2.575 -12.06 -6.719 -16.219 z" style="opacity:0.05"/>
  <path d="m 41.28 8.781 c 3.712 4.085 5.969 9.514 5.969 15.469 c 0 12.703 -10.297 23 -23 23 c -5.954 0 -11.384 -2.256 -15.469 -5.969 c 4.113 3.854 9.637 6.219 15.719 6.219 c 12.703 0 23 -10.298 23 -23 c 0 -6.081 -2.364 -11.606 -6.219 -15.719 z" style="opacity:0.1"/>
  <path d="m 31.25 2.375 c 8.615 3.154 14.75 11.417 14.75 21.13 c 0 12.426 -10.07 22.5 -22.5 22.5 c -9.708 0 -17.971 -6.135 -21.12 -14.75 a 23 23 0 0 0 44.875 -7 a 23 23 0 0 0 -16 -21.875 z" style="opacity:0.2"/>
 </g>
 <g>
  <path d="m 24 1 c 12.703 0 23 10.297 23 23 c 0 12.703 -10.297 23 -23 23 -12.703 0 -23 -10.297 -23 -23 0 -12.703 10.297 -23 23 -23 z" style="fill:url(#linearGradient3764);fill-opacity:1"/>
 </g>
 <g>
  <g>
   <g transform="translate(1,1)">
    <g style="opacity:0.1">
     <!-- color: #ff9999 -->
     <g>
      <path d="m 17.5 12 c -3.039 0 -5.5 2.461 -5.5 5.5 c 0 3.039 2.461 5.5 5.5 5.5 c 3.039 0 5.5 -2.461 5.5 -5.5 c 0 -3.039 -2.461 -5.5 -5.5 -5.5 m 0 0" style="fill:#000;fill-opacity:1;stroke:none;fill-rule:nonzero"/>
      <path d="m 30.5 12 c -3.039 0 -5.5 2.461 -5.5 5.5 c 0 3.039 2.461 5.5 5.5 5.5 c 3.039 0 5.5 -2.461 5.5 -5.5 c 0 -3.039 -2.461 -5.5 -5.5 -5.5 m 0 0" style="fill:#000;fill-opacity:1;stroke:none;fill-rule:nonzero"/>
      <path d="m 12 26 l 0 4 l 4 0 l 0 -4 m 1 0 l 0 4 l 4 0 l 0 -4 m 1 0 l 0 4 l 4 0 l 0 -4 m 1 0 l 0 4 l 4 0 l 0 -4 m 1 0 l 0 4 l 4 0 l 0 -4 m -24 5 l 0 5 l 4 0 l 0 -5 m 1 0 l 0 5 l 4 0 l 0 -5 m 1 0 l 0 5 l 4 0 l 0 -5 m 1 0 l 0 5 l 4 0 l 0 -5 m 1 0 l 0 5 l 4 0 l 0 -5 m -4 0" style="fill:#000;fill-opacity:1;stroke:none;fill-rule:nonzero"/>
     </g>
    </g>
   </g>
  </g>
 </g>
 <g>
  <g>
   <!-- color: #ff9999 -->
   <g>
    <path d="M 17.5,12 C 14.461,12 12,14.461 12,17.5 12,20.539 14.461,23 17.5,23 20.539,23 23,20.539 23,17.5 23,14.461 20.539,12 17.5,12 m 0,0" style="fill:#f65f44;fill-opacity:1;stroke:none;fill-rule:nonzero"/>
    <path d="M 30.5,12 C 27.461,12 25,14.461 25,17.5 25,20.539 27.461,23 30.5,23 33.539,23 36,20.539 36,17.5 36,14.461 33.539,12 30.5,12 m 0,0" style="fill:#f65f44;fill-opacity:1;stroke:none;fill-rule:nonzero"/>
    <path d="M 19,17.5 C 19,18.328 18.328,19 17.5,19 16.672,19 16,18.328 16,17.5 16,16.672 16.672,16 17.5,16 c 0.828,0 1.5,0.672 1.5,1.5 m 0,0" style="fill:#2d2d2d;fill-opacity:0.502;stroke:none;fill-rule:nonzero"/>
    <path d="M 32,17.5 C 32,18.328 31.328,19 30.5,19 29.672,19 29,18.328 29,17.5 29,16.672 29.672,16 30.5,16 c 0.828,0 1.5,0.672 1.5,1.5 m 0,0" style="fill:#2d2d2d;fill-opacity:0.502;stroke:none;fill-rule:nonzero"/>
    <path d="m 12 26 0 4 4 0 0 -4 m 1 0 0 4 4 0 0 -4 m 1 0 0 4 4 0 0 -4 m 1 0 0 4 4 0 0 -4 m 1 0 0 4 4 0 0 -4 m -24 5 0 5 4 0 0 -5 m 1 0 0 5 4 0 0 -5 m 1 0 0 5 4 0 0 -5 m 1 0 0 5 4 0 0 -5 m 1 0 0 5 4 0 0 -5 m -4 0" style="fill:#fff;fill-opacity:1;stroke:none;fill-rule:nonzero"/>
   </g>
  </g>
 </g>
 <g>
  <path d="m 40.03 7.531 c 3.712 4.084 5.969 9.514 5.969 15.469 0 12.703 -10.297 23 -23 23 c -5.954 0 -11.384 -2.256 -15.469 -5.969 4.178 4.291 10.01 6.969 16.469 6.969 c 12.703 0 23 -10.298 23 -23 0 -6.462 -2.677 -12.291 -6.969 -16.469 z" style="opacity:0.1"/>
 </g>
</svg>
