<svg xmlns="http://www.w3.org/2000/svg" viewBox="0 0 48 48">
 <g>
  <path d="m 36.31 5 c 5.859 4.062 9.688 10.831 9.688 18.5 c 0 12.426 -10.07 22.5 -22.5 22.5 c -7.669 0 -14.438 -3.828 -18.5 -9.688 c 1.037 1.822 2.306 3.499 3.781 4.969 c 4.085 3.712 9.514 5.969 15.469 5.969 c 12.703 0 23 -10.298 23 -23 c 0 -5.954 -2.256 -11.384 -5.969 -15.469 c -1.469 -1.475 -3.147 -2.744 -4.969 -3.781 z m 4.969 3.781 c 3.854 4.113 6.219 9.637 6.219 15.719 c 0 12.703 -10.297 23 -23 23 c -6.081 0 -11.606 -2.364 -15.719 -6.219 c 4.16 4.144 9.883 6.719 16.219 6.719 c 12.703 0 23 -10.298 23 -23 c 0 -6.335 -2.575 -12.06 -6.719 -16.219 z" style="opacity:0.05"/>
  <path d="m 41.28 8.781 c 3.712 4.085 5.969 9.514 5.969 15.469 c 0 12.703 -10.297 23 -23 23 c -5.954 0 -11.384 -2.256 -15.469 -5.969 c 4.113 3.854 9.637 6.219 15.719 6.219 c 12.703 0 23 -10.298 23 -23 c 0 -6.081 -2.364 -11.606 -6.219 -15.719 z" style="opacity:0.1"/>
  <path d="m 31.25 2.375 c 8.615 3.154 14.75 11.417 14.75 21.13 c 0 12.426 -10.07 22.5 -22.5 22.5 c -9.708 0 -17.971 -6.135 -21.12 -14.75 a 23 23 0 0 0 44.875 -7 a 23 23 0 0 0 -16 -21.875 z" style="opacity:0.2"/>
 </g>
 <path d="m 12,20 c 1.203,3.988 9.961,4.934 12.004,3.997 C 33,9 41,28 42.817,37.216 c 2.631,-3.74 4.188,-8.298 4.188,-13.219 0,-6.685 -2.853,-12.704 -7.406,-16.906 C 24.854453,-1.8400191 12,8 12,20" style="fill:#b0c6de;fill-opacity:1;stroke:none;fill-rule:evenodd"/>
 <path d="m 24 1 c -8.465 0 -15.851 4.564 -19.844 11.375 -5.504 14.971 17.04 22.352 19.844 11.625 -2.043 0.938 -8.609 -0.855 -9.813 -4.844 -1.262 -9.27 5.977 -12.93 14.625 -13.875 3.857 -0.421 7.48 0.271 10.75 1.781 -4.095 -3.765 -9.56 -6.06 -15.563 -6.06" style="fill:#ed8e68;fill-opacity:1;stroke:none;fill-rule:evenodd"/>
 <path d="m 31.31 17.813 c -4.04 -0.02 -6.711 3.918 -7.313 6.188 3.218 8.174 -5.919 16.502 -15.562 16.942 4.095 3.765 9.56 6.06 15.563 6.06 7.782 0 14.651 -3.866 18.813 -9.781 0.763 -7.928 -3.521 -15.823 -8.5 -18.688 -1.066 -0.496 -2.07 -0.715 -3 -0.719 z" style="fill:#86dd95;fill-opacity:1;stroke:none;fill-rule:nonzero"/>
 <path d="m 4.156 12.375 c -1.999 3.409 -3.156 7.387 -3.156 11.625 c 0 6.701 2.865 12.734 7.438 16.938 3.271 1.511 6.892 2.202 10.75 1.781 8.648 -0.945 14.762 -7.879 13.5 -17.16 -0.084 -0.247 -0.197 -0.481 -0.281 -0.688 -1.692 -2.384 -6.331 -2.741 -8.346 -0.907 0.008 -0.004 -0.027 -0.004 -0.031 0 -0.008 0.004 -0.02 0.027 -0.031 0.031 c -0.734 2.793 -7.719 5.262 -13.406 2.625 -4.466 -2.563 -7.137 -8.03 -6.438 -14.25" style="fill:#f3f275;fill-opacity:1;stroke:none;fill-rule:nonzero"/>
 <g>
  <path d="m 40.03 7.531 c 3.712 4.084 5.969 9.514 5.969 15.469 0 12.703 -10.297 23 -23 23 c -5.954 0 -11.384 -2.256 -15.469 -5.969 4.178 4.291 10.01 6.969 16.469 6.969 c 12.703 0 23 -10.298 23 -23 0 -6.462 -2.677 -12.291 -6.969 -16.469 z" style="opacity:0.1"/>
 </g>
</svg>
