<svg version="1.1" viewBox="0 0 48 48" xmlns="http://www.w3.org/2000/svg">
 <defs>
  <linearGradient id="bg" x2="0" y1="47" y2="1" gradientUnits="userSpaceOnUse">
   <stop style="stop-color:#c9c9df" offset="0"/>
   <stop style="stop-color:#d5d5e7" offset="1"/>
  </linearGradient>
 </defs>
 <path d="m36.3 5c5.86 4.06 9.69 10.8 9.69 18.5 0 12.4-10.1 22.5-22.5 22.5-7.67 0-14.4-3.83-18.5-9.69 1.04 1.82 2.31 3.5 3.78 4.97 4.08 3.71 9.51 5.97 15.5 5.97 12.7 0 23-10.3 23-23 0-5.95-2.26-11.4-5.97-15.5-1.47-1.48-3.15-2.74-4.97-3.78zm4.97 3.78c3.85 4.11 6.22 9.64 6.22 15.7 0 12.7-10.3 23-23 23-6.08 0-11.6-2.36-15.7-6.22 4.16 4.14 9.88 6.72 16.2 6.72 12.7 0 23-10.3 23-23 0-6.34-2.58-12.1-6.72-16.2z" style="opacity:.05"/>
 <path d="m41.3 8.78c3.71 4.08 5.97 9.51 5.97 15.5 0 12.7-10.3 23-23 23-5.95 0-11.4-2.26-15.5-5.97 4.11 3.85 9.64 6.22 15.7 6.22 12.7 0 23-10.3 23-23 0-6.08-2.36-11.6-6.22-15.7z" style="opacity:.1"/>
 <path d="m31.2 2.38c8.62 3.15 14.8 11.4 14.8 21.1 0 12.4-10.1 22.5-22.5 22.5-9.71 0-18-6.14-21.1-14.8a23 23 0 0 0 44.9-7 23 23 0 0 0-16-21.9z" style="opacity:.2"/>
 <path d="m24 1c12.7 0 23 10.3 23 23s-10.3 23-23 23-23-10.3-23-23 10.3-23 23-23z" style="fill:url(#bg)"/>
 <path d="m40 7.53c3.71 4.08 5.97 9.51 5.97 15.5 0 12.7-10.3 23-23 23-5.95 0-11.4-2.26-15.5-5.97 4.18 4.29 10 6.97 16.5 6.97 12.7 0 23-10.3 23-23 0-6.46-2.68-12.3-6.97-16.5z" style="opacity:.1"/>
 <path d="m21.6 13c-0.886 0-1.6 0.669-1.6 1.5v9.5h1v-9h8v9h1v-9.5c0-0.831-0.713-1.5-1.6-1.5h-6.8zm2.9 3.5v0.809a2.25 2.25 0 0 0-0.695 0.289l-0.572-0.572-0.707 0.707 0.57 0.57a2.25 2.25 0 0 0-0.287 0.697h-0.809v1h0.809a2.25 2.25 0 0 0 0.289 0.695l-0.572 0.572 0.707 0.707 0.572-0.572a2.25 2.25 0 0 0 0.695 0.289v0.809h1v-0.809a2.25 2.25 0 0 0 0.695-0.289l0.572 0.572 0.707-0.707-0.57-0.57a2.25 2.25 0 0 0 0.287-0.697h0.809v-1h-0.809a2.25 2.25 0 0 0-0.289-0.695l0.572-0.572-0.707-0.707-0.57 0.57a2.25 2.25 0 0 0-0.697-0.287v-0.809zm-11 0.5a1 1 0 0 0-1 1 1 1 0 0 0 0.5 0.865v7.74a2.5 2.5 0 0 0-0.5 1.5 2.5 2.5 0 0 0 2.5 2.5v4.87c4 2.04 16 2.04 20-0.029v-4.84a2.5 2.5 0 0 0 2.5-2.5 2.5 2.5 0 0 0-0.5-1.5v-7.74a1 1 0 0 0 0.5-0.865 1 1 0 0 0-1-1 1 1 0 0 0-1 1 1 1 0 0 0 0.5 0.863v6.95a2.5 2.5 0 0 0-1-0.211v-2.1c0-1.38-1.12-2.5-2.5-2.5h-1.5v2c0.554 0 1 0.446 1 1s-0.446 1-1 1h-12c-0.554 0-1-0.446-1-1s0.446-1 1-1v-2h-1.5c-1.38 0-2.5 1.12-2.5 2.5v2.1a2.5 2.5 0 0 0-1 0.211v-6.95a1 1 0 0 0 0.5-0.863 1 1 0 0 0-1-1m11.5 1.25a1.25 1.25 0 0 1 1.25 1.25 1.25 1.25 0 0 1-1.25 1.25 1.25 1.25 0 0 1-1.25-1.25 1.25 1.25 0 0 1 1.25-1.25m-4 8.75c1.38 0 2.5 1.12 2.5 2.5s-1.12 2.5-2.5 2.5-2.5-1.12-2.5-2.5 1.12-2.5 2.5-2.5zm8 0c1.38 0 2.5 1.12 2.5 2.5s-1.12 2.5-2.5 2.5-2.5-1.12-2.5-2.5 1.12-2.5 2.5-2.5z" style="fill-opacity:.098"/>
 <path d="m20.6 12c-0.886 0-1.6 0.669-1.6 1.5v9.5h1v-9h8v9h1v-9.5c0-0.831-0.713-1.5-1.6-1.5h-6.8zm-8.1 4a1 1 0 0 0-1 1 1 1 0 0 0 0.5 0.865v7.74a2.5 2.5 0 0 0-0.5 1.5 2.5 2.5 0 0 0 2.5 2.5v4.87c4 2.04 16 2.04 20-0.0293v-4.84a2.5 2.5 0 0 0 2.5-2.5 2.5 2.5 0 0 0-0.5-1.5v-7.74a1 1 0 0 0 0.5-0.865 1 1 0 0 0-1-1 1 1 0 0 0-1 1 1 1 0 0 0 0.5 0.863v6.95a2.5 2.5 0 0 0-1-0.211v-2.1c0-1.38-1.12-2.5-2.5-2.5h-1.5v2c0.554 0 1 0.446 1 1s-0.446 1-1 1h-12c-0.554 0-1-0.446-1-1s0.446-1 1-1v-2h-1.5c-1.38 0-2.5 1.12-2.5 2.5v2.1a2.5 2.5 0 0 0-1 0.211v-6.95a1 1 0 0 0 0.5-0.863 1 1 0 0 0-1-1zm7.5 10c1.38 0 2.5 1.12 2.5 2.5s-1.12 2.5-2.5 2.5-2.5-1.12-2.5-2.5 1.12-2.5 2.5-2.5zm8 0c1.38 0 2.5 1.12 2.5 2.5s-1.12 2.5-2.5 2.5-2.5-1.12-2.5-2.5 1.12-2.5 2.5-2.5z" style="fill:#4d4d4d"/>
 <path d="m23.5 15.5v0.809a2.25 2.25 0 0 0-0.699 0.291l-0.568-0.568-0.707 0.707 0.568 0.568a2.25 2.25 0 0 0-0.285 0.693h-0.809v1h0.809a2.25 2.25 0 0 0 0.289 0.695l-0.572 0.572 0.707 0.707 0.572-0.572a2.25 2.25 0 0 0 0.695 0.289v0.809h1v-0.809a2.25 2.25 0 0 0 0.691-0.287l0.576 0.576 0.707-0.707-0.574-0.574a2.25 2.25 0 0 0 0.291-0.699h0.809v-1h-0.809a2.25 2.25 0 0 0-0.285-0.693l0.568-0.568-0.707-0.707-0.566 0.566a2.25 2.25 0 0 0-0.701-0.289v-0.809zm0.5 1.75a1.25 1.25 0 0 1 1.25 1.25 1.25 1.25 0 0 1-1.25 1.25 1.25 1.25 0 0 1-1.25-1.25 1.25 1.25 0 0 1 1.25-1.25z" style="fill:#b56533"/>
</svg>
