<svg xmlns="http://www.w3.org/2000/svg" xmlns:xlink="http://www.w3.org/1999/xlink" viewBox="0 0 48 48">
 <defs>
  <linearGradient id="linearGradient3764" x1="1" x2="47" gradientUnits="userSpaceOnUse" gradientTransform="matrix(0,-1,1,0,-1.5e-6,47.999998)">
   <stop style="stop-color:#4b4b4b;stop-opacity:1"/>
   <stop offset="1" style="stop-color:#555;stop-opacity:1"/>
  </linearGradient>
  <linearGradient id="linearGradient4375" y1="34" x2="0" y2="20" gradientUnits="userSpaceOnUse">
   <stop style="stop-color:#db4ddb;stop-opacity:1"/>
   <stop offset="1" style="stop-color:#db4ddb;stop-opacity:0.6"/>
  </linearGradient>
  <linearGradient id="linearGradient4388" y1="34" x2="0" y2="14" gradientUnits="userSpaceOnUse">
   <stop style="stop-color:#c52f2f;stop-opacity:1"/>
   <stop offset="1" style="stop-color:#c52f2f;stop-opacity:0.4"/>
  </linearGradient>
  <linearGradient id="linearGradient4404" gradientUnits="userSpaceOnUse" y1="34" x2="0" y2="26" gradientTransform="translate(10,0)">
   <stop style="stop-color:#7fcf5b;stop-opacity:1"/>
   <stop offset="1" style="stop-color:#7fcf5b;stop-opacity:0.8"/>
  </linearGradient>
  <linearGradient id="linearGradient4420" y1="34" x2="0" y2="17" gradientUnits="userSpaceOnUse">
   <stop style="stop-color:#3e8ded;stop-opacity:1"/>
   <stop offset="1" style="stop-color:#3e8ded;stop-opacity:0.502"/>
  </linearGradient>
  <linearGradient xlink:href="#linearGradient4375" id="linearGradient4250" gradientUnits="userSpaceOnUse" y1="34" x2="0" y2="20" gradientTransform="translate(5,0)"/>
  <linearGradient xlink:href="#linearGradient4420" id="linearGradient4252" gradientUnits="userSpaceOnUse" y1="34" x2="0" y2="17" gradientTransform="translate(5,0)"/>
  <linearGradient id="linearGradient4256" gradientUnits="userSpaceOnUse" y1="34" x2="0" y2="20" gradientTransform="translate(5,0)">
   <stop style="stop-color:#e4c82f;stop-opacity:1"/>
   <stop offset="1" style="stop-color:#e4c82f;stop-opacity:0.6"/>
  </linearGradient>
  <linearGradient id="linearGradient4264" y1="34" x2="0" y2="23" gradientUnits="userSpaceOnUse">
   <stop style="stop-color:#ec8e19;stop-opacity:1"/>
   <stop offset="1" style="stop-color:#ec8e19;stop-opacity:0.51"/>
  </linearGradient>
  <linearGradient xlink:href="#linearGradient4388" id="linearGradient4292" y1="34" x2="0" y2="14" gradientUnits="userSpaceOnUse"/>
 </defs>
 <g>
  <path d="m 36.31 5 c 5.859 4.062 9.688 10.831 9.688 18.5 c 0 12.426 -10.07 22.5 -22.5 22.5 c -7.669 0 -14.438 -3.828 -18.5 -9.688 c 1.037 1.822 2.306 3.499 3.781 4.969 c 4.085 3.712 9.514 5.969 15.469 5.969 c 12.703 0 23 -10.298 23 -23 c 0 -5.954 -2.256 -11.384 -5.969 -15.469 c -1.469 -1.475 -3.147 -2.744 -4.969 -3.781 z m 4.969 3.781 c 3.854 4.113 6.219 9.637 6.219 15.719 c 0 12.703 -10.297 23 -23 23 c -6.081 0 -11.606 -2.364 -15.719 -6.219 c 4.16 4.144 9.883 6.719 16.219 6.719 c 12.703 0 23 -10.298 23 -23 c 0 -6.335 -2.575 -12.06 -6.719 -16.219 z" style="opacity:0.05"/>
  <path d="m 41.28 8.781 c 3.712 4.085 5.969 9.514 5.969 15.469 c 0 12.703 -10.297 23 -23 23 c -5.954 0 -11.384 -2.256 -15.469 -5.969 c 4.113 3.854 9.637 6.219 15.719 6.219 c 12.703 0 23 -10.298 23 -23 c 0 -6.081 -2.364 -11.606 -6.219 -15.719 z" style="opacity:0.1"/>
  <path d="m 31.25 2.375 c 8.615 3.154 14.75 11.417 14.75 21.13 c 0 12.426 -10.07 22.5 -22.5 22.5 c -9.708 0 -17.971 -6.135 -21.12 -14.75 a 23 23 0 0 0 44.875 -7 a 23 23 0 0 0 -16 -21.875 z" style="opacity:0.2"/>
 </g>
 <g>
  <path d="m 24 1 c 12.703 0 23 10.297 23 23 c 0 12.703 -10.297 23 -23 23 -12.703 0 -23 -10.297 -23 -23 0 -12.703 10.297 -23 23 -23 z" style="fill:url(#linearGradient3764);fill-opacity:1"/>
  <path d="m 13 15 l 0 2 l 4 0 l 0 -2 l -4 0 z m 30 0 l 0 2 l 2.912 0 c -0.217 -0.681 -0.463 -1.349 -0.74 -2 l -2.172 0 z m -40 3 l 0 2 l 4 0 l 0 -2 l -4 0 z m 10 0 l 0 2 l 4 0 l 0 -2 l -4 0 z m 20 0 l 0 2 l 4 0 l 0 -2 l -4 0 z m 10 0 l 0 2 l 3.646 0 c -0.119 -0.677 -0.265 -1.345 -0.441 -2 l -3.205 0 z m -40 3 l 0 2 l 4 0 l 0 -2 l -4 0 z m 5 0 l 0 2 l 4 0 l 0 -2 l -4 0 z m 5 0 l 0 2 l 4 0 l 0 -2 l -4 0 z m 10 0 l 0 2 l 4 0 l 0 -2 l -4 0 z m 10 0 l 0 2 l 4 0 l 0 -2 l -4 0 z m 5 0 l 0 2 l 4 0 l 0 -2 l -4 0 z m 5 0 l 0 2 l 3.975 0 c -0.029 -0.67 -0.089 -1.332 -0.174 -1.986 c -0.001 -0.005 -0.001 -0.009 -0.002 -0.014 l -3.799 0 z m -40 3 l 0 2 l 4 0 l 0 -2 l -4 0 z m 5 0 l 0 2 l 4 0 l 0 -2 l -4 0 z m 5 0 l 0 2 l 4 0 l 0 -2 l -4 0 z m 5 0 l 0 2 l 4 0 l 0 -2 l -4 0 z m 5 0 l 0 2 l 4 0 l 0 -2 l -4 0 z m 10 0 l 0 2 l 4 0 l 0 -2 l -4 0 z m 5 0 l 0 2 l 4 0 l 0 -2 l -4 0 z m 5 0 l 0 2 l 3.908 0 c 0 -0.003 0 -0.007 0 -0.01 c 0.057 -0.657 0.092 -1.32 0.092 -1.99 l -4 0 z m -40 3 l 0 2 l 4 0 l 0 -2 l -4 0 z m 5 0 l 0 2 l 4 0 l 0 -2 l -4 0 z m 5 0 l 0 2 l 4 0 l 0 -2 l -4 0 z m 5 0 l 0 2 l 4 0 l 0 -2 l -4 0 z m 5 0 l 0 2 l 4 0 l 0 -2 l -4 0 z m 5 0 l 0 2 l 4 0 l 0 -2 l -4 0 z m 5 0 l 0 2 l 4 0 l 0 -2 l -4 0 z m 5 0 l 0 2 l 4 0 l 0 -2 l -4 0 z m 5 0 l 0 2 l 3.449 0 c 0.001 -0.003 0.001 -0.007 0.002 -0.01 c 0.144 -0.65 0.257 -1.31 0.346 -1.979 c 0.001 -0.004 0.001 -0.008 0.002 -0.012 l -3.799 0 z m -40 3 l 0 2 l 4 0 l 0 -2 l -4 0 z m 5 0 l 0 2 l 4 0 l 0 -2 l -4 0 z m 5 0 l 0 2 l 4 0 l 0 -2 l -4 0 z m 5 0 l 0 2 l 4 0 l 0 -2 l -4 0 z m 5 0 l 0 2 l 4 0 l 0 -2 l -4 0 z m 5 0 l 0 2 l 4 0 l 0 -2 l -4 0 z m 5 0 l 0 2 l 4 0 l 0 -2 l -4 0 z m 5 0 l 0 2 l 4 0 l 0 -2 l -4 0 z m 5 0 l 0 2 l 2.568 0 c 0.001 -0.004 0.002 -0.008 0.004 -0.012 c 0.236 -0.639 0.443 -1.291 0.623 -1.955 c 0.001 -0.003 0.001 -0.005 0.002 -0.008 l -3.197 -0.025 z m -40 3 l 0 0.381 c 0.002 0.003 0.004 0.006 0.006 0.01 c 0.245 0.547 0.505 1.086 0.791 1.609 l 3.203 0 l 0 -2 l -4 0 z m 5 0 l 0 2 l 4 0 l 0 -2 l -4 0 z m 5 0 l 0 2 l 4 0 l 0 -2 l -4 0 z m 5 0 l 0 2 l 4 0 l 0 -2 l -4 0 z m 5 0 l 0 2 l 4 0 l 0 -2 l -4 0 z m 5 0 l 0 2 l 4 0 l 0 -2 l -4 0 z m 5 0 l 0 2 l 4 0 l 0 -2 l -4 0 z m 5 0 l 0 2 l 4 0 l 0 -2 l -4 0 z m 5 0 l 0 2 l 1.203 0 c 0.147 -0.27 0.285 -0.544 0.422 -0.82 c 0.028 -0.056 0.059 -0.11 0.086 -0.166 c 0.002 -0.003 0.002 -0.007 0.004 -0.01 c 0.16 -0.33 0.312 -0.665 0.457 -1 l -2.172 0 z" style="fill:#000;opacity:0.1;fill-opacity:1"/>
  <path d="m 2.088 17 c -0.029 0.092 -0.06 0.184 -0.088 0.277 l 0 1.723 4 0 0 -2 m -4 3 l 0 2 4 0 0 -2 z m 0 3 0 2 4 0 0 -2 z m 0 3 0 2 4 0 0 -2 z m 0 3 0 1.723 c 0.028 0.093 0.058 0.185 0.088 0.277 l 3.912 0 0 -2 m -3.568 3 c 0.253 0.683 0.537 1.35 0.852 2 l 2.717 0 0 -2" style="fill:url(#linearGradient4420);fill-opacity:1"/>
  <path d="m 42 14 l 0 2 l 3.568 0 c -0.253 -0.683 -0.537 -1.35 -0.852 -2 l -2.717 0 z m 0 3 l 0 2 l 4 0 l 0 -1.723 c -0.028 -0.093 -0.058 -0.185 -0.088 -0.277 l -3.912 0 z m 0 3 l 0 2 l 4 0 l 0 -2 l -4 0 z m 0 3 l 0 2 l 4 0 l 0 -2 l -4 0 z m 0 3 l 0 2 l 4 0 l 0 -2 l -4 0 z m 0 3 l 0 2 l 3.912 0 c 0.029 -0.092 0.06 -0.184 0.088 -0.277 l 0 -1.723 l -4 0 z m 0 3 l 0 2 l 2.717 0 c 0.315 -0.65 0.598 -1.317 0.852 -2 l -3.568 0 z" style="fill:url(#linearGradient4292);fill-opacity:1"/>
 </g>
 <g>
  <g>
   <g transform="translate(1,1)">
    <g style="opacity:0.1">
     <!-- color: #474747 -->
    </g>
   </g>
  </g>
 </g>
 <g>
  <!-- color: #474747 -->
  <g>
   <path d="m 7 20 0 2 4 0 0 -2 m -4 3 0 2 4 0 0 -2 m -4 3 0 2 4 0 0 -2 m -4 3 0 2 4 0 0 -2 m -4 3 l 0 2 4 0 0 -2" style="fill:url(#linearGradient4375);fill-opacity:1;stroke:none;fill-rule:nonzero"/>
   <path d="m 12 14 0 2 4 0 0 -2 z m 0 3 0 2 4 0 0 -2 z m 0 3 0 2 4 0 0 -2 z m 0 3 0 2 4 0 0 -2 z m 0 3 0 2 4 0 0 -2 z m 0 3 0 2 4 0 0 -2 z m 0 3 0 2 4 0 0 -2 z" style="fill:url(#linearGradient4388);fill-opacity:1;stroke:none;fill-rule:nonzero"/>
   <path d="m 17 23 0 2 4 0 0 -2 m -4 3 0 2 4 0 0 -2 m -4 3 0 2 4 0 0 -2 m -4 3 0 2 4 0 0 -2" style="fill:url(#linearGradient4264);fill-opacity:1;stroke:none;fill-rule:nonzero"/>
   <path d="m 27 26 0 2 4 0 0 -2 m -4 3 0 2 4 0 0 -2 m -4 3 0 2 4 0 0 -2" style="fill:url(#linearGradient4404);fill-opacity:1;stroke:none;fill-rule:nonzero"/>
   <path d="m 32 17 0 2 4 0 0 -2 m -4 3 0 2 4 0 0 -2 m -4 3 0 2 4 0 0 -2 m -4 3 0 2 4 0 0 -2 m -4 3 0 2 4 0 0 -2 m -4 3 0 2 4 0 0 -2" style="fill:url(#linearGradient4252);fill-opacity:1;stroke:none;fill-rule:nonzero"/>
   <path d="m 37 20 0 2 4 0 0 -2 m -4 3 0 2 4 0 0 -2 m -4 3 0 2 4 0 0 -2 m -4 3 0 2 4 0 0 -2 m -4 3 0 2 4 0 0 -2" style="fill:url(#linearGradient4250);fill-opacity:1;stroke:none;fill-rule:nonzero"/>
   <path d="m 22 20 0 2 4 0 0 -2 m -4 3 0 2 4 0 0 -2 m -4 3 0 2 4 0 0 -2 m -4 3 0 2 4 0 0 -2 m -4 3 0 2 4 0 0 -2" style="fill:url(#linearGradient4256);fill-opacity:1;stroke:none;fill-rule:nonzero"/>
  </g>
 </g>
 <path d="m 8.406 16.09 c -1.43 0 -2.688 0.797 -3.875 1.5 -1.01 0.596 -1.927 1.165 -2.961 1.326 -0.032 0.143 -0.07 0.285 -0.1 0.43 1.226 -0.127 2.287 -0.725 3.342 -1.35 1.188 -0.703 2.316 -1.344 3.594 -1.344 1.281 0 2.469 0.641 3.656 1.344 1.188 0.703 2.384 1.375 3.814 1.375 1.43 0 2.656 -0.672 3.844 -1.375 1.188 -0.703 2.379 -1.344 3.656 -1.344 1.281 0 2.406 0.641 3.594 1.344 1.188 0.703 2.383 1.375 3.813 1.375 1.441 0 2.625 -0.672 3.816 -1.375 1.188 -0.703 2.405 -1.344 3.688 -1.344 1.277 0 2.371 0.641 3.566 1.344 1.188 0.703 2.383 1.375 3.813 1.375 0.287 0 0.57 -0.03 0.85 -0.08 -0.029 -0.137 -0.063 -0.272 -0.094 -0.408 -0.25 0.047 -0.501 0.082 -0.756 0.082 -1.273 0 -2.344 -0.672 -3.527 -1.375 -1.191 -0.703 -2.414 -1.5 -3.848 -1.5 -1.43 0 -2.652 0.797 -3.844 1.5 -1.188 0.703 -2.379 1.375 -3.656 1.375 -1.273 0 -2.344 -0.672 -3.527 -1.375 -1.191 -0.703 -2.445 -1.5 -3.875 -1.5 -1.434 0 -2.723 0.797 -3.906 1.5 -1.191 0.703 -2.316 1.375 -3.594 1.375 -1.277 0 -2.473 -0.672 -3.656 -1.375 -1.191 -0.703 -2.382 -1.5 -3.811 -1.5 l -0.016 0 z m -5.906 7.223 c -0.557 0 -1.04 0.227 -1.496 0.529 c 0 0.053 -0.004 0.105 -0.004 0.158 0 0.134 0.008 0.267 0.01 0.4 0.497 -0.383 0.981 -0.682 1.49 -0.682 c 0.785 0 1.522 0.672 2.313 1.375 0.758 0.676 1.668 1.316 2.625 1.375 0.039 0.004 0.086 0 0.125 0 0.957 -0.059 1.836 -0.699 2.594 -1.375 0.789 -0.703 1.528 -1.375 2.314 -1.375 0.785 0 1.522 0.672 2.313 1.375 0.789 0.703 1.582 1.375 2.605 1.375 1.012 0 1.836 -0.672 2.625 -1.375 0.777 -0.703 1.52 -1.375 2.313 -1.375 0.785 0 1.523 0.672 2.313 1.375 0.789 0.703 1.707 1.375 2.719 1.375 1.012 0 1.805 -0.672 2.594 -1.375 0.789 -0.703 1.561 -1.375 2.346 -1.375 0.785 0 1.523 0.672 2.313 1.375 0.789 0.703 1.582 1.375 2.594 1.375 1.012 0 1.836 -0.672 2.625 -1.375 0.789 -0.703 1.526 -1.375 2.313 -1.375 0.785 0 1.523 0.672 2.313 1.375 0.708 0.631 1.522 1.234 2.416 1.352 0.015 -0.146 0.026 -0.294 0.039 -0.441 -0.712 -0.122 -1.506 -0.693 -2.205 -1.316 -0.789 -0.703 -1.547 -1.375 -2.563 -1.375 -1.012 0 -1.836 0.672 -2.625 1.375 -0.789 0.703 -1.526 1.344 -2.313 1.344 -0.785 0 -1.523 -0.641 -2.313 -1.344 -0.789 -0.703 -1.582 -1.375 -2.594 -1.375 -1.012 0 -1.836 0.672 -2.625 1.375 -0.789 0.703 -1.528 1.344 -2.314 1.344 -0.785 0 -1.68 -0.641 -2.469 -1.344 -0.789 -0.703 -1.55 -1.375 -2.563 -1.375 -1.016 0 -1.805 0.672 -2.594 1.375 -0.789 0.703 -1.566 1.344 -2.344 1.344 -0.785 0 -1.527 -0.641 -2.316 -1.344 -0.789 -0.703 -1.578 -1.375 -2.594 -1.375 -1.012 0 -1.773 0.672 -2.566 1.375 -0.754 0.672 -1.594 1.293 -2.344 1.344 -0.031 0 -0.09 0.004 -0.125 0 -0.75 -0.051 -1.555 -0.672 -2.313 -1.344 -0.789 -0.703 -1.613 -1.375 -2.625 -1.375 l -0.006 0 z m 1.842 7.938 c -0.702 0 -1.376 0.173 -2.025 0.422 0.05 0.142 0.101 0.285 0.154 0.426 0.612 -0.26 1.232 -0.441 1.873 -0.441 c 1.277 0 2.375 0.672 3.563 1.375 1.188 0.703 2.384 1.5 3.814 1.5 1.43 0 2.656 -0.797 3.844 -1.5 1.191 -0.703 2.379 -1.375 3.656 -1.375 1.281 0 2.375 0.672 3.563 1.375 1.191 0.703 2.414 1.5 3.855 1.5 1.43 0 2.746 -0.797 3.938 -1.5 1.188 -0.703 2.281 -1.375 3.563 -1.375 1.277 0 2.469 0.672 3.656 1.375 1.188 0.703 2.414 1.5 3.844 1.5 1.254 0 2.348 -0.613 3.4 -1.238 0.111 -0.25 0.216 -0.503 0.318 -0.758 -0.052 0.031 -0.104 0.059 -0.156 0.09 -1.188 0.703 -2.285 1.344 -3.563 1.344 -1.281 0 -2.5 -0.641 -3.691 -1.344 -1.188 -0.703 -2.383 -1.375 -3.813 -1.375 -1.438 0 -2.658 0.672 -3.854 1.375 -1.188 0.703 -2.373 1.344 -3.646 1.344 -1.277 0 -2.408 -0.641 -3.604 -1.344 -1.188 -0.703 -2.383 -1.375 -3.813 -1.375 -1.43 0 -2.625 0.672 -3.813 1.375 -1.188 0.703 -2.409 1.344 -3.688 1.344 -1.281 0 -2.376 -0.641 -3.564 -1.344 -1.187 -0.703 -2.381 -1.374 -3.811 -1.375 l -0.002 0 z" style="fill:#000;opacity:0.1;fill-opacity:1"/>
 <g>
  <path d="m 40.03 7.531 c 3.712 4.084 5.969 9.514 5.969 15.469 0 12.703 -10.297 23 -23 23 c -5.954 0 -11.384 -2.256 -15.469 -5.969 4.178 4.291 10.01 6.969 16.469 6.969 c 12.703 0 23 -10.298 23 -23 0 -6.462 -2.677 -12.291 -6.969 -16.469 z" style="opacity:0.1"/>
 </g>
 <path d="m 7.406 15.09 c -1.43 0 -2.688 0.797 -3.875 1.5 -0.543 0.321 -1.06 0.628 -1.584 0.875 -0.054 0.181 -0.105 0.364 -0.154 0.547 0.699 -0.261 1.363 -0.627 2.02 -1.016 1.188 -0.703 2.316 -1.344 3.594 -1.344 1.281 0 2.469 0.641 3.656 1.344 1.188 0.703 2.384 1.375 3.814 1.375 1.43 0 2.656 -0.672 3.844 -1.375 1.188 -0.703 2.379 -1.344 3.656 -1.344 1.281 0 2.406 0.641 3.594 1.344 1.188 0.703 2.383 1.375 3.813 1.375 1.441 0 2.625 -0.672 3.816 -1.375 1.188 -0.703 2.405 -1.344 3.688 -1.344 1.277 0 2.371 0.641 3.566 1.344 1.188 0.703 2.383 1.375 3.813 1.375 0.537 0 1.059 -0.106 1.568 -0.264 -0.037 -0.139 -0.078 -0.276 -0.117 -0.414 -0.477 0.16 -0.959 0.271 -1.451 0.271 -1.273 0 -2.344 -0.672 -3.527 -1.375 -1.191 -0.703 -2.414 -1.5 -3.848 -1.5 -1.43 0 -2.652 0.797 -3.844 1.5 -1.188 0.703 -2.379 1.375 -3.656 1.375 -1.273 0 -2.344 -0.672 -3.527 -1.375 -1.191 -0.703 -2.445 -1.5 -3.875 -1.5 -1.434 0 -2.723 0.797 -3.906 1.5 -1.191 0.703 -2.316 1.375 -3.594 1.375 -1.277 0 -2.473 -0.672 -3.656 -1.375 -1.191 -0.703 -2.382 -1.5 -3.811 -1.5 l -0.016 0 z m -5.906 7.223 c -0.15 0 -0.295 0.019 -0.436 0.049 -0.01 0.149 -0.028 0.296 -0.035 0.445 0.155 -0.051 0.312 -0.088 0.471 -0.088 0.785 0 1.523 0.672 2.313 1.375 0.758 0.676 1.668 1.316 2.625 1.375 0.039 0.004 0.086 0 0.125 0 0.957 -0.059 1.836 -0.699 2.594 -1.375 0.789 -0.703 1.528 -1.375 2.314 -1.375 0.785 0 1.523 0.672 2.313 1.375 0.789 0.703 1.582 1.375 2.605 1.375 1.012 0 1.836 -0.672 2.625 -1.375 0.777 -0.703 1.52 -1.375 2.313 -1.375 0.785 0 1.523 0.672 2.313 1.375 0.789 0.703 1.707 1.375 2.719 1.375 1.012 0 1.805 -0.672 2.594 -1.375 0.789 -0.703 1.561 -1.375 2.346 -1.375 0.785 0 1.523 0.672 2.313 1.375 0.789 0.703 1.582 1.375 2.594 1.375 1.012 0 1.836 -0.672 2.625 -1.375 0.789 -0.703 1.526 -1.375 2.313 -1.375 0.785 0 1.523 0.672 2.313 1.375 0.789 0.703 1.709 1.375 2.725 1.375 0.277 0 0.534 -0.066 0.783 -0.16 0.009 -0.164 0.014 -0.329 0.02 -0.494 -0.264 0.129 -0.53 0.217 -0.803 0.217 -0.777 0 -1.686 -0.641 -2.475 -1.344 -0.789 -0.703 -1.547 -1.375 -2.563 -1.375 -1.012 0 -1.836 0.672 -2.625 1.375 -0.789 0.703 -1.526 1.344 -2.313 1.344 -0.785 0 -1.523 -0.641 -2.313 -1.344 -0.789 -0.703 -1.582 -1.375 -2.594 -1.375 -1.012 0 -1.836 0.672 -2.625 1.375 -0.789 0.703 -1.528 1.344 -2.314 1.344 -0.785 0 -1.68 -0.641 -2.469 -1.344 -0.789 -0.703 -1.55 -1.375 -2.563 -1.375 -1.016 0 -1.805 0.672 -2.594 1.375 -0.789 0.703 -1.566 1.344 -2.344 1.344 -0.785 0 -1.527 -0.641 -2.316 -1.344 -0.789 -0.703 -1.578 -1.375 -2.594 -1.375 -1.012 0 -1.773 0.672 -2.566 1.375 -0.754 0.672 -1.594 1.293 -2.344 1.344 -0.031 0 -0.09 0.004 -0.125 0 -0.75 -0.051 -1.555 -0.672 -2.313 -1.344 -0.789 -0.703 -1.613 -1.375 -2.625 -1.375 l -0.006 0 z m 1.842 7.938 c -0.484 0 -0.953 0.091 -1.412 0.221 0.041 0.14 0.078 0.281 0.121 0.42 c 0.425 -0.135 0.853 -0.234 1.293 -0.234 c 1.277 0 2.375 0.672 3.562 1.375 1.188 0.703 2.384 1.5 3.814 1.5 1.43 0 2.656 -0.797 3.844 -1.5 1.191 -0.703 2.379 -1.375 3.656 -1.375 1.281 0 2.375 0.672 3.563 1.375 1.191 0.703 2.414 1.5 3.855 1.5 1.43 0 2.746 -0.797 3.938 -1.5 1.188 -0.703 2.281 -1.375 3.563 -1.375 1.277 0 2.469 0.672 3.656 1.375 1.188 0.703 2.414 1.5 3.844 1.5 1.43 0 2.656 -0.797 3.844 -1.5 0.457 -0.27 0.895 -0.523 1.334 -0.748 0.067 -0.202 0.135 -0.403 0.197 -0.607 -0.624 0.256 -1.22 0.598 -1.813 0.949 -1.188 0.703 -2.285 1.344 -3.563 1.344 -1.281 0 -2.5 -0.641 -3.691 -1.344 -1.188 -0.703 -2.383 -1.375 -3.813 -1.375 -1.438 0 -2.658 0.672 -3.854 1.375 -1.188 0.703 -2.373 1.344 -3.646 1.344 -1.277 0 -2.408 -0.641 -3.604 -1.344 -1.188 -0.703 -2.383 -1.375 -3.813 -1.375 -1.43 0 -2.624 0.672 -3.813 1.375 -1.188 0.703 -2.409 1.344 -3.688 1.344 -1.281 0 -2.376 -0.641 -3.564 -1.344 -1.187 -0.703 -2.381 -1.374 -3.811 -1.375 l -0.002 0 z" style="fill:#f9f9f9;fill-opacity:1"/>
</svg>
